{
    "format": 1, 
    "instruments": [], 
    "resolution": 1000, 
    "channels": [], 
    "tracks": [
        {
            "trackName": "Track1", 
            "seq": [
                [
                    0, 
                    [
                        {
                            "pitch": 23, 
                            "t0": 0, 
                            "v": 25, 
                            "dur": 400.0, 
                            "type": "note", 
                            "channel": 0
                        }, 
                        {
                            "pitch": 35, 
                            "t0": 0, 
                            "v": 95, 
                            "dur": 400.0, 
                            "type": "note", 
                            "channel": 0
                        }, 
                        {
                            "pitch": 47, 
                            "t0": 0, 
                            "v": 119, 
                            "dur": 400.0, 
                            "type": "note", 
                            "channel": 0
                        }, 
                        {
                            "pitch": 59, 
                            "t0": 0, 
                            "v": 86, 
                            "dur": 400.0, 
                            "type": "note", 
                            "channel": 0
                        }, 
                        {
                            "pitch": 71, 
                            "t0": 0, 
                            "v": 11, 
                            "dur": 400.0, 
                            "type": "note", 
                            "channel": 0
                        }
                    ]
                ], 
                [
                    500.0, 
                    [
                        {
                            "pitch": 25, 
                            "t0": 500.0, 
                            "v": 39, 
                            "dur": 400.0, 
                            "type": "note", 
                            "channel": 0
                        }, 
                        {
                            "pitch": 37, 
                            "t0": 500.0, 
                            "v": 103, 
                            "dur": 400.0, 
                            "type": "note", 
                            "channel": 0
                        }, 
                        {
                            "pitch": 49, 
                            "t0": 500.0, 
                            "v": 118, 
                            "dur": 400.0, 
                            "type": "note", 
                            "channel": 0
                        }, 
                        {
                            "pitch": 61, 
                            "t0": 500.0, 
                            "v": 76, 
                            "dur": 400.0, 
                            "type": "note", 
                            "channel": 0
                        }
                    ]
                ], 
                [
                    1000.0, 
                    [
                        {
                            "pitch": 27, 
                            "t0": 1000.0, 
                            "v": 52, 
                            "dur": 400.0, 
                            "type": "note", 
                            "channel": 0
                        }, 
                        {
                            "pitch": 39, 
                            "t0": 1000.0, 
                            "v": 109, 
                            "dur": 400.0, 
                            "type": "note", 
                            "channel": 0
                        }, 
                        {
                            "pitch": 51, 
                            "t0": 1000.0, 
                            "v": 114, 
                            "dur": 400.0, 
                            "type": "note", 
                            "channel": 0
                        }, 
                        {
                            "pitch": 63, 
                            "t0": 1000.0, 
                            "v": 64, 
                            "dur": 400.0, 
                            "type": "note", 
                            "channel": 0
                        }
                    ]
                ], 
                [
                    1500.0, 
                    [
                        {
                            "pitch": 23, 
                            "t0": 1500.0, 
                            "v": 25, 
                            "dur": 800.0, 
                            "type": "note", 
                            "channel": 0
                        }, 
                        {
                            "pitch": 35, 
                            "t0": 1500.0, 
                            "v": 95, 
                            "dur": 800.0, 
                            "type": "note", 
                            "channel": 0
                        }, 
                        {
                            "pitch": 47, 
                            "t0": 1500.0, 
                            "v": 119, 
                            "dur": 800.0, 
                            "type": "note", 
                            "channel": 0
                        }, 
                        {
                            "pitch": 59, 
                            "t0": 1500.0, 
                            "v": 86, 
                            "dur": 800.0, 
                            "type": "note", 
                            "channel": 0
                        }, 
                        {
                            "pitch": 71, 
                            "t0": 1500.0, 
                            "v": 11, 
                            "dur": 800.0, 
                            "type": "note", 
                            "channel": 0
                        }
                    ]
                ], 
                [
                    2500.0, 
                    [
                        {
                            "pitch": 27, 
                            "t0": 2500.0, 
                            "v": 52, 
                            "dur": 400.0, 
                            "type": "note", 
                            "channel": 0
                        }, 
                        {
                            "pitch": 39, 
                            "t0": 2500.0, 
                            "v": 109, 
                            "dur": 400.0, 
                            "type": "note", 
                            "channel": 0
                        }, 
                        {
                            "pitch": 51, 
                            "t0": 2500.0, 
                            "v": 114, 
                            "dur": 400.0, 
                            "type": "note", 
                            "channel": 0
                        }, 
                        {
                            "pitch": 63, 
                            "t0": 2500.0, 
                            "v": 64, 
                            "dur": 400.0, 
                            "type": "note", 
                            "channel": 0
                        }
                    ]
                ], 
                [
                    3000.0, 
                    [
                        {
                            "pitch": 28, 
                            "t0": 3000.0, 
                            "v": 58, 
                            "dur": 400.0, 
                            "type": "note", 
                            "channel": 0
                        }, 
                        {
                            "pitch": 40, 
                            "t0": 3000.0, 
                            "v": 112, 
                            "dur": 400.0, 
                            "type": "note", 
                            "channel": 0
                        }, 
                        {
                            "pitch": 52, 
                            "t0": 3000.0, 
                            "v": 112, 
                            "dur": 400.0, 
                            "type": "note", 
                            "channel": 0
                        }, 
                        {
                            "pitch": 64, 
                            "t0": 3000.0, 
                            "v": 58, 
                            "dur": 400.0, 
                            "type": "note", 
                            "channel": 0
                        }
                    ]
                ], 
                [
                    3500.0, 
                    [
                        {
                            "pitch": 30, 
                            "t0": 3500.0, 
                            "v": 70, 
                            "dur": 1600.0, 
                            "type": "note", 
                            "channel": 0
                        }, 
                        {
                            "pitch": 42, 
                            "t0": 3500.0, 
                            "v": 116, 
                            "dur": 1600.0, 
                            "type": "note", 
                            "channel": 0
                        }, 
                        {
                            "pitch": 54, 
                            "t0": 3500.0, 
                            "v": 106, 
                            "dur": 1600.0, 
                            "type": "note", 
                            "channel": 0
                        }, 
                        {
                            "pitch": 66, 
                            "t0": 3500.0, 
                            "v": 45, 
                            "dur": 1600.0, 
                            "type": "note", 
                            "channel": 0
                        }
                    ]
                ], 
                [
                    5500.0, 
                    [
                        {
                            "pitch": 32, 
                            "t0": 5500.0, 
                            "v": 81, 
                            "dur": 800.0, 
                            "type": "note", 
                            "channel": 0
                        }, 
                        {
                            "pitch": 44, 
                            "t0": 5500.0, 
                            "v": 119, 
                            "dur": 800.0, 
                            "type": "note", 
                            "channel": 0
                        }, 
                        {
                            "pitch": 56, 
                            "t0": 5500.0, 
                            "v": 99, 
                            "dur": 800.0, 
                            "type": "note", 
                            "channel": 0
                        }, 
                        {
                            "pitch": 68, 
                            "t0": 5500.0, 
                            "v": 32, 
                            "dur": 800.0, 
                            "type": "note", 
                            "channel": 0
                        }
                    ]
                ], 
                [
                    6500.0, 
                    [
                        {
                            "pitch": 28, 
                            "t0": 6500.0, 
                            "v": 58, 
                            "dur": 800.0, 
                            "type": "note", 
                            "channel": 0
                        }, 
                        {
                            "pitch": 40, 
                            "t0": 6500.0, 
                            "v": 112, 
                            "dur": 800.0, 
                            "type": "note", 
                            "channel": 0
                        }, 
                        {
                            "pitch": 52, 
                            "t0": 6500.0, 
                            "v": 112, 
                            "dur": 800.0, 
                            "type": "note", 
                            "channel": 0
                        }, 
                        {
                            "pitch": 64, 
                            "t0": 6500.0, 
                            "v": 58, 
                            "dur": 800.0, 
                            "type": "note", 
                            "channel": 0
                        }
                    ]
                ], 
                [
                    7500.0, 
                    [
                        {
                            "pitch": 32, 
                            "t0": 7500.0, 
                            "v": 81, 
                            "dur": 800.0, 
                            "type": "note", 
                            "channel": 0
                        }, 
                        {
                            "pitch": 44, 
                            "t0": 7500.0, 
                            "v": 119, 
                            "dur": 800.0, 
                            "type": "note", 
                            "channel": 0
                        }, 
                        {
                            "pitch": 56, 
                            "t0": 7500.0, 
                            "v": 99, 
                            "dur": 800.0, 
                            "type": "note", 
                            "channel": 0
                        }, 
                        {
                            "pitch": 68, 
                            "t0": 7500.0, 
                            "v": 32, 
                            "dur": 800.0, 
                            "type": "note", 
                            "channel": 0
                        }
                    ]
                ], 
                [
                    8500.0, 
                    [
                        {
                            "pitch": 34, 
                            "t0": 8500.0, 
                            "v": 91, 
                            "dur": 800.0, 
                            "type": "note", 
                            "channel": 0
                        }, 
                        {
                            "pitch": 46, 
                            "t0": 8500.0, 
                            "v": 120, 
                            "dur": 800.0, 
                            "type": "note", 
                            "channel": 0
                        }, 
                        {
                            "pitch": 58, 
                            "t0": 8500.0, 
                            "v": 91, 
                            "dur": 800.0, 
                            "type": "note", 
                            "channel": 0
                        }, 
                        {
                            "pitch": 70, 
                            "t0": 8500.0, 
                            "v": 18, 
                            "dur": 800.0, 
                            "type": "note", 
                            "channel": 0
                        }
                    ]
                ], 
                [
                    9500.0, 
                    [
                        {
                            "pitch": 23, 
                            "t0": 9500.0, 
                            "v": 25, 
                            "dur": 400.0, 
                            "type": "note", 
                            "channel": 0
                        }, 
                        {
                            "pitch": 35, 
                            "t0": 9500.0, 
                            "v": 95, 
                            "dur": 400.0, 
                            "type": "note", 
                            "channel": 0
                        }, 
                        {
                            "pitch": 47, 
                            "t0": 9500.0, 
                            "v": 119, 
                            "dur": 400.0, 
                            "type": "note", 
                            "channel": 0
                        }, 
                        {
                            "pitch": 59, 
                            "t0": 9500.0, 
                            "v": 86, 
                            "dur": 400.0, 
                            "type": "note", 
                            "channel": 0
                        }, 
                        {
                            "pitch": 71, 
                            "t0": 9500.0, 
                            "v": 11, 
                            "dur": 400.0, 
                            "type": "note", 
                            "channel": 0
                        }
                    ]
                ], 
                [
                    10000.0, 
                    [
                        {
                            "pitch": 25, 
                            "t0": 10000.0, 
                            "v": 39, 
                            "dur": 400.0, 
                            "type": "note", 
                            "channel": 0
                        }, 
                        {
                            "pitch": 37, 
                            "t0": 10000.0, 
                            "v": 103, 
                            "dur": 400.0, 
                            "type": "note", 
                            "channel": 0
                        }, 
                        {
                            "pitch": 49, 
                            "t0": 10000.0, 
                            "v": 118, 
                            "dur": 400.0, 
                            "type": "note", 
                            "channel": 0
                        }, 
                        {
                            "pitch": 61, 
                            "t0": 10000.0, 
                            "v": 76, 
                            "dur": 400.0, 
                            "type": "note", 
                            "channel": 0
                        }
                    ]
                ], 
                [
                    10500.0, 
                    [
                        {
                            "pitch": 27, 
                            "t0": 10500.0, 
                            "v": 52, 
                            "dur": 400.0, 
                            "type": "note", 
                            "channel": 0
                        }, 
                        {
                            "pitch": 39, 
                            "t0": 10500.0, 
                            "v": 109, 
                            "dur": 400.0, 
                            "type": "note", 
                            "channel": 0
                        }, 
                        {
                            "pitch": 51, 
                            "t0": 10500.0, 
                            "v": 114, 
                            "dur": 400.0, 
                            "type": "note", 
                            "channel": 0
                        }, 
                        {
                            "pitch": 63, 
                            "t0": 10500.0, 
                            "v": 64, 
                            "dur": 400.0, 
                            "type": "note", 
                            "channel": 0
                        }
                    ]
                ], 
                [
                    11000.0, 
                    [
                        {
                            "pitch": 23, 
                            "t0": 11000.0, 
                            "v": 25, 
                            "dur": 800.0, 
                            "type": "note", 
                            "channel": 0
                        }, 
                        {
                            "pitch": 35, 
                            "t0": 11000.0, 
                            "v": 95, 
                            "dur": 800.0, 
                            "type": "note", 
                            "channel": 0
                        }, 
                        {
                            "pitch": 47, 
                            "t0": 11000.0, 
                            "v": 119, 
                            "dur": 800.0, 
                            "type": "note", 
                            "channel": 0
                        }, 
                        {
                            "pitch": 59, 
                            "t0": 11000.0, 
                            "v": 86, 
                            "dur": 800.0, 
                            "type": "note", 
                            "channel": 0
                        }, 
                        {
                            "pitch": 71, 
                            "t0": 11000.0, 
                            "v": 11, 
                            "dur": 800.0, 
                            "type": "note", 
                            "channel": 0
                        }
                    ]
                ], 
                [
                    12000.0, 
                    [
                        {
                            "pitch": 27, 
                            "t0": 12000.0, 
                            "v": 52, 
                            "dur": 400.0, 
                            "type": "note", 
                            "channel": 0
                        }, 
                        {
                            "pitch": 39, 
                            "t0": 12000.0, 
                            "v": 109, 
                            "dur": 400.0, 
                            "type": "note", 
                            "channel": 0
                        }, 
                        {
                            "pitch": 51, 
                            "t0": 12000.0, 
                            "v": 114, 
                            "dur": 400.0, 
                            "type": "note", 
                            "channel": 0
                        }, 
                        {
                            "pitch": 63, 
                            "t0": 12000.0, 
                            "v": 64, 
                            "dur": 400.0, 
                            "type": "note", 
                            "channel": 0
                        }
                    ]
                ], 
                [
                    12500.0, 
                    [
                        {
                            "pitch": 28, 
                            "t0": 12500.0, 
                            "v": 58, 
                            "dur": 400.0, 
                            "type": "note", 
                            "channel": 0
                        }, 
                        {
                            "pitch": 40, 
                            "t0": 12500.0, 
                            "v": 112, 
                            "dur": 400.0, 
                            "type": "note", 
                            "channel": 0
                        }, 
                        {
                            "pitch": 52, 
                            "t0": 12500.0, 
                            "v": 112, 
                            "dur": 400.0, 
                            "type": "note", 
                            "channel": 0
                        }, 
                        {
                            "pitch": 64, 
                            "t0": 12500.0, 
                            "v": 58, 
                            "dur": 400.0, 
                            "type": "note", 
                            "channel": 0
                        }
                    ]
                ], 
                [
                    13000.0, 
                    [
                        {
                            "pitch": 30, 
                            "t0": 13000.0, 
                            "v": 70, 
                            "dur": 1600.0, 
                            "type": "note", 
                            "channel": 0
                        }, 
                        {
                            "pitch": 42, 
                            "t0": 13000.0, 
                            "v": 116, 
                            "dur": 1600.0, 
                            "type": "note", 
                            "channel": 0
                        }, 
                        {
                            "pitch": 54, 
                            "t0": 13000.0, 
                            "v": 106, 
                            "dur": 1600.0, 
                            "type": "note", 
                            "channel": 0
                        }, 
                        {
                            "pitch": 66, 
                            "t0": 13000.0, 
                            "v": 45, 
                            "dur": 1600.0, 
                            "type": "note", 
                            "channel": 0
                        }
                    ]
                ], 
                [
                    15000.0, 
                    [
                        {
                            "pitch": 32, 
                            "t0": 15000.0, 
                            "v": 81, 
                            "dur": 800.0, 
                            "type": "note", 
                            "channel": 0
                        }, 
                        {
                            "pitch": 44, 
                            "t0": 15000.0, 
                            "v": 119, 
                            "dur": 800.0, 
                            "type": "note", 
                            "channel": 0
                        }, 
                        {
                            "pitch": 56, 
                            "t0": 15000.0, 
                            "v": 99, 
                            "dur": 800.0, 
                            "type": "note", 
                            "channel": 0
                        }, 
                        {
                            "pitch": 68, 
                            "t0": 15000.0, 
                            "v": 32, 
                            "dur": 800.0, 
                            "type": "note", 
                            "channel": 0
                        }
                    ]
                ], 
                [
                    16000.0, 
                    [
                        {
                            "pitch": 28, 
                            "t0": 16000.0, 
                            "v": 58, 
                            "dur": 800.0, 
                            "type": "note", 
                            "channel": 0
                        }, 
                        {
                            "pitch": 40, 
                            "t0": 16000.0, 
                            "v": 112, 
                            "dur": 800.0, 
                            "type": "note", 
                            "channel": 0
                        }, 
                        {
                            "pitch": 52, 
                            "t0": 16000.0, 
                            "v": 112, 
                            "dur": 800.0, 
                            "type": "note", 
                            "channel": 0
                        }, 
                        {
                            "pitch": 64, 
                            "t0": 16000.0, 
                            "v": 58, 
                            "dur": 800.0, 
                            "type": "note", 
                            "channel": 0
                        }
                    ]
                ], 
                [
                    17000.0, 
                    [
                        {
                            "pitch": 32, 
                            "t0": 17000.0, 
                            "v": 81, 
                            "dur": 800.0, 
                            "type": "note", 
                            "channel": 0
                        }, 
                        {
                            "pitch": 44, 
                            "t0": 17000.0, 
                            "v": 119, 
                            "dur": 800.0, 
                            "type": "note", 
                            "channel": 0
                        }, 
                        {
                            "pitch": 56, 
                            "t0": 17000.0, 
                            "v": 99, 
                            "dur": 800.0, 
                            "type": "note", 
                            "channel": 0
                        }, 
                        {
                            "pitch": 68, 
                            "t0": 17000.0, 
                            "v": 32, 
                            "dur": 800.0, 
                            "type": "note", 
                            "channel": 0
                        }
                    ]
                ], 
                [
                    18000.0, 
                    [
                        {
                            "pitch": 34, 
                            "t0": 18000.0, 
                            "v": 91, 
                            "dur": 800.0, 
                            "type": "note", 
                            "channel": 0
                        }, 
                        {
                            "pitch": 46, 
                            "t0": 18000.0, 
                            "v": 120, 
                            "dur": 800.0, 
                            "type": "note", 
                            "channel": 0
                        }, 
                        {
                            "pitch": 58, 
                            "t0": 18000.0, 
                            "v": 91, 
                            "dur": 800.0, 
                            "type": "note", 
                            "channel": 0
                        }, 
                        {
                            "pitch": 70, 
                            "t0": 18000.0, 
                            "v": 18, 
                            "dur": 800.0, 
                            "type": "note", 
                            "channel": 0
                        }
                    ]
                ], 
                [
                    19000.0, 
                    [
                        {
                            "pitch": 23, 
                            "t0": 19000.0, 
                            "v": 25, 
                            "dur": 400.0, 
                            "type": "note", 
                            "channel": 0
                        }, 
                        {
                            "pitch": 35, 
                            "t0": 19000.0, 
                            "v": 95, 
                            "dur": 400.0, 
                            "type": "note", 
                            "channel": 0
                        }, 
                        {
                            "pitch": 47, 
                            "t0": 19000.0, 
                            "v": 119, 
                            "dur": 400.0, 
                            "type": "note", 
                            "channel": 0
                        }, 
                        {
                            "pitch": 59, 
                            "t0": 19000.0, 
                            "v": 86, 
                            "dur": 400.0, 
                            "type": "note", 
                            "channel": 0
                        }, 
                        {
                            "pitch": 71, 
                            "t0": 19000.0, 
                            "v": 11, 
                            "dur": 400.0, 
                            "type": "note", 
                            "channel": 0
                        }
                    ]
                ], 
                [
                    19500.0, 
                    [
                        {
                            "pitch": 25, 
                            "t0": 19500.0, 
                            "v": 39, 
                            "dur": 400.0, 
                            "type": "note", 
                            "channel": 0
                        }, 
                        {
                            "pitch": 37, 
                            "t0": 19500.0, 
                            "v": 103, 
                            "dur": 400.0, 
                            "type": "note", 
                            "channel": 0
                        }, 
                        {
                            "pitch": 49, 
                            "t0": 19500.0, 
                            "v": 118, 
                            "dur": 400.0, 
                            "type": "note", 
                            "channel": 0
                        }, 
                        {
                            "pitch": 61, 
                            "t0": 19500.0, 
                            "v": 76, 
                            "dur": 400.0, 
                            "type": "note", 
                            "channel": 0
                        }
                    ]
                ], 
                [
                    20000.0, 
                    [
                        {
                            "pitch": 27, 
                            "t0": 20000.0, 
                            "v": 52, 
                            "dur": 400.0, 
                            "type": "note", 
                            "channel": 0
                        }, 
                        {
                            "pitch": 39, 
                            "t0": 20000.0, 
                            "v": 109, 
                            "dur": 400.0, 
                            "type": "note", 
                            "channel": 0
                        }, 
                        {
                            "pitch": 51, 
                            "t0": 20000.0, 
                            "v": 114, 
                            "dur": 400.0, 
                            "type": "note", 
                            "channel": 0
                        }, 
                        {
                            "pitch": 63, 
                            "t0": 20000.0, 
                            "v": 64, 
                            "dur": 400.0, 
                            "type": "note", 
                            "channel": 0
                        }
                    ]
                ], 
                [
                    20500.0, 
                    [
                        {
                            "pitch": 23, 
                            "t0": 20500.0, 
                            "v": 25, 
                            "dur": 800.0, 
                            "type": "note", 
                            "channel": 0
                        }, 
                        {
                            "pitch": 35, 
                            "t0": 20500.0, 
                            "v": 95, 
                            "dur": 800.0, 
                            "type": "note", 
                            "channel": 0
                        }, 
                        {
                            "pitch": 47, 
                            "t0": 20500.0, 
                            "v": 119, 
                            "dur": 800.0, 
                            "type": "note", 
                            "channel": 0
                        }, 
                        {
                            "pitch": 59, 
                            "t0": 20500.0, 
                            "v": 86, 
                            "dur": 800.0, 
                            "type": "note", 
                            "channel": 0
                        }, 
                        {
                            "pitch": 71, 
                            "t0": 20500.0, 
                            "v": 11, 
                            "dur": 800.0, 
                            "type": "note", 
                            "channel": 0
                        }
                    ]
                ], 
                [
                    21500.0, 
                    [
                        {
                            "pitch": 27, 
                            "t0": 21500.0, 
                            "v": 52, 
                            "dur": 400.0, 
                            "type": "note", 
                            "channel": 0
                        }, 
                        {
                            "pitch": 39, 
                            "t0": 21500.0, 
                            "v": 109, 
                            "dur": 400.0, 
                            "type": "note", 
                            "channel": 0
                        }, 
                        {
                            "pitch": 51, 
                            "t0": 21500.0, 
                            "v": 114, 
                            "dur": 400.0, 
                            "type": "note", 
                            "channel": 0
                        }, 
                        {
                            "pitch": 63, 
                            "t0": 21500.0, 
                            "v": 64, 
                            "dur": 400.0, 
                            "type": "note", 
                            "channel": 0
                        }
                    ]
                ], 
                [
                    22000.0, 
                    [
                        {
                            "pitch": 28, 
                            "t0": 22000.0, 
                            "v": 58, 
                            "dur": 400.0, 
                            "type": "note", 
                            "channel": 0
                        }, 
                        {
                            "pitch": 40, 
                            "t0": 22000.0, 
                            "v": 112, 
                            "dur": 400.0, 
                            "type": "note", 
                            "channel": 0
                        }, 
                        {
                            "pitch": 52, 
                            "t0": 22000.0, 
                            "v": 112, 
                            "dur": 400.0, 
                            "type": "note", 
                            "channel": 0
                        }, 
                        {
                            "pitch": 64, 
                            "t0": 22000.0, 
                            "v": 58, 
                            "dur": 400.0, 
                            "type": "note", 
                            "channel": 0
                        }
                    ]
                ], 
                [
                    22500.0, 
                    [
                        {
                            "pitch": 30, 
                            "t0": 22500.0, 
                            "v": 70, 
                            "dur": 1600.0, 
                            "type": "note", 
                            "channel": 0
                        }, 
                        {
                            "pitch": 42, 
                            "t0": 22500.0, 
                            "v": 116, 
                            "dur": 1600.0, 
                            "type": "note", 
                            "channel": 0
                        }, 
                        {
                            "pitch": 54, 
                            "t0": 22500.0, 
                            "v": 106, 
                            "dur": 1600.0, 
                            "type": "note", 
                            "channel": 0
                        }, 
                        {
                            "pitch": 66, 
                            "t0": 22500.0, 
                            "v": 45, 
                            "dur": 1600.0, 
                            "type": "note", 
                            "channel": 0
                        }
                    ]
                ], 
                [
                    24500.0, 
                    [
                        {
                            "pitch": 32, 
                            "t0": 24500.0, 
                            "v": 81, 
                            "dur": 800.0, 
                            "type": "note", 
                            "channel": 0
                        }, 
                        {
                            "pitch": 44, 
                            "t0": 24500.0, 
                            "v": 119, 
                            "dur": 800.0, 
                            "type": "note", 
                            "channel": 0
                        }, 
                        {
                            "pitch": 56, 
                            "t0": 24500.0, 
                            "v": 99, 
                            "dur": 800.0, 
                            "type": "note", 
                            "channel": 0
                        }, 
                        {
                            "pitch": 68, 
                            "t0": 24500.0, 
                            "v": 32, 
                            "dur": 800.0, 
                            "type": "note", 
                            "channel": 0
                        }
                    ]
                ], 
                [
                    25500.0, 
                    [
                        {
                            "pitch": 28, 
                            "t0": 25500.0, 
                            "v": 58, 
                            "dur": 800.0, 
                            "type": "note", 
                            "channel": 0
                        }, 
                        {
                            "pitch": 40, 
                            "t0": 25500.0, 
                            "v": 112, 
                            "dur": 800.0, 
                            "type": "note", 
                            "channel": 0
                        }, 
                        {
                            "pitch": 52, 
                            "t0": 25500.0, 
                            "v": 112, 
                            "dur": 800.0, 
                            "type": "note", 
                            "channel": 0
                        }, 
                        {
                            "pitch": 64, 
                            "t0": 25500.0, 
                            "v": 58, 
                            "dur": 800.0, 
                            "type": "note", 
                            "channel": 0
                        }
                    ]
                ], 
                [
                    26500.0, 
                    [
                        {
                            "pitch": 32, 
                            "t0": 26500.0, 
                            "v": 81, 
                            "dur": 800.0, 
                            "type": "note", 
                            "channel": 0
                        }, 
                        {
                            "pitch": 44, 
                            "t0": 26500.0, 
                            "v": 119, 
                            "dur": 800.0, 
                            "type": "note", 
                            "channel": 0
                        }, 
                        {
                            "pitch": 56, 
                            "t0": 26500.0, 
                            "v": 99, 
                            "dur": 800.0, 
                            "type": "note", 
                            "channel": 0
                        }, 
                        {
                            "pitch": 68, 
                            "t0": 26500.0, 
                            "v": 32, 
                            "dur": 800.0, 
                            "type": "note", 
                            "channel": 0
                        }
                    ]
                ], 
                [
                    27500.0, 
                    [
                        {
                            "pitch": 34, 
                            "t0": 27500.0, 
                            "v": 91, 
                            "dur": 800.0, 
                            "type": "note", 
                            "channel": 0
                        }, 
                        {
                            "pitch": 46, 
                            "t0": 27500.0, 
                            "v": 120, 
                            "dur": 800.0, 
                            "type": "note", 
                            "channel": 0
                        }, 
                        {
                            "pitch": 58, 
                            "t0": 27500.0, 
                            "v": 91, 
                            "dur": 800.0, 
                            "type": "note", 
                            "channel": 0
                        }, 
                        {
                            "pitch": 70, 
                            "t0": 27500.0, 
                            "v": 18, 
                            "dur": 800.0, 
                            "type": "note", 
                            "channel": 0
                        }
                    ]
                ], 
                [
                    28500.0, 
                    [
                        {
                            "pitch": 23, 
                            "t0": 28500.0, 
                            "v": 25, 
                            "dur": 400.0, 
                            "type": "note", 
                            "channel": 0
                        }, 
                        {
                            "pitch": 35, 
                            "t0": 28500.0, 
                            "v": 95, 
                            "dur": 400.0, 
                            "type": "note", 
                            "channel": 0
                        }, 
                        {
                            "pitch": 47, 
                            "t0": 28500.0, 
                            "v": 119, 
                            "dur": 400.0, 
                            "type": "note", 
                            "channel": 0
                        }, 
                        {
                            "pitch": 59, 
                            "t0": 28500.0, 
                            "v": 86, 
                            "dur": 400.0, 
                            "type": "note", 
                            "channel": 0
                        }, 
                        {
                            "pitch": 71, 
                            "t0": 28500.0, 
                            "v": 11, 
                            "dur": 400.0, 
                            "type": "note", 
                            "channel": 0
                        }
                    ]
                ], 
                [
                    29000.0, 
                    [
                        {
                            "pitch": 25, 
                            "t0": 29000.0, 
                            "v": 39, 
                            "dur": 400.0, 
                            "type": "note", 
                            "channel": 0
                        }, 
                        {
                            "pitch": 37, 
                            "t0": 29000.0, 
                            "v": 103, 
                            "dur": 400.0, 
                            "type": "note", 
                            "channel": 0
                        }, 
                        {
                            "pitch": 49, 
                            "t0": 29000.0, 
                            "v": 118, 
                            "dur": 400.0, 
                            "type": "note", 
                            "channel": 0
                        }, 
                        {
                            "pitch": 61, 
                            "t0": 29000.0, 
                            "v": 76, 
                            "dur": 400.0, 
                            "type": "note", 
                            "channel": 0
                        }
                    ]
                ], 
                [
                    29500.0, 
                    [
                        {
                            "pitch": 27, 
                            "t0": 29500.0, 
                            "v": 52, 
                            "dur": 400.0, 
                            "type": "note", 
                            "channel": 0
                        }, 
                        {
                            "pitch": 39, 
                            "t0": 29500.0, 
                            "v": 109, 
                            "dur": 400.0, 
                            "type": "note", 
                            "channel": 0
                        }, 
                        {
                            "pitch": 51, 
                            "t0": 29500.0, 
                            "v": 114, 
                            "dur": 400.0, 
                            "type": "note", 
                            "channel": 0
                        }, 
                        {
                            "pitch": 63, 
                            "t0": 29500.0, 
                            "v": 64, 
                            "dur": 400.0, 
                            "type": "note", 
                            "channel": 0
                        }
                    ]
                ], 
                [
                    30000.0, 
                    [
                        {
                            "pitch": 23, 
                            "t0": 30000.0, 
                            "v": 25, 
                            "dur": 800.0, 
                            "type": "note", 
                            "channel": 0
                        }, 
                        {
                            "pitch": 35, 
                            "t0": 30000.0, 
                            "v": 95, 
                            "dur": 800.0, 
                            "type": "note", 
                            "channel": 0
                        }, 
                        {
                            "pitch": 47, 
                            "t0": 30000.0, 
                            "v": 119, 
                            "dur": 800.0, 
                            "type": "note", 
                            "channel": 0
                        }, 
                        {
                            "pitch": 59, 
                            "t0": 30000.0, 
                            "v": 86, 
                            "dur": 800.0, 
                            "type": "note", 
                            "channel": 0
                        }, 
                        {
                            "pitch": 71, 
                            "t0": 30000.0, 
                            "v": 11, 
                            "dur": 800.0, 
                            "type": "note", 
                            "channel": 0
                        }
                    ]
                ], 
                [
                    31000.0, 
                    [
                        {
                            "pitch": 27, 
                            "t0": 31000.0, 
                            "v": 52, 
                            "dur": 400.0, 
                            "type": "note", 
                            "channel": 0
                        }, 
                        {
                            "pitch": 39, 
                            "t0": 31000.0, 
                            "v": 109, 
                            "dur": 400.0, 
                            "type": "note", 
                            "channel": 0
                        }, 
                        {
                            "pitch": 51, 
                            "t0": 31000.0, 
                            "v": 114, 
                            "dur": 400.0, 
                            "type": "note", 
                            "channel": 0
                        }, 
                        {
                            "pitch": 63, 
                            "t0": 31000.0, 
                            "v": 64, 
                            "dur": 400.0, 
                            "type": "note", 
                            "channel": 0
                        }
                    ]
                ], 
                [
                    31500.0, 
                    [
                        {
                            "pitch": 28, 
                            "t0": 31500.0, 
                            "v": 58, 
                            "dur": 400.0, 
                            "type": "note", 
                            "channel": 0
                        }, 
                        {
                            "pitch": 40, 
                            "t0": 31500.0, 
                            "v": 112, 
                            "dur": 400.0, 
                            "type": "note", 
                            "channel": 0
                        }, 
                        {
                            "pitch": 52, 
                            "t0": 31500.0, 
                            "v": 112, 
                            "dur": 400.0, 
                            "type": "note", 
                            "channel": 0
                        }, 
                        {
                            "pitch": 64, 
                            "t0": 31500.0, 
                            "v": 58, 
                            "dur": 400.0, 
                            "type": "note", 
                            "channel": 0
                        }
                    ]
                ], 
                [
                    32000.0, 
                    [
                        {
                            "pitch": 30, 
                            "t0": 32000.0, 
                            "v": 70, 
                            "dur": 1600.0, 
                            "type": "note", 
                            "channel": 0
                        }, 
                        {
                            "pitch": 42, 
                            "t0": 32000.0, 
                            "v": 116, 
                            "dur": 1600.0, 
                            "type": "note", 
                            "channel": 0
                        }, 
                        {
                            "pitch": 54, 
                            "t0": 32000.0, 
                            "v": 106, 
                            "dur": 1600.0, 
                            "type": "note", 
                            "channel": 0
                        }, 
                        {
                            "pitch": 66, 
                            "t0": 32000.0, 
                            "v": 45, 
                            "dur": 1600.0, 
                            "type": "note", 
                            "channel": 0
                        }
                    ]
                ], 
                [
                    34000.0, 
                    [
                        {
                            "pitch": 32, 
                            "t0": 34000.0, 
                            "v": 81, 
                            "dur": 800.0, 
                            "type": "note", 
                            "channel": 0
                        }, 
                        {
                            "pitch": 44, 
                            "t0": 34000.0, 
                            "v": 119, 
                            "dur": 800.0, 
                            "type": "note", 
                            "channel": 0
                        }, 
                        {
                            "pitch": 56, 
                            "t0": 34000.0, 
                            "v": 99, 
                            "dur": 800.0, 
                            "type": "note", 
                            "channel": 0
                        }, 
                        {
                            "pitch": 68, 
                            "t0": 34000.0, 
                            "v": 32, 
                            "dur": 800.0, 
                            "type": "note", 
                            "channel": 0
                        }
                    ]
                ], 
                [
                    35000.0, 
                    [
                        {
                            "pitch": 28, 
                            "t0": 35000.0, 
                            "v": 58, 
                            "dur": 800.0, 
                            "type": "note", 
                            "channel": 0
                        }, 
                        {
                            "pitch": 40, 
                            "t0": 35000.0, 
                            "v": 112, 
                            "dur": 800.0, 
                            "type": "note", 
                            "channel": 0
                        }, 
                        {
                            "pitch": 52, 
                            "t0": 35000.0, 
                            "v": 112, 
                            "dur": 800.0, 
                            "type": "note", 
                            "channel": 0
                        }, 
                        {
                            "pitch": 64, 
                            "t0": 35000.0, 
                            "v": 58, 
                            "dur": 800.0, 
                            "type": "note", 
                            "channel": 0
                        }
                    ]
                ], 
                [
                    36000.0, 
                    [
                        {
                            "pitch": 32, 
                            "t0": 36000.0, 
                            "v": 81, 
                            "dur": 800.0, 
                            "type": "note", 
                            "channel": 0
                        }, 
                        {
                            "pitch": 44, 
                            "t0": 36000.0, 
                            "v": 119, 
                            "dur": 800.0, 
                            "type": "note", 
                            "channel": 0
                        }, 
                        {
                            "pitch": 56, 
                            "t0": 36000.0, 
                            "v": 99, 
                            "dur": 800.0, 
                            "type": "note", 
                            "channel": 0
                        }, 
                        {
                            "pitch": 68, 
                            "t0": 36000.0, 
                            "v": 32, 
                            "dur": 800.0, 
                            "type": "note", 
                            "channel": 0
                        }
                    ]
                ], 
                [
                    37000.0, 
                    [
                        {
                            "pitch": 34, 
                            "t0": 37000.0, 
                            "v": 91, 
                            "dur": 800.0, 
                            "type": "note", 
                            "channel": 0
                        }, 
                        {
                            "pitch": 46, 
                            "t0": 37000.0, 
                            "v": 120, 
                            "dur": 800.0, 
                            "type": "note", 
                            "channel": 0
                        }, 
                        {
                            "pitch": 58, 
                            "t0": 37000.0, 
                            "v": 91, 
                            "dur": 800.0, 
                            "type": "note", 
                            "channel": 0
                        }, 
                        {
                            "pitch": 70, 
                            "t0": 37000.0, 
                            "v": 18, 
                            "dur": 800.0, 
                            "type": "note", 
                            "channel": 0
                        }
                    ]
                ], 
                [
                    38000.0, 
                    [
                        {
                            "pitch": 23, 
                            "t0": 38000.0, 
                            "v": 25, 
                            "dur": 400.0, 
                            "type": "note", 
                            "channel": 0
                        }, 
                        {
                            "pitch": 35, 
                            "t0": 38000.0, 
                            "v": 95, 
                            "dur": 400.0, 
                            "type": "note", 
                            "channel": 0
                        }, 
                        {
                            "pitch": 47, 
                            "t0": 38000.0, 
                            "v": 119, 
                            "dur": 400.0, 
                            "type": "note", 
                            "channel": 0
                        }, 
                        {
                            "pitch": 59, 
                            "t0": 38000.0, 
                            "v": 86, 
                            "dur": 400.0, 
                            "type": "note", 
                            "channel": 0
                        }, 
                        {
                            "pitch": 71, 
                            "t0": 38000.0, 
                            "v": 11, 
                            "dur": 400.0, 
                            "type": "note", 
                            "channel": 0
                        }
                    ]
                ], 
                [
                    38500.0, 
                    [
                        {
                            "pitch": 25, 
                            "t0": 38500.0, 
                            "v": 39, 
                            "dur": 400.0, 
                            "type": "note", 
                            "channel": 0
                        }, 
                        {
                            "pitch": 37, 
                            "t0": 38500.0, 
                            "v": 103, 
                            "dur": 400.0, 
                            "type": "note", 
                            "channel": 0
                        }, 
                        {
                            "pitch": 49, 
                            "t0": 38500.0, 
                            "v": 118, 
                            "dur": 400.0, 
                            "type": "note", 
                            "channel": 0
                        }, 
                        {
                            "pitch": 61, 
                            "t0": 38500.0, 
                            "v": 76, 
                            "dur": 400.0, 
                            "type": "note", 
                            "channel": 0
                        }
                    ]
                ], 
                [
                    39000.0, 
                    [
                        {
                            "pitch": 27, 
                            "t0": 39000.0, 
                            "v": 52, 
                            "dur": 400.0, 
                            "type": "note", 
                            "channel": 0
                        }, 
                        {
                            "pitch": 39, 
                            "t0": 39000.0, 
                            "v": 109, 
                            "dur": 400.0, 
                            "type": "note", 
                            "channel": 0
                        }, 
                        {
                            "pitch": 51, 
                            "t0": 39000.0, 
                            "v": 114, 
                            "dur": 400.0, 
                            "type": "note", 
                            "channel": 0
                        }, 
                        {
                            "pitch": 63, 
                            "t0": 39000.0, 
                            "v": 64, 
                            "dur": 400.0, 
                            "type": "note", 
                            "channel": 0
                        }
                    ]
                ], 
                [
                    39500.0, 
                    [
                        {
                            "pitch": 23, 
                            "t0": 39500.0, 
                            "v": 25, 
                            "dur": 800.0, 
                            "type": "note", 
                            "channel": 0
                        }, 
                        {
                            "pitch": 35, 
                            "t0": 39500.0, 
                            "v": 95, 
                            "dur": 800.0, 
                            "type": "note", 
                            "channel": 0
                        }, 
                        {
                            "pitch": 47, 
                            "t0": 39500.0, 
                            "v": 119, 
                            "dur": 800.0, 
                            "type": "note", 
                            "channel": 0
                        }, 
                        {
                            "pitch": 59, 
                            "t0": 39500.0, 
                            "v": 86, 
                            "dur": 800.0, 
                            "type": "note", 
                            "channel": 0
                        }, 
                        {
                            "pitch": 71, 
                            "t0": 39500.0, 
                            "v": 11, 
                            "dur": 800.0, 
                            "type": "note", 
                            "channel": 0
                        }
                    ]
                ], 
                [
                    40500.0, 
                    [
                        {
                            "pitch": 27, 
                            "t0": 40500.0, 
                            "v": 52, 
                            "dur": 400.0, 
                            "type": "note", 
                            "channel": 0
                        }, 
                        {
                            "pitch": 39, 
                            "t0": 40500.0, 
                            "v": 109, 
                            "dur": 400.0, 
                            "type": "note", 
                            "channel": 0
                        }, 
                        {
                            "pitch": 51, 
                            "t0": 40500.0, 
                            "v": 114, 
                            "dur": 400.0, 
                            "type": "note", 
                            "channel": 0
                        }, 
                        {
                            "pitch": 63, 
                            "t0": 40500.0, 
                            "v": 64, 
                            "dur": 400.0, 
                            "type": "note", 
                            "channel": 0
                        }
                    ]
                ], 
                [
                    41000.0, 
                    [
                        {
                            "pitch": 28, 
                            "t0": 41000.0, 
                            "v": 58, 
                            "dur": 400.0, 
                            "type": "note", 
                            "channel": 0
                        }, 
                        {
                            "pitch": 40, 
                            "t0": 41000.0, 
                            "v": 112, 
                            "dur": 400.0, 
                            "type": "note", 
                            "channel": 0
                        }, 
                        {
                            "pitch": 52, 
                            "t0": 41000.0, 
                            "v": 112, 
                            "dur": 400.0, 
                            "type": "note", 
                            "channel": 0
                        }, 
                        {
                            "pitch": 64, 
                            "t0": 41000.0, 
                            "v": 58, 
                            "dur": 400.0, 
                            "type": "note", 
                            "channel": 0
                        }
                    ]
                ], 
                [
                    41500.0, 
                    [
                        {
                            "pitch": 30, 
                            "t0": 41500.0, 
                            "v": 70, 
                            "dur": 1600.0, 
                            "type": "note", 
                            "channel": 0
                        }, 
                        {
                            "pitch": 42, 
                            "t0": 41500.0, 
                            "v": 116, 
                            "dur": 1600.0, 
                            "type": "note", 
                            "channel": 0
                        }, 
                        {
                            "pitch": 54, 
                            "t0": 41500.0, 
                            "v": 106, 
                            "dur": 1600.0, 
                            "type": "note", 
                            "channel": 0
                        }, 
                        {
                            "pitch": 66, 
                            "t0": 41500.0, 
                            "v": 45, 
                            "dur": 1600.0, 
                            "type": "note", 
                            "channel": 0
                        }
                    ]
                ], 
                [
                    43500.0, 
                    [
                        {
                            "pitch": 32, 
                            "t0": 43500.0, 
                            "v": 81, 
                            "dur": 800.0, 
                            "type": "note", 
                            "channel": 0
                        }, 
                        {
                            "pitch": 44, 
                            "t0": 43500.0, 
                            "v": 119, 
                            "dur": 800.0, 
                            "type": "note", 
                            "channel": 0
                        }, 
                        {
                            "pitch": 56, 
                            "t0": 43500.0, 
                            "v": 99, 
                            "dur": 800.0, 
                            "type": "note", 
                            "channel": 0
                        }, 
                        {
                            "pitch": 68, 
                            "t0": 43500.0, 
                            "v": 32, 
                            "dur": 800.0, 
                            "type": "note", 
                            "channel": 0
                        }
                    ]
                ], 
                [
                    44500.0, 
                    [
                        {
                            "pitch": 28, 
                            "t0": 44500.0, 
                            "v": 58, 
                            "dur": 800.0, 
                            "type": "note", 
                            "channel": 0
                        }, 
                        {
                            "pitch": 40, 
                            "t0": 44500.0, 
                            "v": 112, 
                            "dur": 800.0, 
                            "type": "note", 
                            "channel": 0
                        }, 
                        {
                            "pitch": 52, 
                            "t0": 44500.0, 
                            "v": 112, 
                            "dur": 800.0, 
                            "type": "note", 
                            "channel": 0
                        }, 
                        {
                            "pitch": 64, 
                            "t0": 44500.0, 
                            "v": 58, 
                            "dur": 800.0, 
                            "type": "note", 
                            "channel": 0
                        }
                    ]
                ], 
                [
                    45500.0, 
                    [
                        {
                            "pitch": 32, 
                            "t0": 45500.0, 
                            "v": 81, 
                            "dur": 800.0, 
                            "type": "note", 
                            "channel": 0
                        }, 
                        {
                            "pitch": 44, 
                            "t0": 45500.0, 
                            "v": 119, 
                            "dur": 800.0, 
                            "type": "note", 
                            "channel": 0
                        }, 
                        {
                            "pitch": 56, 
                            "t0": 45500.0, 
                            "v": 99, 
                            "dur": 800.0, 
                            "type": "note", 
                            "channel": 0
                        }, 
                        {
                            "pitch": 68, 
                            "t0": 45500.0, 
                            "v": 32, 
                            "dur": 800.0, 
                            "type": "note", 
                            "channel": 0
                        }
                    ]
                ], 
                [
                    46500.0, 
                    [
                        {
                            "pitch": 34, 
                            "t0": 46500.0, 
                            "v": 91, 
                            "dur": 800.0, 
                            "type": "note", 
                            "channel": 0
                        }, 
                        {
                            "pitch": 46, 
                            "t0": 46500.0, 
                            "v": 120, 
                            "dur": 800.0, 
                            "type": "note", 
                            "channel": 0
                        }, 
                        {
                            "pitch": 58, 
                            "t0": 46500.0, 
                            "v": 91, 
                            "dur": 800.0, 
                            "type": "note", 
                            "channel": 0
                        }, 
                        {
                            "pitch": 70, 
                            "t0": 46500.0, 
                            "v": 18, 
                            "dur": 800.0, 
                            "type": "note", 
                            "channel": 0
                        }
                    ]
                ], 
                [
                    47500.0, 
                    [
                        {
                            "pitch": 23, 
                            "t0": 47500.0, 
                            "v": 25, 
                            "dur": 400.0, 
                            "type": "note", 
                            "channel": 0
                        }, 
                        {
                            "pitch": 35, 
                            "t0": 47500.0, 
                            "v": 95, 
                            "dur": 400.0, 
                            "type": "note", 
                            "channel": 0
                        }, 
                        {
                            "pitch": 47, 
                            "t0": 47500.0, 
                            "v": 119, 
                            "dur": 400.0, 
                            "type": "note", 
                            "channel": 0
                        }, 
                        {
                            "pitch": 59, 
                            "t0": 47500.0, 
                            "v": 86, 
                            "dur": 400.0, 
                            "type": "note", 
                            "channel": 0
                        }, 
                        {
                            "pitch": 71, 
                            "t0": 47500.0, 
                            "v": 11, 
                            "dur": 400.0, 
                            "type": "note", 
                            "channel": 0
                        }
                    ]
                ], 
                [
                    48000.0, 
                    [
                        {
                            "pitch": 25, 
                            "t0": 48000.0, 
                            "v": 39, 
                            "dur": 400.0, 
                            "type": "note", 
                            "channel": 0
                        }, 
                        {
                            "pitch": 37, 
                            "t0": 48000.0, 
                            "v": 103, 
                            "dur": 400.0, 
                            "type": "note", 
                            "channel": 0
                        }, 
                        {
                            "pitch": 49, 
                            "t0": 48000.0, 
                            "v": 118, 
                            "dur": 400.0, 
                            "type": "note", 
                            "channel": 0
                        }, 
                        {
                            "pitch": 61, 
                            "t0": 48000.0, 
                            "v": 76, 
                            "dur": 400.0, 
                            "type": "note", 
                            "channel": 0
                        }
                    ]
                ], 
                [
                    48500.0, 
                    [
                        {
                            "pitch": 27, 
                            "t0": 48500.0, 
                            "v": 52, 
                            "dur": 400.0, 
                            "type": "note", 
                            "channel": 0
                        }, 
                        {
                            "pitch": 39, 
                            "t0": 48500.0, 
                            "v": 109, 
                            "dur": 400.0, 
                            "type": "note", 
                            "channel": 0
                        }, 
                        {
                            "pitch": 51, 
                            "t0": 48500.0, 
                            "v": 114, 
                            "dur": 400.0, 
                            "type": "note", 
                            "channel": 0
                        }, 
                        {
                            "pitch": 63, 
                            "t0": 48500.0, 
                            "v": 64, 
                            "dur": 400.0, 
                            "type": "note", 
                            "channel": 0
                        }
                    ]
                ], 
                [
                    49000.0, 
                    [
                        {
                            "pitch": 23, 
                            "t0": 49000.0, 
                            "v": 25, 
                            "dur": 800.0, 
                            "type": "note", 
                            "channel": 0
                        }, 
                        {
                            "pitch": 35, 
                            "t0": 49000.0, 
                            "v": 95, 
                            "dur": 800.0, 
                            "type": "note", 
                            "channel": 0
                        }, 
                        {
                            "pitch": 47, 
                            "t0": 49000.0, 
                            "v": 119, 
                            "dur": 800.0, 
                            "type": "note", 
                            "channel": 0
                        }, 
                        {
                            "pitch": 59, 
                            "t0": 49000.0, 
                            "v": 86, 
                            "dur": 800.0, 
                            "type": "note", 
                            "channel": 0
                        }, 
                        {
                            "pitch": 71, 
                            "t0": 49000.0, 
                            "v": 11, 
                            "dur": 800.0, 
                            "type": "note", 
                            "channel": 0
                        }
                    ]
                ], 
                [
                    50000.0, 
                    [
                        {
                            "pitch": 27, 
                            "t0": 50000.0, 
                            "v": 52, 
                            "dur": 400.0, 
                            "type": "note", 
                            "channel": 0
                        }, 
                        {
                            "pitch": 39, 
                            "t0": 50000.0, 
                            "v": 109, 
                            "dur": 400.0, 
                            "type": "note", 
                            "channel": 0
                        }, 
                        {
                            "pitch": 51, 
                            "t0": 50000.0, 
                            "v": 114, 
                            "dur": 400.0, 
                            "type": "note", 
                            "channel": 0
                        }, 
                        {
                            "pitch": 63, 
                            "t0": 50000.0, 
                            "v": 64, 
                            "dur": 400.0, 
                            "type": "note", 
                            "channel": 0
                        }
                    ]
                ], 
                [
                    50500.0, 
                    [
                        {
                            "pitch": 28, 
                            "t0": 50500.0, 
                            "v": 58, 
                            "dur": 400.0, 
                            "type": "note", 
                            "channel": 0
                        }, 
                        {
                            "pitch": 40, 
                            "t0": 50500.0, 
                            "v": 112, 
                            "dur": 400.0, 
                            "type": "note", 
                            "channel": 0
                        }, 
                        {
                            "pitch": 52, 
                            "t0": 50500.0, 
                            "v": 112, 
                            "dur": 400.0, 
                            "type": "note", 
                            "channel": 0
                        }, 
                        {
                            "pitch": 64, 
                            "t0": 50500.0, 
                            "v": 58, 
                            "dur": 400.0, 
                            "type": "note", 
                            "channel": 0
                        }
                    ]
                ], 
                [
                    51000.0, 
                    [
                        {
                            "pitch": 30, 
                            "t0": 51000.0, 
                            "v": 70, 
                            "dur": 1600.0, 
                            "type": "note", 
                            "channel": 0
                        }, 
                        {
                            "pitch": 42, 
                            "t0": 51000.0, 
                            "v": 116, 
                            "dur": 1600.0, 
                            "type": "note", 
                            "channel": 0
                        }, 
                        {
                            "pitch": 54, 
                            "t0": 51000.0, 
                            "v": 106, 
                            "dur": 1600.0, 
                            "type": "note", 
                            "channel": 0
                        }, 
                        {
                            "pitch": 66, 
                            "t0": 51000.0, 
                            "v": 45, 
                            "dur": 1600.0, 
                            "type": "note", 
                            "channel": 0
                        }
                    ]
                ], 
                [
                    53000.0, 
                    [
                        {
                            "pitch": 32, 
                            "t0": 53000.0, 
                            "v": 81, 
                            "dur": 800.0, 
                            "type": "note", 
                            "channel": 0
                        }, 
                        {
                            "pitch": 44, 
                            "t0": 53000.0, 
                            "v": 119, 
                            "dur": 800.0, 
                            "type": "note", 
                            "channel": 0
                        }, 
                        {
                            "pitch": 56, 
                            "t0": 53000.0, 
                            "v": 99, 
                            "dur": 800.0, 
                            "type": "note", 
                            "channel": 0
                        }, 
                        {
                            "pitch": 68, 
                            "t0": 53000.0, 
                            "v": 32, 
                            "dur": 800.0, 
                            "type": "note", 
                            "channel": 0
                        }
                    ]
                ], 
                [
                    54000.0, 
                    [
                        {
                            "pitch": 28, 
                            "t0": 54000.0, 
                            "v": 58, 
                            "dur": 800.0, 
                            "type": "note", 
                            "channel": 0
                        }, 
                        {
                            "pitch": 40, 
                            "t0": 54000.0, 
                            "v": 112, 
                            "dur": 800.0, 
                            "type": "note", 
                            "channel": 0
                        }, 
                        {
                            "pitch": 52, 
                            "t0": 54000.0, 
                            "v": 112, 
                            "dur": 800.0, 
                            "type": "note", 
                            "channel": 0
                        }, 
                        {
                            "pitch": 64, 
                            "t0": 54000.0, 
                            "v": 58, 
                            "dur": 800.0, 
                            "type": "note", 
                            "channel": 0
                        }
                    ]
                ], 
                [
                    55000.0, 
                    [
                        {
                            "pitch": 32, 
                            "t0": 55000.0, 
                            "v": 81, 
                            "dur": 800.0, 
                            "type": "note", 
                            "channel": 0
                        }, 
                        {
                            "pitch": 44, 
                            "t0": 55000.0, 
                            "v": 119, 
                            "dur": 800.0, 
                            "type": "note", 
                            "channel": 0
                        }, 
                        {
                            "pitch": 56, 
                            "t0": 55000.0, 
                            "v": 99, 
                            "dur": 800.0, 
                            "type": "note", 
                            "channel": 0
                        }, 
                        {
                            "pitch": 68, 
                            "t0": 55000.0, 
                            "v": 32, 
                            "dur": 800.0, 
                            "type": "note", 
                            "channel": 0
                        }
                    ]
                ], 
                [
                    56000.0, 
                    [
                        {
                            "pitch": 34, 
                            "t0": 56000.0, 
                            "v": 91, 
                            "dur": 800.0, 
                            "type": "note", 
                            "channel": 0
                        }, 
                        {
                            "pitch": 46, 
                            "t0": 56000.0, 
                            "v": 120, 
                            "dur": 800.0, 
                            "type": "note", 
                            "channel": 0
                        }, 
                        {
                            "pitch": 58, 
                            "t0": 56000.0, 
                            "v": 91, 
                            "dur": 800.0, 
                            "type": "note", 
                            "channel": 0
                        }, 
                        {
                            "pitch": 70, 
                            "t0": 56000.0, 
                            "v": 18, 
                            "dur": 800.0, 
                            "type": "note", 
                            "channel": 0
                        }
                    ]
                ], 
                [
                    57000.0, 
                    [
                        {
                            "pitch": 23, 
                            "t0": 57000.0, 
                            "v": 25, 
                            "dur": 400.0, 
                            "type": "note", 
                            "channel": 0
                        }, 
                        {
                            "pitch": 35, 
                            "t0": 57000.0, 
                            "v": 95, 
                            "dur": 400.0, 
                            "type": "note", 
                            "channel": 0
                        }, 
                        {
                            "pitch": 47, 
                            "t0": 57000.0, 
                            "v": 119, 
                            "dur": 400.0, 
                            "type": "note", 
                            "channel": 0
                        }, 
                        {
                            "pitch": 59, 
                            "t0": 57000.0, 
                            "v": 86, 
                            "dur": 400.0, 
                            "type": "note", 
                            "channel": 0
                        }, 
                        {
                            "pitch": 71, 
                            "t0": 57000.0, 
                            "v": 11, 
                            "dur": 400.0, 
                            "type": "note", 
                            "channel": 0
                        }
                    ]
                ], 
                [
                    57500.0, 
                    [
                        {
                            "pitch": 25, 
                            "t0": 57500.0, 
                            "v": 39, 
                            "dur": 400.0, 
                            "type": "note", 
                            "channel": 0
                        }, 
                        {
                            "pitch": 37, 
                            "t0": 57500.0, 
                            "v": 103, 
                            "dur": 400.0, 
                            "type": "note", 
                            "channel": 0
                        }, 
                        {
                            "pitch": 49, 
                            "t0": 57500.0, 
                            "v": 118, 
                            "dur": 400.0, 
                            "type": "note", 
                            "channel": 0
                        }, 
                        {
                            "pitch": 61, 
                            "t0": 57500.0, 
                            "v": 76, 
                            "dur": 400.0, 
                            "type": "note", 
                            "channel": 0
                        }
                    ]
                ], 
                [
                    58000.0, 
                    [
                        {
                            "pitch": 27, 
                            "t0": 58000.0, 
                            "v": 52, 
                            "dur": 400.0, 
                            "type": "note", 
                            "channel": 0
                        }, 
                        {
                            "pitch": 39, 
                            "t0": 58000.0, 
                            "v": 109, 
                            "dur": 400.0, 
                            "type": "note", 
                            "channel": 0
                        }, 
                        {
                            "pitch": 51, 
                            "t0": 58000.0, 
                            "v": 114, 
                            "dur": 400.0, 
                            "type": "note", 
                            "channel": 0
                        }, 
                        {
                            "pitch": 63, 
                            "t0": 58000.0, 
                            "v": 64, 
                            "dur": 400.0, 
                            "type": "note", 
                            "channel": 0
                        }
                    ]
                ], 
                [
                    58500.0, 
                    [
                        {
                            "pitch": 23, 
                            "t0": 58500.0, 
                            "v": 25, 
                            "dur": 800.0, 
                            "type": "note", 
                            "channel": 0
                        }, 
                        {
                            "pitch": 35, 
                            "t0": 58500.0, 
                            "v": 95, 
                            "dur": 800.0, 
                            "type": "note", 
                            "channel": 0
                        }, 
                        {
                            "pitch": 47, 
                            "t0": 58500.0, 
                            "v": 119, 
                            "dur": 800.0, 
                            "type": "note", 
                            "channel": 0
                        }, 
                        {
                            "pitch": 59, 
                            "t0": 58500.0, 
                            "v": 86, 
                            "dur": 800.0, 
                            "type": "note", 
                            "channel": 0
                        }, 
                        {
                            "pitch": 71, 
                            "t0": 58500.0, 
                            "v": 11, 
                            "dur": 800.0, 
                            "type": "note", 
                            "channel": 0
                        }
                    ]
                ], 
                [
                    59500.0, 
                    [
                        {
                            "pitch": 27, 
                            "t0": 59500.0, 
                            "v": 52, 
                            "dur": 400.0, 
                            "type": "note", 
                            "channel": 0
                        }, 
                        {
                            "pitch": 39, 
                            "t0": 59500.0, 
                            "v": 109, 
                            "dur": 400.0, 
                            "type": "note", 
                            "channel": 0
                        }, 
                        {
                            "pitch": 51, 
                            "t0": 59500.0, 
                            "v": 114, 
                            "dur": 400.0, 
                            "type": "note", 
                            "channel": 0
                        }, 
                        {
                            "pitch": 63, 
                            "t0": 59500.0, 
                            "v": 64, 
                            "dur": 400.0, 
                            "type": "note", 
                            "channel": 0
                        }
                    ]
                ], 
                [
                    60000.0, 
                    [
                        {
                            "pitch": 28, 
                            "t0": 60000.0, 
                            "v": 58, 
                            "dur": 400.0, 
                            "type": "note", 
                            "channel": 0
                        }, 
                        {
                            "pitch": 40, 
                            "t0": 60000.0, 
                            "v": 112, 
                            "dur": 400.0, 
                            "type": "note", 
                            "channel": 0
                        }, 
                        {
                            "pitch": 52, 
                            "t0": 60000.0, 
                            "v": 112, 
                            "dur": 400.0, 
                            "type": "note", 
                            "channel": 0
                        }, 
                        {
                            "pitch": 64, 
                            "t0": 60000.0, 
                            "v": 58, 
                            "dur": 400.0, 
                            "type": "note", 
                            "channel": 0
                        }
                    ]
                ], 
                [
                    60500.0, 
                    [
                        {
                            "pitch": 30, 
                            "t0": 60500.0, 
                            "v": 70, 
                            "dur": 1600.0, 
                            "type": "note", 
                            "channel": 0
                        }, 
                        {
                            "pitch": 42, 
                            "t0": 60500.0, 
                            "v": 116, 
                            "dur": 1600.0, 
                            "type": "note", 
                            "channel": 0
                        }, 
                        {
                            "pitch": 54, 
                            "t0": 60500.0, 
                            "v": 106, 
                            "dur": 1600.0, 
                            "type": "note", 
                            "channel": 0
                        }, 
                        {
                            "pitch": 66, 
                            "t0": 60500.0, 
                            "v": 45, 
                            "dur": 1600.0, 
                            "type": "note", 
                            "channel": 0
                        }
                    ]
                ], 
                [
                    62500.0, 
                    [
                        {
                            "pitch": 32, 
                            "t0": 62500.0, 
                            "v": 81, 
                            "dur": 800.0, 
                            "type": "note", 
                            "channel": 0
                        }, 
                        {
                            "pitch": 44, 
                            "t0": 62500.0, 
                            "v": 119, 
                            "dur": 800.0, 
                            "type": "note", 
                            "channel": 0
                        }, 
                        {
                            "pitch": 56, 
                            "t0": 62500.0, 
                            "v": 99, 
                            "dur": 800.0, 
                            "type": "note", 
                            "channel": 0
                        }, 
                        {
                            "pitch": 68, 
                            "t0": 62500.0, 
                            "v": 32, 
                            "dur": 800.0, 
                            "type": "note", 
                            "channel": 0
                        }
                    ]
                ], 
                [
                    63500.0, 
                    [
                        {
                            "pitch": 28, 
                            "t0": 63500.0, 
                            "v": 58, 
                            "dur": 800.0, 
                            "type": "note", 
                            "channel": 0
                        }, 
                        {
                            "pitch": 40, 
                            "t0": 63500.0, 
                            "v": 112, 
                            "dur": 800.0, 
                            "type": "note", 
                            "channel": 0
                        }, 
                        {
                            "pitch": 52, 
                            "t0": 63500.0, 
                            "v": 112, 
                            "dur": 800.0, 
                            "type": "note", 
                            "channel": 0
                        }, 
                        {
                            "pitch": 64, 
                            "t0": 63500.0, 
                            "v": 58, 
                            "dur": 800.0, 
                            "type": "note", 
                            "channel": 0
                        }
                    ]
                ], 
                [
                    64500.0, 
                    [
                        {
                            "pitch": 32, 
                            "t0": 64500.0, 
                            "v": 81, 
                            "dur": 800.0, 
                            "type": "note", 
                            "channel": 0
                        }, 
                        {
                            "pitch": 44, 
                            "t0": 64500.0, 
                            "v": 119, 
                            "dur": 800.0, 
                            "type": "note", 
                            "channel": 0
                        }, 
                        {
                            "pitch": 56, 
                            "t0": 64500.0, 
                            "v": 99, 
                            "dur": 800.0, 
                            "type": "note", 
                            "channel": 0
                        }, 
                        {
                            "pitch": 68, 
                            "t0": 64500.0, 
                            "v": 32, 
                            "dur": 800.0, 
                            "type": "note", 
                            "channel": 0
                        }
                    ]
                ], 
                [
                    65500.0, 
                    [
                        {
                            "pitch": 34, 
                            "t0": 65500.0, 
                            "v": 91, 
                            "dur": 800.0, 
                            "type": "note", 
                            "channel": 0
                        }, 
                        {
                            "pitch": 46, 
                            "t0": 65500.0, 
                            "v": 120, 
                            "dur": 800.0, 
                            "type": "note", 
                            "channel": 0
                        }, 
                        {
                            "pitch": 58, 
                            "t0": 65500.0, 
                            "v": 91, 
                            "dur": 800.0, 
                            "type": "note", 
                            "channel": 0
                        }, 
                        {
                            "pitch": 70, 
                            "t0": 65500.0, 
                            "v": 18, 
                            "dur": 800.0, 
                            "type": "note", 
                            "channel": 0
                        }
                    ]
                ], 
                [
                    66500.0, 
                    [
                        {
                            "pitch": 23, 
                            "t0": 66500.0, 
                            "v": 25, 
                            "dur": 400.0, 
                            "type": "note", 
                            "channel": 0
                        }, 
                        {
                            "pitch": 35, 
                            "t0": 66500.0, 
                            "v": 95, 
                            "dur": 400.0, 
                            "type": "note", 
                            "channel": 0
                        }, 
                        {
                            "pitch": 47, 
                            "t0": 66500.0, 
                            "v": 119, 
                            "dur": 400.0, 
                            "type": "note", 
                            "channel": 0
                        }, 
                        {
                            "pitch": 59, 
                            "t0": 66500.0, 
                            "v": 86, 
                            "dur": 400.0, 
                            "type": "note", 
                            "channel": 0
                        }, 
                        {
                            "pitch": 71, 
                            "t0": 66500.0, 
                            "v": 11, 
                            "dur": 400.0, 
                            "type": "note", 
                            "channel": 0
                        }
                    ]
                ], 
                [
                    67000.0, 
                    [
                        {
                            "pitch": 25, 
                            "t0": 67000.0, 
                            "v": 39, 
                            "dur": 400.0, 
                            "type": "note", 
                            "channel": 0
                        }, 
                        {
                            "pitch": 37, 
                            "t0": 67000.0, 
                            "v": 103, 
                            "dur": 400.0, 
                            "type": "note", 
                            "channel": 0
                        }, 
                        {
                            "pitch": 49, 
                            "t0": 67000.0, 
                            "v": 118, 
                            "dur": 400.0, 
                            "type": "note", 
                            "channel": 0
                        }, 
                        {
                            "pitch": 61, 
                            "t0": 67000.0, 
                            "v": 76, 
                            "dur": 400.0, 
                            "type": "note", 
                            "channel": 0
                        }
                    ]
                ], 
                [
                    67500.0, 
                    [
                        {
                            "pitch": 27, 
                            "t0": 67500.0, 
                            "v": 52, 
                            "dur": 400.0, 
                            "type": "note", 
                            "channel": 0
                        }, 
                        {
                            "pitch": 39, 
                            "t0": 67500.0, 
                            "v": 109, 
                            "dur": 400.0, 
                            "type": "note", 
                            "channel": 0
                        }, 
                        {
                            "pitch": 51, 
                            "t0": 67500.0, 
                            "v": 114, 
                            "dur": 400.0, 
                            "type": "note", 
                            "channel": 0
                        }, 
                        {
                            "pitch": 63, 
                            "t0": 67500.0, 
                            "v": 64, 
                            "dur": 400.0, 
                            "type": "note", 
                            "channel": 0
                        }
                    ]
                ], 
                [
                    68000.0, 
                    [
                        {
                            "pitch": 23, 
                            "t0": 68000.0, 
                            "v": 25, 
                            "dur": 800.0, 
                            "type": "note", 
                            "channel": 0
                        }, 
                        {
                            "pitch": 35, 
                            "t0": 68000.0, 
                            "v": 95, 
                            "dur": 800.0, 
                            "type": "note", 
                            "channel": 0
                        }, 
                        {
                            "pitch": 47, 
                            "t0": 68000.0, 
                            "v": 119, 
                            "dur": 800.0, 
                            "type": "note", 
                            "channel": 0
                        }, 
                        {
                            "pitch": 59, 
                            "t0": 68000.0, 
                            "v": 86, 
                            "dur": 800.0, 
                            "type": "note", 
                            "channel": 0
                        }, 
                        {
                            "pitch": 71, 
                            "t0": 68000.0, 
                            "v": 11, 
                            "dur": 800.0, 
                            "type": "note", 
                            "channel": 0
                        }
                    ]
                ], 
                [
                    69000.0, 
                    [
                        {
                            "pitch": 27, 
                            "t0": 69000.0, 
                            "v": 52, 
                            "dur": 400.0, 
                            "type": "note", 
                            "channel": 0
                        }, 
                        {
                            "pitch": 39, 
                            "t0": 69000.0, 
                            "v": 109, 
                            "dur": 400.0, 
                            "type": "note", 
                            "channel": 0
                        }, 
                        {
                            "pitch": 51, 
                            "t0": 69000.0, 
                            "v": 114, 
                            "dur": 400.0, 
                            "type": "note", 
                            "channel": 0
                        }, 
                        {
                            "pitch": 63, 
                            "t0": 69000.0, 
                            "v": 64, 
                            "dur": 400.0, 
                            "type": "note", 
                            "channel": 0
                        }
                    ]
                ], 
                [
                    69500.0, 
                    [
                        {
                            "pitch": 28, 
                            "t0": 69500.0, 
                            "v": 58, 
                            "dur": 400.0, 
                            "type": "note", 
                            "channel": 0
                        }, 
                        {
                            "pitch": 40, 
                            "t0": 69500.0, 
                            "v": 112, 
                            "dur": 400.0, 
                            "type": "note", 
                            "channel": 0
                        }, 
                        {
                            "pitch": 52, 
                            "t0": 69500.0, 
                            "v": 112, 
                            "dur": 400.0, 
                            "type": "note", 
                            "channel": 0
                        }, 
                        {
                            "pitch": 64, 
                            "t0": 69500.0, 
                            "v": 58, 
                            "dur": 400.0, 
                            "type": "note", 
                            "channel": 0
                        }
                    ]
                ], 
                [
                    70000.0, 
                    [
                        {
                            "pitch": 30, 
                            "t0": 70000.0, 
                            "v": 70, 
                            "dur": 1600.0, 
                            "type": "note", 
                            "channel": 0
                        }, 
                        {
                            "pitch": 42, 
                            "t0": 70000.0, 
                            "v": 116, 
                            "dur": 1600.0, 
                            "type": "note", 
                            "channel": 0
                        }, 
                        {
                            "pitch": 54, 
                            "t0": 70000.0, 
                            "v": 106, 
                            "dur": 1600.0, 
                            "type": "note", 
                            "channel": 0
                        }, 
                        {
                            "pitch": 66, 
                            "t0": 70000.0, 
                            "v": 45, 
                            "dur": 1600.0, 
                            "type": "note", 
                            "channel": 0
                        }
                    ]
                ], 
                [
                    72000.0, 
                    [
                        {
                            "pitch": 32, 
                            "t0": 72000.0, 
                            "v": 81, 
                            "dur": 800.0, 
                            "type": "note", 
                            "channel": 0
                        }, 
                        {
                            "pitch": 44, 
                            "t0": 72000.0, 
                            "v": 119, 
                            "dur": 800.0, 
                            "type": "note", 
                            "channel": 0
                        }, 
                        {
                            "pitch": 56, 
                            "t0": 72000.0, 
                            "v": 99, 
                            "dur": 800.0, 
                            "type": "note", 
                            "channel": 0
                        }, 
                        {
                            "pitch": 68, 
                            "t0": 72000.0, 
                            "v": 32, 
                            "dur": 800.0, 
                            "type": "note", 
                            "channel": 0
                        }
                    ]
                ], 
                [
                    73000.0, 
                    [
                        {
                            "pitch": 28, 
                            "t0": 73000.0, 
                            "v": 58, 
                            "dur": 800.0, 
                            "type": "note", 
                            "channel": 0
                        }, 
                        {
                            "pitch": 40, 
                            "t0": 73000.0, 
                            "v": 112, 
                            "dur": 800.0, 
                            "type": "note", 
                            "channel": 0
                        }, 
                        {
                            "pitch": 52, 
                            "t0": 73000.0, 
                            "v": 112, 
                            "dur": 800.0, 
                            "type": "note", 
                            "channel": 0
                        }, 
                        {
                            "pitch": 64, 
                            "t0": 73000.0, 
                            "v": 58, 
                            "dur": 800.0, 
                            "type": "note", 
                            "channel": 0
                        }
                    ]
                ], 
                [
                    74000.0, 
                    [
                        {
                            "pitch": 32, 
                            "t0": 74000.0, 
                            "v": 81, 
                            "dur": 800.0, 
                            "type": "note", 
                            "channel": 0
                        }, 
                        {
                            "pitch": 44, 
                            "t0": 74000.0, 
                            "v": 119, 
                            "dur": 800.0, 
                            "type": "note", 
                            "channel": 0
                        }, 
                        {
                            "pitch": 56, 
                            "t0": 74000.0, 
                            "v": 99, 
                            "dur": 800.0, 
                            "type": "note", 
                            "channel": 0
                        }, 
                        {
                            "pitch": 68, 
                            "t0": 74000.0, 
                            "v": 32, 
                            "dur": 800.0, 
                            "type": "note", 
                            "channel": 0
                        }
                    ]
                ], 
                [
                    75000.0, 
                    [
                        {
                            "pitch": 34, 
                            "t0": 75000.0, 
                            "v": 91, 
                            "dur": 800.0, 
                            "type": "note", 
                            "channel": 0
                        }, 
                        {
                            "pitch": 46, 
                            "t0": 75000.0, 
                            "v": 120, 
                            "dur": 800.0, 
                            "type": "note", 
                            "channel": 0
                        }, 
                        {
                            "pitch": 58, 
                            "t0": 75000.0, 
                            "v": 91, 
                            "dur": 800.0, 
                            "type": "note", 
                            "channel": 0
                        }, 
                        {
                            "pitch": 70, 
                            "t0": 75000.0, 
                            "v": 18, 
                            "dur": 800.0, 
                            "type": "note", 
                            "channel": 0
                        }
                    ]
                ], 
                [
                    76000.0, 
                    [
                        {
                            "pitch": 23, 
                            "t0": 76000.0, 
                            "v": 25, 
                            "dur": 400.0, 
                            "type": "note", 
                            "channel": 0
                        }, 
                        {
                            "pitch": 35, 
                            "t0": 76000.0, 
                            "v": 95, 
                            "dur": 400.0, 
                            "type": "note", 
                            "channel": 0
                        }, 
                        {
                            "pitch": 47, 
                            "t0": 76000.0, 
                            "v": 119, 
                            "dur": 400.0, 
                            "type": "note", 
                            "channel": 0
                        }, 
                        {
                            "pitch": 59, 
                            "t0": 76000.0, 
                            "v": 86, 
                            "dur": 400.0, 
                            "type": "note", 
                            "channel": 0
                        }, 
                        {
                            "pitch": 71, 
                            "t0": 76000.0, 
                            "v": 11, 
                            "dur": 400.0, 
                            "type": "note", 
                            "channel": 0
                        }
                    ]
                ], 
                [
                    76500.0, 
                    [
                        {
                            "pitch": 25, 
                            "t0": 76500.0, 
                            "v": 39, 
                            "dur": 400.0, 
                            "type": "note", 
                            "channel": 0
                        }, 
                        {
                            "pitch": 37, 
                            "t0": 76500.0, 
                            "v": 103, 
                            "dur": 400.0, 
                            "type": "note", 
                            "channel": 0
                        }, 
                        {
                            "pitch": 49, 
                            "t0": 76500.0, 
                            "v": 118, 
                            "dur": 400.0, 
                            "type": "note", 
                            "channel": 0
                        }, 
                        {
                            "pitch": 61, 
                            "t0": 76500.0, 
                            "v": 76, 
                            "dur": 400.0, 
                            "type": "note", 
                            "channel": 0
                        }
                    ]
                ], 
                [
                    77000.0, 
                    [
                        {
                            "pitch": 27, 
                            "t0": 77000.0, 
                            "v": 52, 
                            "dur": 400.0, 
                            "type": "note", 
                            "channel": 0
                        }, 
                        {
                            "pitch": 39, 
                            "t0": 77000.0, 
                            "v": 109, 
                            "dur": 400.0, 
                            "type": "note", 
                            "channel": 0
                        }, 
                        {
                            "pitch": 51, 
                            "t0": 77000.0, 
                            "v": 114, 
                            "dur": 400.0, 
                            "type": "note", 
                            "channel": 0
                        }, 
                        {
                            "pitch": 63, 
                            "t0": 77000.0, 
                            "v": 64, 
                            "dur": 400.0, 
                            "type": "note", 
                            "channel": 0
                        }
                    ]
                ], 
                [
                    77500.0, 
                    [
                        {
                            "pitch": 23, 
                            "t0": 77500.0, 
                            "v": 25, 
                            "dur": 800.0, 
                            "type": "note", 
                            "channel": 0
                        }, 
                        {
                            "pitch": 35, 
                            "t0": 77500.0, 
                            "v": 95, 
                            "dur": 800.0, 
                            "type": "note", 
                            "channel": 0
                        }, 
                        {
                            "pitch": 47, 
                            "t0": 77500.0, 
                            "v": 119, 
                            "dur": 800.0, 
                            "type": "note", 
                            "channel": 0
                        }, 
                        {
                            "pitch": 59, 
                            "t0": 77500.0, 
                            "v": 86, 
                            "dur": 800.0, 
                            "type": "note", 
                            "channel": 0
                        }, 
                        {
                            "pitch": 71, 
                            "t0": 77500.0, 
                            "v": 11, 
                            "dur": 800.0, 
                            "type": "note", 
                            "channel": 0
                        }
                    ]
                ], 
                [
                    78500.0, 
                    [
                        {
                            "pitch": 27, 
                            "t0": 78500.0, 
                            "v": 52, 
                            "dur": 400.0, 
                            "type": "note", 
                            "channel": 0
                        }, 
                        {
                            "pitch": 39, 
                            "t0": 78500.0, 
                            "v": 109, 
                            "dur": 400.0, 
                            "type": "note", 
                            "channel": 0
                        }, 
                        {
                            "pitch": 51, 
                            "t0": 78500.0, 
                            "v": 114, 
                            "dur": 400.0, 
                            "type": "note", 
                            "channel": 0
                        }, 
                        {
                            "pitch": 63, 
                            "t0": 78500.0, 
                            "v": 64, 
                            "dur": 400.0, 
                            "type": "note", 
                            "channel": 0
                        }
                    ]
                ], 
                [
                    79000.0, 
                    [
                        {
                            "pitch": 28, 
                            "t0": 79000.0, 
                            "v": 58, 
                            "dur": 400.0, 
                            "type": "note", 
                            "channel": 0
                        }, 
                        {
                            "pitch": 40, 
                            "t0": 79000.0, 
                            "v": 112, 
                            "dur": 400.0, 
                            "type": "note", 
                            "channel": 0
                        }, 
                        {
                            "pitch": 52, 
                            "t0": 79000.0, 
                            "v": 112, 
                            "dur": 400.0, 
                            "type": "note", 
                            "channel": 0
                        }, 
                        {
                            "pitch": 64, 
                            "t0": 79000.0, 
                            "v": 58, 
                            "dur": 400.0, 
                            "type": "note", 
                            "channel": 0
                        }
                    ]
                ], 
                [
                    79500.0, 
                    [
                        {
                            "pitch": 30, 
                            "t0": 79500.0, 
                            "v": 70, 
                            "dur": 1600.0, 
                            "type": "note", 
                            "channel": 0
                        }, 
                        {
                            "pitch": 42, 
                            "t0": 79500.0, 
                            "v": 116, 
                            "dur": 1600.0, 
                            "type": "note", 
                            "channel": 0
                        }, 
                        {
                            "pitch": 54, 
                            "t0": 79500.0, 
                            "v": 106, 
                            "dur": 1600.0, 
                            "type": "note", 
                            "channel": 0
                        }, 
                        {
                            "pitch": 66, 
                            "t0": 79500.0, 
                            "v": 45, 
                            "dur": 1600.0, 
                            "type": "note", 
                            "channel": 0
                        }
                    ]
                ], 
                [
                    81500.0, 
                    [
                        {
                            "pitch": 32, 
                            "t0": 81500.0, 
                            "v": 81, 
                            "dur": 800.0, 
                            "type": "note", 
                            "channel": 0
                        }, 
                        {
                            "pitch": 44, 
                            "t0": 81500.0, 
                            "v": 119, 
                            "dur": 800.0, 
                            "type": "note", 
                            "channel": 0
                        }, 
                        {
                            "pitch": 56, 
                            "t0": 81500.0, 
                            "v": 99, 
                            "dur": 800.0, 
                            "type": "note", 
                            "channel": 0
                        }, 
                        {
                            "pitch": 68, 
                            "t0": 81500.0, 
                            "v": 32, 
                            "dur": 800.0, 
                            "type": "note", 
                            "channel": 0
                        }
                    ]
                ], 
                [
                    82500.0, 
                    [
                        {
                            "pitch": 28, 
                            "t0": 82500.0, 
                            "v": 58, 
                            "dur": 800.0, 
                            "type": "note", 
                            "channel": 0
                        }, 
                        {
                            "pitch": 40, 
                            "t0": 82500.0, 
                            "v": 112, 
                            "dur": 800.0, 
                            "type": "note", 
                            "channel": 0
                        }, 
                        {
                            "pitch": 52, 
                            "t0": 82500.0, 
                            "v": 112, 
                            "dur": 800.0, 
                            "type": "note", 
                            "channel": 0
                        }, 
                        {
                            "pitch": 64, 
                            "t0": 82500.0, 
                            "v": 58, 
                            "dur": 800.0, 
                            "type": "note", 
                            "channel": 0
                        }
                    ]
                ], 
                [
                    83500.0, 
                    [
                        {
                            "pitch": 32, 
                            "t0": 83500.0, 
                            "v": 81, 
                            "dur": 800.0, 
                            "type": "note", 
                            "channel": 0
                        }, 
                        {
                            "pitch": 44, 
                            "t0": 83500.0, 
                            "v": 119, 
                            "dur": 800.0, 
                            "type": "note", 
                            "channel": 0
                        }, 
                        {
                            "pitch": 56, 
                            "t0": 83500.0, 
                            "v": 99, 
                            "dur": 800.0, 
                            "type": "note", 
                            "channel": 0
                        }, 
                        {
                            "pitch": 68, 
                            "t0": 83500.0, 
                            "v": 32, 
                            "dur": 800.0, 
                            "type": "note", 
                            "channel": 0
                        }
                    ]
                ], 
                [
                    84500.0, 
                    [
                        {
                            "pitch": 34, 
                            "t0": 84500.0, 
                            "v": 91, 
                            "dur": 800.0, 
                            "type": "note", 
                            "channel": 0
                        }, 
                        {
                            "pitch": 46, 
                            "t0": 84500.0, 
                            "v": 120, 
                            "dur": 800.0, 
                            "type": "note", 
                            "channel": 0
                        }, 
                        {
                            "pitch": 58, 
                            "t0": 84500.0, 
                            "v": 91, 
                            "dur": 800.0, 
                            "type": "note", 
                            "channel": 0
                        }, 
                        {
                            "pitch": 70, 
                            "t0": 84500.0, 
                            "v": 18, 
                            "dur": 800.0, 
                            "type": "note", 
                            "channel": 0
                        }
                    ]
                ], 
                [
                    85500.0, 
                    [
                        {
                            "pitch": 23, 
                            "t0": 85500.0, 
                            "v": 25, 
                            "dur": 400.0, 
                            "type": "note", 
                            "channel": 0
                        }, 
                        {
                            "pitch": 35, 
                            "t0": 85500.0, 
                            "v": 95, 
                            "dur": 400.0, 
                            "type": "note", 
                            "channel": 0
                        }, 
                        {
                            "pitch": 47, 
                            "t0": 85500.0, 
                            "v": 119, 
                            "dur": 400.0, 
                            "type": "note", 
                            "channel": 0
                        }, 
                        {
                            "pitch": 59, 
                            "t0": 85500.0, 
                            "v": 86, 
                            "dur": 400.0, 
                            "type": "note", 
                            "channel": 0
                        }, 
                        {
                            "pitch": 71, 
                            "t0": 85500.0, 
                            "v": 11, 
                            "dur": 400.0, 
                            "type": "note", 
                            "channel": 0
                        }
                    ]
                ], 
                [
                    86000.0, 
                    [
                        {
                            "pitch": 25, 
                            "t0": 86000.0, 
                            "v": 39, 
                            "dur": 400.0, 
                            "type": "note", 
                            "channel": 0
                        }, 
                        {
                            "pitch": 37, 
                            "t0": 86000.0, 
                            "v": 103, 
                            "dur": 400.0, 
                            "type": "note", 
                            "channel": 0
                        }, 
                        {
                            "pitch": 49, 
                            "t0": 86000.0, 
                            "v": 118, 
                            "dur": 400.0, 
                            "type": "note", 
                            "channel": 0
                        }, 
                        {
                            "pitch": 61, 
                            "t0": 86000.0, 
                            "v": 76, 
                            "dur": 400.0, 
                            "type": "note", 
                            "channel": 0
                        }
                    ]
                ], 
                [
                    86500.0, 
                    [
                        {
                            "pitch": 27, 
                            "t0": 86500.0, 
                            "v": 52, 
                            "dur": 400.0, 
                            "type": "note", 
                            "channel": 0
                        }, 
                        {
                            "pitch": 39, 
                            "t0": 86500.0, 
                            "v": 109, 
                            "dur": 400.0, 
                            "type": "note", 
                            "channel": 0
                        }, 
                        {
                            "pitch": 51, 
                            "t0": 86500.0, 
                            "v": 114, 
                            "dur": 400.0, 
                            "type": "note", 
                            "channel": 0
                        }, 
                        {
                            "pitch": 63, 
                            "t0": 86500.0, 
                            "v": 64, 
                            "dur": 400.0, 
                            "type": "note", 
                            "channel": 0
                        }
                    ]
                ], 
                [
                    87000.0, 
                    [
                        {
                            "pitch": 23, 
                            "t0": 87000.0, 
                            "v": 25, 
                            "dur": 800.0, 
                            "type": "note", 
                            "channel": 0
                        }, 
                        {
                            "pitch": 35, 
                            "t0": 87000.0, 
                            "v": 95, 
                            "dur": 800.0, 
                            "type": "note", 
                            "channel": 0
                        }, 
                        {
                            "pitch": 47, 
                            "t0": 87000.0, 
                            "v": 119, 
                            "dur": 800.0, 
                            "type": "note", 
                            "channel": 0
                        }, 
                        {
                            "pitch": 59, 
                            "t0": 87000.0, 
                            "v": 86, 
                            "dur": 800.0, 
                            "type": "note", 
                            "channel": 0
                        }, 
                        {
                            "pitch": 71, 
                            "t0": 87000.0, 
                            "v": 11, 
                            "dur": 800.0, 
                            "type": "note", 
                            "channel": 0
                        }
                    ]
                ], 
                [
                    88000.0, 
                    [
                        {
                            "pitch": 27, 
                            "t0": 88000.0, 
                            "v": 52, 
                            "dur": 400.0, 
                            "type": "note", 
                            "channel": 0
                        }, 
                        {
                            "pitch": 39, 
                            "t0": 88000.0, 
                            "v": 109, 
                            "dur": 400.0, 
                            "type": "note", 
                            "channel": 0
                        }, 
                        {
                            "pitch": 51, 
                            "t0": 88000.0, 
                            "v": 114, 
                            "dur": 400.0, 
                            "type": "note", 
                            "channel": 0
                        }, 
                        {
                            "pitch": 63, 
                            "t0": 88000.0, 
                            "v": 64, 
                            "dur": 400.0, 
                            "type": "note", 
                            "channel": 0
                        }
                    ]
                ], 
                [
                    88500.0, 
                    [
                        {
                            "pitch": 28, 
                            "t0": 88500.0, 
                            "v": 58, 
                            "dur": 400.0, 
                            "type": "note", 
                            "channel": 0
                        }, 
                        {
                            "pitch": 40, 
                            "t0": 88500.0, 
                            "v": 112, 
                            "dur": 400.0, 
                            "type": "note", 
                            "channel": 0
                        }, 
                        {
                            "pitch": 52, 
                            "t0": 88500.0, 
                            "v": 112, 
                            "dur": 400.0, 
                            "type": "note", 
                            "channel": 0
                        }, 
                        {
                            "pitch": 64, 
                            "t0": 88500.0, 
                            "v": 58, 
                            "dur": 400.0, 
                            "type": "note", 
                            "channel": 0
                        }
                    ]
                ], 
                [
                    89000.0, 
                    [
                        {
                            "pitch": 30, 
                            "t0": 89000.0, 
                            "v": 70, 
                            "dur": 1600.0, 
                            "type": "note", 
                            "channel": 0
                        }, 
                        {
                            "pitch": 42, 
                            "t0": 89000.0, 
                            "v": 116, 
                            "dur": 1600.0, 
                            "type": "note", 
                            "channel": 0
                        }, 
                        {
                            "pitch": 54, 
                            "t0": 89000.0, 
                            "v": 106, 
                            "dur": 1600.0, 
                            "type": "note", 
                            "channel": 0
                        }, 
                        {
                            "pitch": 66, 
                            "t0": 89000.0, 
                            "v": 45, 
                            "dur": 1600.0, 
                            "type": "note", 
                            "channel": 0
                        }
                    ]
                ], 
                [
                    91000.0, 
                    [
                        {
                            "pitch": 32, 
                            "t0": 91000.0, 
                            "v": 81, 
                            "dur": 800.0, 
                            "type": "note", 
                            "channel": 0
                        }, 
                        {
                            "pitch": 44, 
                            "t0": 91000.0, 
                            "v": 119, 
                            "dur": 800.0, 
                            "type": "note", 
                            "channel": 0
                        }, 
                        {
                            "pitch": 56, 
                            "t0": 91000.0, 
                            "v": 99, 
                            "dur": 800.0, 
                            "type": "note", 
                            "channel": 0
                        }, 
                        {
                            "pitch": 68, 
                            "t0": 91000.0, 
                            "v": 32, 
                            "dur": 800.0, 
                            "type": "note", 
                            "channel": 0
                        }
                    ]
                ], 
                [
                    92000.0, 
                    [
                        {
                            "pitch": 28, 
                            "t0": 92000.0, 
                            "v": 58, 
                            "dur": 800.0, 
                            "type": "note", 
                            "channel": 0
                        }, 
                        {
                            "pitch": 40, 
                            "t0": 92000.0, 
                            "v": 112, 
                            "dur": 800.0, 
                            "type": "note", 
                            "channel": 0
                        }, 
                        {
                            "pitch": 52, 
                            "t0": 92000.0, 
                            "v": 112, 
                            "dur": 800.0, 
                            "type": "note", 
                            "channel": 0
                        }, 
                        {
                            "pitch": 64, 
                            "t0": 92000.0, 
                            "v": 58, 
                            "dur": 800.0, 
                            "type": "note", 
                            "channel": 0
                        }
                    ]
                ], 
                [
                    93000.0, 
                    [
                        {
                            "pitch": 32, 
                            "t0": 93000.0, 
                            "v": 81, 
                            "dur": 800.0, 
                            "type": "note", 
                            "channel": 0
                        }, 
                        {
                            "pitch": 44, 
                            "t0": 93000.0, 
                            "v": 119, 
                            "dur": 800.0, 
                            "type": "note", 
                            "channel": 0
                        }, 
                        {
                            "pitch": 56, 
                            "t0": 93000.0, 
                            "v": 99, 
                            "dur": 800.0, 
                            "type": "note", 
                            "channel": 0
                        }, 
                        {
                            "pitch": 68, 
                            "t0": 93000.0, 
                            "v": 32, 
                            "dur": 800.0, 
                            "type": "note", 
                            "channel": 0
                        }
                    ]
                ], 
                [
                    94000.0, 
                    [
                        {
                            "pitch": 34, 
                            "t0": 94000.0, 
                            "v": 91, 
                            "dur": 800.0, 
                            "type": "note", 
                            "channel": 0
                        }, 
                        {
                            "pitch": 46, 
                            "t0": 94000.0, 
                            "v": 120, 
                            "dur": 800.0, 
                            "type": "note", 
                            "channel": 0
                        }, 
                        {
                            "pitch": 58, 
                            "t0": 94000.0, 
                            "v": 91, 
                            "dur": 800.0, 
                            "type": "note", 
                            "channel": 0
                        }, 
                        {
                            "pitch": 70, 
                            "t0": 94000.0, 
                            "v": 18, 
                            "dur": 800.0, 
                            "type": "note", 
                            "channel": 0
                        }
                    ]
                ], 
                [
                    95000.0, 
                    [
                        {
                            "pitch": 23, 
                            "t0": 95000.0, 
                            "v": 25, 
                            "dur": 400.0, 
                            "type": "note", 
                            "channel": 0
                        }, 
                        {
                            "pitch": 35, 
                            "t0": 95000.0, 
                            "v": 95, 
                            "dur": 400.0, 
                            "type": "note", 
                            "channel": 0
                        }, 
                        {
                            "pitch": 47, 
                            "t0": 95000.0, 
                            "v": 119, 
                            "dur": 400.0, 
                            "type": "note", 
                            "channel": 0
                        }, 
                        {
                            "pitch": 59, 
                            "t0": 95000.0, 
                            "v": 86, 
                            "dur": 400.0, 
                            "type": "note", 
                            "channel": 0
                        }, 
                        {
                            "pitch": 71, 
                            "t0": 95000.0, 
                            "v": 11, 
                            "dur": 400.0, 
                            "type": "note", 
                            "channel": 0
                        }
                    ]
                ], 
                [
                    95500.0, 
                    [
                        {
                            "pitch": 25, 
                            "t0": 95500.0, 
                            "v": 39, 
                            "dur": 400.0, 
                            "type": "note", 
                            "channel": 0
                        }, 
                        {
                            "pitch": 37, 
                            "t0": 95500.0, 
                            "v": 103, 
                            "dur": 400.0, 
                            "type": "note", 
                            "channel": 0
                        }, 
                        {
                            "pitch": 49, 
                            "t0": 95500.0, 
                            "v": 118, 
                            "dur": 400.0, 
                            "type": "note", 
                            "channel": 0
                        }, 
                        {
                            "pitch": 61, 
                            "t0": 95500.0, 
                            "v": 76, 
                            "dur": 400.0, 
                            "type": "note", 
                            "channel": 0
                        }
                    ]
                ], 
                [
                    96000.0, 
                    [
                        {
                            "pitch": 27, 
                            "t0": 96000.0, 
                            "v": 52, 
                            "dur": 400.0, 
                            "type": "note", 
                            "channel": 0
                        }, 
                        {
                            "pitch": 39, 
                            "t0": 96000.0, 
                            "v": 109, 
                            "dur": 400.0, 
                            "type": "note", 
                            "channel": 0
                        }, 
                        {
                            "pitch": 51, 
                            "t0": 96000.0, 
                            "v": 114, 
                            "dur": 400.0, 
                            "type": "note", 
                            "channel": 0
                        }, 
                        {
                            "pitch": 63, 
                            "t0": 96000.0, 
                            "v": 64, 
                            "dur": 400.0, 
                            "type": "note", 
                            "channel": 0
                        }
                    ]
                ], 
                [
                    96500.0, 
                    [
                        {
                            "pitch": 23, 
                            "t0": 96500.0, 
                            "v": 25, 
                            "dur": 800.0, 
                            "type": "note", 
                            "channel": 0
                        }, 
                        {
                            "pitch": 35, 
                            "t0": 96500.0, 
                            "v": 95, 
                            "dur": 800.0, 
                            "type": "note", 
                            "channel": 0
                        }, 
                        {
                            "pitch": 47, 
                            "t0": 96500.0, 
                            "v": 119, 
                            "dur": 800.0, 
                            "type": "note", 
                            "channel": 0
                        }, 
                        {
                            "pitch": 59, 
                            "t0": 96500.0, 
                            "v": 86, 
                            "dur": 800.0, 
                            "type": "note", 
                            "channel": 0
                        }, 
                        {
                            "pitch": 71, 
                            "t0": 96500.0, 
                            "v": 11, 
                            "dur": 800.0, 
                            "type": "note", 
                            "channel": 0
                        }
                    ]
                ], 
                [
                    97500.0, 
                    [
                        {
                            "pitch": 27, 
                            "t0": 97500.0, 
                            "v": 52, 
                            "dur": 400.0, 
                            "type": "note", 
                            "channel": 0
                        }, 
                        {
                            "pitch": 39, 
                            "t0": 97500.0, 
                            "v": 109, 
                            "dur": 400.0, 
                            "type": "note", 
                            "channel": 0
                        }, 
                        {
                            "pitch": 51, 
                            "t0": 97500.0, 
                            "v": 114, 
                            "dur": 400.0, 
                            "type": "note", 
                            "channel": 0
                        }, 
                        {
                            "pitch": 63, 
                            "t0": 97500.0, 
                            "v": 64, 
                            "dur": 400.0, 
                            "type": "note", 
                            "channel": 0
                        }
                    ]
                ], 
                [
                    98000.0, 
                    [
                        {
                            "pitch": 28, 
                            "t0": 98000.0, 
                            "v": 58, 
                            "dur": 400.0, 
                            "type": "note", 
                            "channel": 0
                        }, 
                        {
                            "pitch": 40, 
                            "t0": 98000.0, 
                            "v": 112, 
                            "dur": 400.0, 
                            "type": "note", 
                            "channel": 0
                        }, 
                        {
                            "pitch": 52, 
                            "t0": 98000.0, 
                            "v": 112, 
                            "dur": 400.0, 
                            "type": "note", 
                            "channel": 0
                        }, 
                        {
                            "pitch": 64, 
                            "t0": 98000.0, 
                            "v": 58, 
                            "dur": 400.0, 
                            "type": "note", 
                            "channel": 0
                        }
                    ]
                ], 
                [
                    98500.0, 
                    [
                        {
                            "pitch": 30, 
                            "t0": 98500.0, 
                            "v": 70, 
                            "dur": 1600.0, 
                            "type": "note", 
                            "channel": 0
                        }, 
                        {
                            "pitch": 42, 
                            "t0": 98500.0, 
                            "v": 116, 
                            "dur": 1600.0, 
                            "type": "note", 
                            "channel": 0
                        }, 
                        {
                            "pitch": 54, 
                            "t0": 98500.0, 
                            "v": 106, 
                            "dur": 1600.0, 
                            "type": "note", 
                            "channel": 0
                        }, 
                        {
                            "pitch": 66, 
                            "t0": 98500.0, 
                            "v": 45, 
                            "dur": 1600.0, 
                            "type": "note", 
                            "channel": 0
                        }
                    ]
                ], 
                [
                    100500.0, 
                    [
                        {
                            "pitch": 32, 
                            "t0": 100500.0, 
                            "v": 81, 
                            "dur": 800.0, 
                            "type": "note", 
                            "channel": 0
                        }, 
                        {
                            "pitch": 44, 
                            "t0": 100500.0, 
                            "v": 119, 
                            "dur": 800.0, 
                            "type": "note", 
                            "channel": 0
                        }, 
                        {
                            "pitch": 56, 
                            "t0": 100500.0, 
                            "v": 99, 
                            "dur": 800.0, 
                            "type": "note", 
                            "channel": 0
                        }, 
                        {
                            "pitch": 68, 
                            "t0": 100500.0, 
                            "v": 32, 
                            "dur": 800.0, 
                            "type": "note", 
                            "channel": 0
                        }
                    ]
                ], 
                [
                    101500.0, 
                    [
                        {
                            "pitch": 28, 
                            "t0": 101500.0, 
                            "v": 58, 
                            "dur": 800.0, 
                            "type": "note", 
                            "channel": 0
                        }, 
                        {
                            "pitch": 40, 
                            "t0": 101500.0, 
                            "v": 112, 
                            "dur": 800.0, 
                            "type": "note", 
                            "channel": 0
                        }, 
                        {
                            "pitch": 52, 
                            "t0": 101500.0, 
                            "v": 112, 
                            "dur": 800.0, 
                            "type": "note", 
                            "channel": 0
                        }, 
                        {
                            "pitch": 64, 
                            "t0": 101500.0, 
                            "v": 58, 
                            "dur": 800.0, 
                            "type": "note", 
                            "channel": 0
                        }
                    ]
                ], 
                [
                    102500.0, 
                    [
                        {
                            "pitch": 32, 
                            "t0": 102500.0, 
                            "v": 81, 
                            "dur": 800.0, 
                            "type": "note", 
                            "channel": 0
                        }, 
                        {
                            "pitch": 44, 
                            "t0": 102500.0, 
                            "v": 119, 
                            "dur": 800.0, 
                            "type": "note", 
                            "channel": 0
                        }, 
                        {
                            "pitch": 56, 
                            "t0": 102500.0, 
                            "v": 99, 
                            "dur": 800.0, 
                            "type": "note", 
                            "channel": 0
                        }, 
                        {
                            "pitch": 68, 
                            "t0": 102500.0, 
                            "v": 32, 
                            "dur": 800.0, 
                            "type": "note", 
                            "channel": 0
                        }
                    ]
                ], 
                [
                    103500.0, 
                    [
                        {
                            "pitch": 34, 
                            "t0": 103500.0, 
                            "v": 91, 
                            "dur": 800.0, 
                            "type": "note", 
                            "channel": 0
                        }, 
                        {
                            "pitch": 46, 
                            "t0": 103500.0, 
                            "v": 120, 
                            "dur": 800.0, 
                            "type": "note", 
                            "channel": 0
                        }, 
                        {
                            "pitch": 58, 
                            "t0": 103500.0, 
                            "v": 91, 
                            "dur": 800.0, 
                            "type": "note", 
                            "channel": 0
                        }, 
                        {
                            "pitch": 70, 
                            "t0": 103500.0, 
                            "v": 18, 
                            "dur": 800.0, 
                            "type": "note", 
                            "channel": 0
                        }
                    ]
                ], 
                [
                    104500.0, 
                    [
                        {
                            "pitch": 23, 
                            "t0": 104500.0, 
                            "v": 25, 
                            "dur": 400.0, 
                            "type": "note", 
                            "channel": 0
                        }, 
                        {
                            "pitch": 35, 
                            "t0": 104500.0, 
                            "v": 95, 
                            "dur": 400.0, 
                            "type": "note", 
                            "channel": 0
                        }, 
                        {
                            "pitch": 47, 
                            "t0": 104500.0, 
                            "v": 119, 
                            "dur": 400.0, 
                            "type": "note", 
                            "channel": 0
                        }, 
                        {
                            "pitch": 59, 
                            "t0": 104500.0, 
                            "v": 86, 
                            "dur": 400.0, 
                            "type": "note", 
                            "channel": 0
                        }, 
                        {
                            "pitch": 71, 
                            "t0": 104500.0, 
                            "v": 11, 
                            "dur": 400.0, 
                            "type": "note", 
                            "channel": 0
                        }
                    ]
                ], 
                [
                    105000.0, 
                    [
                        {
                            "pitch": 25, 
                            "t0": 105000.0, 
                            "v": 39, 
                            "dur": 400.0, 
                            "type": "note", 
                            "channel": 0
                        }, 
                        {
                            "pitch": 37, 
                            "t0": 105000.0, 
                            "v": 103, 
                            "dur": 400.0, 
                            "type": "note", 
                            "channel": 0
                        }, 
                        {
                            "pitch": 49, 
                            "t0": 105000.0, 
                            "v": 118, 
                            "dur": 400.0, 
                            "type": "note", 
                            "channel": 0
                        }, 
                        {
                            "pitch": 61, 
                            "t0": 105000.0, 
                            "v": 76, 
                            "dur": 400.0, 
                            "type": "note", 
                            "channel": 0
                        }
                    ]
                ], 
                [
                    105500.0, 
                    [
                        {
                            "pitch": 27, 
                            "t0": 105500.0, 
                            "v": 52, 
                            "dur": 400.0, 
                            "type": "note", 
                            "channel": 0
                        }, 
                        {
                            "pitch": 39, 
                            "t0": 105500.0, 
                            "v": 109, 
                            "dur": 400.0, 
                            "type": "note", 
                            "channel": 0
                        }, 
                        {
                            "pitch": 51, 
                            "t0": 105500.0, 
                            "v": 114, 
                            "dur": 400.0, 
                            "type": "note", 
                            "channel": 0
                        }, 
                        {
                            "pitch": 63, 
                            "t0": 105500.0, 
                            "v": 64, 
                            "dur": 400.0, 
                            "type": "note", 
                            "channel": 0
                        }
                    ]
                ], 
                [
                    106000.0, 
                    [
                        {
                            "pitch": 23, 
                            "t0": 106000.0, 
                            "v": 25, 
                            "dur": 800.0, 
                            "type": "note", 
                            "channel": 0
                        }, 
                        {
                            "pitch": 35, 
                            "t0": 106000.0, 
                            "v": 95, 
                            "dur": 800.0, 
                            "type": "note", 
                            "channel": 0
                        }, 
                        {
                            "pitch": 47, 
                            "t0": 106000.0, 
                            "v": 119, 
                            "dur": 800.0, 
                            "type": "note", 
                            "channel": 0
                        }, 
                        {
                            "pitch": 59, 
                            "t0": 106000.0, 
                            "v": 86, 
                            "dur": 800.0, 
                            "type": "note", 
                            "channel": 0
                        }, 
                        {
                            "pitch": 71, 
                            "t0": 106000.0, 
                            "v": 11, 
                            "dur": 800.0, 
                            "type": "note", 
                            "channel": 0
                        }
                    ]
                ], 
                [
                    107000.0, 
                    [
                        {
                            "pitch": 27, 
                            "t0": 107000.0, 
                            "v": 52, 
                            "dur": 400.0, 
                            "type": "note", 
                            "channel": 0
                        }, 
                        {
                            "pitch": 39, 
                            "t0": 107000.0, 
                            "v": 109, 
                            "dur": 400.0, 
                            "type": "note", 
                            "channel": 0
                        }, 
                        {
                            "pitch": 51, 
                            "t0": 107000.0, 
                            "v": 114, 
                            "dur": 400.0, 
                            "type": "note", 
                            "channel": 0
                        }, 
                        {
                            "pitch": 63, 
                            "t0": 107000.0, 
                            "v": 64, 
                            "dur": 400.0, 
                            "type": "note", 
                            "channel": 0
                        }
                    ]
                ], 
                [
                    107500.0, 
                    [
                        {
                            "pitch": 28, 
                            "t0": 107500.0, 
                            "v": 58, 
                            "dur": 400.0, 
                            "type": "note", 
                            "channel": 0
                        }, 
                        {
                            "pitch": 40, 
                            "t0": 107500.0, 
                            "v": 112, 
                            "dur": 400.0, 
                            "type": "note", 
                            "channel": 0
                        }, 
                        {
                            "pitch": 52, 
                            "t0": 107500.0, 
                            "v": 112, 
                            "dur": 400.0, 
                            "type": "note", 
                            "channel": 0
                        }, 
                        {
                            "pitch": 64, 
                            "t0": 107500.0, 
                            "v": 58, 
                            "dur": 400.0, 
                            "type": "note", 
                            "channel": 0
                        }
                    ]
                ], 
                [
                    108000.0, 
                    [
                        {
                            "pitch": 30, 
                            "t0": 108000.0, 
                            "v": 70, 
                            "dur": 1600.0, 
                            "type": "note", 
                            "channel": 0
                        }, 
                        {
                            "pitch": 42, 
                            "t0": 108000.0, 
                            "v": 116, 
                            "dur": 1600.0, 
                            "type": "note", 
                            "channel": 0
                        }, 
                        {
                            "pitch": 54, 
                            "t0": 108000.0, 
                            "v": 106, 
                            "dur": 1600.0, 
                            "type": "note", 
                            "channel": 0
                        }, 
                        {
                            "pitch": 66, 
                            "t0": 108000.0, 
                            "v": 45, 
                            "dur": 1600.0, 
                            "type": "note", 
                            "channel": 0
                        }
                    ]
                ], 
                [
                    110000.0, 
                    [
                        {
                            "pitch": 32, 
                            "t0": 110000.0, 
                            "v": 81, 
                            "dur": 800.0, 
                            "type": "note", 
                            "channel": 0
                        }, 
                        {
                            "pitch": 44, 
                            "t0": 110000.0, 
                            "v": 119, 
                            "dur": 800.0, 
                            "type": "note", 
                            "channel": 0
                        }, 
                        {
                            "pitch": 56, 
                            "t0": 110000.0, 
                            "v": 99, 
                            "dur": 800.0, 
                            "type": "note", 
                            "channel": 0
                        }, 
                        {
                            "pitch": 68, 
                            "t0": 110000.0, 
                            "v": 32, 
                            "dur": 800.0, 
                            "type": "note", 
                            "channel": 0
                        }
                    ]
                ], 
                [
                    111000.0, 
                    [
                        {
                            "pitch": 28, 
                            "t0": 111000.0, 
                            "v": 58, 
                            "dur": 800.0, 
                            "type": "note", 
                            "channel": 0
                        }, 
                        {
                            "pitch": 40, 
                            "t0": 111000.0, 
                            "v": 112, 
                            "dur": 800.0, 
                            "type": "note", 
                            "channel": 0
                        }, 
                        {
                            "pitch": 52, 
                            "t0": 111000.0, 
                            "v": 112, 
                            "dur": 800.0, 
                            "type": "note", 
                            "channel": 0
                        }, 
                        {
                            "pitch": 64, 
                            "t0": 111000.0, 
                            "v": 58, 
                            "dur": 800.0, 
                            "type": "note", 
                            "channel": 0
                        }
                    ]
                ], 
                [
                    112000.0, 
                    [
                        {
                            "pitch": 32, 
                            "t0": 112000.0, 
                            "v": 81, 
                            "dur": 800.0, 
                            "type": "note", 
                            "channel": 0
                        }, 
                        {
                            "pitch": 44, 
                            "t0": 112000.0, 
                            "v": 119, 
                            "dur": 800.0, 
                            "type": "note", 
                            "channel": 0
                        }, 
                        {
                            "pitch": 56, 
                            "t0": 112000.0, 
                            "v": 99, 
                            "dur": 800.0, 
                            "type": "note", 
                            "channel": 0
                        }, 
                        {
                            "pitch": 68, 
                            "t0": 112000.0, 
                            "v": 32, 
                            "dur": 800.0, 
                            "type": "note", 
                            "channel": 0
                        }
                    ]
                ], 
                [
                    113000.0, 
                    [
                        {
                            "pitch": 34, 
                            "t0": 113000.0, 
                            "v": 91, 
                            "dur": 800.0, 
                            "type": "note", 
                            "channel": 0
                        }, 
                        {
                            "pitch": 46, 
                            "t0": 113000.0, 
                            "v": 120, 
                            "dur": 800.0, 
                            "type": "note", 
                            "channel": 0
                        }, 
                        {
                            "pitch": 58, 
                            "t0": 113000.0, 
                            "v": 91, 
                            "dur": 800.0, 
                            "type": "note", 
                            "channel": 0
                        }, 
                        {
                            "pitch": 70, 
                            "t0": 113000.0, 
                            "v": 18, 
                            "dur": 800.0, 
                            "type": "note", 
                            "channel": 0
                        }
                    ]
                ], 
                [
                    114000.0, 
                    [
                        {
                            "pitch": 23, 
                            "t0": 114000.0, 
                            "v": 25, 
                            "dur": 400.0, 
                            "type": "note", 
                            "channel": 0
                        }, 
                        {
                            "pitch": 35, 
                            "t0": 114000.0, 
                            "v": 95, 
                            "dur": 400.0, 
                            "type": "note", 
                            "channel": 0
                        }, 
                        {
                            "pitch": 47, 
                            "t0": 114000.0, 
                            "v": 119, 
                            "dur": 400.0, 
                            "type": "note", 
                            "channel": 0
                        }, 
                        {
                            "pitch": 59, 
                            "t0": 114000.0, 
                            "v": 86, 
                            "dur": 400.0, 
                            "type": "note", 
                            "channel": 0
                        }, 
                        {
                            "pitch": 71, 
                            "t0": 114000.0, 
                            "v": 11, 
                            "dur": 400.0, 
                            "type": "note", 
                            "channel": 0
                        }
                    ]
                ], 
                [
                    114500.0, 
                    [
                        {
                            "pitch": 25, 
                            "t0": 114500.0, 
                            "v": 39, 
                            "dur": 400.0, 
                            "type": "note", 
                            "channel": 0
                        }, 
                        {
                            "pitch": 37, 
                            "t0": 114500.0, 
                            "v": 103, 
                            "dur": 400.0, 
                            "type": "note", 
                            "channel": 0
                        }, 
                        {
                            "pitch": 49, 
                            "t0": 114500.0, 
                            "v": 118, 
                            "dur": 400.0, 
                            "type": "note", 
                            "channel": 0
                        }, 
                        {
                            "pitch": 61, 
                            "t0": 114500.0, 
                            "v": 76, 
                            "dur": 400.0, 
                            "type": "note", 
                            "channel": 0
                        }
                    ]
                ], 
                [
                    115000.0, 
                    [
                        {
                            "pitch": 27, 
                            "t0": 115000.0, 
                            "v": 52, 
                            "dur": 400.0, 
                            "type": "note", 
                            "channel": 0
                        }, 
                        {
                            "pitch": 39, 
                            "t0": 115000.0, 
                            "v": 109, 
                            "dur": 400.0, 
                            "type": "note", 
                            "channel": 0
                        }, 
                        {
                            "pitch": 51, 
                            "t0": 115000.0, 
                            "v": 114, 
                            "dur": 400.0, 
                            "type": "note", 
                            "channel": 0
                        }, 
                        {
                            "pitch": 63, 
                            "t0": 115000.0, 
                            "v": 64, 
                            "dur": 400.0, 
                            "type": "note", 
                            "channel": 0
                        }
                    ]
                ], 
                [
                    115500.0, 
                    [
                        {
                            "pitch": 23, 
                            "t0": 115500.0, 
                            "v": 25, 
                            "dur": 800.0, 
                            "type": "note", 
                            "channel": 0
                        }, 
                        {
                            "pitch": 35, 
                            "t0": 115500.0, 
                            "v": 95, 
                            "dur": 800.0, 
                            "type": "note", 
                            "channel": 0
                        }, 
                        {
                            "pitch": 47, 
                            "t0": 115500.0, 
                            "v": 119, 
                            "dur": 800.0, 
                            "type": "note", 
                            "channel": 0
                        }, 
                        {
                            "pitch": 59, 
                            "t0": 115500.0, 
                            "v": 86, 
                            "dur": 800.0, 
                            "type": "note", 
                            "channel": 0
                        }, 
                        {
                            "pitch": 71, 
                            "t0": 115500.0, 
                            "v": 11, 
                            "dur": 800.0, 
                            "type": "note", 
                            "channel": 0
                        }
                    ]
                ], 
                [
                    116500.0, 
                    [
                        {
                            "pitch": 27, 
                            "t0": 116500.0, 
                            "v": 52, 
                            "dur": 400.0, 
                            "type": "note", 
                            "channel": 0
                        }, 
                        {
                            "pitch": 39, 
                            "t0": 116500.0, 
                            "v": 109, 
                            "dur": 400.0, 
                            "type": "note", 
                            "channel": 0
                        }, 
                        {
                            "pitch": 51, 
                            "t0": 116500.0, 
                            "v": 114, 
                            "dur": 400.0, 
                            "type": "note", 
                            "channel": 0
                        }, 
                        {
                            "pitch": 63, 
                            "t0": 116500.0, 
                            "v": 64, 
                            "dur": 400.0, 
                            "type": "note", 
                            "channel": 0
                        }
                    ]
                ], 
                [
                    117000.0, 
                    [
                        {
                            "pitch": 28, 
                            "t0": 117000.0, 
                            "v": 58, 
                            "dur": 400.0, 
                            "type": "note", 
                            "channel": 0
                        }, 
                        {
                            "pitch": 40, 
                            "t0": 117000.0, 
                            "v": 112, 
                            "dur": 400.0, 
                            "type": "note", 
                            "channel": 0
                        }, 
                        {
                            "pitch": 52, 
                            "t0": 117000.0, 
                            "v": 112, 
                            "dur": 400.0, 
                            "type": "note", 
                            "channel": 0
                        }, 
                        {
                            "pitch": 64, 
                            "t0": 117000.0, 
                            "v": 58, 
                            "dur": 400.0, 
                            "type": "note", 
                            "channel": 0
                        }
                    ]
                ], 
                [
                    117500.0, 
                    [
                        {
                            "pitch": 30, 
                            "t0": 117500.0, 
                            "v": 70, 
                            "dur": 1600.0, 
                            "type": "note", 
                            "channel": 0
                        }, 
                        {
                            "pitch": 42, 
                            "t0": 117500.0, 
                            "v": 116, 
                            "dur": 1600.0, 
                            "type": "note", 
                            "channel": 0
                        }, 
                        {
                            "pitch": 54, 
                            "t0": 117500.0, 
                            "v": 106, 
                            "dur": 1600.0, 
                            "type": "note", 
                            "channel": 0
                        }, 
                        {
                            "pitch": 66, 
                            "t0": 117500.0, 
                            "v": 45, 
                            "dur": 1600.0, 
                            "type": "note", 
                            "channel": 0
                        }
                    ]
                ], 
                [
                    119500.0, 
                    [
                        {
                            "pitch": 32, 
                            "t0": 119500.0, 
                            "v": 81, 
                            "dur": 800.0, 
                            "type": "note", 
                            "channel": 0
                        }, 
                        {
                            "pitch": 44, 
                            "t0": 119500.0, 
                            "v": 119, 
                            "dur": 800.0, 
                            "type": "note", 
                            "channel": 0
                        }, 
                        {
                            "pitch": 56, 
                            "t0": 119500.0, 
                            "v": 99, 
                            "dur": 800.0, 
                            "type": "note", 
                            "channel": 0
                        }, 
                        {
                            "pitch": 68, 
                            "t0": 119500.0, 
                            "v": 32, 
                            "dur": 800.0, 
                            "type": "note", 
                            "channel": 0
                        }
                    ]
                ], 
                [
                    120500.0, 
                    [
                        {
                            "pitch": 28, 
                            "t0": 120500.0, 
                            "v": 58, 
                            "dur": 800.0, 
                            "type": "note", 
                            "channel": 0
                        }, 
                        {
                            "pitch": 40, 
                            "t0": 120500.0, 
                            "v": 112, 
                            "dur": 800.0, 
                            "type": "note", 
                            "channel": 0
                        }, 
                        {
                            "pitch": 52, 
                            "t0": 120500.0, 
                            "v": 112, 
                            "dur": 800.0, 
                            "type": "note", 
                            "channel": 0
                        }, 
                        {
                            "pitch": 64, 
                            "t0": 120500.0, 
                            "v": 58, 
                            "dur": 800.0, 
                            "type": "note", 
                            "channel": 0
                        }
                    ]
                ], 
                [
                    121500.0, 
                    [
                        {
                            "pitch": 32, 
                            "t0": 121500.0, 
                            "v": 81, 
                            "dur": 800.0, 
                            "type": "note", 
                            "channel": 0
                        }, 
                        {
                            "pitch": 44, 
                            "t0": 121500.0, 
                            "v": 119, 
                            "dur": 800.0, 
                            "type": "note", 
                            "channel": 0
                        }, 
                        {
                            "pitch": 56, 
                            "t0": 121500.0, 
                            "v": 99, 
                            "dur": 800.0, 
                            "type": "note", 
                            "channel": 0
                        }, 
                        {
                            "pitch": 68, 
                            "t0": 121500.0, 
                            "v": 32, 
                            "dur": 800.0, 
                            "type": "note", 
                            "channel": 0
                        }
                    ]
                ], 
                [
                    122500.0, 
                    [
                        {
                            "pitch": 34, 
                            "t0": 122500.0, 
                            "v": 91, 
                            "dur": 800.0, 
                            "type": "note", 
                            "channel": 0
                        }, 
                        {
                            "pitch": 46, 
                            "t0": 122500.0, 
                            "v": 120, 
                            "dur": 800.0, 
                            "type": "note", 
                            "channel": 0
                        }, 
                        {
                            "pitch": 58, 
                            "t0": 122500.0, 
                            "v": 91, 
                            "dur": 800.0, 
                            "type": "note", 
                            "channel": 0
                        }, 
                        {
                            "pitch": 70, 
                            "t0": 122500.0, 
                            "v": 18, 
                            "dur": 800.0, 
                            "type": "note", 
                            "channel": 0
                        }
                    ]
                ], 
                [
                    123500.0, 
                    [
                        {
                            "pitch": 23, 
                            "t0": 123500.0, 
                            "v": 25, 
                            "dur": 400.0, 
                            "type": "note", 
                            "channel": 0
                        }, 
                        {
                            "pitch": 35, 
                            "t0": 123500.0, 
                            "v": 95, 
                            "dur": 400.0, 
                            "type": "note", 
                            "channel": 0
                        }, 
                        {
                            "pitch": 47, 
                            "t0": 123500.0, 
                            "v": 119, 
                            "dur": 400.0, 
                            "type": "note", 
                            "channel": 0
                        }, 
                        {
                            "pitch": 59, 
                            "t0": 123500.0, 
                            "v": 86, 
                            "dur": 400.0, 
                            "type": "note", 
                            "channel": 0
                        }, 
                        {
                            "pitch": 71, 
                            "t0": 123500.0, 
                            "v": 11, 
                            "dur": 400.0, 
                            "type": "note", 
                            "channel": 0
                        }
                    ]
                ], 
                [
                    124000.0, 
                    [
                        {
                            "pitch": 25, 
                            "t0": 124000.0, 
                            "v": 39, 
                            "dur": 400.0, 
                            "type": "note", 
                            "channel": 0
                        }, 
                        {
                            "pitch": 37, 
                            "t0": 124000.0, 
                            "v": 103, 
                            "dur": 400.0, 
                            "type": "note", 
                            "channel": 0
                        }, 
                        {
                            "pitch": 49, 
                            "t0": 124000.0, 
                            "v": 118, 
                            "dur": 400.0, 
                            "type": "note", 
                            "channel": 0
                        }, 
                        {
                            "pitch": 61, 
                            "t0": 124000.0, 
                            "v": 76, 
                            "dur": 400.0, 
                            "type": "note", 
                            "channel": 0
                        }
                    ]
                ], 
                [
                    124500.0, 
                    [
                        {
                            "pitch": 27, 
                            "t0": 124500.0, 
                            "v": 52, 
                            "dur": 400.0, 
                            "type": "note", 
                            "channel": 0
                        }, 
                        {
                            "pitch": 39, 
                            "t0": 124500.0, 
                            "v": 109, 
                            "dur": 400.0, 
                            "type": "note", 
                            "channel": 0
                        }, 
                        {
                            "pitch": 51, 
                            "t0": 124500.0, 
                            "v": 114, 
                            "dur": 400.0, 
                            "type": "note", 
                            "channel": 0
                        }, 
                        {
                            "pitch": 63, 
                            "t0": 124500.0, 
                            "v": 64, 
                            "dur": 400.0, 
                            "type": "note", 
                            "channel": 0
                        }
                    ]
                ], 
                [
                    125000.0, 
                    [
                        {
                            "pitch": 23, 
                            "t0": 125000.0, 
                            "v": 25, 
                            "dur": 800.0, 
                            "type": "note", 
                            "channel": 0
                        }, 
                        {
                            "pitch": 35, 
                            "t0": 125000.0, 
                            "v": 95, 
                            "dur": 800.0, 
                            "type": "note", 
                            "channel": 0
                        }, 
                        {
                            "pitch": 47, 
                            "t0": 125000.0, 
                            "v": 119, 
                            "dur": 800.0, 
                            "type": "note", 
                            "channel": 0
                        }, 
                        {
                            "pitch": 59, 
                            "t0": 125000.0, 
                            "v": 86, 
                            "dur": 800.0, 
                            "type": "note", 
                            "channel": 0
                        }, 
                        {
                            "pitch": 71, 
                            "t0": 125000.0, 
                            "v": 11, 
                            "dur": 800.0, 
                            "type": "note", 
                            "channel": 0
                        }
                    ]
                ], 
                [
                    126000.0, 
                    [
                        {
                            "pitch": 27, 
                            "t0": 126000.0, 
                            "v": 52, 
                            "dur": 400.0, 
                            "type": "note", 
                            "channel": 0
                        }, 
                        {
                            "pitch": 39, 
                            "t0": 126000.0, 
                            "v": 109, 
                            "dur": 400.0, 
                            "type": "note", 
                            "channel": 0
                        }, 
                        {
                            "pitch": 51, 
                            "t0": 126000.0, 
                            "v": 114, 
                            "dur": 400.0, 
                            "type": "note", 
                            "channel": 0
                        }, 
                        {
                            "pitch": 63, 
                            "t0": 126000.0, 
                            "v": 64, 
                            "dur": 400.0, 
                            "type": "note", 
                            "channel": 0
                        }
                    ]
                ], 
                [
                    126500.0, 
                    [
                        {
                            "pitch": 28, 
                            "t0": 126500.0, 
                            "v": 58, 
                            "dur": 400.0, 
                            "type": "note", 
                            "channel": 0
                        }, 
                        {
                            "pitch": 40, 
                            "t0": 126500.0, 
                            "v": 112, 
                            "dur": 400.0, 
                            "type": "note", 
                            "channel": 0
                        }, 
                        {
                            "pitch": 52, 
                            "t0": 126500.0, 
                            "v": 112, 
                            "dur": 400.0, 
                            "type": "note", 
                            "channel": 0
                        }, 
                        {
                            "pitch": 64, 
                            "t0": 126500.0, 
                            "v": 58, 
                            "dur": 400.0, 
                            "type": "note", 
                            "channel": 0
                        }
                    ]
                ], 
                [
                    127000.0, 
                    [
                        {
                            "pitch": 30, 
                            "t0": 127000.0, 
                            "v": 70, 
                            "dur": 1600.0, 
                            "type": "note", 
                            "channel": 0
                        }, 
                        {
                            "pitch": 42, 
                            "t0": 127000.0, 
                            "v": 116, 
                            "dur": 1600.0, 
                            "type": "note", 
                            "channel": 0
                        }, 
                        {
                            "pitch": 54, 
                            "t0": 127000.0, 
                            "v": 106, 
                            "dur": 1600.0, 
                            "type": "note", 
                            "channel": 0
                        }, 
                        {
                            "pitch": 66, 
                            "t0": 127000.0, 
                            "v": 45, 
                            "dur": 1600.0, 
                            "type": "note", 
                            "channel": 0
                        }
                    ]
                ], 
                [
                    129000.0, 
                    [
                        {
                            "pitch": 32, 
                            "t0": 129000.0, 
                            "v": 81, 
                            "dur": 800.0, 
                            "type": "note", 
                            "channel": 0
                        }, 
                        {
                            "pitch": 44, 
                            "t0": 129000.0, 
                            "v": 119, 
                            "dur": 800.0, 
                            "type": "note", 
                            "channel": 0
                        }, 
                        {
                            "pitch": 56, 
                            "t0": 129000.0, 
                            "v": 99, 
                            "dur": 800.0, 
                            "type": "note", 
                            "channel": 0
                        }, 
                        {
                            "pitch": 68, 
                            "t0": 129000.0, 
                            "v": 32, 
                            "dur": 800.0, 
                            "type": "note", 
                            "channel": 0
                        }
                    ]
                ], 
                [
                    130000.0, 
                    [
                        {
                            "pitch": 28, 
                            "t0": 130000.0, 
                            "v": 58, 
                            "dur": 800.0, 
                            "type": "note", 
                            "channel": 0
                        }, 
                        {
                            "pitch": 40, 
                            "t0": 130000.0, 
                            "v": 112, 
                            "dur": 800.0, 
                            "type": "note", 
                            "channel": 0
                        }, 
                        {
                            "pitch": 52, 
                            "t0": 130000.0, 
                            "v": 112, 
                            "dur": 800.0, 
                            "type": "note", 
                            "channel": 0
                        }, 
                        {
                            "pitch": 64, 
                            "t0": 130000.0, 
                            "v": 58, 
                            "dur": 800.0, 
                            "type": "note", 
                            "channel": 0
                        }
                    ]
                ], 
                [
                    131000.0, 
                    [
                        {
                            "pitch": 32, 
                            "t0": 131000.0, 
                            "v": 81, 
                            "dur": 800.0, 
                            "type": "note", 
                            "channel": 0
                        }, 
                        {
                            "pitch": 44, 
                            "t0": 131000.0, 
                            "v": 119, 
                            "dur": 800.0, 
                            "type": "note", 
                            "channel": 0
                        }, 
                        {
                            "pitch": 56, 
                            "t0": 131000.0, 
                            "v": 99, 
                            "dur": 800.0, 
                            "type": "note", 
                            "channel": 0
                        }, 
                        {
                            "pitch": 68, 
                            "t0": 131000.0, 
                            "v": 32, 
                            "dur": 800.0, 
                            "type": "note", 
                            "channel": 0
                        }
                    ]
                ], 
                [
                    132000.0, 
                    [
                        {
                            "pitch": 34, 
                            "t0": 132000.0, 
                            "v": 91, 
                            "dur": 800.0, 
                            "type": "note", 
                            "channel": 0
                        }, 
                        {
                            "pitch": 46, 
                            "t0": 132000.0, 
                            "v": 120, 
                            "dur": 800.0, 
                            "type": "note", 
                            "channel": 0
                        }, 
                        {
                            "pitch": 58, 
                            "t0": 132000.0, 
                            "v": 91, 
                            "dur": 800.0, 
                            "type": "note", 
                            "channel": 0
                        }, 
                        {
                            "pitch": 70, 
                            "t0": 132000.0, 
                            "v": 18, 
                            "dur": 800.0, 
                            "type": "note", 
                            "channel": 0
                        }
                    ]
                ], 
                [
                    133000.0, 
                    [
                        {
                            "pitch": 23, 
                            "t0": 133000.0, 
                            "v": 25, 
                            "dur": 400.0, 
                            "type": "note", 
                            "channel": 0
                        }, 
                        {
                            "pitch": 35, 
                            "t0": 133000.0, 
                            "v": 95, 
                            "dur": 400.0, 
                            "type": "note", 
                            "channel": 0
                        }, 
                        {
                            "pitch": 47, 
                            "t0": 133000.0, 
                            "v": 119, 
                            "dur": 400.0, 
                            "type": "note", 
                            "channel": 0
                        }, 
                        {
                            "pitch": 59, 
                            "t0": 133000.0, 
                            "v": 86, 
                            "dur": 400.0, 
                            "type": "note", 
                            "channel": 0
                        }, 
                        {
                            "pitch": 71, 
                            "t0": 133000.0, 
                            "v": 11, 
                            "dur": 400.0, 
                            "type": "note", 
                            "channel": 0
                        }
                    ]
                ], 
                [
                    133500.0, 
                    [
                        {
                            "pitch": 25, 
                            "t0": 133500.0, 
                            "v": 39, 
                            "dur": 400.0, 
                            "type": "note", 
                            "channel": 0
                        }, 
                        {
                            "pitch": 37, 
                            "t0": 133500.0, 
                            "v": 103, 
                            "dur": 400.0, 
                            "type": "note", 
                            "channel": 0
                        }, 
                        {
                            "pitch": 49, 
                            "t0": 133500.0, 
                            "v": 118, 
                            "dur": 400.0, 
                            "type": "note", 
                            "channel": 0
                        }, 
                        {
                            "pitch": 61, 
                            "t0": 133500.0, 
                            "v": 76, 
                            "dur": 400.0, 
                            "type": "note", 
                            "channel": 0
                        }
                    ]
                ], 
                [
                    134000.0, 
                    [
                        {
                            "pitch": 27, 
                            "t0": 134000.0, 
                            "v": 52, 
                            "dur": 400.0, 
                            "type": "note", 
                            "channel": 0
                        }, 
                        {
                            "pitch": 39, 
                            "t0": 134000.0, 
                            "v": 109, 
                            "dur": 400.0, 
                            "type": "note", 
                            "channel": 0
                        }, 
                        {
                            "pitch": 51, 
                            "t0": 134000.0, 
                            "v": 114, 
                            "dur": 400.0, 
                            "type": "note", 
                            "channel": 0
                        }, 
                        {
                            "pitch": 63, 
                            "t0": 134000.0, 
                            "v": 64, 
                            "dur": 400.0, 
                            "type": "note", 
                            "channel": 0
                        }
                    ]
                ], 
                [
                    134500.0, 
                    [
                        {
                            "pitch": 23, 
                            "t0": 134500.0, 
                            "v": 25, 
                            "dur": 800.0, 
                            "type": "note", 
                            "channel": 0
                        }, 
                        {
                            "pitch": 35, 
                            "t0": 134500.0, 
                            "v": 95, 
                            "dur": 800.0, 
                            "type": "note", 
                            "channel": 0
                        }, 
                        {
                            "pitch": 47, 
                            "t0": 134500.0, 
                            "v": 119, 
                            "dur": 800.0, 
                            "type": "note", 
                            "channel": 0
                        }, 
                        {
                            "pitch": 59, 
                            "t0": 134500.0, 
                            "v": 86, 
                            "dur": 800.0, 
                            "type": "note", 
                            "channel": 0
                        }, 
                        {
                            "pitch": 71, 
                            "t0": 134500.0, 
                            "v": 11, 
                            "dur": 800.0, 
                            "type": "note", 
                            "channel": 0
                        }
                    ]
                ], 
                [
                    135500.0, 
                    [
                        {
                            "pitch": 27, 
                            "t0": 135500.0, 
                            "v": 52, 
                            "dur": 400.0, 
                            "type": "note", 
                            "channel": 0
                        }, 
                        {
                            "pitch": 39, 
                            "t0": 135500.0, 
                            "v": 109, 
                            "dur": 400.0, 
                            "type": "note", 
                            "channel": 0
                        }, 
                        {
                            "pitch": 51, 
                            "t0": 135500.0, 
                            "v": 114, 
                            "dur": 400.0, 
                            "type": "note", 
                            "channel": 0
                        }, 
                        {
                            "pitch": 63, 
                            "t0": 135500.0, 
                            "v": 64, 
                            "dur": 400.0, 
                            "type": "note", 
                            "channel": 0
                        }
                    ]
                ], 
                [
                    136000.0, 
                    [
                        {
                            "pitch": 28, 
                            "t0": 136000.0, 
                            "v": 58, 
                            "dur": 400.0, 
                            "type": "note", 
                            "channel": 0
                        }, 
                        {
                            "pitch": 40, 
                            "t0": 136000.0, 
                            "v": 112, 
                            "dur": 400.0, 
                            "type": "note", 
                            "channel": 0
                        }, 
                        {
                            "pitch": 52, 
                            "t0": 136000.0, 
                            "v": 112, 
                            "dur": 400.0, 
                            "type": "note", 
                            "channel": 0
                        }, 
                        {
                            "pitch": 64, 
                            "t0": 136000.0, 
                            "v": 58, 
                            "dur": 400.0, 
                            "type": "note", 
                            "channel": 0
                        }
                    ]
                ], 
                [
                    136500.0, 
                    [
                        {
                            "pitch": 30, 
                            "t0": 136500.0, 
                            "v": 70, 
                            "dur": 1600.0, 
                            "type": "note", 
                            "channel": 0
                        }, 
                        {
                            "pitch": 42, 
                            "t0": 136500.0, 
                            "v": 116, 
                            "dur": 1600.0, 
                            "type": "note", 
                            "channel": 0
                        }, 
                        {
                            "pitch": 54, 
                            "t0": 136500.0, 
                            "v": 106, 
                            "dur": 1600.0, 
                            "type": "note", 
                            "channel": 0
                        }, 
                        {
                            "pitch": 66, 
                            "t0": 136500.0, 
                            "v": 45, 
                            "dur": 1600.0, 
                            "type": "note", 
                            "channel": 0
                        }
                    ]
                ], 
                [
                    138500.0, 
                    [
                        {
                            "pitch": 32, 
                            "t0": 138500.0, 
                            "v": 81, 
                            "dur": 800.0, 
                            "type": "note", 
                            "channel": 0
                        }, 
                        {
                            "pitch": 44, 
                            "t0": 138500.0, 
                            "v": 119, 
                            "dur": 800.0, 
                            "type": "note", 
                            "channel": 0
                        }, 
                        {
                            "pitch": 56, 
                            "t0": 138500.0, 
                            "v": 99, 
                            "dur": 800.0, 
                            "type": "note", 
                            "channel": 0
                        }, 
                        {
                            "pitch": 68, 
                            "t0": 138500.0, 
                            "v": 32, 
                            "dur": 800.0, 
                            "type": "note", 
                            "channel": 0
                        }
                    ]
                ], 
                [
                    139500.0, 
                    [
                        {
                            "pitch": 28, 
                            "t0": 139500.0, 
                            "v": 58, 
                            "dur": 800.0, 
                            "type": "note", 
                            "channel": 0
                        }, 
                        {
                            "pitch": 40, 
                            "t0": 139500.0, 
                            "v": 112, 
                            "dur": 800.0, 
                            "type": "note", 
                            "channel": 0
                        }, 
                        {
                            "pitch": 52, 
                            "t0": 139500.0, 
                            "v": 112, 
                            "dur": 800.0, 
                            "type": "note", 
                            "channel": 0
                        }, 
                        {
                            "pitch": 64, 
                            "t0": 139500.0, 
                            "v": 58, 
                            "dur": 800.0, 
                            "type": "note", 
                            "channel": 0
                        }
                    ]
                ], 
                [
                    140500.0, 
                    [
                        {
                            "pitch": 32, 
                            "t0": 140500.0, 
                            "v": 81, 
                            "dur": 800.0, 
                            "type": "note", 
                            "channel": 0
                        }, 
                        {
                            "pitch": 44, 
                            "t0": 140500.0, 
                            "v": 119, 
                            "dur": 800.0, 
                            "type": "note", 
                            "channel": 0
                        }, 
                        {
                            "pitch": 56, 
                            "t0": 140500.0, 
                            "v": 99, 
                            "dur": 800.0, 
                            "type": "note", 
                            "channel": 0
                        }, 
                        {
                            "pitch": 68, 
                            "t0": 140500.0, 
                            "v": 32, 
                            "dur": 800.0, 
                            "type": "note", 
                            "channel": 0
                        }
                    ]
                ], 
                [
                    141500.0, 
                    [
                        {
                            "pitch": 34, 
                            "t0": 141500.0, 
                            "v": 91, 
                            "dur": 800.0, 
                            "type": "note", 
                            "channel": 0
                        }, 
                        {
                            "pitch": 46, 
                            "t0": 141500.0, 
                            "v": 120, 
                            "dur": 800.0, 
                            "type": "note", 
                            "channel": 0
                        }, 
                        {
                            "pitch": 58, 
                            "t0": 141500.0, 
                            "v": 91, 
                            "dur": 800.0, 
                            "type": "note", 
                            "channel": 0
                        }, 
                        {
                            "pitch": 70, 
                            "t0": 141500.0, 
                            "v": 18, 
                            "dur": 800.0, 
                            "type": "note", 
                            "channel": 0
                        }
                    ]
                ], 
                [
                    142500.0, 
                    [
                        {
                            "pitch": 23, 
                            "t0": 142500.0, 
                            "v": 25, 
                            "dur": 400.0, 
                            "type": "note", 
                            "channel": 0
                        }, 
                        {
                            "pitch": 35, 
                            "t0": 142500.0, 
                            "v": 95, 
                            "dur": 400.0, 
                            "type": "note", 
                            "channel": 0
                        }, 
                        {
                            "pitch": 47, 
                            "t0": 142500.0, 
                            "v": 119, 
                            "dur": 400.0, 
                            "type": "note", 
                            "channel": 0
                        }, 
                        {
                            "pitch": 59, 
                            "t0": 142500.0, 
                            "v": 86, 
                            "dur": 400.0, 
                            "type": "note", 
                            "channel": 0
                        }, 
                        {
                            "pitch": 71, 
                            "t0": 142500.0, 
                            "v": 11, 
                            "dur": 400.0, 
                            "type": "note", 
                            "channel": 0
                        }
                    ]
                ], 
                [
                    143000.0, 
                    [
                        {
                            "pitch": 25, 
                            "t0": 143000.0, 
                            "v": 39, 
                            "dur": 400.0, 
                            "type": "note", 
                            "channel": 0
                        }, 
                        {
                            "pitch": 37, 
                            "t0": 143000.0, 
                            "v": 103, 
                            "dur": 400.0, 
                            "type": "note", 
                            "channel": 0
                        }, 
                        {
                            "pitch": 49, 
                            "t0": 143000.0, 
                            "v": 118, 
                            "dur": 400.0, 
                            "type": "note", 
                            "channel": 0
                        }, 
                        {
                            "pitch": 61, 
                            "t0": 143000.0, 
                            "v": 76, 
                            "dur": 400.0, 
                            "type": "note", 
                            "channel": 0
                        }
                    ]
                ], 
                [
                    143500.0, 
                    [
                        {
                            "pitch": 27, 
                            "t0": 143500.0, 
                            "v": 52, 
                            "dur": 400.0, 
                            "type": "note", 
                            "channel": 0
                        }, 
                        {
                            "pitch": 39, 
                            "t0": 143500.0, 
                            "v": 109, 
                            "dur": 400.0, 
                            "type": "note", 
                            "channel": 0
                        }, 
                        {
                            "pitch": 51, 
                            "t0": 143500.0, 
                            "v": 114, 
                            "dur": 400.0, 
                            "type": "note", 
                            "channel": 0
                        }, 
                        {
                            "pitch": 63, 
                            "t0": 143500.0, 
                            "v": 64, 
                            "dur": 400.0, 
                            "type": "note", 
                            "channel": 0
                        }
                    ]
                ], 
                [
                    144000.0, 
                    [
                        {
                            "pitch": 23, 
                            "t0": 144000.0, 
                            "v": 25, 
                            "dur": 800.0, 
                            "type": "note", 
                            "channel": 0
                        }, 
                        {
                            "pitch": 35, 
                            "t0": 144000.0, 
                            "v": 95, 
                            "dur": 800.0, 
                            "type": "note", 
                            "channel": 0
                        }, 
                        {
                            "pitch": 47, 
                            "t0": 144000.0, 
                            "v": 119, 
                            "dur": 800.0, 
                            "type": "note", 
                            "channel": 0
                        }, 
                        {
                            "pitch": 59, 
                            "t0": 144000.0, 
                            "v": 86, 
                            "dur": 800.0, 
                            "type": "note", 
                            "channel": 0
                        }, 
                        {
                            "pitch": 71, 
                            "t0": 144000.0, 
                            "v": 11, 
                            "dur": 800.0, 
                            "type": "note", 
                            "channel": 0
                        }
                    ]
                ], 
                [
                    145000.0, 
                    [
                        {
                            "pitch": 27, 
                            "t0": 145000.0, 
                            "v": 52, 
                            "dur": 400.0, 
                            "type": "note", 
                            "channel": 0
                        }, 
                        {
                            "pitch": 39, 
                            "t0": 145000.0, 
                            "v": 109, 
                            "dur": 400.0, 
                            "type": "note", 
                            "channel": 0
                        }, 
                        {
                            "pitch": 51, 
                            "t0": 145000.0, 
                            "v": 114, 
                            "dur": 400.0, 
                            "type": "note", 
                            "channel": 0
                        }, 
                        {
                            "pitch": 63, 
                            "t0": 145000.0, 
                            "v": 64, 
                            "dur": 400.0, 
                            "type": "note", 
                            "channel": 0
                        }
                    ]
                ], 
                [
                    145500.0, 
                    [
                        {
                            "pitch": 28, 
                            "t0": 145500.0, 
                            "v": 58, 
                            "dur": 400.0, 
                            "type": "note", 
                            "channel": 0
                        }, 
                        {
                            "pitch": 40, 
                            "t0": 145500.0, 
                            "v": 112, 
                            "dur": 400.0, 
                            "type": "note", 
                            "channel": 0
                        }, 
                        {
                            "pitch": 52, 
                            "t0": 145500.0, 
                            "v": 112, 
                            "dur": 400.0, 
                            "type": "note", 
                            "channel": 0
                        }, 
                        {
                            "pitch": 64, 
                            "t0": 145500.0, 
                            "v": 58, 
                            "dur": 400.0, 
                            "type": "note", 
                            "channel": 0
                        }
                    ]
                ], 
                [
                    146000.0, 
                    [
                        {
                            "pitch": 30, 
                            "t0": 146000.0, 
                            "v": 70, 
                            "dur": 1600.0, 
                            "type": "note", 
                            "channel": 0
                        }, 
                        {
                            "pitch": 42, 
                            "t0": 146000.0, 
                            "v": 116, 
                            "dur": 1600.0, 
                            "type": "note", 
                            "channel": 0
                        }, 
                        {
                            "pitch": 54, 
                            "t0": 146000.0, 
                            "v": 106, 
                            "dur": 1600.0, 
                            "type": "note", 
                            "channel": 0
                        }, 
                        {
                            "pitch": 66, 
                            "t0": 146000.0, 
                            "v": 45, 
                            "dur": 1600.0, 
                            "type": "note", 
                            "channel": 0
                        }
                    ]
                ], 
                [
                    148000.0, 
                    [
                        {
                            "pitch": 32, 
                            "t0": 148000.0, 
                            "v": 81, 
                            "dur": 800.0, 
                            "type": "note", 
                            "channel": 0
                        }, 
                        {
                            "pitch": 44, 
                            "t0": 148000.0, 
                            "v": 119, 
                            "dur": 800.0, 
                            "type": "note", 
                            "channel": 0
                        }, 
                        {
                            "pitch": 56, 
                            "t0": 148000.0, 
                            "v": 99, 
                            "dur": 800.0, 
                            "type": "note", 
                            "channel": 0
                        }, 
                        {
                            "pitch": 68, 
                            "t0": 148000.0, 
                            "v": 32, 
                            "dur": 800.0, 
                            "type": "note", 
                            "channel": 0
                        }
                    ]
                ], 
                [
                    149000.0, 
                    [
                        {
                            "pitch": 28, 
                            "t0": 149000.0, 
                            "v": 58, 
                            "dur": 800.0, 
                            "type": "note", 
                            "channel": 0
                        }, 
                        {
                            "pitch": 40, 
                            "t0": 149000.0, 
                            "v": 112, 
                            "dur": 800.0, 
                            "type": "note", 
                            "channel": 0
                        }, 
                        {
                            "pitch": 52, 
                            "t0": 149000.0, 
                            "v": 112, 
                            "dur": 800.0, 
                            "type": "note", 
                            "channel": 0
                        }, 
                        {
                            "pitch": 64, 
                            "t0": 149000.0, 
                            "v": 58, 
                            "dur": 800.0, 
                            "type": "note", 
                            "channel": 0
                        }
                    ]
                ], 
                [
                    150000.0, 
                    [
                        {
                            "pitch": 32, 
                            "t0": 150000.0, 
                            "v": 81, 
                            "dur": 800.0, 
                            "type": "note", 
                            "channel": 0
                        }, 
                        {
                            "pitch": 44, 
                            "t0": 150000.0, 
                            "v": 119, 
                            "dur": 800.0, 
                            "type": "note", 
                            "channel": 0
                        }, 
                        {
                            "pitch": 56, 
                            "t0": 150000.0, 
                            "v": 99, 
                            "dur": 800.0, 
                            "type": "note", 
                            "channel": 0
                        }, 
                        {
                            "pitch": 68, 
                            "t0": 150000.0, 
                            "v": 32, 
                            "dur": 800.0, 
                            "type": "note", 
                            "channel": 0
                        }
                    ]
                ], 
                [
                    151000.0, 
                    [
                        {
                            "pitch": 34, 
                            "t0": 151000.0, 
                            "v": 91, 
                            "dur": 800.0, 
                            "type": "note", 
                            "channel": 0
                        }, 
                        {
                            "pitch": 46, 
                            "t0": 151000.0, 
                            "v": 120, 
                            "dur": 800.0, 
                            "type": "note", 
                            "channel": 0
                        }, 
                        {
                            "pitch": 58, 
                            "t0": 151000.0, 
                            "v": 91, 
                            "dur": 800.0, 
                            "type": "note", 
                            "channel": 0
                        }, 
                        {
                            "pitch": 70, 
                            "t0": 151000.0, 
                            "v": 18, 
                            "dur": 800.0, 
                            "type": "note", 
                            "channel": 0
                        }
                    ]
                ], 
                [
                    152000.0, 
                    [
                        {
                            "pitch": 23, 
                            "t0": 152000.0, 
                            "v": 25, 
                            "dur": 400.0, 
                            "type": "note", 
                            "channel": 0
                        }, 
                        {
                            "pitch": 35, 
                            "t0": 152000.0, 
                            "v": 95, 
                            "dur": 400.0, 
                            "type": "note", 
                            "channel": 0
                        }, 
                        {
                            "pitch": 47, 
                            "t0": 152000.0, 
                            "v": 119, 
                            "dur": 400.0, 
                            "type": "note", 
                            "channel": 0
                        }, 
                        {
                            "pitch": 59, 
                            "t0": 152000.0, 
                            "v": 86, 
                            "dur": 400.0, 
                            "type": "note", 
                            "channel": 0
                        }, 
                        {
                            "pitch": 71, 
                            "t0": 152000.0, 
                            "v": 11, 
                            "dur": 400.0, 
                            "type": "note", 
                            "channel": 0
                        }
                    ]
                ], 
                [
                    152500.0, 
                    [
                        {
                            "pitch": 25, 
                            "t0": 152500.0, 
                            "v": 39, 
                            "dur": 400.0, 
                            "type": "note", 
                            "channel": 0
                        }, 
                        {
                            "pitch": 37, 
                            "t0": 152500.0, 
                            "v": 103, 
                            "dur": 400.0, 
                            "type": "note", 
                            "channel": 0
                        }, 
                        {
                            "pitch": 49, 
                            "t0": 152500.0, 
                            "v": 118, 
                            "dur": 400.0, 
                            "type": "note", 
                            "channel": 0
                        }, 
                        {
                            "pitch": 61, 
                            "t0": 152500.0, 
                            "v": 76, 
                            "dur": 400.0, 
                            "type": "note", 
                            "channel": 0
                        }
                    ]
                ], 
                [
                    153000.0, 
                    [
                        {
                            "pitch": 27, 
                            "t0": 153000.0, 
                            "v": 52, 
                            "dur": 400.0, 
                            "type": "note", 
                            "channel": 0
                        }, 
                        {
                            "pitch": 39, 
                            "t0": 153000.0, 
                            "v": 109, 
                            "dur": 400.0, 
                            "type": "note", 
                            "channel": 0
                        }, 
                        {
                            "pitch": 51, 
                            "t0": 153000.0, 
                            "v": 114, 
                            "dur": 400.0, 
                            "type": "note", 
                            "channel": 0
                        }, 
                        {
                            "pitch": 63, 
                            "t0": 153000.0, 
                            "v": 64, 
                            "dur": 400.0, 
                            "type": "note", 
                            "channel": 0
                        }
                    ]
                ], 
                [
                    153500.0, 
                    [
                        {
                            "pitch": 23, 
                            "t0": 153500.0, 
                            "v": 25, 
                            "dur": 800.0, 
                            "type": "note", 
                            "channel": 0
                        }, 
                        {
                            "pitch": 35, 
                            "t0": 153500.0, 
                            "v": 95, 
                            "dur": 800.0, 
                            "type": "note", 
                            "channel": 0
                        }, 
                        {
                            "pitch": 47, 
                            "t0": 153500.0, 
                            "v": 119, 
                            "dur": 800.0, 
                            "type": "note", 
                            "channel": 0
                        }, 
                        {
                            "pitch": 59, 
                            "t0": 153500.0, 
                            "v": 86, 
                            "dur": 800.0, 
                            "type": "note", 
                            "channel": 0
                        }, 
                        {
                            "pitch": 71, 
                            "t0": 153500.0, 
                            "v": 11, 
                            "dur": 800.0, 
                            "type": "note", 
                            "channel": 0
                        }
                    ]
                ], 
                [
                    154500.0, 
                    [
                        {
                            "pitch": 27, 
                            "t0": 154500.0, 
                            "v": 52, 
                            "dur": 400.0, 
                            "type": "note", 
                            "channel": 0
                        }, 
                        {
                            "pitch": 39, 
                            "t0": 154500.0, 
                            "v": 109, 
                            "dur": 400.0, 
                            "type": "note", 
                            "channel": 0
                        }, 
                        {
                            "pitch": 51, 
                            "t0": 154500.0, 
                            "v": 114, 
                            "dur": 400.0, 
                            "type": "note", 
                            "channel": 0
                        }, 
                        {
                            "pitch": 63, 
                            "t0": 154500.0, 
                            "v": 64, 
                            "dur": 400.0, 
                            "type": "note", 
                            "channel": 0
                        }
                    ]
                ], 
                [
                    155000.0, 
                    [
                        {
                            "pitch": 28, 
                            "t0": 155000.0, 
                            "v": 58, 
                            "dur": 400.0, 
                            "type": "note", 
                            "channel": 0
                        }, 
                        {
                            "pitch": 40, 
                            "t0": 155000.0, 
                            "v": 112, 
                            "dur": 400.0, 
                            "type": "note", 
                            "channel": 0
                        }, 
                        {
                            "pitch": 52, 
                            "t0": 155000.0, 
                            "v": 112, 
                            "dur": 400.0, 
                            "type": "note", 
                            "channel": 0
                        }, 
                        {
                            "pitch": 64, 
                            "t0": 155000.0, 
                            "v": 58, 
                            "dur": 400.0, 
                            "type": "note", 
                            "channel": 0
                        }
                    ]
                ], 
                [
                    155500.0, 
                    [
                        {
                            "pitch": 30, 
                            "t0": 155500.0, 
                            "v": 70, 
                            "dur": 1600.0, 
                            "type": "note", 
                            "channel": 0
                        }, 
                        {
                            "pitch": 42, 
                            "t0": 155500.0, 
                            "v": 116, 
                            "dur": 1600.0, 
                            "type": "note", 
                            "channel": 0
                        }, 
                        {
                            "pitch": 54, 
                            "t0": 155500.0, 
                            "v": 106, 
                            "dur": 1600.0, 
                            "type": "note", 
                            "channel": 0
                        }, 
                        {
                            "pitch": 66, 
                            "t0": 155500.0, 
                            "v": 45, 
                            "dur": 1600.0, 
                            "type": "note", 
                            "channel": 0
                        }
                    ]
                ], 
                [
                    157500.0, 
                    [
                        {
                            "pitch": 32, 
                            "t0": 157500.0, 
                            "v": 81, 
                            "dur": 800.0, 
                            "type": "note", 
                            "channel": 0
                        }, 
                        {
                            "pitch": 44, 
                            "t0": 157500.0, 
                            "v": 119, 
                            "dur": 800.0, 
                            "type": "note", 
                            "channel": 0
                        }, 
                        {
                            "pitch": 56, 
                            "t0": 157500.0, 
                            "v": 99, 
                            "dur": 800.0, 
                            "type": "note", 
                            "channel": 0
                        }, 
                        {
                            "pitch": 68, 
                            "t0": 157500.0, 
                            "v": 32, 
                            "dur": 800.0, 
                            "type": "note", 
                            "channel": 0
                        }
                    ]
                ], 
                [
                    158500.0, 
                    [
                        {
                            "pitch": 28, 
                            "t0": 158500.0, 
                            "v": 58, 
                            "dur": 800.0, 
                            "type": "note", 
                            "channel": 0
                        }, 
                        {
                            "pitch": 40, 
                            "t0": 158500.0, 
                            "v": 112, 
                            "dur": 800.0, 
                            "type": "note", 
                            "channel": 0
                        }, 
                        {
                            "pitch": 52, 
                            "t0": 158500.0, 
                            "v": 112, 
                            "dur": 800.0, 
                            "type": "note", 
                            "channel": 0
                        }, 
                        {
                            "pitch": 64, 
                            "t0": 158500.0, 
                            "v": 58, 
                            "dur": 800.0, 
                            "type": "note", 
                            "channel": 0
                        }
                    ]
                ], 
                [
                    159500.0, 
                    [
                        {
                            "pitch": 32, 
                            "t0": 159500.0, 
                            "v": 81, 
                            "dur": 800.0, 
                            "type": "note", 
                            "channel": 0
                        }, 
                        {
                            "pitch": 44, 
                            "t0": 159500.0, 
                            "v": 119, 
                            "dur": 800.0, 
                            "type": "note", 
                            "channel": 0
                        }, 
                        {
                            "pitch": 56, 
                            "t0": 159500.0, 
                            "v": 99, 
                            "dur": 800.0, 
                            "type": "note", 
                            "channel": 0
                        }, 
                        {
                            "pitch": 68, 
                            "t0": 159500.0, 
                            "v": 32, 
                            "dur": 800.0, 
                            "type": "note", 
                            "channel": 0
                        }
                    ]
                ], 
                [
                    160500.0, 
                    [
                        {
                            "pitch": 34, 
                            "t0": 160500.0, 
                            "v": 91, 
                            "dur": 800.0, 
                            "type": "note", 
                            "channel": 0
                        }, 
                        {
                            "pitch": 46, 
                            "t0": 160500.0, 
                            "v": 120, 
                            "dur": 800.0, 
                            "type": "note", 
                            "channel": 0
                        }, 
                        {
                            "pitch": 58, 
                            "t0": 160500.0, 
                            "v": 91, 
                            "dur": 800.0, 
                            "type": "note", 
                            "channel": 0
                        }, 
                        {
                            "pitch": 70, 
                            "t0": 160500.0, 
                            "v": 18, 
                            "dur": 800.0, 
                            "type": "note", 
                            "channel": 0
                        }
                    ]
                ], 
                [
                    161500.0, 
                    [
                        {
                            "pitch": 23, 
                            "t0": 161500.0, 
                            "v": 25, 
                            "dur": 400.0, 
                            "type": "note", 
                            "channel": 0
                        }, 
                        {
                            "pitch": 35, 
                            "t0": 161500.0, 
                            "v": 95, 
                            "dur": 400.0, 
                            "type": "note", 
                            "channel": 0
                        }, 
                        {
                            "pitch": 47, 
                            "t0": 161500.0, 
                            "v": 119, 
                            "dur": 400.0, 
                            "type": "note", 
                            "channel": 0
                        }, 
                        {
                            "pitch": 59, 
                            "t0": 161500.0, 
                            "v": 86, 
                            "dur": 400.0, 
                            "type": "note", 
                            "channel": 0
                        }, 
                        {
                            "pitch": 71, 
                            "t0": 161500.0, 
                            "v": 11, 
                            "dur": 400.0, 
                            "type": "note", 
                            "channel": 0
                        }
                    ]
                ], 
                [
                    162000.0, 
                    [
                        {
                            "pitch": 25, 
                            "t0": 162000.0, 
                            "v": 39, 
                            "dur": 400.0, 
                            "type": "note", 
                            "channel": 0
                        }, 
                        {
                            "pitch": 37, 
                            "t0": 162000.0, 
                            "v": 103, 
                            "dur": 400.0, 
                            "type": "note", 
                            "channel": 0
                        }, 
                        {
                            "pitch": 49, 
                            "t0": 162000.0, 
                            "v": 118, 
                            "dur": 400.0, 
                            "type": "note", 
                            "channel": 0
                        }, 
                        {
                            "pitch": 61, 
                            "t0": 162000.0, 
                            "v": 76, 
                            "dur": 400.0, 
                            "type": "note", 
                            "channel": 0
                        }
                    ]
                ], 
                [
                    162500.0, 
                    [
                        {
                            "pitch": 27, 
                            "t0": 162500.0, 
                            "v": 52, 
                            "dur": 400.0, 
                            "type": "note", 
                            "channel": 0
                        }, 
                        {
                            "pitch": 39, 
                            "t0": 162500.0, 
                            "v": 109, 
                            "dur": 400.0, 
                            "type": "note", 
                            "channel": 0
                        }, 
                        {
                            "pitch": 51, 
                            "t0": 162500.0, 
                            "v": 114, 
                            "dur": 400.0, 
                            "type": "note", 
                            "channel": 0
                        }, 
                        {
                            "pitch": 63, 
                            "t0": 162500.0, 
                            "v": 64, 
                            "dur": 400.0, 
                            "type": "note", 
                            "channel": 0
                        }
                    ]
                ], 
                [
                    163000.0, 
                    [
                        {
                            "pitch": 23, 
                            "t0": 163000.0, 
                            "v": 25, 
                            "dur": 800.0, 
                            "type": "note", 
                            "channel": 0
                        }, 
                        {
                            "pitch": 35, 
                            "t0": 163000.0, 
                            "v": 95, 
                            "dur": 800.0, 
                            "type": "note", 
                            "channel": 0
                        }, 
                        {
                            "pitch": 47, 
                            "t0": 163000.0, 
                            "v": 119, 
                            "dur": 800.0, 
                            "type": "note", 
                            "channel": 0
                        }, 
                        {
                            "pitch": 59, 
                            "t0": 163000.0, 
                            "v": 86, 
                            "dur": 800.0, 
                            "type": "note", 
                            "channel": 0
                        }, 
                        {
                            "pitch": 71, 
                            "t0": 163000.0, 
                            "v": 11, 
                            "dur": 800.0, 
                            "type": "note", 
                            "channel": 0
                        }
                    ]
                ], 
                [
                    164000.0, 
                    [
                        {
                            "pitch": 27, 
                            "t0": 164000.0, 
                            "v": 52, 
                            "dur": 400.0, 
                            "type": "note", 
                            "channel": 0
                        }, 
                        {
                            "pitch": 39, 
                            "t0": 164000.0, 
                            "v": 109, 
                            "dur": 400.0, 
                            "type": "note", 
                            "channel": 0
                        }, 
                        {
                            "pitch": 51, 
                            "t0": 164000.0, 
                            "v": 114, 
                            "dur": 400.0, 
                            "type": "note", 
                            "channel": 0
                        }, 
                        {
                            "pitch": 63, 
                            "t0": 164000.0, 
                            "v": 64, 
                            "dur": 400.0, 
                            "type": "note", 
                            "channel": 0
                        }
                    ]
                ], 
                [
                    164500.0, 
                    [
                        {
                            "pitch": 28, 
                            "t0": 164500.0, 
                            "v": 58, 
                            "dur": 400.0, 
                            "type": "note", 
                            "channel": 0
                        }, 
                        {
                            "pitch": 40, 
                            "t0": 164500.0, 
                            "v": 112, 
                            "dur": 400.0, 
                            "type": "note", 
                            "channel": 0
                        }, 
                        {
                            "pitch": 52, 
                            "t0": 164500.0, 
                            "v": 112, 
                            "dur": 400.0, 
                            "type": "note", 
                            "channel": 0
                        }, 
                        {
                            "pitch": 64, 
                            "t0": 164500.0, 
                            "v": 58, 
                            "dur": 400.0, 
                            "type": "note", 
                            "channel": 0
                        }
                    ]
                ], 
                [
                    165000.0, 
                    [
                        {
                            "pitch": 30, 
                            "t0": 165000.0, 
                            "v": 70, 
                            "dur": 1600.0, 
                            "type": "note", 
                            "channel": 0
                        }, 
                        {
                            "pitch": 42, 
                            "t0": 165000.0, 
                            "v": 116, 
                            "dur": 1600.0, 
                            "type": "note", 
                            "channel": 0
                        }, 
                        {
                            "pitch": 54, 
                            "t0": 165000.0, 
                            "v": 106, 
                            "dur": 1600.0, 
                            "type": "note", 
                            "channel": 0
                        }, 
                        {
                            "pitch": 66, 
                            "t0": 165000.0, 
                            "v": 45, 
                            "dur": 1600.0, 
                            "type": "note", 
                            "channel": 0
                        }
                    ]
                ], 
                [
                    167000.0, 
                    [
                        {
                            "pitch": 32, 
                            "t0": 167000.0, 
                            "v": 81, 
                            "dur": 800.0, 
                            "type": "note", 
                            "channel": 0
                        }, 
                        {
                            "pitch": 44, 
                            "t0": 167000.0, 
                            "v": 119, 
                            "dur": 800.0, 
                            "type": "note", 
                            "channel": 0
                        }, 
                        {
                            "pitch": 56, 
                            "t0": 167000.0, 
                            "v": 99, 
                            "dur": 800.0, 
                            "type": "note", 
                            "channel": 0
                        }, 
                        {
                            "pitch": 68, 
                            "t0": 167000.0, 
                            "v": 32, 
                            "dur": 800.0, 
                            "type": "note", 
                            "channel": 0
                        }
                    ]
                ], 
                [
                    168000.0, 
                    [
                        {
                            "pitch": 28, 
                            "t0": 168000.0, 
                            "v": 58, 
                            "dur": 800.0, 
                            "type": "note", 
                            "channel": 0
                        }, 
                        {
                            "pitch": 40, 
                            "t0": 168000.0, 
                            "v": 112, 
                            "dur": 800.0, 
                            "type": "note", 
                            "channel": 0
                        }, 
                        {
                            "pitch": 52, 
                            "t0": 168000.0, 
                            "v": 112, 
                            "dur": 800.0, 
                            "type": "note", 
                            "channel": 0
                        }, 
                        {
                            "pitch": 64, 
                            "t0": 168000.0, 
                            "v": 58, 
                            "dur": 800.0, 
                            "type": "note", 
                            "channel": 0
                        }
                    ]
                ], 
                [
                    169000.0, 
                    [
                        {
                            "pitch": 32, 
                            "t0": 169000.0, 
                            "v": 81, 
                            "dur": 800.0, 
                            "type": "note", 
                            "channel": 0
                        }, 
                        {
                            "pitch": 44, 
                            "t0": 169000.0, 
                            "v": 119, 
                            "dur": 800.0, 
                            "type": "note", 
                            "channel": 0
                        }, 
                        {
                            "pitch": 56, 
                            "t0": 169000.0, 
                            "v": 99, 
                            "dur": 800.0, 
                            "type": "note", 
                            "channel": 0
                        }, 
                        {
                            "pitch": 68, 
                            "t0": 169000.0, 
                            "v": 32, 
                            "dur": 800.0, 
                            "type": "note", 
                            "channel": 0
                        }
                    ]
                ], 
                [
                    170000.0, 
                    [
                        {
                            "pitch": 34, 
                            "t0": 170000.0, 
                            "v": 91, 
                            "dur": 800.0, 
                            "type": "note", 
                            "channel": 0
                        }, 
                        {
                            "pitch": 46, 
                            "t0": 170000.0, 
                            "v": 120, 
                            "dur": 800.0, 
                            "type": "note", 
                            "channel": 0
                        }, 
                        {
                            "pitch": 58, 
                            "t0": 170000.0, 
                            "v": 91, 
                            "dur": 800.0, 
                            "type": "note", 
                            "channel": 0
                        }, 
                        {
                            "pitch": 70, 
                            "t0": 170000.0, 
                            "v": 18, 
                            "dur": 800.0, 
                            "type": "note", 
                            "channel": 0
                        }
                    ]
                ], 
                [
                    171000.0, 
                    [
                        {
                            "pitch": 23, 
                            "t0": 171000.0, 
                            "v": 25, 
                            "dur": 400.0, 
                            "type": "note", 
                            "channel": 0
                        }, 
                        {
                            "pitch": 35, 
                            "t0": 171000.0, 
                            "v": 95, 
                            "dur": 400.0, 
                            "type": "note", 
                            "channel": 0
                        }, 
                        {
                            "pitch": 47, 
                            "t0": 171000.0, 
                            "v": 119, 
                            "dur": 400.0, 
                            "type": "note", 
                            "channel": 0
                        }, 
                        {
                            "pitch": 59, 
                            "t0": 171000.0, 
                            "v": 86, 
                            "dur": 400.0, 
                            "type": "note", 
                            "channel": 0
                        }, 
                        {
                            "pitch": 71, 
                            "t0": 171000.0, 
                            "v": 11, 
                            "dur": 400.0, 
                            "type": "note", 
                            "channel": 0
                        }
                    ]
                ], 
                [
                    171500.0, 
                    [
                        {
                            "pitch": 25, 
                            "t0": 171500.0, 
                            "v": 39, 
                            "dur": 400.0, 
                            "type": "note", 
                            "channel": 0
                        }, 
                        {
                            "pitch": 37, 
                            "t0": 171500.0, 
                            "v": 103, 
                            "dur": 400.0, 
                            "type": "note", 
                            "channel": 0
                        }, 
                        {
                            "pitch": 49, 
                            "t0": 171500.0, 
                            "v": 118, 
                            "dur": 400.0, 
                            "type": "note", 
                            "channel": 0
                        }, 
                        {
                            "pitch": 61, 
                            "t0": 171500.0, 
                            "v": 76, 
                            "dur": 400.0, 
                            "type": "note", 
                            "channel": 0
                        }
                    ]
                ]
            ], 
            "instruments": [], 
            "channels": [], 
            "numNotes": 837, 
            "type": "TrackObj"
        }
    ], 
    "type": "MidiObj", 
    "loop": false
}