{
    "format": 1, 
    "instruments": [], 
    "resolution": 1000, 
    "channels": [], 
    "tracks": [
        {
            "trackName": "Track1", 
            "seq": [
                [
                    0, 
                    [
                        {
                            "pitch": 23, 
                            "t0": 0, 
                            "v": 25, 
                            "dur": 400.0, 
                            "type": "note", 
                            "channel": 0
                        }, 
                        {
                            "pitch": 35, 
                            "t0": 0, 
                            "v": 95, 
                            "dur": 400.0, 
                            "type": "note", 
                            "channel": 0
                        }, 
                        {
                            "pitch": 47, 
                            "t0": 0, 
                            "v": 119, 
                            "dur": 400.0, 
                            "type": "note", 
                            "channel": 0
                        }, 
                        {
                            "pitch": 59, 
                            "t0": 0, 
                            "v": 86, 
                            "dur": 400.0, 
                            "type": "note", 
                            "channel": 0
                        }, 
                        {
                            "pitch": 71, 
                            "t0": 0, 
                            "v": 11, 
                            "dur": 400.0, 
                            "type": "note", 
                            "channel": 0
                        }
                    ]
                ], 
                [
                    500.0, 
                    [
                        {
                            "pitch": 24, 
                            "t0": 500.0, 
                            "v": 32, 
                            "dur": 400.0, 
                            "type": "note", 
                            "channel": 0
                        }, 
                        {
                            "pitch": 36, 
                            "t0": 500.0, 
                            "v": 99, 
                            "dur": 400.0, 
                            "type": "note", 
                            "channel": 0
                        }, 
                        {
                            "pitch": 48, 
                            "t0": 500.0, 
                            "v": 119, 
                            "dur": 400.0, 
                            "type": "note", 
                            "channel": 0
                        }, 
                        {
                            "pitch": 60, 
                            "t0": 500.0, 
                            "v": 81, 
                            "dur": 400.0, 
                            "type": "note", 
                            "channel": 0
                        }, 
                        {
                            "pitch": 72, 
                            "t0": 500.0, 
                            "v": 4, 
                            "dur": 400.0, 
                            "type": "note", 
                            "channel": 0
                        }
                    ]
                ], 
                [
                    1000.0, 
                    [
                        {
                            "pitch": 25, 
                            "t0": 1000.0, 
                            "v": 39, 
                            "dur": 400.0, 
                            "type": "note", 
                            "channel": 0
                        }, 
                        {
                            "pitch": 37, 
                            "t0": 1000.0, 
                            "v": 103, 
                            "dur": 400.0, 
                            "type": "note", 
                            "channel": 0
                        }, 
                        {
                            "pitch": 49, 
                            "t0": 1000.0, 
                            "v": 118, 
                            "dur": 400.0, 
                            "type": "note", 
                            "channel": 0
                        }, 
                        {
                            "pitch": 61, 
                            "t0": 1000.0, 
                            "v": 76, 
                            "dur": 400.0, 
                            "type": "note", 
                            "channel": 0
                        }
                    ]
                ], 
                [
                    1500.0, 
                    [
                        {
                            "pitch": 26, 
                            "t0": 1500.0, 
                            "v": 45, 
                            "dur": 1600.0, 
                            "type": "note", 
                            "channel": 0
                        }, 
                        {
                            "pitch": 38, 
                            "t0": 1500.0, 
                            "v": 106, 
                            "dur": 1600.0, 
                            "type": "note", 
                            "channel": 0
                        }, 
                        {
                            "pitch": 50, 
                            "t0": 1500.0, 
                            "v": 116, 
                            "dur": 1600.0, 
                            "type": "note", 
                            "channel": 0
                        }, 
                        {
                            "pitch": 62, 
                            "t0": 1500.0, 
                            "v": 70, 
                            "dur": 1600.0, 
                            "type": "note", 
                            "channel": 0
                        }
                    ]
                ], 
                [
                    3500.0, 
                    [
                        {
                            "pitch": 24, 
                            "t0": 3500.0, 
                            "v": 32, 
                            "dur": 400.0, 
                            "type": "note", 
                            "channel": 0
                        }, 
                        {
                            "pitch": 36, 
                            "t0": 3500.0, 
                            "v": 99, 
                            "dur": 400.0, 
                            "type": "note", 
                            "channel": 0
                        }, 
                        {
                            "pitch": 48, 
                            "t0": 3500.0, 
                            "v": 119, 
                            "dur": 400.0, 
                            "type": "note", 
                            "channel": 0
                        }, 
                        {
                            "pitch": 60, 
                            "t0": 3500.0, 
                            "v": 81, 
                            "dur": 400.0, 
                            "type": "note", 
                            "channel": 0
                        }, 
                        {
                            "pitch": 72, 
                            "t0": 3500.0, 
                            "v": 4, 
                            "dur": 400.0, 
                            "type": "note", 
                            "channel": 0
                        }
                    ]
                ], 
                [
                    4000.0, 
                    [
                        {
                            "pitch": 25, 
                            "t0": 4000.0, 
                            "v": 39, 
                            "dur": 400.0, 
                            "type": "note", 
                            "channel": 0
                        }, 
                        {
                            "pitch": 37, 
                            "t0": 4000.0, 
                            "v": 103, 
                            "dur": 400.0, 
                            "type": "note", 
                            "channel": 0
                        }, 
                        {
                            "pitch": 49, 
                            "t0": 4000.0, 
                            "v": 118, 
                            "dur": 400.0, 
                            "type": "note", 
                            "channel": 0
                        }, 
                        {
                            "pitch": 61, 
                            "t0": 4000.0, 
                            "v": 76, 
                            "dur": 400.0, 
                            "type": "note", 
                            "channel": 0
                        }
                    ]
                ], 
                [
                    4500.0, 
                    [
                        {
                            "pitch": 26, 
                            "t0": 4500.0, 
                            "v": 45, 
                            "dur": 400.0, 
                            "type": "note", 
                            "channel": 0
                        }, 
                        {
                            "pitch": 38, 
                            "t0": 4500.0, 
                            "v": 106, 
                            "dur": 400.0, 
                            "type": "note", 
                            "channel": 0
                        }, 
                        {
                            "pitch": 50, 
                            "t0": 4500.0, 
                            "v": 116, 
                            "dur": 400.0, 
                            "type": "note", 
                            "channel": 0
                        }, 
                        {
                            "pitch": 62, 
                            "t0": 4500.0, 
                            "v": 70, 
                            "dur": 400.0, 
                            "type": "note", 
                            "channel": 0
                        }
                    ]
                ], 
                [
                    5000.0, 
                    [
                        {
                            "pitch": 27, 
                            "t0": 5000.0, 
                            "v": 52, 
                            "dur": 1600.0, 
                            "type": "note", 
                            "channel": 0
                        }, 
                        {
                            "pitch": 39, 
                            "t0": 5000.0, 
                            "v": 109, 
                            "dur": 1600.0, 
                            "type": "note", 
                            "channel": 0
                        }, 
                        {
                            "pitch": 51, 
                            "t0": 5000.0, 
                            "v": 114, 
                            "dur": 1600.0, 
                            "type": "note", 
                            "channel": 0
                        }, 
                        {
                            "pitch": 63, 
                            "t0": 5000.0, 
                            "v": 64, 
                            "dur": 1600.0, 
                            "type": "note", 
                            "channel": 0
                        }
                    ]
                ], 
                [
                    7000.0, 
                    [
                        {
                            "pitch": 25, 
                            "t0": 7000.0, 
                            "v": 39, 
                            "dur": 400.0, 
                            "type": "note", 
                            "channel": 0
                        }, 
                        {
                            "pitch": 37, 
                            "t0": 7000.0, 
                            "v": 103, 
                            "dur": 400.0, 
                            "type": "note", 
                            "channel": 0
                        }, 
                        {
                            "pitch": 49, 
                            "t0": 7000.0, 
                            "v": 118, 
                            "dur": 400.0, 
                            "type": "note", 
                            "channel": 0
                        }, 
                        {
                            "pitch": 61, 
                            "t0": 7000.0, 
                            "v": 76, 
                            "dur": 400.0, 
                            "type": "note", 
                            "channel": 0
                        }
                    ]
                ], 
                [
                    7500.0, 
                    [
                        {
                            "pitch": 26, 
                            "t0": 7500.0, 
                            "v": 45, 
                            "dur": 400.0, 
                            "type": "note", 
                            "channel": 0
                        }, 
                        {
                            "pitch": 38, 
                            "t0": 7500.0, 
                            "v": 106, 
                            "dur": 400.0, 
                            "type": "note", 
                            "channel": 0
                        }, 
                        {
                            "pitch": 50, 
                            "t0": 7500.0, 
                            "v": 116, 
                            "dur": 400.0, 
                            "type": "note", 
                            "channel": 0
                        }, 
                        {
                            "pitch": 62, 
                            "t0": 7500.0, 
                            "v": 70, 
                            "dur": 400.0, 
                            "type": "note", 
                            "channel": 0
                        }
                    ]
                ], 
                [
                    8000.0, 
                    [
                        {
                            "pitch": 27, 
                            "t0": 8000.0, 
                            "v": 52, 
                            "dur": 400.0, 
                            "type": "note", 
                            "channel": 0
                        }, 
                        {
                            "pitch": 39, 
                            "t0": 8000.0, 
                            "v": 109, 
                            "dur": 400.0, 
                            "type": "note", 
                            "channel": 0
                        }, 
                        {
                            "pitch": 51, 
                            "t0": 8000.0, 
                            "v": 114, 
                            "dur": 400.0, 
                            "type": "note", 
                            "channel": 0
                        }, 
                        {
                            "pitch": 63, 
                            "t0": 8000.0, 
                            "v": 64, 
                            "dur": 400.0, 
                            "type": "note", 
                            "channel": 0
                        }
                    ]
                ], 
                [
                    8500.0, 
                    [
                        {
                            "pitch": 28, 
                            "t0": 8500.0, 
                            "v": 58, 
                            "dur": 1600.0, 
                            "type": "note", 
                            "channel": 0
                        }, 
                        {
                            "pitch": 40, 
                            "t0": 8500.0, 
                            "v": 112, 
                            "dur": 1600.0, 
                            "type": "note", 
                            "channel": 0
                        }, 
                        {
                            "pitch": 52, 
                            "t0": 8500.0, 
                            "v": 112, 
                            "dur": 1600.0, 
                            "type": "note", 
                            "channel": 0
                        }, 
                        {
                            "pitch": 64, 
                            "t0": 8500.0, 
                            "v": 58, 
                            "dur": 1600.0, 
                            "type": "note", 
                            "channel": 0
                        }
                    ]
                ], 
                [
                    10500.0, 
                    [
                        {
                            "pitch": 26, 
                            "t0": 10500.0, 
                            "v": 45, 
                            "dur": 400.0, 
                            "type": "note", 
                            "channel": 0
                        }, 
                        {
                            "pitch": 38, 
                            "t0": 10500.0, 
                            "v": 106, 
                            "dur": 400.0, 
                            "type": "note", 
                            "channel": 0
                        }, 
                        {
                            "pitch": 50, 
                            "t0": 10500.0, 
                            "v": 116, 
                            "dur": 400.0, 
                            "type": "note", 
                            "channel": 0
                        }, 
                        {
                            "pitch": 62, 
                            "t0": 10500.0, 
                            "v": 70, 
                            "dur": 400.0, 
                            "type": "note", 
                            "channel": 0
                        }
                    ]
                ], 
                [
                    11000.0, 
                    [
                        {
                            "pitch": 27, 
                            "t0": 11000.0, 
                            "v": 52, 
                            "dur": 400.0, 
                            "type": "note", 
                            "channel": 0
                        }, 
                        {
                            "pitch": 39, 
                            "t0": 11000.0, 
                            "v": 109, 
                            "dur": 400.0, 
                            "type": "note", 
                            "channel": 0
                        }, 
                        {
                            "pitch": 51, 
                            "t0": 11000.0, 
                            "v": 114, 
                            "dur": 400.0, 
                            "type": "note", 
                            "channel": 0
                        }, 
                        {
                            "pitch": 63, 
                            "t0": 11000.0, 
                            "v": 64, 
                            "dur": 400.0, 
                            "type": "note", 
                            "channel": 0
                        }
                    ]
                ], 
                [
                    11500.0, 
                    [
                        {
                            "pitch": 28, 
                            "t0": 11500.0, 
                            "v": 58, 
                            "dur": 400.0, 
                            "type": "note", 
                            "channel": 0
                        }, 
                        {
                            "pitch": 40, 
                            "t0": 11500.0, 
                            "v": 112, 
                            "dur": 400.0, 
                            "type": "note", 
                            "channel": 0
                        }, 
                        {
                            "pitch": 52, 
                            "t0": 11500.0, 
                            "v": 112, 
                            "dur": 400.0, 
                            "type": "note", 
                            "channel": 0
                        }, 
                        {
                            "pitch": 64, 
                            "t0": 11500.0, 
                            "v": 58, 
                            "dur": 400.0, 
                            "type": "note", 
                            "channel": 0
                        }
                    ]
                ], 
                [
                    12000.0, 
                    [
                        {
                            "pitch": 29, 
                            "t0": 12000.0, 
                            "v": 64, 
                            "dur": 1600.0, 
                            "type": "note", 
                            "channel": 0
                        }, 
                        {
                            "pitch": 41, 
                            "t0": 12000.0, 
                            "v": 114, 
                            "dur": 1600.0, 
                            "type": "note", 
                            "channel": 0
                        }, 
                        {
                            "pitch": 53, 
                            "t0": 12000.0, 
                            "v": 109, 
                            "dur": 1600.0, 
                            "type": "note", 
                            "channel": 0
                        }, 
                        {
                            "pitch": 65, 
                            "t0": 12000.0, 
                            "v": 52, 
                            "dur": 1600.0, 
                            "type": "note", 
                            "channel": 0
                        }
                    ]
                ], 
                [
                    14000.0, 
                    [
                        {
                            "pitch": 27, 
                            "t0": 14000.0, 
                            "v": 52, 
                            "dur": 400.0, 
                            "type": "note", 
                            "channel": 0
                        }, 
                        {
                            "pitch": 39, 
                            "t0": 14000.0, 
                            "v": 109, 
                            "dur": 400.0, 
                            "type": "note", 
                            "channel": 0
                        }, 
                        {
                            "pitch": 51, 
                            "t0": 14000.0, 
                            "v": 114, 
                            "dur": 400.0, 
                            "type": "note", 
                            "channel": 0
                        }, 
                        {
                            "pitch": 63, 
                            "t0": 14000.0, 
                            "v": 64, 
                            "dur": 400.0, 
                            "type": "note", 
                            "channel": 0
                        }
                    ]
                ], 
                [
                    14500.0, 
                    [
                        {
                            "pitch": 28, 
                            "t0": 14500.0, 
                            "v": 58, 
                            "dur": 400.0, 
                            "type": "note", 
                            "channel": 0
                        }, 
                        {
                            "pitch": 40, 
                            "t0": 14500.0, 
                            "v": 112, 
                            "dur": 400.0, 
                            "type": "note", 
                            "channel": 0
                        }, 
                        {
                            "pitch": 52, 
                            "t0": 14500.0, 
                            "v": 112, 
                            "dur": 400.0, 
                            "type": "note", 
                            "channel": 0
                        }, 
                        {
                            "pitch": 64, 
                            "t0": 14500.0, 
                            "v": 58, 
                            "dur": 400.0, 
                            "type": "note", 
                            "channel": 0
                        }
                    ]
                ], 
                [
                    15000.0, 
                    [
                        {
                            "pitch": 29, 
                            "t0": 15000.0, 
                            "v": 64, 
                            "dur": 400.0, 
                            "type": "note", 
                            "channel": 0
                        }, 
                        {
                            "pitch": 41, 
                            "t0": 15000.0, 
                            "v": 114, 
                            "dur": 400.0, 
                            "type": "note", 
                            "channel": 0
                        }, 
                        {
                            "pitch": 53, 
                            "t0": 15000.0, 
                            "v": 109, 
                            "dur": 400.0, 
                            "type": "note", 
                            "channel": 0
                        }, 
                        {
                            "pitch": 65, 
                            "t0": 15000.0, 
                            "v": 52, 
                            "dur": 400.0, 
                            "type": "note", 
                            "channel": 0
                        }
                    ]
                ], 
                [
                    15500.0, 
                    [
                        {
                            "pitch": 30, 
                            "t0": 15500.0, 
                            "v": 70, 
                            "dur": 1600.0, 
                            "type": "note", 
                            "channel": 0
                        }, 
                        {
                            "pitch": 42, 
                            "t0": 15500.0, 
                            "v": 116, 
                            "dur": 1600.0, 
                            "type": "note", 
                            "channel": 0
                        }, 
                        {
                            "pitch": 54, 
                            "t0": 15500.0, 
                            "v": 106, 
                            "dur": 1600.0, 
                            "type": "note", 
                            "channel": 0
                        }, 
                        {
                            "pitch": 66, 
                            "t0": 15500.0, 
                            "v": 45, 
                            "dur": 1600.0, 
                            "type": "note", 
                            "channel": 0
                        }
                    ]
                ], 
                [
                    17500.0, 
                    [
                        {
                            "pitch": 28, 
                            "t0": 17500.0, 
                            "v": 58, 
                            "dur": 400.0, 
                            "type": "note", 
                            "channel": 0
                        }, 
                        {
                            "pitch": 40, 
                            "t0": 17500.0, 
                            "v": 112, 
                            "dur": 400.0, 
                            "type": "note", 
                            "channel": 0
                        }, 
                        {
                            "pitch": 52, 
                            "t0": 17500.0, 
                            "v": 112, 
                            "dur": 400.0, 
                            "type": "note", 
                            "channel": 0
                        }, 
                        {
                            "pitch": 64, 
                            "t0": 17500.0, 
                            "v": 58, 
                            "dur": 400.0, 
                            "type": "note", 
                            "channel": 0
                        }
                    ]
                ], 
                [
                    18000.0, 
                    [
                        {
                            "pitch": 29, 
                            "t0": 18000.0, 
                            "v": 64, 
                            "dur": 400.0, 
                            "type": "note", 
                            "channel": 0
                        }, 
                        {
                            "pitch": 41, 
                            "t0": 18000.0, 
                            "v": 114, 
                            "dur": 400.0, 
                            "type": "note", 
                            "channel": 0
                        }, 
                        {
                            "pitch": 53, 
                            "t0": 18000.0, 
                            "v": 109, 
                            "dur": 400.0, 
                            "type": "note", 
                            "channel": 0
                        }, 
                        {
                            "pitch": 65, 
                            "t0": 18000.0, 
                            "v": 52, 
                            "dur": 400.0, 
                            "type": "note", 
                            "channel": 0
                        }
                    ]
                ], 
                [
                    18500.0, 
                    [
                        {
                            "pitch": 30, 
                            "t0": 18500.0, 
                            "v": 70, 
                            "dur": 400.0, 
                            "type": "note", 
                            "channel": 0
                        }, 
                        {
                            "pitch": 42, 
                            "t0": 18500.0, 
                            "v": 116, 
                            "dur": 400.0, 
                            "type": "note", 
                            "channel": 0
                        }, 
                        {
                            "pitch": 54, 
                            "t0": 18500.0, 
                            "v": 106, 
                            "dur": 400.0, 
                            "type": "note", 
                            "channel": 0
                        }, 
                        {
                            "pitch": 66, 
                            "t0": 18500.0, 
                            "v": 45, 
                            "dur": 400.0, 
                            "type": "note", 
                            "channel": 0
                        }
                    ]
                ], 
                [
                    19000.0, 
                    [
                        {
                            "pitch": 31, 
                            "t0": 19000.0, 
                            "v": 76, 
                            "dur": 1600.0, 
                            "type": "note", 
                            "channel": 0
                        }, 
                        {
                            "pitch": 43, 
                            "t0": 19000.0, 
                            "v": 118, 
                            "dur": 1600.0, 
                            "type": "note", 
                            "channel": 0
                        }, 
                        {
                            "pitch": 55, 
                            "t0": 19000.0, 
                            "v": 103, 
                            "dur": 1600.0, 
                            "type": "note", 
                            "channel": 0
                        }, 
                        {
                            "pitch": 67, 
                            "t0": 19000.0, 
                            "v": 39, 
                            "dur": 1600.0, 
                            "type": "note", 
                            "channel": 0
                        }
                    ]
                ], 
                [
                    21000.0, 
                    [
                        {
                            "pitch": 29, 
                            "t0": 21000.0, 
                            "v": 64, 
                            "dur": 400.0, 
                            "type": "note", 
                            "channel": 0
                        }, 
                        {
                            "pitch": 41, 
                            "t0": 21000.0, 
                            "v": 114, 
                            "dur": 400.0, 
                            "type": "note", 
                            "channel": 0
                        }, 
                        {
                            "pitch": 53, 
                            "t0": 21000.0, 
                            "v": 109, 
                            "dur": 400.0, 
                            "type": "note", 
                            "channel": 0
                        }, 
                        {
                            "pitch": 65, 
                            "t0": 21000.0, 
                            "v": 52, 
                            "dur": 400.0, 
                            "type": "note", 
                            "channel": 0
                        }
                    ]
                ], 
                [
                    21500.0, 
                    [
                        {
                            "pitch": 30, 
                            "t0": 21500.0, 
                            "v": 70, 
                            "dur": 400.0, 
                            "type": "note", 
                            "channel": 0
                        }, 
                        {
                            "pitch": 42, 
                            "t0": 21500.0, 
                            "v": 116, 
                            "dur": 400.0, 
                            "type": "note", 
                            "channel": 0
                        }, 
                        {
                            "pitch": 54, 
                            "t0": 21500.0, 
                            "v": 106, 
                            "dur": 400.0, 
                            "type": "note", 
                            "channel": 0
                        }, 
                        {
                            "pitch": 66, 
                            "t0": 21500.0, 
                            "v": 45, 
                            "dur": 400.0, 
                            "type": "note", 
                            "channel": 0
                        }
                    ]
                ], 
                [
                    22000.0, 
                    [
                        {
                            "pitch": 31, 
                            "t0": 22000.0, 
                            "v": 76, 
                            "dur": 400.0, 
                            "type": "note", 
                            "channel": 0
                        }, 
                        {
                            "pitch": 43, 
                            "t0": 22000.0, 
                            "v": 118, 
                            "dur": 400.0, 
                            "type": "note", 
                            "channel": 0
                        }, 
                        {
                            "pitch": 55, 
                            "t0": 22000.0, 
                            "v": 103, 
                            "dur": 400.0, 
                            "type": "note", 
                            "channel": 0
                        }, 
                        {
                            "pitch": 67, 
                            "t0": 22000.0, 
                            "v": 39, 
                            "dur": 400.0, 
                            "type": "note", 
                            "channel": 0
                        }
                    ]
                ], 
                [
                    22500.0, 
                    [
                        {
                            "pitch": 32, 
                            "t0": 22500.0, 
                            "v": 81, 
                            "dur": 1600.0, 
                            "type": "note", 
                            "channel": 0
                        }, 
                        {
                            "pitch": 44, 
                            "t0": 22500.0, 
                            "v": 119, 
                            "dur": 1600.0, 
                            "type": "note", 
                            "channel": 0
                        }, 
                        {
                            "pitch": 56, 
                            "t0": 22500.0, 
                            "v": 99, 
                            "dur": 1600.0, 
                            "type": "note", 
                            "channel": 0
                        }, 
                        {
                            "pitch": 68, 
                            "t0": 22500.0, 
                            "v": 32, 
                            "dur": 1600.0, 
                            "type": "note", 
                            "channel": 0
                        }
                    ]
                ], 
                [
                    24500.0, 
                    [
                        {
                            "pitch": 30, 
                            "t0": 24500.0, 
                            "v": 70, 
                            "dur": 400.0, 
                            "type": "note", 
                            "channel": 0
                        }, 
                        {
                            "pitch": 42, 
                            "t0": 24500.0, 
                            "v": 116, 
                            "dur": 400.0, 
                            "type": "note", 
                            "channel": 0
                        }, 
                        {
                            "pitch": 54, 
                            "t0": 24500.0, 
                            "v": 106, 
                            "dur": 400.0, 
                            "type": "note", 
                            "channel": 0
                        }, 
                        {
                            "pitch": 66, 
                            "t0": 24500.0, 
                            "v": 45, 
                            "dur": 400.0, 
                            "type": "note", 
                            "channel": 0
                        }
                    ]
                ], 
                [
                    25000.0, 
                    [
                        {
                            "pitch": 31, 
                            "t0": 25000.0, 
                            "v": 76, 
                            "dur": 400.0, 
                            "type": "note", 
                            "channel": 0
                        }, 
                        {
                            "pitch": 43, 
                            "t0": 25000.0, 
                            "v": 118, 
                            "dur": 400.0, 
                            "type": "note", 
                            "channel": 0
                        }, 
                        {
                            "pitch": 55, 
                            "t0": 25000.0, 
                            "v": 103, 
                            "dur": 400.0, 
                            "type": "note", 
                            "channel": 0
                        }, 
                        {
                            "pitch": 67, 
                            "t0": 25000.0, 
                            "v": 39, 
                            "dur": 400.0, 
                            "type": "note", 
                            "channel": 0
                        }
                    ]
                ], 
                [
                    25500.0, 
                    [
                        {
                            "pitch": 32, 
                            "t0": 25500.0, 
                            "v": 81, 
                            "dur": 400.0, 
                            "type": "note", 
                            "channel": 0
                        }, 
                        {
                            "pitch": 44, 
                            "t0": 25500.0, 
                            "v": 119, 
                            "dur": 400.0, 
                            "type": "note", 
                            "channel": 0
                        }, 
                        {
                            "pitch": 56, 
                            "t0": 25500.0, 
                            "v": 99, 
                            "dur": 400.0, 
                            "type": "note", 
                            "channel": 0
                        }, 
                        {
                            "pitch": 68, 
                            "t0": 25500.0, 
                            "v": 32, 
                            "dur": 400.0, 
                            "type": "note", 
                            "channel": 0
                        }
                    ]
                ], 
                [
                    26000.0, 
                    [
                        {
                            "pitch": 33, 
                            "t0": 26000.0, 
                            "v": 86, 
                            "dur": 1600.0, 
                            "type": "note", 
                            "channel": 0
                        }, 
                        {
                            "pitch": 45, 
                            "t0": 26000.0, 
                            "v": 119, 
                            "dur": 1600.0, 
                            "type": "note", 
                            "channel": 0
                        }, 
                        {
                            "pitch": 57, 
                            "t0": 26000.0, 
                            "v": 95, 
                            "dur": 1600.0, 
                            "type": "note", 
                            "channel": 0
                        }, 
                        {
                            "pitch": 69, 
                            "t0": 26000.0, 
                            "v": 25, 
                            "dur": 1600.0, 
                            "type": "note", 
                            "channel": 0
                        }
                    ]
                ], 
                [
                    28000.0, 
                    [
                        {
                            "pitch": 31, 
                            "t0": 28000.0, 
                            "v": 76, 
                            "dur": 400.0, 
                            "type": "note", 
                            "channel": 0
                        }, 
                        {
                            "pitch": 43, 
                            "t0": 28000.0, 
                            "v": 118, 
                            "dur": 400.0, 
                            "type": "note", 
                            "channel": 0
                        }, 
                        {
                            "pitch": 55, 
                            "t0": 28000.0, 
                            "v": 103, 
                            "dur": 400.0, 
                            "type": "note", 
                            "channel": 0
                        }, 
                        {
                            "pitch": 67, 
                            "t0": 28000.0, 
                            "v": 39, 
                            "dur": 400.0, 
                            "type": "note", 
                            "channel": 0
                        }
                    ]
                ], 
                [
                    28500.0, 
                    [
                        {
                            "pitch": 32, 
                            "t0": 28500.0, 
                            "v": 81, 
                            "dur": 400.0, 
                            "type": "note", 
                            "channel": 0
                        }, 
                        {
                            "pitch": 44, 
                            "t0": 28500.0, 
                            "v": 119, 
                            "dur": 400.0, 
                            "type": "note", 
                            "channel": 0
                        }, 
                        {
                            "pitch": 56, 
                            "t0": 28500.0, 
                            "v": 99, 
                            "dur": 400.0, 
                            "type": "note", 
                            "channel": 0
                        }, 
                        {
                            "pitch": 68, 
                            "t0": 28500.0, 
                            "v": 32, 
                            "dur": 400.0, 
                            "type": "note", 
                            "channel": 0
                        }
                    ]
                ], 
                [
                    29000.0, 
                    [
                        {
                            "pitch": 33, 
                            "t0": 29000.0, 
                            "v": 86, 
                            "dur": 400.0, 
                            "type": "note", 
                            "channel": 0
                        }, 
                        {
                            "pitch": 45, 
                            "t0": 29000.0, 
                            "v": 119, 
                            "dur": 400.0, 
                            "type": "note", 
                            "channel": 0
                        }, 
                        {
                            "pitch": 57, 
                            "t0": 29000.0, 
                            "v": 95, 
                            "dur": 400.0, 
                            "type": "note", 
                            "channel": 0
                        }, 
                        {
                            "pitch": 69, 
                            "t0": 29000.0, 
                            "v": 25, 
                            "dur": 400.0, 
                            "type": "note", 
                            "channel": 0
                        }
                    ]
                ], 
                [
                    29500.0, 
                    [
                        {
                            "pitch": 34, 
                            "t0": 29500.0, 
                            "v": 91, 
                            "dur": 1600.0, 
                            "type": "note", 
                            "channel": 0
                        }, 
                        {
                            "pitch": 46, 
                            "t0": 29500.0, 
                            "v": 120, 
                            "dur": 1600.0, 
                            "type": "note", 
                            "channel": 0
                        }, 
                        {
                            "pitch": 58, 
                            "t0": 29500.0, 
                            "v": 91, 
                            "dur": 1600.0, 
                            "type": "note", 
                            "channel": 0
                        }, 
                        {
                            "pitch": 70, 
                            "t0": 29500.0, 
                            "v": 18, 
                            "dur": 1600.0, 
                            "type": "note", 
                            "channel": 0
                        }
                    ]
                ], 
                [
                    31500.0, 
                    [
                        {
                            "pitch": 32, 
                            "t0": 31500.0, 
                            "v": 81, 
                            "dur": 400.0, 
                            "type": "note", 
                            "channel": 0
                        }, 
                        {
                            "pitch": 44, 
                            "t0": 31500.0, 
                            "v": 119, 
                            "dur": 400.0, 
                            "type": "note", 
                            "channel": 0
                        }, 
                        {
                            "pitch": 56, 
                            "t0": 31500.0, 
                            "v": 99, 
                            "dur": 400.0, 
                            "type": "note", 
                            "channel": 0
                        }, 
                        {
                            "pitch": 68, 
                            "t0": 31500.0, 
                            "v": 32, 
                            "dur": 400.0, 
                            "type": "note", 
                            "channel": 0
                        }
                    ]
                ], 
                [
                    32000.0, 
                    [
                        {
                            "pitch": 33, 
                            "t0": 32000.0, 
                            "v": 86, 
                            "dur": 400.0, 
                            "type": "note", 
                            "channel": 0
                        }, 
                        {
                            "pitch": 45, 
                            "t0": 32000.0, 
                            "v": 119, 
                            "dur": 400.0, 
                            "type": "note", 
                            "channel": 0
                        }, 
                        {
                            "pitch": 57, 
                            "t0": 32000.0, 
                            "v": 95, 
                            "dur": 400.0, 
                            "type": "note", 
                            "channel": 0
                        }, 
                        {
                            "pitch": 69, 
                            "t0": 32000.0, 
                            "v": 25, 
                            "dur": 400.0, 
                            "type": "note", 
                            "channel": 0
                        }
                    ]
                ], 
                [
                    32500.0, 
                    [
                        {
                            "pitch": 34, 
                            "t0": 32500.0, 
                            "v": 91, 
                            "dur": 400.0, 
                            "type": "note", 
                            "channel": 0
                        }, 
                        {
                            "pitch": 46, 
                            "t0": 32500.0, 
                            "v": 120, 
                            "dur": 400.0, 
                            "type": "note", 
                            "channel": 0
                        }, 
                        {
                            "pitch": 58, 
                            "t0": 32500.0, 
                            "v": 91, 
                            "dur": 400.0, 
                            "type": "note", 
                            "channel": 0
                        }, 
                        {
                            "pitch": 70, 
                            "t0": 32500.0, 
                            "v": 18, 
                            "dur": 400.0, 
                            "type": "note", 
                            "channel": 0
                        }
                    ]
                ], 
                [
                    33000.0, 
                    [
                        {
                            "pitch": 23, 
                            "t0": 33000.0, 
                            "v": 25, 
                            "dur": 1600.0, 
                            "type": "note", 
                            "channel": 0
                        }, 
                        {
                            "pitch": 35, 
                            "t0": 33000.0, 
                            "v": 95, 
                            "dur": 1600.0, 
                            "type": "note", 
                            "channel": 0
                        }, 
                        {
                            "pitch": 47, 
                            "t0": 33000.0, 
                            "v": 119, 
                            "dur": 1600.0, 
                            "type": "note", 
                            "channel": 0
                        }, 
                        {
                            "pitch": 59, 
                            "t0": 33000.0, 
                            "v": 86, 
                            "dur": 1600.0, 
                            "type": "note", 
                            "channel": 0
                        }, 
                        {
                            "pitch": 71, 
                            "t0": 33000.0, 
                            "v": 11, 
                            "dur": 1600.0, 
                            "type": "note", 
                            "channel": 0
                        }
                    ]
                ], 
                [
                    35000.0, 
                    [
                        {
                            "pitch": 33, 
                            "t0": 35000.0, 
                            "v": 86, 
                            "dur": 400.0, 
                            "type": "note", 
                            "channel": 0
                        }, 
                        {
                            "pitch": 45, 
                            "t0": 35000.0, 
                            "v": 119, 
                            "dur": 400.0, 
                            "type": "note", 
                            "channel": 0
                        }, 
                        {
                            "pitch": 57, 
                            "t0": 35000.0, 
                            "v": 95, 
                            "dur": 400.0, 
                            "type": "note", 
                            "channel": 0
                        }, 
                        {
                            "pitch": 69, 
                            "t0": 35000.0, 
                            "v": 25, 
                            "dur": 400.0, 
                            "type": "note", 
                            "channel": 0
                        }
                    ]
                ], 
                [
                    35500.0, 
                    [
                        {
                            "pitch": 34, 
                            "t0": 35500.0, 
                            "v": 91, 
                            "dur": 400.0, 
                            "type": "note", 
                            "channel": 0
                        }, 
                        {
                            "pitch": 46, 
                            "t0": 35500.0, 
                            "v": 120, 
                            "dur": 400.0, 
                            "type": "note", 
                            "channel": 0
                        }, 
                        {
                            "pitch": 58, 
                            "t0": 35500.0, 
                            "v": 91, 
                            "dur": 400.0, 
                            "type": "note", 
                            "channel": 0
                        }, 
                        {
                            "pitch": 70, 
                            "t0": 35500.0, 
                            "v": 18, 
                            "dur": 400.0, 
                            "type": "note", 
                            "channel": 0
                        }
                    ]
                ], 
                [
                    36000.0, 
                    [
                        {
                            "pitch": 23, 
                            "t0": 36000.0, 
                            "v": 25, 
                            "dur": 400.0, 
                            "type": "note", 
                            "channel": 0
                        }, 
                        {
                            "pitch": 35, 
                            "t0": 36000.0, 
                            "v": 95, 
                            "dur": 400.0, 
                            "type": "note", 
                            "channel": 0
                        }, 
                        {
                            "pitch": 47, 
                            "t0": 36000.0, 
                            "v": 119, 
                            "dur": 400.0, 
                            "type": "note", 
                            "channel": 0
                        }, 
                        {
                            "pitch": 59, 
                            "t0": 36000.0, 
                            "v": 86, 
                            "dur": 400.0, 
                            "type": "note", 
                            "channel": 0
                        }, 
                        {
                            "pitch": 71, 
                            "t0": 36000.0, 
                            "v": 11, 
                            "dur": 400.0, 
                            "type": "note", 
                            "channel": 0
                        }
                    ]
                ], 
                [
                    36500.0, 
                    [
                        {
                            "pitch": 24, 
                            "t0": 36500.0, 
                            "v": 32, 
                            "dur": 1600.0, 
                            "type": "note", 
                            "channel": 0
                        }, 
                        {
                            "pitch": 36, 
                            "t0": 36500.0, 
                            "v": 99, 
                            "dur": 1600.0, 
                            "type": "note", 
                            "channel": 0
                        }, 
                        {
                            "pitch": 48, 
                            "t0": 36500.0, 
                            "v": 119, 
                            "dur": 1600.0, 
                            "type": "note", 
                            "channel": 0
                        }, 
                        {
                            "pitch": 60, 
                            "t0": 36500.0, 
                            "v": 81, 
                            "dur": 1600.0, 
                            "type": "note", 
                            "channel": 0
                        }, 
                        {
                            "pitch": 72, 
                            "t0": 36500.0, 
                            "v": 4, 
                            "dur": 1600.0, 
                            "type": "note", 
                            "channel": 0
                        }
                    ]
                ], 
                [
                    38500.0, 
                    [
                        {
                            "pitch": 34, 
                            "t0": 38500.0, 
                            "v": 91, 
                            "dur": 400.0, 
                            "type": "note", 
                            "channel": 0
                        }, 
                        {
                            "pitch": 46, 
                            "t0": 38500.0, 
                            "v": 120, 
                            "dur": 400.0, 
                            "type": "note", 
                            "channel": 0
                        }, 
                        {
                            "pitch": 58, 
                            "t0": 38500.0, 
                            "v": 91, 
                            "dur": 400.0, 
                            "type": "note", 
                            "channel": 0
                        }, 
                        {
                            "pitch": 70, 
                            "t0": 38500.0, 
                            "v": 18, 
                            "dur": 400.0, 
                            "type": "note", 
                            "channel": 0
                        }
                    ]
                ], 
                [
                    39000.0, 
                    [
                        {
                            "pitch": 23, 
                            "t0": 39000.0, 
                            "v": 25, 
                            "dur": 400.0, 
                            "type": "note", 
                            "channel": 0
                        }, 
                        {
                            "pitch": 35, 
                            "t0": 39000.0, 
                            "v": 95, 
                            "dur": 400.0, 
                            "type": "note", 
                            "channel": 0
                        }, 
                        {
                            "pitch": 47, 
                            "t0": 39000.0, 
                            "v": 119, 
                            "dur": 400.0, 
                            "type": "note", 
                            "channel": 0
                        }, 
                        {
                            "pitch": 59, 
                            "t0": 39000.0, 
                            "v": 86, 
                            "dur": 400.0, 
                            "type": "note", 
                            "channel": 0
                        }, 
                        {
                            "pitch": 71, 
                            "t0": 39000.0, 
                            "v": 11, 
                            "dur": 400.0, 
                            "type": "note", 
                            "channel": 0
                        }
                    ]
                ], 
                [
                    39500.0, 
                    [
                        {
                            "pitch": 24, 
                            "t0": 39500.0, 
                            "v": 32, 
                            "dur": 400.0, 
                            "type": "note", 
                            "channel": 0
                        }, 
                        {
                            "pitch": 36, 
                            "t0": 39500.0, 
                            "v": 99, 
                            "dur": 400.0, 
                            "type": "note", 
                            "channel": 0
                        }, 
                        {
                            "pitch": 48, 
                            "t0": 39500.0, 
                            "v": 119, 
                            "dur": 400.0, 
                            "type": "note", 
                            "channel": 0
                        }, 
                        {
                            "pitch": 60, 
                            "t0": 39500.0, 
                            "v": 81, 
                            "dur": 400.0, 
                            "type": "note", 
                            "channel": 0
                        }, 
                        {
                            "pitch": 72, 
                            "t0": 39500.0, 
                            "v": 4, 
                            "dur": 400.0, 
                            "type": "note", 
                            "channel": 0
                        }
                    ]
                ], 
                [
                    40000.0, 
                    [
                        {
                            "pitch": 25, 
                            "t0": 40000.0, 
                            "v": 39, 
                            "dur": 1600.0, 
                            "type": "note", 
                            "channel": 0
                        }, 
                        {
                            "pitch": 37, 
                            "t0": 40000.0, 
                            "v": 103, 
                            "dur": 1600.0, 
                            "type": "note", 
                            "channel": 0
                        }, 
                        {
                            "pitch": 49, 
                            "t0": 40000.0, 
                            "v": 118, 
                            "dur": 1600.0, 
                            "type": "note", 
                            "channel": 0
                        }, 
                        {
                            "pitch": 61, 
                            "t0": 40000.0, 
                            "v": 76, 
                            "dur": 1600.0, 
                            "type": "note", 
                            "channel": 0
                        }
                    ]
                ], 
                [
                    42000.0, 
                    [
                        {
                            "pitch": 23, 
                            "t0": 42000.0, 
                            "v": 25, 
                            "dur": 400.0, 
                            "type": "note", 
                            "channel": 0
                        }, 
                        {
                            "pitch": 35, 
                            "t0": 42000.0, 
                            "v": 95, 
                            "dur": 400.0, 
                            "type": "note", 
                            "channel": 0
                        }, 
                        {
                            "pitch": 47, 
                            "t0": 42000.0, 
                            "v": 119, 
                            "dur": 400.0, 
                            "type": "note", 
                            "channel": 0
                        }, 
                        {
                            "pitch": 59, 
                            "t0": 42000.0, 
                            "v": 86, 
                            "dur": 400.0, 
                            "type": "note", 
                            "channel": 0
                        }, 
                        {
                            "pitch": 71, 
                            "t0": 42000.0, 
                            "v": 11, 
                            "dur": 400.0, 
                            "type": "note", 
                            "channel": 0
                        }
                    ]
                ], 
                [
                    42500.0, 
                    [
                        {
                            "pitch": 24, 
                            "t0": 42500.0, 
                            "v": 32, 
                            "dur": 400.0, 
                            "type": "note", 
                            "channel": 0
                        }, 
                        {
                            "pitch": 36, 
                            "t0": 42500.0, 
                            "v": 99, 
                            "dur": 400.0, 
                            "type": "note", 
                            "channel": 0
                        }, 
                        {
                            "pitch": 48, 
                            "t0": 42500.0, 
                            "v": 119, 
                            "dur": 400.0, 
                            "type": "note", 
                            "channel": 0
                        }, 
                        {
                            "pitch": 60, 
                            "t0": 42500.0, 
                            "v": 81, 
                            "dur": 400.0, 
                            "type": "note", 
                            "channel": 0
                        }, 
                        {
                            "pitch": 72, 
                            "t0": 42500.0, 
                            "v": 4, 
                            "dur": 400.0, 
                            "type": "note", 
                            "channel": 0
                        }
                    ]
                ], 
                [
                    43000.0, 
                    [
                        {
                            "pitch": 25, 
                            "t0": 43000.0, 
                            "v": 39, 
                            "dur": 400.0, 
                            "type": "note", 
                            "channel": 0
                        }, 
                        {
                            "pitch": 37, 
                            "t0": 43000.0, 
                            "v": 103, 
                            "dur": 400.0, 
                            "type": "note", 
                            "channel": 0
                        }, 
                        {
                            "pitch": 49, 
                            "t0": 43000.0, 
                            "v": 118, 
                            "dur": 400.0, 
                            "type": "note", 
                            "channel": 0
                        }, 
                        {
                            "pitch": 61, 
                            "t0": 43000.0, 
                            "v": 76, 
                            "dur": 400.0, 
                            "type": "note", 
                            "channel": 0
                        }
                    ]
                ], 
                [
                    43500.0, 
                    [
                        {
                            "pitch": 26, 
                            "t0": 43500.0, 
                            "v": 45, 
                            "dur": 1600.0, 
                            "type": "note", 
                            "channel": 0
                        }, 
                        {
                            "pitch": 38, 
                            "t0": 43500.0, 
                            "v": 106, 
                            "dur": 1600.0, 
                            "type": "note", 
                            "channel": 0
                        }, 
                        {
                            "pitch": 50, 
                            "t0": 43500.0, 
                            "v": 116, 
                            "dur": 1600.0, 
                            "type": "note", 
                            "channel": 0
                        }, 
                        {
                            "pitch": 62, 
                            "t0": 43500.0, 
                            "v": 70, 
                            "dur": 1600.0, 
                            "type": "note", 
                            "channel": 0
                        }
                    ]
                ], 
                [
                    45500.0, 
                    [
                        {
                            "pitch": 24, 
                            "t0": 45500.0, 
                            "v": 32, 
                            "dur": 400.0, 
                            "type": "note", 
                            "channel": 0
                        }, 
                        {
                            "pitch": 36, 
                            "t0": 45500.0, 
                            "v": 99, 
                            "dur": 400.0, 
                            "type": "note", 
                            "channel": 0
                        }, 
                        {
                            "pitch": 48, 
                            "t0": 45500.0, 
                            "v": 119, 
                            "dur": 400.0, 
                            "type": "note", 
                            "channel": 0
                        }, 
                        {
                            "pitch": 60, 
                            "t0": 45500.0, 
                            "v": 81, 
                            "dur": 400.0, 
                            "type": "note", 
                            "channel": 0
                        }, 
                        {
                            "pitch": 72, 
                            "t0": 45500.0, 
                            "v": 4, 
                            "dur": 400.0, 
                            "type": "note", 
                            "channel": 0
                        }
                    ]
                ], 
                [
                    46000.0, 
                    [
                        {
                            "pitch": 25, 
                            "t0": 46000.0, 
                            "v": 39, 
                            "dur": 400.0, 
                            "type": "note", 
                            "channel": 0
                        }, 
                        {
                            "pitch": 37, 
                            "t0": 46000.0, 
                            "v": 103, 
                            "dur": 400.0, 
                            "type": "note", 
                            "channel": 0
                        }, 
                        {
                            "pitch": 49, 
                            "t0": 46000.0, 
                            "v": 118, 
                            "dur": 400.0, 
                            "type": "note", 
                            "channel": 0
                        }, 
                        {
                            "pitch": 61, 
                            "t0": 46000.0, 
                            "v": 76, 
                            "dur": 400.0, 
                            "type": "note", 
                            "channel": 0
                        }
                    ]
                ], 
                [
                    46500.0, 
                    [
                        {
                            "pitch": 26, 
                            "t0": 46500.0, 
                            "v": 45, 
                            "dur": 400.0, 
                            "type": "note", 
                            "channel": 0
                        }, 
                        {
                            "pitch": 38, 
                            "t0": 46500.0, 
                            "v": 106, 
                            "dur": 400.0, 
                            "type": "note", 
                            "channel": 0
                        }, 
                        {
                            "pitch": 50, 
                            "t0": 46500.0, 
                            "v": 116, 
                            "dur": 400.0, 
                            "type": "note", 
                            "channel": 0
                        }, 
                        {
                            "pitch": 62, 
                            "t0": 46500.0, 
                            "v": 70, 
                            "dur": 400.0, 
                            "type": "note", 
                            "channel": 0
                        }
                    ]
                ], 
                [
                    47000.0, 
                    [
                        {
                            "pitch": 27, 
                            "t0": 47000.0, 
                            "v": 52, 
                            "dur": 1600.0, 
                            "type": "note", 
                            "channel": 0
                        }, 
                        {
                            "pitch": 39, 
                            "t0": 47000.0, 
                            "v": 109, 
                            "dur": 1600.0, 
                            "type": "note", 
                            "channel": 0
                        }, 
                        {
                            "pitch": 51, 
                            "t0": 47000.0, 
                            "v": 114, 
                            "dur": 1600.0, 
                            "type": "note", 
                            "channel": 0
                        }, 
                        {
                            "pitch": 63, 
                            "t0": 47000.0, 
                            "v": 64, 
                            "dur": 1600.0, 
                            "type": "note", 
                            "channel": 0
                        }
                    ]
                ], 
                [
                    49000.0, 
                    [
                        {
                            "pitch": 25, 
                            "t0": 49000.0, 
                            "v": 39, 
                            "dur": 400.0, 
                            "type": "note", 
                            "channel": 0
                        }, 
                        {
                            "pitch": 37, 
                            "t0": 49000.0, 
                            "v": 103, 
                            "dur": 400.0, 
                            "type": "note", 
                            "channel": 0
                        }, 
                        {
                            "pitch": 49, 
                            "t0": 49000.0, 
                            "v": 118, 
                            "dur": 400.0, 
                            "type": "note", 
                            "channel": 0
                        }, 
                        {
                            "pitch": 61, 
                            "t0": 49000.0, 
                            "v": 76, 
                            "dur": 400.0, 
                            "type": "note", 
                            "channel": 0
                        }
                    ]
                ], 
                [
                    49500.0, 
                    [
                        {
                            "pitch": 26, 
                            "t0": 49500.0, 
                            "v": 45, 
                            "dur": 400.0, 
                            "type": "note", 
                            "channel": 0
                        }, 
                        {
                            "pitch": 38, 
                            "t0": 49500.0, 
                            "v": 106, 
                            "dur": 400.0, 
                            "type": "note", 
                            "channel": 0
                        }, 
                        {
                            "pitch": 50, 
                            "t0": 49500.0, 
                            "v": 116, 
                            "dur": 400.0, 
                            "type": "note", 
                            "channel": 0
                        }, 
                        {
                            "pitch": 62, 
                            "t0": 49500.0, 
                            "v": 70, 
                            "dur": 400.0, 
                            "type": "note", 
                            "channel": 0
                        }
                    ]
                ], 
                [
                    50000.0, 
                    [
                        {
                            "pitch": 27, 
                            "t0": 50000.0, 
                            "v": 52, 
                            "dur": 400.0, 
                            "type": "note", 
                            "channel": 0
                        }, 
                        {
                            "pitch": 39, 
                            "t0": 50000.0, 
                            "v": 109, 
                            "dur": 400.0, 
                            "type": "note", 
                            "channel": 0
                        }, 
                        {
                            "pitch": 51, 
                            "t0": 50000.0, 
                            "v": 114, 
                            "dur": 400.0, 
                            "type": "note", 
                            "channel": 0
                        }, 
                        {
                            "pitch": 63, 
                            "t0": 50000.0, 
                            "v": 64, 
                            "dur": 400.0, 
                            "type": "note", 
                            "channel": 0
                        }
                    ]
                ], 
                [
                    50500.0, 
                    [
                        {
                            "pitch": 28, 
                            "t0": 50500.0, 
                            "v": 58, 
                            "dur": 1600.0, 
                            "type": "note", 
                            "channel": 0
                        }, 
                        {
                            "pitch": 40, 
                            "t0": 50500.0, 
                            "v": 112, 
                            "dur": 1600.0, 
                            "type": "note", 
                            "channel": 0
                        }, 
                        {
                            "pitch": 52, 
                            "t0": 50500.0, 
                            "v": 112, 
                            "dur": 1600.0, 
                            "type": "note", 
                            "channel": 0
                        }, 
                        {
                            "pitch": 64, 
                            "t0": 50500.0, 
                            "v": 58, 
                            "dur": 1600.0, 
                            "type": "note", 
                            "channel": 0
                        }
                    ]
                ], 
                [
                    52500.0, 
                    [
                        {
                            "pitch": 26, 
                            "t0": 52500.0, 
                            "v": 45, 
                            "dur": 400.0, 
                            "type": "note", 
                            "channel": 0
                        }, 
                        {
                            "pitch": 38, 
                            "t0": 52500.0, 
                            "v": 106, 
                            "dur": 400.0, 
                            "type": "note", 
                            "channel": 0
                        }, 
                        {
                            "pitch": 50, 
                            "t0": 52500.0, 
                            "v": 116, 
                            "dur": 400.0, 
                            "type": "note", 
                            "channel": 0
                        }, 
                        {
                            "pitch": 62, 
                            "t0": 52500.0, 
                            "v": 70, 
                            "dur": 400.0, 
                            "type": "note", 
                            "channel": 0
                        }
                    ]
                ], 
                [
                    53000.0, 
                    [
                        {
                            "pitch": 27, 
                            "t0": 53000.0, 
                            "v": 52, 
                            "dur": 400.0, 
                            "type": "note", 
                            "channel": 0
                        }, 
                        {
                            "pitch": 39, 
                            "t0": 53000.0, 
                            "v": 109, 
                            "dur": 400.0, 
                            "type": "note", 
                            "channel": 0
                        }, 
                        {
                            "pitch": 51, 
                            "t0": 53000.0, 
                            "v": 114, 
                            "dur": 400.0, 
                            "type": "note", 
                            "channel": 0
                        }, 
                        {
                            "pitch": 63, 
                            "t0": 53000.0, 
                            "v": 64, 
                            "dur": 400.0, 
                            "type": "note", 
                            "channel": 0
                        }
                    ]
                ], 
                [
                    53500.0, 
                    [
                        {
                            "pitch": 28, 
                            "t0": 53500.0, 
                            "v": 58, 
                            "dur": 400.0, 
                            "type": "note", 
                            "channel": 0
                        }, 
                        {
                            "pitch": 40, 
                            "t0": 53500.0, 
                            "v": 112, 
                            "dur": 400.0, 
                            "type": "note", 
                            "channel": 0
                        }, 
                        {
                            "pitch": 52, 
                            "t0": 53500.0, 
                            "v": 112, 
                            "dur": 400.0, 
                            "type": "note", 
                            "channel": 0
                        }, 
                        {
                            "pitch": 64, 
                            "t0": 53500.0, 
                            "v": 58, 
                            "dur": 400.0, 
                            "type": "note", 
                            "channel": 0
                        }
                    ]
                ], 
                [
                    54000.0, 
                    [
                        {
                            "pitch": 29, 
                            "t0": 54000.0, 
                            "v": 64, 
                            "dur": 1600.0, 
                            "type": "note", 
                            "channel": 0
                        }, 
                        {
                            "pitch": 41, 
                            "t0": 54000.0, 
                            "v": 114, 
                            "dur": 1600.0, 
                            "type": "note", 
                            "channel": 0
                        }, 
                        {
                            "pitch": 53, 
                            "t0": 54000.0, 
                            "v": 109, 
                            "dur": 1600.0, 
                            "type": "note", 
                            "channel": 0
                        }, 
                        {
                            "pitch": 65, 
                            "t0": 54000.0, 
                            "v": 52, 
                            "dur": 1600.0, 
                            "type": "note", 
                            "channel": 0
                        }
                    ]
                ], 
                [
                    56000.0, 
                    [
                        {
                            "pitch": 27, 
                            "t0": 56000.0, 
                            "v": 52, 
                            "dur": 400.0, 
                            "type": "note", 
                            "channel": 0
                        }, 
                        {
                            "pitch": 39, 
                            "t0": 56000.0, 
                            "v": 109, 
                            "dur": 400.0, 
                            "type": "note", 
                            "channel": 0
                        }, 
                        {
                            "pitch": 51, 
                            "t0": 56000.0, 
                            "v": 114, 
                            "dur": 400.0, 
                            "type": "note", 
                            "channel": 0
                        }, 
                        {
                            "pitch": 63, 
                            "t0": 56000.0, 
                            "v": 64, 
                            "dur": 400.0, 
                            "type": "note", 
                            "channel": 0
                        }
                    ]
                ], 
                [
                    56500.0, 
                    [
                        {
                            "pitch": 28, 
                            "t0": 56500.0, 
                            "v": 58, 
                            "dur": 400.0, 
                            "type": "note", 
                            "channel": 0
                        }, 
                        {
                            "pitch": 40, 
                            "t0": 56500.0, 
                            "v": 112, 
                            "dur": 400.0, 
                            "type": "note", 
                            "channel": 0
                        }, 
                        {
                            "pitch": 52, 
                            "t0": 56500.0, 
                            "v": 112, 
                            "dur": 400.0, 
                            "type": "note", 
                            "channel": 0
                        }, 
                        {
                            "pitch": 64, 
                            "t0": 56500.0, 
                            "v": 58, 
                            "dur": 400.0, 
                            "type": "note", 
                            "channel": 0
                        }
                    ]
                ], 
                [
                    57000.0, 
                    [
                        {
                            "pitch": 29, 
                            "t0": 57000.0, 
                            "v": 64, 
                            "dur": 400.0, 
                            "type": "note", 
                            "channel": 0
                        }, 
                        {
                            "pitch": 41, 
                            "t0": 57000.0, 
                            "v": 114, 
                            "dur": 400.0, 
                            "type": "note", 
                            "channel": 0
                        }, 
                        {
                            "pitch": 53, 
                            "t0": 57000.0, 
                            "v": 109, 
                            "dur": 400.0, 
                            "type": "note", 
                            "channel": 0
                        }, 
                        {
                            "pitch": 65, 
                            "t0": 57000.0, 
                            "v": 52, 
                            "dur": 400.0, 
                            "type": "note", 
                            "channel": 0
                        }
                    ]
                ], 
                [
                    57500.0, 
                    [
                        {
                            "pitch": 30, 
                            "t0": 57500.0, 
                            "v": 70, 
                            "dur": 1600.0, 
                            "type": "note", 
                            "channel": 0
                        }, 
                        {
                            "pitch": 42, 
                            "t0": 57500.0, 
                            "v": 116, 
                            "dur": 1600.0, 
                            "type": "note", 
                            "channel": 0
                        }, 
                        {
                            "pitch": 54, 
                            "t0": 57500.0, 
                            "v": 106, 
                            "dur": 1600.0, 
                            "type": "note", 
                            "channel": 0
                        }, 
                        {
                            "pitch": 66, 
                            "t0": 57500.0, 
                            "v": 45, 
                            "dur": 1600.0, 
                            "type": "note", 
                            "channel": 0
                        }
                    ]
                ], 
                [
                    59500.0, 
                    [
                        {
                            "pitch": 28, 
                            "t0": 59500.0, 
                            "v": 58, 
                            "dur": 400.0, 
                            "type": "note", 
                            "channel": 0
                        }, 
                        {
                            "pitch": 40, 
                            "t0": 59500.0, 
                            "v": 112, 
                            "dur": 400.0, 
                            "type": "note", 
                            "channel": 0
                        }, 
                        {
                            "pitch": 52, 
                            "t0": 59500.0, 
                            "v": 112, 
                            "dur": 400.0, 
                            "type": "note", 
                            "channel": 0
                        }, 
                        {
                            "pitch": 64, 
                            "t0": 59500.0, 
                            "v": 58, 
                            "dur": 400.0, 
                            "type": "note", 
                            "channel": 0
                        }
                    ]
                ], 
                [
                    60000.0, 
                    [
                        {
                            "pitch": 29, 
                            "t0": 60000.0, 
                            "v": 64, 
                            "dur": 400.0, 
                            "type": "note", 
                            "channel": 0
                        }, 
                        {
                            "pitch": 41, 
                            "t0": 60000.0, 
                            "v": 114, 
                            "dur": 400.0, 
                            "type": "note", 
                            "channel": 0
                        }, 
                        {
                            "pitch": 53, 
                            "t0": 60000.0, 
                            "v": 109, 
                            "dur": 400.0, 
                            "type": "note", 
                            "channel": 0
                        }, 
                        {
                            "pitch": 65, 
                            "t0": 60000.0, 
                            "v": 52, 
                            "dur": 400.0, 
                            "type": "note", 
                            "channel": 0
                        }
                    ]
                ], 
                [
                    60500.0, 
                    [
                        {
                            "pitch": 30, 
                            "t0": 60500.0, 
                            "v": 70, 
                            "dur": 400.0, 
                            "type": "note", 
                            "channel": 0
                        }, 
                        {
                            "pitch": 42, 
                            "t0": 60500.0, 
                            "v": 116, 
                            "dur": 400.0, 
                            "type": "note", 
                            "channel": 0
                        }, 
                        {
                            "pitch": 54, 
                            "t0": 60500.0, 
                            "v": 106, 
                            "dur": 400.0, 
                            "type": "note", 
                            "channel": 0
                        }, 
                        {
                            "pitch": 66, 
                            "t0": 60500.0, 
                            "v": 45, 
                            "dur": 400.0, 
                            "type": "note", 
                            "channel": 0
                        }
                    ]
                ], 
                [
                    61000.0, 
                    [
                        {
                            "pitch": 31, 
                            "t0": 61000.0, 
                            "v": 76, 
                            "dur": 1600.0, 
                            "type": "note", 
                            "channel": 0
                        }, 
                        {
                            "pitch": 43, 
                            "t0": 61000.0, 
                            "v": 118, 
                            "dur": 1600.0, 
                            "type": "note", 
                            "channel": 0
                        }, 
                        {
                            "pitch": 55, 
                            "t0": 61000.0, 
                            "v": 103, 
                            "dur": 1600.0, 
                            "type": "note", 
                            "channel": 0
                        }, 
                        {
                            "pitch": 67, 
                            "t0": 61000.0, 
                            "v": 39, 
                            "dur": 1600.0, 
                            "type": "note", 
                            "channel": 0
                        }
                    ]
                ], 
                [
                    63000.0, 
                    [
                        {
                            "pitch": 29, 
                            "t0": 63000.0, 
                            "v": 64, 
                            "dur": 400.0, 
                            "type": "note", 
                            "channel": 0
                        }, 
                        {
                            "pitch": 41, 
                            "t0": 63000.0, 
                            "v": 114, 
                            "dur": 400.0, 
                            "type": "note", 
                            "channel": 0
                        }, 
                        {
                            "pitch": 53, 
                            "t0": 63000.0, 
                            "v": 109, 
                            "dur": 400.0, 
                            "type": "note", 
                            "channel": 0
                        }, 
                        {
                            "pitch": 65, 
                            "t0": 63000.0, 
                            "v": 52, 
                            "dur": 400.0, 
                            "type": "note", 
                            "channel": 0
                        }
                    ]
                ], 
                [
                    63500.0, 
                    [
                        {
                            "pitch": 30, 
                            "t0": 63500.0, 
                            "v": 70, 
                            "dur": 400.0, 
                            "type": "note", 
                            "channel": 0
                        }, 
                        {
                            "pitch": 42, 
                            "t0": 63500.0, 
                            "v": 116, 
                            "dur": 400.0, 
                            "type": "note", 
                            "channel": 0
                        }, 
                        {
                            "pitch": 54, 
                            "t0": 63500.0, 
                            "v": 106, 
                            "dur": 400.0, 
                            "type": "note", 
                            "channel": 0
                        }, 
                        {
                            "pitch": 66, 
                            "t0": 63500.0, 
                            "v": 45, 
                            "dur": 400.0, 
                            "type": "note", 
                            "channel": 0
                        }
                    ]
                ], 
                [
                    64000.0, 
                    [
                        {
                            "pitch": 31, 
                            "t0": 64000.0, 
                            "v": 76, 
                            "dur": 400.0, 
                            "type": "note", 
                            "channel": 0
                        }, 
                        {
                            "pitch": 43, 
                            "t0": 64000.0, 
                            "v": 118, 
                            "dur": 400.0, 
                            "type": "note", 
                            "channel": 0
                        }, 
                        {
                            "pitch": 55, 
                            "t0": 64000.0, 
                            "v": 103, 
                            "dur": 400.0, 
                            "type": "note", 
                            "channel": 0
                        }, 
                        {
                            "pitch": 67, 
                            "t0": 64000.0, 
                            "v": 39, 
                            "dur": 400.0, 
                            "type": "note", 
                            "channel": 0
                        }
                    ]
                ], 
                [
                    64500.0, 
                    [
                        {
                            "pitch": 32, 
                            "t0": 64500.0, 
                            "v": 81, 
                            "dur": 1600.0, 
                            "type": "note", 
                            "channel": 0
                        }, 
                        {
                            "pitch": 44, 
                            "t0": 64500.0, 
                            "v": 119, 
                            "dur": 1600.0, 
                            "type": "note", 
                            "channel": 0
                        }, 
                        {
                            "pitch": 56, 
                            "t0": 64500.0, 
                            "v": 99, 
                            "dur": 1600.0, 
                            "type": "note", 
                            "channel": 0
                        }, 
                        {
                            "pitch": 68, 
                            "t0": 64500.0, 
                            "v": 32, 
                            "dur": 1600.0, 
                            "type": "note", 
                            "channel": 0
                        }
                    ]
                ], 
                [
                    66500.0, 
                    [
                        {
                            "pitch": 30, 
                            "t0": 66500.0, 
                            "v": 70, 
                            "dur": 400.0, 
                            "type": "note", 
                            "channel": 0
                        }, 
                        {
                            "pitch": 42, 
                            "t0": 66500.0, 
                            "v": 116, 
                            "dur": 400.0, 
                            "type": "note", 
                            "channel": 0
                        }, 
                        {
                            "pitch": 54, 
                            "t0": 66500.0, 
                            "v": 106, 
                            "dur": 400.0, 
                            "type": "note", 
                            "channel": 0
                        }, 
                        {
                            "pitch": 66, 
                            "t0": 66500.0, 
                            "v": 45, 
                            "dur": 400.0, 
                            "type": "note", 
                            "channel": 0
                        }
                    ]
                ], 
                [
                    67000.0, 
                    [
                        {
                            "pitch": 31, 
                            "t0": 67000.0, 
                            "v": 76, 
                            "dur": 400.0, 
                            "type": "note", 
                            "channel": 0
                        }, 
                        {
                            "pitch": 43, 
                            "t0": 67000.0, 
                            "v": 118, 
                            "dur": 400.0, 
                            "type": "note", 
                            "channel": 0
                        }, 
                        {
                            "pitch": 55, 
                            "t0": 67000.0, 
                            "v": 103, 
                            "dur": 400.0, 
                            "type": "note", 
                            "channel": 0
                        }, 
                        {
                            "pitch": 67, 
                            "t0": 67000.0, 
                            "v": 39, 
                            "dur": 400.0, 
                            "type": "note", 
                            "channel": 0
                        }
                    ]
                ], 
                [
                    67500.0, 
                    [
                        {
                            "pitch": 32, 
                            "t0": 67500.0, 
                            "v": 81, 
                            "dur": 400.0, 
                            "type": "note", 
                            "channel": 0
                        }, 
                        {
                            "pitch": 44, 
                            "t0": 67500.0, 
                            "v": 119, 
                            "dur": 400.0, 
                            "type": "note", 
                            "channel": 0
                        }, 
                        {
                            "pitch": 56, 
                            "t0": 67500.0, 
                            "v": 99, 
                            "dur": 400.0, 
                            "type": "note", 
                            "channel": 0
                        }, 
                        {
                            "pitch": 68, 
                            "t0": 67500.0, 
                            "v": 32, 
                            "dur": 400.0, 
                            "type": "note", 
                            "channel": 0
                        }
                    ]
                ], 
                [
                    68000.0, 
                    [
                        {
                            "pitch": 33, 
                            "t0": 68000.0, 
                            "v": 86, 
                            "dur": 1600.0, 
                            "type": "note", 
                            "channel": 0
                        }, 
                        {
                            "pitch": 45, 
                            "t0": 68000.0, 
                            "v": 119, 
                            "dur": 1600.0, 
                            "type": "note", 
                            "channel": 0
                        }, 
                        {
                            "pitch": 57, 
                            "t0": 68000.0, 
                            "v": 95, 
                            "dur": 1600.0, 
                            "type": "note", 
                            "channel": 0
                        }, 
                        {
                            "pitch": 69, 
                            "t0": 68000.0, 
                            "v": 25, 
                            "dur": 1600.0, 
                            "type": "note", 
                            "channel": 0
                        }
                    ]
                ], 
                [
                    70000.0, 
                    [
                        {
                            "pitch": 31, 
                            "t0": 70000.0, 
                            "v": 76, 
                            "dur": 400.0, 
                            "type": "note", 
                            "channel": 0
                        }, 
                        {
                            "pitch": 43, 
                            "t0": 70000.0, 
                            "v": 118, 
                            "dur": 400.0, 
                            "type": "note", 
                            "channel": 0
                        }, 
                        {
                            "pitch": 55, 
                            "t0": 70000.0, 
                            "v": 103, 
                            "dur": 400.0, 
                            "type": "note", 
                            "channel": 0
                        }, 
                        {
                            "pitch": 67, 
                            "t0": 70000.0, 
                            "v": 39, 
                            "dur": 400.0, 
                            "type": "note", 
                            "channel": 0
                        }
                    ]
                ], 
                [
                    70500.0, 
                    [
                        {
                            "pitch": 32, 
                            "t0": 70500.0, 
                            "v": 81, 
                            "dur": 400.0, 
                            "type": "note", 
                            "channel": 0
                        }, 
                        {
                            "pitch": 44, 
                            "t0": 70500.0, 
                            "v": 119, 
                            "dur": 400.0, 
                            "type": "note", 
                            "channel": 0
                        }, 
                        {
                            "pitch": 56, 
                            "t0": 70500.0, 
                            "v": 99, 
                            "dur": 400.0, 
                            "type": "note", 
                            "channel": 0
                        }, 
                        {
                            "pitch": 68, 
                            "t0": 70500.0, 
                            "v": 32, 
                            "dur": 400.0, 
                            "type": "note", 
                            "channel": 0
                        }
                    ]
                ], 
                [
                    71000.0, 
                    [
                        {
                            "pitch": 33, 
                            "t0": 71000.0, 
                            "v": 86, 
                            "dur": 400.0, 
                            "type": "note", 
                            "channel": 0
                        }, 
                        {
                            "pitch": 45, 
                            "t0": 71000.0, 
                            "v": 119, 
                            "dur": 400.0, 
                            "type": "note", 
                            "channel": 0
                        }, 
                        {
                            "pitch": 57, 
                            "t0": 71000.0, 
                            "v": 95, 
                            "dur": 400.0, 
                            "type": "note", 
                            "channel": 0
                        }, 
                        {
                            "pitch": 69, 
                            "t0": 71000.0, 
                            "v": 25, 
                            "dur": 400.0, 
                            "type": "note", 
                            "channel": 0
                        }
                    ]
                ], 
                [
                    71500.0, 
                    [
                        {
                            "pitch": 34, 
                            "t0": 71500.0, 
                            "v": 91, 
                            "dur": 1600.0, 
                            "type": "note", 
                            "channel": 0
                        }, 
                        {
                            "pitch": 46, 
                            "t0": 71500.0, 
                            "v": 120, 
                            "dur": 1600.0, 
                            "type": "note", 
                            "channel": 0
                        }, 
                        {
                            "pitch": 58, 
                            "t0": 71500.0, 
                            "v": 91, 
                            "dur": 1600.0, 
                            "type": "note", 
                            "channel": 0
                        }, 
                        {
                            "pitch": 70, 
                            "t0": 71500.0, 
                            "v": 18, 
                            "dur": 1600.0, 
                            "type": "note", 
                            "channel": 0
                        }
                    ]
                ], 
                [
                    73500.0, 
                    [
                        {
                            "pitch": 32, 
                            "t0": 73500.0, 
                            "v": 81, 
                            "dur": 400.0, 
                            "type": "note", 
                            "channel": 0
                        }, 
                        {
                            "pitch": 44, 
                            "t0": 73500.0, 
                            "v": 119, 
                            "dur": 400.0, 
                            "type": "note", 
                            "channel": 0
                        }, 
                        {
                            "pitch": 56, 
                            "t0": 73500.0, 
                            "v": 99, 
                            "dur": 400.0, 
                            "type": "note", 
                            "channel": 0
                        }, 
                        {
                            "pitch": 68, 
                            "t0": 73500.0, 
                            "v": 32, 
                            "dur": 400.0, 
                            "type": "note", 
                            "channel": 0
                        }
                    ]
                ], 
                [
                    74000.0, 
                    [
                        {
                            "pitch": 33, 
                            "t0": 74000.0, 
                            "v": 86, 
                            "dur": 400.0, 
                            "type": "note", 
                            "channel": 0
                        }, 
                        {
                            "pitch": 45, 
                            "t0": 74000.0, 
                            "v": 119, 
                            "dur": 400.0, 
                            "type": "note", 
                            "channel": 0
                        }, 
                        {
                            "pitch": 57, 
                            "t0": 74000.0, 
                            "v": 95, 
                            "dur": 400.0, 
                            "type": "note", 
                            "channel": 0
                        }, 
                        {
                            "pitch": 69, 
                            "t0": 74000.0, 
                            "v": 25, 
                            "dur": 400.0, 
                            "type": "note", 
                            "channel": 0
                        }
                    ]
                ], 
                [
                    74500.0, 
                    [
                        {
                            "pitch": 34, 
                            "t0": 74500.0, 
                            "v": 91, 
                            "dur": 400.0, 
                            "type": "note", 
                            "channel": 0
                        }, 
                        {
                            "pitch": 46, 
                            "t0": 74500.0, 
                            "v": 120, 
                            "dur": 400.0, 
                            "type": "note", 
                            "channel": 0
                        }, 
                        {
                            "pitch": 58, 
                            "t0": 74500.0, 
                            "v": 91, 
                            "dur": 400.0, 
                            "type": "note", 
                            "channel": 0
                        }, 
                        {
                            "pitch": 70, 
                            "t0": 74500.0, 
                            "v": 18, 
                            "dur": 400.0, 
                            "type": "note", 
                            "channel": 0
                        }
                    ]
                ], 
                [
                    75000.0, 
                    [
                        {
                            "pitch": 23, 
                            "t0": 75000.0, 
                            "v": 25, 
                            "dur": 1600.0, 
                            "type": "note", 
                            "channel": 0
                        }, 
                        {
                            "pitch": 35, 
                            "t0": 75000.0, 
                            "v": 95, 
                            "dur": 1600.0, 
                            "type": "note", 
                            "channel": 0
                        }, 
                        {
                            "pitch": 47, 
                            "t0": 75000.0, 
                            "v": 119, 
                            "dur": 1600.0, 
                            "type": "note", 
                            "channel": 0
                        }, 
                        {
                            "pitch": 59, 
                            "t0": 75000.0, 
                            "v": 86, 
                            "dur": 1600.0, 
                            "type": "note", 
                            "channel": 0
                        }, 
                        {
                            "pitch": 71, 
                            "t0": 75000.0, 
                            "v": 11, 
                            "dur": 1600.0, 
                            "type": "note", 
                            "channel": 0
                        }
                    ]
                ], 
                [
                    77000.0, 
                    [
                        {
                            "pitch": 33, 
                            "t0": 77000.0, 
                            "v": 86, 
                            "dur": 400.0, 
                            "type": "note", 
                            "channel": 0
                        }, 
                        {
                            "pitch": 45, 
                            "t0": 77000.0, 
                            "v": 119, 
                            "dur": 400.0, 
                            "type": "note", 
                            "channel": 0
                        }, 
                        {
                            "pitch": 57, 
                            "t0": 77000.0, 
                            "v": 95, 
                            "dur": 400.0, 
                            "type": "note", 
                            "channel": 0
                        }, 
                        {
                            "pitch": 69, 
                            "t0": 77000.0, 
                            "v": 25, 
                            "dur": 400.0, 
                            "type": "note", 
                            "channel": 0
                        }
                    ]
                ], 
                [
                    77500.0, 
                    [
                        {
                            "pitch": 34, 
                            "t0": 77500.0, 
                            "v": 91, 
                            "dur": 400.0, 
                            "type": "note", 
                            "channel": 0
                        }, 
                        {
                            "pitch": 46, 
                            "t0": 77500.0, 
                            "v": 120, 
                            "dur": 400.0, 
                            "type": "note", 
                            "channel": 0
                        }, 
                        {
                            "pitch": 58, 
                            "t0": 77500.0, 
                            "v": 91, 
                            "dur": 400.0, 
                            "type": "note", 
                            "channel": 0
                        }, 
                        {
                            "pitch": 70, 
                            "t0": 77500.0, 
                            "v": 18, 
                            "dur": 400.0, 
                            "type": "note", 
                            "channel": 0
                        }
                    ]
                ], 
                [
                    78000.0, 
                    [
                        {
                            "pitch": 23, 
                            "t0": 78000.0, 
                            "v": 25, 
                            "dur": 400.0, 
                            "type": "note", 
                            "channel": 0
                        }, 
                        {
                            "pitch": 35, 
                            "t0": 78000.0, 
                            "v": 95, 
                            "dur": 400.0, 
                            "type": "note", 
                            "channel": 0
                        }, 
                        {
                            "pitch": 47, 
                            "t0": 78000.0, 
                            "v": 119, 
                            "dur": 400.0, 
                            "type": "note", 
                            "channel": 0
                        }, 
                        {
                            "pitch": 59, 
                            "t0": 78000.0, 
                            "v": 86, 
                            "dur": 400.0, 
                            "type": "note", 
                            "channel": 0
                        }, 
                        {
                            "pitch": 71, 
                            "t0": 78000.0, 
                            "v": 11, 
                            "dur": 400.0, 
                            "type": "note", 
                            "channel": 0
                        }
                    ]
                ], 
                [
                    78500.0, 
                    [
                        {
                            "pitch": 24, 
                            "t0": 78500.0, 
                            "v": 32, 
                            "dur": 1600.0, 
                            "type": "note", 
                            "channel": 0
                        }, 
                        {
                            "pitch": 36, 
                            "t0": 78500.0, 
                            "v": 99, 
                            "dur": 1600.0, 
                            "type": "note", 
                            "channel": 0
                        }, 
                        {
                            "pitch": 48, 
                            "t0": 78500.0, 
                            "v": 119, 
                            "dur": 1600.0, 
                            "type": "note", 
                            "channel": 0
                        }, 
                        {
                            "pitch": 60, 
                            "t0": 78500.0, 
                            "v": 81, 
                            "dur": 1600.0, 
                            "type": "note", 
                            "channel": 0
                        }, 
                        {
                            "pitch": 72, 
                            "t0": 78500.0, 
                            "v": 4, 
                            "dur": 1600.0, 
                            "type": "note", 
                            "channel": 0
                        }
                    ]
                ], 
                [
                    80500.0, 
                    [
                        {
                            "pitch": 34, 
                            "t0": 80500.0, 
                            "v": 91, 
                            "dur": 400.0, 
                            "type": "note", 
                            "channel": 0
                        }, 
                        {
                            "pitch": 46, 
                            "t0": 80500.0, 
                            "v": 120, 
                            "dur": 400.0, 
                            "type": "note", 
                            "channel": 0
                        }, 
                        {
                            "pitch": 58, 
                            "t0": 80500.0, 
                            "v": 91, 
                            "dur": 400.0, 
                            "type": "note", 
                            "channel": 0
                        }, 
                        {
                            "pitch": 70, 
                            "t0": 80500.0, 
                            "v": 18, 
                            "dur": 400.0, 
                            "type": "note", 
                            "channel": 0
                        }
                    ]
                ], 
                [
                    81000.0, 
                    [
                        {
                            "pitch": 23, 
                            "t0": 81000.0, 
                            "v": 25, 
                            "dur": 400.0, 
                            "type": "note", 
                            "channel": 0
                        }, 
                        {
                            "pitch": 35, 
                            "t0": 81000.0, 
                            "v": 95, 
                            "dur": 400.0, 
                            "type": "note", 
                            "channel": 0
                        }, 
                        {
                            "pitch": 47, 
                            "t0": 81000.0, 
                            "v": 119, 
                            "dur": 400.0, 
                            "type": "note", 
                            "channel": 0
                        }, 
                        {
                            "pitch": 59, 
                            "t0": 81000.0, 
                            "v": 86, 
                            "dur": 400.0, 
                            "type": "note", 
                            "channel": 0
                        }, 
                        {
                            "pitch": 71, 
                            "t0": 81000.0, 
                            "v": 11, 
                            "dur": 400.0, 
                            "type": "note", 
                            "channel": 0
                        }
                    ]
                ], 
                [
                    81500.0, 
                    [
                        {
                            "pitch": 24, 
                            "t0": 81500.0, 
                            "v": 32, 
                            "dur": 400.0, 
                            "type": "note", 
                            "channel": 0
                        }, 
                        {
                            "pitch": 36, 
                            "t0": 81500.0, 
                            "v": 99, 
                            "dur": 400.0, 
                            "type": "note", 
                            "channel": 0
                        }, 
                        {
                            "pitch": 48, 
                            "t0": 81500.0, 
                            "v": 119, 
                            "dur": 400.0, 
                            "type": "note", 
                            "channel": 0
                        }, 
                        {
                            "pitch": 60, 
                            "t0": 81500.0, 
                            "v": 81, 
                            "dur": 400.0, 
                            "type": "note", 
                            "channel": 0
                        }, 
                        {
                            "pitch": 72, 
                            "t0": 81500.0, 
                            "v": 4, 
                            "dur": 400.0, 
                            "type": "note", 
                            "channel": 0
                        }
                    ]
                ], 
                [
                    82000.0, 
                    [
                        {
                            "pitch": 25, 
                            "t0": 82000.0, 
                            "v": 39, 
                            "dur": 1600.0, 
                            "type": "note", 
                            "channel": 0
                        }, 
                        {
                            "pitch": 37, 
                            "t0": 82000.0, 
                            "v": 103, 
                            "dur": 1600.0, 
                            "type": "note", 
                            "channel": 0
                        }, 
                        {
                            "pitch": 49, 
                            "t0": 82000.0, 
                            "v": 118, 
                            "dur": 1600.0, 
                            "type": "note", 
                            "channel": 0
                        }, 
                        {
                            "pitch": 61, 
                            "t0": 82000.0, 
                            "v": 76, 
                            "dur": 1600.0, 
                            "type": "note", 
                            "channel": 0
                        }
                    ]
                ], 
                [
                    84000.0, 
                    [
                        {
                            "pitch": 23, 
                            "t0": 84000.0, 
                            "v": 25, 
                            "dur": 400.0, 
                            "type": "note", 
                            "channel": 0
                        }, 
                        {
                            "pitch": 35, 
                            "t0": 84000.0, 
                            "v": 95, 
                            "dur": 400.0, 
                            "type": "note", 
                            "channel": 0
                        }, 
                        {
                            "pitch": 47, 
                            "t0": 84000.0, 
                            "v": 119, 
                            "dur": 400.0, 
                            "type": "note", 
                            "channel": 0
                        }, 
                        {
                            "pitch": 59, 
                            "t0": 84000.0, 
                            "v": 86, 
                            "dur": 400.0, 
                            "type": "note", 
                            "channel": 0
                        }, 
                        {
                            "pitch": 71, 
                            "t0": 84000.0, 
                            "v": 11, 
                            "dur": 400.0, 
                            "type": "note", 
                            "channel": 0
                        }
                    ]
                ], 
                [
                    84500.0, 
                    [
                        {
                            "pitch": 24, 
                            "t0": 84500.0, 
                            "v": 32, 
                            "dur": 400.0, 
                            "type": "note", 
                            "channel": 0
                        }, 
                        {
                            "pitch": 36, 
                            "t0": 84500.0, 
                            "v": 99, 
                            "dur": 400.0, 
                            "type": "note", 
                            "channel": 0
                        }, 
                        {
                            "pitch": 48, 
                            "t0": 84500.0, 
                            "v": 119, 
                            "dur": 400.0, 
                            "type": "note", 
                            "channel": 0
                        }, 
                        {
                            "pitch": 60, 
                            "t0": 84500.0, 
                            "v": 81, 
                            "dur": 400.0, 
                            "type": "note", 
                            "channel": 0
                        }, 
                        {
                            "pitch": 72, 
                            "t0": 84500.0, 
                            "v": 4, 
                            "dur": 400.0, 
                            "type": "note", 
                            "channel": 0
                        }
                    ]
                ], 
                [
                    85000.0, 
                    [
                        {
                            "pitch": 25, 
                            "t0": 85000.0, 
                            "v": 39, 
                            "dur": 400.0, 
                            "type": "note", 
                            "channel": 0
                        }, 
                        {
                            "pitch": 37, 
                            "t0": 85000.0, 
                            "v": 103, 
                            "dur": 400.0, 
                            "type": "note", 
                            "channel": 0
                        }, 
                        {
                            "pitch": 49, 
                            "t0": 85000.0, 
                            "v": 118, 
                            "dur": 400.0, 
                            "type": "note", 
                            "channel": 0
                        }, 
                        {
                            "pitch": 61, 
                            "t0": 85000.0, 
                            "v": 76, 
                            "dur": 400.0, 
                            "type": "note", 
                            "channel": 0
                        }
                    ]
                ], 
                [
                    85500.0, 
                    [
                        {
                            "pitch": 26, 
                            "t0": 85500.0, 
                            "v": 45, 
                            "dur": 1600.0, 
                            "type": "note", 
                            "channel": 0
                        }, 
                        {
                            "pitch": 38, 
                            "t0": 85500.0, 
                            "v": 106, 
                            "dur": 1600.0, 
                            "type": "note", 
                            "channel": 0
                        }, 
                        {
                            "pitch": 50, 
                            "t0": 85500.0, 
                            "v": 116, 
                            "dur": 1600.0, 
                            "type": "note", 
                            "channel": 0
                        }, 
                        {
                            "pitch": 62, 
                            "t0": 85500.0, 
                            "v": 70, 
                            "dur": 1600.0, 
                            "type": "note", 
                            "channel": 0
                        }
                    ]
                ], 
                [
                    87500.0, 
                    [
                        {
                            "pitch": 24, 
                            "t0": 87500.0, 
                            "v": 32, 
                            "dur": 400.0, 
                            "type": "note", 
                            "channel": 0
                        }, 
                        {
                            "pitch": 36, 
                            "t0": 87500.0, 
                            "v": 99, 
                            "dur": 400.0, 
                            "type": "note", 
                            "channel": 0
                        }, 
                        {
                            "pitch": 48, 
                            "t0": 87500.0, 
                            "v": 119, 
                            "dur": 400.0, 
                            "type": "note", 
                            "channel": 0
                        }, 
                        {
                            "pitch": 60, 
                            "t0": 87500.0, 
                            "v": 81, 
                            "dur": 400.0, 
                            "type": "note", 
                            "channel": 0
                        }, 
                        {
                            "pitch": 72, 
                            "t0": 87500.0, 
                            "v": 4, 
                            "dur": 400.0, 
                            "type": "note", 
                            "channel": 0
                        }
                    ]
                ], 
                [
                    88000.0, 
                    [
                        {
                            "pitch": 25, 
                            "t0": 88000.0, 
                            "v": 39, 
                            "dur": 400.0, 
                            "type": "note", 
                            "channel": 0
                        }, 
                        {
                            "pitch": 37, 
                            "t0": 88000.0, 
                            "v": 103, 
                            "dur": 400.0, 
                            "type": "note", 
                            "channel": 0
                        }, 
                        {
                            "pitch": 49, 
                            "t0": 88000.0, 
                            "v": 118, 
                            "dur": 400.0, 
                            "type": "note", 
                            "channel": 0
                        }, 
                        {
                            "pitch": 61, 
                            "t0": 88000.0, 
                            "v": 76, 
                            "dur": 400.0, 
                            "type": "note", 
                            "channel": 0
                        }
                    ]
                ], 
                [
                    88500.0, 
                    [
                        {
                            "pitch": 26, 
                            "t0": 88500.0, 
                            "v": 45, 
                            "dur": 400.0, 
                            "type": "note", 
                            "channel": 0
                        }, 
                        {
                            "pitch": 38, 
                            "t0": 88500.0, 
                            "v": 106, 
                            "dur": 400.0, 
                            "type": "note", 
                            "channel": 0
                        }, 
                        {
                            "pitch": 50, 
                            "t0": 88500.0, 
                            "v": 116, 
                            "dur": 400.0, 
                            "type": "note", 
                            "channel": 0
                        }, 
                        {
                            "pitch": 62, 
                            "t0": 88500.0, 
                            "v": 70, 
                            "dur": 400.0, 
                            "type": "note", 
                            "channel": 0
                        }
                    ]
                ], 
                [
                    89000.0, 
                    [
                        {
                            "pitch": 27, 
                            "t0": 89000.0, 
                            "v": 52, 
                            "dur": 1600.0, 
                            "type": "note", 
                            "channel": 0
                        }, 
                        {
                            "pitch": 39, 
                            "t0": 89000.0, 
                            "v": 109, 
                            "dur": 1600.0, 
                            "type": "note", 
                            "channel": 0
                        }, 
                        {
                            "pitch": 51, 
                            "t0": 89000.0, 
                            "v": 114, 
                            "dur": 1600.0, 
                            "type": "note", 
                            "channel": 0
                        }, 
                        {
                            "pitch": 63, 
                            "t0": 89000.0, 
                            "v": 64, 
                            "dur": 1600.0, 
                            "type": "note", 
                            "channel": 0
                        }
                    ]
                ], 
                [
                    91000.0, 
                    [
                        {
                            "pitch": 25, 
                            "t0": 91000.0, 
                            "v": 39, 
                            "dur": 400.0, 
                            "type": "note", 
                            "channel": 0
                        }, 
                        {
                            "pitch": 37, 
                            "t0": 91000.0, 
                            "v": 103, 
                            "dur": 400.0, 
                            "type": "note", 
                            "channel": 0
                        }, 
                        {
                            "pitch": 49, 
                            "t0": 91000.0, 
                            "v": 118, 
                            "dur": 400.0, 
                            "type": "note", 
                            "channel": 0
                        }, 
                        {
                            "pitch": 61, 
                            "t0": 91000.0, 
                            "v": 76, 
                            "dur": 400.0, 
                            "type": "note", 
                            "channel": 0
                        }
                    ]
                ], 
                [
                    91500.0, 
                    [
                        {
                            "pitch": 26, 
                            "t0": 91500.0, 
                            "v": 45, 
                            "dur": 400.0, 
                            "type": "note", 
                            "channel": 0
                        }, 
                        {
                            "pitch": 38, 
                            "t0": 91500.0, 
                            "v": 106, 
                            "dur": 400.0, 
                            "type": "note", 
                            "channel": 0
                        }, 
                        {
                            "pitch": 50, 
                            "t0": 91500.0, 
                            "v": 116, 
                            "dur": 400.0, 
                            "type": "note", 
                            "channel": 0
                        }, 
                        {
                            "pitch": 62, 
                            "t0": 91500.0, 
                            "v": 70, 
                            "dur": 400.0, 
                            "type": "note", 
                            "channel": 0
                        }
                    ]
                ], 
                [
                    92000.0, 
                    [
                        {
                            "pitch": 27, 
                            "t0": 92000.0, 
                            "v": 52, 
                            "dur": 400.0, 
                            "type": "note", 
                            "channel": 0
                        }, 
                        {
                            "pitch": 39, 
                            "t0": 92000.0, 
                            "v": 109, 
                            "dur": 400.0, 
                            "type": "note", 
                            "channel": 0
                        }, 
                        {
                            "pitch": 51, 
                            "t0": 92000.0, 
                            "v": 114, 
                            "dur": 400.0, 
                            "type": "note", 
                            "channel": 0
                        }, 
                        {
                            "pitch": 63, 
                            "t0": 92000.0, 
                            "v": 64, 
                            "dur": 400.0, 
                            "type": "note", 
                            "channel": 0
                        }
                    ]
                ], 
                [
                    92500.0, 
                    [
                        {
                            "pitch": 28, 
                            "t0": 92500.0, 
                            "v": 58, 
                            "dur": 1600.0, 
                            "type": "note", 
                            "channel": 0
                        }, 
                        {
                            "pitch": 40, 
                            "t0": 92500.0, 
                            "v": 112, 
                            "dur": 1600.0, 
                            "type": "note", 
                            "channel": 0
                        }, 
                        {
                            "pitch": 52, 
                            "t0": 92500.0, 
                            "v": 112, 
                            "dur": 1600.0, 
                            "type": "note", 
                            "channel": 0
                        }, 
                        {
                            "pitch": 64, 
                            "t0": 92500.0, 
                            "v": 58, 
                            "dur": 1600.0, 
                            "type": "note", 
                            "channel": 0
                        }
                    ]
                ], 
                [
                    94500.0, 
                    [
                        {
                            "pitch": 26, 
                            "t0": 94500.0, 
                            "v": 45, 
                            "dur": 400.0, 
                            "type": "note", 
                            "channel": 0
                        }, 
                        {
                            "pitch": 38, 
                            "t0": 94500.0, 
                            "v": 106, 
                            "dur": 400.0, 
                            "type": "note", 
                            "channel": 0
                        }, 
                        {
                            "pitch": 50, 
                            "t0": 94500.0, 
                            "v": 116, 
                            "dur": 400.0, 
                            "type": "note", 
                            "channel": 0
                        }, 
                        {
                            "pitch": 62, 
                            "t0": 94500.0, 
                            "v": 70, 
                            "dur": 400.0, 
                            "type": "note", 
                            "channel": 0
                        }
                    ]
                ], 
                [
                    95000.0, 
                    [
                        {
                            "pitch": 27, 
                            "t0": 95000.0, 
                            "v": 52, 
                            "dur": 400.0, 
                            "type": "note", 
                            "channel": 0
                        }, 
                        {
                            "pitch": 39, 
                            "t0": 95000.0, 
                            "v": 109, 
                            "dur": 400.0, 
                            "type": "note", 
                            "channel": 0
                        }, 
                        {
                            "pitch": 51, 
                            "t0": 95000.0, 
                            "v": 114, 
                            "dur": 400.0, 
                            "type": "note", 
                            "channel": 0
                        }, 
                        {
                            "pitch": 63, 
                            "t0": 95000.0, 
                            "v": 64, 
                            "dur": 400.0, 
                            "type": "note", 
                            "channel": 0
                        }
                    ]
                ], 
                [
                    95500.0, 
                    [
                        {
                            "pitch": 28, 
                            "t0": 95500.0, 
                            "v": 58, 
                            "dur": 400.0, 
                            "type": "note", 
                            "channel": 0
                        }, 
                        {
                            "pitch": 40, 
                            "t0": 95500.0, 
                            "v": 112, 
                            "dur": 400.0, 
                            "type": "note", 
                            "channel": 0
                        }, 
                        {
                            "pitch": 52, 
                            "t0": 95500.0, 
                            "v": 112, 
                            "dur": 400.0, 
                            "type": "note", 
                            "channel": 0
                        }, 
                        {
                            "pitch": 64, 
                            "t0": 95500.0, 
                            "v": 58, 
                            "dur": 400.0, 
                            "type": "note", 
                            "channel": 0
                        }
                    ]
                ], 
                [
                    96000.0, 
                    [
                        {
                            "pitch": 29, 
                            "t0": 96000.0, 
                            "v": 64, 
                            "dur": 1600.0, 
                            "type": "note", 
                            "channel": 0
                        }, 
                        {
                            "pitch": 41, 
                            "t0": 96000.0, 
                            "v": 114, 
                            "dur": 1600.0, 
                            "type": "note", 
                            "channel": 0
                        }, 
                        {
                            "pitch": 53, 
                            "t0": 96000.0, 
                            "v": 109, 
                            "dur": 1600.0, 
                            "type": "note", 
                            "channel": 0
                        }, 
                        {
                            "pitch": 65, 
                            "t0": 96000.0, 
                            "v": 52, 
                            "dur": 1600.0, 
                            "type": "note", 
                            "channel": 0
                        }
                    ]
                ], 
                [
                    98000.0, 
                    [
                        {
                            "pitch": 27, 
                            "t0": 98000.0, 
                            "v": 52, 
                            "dur": 400.0, 
                            "type": "note", 
                            "channel": 0
                        }, 
                        {
                            "pitch": 39, 
                            "t0": 98000.0, 
                            "v": 109, 
                            "dur": 400.0, 
                            "type": "note", 
                            "channel": 0
                        }, 
                        {
                            "pitch": 51, 
                            "t0": 98000.0, 
                            "v": 114, 
                            "dur": 400.0, 
                            "type": "note", 
                            "channel": 0
                        }, 
                        {
                            "pitch": 63, 
                            "t0": 98000.0, 
                            "v": 64, 
                            "dur": 400.0, 
                            "type": "note", 
                            "channel": 0
                        }
                    ]
                ], 
                [
                    98500.0, 
                    [
                        {
                            "pitch": 28, 
                            "t0": 98500.0, 
                            "v": 58, 
                            "dur": 400.0, 
                            "type": "note", 
                            "channel": 0
                        }, 
                        {
                            "pitch": 40, 
                            "t0": 98500.0, 
                            "v": 112, 
                            "dur": 400.0, 
                            "type": "note", 
                            "channel": 0
                        }, 
                        {
                            "pitch": 52, 
                            "t0": 98500.0, 
                            "v": 112, 
                            "dur": 400.0, 
                            "type": "note", 
                            "channel": 0
                        }, 
                        {
                            "pitch": 64, 
                            "t0": 98500.0, 
                            "v": 58, 
                            "dur": 400.0, 
                            "type": "note", 
                            "channel": 0
                        }
                    ]
                ], 
                [
                    99000.0, 
                    [
                        {
                            "pitch": 29, 
                            "t0": 99000.0, 
                            "v": 64, 
                            "dur": 400.0, 
                            "type": "note", 
                            "channel": 0
                        }, 
                        {
                            "pitch": 41, 
                            "t0": 99000.0, 
                            "v": 114, 
                            "dur": 400.0, 
                            "type": "note", 
                            "channel": 0
                        }, 
                        {
                            "pitch": 53, 
                            "t0": 99000.0, 
                            "v": 109, 
                            "dur": 400.0, 
                            "type": "note", 
                            "channel": 0
                        }, 
                        {
                            "pitch": 65, 
                            "t0": 99000.0, 
                            "v": 52, 
                            "dur": 400.0, 
                            "type": "note", 
                            "channel": 0
                        }
                    ]
                ], 
                [
                    99500.0, 
                    [
                        {
                            "pitch": 30, 
                            "t0": 99500.0, 
                            "v": 70, 
                            "dur": 1600.0, 
                            "type": "note", 
                            "channel": 0
                        }, 
                        {
                            "pitch": 42, 
                            "t0": 99500.0, 
                            "v": 116, 
                            "dur": 1600.0, 
                            "type": "note", 
                            "channel": 0
                        }, 
                        {
                            "pitch": 54, 
                            "t0": 99500.0, 
                            "v": 106, 
                            "dur": 1600.0, 
                            "type": "note", 
                            "channel": 0
                        }, 
                        {
                            "pitch": 66, 
                            "t0": 99500.0, 
                            "v": 45, 
                            "dur": 1600.0, 
                            "type": "note", 
                            "channel": 0
                        }
                    ]
                ], 
                [
                    101500.0, 
                    [
                        {
                            "pitch": 28, 
                            "t0": 101500.0, 
                            "v": 58, 
                            "dur": 400.0, 
                            "type": "note", 
                            "channel": 0
                        }, 
                        {
                            "pitch": 40, 
                            "t0": 101500.0, 
                            "v": 112, 
                            "dur": 400.0, 
                            "type": "note", 
                            "channel": 0
                        }, 
                        {
                            "pitch": 52, 
                            "t0": 101500.0, 
                            "v": 112, 
                            "dur": 400.0, 
                            "type": "note", 
                            "channel": 0
                        }, 
                        {
                            "pitch": 64, 
                            "t0": 101500.0, 
                            "v": 58, 
                            "dur": 400.0, 
                            "type": "note", 
                            "channel": 0
                        }
                    ]
                ], 
                [
                    102000.0, 
                    [
                        {
                            "pitch": 29, 
                            "t0": 102000.0, 
                            "v": 64, 
                            "dur": 400.0, 
                            "type": "note", 
                            "channel": 0
                        }, 
                        {
                            "pitch": 41, 
                            "t0": 102000.0, 
                            "v": 114, 
                            "dur": 400.0, 
                            "type": "note", 
                            "channel": 0
                        }, 
                        {
                            "pitch": 53, 
                            "t0": 102000.0, 
                            "v": 109, 
                            "dur": 400.0, 
                            "type": "note", 
                            "channel": 0
                        }, 
                        {
                            "pitch": 65, 
                            "t0": 102000.0, 
                            "v": 52, 
                            "dur": 400.0, 
                            "type": "note", 
                            "channel": 0
                        }
                    ]
                ], 
                [
                    102500.0, 
                    [
                        {
                            "pitch": 30, 
                            "t0": 102500.0, 
                            "v": 70, 
                            "dur": 400.0, 
                            "type": "note", 
                            "channel": 0
                        }, 
                        {
                            "pitch": 42, 
                            "t0": 102500.0, 
                            "v": 116, 
                            "dur": 400.0, 
                            "type": "note", 
                            "channel": 0
                        }, 
                        {
                            "pitch": 54, 
                            "t0": 102500.0, 
                            "v": 106, 
                            "dur": 400.0, 
                            "type": "note", 
                            "channel": 0
                        }, 
                        {
                            "pitch": 66, 
                            "t0": 102500.0, 
                            "v": 45, 
                            "dur": 400.0, 
                            "type": "note", 
                            "channel": 0
                        }
                    ]
                ], 
                [
                    103000.0, 
                    [
                        {
                            "pitch": 31, 
                            "t0": 103000.0, 
                            "v": 76, 
                            "dur": 1600.0, 
                            "type": "note", 
                            "channel": 0
                        }, 
                        {
                            "pitch": 43, 
                            "t0": 103000.0, 
                            "v": 118, 
                            "dur": 1600.0, 
                            "type": "note", 
                            "channel": 0
                        }, 
                        {
                            "pitch": 55, 
                            "t0": 103000.0, 
                            "v": 103, 
                            "dur": 1600.0, 
                            "type": "note", 
                            "channel": 0
                        }, 
                        {
                            "pitch": 67, 
                            "t0": 103000.0, 
                            "v": 39, 
                            "dur": 1600.0, 
                            "type": "note", 
                            "channel": 0
                        }
                    ]
                ], 
                [
                    105000.0, 
                    [
                        {
                            "pitch": 29, 
                            "t0": 105000.0, 
                            "v": 64, 
                            "dur": 400.0, 
                            "type": "note", 
                            "channel": 0
                        }, 
                        {
                            "pitch": 41, 
                            "t0": 105000.0, 
                            "v": 114, 
                            "dur": 400.0, 
                            "type": "note", 
                            "channel": 0
                        }, 
                        {
                            "pitch": 53, 
                            "t0": 105000.0, 
                            "v": 109, 
                            "dur": 400.0, 
                            "type": "note", 
                            "channel": 0
                        }, 
                        {
                            "pitch": 65, 
                            "t0": 105000.0, 
                            "v": 52, 
                            "dur": 400.0, 
                            "type": "note", 
                            "channel": 0
                        }
                    ]
                ], 
                [
                    105500.0, 
                    [
                        {
                            "pitch": 30, 
                            "t0": 105500.0, 
                            "v": 70, 
                            "dur": 400.0, 
                            "type": "note", 
                            "channel": 0
                        }, 
                        {
                            "pitch": 42, 
                            "t0": 105500.0, 
                            "v": 116, 
                            "dur": 400.0, 
                            "type": "note", 
                            "channel": 0
                        }, 
                        {
                            "pitch": 54, 
                            "t0": 105500.0, 
                            "v": 106, 
                            "dur": 400.0, 
                            "type": "note", 
                            "channel": 0
                        }, 
                        {
                            "pitch": 66, 
                            "t0": 105500.0, 
                            "v": 45, 
                            "dur": 400.0, 
                            "type": "note", 
                            "channel": 0
                        }
                    ]
                ], 
                [
                    106000.0, 
                    [
                        {
                            "pitch": 31, 
                            "t0": 106000.0, 
                            "v": 76, 
                            "dur": 400.0, 
                            "type": "note", 
                            "channel": 0
                        }, 
                        {
                            "pitch": 43, 
                            "t0": 106000.0, 
                            "v": 118, 
                            "dur": 400.0, 
                            "type": "note", 
                            "channel": 0
                        }, 
                        {
                            "pitch": 55, 
                            "t0": 106000.0, 
                            "v": 103, 
                            "dur": 400.0, 
                            "type": "note", 
                            "channel": 0
                        }, 
                        {
                            "pitch": 67, 
                            "t0": 106000.0, 
                            "v": 39, 
                            "dur": 400.0, 
                            "type": "note", 
                            "channel": 0
                        }
                    ]
                ], 
                [
                    106500.0, 
                    [
                        {
                            "pitch": 32, 
                            "t0": 106500.0, 
                            "v": 81, 
                            "dur": 1600.0, 
                            "type": "note", 
                            "channel": 0
                        }, 
                        {
                            "pitch": 44, 
                            "t0": 106500.0, 
                            "v": 119, 
                            "dur": 1600.0, 
                            "type": "note", 
                            "channel": 0
                        }, 
                        {
                            "pitch": 56, 
                            "t0": 106500.0, 
                            "v": 99, 
                            "dur": 1600.0, 
                            "type": "note", 
                            "channel": 0
                        }, 
                        {
                            "pitch": 68, 
                            "t0": 106500.0, 
                            "v": 32, 
                            "dur": 1600.0, 
                            "type": "note", 
                            "channel": 0
                        }
                    ]
                ], 
                [
                    108500.0, 
                    [
                        {
                            "pitch": 30, 
                            "t0": 108500.0, 
                            "v": 70, 
                            "dur": 400.0, 
                            "type": "note", 
                            "channel": 0
                        }, 
                        {
                            "pitch": 42, 
                            "t0": 108500.0, 
                            "v": 116, 
                            "dur": 400.0, 
                            "type": "note", 
                            "channel": 0
                        }, 
                        {
                            "pitch": 54, 
                            "t0": 108500.0, 
                            "v": 106, 
                            "dur": 400.0, 
                            "type": "note", 
                            "channel": 0
                        }, 
                        {
                            "pitch": 66, 
                            "t0": 108500.0, 
                            "v": 45, 
                            "dur": 400.0, 
                            "type": "note", 
                            "channel": 0
                        }
                    ]
                ], 
                [
                    109000.0, 
                    [
                        {
                            "pitch": 31, 
                            "t0": 109000.0, 
                            "v": 76, 
                            "dur": 400.0, 
                            "type": "note", 
                            "channel": 0
                        }, 
                        {
                            "pitch": 43, 
                            "t0": 109000.0, 
                            "v": 118, 
                            "dur": 400.0, 
                            "type": "note", 
                            "channel": 0
                        }, 
                        {
                            "pitch": 55, 
                            "t0": 109000.0, 
                            "v": 103, 
                            "dur": 400.0, 
                            "type": "note", 
                            "channel": 0
                        }, 
                        {
                            "pitch": 67, 
                            "t0": 109000.0, 
                            "v": 39, 
                            "dur": 400.0, 
                            "type": "note", 
                            "channel": 0
                        }
                    ]
                ], 
                [
                    109500.0, 
                    [
                        {
                            "pitch": 32, 
                            "t0": 109500.0, 
                            "v": 81, 
                            "dur": 400.0, 
                            "type": "note", 
                            "channel": 0
                        }, 
                        {
                            "pitch": 44, 
                            "t0": 109500.0, 
                            "v": 119, 
                            "dur": 400.0, 
                            "type": "note", 
                            "channel": 0
                        }, 
                        {
                            "pitch": 56, 
                            "t0": 109500.0, 
                            "v": 99, 
                            "dur": 400.0, 
                            "type": "note", 
                            "channel": 0
                        }, 
                        {
                            "pitch": 68, 
                            "t0": 109500.0, 
                            "v": 32, 
                            "dur": 400.0, 
                            "type": "note", 
                            "channel": 0
                        }
                    ]
                ], 
                [
                    110000.0, 
                    [
                        {
                            "pitch": 33, 
                            "t0": 110000.0, 
                            "v": 86, 
                            "dur": 1600.0, 
                            "type": "note", 
                            "channel": 0
                        }, 
                        {
                            "pitch": 45, 
                            "t0": 110000.0, 
                            "v": 119, 
                            "dur": 1600.0, 
                            "type": "note", 
                            "channel": 0
                        }, 
                        {
                            "pitch": 57, 
                            "t0": 110000.0, 
                            "v": 95, 
                            "dur": 1600.0, 
                            "type": "note", 
                            "channel": 0
                        }, 
                        {
                            "pitch": 69, 
                            "t0": 110000.0, 
                            "v": 25, 
                            "dur": 1600.0, 
                            "type": "note", 
                            "channel": 0
                        }
                    ]
                ], 
                [
                    112000.0, 
                    [
                        {
                            "pitch": 31, 
                            "t0": 112000.0, 
                            "v": 76, 
                            "dur": 400.0, 
                            "type": "note", 
                            "channel": 0
                        }, 
                        {
                            "pitch": 43, 
                            "t0": 112000.0, 
                            "v": 118, 
                            "dur": 400.0, 
                            "type": "note", 
                            "channel": 0
                        }, 
                        {
                            "pitch": 55, 
                            "t0": 112000.0, 
                            "v": 103, 
                            "dur": 400.0, 
                            "type": "note", 
                            "channel": 0
                        }, 
                        {
                            "pitch": 67, 
                            "t0": 112000.0, 
                            "v": 39, 
                            "dur": 400.0, 
                            "type": "note", 
                            "channel": 0
                        }
                    ]
                ], 
                [
                    112500.0, 
                    [
                        {
                            "pitch": 32, 
                            "t0": 112500.0, 
                            "v": 81, 
                            "dur": 400.0, 
                            "type": "note", 
                            "channel": 0
                        }, 
                        {
                            "pitch": 44, 
                            "t0": 112500.0, 
                            "v": 119, 
                            "dur": 400.0, 
                            "type": "note", 
                            "channel": 0
                        }, 
                        {
                            "pitch": 56, 
                            "t0": 112500.0, 
                            "v": 99, 
                            "dur": 400.0, 
                            "type": "note", 
                            "channel": 0
                        }, 
                        {
                            "pitch": 68, 
                            "t0": 112500.0, 
                            "v": 32, 
                            "dur": 400.0, 
                            "type": "note", 
                            "channel": 0
                        }
                    ]
                ], 
                [
                    113000.0, 
                    [
                        {
                            "pitch": 33, 
                            "t0": 113000.0, 
                            "v": 86, 
                            "dur": 400.0, 
                            "type": "note", 
                            "channel": 0
                        }, 
                        {
                            "pitch": 45, 
                            "t0": 113000.0, 
                            "v": 119, 
                            "dur": 400.0, 
                            "type": "note", 
                            "channel": 0
                        }, 
                        {
                            "pitch": 57, 
                            "t0": 113000.0, 
                            "v": 95, 
                            "dur": 400.0, 
                            "type": "note", 
                            "channel": 0
                        }, 
                        {
                            "pitch": 69, 
                            "t0": 113000.0, 
                            "v": 25, 
                            "dur": 400.0, 
                            "type": "note", 
                            "channel": 0
                        }
                    ]
                ], 
                [
                    113500.0, 
                    [
                        {
                            "pitch": 34, 
                            "t0": 113500.0, 
                            "v": 91, 
                            "dur": 1600.0, 
                            "type": "note", 
                            "channel": 0
                        }, 
                        {
                            "pitch": 46, 
                            "t0": 113500.0, 
                            "v": 120, 
                            "dur": 1600.0, 
                            "type": "note", 
                            "channel": 0
                        }, 
                        {
                            "pitch": 58, 
                            "t0": 113500.0, 
                            "v": 91, 
                            "dur": 1600.0, 
                            "type": "note", 
                            "channel": 0
                        }, 
                        {
                            "pitch": 70, 
                            "t0": 113500.0, 
                            "v": 18, 
                            "dur": 1600.0, 
                            "type": "note", 
                            "channel": 0
                        }
                    ]
                ], 
                [
                    115500.0, 
                    [
                        {
                            "pitch": 32, 
                            "t0": 115500.0, 
                            "v": 81, 
                            "dur": 400.0, 
                            "type": "note", 
                            "channel": 0
                        }, 
                        {
                            "pitch": 44, 
                            "t0": 115500.0, 
                            "v": 119, 
                            "dur": 400.0, 
                            "type": "note", 
                            "channel": 0
                        }, 
                        {
                            "pitch": 56, 
                            "t0": 115500.0, 
                            "v": 99, 
                            "dur": 400.0, 
                            "type": "note", 
                            "channel": 0
                        }, 
                        {
                            "pitch": 68, 
                            "t0": 115500.0, 
                            "v": 32, 
                            "dur": 400.0, 
                            "type": "note", 
                            "channel": 0
                        }
                    ]
                ], 
                [
                    116000.0, 
                    [
                        {
                            "pitch": 33, 
                            "t0": 116000.0, 
                            "v": 86, 
                            "dur": 400.0, 
                            "type": "note", 
                            "channel": 0
                        }, 
                        {
                            "pitch": 45, 
                            "t0": 116000.0, 
                            "v": 119, 
                            "dur": 400.0, 
                            "type": "note", 
                            "channel": 0
                        }, 
                        {
                            "pitch": 57, 
                            "t0": 116000.0, 
                            "v": 95, 
                            "dur": 400.0, 
                            "type": "note", 
                            "channel": 0
                        }, 
                        {
                            "pitch": 69, 
                            "t0": 116000.0, 
                            "v": 25, 
                            "dur": 400.0, 
                            "type": "note", 
                            "channel": 0
                        }
                    ]
                ], 
                [
                    116500.0, 
                    [
                        {
                            "pitch": 34, 
                            "t0": 116500.0, 
                            "v": 91, 
                            "dur": 400.0, 
                            "type": "note", 
                            "channel": 0
                        }, 
                        {
                            "pitch": 46, 
                            "t0": 116500.0, 
                            "v": 120, 
                            "dur": 400.0, 
                            "type": "note", 
                            "channel": 0
                        }, 
                        {
                            "pitch": 58, 
                            "t0": 116500.0, 
                            "v": 91, 
                            "dur": 400.0, 
                            "type": "note", 
                            "channel": 0
                        }, 
                        {
                            "pitch": 70, 
                            "t0": 116500.0, 
                            "v": 18, 
                            "dur": 400.0, 
                            "type": "note", 
                            "channel": 0
                        }
                    ]
                ], 
                [
                    117000.0, 
                    [
                        {
                            "pitch": 23, 
                            "t0": 117000.0, 
                            "v": 25, 
                            "dur": 1600.0, 
                            "type": "note", 
                            "channel": 0
                        }, 
                        {
                            "pitch": 35, 
                            "t0": 117000.0, 
                            "v": 95, 
                            "dur": 1600.0, 
                            "type": "note", 
                            "channel": 0
                        }, 
                        {
                            "pitch": 47, 
                            "t0": 117000.0, 
                            "v": 119, 
                            "dur": 1600.0, 
                            "type": "note", 
                            "channel": 0
                        }, 
                        {
                            "pitch": 59, 
                            "t0": 117000.0, 
                            "v": 86, 
                            "dur": 1600.0, 
                            "type": "note", 
                            "channel": 0
                        }, 
                        {
                            "pitch": 71, 
                            "t0": 117000.0, 
                            "v": 11, 
                            "dur": 1600.0, 
                            "type": "note", 
                            "channel": 0
                        }
                    ]
                ], 
                [
                    119000.0, 
                    [
                        {
                            "pitch": 33, 
                            "t0": 119000.0, 
                            "v": 86, 
                            "dur": 400.0, 
                            "type": "note", 
                            "channel": 0
                        }, 
                        {
                            "pitch": 45, 
                            "t0": 119000.0, 
                            "v": 119, 
                            "dur": 400.0, 
                            "type": "note", 
                            "channel": 0
                        }, 
                        {
                            "pitch": 57, 
                            "t0": 119000.0, 
                            "v": 95, 
                            "dur": 400.0, 
                            "type": "note", 
                            "channel": 0
                        }, 
                        {
                            "pitch": 69, 
                            "t0": 119000.0, 
                            "v": 25, 
                            "dur": 400.0, 
                            "type": "note", 
                            "channel": 0
                        }
                    ]
                ], 
                [
                    119500.0, 
                    [
                        {
                            "pitch": 34, 
                            "t0": 119500.0, 
                            "v": 91, 
                            "dur": 400.0, 
                            "type": "note", 
                            "channel": 0
                        }, 
                        {
                            "pitch": 46, 
                            "t0": 119500.0, 
                            "v": 120, 
                            "dur": 400.0, 
                            "type": "note", 
                            "channel": 0
                        }, 
                        {
                            "pitch": 58, 
                            "t0": 119500.0, 
                            "v": 91, 
                            "dur": 400.0, 
                            "type": "note", 
                            "channel": 0
                        }, 
                        {
                            "pitch": 70, 
                            "t0": 119500.0, 
                            "v": 18, 
                            "dur": 400.0, 
                            "type": "note", 
                            "channel": 0
                        }
                    ]
                ], 
                [
                    120000.0, 
                    [
                        {
                            "pitch": 23, 
                            "t0": 120000.0, 
                            "v": 25, 
                            "dur": 400.0, 
                            "type": "note", 
                            "channel": 0
                        }, 
                        {
                            "pitch": 35, 
                            "t0": 120000.0, 
                            "v": 95, 
                            "dur": 400.0, 
                            "type": "note", 
                            "channel": 0
                        }, 
                        {
                            "pitch": 47, 
                            "t0": 120000.0, 
                            "v": 119, 
                            "dur": 400.0, 
                            "type": "note", 
                            "channel": 0
                        }, 
                        {
                            "pitch": 59, 
                            "t0": 120000.0, 
                            "v": 86, 
                            "dur": 400.0, 
                            "type": "note", 
                            "channel": 0
                        }, 
                        {
                            "pitch": 71, 
                            "t0": 120000.0, 
                            "v": 11, 
                            "dur": 400.0, 
                            "type": "note", 
                            "channel": 0
                        }
                    ]
                ], 
                [
                    120500.0, 
                    [
                        {
                            "pitch": 24, 
                            "t0": 120500.0, 
                            "v": 32, 
                            "dur": 1600.0, 
                            "type": "note", 
                            "channel": 0
                        }, 
                        {
                            "pitch": 36, 
                            "t0": 120500.0, 
                            "v": 99, 
                            "dur": 1600.0, 
                            "type": "note", 
                            "channel": 0
                        }, 
                        {
                            "pitch": 48, 
                            "t0": 120500.0, 
                            "v": 119, 
                            "dur": 1600.0, 
                            "type": "note", 
                            "channel": 0
                        }, 
                        {
                            "pitch": 60, 
                            "t0": 120500.0, 
                            "v": 81, 
                            "dur": 1600.0, 
                            "type": "note", 
                            "channel": 0
                        }, 
                        {
                            "pitch": 72, 
                            "t0": 120500.0, 
                            "v": 4, 
                            "dur": 1600.0, 
                            "type": "note", 
                            "channel": 0
                        }
                    ]
                ], 
                [
                    122500.0, 
                    [
                        {
                            "pitch": 34, 
                            "t0": 122500.0, 
                            "v": 91, 
                            "dur": 400.0, 
                            "type": "note", 
                            "channel": 0
                        }, 
                        {
                            "pitch": 46, 
                            "t0": 122500.0, 
                            "v": 120, 
                            "dur": 400.0, 
                            "type": "note", 
                            "channel": 0
                        }, 
                        {
                            "pitch": 58, 
                            "t0": 122500.0, 
                            "v": 91, 
                            "dur": 400.0, 
                            "type": "note", 
                            "channel": 0
                        }, 
                        {
                            "pitch": 70, 
                            "t0": 122500.0, 
                            "v": 18, 
                            "dur": 400.0, 
                            "type": "note", 
                            "channel": 0
                        }
                    ]
                ], 
                [
                    123000.0, 
                    [
                        {
                            "pitch": 23, 
                            "t0": 123000.0, 
                            "v": 25, 
                            "dur": 400.0, 
                            "type": "note", 
                            "channel": 0
                        }, 
                        {
                            "pitch": 35, 
                            "t0": 123000.0, 
                            "v": 95, 
                            "dur": 400.0, 
                            "type": "note", 
                            "channel": 0
                        }, 
                        {
                            "pitch": 47, 
                            "t0": 123000.0, 
                            "v": 119, 
                            "dur": 400.0, 
                            "type": "note", 
                            "channel": 0
                        }, 
                        {
                            "pitch": 59, 
                            "t0": 123000.0, 
                            "v": 86, 
                            "dur": 400.0, 
                            "type": "note", 
                            "channel": 0
                        }, 
                        {
                            "pitch": 71, 
                            "t0": 123000.0, 
                            "v": 11, 
                            "dur": 400.0, 
                            "type": "note", 
                            "channel": 0
                        }
                    ]
                ], 
                [
                    123500.0, 
                    [
                        {
                            "pitch": 24, 
                            "t0": 123500.0, 
                            "v": 32, 
                            "dur": 400.0, 
                            "type": "note", 
                            "channel": 0
                        }, 
                        {
                            "pitch": 36, 
                            "t0": 123500.0, 
                            "v": 99, 
                            "dur": 400.0, 
                            "type": "note", 
                            "channel": 0
                        }, 
                        {
                            "pitch": 48, 
                            "t0": 123500.0, 
                            "v": 119, 
                            "dur": 400.0, 
                            "type": "note", 
                            "channel": 0
                        }, 
                        {
                            "pitch": 60, 
                            "t0": 123500.0, 
                            "v": 81, 
                            "dur": 400.0, 
                            "type": "note", 
                            "channel": 0
                        }, 
                        {
                            "pitch": 72, 
                            "t0": 123500.0, 
                            "v": 4, 
                            "dur": 400.0, 
                            "type": "note", 
                            "channel": 0
                        }
                    ]
                ], 
                [
                    124000.0, 
                    [
                        {
                            "pitch": 25, 
                            "t0": 124000.0, 
                            "v": 39, 
                            "dur": 1600.0, 
                            "type": "note", 
                            "channel": 0
                        }, 
                        {
                            "pitch": 37, 
                            "t0": 124000.0, 
                            "v": 103, 
                            "dur": 1600.0, 
                            "type": "note", 
                            "channel": 0
                        }, 
                        {
                            "pitch": 49, 
                            "t0": 124000.0, 
                            "v": 118, 
                            "dur": 1600.0, 
                            "type": "note", 
                            "channel": 0
                        }, 
                        {
                            "pitch": 61, 
                            "t0": 124000.0, 
                            "v": 76, 
                            "dur": 1600.0, 
                            "type": "note", 
                            "channel": 0
                        }
                    ]
                ], 
                [
                    126000.0, 
                    [
                        {
                            "pitch": 23, 
                            "t0": 126000.0, 
                            "v": 25, 
                            "dur": 400.0, 
                            "type": "note", 
                            "channel": 0
                        }, 
                        {
                            "pitch": 35, 
                            "t0": 126000.0, 
                            "v": 95, 
                            "dur": 400.0, 
                            "type": "note", 
                            "channel": 0
                        }, 
                        {
                            "pitch": 47, 
                            "t0": 126000.0, 
                            "v": 119, 
                            "dur": 400.0, 
                            "type": "note", 
                            "channel": 0
                        }, 
                        {
                            "pitch": 59, 
                            "t0": 126000.0, 
                            "v": 86, 
                            "dur": 400.0, 
                            "type": "note", 
                            "channel": 0
                        }, 
                        {
                            "pitch": 71, 
                            "t0": 126000.0, 
                            "v": 11, 
                            "dur": 400.0, 
                            "type": "note", 
                            "channel": 0
                        }
                    ]
                ], 
                [
                    126500.0, 
                    [
                        {
                            "pitch": 24, 
                            "t0": 126500.0, 
                            "v": 32, 
                            "dur": 400.0, 
                            "type": "note", 
                            "channel": 0
                        }, 
                        {
                            "pitch": 36, 
                            "t0": 126500.0, 
                            "v": 99, 
                            "dur": 400.0, 
                            "type": "note", 
                            "channel": 0
                        }, 
                        {
                            "pitch": 48, 
                            "t0": 126500.0, 
                            "v": 119, 
                            "dur": 400.0, 
                            "type": "note", 
                            "channel": 0
                        }, 
                        {
                            "pitch": 60, 
                            "t0": 126500.0, 
                            "v": 81, 
                            "dur": 400.0, 
                            "type": "note", 
                            "channel": 0
                        }, 
                        {
                            "pitch": 72, 
                            "t0": 126500.0, 
                            "v": 4, 
                            "dur": 400.0, 
                            "type": "note", 
                            "channel": 0
                        }
                    ]
                ], 
                [
                    127000.0, 
                    [
                        {
                            "pitch": 25, 
                            "t0": 127000.0, 
                            "v": 39, 
                            "dur": 400.0, 
                            "type": "note", 
                            "channel": 0
                        }, 
                        {
                            "pitch": 37, 
                            "t0": 127000.0, 
                            "v": 103, 
                            "dur": 400.0, 
                            "type": "note", 
                            "channel": 0
                        }, 
                        {
                            "pitch": 49, 
                            "t0": 127000.0, 
                            "v": 118, 
                            "dur": 400.0, 
                            "type": "note", 
                            "channel": 0
                        }, 
                        {
                            "pitch": 61, 
                            "t0": 127000.0, 
                            "v": 76, 
                            "dur": 400.0, 
                            "type": "note", 
                            "channel": 0
                        }
                    ]
                ], 
                [
                    127500.0, 
                    [
                        {
                            "pitch": 26, 
                            "t0": 127500.0, 
                            "v": 45, 
                            "dur": 1600.0, 
                            "type": "note", 
                            "channel": 0
                        }, 
                        {
                            "pitch": 38, 
                            "t0": 127500.0, 
                            "v": 106, 
                            "dur": 1600.0, 
                            "type": "note", 
                            "channel": 0
                        }, 
                        {
                            "pitch": 50, 
                            "t0": 127500.0, 
                            "v": 116, 
                            "dur": 1600.0, 
                            "type": "note", 
                            "channel": 0
                        }, 
                        {
                            "pitch": 62, 
                            "t0": 127500.0, 
                            "v": 70, 
                            "dur": 1600.0, 
                            "type": "note", 
                            "channel": 0
                        }
                    ]
                ], 
                [
                    129500.0, 
                    [
                        {
                            "pitch": 24, 
                            "t0": 129500.0, 
                            "v": 32, 
                            "dur": 400.0, 
                            "type": "note", 
                            "channel": 0
                        }, 
                        {
                            "pitch": 36, 
                            "t0": 129500.0, 
                            "v": 99, 
                            "dur": 400.0, 
                            "type": "note", 
                            "channel": 0
                        }, 
                        {
                            "pitch": 48, 
                            "t0": 129500.0, 
                            "v": 119, 
                            "dur": 400.0, 
                            "type": "note", 
                            "channel": 0
                        }, 
                        {
                            "pitch": 60, 
                            "t0": 129500.0, 
                            "v": 81, 
                            "dur": 400.0, 
                            "type": "note", 
                            "channel": 0
                        }, 
                        {
                            "pitch": 72, 
                            "t0": 129500.0, 
                            "v": 4, 
                            "dur": 400.0, 
                            "type": "note", 
                            "channel": 0
                        }
                    ]
                ], 
                [
                    130000.0, 
                    [
                        {
                            "pitch": 25, 
                            "t0": 130000.0, 
                            "v": 39, 
                            "dur": 400.0, 
                            "type": "note", 
                            "channel": 0
                        }, 
                        {
                            "pitch": 37, 
                            "t0": 130000.0, 
                            "v": 103, 
                            "dur": 400.0, 
                            "type": "note", 
                            "channel": 0
                        }, 
                        {
                            "pitch": 49, 
                            "t0": 130000.0, 
                            "v": 118, 
                            "dur": 400.0, 
                            "type": "note", 
                            "channel": 0
                        }, 
                        {
                            "pitch": 61, 
                            "t0": 130000.0, 
                            "v": 76, 
                            "dur": 400.0, 
                            "type": "note", 
                            "channel": 0
                        }
                    ]
                ], 
                [
                    130500.0, 
                    [
                        {
                            "pitch": 26, 
                            "t0": 130500.0, 
                            "v": 45, 
                            "dur": 400.0, 
                            "type": "note", 
                            "channel": 0
                        }, 
                        {
                            "pitch": 38, 
                            "t0": 130500.0, 
                            "v": 106, 
                            "dur": 400.0, 
                            "type": "note", 
                            "channel": 0
                        }, 
                        {
                            "pitch": 50, 
                            "t0": 130500.0, 
                            "v": 116, 
                            "dur": 400.0, 
                            "type": "note", 
                            "channel": 0
                        }, 
                        {
                            "pitch": 62, 
                            "t0": 130500.0, 
                            "v": 70, 
                            "dur": 400.0, 
                            "type": "note", 
                            "channel": 0
                        }
                    ]
                ], 
                [
                    131000.0, 
                    [
                        {
                            "pitch": 27, 
                            "t0": 131000.0, 
                            "v": 52, 
                            "dur": 1600.0, 
                            "type": "note", 
                            "channel": 0
                        }, 
                        {
                            "pitch": 39, 
                            "t0": 131000.0, 
                            "v": 109, 
                            "dur": 1600.0, 
                            "type": "note", 
                            "channel": 0
                        }, 
                        {
                            "pitch": 51, 
                            "t0": 131000.0, 
                            "v": 114, 
                            "dur": 1600.0, 
                            "type": "note", 
                            "channel": 0
                        }, 
                        {
                            "pitch": 63, 
                            "t0": 131000.0, 
                            "v": 64, 
                            "dur": 1600.0, 
                            "type": "note", 
                            "channel": 0
                        }
                    ]
                ], 
                [
                    133000.0, 
                    [
                        {
                            "pitch": 25, 
                            "t0": 133000.0, 
                            "v": 39, 
                            "dur": 400.0, 
                            "type": "note", 
                            "channel": 0
                        }, 
                        {
                            "pitch": 37, 
                            "t0": 133000.0, 
                            "v": 103, 
                            "dur": 400.0, 
                            "type": "note", 
                            "channel": 0
                        }, 
                        {
                            "pitch": 49, 
                            "t0": 133000.0, 
                            "v": 118, 
                            "dur": 400.0, 
                            "type": "note", 
                            "channel": 0
                        }, 
                        {
                            "pitch": 61, 
                            "t0": 133000.0, 
                            "v": 76, 
                            "dur": 400.0, 
                            "type": "note", 
                            "channel": 0
                        }
                    ]
                ], 
                [
                    133500.0, 
                    [
                        {
                            "pitch": 26, 
                            "t0": 133500.0, 
                            "v": 45, 
                            "dur": 400.0, 
                            "type": "note", 
                            "channel": 0
                        }, 
                        {
                            "pitch": 38, 
                            "t0": 133500.0, 
                            "v": 106, 
                            "dur": 400.0, 
                            "type": "note", 
                            "channel": 0
                        }, 
                        {
                            "pitch": 50, 
                            "t0": 133500.0, 
                            "v": 116, 
                            "dur": 400.0, 
                            "type": "note", 
                            "channel": 0
                        }, 
                        {
                            "pitch": 62, 
                            "t0": 133500.0, 
                            "v": 70, 
                            "dur": 400.0, 
                            "type": "note", 
                            "channel": 0
                        }
                    ]
                ], 
                [
                    134000.0, 
                    [
                        {
                            "pitch": 27, 
                            "t0": 134000.0, 
                            "v": 52, 
                            "dur": 400.0, 
                            "type": "note", 
                            "channel": 0
                        }, 
                        {
                            "pitch": 39, 
                            "t0": 134000.0, 
                            "v": 109, 
                            "dur": 400.0, 
                            "type": "note", 
                            "channel": 0
                        }, 
                        {
                            "pitch": 51, 
                            "t0": 134000.0, 
                            "v": 114, 
                            "dur": 400.0, 
                            "type": "note", 
                            "channel": 0
                        }, 
                        {
                            "pitch": 63, 
                            "t0": 134000.0, 
                            "v": 64, 
                            "dur": 400.0, 
                            "type": "note", 
                            "channel": 0
                        }
                    ]
                ], 
                [
                    134500.0, 
                    [
                        {
                            "pitch": 28, 
                            "t0": 134500.0, 
                            "v": 58, 
                            "dur": 1600.0, 
                            "type": "note", 
                            "channel": 0
                        }, 
                        {
                            "pitch": 40, 
                            "t0": 134500.0, 
                            "v": 112, 
                            "dur": 1600.0, 
                            "type": "note", 
                            "channel": 0
                        }, 
                        {
                            "pitch": 52, 
                            "t0": 134500.0, 
                            "v": 112, 
                            "dur": 1600.0, 
                            "type": "note", 
                            "channel": 0
                        }, 
                        {
                            "pitch": 64, 
                            "t0": 134500.0, 
                            "v": 58, 
                            "dur": 1600.0, 
                            "type": "note", 
                            "channel": 0
                        }
                    ]
                ], 
                [
                    136500.0, 
                    [
                        {
                            "pitch": 26, 
                            "t0": 136500.0, 
                            "v": 45, 
                            "dur": 400.0, 
                            "type": "note", 
                            "channel": 0
                        }, 
                        {
                            "pitch": 38, 
                            "t0": 136500.0, 
                            "v": 106, 
                            "dur": 400.0, 
                            "type": "note", 
                            "channel": 0
                        }, 
                        {
                            "pitch": 50, 
                            "t0": 136500.0, 
                            "v": 116, 
                            "dur": 400.0, 
                            "type": "note", 
                            "channel": 0
                        }, 
                        {
                            "pitch": 62, 
                            "t0": 136500.0, 
                            "v": 70, 
                            "dur": 400.0, 
                            "type": "note", 
                            "channel": 0
                        }
                    ]
                ], 
                [
                    137000.0, 
                    [
                        {
                            "pitch": 27, 
                            "t0": 137000.0, 
                            "v": 52, 
                            "dur": 400.0, 
                            "type": "note", 
                            "channel": 0
                        }, 
                        {
                            "pitch": 39, 
                            "t0": 137000.0, 
                            "v": 109, 
                            "dur": 400.0, 
                            "type": "note", 
                            "channel": 0
                        }, 
                        {
                            "pitch": 51, 
                            "t0": 137000.0, 
                            "v": 114, 
                            "dur": 400.0, 
                            "type": "note", 
                            "channel": 0
                        }, 
                        {
                            "pitch": 63, 
                            "t0": 137000.0, 
                            "v": 64, 
                            "dur": 400.0, 
                            "type": "note", 
                            "channel": 0
                        }
                    ]
                ], 
                [
                    137500.0, 
                    [
                        {
                            "pitch": 28, 
                            "t0": 137500.0, 
                            "v": 58, 
                            "dur": 400.0, 
                            "type": "note", 
                            "channel": 0
                        }, 
                        {
                            "pitch": 40, 
                            "t0": 137500.0, 
                            "v": 112, 
                            "dur": 400.0, 
                            "type": "note", 
                            "channel": 0
                        }, 
                        {
                            "pitch": 52, 
                            "t0": 137500.0, 
                            "v": 112, 
                            "dur": 400.0, 
                            "type": "note", 
                            "channel": 0
                        }, 
                        {
                            "pitch": 64, 
                            "t0": 137500.0, 
                            "v": 58, 
                            "dur": 400.0, 
                            "type": "note", 
                            "channel": 0
                        }
                    ]
                ], 
                [
                    138000.0, 
                    [
                        {
                            "pitch": 29, 
                            "t0": 138000.0, 
                            "v": 64, 
                            "dur": 1600.0, 
                            "type": "note", 
                            "channel": 0
                        }, 
                        {
                            "pitch": 41, 
                            "t0": 138000.0, 
                            "v": 114, 
                            "dur": 1600.0, 
                            "type": "note", 
                            "channel": 0
                        }, 
                        {
                            "pitch": 53, 
                            "t0": 138000.0, 
                            "v": 109, 
                            "dur": 1600.0, 
                            "type": "note", 
                            "channel": 0
                        }, 
                        {
                            "pitch": 65, 
                            "t0": 138000.0, 
                            "v": 52, 
                            "dur": 1600.0, 
                            "type": "note", 
                            "channel": 0
                        }
                    ]
                ], 
                [
                    140000.0, 
                    [
                        {
                            "pitch": 27, 
                            "t0": 140000.0, 
                            "v": 52, 
                            "dur": 400.0, 
                            "type": "note", 
                            "channel": 0
                        }, 
                        {
                            "pitch": 39, 
                            "t0": 140000.0, 
                            "v": 109, 
                            "dur": 400.0, 
                            "type": "note", 
                            "channel": 0
                        }, 
                        {
                            "pitch": 51, 
                            "t0": 140000.0, 
                            "v": 114, 
                            "dur": 400.0, 
                            "type": "note", 
                            "channel": 0
                        }, 
                        {
                            "pitch": 63, 
                            "t0": 140000.0, 
                            "v": 64, 
                            "dur": 400.0, 
                            "type": "note", 
                            "channel": 0
                        }
                    ]
                ], 
                [
                    140500.0, 
                    [
                        {
                            "pitch": 28, 
                            "t0": 140500.0, 
                            "v": 58, 
                            "dur": 400.0, 
                            "type": "note", 
                            "channel": 0
                        }, 
                        {
                            "pitch": 40, 
                            "t0": 140500.0, 
                            "v": 112, 
                            "dur": 400.0, 
                            "type": "note", 
                            "channel": 0
                        }, 
                        {
                            "pitch": 52, 
                            "t0": 140500.0, 
                            "v": 112, 
                            "dur": 400.0, 
                            "type": "note", 
                            "channel": 0
                        }, 
                        {
                            "pitch": 64, 
                            "t0": 140500.0, 
                            "v": 58, 
                            "dur": 400.0, 
                            "type": "note", 
                            "channel": 0
                        }
                    ]
                ], 
                [
                    141000.0, 
                    [
                        {
                            "pitch": 29, 
                            "t0": 141000.0, 
                            "v": 64, 
                            "dur": 400.0, 
                            "type": "note", 
                            "channel": 0
                        }, 
                        {
                            "pitch": 41, 
                            "t0": 141000.0, 
                            "v": 114, 
                            "dur": 400.0, 
                            "type": "note", 
                            "channel": 0
                        }, 
                        {
                            "pitch": 53, 
                            "t0": 141000.0, 
                            "v": 109, 
                            "dur": 400.0, 
                            "type": "note", 
                            "channel": 0
                        }, 
                        {
                            "pitch": 65, 
                            "t0": 141000.0, 
                            "v": 52, 
                            "dur": 400.0, 
                            "type": "note", 
                            "channel": 0
                        }
                    ]
                ], 
                [
                    141500.0, 
                    [
                        {
                            "pitch": 30, 
                            "t0": 141500.0, 
                            "v": 70, 
                            "dur": 1600.0, 
                            "type": "note", 
                            "channel": 0
                        }, 
                        {
                            "pitch": 42, 
                            "t0": 141500.0, 
                            "v": 116, 
                            "dur": 1600.0, 
                            "type": "note", 
                            "channel": 0
                        }, 
                        {
                            "pitch": 54, 
                            "t0": 141500.0, 
                            "v": 106, 
                            "dur": 1600.0, 
                            "type": "note", 
                            "channel": 0
                        }, 
                        {
                            "pitch": 66, 
                            "t0": 141500.0, 
                            "v": 45, 
                            "dur": 1600.0, 
                            "type": "note", 
                            "channel": 0
                        }
                    ]
                ], 
                [
                    143500.0, 
                    [
                        {
                            "pitch": 28, 
                            "t0": 143500.0, 
                            "v": 58, 
                            "dur": 400.0, 
                            "type": "note", 
                            "channel": 0
                        }, 
                        {
                            "pitch": 40, 
                            "t0": 143500.0, 
                            "v": 112, 
                            "dur": 400.0, 
                            "type": "note", 
                            "channel": 0
                        }, 
                        {
                            "pitch": 52, 
                            "t0": 143500.0, 
                            "v": 112, 
                            "dur": 400.0, 
                            "type": "note", 
                            "channel": 0
                        }, 
                        {
                            "pitch": 64, 
                            "t0": 143500.0, 
                            "v": 58, 
                            "dur": 400.0, 
                            "type": "note", 
                            "channel": 0
                        }
                    ]
                ], 
                [
                    144000.0, 
                    [
                        {
                            "pitch": 29, 
                            "t0": 144000.0, 
                            "v": 64, 
                            "dur": 400.0, 
                            "type": "note", 
                            "channel": 0
                        }, 
                        {
                            "pitch": 41, 
                            "t0": 144000.0, 
                            "v": 114, 
                            "dur": 400.0, 
                            "type": "note", 
                            "channel": 0
                        }, 
                        {
                            "pitch": 53, 
                            "t0": 144000.0, 
                            "v": 109, 
                            "dur": 400.0, 
                            "type": "note", 
                            "channel": 0
                        }, 
                        {
                            "pitch": 65, 
                            "t0": 144000.0, 
                            "v": 52, 
                            "dur": 400.0, 
                            "type": "note", 
                            "channel": 0
                        }
                    ]
                ], 
                [
                    144500.0, 
                    [
                        {
                            "pitch": 30, 
                            "t0": 144500.0, 
                            "v": 70, 
                            "dur": 400.0, 
                            "type": "note", 
                            "channel": 0
                        }, 
                        {
                            "pitch": 42, 
                            "t0": 144500.0, 
                            "v": 116, 
                            "dur": 400.0, 
                            "type": "note", 
                            "channel": 0
                        }, 
                        {
                            "pitch": 54, 
                            "t0": 144500.0, 
                            "v": 106, 
                            "dur": 400.0, 
                            "type": "note", 
                            "channel": 0
                        }, 
                        {
                            "pitch": 66, 
                            "t0": 144500.0, 
                            "v": 45, 
                            "dur": 400.0, 
                            "type": "note", 
                            "channel": 0
                        }
                    ]
                ], 
                [
                    145000.0, 
                    [
                        {
                            "pitch": 31, 
                            "t0": 145000.0, 
                            "v": 76, 
                            "dur": 1600.0, 
                            "type": "note", 
                            "channel": 0
                        }, 
                        {
                            "pitch": 43, 
                            "t0": 145000.0, 
                            "v": 118, 
                            "dur": 1600.0, 
                            "type": "note", 
                            "channel": 0
                        }, 
                        {
                            "pitch": 55, 
                            "t0": 145000.0, 
                            "v": 103, 
                            "dur": 1600.0, 
                            "type": "note", 
                            "channel": 0
                        }, 
                        {
                            "pitch": 67, 
                            "t0": 145000.0, 
                            "v": 39, 
                            "dur": 1600.0, 
                            "type": "note", 
                            "channel": 0
                        }
                    ]
                ], 
                [
                    147000.0, 
                    [
                        {
                            "pitch": 29, 
                            "t0": 147000.0, 
                            "v": 64, 
                            "dur": 400.0, 
                            "type": "note", 
                            "channel": 0
                        }, 
                        {
                            "pitch": 41, 
                            "t0": 147000.0, 
                            "v": 114, 
                            "dur": 400.0, 
                            "type": "note", 
                            "channel": 0
                        }, 
                        {
                            "pitch": 53, 
                            "t0": 147000.0, 
                            "v": 109, 
                            "dur": 400.0, 
                            "type": "note", 
                            "channel": 0
                        }, 
                        {
                            "pitch": 65, 
                            "t0": 147000.0, 
                            "v": 52, 
                            "dur": 400.0, 
                            "type": "note", 
                            "channel": 0
                        }
                    ]
                ], 
                [
                    147500.0, 
                    [
                        {
                            "pitch": 30, 
                            "t0": 147500.0, 
                            "v": 70, 
                            "dur": 400.0, 
                            "type": "note", 
                            "channel": 0
                        }, 
                        {
                            "pitch": 42, 
                            "t0": 147500.0, 
                            "v": 116, 
                            "dur": 400.0, 
                            "type": "note", 
                            "channel": 0
                        }, 
                        {
                            "pitch": 54, 
                            "t0": 147500.0, 
                            "v": 106, 
                            "dur": 400.0, 
                            "type": "note", 
                            "channel": 0
                        }, 
                        {
                            "pitch": 66, 
                            "t0": 147500.0, 
                            "v": 45, 
                            "dur": 400.0, 
                            "type": "note", 
                            "channel": 0
                        }
                    ]
                ], 
                [
                    148000.0, 
                    [
                        {
                            "pitch": 31, 
                            "t0": 148000.0, 
                            "v": 76, 
                            "dur": 400.0, 
                            "type": "note", 
                            "channel": 0
                        }, 
                        {
                            "pitch": 43, 
                            "t0": 148000.0, 
                            "v": 118, 
                            "dur": 400.0, 
                            "type": "note", 
                            "channel": 0
                        }, 
                        {
                            "pitch": 55, 
                            "t0": 148000.0, 
                            "v": 103, 
                            "dur": 400.0, 
                            "type": "note", 
                            "channel": 0
                        }, 
                        {
                            "pitch": 67, 
                            "t0": 148000.0, 
                            "v": 39, 
                            "dur": 400.0, 
                            "type": "note", 
                            "channel": 0
                        }
                    ]
                ], 
                [
                    148500.0, 
                    [
                        {
                            "pitch": 32, 
                            "t0": 148500.0, 
                            "v": 81, 
                            "dur": 1600.0, 
                            "type": "note", 
                            "channel": 0
                        }, 
                        {
                            "pitch": 44, 
                            "t0": 148500.0, 
                            "v": 119, 
                            "dur": 1600.0, 
                            "type": "note", 
                            "channel": 0
                        }, 
                        {
                            "pitch": 56, 
                            "t0": 148500.0, 
                            "v": 99, 
                            "dur": 1600.0, 
                            "type": "note", 
                            "channel": 0
                        }, 
                        {
                            "pitch": 68, 
                            "t0": 148500.0, 
                            "v": 32, 
                            "dur": 1600.0, 
                            "type": "note", 
                            "channel": 0
                        }
                    ]
                ], 
                [
                    150500.0, 
                    [
                        {
                            "pitch": 30, 
                            "t0": 150500.0, 
                            "v": 70, 
                            "dur": 400.0, 
                            "type": "note", 
                            "channel": 0
                        }, 
                        {
                            "pitch": 42, 
                            "t0": 150500.0, 
                            "v": 116, 
                            "dur": 400.0, 
                            "type": "note", 
                            "channel": 0
                        }, 
                        {
                            "pitch": 54, 
                            "t0": 150500.0, 
                            "v": 106, 
                            "dur": 400.0, 
                            "type": "note", 
                            "channel": 0
                        }, 
                        {
                            "pitch": 66, 
                            "t0": 150500.0, 
                            "v": 45, 
                            "dur": 400.0, 
                            "type": "note", 
                            "channel": 0
                        }
                    ]
                ], 
                [
                    151000.0, 
                    [
                        {
                            "pitch": 31, 
                            "t0": 151000.0, 
                            "v": 76, 
                            "dur": 400.0, 
                            "type": "note", 
                            "channel": 0
                        }, 
                        {
                            "pitch": 43, 
                            "t0": 151000.0, 
                            "v": 118, 
                            "dur": 400.0, 
                            "type": "note", 
                            "channel": 0
                        }, 
                        {
                            "pitch": 55, 
                            "t0": 151000.0, 
                            "v": 103, 
                            "dur": 400.0, 
                            "type": "note", 
                            "channel": 0
                        }, 
                        {
                            "pitch": 67, 
                            "t0": 151000.0, 
                            "v": 39, 
                            "dur": 400.0, 
                            "type": "note", 
                            "channel": 0
                        }
                    ]
                ], 
                [
                    151500.0, 
                    [
                        {
                            "pitch": 32, 
                            "t0": 151500.0, 
                            "v": 81, 
                            "dur": 400.0, 
                            "type": "note", 
                            "channel": 0
                        }, 
                        {
                            "pitch": 44, 
                            "t0": 151500.0, 
                            "v": 119, 
                            "dur": 400.0, 
                            "type": "note", 
                            "channel": 0
                        }, 
                        {
                            "pitch": 56, 
                            "t0": 151500.0, 
                            "v": 99, 
                            "dur": 400.0, 
                            "type": "note", 
                            "channel": 0
                        }, 
                        {
                            "pitch": 68, 
                            "t0": 151500.0, 
                            "v": 32, 
                            "dur": 400.0, 
                            "type": "note", 
                            "channel": 0
                        }
                    ]
                ], 
                [
                    152000.0, 
                    [
                        {
                            "pitch": 33, 
                            "t0": 152000.0, 
                            "v": 86, 
                            "dur": 1600.0, 
                            "type": "note", 
                            "channel": 0
                        }, 
                        {
                            "pitch": 45, 
                            "t0": 152000.0, 
                            "v": 119, 
                            "dur": 1600.0, 
                            "type": "note", 
                            "channel": 0
                        }, 
                        {
                            "pitch": 57, 
                            "t0": 152000.0, 
                            "v": 95, 
                            "dur": 1600.0, 
                            "type": "note", 
                            "channel": 0
                        }, 
                        {
                            "pitch": 69, 
                            "t0": 152000.0, 
                            "v": 25, 
                            "dur": 1600.0, 
                            "type": "note", 
                            "channel": 0
                        }
                    ]
                ], 
                [
                    154000.0, 
                    [
                        {
                            "pitch": 31, 
                            "t0": 154000.0, 
                            "v": 76, 
                            "dur": 400.0, 
                            "type": "note", 
                            "channel": 0
                        }, 
                        {
                            "pitch": 43, 
                            "t0": 154000.0, 
                            "v": 118, 
                            "dur": 400.0, 
                            "type": "note", 
                            "channel": 0
                        }, 
                        {
                            "pitch": 55, 
                            "t0": 154000.0, 
                            "v": 103, 
                            "dur": 400.0, 
                            "type": "note", 
                            "channel": 0
                        }, 
                        {
                            "pitch": 67, 
                            "t0": 154000.0, 
                            "v": 39, 
                            "dur": 400.0, 
                            "type": "note", 
                            "channel": 0
                        }
                    ]
                ], 
                [
                    154500.0, 
                    [
                        {
                            "pitch": 32, 
                            "t0": 154500.0, 
                            "v": 81, 
                            "dur": 400.0, 
                            "type": "note", 
                            "channel": 0
                        }, 
                        {
                            "pitch": 44, 
                            "t0": 154500.0, 
                            "v": 119, 
                            "dur": 400.0, 
                            "type": "note", 
                            "channel": 0
                        }, 
                        {
                            "pitch": 56, 
                            "t0": 154500.0, 
                            "v": 99, 
                            "dur": 400.0, 
                            "type": "note", 
                            "channel": 0
                        }, 
                        {
                            "pitch": 68, 
                            "t0": 154500.0, 
                            "v": 32, 
                            "dur": 400.0, 
                            "type": "note", 
                            "channel": 0
                        }
                    ]
                ], 
                [
                    155000.0, 
                    [
                        {
                            "pitch": 33, 
                            "t0": 155000.0, 
                            "v": 86, 
                            "dur": 400.0, 
                            "type": "note", 
                            "channel": 0
                        }, 
                        {
                            "pitch": 45, 
                            "t0": 155000.0, 
                            "v": 119, 
                            "dur": 400.0, 
                            "type": "note", 
                            "channel": 0
                        }, 
                        {
                            "pitch": 57, 
                            "t0": 155000.0, 
                            "v": 95, 
                            "dur": 400.0, 
                            "type": "note", 
                            "channel": 0
                        }, 
                        {
                            "pitch": 69, 
                            "t0": 155000.0, 
                            "v": 25, 
                            "dur": 400.0, 
                            "type": "note", 
                            "channel": 0
                        }
                    ]
                ], 
                [
                    155500.0, 
                    [
                        {
                            "pitch": 34, 
                            "t0": 155500.0, 
                            "v": 91, 
                            "dur": 1600.0, 
                            "type": "note", 
                            "channel": 0
                        }, 
                        {
                            "pitch": 46, 
                            "t0": 155500.0, 
                            "v": 120, 
                            "dur": 1600.0, 
                            "type": "note", 
                            "channel": 0
                        }, 
                        {
                            "pitch": 58, 
                            "t0": 155500.0, 
                            "v": 91, 
                            "dur": 1600.0, 
                            "type": "note", 
                            "channel": 0
                        }, 
                        {
                            "pitch": 70, 
                            "t0": 155500.0, 
                            "v": 18, 
                            "dur": 1600.0, 
                            "type": "note", 
                            "channel": 0
                        }
                    ]
                ], 
                [
                    157500.0, 
                    [
                        {
                            "pitch": 32, 
                            "t0": 157500.0, 
                            "v": 81, 
                            "dur": 400.0, 
                            "type": "note", 
                            "channel": 0
                        }, 
                        {
                            "pitch": 44, 
                            "t0": 157500.0, 
                            "v": 119, 
                            "dur": 400.0, 
                            "type": "note", 
                            "channel": 0
                        }, 
                        {
                            "pitch": 56, 
                            "t0": 157500.0, 
                            "v": 99, 
                            "dur": 400.0, 
                            "type": "note", 
                            "channel": 0
                        }, 
                        {
                            "pitch": 68, 
                            "t0": 157500.0, 
                            "v": 32, 
                            "dur": 400.0, 
                            "type": "note", 
                            "channel": 0
                        }
                    ]
                ], 
                [
                    158000.0, 
                    [
                        {
                            "pitch": 33, 
                            "t0": 158000.0, 
                            "v": 86, 
                            "dur": 400.0, 
                            "type": "note", 
                            "channel": 0
                        }, 
                        {
                            "pitch": 45, 
                            "t0": 158000.0, 
                            "v": 119, 
                            "dur": 400.0, 
                            "type": "note", 
                            "channel": 0
                        }, 
                        {
                            "pitch": 57, 
                            "t0": 158000.0, 
                            "v": 95, 
                            "dur": 400.0, 
                            "type": "note", 
                            "channel": 0
                        }, 
                        {
                            "pitch": 69, 
                            "t0": 158000.0, 
                            "v": 25, 
                            "dur": 400.0, 
                            "type": "note", 
                            "channel": 0
                        }
                    ]
                ], 
                [
                    158500.0, 
                    [
                        {
                            "pitch": 34, 
                            "t0": 158500.0, 
                            "v": 91, 
                            "dur": 400.0, 
                            "type": "note", 
                            "channel": 0
                        }, 
                        {
                            "pitch": 46, 
                            "t0": 158500.0, 
                            "v": 120, 
                            "dur": 400.0, 
                            "type": "note", 
                            "channel": 0
                        }, 
                        {
                            "pitch": 58, 
                            "t0": 158500.0, 
                            "v": 91, 
                            "dur": 400.0, 
                            "type": "note", 
                            "channel": 0
                        }, 
                        {
                            "pitch": 70, 
                            "t0": 158500.0, 
                            "v": 18, 
                            "dur": 400.0, 
                            "type": "note", 
                            "channel": 0
                        }
                    ]
                ], 
                [
                    159000.0, 
                    [
                        {
                            "pitch": 23, 
                            "t0": 159000.0, 
                            "v": 25, 
                            "dur": 1600.0, 
                            "type": "note", 
                            "channel": 0
                        }, 
                        {
                            "pitch": 35, 
                            "t0": 159000.0, 
                            "v": 95, 
                            "dur": 1600.0, 
                            "type": "note", 
                            "channel": 0
                        }, 
                        {
                            "pitch": 47, 
                            "t0": 159000.0, 
                            "v": 119, 
                            "dur": 1600.0, 
                            "type": "note", 
                            "channel": 0
                        }, 
                        {
                            "pitch": 59, 
                            "t0": 159000.0, 
                            "v": 86, 
                            "dur": 1600.0, 
                            "type": "note", 
                            "channel": 0
                        }, 
                        {
                            "pitch": 71, 
                            "t0": 159000.0, 
                            "v": 11, 
                            "dur": 1600.0, 
                            "type": "note", 
                            "channel": 0
                        }
                    ]
                ], 
                [
                    161000.0, 
                    [
                        {
                            "pitch": 33, 
                            "t0": 161000.0, 
                            "v": 86, 
                            "dur": 400.0, 
                            "type": "note", 
                            "channel": 0
                        }, 
                        {
                            "pitch": 45, 
                            "t0": 161000.0, 
                            "v": 119, 
                            "dur": 400.0, 
                            "type": "note", 
                            "channel": 0
                        }, 
                        {
                            "pitch": 57, 
                            "t0": 161000.0, 
                            "v": 95, 
                            "dur": 400.0, 
                            "type": "note", 
                            "channel": 0
                        }, 
                        {
                            "pitch": 69, 
                            "t0": 161000.0, 
                            "v": 25, 
                            "dur": 400.0, 
                            "type": "note", 
                            "channel": 0
                        }
                    ]
                ], 
                [
                    161500.0, 
                    [
                        {
                            "pitch": 34, 
                            "t0": 161500.0, 
                            "v": 91, 
                            "dur": 400.0, 
                            "type": "note", 
                            "channel": 0
                        }, 
                        {
                            "pitch": 46, 
                            "t0": 161500.0, 
                            "v": 120, 
                            "dur": 400.0, 
                            "type": "note", 
                            "channel": 0
                        }, 
                        {
                            "pitch": 58, 
                            "t0": 161500.0, 
                            "v": 91, 
                            "dur": 400.0, 
                            "type": "note", 
                            "channel": 0
                        }, 
                        {
                            "pitch": 70, 
                            "t0": 161500.0, 
                            "v": 18, 
                            "dur": 400.0, 
                            "type": "note", 
                            "channel": 0
                        }
                    ]
                ], 
                [
                    162000.0, 
                    [
                        {
                            "pitch": 23, 
                            "t0": 162000.0, 
                            "v": 25, 
                            "dur": 400.0, 
                            "type": "note", 
                            "channel": 0
                        }, 
                        {
                            "pitch": 35, 
                            "t0": 162000.0, 
                            "v": 95, 
                            "dur": 400.0, 
                            "type": "note", 
                            "channel": 0
                        }, 
                        {
                            "pitch": 47, 
                            "t0": 162000.0, 
                            "v": 119, 
                            "dur": 400.0, 
                            "type": "note", 
                            "channel": 0
                        }, 
                        {
                            "pitch": 59, 
                            "t0": 162000.0, 
                            "v": 86, 
                            "dur": 400.0, 
                            "type": "note", 
                            "channel": 0
                        }, 
                        {
                            "pitch": 71, 
                            "t0": 162000.0, 
                            "v": 11, 
                            "dur": 400.0, 
                            "type": "note", 
                            "channel": 0
                        }
                    ]
                ], 
                [
                    162500.0, 
                    [
                        {
                            "pitch": 24, 
                            "t0": 162500.0, 
                            "v": 32, 
                            "dur": 1600.0, 
                            "type": "note", 
                            "channel": 0
                        }, 
                        {
                            "pitch": 36, 
                            "t0": 162500.0, 
                            "v": 99, 
                            "dur": 1600.0, 
                            "type": "note", 
                            "channel": 0
                        }, 
                        {
                            "pitch": 48, 
                            "t0": 162500.0, 
                            "v": 119, 
                            "dur": 1600.0, 
                            "type": "note", 
                            "channel": 0
                        }, 
                        {
                            "pitch": 60, 
                            "t0": 162500.0, 
                            "v": 81, 
                            "dur": 1600.0, 
                            "type": "note", 
                            "channel": 0
                        }, 
                        {
                            "pitch": 72, 
                            "t0": 162500.0, 
                            "v": 4, 
                            "dur": 1600.0, 
                            "type": "note", 
                            "channel": 0
                        }
                    ]
                ], 
                [
                    164500.0, 
                    [
                        {
                            "pitch": 34, 
                            "t0": 164500.0, 
                            "v": 91, 
                            "dur": 400.0, 
                            "type": "note", 
                            "channel": 0
                        }, 
                        {
                            "pitch": 46, 
                            "t0": 164500.0, 
                            "v": 120, 
                            "dur": 400.0, 
                            "type": "note", 
                            "channel": 0
                        }, 
                        {
                            "pitch": 58, 
                            "t0": 164500.0, 
                            "v": 91, 
                            "dur": 400.0, 
                            "type": "note", 
                            "channel": 0
                        }, 
                        {
                            "pitch": 70, 
                            "t0": 164500.0, 
                            "v": 18, 
                            "dur": 400.0, 
                            "type": "note", 
                            "channel": 0
                        }
                    ]
                ], 
                [
                    165000.0, 
                    [
                        {
                            "pitch": 23, 
                            "t0": 165000.0, 
                            "v": 25, 
                            "dur": 400.0, 
                            "type": "note", 
                            "channel": 0
                        }, 
                        {
                            "pitch": 35, 
                            "t0": 165000.0, 
                            "v": 95, 
                            "dur": 400.0, 
                            "type": "note", 
                            "channel": 0
                        }, 
                        {
                            "pitch": 47, 
                            "t0": 165000.0, 
                            "v": 119, 
                            "dur": 400.0, 
                            "type": "note", 
                            "channel": 0
                        }, 
                        {
                            "pitch": 59, 
                            "t0": 165000.0, 
                            "v": 86, 
                            "dur": 400.0, 
                            "type": "note", 
                            "channel": 0
                        }, 
                        {
                            "pitch": 71, 
                            "t0": 165000.0, 
                            "v": 11, 
                            "dur": 400.0, 
                            "type": "note", 
                            "channel": 0
                        }
                    ]
                ], 
                [
                    165500.0, 
                    [
                        {
                            "pitch": 24, 
                            "t0": 165500.0, 
                            "v": 32, 
                            "dur": 400.0, 
                            "type": "note", 
                            "channel": 0
                        }, 
                        {
                            "pitch": 36, 
                            "t0": 165500.0, 
                            "v": 99, 
                            "dur": 400.0, 
                            "type": "note", 
                            "channel": 0
                        }, 
                        {
                            "pitch": 48, 
                            "t0": 165500.0, 
                            "v": 119, 
                            "dur": 400.0, 
                            "type": "note", 
                            "channel": 0
                        }, 
                        {
                            "pitch": 60, 
                            "t0": 165500.0, 
                            "v": 81, 
                            "dur": 400.0, 
                            "type": "note", 
                            "channel": 0
                        }, 
                        {
                            "pitch": 72, 
                            "t0": 165500.0, 
                            "v": 4, 
                            "dur": 400.0, 
                            "type": "note", 
                            "channel": 0
                        }
                    ]
                ], 
                [
                    166000.0, 
                    [
                        {
                            "pitch": 25, 
                            "t0": 166000.0, 
                            "v": 39, 
                            "dur": 1600.0, 
                            "type": "note", 
                            "channel": 0
                        }, 
                        {
                            "pitch": 37, 
                            "t0": 166000.0, 
                            "v": 103, 
                            "dur": 1600.0, 
                            "type": "note", 
                            "channel": 0
                        }, 
                        {
                            "pitch": 49, 
                            "t0": 166000.0, 
                            "v": 118, 
                            "dur": 1600.0, 
                            "type": "note", 
                            "channel": 0
                        }, 
                        {
                            "pitch": 61, 
                            "t0": 166000.0, 
                            "v": 76, 
                            "dur": 1600.0, 
                            "type": "note", 
                            "channel": 0
                        }
                    ]
                ], 
                [
                    168000.0, 
                    [
                        {
                            "pitch": 23, 
                            "t0": 168000.0, 
                            "v": 25, 
                            "dur": 400.0, 
                            "type": "note", 
                            "channel": 0
                        }, 
                        {
                            "pitch": 35, 
                            "t0": 168000.0, 
                            "v": 95, 
                            "dur": 400.0, 
                            "type": "note", 
                            "channel": 0
                        }, 
                        {
                            "pitch": 47, 
                            "t0": 168000.0, 
                            "v": 119, 
                            "dur": 400.0, 
                            "type": "note", 
                            "channel": 0
                        }, 
                        {
                            "pitch": 59, 
                            "t0": 168000.0, 
                            "v": 86, 
                            "dur": 400.0, 
                            "type": "note", 
                            "channel": 0
                        }, 
                        {
                            "pitch": 71, 
                            "t0": 168000.0, 
                            "v": 11, 
                            "dur": 400.0, 
                            "type": "note", 
                            "channel": 0
                        }
                    ]
                ], 
                [
                    168500.0, 
                    [
                        {
                            "pitch": 24, 
                            "t0": 168500.0, 
                            "v": 32, 
                            "dur": 400.0, 
                            "type": "note", 
                            "channel": 0
                        }, 
                        {
                            "pitch": 36, 
                            "t0": 168500.0, 
                            "v": 99, 
                            "dur": 400.0, 
                            "type": "note", 
                            "channel": 0
                        }, 
                        {
                            "pitch": 48, 
                            "t0": 168500.0, 
                            "v": 119, 
                            "dur": 400.0, 
                            "type": "note", 
                            "channel": 0
                        }, 
                        {
                            "pitch": 60, 
                            "t0": 168500.0, 
                            "v": 81, 
                            "dur": 400.0, 
                            "type": "note", 
                            "channel": 0
                        }, 
                        {
                            "pitch": 72, 
                            "t0": 168500.0, 
                            "v": 4, 
                            "dur": 400.0, 
                            "type": "note", 
                            "channel": 0
                        }
                    ]
                ], 
                [
                    169000.0, 
                    [
                        {
                            "pitch": 25, 
                            "t0": 169000.0, 
                            "v": 39, 
                            "dur": 400.0, 
                            "type": "note", 
                            "channel": 0
                        }, 
                        {
                            "pitch": 37, 
                            "t0": 169000.0, 
                            "v": 103, 
                            "dur": 400.0, 
                            "type": "note", 
                            "channel": 0
                        }, 
                        {
                            "pitch": 49, 
                            "t0": 169000.0, 
                            "v": 118, 
                            "dur": 400.0, 
                            "type": "note", 
                            "channel": 0
                        }, 
                        {
                            "pitch": 61, 
                            "t0": 169000.0, 
                            "v": 76, 
                            "dur": 400.0, 
                            "type": "note", 
                            "channel": 0
                        }
                    ]
                ], 
                [
                    169500.0, 
                    [
                        {
                            "pitch": 26, 
                            "t0": 169500.0, 
                            "v": 45, 
                            "dur": 1600.0, 
                            "type": "note", 
                            "channel": 0
                        }, 
                        {
                            "pitch": 38, 
                            "t0": 169500.0, 
                            "v": 106, 
                            "dur": 1600.0, 
                            "type": "note", 
                            "channel": 0
                        }, 
                        {
                            "pitch": 50, 
                            "t0": 169500.0, 
                            "v": 116, 
                            "dur": 1600.0, 
                            "type": "note", 
                            "channel": 0
                        }, 
                        {
                            "pitch": 62, 
                            "t0": 169500.0, 
                            "v": 70, 
                            "dur": 1600.0, 
                            "type": "note", 
                            "channel": 0
                        }
                    ]
                ], 
                [
                    171500.0, 
                    [
                        {
                            "pitch": 24, 
                            "t0": 171500.0, 
                            "v": 32, 
                            "dur": 400.0, 
                            "type": "note", 
                            "channel": 0
                        }, 
                        {
                            "pitch": 36, 
                            "t0": 171500.0, 
                            "v": 99, 
                            "dur": 400.0, 
                            "type": "note", 
                            "channel": 0
                        }, 
                        {
                            "pitch": 48, 
                            "t0": 171500.0, 
                            "v": 119, 
                            "dur": 400.0, 
                            "type": "note", 
                            "channel": 0
                        }, 
                        {
                            "pitch": 60, 
                            "t0": 171500.0, 
                            "v": 81, 
                            "dur": 400.0, 
                            "type": "note", 
                            "channel": 0
                        }, 
                        {
                            "pitch": 72, 
                            "t0": 171500.0, 
                            "v": 4, 
                            "dur": 400.0, 
                            "type": "note", 
                            "channel": 0
                        }
                    ]
                ], 
                [
                    172000.0, 
                    [
                        {
                            "pitch": 25, 
                            "t0": 172000.0, 
                            "v": 39, 
                            "dur": 400.0, 
                            "type": "note", 
                            "channel": 0
                        }, 
                        {
                            "pitch": 37, 
                            "t0": 172000.0, 
                            "v": 103, 
                            "dur": 400.0, 
                            "type": "note", 
                            "channel": 0
                        }, 
                        {
                            "pitch": 49, 
                            "t0": 172000.0, 
                            "v": 118, 
                            "dur": 400.0, 
                            "type": "note", 
                            "channel": 0
                        }, 
                        {
                            "pitch": 61, 
                            "t0": 172000.0, 
                            "v": 76, 
                            "dur": 400.0, 
                            "type": "note", 
                            "channel": 0
                        }
                    ]
                ], 
                [
                    172500.0, 
                    [
                        {
                            "pitch": 26, 
                            "t0": 172500.0, 
                            "v": 45, 
                            "dur": 400.0, 
                            "type": "note", 
                            "channel": 0
                        }, 
                        {
                            "pitch": 38, 
                            "t0": 172500.0, 
                            "v": 106, 
                            "dur": 400.0, 
                            "type": "note", 
                            "channel": 0
                        }, 
                        {
                            "pitch": 50, 
                            "t0": 172500.0, 
                            "v": 116, 
                            "dur": 400.0, 
                            "type": "note", 
                            "channel": 0
                        }, 
                        {
                            "pitch": 62, 
                            "t0": 172500.0, 
                            "v": 70, 
                            "dur": 400.0, 
                            "type": "note", 
                            "channel": 0
                        }
                    ]
                ], 
                [
                    173000.0, 
                    [
                        {
                            "pitch": 27, 
                            "t0": 173000.0, 
                            "v": 52, 
                            "dur": 1600.0, 
                            "type": "note", 
                            "channel": 0
                        }, 
                        {
                            "pitch": 39, 
                            "t0": 173000.0, 
                            "v": 109, 
                            "dur": 1600.0, 
                            "type": "note", 
                            "channel": 0
                        }, 
                        {
                            "pitch": 51, 
                            "t0": 173000.0, 
                            "v": 114, 
                            "dur": 1600.0, 
                            "type": "note", 
                            "channel": 0
                        }, 
                        {
                            "pitch": 63, 
                            "t0": 173000.0, 
                            "v": 64, 
                            "dur": 1600.0, 
                            "type": "note", 
                            "channel": 0
                        }
                    ]
                ]
            ], 
            "instruments": [], 
            "channels": [], 
            "numNotes": 835, 
            "type": "TrackObj"
        }
    ], 
    "type": "MidiObj", 
    "loop": false
}