{
    "format": 1, 
    "instruments": [], 
    "resolution": 1000, 
    "channels": [], 
    "tracks": [
        {
            "trackName": "Track1", 
            "seq": [
                [
                    0, 
                    [
                        {
                            "pitch": 23, 
                            "t0": 0, 
                            "v": 25, 
                            "dur": 800.0, 
                            "type": "note", 
                            "channel": 0
                        }, 
                        {
                            "pitch": 35, 
                            "t0": 0, 
                            "v": 95, 
                            "dur": 800.0, 
                            "type": "note", 
                            "channel": 0
                        }, 
                        {
                            "pitch": 47, 
                            "t0": 0, 
                            "v": 119, 
                            "dur": 800.0, 
                            "type": "note", 
                            "channel": 0
                        }, 
                        {
                            "pitch": 59, 
                            "t0": 0, 
                            "v": 86, 
                            "dur": 800.0, 
                            "type": "note", 
                            "channel": 0
                        }, 
                        {
                            "pitch": 71, 
                            "t0": 0, 
                            "v": 11, 
                            "dur": 800.0, 
                            "type": "note", 
                            "channel": 0
                        }
                    ]
                ], 
                [
                    1000.0, 
                    [
                        {
                            "pitch": 25, 
                            "t0": 1000.0, 
                            "v": 39, 
                            "dur": 800.0, 
                            "type": "note", 
                            "channel": 0
                        }, 
                        {
                            "pitch": 37, 
                            "t0": 1000.0, 
                            "v": 103, 
                            "dur": 800.0, 
                            "type": "note", 
                            "channel": 0
                        }, 
                        {
                            "pitch": 49, 
                            "t0": 1000.0, 
                            "v": 118, 
                            "dur": 800.0, 
                            "type": "note", 
                            "channel": 0
                        }, 
                        {
                            "pitch": 61, 
                            "t0": 1000.0, 
                            "v": 76, 
                            "dur": 800.0, 
                            "type": "note", 
                            "channel": 0
                        }
                    ]
                ], 
                [
                    2000.0, 
                    [
                        {
                            "pitch": 27, 
                            "t0": 2000.0, 
                            "v": 52, 
                            "dur": 800.0, 
                            "type": "note", 
                            "channel": 0
                        }, 
                        {
                            "pitch": 39, 
                            "t0": 2000.0, 
                            "v": 109, 
                            "dur": 800.0, 
                            "type": "note", 
                            "channel": 0
                        }, 
                        {
                            "pitch": 51, 
                            "t0": 2000.0, 
                            "v": 114, 
                            "dur": 800.0, 
                            "type": "note", 
                            "channel": 0
                        }, 
                        {
                            "pitch": 63, 
                            "t0": 2000.0, 
                            "v": 64, 
                            "dur": 800.0, 
                            "type": "note", 
                            "channel": 0
                        }
                    ]
                ], 
                [
                    3000.0, 
                    [
                        {
                            "pitch": 25, 
                            "t0": 3000.0, 
                            "v": 39, 
                            "dur": 800.0, 
                            "type": "note", 
                            "channel": 0
                        }, 
                        {
                            "pitch": 37, 
                            "t0": 3000.0, 
                            "v": 103, 
                            "dur": 800.0, 
                            "type": "note", 
                            "channel": 0
                        }, 
                        {
                            "pitch": 49, 
                            "t0": 3000.0, 
                            "v": 118, 
                            "dur": 800.0, 
                            "type": "note", 
                            "channel": 0
                        }, 
                        {
                            "pitch": 61, 
                            "t0": 3000.0, 
                            "v": 76, 
                            "dur": 800.0, 
                            "type": "note", 
                            "channel": 0
                        }
                    ]
                ], 
                [
                    4000.0, 
                    [
                        {
                            "pitch": 27, 
                            "t0": 4000.0, 
                            "v": 52, 
                            "dur": 800.0, 
                            "type": "note", 
                            "channel": 0
                        }, 
                        {
                            "pitch": 39, 
                            "t0": 4000.0, 
                            "v": 109, 
                            "dur": 800.0, 
                            "type": "note", 
                            "channel": 0
                        }, 
                        {
                            "pitch": 51, 
                            "t0": 4000.0, 
                            "v": 114, 
                            "dur": 800.0, 
                            "type": "note", 
                            "channel": 0
                        }, 
                        {
                            "pitch": 63, 
                            "t0": 4000.0, 
                            "v": 64, 
                            "dur": 800.0, 
                            "type": "note", 
                            "channel": 0
                        }
                    ]
                ], 
                [
                    5000.0, 
                    [
                        {
                            "pitch": 28, 
                            "t0": 5000.0, 
                            "v": 58, 
                            "dur": 800.0, 
                            "type": "note", 
                            "channel": 0
                        }, 
                        {
                            "pitch": 40, 
                            "t0": 5000.0, 
                            "v": 112, 
                            "dur": 800.0, 
                            "type": "note", 
                            "channel": 0
                        }, 
                        {
                            "pitch": 52, 
                            "t0": 5000.0, 
                            "v": 112, 
                            "dur": 800.0, 
                            "type": "note", 
                            "channel": 0
                        }, 
                        {
                            "pitch": 64, 
                            "t0": 5000.0, 
                            "v": 58, 
                            "dur": 800.0, 
                            "type": "note", 
                            "channel": 0
                        }
                    ]
                ], 
                [
                    6000.0, 
                    [
                        {
                            "pitch": 27, 
                            "t0": 6000.0, 
                            "v": 52, 
                            "dur": 800.0, 
                            "type": "note", 
                            "channel": 0
                        }, 
                        {
                            "pitch": 39, 
                            "t0": 6000.0, 
                            "v": 109, 
                            "dur": 800.0, 
                            "type": "note", 
                            "channel": 0
                        }, 
                        {
                            "pitch": 51, 
                            "t0": 6000.0, 
                            "v": 114, 
                            "dur": 800.0, 
                            "type": "note", 
                            "channel": 0
                        }, 
                        {
                            "pitch": 63, 
                            "t0": 6000.0, 
                            "v": 64, 
                            "dur": 800.0, 
                            "type": "note", 
                            "channel": 0
                        }
                    ]
                ], 
                [
                    7000.0, 
                    [
                        {
                            "pitch": 28, 
                            "t0": 7000.0, 
                            "v": 58, 
                            "dur": 800.0, 
                            "type": "note", 
                            "channel": 0
                        }, 
                        {
                            "pitch": 40, 
                            "t0": 7000.0, 
                            "v": 112, 
                            "dur": 800.0, 
                            "type": "note", 
                            "channel": 0
                        }, 
                        {
                            "pitch": 52, 
                            "t0": 7000.0, 
                            "v": 112, 
                            "dur": 800.0, 
                            "type": "note", 
                            "channel": 0
                        }, 
                        {
                            "pitch": 64, 
                            "t0": 7000.0, 
                            "v": 58, 
                            "dur": 800.0, 
                            "type": "note", 
                            "channel": 0
                        }
                    ]
                ], 
                [
                    8000.0, 
                    [
                        {
                            "pitch": 30, 
                            "t0": 8000.0, 
                            "v": 70, 
                            "dur": 800.0, 
                            "type": "note", 
                            "channel": 0
                        }, 
                        {
                            "pitch": 42, 
                            "t0": 8000.0, 
                            "v": 116, 
                            "dur": 800.0, 
                            "type": "note", 
                            "channel": 0
                        }, 
                        {
                            "pitch": 54, 
                            "t0": 8000.0, 
                            "v": 106, 
                            "dur": 800.0, 
                            "type": "note", 
                            "channel": 0
                        }, 
                        {
                            "pitch": 66, 
                            "t0": 8000.0, 
                            "v": 45, 
                            "dur": 800.0, 
                            "type": "note", 
                            "channel": 0
                        }
                    ]
                ], 
                [
                    9000.0, 
                    [
                        {
                            "pitch": 28, 
                            "t0": 9000.0, 
                            "v": 58, 
                            "dur": 800.0, 
                            "type": "note", 
                            "channel": 0
                        }, 
                        {
                            "pitch": 40, 
                            "t0": 9000.0, 
                            "v": 112, 
                            "dur": 800.0, 
                            "type": "note", 
                            "channel": 0
                        }, 
                        {
                            "pitch": 52, 
                            "t0": 9000.0, 
                            "v": 112, 
                            "dur": 800.0, 
                            "type": "note", 
                            "channel": 0
                        }, 
                        {
                            "pitch": 64, 
                            "t0": 9000.0, 
                            "v": 58, 
                            "dur": 800.0, 
                            "type": "note", 
                            "channel": 0
                        }
                    ]
                ], 
                [
                    10000.0, 
                    [
                        {
                            "pitch": 30, 
                            "t0": 10000.0, 
                            "v": 70, 
                            "dur": 800.0, 
                            "type": "note", 
                            "channel": 0
                        }, 
                        {
                            "pitch": 42, 
                            "t0": 10000.0, 
                            "v": 116, 
                            "dur": 800.0, 
                            "type": "note", 
                            "channel": 0
                        }, 
                        {
                            "pitch": 54, 
                            "t0": 10000.0, 
                            "v": 106, 
                            "dur": 800.0, 
                            "type": "note", 
                            "channel": 0
                        }, 
                        {
                            "pitch": 66, 
                            "t0": 10000.0, 
                            "v": 45, 
                            "dur": 800.0, 
                            "type": "note", 
                            "channel": 0
                        }
                    ]
                ], 
                [
                    11000.0, 
                    [
                        {
                            "pitch": 32, 
                            "t0": 11000.0, 
                            "v": 81, 
                            "dur": 800.0, 
                            "type": "note", 
                            "channel": 0
                        }, 
                        {
                            "pitch": 44, 
                            "t0": 11000.0, 
                            "v": 119, 
                            "dur": 800.0, 
                            "type": "note", 
                            "channel": 0
                        }, 
                        {
                            "pitch": 56, 
                            "t0": 11000.0, 
                            "v": 99, 
                            "dur": 800.0, 
                            "type": "note", 
                            "channel": 0
                        }, 
                        {
                            "pitch": 68, 
                            "t0": 11000.0, 
                            "v": 32, 
                            "dur": 800.0, 
                            "type": "note", 
                            "channel": 0
                        }
                    ]
                ], 
                [
                    12000.0, 
                    [
                        {
                            "pitch": 30, 
                            "t0": 12000.0, 
                            "v": 70, 
                            "dur": 800.0, 
                            "type": "note", 
                            "channel": 0
                        }, 
                        {
                            "pitch": 42, 
                            "t0": 12000.0, 
                            "v": 116, 
                            "dur": 800.0, 
                            "type": "note", 
                            "channel": 0
                        }, 
                        {
                            "pitch": 54, 
                            "t0": 12000.0, 
                            "v": 106, 
                            "dur": 800.0, 
                            "type": "note", 
                            "channel": 0
                        }, 
                        {
                            "pitch": 66, 
                            "t0": 12000.0, 
                            "v": 45, 
                            "dur": 800.0, 
                            "type": "note", 
                            "channel": 0
                        }
                    ]
                ], 
                [
                    13000.0, 
                    [
                        {
                            "pitch": 32, 
                            "t0": 13000.0, 
                            "v": 81, 
                            "dur": 800.0, 
                            "type": "note", 
                            "channel": 0
                        }, 
                        {
                            "pitch": 44, 
                            "t0": 13000.0, 
                            "v": 119, 
                            "dur": 800.0, 
                            "type": "note", 
                            "channel": 0
                        }, 
                        {
                            "pitch": 56, 
                            "t0": 13000.0, 
                            "v": 99, 
                            "dur": 800.0, 
                            "type": "note", 
                            "channel": 0
                        }, 
                        {
                            "pitch": 68, 
                            "t0": 13000.0, 
                            "v": 32, 
                            "dur": 800.0, 
                            "type": "note", 
                            "channel": 0
                        }
                    ]
                ], 
                [
                    14000.0, 
                    [
                        {
                            "pitch": 34, 
                            "t0": 14000.0, 
                            "v": 91, 
                            "dur": 800.0, 
                            "type": "note", 
                            "channel": 0
                        }, 
                        {
                            "pitch": 46, 
                            "t0": 14000.0, 
                            "v": 120, 
                            "dur": 800.0, 
                            "type": "note", 
                            "channel": 0
                        }, 
                        {
                            "pitch": 58, 
                            "t0": 14000.0, 
                            "v": 91, 
                            "dur": 800.0, 
                            "type": "note", 
                            "channel": 0
                        }, 
                        {
                            "pitch": 70, 
                            "t0": 14000.0, 
                            "v": 18, 
                            "dur": 800.0, 
                            "type": "note", 
                            "channel": 0
                        }
                    ]
                ], 
                [
                    15000.0, 
                    [
                        {
                            "pitch": 32, 
                            "t0": 15000.0, 
                            "v": 81, 
                            "dur": 800.0, 
                            "type": "note", 
                            "channel": 0
                        }, 
                        {
                            "pitch": 44, 
                            "t0": 15000.0, 
                            "v": 119, 
                            "dur": 800.0, 
                            "type": "note", 
                            "channel": 0
                        }, 
                        {
                            "pitch": 56, 
                            "t0": 15000.0, 
                            "v": 99, 
                            "dur": 800.0, 
                            "type": "note", 
                            "channel": 0
                        }, 
                        {
                            "pitch": 68, 
                            "t0": 15000.0, 
                            "v": 32, 
                            "dur": 800.0, 
                            "type": "note", 
                            "channel": 0
                        }
                    ]
                ], 
                [
                    16000.0, 
                    [
                        {
                            "pitch": 34, 
                            "t0": 16000.0, 
                            "v": 91, 
                            "dur": 800.0, 
                            "type": "note", 
                            "channel": 0
                        }, 
                        {
                            "pitch": 46, 
                            "t0": 16000.0, 
                            "v": 120, 
                            "dur": 800.0, 
                            "type": "note", 
                            "channel": 0
                        }, 
                        {
                            "pitch": 58, 
                            "t0": 16000.0, 
                            "v": 91, 
                            "dur": 800.0, 
                            "type": "note", 
                            "channel": 0
                        }, 
                        {
                            "pitch": 70, 
                            "t0": 16000.0, 
                            "v": 18, 
                            "dur": 800.0, 
                            "type": "note", 
                            "channel": 0
                        }
                    ]
                ], 
                [
                    17000.0, 
                    [
                        {
                            "pitch": 23, 
                            "t0": 17000.0, 
                            "v": 25, 
                            "dur": 800.0, 
                            "type": "note", 
                            "channel": 0
                        }, 
                        {
                            "pitch": 35, 
                            "t0": 17000.0, 
                            "v": 95, 
                            "dur": 800.0, 
                            "type": "note", 
                            "channel": 0
                        }, 
                        {
                            "pitch": 47, 
                            "t0": 17000.0, 
                            "v": 119, 
                            "dur": 800.0, 
                            "type": "note", 
                            "channel": 0
                        }, 
                        {
                            "pitch": 59, 
                            "t0": 17000.0, 
                            "v": 86, 
                            "dur": 800.0, 
                            "type": "note", 
                            "channel": 0
                        }, 
                        {
                            "pitch": 71, 
                            "t0": 17000.0, 
                            "v": 11, 
                            "dur": 800.0, 
                            "type": "note", 
                            "channel": 0
                        }
                    ]
                ], 
                [
                    18000.0, 
                    [
                        {
                            "pitch": 34, 
                            "t0": 18000.0, 
                            "v": 91, 
                            "dur": 800.0, 
                            "type": "note", 
                            "channel": 0
                        }, 
                        {
                            "pitch": 46, 
                            "t0": 18000.0, 
                            "v": 120, 
                            "dur": 800.0, 
                            "type": "note", 
                            "channel": 0
                        }, 
                        {
                            "pitch": 58, 
                            "t0": 18000.0, 
                            "v": 91, 
                            "dur": 800.0, 
                            "type": "note", 
                            "channel": 0
                        }, 
                        {
                            "pitch": 70, 
                            "t0": 18000.0, 
                            "v": 18, 
                            "dur": 800.0, 
                            "type": "note", 
                            "channel": 0
                        }
                    ]
                ], 
                [
                    19000.0, 
                    [
                        {
                            "pitch": 23, 
                            "t0": 19000.0, 
                            "v": 25, 
                            "dur": 800.0, 
                            "type": "note", 
                            "channel": 0
                        }, 
                        {
                            "pitch": 35, 
                            "t0": 19000.0, 
                            "v": 95, 
                            "dur": 800.0, 
                            "type": "note", 
                            "channel": 0
                        }, 
                        {
                            "pitch": 47, 
                            "t0": 19000.0, 
                            "v": 119, 
                            "dur": 800.0, 
                            "type": "note", 
                            "channel": 0
                        }, 
                        {
                            "pitch": 59, 
                            "t0": 19000.0, 
                            "v": 86, 
                            "dur": 800.0, 
                            "type": "note", 
                            "channel": 0
                        }, 
                        {
                            "pitch": 71, 
                            "t0": 19000.0, 
                            "v": 11, 
                            "dur": 800.0, 
                            "type": "note", 
                            "channel": 0
                        }
                    ]
                ], 
                [
                    20000.0, 
                    [
                        {
                            "pitch": 25, 
                            "t0": 20000.0, 
                            "v": 39, 
                            "dur": 800.0, 
                            "type": "note", 
                            "channel": 0
                        }, 
                        {
                            "pitch": 37, 
                            "t0": 20000.0, 
                            "v": 103, 
                            "dur": 800.0, 
                            "type": "note", 
                            "channel": 0
                        }, 
                        {
                            "pitch": 49, 
                            "t0": 20000.0, 
                            "v": 118, 
                            "dur": 800.0, 
                            "type": "note", 
                            "channel": 0
                        }, 
                        {
                            "pitch": 61, 
                            "t0": 20000.0, 
                            "v": 76, 
                            "dur": 800.0, 
                            "type": "note", 
                            "channel": 0
                        }
                    ]
                ], 
                [
                    21000.0, 
                    [
                        {
                            "pitch": 27, 
                            "t0": 21000.0, 
                            "v": 52, 
                            "dur": 800.0, 
                            "type": "note", 
                            "channel": 0
                        }, 
                        {
                            "pitch": 39, 
                            "t0": 21000.0, 
                            "v": 109, 
                            "dur": 800.0, 
                            "type": "note", 
                            "channel": 0
                        }, 
                        {
                            "pitch": 51, 
                            "t0": 21000.0, 
                            "v": 114, 
                            "dur": 800.0, 
                            "type": "note", 
                            "channel": 0
                        }, 
                        {
                            "pitch": 63, 
                            "t0": 21000.0, 
                            "v": 64, 
                            "dur": 800.0, 
                            "type": "note", 
                            "channel": 0
                        }
                    ]
                ], 
                [
                    22000.0, 
                    [
                        {
                            "pitch": 25, 
                            "t0": 22000.0, 
                            "v": 39, 
                            "dur": 800.0, 
                            "type": "note", 
                            "channel": 0
                        }, 
                        {
                            "pitch": 37, 
                            "t0": 22000.0, 
                            "v": 103, 
                            "dur": 800.0, 
                            "type": "note", 
                            "channel": 0
                        }, 
                        {
                            "pitch": 49, 
                            "t0": 22000.0, 
                            "v": 118, 
                            "dur": 800.0, 
                            "type": "note", 
                            "channel": 0
                        }, 
                        {
                            "pitch": 61, 
                            "t0": 22000.0, 
                            "v": 76, 
                            "dur": 800.0, 
                            "type": "note", 
                            "channel": 0
                        }
                    ]
                ], 
                [
                    23000.0, 
                    [
                        {
                            "pitch": 27, 
                            "t0": 23000.0, 
                            "v": 52, 
                            "dur": 800.0, 
                            "type": "note", 
                            "channel": 0
                        }, 
                        {
                            "pitch": 39, 
                            "t0": 23000.0, 
                            "v": 109, 
                            "dur": 800.0, 
                            "type": "note", 
                            "channel": 0
                        }, 
                        {
                            "pitch": 51, 
                            "t0": 23000.0, 
                            "v": 114, 
                            "dur": 800.0, 
                            "type": "note", 
                            "channel": 0
                        }, 
                        {
                            "pitch": 63, 
                            "t0": 23000.0, 
                            "v": 64, 
                            "dur": 800.0, 
                            "type": "note", 
                            "channel": 0
                        }
                    ]
                ], 
                [
                    24000.0, 
                    [
                        {
                            "pitch": 28, 
                            "t0": 24000.0, 
                            "v": 58, 
                            "dur": 800.0, 
                            "type": "note", 
                            "channel": 0
                        }, 
                        {
                            "pitch": 40, 
                            "t0": 24000.0, 
                            "v": 112, 
                            "dur": 800.0, 
                            "type": "note", 
                            "channel": 0
                        }, 
                        {
                            "pitch": 52, 
                            "t0": 24000.0, 
                            "v": 112, 
                            "dur": 800.0, 
                            "type": "note", 
                            "channel": 0
                        }, 
                        {
                            "pitch": 64, 
                            "t0": 24000.0, 
                            "v": 58, 
                            "dur": 800.0, 
                            "type": "note", 
                            "channel": 0
                        }
                    ]
                ], 
                [
                    25000.0, 
                    [
                        {
                            "pitch": 27, 
                            "t0": 25000.0, 
                            "v": 52, 
                            "dur": 800.0, 
                            "type": "note", 
                            "channel": 0
                        }, 
                        {
                            "pitch": 39, 
                            "t0": 25000.0, 
                            "v": 109, 
                            "dur": 800.0, 
                            "type": "note", 
                            "channel": 0
                        }, 
                        {
                            "pitch": 51, 
                            "t0": 25000.0, 
                            "v": 114, 
                            "dur": 800.0, 
                            "type": "note", 
                            "channel": 0
                        }, 
                        {
                            "pitch": 63, 
                            "t0": 25000.0, 
                            "v": 64, 
                            "dur": 800.0, 
                            "type": "note", 
                            "channel": 0
                        }
                    ]
                ], 
                [
                    26000.0, 
                    [
                        {
                            "pitch": 28, 
                            "t0": 26000.0, 
                            "v": 58, 
                            "dur": 800.0, 
                            "type": "note", 
                            "channel": 0
                        }, 
                        {
                            "pitch": 40, 
                            "t0": 26000.0, 
                            "v": 112, 
                            "dur": 800.0, 
                            "type": "note", 
                            "channel": 0
                        }, 
                        {
                            "pitch": 52, 
                            "t0": 26000.0, 
                            "v": 112, 
                            "dur": 800.0, 
                            "type": "note", 
                            "channel": 0
                        }, 
                        {
                            "pitch": 64, 
                            "t0": 26000.0, 
                            "v": 58, 
                            "dur": 800.0, 
                            "type": "note", 
                            "channel": 0
                        }
                    ]
                ], 
                [
                    27000.0, 
                    [
                        {
                            "pitch": 30, 
                            "t0": 27000.0, 
                            "v": 70, 
                            "dur": 800.0, 
                            "type": "note", 
                            "channel": 0
                        }, 
                        {
                            "pitch": 42, 
                            "t0": 27000.0, 
                            "v": 116, 
                            "dur": 800.0, 
                            "type": "note", 
                            "channel": 0
                        }, 
                        {
                            "pitch": 54, 
                            "t0": 27000.0, 
                            "v": 106, 
                            "dur": 800.0, 
                            "type": "note", 
                            "channel": 0
                        }, 
                        {
                            "pitch": 66, 
                            "t0": 27000.0, 
                            "v": 45, 
                            "dur": 800.0, 
                            "type": "note", 
                            "channel": 0
                        }
                    ]
                ], 
                [
                    28000.0, 
                    [
                        {
                            "pitch": 28, 
                            "t0": 28000.0, 
                            "v": 58, 
                            "dur": 800.0, 
                            "type": "note", 
                            "channel": 0
                        }, 
                        {
                            "pitch": 40, 
                            "t0": 28000.0, 
                            "v": 112, 
                            "dur": 800.0, 
                            "type": "note", 
                            "channel": 0
                        }, 
                        {
                            "pitch": 52, 
                            "t0": 28000.0, 
                            "v": 112, 
                            "dur": 800.0, 
                            "type": "note", 
                            "channel": 0
                        }, 
                        {
                            "pitch": 64, 
                            "t0": 28000.0, 
                            "v": 58, 
                            "dur": 800.0, 
                            "type": "note", 
                            "channel": 0
                        }
                    ]
                ], 
                [
                    29000.0, 
                    [
                        {
                            "pitch": 30, 
                            "t0": 29000.0, 
                            "v": 70, 
                            "dur": 800.0, 
                            "type": "note", 
                            "channel": 0
                        }, 
                        {
                            "pitch": 42, 
                            "t0": 29000.0, 
                            "v": 116, 
                            "dur": 800.0, 
                            "type": "note", 
                            "channel": 0
                        }, 
                        {
                            "pitch": 54, 
                            "t0": 29000.0, 
                            "v": 106, 
                            "dur": 800.0, 
                            "type": "note", 
                            "channel": 0
                        }, 
                        {
                            "pitch": 66, 
                            "t0": 29000.0, 
                            "v": 45, 
                            "dur": 800.0, 
                            "type": "note", 
                            "channel": 0
                        }
                    ]
                ], 
                [
                    30000.0, 
                    [
                        {
                            "pitch": 32, 
                            "t0": 30000.0, 
                            "v": 81, 
                            "dur": 800.0, 
                            "type": "note", 
                            "channel": 0
                        }, 
                        {
                            "pitch": 44, 
                            "t0": 30000.0, 
                            "v": 119, 
                            "dur": 800.0, 
                            "type": "note", 
                            "channel": 0
                        }, 
                        {
                            "pitch": 56, 
                            "t0": 30000.0, 
                            "v": 99, 
                            "dur": 800.0, 
                            "type": "note", 
                            "channel": 0
                        }, 
                        {
                            "pitch": 68, 
                            "t0": 30000.0, 
                            "v": 32, 
                            "dur": 800.0, 
                            "type": "note", 
                            "channel": 0
                        }
                    ]
                ], 
                [
                    31000.0, 
                    [
                        {
                            "pitch": 30, 
                            "t0": 31000.0, 
                            "v": 70, 
                            "dur": 800.0, 
                            "type": "note", 
                            "channel": 0
                        }, 
                        {
                            "pitch": 42, 
                            "t0": 31000.0, 
                            "v": 116, 
                            "dur": 800.0, 
                            "type": "note", 
                            "channel": 0
                        }, 
                        {
                            "pitch": 54, 
                            "t0": 31000.0, 
                            "v": 106, 
                            "dur": 800.0, 
                            "type": "note", 
                            "channel": 0
                        }, 
                        {
                            "pitch": 66, 
                            "t0": 31000.0, 
                            "v": 45, 
                            "dur": 800.0, 
                            "type": "note", 
                            "channel": 0
                        }
                    ]
                ], 
                [
                    32000.0, 
                    [
                        {
                            "pitch": 32, 
                            "t0": 32000.0, 
                            "v": 81, 
                            "dur": 800.0, 
                            "type": "note", 
                            "channel": 0
                        }, 
                        {
                            "pitch": 44, 
                            "t0": 32000.0, 
                            "v": 119, 
                            "dur": 800.0, 
                            "type": "note", 
                            "channel": 0
                        }, 
                        {
                            "pitch": 56, 
                            "t0": 32000.0, 
                            "v": 99, 
                            "dur": 800.0, 
                            "type": "note", 
                            "channel": 0
                        }, 
                        {
                            "pitch": 68, 
                            "t0": 32000.0, 
                            "v": 32, 
                            "dur": 800.0, 
                            "type": "note", 
                            "channel": 0
                        }
                    ]
                ], 
                [
                    33000.0, 
                    [
                        {
                            "pitch": 34, 
                            "t0": 33000.0, 
                            "v": 91, 
                            "dur": 800.0, 
                            "type": "note", 
                            "channel": 0
                        }, 
                        {
                            "pitch": 46, 
                            "t0": 33000.0, 
                            "v": 120, 
                            "dur": 800.0, 
                            "type": "note", 
                            "channel": 0
                        }, 
                        {
                            "pitch": 58, 
                            "t0": 33000.0, 
                            "v": 91, 
                            "dur": 800.0, 
                            "type": "note", 
                            "channel": 0
                        }, 
                        {
                            "pitch": 70, 
                            "t0": 33000.0, 
                            "v": 18, 
                            "dur": 800.0, 
                            "type": "note", 
                            "channel": 0
                        }
                    ]
                ], 
                [
                    34000.0, 
                    [
                        {
                            "pitch": 32, 
                            "t0": 34000.0, 
                            "v": 81, 
                            "dur": 800.0, 
                            "type": "note", 
                            "channel": 0
                        }, 
                        {
                            "pitch": 44, 
                            "t0": 34000.0, 
                            "v": 119, 
                            "dur": 800.0, 
                            "type": "note", 
                            "channel": 0
                        }, 
                        {
                            "pitch": 56, 
                            "t0": 34000.0, 
                            "v": 99, 
                            "dur": 800.0, 
                            "type": "note", 
                            "channel": 0
                        }, 
                        {
                            "pitch": 68, 
                            "t0": 34000.0, 
                            "v": 32, 
                            "dur": 800.0, 
                            "type": "note", 
                            "channel": 0
                        }
                    ]
                ], 
                [
                    35000.0, 
                    [
                        {
                            "pitch": 34, 
                            "t0": 35000.0, 
                            "v": 91, 
                            "dur": 800.0, 
                            "type": "note", 
                            "channel": 0
                        }, 
                        {
                            "pitch": 46, 
                            "t0": 35000.0, 
                            "v": 120, 
                            "dur": 800.0, 
                            "type": "note", 
                            "channel": 0
                        }, 
                        {
                            "pitch": 58, 
                            "t0": 35000.0, 
                            "v": 91, 
                            "dur": 800.0, 
                            "type": "note", 
                            "channel": 0
                        }, 
                        {
                            "pitch": 70, 
                            "t0": 35000.0, 
                            "v": 18, 
                            "dur": 800.0, 
                            "type": "note", 
                            "channel": 0
                        }
                    ]
                ], 
                [
                    36000.0, 
                    [
                        {
                            "pitch": 23, 
                            "t0": 36000.0, 
                            "v": 25, 
                            "dur": 800.0, 
                            "type": "note", 
                            "channel": 0
                        }, 
                        {
                            "pitch": 35, 
                            "t0": 36000.0, 
                            "v": 95, 
                            "dur": 800.0, 
                            "type": "note", 
                            "channel": 0
                        }, 
                        {
                            "pitch": 47, 
                            "t0": 36000.0, 
                            "v": 119, 
                            "dur": 800.0, 
                            "type": "note", 
                            "channel": 0
                        }, 
                        {
                            "pitch": 59, 
                            "t0": 36000.0, 
                            "v": 86, 
                            "dur": 800.0, 
                            "type": "note", 
                            "channel": 0
                        }, 
                        {
                            "pitch": 71, 
                            "t0": 36000.0, 
                            "v": 11, 
                            "dur": 800.0, 
                            "type": "note", 
                            "channel": 0
                        }
                    ]
                ], 
                [
                    37000.0, 
                    [
                        {
                            "pitch": 34, 
                            "t0": 37000.0, 
                            "v": 91, 
                            "dur": 800.0, 
                            "type": "note", 
                            "channel": 0
                        }, 
                        {
                            "pitch": 46, 
                            "t0": 37000.0, 
                            "v": 120, 
                            "dur": 800.0, 
                            "type": "note", 
                            "channel": 0
                        }, 
                        {
                            "pitch": 58, 
                            "t0": 37000.0, 
                            "v": 91, 
                            "dur": 800.0, 
                            "type": "note", 
                            "channel": 0
                        }, 
                        {
                            "pitch": 70, 
                            "t0": 37000.0, 
                            "v": 18, 
                            "dur": 800.0, 
                            "type": "note", 
                            "channel": 0
                        }
                    ]
                ], 
                [
                    38000.0, 
                    [
                        {
                            "pitch": 23, 
                            "t0": 38000.0, 
                            "v": 25, 
                            "dur": 800.0, 
                            "type": "note", 
                            "channel": 0
                        }, 
                        {
                            "pitch": 35, 
                            "t0": 38000.0, 
                            "v": 95, 
                            "dur": 800.0, 
                            "type": "note", 
                            "channel": 0
                        }, 
                        {
                            "pitch": 47, 
                            "t0": 38000.0, 
                            "v": 119, 
                            "dur": 800.0, 
                            "type": "note", 
                            "channel": 0
                        }, 
                        {
                            "pitch": 59, 
                            "t0": 38000.0, 
                            "v": 86, 
                            "dur": 800.0, 
                            "type": "note", 
                            "channel": 0
                        }, 
                        {
                            "pitch": 71, 
                            "t0": 38000.0, 
                            "v": 11, 
                            "dur": 800.0, 
                            "type": "note", 
                            "channel": 0
                        }
                    ]
                ], 
                [
                    39000.0, 
                    [
                        {
                            "pitch": 25, 
                            "t0": 39000.0, 
                            "v": 39, 
                            "dur": 800.0, 
                            "type": "note", 
                            "channel": 0
                        }, 
                        {
                            "pitch": 37, 
                            "t0": 39000.0, 
                            "v": 103, 
                            "dur": 800.0, 
                            "type": "note", 
                            "channel": 0
                        }, 
                        {
                            "pitch": 49, 
                            "t0": 39000.0, 
                            "v": 118, 
                            "dur": 800.0, 
                            "type": "note", 
                            "channel": 0
                        }, 
                        {
                            "pitch": 61, 
                            "t0": 39000.0, 
                            "v": 76, 
                            "dur": 800.0, 
                            "type": "note", 
                            "channel": 0
                        }
                    ]
                ], 
                [
                    40000.0, 
                    [
                        {
                            "pitch": 27, 
                            "t0": 40000.0, 
                            "v": 52, 
                            "dur": 800.0, 
                            "type": "note", 
                            "channel": 0
                        }, 
                        {
                            "pitch": 39, 
                            "t0": 40000.0, 
                            "v": 109, 
                            "dur": 800.0, 
                            "type": "note", 
                            "channel": 0
                        }, 
                        {
                            "pitch": 51, 
                            "t0": 40000.0, 
                            "v": 114, 
                            "dur": 800.0, 
                            "type": "note", 
                            "channel": 0
                        }, 
                        {
                            "pitch": 63, 
                            "t0": 40000.0, 
                            "v": 64, 
                            "dur": 800.0, 
                            "type": "note", 
                            "channel": 0
                        }
                    ]
                ], 
                [
                    41000.0, 
                    [
                        {
                            "pitch": 25, 
                            "t0": 41000.0, 
                            "v": 39, 
                            "dur": 800.0, 
                            "type": "note", 
                            "channel": 0
                        }, 
                        {
                            "pitch": 37, 
                            "t0": 41000.0, 
                            "v": 103, 
                            "dur": 800.0, 
                            "type": "note", 
                            "channel": 0
                        }, 
                        {
                            "pitch": 49, 
                            "t0": 41000.0, 
                            "v": 118, 
                            "dur": 800.0, 
                            "type": "note", 
                            "channel": 0
                        }, 
                        {
                            "pitch": 61, 
                            "t0": 41000.0, 
                            "v": 76, 
                            "dur": 800.0, 
                            "type": "note", 
                            "channel": 0
                        }
                    ]
                ], 
                [
                    42000.0, 
                    [
                        {
                            "pitch": 27, 
                            "t0": 42000.0, 
                            "v": 52, 
                            "dur": 800.0, 
                            "type": "note", 
                            "channel": 0
                        }, 
                        {
                            "pitch": 39, 
                            "t0": 42000.0, 
                            "v": 109, 
                            "dur": 800.0, 
                            "type": "note", 
                            "channel": 0
                        }, 
                        {
                            "pitch": 51, 
                            "t0": 42000.0, 
                            "v": 114, 
                            "dur": 800.0, 
                            "type": "note", 
                            "channel": 0
                        }, 
                        {
                            "pitch": 63, 
                            "t0": 42000.0, 
                            "v": 64, 
                            "dur": 800.0, 
                            "type": "note", 
                            "channel": 0
                        }
                    ]
                ], 
                [
                    43000.0, 
                    [
                        {
                            "pitch": 28, 
                            "t0": 43000.0, 
                            "v": 58, 
                            "dur": 800.0, 
                            "type": "note", 
                            "channel": 0
                        }, 
                        {
                            "pitch": 40, 
                            "t0": 43000.0, 
                            "v": 112, 
                            "dur": 800.0, 
                            "type": "note", 
                            "channel": 0
                        }, 
                        {
                            "pitch": 52, 
                            "t0": 43000.0, 
                            "v": 112, 
                            "dur": 800.0, 
                            "type": "note", 
                            "channel": 0
                        }, 
                        {
                            "pitch": 64, 
                            "t0": 43000.0, 
                            "v": 58, 
                            "dur": 800.0, 
                            "type": "note", 
                            "channel": 0
                        }
                    ]
                ], 
                [
                    44000.0, 
                    [
                        {
                            "pitch": 27, 
                            "t0": 44000.0, 
                            "v": 52, 
                            "dur": 800.0, 
                            "type": "note", 
                            "channel": 0
                        }, 
                        {
                            "pitch": 39, 
                            "t0": 44000.0, 
                            "v": 109, 
                            "dur": 800.0, 
                            "type": "note", 
                            "channel": 0
                        }, 
                        {
                            "pitch": 51, 
                            "t0": 44000.0, 
                            "v": 114, 
                            "dur": 800.0, 
                            "type": "note", 
                            "channel": 0
                        }, 
                        {
                            "pitch": 63, 
                            "t0": 44000.0, 
                            "v": 64, 
                            "dur": 800.0, 
                            "type": "note", 
                            "channel": 0
                        }
                    ]
                ], 
                [
                    45000.0, 
                    [
                        {
                            "pitch": 28, 
                            "t0": 45000.0, 
                            "v": 58, 
                            "dur": 800.0, 
                            "type": "note", 
                            "channel": 0
                        }, 
                        {
                            "pitch": 40, 
                            "t0": 45000.0, 
                            "v": 112, 
                            "dur": 800.0, 
                            "type": "note", 
                            "channel": 0
                        }, 
                        {
                            "pitch": 52, 
                            "t0": 45000.0, 
                            "v": 112, 
                            "dur": 800.0, 
                            "type": "note", 
                            "channel": 0
                        }, 
                        {
                            "pitch": 64, 
                            "t0": 45000.0, 
                            "v": 58, 
                            "dur": 800.0, 
                            "type": "note", 
                            "channel": 0
                        }
                    ]
                ], 
                [
                    46000.0, 
                    [
                        {
                            "pitch": 30, 
                            "t0": 46000.0, 
                            "v": 70, 
                            "dur": 800.0, 
                            "type": "note", 
                            "channel": 0
                        }, 
                        {
                            "pitch": 42, 
                            "t0": 46000.0, 
                            "v": 116, 
                            "dur": 800.0, 
                            "type": "note", 
                            "channel": 0
                        }, 
                        {
                            "pitch": 54, 
                            "t0": 46000.0, 
                            "v": 106, 
                            "dur": 800.0, 
                            "type": "note", 
                            "channel": 0
                        }, 
                        {
                            "pitch": 66, 
                            "t0": 46000.0, 
                            "v": 45, 
                            "dur": 800.0, 
                            "type": "note", 
                            "channel": 0
                        }
                    ]
                ], 
                [
                    47000.0, 
                    [
                        {
                            "pitch": 28, 
                            "t0": 47000.0, 
                            "v": 58, 
                            "dur": 800.0, 
                            "type": "note", 
                            "channel": 0
                        }, 
                        {
                            "pitch": 40, 
                            "t0": 47000.0, 
                            "v": 112, 
                            "dur": 800.0, 
                            "type": "note", 
                            "channel": 0
                        }, 
                        {
                            "pitch": 52, 
                            "t0": 47000.0, 
                            "v": 112, 
                            "dur": 800.0, 
                            "type": "note", 
                            "channel": 0
                        }, 
                        {
                            "pitch": 64, 
                            "t0": 47000.0, 
                            "v": 58, 
                            "dur": 800.0, 
                            "type": "note", 
                            "channel": 0
                        }
                    ]
                ], 
                [
                    48000.0, 
                    [
                        {
                            "pitch": 30, 
                            "t0": 48000.0, 
                            "v": 70, 
                            "dur": 800.0, 
                            "type": "note", 
                            "channel": 0
                        }, 
                        {
                            "pitch": 42, 
                            "t0": 48000.0, 
                            "v": 116, 
                            "dur": 800.0, 
                            "type": "note", 
                            "channel": 0
                        }, 
                        {
                            "pitch": 54, 
                            "t0": 48000.0, 
                            "v": 106, 
                            "dur": 800.0, 
                            "type": "note", 
                            "channel": 0
                        }, 
                        {
                            "pitch": 66, 
                            "t0": 48000.0, 
                            "v": 45, 
                            "dur": 800.0, 
                            "type": "note", 
                            "channel": 0
                        }
                    ]
                ], 
                [
                    49000.0, 
                    [
                        {
                            "pitch": 32, 
                            "t0": 49000.0, 
                            "v": 81, 
                            "dur": 800.0, 
                            "type": "note", 
                            "channel": 0
                        }, 
                        {
                            "pitch": 44, 
                            "t0": 49000.0, 
                            "v": 119, 
                            "dur": 800.0, 
                            "type": "note", 
                            "channel": 0
                        }, 
                        {
                            "pitch": 56, 
                            "t0": 49000.0, 
                            "v": 99, 
                            "dur": 800.0, 
                            "type": "note", 
                            "channel": 0
                        }, 
                        {
                            "pitch": 68, 
                            "t0": 49000.0, 
                            "v": 32, 
                            "dur": 800.0, 
                            "type": "note", 
                            "channel": 0
                        }
                    ]
                ], 
                [
                    50000.0, 
                    [
                        {
                            "pitch": 30, 
                            "t0": 50000.0, 
                            "v": 70, 
                            "dur": 800.0, 
                            "type": "note", 
                            "channel": 0
                        }, 
                        {
                            "pitch": 42, 
                            "t0": 50000.0, 
                            "v": 116, 
                            "dur": 800.0, 
                            "type": "note", 
                            "channel": 0
                        }, 
                        {
                            "pitch": 54, 
                            "t0": 50000.0, 
                            "v": 106, 
                            "dur": 800.0, 
                            "type": "note", 
                            "channel": 0
                        }, 
                        {
                            "pitch": 66, 
                            "t0": 50000.0, 
                            "v": 45, 
                            "dur": 800.0, 
                            "type": "note", 
                            "channel": 0
                        }
                    ]
                ], 
                [
                    51000.0, 
                    [
                        {
                            "pitch": 32, 
                            "t0": 51000.0, 
                            "v": 81, 
                            "dur": 800.0, 
                            "type": "note", 
                            "channel": 0
                        }, 
                        {
                            "pitch": 44, 
                            "t0": 51000.0, 
                            "v": 119, 
                            "dur": 800.0, 
                            "type": "note", 
                            "channel": 0
                        }, 
                        {
                            "pitch": 56, 
                            "t0": 51000.0, 
                            "v": 99, 
                            "dur": 800.0, 
                            "type": "note", 
                            "channel": 0
                        }, 
                        {
                            "pitch": 68, 
                            "t0": 51000.0, 
                            "v": 32, 
                            "dur": 800.0, 
                            "type": "note", 
                            "channel": 0
                        }
                    ]
                ], 
                [
                    52000.0, 
                    [
                        {
                            "pitch": 34, 
                            "t0": 52000.0, 
                            "v": 91, 
                            "dur": 800.0, 
                            "type": "note", 
                            "channel": 0
                        }, 
                        {
                            "pitch": 46, 
                            "t0": 52000.0, 
                            "v": 120, 
                            "dur": 800.0, 
                            "type": "note", 
                            "channel": 0
                        }, 
                        {
                            "pitch": 58, 
                            "t0": 52000.0, 
                            "v": 91, 
                            "dur": 800.0, 
                            "type": "note", 
                            "channel": 0
                        }, 
                        {
                            "pitch": 70, 
                            "t0": 52000.0, 
                            "v": 18, 
                            "dur": 800.0, 
                            "type": "note", 
                            "channel": 0
                        }
                    ]
                ], 
                [
                    53000.0, 
                    [
                        {
                            "pitch": 32, 
                            "t0": 53000.0, 
                            "v": 81, 
                            "dur": 800.0, 
                            "type": "note", 
                            "channel": 0
                        }, 
                        {
                            "pitch": 44, 
                            "t0": 53000.0, 
                            "v": 119, 
                            "dur": 800.0, 
                            "type": "note", 
                            "channel": 0
                        }, 
                        {
                            "pitch": 56, 
                            "t0": 53000.0, 
                            "v": 99, 
                            "dur": 800.0, 
                            "type": "note", 
                            "channel": 0
                        }, 
                        {
                            "pitch": 68, 
                            "t0": 53000.0, 
                            "v": 32, 
                            "dur": 800.0, 
                            "type": "note", 
                            "channel": 0
                        }
                    ]
                ], 
                [
                    54000.0, 
                    [
                        {
                            "pitch": 34, 
                            "t0": 54000.0, 
                            "v": 91, 
                            "dur": 800.0, 
                            "type": "note", 
                            "channel": 0
                        }, 
                        {
                            "pitch": 46, 
                            "t0": 54000.0, 
                            "v": 120, 
                            "dur": 800.0, 
                            "type": "note", 
                            "channel": 0
                        }, 
                        {
                            "pitch": 58, 
                            "t0": 54000.0, 
                            "v": 91, 
                            "dur": 800.0, 
                            "type": "note", 
                            "channel": 0
                        }, 
                        {
                            "pitch": 70, 
                            "t0": 54000.0, 
                            "v": 18, 
                            "dur": 800.0, 
                            "type": "note", 
                            "channel": 0
                        }
                    ]
                ], 
                [
                    55000.0, 
                    [
                        {
                            "pitch": 23, 
                            "t0": 55000.0, 
                            "v": 25, 
                            "dur": 800.0, 
                            "type": "note", 
                            "channel": 0
                        }, 
                        {
                            "pitch": 35, 
                            "t0": 55000.0, 
                            "v": 95, 
                            "dur": 800.0, 
                            "type": "note", 
                            "channel": 0
                        }, 
                        {
                            "pitch": 47, 
                            "t0": 55000.0, 
                            "v": 119, 
                            "dur": 800.0, 
                            "type": "note", 
                            "channel": 0
                        }, 
                        {
                            "pitch": 59, 
                            "t0": 55000.0, 
                            "v": 86, 
                            "dur": 800.0, 
                            "type": "note", 
                            "channel": 0
                        }, 
                        {
                            "pitch": 71, 
                            "t0": 55000.0, 
                            "v": 11, 
                            "dur": 800.0, 
                            "type": "note", 
                            "channel": 0
                        }
                    ]
                ], 
                [
                    56000.0, 
                    [
                        {
                            "pitch": 34, 
                            "t0": 56000.0, 
                            "v": 91, 
                            "dur": 800.0, 
                            "type": "note", 
                            "channel": 0
                        }, 
                        {
                            "pitch": 46, 
                            "t0": 56000.0, 
                            "v": 120, 
                            "dur": 800.0, 
                            "type": "note", 
                            "channel": 0
                        }, 
                        {
                            "pitch": 58, 
                            "t0": 56000.0, 
                            "v": 91, 
                            "dur": 800.0, 
                            "type": "note", 
                            "channel": 0
                        }, 
                        {
                            "pitch": 70, 
                            "t0": 56000.0, 
                            "v": 18, 
                            "dur": 800.0, 
                            "type": "note", 
                            "channel": 0
                        }
                    ]
                ], 
                [
                    57000.0, 
                    [
                        {
                            "pitch": 23, 
                            "t0": 57000.0, 
                            "v": 25, 
                            "dur": 800.0, 
                            "type": "note", 
                            "channel": 0
                        }, 
                        {
                            "pitch": 35, 
                            "t0": 57000.0, 
                            "v": 95, 
                            "dur": 800.0, 
                            "type": "note", 
                            "channel": 0
                        }, 
                        {
                            "pitch": 47, 
                            "t0": 57000.0, 
                            "v": 119, 
                            "dur": 800.0, 
                            "type": "note", 
                            "channel": 0
                        }, 
                        {
                            "pitch": 59, 
                            "t0": 57000.0, 
                            "v": 86, 
                            "dur": 800.0, 
                            "type": "note", 
                            "channel": 0
                        }, 
                        {
                            "pitch": 71, 
                            "t0": 57000.0, 
                            "v": 11, 
                            "dur": 800.0, 
                            "type": "note", 
                            "channel": 0
                        }
                    ]
                ], 
                [
                    58000.0, 
                    [
                        {
                            "pitch": 25, 
                            "t0": 58000.0, 
                            "v": 39, 
                            "dur": 800.0, 
                            "type": "note", 
                            "channel": 0
                        }, 
                        {
                            "pitch": 37, 
                            "t0": 58000.0, 
                            "v": 103, 
                            "dur": 800.0, 
                            "type": "note", 
                            "channel": 0
                        }, 
                        {
                            "pitch": 49, 
                            "t0": 58000.0, 
                            "v": 118, 
                            "dur": 800.0, 
                            "type": "note", 
                            "channel": 0
                        }, 
                        {
                            "pitch": 61, 
                            "t0": 58000.0, 
                            "v": 76, 
                            "dur": 800.0, 
                            "type": "note", 
                            "channel": 0
                        }
                    ]
                ], 
                [
                    59000.0, 
                    [
                        {
                            "pitch": 27, 
                            "t0": 59000.0, 
                            "v": 52, 
                            "dur": 800.0, 
                            "type": "note", 
                            "channel": 0
                        }, 
                        {
                            "pitch": 39, 
                            "t0": 59000.0, 
                            "v": 109, 
                            "dur": 800.0, 
                            "type": "note", 
                            "channel": 0
                        }, 
                        {
                            "pitch": 51, 
                            "t0": 59000.0, 
                            "v": 114, 
                            "dur": 800.0, 
                            "type": "note", 
                            "channel": 0
                        }, 
                        {
                            "pitch": 63, 
                            "t0": 59000.0, 
                            "v": 64, 
                            "dur": 800.0, 
                            "type": "note", 
                            "channel": 0
                        }
                    ]
                ], 
                [
                    60000.0, 
                    [
                        {
                            "pitch": 25, 
                            "t0": 60000.0, 
                            "v": 39, 
                            "dur": 800.0, 
                            "type": "note", 
                            "channel": 0
                        }, 
                        {
                            "pitch": 37, 
                            "t0": 60000.0, 
                            "v": 103, 
                            "dur": 800.0, 
                            "type": "note", 
                            "channel": 0
                        }, 
                        {
                            "pitch": 49, 
                            "t0": 60000.0, 
                            "v": 118, 
                            "dur": 800.0, 
                            "type": "note", 
                            "channel": 0
                        }, 
                        {
                            "pitch": 61, 
                            "t0": 60000.0, 
                            "v": 76, 
                            "dur": 800.0, 
                            "type": "note", 
                            "channel": 0
                        }
                    ]
                ], 
                [
                    61000.0, 
                    [
                        {
                            "pitch": 27, 
                            "t0": 61000.0, 
                            "v": 52, 
                            "dur": 800.0, 
                            "type": "note", 
                            "channel": 0
                        }, 
                        {
                            "pitch": 39, 
                            "t0": 61000.0, 
                            "v": 109, 
                            "dur": 800.0, 
                            "type": "note", 
                            "channel": 0
                        }, 
                        {
                            "pitch": 51, 
                            "t0": 61000.0, 
                            "v": 114, 
                            "dur": 800.0, 
                            "type": "note", 
                            "channel": 0
                        }, 
                        {
                            "pitch": 63, 
                            "t0": 61000.0, 
                            "v": 64, 
                            "dur": 800.0, 
                            "type": "note", 
                            "channel": 0
                        }
                    ]
                ], 
                [
                    62000.0, 
                    [
                        {
                            "pitch": 28, 
                            "t0": 62000.0, 
                            "v": 58, 
                            "dur": 800.0, 
                            "type": "note", 
                            "channel": 0
                        }, 
                        {
                            "pitch": 40, 
                            "t0": 62000.0, 
                            "v": 112, 
                            "dur": 800.0, 
                            "type": "note", 
                            "channel": 0
                        }, 
                        {
                            "pitch": 52, 
                            "t0": 62000.0, 
                            "v": 112, 
                            "dur": 800.0, 
                            "type": "note", 
                            "channel": 0
                        }, 
                        {
                            "pitch": 64, 
                            "t0": 62000.0, 
                            "v": 58, 
                            "dur": 800.0, 
                            "type": "note", 
                            "channel": 0
                        }
                    ]
                ], 
                [
                    63000.0, 
                    [
                        {
                            "pitch": 27, 
                            "t0": 63000.0, 
                            "v": 52, 
                            "dur": 800.0, 
                            "type": "note", 
                            "channel": 0
                        }, 
                        {
                            "pitch": 39, 
                            "t0": 63000.0, 
                            "v": 109, 
                            "dur": 800.0, 
                            "type": "note", 
                            "channel": 0
                        }, 
                        {
                            "pitch": 51, 
                            "t0": 63000.0, 
                            "v": 114, 
                            "dur": 800.0, 
                            "type": "note", 
                            "channel": 0
                        }, 
                        {
                            "pitch": 63, 
                            "t0": 63000.0, 
                            "v": 64, 
                            "dur": 800.0, 
                            "type": "note", 
                            "channel": 0
                        }
                    ]
                ], 
                [
                    64000.0, 
                    [
                        {
                            "pitch": 28, 
                            "t0": 64000.0, 
                            "v": 58, 
                            "dur": 800.0, 
                            "type": "note", 
                            "channel": 0
                        }, 
                        {
                            "pitch": 40, 
                            "t0": 64000.0, 
                            "v": 112, 
                            "dur": 800.0, 
                            "type": "note", 
                            "channel": 0
                        }, 
                        {
                            "pitch": 52, 
                            "t0": 64000.0, 
                            "v": 112, 
                            "dur": 800.0, 
                            "type": "note", 
                            "channel": 0
                        }, 
                        {
                            "pitch": 64, 
                            "t0": 64000.0, 
                            "v": 58, 
                            "dur": 800.0, 
                            "type": "note", 
                            "channel": 0
                        }
                    ]
                ], 
                [
                    65000.0, 
                    [
                        {
                            "pitch": 30, 
                            "t0": 65000.0, 
                            "v": 70, 
                            "dur": 800.0, 
                            "type": "note", 
                            "channel": 0
                        }, 
                        {
                            "pitch": 42, 
                            "t0": 65000.0, 
                            "v": 116, 
                            "dur": 800.0, 
                            "type": "note", 
                            "channel": 0
                        }, 
                        {
                            "pitch": 54, 
                            "t0": 65000.0, 
                            "v": 106, 
                            "dur": 800.0, 
                            "type": "note", 
                            "channel": 0
                        }, 
                        {
                            "pitch": 66, 
                            "t0": 65000.0, 
                            "v": 45, 
                            "dur": 800.0, 
                            "type": "note", 
                            "channel": 0
                        }
                    ]
                ], 
                [
                    66000.0, 
                    [
                        {
                            "pitch": 28, 
                            "t0": 66000.0, 
                            "v": 58, 
                            "dur": 800.0, 
                            "type": "note", 
                            "channel": 0
                        }, 
                        {
                            "pitch": 40, 
                            "t0": 66000.0, 
                            "v": 112, 
                            "dur": 800.0, 
                            "type": "note", 
                            "channel": 0
                        }, 
                        {
                            "pitch": 52, 
                            "t0": 66000.0, 
                            "v": 112, 
                            "dur": 800.0, 
                            "type": "note", 
                            "channel": 0
                        }, 
                        {
                            "pitch": 64, 
                            "t0": 66000.0, 
                            "v": 58, 
                            "dur": 800.0, 
                            "type": "note", 
                            "channel": 0
                        }
                    ]
                ], 
                [
                    67000.0, 
                    [
                        {
                            "pitch": 30, 
                            "t0": 67000.0, 
                            "v": 70, 
                            "dur": 800.0, 
                            "type": "note", 
                            "channel": 0
                        }, 
                        {
                            "pitch": 42, 
                            "t0": 67000.0, 
                            "v": 116, 
                            "dur": 800.0, 
                            "type": "note", 
                            "channel": 0
                        }, 
                        {
                            "pitch": 54, 
                            "t0": 67000.0, 
                            "v": 106, 
                            "dur": 800.0, 
                            "type": "note", 
                            "channel": 0
                        }, 
                        {
                            "pitch": 66, 
                            "t0": 67000.0, 
                            "v": 45, 
                            "dur": 800.0, 
                            "type": "note", 
                            "channel": 0
                        }
                    ]
                ], 
                [
                    68000.0, 
                    [
                        {
                            "pitch": 32, 
                            "t0": 68000.0, 
                            "v": 81, 
                            "dur": 800.0, 
                            "type": "note", 
                            "channel": 0
                        }, 
                        {
                            "pitch": 44, 
                            "t0": 68000.0, 
                            "v": 119, 
                            "dur": 800.0, 
                            "type": "note", 
                            "channel": 0
                        }, 
                        {
                            "pitch": 56, 
                            "t0": 68000.0, 
                            "v": 99, 
                            "dur": 800.0, 
                            "type": "note", 
                            "channel": 0
                        }, 
                        {
                            "pitch": 68, 
                            "t0": 68000.0, 
                            "v": 32, 
                            "dur": 800.0, 
                            "type": "note", 
                            "channel": 0
                        }
                    ]
                ], 
                [
                    69000.0, 
                    [
                        {
                            "pitch": 30, 
                            "t0": 69000.0, 
                            "v": 70, 
                            "dur": 800.0, 
                            "type": "note", 
                            "channel": 0
                        }, 
                        {
                            "pitch": 42, 
                            "t0": 69000.0, 
                            "v": 116, 
                            "dur": 800.0, 
                            "type": "note", 
                            "channel": 0
                        }, 
                        {
                            "pitch": 54, 
                            "t0": 69000.0, 
                            "v": 106, 
                            "dur": 800.0, 
                            "type": "note", 
                            "channel": 0
                        }, 
                        {
                            "pitch": 66, 
                            "t0": 69000.0, 
                            "v": 45, 
                            "dur": 800.0, 
                            "type": "note", 
                            "channel": 0
                        }
                    ]
                ], 
                [
                    70000.0, 
                    [
                        {
                            "pitch": 32, 
                            "t0": 70000.0, 
                            "v": 81, 
                            "dur": 800.0, 
                            "type": "note", 
                            "channel": 0
                        }, 
                        {
                            "pitch": 44, 
                            "t0": 70000.0, 
                            "v": 119, 
                            "dur": 800.0, 
                            "type": "note", 
                            "channel": 0
                        }, 
                        {
                            "pitch": 56, 
                            "t0": 70000.0, 
                            "v": 99, 
                            "dur": 800.0, 
                            "type": "note", 
                            "channel": 0
                        }, 
                        {
                            "pitch": 68, 
                            "t0": 70000.0, 
                            "v": 32, 
                            "dur": 800.0, 
                            "type": "note", 
                            "channel": 0
                        }
                    ]
                ], 
                [
                    71000.0, 
                    [
                        {
                            "pitch": 34, 
                            "t0": 71000.0, 
                            "v": 91, 
                            "dur": 800.0, 
                            "type": "note", 
                            "channel": 0
                        }, 
                        {
                            "pitch": 46, 
                            "t0": 71000.0, 
                            "v": 120, 
                            "dur": 800.0, 
                            "type": "note", 
                            "channel": 0
                        }, 
                        {
                            "pitch": 58, 
                            "t0": 71000.0, 
                            "v": 91, 
                            "dur": 800.0, 
                            "type": "note", 
                            "channel": 0
                        }, 
                        {
                            "pitch": 70, 
                            "t0": 71000.0, 
                            "v": 18, 
                            "dur": 800.0, 
                            "type": "note", 
                            "channel": 0
                        }
                    ]
                ], 
                [
                    72000.0, 
                    [
                        {
                            "pitch": 32, 
                            "t0": 72000.0, 
                            "v": 81, 
                            "dur": 800.0, 
                            "type": "note", 
                            "channel": 0
                        }, 
                        {
                            "pitch": 44, 
                            "t0": 72000.0, 
                            "v": 119, 
                            "dur": 800.0, 
                            "type": "note", 
                            "channel": 0
                        }, 
                        {
                            "pitch": 56, 
                            "t0": 72000.0, 
                            "v": 99, 
                            "dur": 800.0, 
                            "type": "note", 
                            "channel": 0
                        }, 
                        {
                            "pitch": 68, 
                            "t0": 72000.0, 
                            "v": 32, 
                            "dur": 800.0, 
                            "type": "note", 
                            "channel": 0
                        }
                    ]
                ], 
                [
                    73000.0, 
                    [
                        {
                            "pitch": 34, 
                            "t0": 73000.0, 
                            "v": 91, 
                            "dur": 800.0, 
                            "type": "note", 
                            "channel": 0
                        }, 
                        {
                            "pitch": 46, 
                            "t0": 73000.0, 
                            "v": 120, 
                            "dur": 800.0, 
                            "type": "note", 
                            "channel": 0
                        }, 
                        {
                            "pitch": 58, 
                            "t0": 73000.0, 
                            "v": 91, 
                            "dur": 800.0, 
                            "type": "note", 
                            "channel": 0
                        }, 
                        {
                            "pitch": 70, 
                            "t0": 73000.0, 
                            "v": 18, 
                            "dur": 800.0, 
                            "type": "note", 
                            "channel": 0
                        }
                    ]
                ], 
                [
                    74000.0, 
                    [
                        {
                            "pitch": 23, 
                            "t0": 74000.0, 
                            "v": 25, 
                            "dur": 800.0, 
                            "type": "note", 
                            "channel": 0
                        }, 
                        {
                            "pitch": 35, 
                            "t0": 74000.0, 
                            "v": 95, 
                            "dur": 800.0, 
                            "type": "note", 
                            "channel": 0
                        }, 
                        {
                            "pitch": 47, 
                            "t0": 74000.0, 
                            "v": 119, 
                            "dur": 800.0, 
                            "type": "note", 
                            "channel": 0
                        }, 
                        {
                            "pitch": 59, 
                            "t0": 74000.0, 
                            "v": 86, 
                            "dur": 800.0, 
                            "type": "note", 
                            "channel": 0
                        }, 
                        {
                            "pitch": 71, 
                            "t0": 74000.0, 
                            "v": 11, 
                            "dur": 800.0, 
                            "type": "note", 
                            "channel": 0
                        }
                    ]
                ], 
                [
                    75000.0, 
                    [
                        {
                            "pitch": 34, 
                            "t0": 75000.0, 
                            "v": 91, 
                            "dur": 800.0, 
                            "type": "note", 
                            "channel": 0
                        }, 
                        {
                            "pitch": 46, 
                            "t0": 75000.0, 
                            "v": 120, 
                            "dur": 800.0, 
                            "type": "note", 
                            "channel": 0
                        }, 
                        {
                            "pitch": 58, 
                            "t0": 75000.0, 
                            "v": 91, 
                            "dur": 800.0, 
                            "type": "note", 
                            "channel": 0
                        }, 
                        {
                            "pitch": 70, 
                            "t0": 75000.0, 
                            "v": 18, 
                            "dur": 800.0, 
                            "type": "note", 
                            "channel": 0
                        }
                    ]
                ], 
                [
                    76000.0, 
                    [
                        {
                            "pitch": 23, 
                            "t0": 76000.0, 
                            "v": 25, 
                            "dur": 800.0, 
                            "type": "note", 
                            "channel": 0
                        }, 
                        {
                            "pitch": 35, 
                            "t0": 76000.0, 
                            "v": 95, 
                            "dur": 800.0, 
                            "type": "note", 
                            "channel": 0
                        }, 
                        {
                            "pitch": 47, 
                            "t0": 76000.0, 
                            "v": 119, 
                            "dur": 800.0, 
                            "type": "note", 
                            "channel": 0
                        }, 
                        {
                            "pitch": 59, 
                            "t0": 76000.0, 
                            "v": 86, 
                            "dur": 800.0, 
                            "type": "note", 
                            "channel": 0
                        }, 
                        {
                            "pitch": 71, 
                            "t0": 76000.0, 
                            "v": 11, 
                            "dur": 800.0, 
                            "type": "note", 
                            "channel": 0
                        }
                    ]
                ], 
                [
                    77000.0, 
                    [
                        {
                            "pitch": 25, 
                            "t0": 77000.0, 
                            "v": 39, 
                            "dur": 800.0, 
                            "type": "note", 
                            "channel": 0
                        }, 
                        {
                            "pitch": 37, 
                            "t0": 77000.0, 
                            "v": 103, 
                            "dur": 800.0, 
                            "type": "note", 
                            "channel": 0
                        }, 
                        {
                            "pitch": 49, 
                            "t0": 77000.0, 
                            "v": 118, 
                            "dur": 800.0, 
                            "type": "note", 
                            "channel": 0
                        }, 
                        {
                            "pitch": 61, 
                            "t0": 77000.0, 
                            "v": 76, 
                            "dur": 800.0, 
                            "type": "note", 
                            "channel": 0
                        }
                    ]
                ], 
                [
                    78000.0, 
                    [
                        {
                            "pitch": 27, 
                            "t0": 78000.0, 
                            "v": 52, 
                            "dur": 800.0, 
                            "type": "note", 
                            "channel": 0
                        }, 
                        {
                            "pitch": 39, 
                            "t0": 78000.0, 
                            "v": 109, 
                            "dur": 800.0, 
                            "type": "note", 
                            "channel": 0
                        }, 
                        {
                            "pitch": 51, 
                            "t0": 78000.0, 
                            "v": 114, 
                            "dur": 800.0, 
                            "type": "note", 
                            "channel": 0
                        }, 
                        {
                            "pitch": 63, 
                            "t0": 78000.0, 
                            "v": 64, 
                            "dur": 800.0, 
                            "type": "note", 
                            "channel": 0
                        }
                    ]
                ], 
                [
                    79000.0, 
                    [
                        {
                            "pitch": 25, 
                            "t0": 79000.0, 
                            "v": 39, 
                            "dur": 800.0, 
                            "type": "note", 
                            "channel": 0
                        }, 
                        {
                            "pitch": 37, 
                            "t0": 79000.0, 
                            "v": 103, 
                            "dur": 800.0, 
                            "type": "note", 
                            "channel": 0
                        }, 
                        {
                            "pitch": 49, 
                            "t0": 79000.0, 
                            "v": 118, 
                            "dur": 800.0, 
                            "type": "note", 
                            "channel": 0
                        }, 
                        {
                            "pitch": 61, 
                            "t0": 79000.0, 
                            "v": 76, 
                            "dur": 800.0, 
                            "type": "note", 
                            "channel": 0
                        }
                    ]
                ], 
                [
                    80000.0, 
                    [
                        {
                            "pitch": 27, 
                            "t0": 80000.0, 
                            "v": 52, 
                            "dur": 800.0, 
                            "type": "note", 
                            "channel": 0
                        }, 
                        {
                            "pitch": 39, 
                            "t0": 80000.0, 
                            "v": 109, 
                            "dur": 800.0, 
                            "type": "note", 
                            "channel": 0
                        }, 
                        {
                            "pitch": 51, 
                            "t0": 80000.0, 
                            "v": 114, 
                            "dur": 800.0, 
                            "type": "note", 
                            "channel": 0
                        }, 
                        {
                            "pitch": 63, 
                            "t0": 80000.0, 
                            "v": 64, 
                            "dur": 800.0, 
                            "type": "note", 
                            "channel": 0
                        }
                    ]
                ], 
                [
                    81000.0, 
                    [
                        {
                            "pitch": 28, 
                            "t0": 81000.0, 
                            "v": 58, 
                            "dur": 800.0, 
                            "type": "note", 
                            "channel": 0
                        }, 
                        {
                            "pitch": 40, 
                            "t0": 81000.0, 
                            "v": 112, 
                            "dur": 800.0, 
                            "type": "note", 
                            "channel": 0
                        }, 
                        {
                            "pitch": 52, 
                            "t0": 81000.0, 
                            "v": 112, 
                            "dur": 800.0, 
                            "type": "note", 
                            "channel": 0
                        }, 
                        {
                            "pitch": 64, 
                            "t0": 81000.0, 
                            "v": 58, 
                            "dur": 800.0, 
                            "type": "note", 
                            "channel": 0
                        }
                    ]
                ], 
                [
                    82000.0, 
                    [
                        {
                            "pitch": 27, 
                            "t0": 82000.0, 
                            "v": 52, 
                            "dur": 800.0, 
                            "type": "note", 
                            "channel": 0
                        }, 
                        {
                            "pitch": 39, 
                            "t0": 82000.0, 
                            "v": 109, 
                            "dur": 800.0, 
                            "type": "note", 
                            "channel": 0
                        }, 
                        {
                            "pitch": 51, 
                            "t0": 82000.0, 
                            "v": 114, 
                            "dur": 800.0, 
                            "type": "note", 
                            "channel": 0
                        }, 
                        {
                            "pitch": 63, 
                            "t0": 82000.0, 
                            "v": 64, 
                            "dur": 800.0, 
                            "type": "note", 
                            "channel": 0
                        }
                    ]
                ], 
                [
                    83000.0, 
                    [
                        {
                            "pitch": 28, 
                            "t0": 83000.0, 
                            "v": 58, 
                            "dur": 800.0, 
                            "type": "note", 
                            "channel": 0
                        }, 
                        {
                            "pitch": 40, 
                            "t0": 83000.0, 
                            "v": 112, 
                            "dur": 800.0, 
                            "type": "note", 
                            "channel": 0
                        }, 
                        {
                            "pitch": 52, 
                            "t0": 83000.0, 
                            "v": 112, 
                            "dur": 800.0, 
                            "type": "note", 
                            "channel": 0
                        }, 
                        {
                            "pitch": 64, 
                            "t0": 83000.0, 
                            "v": 58, 
                            "dur": 800.0, 
                            "type": "note", 
                            "channel": 0
                        }
                    ]
                ], 
                [
                    84000.0, 
                    [
                        {
                            "pitch": 30, 
                            "t0": 84000.0, 
                            "v": 70, 
                            "dur": 800.0, 
                            "type": "note", 
                            "channel": 0
                        }, 
                        {
                            "pitch": 42, 
                            "t0": 84000.0, 
                            "v": 116, 
                            "dur": 800.0, 
                            "type": "note", 
                            "channel": 0
                        }, 
                        {
                            "pitch": 54, 
                            "t0": 84000.0, 
                            "v": 106, 
                            "dur": 800.0, 
                            "type": "note", 
                            "channel": 0
                        }, 
                        {
                            "pitch": 66, 
                            "t0": 84000.0, 
                            "v": 45, 
                            "dur": 800.0, 
                            "type": "note", 
                            "channel": 0
                        }
                    ]
                ], 
                [
                    85000.0, 
                    [
                        {
                            "pitch": 28, 
                            "t0": 85000.0, 
                            "v": 58, 
                            "dur": 800.0, 
                            "type": "note", 
                            "channel": 0
                        }, 
                        {
                            "pitch": 40, 
                            "t0": 85000.0, 
                            "v": 112, 
                            "dur": 800.0, 
                            "type": "note", 
                            "channel": 0
                        }, 
                        {
                            "pitch": 52, 
                            "t0": 85000.0, 
                            "v": 112, 
                            "dur": 800.0, 
                            "type": "note", 
                            "channel": 0
                        }, 
                        {
                            "pitch": 64, 
                            "t0": 85000.0, 
                            "v": 58, 
                            "dur": 800.0, 
                            "type": "note", 
                            "channel": 0
                        }
                    ]
                ], 
                [
                    86000.0, 
                    [
                        {
                            "pitch": 30, 
                            "t0": 86000.0, 
                            "v": 70, 
                            "dur": 800.0, 
                            "type": "note", 
                            "channel": 0
                        }, 
                        {
                            "pitch": 42, 
                            "t0": 86000.0, 
                            "v": 116, 
                            "dur": 800.0, 
                            "type": "note", 
                            "channel": 0
                        }, 
                        {
                            "pitch": 54, 
                            "t0": 86000.0, 
                            "v": 106, 
                            "dur": 800.0, 
                            "type": "note", 
                            "channel": 0
                        }, 
                        {
                            "pitch": 66, 
                            "t0": 86000.0, 
                            "v": 45, 
                            "dur": 800.0, 
                            "type": "note", 
                            "channel": 0
                        }
                    ]
                ], 
                [
                    87000.0, 
                    [
                        {
                            "pitch": 32, 
                            "t0": 87000.0, 
                            "v": 81, 
                            "dur": 800.0, 
                            "type": "note", 
                            "channel": 0
                        }, 
                        {
                            "pitch": 44, 
                            "t0": 87000.0, 
                            "v": 119, 
                            "dur": 800.0, 
                            "type": "note", 
                            "channel": 0
                        }, 
                        {
                            "pitch": 56, 
                            "t0": 87000.0, 
                            "v": 99, 
                            "dur": 800.0, 
                            "type": "note", 
                            "channel": 0
                        }, 
                        {
                            "pitch": 68, 
                            "t0": 87000.0, 
                            "v": 32, 
                            "dur": 800.0, 
                            "type": "note", 
                            "channel": 0
                        }
                    ]
                ], 
                [
                    88000.0, 
                    [
                        {
                            "pitch": 30, 
                            "t0": 88000.0, 
                            "v": 70, 
                            "dur": 800.0, 
                            "type": "note", 
                            "channel": 0
                        }, 
                        {
                            "pitch": 42, 
                            "t0": 88000.0, 
                            "v": 116, 
                            "dur": 800.0, 
                            "type": "note", 
                            "channel": 0
                        }, 
                        {
                            "pitch": 54, 
                            "t0": 88000.0, 
                            "v": 106, 
                            "dur": 800.0, 
                            "type": "note", 
                            "channel": 0
                        }, 
                        {
                            "pitch": 66, 
                            "t0": 88000.0, 
                            "v": 45, 
                            "dur": 800.0, 
                            "type": "note", 
                            "channel": 0
                        }
                    ]
                ], 
                [
                    89000.0, 
                    [
                        {
                            "pitch": 32, 
                            "t0": 89000.0, 
                            "v": 81, 
                            "dur": 800.0, 
                            "type": "note", 
                            "channel": 0
                        }, 
                        {
                            "pitch": 44, 
                            "t0": 89000.0, 
                            "v": 119, 
                            "dur": 800.0, 
                            "type": "note", 
                            "channel": 0
                        }, 
                        {
                            "pitch": 56, 
                            "t0": 89000.0, 
                            "v": 99, 
                            "dur": 800.0, 
                            "type": "note", 
                            "channel": 0
                        }, 
                        {
                            "pitch": 68, 
                            "t0": 89000.0, 
                            "v": 32, 
                            "dur": 800.0, 
                            "type": "note", 
                            "channel": 0
                        }
                    ]
                ], 
                [
                    90000.0, 
                    [
                        {
                            "pitch": 34, 
                            "t0": 90000.0, 
                            "v": 91, 
                            "dur": 800.0, 
                            "type": "note", 
                            "channel": 0
                        }, 
                        {
                            "pitch": 46, 
                            "t0": 90000.0, 
                            "v": 120, 
                            "dur": 800.0, 
                            "type": "note", 
                            "channel": 0
                        }, 
                        {
                            "pitch": 58, 
                            "t0": 90000.0, 
                            "v": 91, 
                            "dur": 800.0, 
                            "type": "note", 
                            "channel": 0
                        }, 
                        {
                            "pitch": 70, 
                            "t0": 90000.0, 
                            "v": 18, 
                            "dur": 800.0, 
                            "type": "note", 
                            "channel": 0
                        }
                    ]
                ], 
                [
                    91000.0, 
                    [
                        {
                            "pitch": 32, 
                            "t0": 91000.0, 
                            "v": 81, 
                            "dur": 800.0, 
                            "type": "note", 
                            "channel": 0
                        }, 
                        {
                            "pitch": 44, 
                            "t0": 91000.0, 
                            "v": 119, 
                            "dur": 800.0, 
                            "type": "note", 
                            "channel": 0
                        }, 
                        {
                            "pitch": 56, 
                            "t0": 91000.0, 
                            "v": 99, 
                            "dur": 800.0, 
                            "type": "note", 
                            "channel": 0
                        }, 
                        {
                            "pitch": 68, 
                            "t0": 91000.0, 
                            "v": 32, 
                            "dur": 800.0, 
                            "type": "note", 
                            "channel": 0
                        }
                    ]
                ], 
                [
                    92000.0, 
                    [
                        {
                            "pitch": 34, 
                            "t0": 92000.0, 
                            "v": 91, 
                            "dur": 800.0, 
                            "type": "note", 
                            "channel": 0
                        }, 
                        {
                            "pitch": 46, 
                            "t0": 92000.0, 
                            "v": 120, 
                            "dur": 800.0, 
                            "type": "note", 
                            "channel": 0
                        }, 
                        {
                            "pitch": 58, 
                            "t0": 92000.0, 
                            "v": 91, 
                            "dur": 800.0, 
                            "type": "note", 
                            "channel": 0
                        }, 
                        {
                            "pitch": 70, 
                            "t0": 92000.0, 
                            "v": 18, 
                            "dur": 800.0, 
                            "type": "note", 
                            "channel": 0
                        }
                    ]
                ], 
                [
                    93000.0, 
                    [
                        {
                            "pitch": 23, 
                            "t0": 93000.0, 
                            "v": 25, 
                            "dur": 800.0, 
                            "type": "note", 
                            "channel": 0
                        }, 
                        {
                            "pitch": 35, 
                            "t0": 93000.0, 
                            "v": 95, 
                            "dur": 800.0, 
                            "type": "note", 
                            "channel": 0
                        }, 
                        {
                            "pitch": 47, 
                            "t0": 93000.0, 
                            "v": 119, 
                            "dur": 800.0, 
                            "type": "note", 
                            "channel": 0
                        }, 
                        {
                            "pitch": 59, 
                            "t0": 93000.0, 
                            "v": 86, 
                            "dur": 800.0, 
                            "type": "note", 
                            "channel": 0
                        }, 
                        {
                            "pitch": 71, 
                            "t0": 93000.0, 
                            "v": 11, 
                            "dur": 800.0, 
                            "type": "note", 
                            "channel": 0
                        }
                    ]
                ], 
                [
                    94000.0, 
                    [
                        {
                            "pitch": 34, 
                            "t0": 94000.0, 
                            "v": 91, 
                            "dur": 800.0, 
                            "type": "note", 
                            "channel": 0
                        }, 
                        {
                            "pitch": 46, 
                            "t0": 94000.0, 
                            "v": 120, 
                            "dur": 800.0, 
                            "type": "note", 
                            "channel": 0
                        }, 
                        {
                            "pitch": 58, 
                            "t0": 94000.0, 
                            "v": 91, 
                            "dur": 800.0, 
                            "type": "note", 
                            "channel": 0
                        }, 
                        {
                            "pitch": 70, 
                            "t0": 94000.0, 
                            "v": 18, 
                            "dur": 800.0, 
                            "type": "note", 
                            "channel": 0
                        }
                    ]
                ], 
                [
                    95000.0, 
                    [
                        {
                            "pitch": 23, 
                            "t0": 95000.0, 
                            "v": 25, 
                            "dur": 800.0, 
                            "type": "note", 
                            "channel": 0
                        }, 
                        {
                            "pitch": 35, 
                            "t0": 95000.0, 
                            "v": 95, 
                            "dur": 800.0, 
                            "type": "note", 
                            "channel": 0
                        }, 
                        {
                            "pitch": 47, 
                            "t0": 95000.0, 
                            "v": 119, 
                            "dur": 800.0, 
                            "type": "note", 
                            "channel": 0
                        }, 
                        {
                            "pitch": 59, 
                            "t0": 95000.0, 
                            "v": 86, 
                            "dur": 800.0, 
                            "type": "note", 
                            "channel": 0
                        }, 
                        {
                            "pitch": 71, 
                            "t0": 95000.0, 
                            "v": 11, 
                            "dur": 800.0, 
                            "type": "note", 
                            "channel": 0
                        }
                    ]
                ], 
                [
                    96000.0, 
                    [
                        {
                            "pitch": 25, 
                            "t0": 96000.0, 
                            "v": 39, 
                            "dur": 800.0, 
                            "type": "note", 
                            "channel": 0
                        }, 
                        {
                            "pitch": 37, 
                            "t0": 96000.0, 
                            "v": 103, 
                            "dur": 800.0, 
                            "type": "note", 
                            "channel": 0
                        }, 
                        {
                            "pitch": 49, 
                            "t0": 96000.0, 
                            "v": 118, 
                            "dur": 800.0, 
                            "type": "note", 
                            "channel": 0
                        }, 
                        {
                            "pitch": 61, 
                            "t0": 96000.0, 
                            "v": 76, 
                            "dur": 800.0, 
                            "type": "note", 
                            "channel": 0
                        }
                    ]
                ], 
                [
                    97000.0, 
                    [
                        {
                            "pitch": 27, 
                            "t0": 97000.0, 
                            "v": 52, 
                            "dur": 800.0, 
                            "type": "note", 
                            "channel": 0
                        }, 
                        {
                            "pitch": 39, 
                            "t0": 97000.0, 
                            "v": 109, 
                            "dur": 800.0, 
                            "type": "note", 
                            "channel": 0
                        }, 
                        {
                            "pitch": 51, 
                            "t0": 97000.0, 
                            "v": 114, 
                            "dur": 800.0, 
                            "type": "note", 
                            "channel": 0
                        }, 
                        {
                            "pitch": 63, 
                            "t0": 97000.0, 
                            "v": 64, 
                            "dur": 800.0, 
                            "type": "note", 
                            "channel": 0
                        }
                    ]
                ], 
                [
                    98000.0, 
                    [
                        {
                            "pitch": 25, 
                            "t0": 98000.0, 
                            "v": 39, 
                            "dur": 800.0, 
                            "type": "note", 
                            "channel": 0
                        }, 
                        {
                            "pitch": 37, 
                            "t0": 98000.0, 
                            "v": 103, 
                            "dur": 800.0, 
                            "type": "note", 
                            "channel": 0
                        }, 
                        {
                            "pitch": 49, 
                            "t0": 98000.0, 
                            "v": 118, 
                            "dur": 800.0, 
                            "type": "note", 
                            "channel": 0
                        }, 
                        {
                            "pitch": 61, 
                            "t0": 98000.0, 
                            "v": 76, 
                            "dur": 800.0, 
                            "type": "note", 
                            "channel": 0
                        }
                    ]
                ], 
                [
                    99000.0, 
                    [
                        {
                            "pitch": 27, 
                            "t0": 99000.0, 
                            "v": 52, 
                            "dur": 800.0, 
                            "type": "note", 
                            "channel": 0
                        }, 
                        {
                            "pitch": 39, 
                            "t0": 99000.0, 
                            "v": 109, 
                            "dur": 800.0, 
                            "type": "note", 
                            "channel": 0
                        }, 
                        {
                            "pitch": 51, 
                            "t0": 99000.0, 
                            "v": 114, 
                            "dur": 800.0, 
                            "type": "note", 
                            "channel": 0
                        }, 
                        {
                            "pitch": 63, 
                            "t0": 99000.0, 
                            "v": 64, 
                            "dur": 800.0, 
                            "type": "note", 
                            "channel": 0
                        }
                    ]
                ], 
                [
                    100000.0, 
                    [
                        {
                            "pitch": 28, 
                            "t0": 100000.0, 
                            "v": 58, 
                            "dur": 800.0, 
                            "type": "note", 
                            "channel": 0
                        }, 
                        {
                            "pitch": 40, 
                            "t0": 100000.0, 
                            "v": 112, 
                            "dur": 800.0, 
                            "type": "note", 
                            "channel": 0
                        }, 
                        {
                            "pitch": 52, 
                            "t0": 100000.0, 
                            "v": 112, 
                            "dur": 800.0, 
                            "type": "note", 
                            "channel": 0
                        }, 
                        {
                            "pitch": 64, 
                            "t0": 100000.0, 
                            "v": 58, 
                            "dur": 800.0, 
                            "type": "note", 
                            "channel": 0
                        }
                    ]
                ], 
                [
                    101000.0, 
                    [
                        {
                            "pitch": 27, 
                            "t0": 101000.0, 
                            "v": 52, 
                            "dur": 800.0, 
                            "type": "note", 
                            "channel": 0
                        }, 
                        {
                            "pitch": 39, 
                            "t0": 101000.0, 
                            "v": 109, 
                            "dur": 800.0, 
                            "type": "note", 
                            "channel": 0
                        }, 
                        {
                            "pitch": 51, 
                            "t0": 101000.0, 
                            "v": 114, 
                            "dur": 800.0, 
                            "type": "note", 
                            "channel": 0
                        }, 
                        {
                            "pitch": 63, 
                            "t0": 101000.0, 
                            "v": 64, 
                            "dur": 800.0, 
                            "type": "note", 
                            "channel": 0
                        }
                    ]
                ], 
                [
                    102000.0, 
                    [
                        {
                            "pitch": 28, 
                            "t0": 102000.0, 
                            "v": 58, 
                            "dur": 800.0, 
                            "type": "note", 
                            "channel": 0
                        }, 
                        {
                            "pitch": 40, 
                            "t0": 102000.0, 
                            "v": 112, 
                            "dur": 800.0, 
                            "type": "note", 
                            "channel": 0
                        }, 
                        {
                            "pitch": 52, 
                            "t0": 102000.0, 
                            "v": 112, 
                            "dur": 800.0, 
                            "type": "note", 
                            "channel": 0
                        }, 
                        {
                            "pitch": 64, 
                            "t0": 102000.0, 
                            "v": 58, 
                            "dur": 800.0, 
                            "type": "note", 
                            "channel": 0
                        }
                    ]
                ], 
                [
                    103000.0, 
                    [
                        {
                            "pitch": 30, 
                            "t0": 103000.0, 
                            "v": 70, 
                            "dur": 800.0, 
                            "type": "note", 
                            "channel": 0
                        }, 
                        {
                            "pitch": 42, 
                            "t0": 103000.0, 
                            "v": 116, 
                            "dur": 800.0, 
                            "type": "note", 
                            "channel": 0
                        }, 
                        {
                            "pitch": 54, 
                            "t0": 103000.0, 
                            "v": 106, 
                            "dur": 800.0, 
                            "type": "note", 
                            "channel": 0
                        }, 
                        {
                            "pitch": 66, 
                            "t0": 103000.0, 
                            "v": 45, 
                            "dur": 800.0, 
                            "type": "note", 
                            "channel": 0
                        }
                    ]
                ], 
                [
                    104000.0, 
                    [
                        {
                            "pitch": 28, 
                            "t0": 104000.0, 
                            "v": 58, 
                            "dur": 800.0, 
                            "type": "note", 
                            "channel": 0
                        }, 
                        {
                            "pitch": 40, 
                            "t0": 104000.0, 
                            "v": 112, 
                            "dur": 800.0, 
                            "type": "note", 
                            "channel": 0
                        }, 
                        {
                            "pitch": 52, 
                            "t0": 104000.0, 
                            "v": 112, 
                            "dur": 800.0, 
                            "type": "note", 
                            "channel": 0
                        }, 
                        {
                            "pitch": 64, 
                            "t0": 104000.0, 
                            "v": 58, 
                            "dur": 800.0, 
                            "type": "note", 
                            "channel": 0
                        }
                    ]
                ], 
                [
                    105000.0, 
                    [
                        {
                            "pitch": 30, 
                            "t0": 105000.0, 
                            "v": 70, 
                            "dur": 800.0, 
                            "type": "note", 
                            "channel": 0
                        }, 
                        {
                            "pitch": 42, 
                            "t0": 105000.0, 
                            "v": 116, 
                            "dur": 800.0, 
                            "type": "note", 
                            "channel": 0
                        }, 
                        {
                            "pitch": 54, 
                            "t0": 105000.0, 
                            "v": 106, 
                            "dur": 800.0, 
                            "type": "note", 
                            "channel": 0
                        }, 
                        {
                            "pitch": 66, 
                            "t0": 105000.0, 
                            "v": 45, 
                            "dur": 800.0, 
                            "type": "note", 
                            "channel": 0
                        }
                    ]
                ], 
                [
                    106000.0, 
                    [
                        {
                            "pitch": 32, 
                            "t0": 106000.0, 
                            "v": 81, 
                            "dur": 800.0, 
                            "type": "note", 
                            "channel": 0
                        }, 
                        {
                            "pitch": 44, 
                            "t0": 106000.0, 
                            "v": 119, 
                            "dur": 800.0, 
                            "type": "note", 
                            "channel": 0
                        }, 
                        {
                            "pitch": 56, 
                            "t0": 106000.0, 
                            "v": 99, 
                            "dur": 800.0, 
                            "type": "note", 
                            "channel": 0
                        }, 
                        {
                            "pitch": 68, 
                            "t0": 106000.0, 
                            "v": 32, 
                            "dur": 800.0, 
                            "type": "note", 
                            "channel": 0
                        }
                    ]
                ], 
                [
                    107000.0, 
                    [
                        {
                            "pitch": 30, 
                            "t0": 107000.0, 
                            "v": 70, 
                            "dur": 800.0, 
                            "type": "note", 
                            "channel": 0
                        }, 
                        {
                            "pitch": 42, 
                            "t0": 107000.0, 
                            "v": 116, 
                            "dur": 800.0, 
                            "type": "note", 
                            "channel": 0
                        }, 
                        {
                            "pitch": 54, 
                            "t0": 107000.0, 
                            "v": 106, 
                            "dur": 800.0, 
                            "type": "note", 
                            "channel": 0
                        }, 
                        {
                            "pitch": 66, 
                            "t0": 107000.0, 
                            "v": 45, 
                            "dur": 800.0, 
                            "type": "note", 
                            "channel": 0
                        }
                    ]
                ], 
                [
                    108000.0, 
                    [
                        {
                            "pitch": 32, 
                            "t0": 108000.0, 
                            "v": 81, 
                            "dur": 800.0, 
                            "type": "note", 
                            "channel": 0
                        }, 
                        {
                            "pitch": 44, 
                            "t0": 108000.0, 
                            "v": 119, 
                            "dur": 800.0, 
                            "type": "note", 
                            "channel": 0
                        }, 
                        {
                            "pitch": 56, 
                            "t0": 108000.0, 
                            "v": 99, 
                            "dur": 800.0, 
                            "type": "note", 
                            "channel": 0
                        }, 
                        {
                            "pitch": 68, 
                            "t0": 108000.0, 
                            "v": 32, 
                            "dur": 800.0, 
                            "type": "note", 
                            "channel": 0
                        }
                    ]
                ], 
                [
                    109000.0, 
                    [
                        {
                            "pitch": 34, 
                            "t0": 109000.0, 
                            "v": 91, 
                            "dur": 800.0, 
                            "type": "note", 
                            "channel": 0
                        }, 
                        {
                            "pitch": 46, 
                            "t0": 109000.0, 
                            "v": 120, 
                            "dur": 800.0, 
                            "type": "note", 
                            "channel": 0
                        }, 
                        {
                            "pitch": 58, 
                            "t0": 109000.0, 
                            "v": 91, 
                            "dur": 800.0, 
                            "type": "note", 
                            "channel": 0
                        }, 
                        {
                            "pitch": 70, 
                            "t0": 109000.0, 
                            "v": 18, 
                            "dur": 800.0, 
                            "type": "note", 
                            "channel": 0
                        }
                    ]
                ], 
                [
                    110000.0, 
                    [
                        {
                            "pitch": 32, 
                            "t0": 110000.0, 
                            "v": 81, 
                            "dur": 800.0, 
                            "type": "note", 
                            "channel": 0
                        }, 
                        {
                            "pitch": 44, 
                            "t0": 110000.0, 
                            "v": 119, 
                            "dur": 800.0, 
                            "type": "note", 
                            "channel": 0
                        }, 
                        {
                            "pitch": 56, 
                            "t0": 110000.0, 
                            "v": 99, 
                            "dur": 800.0, 
                            "type": "note", 
                            "channel": 0
                        }, 
                        {
                            "pitch": 68, 
                            "t0": 110000.0, 
                            "v": 32, 
                            "dur": 800.0, 
                            "type": "note", 
                            "channel": 0
                        }
                    ]
                ], 
                [
                    111000.0, 
                    [
                        {
                            "pitch": 34, 
                            "t0": 111000.0, 
                            "v": 91, 
                            "dur": 800.0, 
                            "type": "note", 
                            "channel": 0
                        }, 
                        {
                            "pitch": 46, 
                            "t0": 111000.0, 
                            "v": 120, 
                            "dur": 800.0, 
                            "type": "note", 
                            "channel": 0
                        }, 
                        {
                            "pitch": 58, 
                            "t0": 111000.0, 
                            "v": 91, 
                            "dur": 800.0, 
                            "type": "note", 
                            "channel": 0
                        }, 
                        {
                            "pitch": 70, 
                            "t0": 111000.0, 
                            "v": 18, 
                            "dur": 800.0, 
                            "type": "note", 
                            "channel": 0
                        }
                    ]
                ], 
                [
                    112000.0, 
                    [
                        {
                            "pitch": 23, 
                            "t0": 112000.0, 
                            "v": 25, 
                            "dur": 800.0, 
                            "type": "note", 
                            "channel": 0
                        }, 
                        {
                            "pitch": 35, 
                            "t0": 112000.0, 
                            "v": 95, 
                            "dur": 800.0, 
                            "type": "note", 
                            "channel": 0
                        }, 
                        {
                            "pitch": 47, 
                            "t0": 112000.0, 
                            "v": 119, 
                            "dur": 800.0, 
                            "type": "note", 
                            "channel": 0
                        }, 
                        {
                            "pitch": 59, 
                            "t0": 112000.0, 
                            "v": 86, 
                            "dur": 800.0, 
                            "type": "note", 
                            "channel": 0
                        }, 
                        {
                            "pitch": 71, 
                            "t0": 112000.0, 
                            "v": 11, 
                            "dur": 800.0, 
                            "type": "note", 
                            "channel": 0
                        }
                    ]
                ], 
                [
                    113000.0, 
                    [
                        {
                            "pitch": 34, 
                            "t0": 113000.0, 
                            "v": 91, 
                            "dur": 800.0, 
                            "type": "note", 
                            "channel": 0
                        }, 
                        {
                            "pitch": 46, 
                            "t0": 113000.0, 
                            "v": 120, 
                            "dur": 800.0, 
                            "type": "note", 
                            "channel": 0
                        }, 
                        {
                            "pitch": 58, 
                            "t0": 113000.0, 
                            "v": 91, 
                            "dur": 800.0, 
                            "type": "note", 
                            "channel": 0
                        }, 
                        {
                            "pitch": 70, 
                            "t0": 113000.0, 
                            "v": 18, 
                            "dur": 800.0, 
                            "type": "note", 
                            "channel": 0
                        }
                    ]
                ], 
                [
                    114000.0, 
                    [
                        {
                            "pitch": 23, 
                            "t0": 114000.0, 
                            "v": 25, 
                            "dur": 800.0, 
                            "type": "note", 
                            "channel": 0
                        }, 
                        {
                            "pitch": 35, 
                            "t0": 114000.0, 
                            "v": 95, 
                            "dur": 800.0, 
                            "type": "note", 
                            "channel": 0
                        }, 
                        {
                            "pitch": 47, 
                            "t0": 114000.0, 
                            "v": 119, 
                            "dur": 800.0, 
                            "type": "note", 
                            "channel": 0
                        }, 
                        {
                            "pitch": 59, 
                            "t0": 114000.0, 
                            "v": 86, 
                            "dur": 800.0, 
                            "type": "note", 
                            "channel": 0
                        }, 
                        {
                            "pitch": 71, 
                            "t0": 114000.0, 
                            "v": 11, 
                            "dur": 800.0, 
                            "type": "note", 
                            "channel": 0
                        }
                    ]
                ], 
                [
                    115000.0, 
                    [
                        {
                            "pitch": 25, 
                            "t0": 115000.0, 
                            "v": 39, 
                            "dur": 800.0, 
                            "type": "note", 
                            "channel": 0
                        }, 
                        {
                            "pitch": 37, 
                            "t0": 115000.0, 
                            "v": 103, 
                            "dur": 800.0, 
                            "type": "note", 
                            "channel": 0
                        }, 
                        {
                            "pitch": 49, 
                            "t0": 115000.0, 
                            "v": 118, 
                            "dur": 800.0, 
                            "type": "note", 
                            "channel": 0
                        }, 
                        {
                            "pitch": 61, 
                            "t0": 115000.0, 
                            "v": 76, 
                            "dur": 800.0, 
                            "type": "note", 
                            "channel": 0
                        }
                    ]
                ], 
                [
                    116000.0, 
                    [
                        {
                            "pitch": 27, 
                            "t0": 116000.0, 
                            "v": 52, 
                            "dur": 800.0, 
                            "type": "note", 
                            "channel": 0
                        }, 
                        {
                            "pitch": 39, 
                            "t0": 116000.0, 
                            "v": 109, 
                            "dur": 800.0, 
                            "type": "note", 
                            "channel": 0
                        }, 
                        {
                            "pitch": 51, 
                            "t0": 116000.0, 
                            "v": 114, 
                            "dur": 800.0, 
                            "type": "note", 
                            "channel": 0
                        }, 
                        {
                            "pitch": 63, 
                            "t0": 116000.0, 
                            "v": 64, 
                            "dur": 800.0, 
                            "type": "note", 
                            "channel": 0
                        }
                    ]
                ], 
                [
                    117000.0, 
                    [
                        {
                            "pitch": 25, 
                            "t0": 117000.0, 
                            "v": 39, 
                            "dur": 800.0, 
                            "type": "note", 
                            "channel": 0
                        }, 
                        {
                            "pitch": 37, 
                            "t0": 117000.0, 
                            "v": 103, 
                            "dur": 800.0, 
                            "type": "note", 
                            "channel": 0
                        }, 
                        {
                            "pitch": 49, 
                            "t0": 117000.0, 
                            "v": 118, 
                            "dur": 800.0, 
                            "type": "note", 
                            "channel": 0
                        }, 
                        {
                            "pitch": 61, 
                            "t0": 117000.0, 
                            "v": 76, 
                            "dur": 800.0, 
                            "type": "note", 
                            "channel": 0
                        }
                    ]
                ], 
                [
                    118000.0, 
                    [
                        {
                            "pitch": 27, 
                            "t0": 118000.0, 
                            "v": 52, 
                            "dur": 800.0, 
                            "type": "note", 
                            "channel": 0
                        }, 
                        {
                            "pitch": 39, 
                            "t0": 118000.0, 
                            "v": 109, 
                            "dur": 800.0, 
                            "type": "note", 
                            "channel": 0
                        }, 
                        {
                            "pitch": 51, 
                            "t0": 118000.0, 
                            "v": 114, 
                            "dur": 800.0, 
                            "type": "note", 
                            "channel": 0
                        }, 
                        {
                            "pitch": 63, 
                            "t0": 118000.0, 
                            "v": 64, 
                            "dur": 800.0, 
                            "type": "note", 
                            "channel": 0
                        }
                    ]
                ], 
                [
                    119000.0, 
                    [
                        {
                            "pitch": 28, 
                            "t0": 119000.0, 
                            "v": 58, 
                            "dur": 800.0, 
                            "type": "note", 
                            "channel": 0
                        }, 
                        {
                            "pitch": 40, 
                            "t0": 119000.0, 
                            "v": 112, 
                            "dur": 800.0, 
                            "type": "note", 
                            "channel": 0
                        }, 
                        {
                            "pitch": 52, 
                            "t0": 119000.0, 
                            "v": 112, 
                            "dur": 800.0, 
                            "type": "note", 
                            "channel": 0
                        }, 
                        {
                            "pitch": 64, 
                            "t0": 119000.0, 
                            "v": 58, 
                            "dur": 800.0, 
                            "type": "note", 
                            "channel": 0
                        }
                    ]
                ], 
                [
                    120000.0, 
                    [
                        {
                            "pitch": 27, 
                            "t0": 120000.0, 
                            "v": 52, 
                            "dur": 800.0, 
                            "type": "note", 
                            "channel": 0
                        }, 
                        {
                            "pitch": 39, 
                            "t0": 120000.0, 
                            "v": 109, 
                            "dur": 800.0, 
                            "type": "note", 
                            "channel": 0
                        }, 
                        {
                            "pitch": 51, 
                            "t0": 120000.0, 
                            "v": 114, 
                            "dur": 800.0, 
                            "type": "note", 
                            "channel": 0
                        }, 
                        {
                            "pitch": 63, 
                            "t0": 120000.0, 
                            "v": 64, 
                            "dur": 800.0, 
                            "type": "note", 
                            "channel": 0
                        }
                    ]
                ], 
                [
                    121000.0, 
                    [
                        {
                            "pitch": 28, 
                            "t0": 121000.0, 
                            "v": 58, 
                            "dur": 800.0, 
                            "type": "note", 
                            "channel": 0
                        }, 
                        {
                            "pitch": 40, 
                            "t0": 121000.0, 
                            "v": 112, 
                            "dur": 800.0, 
                            "type": "note", 
                            "channel": 0
                        }, 
                        {
                            "pitch": 52, 
                            "t0": 121000.0, 
                            "v": 112, 
                            "dur": 800.0, 
                            "type": "note", 
                            "channel": 0
                        }, 
                        {
                            "pitch": 64, 
                            "t0": 121000.0, 
                            "v": 58, 
                            "dur": 800.0, 
                            "type": "note", 
                            "channel": 0
                        }
                    ]
                ], 
                [
                    122000.0, 
                    [
                        {
                            "pitch": 30, 
                            "t0": 122000.0, 
                            "v": 70, 
                            "dur": 800.0, 
                            "type": "note", 
                            "channel": 0
                        }, 
                        {
                            "pitch": 42, 
                            "t0": 122000.0, 
                            "v": 116, 
                            "dur": 800.0, 
                            "type": "note", 
                            "channel": 0
                        }, 
                        {
                            "pitch": 54, 
                            "t0": 122000.0, 
                            "v": 106, 
                            "dur": 800.0, 
                            "type": "note", 
                            "channel": 0
                        }, 
                        {
                            "pitch": 66, 
                            "t0": 122000.0, 
                            "v": 45, 
                            "dur": 800.0, 
                            "type": "note", 
                            "channel": 0
                        }
                    ]
                ], 
                [
                    123000.0, 
                    [
                        {
                            "pitch": 28, 
                            "t0": 123000.0, 
                            "v": 58, 
                            "dur": 800.0, 
                            "type": "note", 
                            "channel": 0
                        }, 
                        {
                            "pitch": 40, 
                            "t0": 123000.0, 
                            "v": 112, 
                            "dur": 800.0, 
                            "type": "note", 
                            "channel": 0
                        }, 
                        {
                            "pitch": 52, 
                            "t0": 123000.0, 
                            "v": 112, 
                            "dur": 800.0, 
                            "type": "note", 
                            "channel": 0
                        }, 
                        {
                            "pitch": 64, 
                            "t0": 123000.0, 
                            "v": 58, 
                            "dur": 800.0, 
                            "type": "note", 
                            "channel": 0
                        }
                    ]
                ], 
                [
                    124000.0, 
                    [
                        {
                            "pitch": 30, 
                            "t0": 124000.0, 
                            "v": 70, 
                            "dur": 800.0, 
                            "type": "note", 
                            "channel": 0
                        }, 
                        {
                            "pitch": 42, 
                            "t0": 124000.0, 
                            "v": 116, 
                            "dur": 800.0, 
                            "type": "note", 
                            "channel": 0
                        }, 
                        {
                            "pitch": 54, 
                            "t0": 124000.0, 
                            "v": 106, 
                            "dur": 800.0, 
                            "type": "note", 
                            "channel": 0
                        }, 
                        {
                            "pitch": 66, 
                            "t0": 124000.0, 
                            "v": 45, 
                            "dur": 800.0, 
                            "type": "note", 
                            "channel": 0
                        }
                    ]
                ], 
                [
                    125000.0, 
                    [
                        {
                            "pitch": 32, 
                            "t0": 125000.0, 
                            "v": 81, 
                            "dur": 800.0, 
                            "type": "note", 
                            "channel": 0
                        }, 
                        {
                            "pitch": 44, 
                            "t0": 125000.0, 
                            "v": 119, 
                            "dur": 800.0, 
                            "type": "note", 
                            "channel": 0
                        }, 
                        {
                            "pitch": 56, 
                            "t0": 125000.0, 
                            "v": 99, 
                            "dur": 800.0, 
                            "type": "note", 
                            "channel": 0
                        }, 
                        {
                            "pitch": 68, 
                            "t0": 125000.0, 
                            "v": 32, 
                            "dur": 800.0, 
                            "type": "note", 
                            "channel": 0
                        }
                    ]
                ], 
                [
                    126000.0, 
                    [
                        {
                            "pitch": 30, 
                            "t0": 126000.0, 
                            "v": 70, 
                            "dur": 800.0, 
                            "type": "note", 
                            "channel": 0
                        }, 
                        {
                            "pitch": 42, 
                            "t0": 126000.0, 
                            "v": 116, 
                            "dur": 800.0, 
                            "type": "note", 
                            "channel": 0
                        }, 
                        {
                            "pitch": 54, 
                            "t0": 126000.0, 
                            "v": 106, 
                            "dur": 800.0, 
                            "type": "note", 
                            "channel": 0
                        }, 
                        {
                            "pitch": 66, 
                            "t0": 126000.0, 
                            "v": 45, 
                            "dur": 800.0, 
                            "type": "note", 
                            "channel": 0
                        }
                    ]
                ], 
                [
                    127000.0, 
                    [
                        {
                            "pitch": 32, 
                            "t0": 127000.0, 
                            "v": 81, 
                            "dur": 800.0, 
                            "type": "note", 
                            "channel": 0
                        }, 
                        {
                            "pitch": 44, 
                            "t0": 127000.0, 
                            "v": 119, 
                            "dur": 800.0, 
                            "type": "note", 
                            "channel": 0
                        }, 
                        {
                            "pitch": 56, 
                            "t0": 127000.0, 
                            "v": 99, 
                            "dur": 800.0, 
                            "type": "note", 
                            "channel": 0
                        }, 
                        {
                            "pitch": 68, 
                            "t0": 127000.0, 
                            "v": 32, 
                            "dur": 800.0, 
                            "type": "note", 
                            "channel": 0
                        }
                    ]
                ], 
                [
                    128000.0, 
                    [
                        {
                            "pitch": 34, 
                            "t0": 128000.0, 
                            "v": 91, 
                            "dur": 800.0, 
                            "type": "note", 
                            "channel": 0
                        }, 
                        {
                            "pitch": 46, 
                            "t0": 128000.0, 
                            "v": 120, 
                            "dur": 800.0, 
                            "type": "note", 
                            "channel": 0
                        }, 
                        {
                            "pitch": 58, 
                            "t0": 128000.0, 
                            "v": 91, 
                            "dur": 800.0, 
                            "type": "note", 
                            "channel": 0
                        }, 
                        {
                            "pitch": 70, 
                            "t0": 128000.0, 
                            "v": 18, 
                            "dur": 800.0, 
                            "type": "note", 
                            "channel": 0
                        }
                    ]
                ], 
                [
                    129000.0, 
                    [
                        {
                            "pitch": 32, 
                            "t0": 129000.0, 
                            "v": 81, 
                            "dur": 800.0, 
                            "type": "note", 
                            "channel": 0
                        }, 
                        {
                            "pitch": 44, 
                            "t0": 129000.0, 
                            "v": 119, 
                            "dur": 800.0, 
                            "type": "note", 
                            "channel": 0
                        }, 
                        {
                            "pitch": 56, 
                            "t0": 129000.0, 
                            "v": 99, 
                            "dur": 800.0, 
                            "type": "note", 
                            "channel": 0
                        }, 
                        {
                            "pitch": 68, 
                            "t0": 129000.0, 
                            "v": 32, 
                            "dur": 800.0, 
                            "type": "note", 
                            "channel": 0
                        }
                    ]
                ], 
                [
                    130000.0, 
                    [
                        {
                            "pitch": 34, 
                            "t0": 130000.0, 
                            "v": 91, 
                            "dur": 800.0, 
                            "type": "note", 
                            "channel": 0
                        }, 
                        {
                            "pitch": 46, 
                            "t0": 130000.0, 
                            "v": 120, 
                            "dur": 800.0, 
                            "type": "note", 
                            "channel": 0
                        }, 
                        {
                            "pitch": 58, 
                            "t0": 130000.0, 
                            "v": 91, 
                            "dur": 800.0, 
                            "type": "note", 
                            "channel": 0
                        }, 
                        {
                            "pitch": 70, 
                            "t0": 130000.0, 
                            "v": 18, 
                            "dur": 800.0, 
                            "type": "note", 
                            "channel": 0
                        }
                    ]
                ], 
                [
                    131000.0, 
                    [
                        {
                            "pitch": 23, 
                            "t0": 131000.0, 
                            "v": 25, 
                            "dur": 800.0, 
                            "type": "note", 
                            "channel": 0
                        }, 
                        {
                            "pitch": 35, 
                            "t0": 131000.0, 
                            "v": 95, 
                            "dur": 800.0, 
                            "type": "note", 
                            "channel": 0
                        }, 
                        {
                            "pitch": 47, 
                            "t0": 131000.0, 
                            "v": 119, 
                            "dur": 800.0, 
                            "type": "note", 
                            "channel": 0
                        }, 
                        {
                            "pitch": 59, 
                            "t0": 131000.0, 
                            "v": 86, 
                            "dur": 800.0, 
                            "type": "note", 
                            "channel": 0
                        }, 
                        {
                            "pitch": 71, 
                            "t0": 131000.0, 
                            "v": 11, 
                            "dur": 800.0, 
                            "type": "note", 
                            "channel": 0
                        }
                    ]
                ], 
                [
                    132000.0, 
                    [
                        {
                            "pitch": 34, 
                            "t0": 132000.0, 
                            "v": 91, 
                            "dur": 800.0, 
                            "type": "note", 
                            "channel": 0
                        }, 
                        {
                            "pitch": 46, 
                            "t0": 132000.0, 
                            "v": 120, 
                            "dur": 800.0, 
                            "type": "note", 
                            "channel": 0
                        }, 
                        {
                            "pitch": 58, 
                            "t0": 132000.0, 
                            "v": 91, 
                            "dur": 800.0, 
                            "type": "note", 
                            "channel": 0
                        }, 
                        {
                            "pitch": 70, 
                            "t0": 132000.0, 
                            "v": 18, 
                            "dur": 800.0, 
                            "type": "note", 
                            "channel": 0
                        }
                    ]
                ], 
                [
                    133000.0, 
                    [
                        {
                            "pitch": 23, 
                            "t0": 133000.0, 
                            "v": 25, 
                            "dur": 800.0, 
                            "type": "note", 
                            "channel": 0
                        }, 
                        {
                            "pitch": 35, 
                            "t0": 133000.0, 
                            "v": 95, 
                            "dur": 800.0, 
                            "type": "note", 
                            "channel": 0
                        }, 
                        {
                            "pitch": 47, 
                            "t0": 133000.0, 
                            "v": 119, 
                            "dur": 800.0, 
                            "type": "note", 
                            "channel": 0
                        }, 
                        {
                            "pitch": 59, 
                            "t0": 133000.0, 
                            "v": 86, 
                            "dur": 800.0, 
                            "type": "note", 
                            "channel": 0
                        }, 
                        {
                            "pitch": 71, 
                            "t0": 133000.0, 
                            "v": 11, 
                            "dur": 800.0, 
                            "type": "note", 
                            "channel": 0
                        }
                    ]
                ], 
                [
                    134000.0, 
                    [
                        {
                            "pitch": 25, 
                            "t0": 134000.0, 
                            "v": 39, 
                            "dur": 800.0, 
                            "type": "note", 
                            "channel": 0
                        }, 
                        {
                            "pitch": 37, 
                            "t0": 134000.0, 
                            "v": 103, 
                            "dur": 800.0, 
                            "type": "note", 
                            "channel": 0
                        }, 
                        {
                            "pitch": 49, 
                            "t0": 134000.0, 
                            "v": 118, 
                            "dur": 800.0, 
                            "type": "note", 
                            "channel": 0
                        }, 
                        {
                            "pitch": 61, 
                            "t0": 134000.0, 
                            "v": 76, 
                            "dur": 800.0, 
                            "type": "note", 
                            "channel": 0
                        }
                    ]
                ], 
                [
                    135000.0, 
                    [
                        {
                            "pitch": 27, 
                            "t0": 135000.0, 
                            "v": 52, 
                            "dur": 800.0, 
                            "type": "note", 
                            "channel": 0
                        }, 
                        {
                            "pitch": 39, 
                            "t0": 135000.0, 
                            "v": 109, 
                            "dur": 800.0, 
                            "type": "note", 
                            "channel": 0
                        }, 
                        {
                            "pitch": 51, 
                            "t0": 135000.0, 
                            "v": 114, 
                            "dur": 800.0, 
                            "type": "note", 
                            "channel": 0
                        }, 
                        {
                            "pitch": 63, 
                            "t0": 135000.0, 
                            "v": 64, 
                            "dur": 800.0, 
                            "type": "note", 
                            "channel": 0
                        }
                    ]
                ], 
                [
                    136000.0, 
                    [
                        {
                            "pitch": 25, 
                            "t0": 136000.0, 
                            "v": 39, 
                            "dur": 800.0, 
                            "type": "note", 
                            "channel": 0
                        }, 
                        {
                            "pitch": 37, 
                            "t0": 136000.0, 
                            "v": 103, 
                            "dur": 800.0, 
                            "type": "note", 
                            "channel": 0
                        }, 
                        {
                            "pitch": 49, 
                            "t0": 136000.0, 
                            "v": 118, 
                            "dur": 800.0, 
                            "type": "note", 
                            "channel": 0
                        }, 
                        {
                            "pitch": 61, 
                            "t0": 136000.0, 
                            "v": 76, 
                            "dur": 800.0, 
                            "type": "note", 
                            "channel": 0
                        }
                    ]
                ], 
                [
                    137000.0, 
                    [
                        {
                            "pitch": 27, 
                            "t0": 137000.0, 
                            "v": 52, 
                            "dur": 800.0, 
                            "type": "note", 
                            "channel": 0
                        }, 
                        {
                            "pitch": 39, 
                            "t0": 137000.0, 
                            "v": 109, 
                            "dur": 800.0, 
                            "type": "note", 
                            "channel": 0
                        }, 
                        {
                            "pitch": 51, 
                            "t0": 137000.0, 
                            "v": 114, 
                            "dur": 800.0, 
                            "type": "note", 
                            "channel": 0
                        }, 
                        {
                            "pitch": 63, 
                            "t0": 137000.0, 
                            "v": 64, 
                            "dur": 800.0, 
                            "type": "note", 
                            "channel": 0
                        }
                    ]
                ], 
                [
                    138000.0, 
                    [
                        {
                            "pitch": 28, 
                            "t0": 138000.0, 
                            "v": 58, 
                            "dur": 800.0, 
                            "type": "note", 
                            "channel": 0
                        }, 
                        {
                            "pitch": 40, 
                            "t0": 138000.0, 
                            "v": 112, 
                            "dur": 800.0, 
                            "type": "note", 
                            "channel": 0
                        }, 
                        {
                            "pitch": 52, 
                            "t0": 138000.0, 
                            "v": 112, 
                            "dur": 800.0, 
                            "type": "note", 
                            "channel": 0
                        }, 
                        {
                            "pitch": 64, 
                            "t0": 138000.0, 
                            "v": 58, 
                            "dur": 800.0, 
                            "type": "note", 
                            "channel": 0
                        }
                    ]
                ], 
                [
                    139000.0, 
                    [
                        {
                            "pitch": 27, 
                            "t0": 139000.0, 
                            "v": 52, 
                            "dur": 800.0, 
                            "type": "note", 
                            "channel": 0
                        }, 
                        {
                            "pitch": 39, 
                            "t0": 139000.0, 
                            "v": 109, 
                            "dur": 800.0, 
                            "type": "note", 
                            "channel": 0
                        }, 
                        {
                            "pitch": 51, 
                            "t0": 139000.0, 
                            "v": 114, 
                            "dur": 800.0, 
                            "type": "note", 
                            "channel": 0
                        }, 
                        {
                            "pitch": 63, 
                            "t0": 139000.0, 
                            "v": 64, 
                            "dur": 800.0, 
                            "type": "note", 
                            "channel": 0
                        }
                    ]
                ], 
                [
                    140000.0, 
                    [
                        {
                            "pitch": 28, 
                            "t0": 140000.0, 
                            "v": 58, 
                            "dur": 800.0, 
                            "type": "note", 
                            "channel": 0
                        }, 
                        {
                            "pitch": 40, 
                            "t0": 140000.0, 
                            "v": 112, 
                            "dur": 800.0, 
                            "type": "note", 
                            "channel": 0
                        }, 
                        {
                            "pitch": 52, 
                            "t0": 140000.0, 
                            "v": 112, 
                            "dur": 800.0, 
                            "type": "note", 
                            "channel": 0
                        }, 
                        {
                            "pitch": 64, 
                            "t0": 140000.0, 
                            "v": 58, 
                            "dur": 800.0, 
                            "type": "note", 
                            "channel": 0
                        }
                    ]
                ], 
                [
                    141000.0, 
                    [
                        {
                            "pitch": 30, 
                            "t0": 141000.0, 
                            "v": 70, 
                            "dur": 800.0, 
                            "type": "note", 
                            "channel": 0
                        }, 
                        {
                            "pitch": 42, 
                            "t0": 141000.0, 
                            "v": 116, 
                            "dur": 800.0, 
                            "type": "note", 
                            "channel": 0
                        }, 
                        {
                            "pitch": 54, 
                            "t0": 141000.0, 
                            "v": 106, 
                            "dur": 800.0, 
                            "type": "note", 
                            "channel": 0
                        }, 
                        {
                            "pitch": 66, 
                            "t0": 141000.0, 
                            "v": 45, 
                            "dur": 800.0, 
                            "type": "note", 
                            "channel": 0
                        }
                    ]
                ], 
                [
                    142000.0, 
                    [
                        {
                            "pitch": 28, 
                            "t0": 142000.0, 
                            "v": 58, 
                            "dur": 800.0, 
                            "type": "note", 
                            "channel": 0
                        }, 
                        {
                            "pitch": 40, 
                            "t0": 142000.0, 
                            "v": 112, 
                            "dur": 800.0, 
                            "type": "note", 
                            "channel": 0
                        }, 
                        {
                            "pitch": 52, 
                            "t0": 142000.0, 
                            "v": 112, 
                            "dur": 800.0, 
                            "type": "note", 
                            "channel": 0
                        }, 
                        {
                            "pitch": 64, 
                            "t0": 142000.0, 
                            "v": 58, 
                            "dur": 800.0, 
                            "type": "note", 
                            "channel": 0
                        }
                    ]
                ], 
                [
                    143000.0, 
                    [
                        {
                            "pitch": 30, 
                            "t0": 143000.0, 
                            "v": 70, 
                            "dur": 800.0, 
                            "type": "note", 
                            "channel": 0
                        }, 
                        {
                            "pitch": 42, 
                            "t0": 143000.0, 
                            "v": 116, 
                            "dur": 800.0, 
                            "type": "note", 
                            "channel": 0
                        }, 
                        {
                            "pitch": 54, 
                            "t0": 143000.0, 
                            "v": 106, 
                            "dur": 800.0, 
                            "type": "note", 
                            "channel": 0
                        }, 
                        {
                            "pitch": 66, 
                            "t0": 143000.0, 
                            "v": 45, 
                            "dur": 800.0, 
                            "type": "note", 
                            "channel": 0
                        }
                    ]
                ], 
                [
                    144000.0, 
                    [
                        {
                            "pitch": 32, 
                            "t0": 144000.0, 
                            "v": 81, 
                            "dur": 800.0, 
                            "type": "note", 
                            "channel": 0
                        }, 
                        {
                            "pitch": 44, 
                            "t0": 144000.0, 
                            "v": 119, 
                            "dur": 800.0, 
                            "type": "note", 
                            "channel": 0
                        }, 
                        {
                            "pitch": 56, 
                            "t0": 144000.0, 
                            "v": 99, 
                            "dur": 800.0, 
                            "type": "note", 
                            "channel": 0
                        }, 
                        {
                            "pitch": 68, 
                            "t0": 144000.0, 
                            "v": 32, 
                            "dur": 800.0, 
                            "type": "note", 
                            "channel": 0
                        }
                    ]
                ], 
                [
                    145000.0, 
                    [
                        {
                            "pitch": 30, 
                            "t0": 145000.0, 
                            "v": 70, 
                            "dur": 800.0, 
                            "type": "note", 
                            "channel": 0
                        }, 
                        {
                            "pitch": 42, 
                            "t0": 145000.0, 
                            "v": 116, 
                            "dur": 800.0, 
                            "type": "note", 
                            "channel": 0
                        }, 
                        {
                            "pitch": 54, 
                            "t0": 145000.0, 
                            "v": 106, 
                            "dur": 800.0, 
                            "type": "note", 
                            "channel": 0
                        }, 
                        {
                            "pitch": 66, 
                            "t0": 145000.0, 
                            "v": 45, 
                            "dur": 800.0, 
                            "type": "note", 
                            "channel": 0
                        }
                    ]
                ], 
                [
                    146000.0, 
                    [
                        {
                            "pitch": 32, 
                            "t0": 146000.0, 
                            "v": 81, 
                            "dur": 800.0, 
                            "type": "note", 
                            "channel": 0
                        }, 
                        {
                            "pitch": 44, 
                            "t0": 146000.0, 
                            "v": 119, 
                            "dur": 800.0, 
                            "type": "note", 
                            "channel": 0
                        }, 
                        {
                            "pitch": 56, 
                            "t0": 146000.0, 
                            "v": 99, 
                            "dur": 800.0, 
                            "type": "note", 
                            "channel": 0
                        }, 
                        {
                            "pitch": 68, 
                            "t0": 146000.0, 
                            "v": 32, 
                            "dur": 800.0, 
                            "type": "note", 
                            "channel": 0
                        }
                    ]
                ], 
                [
                    147000.0, 
                    [
                        {
                            "pitch": 34, 
                            "t0": 147000.0, 
                            "v": 91, 
                            "dur": 800.0, 
                            "type": "note", 
                            "channel": 0
                        }, 
                        {
                            "pitch": 46, 
                            "t0": 147000.0, 
                            "v": 120, 
                            "dur": 800.0, 
                            "type": "note", 
                            "channel": 0
                        }, 
                        {
                            "pitch": 58, 
                            "t0": 147000.0, 
                            "v": 91, 
                            "dur": 800.0, 
                            "type": "note", 
                            "channel": 0
                        }, 
                        {
                            "pitch": 70, 
                            "t0": 147000.0, 
                            "v": 18, 
                            "dur": 800.0, 
                            "type": "note", 
                            "channel": 0
                        }
                    ]
                ], 
                [
                    148000.0, 
                    [
                        {
                            "pitch": 32, 
                            "t0": 148000.0, 
                            "v": 81, 
                            "dur": 800.0, 
                            "type": "note", 
                            "channel": 0
                        }, 
                        {
                            "pitch": 44, 
                            "t0": 148000.0, 
                            "v": 119, 
                            "dur": 800.0, 
                            "type": "note", 
                            "channel": 0
                        }, 
                        {
                            "pitch": 56, 
                            "t0": 148000.0, 
                            "v": 99, 
                            "dur": 800.0, 
                            "type": "note", 
                            "channel": 0
                        }, 
                        {
                            "pitch": 68, 
                            "t0": 148000.0, 
                            "v": 32, 
                            "dur": 800.0, 
                            "type": "note", 
                            "channel": 0
                        }
                    ]
                ], 
                [
                    149000.0, 
                    [
                        {
                            "pitch": 34, 
                            "t0": 149000.0, 
                            "v": 91, 
                            "dur": 800.0, 
                            "type": "note", 
                            "channel": 0
                        }, 
                        {
                            "pitch": 46, 
                            "t0": 149000.0, 
                            "v": 120, 
                            "dur": 800.0, 
                            "type": "note", 
                            "channel": 0
                        }, 
                        {
                            "pitch": 58, 
                            "t0": 149000.0, 
                            "v": 91, 
                            "dur": 800.0, 
                            "type": "note", 
                            "channel": 0
                        }, 
                        {
                            "pitch": 70, 
                            "t0": 149000.0, 
                            "v": 18, 
                            "dur": 800.0, 
                            "type": "note", 
                            "channel": 0
                        }
                    ]
                ], 
                [
                    150000.0, 
                    [
                        {
                            "pitch": 23, 
                            "t0": 150000.0, 
                            "v": 25, 
                            "dur": 800.0, 
                            "type": "note", 
                            "channel": 0
                        }, 
                        {
                            "pitch": 35, 
                            "t0": 150000.0, 
                            "v": 95, 
                            "dur": 800.0, 
                            "type": "note", 
                            "channel": 0
                        }, 
                        {
                            "pitch": 47, 
                            "t0": 150000.0, 
                            "v": 119, 
                            "dur": 800.0, 
                            "type": "note", 
                            "channel": 0
                        }, 
                        {
                            "pitch": 59, 
                            "t0": 150000.0, 
                            "v": 86, 
                            "dur": 800.0, 
                            "type": "note", 
                            "channel": 0
                        }, 
                        {
                            "pitch": 71, 
                            "t0": 150000.0, 
                            "v": 11, 
                            "dur": 800.0, 
                            "type": "note", 
                            "channel": 0
                        }
                    ]
                ], 
                [
                    151000.0, 
                    [
                        {
                            "pitch": 34, 
                            "t0": 151000.0, 
                            "v": 91, 
                            "dur": 800.0, 
                            "type": "note", 
                            "channel": 0
                        }, 
                        {
                            "pitch": 46, 
                            "t0": 151000.0, 
                            "v": 120, 
                            "dur": 800.0, 
                            "type": "note", 
                            "channel": 0
                        }, 
                        {
                            "pitch": 58, 
                            "t0": 151000.0, 
                            "v": 91, 
                            "dur": 800.0, 
                            "type": "note", 
                            "channel": 0
                        }, 
                        {
                            "pitch": 70, 
                            "t0": 151000.0, 
                            "v": 18, 
                            "dur": 800.0, 
                            "type": "note", 
                            "channel": 0
                        }
                    ]
                ], 
                [
                    152000.0, 
                    [
                        {
                            "pitch": 23, 
                            "t0": 152000.0, 
                            "v": 25, 
                            "dur": 800.0, 
                            "type": "note", 
                            "channel": 0
                        }, 
                        {
                            "pitch": 35, 
                            "t0": 152000.0, 
                            "v": 95, 
                            "dur": 800.0, 
                            "type": "note", 
                            "channel": 0
                        }, 
                        {
                            "pitch": 47, 
                            "t0": 152000.0, 
                            "v": 119, 
                            "dur": 800.0, 
                            "type": "note", 
                            "channel": 0
                        }, 
                        {
                            "pitch": 59, 
                            "t0": 152000.0, 
                            "v": 86, 
                            "dur": 800.0, 
                            "type": "note", 
                            "channel": 0
                        }, 
                        {
                            "pitch": 71, 
                            "t0": 152000.0, 
                            "v": 11, 
                            "dur": 800.0, 
                            "type": "note", 
                            "channel": 0
                        }
                    ]
                ], 
                [
                    153000.0, 
                    [
                        {
                            "pitch": 25, 
                            "t0": 153000.0, 
                            "v": 39, 
                            "dur": 800.0, 
                            "type": "note", 
                            "channel": 0
                        }, 
                        {
                            "pitch": 37, 
                            "t0": 153000.0, 
                            "v": 103, 
                            "dur": 800.0, 
                            "type": "note", 
                            "channel": 0
                        }, 
                        {
                            "pitch": 49, 
                            "t0": 153000.0, 
                            "v": 118, 
                            "dur": 800.0, 
                            "type": "note", 
                            "channel": 0
                        }, 
                        {
                            "pitch": 61, 
                            "t0": 153000.0, 
                            "v": 76, 
                            "dur": 800.0, 
                            "type": "note", 
                            "channel": 0
                        }
                    ]
                ], 
                [
                    154000.0, 
                    [
                        {
                            "pitch": 27, 
                            "t0": 154000.0, 
                            "v": 52, 
                            "dur": 800.0, 
                            "type": "note", 
                            "channel": 0
                        }, 
                        {
                            "pitch": 39, 
                            "t0": 154000.0, 
                            "v": 109, 
                            "dur": 800.0, 
                            "type": "note", 
                            "channel": 0
                        }, 
                        {
                            "pitch": 51, 
                            "t0": 154000.0, 
                            "v": 114, 
                            "dur": 800.0, 
                            "type": "note", 
                            "channel": 0
                        }, 
                        {
                            "pitch": 63, 
                            "t0": 154000.0, 
                            "v": 64, 
                            "dur": 800.0, 
                            "type": "note", 
                            "channel": 0
                        }
                    ]
                ], 
                [
                    155000.0, 
                    [
                        {
                            "pitch": 25, 
                            "t0": 155000.0, 
                            "v": 39, 
                            "dur": 800.0, 
                            "type": "note", 
                            "channel": 0
                        }, 
                        {
                            "pitch": 37, 
                            "t0": 155000.0, 
                            "v": 103, 
                            "dur": 800.0, 
                            "type": "note", 
                            "channel": 0
                        }, 
                        {
                            "pitch": 49, 
                            "t0": 155000.0, 
                            "v": 118, 
                            "dur": 800.0, 
                            "type": "note", 
                            "channel": 0
                        }, 
                        {
                            "pitch": 61, 
                            "t0": 155000.0, 
                            "v": 76, 
                            "dur": 800.0, 
                            "type": "note", 
                            "channel": 0
                        }
                    ]
                ], 
                [
                    156000.0, 
                    [
                        {
                            "pitch": 27, 
                            "t0": 156000.0, 
                            "v": 52, 
                            "dur": 800.0, 
                            "type": "note", 
                            "channel": 0
                        }, 
                        {
                            "pitch": 39, 
                            "t0": 156000.0, 
                            "v": 109, 
                            "dur": 800.0, 
                            "type": "note", 
                            "channel": 0
                        }, 
                        {
                            "pitch": 51, 
                            "t0": 156000.0, 
                            "v": 114, 
                            "dur": 800.0, 
                            "type": "note", 
                            "channel": 0
                        }, 
                        {
                            "pitch": 63, 
                            "t0": 156000.0, 
                            "v": 64, 
                            "dur": 800.0, 
                            "type": "note", 
                            "channel": 0
                        }
                    ]
                ], 
                [
                    157000.0, 
                    [
                        {
                            "pitch": 28, 
                            "t0": 157000.0, 
                            "v": 58, 
                            "dur": 800.0, 
                            "type": "note", 
                            "channel": 0
                        }, 
                        {
                            "pitch": 40, 
                            "t0": 157000.0, 
                            "v": 112, 
                            "dur": 800.0, 
                            "type": "note", 
                            "channel": 0
                        }, 
                        {
                            "pitch": 52, 
                            "t0": 157000.0, 
                            "v": 112, 
                            "dur": 800.0, 
                            "type": "note", 
                            "channel": 0
                        }, 
                        {
                            "pitch": 64, 
                            "t0": 157000.0, 
                            "v": 58, 
                            "dur": 800.0, 
                            "type": "note", 
                            "channel": 0
                        }
                    ]
                ], 
                [
                    158000.0, 
                    [
                        {
                            "pitch": 27, 
                            "t0": 158000.0, 
                            "v": 52, 
                            "dur": 800.0, 
                            "type": "note", 
                            "channel": 0
                        }, 
                        {
                            "pitch": 39, 
                            "t0": 158000.0, 
                            "v": 109, 
                            "dur": 800.0, 
                            "type": "note", 
                            "channel": 0
                        }, 
                        {
                            "pitch": 51, 
                            "t0": 158000.0, 
                            "v": 114, 
                            "dur": 800.0, 
                            "type": "note", 
                            "channel": 0
                        }, 
                        {
                            "pitch": 63, 
                            "t0": 158000.0, 
                            "v": 64, 
                            "dur": 800.0, 
                            "type": "note", 
                            "channel": 0
                        }
                    ]
                ], 
                [
                    159000.0, 
                    [
                        {
                            "pitch": 28, 
                            "t0": 159000.0, 
                            "v": 58, 
                            "dur": 800.0, 
                            "type": "note", 
                            "channel": 0
                        }, 
                        {
                            "pitch": 40, 
                            "t0": 159000.0, 
                            "v": 112, 
                            "dur": 800.0, 
                            "type": "note", 
                            "channel": 0
                        }, 
                        {
                            "pitch": 52, 
                            "t0": 159000.0, 
                            "v": 112, 
                            "dur": 800.0, 
                            "type": "note", 
                            "channel": 0
                        }, 
                        {
                            "pitch": 64, 
                            "t0": 159000.0, 
                            "v": 58, 
                            "dur": 800.0, 
                            "type": "note", 
                            "channel": 0
                        }
                    ]
                ], 
                [
                    160000.0, 
                    [
                        {
                            "pitch": 30, 
                            "t0": 160000.0, 
                            "v": 70, 
                            "dur": 800.0, 
                            "type": "note", 
                            "channel": 0
                        }, 
                        {
                            "pitch": 42, 
                            "t0": 160000.0, 
                            "v": 116, 
                            "dur": 800.0, 
                            "type": "note", 
                            "channel": 0
                        }, 
                        {
                            "pitch": 54, 
                            "t0": 160000.0, 
                            "v": 106, 
                            "dur": 800.0, 
                            "type": "note", 
                            "channel": 0
                        }, 
                        {
                            "pitch": 66, 
                            "t0": 160000.0, 
                            "v": 45, 
                            "dur": 800.0, 
                            "type": "note", 
                            "channel": 0
                        }
                    ]
                ], 
                [
                    161000.0, 
                    [
                        {
                            "pitch": 28, 
                            "t0": 161000.0, 
                            "v": 58, 
                            "dur": 800.0, 
                            "type": "note", 
                            "channel": 0
                        }, 
                        {
                            "pitch": 40, 
                            "t0": 161000.0, 
                            "v": 112, 
                            "dur": 800.0, 
                            "type": "note", 
                            "channel": 0
                        }, 
                        {
                            "pitch": 52, 
                            "t0": 161000.0, 
                            "v": 112, 
                            "dur": 800.0, 
                            "type": "note", 
                            "channel": 0
                        }, 
                        {
                            "pitch": 64, 
                            "t0": 161000.0, 
                            "v": 58, 
                            "dur": 800.0, 
                            "type": "note", 
                            "channel": 0
                        }
                    ]
                ], 
                [
                    162000.0, 
                    [
                        {
                            "pitch": 30, 
                            "t0": 162000.0, 
                            "v": 70, 
                            "dur": 800.0, 
                            "type": "note", 
                            "channel": 0
                        }, 
                        {
                            "pitch": 42, 
                            "t0": 162000.0, 
                            "v": 116, 
                            "dur": 800.0, 
                            "type": "note", 
                            "channel": 0
                        }, 
                        {
                            "pitch": 54, 
                            "t0": 162000.0, 
                            "v": 106, 
                            "dur": 800.0, 
                            "type": "note", 
                            "channel": 0
                        }, 
                        {
                            "pitch": 66, 
                            "t0": 162000.0, 
                            "v": 45, 
                            "dur": 800.0, 
                            "type": "note", 
                            "channel": 0
                        }
                    ]
                ], 
                [
                    163000.0, 
                    [
                        {
                            "pitch": 32, 
                            "t0": 163000.0, 
                            "v": 81, 
                            "dur": 800.0, 
                            "type": "note", 
                            "channel": 0
                        }, 
                        {
                            "pitch": 44, 
                            "t0": 163000.0, 
                            "v": 119, 
                            "dur": 800.0, 
                            "type": "note", 
                            "channel": 0
                        }, 
                        {
                            "pitch": 56, 
                            "t0": 163000.0, 
                            "v": 99, 
                            "dur": 800.0, 
                            "type": "note", 
                            "channel": 0
                        }, 
                        {
                            "pitch": 68, 
                            "t0": 163000.0, 
                            "v": 32, 
                            "dur": 800.0, 
                            "type": "note", 
                            "channel": 0
                        }
                    ]
                ], 
                [
                    164000.0, 
                    [
                        {
                            "pitch": 30, 
                            "t0": 164000.0, 
                            "v": 70, 
                            "dur": 800.0, 
                            "type": "note", 
                            "channel": 0
                        }, 
                        {
                            "pitch": 42, 
                            "t0": 164000.0, 
                            "v": 116, 
                            "dur": 800.0, 
                            "type": "note", 
                            "channel": 0
                        }, 
                        {
                            "pitch": 54, 
                            "t0": 164000.0, 
                            "v": 106, 
                            "dur": 800.0, 
                            "type": "note", 
                            "channel": 0
                        }, 
                        {
                            "pitch": 66, 
                            "t0": 164000.0, 
                            "v": 45, 
                            "dur": 800.0, 
                            "type": "note", 
                            "channel": 0
                        }
                    ]
                ], 
                [
                    165000.0, 
                    [
                        {
                            "pitch": 32, 
                            "t0": 165000.0, 
                            "v": 81, 
                            "dur": 800.0, 
                            "type": "note", 
                            "channel": 0
                        }, 
                        {
                            "pitch": 44, 
                            "t0": 165000.0, 
                            "v": 119, 
                            "dur": 800.0, 
                            "type": "note", 
                            "channel": 0
                        }, 
                        {
                            "pitch": 56, 
                            "t0": 165000.0, 
                            "v": 99, 
                            "dur": 800.0, 
                            "type": "note", 
                            "channel": 0
                        }, 
                        {
                            "pitch": 68, 
                            "t0": 165000.0, 
                            "v": 32, 
                            "dur": 800.0, 
                            "type": "note", 
                            "channel": 0
                        }
                    ]
                ], 
                [
                    166000.0, 
                    [
                        {
                            "pitch": 34, 
                            "t0": 166000.0, 
                            "v": 91, 
                            "dur": 800.0, 
                            "type": "note", 
                            "channel": 0
                        }, 
                        {
                            "pitch": 46, 
                            "t0": 166000.0, 
                            "v": 120, 
                            "dur": 800.0, 
                            "type": "note", 
                            "channel": 0
                        }, 
                        {
                            "pitch": 58, 
                            "t0": 166000.0, 
                            "v": 91, 
                            "dur": 800.0, 
                            "type": "note", 
                            "channel": 0
                        }, 
                        {
                            "pitch": 70, 
                            "t0": 166000.0, 
                            "v": 18, 
                            "dur": 800.0, 
                            "type": "note", 
                            "channel": 0
                        }
                    ]
                ], 
                [
                    167000.0, 
                    [
                        {
                            "pitch": 32, 
                            "t0": 167000.0, 
                            "v": 81, 
                            "dur": 800.0, 
                            "type": "note", 
                            "channel": 0
                        }, 
                        {
                            "pitch": 44, 
                            "t0": 167000.0, 
                            "v": 119, 
                            "dur": 800.0, 
                            "type": "note", 
                            "channel": 0
                        }, 
                        {
                            "pitch": 56, 
                            "t0": 167000.0, 
                            "v": 99, 
                            "dur": 800.0, 
                            "type": "note", 
                            "channel": 0
                        }, 
                        {
                            "pitch": 68, 
                            "t0": 167000.0, 
                            "v": 32, 
                            "dur": 800.0, 
                            "type": "note", 
                            "channel": 0
                        }
                    ]
                ], 
                [
                    168000.0, 
                    [
                        {
                            "pitch": 34, 
                            "t0": 168000.0, 
                            "v": 91, 
                            "dur": 800.0, 
                            "type": "note", 
                            "channel": 0
                        }, 
                        {
                            "pitch": 46, 
                            "t0": 168000.0, 
                            "v": 120, 
                            "dur": 800.0, 
                            "type": "note", 
                            "channel": 0
                        }, 
                        {
                            "pitch": 58, 
                            "t0": 168000.0, 
                            "v": 91, 
                            "dur": 800.0, 
                            "type": "note", 
                            "channel": 0
                        }, 
                        {
                            "pitch": 70, 
                            "t0": 168000.0, 
                            "v": 18, 
                            "dur": 800.0, 
                            "type": "note", 
                            "channel": 0
                        }
                    ]
                ], 
                [
                    169000.0, 
                    [
                        {
                            "pitch": 23, 
                            "t0": 169000.0, 
                            "v": 25, 
                            "dur": 800.0, 
                            "type": "note", 
                            "channel": 0
                        }, 
                        {
                            "pitch": 35, 
                            "t0": 169000.0, 
                            "v": 95, 
                            "dur": 800.0, 
                            "type": "note", 
                            "channel": 0
                        }, 
                        {
                            "pitch": 47, 
                            "t0": 169000.0, 
                            "v": 119, 
                            "dur": 800.0, 
                            "type": "note", 
                            "channel": 0
                        }, 
                        {
                            "pitch": 59, 
                            "t0": 169000.0, 
                            "v": 86, 
                            "dur": 800.0, 
                            "type": "note", 
                            "channel": 0
                        }, 
                        {
                            "pitch": 71, 
                            "t0": 169000.0, 
                            "v": 11, 
                            "dur": 800.0, 
                            "type": "note", 
                            "channel": 0
                        }
                    ]
                ], 
                [
                    170000.0, 
                    [
                        {
                            "pitch": 34, 
                            "t0": 170000.0, 
                            "v": 91, 
                            "dur": 800.0, 
                            "type": "note", 
                            "channel": 0
                        }, 
                        {
                            "pitch": 46, 
                            "t0": 170000.0, 
                            "v": 120, 
                            "dur": 800.0, 
                            "type": "note", 
                            "channel": 0
                        }, 
                        {
                            "pitch": 58, 
                            "t0": 170000.0, 
                            "v": 91, 
                            "dur": 800.0, 
                            "type": "note", 
                            "channel": 0
                        }, 
                        {
                            "pitch": 70, 
                            "t0": 170000.0, 
                            "v": 18, 
                            "dur": 800.0, 
                            "type": "note", 
                            "channel": 0
                        }
                    ]
                ], 
                [
                    171000.0, 
                    [
                        {
                            "pitch": 23, 
                            "t0": 171000.0, 
                            "v": 25, 
                            "dur": 800.0, 
                            "type": "note", 
                            "channel": 0
                        }, 
                        {
                            "pitch": 35, 
                            "t0": 171000.0, 
                            "v": 95, 
                            "dur": 800.0, 
                            "type": "note", 
                            "channel": 0
                        }, 
                        {
                            "pitch": 47, 
                            "t0": 171000.0, 
                            "v": 119, 
                            "dur": 800.0, 
                            "type": "note", 
                            "channel": 0
                        }, 
                        {
                            "pitch": 59, 
                            "t0": 171000.0, 
                            "v": 86, 
                            "dur": 800.0, 
                            "type": "note", 
                            "channel": 0
                        }, 
                        {
                            "pitch": 71, 
                            "t0": 171000.0, 
                            "v": 11, 
                            "dur": 800.0, 
                            "type": "note", 
                            "channel": 0
                        }
                    ]
                ], 
                [
                    172000.0, 
                    [
                        {
                            "pitch": 25, 
                            "t0": 172000.0, 
                            "v": 39, 
                            "dur": 800.0, 
                            "type": "note", 
                            "channel": 0
                        }, 
                        {
                            "pitch": 37, 
                            "t0": 172000.0, 
                            "v": 103, 
                            "dur": 800.0, 
                            "type": "note", 
                            "channel": 0
                        }, 
                        {
                            "pitch": 49, 
                            "t0": 172000.0, 
                            "v": 118, 
                            "dur": 800.0, 
                            "type": "note", 
                            "channel": 0
                        }, 
                        {
                            "pitch": 61, 
                            "t0": 172000.0, 
                            "v": 76, 
                            "dur": 800.0, 
                            "type": "note", 
                            "channel": 0
                        }
                    ]
                ], 
                [
                    173000.0, 
                    [
                        {
                            "pitch": 27, 
                            "t0": 173000.0, 
                            "v": 52, 
                            "dur": 800.0, 
                            "type": "note", 
                            "channel": 0
                        }, 
                        {
                            "pitch": 39, 
                            "t0": 173000.0, 
                            "v": 109, 
                            "dur": 800.0, 
                            "type": "note", 
                            "channel": 0
                        }, 
                        {
                            "pitch": 51, 
                            "t0": 173000.0, 
                            "v": 114, 
                            "dur": 800.0, 
                            "type": "note", 
                            "channel": 0
                        }, 
                        {
                            "pitch": 63, 
                            "t0": 173000.0, 
                            "v": 64, 
                            "dur": 800.0, 
                            "type": "note", 
                            "channel": 0
                        }
                    ]
                ], 
                [
                    174000.0, 
                    [
                        {
                            "pitch": 25, 
                            "t0": 174000.0, 
                            "v": 39, 
                            "dur": 800.0, 
                            "type": "note", 
                            "channel": 0
                        }, 
                        {
                            "pitch": 37, 
                            "t0": 174000.0, 
                            "v": 103, 
                            "dur": 800.0, 
                            "type": "note", 
                            "channel": 0
                        }, 
                        {
                            "pitch": 49, 
                            "t0": 174000.0, 
                            "v": 118, 
                            "dur": 800.0, 
                            "type": "note", 
                            "channel": 0
                        }, 
                        {
                            "pitch": 61, 
                            "t0": 174000.0, 
                            "v": 76, 
                            "dur": 800.0, 
                            "type": "note", 
                            "channel": 0
                        }
                    ]
                ], 
                [
                    175000.0, 
                    [
                        {
                            "pitch": 27, 
                            "t0": 175000.0, 
                            "v": 52, 
                            "dur": 800.0, 
                            "type": "note", 
                            "channel": 0
                        }, 
                        {
                            "pitch": 39, 
                            "t0": 175000.0, 
                            "v": 109, 
                            "dur": 800.0, 
                            "type": "note", 
                            "channel": 0
                        }, 
                        {
                            "pitch": 51, 
                            "t0": 175000.0, 
                            "v": 114, 
                            "dur": 800.0, 
                            "type": "note", 
                            "channel": 0
                        }, 
                        {
                            "pitch": 63, 
                            "t0": 175000.0, 
                            "v": 64, 
                            "dur": 800.0, 
                            "type": "note", 
                            "channel": 0
                        }
                    ]
                ], 
                [
                    176000.0, 
                    [
                        {
                            "pitch": 28, 
                            "t0": 176000.0, 
                            "v": 58, 
                            "dur": 800.0, 
                            "type": "note", 
                            "channel": 0
                        }, 
                        {
                            "pitch": 40, 
                            "t0": 176000.0, 
                            "v": 112, 
                            "dur": 800.0, 
                            "type": "note", 
                            "channel": 0
                        }, 
                        {
                            "pitch": 52, 
                            "t0": 176000.0, 
                            "v": 112, 
                            "dur": 800.0, 
                            "type": "note", 
                            "channel": 0
                        }, 
                        {
                            "pitch": 64, 
                            "t0": 176000.0, 
                            "v": 58, 
                            "dur": 800.0, 
                            "type": "note", 
                            "channel": 0
                        }
                    ]
                ], 
                [
                    177000.0, 
                    [
                        {
                            "pitch": 27, 
                            "t0": 177000.0, 
                            "v": 52, 
                            "dur": 800.0, 
                            "type": "note", 
                            "channel": 0
                        }, 
                        {
                            "pitch": 39, 
                            "t0": 177000.0, 
                            "v": 109, 
                            "dur": 800.0, 
                            "type": "note", 
                            "channel": 0
                        }, 
                        {
                            "pitch": 51, 
                            "t0": 177000.0, 
                            "v": 114, 
                            "dur": 800.0, 
                            "type": "note", 
                            "channel": 0
                        }, 
                        {
                            "pitch": 63, 
                            "t0": 177000.0, 
                            "v": 64, 
                            "dur": 800.0, 
                            "type": "note", 
                            "channel": 0
                        }
                    ]
                ], 
                [
                    178000.0, 
                    [
                        {
                            "pitch": 28, 
                            "t0": 178000.0, 
                            "v": 58, 
                            "dur": 800.0, 
                            "type": "note", 
                            "channel": 0
                        }, 
                        {
                            "pitch": 40, 
                            "t0": 178000.0, 
                            "v": 112, 
                            "dur": 800.0, 
                            "type": "note", 
                            "channel": 0
                        }, 
                        {
                            "pitch": 52, 
                            "t0": 178000.0, 
                            "v": 112, 
                            "dur": 800.0, 
                            "type": "note", 
                            "channel": 0
                        }, 
                        {
                            "pitch": 64, 
                            "t0": 178000.0, 
                            "v": 58, 
                            "dur": 800.0, 
                            "type": "note", 
                            "channel": 0
                        }
                    ]
                ], 
                [
                    179000.0, 
                    [
                        {
                            "pitch": 30, 
                            "t0": 179000.0, 
                            "v": 70, 
                            "dur": 800.0, 
                            "type": "note", 
                            "channel": 0
                        }, 
                        {
                            "pitch": 42, 
                            "t0": 179000.0, 
                            "v": 116, 
                            "dur": 800.0, 
                            "type": "note", 
                            "channel": 0
                        }, 
                        {
                            "pitch": 54, 
                            "t0": 179000.0, 
                            "v": 106, 
                            "dur": 800.0, 
                            "type": "note", 
                            "channel": 0
                        }, 
                        {
                            "pitch": 66, 
                            "t0": 179000.0, 
                            "v": 45, 
                            "dur": 800.0, 
                            "type": "note", 
                            "channel": 0
                        }
                    ]
                ], 
                [
                    180000.0, 
                    [
                        {
                            "pitch": 28, 
                            "t0": 180000.0, 
                            "v": 58, 
                            "dur": 800.0, 
                            "type": "note", 
                            "channel": 0
                        }, 
                        {
                            "pitch": 40, 
                            "t0": 180000.0, 
                            "v": 112, 
                            "dur": 800.0, 
                            "type": "note", 
                            "channel": 0
                        }, 
                        {
                            "pitch": 52, 
                            "t0": 180000.0, 
                            "v": 112, 
                            "dur": 800.0, 
                            "type": "note", 
                            "channel": 0
                        }, 
                        {
                            "pitch": 64, 
                            "t0": 180000.0, 
                            "v": 58, 
                            "dur": 800.0, 
                            "type": "note", 
                            "channel": 0
                        }
                    ]
                ], 
                [
                    181000.0, 
                    [
                        {
                            "pitch": 30, 
                            "t0": 181000.0, 
                            "v": 70, 
                            "dur": 800.0, 
                            "type": "note", 
                            "channel": 0
                        }, 
                        {
                            "pitch": 42, 
                            "t0": 181000.0, 
                            "v": 116, 
                            "dur": 800.0, 
                            "type": "note", 
                            "channel": 0
                        }, 
                        {
                            "pitch": 54, 
                            "t0": 181000.0, 
                            "v": 106, 
                            "dur": 800.0, 
                            "type": "note", 
                            "channel": 0
                        }, 
                        {
                            "pitch": 66, 
                            "t0": 181000.0, 
                            "v": 45, 
                            "dur": 800.0, 
                            "type": "note", 
                            "channel": 0
                        }
                    ]
                ], 
                [
                    182000.0, 
                    [
                        {
                            "pitch": 32, 
                            "t0": 182000.0, 
                            "v": 81, 
                            "dur": 800.0, 
                            "type": "note", 
                            "channel": 0
                        }, 
                        {
                            "pitch": 44, 
                            "t0": 182000.0, 
                            "v": 119, 
                            "dur": 800.0, 
                            "type": "note", 
                            "channel": 0
                        }, 
                        {
                            "pitch": 56, 
                            "t0": 182000.0, 
                            "v": 99, 
                            "dur": 800.0, 
                            "type": "note", 
                            "channel": 0
                        }, 
                        {
                            "pitch": 68, 
                            "t0": 182000.0, 
                            "v": 32, 
                            "dur": 800.0, 
                            "type": "note", 
                            "channel": 0
                        }
                    ]
                ], 
                [
                    183000.0, 
                    [
                        {
                            "pitch": 30, 
                            "t0": 183000.0, 
                            "v": 70, 
                            "dur": 800.0, 
                            "type": "note", 
                            "channel": 0
                        }, 
                        {
                            "pitch": 42, 
                            "t0": 183000.0, 
                            "v": 116, 
                            "dur": 800.0, 
                            "type": "note", 
                            "channel": 0
                        }, 
                        {
                            "pitch": 54, 
                            "t0": 183000.0, 
                            "v": 106, 
                            "dur": 800.0, 
                            "type": "note", 
                            "channel": 0
                        }, 
                        {
                            "pitch": 66, 
                            "t0": 183000.0, 
                            "v": 45, 
                            "dur": 800.0, 
                            "type": "note", 
                            "channel": 0
                        }
                    ]
                ], 
                [
                    184000.0, 
                    [
                        {
                            "pitch": 32, 
                            "t0": 184000.0, 
                            "v": 81, 
                            "dur": 800.0, 
                            "type": "note", 
                            "channel": 0
                        }, 
                        {
                            "pitch": 44, 
                            "t0": 184000.0, 
                            "v": 119, 
                            "dur": 800.0, 
                            "type": "note", 
                            "channel": 0
                        }, 
                        {
                            "pitch": 56, 
                            "t0": 184000.0, 
                            "v": 99, 
                            "dur": 800.0, 
                            "type": "note", 
                            "channel": 0
                        }, 
                        {
                            "pitch": 68, 
                            "t0": 184000.0, 
                            "v": 32, 
                            "dur": 800.0, 
                            "type": "note", 
                            "channel": 0
                        }
                    ]
                ], 
                [
                    185000.0, 
                    [
                        {
                            "pitch": 34, 
                            "t0": 185000.0, 
                            "v": 91, 
                            "dur": 800.0, 
                            "type": "note", 
                            "channel": 0
                        }, 
                        {
                            "pitch": 46, 
                            "t0": 185000.0, 
                            "v": 120, 
                            "dur": 800.0, 
                            "type": "note", 
                            "channel": 0
                        }, 
                        {
                            "pitch": 58, 
                            "t0": 185000.0, 
                            "v": 91, 
                            "dur": 800.0, 
                            "type": "note", 
                            "channel": 0
                        }, 
                        {
                            "pitch": 70, 
                            "t0": 185000.0, 
                            "v": 18, 
                            "dur": 800.0, 
                            "type": "note", 
                            "channel": 0
                        }
                    ]
                ], 
                [
                    186000.0, 
                    [
                        {
                            "pitch": 32, 
                            "t0": 186000.0, 
                            "v": 81, 
                            "dur": 800.0, 
                            "type": "note", 
                            "channel": 0
                        }, 
                        {
                            "pitch": 44, 
                            "t0": 186000.0, 
                            "v": 119, 
                            "dur": 800.0, 
                            "type": "note", 
                            "channel": 0
                        }, 
                        {
                            "pitch": 56, 
                            "t0": 186000.0, 
                            "v": 99, 
                            "dur": 800.0, 
                            "type": "note", 
                            "channel": 0
                        }, 
                        {
                            "pitch": 68, 
                            "t0": 186000.0, 
                            "v": 32, 
                            "dur": 800.0, 
                            "type": "note", 
                            "channel": 0
                        }
                    ]
                ], 
                [
                    187000.0, 
                    [
                        {
                            "pitch": 34, 
                            "t0": 187000.0, 
                            "v": 91, 
                            "dur": 800.0, 
                            "type": "note", 
                            "channel": 0
                        }, 
                        {
                            "pitch": 46, 
                            "t0": 187000.0, 
                            "v": 120, 
                            "dur": 800.0, 
                            "type": "note", 
                            "channel": 0
                        }, 
                        {
                            "pitch": 58, 
                            "t0": 187000.0, 
                            "v": 91, 
                            "dur": 800.0, 
                            "type": "note", 
                            "channel": 0
                        }, 
                        {
                            "pitch": 70, 
                            "t0": 187000.0, 
                            "v": 18, 
                            "dur": 800.0, 
                            "type": "note", 
                            "channel": 0
                        }
                    ]
                ], 
                [
                    188000.0, 
                    [
                        {
                            "pitch": 23, 
                            "t0": 188000.0, 
                            "v": 25, 
                            "dur": 800.0, 
                            "type": "note", 
                            "channel": 0
                        }, 
                        {
                            "pitch": 35, 
                            "t0": 188000.0, 
                            "v": 95, 
                            "dur": 800.0, 
                            "type": "note", 
                            "channel": 0
                        }, 
                        {
                            "pitch": 47, 
                            "t0": 188000.0, 
                            "v": 119, 
                            "dur": 800.0, 
                            "type": "note", 
                            "channel": 0
                        }, 
                        {
                            "pitch": 59, 
                            "t0": 188000.0, 
                            "v": 86, 
                            "dur": 800.0, 
                            "type": "note", 
                            "channel": 0
                        }, 
                        {
                            "pitch": 71, 
                            "t0": 188000.0, 
                            "v": 11, 
                            "dur": 800.0, 
                            "type": "note", 
                            "channel": 0
                        }
                    ]
                ], 
                [
                    189000.0, 
                    [
                        {
                            "pitch": 34, 
                            "t0": 189000.0, 
                            "v": 91, 
                            "dur": 800.0, 
                            "type": "note", 
                            "channel": 0
                        }, 
                        {
                            "pitch": 46, 
                            "t0": 189000.0, 
                            "v": 120, 
                            "dur": 800.0, 
                            "type": "note", 
                            "channel": 0
                        }, 
                        {
                            "pitch": 58, 
                            "t0": 189000.0, 
                            "v": 91, 
                            "dur": 800.0, 
                            "type": "note", 
                            "channel": 0
                        }, 
                        {
                            "pitch": 70, 
                            "t0": 189000.0, 
                            "v": 18, 
                            "dur": 800.0, 
                            "type": "note", 
                            "channel": 0
                        }
                    ]
                ], 
                [
                    190000.0, 
                    [
                        {
                            "pitch": 23, 
                            "t0": 190000.0, 
                            "v": 25, 
                            "dur": 800.0, 
                            "type": "note", 
                            "channel": 0
                        }, 
                        {
                            "pitch": 35, 
                            "t0": 190000.0, 
                            "v": 95, 
                            "dur": 800.0, 
                            "type": "note", 
                            "channel": 0
                        }, 
                        {
                            "pitch": 47, 
                            "t0": 190000.0, 
                            "v": 119, 
                            "dur": 800.0, 
                            "type": "note", 
                            "channel": 0
                        }, 
                        {
                            "pitch": 59, 
                            "t0": 190000.0, 
                            "v": 86, 
                            "dur": 800.0, 
                            "type": "note", 
                            "channel": 0
                        }, 
                        {
                            "pitch": 71, 
                            "t0": 190000.0, 
                            "v": 11, 
                            "dur": 800.0, 
                            "type": "note", 
                            "channel": 0
                        }
                    ]
                ], 
                [
                    191000.0, 
                    [
                        {
                            "pitch": 25, 
                            "t0": 191000.0, 
                            "v": 39, 
                            "dur": 800.0, 
                            "type": "note", 
                            "channel": 0
                        }, 
                        {
                            "pitch": 37, 
                            "t0": 191000.0, 
                            "v": 103, 
                            "dur": 800.0, 
                            "type": "note", 
                            "channel": 0
                        }, 
                        {
                            "pitch": 49, 
                            "t0": 191000.0, 
                            "v": 118, 
                            "dur": 800.0, 
                            "type": "note", 
                            "channel": 0
                        }, 
                        {
                            "pitch": 61, 
                            "t0": 191000.0, 
                            "v": 76, 
                            "dur": 800.0, 
                            "type": "note", 
                            "channel": 0
                        }
                    ]
                ], 
                [
                    192000.0, 
                    [
                        {
                            "pitch": 27, 
                            "t0": 192000.0, 
                            "v": 52, 
                            "dur": 800.0, 
                            "type": "note", 
                            "channel": 0
                        }, 
                        {
                            "pitch": 39, 
                            "t0": 192000.0, 
                            "v": 109, 
                            "dur": 800.0, 
                            "type": "note", 
                            "channel": 0
                        }, 
                        {
                            "pitch": 51, 
                            "t0": 192000.0, 
                            "v": 114, 
                            "dur": 800.0, 
                            "type": "note", 
                            "channel": 0
                        }, 
                        {
                            "pitch": 63, 
                            "t0": 192000.0, 
                            "v": 64, 
                            "dur": 800.0, 
                            "type": "note", 
                            "channel": 0
                        }
                    ]
                ], 
                [
                    193000.0, 
                    [
                        {
                            "pitch": 25, 
                            "t0": 193000.0, 
                            "v": 39, 
                            "dur": 800.0, 
                            "type": "note", 
                            "channel": 0
                        }, 
                        {
                            "pitch": 37, 
                            "t0": 193000.0, 
                            "v": 103, 
                            "dur": 800.0, 
                            "type": "note", 
                            "channel": 0
                        }, 
                        {
                            "pitch": 49, 
                            "t0": 193000.0, 
                            "v": 118, 
                            "dur": 800.0, 
                            "type": "note", 
                            "channel": 0
                        }, 
                        {
                            "pitch": 61, 
                            "t0": 193000.0, 
                            "v": 76, 
                            "dur": 800.0, 
                            "type": "note", 
                            "channel": 0
                        }
                    ]
                ], 
                [
                    194000.0, 
                    [
                        {
                            "pitch": 27, 
                            "t0": 194000.0, 
                            "v": 52, 
                            "dur": 800.0, 
                            "type": "note", 
                            "channel": 0
                        }, 
                        {
                            "pitch": 39, 
                            "t0": 194000.0, 
                            "v": 109, 
                            "dur": 800.0, 
                            "type": "note", 
                            "channel": 0
                        }, 
                        {
                            "pitch": 51, 
                            "t0": 194000.0, 
                            "v": 114, 
                            "dur": 800.0, 
                            "type": "note", 
                            "channel": 0
                        }, 
                        {
                            "pitch": 63, 
                            "t0": 194000.0, 
                            "v": 64, 
                            "dur": 800.0, 
                            "type": "note", 
                            "channel": 0
                        }
                    ]
                ], 
                [
                    195000.0, 
                    [
                        {
                            "pitch": 28, 
                            "t0": 195000.0, 
                            "v": 58, 
                            "dur": 800.0, 
                            "type": "note", 
                            "channel": 0
                        }, 
                        {
                            "pitch": 40, 
                            "t0": 195000.0, 
                            "v": 112, 
                            "dur": 800.0, 
                            "type": "note", 
                            "channel": 0
                        }, 
                        {
                            "pitch": 52, 
                            "t0": 195000.0, 
                            "v": 112, 
                            "dur": 800.0, 
                            "type": "note", 
                            "channel": 0
                        }, 
                        {
                            "pitch": 64, 
                            "t0": 195000.0, 
                            "v": 58, 
                            "dur": 800.0, 
                            "type": "note", 
                            "channel": 0
                        }
                    ]
                ], 
                [
                    196000.0, 
                    [
                        {
                            "pitch": 27, 
                            "t0": 196000.0, 
                            "v": 52, 
                            "dur": 800.0, 
                            "type": "note", 
                            "channel": 0
                        }, 
                        {
                            "pitch": 39, 
                            "t0": 196000.0, 
                            "v": 109, 
                            "dur": 800.0, 
                            "type": "note", 
                            "channel": 0
                        }, 
                        {
                            "pitch": 51, 
                            "t0": 196000.0, 
                            "v": 114, 
                            "dur": 800.0, 
                            "type": "note", 
                            "channel": 0
                        }, 
                        {
                            "pitch": 63, 
                            "t0": 196000.0, 
                            "v": 64, 
                            "dur": 800.0, 
                            "type": "note", 
                            "channel": 0
                        }
                    ]
                ], 
                [
                    197000.0, 
                    [
                        {
                            "pitch": 28, 
                            "t0": 197000.0, 
                            "v": 58, 
                            "dur": 800.0, 
                            "type": "note", 
                            "channel": 0
                        }, 
                        {
                            "pitch": 40, 
                            "t0": 197000.0, 
                            "v": 112, 
                            "dur": 800.0, 
                            "type": "note", 
                            "channel": 0
                        }, 
                        {
                            "pitch": 52, 
                            "t0": 197000.0, 
                            "v": 112, 
                            "dur": 800.0, 
                            "type": "note", 
                            "channel": 0
                        }, 
                        {
                            "pitch": 64, 
                            "t0": 197000.0, 
                            "v": 58, 
                            "dur": 800.0, 
                            "type": "note", 
                            "channel": 0
                        }
                    ]
                ], 
                [
                    198000.0, 
                    [
                        {
                            "pitch": 30, 
                            "t0": 198000.0, 
                            "v": 70, 
                            "dur": 800.0, 
                            "type": "note", 
                            "channel": 0
                        }, 
                        {
                            "pitch": 42, 
                            "t0": 198000.0, 
                            "v": 116, 
                            "dur": 800.0, 
                            "type": "note", 
                            "channel": 0
                        }, 
                        {
                            "pitch": 54, 
                            "t0": 198000.0, 
                            "v": 106, 
                            "dur": 800.0, 
                            "type": "note", 
                            "channel": 0
                        }, 
                        {
                            "pitch": 66, 
                            "t0": 198000.0, 
                            "v": 45, 
                            "dur": 800.0, 
                            "type": "note", 
                            "channel": 0
                        }
                    ]
                ], 
                [
                    199000.0, 
                    [
                        {
                            "pitch": 28, 
                            "t0": 199000.0, 
                            "v": 58, 
                            "dur": 800.0, 
                            "type": "note", 
                            "channel": 0
                        }, 
                        {
                            "pitch": 40, 
                            "t0": 199000.0, 
                            "v": 112, 
                            "dur": 800.0, 
                            "type": "note", 
                            "channel": 0
                        }, 
                        {
                            "pitch": 52, 
                            "t0": 199000.0, 
                            "v": 112, 
                            "dur": 800.0, 
                            "type": "note", 
                            "channel": 0
                        }, 
                        {
                            "pitch": 64, 
                            "t0": 199000.0, 
                            "v": 58, 
                            "dur": 800.0, 
                            "type": "note", 
                            "channel": 0
                        }
                    ]
                ]
            ], 
            "instruments": [], 
            "channels": [], 
            "numNotes": 821, 
            "type": "TrackObj"
        }
    ], 
    "type": "MidiObj", 
    "loop": false
}