{
    "format": 1, 
    "instruments": [
        0, 
        69, 
        73, 
        42, 
        46, 
        47, 
        48, 
        49, 
        52, 
        56, 
        58, 
        60
    ], 
    "resolution": 480, 
    "channels": [
        0, 
        1, 
        2, 
        3, 
        4, 
        5, 
        8, 
        9, 
        10, 
        11, 
        12, 
        13, 
        14, 
        15
    ], 
    "tracks": [
        {
            "trackName": "untitled", 
            "seq": [
                [
                    0, 
                    [
                        {
                            "bpm": 140.00014000014, 
                            "type": "tempo", 
                            "mpqn": 428571, 
                            "t0": 0
                        }
                    ]
                ]
            ], 
            "instruments": [], 
            "tMax": 0, 
            "channels": [], 
            "numNotes": 0, 
            "type": "TrackObj"
        }, 
        {
            "trackName": "Track 1", 
            "seq": [
                [
                    0, 
                    [
                        {
                            "instrument": 0, 
                            "type": "programChange", 
                            "t0": 0, 
                            "channel": 0
                        }
                    ]
                ], 
                [
                    960, 
                    [
                        {
                            "pitch": 45, 
                            "t0": 960, 
                            "v": 35, 
                            "dur": 480, 
                            "type": "note", 
                            "channel": 0
                        }
                    ]
                ], 
                [
                    1440, 
                    [
                        {
                            "pitch": 48, 
                            "t0": 1440, 
                            "v": 37, 
                            "dur": 480, 
                            "type": "note", 
                            "channel": 0
                        }
                    ]
                ], 
                [
                    1920, 
                    [
                        {
                            "pitch": 52, 
                            "t0": 1920, 
                            "v": 40, 
                            "dur": 480, 
                            "type": "note", 
                            "channel": 0
                        }
                    ]
                ], 
                [
                    2400, 
                    [
                        {
                            "pitch": 57, 
                            "t0": 2400, 
                            "v": 42, 
                            "dur": 480, 
                            "type": "note", 
                            "channel": 0
                        }
                    ]
                ], 
                [
                    2880, 
                    [
                        {
                            "pitch": 60, 
                            "t0": 2880, 
                            "v": 45, 
                            "dur": 480, 
                            "type": "note", 
                            "channel": 0
                        }
                    ]
                ], 
                [
                    3360, 
                    [
                        {
                            "pitch": 64, 
                            "t0": 3360, 
                            "v": 47, 
                            "dur": 480, 
                            "type": "note", 
                            "channel": 0
                        }
                    ]
                ], 
                [
                    3840, 
                    [
                        {
                            "pitch": 69, 
                            "t0": 3840, 
                            "v": 50, 
                            "dur": 480, 
                            "type": "note", 
                            "channel": 0
                        }
                    ]
                ], 
                [
                    4320, 
                    [
                        {
                            "pitch": 72, 
                            "t0": 4320, 
                            "v": 52, 
                            "dur": 480, 
                            "type": "note", 
                            "channel": 0
                        }
                    ]
                ], 
                [
                    4800, 
                    [
                        {
                            "pitch": 76, 
                            "t0": 4800, 
                            "v": 55, 
                            "dur": 480, 
                            "type": "note", 
                            "channel": 0
                        }
                    ]
                ], 
                [
                    5280, 
                    [
                        {
                            "pitch": 81, 
                            "t0": 5280, 
                            "v": 58, 
                            "dur": 480, 
                            "type": "note", 
                            "channel": 0
                        }
                    ]
                ], 
                [
                    5760, 
                    [
                        {
                            "pitch": 84, 
                            "t0": 5760, 
                            "v": 88, 
                            "dur": 1590, 
                            "type": "note", 
                            "channel": 0
                        }
                    ]
                ], 
                [
                    6720, 
                    [
                        {
                            "pitch": 64, 
                            "t0": 6720, 
                            "v": 50, 
                            "dur": 1068, 
                            "type": "note", 
                            "channel": 0
                        }, 
                        {
                            "pitch": 72, 
                            "t0": 6720, 
                            "v": 50, 
                            "dur": 1087, 
                            "type": "note", 
                            "channel": 0
                        }, 
                        {
                            "pitch": 69, 
                            "t0": 6720, 
                            "v": 50, 
                            "dur": 1115, 
                            "type": "note", 
                            "channel": 0
                        }
                    ]
                ], 
                [
                    8160, 
                    [
                        {
                            "pitch": 81, 
                            "t0": 8160, 
                            "v": 79, 
                            "dur": 440, 
                            "type": "note", 
                            "channel": 0
                        }
                    ]
                ], 
                [
                    8640, 
                    [
                        {
                            "pitch": 84, 
                            "t0": 8640, 
                            "v": 94, 
                            "dur": 710, 
                            "type": "note", 
                            "channel": 0
                        }
                    ]
                ], 
                [
                    9360, 
                    [
                        {
                            "pitch": 81, 
                            "t0": 9360, 
                            "v": 60, 
                            "dur": 203, 
                            "type": "note", 
                            "channel": 0
                        }
                    ]
                ], 
                [
                    9600, 
                    [
                        {
                            "pitch": 83, 
                            "t0": 9600, 
                            "v": 83, 
                            "dur": 1653, 
                            "type": "note", 
                            "channel": 0
                        }
                    ]
                ], 
                [
                    10560, 
                    [
                        {
                            "pitch": 76, 
                            "t0": 10560, 
                            "v": 71, 
                            "dur": 443, 
                            "type": "note", 
                            "channel": 0
                        }, 
                        {
                            "pitch": 64, 
                            "t0": 10560, 
                            "v": 50, 
                            "dur": 1498, 
                            "type": "note", 
                            "channel": 0
                        }, 
                        {
                            "pitch": 71, 
                            "t0": 10560, 
                            "v": 50, 
                            "dur": 1632, 
                            "type": "note", 
                            "channel": 0
                        }, 
                        {
                            "pitch": 67, 
                            "t0": 10560, 
                            "v": 50, 
                            "dur": 1696, 
                            "type": "note", 
                            "channel": 0
                        }
                    ]
                ], 
                [
                    13440, 
                    [
                        {
                            "pitch": 84, 
                            "t0": 13440, 
                            "v": 94, 
                            "dur": 1118, 
                            "type": "note", 
                            "channel": 0
                        }
                    ]
                ], 
                [
                    14400, 
                    [
                        {
                            "pitch": 69, 
                            "t0": 14400, 
                            "v": 50, 
                            "dur": 1238, 
                            "type": "note", 
                            "channel": 0
                        }, 
                        {
                            "pitch": 72, 
                            "t0": 14400, 
                            "v": 50, 
                            "dur": 1287, 
                            "type": "note", 
                            "channel": 0
                        }, 
                        {
                            "pitch": 64, 
                            "t0": 14400, 
                            "v": 50, 
                            "dur": 1292, 
                            "type": "note", 
                            "channel": 0
                        }
                    ]
                ], 
                [
                    15840, 
                    [
                        {
                            "pitch": 81, 
                            "t0": 15840, 
                            "v": 75, 
                            "dur": 506, 
                            "type": "note", 
                            "channel": 0
                        }
                    ]
                ], 
                [
                    16320, 
                    [
                        {
                            "pitch": 84, 
                            "t0": 16320, 
                            "v": 86, 
                            "dur": 670, 
                            "type": "note", 
                            "channel": 0
                        }
                    ]
                ], 
                [
                    17040, 
                    [
                        {
                            "pitch": 81, 
                            "t0": 17040, 
                            "v": 57, 
                            "dur": 235, 
                            "type": "note", 
                            "channel": 0
                        }
                    ]
                ], 
                [
                    17280, 
                    [
                        {
                            "pitch": 83, 
                            "t0": 17280, 
                            "v": 88, 
                            "dur": 940, 
                            "type": "note", 
                            "channel": 0
                        }
                    ]
                ], 
                [
                    18240, 
                    [
                        {
                            "pitch": 64, 
                            "t0": 18240, 
                            "v": 50, 
                            "dur": 1901, 
                            "type": "note", 
                            "channel": 0
                        }, 
                        {
                            "pitch": 67, 
                            "t0": 18240, 
                            "v": 50, 
                            "dur": 1908, 
                            "type": "note", 
                            "channel": 0
                        }, 
                        {
                            "pitch": 71, 
                            "t0": 18240, 
                            "v": 50, 
                            "dur": 1926, 
                            "type": "note", 
                            "channel": 0
                        }
                    ]
                ], 
                [
                    21120, 
                    [
                        {
                            "pitch": 81, 
                            "t0": 21120, 
                            "v": 67, 
                            "dur": 1135, 
                            "type": "note", 
                            "channel": 0
                        }
                    ]
                ], 
                [
                    22080, 
                    [
                        {
                            "pitch": 65, 
                            "t0": 22080, 
                            "v": 50, 
                            "dur": 1330, 
                            "type": "note", 
                            "channel": 0
                        }, 
                        {
                            "pitch": 69, 
                            "t0": 22080, 
                            "v": 50, 
                            "dur": 1448, 
                            "type": "note", 
                            "channel": 0
                        }, 
                        {
                            "pitch": 60, 
                            "t0": 22080, 
                            "v": 50, 
                            "dur": 1472, 
                            "type": "note", 
                            "channel": 0
                        }
                    ]
                ], 
                [
                    23760, 
                    [
                        {
                            "pitch": 81, 
                            "t0": 23760, 
                            "v": 56, 
                            "dur": 256, 
                            "type": "note", 
                            "channel": 0
                        }
                    ]
                ], 
                [
                    24000, 
                    [
                        {
                            "pitch": 79, 
                            "t0": 24000, 
                            "v": 75, 
                            "dur": 605, 
                            "type": "note", 
                            "channel": 0
                        }
                    ]
                ], 
                [
                    24720, 
                    [
                        {
                            "pitch": 77, 
                            "t0": 24720, 
                            "v": 73, 
                            "dur": 101, 
                            "type": "note", 
                            "channel": 0
                        }
                    ]
                ], 
                [
                    24960, 
                    [
                        {
                            "pitch": 76, 
                            "t0": 24960, 
                            "v": 86, 
                            "dur": 582, 
                            "type": "note", 
                            "channel": 0
                        }
                    ]
                ], 
                [
                    25920, 
                    [
                        {
                            "pitch": 64, 
                            "t0": 25920, 
                            "v": 50, 
                            "dur": 1568, 
                            "type": "note", 
                            "channel": 0
                        }, 
                        {
                            "pitch": 60, 
                            "t0": 25920, 
                            "v": 50, 
                            "dur": 1615, 
                            "type": "note", 
                            "channel": 0
                        }, 
                        {
                            "pitch": 84, 
                            "t0": 25920, 
                            "v": 73, 
                            "dur": 1622, 
                            "type": "note", 
                            "channel": 0
                        }
                    ]
                ], 
                [
                    28800, 
                    [
                        {
                            "pitch": 84, 
                            "t0": 28800, 
                            "v": 91, 
                            "dur": 1185, 
                            "type": "note", 
                            "channel": 0
                        }
                    ]
                ], 
                [
                    29760, 
                    [
                        {
                            "pitch": 65, 
                            "t0": 29760, 
                            "v": 50, 
                            "dur": 1405, 
                            "type": "note", 
                            "channel": 0
                        }, 
                        {
                            "pitch": 72, 
                            "t0": 29760, 
                            "v": 50, 
                            "dur": 1501, 
                            "type": "note", 
                            "channel": 0
                        }, 
                        {
                            "pitch": 69, 
                            "t0": 29760, 
                            "v": 50, 
                            "dur": 1616, 
                            "type": "note", 
                            "channel": 0
                        }
                    ]
                ], 
                [
                    31200, 
                    [
                        {
                            "pitch": 84, 
                            "t0": 31200, 
                            "v": 77, 
                            "dur": 508, 
                            "type": "note", 
                            "channel": 0
                        }
                    ]
                ], 
                [
                    31680, 
                    [
                        {
                            "pitch": 88, 
                            "t0": 31680, 
                            "v": 101, 
                            "dur": 703, 
                            "type": "note", 
                            "channel": 0
                        }
                    ]
                ], 
                [
                    32400, 
                    [
                        {
                            "pitch": 84, 
                            "t0": 32400, 
                            "v": 59, 
                            "dur": 136, 
                            "type": "note", 
                            "channel": 0
                        }
                    ]
                ], 
                [
                    32640, 
                    [
                        {
                            "pitch": 86, 
                            "t0": 32640, 
                            "v": 104, 
                            "dur": 826, 
                            "type": "note", 
                            "channel": 0
                        }
                    ]
                ], 
                [
                    33600, 
                    [
                        {
                            "pitch": 67, 
                            "t0": 33600, 
                            "v": 50, 
                            "dur": 1776, 
                            "type": "note", 
                            "channel": 0
                        }, 
                        {
                            "pitch": 71, 
                            "t0": 33600, 
                            "v": 50, 
                            "dur": 1801, 
                            "type": "note", 
                            "channel": 0
                        }, 
                        {
                            "pitch": 74, 
                            "t0": 33600, 
                            "v": 50, 
                            "dur": 1813, 
                            "type": "note", 
                            "channel": 0
                        }
                    ]
                ], 
                [
                    40320, 
                    [
                        {
                            "pitch": 84, 
                            "t0": 40320, 
                            "v": 88, 
                            "dur": 1590, 
                            "type": "note", 
                            "channel": 0
                        }
                    ]
                ], 
                [
                    41280, 
                    [
                        {
                            "pitch": 64, 
                            "t0": 41280, 
                            "v": 50, 
                            "dur": 1068, 
                            "type": "note", 
                            "channel": 0
                        }, 
                        {
                            "pitch": 72, 
                            "t0": 41280, 
                            "v": 50, 
                            "dur": 1087, 
                            "type": "note", 
                            "channel": 0
                        }, 
                        {
                            "pitch": 69, 
                            "t0": 41280, 
                            "v": 50, 
                            "dur": 1115, 
                            "type": "note", 
                            "channel": 0
                        }
                    ]
                ], 
                [
                    42720, 
                    [
                        {
                            "pitch": 81, 
                            "t0": 42720, 
                            "v": 79, 
                            "dur": 440, 
                            "type": "note", 
                            "channel": 0
                        }
                    ]
                ], 
                [
                    43200, 
                    [
                        {
                            "pitch": 84, 
                            "t0": 43200, 
                            "v": 94, 
                            "dur": 710, 
                            "type": "note", 
                            "channel": 0
                        }
                    ]
                ], 
                [
                    43920, 
                    [
                        {
                            "pitch": 81, 
                            "t0": 43920, 
                            "v": 60, 
                            "dur": 203, 
                            "type": "note", 
                            "channel": 0
                        }
                    ]
                ], 
                [
                    44160, 
                    [
                        {
                            "pitch": 83, 
                            "t0": 44160, 
                            "v": 83, 
                            "dur": 1653, 
                            "type": "note", 
                            "channel": 0
                        }
                    ]
                ], 
                [
                    45120, 
                    [
                        {
                            "pitch": 76, 
                            "t0": 45120, 
                            "v": 71, 
                            "dur": 443, 
                            "type": "note", 
                            "channel": 0
                        }, 
                        {
                            "pitch": 64, 
                            "t0": 45120, 
                            "v": 50, 
                            "dur": 1498, 
                            "type": "note", 
                            "channel": 0
                        }, 
                        {
                            "pitch": 71, 
                            "t0": 45120, 
                            "v": 50, 
                            "dur": 1632, 
                            "type": "note", 
                            "channel": 0
                        }, 
                        {
                            "pitch": 67, 
                            "t0": 45120, 
                            "v": 50, 
                            "dur": 1696, 
                            "type": "note", 
                            "channel": 0
                        }
                    ]
                ], 
                [
                    48000, 
                    [
                        {
                            "pitch": 84, 
                            "t0": 48000, 
                            "v": 94, 
                            "dur": 1118, 
                            "type": "note", 
                            "channel": 0
                        }
                    ]
                ], 
                [
                    48960, 
                    [
                        {
                            "pitch": 69, 
                            "t0": 48960, 
                            "v": 50, 
                            "dur": 1238, 
                            "type": "note", 
                            "channel": 0
                        }, 
                        {
                            "pitch": 72, 
                            "t0": 48960, 
                            "v": 50, 
                            "dur": 1287, 
                            "type": "note", 
                            "channel": 0
                        }, 
                        {
                            "pitch": 64, 
                            "t0": 48960, 
                            "v": 50, 
                            "dur": 1292, 
                            "type": "note", 
                            "channel": 0
                        }
                    ]
                ], 
                [
                    50400, 
                    [
                        {
                            "pitch": 81, 
                            "t0": 50400, 
                            "v": 75, 
                            "dur": 506, 
                            "type": "note", 
                            "channel": 0
                        }
                    ]
                ], 
                [
                    50880, 
                    [
                        {
                            "pitch": 84, 
                            "t0": 50880, 
                            "v": 86, 
                            "dur": 670, 
                            "type": "note", 
                            "channel": 0
                        }
                    ]
                ], 
                [
                    51600, 
                    [
                        {
                            "pitch": 81, 
                            "t0": 51600, 
                            "v": 57, 
                            "dur": 235, 
                            "type": "note", 
                            "channel": 0
                        }
                    ]
                ], 
                [
                    51840, 
                    [
                        {
                            "pitch": 83, 
                            "t0": 51840, 
                            "v": 88, 
                            "dur": 940, 
                            "type": "note", 
                            "channel": 0
                        }
                    ]
                ], 
                [
                    52800, 
                    [
                        {
                            "pitch": 64, 
                            "t0": 52800, 
                            "v": 50, 
                            "dur": 1901, 
                            "type": "note", 
                            "channel": 0
                        }, 
                        {
                            "pitch": 67, 
                            "t0": 52800, 
                            "v": 50, 
                            "dur": 1908, 
                            "type": "note", 
                            "channel": 0
                        }, 
                        {
                            "pitch": 71, 
                            "t0": 52800, 
                            "v": 50, 
                            "dur": 1926, 
                            "type": "note", 
                            "channel": 0
                        }
                    ]
                ], 
                [
                    55680, 
                    [
                        {
                            "pitch": 81, 
                            "t0": 55680, 
                            "v": 67, 
                            "dur": 1135, 
                            "type": "note", 
                            "channel": 0
                        }
                    ]
                ], 
                [
                    56640, 
                    [
                        {
                            "pitch": 65, 
                            "t0": 56640, 
                            "v": 50, 
                            "dur": 1330, 
                            "type": "note", 
                            "channel": 0
                        }, 
                        {
                            "pitch": 69, 
                            "t0": 56640, 
                            "v": 50, 
                            "dur": 1448, 
                            "type": "note", 
                            "channel": 0
                        }, 
                        {
                            "pitch": 60, 
                            "t0": 56640, 
                            "v": 50, 
                            "dur": 1472, 
                            "type": "note", 
                            "channel": 0
                        }
                    ]
                ], 
                [
                    58320, 
                    [
                        {
                            "pitch": 81, 
                            "t0": 58320, 
                            "v": 56, 
                            "dur": 256, 
                            "type": "note", 
                            "channel": 0
                        }
                    ]
                ], 
                [
                    58560, 
                    [
                        {
                            "pitch": 79, 
                            "t0": 58560, 
                            "v": 75, 
                            "dur": 605, 
                            "type": "note", 
                            "channel": 0
                        }
                    ]
                ], 
                [
                    59280, 
                    [
                        {
                            "pitch": 77, 
                            "t0": 59280, 
                            "v": 73, 
                            "dur": 101, 
                            "type": "note", 
                            "channel": 0
                        }
                    ]
                ], 
                [
                    59520, 
                    [
                        {
                            "pitch": 76, 
                            "t0": 59520, 
                            "v": 86, 
                            "dur": 582, 
                            "type": "note", 
                            "channel": 0
                        }
                    ]
                ], 
                [
                    60480, 
                    [
                        {
                            "pitch": 64, 
                            "t0": 60480, 
                            "v": 50, 
                            "dur": 1568, 
                            "type": "note", 
                            "channel": 0
                        }, 
                        {
                            "pitch": 60, 
                            "t0": 60480, 
                            "v": 50, 
                            "dur": 1615, 
                            "type": "note", 
                            "channel": 0
                        }, 
                        {
                            "pitch": 84, 
                            "t0": 60480, 
                            "v": 73, 
                            "dur": 1622, 
                            "type": "note", 
                            "channel": 0
                        }
                    ]
                ], 
                [
                    63360, 
                    [
                        {
                            "pitch": 84, 
                            "t0": 63360, 
                            "v": 91, 
                            "dur": 1185, 
                            "type": "note", 
                            "channel": 0
                        }
                    ]
                ], 
                [
                    64320, 
                    [
                        {
                            "pitch": 65, 
                            "t0": 64320, 
                            "v": 50, 
                            "dur": 1405, 
                            "type": "note", 
                            "channel": 0
                        }, 
                        {
                            "pitch": 72, 
                            "t0": 64320, 
                            "v": 50, 
                            "dur": 1501, 
                            "type": "note", 
                            "channel": 0
                        }, 
                        {
                            "pitch": 69, 
                            "t0": 64320, 
                            "v": 50, 
                            "dur": 1616, 
                            "type": "note", 
                            "channel": 0
                        }
                    ]
                ], 
                [
                    65760, 
                    [
                        {
                            "pitch": 84, 
                            "t0": 65760, 
                            "v": 77, 
                            "dur": 508, 
                            "type": "note", 
                            "channel": 0
                        }
                    ]
                ], 
                [
                    66240, 
                    [
                        {
                            "pitch": 88, 
                            "t0": 66240, 
                            "v": 101, 
                            "dur": 703, 
                            "type": "note", 
                            "channel": 0
                        }
                    ]
                ], 
                [
                    66960, 
                    [
                        {
                            "pitch": 84, 
                            "t0": 66960, 
                            "v": 59, 
                            "dur": 136, 
                            "type": "note", 
                            "channel": 0
                        }
                    ]
                ], 
                [
                    67200, 
                    [
                        {
                            "pitch": 86, 
                            "t0": 67200, 
                            "v": 104, 
                            "dur": 826, 
                            "type": "note", 
                            "channel": 0
                        }
                    ]
                ], 
                [
                    68160, 
                    [
                        {
                            "pitch": 67, 
                            "t0": 68160, 
                            "v": 50, 
                            "dur": 1776, 
                            "type": "note", 
                            "channel": 0
                        }, 
                        {
                            "pitch": 71, 
                            "t0": 68160, 
                            "v": 50, 
                            "dur": 1801, 
                            "type": "note", 
                            "channel": 0
                        }, 
                        {
                            "pitch": 74, 
                            "t0": 68160, 
                            "v": 50, 
                            "dur": 1813, 
                            "type": "note", 
                            "channel": 0
                        }
                    ]
                ], 
                [
                    74880, 
                    [
                        {
                            "pitch": 36, 
                            "t0": 74880, 
                            "v": 82, 
                            "dur": 672, 
                            "type": "note", 
                            "channel": 0
                        }, 
                        {
                            "pitch": 48, 
                            "t0": 74880, 
                            "v": 82, 
                            "dur": 676, 
                            "type": "note", 
                            "channel": 0
                        }, 
                        {
                            "pitch": 60, 
                            "t0": 74880, 
                            "parts": [
                                [
                                    74880, 
                                    111
                                ], 
                                [
                                    75360, 
                                    82
                                ], 
                                [
                                    75863, 
                                    0
                                ]
                            ], 
                            "v": 111, 
                            "dur": 983, 
                            "type": "note", 
                            "channel": 0
                        }
                    ]
                ], 
                [
                    75000, 
                    [
                        {
                            "pitch": 64, 
                            "t0": 75000, 
                            "v": 111, 
                            "dur": 941, 
                            "type": "note", 
                            "channel": 0
                        }
                    ]
                ], 
                [
                    75180, 
                    [
                        {
                            "pitch": 67, 
                            "t0": 75180, 
                            "v": 111, 
                            "dur": 743, 
                            "type": "note", 
                            "channel": 0
                        }
                    ]
                ], 
                [
                    75360, 
                    [
                        {
                            "pitch": 72, 
                            "t0": 75360, 
                            "v": 110, 
                            "dur": 310, 
                            "type": "note", 
                            "channel": 0
                        }
                    ]
                ], 
                [
                    75660, 
                    [
                        {
                            "pitch": 79, 
                            "t0": 75660, 
                            "v": 110, 
                            "dur": 198, 
                            "type": "note", 
                            "channel": 0
                        }
                    ]
                ], 
                [
                    75840, 
                    [
                        {
                            "pitch": 77, 
                            "t0": 75840, 
                            "v": 110, 
                            "dur": 343, 
                            "type": "note", 
                            "channel": 0
                        }, 
                        {
                            "pitch": 48, 
                            "t0": 75840, 
                            "v": 82, 
                            "dur": 563, 
                            "type": "note", 
                            "channel": 0
                        }, 
                        {
                            "pitch": 36, 
                            "t0": 75840, 
                            "v": 82, 
                            "dur": 576, 
                            "type": "note", 
                            "channel": 0
                        }
                    ]
                ], 
                [
                    76140, 
                    [
                        {
                            "pitch": 76, 
                            "t0": 76140, 
                            "v": 110, 
                            "dur": 186, 
                            "type": "note", 
                            "channel": 0
                        }
                    ]
                ], 
                [
                    76320, 
                    [
                        {
                            "pitch": 74, 
                            "t0": 76320, 
                            "v": 110, 
                            "dur": 346, 
                            "type": "note", 
                            "channel": 0
                        }, 
                        {
                            "pitch": 60, 
                            "t0": 76320, 
                            "v": 82, 
                            "dur": 475, 
                            "type": "note", 
                            "channel": 0
                        }
                    ]
                ], 
                [
                    76620, 
                    [
                        {
                            "pitch": 72, 
                            "t0": 76620, 
                            "v": 110, 
                            "dur": 127, 
                            "type": "note", 
                            "channel": 0
                        }
                    ]
                ], 
                [
                    76800, 
                    [
                        {
                            "pitch": 31, 
                            "t0": 76800, 
                            "v": 82, 
                            "dur": 587, 
                            "type": "note", 
                            "channel": 0
                        }, 
                        {
                            "pitch": 43, 
                            "t0": 76800, 
                            "v": 82, 
                            "dur": 591, 
                            "type": "note", 
                            "channel": 0
                        }, 
                        {
                            "pitch": 55, 
                            "t0": 76800, 
                            "parts": [
                                [
                                    76800, 
                                    110
                                ], 
                                [
                                    77280, 
                                    82
                                ], 
                                [
                                    77801, 
                                    0
                                ]
                            ], 
                            "v": 110, 
                            "dur": 1001, 
                            "type": "note", 
                            "channel": 0
                        }
                    ]
                ], 
                [
                    76920, 
                    [
                        {
                            "pitch": 59, 
                            "t0": 76920, 
                            "v": 110, 
                            "dur": 1348, 
                            "type": "note", 
                            "channel": 0
                        }
                    ]
                ], 
                [
                    77100, 
                    [
                        {
                            "pitch": 62, 
                            "t0": 77100, 
                            "v": 110, 
                            "dur": 1170, 
                            "type": "note", 
                            "channel": 0
                        }
                    ]
                ], 
                [
                    77280, 
                    [
                        {
                            "pitch": 67, 
                            "t0": 77280, 
                            "v": 110, 
                            "dur": 331, 
                            "type": "note", 
                            "channel": 0
                        }
                    ]
                ], 
                [
                    77580, 
                    [
                        {
                            "pitch": 74, 
                            "t0": 77580, 
                            "v": 110, 
                            "dur": 206, 
                            "type": "note", 
                            "channel": 0
                        }
                    ]
                ], 
                [
                    77760, 
                    [
                        {
                            "pitch": 72, 
                            "t0": 77760, 
                            "v": 110, 
                            "dur": 490, 
                            "type": "note", 
                            "channel": 0
                        }, 
                        {
                            "pitch": 31, 
                            "t0": 77760, 
                            "v": 82, 
                            "dur": 547, 
                            "type": "note", 
                            "channel": 0
                        }, 
                        {
                            "pitch": 43, 
                            "t0": 77760, 
                            "v": 82, 
                            "dur": 586, 
                            "type": "note", 
                            "channel": 0
                        }
                    ]
                ], 
                [
                    78240, 
                    [
                        {
                            "pitch": 55, 
                            "t0": 78240, 
                            "v": 82, 
                            "dur": 18, 
                            "type": "note", 
                            "channel": 0
                        }, 
                        {
                            "pitch": 71, 
                            "t0": 78240, 
                            "v": 110, 
                            "dur": 143, 
                            "type": "note", 
                            "channel": 0
                        }
                    ]
                ], 
                [
                    78720, 
                    [
                        {
                            "pitch": 33, 
                            "t0": 78720, 
                            "v": 82, 
                            "dur": 605, 
                            "type": "note", 
                            "channel": 0
                        }, 
                        {
                            "pitch": 45, 
                            "t0": 78720, 
                            "v": 82, 
                            "dur": 631, 
                            "type": "note", 
                            "channel": 0
                        }, 
                        {
                            "pitch": 57, 
                            "t0": 78720, 
                            "parts": [
                                [
                                    78720, 
                                    110
                                ], 
                                [
                                    79200, 
                                    82
                                ], 
                                [
                                    79717, 
                                    0
                                ]
                            ], 
                            "v": 110, 
                            "dur": 997, 
                            "type": "note", 
                            "channel": 0
                        }
                    ]
                ], 
                [
                    78840, 
                    [
                        {
                            "pitch": 60, 
                            "t0": 78840, 
                            "v": 110, 
                            "dur": 1373, 
                            "type": "note", 
                            "channel": 0
                        }
                    ]
                ], 
                [
                    79020, 
                    [
                        {
                            "pitch": 64, 
                            "t0": 79020, 
                            "v": 110, 
                            "dur": 1187, 
                            "type": "note", 
                            "channel": 0
                        }
                    ]
                ], 
                [
                    79200, 
                    [
                        {
                            "pitch": 69, 
                            "t0": 79200, 
                            "v": 110, 
                            "dur": 305, 
                            "type": "note", 
                            "channel": 0
                        }
                    ]
                ], 
                [
                    79500, 
                    [
                        {
                            "pitch": 76, 
                            "t0": 79500, 
                            "v": 110, 
                            "dur": 215, 
                            "type": "note", 
                            "channel": 0
                        }
                    ]
                ], 
                [
                    79680, 
                    [
                        {
                            "pitch": 74, 
                            "t0": 79680, 
                            "v": 110, 
                            "dur": 333, 
                            "type": "note", 
                            "channel": 0
                        }, 
                        {
                            "pitch": 33, 
                            "t0": 79680, 
                            "v": 81, 
                            "dur": 576, 
                            "type": "note", 
                            "channel": 0
                        }, 
                        {
                            "pitch": 45, 
                            "t0": 79680, 
                            "v": 81, 
                            "dur": 582, 
                            "type": "note", 
                            "channel": 0
                        }
                    ]
                ], 
                [
                    79980, 
                    [
                        {
                            "pitch": 72, 
                            "t0": 79980, 
                            "v": 110, 
                            "dur": 218, 
                            "type": "note", 
                            "channel": 0
                        }
                    ]
                ], 
                [
                    80160, 
                    [
                        {
                            "pitch": 57, 
                            "t0": 80160, 
                            "v": 81, 
                            "dur": 63, 
                            "type": "note", 
                            "channel": 0
                        }, 
                        {
                            "pitch": 71, 
                            "t0": 80160, 
                            "v": 110, 
                            "dur": 358, 
                            "type": "note", 
                            "channel": 0
                        }
                    ]
                ], 
                [
                    80460, 
                    [
                        {
                            "pitch": 69, 
                            "t0": 80460, 
                            "v": 110, 
                            "dur": 140, 
                            "type": "note", 
                            "channel": 0
                        }
                    ]
                ], 
                [
                    80640, 
                    [
                        {
                            "pitch": 40, 
                            "t0": 80640, 
                            "v": 81, 
                            "dur": 581, 
                            "type": "note", 
                            "channel": 0
                        }, 
                        {
                            "pitch": 28, 
                            "t0": 80640, 
                            "v": 81, 
                            "dur": 582, 
                            "type": "note", 
                            "channel": 0
                        }, 
                        {
                            "pitch": 52, 
                            "t0": 80640, 
                            "parts": [
                                [
                                    80640, 
                                    110
                                ], 
                                [
                                    81120, 
                                    81
                                ], 
                                [
                                    81680, 
                                    0
                                ]
                            ], 
                            "v": 110, 
                            "dur": 1040, 
                            "type": "note", 
                            "channel": 0
                        }
                    ]
                ], 
                [
                    80760, 
                    [
                        {
                            "pitch": 55, 
                            "t0": 80760, 
                            "v": 110, 
                            "dur": 1213, 
                            "type": "note", 
                            "channel": 0
                        }
                    ]
                ], 
                [
                    80940, 
                    [
                        {
                            "pitch": 59, 
                            "t0": 80940, 
                            "v": 110, 
                            "dur": 995, 
                            "type": "note", 
                            "channel": 0
                        }
                    ]
                ], 
                [
                    81120, 
                    [
                        {
                            "pitch": 64, 
                            "t0": 81120, 
                            "v": 110, 
                            "dur": 292, 
                            "type": "note", 
                            "channel": 0
                        }
                    ]
                ], 
                [
                    81420, 
                    [
                        {
                            "pitch": 71, 
                            "t0": 81420, 
                            "v": 110, 
                            "dur": 218, 
                            "type": "note", 
                            "channel": 0
                        }
                    ]
                ], 
                [
                    81600, 
                    [
                        {
                            "pitch": 69, 
                            "t0": 81600, 
                            "v": 110, 
                            "dur": 480, 
                            "type": "note", 
                            "channel": 0
                        }, 
                        {
                            "pitch": 28, 
                            "t0": 81600, 
                            "v": 81, 
                            "dur": 567, 
                            "type": "note", 
                            "channel": 0
                        }, 
                        {
                            "pitch": 40, 
                            "t0": 81600, 
                            "v": 81, 
                            "dur": 590, 
                            "type": "note", 
                            "channel": 0
                        }
                    ]
                ], 
                [
                    82080, 
                    [
                        {
                            "pitch": 67, 
                            "t0": 82080, 
                            "v": 110, 
                            "dur": 101, 
                            "type": "note", 
                            "channel": 0
                        }, 
                        {
                            "pitch": 52, 
                            "t0": 82080, 
                            "v": 81, 
                            "dur": 523, 
                            "type": "note", 
                            "channel": 0
                        }
                    ]
                ], 
                [
                    82560, 
                    [
                        {
                            "pitch": 69, 
                            "t0": 82560, 
                            "v": 110, 
                            "dur": 140, 
                            "type": "note", 
                            "channel": 0
                        }, 
                        {
                            "pitch": 29, 
                            "t0": 82560, 
                            "v": 81, 
                            "dur": 537, 
                            "type": "note", 
                            "channel": 0
                        }, 
                        {
                            "pitch": 41, 
                            "t0": 82560, 
                            "v": 81, 
                            "dur": 577, 
                            "type": "note", 
                            "channel": 0
                        }, 
                        {
                            "pitch": 53, 
                            "t0": 82560, 
                            "parts": [
                                [
                                    82560, 
                                    110
                                ], 
                                [
                                    83040, 
                                    81
                                ], 
                                [
                                    83263, 
                                    0
                                ]
                            ], 
                            "v": 110, 
                            "dur": 703, 
                            "type": "note", 
                            "channel": 0
                        }
                    ]
                ], 
                [
                    82680, 
                    [
                        {
                            "pitch": 57, 
                            "t0": 82680, 
                            "v": 110, 
                            "dur": 642, 
                            "type": "note", 
                            "channel": 0
                        }
                    ]
                ], 
                [
                    82860, 
                    [
                        {
                            "pitch": 60, 
                            "t0": 82860, 
                            "v": 110, 
                            "dur": 417, 
                            "type": "note", 
                            "channel": 0
                        }
                    ]
                ], 
                [
                    83040, 
                    [
                        {
                            "pitch": 69, 
                            "t0": 83040, 
                            "v": 110, 
                            "dur": 133, 
                            "type": "note", 
                            "channel": 0
                        }
                    ]
                ], 
                [
                    83220, 
                    [
                        {
                            "pitch": 71, 
                            "t0": 83220, 
                            "v": 110, 
                            "dur": 147, 
                            "type": "note", 
                            "channel": 0
                        }
                    ]
                ], 
                [
                    83340, 
                    [
                        {
                            "pitch": 72, 
                            "t0": 83340, 
                            "v": 110, 
                            "dur": 221, 
                            "type": "note", 
                            "channel": 0
                        }
                    ]
                ], 
                [
                    83520, 
                    [
                        {
                            "pitch": 71, 
                            "t0": 83520, 
                            "v": 110, 
                            "dur": 140, 
                            "type": "note", 
                            "channel": 0
                        }, 
                        {
                            "pitch": 31, 
                            "t0": 83520, 
                            "v": 81, 
                            "dur": 582, 
                            "type": "note", 
                            "channel": 0
                        }, 
                        {
                            "pitch": 43, 
                            "t0": 83520, 
                            "v": 81, 
                            "dur": 597, 
                            "type": "note", 
                            "channel": 0
                        }, 
                        {
                            "pitch": 55, 
                            "t0": 83520, 
                            "parts": [
                                [
                                    83520, 
                                    110
                                ], 
                                [
                                    84000, 
                                    81
                                ], 
                                [
                                    84170, 
                                    0
                                ]
                            ], 
                            "v": 110, 
                            "dur": 650, 
                            "type": "note", 
                            "channel": 0
                        }
                    ]
                ], 
                [
                    83700, 
                    [
                        {
                            "pitch": 59, 
                            "t0": 83700, 
                            "v": 110, 
                            "dur": 566, 
                            "type": "note", 
                            "channel": 0
                        }
                    ]
                ], 
                [
                    83820, 
                    [
                        {
                            "pitch": 62, 
                            "t0": 83820, 
                            "v": 110, 
                            "dur": 343, 
                            "type": "note", 
                            "channel": 0
                        }
                    ]
                ], 
                [
                    84000, 
                    [
                        {
                            "pitch": 71, 
                            "t0": 84000, 
                            "v": 110, 
                            "dur": 152, 
                            "type": "note", 
                            "channel": 0
                        }
                    ]
                ], 
                [
                    84180, 
                    [
                        {
                            "pitch": 69, 
                            "t0": 84180, 
                            "v": 110, 
                            "dur": 198, 
                            "type": "note", 
                            "channel": 0
                        }
                    ]
                ], 
                [
                    84300, 
                    [
                        {
                            "pitch": 67, 
                            "t0": 84300, 
                            "v": 110, 
                            "dur": 160, 
                            "type": "note", 
                            "channel": 0
                        }
                    ]
                ], 
                [
                    84480, 
                    [
                        {
                            "pitch": 69, 
                            "t0": 84480, 
                            "v": 110, 
                            "dur": 212, 
                            "type": "note", 
                            "channel": 0
                        }, 
                        {
                            "pitch": 33, 
                            "t0": 84480, 
                            "v": 81, 
                            "dur": 597, 
                            "type": "note", 
                            "channel": 0
                        }, 
                        {
                            "pitch": 45, 
                            "t0": 84480, 
                            "v": 81, 
                            "dur": 632, 
                            "type": "note", 
                            "channel": 0
                        }, 
                        {
                            "pitch": 57, 
                            "t0": 84480, 
                            "parts": [
                                [
                                    84480, 
                                    110
                                ], 
                                [
                                    84960, 
                                    81
                                ], 
                                [
                                    85475, 
                                    0
                                ]
                            ], 
                            "v": 110, 
                            "dur": 995, 
                            "type": "note", 
                            "channel": 0
                        }
                    ]
                ], 
                [
                    84600, 
                    [
                        {
                            "pitch": 60, 
                            "t0": 84600, 
                            "v": 110, 
                            "dur": 1253, 
                            "type": "note", 
                            "channel": 0
                        }
                    ]
                ], 
                [
                    84780, 
                    [
                        {
                            "pitch": 64, 
                            "t0": 84780, 
                            "v": 110, 
                            "dur": 1073, 
                            "type": "note", 
                            "channel": 0
                        }
                    ]
                ], 
                [
                    84960, 
                    [
                        {
                            "pitch": 69, 
                            "t0": 84960, 
                            "v": 110, 
                            "dur": 288, 
                            "type": "note", 
                            "channel": 0
                        }
                    ]
                ], 
                [
                    85260, 
                    [
                        {
                            "pitch": 67, 
                            "t0": 85260, 
                            "v": 110, 
                            "dur": 127, 
                            "type": "note", 
                            "channel": 0
                        }
                    ]
                ], 
                [
                    85440, 
                    [
                        {
                            "pitch": 69, 
                            "t0": 85440, 
                            "v": 110, 
                            "dur": 400, 
                            "type": "note", 
                            "channel": 0
                        }, 
                        {
                            "pitch": 33, 
                            "t0": 85440, 
                            "v": 81, 
                            "dur": 712, 
                            "type": "note", 
                            "channel": 0
                        }, 
                        {
                            "pitch": 45, 
                            "t0": 85440, 
                            "v": 81, 
                            "dur": 756, 
                            "type": "note", 
                            "channel": 0
                        }
                    ]
                ], 
                [
                    86400, 
                    [
                        {
                            "pitch": 79, 
                            "t0": 86400, 
                            "v": 110, 
                            "dur": 151, 
                            "type": "note", 
                            "channel": 0
                        }, 
                        {
                            "pitch": 60, 
                            "t0": 86400, 
                            "parts": [
                                [
                                    86400, 
                                    110
                                ], 
                                [
                                    86880, 
                                    81
                                ], 
                                [
                                    86961, 
                                    0
                                ]
                            ], 
                            "v": 110, 
                            "dur": 561, 
                            "type": "note", 
                            "channel": 0
                        }, 
                        {
                            "pitch": 36, 
                            "t0": 86400, 
                            "v": 81, 
                            "dur": 591, 
                            "type": "note", 
                            "channel": 0
                        }, 
                        {
                            "pitch": 48, 
                            "t0": 86400, 
                            "v": 81, 
                            "dur": 596, 
                            "type": "note", 
                            "channel": 0
                        }
                    ]
                ], 
                [
                    86520, 
                    [
                        {
                            "pitch": 64, 
                            "t0": 86520, 
                            "v": 110, 
                            "dur": 403, 
                            "type": "note", 
                            "channel": 0
                        }
                    ]
                ], 
                [
                    86700, 
                    [
                        {
                            "pitch": 67, 
                            "t0": 86700, 
                            "v": 110, 
                            "dur": 251, 
                            "type": "note", 
                            "channel": 0
                        }
                    ]
                ], 
                [
                    86880, 
                    [
                        {
                            "pitch": 79, 
                            "t0": 86880, 
                            "v": 110, 
                            "dur": 157, 
                            "type": "note", 
                            "channel": 0
                        }
                    ]
                ], 
                [
                    87000, 
                    [
                        {
                            "pitch": 77, 
                            "t0": 87000, 
                            "v": 110, 
                            "dur": 147, 
                            "type": "note", 
                            "channel": 0
                        }
                    ]
                ], 
                [
                    87180, 
                    [
                        {
                            "pitch": 76, 
                            "t0": 87180, 
                            "v": 110, 
                            "dur": 218, 
                            "type": "note", 
                            "channel": 0
                        }
                    ]
                ], 
                [
                    87360, 
                    [
                        {
                            "pitch": 74, 
                            "t0": 87360, 
                            "v": 110, 
                            "dur": 122, 
                            "type": "note", 
                            "channel": 0
                        }, 
                        {
                            "pitch": 31, 
                            "t0": 87360, 
                            "v": 81, 
                            "dur": 623, 
                            "type": "note", 
                            "channel": 0
                        }, 
                        {
                            "pitch": 43, 
                            "t0": 87360, 
                            "v": 81, 
                            "dur": 636, 
                            "type": "note", 
                            "channel": 0
                        }, 
                        {
                            "pitch": 55, 
                            "t0": 87360, 
                            "parts": [
                                [
                                    87360, 
                                    110
                                ], 
                                [
                                    87840, 
                                    81
                                ], 
                                [
                                    88057, 
                                    0
                                ]
                            ], 
                            "v": 110, 
                            "dur": 697, 
                            "type": "note", 
                            "channel": 0
                        }
                    ]
                ], 
                [
                    87480, 
                    [
                        {
                            "pitch": 59, 
                            "t0": 87480, 
                            "v": 110, 
                            "dur": 582, 
                            "type": "note", 
                            "channel": 0
                        }
                    ]
                ], 
                [
                    87660, 
                    [
                        {
                            "pitch": 62, 
                            "t0": 87660, 
                            "v": 110, 
                            "dur": 427, 
                            "type": "note", 
                            "channel": 0
                        }
                    ]
                ], 
                [
                    87840, 
                    [
                        {
                            "pitch": 67, 
                            "t0": 87840, 
                            "v": 110, 
                            "dur": 245, 
                            "type": "note", 
                            "channel": 0
                        }
                    ]
                ], 
                [
                    88320, 
                    [
                        {
                            "pitch": 76, 
                            "t0": 88320, 
                            "v": 110, 
                            "dur": 142, 
                            "type": "note", 
                            "channel": 0
                        }, 
                        {
                            "pitch": 45, 
                            "t0": 88320, 
                            "v": 81, 
                            "dur": 581, 
                            "type": "note", 
                            "channel": 0
                        }, 
                        {
                            "pitch": 57, 
                            "t0": 88320, 
                            "parts": [
                                [
                                    88320, 
                                    110
                                ], 
                                [
                                    88800, 
                                    81
                                ], 
                                [
                                    88902, 
                                    0
                                ]
                            ], 
                            "v": 110, 
                            "dur": 582, 
                            "type": "note", 
                            "channel": 0
                        }, 
                        {
                            "pitch": 33, 
                            "t0": 88320, 
                            "v": 81, 
                            "dur": 608, 
                            "type": "note", 
                            "channel": 0
                        }
                    ]
                ], 
                [
                    88440, 
                    [
                        {
                            "pitch": 60, 
                            "t0": 88440, 
                            "v": 110, 
                            "dur": 486, 
                            "type": "note", 
                            "channel": 0
                        }
                    ]
                ], 
                [
                    88620, 
                    [
                        {
                            "pitch": 64, 
                            "t0": 88620, 
                            "v": 110, 
                            "dur": 262, 
                            "type": "note", 
                            "channel": 0
                        }
                    ]
                ], 
                [
                    88800, 
                    [
                        {
                            "pitch": 76, 
                            "t0": 88800, 
                            "v": 110, 
                            "dur": 176, 
                            "type": "note", 
                            "channel": 0
                        }
                    ]
                ], 
                [
                    88980, 
                    [
                        {
                            "pitch": 74, 
                            "t0": 88980, 
                            "v": 110, 
                            "dur": 147, 
                            "type": "note", 
                            "channel": 0
                        }
                    ]
                ], 
                [
                    89100, 
                    [
                        {
                            "pitch": 72, 
                            "t0": 89100, 
                            "v": 110, 
                            "dur": 201, 
                            "type": "note", 
                            "channel": 0
                        }
                    ]
                ], 
                [
                    89280, 
                    [
                        {
                            "pitch": 71, 
                            "t0": 89280, 
                            "v": 110, 
                            "dur": 131, 
                            "type": "note", 
                            "channel": 0
                        }, 
                        {
                            "pitch": 28, 
                            "t0": 89280, 
                            "v": 81, 
                            "dur": 631, 
                            "type": "note", 
                            "channel": 0
                        }, 
                        {
                            "pitch": 40, 
                            "t0": 89280, 
                            "v": 81, 
                            "dur": 642, 
                            "type": "note", 
                            "channel": 0
                        }, 
                        {
                            "pitch": 52, 
                            "t0": 89280, 
                            "parts": [
                                [
                                    89280, 
                                    110
                                ], 
                                [
                                    89760, 
                                    81
                                ], 
                                [
                                    89971, 
                                    0
                                ]
                            ], 
                            "v": 110, 
                            "dur": 691, 
                            "type": "note", 
                            "channel": 0
                        }
                    ]
                ], 
                [
                    89400, 
                    [
                        {
                            "pitch": 55, 
                            "t0": 89400, 
                            "v": 110, 
                            "dur": 580, 
                            "type": "note", 
                            "channel": 0
                        }
                    ]
                ], 
                [
                    89520, 
                    [
                        {
                            "pitch": 59, 
                            "t0": 89520, 
                            "v": 110, 
                            "dur": 442, 
                            "type": "note", 
                            "channel": 0
                        }
                    ]
                ], 
                [
                    89760, 
                    [
                        {
                            "pitch": 64, 
                            "t0": 89760, 
                            "v": 110, 
                            "dur": 186, 
                            "type": "note", 
                            "channel": 0
                        }
                    ]
                ], 
                [
                    90240, 
                    [
                        {
                            "pitch": 69, 
                            "t0": 90240, 
                            "v": 110, 
                            "dur": 161, 
                            "type": "note", 
                            "channel": 0
                        }, 
                        {
                            "pitch": 53, 
                            "t0": 90240, 
                            "v": 110, 
                            "dur": 460, 
                            "type": "note", 
                            "channel": 0
                        }, 
                        {
                            "pitch": 29, 
                            "t0": 90240, 
                            "v": 81, 
                            "dur": 571, 
                            "type": "note", 
                            "channel": 0
                        }, 
                        {
                            "pitch": 41, 
                            "t0": 90240, 
                            "v": 81, 
                            "dur": 608, 
                            "type": "note", 
                            "channel": 0
                        }
                    ]
                ], 
                [
                    90360, 
                    [
                        {
                            "pitch": 57, 
                            "t0": 90360, 
                            "v": 110, 
                            "dur": 385, 
                            "type": "note", 
                            "channel": 0
                        }
                    ]
                ], 
                [
                    90540, 
                    [
                        {
                            "pitch": 60, 
                            "t0": 90540, 
                            "v": 110, 
                            "dur": 190, 
                            "type": "note", 
                            "channel": 0
                        }
                    ]
                ], 
                [
                    90720, 
                    [
                        {
                            "pitch": 69, 
                            "t0": 90720, 
                            "v": 110, 
                            "dur": 160, 
                            "type": "note", 
                            "channel": 0
                        }, 
                        {
                            "pitch": 53, 
                            "t0": 90720, 
                            "v": 81, 
                            "dur": 486, 
                            "type": "note", 
                            "channel": 0
                        }
                    ]
                ], 
                [
                    90900, 
                    [
                        {
                            "pitch": 71, 
                            "t0": 90900, 
                            "v": 110, 
                            "dur": 147, 
                            "type": "note", 
                            "channel": 0
                        }
                    ]
                ], 
                [
                    91020, 
                    [
                        {
                            "pitch": 72, 
                            "t0": 91020, 
                            "v": 110, 
                            "dur": 241, 
                            "type": "note", 
                            "channel": 0
                        }
                    ]
                ], 
                [
                    91200, 
                    [
                        {
                            "pitch": 71, 
                            "t0": 91200, 
                            "v": 110, 
                            "dur": 117, 
                            "type": "note", 
                            "channel": 0
                        }, 
                        {
                            "pitch": 55, 
                            "t0": 91200, 
                            "parts": [
                                [
                                    91200, 
                                    110
                                ], 
                                [
                                    91680, 
                                    81
                                ], 
                                [
                                    91721, 
                                    0
                                ]
                            ], 
                            "v": 110, 
                            "dur": 521, 
                            "type": "note", 
                            "channel": 0
                        }, 
                        {
                            "pitch": 31, 
                            "t0": 91200, 
                            "v": 81, 
                            "dur": 616, 
                            "type": "note", 
                            "channel": 0
                        }, 
                        {
                            "pitch": 43, 
                            "t0": 91200, 
                            "v": 81, 
                            "dur": 647, 
                            "type": "note", 
                            "channel": 0
                        }
                    ]
                ], 
                [
                    91320, 
                    [
                        {
                            "pitch": 59, 
                            "t0": 91320, 
                            "v": 110, 
                            "dur": 482, 
                            "type": "note", 
                            "channel": 0
                        }
                    ]
                ], 
                [
                    91500, 
                    [
                        {
                            "pitch": 62, 
                            "t0": 91500, 
                            "v": 110, 
                            "dur": 236, 
                            "type": "note", 
                            "channel": 0
                        }
                    ]
                ], 
                [
                    91680, 
                    [
                        {
                            "pitch": 71, 
                            "t0": 91680, 
                            "v": 110, 
                            "dur": 152, 
                            "type": "note", 
                            "channel": 0
                        }
                    ]
                ], 
                [
                    91860, 
                    [
                        {
                            "pitch": 69, 
                            "t0": 91860, 
                            "v": 110, 
                            "dur": 135, 
                            "type": "note", 
                            "channel": 0
                        }
                    ]
                ], 
                [
                    91980, 
                    [
                        {
                            "pitch": 67, 
                            "t0": 91980, 
                            "v": 110, 
                            "dur": 133, 
                            "type": "note", 
                            "channel": 0
                        }
                    ]
                ], 
                [
                    92160, 
                    [
                        {
                            "pitch": 69, 
                            "t0": 92160, 
                            "v": 110, 
                            "dur": 343, 
                            "type": "note", 
                            "channel": 0
                        }, 
                        {
                            "pitch": 33, 
                            "t0": 92160, 
                            "v": 81, 
                            "dur": 548, 
                            "type": "note", 
                            "channel": 0
                        }, 
                        {
                            "pitch": 45, 
                            "t0": 92160, 
                            "v": 81, 
                            "dur": 567, 
                            "type": "note", 
                            "channel": 0
                        }, 
                        {
                            "pitch": 57, 
                            "t0": 92160, 
                            "parts": [
                                [
                                    92160, 
                                    110
                                ], 
                                [
                                    92640, 
                                    81
                                ], 
                                [
                                    93123, 
                                    0
                                ]
                            ], 
                            "v": 110, 
                            "dur": 963, 
                            "type": "note", 
                            "channel": 0
                        }
                    ]
                ], 
                [
                    92280, 
                    [
                        {
                            "pitch": 60, 
                            "t0": 92280, 
                            "v": 110, 
                            "dur": 1152, 
                            "type": "note", 
                            "channel": 0
                        }
                    ]
                ], 
                [
                    92460, 
                    [
                        {
                            "pitch": 64, 
                            "t0": 92460, 
                            "v": 109, 
                            "dur": 895, 
                            "type": "note", 
                            "channel": 0
                        }
                    ]
                ], 
                [
                    92640, 
                    [
                        {
                            "pitch": 69, 
                            "t0": 92640, 
                            "v": 109, 
                            "dur": 273, 
                            "type": "note", 
                            "channel": 0
                        }
                    ]
                ], 
                [
                    92940, 
                    [
                        {
                            "pitch": 67, 
                            "t0": 92940, 
                            "v": 109, 
                            "dur": 150, 
                            "type": "note", 
                            "channel": 0
                        }
                    ]
                ], 
                [
                    93120, 
                    [
                        {
                            "pitch": 69, 
                            "t0": 93120, 
                            "v": 109, 
                            "dur": 226, 
                            "type": "note", 
                            "channel": 0
                        }, 
                        {
                            "pitch": 33, 
                            "t0": 93120, 
                            "v": 81, 
                            "dur": 927, 
                            "type": "note", 
                            "channel": 0
                        }, 
                        {
                            "pitch": 45, 
                            "t0": 93120, 
                            "v": 81, 
                            "dur": 950, 
                            "type": "note", 
                            "channel": 0
                        }
                    ]
                ], 
                [
                    94080, 
                    [
                        {
                            "pitch": 36, 
                            "t0": 94080, 
                            "v": 82, 
                            "dur": 672, 
                            "type": "note", 
                            "channel": 0
                        }, 
                        {
                            "pitch": 48, 
                            "t0": 94080, 
                            "v": 82, 
                            "dur": 676, 
                            "type": "note", 
                            "channel": 0
                        }, 
                        {
                            "pitch": 60, 
                            "t0": 94080, 
                            "parts": [
                                [
                                    94080, 
                                    111
                                ], 
                                [
                                    94560, 
                                    82
                                ], 
                                [
                                    95063, 
                                    0
                                ]
                            ], 
                            "v": 111, 
                            "dur": 983, 
                            "type": "note", 
                            "channel": 0
                        }
                    ]
                ], 
                [
                    94200, 
                    [
                        {
                            "pitch": 64, 
                            "t0": 94200, 
                            "v": 111, 
                            "dur": 941, 
                            "type": "note", 
                            "channel": 0
                        }
                    ]
                ], 
                [
                    94380, 
                    [
                        {
                            "pitch": 67, 
                            "t0": 94380, 
                            "v": 111, 
                            "dur": 743, 
                            "type": "note", 
                            "channel": 0
                        }
                    ]
                ], 
                [
                    94560, 
                    [
                        {
                            "pitch": 72, 
                            "t0": 94560, 
                            "v": 110, 
                            "dur": 310, 
                            "type": "note", 
                            "channel": 0
                        }
                    ]
                ], 
                [
                    94860, 
                    [
                        {
                            "pitch": 79, 
                            "t0": 94860, 
                            "v": 110, 
                            "dur": 198, 
                            "type": "note", 
                            "channel": 0
                        }
                    ]
                ], 
                [
                    95040, 
                    [
                        {
                            "pitch": 77, 
                            "t0": 95040, 
                            "v": 110, 
                            "dur": 343, 
                            "type": "note", 
                            "channel": 0
                        }, 
                        {
                            "pitch": 48, 
                            "t0": 95040, 
                            "v": 82, 
                            "dur": 563, 
                            "type": "note", 
                            "channel": 0
                        }, 
                        {
                            "pitch": 36, 
                            "t0": 95040, 
                            "v": 82, 
                            "dur": 576, 
                            "type": "note", 
                            "channel": 0
                        }
                    ]
                ], 
                [
                    95340, 
                    [
                        {
                            "pitch": 76, 
                            "t0": 95340, 
                            "v": 110, 
                            "dur": 186, 
                            "type": "note", 
                            "channel": 0
                        }
                    ]
                ], 
                [
                    95520, 
                    [
                        {
                            "pitch": 74, 
                            "t0": 95520, 
                            "v": 110, 
                            "dur": 346, 
                            "type": "note", 
                            "channel": 0
                        }, 
                        {
                            "pitch": 60, 
                            "t0": 95520, 
                            "v": 82, 
                            "dur": 475, 
                            "type": "note", 
                            "channel": 0
                        }
                    ]
                ], 
                [
                    95820, 
                    [
                        {
                            "pitch": 72, 
                            "t0": 95820, 
                            "v": 110, 
                            "dur": 127, 
                            "type": "note", 
                            "channel": 0
                        }
                    ]
                ], 
                [
                    96000, 
                    [
                        {
                            "pitch": 31, 
                            "t0": 96000, 
                            "v": 82, 
                            "dur": 587, 
                            "type": "note", 
                            "channel": 0
                        }, 
                        {
                            "pitch": 43, 
                            "t0": 96000, 
                            "v": 82, 
                            "dur": 591, 
                            "type": "note", 
                            "channel": 0
                        }, 
                        {
                            "pitch": 55, 
                            "t0": 96000, 
                            "parts": [
                                [
                                    96000, 
                                    110
                                ], 
                                [
                                    96480, 
                                    82
                                ], 
                                [
                                    97001, 
                                    0
                                ]
                            ], 
                            "v": 110, 
                            "dur": 1001, 
                            "type": "note", 
                            "channel": 0
                        }
                    ]
                ], 
                [
                    96120, 
                    [
                        {
                            "pitch": 59, 
                            "t0": 96120, 
                            "v": 110, 
                            "dur": 1348, 
                            "type": "note", 
                            "channel": 0
                        }
                    ]
                ], 
                [
                    96300, 
                    [
                        {
                            "pitch": 62, 
                            "t0": 96300, 
                            "v": 110, 
                            "dur": 1170, 
                            "type": "note", 
                            "channel": 0
                        }
                    ]
                ], 
                [
                    96480, 
                    [
                        {
                            "pitch": 67, 
                            "t0": 96480, 
                            "v": 110, 
                            "dur": 331, 
                            "type": "note", 
                            "channel": 0
                        }
                    ]
                ], 
                [
                    96780, 
                    [
                        {
                            "pitch": 74, 
                            "t0": 96780, 
                            "v": 110, 
                            "dur": 206, 
                            "type": "note", 
                            "channel": 0
                        }
                    ]
                ], 
                [
                    96960, 
                    [
                        {
                            "pitch": 72, 
                            "t0": 96960, 
                            "v": 110, 
                            "dur": 490, 
                            "type": "note", 
                            "channel": 0
                        }, 
                        {
                            "pitch": 31, 
                            "t0": 96960, 
                            "v": 82, 
                            "dur": 547, 
                            "type": "note", 
                            "channel": 0
                        }, 
                        {
                            "pitch": 43, 
                            "t0": 96960, 
                            "v": 82, 
                            "dur": 586, 
                            "type": "note", 
                            "channel": 0
                        }
                    ]
                ], 
                [
                    97440, 
                    [
                        {
                            "pitch": 55, 
                            "t0": 97440, 
                            "v": 82, 
                            "dur": 18, 
                            "type": "note", 
                            "channel": 0
                        }, 
                        {
                            "pitch": 71, 
                            "t0": 97440, 
                            "v": 110, 
                            "dur": 143, 
                            "type": "note", 
                            "channel": 0
                        }
                    ]
                ], 
                [
                    97920, 
                    [
                        {
                            "pitch": 33, 
                            "t0": 97920, 
                            "v": 82, 
                            "dur": 605, 
                            "type": "note", 
                            "channel": 0
                        }, 
                        {
                            "pitch": 45, 
                            "t0": 97920, 
                            "v": 82, 
                            "dur": 631, 
                            "type": "note", 
                            "channel": 0
                        }, 
                        {
                            "pitch": 57, 
                            "t0": 97920, 
                            "parts": [
                                [
                                    97920, 
                                    110
                                ], 
                                [
                                    98400, 
                                    82
                                ], 
                                [
                                    98917, 
                                    0
                                ]
                            ], 
                            "v": 110, 
                            "dur": 997, 
                            "type": "note", 
                            "channel": 0
                        }
                    ]
                ], 
                [
                    98040, 
                    [
                        {
                            "pitch": 60, 
                            "t0": 98040, 
                            "v": 110, 
                            "dur": 1373, 
                            "type": "note", 
                            "channel": 0
                        }
                    ]
                ], 
                [
                    98220, 
                    [
                        {
                            "pitch": 64, 
                            "t0": 98220, 
                            "v": 110, 
                            "dur": 1187, 
                            "type": "note", 
                            "channel": 0
                        }
                    ]
                ], 
                [
                    98400, 
                    [
                        {
                            "pitch": 69, 
                            "t0": 98400, 
                            "v": 110, 
                            "dur": 305, 
                            "type": "note", 
                            "channel": 0
                        }
                    ]
                ], 
                [
                    98700, 
                    [
                        {
                            "pitch": 76, 
                            "t0": 98700, 
                            "v": 110, 
                            "dur": 215, 
                            "type": "note", 
                            "channel": 0
                        }
                    ]
                ], 
                [
                    98880, 
                    [
                        {
                            "pitch": 74, 
                            "t0": 98880, 
                            "v": 110, 
                            "dur": 333, 
                            "type": "note", 
                            "channel": 0
                        }, 
                        {
                            "pitch": 33, 
                            "t0": 98880, 
                            "v": 81, 
                            "dur": 576, 
                            "type": "note", 
                            "channel": 0
                        }, 
                        {
                            "pitch": 45, 
                            "t0": 98880, 
                            "v": 81, 
                            "dur": 582, 
                            "type": "note", 
                            "channel": 0
                        }
                    ]
                ], 
                [
                    99180, 
                    [
                        {
                            "pitch": 72, 
                            "t0": 99180, 
                            "v": 110, 
                            "dur": 218, 
                            "type": "note", 
                            "channel": 0
                        }
                    ]
                ], 
                [
                    99360, 
                    [
                        {
                            "pitch": 57, 
                            "t0": 99360, 
                            "v": 81, 
                            "dur": 63, 
                            "type": "note", 
                            "channel": 0
                        }, 
                        {
                            "pitch": 71, 
                            "t0": 99360, 
                            "v": 110, 
                            "dur": 358, 
                            "type": "note", 
                            "channel": 0
                        }
                    ]
                ], 
                [
                    99660, 
                    [
                        {
                            "pitch": 69, 
                            "t0": 99660, 
                            "v": 110, 
                            "dur": 140, 
                            "type": "note", 
                            "channel": 0
                        }
                    ]
                ], 
                [
                    99840, 
                    [
                        {
                            "pitch": 40, 
                            "t0": 99840, 
                            "v": 81, 
                            "dur": 581, 
                            "type": "note", 
                            "channel": 0
                        }, 
                        {
                            "pitch": 28, 
                            "t0": 99840, 
                            "v": 81, 
                            "dur": 582, 
                            "type": "note", 
                            "channel": 0
                        }, 
                        {
                            "pitch": 52, 
                            "t0": 99840, 
                            "parts": [
                                [
                                    99840, 
                                    110
                                ], 
                                [
                                    100320, 
                                    81
                                ], 
                                [
                                    100880, 
                                    0
                                ]
                            ], 
                            "v": 110, 
                            "dur": 1040, 
                            "type": "note", 
                            "channel": 0
                        }
                    ]
                ], 
                [
                    99960, 
                    [
                        {
                            "pitch": 55, 
                            "t0": 99960, 
                            "v": 110, 
                            "dur": 1213, 
                            "type": "note", 
                            "channel": 0
                        }
                    ]
                ], 
                [
                    100140, 
                    [
                        {
                            "pitch": 59, 
                            "t0": 100140, 
                            "v": 110, 
                            "dur": 995, 
                            "type": "note", 
                            "channel": 0
                        }
                    ]
                ], 
                [
                    100320, 
                    [
                        {
                            "pitch": 64, 
                            "t0": 100320, 
                            "v": 110, 
                            "dur": 292, 
                            "type": "note", 
                            "channel": 0
                        }
                    ]
                ], 
                [
                    100620, 
                    [
                        {
                            "pitch": 71, 
                            "t0": 100620, 
                            "v": 110, 
                            "dur": 218, 
                            "type": "note", 
                            "channel": 0
                        }
                    ]
                ], 
                [
                    100800, 
                    [
                        {
                            "pitch": 69, 
                            "t0": 100800, 
                            "v": 110, 
                            "dur": 480, 
                            "type": "note", 
                            "channel": 0
                        }, 
                        {
                            "pitch": 28, 
                            "t0": 100800, 
                            "v": 81, 
                            "dur": 567, 
                            "type": "note", 
                            "channel": 0
                        }, 
                        {
                            "pitch": 40, 
                            "t0": 100800, 
                            "v": 81, 
                            "dur": 590, 
                            "type": "note", 
                            "channel": 0
                        }
                    ]
                ], 
                [
                    101280, 
                    [
                        {
                            "pitch": 67, 
                            "t0": 101280, 
                            "v": 110, 
                            "dur": 101, 
                            "type": "note", 
                            "channel": 0
                        }, 
                        {
                            "pitch": 52, 
                            "t0": 101280, 
                            "v": 81, 
                            "dur": 523, 
                            "type": "note", 
                            "channel": 0
                        }
                    ]
                ], 
                [
                    101760, 
                    [
                        {
                            "pitch": 69, 
                            "t0": 101760, 
                            "v": 110, 
                            "dur": 140, 
                            "type": "note", 
                            "channel": 0
                        }, 
                        {
                            "pitch": 29, 
                            "t0": 101760, 
                            "v": 81, 
                            "dur": 537, 
                            "type": "note", 
                            "channel": 0
                        }, 
                        {
                            "pitch": 41, 
                            "t0": 101760, 
                            "v": 81, 
                            "dur": 577, 
                            "type": "note", 
                            "channel": 0
                        }, 
                        {
                            "pitch": 53, 
                            "t0": 101760, 
                            "parts": [
                                [
                                    101760, 
                                    110
                                ], 
                                [
                                    102240, 
                                    81
                                ], 
                                [
                                    102463, 
                                    0
                                ]
                            ], 
                            "v": 110, 
                            "dur": 703, 
                            "type": "note", 
                            "channel": 0
                        }
                    ]
                ], 
                [
                    101880, 
                    [
                        {
                            "pitch": 57, 
                            "t0": 101880, 
                            "v": 110, 
                            "dur": 642, 
                            "type": "note", 
                            "channel": 0
                        }
                    ]
                ], 
                [
                    102060, 
                    [
                        {
                            "pitch": 60, 
                            "t0": 102060, 
                            "v": 110, 
                            "dur": 417, 
                            "type": "note", 
                            "channel": 0
                        }
                    ]
                ], 
                [
                    102240, 
                    [
                        {
                            "pitch": 69, 
                            "t0": 102240, 
                            "v": 110, 
                            "dur": 133, 
                            "type": "note", 
                            "channel": 0
                        }
                    ]
                ], 
                [
                    102420, 
                    [
                        {
                            "pitch": 71, 
                            "t0": 102420, 
                            "v": 110, 
                            "dur": 147, 
                            "type": "note", 
                            "channel": 0
                        }
                    ]
                ], 
                [
                    102540, 
                    [
                        {
                            "pitch": 72, 
                            "t0": 102540, 
                            "v": 110, 
                            "dur": 221, 
                            "type": "note", 
                            "channel": 0
                        }
                    ]
                ], 
                [
                    102720, 
                    [
                        {
                            "pitch": 71, 
                            "t0": 102720, 
                            "v": 110, 
                            "dur": 140, 
                            "type": "note", 
                            "channel": 0
                        }, 
                        {
                            "pitch": 31, 
                            "t0": 102720, 
                            "v": 81, 
                            "dur": 582, 
                            "type": "note", 
                            "channel": 0
                        }, 
                        {
                            "pitch": 43, 
                            "t0": 102720, 
                            "v": 81, 
                            "dur": 597, 
                            "type": "note", 
                            "channel": 0
                        }, 
                        {
                            "pitch": 55, 
                            "t0": 102720, 
                            "parts": [
                                [
                                    102720, 
                                    110
                                ], 
                                [
                                    103200, 
                                    81
                                ], 
                                [
                                    103370, 
                                    0
                                ]
                            ], 
                            "v": 110, 
                            "dur": 650, 
                            "type": "note", 
                            "channel": 0
                        }
                    ]
                ], 
                [
                    102900, 
                    [
                        {
                            "pitch": 59, 
                            "t0": 102900, 
                            "v": 110, 
                            "dur": 566, 
                            "type": "note", 
                            "channel": 0
                        }
                    ]
                ], 
                [
                    103020, 
                    [
                        {
                            "pitch": 62, 
                            "t0": 103020, 
                            "v": 110, 
                            "dur": 343, 
                            "type": "note", 
                            "channel": 0
                        }
                    ]
                ], 
                [
                    103200, 
                    [
                        {
                            "pitch": 71, 
                            "t0": 103200, 
                            "v": 110, 
                            "dur": 152, 
                            "type": "note", 
                            "channel": 0
                        }
                    ]
                ], 
                [
                    103380, 
                    [
                        {
                            "pitch": 69, 
                            "t0": 103380, 
                            "v": 110, 
                            "dur": 198, 
                            "type": "note", 
                            "channel": 0
                        }
                    ]
                ], 
                [
                    103500, 
                    [
                        {
                            "pitch": 67, 
                            "t0": 103500, 
                            "v": 110, 
                            "dur": 160, 
                            "type": "note", 
                            "channel": 0
                        }
                    ]
                ], 
                [
                    103680, 
                    [
                        {
                            "pitch": 69, 
                            "t0": 103680, 
                            "v": 110, 
                            "dur": 212, 
                            "type": "note", 
                            "channel": 0
                        }, 
                        {
                            "pitch": 33, 
                            "t0": 103680, 
                            "v": 81, 
                            "dur": 597, 
                            "type": "note", 
                            "channel": 0
                        }, 
                        {
                            "pitch": 45, 
                            "t0": 103680, 
                            "v": 81, 
                            "dur": 632, 
                            "type": "note", 
                            "channel": 0
                        }, 
                        {
                            "pitch": 57, 
                            "t0": 103680, 
                            "parts": [
                                [
                                    103680, 
                                    110
                                ], 
                                [
                                    104160, 
                                    81
                                ], 
                                [
                                    104675, 
                                    0
                                ]
                            ], 
                            "v": 110, 
                            "dur": 995, 
                            "type": "note", 
                            "channel": 0
                        }
                    ]
                ], 
                [
                    103800, 
                    [
                        {
                            "pitch": 60, 
                            "t0": 103800, 
                            "v": 110, 
                            "dur": 1253, 
                            "type": "note", 
                            "channel": 0
                        }
                    ]
                ], 
                [
                    103980, 
                    [
                        {
                            "pitch": 64, 
                            "t0": 103980, 
                            "v": 110, 
                            "dur": 1073, 
                            "type": "note", 
                            "channel": 0
                        }
                    ]
                ], 
                [
                    104160, 
                    [
                        {
                            "pitch": 69, 
                            "t0": 104160, 
                            "v": 110, 
                            "dur": 288, 
                            "type": "note", 
                            "channel": 0
                        }
                    ]
                ], 
                [
                    104460, 
                    [
                        {
                            "pitch": 67, 
                            "t0": 104460, 
                            "v": 110, 
                            "dur": 127, 
                            "type": "note", 
                            "channel": 0
                        }
                    ]
                ], 
                [
                    104640, 
                    [
                        {
                            "pitch": 69, 
                            "t0": 104640, 
                            "v": 110, 
                            "dur": 400, 
                            "type": "note", 
                            "channel": 0
                        }, 
                        {
                            "pitch": 33, 
                            "t0": 104640, 
                            "v": 81, 
                            "dur": 712, 
                            "type": "note", 
                            "channel": 0
                        }, 
                        {
                            "pitch": 45, 
                            "t0": 104640, 
                            "v": 81, 
                            "dur": 756, 
                            "type": "note", 
                            "channel": 0
                        }
                    ]
                ], 
                [
                    105600, 
                    [
                        {
                            "pitch": 79, 
                            "t0": 105600, 
                            "v": 110, 
                            "dur": 151, 
                            "type": "note", 
                            "channel": 0
                        }, 
                        {
                            "pitch": 60, 
                            "t0": 105600, 
                            "parts": [
                                [
                                    105600, 
                                    110
                                ], 
                                [
                                    106080, 
                                    81
                                ], 
                                [
                                    106161, 
                                    0
                                ]
                            ], 
                            "v": 110, 
                            "dur": 561, 
                            "type": "note", 
                            "channel": 0
                        }, 
                        {
                            "pitch": 36, 
                            "t0": 105600, 
                            "v": 81, 
                            "dur": 591, 
                            "type": "note", 
                            "channel": 0
                        }, 
                        {
                            "pitch": 48, 
                            "t0": 105600, 
                            "v": 81, 
                            "dur": 596, 
                            "type": "note", 
                            "channel": 0
                        }
                    ]
                ], 
                [
                    105720, 
                    [
                        {
                            "pitch": 64, 
                            "t0": 105720, 
                            "v": 110, 
                            "dur": 403, 
                            "type": "note", 
                            "channel": 0
                        }
                    ]
                ], 
                [
                    105900, 
                    [
                        {
                            "pitch": 67, 
                            "t0": 105900, 
                            "v": 110, 
                            "dur": 251, 
                            "type": "note", 
                            "channel": 0
                        }
                    ]
                ], 
                [
                    106080, 
                    [
                        {
                            "pitch": 79, 
                            "t0": 106080, 
                            "v": 110, 
                            "dur": 157, 
                            "type": "note", 
                            "channel": 0
                        }
                    ]
                ], 
                [
                    106200, 
                    [
                        {
                            "pitch": 77, 
                            "t0": 106200, 
                            "v": 110, 
                            "dur": 147, 
                            "type": "note", 
                            "channel": 0
                        }
                    ]
                ], 
                [
                    106380, 
                    [
                        {
                            "pitch": 76, 
                            "t0": 106380, 
                            "v": 110, 
                            "dur": 218, 
                            "type": "note", 
                            "channel": 0
                        }
                    ]
                ], 
                [
                    106560, 
                    [
                        {
                            "pitch": 74, 
                            "t0": 106560, 
                            "v": 110, 
                            "dur": 122, 
                            "type": "note", 
                            "channel": 0
                        }, 
                        {
                            "pitch": 31, 
                            "t0": 106560, 
                            "v": 81, 
                            "dur": 623, 
                            "type": "note", 
                            "channel": 0
                        }, 
                        {
                            "pitch": 43, 
                            "t0": 106560, 
                            "v": 81, 
                            "dur": 636, 
                            "type": "note", 
                            "channel": 0
                        }, 
                        {
                            "pitch": 55, 
                            "t0": 106560, 
                            "parts": [
                                [
                                    106560, 
                                    110
                                ], 
                                [
                                    107040, 
                                    81
                                ], 
                                [
                                    107257, 
                                    0
                                ]
                            ], 
                            "v": 110, 
                            "dur": 697, 
                            "type": "note", 
                            "channel": 0
                        }
                    ]
                ], 
                [
                    106680, 
                    [
                        {
                            "pitch": 59, 
                            "t0": 106680, 
                            "v": 110, 
                            "dur": 582, 
                            "type": "note", 
                            "channel": 0
                        }
                    ]
                ], 
                [
                    106860, 
                    [
                        {
                            "pitch": 62, 
                            "t0": 106860, 
                            "v": 110, 
                            "dur": 427, 
                            "type": "note", 
                            "channel": 0
                        }
                    ]
                ], 
                [
                    107040, 
                    [
                        {
                            "pitch": 67, 
                            "t0": 107040, 
                            "v": 110, 
                            "dur": 245, 
                            "type": "note", 
                            "channel": 0
                        }
                    ]
                ], 
                [
                    107520, 
                    [
                        {
                            "pitch": 76, 
                            "t0": 107520, 
                            "v": 110, 
                            "dur": 142, 
                            "type": "note", 
                            "channel": 0
                        }, 
                        {
                            "pitch": 45, 
                            "t0": 107520, 
                            "v": 81, 
                            "dur": 581, 
                            "type": "note", 
                            "channel": 0
                        }, 
                        {
                            "pitch": 57, 
                            "t0": 107520, 
                            "parts": [
                                [
                                    107520, 
                                    110
                                ], 
                                [
                                    108000, 
                                    81
                                ], 
                                [
                                    108102, 
                                    0
                                ]
                            ], 
                            "v": 110, 
                            "dur": 582, 
                            "type": "note", 
                            "channel": 0
                        }, 
                        {
                            "pitch": 33, 
                            "t0": 107520, 
                            "v": 81, 
                            "dur": 608, 
                            "type": "note", 
                            "channel": 0
                        }
                    ]
                ], 
                [
                    107640, 
                    [
                        {
                            "pitch": 60, 
                            "t0": 107640, 
                            "v": 110, 
                            "dur": 486, 
                            "type": "note", 
                            "channel": 0
                        }
                    ]
                ], 
                [
                    107820, 
                    [
                        {
                            "pitch": 64, 
                            "t0": 107820, 
                            "v": 110, 
                            "dur": 262, 
                            "type": "note", 
                            "channel": 0
                        }
                    ]
                ], 
                [
                    108000, 
                    [
                        {
                            "pitch": 76, 
                            "t0": 108000, 
                            "v": 110, 
                            "dur": 176, 
                            "type": "note", 
                            "channel": 0
                        }
                    ]
                ], 
                [
                    108180, 
                    [
                        {
                            "pitch": 74, 
                            "t0": 108180, 
                            "v": 110, 
                            "dur": 147, 
                            "type": "note", 
                            "channel": 0
                        }
                    ]
                ], 
                [
                    108300, 
                    [
                        {
                            "pitch": 72, 
                            "t0": 108300, 
                            "v": 110, 
                            "dur": 201, 
                            "type": "note", 
                            "channel": 0
                        }
                    ]
                ], 
                [
                    108480, 
                    [
                        {
                            "pitch": 71, 
                            "t0": 108480, 
                            "v": 110, 
                            "dur": 131, 
                            "type": "note", 
                            "channel": 0
                        }, 
                        {
                            "pitch": 28, 
                            "t0": 108480, 
                            "v": 81, 
                            "dur": 631, 
                            "type": "note", 
                            "channel": 0
                        }, 
                        {
                            "pitch": 40, 
                            "t0": 108480, 
                            "v": 81, 
                            "dur": 642, 
                            "type": "note", 
                            "channel": 0
                        }, 
                        {
                            "pitch": 52, 
                            "t0": 108480, 
                            "parts": [
                                [
                                    108480, 
                                    110
                                ], 
                                [
                                    108960, 
                                    81
                                ], 
                                [
                                    109171, 
                                    0
                                ]
                            ], 
                            "v": 110, 
                            "dur": 691, 
                            "type": "note", 
                            "channel": 0
                        }
                    ]
                ], 
                [
                    108600, 
                    [
                        {
                            "pitch": 55, 
                            "t0": 108600, 
                            "v": 110, 
                            "dur": 580, 
                            "type": "note", 
                            "channel": 0
                        }
                    ]
                ], 
                [
                    108720, 
                    [
                        {
                            "pitch": 59, 
                            "t0": 108720, 
                            "v": 110, 
                            "dur": 442, 
                            "type": "note", 
                            "channel": 0
                        }
                    ]
                ], 
                [
                    108960, 
                    [
                        {
                            "pitch": 64, 
                            "t0": 108960, 
                            "v": 110, 
                            "dur": 186, 
                            "type": "note", 
                            "channel": 0
                        }
                    ]
                ], 
                [
                    109440, 
                    [
                        {
                            "pitch": 69, 
                            "t0": 109440, 
                            "v": 110, 
                            "dur": 161, 
                            "type": "note", 
                            "channel": 0
                        }, 
                        {
                            "pitch": 53, 
                            "t0": 109440, 
                            "v": 110, 
                            "dur": 460, 
                            "type": "note", 
                            "channel": 0
                        }, 
                        {
                            "pitch": 29, 
                            "t0": 109440, 
                            "v": 81, 
                            "dur": 571, 
                            "type": "note", 
                            "channel": 0
                        }, 
                        {
                            "pitch": 41, 
                            "t0": 109440, 
                            "v": 81, 
                            "dur": 608, 
                            "type": "note", 
                            "channel": 0
                        }
                    ]
                ], 
                [
                    109560, 
                    [
                        {
                            "pitch": 57, 
                            "t0": 109560, 
                            "v": 110, 
                            "dur": 385, 
                            "type": "note", 
                            "channel": 0
                        }
                    ]
                ], 
                [
                    109740, 
                    [
                        {
                            "pitch": 60, 
                            "t0": 109740, 
                            "v": 110, 
                            "dur": 190, 
                            "type": "note", 
                            "channel": 0
                        }
                    ]
                ], 
                [
                    109920, 
                    [
                        {
                            "pitch": 69, 
                            "t0": 109920, 
                            "v": 110, 
                            "dur": 160, 
                            "type": "note", 
                            "channel": 0
                        }, 
                        {
                            "pitch": 53, 
                            "t0": 109920, 
                            "v": 81, 
                            "dur": 486, 
                            "type": "note", 
                            "channel": 0
                        }
                    ]
                ], 
                [
                    110100, 
                    [
                        {
                            "pitch": 71, 
                            "t0": 110100, 
                            "v": 110, 
                            "dur": 147, 
                            "type": "note", 
                            "channel": 0
                        }
                    ]
                ], 
                [
                    110220, 
                    [
                        {
                            "pitch": 72, 
                            "t0": 110220, 
                            "v": 110, 
                            "dur": 241, 
                            "type": "note", 
                            "channel": 0
                        }
                    ]
                ], 
                [
                    110400, 
                    [
                        {
                            "pitch": 71, 
                            "t0": 110400, 
                            "v": 110, 
                            "dur": 117, 
                            "type": "note", 
                            "channel": 0
                        }, 
                        {
                            "pitch": 55, 
                            "t0": 110400, 
                            "parts": [
                                [
                                    110400, 
                                    110
                                ], 
                                [
                                    110880, 
                                    81
                                ], 
                                [
                                    110921, 
                                    0
                                ]
                            ], 
                            "v": 110, 
                            "dur": 521, 
                            "type": "note", 
                            "channel": 0
                        }, 
                        {
                            "pitch": 31, 
                            "t0": 110400, 
                            "v": 81, 
                            "dur": 616, 
                            "type": "note", 
                            "channel": 0
                        }, 
                        {
                            "pitch": 43, 
                            "t0": 110400, 
                            "v": 81, 
                            "dur": 647, 
                            "type": "note", 
                            "channel": 0
                        }
                    ]
                ], 
                [
                    110520, 
                    [
                        {
                            "pitch": 59, 
                            "t0": 110520, 
                            "v": 110, 
                            "dur": 482, 
                            "type": "note", 
                            "channel": 0
                        }
                    ]
                ], 
                [
                    110700, 
                    [
                        {
                            "pitch": 62, 
                            "t0": 110700, 
                            "v": 110, 
                            "dur": 236, 
                            "type": "note", 
                            "channel": 0
                        }
                    ]
                ], 
                [
                    110880, 
                    [
                        {
                            "pitch": 71, 
                            "t0": 110880, 
                            "v": 110, 
                            "dur": 152, 
                            "type": "note", 
                            "channel": 0
                        }
                    ]
                ], 
                [
                    111060, 
                    [
                        {
                            "pitch": 69, 
                            "t0": 111060, 
                            "v": 110, 
                            "dur": 135, 
                            "type": "note", 
                            "channel": 0
                        }
                    ]
                ], 
                [
                    111180, 
                    [
                        {
                            "pitch": 67, 
                            "t0": 111180, 
                            "v": 110, 
                            "dur": 133, 
                            "type": "note", 
                            "channel": 0
                        }
                    ]
                ], 
                [
                    111360, 
                    [
                        {
                            "pitch": 69, 
                            "t0": 111360, 
                            "v": 110, 
                            "dur": 343, 
                            "type": "note", 
                            "channel": 0
                        }, 
                        {
                            "pitch": 33, 
                            "t0": 111360, 
                            "v": 81, 
                            "dur": 548, 
                            "type": "note", 
                            "channel": 0
                        }, 
                        {
                            "pitch": 45, 
                            "t0": 111360, 
                            "v": 81, 
                            "dur": 567, 
                            "type": "note", 
                            "channel": 0
                        }, 
                        {
                            "pitch": 57, 
                            "t0": 111360, 
                            "parts": [
                                [
                                    111360, 
                                    110
                                ], 
                                [
                                    111840, 
                                    81
                                ], 
                                [
                                    112323, 
                                    0
                                ]
                            ], 
                            "v": 110, 
                            "dur": 963, 
                            "type": "note", 
                            "channel": 0
                        }
                    ]
                ], 
                [
                    111480, 
                    [
                        {
                            "pitch": 60, 
                            "t0": 111480, 
                            "v": 110, 
                            "dur": 1152, 
                            "type": "note", 
                            "channel": 0
                        }
                    ]
                ], 
                [
                    111660, 
                    [
                        {
                            "pitch": 64, 
                            "t0": 111660, 
                            "v": 109, 
                            "dur": 895, 
                            "type": "note", 
                            "channel": 0
                        }
                    ]
                ], 
                [
                    111840, 
                    [
                        {
                            "pitch": 69, 
                            "t0": 111840, 
                            "v": 109, 
                            "dur": 273, 
                            "type": "note", 
                            "channel": 0
                        }
                    ]
                ], 
                [
                    112140, 
                    [
                        {
                            "pitch": 67, 
                            "t0": 112140, 
                            "v": 109, 
                            "dur": 150, 
                            "type": "note", 
                            "channel": 0
                        }
                    ]
                ], 
                [
                    112320, 
                    [
                        {
                            "pitch": 69, 
                            "t0": 112320, 
                            "v": 109, 
                            "dur": 226, 
                            "type": "note", 
                            "channel": 0
                        }, 
                        {
                            "pitch": 33, 
                            "t0": 112320, 
                            "v": 81, 
                            "dur": 927, 
                            "type": "note", 
                            "channel": 0
                        }, 
                        {
                            "pitch": 45, 
                            "t0": 112320, 
                            "v": 81, 
                            "dur": 950, 
                            "type": "note", 
                            "channel": 0
                        }
                    ]
                ], 
                [
                    113280, 
                    [
                        {
                            "pitch": 84, 
                            "t0": 113280, 
                            "v": 88, 
                            "dur": 1590, 
                            "type": "note", 
                            "channel": 0
                        }
                    ]
                ], 
                [
                    114240, 
                    [
                        {
                            "pitch": 64, 
                            "t0": 114240, 
                            "v": 50, 
                            "dur": 1068, 
                            "type": "note", 
                            "channel": 0
                        }, 
                        {
                            "pitch": 72, 
                            "t0": 114240, 
                            "v": 50, 
                            "dur": 1087, 
                            "type": "note", 
                            "channel": 0
                        }, 
                        {
                            "pitch": 69, 
                            "t0": 114240, 
                            "v": 50, 
                            "dur": 1115, 
                            "type": "note", 
                            "channel": 0
                        }
                    ]
                ], 
                [
                    115680, 
                    [
                        {
                            "pitch": 81, 
                            "t0": 115680, 
                            "v": 79, 
                            "dur": 440, 
                            "type": "note", 
                            "channel": 0
                        }
                    ]
                ], 
                [
                    116160, 
                    [
                        {
                            "pitch": 84, 
                            "t0": 116160, 
                            "v": 94, 
                            "dur": 710, 
                            "type": "note", 
                            "channel": 0
                        }
                    ]
                ], 
                [
                    116880, 
                    [
                        {
                            "pitch": 81, 
                            "t0": 116880, 
                            "v": 60, 
                            "dur": 203, 
                            "type": "note", 
                            "channel": 0
                        }
                    ]
                ], 
                [
                    117120, 
                    [
                        {
                            "pitch": 83, 
                            "t0": 117120, 
                            "v": 83, 
                            "dur": 1653, 
                            "type": "note", 
                            "channel": 0
                        }
                    ]
                ], 
                [
                    118080, 
                    [
                        {
                            "pitch": 76, 
                            "t0": 118080, 
                            "v": 71, 
                            "dur": 443, 
                            "type": "note", 
                            "channel": 0
                        }, 
                        {
                            "pitch": 64, 
                            "t0": 118080, 
                            "v": 50, 
                            "dur": 1498, 
                            "type": "note", 
                            "channel": 0
                        }, 
                        {
                            "pitch": 71, 
                            "t0": 118080, 
                            "v": 50, 
                            "dur": 1632, 
                            "type": "note", 
                            "channel": 0
                        }, 
                        {
                            "pitch": 67, 
                            "t0": 118080, 
                            "v": 50, 
                            "dur": 1696, 
                            "type": "note", 
                            "channel": 0
                        }
                    ]
                ], 
                [
                    120960, 
                    [
                        {
                            "pitch": 84, 
                            "t0": 120960, 
                            "v": 94, 
                            "dur": 1118, 
                            "type": "note", 
                            "channel": 0
                        }
                    ]
                ], 
                [
                    121920, 
                    [
                        {
                            "pitch": 69, 
                            "t0": 121920, 
                            "v": 50, 
                            "dur": 1238, 
                            "type": "note", 
                            "channel": 0
                        }, 
                        {
                            "pitch": 72, 
                            "t0": 121920, 
                            "v": 50, 
                            "dur": 1287, 
                            "type": "note", 
                            "channel": 0
                        }, 
                        {
                            "pitch": 64, 
                            "t0": 121920, 
                            "v": 50, 
                            "dur": 1292, 
                            "type": "note", 
                            "channel": 0
                        }
                    ]
                ], 
                [
                    123360, 
                    [
                        {
                            "pitch": 81, 
                            "t0": 123360, 
                            "v": 75, 
                            "dur": 506, 
                            "type": "note", 
                            "channel": 0
                        }
                    ]
                ], 
                [
                    123840, 
                    [
                        {
                            "pitch": 84, 
                            "t0": 123840, 
                            "v": 86, 
                            "dur": 670, 
                            "type": "note", 
                            "channel": 0
                        }
                    ]
                ], 
                [
                    124560, 
                    [
                        {
                            "pitch": 81, 
                            "t0": 124560, 
                            "v": 57, 
                            "dur": 235, 
                            "type": "note", 
                            "channel": 0
                        }
                    ]
                ], 
                [
                    124800, 
                    [
                        {
                            "pitch": 83, 
                            "t0": 124800, 
                            "v": 88, 
                            "dur": 940, 
                            "type": "note", 
                            "channel": 0
                        }
                    ]
                ], 
                [
                    125760, 
                    [
                        {
                            "pitch": 64, 
                            "t0": 125760, 
                            "v": 50, 
                            "dur": 1901, 
                            "type": "note", 
                            "channel": 0
                        }, 
                        {
                            "pitch": 67, 
                            "t0": 125760, 
                            "v": 50, 
                            "dur": 1908, 
                            "type": "note", 
                            "channel": 0
                        }, 
                        {
                            "pitch": 71, 
                            "t0": 125760, 
                            "v": 50, 
                            "dur": 1926, 
                            "type": "note", 
                            "channel": 0
                        }
                    ]
                ], 
                [
                    128640, 
                    [
                        {
                            "pitch": 81, 
                            "t0": 128640, 
                            "v": 67, 
                            "dur": 1135, 
                            "type": "note", 
                            "channel": 0
                        }
                    ]
                ], 
                [
                    129600, 
                    [
                        {
                            "pitch": 65, 
                            "t0": 129600, 
                            "v": 50, 
                            "dur": 1330, 
                            "type": "note", 
                            "channel": 0
                        }, 
                        {
                            "pitch": 69, 
                            "t0": 129600, 
                            "v": 50, 
                            "dur": 1448, 
                            "type": "note", 
                            "channel": 0
                        }, 
                        {
                            "pitch": 60, 
                            "t0": 129600, 
                            "v": 50, 
                            "dur": 1472, 
                            "type": "note", 
                            "channel": 0
                        }
                    ]
                ], 
                [
                    131280, 
                    [
                        {
                            "pitch": 81, 
                            "t0": 131280, 
                            "v": 56, 
                            "dur": 256, 
                            "type": "note", 
                            "channel": 0
                        }
                    ]
                ], 
                [
                    131520, 
                    [
                        {
                            "pitch": 79, 
                            "t0": 131520, 
                            "v": 75, 
                            "dur": 605, 
                            "type": "note", 
                            "channel": 0
                        }
                    ]
                ], 
                [
                    132240, 
                    [
                        {
                            "pitch": 77, 
                            "t0": 132240, 
                            "v": 73, 
                            "dur": 101, 
                            "type": "note", 
                            "channel": 0
                        }
                    ]
                ], 
                [
                    132480, 
                    [
                        {
                            "pitch": 76, 
                            "t0": 132480, 
                            "v": 86, 
                            "dur": 582, 
                            "type": "note", 
                            "channel": 0
                        }
                    ]
                ], 
                [
                    133440, 
                    [
                        {
                            "pitch": 64, 
                            "t0": 133440, 
                            "v": 50, 
                            "dur": 1568, 
                            "type": "note", 
                            "channel": 0
                        }, 
                        {
                            "pitch": 60, 
                            "t0": 133440, 
                            "v": 50, 
                            "dur": 1615, 
                            "type": "note", 
                            "channel": 0
                        }, 
                        {
                            "pitch": 84, 
                            "t0": 133440, 
                            "v": 73, 
                            "dur": 1622, 
                            "type": "note", 
                            "channel": 0
                        }
                    ]
                ], 
                [
                    136320, 
                    [
                        {
                            "pitch": 84, 
                            "t0": 136320, 
                            "v": 91, 
                            "dur": 1185, 
                            "type": "note", 
                            "channel": 0
                        }
                    ]
                ], 
                [
                    137280, 
                    [
                        {
                            "pitch": 65, 
                            "t0": 137280, 
                            "v": 50, 
                            "dur": 1405, 
                            "type": "note", 
                            "channel": 0
                        }, 
                        {
                            "pitch": 72, 
                            "t0": 137280, 
                            "v": 50, 
                            "dur": 1501, 
                            "type": "note", 
                            "channel": 0
                        }, 
                        {
                            "pitch": 69, 
                            "t0": 137280, 
                            "v": 50, 
                            "dur": 1616, 
                            "type": "note", 
                            "channel": 0
                        }
                    ]
                ], 
                [
                    138720, 
                    [
                        {
                            "pitch": 84, 
                            "t0": 138720, 
                            "v": 77, 
                            "dur": 508, 
                            "type": "note", 
                            "channel": 0
                        }
                    ]
                ], 
                [
                    139200, 
                    [
                        {
                            "pitch": 88, 
                            "t0": 139200, 
                            "v": 101, 
                            "dur": 703, 
                            "type": "note", 
                            "channel": 0
                        }
                    ]
                ], 
                [
                    139920, 
                    [
                        {
                            "pitch": 84, 
                            "t0": 139920, 
                            "v": 59, 
                            "dur": 136, 
                            "type": "note", 
                            "channel": 0
                        }
                    ]
                ], 
                [
                    140160, 
                    [
                        {
                            "pitch": 86, 
                            "t0": 140160, 
                            "v": 104, 
                            "dur": 826, 
                            "type": "note", 
                            "channel": 0
                        }
                    ]
                ], 
                [
                    141120, 
                    [
                        {
                            "pitch": 67, 
                            "t0": 141120, 
                            "v": 50, 
                            "dur": 1776, 
                            "type": "note", 
                            "channel": 0
                        }, 
                        {
                            "pitch": 71, 
                            "t0": 141120, 
                            "v": 50, 
                            "dur": 1801, 
                            "type": "note", 
                            "channel": 0
                        }, 
                        {
                            "pitch": 74, 
                            "t0": 141120, 
                            "v": 50, 
                            "dur": 1813, 
                            "type": "note", 
                            "channel": 0
                        }
                    ]
                ], 
                [
                    147840, 
                    [
                        {
                            "pitch": 84, 
                            "t0": 147840, 
                            "v": 88, 
                            "dur": 1590, 
                            "type": "note", 
                            "channel": 0
                        }
                    ]
                ], 
                [
                    148800, 
                    [
                        {
                            "pitch": 64, 
                            "t0": 148800, 
                            "v": 50, 
                            "dur": 1068, 
                            "type": "note", 
                            "channel": 0
                        }, 
                        {
                            "pitch": 72, 
                            "t0": 148800, 
                            "v": 50, 
                            "dur": 1087, 
                            "type": "note", 
                            "channel": 0
                        }, 
                        {
                            "pitch": 69, 
                            "t0": 148800, 
                            "v": 50, 
                            "dur": 1115, 
                            "type": "note", 
                            "channel": 0
                        }
                    ]
                ], 
                [
                    150240, 
                    [
                        {
                            "pitch": 81, 
                            "t0": 150240, 
                            "v": 79, 
                            "dur": 440, 
                            "type": "note", 
                            "channel": 0
                        }
                    ]
                ], 
                [
                    150720, 
                    [
                        {
                            "pitch": 84, 
                            "t0": 150720, 
                            "v": 94, 
                            "dur": 710, 
                            "type": "note", 
                            "channel": 0
                        }
                    ]
                ], 
                [
                    151440, 
                    [
                        {
                            "pitch": 81, 
                            "t0": 151440, 
                            "v": 60, 
                            "dur": 203, 
                            "type": "note", 
                            "channel": 0
                        }
                    ]
                ], 
                [
                    151680, 
                    [
                        {
                            "pitch": 83, 
                            "t0": 151680, 
                            "v": 83, 
                            "dur": 1653, 
                            "type": "note", 
                            "channel": 0
                        }
                    ]
                ], 
                [
                    152640, 
                    [
                        {
                            "pitch": 76, 
                            "t0": 152640, 
                            "v": 71, 
                            "dur": 443, 
                            "type": "note", 
                            "channel": 0
                        }, 
                        {
                            "pitch": 64, 
                            "t0": 152640, 
                            "v": 50, 
                            "dur": 1498, 
                            "type": "note", 
                            "channel": 0
                        }, 
                        {
                            "pitch": 71, 
                            "t0": 152640, 
                            "v": 50, 
                            "dur": 1632, 
                            "type": "note", 
                            "channel": 0
                        }, 
                        {
                            "pitch": 67, 
                            "t0": 152640, 
                            "v": 50, 
                            "dur": 1696, 
                            "type": "note", 
                            "channel": 0
                        }
                    ]
                ], 
                [
                    155520, 
                    [
                        {
                            "pitch": 84, 
                            "t0": 155520, 
                            "v": 94, 
                            "dur": 1118, 
                            "type": "note", 
                            "channel": 0
                        }
                    ]
                ], 
                [
                    156480, 
                    [
                        {
                            "pitch": 69, 
                            "t0": 156480, 
                            "v": 50, 
                            "dur": 1238, 
                            "type": "note", 
                            "channel": 0
                        }, 
                        {
                            "pitch": 72, 
                            "t0": 156480, 
                            "v": 50, 
                            "dur": 1287, 
                            "type": "note", 
                            "channel": 0
                        }, 
                        {
                            "pitch": 64, 
                            "t0": 156480, 
                            "v": 50, 
                            "dur": 1292, 
                            "type": "note", 
                            "channel": 0
                        }
                    ]
                ], 
                [
                    157920, 
                    [
                        {
                            "pitch": 81, 
                            "t0": 157920, 
                            "v": 75, 
                            "dur": 506, 
                            "type": "note", 
                            "channel": 0
                        }
                    ]
                ], 
                [
                    158400, 
                    [
                        {
                            "pitch": 84, 
                            "t0": 158400, 
                            "v": 86, 
                            "dur": 670, 
                            "type": "note", 
                            "channel": 0
                        }
                    ]
                ], 
                [
                    159120, 
                    [
                        {
                            "pitch": 81, 
                            "t0": 159120, 
                            "v": 57, 
                            "dur": 235, 
                            "type": "note", 
                            "channel": 0
                        }
                    ]
                ], 
                [
                    159360, 
                    [
                        {
                            "pitch": 83, 
                            "t0": 159360, 
                            "v": 88, 
                            "dur": 940, 
                            "type": "note", 
                            "channel": 0
                        }
                    ]
                ], 
                [
                    160320, 
                    [
                        {
                            "pitch": 64, 
                            "t0": 160320, 
                            "v": 50, 
                            "dur": 1901, 
                            "type": "note", 
                            "channel": 0
                        }, 
                        {
                            "pitch": 67, 
                            "t0": 160320, 
                            "v": 50, 
                            "dur": 1908, 
                            "type": "note", 
                            "channel": 0
                        }, 
                        {
                            "pitch": 71, 
                            "t0": 160320, 
                            "v": 50, 
                            "dur": 1926, 
                            "type": "note", 
                            "channel": 0
                        }
                    ]
                ], 
                [
                    163200, 
                    [
                        {
                            "pitch": 81, 
                            "t0": 163200, 
                            "v": 67, 
                            "dur": 1135, 
                            "type": "note", 
                            "channel": 0
                        }
                    ]
                ], 
                [
                    164160, 
                    [
                        {
                            "pitch": 65, 
                            "t0": 164160, 
                            "v": 50, 
                            "dur": 1330, 
                            "type": "note", 
                            "channel": 0
                        }, 
                        {
                            "pitch": 69, 
                            "t0": 164160, 
                            "v": 50, 
                            "dur": 1448, 
                            "type": "note", 
                            "channel": 0
                        }, 
                        {
                            "pitch": 60, 
                            "t0": 164160, 
                            "v": 50, 
                            "dur": 1472, 
                            "type": "note", 
                            "channel": 0
                        }
                    ]
                ], 
                [
                    165840, 
                    [
                        {
                            "pitch": 81, 
                            "t0": 165840, 
                            "v": 56, 
                            "dur": 256, 
                            "type": "note", 
                            "channel": 0
                        }
                    ]
                ], 
                [
                    166080, 
                    [
                        {
                            "pitch": 79, 
                            "t0": 166080, 
                            "v": 75, 
                            "dur": 605, 
                            "type": "note", 
                            "channel": 0
                        }
                    ]
                ], 
                [
                    166800, 
                    [
                        {
                            "pitch": 77, 
                            "t0": 166800, 
                            "v": 73, 
                            "dur": 101, 
                            "type": "note", 
                            "channel": 0
                        }
                    ]
                ], 
                [
                    167040, 
                    [
                        {
                            "pitch": 76, 
                            "t0": 167040, 
                            "v": 86, 
                            "dur": 582, 
                            "type": "note", 
                            "channel": 0
                        }
                    ]
                ], 
                [
                    168000, 
                    [
                        {
                            "pitch": 64, 
                            "t0": 168000, 
                            "v": 50, 
                            "dur": 1568, 
                            "type": "note", 
                            "channel": 0
                        }, 
                        {
                            "pitch": 60, 
                            "t0": 168000, 
                            "v": 50, 
                            "dur": 1615, 
                            "type": "note", 
                            "channel": 0
                        }, 
                        {
                            "pitch": 84, 
                            "t0": 168000, 
                            "v": 73, 
                            "dur": 1622, 
                            "type": "note", 
                            "channel": 0
                        }
                    ]
                ], 
                [
                    170880, 
                    [
                        {
                            "pitch": 84, 
                            "t0": 170880, 
                            "v": 91, 
                            "dur": 1185, 
                            "type": "note", 
                            "channel": 0
                        }
                    ]
                ], 
                [
                    171840, 
                    [
                        {
                            "pitch": 65, 
                            "t0": 171840, 
                            "v": 50, 
                            "dur": 1405, 
                            "type": "note", 
                            "channel": 0
                        }, 
                        {
                            "pitch": 72, 
                            "t0": 171840, 
                            "v": 50, 
                            "dur": 1501, 
                            "type": "note", 
                            "channel": 0
                        }, 
                        {
                            "pitch": 69, 
                            "t0": 171840, 
                            "v": 50, 
                            "dur": 1616, 
                            "type": "note", 
                            "channel": 0
                        }
                    ]
                ], 
                [
                    173280, 
                    [
                        {
                            "pitch": 84, 
                            "t0": 173280, 
                            "v": 77, 
                            "dur": 508, 
                            "type": "note", 
                            "channel": 0
                        }
                    ]
                ], 
                [
                    173760, 
                    [
                        {
                            "pitch": 88, 
                            "t0": 173760, 
                            "v": 101, 
                            "dur": 703, 
                            "type": "note", 
                            "channel": 0
                        }
                    ]
                ], 
                [
                    174480, 
                    [
                        {
                            "pitch": 84, 
                            "t0": 174480, 
                            "v": 59, 
                            "dur": 136, 
                            "type": "note", 
                            "channel": 0
                        }
                    ]
                ], 
                [
                    174720, 
                    [
                        {
                            "pitch": 86, 
                            "t0": 174720, 
                            "v": 104, 
                            "dur": 826, 
                            "type": "note", 
                            "channel": 0
                        }
                    ]
                ], 
                [
                    175680, 
                    [
                        {
                            "pitch": 67, 
                            "t0": 175680, 
                            "v": 50, 
                            "dur": 1776, 
                            "type": "note", 
                            "channel": 0
                        }, 
                        {
                            "pitch": 71, 
                            "t0": 175680, 
                            "v": 50, 
                            "dur": 1801, 
                            "type": "note", 
                            "channel": 0
                        }, 
                        {
                            "pitch": 74, 
                            "t0": 175680, 
                            "v": 50, 
                            "dur": 1813, 
                            "type": "note", 
                            "channel": 0
                        }
                    ]
                ], 
                [
                    182400, 
                    [
                        {
                            "pitch": 36, 
                            "t0": 182400, 
                            "v": 82, 
                            "dur": 672, 
                            "type": "note", 
                            "channel": 0
                        }, 
                        {
                            "pitch": 48, 
                            "t0": 182400, 
                            "v": 82, 
                            "dur": 676, 
                            "type": "note", 
                            "channel": 0
                        }, 
                        {
                            "pitch": 60, 
                            "t0": 182400, 
                            "parts": [
                                [
                                    182400, 
                                    111
                                ], 
                                [
                                    182880, 
                                    82
                                ], 
                                [
                                    183383, 
                                    0
                                ]
                            ], 
                            "v": 111, 
                            "dur": 983, 
                            "type": "note", 
                            "channel": 0
                        }
                    ]
                ], 
                [
                    182520, 
                    [
                        {
                            "pitch": 64, 
                            "t0": 182520, 
                            "v": 111, 
                            "dur": 941, 
                            "type": "note", 
                            "channel": 0
                        }
                    ]
                ], 
                [
                    182700, 
                    [
                        {
                            "pitch": 67, 
                            "t0": 182700, 
                            "v": 111, 
                            "dur": 743, 
                            "type": "note", 
                            "channel": 0
                        }
                    ]
                ], 
                [
                    182880, 
                    [
                        {
                            "pitch": 72, 
                            "t0": 182880, 
                            "v": 110, 
                            "dur": 310, 
                            "type": "note", 
                            "channel": 0
                        }
                    ]
                ], 
                [
                    183180, 
                    [
                        {
                            "pitch": 79, 
                            "t0": 183180, 
                            "v": 110, 
                            "dur": 198, 
                            "type": "note", 
                            "channel": 0
                        }
                    ]
                ], 
                [
                    183360, 
                    [
                        {
                            "pitch": 77, 
                            "t0": 183360, 
                            "v": 110, 
                            "dur": 343, 
                            "type": "note", 
                            "channel": 0
                        }, 
                        {
                            "pitch": 48, 
                            "t0": 183360, 
                            "v": 82, 
                            "dur": 563, 
                            "type": "note", 
                            "channel": 0
                        }, 
                        {
                            "pitch": 36, 
                            "t0": 183360, 
                            "v": 82, 
                            "dur": 576, 
                            "type": "note", 
                            "channel": 0
                        }
                    ]
                ], 
                [
                    183660, 
                    [
                        {
                            "pitch": 76, 
                            "t0": 183660, 
                            "v": 110, 
                            "dur": 186, 
                            "type": "note", 
                            "channel": 0
                        }
                    ]
                ], 
                [
                    183840, 
                    [
                        {
                            "pitch": 74, 
                            "t0": 183840, 
                            "v": 110, 
                            "dur": 346, 
                            "type": "note", 
                            "channel": 0
                        }, 
                        {
                            "pitch": 60, 
                            "t0": 183840, 
                            "v": 82, 
                            "dur": 475, 
                            "type": "note", 
                            "channel": 0
                        }
                    ]
                ], 
                [
                    184140, 
                    [
                        {
                            "pitch": 72, 
                            "t0": 184140, 
                            "v": 110, 
                            "dur": 127, 
                            "type": "note", 
                            "channel": 0
                        }
                    ]
                ], 
                [
                    184320, 
                    [
                        {
                            "pitch": 31, 
                            "t0": 184320, 
                            "v": 82, 
                            "dur": 587, 
                            "type": "note", 
                            "channel": 0
                        }, 
                        {
                            "pitch": 43, 
                            "t0": 184320, 
                            "v": 82, 
                            "dur": 591, 
                            "type": "note", 
                            "channel": 0
                        }, 
                        {
                            "pitch": 55, 
                            "t0": 184320, 
                            "parts": [
                                [
                                    184320, 
                                    110
                                ], 
                                [
                                    184800, 
                                    82
                                ], 
                                [
                                    185321, 
                                    0
                                ]
                            ], 
                            "v": 110, 
                            "dur": 1001, 
                            "type": "note", 
                            "channel": 0
                        }
                    ]
                ], 
                [
                    184440, 
                    [
                        {
                            "pitch": 59, 
                            "t0": 184440, 
                            "v": 110, 
                            "dur": 1348, 
                            "type": "note", 
                            "channel": 0
                        }
                    ]
                ], 
                [
                    184620, 
                    [
                        {
                            "pitch": 62, 
                            "t0": 184620, 
                            "v": 110, 
                            "dur": 1170, 
                            "type": "note", 
                            "channel": 0
                        }
                    ]
                ], 
                [
                    184800, 
                    [
                        {
                            "pitch": 67, 
                            "t0": 184800, 
                            "v": 110, 
                            "dur": 331, 
                            "type": "note", 
                            "channel": 0
                        }
                    ]
                ], 
                [
                    185100, 
                    [
                        {
                            "pitch": 74, 
                            "t0": 185100, 
                            "v": 110, 
                            "dur": 206, 
                            "type": "note", 
                            "channel": 0
                        }
                    ]
                ], 
                [
                    185280, 
                    [
                        {
                            "pitch": 72, 
                            "t0": 185280, 
                            "v": 110, 
                            "dur": 490, 
                            "type": "note", 
                            "channel": 0
                        }, 
                        {
                            "pitch": 31, 
                            "t0": 185280, 
                            "v": 82, 
                            "dur": 547, 
                            "type": "note", 
                            "channel": 0
                        }, 
                        {
                            "pitch": 43, 
                            "t0": 185280, 
                            "v": 82, 
                            "dur": 586, 
                            "type": "note", 
                            "channel": 0
                        }
                    ]
                ], 
                [
                    185760, 
                    [
                        {
                            "pitch": 55, 
                            "t0": 185760, 
                            "v": 82, 
                            "dur": 18, 
                            "type": "note", 
                            "channel": 0
                        }, 
                        {
                            "pitch": 71, 
                            "t0": 185760, 
                            "v": 110, 
                            "dur": 143, 
                            "type": "note", 
                            "channel": 0
                        }
                    ]
                ], 
                [
                    186240, 
                    [
                        {
                            "pitch": 33, 
                            "t0": 186240, 
                            "v": 82, 
                            "dur": 605, 
                            "type": "note", 
                            "channel": 0
                        }, 
                        {
                            "pitch": 45, 
                            "t0": 186240, 
                            "v": 82, 
                            "dur": 631, 
                            "type": "note", 
                            "channel": 0
                        }, 
                        {
                            "pitch": 57, 
                            "t0": 186240, 
                            "parts": [
                                [
                                    186240, 
                                    110
                                ], 
                                [
                                    186720, 
                                    82
                                ], 
                                [
                                    187237, 
                                    0
                                ]
                            ], 
                            "v": 110, 
                            "dur": 997, 
                            "type": "note", 
                            "channel": 0
                        }
                    ]
                ], 
                [
                    186360, 
                    [
                        {
                            "pitch": 60, 
                            "t0": 186360, 
                            "v": 110, 
                            "dur": 1373, 
                            "type": "note", 
                            "channel": 0
                        }
                    ]
                ], 
                [
                    186540, 
                    [
                        {
                            "pitch": 64, 
                            "t0": 186540, 
                            "v": 110, 
                            "dur": 1187, 
                            "type": "note", 
                            "channel": 0
                        }
                    ]
                ], 
                [
                    186720, 
                    [
                        {
                            "pitch": 69, 
                            "t0": 186720, 
                            "v": 110, 
                            "dur": 305, 
                            "type": "note", 
                            "channel": 0
                        }
                    ]
                ], 
                [
                    187020, 
                    [
                        {
                            "pitch": 76, 
                            "t0": 187020, 
                            "v": 110, 
                            "dur": 215, 
                            "type": "note", 
                            "channel": 0
                        }
                    ]
                ], 
                [
                    187200, 
                    [
                        {
                            "pitch": 74, 
                            "t0": 187200, 
                            "v": 110, 
                            "dur": 333, 
                            "type": "note", 
                            "channel": 0
                        }, 
                        {
                            "pitch": 33, 
                            "t0": 187200, 
                            "v": 81, 
                            "dur": 576, 
                            "type": "note", 
                            "channel": 0
                        }, 
                        {
                            "pitch": 45, 
                            "t0": 187200, 
                            "v": 81, 
                            "dur": 582, 
                            "type": "note", 
                            "channel": 0
                        }
                    ]
                ], 
                [
                    187500, 
                    [
                        {
                            "pitch": 72, 
                            "t0": 187500, 
                            "v": 110, 
                            "dur": 218, 
                            "type": "note", 
                            "channel": 0
                        }
                    ]
                ], 
                [
                    187680, 
                    [
                        {
                            "pitch": 57, 
                            "t0": 187680, 
                            "v": 81, 
                            "dur": 63, 
                            "type": "note", 
                            "channel": 0
                        }, 
                        {
                            "pitch": 71, 
                            "t0": 187680, 
                            "v": 110, 
                            "dur": 358, 
                            "type": "note", 
                            "channel": 0
                        }
                    ]
                ], 
                [
                    187980, 
                    [
                        {
                            "pitch": 69, 
                            "t0": 187980, 
                            "v": 110, 
                            "dur": 140, 
                            "type": "note", 
                            "channel": 0
                        }
                    ]
                ], 
                [
                    188160, 
                    [
                        {
                            "pitch": 40, 
                            "t0": 188160, 
                            "v": 81, 
                            "dur": 581, 
                            "type": "note", 
                            "channel": 0
                        }, 
                        {
                            "pitch": 28, 
                            "t0": 188160, 
                            "v": 81, 
                            "dur": 582, 
                            "type": "note", 
                            "channel": 0
                        }, 
                        {
                            "pitch": 52, 
                            "t0": 188160, 
                            "parts": [
                                [
                                    188160, 
                                    110
                                ], 
                                [
                                    188640, 
                                    81
                                ], 
                                [
                                    189200, 
                                    0
                                ]
                            ], 
                            "v": 110, 
                            "dur": 1040, 
                            "type": "note", 
                            "channel": 0
                        }
                    ]
                ], 
                [
                    188280, 
                    [
                        {
                            "pitch": 55, 
                            "t0": 188280, 
                            "v": 110, 
                            "dur": 1213, 
                            "type": "note", 
                            "channel": 0
                        }
                    ]
                ], 
                [
                    188460, 
                    [
                        {
                            "pitch": 59, 
                            "t0": 188460, 
                            "v": 110, 
                            "dur": 995, 
                            "type": "note", 
                            "channel": 0
                        }
                    ]
                ], 
                [
                    188640, 
                    [
                        {
                            "pitch": 64, 
                            "t0": 188640, 
                            "v": 110, 
                            "dur": 292, 
                            "type": "note", 
                            "channel": 0
                        }
                    ]
                ], 
                [
                    188940, 
                    [
                        {
                            "pitch": 71, 
                            "t0": 188940, 
                            "v": 110, 
                            "dur": 218, 
                            "type": "note", 
                            "channel": 0
                        }
                    ]
                ], 
                [
                    189120, 
                    [
                        {
                            "pitch": 69, 
                            "t0": 189120, 
                            "v": 110, 
                            "dur": 480, 
                            "type": "note", 
                            "channel": 0
                        }, 
                        {
                            "pitch": 28, 
                            "t0": 189120, 
                            "v": 81, 
                            "dur": 567, 
                            "type": "note", 
                            "channel": 0
                        }, 
                        {
                            "pitch": 40, 
                            "t0": 189120, 
                            "v": 81, 
                            "dur": 590, 
                            "type": "note", 
                            "channel": 0
                        }
                    ]
                ], 
                [
                    189600, 
                    [
                        {
                            "pitch": 67, 
                            "t0": 189600, 
                            "v": 110, 
                            "dur": 101, 
                            "type": "note", 
                            "channel": 0
                        }, 
                        {
                            "pitch": 52, 
                            "t0": 189600, 
                            "v": 81, 
                            "dur": 523, 
                            "type": "note", 
                            "channel": 0
                        }
                    ]
                ], 
                [
                    190080, 
                    [
                        {
                            "pitch": 69, 
                            "t0": 190080, 
                            "v": 110, 
                            "dur": 140, 
                            "type": "note", 
                            "channel": 0
                        }, 
                        {
                            "pitch": 29, 
                            "t0": 190080, 
                            "v": 81, 
                            "dur": 537, 
                            "type": "note", 
                            "channel": 0
                        }, 
                        {
                            "pitch": 41, 
                            "t0": 190080, 
                            "v": 81, 
                            "dur": 577, 
                            "type": "note", 
                            "channel": 0
                        }, 
                        {
                            "pitch": 53, 
                            "t0": 190080, 
                            "parts": [
                                [
                                    190080, 
                                    110
                                ], 
                                [
                                    190560, 
                                    81
                                ], 
                                [
                                    190783, 
                                    0
                                ]
                            ], 
                            "v": 110, 
                            "dur": 703, 
                            "type": "note", 
                            "channel": 0
                        }
                    ]
                ], 
                [
                    190200, 
                    [
                        {
                            "pitch": 57, 
                            "t0": 190200, 
                            "v": 110, 
                            "dur": 642, 
                            "type": "note", 
                            "channel": 0
                        }
                    ]
                ], 
                [
                    190380, 
                    [
                        {
                            "pitch": 60, 
                            "t0": 190380, 
                            "v": 110, 
                            "dur": 417, 
                            "type": "note", 
                            "channel": 0
                        }
                    ]
                ], 
                [
                    190560, 
                    [
                        {
                            "pitch": 69, 
                            "t0": 190560, 
                            "v": 110, 
                            "dur": 133, 
                            "type": "note", 
                            "channel": 0
                        }
                    ]
                ], 
                [
                    190740, 
                    [
                        {
                            "pitch": 71, 
                            "t0": 190740, 
                            "v": 110, 
                            "dur": 147, 
                            "type": "note", 
                            "channel": 0
                        }
                    ]
                ], 
                [
                    190860, 
                    [
                        {
                            "pitch": 72, 
                            "t0": 190860, 
                            "v": 110, 
                            "dur": 221, 
                            "type": "note", 
                            "channel": 0
                        }
                    ]
                ], 
                [
                    191040, 
                    [
                        {
                            "pitch": 71, 
                            "t0": 191040, 
                            "v": 110, 
                            "dur": 140, 
                            "type": "note", 
                            "channel": 0
                        }, 
                        {
                            "pitch": 31, 
                            "t0": 191040, 
                            "v": 81, 
                            "dur": 582, 
                            "type": "note", 
                            "channel": 0
                        }, 
                        {
                            "pitch": 43, 
                            "t0": 191040, 
                            "v": 81, 
                            "dur": 597, 
                            "type": "note", 
                            "channel": 0
                        }, 
                        {
                            "pitch": 55, 
                            "t0": 191040, 
                            "parts": [
                                [
                                    191040, 
                                    110
                                ], 
                                [
                                    191520, 
                                    81
                                ], 
                                [
                                    191690, 
                                    0
                                ]
                            ], 
                            "v": 110, 
                            "dur": 650, 
                            "type": "note", 
                            "channel": 0
                        }
                    ]
                ], 
                [
                    191220, 
                    [
                        {
                            "pitch": 59, 
                            "t0": 191220, 
                            "v": 110, 
                            "dur": 566, 
                            "type": "note", 
                            "channel": 0
                        }
                    ]
                ], 
                [
                    191340, 
                    [
                        {
                            "pitch": 62, 
                            "t0": 191340, 
                            "v": 110, 
                            "dur": 343, 
                            "type": "note", 
                            "channel": 0
                        }
                    ]
                ], 
                [
                    191520, 
                    [
                        {
                            "pitch": 71, 
                            "t0": 191520, 
                            "v": 110, 
                            "dur": 152, 
                            "type": "note", 
                            "channel": 0
                        }
                    ]
                ], 
                [
                    191700, 
                    [
                        {
                            "pitch": 69, 
                            "t0": 191700, 
                            "v": 110, 
                            "dur": 198, 
                            "type": "note", 
                            "channel": 0
                        }
                    ]
                ], 
                [
                    191820, 
                    [
                        {
                            "pitch": 67, 
                            "t0": 191820, 
                            "v": 110, 
                            "dur": 160, 
                            "type": "note", 
                            "channel": 0
                        }
                    ]
                ], 
                [
                    192000, 
                    [
                        {
                            "pitch": 69, 
                            "t0": 192000, 
                            "v": 110, 
                            "dur": 212, 
                            "type": "note", 
                            "channel": 0
                        }, 
                        {
                            "pitch": 33, 
                            "t0": 192000, 
                            "v": 81, 
                            "dur": 597, 
                            "type": "note", 
                            "channel": 0
                        }, 
                        {
                            "pitch": 45, 
                            "t0": 192000, 
                            "v": 81, 
                            "dur": 632, 
                            "type": "note", 
                            "channel": 0
                        }, 
                        {
                            "pitch": 57, 
                            "t0": 192000, 
                            "parts": [
                                [
                                    192000, 
                                    110
                                ], 
                                [
                                    192480, 
                                    81
                                ], 
                                [
                                    192995, 
                                    0
                                ]
                            ], 
                            "v": 110, 
                            "dur": 995, 
                            "type": "note", 
                            "channel": 0
                        }
                    ]
                ], 
                [
                    192120, 
                    [
                        {
                            "pitch": 60, 
                            "t0": 192120, 
                            "v": 110, 
                            "dur": 1253, 
                            "type": "note", 
                            "channel": 0
                        }
                    ]
                ], 
                [
                    192300, 
                    [
                        {
                            "pitch": 64, 
                            "t0": 192300, 
                            "v": 110, 
                            "dur": 1073, 
                            "type": "note", 
                            "channel": 0
                        }
                    ]
                ], 
                [
                    192480, 
                    [
                        {
                            "pitch": 69, 
                            "t0": 192480, 
                            "v": 110, 
                            "dur": 288, 
                            "type": "note", 
                            "channel": 0
                        }
                    ]
                ], 
                [
                    192780, 
                    [
                        {
                            "pitch": 67, 
                            "t0": 192780, 
                            "v": 110, 
                            "dur": 127, 
                            "type": "note", 
                            "channel": 0
                        }
                    ]
                ], 
                [
                    192960, 
                    [
                        {
                            "pitch": 69, 
                            "t0": 192960, 
                            "v": 110, 
                            "dur": 400, 
                            "type": "note", 
                            "channel": 0
                        }, 
                        {
                            "pitch": 33, 
                            "t0": 192960, 
                            "v": 81, 
                            "dur": 712, 
                            "type": "note", 
                            "channel": 0
                        }, 
                        {
                            "pitch": 45, 
                            "t0": 192960, 
                            "v": 81, 
                            "dur": 756, 
                            "type": "note", 
                            "channel": 0
                        }
                    ]
                ], 
                [
                    193920, 
                    [
                        {
                            "pitch": 79, 
                            "t0": 193920, 
                            "v": 110, 
                            "dur": 151, 
                            "type": "note", 
                            "channel": 0
                        }, 
                        {
                            "pitch": 60, 
                            "t0": 193920, 
                            "parts": [
                                [
                                    193920, 
                                    110
                                ], 
                                [
                                    194400, 
                                    81
                                ], 
                                [
                                    194481, 
                                    0
                                ]
                            ], 
                            "v": 110, 
                            "dur": 561, 
                            "type": "note", 
                            "channel": 0
                        }, 
                        {
                            "pitch": 36, 
                            "t0": 193920, 
                            "v": 81, 
                            "dur": 591, 
                            "type": "note", 
                            "channel": 0
                        }, 
                        {
                            "pitch": 48, 
                            "t0": 193920, 
                            "v": 81, 
                            "dur": 596, 
                            "type": "note", 
                            "channel": 0
                        }
                    ]
                ], 
                [
                    194040, 
                    [
                        {
                            "pitch": 64, 
                            "t0": 194040, 
                            "v": 110, 
                            "dur": 403, 
                            "type": "note", 
                            "channel": 0
                        }
                    ]
                ], 
                [
                    194220, 
                    [
                        {
                            "pitch": 67, 
                            "t0": 194220, 
                            "v": 110, 
                            "dur": 251, 
                            "type": "note", 
                            "channel": 0
                        }
                    ]
                ], 
                [
                    194400, 
                    [
                        {
                            "pitch": 79, 
                            "t0": 194400, 
                            "v": 110, 
                            "dur": 157, 
                            "type": "note", 
                            "channel": 0
                        }
                    ]
                ], 
                [
                    194520, 
                    [
                        {
                            "pitch": 77, 
                            "t0": 194520, 
                            "v": 110, 
                            "dur": 147, 
                            "type": "note", 
                            "channel": 0
                        }
                    ]
                ], 
                [
                    194700, 
                    [
                        {
                            "pitch": 76, 
                            "t0": 194700, 
                            "v": 110, 
                            "dur": 218, 
                            "type": "note", 
                            "channel": 0
                        }
                    ]
                ], 
                [
                    194880, 
                    [
                        {
                            "pitch": 74, 
                            "t0": 194880, 
                            "v": 110, 
                            "dur": 122, 
                            "type": "note", 
                            "channel": 0
                        }, 
                        {
                            "pitch": 31, 
                            "t0": 194880, 
                            "v": 81, 
                            "dur": 623, 
                            "type": "note", 
                            "channel": 0
                        }, 
                        {
                            "pitch": 43, 
                            "t0": 194880, 
                            "v": 81, 
                            "dur": 636, 
                            "type": "note", 
                            "channel": 0
                        }, 
                        {
                            "pitch": 55, 
                            "t0": 194880, 
                            "parts": [
                                [
                                    194880, 
                                    110
                                ], 
                                [
                                    195360, 
                                    81
                                ], 
                                [
                                    195577, 
                                    0
                                ]
                            ], 
                            "v": 110, 
                            "dur": 697, 
                            "type": "note", 
                            "channel": 0
                        }
                    ]
                ], 
                [
                    195000, 
                    [
                        {
                            "pitch": 59, 
                            "t0": 195000, 
                            "v": 110, 
                            "dur": 582, 
                            "type": "note", 
                            "channel": 0
                        }
                    ]
                ], 
                [
                    195180, 
                    [
                        {
                            "pitch": 62, 
                            "t0": 195180, 
                            "v": 110, 
                            "dur": 427, 
                            "type": "note", 
                            "channel": 0
                        }
                    ]
                ], 
                [
                    195360, 
                    [
                        {
                            "pitch": 67, 
                            "t0": 195360, 
                            "v": 110, 
                            "dur": 245, 
                            "type": "note", 
                            "channel": 0
                        }
                    ]
                ], 
                [
                    195840, 
                    [
                        {
                            "pitch": 76, 
                            "t0": 195840, 
                            "v": 110, 
                            "dur": 142, 
                            "type": "note", 
                            "channel": 0
                        }, 
                        {
                            "pitch": 45, 
                            "t0": 195840, 
                            "v": 81, 
                            "dur": 581, 
                            "type": "note", 
                            "channel": 0
                        }, 
                        {
                            "pitch": 57, 
                            "t0": 195840, 
                            "parts": [
                                [
                                    195840, 
                                    110
                                ], 
                                [
                                    196320, 
                                    81
                                ], 
                                [
                                    196422, 
                                    0
                                ]
                            ], 
                            "v": 110, 
                            "dur": 582, 
                            "type": "note", 
                            "channel": 0
                        }, 
                        {
                            "pitch": 33, 
                            "t0": 195840, 
                            "v": 81, 
                            "dur": 608, 
                            "type": "note", 
                            "channel": 0
                        }
                    ]
                ], 
                [
                    195960, 
                    [
                        {
                            "pitch": 60, 
                            "t0": 195960, 
                            "v": 110, 
                            "dur": 486, 
                            "type": "note", 
                            "channel": 0
                        }
                    ]
                ], 
                [
                    196140, 
                    [
                        {
                            "pitch": 64, 
                            "t0": 196140, 
                            "v": 110, 
                            "dur": 262, 
                            "type": "note", 
                            "channel": 0
                        }
                    ]
                ], 
                [
                    196320, 
                    [
                        {
                            "pitch": 76, 
                            "t0": 196320, 
                            "v": 110, 
                            "dur": 176, 
                            "type": "note", 
                            "channel": 0
                        }
                    ]
                ], 
                [
                    196500, 
                    [
                        {
                            "pitch": 74, 
                            "t0": 196500, 
                            "v": 110, 
                            "dur": 147, 
                            "type": "note", 
                            "channel": 0
                        }
                    ]
                ], 
                [
                    196620, 
                    [
                        {
                            "pitch": 72, 
                            "t0": 196620, 
                            "v": 110, 
                            "dur": 201, 
                            "type": "note", 
                            "channel": 0
                        }
                    ]
                ], 
                [
                    196800, 
                    [
                        {
                            "pitch": 71, 
                            "t0": 196800, 
                            "v": 110, 
                            "dur": 131, 
                            "type": "note", 
                            "channel": 0
                        }, 
                        {
                            "pitch": 28, 
                            "t0": 196800, 
                            "v": 81, 
                            "dur": 631, 
                            "type": "note", 
                            "channel": 0
                        }, 
                        {
                            "pitch": 40, 
                            "t0": 196800, 
                            "v": 81, 
                            "dur": 642, 
                            "type": "note", 
                            "channel": 0
                        }, 
                        {
                            "pitch": 52, 
                            "t0": 196800, 
                            "parts": [
                                [
                                    196800, 
                                    110
                                ], 
                                [
                                    197280, 
                                    81
                                ], 
                                [
                                    197491, 
                                    0
                                ]
                            ], 
                            "v": 110, 
                            "dur": 691, 
                            "type": "note", 
                            "channel": 0
                        }
                    ]
                ], 
                [
                    196920, 
                    [
                        {
                            "pitch": 55, 
                            "t0": 196920, 
                            "v": 110, 
                            "dur": 580, 
                            "type": "note", 
                            "channel": 0
                        }
                    ]
                ], 
                [
                    197040, 
                    [
                        {
                            "pitch": 59, 
                            "t0": 197040, 
                            "v": 110, 
                            "dur": 442, 
                            "type": "note", 
                            "channel": 0
                        }
                    ]
                ], 
                [
                    197280, 
                    [
                        {
                            "pitch": 64, 
                            "t0": 197280, 
                            "v": 110, 
                            "dur": 186, 
                            "type": "note", 
                            "channel": 0
                        }
                    ]
                ], 
                [
                    197760, 
                    [
                        {
                            "pitch": 69, 
                            "t0": 197760, 
                            "v": 110, 
                            "dur": 161, 
                            "type": "note", 
                            "channel": 0
                        }, 
                        {
                            "pitch": 53, 
                            "t0": 197760, 
                            "v": 110, 
                            "dur": 460, 
                            "type": "note", 
                            "channel": 0
                        }, 
                        {
                            "pitch": 29, 
                            "t0": 197760, 
                            "v": 81, 
                            "dur": 571, 
                            "type": "note", 
                            "channel": 0
                        }, 
                        {
                            "pitch": 41, 
                            "t0": 197760, 
                            "v": 81, 
                            "dur": 608, 
                            "type": "note", 
                            "channel": 0
                        }
                    ]
                ], 
                [
                    197880, 
                    [
                        {
                            "pitch": 57, 
                            "t0": 197880, 
                            "v": 110, 
                            "dur": 385, 
                            "type": "note", 
                            "channel": 0
                        }
                    ]
                ], 
                [
                    198060, 
                    [
                        {
                            "pitch": 60, 
                            "t0": 198060, 
                            "v": 110, 
                            "dur": 190, 
                            "type": "note", 
                            "channel": 0
                        }
                    ]
                ], 
                [
                    198240, 
                    [
                        {
                            "pitch": 69, 
                            "t0": 198240, 
                            "v": 110, 
                            "dur": 160, 
                            "type": "note", 
                            "channel": 0
                        }, 
                        {
                            "pitch": 53, 
                            "t0": 198240, 
                            "v": 81, 
                            "dur": 486, 
                            "type": "note", 
                            "channel": 0
                        }
                    ]
                ], 
                [
                    198420, 
                    [
                        {
                            "pitch": 71, 
                            "t0": 198420, 
                            "v": 110, 
                            "dur": 147, 
                            "type": "note", 
                            "channel": 0
                        }
                    ]
                ], 
                [
                    198540, 
                    [
                        {
                            "pitch": 72, 
                            "t0": 198540, 
                            "v": 110, 
                            "dur": 241, 
                            "type": "note", 
                            "channel": 0
                        }
                    ]
                ], 
                [
                    198720, 
                    [
                        {
                            "pitch": 71, 
                            "t0": 198720, 
                            "v": 110, 
                            "dur": 117, 
                            "type": "note", 
                            "channel": 0
                        }, 
                        {
                            "pitch": 55, 
                            "t0": 198720, 
                            "parts": [
                                [
                                    198720, 
                                    110
                                ], 
                                [
                                    199200, 
                                    81
                                ], 
                                [
                                    199241, 
                                    0
                                ]
                            ], 
                            "v": 110, 
                            "dur": 521, 
                            "type": "note", 
                            "channel": 0
                        }, 
                        {
                            "pitch": 31, 
                            "t0": 198720, 
                            "v": 81, 
                            "dur": 616, 
                            "type": "note", 
                            "channel": 0
                        }, 
                        {
                            "pitch": 43, 
                            "t0": 198720, 
                            "v": 81, 
                            "dur": 647, 
                            "type": "note", 
                            "channel": 0
                        }
                    ]
                ], 
                [
                    198840, 
                    [
                        {
                            "pitch": 59, 
                            "t0": 198840, 
                            "v": 110, 
                            "dur": 482, 
                            "type": "note", 
                            "channel": 0
                        }
                    ]
                ], 
                [
                    199020, 
                    [
                        {
                            "pitch": 62, 
                            "t0": 199020, 
                            "v": 110, 
                            "dur": 236, 
                            "type": "note", 
                            "channel": 0
                        }
                    ]
                ], 
                [
                    199200, 
                    [
                        {
                            "pitch": 71, 
                            "t0": 199200, 
                            "v": 110, 
                            "dur": 152, 
                            "type": "note", 
                            "channel": 0
                        }
                    ]
                ], 
                [
                    199380, 
                    [
                        {
                            "pitch": 69, 
                            "t0": 199380, 
                            "v": 110, 
                            "dur": 135, 
                            "type": "note", 
                            "channel": 0
                        }
                    ]
                ], 
                [
                    199500, 
                    [
                        {
                            "pitch": 67, 
                            "t0": 199500, 
                            "v": 110, 
                            "dur": 133, 
                            "type": "note", 
                            "channel": 0
                        }
                    ]
                ], 
                [
                    199680, 
                    [
                        {
                            "pitch": 69, 
                            "t0": 199680, 
                            "v": 110, 
                            "dur": 343, 
                            "type": "note", 
                            "channel": 0
                        }, 
                        {
                            "pitch": 33, 
                            "t0": 199680, 
                            "v": 81, 
                            "dur": 548, 
                            "type": "note", 
                            "channel": 0
                        }, 
                        {
                            "pitch": 45, 
                            "t0": 199680, 
                            "v": 81, 
                            "dur": 567, 
                            "type": "note", 
                            "channel": 0
                        }, 
                        {
                            "pitch": 57, 
                            "t0": 199680, 
                            "parts": [
                                [
                                    199680, 
                                    110
                                ], 
                                [
                                    200160, 
                                    81
                                ], 
                                [
                                    200643, 
                                    0
                                ]
                            ], 
                            "v": 110, 
                            "dur": 963, 
                            "type": "note", 
                            "channel": 0
                        }
                    ]
                ], 
                [
                    199800, 
                    [
                        {
                            "pitch": 60, 
                            "t0": 199800, 
                            "v": 110, 
                            "dur": 1152, 
                            "type": "note", 
                            "channel": 0
                        }
                    ]
                ], 
                [
                    199980, 
                    [
                        {
                            "pitch": 64, 
                            "t0": 199980, 
                            "v": 109, 
                            "dur": 895, 
                            "type": "note", 
                            "channel": 0
                        }
                    ]
                ], 
                [
                    200160, 
                    [
                        {
                            "pitch": 69, 
                            "t0": 200160, 
                            "v": 109, 
                            "dur": 273, 
                            "type": "note", 
                            "channel": 0
                        }
                    ]
                ], 
                [
                    200460, 
                    [
                        {
                            "pitch": 67, 
                            "t0": 200460, 
                            "v": 109, 
                            "dur": 150, 
                            "type": "note", 
                            "channel": 0
                        }
                    ]
                ], 
                [
                    200640, 
                    [
                        {
                            "pitch": 69, 
                            "t0": 200640, 
                            "v": 109, 
                            "dur": 226, 
                            "type": "note", 
                            "channel": 0
                        }, 
                        {
                            "pitch": 33, 
                            "t0": 200640, 
                            "v": 81, 
                            "dur": 927, 
                            "type": "note", 
                            "channel": 0
                        }, 
                        {
                            "pitch": 45, 
                            "t0": 200640, 
                            "v": 81, 
                            "dur": 950, 
                            "type": "note", 
                            "channel": 0
                        }
                    ]
                ], 
                [
                    201600, 
                    [
                        {
                            "pitch": 36, 
                            "t0": 201600, 
                            "v": 82, 
                            "dur": 672, 
                            "type": "note", 
                            "channel": 0
                        }, 
                        {
                            "pitch": 48, 
                            "t0": 201600, 
                            "v": 82, 
                            "dur": 676, 
                            "type": "note", 
                            "channel": 0
                        }, 
                        {
                            "pitch": 60, 
                            "t0": 201600, 
                            "parts": [
                                [
                                    201600, 
                                    111
                                ], 
                                [
                                    202080, 
                                    82
                                ], 
                                [
                                    202583, 
                                    0
                                ]
                            ], 
                            "v": 111, 
                            "dur": 983, 
                            "type": "note", 
                            "channel": 0
                        }
                    ]
                ], 
                [
                    201720, 
                    [
                        {
                            "pitch": 64, 
                            "t0": 201720, 
                            "v": 111, 
                            "dur": 941, 
                            "type": "note", 
                            "channel": 0
                        }
                    ]
                ], 
                [
                    201900, 
                    [
                        {
                            "pitch": 67, 
                            "t0": 201900, 
                            "v": 111, 
                            "dur": 743, 
                            "type": "note", 
                            "channel": 0
                        }
                    ]
                ], 
                [
                    202080, 
                    [
                        {
                            "pitch": 72, 
                            "t0": 202080, 
                            "v": 110, 
                            "dur": 310, 
                            "type": "note", 
                            "channel": 0
                        }
                    ]
                ], 
                [
                    202380, 
                    [
                        {
                            "pitch": 79, 
                            "t0": 202380, 
                            "v": 110, 
                            "dur": 198, 
                            "type": "note", 
                            "channel": 0
                        }
                    ]
                ], 
                [
                    202560, 
                    [
                        {
                            "pitch": 77, 
                            "t0": 202560, 
                            "v": 110, 
                            "dur": 343, 
                            "type": "note", 
                            "channel": 0
                        }, 
                        {
                            "pitch": 48, 
                            "t0": 202560, 
                            "v": 82, 
                            "dur": 563, 
                            "type": "note", 
                            "channel": 0
                        }, 
                        {
                            "pitch": 36, 
                            "t0": 202560, 
                            "v": 82, 
                            "dur": 576, 
                            "type": "note", 
                            "channel": 0
                        }
                    ]
                ], 
                [
                    202860, 
                    [
                        {
                            "pitch": 76, 
                            "t0": 202860, 
                            "v": 110, 
                            "dur": 186, 
                            "type": "note", 
                            "channel": 0
                        }
                    ]
                ], 
                [
                    203040, 
                    [
                        {
                            "pitch": 74, 
                            "t0": 203040, 
                            "v": 110, 
                            "dur": 346, 
                            "type": "note", 
                            "channel": 0
                        }, 
                        {
                            "pitch": 60, 
                            "t0": 203040, 
                            "v": 82, 
                            "dur": 475, 
                            "type": "note", 
                            "channel": 0
                        }
                    ]
                ], 
                [
                    203340, 
                    [
                        {
                            "pitch": 72, 
                            "t0": 203340, 
                            "v": 110, 
                            "dur": 127, 
                            "type": "note", 
                            "channel": 0
                        }
                    ]
                ], 
                [
                    203520, 
                    [
                        {
                            "pitch": 31, 
                            "t0": 203520, 
                            "v": 82, 
                            "dur": 587, 
                            "type": "note", 
                            "channel": 0
                        }, 
                        {
                            "pitch": 43, 
                            "t0": 203520, 
                            "v": 82, 
                            "dur": 591, 
                            "type": "note", 
                            "channel": 0
                        }, 
                        {
                            "pitch": 55, 
                            "t0": 203520, 
                            "parts": [
                                [
                                    203520, 
                                    110
                                ], 
                                [
                                    204000, 
                                    82
                                ], 
                                [
                                    204521, 
                                    0
                                ]
                            ], 
                            "v": 110, 
                            "dur": 1001, 
                            "type": "note", 
                            "channel": 0
                        }
                    ]
                ], 
                [
                    203640, 
                    [
                        {
                            "pitch": 59, 
                            "t0": 203640, 
                            "v": 110, 
                            "dur": 1348, 
                            "type": "note", 
                            "channel": 0
                        }
                    ]
                ], 
                [
                    203820, 
                    [
                        {
                            "pitch": 62, 
                            "t0": 203820, 
                            "v": 110, 
                            "dur": 1170, 
                            "type": "note", 
                            "channel": 0
                        }
                    ]
                ], 
                [
                    204000, 
                    [
                        {
                            "pitch": 67, 
                            "t0": 204000, 
                            "v": 110, 
                            "dur": 331, 
                            "type": "note", 
                            "channel": 0
                        }
                    ]
                ], 
                [
                    204300, 
                    [
                        {
                            "pitch": 74, 
                            "t0": 204300, 
                            "v": 110, 
                            "dur": 206, 
                            "type": "note", 
                            "channel": 0
                        }
                    ]
                ], 
                [
                    204480, 
                    [
                        {
                            "pitch": 72, 
                            "t0": 204480, 
                            "v": 110, 
                            "dur": 490, 
                            "type": "note", 
                            "channel": 0
                        }, 
                        {
                            "pitch": 31, 
                            "t0": 204480, 
                            "v": 82, 
                            "dur": 547, 
                            "type": "note", 
                            "channel": 0
                        }, 
                        {
                            "pitch": 43, 
                            "t0": 204480, 
                            "v": 82, 
                            "dur": 586, 
                            "type": "note", 
                            "channel": 0
                        }
                    ]
                ], 
                [
                    204960, 
                    [
                        {
                            "pitch": 55, 
                            "t0": 204960, 
                            "v": 82, 
                            "dur": 18, 
                            "type": "note", 
                            "channel": 0
                        }, 
                        {
                            "pitch": 71, 
                            "t0": 204960, 
                            "v": 110, 
                            "dur": 143, 
                            "type": "note", 
                            "channel": 0
                        }
                    ]
                ], 
                [
                    205440, 
                    [
                        {
                            "pitch": 33, 
                            "t0": 205440, 
                            "v": 82, 
                            "dur": 605, 
                            "type": "note", 
                            "channel": 0
                        }, 
                        {
                            "pitch": 45, 
                            "t0": 205440, 
                            "v": 82, 
                            "dur": 631, 
                            "type": "note", 
                            "channel": 0
                        }, 
                        {
                            "pitch": 57, 
                            "t0": 205440, 
                            "parts": [
                                [
                                    205440, 
                                    110
                                ], 
                                [
                                    205920, 
                                    82
                                ], 
                                [
                                    206437, 
                                    0
                                ]
                            ], 
                            "v": 110, 
                            "dur": 997, 
                            "type": "note", 
                            "channel": 0
                        }
                    ]
                ], 
                [
                    205560, 
                    [
                        {
                            "pitch": 60, 
                            "t0": 205560, 
                            "v": 110, 
                            "dur": 1373, 
                            "type": "note", 
                            "channel": 0
                        }
                    ]
                ], 
                [
                    205740, 
                    [
                        {
                            "pitch": 64, 
                            "t0": 205740, 
                            "v": 110, 
                            "dur": 1187, 
                            "type": "note", 
                            "channel": 0
                        }
                    ]
                ], 
                [
                    205920, 
                    [
                        {
                            "pitch": 69, 
                            "t0": 205920, 
                            "v": 110, 
                            "dur": 305, 
                            "type": "note", 
                            "channel": 0
                        }
                    ]
                ], 
                [
                    206220, 
                    [
                        {
                            "pitch": 76, 
                            "t0": 206220, 
                            "v": 110, 
                            "dur": 215, 
                            "type": "note", 
                            "channel": 0
                        }
                    ]
                ], 
                [
                    206400, 
                    [
                        {
                            "pitch": 74, 
                            "t0": 206400, 
                            "v": 110, 
                            "dur": 333, 
                            "type": "note", 
                            "channel": 0
                        }, 
                        {
                            "pitch": 33, 
                            "t0": 206400, 
                            "v": 81, 
                            "dur": 576, 
                            "type": "note", 
                            "channel": 0
                        }, 
                        {
                            "pitch": 45, 
                            "t0": 206400, 
                            "v": 81, 
                            "dur": 582, 
                            "type": "note", 
                            "channel": 0
                        }
                    ]
                ], 
                [
                    206700, 
                    [
                        {
                            "pitch": 72, 
                            "t0": 206700, 
                            "v": 110, 
                            "dur": 218, 
                            "type": "note", 
                            "channel": 0
                        }
                    ]
                ], 
                [
                    206880, 
                    [
                        {
                            "pitch": 57, 
                            "t0": 206880, 
                            "v": 81, 
                            "dur": 63, 
                            "type": "note", 
                            "channel": 0
                        }, 
                        {
                            "pitch": 71, 
                            "t0": 206880, 
                            "v": 110, 
                            "dur": 358, 
                            "type": "note", 
                            "channel": 0
                        }
                    ]
                ], 
                [
                    207180, 
                    [
                        {
                            "pitch": 69, 
                            "t0": 207180, 
                            "v": 110, 
                            "dur": 140, 
                            "type": "note", 
                            "channel": 0
                        }
                    ]
                ], 
                [
                    207360, 
                    [
                        {
                            "pitch": 40, 
                            "t0": 207360, 
                            "v": 81, 
                            "dur": 581, 
                            "type": "note", 
                            "channel": 0
                        }, 
                        {
                            "pitch": 28, 
                            "t0": 207360, 
                            "v": 81, 
                            "dur": 582, 
                            "type": "note", 
                            "channel": 0
                        }, 
                        {
                            "pitch": 52, 
                            "t0": 207360, 
                            "parts": [
                                [
                                    207360, 
                                    110
                                ], 
                                [
                                    207840, 
                                    81
                                ], 
                                [
                                    208400, 
                                    0
                                ]
                            ], 
                            "v": 110, 
                            "dur": 1040, 
                            "type": "note", 
                            "channel": 0
                        }
                    ]
                ], 
                [
                    207480, 
                    [
                        {
                            "pitch": 55, 
                            "t0": 207480, 
                            "v": 110, 
                            "dur": 1213, 
                            "type": "note", 
                            "channel": 0
                        }
                    ]
                ], 
                [
                    207660, 
                    [
                        {
                            "pitch": 59, 
                            "t0": 207660, 
                            "v": 110, 
                            "dur": 995, 
                            "type": "note", 
                            "channel": 0
                        }
                    ]
                ], 
                [
                    207840, 
                    [
                        {
                            "pitch": 64, 
                            "t0": 207840, 
                            "v": 110, 
                            "dur": 292, 
                            "type": "note", 
                            "channel": 0
                        }
                    ]
                ], 
                [
                    208140, 
                    [
                        {
                            "pitch": 71, 
                            "t0": 208140, 
                            "v": 110, 
                            "dur": 218, 
                            "type": "note", 
                            "channel": 0
                        }
                    ]
                ], 
                [
                    208320, 
                    [
                        {
                            "pitch": 69, 
                            "t0": 208320, 
                            "v": 110, 
                            "dur": 480, 
                            "type": "note", 
                            "channel": 0
                        }, 
                        {
                            "pitch": 28, 
                            "t0": 208320, 
                            "v": 81, 
                            "dur": 567, 
                            "type": "note", 
                            "channel": 0
                        }, 
                        {
                            "pitch": 40, 
                            "t0": 208320, 
                            "v": 81, 
                            "dur": 590, 
                            "type": "note", 
                            "channel": 0
                        }
                    ]
                ], 
                [
                    208800, 
                    [
                        {
                            "pitch": 67, 
                            "t0": 208800, 
                            "v": 110, 
                            "dur": 101, 
                            "type": "note", 
                            "channel": 0
                        }, 
                        {
                            "pitch": 52, 
                            "t0": 208800, 
                            "v": 81, 
                            "dur": 523, 
                            "type": "note", 
                            "channel": 0
                        }
                    ]
                ], 
                [
                    209280, 
                    [
                        {
                            "pitch": 69, 
                            "t0": 209280, 
                            "v": 110, 
                            "dur": 140, 
                            "type": "note", 
                            "channel": 0
                        }, 
                        {
                            "pitch": 29, 
                            "t0": 209280, 
                            "v": 81, 
                            "dur": 537, 
                            "type": "note", 
                            "channel": 0
                        }, 
                        {
                            "pitch": 41, 
                            "t0": 209280, 
                            "v": 81, 
                            "dur": 577, 
                            "type": "note", 
                            "channel": 0
                        }, 
                        {
                            "pitch": 53, 
                            "t0": 209280, 
                            "parts": [
                                [
                                    209280, 
                                    110
                                ], 
                                [
                                    209760, 
                                    81
                                ], 
                                [
                                    209983, 
                                    0
                                ]
                            ], 
                            "v": 110, 
                            "dur": 703, 
                            "type": "note", 
                            "channel": 0
                        }
                    ]
                ], 
                [
                    209400, 
                    [
                        {
                            "pitch": 57, 
                            "t0": 209400, 
                            "v": 110, 
                            "dur": 642, 
                            "type": "note", 
                            "channel": 0
                        }
                    ]
                ], 
                [
                    209580, 
                    [
                        {
                            "pitch": 60, 
                            "t0": 209580, 
                            "v": 110, 
                            "dur": 417, 
                            "type": "note", 
                            "channel": 0
                        }
                    ]
                ], 
                [
                    209760, 
                    [
                        {
                            "pitch": 69, 
                            "t0": 209760, 
                            "v": 110, 
                            "dur": 133, 
                            "type": "note", 
                            "channel": 0
                        }
                    ]
                ], 
                [
                    209940, 
                    [
                        {
                            "pitch": 71, 
                            "t0": 209940, 
                            "v": 110, 
                            "dur": 147, 
                            "type": "note", 
                            "channel": 0
                        }
                    ]
                ], 
                [
                    210060, 
                    [
                        {
                            "pitch": 72, 
                            "t0": 210060, 
                            "v": 110, 
                            "dur": 221, 
                            "type": "note", 
                            "channel": 0
                        }
                    ]
                ], 
                [
                    210240, 
                    [
                        {
                            "pitch": 71, 
                            "t0": 210240, 
                            "v": 110, 
                            "dur": 140, 
                            "type": "note", 
                            "channel": 0
                        }, 
                        {
                            "pitch": 31, 
                            "t0": 210240, 
                            "v": 81, 
                            "dur": 582, 
                            "type": "note", 
                            "channel": 0
                        }, 
                        {
                            "pitch": 43, 
                            "t0": 210240, 
                            "v": 81, 
                            "dur": 597, 
                            "type": "note", 
                            "channel": 0
                        }, 
                        {
                            "pitch": 55, 
                            "t0": 210240, 
                            "parts": [
                                [
                                    210240, 
                                    110
                                ], 
                                [
                                    210720, 
                                    81
                                ], 
                                [
                                    210890, 
                                    0
                                ]
                            ], 
                            "v": 110, 
                            "dur": 650, 
                            "type": "note", 
                            "channel": 0
                        }
                    ]
                ], 
                [
                    210420, 
                    [
                        {
                            "pitch": 59, 
                            "t0": 210420, 
                            "v": 110, 
                            "dur": 566, 
                            "type": "note", 
                            "channel": 0
                        }
                    ]
                ], 
                [
                    210540, 
                    [
                        {
                            "pitch": 62, 
                            "t0": 210540, 
                            "v": 110, 
                            "dur": 343, 
                            "type": "note", 
                            "channel": 0
                        }
                    ]
                ], 
                [
                    210720, 
                    [
                        {
                            "pitch": 71, 
                            "t0": 210720, 
                            "v": 110, 
                            "dur": 152, 
                            "type": "note", 
                            "channel": 0
                        }
                    ]
                ], 
                [
                    210900, 
                    [
                        {
                            "pitch": 69, 
                            "t0": 210900, 
                            "v": 110, 
                            "dur": 198, 
                            "type": "note", 
                            "channel": 0
                        }
                    ]
                ], 
                [
                    211020, 
                    [
                        {
                            "pitch": 67, 
                            "t0": 211020, 
                            "v": 110, 
                            "dur": 160, 
                            "type": "note", 
                            "channel": 0
                        }
                    ]
                ], 
                [
                    211200, 
                    [
                        {
                            "pitch": 69, 
                            "t0": 211200, 
                            "v": 110, 
                            "dur": 212, 
                            "type": "note", 
                            "channel": 0
                        }, 
                        {
                            "pitch": 33, 
                            "t0": 211200, 
                            "v": 81, 
                            "dur": 597, 
                            "type": "note", 
                            "channel": 0
                        }, 
                        {
                            "pitch": 45, 
                            "t0": 211200, 
                            "v": 81, 
                            "dur": 632, 
                            "type": "note", 
                            "channel": 0
                        }, 
                        {
                            "pitch": 57, 
                            "t0": 211200, 
                            "parts": [
                                [
                                    211200, 
                                    110
                                ], 
                                [
                                    211680, 
                                    81
                                ], 
                                [
                                    212195, 
                                    0
                                ]
                            ], 
                            "v": 110, 
                            "dur": 995, 
                            "type": "note", 
                            "channel": 0
                        }
                    ]
                ], 
                [
                    211320, 
                    [
                        {
                            "pitch": 60, 
                            "t0": 211320, 
                            "v": 110, 
                            "dur": 1253, 
                            "type": "note", 
                            "channel": 0
                        }
                    ]
                ], 
                [
                    211500, 
                    [
                        {
                            "pitch": 64, 
                            "t0": 211500, 
                            "v": 110, 
                            "dur": 1073, 
                            "type": "note", 
                            "channel": 0
                        }
                    ]
                ], 
                [
                    211680, 
                    [
                        {
                            "pitch": 69, 
                            "t0": 211680, 
                            "v": 110, 
                            "dur": 288, 
                            "type": "note", 
                            "channel": 0
                        }
                    ]
                ], 
                [
                    211980, 
                    [
                        {
                            "pitch": 67, 
                            "t0": 211980, 
                            "v": 110, 
                            "dur": 127, 
                            "type": "note", 
                            "channel": 0
                        }
                    ]
                ], 
                [
                    212160, 
                    [
                        {
                            "pitch": 69, 
                            "t0": 212160, 
                            "v": 110, 
                            "dur": 400, 
                            "type": "note", 
                            "channel": 0
                        }, 
                        {
                            "pitch": 33, 
                            "t0": 212160, 
                            "v": 81, 
                            "dur": 712, 
                            "type": "note", 
                            "channel": 0
                        }, 
                        {
                            "pitch": 45, 
                            "t0": 212160, 
                            "v": 81, 
                            "dur": 756, 
                            "type": "note", 
                            "channel": 0
                        }
                    ]
                ], 
                [
                    213120, 
                    [
                        {
                            "pitch": 79, 
                            "t0": 213120, 
                            "v": 110, 
                            "dur": 151, 
                            "type": "note", 
                            "channel": 0
                        }, 
                        {
                            "pitch": 60, 
                            "t0": 213120, 
                            "parts": [
                                [
                                    213120, 
                                    110
                                ], 
                                [
                                    213600, 
                                    81
                                ], 
                                [
                                    213681, 
                                    0
                                ]
                            ], 
                            "v": 110, 
                            "dur": 561, 
                            "type": "note", 
                            "channel": 0
                        }, 
                        {
                            "pitch": 36, 
                            "t0": 213120, 
                            "v": 81, 
                            "dur": 591, 
                            "type": "note", 
                            "channel": 0
                        }, 
                        {
                            "pitch": 48, 
                            "t0": 213120, 
                            "v": 81, 
                            "dur": 596, 
                            "type": "note", 
                            "channel": 0
                        }
                    ]
                ], 
                [
                    213240, 
                    [
                        {
                            "pitch": 64, 
                            "t0": 213240, 
                            "v": 110, 
                            "dur": 403, 
                            "type": "note", 
                            "channel": 0
                        }
                    ]
                ], 
                [
                    213420, 
                    [
                        {
                            "pitch": 67, 
                            "t0": 213420, 
                            "v": 110, 
                            "dur": 251, 
                            "type": "note", 
                            "channel": 0
                        }
                    ]
                ], 
                [
                    213600, 
                    [
                        {
                            "pitch": 79, 
                            "t0": 213600, 
                            "v": 110, 
                            "dur": 157, 
                            "type": "note", 
                            "channel": 0
                        }
                    ]
                ], 
                [
                    213720, 
                    [
                        {
                            "pitch": 77, 
                            "t0": 213720, 
                            "v": 110, 
                            "dur": 147, 
                            "type": "note", 
                            "channel": 0
                        }
                    ]
                ], 
                [
                    213900, 
                    [
                        {
                            "pitch": 76, 
                            "t0": 213900, 
                            "v": 110, 
                            "dur": 218, 
                            "type": "note", 
                            "channel": 0
                        }
                    ]
                ], 
                [
                    214080, 
                    [
                        {
                            "pitch": 74, 
                            "t0": 214080, 
                            "v": 110, 
                            "dur": 122, 
                            "type": "note", 
                            "channel": 0
                        }, 
                        {
                            "pitch": 31, 
                            "t0": 214080, 
                            "v": 81, 
                            "dur": 623, 
                            "type": "note", 
                            "channel": 0
                        }, 
                        {
                            "pitch": 43, 
                            "t0": 214080, 
                            "v": 81, 
                            "dur": 636, 
                            "type": "note", 
                            "channel": 0
                        }, 
                        {
                            "pitch": 55, 
                            "t0": 214080, 
                            "parts": [
                                [
                                    214080, 
                                    110
                                ], 
                                [
                                    214560, 
                                    81
                                ], 
                                [
                                    214777, 
                                    0
                                ]
                            ], 
                            "v": 110, 
                            "dur": 697, 
                            "type": "note", 
                            "channel": 0
                        }
                    ]
                ], 
                [
                    214200, 
                    [
                        {
                            "pitch": 59, 
                            "t0": 214200, 
                            "v": 110, 
                            "dur": 582, 
                            "type": "note", 
                            "channel": 0
                        }
                    ]
                ], 
                [
                    214380, 
                    [
                        {
                            "pitch": 62, 
                            "t0": 214380, 
                            "v": 110, 
                            "dur": 427, 
                            "type": "note", 
                            "channel": 0
                        }
                    ]
                ], 
                [
                    214560, 
                    [
                        {
                            "pitch": 67, 
                            "t0": 214560, 
                            "v": 110, 
                            "dur": 245, 
                            "type": "note", 
                            "channel": 0
                        }
                    ]
                ], 
                [
                    215040, 
                    [
                        {
                            "pitch": 76, 
                            "t0": 215040, 
                            "v": 110, 
                            "dur": 142, 
                            "type": "note", 
                            "channel": 0
                        }, 
                        {
                            "pitch": 45, 
                            "t0": 215040, 
                            "v": 81, 
                            "dur": 581, 
                            "type": "note", 
                            "channel": 0
                        }, 
                        {
                            "pitch": 57, 
                            "t0": 215040, 
                            "parts": [
                                [
                                    215040, 
                                    110
                                ], 
                                [
                                    215520, 
                                    81
                                ], 
                                [
                                    215622, 
                                    0
                                ]
                            ], 
                            "v": 110, 
                            "dur": 582, 
                            "type": "note", 
                            "channel": 0
                        }, 
                        {
                            "pitch": 33, 
                            "t0": 215040, 
                            "v": 81, 
                            "dur": 608, 
                            "type": "note", 
                            "channel": 0
                        }
                    ]
                ], 
                [
                    215160, 
                    [
                        {
                            "pitch": 60, 
                            "t0": 215160, 
                            "v": 110, 
                            "dur": 486, 
                            "type": "note", 
                            "channel": 0
                        }
                    ]
                ], 
                [
                    215340, 
                    [
                        {
                            "pitch": 64, 
                            "t0": 215340, 
                            "v": 110, 
                            "dur": 262, 
                            "type": "note", 
                            "channel": 0
                        }
                    ]
                ], 
                [
                    215520, 
                    [
                        {
                            "pitch": 76, 
                            "t0": 215520, 
                            "v": 110, 
                            "dur": 176, 
                            "type": "note", 
                            "channel": 0
                        }
                    ]
                ], 
                [
                    215700, 
                    [
                        {
                            "pitch": 74, 
                            "t0": 215700, 
                            "v": 110, 
                            "dur": 147, 
                            "type": "note", 
                            "channel": 0
                        }
                    ]
                ], 
                [
                    215820, 
                    [
                        {
                            "pitch": 72, 
                            "t0": 215820, 
                            "v": 110, 
                            "dur": 201, 
                            "type": "note", 
                            "channel": 0
                        }
                    ]
                ], 
                [
                    216000, 
                    [
                        {
                            "pitch": 71, 
                            "t0": 216000, 
                            "v": 110, 
                            "dur": 131, 
                            "type": "note", 
                            "channel": 0
                        }, 
                        {
                            "pitch": 28, 
                            "t0": 216000, 
                            "v": 81, 
                            "dur": 631, 
                            "type": "note", 
                            "channel": 0
                        }, 
                        {
                            "pitch": 40, 
                            "t0": 216000, 
                            "v": 81, 
                            "dur": 642, 
                            "type": "note", 
                            "channel": 0
                        }, 
                        {
                            "pitch": 52, 
                            "t0": 216000, 
                            "parts": [
                                [
                                    216000, 
                                    110
                                ], 
                                [
                                    216480, 
                                    81
                                ], 
                                [
                                    216691, 
                                    0
                                ]
                            ], 
                            "v": 110, 
                            "dur": 691, 
                            "type": "note", 
                            "channel": 0
                        }
                    ]
                ], 
                [
                    216120, 
                    [
                        {
                            "pitch": 55, 
                            "t0": 216120, 
                            "v": 110, 
                            "dur": 580, 
                            "type": "note", 
                            "channel": 0
                        }
                    ]
                ], 
                [
                    216240, 
                    [
                        {
                            "pitch": 59, 
                            "t0": 216240, 
                            "v": 110, 
                            "dur": 442, 
                            "type": "note", 
                            "channel": 0
                        }
                    ]
                ], 
                [
                    216480, 
                    [
                        {
                            "pitch": 64, 
                            "t0": 216480, 
                            "v": 110, 
                            "dur": 186, 
                            "type": "note", 
                            "channel": 0
                        }
                    ]
                ], 
                [
                    216960, 
                    [
                        {
                            "pitch": 69, 
                            "t0": 216960, 
                            "v": 110, 
                            "dur": 161, 
                            "type": "note", 
                            "channel": 0
                        }, 
                        {
                            "pitch": 53, 
                            "t0": 216960, 
                            "v": 110, 
                            "dur": 460, 
                            "type": "note", 
                            "channel": 0
                        }, 
                        {
                            "pitch": 29, 
                            "t0": 216960, 
                            "v": 81, 
                            "dur": 571, 
                            "type": "note", 
                            "channel": 0
                        }, 
                        {
                            "pitch": 41, 
                            "t0": 216960, 
                            "v": 81, 
                            "dur": 608, 
                            "type": "note", 
                            "channel": 0
                        }
                    ]
                ], 
                [
                    217080, 
                    [
                        {
                            "pitch": 57, 
                            "t0": 217080, 
                            "v": 110, 
                            "dur": 385, 
                            "type": "note", 
                            "channel": 0
                        }
                    ]
                ], 
                [
                    217260, 
                    [
                        {
                            "pitch": 60, 
                            "t0": 217260, 
                            "v": 110, 
                            "dur": 190, 
                            "type": "note", 
                            "channel": 0
                        }
                    ]
                ], 
                [
                    217440, 
                    [
                        {
                            "pitch": 69, 
                            "t0": 217440, 
                            "v": 110, 
                            "dur": 160, 
                            "type": "note", 
                            "channel": 0
                        }, 
                        {
                            "pitch": 53, 
                            "t0": 217440, 
                            "v": 81, 
                            "dur": 486, 
                            "type": "note", 
                            "channel": 0
                        }
                    ]
                ], 
                [
                    217620, 
                    [
                        {
                            "pitch": 71, 
                            "t0": 217620, 
                            "v": 110, 
                            "dur": 147, 
                            "type": "note", 
                            "channel": 0
                        }
                    ]
                ], 
                [
                    217740, 
                    [
                        {
                            "pitch": 72, 
                            "t0": 217740, 
                            "v": 110, 
                            "dur": 241, 
                            "type": "note", 
                            "channel": 0
                        }
                    ]
                ], 
                [
                    217920, 
                    [
                        {
                            "pitch": 71, 
                            "t0": 217920, 
                            "v": 110, 
                            "dur": 117, 
                            "type": "note", 
                            "channel": 0
                        }, 
                        {
                            "pitch": 55, 
                            "t0": 217920, 
                            "parts": [
                                [
                                    217920, 
                                    110
                                ], 
                                [
                                    218400, 
                                    81
                                ], 
                                [
                                    218441, 
                                    0
                                ]
                            ], 
                            "v": 110, 
                            "dur": 521, 
                            "type": "note", 
                            "channel": 0
                        }, 
                        {
                            "pitch": 31, 
                            "t0": 217920, 
                            "v": 81, 
                            "dur": 616, 
                            "type": "note", 
                            "channel": 0
                        }, 
                        {
                            "pitch": 43, 
                            "t0": 217920, 
                            "v": 81, 
                            "dur": 647, 
                            "type": "note", 
                            "channel": 0
                        }
                    ]
                ], 
                [
                    218040, 
                    [
                        {
                            "pitch": 59, 
                            "t0": 218040, 
                            "v": 110, 
                            "dur": 482, 
                            "type": "note", 
                            "channel": 0
                        }
                    ]
                ], 
                [
                    218220, 
                    [
                        {
                            "pitch": 62, 
                            "t0": 218220, 
                            "v": 110, 
                            "dur": 236, 
                            "type": "note", 
                            "channel": 0
                        }
                    ]
                ], 
                [
                    218400, 
                    [
                        {
                            "pitch": 71, 
                            "t0": 218400, 
                            "v": 110, 
                            "dur": 152, 
                            "type": "note", 
                            "channel": 0
                        }
                    ]
                ], 
                [
                    218580, 
                    [
                        {
                            "pitch": 69, 
                            "t0": 218580, 
                            "v": 110, 
                            "dur": 135, 
                            "type": "note", 
                            "channel": 0
                        }
                    ]
                ], 
                [
                    218700, 
                    [
                        {
                            "pitch": 67, 
                            "t0": 218700, 
                            "v": 110, 
                            "dur": 133, 
                            "type": "note", 
                            "channel": 0
                        }
                    ]
                ], 
                [
                    218880, 
                    [
                        {
                            "pitch": 69, 
                            "t0": 218880, 
                            "v": 110, 
                            "dur": 343, 
                            "type": "note", 
                            "channel": 0
                        }, 
                        {
                            "pitch": 33, 
                            "t0": 218880, 
                            "v": 81, 
                            "dur": 548, 
                            "type": "note", 
                            "channel": 0
                        }, 
                        {
                            "pitch": 45, 
                            "t0": 218880, 
                            "v": 81, 
                            "dur": 567, 
                            "type": "note", 
                            "channel": 0
                        }, 
                        {
                            "pitch": 57, 
                            "t0": 218880, 
                            "parts": [
                                [
                                    218880, 
                                    110
                                ], 
                                [
                                    219360, 
                                    81
                                ], 
                                [
                                    219843, 
                                    0
                                ]
                            ], 
                            "v": 110, 
                            "dur": 963, 
                            "type": "note", 
                            "channel": 0
                        }
                    ]
                ], 
                [
                    219000, 
                    [
                        {
                            "pitch": 60, 
                            "t0": 219000, 
                            "v": 110, 
                            "dur": 1152, 
                            "type": "note", 
                            "channel": 0
                        }
                    ]
                ], 
                [
                    219180, 
                    [
                        {
                            "pitch": 64, 
                            "t0": 219180, 
                            "v": 109, 
                            "dur": 895, 
                            "type": "note", 
                            "channel": 0
                        }
                    ]
                ], 
                [
                    219360, 
                    [
                        {
                            "pitch": 69, 
                            "t0": 219360, 
                            "v": 109, 
                            "dur": 273, 
                            "type": "note", 
                            "channel": 0
                        }
                    ]
                ], 
                [
                    219660, 
                    [
                        {
                            "pitch": 67, 
                            "t0": 219660, 
                            "v": 109, 
                            "dur": 150, 
                            "type": "note", 
                            "channel": 0
                        }
                    ]
                ], 
                [
                    219840, 
                    [
                        {
                            "pitch": 69, 
                            "t0": 219840, 
                            "v": 109, 
                            "dur": 226, 
                            "type": "note", 
                            "channel": 0
                        }, 
                        {
                            "pitch": 33, 
                            "t0": 219840, 
                            "v": 81, 
                            "dur": 927, 
                            "type": "note", 
                            "channel": 0
                        }, 
                        {
                            "pitch": 45, 
                            "t0": 219840, 
                            "v": 81, 
                            "dur": 950, 
                            "type": "note", 
                            "channel": 0
                        }
                    ]
                ]
            ], 
            "instruments": [
                0
            ], 
            "tMax": 220790, 
            "channels": [
                0
            ], 
            "instrument": 0, 
            "numNotes": 762, 
            "type": "TrackObj"
        }, 
        {
            "trackName": "Track 2", 
            "seq": [
                [
                    0, 
                    [
                        {
                            "instrument": 46, 
                            "type": "programChange", 
                            "t0": 0, 
                            "channel": 1
                        }
                    ]
                ], 
                [
                    5760, 
                    [
                        {
                            "pitch": 45, 
                            "t0": 5760, 
                            "v": 53, 
                            "dur": 480, 
                            "type": "note", 
                            "channel": 1
                        }
                    ]
                ], 
                [
                    6240, 
                    [
                        {
                            "pitch": 52, 
                            "t0": 6240, 
                            "v": 53, 
                            "dur": 480, 
                            "type": "note", 
                            "channel": 1
                        }
                    ]
                ], 
                [
                    6720, 
                    [
                        {
                            "pitch": 57, 
                            "t0": 6720, 
                            "v": 53, 
                            "dur": 480, 
                            "type": "note", 
                            "channel": 1
                        }
                    ]
                ], 
                [
                    7200, 
                    [
                        {
                            "pitch": 60, 
                            "t0": 7200, 
                            "v": 53, 
                            "dur": 480, 
                            "type": "note", 
                            "channel": 1
                        }
                    ]
                ], 
                [
                    7680, 
                    [
                        {
                            "pitch": 64, 
                            "t0": 7680, 
                            "v": 53, 
                            "dur": 480, 
                            "type": "note", 
                            "channel": 1
                        }
                    ]
                ], 
                [
                    8160, 
                    [
                        {
                            "pitch": 69, 
                            "t0": 8160, 
                            "v": 53, 
                            "dur": 480, 
                            "type": "note", 
                            "channel": 1
                        }
                    ]
                ], 
                [
                    8640, 
                    [
                        {
                            "pitch": 72, 
                            "t0": 8640, 
                            "v": 53, 
                            "dur": 480, 
                            "type": "note", 
                            "channel": 1
                        }
                    ]
                ], 
                [
                    9120, 
                    [
                        {
                            "pitch": 76, 
                            "t0": 9120, 
                            "v": 53, 
                            "dur": 480, 
                            "type": "note", 
                            "channel": 1
                        }
                    ]
                ], 
                [
                    9600, 
                    [
                        {
                            "pitch": 40, 
                            "t0": 9600, 
                            "v": 53, 
                            "dur": 480, 
                            "type": "note", 
                            "channel": 1
                        }
                    ]
                ], 
                [
                    10080, 
                    [
                        {
                            "pitch": 47, 
                            "t0": 10080, 
                            "v": 53, 
                            "dur": 480, 
                            "type": "note", 
                            "channel": 1
                        }
                    ]
                ], 
                [
                    10560, 
                    [
                        {
                            "pitch": 52, 
                            "t0": 10560, 
                            "v": 53, 
                            "dur": 480, 
                            "type": "note", 
                            "channel": 1
                        }
                    ]
                ], 
                [
                    11040, 
                    [
                        {
                            "pitch": 55, 
                            "t0": 11040, 
                            "v": 53, 
                            "dur": 480, 
                            "type": "note", 
                            "channel": 1
                        }
                    ]
                ], 
                [
                    11520, 
                    [
                        {
                            "pitch": 59, 
                            "t0": 11520, 
                            "v": 53, 
                            "dur": 480, 
                            "type": "note", 
                            "channel": 1
                        }
                    ]
                ], 
                [
                    12000, 
                    [
                        {
                            "pitch": 64, 
                            "t0": 12000, 
                            "v": 53, 
                            "dur": 480, 
                            "type": "note", 
                            "channel": 1
                        }
                    ]
                ], 
                [
                    12480, 
                    [
                        {
                            "pitch": 67, 
                            "t0": 12480, 
                            "v": 53, 
                            "dur": 480, 
                            "type": "note", 
                            "channel": 1
                        }
                    ]
                ], 
                [
                    12960, 
                    [
                        {
                            "pitch": 71, 
                            "t0": 12960, 
                            "v": 53, 
                            "dur": 480, 
                            "type": "note", 
                            "channel": 1
                        }
                    ]
                ], 
                [
                    13440, 
                    [
                        {
                            "pitch": 45, 
                            "t0": 13440, 
                            "v": 53, 
                            "dur": 480, 
                            "type": "note", 
                            "channel": 1
                        }
                    ]
                ], 
                [
                    13920, 
                    [
                        {
                            "pitch": 52, 
                            "t0": 13920, 
                            "v": 53, 
                            "dur": 480, 
                            "type": "note", 
                            "channel": 1
                        }
                    ]
                ], 
                [
                    14400, 
                    [
                        {
                            "pitch": 57, 
                            "t0": 14400, 
                            "v": 53, 
                            "dur": 480, 
                            "type": "note", 
                            "channel": 1
                        }
                    ]
                ], 
                [
                    14880, 
                    [
                        {
                            "pitch": 60, 
                            "t0": 14880, 
                            "v": 53, 
                            "dur": 480, 
                            "type": "note", 
                            "channel": 1
                        }
                    ]
                ], 
                [
                    15360, 
                    [
                        {
                            "pitch": 64, 
                            "t0": 15360, 
                            "v": 53, 
                            "dur": 480, 
                            "type": "note", 
                            "channel": 1
                        }
                    ]
                ], 
                [
                    15840, 
                    [
                        {
                            "pitch": 69, 
                            "t0": 15840, 
                            "v": 53, 
                            "dur": 480, 
                            "type": "note", 
                            "channel": 1
                        }
                    ]
                ], 
                [
                    16320, 
                    [
                        {
                            "pitch": 72, 
                            "t0": 16320, 
                            "v": 53, 
                            "dur": 480, 
                            "type": "note", 
                            "channel": 1
                        }
                    ]
                ], 
                [
                    16800, 
                    [
                        {
                            "pitch": 76, 
                            "t0": 16800, 
                            "v": 53, 
                            "dur": 480, 
                            "type": "note", 
                            "channel": 1
                        }
                    ]
                ], 
                [
                    17280, 
                    [
                        {
                            "pitch": 40, 
                            "t0": 17280, 
                            "v": 53, 
                            "dur": 480, 
                            "type": "note", 
                            "channel": 1
                        }
                    ]
                ], 
                [
                    17760, 
                    [
                        {
                            "pitch": 47, 
                            "t0": 17760, 
                            "v": 53, 
                            "dur": 480, 
                            "type": "note", 
                            "channel": 1
                        }
                    ]
                ], 
                [
                    18240, 
                    [
                        {
                            "pitch": 52, 
                            "t0": 18240, 
                            "v": 53, 
                            "dur": 480, 
                            "type": "note", 
                            "channel": 1
                        }
                    ]
                ], 
                [
                    18720, 
                    [
                        {
                            "pitch": 55, 
                            "t0": 18720, 
                            "v": 53, 
                            "dur": 480, 
                            "type": "note", 
                            "channel": 1
                        }
                    ]
                ], 
                [
                    19200, 
                    [
                        {
                            "pitch": 59, 
                            "t0": 19200, 
                            "v": 53, 
                            "dur": 480, 
                            "type": "note", 
                            "channel": 1
                        }
                    ]
                ], 
                [
                    19680, 
                    [
                        {
                            "pitch": 64, 
                            "t0": 19680, 
                            "v": 53, 
                            "dur": 480, 
                            "type": "note", 
                            "channel": 1
                        }
                    ]
                ], 
                [
                    20160, 
                    [
                        {
                            "pitch": 67, 
                            "t0": 20160, 
                            "v": 53, 
                            "dur": 480, 
                            "type": "note", 
                            "channel": 1
                        }
                    ]
                ], 
                [
                    20640, 
                    [
                        {
                            "pitch": 71, 
                            "t0": 20640, 
                            "v": 53, 
                            "dur": 480, 
                            "type": "note", 
                            "channel": 1
                        }
                    ]
                ], 
                [
                    21120, 
                    [
                        {
                            "pitch": 41, 
                            "t0": 21120, 
                            "v": 53, 
                            "dur": 480, 
                            "type": "note", 
                            "channel": 1
                        }
                    ]
                ], 
                [
                    21600, 
                    [
                        {
                            "pitch": 48, 
                            "t0": 21600, 
                            "v": 53, 
                            "dur": 480, 
                            "type": "note", 
                            "channel": 1
                        }
                    ]
                ], 
                [
                    22080, 
                    [
                        {
                            "pitch": 53, 
                            "t0": 22080, 
                            "v": 53, 
                            "dur": 480, 
                            "type": "note", 
                            "channel": 1
                        }
                    ]
                ], 
                [
                    22560, 
                    [
                        {
                            "pitch": 57, 
                            "t0": 22560, 
                            "v": 53, 
                            "dur": 480, 
                            "type": "note", 
                            "channel": 1
                        }
                    ]
                ], 
                [
                    23040, 
                    [
                        {
                            "pitch": 60, 
                            "t0": 23040, 
                            "v": 53, 
                            "dur": 480, 
                            "type": "note", 
                            "channel": 1
                        }
                    ]
                ], 
                [
                    23520, 
                    [
                        {
                            "pitch": 65, 
                            "t0": 23520, 
                            "v": 53, 
                            "dur": 480, 
                            "type": "note", 
                            "channel": 1
                        }
                    ]
                ], 
                [
                    24000, 
                    [
                        {
                            "pitch": 69, 
                            "t0": 24000, 
                            "v": 53, 
                            "dur": 480, 
                            "type": "note", 
                            "channel": 1
                        }
                    ]
                ], 
                [
                    24480, 
                    [
                        {
                            "pitch": 72, 
                            "t0": 24480, 
                            "v": 52, 
                            "dur": 480, 
                            "type": "note", 
                            "channel": 1
                        }
                    ]
                ], 
                [
                    24960, 
                    [
                        {
                            "pitch": 45, 
                            "t0": 24960, 
                            "v": 52, 
                            "dur": 480, 
                            "type": "note", 
                            "channel": 1
                        }
                    ]
                ], 
                [
                    25440, 
                    [
                        {
                            "pitch": 52, 
                            "t0": 25440, 
                            "v": 52, 
                            "dur": 480, 
                            "type": "note", 
                            "channel": 1
                        }
                    ]
                ], 
                [
                    25920, 
                    [
                        {
                            "pitch": 57, 
                            "t0": 25920, 
                            "v": 52, 
                            "dur": 480, 
                            "type": "note", 
                            "channel": 1
                        }
                    ]
                ], 
                [
                    26400, 
                    [
                        {
                            "pitch": 60, 
                            "t0": 26400, 
                            "v": 52, 
                            "dur": 480, 
                            "type": "note", 
                            "channel": 1
                        }
                    ]
                ], 
                [
                    26880, 
                    [
                        {
                            "pitch": 64, 
                            "t0": 26880, 
                            "v": 52, 
                            "dur": 480, 
                            "type": "note", 
                            "channel": 1
                        }
                    ]
                ], 
                [
                    27360, 
                    [
                        {
                            "pitch": 69, 
                            "t0": 27360, 
                            "v": 52, 
                            "dur": 480, 
                            "type": "note", 
                            "channel": 1
                        }
                    ]
                ], 
                [
                    27840, 
                    [
                        {
                            "pitch": 72, 
                            "t0": 27840, 
                            "v": 52, 
                            "dur": 480, 
                            "type": "note", 
                            "channel": 1
                        }
                    ]
                ], 
                [
                    28320, 
                    [
                        {
                            "pitch": 76, 
                            "t0": 28320, 
                            "v": 53, 
                            "dur": 480, 
                            "type": "note", 
                            "channel": 1
                        }
                    ]
                ], 
                [
                    28800, 
                    [
                        {
                            "pitch": 41, 
                            "t0": 28800, 
                            "v": 53, 
                            "dur": 480, 
                            "type": "note", 
                            "channel": 1
                        }
                    ]
                ], 
                [
                    29280, 
                    [
                        {
                            "pitch": 48, 
                            "t0": 29280, 
                            "v": 53, 
                            "dur": 480, 
                            "type": "note", 
                            "channel": 1
                        }
                    ]
                ], 
                [
                    29760, 
                    [
                        {
                            "pitch": 53, 
                            "t0": 29760, 
                            "v": 53, 
                            "dur": 480, 
                            "type": "note", 
                            "channel": 1
                        }
                    ]
                ], 
                [
                    30240, 
                    [
                        {
                            "pitch": 57, 
                            "t0": 30240, 
                            "v": 53, 
                            "dur": 480, 
                            "type": "note", 
                            "channel": 1
                        }
                    ]
                ], 
                [
                    30720, 
                    [
                        {
                            "pitch": 60, 
                            "t0": 30720, 
                            "v": 53, 
                            "dur": 480, 
                            "type": "note", 
                            "channel": 1
                        }
                    ]
                ], 
                [
                    31200, 
                    [
                        {
                            "pitch": 65, 
                            "t0": 31200, 
                            "v": 53, 
                            "dur": 480, 
                            "type": "note", 
                            "channel": 1
                        }
                    ]
                ], 
                [
                    31680, 
                    [
                        {
                            "pitch": 69, 
                            "t0": 31680, 
                            "v": 53, 
                            "dur": 480, 
                            "type": "note", 
                            "channel": 1
                        }
                    ]
                ], 
                [
                    32160, 
                    [
                        {
                            "pitch": 72, 
                            "t0": 32160, 
                            "v": 53, 
                            "dur": 480, 
                            "type": "note", 
                            "channel": 1
                        }
                    ]
                ], 
                [
                    32640, 
                    [
                        {
                            "pitch": 43, 
                            "t0": 32640, 
                            "v": 53, 
                            "dur": 480, 
                            "type": "note", 
                            "channel": 1
                        }
                    ]
                ], 
                [
                    33120, 
                    [
                        {
                            "pitch": 50, 
                            "t0": 33120, 
                            "v": 53, 
                            "dur": 480, 
                            "type": "note", 
                            "channel": 1
                        }
                    ]
                ], 
                [
                    33600, 
                    [
                        {
                            "pitch": 55, 
                            "t0": 33600, 
                            "v": 54, 
                            "dur": 480, 
                            "type": "note", 
                            "channel": 1
                        }
                    ]
                ], 
                [
                    34080, 
                    [
                        {
                            "pitch": 59, 
                            "t0": 34080, 
                            "v": 54, 
                            "dur": 480, 
                            "type": "note", 
                            "channel": 1
                        }
                    ]
                ], 
                [
                    34560, 
                    [
                        {
                            "pitch": 62, 
                            "t0": 34560, 
                            "v": 54, 
                            "dur": 480, 
                            "type": "note", 
                            "channel": 1
                        }
                    ]
                ], 
                [
                    35040, 
                    [
                        {
                            "pitch": 67, 
                            "t0": 35040, 
                            "v": 54, 
                            "dur": 480, 
                            "type": "note", 
                            "channel": 1
                        }
                    ]
                ], 
                [
                    35520, 
                    [
                        {
                            "pitch": 71, 
                            "t0": 35520, 
                            "v": 54, 
                            "dur": 480, 
                            "type": "note", 
                            "channel": 1
                        }
                    ]
                ], 
                [
                    36000, 
                    [
                        {
                            "pitch": 74, 
                            "t0": 36000, 
                            "v": 54, 
                            "dur": 480, 
                            "type": "note", 
                            "channel": 1
                        }
                    ]
                ], 
                [
                    36480, 
                    [
                        {
                            "pitch": 62, 
                            "t0": 36480, 
                            "v": 53, 
                            "dur": 480, 
                            "type": "note", 
                            "channel": 1
                        }
                    ]
                ], 
                [
                    40320, 
                    [
                        {
                            "pitch": 45, 
                            "t0": 40320, 
                            "v": 53, 
                            "dur": 480, 
                            "type": "note", 
                            "channel": 1
                        }
                    ]
                ], 
                [
                    40800, 
                    [
                        {
                            "pitch": 52, 
                            "t0": 40800, 
                            "v": 53, 
                            "dur": 480, 
                            "type": "note", 
                            "channel": 1
                        }
                    ]
                ], 
                [
                    41280, 
                    [
                        {
                            "pitch": 57, 
                            "t0": 41280, 
                            "v": 53, 
                            "dur": 480, 
                            "type": "note", 
                            "channel": 1
                        }
                    ]
                ], 
                [
                    41760, 
                    [
                        {
                            "pitch": 60, 
                            "t0": 41760, 
                            "v": 53, 
                            "dur": 480, 
                            "type": "note", 
                            "channel": 1
                        }
                    ]
                ], 
                [
                    42240, 
                    [
                        {
                            "pitch": 64, 
                            "t0": 42240, 
                            "v": 53, 
                            "dur": 480, 
                            "type": "note", 
                            "channel": 1
                        }
                    ]
                ], 
                [
                    42720, 
                    [
                        {
                            "pitch": 69, 
                            "t0": 42720, 
                            "v": 53, 
                            "dur": 480, 
                            "type": "note", 
                            "channel": 1
                        }
                    ]
                ], 
                [
                    43200, 
                    [
                        {
                            "pitch": 72, 
                            "t0": 43200, 
                            "v": 53, 
                            "dur": 480, 
                            "type": "note", 
                            "channel": 1
                        }
                    ]
                ], 
                [
                    43680, 
                    [
                        {
                            "pitch": 76, 
                            "t0": 43680, 
                            "v": 53, 
                            "dur": 480, 
                            "type": "note", 
                            "channel": 1
                        }
                    ]
                ], 
                [
                    44160, 
                    [
                        {
                            "pitch": 40, 
                            "t0": 44160, 
                            "v": 53, 
                            "dur": 480, 
                            "type": "note", 
                            "channel": 1
                        }
                    ]
                ], 
                [
                    44640, 
                    [
                        {
                            "pitch": 47, 
                            "t0": 44640, 
                            "v": 53, 
                            "dur": 480, 
                            "type": "note", 
                            "channel": 1
                        }
                    ]
                ], 
                [
                    45120, 
                    [
                        {
                            "pitch": 52, 
                            "t0": 45120, 
                            "v": 53, 
                            "dur": 480, 
                            "type": "note", 
                            "channel": 1
                        }
                    ]
                ], 
                [
                    45600, 
                    [
                        {
                            "pitch": 55, 
                            "t0": 45600, 
                            "v": 53, 
                            "dur": 480, 
                            "type": "note", 
                            "channel": 1
                        }
                    ]
                ], 
                [
                    46080, 
                    [
                        {
                            "pitch": 59, 
                            "t0": 46080, 
                            "v": 53, 
                            "dur": 480, 
                            "type": "note", 
                            "channel": 1
                        }
                    ]
                ], 
                [
                    46560, 
                    [
                        {
                            "pitch": 64, 
                            "t0": 46560, 
                            "v": 53, 
                            "dur": 480, 
                            "type": "note", 
                            "channel": 1
                        }
                    ]
                ], 
                [
                    47040, 
                    [
                        {
                            "pitch": 67, 
                            "t0": 47040, 
                            "v": 53, 
                            "dur": 480, 
                            "type": "note", 
                            "channel": 1
                        }
                    ]
                ], 
                [
                    47520, 
                    [
                        {
                            "pitch": 71, 
                            "t0": 47520, 
                            "v": 53, 
                            "dur": 480, 
                            "type": "note", 
                            "channel": 1
                        }
                    ]
                ], 
                [
                    48000, 
                    [
                        {
                            "pitch": 45, 
                            "t0": 48000, 
                            "v": 53, 
                            "dur": 480, 
                            "type": "note", 
                            "channel": 1
                        }
                    ]
                ], 
                [
                    48480, 
                    [
                        {
                            "pitch": 52, 
                            "t0": 48480, 
                            "v": 53, 
                            "dur": 480, 
                            "type": "note", 
                            "channel": 1
                        }
                    ]
                ], 
                [
                    48960, 
                    [
                        {
                            "pitch": 57, 
                            "t0": 48960, 
                            "v": 53, 
                            "dur": 480, 
                            "type": "note", 
                            "channel": 1
                        }
                    ]
                ], 
                [
                    49440, 
                    [
                        {
                            "pitch": 60, 
                            "t0": 49440, 
                            "v": 53, 
                            "dur": 480, 
                            "type": "note", 
                            "channel": 1
                        }
                    ]
                ], 
                [
                    49920, 
                    [
                        {
                            "pitch": 64, 
                            "t0": 49920, 
                            "v": 53, 
                            "dur": 480, 
                            "type": "note", 
                            "channel": 1
                        }
                    ]
                ], 
                [
                    50400, 
                    [
                        {
                            "pitch": 69, 
                            "t0": 50400, 
                            "v": 53, 
                            "dur": 480, 
                            "type": "note", 
                            "channel": 1
                        }
                    ]
                ], 
                [
                    50880, 
                    [
                        {
                            "pitch": 72, 
                            "t0": 50880, 
                            "v": 53, 
                            "dur": 480, 
                            "type": "note", 
                            "channel": 1
                        }
                    ]
                ], 
                [
                    51360, 
                    [
                        {
                            "pitch": 76, 
                            "t0": 51360, 
                            "v": 53, 
                            "dur": 480, 
                            "type": "note", 
                            "channel": 1
                        }
                    ]
                ], 
                [
                    51840, 
                    [
                        {
                            "pitch": 40, 
                            "t0": 51840, 
                            "v": 53, 
                            "dur": 480, 
                            "type": "note", 
                            "channel": 1
                        }
                    ]
                ], 
                [
                    52320, 
                    [
                        {
                            "pitch": 47, 
                            "t0": 52320, 
                            "v": 53, 
                            "dur": 480, 
                            "type": "note", 
                            "channel": 1
                        }
                    ]
                ], 
                [
                    52800, 
                    [
                        {
                            "pitch": 52, 
                            "t0": 52800, 
                            "v": 53, 
                            "dur": 480, 
                            "type": "note", 
                            "channel": 1
                        }
                    ]
                ], 
                [
                    53280, 
                    [
                        {
                            "pitch": 55, 
                            "t0": 53280, 
                            "v": 53, 
                            "dur": 480, 
                            "type": "note", 
                            "channel": 1
                        }
                    ]
                ], 
                [
                    53760, 
                    [
                        {
                            "pitch": 59, 
                            "t0": 53760, 
                            "v": 53, 
                            "dur": 480, 
                            "type": "note", 
                            "channel": 1
                        }
                    ]
                ], 
                [
                    54240, 
                    [
                        {
                            "pitch": 64, 
                            "t0": 54240, 
                            "v": 53, 
                            "dur": 480, 
                            "type": "note", 
                            "channel": 1
                        }
                    ]
                ], 
                [
                    54720, 
                    [
                        {
                            "pitch": 67, 
                            "t0": 54720, 
                            "v": 53, 
                            "dur": 480, 
                            "type": "note", 
                            "channel": 1
                        }
                    ]
                ], 
                [
                    55200, 
                    [
                        {
                            "pitch": 71, 
                            "t0": 55200, 
                            "v": 53, 
                            "dur": 480, 
                            "type": "note", 
                            "channel": 1
                        }
                    ]
                ], 
                [
                    55680, 
                    [
                        {
                            "pitch": 41, 
                            "t0": 55680, 
                            "v": 53, 
                            "dur": 480, 
                            "type": "note", 
                            "channel": 1
                        }
                    ]
                ], 
                [
                    56160, 
                    [
                        {
                            "pitch": 48, 
                            "t0": 56160, 
                            "v": 53, 
                            "dur": 480, 
                            "type": "note", 
                            "channel": 1
                        }
                    ]
                ], 
                [
                    56640, 
                    [
                        {
                            "pitch": 53, 
                            "t0": 56640, 
                            "v": 53, 
                            "dur": 480, 
                            "type": "note", 
                            "channel": 1
                        }
                    ]
                ], 
                [
                    57120, 
                    [
                        {
                            "pitch": 57, 
                            "t0": 57120, 
                            "v": 53, 
                            "dur": 480, 
                            "type": "note", 
                            "channel": 1
                        }
                    ]
                ], 
                [
                    57600, 
                    [
                        {
                            "pitch": 60, 
                            "t0": 57600, 
                            "v": 53, 
                            "dur": 480, 
                            "type": "note", 
                            "channel": 1
                        }
                    ]
                ], 
                [
                    58080, 
                    [
                        {
                            "pitch": 65, 
                            "t0": 58080, 
                            "v": 53, 
                            "dur": 480, 
                            "type": "note", 
                            "channel": 1
                        }
                    ]
                ], 
                [
                    58560, 
                    [
                        {
                            "pitch": 69, 
                            "t0": 58560, 
                            "v": 53, 
                            "dur": 480, 
                            "type": "note", 
                            "channel": 1
                        }
                    ]
                ], 
                [
                    59040, 
                    [
                        {
                            "pitch": 72, 
                            "t0": 59040, 
                            "v": 52, 
                            "dur": 480, 
                            "type": "note", 
                            "channel": 1
                        }
                    ]
                ], 
                [
                    59520, 
                    [
                        {
                            "pitch": 45, 
                            "t0": 59520, 
                            "v": 52, 
                            "dur": 480, 
                            "type": "note", 
                            "channel": 1
                        }
                    ]
                ], 
                [
                    60000, 
                    [
                        {
                            "pitch": 52, 
                            "t0": 60000, 
                            "v": 52, 
                            "dur": 480, 
                            "type": "note", 
                            "channel": 1
                        }
                    ]
                ], 
                [
                    60480, 
                    [
                        {
                            "pitch": 57, 
                            "t0": 60480, 
                            "v": 52, 
                            "dur": 480, 
                            "type": "note", 
                            "channel": 1
                        }
                    ]
                ], 
                [
                    60960, 
                    [
                        {
                            "pitch": 60, 
                            "t0": 60960, 
                            "v": 52, 
                            "dur": 480, 
                            "type": "note", 
                            "channel": 1
                        }
                    ]
                ], 
                [
                    61440, 
                    [
                        {
                            "pitch": 64, 
                            "t0": 61440, 
                            "v": 52, 
                            "dur": 480, 
                            "type": "note", 
                            "channel": 1
                        }
                    ]
                ], 
                [
                    61920, 
                    [
                        {
                            "pitch": 69, 
                            "t0": 61920, 
                            "v": 52, 
                            "dur": 480, 
                            "type": "note", 
                            "channel": 1
                        }
                    ]
                ], 
                [
                    62400, 
                    [
                        {
                            "pitch": 72, 
                            "t0": 62400, 
                            "v": 52, 
                            "dur": 480, 
                            "type": "note", 
                            "channel": 1
                        }
                    ]
                ], 
                [
                    62880, 
                    [
                        {
                            "pitch": 76, 
                            "t0": 62880, 
                            "v": 53, 
                            "dur": 480, 
                            "type": "note", 
                            "channel": 1
                        }
                    ]
                ], 
                [
                    63360, 
                    [
                        {
                            "pitch": 41, 
                            "t0": 63360, 
                            "v": 53, 
                            "dur": 480, 
                            "type": "note", 
                            "channel": 1
                        }
                    ]
                ], 
                [
                    63840, 
                    [
                        {
                            "pitch": 48, 
                            "t0": 63840, 
                            "v": 53, 
                            "dur": 480, 
                            "type": "note", 
                            "channel": 1
                        }
                    ]
                ], 
                [
                    64320, 
                    [
                        {
                            "pitch": 53, 
                            "t0": 64320, 
                            "v": 53, 
                            "dur": 480, 
                            "type": "note", 
                            "channel": 1
                        }
                    ]
                ], 
                [
                    64800, 
                    [
                        {
                            "pitch": 57, 
                            "t0": 64800, 
                            "v": 53, 
                            "dur": 480, 
                            "type": "note", 
                            "channel": 1
                        }
                    ]
                ], 
                [
                    65280, 
                    [
                        {
                            "pitch": 60, 
                            "t0": 65280, 
                            "v": 53, 
                            "dur": 480, 
                            "type": "note", 
                            "channel": 1
                        }
                    ]
                ], 
                [
                    65760, 
                    [
                        {
                            "pitch": 65, 
                            "t0": 65760, 
                            "v": 53, 
                            "dur": 480, 
                            "type": "note", 
                            "channel": 1
                        }
                    ]
                ], 
                [
                    66240, 
                    [
                        {
                            "pitch": 69, 
                            "t0": 66240, 
                            "v": 53, 
                            "dur": 480, 
                            "type": "note", 
                            "channel": 1
                        }
                    ]
                ], 
                [
                    66720, 
                    [
                        {
                            "pitch": 72, 
                            "t0": 66720, 
                            "v": 53, 
                            "dur": 480, 
                            "type": "note", 
                            "channel": 1
                        }
                    ]
                ], 
                [
                    67200, 
                    [
                        {
                            "pitch": 43, 
                            "t0": 67200, 
                            "v": 53, 
                            "dur": 480, 
                            "type": "note", 
                            "channel": 1
                        }
                    ]
                ], 
                [
                    67680, 
                    [
                        {
                            "pitch": 50, 
                            "t0": 67680, 
                            "v": 53, 
                            "dur": 480, 
                            "type": "note", 
                            "channel": 1
                        }
                    ]
                ], 
                [
                    68160, 
                    [
                        {
                            "pitch": 55, 
                            "t0": 68160, 
                            "v": 54, 
                            "dur": 480, 
                            "type": "note", 
                            "channel": 1
                        }
                    ]
                ], 
                [
                    68640, 
                    [
                        {
                            "pitch": 59, 
                            "t0": 68640, 
                            "v": 54, 
                            "dur": 480, 
                            "type": "note", 
                            "channel": 1
                        }
                    ]
                ], 
                [
                    69120, 
                    [
                        {
                            "pitch": 62, 
                            "t0": 69120, 
                            "v": 54, 
                            "dur": 480, 
                            "type": "note", 
                            "channel": 1
                        }
                    ]
                ], 
                [
                    69600, 
                    [
                        {
                            "pitch": 67, 
                            "t0": 69600, 
                            "v": 54, 
                            "dur": 480, 
                            "type": "note", 
                            "channel": 1
                        }
                    ]
                ], 
                [
                    70080, 
                    [
                        {
                            "pitch": 71, 
                            "t0": 70080, 
                            "v": 54, 
                            "dur": 480, 
                            "type": "note", 
                            "channel": 1
                        }
                    ]
                ], 
                [
                    70560, 
                    [
                        {
                            "pitch": 74, 
                            "t0": 70560, 
                            "v": 54, 
                            "dur": 480, 
                            "type": "note", 
                            "channel": 1
                        }
                    ]
                ], 
                [
                    71040, 
                    [
                        {
                            "pitch": 62, 
                            "t0": 71040, 
                            "v": 53, 
                            "dur": 480, 
                            "type": "note", 
                            "channel": 1
                        }
                    ]
                ], 
                [
                    113280, 
                    [
                        {
                            "pitch": 45, 
                            "t0": 113280, 
                            "v": 53, 
                            "dur": 480, 
                            "type": "note", 
                            "channel": 1
                        }
                    ]
                ], 
                [
                    113760, 
                    [
                        {
                            "pitch": 52, 
                            "t0": 113760, 
                            "v": 53, 
                            "dur": 480, 
                            "type": "note", 
                            "channel": 1
                        }
                    ]
                ], 
                [
                    114240, 
                    [
                        {
                            "pitch": 57, 
                            "t0": 114240, 
                            "v": 53, 
                            "dur": 480, 
                            "type": "note", 
                            "channel": 1
                        }
                    ]
                ], 
                [
                    114720, 
                    [
                        {
                            "pitch": 60, 
                            "t0": 114720, 
                            "v": 53, 
                            "dur": 480, 
                            "type": "note", 
                            "channel": 1
                        }
                    ]
                ], 
                [
                    115200, 
                    [
                        {
                            "pitch": 64, 
                            "t0": 115200, 
                            "v": 53, 
                            "dur": 480, 
                            "type": "note", 
                            "channel": 1
                        }
                    ]
                ], 
                [
                    115680, 
                    [
                        {
                            "pitch": 69, 
                            "t0": 115680, 
                            "v": 53, 
                            "dur": 480, 
                            "type": "note", 
                            "channel": 1
                        }
                    ]
                ], 
                [
                    116160, 
                    [
                        {
                            "pitch": 72, 
                            "t0": 116160, 
                            "v": 53, 
                            "dur": 480, 
                            "type": "note", 
                            "channel": 1
                        }
                    ]
                ], 
                [
                    116640, 
                    [
                        {
                            "pitch": 76, 
                            "t0": 116640, 
                            "v": 53, 
                            "dur": 480, 
                            "type": "note", 
                            "channel": 1
                        }
                    ]
                ], 
                [
                    117120, 
                    [
                        {
                            "pitch": 40, 
                            "t0": 117120, 
                            "v": 53, 
                            "dur": 480, 
                            "type": "note", 
                            "channel": 1
                        }
                    ]
                ], 
                [
                    117600, 
                    [
                        {
                            "pitch": 47, 
                            "t0": 117600, 
                            "v": 53, 
                            "dur": 480, 
                            "type": "note", 
                            "channel": 1
                        }
                    ]
                ], 
                [
                    118080, 
                    [
                        {
                            "pitch": 52, 
                            "t0": 118080, 
                            "v": 53, 
                            "dur": 480, 
                            "type": "note", 
                            "channel": 1
                        }
                    ]
                ], 
                [
                    118560, 
                    [
                        {
                            "pitch": 55, 
                            "t0": 118560, 
                            "v": 53, 
                            "dur": 480, 
                            "type": "note", 
                            "channel": 1
                        }
                    ]
                ], 
                [
                    119040, 
                    [
                        {
                            "pitch": 59, 
                            "t0": 119040, 
                            "v": 53, 
                            "dur": 480, 
                            "type": "note", 
                            "channel": 1
                        }
                    ]
                ], 
                [
                    119520, 
                    [
                        {
                            "pitch": 64, 
                            "t0": 119520, 
                            "v": 53, 
                            "dur": 480, 
                            "type": "note", 
                            "channel": 1
                        }
                    ]
                ], 
                [
                    120000, 
                    [
                        {
                            "pitch": 67, 
                            "t0": 120000, 
                            "v": 53, 
                            "dur": 480, 
                            "type": "note", 
                            "channel": 1
                        }
                    ]
                ], 
                [
                    120480, 
                    [
                        {
                            "pitch": 71, 
                            "t0": 120480, 
                            "v": 53, 
                            "dur": 480, 
                            "type": "note", 
                            "channel": 1
                        }
                    ]
                ], 
                [
                    120960, 
                    [
                        {
                            "pitch": 45, 
                            "t0": 120960, 
                            "v": 53, 
                            "dur": 480, 
                            "type": "note", 
                            "channel": 1
                        }
                    ]
                ], 
                [
                    121440, 
                    [
                        {
                            "pitch": 52, 
                            "t0": 121440, 
                            "v": 53, 
                            "dur": 480, 
                            "type": "note", 
                            "channel": 1
                        }
                    ]
                ], 
                [
                    121920, 
                    [
                        {
                            "pitch": 57, 
                            "t0": 121920, 
                            "v": 53, 
                            "dur": 480, 
                            "type": "note", 
                            "channel": 1
                        }
                    ]
                ], 
                [
                    122400, 
                    [
                        {
                            "pitch": 60, 
                            "t0": 122400, 
                            "v": 53, 
                            "dur": 480, 
                            "type": "note", 
                            "channel": 1
                        }
                    ]
                ], 
                [
                    122880, 
                    [
                        {
                            "pitch": 64, 
                            "t0": 122880, 
                            "v": 53, 
                            "dur": 480, 
                            "type": "note", 
                            "channel": 1
                        }
                    ]
                ], 
                [
                    123360, 
                    [
                        {
                            "pitch": 69, 
                            "t0": 123360, 
                            "v": 53, 
                            "dur": 480, 
                            "type": "note", 
                            "channel": 1
                        }
                    ]
                ], 
                [
                    123840, 
                    [
                        {
                            "pitch": 72, 
                            "t0": 123840, 
                            "v": 53, 
                            "dur": 480, 
                            "type": "note", 
                            "channel": 1
                        }
                    ]
                ], 
                [
                    124320, 
                    [
                        {
                            "pitch": 76, 
                            "t0": 124320, 
                            "v": 53, 
                            "dur": 480, 
                            "type": "note", 
                            "channel": 1
                        }
                    ]
                ], 
                [
                    124800, 
                    [
                        {
                            "pitch": 40, 
                            "t0": 124800, 
                            "v": 53, 
                            "dur": 480, 
                            "type": "note", 
                            "channel": 1
                        }
                    ]
                ], 
                [
                    125280, 
                    [
                        {
                            "pitch": 47, 
                            "t0": 125280, 
                            "v": 53, 
                            "dur": 480, 
                            "type": "note", 
                            "channel": 1
                        }
                    ]
                ], 
                [
                    125760, 
                    [
                        {
                            "pitch": 52, 
                            "t0": 125760, 
                            "v": 53, 
                            "dur": 480, 
                            "type": "note", 
                            "channel": 1
                        }
                    ]
                ], 
                [
                    126240, 
                    [
                        {
                            "pitch": 55, 
                            "t0": 126240, 
                            "v": 53, 
                            "dur": 480, 
                            "type": "note", 
                            "channel": 1
                        }
                    ]
                ], 
                [
                    126720, 
                    [
                        {
                            "pitch": 59, 
                            "t0": 126720, 
                            "v": 53, 
                            "dur": 480, 
                            "type": "note", 
                            "channel": 1
                        }
                    ]
                ], 
                [
                    127200, 
                    [
                        {
                            "pitch": 64, 
                            "t0": 127200, 
                            "v": 53, 
                            "dur": 480, 
                            "type": "note", 
                            "channel": 1
                        }
                    ]
                ], 
                [
                    127680, 
                    [
                        {
                            "pitch": 67, 
                            "t0": 127680, 
                            "v": 53, 
                            "dur": 480, 
                            "type": "note", 
                            "channel": 1
                        }
                    ]
                ], 
                [
                    128160, 
                    [
                        {
                            "pitch": 71, 
                            "t0": 128160, 
                            "v": 53, 
                            "dur": 480, 
                            "type": "note", 
                            "channel": 1
                        }
                    ]
                ], 
                [
                    128640, 
                    [
                        {
                            "pitch": 41, 
                            "t0": 128640, 
                            "v": 53, 
                            "dur": 480, 
                            "type": "note", 
                            "channel": 1
                        }
                    ]
                ], 
                [
                    129120, 
                    [
                        {
                            "pitch": 48, 
                            "t0": 129120, 
                            "v": 53, 
                            "dur": 480, 
                            "type": "note", 
                            "channel": 1
                        }
                    ]
                ], 
                [
                    129600, 
                    [
                        {
                            "pitch": 53, 
                            "t0": 129600, 
                            "v": 53, 
                            "dur": 480, 
                            "type": "note", 
                            "channel": 1
                        }
                    ]
                ], 
                [
                    130080, 
                    [
                        {
                            "pitch": 57, 
                            "t0": 130080, 
                            "v": 53, 
                            "dur": 480, 
                            "type": "note", 
                            "channel": 1
                        }
                    ]
                ], 
                [
                    130560, 
                    [
                        {
                            "pitch": 60, 
                            "t0": 130560, 
                            "v": 53, 
                            "dur": 480, 
                            "type": "note", 
                            "channel": 1
                        }
                    ]
                ], 
                [
                    131040, 
                    [
                        {
                            "pitch": 65, 
                            "t0": 131040, 
                            "v": 53, 
                            "dur": 480, 
                            "type": "note", 
                            "channel": 1
                        }
                    ]
                ], 
                [
                    131520, 
                    [
                        {
                            "pitch": 69, 
                            "t0": 131520, 
                            "v": 53, 
                            "dur": 480, 
                            "type": "note", 
                            "channel": 1
                        }
                    ]
                ], 
                [
                    132000, 
                    [
                        {
                            "pitch": 72, 
                            "t0": 132000, 
                            "v": 52, 
                            "dur": 480, 
                            "type": "note", 
                            "channel": 1
                        }
                    ]
                ], 
                [
                    132480, 
                    [
                        {
                            "pitch": 45, 
                            "t0": 132480, 
                            "v": 52, 
                            "dur": 480, 
                            "type": "note", 
                            "channel": 1
                        }
                    ]
                ], 
                [
                    132960, 
                    [
                        {
                            "pitch": 52, 
                            "t0": 132960, 
                            "v": 52, 
                            "dur": 480, 
                            "type": "note", 
                            "channel": 1
                        }
                    ]
                ], 
                [
                    133440, 
                    [
                        {
                            "pitch": 57, 
                            "t0": 133440, 
                            "v": 52, 
                            "dur": 480, 
                            "type": "note", 
                            "channel": 1
                        }
                    ]
                ], 
                [
                    133920, 
                    [
                        {
                            "pitch": 60, 
                            "t0": 133920, 
                            "v": 52, 
                            "dur": 480, 
                            "type": "note", 
                            "channel": 1
                        }
                    ]
                ], 
                [
                    134400, 
                    [
                        {
                            "pitch": 64, 
                            "t0": 134400, 
                            "v": 52, 
                            "dur": 480, 
                            "type": "note", 
                            "channel": 1
                        }
                    ]
                ], 
                [
                    134880, 
                    [
                        {
                            "pitch": 69, 
                            "t0": 134880, 
                            "v": 52, 
                            "dur": 480, 
                            "type": "note", 
                            "channel": 1
                        }
                    ]
                ], 
                [
                    135360, 
                    [
                        {
                            "pitch": 72, 
                            "t0": 135360, 
                            "v": 52, 
                            "dur": 480, 
                            "type": "note", 
                            "channel": 1
                        }
                    ]
                ], 
                [
                    135840, 
                    [
                        {
                            "pitch": 76, 
                            "t0": 135840, 
                            "v": 53, 
                            "dur": 480, 
                            "type": "note", 
                            "channel": 1
                        }
                    ]
                ], 
                [
                    136320, 
                    [
                        {
                            "pitch": 41, 
                            "t0": 136320, 
                            "v": 53, 
                            "dur": 480, 
                            "type": "note", 
                            "channel": 1
                        }
                    ]
                ], 
                [
                    136800, 
                    [
                        {
                            "pitch": 48, 
                            "t0": 136800, 
                            "v": 53, 
                            "dur": 480, 
                            "type": "note", 
                            "channel": 1
                        }
                    ]
                ], 
                [
                    137280, 
                    [
                        {
                            "pitch": 53, 
                            "t0": 137280, 
                            "v": 53, 
                            "dur": 480, 
                            "type": "note", 
                            "channel": 1
                        }
                    ]
                ], 
                [
                    137760, 
                    [
                        {
                            "pitch": 57, 
                            "t0": 137760, 
                            "v": 53, 
                            "dur": 480, 
                            "type": "note", 
                            "channel": 1
                        }
                    ]
                ], 
                [
                    138240, 
                    [
                        {
                            "pitch": 60, 
                            "t0": 138240, 
                            "v": 53, 
                            "dur": 480, 
                            "type": "note", 
                            "channel": 1
                        }
                    ]
                ], 
                [
                    138720, 
                    [
                        {
                            "pitch": 65, 
                            "t0": 138720, 
                            "v": 53, 
                            "dur": 480, 
                            "type": "note", 
                            "channel": 1
                        }
                    ]
                ], 
                [
                    139200, 
                    [
                        {
                            "pitch": 69, 
                            "t0": 139200, 
                            "v": 53, 
                            "dur": 480, 
                            "type": "note", 
                            "channel": 1
                        }
                    ]
                ], 
                [
                    139680, 
                    [
                        {
                            "pitch": 72, 
                            "t0": 139680, 
                            "v": 53, 
                            "dur": 480, 
                            "type": "note", 
                            "channel": 1
                        }
                    ]
                ], 
                [
                    140160, 
                    [
                        {
                            "pitch": 43, 
                            "t0": 140160, 
                            "v": 53, 
                            "dur": 480, 
                            "type": "note", 
                            "channel": 1
                        }
                    ]
                ], 
                [
                    140640, 
                    [
                        {
                            "pitch": 50, 
                            "t0": 140640, 
                            "v": 53, 
                            "dur": 480, 
                            "type": "note", 
                            "channel": 1
                        }
                    ]
                ], 
                [
                    141120, 
                    [
                        {
                            "pitch": 55, 
                            "t0": 141120, 
                            "v": 54, 
                            "dur": 480, 
                            "type": "note", 
                            "channel": 1
                        }
                    ]
                ], 
                [
                    141600, 
                    [
                        {
                            "pitch": 59, 
                            "t0": 141600, 
                            "v": 54, 
                            "dur": 480, 
                            "type": "note", 
                            "channel": 1
                        }
                    ]
                ], 
                [
                    142080, 
                    [
                        {
                            "pitch": 62, 
                            "t0": 142080, 
                            "v": 54, 
                            "dur": 480, 
                            "type": "note", 
                            "channel": 1
                        }
                    ]
                ], 
                [
                    142560, 
                    [
                        {
                            "pitch": 67, 
                            "t0": 142560, 
                            "v": 54, 
                            "dur": 480, 
                            "type": "note", 
                            "channel": 1
                        }
                    ]
                ], 
                [
                    143040, 
                    [
                        {
                            "pitch": 71, 
                            "t0": 143040, 
                            "v": 54, 
                            "dur": 480, 
                            "type": "note", 
                            "channel": 1
                        }
                    ]
                ], 
                [
                    143520, 
                    [
                        {
                            "pitch": 74, 
                            "t0": 143520, 
                            "v": 54, 
                            "dur": 480, 
                            "type": "note", 
                            "channel": 1
                        }
                    ]
                ], 
                [
                    144000, 
                    [
                        {
                            "pitch": 62, 
                            "t0": 144000, 
                            "v": 53, 
                            "dur": 480, 
                            "type": "note", 
                            "channel": 1
                        }
                    ]
                ], 
                [
                    147840, 
                    [
                        {
                            "pitch": 45, 
                            "t0": 147840, 
                            "v": 53, 
                            "dur": 480, 
                            "type": "note", 
                            "channel": 1
                        }
                    ]
                ], 
                [
                    148320, 
                    [
                        {
                            "pitch": 52, 
                            "t0": 148320, 
                            "v": 53, 
                            "dur": 480, 
                            "type": "note", 
                            "channel": 1
                        }
                    ]
                ], 
                [
                    148800, 
                    [
                        {
                            "pitch": 57, 
                            "t0": 148800, 
                            "v": 53, 
                            "dur": 480, 
                            "type": "note", 
                            "channel": 1
                        }
                    ]
                ], 
                [
                    149280, 
                    [
                        {
                            "pitch": 60, 
                            "t0": 149280, 
                            "v": 53, 
                            "dur": 480, 
                            "type": "note", 
                            "channel": 1
                        }
                    ]
                ], 
                [
                    149760, 
                    [
                        {
                            "pitch": 64, 
                            "t0": 149760, 
                            "v": 53, 
                            "dur": 480, 
                            "type": "note", 
                            "channel": 1
                        }
                    ]
                ], 
                [
                    150240, 
                    [
                        {
                            "pitch": 69, 
                            "t0": 150240, 
                            "v": 53, 
                            "dur": 480, 
                            "type": "note", 
                            "channel": 1
                        }
                    ]
                ], 
                [
                    150720, 
                    [
                        {
                            "pitch": 72, 
                            "t0": 150720, 
                            "v": 53, 
                            "dur": 480, 
                            "type": "note", 
                            "channel": 1
                        }
                    ]
                ], 
                [
                    151200, 
                    [
                        {
                            "pitch": 76, 
                            "t0": 151200, 
                            "v": 53, 
                            "dur": 480, 
                            "type": "note", 
                            "channel": 1
                        }
                    ]
                ], 
                [
                    151680, 
                    [
                        {
                            "pitch": 40, 
                            "t0": 151680, 
                            "v": 53, 
                            "dur": 480, 
                            "type": "note", 
                            "channel": 1
                        }
                    ]
                ], 
                [
                    152160, 
                    [
                        {
                            "pitch": 47, 
                            "t0": 152160, 
                            "v": 53, 
                            "dur": 480, 
                            "type": "note", 
                            "channel": 1
                        }
                    ]
                ], 
                [
                    152640, 
                    [
                        {
                            "pitch": 52, 
                            "t0": 152640, 
                            "v": 53, 
                            "dur": 480, 
                            "type": "note", 
                            "channel": 1
                        }
                    ]
                ], 
                [
                    153120, 
                    [
                        {
                            "pitch": 55, 
                            "t0": 153120, 
                            "v": 53, 
                            "dur": 480, 
                            "type": "note", 
                            "channel": 1
                        }
                    ]
                ], 
                [
                    153600, 
                    [
                        {
                            "pitch": 59, 
                            "t0": 153600, 
                            "v": 53, 
                            "dur": 480, 
                            "type": "note", 
                            "channel": 1
                        }
                    ]
                ], 
                [
                    154080, 
                    [
                        {
                            "pitch": 64, 
                            "t0": 154080, 
                            "v": 53, 
                            "dur": 480, 
                            "type": "note", 
                            "channel": 1
                        }
                    ]
                ], 
                [
                    154560, 
                    [
                        {
                            "pitch": 67, 
                            "t0": 154560, 
                            "v": 53, 
                            "dur": 480, 
                            "type": "note", 
                            "channel": 1
                        }
                    ]
                ], 
                [
                    155040, 
                    [
                        {
                            "pitch": 71, 
                            "t0": 155040, 
                            "v": 53, 
                            "dur": 480, 
                            "type": "note", 
                            "channel": 1
                        }
                    ]
                ], 
                [
                    155520, 
                    [
                        {
                            "pitch": 45, 
                            "t0": 155520, 
                            "v": 53, 
                            "dur": 480, 
                            "type": "note", 
                            "channel": 1
                        }
                    ]
                ], 
                [
                    156000, 
                    [
                        {
                            "pitch": 52, 
                            "t0": 156000, 
                            "v": 53, 
                            "dur": 480, 
                            "type": "note", 
                            "channel": 1
                        }
                    ]
                ], 
                [
                    156480, 
                    [
                        {
                            "pitch": 57, 
                            "t0": 156480, 
                            "v": 53, 
                            "dur": 480, 
                            "type": "note", 
                            "channel": 1
                        }
                    ]
                ], 
                [
                    156960, 
                    [
                        {
                            "pitch": 60, 
                            "t0": 156960, 
                            "v": 53, 
                            "dur": 480, 
                            "type": "note", 
                            "channel": 1
                        }
                    ]
                ], 
                [
                    157440, 
                    [
                        {
                            "pitch": 64, 
                            "t0": 157440, 
                            "v": 53, 
                            "dur": 480, 
                            "type": "note", 
                            "channel": 1
                        }
                    ]
                ], 
                [
                    157920, 
                    [
                        {
                            "pitch": 69, 
                            "t0": 157920, 
                            "v": 53, 
                            "dur": 480, 
                            "type": "note", 
                            "channel": 1
                        }
                    ]
                ], 
                [
                    158400, 
                    [
                        {
                            "pitch": 72, 
                            "t0": 158400, 
                            "v": 53, 
                            "dur": 480, 
                            "type": "note", 
                            "channel": 1
                        }
                    ]
                ], 
                [
                    158880, 
                    [
                        {
                            "pitch": 76, 
                            "t0": 158880, 
                            "v": 53, 
                            "dur": 480, 
                            "type": "note", 
                            "channel": 1
                        }
                    ]
                ], 
                [
                    159360, 
                    [
                        {
                            "pitch": 40, 
                            "t0": 159360, 
                            "v": 53, 
                            "dur": 480, 
                            "type": "note", 
                            "channel": 1
                        }
                    ]
                ], 
                [
                    159840, 
                    [
                        {
                            "pitch": 47, 
                            "t0": 159840, 
                            "v": 53, 
                            "dur": 480, 
                            "type": "note", 
                            "channel": 1
                        }
                    ]
                ], 
                [
                    160320, 
                    [
                        {
                            "pitch": 52, 
                            "t0": 160320, 
                            "v": 53, 
                            "dur": 480, 
                            "type": "note", 
                            "channel": 1
                        }
                    ]
                ], 
                [
                    160800, 
                    [
                        {
                            "pitch": 55, 
                            "t0": 160800, 
                            "v": 53, 
                            "dur": 480, 
                            "type": "note", 
                            "channel": 1
                        }
                    ]
                ], 
                [
                    161280, 
                    [
                        {
                            "pitch": 59, 
                            "t0": 161280, 
                            "v": 53, 
                            "dur": 480, 
                            "type": "note", 
                            "channel": 1
                        }
                    ]
                ], 
                [
                    161760, 
                    [
                        {
                            "pitch": 64, 
                            "t0": 161760, 
                            "v": 53, 
                            "dur": 480, 
                            "type": "note", 
                            "channel": 1
                        }
                    ]
                ], 
                [
                    162240, 
                    [
                        {
                            "pitch": 67, 
                            "t0": 162240, 
                            "v": 53, 
                            "dur": 480, 
                            "type": "note", 
                            "channel": 1
                        }
                    ]
                ], 
                [
                    162720, 
                    [
                        {
                            "pitch": 71, 
                            "t0": 162720, 
                            "v": 53, 
                            "dur": 480, 
                            "type": "note", 
                            "channel": 1
                        }
                    ]
                ], 
                [
                    163200, 
                    [
                        {
                            "pitch": 41, 
                            "t0": 163200, 
                            "v": 53, 
                            "dur": 480, 
                            "type": "note", 
                            "channel": 1
                        }
                    ]
                ], 
                [
                    163680, 
                    [
                        {
                            "pitch": 48, 
                            "t0": 163680, 
                            "v": 53, 
                            "dur": 480, 
                            "type": "note", 
                            "channel": 1
                        }
                    ]
                ], 
                [
                    164160, 
                    [
                        {
                            "pitch": 53, 
                            "t0": 164160, 
                            "v": 53, 
                            "dur": 480, 
                            "type": "note", 
                            "channel": 1
                        }
                    ]
                ], 
                [
                    164640, 
                    [
                        {
                            "pitch": 57, 
                            "t0": 164640, 
                            "v": 53, 
                            "dur": 480, 
                            "type": "note", 
                            "channel": 1
                        }
                    ]
                ], 
                [
                    165120, 
                    [
                        {
                            "pitch": 60, 
                            "t0": 165120, 
                            "v": 53, 
                            "dur": 480, 
                            "type": "note", 
                            "channel": 1
                        }
                    ]
                ], 
                [
                    165600, 
                    [
                        {
                            "pitch": 65, 
                            "t0": 165600, 
                            "v": 53, 
                            "dur": 480, 
                            "type": "note", 
                            "channel": 1
                        }
                    ]
                ], 
                [
                    166080, 
                    [
                        {
                            "pitch": 69, 
                            "t0": 166080, 
                            "v": 53, 
                            "dur": 480, 
                            "type": "note", 
                            "channel": 1
                        }
                    ]
                ], 
                [
                    166560, 
                    [
                        {
                            "pitch": 72, 
                            "t0": 166560, 
                            "v": 52, 
                            "dur": 480, 
                            "type": "note", 
                            "channel": 1
                        }
                    ]
                ], 
                [
                    167040, 
                    [
                        {
                            "pitch": 45, 
                            "t0": 167040, 
                            "v": 52, 
                            "dur": 480, 
                            "type": "note", 
                            "channel": 1
                        }
                    ]
                ], 
                [
                    167520, 
                    [
                        {
                            "pitch": 52, 
                            "t0": 167520, 
                            "v": 52, 
                            "dur": 480, 
                            "type": "note", 
                            "channel": 1
                        }
                    ]
                ], 
                [
                    168000, 
                    [
                        {
                            "pitch": 57, 
                            "t0": 168000, 
                            "v": 52, 
                            "dur": 480, 
                            "type": "note", 
                            "channel": 1
                        }
                    ]
                ], 
                [
                    168480, 
                    [
                        {
                            "pitch": 60, 
                            "t0": 168480, 
                            "v": 52, 
                            "dur": 480, 
                            "type": "note", 
                            "channel": 1
                        }
                    ]
                ], 
                [
                    168960, 
                    [
                        {
                            "pitch": 64, 
                            "t0": 168960, 
                            "v": 52, 
                            "dur": 480, 
                            "type": "note", 
                            "channel": 1
                        }
                    ]
                ], 
                [
                    169440, 
                    [
                        {
                            "pitch": 69, 
                            "t0": 169440, 
                            "v": 52, 
                            "dur": 480, 
                            "type": "note", 
                            "channel": 1
                        }
                    ]
                ], 
                [
                    169920, 
                    [
                        {
                            "pitch": 72, 
                            "t0": 169920, 
                            "v": 52, 
                            "dur": 480, 
                            "type": "note", 
                            "channel": 1
                        }
                    ]
                ], 
                [
                    170400, 
                    [
                        {
                            "pitch": 76, 
                            "t0": 170400, 
                            "v": 53, 
                            "dur": 480, 
                            "type": "note", 
                            "channel": 1
                        }
                    ]
                ], 
                [
                    170880, 
                    [
                        {
                            "pitch": 41, 
                            "t0": 170880, 
                            "v": 53, 
                            "dur": 480, 
                            "type": "note", 
                            "channel": 1
                        }
                    ]
                ], 
                [
                    171360, 
                    [
                        {
                            "pitch": 48, 
                            "t0": 171360, 
                            "v": 53, 
                            "dur": 480, 
                            "type": "note", 
                            "channel": 1
                        }
                    ]
                ], 
                [
                    171840, 
                    [
                        {
                            "pitch": 53, 
                            "t0": 171840, 
                            "v": 53, 
                            "dur": 480, 
                            "type": "note", 
                            "channel": 1
                        }
                    ]
                ], 
                [
                    172320, 
                    [
                        {
                            "pitch": 57, 
                            "t0": 172320, 
                            "v": 53, 
                            "dur": 480, 
                            "type": "note", 
                            "channel": 1
                        }
                    ]
                ], 
                [
                    172800, 
                    [
                        {
                            "pitch": 60, 
                            "t0": 172800, 
                            "v": 53, 
                            "dur": 480, 
                            "type": "note", 
                            "channel": 1
                        }
                    ]
                ], 
                [
                    173280, 
                    [
                        {
                            "pitch": 65, 
                            "t0": 173280, 
                            "v": 53, 
                            "dur": 480, 
                            "type": "note", 
                            "channel": 1
                        }
                    ]
                ], 
                [
                    173760, 
                    [
                        {
                            "pitch": 69, 
                            "t0": 173760, 
                            "v": 53, 
                            "dur": 480, 
                            "type": "note", 
                            "channel": 1
                        }
                    ]
                ], 
                [
                    174240, 
                    [
                        {
                            "pitch": 72, 
                            "t0": 174240, 
                            "v": 53, 
                            "dur": 480, 
                            "type": "note", 
                            "channel": 1
                        }
                    ]
                ], 
                [
                    174720, 
                    [
                        {
                            "pitch": 43, 
                            "t0": 174720, 
                            "v": 53, 
                            "dur": 480, 
                            "type": "note", 
                            "channel": 1
                        }
                    ]
                ], 
                [
                    175200, 
                    [
                        {
                            "pitch": 50, 
                            "t0": 175200, 
                            "v": 53, 
                            "dur": 480, 
                            "type": "note", 
                            "channel": 1
                        }
                    ]
                ], 
                [
                    175680, 
                    [
                        {
                            "pitch": 55, 
                            "t0": 175680, 
                            "v": 54, 
                            "dur": 480, 
                            "type": "note", 
                            "channel": 1
                        }
                    ]
                ], 
                [
                    176160, 
                    [
                        {
                            "pitch": 59, 
                            "t0": 176160, 
                            "v": 54, 
                            "dur": 480, 
                            "type": "note", 
                            "channel": 1
                        }
                    ]
                ], 
                [
                    176640, 
                    [
                        {
                            "pitch": 62, 
                            "t0": 176640, 
                            "v": 54, 
                            "dur": 480, 
                            "type": "note", 
                            "channel": 1
                        }
                    ]
                ], 
                [
                    177120, 
                    [
                        {
                            "pitch": 67, 
                            "t0": 177120, 
                            "v": 54, 
                            "dur": 480, 
                            "type": "note", 
                            "channel": 1
                        }
                    ]
                ], 
                [
                    177600, 
                    [
                        {
                            "pitch": 71, 
                            "t0": 177600, 
                            "v": 54, 
                            "dur": 480, 
                            "type": "note", 
                            "channel": 1
                        }
                    ]
                ], 
                [
                    178080, 
                    [
                        {
                            "pitch": 74, 
                            "t0": 178080, 
                            "v": 54, 
                            "dur": 480, 
                            "type": "note", 
                            "channel": 1
                        }
                    ]
                ], 
                [
                    178560, 
                    [
                        {
                            "pitch": 62, 
                            "t0": 178560, 
                            "v": 53, 
                            "dur": 480, 
                            "type": "note", 
                            "channel": 1
                        }
                    ]
                ]
            ], 
            "instruments": [
                46
            ], 
            "tMax": 179040, 
            "channels": [
                1
            ], 
            "instrument": 46, 
            "numNotes": 260, 
            "type": "TrackObj"
        }, 
        {
            "trackName": "Track 3", 
            "seq": [
                [
                    0, 
                    [
                        {
                            "instrument": 49, 
                            "type": "programChange", 
                            "t0": 0, 
                            "channel": 2
                        }
                    ]
                ], 
                [
                    5760, 
                    [
                        {
                            "pitch": 69, 
                            "t0": 5760, 
                            "v": 60, 
                            "dur": 817, 
                            "type": "note", 
                            "channel": 2
                        }, 
                        {
                            "pitch": 72, 
                            "t0": 5760, 
                            "v": 60, 
                            "dur": 873, 
                            "type": "note", 
                            "channel": 2
                        }, 
                        {
                            "pitch": 81, 
                            "t0": 5760, 
                            "v": 60, 
                            "dur": 880, 
                            "type": "note", 
                            "channel": 2
                        }, 
                        {
                            "pitch": 64, 
                            "t0": 5760, 
                            "v": 60, 
                            "dur": 903, 
                            "type": "note", 
                            "channel": 2
                        }, 
                        {
                            "pitch": 84, 
                            "t0": 5760, 
                            "v": 60, 
                            "dur": 941, 
                            "type": "note", 
                            "channel": 2
                        }, 
                        {
                            "pitch": 76, 
                            "t0": 5760, 
                            "v": 60, 
                            "dur": 1013, 
                            "type": "note", 
                            "channel": 2
                        }
                    ]
                ], 
                [
                    9600, 
                    [
                        {
                            "pitch": 64, 
                            "t0": 9600, 
                            "v": 60, 
                            "dur": 1155, 
                            "type": "note", 
                            "channel": 2
                        }, 
                        {
                            "pitch": 76, 
                            "t0": 9600, 
                            "v": 60, 
                            "dur": 1167, 
                            "type": "note", 
                            "channel": 2
                        }, 
                        {
                            "pitch": 67, 
                            "t0": 9600, 
                            "v": 60, 
                            "dur": 1210, 
                            "type": "note", 
                            "channel": 2
                        }, 
                        {
                            "pitch": 71, 
                            "t0": 9600, 
                            "v": 60, 
                            "dur": 1213, 
                            "type": "note", 
                            "channel": 2
                        }, 
                        {
                            "pitch": 79, 
                            "t0": 9600, 
                            "v": 60, 
                            "dur": 1213, 
                            "type": "note", 
                            "channel": 2
                        }, 
                        {
                            "pitch": 83, 
                            "t0": 9600, 
                            "v": 60, 
                            "dur": 1256, 
                            "type": "note", 
                            "channel": 2
                        }
                    ]
                ], 
                [
                    13440, 
                    [
                        {
                            "pitch": 76, 
                            "t0": 13440, 
                            "v": 60, 
                            "dur": 1337, 
                            "type": "note", 
                            "channel": 2
                        }, 
                        {
                            "pitch": 81, 
                            "t0": 13440, 
                            "v": 60, 
                            "dur": 1398, 
                            "type": "note", 
                            "channel": 2
                        }, 
                        {
                            "pitch": 69, 
                            "t0": 13440, 
                            "v": 60, 
                            "dur": 1448, 
                            "type": "note", 
                            "channel": 2
                        }, 
                        {
                            "pitch": 72, 
                            "t0": 13440, 
                            "v": 60, 
                            "dur": 1466, 
                            "type": "note", 
                            "channel": 2
                        }, 
                        {
                            "pitch": 64, 
                            "t0": 13440, 
                            "v": 60, 
                            "dur": 1476, 
                            "type": "note", 
                            "channel": 2
                        }, 
                        {
                            "pitch": 84, 
                            "t0": 13440, 
                            "v": 60, 
                            "dur": 1540, 
                            "type": "note", 
                            "channel": 2
                        }
                    ]
                ], 
                [
                    17280, 
                    [
                        {
                            "pitch": 71, 
                            "t0": 17280, 
                            "v": 60, 
                            "dur": 1227, 
                            "type": "note", 
                            "channel": 2
                        }, 
                        {
                            "pitch": 64, 
                            "t0": 17280, 
                            "v": 60, 
                            "dur": 1253, 
                            "type": "note", 
                            "channel": 2
                        }, 
                        {
                            "pitch": 79, 
                            "t0": 17280, 
                            "v": 60, 
                            "dur": 1255, 
                            "type": "note", 
                            "channel": 2
                        }, 
                        {
                            "pitch": 76, 
                            "t0": 17280, 
                            "v": 60, 
                            "dur": 1257, 
                            "type": "note", 
                            "channel": 2
                        }, 
                        {
                            "pitch": 67, 
                            "t0": 17280, 
                            "v": 60, 
                            "dur": 1293, 
                            "type": "note", 
                            "channel": 2
                        }, 
                        {
                            "pitch": 83, 
                            "t0": 17280, 
                            "v": 60, 
                            "dur": 1337, 
                            "type": "note", 
                            "channel": 2
                        }
                    ]
                ], 
                [
                    21120, 
                    [
                        {
                            "pitch": 69, 
                            "t0": 21120, 
                            "v": 60, 
                            "dur": 1497, 
                            "type": "note", 
                            "channel": 2
                        }, 
                        {
                            "pitch": 65, 
                            "t0": 21120, 
                            "v": 60, 
                            "dur": 1547, 
                            "type": "note", 
                            "channel": 2
                        }, 
                        {
                            "pitch": 60, 
                            "t0": 21120, 
                            "v": 60, 
                            "dur": 1553, 
                            "type": "note", 
                            "channel": 2
                        }, 
                        {
                            "pitch": 77, 
                            "t0": 21120, 
                            "v": 60, 
                            "dur": 1556, 
                            "type": "note", 
                            "channel": 2
                        }, 
                        {
                            "pitch": 72, 
                            "t0": 21120, 
                            "v": 60, 
                            "dur": 1575, 
                            "type": "note", 
                            "channel": 2
                        }, 
                        {
                            "pitch": 81, 
                            "t0": 21120, 
                            "v": 60, 
                            "dur": 1583, 
                            "type": "note", 
                            "channel": 2
                        }
                    ]
                ], 
                [
                    24960, 
                    [
                        {
                            "pitch": 57, 
                            "t0": 24960, 
                            "v": 60, 
                            "dur": 962, 
                            "type": "note", 
                            "channel": 2
                        }, 
                        {
                            "pitch": 72, 
                            "t0": 24960, 
                            "v": 60, 
                            "dur": 965, 
                            "type": "note", 
                            "channel": 2
                        }, 
                        {
                            "pitch": 69, 
                            "t0": 24960, 
                            "v": 60, 
                            "dur": 986, 
                            "type": "note", 
                            "channel": 2
                        }, 
                        {
                            "pitch": 64, 
                            "t0": 24960, 
                            "v": 60, 
                            "dur": 1003, 
                            "type": "note", 
                            "channel": 2
                        }, 
                        {
                            "pitch": 60, 
                            "t0": 24960, 
                            "v": 60, 
                            "dur": 1013, 
                            "type": "note", 
                            "channel": 2
                        }, 
                        {
                            "pitch": 76, 
                            "t0": 24960, 
                            "v": 60, 
                            "dur": 1017, 
                            "type": "note", 
                            "channel": 2
                        }
                    ]
                ], 
                [
                    28800, 
                    [
                        {
                            "pitch": 72, 
                            "t0": 28800, 
                            "v": 72, 
                            "dur": 1595, 
                            "type": "note", 
                            "channel": 2
                        }, 
                        {
                            "pitch": 69, 
                            "t0": 28800, 
                            "v": 72, 
                            "dur": 1618, 
                            "type": "note", 
                            "channel": 2
                        }, 
                        {
                            "pitch": 65, 
                            "t0": 28800, 
                            "v": 72, 
                            "dur": 1627, 
                            "type": "note", 
                            "channel": 2
                        }, 
                        {
                            "pitch": 81, 
                            "t0": 28800, 
                            "v": 72, 
                            "dur": 1632, 
                            "type": "note", 
                            "channel": 2
                        }, 
                        {
                            "pitch": 77, 
                            "t0": 28800, 
                            "v": 72, 
                            "dur": 1635, 
                            "type": "note", 
                            "channel": 2
                        }, 
                        {
                            "pitch": 84, 
                            "t0": 28800, 
                            "v": 72, 
                            "dur": 1680, 
                            "type": "note", 
                            "channel": 2
                        }
                    ]
                ], 
                [
                    32640, 
                    [
                        {
                            "pitch": 83, 
                            "t0": 32640, 
                            "v": 85, 
                            "dur": 1653, 
                            "type": "note", 
                            "channel": 2
                        }, 
                        {
                            "pitch": 74, 
                            "t0": 32640, 
                            "v": 85, 
                            "dur": 1666, 
                            "type": "note", 
                            "channel": 2
                        }, 
                        {
                            "pitch": 71, 
                            "t0": 32640, 
                            "v": 85, 
                            "dur": 1745, 
                            "type": "note", 
                            "channel": 2
                        }, 
                        {
                            "pitch": 67, 
                            "t0": 32640, 
                            "v": 85, 
                            "dur": 1753, 
                            "type": "note", 
                            "channel": 2
                        }, 
                        {
                            "pitch": 79, 
                            "t0": 32640, 
                            "v": 85, 
                            "dur": 1756, 
                            "type": "note", 
                            "channel": 2
                        }, 
                        {
                            "pitch": 86, 
                            "t0": 32640, 
                            "v": 85, 
                            "dur": 1795, 
                            "type": "note", 
                            "channel": 2
                        }
                    ]
                ], 
                [
                    40320, 
                    [
                        {
                            "pitch": 69, 
                            "t0": 40320, 
                            "v": 60, 
                            "dur": 817, 
                            "type": "note", 
                            "channel": 2
                        }, 
                        {
                            "pitch": 72, 
                            "t0": 40320, 
                            "v": 60, 
                            "dur": 873, 
                            "type": "note", 
                            "channel": 2
                        }, 
                        {
                            "pitch": 81, 
                            "t0": 40320, 
                            "v": 60, 
                            "dur": 880, 
                            "type": "note", 
                            "channel": 2
                        }, 
                        {
                            "pitch": 64, 
                            "t0": 40320, 
                            "v": 60, 
                            "dur": 903, 
                            "type": "note", 
                            "channel": 2
                        }, 
                        {
                            "pitch": 84, 
                            "t0": 40320, 
                            "v": 60, 
                            "dur": 941, 
                            "type": "note", 
                            "channel": 2
                        }, 
                        {
                            "pitch": 76, 
                            "t0": 40320, 
                            "v": 60, 
                            "dur": 1013, 
                            "type": "note", 
                            "channel": 2
                        }
                    ]
                ], 
                [
                    44160, 
                    [
                        {
                            "pitch": 64, 
                            "t0": 44160, 
                            "v": 60, 
                            "dur": 1155, 
                            "type": "note", 
                            "channel": 2
                        }, 
                        {
                            "pitch": 76, 
                            "t0": 44160, 
                            "v": 60, 
                            "dur": 1167, 
                            "type": "note", 
                            "channel": 2
                        }, 
                        {
                            "pitch": 67, 
                            "t0": 44160, 
                            "v": 60, 
                            "dur": 1210, 
                            "type": "note", 
                            "channel": 2
                        }, 
                        {
                            "pitch": 71, 
                            "t0": 44160, 
                            "v": 60, 
                            "dur": 1213, 
                            "type": "note", 
                            "channel": 2
                        }, 
                        {
                            "pitch": 79, 
                            "t0": 44160, 
                            "v": 60, 
                            "dur": 1213, 
                            "type": "note", 
                            "channel": 2
                        }, 
                        {
                            "pitch": 83, 
                            "t0": 44160, 
                            "v": 60, 
                            "dur": 1256, 
                            "type": "note", 
                            "channel": 2
                        }
                    ]
                ], 
                [
                    48000, 
                    [
                        {
                            "pitch": 76, 
                            "t0": 48000, 
                            "v": 60, 
                            "dur": 1337, 
                            "type": "note", 
                            "channel": 2
                        }, 
                        {
                            "pitch": 81, 
                            "t0": 48000, 
                            "v": 60, 
                            "dur": 1398, 
                            "type": "note", 
                            "channel": 2
                        }, 
                        {
                            "pitch": 69, 
                            "t0": 48000, 
                            "v": 60, 
                            "dur": 1448, 
                            "type": "note", 
                            "channel": 2
                        }, 
                        {
                            "pitch": 72, 
                            "t0": 48000, 
                            "v": 60, 
                            "dur": 1466, 
                            "type": "note", 
                            "channel": 2
                        }, 
                        {
                            "pitch": 64, 
                            "t0": 48000, 
                            "v": 60, 
                            "dur": 1476, 
                            "type": "note", 
                            "channel": 2
                        }, 
                        {
                            "pitch": 84, 
                            "t0": 48000, 
                            "v": 60, 
                            "dur": 1540, 
                            "type": "note", 
                            "channel": 2
                        }
                    ]
                ], 
                [
                    51840, 
                    [
                        {
                            "pitch": 71, 
                            "t0": 51840, 
                            "v": 60, 
                            "dur": 1227, 
                            "type": "note", 
                            "channel": 2
                        }, 
                        {
                            "pitch": 64, 
                            "t0": 51840, 
                            "v": 60, 
                            "dur": 1253, 
                            "type": "note", 
                            "channel": 2
                        }, 
                        {
                            "pitch": 79, 
                            "t0": 51840, 
                            "v": 60, 
                            "dur": 1255, 
                            "type": "note", 
                            "channel": 2
                        }, 
                        {
                            "pitch": 76, 
                            "t0": 51840, 
                            "v": 60, 
                            "dur": 1257, 
                            "type": "note", 
                            "channel": 2
                        }, 
                        {
                            "pitch": 67, 
                            "t0": 51840, 
                            "v": 60, 
                            "dur": 1293, 
                            "type": "note", 
                            "channel": 2
                        }, 
                        {
                            "pitch": 83, 
                            "t0": 51840, 
                            "v": 60, 
                            "dur": 1337, 
                            "type": "note", 
                            "channel": 2
                        }
                    ]
                ], 
                [
                    55680, 
                    [
                        {
                            "pitch": 69, 
                            "t0": 55680, 
                            "v": 60, 
                            "dur": 1497, 
                            "type": "note", 
                            "channel": 2
                        }, 
                        {
                            "pitch": 65, 
                            "t0": 55680, 
                            "v": 60, 
                            "dur": 1547, 
                            "type": "note", 
                            "channel": 2
                        }, 
                        {
                            "pitch": 60, 
                            "t0": 55680, 
                            "v": 60, 
                            "dur": 1553, 
                            "type": "note", 
                            "channel": 2
                        }, 
                        {
                            "pitch": 77, 
                            "t0": 55680, 
                            "v": 60, 
                            "dur": 1556, 
                            "type": "note", 
                            "channel": 2
                        }, 
                        {
                            "pitch": 72, 
                            "t0": 55680, 
                            "v": 60, 
                            "dur": 1575, 
                            "type": "note", 
                            "channel": 2
                        }, 
                        {
                            "pitch": 81, 
                            "t0": 55680, 
                            "v": 60, 
                            "dur": 1583, 
                            "type": "note", 
                            "channel": 2
                        }
                    ]
                ], 
                [
                    59520, 
                    [
                        {
                            "pitch": 57, 
                            "t0": 59520, 
                            "v": 60, 
                            "dur": 962, 
                            "type": "note", 
                            "channel": 2
                        }, 
                        {
                            "pitch": 72, 
                            "t0": 59520, 
                            "v": 60, 
                            "dur": 965, 
                            "type": "note", 
                            "channel": 2
                        }, 
                        {
                            "pitch": 69, 
                            "t0": 59520, 
                            "v": 60, 
                            "dur": 986, 
                            "type": "note", 
                            "channel": 2
                        }, 
                        {
                            "pitch": 64, 
                            "t0": 59520, 
                            "v": 60, 
                            "dur": 1003, 
                            "type": "note", 
                            "channel": 2
                        }, 
                        {
                            "pitch": 60, 
                            "t0": 59520, 
                            "v": 60, 
                            "dur": 1013, 
                            "type": "note", 
                            "channel": 2
                        }, 
                        {
                            "pitch": 76, 
                            "t0": 59520, 
                            "v": 60, 
                            "dur": 1017, 
                            "type": "note", 
                            "channel": 2
                        }
                    ]
                ], 
                [
                    63360, 
                    [
                        {
                            "pitch": 72, 
                            "t0": 63360, 
                            "v": 72, 
                            "dur": 1595, 
                            "type": "note", 
                            "channel": 2
                        }, 
                        {
                            "pitch": 69, 
                            "t0": 63360, 
                            "v": 72, 
                            "dur": 1618, 
                            "type": "note", 
                            "channel": 2
                        }, 
                        {
                            "pitch": 65, 
                            "t0": 63360, 
                            "v": 72, 
                            "dur": 1627, 
                            "type": "note", 
                            "channel": 2
                        }, 
                        {
                            "pitch": 81, 
                            "t0": 63360, 
                            "v": 72, 
                            "dur": 1632, 
                            "type": "note", 
                            "channel": 2
                        }, 
                        {
                            "pitch": 77, 
                            "t0": 63360, 
                            "v": 72, 
                            "dur": 1635, 
                            "type": "note", 
                            "channel": 2
                        }, 
                        {
                            "pitch": 84, 
                            "t0": 63360, 
                            "v": 72, 
                            "dur": 1680, 
                            "type": "note", 
                            "channel": 2
                        }
                    ]
                ], 
                [
                    67200, 
                    [
                        {
                            "pitch": 83, 
                            "t0": 67200, 
                            "v": 85, 
                            "dur": 1653, 
                            "type": "note", 
                            "channel": 2
                        }, 
                        {
                            "pitch": 74, 
                            "t0": 67200, 
                            "v": 85, 
                            "dur": 1666, 
                            "type": "note", 
                            "channel": 2
                        }, 
                        {
                            "pitch": 71, 
                            "t0": 67200, 
                            "v": 85, 
                            "dur": 1745, 
                            "type": "note", 
                            "channel": 2
                        }, 
                        {
                            "pitch": 67, 
                            "t0": 67200, 
                            "v": 85, 
                            "dur": 1753, 
                            "type": "note", 
                            "channel": 2
                        }, 
                        {
                            "pitch": 79, 
                            "t0": 67200, 
                            "v": 85, 
                            "dur": 1756, 
                            "type": "note", 
                            "channel": 2
                        }, 
                        {
                            "pitch": 86, 
                            "t0": 67200, 
                            "v": 85, 
                            "dur": 1795, 
                            "type": "note", 
                            "channel": 2
                        }
                    ]
                ], 
                [
                    74880, 
                    [
                        {
                            "pitch": 60, 
                            "t0": 74880, 
                            "v": 86, 
                            "dur": 1920, 
                            "type": "note", 
                            "channel": 2
                        }, 
                        {
                            "pitch": 72, 
                            "t0": 74880, 
                            "v": 86, 
                            "dur": 1920, 
                            "type": "note", 
                            "channel": 2
                        }, 
                        {
                            "pitch": 48, 
                            "t0": 74880, 
                            "v": 86, 
                            "dur": 1920, 
                            "type": "note", 
                            "channel": 2
                        }, 
                        {
                            "pitch": 36, 
                            "t0": 74880, 
                            "v": 86, 
                            "dur": 1920, 
                            "type": "note", 
                            "channel": 2
                        }
                    ]
                ], 
                [
                    76800, 
                    [
                        {
                            "pitch": 55, 
                            "t0": 76800, 
                            "v": 86, 
                            "dur": 1920, 
                            "type": "note", 
                            "channel": 2
                        }, 
                        {
                            "pitch": 31, 
                            "t0": 76800, 
                            "v": 86, 
                            "dur": 1920, 
                            "type": "note", 
                            "channel": 2
                        }, 
                        {
                            "pitch": 43, 
                            "t0": 76800, 
                            "v": 86, 
                            "dur": 1920, 
                            "type": "note", 
                            "channel": 2
                        }, 
                        {
                            "pitch": 67, 
                            "t0": 76800, 
                            "v": 86, 
                            "dur": 1920, 
                            "type": "note", 
                            "channel": 2
                        }
                    ]
                ], 
                [
                    78720, 
                    [
                        {
                            "pitch": 57, 
                            "t0": 78720, 
                            "v": 86, 
                            "dur": 1920, 
                            "type": "note", 
                            "channel": 2
                        }, 
                        {
                            "pitch": 45, 
                            "t0": 78720, 
                            "v": 86, 
                            "dur": 1920, 
                            "type": "note", 
                            "channel": 2
                        }, 
                        {
                            "pitch": 33, 
                            "t0": 78720, 
                            "v": 86, 
                            "dur": 1920, 
                            "type": "note", 
                            "channel": 2
                        }, 
                        {
                            "pitch": 69, 
                            "t0": 78720, 
                            "v": 86, 
                            "dur": 1920, 
                            "type": "note", 
                            "channel": 2
                        }
                    ]
                ], 
                [
                    80640, 
                    [
                        {
                            "pitch": 28, 
                            "t0": 80640, 
                            "v": 86, 
                            "dur": 1920, 
                            "type": "note", 
                            "channel": 2
                        }, 
                        {
                            "pitch": 52, 
                            "t0": 80640, 
                            "v": 86, 
                            "dur": 1920, 
                            "type": "note", 
                            "channel": 2
                        }, 
                        {
                            "pitch": 40, 
                            "t0": 80640, 
                            "v": 86, 
                            "dur": 1920, 
                            "type": "note", 
                            "channel": 2
                        }, 
                        {
                            "pitch": 64, 
                            "t0": 80640, 
                            "v": 86, 
                            "dur": 1920, 
                            "type": "note", 
                            "channel": 2
                        }
                    ]
                ], 
                [
                    82560, 
                    [
                        {
                            "pitch": 65, 
                            "t0": 82560, 
                            "v": 86, 
                            "dur": 960, 
                            "type": "note", 
                            "channel": 2
                        }, 
                        {
                            "pitch": 41, 
                            "t0": 82560, 
                            "v": 86, 
                            "dur": 960, 
                            "type": "note", 
                            "channel": 2
                        }, 
                        {
                            "pitch": 29, 
                            "t0": 82560, 
                            "v": 86, 
                            "dur": 960, 
                            "type": "note", 
                            "channel": 2
                        }, 
                        {
                            "pitch": 53, 
                            "t0": 82560, 
                            "v": 86, 
                            "dur": 960, 
                            "type": "note", 
                            "channel": 2
                        }
                    ]
                ], 
                [
                    83520, 
                    [
                        {
                            "pitch": 55, 
                            "t0": 83520, 
                            "v": 86, 
                            "dur": 960, 
                            "type": "note", 
                            "channel": 2
                        }, 
                        {
                            "pitch": 43, 
                            "t0": 83520, 
                            "v": 86, 
                            "dur": 960, 
                            "type": "note", 
                            "channel": 2
                        }, 
                        {
                            "pitch": 31, 
                            "t0": 83520, 
                            "v": 86, 
                            "dur": 960, 
                            "type": "note", 
                            "channel": 2
                        }, 
                        {
                            "pitch": 67, 
                            "t0": 83520, 
                            "v": 86, 
                            "dur": 960, 
                            "type": "note", 
                            "channel": 2
                        }
                    ]
                ], 
                [
                    84480, 
                    [
                        {
                            "pitch": 57, 
                            "t0": 84480, 
                            "v": 86, 
                            "dur": 1440, 
                            "type": "note", 
                            "channel": 2
                        }, 
                        {
                            "pitch": 45, 
                            "t0": 84480, 
                            "v": 86, 
                            "dur": 1440, 
                            "type": "note", 
                            "channel": 2
                        }, 
                        {
                            "pitch": 33, 
                            "t0": 84480, 
                            "v": 86, 
                            "dur": 1440, 
                            "type": "note", 
                            "channel": 2
                        }, 
                        {
                            "pitch": 69, 
                            "t0": 84480, 
                            "v": 86, 
                            "dur": 1440, 
                            "type": "note", 
                            "channel": 2
                        }
                    ]
                ], 
                [
                    86400, 
                    [
                        {
                            "pitch": 72, 
                            "t0": 86400, 
                            "v": 86, 
                            "dur": 960, 
                            "type": "note", 
                            "channel": 2
                        }, 
                        {
                            "pitch": 48, 
                            "t0": 86400, 
                            "v": 86, 
                            "dur": 960, 
                            "type": "note", 
                            "channel": 2
                        }, 
                        {
                            "pitch": 36, 
                            "t0": 86400, 
                            "v": 86, 
                            "dur": 960, 
                            "type": "note", 
                            "channel": 2
                        }, 
                        {
                            "pitch": 60, 
                            "t0": 86400, 
                            "v": 86, 
                            "dur": 960, 
                            "type": "note", 
                            "channel": 2
                        }
                    ]
                ], 
                [
                    87360, 
                    [
                        {
                            "pitch": 67, 
                            "t0": 87360, 
                            "v": 86, 
                            "dur": 960, 
                            "type": "note", 
                            "channel": 2
                        }, 
                        {
                            "pitch": 31, 
                            "t0": 87360, 
                            "v": 86, 
                            "dur": 960, 
                            "type": "note", 
                            "channel": 2
                        }, 
                        {
                            "pitch": 55, 
                            "t0": 87360, 
                            "v": 86, 
                            "dur": 960, 
                            "type": "note", 
                            "channel": 2
                        }, 
                        {
                            "pitch": 43, 
                            "t0": 87360, 
                            "v": 86, 
                            "dur": 960, 
                            "type": "note", 
                            "channel": 2
                        }
                    ]
                ], 
                [
                    88320, 
                    [
                        {
                            "pitch": 57, 
                            "t0": 88320, 
                            "v": 86, 
                            "dur": 960, 
                            "type": "note", 
                            "channel": 2
                        }, 
                        {
                            "pitch": 45, 
                            "t0": 88320, 
                            "v": 86, 
                            "dur": 960, 
                            "type": "note", 
                            "channel": 2
                        }, 
                        {
                            "pitch": 33, 
                            "t0": 88320, 
                            "v": 86, 
                            "dur": 960, 
                            "type": "note", 
                            "channel": 2
                        }, 
                        {
                            "pitch": 69, 
                            "t0": 88320, 
                            "v": 86, 
                            "dur": 960, 
                            "type": "note", 
                            "channel": 2
                        }
                    ]
                ], 
                [
                    89280, 
                    [
                        {
                            "pitch": 64, 
                            "t0": 89280, 
                            "v": 86, 
                            "dur": 960, 
                            "type": "note", 
                            "channel": 2
                        }, 
                        {
                            "pitch": 52, 
                            "t0": 89280, 
                            "v": 86, 
                            "dur": 960, 
                            "type": "note", 
                            "channel": 2
                        }, 
                        {
                            "pitch": 40, 
                            "t0": 89280, 
                            "v": 86, 
                            "dur": 960, 
                            "type": "note", 
                            "channel": 2
                        }, 
                        {
                            "pitch": 28, 
                            "t0": 89280, 
                            "v": 86, 
                            "dur": 960, 
                            "type": "note", 
                            "channel": 2
                        }
                    ]
                ], 
                [
                    90240, 
                    [
                        {
                            "pitch": 29, 
                            "t0": 90240, 
                            "v": 86, 
                            "dur": 960, 
                            "type": "note", 
                            "channel": 2
                        }, 
                        {
                            "pitch": 41, 
                            "t0": 90240, 
                            "v": 86, 
                            "dur": 960, 
                            "type": "note", 
                            "channel": 2
                        }, 
                        {
                            "pitch": 65, 
                            "t0": 90240, 
                            "v": 86, 
                            "dur": 960, 
                            "type": "note", 
                            "channel": 2
                        }, 
                        {
                            "pitch": 53, 
                            "t0": 90240, 
                            "v": 86, 
                            "dur": 960, 
                            "type": "note", 
                            "channel": 2
                        }
                    ]
                ], 
                [
                    91200, 
                    [
                        {
                            "pitch": 55, 
                            "t0": 91200, 
                            "v": 86, 
                            "dur": 960, 
                            "type": "note", 
                            "channel": 2
                        }, 
                        {
                            "pitch": 43, 
                            "t0": 91200, 
                            "v": 86, 
                            "dur": 960, 
                            "type": "note", 
                            "channel": 2
                        }, 
                        {
                            "pitch": 67, 
                            "t0": 91200, 
                            "v": 86, 
                            "dur": 960, 
                            "type": "note", 
                            "channel": 2
                        }, 
                        {
                            "pitch": 31, 
                            "t0": 91200, 
                            "v": 86, 
                            "dur": 960, 
                            "type": "note", 
                            "channel": 2
                        }
                    ]
                ], 
                [
                    92160, 
                    [
                        {
                            "pitch": 57, 
                            "t0": 92160, 
                            "v": 86, 
                            "dur": 1440, 
                            "type": "note", 
                            "channel": 2
                        }, 
                        {
                            "pitch": 45, 
                            "t0": 92160, 
                            "v": 86, 
                            "dur": 1440, 
                            "type": "note", 
                            "channel": 2
                        }, 
                        {
                            "pitch": 33, 
                            "t0": 92160, 
                            "v": 86, 
                            "dur": 1440, 
                            "type": "note", 
                            "channel": 2
                        }, 
                        {
                            "pitch": 69, 
                            "t0": 92160, 
                            "v": 86, 
                            "dur": 1440, 
                            "type": "note", 
                            "channel": 2
                        }
                    ]
                ], 
                [
                    94080, 
                    [
                        {
                            "pitch": 60, 
                            "t0": 94080, 
                            "v": 86, 
                            "dur": 1920, 
                            "type": "note", 
                            "channel": 2
                        }, 
                        {
                            "pitch": 72, 
                            "t0": 94080, 
                            "v": 86, 
                            "dur": 1920, 
                            "type": "note", 
                            "channel": 2
                        }, 
                        {
                            "pitch": 48, 
                            "t0": 94080, 
                            "v": 86, 
                            "dur": 1920, 
                            "type": "note", 
                            "channel": 2
                        }, 
                        {
                            "pitch": 36, 
                            "t0": 94080, 
                            "v": 86, 
                            "dur": 1920, 
                            "type": "note", 
                            "channel": 2
                        }
                    ]
                ], 
                [
                    96000, 
                    [
                        {
                            "pitch": 55, 
                            "t0": 96000, 
                            "v": 86, 
                            "dur": 1920, 
                            "type": "note", 
                            "channel": 2
                        }, 
                        {
                            "pitch": 31, 
                            "t0": 96000, 
                            "v": 86, 
                            "dur": 1920, 
                            "type": "note", 
                            "channel": 2
                        }, 
                        {
                            "pitch": 43, 
                            "t0": 96000, 
                            "v": 86, 
                            "dur": 1920, 
                            "type": "note", 
                            "channel": 2
                        }, 
                        {
                            "pitch": 67, 
                            "t0": 96000, 
                            "v": 86, 
                            "dur": 1920, 
                            "type": "note", 
                            "channel": 2
                        }
                    ]
                ], 
                [
                    97920, 
                    [
                        {
                            "pitch": 57, 
                            "t0": 97920, 
                            "v": 86, 
                            "dur": 1920, 
                            "type": "note", 
                            "channel": 2
                        }, 
                        {
                            "pitch": 45, 
                            "t0": 97920, 
                            "v": 86, 
                            "dur": 1920, 
                            "type": "note", 
                            "channel": 2
                        }, 
                        {
                            "pitch": 33, 
                            "t0": 97920, 
                            "v": 86, 
                            "dur": 1920, 
                            "type": "note", 
                            "channel": 2
                        }, 
                        {
                            "pitch": 69, 
                            "t0": 97920, 
                            "v": 86, 
                            "dur": 1920, 
                            "type": "note", 
                            "channel": 2
                        }
                    ]
                ], 
                [
                    99840, 
                    [
                        {
                            "pitch": 28, 
                            "t0": 99840, 
                            "v": 86, 
                            "dur": 1920, 
                            "type": "note", 
                            "channel": 2
                        }, 
                        {
                            "pitch": 52, 
                            "t0": 99840, 
                            "v": 86, 
                            "dur": 1920, 
                            "type": "note", 
                            "channel": 2
                        }, 
                        {
                            "pitch": 40, 
                            "t0": 99840, 
                            "v": 86, 
                            "dur": 1920, 
                            "type": "note", 
                            "channel": 2
                        }, 
                        {
                            "pitch": 64, 
                            "t0": 99840, 
                            "v": 86, 
                            "dur": 1920, 
                            "type": "note", 
                            "channel": 2
                        }
                    ]
                ], 
                [
                    101760, 
                    [
                        {
                            "pitch": 65, 
                            "t0": 101760, 
                            "v": 86, 
                            "dur": 960, 
                            "type": "note", 
                            "channel": 2
                        }, 
                        {
                            "pitch": 41, 
                            "t0": 101760, 
                            "v": 86, 
                            "dur": 960, 
                            "type": "note", 
                            "channel": 2
                        }, 
                        {
                            "pitch": 29, 
                            "t0": 101760, 
                            "v": 86, 
                            "dur": 960, 
                            "type": "note", 
                            "channel": 2
                        }, 
                        {
                            "pitch": 53, 
                            "t0": 101760, 
                            "v": 86, 
                            "dur": 960, 
                            "type": "note", 
                            "channel": 2
                        }
                    ]
                ], 
                [
                    102720, 
                    [
                        {
                            "pitch": 55, 
                            "t0": 102720, 
                            "v": 86, 
                            "dur": 960, 
                            "type": "note", 
                            "channel": 2
                        }, 
                        {
                            "pitch": 43, 
                            "t0": 102720, 
                            "v": 86, 
                            "dur": 960, 
                            "type": "note", 
                            "channel": 2
                        }, 
                        {
                            "pitch": 31, 
                            "t0": 102720, 
                            "v": 86, 
                            "dur": 960, 
                            "type": "note", 
                            "channel": 2
                        }, 
                        {
                            "pitch": 67, 
                            "t0": 102720, 
                            "v": 86, 
                            "dur": 960, 
                            "type": "note", 
                            "channel": 2
                        }
                    ]
                ], 
                [
                    103680, 
                    [
                        {
                            "pitch": 57, 
                            "t0": 103680, 
                            "v": 86, 
                            "dur": 1440, 
                            "type": "note", 
                            "channel": 2
                        }, 
                        {
                            "pitch": 45, 
                            "t0": 103680, 
                            "v": 86, 
                            "dur": 1440, 
                            "type": "note", 
                            "channel": 2
                        }, 
                        {
                            "pitch": 33, 
                            "t0": 103680, 
                            "v": 86, 
                            "dur": 1440, 
                            "type": "note", 
                            "channel": 2
                        }, 
                        {
                            "pitch": 69, 
                            "t0": 103680, 
                            "v": 86, 
                            "dur": 1440, 
                            "type": "note", 
                            "channel": 2
                        }
                    ]
                ], 
                [
                    105600, 
                    [
                        {
                            "pitch": 72, 
                            "t0": 105600, 
                            "v": 86, 
                            "dur": 960, 
                            "type": "note", 
                            "channel": 2
                        }, 
                        {
                            "pitch": 48, 
                            "t0": 105600, 
                            "v": 86, 
                            "dur": 960, 
                            "type": "note", 
                            "channel": 2
                        }, 
                        {
                            "pitch": 36, 
                            "t0": 105600, 
                            "v": 86, 
                            "dur": 960, 
                            "type": "note", 
                            "channel": 2
                        }, 
                        {
                            "pitch": 60, 
                            "t0": 105600, 
                            "v": 86, 
                            "dur": 960, 
                            "type": "note", 
                            "channel": 2
                        }
                    ]
                ], 
                [
                    106560, 
                    [
                        {
                            "pitch": 67, 
                            "t0": 106560, 
                            "v": 86, 
                            "dur": 960, 
                            "type": "note", 
                            "channel": 2
                        }, 
                        {
                            "pitch": 31, 
                            "t0": 106560, 
                            "v": 86, 
                            "dur": 960, 
                            "type": "note", 
                            "channel": 2
                        }, 
                        {
                            "pitch": 55, 
                            "t0": 106560, 
                            "v": 86, 
                            "dur": 960, 
                            "type": "note", 
                            "channel": 2
                        }, 
                        {
                            "pitch": 43, 
                            "t0": 106560, 
                            "v": 86, 
                            "dur": 960, 
                            "type": "note", 
                            "channel": 2
                        }
                    ]
                ], 
                [
                    107520, 
                    [
                        {
                            "pitch": 57, 
                            "t0": 107520, 
                            "v": 86, 
                            "dur": 960, 
                            "type": "note", 
                            "channel": 2
                        }, 
                        {
                            "pitch": 45, 
                            "t0": 107520, 
                            "v": 86, 
                            "dur": 960, 
                            "type": "note", 
                            "channel": 2
                        }, 
                        {
                            "pitch": 33, 
                            "t0": 107520, 
                            "v": 86, 
                            "dur": 960, 
                            "type": "note", 
                            "channel": 2
                        }, 
                        {
                            "pitch": 69, 
                            "t0": 107520, 
                            "v": 86, 
                            "dur": 960, 
                            "type": "note", 
                            "channel": 2
                        }
                    ]
                ], 
                [
                    108480, 
                    [
                        {
                            "pitch": 64, 
                            "t0": 108480, 
                            "v": 86, 
                            "dur": 960, 
                            "type": "note", 
                            "channel": 2
                        }, 
                        {
                            "pitch": 52, 
                            "t0": 108480, 
                            "v": 86, 
                            "dur": 960, 
                            "type": "note", 
                            "channel": 2
                        }, 
                        {
                            "pitch": 40, 
                            "t0": 108480, 
                            "v": 86, 
                            "dur": 960, 
                            "type": "note", 
                            "channel": 2
                        }, 
                        {
                            "pitch": 28, 
                            "t0": 108480, 
                            "v": 86, 
                            "dur": 960, 
                            "type": "note", 
                            "channel": 2
                        }
                    ]
                ], 
                [
                    109440, 
                    [
                        {
                            "pitch": 29, 
                            "t0": 109440, 
                            "v": 86, 
                            "dur": 960, 
                            "type": "note", 
                            "channel": 2
                        }, 
                        {
                            "pitch": 41, 
                            "t0": 109440, 
                            "v": 86, 
                            "dur": 960, 
                            "type": "note", 
                            "channel": 2
                        }, 
                        {
                            "pitch": 65, 
                            "t0": 109440, 
                            "v": 86, 
                            "dur": 960, 
                            "type": "note", 
                            "channel": 2
                        }, 
                        {
                            "pitch": 53, 
                            "t0": 109440, 
                            "v": 86, 
                            "dur": 960, 
                            "type": "note", 
                            "channel": 2
                        }
                    ]
                ], 
                [
                    110400, 
                    [
                        {
                            "pitch": 55, 
                            "t0": 110400, 
                            "v": 86, 
                            "dur": 960, 
                            "type": "note", 
                            "channel": 2
                        }, 
                        {
                            "pitch": 43, 
                            "t0": 110400, 
                            "v": 86, 
                            "dur": 960, 
                            "type": "note", 
                            "channel": 2
                        }, 
                        {
                            "pitch": 67, 
                            "t0": 110400, 
                            "v": 86, 
                            "dur": 960, 
                            "type": "note", 
                            "channel": 2
                        }, 
                        {
                            "pitch": 31, 
                            "t0": 110400, 
                            "v": 86, 
                            "dur": 960, 
                            "type": "note", 
                            "channel": 2
                        }
                    ]
                ], 
                [
                    111360, 
                    [
                        {
                            "pitch": 57, 
                            "t0": 111360, 
                            "v": 86, 
                            "dur": 1440, 
                            "type": "note", 
                            "channel": 2
                        }, 
                        {
                            "pitch": 45, 
                            "t0": 111360, 
                            "v": 86, 
                            "dur": 1440, 
                            "type": "note", 
                            "channel": 2
                        }, 
                        {
                            "pitch": 33, 
                            "t0": 111360, 
                            "v": 86, 
                            "dur": 1440, 
                            "type": "note", 
                            "channel": 2
                        }, 
                        {
                            "pitch": 69, 
                            "t0": 111360, 
                            "v": 86, 
                            "dur": 1440, 
                            "type": "note", 
                            "channel": 2
                        }
                    ]
                ], 
                [
                    113280, 
                    [
                        {
                            "pitch": 69, 
                            "t0": 113280, 
                            "v": 60, 
                            "dur": 817, 
                            "type": "note", 
                            "channel": 2
                        }, 
                        {
                            "pitch": 72, 
                            "t0": 113280, 
                            "v": 60, 
                            "dur": 873, 
                            "type": "note", 
                            "channel": 2
                        }, 
                        {
                            "pitch": 81, 
                            "t0": 113280, 
                            "v": 60, 
                            "dur": 880, 
                            "type": "note", 
                            "channel": 2
                        }, 
                        {
                            "pitch": 64, 
                            "t0": 113280, 
                            "v": 60, 
                            "dur": 903, 
                            "type": "note", 
                            "channel": 2
                        }, 
                        {
                            "pitch": 84, 
                            "t0": 113280, 
                            "v": 60, 
                            "dur": 941, 
                            "type": "note", 
                            "channel": 2
                        }, 
                        {
                            "pitch": 76, 
                            "t0": 113280, 
                            "v": 60, 
                            "dur": 1013, 
                            "type": "note", 
                            "channel": 2
                        }
                    ]
                ], 
                [
                    117120, 
                    [
                        {
                            "pitch": 64, 
                            "t0": 117120, 
                            "v": 60, 
                            "dur": 1155, 
                            "type": "note", 
                            "channel": 2
                        }, 
                        {
                            "pitch": 76, 
                            "t0": 117120, 
                            "v": 60, 
                            "dur": 1167, 
                            "type": "note", 
                            "channel": 2
                        }, 
                        {
                            "pitch": 67, 
                            "t0": 117120, 
                            "v": 60, 
                            "dur": 1210, 
                            "type": "note", 
                            "channel": 2
                        }, 
                        {
                            "pitch": 71, 
                            "t0": 117120, 
                            "v": 60, 
                            "dur": 1213, 
                            "type": "note", 
                            "channel": 2
                        }, 
                        {
                            "pitch": 79, 
                            "t0": 117120, 
                            "v": 60, 
                            "dur": 1213, 
                            "type": "note", 
                            "channel": 2
                        }, 
                        {
                            "pitch": 83, 
                            "t0": 117120, 
                            "v": 60, 
                            "dur": 1256, 
                            "type": "note", 
                            "channel": 2
                        }
                    ]
                ], 
                [
                    120960, 
                    [
                        {
                            "pitch": 76, 
                            "t0": 120960, 
                            "v": 60, 
                            "dur": 1337, 
                            "type": "note", 
                            "channel": 2
                        }, 
                        {
                            "pitch": 81, 
                            "t0": 120960, 
                            "v": 60, 
                            "dur": 1398, 
                            "type": "note", 
                            "channel": 2
                        }, 
                        {
                            "pitch": 69, 
                            "t0": 120960, 
                            "v": 60, 
                            "dur": 1448, 
                            "type": "note", 
                            "channel": 2
                        }, 
                        {
                            "pitch": 72, 
                            "t0": 120960, 
                            "v": 60, 
                            "dur": 1466, 
                            "type": "note", 
                            "channel": 2
                        }, 
                        {
                            "pitch": 64, 
                            "t0": 120960, 
                            "v": 60, 
                            "dur": 1476, 
                            "type": "note", 
                            "channel": 2
                        }, 
                        {
                            "pitch": 84, 
                            "t0": 120960, 
                            "v": 60, 
                            "dur": 1540, 
                            "type": "note", 
                            "channel": 2
                        }
                    ]
                ], 
                [
                    124800, 
                    [
                        {
                            "pitch": 71, 
                            "t0": 124800, 
                            "v": 60, 
                            "dur": 1227, 
                            "type": "note", 
                            "channel": 2
                        }, 
                        {
                            "pitch": 64, 
                            "t0": 124800, 
                            "v": 60, 
                            "dur": 1253, 
                            "type": "note", 
                            "channel": 2
                        }, 
                        {
                            "pitch": 79, 
                            "t0": 124800, 
                            "v": 60, 
                            "dur": 1255, 
                            "type": "note", 
                            "channel": 2
                        }, 
                        {
                            "pitch": 76, 
                            "t0": 124800, 
                            "v": 60, 
                            "dur": 1257, 
                            "type": "note", 
                            "channel": 2
                        }, 
                        {
                            "pitch": 67, 
                            "t0": 124800, 
                            "v": 60, 
                            "dur": 1293, 
                            "type": "note", 
                            "channel": 2
                        }, 
                        {
                            "pitch": 83, 
                            "t0": 124800, 
                            "v": 60, 
                            "dur": 1337, 
                            "type": "note", 
                            "channel": 2
                        }
                    ]
                ], 
                [
                    128640, 
                    [
                        {
                            "pitch": 69, 
                            "t0": 128640, 
                            "v": 60, 
                            "dur": 1497, 
                            "type": "note", 
                            "channel": 2
                        }, 
                        {
                            "pitch": 65, 
                            "t0": 128640, 
                            "v": 60, 
                            "dur": 1547, 
                            "type": "note", 
                            "channel": 2
                        }, 
                        {
                            "pitch": 60, 
                            "t0": 128640, 
                            "v": 60, 
                            "dur": 1553, 
                            "type": "note", 
                            "channel": 2
                        }, 
                        {
                            "pitch": 77, 
                            "t0": 128640, 
                            "v": 60, 
                            "dur": 1556, 
                            "type": "note", 
                            "channel": 2
                        }, 
                        {
                            "pitch": 72, 
                            "t0": 128640, 
                            "v": 60, 
                            "dur": 1575, 
                            "type": "note", 
                            "channel": 2
                        }, 
                        {
                            "pitch": 81, 
                            "t0": 128640, 
                            "v": 60, 
                            "dur": 1583, 
                            "type": "note", 
                            "channel": 2
                        }
                    ]
                ], 
                [
                    132480, 
                    [
                        {
                            "pitch": 57, 
                            "t0": 132480, 
                            "v": 60, 
                            "dur": 962, 
                            "type": "note", 
                            "channel": 2
                        }, 
                        {
                            "pitch": 72, 
                            "t0": 132480, 
                            "v": 60, 
                            "dur": 965, 
                            "type": "note", 
                            "channel": 2
                        }, 
                        {
                            "pitch": 69, 
                            "t0": 132480, 
                            "v": 60, 
                            "dur": 986, 
                            "type": "note", 
                            "channel": 2
                        }, 
                        {
                            "pitch": 64, 
                            "t0": 132480, 
                            "v": 60, 
                            "dur": 1003, 
                            "type": "note", 
                            "channel": 2
                        }, 
                        {
                            "pitch": 60, 
                            "t0": 132480, 
                            "v": 60, 
                            "dur": 1013, 
                            "type": "note", 
                            "channel": 2
                        }, 
                        {
                            "pitch": 76, 
                            "t0": 132480, 
                            "v": 60, 
                            "dur": 1017, 
                            "type": "note", 
                            "channel": 2
                        }
                    ]
                ], 
                [
                    136320, 
                    [
                        {
                            "pitch": 72, 
                            "t0": 136320, 
                            "v": 72, 
                            "dur": 1595, 
                            "type": "note", 
                            "channel": 2
                        }, 
                        {
                            "pitch": 69, 
                            "t0": 136320, 
                            "v": 72, 
                            "dur": 1618, 
                            "type": "note", 
                            "channel": 2
                        }, 
                        {
                            "pitch": 65, 
                            "t0": 136320, 
                            "v": 72, 
                            "dur": 1627, 
                            "type": "note", 
                            "channel": 2
                        }, 
                        {
                            "pitch": 81, 
                            "t0": 136320, 
                            "v": 72, 
                            "dur": 1632, 
                            "type": "note", 
                            "channel": 2
                        }, 
                        {
                            "pitch": 77, 
                            "t0": 136320, 
                            "v": 72, 
                            "dur": 1635, 
                            "type": "note", 
                            "channel": 2
                        }, 
                        {
                            "pitch": 84, 
                            "t0": 136320, 
                            "v": 72, 
                            "dur": 1680, 
                            "type": "note", 
                            "channel": 2
                        }
                    ]
                ], 
                [
                    140160, 
                    [
                        {
                            "pitch": 83, 
                            "t0": 140160, 
                            "v": 85, 
                            "dur": 1653, 
                            "type": "note", 
                            "channel": 2
                        }, 
                        {
                            "pitch": 74, 
                            "t0": 140160, 
                            "v": 85, 
                            "dur": 1666, 
                            "type": "note", 
                            "channel": 2
                        }, 
                        {
                            "pitch": 71, 
                            "t0": 140160, 
                            "v": 85, 
                            "dur": 1745, 
                            "type": "note", 
                            "channel": 2
                        }, 
                        {
                            "pitch": 67, 
                            "t0": 140160, 
                            "v": 85, 
                            "dur": 1753, 
                            "type": "note", 
                            "channel": 2
                        }, 
                        {
                            "pitch": 79, 
                            "t0": 140160, 
                            "v": 85, 
                            "dur": 1756, 
                            "type": "note", 
                            "channel": 2
                        }, 
                        {
                            "pitch": 86, 
                            "t0": 140160, 
                            "v": 85, 
                            "dur": 1795, 
                            "type": "note", 
                            "channel": 2
                        }
                    ]
                ], 
                [
                    147840, 
                    [
                        {
                            "pitch": 69, 
                            "t0": 147840, 
                            "v": 60, 
                            "dur": 817, 
                            "type": "note", 
                            "channel": 2
                        }, 
                        {
                            "pitch": 72, 
                            "t0": 147840, 
                            "v": 60, 
                            "dur": 873, 
                            "type": "note", 
                            "channel": 2
                        }, 
                        {
                            "pitch": 81, 
                            "t0": 147840, 
                            "v": 60, 
                            "dur": 880, 
                            "type": "note", 
                            "channel": 2
                        }, 
                        {
                            "pitch": 64, 
                            "t0": 147840, 
                            "v": 60, 
                            "dur": 903, 
                            "type": "note", 
                            "channel": 2
                        }, 
                        {
                            "pitch": 84, 
                            "t0": 147840, 
                            "v": 60, 
                            "dur": 941, 
                            "type": "note", 
                            "channel": 2
                        }, 
                        {
                            "pitch": 76, 
                            "t0": 147840, 
                            "v": 60, 
                            "dur": 1013, 
                            "type": "note", 
                            "channel": 2
                        }
                    ]
                ], 
                [
                    151680, 
                    [
                        {
                            "pitch": 64, 
                            "t0": 151680, 
                            "v": 60, 
                            "dur": 1155, 
                            "type": "note", 
                            "channel": 2
                        }, 
                        {
                            "pitch": 76, 
                            "t0": 151680, 
                            "v": 60, 
                            "dur": 1167, 
                            "type": "note", 
                            "channel": 2
                        }, 
                        {
                            "pitch": 67, 
                            "t0": 151680, 
                            "v": 60, 
                            "dur": 1210, 
                            "type": "note", 
                            "channel": 2
                        }, 
                        {
                            "pitch": 71, 
                            "t0": 151680, 
                            "v": 60, 
                            "dur": 1213, 
                            "type": "note", 
                            "channel": 2
                        }, 
                        {
                            "pitch": 79, 
                            "t0": 151680, 
                            "v": 60, 
                            "dur": 1213, 
                            "type": "note", 
                            "channel": 2
                        }, 
                        {
                            "pitch": 83, 
                            "t0": 151680, 
                            "v": 60, 
                            "dur": 1256, 
                            "type": "note", 
                            "channel": 2
                        }
                    ]
                ], 
                [
                    155520, 
                    [
                        {
                            "pitch": 76, 
                            "t0": 155520, 
                            "v": 60, 
                            "dur": 1337, 
                            "type": "note", 
                            "channel": 2
                        }, 
                        {
                            "pitch": 81, 
                            "t0": 155520, 
                            "v": 60, 
                            "dur": 1398, 
                            "type": "note", 
                            "channel": 2
                        }, 
                        {
                            "pitch": 69, 
                            "t0": 155520, 
                            "v": 60, 
                            "dur": 1448, 
                            "type": "note", 
                            "channel": 2
                        }, 
                        {
                            "pitch": 72, 
                            "t0": 155520, 
                            "v": 60, 
                            "dur": 1466, 
                            "type": "note", 
                            "channel": 2
                        }, 
                        {
                            "pitch": 64, 
                            "t0": 155520, 
                            "v": 60, 
                            "dur": 1476, 
                            "type": "note", 
                            "channel": 2
                        }, 
                        {
                            "pitch": 84, 
                            "t0": 155520, 
                            "v": 60, 
                            "dur": 1540, 
                            "type": "note", 
                            "channel": 2
                        }
                    ]
                ], 
                [
                    159360, 
                    [
                        {
                            "pitch": 71, 
                            "t0": 159360, 
                            "v": 60, 
                            "dur": 1227, 
                            "type": "note", 
                            "channel": 2
                        }, 
                        {
                            "pitch": 64, 
                            "t0": 159360, 
                            "v": 60, 
                            "dur": 1253, 
                            "type": "note", 
                            "channel": 2
                        }, 
                        {
                            "pitch": 79, 
                            "t0": 159360, 
                            "v": 60, 
                            "dur": 1255, 
                            "type": "note", 
                            "channel": 2
                        }, 
                        {
                            "pitch": 76, 
                            "t0": 159360, 
                            "v": 60, 
                            "dur": 1257, 
                            "type": "note", 
                            "channel": 2
                        }, 
                        {
                            "pitch": 67, 
                            "t0": 159360, 
                            "v": 60, 
                            "dur": 1293, 
                            "type": "note", 
                            "channel": 2
                        }, 
                        {
                            "pitch": 83, 
                            "t0": 159360, 
                            "v": 60, 
                            "dur": 1337, 
                            "type": "note", 
                            "channel": 2
                        }
                    ]
                ], 
                [
                    163200, 
                    [
                        {
                            "pitch": 69, 
                            "t0": 163200, 
                            "v": 60, 
                            "dur": 1497, 
                            "type": "note", 
                            "channel": 2
                        }, 
                        {
                            "pitch": 65, 
                            "t0": 163200, 
                            "v": 60, 
                            "dur": 1547, 
                            "type": "note", 
                            "channel": 2
                        }, 
                        {
                            "pitch": 60, 
                            "t0": 163200, 
                            "v": 60, 
                            "dur": 1553, 
                            "type": "note", 
                            "channel": 2
                        }, 
                        {
                            "pitch": 77, 
                            "t0": 163200, 
                            "v": 60, 
                            "dur": 1556, 
                            "type": "note", 
                            "channel": 2
                        }, 
                        {
                            "pitch": 72, 
                            "t0": 163200, 
                            "v": 60, 
                            "dur": 1575, 
                            "type": "note", 
                            "channel": 2
                        }, 
                        {
                            "pitch": 81, 
                            "t0": 163200, 
                            "v": 60, 
                            "dur": 1583, 
                            "type": "note", 
                            "channel": 2
                        }
                    ]
                ], 
                [
                    167040, 
                    [
                        {
                            "pitch": 57, 
                            "t0": 167040, 
                            "v": 60, 
                            "dur": 962, 
                            "type": "note", 
                            "channel": 2
                        }, 
                        {
                            "pitch": 72, 
                            "t0": 167040, 
                            "v": 60, 
                            "dur": 965, 
                            "type": "note", 
                            "channel": 2
                        }, 
                        {
                            "pitch": 69, 
                            "t0": 167040, 
                            "v": 60, 
                            "dur": 986, 
                            "type": "note", 
                            "channel": 2
                        }, 
                        {
                            "pitch": 64, 
                            "t0": 167040, 
                            "v": 60, 
                            "dur": 1003, 
                            "type": "note", 
                            "channel": 2
                        }, 
                        {
                            "pitch": 60, 
                            "t0": 167040, 
                            "v": 60, 
                            "dur": 1013, 
                            "type": "note", 
                            "channel": 2
                        }, 
                        {
                            "pitch": 76, 
                            "t0": 167040, 
                            "v": 60, 
                            "dur": 1017, 
                            "type": "note", 
                            "channel": 2
                        }
                    ]
                ], 
                [
                    170880, 
                    [
                        {
                            "pitch": 72, 
                            "t0": 170880, 
                            "v": 72, 
                            "dur": 1595, 
                            "type": "note", 
                            "channel": 2
                        }, 
                        {
                            "pitch": 69, 
                            "t0": 170880, 
                            "v": 72, 
                            "dur": 1618, 
                            "type": "note", 
                            "channel": 2
                        }, 
                        {
                            "pitch": 65, 
                            "t0": 170880, 
                            "v": 72, 
                            "dur": 1627, 
                            "type": "note", 
                            "channel": 2
                        }, 
                        {
                            "pitch": 81, 
                            "t0": 170880, 
                            "v": 72, 
                            "dur": 1632, 
                            "type": "note", 
                            "channel": 2
                        }, 
                        {
                            "pitch": 77, 
                            "t0": 170880, 
                            "v": 72, 
                            "dur": 1635, 
                            "type": "note", 
                            "channel": 2
                        }, 
                        {
                            "pitch": 84, 
                            "t0": 170880, 
                            "v": 72, 
                            "dur": 1680, 
                            "type": "note", 
                            "channel": 2
                        }
                    ]
                ], 
                [
                    174720, 
                    [
                        {
                            "pitch": 83, 
                            "t0": 174720, 
                            "v": 85, 
                            "dur": 1653, 
                            "type": "note", 
                            "channel": 2
                        }, 
                        {
                            "pitch": 74, 
                            "t0": 174720, 
                            "v": 85, 
                            "dur": 1666, 
                            "type": "note", 
                            "channel": 2
                        }, 
                        {
                            "pitch": 71, 
                            "t0": 174720, 
                            "v": 85, 
                            "dur": 1745, 
                            "type": "note", 
                            "channel": 2
                        }, 
                        {
                            "pitch": 67, 
                            "t0": 174720, 
                            "v": 85, 
                            "dur": 1753, 
                            "type": "note", 
                            "channel": 2
                        }, 
                        {
                            "pitch": 79, 
                            "t0": 174720, 
                            "v": 85, 
                            "dur": 1756, 
                            "type": "note", 
                            "channel": 2
                        }, 
                        {
                            "pitch": 86, 
                            "t0": 174720, 
                            "v": 85, 
                            "dur": 1795, 
                            "type": "note", 
                            "channel": 2
                        }
                    ]
                ], 
                [
                    182400, 
                    [
                        {
                            "pitch": 60, 
                            "t0": 182400, 
                            "v": 86, 
                            "dur": 1920, 
                            "type": "note", 
                            "channel": 2
                        }, 
                        {
                            "pitch": 72, 
                            "t0": 182400, 
                            "v": 86, 
                            "dur": 1920, 
                            "type": "note", 
                            "channel": 2
                        }, 
                        {
                            "pitch": 48, 
                            "t0": 182400, 
                            "v": 86, 
                            "dur": 1920, 
                            "type": "note", 
                            "channel": 2
                        }, 
                        {
                            "pitch": 36, 
                            "t0": 182400, 
                            "v": 86, 
                            "dur": 1920, 
                            "type": "note", 
                            "channel": 2
                        }
                    ]
                ], 
                [
                    184320, 
                    [
                        {
                            "pitch": 55, 
                            "t0": 184320, 
                            "v": 86, 
                            "dur": 1920, 
                            "type": "note", 
                            "channel": 2
                        }, 
                        {
                            "pitch": 31, 
                            "t0": 184320, 
                            "v": 86, 
                            "dur": 1920, 
                            "type": "note", 
                            "channel": 2
                        }, 
                        {
                            "pitch": 43, 
                            "t0": 184320, 
                            "v": 86, 
                            "dur": 1920, 
                            "type": "note", 
                            "channel": 2
                        }, 
                        {
                            "pitch": 67, 
                            "t0": 184320, 
                            "v": 86, 
                            "dur": 1920, 
                            "type": "note", 
                            "channel": 2
                        }
                    ]
                ], 
                [
                    186240, 
                    [
                        {
                            "pitch": 57, 
                            "t0": 186240, 
                            "v": 86, 
                            "dur": 1920, 
                            "type": "note", 
                            "channel": 2
                        }, 
                        {
                            "pitch": 45, 
                            "t0": 186240, 
                            "v": 86, 
                            "dur": 1920, 
                            "type": "note", 
                            "channel": 2
                        }, 
                        {
                            "pitch": 33, 
                            "t0": 186240, 
                            "v": 86, 
                            "dur": 1920, 
                            "type": "note", 
                            "channel": 2
                        }, 
                        {
                            "pitch": 69, 
                            "t0": 186240, 
                            "v": 86, 
                            "dur": 1920, 
                            "type": "note", 
                            "channel": 2
                        }
                    ]
                ], 
                [
                    188160, 
                    [
                        {
                            "pitch": 28, 
                            "t0": 188160, 
                            "v": 86, 
                            "dur": 1920, 
                            "type": "note", 
                            "channel": 2
                        }, 
                        {
                            "pitch": 52, 
                            "t0": 188160, 
                            "v": 86, 
                            "dur": 1920, 
                            "type": "note", 
                            "channel": 2
                        }, 
                        {
                            "pitch": 40, 
                            "t0": 188160, 
                            "v": 86, 
                            "dur": 1920, 
                            "type": "note", 
                            "channel": 2
                        }, 
                        {
                            "pitch": 64, 
                            "t0": 188160, 
                            "v": 86, 
                            "dur": 1920, 
                            "type": "note", 
                            "channel": 2
                        }
                    ]
                ], 
                [
                    190080, 
                    [
                        {
                            "pitch": 65, 
                            "t0": 190080, 
                            "v": 86, 
                            "dur": 960, 
                            "type": "note", 
                            "channel": 2
                        }, 
                        {
                            "pitch": 41, 
                            "t0": 190080, 
                            "v": 86, 
                            "dur": 960, 
                            "type": "note", 
                            "channel": 2
                        }, 
                        {
                            "pitch": 29, 
                            "t0": 190080, 
                            "v": 86, 
                            "dur": 960, 
                            "type": "note", 
                            "channel": 2
                        }, 
                        {
                            "pitch": 53, 
                            "t0": 190080, 
                            "v": 86, 
                            "dur": 960, 
                            "type": "note", 
                            "channel": 2
                        }
                    ]
                ], 
                [
                    191040, 
                    [
                        {
                            "pitch": 55, 
                            "t0": 191040, 
                            "v": 86, 
                            "dur": 960, 
                            "type": "note", 
                            "channel": 2
                        }, 
                        {
                            "pitch": 43, 
                            "t0": 191040, 
                            "v": 86, 
                            "dur": 960, 
                            "type": "note", 
                            "channel": 2
                        }, 
                        {
                            "pitch": 31, 
                            "t0": 191040, 
                            "v": 86, 
                            "dur": 960, 
                            "type": "note", 
                            "channel": 2
                        }, 
                        {
                            "pitch": 67, 
                            "t0": 191040, 
                            "v": 86, 
                            "dur": 960, 
                            "type": "note", 
                            "channel": 2
                        }
                    ]
                ], 
                [
                    192000, 
                    [
                        {
                            "pitch": 57, 
                            "t0": 192000, 
                            "v": 86, 
                            "dur": 1440, 
                            "type": "note", 
                            "channel": 2
                        }, 
                        {
                            "pitch": 45, 
                            "t0": 192000, 
                            "v": 86, 
                            "dur": 1440, 
                            "type": "note", 
                            "channel": 2
                        }, 
                        {
                            "pitch": 33, 
                            "t0": 192000, 
                            "v": 86, 
                            "dur": 1440, 
                            "type": "note", 
                            "channel": 2
                        }, 
                        {
                            "pitch": 69, 
                            "t0": 192000, 
                            "v": 86, 
                            "dur": 1440, 
                            "type": "note", 
                            "channel": 2
                        }
                    ]
                ], 
                [
                    193920, 
                    [
                        {
                            "pitch": 72, 
                            "t0": 193920, 
                            "v": 86, 
                            "dur": 960, 
                            "type": "note", 
                            "channel": 2
                        }, 
                        {
                            "pitch": 48, 
                            "t0": 193920, 
                            "v": 86, 
                            "dur": 960, 
                            "type": "note", 
                            "channel": 2
                        }, 
                        {
                            "pitch": 36, 
                            "t0": 193920, 
                            "v": 86, 
                            "dur": 960, 
                            "type": "note", 
                            "channel": 2
                        }, 
                        {
                            "pitch": 60, 
                            "t0": 193920, 
                            "v": 86, 
                            "dur": 960, 
                            "type": "note", 
                            "channel": 2
                        }
                    ]
                ], 
                [
                    194880, 
                    [
                        {
                            "pitch": 67, 
                            "t0": 194880, 
                            "v": 86, 
                            "dur": 960, 
                            "type": "note", 
                            "channel": 2
                        }, 
                        {
                            "pitch": 31, 
                            "t0": 194880, 
                            "v": 86, 
                            "dur": 960, 
                            "type": "note", 
                            "channel": 2
                        }, 
                        {
                            "pitch": 55, 
                            "t0": 194880, 
                            "v": 86, 
                            "dur": 960, 
                            "type": "note", 
                            "channel": 2
                        }, 
                        {
                            "pitch": 43, 
                            "t0": 194880, 
                            "v": 86, 
                            "dur": 960, 
                            "type": "note", 
                            "channel": 2
                        }
                    ]
                ], 
                [
                    195840, 
                    [
                        {
                            "pitch": 57, 
                            "t0": 195840, 
                            "v": 86, 
                            "dur": 960, 
                            "type": "note", 
                            "channel": 2
                        }, 
                        {
                            "pitch": 45, 
                            "t0": 195840, 
                            "v": 86, 
                            "dur": 960, 
                            "type": "note", 
                            "channel": 2
                        }, 
                        {
                            "pitch": 33, 
                            "t0": 195840, 
                            "v": 86, 
                            "dur": 960, 
                            "type": "note", 
                            "channel": 2
                        }, 
                        {
                            "pitch": 69, 
                            "t0": 195840, 
                            "v": 86, 
                            "dur": 960, 
                            "type": "note", 
                            "channel": 2
                        }
                    ]
                ], 
                [
                    196800, 
                    [
                        {
                            "pitch": 64, 
                            "t0": 196800, 
                            "v": 86, 
                            "dur": 960, 
                            "type": "note", 
                            "channel": 2
                        }, 
                        {
                            "pitch": 52, 
                            "t0": 196800, 
                            "v": 86, 
                            "dur": 960, 
                            "type": "note", 
                            "channel": 2
                        }, 
                        {
                            "pitch": 40, 
                            "t0": 196800, 
                            "v": 86, 
                            "dur": 960, 
                            "type": "note", 
                            "channel": 2
                        }, 
                        {
                            "pitch": 28, 
                            "t0": 196800, 
                            "v": 86, 
                            "dur": 960, 
                            "type": "note", 
                            "channel": 2
                        }
                    ]
                ], 
                [
                    197760, 
                    [
                        {
                            "pitch": 29, 
                            "t0": 197760, 
                            "v": 86, 
                            "dur": 960, 
                            "type": "note", 
                            "channel": 2
                        }, 
                        {
                            "pitch": 41, 
                            "t0": 197760, 
                            "v": 86, 
                            "dur": 960, 
                            "type": "note", 
                            "channel": 2
                        }, 
                        {
                            "pitch": 65, 
                            "t0": 197760, 
                            "v": 86, 
                            "dur": 960, 
                            "type": "note", 
                            "channel": 2
                        }, 
                        {
                            "pitch": 53, 
                            "t0": 197760, 
                            "v": 86, 
                            "dur": 960, 
                            "type": "note", 
                            "channel": 2
                        }
                    ]
                ], 
                [
                    198720, 
                    [
                        {
                            "pitch": 55, 
                            "t0": 198720, 
                            "v": 86, 
                            "dur": 960, 
                            "type": "note", 
                            "channel": 2
                        }, 
                        {
                            "pitch": 43, 
                            "t0": 198720, 
                            "v": 86, 
                            "dur": 960, 
                            "type": "note", 
                            "channel": 2
                        }, 
                        {
                            "pitch": 67, 
                            "t0": 198720, 
                            "v": 86, 
                            "dur": 960, 
                            "type": "note", 
                            "channel": 2
                        }, 
                        {
                            "pitch": 31, 
                            "t0": 198720, 
                            "v": 86, 
                            "dur": 960, 
                            "type": "note", 
                            "channel": 2
                        }
                    ]
                ], 
                [
                    199680, 
                    [
                        {
                            "pitch": 57, 
                            "t0": 199680, 
                            "v": 86, 
                            "dur": 1440, 
                            "type": "note", 
                            "channel": 2
                        }, 
                        {
                            "pitch": 45, 
                            "t0": 199680, 
                            "v": 86, 
                            "dur": 1440, 
                            "type": "note", 
                            "channel": 2
                        }, 
                        {
                            "pitch": 33, 
                            "t0": 199680, 
                            "v": 86, 
                            "dur": 1440, 
                            "type": "note", 
                            "channel": 2
                        }, 
                        {
                            "pitch": 69, 
                            "t0": 199680, 
                            "v": 86, 
                            "dur": 1440, 
                            "type": "note", 
                            "channel": 2
                        }
                    ]
                ], 
                [
                    201600, 
                    [
                        {
                            "pitch": 60, 
                            "t0": 201600, 
                            "v": 86, 
                            "dur": 1920, 
                            "type": "note", 
                            "channel": 2
                        }, 
                        {
                            "pitch": 72, 
                            "t0": 201600, 
                            "v": 86, 
                            "dur": 1920, 
                            "type": "note", 
                            "channel": 2
                        }, 
                        {
                            "pitch": 48, 
                            "t0": 201600, 
                            "v": 86, 
                            "dur": 1920, 
                            "type": "note", 
                            "channel": 2
                        }, 
                        {
                            "pitch": 36, 
                            "t0": 201600, 
                            "v": 86, 
                            "dur": 1920, 
                            "type": "note", 
                            "channel": 2
                        }
                    ]
                ], 
                [
                    203520, 
                    [
                        {
                            "pitch": 55, 
                            "t0": 203520, 
                            "v": 86, 
                            "dur": 1920, 
                            "type": "note", 
                            "channel": 2
                        }, 
                        {
                            "pitch": 31, 
                            "t0": 203520, 
                            "v": 86, 
                            "dur": 1920, 
                            "type": "note", 
                            "channel": 2
                        }, 
                        {
                            "pitch": 43, 
                            "t0": 203520, 
                            "v": 86, 
                            "dur": 1920, 
                            "type": "note", 
                            "channel": 2
                        }, 
                        {
                            "pitch": 67, 
                            "t0": 203520, 
                            "v": 86, 
                            "dur": 1920, 
                            "type": "note", 
                            "channel": 2
                        }
                    ]
                ], 
                [
                    205440, 
                    [
                        {
                            "pitch": 57, 
                            "t0": 205440, 
                            "v": 86, 
                            "dur": 1920, 
                            "type": "note", 
                            "channel": 2
                        }, 
                        {
                            "pitch": 45, 
                            "t0": 205440, 
                            "v": 86, 
                            "dur": 1920, 
                            "type": "note", 
                            "channel": 2
                        }, 
                        {
                            "pitch": 33, 
                            "t0": 205440, 
                            "v": 86, 
                            "dur": 1920, 
                            "type": "note", 
                            "channel": 2
                        }, 
                        {
                            "pitch": 69, 
                            "t0": 205440, 
                            "v": 86, 
                            "dur": 1920, 
                            "type": "note", 
                            "channel": 2
                        }
                    ]
                ], 
                [
                    207360, 
                    [
                        {
                            "pitch": 28, 
                            "t0": 207360, 
                            "v": 86, 
                            "dur": 1920, 
                            "type": "note", 
                            "channel": 2
                        }, 
                        {
                            "pitch": 52, 
                            "t0": 207360, 
                            "v": 86, 
                            "dur": 1920, 
                            "type": "note", 
                            "channel": 2
                        }, 
                        {
                            "pitch": 40, 
                            "t0": 207360, 
                            "v": 86, 
                            "dur": 1920, 
                            "type": "note", 
                            "channel": 2
                        }, 
                        {
                            "pitch": 64, 
                            "t0": 207360, 
                            "v": 86, 
                            "dur": 1920, 
                            "type": "note", 
                            "channel": 2
                        }
                    ]
                ], 
                [
                    209280, 
                    [
                        {
                            "pitch": 65, 
                            "t0": 209280, 
                            "v": 86, 
                            "dur": 960, 
                            "type": "note", 
                            "channel": 2
                        }, 
                        {
                            "pitch": 41, 
                            "t0": 209280, 
                            "v": 86, 
                            "dur": 960, 
                            "type": "note", 
                            "channel": 2
                        }, 
                        {
                            "pitch": 29, 
                            "t0": 209280, 
                            "v": 86, 
                            "dur": 960, 
                            "type": "note", 
                            "channel": 2
                        }, 
                        {
                            "pitch": 53, 
                            "t0": 209280, 
                            "v": 86, 
                            "dur": 960, 
                            "type": "note", 
                            "channel": 2
                        }
                    ]
                ], 
                [
                    210240, 
                    [
                        {
                            "pitch": 55, 
                            "t0": 210240, 
                            "v": 86, 
                            "dur": 960, 
                            "type": "note", 
                            "channel": 2
                        }, 
                        {
                            "pitch": 43, 
                            "t0": 210240, 
                            "v": 86, 
                            "dur": 960, 
                            "type": "note", 
                            "channel": 2
                        }, 
                        {
                            "pitch": 31, 
                            "t0": 210240, 
                            "v": 86, 
                            "dur": 960, 
                            "type": "note", 
                            "channel": 2
                        }, 
                        {
                            "pitch": 67, 
                            "t0": 210240, 
                            "v": 86, 
                            "dur": 960, 
                            "type": "note", 
                            "channel": 2
                        }
                    ]
                ], 
                [
                    211200, 
                    [
                        {
                            "pitch": 57, 
                            "t0": 211200, 
                            "v": 86, 
                            "dur": 1440, 
                            "type": "note", 
                            "channel": 2
                        }, 
                        {
                            "pitch": 45, 
                            "t0": 211200, 
                            "v": 86, 
                            "dur": 1440, 
                            "type": "note", 
                            "channel": 2
                        }, 
                        {
                            "pitch": 33, 
                            "t0": 211200, 
                            "v": 86, 
                            "dur": 1440, 
                            "type": "note", 
                            "channel": 2
                        }, 
                        {
                            "pitch": 69, 
                            "t0": 211200, 
                            "v": 86, 
                            "dur": 1440, 
                            "type": "note", 
                            "channel": 2
                        }
                    ]
                ], 
                [
                    213120, 
                    [
                        {
                            "pitch": 72, 
                            "t0": 213120, 
                            "v": 86, 
                            "dur": 960, 
                            "type": "note", 
                            "channel": 2
                        }, 
                        {
                            "pitch": 48, 
                            "t0": 213120, 
                            "v": 86, 
                            "dur": 960, 
                            "type": "note", 
                            "channel": 2
                        }, 
                        {
                            "pitch": 36, 
                            "t0": 213120, 
                            "v": 86, 
                            "dur": 960, 
                            "type": "note", 
                            "channel": 2
                        }, 
                        {
                            "pitch": 60, 
                            "t0": 213120, 
                            "v": 86, 
                            "dur": 960, 
                            "type": "note", 
                            "channel": 2
                        }
                    ]
                ], 
                [
                    214080, 
                    [
                        {
                            "pitch": 67, 
                            "t0": 214080, 
                            "v": 86, 
                            "dur": 960, 
                            "type": "note", 
                            "channel": 2
                        }, 
                        {
                            "pitch": 31, 
                            "t0": 214080, 
                            "v": 86, 
                            "dur": 960, 
                            "type": "note", 
                            "channel": 2
                        }, 
                        {
                            "pitch": 55, 
                            "t0": 214080, 
                            "v": 86, 
                            "dur": 960, 
                            "type": "note", 
                            "channel": 2
                        }, 
                        {
                            "pitch": 43, 
                            "t0": 214080, 
                            "v": 86, 
                            "dur": 960, 
                            "type": "note", 
                            "channel": 2
                        }
                    ]
                ], 
                [
                    215040, 
                    [
                        {
                            "pitch": 57, 
                            "t0": 215040, 
                            "v": 86, 
                            "dur": 960, 
                            "type": "note", 
                            "channel": 2
                        }, 
                        {
                            "pitch": 45, 
                            "t0": 215040, 
                            "v": 86, 
                            "dur": 960, 
                            "type": "note", 
                            "channel": 2
                        }, 
                        {
                            "pitch": 33, 
                            "t0": 215040, 
                            "v": 86, 
                            "dur": 960, 
                            "type": "note", 
                            "channel": 2
                        }, 
                        {
                            "pitch": 69, 
                            "t0": 215040, 
                            "v": 86, 
                            "dur": 960, 
                            "type": "note", 
                            "channel": 2
                        }
                    ]
                ], 
                [
                    216000, 
                    [
                        {
                            "pitch": 64, 
                            "t0": 216000, 
                            "v": 86, 
                            "dur": 960, 
                            "type": "note", 
                            "channel": 2
                        }, 
                        {
                            "pitch": 52, 
                            "t0": 216000, 
                            "v": 86, 
                            "dur": 960, 
                            "type": "note", 
                            "channel": 2
                        }, 
                        {
                            "pitch": 40, 
                            "t0": 216000, 
                            "v": 86, 
                            "dur": 960, 
                            "type": "note", 
                            "channel": 2
                        }, 
                        {
                            "pitch": 28, 
                            "t0": 216000, 
                            "v": 86, 
                            "dur": 960, 
                            "type": "note", 
                            "channel": 2
                        }
                    ]
                ], 
                [
                    216960, 
                    [
                        {
                            "pitch": 29, 
                            "t0": 216960, 
                            "v": 86, 
                            "dur": 960, 
                            "type": "note", 
                            "channel": 2
                        }, 
                        {
                            "pitch": 41, 
                            "t0": 216960, 
                            "v": 86, 
                            "dur": 960, 
                            "type": "note", 
                            "channel": 2
                        }, 
                        {
                            "pitch": 65, 
                            "t0": 216960, 
                            "v": 86, 
                            "dur": 960, 
                            "type": "note", 
                            "channel": 2
                        }, 
                        {
                            "pitch": 53, 
                            "t0": 216960, 
                            "v": 86, 
                            "dur": 960, 
                            "type": "note", 
                            "channel": 2
                        }
                    ]
                ], 
                [
                    217920, 
                    [
                        {
                            "pitch": 55, 
                            "t0": 217920, 
                            "v": 86, 
                            "dur": 960, 
                            "type": "note", 
                            "channel": 2
                        }, 
                        {
                            "pitch": 43, 
                            "t0": 217920, 
                            "v": 86, 
                            "dur": 960, 
                            "type": "note", 
                            "channel": 2
                        }, 
                        {
                            "pitch": 67, 
                            "t0": 217920, 
                            "v": 86, 
                            "dur": 960, 
                            "type": "note", 
                            "channel": 2
                        }, 
                        {
                            "pitch": 31, 
                            "t0": 217920, 
                            "v": 86, 
                            "dur": 960, 
                            "type": "note", 
                            "channel": 2
                        }
                    ]
                ], 
                [
                    218880, 
                    [
                        {
                            "pitch": 57, 
                            "t0": 218880, 
                            "v": 86, 
                            "dur": 1440, 
                            "type": "note", 
                            "channel": 2
                        }, 
                        {
                            "pitch": 45, 
                            "t0": 218880, 
                            "v": 86, 
                            "dur": 1440, 
                            "type": "note", 
                            "channel": 2
                        }, 
                        {
                            "pitch": 33, 
                            "t0": 218880, 
                            "v": 86, 
                            "dur": 1440, 
                            "type": "note", 
                            "channel": 2
                        }, 
                        {
                            "pitch": 69, 
                            "t0": 218880, 
                            "v": 86, 
                            "dur": 1440, 
                            "type": "note", 
                            "channel": 2
                        }
                    ]
                ]
            ], 
            "instruments": [
                49
            ], 
            "tMax": 220320, 
            "channels": [
                2
            ], 
            "instrument": 49, 
            "numNotes": 416, 
            "type": "TrackObj"
        }, 
        {
            "trackName": "Track 4", 
            "seq": [
                [
                    0, 
                    [
                        {
                            "instrument": 46, 
                            "type": "programChange", 
                            "t0": 0, 
                            "channel": 3
                        }
                    ]
                ], 
                [
                    5760, 
                    [
                        {
                            "pitch": 52, 
                            "t0": 5760, 
                            "v": 60, 
                            "dur": 903, 
                            "type": "note", 
                            "channel": 3
                        }
                    ]
                ], 
                [
                    5805, 
                    [
                        {
                            "pitch": 57, 
                            "t0": 5805, 
                            "v": 60, 
                            "dur": 817, 
                            "type": "note", 
                            "channel": 3
                        }
                    ]
                ], 
                [
                    5850, 
                    [
                        {
                            "pitch": 60, 
                            "t0": 5850, 
                            "v": 60, 
                            "dur": 873, 
                            "type": "note", 
                            "channel": 3
                        }
                    ]
                ], 
                [
                    5895, 
                    [
                        {
                            "pitch": 64, 
                            "t0": 5895, 
                            "v": 60, 
                            "dur": 1013, 
                            "type": "note", 
                            "channel": 3
                        }
                    ]
                ], 
                [
                    5940, 
                    [
                        {
                            "pitch": 69, 
                            "t0": 5940, 
                            "v": 60, 
                            "dur": 880, 
                            "type": "note", 
                            "channel": 3
                        }
                    ]
                ], 
                [
                    5985, 
                    [
                        {
                            "pitch": 72, 
                            "t0": 5985, 
                            "v": 60, 
                            "dur": 941, 
                            "type": "note", 
                            "channel": 3
                        }
                    ]
                ], 
                [
                    9600, 
                    [
                        {
                            "pitch": 52, 
                            "t0": 9600, 
                            "v": 60, 
                            "dur": 1155, 
                            "type": "note", 
                            "channel": 3
                        }
                    ]
                ], 
                [
                    9645, 
                    [
                        {
                            "pitch": 55, 
                            "t0": 9645, 
                            "v": 60, 
                            "dur": 1210, 
                            "type": "note", 
                            "channel": 3
                        }
                    ]
                ], 
                [
                    9690, 
                    [
                        {
                            "pitch": 59, 
                            "t0": 9690, 
                            "v": 60, 
                            "dur": 1213, 
                            "type": "note", 
                            "channel": 3
                        }
                    ]
                ], 
                [
                    9735, 
                    [
                        {
                            "pitch": 64, 
                            "t0": 9735, 
                            "v": 60, 
                            "dur": 1167, 
                            "type": "note", 
                            "channel": 3
                        }
                    ]
                ], 
                [
                    9780, 
                    [
                        {
                            "pitch": 67, 
                            "t0": 9780, 
                            "v": 60, 
                            "dur": 1213, 
                            "type": "note", 
                            "channel": 3
                        }
                    ]
                ], 
                [
                    9825, 
                    [
                        {
                            "pitch": 71, 
                            "t0": 9825, 
                            "v": 60, 
                            "dur": 1256, 
                            "type": "note", 
                            "channel": 3
                        }
                    ]
                ], 
                [
                    13440, 
                    [
                        {
                            "pitch": 52, 
                            "t0": 13440, 
                            "v": 60, 
                            "dur": 1476, 
                            "type": "note", 
                            "channel": 3
                        }
                    ]
                ], 
                [
                    13485, 
                    [
                        {
                            "pitch": 57, 
                            "t0": 13485, 
                            "v": 60, 
                            "dur": 1448, 
                            "type": "note", 
                            "channel": 3
                        }
                    ]
                ], 
                [
                    13530, 
                    [
                        {
                            "pitch": 60, 
                            "t0": 13530, 
                            "v": 60, 
                            "dur": 1466, 
                            "type": "note", 
                            "channel": 3
                        }
                    ]
                ], 
                [
                    13575, 
                    [
                        {
                            "pitch": 64, 
                            "t0": 13575, 
                            "v": 60, 
                            "dur": 1337, 
                            "type": "note", 
                            "channel": 3
                        }
                    ]
                ], 
                [
                    13620, 
                    [
                        {
                            "pitch": 69, 
                            "t0": 13620, 
                            "v": 60, 
                            "dur": 1398, 
                            "type": "note", 
                            "channel": 3
                        }
                    ]
                ], 
                [
                    13665, 
                    [
                        {
                            "pitch": 72, 
                            "t0": 13665, 
                            "v": 60, 
                            "dur": 1540, 
                            "type": "note", 
                            "channel": 3
                        }
                    ]
                ], 
                [
                    17280, 
                    [
                        {
                            "pitch": 52, 
                            "t0": 17280, 
                            "v": 60, 
                            "dur": 1253, 
                            "type": "note", 
                            "channel": 3
                        }
                    ]
                ], 
                [
                    17325, 
                    [
                        {
                            "pitch": 55, 
                            "t0": 17325, 
                            "v": 60, 
                            "dur": 1293, 
                            "type": "note", 
                            "channel": 3
                        }
                    ]
                ], 
                [
                    17370, 
                    [
                        {
                            "pitch": 59, 
                            "t0": 17370, 
                            "v": 60, 
                            "dur": 1227, 
                            "type": "note", 
                            "channel": 3
                        }
                    ]
                ], 
                [
                    17415, 
                    [
                        {
                            "pitch": 64, 
                            "t0": 17415, 
                            "v": 60, 
                            "dur": 1257, 
                            "type": "note", 
                            "channel": 3
                        }
                    ]
                ], 
                [
                    17460, 
                    [
                        {
                            "pitch": 67, 
                            "t0": 17460, 
                            "v": 60, 
                            "dur": 1255, 
                            "type": "note", 
                            "channel": 3
                        }
                    ]
                ], 
                [
                    17505, 
                    [
                        {
                            "pitch": 71, 
                            "t0": 17505, 
                            "v": 60, 
                            "dur": 1337, 
                            "type": "note", 
                            "channel": 3
                        }
                    ]
                ], 
                [
                    21120, 
                    [
                        {
                            "pitch": 48, 
                            "t0": 21120, 
                            "v": 60, 
                            "dur": 1553, 
                            "type": "note", 
                            "channel": 3
                        }
                    ]
                ], 
                [
                    21165, 
                    [
                        {
                            "pitch": 53, 
                            "t0": 21165, 
                            "v": 60, 
                            "dur": 1547, 
                            "type": "note", 
                            "channel": 3
                        }
                    ]
                ], 
                [
                    21210, 
                    [
                        {
                            "pitch": 57, 
                            "t0": 21210, 
                            "v": 60, 
                            "dur": 1497, 
                            "type": "note", 
                            "channel": 3
                        }
                    ]
                ], 
                [
                    21255, 
                    [
                        {
                            "pitch": 60, 
                            "t0": 21255, 
                            "v": 60, 
                            "dur": 1575, 
                            "type": "note", 
                            "channel": 3
                        }
                    ]
                ], 
                [
                    21300, 
                    [
                        {
                            "pitch": 65, 
                            "t0": 21300, 
                            "v": 60, 
                            "dur": 1556, 
                            "type": "note", 
                            "channel": 3
                        }
                    ]
                ], 
                [
                    21345, 
                    [
                        {
                            "pitch": 69, 
                            "t0": 21345, 
                            "v": 60, 
                            "dur": 1583, 
                            "type": "note", 
                            "channel": 3
                        }
                    ]
                ], 
                [
                    24960, 
                    [
                        {
                            "pitch": 45, 
                            "t0": 24960, 
                            "v": 60, 
                            "dur": 962, 
                            "type": "note", 
                            "channel": 3
                        }
                    ]
                ], 
                [
                    25005, 
                    [
                        {
                            "pitch": 48, 
                            "t0": 25005, 
                            "v": 60, 
                            "dur": 1013, 
                            "type": "note", 
                            "channel": 3
                        }
                    ]
                ], 
                [
                    25050, 
                    [
                        {
                            "pitch": 52, 
                            "t0": 25050, 
                            "v": 60, 
                            "dur": 1003, 
                            "type": "note", 
                            "channel": 3
                        }
                    ]
                ], 
                [
                    25095, 
                    [
                        {
                            "pitch": 57, 
                            "t0": 25095, 
                            "v": 60, 
                            "dur": 986, 
                            "type": "note", 
                            "channel": 3
                        }
                    ]
                ], 
                [
                    25140, 
                    [
                        {
                            "pitch": 60, 
                            "t0": 25140, 
                            "v": 60, 
                            "dur": 965, 
                            "type": "note", 
                            "channel": 3
                        }
                    ]
                ], 
                [
                    25185, 
                    [
                        {
                            "pitch": 64, 
                            "t0": 25185, 
                            "v": 60, 
                            "dur": 1017, 
                            "type": "note", 
                            "channel": 3
                        }
                    ]
                ], 
                [
                    28800, 
                    [
                        {
                            "pitch": 53, 
                            "t0": 28800, 
                            "v": 60, 
                            "dur": 1627, 
                            "type": "note", 
                            "channel": 3
                        }
                    ]
                ], 
                [
                    28845, 
                    [
                        {
                            "pitch": 57, 
                            "t0": 28845, 
                            "v": 60, 
                            "dur": 1618, 
                            "type": "note", 
                            "channel": 3
                        }
                    ]
                ], 
                [
                    28890, 
                    [
                        {
                            "pitch": 60, 
                            "t0": 28890, 
                            "v": 60, 
                            "dur": 1595, 
                            "type": "note", 
                            "channel": 3
                        }
                    ]
                ], 
                [
                    28935, 
                    [
                        {
                            "pitch": 65, 
                            "t0": 28935, 
                            "v": 60, 
                            "dur": 1635, 
                            "type": "note", 
                            "channel": 3
                        }
                    ]
                ], 
                [
                    28980, 
                    [
                        {
                            "pitch": 69, 
                            "t0": 28980, 
                            "v": 60, 
                            "dur": 1632, 
                            "type": "note", 
                            "channel": 3
                        }
                    ]
                ], 
                [
                    29025, 
                    [
                        {
                            "pitch": 72, 
                            "t0": 29025, 
                            "v": 60, 
                            "dur": 1680, 
                            "type": "note", 
                            "channel": 3
                        }
                    ]
                ], 
                [
                    32640, 
                    [
                        {
                            "pitch": 55, 
                            "t0": 32640, 
                            "v": 60, 
                            "dur": 1753, 
                            "type": "note", 
                            "channel": 3
                        }
                    ]
                ], 
                [
                    32685, 
                    [
                        {
                            "pitch": 59, 
                            "t0": 32685, 
                            "v": 60, 
                            "dur": 1745, 
                            "type": "note", 
                            "channel": 3
                        }
                    ]
                ], 
                [
                    32730, 
                    [
                        {
                            "pitch": 62, 
                            "t0": 32730, 
                            "v": 60, 
                            "dur": 1666, 
                            "type": "note", 
                            "channel": 3
                        }
                    ]
                ], 
                [
                    32775, 
                    [
                        {
                            "pitch": 67, 
                            "t0": 32775, 
                            "v": 60, 
                            "dur": 1756, 
                            "type": "note", 
                            "channel": 3
                        }
                    ]
                ], 
                [
                    32820, 
                    [
                        {
                            "pitch": 71, 
                            "t0": 32820, 
                            "v": 60, 
                            "dur": 1653, 
                            "type": "note", 
                            "channel": 3
                        }
                    ]
                ], 
                [
                    32865, 
                    [
                        {
                            "pitch": 74, 
                            "t0": 32865, 
                            "v": 60, 
                            "dur": 1795, 
                            "type": "note", 
                            "channel": 3
                        }
                    ]
                ], 
                [
                    34560, 
                    [
                        {
                            "pitch": 62, 
                            "t0": 34560, 
                            "v": 81, 
                            "dur": 430, 
                            "type": "note", 
                            "channel": 3
                        }
                    ]
                ], 
                [
                    35040, 
                    [
                        {
                            "pitch": 64, 
                            "t0": 35040, 
                            "v": 81, 
                            "dur": 518, 
                            "type": "note", 
                            "channel": 3
                        }
                    ]
                ], 
                [
                    35520, 
                    [
                        {
                            "pitch": 65, 
                            "t0": 35520, 
                            "v": 81, 
                            "dur": 557, 
                            "type": "note", 
                            "channel": 3
                        }
                    ]
                ], 
                [
                    36000, 
                    [
                        {
                            "pitch": 64, 
                            "t0": 36000, 
                            "v": 82, 
                            "dur": 493, 
                            "type": "note", 
                            "channel": 3
                        }
                    ]
                ], 
                [
                    36480, 
                    [
                        {
                            "pitch": 62, 
                            "t0": 36480, 
                            "v": 82, 
                            "dur": 911, 
                            "type": "note", 
                            "channel": 3
                        }
                    ]
                ], 
                [
                    40320, 
                    [
                        {
                            "pitch": 52, 
                            "t0": 40320, 
                            "v": 60, 
                            "dur": 903, 
                            "type": "note", 
                            "channel": 3
                        }
                    ]
                ], 
                [
                    40365, 
                    [
                        {
                            "pitch": 57, 
                            "t0": 40365, 
                            "v": 60, 
                            "dur": 817, 
                            "type": "note", 
                            "channel": 3
                        }
                    ]
                ], 
                [
                    40410, 
                    [
                        {
                            "pitch": 60, 
                            "t0": 40410, 
                            "v": 60, 
                            "dur": 873, 
                            "type": "note", 
                            "channel": 3
                        }
                    ]
                ], 
                [
                    40455, 
                    [
                        {
                            "pitch": 64, 
                            "t0": 40455, 
                            "v": 60, 
                            "dur": 1013, 
                            "type": "note", 
                            "channel": 3
                        }
                    ]
                ], 
                [
                    40500, 
                    [
                        {
                            "pitch": 69, 
                            "t0": 40500, 
                            "v": 60, 
                            "dur": 880, 
                            "type": "note", 
                            "channel": 3
                        }
                    ]
                ], 
                [
                    40545, 
                    [
                        {
                            "pitch": 72, 
                            "t0": 40545, 
                            "v": 60, 
                            "dur": 941, 
                            "type": "note", 
                            "channel": 3
                        }
                    ]
                ], 
                [
                    44160, 
                    [
                        {
                            "pitch": 52, 
                            "t0": 44160, 
                            "v": 60, 
                            "dur": 1155, 
                            "type": "note", 
                            "channel": 3
                        }
                    ]
                ], 
                [
                    44205, 
                    [
                        {
                            "pitch": 55, 
                            "t0": 44205, 
                            "v": 60, 
                            "dur": 1210, 
                            "type": "note", 
                            "channel": 3
                        }
                    ]
                ], 
                [
                    44250, 
                    [
                        {
                            "pitch": 59, 
                            "t0": 44250, 
                            "v": 60, 
                            "dur": 1213, 
                            "type": "note", 
                            "channel": 3
                        }
                    ]
                ], 
                [
                    44295, 
                    [
                        {
                            "pitch": 64, 
                            "t0": 44295, 
                            "v": 60, 
                            "dur": 1167, 
                            "type": "note", 
                            "channel": 3
                        }
                    ]
                ], 
                [
                    44340, 
                    [
                        {
                            "pitch": 67, 
                            "t0": 44340, 
                            "v": 60, 
                            "dur": 1213, 
                            "type": "note", 
                            "channel": 3
                        }
                    ]
                ], 
                [
                    44385, 
                    [
                        {
                            "pitch": 71, 
                            "t0": 44385, 
                            "v": 60, 
                            "dur": 1256, 
                            "type": "note", 
                            "channel": 3
                        }
                    ]
                ], 
                [
                    48000, 
                    [
                        {
                            "pitch": 52, 
                            "t0": 48000, 
                            "v": 60, 
                            "dur": 1476, 
                            "type": "note", 
                            "channel": 3
                        }
                    ]
                ], 
                [
                    48045, 
                    [
                        {
                            "pitch": 57, 
                            "t0": 48045, 
                            "v": 60, 
                            "dur": 1448, 
                            "type": "note", 
                            "channel": 3
                        }
                    ]
                ], 
                [
                    48090, 
                    [
                        {
                            "pitch": 60, 
                            "t0": 48090, 
                            "v": 60, 
                            "dur": 1466, 
                            "type": "note", 
                            "channel": 3
                        }
                    ]
                ], 
                [
                    48135, 
                    [
                        {
                            "pitch": 64, 
                            "t0": 48135, 
                            "v": 60, 
                            "dur": 1337, 
                            "type": "note", 
                            "channel": 3
                        }
                    ]
                ], 
                [
                    48180, 
                    [
                        {
                            "pitch": 69, 
                            "t0": 48180, 
                            "v": 60, 
                            "dur": 1398, 
                            "type": "note", 
                            "channel": 3
                        }
                    ]
                ], 
                [
                    48225, 
                    [
                        {
                            "pitch": 72, 
                            "t0": 48225, 
                            "v": 60, 
                            "dur": 1540, 
                            "type": "note", 
                            "channel": 3
                        }
                    ]
                ], 
                [
                    51840, 
                    [
                        {
                            "pitch": 52, 
                            "t0": 51840, 
                            "v": 60, 
                            "dur": 1253, 
                            "type": "note", 
                            "channel": 3
                        }
                    ]
                ], 
                [
                    51885, 
                    [
                        {
                            "pitch": 55, 
                            "t0": 51885, 
                            "v": 60, 
                            "dur": 1293, 
                            "type": "note", 
                            "channel": 3
                        }
                    ]
                ], 
                [
                    51930, 
                    [
                        {
                            "pitch": 59, 
                            "t0": 51930, 
                            "v": 60, 
                            "dur": 1227, 
                            "type": "note", 
                            "channel": 3
                        }
                    ]
                ], 
                [
                    51975, 
                    [
                        {
                            "pitch": 64, 
                            "t0": 51975, 
                            "v": 60, 
                            "dur": 1257, 
                            "type": "note", 
                            "channel": 3
                        }
                    ]
                ], 
                [
                    52020, 
                    [
                        {
                            "pitch": 67, 
                            "t0": 52020, 
                            "v": 60, 
                            "dur": 1255, 
                            "type": "note", 
                            "channel": 3
                        }
                    ]
                ], 
                [
                    52065, 
                    [
                        {
                            "pitch": 71, 
                            "t0": 52065, 
                            "v": 60, 
                            "dur": 1337, 
                            "type": "note", 
                            "channel": 3
                        }
                    ]
                ], 
                [
                    55680, 
                    [
                        {
                            "pitch": 48, 
                            "t0": 55680, 
                            "v": 60, 
                            "dur": 1553, 
                            "type": "note", 
                            "channel": 3
                        }
                    ]
                ], 
                [
                    55725, 
                    [
                        {
                            "pitch": 53, 
                            "t0": 55725, 
                            "v": 60, 
                            "dur": 1547, 
                            "type": "note", 
                            "channel": 3
                        }
                    ]
                ], 
                [
                    55770, 
                    [
                        {
                            "pitch": 57, 
                            "t0": 55770, 
                            "v": 60, 
                            "dur": 1497, 
                            "type": "note", 
                            "channel": 3
                        }
                    ]
                ], 
                [
                    55815, 
                    [
                        {
                            "pitch": 60, 
                            "t0": 55815, 
                            "v": 60, 
                            "dur": 1575, 
                            "type": "note", 
                            "channel": 3
                        }
                    ]
                ], 
                [
                    55860, 
                    [
                        {
                            "pitch": 65, 
                            "t0": 55860, 
                            "v": 60, 
                            "dur": 1556, 
                            "type": "note", 
                            "channel": 3
                        }
                    ]
                ], 
                [
                    55905, 
                    [
                        {
                            "pitch": 69, 
                            "t0": 55905, 
                            "v": 60, 
                            "dur": 1583, 
                            "type": "note", 
                            "channel": 3
                        }
                    ]
                ], 
                [
                    59520, 
                    [
                        {
                            "pitch": 45, 
                            "t0": 59520, 
                            "v": 60, 
                            "dur": 962, 
                            "type": "note", 
                            "channel": 3
                        }
                    ]
                ], 
                [
                    59565, 
                    [
                        {
                            "pitch": 48, 
                            "t0": 59565, 
                            "v": 60, 
                            "dur": 1013, 
                            "type": "note", 
                            "channel": 3
                        }
                    ]
                ], 
                [
                    59610, 
                    [
                        {
                            "pitch": 52, 
                            "t0": 59610, 
                            "v": 60, 
                            "dur": 1003, 
                            "type": "note", 
                            "channel": 3
                        }
                    ]
                ], 
                [
                    59655, 
                    [
                        {
                            "pitch": 57, 
                            "t0": 59655, 
                            "v": 60, 
                            "dur": 986, 
                            "type": "note", 
                            "channel": 3
                        }
                    ]
                ], 
                [
                    59700, 
                    [
                        {
                            "pitch": 60, 
                            "t0": 59700, 
                            "v": 60, 
                            "dur": 965, 
                            "type": "note", 
                            "channel": 3
                        }
                    ]
                ], 
                [
                    59745, 
                    [
                        {
                            "pitch": 64, 
                            "t0": 59745, 
                            "v": 60, 
                            "dur": 1017, 
                            "type": "note", 
                            "channel": 3
                        }
                    ]
                ], 
                [
                    63360, 
                    [
                        {
                            "pitch": 53, 
                            "t0": 63360, 
                            "v": 60, 
                            "dur": 1627, 
                            "type": "note", 
                            "channel": 3
                        }
                    ]
                ], 
                [
                    63405, 
                    [
                        {
                            "pitch": 57, 
                            "t0": 63405, 
                            "v": 60, 
                            "dur": 1618, 
                            "type": "note", 
                            "channel": 3
                        }
                    ]
                ], 
                [
                    63450, 
                    [
                        {
                            "pitch": 60, 
                            "t0": 63450, 
                            "v": 60, 
                            "dur": 1595, 
                            "type": "note", 
                            "channel": 3
                        }
                    ]
                ], 
                [
                    63495, 
                    [
                        {
                            "pitch": 65, 
                            "t0": 63495, 
                            "v": 60, 
                            "dur": 1635, 
                            "type": "note", 
                            "channel": 3
                        }
                    ]
                ], 
                [
                    63540, 
                    [
                        {
                            "pitch": 69, 
                            "t0": 63540, 
                            "v": 60, 
                            "dur": 1632, 
                            "type": "note", 
                            "channel": 3
                        }
                    ]
                ], 
                [
                    63585, 
                    [
                        {
                            "pitch": 72, 
                            "t0": 63585, 
                            "v": 60, 
                            "dur": 1680, 
                            "type": "note", 
                            "channel": 3
                        }
                    ]
                ], 
                [
                    67200, 
                    [
                        {
                            "pitch": 55, 
                            "t0": 67200, 
                            "v": 60, 
                            "dur": 1753, 
                            "type": "note", 
                            "channel": 3
                        }
                    ]
                ], 
                [
                    67245, 
                    [
                        {
                            "pitch": 59, 
                            "t0": 67245, 
                            "v": 60, 
                            "dur": 1745, 
                            "type": "note", 
                            "channel": 3
                        }
                    ]
                ], 
                [
                    67290, 
                    [
                        {
                            "pitch": 62, 
                            "t0": 67290, 
                            "v": 60, 
                            "dur": 1666, 
                            "type": "note", 
                            "channel": 3
                        }
                    ]
                ], 
                [
                    67335, 
                    [
                        {
                            "pitch": 67, 
                            "t0": 67335, 
                            "v": 60, 
                            "dur": 1756, 
                            "type": "note", 
                            "channel": 3
                        }
                    ]
                ], 
                [
                    67380, 
                    [
                        {
                            "pitch": 71, 
                            "t0": 67380, 
                            "v": 60, 
                            "dur": 1653, 
                            "type": "note", 
                            "channel": 3
                        }
                    ]
                ], 
                [
                    67425, 
                    [
                        {
                            "pitch": 74, 
                            "t0": 67425, 
                            "v": 60, 
                            "dur": 1795, 
                            "type": "note", 
                            "channel": 3
                        }
                    ]
                ], 
                [
                    69120, 
                    [
                        {
                            "pitch": 62, 
                            "t0": 69120, 
                            "v": 81, 
                            "dur": 430, 
                            "type": "note", 
                            "channel": 3
                        }
                    ]
                ], 
                [
                    69600, 
                    [
                        {
                            "pitch": 64, 
                            "t0": 69600, 
                            "v": 81, 
                            "dur": 518, 
                            "type": "note", 
                            "channel": 3
                        }
                    ]
                ], 
                [
                    70080, 
                    [
                        {
                            "pitch": 65, 
                            "t0": 70080, 
                            "v": 81, 
                            "dur": 557, 
                            "type": "note", 
                            "channel": 3
                        }
                    ]
                ], 
                [
                    70560, 
                    [
                        {
                            "pitch": 64, 
                            "t0": 70560, 
                            "v": 82, 
                            "dur": 493, 
                            "type": "note", 
                            "channel": 3
                        }
                    ]
                ], 
                [
                    71040, 
                    [
                        {
                            "pitch": 62, 
                            "t0": 71040, 
                            "v": 82, 
                            "dur": 911, 
                            "type": "note", 
                            "channel": 3
                        }
                    ]
                ], 
                [
                    74880, 
                    [
                        {
                            "pitch": 60, 
                            "t0": 74880, 
                            "v": 50, 
                            "dur": 407, 
                            "type": "note", 
                            "channel": 3
                        }
                    ]
                ], 
                [
                    74900, 
                    [
                        {
                            "pitch": 64, 
                            "t0": 74900, 
                            "v": 50, 
                            "dur": 392, 
                            "type": "note", 
                            "channel": 3
                        }
                    ]
                ], 
                [
                    74920, 
                    [
                        {
                            "pitch": 67, 
                            "t0": 74920, 
                            "v": 50, 
                            "dur": 433, 
                            "type": "note", 
                            "channel": 3
                        }
                    ]
                ], 
                [
                    74940, 
                    [
                        {
                            "pitch": 72, 
                            "t0": 74940, 
                            "v": 50, 
                            "dur": 432, 
                            "type": "note", 
                            "channel": 3
                        }
                    ]
                ], 
                [
                    74960, 
                    [
                        {
                            "pitch": 76, 
                            "t0": 74960, 
                            "v": 50, 
                            "dur": 410, 
                            "type": "note", 
                            "channel": 3
                        }
                    ]
                ], 
                [
                    74980, 
                    [
                        {
                            "pitch": 79, 
                            "t0": 74980, 
                            "v": 50, 
                            "dur": 440, 
                            "type": "note", 
                            "channel": 3
                        }
                    ]
                ], 
                [
                    75360, 
                    [
                        {
                            "pitch": 60, 
                            "t0": 75360, 
                            "v": 50, 
                            "dur": 407, 
                            "type": "note", 
                            "channel": 3
                        }
                    ]
                ], 
                [
                    75380, 
                    [
                        {
                            "pitch": 64, 
                            "t0": 75380, 
                            "v": 50, 
                            "dur": 392, 
                            "type": "note", 
                            "channel": 3
                        }
                    ]
                ], 
                [
                    75400, 
                    [
                        {
                            "pitch": 67, 
                            "t0": 75400, 
                            "v": 50, 
                            "dur": 433, 
                            "type": "note", 
                            "channel": 3
                        }
                    ]
                ], 
                [
                    75420, 
                    [
                        {
                            "pitch": 72, 
                            "t0": 75420, 
                            "v": 50, 
                            "dur": 432, 
                            "type": "note", 
                            "channel": 3
                        }
                    ]
                ], 
                [
                    75440, 
                    [
                        {
                            "pitch": 76, 
                            "t0": 75440, 
                            "v": 50, 
                            "dur": 410, 
                            "type": "note", 
                            "channel": 3
                        }
                    ]
                ], 
                [
                    75460, 
                    [
                        {
                            "pitch": 79, 
                            "t0": 75460, 
                            "v": 50, 
                            "dur": 440, 
                            "type": "note", 
                            "channel": 3
                        }
                    ]
                ], 
                [
                    75840, 
                    [
                        {
                            "pitch": 60, 
                            "t0": 75840, 
                            "v": 50, 
                            "dur": 313, 
                            "type": "note", 
                            "channel": 3
                        }
                    ]
                ], 
                [
                    75860, 
                    [
                        {
                            "pitch": 64, 
                            "t0": 75860, 
                            "v": 50, 
                            "dur": 363, 
                            "type": "note", 
                            "channel": 3
                        }
                    ]
                ], 
                [
                    75880, 
                    [
                        {
                            "pitch": 67, 
                            "t0": 75880, 
                            "v": 50, 
                            "dur": 368, 
                            "type": "note", 
                            "channel": 3
                        }
                    ]
                ], 
                [
                    75900, 
                    [
                        {
                            "pitch": 72, 
                            "t0": 75900, 
                            "v": 50, 
                            "dur": 381, 
                            "type": "note", 
                            "channel": 3
                        }
                    ]
                ], 
                [
                    75920, 
                    [
                        {
                            "pitch": 76, 
                            "t0": 75920, 
                            "v": 50, 
                            "dur": 337, 
                            "type": "note", 
                            "channel": 3
                        }
                    ]
                ], 
                [
                    75940, 
                    [
                        {
                            "pitch": 79, 
                            "t0": 75940, 
                            "v": 50, 
                            "dur": 307, 
                            "type": "note", 
                            "channel": 3
                        }
                    ]
                ], 
                [
                    76320, 
                    [
                        {
                            "pitch": 60, 
                            "t0": 76320, 
                            "v": 50, 
                            "dur": 313, 
                            "type": "note", 
                            "channel": 3
                        }
                    ]
                ], 
                [
                    76340, 
                    [
                        {
                            "pitch": 64, 
                            "t0": 76340, 
                            "v": 50, 
                            "dur": 363, 
                            "type": "note", 
                            "channel": 3
                        }
                    ]
                ], 
                [
                    76360, 
                    [
                        {
                            "pitch": 67, 
                            "t0": 76360, 
                            "v": 50, 
                            "dur": 368, 
                            "type": "note", 
                            "channel": 3
                        }
                    ]
                ], 
                [
                    76380, 
                    [
                        {
                            "pitch": 72, 
                            "t0": 76380, 
                            "v": 50, 
                            "dur": 381, 
                            "type": "note", 
                            "channel": 3
                        }
                    ]
                ], 
                [
                    76400, 
                    [
                        {
                            "pitch": 76, 
                            "t0": 76400, 
                            "v": 50, 
                            "dur": 337, 
                            "type": "note", 
                            "channel": 3
                        }
                    ]
                ], 
                [
                    76420, 
                    [
                        {
                            "pitch": 79, 
                            "t0": 76420, 
                            "v": 50, 
                            "dur": 307, 
                            "type": "note", 
                            "channel": 3
                        }
                    ]
                ], 
                [
                    76800, 
                    [
                        {
                            "pitch": 55, 
                            "t0": 76800, 
                            "parts": [
                                [
                                    76800, 
                                    50
                                ], 
                                [
                                    77280, 
                                    50
                                ], 
                                [
                                    77298, 
                                    0
                                ]
                            ], 
                            "v": 50, 
                            "dur": 498, 
                            "type": "note", 
                            "channel": 3
                        }
                    ]
                ], 
                [
                    76820, 
                    [
                        {
                            "pitch": 59, 
                            "t0": 76820, 
                            "parts": [
                                [
                                    76820, 
                                    50
                                ], 
                                [
                                    77300, 
                                    50
                                ], 
                                [
                                    77357, 
                                    0
                                ]
                            ], 
                            "v": 50, 
                            "dur": 537, 
                            "type": "note", 
                            "channel": 3
                        }
                    ]
                ], 
                [
                    76840, 
                    [
                        {
                            "pitch": 62, 
                            "t0": 76840, 
                            "parts": [
                                [
                                    76840, 
                                    50
                                ], 
                                [
                                    77320, 
                                    50
                                ], 
                                [
                                    77387, 
                                    0
                                ]
                            ], 
                            "v": 50, 
                            "dur": 547, 
                            "type": "note", 
                            "channel": 3
                        }
                    ]
                ], 
                [
                    76860, 
                    [
                        {
                            "pitch": 67, 
                            "t0": 76860, 
                            "parts": [
                                [
                                    76860, 
                                    50
                                ], 
                                [
                                    77340, 
                                    50
                                ], 
                                [
                                    77392, 
                                    0
                                ]
                            ], 
                            "v": 50, 
                            "dur": 532, 
                            "type": "note", 
                            "channel": 3
                        }
                    ]
                ], 
                [
                    76880, 
                    [
                        {
                            "pitch": 71, 
                            "t0": 76880, 
                            "parts": [
                                [
                                    76880, 
                                    50
                                ], 
                                [
                                    77360, 
                                    50
                                ], 
                                [
                                    77377, 
                                    0
                                ]
                            ], 
                            "v": 50, 
                            "dur": 497, 
                            "type": "note", 
                            "channel": 3
                        }
                    ]
                ], 
                [
                    76900, 
                    [
                        {
                            "pitch": 74, 
                            "t0": 76900, 
                            "parts": [
                                [
                                    76900, 
                                    50
                                ], 
                                [
                                    77380, 
                                    50
                                ], 
                                [
                                    77397, 
                                    0
                                ]
                            ], 
                            "v": 50, 
                            "dur": 497, 
                            "type": "note", 
                            "channel": 3
                        }
                    ]
                ], 
                [
                    77760, 
                    [
                        {
                            "pitch": 55, 
                            "t0": 77760, 
                            "v": 50, 
                            "dur": 18, 
                            "type": "note", 
                            "channel": 3
                        }
                    ]
                ], 
                [
                    77780, 
                    [
                        {
                            "pitch": 59, 
                            "t0": 77780, 
                            "v": 50, 
                            "dur": 57, 
                            "type": "note", 
                            "channel": 3
                        }
                    ]
                ], 
                [
                    77800, 
                    [
                        {
                            "pitch": 62, 
                            "t0": 77800, 
                            "v": 50, 
                            "dur": 67, 
                            "type": "note", 
                            "channel": 3
                        }
                    ]
                ], 
                [
                    77820, 
                    [
                        {
                            "pitch": 67, 
                            "t0": 77820, 
                            "v": 50, 
                            "dur": 52, 
                            "type": "note", 
                            "channel": 3
                        }
                    ]
                ], 
                [
                    77840, 
                    [
                        {
                            "pitch": 71, 
                            "t0": 77840, 
                            "v": 50, 
                            "dur": 17, 
                            "type": "note", 
                            "channel": 3
                        }
                    ]
                ], 
                [
                    77860, 
                    [
                        {
                            "pitch": 74, 
                            "t0": 77860, 
                            "v": 50, 
                            "dur": 17, 
                            "type": "note", 
                            "channel": 3
                        }
                    ]
                ], 
                [
                    78240, 
                    [
                        {
                            "pitch": 55, 
                            "t0": 78240, 
                            "v": 50, 
                            "dur": 445, 
                            "type": "note", 
                            "channel": 3
                        }
                    ]
                ], 
                [
                    78260, 
                    [
                        {
                            "pitch": 59, 
                            "t0": 78260, 
                            "v": 50, 
                            "dur": 2, 
                            "type": "note", 
                            "channel": 3
                        }
                    ]
                ], 
                [
                    78280, 
                    [
                        {
                            "pitch": 62, 
                            "t0": 78280, 
                            "v": 50, 
                            "dur": 26, 
                            "type": "note", 
                            "channel": 3
                        }
                    ]
                ], 
                [
                    78300, 
                    [
                        {
                            "pitch": 67, 
                            "t0": 78300, 
                            "v": 50, 
                            "dur": 445, 
                            "type": "note", 
                            "channel": 3
                        }
                    ]
                ], 
                [
                    78320, 
                    [
                        {
                            "pitch": 71, 
                            "t0": 78320, 
                            "v": 50, 
                            "dur": 450, 
                            "type": "note", 
                            "channel": 3
                        }
                    ]
                ], 
                [
                    78340, 
                    [
                        {
                            "pitch": 74, 
                            "t0": 78340, 
                            "v": 50, 
                            "dur": 461, 
                            "type": "note", 
                            "channel": 3
                        }
                    ]
                ], 
                [
                    78720, 
                    [
                        {
                            "pitch": 57, 
                            "t0": 78720, 
                            "parts": [
                                [
                                    78720, 
                                    50
                                ], 
                                [
                                    79200, 
                                    50
                                ], 
                                [
                                    79226, 
                                    0
                                ]
                            ], 
                            "v": 50, 
                            "dur": 506, 
                            "type": "note", 
                            "channel": 3
                        }
                    ]
                ], 
                [
                    78740, 
                    [
                        {
                            "pitch": 60, 
                            "t0": 78740, 
                            "parts": [
                                [
                                    78740, 
                                    50
                                ], 
                                [
                                    79220, 
                                    50
                                ], 
                                [
                                    79265, 
                                    0
                                ]
                            ], 
                            "v": 50, 
                            "dur": 525, 
                            "type": "note", 
                            "channel": 3
                        }
                    ]
                ], 
                [
                    78760, 
                    [
                        {
                            "pitch": 64, 
                            "t0": 78760, 
                            "parts": [
                                [
                                    78760, 
                                    50
                                ], 
                                [
                                    79240, 
                                    50
                                ], 
                                [
                                    79331, 
                                    0
                                ]
                            ], 
                            "v": 50, 
                            "dur": 571, 
                            "type": "note", 
                            "channel": 3
                        }
                    ]
                ], 
                [
                    78780, 
                    [
                        {
                            "pitch": 69, 
                            "t0": 78780, 
                            "parts": [
                                [
                                    78780, 
                                    50
                                ], 
                                [
                                    79260, 
                                    50
                                ], 
                                [
                                    79323, 
                                    0
                                ]
                            ], 
                            "v": 50, 
                            "dur": 543, 
                            "type": "note", 
                            "channel": 3
                        }
                    ]
                ], 
                [
                    78800, 
                    [
                        {
                            "pitch": 72, 
                            "t0": 78800, 
                            "parts": [
                                [
                                    78800, 
                                    50
                                ], 
                                [
                                    79280, 
                                    50
                                ], 
                                [
                                    79306, 
                                    0
                                ]
                            ], 
                            "v": 50, 
                            "dur": 506, 
                            "type": "note", 
                            "channel": 3
                        }
                    ]
                ], 
                [
                    78820, 
                    [
                        {
                            "pitch": 76, 
                            "t0": 78820, 
                            "v": 50, 
                            "dur": 416, 
                            "type": "note", 
                            "channel": 3
                        }
                    ]
                ], 
                [
                    79300, 
                    [
                        {
                            "pitch": 76, 
                            "t0": 79300, 
                            "v": 50, 
                            "dur": 416, 
                            "type": "note", 
                            "channel": 3
                        }
                    ]
                ], 
                [
                    79680, 
                    [
                        {
                            "pitch": 57, 
                            "t0": 79680, 
                            "v": 50, 
                            "dur": 26, 
                            "type": "note", 
                            "channel": 3
                        }
                    ]
                ], 
                [
                    79700, 
                    [
                        {
                            "pitch": 60, 
                            "t0": 79700, 
                            "v": 50, 
                            "dur": 45, 
                            "type": "note", 
                            "channel": 3
                        }
                    ]
                ], 
                [
                    79720, 
                    [
                        {
                            "pitch": 64, 
                            "t0": 79720, 
                            "v": 50, 
                            "dur": 91, 
                            "type": "note", 
                            "channel": 3
                        }
                    ]
                ], 
                [
                    79740, 
                    [
                        {
                            "pitch": 69, 
                            "t0": 79740, 
                            "v": 50, 
                            "dur": 63, 
                            "type": "note", 
                            "channel": 3
                        }
                    ]
                ], 
                [
                    79760, 
                    [
                        {
                            "pitch": 72, 
                            "t0": 79760, 
                            "v": 50, 
                            "dur": 26, 
                            "type": "note", 
                            "channel": 3
                        }
                    ]
                ], 
                [
                    79780, 
                    [
                        {
                            "pitch": 76, 
                            "t0": 79780, 
                            "v": 50, 
                            "dur": 322, 
                            "type": "note", 
                            "channel": 3
                        }
                    ]
                ], 
                [
                    80160, 
                    [
                        {
                            "pitch": 57, 
                            "t0": 80160, 
                            "v": 50, 
                            "dur": 376, 
                            "type": "note", 
                            "channel": 3
                        }
                    ]
                ], 
                [
                    80180, 
                    [
                        {
                            "pitch": 60, 
                            "t0": 80180, 
                            "v": 50, 
                            "dur": 377, 
                            "type": "note", 
                            "channel": 3
                        }
                    ]
                ], 
                [
                    80200, 
                    [
                        {
                            "pitch": 64, 
                            "t0": 80200, 
                            "v": 50, 
                            "dur": 360, 
                            "type": "note", 
                            "channel": 3
                        }
                    ]
                ], 
                [
                    80220, 
                    [
                        {
                            "pitch": 69, 
                            "t0": 80220, 
                            "v": 50, 
                            "dur": 395, 
                            "type": "note", 
                            "channel": 3
                        }
                    ]
                ], 
                [
                    80240, 
                    [
                        {
                            "pitch": 72, 
                            "t0": 80240, 
                            "v": 50, 
                            "dur": 340, 
                            "type": "note", 
                            "channel": 3
                        }
                    ]
                ], 
                [
                    80260, 
                    [
                        {
                            "pitch": 76, 
                            "t0": 80260, 
                            "v": 50, 
                            "dur": 322, 
                            "type": "note", 
                            "channel": 3
                        }
                    ]
                ], 
                [
                    80640, 
                    [
                        {
                            "pitch": 52, 
                            "t0": 80640, 
                            "v": 50, 
                            "dur": 455, 
                            "type": "note", 
                            "channel": 3
                        }
                    ]
                ], 
                [
                    80660, 
                    [
                        {
                            "pitch": 55, 
                            "t0": 80660, 
                            "v": 50, 
                            "dur": 478, 
                            "type": "note", 
                            "channel": 3
                        }
                    ]
                ], 
                [
                    80680, 
                    [
                        {
                            "pitch": 59, 
                            "t0": 80680, 
                            "parts": [
                                [
                                    80680, 
                                    50
                                ], 
                                [
                                    81160, 
                                    50
                                ], 
                                [
                                    81183, 
                                    0
                                ]
                            ], 
                            "v": 50, 
                            "dur": 503, 
                            "type": "note", 
                            "channel": 3
                        }
                    ]
                ], 
                [
                    80700, 
                    [
                        {
                            "pitch": 64, 
                            "t0": 80700, 
                            "v": 50, 
                            "dur": 445, 
                            "type": "note", 
                            "channel": 3
                        }
                    ]
                ], 
                [
                    80720, 
                    [
                        {
                            "pitch": 67, 
                            "t0": 80720, 
                            "v": 50, 
                            "dur": 455, 
                            "type": "note", 
                            "channel": 3
                        }
                    ]
                ], 
                [
                    80740, 
                    [
                        {
                            "pitch": 71, 
                            "t0": 80740, 
                            "v": 50, 
                            "dur": 403, 
                            "type": "note", 
                            "channel": 3
                        }
                    ]
                ], 
                [
                    81120, 
                    [
                        {
                            "pitch": 52, 
                            "t0": 81120, 
                            "v": 50, 
                            "dur": 455, 
                            "type": "note", 
                            "channel": 3
                        }
                    ]
                ], 
                [
                    81140, 
                    [
                        {
                            "pitch": 55, 
                            "t0": 81140, 
                            "v": 50, 
                            "dur": 478, 
                            "type": "note", 
                            "channel": 3
                        }
                    ]
                ], 
                [
                    81180, 
                    [
                        {
                            "pitch": 64, 
                            "t0": 81180, 
                            "v": 50, 
                            "dur": 445, 
                            "type": "note", 
                            "channel": 3
                        }
                    ]
                ], 
                [
                    81200, 
                    [
                        {
                            "pitch": 67, 
                            "t0": 81200, 
                            "v": 50, 
                            "dur": 455, 
                            "type": "note", 
                            "channel": 3
                        }
                    ]
                ], 
                [
                    81220, 
                    [
                        {
                            "pitch": 71, 
                            "t0": 81220, 
                            "v": 50, 
                            "dur": 403, 
                            "type": "note", 
                            "channel": 3
                        }
                    ]
                ], 
                [
                    81600, 
                    [
                        {
                            "pitch": 52, 
                            "t0": 81600, 
                            "parts": [
                                [
                                    81600, 
                                    50
                                ], 
                                [
                                    82080, 
                                    50
                                ], 
                                [
                                    82103, 
                                    0
                                ]
                            ], 
                            "v": 50, 
                            "dur": 503, 
                            "type": "note", 
                            "channel": 3
                        }
                    ]
                ], 
                [
                    81620, 
                    [
                        {
                            "pitch": 55, 
                            "t0": 81620, 
                            "parts": [
                                [
                                    81620, 
                                    50
                                ], 
                                [
                                    82100, 
                                    50
                                ], 
                                [
                                    82135, 
                                    0
                                ]
                            ], 
                            "v": 50, 
                            "dur": 515, 
                            "type": "note", 
                            "channel": 3
                        }
                    ]
                ], 
                [
                    81640, 
                    [
                        {
                            "pitch": 59, 
                            "t0": 81640, 
                            "v": 50, 
                            "dur": 23, 
                            "type": "note", 
                            "channel": 3
                        }
                    ]
                ], 
                [
                    81660, 
                    [
                        {
                            "pitch": 64, 
                            "t0": 81660, 
                            "v": 50, 
                            "dur": 460, 
                            "type": "note", 
                            "channel": 3
                        }
                    ]
                ], 
                [
                    81680, 
                    [
                        {
                            "pitch": 67, 
                            "t0": 81680, 
                            "v": 50, 
                            "dur": 438, 
                            "type": "note", 
                            "channel": 3
                        }
                    ]
                ], 
                [
                    81700, 
                    [
                        {
                            "pitch": 71, 
                            "t0": 81700, 
                            "v": 50, 
                            "dur": 465, 
                            "type": "note", 
                            "channel": 3
                        }
                    ]
                ], 
                [
                    82120, 
                    [
                        {
                            "pitch": 59, 
                            "t0": 82120, 
                            "v": 50, 
                            "dur": 48, 
                            "type": "note", 
                            "channel": 3
                        }
                    ]
                ], 
                [
                    82140, 
                    [
                        {
                            "pitch": 64, 
                            "t0": 82140, 
                            "v": 50, 
                            "dur": 460, 
                            "type": "note", 
                            "channel": 3
                        }
                    ]
                ], 
                [
                    82160, 
                    [
                        {
                            "pitch": 67, 
                            "t0": 82160, 
                            "v": 50, 
                            "dur": 438, 
                            "type": "note", 
                            "channel": 3
                        }
                    ]
                ], 
                [
                    82180, 
                    [
                        {
                            "pitch": 71, 
                            "t0": 82180, 
                            "v": 50, 
                            "dur": 465, 
                            "type": "note", 
                            "channel": 3
                        }
                    ]
                ], 
                [
                    82560, 
                    [
                        {
                            "pitch": 53, 
                            "t0": 82560, 
                            "v": 50, 
                            "dur": 375, 
                            "type": "note", 
                            "channel": 3
                        }
                    ]
                ], 
                [
                    82580, 
                    [
                        {
                            "pitch": 57, 
                            "t0": 82580, 
                            "v": 50, 
                            "dur": 403, 
                            "type": "note", 
                            "channel": 3
                        }
                    ]
                ], 
                [
                    82600, 
                    [
                        {
                            "pitch": 60, 
                            "t0": 82600, 
                            "v": 50, 
                            "dur": 421, 
                            "type": "note", 
                            "channel": 3
                        }
                    ]
                ], 
                [
                    82620, 
                    [
                        {
                            "pitch": 65, 
                            "t0": 82620, 
                            "v": 50, 
                            "dur": 345, 
                            "type": "note", 
                            "channel": 3
                        }
                    ]
                ], 
                [
                    82640, 
                    [
                        {
                            "pitch": 69, 
                            "t0": 82640, 
                            "v": 50, 
                            "dur": 365, 
                            "type": "note", 
                            "channel": 3
                        }
                    ]
                ], 
                [
                    82660, 
                    [
                        {
                            "pitch": 72, 
                            "t0": 82660, 
                            "v": 50, 
                            "dur": 378, 
                            "type": "note", 
                            "channel": 3
                        }
                    ]
                ], 
                [
                    83040, 
                    [
                        {
                            "pitch": 53, 
                            "t0": 83040, 
                            "v": 50, 
                            "dur": 375, 
                            "type": "note", 
                            "channel": 3
                        }
                    ]
                ], 
                [
                    83060, 
                    [
                        {
                            "pitch": 57, 
                            "t0": 83060, 
                            "v": 50, 
                            "dur": 403, 
                            "type": "note", 
                            "channel": 3
                        }
                    ]
                ], 
                [
                    83080, 
                    [
                        {
                            "pitch": 60, 
                            "t0": 83080, 
                            "v": 50, 
                            "dur": 421, 
                            "type": "note", 
                            "channel": 3
                        }
                    ]
                ], 
                [
                    83100, 
                    [
                        {
                            "pitch": 65, 
                            "t0": 83100, 
                            "v": 50, 
                            "dur": 345, 
                            "type": "note", 
                            "channel": 3
                        }
                    ]
                ], 
                [
                    83120, 
                    [
                        {
                            "pitch": 69, 
                            "t0": 83120, 
                            "v": 50, 
                            "dur": 365, 
                            "type": "note", 
                            "channel": 3
                        }
                    ]
                ], 
                [
                    83140, 
                    [
                        {
                            "pitch": 72, 
                            "t0": 83140, 
                            "v": 50, 
                            "dur": 378, 
                            "type": "note", 
                            "channel": 3
                        }
                    ]
                ], 
                [
                    83520, 
                    [
                        {
                            "pitch": 55, 
                            "t0": 83520, 
                            "v": 50, 
                            "dur": 433, 
                            "type": "note", 
                            "channel": 3
                        }
                    ]
                ], 
                [
                    83540, 
                    [
                        {
                            "pitch": 59, 
                            "t0": 83540, 
                            "v": 50, 
                            "dur": 388, 
                            "type": "note", 
                            "channel": 3
                        }
                    ]
                ], 
                [
                    83560, 
                    [
                        {
                            "pitch": 62, 
                            "t0": 83560, 
                            "v": 50, 
                            "dur": 470, 
                            "type": "note", 
                            "channel": 3
                        }
                    ]
                ], 
                [
                    83580, 
                    [
                        {
                            "pitch": 67, 
                            "t0": 83580, 
                            "v": 50, 
                            "dur": 381, 
                            "type": "note", 
                            "channel": 3
                        }
                    ]
                ], 
                [
                    83600, 
                    [
                        {
                            "pitch": 71, 
                            "t0": 83600, 
                            "v": 50, 
                            "dur": 397, 
                            "type": "note", 
                            "channel": 3
                        }
                    ]
                ], 
                [
                    83620, 
                    [
                        {
                            "pitch": 74, 
                            "t0": 83620, 
                            "v": 50, 
                            "dur": 373, 
                            "type": "note", 
                            "channel": 3
                        }
                    ]
                ], 
                [
                    84000, 
                    [
                        {
                            "pitch": 55, 
                            "t0": 84000, 
                            "v": 50, 
                            "dur": 433, 
                            "type": "note", 
                            "channel": 3
                        }
                    ]
                ], 
                [
                    84020, 
                    [
                        {
                            "pitch": 59, 
                            "t0": 84020, 
                            "v": 50, 
                            "dur": 388, 
                            "type": "note", 
                            "channel": 3
                        }
                    ]
                ], 
                [
                    84040, 
                    [
                        {
                            "pitch": 62, 
                            "t0": 84040, 
                            "v": 50, 
                            "dur": 470, 
                            "type": "note", 
                            "channel": 3
                        }
                    ]
                ], 
                [
                    84060, 
                    [
                        {
                            "pitch": 67, 
                            "t0": 84060, 
                            "v": 50, 
                            "dur": 381, 
                            "type": "note", 
                            "channel": 3
                        }
                    ]
                ], 
                [
                    84080, 
                    [
                        {
                            "pitch": 71, 
                            "t0": 84080, 
                            "v": 50, 
                            "dur": 397, 
                            "type": "note", 
                            "channel": 3
                        }
                    ]
                ], 
                [
                    84100, 
                    [
                        {
                            "pitch": 74, 
                            "t0": 84100, 
                            "v": 50, 
                            "dur": 373, 
                            "type": "note", 
                            "channel": 3
                        }
                    ]
                ], 
                [
                    84480, 
                    [
                        {
                            "pitch": 57, 
                            "t0": 84480, 
                            "parts": [
                                [
                                    84480, 
                                    50
                                ], 
                                [
                                    84960, 
                                    50
                                ], 
                                [
                                    84995, 
                                    0
                                ]
                            ], 
                            "v": 50, 
                            "dur": 515, 
                            "type": "note", 
                            "channel": 3
                        }
                    ]
                ], 
                [
                    84500, 
                    [
                        {
                            "pitch": 60, 
                            "t0": 84500, 
                            "parts": [
                                [
                                    84500, 
                                    50
                                ], 
                                [
                                    84980, 
                                    50
                                ], 
                                [
                                    85048, 
                                    0
                                ]
                            ], 
                            "v": 50, 
                            "dur": 548, 
                            "type": "note", 
                            "channel": 3
                        }
                    ]
                ], 
                [
                    84520, 
                    [
                        {
                            "pitch": 64, 
                            "t0": 84520, 
                            "parts": [
                                [
                                    84520, 
                                    50
                                ], 
                                [
                                    85000, 
                                    50
                                ], 
                                [
                                    85075, 
                                    0
                                ]
                            ], 
                            "v": 50, 
                            "dur": 555, 
                            "type": "note", 
                            "channel": 3
                        }
                    ]
                ], 
                [
                    84540, 
                    [
                        {
                            "pitch": 69, 
                            "t0": 84540, 
                            "parts": [
                                [
                                    84540, 
                                    50
                                ], 
                                [
                                    85020, 
                                    50
                                ], 
                                [
                                    85083, 
                                    0
                                ]
                            ], 
                            "v": 50, 
                            "dur": 543, 
                            "type": "note", 
                            "channel": 3
                        }
                    ]
                ], 
                [
                    84560, 
                    [
                        {
                            "pitch": 72, 
                            "t0": 84560, 
                            "parts": [
                                [
                                    84560, 
                                    50
                                ], 
                                [
                                    85040, 
                                    50
                                ], 
                                [
                                    85066, 
                                    0
                                ]
                            ], 
                            "v": 50, 
                            "dur": 506, 
                            "type": "note", 
                            "channel": 3
                        }
                    ]
                ], 
                [
                    84580, 
                    [
                        {
                            "pitch": 76, 
                            "t0": 84580, 
                            "parts": [
                                [
                                    84580, 
                                    50
                                ], 
                                [
                                    85060, 
                                    50
                                ], 
                                [
                                    85097, 
                                    0
                                ]
                            ], 
                            "v": 50, 
                            "dur": 517, 
                            "type": "note", 
                            "channel": 3
                        }
                    ]
                ], 
                [
                    85440, 
                    [
                        {
                            "pitch": 57, 
                            "t0": 85440, 
                            "v": 50, 
                            "dur": 35, 
                            "type": "note", 
                            "channel": 3
                        }
                    ]
                ], 
                [
                    85460, 
                    [
                        {
                            "pitch": 60, 
                            "t0": 85460, 
                            "v": 50, 
                            "dur": 68, 
                            "type": "note", 
                            "channel": 3
                        }
                    ]
                ], 
                [
                    85480, 
                    [
                        {
                            "pitch": 64, 
                            "t0": 85480, 
                            "v": 50, 
                            "dur": 75, 
                            "type": "note", 
                            "channel": 3
                        }
                    ]
                ], 
                [
                    85500, 
                    [
                        {
                            "pitch": 69, 
                            "t0": 85500, 
                            "v": 50, 
                            "dur": 63, 
                            "type": "note", 
                            "channel": 3
                        }
                    ]
                ], 
                [
                    85520, 
                    [
                        {
                            "pitch": 72, 
                            "t0": 85520, 
                            "v": 50, 
                            "dur": 26, 
                            "type": "note", 
                            "channel": 3
                        }
                    ]
                ], 
                [
                    85540, 
                    [
                        {
                            "pitch": 76, 
                            "t0": 85540, 
                            "v": 50, 
                            "dur": 37, 
                            "type": "note", 
                            "channel": 3
                        }
                    ]
                ], 
                [
                    85920, 
                    [
                        {
                            "pitch": 57, 
                            "t0": 85920, 
                            "v": 50, 
                            "dur": 62, 
                            "type": "note", 
                            "channel": 3
                        }
                    ]
                ], 
                [
                    85940, 
                    [
                        {
                            "pitch": 60, 
                            "t0": 85940, 
                            "v": 50, 
                            "dur": 88, 
                            "type": "note", 
                            "channel": 3
                        }
                    ]
                ], 
                [
                    85960, 
                    [
                        {
                            "pitch": 64, 
                            "t0": 85960, 
                            "v": 50, 
                            "dur": 122, 
                            "type": "note", 
                            "channel": 3
                        }
                    ]
                ], 
                [
                    85980, 
                    [
                        {
                            "pitch": 69, 
                            "t0": 85980, 
                            "v": 50, 
                            "dur": 66, 
                            "type": "note", 
                            "channel": 3
                        }
                    ]
                ], 
                [
                    86000, 
                    [
                        {
                            "pitch": 72, 
                            "t0": 86000, 
                            "v": 50, 
                            "dur": 68, 
                            "type": "note", 
                            "channel": 3
                        }
                    ]
                ], 
                [
                    86020, 
                    [
                        {
                            "pitch": 76, 
                            "t0": 86020, 
                            "v": 50, 
                            "dur": 70, 
                            "type": "note", 
                            "channel": 3
                        }
                    ]
                ], 
                [
                    86400, 
                    [
                        {
                            "pitch": 60, 
                            "t0": 86400, 
                            "v": 50, 
                            "dur": 108, 
                            "type": "note", 
                            "channel": 3
                        }
                    ]
                ], 
                [
                    86420, 
                    [
                        {
                            "pitch": 64, 
                            "t0": 86420, 
                            "v": 50, 
                            "dur": 142, 
                            "type": "note", 
                            "channel": 3
                        }
                    ]
                ], 
                [
                    86440, 
                    [
                        {
                            "pitch": 67, 
                            "t0": 86440, 
                            "v": 50, 
                            "dur": 430, 
                            "type": "note", 
                            "channel": 3
                        }
                    ]
                ], 
                [
                    86460, 
                    [
                        {
                            "pitch": 72, 
                            "t0": 86460, 
                            "v": 50, 
                            "dur": 88, 
                            "type": "note", 
                            "channel": 3
                        }
                    ]
                ], 
                [
                    86480, 
                    [
                        {
                            "pitch": 76, 
                            "t0": 86480, 
                            "v": 50, 
                            "dur": 90, 
                            "type": "note", 
                            "channel": 3
                        }
                    ]
                ], 
                [
                    86500, 
                    [
                        {
                            "pitch": 79, 
                            "t0": 86500, 
                            "v": 50, 
                            "dur": 403, 
                            "type": "note", 
                            "channel": 3
                        }
                    ]
                ], 
                [
                    86880, 
                    [
                        {
                            "pitch": 60, 
                            "t0": 86880, 
                            "v": 50, 
                            "dur": 401, 
                            "type": "note", 
                            "channel": 3
                        }
                    ]
                ], 
                [
                    86900, 
                    [
                        {
                            "pitch": 64, 
                            "t0": 86900, 
                            "v": 50, 
                            "dur": 432, 
                            "type": "note", 
                            "channel": 3
                        }
                    ]
                ], 
                [
                    86920, 
                    [
                        {
                            "pitch": 67, 
                            "t0": 86920, 
                            "v": 50, 
                            "dur": 430, 
                            "type": "note", 
                            "channel": 3
                        }
                    ]
                ], 
                [
                    86940, 
                    [
                        {
                            "pitch": 72, 
                            "t0": 86940, 
                            "v": 50, 
                            "dur": 453, 
                            "type": "note", 
                            "channel": 3
                        }
                    ]
                ], 
                [
                    86960, 
                    [
                        {
                            "pitch": 76, 
                            "t0": 86960, 
                            "v": 50, 
                            "dur": 402, 
                            "type": "note", 
                            "channel": 3
                        }
                    ]
                ], 
                [
                    86980, 
                    [
                        {
                            "pitch": 79, 
                            "t0": 86980, 
                            "v": 50, 
                            "dur": 403, 
                            "type": "note", 
                            "channel": 3
                        }
                    ]
                ], 
                [
                    87360, 
                    [
                        {
                            "pitch": 55, 
                            "t0": 87360, 
                            "v": 50, 
                            "dur": 393, 
                            "type": "note", 
                            "channel": 3
                        }
                    ]
                ], 
                [
                    87380, 
                    [
                        {
                            "pitch": 59, 
                            "t0": 87380, 
                            "v": 50, 
                            "dur": 440, 
                            "type": "note", 
                            "channel": 3
                        }
                    ]
                ], 
                [
                    87400, 
                    [
                        {
                            "pitch": 62, 
                            "t0": 87400, 
                            "v": 50, 
                            "dur": 467, 
                            "type": "note", 
                            "channel": 3
                        }
                    ]
                ], 
                [
                    87420, 
                    [
                        {
                            "pitch": 67, 
                            "t0": 87420, 
                            "v": 50, 
                            "dur": 410, 
                            "type": "note", 
                            "channel": 3
                        }
                    ]
                ], 
                [
                    87440, 
                    [
                        {
                            "pitch": 71, 
                            "t0": 87440, 
                            "v": 50, 
                            "dur": 387, 
                            "type": "note", 
                            "channel": 3
                        }
                    ]
                ], 
                [
                    87460, 
                    [
                        {
                            "pitch": 74, 
                            "t0": 87460, 
                            "v": 50, 
                            "dur": 370, 
                            "type": "note", 
                            "channel": 3
                        }
                    ]
                ], 
                [
                    87840, 
                    [
                        {
                            "pitch": 55, 
                            "t0": 87840, 
                            "v": 50, 
                            "dur": 393, 
                            "type": "note", 
                            "channel": 3
                        }
                    ]
                ], 
                [
                    87860, 
                    [
                        {
                            "pitch": 59, 
                            "t0": 87860, 
                            "v": 50, 
                            "dur": 440, 
                            "type": "note", 
                            "channel": 3
                        }
                    ]
                ], 
                [
                    87880, 
                    [
                        {
                            "pitch": 62, 
                            "t0": 87880, 
                            "v": 50, 
                            "dur": 467, 
                            "type": "note", 
                            "channel": 3
                        }
                    ]
                ], 
                [
                    87900, 
                    [
                        {
                            "pitch": 67, 
                            "t0": 87900, 
                            "v": 50, 
                            "dur": 410, 
                            "type": "note", 
                            "channel": 3
                        }
                    ]
                ], 
                [
                    87920, 
                    [
                        {
                            "pitch": 71, 
                            "t0": 87920, 
                            "v": 50, 
                            "dur": 387, 
                            "type": "note", 
                            "channel": 3
                        }
                    ]
                ], 
                [
                    87940, 
                    [
                        {
                            "pitch": 74, 
                            "t0": 87940, 
                            "v": 50, 
                            "dur": 370, 
                            "type": "note", 
                            "channel": 3
                        }
                    ]
                ], 
                [
                    88320, 
                    [
                        {
                            "pitch": 57, 
                            "t0": 88320, 
                            "v": 50, 
                            "dur": 305, 
                            "type": "note", 
                            "channel": 3
                        }
                    ]
                ], 
                [
                    88340, 
                    [
                        {
                            "pitch": 60, 
                            "t0": 88340, 
                            "v": 50, 
                            "dur": 317, 
                            "type": "note", 
                            "channel": 3
                        }
                    ]
                ], 
                [
                    88360, 
                    [
                        {
                            "pitch": 64, 
                            "t0": 88360, 
                            "v": 50, 
                            "dur": 322, 
                            "type": "note", 
                            "channel": 3
                        }
                    ]
                ], 
                [
                    88380, 
                    [
                        {
                            "pitch": 69, 
                            "t0": 88380, 
                            "v": 50, 
                            "dur": 346, 
                            "type": "note", 
                            "channel": 3
                        }
                    ]
                ], 
                [
                    88400, 
                    [
                        {
                            "pitch": 72, 
                            "t0": 88400, 
                            "v": 50, 
                            "dur": 321, 
                            "type": "note", 
                            "channel": 3
                        }
                    ]
                ], 
                [
                    88420, 
                    [
                        {
                            "pitch": 76, 
                            "t0": 88420, 
                            "v": 50, 
                            "dur": 305, 
                            "type": "note", 
                            "channel": 3
                        }
                    ]
                ], 
                [
                    88800, 
                    [
                        {
                            "pitch": 57, 
                            "t0": 88800, 
                            "v": 50, 
                            "dur": 305, 
                            "type": "note", 
                            "channel": 3
                        }
                    ]
                ], 
                [
                    88820, 
                    [
                        {
                            "pitch": 60, 
                            "t0": 88820, 
                            "v": 50, 
                            "dur": 317, 
                            "type": "note", 
                            "channel": 3
                        }
                    ]
                ], 
                [
                    88840, 
                    [
                        {
                            "pitch": 64, 
                            "t0": 88840, 
                            "v": 50, 
                            "dur": 322, 
                            "type": "note", 
                            "channel": 3
                        }
                    ]
                ], 
                [
                    88860, 
                    [
                        {
                            "pitch": 69, 
                            "t0": 88860, 
                            "v": 50, 
                            "dur": 346, 
                            "type": "note", 
                            "channel": 3
                        }
                    ]
                ], 
                [
                    88880, 
                    [
                        {
                            "pitch": 72, 
                            "t0": 88880, 
                            "v": 50, 
                            "dur": 321, 
                            "type": "note", 
                            "channel": 3
                        }
                    ]
                ], 
                [
                    88900, 
                    [
                        {
                            "pitch": 76, 
                            "t0": 88900, 
                            "v": 50, 
                            "dur": 305, 
                            "type": "note", 
                            "channel": 3
                        }
                    ]
                ], 
                [
                    89280, 
                    [
                        {
                            "pitch": 52, 
                            "t0": 89280, 
                            "v": 50, 
                            "dur": 426, 
                            "type": "note", 
                            "channel": 3
                        }
                    ]
                ], 
                [
                    89300, 
                    [
                        {
                            "pitch": 55, 
                            "t0": 89300, 
                            "v": 50, 
                            "dur": 462, 
                            "type": "note", 
                            "channel": 3
                        }
                    ]
                ], 
                [
                    89320, 
                    [
                        {
                            "pitch": 59, 
                            "t0": 89320, 
                            "v": 50, 
                            "dur": 475, 
                            "type": "note", 
                            "channel": 3
                        }
                    ]
                ], 
                [
                    89340, 
                    [
                        {
                            "pitch": 64, 
                            "t0": 89340, 
                            "v": 50, 
                            "dur": 375, 
                            "type": "note", 
                            "channel": 3
                        }
                    ]
                ], 
                [
                    89360, 
                    [
                        {
                            "pitch": 67, 
                            "t0": 89360, 
                            "v": 50, 
                            "dur": 411, 
                            "type": "note", 
                            "channel": 3
                        }
                    ]
                ], 
                [
                    89380, 
                    [
                        {
                            "pitch": 71, 
                            "t0": 89380, 
                            "v": 50, 
                            "dur": 387, 
                            "type": "note", 
                            "channel": 3
                        }
                    ]
                ], 
                [
                    89760, 
                    [
                        {
                            "pitch": 52, 
                            "t0": 89760, 
                            "v": 50, 
                            "dur": 426, 
                            "type": "note", 
                            "channel": 3
                        }
                    ]
                ], 
                [
                    89780, 
                    [
                        {
                            "pitch": 55, 
                            "t0": 89780, 
                            "v": 50, 
                            "dur": 462, 
                            "type": "note", 
                            "channel": 3
                        }
                    ]
                ], 
                [
                    89800, 
                    [
                        {
                            "pitch": 59, 
                            "t0": 89800, 
                            "v": 50, 
                            "dur": 475, 
                            "type": "note", 
                            "channel": 3
                        }
                    ]
                ], 
                [
                    89820, 
                    [
                        {
                            "pitch": 64, 
                            "t0": 89820, 
                            "v": 50, 
                            "dur": 375, 
                            "type": "note", 
                            "channel": 3
                        }
                    ]
                ], 
                [
                    89840, 
                    [
                        {
                            "pitch": 67, 
                            "t0": 89840, 
                            "v": 50, 
                            "dur": 411, 
                            "type": "note", 
                            "channel": 3
                        }
                    ]
                ], 
                [
                    89860, 
                    [
                        {
                            "pitch": 71, 
                            "t0": 89860, 
                            "v": 50, 
                            "dur": 387, 
                            "type": "note", 
                            "channel": 3
                        }
                    ]
                ], 
                [
                    90240, 
                    [
                        {
                            "pitch": 53, 
                            "t0": 90240, 
                            "v": 50, 
                            "dur": 395, 
                            "type": "note", 
                            "channel": 3
                        }
                    ]
                ], 
                [
                    90260, 
                    [
                        {
                            "pitch": 57, 
                            "t0": 90260, 
                            "v": 50, 
                            "dur": 457, 
                            "type": "note", 
                            "channel": 3
                        }
                    ]
                ], 
                [
                    90280, 
                    [
                        {
                            "pitch": 60, 
                            "t0": 90280, 
                            "v": 50, 
                            "dur": 463, 
                            "type": "note", 
                            "channel": 3
                        }
                    ]
                ], 
                [
                    90300, 
                    [
                        {
                            "pitch": 65, 
                            "t0": 90300, 
                            "v": 50, 
                            "dur": 416, 
                            "type": "note", 
                            "channel": 3
                        }
                    ]
                ], 
                [
                    90320, 
                    [
                        {
                            "pitch": 69, 
                            "t0": 90320, 
                            "v": 50, 
                            "dur": 400, 
                            "type": "note", 
                            "channel": 3
                        }
                    ]
                ], 
                [
                    90340, 
                    [
                        {
                            "pitch": 72, 
                            "t0": 90340, 
                            "v": 50, 
                            "dur": 423, 
                            "type": "note", 
                            "channel": 3
                        }
                    ]
                ], 
                [
                    90720, 
                    [
                        {
                            "pitch": 53, 
                            "t0": 90720, 
                            "v": 50, 
                            "dur": 395, 
                            "type": "note", 
                            "channel": 3
                        }
                    ]
                ], 
                [
                    90740, 
                    [
                        {
                            "pitch": 57, 
                            "t0": 90740, 
                            "v": 50, 
                            "dur": 457, 
                            "type": "note", 
                            "channel": 3
                        }
                    ]
                ], 
                [
                    90760, 
                    [
                        {
                            "pitch": 60, 
                            "t0": 90760, 
                            "v": 50, 
                            "dur": 463, 
                            "type": "note", 
                            "channel": 3
                        }
                    ]
                ], 
                [
                    90780, 
                    [
                        {
                            "pitch": 65, 
                            "t0": 90780, 
                            "v": 50, 
                            "dur": 416, 
                            "type": "note", 
                            "channel": 3
                        }
                    ]
                ], 
                [
                    90800, 
                    [
                        {
                            "pitch": 69, 
                            "t0": 90800, 
                            "v": 50, 
                            "dur": 400, 
                            "type": "note", 
                            "channel": 3
                        }
                    ]
                ], 
                [
                    90820, 
                    [
                        {
                            "pitch": 72, 
                            "t0": 90820, 
                            "v": 50, 
                            "dur": 423, 
                            "type": "note", 
                            "channel": 3
                        }
                    ]
                ], 
                [
                    91200, 
                    [
                        {
                            "pitch": 55, 
                            "t0": 91200, 
                            "v": 50, 
                            "dur": 455, 
                            "type": "note", 
                            "channel": 3
                        }
                    ]
                ], 
                [
                    91220, 
                    [
                        {
                            "pitch": 59, 
                            "t0": 91220, 
                            "v": 50, 
                            "dur": 468, 
                            "type": "note", 
                            "channel": 3
                        }
                    ]
                ], 
                [
                    91240, 
                    [
                        {
                            "pitch": 62, 
                            "t0": 91240, 
                            "parts": [
                                [
                                    91240, 
                                    50
                                ], 
                                [
                                    91720, 
                                    50
                                ], 
                                [
                                    91752, 
                                    0
                                ]
                            ], 
                            "v": 50, 
                            "dur": 512, 
                            "type": "note", 
                            "channel": 3
                        }
                    ]
                ], 
                [
                    91260, 
                    [
                        {
                            "pitch": 67, 
                            "t0": 91260, 
                            "v": 50, 
                            "dur": 443, 
                            "type": "note", 
                            "channel": 3
                        }
                    ]
                ], 
                [
                    91280, 
                    [
                        {
                            "pitch": 71, 
                            "t0": 91280, 
                            "v": 50, 
                            "dur": 377, 
                            "type": "note", 
                            "channel": 3
                        }
                    ]
                ], 
                [
                    91300, 
                    [
                        {
                            "pitch": 74, 
                            "t0": 91300, 
                            "v": 50, 
                            "dur": 461, 
                            "type": "note", 
                            "channel": 3
                        }
                    ]
                ], 
                [
                    91680, 
                    [
                        {
                            "pitch": 55, 
                            "t0": 91680, 
                            "v": 50, 
                            "dur": 455, 
                            "type": "note", 
                            "channel": 3
                        }
                    ]
                ], 
                [
                    91700, 
                    [
                        {
                            "pitch": 59, 
                            "t0": 91700, 
                            "v": 50, 
                            "dur": 468, 
                            "type": "note", 
                            "channel": 3
                        }
                    ]
                ], 
                [
                    91740, 
                    [
                        {
                            "pitch": 67, 
                            "t0": 91740, 
                            "v": 50, 
                            "dur": 443, 
                            "type": "note", 
                            "channel": 3
                        }
                    ]
                ], 
                [
                    91760, 
                    [
                        {
                            "pitch": 71, 
                            "t0": 91760, 
                            "v": 50, 
                            "dur": 377, 
                            "type": "note", 
                            "channel": 3
                        }
                    ]
                ], 
                [
                    91780, 
                    [
                        {
                            "pitch": 74, 
                            "t0": 91780, 
                            "v": 50, 
                            "dur": 461, 
                            "type": "note", 
                            "channel": 3
                        }
                    ]
                ], 
                [
                    92160, 
                    [
                        {
                            "pitch": 57, 
                            "t0": 92160, 
                            "v": 50, 
                            "dur": 420, 
                            "type": "note", 
                            "channel": 3
                        }
                    ]
                ], 
                [
                    92180, 
                    [
                        {
                            "pitch": 60, 
                            "t0": 92180, 
                            "v": 50, 
                            "dur": 436, 
                            "type": "note", 
                            "channel": 3
                        }
                    ]
                ], 
                [
                    92200, 
                    [
                        {
                            "pitch": 64, 
                            "t0": 92200, 
                            "v": 50, 
                            "dur": 450, 
                            "type": "note", 
                            "channel": 3
                        }
                    ]
                ], 
                [
                    92220, 
                    [
                        {
                            "pitch": 69, 
                            "t0": 92220, 
                            "parts": [
                                [
                                    92220, 
                                    50
                                ], 
                                [
                                    92700, 
                                    50
                                ], 
                                [
                                    92708, 
                                    0
                                ]
                            ], 
                            "v": 50, 
                            "dur": 488, 
                            "type": "note", 
                            "channel": 3
                        }
                    ]
                ], 
                [
                    92240, 
                    [
                        {
                            "pitch": 72, 
                            "t0": 92240, 
                            "v": 50, 
                            "dur": 406, 
                            "type": "note", 
                            "channel": 3
                        }
                    ]
                ], 
                [
                    92260, 
                    [
                        {
                            "pitch": 76, 
                            "t0": 92260, 
                            "v": 50, 
                            "dur": 405, 
                            "type": "note", 
                            "channel": 3
                        }
                    ]
                ], 
                [
                    92640, 
                    [
                        {
                            "pitch": 57, 
                            "t0": 92640, 
                            "v": 50, 
                            "dur": 420, 
                            "type": "note", 
                            "channel": 3
                        }
                    ]
                ], 
                [
                    92660, 
                    [
                        {
                            "pitch": 60, 
                            "t0": 92660, 
                            "v": 50, 
                            "dur": 436, 
                            "type": "note", 
                            "channel": 3
                        }
                    ]
                ], 
                [
                    92680, 
                    [
                        {
                            "pitch": 64, 
                            "t0": 92680, 
                            "v": 50, 
                            "dur": 450, 
                            "type": "note", 
                            "channel": 3
                        }
                    ]
                ], 
                [
                    92720, 
                    [
                        {
                            "pitch": 72, 
                            "t0": 92720, 
                            "v": 50, 
                            "dur": 406, 
                            "type": "note", 
                            "channel": 3
                        }
                    ]
                ], 
                [
                    92740, 
                    [
                        {
                            "pitch": 76, 
                            "t0": 92740, 
                            "v": 50, 
                            "dur": 405, 
                            "type": "note", 
                            "channel": 3
                        }
                    ]
                ], 
                [
                    93120, 
                    [
                        {
                            "pitch": 57, 
                            "t0": 93120, 
                            "v": 50, 
                            "dur": 365, 
                            "type": "note", 
                            "channel": 3
                        }
                    ]
                ], 
                [
                    93140, 
                    [
                        {
                            "pitch": 60, 
                            "t0": 93140, 
                            "v": 50, 
                            "dur": 368, 
                            "type": "note", 
                            "channel": 3
                        }
                    ]
                ], 
                [
                    93160, 
                    [
                        {
                            "pitch": 64, 
                            "t0": 93160, 
                            "v": 50, 
                            "dur": 383, 
                            "type": "note", 
                            "channel": 3
                        }
                    ]
                ], 
                [
                    93180, 
                    [
                        {
                            "pitch": 69, 
                            "t0": 93180, 
                            "v": 50, 
                            "dur": 8, 
                            "type": "note", 
                            "channel": 3
                        }
                    ]
                ], 
                [
                    93200, 
                    [
                        {
                            "pitch": 72, 
                            "t0": 93200, 
                            "v": 50, 
                            "dur": 362, 
                            "type": "note", 
                            "channel": 3
                        }
                    ]
                ], 
                [
                    93220, 
                    [
                        {
                            "pitch": 76, 
                            "t0": 93220, 
                            "v": 50, 
                            "dur": 378, 
                            "type": "note", 
                            "channel": 3
                        }
                    ]
                ], 
                [
                    93600, 
                    [
                        {
                            "pitch": 57, 
                            "t0": 93600, 
                            "v": 50, 
                            "dur": 365, 
                            "type": "note", 
                            "channel": 3
                        }
                    ]
                ], 
                [
                    93620, 
                    [
                        {
                            "pitch": 60, 
                            "t0": 93620, 
                            "v": 50, 
                            "dur": 368, 
                            "type": "note", 
                            "channel": 3
                        }
                    ]
                ], 
                [
                    93640, 
                    [
                        {
                            "pitch": 64, 
                            "t0": 93640, 
                            "v": 50, 
                            "dur": 383, 
                            "type": "note", 
                            "channel": 3
                        }
                    ]
                ], 
                [
                    93660, 
                    [
                        {
                            "pitch": 69, 
                            "t0": 93660, 
                            "v": 50, 
                            "dur": 370, 
                            "type": "note", 
                            "channel": 3
                        }
                    ]
                ], 
                [
                    93680, 
                    [
                        {
                            "pitch": 72, 
                            "t0": 93680, 
                            "v": 50, 
                            "dur": 362, 
                            "type": "note", 
                            "channel": 3
                        }
                    ]
                ], 
                [
                    93700, 
                    [
                        {
                            "pitch": 76, 
                            "t0": 93700, 
                            "v": 50, 
                            "dur": 378, 
                            "type": "note", 
                            "channel": 3
                        }
                    ]
                ], 
                [
                    94080, 
                    [
                        {
                            "pitch": 60, 
                            "t0": 94080, 
                            "v": 50, 
                            "dur": 407, 
                            "type": "note", 
                            "channel": 3
                        }
                    ]
                ], 
                [
                    94100, 
                    [
                        {
                            "pitch": 64, 
                            "t0": 94100, 
                            "v": 50, 
                            "dur": 392, 
                            "type": "note", 
                            "channel": 3
                        }
                    ]
                ], 
                [
                    94120, 
                    [
                        {
                            "pitch": 67, 
                            "t0": 94120, 
                            "v": 50, 
                            "dur": 433, 
                            "type": "note", 
                            "channel": 3
                        }
                    ]
                ], 
                [
                    94140, 
                    [
                        {
                            "pitch": 72, 
                            "t0": 94140, 
                            "v": 50, 
                            "dur": 432, 
                            "type": "note", 
                            "channel": 3
                        }
                    ]
                ], 
                [
                    94160, 
                    [
                        {
                            "pitch": 76, 
                            "t0": 94160, 
                            "v": 50, 
                            "dur": 410, 
                            "type": "note", 
                            "channel": 3
                        }
                    ]
                ], 
                [
                    94180, 
                    [
                        {
                            "pitch": 79, 
                            "t0": 94180, 
                            "v": 50, 
                            "dur": 440, 
                            "type": "note", 
                            "channel": 3
                        }
                    ]
                ], 
                [
                    94560, 
                    [
                        {
                            "pitch": 60, 
                            "t0": 94560, 
                            "v": 50, 
                            "dur": 407, 
                            "type": "note", 
                            "channel": 3
                        }
                    ]
                ], 
                [
                    94580, 
                    [
                        {
                            "pitch": 64, 
                            "t0": 94580, 
                            "v": 50, 
                            "dur": 392, 
                            "type": "note", 
                            "channel": 3
                        }
                    ]
                ], 
                [
                    94600, 
                    [
                        {
                            "pitch": 67, 
                            "t0": 94600, 
                            "v": 50, 
                            "dur": 433, 
                            "type": "note", 
                            "channel": 3
                        }
                    ]
                ], 
                [
                    94620, 
                    [
                        {
                            "pitch": 72, 
                            "t0": 94620, 
                            "v": 50, 
                            "dur": 432, 
                            "type": "note", 
                            "channel": 3
                        }
                    ]
                ], 
                [
                    94640, 
                    [
                        {
                            "pitch": 76, 
                            "t0": 94640, 
                            "v": 50, 
                            "dur": 410, 
                            "type": "note", 
                            "channel": 3
                        }
                    ]
                ], 
                [
                    94660, 
                    [
                        {
                            "pitch": 79, 
                            "t0": 94660, 
                            "v": 50, 
                            "dur": 440, 
                            "type": "note", 
                            "channel": 3
                        }
                    ]
                ], 
                [
                    95040, 
                    [
                        {
                            "pitch": 60, 
                            "t0": 95040, 
                            "v": 50, 
                            "dur": 313, 
                            "type": "note", 
                            "channel": 3
                        }
                    ]
                ], 
                [
                    95060, 
                    [
                        {
                            "pitch": 64, 
                            "t0": 95060, 
                            "v": 50, 
                            "dur": 363, 
                            "type": "note", 
                            "channel": 3
                        }
                    ]
                ], 
                [
                    95080, 
                    [
                        {
                            "pitch": 67, 
                            "t0": 95080, 
                            "v": 50, 
                            "dur": 368, 
                            "type": "note", 
                            "channel": 3
                        }
                    ]
                ], 
                [
                    95100, 
                    [
                        {
                            "pitch": 72, 
                            "t0": 95100, 
                            "v": 50, 
                            "dur": 381, 
                            "type": "note", 
                            "channel": 3
                        }
                    ]
                ], 
                [
                    95120, 
                    [
                        {
                            "pitch": 76, 
                            "t0": 95120, 
                            "v": 50, 
                            "dur": 337, 
                            "type": "note", 
                            "channel": 3
                        }
                    ]
                ], 
                [
                    95140, 
                    [
                        {
                            "pitch": 79, 
                            "t0": 95140, 
                            "v": 50, 
                            "dur": 307, 
                            "type": "note", 
                            "channel": 3
                        }
                    ]
                ], 
                [
                    95520, 
                    [
                        {
                            "pitch": 60, 
                            "t0": 95520, 
                            "v": 50, 
                            "dur": 313, 
                            "type": "note", 
                            "channel": 3
                        }
                    ]
                ], 
                [
                    95540, 
                    [
                        {
                            "pitch": 64, 
                            "t0": 95540, 
                            "v": 50, 
                            "dur": 363, 
                            "type": "note", 
                            "channel": 3
                        }
                    ]
                ], 
                [
                    95560, 
                    [
                        {
                            "pitch": 67, 
                            "t0": 95560, 
                            "v": 50, 
                            "dur": 368, 
                            "type": "note", 
                            "channel": 3
                        }
                    ]
                ], 
                [
                    95580, 
                    [
                        {
                            "pitch": 72, 
                            "t0": 95580, 
                            "v": 50, 
                            "dur": 381, 
                            "type": "note", 
                            "channel": 3
                        }
                    ]
                ], 
                [
                    95600, 
                    [
                        {
                            "pitch": 76, 
                            "t0": 95600, 
                            "v": 50, 
                            "dur": 337, 
                            "type": "note", 
                            "channel": 3
                        }
                    ]
                ], 
                [
                    95620, 
                    [
                        {
                            "pitch": 79, 
                            "t0": 95620, 
                            "v": 50, 
                            "dur": 307, 
                            "type": "note", 
                            "channel": 3
                        }
                    ]
                ], 
                [
                    96000, 
                    [
                        {
                            "pitch": 55, 
                            "t0": 96000, 
                            "parts": [
                                [
                                    96000, 
                                    50
                                ], 
                                [
                                    96480, 
                                    50
                                ], 
                                [
                                    96498, 
                                    0
                                ]
                            ], 
                            "v": 50, 
                            "dur": 498, 
                            "type": "note", 
                            "channel": 3
                        }
                    ]
                ], 
                [
                    96020, 
                    [
                        {
                            "pitch": 59, 
                            "t0": 96020, 
                            "parts": [
                                [
                                    96020, 
                                    50
                                ], 
                                [
                                    96500, 
                                    50
                                ], 
                                [
                                    96557, 
                                    0
                                ]
                            ], 
                            "v": 50, 
                            "dur": 537, 
                            "type": "note", 
                            "channel": 3
                        }
                    ]
                ], 
                [
                    96040, 
                    [
                        {
                            "pitch": 62, 
                            "t0": 96040, 
                            "parts": [
                                [
                                    96040, 
                                    50
                                ], 
                                [
                                    96520, 
                                    50
                                ], 
                                [
                                    96587, 
                                    0
                                ]
                            ], 
                            "v": 50, 
                            "dur": 547, 
                            "type": "note", 
                            "channel": 3
                        }
                    ]
                ], 
                [
                    96060, 
                    [
                        {
                            "pitch": 67, 
                            "t0": 96060, 
                            "parts": [
                                [
                                    96060, 
                                    50
                                ], 
                                [
                                    96540, 
                                    50
                                ], 
                                [
                                    96592, 
                                    0
                                ]
                            ], 
                            "v": 50, 
                            "dur": 532, 
                            "type": "note", 
                            "channel": 3
                        }
                    ]
                ], 
                [
                    96080, 
                    [
                        {
                            "pitch": 71, 
                            "t0": 96080, 
                            "parts": [
                                [
                                    96080, 
                                    50
                                ], 
                                [
                                    96560, 
                                    50
                                ], 
                                [
                                    96577, 
                                    0
                                ]
                            ], 
                            "v": 50, 
                            "dur": 497, 
                            "type": "note", 
                            "channel": 3
                        }
                    ]
                ], 
                [
                    96100, 
                    [
                        {
                            "pitch": 74, 
                            "t0": 96100, 
                            "parts": [
                                [
                                    96100, 
                                    50
                                ], 
                                [
                                    96580, 
                                    50
                                ], 
                                [
                                    96597, 
                                    0
                                ]
                            ], 
                            "v": 50, 
                            "dur": 497, 
                            "type": "note", 
                            "channel": 3
                        }
                    ]
                ], 
                [
                    96960, 
                    [
                        {
                            "pitch": 55, 
                            "t0": 96960, 
                            "v": 50, 
                            "dur": 18, 
                            "type": "note", 
                            "channel": 3
                        }
                    ]
                ], 
                [
                    96980, 
                    [
                        {
                            "pitch": 59, 
                            "t0": 96980, 
                            "v": 50, 
                            "dur": 57, 
                            "type": "note", 
                            "channel": 3
                        }
                    ]
                ], 
                [
                    97000, 
                    [
                        {
                            "pitch": 62, 
                            "t0": 97000, 
                            "v": 50, 
                            "dur": 67, 
                            "type": "note", 
                            "channel": 3
                        }
                    ]
                ], 
                [
                    97020, 
                    [
                        {
                            "pitch": 67, 
                            "t0": 97020, 
                            "v": 50, 
                            "dur": 52, 
                            "type": "note", 
                            "channel": 3
                        }
                    ]
                ], 
                [
                    97040, 
                    [
                        {
                            "pitch": 71, 
                            "t0": 97040, 
                            "v": 50, 
                            "dur": 17, 
                            "type": "note", 
                            "channel": 3
                        }
                    ]
                ], 
                [
                    97060, 
                    [
                        {
                            "pitch": 74, 
                            "t0": 97060, 
                            "v": 50, 
                            "dur": 17, 
                            "type": "note", 
                            "channel": 3
                        }
                    ]
                ], 
                [
                    97440, 
                    [
                        {
                            "pitch": 55, 
                            "t0": 97440, 
                            "v": 50, 
                            "dur": 445, 
                            "type": "note", 
                            "channel": 3
                        }
                    ]
                ], 
                [
                    97460, 
                    [
                        {
                            "pitch": 59, 
                            "t0": 97460, 
                            "v": 50, 
                            "dur": 2, 
                            "type": "note", 
                            "channel": 3
                        }
                    ]
                ], 
                [
                    97480, 
                    [
                        {
                            "pitch": 62, 
                            "t0": 97480, 
                            "v": 50, 
                            "dur": 26, 
                            "type": "note", 
                            "channel": 3
                        }
                    ]
                ], 
                [
                    97500, 
                    [
                        {
                            "pitch": 67, 
                            "t0": 97500, 
                            "v": 50, 
                            "dur": 445, 
                            "type": "note", 
                            "channel": 3
                        }
                    ]
                ], 
                [
                    97520, 
                    [
                        {
                            "pitch": 71, 
                            "t0": 97520, 
                            "v": 50, 
                            "dur": 450, 
                            "type": "note", 
                            "channel": 3
                        }
                    ]
                ], 
                [
                    97540, 
                    [
                        {
                            "pitch": 74, 
                            "t0": 97540, 
                            "v": 50, 
                            "dur": 461, 
                            "type": "note", 
                            "channel": 3
                        }
                    ]
                ], 
                [
                    97920, 
                    [
                        {
                            "pitch": 57, 
                            "t0": 97920, 
                            "parts": [
                                [
                                    97920, 
                                    50
                                ], 
                                [
                                    98400, 
                                    50
                                ], 
                                [
                                    98426, 
                                    0
                                ]
                            ], 
                            "v": 50, 
                            "dur": 506, 
                            "type": "note", 
                            "channel": 3
                        }
                    ]
                ], 
                [
                    97940, 
                    [
                        {
                            "pitch": 60, 
                            "t0": 97940, 
                            "parts": [
                                [
                                    97940, 
                                    50
                                ], 
                                [
                                    98420, 
                                    50
                                ], 
                                [
                                    98465, 
                                    0
                                ]
                            ], 
                            "v": 50, 
                            "dur": 525, 
                            "type": "note", 
                            "channel": 3
                        }
                    ]
                ], 
                [
                    97960, 
                    [
                        {
                            "pitch": 64, 
                            "t0": 97960, 
                            "parts": [
                                [
                                    97960, 
                                    50
                                ], 
                                [
                                    98440, 
                                    50
                                ], 
                                [
                                    98531, 
                                    0
                                ]
                            ], 
                            "v": 50, 
                            "dur": 571, 
                            "type": "note", 
                            "channel": 3
                        }
                    ]
                ], 
                [
                    97980, 
                    [
                        {
                            "pitch": 69, 
                            "t0": 97980, 
                            "parts": [
                                [
                                    97980, 
                                    50
                                ], 
                                [
                                    98460, 
                                    50
                                ], 
                                [
                                    98523, 
                                    0
                                ]
                            ], 
                            "v": 50, 
                            "dur": 543, 
                            "type": "note", 
                            "channel": 3
                        }
                    ]
                ], 
                [
                    98000, 
                    [
                        {
                            "pitch": 72, 
                            "t0": 98000, 
                            "parts": [
                                [
                                    98000, 
                                    50
                                ], 
                                [
                                    98480, 
                                    50
                                ], 
                                [
                                    98506, 
                                    0
                                ]
                            ], 
                            "v": 50, 
                            "dur": 506, 
                            "type": "note", 
                            "channel": 3
                        }
                    ]
                ], 
                [
                    98020, 
                    [
                        {
                            "pitch": 76, 
                            "t0": 98020, 
                            "v": 50, 
                            "dur": 416, 
                            "type": "note", 
                            "channel": 3
                        }
                    ]
                ], 
                [
                    98500, 
                    [
                        {
                            "pitch": 76, 
                            "t0": 98500, 
                            "v": 50, 
                            "dur": 416, 
                            "type": "note", 
                            "channel": 3
                        }
                    ]
                ], 
                [
                    98880, 
                    [
                        {
                            "pitch": 57, 
                            "t0": 98880, 
                            "v": 50, 
                            "dur": 26, 
                            "type": "note", 
                            "channel": 3
                        }
                    ]
                ], 
                [
                    98900, 
                    [
                        {
                            "pitch": 60, 
                            "t0": 98900, 
                            "v": 50, 
                            "dur": 45, 
                            "type": "note", 
                            "channel": 3
                        }
                    ]
                ], 
                [
                    98920, 
                    [
                        {
                            "pitch": 64, 
                            "t0": 98920, 
                            "v": 50, 
                            "dur": 91, 
                            "type": "note", 
                            "channel": 3
                        }
                    ]
                ], 
                [
                    98940, 
                    [
                        {
                            "pitch": 69, 
                            "t0": 98940, 
                            "v": 50, 
                            "dur": 63, 
                            "type": "note", 
                            "channel": 3
                        }
                    ]
                ], 
                [
                    98960, 
                    [
                        {
                            "pitch": 72, 
                            "t0": 98960, 
                            "v": 50, 
                            "dur": 26, 
                            "type": "note", 
                            "channel": 3
                        }
                    ]
                ], 
                [
                    98980, 
                    [
                        {
                            "pitch": 76, 
                            "t0": 98980, 
                            "v": 50, 
                            "dur": 322, 
                            "type": "note", 
                            "channel": 3
                        }
                    ]
                ], 
                [
                    99360, 
                    [
                        {
                            "pitch": 57, 
                            "t0": 99360, 
                            "v": 50, 
                            "dur": 376, 
                            "type": "note", 
                            "channel": 3
                        }
                    ]
                ], 
                [
                    99380, 
                    [
                        {
                            "pitch": 60, 
                            "t0": 99380, 
                            "v": 50, 
                            "dur": 377, 
                            "type": "note", 
                            "channel": 3
                        }
                    ]
                ], 
                [
                    99400, 
                    [
                        {
                            "pitch": 64, 
                            "t0": 99400, 
                            "v": 50, 
                            "dur": 360, 
                            "type": "note", 
                            "channel": 3
                        }
                    ]
                ], 
                [
                    99420, 
                    [
                        {
                            "pitch": 69, 
                            "t0": 99420, 
                            "v": 50, 
                            "dur": 395, 
                            "type": "note", 
                            "channel": 3
                        }
                    ]
                ], 
                [
                    99440, 
                    [
                        {
                            "pitch": 72, 
                            "t0": 99440, 
                            "v": 50, 
                            "dur": 340, 
                            "type": "note", 
                            "channel": 3
                        }
                    ]
                ], 
                [
                    99460, 
                    [
                        {
                            "pitch": 76, 
                            "t0": 99460, 
                            "v": 50, 
                            "dur": 322, 
                            "type": "note", 
                            "channel": 3
                        }
                    ]
                ], 
                [
                    99840, 
                    [
                        {
                            "pitch": 52, 
                            "t0": 99840, 
                            "v": 50, 
                            "dur": 455, 
                            "type": "note", 
                            "channel": 3
                        }
                    ]
                ], 
                [
                    99860, 
                    [
                        {
                            "pitch": 55, 
                            "t0": 99860, 
                            "v": 50, 
                            "dur": 478, 
                            "type": "note", 
                            "channel": 3
                        }
                    ]
                ], 
                [
                    99880, 
                    [
                        {
                            "pitch": 59, 
                            "t0": 99880, 
                            "parts": [
                                [
                                    99880, 
                                    50
                                ], 
                                [
                                    100360, 
                                    50
                                ], 
                                [
                                    100383, 
                                    0
                                ]
                            ], 
                            "v": 50, 
                            "dur": 503, 
                            "type": "note", 
                            "channel": 3
                        }
                    ]
                ], 
                [
                    99900, 
                    [
                        {
                            "pitch": 64, 
                            "t0": 99900, 
                            "v": 50, 
                            "dur": 445, 
                            "type": "note", 
                            "channel": 3
                        }
                    ]
                ], 
                [
                    99920, 
                    [
                        {
                            "pitch": 67, 
                            "t0": 99920, 
                            "v": 50, 
                            "dur": 455, 
                            "type": "note", 
                            "channel": 3
                        }
                    ]
                ], 
                [
                    99940, 
                    [
                        {
                            "pitch": 71, 
                            "t0": 99940, 
                            "v": 50, 
                            "dur": 403, 
                            "type": "note", 
                            "channel": 3
                        }
                    ]
                ], 
                [
                    100320, 
                    [
                        {
                            "pitch": 52, 
                            "t0": 100320, 
                            "v": 50, 
                            "dur": 455, 
                            "type": "note", 
                            "channel": 3
                        }
                    ]
                ], 
                [
                    100340, 
                    [
                        {
                            "pitch": 55, 
                            "t0": 100340, 
                            "v": 50, 
                            "dur": 478, 
                            "type": "note", 
                            "channel": 3
                        }
                    ]
                ], 
                [
                    100380, 
                    [
                        {
                            "pitch": 64, 
                            "t0": 100380, 
                            "v": 50, 
                            "dur": 445, 
                            "type": "note", 
                            "channel": 3
                        }
                    ]
                ], 
                [
                    100400, 
                    [
                        {
                            "pitch": 67, 
                            "t0": 100400, 
                            "v": 50, 
                            "dur": 455, 
                            "type": "note", 
                            "channel": 3
                        }
                    ]
                ], 
                [
                    100420, 
                    [
                        {
                            "pitch": 71, 
                            "t0": 100420, 
                            "v": 50, 
                            "dur": 403, 
                            "type": "note", 
                            "channel": 3
                        }
                    ]
                ], 
                [
                    100800, 
                    [
                        {
                            "pitch": 52, 
                            "t0": 100800, 
                            "parts": [
                                [
                                    100800, 
                                    50
                                ], 
                                [
                                    101280, 
                                    50
                                ], 
                                [
                                    101303, 
                                    0
                                ]
                            ], 
                            "v": 50, 
                            "dur": 503, 
                            "type": "note", 
                            "channel": 3
                        }
                    ]
                ], 
                [
                    100820, 
                    [
                        {
                            "pitch": 55, 
                            "t0": 100820, 
                            "parts": [
                                [
                                    100820, 
                                    50
                                ], 
                                [
                                    101300, 
                                    50
                                ], 
                                [
                                    101335, 
                                    0
                                ]
                            ], 
                            "v": 50, 
                            "dur": 515, 
                            "type": "note", 
                            "channel": 3
                        }
                    ]
                ], 
                [
                    100840, 
                    [
                        {
                            "pitch": 59, 
                            "t0": 100840, 
                            "v": 50, 
                            "dur": 23, 
                            "type": "note", 
                            "channel": 3
                        }
                    ]
                ], 
                [
                    100860, 
                    [
                        {
                            "pitch": 64, 
                            "t0": 100860, 
                            "v": 50, 
                            "dur": 460, 
                            "type": "note", 
                            "channel": 3
                        }
                    ]
                ], 
                [
                    100880, 
                    [
                        {
                            "pitch": 67, 
                            "t0": 100880, 
                            "v": 50, 
                            "dur": 438, 
                            "type": "note", 
                            "channel": 3
                        }
                    ]
                ], 
                [
                    100900, 
                    [
                        {
                            "pitch": 71, 
                            "t0": 100900, 
                            "v": 50, 
                            "dur": 465, 
                            "type": "note", 
                            "channel": 3
                        }
                    ]
                ], 
                [
                    101320, 
                    [
                        {
                            "pitch": 59, 
                            "t0": 101320, 
                            "v": 50, 
                            "dur": 48, 
                            "type": "note", 
                            "channel": 3
                        }
                    ]
                ], 
                [
                    101340, 
                    [
                        {
                            "pitch": 64, 
                            "t0": 101340, 
                            "v": 50, 
                            "dur": 460, 
                            "type": "note", 
                            "channel": 3
                        }
                    ]
                ], 
                [
                    101360, 
                    [
                        {
                            "pitch": 67, 
                            "t0": 101360, 
                            "v": 50, 
                            "dur": 438, 
                            "type": "note", 
                            "channel": 3
                        }
                    ]
                ], 
                [
                    101380, 
                    [
                        {
                            "pitch": 71, 
                            "t0": 101380, 
                            "v": 50, 
                            "dur": 465, 
                            "type": "note", 
                            "channel": 3
                        }
                    ]
                ], 
                [
                    101760, 
                    [
                        {
                            "pitch": 53, 
                            "t0": 101760, 
                            "v": 50, 
                            "dur": 375, 
                            "type": "note", 
                            "channel": 3
                        }
                    ]
                ], 
                [
                    101780, 
                    [
                        {
                            "pitch": 57, 
                            "t0": 101780, 
                            "v": 50, 
                            "dur": 403, 
                            "type": "note", 
                            "channel": 3
                        }
                    ]
                ], 
                [
                    101800, 
                    [
                        {
                            "pitch": 60, 
                            "t0": 101800, 
                            "v": 50, 
                            "dur": 421, 
                            "type": "note", 
                            "channel": 3
                        }
                    ]
                ], 
                [
                    101820, 
                    [
                        {
                            "pitch": 65, 
                            "t0": 101820, 
                            "v": 50, 
                            "dur": 345, 
                            "type": "note", 
                            "channel": 3
                        }
                    ]
                ], 
                [
                    101840, 
                    [
                        {
                            "pitch": 69, 
                            "t0": 101840, 
                            "v": 50, 
                            "dur": 365, 
                            "type": "note", 
                            "channel": 3
                        }
                    ]
                ], 
                [
                    101860, 
                    [
                        {
                            "pitch": 72, 
                            "t0": 101860, 
                            "v": 50, 
                            "dur": 378, 
                            "type": "note", 
                            "channel": 3
                        }
                    ]
                ], 
                [
                    102240, 
                    [
                        {
                            "pitch": 53, 
                            "t0": 102240, 
                            "v": 50, 
                            "dur": 375, 
                            "type": "note", 
                            "channel": 3
                        }
                    ]
                ], 
                [
                    102260, 
                    [
                        {
                            "pitch": 57, 
                            "t0": 102260, 
                            "v": 50, 
                            "dur": 403, 
                            "type": "note", 
                            "channel": 3
                        }
                    ]
                ], 
                [
                    102280, 
                    [
                        {
                            "pitch": 60, 
                            "t0": 102280, 
                            "v": 50, 
                            "dur": 421, 
                            "type": "note", 
                            "channel": 3
                        }
                    ]
                ], 
                [
                    102300, 
                    [
                        {
                            "pitch": 65, 
                            "t0": 102300, 
                            "v": 50, 
                            "dur": 345, 
                            "type": "note", 
                            "channel": 3
                        }
                    ]
                ], 
                [
                    102320, 
                    [
                        {
                            "pitch": 69, 
                            "t0": 102320, 
                            "v": 50, 
                            "dur": 365, 
                            "type": "note", 
                            "channel": 3
                        }
                    ]
                ], 
                [
                    102340, 
                    [
                        {
                            "pitch": 72, 
                            "t0": 102340, 
                            "v": 50, 
                            "dur": 378, 
                            "type": "note", 
                            "channel": 3
                        }
                    ]
                ], 
                [
                    102720, 
                    [
                        {
                            "pitch": 55, 
                            "t0": 102720, 
                            "v": 50, 
                            "dur": 433, 
                            "type": "note", 
                            "channel": 3
                        }
                    ]
                ], 
                [
                    102740, 
                    [
                        {
                            "pitch": 59, 
                            "t0": 102740, 
                            "v": 50, 
                            "dur": 388, 
                            "type": "note", 
                            "channel": 3
                        }
                    ]
                ], 
                [
                    102760, 
                    [
                        {
                            "pitch": 62, 
                            "t0": 102760, 
                            "v": 50, 
                            "dur": 470, 
                            "type": "note", 
                            "channel": 3
                        }
                    ]
                ], 
                [
                    102780, 
                    [
                        {
                            "pitch": 67, 
                            "t0": 102780, 
                            "v": 50, 
                            "dur": 381, 
                            "type": "note", 
                            "channel": 3
                        }
                    ]
                ], 
                [
                    102800, 
                    [
                        {
                            "pitch": 71, 
                            "t0": 102800, 
                            "v": 50, 
                            "dur": 397, 
                            "type": "note", 
                            "channel": 3
                        }
                    ]
                ], 
                [
                    102820, 
                    [
                        {
                            "pitch": 74, 
                            "t0": 102820, 
                            "v": 50, 
                            "dur": 373, 
                            "type": "note", 
                            "channel": 3
                        }
                    ]
                ], 
                [
                    103200, 
                    [
                        {
                            "pitch": 55, 
                            "t0": 103200, 
                            "v": 50, 
                            "dur": 433, 
                            "type": "note", 
                            "channel": 3
                        }
                    ]
                ], 
                [
                    103220, 
                    [
                        {
                            "pitch": 59, 
                            "t0": 103220, 
                            "v": 50, 
                            "dur": 388, 
                            "type": "note", 
                            "channel": 3
                        }
                    ]
                ], 
                [
                    103240, 
                    [
                        {
                            "pitch": 62, 
                            "t0": 103240, 
                            "v": 50, 
                            "dur": 470, 
                            "type": "note", 
                            "channel": 3
                        }
                    ]
                ], 
                [
                    103260, 
                    [
                        {
                            "pitch": 67, 
                            "t0": 103260, 
                            "v": 50, 
                            "dur": 381, 
                            "type": "note", 
                            "channel": 3
                        }
                    ]
                ], 
                [
                    103280, 
                    [
                        {
                            "pitch": 71, 
                            "t0": 103280, 
                            "v": 50, 
                            "dur": 397, 
                            "type": "note", 
                            "channel": 3
                        }
                    ]
                ], 
                [
                    103300, 
                    [
                        {
                            "pitch": 74, 
                            "t0": 103300, 
                            "v": 50, 
                            "dur": 373, 
                            "type": "note", 
                            "channel": 3
                        }
                    ]
                ], 
                [
                    103680, 
                    [
                        {
                            "pitch": 57, 
                            "t0": 103680, 
                            "parts": [
                                [
                                    103680, 
                                    50
                                ], 
                                [
                                    104160, 
                                    50
                                ], 
                                [
                                    104195, 
                                    0
                                ]
                            ], 
                            "v": 50, 
                            "dur": 515, 
                            "type": "note", 
                            "channel": 3
                        }
                    ]
                ], 
                [
                    103700, 
                    [
                        {
                            "pitch": 60, 
                            "t0": 103700, 
                            "parts": [
                                [
                                    103700, 
                                    50
                                ], 
                                [
                                    104180, 
                                    50
                                ], 
                                [
                                    104248, 
                                    0
                                ]
                            ], 
                            "v": 50, 
                            "dur": 548, 
                            "type": "note", 
                            "channel": 3
                        }
                    ]
                ], 
                [
                    103720, 
                    [
                        {
                            "pitch": 64, 
                            "t0": 103720, 
                            "parts": [
                                [
                                    103720, 
                                    50
                                ], 
                                [
                                    104200, 
                                    50
                                ], 
                                [
                                    104275, 
                                    0
                                ]
                            ], 
                            "v": 50, 
                            "dur": 555, 
                            "type": "note", 
                            "channel": 3
                        }
                    ]
                ], 
                [
                    103740, 
                    [
                        {
                            "pitch": 69, 
                            "t0": 103740, 
                            "parts": [
                                [
                                    103740, 
                                    50
                                ], 
                                [
                                    104220, 
                                    50
                                ], 
                                [
                                    104283, 
                                    0
                                ]
                            ], 
                            "v": 50, 
                            "dur": 543, 
                            "type": "note", 
                            "channel": 3
                        }
                    ]
                ], 
                [
                    103760, 
                    [
                        {
                            "pitch": 72, 
                            "t0": 103760, 
                            "parts": [
                                [
                                    103760, 
                                    50
                                ], 
                                [
                                    104240, 
                                    50
                                ], 
                                [
                                    104266, 
                                    0
                                ]
                            ], 
                            "v": 50, 
                            "dur": 506, 
                            "type": "note", 
                            "channel": 3
                        }
                    ]
                ], 
                [
                    103780, 
                    [
                        {
                            "pitch": 76, 
                            "t0": 103780, 
                            "parts": [
                                [
                                    103780, 
                                    50
                                ], 
                                [
                                    104260, 
                                    50
                                ], 
                                [
                                    104297, 
                                    0
                                ]
                            ], 
                            "v": 50, 
                            "dur": 517, 
                            "type": "note", 
                            "channel": 3
                        }
                    ]
                ], 
                [
                    104640, 
                    [
                        {
                            "pitch": 57, 
                            "t0": 104640, 
                            "v": 50, 
                            "dur": 35, 
                            "type": "note", 
                            "channel": 3
                        }
                    ]
                ], 
                [
                    104660, 
                    [
                        {
                            "pitch": 60, 
                            "t0": 104660, 
                            "v": 50, 
                            "dur": 68, 
                            "type": "note", 
                            "channel": 3
                        }
                    ]
                ], 
                [
                    104680, 
                    [
                        {
                            "pitch": 64, 
                            "t0": 104680, 
                            "v": 50, 
                            "dur": 75, 
                            "type": "note", 
                            "channel": 3
                        }
                    ]
                ], 
                [
                    104700, 
                    [
                        {
                            "pitch": 69, 
                            "t0": 104700, 
                            "v": 50, 
                            "dur": 63, 
                            "type": "note", 
                            "channel": 3
                        }
                    ]
                ], 
                [
                    104720, 
                    [
                        {
                            "pitch": 72, 
                            "t0": 104720, 
                            "v": 50, 
                            "dur": 26, 
                            "type": "note", 
                            "channel": 3
                        }
                    ]
                ], 
                [
                    104740, 
                    [
                        {
                            "pitch": 76, 
                            "t0": 104740, 
                            "v": 50, 
                            "dur": 37, 
                            "type": "note", 
                            "channel": 3
                        }
                    ]
                ], 
                [
                    105120, 
                    [
                        {
                            "pitch": 57, 
                            "t0": 105120, 
                            "v": 50, 
                            "dur": 62, 
                            "type": "note", 
                            "channel": 3
                        }
                    ]
                ], 
                [
                    105140, 
                    [
                        {
                            "pitch": 60, 
                            "t0": 105140, 
                            "v": 50, 
                            "dur": 88, 
                            "type": "note", 
                            "channel": 3
                        }
                    ]
                ], 
                [
                    105160, 
                    [
                        {
                            "pitch": 64, 
                            "t0": 105160, 
                            "v": 50, 
                            "dur": 122, 
                            "type": "note", 
                            "channel": 3
                        }
                    ]
                ], 
                [
                    105180, 
                    [
                        {
                            "pitch": 69, 
                            "t0": 105180, 
                            "v": 50, 
                            "dur": 66, 
                            "type": "note", 
                            "channel": 3
                        }
                    ]
                ], 
                [
                    105200, 
                    [
                        {
                            "pitch": 72, 
                            "t0": 105200, 
                            "v": 50, 
                            "dur": 68, 
                            "type": "note", 
                            "channel": 3
                        }
                    ]
                ], 
                [
                    105220, 
                    [
                        {
                            "pitch": 76, 
                            "t0": 105220, 
                            "v": 50, 
                            "dur": 70, 
                            "type": "note", 
                            "channel": 3
                        }
                    ]
                ], 
                [
                    105600, 
                    [
                        {
                            "pitch": 60, 
                            "t0": 105600, 
                            "v": 50, 
                            "dur": 108, 
                            "type": "note", 
                            "channel": 3
                        }
                    ]
                ], 
                [
                    105620, 
                    [
                        {
                            "pitch": 64, 
                            "t0": 105620, 
                            "v": 50, 
                            "dur": 142, 
                            "type": "note", 
                            "channel": 3
                        }
                    ]
                ], 
                [
                    105640, 
                    [
                        {
                            "pitch": 67, 
                            "t0": 105640, 
                            "v": 50, 
                            "dur": 430, 
                            "type": "note", 
                            "channel": 3
                        }
                    ]
                ], 
                [
                    105660, 
                    [
                        {
                            "pitch": 72, 
                            "t0": 105660, 
                            "v": 50, 
                            "dur": 88, 
                            "type": "note", 
                            "channel": 3
                        }
                    ]
                ], 
                [
                    105680, 
                    [
                        {
                            "pitch": 76, 
                            "t0": 105680, 
                            "v": 50, 
                            "dur": 90, 
                            "type": "note", 
                            "channel": 3
                        }
                    ]
                ], 
                [
                    105700, 
                    [
                        {
                            "pitch": 79, 
                            "t0": 105700, 
                            "v": 50, 
                            "dur": 403, 
                            "type": "note", 
                            "channel": 3
                        }
                    ]
                ], 
                [
                    106080, 
                    [
                        {
                            "pitch": 60, 
                            "t0": 106080, 
                            "v": 50, 
                            "dur": 401, 
                            "type": "note", 
                            "channel": 3
                        }
                    ]
                ], 
                [
                    106100, 
                    [
                        {
                            "pitch": 64, 
                            "t0": 106100, 
                            "v": 50, 
                            "dur": 432, 
                            "type": "note", 
                            "channel": 3
                        }
                    ]
                ], 
                [
                    106120, 
                    [
                        {
                            "pitch": 67, 
                            "t0": 106120, 
                            "v": 50, 
                            "dur": 430, 
                            "type": "note", 
                            "channel": 3
                        }
                    ]
                ], 
                [
                    106140, 
                    [
                        {
                            "pitch": 72, 
                            "t0": 106140, 
                            "v": 50, 
                            "dur": 453, 
                            "type": "note", 
                            "channel": 3
                        }
                    ]
                ], 
                [
                    106160, 
                    [
                        {
                            "pitch": 76, 
                            "t0": 106160, 
                            "v": 50, 
                            "dur": 402, 
                            "type": "note", 
                            "channel": 3
                        }
                    ]
                ], 
                [
                    106180, 
                    [
                        {
                            "pitch": 79, 
                            "t0": 106180, 
                            "v": 50, 
                            "dur": 403, 
                            "type": "note", 
                            "channel": 3
                        }
                    ]
                ], 
                [
                    106560, 
                    [
                        {
                            "pitch": 55, 
                            "t0": 106560, 
                            "v": 50, 
                            "dur": 393, 
                            "type": "note", 
                            "channel": 3
                        }
                    ]
                ], 
                [
                    106580, 
                    [
                        {
                            "pitch": 59, 
                            "t0": 106580, 
                            "v": 50, 
                            "dur": 440, 
                            "type": "note", 
                            "channel": 3
                        }
                    ]
                ], 
                [
                    106600, 
                    [
                        {
                            "pitch": 62, 
                            "t0": 106600, 
                            "v": 50, 
                            "dur": 467, 
                            "type": "note", 
                            "channel": 3
                        }
                    ]
                ], 
                [
                    106620, 
                    [
                        {
                            "pitch": 67, 
                            "t0": 106620, 
                            "v": 50, 
                            "dur": 410, 
                            "type": "note", 
                            "channel": 3
                        }
                    ]
                ], 
                [
                    106640, 
                    [
                        {
                            "pitch": 71, 
                            "t0": 106640, 
                            "v": 50, 
                            "dur": 387, 
                            "type": "note", 
                            "channel": 3
                        }
                    ]
                ], 
                [
                    106660, 
                    [
                        {
                            "pitch": 74, 
                            "t0": 106660, 
                            "v": 50, 
                            "dur": 370, 
                            "type": "note", 
                            "channel": 3
                        }
                    ]
                ], 
                [
                    107040, 
                    [
                        {
                            "pitch": 55, 
                            "t0": 107040, 
                            "v": 50, 
                            "dur": 393, 
                            "type": "note", 
                            "channel": 3
                        }
                    ]
                ], 
                [
                    107060, 
                    [
                        {
                            "pitch": 59, 
                            "t0": 107060, 
                            "v": 50, 
                            "dur": 440, 
                            "type": "note", 
                            "channel": 3
                        }
                    ]
                ], 
                [
                    107080, 
                    [
                        {
                            "pitch": 62, 
                            "t0": 107080, 
                            "v": 50, 
                            "dur": 467, 
                            "type": "note", 
                            "channel": 3
                        }
                    ]
                ], 
                [
                    107100, 
                    [
                        {
                            "pitch": 67, 
                            "t0": 107100, 
                            "v": 50, 
                            "dur": 410, 
                            "type": "note", 
                            "channel": 3
                        }
                    ]
                ], 
                [
                    107120, 
                    [
                        {
                            "pitch": 71, 
                            "t0": 107120, 
                            "v": 50, 
                            "dur": 387, 
                            "type": "note", 
                            "channel": 3
                        }
                    ]
                ], 
                [
                    107140, 
                    [
                        {
                            "pitch": 74, 
                            "t0": 107140, 
                            "v": 50, 
                            "dur": 370, 
                            "type": "note", 
                            "channel": 3
                        }
                    ]
                ], 
                [
                    107520, 
                    [
                        {
                            "pitch": 57, 
                            "t0": 107520, 
                            "v": 50, 
                            "dur": 305, 
                            "type": "note", 
                            "channel": 3
                        }
                    ]
                ], 
                [
                    107540, 
                    [
                        {
                            "pitch": 60, 
                            "t0": 107540, 
                            "v": 50, 
                            "dur": 317, 
                            "type": "note", 
                            "channel": 3
                        }
                    ]
                ], 
                [
                    107560, 
                    [
                        {
                            "pitch": 64, 
                            "t0": 107560, 
                            "v": 50, 
                            "dur": 322, 
                            "type": "note", 
                            "channel": 3
                        }
                    ]
                ], 
                [
                    107580, 
                    [
                        {
                            "pitch": 69, 
                            "t0": 107580, 
                            "v": 50, 
                            "dur": 346, 
                            "type": "note", 
                            "channel": 3
                        }
                    ]
                ], 
                [
                    107600, 
                    [
                        {
                            "pitch": 72, 
                            "t0": 107600, 
                            "v": 50, 
                            "dur": 321, 
                            "type": "note", 
                            "channel": 3
                        }
                    ]
                ], 
                [
                    107620, 
                    [
                        {
                            "pitch": 76, 
                            "t0": 107620, 
                            "v": 50, 
                            "dur": 305, 
                            "type": "note", 
                            "channel": 3
                        }
                    ]
                ], 
                [
                    108000, 
                    [
                        {
                            "pitch": 57, 
                            "t0": 108000, 
                            "v": 50, 
                            "dur": 305, 
                            "type": "note", 
                            "channel": 3
                        }
                    ]
                ], 
                [
                    108020, 
                    [
                        {
                            "pitch": 60, 
                            "t0": 108020, 
                            "v": 50, 
                            "dur": 317, 
                            "type": "note", 
                            "channel": 3
                        }
                    ]
                ], 
                [
                    108040, 
                    [
                        {
                            "pitch": 64, 
                            "t0": 108040, 
                            "v": 50, 
                            "dur": 322, 
                            "type": "note", 
                            "channel": 3
                        }
                    ]
                ], 
                [
                    108060, 
                    [
                        {
                            "pitch": 69, 
                            "t0": 108060, 
                            "v": 50, 
                            "dur": 346, 
                            "type": "note", 
                            "channel": 3
                        }
                    ]
                ], 
                [
                    108080, 
                    [
                        {
                            "pitch": 72, 
                            "t0": 108080, 
                            "v": 50, 
                            "dur": 321, 
                            "type": "note", 
                            "channel": 3
                        }
                    ]
                ], 
                [
                    108100, 
                    [
                        {
                            "pitch": 76, 
                            "t0": 108100, 
                            "v": 50, 
                            "dur": 305, 
                            "type": "note", 
                            "channel": 3
                        }
                    ]
                ], 
                [
                    108480, 
                    [
                        {
                            "pitch": 52, 
                            "t0": 108480, 
                            "v": 50, 
                            "dur": 426, 
                            "type": "note", 
                            "channel": 3
                        }
                    ]
                ], 
                [
                    108500, 
                    [
                        {
                            "pitch": 55, 
                            "t0": 108500, 
                            "v": 50, 
                            "dur": 462, 
                            "type": "note", 
                            "channel": 3
                        }
                    ]
                ], 
                [
                    108520, 
                    [
                        {
                            "pitch": 59, 
                            "t0": 108520, 
                            "v": 50, 
                            "dur": 475, 
                            "type": "note", 
                            "channel": 3
                        }
                    ]
                ], 
                [
                    108540, 
                    [
                        {
                            "pitch": 64, 
                            "t0": 108540, 
                            "v": 50, 
                            "dur": 375, 
                            "type": "note", 
                            "channel": 3
                        }
                    ]
                ], 
                [
                    108560, 
                    [
                        {
                            "pitch": 67, 
                            "t0": 108560, 
                            "v": 50, 
                            "dur": 411, 
                            "type": "note", 
                            "channel": 3
                        }
                    ]
                ], 
                [
                    108580, 
                    [
                        {
                            "pitch": 71, 
                            "t0": 108580, 
                            "v": 50, 
                            "dur": 387, 
                            "type": "note", 
                            "channel": 3
                        }
                    ]
                ], 
                [
                    108960, 
                    [
                        {
                            "pitch": 52, 
                            "t0": 108960, 
                            "v": 50, 
                            "dur": 426, 
                            "type": "note", 
                            "channel": 3
                        }
                    ]
                ], 
                [
                    108980, 
                    [
                        {
                            "pitch": 55, 
                            "t0": 108980, 
                            "v": 50, 
                            "dur": 462, 
                            "type": "note", 
                            "channel": 3
                        }
                    ]
                ], 
                [
                    109000, 
                    [
                        {
                            "pitch": 59, 
                            "t0": 109000, 
                            "v": 50, 
                            "dur": 475, 
                            "type": "note", 
                            "channel": 3
                        }
                    ]
                ], 
                [
                    109020, 
                    [
                        {
                            "pitch": 64, 
                            "t0": 109020, 
                            "v": 50, 
                            "dur": 375, 
                            "type": "note", 
                            "channel": 3
                        }
                    ]
                ], 
                [
                    109040, 
                    [
                        {
                            "pitch": 67, 
                            "t0": 109040, 
                            "v": 50, 
                            "dur": 411, 
                            "type": "note", 
                            "channel": 3
                        }
                    ]
                ], 
                [
                    109060, 
                    [
                        {
                            "pitch": 71, 
                            "t0": 109060, 
                            "v": 50, 
                            "dur": 387, 
                            "type": "note", 
                            "channel": 3
                        }
                    ]
                ], 
                [
                    109440, 
                    [
                        {
                            "pitch": 53, 
                            "t0": 109440, 
                            "v": 50, 
                            "dur": 395, 
                            "type": "note", 
                            "channel": 3
                        }
                    ]
                ], 
                [
                    109460, 
                    [
                        {
                            "pitch": 57, 
                            "t0": 109460, 
                            "v": 50, 
                            "dur": 457, 
                            "type": "note", 
                            "channel": 3
                        }
                    ]
                ], 
                [
                    109480, 
                    [
                        {
                            "pitch": 60, 
                            "t0": 109480, 
                            "v": 50, 
                            "dur": 463, 
                            "type": "note", 
                            "channel": 3
                        }
                    ]
                ], 
                [
                    109500, 
                    [
                        {
                            "pitch": 65, 
                            "t0": 109500, 
                            "v": 50, 
                            "dur": 416, 
                            "type": "note", 
                            "channel": 3
                        }
                    ]
                ], 
                [
                    109520, 
                    [
                        {
                            "pitch": 69, 
                            "t0": 109520, 
                            "v": 50, 
                            "dur": 400, 
                            "type": "note", 
                            "channel": 3
                        }
                    ]
                ], 
                [
                    109540, 
                    [
                        {
                            "pitch": 72, 
                            "t0": 109540, 
                            "v": 50, 
                            "dur": 423, 
                            "type": "note", 
                            "channel": 3
                        }
                    ]
                ], 
                [
                    109920, 
                    [
                        {
                            "pitch": 53, 
                            "t0": 109920, 
                            "v": 50, 
                            "dur": 395, 
                            "type": "note", 
                            "channel": 3
                        }
                    ]
                ], 
                [
                    109940, 
                    [
                        {
                            "pitch": 57, 
                            "t0": 109940, 
                            "v": 50, 
                            "dur": 457, 
                            "type": "note", 
                            "channel": 3
                        }
                    ]
                ], 
                [
                    109960, 
                    [
                        {
                            "pitch": 60, 
                            "t0": 109960, 
                            "v": 50, 
                            "dur": 463, 
                            "type": "note", 
                            "channel": 3
                        }
                    ]
                ], 
                [
                    109980, 
                    [
                        {
                            "pitch": 65, 
                            "t0": 109980, 
                            "v": 50, 
                            "dur": 416, 
                            "type": "note", 
                            "channel": 3
                        }
                    ]
                ], 
                [
                    110000, 
                    [
                        {
                            "pitch": 69, 
                            "t0": 110000, 
                            "v": 50, 
                            "dur": 400, 
                            "type": "note", 
                            "channel": 3
                        }
                    ]
                ], 
                [
                    110020, 
                    [
                        {
                            "pitch": 72, 
                            "t0": 110020, 
                            "v": 50, 
                            "dur": 423, 
                            "type": "note", 
                            "channel": 3
                        }
                    ]
                ], 
                [
                    110400, 
                    [
                        {
                            "pitch": 55, 
                            "t0": 110400, 
                            "v": 50, 
                            "dur": 455, 
                            "type": "note", 
                            "channel": 3
                        }
                    ]
                ], 
                [
                    110420, 
                    [
                        {
                            "pitch": 59, 
                            "t0": 110420, 
                            "v": 50, 
                            "dur": 468, 
                            "type": "note", 
                            "channel": 3
                        }
                    ]
                ], 
                [
                    110440, 
                    [
                        {
                            "pitch": 62, 
                            "t0": 110440, 
                            "parts": [
                                [
                                    110440, 
                                    50
                                ], 
                                [
                                    110920, 
                                    50
                                ], 
                                [
                                    110952, 
                                    0
                                ]
                            ], 
                            "v": 50, 
                            "dur": 512, 
                            "type": "note", 
                            "channel": 3
                        }
                    ]
                ], 
                [
                    110460, 
                    [
                        {
                            "pitch": 67, 
                            "t0": 110460, 
                            "v": 50, 
                            "dur": 443, 
                            "type": "note", 
                            "channel": 3
                        }
                    ]
                ], 
                [
                    110480, 
                    [
                        {
                            "pitch": 71, 
                            "t0": 110480, 
                            "v": 50, 
                            "dur": 377, 
                            "type": "note", 
                            "channel": 3
                        }
                    ]
                ], 
                [
                    110500, 
                    [
                        {
                            "pitch": 74, 
                            "t0": 110500, 
                            "v": 50, 
                            "dur": 461, 
                            "type": "note", 
                            "channel": 3
                        }
                    ]
                ], 
                [
                    110880, 
                    [
                        {
                            "pitch": 55, 
                            "t0": 110880, 
                            "v": 50, 
                            "dur": 455, 
                            "type": "note", 
                            "channel": 3
                        }
                    ]
                ], 
                [
                    110900, 
                    [
                        {
                            "pitch": 59, 
                            "t0": 110900, 
                            "v": 50, 
                            "dur": 468, 
                            "type": "note", 
                            "channel": 3
                        }
                    ]
                ], 
                [
                    110940, 
                    [
                        {
                            "pitch": 67, 
                            "t0": 110940, 
                            "v": 50, 
                            "dur": 443, 
                            "type": "note", 
                            "channel": 3
                        }
                    ]
                ], 
                [
                    110960, 
                    [
                        {
                            "pitch": 71, 
                            "t0": 110960, 
                            "v": 50, 
                            "dur": 377, 
                            "type": "note", 
                            "channel": 3
                        }
                    ]
                ], 
                [
                    110980, 
                    [
                        {
                            "pitch": 74, 
                            "t0": 110980, 
                            "v": 50, 
                            "dur": 461, 
                            "type": "note", 
                            "channel": 3
                        }
                    ]
                ], 
                [
                    111360, 
                    [
                        {
                            "pitch": 57, 
                            "t0": 111360, 
                            "v": 50, 
                            "dur": 420, 
                            "type": "note", 
                            "channel": 3
                        }
                    ]
                ], 
                [
                    111380, 
                    [
                        {
                            "pitch": 60, 
                            "t0": 111380, 
                            "v": 50, 
                            "dur": 436, 
                            "type": "note", 
                            "channel": 3
                        }
                    ]
                ], 
                [
                    111400, 
                    [
                        {
                            "pitch": 64, 
                            "t0": 111400, 
                            "v": 50, 
                            "dur": 450, 
                            "type": "note", 
                            "channel": 3
                        }
                    ]
                ], 
                [
                    111420, 
                    [
                        {
                            "pitch": 69, 
                            "t0": 111420, 
                            "parts": [
                                [
                                    111420, 
                                    50
                                ], 
                                [
                                    111900, 
                                    50
                                ], 
                                [
                                    111908, 
                                    0
                                ]
                            ], 
                            "v": 50, 
                            "dur": 488, 
                            "type": "note", 
                            "channel": 3
                        }
                    ]
                ], 
                [
                    111440, 
                    [
                        {
                            "pitch": 72, 
                            "t0": 111440, 
                            "v": 50, 
                            "dur": 406, 
                            "type": "note", 
                            "channel": 3
                        }
                    ]
                ], 
                [
                    111460, 
                    [
                        {
                            "pitch": 76, 
                            "t0": 111460, 
                            "v": 50, 
                            "dur": 405, 
                            "type": "note", 
                            "channel": 3
                        }
                    ]
                ], 
                [
                    111840, 
                    [
                        {
                            "pitch": 57, 
                            "t0": 111840, 
                            "v": 50, 
                            "dur": 420, 
                            "type": "note", 
                            "channel": 3
                        }
                    ]
                ], 
                [
                    111860, 
                    [
                        {
                            "pitch": 60, 
                            "t0": 111860, 
                            "v": 50, 
                            "dur": 436, 
                            "type": "note", 
                            "channel": 3
                        }
                    ]
                ], 
                [
                    111880, 
                    [
                        {
                            "pitch": 64, 
                            "t0": 111880, 
                            "v": 50, 
                            "dur": 450, 
                            "type": "note", 
                            "channel": 3
                        }
                    ]
                ], 
                [
                    111920, 
                    [
                        {
                            "pitch": 72, 
                            "t0": 111920, 
                            "v": 50, 
                            "dur": 406, 
                            "type": "note", 
                            "channel": 3
                        }
                    ]
                ], 
                [
                    111940, 
                    [
                        {
                            "pitch": 76, 
                            "t0": 111940, 
                            "v": 50, 
                            "dur": 405, 
                            "type": "note", 
                            "channel": 3
                        }
                    ]
                ], 
                [
                    112320, 
                    [
                        {
                            "pitch": 57, 
                            "t0": 112320, 
                            "v": 50, 
                            "dur": 365, 
                            "type": "note", 
                            "channel": 3
                        }
                    ]
                ], 
                [
                    112340, 
                    [
                        {
                            "pitch": 60, 
                            "t0": 112340, 
                            "v": 50, 
                            "dur": 368, 
                            "type": "note", 
                            "channel": 3
                        }
                    ]
                ], 
                [
                    112360, 
                    [
                        {
                            "pitch": 64, 
                            "t0": 112360, 
                            "v": 50, 
                            "dur": 383, 
                            "type": "note", 
                            "channel": 3
                        }
                    ]
                ], 
                [
                    112380, 
                    [
                        {
                            "pitch": 69, 
                            "t0": 112380, 
                            "v": 50, 
                            "dur": 8, 
                            "type": "note", 
                            "channel": 3
                        }
                    ]
                ], 
                [
                    112400, 
                    [
                        {
                            "pitch": 72, 
                            "t0": 112400, 
                            "v": 50, 
                            "dur": 362, 
                            "type": "note", 
                            "channel": 3
                        }
                    ]
                ], 
                [
                    112420, 
                    [
                        {
                            "pitch": 76, 
                            "t0": 112420, 
                            "v": 50, 
                            "dur": 378, 
                            "type": "note", 
                            "channel": 3
                        }
                    ]
                ], 
                [
                    112800, 
                    [
                        {
                            "pitch": 57, 
                            "t0": 112800, 
                            "v": 50, 
                            "dur": 365, 
                            "type": "note", 
                            "channel": 3
                        }
                    ]
                ], 
                [
                    112820, 
                    [
                        {
                            "pitch": 60, 
                            "t0": 112820, 
                            "v": 50, 
                            "dur": 368, 
                            "type": "note", 
                            "channel": 3
                        }
                    ]
                ], 
                [
                    112840, 
                    [
                        {
                            "pitch": 64, 
                            "t0": 112840, 
                            "v": 50, 
                            "dur": 383, 
                            "type": "note", 
                            "channel": 3
                        }
                    ]
                ], 
                [
                    112860, 
                    [
                        {
                            "pitch": 69, 
                            "t0": 112860, 
                            "v": 50, 
                            "dur": 370, 
                            "type": "note", 
                            "channel": 3
                        }
                    ]
                ], 
                [
                    112880, 
                    [
                        {
                            "pitch": 72, 
                            "t0": 112880, 
                            "v": 50, 
                            "dur": 362, 
                            "type": "note", 
                            "channel": 3
                        }
                    ]
                ], 
                [
                    112900, 
                    [
                        {
                            "pitch": 76, 
                            "t0": 112900, 
                            "v": 50, 
                            "dur": 378, 
                            "type": "note", 
                            "channel": 3
                        }
                    ]
                ], 
                [
                    113280, 
                    [
                        {
                            "pitch": 52, 
                            "t0": 113280, 
                            "v": 60, 
                            "dur": 903, 
                            "type": "note", 
                            "channel": 3
                        }
                    ]
                ], 
                [
                    113325, 
                    [
                        {
                            "pitch": 57, 
                            "t0": 113325, 
                            "v": 60, 
                            "dur": 817, 
                            "type": "note", 
                            "channel": 3
                        }
                    ]
                ], 
                [
                    113370, 
                    [
                        {
                            "pitch": 60, 
                            "t0": 113370, 
                            "v": 60, 
                            "dur": 873, 
                            "type": "note", 
                            "channel": 3
                        }
                    ]
                ], 
                [
                    113415, 
                    [
                        {
                            "pitch": 64, 
                            "t0": 113415, 
                            "v": 60, 
                            "dur": 1013, 
                            "type": "note", 
                            "channel": 3
                        }
                    ]
                ], 
                [
                    113460, 
                    [
                        {
                            "pitch": 69, 
                            "t0": 113460, 
                            "v": 60, 
                            "dur": 880, 
                            "type": "note", 
                            "channel": 3
                        }
                    ]
                ], 
                [
                    113505, 
                    [
                        {
                            "pitch": 72, 
                            "t0": 113505, 
                            "v": 60, 
                            "dur": 941, 
                            "type": "note", 
                            "channel": 3
                        }
                    ]
                ], 
                [
                    117120, 
                    [
                        {
                            "pitch": 52, 
                            "t0": 117120, 
                            "v": 60, 
                            "dur": 1155, 
                            "type": "note", 
                            "channel": 3
                        }
                    ]
                ], 
                [
                    117165, 
                    [
                        {
                            "pitch": 55, 
                            "t0": 117165, 
                            "v": 60, 
                            "dur": 1210, 
                            "type": "note", 
                            "channel": 3
                        }
                    ]
                ], 
                [
                    117210, 
                    [
                        {
                            "pitch": 59, 
                            "t0": 117210, 
                            "v": 60, 
                            "dur": 1213, 
                            "type": "note", 
                            "channel": 3
                        }
                    ]
                ], 
                [
                    117255, 
                    [
                        {
                            "pitch": 64, 
                            "t0": 117255, 
                            "v": 60, 
                            "dur": 1167, 
                            "type": "note", 
                            "channel": 3
                        }
                    ]
                ], 
                [
                    117300, 
                    [
                        {
                            "pitch": 67, 
                            "t0": 117300, 
                            "v": 60, 
                            "dur": 1213, 
                            "type": "note", 
                            "channel": 3
                        }
                    ]
                ], 
                [
                    117345, 
                    [
                        {
                            "pitch": 71, 
                            "t0": 117345, 
                            "v": 60, 
                            "dur": 1256, 
                            "type": "note", 
                            "channel": 3
                        }
                    ]
                ], 
                [
                    120960, 
                    [
                        {
                            "pitch": 52, 
                            "t0": 120960, 
                            "v": 60, 
                            "dur": 1476, 
                            "type": "note", 
                            "channel": 3
                        }
                    ]
                ], 
                [
                    121005, 
                    [
                        {
                            "pitch": 57, 
                            "t0": 121005, 
                            "v": 60, 
                            "dur": 1448, 
                            "type": "note", 
                            "channel": 3
                        }
                    ]
                ], 
                [
                    121050, 
                    [
                        {
                            "pitch": 60, 
                            "t0": 121050, 
                            "v": 60, 
                            "dur": 1466, 
                            "type": "note", 
                            "channel": 3
                        }
                    ]
                ], 
                [
                    121095, 
                    [
                        {
                            "pitch": 64, 
                            "t0": 121095, 
                            "v": 60, 
                            "dur": 1337, 
                            "type": "note", 
                            "channel": 3
                        }
                    ]
                ], 
                [
                    121140, 
                    [
                        {
                            "pitch": 69, 
                            "t0": 121140, 
                            "v": 60, 
                            "dur": 1398, 
                            "type": "note", 
                            "channel": 3
                        }
                    ]
                ], 
                [
                    121185, 
                    [
                        {
                            "pitch": 72, 
                            "t0": 121185, 
                            "v": 60, 
                            "dur": 1540, 
                            "type": "note", 
                            "channel": 3
                        }
                    ]
                ], 
                [
                    124800, 
                    [
                        {
                            "pitch": 52, 
                            "t0": 124800, 
                            "v": 60, 
                            "dur": 1253, 
                            "type": "note", 
                            "channel": 3
                        }
                    ]
                ], 
                [
                    124845, 
                    [
                        {
                            "pitch": 55, 
                            "t0": 124845, 
                            "v": 60, 
                            "dur": 1293, 
                            "type": "note", 
                            "channel": 3
                        }
                    ]
                ], 
                [
                    124890, 
                    [
                        {
                            "pitch": 59, 
                            "t0": 124890, 
                            "v": 60, 
                            "dur": 1227, 
                            "type": "note", 
                            "channel": 3
                        }
                    ]
                ], 
                [
                    124935, 
                    [
                        {
                            "pitch": 64, 
                            "t0": 124935, 
                            "v": 60, 
                            "dur": 1257, 
                            "type": "note", 
                            "channel": 3
                        }
                    ]
                ], 
                [
                    124980, 
                    [
                        {
                            "pitch": 67, 
                            "t0": 124980, 
                            "v": 60, 
                            "dur": 1255, 
                            "type": "note", 
                            "channel": 3
                        }
                    ]
                ], 
                [
                    125025, 
                    [
                        {
                            "pitch": 71, 
                            "t0": 125025, 
                            "v": 60, 
                            "dur": 1337, 
                            "type": "note", 
                            "channel": 3
                        }
                    ]
                ], 
                [
                    128640, 
                    [
                        {
                            "pitch": 48, 
                            "t0": 128640, 
                            "v": 60, 
                            "dur": 1553, 
                            "type": "note", 
                            "channel": 3
                        }
                    ]
                ], 
                [
                    128685, 
                    [
                        {
                            "pitch": 53, 
                            "t0": 128685, 
                            "v": 60, 
                            "dur": 1547, 
                            "type": "note", 
                            "channel": 3
                        }
                    ]
                ], 
                [
                    128730, 
                    [
                        {
                            "pitch": 57, 
                            "t0": 128730, 
                            "v": 60, 
                            "dur": 1497, 
                            "type": "note", 
                            "channel": 3
                        }
                    ]
                ], 
                [
                    128775, 
                    [
                        {
                            "pitch": 60, 
                            "t0": 128775, 
                            "v": 60, 
                            "dur": 1575, 
                            "type": "note", 
                            "channel": 3
                        }
                    ]
                ], 
                [
                    128820, 
                    [
                        {
                            "pitch": 65, 
                            "t0": 128820, 
                            "v": 60, 
                            "dur": 1556, 
                            "type": "note", 
                            "channel": 3
                        }
                    ]
                ], 
                [
                    128865, 
                    [
                        {
                            "pitch": 69, 
                            "t0": 128865, 
                            "v": 60, 
                            "dur": 1583, 
                            "type": "note", 
                            "channel": 3
                        }
                    ]
                ], 
                [
                    132480, 
                    [
                        {
                            "pitch": 45, 
                            "t0": 132480, 
                            "v": 60, 
                            "dur": 962, 
                            "type": "note", 
                            "channel": 3
                        }
                    ]
                ], 
                [
                    132525, 
                    [
                        {
                            "pitch": 48, 
                            "t0": 132525, 
                            "v": 60, 
                            "dur": 1013, 
                            "type": "note", 
                            "channel": 3
                        }
                    ]
                ], 
                [
                    132570, 
                    [
                        {
                            "pitch": 52, 
                            "t0": 132570, 
                            "v": 60, 
                            "dur": 1003, 
                            "type": "note", 
                            "channel": 3
                        }
                    ]
                ], 
                [
                    132615, 
                    [
                        {
                            "pitch": 57, 
                            "t0": 132615, 
                            "v": 60, 
                            "dur": 986, 
                            "type": "note", 
                            "channel": 3
                        }
                    ]
                ], 
                [
                    132660, 
                    [
                        {
                            "pitch": 60, 
                            "t0": 132660, 
                            "v": 60, 
                            "dur": 965, 
                            "type": "note", 
                            "channel": 3
                        }
                    ]
                ], 
                [
                    132705, 
                    [
                        {
                            "pitch": 64, 
                            "t0": 132705, 
                            "v": 60, 
                            "dur": 1017, 
                            "type": "note", 
                            "channel": 3
                        }
                    ]
                ], 
                [
                    136320, 
                    [
                        {
                            "pitch": 53, 
                            "t0": 136320, 
                            "v": 60, 
                            "dur": 1627, 
                            "type": "note", 
                            "channel": 3
                        }
                    ]
                ], 
                [
                    136365, 
                    [
                        {
                            "pitch": 57, 
                            "t0": 136365, 
                            "v": 60, 
                            "dur": 1618, 
                            "type": "note", 
                            "channel": 3
                        }
                    ]
                ], 
                [
                    136410, 
                    [
                        {
                            "pitch": 60, 
                            "t0": 136410, 
                            "v": 60, 
                            "dur": 1595, 
                            "type": "note", 
                            "channel": 3
                        }
                    ]
                ], 
                [
                    136455, 
                    [
                        {
                            "pitch": 65, 
                            "t0": 136455, 
                            "v": 60, 
                            "dur": 1635, 
                            "type": "note", 
                            "channel": 3
                        }
                    ]
                ], 
                [
                    136500, 
                    [
                        {
                            "pitch": 69, 
                            "t0": 136500, 
                            "v": 60, 
                            "dur": 1632, 
                            "type": "note", 
                            "channel": 3
                        }
                    ]
                ], 
                [
                    136545, 
                    [
                        {
                            "pitch": 72, 
                            "t0": 136545, 
                            "v": 60, 
                            "dur": 1680, 
                            "type": "note", 
                            "channel": 3
                        }
                    ]
                ], 
                [
                    140160, 
                    [
                        {
                            "pitch": 55, 
                            "t0": 140160, 
                            "v": 60, 
                            "dur": 1753, 
                            "type": "note", 
                            "channel": 3
                        }
                    ]
                ], 
                [
                    140205, 
                    [
                        {
                            "pitch": 59, 
                            "t0": 140205, 
                            "v": 60, 
                            "dur": 1745, 
                            "type": "note", 
                            "channel": 3
                        }
                    ]
                ], 
                [
                    140250, 
                    [
                        {
                            "pitch": 62, 
                            "t0": 140250, 
                            "v": 60, 
                            "dur": 1666, 
                            "type": "note", 
                            "channel": 3
                        }
                    ]
                ], 
                [
                    140295, 
                    [
                        {
                            "pitch": 67, 
                            "t0": 140295, 
                            "v": 60, 
                            "dur": 1756, 
                            "type": "note", 
                            "channel": 3
                        }
                    ]
                ], 
                [
                    140340, 
                    [
                        {
                            "pitch": 71, 
                            "t0": 140340, 
                            "v": 60, 
                            "dur": 1653, 
                            "type": "note", 
                            "channel": 3
                        }
                    ]
                ], 
                [
                    140385, 
                    [
                        {
                            "pitch": 74, 
                            "t0": 140385, 
                            "v": 60, 
                            "dur": 1795, 
                            "type": "note", 
                            "channel": 3
                        }
                    ]
                ], 
                [
                    142080, 
                    [
                        {
                            "pitch": 62, 
                            "t0": 142080, 
                            "v": 81, 
                            "dur": 430, 
                            "type": "note", 
                            "channel": 3
                        }
                    ]
                ], 
                [
                    142560, 
                    [
                        {
                            "pitch": 64, 
                            "t0": 142560, 
                            "v": 81, 
                            "dur": 518, 
                            "type": "note", 
                            "channel": 3
                        }
                    ]
                ], 
                [
                    143040, 
                    [
                        {
                            "pitch": 65, 
                            "t0": 143040, 
                            "v": 81, 
                            "dur": 557, 
                            "type": "note", 
                            "channel": 3
                        }
                    ]
                ], 
                [
                    143520, 
                    [
                        {
                            "pitch": 64, 
                            "t0": 143520, 
                            "v": 82, 
                            "dur": 493, 
                            "type": "note", 
                            "channel": 3
                        }
                    ]
                ], 
                [
                    144000, 
                    [
                        {
                            "pitch": 62, 
                            "t0": 144000, 
                            "v": 82, 
                            "dur": 911, 
                            "type": "note", 
                            "channel": 3
                        }
                    ]
                ], 
                [
                    147840, 
                    [
                        {
                            "pitch": 52, 
                            "t0": 147840, 
                            "v": 60, 
                            "dur": 903, 
                            "type": "note", 
                            "channel": 3
                        }
                    ]
                ], 
                [
                    147885, 
                    [
                        {
                            "pitch": 57, 
                            "t0": 147885, 
                            "v": 60, 
                            "dur": 817, 
                            "type": "note", 
                            "channel": 3
                        }
                    ]
                ], 
                [
                    147930, 
                    [
                        {
                            "pitch": 60, 
                            "t0": 147930, 
                            "v": 60, 
                            "dur": 873, 
                            "type": "note", 
                            "channel": 3
                        }
                    ]
                ], 
                [
                    147975, 
                    [
                        {
                            "pitch": 64, 
                            "t0": 147975, 
                            "v": 60, 
                            "dur": 1013, 
                            "type": "note", 
                            "channel": 3
                        }
                    ]
                ], 
                [
                    148020, 
                    [
                        {
                            "pitch": 69, 
                            "t0": 148020, 
                            "v": 60, 
                            "dur": 880, 
                            "type": "note", 
                            "channel": 3
                        }
                    ]
                ], 
                [
                    148065, 
                    [
                        {
                            "pitch": 72, 
                            "t0": 148065, 
                            "v": 60, 
                            "dur": 941, 
                            "type": "note", 
                            "channel": 3
                        }
                    ]
                ], 
                [
                    151680, 
                    [
                        {
                            "pitch": 52, 
                            "t0": 151680, 
                            "v": 60, 
                            "dur": 1155, 
                            "type": "note", 
                            "channel": 3
                        }
                    ]
                ], 
                [
                    151725, 
                    [
                        {
                            "pitch": 55, 
                            "t0": 151725, 
                            "v": 60, 
                            "dur": 1210, 
                            "type": "note", 
                            "channel": 3
                        }
                    ]
                ], 
                [
                    151770, 
                    [
                        {
                            "pitch": 59, 
                            "t0": 151770, 
                            "v": 60, 
                            "dur": 1213, 
                            "type": "note", 
                            "channel": 3
                        }
                    ]
                ], 
                [
                    151815, 
                    [
                        {
                            "pitch": 64, 
                            "t0": 151815, 
                            "v": 60, 
                            "dur": 1167, 
                            "type": "note", 
                            "channel": 3
                        }
                    ]
                ], 
                [
                    151860, 
                    [
                        {
                            "pitch": 67, 
                            "t0": 151860, 
                            "v": 60, 
                            "dur": 1213, 
                            "type": "note", 
                            "channel": 3
                        }
                    ]
                ], 
                [
                    151905, 
                    [
                        {
                            "pitch": 71, 
                            "t0": 151905, 
                            "v": 60, 
                            "dur": 1256, 
                            "type": "note", 
                            "channel": 3
                        }
                    ]
                ], 
                [
                    155520, 
                    [
                        {
                            "pitch": 52, 
                            "t0": 155520, 
                            "v": 60, 
                            "dur": 1476, 
                            "type": "note", 
                            "channel": 3
                        }
                    ]
                ], 
                [
                    155565, 
                    [
                        {
                            "pitch": 57, 
                            "t0": 155565, 
                            "v": 60, 
                            "dur": 1448, 
                            "type": "note", 
                            "channel": 3
                        }
                    ]
                ], 
                [
                    155610, 
                    [
                        {
                            "pitch": 60, 
                            "t0": 155610, 
                            "v": 60, 
                            "dur": 1466, 
                            "type": "note", 
                            "channel": 3
                        }
                    ]
                ], 
                [
                    155655, 
                    [
                        {
                            "pitch": 64, 
                            "t0": 155655, 
                            "v": 60, 
                            "dur": 1337, 
                            "type": "note", 
                            "channel": 3
                        }
                    ]
                ], 
                [
                    155700, 
                    [
                        {
                            "pitch": 69, 
                            "t0": 155700, 
                            "v": 60, 
                            "dur": 1398, 
                            "type": "note", 
                            "channel": 3
                        }
                    ]
                ], 
                [
                    155745, 
                    [
                        {
                            "pitch": 72, 
                            "t0": 155745, 
                            "v": 60, 
                            "dur": 1540, 
                            "type": "note", 
                            "channel": 3
                        }
                    ]
                ], 
                [
                    159360, 
                    [
                        {
                            "pitch": 52, 
                            "t0": 159360, 
                            "v": 60, 
                            "dur": 1253, 
                            "type": "note", 
                            "channel": 3
                        }
                    ]
                ], 
                [
                    159405, 
                    [
                        {
                            "pitch": 55, 
                            "t0": 159405, 
                            "v": 60, 
                            "dur": 1293, 
                            "type": "note", 
                            "channel": 3
                        }
                    ]
                ], 
                [
                    159450, 
                    [
                        {
                            "pitch": 59, 
                            "t0": 159450, 
                            "v": 60, 
                            "dur": 1227, 
                            "type": "note", 
                            "channel": 3
                        }
                    ]
                ], 
                [
                    159495, 
                    [
                        {
                            "pitch": 64, 
                            "t0": 159495, 
                            "v": 60, 
                            "dur": 1257, 
                            "type": "note", 
                            "channel": 3
                        }
                    ]
                ], 
                [
                    159540, 
                    [
                        {
                            "pitch": 67, 
                            "t0": 159540, 
                            "v": 60, 
                            "dur": 1255, 
                            "type": "note", 
                            "channel": 3
                        }
                    ]
                ], 
                [
                    159585, 
                    [
                        {
                            "pitch": 71, 
                            "t0": 159585, 
                            "v": 60, 
                            "dur": 1337, 
                            "type": "note", 
                            "channel": 3
                        }
                    ]
                ], 
                [
                    163200, 
                    [
                        {
                            "pitch": 48, 
                            "t0": 163200, 
                            "v": 60, 
                            "dur": 1553, 
                            "type": "note", 
                            "channel": 3
                        }
                    ]
                ], 
                [
                    163245, 
                    [
                        {
                            "pitch": 53, 
                            "t0": 163245, 
                            "v": 60, 
                            "dur": 1547, 
                            "type": "note", 
                            "channel": 3
                        }
                    ]
                ], 
                [
                    163290, 
                    [
                        {
                            "pitch": 57, 
                            "t0": 163290, 
                            "v": 60, 
                            "dur": 1497, 
                            "type": "note", 
                            "channel": 3
                        }
                    ]
                ], 
                [
                    163335, 
                    [
                        {
                            "pitch": 60, 
                            "t0": 163335, 
                            "v": 60, 
                            "dur": 1575, 
                            "type": "note", 
                            "channel": 3
                        }
                    ]
                ], 
                [
                    163380, 
                    [
                        {
                            "pitch": 65, 
                            "t0": 163380, 
                            "v": 60, 
                            "dur": 1556, 
                            "type": "note", 
                            "channel": 3
                        }
                    ]
                ], 
                [
                    163425, 
                    [
                        {
                            "pitch": 69, 
                            "t0": 163425, 
                            "v": 60, 
                            "dur": 1583, 
                            "type": "note", 
                            "channel": 3
                        }
                    ]
                ], 
                [
                    167040, 
                    [
                        {
                            "pitch": 45, 
                            "t0": 167040, 
                            "v": 60, 
                            "dur": 962, 
                            "type": "note", 
                            "channel": 3
                        }
                    ]
                ], 
                [
                    167085, 
                    [
                        {
                            "pitch": 48, 
                            "t0": 167085, 
                            "v": 60, 
                            "dur": 1013, 
                            "type": "note", 
                            "channel": 3
                        }
                    ]
                ], 
                [
                    167130, 
                    [
                        {
                            "pitch": 52, 
                            "t0": 167130, 
                            "v": 60, 
                            "dur": 1003, 
                            "type": "note", 
                            "channel": 3
                        }
                    ]
                ], 
                [
                    167175, 
                    [
                        {
                            "pitch": 57, 
                            "t0": 167175, 
                            "v": 60, 
                            "dur": 986, 
                            "type": "note", 
                            "channel": 3
                        }
                    ]
                ], 
                [
                    167220, 
                    [
                        {
                            "pitch": 60, 
                            "t0": 167220, 
                            "v": 60, 
                            "dur": 965, 
                            "type": "note", 
                            "channel": 3
                        }
                    ]
                ], 
                [
                    167265, 
                    [
                        {
                            "pitch": 64, 
                            "t0": 167265, 
                            "v": 60, 
                            "dur": 1017, 
                            "type": "note", 
                            "channel": 3
                        }
                    ]
                ], 
                [
                    170880, 
                    [
                        {
                            "pitch": 53, 
                            "t0": 170880, 
                            "v": 60, 
                            "dur": 1627, 
                            "type": "note", 
                            "channel": 3
                        }
                    ]
                ], 
                [
                    170925, 
                    [
                        {
                            "pitch": 57, 
                            "t0": 170925, 
                            "v": 60, 
                            "dur": 1618, 
                            "type": "note", 
                            "channel": 3
                        }
                    ]
                ], 
                [
                    170970, 
                    [
                        {
                            "pitch": 60, 
                            "t0": 170970, 
                            "v": 60, 
                            "dur": 1595, 
                            "type": "note", 
                            "channel": 3
                        }
                    ]
                ], 
                [
                    171015, 
                    [
                        {
                            "pitch": 65, 
                            "t0": 171015, 
                            "v": 60, 
                            "dur": 1635, 
                            "type": "note", 
                            "channel": 3
                        }
                    ]
                ], 
                [
                    171060, 
                    [
                        {
                            "pitch": 69, 
                            "t0": 171060, 
                            "v": 60, 
                            "dur": 1632, 
                            "type": "note", 
                            "channel": 3
                        }
                    ]
                ], 
                [
                    171105, 
                    [
                        {
                            "pitch": 72, 
                            "t0": 171105, 
                            "v": 60, 
                            "dur": 1680, 
                            "type": "note", 
                            "channel": 3
                        }
                    ]
                ], 
                [
                    174720, 
                    [
                        {
                            "pitch": 55, 
                            "t0": 174720, 
                            "v": 60, 
                            "dur": 1753, 
                            "type": "note", 
                            "channel": 3
                        }
                    ]
                ], 
                [
                    174765, 
                    [
                        {
                            "pitch": 59, 
                            "t0": 174765, 
                            "v": 60, 
                            "dur": 1745, 
                            "type": "note", 
                            "channel": 3
                        }
                    ]
                ], 
                [
                    174810, 
                    [
                        {
                            "pitch": 62, 
                            "t0": 174810, 
                            "v": 60, 
                            "dur": 1666, 
                            "type": "note", 
                            "channel": 3
                        }
                    ]
                ], 
                [
                    174855, 
                    [
                        {
                            "pitch": 67, 
                            "t0": 174855, 
                            "v": 60, 
                            "dur": 1756, 
                            "type": "note", 
                            "channel": 3
                        }
                    ]
                ], 
                [
                    174900, 
                    [
                        {
                            "pitch": 71, 
                            "t0": 174900, 
                            "v": 60, 
                            "dur": 1653, 
                            "type": "note", 
                            "channel": 3
                        }
                    ]
                ], 
                [
                    174945, 
                    [
                        {
                            "pitch": 74, 
                            "t0": 174945, 
                            "v": 60, 
                            "dur": 1795, 
                            "type": "note", 
                            "channel": 3
                        }
                    ]
                ], 
                [
                    176640, 
                    [
                        {
                            "pitch": 62, 
                            "t0": 176640, 
                            "v": 81, 
                            "dur": 430, 
                            "type": "note", 
                            "channel": 3
                        }
                    ]
                ], 
                [
                    177120, 
                    [
                        {
                            "pitch": 64, 
                            "t0": 177120, 
                            "v": 81, 
                            "dur": 518, 
                            "type": "note", 
                            "channel": 3
                        }
                    ]
                ], 
                [
                    177600, 
                    [
                        {
                            "pitch": 65, 
                            "t0": 177600, 
                            "v": 81, 
                            "dur": 557, 
                            "type": "note", 
                            "channel": 3
                        }
                    ]
                ], 
                [
                    178080, 
                    [
                        {
                            "pitch": 64, 
                            "t0": 178080, 
                            "v": 82, 
                            "dur": 493, 
                            "type": "note", 
                            "channel": 3
                        }
                    ]
                ], 
                [
                    178560, 
                    [
                        {
                            "pitch": 62, 
                            "t0": 178560, 
                            "v": 82, 
                            "dur": 911, 
                            "type": "note", 
                            "channel": 3
                        }
                    ]
                ], 
                [
                    182400, 
                    [
                        {
                            "pitch": 60, 
                            "t0": 182400, 
                            "v": 50, 
                            "dur": 407, 
                            "type": "note", 
                            "channel": 3
                        }
                    ]
                ], 
                [
                    182420, 
                    [
                        {
                            "pitch": 64, 
                            "t0": 182420, 
                            "v": 50, 
                            "dur": 392, 
                            "type": "note", 
                            "channel": 3
                        }
                    ]
                ], 
                [
                    182440, 
                    [
                        {
                            "pitch": 67, 
                            "t0": 182440, 
                            "v": 50, 
                            "dur": 433, 
                            "type": "note", 
                            "channel": 3
                        }
                    ]
                ], 
                [
                    182460, 
                    [
                        {
                            "pitch": 72, 
                            "t0": 182460, 
                            "v": 50, 
                            "dur": 432, 
                            "type": "note", 
                            "channel": 3
                        }
                    ]
                ], 
                [
                    182480, 
                    [
                        {
                            "pitch": 76, 
                            "t0": 182480, 
                            "v": 50, 
                            "dur": 410, 
                            "type": "note", 
                            "channel": 3
                        }
                    ]
                ], 
                [
                    182500, 
                    [
                        {
                            "pitch": 79, 
                            "t0": 182500, 
                            "v": 50, 
                            "dur": 440, 
                            "type": "note", 
                            "channel": 3
                        }
                    ]
                ], 
                [
                    182880, 
                    [
                        {
                            "pitch": 60, 
                            "t0": 182880, 
                            "v": 50, 
                            "dur": 407, 
                            "type": "note", 
                            "channel": 3
                        }
                    ]
                ], 
                [
                    182900, 
                    [
                        {
                            "pitch": 64, 
                            "t0": 182900, 
                            "v": 50, 
                            "dur": 392, 
                            "type": "note", 
                            "channel": 3
                        }
                    ]
                ], 
                [
                    182920, 
                    [
                        {
                            "pitch": 67, 
                            "t0": 182920, 
                            "v": 50, 
                            "dur": 433, 
                            "type": "note", 
                            "channel": 3
                        }
                    ]
                ], 
                [
                    182940, 
                    [
                        {
                            "pitch": 72, 
                            "t0": 182940, 
                            "v": 50, 
                            "dur": 432, 
                            "type": "note", 
                            "channel": 3
                        }
                    ]
                ], 
                [
                    182960, 
                    [
                        {
                            "pitch": 76, 
                            "t0": 182960, 
                            "v": 50, 
                            "dur": 410, 
                            "type": "note", 
                            "channel": 3
                        }
                    ]
                ], 
                [
                    182980, 
                    [
                        {
                            "pitch": 79, 
                            "t0": 182980, 
                            "v": 50, 
                            "dur": 440, 
                            "type": "note", 
                            "channel": 3
                        }
                    ]
                ], 
                [
                    183360, 
                    [
                        {
                            "pitch": 60, 
                            "t0": 183360, 
                            "v": 50, 
                            "dur": 313, 
                            "type": "note", 
                            "channel": 3
                        }
                    ]
                ], 
                [
                    183380, 
                    [
                        {
                            "pitch": 64, 
                            "t0": 183380, 
                            "v": 50, 
                            "dur": 363, 
                            "type": "note", 
                            "channel": 3
                        }
                    ]
                ], 
                [
                    183400, 
                    [
                        {
                            "pitch": 67, 
                            "t0": 183400, 
                            "v": 50, 
                            "dur": 368, 
                            "type": "note", 
                            "channel": 3
                        }
                    ]
                ], 
                [
                    183420, 
                    [
                        {
                            "pitch": 72, 
                            "t0": 183420, 
                            "v": 50, 
                            "dur": 381, 
                            "type": "note", 
                            "channel": 3
                        }
                    ]
                ], 
                [
                    183440, 
                    [
                        {
                            "pitch": 76, 
                            "t0": 183440, 
                            "v": 50, 
                            "dur": 337, 
                            "type": "note", 
                            "channel": 3
                        }
                    ]
                ], 
                [
                    183460, 
                    [
                        {
                            "pitch": 79, 
                            "t0": 183460, 
                            "v": 50, 
                            "dur": 307, 
                            "type": "note", 
                            "channel": 3
                        }
                    ]
                ], 
                [
                    183840, 
                    [
                        {
                            "pitch": 60, 
                            "t0": 183840, 
                            "v": 50, 
                            "dur": 313, 
                            "type": "note", 
                            "channel": 3
                        }
                    ]
                ], 
                [
                    183860, 
                    [
                        {
                            "pitch": 64, 
                            "t0": 183860, 
                            "v": 50, 
                            "dur": 363, 
                            "type": "note", 
                            "channel": 3
                        }
                    ]
                ], 
                [
                    183880, 
                    [
                        {
                            "pitch": 67, 
                            "t0": 183880, 
                            "v": 50, 
                            "dur": 368, 
                            "type": "note", 
                            "channel": 3
                        }
                    ]
                ], 
                [
                    183900, 
                    [
                        {
                            "pitch": 72, 
                            "t0": 183900, 
                            "v": 50, 
                            "dur": 381, 
                            "type": "note", 
                            "channel": 3
                        }
                    ]
                ], 
                [
                    183920, 
                    [
                        {
                            "pitch": 76, 
                            "t0": 183920, 
                            "v": 50, 
                            "dur": 337, 
                            "type": "note", 
                            "channel": 3
                        }
                    ]
                ], 
                [
                    183940, 
                    [
                        {
                            "pitch": 79, 
                            "t0": 183940, 
                            "v": 50, 
                            "dur": 307, 
                            "type": "note", 
                            "channel": 3
                        }
                    ]
                ], 
                [
                    184320, 
                    [
                        {
                            "pitch": 55, 
                            "t0": 184320, 
                            "parts": [
                                [
                                    184320, 
                                    50
                                ], 
                                [
                                    184800, 
                                    50
                                ], 
                                [
                                    184818, 
                                    0
                                ]
                            ], 
                            "v": 50, 
                            "dur": 498, 
                            "type": "note", 
                            "channel": 3
                        }
                    ]
                ], 
                [
                    184340, 
                    [
                        {
                            "pitch": 59, 
                            "t0": 184340, 
                            "parts": [
                                [
                                    184340, 
                                    50
                                ], 
                                [
                                    184820, 
                                    50
                                ], 
                                [
                                    184877, 
                                    0
                                ]
                            ], 
                            "v": 50, 
                            "dur": 537, 
                            "type": "note", 
                            "channel": 3
                        }
                    ]
                ], 
                [
                    184360, 
                    [
                        {
                            "pitch": 62, 
                            "t0": 184360, 
                            "parts": [
                                [
                                    184360, 
                                    50
                                ], 
                                [
                                    184840, 
                                    50
                                ], 
                                [
                                    184907, 
                                    0
                                ]
                            ], 
                            "v": 50, 
                            "dur": 547, 
                            "type": "note", 
                            "channel": 3
                        }
                    ]
                ], 
                [
                    184380, 
                    [
                        {
                            "pitch": 67, 
                            "t0": 184380, 
                            "parts": [
                                [
                                    184380, 
                                    50
                                ], 
                                [
                                    184860, 
                                    50
                                ], 
                                [
                                    184912, 
                                    0
                                ]
                            ], 
                            "v": 50, 
                            "dur": 532, 
                            "type": "note", 
                            "channel": 3
                        }
                    ]
                ], 
                [
                    184400, 
                    [
                        {
                            "pitch": 71, 
                            "t0": 184400, 
                            "parts": [
                                [
                                    184400, 
                                    50
                                ], 
                                [
                                    184880, 
                                    50
                                ], 
                                [
                                    184897, 
                                    0
                                ]
                            ], 
                            "v": 50, 
                            "dur": 497, 
                            "type": "note", 
                            "channel": 3
                        }
                    ]
                ], 
                [
                    184420, 
                    [
                        {
                            "pitch": 74, 
                            "t0": 184420, 
                            "parts": [
                                [
                                    184420, 
                                    50
                                ], 
                                [
                                    184900, 
                                    50
                                ], 
                                [
                                    184917, 
                                    0
                                ]
                            ], 
                            "v": 50, 
                            "dur": 497, 
                            "type": "note", 
                            "channel": 3
                        }
                    ]
                ], 
                [
                    185280, 
                    [
                        {
                            "pitch": 55, 
                            "t0": 185280, 
                            "v": 50, 
                            "dur": 18, 
                            "type": "note", 
                            "channel": 3
                        }
                    ]
                ], 
                [
                    185300, 
                    [
                        {
                            "pitch": 59, 
                            "t0": 185300, 
                            "v": 50, 
                            "dur": 57, 
                            "type": "note", 
                            "channel": 3
                        }
                    ]
                ], 
                [
                    185320, 
                    [
                        {
                            "pitch": 62, 
                            "t0": 185320, 
                            "v": 50, 
                            "dur": 67, 
                            "type": "note", 
                            "channel": 3
                        }
                    ]
                ], 
                [
                    185340, 
                    [
                        {
                            "pitch": 67, 
                            "t0": 185340, 
                            "v": 50, 
                            "dur": 52, 
                            "type": "note", 
                            "channel": 3
                        }
                    ]
                ], 
                [
                    185360, 
                    [
                        {
                            "pitch": 71, 
                            "t0": 185360, 
                            "v": 50, 
                            "dur": 17, 
                            "type": "note", 
                            "channel": 3
                        }
                    ]
                ], 
                [
                    185380, 
                    [
                        {
                            "pitch": 74, 
                            "t0": 185380, 
                            "v": 50, 
                            "dur": 17, 
                            "type": "note", 
                            "channel": 3
                        }
                    ]
                ], 
                [
                    185760, 
                    [
                        {
                            "pitch": 55, 
                            "t0": 185760, 
                            "v": 50, 
                            "dur": 445, 
                            "type": "note", 
                            "channel": 3
                        }
                    ]
                ], 
                [
                    185780, 
                    [
                        {
                            "pitch": 59, 
                            "t0": 185780, 
                            "v": 50, 
                            "dur": 2, 
                            "type": "note", 
                            "channel": 3
                        }
                    ]
                ], 
                [
                    185800, 
                    [
                        {
                            "pitch": 62, 
                            "t0": 185800, 
                            "v": 50, 
                            "dur": 26, 
                            "type": "note", 
                            "channel": 3
                        }
                    ]
                ], 
                [
                    185820, 
                    [
                        {
                            "pitch": 67, 
                            "t0": 185820, 
                            "v": 50, 
                            "dur": 445, 
                            "type": "note", 
                            "channel": 3
                        }
                    ]
                ], 
                [
                    185840, 
                    [
                        {
                            "pitch": 71, 
                            "t0": 185840, 
                            "v": 50, 
                            "dur": 450, 
                            "type": "note", 
                            "channel": 3
                        }
                    ]
                ], 
                [
                    185860, 
                    [
                        {
                            "pitch": 74, 
                            "t0": 185860, 
                            "v": 50, 
                            "dur": 461, 
                            "type": "note", 
                            "channel": 3
                        }
                    ]
                ], 
                [
                    186240, 
                    [
                        {
                            "pitch": 57, 
                            "t0": 186240, 
                            "parts": [
                                [
                                    186240, 
                                    50
                                ], 
                                [
                                    186720, 
                                    50
                                ], 
                                [
                                    186746, 
                                    0
                                ]
                            ], 
                            "v": 50, 
                            "dur": 506, 
                            "type": "note", 
                            "channel": 3
                        }
                    ]
                ], 
                [
                    186260, 
                    [
                        {
                            "pitch": 60, 
                            "t0": 186260, 
                            "parts": [
                                [
                                    186260, 
                                    50
                                ], 
                                [
                                    186740, 
                                    50
                                ], 
                                [
                                    186785, 
                                    0
                                ]
                            ], 
                            "v": 50, 
                            "dur": 525, 
                            "type": "note", 
                            "channel": 3
                        }
                    ]
                ], 
                [
                    186280, 
                    [
                        {
                            "pitch": 64, 
                            "t0": 186280, 
                            "parts": [
                                [
                                    186280, 
                                    50
                                ], 
                                [
                                    186760, 
                                    50
                                ], 
                                [
                                    186851, 
                                    0
                                ]
                            ], 
                            "v": 50, 
                            "dur": 571, 
                            "type": "note", 
                            "channel": 3
                        }
                    ]
                ], 
                [
                    186300, 
                    [
                        {
                            "pitch": 69, 
                            "t0": 186300, 
                            "parts": [
                                [
                                    186300, 
                                    50
                                ], 
                                [
                                    186780, 
                                    50
                                ], 
                                [
                                    186843, 
                                    0
                                ]
                            ], 
                            "v": 50, 
                            "dur": 543, 
                            "type": "note", 
                            "channel": 3
                        }
                    ]
                ], 
                [
                    186320, 
                    [
                        {
                            "pitch": 72, 
                            "t0": 186320, 
                            "parts": [
                                [
                                    186320, 
                                    50
                                ], 
                                [
                                    186800, 
                                    50
                                ], 
                                [
                                    186826, 
                                    0
                                ]
                            ], 
                            "v": 50, 
                            "dur": 506, 
                            "type": "note", 
                            "channel": 3
                        }
                    ]
                ], 
                [
                    186340, 
                    [
                        {
                            "pitch": 76, 
                            "t0": 186340, 
                            "v": 50, 
                            "dur": 416, 
                            "type": "note", 
                            "channel": 3
                        }
                    ]
                ], 
                [
                    186820, 
                    [
                        {
                            "pitch": 76, 
                            "t0": 186820, 
                            "v": 50, 
                            "dur": 416, 
                            "type": "note", 
                            "channel": 3
                        }
                    ]
                ], 
                [
                    187200, 
                    [
                        {
                            "pitch": 57, 
                            "t0": 187200, 
                            "v": 50, 
                            "dur": 26, 
                            "type": "note", 
                            "channel": 3
                        }
                    ]
                ], 
                [
                    187220, 
                    [
                        {
                            "pitch": 60, 
                            "t0": 187220, 
                            "v": 50, 
                            "dur": 45, 
                            "type": "note", 
                            "channel": 3
                        }
                    ]
                ], 
                [
                    187240, 
                    [
                        {
                            "pitch": 64, 
                            "t0": 187240, 
                            "v": 50, 
                            "dur": 91, 
                            "type": "note", 
                            "channel": 3
                        }
                    ]
                ], 
                [
                    187260, 
                    [
                        {
                            "pitch": 69, 
                            "t0": 187260, 
                            "v": 50, 
                            "dur": 63, 
                            "type": "note", 
                            "channel": 3
                        }
                    ]
                ], 
                [
                    187280, 
                    [
                        {
                            "pitch": 72, 
                            "t0": 187280, 
                            "v": 50, 
                            "dur": 26, 
                            "type": "note", 
                            "channel": 3
                        }
                    ]
                ], 
                [
                    187300, 
                    [
                        {
                            "pitch": 76, 
                            "t0": 187300, 
                            "v": 50, 
                            "dur": 322, 
                            "type": "note", 
                            "channel": 3
                        }
                    ]
                ], 
                [
                    187680, 
                    [
                        {
                            "pitch": 57, 
                            "t0": 187680, 
                            "v": 50, 
                            "dur": 376, 
                            "type": "note", 
                            "channel": 3
                        }
                    ]
                ], 
                [
                    187700, 
                    [
                        {
                            "pitch": 60, 
                            "t0": 187700, 
                            "v": 50, 
                            "dur": 377, 
                            "type": "note", 
                            "channel": 3
                        }
                    ]
                ], 
                [
                    187720, 
                    [
                        {
                            "pitch": 64, 
                            "t0": 187720, 
                            "v": 50, 
                            "dur": 360, 
                            "type": "note", 
                            "channel": 3
                        }
                    ]
                ], 
                [
                    187740, 
                    [
                        {
                            "pitch": 69, 
                            "t0": 187740, 
                            "v": 50, 
                            "dur": 395, 
                            "type": "note", 
                            "channel": 3
                        }
                    ]
                ], 
                [
                    187760, 
                    [
                        {
                            "pitch": 72, 
                            "t0": 187760, 
                            "v": 50, 
                            "dur": 340, 
                            "type": "note", 
                            "channel": 3
                        }
                    ]
                ], 
                [
                    187780, 
                    [
                        {
                            "pitch": 76, 
                            "t0": 187780, 
                            "v": 50, 
                            "dur": 322, 
                            "type": "note", 
                            "channel": 3
                        }
                    ]
                ], 
                [
                    188160, 
                    [
                        {
                            "pitch": 52, 
                            "t0": 188160, 
                            "v": 50, 
                            "dur": 455, 
                            "type": "note", 
                            "channel": 3
                        }
                    ]
                ], 
                [
                    188180, 
                    [
                        {
                            "pitch": 55, 
                            "t0": 188180, 
                            "v": 50, 
                            "dur": 478, 
                            "type": "note", 
                            "channel": 3
                        }
                    ]
                ], 
                [
                    188200, 
                    [
                        {
                            "pitch": 59, 
                            "t0": 188200, 
                            "parts": [
                                [
                                    188200, 
                                    50
                                ], 
                                [
                                    188680, 
                                    50
                                ], 
                                [
                                    188703, 
                                    0
                                ]
                            ], 
                            "v": 50, 
                            "dur": 503, 
                            "type": "note", 
                            "channel": 3
                        }
                    ]
                ], 
                [
                    188220, 
                    [
                        {
                            "pitch": 64, 
                            "t0": 188220, 
                            "v": 50, 
                            "dur": 445, 
                            "type": "note", 
                            "channel": 3
                        }
                    ]
                ], 
                [
                    188240, 
                    [
                        {
                            "pitch": 67, 
                            "t0": 188240, 
                            "v": 50, 
                            "dur": 455, 
                            "type": "note", 
                            "channel": 3
                        }
                    ]
                ], 
                [
                    188260, 
                    [
                        {
                            "pitch": 71, 
                            "t0": 188260, 
                            "v": 50, 
                            "dur": 403, 
                            "type": "note", 
                            "channel": 3
                        }
                    ]
                ], 
                [
                    188640, 
                    [
                        {
                            "pitch": 52, 
                            "t0": 188640, 
                            "v": 50, 
                            "dur": 455, 
                            "type": "note", 
                            "channel": 3
                        }
                    ]
                ], 
                [
                    188660, 
                    [
                        {
                            "pitch": 55, 
                            "t0": 188660, 
                            "v": 50, 
                            "dur": 478, 
                            "type": "note", 
                            "channel": 3
                        }
                    ]
                ], 
                [
                    188700, 
                    [
                        {
                            "pitch": 64, 
                            "t0": 188700, 
                            "v": 50, 
                            "dur": 445, 
                            "type": "note", 
                            "channel": 3
                        }
                    ]
                ], 
                [
                    188720, 
                    [
                        {
                            "pitch": 67, 
                            "t0": 188720, 
                            "v": 50, 
                            "dur": 455, 
                            "type": "note", 
                            "channel": 3
                        }
                    ]
                ], 
                [
                    188740, 
                    [
                        {
                            "pitch": 71, 
                            "t0": 188740, 
                            "v": 50, 
                            "dur": 403, 
                            "type": "note", 
                            "channel": 3
                        }
                    ]
                ], 
                [
                    189120, 
                    [
                        {
                            "pitch": 52, 
                            "t0": 189120, 
                            "parts": [
                                [
                                    189120, 
                                    50
                                ], 
                                [
                                    189600, 
                                    50
                                ], 
                                [
                                    189623, 
                                    0
                                ]
                            ], 
                            "v": 50, 
                            "dur": 503, 
                            "type": "note", 
                            "channel": 3
                        }
                    ]
                ], 
                [
                    189140, 
                    [
                        {
                            "pitch": 55, 
                            "t0": 189140, 
                            "parts": [
                                [
                                    189140, 
                                    50
                                ], 
                                [
                                    189620, 
                                    50
                                ], 
                                [
                                    189655, 
                                    0
                                ]
                            ], 
                            "v": 50, 
                            "dur": 515, 
                            "type": "note", 
                            "channel": 3
                        }
                    ]
                ], 
                [
                    189160, 
                    [
                        {
                            "pitch": 59, 
                            "t0": 189160, 
                            "v": 50, 
                            "dur": 23, 
                            "type": "note", 
                            "channel": 3
                        }
                    ]
                ], 
                [
                    189180, 
                    [
                        {
                            "pitch": 64, 
                            "t0": 189180, 
                            "v": 50, 
                            "dur": 460, 
                            "type": "note", 
                            "channel": 3
                        }
                    ]
                ], 
                [
                    189200, 
                    [
                        {
                            "pitch": 67, 
                            "t0": 189200, 
                            "v": 50, 
                            "dur": 438, 
                            "type": "note", 
                            "channel": 3
                        }
                    ]
                ], 
                [
                    189220, 
                    [
                        {
                            "pitch": 71, 
                            "t0": 189220, 
                            "v": 50, 
                            "dur": 465, 
                            "type": "note", 
                            "channel": 3
                        }
                    ]
                ], 
                [
                    189640, 
                    [
                        {
                            "pitch": 59, 
                            "t0": 189640, 
                            "v": 50, 
                            "dur": 48, 
                            "type": "note", 
                            "channel": 3
                        }
                    ]
                ], 
                [
                    189660, 
                    [
                        {
                            "pitch": 64, 
                            "t0": 189660, 
                            "v": 50, 
                            "dur": 460, 
                            "type": "note", 
                            "channel": 3
                        }
                    ]
                ], 
                [
                    189680, 
                    [
                        {
                            "pitch": 67, 
                            "t0": 189680, 
                            "v": 50, 
                            "dur": 438, 
                            "type": "note", 
                            "channel": 3
                        }
                    ]
                ], 
                [
                    189700, 
                    [
                        {
                            "pitch": 71, 
                            "t0": 189700, 
                            "v": 50, 
                            "dur": 465, 
                            "type": "note", 
                            "channel": 3
                        }
                    ]
                ], 
                [
                    190080, 
                    [
                        {
                            "pitch": 53, 
                            "t0": 190080, 
                            "v": 50, 
                            "dur": 375, 
                            "type": "note", 
                            "channel": 3
                        }
                    ]
                ], 
                [
                    190100, 
                    [
                        {
                            "pitch": 57, 
                            "t0": 190100, 
                            "v": 50, 
                            "dur": 403, 
                            "type": "note", 
                            "channel": 3
                        }
                    ]
                ], 
                [
                    190120, 
                    [
                        {
                            "pitch": 60, 
                            "t0": 190120, 
                            "v": 50, 
                            "dur": 421, 
                            "type": "note", 
                            "channel": 3
                        }
                    ]
                ], 
                [
                    190140, 
                    [
                        {
                            "pitch": 65, 
                            "t0": 190140, 
                            "v": 50, 
                            "dur": 345, 
                            "type": "note", 
                            "channel": 3
                        }
                    ]
                ], 
                [
                    190160, 
                    [
                        {
                            "pitch": 69, 
                            "t0": 190160, 
                            "v": 50, 
                            "dur": 365, 
                            "type": "note", 
                            "channel": 3
                        }
                    ]
                ], 
                [
                    190180, 
                    [
                        {
                            "pitch": 72, 
                            "t0": 190180, 
                            "v": 50, 
                            "dur": 378, 
                            "type": "note", 
                            "channel": 3
                        }
                    ]
                ], 
                [
                    190560, 
                    [
                        {
                            "pitch": 53, 
                            "t0": 190560, 
                            "v": 50, 
                            "dur": 375, 
                            "type": "note", 
                            "channel": 3
                        }
                    ]
                ], 
                [
                    190580, 
                    [
                        {
                            "pitch": 57, 
                            "t0": 190580, 
                            "v": 50, 
                            "dur": 403, 
                            "type": "note", 
                            "channel": 3
                        }
                    ]
                ], 
                [
                    190600, 
                    [
                        {
                            "pitch": 60, 
                            "t0": 190600, 
                            "v": 50, 
                            "dur": 421, 
                            "type": "note", 
                            "channel": 3
                        }
                    ]
                ], 
                [
                    190620, 
                    [
                        {
                            "pitch": 65, 
                            "t0": 190620, 
                            "v": 50, 
                            "dur": 345, 
                            "type": "note", 
                            "channel": 3
                        }
                    ]
                ], 
                [
                    190640, 
                    [
                        {
                            "pitch": 69, 
                            "t0": 190640, 
                            "v": 50, 
                            "dur": 365, 
                            "type": "note", 
                            "channel": 3
                        }
                    ]
                ], 
                [
                    190660, 
                    [
                        {
                            "pitch": 72, 
                            "t0": 190660, 
                            "v": 50, 
                            "dur": 378, 
                            "type": "note", 
                            "channel": 3
                        }
                    ]
                ], 
                [
                    191040, 
                    [
                        {
                            "pitch": 55, 
                            "t0": 191040, 
                            "v": 50, 
                            "dur": 433, 
                            "type": "note", 
                            "channel": 3
                        }
                    ]
                ], 
                [
                    191060, 
                    [
                        {
                            "pitch": 59, 
                            "t0": 191060, 
                            "v": 50, 
                            "dur": 388, 
                            "type": "note", 
                            "channel": 3
                        }
                    ]
                ], 
                [
                    191080, 
                    [
                        {
                            "pitch": 62, 
                            "t0": 191080, 
                            "v": 50, 
                            "dur": 470, 
                            "type": "note", 
                            "channel": 3
                        }
                    ]
                ], 
                [
                    191100, 
                    [
                        {
                            "pitch": 67, 
                            "t0": 191100, 
                            "v": 50, 
                            "dur": 381, 
                            "type": "note", 
                            "channel": 3
                        }
                    ]
                ], 
                [
                    191120, 
                    [
                        {
                            "pitch": 71, 
                            "t0": 191120, 
                            "v": 50, 
                            "dur": 397, 
                            "type": "note", 
                            "channel": 3
                        }
                    ]
                ], 
                [
                    191140, 
                    [
                        {
                            "pitch": 74, 
                            "t0": 191140, 
                            "v": 50, 
                            "dur": 373, 
                            "type": "note", 
                            "channel": 3
                        }
                    ]
                ], 
                [
                    191520, 
                    [
                        {
                            "pitch": 55, 
                            "t0": 191520, 
                            "v": 50, 
                            "dur": 433, 
                            "type": "note", 
                            "channel": 3
                        }
                    ]
                ], 
                [
                    191540, 
                    [
                        {
                            "pitch": 59, 
                            "t0": 191540, 
                            "v": 50, 
                            "dur": 388, 
                            "type": "note", 
                            "channel": 3
                        }
                    ]
                ], 
                [
                    191560, 
                    [
                        {
                            "pitch": 62, 
                            "t0": 191560, 
                            "v": 50, 
                            "dur": 470, 
                            "type": "note", 
                            "channel": 3
                        }
                    ]
                ], 
                [
                    191580, 
                    [
                        {
                            "pitch": 67, 
                            "t0": 191580, 
                            "v": 50, 
                            "dur": 381, 
                            "type": "note", 
                            "channel": 3
                        }
                    ]
                ], 
                [
                    191600, 
                    [
                        {
                            "pitch": 71, 
                            "t0": 191600, 
                            "v": 50, 
                            "dur": 397, 
                            "type": "note", 
                            "channel": 3
                        }
                    ]
                ], 
                [
                    191620, 
                    [
                        {
                            "pitch": 74, 
                            "t0": 191620, 
                            "v": 50, 
                            "dur": 373, 
                            "type": "note", 
                            "channel": 3
                        }
                    ]
                ], 
                [
                    192000, 
                    [
                        {
                            "pitch": 57, 
                            "t0": 192000, 
                            "parts": [
                                [
                                    192000, 
                                    50
                                ], 
                                [
                                    192480, 
                                    50
                                ], 
                                [
                                    192515, 
                                    0
                                ]
                            ], 
                            "v": 50, 
                            "dur": 515, 
                            "type": "note", 
                            "channel": 3
                        }
                    ]
                ], 
                [
                    192020, 
                    [
                        {
                            "pitch": 60, 
                            "t0": 192020, 
                            "parts": [
                                [
                                    192020, 
                                    50
                                ], 
                                [
                                    192500, 
                                    50
                                ], 
                                [
                                    192568, 
                                    0
                                ]
                            ], 
                            "v": 50, 
                            "dur": 548, 
                            "type": "note", 
                            "channel": 3
                        }
                    ]
                ], 
                [
                    192040, 
                    [
                        {
                            "pitch": 64, 
                            "t0": 192040, 
                            "parts": [
                                [
                                    192040, 
                                    50
                                ], 
                                [
                                    192520, 
                                    50
                                ], 
                                [
                                    192595, 
                                    0
                                ]
                            ], 
                            "v": 50, 
                            "dur": 555, 
                            "type": "note", 
                            "channel": 3
                        }
                    ]
                ], 
                [
                    192060, 
                    [
                        {
                            "pitch": 69, 
                            "t0": 192060, 
                            "parts": [
                                [
                                    192060, 
                                    50
                                ], 
                                [
                                    192540, 
                                    50
                                ], 
                                [
                                    192603, 
                                    0
                                ]
                            ], 
                            "v": 50, 
                            "dur": 543, 
                            "type": "note", 
                            "channel": 3
                        }
                    ]
                ], 
                [
                    192080, 
                    [
                        {
                            "pitch": 72, 
                            "t0": 192080, 
                            "parts": [
                                [
                                    192080, 
                                    50
                                ], 
                                [
                                    192560, 
                                    50
                                ], 
                                [
                                    192586, 
                                    0
                                ]
                            ], 
                            "v": 50, 
                            "dur": 506, 
                            "type": "note", 
                            "channel": 3
                        }
                    ]
                ], 
                [
                    192100, 
                    [
                        {
                            "pitch": 76, 
                            "t0": 192100, 
                            "parts": [
                                [
                                    192100, 
                                    50
                                ], 
                                [
                                    192580, 
                                    50
                                ], 
                                [
                                    192617, 
                                    0
                                ]
                            ], 
                            "v": 50, 
                            "dur": 517, 
                            "type": "note", 
                            "channel": 3
                        }
                    ]
                ], 
                [
                    192960, 
                    [
                        {
                            "pitch": 57, 
                            "t0": 192960, 
                            "v": 50, 
                            "dur": 35, 
                            "type": "note", 
                            "channel": 3
                        }
                    ]
                ], 
                [
                    192980, 
                    [
                        {
                            "pitch": 60, 
                            "t0": 192980, 
                            "v": 50, 
                            "dur": 68, 
                            "type": "note", 
                            "channel": 3
                        }
                    ]
                ], 
                [
                    193000, 
                    [
                        {
                            "pitch": 64, 
                            "t0": 193000, 
                            "v": 50, 
                            "dur": 75, 
                            "type": "note", 
                            "channel": 3
                        }
                    ]
                ], 
                [
                    193020, 
                    [
                        {
                            "pitch": 69, 
                            "t0": 193020, 
                            "v": 50, 
                            "dur": 63, 
                            "type": "note", 
                            "channel": 3
                        }
                    ]
                ], 
                [
                    193040, 
                    [
                        {
                            "pitch": 72, 
                            "t0": 193040, 
                            "v": 50, 
                            "dur": 26, 
                            "type": "note", 
                            "channel": 3
                        }
                    ]
                ], 
                [
                    193060, 
                    [
                        {
                            "pitch": 76, 
                            "t0": 193060, 
                            "v": 50, 
                            "dur": 37, 
                            "type": "note", 
                            "channel": 3
                        }
                    ]
                ], 
                [
                    193440, 
                    [
                        {
                            "pitch": 57, 
                            "t0": 193440, 
                            "v": 50, 
                            "dur": 62, 
                            "type": "note", 
                            "channel": 3
                        }
                    ]
                ], 
                [
                    193460, 
                    [
                        {
                            "pitch": 60, 
                            "t0": 193460, 
                            "v": 50, 
                            "dur": 88, 
                            "type": "note", 
                            "channel": 3
                        }
                    ]
                ], 
                [
                    193480, 
                    [
                        {
                            "pitch": 64, 
                            "t0": 193480, 
                            "v": 50, 
                            "dur": 122, 
                            "type": "note", 
                            "channel": 3
                        }
                    ]
                ], 
                [
                    193500, 
                    [
                        {
                            "pitch": 69, 
                            "t0": 193500, 
                            "v": 50, 
                            "dur": 66, 
                            "type": "note", 
                            "channel": 3
                        }
                    ]
                ], 
                [
                    193520, 
                    [
                        {
                            "pitch": 72, 
                            "t0": 193520, 
                            "v": 50, 
                            "dur": 68, 
                            "type": "note", 
                            "channel": 3
                        }
                    ]
                ], 
                [
                    193540, 
                    [
                        {
                            "pitch": 76, 
                            "t0": 193540, 
                            "v": 50, 
                            "dur": 70, 
                            "type": "note", 
                            "channel": 3
                        }
                    ]
                ], 
                [
                    193920, 
                    [
                        {
                            "pitch": 60, 
                            "t0": 193920, 
                            "v": 50, 
                            "dur": 108, 
                            "type": "note", 
                            "channel": 3
                        }
                    ]
                ], 
                [
                    193940, 
                    [
                        {
                            "pitch": 64, 
                            "t0": 193940, 
                            "v": 50, 
                            "dur": 142, 
                            "type": "note", 
                            "channel": 3
                        }
                    ]
                ], 
                [
                    193960, 
                    [
                        {
                            "pitch": 67, 
                            "t0": 193960, 
                            "v": 50, 
                            "dur": 430, 
                            "type": "note", 
                            "channel": 3
                        }
                    ]
                ], 
                [
                    193980, 
                    [
                        {
                            "pitch": 72, 
                            "t0": 193980, 
                            "v": 50, 
                            "dur": 88, 
                            "type": "note", 
                            "channel": 3
                        }
                    ]
                ], 
                [
                    194000, 
                    [
                        {
                            "pitch": 76, 
                            "t0": 194000, 
                            "v": 50, 
                            "dur": 90, 
                            "type": "note", 
                            "channel": 3
                        }
                    ]
                ], 
                [
                    194020, 
                    [
                        {
                            "pitch": 79, 
                            "t0": 194020, 
                            "v": 50, 
                            "dur": 403, 
                            "type": "note", 
                            "channel": 3
                        }
                    ]
                ], 
                [
                    194400, 
                    [
                        {
                            "pitch": 60, 
                            "t0": 194400, 
                            "v": 50, 
                            "dur": 401, 
                            "type": "note", 
                            "channel": 3
                        }
                    ]
                ], 
                [
                    194420, 
                    [
                        {
                            "pitch": 64, 
                            "t0": 194420, 
                            "v": 50, 
                            "dur": 432, 
                            "type": "note", 
                            "channel": 3
                        }
                    ]
                ], 
                [
                    194440, 
                    [
                        {
                            "pitch": 67, 
                            "t0": 194440, 
                            "v": 50, 
                            "dur": 430, 
                            "type": "note", 
                            "channel": 3
                        }
                    ]
                ], 
                [
                    194460, 
                    [
                        {
                            "pitch": 72, 
                            "t0": 194460, 
                            "v": 50, 
                            "dur": 453, 
                            "type": "note", 
                            "channel": 3
                        }
                    ]
                ], 
                [
                    194480, 
                    [
                        {
                            "pitch": 76, 
                            "t0": 194480, 
                            "v": 50, 
                            "dur": 402, 
                            "type": "note", 
                            "channel": 3
                        }
                    ]
                ], 
                [
                    194500, 
                    [
                        {
                            "pitch": 79, 
                            "t0": 194500, 
                            "v": 50, 
                            "dur": 403, 
                            "type": "note", 
                            "channel": 3
                        }
                    ]
                ], 
                [
                    194880, 
                    [
                        {
                            "pitch": 55, 
                            "t0": 194880, 
                            "v": 50, 
                            "dur": 393, 
                            "type": "note", 
                            "channel": 3
                        }
                    ]
                ], 
                [
                    194900, 
                    [
                        {
                            "pitch": 59, 
                            "t0": 194900, 
                            "v": 50, 
                            "dur": 440, 
                            "type": "note", 
                            "channel": 3
                        }
                    ]
                ], 
                [
                    194920, 
                    [
                        {
                            "pitch": 62, 
                            "t0": 194920, 
                            "v": 50, 
                            "dur": 467, 
                            "type": "note", 
                            "channel": 3
                        }
                    ]
                ], 
                [
                    194940, 
                    [
                        {
                            "pitch": 67, 
                            "t0": 194940, 
                            "v": 50, 
                            "dur": 410, 
                            "type": "note", 
                            "channel": 3
                        }
                    ]
                ], 
                [
                    194960, 
                    [
                        {
                            "pitch": 71, 
                            "t0": 194960, 
                            "v": 50, 
                            "dur": 387, 
                            "type": "note", 
                            "channel": 3
                        }
                    ]
                ], 
                [
                    194980, 
                    [
                        {
                            "pitch": 74, 
                            "t0": 194980, 
                            "v": 50, 
                            "dur": 370, 
                            "type": "note", 
                            "channel": 3
                        }
                    ]
                ], 
                [
                    195360, 
                    [
                        {
                            "pitch": 55, 
                            "t0": 195360, 
                            "v": 50, 
                            "dur": 393, 
                            "type": "note", 
                            "channel": 3
                        }
                    ]
                ], 
                [
                    195380, 
                    [
                        {
                            "pitch": 59, 
                            "t0": 195380, 
                            "v": 50, 
                            "dur": 440, 
                            "type": "note", 
                            "channel": 3
                        }
                    ]
                ], 
                [
                    195400, 
                    [
                        {
                            "pitch": 62, 
                            "t0": 195400, 
                            "v": 50, 
                            "dur": 467, 
                            "type": "note", 
                            "channel": 3
                        }
                    ]
                ], 
                [
                    195420, 
                    [
                        {
                            "pitch": 67, 
                            "t0": 195420, 
                            "v": 50, 
                            "dur": 410, 
                            "type": "note", 
                            "channel": 3
                        }
                    ]
                ], 
                [
                    195440, 
                    [
                        {
                            "pitch": 71, 
                            "t0": 195440, 
                            "v": 50, 
                            "dur": 387, 
                            "type": "note", 
                            "channel": 3
                        }
                    ]
                ], 
                [
                    195460, 
                    [
                        {
                            "pitch": 74, 
                            "t0": 195460, 
                            "v": 50, 
                            "dur": 370, 
                            "type": "note", 
                            "channel": 3
                        }
                    ]
                ], 
                [
                    195840, 
                    [
                        {
                            "pitch": 57, 
                            "t0": 195840, 
                            "v": 50, 
                            "dur": 305, 
                            "type": "note", 
                            "channel": 3
                        }
                    ]
                ], 
                [
                    195860, 
                    [
                        {
                            "pitch": 60, 
                            "t0": 195860, 
                            "v": 50, 
                            "dur": 317, 
                            "type": "note", 
                            "channel": 3
                        }
                    ]
                ], 
                [
                    195880, 
                    [
                        {
                            "pitch": 64, 
                            "t0": 195880, 
                            "v": 50, 
                            "dur": 322, 
                            "type": "note", 
                            "channel": 3
                        }
                    ]
                ], 
                [
                    195900, 
                    [
                        {
                            "pitch": 69, 
                            "t0": 195900, 
                            "v": 50, 
                            "dur": 346, 
                            "type": "note", 
                            "channel": 3
                        }
                    ]
                ], 
                [
                    195920, 
                    [
                        {
                            "pitch": 72, 
                            "t0": 195920, 
                            "v": 50, 
                            "dur": 321, 
                            "type": "note", 
                            "channel": 3
                        }
                    ]
                ], 
                [
                    195940, 
                    [
                        {
                            "pitch": 76, 
                            "t0": 195940, 
                            "v": 50, 
                            "dur": 305, 
                            "type": "note", 
                            "channel": 3
                        }
                    ]
                ], 
                [
                    196320, 
                    [
                        {
                            "pitch": 57, 
                            "t0": 196320, 
                            "v": 50, 
                            "dur": 305, 
                            "type": "note", 
                            "channel": 3
                        }
                    ]
                ], 
                [
                    196340, 
                    [
                        {
                            "pitch": 60, 
                            "t0": 196340, 
                            "v": 50, 
                            "dur": 317, 
                            "type": "note", 
                            "channel": 3
                        }
                    ]
                ], 
                [
                    196360, 
                    [
                        {
                            "pitch": 64, 
                            "t0": 196360, 
                            "v": 50, 
                            "dur": 322, 
                            "type": "note", 
                            "channel": 3
                        }
                    ]
                ], 
                [
                    196380, 
                    [
                        {
                            "pitch": 69, 
                            "t0": 196380, 
                            "v": 50, 
                            "dur": 346, 
                            "type": "note", 
                            "channel": 3
                        }
                    ]
                ], 
                [
                    196400, 
                    [
                        {
                            "pitch": 72, 
                            "t0": 196400, 
                            "v": 50, 
                            "dur": 321, 
                            "type": "note", 
                            "channel": 3
                        }
                    ]
                ], 
                [
                    196420, 
                    [
                        {
                            "pitch": 76, 
                            "t0": 196420, 
                            "v": 50, 
                            "dur": 305, 
                            "type": "note", 
                            "channel": 3
                        }
                    ]
                ], 
                [
                    196800, 
                    [
                        {
                            "pitch": 52, 
                            "t0": 196800, 
                            "v": 50, 
                            "dur": 426, 
                            "type": "note", 
                            "channel": 3
                        }
                    ]
                ], 
                [
                    196820, 
                    [
                        {
                            "pitch": 55, 
                            "t0": 196820, 
                            "v": 50, 
                            "dur": 462, 
                            "type": "note", 
                            "channel": 3
                        }
                    ]
                ], 
                [
                    196840, 
                    [
                        {
                            "pitch": 59, 
                            "t0": 196840, 
                            "v": 50, 
                            "dur": 475, 
                            "type": "note", 
                            "channel": 3
                        }
                    ]
                ], 
                [
                    196860, 
                    [
                        {
                            "pitch": 64, 
                            "t0": 196860, 
                            "v": 50, 
                            "dur": 375, 
                            "type": "note", 
                            "channel": 3
                        }
                    ]
                ], 
                [
                    196880, 
                    [
                        {
                            "pitch": 67, 
                            "t0": 196880, 
                            "v": 50, 
                            "dur": 411, 
                            "type": "note", 
                            "channel": 3
                        }
                    ]
                ], 
                [
                    196900, 
                    [
                        {
                            "pitch": 71, 
                            "t0": 196900, 
                            "v": 50, 
                            "dur": 387, 
                            "type": "note", 
                            "channel": 3
                        }
                    ]
                ], 
                [
                    197280, 
                    [
                        {
                            "pitch": 52, 
                            "t0": 197280, 
                            "v": 50, 
                            "dur": 426, 
                            "type": "note", 
                            "channel": 3
                        }
                    ]
                ], 
                [
                    197300, 
                    [
                        {
                            "pitch": 55, 
                            "t0": 197300, 
                            "v": 50, 
                            "dur": 462, 
                            "type": "note", 
                            "channel": 3
                        }
                    ]
                ], 
                [
                    197320, 
                    [
                        {
                            "pitch": 59, 
                            "t0": 197320, 
                            "v": 50, 
                            "dur": 475, 
                            "type": "note", 
                            "channel": 3
                        }
                    ]
                ], 
                [
                    197340, 
                    [
                        {
                            "pitch": 64, 
                            "t0": 197340, 
                            "v": 50, 
                            "dur": 375, 
                            "type": "note", 
                            "channel": 3
                        }
                    ]
                ], 
                [
                    197360, 
                    [
                        {
                            "pitch": 67, 
                            "t0": 197360, 
                            "v": 50, 
                            "dur": 411, 
                            "type": "note", 
                            "channel": 3
                        }
                    ]
                ], 
                [
                    197380, 
                    [
                        {
                            "pitch": 71, 
                            "t0": 197380, 
                            "v": 50, 
                            "dur": 387, 
                            "type": "note", 
                            "channel": 3
                        }
                    ]
                ], 
                [
                    197760, 
                    [
                        {
                            "pitch": 53, 
                            "t0": 197760, 
                            "v": 50, 
                            "dur": 395, 
                            "type": "note", 
                            "channel": 3
                        }
                    ]
                ], 
                [
                    197780, 
                    [
                        {
                            "pitch": 57, 
                            "t0": 197780, 
                            "v": 50, 
                            "dur": 457, 
                            "type": "note", 
                            "channel": 3
                        }
                    ]
                ], 
                [
                    197800, 
                    [
                        {
                            "pitch": 60, 
                            "t0": 197800, 
                            "v": 50, 
                            "dur": 463, 
                            "type": "note", 
                            "channel": 3
                        }
                    ]
                ], 
                [
                    197820, 
                    [
                        {
                            "pitch": 65, 
                            "t0": 197820, 
                            "v": 50, 
                            "dur": 416, 
                            "type": "note", 
                            "channel": 3
                        }
                    ]
                ], 
                [
                    197840, 
                    [
                        {
                            "pitch": 69, 
                            "t0": 197840, 
                            "v": 50, 
                            "dur": 400, 
                            "type": "note", 
                            "channel": 3
                        }
                    ]
                ], 
                [
                    197860, 
                    [
                        {
                            "pitch": 72, 
                            "t0": 197860, 
                            "v": 50, 
                            "dur": 423, 
                            "type": "note", 
                            "channel": 3
                        }
                    ]
                ], 
                [
                    198240, 
                    [
                        {
                            "pitch": 53, 
                            "t0": 198240, 
                            "v": 50, 
                            "dur": 395, 
                            "type": "note", 
                            "channel": 3
                        }
                    ]
                ], 
                [
                    198260, 
                    [
                        {
                            "pitch": 57, 
                            "t0": 198260, 
                            "v": 50, 
                            "dur": 457, 
                            "type": "note", 
                            "channel": 3
                        }
                    ]
                ], 
                [
                    198280, 
                    [
                        {
                            "pitch": 60, 
                            "t0": 198280, 
                            "v": 50, 
                            "dur": 463, 
                            "type": "note", 
                            "channel": 3
                        }
                    ]
                ], 
                [
                    198300, 
                    [
                        {
                            "pitch": 65, 
                            "t0": 198300, 
                            "v": 50, 
                            "dur": 416, 
                            "type": "note", 
                            "channel": 3
                        }
                    ]
                ], 
                [
                    198320, 
                    [
                        {
                            "pitch": 69, 
                            "t0": 198320, 
                            "v": 50, 
                            "dur": 400, 
                            "type": "note", 
                            "channel": 3
                        }
                    ]
                ], 
                [
                    198340, 
                    [
                        {
                            "pitch": 72, 
                            "t0": 198340, 
                            "v": 50, 
                            "dur": 423, 
                            "type": "note", 
                            "channel": 3
                        }
                    ]
                ], 
                [
                    198720, 
                    [
                        {
                            "pitch": 55, 
                            "t0": 198720, 
                            "v": 50, 
                            "dur": 455, 
                            "type": "note", 
                            "channel": 3
                        }
                    ]
                ], 
                [
                    198740, 
                    [
                        {
                            "pitch": 59, 
                            "t0": 198740, 
                            "v": 50, 
                            "dur": 468, 
                            "type": "note", 
                            "channel": 3
                        }
                    ]
                ], 
                [
                    198760, 
                    [
                        {
                            "pitch": 62, 
                            "t0": 198760, 
                            "parts": [
                                [
                                    198760, 
                                    50
                                ], 
                                [
                                    199240, 
                                    50
                                ], 
                                [
                                    199272, 
                                    0
                                ]
                            ], 
                            "v": 50, 
                            "dur": 512, 
                            "type": "note", 
                            "channel": 3
                        }
                    ]
                ], 
                [
                    198780, 
                    [
                        {
                            "pitch": 67, 
                            "t0": 198780, 
                            "v": 50, 
                            "dur": 443, 
                            "type": "note", 
                            "channel": 3
                        }
                    ]
                ], 
                [
                    198800, 
                    [
                        {
                            "pitch": 71, 
                            "t0": 198800, 
                            "v": 50, 
                            "dur": 377, 
                            "type": "note", 
                            "channel": 3
                        }
                    ]
                ], 
                [
                    198820, 
                    [
                        {
                            "pitch": 74, 
                            "t0": 198820, 
                            "v": 50, 
                            "dur": 461, 
                            "type": "note", 
                            "channel": 3
                        }
                    ]
                ], 
                [
                    199200, 
                    [
                        {
                            "pitch": 55, 
                            "t0": 199200, 
                            "v": 50, 
                            "dur": 455, 
                            "type": "note", 
                            "channel": 3
                        }
                    ]
                ], 
                [
                    199220, 
                    [
                        {
                            "pitch": 59, 
                            "t0": 199220, 
                            "v": 50, 
                            "dur": 468, 
                            "type": "note", 
                            "channel": 3
                        }
                    ]
                ], 
                [
                    199260, 
                    [
                        {
                            "pitch": 67, 
                            "t0": 199260, 
                            "v": 50, 
                            "dur": 443, 
                            "type": "note", 
                            "channel": 3
                        }
                    ]
                ], 
                [
                    199280, 
                    [
                        {
                            "pitch": 71, 
                            "t0": 199280, 
                            "v": 50, 
                            "dur": 377, 
                            "type": "note", 
                            "channel": 3
                        }
                    ]
                ], 
                [
                    199300, 
                    [
                        {
                            "pitch": 74, 
                            "t0": 199300, 
                            "v": 50, 
                            "dur": 461, 
                            "type": "note", 
                            "channel": 3
                        }
                    ]
                ], 
                [
                    199680, 
                    [
                        {
                            "pitch": 57, 
                            "t0": 199680, 
                            "v": 50, 
                            "dur": 420, 
                            "type": "note", 
                            "channel": 3
                        }
                    ]
                ], 
                [
                    199700, 
                    [
                        {
                            "pitch": 60, 
                            "t0": 199700, 
                            "v": 50, 
                            "dur": 436, 
                            "type": "note", 
                            "channel": 3
                        }
                    ]
                ], 
                [
                    199720, 
                    [
                        {
                            "pitch": 64, 
                            "t0": 199720, 
                            "v": 50, 
                            "dur": 450, 
                            "type": "note", 
                            "channel": 3
                        }
                    ]
                ], 
                [
                    199740, 
                    [
                        {
                            "pitch": 69, 
                            "t0": 199740, 
                            "parts": [
                                [
                                    199740, 
                                    50
                                ], 
                                [
                                    200220, 
                                    50
                                ], 
                                [
                                    200228, 
                                    0
                                ]
                            ], 
                            "v": 50, 
                            "dur": 488, 
                            "type": "note", 
                            "channel": 3
                        }
                    ]
                ], 
                [
                    199760, 
                    [
                        {
                            "pitch": 72, 
                            "t0": 199760, 
                            "v": 50, 
                            "dur": 406, 
                            "type": "note", 
                            "channel": 3
                        }
                    ]
                ], 
                [
                    199780, 
                    [
                        {
                            "pitch": 76, 
                            "t0": 199780, 
                            "v": 50, 
                            "dur": 405, 
                            "type": "note", 
                            "channel": 3
                        }
                    ]
                ], 
                [
                    200160, 
                    [
                        {
                            "pitch": 57, 
                            "t0": 200160, 
                            "v": 50, 
                            "dur": 420, 
                            "type": "note", 
                            "channel": 3
                        }
                    ]
                ], 
                [
                    200180, 
                    [
                        {
                            "pitch": 60, 
                            "t0": 200180, 
                            "v": 50, 
                            "dur": 436, 
                            "type": "note", 
                            "channel": 3
                        }
                    ]
                ], 
                [
                    200200, 
                    [
                        {
                            "pitch": 64, 
                            "t0": 200200, 
                            "v": 50, 
                            "dur": 450, 
                            "type": "note", 
                            "channel": 3
                        }
                    ]
                ], 
                [
                    200240, 
                    [
                        {
                            "pitch": 72, 
                            "t0": 200240, 
                            "v": 50, 
                            "dur": 406, 
                            "type": "note", 
                            "channel": 3
                        }
                    ]
                ], 
                [
                    200260, 
                    [
                        {
                            "pitch": 76, 
                            "t0": 200260, 
                            "v": 50, 
                            "dur": 405, 
                            "type": "note", 
                            "channel": 3
                        }
                    ]
                ], 
                [
                    200640, 
                    [
                        {
                            "pitch": 57, 
                            "t0": 200640, 
                            "v": 50, 
                            "dur": 365, 
                            "type": "note", 
                            "channel": 3
                        }
                    ]
                ], 
                [
                    200660, 
                    [
                        {
                            "pitch": 60, 
                            "t0": 200660, 
                            "v": 50, 
                            "dur": 368, 
                            "type": "note", 
                            "channel": 3
                        }
                    ]
                ], 
                [
                    200680, 
                    [
                        {
                            "pitch": 64, 
                            "t0": 200680, 
                            "v": 50, 
                            "dur": 383, 
                            "type": "note", 
                            "channel": 3
                        }
                    ]
                ], 
                [
                    200700, 
                    [
                        {
                            "pitch": 69, 
                            "t0": 200700, 
                            "v": 50, 
                            "dur": 8, 
                            "type": "note", 
                            "channel": 3
                        }
                    ]
                ], 
                [
                    200720, 
                    [
                        {
                            "pitch": 72, 
                            "t0": 200720, 
                            "v": 50, 
                            "dur": 362, 
                            "type": "note", 
                            "channel": 3
                        }
                    ]
                ], 
                [
                    200740, 
                    [
                        {
                            "pitch": 76, 
                            "t0": 200740, 
                            "v": 50, 
                            "dur": 378, 
                            "type": "note", 
                            "channel": 3
                        }
                    ]
                ], 
                [
                    201120, 
                    [
                        {
                            "pitch": 57, 
                            "t0": 201120, 
                            "v": 50, 
                            "dur": 365, 
                            "type": "note", 
                            "channel": 3
                        }
                    ]
                ], 
                [
                    201140, 
                    [
                        {
                            "pitch": 60, 
                            "t0": 201140, 
                            "v": 50, 
                            "dur": 368, 
                            "type": "note", 
                            "channel": 3
                        }
                    ]
                ], 
                [
                    201160, 
                    [
                        {
                            "pitch": 64, 
                            "t0": 201160, 
                            "v": 50, 
                            "dur": 383, 
                            "type": "note", 
                            "channel": 3
                        }
                    ]
                ], 
                [
                    201180, 
                    [
                        {
                            "pitch": 69, 
                            "t0": 201180, 
                            "v": 50, 
                            "dur": 370, 
                            "type": "note", 
                            "channel": 3
                        }
                    ]
                ], 
                [
                    201200, 
                    [
                        {
                            "pitch": 72, 
                            "t0": 201200, 
                            "v": 50, 
                            "dur": 362, 
                            "type": "note", 
                            "channel": 3
                        }
                    ]
                ], 
                [
                    201220, 
                    [
                        {
                            "pitch": 76, 
                            "t0": 201220, 
                            "v": 50, 
                            "dur": 378, 
                            "type": "note", 
                            "channel": 3
                        }
                    ]
                ], 
                [
                    201600, 
                    [
                        {
                            "pitch": 60, 
                            "t0": 201600, 
                            "v": 50, 
                            "dur": 407, 
                            "type": "note", 
                            "channel": 3
                        }
                    ]
                ], 
                [
                    201620, 
                    [
                        {
                            "pitch": 64, 
                            "t0": 201620, 
                            "v": 50, 
                            "dur": 392, 
                            "type": "note", 
                            "channel": 3
                        }
                    ]
                ], 
                [
                    201640, 
                    [
                        {
                            "pitch": 67, 
                            "t0": 201640, 
                            "v": 50, 
                            "dur": 433, 
                            "type": "note", 
                            "channel": 3
                        }
                    ]
                ], 
                [
                    201660, 
                    [
                        {
                            "pitch": 72, 
                            "t0": 201660, 
                            "v": 50, 
                            "dur": 432, 
                            "type": "note", 
                            "channel": 3
                        }
                    ]
                ], 
                [
                    201680, 
                    [
                        {
                            "pitch": 76, 
                            "t0": 201680, 
                            "v": 50, 
                            "dur": 410, 
                            "type": "note", 
                            "channel": 3
                        }
                    ]
                ], 
                [
                    201700, 
                    [
                        {
                            "pitch": 79, 
                            "t0": 201700, 
                            "v": 50, 
                            "dur": 440, 
                            "type": "note", 
                            "channel": 3
                        }
                    ]
                ], 
                [
                    202080, 
                    [
                        {
                            "pitch": 60, 
                            "t0": 202080, 
                            "v": 50, 
                            "dur": 407, 
                            "type": "note", 
                            "channel": 3
                        }
                    ]
                ], 
                [
                    202100, 
                    [
                        {
                            "pitch": 64, 
                            "t0": 202100, 
                            "v": 50, 
                            "dur": 392, 
                            "type": "note", 
                            "channel": 3
                        }
                    ]
                ], 
                [
                    202120, 
                    [
                        {
                            "pitch": 67, 
                            "t0": 202120, 
                            "v": 50, 
                            "dur": 433, 
                            "type": "note", 
                            "channel": 3
                        }
                    ]
                ], 
                [
                    202140, 
                    [
                        {
                            "pitch": 72, 
                            "t0": 202140, 
                            "v": 50, 
                            "dur": 432, 
                            "type": "note", 
                            "channel": 3
                        }
                    ]
                ], 
                [
                    202160, 
                    [
                        {
                            "pitch": 76, 
                            "t0": 202160, 
                            "v": 50, 
                            "dur": 410, 
                            "type": "note", 
                            "channel": 3
                        }
                    ]
                ], 
                [
                    202180, 
                    [
                        {
                            "pitch": 79, 
                            "t0": 202180, 
                            "v": 50, 
                            "dur": 440, 
                            "type": "note", 
                            "channel": 3
                        }
                    ]
                ], 
                [
                    202560, 
                    [
                        {
                            "pitch": 60, 
                            "t0": 202560, 
                            "v": 50, 
                            "dur": 313, 
                            "type": "note", 
                            "channel": 3
                        }
                    ]
                ], 
                [
                    202580, 
                    [
                        {
                            "pitch": 64, 
                            "t0": 202580, 
                            "v": 50, 
                            "dur": 363, 
                            "type": "note", 
                            "channel": 3
                        }
                    ]
                ], 
                [
                    202600, 
                    [
                        {
                            "pitch": 67, 
                            "t0": 202600, 
                            "v": 50, 
                            "dur": 368, 
                            "type": "note", 
                            "channel": 3
                        }
                    ]
                ], 
                [
                    202620, 
                    [
                        {
                            "pitch": 72, 
                            "t0": 202620, 
                            "v": 50, 
                            "dur": 381, 
                            "type": "note", 
                            "channel": 3
                        }
                    ]
                ], 
                [
                    202640, 
                    [
                        {
                            "pitch": 76, 
                            "t0": 202640, 
                            "v": 50, 
                            "dur": 337, 
                            "type": "note", 
                            "channel": 3
                        }
                    ]
                ], 
                [
                    202660, 
                    [
                        {
                            "pitch": 79, 
                            "t0": 202660, 
                            "v": 50, 
                            "dur": 307, 
                            "type": "note", 
                            "channel": 3
                        }
                    ]
                ], 
                [
                    203040, 
                    [
                        {
                            "pitch": 60, 
                            "t0": 203040, 
                            "v": 50, 
                            "dur": 313, 
                            "type": "note", 
                            "channel": 3
                        }
                    ]
                ], 
                [
                    203060, 
                    [
                        {
                            "pitch": 64, 
                            "t0": 203060, 
                            "v": 50, 
                            "dur": 363, 
                            "type": "note", 
                            "channel": 3
                        }
                    ]
                ], 
                [
                    203080, 
                    [
                        {
                            "pitch": 67, 
                            "t0": 203080, 
                            "v": 50, 
                            "dur": 368, 
                            "type": "note", 
                            "channel": 3
                        }
                    ]
                ], 
                [
                    203100, 
                    [
                        {
                            "pitch": 72, 
                            "t0": 203100, 
                            "v": 50, 
                            "dur": 381, 
                            "type": "note", 
                            "channel": 3
                        }
                    ]
                ], 
                [
                    203120, 
                    [
                        {
                            "pitch": 76, 
                            "t0": 203120, 
                            "v": 50, 
                            "dur": 337, 
                            "type": "note", 
                            "channel": 3
                        }
                    ]
                ], 
                [
                    203140, 
                    [
                        {
                            "pitch": 79, 
                            "t0": 203140, 
                            "v": 50, 
                            "dur": 307, 
                            "type": "note", 
                            "channel": 3
                        }
                    ]
                ], 
                [
                    203520, 
                    [
                        {
                            "pitch": 55, 
                            "t0": 203520, 
                            "parts": [
                                [
                                    203520, 
                                    50
                                ], 
                                [
                                    204000, 
                                    50
                                ], 
                                [
                                    204018, 
                                    0
                                ]
                            ], 
                            "v": 50, 
                            "dur": 498, 
                            "type": "note", 
                            "channel": 3
                        }
                    ]
                ], 
                [
                    203540, 
                    [
                        {
                            "pitch": 59, 
                            "t0": 203540, 
                            "parts": [
                                [
                                    203540, 
                                    50
                                ], 
                                [
                                    204020, 
                                    50
                                ], 
                                [
                                    204077, 
                                    0
                                ]
                            ], 
                            "v": 50, 
                            "dur": 537, 
                            "type": "note", 
                            "channel": 3
                        }
                    ]
                ], 
                [
                    203560, 
                    [
                        {
                            "pitch": 62, 
                            "t0": 203560, 
                            "parts": [
                                [
                                    203560, 
                                    50
                                ], 
                                [
                                    204040, 
                                    50
                                ], 
                                [
                                    204107, 
                                    0
                                ]
                            ], 
                            "v": 50, 
                            "dur": 547, 
                            "type": "note", 
                            "channel": 3
                        }
                    ]
                ], 
                [
                    203580, 
                    [
                        {
                            "pitch": 67, 
                            "t0": 203580, 
                            "parts": [
                                [
                                    203580, 
                                    50
                                ], 
                                [
                                    204060, 
                                    50
                                ], 
                                [
                                    204112, 
                                    0
                                ]
                            ], 
                            "v": 50, 
                            "dur": 532, 
                            "type": "note", 
                            "channel": 3
                        }
                    ]
                ], 
                [
                    203600, 
                    [
                        {
                            "pitch": 71, 
                            "t0": 203600, 
                            "parts": [
                                [
                                    203600, 
                                    50
                                ], 
                                [
                                    204080, 
                                    50
                                ], 
                                [
                                    204097, 
                                    0
                                ]
                            ], 
                            "v": 50, 
                            "dur": 497, 
                            "type": "note", 
                            "channel": 3
                        }
                    ]
                ], 
                [
                    203620, 
                    [
                        {
                            "pitch": 74, 
                            "t0": 203620, 
                            "parts": [
                                [
                                    203620, 
                                    50
                                ], 
                                [
                                    204100, 
                                    50
                                ], 
                                [
                                    204117, 
                                    0
                                ]
                            ], 
                            "v": 50, 
                            "dur": 497, 
                            "type": "note", 
                            "channel": 3
                        }
                    ]
                ], 
                [
                    204480, 
                    [
                        {
                            "pitch": 55, 
                            "t0": 204480, 
                            "v": 50, 
                            "dur": 18, 
                            "type": "note", 
                            "channel": 3
                        }
                    ]
                ], 
                [
                    204500, 
                    [
                        {
                            "pitch": 59, 
                            "t0": 204500, 
                            "v": 50, 
                            "dur": 57, 
                            "type": "note", 
                            "channel": 3
                        }
                    ]
                ], 
                [
                    204520, 
                    [
                        {
                            "pitch": 62, 
                            "t0": 204520, 
                            "v": 50, 
                            "dur": 67, 
                            "type": "note", 
                            "channel": 3
                        }
                    ]
                ], 
                [
                    204540, 
                    [
                        {
                            "pitch": 67, 
                            "t0": 204540, 
                            "v": 50, 
                            "dur": 52, 
                            "type": "note", 
                            "channel": 3
                        }
                    ]
                ], 
                [
                    204560, 
                    [
                        {
                            "pitch": 71, 
                            "t0": 204560, 
                            "v": 50, 
                            "dur": 17, 
                            "type": "note", 
                            "channel": 3
                        }
                    ]
                ], 
                [
                    204580, 
                    [
                        {
                            "pitch": 74, 
                            "t0": 204580, 
                            "v": 50, 
                            "dur": 17, 
                            "type": "note", 
                            "channel": 3
                        }
                    ]
                ], 
                [
                    204960, 
                    [
                        {
                            "pitch": 55, 
                            "t0": 204960, 
                            "v": 50, 
                            "dur": 445, 
                            "type": "note", 
                            "channel": 3
                        }
                    ]
                ], 
                [
                    204980, 
                    [
                        {
                            "pitch": 59, 
                            "t0": 204980, 
                            "v": 50, 
                            "dur": 2, 
                            "type": "note", 
                            "channel": 3
                        }
                    ]
                ], 
                [
                    205000, 
                    [
                        {
                            "pitch": 62, 
                            "t0": 205000, 
                            "v": 50, 
                            "dur": 26, 
                            "type": "note", 
                            "channel": 3
                        }
                    ]
                ], 
                [
                    205020, 
                    [
                        {
                            "pitch": 67, 
                            "t0": 205020, 
                            "v": 50, 
                            "dur": 445, 
                            "type": "note", 
                            "channel": 3
                        }
                    ]
                ], 
                [
                    205040, 
                    [
                        {
                            "pitch": 71, 
                            "t0": 205040, 
                            "v": 50, 
                            "dur": 450, 
                            "type": "note", 
                            "channel": 3
                        }
                    ]
                ], 
                [
                    205060, 
                    [
                        {
                            "pitch": 74, 
                            "t0": 205060, 
                            "v": 50, 
                            "dur": 461, 
                            "type": "note", 
                            "channel": 3
                        }
                    ]
                ], 
                [
                    205440, 
                    [
                        {
                            "pitch": 57, 
                            "t0": 205440, 
                            "parts": [
                                [
                                    205440, 
                                    50
                                ], 
                                [
                                    205920, 
                                    50
                                ], 
                                [
                                    205946, 
                                    0
                                ]
                            ], 
                            "v": 50, 
                            "dur": 506, 
                            "type": "note", 
                            "channel": 3
                        }
                    ]
                ], 
                [
                    205460, 
                    [
                        {
                            "pitch": 60, 
                            "t0": 205460, 
                            "parts": [
                                [
                                    205460, 
                                    50
                                ], 
                                [
                                    205940, 
                                    50
                                ], 
                                [
                                    205985, 
                                    0
                                ]
                            ], 
                            "v": 50, 
                            "dur": 525, 
                            "type": "note", 
                            "channel": 3
                        }
                    ]
                ], 
                [
                    205480, 
                    [
                        {
                            "pitch": 64, 
                            "t0": 205480, 
                            "parts": [
                                [
                                    205480, 
                                    50
                                ], 
                                [
                                    205960, 
                                    50
                                ], 
                                [
                                    206051, 
                                    0
                                ]
                            ], 
                            "v": 50, 
                            "dur": 571, 
                            "type": "note", 
                            "channel": 3
                        }
                    ]
                ], 
                [
                    205500, 
                    [
                        {
                            "pitch": 69, 
                            "t0": 205500, 
                            "parts": [
                                [
                                    205500, 
                                    50
                                ], 
                                [
                                    205980, 
                                    50
                                ], 
                                [
                                    206043, 
                                    0
                                ]
                            ], 
                            "v": 50, 
                            "dur": 543, 
                            "type": "note", 
                            "channel": 3
                        }
                    ]
                ], 
                [
                    205520, 
                    [
                        {
                            "pitch": 72, 
                            "t0": 205520, 
                            "parts": [
                                [
                                    205520, 
                                    50
                                ], 
                                [
                                    206000, 
                                    50
                                ], 
                                [
                                    206026, 
                                    0
                                ]
                            ], 
                            "v": 50, 
                            "dur": 506, 
                            "type": "note", 
                            "channel": 3
                        }
                    ]
                ], 
                [
                    205540, 
                    [
                        {
                            "pitch": 76, 
                            "t0": 205540, 
                            "v": 50, 
                            "dur": 416, 
                            "type": "note", 
                            "channel": 3
                        }
                    ]
                ], 
                [
                    206020, 
                    [
                        {
                            "pitch": 76, 
                            "t0": 206020, 
                            "v": 50, 
                            "dur": 416, 
                            "type": "note", 
                            "channel": 3
                        }
                    ]
                ], 
                [
                    206400, 
                    [
                        {
                            "pitch": 57, 
                            "t0": 206400, 
                            "v": 50, 
                            "dur": 26, 
                            "type": "note", 
                            "channel": 3
                        }
                    ]
                ], 
                [
                    206420, 
                    [
                        {
                            "pitch": 60, 
                            "t0": 206420, 
                            "v": 50, 
                            "dur": 45, 
                            "type": "note", 
                            "channel": 3
                        }
                    ]
                ], 
                [
                    206440, 
                    [
                        {
                            "pitch": 64, 
                            "t0": 206440, 
                            "v": 50, 
                            "dur": 91, 
                            "type": "note", 
                            "channel": 3
                        }
                    ]
                ], 
                [
                    206460, 
                    [
                        {
                            "pitch": 69, 
                            "t0": 206460, 
                            "v": 50, 
                            "dur": 63, 
                            "type": "note", 
                            "channel": 3
                        }
                    ]
                ], 
                [
                    206480, 
                    [
                        {
                            "pitch": 72, 
                            "t0": 206480, 
                            "v": 50, 
                            "dur": 26, 
                            "type": "note", 
                            "channel": 3
                        }
                    ]
                ], 
                [
                    206500, 
                    [
                        {
                            "pitch": 76, 
                            "t0": 206500, 
                            "v": 50, 
                            "dur": 322, 
                            "type": "note", 
                            "channel": 3
                        }
                    ]
                ], 
                [
                    206880, 
                    [
                        {
                            "pitch": 57, 
                            "t0": 206880, 
                            "v": 50, 
                            "dur": 376, 
                            "type": "note", 
                            "channel": 3
                        }
                    ]
                ], 
                [
                    206900, 
                    [
                        {
                            "pitch": 60, 
                            "t0": 206900, 
                            "v": 50, 
                            "dur": 377, 
                            "type": "note", 
                            "channel": 3
                        }
                    ]
                ], 
                [
                    206920, 
                    [
                        {
                            "pitch": 64, 
                            "t0": 206920, 
                            "v": 50, 
                            "dur": 360, 
                            "type": "note", 
                            "channel": 3
                        }
                    ]
                ], 
                [
                    206940, 
                    [
                        {
                            "pitch": 69, 
                            "t0": 206940, 
                            "v": 50, 
                            "dur": 395, 
                            "type": "note", 
                            "channel": 3
                        }
                    ]
                ], 
                [
                    206960, 
                    [
                        {
                            "pitch": 72, 
                            "t0": 206960, 
                            "v": 50, 
                            "dur": 340, 
                            "type": "note", 
                            "channel": 3
                        }
                    ]
                ], 
                [
                    206980, 
                    [
                        {
                            "pitch": 76, 
                            "t0": 206980, 
                            "v": 50, 
                            "dur": 322, 
                            "type": "note", 
                            "channel": 3
                        }
                    ]
                ], 
                [
                    207360, 
                    [
                        {
                            "pitch": 52, 
                            "t0": 207360, 
                            "v": 50, 
                            "dur": 455, 
                            "type": "note", 
                            "channel": 3
                        }
                    ]
                ], 
                [
                    207380, 
                    [
                        {
                            "pitch": 55, 
                            "t0": 207380, 
                            "v": 50, 
                            "dur": 478, 
                            "type": "note", 
                            "channel": 3
                        }
                    ]
                ], 
                [
                    207400, 
                    [
                        {
                            "pitch": 59, 
                            "t0": 207400, 
                            "parts": [
                                [
                                    207400, 
                                    50
                                ], 
                                [
                                    207880, 
                                    50
                                ], 
                                [
                                    207903, 
                                    0
                                ]
                            ], 
                            "v": 50, 
                            "dur": 503, 
                            "type": "note", 
                            "channel": 3
                        }
                    ]
                ], 
                [
                    207420, 
                    [
                        {
                            "pitch": 64, 
                            "t0": 207420, 
                            "v": 50, 
                            "dur": 445, 
                            "type": "note", 
                            "channel": 3
                        }
                    ]
                ], 
                [
                    207440, 
                    [
                        {
                            "pitch": 67, 
                            "t0": 207440, 
                            "v": 50, 
                            "dur": 455, 
                            "type": "note", 
                            "channel": 3
                        }
                    ]
                ], 
                [
                    207460, 
                    [
                        {
                            "pitch": 71, 
                            "t0": 207460, 
                            "v": 50, 
                            "dur": 403, 
                            "type": "note", 
                            "channel": 3
                        }
                    ]
                ], 
                [
                    207840, 
                    [
                        {
                            "pitch": 52, 
                            "t0": 207840, 
                            "v": 50, 
                            "dur": 455, 
                            "type": "note", 
                            "channel": 3
                        }
                    ]
                ], 
                [
                    207860, 
                    [
                        {
                            "pitch": 55, 
                            "t0": 207860, 
                            "v": 50, 
                            "dur": 478, 
                            "type": "note", 
                            "channel": 3
                        }
                    ]
                ], 
                [
                    207900, 
                    [
                        {
                            "pitch": 64, 
                            "t0": 207900, 
                            "v": 50, 
                            "dur": 445, 
                            "type": "note", 
                            "channel": 3
                        }
                    ]
                ], 
                [
                    207920, 
                    [
                        {
                            "pitch": 67, 
                            "t0": 207920, 
                            "v": 50, 
                            "dur": 455, 
                            "type": "note", 
                            "channel": 3
                        }
                    ]
                ], 
                [
                    207940, 
                    [
                        {
                            "pitch": 71, 
                            "t0": 207940, 
                            "v": 50, 
                            "dur": 403, 
                            "type": "note", 
                            "channel": 3
                        }
                    ]
                ], 
                [
                    208320, 
                    [
                        {
                            "pitch": 52, 
                            "t0": 208320, 
                            "parts": [
                                [
                                    208320, 
                                    50
                                ], 
                                [
                                    208800, 
                                    50
                                ], 
                                [
                                    208823, 
                                    0
                                ]
                            ], 
                            "v": 50, 
                            "dur": 503, 
                            "type": "note", 
                            "channel": 3
                        }
                    ]
                ], 
                [
                    208340, 
                    [
                        {
                            "pitch": 55, 
                            "t0": 208340, 
                            "parts": [
                                [
                                    208340, 
                                    50
                                ], 
                                [
                                    208820, 
                                    50
                                ], 
                                [
                                    208855, 
                                    0
                                ]
                            ], 
                            "v": 50, 
                            "dur": 515, 
                            "type": "note", 
                            "channel": 3
                        }
                    ]
                ], 
                [
                    208360, 
                    [
                        {
                            "pitch": 59, 
                            "t0": 208360, 
                            "v": 50, 
                            "dur": 23, 
                            "type": "note", 
                            "channel": 3
                        }
                    ]
                ], 
                [
                    208380, 
                    [
                        {
                            "pitch": 64, 
                            "t0": 208380, 
                            "v": 50, 
                            "dur": 460, 
                            "type": "note", 
                            "channel": 3
                        }
                    ]
                ], 
                [
                    208400, 
                    [
                        {
                            "pitch": 67, 
                            "t0": 208400, 
                            "v": 50, 
                            "dur": 438, 
                            "type": "note", 
                            "channel": 3
                        }
                    ]
                ], 
                [
                    208420, 
                    [
                        {
                            "pitch": 71, 
                            "t0": 208420, 
                            "v": 50, 
                            "dur": 465, 
                            "type": "note", 
                            "channel": 3
                        }
                    ]
                ], 
                [
                    208840, 
                    [
                        {
                            "pitch": 59, 
                            "t0": 208840, 
                            "v": 50, 
                            "dur": 48, 
                            "type": "note", 
                            "channel": 3
                        }
                    ]
                ], 
                [
                    208860, 
                    [
                        {
                            "pitch": 64, 
                            "t0": 208860, 
                            "v": 50, 
                            "dur": 460, 
                            "type": "note", 
                            "channel": 3
                        }
                    ]
                ], 
                [
                    208880, 
                    [
                        {
                            "pitch": 67, 
                            "t0": 208880, 
                            "v": 50, 
                            "dur": 438, 
                            "type": "note", 
                            "channel": 3
                        }
                    ]
                ], 
                [
                    208900, 
                    [
                        {
                            "pitch": 71, 
                            "t0": 208900, 
                            "v": 50, 
                            "dur": 465, 
                            "type": "note", 
                            "channel": 3
                        }
                    ]
                ], 
                [
                    209280, 
                    [
                        {
                            "pitch": 53, 
                            "t0": 209280, 
                            "v": 50, 
                            "dur": 375, 
                            "type": "note", 
                            "channel": 3
                        }
                    ]
                ], 
                [
                    209300, 
                    [
                        {
                            "pitch": 57, 
                            "t0": 209300, 
                            "v": 50, 
                            "dur": 403, 
                            "type": "note", 
                            "channel": 3
                        }
                    ]
                ], 
                [
                    209320, 
                    [
                        {
                            "pitch": 60, 
                            "t0": 209320, 
                            "v": 50, 
                            "dur": 421, 
                            "type": "note", 
                            "channel": 3
                        }
                    ]
                ], 
                [
                    209340, 
                    [
                        {
                            "pitch": 65, 
                            "t0": 209340, 
                            "v": 50, 
                            "dur": 345, 
                            "type": "note", 
                            "channel": 3
                        }
                    ]
                ], 
                [
                    209360, 
                    [
                        {
                            "pitch": 69, 
                            "t0": 209360, 
                            "v": 50, 
                            "dur": 365, 
                            "type": "note", 
                            "channel": 3
                        }
                    ]
                ], 
                [
                    209380, 
                    [
                        {
                            "pitch": 72, 
                            "t0": 209380, 
                            "v": 50, 
                            "dur": 378, 
                            "type": "note", 
                            "channel": 3
                        }
                    ]
                ], 
                [
                    209760, 
                    [
                        {
                            "pitch": 53, 
                            "t0": 209760, 
                            "v": 50, 
                            "dur": 375, 
                            "type": "note", 
                            "channel": 3
                        }
                    ]
                ], 
                [
                    209780, 
                    [
                        {
                            "pitch": 57, 
                            "t0": 209780, 
                            "v": 50, 
                            "dur": 403, 
                            "type": "note", 
                            "channel": 3
                        }
                    ]
                ], 
                [
                    209800, 
                    [
                        {
                            "pitch": 60, 
                            "t0": 209800, 
                            "v": 50, 
                            "dur": 421, 
                            "type": "note", 
                            "channel": 3
                        }
                    ]
                ], 
                [
                    209820, 
                    [
                        {
                            "pitch": 65, 
                            "t0": 209820, 
                            "v": 50, 
                            "dur": 345, 
                            "type": "note", 
                            "channel": 3
                        }
                    ]
                ], 
                [
                    209840, 
                    [
                        {
                            "pitch": 69, 
                            "t0": 209840, 
                            "v": 50, 
                            "dur": 365, 
                            "type": "note", 
                            "channel": 3
                        }
                    ]
                ], 
                [
                    209860, 
                    [
                        {
                            "pitch": 72, 
                            "t0": 209860, 
                            "v": 50, 
                            "dur": 378, 
                            "type": "note", 
                            "channel": 3
                        }
                    ]
                ], 
                [
                    210240, 
                    [
                        {
                            "pitch": 55, 
                            "t0": 210240, 
                            "v": 50, 
                            "dur": 433, 
                            "type": "note", 
                            "channel": 3
                        }
                    ]
                ], 
                [
                    210260, 
                    [
                        {
                            "pitch": 59, 
                            "t0": 210260, 
                            "v": 50, 
                            "dur": 388, 
                            "type": "note", 
                            "channel": 3
                        }
                    ]
                ], 
                [
                    210280, 
                    [
                        {
                            "pitch": 62, 
                            "t0": 210280, 
                            "v": 50, 
                            "dur": 470, 
                            "type": "note", 
                            "channel": 3
                        }
                    ]
                ], 
                [
                    210300, 
                    [
                        {
                            "pitch": 67, 
                            "t0": 210300, 
                            "v": 50, 
                            "dur": 381, 
                            "type": "note", 
                            "channel": 3
                        }
                    ]
                ], 
                [
                    210320, 
                    [
                        {
                            "pitch": 71, 
                            "t0": 210320, 
                            "v": 50, 
                            "dur": 397, 
                            "type": "note", 
                            "channel": 3
                        }
                    ]
                ], 
                [
                    210340, 
                    [
                        {
                            "pitch": 74, 
                            "t0": 210340, 
                            "v": 50, 
                            "dur": 373, 
                            "type": "note", 
                            "channel": 3
                        }
                    ]
                ], 
                [
                    210720, 
                    [
                        {
                            "pitch": 55, 
                            "t0": 210720, 
                            "v": 50, 
                            "dur": 433, 
                            "type": "note", 
                            "channel": 3
                        }
                    ]
                ], 
                [
                    210740, 
                    [
                        {
                            "pitch": 59, 
                            "t0": 210740, 
                            "v": 50, 
                            "dur": 388, 
                            "type": "note", 
                            "channel": 3
                        }
                    ]
                ], 
                [
                    210760, 
                    [
                        {
                            "pitch": 62, 
                            "t0": 210760, 
                            "v": 50, 
                            "dur": 470, 
                            "type": "note", 
                            "channel": 3
                        }
                    ]
                ], 
                [
                    210780, 
                    [
                        {
                            "pitch": 67, 
                            "t0": 210780, 
                            "v": 50, 
                            "dur": 381, 
                            "type": "note", 
                            "channel": 3
                        }
                    ]
                ], 
                [
                    210800, 
                    [
                        {
                            "pitch": 71, 
                            "t0": 210800, 
                            "v": 50, 
                            "dur": 397, 
                            "type": "note", 
                            "channel": 3
                        }
                    ]
                ], 
                [
                    210820, 
                    [
                        {
                            "pitch": 74, 
                            "t0": 210820, 
                            "v": 50, 
                            "dur": 373, 
                            "type": "note", 
                            "channel": 3
                        }
                    ]
                ], 
                [
                    211200, 
                    [
                        {
                            "pitch": 57, 
                            "t0": 211200, 
                            "parts": [
                                [
                                    211200, 
                                    50
                                ], 
                                [
                                    211680, 
                                    50
                                ], 
                                [
                                    211715, 
                                    0
                                ]
                            ], 
                            "v": 50, 
                            "dur": 515, 
                            "type": "note", 
                            "channel": 3
                        }
                    ]
                ], 
                [
                    211220, 
                    [
                        {
                            "pitch": 60, 
                            "t0": 211220, 
                            "parts": [
                                [
                                    211220, 
                                    50
                                ], 
                                [
                                    211700, 
                                    50
                                ], 
                                [
                                    211768, 
                                    0
                                ]
                            ], 
                            "v": 50, 
                            "dur": 548, 
                            "type": "note", 
                            "channel": 3
                        }
                    ]
                ], 
                [
                    211240, 
                    [
                        {
                            "pitch": 64, 
                            "t0": 211240, 
                            "parts": [
                                [
                                    211240, 
                                    50
                                ], 
                                [
                                    211720, 
                                    50
                                ], 
                                [
                                    211795, 
                                    0
                                ]
                            ], 
                            "v": 50, 
                            "dur": 555, 
                            "type": "note", 
                            "channel": 3
                        }
                    ]
                ], 
                [
                    211260, 
                    [
                        {
                            "pitch": 69, 
                            "t0": 211260, 
                            "parts": [
                                [
                                    211260, 
                                    50
                                ], 
                                [
                                    211740, 
                                    50
                                ], 
                                [
                                    211803, 
                                    0
                                ]
                            ], 
                            "v": 50, 
                            "dur": 543, 
                            "type": "note", 
                            "channel": 3
                        }
                    ]
                ], 
                [
                    211280, 
                    [
                        {
                            "pitch": 72, 
                            "t0": 211280, 
                            "parts": [
                                [
                                    211280, 
                                    50
                                ], 
                                [
                                    211760, 
                                    50
                                ], 
                                [
                                    211786, 
                                    0
                                ]
                            ], 
                            "v": 50, 
                            "dur": 506, 
                            "type": "note", 
                            "channel": 3
                        }
                    ]
                ], 
                [
                    211300, 
                    [
                        {
                            "pitch": 76, 
                            "t0": 211300, 
                            "parts": [
                                [
                                    211300, 
                                    50
                                ], 
                                [
                                    211780, 
                                    50
                                ], 
                                [
                                    211817, 
                                    0
                                ]
                            ], 
                            "v": 50, 
                            "dur": 517, 
                            "type": "note", 
                            "channel": 3
                        }
                    ]
                ], 
                [
                    212160, 
                    [
                        {
                            "pitch": 57, 
                            "t0": 212160, 
                            "v": 50, 
                            "dur": 35, 
                            "type": "note", 
                            "channel": 3
                        }
                    ]
                ], 
                [
                    212180, 
                    [
                        {
                            "pitch": 60, 
                            "t0": 212180, 
                            "v": 50, 
                            "dur": 68, 
                            "type": "note", 
                            "channel": 3
                        }
                    ]
                ], 
                [
                    212200, 
                    [
                        {
                            "pitch": 64, 
                            "t0": 212200, 
                            "v": 50, 
                            "dur": 75, 
                            "type": "note", 
                            "channel": 3
                        }
                    ]
                ], 
                [
                    212220, 
                    [
                        {
                            "pitch": 69, 
                            "t0": 212220, 
                            "v": 50, 
                            "dur": 63, 
                            "type": "note", 
                            "channel": 3
                        }
                    ]
                ], 
                [
                    212240, 
                    [
                        {
                            "pitch": 72, 
                            "t0": 212240, 
                            "v": 50, 
                            "dur": 26, 
                            "type": "note", 
                            "channel": 3
                        }
                    ]
                ], 
                [
                    212260, 
                    [
                        {
                            "pitch": 76, 
                            "t0": 212260, 
                            "v": 50, 
                            "dur": 37, 
                            "type": "note", 
                            "channel": 3
                        }
                    ]
                ], 
                [
                    212640, 
                    [
                        {
                            "pitch": 57, 
                            "t0": 212640, 
                            "v": 50, 
                            "dur": 62, 
                            "type": "note", 
                            "channel": 3
                        }
                    ]
                ], 
                [
                    212660, 
                    [
                        {
                            "pitch": 60, 
                            "t0": 212660, 
                            "v": 50, 
                            "dur": 88, 
                            "type": "note", 
                            "channel": 3
                        }
                    ]
                ], 
                [
                    212680, 
                    [
                        {
                            "pitch": 64, 
                            "t0": 212680, 
                            "v": 50, 
                            "dur": 122, 
                            "type": "note", 
                            "channel": 3
                        }
                    ]
                ], 
                [
                    212700, 
                    [
                        {
                            "pitch": 69, 
                            "t0": 212700, 
                            "v": 50, 
                            "dur": 66, 
                            "type": "note", 
                            "channel": 3
                        }
                    ]
                ], 
                [
                    212720, 
                    [
                        {
                            "pitch": 72, 
                            "t0": 212720, 
                            "v": 50, 
                            "dur": 68, 
                            "type": "note", 
                            "channel": 3
                        }
                    ]
                ], 
                [
                    212740, 
                    [
                        {
                            "pitch": 76, 
                            "t0": 212740, 
                            "v": 50, 
                            "dur": 70, 
                            "type": "note", 
                            "channel": 3
                        }
                    ]
                ], 
                [
                    213120, 
                    [
                        {
                            "pitch": 60, 
                            "t0": 213120, 
                            "v": 50, 
                            "dur": 108, 
                            "type": "note", 
                            "channel": 3
                        }
                    ]
                ], 
                [
                    213140, 
                    [
                        {
                            "pitch": 64, 
                            "t0": 213140, 
                            "v": 50, 
                            "dur": 142, 
                            "type": "note", 
                            "channel": 3
                        }
                    ]
                ], 
                [
                    213160, 
                    [
                        {
                            "pitch": 67, 
                            "t0": 213160, 
                            "v": 50, 
                            "dur": 430, 
                            "type": "note", 
                            "channel": 3
                        }
                    ]
                ], 
                [
                    213180, 
                    [
                        {
                            "pitch": 72, 
                            "t0": 213180, 
                            "v": 50, 
                            "dur": 88, 
                            "type": "note", 
                            "channel": 3
                        }
                    ]
                ], 
                [
                    213200, 
                    [
                        {
                            "pitch": 76, 
                            "t0": 213200, 
                            "v": 50, 
                            "dur": 90, 
                            "type": "note", 
                            "channel": 3
                        }
                    ]
                ], 
                [
                    213220, 
                    [
                        {
                            "pitch": 79, 
                            "t0": 213220, 
                            "v": 50, 
                            "dur": 403, 
                            "type": "note", 
                            "channel": 3
                        }
                    ]
                ], 
                [
                    213600, 
                    [
                        {
                            "pitch": 60, 
                            "t0": 213600, 
                            "v": 50, 
                            "dur": 401, 
                            "type": "note", 
                            "channel": 3
                        }
                    ]
                ], 
                [
                    213620, 
                    [
                        {
                            "pitch": 64, 
                            "t0": 213620, 
                            "v": 50, 
                            "dur": 432, 
                            "type": "note", 
                            "channel": 3
                        }
                    ]
                ], 
                [
                    213640, 
                    [
                        {
                            "pitch": 67, 
                            "t0": 213640, 
                            "v": 50, 
                            "dur": 430, 
                            "type": "note", 
                            "channel": 3
                        }
                    ]
                ], 
                [
                    213660, 
                    [
                        {
                            "pitch": 72, 
                            "t0": 213660, 
                            "v": 50, 
                            "dur": 453, 
                            "type": "note", 
                            "channel": 3
                        }
                    ]
                ], 
                [
                    213680, 
                    [
                        {
                            "pitch": 76, 
                            "t0": 213680, 
                            "v": 50, 
                            "dur": 402, 
                            "type": "note", 
                            "channel": 3
                        }
                    ]
                ], 
                [
                    213700, 
                    [
                        {
                            "pitch": 79, 
                            "t0": 213700, 
                            "v": 50, 
                            "dur": 403, 
                            "type": "note", 
                            "channel": 3
                        }
                    ]
                ], 
                [
                    214080, 
                    [
                        {
                            "pitch": 55, 
                            "t0": 214080, 
                            "v": 50, 
                            "dur": 393, 
                            "type": "note", 
                            "channel": 3
                        }
                    ]
                ], 
                [
                    214100, 
                    [
                        {
                            "pitch": 59, 
                            "t0": 214100, 
                            "v": 50, 
                            "dur": 440, 
                            "type": "note", 
                            "channel": 3
                        }
                    ]
                ], 
                [
                    214120, 
                    [
                        {
                            "pitch": 62, 
                            "t0": 214120, 
                            "v": 50, 
                            "dur": 467, 
                            "type": "note", 
                            "channel": 3
                        }
                    ]
                ], 
                [
                    214140, 
                    [
                        {
                            "pitch": 67, 
                            "t0": 214140, 
                            "v": 50, 
                            "dur": 410, 
                            "type": "note", 
                            "channel": 3
                        }
                    ]
                ], 
                [
                    214160, 
                    [
                        {
                            "pitch": 71, 
                            "t0": 214160, 
                            "v": 50, 
                            "dur": 387, 
                            "type": "note", 
                            "channel": 3
                        }
                    ]
                ], 
                [
                    214180, 
                    [
                        {
                            "pitch": 74, 
                            "t0": 214180, 
                            "v": 50, 
                            "dur": 370, 
                            "type": "note", 
                            "channel": 3
                        }
                    ]
                ], 
                [
                    214560, 
                    [
                        {
                            "pitch": 55, 
                            "t0": 214560, 
                            "v": 50, 
                            "dur": 393, 
                            "type": "note", 
                            "channel": 3
                        }
                    ]
                ], 
                [
                    214580, 
                    [
                        {
                            "pitch": 59, 
                            "t0": 214580, 
                            "v": 50, 
                            "dur": 440, 
                            "type": "note", 
                            "channel": 3
                        }
                    ]
                ], 
                [
                    214600, 
                    [
                        {
                            "pitch": 62, 
                            "t0": 214600, 
                            "v": 50, 
                            "dur": 467, 
                            "type": "note", 
                            "channel": 3
                        }
                    ]
                ], 
                [
                    214620, 
                    [
                        {
                            "pitch": 67, 
                            "t0": 214620, 
                            "v": 50, 
                            "dur": 410, 
                            "type": "note", 
                            "channel": 3
                        }
                    ]
                ], 
                [
                    214640, 
                    [
                        {
                            "pitch": 71, 
                            "t0": 214640, 
                            "v": 50, 
                            "dur": 387, 
                            "type": "note", 
                            "channel": 3
                        }
                    ]
                ], 
                [
                    214660, 
                    [
                        {
                            "pitch": 74, 
                            "t0": 214660, 
                            "v": 50, 
                            "dur": 370, 
                            "type": "note", 
                            "channel": 3
                        }
                    ]
                ], 
                [
                    215040, 
                    [
                        {
                            "pitch": 57, 
                            "t0": 215040, 
                            "v": 50, 
                            "dur": 305, 
                            "type": "note", 
                            "channel": 3
                        }
                    ]
                ], 
                [
                    215060, 
                    [
                        {
                            "pitch": 60, 
                            "t0": 215060, 
                            "v": 50, 
                            "dur": 317, 
                            "type": "note", 
                            "channel": 3
                        }
                    ]
                ], 
                [
                    215080, 
                    [
                        {
                            "pitch": 64, 
                            "t0": 215080, 
                            "v": 50, 
                            "dur": 322, 
                            "type": "note", 
                            "channel": 3
                        }
                    ]
                ], 
                [
                    215100, 
                    [
                        {
                            "pitch": 69, 
                            "t0": 215100, 
                            "v": 50, 
                            "dur": 346, 
                            "type": "note", 
                            "channel": 3
                        }
                    ]
                ], 
                [
                    215120, 
                    [
                        {
                            "pitch": 72, 
                            "t0": 215120, 
                            "v": 50, 
                            "dur": 321, 
                            "type": "note", 
                            "channel": 3
                        }
                    ]
                ], 
                [
                    215140, 
                    [
                        {
                            "pitch": 76, 
                            "t0": 215140, 
                            "v": 50, 
                            "dur": 305, 
                            "type": "note", 
                            "channel": 3
                        }
                    ]
                ], 
                [
                    215520, 
                    [
                        {
                            "pitch": 57, 
                            "t0": 215520, 
                            "v": 50, 
                            "dur": 305, 
                            "type": "note", 
                            "channel": 3
                        }
                    ]
                ], 
                [
                    215540, 
                    [
                        {
                            "pitch": 60, 
                            "t0": 215540, 
                            "v": 50, 
                            "dur": 317, 
                            "type": "note", 
                            "channel": 3
                        }
                    ]
                ], 
                [
                    215560, 
                    [
                        {
                            "pitch": 64, 
                            "t0": 215560, 
                            "v": 50, 
                            "dur": 322, 
                            "type": "note", 
                            "channel": 3
                        }
                    ]
                ], 
                [
                    215580, 
                    [
                        {
                            "pitch": 69, 
                            "t0": 215580, 
                            "v": 50, 
                            "dur": 346, 
                            "type": "note", 
                            "channel": 3
                        }
                    ]
                ], 
                [
                    215600, 
                    [
                        {
                            "pitch": 72, 
                            "t0": 215600, 
                            "v": 50, 
                            "dur": 321, 
                            "type": "note", 
                            "channel": 3
                        }
                    ]
                ], 
                [
                    215620, 
                    [
                        {
                            "pitch": 76, 
                            "t0": 215620, 
                            "v": 50, 
                            "dur": 305, 
                            "type": "note", 
                            "channel": 3
                        }
                    ]
                ], 
                [
                    216000, 
                    [
                        {
                            "pitch": 52, 
                            "t0": 216000, 
                            "v": 50, 
                            "dur": 426, 
                            "type": "note", 
                            "channel": 3
                        }
                    ]
                ], 
                [
                    216020, 
                    [
                        {
                            "pitch": 55, 
                            "t0": 216020, 
                            "v": 50, 
                            "dur": 462, 
                            "type": "note", 
                            "channel": 3
                        }
                    ]
                ], 
                [
                    216040, 
                    [
                        {
                            "pitch": 59, 
                            "t0": 216040, 
                            "v": 50, 
                            "dur": 475, 
                            "type": "note", 
                            "channel": 3
                        }
                    ]
                ], 
                [
                    216060, 
                    [
                        {
                            "pitch": 64, 
                            "t0": 216060, 
                            "v": 50, 
                            "dur": 375, 
                            "type": "note", 
                            "channel": 3
                        }
                    ]
                ], 
                [
                    216080, 
                    [
                        {
                            "pitch": 67, 
                            "t0": 216080, 
                            "v": 50, 
                            "dur": 411, 
                            "type": "note", 
                            "channel": 3
                        }
                    ]
                ], 
                [
                    216100, 
                    [
                        {
                            "pitch": 71, 
                            "t0": 216100, 
                            "v": 50, 
                            "dur": 387, 
                            "type": "note", 
                            "channel": 3
                        }
                    ]
                ], 
                [
                    216480, 
                    [
                        {
                            "pitch": 52, 
                            "t0": 216480, 
                            "v": 50, 
                            "dur": 426, 
                            "type": "note", 
                            "channel": 3
                        }
                    ]
                ], 
                [
                    216500, 
                    [
                        {
                            "pitch": 55, 
                            "t0": 216500, 
                            "v": 50, 
                            "dur": 462, 
                            "type": "note", 
                            "channel": 3
                        }
                    ]
                ], 
                [
                    216520, 
                    [
                        {
                            "pitch": 59, 
                            "t0": 216520, 
                            "v": 50, 
                            "dur": 475, 
                            "type": "note", 
                            "channel": 3
                        }
                    ]
                ], 
                [
                    216540, 
                    [
                        {
                            "pitch": 64, 
                            "t0": 216540, 
                            "v": 50, 
                            "dur": 375, 
                            "type": "note", 
                            "channel": 3
                        }
                    ]
                ], 
                [
                    216560, 
                    [
                        {
                            "pitch": 67, 
                            "t0": 216560, 
                            "v": 50, 
                            "dur": 411, 
                            "type": "note", 
                            "channel": 3
                        }
                    ]
                ], 
                [
                    216580, 
                    [
                        {
                            "pitch": 71, 
                            "t0": 216580, 
                            "v": 50, 
                            "dur": 387, 
                            "type": "note", 
                            "channel": 3
                        }
                    ]
                ], 
                [
                    216960, 
                    [
                        {
                            "pitch": 53, 
                            "t0": 216960, 
                            "v": 50, 
                            "dur": 395, 
                            "type": "note", 
                            "channel": 3
                        }
                    ]
                ], 
                [
                    216980, 
                    [
                        {
                            "pitch": 57, 
                            "t0": 216980, 
                            "v": 50, 
                            "dur": 457, 
                            "type": "note", 
                            "channel": 3
                        }
                    ]
                ], 
                [
                    217000, 
                    [
                        {
                            "pitch": 60, 
                            "t0": 217000, 
                            "v": 50, 
                            "dur": 463, 
                            "type": "note", 
                            "channel": 3
                        }
                    ]
                ], 
                [
                    217020, 
                    [
                        {
                            "pitch": 65, 
                            "t0": 217020, 
                            "v": 50, 
                            "dur": 416, 
                            "type": "note", 
                            "channel": 3
                        }
                    ]
                ], 
                [
                    217040, 
                    [
                        {
                            "pitch": 69, 
                            "t0": 217040, 
                            "v": 50, 
                            "dur": 400, 
                            "type": "note", 
                            "channel": 3
                        }
                    ]
                ], 
                [
                    217060, 
                    [
                        {
                            "pitch": 72, 
                            "t0": 217060, 
                            "v": 50, 
                            "dur": 423, 
                            "type": "note", 
                            "channel": 3
                        }
                    ]
                ], 
                [
                    217440, 
                    [
                        {
                            "pitch": 53, 
                            "t0": 217440, 
                            "v": 50, 
                            "dur": 395, 
                            "type": "note", 
                            "channel": 3
                        }
                    ]
                ], 
                [
                    217460, 
                    [
                        {
                            "pitch": 57, 
                            "t0": 217460, 
                            "v": 50, 
                            "dur": 457, 
                            "type": "note", 
                            "channel": 3
                        }
                    ]
                ], 
                [
                    217480, 
                    [
                        {
                            "pitch": 60, 
                            "t0": 217480, 
                            "v": 50, 
                            "dur": 463, 
                            "type": "note", 
                            "channel": 3
                        }
                    ]
                ], 
                [
                    217500, 
                    [
                        {
                            "pitch": 65, 
                            "t0": 217500, 
                            "v": 50, 
                            "dur": 416, 
                            "type": "note", 
                            "channel": 3
                        }
                    ]
                ], 
                [
                    217520, 
                    [
                        {
                            "pitch": 69, 
                            "t0": 217520, 
                            "v": 50, 
                            "dur": 400, 
                            "type": "note", 
                            "channel": 3
                        }
                    ]
                ], 
                [
                    217540, 
                    [
                        {
                            "pitch": 72, 
                            "t0": 217540, 
                            "v": 50, 
                            "dur": 423, 
                            "type": "note", 
                            "channel": 3
                        }
                    ]
                ], 
                [
                    217920, 
                    [
                        {
                            "pitch": 55, 
                            "t0": 217920, 
                            "v": 50, 
                            "dur": 455, 
                            "type": "note", 
                            "channel": 3
                        }
                    ]
                ], 
                [
                    217940, 
                    [
                        {
                            "pitch": 59, 
                            "t0": 217940, 
                            "v": 50, 
                            "dur": 468, 
                            "type": "note", 
                            "channel": 3
                        }
                    ]
                ], 
                [
                    217960, 
                    [
                        {
                            "pitch": 62, 
                            "t0": 217960, 
                            "parts": [
                                [
                                    217960, 
                                    50
                                ], 
                                [
                                    218440, 
                                    50
                                ], 
                                [
                                    218472, 
                                    0
                                ]
                            ], 
                            "v": 50, 
                            "dur": 512, 
                            "type": "note", 
                            "channel": 3
                        }
                    ]
                ], 
                [
                    217980, 
                    [
                        {
                            "pitch": 67, 
                            "t0": 217980, 
                            "v": 50, 
                            "dur": 443, 
                            "type": "note", 
                            "channel": 3
                        }
                    ]
                ], 
                [
                    218000, 
                    [
                        {
                            "pitch": 71, 
                            "t0": 218000, 
                            "v": 50, 
                            "dur": 377, 
                            "type": "note", 
                            "channel": 3
                        }
                    ]
                ], 
                [
                    218020, 
                    [
                        {
                            "pitch": 74, 
                            "t0": 218020, 
                            "v": 50, 
                            "dur": 461, 
                            "type": "note", 
                            "channel": 3
                        }
                    ]
                ], 
                [
                    218400, 
                    [
                        {
                            "pitch": 55, 
                            "t0": 218400, 
                            "v": 50, 
                            "dur": 455, 
                            "type": "note", 
                            "channel": 3
                        }
                    ]
                ], 
                [
                    218420, 
                    [
                        {
                            "pitch": 59, 
                            "t0": 218420, 
                            "v": 50, 
                            "dur": 468, 
                            "type": "note", 
                            "channel": 3
                        }
                    ]
                ], 
                [
                    218460, 
                    [
                        {
                            "pitch": 67, 
                            "t0": 218460, 
                            "v": 50, 
                            "dur": 443, 
                            "type": "note", 
                            "channel": 3
                        }
                    ]
                ], 
                [
                    218480, 
                    [
                        {
                            "pitch": 71, 
                            "t0": 218480, 
                            "v": 50, 
                            "dur": 377, 
                            "type": "note", 
                            "channel": 3
                        }
                    ]
                ], 
                [
                    218500, 
                    [
                        {
                            "pitch": 74, 
                            "t0": 218500, 
                            "v": 50, 
                            "dur": 461, 
                            "type": "note", 
                            "channel": 3
                        }
                    ]
                ], 
                [
                    218880, 
                    [
                        {
                            "pitch": 57, 
                            "t0": 218880, 
                            "v": 50, 
                            "dur": 420, 
                            "type": "note", 
                            "channel": 3
                        }
                    ]
                ], 
                [
                    218900, 
                    [
                        {
                            "pitch": 60, 
                            "t0": 218900, 
                            "v": 50, 
                            "dur": 436, 
                            "type": "note", 
                            "channel": 3
                        }
                    ]
                ], 
                [
                    218920, 
                    [
                        {
                            "pitch": 64, 
                            "t0": 218920, 
                            "v": 50, 
                            "dur": 450, 
                            "type": "note", 
                            "channel": 3
                        }
                    ]
                ], 
                [
                    218940, 
                    [
                        {
                            "pitch": 69, 
                            "t0": 218940, 
                            "parts": [
                                [
                                    218940, 
                                    50
                                ], 
                                [
                                    219420, 
                                    50
                                ], 
                                [
                                    219428, 
                                    0
                                ]
                            ], 
                            "v": 50, 
                            "dur": 488, 
                            "type": "note", 
                            "channel": 3
                        }
                    ]
                ], 
                [
                    218960, 
                    [
                        {
                            "pitch": 72, 
                            "t0": 218960, 
                            "v": 50, 
                            "dur": 406, 
                            "type": "note", 
                            "channel": 3
                        }
                    ]
                ], 
                [
                    218980, 
                    [
                        {
                            "pitch": 76, 
                            "t0": 218980, 
                            "v": 50, 
                            "dur": 405, 
                            "type": "note", 
                            "channel": 3
                        }
                    ]
                ], 
                [
                    219360, 
                    [
                        {
                            "pitch": 57, 
                            "t0": 219360, 
                            "v": 50, 
                            "dur": 420, 
                            "type": "note", 
                            "channel": 3
                        }
                    ]
                ], 
                [
                    219380, 
                    [
                        {
                            "pitch": 60, 
                            "t0": 219380, 
                            "v": 50, 
                            "dur": 436, 
                            "type": "note", 
                            "channel": 3
                        }
                    ]
                ], 
                [
                    219400, 
                    [
                        {
                            "pitch": 64, 
                            "t0": 219400, 
                            "v": 50, 
                            "dur": 450, 
                            "type": "note", 
                            "channel": 3
                        }
                    ]
                ], 
                [
                    219440, 
                    [
                        {
                            "pitch": 72, 
                            "t0": 219440, 
                            "v": 50, 
                            "dur": 406, 
                            "type": "note", 
                            "channel": 3
                        }
                    ]
                ], 
                [
                    219460, 
                    [
                        {
                            "pitch": 76, 
                            "t0": 219460, 
                            "v": 50, 
                            "dur": 405, 
                            "type": "note", 
                            "channel": 3
                        }
                    ]
                ], 
                [
                    219840, 
                    [
                        {
                            "pitch": 57, 
                            "t0": 219840, 
                            "v": 50, 
                            "dur": 365, 
                            "type": "note", 
                            "channel": 3
                        }
                    ]
                ], 
                [
                    219860, 
                    [
                        {
                            "pitch": 60, 
                            "t0": 219860, 
                            "v": 50, 
                            "dur": 368, 
                            "type": "note", 
                            "channel": 3
                        }
                    ]
                ], 
                [
                    219880, 
                    [
                        {
                            "pitch": 64, 
                            "t0": 219880, 
                            "v": 50, 
                            "dur": 383, 
                            "type": "note", 
                            "channel": 3
                        }
                    ]
                ], 
                [
                    219900, 
                    [
                        {
                            "pitch": 69, 
                            "t0": 219900, 
                            "v": 50, 
                            "dur": 8, 
                            "type": "note", 
                            "channel": 3
                        }
                    ]
                ], 
                [
                    219920, 
                    [
                        {
                            "pitch": 72, 
                            "t0": 219920, 
                            "v": 50, 
                            "dur": 362, 
                            "type": "note", 
                            "channel": 3
                        }
                    ]
                ], 
                [
                    219940, 
                    [
                        {
                            "pitch": 76, 
                            "t0": 219940, 
                            "v": 50, 
                            "dur": 378, 
                            "type": "note", 
                            "channel": 3
                        }
                    ]
                ], 
                [
                    220320, 
                    [
                        {
                            "pitch": 57, 
                            "t0": 220320, 
                            "v": 50, 
                            "dur": 365, 
                            "type": "note", 
                            "channel": 3
                        }
                    ]
                ], 
                [
                    220340, 
                    [
                        {
                            "pitch": 60, 
                            "t0": 220340, 
                            "v": 50, 
                            "dur": 368, 
                            "type": "note", 
                            "channel": 3
                        }
                    ]
                ], 
                [
                    220360, 
                    [
                        {
                            "pitch": 64, 
                            "t0": 220360, 
                            "v": 50, 
                            "dur": 383, 
                            "type": "note", 
                            "channel": 3
                        }
                    ]
                ], 
                [
                    220380, 
                    [
                        {
                            "pitch": 69, 
                            "t0": 220380, 
                            "v": 50, 
                            "dur": 370, 
                            "type": "note", 
                            "channel": 3
                        }
                    ]
                ], 
                [
                    220400, 
                    [
                        {
                            "pitch": 72, 
                            "t0": 220400, 
                            "v": 50, 
                            "dur": 362, 
                            "type": "note", 
                            "channel": 3
                        }
                    ]
                ], 
                [
                    220420, 
                    [
                        {
                            "pitch": 76, 
                            "t0": 220420, 
                            "v": 50, 
                            "dur": 378, 
                            "type": "note", 
                            "channel": 3
                        }
                    ]
                ]
            ], 
            "instruments": [
                46
            ], 
            "tMax": 220798, 
            "channels": [
                3
            ], 
            "instrument": 46, 
            "numNotes": 1084, 
            "type": "TrackObj"
        }, 
        {
            "trackName": "Track 5", 
            "seq": [
                [
                    0, 
                    [
                        {
                            "instrument": 73, 
                            "type": "programChange", 
                            "t0": 0, 
                            "channel": 4
                        }
                    ]
                ], 
                [
                    5760, 
                    [
                        {
                            "pitch": 84, 
                            "t0": 5760, 
                            "v": 70, 
                            "dur": 862, 
                            "type": "note", 
                            "channel": 4
                        }
                    ]
                ], 
                [
                    7440, 
                    [
                        {
                            "pitch": 84, 
                            "t0": 7440, 
                            "v": 90, 
                            "dur": 120, 
                            "type": "note", 
                            "channel": 4
                        }
                    ]
                ], 
                [
                    7560, 
                    [
                        {
                            "pitch": 83, 
                            "t0": 7560, 
                            "v": 90, 
                            "dur": 120, 
                            "type": "note", 
                            "channel": 4
                        }
                    ]
                ], 
                [
                    7680, 
                    [
                        {
                            "pitch": 84, 
                            "t0": 7680, 
                            "v": 70, 
                            "dur": 983, 
                            "type": "note", 
                            "channel": 4
                        }
                    ]
                ], 
                [
                    9600, 
                    [
                        {
                            "pitch": 83, 
                            "t0": 9600, 
                            "v": 70, 
                            "dur": 811, 
                            "type": "note", 
                            "channel": 4
                        }
                    ]
                ], 
                [
                    11280, 
                    [
                        {
                            "pitch": 83, 
                            "t0": 11280, 
                            "v": 90, 
                            "dur": 120, 
                            "type": "note", 
                            "channel": 4
                        }
                    ]
                ], 
                [
                    11400, 
                    [
                        {
                            "pitch": 81, 
                            "t0": 11400, 
                            "v": 90, 
                            "dur": 120, 
                            "type": "note", 
                            "channel": 4
                        }
                    ]
                ], 
                [
                    11520, 
                    [
                        {
                            "pitch": 83, 
                            "t0": 11520, 
                            "v": 70, 
                            "dur": 1176, 
                            "type": "note", 
                            "channel": 4
                        }
                    ]
                ], 
                [
                    13440, 
                    [
                        {
                            "pitch": 84, 
                            "t0": 13440, 
                            "v": 70, 
                            "dur": 1015, 
                            "type": "note", 
                            "channel": 4
                        }
                    ]
                ], 
                [
                    15120, 
                    [
                        {
                            "pitch": 84, 
                            "t0": 15120, 
                            "v": 90, 
                            "dur": 120, 
                            "type": "note", 
                            "channel": 4
                        }
                    ]
                ], 
                [
                    15240, 
                    [
                        {
                            "pitch": 83, 
                            "t0": 15240, 
                            "v": 90, 
                            "dur": 120, 
                            "type": "note", 
                            "channel": 4
                        }
                    ]
                ], 
                [
                    15360, 
                    [
                        {
                            "pitch": 84, 
                            "t0": 15360, 
                            "v": 70, 
                            "dur": 946, 
                            "type": "note", 
                            "channel": 4
                        }
                    ]
                ], 
                [
                    17280, 
                    [
                        {
                            "pitch": 83, 
                            "t0": 17280, 
                            "v": 70, 
                            "dur": 1216, 
                            "type": "note", 
                            "channel": 4
                        }
                    ]
                ], 
                [
                    18960, 
                    [
                        {
                            "pitch": 83, 
                            "t0": 18960, 
                            "v": 90, 
                            "dur": 120, 
                            "type": "note", 
                            "channel": 4
                        }
                    ]
                ], 
                [
                    19080, 
                    [
                        {
                            "pitch": 81, 
                            "t0": 19080, 
                            "v": 90, 
                            "dur": 120, 
                            "type": "note", 
                            "channel": 4
                        }
                    ]
                ], 
                [
                    19200, 
                    [
                        {
                            "pitch": 83, 
                            "t0": 19200, 
                            "v": 70, 
                            "dur": 1220, 
                            "type": "note", 
                            "channel": 4
                        }
                    ]
                ], 
                [
                    21120, 
                    [
                        {
                            "pitch": 81, 
                            "t0": 21120, 
                            "v": 70, 
                            "dur": 1310, 
                            "type": "note", 
                            "channel": 4
                        }
                    ]
                ], 
                [
                    23760, 
                    [
                        {
                            "pitch": 81, 
                            "t0": 23760, 
                            "v": 70, 
                            "dur": 240, 
                            "type": "note", 
                            "channel": 4
                        }
                    ]
                ], 
                [
                    24000, 
                    [
                        {
                            "pitch": 79, 
                            "t0": 24000, 
                            "v": 70, 
                            "dur": 735, 
                            "type": "note", 
                            "channel": 4
                        }
                    ]
                ], 
                [
                    24720, 
                    [
                        {
                            "pitch": 77, 
                            "t0": 24720, 
                            "v": 70, 
                            "dur": 242, 
                            "type": "note", 
                            "channel": 4
                        }
                    ]
                ], 
                [
                    24960, 
                    [
                        {
                            "pitch": 76, 
                            "t0": 24960, 
                            "v": 70, 
                            "dur": 888, 
                            "type": "note", 
                            "channel": 4
                        }
                    ]
                ], 
                [
                    25920, 
                    [
                        {
                            "pitch": 84, 
                            "t0": 25920, 
                            "v": 70, 
                            "dur": 1671, 
                            "type": "note", 
                            "channel": 4
                        }
                    ]
                ], 
                [
                    28800, 
                    [
                        {
                            "pitch": 84, 
                            "t0": 28800, 
                            "v": 70, 
                            "dur": 1091, 
                            "type": "note", 
                            "channel": 4
                        }
                    ]
                ], 
                [
                    31200, 
                    [
                        {
                            "pitch": 84, 
                            "t0": 31200, 
                            "v": 70, 
                            "dur": 472, 
                            "type": "note", 
                            "channel": 4
                        }
                    ]
                ], 
                [
                    31680, 
                    [
                        {
                            "pitch": 88, 
                            "t0": 31680, 
                            "v": 70, 
                            "dur": 768, 
                            "type": "note", 
                            "channel": 4
                        }
                    ]
                ], 
                [
                    32400, 
                    [
                        {
                            "pitch": 84, 
                            "t0": 32400, 
                            "v": 70, 
                            "dur": 215, 
                            "type": "note", 
                            "channel": 4
                        }
                    ]
                ], 
                [
                    32640, 
                    [
                        {
                            "pitch": 86, 
                            "t0": 32640, 
                            "v": 70, 
                            "dur": 1091, 
                            "type": "note", 
                            "channel": 4
                        }
                    ]
                ], 
                [
                    40320, 
                    [
                        {
                            "pitch": 84, 
                            "t0": 40320, 
                            "v": 70, 
                            "dur": 862, 
                            "type": "note", 
                            "channel": 4
                        }
                    ]
                ], 
                [
                    42000, 
                    [
                        {
                            "pitch": 84, 
                            "t0": 42000, 
                            "v": 90, 
                            "dur": 120, 
                            "type": "note", 
                            "channel": 4
                        }
                    ]
                ], 
                [
                    42120, 
                    [
                        {
                            "pitch": 83, 
                            "t0": 42120, 
                            "v": 90, 
                            "dur": 120, 
                            "type": "note", 
                            "channel": 4
                        }
                    ]
                ], 
                [
                    42240, 
                    [
                        {
                            "pitch": 84, 
                            "t0": 42240, 
                            "v": 70, 
                            "dur": 983, 
                            "type": "note", 
                            "channel": 4
                        }
                    ]
                ], 
                [
                    44160, 
                    [
                        {
                            "pitch": 83, 
                            "t0": 44160, 
                            "v": 70, 
                            "dur": 811, 
                            "type": "note", 
                            "channel": 4
                        }
                    ]
                ], 
                [
                    45840, 
                    [
                        {
                            "pitch": 83, 
                            "t0": 45840, 
                            "v": 90, 
                            "dur": 120, 
                            "type": "note", 
                            "channel": 4
                        }
                    ]
                ], 
                [
                    45960, 
                    [
                        {
                            "pitch": 81, 
                            "t0": 45960, 
                            "v": 90, 
                            "dur": 120, 
                            "type": "note", 
                            "channel": 4
                        }
                    ]
                ], 
                [
                    46080, 
                    [
                        {
                            "pitch": 83, 
                            "t0": 46080, 
                            "v": 70, 
                            "dur": 1176, 
                            "type": "note", 
                            "channel": 4
                        }
                    ]
                ], 
                [
                    48000, 
                    [
                        {
                            "pitch": 84, 
                            "t0": 48000, 
                            "v": 70, 
                            "dur": 1015, 
                            "type": "note", 
                            "channel": 4
                        }
                    ]
                ], 
                [
                    49680, 
                    [
                        {
                            "pitch": 84, 
                            "t0": 49680, 
                            "v": 90, 
                            "dur": 120, 
                            "type": "note", 
                            "channel": 4
                        }
                    ]
                ], 
                [
                    49800, 
                    [
                        {
                            "pitch": 83, 
                            "t0": 49800, 
                            "v": 90, 
                            "dur": 120, 
                            "type": "note", 
                            "channel": 4
                        }
                    ]
                ], 
                [
                    49920, 
                    [
                        {
                            "pitch": 84, 
                            "t0": 49920, 
                            "v": 70, 
                            "dur": 946, 
                            "type": "note", 
                            "channel": 4
                        }
                    ]
                ], 
                [
                    51840, 
                    [
                        {
                            "pitch": 83, 
                            "t0": 51840, 
                            "v": 70, 
                            "dur": 1216, 
                            "type": "note", 
                            "channel": 4
                        }
                    ]
                ], 
                [
                    53520, 
                    [
                        {
                            "pitch": 83, 
                            "t0": 53520, 
                            "v": 90, 
                            "dur": 120, 
                            "type": "note", 
                            "channel": 4
                        }
                    ]
                ], 
                [
                    53640, 
                    [
                        {
                            "pitch": 81, 
                            "t0": 53640, 
                            "v": 90, 
                            "dur": 120, 
                            "type": "note", 
                            "channel": 4
                        }
                    ]
                ], 
                [
                    53760, 
                    [
                        {
                            "pitch": 83, 
                            "t0": 53760, 
                            "v": 70, 
                            "dur": 1220, 
                            "type": "note", 
                            "channel": 4
                        }
                    ]
                ], 
                [
                    55680, 
                    [
                        {
                            "pitch": 81, 
                            "t0": 55680, 
                            "v": 70, 
                            "dur": 1310, 
                            "type": "note", 
                            "channel": 4
                        }
                    ]
                ], 
                [
                    58320, 
                    [
                        {
                            "pitch": 81, 
                            "t0": 58320, 
                            "v": 70, 
                            "dur": 240, 
                            "type": "note", 
                            "channel": 4
                        }
                    ]
                ], 
                [
                    58560, 
                    [
                        {
                            "pitch": 79, 
                            "t0": 58560, 
                            "v": 70, 
                            "dur": 735, 
                            "type": "note", 
                            "channel": 4
                        }
                    ]
                ], 
                [
                    59280, 
                    [
                        {
                            "pitch": 77, 
                            "t0": 59280, 
                            "v": 70, 
                            "dur": 242, 
                            "type": "note", 
                            "channel": 4
                        }
                    ]
                ], 
                [
                    59520, 
                    [
                        {
                            "pitch": 76, 
                            "t0": 59520, 
                            "v": 70, 
                            "dur": 888, 
                            "type": "note", 
                            "channel": 4
                        }
                    ]
                ], 
                [
                    60480, 
                    [
                        {
                            "pitch": 84, 
                            "t0": 60480, 
                            "v": 70, 
                            "dur": 1671, 
                            "type": "note", 
                            "channel": 4
                        }
                    ]
                ], 
                [
                    63360, 
                    [
                        {
                            "pitch": 84, 
                            "t0": 63360, 
                            "v": 70, 
                            "dur": 1091, 
                            "type": "note", 
                            "channel": 4
                        }
                    ]
                ], 
                [
                    65760, 
                    [
                        {
                            "pitch": 84, 
                            "t0": 65760, 
                            "v": 70, 
                            "dur": 472, 
                            "type": "note", 
                            "channel": 4
                        }
                    ]
                ], 
                [
                    66240, 
                    [
                        {
                            "pitch": 88, 
                            "t0": 66240, 
                            "v": 70, 
                            "dur": 768, 
                            "type": "note", 
                            "channel": 4
                        }
                    ]
                ], 
                [
                    66960, 
                    [
                        {
                            "pitch": 84, 
                            "t0": 66960, 
                            "v": 70, 
                            "dur": 215, 
                            "type": "note", 
                            "channel": 4
                        }
                    ]
                ], 
                [
                    67200, 
                    [
                        {
                            "pitch": 86, 
                            "t0": 67200, 
                            "v": 70, 
                            "dur": 1091, 
                            "type": "note", 
                            "channel": 4
                        }
                    ]
                ], 
                [
                    74880, 
                    [
                        {
                            "pitch": 72, 
                            "t0": 74880, 
                            "v": 127, 
                            "dur": 120, 
                            "type": "note", 
                            "channel": 4
                        }
                    ]
                ], 
                [
                    75000, 
                    [
                        {
                            "pitch": 76, 
                            "t0": 75000, 
                            "v": 127, 
                            "dur": 180, 
                            "type": "note", 
                            "channel": 4
                        }
                    ]
                ], 
                [
                    75180, 
                    [
                        {
                            "pitch": 79, 
                            "t0": 75180, 
                            "v": 127, 
                            "dur": 180, 
                            "type": "note", 
                            "channel": 4
                        }
                    ]
                ], 
                [
                    75360, 
                    [
                        {
                            "pitch": 84, 
                            "t0": 75360, 
                            "v": 127, 
                            "dur": 480, 
                            "type": "note", 
                            "channel": 4
                        }
                    ]
                ], 
                [
                    75840, 
                    [
                        {
                            "pitch": 72, 
                            "t0": 75840, 
                            "v": 127, 
                            "dur": 120, 
                            "type": "note", 
                            "channel": 4
                        }
                    ]
                ], 
                [
                    75960, 
                    [
                        {
                            "pitch": 76, 
                            "t0": 75960, 
                            "v": 127, 
                            "dur": 180, 
                            "type": "note", 
                            "channel": 4
                        }
                    ]
                ], 
                [
                    76140, 
                    [
                        {
                            "pitch": 79, 
                            "t0": 76140, 
                            "v": 127, 
                            "dur": 180, 
                            "type": "note", 
                            "channel": 4
                        }
                    ]
                ], 
                [
                    76320, 
                    [
                        {
                            "pitch": 84, 
                            "t0": 76320, 
                            "v": 127, 
                            "dur": 480, 
                            "type": "note", 
                            "channel": 4
                        }
                    ]
                ], 
                [
                    76800, 
                    [
                        {
                            "pitch": 67, 
                            "t0": 76800, 
                            "v": 127, 
                            "dur": 120, 
                            "type": "note", 
                            "channel": 4
                        }
                    ]
                ], 
                [
                    76920, 
                    [
                        {
                            "pitch": 71, 
                            "t0": 76920, 
                            "v": 127, 
                            "dur": 180, 
                            "type": "note", 
                            "channel": 4
                        }
                    ]
                ], 
                [
                    77100, 
                    [
                        {
                            "pitch": 74, 
                            "t0": 77100, 
                            "v": 127, 
                            "dur": 180, 
                            "type": "note", 
                            "channel": 4
                        }
                    ]
                ], 
                [
                    77280, 
                    [
                        {
                            "pitch": 79, 
                            "t0": 77280, 
                            "v": 127, 
                            "dur": 480, 
                            "type": "note", 
                            "channel": 4
                        }
                    ]
                ], 
                [
                    77760, 
                    [
                        {
                            "pitch": 67, 
                            "t0": 77760, 
                            "v": 127, 
                            "dur": 120, 
                            "type": "note", 
                            "channel": 4
                        }
                    ]
                ], 
                [
                    77880, 
                    [
                        {
                            "pitch": 71, 
                            "t0": 77880, 
                            "v": 127, 
                            "dur": 180, 
                            "type": "note", 
                            "channel": 4
                        }
                    ]
                ], 
                [
                    78060, 
                    [
                        {
                            "pitch": 74, 
                            "t0": 78060, 
                            "v": 127, 
                            "dur": 180, 
                            "type": "note", 
                            "channel": 4
                        }
                    ]
                ], 
                [
                    78240, 
                    [
                        {
                            "pitch": 79, 
                            "t0": 78240, 
                            "v": 127, 
                            "dur": 480, 
                            "type": "note", 
                            "channel": 4
                        }
                    ]
                ], 
                [
                    78720, 
                    [
                        {
                            "pitch": 69, 
                            "t0": 78720, 
                            "v": 127, 
                            "dur": 120, 
                            "type": "note", 
                            "channel": 4
                        }
                    ]
                ], 
                [
                    78840, 
                    [
                        {
                            "pitch": 72, 
                            "t0": 78840, 
                            "v": 127, 
                            "dur": 180, 
                            "type": "note", 
                            "channel": 4
                        }
                    ]
                ], 
                [
                    79020, 
                    [
                        {
                            "pitch": 76, 
                            "t0": 79020, 
                            "v": 127, 
                            "dur": 180, 
                            "type": "note", 
                            "channel": 4
                        }
                    ]
                ], 
                [
                    79200, 
                    [
                        {
                            "pitch": 81, 
                            "t0": 79200, 
                            "v": 127, 
                            "dur": 480, 
                            "type": "note", 
                            "channel": 4
                        }
                    ]
                ], 
                [
                    79680, 
                    [
                        {
                            "pitch": 69, 
                            "t0": 79680, 
                            "v": 127, 
                            "dur": 120, 
                            "type": "note", 
                            "channel": 4
                        }
                    ]
                ], 
                [
                    79800, 
                    [
                        {
                            "pitch": 72, 
                            "t0": 79800, 
                            "v": 127, 
                            "dur": 180, 
                            "type": "note", 
                            "channel": 4
                        }
                    ]
                ], 
                [
                    79980, 
                    [
                        {
                            "pitch": 76, 
                            "t0": 79980, 
                            "v": 127, 
                            "dur": 180, 
                            "type": "note", 
                            "channel": 4
                        }
                    ]
                ], 
                [
                    80160, 
                    [
                        {
                            "pitch": 81, 
                            "t0": 80160, 
                            "v": 127, 
                            "dur": 480, 
                            "type": "note", 
                            "channel": 4
                        }
                    ]
                ], 
                [
                    80640, 
                    [
                        {
                            "pitch": 64, 
                            "t0": 80640, 
                            "v": 127, 
                            "dur": 120, 
                            "type": "note", 
                            "channel": 4
                        }
                    ]
                ], 
                [
                    80760, 
                    [
                        {
                            "pitch": 67, 
                            "t0": 80760, 
                            "v": 127, 
                            "dur": 180, 
                            "type": "note", 
                            "channel": 4
                        }
                    ]
                ], 
                [
                    80940, 
                    [
                        {
                            "pitch": 71, 
                            "t0": 80940, 
                            "v": 127, 
                            "dur": 180, 
                            "type": "note", 
                            "channel": 4
                        }
                    ]
                ], 
                [
                    81120, 
                    [
                        {
                            "pitch": 76, 
                            "t0": 81120, 
                            "v": 127, 
                            "dur": 480, 
                            "type": "note", 
                            "channel": 4
                        }
                    ]
                ], 
                [
                    81600, 
                    [
                        {
                            "pitch": 64, 
                            "t0": 81600, 
                            "v": 127, 
                            "dur": 120, 
                            "type": "note", 
                            "channel": 4
                        }
                    ]
                ], 
                [
                    81720, 
                    [
                        {
                            "pitch": 67, 
                            "t0": 81720, 
                            "v": 127, 
                            "dur": 180, 
                            "type": "note", 
                            "channel": 4
                        }
                    ]
                ], 
                [
                    81900, 
                    [
                        {
                            "pitch": 71, 
                            "t0": 81900, 
                            "v": 127, 
                            "dur": 180, 
                            "type": "note", 
                            "channel": 4
                        }
                    ]
                ], 
                [
                    82080, 
                    [
                        {
                            "pitch": 76, 
                            "t0": 82080, 
                            "v": 127, 
                            "dur": 480, 
                            "type": "note", 
                            "channel": 4
                        }
                    ]
                ], 
                [
                    82560, 
                    [
                        {
                            "pitch": 65, 
                            "t0": 82560, 
                            "v": 127, 
                            "dur": 120, 
                            "type": "note", 
                            "channel": 4
                        }
                    ]
                ], 
                [
                    82680, 
                    [
                        {
                            "pitch": 69, 
                            "t0": 82680, 
                            "v": 127, 
                            "dur": 180, 
                            "type": "note", 
                            "channel": 4
                        }
                    ]
                ], 
                [
                    82860, 
                    [
                        {
                            "pitch": 72, 
                            "t0": 82860, 
                            "v": 127, 
                            "dur": 180, 
                            "type": "note", 
                            "channel": 4
                        }
                    ]
                ], 
                [
                    83040, 
                    [
                        {
                            "pitch": 77, 
                            "t0": 83040, 
                            "v": 127, 
                            "dur": 420, 
                            "type": "note", 
                            "channel": 4
                        }
                    ]
                ], 
                [
                    83520, 
                    [
                        {
                            "pitch": 67, 
                            "t0": 83520, 
                            "v": 127, 
                            "dur": 180, 
                            "type": "note", 
                            "channel": 4
                        }
                    ]
                ], 
                [
                    83700, 
                    [
                        {
                            "pitch": 71, 
                            "t0": 83700, 
                            "v": 127, 
                            "dur": 120, 
                            "type": "note", 
                            "channel": 4
                        }
                    ]
                ], 
                [
                    83820, 
                    [
                        {
                            "pitch": 74, 
                            "t0": 83820, 
                            "v": 127, 
                            "dur": 180, 
                            "type": "note", 
                            "channel": 4
                        }
                    ]
                ], 
                [
                    84000, 
                    [
                        {
                            "pitch": 79, 
                            "t0": 84000, 
                            "v": 127, 
                            "dur": 480, 
                            "type": "note", 
                            "channel": 4
                        }
                    ]
                ], 
                [
                    84480, 
                    [
                        {
                            "pitch": 69, 
                            "t0": 84480, 
                            "v": 127, 
                            "dur": 120, 
                            "type": "note", 
                            "channel": 4
                        }
                    ]
                ], 
                [
                    84600, 
                    [
                        {
                            "pitch": 72, 
                            "t0": 84600, 
                            "v": 127, 
                            "dur": 180, 
                            "type": "note", 
                            "channel": 4
                        }
                    ]
                ], 
                [
                    84780, 
                    [
                        {
                            "pitch": 76, 
                            "t0": 84780, 
                            "v": 127, 
                            "dur": 180, 
                            "type": "note", 
                            "channel": 4
                        }
                    ]
                ], 
                [
                    84960, 
                    [
                        {
                            "pitch": 81, 
                            "t0": 84960, 
                            "v": 127, 
                            "dur": 480, 
                            "type": "note", 
                            "channel": 4
                        }
                    ]
                ], 
                [
                    86400, 
                    [
                        {
                            "pitch": 72, 
                            "t0": 86400, 
                            "v": 127, 
                            "dur": 120, 
                            "type": "note", 
                            "channel": 4
                        }
                    ]
                ], 
                [
                    86520, 
                    [
                        {
                            "pitch": 76, 
                            "t0": 86520, 
                            "v": 127, 
                            "dur": 180, 
                            "type": "note", 
                            "channel": 4
                        }
                    ]
                ], 
                [
                    86700, 
                    [
                        {
                            "pitch": 79, 
                            "t0": 86700, 
                            "v": 127, 
                            "dur": 180, 
                            "type": "note", 
                            "channel": 4
                        }
                    ]
                ], 
                [
                    86880, 
                    [
                        {
                            "pitch": 84, 
                            "t0": 86880, 
                            "v": 127, 
                            "dur": 480, 
                            "type": "note", 
                            "channel": 4
                        }
                    ]
                ], 
                [
                    87360, 
                    [
                        {
                            "pitch": 67, 
                            "t0": 87360, 
                            "v": 127, 
                            "dur": 120, 
                            "type": "note", 
                            "channel": 4
                        }
                    ]
                ], 
                [
                    87480, 
                    [
                        {
                            "pitch": 71, 
                            "t0": 87480, 
                            "v": 127, 
                            "dur": 180, 
                            "type": "note", 
                            "channel": 4
                        }
                    ]
                ], 
                [
                    87660, 
                    [
                        {
                            "pitch": 74, 
                            "t0": 87660, 
                            "v": 127, 
                            "dur": 180, 
                            "type": "note", 
                            "channel": 4
                        }
                    ]
                ], 
                [
                    87840, 
                    [
                        {
                            "pitch": 79, 
                            "t0": 87840, 
                            "v": 127, 
                            "dur": 480, 
                            "type": "note", 
                            "channel": 4
                        }
                    ]
                ], 
                [
                    88320, 
                    [
                        {
                            "pitch": 69, 
                            "t0": 88320, 
                            "v": 127, 
                            "dur": 120, 
                            "type": "note", 
                            "channel": 4
                        }
                    ]
                ], 
                [
                    88440, 
                    [
                        {
                            "pitch": 72, 
                            "t0": 88440, 
                            "v": 127, 
                            "dur": 180, 
                            "type": "note", 
                            "channel": 4
                        }
                    ]
                ], 
                [
                    88620, 
                    [
                        {
                            "pitch": 76, 
                            "t0": 88620, 
                            "v": 127, 
                            "dur": 180, 
                            "type": "note", 
                            "channel": 4
                        }
                    ]
                ], 
                [
                    88800, 
                    [
                        {
                            "pitch": 81, 
                            "t0": 88800, 
                            "v": 127, 
                            "dur": 480, 
                            "type": "note", 
                            "channel": 4
                        }
                    ]
                ], 
                [
                    89280, 
                    [
                        {
                            "pitch": 64, 
                            "t0": 89280, 
                            "v": 127, 
                            "dur": 120, 
                            "type": "note", 
                            "channel": 4
                        }
                    ]
                ], 
                [
                    89400, 
                    [
                        {
                            "pitch": 67, 
                            "t0": 89400, 
                            "v": 127, 
                            "dur": 180, 
                            "type": "note", 
                            "channel": 4
                        }
                    ]
                ], 
                [
                    89580, 
                    [
                        {
                            "pitch": 71, 
                            "t0": 89580, 
                            "v": 127, 
                            "dur": 180, 
                            "type": "note", 
                            "channel": 4
                        }
                    ]
                ], 
                [
                    89760, 
                    [
                        {
                            "pitch": 76, 
                            "t0": 89760, 
                            "v": 127, 
                            "dur": 480, 
                            "type": "note", 
                            "channel": 4
                        }
                    ]
                ], 
                [
                    90240, 
                    [
                        {
                            "pitch": 65, 
                            "t0": 90240, 
                            "v": 127, 
                            "dur": 120, 
                            "type": "note", 
                            "channel": 4
                        }
                    ]
                ], 
                [
                    90360, 
                    [
                        {
                            "pitch": 69, 
                            "t0": 90360, 
                            "v": 127, 
                            "dur": 180, 
                            "type": "note", 
                            "channel": 4
                        }
                    ]
                ], 
                [
                    90540, 
                    [
                        {
                            "pitch": 72, 
                            "t0": 90540, 
                            "v": 127, 
                            "dur": 190, 
                            "type": "note", 
                            "channel": 4
                        }
                    ]
                ], 
                [
                    90720, 
                    [
                        {
                            "pitch": 77, 
                            "t0": 90720, 
                            "v": 127, 
                            "dur": 480, 
                            "type": "note", 
                            "channel": 4
                        }
                    ]
                ], 
                [
                    91200, 
                    [
                        {
                            "pitch": 67, 
                            "t0": 91200, 
                            "v": 127, 
                            "dur": 120, 
                            "type": "note", 
                            "channel": 4
                        }
                    ]
                ], 
                [
                    91320, 
                    [
                        {
                            "pitch": 71, 
                            "t0": 91320, 
                            "v": 127, 
                            "dur": 180, 
                            "type": "note", 
                            "channel": 4
                        }
                    ]
                ], 
                [
                    91500, 
                    [
                        {
                            "pitch": 74, 
                            "t0": 91500, 
                            "v": 127, 
                            "dur": 180, 
                            "type": "note", 
                            "channel": 4
                        }
                    ]
                ], 
                [
                    91680, 
                    [
                        {
                            "pitch": 79, 
                            "t0": 91680, 
                            "v": 127, 
                            "dur": 480, 
                            "type": "note", 
                            "channel": 4
                        }
                    ]
                ], 
                [
                    92160, 
                    [
                        {
                            "pitch": 69, 
                            "t0": 92160, 
                            "v": 127, 
                            "dur": 120, 
                            "type": "note", 
                            "channel": 4
                        }
                    ]
                ], 
                [
                    92280, 
                    [
                        {
                            "pitch": 72, 
                            "t0": 92280, 
                            "v": 127, 
                            "dur": 180, 
                            "type": "note", 
                            "channel": 4
                        }
                    ]
                ], 
                [
                    92460, 
                    [
                        {
                            "pitch": 76, 
                            "t0": 92460, 
                            "v": 127, 
                            "dur": 180, 
                            "type": "note", 
                            "channel": 4
                        }
                    ]
                ], 
                [
                    92640, 
                    [
                        {
                            "pitch": 81, 
                            "t0": 92640, 
                            "v": 127, 
                            "dur": 480, 
                            "type": "note", 
                            "channel": 4
                        }
                    ]
                ], 
                [
                    94080, 
                    [
                        {
                            "pitch": 72, 
                            "t0": 94080, 
                            "v": 127, 
                            "dur": 120, 
                            "type": "note", 
                            "channel": 4
                        }
                    ]
                ], 
                [
                    94200, 
                    [
                        {
                            "pitch": 76, 
                            "t0": 94200, 
                            "v": 127, 
                            "dur": 180, 
                            "type": "note", 
                            "channel": 4
                        }
                    ]
                ], 
                [
                    94380, 
                    [
                        {
                            "pitch": 79, 
                            "t0": 94380, 
                            "v": 127, 
                            "dur": 180, 
                            "type": "note", 
                            "channel": 4
                        }
                    ]
                ], 
                [
                    94560, 
                    [
                        {
                            "pitch": 84, 
                            "t0": 94560, 
                            "v": 127, 
                            "dur": 480, 
                            "type": "note", 
                            "channel": 4
                        }
                    ]
                ], 
                [
                    95040, 
                    [
                        {
                            "pitch": 72, 
                            "t0": 95040, 
                            "v": 127, 
                            "dur": 120, 
                            "type": "note", 
                            "channel": 4
                        }
                    ]
                ], 
                [
                    95160, 
                    [
                        {
                            "pitch": 76, 
                            "t0": 95160, 
                            "v": 127, 
                            "dur": 180, 
                            "type": "note", 
                            "channel": 4
                        }
                    ]
                ], 
                [
                    95340, 
                    [
                        {
                            "pitch": 79, 
                            "t0": 95340, 
                            "v": 127, 
                            "dur": 180, 
                            "type": "note", 
                            "channel": 4
                        }
                    ]
                ], 
                [
                    95520, 
                    [
                        {
                            "pitch": 84, 
                            "t0": 95520, 
                            "v": 127, 
                            "dur": 480, 
                            "type": "note", 
                            "channel": 4
                        }
                    ]
                ], 
                [
                    96000, 
                    [
                        {
                            "pitch": 67, 
                            "t0": 96000, 
                            "v": 127, 
                            "dur": 120, 
                            "type": "note", 
                            "channel": 4
                        }
                    ]
                ], 
                [
                    96120, 
                    [
                        {
                            "pitch": 71, 
                            "t0": 96120, 
                            "v": 127, 
                            "dur": 180, 
                            "type": "note", 
                            "channel": 4
                        }
                    ]
                ], 
                [
                    96300, 
                    [
                        {
                            "pitch": 74, 
                            "t0": 96300, 
                            "v": 127, 
                            "dur": 180, 
                            "type": "note", 
                            "channel": 4
                        }
                    ]
                ], 
                [
                    96480, 
                    [
                        {
                            "pitch": 79, 
                            "t0": 96480, 
                            "v": 127, 
                            "dur": 480, 
                            "type": "note", 
                            "channel": 4
                        }
                    ]
                ], 
                [
                    96960, 
                    [
                        {
                            "pitch": 67, 
                            "t0": 96960, 
                            "v": 127, 
                            "dur": 120, 
                            "type": "note", 
                            "channel": 4
                        }
                    ]
                ], 
                [
                    97080, 
                    [
                        {
                            "pitch": 71, 
                            "t0": 97080, 
                            "v": 127, 
                            "dur": 180, 
                            "type": "note", 
                            "channel": 4
                        }
                    ]
                ], 
                [
                    97260, 
                    [
                        {
                            "pitch": 74, 
                            "t0": 97260, 
                            "v": 127, 
                            "dur": 180, 
                            "type": "note", 
                            "channel": 4
                        }
                    ]
                ], 
                [
                    97440, 
                    [
                        {
                            "pitch": 79, 
                            "t0": 97440, 
                            "v": 127, 
                            "dur": 480, 
                            "type": "note", 
                            "channel": 4
                        }
                    ]
                ], 
                [
                    97920, 
                    [
                        {
                            "pitch": 69, 
                            "t0": 97920, 
                            "v": 127, 
                            "dur": 120, 
                            "type": "note", 
                            "channel": 4
                        }
                    ]
                ], 
                [
                    98040, 
                    [
                        {
                            "pitch": 72, 
                            "t0": 98040, 
                            "v": 127, 
                            "dur": 180, 
                            "type": "note", 
                            "channel": 4
                        }
                    ]
                ], 
                [
                    98220, 
                    [
                        {
                            "pitch": 76, 
                            "t0": 98220, 
                            "v": 127, 
                            "dur": 180, 
                            "type": "note", 
                            "channel": 4
                        }
                    ]
                ], 
                [
                    98400, 
                    [
                        {
                            "pitch": 81, 
                            "t0": 98400, 
                            "v": 127, 
                            "dur": 480, 
                            "type": "note", 
                            "channel": 4
                        }
                    ]
                ], 
                [
                    98880, 
                    [
                        {
                            "pitch": 69, 
                            "t0": 98880, 
                            "v": 127, 
                            "dur": 120, 
                            "type": "note", 
                            "channel": 4
                        }
                    ]
                ], 
                [
                    99000, 
                    [
                        {
                            "pitch": 72, 
                            "t0": 99000, 
                            "v": 127, 
                            "dur": 180, 
                            "type": "note", 
                            "channel": 4
                        }
                    ]
                ], 
                [
                    99180, 
                    [
                        {
                            "pitch": 76, 
                            "t0": 99180, 
                            "v": 127, 
                            "dur": 180, 
                            "type": "note", 
                            "channel": 4
                        }
                    ]
                ], 
                [
                    99360, 
                    [
                        {
                            "pitch": 81, 
                            "t0": 99360, 
                            "v": 127, 
                            "dur": 480, 
                            "type": "note", 
                            "channel": 4
                        }
                    ]
                ], 
                [
                    99840, 
                    [
                        {
                            "pitch": 64, 
                            "t0": 99840, 
                            "v": 127, 
                            "dur": 120, 
                            "type": "note", 
                            "channel": 4
                        }
                    ]
                ], 
                [
                    99960, 
                    [
                        {
                            "pitch": 67, 
                            "t0": 99960, 
                            "v": 127, 
                            "dur": 180, 
                            "type": "note", 
                            "channel": 4
                        }
                    ]
                ], 
                [
                    100140, 
                    [
                        {
                            "pitch": 71, 
                            "t0": 100140, 
                            "v": 127, 
                            "dur": 180, 
                            "type": "note", 
                            "channel": 4
                        }
                    ]
                ], 
                [
                    100320, 
                    [
                        {
                            "pitch": 76, 
                            "t0": 100320, 
                            "v": 127, 
                            "dur": 480, 
                            "type": "note", 
                            "channel": 4
                        }
                    ]
                ], 
                [
                    100800, 
                    [
                        {
                            "pitch": 64, 
                            "t0": 100800, 
                            "v": 127, 
                            "dur": 120, 
                            "type": "note", 
                            "channel": 4
                        }
                    ]
                ], 
                [
                    100920, 
                    [
                        {
                            "pitch": 67, 
                            "t0": 100920, 
                            "v": 127, 
                            "dur": 180, 
                            "type": "note", 
                            "channel": 4
                        }
                    ]
                ], 
                [
                    101100, 
                    [
                        {
                            "pitch": 71, 
                            "t0": 101100, 
                            "v": 127, 
                            "dur": 180, 
                            "type": "note", 
                            "channel": 4
                        }
                    ]
                ], 
                [
                    101280, 
                    [
                        {
                            "pitch": 76, 
                            "t0": 101280, 
                            "v": 127, 
                            "dur": 480, 
                            "type": "note", 
                            "channel": 4
                        }
                    ]
                ], 
                [
                    101760, 
                    [
                        {
                            "pitch": 65, 
                            "t0": 101760, 
                            "v": 127, 
                            "dur": 120, 
                            "type": "note", 
                            "channel": 4
                        }
                    ]
                ], 
                [
                    101880, 
                    [
                        {
                            "pitch": 69, 
                            "t0": 101880, 
                            "v": 127, 
                            "dur": 180, 
                            "type": "note", 
                            "channel": 4
                        }
                    ]
                ], 
                [
                    102060, 
                    [
                        {
                            "pitch": 72, 
                            "t0": 102060, 
                            "v": 127, 
                            "dur": 180, 
                            "type": "note", 
                            "channel": 4
                        }
                    ]
                ], 
                [
                    102240, 
                    [
                        {
                            "pitch": 77, 
                            "t0": 102240, 
                            "v": 127, 
                            "dur": 420, 
                            "type": "note", 
                            "channel": 4
                        }
                    ]
                ], 
                [
                    102720, 
                    [
                        {
                            "pitch": 67, 
                            "t0": 102720, 
                            "v": 127, 
                            "dur": 180, 
                            "type": "note", 
                            "channel": 4
                        }
                    ]
                ], 
                [
                    102900, 
                    [
                        {
                            "pitch": 71, 
                            "t0": 102900, 
                            "v": 127, 
                            "dur": 120, 
                            "type": "note", 
                            "channel": 4
                        }
                    ]
                ], 
                [
                    103020, 
                    [
                        {
                            "pitch": 74, 
                            "t0": 103020, 
                            "v": 127, 
                            "dur": 180, 
                            "type": "note", 
                            "channel": 4
                        }
                    ]
                ], 
                [
                    103200, 
                    [
                        {
                            "pitch": 79, 
                            "t0": 103200, 
                            "v": 127, 
                            "dur": 480, 
                            "type": "note", 
                            "channel": 4
                        }
                    ]
                ], 
                [
                    103680, 
                    [
                        {
                            "pitch": 69, 
                            "t0": 103680, 
                            "v": 127, 
                            "dur": 120, 
                            "type": "note", 
                            "channel": 4
                        }
                    ]
                ], 
                [
                    103800, 
                    [
                        {
                            "pitch": 72, 
                            "t0": 103800, 
                            "v": 127, 
                            "dur": 180, 
                            "type": "note", 
                            "channel": 4
                        }
                    ]
                ], 
                [
                    103980, 
                    [
                        {
                            "pitch": 76, 
                            "t0": 103980, 
                            "v": 127, 
                            "dur": 180, 
                            "type": "note", 
                            "channel": 4
                        }
                    ]
                ], 
                [
                    104160, 
                    [
                        {
                            "pitch": 81, 
                            "t0": 104160, 
                            "v": 127, 
                            "dur": 480, 
                            "type": "note", 
                            "channel": 4
                        }
                    ]
                ], 
                [
                    105600, 
                    [
                        {
                            "pitch": 72, 
                            "t0": 105600, 
                            "v": 127, 
                            "dur": 120, 
                            "type": "note", 
                            "channel": 4
                        }
                    ]
                ], 
                [
                    105720, 
                    [
                        {
                            "pitch": 76, 
                            "t0": 105720, 
                            "v": 127, 
                            "dur": 180, 
                            "type": "note", 
                            "channel": 4
                        }
                    ]
                ], 
                [
                    105900, 
                    [
                        {
                            "pitch": 79, 
                            "t0": 105900, 
                            "v": 127, 
                            "dur": 180, 
                            "type": "note", 
                            "channel": 4
                        }
                    ]
                ], 
                [
                    106080, 
                    [
                        {
                            "pitch": 84, 
                            "t0": 106080, 
                            "v": 127, 
                            "dur": 480, 
                            "type": "note", 
                            "channel": 4
                        }
                    ]
                ], 
                [
                    106560, 
                    [
                        {
                            "pitch": 67, 
                            "t0": 106560, 
                            "v": 127, 
                            "dur": 120, 
                            "type": "note", 
                            "channel": 4
                        }
                    ]
                ], 
                [
                    106680, 
                    [
                        {
                            "pitch": 71, 
                            "t0": 106680, 
                            "v": 127, 
                            "dur": 180, 
                            "type": "note", 
                            "channel": 4
                        }
                    ]
                ], 
                [
                    106860, 
                    [
                        {
                            "pitch": 74, 
                            "t0": 106860, 
                            "v": 127, 
                            "dur": 180, 
                            "type": "note", 
                            "channel": 4
                        }
                    ]
                ], 
                [
                    107040, 
                    [
                        {
                            "pitch": 79, 
                            "t0": 107040, 
                            "v": 127, 
                            "dur": 480, 
                            "type": "note", 
                            "channel": 4
                        }
                    ]
                ], 
                [
                    107520, 
                    [
                        {
                            "pitch": 69, 
                            "t0": 107520, 
                            "v": 127, 
                            "dur": 120, 
                            "type": "note", 
                            "channel": 4
                        }
                    ]
                ], 
                [
                    107640, 
                    [
                        {
                            "pitch": 72, 
                            "t0": 107640, 
                            "v": 127, 
                            "dur": 180, 
                            "type": "note", 
                            "channel": 4
                        }
                    ]
                ], 
                [
                    107820, 
                    [
                        {
                            "pitch": 76, 
                            "t0": 107820, 
                            "v": 127, 
                            "dur": 180, 
                            "type": "note", 
                            "channel": 4
                        }
                    ]
                ], 
                [
                    108000, 
                    [
                        {
                            "pitch": 81, 
                            "t0": 108000, 
                            "v": 127, 
                            "dur": 480, 
                            "type": "note", 
                            "channel": 4
                        }
                    ]
                ], 
                [
                    108480, 
                    [
                        {
                            "pitch": 64, 
                            "t0": 108480, 
                            "v": 127, 
                            "dur": 120, 
                            "type": "note", 
                            "channel": 4
                        }
                    ]
                ], 
                [
                    108600, 
                    [
                        {
                            "pitch": 67, 
                            "t0": 108600, 
                            "v": 127, 
                            "dur": 180, 
                            "type": "note", 
                            "channel": 4
                        }
                    ]
                ], 
                [
                    108780, 
                    [
                        {
                            "pitch": 71, 
                            "t0": 108780, 
                            "v": 127, 
                            "dur": 180, 
                            "type": "note", 
                            "channel": 4
                        }
                    ]
                ], 
                [
                    108960, 
                    [
                        {
                            "pitch": 76, 
                            "t0": 108960, 
                            "v": 127, 
                            "dur": 480, 
                            "type": "note", 
                            "channel": 4
                        }
                    ]
                ], 
                [
                    109440, 
                    [
                        {
                            "pitch": 65, 
                            "t0": 109440, 
                            "v": 127, 
                            "dur": 120, 
                            "type": "note", 
                            "channel": 4
                        }
                    ]
                ], 
                [
                    109560, 
                    [
                        {
                            "pitch": 69, 
                            "t0": 109560, 
                            "v": 127, 
                            "dur": 180, 
                            "type": "note", 
                            "channel": 4
                        }
                    ]
                ], 
                [
                    109740, 
                    [
                        {
                            "pitch": 72, 
                            "t0": 109740, 
                            "v": 127, 
                            "dur": 190, 
                            "type": "note", 
                            "channel": 4
                        }
                    ]
                ], 
                [
                    109920, 
                    [
                        {
                            "pitch": 77, 
                            "t0": 109920, 
                            "v": 127, 
                            "dur": 480, 
                            "type": "note", 
                            "channel": 4
                        }
                    ]
                ], 
                [
                    110400, 
                    [
                        {
                            "pitch": 67, 
                            "t0": 110400, 
                            "v": 127, 
                            "dur": 120, 
                            "type": "note", 
                            "channel": 4
                        }
                    ]
                ], 
                [
                    110520, 
                    [
                        {
                            "pitch": 71, 
                            "t0": 110520, 
                            "v": 127, 
                            "dur": 180, 
                            "type": "note", 
                            "channel": 4
                        }
                    ]
                ], 
                [
                    110700, 
                    [
                        {
                            "pitch": 74, 
                            "t0": 110700, 
                            "v": 127, 
                            "dur": 180, 
                            "type": "note", 
                            "channel": 4
                        }
                    ]
                ], 
                [
                    110880, 
                    [
                        {
                            "pitch": 79, 
                            "t0": 110880, 
                            "v": 127, 
                            "dur": 480, 
                            "type": "note", 
                            "channel": 4
                        }
                    ]
                ], 
                [
                    111360, 
                    [
                        {
                            "pitch": 69, 
                            "t0": 111360, 
                            "v": 127, 
                            "dur": 120, 
                            "type": "note", 
                            "channel": 4
                        }
                    ]
                ], 
                [
                    111480, 
                    [
                        {
                            "pitch": 72, 
                            "t0": 111480, 
                            "v": 127, 
                            "dur": 180, 
                            "type": "note", 
                            "channel": 4
                        }
                    ]
                ], 
                [
                    111660, 
                    [
                        {
                            "pitch": 76, 
                            "t0": 111660, 
                            "v": 127, 
                            "dur": 180, 
                            "type": "note", 
                            "channel": 4
                        }
                    ]
                ], 
                [
                    111840, 
                    [
                        {
                            "pitch": 81, 
                            "t0": 111840, 
                            "v": 127, 
                            "dur": 480, 
                            "type": "note", 
                            "channel": 4
                        }
                    ]
                ], 
                [
                    113280, 
                    [
                        {
                            "pitch": 84, 
                            "t0": 113280, 
                            "v": 70, 
                            "dur": 862, 
                            "type": "note", 
                            "channel": 4
                        }
                    ]
                ], 
                [
                    114960, 
                    [
                        {
                            "pitch": 84, 
                            "t0": 114960, 
                            "v": 90, 
                            "dur": 120, 
                            "type": "note", 
                            "channel": 4
                        }
                    ]
                ], 
                [
                    115080, 
                    [
                        {
                            "pitch": 83, 
                            "t0": 115080, 
                            "v": 90, 
                            "dur": 120, 
                            "type": "note", 
                            "channel": 4
                        }
                    ]
                ], 
                [
                    115200, 
                    [
                        {
                            "pitch": 84, 
                            "t0": 115200, 
                            "v": 70, 
                            "dur": 983, 
                            "type": "note", 
                            "channel": 4
                        }
                    ]
                ], 
                [
                    117120, 
                    [
                        {
                            "pitch": 83, 
                            "t0": 117120, 
                            "v": 70, 
                            "dur": 811, 
                            "type": "note", 
                            "channel": 4
                        }
                    ]
                ], 
                [
                    118800, 
                    [
                        {
                            "pitch": 83, 
                            "t0": 118800, 
                            "v": 90, 
                            "dur": 120, 
                            "type": "note", 
                            "channel": 4
                        }
                    ]
                ], 
                [
                    118920, 
                    [
                        {
                            "pitch": 81, 
                            "t0": 118920, 
                            "v": 90, 
                            "dur": 120, 
                            "type": "note", 
                            "channel": 4
                        }
                    ]
                ], 
                [
                    119040, 
                    [
                        {
                            "pitch": 83, 
                            "t0": 119040, 
                            "v": 70, 
                            "dur": 1176, 
                            "type": "note", 
                            "channel": 4
                        }
                    ]
                ], 
                [
                    120960, 
                    [
                        {
                            "pitch": 84, 
                            "t0": 120960, 
                            "v": 70, 
                            "dur": 1015, 
                            "type": "note", 
                            "channel": 4
                        }
                    ]
                ], 
                [
                    122640, 
                    [
                        {
                            "pitch": 84, 
                            "t0": 122640, 
                            "v": 90, 
                            "dur": 120, 
                            "type": "note", 
                            "channel": 4
                        }
                    ]
                ], 
                [
                    122760, 
                    [
                        {
                            "pitch": 83, 
                            "t0": 122760, 
                            "v": 90, 
                            "dur": 120, 
                            "type": "note", 
                            "channel": 4
                        }
                    ]
                ], 
                [
                    122880, 
                    [
                        {
                            "pitch": 84, 
                            "t0": 122880, 
                            "v": 70, 
                            "dur": 946, 
                            "type": "note", 
                            "channel": 4
                        }
                    ]
                ], 
                [
                    124800, 
                    [
                        {
                            "pitch": 83, 
                            "t0": 124800, 
                            "v": 70, 
                            "dur": 1216, 
                            "type": "note", 
                            "channel": 4
                        }
                    ]
                ], 
                [
                    126480, 
                    [
                        {
                            "pitch": 83, 
                            "t0": 126480, 
                            "v": 90, 
                            "dur": 120, 
                            "type": "note", 
                            "channel": 4
                        }
                    ]
                ], 
                [
                    126600, 
                    [
                        {
                            "pitch": 81, 
                            "t0": 126600, 
                            "v": 90, 
                            "dur": 120, 
                            "type": "note", 
                            "channel": 4
                        }
                    ]
                ], 
                [
                    126720, 
                    [
                        {
                            "pitch": 83, 
                            "t0": 126720, 
                            "v": 70, 
                            "dur": 1220, 
                            "type": "note", 
                            "channel": 4
                        }
                    ]
                ], 
                [
                    128640, 
                    [
                        {
                            "pitch": 81, 
                            "t0": 128640, 
                            "v": 70, 
                            "dur": 1310, 
                            "type": "note", 
                            "channel": 4
                        }
                    ]
                ], 
                [
                    131280, 
                    [
                        {
                            "pitch": 81, 
                            "t0": 131280, 
                            "v": 70, 
                            "dur": 240, 
                            "type": "note", 
                            "channel": 4
                        }
                    ]
                ], 
                [
                    131520, 
                    [
                        {
                            "pitch": 79, 
                            "t0": 131520, 
                            "v": 70, 
                            "dur": 735, 
                            "type": "note", 
                            "channel": 4
                        }
                    ]
                ], 
                [
                    132240, 
                    [
                        {
                            "pitch": 77, 
                            "t0": 132240, 
                            "v": 70, 
                            "dur": 242, 
                            "type": "note", 
                            "channel": 4
                        }
                    ]
                ], 
                [
                    132480, 
                    [
                        {
                            "pitch": 76, 
                            "t0": 132480, 
                            "v": 70, 
                            "dur": 888, 
                            "type": "note", 
                            "channel": 4
                        }
                    ]
                ], 
                [
                    133440, 
                    [
                        {
                            "pitch": 84, 
                            "t0": 133440, 
                            "v": 70, 
                            "dur": 1671, 
                            "type": "note", 
                            "channel": 4
                        }
                    ]
                ], 
                [
                    136320, 
                    [
                        {
                            "pitch": 84, 
                            "t0": 136320, 
                            "v": 70, 
                            "dur": 1091, 
                            "type": "note", 
                            "channel": 4
                        }
                    ]
                ], 
                [
                    138720, 
                    [
                        {
                            "pitch": 84, 
                            "t0": 138720, 
                            "v": 70, 
                            "dur": 472, 
                            "type": "note", 
                            "channel": 4
                        }
                    ]
                ], 
                [
                    139200, 
                    [
                        {
                            "pitch": 88, 
                            "t0": 139200, 
                            "v": 70, 
                            "dur": 768, 
                            "type": "note", 
                            "channel": 4
                        }
                    ]
                ], 
                [
                    139920, 
                    [
                        {
                            "pitch": 84, 
                            "t0": 139920, 
                            "v": 70, 
                            "dur": 215, 
                            "type": "note", 
                            "channel": 4
                        }
                    ]
                ], 
                [
                    140160, 
                    [
                        {
                            "pitch": 86, 
                            "t0": 140160, 
                            "v": 70, 
                            "dur": 1091, 
                            "type": "note", 
                            "channel": 4
                        }
                    ]
                ], 
                [
                    147840, 
                    [
                        {
                            "pitch": 84, 
                            "t0": 147840, 
                            "v": 70, 
                            "dur": 862, 
                            "type": "note", 
                            "channel": 4
                        }
                    ]
                ], 
                [
                    149520, 
                    [
                        {
                            "pitch": 84, 
                            "t0": 149520, 
                            "v": 90, 
                            "dur": 120, 
                            "type": "note", 
                            "channel": 4
                        }
                    ]
                ], 
                [
                    149640, 
                    [
                        {
                            "pitch": 83, 
                            "t0": 149640, 
                            "v": 90, 
                            "dur": 120, 
                            "type": "note", 
                            "channel": 4
                        }
                    ]
                ], 
                [
                    149760, 
                    [
                        {
                            "pitch": 84, 
                            "t0": 149760, 
                            "v": 70, 
                            "dur": 983, 
                            "type": "note", 
                            "channel": 4
                        }
                    ]
                ], 
                [
                    151680, 
                    [
                        {
                            "pitch": 83, 
                            "t0": 151680, 
                            "v": 70, 
                            "dur": 811, 
                            "type": "note", 
                            "channel": 4
                        }
                    ]
                ], 
                [
                    153360, 
                    [
                        {
                            "pitch": 83, 
                            "t0": 153360, 
                            "v": 90, 
                            "dur": 120, 
                            "type": "note", 
                            "channel": 4
                        }
                    ]
                ], 
                [
                    153480, 
                    [
                        {
                            "pitch": 81, 
                            "t0": 153480, 
                            "v": 90, 
                            "dur": 120, 
                            "type": "note", 
                            "channel": 4
                        }
                    ]
                ], 
                [
                    153600, 
                    [
                        {
                            "pitch": 83, 
                            "t0": 153600, 
                            "v": 70, 
                            "dur": 1176, 
                            "type": "note", 
                            "channel": 4
                        }
                    ]
                ], 
                [
                    155520, 
                    [
                        {
                            "pitch": 84, 
                            "t0": 155520, 
                            "v": 70, 
                            "dur": 1015, 
                            "type": "note", 
                            "channel": 4
                        }
                    ]
                ], 
                [
                    157200, 
                    [
                        {
                            "pitch": 84, 
                            "t0": 157200, 
                            "v": 90, 
                            "dur": 120, 
                            "type": "note", 
                            "channel": 4
                        }
                    ]
                ], 
                [
                    157320, 
                    [
                        {
                            "pitch": 83, 
                            "t0": 157320, 
                            "v": 90, 
                            "dur": 120, 
                            "type": "note", 
                            "channel": 4
                        }
                    ]
                ], 
                [
                    157440, 
                    [
                        {
                            "pitch": 84, 
                            "t0": 157440, 
                            "v": 70, 
                            "dur": 946, 
                            "type": "note", 
                            "channel": 4
                        }
                    ]
                ], 
                [
                    159360, 
                    [
                        {
                            "pitch": 83, 
                            "t0": 159360, 
                            "v": 70, 
                            "dur": 1216, 
                            "type": "note", 
                            "channel": 4
                        }
                    ]
                ], 
                [
                    161040, 
                    [
                        {
                            "pitch": 83, 
                            "t0": 161040, 
                            "v": 90, 
                            "dur": 120, 
                            "type": "note", 
                            "channel": 4
                        }
                    ]
                ], 
                [
                    161160, 
                    [
                        {
                            "pitch": 81, 
                            "t0": 161160, 
                            "v": 90, 
                            "dur": 120, 
                            "type": "note", 
                            "channel": 4
                        }
                    ]
                ], 
                [
                    161280, 
                    [
                        {
                            "pitch": 83, 
                            "t0": 161280, 
                            "v": 70, 
                            "dur": 1220, 
                            "type": "note", 
                            "channel": 4
                        }
                    ]
                ], 
                [
                    163200, 
                    [
                        {
                            "pitch": 81, 
                            "t0": 163200, 
                            "v": 70, 
                            "dur": 1310, 
                            "type": "note", 
                            "channel": 4
                        }
                    ]
                ], 
                [
                    165840, 
                    [
                        {
                            "pitch": 81, 
                            "t0": 165840, 
                            "v": 70, 
                            "dur": 240, 
                            "type": "note", 
                            "channel": 4
                        }
                    ]
                ], 
                [
                    166080, 
                    [
                        {
                            "pitch": 79, 
                            "t0": 166080, 
                            "v": 70, 
                            "dur": 735, 
                            "type": "note", 
                            "channel": 4
                        }
                    ]
                ], 
                [
                    166800, 
                    [
                        {
                            "pitch": 77, 
                            "t0": 166800, 
                            "v": 70, 
                            "dur": 242, 
                            "type": "note", 
                            "channel": 4
                        }
                    ]
                ], 
                [
                    167040, 
                    [
                        {
                            "pitch": 76, 
                            "t0": 167040, 
                            "v": 70, 
                            "dur": 888, 
                            "type": "note", 
                            "channel": 4
                        }
                    ]
                ], 
                [
                    168000, 
                    [
                        {
                            "pitch": 84, 
                            "t0": 168000, 
                            "v": 70, 
                            "dur": 1671, 
                            "type": "note", 
                            "channel": 4
                        }
                    ]
                ], 
                [
                    170880, 
                    [
                        {
                            "pitch": 84, 
                            "t0": 170880, 
                            "v": 70, 
                            "dur": 1091, 
                            "type": "note", 
                            "channel": 4
                        }
                    ]
                ], 
                [
                    173280, 
                    [
                        {
                            "pitch": 84, 
                            "t0": 173280, 
                            "v": 70, 
                            "dur": 472, 
                            "type": "note", 
                            "channel": 4
                        }
                    ]
                ], 
                [
                    173760, 
                    [
                        {
                            "pitch": 88, 
                            "t0": 173760, 
                            "v": 70, 
                            "dur": 768, 
                            "type": "note", 
                            "channel": 4
                        }
                    ]
                ], 
                [
                    174480, 
                    [
                        {
                            "pitch": 84, 
                            "t0": 174480, 
                            "v": 70, 
                            "dur": 215, 
                            "type": "note", 
                            "channel": 4
                        }
                    ]
                ], 
                [
                    174720, 
                    [
                        {
                            "pitch": 86, 
                            "t0": 174720, 
                            "v": 70, 
                            "dur": 1091, 
                            "type": "note", 
                            "channel": 4
                        }
                    ]
                ], 
                [
                    182400, 
                    [
                        {
                            "pitch": 72, 
                            "t0": 182400, 
                            "v": 127, 
                            "dur": 120, 
                            "type": "note", 
                            "channel": 4
                        }
                    ]
                ], 
                [
                    182520, 
                    [
                        {
                            "pitch": 76, 
                            "t0": 182520, 
                            "v": 127, 
                            "dur": 180, 
                            "type": "note", 
                            "channel": 4
                        }
                    ]
                ], 
                [
                    182700, 
                    [
                        {
                            "pitch": 79, 
                            "t0": 182700, 
                            "v": 127, 
                            "dur": 180, 
                            "type": "note", 
                            "channel": 4
                        }
                    ]
                ], 
                [
                    182880, 
                    [
                        {
                            "pitch": 84, 
                            "t0": 182880, 
                            "v": 127, 
                            "dur": 480, 
                            "type": "note", 
                            "channel": 4
                        }
                    ]
                ], 
                [
                    183360, 
                    [
                        {
                            "pitch": 72, 
                            "t0": 183360, 
                            "v": 127, 
                            "dur": 120, 
                            "type": "note", 
                            "channel": 4
                        }
                    ]
                ], 
                [
                    183480, 
                    [
                        {
                            "pitch": 76, 
                            "t0": 183480, 
                            "v": 127, 
                            "dur": 180, 
                            "type": "note", 
                            "channel": 4
                        }
                    ]
                ], 
                [
                    183660, 
                    [
                        {
                            "pitch": 79, 
                            "t0": 183660, 
                            "v": 127, 
                            "dur": 180, 
                            "type": "note", 
                            "channel": 4
                        }
                    ]
                ], 
                [
                    183840, 
                    [
                        {
                            "pitch": 84, 
                            "t0": 183840, 
                            "v": 127, 
                            "dur": 480, 
                            "type": "note", 
                            "channel": 4
                        }
                    ]
                ], 
                [
                    184320, 
                    [
                        {
                            "pitch": 67, 
                            "t0": 184320, 
                            "v": 127, 
                            "dur": 120, 
                            "type": "note", 
                            "channel": 4
                        }
                    ]
                ], 
                [
                    184440, 
                    [
                        {
                            "pitch": 71, 
                            "t0": 184440, 
                            "v": 127, 
                            "dur": 180, 
                            "type": "note", 
                            "channel": 4
                        }
                    ]
                ], 
                [
                    184620, 
                    [
                        {
                            "pitch": 74, 
                            "t0": 184620, 
                            "v": 127, 
                            "dur": 180, 
                            "type": "note", 
                            "channel": 4
                        }
                    ]
                ], 
                [
                    184800, 
                    [
                        {
                            "pitch": 79, 
                            "t0": 184800, 
                            "v": 127, 
                            "dur": 480, 
                            "type": "note", 
                            "channel": 4
                        }
                    ]
                ], 
                [
                    185280, 
                    [
                        {
                            "pitch": 67, 
                            "t0": 185280, 
                            "v": 127, 
                            "dur": 120, 
                            "type": "note", 
                            "channel": 4
                        }
                    ]
                ], 
                [
                    185400, 
                    [
                        {
                            "pitch": 71, 
                            "t0": 185400, 
                            "v": 127, 
                            "dur": 180, 
                            "type": "note", 
                            "channel": 4
                        }
                    ]
                ], 
                [
                    185580, 
                    [
                        {
                            "pitch": 74, 
                            "t0": 185580, 
                            "v": 127, 
                            "dur": 180, 
                            "type": "note", 
                            "channel": 4
                        }
                    ]
                ], 
                [
                    185760, 
                    [
                        {
                            "pitch": 79, 
                            "t0": 185760, 
                            "v": 127, 
                            "dur": 480, 
                            "type": "note", 
                            "channel": 4
                        }
                    ]
                ], 
                [
                    186240, 
                    [
                        {
                            "pitch": 69, 
                            "t0": 186240, 
                            "v": 127, 
                            "dur": 120, 
                            "type": "note", 
                            "channel": 4
                        }
                    ]
                ], 
                [
                    186360, 
                    [
                        {
                            "pitch": 72, 
                            "t0": 186360, 
                            "v": 127, 
                            "dur": 180, 
                            "type": "note", 
                            "channel": 4
                        }
                    ]
                ], 
                [
                    186540, 
                    [
                        {
                            "pitch": 76, 
                            "t0": 186540, 
                            "v": 127, 
                            "dur": 180, 
                            "type": "note", 
                            "channel": 4
                        }
                    ]
                ], 
                [
                    186720, 
                    [
                        {
                            "pitch": 81, 
                            "t0": 186720, 
                            "v": 127, 
                            "dur": 480, 
                            "type": "note", 
                            "channel": 4
                        }
                    ]
                ], 
                [
                    187200, 
                    [
                        {
                            "pitch": 69, 
                            "t0": 187200, 
                            "v": 127, 
                            "dur": 120, 
                            "type": "note", 
                            "channel": 4
                        }
                    ]
                ], 
                [
                    187320, 
                    [
                        {
                            "pitch": 72, 
                            "t0": 187320, 
                            "v": 127, 
                            "dur": 180, 
                            "type": "note", 
                            "channel": 4
                        }
                    ]
                ], 
                [
                    187500, 
                    [
                        {
                            "pitch": 76, 
                            "t0": 187500, 
                            "v": 127, 
                            "dur": 180, 
                            "type": "note", 
                            "channel": 4
                        }
                    ]
                ], 
                [
                    187680, 
                    [
                        {
                            "pitch": 81, 
                            "t0": 187680, 
                            "v": 127, 
                            "dur": 480, 
                            "type": "note", 
                            "channel": 4
                        }
                    ]
                ], 
                [
                    188160, 
                    [
                        {
                            "pitch": 64, 
                            "t0": 188160, 
                            "v": 127, 
                            "dur": 120, 
                            "type": "note", 
                            "channel": 4
                        }
                    ]
                ], 
                [
                    188280, 
                    [
                        {
                            "pitch": 67, 
                            "t0": 188280, 
                            "v": 127, 
                            "dur": 180, 
                            "type": "note", 
                            "channel": 4
                        }
                    ]
                ], 
                [
                    188460, 
                    [
                        {
                            "pitch": 71, 
                            "t0": 188460, 
                            "v": 127, 
                            "dur": 180, 
                            "type": "note", 
                            "channel": 4
                        }
                    ]
                ], 
                [
                    188640, 
                    [
                        {
                            "pitch": 76, 
                            "t0": 188640, 
                            "v": 127, 
                            "dur": 480, 
                            "type": "note", 
                            "channel": 4
                        }
                    ]
                ], 
                [
                    189120, 
                    [
                        {
                            "pitch": 64, 
                            "t0": 189120, 
                            "v": 127, 
                            "dur": 120, 
                            "type": "note", 
                            "channel": 4
                        }
                    ]
                ], 
                [
                    189240, 
                    [
                        {
                            "pitch": 67, 
                            "t0": 189240, 
                            "v": 127, 
                            "dur": 180, 
                            "type": "note", 
                            "channel": 4
                        }
                    ]
                ], 
                [
                    189420, 
                    [
                        {
                            "pitch": 71, 
                            "t0": 189420, 
                            "v": 127, 
                            "dur": 180, 
                            "type": "note", 
                            "channel": 4
                        }
                    ]
                ], 
                [
                    189600, 
                    [
                        {
                            "pitch": 76, 
                            "t0": 189600, 
                            "v": 127, 
                            "dur": 480, 
                            "type": "note", 
                            "channel": 4
                        }
                    ]
                ], 
                [
                    190080, 
                    [
                        {
                            "pitch": 65, 
                            "t0": 190080, 
                            "v": 127, 
                            "dur": 120, 
                            "type": "note", 
                            "channel": 4
                        }
                    ]
                ], 
                [
                    190200, 
                    [
                        {
                            "pitch": 69, 
                            "t0": 190200, 
                            "v": 127, 
                            "dur": 180, 
                            "type": "note", 
                            "channel": 4
                        }
                    ]
                ], 
                [
                    190380, 
                    [
                        {
                            "pitch": 72, 
                            "t0": 190380, 
                            "v": 127, 
                            "dur": 180, 
                            "type": "note", 
                            "channel": 4
                        }
                    ]
                ], 
                [
                    190560, 
                    [
                        {
                            "pitch": 77, 
                            "t0": 190560, 
                            "v": 127, 
                            "dur": 420, 
                            "type": "note", 
                            "channel": 4
                        }
                    ]
                ], 
                [
                    191040, 
                    [
                        {
                            "pitch": 67, 
                            "t0": 191040, 
                            "v": 127, 
                            "dur": 180, 
                            "type": "note", 
                            "channel": 4
                        }
                    ]
                ], 
                [
                    191220, 
                    [
                        {
                            "pitch": 71, 
                            "t0": 191220, 
                            "v": 127, 
                            "dur": 120, 
                            "type": "note", 
                            "channel": 4
                        }
                    ]
                ], 
                [
                    191340, 
                    [
                        {
                            "pitch": 74, 
                            "t0": 191340, 
                            "v": 127, 
                            "dur": 180, 
                            "type": "note", 
                            "channel": 4
                        }
                    ]
                ], 
                [
                    191520, 
                    [
                        {
                            "pitch": 79, 
                            "t0": 191520, 
                            "v": 127, 
                            "dur": 480, 
                            "type": "note", 
                            "channel": 4
                        }
                    ]
                ], 
                [
                    192000, 
                    [
                        {
                            "pitch": 69, 
                            "t0": 192000, 
                            "v": 127, 
                            "dur": 120, 
                            "type": "note", 
                            "channel": 4
                        }
                    ]
                ], 
                [
                    192120, 
                    [
                        {
                            "pitch": 72, 
                            "t0": 192120, 
                            "v": 127, 
                            "dur": 180, 
                            "type": "note", 
                            "channel": 4
                        }
                    ]
                ], 
                [
                    192300, 
                    [
                        {
                            "pitch": 76, 
                            "t0": 192300, 
                            "v": 127, 
                            "dur": 180, 
                            "type": "note", 
                            "channel": 4
                        }
                    ]
                ], 
                [
                    192480, 
                    [
                        {
                            "pitch": 81, 
                            "t0": 192480, 
                            "v": 127, 
                            "dur": 480, 
                            "type": "note", 
                            "channel": 4
                        }
                    ]
                ], 
                [
                    193920, 
                    [
                        {
                            "pitch": 72, 
                            "t0": 193920, 
                            "v": 127, 
                            "dur": 120, 
                            "type": "note", 
                            "channel": 4
                        }
                    ]
                ], 
                [
                    194040, 
                    [
                        {
                            "pitch": 76, 
                            "t0": 194040, 
                            "v": 127, 
                            "dur": 180, 
                            "type": "note", 
                            "channel": 4
                        }
                    ]
                ], 
                [
                    194220, 
                    [
                        {
                            "pitch": 79, 
                            "t0": 194220, 
                            "v": 127, 
                            "dur": 180, 
                            "type": "note", 
                            "channel": 4
                        }
                    ]
                ], 
                [
                    194400, 
                    [
                        {
                            "pitch": 84, 
                            "t0": 194400, 
                            "v": 127, 
                            "dur": 480, 
                            "type": "note", 
                            "channel": 4
                        }
                    ]
                ], 
                [
                    194880, 
                    [
                        {
                            "pitch": 67, 
                            "t0": 194880, 
                            "v": 127, 
                            "dur": 120, 
                            "type": "note", 
                            "channel": 4
                        }
                    ]
                ], 
                [
                    195000, 
                    [
                        {
                            "pitch": 71, 
                            "t0": 195000, 
                            "v": 127, 
                            "dur": 180, 
                            "type": "note", 
                            "channel": 4
                        }
                    ]
                ], 
                [
                    195180, 
                    [
                        {
                            "pitch": 74, 
                            "t0": 195180, 
                            "v": 127, 
                            "dur": 180, 
                            "type": "note", 
                            "channel": 4
                        }
                    ]
                ], 
                [
                    195360, 
                    [
                        {
                            "pitch": 79, 
                            "t0": 195360, 
                            "v": 127, 
                            "dur": 480, 
                            "type": "note", 
                            "channel": 4
                        }
                    ]
                ], 
                [
                    195840, 
                    [
                        {
                            "pitch": 69, 
                            "t0": 195840, 
                            "v": 127, 
                            "dur": 120, 
                            "type": "note", 
                            "channel": 4
                        }
                    ]
                ], 
                [
                    195960, 
                    [
                        {
                            "pitch": 72, 
                            "t0": 195960, 
                            "v": 127, 
                            "dur": 180, 
                            "type": "note", 
                            "channel": 4
                        }
                    ]
                ], 
                [
                    196140, 
                    [
                        {
                            "pitch": 76, 
                            "t0": 196140, 
                            "v": 127, 
                            "dur": 180, 
                            "type": "note", 
                            "channel": 4
                        }
                    ]
                ], 
                [
                    196320, 
                    [
                        {
                            "pitch": 81, 
                            "t0": 196320, 
                            "v": 127, 
                            "dur": 480, 
                            "type": "note", 
                            "channel": 4
                        }
                    ]
                ], 
                [
                    196800, 
                    [
                        {
                            "pitch": 64, 
                            "t0": 196800, 
                            "v": 127, 
                            "dur": 120, 
                            "type": "note", 
                            "channel": 4
                        }
                    ]
                ], 
                [
                    196920, 
                    [
                        {
                            "pitch": 67, 
                            "t0": 196920, 
                            "v": 127, 
                            "dur": 180, 
                            "type": "note", 
                            "channel": 4
                        }
                    ]
                ], 
                [
                    197100, 
                    [
                        {
                            "pitch": 71, 
                            "t0": 197100, 
                            "v": 127, 
                            "dur": 180, 
                            "type": "note", 
                            "channel": 4
                        }
                    ]
                ], 
                [
                    197280, 
                    [
                        {
                            "pitch": 76, 
                            "t0": 197280, 
                            "v": 127, 
                            "dur": 480, 
                            "type": "note", 
                            "channel": 4
                        }
                    ]
                ], 
                [
                    197760, 
                    [
                        {
                            "pitch": 65, 
                            "t0": 197760, 
                            "v": 127, 
                            "dur": 120, 
                            "type": "note", 
                            "channel": 4
                        }
                    ]
                ], 
                [
                    197880, 
                    [
                        {
                            "pitch": 69, 
                            "t0": 197880, 
                            "v": 127, 
                            "dur": 180, 
                            "type": "note", 
                            "channel": 4
                        }
                    ]
                ], 
                [
                    198060, 
                    [
                        {
                            "pitch": 72, 
                            "t0": 198060, 
                            "v": 127, 
                            "dur": 190, 
                            "type": "note", 
                            "channel": 4
                        }
                    ]
                ], 
                [
                    198240, 
                    [
                        {
                            "pitch": 77, 
                            "t0": 198240, 
                            "v": 127, 
                            "dur": 480, 
                            "type": "note", 
                            "channel": 4
                        }
                    ]
                ], 
                [
                    198720, 
                    [
                        {
                            "pitch": 67, 
                            "t0": 198720, 
                            "v": 127, 
                            "dur": 120, 
                            "type": "note", 
                            "channel": 4
                        }
                    ]
                ], 
                [
                    198840, 
                    [
                        {
                            "pitch": 71, 
                            "t0": 198840, 
                            "v": 127, 
                            "dur": 180, 
                            "type": "note", 
                            "channel": 4
                        }
                    ]
                ], 
                [
                    199020, 
                    [
                        {
                            "pitch": 74, 
                            "t0": 199020, 
                            "v": 127, 
                            "dur": 180, 
                            "type": "note", 
                            "channel": 4
                        }
                    ]
                ], 
                [
                    199200, 
                    [
                        {
                            "pitch": 79, 
                            "t0": 199200, 
                            "v": 127, 
                            "dur": 480, 
                            "type": "note", 
                            "channel": 4
                        }
                    ]
                ], 
                [
                    199680, 
                    [
                        {
                            "pitch": 69, 
                            "t0": 199680, 
                            "v": 127, 
                            "dur": 120, 
                            "type": "note", 
                            "channel": 4
                        }
                    ]
                ], 
                [
                    199800, 
                    [
                        {
                            "pitch": 72, 
                            "t0": 199800, 
                            "v": 127, 
                            "dur": 180, 
                            "type": "note", 
                            "channel": 4
                        }
                    ]
                ], 
                [
                    199980, 
                    [
                        {
                            "pitch": 76, 
                            "t0": 199980, 
                            "v": 127, 
                            "dur": 180, 
                            "type": "note", 
                            "channel": 4
                        }
                    ]
                ], 
                [
                    200160, 
                    [
                        {
                            "pitch": 81, 
                            "t0": 200160, 
                            "v": 127, 
                            "dur": 480, 
                            "type": "note", 
                            "channel": 4
                        }
                    ]
                ], 
                [
                    201600, 
                    [
                        {
                            "pitch": 72, 
                            "t0": 201600, 
                            "v": 127, 
                            "dur": 120, 
                            "type": "note", 
                            "channel": 4
                        }
                    ]
                ], 
                [
                    201720, 
                    [
                        {
                            "pitch": 76, 
                            "t0": 201720, 
                            "v": 127, 
                            "dur": 180, 
                            "type": "note", 
                            "channel": 4
                        }
                    ]
                ], 
                [
                    201900, 
                    [
                        {
                            "pitch": 79, 
                            "t0": 201900, 
                            "v": 127, 
                            "dur": 180, 
                            "type": "note", 
                            "channel": 4
                        }
                    ]
                ], 
                [
                    202080, 
                    [
                        {
                            "pitch": 84, 
                            "t0": 202080, 
                            "v": 127, 
                            "dur": 480, 
                            "type": "note", 
                            "channel": 4
                        }
                    ]
                ], 
                [
                    202560, 
                    [
                        {
                            "pitch": 72, 
                            "t0": 202560, 
                            "v": 127, 
                            "dur": 120, 
                            "type": "note", 
                            "channel": 4
                        }
                    ]
                ], 
                [
                    202680, 
                    [
                        {
                            "pitch": 76, 
                            "t0": 202680, 
                            "v": 127, 
                            "dur": 180, 
                            "type": "note", 
                            "channel": 4
                        }
                    ]
                ], 
                [
                    202860, 
                    [
                        {
                            "pitch": 79, 
                            "t0": 202860, 
                            "v": 127, 
                            "dur": 180, 
                            "type": "note", 
                            "channel": 4
                        }
                    ]
                ], 
                [
                    203040, 
                    [
                        {
                            "pitch": 84, 
                            "t0": 203040, 
                            "v": 127, 
                            "dur": 480, 
                            "type": "note", 
                            "channel": 4
                        }
                    ]
                ], 
                [
                    203520, 
                    [
                        {
                            "pitch": 67, 
                            "t0": 203520, 
                            "v": 127, 
                            "dur": 120, 
                            "type": "note", 
                            "channel": 4
                        }
                    ]
                ], 
                [
                    203640, 
                    [
                        {
                            "pitch": 71, 
                            "t0": 203640, 
                            "v": 127, 
                            "dur": 180, 
                            "type": "note", 
                            "channel": 4
                        }
                    ]
                ], 
                [
                    203820, 
                    [
                        {
                            "pitch": 74, 
                            "t0": 203820, 
                            "v": 127, 
                            "dur": 180, 
                            "type": "note", 
                            "channel": 4
                        }
                    ]
                ], 
                [
                    204000, 
                    [
                        {
                            "pitch": 79, 
                            "t0": 204000, 
                            "v": 127, 
                            "dur": 480, 
                            "type": "note", 
                            "channel": 4
                        }
                    ]
                ], 
                [
                    204480, 
                    [
                        {
                            "pitch": 67, 
                            "t0": 204480, 
                            "v": 127, 
                            "dur": 120, 
                            "type": "note", 
                            "channel": 4
                        }
                    ]
                ], 
                [
                    204600, 
                    [
                        {
                            "pitch": 71, 
                            "t0": 204600, 
                            "v": 127, 
                            "dur": 180, 
                            "type": "note", 
                            "channel": 4
                        }
                    ]
                ], 
                [
                    204780, 
                    [
                        {
                            "pitch": 74, 
                            "t0": 204780, 
                            "v": 127, 
                            "dur": 180, 
                            "type": "note", 
                            "channel": 4
                        }
                    ]
                ], 
                [
                    204960, 
                    [
                        {
                            "pitch": 79, 
                            "t0": 204960, 
                            "v": 127, 
                            "dur": 480, 
                            "type": "note", 
                            "channel": 4
                        }
                    ]
                ], 
                [
                    205440, 
                    [
                        {
                            "pitch": 69, 
                            "t0": 205440, 
                            "v": 127, 
                            "dur": 120, 
                            "type": "note", 
                            "channel": 4
                        }
                    ]
                ], 
                [
                    205560, 
                    [
                        {
                            "pitch": 72, 
                            "t0": 205560, 
                            "v": 127, 
                            "dur": 180, 
                            "type": "note", 
                            "channel": 4
                        }
                    ]
                ], 
                [
                    205740, 
                    [
                        {
                            "pitch": 76, 
                            "t0": 205740, 
                            "v": 127, 
                            "dur": 180, 
                            "type": "note", 
                            "channel": 4
                        }
                    ]
                ], 
                [
                    205920, 
                    [
                        {
                            "pitch": 81, 
                            "t0": 205920, 
                            "v": 127, 
                            "dur": 480, 
                            "type": "note", 
                            "channel": 4
                        }
                    ]
                ], 
                [
                    206400, 
                    [
                        {
                            "pitch": 69, 
                            "t0": 206400, 
                            "v": 127, 
                            "dur": 120, 
                            "type": "note", 
                            "channel": 4
                        }
                    ]
                ], 
                [
                    206520, 
                    [
                        {
                            "pitch": 72, 
                            "t0": 206520, 
                            "v": 127, 
                            "dur": 180, 
                            "type": "note", 
                            "channel": 4
                        }
                    ]
                ], 
                [
                    206700, 
                    [
                        {
                            "pitch": 76, 
                            "t0": 206700, 
                            "v": 127, 
                            "dur": 180, 
                            "type": "note", 
                            "channel": 4
                        }
                    ]
                ], 
                [
                    206880, 
                    [
                        {
                            "pitch": 81, 
                            "t0": 206880, 
                            "v": 127, 
                            "dur": 480, 
                            "type": "note", 
                            "channel": 4
                        }
                    ]
                ], 
                [
                    207360, 
                    [
                        {
                            "pitch": 64, 
                            "t0": 207360, 
                            "v": 127, 
                            "dur": 120, 
                            "type": "note", 
                            "channel": 4
                        }
                    ]
                ], 
                [
                    207480, 
                    [
                        {
                            "pitch": 67, 
                            "t0": 207480, 
                            "v": 127, 
                            "dur": 180, 
                            "type": "note", 
                            "channel": 4
                        }
                    ]
                ], 
                [
                    207660, 
                    [
                        {
                            "pitch": 71, 
                            "t0": 207660, 
                            "v": 127, 
                            "dur": 180, 
                            "type": "note", 
                            "channel": 4
                        }
                    ]
                ], 
                [
                    207840, 
                    [
                        {
                            "pitch": 76, 
                            "t0": 207840, 
                            "v": 127, 
                            "dur": 480, 
                            "type": "note", 
                            "channel": 4
                        }
                    ]
                ], 
                [
                    208320, 
                    [
                        {
                            "pitch": 64, 
                            "t0": 208320, 
                            "v": 127, 
                            "dur": 120, 
                            "type": "note", 
                            "channel": 4
                        }
                    ]
                ], 
                [
                    208440, 
                    [
                        {
                            "pitch": 67, 
                            "t0": 208440, 
                            "v": 127, 
                            "dur": 180, 
                            "type": "note", 
                            "channel": 4
                        }
                    ]
                ], 
                [
                    208620, 
                    [
                        {
                            "pitch": 71, 
                            "t0": 208620, 
                            "v": 127, 
                            "dur": 180, 
                            "type": "note", 
                            "channel": 4
                        }
                    ]
                ], 
                [
                    208800, 
                    [
                        {
                            "pitch": 76, 
                            "t0": 208800, 
                            "v": 127, 
                            "dur": 480, 
                            "type": "note", 
                            "channel": 4
                        }
                    ]
                ], 
                [
                    209280, 
                    [
                        {
                            "pitch": 65, 
                            "t0": 209280, 
                            "v": 127, 
                            "dur": 120, 
                            "type": "note", 
                            "channel": 4
                        }
                    ]
                ], 
                [
                    209400, 
                    [
                        {
                            "pitch": 69, 
                            "t0": 209400, 
                            "v": 127, 
                            "dur": 180, 
                            "type": "note", 
                            "channel": 4
                        }
                    ]
                ], 
                [
                    209580, 
                    [
                        {
                            "pitch": 72, 
                            "t0": 209580, 
                            "v": 127, 
                            "dur": 180, 
                            "type": "note", 
                            "channel": 4
                        }
                    ]
                ], 
                [
                    209760, 
                    [
                        {
                            "pitch": 77, 
                            "t0": 209760, 
                            "v": 127, 
                            "dur": 420, 
                            "type": "note", 
                            "channel": 4
                        }
                    ]
                ], 
                [
                    210240, 
                    [
                        {
                            "pitch": 67, 
                            "t0": 210240, 
                            "v": 127, 
                            "dur": 180, 
                            "type": "note", 
                            "channel": 4
                        }
                    ]
                ], 
                [
                    210420, 
                    [
                        {
                            "pitch": 71, 
                            "t0": 210420, 
                            "v": 127, 
                            "dur": 120, 
                            "type": "note", 
                            "channel": 4
                        }
                    ]
                ], 
                [
                    210540, 
                    [
                        {
                            "pitch": 74, 
                            "t0": 210540, 
                            "v": 127, 
                            "dur": 180, 
                            "type": "note", 
                            "channel": 4
                        }
                    ]
                ], 
                [
                    210720, 
                    [
                        {
                            "pitch": 79, 
                            "t0": 210720, 
                            "v": 127, 
                            "dur": 480, 
                            "type": "note", 
                            "channel": 4
                        }
                    ]
                ], 
                [
                    211200, 
                    [
                        {
                            "pitch": 69, 
                            "t0": 211200, 
                            "v": 127, 
                            "dur": 120, 
                            "type": "note", 
                            "channel": 4
                        }
                    ]
                ], 
                [
                    211320, 
                    [
                        {
                            "pitch": 72, 
                            "t0": 211320, 
                            "v": 127, 
                            "dur": 180, 
                            "type": "note", 
                            "channel": 4
                        }
                    ]
                ], 
                [
                    211500, 
                    [
                        {
                            "pitch": 76, 
                            "t0": 211500, 
                            "v": 127, 
                            "dur": 180, 
                            "type": "note", 
                            "channel": 4
                        }
                    ]
                ], 
                [
                    211680, 
                    [
                        {
                            "pitch": 81, 
                            "t0": 211680, 
                            "v": 127, 
                            "dur": 480, 
                            "type": "note", 
                            "channel": 4
                        }
                    ]
                ], 
                [
                    213120, 
                    [
                        {
                            "pitch": 72, 
                            "t0": 213120, 
                            "v": 127, 
                            "dur": 120, 
                            "type": "note", 
                            "channel": 4
                        }
                    ]
                ], 
                [
                    213240, 
                    [
                        {
                            "pitch": 76, 
                            "t0": 213240, 
                            "v": 127, 
                            "dur": 180, 
                            "type": "note", 
                            "channel": 4
                        }
                    ]
                ], 
                [
                    213420, 
                    [
                        {
                            "pitch": 79, 
                            "t0": 213420, 
                            "v": 127, 
                            "dur": 180, 
                            "type": "note", 
                            "channel": 4
                        }
                    ]
                ], 
                [
                    213600, 
                    [
                        {
                            "pitch": 84, 
                            "t0": 213600, 
                            "v": 127, 
                            "dur": 480, 
                            "type": "note", 
                            "channel": 4
                        }
                    ]
                ], 
                [
                    214080, 
                    [
                        {
                            "pitch": 67, 
                            "t0": 214080, 
                            "v": 127, 
                            "dur": 120, 
                            "type": "note", 
                            "channel": 4
                        }
                    ]
                ], 
                [
                    214200, 
                    [
                        {
                            "pitch": 71, 
                            "t0": 214200, 
                            "v": 127, 
                            "dur": 180, 
                            "type": "note", 
                            "channel": 4
                        }
                    ]
                ], 
                [
                    214380, 
                    [
                        {
                            "pitch": 74, 
                            "t0": 214380, 
                            "v": 127, 
                            "dur": 180, 
                            "type": "note", 
                            "channel": 4
                        }
                    ]
                ], 
                [
                    214560, 
                    [
                        {
                            "pitch": 79, 
                            "t0": 214560, 
                            "v": 127, 
                            "dur": 480, 
                            "type": "note", 
                            "channel": 4
                        }
                    ]
                ], 
                [
                    215040, 
                    [
                        {
                            "pitch": 69, 
                            "t0": 215040, 
                            "v": 127, 
                            "dur": 120, 
                            "type": "note", 
                            "channel": 4
                        }
                    ]
                ], 
                [
                    215160, 
                    [
                        {
                            "pitch": 72, 
                            "t0": 215160, 
                            "v": 127, 
                            "dur": 180, 
                            "type": "note", 
                            "channel": 4
                        }
                    ]
                ], 
                [
                    215340, 
                    [
                        {
                            "pitch": 76, 
                            "t0": 215340, 
                            "v": 127, 
                            "dur": 180, 
                            "type": "note", 
                            "channel": 4
                        }
                    ]
                ], 
                [
                    215520, 
                    [
                        {
                            "pitch": 81, 
                            "t0": 215520, 
                            "v": 127, 
                            "dur": 480, 
                            "type": "note", 
                            "channel": 4
                        }
                    ]
                ], 
                [
                    216000, 
                    [
                        {
                            "pitch": 64, 
                            "t0": 216000, 
                            "v": 127, 
                            "dur": 120, 
                            "type": "note", 
                            "channel": 4
                        }
                    ]
                ], 
                [
                    216120, 
                    [
                        {
                            "pitch": 67, 
                            "t0": 216120, 
                            "v": 127, 
                            "dur": 180, 
                            "type": "note", 
                            "channel": 4
                        }
                    ]
                ], 
                [
                    216300, 
                    [
                        {
                            "pitch": 71, 
                            "t0": 216300, 
                            "v": 127, 
                            "dur": 180, 
                            "type": "note", 
                            "channel": 4
                        }
                    ]
                ], 
                [
                    216480, 
                    [
                        {
                            "pitch": 76, 
                            "t0": 216480, 
                            "v": 127, 
                            "dur": 480, 
                            "type": "note", 
                            "channel": 4
                        }
                    ]
                ], 
                [
                    216960, 
                    [
                        {
                            "pitch": 65, 
                            "t0": 216960, 
                            "v": 127, 
                            "dur": 120, 
                            "type": "note", 
                            "channel": 4
                        }
                    ]
                ], 
                [
                    217080, 
                    [
                        {
                            "pitch": 69, 
                            "t0": 217080, 
                            "v": 127, 
                            "dur": 180, 
                            "type": "note", 
                            "channel": 4
                        }
                    ]
                ], 
                [
                    217260, 
                    [
                        {
                            "pitch": 72, 
                            "t0": 217260, 
                            "v": 127, 
                            "dur": 190, 
                            "type": "note", 
                            "channel": 4
                        }
                    ]
                ], 
                [
                    217440, 
                    [
                        {
                            "pitch": 77, 
                            "t0": 217440, 
                            "v": 127, 
                            "dur": 480, 
                            "type": "note", 
                            "channel": 4
                        }
                    ]
                ], 
                [
                    217920, 
                    [
                        {
                            "pitch": 67, 
                            "t0": 217920, 
                            "v": 127, 
                            "dur": 120, 
                            "type": "note", 
                            "channel": 4
                        }
                    ]
                ], 
                [
                    218040, 
                    [
                        {
                            "pitch": 71, 
                            "t0": 218040, 
                            "v": 127, 
                            "dur": 180, 
                            "type": "note", 
                            "channel": 4
                        }
                    ]
                ], 
                [
                    218220, 
                    [
                        {
                            "pitch": 74, 
                            "t0": 218220, 
                            "v": 127, 
                            "dur": 180, 
                            "type": "note", 
                            "channel": 4
                        }
                    ]
                ], 
                [
                    218400, 
                    [
                        {
                            "pitch": 79, 
                            "t0": 218400, 
                            "v": 127, 
                            "dur": 480, 
                            "type": "note", 
                            "channel": 4
                        }
                    ]
                ], 
                [
                    218880, 
                    [
                        {
                            "pitch": 69, 
                            "t0": 218880, 
                            "v": 127, 
                            "dur": 120, 
                            "type": "note", 
                            "channel": 4
                        }
                    ]
                ], 
                [
                    219000, 
                    [
                        {
                            "pitch": 72, 
                            "t0": 219000, 
                            "v": 127, 
                            "dur": 180, 
                            "type": "note", 
                            "channel": 4
                        }
                    ]
                ], 
                [
                    219180, 
                    [
                        {
                            "pitch": 76, 
                            "t0": 219180, 
                            "v": 127, 
                            "dur": 180, 
                            "type": "note", 
                            "channel": 4
                        }
                    ]
                ], 
                [
                    219360, 
                    [
                        {
                            "pitch": 81, 
                            "t0": 219360, 
                            "v": 127, 
                            "dur": 480, 
                            "type": "note", 
                            "channel": 4
                        }
                    ]
                ]
            ], 
            "instruments": [
                73
            ], 
            "tMax": 219840, 
            "channels": [
                4
            ], 
            "instrument": 73, 
            "numNotes": 396, 
            "type": "TrackObj"
        }, 
        {
            "trackName": "Track 6", 
            "seq": [
                [
                    0, 
                    [
                        {
                            "instrument": 52, 
                            "type": "programChange", 
                            "t0": 0, 
                            "channel": 5
                        }
                    ]
                ], 
                [
                    28800, 
                    [
                        {
                            "pitch": 72, 
                            "t0": 28800, 
                            "v": 72, 
                            "dur": 1595, 
                            "type": "note", 
                            "channel": 5
                        }, 
                        {
                            "pitch": 69, 
                            "t0": 28800, 
                            "v": 72, 
                            "dur": 1618, 
                            "type": "note", 
                            "channel": 5
                        }, 
                        {
                            "pitch": 65, 
                            "t0": 28800, 
                            "v": 72, 
                            "dur": 1627, 
                            "type": "note", 
                            "channel": 5
                        }, 
                        {
                            "pitch": 81, 
                            "t0": 28800, 
                            "v": 72, 
                            "dur": 1632, 
                            "type": "note", 
                            "channel": 5
                        }, 
                        {
                            "pitch": 77, 
                            "t0": 28800, 
                            "v": 72, 
                            "dur": 1635, 
                            "type": "note", 
                            "channel": 5
                        }, 
                        {
                            "pitch": 84, 
                            "t0": 28800, 
                            "v": 72, 
                            "dur": 1680, 
                            "type": "note", 
                            "channel": 5
                        }
                    ]
                ], 
                [
                    32640, 
                    [
                        {
                            "pitch": 83, 
                            "t0": 32640, 
                            "v": 85, 
                            "dur": 1653, 
                            "type": "note", 
                            "channel": 5
                        }, 
                        {
                            "pitch": 74, 
                            "t0": 32640, 
                            "v": 85, 
                            "dur": 1666, 
                            "type": "note", 
                            "channel": 5
                        }, 
                        {
                            "pitch": 71, 
                            "t0": 32640, 
                            "v": 85, 
                            "dur": 1745, 
                            "type": "note", 
                            "channel": 5
                        }, 
                        {
                            "pitch": 67, 
                            "t0": 32640, 
                            "v": 85, 
                            "dur": 1753, 
                            "type": "note", 
                            "channel": 5
                        }, 
                        {
                            "pitch": 79, 
                            "t0": 32640, 
                            "v": 85, 
                            "dur": 1756, 
                            "type": "note", 
                            "channel": 5
                        }, 
                        {
                            "pitch": 86, 
                            "t0": 32640, 
                            "v": 85, 
                            "dur": 1795, 
                            "type": "note", 
                            "channel": 5
                        }
                    ]
                ], 
                [
                    63360, 
                    [
                        {
                            "pitch": 72, 
                            "t0": 63360, 
                            "v": 72, 
                            "dur": 1595, 
                            "type": "note", 
                            "channel": 5
                        }, 
                        {
                            "pitch": 69, 
                            "t0": 63360, 
                            "v": 72, 
                            "dur": 1618, 
                            "type": "note", 
                            "channel": 5
                        }, 
                        {
                            "pitch": 65, 
                            "t0": 63360, 
                            "v": 72, 
                            "dur": 1627, 
                            "type": "note", 
                            "channel": 5
                        }, 
                        {
                            "pitch": 81, 
                            "t0": 63360, 
                            "v": 72, 
                            "dur": 1632, 
                            "type": "note", 
                            "channel": 5
                        }, 
                        {
                            "pitch": 77, 
                            "t0": 63360, 
                            "v": 72, 
                            "dur": 1635, 
                            "type": "note", 
                            "channel": 5
                        }, 
                        {
                            "pitch": 84, 
                            "t0": 63360, 
                            "v": 72, 
                            "dur": 1680, 
                            "type": "note", 
                            "channel": 5
                        }
                    ]
                ], 
                [
                    67200, 
                    [
                        {
                            "pitch": 83, 
                            "t0": 67200, 
                            "v": 85, 
                            "dur": 1653, 
                            "type": "note", 
                            "channel": 5
                        }, 
                        {
                            "pitch": 74, 
                            "t0": 67200, 
                            "v": 85, 
                            "dur": 1666, 
                            "type": "note", 
                            "channel": 5
                        }, 
                        {
                            "pitch": 71, 
                            "t0": 67200, 
                            "v": 85, 
                            "dur": 1745, 
                            "type": "note", 
                            "channel": 5
                        }, 
                        {
                            "pitch": 67, 
                            "t0": 67200, 
                            "v": 85, 
                            "dur": 1753, 
                            "type": "note", 
                            "channel": 5
                        }, 
                        {
                            "pitch": 79, 
                            "t0": 67200, 
                            "v": 85, 
                            "dur": 1756, 
                            "type": "note", 
                            "channel": 5
                        }, 
                        {
                            "pitch": 86, 
                            "t0": 67200, 
                            "v": 85, 
                            "dur": 1795, 
                            "type": "note", 
                            "channel": 5
                        }
                    ]
                ], 
                [
                    136320, 
                    [
                        {
                            "pitch": 72, 
                            "t0": 136320, 
                            "v": 72, 
                            "dur": 1595, 
                            "type": "note", 
                            "channel": 5
                        }, 
                        {
                            "pitch": 69, 
                            "t0": 136320, 
                            "v": 72, 
                            "dur": 1618, 
                            "type": "note", 
                            "channel": 5
                        }, 
                        {
                            "pitch": 65, 
                            "t0": 136320, 
                            "v": 72, 
                            "dur": 1627, 
                            "type": "note", 
                            "channel": 5
                        }, 
                        {
                            "pitch": 81, 
                            "t0": 136320, 
                            "v": 72, 
                            "dur": 1632, 
                            "type": "note", 
                            "channel": 5
                        }, 
                        {
                            "pitch": 77, 
                            "t0": 136320, 
                            "v": 72, 
                            "dur": 1635, 
                            "type": "note", 
                            "channel": 5
                        }, 
                        {
                            "pitch": 84, 
                            "t0": 136320, 
                            "v": 72, 
                            "dur": 1680, 
                            "type": "note", 
                            "channel": 5
                        }
                    ]
                ], 
                [
                    140160, 
                    [
                        {
                            "pitch": 83, 
                            "t0": 140160, 
                            "v": 85, 
                            "dur": 1653, 
                            "type": "note", 
                            "channel": 5
                        }, 
                        {
                            "pitch": 74, 
                            "t0": 140160, 
                            "v": 85, 
                            "dur": 1666, 
                            "type": "note", 
                            "channel": 5
                        }, 
                        {
                            "pitch": 71, 
                            "t0": 140160, 
                            "v": 85, 
                            "dur": 1745, 
                            "type": "note", 
                            "channel": 5
                        }, 
                        {
                            "pitch": 67, 
                            "t0": 140160, 
                            "v": 85, 
                            "dur": 1753, 
                            "type": "note", 
                            "channel": 5
                        }, 
                        {
                            "pitch": 79, 
                            "t0": 140160, 
                            "v": 85, 
                            "dur": 1756, 
                            "type": "note", 
                            "channel": 5
                        }, 
                        {
                            "pitch": 86, 
                            "t0": 140160, 
                            "v": 85, 
                            "dur": 1795, 
                            "type": "note", 
                            "channel": 5
                        }
                    ]
                ], 
                [
                    170880, 
                    [
                        {
                            "pitch": 72, 
                            "t0": 170880, 
                            "v": 72, 
                            "dur": 1595, 
                            "type": "note", 
                            "channel": 5
                        }, 
                        {
                            "pitch": 69, 
                            "t0": 170880, 
                            "v": 72, 
                            "dur": 1618, 
                            "type": "note", 
                            "channel": 5
                        }, 
                        {
                            "pitch": 65, 
                            "t0": 170880, 
                            "v": 72, 
                            "dur": 1627, 
                            "type": "note", 
                            "channel": 5
                        }, 
                        {
                            "pitch": 81, 
                            "t0": 170880, 
                            "v": 72, 
                            "dur": 1632, 
                            "type": "note", 
                            "channel": 5
                        }, 
                        {
                            "pitch": 77, 
                            "t0": 170880, 
                            "v": 72, 
                            "dur": 1635, 
                            "type": "note", 
                            "channel": 5
                        }, 
                        {
                            "pitch": 84, 
                            "t0": 170880, 
                            "v": 72, 
                            "dur": 1680, 
                            "type": "note", 
                            "channel": 5
                        }
                    ]
                ], 
                [
                    174720, 
                    [
                        {
                            "pitch": 83, 
                            "t0": 174720, 
                            "v": 85, 
                            "dur": 1653, 
                            "type": "note", 
                            "channel": 5
                        }, 
                        {
                            "pitch": 74, 
                            "t0": 174720, 
                            "v": 85, 
                            "dur": 1666, 
                            "type": "note", 
                            "channel": 5
                        }, 
                        {
                            "pitch": 71, 
                            "t0": 174720, 
                            "v": 85, 
                            "dur": 1745, 
                            "type": "note", 
                            "channel": 5
                        }, 
                        {
                            "pitch": 67, 
                            "t0": 174720, 
                            "v": 85, 
                            "dur": 1753, 
                            "type": "note", 
                            "channel": 5
                        }, 
                        {
                            "pitch": 79, 
                            "t0": 174720, 
                            "v": 85, 
                            "dur": 1756, 
                            "type": "note", 
                            "channel": 5
                        }, 
                        {
                            "pitch": 86, 
                            "t0": 174720, 
                            "v": 85, 
                            "dur": 1795, 
                            "type": "note", 
                            "channel": 5
                        }
                    ]
                ]
            ], 
            "instruments": [
                52
            ], 
            "tMax": 176515, 
            "channels": [
                5
            ], 
            "instrument": 52, 
            "numNotes": 48, 
            "type": "TrackObj"
        }, 
        {
            "trackName": "Track 9", 
            "seq": [
                [
                    0, 
                    [
                        {
                            "instrument": 56, 
                            "type": "programChange", 
                            "t0": 0, 
                            "channel": 8
                        }
                    ]
                ], 
                [
                    94080, 
                    [
                        {
                            "pitch": 60, 
                            "t0": 94080, 
                            "v": 127, 
                            "dur": 60, 
                            "type": "note", 
                            "channel": 8
                        }
                    ]
                ], 
                [
                    94200, 
                    [
                        {
                            "pitch": 60, 
                            "t0": 94200, 
                            "v": 127, 
                            "dur": 60, 
                            "type": "note", 
                            "channel": 8
                        }
                    ]
                ], 
                [
                    94380, 
                    [
                        {
                            "pitch": 60, 
                            "t0": 94380, 
                            "v": 126, 
                            "dur": 60, 
                            "type": "note", 
                            "channel": 8
                        }
                    ]
                ], 
                [
                    94560, 
                    [
                        {
                            "pitch": 60, 
                            "t0": 94560, 
                            "v": 114, 
                            "dur": 300, 
                            "type": "note", 
                            "channel": 8
                        }
                    ]
                ], 
                [
                    94860, 
                    [
                        {
                            "pitch": 67, 
                            "t0": 94860, 
                            "v": 95, 
                            "dur": 180, 
                            "type": "note", 
                            "channel": 8
                        }
                    ]
                ], 
                [
                    95040, 
                    [
                        {
                            "pitch": 65, 
                            "t0": 95040, 
                            "v": 93, 
                            "dur": 300, 
                            "type": "note", 
                            "channel": 8
                        }
                    ]
                ], 
                [
                    95340, 
                    [
                        {
                            "pitch": 64, 
                            "t0": 95340, 
                            "v": 93, 
                            "dur": 180, 
                            "type": "note", 
                            "channel": 8
                        }
                    ]
                ], 
                [
                    95520, 
                    [
                        {
                            "pitch": 62, 
                            "t0": 95520, 
                            "v": 92, 
                            "dur": 300, 
                            "type": "note", 
                            "channel": 8
                        }
                    ]
                ], 
                [
                    95820, 
                    [
                        {
                            "pitch": 60, 
                            "t0": 95820, 
                            "v": 92, 
                            "dur": 180, 
                            "type": "note", 
                            "channel": 8
                        }
                    ]
                ], 
                [
                    96000, 
                    [
                        {
                            "pitch": 55, 
                            "t0": 96000, 
                            "v": 127, 
                            "dur": 60, 
                            "type": "note", 
                            "channel": 8
                        }
                    ]
                ], 
                [
                    96120, 
                    [
                        {
                            "pitch": 55, 
                            "t0": 96120, 
                            "v": 127, 
                            "dur": 60, 
                            "type": "note", 
                            "channel": 8
                        }
                    ]
                ], 
                [
                    96300, 
                    [
                        {
                            "pitch": 55, 
                            "t0": 96300, 
                            "v": 127, 
                            "dur": 60, 
                            "type": "note", 
                            "channel": 8
                        }
                    ]
                ], 
                [
                    96480, 
                    [
                        {
                            "pitch": 55, 
                            "t0": 96480, 
                            "v": 117, 
                            "dur": 300, 
                            "type": "note", 
                            "channel": 8
                        }
                    ]
                ], 
                [
                    96780, 
                    [
                        {
                            "pitch": 62, 
                            "t0": 96780, 
                            "v": 97, 
                            "dur": 180, 
                            "type": "note", 
                            "channel": 8
                        }
                    ]
                ], 
                [
                    96960, 
                    [
                        {
                            "pitch": 60, 
                            "t0": 96960, 
                            "v": 97, 
                            "dur": 495, 
                            "type": "note", 
                            "channel": 8
                        }
                    ]
                ], 
                [
                    97440, 
                    [
                        {
                            "pitch": 59, 
                            "t0": 97440, 
                            "v": 97, 
                            "dur": 480, 
                            "type": "note", 
                            "channel": 8
                        }
                    ]
                ], 
                [
                    97920, 
                    [
                        {
                            "pitch": 57, 
                            "t0": 97920, 
                            "v": 127, 
                            "dur": 60, 
                            "type": "note", 
                            "channel": 8
                        }
                    ]
                ], 
                [
                    98040, 
                    [
                        {
                            "pitch": 57, 
                            "t0": 98040, 
                            "v": 127, 
                            "dur": 62, 
                            "type": "note", 
                            "channel": 8
                        }
                    ]
                ], 
                [
                    98220, 
                    [
                        {
                            "pitch": 57, 
                            "t0": 98220, 
                            "v": 122, 
                            "dur": 67, 
                            "type": "note", 
                            "channel": 8
                        }
                    ]
                ], 
                [
                    98400, 
                    [
                        {
                            "pitch": 57, 
                            "t0": 98400, 
                            "v": 122, 
                            "dur": 320, 
                            "type": "note", 
                            "channel": 8
                        }
                    ]
                ], 
                [
                    98700, 
                    [
                        {
                            "pitch": 64, 
                            "t0": 98700, 
                            "v": 94, 
                            "dur": 197, 
                            "type": "note", 
                            "channel": 8
                        }
                    ]
                ], 
                [
                    98880, 
                    [
                        {
                            "pitch": 62, 
                            "t0": 98880, 
                            "v": 97, 
                            "dur": 300, 
                            "type": "note", 
                            "channel": 8
                        }
                    ]
                ], 
                [
                    99180, 
                    [
                        {
                            "pitch": 60, 
                            "t0": 99180, 
                            "v": 79, 
                            "dur": 180, 
                            "type": "note", 
                            "channel": 8
                        }
                    ]
                ], 
                [
                    99360, 
                    [
                        {
                            "pitch": 59, 
                            "t0": 99360, 
                            "v": 86, 
                            "dur": 300, 
                            "type": "note", 
                            "channel": 8
                        }
                    ]
                ], 
                [
                    99660, 
                    [
                        {
                            "pitch": 57, 
                            "t0": 99660, 
                            "v": 83, 
                            "dur": 180, 
                            "type": "note", 
                            "channel": 8
                        }
                    ]
                ], 
                [
                    99840, 
                    [
                        {
                            "pitch": 52, 
                            "t0": 99840, 
                            "v": 127, 
                            "dur": 66, 
                            "type": "note", 
                            "channel": 8
                        }
                    ]
                ], 
                [
                    99960, 
                    [
                        {
                            "pitch": 52, 
                            "t0": 99960, 
                            "v": 127, 
                            "dur": 62, 
                            "type": "note", 
                            "channel": 8
                        }
                    ]
                ], 
                [
                    100140, 
                    [
                        {
                            "pitch": 52, 
                            "t0": 100140, 
                            "v": 127, 
                            "dur": 68, 
                            "type": "note", 
                            "channel": 8
                        }
                    ]
                ], 
                [
                    100320, 
                    [
                        {
                            "pitch": 52, 
                            "t0": 100320, 
                            "v": 117, 
                            "dur": 300, 
                            "type": "note", 
                            "channel": 8
                        }
                    ]
                ], 
                [
                    100620, 
                    [
                        {
                            "pitch": 59, 
                            "t0": 100620, 
                            "v": 101, 
                            "dur": 180, 
                            "type": "note", 
                            "channel": 8
                        }
                    ]
                ], 
                [
                    100800, 
                    [
                        {
                            "pitch": 57, 
                            "t0": 100800, 
                            "v": 100, 
                            "dur": 480, 
                            "type": "note", 
                            "channel": 8
                        }
                    ]
                ], 
                [
                    101280, 
                    [
                        {
                            "pitch": 55, 
                            "t0": 101280, 
                            "v": 100, 
                            "dur": 480, 
                            "type": "note", 
                            "channel": 8
                        }
                    ]
                ], 
                [
                    101760, 
                    [
                        {
                            "pitch": 57, 
                            "t0": 101760, 
                            "v": 127, 
                            "dur": 70, 
                            "type": "note", 
                            "channel": 8
                        }
                    ]
                ], 
                [
                    101880, 
                    [
                        {
                            "pitch": 57, 
                            "t0": 101880, 
                            "v": 127, 
                            "dur": 60, 
                            "type": "note", 
                            "channel": 8
                        }
                    ]
                ], 
                [
                    102060, 
                    [
                        {
                            "pitch": 57, 
                            "t0": 102060, 
                            "v": 127, 
                            "dur": 60, 
                            "type": "note", 
                            "channel": 8
                        }
                    ]
                ], 
                [
                    102240, 
                    [
                        {
                            "pitch": 57, 
                            "t0": 102240, 
                            "v": 112, 
                            "dur": 180, 
                            "type": "note", 
                            "channel": 8
                        }
                    ]
                ], 
                [
                    102420, 
                    [
                        {
                            "pitch": 59, 
                            "t0": 102420, 
                            "v": 101, 
                            "dur": 120, 
                            "type": "note", 
                            "channel": 8
                        }
                    ]
                ], 
                [
                    102540, 
                    [
                        {
                            "pitch": 60, 
                            "t0": 102540, 
                            "v": 100, 
                            "dur": 180, 
                            "type": "note", 
                            "channel": 8
                        }
                    ]
                ], 
                [
                    102720, 
                    [
                        {
                            "pitch": 59, 
                            "t0": 102720, 
                            "v": 125, 
                            "dur": 80, 
                            "type": "note", 
                            "channel": 8
                        }
                    ]
                ], 
                [
                    102840, 
                    [
                        {
                            "pitch": 59, 
                            "t0": 102840, 
                            "v": 126, 
                            "dur": 65, 
                            "type": "note", 
                            "channel": 8
                        }
                    ]
                ], 
                [
                    103020, 
                    [
                        {
                            "pitch": 59, 
                            "t0": 103020, 
                            "v": 124, 
                            "dur": 75, 
                            "type": "note", 
                            "channel": 8
                        }
                    ]
                ], 
                [
                    103200, 
                    [
                        {
                            "pitch": 59, 
                            "t0": 103200, 
                            "v": 101, 
                            "dur": 182, 
                            "type": "note", 
                            "channel": 8
                        }
                    ]
                ], 
                [
                    103380, 
                    [
                        {
                            "pitch": 57, 
                            "t0": 103380, 
                            "v": 101, 
                            "dur": 193, 
                            "type": "note", 
                            "channel": 8
                        }
                    ]
                ], 
                [
                    103500, 
                    [
                        {
                            "pitch": 55, 
                            "t0": 103500, 
                            "v": 101, 
                            "dur": 187, 
                            "type": "note", 
                            "channel": 8
                        }
                    ]
                ], 
                [
                    103680, 
                    [
                        {
                            "pitch": 57, 
                            "t0": 103680, 
                            "v": 127, 
                            "dur": 75, 
                            "type": "note", 
                            "channel": 8
                        }
                    ]
                ], 
                [
                    103800, 
                    [
                        {
                            "pitch": 57, 
                            "t0": 103800, 
                            "v": 127, 
                            "dur": 62, 
                            "type": "note", 
                            "channel": 8
                        }
                    ]
                ], 
                [
                    103980, 
                    [
                        {
                            "pitch": 57, 
                            "t0": 103980, 
                            "v": 124, 
                            "dur": 71, 
                            "type": "note", 
                            "channel": 8
                        }
                    ]
                ], 
                [
                    104160, 
                    [
                        {
                            "pitch": 57, 
                            "t0": 104160, 
                            "v": 108, 
                            "dur": 300, 
                            "type": "note", 
                            "channel": 8
                        }
                    ]
                ], 
                [
                    104460, 
                    [
                        {
                            "pitch": 55, 
                            "t0": 104460, 
                            "v": 100, 
                            "dur": 191, 
                            "type": "note", 
                            "channel": 8
                        }
                    ]
                ], 
                [
                    104640, 
                    [
                        {
                            "pitch": 45, 
                            "t0": 104640, 
                            "v": 127, 
                            "dur": 120, 
                            "type": "note", 
                            "channel": 8
                        }, 
                        {
                            "pitch": 69, 
                            "t0": 104640, 
                            "v": 117, 
                            "dur": 120, 
                            "type": "note", 
                            "channel": 8
                        }, 
                        {
                            "pitch": 57, 
                            "t0": 104640, 
                            "parts": [
                                [
                                    104640, 
                                    122
                                ], 
                                [
                                    104640, 
                                    101
                                ], 
                                [
                                    104760, 
                                    0
                                ]
                            ], 
                            "v": 122, 
                            "dur": 120, 
                            "type": "note", 
                            "channel": 8
                        }
                    ]
                ], 
                [
                    105600, 
                    [
                        {
                            "pitch": 67, 
                            "t0": 105600, 
                            "v": 127, 
                            "dur": 60, 
                            "type": "note", 
                            "channel": 8
                        }
                    ]
                ], 
                [
                    105720, 
                    [
                        {
                            "pitch": 67, 
                            "t0": 105720, 
                            "v": 127, 
                            "dur": 60, 
                            "type": "note", 
                            "channel": 8
                        }
                    ]
                ], 
                [
                    105900, 
                    [
                        {
                            "pitch": 67, 
                            "t0": 105900, 
                            "v": 127, 
                            "dur": 60, 
                            "type": "note", 
                            "channel": 8
                        }
                    ]
                ], 
                [
                    106080, 
                    [
                        {
                            "pitch": 67, 
                            "t0": 106080, 
                            "v": 113, 
                            "dur": 120, 
                            "type": "note", 
                            "channel": 8
                        }
                    ]
                ], 
                [
                    106200, 
                    [
                        {
                            "pitch": 65, 
                            "t0": 106200, 
                            "v": 106, 
                            "dur": 180, 
                            "type": "note", 
                            "channel": 8
                        }
                    ]
                ], 
                [
                    106380, 
                    [
                        {
                            "pitch": 64, 
                            "t0": 106380, 
                            "v": 102, 
                            "dur": 180, 
                            "type": "note", 
                            "channel": 8
                        }
                    ]
                ], 
                [
                    106560, 
                    [
                        {
                            "pitch": 62, 
                            "t0": 106560, 
                            "v": 101, 
                            "dur": 480, 
                            "type": "note", 
                            "channel": 8
                        }
                    ]
                ], 
                [
                    107040, 
                    [
                        {
                            "pitch": 55, 
                            "t0": 107040, 
                            "v": 106, 
                            "dur": 495, 
                            "type": "note", 
                            "channel": 8
                        }
                    ]
                ], 
                [
                    107520, 
                    [
                        {
                            "pitch": 64, 
                            "t0": 107520, 
                            "v": 127, 
                            "dur": 60, 
                            "type": "note", 
                            "channel": 8
                        }
                    ]
                ], 
                [
                    107640, 
                    [
                        {
                            "pitch": 64, 
                            "t0": 107640, 
                            "v": 127, 
                            "dur": 60, 
                            "type": "note", 
                            "channel": 8
                        }
                    ]
                ], 
                [
                    107820, 
                    [
                        {
                            "pitch": 64, 
                            "t0": 107820, 
                            "v": 127, 
                            "dur": 60, 
                            "type": "note", 
                            "channel": 8
                        }
                    ]
                ], 
                [
                    108000, 
                    [
                        {
                            "pitch": 64, 
                            "t0": 108000, 
                            "v": 108, 
                            "dur": 120, 
                            "type": "note", 
                            "channel": 8
                        }
                    ]
                ], 
                [
                    108120, 
                    [
                        {
                            "pitch": 62, 
                            "t0": 108120, 
                            "v": 97, 
                            "dur": 183, 
                            "type": "note", 
                            "channel": 8
                        }
                    ]
                ], 
                [
                    108300, 
                    [
                        {
                            "pitch": 60, 
                            "t0": 108300, 
                            "v": 97, 
                            "dur": 180, 
                            "type": "note", 
                            "channel": 8
                        }
                    ]
                ], 
                [
                    108480, 
                    [
                        {
                            "pitch": 59, 
                            "t0": 108480, 
                            "v": 95, 
                            "dur": 480, 
                            "type": "note", 
                            "channel": 8
                        }
                    ]
                ], 
                [
                    108960, 
                    [
                        {
                            "pitch": 52, 
                            "t0": 108960, 
                            "v": 95, 
                            "dur": 497, 
                            "type": "note", 
                            "channel": 8
                        }
                    ]
                ], 
                [
                    109440, 
                    [
                        {
                            "pitch": 57, 
                            "t0": 109440, 
                            "v": 127, 
                            "dur": 60, 
                            "type": "note", 
                            "channel": 8
                        }
                    ]
                ], 
                [
                    109560, 
                    [
                        {
                            "pitch": 57, 
                            "t0": 109560, 
                            "v": 127, 
                            "dur": 60, 
                            "type": "note", 
                            "channel": 8
                        }
                    ]
                ], 
                [
                    109740, 
                    [
                        {
                            "pitch": 57, 
                            "t0": 109740, 
                            "v": 127, 
                            "dur": 60, 
                            "type": "note", 
                            "channel": 8
                        }
                    ]
                ], 
                [
                    109920, 
                    [
                        {
                            "pitch": 57, 
                            "t0": 109920, 
                            "v": 117, 
                            "dur": 175, 
                            "type": "note", 
                            "channel": 8
                        }
                    ]
                ], 
                [
                    110040, 
                    [
                        {
                            "pitch": 59, 
                            "t0": 110040, 
                            "v": 95, 
                            "dur": 208, 
                            "type": "note", 
                            "channel": 8
                        }
                    ]
                ], 
                [
                    110220, 
                    [
                        {
                            "pitch": 60, 
                            "t0": 110220, 
                            "v": 96, 
                            "dur": 180, 
                            "type": "note", 
                            "channel": 8
                        }
                    ]
                ], 
                [
                    110400, 
                    [
                        {
                            "pitch": 59, 
                            "t0": 110400, 
                            "v": 127, 
                            "dur": 60, 
                            "type": "note", 
                            "channel": 8
                        }
                    ]
                ], 
                [
                    110520, 
                    [
                        {
                            "pitch": 59, 
                            "t0": 110520, 
                            "v": 127, 
                            "dur": 60, 
                            "type": "note", 
                            "channel": 8
                        }
                    ]
                ], 
                [
                    110700, 
                    [
                        {
                            "pitch": 59, 
                            "t0": 110700, 
                            "v": 127, 
                            "dur": 60, 
                            "type": "note", 
                            "channel": 8
                        }
                    ]
                ], 
                [
                    110880, 
                    [
                        {
                            "pitch": 59, 
                            "t0": 110880, 
                            "v": 104, 
                            "dur": 120, 
                            "type": "note", 
                            "channel": 8
                        }
                    ]
                ], 
                [
                    111000, 
                    [
                        {
                            "pitch": 57, 
                            "t0": 111000, 
                            "v": 100, 
                            "dur": 207, 
                            "type": "note", 
                            "channel": 8
                        }
                    ]
                ], 
                [
                    111180, 
                    [
                        {
                            "pitch": 55, 
                            "t0": 111180, 
                            "v": 100, 
                            "dur": 180, 
                            "type": "note", 
                            "channel": 8
                        }
                    ]
                ], 
                [
                    111360, 
                    [
                        {
                            "pitch": 57, 
                            "t0": 111360, 
                            "v": 127, 
                            "dur": 60, 
                            "type": "note", 
                            "channel": 8
                        }
                    ]
                ], 
                [
                    111480, 
                    [
                        {
                            "pitch": 57, 
                            "t0": 111480, 
                            "v": 127, 
                            "dur": 60, 
                            "type": "note", 
                            "channel": 8
                        }
                    ]
                ], 
                [
                    111660, 
                    [
                        {
                            "pitch": 57, 
                            "t0": 111660, 
                            "v": 127, 
                            "dur": 60, 
                            "type": "note", 
                            "channel": 8
                        }
                    ]
                ], 
                [
                    111840, 
                    [
                        {
                            "pitch": 57, 
                            "t0": 111840, 
                            "v": 107, 
                            "dur": 300, 
                            "type": "note", 
                            "channel": 8
                        }
                    ]
                ], 
                [
                    112140, 
                    [
                        {
                            "pitch": 55, 
                            "t0": 112140, 
                            "v": 97, 
                            "dur": 180, 
                            "type": "note", 
                            "channel": 8
                        }
                    ]
                ], 
                [
                    112320, 
                    [
                        {
                            "pitch": 57, 
                            "t0": 112320, 
                            "parts": [
                                [
                                    112320, 
                                    127
                                ], 
                                [
                                    112320, 
                                    101
                                ], 
                                [
                                    112440, 
                                    0
                                ]
                            ], 
                            "v": 127, 
                            "dur": 120, 
                            "type": "note", 
                            "channel": 8
                        }, 
                        {
                            "pitch": 45, 
                            "t0": 112320, 
                            "v": 127, 
                            "dur": 120, 
                            "type": "note", 
                            "channel": 8
                        }, 
                        {
                            "pitch": 69, 
                            "t0": 112320, 
                            "v": 127, 
                            "dur": 120, 
                            "type": "note", 
                            "channel": 8
                        }
                    ]
                ], 
                [
                    201600, 
                    [
                        {
                            "pitch": 60, 
                            "t0": 201600, 
                            "v": 127, 
                            "dur": 60, 
                            "type": "note", 
                            "channel": 8
                        }
                    ]
                ], 
                [
                    201720, 
                    [
                        {
                            "pitch": 60, 
                            "t0": 201720, 
                            "v": 127, 
                            "dur": 60, 
                            "type": "note", 
                            "channel": 8
                        }
                    ]
                ], 
                [
                    201900, 
                    [
                        {
                            "pitch": 60, 
                            "t0": 201900, 
                            "v": 126, 
                            "dur": 60, 
                            "type": "note", 
                            "channel": 8
                        }
                    ]
                ], 
                [
                    202080, 
                    [
                        {
                            "pitch": 60, 
                            "t0": 202080, 
                            "v": 114, 
                            "dur": 300, 
                            "type": "note", 
                            "channel": 8
                        }
                    ]
                ], 
                [
                    202380, 
                    [
                        {
                            "pitch": 67, 
                            "t0": 202380, 
                            "v": 95, 
                            "dur": 180, 
                            "type": "note", 
                            "channel": 8
                        }
                    ]
                ], 
                [
                    202560, 
                    [
                        {
                            "pitch": 65, 
                            "t0": 202560, 
                            "v": 93, 
                            "dur": 300, 
                            "type": "note", 
                            "channel": 8
                        }
                    ]
                ], 
                [
                    202860, 
                    [
                        {
                            "pitch": 64, 
                            "t0": 202860, 
                            "v": 93, 
                            "dur": 180, 
                            "type": "note", 
                            "channel": 8
                        }
                    ]
                ], 
                [
                    203040, 
                    [
                        {
                            "pitch": 62, 
                            "t0": 203040, 
                            "v": 92, 
                            "dur": 300, 
                            "type": "note", 
                            "channel": 8
                        }
                    ]
                ], 
                [
                    203340, 
                    [
                        {
                            "pitch": 60, 
                            "t0": 203340, 
                            "v": 92, 
                            "dur": 180, 
                            "type": "note", 
                            "channel": 8
                        }
                    ]
                ], 
                [
                    203520, 
                    [
                        {
                            "pitch": 55, 
                            "t0": 203520, 
                            "v": 127, 
                            "dur": 60, 
                            "type": "note", 
                            "channel": 8
                        }
                    ]
                ], 
                [
                    203640, 
                    [
                        {
                            "pitch": 55, 
                            "t0": 203640, 
                            "v": 127, 
                            "dur": 60, 
                            "type": "note", 
                            "channel": 8
                        }
                    ]
                ], 
                [
                    203820, 
                    [
                        {
                            "pitch": 55, 
                            "t0": 203820, 
                            "v": 127, 
                            "dur": 60, 
                            "type": "note", 
                            "channel": 8
                        }
                    ]
                ], 
                [
                    204000, 
                    [
                        {
                            "pitch": 55, 
                            "t0": 204000, 
                            "v": 117, 
                            "dur": 300, 
                            "type": "note", 
                            "channel": 8
                        }
                    ]
                ], 
                [
                    204300, 
                    [
                        {
                            "pitch": 62, 
                            "t0": 204300, 
                            "v": 97, 
                            "dur": 180, 
                            "type": "note", 
                            "channel": 8
                        }
                    ]
                ], 
                [
                    204480, 
                    [
                        {
                            "pitch": 60, 
                            "t0": 204480, 
                            "v": 97, 
                            "dur": 495, 
                            "type": "note", 
                            "channel": 8
                        }
                    ]
                ], 
                [
                    204960, 
                    [
                        {
                            "pitch": 59, 
                            "t0": 204960, 
                            "v": 97, 
                            "dur": 480, 
                            "type": "note", 
                            "channel": 8
                        }
                    ]
                ], 
                [
                    205440, 
                    [
                        {
                            "pitch": 57, 
                            "t0": 205440, 
                            "v": 127, 
                            "dur": 60, 
                            "type": "note", 
                            "channel": 8
                        }
                    ]
                ], 
                [
                    205560, 
                    [
                        {
                            "pitch": 57, 
                            "t0": 205560, 
                            "v": 127, 
                            "dur": 62, 
                            "type": "note", 
                            "channel": 8
                        }
                    ]
                ], 
                [
                    205740, 
                    [
                        {
                            "pitch": 57, 
                            "t0": 205740, 
                            "v": 122, 
                            "dur": 67, 
                            "type": "note", 
                            "channel": 8
                        }
                    ]
                ], 
                [
                    205920, 
                    [
                        {
                            "pitch": 57, 
                            "t0": 205920, 
                            "v": 122, 
                            "dur": 320, 
                            "type": "note", 
                            "channel": 8
                        }
                    ]
                ], 
                [
                    206220, 
                    [
                        {
                            "pitch": 64, 
                            "t0": 206220, 
                            "v": 94, 
                            "dur": 197, 
                            "type": "note", 
                            "channel": 8
                        }
                    ]
                ], 
                [
                    206400, 
                    [
                        {
                            "pitch": 62, 
                            "t0": 206400, 
                            "v": 97, 
                            "dur": 300, 
                            "type": "note", 
                            "channel": 8
                        }
                    ]
                ], 
                [
                    206700, 
                    [
                        {
                            "pitch": 60, 
                            "t0": 206700, 
                            "v": 79, 
                            "dur": 180, 
                            "type": "note", 
                            "channel": 8
                        }
                    ]
                ], 
                [
                    206880, 
                    [
                        {
                            "pitch": 59, 
                            "t0": 206880, 
                            "v": 86, 
                            "dur": 300, 
                            "type": "note", 
                            "channel": 8
                        }
                    ]
                ], 
                [
                    207180, 
                    [
                        {
                            "pitch": 57, 
                            "t0": 207180, 
                            "v": 83, 
                            "dur": 180, 
                            "type": "note", 
                            "channel": 8
                        }
                    ]
                ], 
                [
                    207360, 
                    [
                        {
                            "pitch": 52, 
                            "t0": 207360, 
                            "v": 127, 
                            "dur": 66, 
                            "type": "note", 
                            "channel": 8
                        }
                    ]
                ], 
                [
                    207480, 
                    [
                        {
                            "pitch": 52, 
                            "t0": 207480, 
                            "v": 127, 
                            "dur": 62, 
                            "type": "note", 
                            "channel": 8
                        }
                    ]
                ], 
                [
                    207660, 
                    [
                        {
                            "pitch": 52, 
                            "t0": 207660, 
                            "v": 127, 
                            "dur": 68, 
                            "type": "note", 
                            "channel": 8
                        }
                    ]
                ], 
                [
                    207840, 
                    [
                        {
                            "pitch": 52, 
                            "t0": 207840, 
                            "v": 117, 
                            "dur": 300, 
                            "type": "note", 
                            "channel": 8
                        }
                    ]
                ], 
                [
                    208140, 
                    [
                        {
                            "pitch": 59, 
                            "t0": 208140, 
                            "v": 101, 
                            "dur": 180, 
                            "type": "note", 
                            "channel": 8
                        }
                    ]
                ], 
                [
                    208320, 
                    [
                        {
                            "pitch": 57, 
                            "t0": 208320, 
                            "v": 100, 
                            "dur": 480, 
                            "type": "note", 
                            "channel": 8
                        }
                    ]
                ], 
                [
                    208800, 
                    [
                        {
                            "pitch": 55, 
                            "t0": 208800, 
                            "v": 100, 
                            "dur": 480, 
                            "type": "note", 
                            "channel": 8
                        }
                    ]
                ], 
                [
                    209280, 
                    [
                        {
                            "pitch": 57, 
                            "t0": 209280, 
                            "v": 127, 
                            "dur": 70, 
                            "type": "note", 
                            "channel": 8
                        }
                    ]
                ], 
                [
                    209400, 
                    [
                        {
                            "pitch": 57, 
                            "t0": 209400, 
                            "v": 127, 
                            "dur": 60, 
                            "type": "note", 
                            "channel": 8
                        }
                    ]
                ], 
                [
                    209580, 
                    [
                        {
                            "pitch": 57, 
                            "t0": 209580, 
                            "v": 127, 
                            "dur": 60, 
                            "type": "note", 
                            "channel": 8
                        }
                    ]
                ], 
                [
                    209760, 
                    [
                        {
                            "pitch": 57, 
                            "t0": 209760, 
                            "v": 112, 
                            "dur": 180, 
                            "type": "note", 
                            "channel": 8
                        }
                    ]
                ], 
                [
                    209940, 
                    [
                        {
                            "pitch": 59, 
                            "t0": 209940, 
                            "v": 101, 
                            "dur": 120, 
                            "type": "note", 
                            "channel": 8
                        }
                    ]
                ], 
                [
                    210060, 
                    [
                        {
                            "pitch": 60, 
                            "t0": 210060, 
                            "v": 100, 
                            "dur": 180, 
                            "type": "note", 
                            "channel": 8
                        }
                    ]
                ], 
                [
                    210240, 
                    [
                        {
                            "pitch": 59, 
                            "t0": 210240, 
                            "v": 125, 
                            "dur": 80, 
                            "type": "note", 
                            "channel": 8
                        }
                    ]
                ], 
                [
                    210360, 
                    [
                        {
                            "pitch": 59, 
                            "t0": 210360, 
                            "v": 126, 
                            "dur": 65, 
                            "type": "note", 
                            "channel": 8
                        }
                    ]
                ], 
                [
                    210540, 
                    [
                        {
                            "pitch": 59, 
                            "t0": 210540, 
                            "v": 124, 
                            "dur": 75, 
                            "type": "note", 
                            "channel": 8
                        }
                    ]
                ], 
                [
                    210720, 
                    [
                        {
                            "pitch": 59, 
                            "t0": 210720, 
                            "v": 101, 
                            "dur": 182, 
                            "type": "note", 
                            "channel": 8
                        }
                    ]
                ], 
                [
                    210900, 
                    [
                        {
                            "pitch": 57, 
                            "t0": 210900, 
                            "v": 101, 
                            "dur": 193, 
                            "type": "note", 
                            "channel": 8
                        }
                    ]
                ], 
                [
                    211020, 
                    [
                        {
                            "pitch": 55, 
                            "t0": 211020, 
                            "v": 101, 
                            "dur": 187, 
                            "type": "note", 
                            "channel": 8
                        }
                    ]
                ], 
                [
                    211200, 
                    [
                        {
                            "pitch": 57, 
                            "t0": 211200, 
                            "v": 127, 
                            "dur": 75, 
                            "type": "note", 
                            "channel": 8
                        }
                    ]
                ], 
                [
                    211320, 
                    [
                        {
                            "pitch": 57, 
                            "t0": 211320, 
                            "v": 127, 
                            "dur": 62, 
                            "type": "note", 
                            "channel": 8
                        }
                    ]
                ], 
                [
                    211500, 
                    [
                        {
                            "pitch": 57, 
                            "t0": 211500, 
                            "v": 124, 
                            "dur": 71, 
                            "type": "note", 
                            "channel": 8
                        }
                    ]
                ], 
                [
                    211680, 
                    [
                        {
                            "pitch": 57, 
                            "t0": 211680, 
                            "v": 108, 
                            "dur": 300, 
                            "type": "note", 
                            "channel": 8
                        }
                    ]
                ], 
                [
                    211980, 
                    [
                        {
                            "pitch": 55, 
                            "t0": 211980, 
                            "v": 100, 
                            "dur": 191, 
                            "type": "note", 
                            "channel": 8
                        }
                    ]
                ], 
                [
                    212160, 
                    [
                        {
                            "pitch": 45, 
                            "t0": 212160, 
                            "v": 127, 
                            "dur": 120, 
                            "type": "note", 
                            "channel": 8
                        }, 
                        {
                            "pitch": 69, 
                            "t0": 212160, 
                            "v": 117, 
                            "dur": 120, 
                            "type": "note", 
                            "channel": 8
                        }, 
                        {
                            "pitch": 57, 
                            "t0": 212160, 
                            "parts": [
                                [
                                    212160, 
                                    122
                                ], 
                                [
                                    212160, 
                                    101
                                ], 
                                [
                                    212280, 
                                    0
                                ]
                            ], 
                            "v": 122, 
                            "dur": 120, 
                            "type": "note", 
                            "channel": 8
                        }
                    ]
                ], 
                [
                    213120, 
                    [
                        {
                            "pitch": 67, 
                            "t0": 213120, 
                            "v": 127, 
                            "dur": 60, 
                            "type": "note", 
                            "channel": 8
                        }
                    ]
                ], 
                [
                    213240, 
                    [
                        {
                            "pitch": 67, 
                            "t0": 213240, 
                            "v": 127, 
                            "dur": 60, 
                            "type": "note", 
                            "channel": 8
                        }
                    ]
                ], 
                [
                    213420, 
                    [
                        {
                            "pitch": 67, 
                            "t0": 213420, 
                            "v": 127, 
                            "dur": 60, 
                            "type": "note", 
                            "channel": 8
                        }
                    ]
                ], 
                [
                    213600, 
                    [
                        {
                            "pitch": 67, 
                            "t0": 213600, 
                            "v": 113, 
                            "dur": 120, 
                            "type": "note", 
                            "channel": 8
                        }
                    ]
                ], 
                [
                    213720, 
                    [
                        {
                            "pitch": 65, 
                            "t0": 213720, 
                            "v": 106, 
                            "dur": 180, 
                            "type": "note", 
                            "channel": 8
                        }
                    ]
                ], 
                [
                    213900, 
                    [
                        {
                            "pitch": 64, 
                            "t0": 213900, 
                            "v": 102, 
                            "dur": 180, 
                            "type": "note", 
                            "channel": 8
                        }
                    ]
                ], 
                [
                    214080, 
                    [
                        {
                            "pitch": 62, 
                            "t0": 214080, 
                            "v": 101, 
                            "dur": 480, 
                            "type": "note", 
                            "channel": 8
                        }
                    ]
                ], 
                [
                    214560, 
                    [
                        {
                            "pitch": 55, 
                            "t0": 214560, 
                            "v": 106, 
                            "dur": 495, 
                            "type": "note", 
                            "channel": 8
                        }
                    ]
                ], 
                [
                    215040, 
                    [
                        {
                            "pitch": 64, 
                            "t0": 215040, 
                            "v": 127, 
                            "dur": 60, 
                            "type": "note", 
                            "channel": 8
                        }
                    ]
                ], 
                [
                    215160, 
                    [
                        {
                            "pitch": 64, 
                            "t0": 215160, 
                            "v": 127, 
                            "dur": 60, 
                            "type": "note", 
                            "channel": 8
                        }
                    ]
                ], 
                [
                    215340, 
                    [
                        {
                            "pitch": 64, 
                            "t0": 215340, 
                            "v": 127, 
                            "dur": 60, 
                            "type": "note", 
                            "channel": 8
                        }
                    ]
                ], 
                [
                    215520, 
                    [
                        {
                            "pitch": 64, 
                            "t0": 215520, 
                            "v": 108, 
                            "dur": 120, 
                            "type": "note", 
                            "channel": 8
                        }
                    ]
                ], 
                [
                    215640, 
                    [
                        {
                            "pitch": 62, 
                            "t0": 215640, 
                            "v": 97, 
                            "dur": 183, 
                            "type": "note", 
                            "channel": 8
                        }
                    ]
                ], 
                [
                    215820, 
                    [
                        {
                            "pitch": 60, 
                            "t0": 215820, 
                            "v": 97, 
                            "dur": 180, 
                            "type": "note", 
                            "channel": 8
                        }
                    ]
                ], 
                [
                    216000, 
                    [
                        {
                            "pitch": 59, 
                            "t0": 216000, 
                            "v": 95, 
                            "dur": 480, 
                            "type": "note", 
                            "channel": 8
                        }
                    ]
                ], 
                [
                    216480, 
                    [
                        {
                            "pitch": 52, 
                            "t0": 216480, 
                            "v": 95, 
                            "dur": 497, 
                            "type": "note", 
                            "channel": 8
                        }
                    ]
                ], 
                [
                    216960, 
                    [
                        {
                            "pitch": 57, 
                            "t0": 216960, 
                            "v": 127, 
                            "dur": 60, 
                            "type": "note", 
                            "channel": 8
                        }
                    ]
                ], 
                [
                    217080, 
                    [
                        {
                            "pitch": 57, 
                            "t0": 217080, 
                            "v": 127, 
                            "dur": 60, 
                            "type": "note", 
                            "channel": 8
                        }
                    ]
                ], 
                [
                    217260, 
                    [
                        {
                            "pitch": 57, 
                            "t0": 217260, 
                            "v": 127, 
                            "dur": 60, 
                            "type": "note", 
                            "channel": 8
                        }
                    ]
                ], 
                [
                    217440, 
                    [
                        {
                            "pitch": 57, 
                            "t0": 217440, 
                            "v": 117, 
                            "dur": 175, 
                            "type": "note", 
                            "channel": 8
                        }
                    ]
                ], 
                [
                    217560, 
                    [
                        {
                            "pitch": 59, 
                            "t0": 217560, 
                            "v": 95, 
                            "dur": 208, 
                            "type": "note", 
                            "channel": 8
                        }
                    ]
                ], 
                [
                    217740, 
                    [
                        {
                            "pitch": 60, 
                            "t0": 217740, 
                            "v": 96, 
                            "dur": 180, 
                            "type": "note", 
                            "channel": 8
                        }
                    ]
                ], 
                [
                    217920, 
                    [
                        {
                            "pitch": 59, 
                            "t0": 217920, 
                            "v": 127, 
                            "dur": 60, 
                            "type": "note", 
                            "channel": 8
                        }
                    ]
                ], 
                [
                    218040, 
                    [
                        {
                            "pitch": 59, 
                            "t0": 218040, 
                            "v": 127, 
                            "dur": 60, 
                            "type": "note", 
                            "channel": 8
                        }
                    ]
                ], 
                [
                    218220, 
                    [
                        {
                            "pitch": 59, 
                            "t0": 218220, 
                            "v": 127, 
                            "dur": 60, 
                            "type": "note", 
                            "channel": 8
                        }
                    ]
                ], 
                [
                    218400, 
                    [
                        {
                            "pitch": 59, 
                            "t0": 218400, 
                            "v": 104, 
                            "dur": 120, 
                            "type": "note", 
                            "channel": 8
                        }
                    ]
                ], 
                [
                    218520, 
                    [
                        {
                            "pitch": 57, 
                            "t0": 218520, 
                            "v": 100, 
                            "dur": 207, 
                            "type": "note", 
                            "channel": 8
                        }
                    ]
                ], 
                [
                    218700, 
                    [
                        {
                            "pitch": 55, 
                            "t0": 218700, 
                            "v": 100, 
                            "dur": 180, 
                            "type": "note", 
                            "channel": 8
                        }
                    ]
                ], 
                [
                    218880, 
                    [
                        {
                            "pitch": 57, 
                            "t0": 218880, 
                            "v": 127, 
                            "dur": 60, 
                            "type": "note", 
                            "channel": 8
                        }
                    ]
                ], 
                [
                    219000, 
                    [
                        {
                            "pitch": 57, 
                            "t0": 219000, 
                            "v": 127, 
                            "dur": 60, 
                            "type": "note", 
                            "channel": 8
                        }
                    ]
                ], 
                [
                    219180, 
                    [
                        {
                            "pitch": 57, 
                            "t0": 219180, 
                            "v": 127, 
                            "dur": 60, 
                            "type": "note", 
                            "channel": 8
                        }
                    ]
                ], 
                [
                    219360, 
                    [
                        {
                            "pitch": 57, 
                            "t0": 219360, 
                            "v": 107, 
                            "dur": 300, 
                            "type": "note", 
                            "channel": 8
                        }
                    ]
                ], 
                [
                    219660, 
                    [
                        {
                            "pitch": 55, 
                            "t0": 219660, 
                            "v": 97, 
                            "dur": 180, 
                            "type": "note", 
                            "channel": 8
                        }
                    ]
                ], 
                [
                    219840, 
                    [
                        {
                            "pitch": 57, 
                            "t0": 219840, 
                            "parts": [
                                [
                                    219840, 
                                    127
                                ], 
                                [
                                    219840, 
                                    101
                                ], 
                                [
                                    219960, 
                                    0
                                ]
                            ], 
                            "v": 127, 
                            "dur": 120, 
                            "type": "note", 
                            "channel": 8
                        }, 
                        {
                            "pitch": 45, 
                            "t0": 219840, 
                            "v": 127, 
                            "dur": 120, 
                            "type": "note", 
                            "channel": 8
                        }, 
                        {
                            "pitch": 69, 
                            "t0": 219840, 
                            "v": 127, 
                            "dur": 120, 
                            "type": "note", 
                            "channel": 8
                        }
                    ]
                ]
            ], 
            "instruments": [
                56
            ], 
            "tMax": 219960, 
            "channels": [
                8
            ], 
            "instrument": 56, 
            "numNotes": 176, 
            "type": "TrackObj"
        }, 
        {
            "trackName": "Track 10", 
            "seq": [
                [
                    0, 
                    [
                        {
                            "instrument": 48, 
                            "type": "programChange", 
                            "t0": 0, 
                            "channel": 9
                        }
                    ]
                ], 
                [
                    73920, 
                    [
                        {
                            "pitch": 35, 
                            "t0": 73920, 
                            "v": 11, 
                            "dur": 120, 
                            "type": "note", 
                            "channel": 9
                        }
                    ]
                ], 
                [
                    73940, 
                    [
                        {
                            "pitch": 36, 
                            "t0": 73940, 
                            "v": 18, 
                            "dur": 120, 
                            "type": "note", 
                            "channel": 9
                        }
                    ]
                ], 
                [
                    94080, 
                    [
                        {
                            "pitch": 57, 
                            "t0": 94080, 
                            "v": 50, 
                            "dur": 120, 
                            "type": "note", 
                            "channel": 9
                        }
                    ]
                ], 
                [
                    94560, 
                    [
                        {
                            "pitch": 55, 
                            "t0": 94560, 
                            "v": 43, 
                            "dur": 52, 
                            "type": "note", 
                            "channel": 9
                        }
                    ]
                ], 
                [
                    95520, 
                    [
                        {
                            "pitch": 55, 
                            "t0": 95520, 
                            "v": 43, 
                            "dur": 57, 
                            "type": "note", 
                            "channel": 9
                        }
                    ]
                ], 
                [
                    96466, 
                    [
                        {
                            "pitch": 55, 
                            "t0": 96466, 
                            "v": 43, 
                            "dur": 69, 
                            "type": "note", 
                            "channel": 9
                        }
                    ]
                ], 
                [
                    97438, 
                    [
                        {
                            "pitch": 55, 
                            "t0": 97438, 
                            "v": 43, 
                            "dur": 68, 
                            "type": "note", 
                            "channel": 9
                        }
                    ]
                ], 
                [
                    98377, 
                    [
                        {
                            "pitch": 55, 
                            "t0": 98377, 
                            "v": 43, 
                            "dur": 61, 
                            "type": "note", 
                            "channel": 9
                        }
                    ]
                ], 
                [
                    99330, 
                    [
                        {
                            "pitch": 55, 
                            "t0": 99330, 
                            "v": 43, 
                            "dur": 66, 
                            "type": "note", 
                            "channel": 9
                        }
                    ]
                ], 
                [
                    100280, 
                    [
                        {
                            "pitch": 55, 
                            "t0": 100280, 
                            "v": 43, 
                            "dur": 73, 
                            "type": "note", 
                            "channel": 9
                        }
                    ]
                ], 
                [
                    101251, 
                    [
                        {
                            "pitch": 55, 
                            "t0": 101251, 
                            "v": 43, 
                            "dur": 70, 
                            "type": "note", 
                            "channel": 9
                        }
                    ]
                ], 
                [
                    101760, 
                    [
                        {
                            "pitch": 41, 
                            "t0": 101760, 
                            "parts": [
                                [
                                    101760, 
                                    11
                                ], 
                                [
                                    101820, 
                                    11
                                ], 
                                [
                                    101880, 
                                    0
                                ]
                            ], 
                            "v": 11, 
                            "dur": 120, 
                            "type": "note", 
                            "channel": 9
                        }
                    ]
                ], 
                [
                    101880, 
                    [
                        {
                            "pitch": 41, 
                            "t0": 101880, 
                            "v": 19, 
                            "dur": 60, 
                            "type": "note", 
                            "channel": 9
                        }
                    ]
                ], 
                [
                    101940, 
                    [
                        {
                            "pitch": 41, 
                            "t0": 101940, 
                            "v": 19, 
                            "dur": 60, 
                            "type": "note", 
                            "channel": 9
                        }
                    ]
                ], 
                [
                    102000, 
                    [
                        {
                            "pitch": 41, 
                            "t0": 102000, 
                            "v": 23, 
                            "dur": 60, 
                            "type": "note", 
                            "channel": 9
                        }
                    ]
                ], 
                [
                    102060, 
                    [
                        {
                            "pitch": 41, 
                            "t0": 102060, 
                            "v": 23, 
                            "dur": 60, 
                            "type": "note", 
                            "channel": 9
                        }
                    ]
                ], 
                [
                    102120, 
                    [
                        {
                            "pitch": 41, 
                            "t0": 102120, 
                            "v": 27, 
                            "dur": 60, 
                            "type": "note", 
                            "channel": 9
                        }
                    ]
                ], 
                [
                    102180, 
                    [
                        {
                            "pitch": 41, 
                            "t0": 102180, 
                            "v": 27, 
                            "dur": 60, 
                            "type": "note", 
                            "channel": 9
                        }
                    ]
                ], 
                [
                    102215, 
                    [
                        {
                            "pitch": 55, 
                            "t0": 102215, 
                            "v": 43, 
                            "dur": 57, 
                            "type": "note", 
                            "channel": 9
                        }
                    ]
                ], 
                [
                    102240, 
                    [
                        {
                            "pitch": 41, 
                            "t0": 102240, 
                            "v": 39, 
                            "dur": 60, 
                            "type": "note", 
                            "channel": 9
                        }
                    ]
                ], 
                [
                    102300, 
                    [
                        {
                            "pitch": 41, 
                            "t0": 102300, 
                            "v": 39, 
                            "dur": 60, 
                            "type": "note", 
                            "channel": 9
                        }
                    ]
                ], 
                [
                    102360, 
                    [
                        {
                            "pitch": 41, 
                            "t0": 102360, 
                            "v": 39, 
                            "dur": 60, 
                            "type": "note", 
                            "channel": 9
                        }
                    ]
                ], 
                [
                    102420, 
                    [
                        {
                            "pitch": 41, 
                            "t0": 102420, 
                            "v": 39, 
                            "dur": 60, 
                            "type": "note", 
                            "channel": 9
                        }
                    ]
                ], 
                [
                    102480, 
                    [
                        {
                            "pitch": 41, 
                            "t0": 102480, 
                            "v": 39, 
                            "dur": 60, 
                            "type": "note", 
                            "channel": 9
                        }
                    ]
                ], 
                [
                    102540, 
                    [
                        {
                            "pitch": 41, 
                            "t0": 102540, 
                            "v": 39, 
                            "dur": 60, 
                            "type": "note", 
                            "channel": 9
                        }
                    ]
                ], 
                [
                    102600, 
                    [
                        {
                            "pitch": 41, 
                            "t0": 102600, 
                            "v": 43, 
                            "dur": 60, 
                            "type": "note", 
                            "channel": 9
                        }
                    ]
                ], 
                [
                    102660, 
                    [
                        {
                            "pitch": 41, 
                            "t0": 102660, 
                            "v": 43, 
                            "dur": 60, 
                            "type": "note", 
                            "channel": 9
                        }
                    ]
                ], 
                [
                    102720, 
                    [
                        {
                            "pitch": 41, 
                            "t0": 102720, 
                            "v": 55, 
                            "dur": 60, 
                            "type": "note", 
                            "channel": 9
                        }
                    ]
                ], 
                [
                    102780, 
                    [
                        {
                            "pitch": 41, 
                            "t0": 102780, 
                            "v": 55, 
                            "dur": 60, 
                            "type": "note", 
                            "channel": 9
                        }
                    ]
                ], 
                [
                    102840, 
                    [
                        {
                            "pitch": 41, 
                            "t0": 102840, 
                            "v": 63, 
                            "dur": 60, 
                            "type": "note", 
                            "channel": 9
                        }
                    ]
                ], 
                [
                    102900, 
                    [
                        {
                            "pitch": 41, 
                            "t0": 102900, 
                            "v": 63, 
                            "dur": 60, 
                            "type": "note", 
                            "channel": 9
                        }
                    ]
                ], 
                [
                    102960, 
                    [
                        {
                            "pitch": 41, 
                            "t0": 102960, 
                            "v": 67, 
                            "dur": 60, 
                            "type": "note", 
                            "channel": 9
                        }
                    ]
                ], 
                [
                    103020, 
                    [
                        {
                            "pitch": 41, 
                            "t0": 103020, 
                            "v": 67, 
                            "dur": 60, 
                            "type": "note", 
                            "channel": 9
                        }
                    ]
                ], 
                [
                    103080, 
                    [
                        {
                            "pitch": 41, 
                            "t0": 103080, 
                            "v": 67, 
                            "dur": 60, 
                            "type": "note", 
                            "channel": 9
                        }
                    ]
                ], 
                [
                    103140, 
                    [
                        {
                            "pitch": 41, 
                            "t0": 103140, 
                            "v": 67, 
                            "dur": 60, 
                            "type": "note", 
                            "channel": 9
                        }
                    ]
                ], 
                [
                    103186, 
                    [
                        {
                            "pitch": 55, 
                            "t0": 103186, 
                            "v": 43, 
                            "dur": 70, 
                            "type": "note", 
                            "channel": 9
                        }
                    ]
                ], 
                [
                    103200, 
                    [
                        {
                            "pitch": 41, 
                            "t0": 103200, 
                            "v": 71, 
                            "dur": 60, 
                            "type": "note", 
                            "channel": 9
                        }
                    ]
                ], 
                [
                    103260, 
                    [
                        {
                            "pitch": 41, 
                            "t0": 103260, 
                            "v": 71, 
                            "dur": 60, 
                            "type": "note", 
                            "channel": 9
                        }
                    ]
                ], 
                [
                    103320, 
                    [
                        {
                            "pitch": 41, 
                            "t0": 103320, 
                            "v": 71, 
                            "dur": 60, 
                            "type": "note", 
                            "channel": 9
                        }
                    ]
                ], 
                [
                    103380, 
                    [
                        {
                            "pitch": 41, 
                            "t0": 103380, 
                            "v": 71, 
                            "dur": 60, 
                            "type": "note", 
                            "channel": 9
                        }
                    ]
                ], 
                [
                    103440, 
                    [
                        {
                            "pitch": 41, 
                            "t0": 103440, 
                            "v": 79, 
                            "dur": 60, 
                            "type": "note", 
                            "channel": 9
                        }
                    ]
                ], 
                [
                    103500, 
                    [
                        {
                            "pitch": 41, 
                            "t0": 103500, 
                            "v": 79, 
                            "dur": 60, 
                            "type": "note", 
                            "channel": 9
                        }
                    ]
                ], 
                [
                    103560, 
                    [
                        {
                            "pitch": 41, 
                            "t0": 103560, 
                            "v": 87, 
                            "dur": 60, 
                            "type": "note", 
                            "channel": 9
                        }
                    ]
                ], 
                [
                    103620, 
                    [
                        {
                            "pitch": 41, 
                            "t0": 103620, 
                            "v": 87, 
                            "dur": 60, 
                            "type": "note", 
                            "channel": 9
                        }
                    ]
                ], 
                [
                    103680, 
                    [
                        {
                            "pitch": 41, 
                            "t0": 103680, 
                            "v": 91, 
                            "dur": 60, 
                            "type": "note", 
                            "channel": 9
                        }
                    ]
                ], 
                [
                    103740, 
                    [
                        {
                            "pitch": 41, 
                            "t0": 103740, 
                            "v": 91, 
                            "dur": 60, 
                            "type": "note", 
                            "channel": 9
                        }
                    ]
                ], 
                [
                    104116, 
                    [
                        {
                            "pitch": 55, 
                            "t0": 104116, 
                            "v": 43, 
                            "dur": 67, 
                            "type": "note", 
                            "channel": 9
                        }
                    ]
                ], 
                [
                    104160, 
                    [
                        {
                            "pitch": 41, 
                            "t0": 104160, 
                            "v": 91, 
                            "dur": 120, 
                            "type": "note", 
                            "channel": 9
                        }
                    ]
                ], 
                [
                    104640, 
                    [
                        {
                            "pitch": 57, 
                            "t0": 104640, 
                            "v": 99, 
                            "dur": 120, 
                            "type": "note", 
                            "channel": 9
                        }
                    ]
                ], 
                [
                    105151, 
                    [
                        {
                            "pitch": 55, 
                            "t0": 105151, 
                            "v": 43, 
                            "dur": 65, 
                            "type": "note", 
                            "channel": 9
                        }
                    ]
                ], 
                [
                    106107, 
                    [
                        {
                            "pitch": 55, 
                            "t0": 106107, 
                            "v": 44, 
                            "dur": 61, 
                            "type": "note", 
                            "channel": 9
                        }
                    ]
                ], 
                [
                    107026, 
                    [
                        {
                            "pitch": 55, 
                            "t0": 107026, 
                            "v": 44, 
                            "dur": 76, 
                            "type": "note", 
                            "channel": 9
                        }
                    ]
                ], 
                [
                    107982, 
                    [
                        {
                            "pitch": 55, 
                            "t0": 107982, 
                            "v": 44, 
                            "dur": 73, 
                            "type": "note", 
                            "channel": 9
                        }
                    ]
                ], 
                [
                    108970, 
                    [
                        {
                            "pitch": 55, 
                            "t0": 108970, 
                            "v": 44, 
                            "dur": 63, 
                            "type": "note", 
                            "channel": 9
                        }
                    ]
                ], 
                [
                    109440, 
                    [
                        {
                            "pitch": 41, 
                            "t0": 109440, 
                            "parts": [
                                [
                                    109440, 
                                    11
                                ], 
                                [
                                    109500, 
                                    11
                                ], 
                                [
                                    109560, 
                                    0
                                ]
                            ], 
                            "v": 11, 
                            "dur": 120, 
                            "type": "note", 
                            "channel": 9
                        }
                    ]
                ], 
                [
                    109560, 
                    [
                        {
                            "pitch": 41, 
                            "t0": 109560, 
                            "v": 19, 
                            "dur": 60, 
                            "type": "note", 
                            "channel": 9
                        }
                    ]
                ], 
                [
                    109620, 
                    [
                        {
                            "pitch": 41, 
                            "t0": 109620, 
                            "v": 19, 
                            "dur": 60, 
                            "type": "note", 
                            "channel": 9
                        }
                    ]
                ], 
                [
                    109680, 
                    [
                        {
                            "pitch": 41, 
                            "t0": 109680, 
                            "v": 23, 
                            "dur": 60, 
                            "type": "note", 
                            "channel": 9
                        }
                    ]
                ], 
                [
                    109740, 
                    [
                        {
                            "pitch": 41, 
                            "t0": 109740, 
                            "v": 23, 
                            "dur": 60, 
                            "type": "note", 
                            "channel": 9
                        }
                    ]
                ], 
                [
                    109800, 
                    [
                        {
                            "pitch": 41, 
                            "t0": 109800, 
                            "v": 27, 
                            "dur": 60, 
                            "type": "note", 
                            "channel": 9
                        }
                    ]
                ], 
                [
                    109860, 
                    [
                        {
                            "pitch": 41, 
                            "t0": 109860, 
                            "v": 27, 
                            "dur": 60, 
                            "type": "note", 
                            "channel": 9
                        }
                    ]
                ], 
                [
                    109911, 
                    [
                        {
                            "pitch": 55, 
                            "t0": 109911, 
                            "v": 44, 
                            "dur": 76, 
                            "type": "note", 
                            "channel": 9
                        }
                    ]
                ], 
                [
                    109920, 
                    [
                        {
                            "pitch": 41, 
                            "t0": 109920, 
                            "v": 39, 
                            "dur": 60, 
                            "type": "note", 
                            "channel": 9
                        }
                    ]
                ], 
                [
                    109980, 
                    [
                        {
                            "pitch": 41, 
                            "t0": 109980, 
                            "v": 39, 
                            "dur": 60, 
                            "type": "note", 
                            "channel": 9
                        }
                    ]
                ], 
                [
                    110040, 
                    [
                        {
                            "pitch": 41, 
                            "t0": 110040, 
                            "v": 39, 
                            "dur": 60, 
                            "type": "note", 
                            "channel": 9
                        }
                    ]
                ], 
                [
                    110100, 
                    [
                        {
                            "pitch": 41, 
                            "t0": 110100, 
                            "v": 39, 
                            "dur": 60, 
                            "type": "note", 
                            "channel": 9
                        }
                    ]
                ], 
                [
                    110160, 
                    [
                        {
                            "pitch": 41, 
                            "t0": 110160, 
                            "v": 39, 
                            "dur": 60, 
                            "type": "note", 
                            "channel": 9
                        }
                    ]
                ], 
                [
                    110220, 
                    [
                        {
                            "pitch": 41, 
                            "t0": 110220, 
                            "v": 39, 
                            "dur": 60, 
                            "type": "note", 
                            "channel": 9
                        }
                    ]
                ], 
                [
                    110280, 
                    [
                        {
                            "pitch": 41, 
                            "t0": 110280, 
                            "v": 43, 
                            "dur": 60, 
                            "type": "note", 
                            "channel": 9
                        }
                    ]
                ], 
                [
                    110340, 
                    [
                        {
                            "pitch": 41, 
                            "t0": 110340, 
                            "v": 43, 
                            "dur": 60, 
                            "type": "note", 
                            "channel": 9
                        }
                    ]
                ], 
                [
                    110400, 
                    [
                        {
                            "pitch": 41, 
                            "t0": 110400, 
                            "v": 55, 
                            "dur": 60, 
                            "type": "note", 
                            "channel": 9
                        }
                    ]
                ], 
                [
                    110460, 
                    [
                        {
                            "pitch": 41, 
                            "t0": 110460, 
                            "v": 55, 
                            "dur": 60, 
                            "type": "note", 
                            "channel": 9
                        }
                    ]
                ], 
                [
                    110520, 
                    [
                        {
                            "pitch": 41, 
                            "t0": 110520, 
                            "v": 63, 
                            "dur": 60, 
                            "type": "note", 
                            "channel": 9
                        }
                    ]
                ], 
                [
                    110580, 
                    [
                        {
                            "pitch": 41, 
                            "t0": 110580, 
                            "v": 63, 
                            "dur": 60, 
                            "type": "note", 
                            "channel": 9
                        }
                    ]
                ], 
                [
                    110640, 
                    [
                        {
                            "pitch": 41, 
                            "t0": 110640, 
                            "v": 67, 
                            "dur": 60, 
                            "type": "note", 
                            "channel": 9
                        }
                    ]
                ], 
                [
                    110700, 
                    [
                        {
                            "pitch": 41, 
                            "t0": 110700, 
                            "v": 67, 
                            "dur": 60, 
                            "type": "note", 
                            "channel": 9
                        }
                    ]
                ], 
                [
                    110760, 
                    [
                        {
                            "pitch": 41, 
                            "t0": 110760, 
                            "v": 67, 
                            "dur": 60, 
                            "type": "note", 
                            "channel": 9
                        }
                    ]
                ], 
                [
                    110820, 
                    [
                        {
                            "pitch": 41, 
                            "t0": 110820, 
                            "v": 67, 
                            "dur": 60, 
                            "type": "note", 
                            "channel": 9
                        }
                    ]
                ], 
                [
                    110865, 
                    [
                        {
                            "pitch": 55, 
                            "t0": 110865, 
                            "v": 44, 
                            "dur": 72, 
                            "type": "note", 
                            "channel": 9
                        }
                    ]
                ], 
                [
                    110880, 
                    [
                        {
                            "pitch": 41, 
                            "t0": 110880, 
                            "v": 71, 
                            "dur": 60, 
                            "type": "note", 
                            "channel": 9
                        }
                    ]
                ], 
                [
                    110940, 
                    [
                        {
                            "pitch": 41, 
                            "t0": 110940, 
                            "v": 71, 
                            "dur": 60, 
                            "type": "note", 
                            "channel": 9
                        }
                    ]
                ], 
                [
                    111000, 
                    [
                        {
                            "pitch": 41, 
                            "t0": 111000, 
                            "v": 71, 
                            "dur": 60, 
                            "type": "note", 
                            "channel": 9
                        }
                    ]
                ], 
                [
                    111060, 
                    [
                        {
                            "pitch": 41, 
                            "t0": 111060, 
                            "v": 71, 
                            "dur": 60, 
                            "type": "note", 
                            "channel": 9
                        }
                    ]
                ], 
                [
                    111120, 
                    [
                        {
                            "pitch": 41, 
                            "t0": 111120, 
                            "v": 79, 
                            "dur": 60, 
                            "type": "note", 
                            "channel": 9
                        }
                    ]
                ], 
                [
                    111180, 
                    [
                        {
                            "pitch": 41, 
                            "t0": 111180, 
                            "v": 79, 
                            "dur": 60, 
                            "type": "note", 
                            "channel": 9
                        }
                    ]
                ], 
                [
                    111240, 
                    [
                        {
                            "pitch": 41, 
                            "t0": 111240, 
                            "v": 87, 
                            "dur": 60, 
                            "type": "note", 
                            "channel": 9
                        }
                    ]
                ], 
                [
                    111300, 
                    [
                        {
                            "pitch": 41, 
                            "t0": 111300, 
                            "v": 87, 
                            "dur": 60, 
                            "type": "note", 
                            "channel": 9
                        }
                    ]
                ], 
                [
                    111360, 
                    [
                        {
                            "pitch": 41, 
                            "t0": 111360, 
                            "v": 91, 
                            "dur": 60, 
                            "type": "note", 
                            "channel": 9
                        }
                    ]
                ], 
                [
                    111420, 
                    [
                        {
                            "pitch": 41, 
                            "t0": 111420, 
                            "v": 91, 
                            "dur": 60, 
                            "type": "note", 
                            "channel": 9
                        }
                    ]
                ], 
                [
                    111800, 
                    [
                        {
                            "pitch": 55, 
                            "t0": 111800, 
                            "v": 44, 
                            "dur": 71, 
                            "type": "note", 
                            "channel": 9
                        }
                    ]
                ], 
                [
                    111840, 
                    [
                        {
                            "pitch": 41, 
                            "t0": 111840, 
                            "v": 91, 
                            "dur": 120, 
                            "type": "note", 
                            "channel": 9
                        }
                    ]
                ], 
                [
                    112320, 
                    [
                        {
                            "pitch": 57, 
                            "t0": 112320, 
                            "v": 99, 
                            "dur": 120, 
                            "type": "note", 
                            "channel": 9
                        }
                    ]
                ], 
                [
                    112805, 
                    [
                        {
                            "pitch": 55, 
                            "t0": 112805, 
                            "v": 44, 
                            "dur": 63, 
                            "type": "note", 
                            "channel": 9
                        }
                    ]
                ], 
                [
                    181440, 
                    [
                        {
                            "pitch": 35, 
                            "t0": 181440, 
                            "v": 11, 
                            "dur": 120, 
                            "type": "note", 
                            "channel": 9
                        }
                    ]
                ], 
                [
                    181460, 
                    [
                        {
                            "pitch": 36, 
                            "t0": 181460, 
                            "v": 18, 
                            "dur": 120, 
                            "type": "note", 
                            "channel": 9
                        }
                    ]
                ], 
                [
                    201600, 
                    [
                        {
                            "pitch": 57, 
                            "t0": 201600, 
                            "v": 50, 
                            "dur": 120, 
                            "type": "note", 
                            "channel": 9
                        }
                    ]
                ], 
                [
                    202080, 
                    [
                        {
                            "pitch": 55, 
                            "t0": 202080, 
                            "v": 43, 
                            "dur": 52, 
                            "type": "note", 
                            "channel": 9
                        }
                    ]
                ], 
                [
                    203040, 
                    [
                        {
                            "pitch": 55, 
                            "t0": 203040, 
                            "v": 43, 
                            "dur": 57, 
                            "type": "note", 
                            "channel": 9
                        }
                    ]
                ], 
                [
                    203986, 
                    [
                        {
                            "pitch": 55, 
                            "t0": 203986, 
                            "v": 43, 
                            "dur": 69, 
                            "type": "note", 
                            "channel": 9
                        }
                    ]
                ], 
                [
                    204958, 
                    [
                        {
                            "pitch": 55, 
                            "t0": 204958, 
                            "v": 43, 
                            "dur": 68, 
                            "type": "note", 
                            "channel": 9
                        }
                    ]
                ], 
                [
                    205897, 
                    [
                        {
                            "pitch": 55, 
                            "t0": 205897, 
                            "v": 43, 
                            "dur": 61, 
                            "type": "note", 
                            "channel": 9
                        }
                    ]
                ], 
                [
                    206850, 
                    [
                        {
                            "pitch": 55, 
                            "t0": 206850, 
                            "v": 43, 
                            "dur": 66, 
                            "type": "note", 
                            "channel": 9
                        }
                    ]
                ], 
                [
                    207800, 
                    [
                        {
                            "pitch": 55, 
                            "t0": 207800, 
                            "v": 43, 
                            "dur": 73, 
                            "type": "note", 
                            "channel": 9
                        }
                    ]
                ], 
                [
                    208771, 
                    [
                        {
                            "pitch": 55, 
                            "t0": 208771, 
                            "v": 43, 
                            "dur": 70, 
                            "type": "note", 
                            "channel": 9
                        }
                    ]
                ], 
                [
                    209280, 
                    [
                        {
                            "pitch": 41, 
                            "t0": 209280, 
                            "parts": [
                                [
                                    209280, 
                                    11
                                ], 
                                [
                                    209340, 
                                    11
                                ], 
                                [
                                    209400, 
                                    0
                                ]
                            ], 
                            "v": 11, 
                            "dur": 120, 
                            "type": "note", 
                            "channel": 9
                        }
                    ]
                ], 
                [
                    209400, 
                    [
                        {
                            "pitch": 41, 
                            "t0": 209400, 
                            "v": 19, 
                            "dur": 60, 
                            "type": "note", 
                            "channel": 9
                        }
                    ]
                ], 
                [
                    209460, 
                    [
                        {
                            "pitch": 41, 
                            "t0": 209460, 
                            "v": 19, 
                            "dur": 60, 
                            "type": "note", 
                            "channel": 9
                        }
                    ]
                ], 
                [
                    209520, 
                    [
                        {
                            "pitch": 41, 
                            "t0": 209520, 
                            "v": 23, 
                            "dur": 60, 
                            "type": "note", 
                            "channel": 9
                        }
                    ]
                ], 
                [
                    209580, 
                    [
                        {
                            "pitch": 41, 
                            "t0": 209580, 
                            "v": 23, 
                            "dur": 60, 
                            "type": "note", 
                            "channel": 9
                        }
                    ]
                ], 
                [
                    209640, 
                    [
                        {
                            "pitch": 41, 
                            "t0": 209640, 
                            "v": 27, 
                            "dur": 60, 
                            "type": "note", 
                            "channel": 9
                        }
                    ]
                ], 
                [
                    209700, 
                    [
                        {
                            "pitch": 41, 
                            "t0": 209700, 
                            "v": 27, 
                            "dur": 60, 
                            "type": "note", 
                            "channel": 9
                        }
                    ]
                ], 
                [
                    209735, 
                    [
                        {
                            "pitch": 55, 
                            "t0": 209735, 
                            "v": 43, 
                            "dur": 57, 
                            "type": "note", 
                            "channel": 9
                        }
                    ]
                ], 
                [
                    209760, 
                    [
                        {
                            "pitch": 41, 
                            "t0": 209760, 
                            "v": 39, 
                            "dur": 60, 
                            "type": "note", 
                            "channel": 9
                        }
                    ]
                ], 
                [
                    209820, 
                    [
                        {
                            "pitch": 41, 
                            "t0": 209820, 
                            "v": 39, 
                            "dur": 60, 
                            "type": "note", 
                            "channel": 9
                        }
                    ]
                ], 
                [
                    209880, 
                    [
                        {
                            "pitch": 41, 
                            "t0": 209880, 
                            "v": 39, 
                            "dur": 60, 
                            "type": "note", 
                            "channel": 9
                        }
                    ]
                ], 
                [
                    209940, 
                    [
                        {
                            "pitch": 41, 
                            "t0": 209940, 
                            "v": 39, 
                            "dur": 60, 
                            "type": "note", 
                            "channel": 9
                        }
                    ]
                ], 
                [
                    210000, 
                    [
                        {
                            "pitch": 41, 
                            "t0": 210000, 
                            "v": 39, 
                            "dur": 60, 
                            "type": "note", 
                            "channel": 9
                        }
                    ]
                ], 
                [
                    210060, 
                    [
                        {
                            "pitch": 41, 
                            "t0": 210060, 
                            "v": 39, 
                            "dur": 60, 
                            "type": "note", 
                            "channel": 9
                        }
                    ]
                ], 
                [
                    210120, 
                    [
                        {
                            "pitch": 41, 
                            "t0": 210120, 
                            "v": 43, 
                            "dur": 60, 
                            "type": "note", 
                            "channel": 9
                        }
                    ]
                ], 
                [
                    210180, 
                    [
                        {
                            "pitch": 41, 
                            "t0": 210180, 
                            "v": 43, 
                            "dur": 60, 
                            "type": "note", 
                            "channel": 9
                        }
                    ]
                ], 
                [
                    210240, 
                    [
                        {
                            "pitch": 41, 
                            "t0": 210240, 
                            "v": 55, 
                            "dur": 60, 
                            "type": "note", 
                            "channel": 9
                        }
                    ]
                ], 
                [
                    210300, 
                    [
                        {
                            "pitch": 41, 
                            "t0": 210300, 
                            "v": 55, 
                            "dur": 60, 
                            "type": "note", 
                            "channel": 9
                        }
                    ]
                ], 
                [
                    210360, 
                    [
                        {
                            "pitch": 41, 
                            "t0": 210360, 
                            "v": 63, 
                            "dur": 60, 
                            "type": "note", 
                            "channel": 9
                        }
                    ]
                ], 
                [
                    210420, 
                    [
                        {
                            "pitch": 41, 
                            "t0": 210420, 
                            "v": 63, 
                            "dur": 60, 
                            "type": "note", 
                            "channel": 9
                        }
                    ]
                ], 
                [
                    210480, 
                    [
                        {
                            "pitch": 41, 
                            "t0": 210480, 
                            "v": 67, 
                            "dur": 60, 
                            "type": "note", 
                            "channel": 9
                        }
                    ]
                ], 
                [
                    210540, 
                    [
                        {
                            "pitch": 41, 
                            "t0": 210540, 
                            "v": 67, 
                            "dur": 60, 
                            "type": "note", 
                            "channel": 9
                        }
                    ]
                ], 
                [
                    210600, 
                    [
                        {
                            "pitch": 41, 
                            "t0": 210600, 
                            "v": 67, 
                            "dur": 60, 
                            "type": "note", 
                            "channel": 9
                        }
                    ]
                ], 
                [
                    210660, 
                    [
                        {
                            "pitch": 41, 
                            "t0": 210660, 
                            "v": 67, 
                            "dur": 60, 
                            "type": "note", 
                            "channel": 9
                        }
                    ]
                ], 
                [
                    210706, 
                    [
                        {
                            "pitch": 55, 
                            "t0": 210706, 
                            "v": 43, 
                            "dur": 70, 
                            "type": "note", 
                            "channel": 9
                        }
                    ]
                ], 
                [
                    210720, 
                    [
                        {
                            "pitch": 41, 
                            "t0": 210720, 
                            "v": 71, 
                            "dur": 60, 
                            "type": "note", 
                            "channel": 9
                        }
                    ]
                ], 
                [
                    210780, 
                    [
                        {
                            "pitch": 41, 
                            "t0": 210780, 
                            "v": 71, 
                            "dur": 60, 
                            "type": "note", 
                            "channel": 9
                        }
                    ]
                ], 
                [
                    210840, 
                    [
                        {
                            "pitch": 41, 
                            "t0": 210840, 
                            "v": 71, 
                            "dur": 60, 
                            "type": "note", 
                            "channel": 9
                        }
                    ]
                ], 
                [
                    210900, 
                    [
                        {
                            "pitch": 41, 
                            "t0": 210900, 
                            "v": 71, 
                            "dur": 60, 
                            "type": "note", 
                            "channel": 9
                        }
                    ]
                ], 
                [
                    210960, 
                    [
                        {
                            "pitch": 41, 
                            "t0": 210960, 
                            "v": 79, 
                            "dur": 60, 
                            "type": "note", 
                            "channel": 9
                        }
                    ]
                ], 
                [
                    211020, 
                    [
                        {
                            "pitch": 41, 
                            "t0": 211020, 
                            "v": 79, 
                            "dur": 60, 
                            "type": "note", 
                            "channel": 9
                        }
                    ]
                ], 
                [
                    211080, 
                    [
                        {
                            "pitch": 41, 
                            "t0": 211080, 
                            "v": 87, 
                            "dur": 60, 
                            "type": "note", 
                            "channel": 9
                        }
                    ]
                ], 
                [
                    211140, 
                    [
                        {
                            "pitch": 41, 
                            "t0": 211140, 
                            "v": 87, 
                            "dur": 60, 
                            "type": "note", 
                            "channel": 9
                        }
                    ]
                ], 
                [
                    211200, 
                    [
                        {
                            "pitch": 41, 
                            "t0": 211200, 
                            "v": 91, 
                            "dur": 60, 
                            "type": "note", 
                            "channel": 9
                        }
                    ]
                ], 
                [
                    211260, 
                    [
                        {
                            "pitch": 41, 
                            "t0": 211260, 
                            "v": 91, 
                            "dur": 60, 
                            "type": "note", 
                            "channel": 9
                        }
                    ]
                ], 
                [
                    211636, 
                    [
                        {
                            "pitch": 55, 
                            "t0": 211636, 
                            "v": 43, 
                            "dur": 67, 
                            "type": "note", 
                            "channel": 9
                        }
                    ]
                ], 
                [
                    211680, 
                    [
                        {
                            "pitch": 41, 
                            "t0": 211680, 
                            "v": 91, 
                            "dur": 120, 
                            "type": "note", 
                            "channel": 9
                        }
                    ]
                ], 
                [
                    212160, 
                    [
                        {
                            "pitch": 57, 
                            "t0": 212160, 
                            "v": 99, 
                            "dur": 120, 
                            "type": "note", 
                            "channel": 9
                        }
                    ]
                ], 
                [
                    212671, 
                    [
                        {
                            "pitch": 55, 
                            "t0": 212671, 
                            "v": 43, 
                            "dur": 65, 
                            "type": "note", 
                            "channel": 9
                        }
                    ]
                ], 
                [
                    213627, 
                    [
                        {
                            "pitch": 55, 
                            "t0": 213627, 
                            "v": 44, 
                            "dur": 61, 
                            "type": "note", 
                            "channel": 9
                        }
                    ]
                ], 
                [
                    214546, 
                    [
                        {
                            "pitch": 55, 
                            "t0": 214546, 
                            "v": 44, 
                            "dur": 76, 
                            "type": "note", 
                            "channel": 9
                        }
                    ]
                ], 
                [
                    215502, 
                    [
                        {
                            "pitch": 55, 
                            "t0": 215502, 
                            "v": 44, 
                            "dur": 73, 
                            "type": "note", 
                            "channel": 9
                        }
                    ]
                ], 
                [
                    216490, 
                    [
                        {
                            "pitch": 55, 
                            "t0": 216490, 
                            "v": 44, 
                            "dur": 63, 
                            "type": "note", 
                            "channel": 9
                        }
                    ]
                ], 
                [
                    216960, 
                    [
                        {
                            "pitch": 41, 
                            "t0": 216960, 
                            "parts": [
                                [
                                    216960, 
                                    11
                                ], 
                                [
                                    217020, 
                                    11
                                ], 
                                [
                                    217080, 
                                    0
                                ]
                            ], 
                            "v": 11, 
                            "dur": 120, 
                            "type": "note", 
                            "channel": 9
                        }
                    ]
                ], 
                [
                    217080, 
                    [
                        {
                            "pitch": 41, 
                            "t0": 217080, 
                            "v": 19, 
                            "dur": 60, 
                            "type": "note", 
                            "channel": 9
                        }
                    ]
                ], 
                [
                    217140, 
                    [
                        {
                            "pitch": 41, 
                            "t0": 217140, 
                            "v": 19, 
                            "dur": 60, 
                            "type": "note", 
                            "channel": 9
                        }
                    ]
                ], 
                [
                    217200, 
                    [
                        {
                            "pitch": 41, 
                            "t0": 217200, 
                            "v": 23, 
                            "dur": 60, 
                            "type": "note", 
                            "channel": 9
                        }
                    ]
                ], 
                [
                    217260, 
                    [
                        {
                            "pitch": 41, 
                            "t0": 217260, 
                            "v": 23, 
                            "dur": 60, 
                            "type": "note", 
                            "channel": 9
                        }
                    ]
                ], 
                [
                    217320, 
                    [
                        {
                            "pitch": 41, 
                            "t0": 217320, 
                            "v": 27, 
                            "dur": 60, 
                            "type": "note", 
                            "channel": 9
                        }
                    ]
                ], 
                [
                    217380, 
                    [
                        {
                            "pitch": 41, 
                            "t0": 217380, 
                            "v": 27, 
                            "dur": 60, 
                            "type": "note", 
                            "channel": 9
                        }
                    ]
                ], 
                [
                    217431, 
                    [
                        {
                            "pitch": 55, 
                            "t0": 217431, 
                            "v": 44, 
                            "dur": 76, 
                            "type": "note", 
                            "channel": 9
                        }
                    ]
                ], 
                [
                    217440, 
                    [
                        {
                            "pitch": 41, 
                            "t0": 217440, 
                            "v": 39, 
                            "dur": 60, 
                            "type": "note", 
                            "channel": 9
                        }
                    ]
                ], 
                [
                    217500, 
                    [
                        {
                            "pitch": 41, 
                            "t0": 217500, 
                            "v": 39, 
                            "dur": 60, 
                            "type": "note", 
                            "channel": 9
                        }
                    ]
                ], 
                [
                    217560, 
                    [
                        {
                            "pitch": 41, 
                            "t0": 217560, 
                            "v": 39, 
                            "dur": 60, 
                            "type": "note", 
                            "channel": 9
                        }
                    ]
                ], 
                [
                    217620, 
                    [
                        {
                            "pitch": 41, 
                            "t0": 217620, 
                            "v": 39, 
                            "dur": 60, 
                            "type": "note", 
                            "channel": 9
                        }
                    ]
                ], 
                [
                    217680, 
                    [
                        {
                            "pitch": 41, 
                            "t0": 217680, 
                            "v": 39, 
                            "dur": 60, 
                            "type": "note", 
                            "channel": 9
                        }
                    ]
                ], 
                [
                    217740, 
                    [
                        {
                            "pitch": 41, 
                            "t0": 217740, 
                            "v": 39, 
                            "dur": 60, 
                            "type": "note", 
                            "channel": 9
                        }
                    ]
                ], 
                [
                    217800, 
                    [
                        {
                            "pitch": 41, 
                            "t0": 217800, 
                            "v": 43, 
                            "dur": 60, 
                            "type": "note", 
                            "channel": 9
                        }
                    ]
                ], 
                [
                    217860, 
                    [
                        {
                            "pitch": 41, 
                            "t0": 217860, 
                            "v": 43, 
                            "dur": 60, 
                            "type": "note", 
                            "channel": 9
                        }
                    ]
                ], 
                [
                    217920, 
                    [
                        {
                            "pitch": 41, 
                            "t0": 217920, 
                            "v": 55, 
                            "dur": 60, 
                            "type": "note", 
                            "channel": 9
                        }
                    ]
                ], 
                [
                    217980, 
                    [
                        {
                            "pitch": 41, 
                            "t0": 217980, 
                            "v": 55, 
                            "dur": 60, 
                            "type": "note", 
                            "channel": 9
                        }
                    ]
                ], 
                [
                    218040, 
                    [
                        {
                            "pitch": 41, 
                            "t0": 218040, 
                            "v": 63, 
                            "dur": 60, 
                            "type": "note", 
                            "channel": 9
                        }
                    ]
                ], 
                [
                    218100, 
                    [
                        {
                            "pitch": 41, 
                            "t0": 218100, 
                            "v": 63, 
                            "dur": 60, 
                            "type": "note", 
                            "channel": 9
                        }
                    ]
                ], 
                [
                    218160, 
                    [
                        {
                            "pitch": 41, 
                            "t0": 218160, 
                            "v": 67, 
                            "dur": 60, 
                            "type": "note", 
                            "channel": 9
                        }
                    ]
                ], 
                [
                    218220, 
                    [
                        {
                            "pitch": 41, 
                            "t0": 218220, 
                            "v": 67, 
                            "dur": 60, 
                            "type": "note", 
                            "channel": 9
                        }
                    ]
                ], 
                [
                    218280, 
                    [
                        {
                            "pitch": 41, 
                            "t0": 218280, 
                            "v": 67, 
                            "dur": 60, 
                            "type": "note", 
                            "channel": 9
                        }
                    ]
                ], 
                [
                    218340, 
                    [
                        {
                            "pitch": 41, 
                            "t0": 218340, 
                            "v": 67, 
                            "dur": 60, 
                            "type": "note", 
                            "channel": 9
                        }
                    ]
                ], 
                [
                    218385, 
                    [
                        {
                            "pitch": 55, 
                            "t0": 218385, 
                            "v": 44, 
                            "dur": 72, 
                            "type": "note", 
                            "channel": 9
                        }
                    ]
                ], 
                [
                    218400, 
                    [
                        {
                            "pitch": 41, 
                            "t0": 218400, 
                            "v": 71, 
                            "dur": 60, 
                            "type": "note", 
                            "channel": 9
                        }
                    ]
                ], 
                [
                    218460, 
                    [
                        {
                            "pitch": 41, 
                            "t0": 218460, 
                            "v": 71, 
                            "dur": 60, 
                            "type": "note", 
                            "channel": 9
                        }
                    ]
                ], 
                [
                    218520, 
                    [
                        {
                            "pitch": 41, 
                            "t0": 218520, 
                            "v": 71, 
                            "dur": 60, 
                            "type": "note", 
                            "channel": 9
                        }
                    ]
                ], 
                [
                    218580, 
                    [
                        {
                            "pitch": 41, 
                            "t0": 218580, 
                            "v": 71, 
                            "dur": 60, 
                            "type": "note", 
                            "channel": 9
                        }
                    ]
                ], 
                [
                    218640, 
                    [
                        {
                            "pitch": 41, 
                            "t0": 218640, 
                            "v": 79, 
                            "dur": 60, 
                            "type": "note", 
                            "channel": 9
                        }
                    ]
                ], 
                [
                    218700, 
                    [
                        {
                            "pitch": 41, 
                            "t0": 218700, 
                            "v": 79, 
                            "dur": 60, 
                            "type": "note", 
                            "channel": 9
                        }
                    ]
                ], 
                [
                    218760, 
                    [
                        {
                            "pitch": 41, 
                            "t0": 218760, 
                            "v": 87, 
                            "dur": 60, 
                            "type": "note", 
                            "channel": 9
                        }
                    ]
                ], 
                [
                    218820, 
                    [
                        {
                            "pitch": 41, 
                            "t0": 218820, 
                            "v": 87, 
                            "dur": 60, 
                            "type": "note", 
                            "channel": 9
                        }
                    ]
                ], 
                [
                    218880, 
                    [
                        {
                            "pitch": 41, 
                            "t0": 218880, 
                            "v": 91, 
                            "dur": 60, 
                            "type": "note", 
                            "channel": 9
                        }
                    ]
                ], 
                [
                    218940, 
                    [
                        {
                            "pitch": 41, 
                            "t0": 218940, 
                            "v": 91, 
                            "dur": 60, 
                            "type": "note", 
                            "channel": 9
                        }
                    ]
                ], 
                [
                    219320, 
                    [
                        {
                            "pitch": 55, 
                            "t0": 219320, 
                            "v": 44, 
                            "dur": 71, 
                            "type": "note", 
                            "channel": 9
                        }
                    ]
                ], 
                [
                    219360, 
                    [
                        {
                            "pitch": 41, 
                            "t0": 219360, 
                            "v": 91, 
                            "dur": 120, 
                            "type": "note", 
                            "channel": 9
                        }
                    ]
                ], 
                [
                    219840, 
                    [
                        {
                            "pitch": 57, 
                            "t0": 219840, 
                            "v": 99, 
                            "dur": 120, 
                            "type": "note", 
                            "channel": 9
                        }
                    ]
                ], 
                [
                    220325, 
                    [
                        {
                            "pitch": 55, 
                            "t0": 220325, 
                            "v": 44, 
                            "dur": 63, 
                            "type": "note", 
                            "channel": 9
                        }
                    ]
                ]
            ], 
            "instruments": [
                48
            ], 
            "tMax": 220388, 
            "channels": [
                9
            ], 
            "instrument": 48, 
            "numNotes": 186, 
            "type": "TrackObj"
        }, 
        {
            "trackName": "Track 11", 
            "seq": [
                [
                    0, 
                    [
                        {
                            "instrument": 58, 
                            "type": "programChange", 
                            "t0": 0, 
                            "channel": 10
                        }
                    ]
                ], 
                [
                    94080, 
                    [
                        {
                            "pitch": 48, 
                            "t0": 94080, 
                            "v": 122, 
                            "dur": 120, 
                            "type": "note", 
                            "channel": 10
                        }
                    ]
                ], 
                [
                    94560, 
                    [
                        {
                            "pitch": 48, 
                            "t0": 94560, 
                            "v": 122, 
                            "dur": 120, 
                            "type": "note", 
                            "channel": 10
                        }
                    ]
                ], 
                [
                    95040, 
                    [
                        {
                            "pitch": 48, 
                            "t0": 95040, 
                            "v": 127, 
                            "dur": 120, 
                            "type": "note", 
                            "channel": 10
                        }
                    ]
                ], 
                [
                    95520, 
                    [
                        {
                            "pitch": 48, 
                            "t0": 95520, 
                            "v": 127, 
                            "dur": 120, 
                            "type": "note", 
                            "channel": 10
                        }
                    ]
                ], 
                [
                    96000, 
                    [
                        {
                            "pitch": 43, 
                            "t0": 96000, 
                            "v": 127, 
                            "dur": 120, 
                            "type": "note", 
                            "channel": 10
                        }
                    ]
                ], 
                [
                    96480, 
                    [
                        {
                            "pitch": 43, 
                            "t0": 96480, 
                            "v": 122, 
                            "dur": 120, 
                            "type": "note", 
                            "channel": 10
                        }
                    ]
                ], 
                [
                    96960, 
                    [
                        {
                            "pitch": 43, 
                            "t0": 96960, 
                            "v": 127, 
                            "dur": 120, 
                            "type": "note", 
                            "channel": 10
                        }
                    ]
                ], 
                [
                    97440, 
                    [
                        {
                            "pitch": 43, 
                            "t0": 97440, 
                            "v": 122, 
                            "dur": 120, 
                            "type": "note", 
                            "channel": 10
                        }
                    ]
                ], 
                [
                    97920, 
                    [
                        {
                            "pitch": 45, 
                            "t0": 97920, 
                            "v": 127, 
                            "dur": 120, 
                            "type": "note", 
                            "channel": 10
                        }
                    ]
                ], 
                [
                    98400, 
                    [
                        {
                            "pitch": 45, 
                            "t0": 98400, 
                            "v": 127, 
                            "dur": 120, 
                            "type": "note", 
                            "channel": 10
                        }
                    ]
                ], 
                [
                    98880, 
                    [
                        {
                            "pitch": 45, 
                            "t0": 98880, 
                            "v": 122, 
                            "dur": 120, 
                            "type": "note", 
                            "channel": 10
                        }
                    ]
                ], 
                [
                    99360, 
                    [
                        {
                            "pitch": 45, 
                            "t0": 99360, 
                            "v": 127, 
                            "dur": 120, 
                            "type": "note", 
                            "channel": 10
                        }
                    ]
                ], 
                [
                    99840, 
                    [
                        {
                            "pitch": 40, 
                            "t0": 99840, 
                            "v": 127, 
                            "dur": 120, 
                            "type": "note", 
                            "channel": 10
                        }
                    ]
                ], 
                [
                    100320, 
                    [
                        {
                            "pitch": 40, 
                            "t0": 100320, 
                            "v": 127, 
                            "dur": 120, 
                            "type": "note", 
                            "channel": 10
                        }
                    ]
                ], 
                [
                    100800, 
                    [
                        {
                            "pitch": 40, 
                            "t0": 100800, 
                            "v": 127, 
                            "dur": 120, 
                            "type": "note", 
                            "channel": 10
                        }
                    ]
                ], 
                [
                    101280, 
                    [
                        {
                            "pitch": 40, 
                            "t0": 101280, 
                            "v": 122, 
                            "dur": 120, 
                            "type": "note", 
                            "channel": 10
                        }
                    ]
                ], 
                [
                    101760, 
                    [
                        {
                            "pitch": 41, 
                            "t0": 101760, 
                            "v": 127, 
                            "dur": 120, 
                            "type": "note", 
                            "channel": 10
                        }
                    ]
                ], 
                [
                    102240, 
                    [
                        {
                            "pitch": 41, 
                            "t0": 102240, 
                            "v": 127, 
                            "dur": 120, 
                            "type": "note", 
                            "channel": 10
                        }
                    ]
                ], 
                [
                    102720, 
                    [
                        {
                            "pitch": 43, 
                            "t0": 102720, 
                            "v": 127, 
                            "dur": 120, 
                            "type": "note", 
                            "channel": 10
                        }
                    ]
                ], 
                [
                    103200, 
                    [
                        {
                            "pitch": 43, 
                            "t0": 103200, 
                            "v": 127, 
                            "dur": 120, 
                            "type": "note", 
                            "channel": 10
                        }
                    ]
                ], 
                [
                    103680, 
                    [
                        {
                            "pitch": 45, 
                            "t0": 103680, 
                            "v": 122, 
                            "dur": 120, 
                            "type": "note", 
                            "channel": 10
                        }
                    ]
                ], 
                [
                    104160, 
                    [
                        {
                            "pitch": 45, 
                            "t0": 104160, 
                            "v": 127, 
                            "dur": 120, 
                            "type": "note", 
                            "channel": 10
                        }
                    ]
                ], 
                [
                    104640, 
                    [
                        {
                            "pitch": 45, 
                            "t0": 104640, 
                            "v": 127, 
                            "dur": 120, 
                            "type": "note", 
                            "channel": 10
                        }
                    ]
                ], 
                [
                    105600, 
                    [
                        {
                            "pitch": 48, 
                            "t0": 105600, 
                            "v": 127, 
                            "dur": 120, 
                            "type": "note", 
                            "channel": 10
                        }
                    ]
                ], 
                [
                    106080, 
                    [
                        {
                            "pitch": 48, 
                            "t0": 106080, 
                            "v": 127, 
                            "dur": 120, 
                            "type": "note", 
                            "channel": 10
                        }
                    ]
                ], 
                [
                    106560, 
                    [
                        {
                            "pitch": 43, 
                            "t0": 106560, 
                            "v": 127, 
                            "dur": 120, 
                            "type": "note", 
                            "channel": 10
                        }
                    ]
                ], 
                [
                    107040, 
                    [
                        {
                            "pitch": 43, 
                            "t0": 107040, 
                            "v": 127, 
                            "dur": 120, 
                            "type": "note", 
                            "channel": 10
                        }
                    ]
                ], 
                [
                    107520, 
                    [
                        {
                            "pitch": 45, 
                            "t0": 107520, 
                            "v": 127, 
                            "dur": 120, 
                            "type": "note", 
                            "channel": 10
                        }
                    ]
                ], 
                [
                    108000, 
                    [
                        {
                            "pitch": 45, 
                            "t0": 108000, 
                            "v": 127, 
                            "dur": 120, 
                            "type": "note", 
                            "channel": 10
                        }
                    ]
                ], 
                [
                    108480, 
                    [
                        {
                            "pitch": 40, 
                            "t0": 108480, 
                            "v": 122, 
                            "dur": 120, 
                            "type": "note", 
                            "channel": 10
                        }
                    ]
                ], 
                [
                    108960, 
                    [
                        {
                            "pitch": 40, 
                            "t0": 108960, 
                            "v": 122, 
                            "dur": 120, 
                            "type": "note", 
                            "channel": 10
                        }
                    ]
                ], 
                [
                    109440, 
                    [
                        {
                            "pitch": 41, 
                            "t0": 109440, 
                            "v": 127, 
                            "dur": 120, 
                            "type": "note", 
                            "channel": 10
                        }
                    ]
                ], 
                [
                    109920, 
                    [
                        {
                            "pitch": 41, 
                            "t0": 109920, 
                            "v": 127, 
                            "dur": 120, 
                            "type": "note", 
                            "channel": 10
                        }
                    ]
                ], 
                [
                    110400, 
                    [
                        {
                            "pitch": 43, 
                            "t0": 110400, 
                            "v": 127, 
                            "dur": 120, 
                            "type": "note", 
                            "channel": 10
                        }
                    ]
                ], 
                [
                    110880, 
                    [
                        {
                            "pitch": 43, 
                            "t0": 110880, 
                            "v": 127, 
                            "dur": 120, 
                            "type": "note", 
                            "channel": 10
                        }
                    ]
                ], 
                [
                    111360, 
                    [
                        {
                            "pitch": 45, 
                            "t0": 111360, 
                            "v": 127, 
                            "dur": 120, 
                            "type": "note", 
                            "channel": 10
                        }
                    ]
                ], 
                [
                    111840, 
                    [
                        {
                            "pitch": 45, 
                            "t0": 111840, 
                            "v": 127, 
                            "dur": 120, 
                            "type": "note", 
                            "channel": 10
                        }
                    ]
                ], 
                [
                    112320, 
                    [
                        {
                            "pitch": 45, 
                            "t0": 112320, 
                            "v": 127, 
                            "dur": 120, 
                            "type": "note", 
                            "channel": 10
                        }
                    ]
                ], 
                [
                    201600, 
                    [
                        {
                            "pitch": 48, 
                            "t0": 201600, 
                            "v": 122, 
                            "dur": 120, 
                            "type": "note", 
                            "channel": 10
                        }
                    ]
                ], 
                [
                    202080, 
                    [
                        {
                            "pitch": 48, 
                            "t0": 202080, 
                            "v": 122, 
                            "dur": 120, 
                            "type": "note", 
                            "channel": 10
                        }
                    ]
                ], 
                [
                    202560, 
                    [
                        {
                            "pitch": 48, 
                            "t0": 202560, 
                            "v": 127, 
                            "dur": 120, 
                            "type": "note", 
                            "channel": 10
                        }
                    ]
                ], 
                [
                    203040, 
                    [
                        {
                            "pitch": 48, 
                            "t0": 203040, 
                            "v": 127, 
                            "dur": 120, 
                            "type": "note", 
                            "channel": 10
                        }
                    ]
                ], 
                [
                    203520, 
                    [
                        {
                            "pitch": 43, 
                            "t0": 203520, 
                            "v": 127, 
                            "dur": 120, 
                            "type": "note", 
                            "channel": 10
                        }
                    ]
                ], 
                [
                    204000, 
                    [
                        {
                            "pitch": 43, 
                            "t0": 204000, 
                            "v": 122, 
                            "dur": 120, 
                            "type": "note", 
                            "channel": 10
                        }
                    ]
                ], 
                [
                    204480, 
                    [
                        {
                            "pitch": 43, 
                            "t0": 204480, 
                            "v": 127, 
                            "dur": 120, 
                            "type": "note", 
                            "channel": 10
                        }
                    ]
                ], 
                [
                    204960, 
                    [
                        {
                            "pitch": 43, 
                            "t0": 204960, 
                            "v": 122, 
                            "dur": 120, 
                            "type": "note", 
                            "channel": 10
                        }
                    ]
                ], 
                [
                    205440, 
                    [
                        {
                            "pitch": 45, 
                            "t0": 205440, 
                            "v": 127, 
                            "dur": 120, 
                            "type": "note", 
                            "channel": 10
                        }
                    ]
                ], 
                [
                    205920, 
                    [
                        {
                            "pitch": 45, 
                            "t0": 205920, 
                            "v": 127, 
                            "dur": 120, 
                            "type": "note", 
                            "channel": 10
                        }
                    ]
                ], 
                [
                    206400, 
                    [
                        {
                            "pitch": 45, 
                            "t0": 206400, 
                            "v": 122, 
                            "dur": 120, 
                            "type": "note", 
                            "channel": 10
                        }
                    ]
                ], 
                [
                    206880, 
                    [
                        {
                            "pitch": 45, 
                            "t0": 206880, 
                            "v": 127, 
                            "dur": 120, 
                            "type": "note", 
                            "channel": 10
                        }
                    ]
                ], 
                [
                    207360, 
                    [
                        {
                            "pitch": 40, 
                            "t0": 207360, 
                            "v": 127, 
                            "dur": 120, 
                            "type": "note", 
                            "channel": 10
                        }
                    ]
                ], 
                [
                    207840, 
                    [
                        {
                            "pitch": 40, 
                            "t0": 207840, 
                            "v": 127, 
                            "dur": 120, 
                            "type": "note", 
                            "channel": 10
                        }
                    ]
                ], 
                [
                    208320, 
                    [
                        {
                            "pitch": 40, 
                            "t0": 208320, 
                            "v": 127, 
                            "dur": 120, 
                            "type": "note", 
                            "channel": 10
                        }
                    ]
                ], 
                [
                    208800, 
                    [
                        {
                            "pitch": 40, 
                            "t0": 208800, 
                            "v": 122, 
                            "dur": 120, 
                            "type": "note", 
                            "channel": 10
                        }
                    ]
                ], 
                [
                    209280, 
                    [
                        {
                            "pitch": 41, 
                            "t0": 209280, 
                            "v": 127, 
                            "dur": 120, 
                            "type": "note", 
                            "channel": 10
                        }
                    ]
                ], 
                [
                    209760, 
                    [
                        {
                            "pitch": 41, 
                            "t0": 209760, 
                            "v": 127, 
                            "dur": 120, 
                            "type": "note", 
                            "channel": 10
                        }
                    ]
                ], 
                [
                    210240, 
                    [
                        {
                            "pitch": 43, 
                            "t0": 210240, 
                            "v": 127, 
                            "dur": 120, 
                            "type": "note", 
                            "channel": 10
                        }
                    ]
                ], 
                [
                    210720, 
                    [
                        {
                            "pitch": 43, 
                            "t0": 210720, 
                            "v": 127, 
                            "dur": 120, 
                            "type": "note", 
                            "channel": 10
                        }
                    ]
                ], 
                [
                    211200, 
                    [
                        {
                            "pitch": 45, 
                            "t0": 211200, 
                            "v": 122, 
                            "dur": 120, 
                            "type": "note", 
                            "channel": 10
                        }
                    ]
                ], 
                [
                    211680, 
                    [
                        {
                            "pitch": 45, 
                            "t0": 211680, 
                            "v": 127, 
                            "dur": 120, 
                            "type": "note", 
                            "channel": 10
                        }
                    ]
                ], 
                [
                    212160, 
                    [
                        {
                            "pitch": 45, 
                            "t0": 212160, 
                            "v": 127, 
                            "dur": 120, 
                            "type": "note", 
                            "channel": 10
                        }
                    ]
                ], 
                [
                    213120, 
                    [
                        {
                            "pitch": 48, 
                            "t0": 213120, 
                            "v": 127, 
                            "dur": 120, 
                            "type": "note", 
                            "channel": 10
                        }
                    ]
                ], 
                [
                    213600, 
                    [
                        {
                            "pitch": 48, 
                            "t0": 213600, 
                            "v": 127, 
                            "dur": 120, 
                            "type": "note", 
                            "channel": 10
                        }
                    ]
                ], 
                [
                    214080, 
                    [
                        {
                            "pitch": 43, 
                            "t0": 214080, 
                            "v": 127, 
                            "dur": 120, 
                            "type": "note", 
                            "channel": 10
                        }
                    ]
                ], 
                [
                    214560, 
                    [
                        {
                            "pitch": 43, 
                            "t0": 214560, 
                            "v": 127, 
                            "dur": 120, 
                            "type": "note", 
                            "channel": 10
                        }
                    ]
                ], 
                [
                    215040, 
                    [
                        {
                            "pitch": 45, 
                            "t0": 215040, 
                            "v": 127, 
                            "dur": 120, 
                            "type": "note", 
                            "channel": 10
                        }
                    ]
                ], 
                [
                    215520, 
                    [
                        {
                            "pitch": 45, 
                            "t0": 215520, 
                            "v": 127, 
                            "dur": 120, 
                            "type": "note", 
                            "channel": 10
                        }
                    ]
                ], 
                [
                    216000, 
                    [
                        {
                            "pitch": 40, 
                            "t0": 216000, 
                            "v": 122, 
                            "dur": 120, 
                            "type": "note", 
                            "channel": 10
                        }
                    ]
                ], 
                [
                    216480, 
                    [
                        {
                            "pitch": 40, 
                            "t0": 216480, 
                            "v": 122, 
                            "dur": 120, 
                            "type": "note", 
                            "channel": 10
                        }
                    ]
                ], 
                [
                    216960, 
                    [
                        {
                            "pitch": 41, 
                            "t0": 216960, 
                            "v": 127, 
                            "dur": 120, 
                            "type": "note", 
                            "channel": 10
                        }
                    ]
                ], 
                [
                    217440, 
                    [
                        {
                            "pitch": 41, 
                            "t0": 217440, 
                            "v": 127, 
                            "dur": 120, 
                            "type": "note", 
                            "channel": 10
                        }
                    ]
                ], 
                [
                    217920, 
                    [
                        {
                            "pitch": 43, 
                            "t0": 217920, 
                            "v": 127, 
                            "dur": 120, 
                            "type": "note", 
                            "channel": 10
                        }
                    ]
                ], 
                [
                    218400, 
                    [
                        {
                            "pitch": 43, 
                            "t0": 218400, 
                            "v": 127, 
                            "dur": 120, 
                            "type": "note", 
                            "channel": 10
                        }
                    ]
                ], 
                [
                    218880, 
                    [
                        {
                            "pitch": 45, 
                            "t0": 218880, 
                            "v": 127, 
                            "dur": 120, 
                            "type": "note", 
                            "channel": 10
                        }
                    ]
                ], 
                [
                    219360, 
                    [
                        {
                            "pitch": 45, 
                            "t0": 219360, 
                            "v": 127, 
                            "dur": 120, 
                            "type": "note", 
                            "channel": 10
                        }
                    ]
                ], 
                [
                    219840, 
                    [
                        {
                            "pitch": 45, 
                            "t0": 219840, 
                            "v": 127, 
                            "dur": 120, 
                            "type": "note", 
                            "channel": 10
                        }
                    ]
                ]
            ], 
            "instruments": [
                58
            ], 
            "tMax": 219960, 
            "channels": [
                10
            ], 
            "instrument": 58, 
            "numNotes": 76, 
            "type": "TrackObj"
        }, 
        {
            "trackName": "Track 12", 
            "seq": [
                [
                    0, 
                    [
                        {
                            "instrument": 42, 
                            "type": "programChange", 
                            "t0": 0, 
                            "channel": 11
                        }
                    ]
                ], 
                [
                    94080, 
                    [
                        {
                            "pitch": 72, 
                            "t0": 94080, 
                            "v": 60, 
                            "dur": 60, 
                            "type": "note", 
                            "channel": 11
                        }, 
                        {
                            "pitch": 60, 
                            "t0": 94080, 
                            "v": 60, 
                            "dur": 60, 
                            "type": "note", 
                            "channel": 11
                        }, 
                        {
                            "pitch": 48, 
                            "t0": 94080, 
                            "v": 60, 
                            "dur": 60, 
                            "type": "note", 
                            "channel": 11
                        }, 
                        {
                            "pitch": 36, 
                            "t0": 94080, 
                            "v": 60, 
                            "dur": 60, 
                            "type": "note", 
                            "channel": 11
                        }
                    ]
                ], 
                [
                    94200, 
                    [
                        {
                            "pitch": 72, 
                            "t0": 94200, 
                            "v": 60, 
                            "dur": 60, 
                            "type": "note", 
                            "channel": 11
                        }, 
                        {
                            "pitch": 36, 
                            "t0": 94200, 
                            "v": 60, 
                            "dur": 60, 
                            "type": "note", 
                            "channel": 11
                        }, 
                        {
                            "pitch": 48, 
                            "t0": 94200, 
                            "v": 60, 
                            "dur": 60, 
                            "type": "note", 
                            "channel": 11
                        }, 
                        {
                            "pitch": 60, 
                            "t0": 94200, 
                            "v": 60, 
                            "dur": 60, 
                            "type": "note", 
                            "channel": 11
                        }
                    ]
                ], 
                [
                    94380, 
                    [
                        {
                            "pitch": 72, 
                            "t0": 94380, 
                            "v": 60, 
                            "dur": 60, 
                            "type": "note", 
                            "channel": 11
                        }, 
                        {
                            "pitch": 36, 
                            "t0": 94380, 
                            "v": 60, 
                            "dur": 60, 
                            "type": "note", 
                            "channel": 11
                        }, 
                        {
                            "pitch": 48, 
                            "t0": 94380, 
                            "v": 60, 
                            "dur": 60, 
                            "type": "note", 
                            "channel": 11
                        }, 
                        {
                            "pitch": 60, 
                            "t0": 94380, 
                            "v": 60, 
                            "dur": 60, 
                            "type": "note", 
                            "channel": 11
                        }
                    ]
                ], 
                [
                    94560, 
                    [
                        {
                            "pitch": 72, 
                            "t0": 94560, 
                            "v": 60, 
                            "dur": 60, 
                            "type": "note", 
                            "channel": 11
                        }, 
                        {
                            "pitch": 60, 
                            "t0": 94560, 
                            "v": 60, 
                            "dur": 60, 
                            "type": "note", 
                            "channel": 11
                        }, 
                        {
                            "pitch": 48, 
                            "t0": 94560, 
                            "v": 60, 
                            "dur": 60, 
                            "type": "note", 
                            "channel": 11
                        }, 
                        {
                            "pitch": 36, 
                            "t0": 94560, 
                            "v": 60, 
                            "dur": 60, 
                            "type": "note", 
                            "channel": 11
                        }
                    ]
                ], 
                [
                    95040, 
                    [
                        {
                            "pitch": 48, 
                            "t0": 95040, 
                            "v": 60, 
                            "dur": 120, 
                            "type": "note", 
                            "channel": 11
                        }, 
                        {
                            "pitch": 60, 
                            "t0": 95040, 
                            "v": 60, 
                            "dur": 120, 
                            "type": "note", 
                            "channel": 11
                        }
                    ]
                ], 
                [
                    95520, 
                    [
                        {
                            "pitch": 60, 
                            "t0": 95520, 
                            "v": 60, 
                            "dur": 120, 
                            "type": "note", 
                            "channel": 11
                        }, 
                        {
                            "pitch": 48, 
                            "t0": 95520, 
                            "v": 60, 
                            "dur": 120, 
                            "type": "note", 
                            "channel": 11
                        }
                    ]
                ], 
                [
                    96000, 
                    [
                        {
                            "pitch": 67, 
                            "t0": 96000, 
                            "v": 60, 
                            "dur": 60, 
                            "type": "note", 
                            "channel": 11
                        }, 
                        {
                            "pitch": 55, 
                            "t0": 96000, 
                            "v": 60, 
                            "dur": 60, 
                            "type": "note", 
                            "channel": 11
                        }, 
                        {
                            "pitch": 43, 
                            "t0": 96000, 
                            "v": 60, 
                            "dur": 60, 
                            "type": "note", 
                            "channel": 11
                        }, 
                        {
                            "pitch": 31, 
                            "t0": 96000, 
                            "v": 60, 
                            "dur": 60, 
                            "type": "note", 
                            "channel": 11
                        }
                    ]
                ], 
                [
                    96120, 
                    [
                        {
                            "pitch": 67, 
                            "t0": 96120, 
                            "v": 60, 
                            "dur": 60, 
                            "type": "note", 
                            "channel": 11
                        }, 
                        {
                            "pitch": 31, 
                            "t0": 96120, 
                            "v": 60, 
                            "dur": 60, 
                            "type": "note", 
                            "channel": 11
                        }, 
                        {
                            "pitch": 43, 
                            "t0": 96120, 
                            "v": 60, 
                            "dur": 60, 
                            "type": "note", 
                            "channel": 11
                        }, 
                        {
                            "pitch": 55, 
                            "t0": 96120, 
                            "v": 60, 
                            "dur": 60, 
                            "type": "note", 
                            "channel": 11
                        }
                    ]
                ], 
                [
                    96300, 
                    [
                        {
                            "pitch": 67, 
                            "t0": 96300, 
                            "v": 60, 
                            "dur": 60, 
                            "type": "note", 
                            "channel": 11
                        }, 
                        {
                            "pitch": 31, 
                            "t0": 96300, 
                            "v": 60, 
                            "dur": 60, 
                            "type": "note", 
                            "channel": 11
                        }, 
                        {
                            "pitch": 43, 
                            "t0": 96300, 
                            "v": 60, 
                            "dur": 60, 
                            "type": "note", 
                            "channel": 11
                        }, 
                        {
                            "pitch": 55, 
                            "t0": 96300, 
                            "v": 60, 
                            "dur": 60, 
                            "type": "note", 
                            "channel": 11
                        }
                    ]
                ], 
                [
                    96480, 
                    [
                        {
                            "pitch": 67, 
                            "t0": 96480, 
                            "v": 60, 
                            "dur": 60, 
                            "type": "note", 
                            "channel": 11
                        }, 
                        {
                            "pitch": 43, 
                            "t0": 96480, 
                            "v": 60, 
                            "dur": 60, 
                            "type": "note", 
                            "channel": 11
                        }, 
                        {
                            "pitch": 55, 
                            "t0": 96480, 
                            "v": 60, 
                            "dur": 60, 
                            "type": "note", 
                            "channel": 11
                        }, 
                        {
                            "pitch": 31, 
                            "t0": 96480, 
                            "v": 60, 
                            "dur": 60, 
                            "type": "note", 
                            "channel": 11
                        }
                    ]
                ], 
                [
                    96960, 
                    [
                        {
                            "pitch": 55, 
                            "t0": 96960, 
                            "v": 60, 
                            "dur": 120, 
                            "type": "note", 
                            "channel": 11
                        }, 
                        {
                            "pitch": 43, 
                            "t0": 96960, 
                            "v": 60, 
                            "dur": 120, 
                            "type": "note", 
                            "channel": 11
                        }
                    ]
                ], 
                [
                    97440, 
                    [
                        {
                            "pitch": 43, 
                            "t0": 97440, 
                            "v": 60, 
                            "dur": 120, 
                            "type": "note", 
                            "channel": 11
                        }, 
                        {
                            "pitch": 55, 
                            "t0": 97440, 
                            "v": 60, 
                            "dur": 120, 
                            "type": "note", 
                            "channel": 11
                        }
                    ]
                ], 
                [
                    97920, 
                    [
                        {
                            "pitch": 69, 
                            "t0": 97920, 
                            "v": 60, 
                            "dur": 60, 
                            "type": "note", 
                            "channel": 11
                        }, 
                        {
                            "pitch": 45, 
                            "t0": 97920, 
                            "v": 60, 
                            "dur": 60, 
                            "type": "note", 
                            "channel": 11
                        }, 
                        {
                            "pitch": 57, 
                            "t0": 97920, 
                            "v": 60, 
                            "dur": 60, 
                            "type": "note", 
                            "channel": 11
                        }, 
                        {
                            "pitch": 33, 
                            "t0": 97920, 
                            "v": 60, 
                            "dur": 60, 
                            "type": "note", 
                            "channel": 11
                        }
                    ]
                ], 
                [
                    98040, 
                    [
                        {
                            "pitch": 69, 
                            "t0": 98040, 
                            "v": 60, 
                            "dur": 60, 
                            "type": "note", 
                            "channel": 11
                        }, 
                        {
                            "pitch": 33, 
                            "t0": 98040, 
                            "v": 60, 
                            "dur": 60, 
                            "type": "note", 
                            "channel": 11
                        }, 
                        {
                            "pitch": 45, 
                            "t0": 98040, 
                            "v": 60, 
                            "dur": 60, 
                            "type": "note", 
                            "channel": 11
                        }, 
                        {
                            "pitch": 57, 
                            "t0": 98040, 
                            "v": 60, 
                            "dur": 60, 
                            "type": "note", 
                            "channel": 11
                        }
                    ]
                ], 
                [
                    98220, 
                    [
                        {
                            "pitch": 69, 
                            "t0": 98220, 
                            "v": 60, 
                            "dur": 60, 
                            "type": "note", 
                            "channel": 11
                        }, 
                        {
                            "pitch": 33, 
                            "t0": 98220, 
                            "v": 60, 
                            "dur": 60, 
                            "type": "note", 
                            "channel": 11
                        }, 
                        {
                            "pitch": 45, 
                            "t0": 98220, 
                            "v": 60, 
                            "dur": 60, 
                            "type": "note", 
                            "channel": 11
                        }, 
                        {
                            "pitch": 57, 
                            "t0": 98220, 
                            "v": 60, 
                            "dur": 60, 
                            "type": "note", 
                            "channel": 11
                        }
                    ]
                ], 
                [
                    98400, 
                    [
                        {
                            "pitch": 69, 
                            "t0": 98400, 
                            "v": 60, 
                            "dur": 60, 
                            "type": "note", 
                            "channel": 11
                        }, 
                        {
                            "pitch": 57, 
                            "t0": 98400, 
                            "v": 60, 
                            "dur": 60, 
                            "type": "note", 
                            "channel": 11
                        }, 
                        {
                            "pitch": 45, 
                            "t0": 98400, 
                            "v": 60, 
                            "dur": 60, 
                            "type": "note", 
                            "channel": 11
                        }, 
                        {
                            "pitch": 33, 
                            "t0": 98400, 
                            "v": 60, 
                            "dur": 60, 
                            "type": "note", 
                            "channel": 11
                        }
                    ]
                ], 
                [
                    98880, 
                    [
                        {
                            "pitch": 57, 
                            "t0": 98880, 
                            "v": 60, 
                            "dur": 120, 
                            "type": "note", 
                            "channel": 11
                        }, 
                        {
                            "pitch": 45, 
                            "t0": 98880, 
                            "v": 60, 
                            "dur": 120, 
                            "type": "note", 
                            "channel": 11
                        }
                    ]
                ], 
                [
                    99360, 
                    [
                        {
                            "pitch": 45, 
                            "t0": 99360, 
                            "v": 60, 
                            "dur": 120, 
                            "type": "note", 
                            "channel": 11
                        }, 
                        {
                            "pitch": 57, 
                            "t0": 99360, 
                            "v": 60, 
                            "dur": 120, 
                            "type": "note", 
                            "channel": 11
                        }
                    ]
                ], 
                [
                    99840, 
                    [
                        {
                            "pitch": 64, 
                            "t0": 99840, 
                            "v": 60, 
                            "dur": 60, 
                            "type": "note", 
                            "channel": 11
                        }, 
                        {
                            "pitch": 40, 
                            "t0": 99840, 
                            "v": 60, 
                            "dur": 60, 
                            "type": "note", 
                            "channel": 11
                        }, 
                        {
                            "pitch": 52, 
                            "t0": 99840, 
                            "v": 60, 
                            "dur": 60, 
                            "type": "note", 
                            "channel": 11
                        }, 
                        {
                            "pitch": 28, 
                            "t0": 99840, 
                            "v": 60, 
                            "dur": 60, 
                            "type": "note", 
                            "channel": 11
                        }
                    ]
                ], 
                [
                    99960, 
                    [
                        {
                            "pitch": 64, 
                            "t0": 99960, 
                            "v": 60, 
                            "dur": 60, 
                            "type": "note", 
                            "channel": 11
                        }, 
                        {
                            "pitch": 28, 
                            "t0": 99960, 
                            "v": 60, 
                            "dur": 60, 
                            "type": "note", 
                            "channel": 11
                        }, 
                        {
                            "pitch": 40, 
                            "t0": 99960, 
                            "v": 60, 
                            "dur": 60, 
                            "type": "note", 
                            "channel": 11
                        }, 
                        {
                            "pitch": 52, 
                            "t0": 99960, 
                            "v": 60, 
                            "dur": 60, 
                            "type": "note", 
                            "channel": 11
                        }
                    ]
                ], 
                [
                    100140, 
                    [
                        {
                            "pitch": 64, 
                            "t0": 100140, 
                            "v": 60, 
                            "dur": 60, 
                            "type": "note", 
                            "channel": 11
                        }, 
                        {
                            "pitch": 28, 
                            "t0": 100140, 
                            "v": 60, 
                            "dur": 60, 
                            "type": "note", 
                            "channel": 11
                        }, 
                        {
                            "pitch": 40, 
                            "t0": 100140, 
                            "v": 60, 
                            "dur": 60, 
                            "type": "note", 
                            "channel": 11
                        }, 
                        {
                            "pitch": 52, 
                            "t0": 100140, 
                            "v": 60, 
                            "dur": 60, 
                            "type": "note", 
                            "channel": 11
                        }
                    ]
                ], 
                [
                    100320, 
                    [
                        {
                            "pitch": 64, 
                            "t0": 100320, 
                            "v": 60, 
                            "dur": 60, 
                            "type": "note", 
                            "channel": 11
                        }, 
                        {
                            "pitch": 40, 
                            "t0": 100320, 
                            "v": 60, 
                            "dur": 60, 
                            "type": "note", 
                            "channel": 11
                        }, 
                        {
                            "pitch": 52, 
                            "t0": 100320, 
                            "v": 60, 
                            "dur": 60, 
                            "type": "note", 
                            "channel": 11
                        }, 
                        {
                            "pitch": 28, 
                            "t0": 100320, 
                            "v": 60, 
                            "dur": 60, 
                            "type": "note", 
                            "channel": 11
                        }
                    ]
                ], 
                [
                    100800, 
                    [
                        {
                            "pitch": 40, 
                            "t0": 100800, 
                            "v": 60, 
                            "dur": 120, 
                            "type": "note", 
                            "channel": 11
                        }, 
                        {
                            "pitch": 52, 
                            "t0": 100800, 
                            "v": 60, 
                            "dur": 120, 
                            "type": "note", 
                            "channel": 11
                        }
                    ]
                ], 
                [
                    101280, 
                    [
                        {
                            "pitch": 40, 
                            "t0": 101280, 
                            "v": 60, 
                            "dur": 120, 
                            "type": "note", 
                            "channel": 11
                        }, 
                        {
                            "pitch": 52, 
                            "t0": 101280, 
                            "v": 60, 
                            "dur": 120, 
                            "type": "note", 
                            "channel": 11
                        }
                    ]
                ], 
                [
                    101760, 
                    [
                        {
                            "pitch": 65, 
                            "t0": 101760, 
                            "v": 60, 
                            "dur": 60, 
                            "type": "note", 
                            "channel": 11
                        }, 
                        {
                            "pitch": 41, 
                            "t0": 101760, 
                            "v": 60, 
                            "dur": 60, 
                            "type": "note", 
                            "channel": 11
                        }, 
                        {
                            "pitch": 53, 
                            "t0": 101760, 
                            "v": 60, 
                            "dur": 60, 
                            "type": "note", 
                            "channel": 11
                        }, 
                        {
                            "pitch": 29, 
                            "t0": 101760, 
                            "v": 60, 
                            "dur": 60, 
                            "type": "note", 
                            "channel": 11
                        }
                    ]
                ], 
                [
                    101880, 
                    [
                        {
                            "pitch": 65, 
                            "t0": 101880, 
                            "v": 60, 
                            "dur": 60, 
                            "type": "note", 
                            "channel": 11
                        }, 
                        {
                            "pitch": 29, 
                            "t0": 101880, 
                            "v": 60, 
                            "dur": 60, 
                            "type": "note", 
                            "channel": 11
                        }, 
                        {
                            "pitch": 41, 
                            "t0": 101880, 
                            "v": 60, 
                            "dur": 60, 
                            "type": "note", 
                            "channel": 11
                        }, 
                        {
                            "pitch": 53, 
                            "t0": 101880, 
                            "v": 60, 
                            "dur": 60, 
                            "type": "note", 
                            "channel": 11
                        }
                    ]
                ], 
                [
                    102060, 
                    [
                        {
                            "pitch": 65, 
                            "t0": 102060, 
                            "v": 60, 
                            "dur": 60, 
                            "type": "note", 
                            "channel": 11
                        }, 
                        {
                            "pitch": 29, 
                            "t0": 102060, 
                            "v": 60, 
                            "dur": 60, 
                            "type": "note", 
                            "channel": 11
                        }, 
                        {
                            "pitch": 41, 
                            "t0": 102060, 
                            "v": 60, 
                            "dur": 60, 
                            "type": "note", 
                            "channel": 11
                        }, 
                        {
                            "pitch": 53, 
                            "t0": 102060, 
                            "v": 60, 
                            "dur": 60, 
                            "type": "note", 
                            "channel": 11
                        }
                    ]
                ], 
                [
                    102240, 
                    [
                        {
                            "pitch": 65, 
                            "t0": 102240, 
                            "v": 60, 
                            "dur": 60, 
                            "type": "note", 
                            "channel": 11
                        }, 
                        {
                            "pitch": 41, 
                            "t0": 102240, 
                            "v": 60, 
                            "dur": 60, 
                            "type": "note", 
                            "channel": 11
                        }, 
                        {
                            "pitch": 53, 
                            "t0": 102240, 
                            "v": 60, 
                            "dur": 60, 
                            "type": "note", 
                            "channel": 11
                        }, 
                        {
                            "pitch": 29, 
                            "t0": 102240, 
                            "v": 60, 
                            "dur": 60, 
                            "type": "note", 
                            "channel": 11
                        }
                    ]
                ], 
                [
                    102720, 
                    [
                        {
                            "pitch": 67, 
                            "t0": 102720, 
                            "v": 60, 
                            "dur": 60, 
                            "type": "note", 
                            "channel": 11
                        }, 
                        {
                            "pitch": 43, 
                            "t0": 102720, 
                            "v": 60, 
                            "dur": 60, 
                            "type": "note", 
                            "channel": 11
                        }, 
                        {
                            "pitch": 55, 
                            "t0": 102720, 
                            "v": 60, 
                            "dur": 60, 
                            "type": "note", 
                            "channel": 11
                        }, 
                        {
                            "pitch": 31, 
                            "t0": 102720, 
                            "v": 60, 
                            "dur": 60, 
                            "type": "note", 
                            "channel": 11
                        }
                    ]
                ], 
                [
                    102840, 
                    [
                        {
                            "pitch": 67, 
                            "t0": 102840, 
                            "v": 60, 
                            "dur": 60, 
                            "type": "note", 
                            "channel": 11
                        }, 
                        {
                            "pitch": 31, 
                            "t0": 102840, 
                            "v": 60, 
                            "dur": 60, 
                            "type": "note", 
                            "channel": 11
                        }, 
                        {
                            "pitch": 43, 
                            "t0": 102840, 
                            "v": 60, 
                            "dur": 60, 
                            "type": "note", 
                            "channel": 11
                        }, 
                        {
                            "pitch": 55, 
                            "t0": 102840, 
                            "v": 60, 
                            "dur": 60, 
                            "type": "note", 
                            "channel": 11
                        }
                    ]
                ], 
                [
                    103020, 
                    [
                        {
                            "pitch": 67, 
                            "t0": 103020, 
                            "v": 60, 
                            "dur": 60, 
                            "type": "note", 
                            "channel": 11
                        }, 
                        {
                            "pitch": 31, 
                            "t0": 103020, 
                            "v": 60, 
                            "dur": 60, 
                            "type": "note", 
                            "channel": 11
                        }, 
                        {
                            "pitch": 43, 
                            "t0": 103020, 
                            "v": 60, 
                            "dur": 60, 
                            "type": "note", 
                            "channel": 11
                        }, 
                        {
                            "pitch": 55, 
                            "t0": 103020, 
                            "v": 60, 
                            "dur": 60, 
                            "type": "note", 
                            "channel": 11
                        }
                    ]
                ], 
                [
                    103200, 
                    [
                        {
                            "pitch": 67, 
                            "t0": 103200, 
                            "v": 60, 
                            "dur": 60, 
                            "type": "note", 
                            "channel": 11
                        }, 
                        {
                            "pitch": 43, 
                            "t0": 103200, 
                            "v": 60, 
                            "dur": 60, 
                            "type": "note", 
                            "channel": 11
                        }, 
                        {
                            "pitch": 55, 
                            "t0": 103200, 
                            "v": 60, 
                            "dur": 60, 
                            "type": "note", 
                            "channel": 11
                        }, 
                        {
                            "pitch": 31, 
                            "t0": 103200, 
                            "v": 60, 
                            "dur": 60, 
                            "type": "note", 
                            "channel": 11
                        }
                    ]
                ], 
                [
                    103680, 
                    [
                        {
                            "pitch": 69, 
                            "t0": 103680, 
                            "v": 60, 
                            "dur": 60, 
                            "type": "note", 
                            "channel": 11
                        }, 
                        {
                            "pitch": 45, 
                            "t0": 103680, 
                            "v": 60, 
                            "dur": 60, 
                            "type": "note", 
                            "channel": 11
                        }, 
                        {
                            "pitch": 57, 
                            "t0": 103680, 
                            "v": 60, 
                            "dur": 60, 
                            "type": "note", 
                            "channel": 11
                        }, 
                        {
                            "pitch": 33, 
                            "t0": 103680, 
                            "v": 60, 
                            "dur": 60, 
                            "type": "note", 
                            "channel": 11
                        }
                    ]
                ], 
                [
                    103800, 
                    [
                        {
                            "pitch": 69, 
                            "t0": 103800, 
                            "v": 60, 
                            "dur": 60, 
                            "type": "note", 
                            "channel": 11
                        }, 
                        {
                            "pitch": 33, 
                            "t0": 103800, 
                            "v": 60, 
                            "dur": 60, 
                            "type": "note", 
                            "channel": 11
                        }, 
                        {
                            "pitch": 45, 
                            "t0": 103800, 
                            "v": 60, 
                            "dur": 60, 
                            "type": "note", 
                            "channel": 11
                        }, 
                        {
                            "pitch": 57, 
                            "t0": 103800, 
                            "v": 60, 
                            "dur": 60, 
                            "type": "note", 
                            "channel": 11
                        }
                    ]
                ], 
                [
                    103980, 
                    [
                        {
                            "pitch": 69, 
                            "t0": 103980, 
                            "v": 60, 
                            "dur": 60, 
                            "type": "note", 
                            "channel": 11
                        }, 
                        {
                            "pitch": 33, 
                            "t0": 103980, 
                            "v": 60, 
                            "dur": 60, 
                            "type": "note", 
                            "channel": 11
                        }, 
                        {
                            "pitch": 45, 
                            "t0": 103980, 
                            "v": 60, 
                            "dur": 60, 
                            "type": "note", 
                            "channel": 11
                        }, 
                        {
                            "pitch": 57, 
                            "t0": 103980, 
                            "v": 60, 
                            "dur": 60, 
                            "type": "note", 
                            "channel": 11
                        }
                    ]
                ], 
                [
                    104160, 
                    [
                        {
                            "pitch": 69, 
                            "t0": 104160, 
                            "v": 60, 
                            "dur": 60, 
                            "type": "note", 
                            "channel": 11
                        }, 
                        {
                            "pitch": 45, 
                            "t0": 104160, 
                            "v": 60, 
                            "dur": 60, 
                            "type": "note", 
                            "channel": 11
                        }, 
                        {
                            "pitch": 57, 
                            "t0": 104160, 
                            "v": 60, 
                            "dur": 60, 
                            "type": "note", 
                            "channel": 11
                        }, 
                        {
                            "pitch": 33, 
                            "t0": 104160, 
                            "v": 60, 
                            "dur": 60, 
                            "type": "note", 
                            "channel": 11
                        }
                    ]
                ], 
                [
                    104640, 
                    [
                        {
                            "pitch": 45, 
                            "t0": 104640, 
                            "v": 60, 
                            "dur": 120, 
                            "type": "note", 
                            "channel": 11
                        }, 
                        {
                            "pitch": 57, 
                            "t0": 104640, 
                            "v": 60, 
                            "dur": 120, 
                            "type": "note", 
                            "channel": 11
                        }
                    ]
                ], 
                [
                    105120, 
                    [
                        {
                            "pitch": 45, 
                            "t0": 105120, 
                            "v": 60, 
                            "dur": 120, 
                            "type": "note", 
                            "channel": 11
                        }, 
                        {
                            "pitch": 57, 
                            "t0": 105120, 
                            "v": 60, 
                            "dur": 120, 
                            "type": "note", 
                            "channel": 11
                        }
                    ]
                ], 
                [
                    105600, 
                    [
                        {
                            "pitch": 36, 
                            "t0": 105600, 
                            "v": 60, 
                            "dur": 60, 
                            "type": "note", 
                            "channel": 11
                        }, 
                        {
                            "pitch": 48, 
                            "t0": 105600, 
                            "v": 60, 
                            "dur": 60, 
                            "type": "note", 
                            "channel": 11
                        }, 
                        {
                            "pitch": 60, 
                            "t0": 105600, 
                            "v": 60, 
                            "dur": 60, 
                            "type": "note", 
                            "channel": 11
                        }, 
                        {
                            "pitch": 72, 
                            "t0": 105600, 
                            "v": 60, 
                            "dur": 60, 
                            "type": "note", 
                            "channel": 11
                        }
                    ]
                ], 
                [
                    105720, 
                    [
                        {
                            "pitch": 36, 
                            "t0": 105720, 
                            "v": 60, 
                            "dur": 60, 
                            "type": "note", 
                            "channel": 11
                        }, 
                        {
                            "pitch": 72, 
                            "t0": 105720, 
                            "v": 60, 
                            "dur": 60, 
                            "type": "note", 
                            "channel": 11
                        }, 
                        {
                            "pitch": 60, 
                            "t0": 105720, 
                            "v": 60, 
                            "dur": 60, 
                            "type": "note", 
                            "channel": 11
                        }, 
                        {
                            "pitch": 48, 
                            "t0": 105720, 
                            "v": 60, 
                            "dur": 60, 
                            "type": "note", 
                            "channel": 11
                        }
                    ]
                ], 
                [
                    105900, 
                    [
                        {
                            "pitch": 36, 
                            "t0": 105900, 
                            "v": 60, 
                            "dur": 60, 
                            "type": "note", 
                            "channel": 11
                        }, 
                        {
                            "pitch": 72, 
                            "t0": 105900, 
                            "v": 60, 
                            "dur": 60, 
                            "type": "note", 
                            "channel": 11
                        }, 
                        {
                            "pitch": 60, 
                            "t0": 105900, 
                            "v": 60, 
                            "dur": 60, 
                            "type": "note", 
                            "channel": 11
                        }, 
                        {
                            "pitch": 48, 
                            "t0": 105900, 
                            "v": 60, 
                            "dur": 60, 
                            "type": "note", 
                            "channel": 11
                        }
                    ]
                ], 
                [
                    106080, 
                    [
                        {
                            "pitch": 36, 
                            "t0": 106080, 
                            "v": 60, 
                            "dur": 60, 
                            "type": "note", 
                            "channel": 11
                        }, 
                        {
                            "pitch": 48, 
                            "t0": 106080, 
                            "v": 60, 
                            "dur": 60, 
                            "type": "note", 
                            "channel": 11
                        }, 
                        {
                            "pitch": 60, 
                            "t0": 106080, 
                            "v": 60, 
                            "dur": 60, 
                            "type": "note", 
                            "channel": 11
                        }, 
                        {
                            "pitch": 72, 
                            "t0": 106080, 
                            "v": 60, 
                            "dur": 60, 
                            "type": "note", 
                            "channel": 11
                        }
                    ]
                ], 
                [
                    106560, 
                    [
                        {
                            "pitch": 67, 
                            "t0": 106560, 
                            "v": 60, 
                            "dur": 60, 
                            "type": "note", 
                            "channel": 11
                        }, 
                        {
                            "pitch": 43, 
                            "t0": 106560, 
                            "v": 60, 
                            "dur": 60, 
                            "type": "note", 
                            "channel": 11
                        }, 
                        {
                            "pitch": 55, 
                            "t0": 106560, 
                            "v": 60, 
                            "dur": 60, 
                            "type": "note", 
                            "channel": 11
                        }, 
                        {
                            "pitch": 31, 
                            "t0": 106560, 
                            "v": 60, 
                            "dur": 60, 
                            "type": "note", 
                            "channel": 11
                        }
                    ]
                ], 
                [
                    106680, 
                    [
                        {
                            "pitch": 67, 
                            "t0": 106680, 
                            "v": 60, 
                            "dur": 60, 
                            "type": "note", 
                            "channel": 11
                        }, 
                        {
                            "pitch": 31, 
                            "t0": 106680, 
                            "v": 60, 
                            "dur": 60, 
                            "type": "note", 
                            "channel": 11
                        }, 
                        {
                            "pitch": 43, 
                            "t0": 106680, 
                            "v": 60, 
                            "dur": 60, 
                            "type": "note", 
                            "channel": 11
                        }, 
                        {
                            "pitch": 55, 
                            "t0": 106680, 
                            "v": 60, 
                            "dur": 60, 
                            "type": "note", 
                            "channel": 11
                        }
                    ]
                ], 
                [
                    106860, 
                    [
                        {
                            "pitch": 67, 
                            "t0": 106860, 
                            "v": 60, 
                            "dur": 60, 
                            "type": "note", 
                            "channel": 11
                        }, 
                        {
                            "pitch": 31, 
                            "t0": 106860, 
                            "v": 60, 
                            "dur": 60, 
                            "type": "note", 
                            "channel": 11
                        }, 
                        {
                            "pitch": 43, 
                            "t0": 106860, 
                            "v": 60, 
                            "dur": 60, 
                            "type": "note", 
                            "channel": 11
                        }, 
                        {
                            "pitch": 55, 
                            "t0": 106860, 
                            "v": 60, 
                            "dur": 60, 
                            "type": "note", 
                            "channel": 11
                        }
                    ]
                ], 
                [
                    107040, 
                    [
                        {
                            "pitch": 67, 
                            "t0": 107040, 
                            "v": 60, 
                            "dur": 60, 
                            "type": "note", 
                            "channel": 11
                        }, 
                        {
                            "pitch": 55, 
                            "t0": 107040, 
                            "v": 60, 
                            "dur": 60, 
                            "type": "note", 
                            "channel": 11
                        }, 
                        {
                            "pitch": 43, 
                            "t0": 107040, 
                            "v": 60, 
                            "dur": 60, 
                            "type": "note", 
                            "channel": 11
                        }, 
                        {
                            "pitch": 31, 
                            "t0": 107040, 
                            "v": 60, 
                            "dur": 60, 
                            "type": "note", 
                            "channel": 11
                        }
                    ]
                ], 
                [
                    107520, 
                    [
                        {
                            "pitch": 33, 
                            "t0": 107520, 
                            "v": 60, 
                            "dur": 60, 
                            "type": "note", 
                            "channel": 11
                        }, 
                        {
                            "pitch": 45, 
                            "t0": 107520, 
                            "v": 60, 
                            "dur": 60, 
                            "type": "note", 
                            "channel": 11
                        }, 
                        {
                            "pitch": 57, 
                            "t0": 107520, 
                            "v": 60, 
                            "dur": 60, 
                            "type": "note", 
                            "channel": 11
                        }, 
                        {
                            "pitch": 69, 
                            "t0": 107520, 
                            "v": 60, 
                            "dur": 60, 
                            "type": "note", 
                            "channel": 11
                        }
                    ]
                ], 
                [
                    107640, 
                    [
                        {
                            "pitch": 33, 
                            "t0": 107640, 
                            "v": 60, 
                            "dur": 60, 
                            "type": "note", 
                            "channel": 11
                        }, 
                        {
                            "pitch": 69, 
                            "t0": 107640, 
                            "v": 60, 
                            "dur": 60, 
                            "type": "note", 
                            "channel": 11
                        }, 
                        {
                            "pitch": 57, 
                            "t0": 107640, 
                            "v": 60, 
                            "dur": 60, 
                            "type": "note", 
                            "channel": 11
                        }, 
                        {
                            "pitch": 45, 
                            "t0": 107640, 
                            "v": 60, 
                            "dur": 60, 
                            "type": "note", 
                            "channel": 11
                        }
                    ]
                ], 
                [
                    107820, 
                    [
                        {
                            "pitch": 33, 
                            "t0": 107820, 
                            "v": 60, 
                            "dur": 60, 
                            "type": "note", 
                            "channel": 11
                        }, 
                        {
                            "pitch": 69, 
                            "t0": 107820, 
                            "v": 60, 
                            "dur": 60, 
                            "type": "note", 
                            "channel": 11
                        }, 
                        {
                            "pitch": 57, 
                            "t0": 107820, 
                            "v": 60, 
                            "dur": 60, 
                            "type": "note", 
                            "channel": 11
                        }, 
                        {
                            "pitch": 45, 
                            "t0": 107820, 
                            "v": 60, 
                            "dur": 60, 
                            "type": "note", 
                            "channel": 11
                        }
                    ]
                ], 
                [
                    108000, 
                    [
                        {
                            "pitch": 33, 
                            "t0": 108000, 
                            "v": 60, 
                            "dur": 60, 
                            "type": "note", 
                            "channel": 11
                        }, 
                        {
                            "pitch": 45, 
                            "t0": 108000, 
                            "v": 60, 
                            "dur": 60, 
                            "type": "note", 
                            "channel": 11
                        }, 
                        {
                            "pitch": 57, 
                            "t0": 108000, 
                            "v": 60, 
                            "dur": 60, 
                            "type": "note", 
                            "channel": 11
                        }, 
                        {
                            "pitch": 69, 
                            "t0": 108000, 
                            "v": 60, 
                            "dur": 60, 
                            "type": "note", 
                            "channel": 11
                        }
                    ]
                ], 
                [
                    108480, 
                    [
                        {
                            "pitch": 28, 
                            "t0": 108480, 
                            "v": 60, 
                            "dur": 60, 
                            "type": "note", 
                            "channel": 11
                        }, 
                        {
                            "pitch": 40, 
                            "t0": 108480, 
                            "v": 60, 
                            "dur": 60, 
                            "type": "note", 
                            "channel": 11
                        }, 
                        {
                            "pitch": 52, 
                            "t0": 108480, 
                            "v": 60, 
                            "dur": 60, 
                            "type": "note", 
                            "channel": 11
                        }, 
                        {
                            "pitch": 64, 
                            "t0": 108480, 
                            "v": 60, 
                            "dur": 60, 
                            "type": "note", 
                            "channel": 11
                        }
                    ]
                ], 
                [
                    108600, 
                    [
                        {
                            "pitch": 28, 
                            "t0": 108600, 
                            "v": 60, 
                            "dur": 60, 
                            "type": "note", 
                            "channel": 11
                        }, 
                        {
                            "pitch": 64, 
                            "t0": 108600, 
                            "v": 60, 
                            "dur": 60, 
                            "type": "note", 
                            "channel": 11
                        }, 
                        {
                            "pitch": 52, 
                            "t0": 108600, 
                            "v": 60, 
                            "dur": 60, 
                            "type": "note", 
                            "channel": 11
                        }, 
                        {
                            "pitch": 40, 
                            "t0": 108600, 
                            "v": 60, 
                            "dur": 60, 
                            "type": "note", 
                            "channel": 11
                        }
                    ]
                ], 
                [
                    108780, 
                    [
                        {
                            "pitch": 28, 
                            "t0": 108780, 
                            "v": 60, 
                            "dur": 60, 
                            "type": "note", 
                            "channel": 11
                        }, 
                        {
                            "pitch": 64, 
                            "t0": 108780, 
                            "v": 60, 
                            "dur": 60, 
                            "type": "note", 
                            "channel": 11
                        }, 
                        {
                            "pitch": 52, 
                            "t0": 108780, 
                            "v": 60, 
                            "dur": 60, 
                            "type": "note", 
                            "channel": 11
                        }, 
                        {
                            "pitch": 40, 
                            "t0": 108780, 
                            "v": 60, 
                            "dur": 60, 
                            "type": "note", 
                            "channel": 11
                        }
                    ]
                ], 
                [
                    108960, 
                    [
                        {
                            "pitch": 28, 
                            "t0": 108960, 
                            "v": 60, 
                            "dur": 60, 
                            "type": "note", 
                            "channel": 11
                        }, 
                        {
                            "pitch": 40, 
                            "t0": 108960, 
                            "v": 60, 
                            "dur": 60, 
                            "type": "note", 
                            "channel": 11
                        }, 
                        {
                            "pitch": 52, 
                            "t0": 108960, 
                            "v": 60, 
                            "dur": 60, 
                            "type": "note", 
                            "channel": 11
                        }, 
                        {
                            "pitch": 64, 
                            "t0": 108960, 
                            "v": 60, 
                            "dur": 60, 
                            "type": "note", 
                            "channel": 11
                        }
                    ]
                ], 
                [
                    109440, 
                    [
                        {
                            "pitch": 65, 
                            "t0": 109440, 
                            "v": 60, 
                            "dur": 60, 
                            "type": "note", 
                            "channel": 11
                        }, 
                        {
                            "pitch": 41, 
                            "t0": 109440, 
                            "v": 60, 
                            "dur": 60, 
                            "type": "note", 
                            "channel": 11
                        }, 
                        {
                            "pitch": 53, 
                            "t0": 109440, 
                            "v": 60, 
                            "dur": 60, 
                            "type": "note", 
                            "channel": 11
                        }, 
                        {
                            "pitch": 29, 
                            "t0": 109440, 
                            "v": 60, 
                            "dur": 60, 
                            "type": "note", 
                            "channel": 11
                        }
                    ]
                ], 
                [
                    109560, 
                    [
                        {
                            "pitch": 65, 
                            "t0": 109560, 
                            "v": 60, 
                            "dur": 60, 
                            "type": "note", 
                            "channel": 11
                        }, 
                        {
                            "pitch": 29, 
                            "t0": 109560, 
                            "v": 60, 
                            "dur": 60, 
                            "type": "note", 
                            "channel": 11
                        }, 
                        {
                            "pitch": 41, 
                            "t0": 109560, 
                            "v": 60, 
                            "dur": 60, 
                            "type": "note", 
                            "channel": 11
                        }, 
                        {
                            "pitch": 53, 
                            "t0": 109560, 
                            "v": 60, 
                            "dur": 60, 
                            "type": "note", 
                            "channel": 11
                        }
                    ]
                ], 
                [
                    109740, 
                    [
                        {
                            "pitch": 65, 
                            "t0": 109740, 
                            "v": 60, 
                            "dur": 60, 
                            "type": "note", 
                            "channel": 11
                        }, 
                        {
                            "pitch": 29, 
                            "t0": 109740, 
                            "v": 60, 
                            "dur": 60, 
                            "type": "note", 
                            "channel": 11
                        }, 
                        {
                            "pitch": 41, 
                            "t0": 109740, 
                            "v": 60, 
                            "dur": 60, 
                            "type": "note", 
                            "channel": 11
                        }, 
                        {
                            "pitch": 53, 
                            "t0": 109740, 
                            "v": 60, 
                            "dur": 60, 
                            "type": "note", 
                            "channel": 11
                        }
                    ]
                ], 
                [
                    109920, 
                    [
                        {
                            "pitch": 65, 
                            "t0": 109920, 
                            "v": 60, 
                            "dur": 60, 
                            "type": "note", 
                            "channel": 11
                        }, 
                        {
                            "pitch": 53, 
                            "t0": 109920, 
                            "v": 60, 
                            "dur": 60, 
                            "type": "note", 
                            "channel": 11
                        }, 
                        {
                            "pitch": 41, 
                            "t0": 109920, 
                            "v": 60, 
                            "dur": 60, 
                            "type": "note", 
                            "channel": 11
                        }, 
                        {
                            "pitch": 29, 
                            "t0": 109920, 
                            "v": 60, 
                            "dur": 60, 
                            "type": "note", 
                            "channel": 11
                        }
                    ]
                ], 
                [
                    110400, 
                    [
                        {
                            "pitch": 67, 
                            "t0": 110400, 
                            "v": 60, 
                            "dur": 60, 
                            "type": "note", 
                            "channel": 11
                        }, 
                        {
                            "pitch": 43, 
                            "t0": 110400, 
                            "v": 60, 
                            "dur": 60, 
                            "type": "note", 
                            "channel": 11
                        }, 
                        {
                            "pitch": 55, 
                            "t0": 110400, 
                            "v": 60, 
                            "dur": 60, 
                            "type": "note", 
                            "channel": 11
                        }, 
                        {
                            "pitch": 31, 
                            "t0": 110400, 
                            "v": 60, 
                            "dur": 60, 
                            "type": "note", 
                            "channel": 11
                        }
                    ]
                ], 
                [
                    110520, 
                    [
                        {
                            "pitch": 67, 
                            "t0": 110520, 
                            "v": 60, 
                            "dur": 60, 
                            "type": "note", 
                            "channel": 11
                        }, 
                        {
                            "pitch": 31, 
                            "t0": 110520, 
                            "v": 60, 
                            "dur": 60, 
                            "type": "note", 
                            "channel": 11
                        }, 
                        {
                            "pitch": 43, 
                            "t0": 110520, 
                            "v": 60, 
                            "dur": 60, 
                            "type": "note", 
                            "channel": 11
                        }, 
                        {
                            "pitch": 55, 
                            "t0": 110520, 
                            "v": 60, 
                            "dur": 60, 
                            "type": "note", 
                            "channel": 11
                        }
                    ]
                ], 
                [
                    110700, 
                    [
                        {
                            "pitch": 67, 
                            "t0": 110700, 
                            "v": 60, 
                            "dur": 60, 
                            "type": "note", 
                            "channel": 11
                        }, 
                        {
                            "pitch": 31, 
                            "t0": 110700, 
                            "v": 60, 
                            "dur": 60, 
                            "type": "note", 
                            "channel": 11
                        }, 
                        {
                            "pitch": 43, 
                            "t0": 110700, 
                            "v": 60, 
                            "dur": 60, 
                            "type": "note", 
                            "channel": 11
                        }, 
                        {
                            "pitch": 55, 
                            "t0": 110700, 
                            "v": 60, 
                            "dur": 60, 
                            "type": "note", 
                            "channel": 11
                        }
                    ]
                ], 
                [
                    110880, 
                    [
                        {
                            "pitch": 67, 
                            "t0": 110880, 
                            "v": 60, 
                            "dur": 60, 
                            "type": "note", 
                            "channel": 11
                        }, 
                        {
                            "pitch": 43, 
                            "t0": 110880, 
                            "v": 60, 
                            "dur": 60, 
                            "type": "note", 
                            "channel": 11
                        }, 
                        {
                            "pitch": 55, 
                            "t0": 110880, 
                            "v": 60, 
                            "dur": 60, 
                            "type": "note", 
                            "channel": 11
                        }, 
                        {
                            "pitch": 31, 
                            "t0": 110880, 
                            "v": 60, 
                            "dur": 60, 
                            "type": "note", 
                            "channel": 11
                        }
                    ]
                ], 
                [
                    111360, 
                    [
                        {
                            "pitch": 69, 
                            "t0": 111360, 
                            "v": 60, 
                            "dur": 60, 
                            "type": "note", 
                            "channel": 11
                        }, 
                        {
                            "pitch": 57, 
                            "t0": 111360, 
                            "v": 60, 
                            "dur": 60, 
                            "type": "note", 
                            "channel": 11
                        }, 
                        {
                            "pitch": 45, 
                            "t0": 111360, 
                            "v": 60, 
                            "dur": 60, 
                            "type": "note", 
                            "channel": 11
                        }, 
                        {
                            "pitch": 33, 
                            "t0": 111360, 
                            "v": 60, 
                            "dur": 60, 
                            "type": "note", 
                            "channel": 11
                        }
                    ]
                ], 
                [
                    111480, 
                    [
                        {
                            "pitch": 69, 
                            "t0": 111480, 
                            "v": 60, 
                            "dur": 60, 
                            "type": "note", 
                            "channel": 11
                        }, 
                        {
                            "pitch": 33, 
                            "t0": 111480, 
                            "v": 60, 
                            "dur": 60, 
                            "type": "note", 
                            "channel": 11
                        }, 
                        {
                            "pitch": 45, 
                            "t0": 111480, 
                            "v": 60, 
                            "dur": 60, 
                            "type": "note", 
                            "channel": 11
                        }, 
                        {
                            "pitch": 57, 
                            "t0": 111480, 
                            "v": 60, 
                            "dur": 60, 
                            "type": "note", 
                            "channel": 11
                        }
                    ]
                ], 
                [
                    111660, 
                    [
                        {
                            "pitch": 69, 
                            "t0": 111660, 
                            "v": 60, 
                            "dur": 60, 
                            "type": "note", 
                            "channel": 11
                        }, 
                        {
                            "pitch": 33, 
                            "t0": 111660, 
                            "v": 60, 
                            "dur": 60, 
                            "type": "note", 
                            "channel": 11
                        }, 
                        {
                            "pitch": 45, 
                            "t0": 111660, 
                            "v": 60, 
                            "dur": 60, 
                            "type": "note", 
                            "channel": 11
                        }, 
                        {
                            "pitch": 57, 
                            "t0": 111660, 
                            "v": 60, 
                            "dur": 60, 
                            "type": "note", 
                            "channel": 11
                        }
                    ]
                ], 
                [
                    111840, 
                    [
                        {
                            "pitch": 69, 
                            "t0": 111840, 
                            "v": 60, 
                            "dur": 60, 
                            "type": "note", 
                            "channel": 11
                        }, 
                        {
                            "pitch": 45, 
                            "t0": 111840, 
                            "v": 60, 
                            "dur": 60, 
                            "type": "note", 
                            "channel": 11
                        }, 
                        {
                            "pitch": 57, 
                            "t0": 111840, 
                            "v": 60, 
                            "dur": 60, 
                            "type": "note", 
                            "channel": 11
                        }, 
                        {
                            "pitch": 33, 
                            "t0": 111840, 
                            "v": 60, 
                            "dur": 60, 
                            "type": "note", 
                            "channel": 11
                        }
                    ]
                ], 
                [
                    112320, 
                    [
                        {
                            "pitch": 45, 
                            "t0": 112320, 
                            "v": 60, 
                            "dur": 120, 
                            "type": "note", 
                            "channel": 11
                        }, 
                        {
                            "pitch": 57, 
                            "t0": 112320, 
                            "v": 60, 
                            "dur": 120, 
                            "type": "note", 
                            "channel": 11
                        }
                    ]
                ], 
                [
                    112800, 
                    [
                        {
                            "pitch": 45, 
                            "t0": 112800, 
                            "v": 60, 
                            "dur": 120, 
                            "type": "note", 
                            "channel": 11
                        }, 
                        {
                            "pitch": 57, 
                            "t0": 112800, 
                            "v": 60, 
                            "dur": 120, 
                            "type": "note", 
                            "channel": 11
                        }
                    ]
                ], 
                [
                    201600, 
                    [
                        {
                            "pitch": 72, 
                            "t0": 201600, 
                            "v": 60, 
                            "dur": 60, 
                            "type": "note", 
                            "channel": 11
                        }, 
                        {
                            "pitch": 60, 
                            "t0": 201600, 
                            "v": 60, 
                            "dur": 60, 
                            "type": "note", 
                            "channel": 11
                        }, 
                        {
                            "pitch": 48, 
                            "t0": 201600, 
                            "v": 60, 
                            "dur": 60, 
                            "type": "note", 
                            "channel": 11
                        }, 
                        {
                            "pitch": 36, 
                            "t0": 201600, 
                            "v": 60, 
                            "dur": 60, 
                            "type": "note", 
                            "channel": 11
                        }
                    ]
                ], 
                [
                    201720, 
                    [
                        {
                            "pitch": 72, 
                            "t0": 201720, 
                            "v": 60, 
                            "dur": 60, 
                            "type": "note", 
                            "channel": 11
                        }, 
                        {
                            "pitch": 36, 
                            "t0": 201720, 
                            "v": 60, 
                            "dur": 60, 
                            "type": "note", 
                            "channel": 11
                        }, 
                        {
                            "pitch": 48, 
                            "t0": 201720, 
                            "v": 60, 
                            "dur": 60, 
                            "type": "note", 
                            "channel": 11
                        }, 
                        {
                            "pitch": 60, 
                            "t0": 201720, 
                            "v": 60, 
                            "dur": 60, 
                            "type": "note", 
                            "channel": 11
                        }
                    ]
                ], 
                [
                    201900, 
                    [
                        {
                            "pitch": 72, 
                            "t0": 201900, 
                            "v": 60, 
                            "dur": 60, 
                            "type": "note", 
                            "channel": 11
                        }, 
                        {
                            "pitch": 36, 
                            "t0": 201900, 
                            "v": 60, 
                            "dur": 60, 
                            "type": "note", 
                            "channel": 11
                        }, 
                        {
                            "pitch": 48, 
                            "t0": 201900, 
                            "v": 60, 
                            "dur": 60, 
                            "type": "note", 
                            "channel": 11
                        }, 
                        {
                            "pitch": 60, 
                            "t0": 201900, 
                            "v": 60, 
                            "dur": 60, 
                            "type": "note", 
                            "channel": 11
                        }
                    ]
                ], 
                [
                    202080, 
                    [
                        {
                            "pitch": 72, 
                            "t0": 202080, 
                            "v": 60, 
                            "dur": 60, 
                            "type": "note", 
                            "channel": 11
                        }, 
                        {
                            "pitch": 60, 
                            "t0": 202080, 
                            "v": 60, 
                            "dur": 60, 
                            "type": "note", 
                            "channel": 11
                        }, 
                        {
                            "pitch": 48, 
                            "t0": 202080, 
                            "v": 60, 
                            "dur": 60, 
                            "type": "note", 
                            "channel": 11
                        }, 
                        {
                            "pitch": 36, 
                            "t0": 202080, 
                            "v": 60, 
                            "dur": 60, 
                            "type": "note", 
                            "channel": 11
                        }
                    ]
                ], 
                [
                    202560, 
                    [
                        {
                            "pitch": 48, 
                            "t0": 202560, 
                            "v": 60, 
                            "dur": 120, 
                            "type": "note", 
                            "channel": 11
                        }, 
                        {
                            "pitch": 60, 
                            "t0": 202560, 
                            "v": 60, 
                            "dur": 120, 
                            "type": "note", 
                            "channel": 11
                        }
                    ]
                ], 
                [
                    203040, 
                    [
                        {
                            "pitch": 60, 
                            "t0": 203040, 
                            "v": 60, 
                            "dur": 120, 
                            "type": "note", 
                            "channel": 11
                        }, 
                        {
                            "pitch": 48, 
                            "t0": 203040, 
                            "v": 60, 
                            "dur": 120, 
                            "type": "note", 
                            "channel": 11
                        }
                    ]
                ], 
                [
                    203520, 
                    [
                        {
                            "pitch": 67, 
                            "t0": 203520, 
                            "v": 60, 
                            "dur": 60, 
                            "type": "note", 
                            "channel": 11
                        }, 
                        {
                            "pitch": 55, 
                            "t0": 203520, 
                            "v": 60, 
                            "dur": 60, 
                            "type": "note", 
                            "channel": 11
                        }, 
                        {
                            "pitch": 43, 
                            "t0": 203520, 
                            "v": 60, 
                            "dur": 60, 
                            "type": "note", 
                            "channel": 11
                        }, 
                        {
                            "pitch": 31, 
                            "t0": 203520, 
                            "v": 60, 
                            "dur": 60, 
                            "type": "note", 
                            "channel": 11
                        }
                    ]
                ], 
                [
                    203640, 
                    [
                        {
                            "pitch": 67, 
                            "t0": 203640, 
                            "v": 60, 
                            "dur": 60, 
                            "type": "note", 
                            "channel": 11
                        }, 
                        {
                            "pitch": 31, 
                            "t0": 203640, 
                            "v": 60, 
                            "dur": 60, 
                            "type": "note", 
                            "channel": 11
                        }, 
                        {
                            "pitch": 43, 
                            "t0": 203640, 
                            "v": 60, 
                            "dur": 60, 
                            "type": "note", 
                            "channel": 11
                        }, 
                        {
                            "pitch": 55, 
                            "t0": 203640, 
                            "v": 60, 
                            "dur": 60, 
                            "type": "note", 
                            "channel": 11
                        }
                    ]
                ], 
                [
                    203820, 
                    [
                        {
                            "pitch": 67, 
                            "t0": 203820, 
                            "v": 60, 
                            "dur": 60, 
                            "type": "note", 
                            "channel": 11
                        }, 
                        {
                            "pitch": 31, 
                            "t0": 203820, 
                            "v": 60, 
                            "dur": 60, 
                            "type": "note", 
                            "channel": 11
                        }, 
                        {
                            "pitch": 43, 
                            "t0": 203820, 
                            "v": 60, 
                            "dur": 60, 
                            "type": "note", 
                            "channel": 11
                        }, 
                        {
                            "pitch": 55, 
                            "t0": 203820, 
                            "v": 60, 
                            "dur": 60, 
                            "type": "note", 
                            "channel": 11
                        }
                    ]
                ], 
                [
                    204000, 
                    [
                        {
                            "pitch": 67, 
                            "t0": 204000, 
                            "v": 60, 
                            "dur": 60, 
                            "type": "note", 
                            "channel": 11
                        }, 
                        {
                            "pitch": 43, 
                            "t0": 204000, 
                            "v": 60, 
                            "dur": 60, 
                            "type": "note", 
                            "channel": 11
                        }, 
                        {
                            "pitch": 55, 
                            "t0": 204000, 
                            "v": 60, 
                            "dur": 60, 
                            "type": "note", 
                            "channel": 11
                        }, 
                        {
                            "pitch": 31, 
                            "t0": 204000, 
                            "v": 60, 
                            "dur": 60, 
                            "type": "note", 
                            "channel": 11
                        }
                    ]
                ], 
                [
                    204480, 
                    [
                        {
                            "pitch": 55, 
                            "t0": 204480, 
                            "v": 60, 
                            "dur": 120, 
                            "type": "note", 
                            "channel": 11
                        }, 
                        {
                            "pitch": 43, 
                            "t0": 204480, 
                            "v": 60, 
                            "dur": 120, 
                            "type": "note", 
                            "channel": 11
                        }
                    ]
                ], 
                [
                    204960, 
                    [
                        {
                            "pitch": 43, 
                            "t0": 204960, 
                            "v": 60, 
                            "dur": 120, 
                            "type": "note", 
                            "channel": 11
                        }, 
                        {
                            "pitch": 55, 
                            "t0": 204960, 
                            "v": 60, 
                            "dur": 120, 
                            "type": "note", 
                            "channel": 11
                        }
                    ]
                ], 
                [
                    205440, 
                    [
                        {
                            "pitch": 69, 
                            "t0": 205440, 
                            "v": 60, 
                            "dur": 60, 
                            "type": "note", 
                            "channel": 11
                        }, 
                        {
                            "pitch": 45, 
                            "t0": 205440, 
                            "v": 60, 
                            "dur": 60, 
                            "type": "note", 
                            "channel": 11
                        }, 
                        {
                            "pitch": 57, 
                            "t0": 205440, 
                            "v": 60, 
                            "dur": 60, 
                            "type": "note", 
                            "channel": 11
                        }, 
                        {
                            "pitch": 33, 
                            "t0": 205440, 
                            "v": 60, 
                            "dur": 60, 
                            "type": "note", 
                            "channel": 11
                        }
                    ]
                ], 
                [
                    205560, 
                    [
                        {
                            "pitch": 69, 
                            "t0": 205560, 
                            "v": 60, 
                            "dur": 60, 
                            "type": "note", 
                            "channel": 11
                        }, 
                        {
                            "pitch": 33, 
                            "t0": 205560, 
                            "v": 60, 
                            "dur": 60, 
                            "type": "note", 
                            "channel": 11
                        }, 
                        {
                            "pitch": 45, 
                            "t0": 205560, 
                            "v": 60, 
                            "dur": 60, 
                            "type": "note", 
                            "channel": 11
                        }, 
                        {
                            "pitch": 57, 
                            "t0": 205560, 
                            "v": 60, 
                            "dur": 60, 
                            "type": "note", 
                            "channel": 11
                        }
                    ]
                ], 
                [
                    205740, 
                    [
                        {
                            "pitch": 69, 
                            "t0": 205740, 
                            "v": 60, 
                            "dur": 60, 
                            "type": "note", 
                            "channel": 11
                        }, 
                        {
                            "pitch": 33, 
                            "t0": 205740, 
                            "v": 60, 
                            "dur": 60, 
                            "type": "note", 
                            "channel": 11
                        }, 
                        {
                            "pitch": 45, 
                            "t0": 205740, 
                            "v": 60, 
                            "dur": 60, 
                            "type": "note", 
                            "channel": 11
                        }, 
                        {
                            "pitch": 57, 
                            "t0": 205740, 
                            "v": 60, 
                            "dur": 60, 
                            "type": "note", 
                            "channel": 11
                        }
                    ]
                ], 
                [
                    205920, 
                    [
                        {
                            "pitch": 69, 
                            "t0": 205920, 
                            "v": 60, 
                            "dur": 60, 
                            "type": "note", 
                            "channel": 11
                        }, 
                        {
                            "pitch": 57, 
                            "t0": 205920, 
                            "v": 60, 
                            "dur": 60, 
                            "type": "note", 
                            "channel": 11
                        }, 
                        {
                            "pitch": 45, 
                            "t0": 205920, 
                            "v": 60, 
                            "dur": 60, 
                            "type": "note", 
                            "channel": 11
                        }, 
                        {
                            "pitch": 33, 
                            "t0": 205920, 
                            "v": 60, 
                            "dur": 60, 
                            "type": "note", 
                            "channel": 11
                        }
                    ]
                ], 
                [
                    206400, 
                    [
                        {
                            "pitch": 57, 
                            "t0": 206400, 
                            "v": 60, 
                            "dur": 120, 
                            "type": "note", 
                            "channel": 11
                        }, 
                        {
                            "pitch": 45, 
                            "t0": 206400, 
                            "v": 60, 
                            "dur": 120, 
                            "type": "note", 
                            "channel": 11
                        }
                    ]
                ], 
                [
                    206880, 
                    [
                        {
                            "pitch": 45, 
                            "t0": 206880, 
                            "v": 60, 
                            "dur": 120, 
                            "type": "note", 
                            "channel": 11
                        }, 
                        {
                            "pitch": 57, 
                            "t0": 206880, 
                            "v": 60, 
                            "dur": 120, 
                            "type": "note", 
                            "channel": 11
                        }
                    ]
                ], 
                [
                    207360, 
                    [
                        {
                            "pitch": 64, 
                            "t0": 207360, 
                            "v": 60, 
                            "dur": 60, 
                            "type": "note", 
                            "channel": 11
                        }, 
                        {
                            "pitch": 40, 
                            "t0": 207360, 
                            "v": 60, 
                            "dur": 60, 
                            "type": "note", 
                            "channel": 11
                        }, 
                        {
                            "pitch": 52, 
                            "t0": 207360, 
                            "v": 60, 
                            "dur": 60, 
                            "type": "note", 
                            "channel": 11
                        }, 
                        {
                            "pitch": 28, 
                            "t0": 207360, 
                            "v": 60, 
                            "dur": 60, 
                            "type": "note", 
                            "channel": 11
                        }
                    ]
                ], 
                [
                    207480, 
                    [
                        {
                            "pitch": 64, 
                            "t0": 207480, 
                            "v": 60, 
                            "dur": 60, 
                            "type": "note", 
                            "channel": 11
                        }, 
                        {
                            "pitch": 28, 
                            "t0": 207480, 
                            "v": 60, 
                            "dur": 60, 
                            "type": "note", 
                            "channel": 11
                        }, 
                        {
                            "pitch": 40, 
                            "t0": 207480, 
                            "v": 60, 
                            "dur": 60, 
                            "type": "note", 
                            "channel": 11
                        }, 
                        {
                            "pitch": 52, 
                            "t0": 207480, 
                            "v": 60, 
                            "dur": 60, 
                            "type": "note", 
                            "channel": 11
                        }
                    ]
                ], 
                [
                    207660, 
                    [
                        {
                            "pitch": 64, 
                            "t0": 207660, 
                            "v": 60, 
                            "dur": 60, 
                            "type": "note", 
                            "channel": 11
                        }, 
                        {
                            "pitch": 28, 
                            "t0": 207660, 
                            "v": 60, 
                            "dur": 60, 
                            "type": "note", 
                            "channel": 11
                        }, 
                        {
                            "pitch": 40, 
                            "t0": 207660, 
                            "v": 60, 
                            "dur": 60, 
                            "type": "note", 
                            "channel": 11
                        }, 
                        {
                            "pitch": 52, 
                            "t0": 207660, 
                            "v": 60, 
                            "dur": 60, 
                            "type": "note", 
                            "channel": 11
                        }
                    ]
                ], 
                [
                    207840, 
                    [
                        {
                            "pitch": 64, 
                            "t0": 207840, 
                            "v": 60, 
                            "dur": 60, 
                            "type": "note", 
                            "channel": 11
                        }, 
                        {
                            "pitch": 40, 
                            "t0": 207840, 
                            "v": 60, 
                            "dur": 60, 
                            "type": "note", 
                            "channel": 11
                        }, 
                        {
                            "pitch": 52, 
                            "t0": 207840, 
                            "v": 60, 
                            "dur": 60, 
                            "type": "note", 
                            "channel": 11
                        }, 
                        {
                            "pitch": 28, 
                            "t0": 207840, 
                            "v": 60, 
                            "dur": 60, 
                            "type": "note", 
                            "channel": 11
                        }
                    ]
                ], 
                [
                    208320, 
                    [
                        {
                            "pitch": 40, 
                            "t0": 208320, 
                            "v": 60, 
                            "dur": 120, 
                            "type": "note", 
                            "channel": 11
                        }, 
                        {
                            "pitch": 52, 
                            "t0": 208320, 
                            "v": 60, 
                            "dur": 120, 
                            "type": "note", 
                            "channel": 11
                        }
                    ]
                ], 
                [
                    208800, 
                    [
                        {
                            "pitch": 40, 
                            "t0": 208800, 
                            "v": 60, 
                            "dur": 120, 
                            "type": "note", 
                            "channel": 11
                        }, 
                        {
                            "pitch": 52, 
                            "t0": 208800, 
                            "v": 60, 
                            "dur": 120, 
                            "type": "note", 
                            "channel": 11
                        }
                    ]
                ], 
                [
                    209280, 
                    [
                        {
                            "pitch": 65, 
                            "t0": 209280, 
                            "v": 60, 
                            "dur": 60, 
                            "type": "note", 
                            "channel": 11
                        }, 
                        {
                            "pitch": 41, 
                            "t0": 209280, 
                            "v": 60, 
                            "dur": 60, 
                            "type": "note", 
                            "channel": 11
                        }, 
                        {
                            "pitch": 53, 
                            "t0": 209280, 
                            "v": 60, 
                            "dur": 60, 
                            "type": "note", 
                            "channel": 11
                        }, 
                        {
                            "pitch": 29, 
                            "t0": 209280, 
                            "v": 60, 
                            "dur": 60, 
                            "type": "note", 
                            "channel": 11
                        }
                    ]
                ], 
                [
                    209400, 
                    [
                        {
                            "pitch": 65, 
                            "t0": 209400, 
                            "v": 60, 
                            "dur": 60, 
                            "type": "note", 
                            "channel": 11
                        }, 
                        {
                            "pitch": 29, 
                            "t0": 209400, 
                            "v": 60, 
                            "dur": 60, 
                            "type": "note", 
                            "channel": 11
                        }, 
                        {
                            "pitch": 41, 
                            "t0": 209400, 
                            "v": 60, 
                            "dur": 60, 
                            "type": "note", 
                            "channel": 11
                        }, 
                        {
                            "pitch": 53, 
                            "t0": 209400, 
                            "v": 60, 
                            "dur": 60, 
                            "type": "note", 
                            "channel": 11
                        }
                    ]
                ], 
                [
                    209580, 
                    [
                        {
                            "pitch": 65, 
                            "t0": 209580, 
                            "v": 60, 
                            "dur": 60, 
                            "type": "note", 
                            "channel": 11
                        }, 
                        {
                            "pitch": 29, 
                            "t0": 209580, 
                            "v": 60, 
                            "dur": 60, 
                            "type": "note", 
                            "channel": 11
                        }, 
                        {
                            "pitch": 41, 
                            "t0": 209580, 
                            "v": 60, 
                            "dur": 60, 
                            "type": "note", 
                            "channel": 11
                        }, 
                        {
                            "pitch": 53, 
                            "t0": 209580, 
                            "v": 60, 
                            "dur": 60, 
                            "type": "note", 
                            "channel": 11
                        }
                    ]
                ], 
                [
                    209760, 
                    [
                        {
                            "pitch": 65, 
                            "t0": 209760, 
                            "v": 60, 
                            "dur": 60, 
                            "type": "note", 
                            "channel": 11
                        }, 
                        {
                            "pitch": 41, 
                            "t0": 209760, 
                            "v": 60, 
                            "dur": 60, 
                            "type": "note", 
                            "channel": 11
                        }, 
                        {
                            "pitch": 53, 
                            "t0": 209760, 
                            "v": 60, 
                            "dur": 60, 
                            "type": "note", 
                            "channel": 11
                        }, 
                        {
                            "pitch": 29, 
                            "t0": 209760, 
                            "v": 60, 
                            "dur": 60, 
                            "type": "note", 
                            "channel": 11
                        }
                    ]
                ], 
                [
                    210240, 
                    [
                        {
                            "pitch": 67, 
                            "t0": 210240, 
                            "v": 60, 
                            "dur": 60, 
                            "type": "note", 
                            "channel": 11
                        }, 
                        {
                            "pitch": 43, 
                            "t0": 210240, 
                            "v": 60, 
                            "dur": 60, 
                            "type": "note", 
                            "channel": 11
                        }, 
                        {
                            "pitch": 55, 
                            "t0": 210240, 
                            "v": 60, 
                            "dur": 60, 
                            "type": "note", 
                            "channel": 11
                        }, 
                        {
                            "pitch": 31, 
                            "t0": 210240, 
                            "v": 60, 
                            "dur": 60, 
                            "type": "note", 
                            "channel": 11
                        }
                    ]
                ], 
                [
                    210360, 
                    [
                        {
                            "pitch": 67, 
                            "t0": 210360, 
                            "v": 60, 
                            "dur": 60, 
                            "type": "note", 
                            "channel": 11
                        }, 
                        {
                            "pitch": 31, 
                            "t0": 210360, 
                            "v": 60, 
                            "dur": 60, 
                            "type": "note", 
                            "channel": 11
                        }, 
                        {
                            "pitch": 43, 
                            "t0": 210360, 
                            "v": 60, 
                            "dur": 60, 
                            "type": "note", 
                            "channel": 11
                        }, 
                        {
                            "pitch": 55, 
                            "t0": 210360, 
                            "v": 60, 
                            "dur": 60, 
                            "type": "note", 
                            "channel": 11
                        }
                    ]
                ], 
                [
                    210540, 
                    [
                        {
                            "pitch": 67, 
                            "t0": 210540, 
                            "v": 60, 
                            "dur": 60, 
                            "type": "note", 
                            "channel": 11
                        }, 
                        {
                            "pitch": 31, 
                            "t0": 210540, 
                            "v": 60, 
                            "dur": 60, 
                            "type": "note", 
                            "channel": 11
                        }, 
                        {
                            "pitch": 43, 
                            "t0": 210540, 
                            "v": 60, 
                            "dur": 60, 
                            "type": "note", 
                            "channel": 11
                        }, 
                        {
                            "pitch": 55, 
                            "t0": 210540, 
                            "v": 60, 
                            "dur": 60, 
                            "type": "note", 
                            "channel": 11
                        }
                    ]
                ], 
                [
                    210720, 
                    [
                        {
                            "pitch": 67, 
                            "t0": 210720, 
                            "v": 60, 
                            "dur": 60, 
                            "type": "note", 
                            "channel": 11
                        }, 
                        {
                            "pitch": 43, 
                            "t0": 210720, 
                            "v": 60, 
                            "dur": 60, 
                            "type": "note", 
                            "channel": 11
                        }, 
                        {
                            "pitch": 55, 
                            "t0": 210720, 
                            "v": 60, 
                            "dur": 60, 
                            "type": "note", 
                            "channel": 11
                        }, 
                        {
                            "pitch": 31, 
                            "t0": 210720, 
                            "v": 60, 
                            "dur": 60, 
                            "type": "note", 
                            "channel": 11
                        }
                    ]
                ], 
                [
                    211200, 
                    [
                        {
                            "pitch": 69, 
                            "t0": 211200, 
                            "v": 60, 
                            "dur": 60, 
                            "type": "note", 
                            "channel": 11
                        }, 
                        {
                            "pitch": 45, 
                            "t0": 211200, 
                            "v": 60, 
                            "dur": 60, 
                            "type": "note", 
                            "channel": 11
                        }, 
                        {
                            "pitch": 57, 
                            "t0": 211200, 
                            "v": 60, 
                            "dur": 60, 
                            "type": "note", 
                            "channel": 11
                        }, 
                        {
                            "pitch": 33, 
                            "t0": 211200, 
                            "v": 60, 
                            "dur": 60, 
                            "type": "note", 
                            "channel": 11
                        }
                    ]
                ], 
                [
                    211320, 
                    [
                        {
                            "pitch": 69, 
                            "t0": 211320, 
                            "v": 60, 
                            "dur": 60, 
                            "type": "note", 
                            "channel": 11
                        }, 
                        {
                            "pitch": 33, 
                            "t0": 211320, 
                            "v": 60, 
                            "dur": 60, 
                            "type": "note", 
                            "channel": 11
                        }, 
                        {
                            "pitch": 45, 
                            "t0": 211320, 
                            "v": 60, 
                            "dur": 60, 
                            "type": "note", 
                            "channel": 11
                        }, 
                        {
                            "pitch": 57, 
                            "t0": 211320, 
                            "v": 60, 
                            "dur": 60, 
                            "type": "note", 
                            "channel": 11
                        }
                    ]
                ], 
                [
                    211500, 
                    [
                        {
                            "pitch": 69, 
                            "t0": 211500, 
                            "v": 60, 
                            "dur": 60, 
                            "type": "note", 
                            "channel": 11
                        }, 
                        {
                            "pitch": 33, 
                            "t0": 211500, 
                            "v": 60, 
                            "dur": 60, 
                            "type": "note", 
                            "channel": 11
                        }, 
                        {
                            "pitch": 45, 
                            "t0": 211500, 
                            "v": 60, 
                            "dur": 60, 
                            "type": "note", 
                            "channel": 11
                        }, 
                        {
                            "pitch": 57, 
                            "t0": 211500, 
                            "v": 60, 
                            "dur": 60, 
                            "type": "note", 
                            "channel": 11
                        }
                    ]
                ], 
                [
                    211680, 
                    [
                        {
                            "pitch": 69, 
                            "t0": 211680, 
                            "v": 60, 
                            "dur": 60, 
                            "type": "note", 
                            "channel": 11
                        }, 
                        {
                            "pitch": 45, 
                            "t0": 211680, 
                            "v": 60, 
                            "dur": 60, 
                            "type": "note", 
                            "channel": 11
                        }, 
                        {
                            "pitch": 57, 
                            "t0": 211680, 
                            "v": 60, 
                            "dur": 60, 
                            "type": "note", 
                            "channel": 11
                        }, 
                        {
                            "pitch": 33, 
                            "t0": 211680, 
                            "v": 60, 
                            "dur": 60, 
                            "type": "note", 
                            "channel": 11
                        }
                    ]
                ], 
                [
                    212160, 
                    [
                        {
                            "pitch": 45, 
                            "t0": 212160, 
                            "v": 60, 
                            "dur": 120, 
                            "type": "note", 
                            "channel": 11
                        }, 
                        {
                            "pitch": 57, 
                            "t0": 212160, 
                            "v": 60, 
                            "dur": 120, 
                            "type": "note", 
                            "channel": 11
                        }
                    ]
                ], 
                [
                    212640, 
                    [
                        {
                            "pitch": 45, 
                            "t0": 212640, 
                            "v": 60, 
                            "dur": 120, 
                            "type": "note", 
                            "channel": 11
                        }, 
                        {
                            "pitch": 57, 
                            "t0": 212640, 
                            "v": 60, 
                            "dur": 120, 
                            "type": "note", 
                            "channel": 11
                        }
                    ]
                ], 
                [
                    213120, 
                    [
                        {
                            "pitch": 36, 
                            "t0": 213120, 
                            "v": 60, 
                            "dur": 60, 
                            "type": "note", 
                            "channel": 11
                        }, 
                        {
                            "pitch": 48, 
                            "t0": 213120, 
                            "v": 60, 
                            "dur": 60, 
                            "type": "note", 
                            "channel": 11
                        }, 
                        {
                            "pitch": 60, 
                            "t0": 213120, 
                            "v": 60, 
                            "dur": 60, 
                            "type": "note", 
                            "channel": 11
                        }, 
                        {
                            "pitch": 72, 
                            "t0": 213120, 
                            "v": 60, 
                            "dur": 60, 
                            "type": "note", 
                            "channel": 11
                        }
                    ]
                ], 
                [
                    213240, 
                    [
                        {
                            "pitch": 36, 
                            "t0": 213240, 
                            "v": 60, 
                            "dur": 60, 
                            "type": "note", 
                            "channel": 11
                        }, 
                        {
                            "pitch": 72, 
                            "t0": 213240, 
                            "v": 60, 
                            "dur": 60, 
                            "type": "note", 
                            "channel": 11
                        }, 
                        {
                            "pitch": 60, 
                            "t0": 213240, 
                            "v": 60, 
                            "dur": 60, 
                            "type": "note", 
                            "channel": 11
                        }, 
                        {
                            "pitch": 48, 
                            "t0": 213240, 
                            "v": 60, 
                            "dur": 60, 
                            "type": "note", 
                            "channel": 11
                        }
                    ]
                ], 
                [
                    213420, 
                    [
                        {
                            "pitch": 36, 
                            "t0": 213420, 
                            "v": 60, 
                            "dur": 60, 
                            "type": "note", 
                            "channel": 11
                        }, 
                        {
                            "pitch": 72, 
                            "t0": 213420, 
                            "v": 60, 
                            "dur": 60, 
                            "type": "note", 
                            "channel": 11
                        }, 
                        {
                            "pitch": 60, 
                            "t0": 213420, 
                            "v": 60, 
                            "dur": 60, 
                            "type": "note", 
                            "channel": 11
                        }, 
                        {
                            "pitch": 48, 
                            "t0": 213420, 
                            "v": 60, 
                            "dur": 60, 
                            "type": "note", 
                            "channel": 11
                        }
                    ]
                ], 
                [
                    213600, 
                    [
                        {
                            "pitch": 36, 
                            "t0": 213600, 
                            "v": 60, 
                            "dur": 60, 
                            "type": "note", 
                            "channel": 11
                        }, 
                        {
                            "pitch": 48, 
                            "t0": 213600, 
                            "v": 60, 
                            "dur": 60, 
                            "type": "note", 
                            "channel": 11
                        }, 
                        {
                            "pitch": 60, 
                            "t0": 213600, 
                            "v": 60, 
                            "dur": 60, 
                            "type": "note", 
                            "channel": 11
                        }, 
                        {
                            "pitch": 72, 
                            "t0": 213600, 
                            "v": 60, 
                            "dur": 60, 
                            "type": "note", 
                            "channel": 11
                        }
                    ]
                ], 
                [
                    214080, 
                    [
                        {
                            "pitch": 67, 
                            "t0": 214080, 
                            "v": 60, 
                            "dur": 60, 
                            "type": "note", 
                            "channel": 11
                        }, 
                        {
                            "pitch": 43, 
                            "t0": 214080, 
                            "v": 60, 
                            "dur": 60, 
                            "type": "note", 
                            "channel": 11
                        }, 
                        {
                            "pitch": 55, 
                            "t0": 214080, 
                            "v": 60, 
                            "dur": 60, 
                            "type": "note", 
                            "channel": 11
                        }, 
                        {
                            "pitch": 31, 
                            "t0": 214080, 
                            "v": 60, 
                            "dur": 60, 
                            "type": "note", 
                            "channel": 11
                        }
                    ]
                ], 
                [
                    214200, 
                    [
                        {
                            "pitch": 67, 
                            "t0": 214200, 
                            "v": 60, 
                            "dur": 60, 
                            "type": "note", 
                            "channel": 11
                        }, 
                        {
                            "pitch": 31, 
                            "t0": 214200, 
                            "v": 60, 
                            "dur": 60, 
                            "type": "note", 
                            "channel": 11
                        }, 
                        {
                            "pitch": 43, 
                            "t0": 214200, 
                            "v": 60, 
                            "dur": 60, 
                            "type": "note", 
                            "channel": 11
                        }, 
                        {
                            "pitch": 55, 
                            "t0": 214200, 
                            "v": 60, 
                            "dur": 60, 
                            "type": "note", 
                            "channel": 11
                        }
                    ]
                ], 
                [
                    214380, 
                    [
                        {
                            "pitch": 67, 
                            "t0": 214380, 
                            "v": 60, 
                            "dur": 60, 
                            "type": "note", 
                            "channel": 11
                        }, 
                        {
                            "pitch": 31, 
                            "t0": 214380, 
                            "v": 60, 
                            "dur": 60, 
                            "type": "note", 
                            "channel": 11
                        }, 
                        {
                            "pitch": 43, 
                            "t0": 214380, 
                            "v": 60, 
                            "dur": 60, 
                            "type": "note", 
                            "channel": 11
                        }, 
                        {
                            "pitch": 55, 
                            "t0": 214380, 
                            "v": 60, 
                            "dur": 60, 
                            "type": "note", 
                            "channel": 11
                        }
                    ]
                ], 
                [
                    214560, 
                    [
                        {
                            "pitch": 67, 
                            "t0": 214560, 
                            "v": 60, 
                            "dur": 60, 
                            "type": "note", 
                            "channel": 11
                        }, 
                        {
                            "pitch": 55, 
                            "t0": 214560, 
                            "v": 60, 
                            "dur": 60, 
                            "type": "note", 
                            "channel": 11
                        }, 
                        {
                            "pitch": 43, 
                            "t0": 214560, 
                            "v": 60, 
                            "dur": 60, 
                            "type": "note", 
                            "channel": 11
                        }, 
                        {
                            "pitch": 31, 
                            "t0": 214560, 
                            "v": 60, 
                            "dur": 60, 
                            "type": "note", 
                            "channel": 11
                        }
                    ]
                ], 
                [
                    215040, 
                    [
                        {
                            "pitch": 33, 
                            "t0": 215040, 
                            "v": 60, 
                            "dur": 60, 
                            "type": "note", 
                            "channel": 11
                        }, 
                        {
                            "pitch": 45, 
                            "t0": 215040, 
                            "v": 60, 
                            "dur": 60, 
                            "type": "note", 
                            "channel": 11
                        }, 
                        {
                            "pitch": 57, 
                            "t0": 215040, 
                            "v": 60, 
                            "dur": 60, 
                            "type": "note", 
                            "channel": 11
                        }, 
                        {
                            "pitch": 69, 
                            "t0": 215040, 
                            "v": 60, 
                            "dur": 60, 
                            "type": "note", 
                            "channel": 11
                        }
                    ]
                ], 
                [
                    215160, 
                    [
                        {
                            "pitch": 33, 
                            "t0": 215160, 
                            "v": 60, 
                            "dur": 60, 
                            "type": "note", 
                            "channel": 11
                        }, 
                        {
                            "pitch": 69, 
                            "t0": 215160, 
                            "v": 60, 
                            "dur": 60, 
                            "type": "note", 
                            "channel": 11
                        }, 
                        {
                            "pitch": 57, 
                            "t0": 215160, 
                            "v": 60, 
                            "dur": 60, 
                            "type": "note", 
                            "channel": 11
                        }, 
                        {
                            "pitch": 45, 
                            "t0": 215160, 
                            "v": 60, 
                            "dur": 60, 
                            "type": "note", 
                            "channel": 11
                        }
                    ]
                ], 
                [
                    215340, 
                    [
                        {
                            "pitch": 33, 
                            "t0": 215340, 
                            "v": 60, 
                            "dur": 60, 
                            "type": "note", 
                            "channel": 11
                        }, 
                        {
                            "pitch": 69, 
                            "t0": 215340, 
                            "v": 60, 
                            "dur": 60, 
                            "type": "note", 
                            "channel": 11
                        }, 
                        {
                            "pitch": 57, 
                            "t0": 215340, 
                            "v": 60, 
                            "dur": 60, 
                            "type": "note", 
                            "channel": 11
                        }, 
                        {
                            "pitch": 45, 
                            "t0": 215340, 
                            "v": 60, 
                            "dur": 60, 
                            "type": "note", 
                            "channel": 11
                        }
                    ]
                ], 
                [
                    215520, 
                    [
                        {
                            "pitch": 33, 
                            "t0": 215520, 
                            "v": 60, 
                            "dur": 60, 
                            "type": "note", 
                            "channel": 11
                        }, 
                        {
                            "pitch": 45, 
                            "t0": 215520, 
                            "v": 60, 
                            "dur": 60, 
                            "type": "note", 
                            "channel": 11
                        }, 
                        {
                            "pitch": 57, 
                            "t0": 215520, 
                            "v": 60, 
                            "dur": 60, 
                            "type": "note", 
                            "channel": 11
                        }, 
                        {
                            "pitch": 69, 
                            "t0": 215520, 
                            "v": 60, 
                            "dur": 60, 
                            "type": "note", 
                            "channel": 11
                        }
                    ]
                ], 
                [
                    216000, 
                    [
                        {
                            "pitch": 28, 
                            "t0": 216000, 
                            "v": 60, 
                            "dur": 60, 
                            "type": "note", 
                            "channel": 11
                        }, 
                        {
                            "pitch": 40, 
                            "t0": 216000, 
                            "v": 60, 
                            "dur": 60, 
                            "type": "note", 
                            "channel": 11
                        }, 
                        {
                            "pitch": 52, 
                            "t0": 216000, 
                            "v": 60, 
                            "dur": 60, 
                            "type": "note", 
                            "channel": 11
                        }, 
                        {
                            "pitch": 64, 
                            "t0": 216000, 
                            "v": 60, 
                            "dur": 60, 
                            "type": "note", 
                            "channel": 11
                        }
                    ]
                ], 
                [
                    216120, 
                    [
                        {
                            "pitch": 28, 
                            "t0": 216120, 
                            "v": 60, 
                            "dur": 60, 
                            "type": "note", 
                            "channel": 11
                        }, 
                        {
                            "pitch": 64, 
                            "t0": 216120, 
                            "v": 60, 
                            "dur": 60, 
                            "type": "note", 
                            "channel": 11
                        }, 
                        {
                            "pitch": 52, 
                            "t0": 216120, 
                            "v": 60, 
                            "dur": 60, 
                            "type": "note", 
                            "channel": 11
                        }, 
                        {
                            "pitch": 40, 
                            "t0": 216120, 
                            "v": 60, 
                            "dur": 60, 
                            "type": "note", 
                            "channel": 11
                        }
                    ]
                ], 
                [
                    216300, 
                    [
                        {
                            "pitch": 28, 
                            "t0": 216300, 
                            "v": 60, 
                            "dur": 60, 
                            "type": "note", 
                            "channel": 11
                        }, 
                        {
                            "pitch": 64, 
                            "t0": 216300, 
                            "v": 60, 
                            "dur": 60, 
                            "type": "note", 
                            "channel": 11
                        }, 
                        {
                            "pitch": 52, 
                            "t0": 216300, 
                            "v": 60, 
                            "dur": 60, 
                            "type": "note", 
                            "channel": 11
                        }, 
                        {
                            "pitch": 40, 
                            "t0": 216300, 
                            "v": 60, 
                            "dur": 60, 
                            "type": "note", 
                            "channel": 11
                        }
                    ]
                ], 
                [
                    216480, 
                    [
                        {
                            "pitch": 28, 
                            "t0": 216480, 
                            "v": 60, 
                            "dur": 60, 
                            "type": "note", 
                            "channel": 11
                        }, 
                        {
                            "pitch": 40, 
                            "t0": 216480, 
                            "v": 60, 
                            "dur": 60, 
                            "type": "note", 
                            "channel": 11
                        }, 
                        {
                            "pitch": 52, 
                            "t0": 216480, 
                            "v": 60, 
                            "dur": 60, 
                            "type": "note", 
                            "channel": 11
                        }, 
                        {
                            "pitch": 64, 
                            "t0": 216480, 
                            "v": 60, 
                            "dur": 60, 
                            "type": "note", 
                            "channel": 11
                        }
                    ]
                ], 
                [
                    216960, 
                    [
                        {
                            "pitch": 65, 
                            "t0": 216960, 
                            "v": 60, 
                            "dur": 60, 
                            "type": "note", 
                            "channel": 11
                        }, 
                        {
                            "pitch": 41, 
                            "t0": 216960, 
                            "v": 60, 
                            "dur": 60, 
                            "type": "note", 
                            "channel": 11
                        }, 
                        {
                            "pitch": 53, 
                            "t0": 216960, 
                            "v": 60, 
                            "dur": 60, 
                            "type": "note", 
                            "channel": 11
                        }, 
                        {
                            "pitch": 29, 
                            "t0": 216960, 
                            "v": 60, 
                            "dur": 60, 
                            "type": "note", 
                            "channel": 11
                        }
                    ]
                ], 
                [
                    217080, 
                    [
                        {
                            "pitch": 65, 
                            "t0": 217080, 
                            "v": 60, 
                            "dur": 60, 
                            "type": "note", 
                            "channel": 11
                        }, 
                        {
                            "pitch": 29, 
                            "t0": 217080, 
                            "v": 60, 
                            "dur": 60, 
                            "type": "note", 
                            "channel": 11
                        }, 
                        {
                            "pitch": 41, 
                            "t0": 217080, 
                            "v": 60, 
                            "dur": 60, 
                            "type": "note", 
                            "channel": 11
                        }, 
                        {
                            "pitch": 53, 
                            "t0": 217080, 
                            "v": 60, 
                            "dur": 60, 
                            "type": "note", 
                            "channel": 11
                        }
                    ]
                ], 
                [
                    217260, 
                    [
                        {
                            "pitch": 65, 
                            "t0": 217260, 
                            "v": 60, 
                            "dur": 60, 
                            "type": "note", 
                            "channel": 11
                        }, 
                        {
                            "pitch": 29, 
                            "t0": 217260, 
                            "v": 60, 
                            "dur": 60, 
                            "type": "note", 
                            "channel": 11
                        }, 
                        {
                            "pitch": 41, 
                            "t0": 217260, 
                            "v": 60, 
                            "dur": 60, 
                            "type": "note", 
                            "channel": 11
                        }, 
                        {
                            "pitch": 53, 
                            "t0": 217260, 
                            "v": 60, 
                            "dur": 60, 
                            "type": "note", 
                            "channel": 11
                        }
                    ]
                ], 
                [
                    217440, 
                    [
                        {
                            "pitch": 65, 
                            "t0": 217440, 
                            "v": 60, 
                            "dur": 60, 
                            "type": "note", 
                            "channel": 11
                        }, 
                        {
                            "pitch": 53, 
                            "t0": 217440, 
                            "v": 60, 
                            "dur": 60, 
                            "type": "note", 
                            "channel": 11
                        }, 
                        {
                            "pitch": 41, 
                            "t0": 217440, 
                            "v": 60, 
                            "dur": 60, 
                            "type": "note", 
                            "channel": 11
                        }, 
                        {
                            "pitch": 29, 
                            "t0": 217440, 
                            "v": 60, 
                            "dur": 60, 
                            "type": "note", 
                            "channel": 11
                        }
                    ]
                ], 
                [
                    217920, 
                    [
                        {
                            "pitch": 67, 
                            "t0": 217920, 
                            "v": 60, 
                            "dur": 60, 
                            "type": "note", 
                            "channel": 11
                        }, 
                        {
                            "pitch": 43, 
                            "t0": 217920, 
                            "v": 60, 
                            "dur": 60, 
                            "type": "note", 
                            "channel": 11
                        }, 
                        {
                            "pitch": 55, 
                            "t0": 217920, 
                            "v": 60, 
                            "dur": 60, 
                            "type": "note", 
                            "channel": 11
                        }, 
                        {
                            "pitch": 31, 
                            "t0": 217920, 
                            "v": 60, 
                            "dur": 60, 
                            "type": "note", 
                            "channel": 11
                        }
                    ]
                ], 
                [
                    218040, 
                    [
                        {
                            "pitch": 67, 
                            "t0": 218040, 
                            "v": 60, 
                            "dur": 60, 
                            "type": "note", 
                            "channel": 11
                        }, 
                        {
                            "pitch": 31, 
                            "t0": 218040, 
                            "v": 60, 
                            "dur": 60, 
                            "type": "note", 
                            "channel": 11
                        }, 
                        {
                            "pitch": 43, 
                            "t0": 218040, 
                            "v": 60, 
                            "dur": 60, 
                            "type": "note", 
                            "channel": 11
                        }, 
                        {
                            "pitch": 55, 
                            "t0": 218040, 
                            "v": 60, 
                            "dur": 60, 
                            "type": "note", 
                            "channel": 11
                        }
                    ]
                ], 
                [
                    218220, 
                    [
                        {
                            "pitch": 67, 
                            "t0": 218220, 
                            "v": 60, 
                            "dur": 60, 
                            "type": "note", 
                            "channel": 11
                        }, 
                        {
                            "pitch": 31, 
                            "t0": 218220, 
                            "v": 60, 
                            "dur": 60, 
                            "type": "note", 
                            "channel": 11
                        }, 
                        {
                            "pitch": 43, 
                            "t0": 218220, 
                            "v": 60, 
                            "dur": 60, 
                            "type": "note", 
                            "channel": 11
                        }, 
                        {
                            "pitch": 55, 
                            "t0": 218220, 
                            "v": 60, 
                            "dur": 60, 
                            "type": "note", 
                            "channel": 11
                        }
                    ]
                ], 
                [
                    218400, 
                    [
                        {
                            "pitch": 67, 
                            "t0": 218400, 
                            "v": 60, 
                            "dur": 60, 
                            "type": "note", 
                            "channel": 11
                        }, 
                        {
                            "pitch": 43, 
                            "t0": 218400, 
                            "v": 60, 
                            "dur": 60, 
                            "type": "note", 
                            "channel": 11
                        }, 
                        {
                            "pitch": 55, 
                            "t0": 218400, 
                            "v": 60, 
                            "dur": 60, 
                            "type": "note", 
                            "channel": 11
                        }, 
                        {
                            "pitch": 31, 
                            "t0": 218400, 
                            "v": 60, 
                            "dur": 60, 
                            "type": "note", 
                            "channel": 11
                        }
                    ]
                ], 
                [
                    218880, 
                    [
                        {
                            "pitch": 69, 
                            "t0": 218880, 
                            "v": 60, 
                            "dur": 60, 
                            "type": "note", 
                            "channel": 11
                        }, 
                        {
                            "pitch": 57, 
                            "t0": 218880, 
                            "v": 60, 
                            "dur": 60, 
                            "type": "note", 
                            "channel": 11
                        }, 
                        {
                            "pitch": 45, 
                            "t0": 218880, 
                            "v": 60, 
                            "dur": 60, 
                            "type": "note", 
                            "channel": 11
                        }, 
                        {
                            "pitch": 33, 
                            "t0": 218880, 
                            "v": 60, 
                            "dur": 60, 
                            "type": "note", 
                            "channel": 11
                        }
                    ]
                ], 
                [
                    219000, 
                    [
                        {
                            "pitch": 69, 
                            "t0": 219000, 
                            "v": 60, 
                            "dur": 60, 
                            "type": "note", 
                            "channel": 11
                        }, 
                        {
                            "pitch": 33, 
                            "t0": 219000, 
                            "v": 60, 
                            "dur": 60, 
                            "type": "note", 
                            "channel": 11
                        }, 
                        {
                            "pitch": 45, 
                            "t0": 219000, 
                            "v": 60, 
                            "dur": 60, 
                            "type": "note", 
                            "channel": 11
                        }, 
                        {
                            "pitch": 57, 
                            "t0": 219000, 
                            "v": 60, 
                            "dur": 60, 
                            "type": "note", 
                            "channel": 11
                        }
                    ]
                ], 
                [
                    219180, 
                    [
                        {
                            "pitch": 69, 
                            "t0": 219180, 
                            "v": 60, 
                            "dur": 60, 
                            "type": "note", 
                            "channel": 11
                        }, 
                        {
                            "pitch": 33, 
                            "t0": 219180, 
                            "v": 60, 
                            "dur": 60, 
                            "type": "note", 
                            "channel": 11
                        }, 
                        {
                            "pitch": 45, 
                            "t0": 219180, 
                            "v": 60, 
                            "dur": 60, 
                            "type": "note", 
                            "channel": 11
                        }, 
                        {
                            "pitch": 57, 
                            "t0": 219180, 
                            "v": 60, 
                            "dur": 60, 
                            "type": "note", 
                            "channel": 11
                        }
                    ]
                ], 
                [
                    219360, 
                    [
                        {
                            "pitch": 69, 
                            "t0": 219360, 
                            "v": 60, 
                            "dur": 60, 
                            "type": "note", 
                            "channel": 11
                        }, 
                        {
                            "pitch": 45, 
                            "t0": 219360, 
                            "v": 60, 
                            "dur": 60, 
                            "type": "note", 
                            "channel": 11
                        }, 
                        {
                            "pitch": 57, 
                            "t0": 219360, 
                            "v": 60, 
                            "dur": 60, 
                            "type": "note", 
                            "channel": 11
                        }, 
                        {
                            "pitch": 33, 
                            "t0": 219360, 
                            "v": 60, 
                            "dur": 60, 
                            "type": "note", 
                            "channel": 11
                        }
                    ]
                ], 
                [
                    219840, 
                    [
                        {
                            "pitch": 45, 
                            "t0": 219840, 
                            "v": 60, 
                            "dur": 120, 
                            "type": "note", 
                            "channel": 11
                        }, 
                        {
                            "pitch": 57, 
                            "t0": 219840, 
                            "v": 60, 
                            "dur": 120, 
                            "type": "note", 
                            "channel": 11
                        }
                    ]
                ], 
                [
                    220320, 
                    [
                        {
                            "pitch": 45, 
                            "t0": 220320, 
                            "v": 60, 
                            "dur": 120, 
                            "type": "note", 
                            "channel": 11
                        }, 
                        {
                            "pitch": 57, 
                            "t0": 220320, 
                            "v": 60, 
                            "dur": 120, 
                            "type": "note", 
                            "channel": 11
                        }
                    ]
                ]
            ], 
            "instruments": [
                42
            ], 
            "tMax": 220440, 
            "channels": [
                11
            ], 
            "instrument": 42, 
            "numNotes": 496, 
            "type": "TrackObj"
        }, 
        {
            "trackName": "Track 13", 
            "seq": [
                [
                    0, 
                    [
                        {
                            "instrument": 48, 
                            "type": "programChange", 
                            "t0": 0, 
                            "channel": 12
                        }
                    ]
                ], 
                [
                    94080, 
                    [
                        {
                            "pitch": 72, 
                            "t0": 94080, 
                            "v": 56, 
                            "dur": 60, 
                            "type": "note", 
                            "channel": 12
                        }, 
                        {
                            "pitch": 60, 
                            "t0": 94080, 
                            "parts": [
                                [
                                    94080, 
                                    60
                                ], 
                                [
                                    94080, 
                                    56
                                ], 
                                [
                                    94140, 
                                    0
                                ]
                            ], 
                            "v": 60, 
                            "dur": 60, 
                            "type": "note", 
                            "channel": 12
                        }, 
                        {
                            "pitch": 48, 
                            "t0": 94080, 
                            "parts": [
                                [
                                    94080, 
                                    60
                                ], 
                                [
                                    94080, 
                                    56
                                ], 
                                [
                                    94140, 
                                    0
                                ]
                            ], 
                            "v": 60, 
                            "dur": 60, 
                            "type": "note", 
                            "channel": 12
                        }, 
                        {
                            "pitch": 36, 
                            "t0": 94080, 
                            "v": 56, 
                            "dur": 60, 
                            "type": "note", 
                            "channel": 12
                        }
                    ]
                ], 
                [
                    94200, 
                    [
                        {
                            "pitch": 72, 
                            "t0": 94200, 
                            "v": 56, 
                            "dur": 60, 
                            "type": "note", 
                            "channel": 12
                        }, 
                        {
                            "pitch": 36, 
                            "t0": 94200, 
                            "v": 56, 
                            "dur": 60, 
                            "type": "note", 
                            "channel": 12
                        }, 
                        {
                            "pitch": 48, 
                            "t0": 94200, 
                            "v": 56, 
                            "dur": 60, 
                            "type": "note", 
                            "channel": 12
                        }, 
                        {
                            "pitch": 60, 
                            "t0": 94200, 
                            "v": 56, 
                            "dur": 60, 
                            "type": "note", 
                            "channel": 12
                        }
                    ]
                ], 
                [
                    94380, 
                    [
                        {
                            "pitch": 72, 
                            "t0": 94380, 
                            "v": 56, 
                            "dur": 60, 
                            "type": "note", 
                            "channel": 12
                        }, 
                        {
                            "pitch": 36, 
                            "t0": 94380, 
                            "v": 56, 
                            "dur": 60, 
                            "type": "note", 
                            "channel": 12
                        }, 
                        {
                            "pitch": 48, 
                            "t0": 94380, 
                            "v": 56, 
                            "dur": 60, 
                            "type": "note", 
                            "channel": 12
                        }, 
                        {
                            "pitch": 60, 
                            "t0": 94380, 
                            "v": 56, 
                            "dur": 60, 
                            "type": "note", 
                            "channel": 12
                        }
                    ]
                ], 
                [
                    94560, 
                    [
                        {
                            "pitch": 72, 
                            "t0": 94560, 
                            "v": 56, 
                            "dur": 60, 
                            "type": "note", 
                            "channel": 12
                        }, 
                        {
                            "pitch": 60, 
                            "t0": 94560, 
                            "parts": [
                                [
                                    94560, 
                                    60
                                ], 
                                [
                                    94560, 
                                    56
                                ], 
                                [
                                    94620, 
                                    0
                                ]
                            ], 
                            "v": 60, 
                            "dur": 60, 
                            "type": "note", 
                            "channel": 12
                        }, 
                        {
                            "pitch": 48, 
                            "t0": 94560, 
                            "parts": [
                                [
                                    94560, 
                                    60
                                ], 
                                [
                                    94560, 
                                    56
                                ], 
                                [
                                    94620, 
                                    0
                                ]
                            ], 
                            "v": 60, 
                            "dur": 60, 
                            "type": "note", 
                            "channel": 12
                        }, 
                        {
                            "pitch": 36, 
                            "t0": 94560, 
                            "v": 56, 
                            "dur": 60, 
                            "type": "note", 
                            "channel": 12
                        }
                    ]
                ], 
                [
                    95040, 
                    [
                        {
                            "pitch": 48, 
                            "t0": 95040, 
                            "v": 60, 
                            "dur": 120, 
                            "type": "note", 
                            "channel": 12
                        }, 
                        {
                            "pitch": 60, 
                            "t0": 95040, 
                            "v": 60, 
                            "dur": 120, 
                            "type": "note", 
                            "channel": 12
                        }
                    ]
                ], 
                [
                    95520, 
                    [
                        {
                            "pitch": 60, 
                            "t0": 95520, 
                            "v": 60, 
                            "dur": 120, 
                            "type": "note", 
                            "channel": 12
                        }, 
                        {
                            "pitch": 48, 
                            "t0": 95520, 
                            "v": 60, 
                            "dur": 120, 
                            "type": "note", 
                            "channel": 12
                        }
                    ]
                ], 
                [
                    96000, 
                    [
                        {
                            "pitch": 67, 
                            "t0": 96000, 
                            "v": 56, 
                            "dur": 60, 
                            "type": "note", 
                            "channel": 12
                        }, 
                        {
                            "pitch": 55, 
                            "t0": 96000, 
                            "parts": [
                                [
                                    96000, 
                                    60
                                ], 
                                [
                                    96000, 
                                    56
                                ], 
                                [
                                    96060, 
                                    0
                                ]
                            ], 
                            "v": 60, 
                            "dur": 60, 
                            "type": "note", 
                            "channel": 12
                        }, 
                        {
                            "pitch": 43, 
                            "t0": 96000, 
                            "parts": [
                                [
                                    96000, 
                                    60
                                ], 
                                [
                                    96000, 
                                    56
                                ], 
                                [
                                    96060, 
                                    0
                                ]
                            ], 
                            "v": 60, 
                            "dur": 60, 
                            "type": "note", 
                            "channel": 12
                        }, 
                        {
                            "pitch": 31, 
                            "t0": 96000, 
                            "v": 56, 
                            "dur": 60, 
                            "type": "note", 
                            "channel": 12
                        }
                    ]
                ], 
                [
                    96120, 
                    [
                        {
                            "pitch": 67, 
                            "t0": 96120, 
                            "v": 56, 
                            "dur": 60, 
                            "type": "note", 
                            "channel": 12
                        }, 
                        {
                            "pitch": 31, 
                            "t0": 96120, 
                            "v": 56, 
                            "dur": 60, 
                            "type": "note", 
                            "channel": 12
                        }, 
                        {
                            "pitch": 43, 
                            "t0": 96120, 
                            "v": 56, 
                            "dur": 60, 
                            "type": "note", 
                            "channel": 12
                        }, 
                        {
                            "pitch": 55, 
                            "t0": 96120, 
                            "v": 56, 
                            "dur": 60, 
                            "type": "note", 
                            "channel": 12
                        }
                    ]
                ], 
                [
                    96300, 
                    [
                        {
                            "pitch": 67, 
                            "t0": 96300, 
                            "v": 56, 
                            "dur": 60, 
                            "type": "note", 
                            "channel": 12
                        }, 
                        {
                            "pitch": 31, 
                            "t0": 96300, 
                            "v": 56, 
                            "dur": 60, 
                            "type": "note", 
                            "channel": 12
                        }, 
                        {
                            "pitch": 43, 
                            "t0": 96300, 
                            "v": 56, 
                            "dur": 60, 
                            "type": "note", 
                            "channel": 12
                        }, 
                        {
                            "pitch": 55, 
                            "t0": 96300, 
                            "v": 56, 
                            "dur": 60, 
                            "type": "note", 
                            "channel": 12
                        }
                    ]
                ], 
                [
                    96480, 
                    [
                        {
                            "pitch": 67, 
                            "t0": 96480, 
                            "v": 56, 
                            "dur": 60, 
                            "type": "note", 
                            "channel": 12
                        }, 
                        {
                            "pitch": 43, 
                            "t0": 96480, 
                            "parts": [
                                [
                                    96480, 
                                    60
                                ], 
                                [
                                    96480, 
                                    56
                                ], 
                                [
                                    96540, 
                                    0
                                ]
                            ], 
                            "v": 60, 
                            "dur": 60, 
                            "type": "note", 
                            "channel": 12
                        }, 
                        {
                            "pitch": 55, 
                            "t0": 96480, 
                            "parts": [
                                [
                                    96480, 
                                    60
                                ], 
                                [
                                    96480, 
                                    56
                                ], 
                                [
                                    96540, 
                                    0
                                ]
                            ], 
                            "v": 60, 
                            "dur": 60, 
                            "type": "note", 
                            "channel": 12
                        }, 
                        {
                            "pitch": 31, 
                            "t0": 96480, 
                            "v": 56, 
                            "dur": 60, 
                            "type": "note", 
                            "channel": 12
                        }
                    ]
                ], 
                [
                    96960, 
                    [
                        {
                            "pitch": 55, 
                            "t0": 96960, 
                            "v": 60, 
                            "dur": 120, 
                            "type": "note", 
                            "channel": 12
                        }, 
                        {
                            "pitch": 43, 
                            "t0": 96960, 
                            "v": 60, 
                            "dur": 120, 
                            "type": "note", 
                            "channel": 12
                        }
                    ]
                ], 
                [
                    97440, 
                    [
                        {
                            "pitch": 43, 
                            "t0": 97440, 
                            "v": 60, 
                            "dur": 120, 
                            "type": "note", 
                            "channel": 12
                        }, 
                        {
                            "pitch": 55, 
                            "t0": 97440, 
                            "v": 60, 
                            "dur": 120, 
                            "type": "note", 
                            "channel": 12
                        }
                    ]
                ], 
                [
                    97920, 
                    [
                        {
                            "pitch": 69, 
                            "t0": 97920, 
                            "v": 56, 
                            "dur": 60, 
                            "type": "note", 
                            "channel": 12
                        }, 
                        {
                            "pitch": 45, 
                            "t0": 97920, 
                            "parts": [
                                [
                                    97920, 
                                    60
                                ], 
                                [
                                    97920, 
                                    56
                                ], 
                                [
                                    97980, 
                                    0
                                ]
                            ], 
                            "v": 60, 
                            "dur": 60, 
                            "type": "note", 
                            "channel": 12
                        }, 
                        {
                            "pitch": 57, 
                            "t0": 97920, 
                            "parts": [
                                [
                                    97920, 
                                    60
                                ], 
                                [
                                    97920, 
                                    56
                                ], 
                                [
                                    97980, 
                                    0
                                ]
                            ], 
                            "v": 60, 
                            "dur": 60, 
                            "type": "note", 
                            "channel": 12
                        }, 
                        {
                            "pitch": 33, 
                            "t0": 97920, 
                            "v": 56, 
                            "dur": 60, 
                            "type": "note", 
                            "channel": 12
                        }
                    ]
                ], 
                [
                    98040, 
                    [
                        {
                            "pitch": 69, 
                            "t0": 98040, 
                            "v": 56, 
                            "dur": 60, 
                            "type": "note", 
                            "channel": 12
                        }, 
                        {
                            "pitch": 33, 
                            "t0": 98040, 
                            "v": 56, 
                            "dur": 60, 
                            "type": "note", 
                            "channel": 12
                        }, 
                        {
                            "pitch": 45, 
                            "t0": 98040, 
                            "v": 56, 
                            "dur": 60, 
                            "type": "note", 
                            "channel": 12
                        }, 
                        {
                            "pitch": 57, 
                            "t0": 98040, 
                            "v": 56, 
                            "dur": 60, 
                            "type": "note", 
                            "channel": 12
                        }
                    ]
                ], 
                [
                    98220, 
                    [
                        {
                            "pitch": 69, 
                            "t0": 98220, 
                            "v": 56, 
                            "dur": 60, 
                            "type": "note", 
                            "channel": 12
                        }, 
                        {
                            "pitch": 33, 
                            "t0": 98220, 
                            "v": 56, 
                            "dur": 60, 
                            "type": "note", 
                            "channel": 12
                        }, 
                        {
                            "pitch": 45, 
                            "t0": 98220, 
                            "v": 56, 
                            "dur": 60, 
                            "type": "note", 
                            "channel": 12
                        }, 
                        {
                            "pitch": 57, 
                            "t0": 98220, 
                            "v": 56, 
                            "dur": 60, 
                            "type": "note", 
                            "channel": 12
                        }
                    ]
                ], 
                [
                    98400, 
                    [
                        {
                            "pitch": 69, 
                            "t0": 98400, 
                            "v": 56, 
                            "dur": 60, 
                            "type": "note", 
                            "channel": 12
                        }, 
                        {
                            "pitch": 57, 
                            "t0": 98400, 
                            "parts": [
                                [
                                    98400, 
                                    60
                                ], 
                                [
                                    98400, 
                                    56
                                ], 
                                [
                                    98460, 
                                    0
                                ]
                            ], 
                            "v": 60, 
                            "dur": 60, 
                            "type": "note", 
                            "channel": 12
                        }, 
                        {
                            "pitch": 45, 
                            "t0": 98400, 
                            "parts": [
                                [
                                    98400, 
                                    60
                                ], 
                                [
                                    98400, 
                                    56
                                ], 
                                [
                                    98460, 
                                    0
                                ]
                            ], 
                            "v": 60, 
                            "dur": 60, 
                            "type": "note", 
                            "channel": 12
                        }, 
                        {
                            "pitch": 33, 
                            "t0": 98400, 
                            "v": 56, 
                            "dur": 60, 
                            "type": "note", 
                            "channel": 12
                        }
                    ]
                ], 
                [
                    98880, 
                    [
                        {
                            "pitch": 57, 
                            "t0": 98880, 
                            "v": 60, 
                            "dur": 120, 
                            "type": "note", 
                            "channel": 12
                        }, 
                        {
                            "pitch": 45, 
                            "t0": 98880, 
                            "v": 60, 
                            "dur": 120, 
                            "type": "note", 
                            "channel": 12
                        }
                    ]
                ], 
                [
                    99360, 
                    [
                        {
                            "pitch": 45, 
                            "t0": 99360, 
                            "v": 60, 
                            "dur": 120, 
                            "type": "note", 
                            "channel": 12
                        }, 
                        {
                            "pitch": 57, 
                            "t0": 99360, 
                            "v": 60, 
                            "dur": 120, 
                            "type": "note", 
                            "channel": 12
                        }
                    ]
                ], 
                [
                    99840, 
                    [
                        {
                            "pitch": 64, 
                            "t0": 99840, 
                            "v": 56, 
                            "dur": 60, 
                            "type": "note", 
                            "channel": 12
                        }, 
                        {
                            "pitch": 40, 
                            "t0": 99840, 
                            "parts": [
                                [
                                    99840, 
                                    60
                                ], 
                                [
                                    99840, 
                                    56
                                ], 
                                [
                                    99900, 
                                    0
                                ]
                            ], 
                            "v": 60, 
                            "dur": 60, 
                            "type": "note", 
                            "channel": 12
                        }, 
                        {
                            "pitch": 52, 
                            "t0": 99840, 
                            "parts": [
                                [
                                    99840, 
                                    60
                                ], 
                                [
                                    99840, 
                                    56
                                ], 
                                [
                                    99900, 
                                    0
                                ]
                            ], 
                            "v": 60, 
                            "dur": 60, 
                            "type": "note", 
                            "channel": 12
                        }, 
                        {
                            "pitch": 28, 
                            "t0": 99840, 
                            "v": 56, 
                            "dur": 60, 
                            "type": "note", 
                            "channel": 12
                        }
                    ]
                ], 
                [
                    99960, 
                    [
                        {
                            "pitch": 64, 
                            "t0": 99960, 
                            "v": 56, 
                            "dur": 60, 
                            "type": "note", 
                            "channel": 12
                        }, 
                        {
                            "pitch": 28, 
                            "t0": 99960, 
                            "v": 56, 
                            "dur": 60, 
                            "type": "note", 
                            "channel": 12
                        }, 
                        {
                            "pitch": 40, 
                            "t0": 99960, 
                            "v": 56, 
                            "dur": 60, 
                            "type": "note", 
                            "channel": 12
                        }, 
                        {
                            "pitch": 52, 
                            "t0": 99960, 
                            "v": 56, 
                            "dur": 60, 
                            "type": "note", 
                            "channel": 12
                        }
                    ]
                ], 
                [
                    100140, 
                    [
                        {
                            "pitch": 64, 
                            "t0": 100140, 
                            "v": 56, 
                            "dur": 60, 
                            "type": "note", 
                            "channel": 12
                        }, 
                        {
                            "pitch": 28, 
                            "t0": 100140, 
                            "v": 56, 
                            "dur": 60, 
                            "type": "note", 
                            "channel": 12
                        }, 
                        {
                            "pitch": 40, 
                            "t0": 100140, 
                            "v": 56, 
                            "dur": 60, 
                            "type": "note", 
                            "channel": 12
                        }, 
                        {
                            "pitch": 52, 
                            "t0": 100140, 
                            "v": 56, 
                            "dur": 60, 
                            "type": "note", 
                            "channel": 12
                        }
                    ]
                ], 
                [
                    100320, 
                    [
                        {
                            "pitch": 64, 
                            "t0": 100320, 
                            "v": 56, 
                            "dur": 60, 
                            "type": "note", 
                            "channel": 12
                        }, 
                        {
                            "pitch": 40, 
                            "t0": 100320, 
                            "parts": [
                                [
                                    100320, 
                                    60
                                ], 
                                [
                                    100320, 
                                    56
                                ], 
                                [
                                    100380, 
                                    0
                                ]
                            ], 
                            "v": 60, 
                            "dur": 60, 
                            "type": "note", 
                            "channel": 12
                        }, 
                        {
                            "pitch": 52, 
                            "t0": 100320, 
                            "parts": [
                                [
                                    100320, 
                                    60
                                ], 
                                [
                                    100320, 
                                    56
                                ], 
                                [
                                    100380, 
                                    0
                                ]
                            ], 
                            "v": 60, 
                            "dur": 60, 
                            "type": "note", 
                            "channel": 12
                        }, 
                        {
                            "pitch": 28, 
                            "t0": 100320, 
                            "v": 56, 
                            "dur": 60, 
                            "type": "note", 
                            "channel": 12
                        }
                    ]
                ], 
                [
                    100800, 
                    [
                        {
                            "pitch": 40, 
                            "t0": 100800, 
                            "v": 60, 
                            "dur": 120, 
                            "type": "note", 
                            "channel": 12
                        }, 
                        {
                            "pitch": 52, 
                            "t0": 100800, 
                            "v": 60, 
                            "dur": 120, 
                            "type": "note", 
                            "channel": 12
                        }
                    ]
                ], 
                [
                    101280, 
                    [
                        {
                            "pitch": 40, 
                            "t0": 101280, 
                            "v": 60, 
                            "dur": 120, 
                            "type": "note", 
                            "channel": 12
                        }, 
                        {
                            "pitch": 52, 
                            "t0": 101280, 
                            "v": 60, 
                            "dur": 120, 
                            "type": "note", 
                            "channel": 12
                        }
                    ]
                ], 
                [
                    101760, 
                    [
                        {
                            "pitch": 65, 
                            "t0": 101760, 
                            "v": 56, 
                            "dur": 60, 
                            "type": "note", 
                            "channel": 12
                        }, 
                        {
                            "pitch": 41, 
                            "t0": 101760, 
                            "parts": [
                                [
                                    101760, 
                                    60
                                ], 
                                [
                                    101760, 
                                    56
                                ], 
                                [
                                    101820, 
                                    0
                                ]
                            ], 
                            "v": 60, 
                            "dur": 60, 
                            "type": "note", 
                            "channel": 12
                        }, 
                        {
                            "pitch": 53, 
                            "t0": 101760, 
                            "parts": [
                                [
                                    101760, 
                                    60
                                ], 
                                [
                                    101760, 
                                    56
                                ], 
                                [
                                    101820, 
                                    0
                                ]
                            ], 
                            "v": 60, 
                            "dur": 60, 
                            "type": "note", 
                            "channel": 12
                        }, 
                        {
                            "pitch": 29, 
                            "t0": 101760, 
                            "v": 56, 
                            "dur": 60, 
                            "type": "note", 
                            "channel": 12
                        }
                    ]
                ], 
                [
                    101880, 
                    [
                        {
                            "pitch": 65, 
                            "t0": 101880, 
                            "v": 57, 
                            "dur": 60, 
                            "type": "note", 
                            "channel": 12
                        }, 
                        {
                            "pitch": 29, 
                            "t0": 101880, 
                            "v": 57, 
                            "dur": 60, 
                            "type": "note", 
                            "channel": 12
                        }, 
                        {
                            "pitch": 41, 
                            "t0": 101880, 
                            "v": 57, 
                            "dur": 60, 
                            "type": "note", 
                            "channel": 12
                        }, 
                        {
                            "pitch": 53, 
                            "t0": 101880, 
                            "v": 57, 
                            "dur": 60, 
                            "type": "note", 
                            "channel": 12
                        }
                    ]
                ], 
                [
                    102060, 
                    [
                        {
                            "pitch": 65, 
                            "t0": 102060, 
                            "v": 58, 
                            "dur": 60, 
                            "type": "note", 
                            "channel": 12
                        }, 
                        {
                            "pitch": 29, 
                            "t0": 102060, 
                            "v": 58, 
                            "dur": 60, 
                            "type": "note", 
                            "channel": 12
                        }, 
                        {
                            "pitch": 41, 
                            "t0": 102060, 
                            "v": 58, 
                            "dur": 60, 
                            "type": "note", 
                            "channel": 12
                        }, 
                        {
                            "pitch": 53, 
                            "t0": 102060, 
                            "v": 58, 
                            "dur": 60, 
                            "type": "note", 
                            "channel": 12
                        }
                    ]
                ], 
                [
                    102240, 
                    [
                        {
                            "pitch": 65, 
                            "t0": 102240, 
                            "v": 59, 
                            "dur": 60, 
                            "type": "note", 
                            "channel": 12
                        }, 
                        {
                            "pitch": 41, 
                            "t0": 102240, 
                            "parts": [
                                [
                                    102240, 
                                    60
                                ], 
                                [
                                    102240, 
                                    59
                                ], 
                                [
                                    102300, 
                                    0
                                ]
                            ], 
                            "v": 60, 
                            "dur": 60, 
                            "type": "note", 
                            "channel": 12
                        }, 
                        {
                            "pitch": 53, 
                            "t0": 102240, 
                            "parts": [
                                [
                                    102240, 
                                    60
                                ], 
                                [
                                    102240, 
                                    59
                                ], 
                                [
                                    102300, 
                                    0
                                ]
                            ], 
                            "v": 60, 
                            "dur": 60, 
                            "type": "note", 
                            "channel": 12
                        }, 
                        {
                            "pitch": 29, 
                            "t0": 102240, 
                            "v": 59, 
                            "dur": 60, 
                            "type": "note", 
                            "channel": 12
                        }
                    ]
                ], 
                [
                    102720, 
                    [
                        {
                            "pitch": 67, 
                            "t0": 102720, 
                            "v": 63, 
                            "dur": 60, 
                            "type": "note", 
                            "channel": 12
                        }, 
                        {
                            "pitch": 43, 
                            "t0": 102720, 
                            "parts": [
                                [
                                    102720, 
                                    60
                                ], 
                                [
                                    102720, 
                                    63
                                ], 
                                [
                                    102780, 
                                    0
                                ]
                            ], 
                            "v": 60, 
                            "dur": 60, 
                            "type": "note", 
                            "channel": 12
                        }, 
                        {
                            "pitch": 55, 
                            "t0": 102720, 
                            "parts": [
                                [
                                    102720, 
                                    60
                                ], 
                                [
                                    102720, 
                                    63
                                ], 
                                [
                                    102780, 
                                    0
                                ]
                            ], 
                            "v": 60, 
                            "dur": 60, 
                            "type": "note", 
                            "channel": 12
                        }, 
                        {
                            "pitch": 31, 
                            "t0": 102720, 
                            "v": 63, 
                            "dur": 60, 
                            "type": "note", 
                            "channel": 12
                        }
                    ]
                ], 
                [
                    102840, 
                    [
                        {
                            "pitch": 67, 
                            "t0": 102840, 
                            "v": 64, 
                            "dur": 60, 
                            "type": "note", 
                            "channel": 12
                        }, 
                        {
                            "pitch": 31, 
                            "t0": 102840, 
                            "v": 64, 
                            "dur": 60, 
                            "type": "note", 
                            "channel": 12
                        }, 
                        {
                            "pitch": 43, 
                            "t0": 102840, 
                            "v": 64, 
                            "dur": 60, 
                            "type": "note", 
                            "channel": 12
                        }, 
                        {
                            "pitch": 55, 
                            "t0": 102840, 
                            "v": 64, 
                            "dur": 60, 
                            "type": "note", 
                            "channel": 12
                        }
                    ]
                ], 
                [
                    103020, 
                    [
                        {
                            "pitch": 67, 
                            "t0": 103020, 
                            "v": 65, 
                            "dur": 60, 
                            "type": "note", 
                            "channel": 12
                        }, 
                        {
                            "pitch": 31, 
                            "t0": 103020, 
                            "v": 65, 
                            "dur": 60, 
                            "type": "note", 
                            "channel": 12
                        }, 
                        {
                            "pitch": 43, 
                            "t0": 103020, 
                            "v": 65, 
                            "dur": 60, 
                            "type": "note", 
                            "channel": 12
                        }, 
                        {
                            "pitch": 55, 
                            "t0": 103020, 
                            "v": 65, 
                            "dur": 60, 
                            "type": "note", 
                            "channel": 12
                        }
                    ]
                ], 
                [
                    103200, 
                    [
                        {
                            "pitch": 67, 
                            "t0": 103200, 
                            "v": 67, 
                            "dur": 60, 
                            "type": "note", 
                            "channel": 12
                        }, 
                        {
                            "pitch": 43, 
                            "t0": 103200, 
                            "parts": [
                                [
                                    103200, 
                                    60
                                ], 
                                [
                                    103200, 
                                    67
                                ], 
                                [
                                    103260, 
                                    0
                                ]
                            ], 
                            "v": 60, 
                            "dur": 60, 
                            "type": "note", 
                            "channel": 12
                        }, 
                        {
                            "pitch": 55, 
                            "t0": 103200, 
                            "parts": [
                                [
                                    103200, 
                                    60
                                ], 
                                [
                                    103200, 
                                    67
                                ], 
                                [
                                    103260, 
                                    0
                                ]
                            ], 
                            "v": 60, 
                            "dur": 60, 
                            "type": "note", 
                            "channel": 12
                        }, 
                        {
                            "pitch": 31, 
                            "t0": 103200, 
                            "v": 67, 
                            "dur": 60, 
                            "type": "note", 
                            "channel": 12
                        }
                    ]
                ], 
                [
                    103680, 
                    [
                        {
                            "pitch": 69, 
                            "t0": 103680, 
                            "v": 70, 
                            "dur": 60, 
                            "type": "note", 
                            "channel": 12
                        }, 
                        {
                            "pitch": 45, 
                            "t0": 103680, 
                            "parts": [
                                [
                                    103680, 
                                    60
                                ], 
                                [
                                    103680, 
                                    70
                                ], 
                                [
                                    103740, 
                                    0
                                ]
                            ], 
                            "v": 60, 
                            "dur": 60, 
                            "type": "note", 
                            "channel": 12
                        }, 
                        {
                            "pitch": 57, 
                            "t0": 103680, 
                            "parts": [
                                [
                                    103680, 
                                    60
                                ], 
                                [
                                    103680, 
                                    70
                                ], 
                                [
                                    103740, 
                                    0
                                ]
                            ], 
                            "v": 60, 
                            "dur": 60, 
                            "type": "note", 
                            "channel": 12
                        }, 
                        {
                            "pitch": 33, 
                            "t0": 103680, 
                            "v": 70, 
                            "dur": 60, 
                            "type": "note", 
                            "channel": 12
                        }
                    ]
                ], 
                [
                    103800, 
                    [
                        {
                            "pitch": 69, 
                            "t0": 103800, 
                            "v": 71, 
                            "dur": 60, 
                            "type": "note", 
                            "channel": 12
                        }, 
                        {
                            "pitch": 33, 
                            "t0": 103800, 
                            "v": 71, 
                            "dur": 60, 
                            "type": "note", 
                            "channel": 12
                        }, 
                        {
                            "pitch": 45, 
                            "t0": 103800, 
                            "v": 71, 
                            "dur": 60, 
                            "type": "note", 
                            "channel": 12
                        }, 
                        {
                            "pitch": 57, 
                            "t0": 103800, 
                            "v": 71, 
                            "dur": 60, 
                            "type": "note", 
                            "channel": 12
                        }
                    ]
                ], 
                [
                    103980, 
                    [
                        {
                            "pitch": 69, 
                            "t0": 103980, 
                            "v": 73, 
                            "dur": 60, 
                            "type": "note", 
                            "channel": 12
                        }, 
                        {
                            "pitch": 33, 
                            "t0": 103980, 
                            "v": 73, 
                            "dur": 60, 
                            "type": "note", 
                            "channel": 12
                        }, 
                        {
                            "pitch": 45, 
                            "t0": 103980, 
                            "v": 73, 
                            "dur": 60, 
                            "type": "note", 
                            "channel": 12
                        }, 
                        {
                            "pitch": 57, 
                            "t0": 103980, 
                            "v": 73, 
                            "dur": 60, 
                            "type": "note", 
                            "channel": 12
                        }
                    ]
                ], 
                [
                    104160, 
                    [
                        {
                            "pitch": 69, 
                            "t0": 104160, 
                            "v": 74, 
                            "dur": 60, 
                            "type": "note", 
                            "channel": 12
                        }, 
                        {
                            "pitch": 45, 
                            "t0": 104160, 
                            "parts": [
                                [
                                    104160, 
                                    60
                                ], 
                                [
                                    104160, 
                                    74
                                ], 
                                [
                                    104220, 
                                    0
                                ]
                            ], 
                            "v": 60, 
                            "dur": 60, 
                            "type": "note", 
                            "channel": 12
                        }, 
                        {
                            "pitch": 57, 
                            "t0": 104160, 
                            "parts": [
                                [
                                    104160, 
                                    60
                                ], 
                                [
                                    104160, 
                                    74
                                ], 
                                [
                                    104220, 
                                    0
                                ]
                            ], 
                            "v": 60, 
                            "dur": 60, 
                            "type": "note", 
                            "channel": 12
                        }, 
                        {
                            "pitch": 33, 
                            "t0": 104160, 
                            "v": 74, 
                            "dur": 60, 
                            "type": "note", 
                            "channel": 12
                        }
                    ]
                ], 
                [
                    104640, 
                    [
                        {
                            "pitch": 45, 
                            "t0": 104640, 
                            "v": 60, 
                            "dur": 120, 
                            "type": "note", 
                            "channel": 12
                        }, 
                        {
                            "pitch": 57, 
                            "t0": 104640, 
                            "v": 60, 
                            "dur": 120, 
                            "type": "note", 
                            "channel": 12
                        }
                    ]
                ], 
                [
                    105120, 
                    [
                        {
                            "pitch": 45, 
                            "t0": 105120, 
                            "v": 60, 
                            "dur": 120, 
                            "type": "note", 
                            "channel": 12
                        }, 
                        {
                            "pitch": 57, 
                            "t0": 105120, 
                            "v": 60, 
                            "dur": 120, 
                            "type": "note", 
                            "channel": 12
                        }
                    ]
                ], 
                [
                    105600, 
                    [
                        {
                            "pitch": 36, 
                            "t0": 105600, 
                            "v": 56, 
                            "dur": 60, 
                            "type": "note", 
                            "channel": 12
                        }, 
                        {
                            "pitch": 48, 
                            "t0": 105600, 
                            "parts": [
                                [
                                    105600, 
                                    60
                                ], 
                                [
                                    105600, 
                                    56
                                ], 
                                [
                                    105660, 
                                    0
                                ]
                            ], 
                            "v": 60, 
                            "dur": 60, 
                            "type": "note", 
                            "channel": 12
                        }, 
                        {
                            "pitch": 60, 
                            "t0": 105600, 
                            "parts": [
                                [
                                    105600, 
                                    60
                                ], 
                                [
                                    105600, 
                                    56
                                ], 
                                [
                                    105660, 
                                    0
                                ]
                            ], 
                            "v": 60, 
                            "dur": 60, 
                            "type": "note", 
                            "channel": 12
                        }, 
                        {
                            "pitch": 72, 
                            "t0": 105600, 
                            "v": 56, 
                            "dur": 60, 
                            "type": "note", 
                            "channel": 12
                        }
                    ]
                ], 
                [
                    105720, 
                    [
                        {
                            "pitch": 36, 
                            "t0": 105720, 
                            "v": 56, 
                            "dur": 60, 
                            "type": "note", 
                            "channel": 12
                        }, 
                        {
                            "pitch": 72, 
                            "t0": 105720, 
                            "v": 56, 
                            "dur": 60, 
                            "type": "note", 
                            "channel": 12
                        }, 
                        {
                            "pitch": 60, 
                            "t0": 105720, 
                            "v": 56, 
                            "dur": 60, 
                            "type": "note", 
                            "channel": 12
                        }, 
                        {
                            "pitch": 48, 
                            "t0": 105720, 
                            "v": 56, 
                            "dur": 60, 
                            "type": "note", 
                            "channel": 12
                        }
                    ]
                ], 
                [
                    105900, 
                    [
                        {
                            "pitch": 36, 
                            "t0": 105900, 
                            "v": 56, 
                            "dur": 60, 
                            "type": "note", 
                            "channel": 12
                        }, 
                        {
                            "pitch": 72, 
                            "t0": 105900, 
                            "v": 56, 
                            "dur": 60, 
                            "type": "note", 
                            "channel": 12
                        }, 
                        {
                            "pitch": 60, 
                            "t0": 105900, 
                            "v": 56, 
                            "dur": 60, 
                            "type": "note", 
                            "channel": 12
                        }, 
                        {
                            "pitch": 48, 
                            "t0": 105900, 
                            "v": 56, 
                            "dur": 60, 
                            "type": "note", 
                            "channel": 12
                        }
                    ]
                ], 
                [
                    106080, 
                    [
                        {
                            "pitch": 36, 
                            "t0": 106080, 
                            "v": 56, 
                            "dur": 60, 
                            "type": "note", 
                            "channel": 12
                        }, 
                        {
                            "pitch": 48, 
                            "t0": 106080, 
                            "parts": [
                                [
                                    106080, 
                                    60
                                ], 
                                [
                                    106080, 
                                    56
                                ], 
                                [
                                    106140, 
                                    0
                                ]
                            ], 
                            "v": 60, 
                            "dur": 60, 
                            "type": "note", 
                            "channel": 12
                        }, 
                        {
                            "pitch": 60, 
                            "t0": 106080, 
                            "parts": [
                                [
                                    106080, 
                                    60
                                ], 
                                [
                                    106080, 
                                    56
                                ], 
                                [
                                    106140, 
                                    0
                                ]
                            ], 
                            "v": 60, 
                            "dur": 60, 
                            "type": "note", 
                            "channel": 12
                        }, 
                        {
                            "pitch": 72, 
                            "t0": 106080, 
                            "v": 56, 
                            "dur": 60, 
                            "type": "note", 
                            "channel": 12
                        }
                    ]
                ], 
                [
                    106560, 
                    [
                        {
                            "pitch": 67, 
                            "t0": 106560, 
                            "v": 56, 
                            "dur": 60, 
                            "type": "note", 
                            "channel": 12
                        }, 
                        {
                            "pitch": 43, 
                            "t0": 106560, 
                            "parts": [
                                [
                                    106560, 
                                    60
                                ], 
                                [
                                    106560, 
                                    56
                                ], 
                                [
                                    106620, 
                                    0
                                ]
                            ], 
                            "v": 60, 
                            "dur": 60, 
                            "type": "note", 
                            "channel": 12
                        }, 
                        {
                            "pitch": 55, 
                            "t0": 106560, 
                            "parts": [
                                [
                                    106560, 
                                    60
                                ], 
                                [
                                    106560, 
                                    56
                                ], 
                                [
                                    106620, 
                                    0
                                ]
                            ], 
                            "v": 60, 
                            "dur": 60, 
                            "type": "note", 
                            "channel": 12
                        }, 
                        {
                            "pitch": 31, 
                            "t0": 106560, 
                            "v": 56, 
                            "dur": 60, 
                            "type": "note", 
                            "channel": 12
                        }
                    ]
                ], 
                [
                    106680, 
                    [
                        {
                            "pitch": 67, 
                            "t0": 106680, 
                            "v": 56, 
                            "dur": 60, 
                            "type": "note", 
                            "channel": 12
                        }, 
                        {
                            "pitch": 31, 
                            "t0": 106680, 
                            "v": 56, 
                            "dur": 60, 
                            "type": "note", 
                            "channel": 12
                        }, 
                        {
                            "pitch": 43, 
                            "t0": 106680, 
                            "v": 56, 
                            "dur": 60, 
                            "type": "note", 
                            "channel": 12
                        }, 
                        {
                            "pitch": 55, 
                            "t0": 106680, 
                            "v": 56, 
                            "dur": 60, 
                            "type": "note", 
                            "channel": 12
                        }
                    ]
                ], 
                [
                    106860, 
                    [
                        {
                            "pitch": 67, 
                            "t0": 106860, 
                            "v": 56, 
                            "dur": 60, 
                            "type": "note", 
                            "channel": 12
                        }, 
                        {
                            "pitch": 31, 
                            "t0": 106860, 
                            "v": 56, 
                            "dur": 60, 
                            "type": "note", 
                            "channel": 12
                        }, 
                        {
                            "pitch": 43, 
                            "t0": 106860, 
                            "v": 56, 
                            "dur": 60, 
                            "type": "note", 
                            "channel": 12
                        }, 
                        {
                            "pitch": 55, 
                            "t0": 106860, 
                            "v": 56, 
                            "dur": 60, 
                            "type": "note", 
                            "channel": 12
                        }
                    ]
                ], 
                [
                    107040, 
                    [
                        {
                            "pitch": 67, 
                            "t0": 107040, 
                            "v": 56, 
                            "dur": 60, 
                            "type": "note", 
                            "channel": 12
                        }, 
                        {
                            "pitch": 55, 
                            "t0": 107040, 
                            "parts": [
                                [
                                    107040, 
                                    60
                                ], 
                                [
                                    107040, 
                                    56
                                ], 
                                [
                                    107100, 
                                    0
                                ]
                            ], 
                            "v": 60, 
                            "dur": 60, 
                            "type": "note", 
                            "channel": 12
                        }, 
                        {
                            "pitch": 43, 
                            "t0": 107040, 
                            "parts": [
                                [
                                    107040, 
                                    60
                                ], 
                                [
                                    107040, 
                                    56
                                ], 
                                [
                                    107100, 
                                    0
                                ]
                            ], 
                            "v": 60, 
                            "dur": 60, 
                            "type": "note", 
                            "channel": 12
                        }, 
                        {
                            "pitch": 31, 
                            "t0": 107040, 
                            "v": 56, 
                            "dur": 60, 
                            "type": "note", 
                            "channel": 12
                        }
                    ]
                ], 
                [
                    107520, 
                    [
                        {
                            "pitch": 33, 
                            "t0": 107520, 
                            "v": 56, 
                            "dur": 60, 
                            "type": "note", 
                            "channel": 12
                        }, 
                        {
                            "pitch": 45, 
                            "t0": 107520, 
                            "parts": [
                                [
                                    107520, 
                                    60
                                ], 
                                [
                                    107520, 
                                    56
                                ], 
                                [
                                    107580, 
                                    0
                                ]
                            ], 
                            "v": 60, 
                            "dur": 60, 
                            "type": "note", 
                            "channel": 12
                        }, 
                        {
                            "pitch": 57, 
                            "t0": 107520, 
                            "parts": [
                                [
                                    107520, 
                                    60
                                ], 
                                [
                                    107520, 
                                    56
                                ], 
                                [
                                    107580, 
                                    0
                                ]
                            ], 
                            "v": 60, 
                            "dur": 60, 
                            "type": "note", 
                            "channel": 12
                        }, 
                        {
                            "pitch": 69, 
                            "t0": 107520, 
                            "v": 56, 
                            "dur": 60, 
                            "type": "note", 
                            "channel": 12
                        }
                    ]
                ], 
                [
                    107640, 
                    [
                        {
                            "pitch": 33, 
                            "t0": 107640, 
                            "v": 56, 
                            "dur": 60, 
                            "type": "note", 
                            "channel": 12
                        }, 
                        {
                            "pitch": 69, 
                            "t0": 107640, 
                            "v": 56, 
                            "dur": 60, 
                            "type": "note", 
                            "channel": 12
                        }, 
                        {
                            "pitch": 57, 
                            "t0": 107640, 
                            "v": 56, 
                            "dur": 60, 
                            "type": "note", 
                            "channel": 12
                        }, 
                        {
                            "pitch": 45, 
                            "t0": 107640, 
                            "v": 56, 
                            "dur": 60, 
                            "type": "note", 
                            "channel": 12
                        }
                    ]
                ], 
                [
                    107820, 
                    [
                        {
                            "pitch": 33, 
                            "t0": 107820, 
                            "v": 56, 
                            "dur": 60, 
                            "type": "note", 
                            "channel": 12
                        }, 
                        {
                            "pitch": 69, 
                            "t0": 107820, 
                            "v": 56, 
                            "dur": 60, 
                            "type": "note", 
                            "channel": 12
                        }, 
                        {
                            "pitch": 57, 
                            "t0": 107820, 
                            "v": 56, 
                            "dur": 60, 
                            "type": "note", 
                            "channel": 12
                        }, 
                        {
                            "pitch": 45, 
                            "t0": 107820, 
                            "v": 56, 
                            "dur": 60, 
                            "type": "note", 
                            "channel": 12
                        }
                    ]
                ], 
                [
                    108000, 
                    [
                        {
                            "pitch": 33, 
                            "t0": 108000, 
                            "v": 56, 
                            "dur": 60, 
                            "type": "note", 
                            "channel": 12
                        }, 
                        {
                            "pitch": 45, 
                            "t0": 108000, 
                            "parts": [
                                [
                                    108000, 
                                    60
                                ], 
                                [
                                    108000, 
                                    56
                                ], 
                                [
                                    108060, 
                                    0
                                ]
                            ], 
                            "v": 60, 
                            "dur": 60, 
                            "type": "note", 
                            "channel": 12
                        }, 
                        {
                            "pitch": 57, 
                            "t0": 108000, 
                            "parts": [
                                [
                                    108000, 
                                    60
                                ], 
                                [
                                    108000, 
                                    56
                                ], 
                                [
                                    108060, 
                                    0
                                ]
                            ], 
                            "v": 60, 
                            "dur": 60, 
                            "type": "note", 
                            "channel": 12
                        }, 
                        {
                            "pitch": 69, 
                            "t0": 108000, 
                            "v": 56, 
                            "dur": 60, 
                            "type": "note", 
                            "channel": 12
                        }
                    ]
                ], 
                [
                    108480, 
                    [
                        {
                            "pitch": 28, 
                            "t0": 108480, 
                            "v": 56, 
                            "dur": 60, 
                            "type": "note", 
                            "channel": 12
                        }, 
                        {
                            "pitch": 40, 
                            "t0": 108480, 
                            "parts": [
                                [
                                    108480, 
                                    60
                                ], 
                                [
                                    108480, 
                                    56
                                ], 
                                [
                                    108540, 
                                    0
                                ]
                            ], 
                            "v": 60, 
                            "dur": 60, 
                            "type": "note", 
                            "channel": 12
                        }, 
                        {
                            "pitch": 52, 
                            "t0": 108480, 
                            "parts": [
                                [
                                    108480, 
                                    60
                                ], 
                                [
                                    108480, 
                                    56
                                ], 
                                [
                                    108540, 
                                    0
                                ]
                            ], 
                            "v": 60, 
                            "dur": 60, 
                            "type": "note", 
                            "channel": 12
                        }, 
                        {
                            "pitch": 64, 
                            "t0": 108480, 
                            "v": 56, 
                            "dur": 60, 
                            "type": "note", 
                            "channel": 12
                        }
                    ]
                ], 
                [
                    108600, 
                    [
                        {
                            "pitch": 28, 
                            "t0": 108600, 
                            "v": 56, 
                            "dur": 60, 
                            "type": "note", 
                            "channel": 12
                        }, 
                        {
                            "pitch": 64, 
                            "t0": 108600, 
                            "v": 56, 
                            "dur": 60, 
                            "type": "note", 
                            "channel": 12
                        }, 
                        {
                            "pitch": 52, 
                            "t0": 108600, 
                            "v": 56, 
                            "dur": 60, 
                            "type": "note", 
                            "channel": 12
                        }, 
                        {
                            "pitch": 40, 
                            "t0": 108600, 
                            "v": 56, 
                            "dur": 60, 
                            "type": "note", 
                            "channel": 12
                        }
                    ]
                ], 
                [
                    108780, 
                    [
                        {
                            "pitch": 28, 
                            "t0": 108780, 
                            "v": 56, 
                            "dur": 60, 
                            "type": "note", 
                            "channel": 12
                        }, 
                        {
                            "pitch": 64, 
                            "t0": 108780, 
                            "v": 56, 
                            "dur": 60, 
                            "type": "note", 
                            "channel": 12
                        }, 
                        {
                            "pitch": 52, 
                            "t0": 108780, 
                            "v": 56, 
                            "dur": 60, 
                            "type": "note", 
                            "channel": 12
                        }, 
                        {
                            "pitch": 40, 
                            "t0": 108780, 
                            "v": 56, 
                            "dur": 60, 
                            "type": "note", 
                            "channel": 12
                        }
                    ]
                ], 
                [
                    108960, 
                    [
                        {
                            "pitch": 28, 
                            "t0": 108960, 
                            "v": 56, 
                            "dur": 60, 
                            "type": "note", 
                            "channel": 12
                        }, 
                        {
                            "pitch": 40, 
                            "t0": 108960, 
                            "parts": [
                                [
                                    108960, 
                                    60
                                ], 
                                [
                                    108960, 
                                    56
                                ], 
                                [
                                    109020, 
                                    0
                                ]
                            ], 
                            "v": 60, 
                            "dur": 60, 
                            "type": "note", 
                            "channel": 12
                        }, 
                        {
                            "pitch": 52, 
                            "t0": 108960, 
                            "parts": [
                                [
                                    108960, 
                                    60
                                ], 
                                [
                                    108960, 
                                    56
                                ], 
                                [
                                    109020, 
                                    0
                                ]
                            ], 
                            "v": 60, 
                            "dur": 60, 
                            "type": "note", 
                            "channel": 12
                        }, 
                        {
                            "pitch": 64, 
                            "t0": 108960, 
                            "v": 56, 
                            "dur": 60, 
                            "type": "note", 
                            "channel": 12
                        }
                    ]
                ], 
                [
                    109440, 
                    [
                        {
                            "pitch": 65, 
                            "t0": 109440, 
                            "v": 56, 
                            "dur": 60, 
                            "type": "note", 
                            "channel": 12
                        }, 
                        {
                            "pitch": 41, 
                            "t0": 109440, 
                            "parts": [
                                [
                                    109440, 
                                    60
                                ], 
                                [
                                    109440, 
                                    56
                                ], 
                                [
                                    109500, 
                                    0
                                ]
                            ], 
                            "v": 60, 
                            "dur": 60, 
                            "type": "note", 
                            "channel": 12
                        }, 
                        {
                            "pitch": 53, 
                            "t0": 109440, 
                            "parts": [
                                [
                                    109440, 
                                    60
                                ], 
                                [
                                    109440, 
                                    56
                                ], 
                                [
                                    109500, 
                                    0
                                ]
                            ], 
                            "v": 60, 
                            "dur": 60, 
                            "type": "note", 
                            "channel": 12
                        }, 
                        {
                            "pitch": 29, 
                            "t0": 109440, 
                            "v": 56, 
                            "dur": 60, 
                            "type": "note", 
                            "channel": 12
                        }
                    ]
                ], 
                [
                    109560, 
                    [
                        {
                            "pitch": 65, 
                            "t0": 109560, 
                            "v": 57, 
                            "dur": 60, 
                            "type": "note", 
                            "channel": 12
                        }, 
                        {
                            "pitch": 29, 
                            "t0": 109560, 
                            "v": 57, 
                            "dur": 60, 
                            "type": "note", 
                            "channel": 12
                        }, 
                        {
                            "pitch": 41, 
                            "t0": 109560, 
                            "v": 57, 
                            "dur": 60, 
                            "type": "note", 
                            "channel": 12
                        }, 
                        {
                            "pitch": 53, 
                            "t0": 109560, 
                            "v": 57, 
                            "dur": 60, 
                            "type": "note", 
                            "channel": 12
                        }
                    ]
                ], 
                [
                    109740, 
                    [
                        {
                            "pitch": 65, 
                            "t0": 109740, 
                            "v": 58, 
                            "dur": 60, 
                            "type": "note", 
                            "channel": 12
                        }, 
                        {
                            "pitch": 29, 
                            "t0": 109740, 
                            "v": 58, 
                            "dur": 60, 
                            "type": "note", 
                            "channel": 12
                        }, 
                        {
                            "pitch": 41, 
                            "t0": 109740, 
                            "v": 58, 
                            "dur": 60, 
                            "type": "note", 
                            "channel": 12
                        }, 
                        {
                            "pitch": 53, 
                            "t0": 109740, 
                            "v": 58, 
                            "dur": 60, 
                            "type": "note", 
                            "channel": 12
                        }
                    ]
                ], 
                [
                    109920, 
                    [
                        {
                            "pitch": 65, 
                            "t0": 109920, 
                            "v": 60, 
                            "dur": 60, 
                            "type": "note", 
                            "channel": 12
                        }, 
                        {
                            "pitch": 53, 
                            "t0": 109920, 
                            "v": 60, 
                            "dur": 60, 
                            "type": "note", 
                            "channel": 12
                        }, 
                        {
                            "pitch": 41, 
                            "t0": 109920, 
                            "v": 60, 
                            "dur": 60, 
                            "type": "note", 
                            "channel": 12
                        }, 
                        {
                            "pitch": 29, 
                            "t0": 109920, 
                            "v": 60, 
                            "dur": 60, 
                            "type": "note", 
                            "channel": 12
                        }
                    ]
                ], 
                [
                    110400, 
                    [
                        {
                            "pitch": 67, 
                            "t0": 110400, 
                            "v": 64, 
                            "dur": 60, 
                            "type": "note", 
                            "channel": 12
                        }, 
                        {
                            "pitch": 43, 
                            "t0": 110400, 
                            "parts": [
                                [
                                    110400, 
                                    60
                                ], 
                                [
                                    110400, 
                                    64
                                ], 
                                [
                                    110460, 
                                    0
                                ]
                            ], 
                            "v": 60, 
                            "dur": 60, 
                            "type": "note", 
                            "channel": 12
                        }, 
                        {
                            "pitch": 55, 
                            "t0": 110400, 
                            "parts": [
                                [
                                    110400, 
                                    60
                                ], 
                                [
                                    110400, 
                                    64
                                ], 
                                [
                                    110460, 
                                    0
                                ]
                            ], 
                            "v": 60, 
                            "dur": 60, 
                            "type": "note", 
                            "channel": 12
                        }, 
                        {
                            "pitch": 31, 
                            "t0": 110400, 
                            "v": 64, 
                            "dur": 60, 
                            "type": "note", 
                            "channel": 12
                        }
                    ]
                ], 
                [
                    110520, 
                    [
                        {
                            "pitch": 67, 
                            "t0": 110520, 
                            "v": 65, 
                            "dur": 60, 
                            "type": "note", 
                            "channel": 12
                        }, 
                        {
                            "pitch": 31, 
                            "t0": 110520, 
                            "v": 65, 
                            "dur": 60, 
                            "type": "note", 
                            "channel": 12
                        }, 
                        {
                            "pitch": 43, 
                            "t0": 110520, 
                            "v": 65, 
                            "dur": 60, 
                            "type": "note", 
                            "channel": 12
                        }, 
                        {
                            "pitch": 55, 
                            "t0": 110520, 
                            "v": 65, 
                            "dur": 60, 
                            "type": "note", 
                            "channel": 12
                        }
                    ]
                ], 
                [
                    110700, 
                    [
                        {
                            "pitch": 67, 
                            "t0": 110700, 
                            "v": 67, 
                            "dur": 60, 
                            "type": "note", 
                            "channel": 12
                        }, 
                        {
                            "pitch": 31, 
                            "t0": 110700, 
                            "v": 67, 
                            "dur": 60, 
                            "type": "note", 
                            "channel": 12
                        }, 
                        {
                            "pitch": 43, 
                            "t0": 110700, 
                            "v": 67, 
                            "dur": 60, 
                            "type": "note", 
                            "channel": 12
                        }, 
                        {
                            "pitch": 55, 
                            "t0": 110700, 
                            "v": 67, 
                            "dur": 60, 
                            "type": "note", 
                            "channel": 12
                        }
                    ]
                ], 
                [
                    110880, 
                    [
                        {
                            "pitch": 67, 
                            "t0": 110880, 
                            "v": 68, 
                            "dur": 60, 
                            "type": "note", 
                            "channel": 12
                        }, 
                        {
                            "pitch": 43, 
                            "t0": 110880, 
                            "parts": [
                                [
                                    110880, 
                                    60
                                ], 
                                [
                                    110880, 
                                    68
                                ], 
                                [
                                    110940, 
                                    0
                                ]
                            ], 
                            "v": 60, 
                            "dur": 60, 
                            "type": "note", 
                            "channel": 12
                        }, 
                        {
                            "pitch": 55, 
                            "t0": 110880, 
                            "parts": [
                                [
                                    110880, 
                                    60
                                ], 
                                [
                                    110880, 
                                    68
                                ], 
                                [
                                    110940, 
                                    0
                                ]
                            ], 
                            "v": 60, 
                            "dur": 60, 
                            "type": "note", 
                            "channel": 12
                        }, 
                        {
                            "pitch": 31, 
                            "t0": 110880, 
                            "v": 68, 
                            "dur": 60, 
                            "type": "note", 
                            "channel": 12
                        }
                    ]
                ], 
                [
                    111360, 
                    [
                        {
                            "pitch": 69, 
                            "t0": 111360, 
                            "v": 72, 
                            "dur": 60, 
                            "type": "note", 
                            "channel": 12
                        }, 
                        {
                            "pitch": 57, 
                            "t0": 111360, 
                            "parts": [
                                [
                                    111360, 
                                    60
                                ], 
                                [
                                    111360, 
                                    72
                                ], 
                                [
                                    111420, 
                                    0
                                ]
                            ], 
                            "v": 60, 
                            "dur": 60, 
                            "type": "note", 
                            "channel": 12
                        }, 
                        {
                            "pitch": 45, 
                            "t0": 111360, 
                            "parts": [
                                [
                                    111360, 
                                    60
                                ], 
                                [
                                    111360, 
                                    72
                                ], 
                                [
                                    111420, 
                                    0
                                ]
                            ], 
                            "v": 60, 
                            "dur": 60, 
                            "type": "note", 
                            "channel": 12
                        }, 
                        {
                            "pitch": 33, 
                            "t0": 111360, 
                            "v": 72, 
                            "dur": 60, 
                            "type": "note", 
                            "channel": 12
                        }
                    ]
                ], 
                [
                    111480, 
                    [
                        {
                            "pitch": 69, 
                            "t0": 111480, 
                            "v": 73, 
                            "dur": 60, 
                            "type": "note", 
                            "channel": 12
                        }, 
                        {
                            "pitch": 33, 
                            "t0": 111480, 
                            "v": 73, 
                            "dur": 60, 
                            "type": "note", 
                            "channel": 12
                        }, 
                        {
                            "pitch": 45, 
                            "t0": 111480, 
                            "v": 73, 
                            "dur": 60, 
                            "type": "note", 
                            "channel": 12
                        }, 
                        {
                            "pitch": 57, 
                            "t0": 111480, 
                            "v": 73, 
                            "dur": 60, 
                            "type": "note", 
                            "channel": 12
                        }
                    ]
                ], 
                [
                    111660, 
                    [
                        {
                            "pitch": 69, 
                            "t0": 111660, 
                            "v": 75, 
                            "dur": 60, 
                            "type": "note", 
                            "channel": 12
                        }, 
                        {
                            "pitch": 33, 
                            "t0": 111660, 
                            "v": 75, 
                            "dur": 60, 
                            "type": "note", 
                            "channel": 12
                        }, 
                        {
                            "pitch": 45, 
                            "t0": 111660, 
                            "v": 75, 
                            "dur": 60, 
                            "type": "note", 
                            "channel": 12
                        }, 
                        {
                            "pitch": 57, 
                            "t0": 111660, 
                            "v": 75, 
                            "dur": 60, 
                            "type": "note", 
                            "channel": 12
                        }
                    ]
                ], 
                [
                    111840, 
                    [
                        {
                            "pitch": 69, 
                            "t0": 111840, 
                            "v": 76, 
                            "dur": 60, 
                            "type": "note", 
                            "channel": 12
                        }, 
                        {
                            "pitch": 45, 
                            "t0": 111840, 
                            "parts": [
                                [
                                    111840, 
                                    60
                                ], 
                                [
                                    111840, 
                                    76
                                ], 
                                [
                                    111900, 
                                    0
                                ]
                            ], 
                            "v": 60, 
                            "dur": 60, 
                            "type": "note", 
                            "channel": 12
                        }, 
                        {
                            "pitch": 57, 
                            "t0": 111840, 
                            "parts": [
                                [
                                    111840, 
                                    60
                                ], 
                                [
                                    111840, 
                                    76
                                ], 
                                [
                                    111900, 
                                    0
                                ]
                            ], 
                            "v": 60, 
                            "dur": 60, 
                            "type": "note", 
                            "channel": 12
                        }, 
                        {
                            "pitch": 33, 
                            "t0": 111840, 
                            "v": 76, 
                            "dur": 60, 
                            "type": "note", 
                            "channel": 12
                        }
                    ]
                ], 
                [
                    112320, 
                    [
                        {
                            "pitch": 45, 
                            "t0": 112320, 
                            "v": 60, 
                            "dur": 120, 
                            "type": "note", 
                            "channel": 12
                        }, 
                        {
                            "pitch": 57, 
                            "t0": 112320, 
                            "v": 60, 
                            "dur": 120, 
                            "type": "note", 
                            "channel": 12
                        }
                    ]
                ], 
                [
                    112800, 
                    [
                        {
                            "pitch": 45, 
                            "t0": 112800, 
                            "v": 60, 
                            "dur": 120, 
                            "type": "note", 
                            "channel": 12
                        }, 
                        {
                            "pitch": 57, 
                            "t0": 112800, 
                            "v": 60, 
                            "dur": 120, 
                            "type": "note", 
                            "channel": 12
                        }
                    ]
                ], 
                [
                    201600, 
                    [
                        {
                            "pitch": 72, 
                            "t0": 201600, 
                            "v": 56, 
                            "dur": 60, 
                            "type": "note", 
                            "channel": 12
                        }, 
                        {
                            "pitch": 60, 
                            "t0": 201600, 
                            "parts": [
                                [
                                    201600, 
                                    60
                                ], 
                                [
                                    201600, 
                                    56
                                ], 
                                [
                                    201660, 
                                    0
                                ]
                            ], 
                            "v": 60, 
                            "dur": 60, 
                            "type": "note", 
                            "channel": 12
                        }, 
                        {
                            "pitch": 48, 
                            "t0": 201600, 
                            "parts": [
                                [
                                    201600, 
                                    60
                                ], 
                                [
                                    201600, 
                                    56
                                ], 
                                [
                                    201660, 
                                    0
                                ]
                            ], 
                            "v": 60, 
                            "dur": 60, 
                            "type": "note", 
                            "channel": 12
                        }, 
                        {
                            "pitch": 36, 
                            "t0": 201600, 
                            "v": 56, 
                            "dur": 60, 
                            "type": "note", 
                            "channel": 12
                        }
                    ]
                ], 
                [
                    201720, 
                    [
                        {
                            "pitch": 72, 
                            "t0": 201720, 
                            "v": 56, 
                            "dur": 60, 
                            "type": "note", 
                            "channel": 12
                        }, 
                        {
                            "pitch": 36, 
                            "t0": 201720, 
                            "v": 56, 
                            "dur": 60, 
                            "type": "note", 
                            "channel": 12
                        }, 
                        {
                            "pitch": 48, 
                            "t0": 201720, 
                            "v": 56, 
                            "dur": 60, 
                            "type": "note", 
                            "channel": 12
                        }, 
                        {
                            "pitch": 60, 
                            "t0": 201720, 
                            "v": 56, 
                            "dur": 60, 
                            "type": "note", 
                            "channel": 12
                        }
                    ]
                ], 
                [
                    201900, 
                    [
                        {
                            "pitch": 72, 
                            "t0": 201900, 
                            "v": 56, 
                            "dur": 60, 
                            "type": "note", 
                            "channel": 12
                        }, 
                        {
                            "pitch": 36, 
                            "t0": 201900, 
                            "v": 56, 
                            "dur": 60, 
                            "type": "note", 
                            "channel": 12
                        }, 
                        {
                            "pitch": 48, 
                            "t0": 201900, 
                            "v": 56, 
                            "dur": 60, 
                            "type": "note", 
                            "channel": 12
                        }, 
                        {
                            "pitch": 60, 
                            "t0": 201900, 
                            "v": 56, 
                            "dur": 60, 
                            "type": "note", 
                            "channel": 12
                        }
                    ]
                ], 
                [
                    202080, 
                    [
                        {
                            "pitch": 72, 
                            "t0": 202080, 
                            "v": 56, 
                            "dur": 60, 
                            "type": "note", 
                            "channel": 12
                        }, 
                        {
                            "pitch": 60, 
                            "t0": 202080, 
                            "parts": [
                                [
                                    202080, 
                                    60
                                ], 
                                [
                                    202080, 
                                    56
                                ], 
                                [
                                    202140, 
                                    0
                                ]
                            ], 
                            "v": 60, 
                            "dur": 60, 
                            "type": "note", 
                            "channel": 12
                        }, 
                        {
                            "pitch": 48, 
                            "t0": 202080, 
                            "parts": [
                                [
                                    202080, 
                                    60
                                ], 
                                [
                                    202080, 
                                    56
                                ], 
                                [
                                    202140, 
                                    0
                                ]
                            ], 
                            "v": 60, 
                            "dur": 60, 
                            "type": "note", 
                            "channel": 12
                        }, 
                        {
                            "pitch": 36, 
                            "t0": 202080, 
                            "v": 56, 
                            "dur": 60, 
                            "type": "note", 
                            "channel": 12
                        }
                    ]
                ], 
                [
                    202560, 
                    [
                        {
                            "pitch": 48, 
                            "t0": 202560, 
                            "v": 60, 
                            "dur": 120, 
                            "type": "note", 
                            "channel": 12
                        }, 
                        {
                            "pitch": 60, 
                            "t0": 202560, 
                            "v": 60, 
                            "dur": 120, 
                            "type": "note", 
                            "channel": 12
                        }
                    ]
                ], 
                [
                    203040, 
                    [
                        {
                            "pitch": 60, 
                            "t0": 203040, 
                            "v": 60, 
                            "dur": 120, 
                            "type": "note", 
                            "channel": 12
                        }, 
                        {
                            "pitch": 48, 
                            "t0": 203040, 
                            "v": 60, 
                            "dur": 120, 
                            "type": "note", 
                            "channel": 12
                        }
                    ]
                ], 
                [
                    203520, 
                    [
                        {
                            "pitch": 67, 
                            "t0": 203520, 
                            "v": 56, 
                            "dur": 60, 
                            "type": "note", 
                            "channel": 12
                        }, 
                        {
                            "pitch": 55, 
                            "t0": 203520, 
                            "parts": [
                                [
                                    203520, 
                                    60
                                ], 
                                [
                                    203520, 
                                    56
                                ], 
                                [
                                    203580, 
                                    0
                                ]
                            ], 
                            "v": 60, 
                            "dur": 60, 
                            "type": "note", 
                            "channel": 12
                        }, 
                        {
                            "pitch": 43, 
                            "t0": 203520, 
                            "parts": [
                                [
                                    203520, 
                                    60
                                ], 
                                [
                                    203520, 
                                    56
                                ], 
                                [
                                    203580, 
                                    0
                                ]
                            ], 
                            "v": 60, 
                            "dur": 60, 
                            "type": "note", 
                            "channel": 12
                        }, 
                        {
                            "pitch": 31, 
                            "t0": 203520, 
                            "v": 56, 
                            "dur": 60, 
                            "type": "note", 
                            "channel": 12
                        }
                    ]
                ], 
                [
                    203640, 
                    [
                        {
                            "pitch": 67, 
                            "t0": 203640, 
                            "v": 56, 
                            "dur": 60, 
                            "type": "note", 
                            "channel": 12
                        }, 
                        {
                            "pitch": 31, 
                            "t0": 203640, 
                            "v": 56, 
                            "dur": 60, 
                            "type": "note", 
                            "channel": 12
                        }, 
                        {
                            "pitch": 43, 
                            "t0": 203640, 
                            "v": 56, 
                            "dur": 60, 
                            "type": "note", 
                            "channel": 12
                        }, 
                        {
                            "pitch": 55, 
                            "t0": 203640, 
                            "v": 56, 
                            "dur": 60, 
                            "type": "note", 
                            "channel": 12
                        }
                    ]
                ], 
                [
                    203820, 
                    [
                        {
                            "pitch": 67, 
                            "t0": 203820, 
                            "v": 56, 
                            "dur": 60, 
                            "type": "note", 
                            "channel": 12
                        }, 
                        {
                            "pitch": 31, 
                            "t0": 203820, 
                            "v": 56, 
                            "dur": 60, 
                            "type": "note", 
                            "channel": 12
                        }, 
                        {
                            "pitch": 43, 
                            "t0": 203820, 
                            "v": 56, 
                            "dur": 60, 
                            "type": "note", 
                            "channel": 12
                        }, 
                        {
                            "pitch": 55, 
                            "t0": 203820, 
                            "v": 56, 
                            "dur": 60, 
                            "type": "note", 
                            "channel": 12
                        }
                    ]
                ], 
                [
                    204000, 
                    [
                        {
                            "pitch": 67, 
                            "t0": 204000, 
                            "v": 56, 
                            "dur": 60, 
                            "type": "note", 
                            "channel": 12
                        }, 
                        {
                            "pitch": 43, 
                            "t0": 204000, 
                            "parts": [
                                [
                                    204000, 
                                    60
                                ], 
                                [
                                    204000, 
                                    56
                                ], 
                                [
                                    204060, 
                                    0
                                ]
                            ], 
                            "v": 60, 
                            "dur": 60, 
                            "type": "note", 
                            "channel": 12
                        }, 
                        {
                            "pitch": 55, 
                            "t0": 204000, 
                            "parts": [
                                [
                                    204000, 
                                    60
                                ], 
                                [
                                    204000, 
                                    56
                                ], 
                                [
                                    204060, 
                                    0
                                ]
                            ], 
                            "v": 60, 
                            "dur": 60, 
                            "type": "note", 
                            "channel": 12
                        }, 
                        {
                            "pitch": 31, 
                            "t0": 204000, 
                            "v": 56, 
                            "dur": 60, 
                            "type": "note", 
                            "channel": 12
                        }
                    ]
                ], 
                [
                    204480, 
                    [
                        {
                            "pitch": 55, 
                            "t0": 204480, 
                            "v": 60, 
                            "dur": 120, 
                            "type": "note", 
                            "channel": 12
                        }, 
                        {
                            "pitch": 43, 
                            "t0": 204480, 
                            "v": 60, 
                            "dur": 120, 
                            "type": "note", 
                            "channel": 12
                        }
                    ]
                ], 
                [
                    204960, 
                    [
                        {
                            "pitch": 43, 
                            "t0": 204960, 
                            "v": 60, 
                            "dur": 120, 
                            "type": "note", 
                            "channel": 12
                        }, 
                        {
                            "pitch": 55, 
                            "t0": 204960, 
                            "v": 60, 
                            "dur": 120, 
                            "type": "note", 
                            "channel": 12
                        }
                    ]
                ], 
                [
                    205440, 
                    [
                        {
                            "pitch": 69, 
                            "t0": 205440, 
                            "v": 56, 
                            "dur": 60, 
                            "type": "note", 
                            "channel": 12
                        }, 
                        {
                            "pitch": 45, 
                            "t0": 205440, 
                            "parts": [
                                [
                                    205440, 
                                    60
                                ], 
                                [
                                    205440, 
                                    56
                                ], 
                                [
                                    205500, 
                                    0
                                ]
                            ], 
                            "v": 60, 
                            "dur": 60, 
                            "type": "note", 
                            "channel": 12
                        }, 
                        {
                            "pitch": 57, 
                            "t0": 205440, 
                            "parts": [
                                [
                                    205440, 
                                    60
                                ], 
                                [
                                    205440, 
                                    56
                                ], 
                                [
                                    205500, 
                                    0
                                ]
                            ], 
                            "v": 60, 
                            "dur": 60, 
                            "type": "note", 
                            "channel": 12
                        }, 
                        {
                            "pitch": 33, 
                            "t0": 205440, 
                            "v": 56, 
                            "dur": 60, 
                            "type": "note", 
                            "channel": 12
                        }
                    ]
                ], 
                [
                    205560, 
                    [
                        {
                            "pitch": 69, 
                            "t0": 205560, 
                            "v": 56, 
                            "dur": 60, 
                            "type": "note", 
                            "channel": 12
                        }, 
                        {
                            "pitch": 33, 
                            "t0": 205560, 
                            "v": 56, 
                            "dur": 60, 
                            "type": "note", 
                            "channel": 12
                        }, 
                        {
                            "pitch": 45, 
                            "t0": 205560, 
                            "v": 56, 
                            "dur": 60, 
                            "type": "note", 
                            "channel": 12
                        }, 
                        {
                            "pitch": 57, 
                            "t0": 205560, 
                            "v": 56, 
                            "dur": 60, 
                            "type": "note", 
                            "channel": 12
                        }
                    ]
                ], 
                [
                    205740, 
                    [
                        {
                            "pitch": 69, 
                            "t0": 205740, 
                            "v": 56, 
                            "dur": 60, 
                            "type": "note", 
                            "channel": 12
                        }, 
                        {
                            "pitch": 33, 
                            "t0": 205740, 
                            "v": 56, 
                            "dur": 60, 
                            "type": "note", 
                            "channel": 12
                        }, 
                        {
                            "pitch": 45, 
                            "t0": 205740, 
                            "v": 56, 
                            "dur": 60, 
                            "type": "note", 
                            "channel": 12
                        }, 
                        {
                            "pitch": 57, 
                            "t0": 205740, 
                            "v": 56, 
                            "dur": 60, 
                            "type": "note", 
                            "channel": 12
                        }
                    ]
                ], 
                [
                    205920, 
                    [
                        {
                            "pitch": 69, 
                            "t0": 205920, 
                            "v": 56, 
                            "dur": 60, 
                            "type": "note", 
                            "channel": 12
                        }, 
                        {
                            "pitch": 57, 
                            "t0": 205920, 
                            "parts": [
                                [
                                    205920, 
                                    60
                                ], 
                                [
                                    205920, 
                                    56
                                ], 
                                [
                                    205980, 
                                    0
                                ]
                            ], 
                            "v": 60, 
                            "dur": 60, 
                            "type": "note", 
                            "channel": 12
                        }, 
                        {
                            "pitch": 45, 
                            "t0": 205920, 
                            "parts": [
                                [
                                    205920, 
                                    60
                                ], 
                                [
                                    205920, 
                                    56
                                ], 
                                [
                                    205980, 
                                    0
                                ]
                            ], 
                            "v": 60, 
                            "dur": 60, 
                            "type": "note", 
                            "channel": 12
                        }, 
                        {
                            "pitch": 33, 
                            "t0": 205920, 
                            "v": 56, 
                            "dur": 60, 
                            "type": "note", 
                            "channel": 12
                        }
                    ]
                ], 
                [
                    206400, 
                    [
                        {
                            "pitch": 57, 
                            "t0": 206400, 
                            "v": 60, 
                            "dur": 120, 
                            "type": "note", 
                            "channel": 12
                        }, 
                        {
                            "pitch": 45, 
                            "t0": 206400, 
                            "v": 60, 
                            "dur": 120, 
                            "type": "note", 
                            "channel": 12
                        }
                    ]
                ], 
                [
                    206880, 
                    [
                        {
                            "pitch": 45, 
                            "t0": 206880, 
                            "v": 60, 
                            "dur": 120, 
                            "type": "note", 
                            "channel": 12
                        }, 
                        {
                            "pitch": 57, 
                            "t0": 206880, 
                            "v": 60, 
                            "dur": 120, 
                            "type": "note", 
                            "channel": 12
                        }
                    ]
                ], 
                [
                    207360, 
                    [
                        {
                            "pitch": 64, 
                            "t0": 207360, 
                            "v": 56, 
                            "dur": 60, 
                            "type": "note", 
                            "channel": 12
                        }, 
                        {
                            "pitch": 40, 
                            "t0": 207360, 
                            "parts": [
                                [
                                    207360, 
                                    60
                                ], 
                                [
                                    207360, 
                                    56
                                ], 
                                [
                                    207420, 
                                    0
                                ]
                            ], 
                            "v": 60, 
                            "dur": 60, 
                            "type": "note", 
                            "channel": 12
                        }, 
                        {
                            "pitch": 52, 
                            "t0": 207360, 
                            "parts": [
                                [
                                    207360, 
                                    60
                                ], 
                                [
                                    207360, 
                                    56
                                ], 
                                [
                                    207420, 
                                    0
                                ]
                            ], 
                            "v": 60, 
                            "dur": 60, 
                            "type": "note", 
                            "channel": 12
                        }, 
                        {
                            "pitch": 28, 
                            "t0": 207360, 
                            "v": 56, 
                            "dur": 60, 
                            "type": "note", 
                            "channel": 12
                        }
                    ]
                ], 
                [
                    207480, 
                    [
                        {
                            "pitch": 64, 
                            "t0": 207480, 
                            "v": 56, 
                            "dur": 60, 
                            "type": "note", 
                            "channel": 12
                        }, 
                        {
                            "pitch": 28, 
                            "t0": 207480, 
                            "v": 56, 
                            "dur": 60, 
                            "type": "note", 
                            "channel": 12
                        }, 
                        {
                            "pitch": 40, 
                            "t0": 207480, 
                            "v": 56, 
                            "dur": 60, 
                            "type": "note", 
                            "channel": 12
                        }, 
                        {
                            "pitch": 52, 
                            "t0": 207480, 
                            "v": 56, 
                            "dur": 60, 
                            "type": "note", 
                            "channel": 12
                        }
                    ]
                ], 
                [
                    207660, 
                    [
                        {
                            "pitch": 64, 
                            "t0": 207660, 
                            "v": 56, 
                            "dur": 60, 
                            "type": "note", 
                            "channel": 12
                        }, 
                        {
                            "pitch": 28, 
                            "t0": 207660, 
                            "v": 56, 
                            "dur": 60, 
                            "type": "note", 
                            "channel": 12
                        }, 
                        {
                            "pitch": 40, 
                            "t0": 207660, 
                            "v": 56, 
                            "dur": 60, 
                            "type": "note", 
                            "channel": 12
                        }, 
                        {
                            "pitch": 52, 
                            "t0": 207660, 
                            "v": 56, 
                            "dur": 60, 
                            "type": "note", 
                            "channel": 12
                        }
                    ]
                ], 
                [
                    207840, 
                    [
                        {
                            "pitch": 64, 
                            "t0": 207840, 
                            "v": 56, 
                            "dur": 60, 
                            "type": "note", 
                            "channel": 12
                        }, 
                        {
                            "pitch": 40, 
                            "t0": 207840, 
                            "parts": [
                                [
                                    207840, 
                                    60
                                ], 
                                [
                                    207840, 
                                    56
                                ], 
                                [
                                    207900, 
                                    0
                                ]
                            ], 
                            "v": 60, 
                            "dur": 60, 
                            "type": "note", 
                            "channel": 12
                        }, 
                        {
                            "pitch": 52, 
                            "t0": 207840, 
                            "parts": [
                                [
                                    207840, 
                                    60
                                ], 
                                [
                                    207840, 
                                    56
                                ], 
                                [
                                    207900, 
                                    0
                                ]
                            ], 
                            "v": 60, 
                            "dur": 60, 
                            "type": "note", 
                            "channel": 12
                        }, 
                        {
                            "pitch": 28, 
                            "t0": 207840, 
                            "v": 56, 
                            "dur": 60, 
                            "type": "note", 
                            "channel": 12
                        }
                    ]
                ], 
                [
                    208320, 
                    [
                        {
                            "pitch": 40, 
                            "t0": 208320, 
                            "v": 60, 
                            "dur": 120, 
                            "type": "note", 
                            "channel": 12
                        }, 
                        {
                            "pitch": 52, 
                            "t0": 208320, 
                            "v": 60, 
                            "dur": 120, 
                            "type": "note", 
                            "channel": 12
                        }
                    ]
                ], 
                [
                    208800, 
                    [
                        {
                            "pitch": 40, 
                            "t0": 208800, 
                            "v": 60, 
                            "dur": 120, 
                            "type": "note", 
                            "channel": 12
                        }, 
                        {
                            "pitch": 52, 
                            "t0": 208800, 
                            "v": 60, 
                            "dur": 120, 
                            "type": "note", 
                            "channel": 12
                        }
                    ]
                ], 
                [
                    209280, 
                    [
                        {
                            "pitch": 65, 
                            "t0": 209280, 
                            "v": 56, 
                            "dur": 60, 
                            "type": "note", 
                            "channel": 12
                        }, 
                        {
                            "pitch": 41, 
                            "t0": 209280, 
                            "parts": [
                                [
                                    209280, 
                                    60
                                ], 
                                [
                                    209280, 
                                    56
                                ], 
                                [
                                    209340, 
                                    0
                                ]
                            ], 
                            "v": 60, 
                            "dur": 60, 
                            "type": "note", 
                            "channel": 12
                        }, 
                        {
                            "pitch": 53, 
                            "t0": 209280, 
                            "parts": [
                                [
                                    209280, 
                                    60
                                ], 
                                [
                                    209280, 
                                    56
                                ], 
                                [
                                    209340, 
                                    0
                                ]
                            ], 
                            "v": 60, 
                            "dur": 60, 
                            "type": "note", 
                            "channel": 12
                        }, 
                        {
                            "pitch": 29, 
                            "t0": 209280, 
                            "v": 56, 
                            "dur": 60, 
                            "type": "note", 
                            "channel": 12
                        }
                    ]
                ], 
                [
                    209400, 
                    [
                        {
                            "pitch": 65, 
                            "t0": 209400, 
                            "v": 57, 
                            "dur": 60, 
                            "type": "note", 
                            "channel": 12
                        }, 
                        {
                            "pitch": 29, 
                            "t0": 209400, 
                            "v": 57, 
                            "dur": 60, 
                            "type": "note", 
                            "channel": 12
                        }, 
                        {
                            "pitch": 41, 
                            "t0": 209400, 
                            "v": 57, 
                            "dur": 60, 
                            "type": "note", 
                            "channel": 12
                        }, 
                        {
                            "pitch": 53, 
                            "t0": 209400, 
                            "v": 57, 
                            "dur": 60, 
                            "type": "note", 
                            "channel": 12
                        }
                    ]
                ], 
                [
                    209580, 
                    [
                        {
                            "pitch": 65, 
                            "t0": 209580, 
                            "v": 58, 
                            "dur": 60, 
                            "type": "note", 
                            "channel": 12
                        }, 
                        {
                            "pitch": 29, 
                            "t0": 209580, 
                            "v": 58, 
                            "dur": 60, 
                            "type": "note", 
                            "channel": 12
                        }, 
                        {
                            "pitch": 41, 
                            "t0": 209580, 
                            "v": 58, 
                            "dur": 60, 
                            "type": "note", 
                            "channel": 12
                        }, 
                        {
                            "pitch": 53, 
                            "t0": 209580, 
                            "v": 58, 
                            "dur": 60, 
                            "type": "note", 
                            "channel": 12
                        }
                    ]
                ], 
                [
                    209760, 
                    [
                        {
                            "pitch": 65, 
                            "t0": 209760, 
                            "v": 59, 
                            "dur": 60, 
                            "type": "note", 
                            "channel": 12
                        }, 
                        {
                            "pitch": 41, 
                            "t0": 209760, 
                            "parts": [
                                [
                                    209760, 
                                    60
                                ], 
                                [
                                    209760, 
                                    59
                                ], 
                                [
                                    209820, 
                                    0
                                ]
                            ], 
                            "v": 60, 
                            "dur": 60, 
                            "type": "note", 
                            "channel": 12
                        }, 
                        {
                            "pitch": 53, 
                            "t0": 209760, 
                            "parts": [
                                [
                                    209760, 
                                    60
                                ], 
                                [
                                    209760, 
                                    59
                                ], 
                                [
                                    209820, 
                                    0
                                ]
                            ], 
                            "v": 60, 
                            "dur": 60, 
                            "type": "note", 
                            "channel": 12
                        }, 
                        {
                            "pitch": 29, 
                            "t0": 209760, 
                            "v": 59, 
                            "dur": 60, 
                            "type": "note", 
                            "channel": 12
                        }
                    ]
                ], 
                [
                    210240, 
                    [
                        {
                            "pitch": 67, 
                            "t0": 210240, 
                            "v": 63, 
                            "dur": 60, 
                            "type": "note", 
                            "channel": 12
                        }, 
                        {
                            "pitch": 43, 
                            "t0": 210240, 
                            "parts": [
                                [
                                    210240, 
                                    60
                                ], 
                                [
                                    210240, 
                                    63
                                ], 
                                [
                                    210300, 
                                    0
                                ]
                            ], 
                            "v": 60, 
                            "dur": 60, 
                            "type": "note", 
                            "channel": 12
                        }, 
                        {
                            "pitch": 55, 
                            "t0": 210240, 
                            "parts": [
                                [
                                    210240, 
                                    60
                                ], 
                                [
                                    210240, 
                                    63
                                ], 
                                [
                                    210300, 
                                    0
                                ]
                            ], 
                            "v": 60, 
                            "dur": 60, 
                            "type": "note", 
                            "channel": 12
                        }, 
                        {
                            "pitch": 31, 
                            "t0": 210240, 
                            "v": 63, 
                            "dur": 60, 
                            "type": "note", 
                            "channel": 12
                        }
                    ]
                ], 
                [
                    210360, 
                    [
                        {
                            "pitch": 67, 
                            "t0": 210360, 
                            "v": 64, 
                            "dur": 60, 
                            "type": "note", 
                            "channel": 12
                        }, 
                        {
                            "pitch": 31, 
                            "t0": 210360, 
                            "v": 64, 
                            "dur": 60, 
                            "type": "note", 
                            "channel": 12
                        }, 
                        {
                            "pitch": 43, 
                            "t0": 210360, 
                            "v": 64, 
                            "dur": 60, 
                            "type": "note", 
                            "channel": 12
                        }, 
                        {
                            "pitch": 55, 
                            "t0": 210360, 
                            "v": 64, 
                            "dur": 60, 
                            "type": "note", 
                            "channel": 12
                        }
                    ]
                ], 
                [
                    210540, 
                    [
                        {
                            "pitch": 67, 
                            "t0": 210540, 
                            "v": 65, 
                            "dur": 60, 
                            "type": "note", 
                            "channel": 12
                        }, 
                        {
                            "pitch": 31, 
                            "t0": 210540, 
                            "v": 65, 
                            "dur": 60, 
                            "type": "note", 
                            "channel": 12
                        }, 
                        {
                            "pitch": 43, 
                            "t0": 210540, 
                            "v": 65, 
                            "dur": 60, 
                            "type": "note", 
                            "channel": 12
                        }, 
                        {
                            "pitch": 55, 
                            "t0": 210540, 
                            "v": 65, 
                            "dur": 60, 
                            "type": "note", 
                            "channel": 12
                        }
                    ]
                ], 
                [
                    210720, 
                    [
                        {
                            "pitch": 67, 
                            "t0": 210720, 
                            "v": 67, 
                            "dur": 60, 
                            "type": "note", 
                            "channel": 12
                        }, 
                        {
                            "pitch": 43, 
                            "t0": 210720, 
                            "parts": [
                                [
                                    210720, 
                                    60
                                ], 
                                [
                                    210720, 
                                    67
                                ], 
                                [
                                    210780, 
                                    0
                                ]
                            ], 
                            "v": 60, 
                            "dur": 60, 
                            "type": "note", 
                            "channel": 12
                        }, 
                        {
                            "pitch": 55, 
                            "t0": 210720, 
                            "parts": [
                                [
                                    210720, 
                                    60
                                ], 
                                [
                                    210720, 
                                    67
                                ], 
                                [
                                    210780, 
                                    0
                                ]
                            ], 
                            "v": 60, 
                            "dur": 60, 
                            "type": "note", 
                            "channel": 12
                        }, 
                        {
                            "pitch": 31, 
                            "t0": 210720, 
                            "v": 67, 
                            "dur": 60, 
                            "type": "note", 
                            "channel": 12
                        }
                    ]
                ], 
                [
                    211200, 
                    [
                        {
                            "pitch": 69, 
                            "t0": 211200, 
                            "v": 70, 
                            "dur": 60, 
                            "type": "note", 
                            "channel": 12
                        }, 
                        {
                            "pitch": 45, 
                            "t0": 211200, 
                            "parts": [
                                [
                                    211200, 
                                    60
                                ], 
                                [
                                    211200, 
                                    70
                                ], 
                                [
                                    211260, 
                                    0
                                ]
                            ], 
                            "v": 60, 
                            "dur": 60, 
                            "type": "note", 
                            "channel": 12
                        }, 
                        {
                            "pitch": 57, 
                            "t0": 211200, 
                            "parts": [
                                [
                                    211200, 
                                    60
                                ], 
                                [
                                    211200, 
                                    70
                                ], 
                                [
                                    211260, 
                                    0
                                ]
                            ], 
                            "v": 60, 
                            "dur": 60, 
                            "type": "note", 
                            "channel": 12
                        }, 
                        {
                            "pitch": 33, 
                            "t0": 211200, 
                            "v": 70, 
                            "dur": 60, 
                            "type": "note", 
                            "channel": 12
                        }
                    ]
                ], 
                [
                    211320, 
                    [
                        {
                            "pitch": 69, 
                            "t0": 211320, 
                            "v": 71, 
                            "dur": 60, 
                            "type": "note", 
                            "channel": 12
                        }, 
                        {
                            "pitch": 33, 
                            "t0": 211320, 
                            "v": 71, 
                            "dur": 60, 
                            "type": "note", 
                            "channel": 12
                        }, 
                        {
                            "pitch": 45, 
                            "t0": 211320, 
                            "v": 71, 
                            "dur": 60, 
                            "type": "note", 
                            "channel": 12
                        }, 
                        {
                            "pitch": 57, 
                            "t0": 211320, 
                            "v": 71, 
                            "dur": 60, 
                            "type": "note", 
                            "channel": 12
                        }
                    ]
                ], 
                [
                    211500, 
                    [
                        {
                            "pitch": 69, 
                            "t0": 211500, 
                            "v": 73, 
                            "dur": 60, 
                            "type": "note", 
                            "channel": 12
                        }, 
                        {
                            "pitch": 33, 
                            "t0": 211500, 
                            "v": 73, 
                            "dur": 60, 
                            "type": "note", 
                            "channel": 12
                        }, 
                        {
                            "pitch": 45, 
                            "t0": 211500, 
                            "v": 73, 
                            "dur": 60, 
                            "type": "note", 
                            "channel": 12
                        }, 
                        {
                            "pitch": 57, 
                            "t0": 211500, 
                            "v": 73, 
                            "dur": 60, 
                            "type": "note", 
                            "channel": 12
                        }
                    ]
                ], 
                [
                    211680, 
                    [
                        {
                            "pitch": 69, 
                            "t0": 211680, 
                            "v": 74, 
                            "dur": 60, 
                            "type": "note", 
                            "channel": 12
                        }, 
                        {
                            "pitch": 45, 
                            "t0": 211680, 
                            "parts": [
                                [
                                    211680, 
                                    60
                                ], 
                                [
                                    211680, 
                                    74
                                ], 
                                [
                                    211740, 
                                    0
                                ]
                            ], 
                            "v": 60, 
                            "dur": 60, 
                            "type": "note", 
                            "channel": 12
                        }, 
                        {
                            "pitch": 57, 
                            "t0": 211680, 
                            "parts": [
                                [
                                    211680, 
                                    60
                                ], 
                                [
                                    211680, 
                                    74
                                ], 
                                [
                                    211740, 
                                    0
                                ]
                            ], 
                            "v": 60, 
                            "dur": 60, 
                            "type": "note", 
                            "channel": 12
                        }, 
                        {
                            "pitch": 33, 
                            "t0": 211680, 
                            "v": 74, 
                            "dur": 60, 
                            "type": "note", 
                            "channel": 12
                        }
                    ]
                ], 
                [
                    212160, 
                    [
                        {
                            "pitch": 45, 
                            "t0": 212160, 
                            "v": 60, 
                            "dur": 120, 
                            "type": "note", 
                            "channel": 12
                        }, 
                        {
                            "pitch": 57, 
                            "t0": 212160, 
                            "v": 60, 
                            "dur": 120, 
                            "type": "note", 
                            "channel": 12
                        }
                    ]
                ], 
                [
                    212640, 
                    [
                        {
                            "pitch": 45, 
                            "t0": 212640, 
                            "v": 60, 
                            "dur": 120, 
                            "type": "note", 
                            "channel": 12
                        }, 
                        {
                            "pitch": 57, 
                            "t0": 212640, 
                            "v": 60, 
                            "dur": 120, 
                            "type": "note", 
                            "channel": 12
                        }
                    ]
                ], 
                [
                    213120, 
                    [
                        {
                            "pitch": 36, 
                            "t0": 213120, 
                            "v": 56, 
                            "dur": 60, 
                            "type": "note", 
                            "channel": 12
                        }, 
                        {
                            "pitch": 48, 
                            "t0": 213120, 
                            "parts": [
                                [
                                    213120, 
                                    60
                                ], 
                                [
                                    213120, 
                                    56
                                ], 
                                [
                                    213180, 
                                    0
                                ]
                            ], 
                            "v": 60, 
                            "dur": 60, 
                            "type": "note", 
                            "channel": 12
                        }, 
                        {
                            "pitch": 60, 
                            "t0": 213120, 
                            "parts": [
                                [
                                    213120, 
                                    60
                                ], 
                                [
                                    213120, 
                                    56
                                ], 
                                [
                                    213180, 
                                    0
                                ]
                            ], 
                            "v": 60, 
                            "dur": 60, 
                            "type": "note", 
                            "channel": 12
                        }, 
                        {
                            "pitch": 72, 
                            "t0": 213120, 
                            "v": 56, 
                            "dur": 60, 
                            "type": "note", 
                            "channel": 12
                        }
                    ]
                ], 
                [
                    213240, 
                    [
                        {
                            "pitch": 36, 
                            "t0": 213240, 
                            "v": 56, 
                            "dur": 60, 
                            "type": "note", 
                            "channel": 12
                        }, 
                        {
                            "pitch": 72, 
                            "t0": 213240, 
                            "v": 56, 
                            "dur": 60, 
                            "type": "note", 
                            "channel": 12
                        }, 
                        {
                            "pitch": 60, 
                            "t0": 213240, 
                            "v": 56, 
                            "dur": 60, 
                            "type": "note", 
                            "channel": 12
                        }, 
                        {
                            "pitch": 48, 
                            "t0": 213240, 
                            "v": 56, 
                            "dur": 60, 
                            "type": "note", 
                            "channel": 12
                        }
                    ]
                ], 
                [
                    213420, 
                    [
                        {
                            "pitch": 36, 
                            "t0": 213420, 
                            "v": 56, 
                            "dur": 60, 
                            "type": "note", 
                            "channel": 12
                        }, 
                        {
                            "pitch": 72, 
                            "t0": 213420, 
                            "v": 56, 
                            "dur": 60, 
                            "type": "note", 
                            "channel": 12
                        }, 
                        {
                            "pitch": 60, 
                            "t0": 213420, 
                            "v": 56, 
                            "dur": 60, 
                            "type": "note", 
                            "channel": 12
                        }, 
                        {
                            "pitch": 48, 
                            "t0": 213420, 
                            "v": 56, 
                            "dur": 60, 
                            "type": "note", 
                            "channel": 12
                        }
                    ]
                ], 
                [
                    213600, 
                    [
                        {
                            "pitch": 36, 
                            "t0": 213600, 
                            "v": 56, 
                            "dur": 60, 
                            "type": "note", 
                            "channel": 12
                        }, 
                        {
                            "pitch": 48, 
                            "t0": 213600, 
                            "parts": [
                                [
                                    213600, 
                                    60
                                ], 
                                [
                                    213600, 
                                    56
                                ], 
                                [
                                    213660, 
                                    0
                                ]
                            ], 
                            "v": 60, 
                            "dur": 60, 
                            "type": "note", 
                            "channel": 12
                        }, 
                        {
                            "pitch": 60, 
                            "t0": 213600, 
                            "parts": [
                                [
                                    213600, 
                                    60
                                ], 
                                [
                                    213600, 
                                    56
                                ], 
                                [
                                    213660, 
                                    0
                                ]
                            ], 
                            "v": 60, 
                            "dur": 60, 
                            "type": "note", 
                            "channel": 12
                        }, 
                        {
                            "pitch": 72, 
                            "t0": 213600, 
                            "v": 56, 
                            "dur": 60, 
                            "type": "note", 
                            "channel": 12
                        }
                    ]
                ], 
                [
                    214080, 
                    [
                        {
                            "pitch": 67, 
                            "t0": 214080, 
                            "v": 56, 
                            "dur": 60, 
                            "type": "note", 
                            "channel": 12
                        }, 
                        {
                            "pitch": 43, 
                            "t0": 214080, 
                            "parts": [
                                [
                                    214080, 
                                    60
                                ], 
                                [
                                    214080, 
                                    56
                                ], 
                                [
                                    214140, 
                                    0
                                ]
                            ], 
                            "v": 60, 
                            "dur": 60, 
                            "type": "note", 
                            "channel": 12
                        }, 
                        {
                            "pitch": 55, 
                            "t0": 214080, 
                            "parts": [
                                [
                                    214080, 
                                    60
                                ], 
                                [
                                    214080, 
                                    56
                                ], 
                                [
                                    214140, 
                                    0
                                ]
                            ], 
                            "v": 60, 
                            "dur": 60, 
                            "type": "note", 
                            "channel": 12
                        }, 
                        {
                            "pitch": 31, 
                            "t0": 214080, 
                            "v": 56, 
                            "dur": 60, 
                            "type": "note", 
                            "channel": 12
                        }
                    ]
                ], 
                [
                    214200, 
                    [
                        {
                            "pitch": 67, 
                            "t0": 214200, 
                            "v": 56, 
                            "dur": 60, 
                            "type": "note", 
                            "channel": 12
                        }, 
                        {
                            "pitch": 31, 
                            "t0": 214200, 
                            "v": 56, 
                            "dur": 60, 
                            "type": "note", 
                            "channel": 12
                        }, 
                        {
                            "pitch": 43, 
                            "t0": 214200, 
                            "v": 56, 
                            "dur": 60, 
                            "type": "note", 
                            "channel": 12
                        }, 
                        {
                            "pitch": 55, 
                            "t0": 214200, 
                            "v": 56, 
                            "dur": 60, 
                            "type": "note", 
                            "channel": 12
                        }
                    ]
                ], 
                [
                    214380, 
                    [
                        {
                            "pitch": 67, 
                            "t0": 214380, 
                            "v": 56, 
                            "dur": 60, 
                            "type": "note", 
                            "channel": 12
                        }, 
                        {
                            "pitch": 31, 
                            "t0": 214380, 
                            "v": 56, 
                            "dur": 60, 
                            "type": "note", 
                            "channel": 12
                        }, 
                        {
                            "pitch": 43, 
                            "t0": 214380, 
                            "v": 56, 
                            "dur": 60, 
                            "type": "note", 
                            "channel": 12
                        }, 
                        {
                            "pitch": 55, 
                            "t0": 214380, 
                            "v": 56, 
                            "dur": 60, 
                            "type": "note", 
                            "channel": 12
                        }
                    ]
                ], 
                [
                    214560, 
                    [
                        {
                            "pitch": 67, 
                            "t0": 214560, 
                            "v": 56, 
                            "dur": 60, 
                            "type": "note", 
                            "channel": 12
                        }, 
                        {
                            "pitch": 55, 
                            "t0": 214560, 
                            "parts": [
                                [
                                    214560, 
                                    60
                                ], 
                                [
                                    214560, 
                                    56
                                ], 
                                [
                                    214620, 
                                    0
                                ]
                            ], 
                            "v": 60, 
                            "dur": 60, 
                            "type": "note", 
                            "channel": 12
                        }, 
                        {
                            "pitch": 43, 
                            "t0": 214560, 
                            "parts": [
                                [
                                    214560, 
                                    60
                                ], 
                                [
                                    214560, 
                                    56
                                ], 
                                [
                                    214620, 
                                    0
                                ]
                            ], 
                            "v": 60, 
                            "dur": 60, 
                            "type": "note", 
                            "channel": 12
                        }, 
                        {
                            "pitch": 31, 
                            "t0": 214560, 
                            "v": 56, 
                            "dur": 60, 
                            "type": "note", 
                            "channel": 12
                        }
                    ]
                ], 
                [
                    215040, 
                    [
                        {
                            "pitch": 33, 
                            "t0": 215040, 
                            "v": 56, 
                            "dur": 60, 
                            "type": "note", 
                            "channel": 12
                        }, 
                        {
                            "pitch": 45, 
                            "t0": 215040, 
                            "parts": [
                                [
                                    215040, 
                                    60
                                ], 
                                [
                                    215040, 
                                    56
                                ], 
                                [
                                    215100, 
                                    0
                                ]
                            ], 
                            "v": 60, 
                            "dur": 60, 
                            "type": "note", 
                            "channel": 12
                        }, 
                        {
                            "pitch": 57, 
                            "t0": 215040, 
                            "parts": [
                                [
                                    215040, 
                                    60
                                ], 
                                [
                                    215040, 
                                    56
                                ], 
                                [
                                    215100, 
                                    0
                                ]
                            ], 
                            "v": 60, 
                            "dur": 60, 
                            "type": "note", 
                            "channel": 12
                        }, 
                        {
                            "pitch": 69, 
                            "t0": 215040, 
                            "v": 56, 
                            "dur": 60, 
                            "type": "note", 
                            "channel": 12
                        }
                    ]
                ], 
                [
                    215160, 
                    [
                        {
                            "pitch": 33, 
                            "t0": 215160, 
                            "v": 56, 
                            "dur": 60, 
                            "type": "note", 
                            "channel": 12
                        }, 
                        {
                            "pitch": 69, 
                            "t0": 215160, 
                            "v": 56, 
                            "dur": 60, 
                            "type": "note", 
                            "channel": 12
                        }, 
                        {
                            "pitch": 57, 
                            "t0": 215160, 
                            "v": 56, 
                            "dur": 60, 
                            "type": "note", 
                            "channel": 12
                        }, 
                        {
                            "pitch": 45, 
                            "t0": 215160, 
                            "v": 56, 
                            "dur": 60, 
                            "type": "note", 
                            "channel": 12
                        }
                    ]
                ], 
                [
                    215340, 
                    [
                        {
                            "pitch": 33, 
                            "t0": 215340, 
                            "v": 56, 
                            "dur": 60, 
                            "type": "note", 
                            "channel": 12
                        }, 
                        {
                            "pitch": 69, 
                            "t0": 215340, 
                            "v": 56, 
                            "dur": 60, 
                            "type": "note", 
                            "channel": 12
                        }, 
                        {
                            "pitch": 57, 
                            "t0": 215340, 
                            "v": 56, 
                            "dur": 60, 
                            "type": "note", 
                            "channel": 12
                        }, 
                        {
                            "pitch": 45, 
                            "t0": 215340, 
                            "v": 56, 
                            "dur": 60, 
                            "type": "note", 
                            "channel": 12
                        }
                    ]
                ], 
                [
                    215520, 
                    [
                        {
                            "pitch": 33, 
                            "t0": 215520, 
                            "v": 56, 
                            "dur": 60, 
                            "type": "note", 
                            "channel": 12
                        }, 
                        {
                            "pitch": 45, 
                            "t0": 215520, 
                            "parts": [
                                [
                                    215520, 
                                    60
                                ], 
                                [
                                    215520, 
                                    56
                                ], 
                                [
                                    215580, 
                                    0
                                ]
                            ], 
                            "v": 60, 
                            "dur": 60, 
                            "type": "note", 
                            "channel": 12
                        }, 
                        {
                            "pitch": 57, 
                            "t0": 215520, 
                            "parts": [
                                [
                                    215520, 
                                    60
                                ], 
                                [
                                    215520, 
                                    56
                                ], 
                                [
                                    215580, 
                                    0
                                ]
                            ], 
                            "v": 60, 
                            "dur": 60, 
                            "type": "note", 
                            "channel": 12
                        }, 
                        {
                            "pitch": 69, 
                            "t0": 215520, 
                            "v": 56, 
                            "dur": 60, 
                            "type": "note", 
                            "channel": 12
                        }
                    ]
                ], 
                [
                    216000, 
                    [
                        {
                            "pitch": 28, 
                            "t0": 216000, 
                            "v": 56, 
                            "dur": 60, 
                            "type": "note", 
                            "channel": 12
                        }, 
                        {
                            "pitch": 40, 
                            "t0": 216000, 
                            "parts": [
                                [
                                    216000, 
                                    60
                                ], 
                                [
                                    216000, 
                                    56
                                ], 
                                [
                                    216060, 
                                    0
                                ]
                            ], 
                            "v": 60, 
                            "dur": 60, 
                            "type": "note", 
                            "channel": 12
                        }, 
                        {
                            "pitch": 52, 
                            "t0": 216000, 
                            "parts": [
                                [
                                    216000, 
                                    60
                                ], 
                                [
                                    216000, 
                                    56
                                ], 
                                [
                                    216060, 
                                    0
                                ]
                            ], 
                            "v": 60, 
                            "dur": 60, 
                            "type": "note", 
                            "channel": 12
                        }, 
                        {
                            "pitch": 64, 
                            "t0": 216000, 
                            "v": 56, 
                            "dur": 60, 
                            "type": "note", 
                            "channel": 12
                        }
                    ]
                ], 
                [
                    216120, 
                    [
                        {
                            "pitch": 28, 
                            "t0": 216120, 
                            "v": 56, 
                            "dur": 60, 
                            "type": "note", 
                            "channel": 12
                        }, 
                        {
                            "pitch": 64, 
                            "t0": 216120, 
                            "v": 56, 
                            "dur": 60, 
                            "type": "note", 
                            "channel": 12
                        }, 
                        {
                            "pitch": 52, 
                            "t0": 216120, 
                            "v": 56, 
                            "dur": 60, 
                            "type": "note", 
                            "channel": 12
                        }, 
                        {
                            "pitch": 40, 
                            "t0": 216120, 
                            "v": 56, 
                            "dur": 60, 
                            "type": "note", 
                            "channel": 12
                        }
                    ]
                ], 
                [
                    216300, 
                    [
                        {
                            "pitch": 28, 
                            "t0": 216300, 
                            "v": 56, 
                            "dur": 60, 
                            "type": "note", 
                            "channel": 12
                        }, 
                        {
                            "pitch": 64, 
                            "t0": 216300, 
                            "v": 56, 
                            "dur": 60, 
                            "type": "note", 
                            "channel": 12
                        }, 
                        {
                            "pitch": 52, 
                            "t0": 216300, 
                            "v": 56, 
                            "dur": 60, 
                            "type": "note", 
                            "channel": 12
                        }, 
                        {
                            "pitch": 40, 
                            "t0": 216300, 
                            "v": 56, 
                            "dur": 60, 
                            "type": "note", 
                            "channel": 12
                        }
                    ]
                ], 
                [
                    216480, 
                    [
                        {
                            "pitch": 28, 
                            "t0": 216480, 
                            "v": 56, 
                            "dur": 60, 
                            "type": "note", 
                            "channel": 12
                        }, 
                        {
                            "pitch": 40, 
                            "t0": 216480, 
                            "parts": [
                                [
                                    216480, 
                                    60
                                ], 
                                [
                                    216480, 
                                    56
                                ], 
                                [
                                    216540, 
                                    0
                                ]
                            ], 
                            "v": 60, 
                            "dur": 60, 
                            "type": "note", 
                            "channel": 12
                        }, 
                        {
                            "pitch": 52, 
                            "t0": 216480, 
                            "parts": [
                                [
                                    216480, 
                                    60
                                ], 
                                [
                                    216480, 
                                    56
                                ], 
                                [
                                    216540, 
                                    0
                                ]
                            ], 
                            "v": 60, 
                            "dur": 60, 
                            "type": "note", 
                            "channel": 12
                        }, 
                        {
                            "pitch": 64, 
                            "t0": 216480, 
                            "v": 56, 
                            "dur": 60, 
                            "type": "note", 
                            "channel": 12
                        }
                    ]
                ], 
                [
                    216960, 
                    [
                        {
                            "pitch": 65, 
                            "t0": 216960, 
                            "v": 56, 
                            "dur": 60, 
                            "type": "note", 
                            "channel": 12
                        }, 
                        {
                            "pitch": 41, 
                            "t0": 216960, 
                            "parts": [
                                [
                                    216960, 
                                    60
                                ], 
                                [
                                    216960, 
                                    56
                                ], 
                                [
                                    217020, 
                                    0
                                ]
                            ], 
                            "v": 60, 
                            "dur": 60, 
                            "type": "note", 
                            "channel": 12
                        }, 
                        {
                            "pitch": 53, 
                            "t0": 216960, 
                            "parts": [
                                [
                                    216960, 
                                    60
                                ], 
                                [
                                    216960, 
                                    56
                                ], 
                                [
                                    217020, 
                                    0
                                ]
                            ], 
                            "v": 60, 
                            "dur": 60, 
                            "type": "note", 
                            "channel": 12
                        }, 
                        {
                            "pitch": 29, 
                            "t0": 216960, 
                            "v": 56, 
                            "dur": 60, 
                            "type": "note", 
                            "channel": 12
                        }
                    ]
                ], 
                [
                    217080, 
                    [
                        {
                            "pitch": 65, 
                            "t0": 217080, 
                            "v": 57, 
                            "dur": 60, 
                            "type": "note", 
                            "channel": 12
                        }, 
                        {
                            "pitch": 29, 
                            "t0": 217080, 
                            "v": 57, 
                            "dur": 60, 
                            "type": "note", 
                            "channel": 12
                        }, 
                        {
                            "pitch": 41, 
                            "t0": 217080, 
                            "v": 57, 
                            "dur": 60, 
                            "type": "note", 
                            "channel": 12
                        }, 
                        {
                            "pitch": 53, 
                            "t0": 217080, 
                            "v": 57, 
                            "dur": 60, 
                            "type": "note", 
                            "channel": 12
                        }
                    ]
                ], 
                [
                    217260, 
                    [
                        {
                            "pitch": 65, 
                            "t0": 217260, 
                            "v": 58, 
                            "dur": 60, 
                            "type": "note", 
                            "channel": 12
                        }, 
                        {
                            "pitch": 29, 
                            "t0": 217260, 
                            "v": 58, 
                            "dur": 60, 
                            "type": "note", 
                            "channel": 12
                        }, 
                        {
                            "pitch": 41, 
                            "t0": 217260, 
                            "v": 58, 
                            "dur": 60, 
                            "type": "note", 
                            "channel": 12
                        }, 
                        {
                            "pitch": 53, 
                            "t0": 217260, 
                            "v": 58, 
                            "dur": 60, 
                            "type": "note", 
                            "channel": 12
                        }
                    ]
                ], 
                [
                    217440, 
                    [
                        {
                            "pitch": 65, 
                            "t0": 217440, 
                            "v": 60, 
                            "dur": 60, 
                            "type": "note", 
                            "channel": 12
                        }, 
                        {
                            "pitch": 53, 
                            "t0": 217440, 
                            "v": 60, 
                            "dur": 60, 
                            "type": "note", 
                            "channel": 12
                        }, 
                        {
                            "pitch": 41, 
                            "t0": 217440, 
                            "v": 60, 
                            "dur": 60, 
                            "type": "note", 
                            "channel": 12
                        }, 
                        {
                            "pitch": 29, 
                            "t0": 217440, 
                            "v": 60, 
                            "dur": 60, 
                            "type": "note", 
                            "channel": 12
                        }
                    ]
                ], 
                [
                    217920, 
                    [
                        {
                            "pitch": 67, 
                            "t0": 217920, 
                            "v": 64, 
                            "dur": 60, 
                            "type": "note", 
                            "channel": 12
                        }, 
                        {
                            "pitch": 43, 
                            "t0": 217920, 
                            "parts": [
                                [
                                    217920, 
                                    60
                                ], 
                                [
                                    217920, 
                                    64
                                ], 
                                [
                                    217980, 
                                    0
                                ]
                            ], 
                            "v": 60, 
                            "dur": 60, 
                            "type": "note", 
                            "channel": 12
                        }, 
                        {
                            "pitch": 55, 
                            "t0": 217920, 
                            "parts": [
                                [
                                    217920, 
                                    60
                                ], 
                                [
                                    217920, 
                                    64
                                ], 
                                [
                                    217980, 
                                    0
                                ]
                            ], 
                            "v": 60, 
                            "dur": 60, 
                            "type": "note", 
                            "channel": 12
                        }, 
                        {
                            "pitch": 31, 
                            "t0": 217920, 
                            "v": 64, 
                            "dur": 60, 
                            "type": "note", 
                            "channel": 12
                        }
                    ]
                ], 
                [
                    218040, 
                    [
                        {
                            "pitch": 67, 
                            "t0": 218040, 
                            "v": 65, 
                            "dur": 60, 
                            "type": "note", 
                            "channel": 12
                        }, 
                        {
                            "pitch": 31, 
                            "t0": 218040, 
                            "v": 65, 
                            "dur": 60, 
                            "type": "note", 
                            "channel": 12
                        }, 
                        {
                            "pitch": 43, 
                            "t0": 218040, 
                            "v": 65, 
                            "dur": 60, 
                            "type": "note", 
                            "channel": 12
                        }, 
                        {
                            "pitch": 55, 
                            "t0": 218040, 
                            "v": 65, 
                            "dur": 60, 
                            "type": "note", 
                            "channel": 12
                        }
                    ]
                ], 
                [
                    218220, 
                    [
                        {
                            "pitch": 67, 
                            "t0": 218220, 
                            "v": 67, 
                            "dur": 60, 
                            "type": "note", 
                            "channel": 12
                        }, 
                        {
                            "pitch": 31, 
                            "t0": 218220, 
                            "v": 67, 
                            "dur": 60, 
                            "type": "note", 
                            "channel": 12
                        }, 
                        {
                            "pitch": 43, 
                            "t0": 218220, 
                            "v": 67, 
                            "dur": 60, 
                            "type": "note", 
                            "channel": 12
                        }, 
                        {
                            "pitch": 55, 
                            "t0": 218220, 
                            "v": 67, 
                            "dur": 60, 
                            "type": "note", 
                            "channel": 12
                        }
                    ]
                ], 
                [
                    218400, 
                    [
                        {
                            "pitch": 67, 
                            "t0": 218400, 
                            "v": 68, 
                            "dur": 60, 
                            "type": "note", 
                            "channel": 12
                        }, 
                        {
                            "pitch": 43, 
                            "t0": 218400, 
                            "parts": [
                                [
                                    218400, 
                                    60
                                ], 
                                [
                                    218400, 
                                    68
                                ], 
                                [
                                    218460, 
                                    0
                                ]
                            ], 
                            "v": 60, 
                            "dur": 60, 
                            "type": "note", 
                            "channel": 12
                        }, 
                        {
                            "pitch": 55, 
                            "t0": 218400, 
                            "parts": [
                                [
                                    218400, 
                                    60
                                ], 
                                [
                                    218400, 
                                    68
                                ], 
                                [
                                    218460, 
                                    0
                                ]
                            ], 
                            "v": 60, 
                            "dur": 60, 
                            "type": "note", 
                            "channel": 12
                        }, 
                        {
                            "pitch": 31, 
                            "t0": 218400, 
                            "v": 68, 
                            "dur": 60, 
                            "type": "note", 
                            "channel": 12
                        }
                    ]
                ], 
                [
                    218880, 
                    [
                        {
                            "pitch": 69, 
                            "t0": 218880, 
                            "v": 72, 
                            "dur": 60, 
                            "type": "note", 
                            "channel": 12
                        }, 
                        {
                            "pitch": 57, 
                            "t0": 218880, 
                            "parts": [
                                [
                                    218880, 
                                    60
                                ], 
                                [
                                    218880, 
                                    72
                                ], 
                                [
                                    218940, 
                                    0
                                ]
                            ], 
                            "v": 60, 
                            "dur": 60, 
                            "type": "note", 
                            "channel": 12
                        }, 
                        {
                            "pitch": 45, 
                            "t0": 218880, 
                            "parts": [
                                [
                                    218880, 
                                    60
                                ], 
                                [
                                    218880, 
                                    72
                                ], 
                                [
                                    218940, 
                                    0
                                ]
                            ], 
                            "v": 60, 
                            "dur": 60, 
                            "type": "note", 
                            "channel": 12
                        }, 
                        {
                            "pitch": 33, 
                            "t0": 218880, 
                            "v": 72, 
                            "dur": 60, 
                            "type": "note", 
                            "channel": 12
                        }
                    ]
                ], 
                [
                    219000, 
                    [
                        {
                            "pitch": 69, 
                            "t0": 219000, 
                            "v": 73, 
                            "dur": 60, 
                            "type": "note", 
                            "channel": 12
                        }, 
                        {
                            "pitch": 33, 
                            "t0": 219000, 
                            "v": 73, 
                            "dur": 60, 
                            "type": "note", 
                            "channel": 12
                        }, 
                        {
                            "pitch": 45, 
                            "t0": 219000, 
                            "v": 73, 
                            "dur": 60, 
                            "type": "note", 
                            "channel": 12
                        }, 
                        {
                            "pitch": 57, 
                            "t0": 219000, 
                            "v": 73, 
                            "dur": 60, 
                            "type": "note", 
                            "channel": 12
                        }
                    ]
                ], 
                [
                    219180, 
                    [
                        {
                            "pitch": 69, 
                            "t0": 219180, 
                            "v": 75, 
                            "dur": 60, 
                            "type": "note", 
                            "channel": 12
                        }, 
                        {
                            "pitch": 33, 
                            "t0": 219180, 
                            "v": 75, 
                            "dur": 60, 
                            "type": "note", 
                            "channel": 12
                        }, 
                        {
                            "pitch": 45, 
                            "t0": 219180, 
                            "v": 75, 
                            "dur": 60, 
                            "type": "note", 
                            "channel": 12
                        }, 
                        {
                            "pitch": 57, 
                            "t0": 219180, 
                            "v": 75, 
                            "dur": 60, 
                            "type": "note", 
                            "channel": 12
                        }
                    ]
                ], 
                [
                    219360, 
                    [
                        {
                            "pitch": 69, 
                            "t0": 219360, 
                            "v": 76, 
                            "dur": 60, 
                            "type": "note", 
                            "channel": 12
                        }, 
                        {
                            "pitch": 45, 
                            "t0": 219360, 
                            "parts": [
                                [
                                    219360, 
                                    60
                                ], 
                                [
                                    219360, 
                                    76
                                ], 
                                [
                                    219420, 
                                    0
                                ]
                            ], 
                            "v": 60, 
                            "dur": 60, 
                            "type": "note", 
                            "channel": 12
                        }, 
                        {
                            "pitch": 57, 
                            "t0": 219360, 
                            "parts": [
                                [
                                    219360, 
                                    60
                                ], 
                                [
                                    219360, 
                                    76
                                ], 
                                [
                                    219420, 
                                    0
                                ]
                            ], 
                            "v": 60, 
                            "dur": 60, 
                            "type": "note", 
                            "channel": 12
                        }, 
                        {
                            "pitch": 33, 
                            "t0": 219360, 
                            "v": 76, 
                            "dur": 60, 
                            "type": "note", 
                            "channel": 12
                        }
                    ]
                ], 
                [
                    219840, 
                    [
                        {
                            "pitch": 45, 
                            "t0": 219840, 
                            "v": 60, 
                            "dur": 120, 
                            "type": "note", 
                            "channel": 12
                        }, 
                        {
                            "pitch": 57, 
                            "t0": 219840, 
                            "v": 60, 
                            "dur": 120, 
                            "type": "note", 
                            "channel": 12
                        }
                    ]
                ], 
                [
                    220320, 
                    [
                        {
                            "pitch": 45, 
                            "t0": 220320, 
                            "v": 60, 
                            "dur": 120, 
                            "type": "note", 
                            "channel": 12
                        }, 
                        {
                            "pitch": 57, 
                            "t0": 220320, 
                            "v": 60, 
                            "dur": 120, 
                            "type": "note", 
                            "channel": 12
                        }
                    ]
                ]
            ], 
            "instruments": [
                48
            ], 
            "tMax": 220440, 
            "channels": [
                12
            ], 
            "instrument": 48, 
            "numNotes": 496, 
            "type": "TrackObj"
        }, 
        {
            "trackName": "Track 14", 
            "seq": [
                [
                    0, 
                    [
                        {
                            "instrument": 48, 
                            "type": "programChange", 
                            "t0": 0, 
                            "channel": 9
                        }
                    ]
                ], 
                [
                    94080, 
                    [
                        {
                            "pitch": 41, 
                            "t0": 94080, 
                            "v": 65, 
                            "dur": 472, 
                            "type": "note", 
                            "channel": 9
                        }
                    ]
                ], 
                [
                    95040, 
                    [
                        {
                            "pitch": 41, 
                            "t0": 95040, 
                            "v": 65, 
                            "dur": 540, 
                            "type": "note", 
                            "channel": 9
                        }
                    ]
                ], 
                [
                    96000, 
                    [
                        {
                            "pitch": 41, 
                            "t0": 96000, 
                            "v": 65, 
                            "dur": 498, 
                            "type": "note", 
                            "channel": 9
                        }
                    ]
                ], 
                [
                    96960, 
                    [
                        {
                            "pitch": 41, 
                            "t0": 96960, 
                            "v": 65, 
                            "dur": 481, 
                            "type": "note", 
                            "channel": 9
                        }
                    ]
                ], 
                [
                    97920, 
                    [
                        {
                            "pitch": 41, 
                            "t0": 97920, 
                            "v": 65, 
                            "dur": 430, 
                            "type": "note", 
                            "channel": 9
                        }
                    ]
                ], 
                [
                    98880, 
                    [
                        {
                            "pitch": 41, 
                            "t0": 98880, 
                            "v": 65, 
                            "dur": 456, 
                            "type": "note", 
                            "channel": 9
                        }
                    ]
                ], 
                [
                    99840, 
                    [
                        {
                            "pitch": 41, 
                            "t0": 99840, 
                            "v": 65, 
                            "dur": 445, 
                            "type": "note", 
                            "channel": 9
                        }
                    ]
                ], 
                [
                    100800, 
                    [
                        {
                            "pitch": 41, 
                            "t0": 100800, 
                            "v": 65, 
                            "dur": 137, 
                            "type": "note", 
                            "channel": 9
                        }
                    ]
                ], 
                [
                    101760, 
                    [
                        {
                            "pitch": 41, 
                            "t0": 101760, 
                            "v": 65, 
                            "dur": 375, 
                            "type": "note", 
                            "channel": 9
                        }
                    ]
                ], 
                [
                    102720, 
                    [
                        {
                            "pitch": 41, 
                            "t0": 102720, 
                            "v": 65, 
                            "dur": 626, 
                            "type": "note", 
                            "channel": 9
                        }
                    ]
                ], 
                [
                    103680, 
                    [
                        {
                            "pitch": 41, 
                            "t0": 103680, 
                            "v": 65, 
                            "dur": 70, 
                            "type": "note", 
                            "channel": 9
                        }
                    ]
                ], 
                [
                    104640, 
                    [
                        {
                            "pitch": 41, 
                            "t0": 104640, 
                            "v": 65, 
                            "dur": 65, 
                            "type": "note", 
                            "channel": 9
                        }
                    ]
                ], 
                [
                    105600, 
                    [
                        {
                            "pitch": 41, 
                            "t0": 105600, 
                            "v": 65, 
                            "dur": 80, 
                            "type": "note", 
                            "channel": 9
                        }
                    ]
                ], 
                [
                    106560, 
                    [
                        {
                            "pitch": 41, 
                            "t0": 106560, 
                            "v": 65, 
                            "dur": 1, 
                            "type": "note", 
                            "channel": 9
                        }
                    ]
                ], 
                [
                    107520, 
                    [
                        {
                            "pitch": 41, 
                            "t0": 107520, 
                            "v": 65, 
                            "dur": 80, 
                            "type": "note", 
                            "channel": 9
                        }
                    ]
                ], 
                [
                    108480, 
                    [
                        {
                            "pitch": 41, 
                            "t0": 108480, 
                            "v": 65, 
                            "dur": 76, 
                            "type": "note", 
                            "channel": 9
                        }
                    ]
                ], 
                [
                    109440, 
                    [
                        {
                            "pitch": 41, 
                            "t0": 109440, 
                            "v": 65, 
                            "dur": 71, 
                            "type": "note", 
                            "channel": 9
                        }
                    ]
                ], 
                [
                    110400, 
                    [
                        {
                            "pitch": 41, 
                            "t0": 110400, 
                            "v": 65, 
                            "dur": 367, 
                            "type": "note", 
                            "channel": 9
                        }
                    ]
                ], 
                [
                    111360, 
                    [
                        {
                            "pitch": 41, 
                            "t0": 111360, 
                            "v": 65, 
                            "dur": 367, 
                            "type": "note", 
                            "channel": 9
                        }
                    ]
                ], 
                [
                    112320, 
                    [
                        {
                            "pitch": 41, 
                            "t0": 112320, 
                            "v": 65, 
                            "dur": 62, 
                            "type": "note", 
                            "channel": 9
                        }
                    ]
                ], 
                [
                    201600, 
                    [
                        {
                            "pitch": 41, 
                            "t0": 201600, 
                            "v": 65, 
                            "dur": 472, 
                            "type": "note", 
                            "channel": 9
                        }
                    ]
                ], 
                [
                    202560, 
                    [
                        {
                            "pitch": 41, 
                            "t0": 202560, 
                            "v": 65, 
                            "dur": 540, 
                            "type": "note", 
                            "channel": 9
                        }
                    ]
                ], 
                [
                    203520, 
                    [
                        {
                            "pitch": 41, 
                            "t0": 203520, 
                            "v": 65, 
                            "dur": 498, 
                            "type": "note", 
                            "channel": 9
                        }
                    ]
                ], 
                [
                    204480, 
                    [
                        {
                            "pitch": 41, 
                            "t0": 204480, 
                            "v": 65, 
                            "dur": 481, 
                            "type": "note", 
                            "channel": 9
                        }
                    ]
                ], 
                [
                    205440, 
                    [
                        {
                            "pitch": 41, 
                            "t0": 205440, 
                            "v": 65, 
                            "dur": 430, 
                            "type": "note", 
                            "channel": 9
                        }
                    ]
                ], 
                [
                    206400, 
                    [
                        {
                            "pitch": 41, 
                            "t0": 206400, 
                            "v": 65, 
                            "dur": 456, 
                            "type": "note", 
                            "channel": 9
                        }
                    ]
                ], 
                [
                    207360, 
                    [
                        {
                            "pitch": 41, 
                            "t0": 207360, 
                            "v": 65, 
                            "dur": 445, 
                            "type": "note", 
                            "channel": 9
                        }
                    ]
                ], 
                [
                    208320, 
                    [
                        {
                            "pitch": 41, 
                            "t0": 208320, 
                            "v": 65, 
                            "dur": 137, 
                            "type": "note", 
                            "channel": 9
                        }
                    ]
                ], 
                [
                    209280, 
                    [
                        {
                            "pitch": 41, 
                            "t0": 209280, 
                            "v": 65, 
                            "dur": 375, 
                            "type": "note", 
                            "channel": 9
                        }
                    ]
                ], 
                [
                    210240, 
                    [
                        {
                            "pitch": 41, 
                            "t0": 210240, 
                            "v": 65, 
                            "dur": 626, 
                            "type": "note", 
                            "channel": 9
                        }
                    ]
                ], 
                [
                    211200, 
                    [
                        {
                            "pitch": 41, 
                            "t0": 211200, 
                            "v": 65, 
                            "dur": 70, 
                            "type": "note", 
                            "channel": 9
                        }
                    ]
                ], 
                [
                    212160, 
                    [
                        {
                            "pitch": 41, 
                            "t0": 212160, 
                            "v": 65, 
                            "dur": 65, 
                            "type": "note", 
                            "channel": 9
                        }
                    ]
                ], 
                [
                    213120, 
                    [
                        {
                            "pitch": 41, 
                            "t0": 213120, 
                            "v": 65, 
                            "dur": 80, 
                            "type": "note", 
                            "channel": 9
                        }
                    ]
                ], 
                [
                    214080, 
                    [
                        {
                            "pitch": 41, 
                            "t0": 214080, 
                            "v": 65, 
                            "dur": 1, 
                            "type": "note", 
                            "channel": 9
                        }
                    ]
                ], 
                [
                    215040, 
                    [
                        {
                            "pitch": 41, 
                            "t0": 215040, 
                            "v": 65, 
                            "dur": 80, 
                            "type": "note", 
                            "channel": 9
                        }
                    ]
                ], 
                [
                    216000, 
                    [
                        {
                            "pitch": 41, 
                            "t0": 216000, 
                            "v": 65, 
                            "dur": 76, 
                            "type": "note", 
                            "channel": 9
                        }
                    ]
                ], 
                [
                    216960, 
                    [
                        {
                            "pitch": 41, 
                            "t0": 216960, 
                            "v": 65, 
                            "dur": 71, 
                            "type": "note", 
                            "channel": 9
                        }
                    ]
                ], 
                [
                    217920, 
                    [
                        {
                            "pitch": 41, 
                            "t0": 217920, 
                            "v": 65, 
                            "dur": 367, 
                            "type": "note", 
                            "channel": 9
                        }
                    ]
                ], 
                [
                    218880, 
                    [
                        {
                            "pitch": 41, 
                            "t0": 218880, 
                            "v": 65, 
                            "dur": 367, 
                            "type": "note", 
                            "channel": 9
                        }
                    ]
                ], 
                [
                    219840, 
                    [
                        {
                            "pitch": 41, 
                            "t0": 219840, 
                            "v": 65, 
                            "dur": 62, 
                            "type": "note", 
                            "channel": 9
                        }
                    ]
                ]
            ], 
            "instruments": [
                48
            ], 
            "tMax": 219902, 
            "channels": [
                9
            ], 
            "instrument": 48, 
            "numNotes": 40, 
            "type": "TrackObj"
        }, 
        {
            "trackName": "Track 15", 
            "seq": [
                [
                    0, 
                    [
                        {
                            "instrument": 69, 
                            "type": "programChange", 
                            "t0": 0, 
                            "channel": 14
                        }
                    ]
                ], 
                [
                    94080, 
                    [
                        {
                            "pitch": 48, 
                            "t0": 94080, 
                            "v": 70, 
                            "dur": 120, 
                            "type": "note", 
                            "channel": 14
                        }
                    ]
                ], 
                [
                    94200, 
                    [
                        {
                            "pitch": 52, 
                            "t0": 94200, 
                            "v": 70, 
                            "dur": 180, 
                            "type": "note", 
                            "channel": 14
                        }
                    ]
                ], 
                [
                    94380, 
                    [
                        {
                            "pitch": 55, 
                            "t0": 94380, 
                            "v": 70, 
                            "dur": 180, 
                            "type": "note", 
                            "channel": 14
                        }
                    ]
                ], 
                [
                    94560, 
                    [
                        {
                            "pitch": 60, 
                            "t0": 94560, 
                            "v": 70, 
                            "dur": 480, 
                            "type": "note", 
                            "channel": 14
                        }
                    ]
                ], 
                [
                    95040, 
                    [
                        {
                            "pitch": 48, 
                            "t0": 95040, 
                            "v": 69, 
                            "dur": 120, 
                            "type": "note", 
                            "channel": 14
                        }
                    ]
                ], 
                [
                    95160, 
                    [
                        {
                            "pitch": 52, 
                            "t0": 95160, 
                            "v": 69, 
                            "dur": 180, 
                            "type": "note", 
                            "channel": 14
                        }
                    ]
                ], 
                [
                    95340, 
                    [
                        {
                            "pitch": 55, 
                            "t0": 95340, 
                            "v": 69, 
                            "dur": 180, 
                            "type": "note", 
                            "channel": 14
                        }
                    ]
                ], 
                [
                    95520, 
                    [
                        {
                            "pitch": 60, 
                            "t0": 95520, 
                            "v": 69, 
                            "dur": 480, 
                            "type": "note", 
                            "channel": 14
                        }
                    ]
                ], 
                [
                    96000, 
                    [
                        {
                            "pitch": 43, 
                            "t0": 96000, 
                            "v": 69, 
                            "dur": 120, 
                            "type": "note", 
                            "channel": 14
                        }
                    ]
                ], 
                [
                    96120, 
                    [
                        {
                            "pitch": 47, 
                            "t0": 96120, 
                            "v": 69, 
                            "dur": 180, 
                            "type": "note", 
                            "channel": 14
                        }
                    ]
                ], 
                [
                    96300, 
                    [
                        {
                            "pitch": 50, 
                            "t0": 96300, 
                            "v": 69, 
                            "dur": 180, 
                            "type": "note", 
                            "channel": 14
                        }
                    ]
                ], 
                [
                    96480, 
                    [
                        {
                            "pitch": 55, 
                            "t0": 96480, 
                            "v": 68, 
                            "dur": 480, 
                            "type": "note", 
                            "channel": 14
                        }
                    ]
                ], 
                [
                    96960, 
                    [
                        {
                            "pitch": 43, 
                            "t0": 96960, 
                            "v": 68, 
                            "dur": 120, 
                            "type": "note", 
                            "channel": 14
                        }
                    ]
                ], 
                [
                    97080, 
                    [
                        {
                            "pitch": 47, 
                            "t0": 97080, 
                            "v": 68, 
                            "dur": 180, 
                            "type": "note", 
                            "channel": 14
                        }
                    ]
                ], 
                [
                    97260, 
                    [
                        {
                            "pitch": 50, 
                            "t0": 97260, 
                            "v": 68, 
                            "dur": 180, 
                            "type": "note", 
                            "channel": 14
                        }
                    ]
                ], 
                [
                    97440, 
                    [
                        {
                            "pitch": 55, 
                            "t0": 97440, 
                            "v": 68, 
                            "dur": 480, 
                            "type": "note", 
                            "channel": 14
                        }
                    ]
                ], 
                [
                    97920, 
                    [
                        {
                            "pitch": 45, 
                            "t0": 97920, 
                            "v": 67, 
                            "dur": 120, 
                            "type": "note", 
                            "channel": 14
                        }
                    ]
                ], 
                [
                    98040, 
                    [
                        {
                            "pitch": 48, 
                            "t0": 98040, 
                            "v": 69, 
                            "dur": 180, 
                            "type": "note", 
                            "channel": 14
                        }
                    ]
                ], 
                [
                    98220, 
                    [
                        {
                            "pitch": 52, 
                            "t0": 98220, 
                            "v": 69, 
                            "dur": 180, 
                            "type": "note", 
                            "channel": 14
                        }
                    ]
                ], 
                [
                    98400, 
                    [
                        {
                            "pitch": 57, 
                            "t0": 98400, 
                            "v": 69, 
                            "dur": 480, 
                            "type": "note", 
                            "channel": 14
                        }
                    ]
                ], 
                [
                    98880, 
                    [
                        {
                            "pitch": 45, 
                            "t0": 98880, 
                            "v": 69, 
                            "dur": 120, 
                            "type": "note", 
                            "channel": 14
                        }
                    ]
                ], 
                [
                    99000, 
                    [
                        {
                            "pitch": 48, 
                            "t0": 99000, 
                            "v": 69, 
                            "dur": 180, 
                            "type": "note", 
                            "channel": 14
                        }
                    ]
                ], 
                [
                    99180, 
                    [
                        {
                            "pitch": 52, 
                            "t0": 99180, 
                            "v": 69, 
                            "dur": 180, 
                            "type": "note", 
                            "channel": 14
                        }
                    ]
                ], 
                [
                    99360, 
                    [
                        {
                            "pitch": 57, 
                            "t0": 99360, 
                            "v": 69, 
                            "dur": 480, 
                            "type": "note", 
                            "channel": 14
                        }
                    ]
                ], 
                [
                    99840, 
                    [
                        {
                            "pitch": 40, 
                            "t0": 99840, 
                            "v": 69, 
                            "dur": 120, 
                            "type": "note", 
                            "channel": 14
                        }
                    ]
                ], 
                [
                    99960, 
                    [
                        {
                            "pitch": 43, 
                            "t0": 99960, 
                            "v": 69, 
                            "dur": 180, 
                            "type": "note", 
                            "channel": 14
                        }
                    ]
                ], 
                [
                    100140, 
                    [
                        {
                            "pitch": 47, 
                            "t0": 100140, 
                            "v": 69, 
                            "dur": 180, 
                            "type": "note", 
                            "channel": 14
                        }
                    ]
                ], 
                [
                    100320, 
                    [
                        {
                            "pitch": 52, 
                            "t0": 100320, 
                            "v": 69, 
                            "dur": 480, 
                            "type": "note", 
                            "channel": 14
                        }
                    ]
                ], 
                [
                    100800, 
                    [
                        {
                            "pitch": 40, 
                            "t0": 100800, 
                            "v": 69, 
                            "dur": 120, 
                            "type": "note", 
                            "channel": 14
                        }
                    ]
                ], 
                [
                    100920, 
                    [
                        {
                            "pitch": 43, 
                            "t0": 100920, 
                            "v": 69, 
                            "dur": 180, 
                            "type": "note", 
                            "channel": 14
                        }
                    ]
                ], 
                [
                    101100, 
                    [
                        {
                            "pitch": 47, 
                            "t0": 101100, 
                            "v": 69, 
                            "dur": 180, 
                            "type": "note", 
                            "channel": 14
                        }
                    ]
                ], 
                [
                    101280, 
                    [
                        {
                            "pitch": 52, 
                            "t0": 101280, 
                            "v": 69, 
                            "dur": 480, 
                            "type": "note", 
                            "channel": 14
                        }
                    ]
                ], 
                [
                    101760, 
                    [
                        {
                            "pitch": 41, 
                            "t0": 101760, 
                            "v": 69, 
                            "dur": 120, 
                            "type": "note", 
                            "channel": 14
                        }
                    ]
                ], 
                [
                    101880, 
                    [
                        {
                            "pitch": 45, 
                            "t0": 101880, 
                            "v": 70, 
                            "dur": 180, 
                            "type": "note", 
                            "channel": 14
                        }
                    ]
                ], 
                [
                    102060, 
                    [
                        {
                            "pitch": 48, 
                            "t0": 102060, 
                            "v": 71, 
                            "dur": 180, 
                            "type": "note", 
                            "channel": 14
                        }
                    ]
                ], 
                [
                    102240, 
                    [
                        {
                            "pitch": 53, 
                            "t0": 102240, 
                            "v": 73, 
                            "dur": 420, 
                            "type": "note", 
                            "channel": 14
                        }
                    ]
                ], 
                [
                    102720, 
                    [
                        {
                            "pitch": 43, 
                            "t0": 102720, 
                            "v": 77, 
                            "dur": 180, 
                            "type": "note", 
                            "channel": 14
                        }
                    ]
                ], 
                [
                    102900, 
                    [
                        {
                            "pitch": 47, 
                            "t0": 102900, 
                            "v": 79, 
                            "dur": 120, 
                            "type": "note", 
                            "channel": 14
                        }
                    ]
                ], 
                [
                    103020, 
                    [
                        {
                            "pitch": 50, 
                            "t0": 103020, 
                            "v": 80, 
                            "dur": 180, 
                            "type": "note", 
                            "channel": 14
                        }
                    ]
                ], 
                [
                    103200, 
                    [
                        {
                            "pitch": 55, 
                            "t0": 103200, 
                            "v": 81, 
                            "dur": 480, 
                            "type": "note", 
                            "channel": 14
                        }
                    ]
                ], 
                [
                    103680, 
                    [
                        {
                            "pitch": 45, 
                            "t0": 103680, 
                            "v": 85, 
                            "dur": 120, 
                            "type": "note", 
                            "channel": 14
                        }
                    ]
                ], 
                [
                    103800, 
                    [
                        {
                            "pitch": 48, 
                            "t0": 103800, 
                            "v": 86, 
                            "dur": 180, 
                            "type": "note", 
                            "channel": 14
                        }
                    ]
                ], 
                [
                    103980, 
                    [
                        {
                            "pitch": 52, 
                            "t0": 103980, 
                            "v": 88, 
                            "dur": 180, 
                            "type": "note", 
                            "channel": 14
                        }
                    ]
                ], 
                [
                    104160, 
                    [
                        {
                            "pitch": 57, 
                            "t0": 104160, 
                            "v": 90, 
                            "dur": 480, 
                            "type": "note", 
                            "channel": 14
                        }
                    ]
                ], 
                [
                    105600, 
                    [
                        {
                            "pitch": 48, 
                            "t0": 105600, 
                            "v": 71, 
                            "dur": 120, 
                            "type": "note", 
                            "channel": 14
                        }
                    ]
                ], 
                [
                    105720, 
                    [
                        {
                            "pitch": 52, 
                            "t0": 105720, 
                            "v": 71, 
                            "dur": 180, 
                            "type": "note", 
                            "channel": 14
                        }
                    ]
                ], 
                [
                    105900, 
                    [
                        {
                            "pitch": 55, 
                            "t0": 105900, 
                            "v": 71, 
                            "dur": 180, 
                            "type": "note", 
                            "channel": 14
                        }
                    ]
                ], 
                [
                    106080, 
                    [
                        {
                            "pitch": 60, 
                            "t0": 106080, 
                            "v": 71, 
                            "dur": 480, 
                            "type": "note", 
                            "channel": 14
                        }
                    ]
                ], 
                [
                    106560, 
                    [
                        {
                            "pitch": 43, 
                            "t0": 106560, 
                            "v": 71, 
                            "dur": 120, 
                            "type": "note", 
                            "channel": 14
                        }
                    ]
                ], 
                [
                    106680, 
                    [
                        {
                            "pitch": 47, 
                            "t0": 106680, 
                            "v": 71, 
                            "dur": 180, 
                            "type": "note", 
                            "channel": 14
                        }
                    ]
                ], 
                [
                    106860, 
                    [
                        {
                            "pitch": 50, 
                            "t0": 106860, 
                            "v": 71, 
                            "dur": 180, 
                            "type": "note", 
                            "channel": 14
                        }
                    ]
                ], 
                [
                    107040, 
                    [
                        {
                            "pitch": 55, 
                            "t0": 107040, 
                            "v": 71, 
                            "dur": 480, 
                            "type": "note", 
                            "channel": 14
                        }
                    ]
                ], 
                [
                    107520, 
                    [
                        {
                            "pitch": 45, 
                            "t0": 107520, 
                            "v": 71, 
                            "dur": 120, 
                            "type": "note", 
                            "channel": 14
                        }
                    ]
                ], 
                [
                    107640, 
                    [
                        {
                            "pitch": 48, 
                            "t0": 107640, 
                            "v": 71, 
                            "dur": 180, 
                            "type": "note", 
                            "channel": 14
                        }
                    ]
                ], 
                [
                    107820, 
                    [
                        {
                            "pitch": 52, 
                            "t0": 107820, 
                            "v": 71, 
                            "dur": 180, 
                            "type": "note", 
                            "channel": 14
                        }
                    ]
                ], 
                [
                    108000, 
                    [
                        {
                            "pitch": 57, 
                            "t0": 108000, 
                            "v": 71, 
                            "dur": 480, 
                            "type": "note", 
                            "channel": 14
                        }
                    ]
                ], 
                [
                    108480, 
                    [
                        {
                            "pitch": 40, 
                            "t0": 108480, 
                            "v": 71, 
                            "dur": 120, 
                            "type": "note", 
                            "channel": 14
                        }
                    ]
                ], 
                [
                    108600, 
                    [
                        {
                            "pitch": 43, 
                            "t0": 108600, 
                            "v": 71, 
                            "dur": 180, 
                            "type": "note", 
                            "channel": 14
                        }
                    ]
                ], 
                [
                    108780, 
                    [
                        {
                            "pitch": 47, 
                            "t0": 108780, 
                            "v": 71, 
                            "dur": 180, 
                            "type": "note", 
                            "channel": 14
                        }
                    ]
                ], 
                [
                    108960, 
                    [
                        {
                            "pitch": 52, 
                            "t0": 108960, 
                            "v": 71, 
                            "dur": 480, 
                            "type": "note", 
                            "channel": 14
                        }
                    ]
                ], 
                [
                    109440, 
                    [
                        {
                            "pitch": 41, 
                            "t0": 109440, 
                            "v": 71, 
                            "dur": 120, 
                            "type": "note", 
                            "channel": 14
                        }
                    ]
                ], 
                [
                    109560, 
                    [
                        {
                            "pitch": 45, 
                            "t0": 109560, 
                            "v": 72, 
                            "dur": 180, 
                            "type": "note", 
                            "channel": 14
                        }
                    ]
                ], 
                [
                    109740, 
                    [
                        {
                            "pitch": 48, 
                            "t0": 109740, 
                            "v": 74, 
                            "dur": 190, 
                            "type": "note", 
                            "channel": 14
                        }
                    ]
                ], 
                [
                    109920, 
                    [
                        {
                            "pitch": 53, 
                            "t0": 109920, 
                            "v": 75, 
                            "dur": 480, 
                            "type": "note", 
                            "channel": 14
                        }
                    ]
                ], 
                [
                    110400, 
                    [
                        {
                            "pitch": 43, 
                            "t0": 110400, 
                            "v": 79, 
                            "dur": 120, 
                            "type": "note", 
                            "channel": 14
                        }
                    ]
                ], 
                [
                    110520, 
                    [
                        {
                            "pitch": 47, 
                            "t0": 110520, 
                            "v": 80, 
                            "dur": 180, 
                            "type": "note", 
                            "channel": 14
                        }
                    ]
                ], 
                [
                    110700, 
                    [
                        {
                            "pitch": 50, 
                            "t0": 110700, 
                            "v": 82, 
                            "dur": 180, 
                            "type": "note", 
                            "channel": 14
                        }
                    ]
                ], 
                [
                    110880, 
                    [
                        {
                            "pitch": 55, 
                            "t0": 110880, 
                            "v": 83, 
                            "dur": 480, 
                            "type": "note", 
                            "channel": 14
                        }
                    ]
                ], 
                [
                    111360, 
                    [
                        {
                            "pitch": 45, 
                            "t0": 111360, 
                            "v": 87, 
                            "dur": 120, 
                            "type": "note", 
                            "channel": 14
                        }
                    ]
                ], 
                [
                    111480, 
                    [
                        {
                            "pitch": 48, 
                            "t0": 111480, 
                            "v": 88, 
                            "dur": 180, 
                            "type": "note", 
                            "channel": 14
                        }
                    ]
                ], 
                [
                    111660, 
                    [
                        {
                            "pitch": 52, 
                            "t0": 111660, 
                            "v": 89, 
                            "dur": 180, 
                            "type": "note", 
                            "channel": 14
                        }
                    ]
                ], 
                [
                    111840, 
                    [
                        {
                            "pitch": 57, 
                            "t0": 111840, 
                            "v": 91, 
                            "dur": 480, 
                            "type": "note", 
                            "channel": 14
                        }
                    ]
                ], 
                [
                    201600, 
                    [
                        {
                            "pitch": 48, 
                            "t0": 201600, 
                            "v": 70, 
                            "dur": 120, 
                            "type": "note", 
                            "channel": 14
                        }
                    ]
                ], 
                [
                    201720, 
                    [
                        {
                            "pitch": 52, 
                            "t0": 201720, 
                            "v": 70, 
                            "dur": 180, 
                            "type": "note", 
                            "channel": 14
                        }
                    ]
                ], 
                [
                    201900, 
                    [
                        {
                            "pitch": 55, 
                            "t0": 201900, 
                            "v": 70, 
                            "dur": 180, 
                            "type": "note", 
                            "channel": 14
                        }
                    ]
                ], 
                [
                    202080, 
                    [
                        {
                            "pitch": 60, 
                            "t0": 202080, 
                            "v": 70, 
                            "dur": 480, 
                            "type": "note", 
                            "channel": 14
                        }
                    ]
                ], 
                [
                    202560, 
                    [
                        {
                            "pitch": 48, 
                            "t0": 202560, 
                            "v": 69, 
                            "dur": 120, 
                            "type": "note", 
                            "channel": 14
                        }
                    ]
                ], 
                [
                    202680, 
                    [
                        {
                            "pitch": 52, 
                            "t0": 202680, 
                            "v": 69, 
                            "dur": 180, 
                            "type": "note", 
                            "channel": 14
                        }
                    ]
                ], 
                [
                    202860, 
                    [
                        {
                            "pitch": 55, 
                            "t0": 202860, 
                            "v": 69, 
                            "dur": 180, 
                            "type": "note", 
                            "channel": 14
                        }
                    ]
                ], 
                [
                    203040, 
                    [
                        {
                            "pitch": 60, 
                            "t0": 203040, 
                            "v": 69, 
                            "dur": 480, 
                            "type": "note", 
                            "channel": 14
                        }
                    ]
                ], 
                [
                    203520, 
                    [
                        {
                            "pitch": 43, 
                            "t0": 203520, 
                            "v": 69, 
                            "dur": 120, 
                            "type": "note", 
                            "channel": 14
                        }
                    ]
                ], 
                [
                    203640, 
                    [
                        {
                            "pitch": 47, 
                            "t0": 203640, 
                            "v": 69, 
                            "dur": 180, 
                            "type": "note", 
                            "channel": 14
                        }
                    ]
                ], 
                [
                    203820, 
                    [
                        {
                            "pitch": 50, 
                            "t0": 203820, 
                            "v": 69, 
                            "dur": 180, 
                            "type": "note", 
                            "channel": 14
                        }
                    ]
                ], 
                [
                    204000, 
                    [
                        {
                            "pitch": 55, 
                            "t0": 204000, 
                            "v": 68, 
                            "dur": 480, 
                            "type": "note", 
                            "channel": 14
                        }
                    ]
                ], 
                [
                    204480, 
                    [
                        {
                            "pitch": 43, 
                            "t0": 204480, 
                            "v": 68, 
                            "dur": 120, 
                            "type": "note", 
                            "channel": 14
                        }
                    ]
                ], 
                [
                    204600, 
                    [
                        {
                            "pitch": 47, 
                            "t0": 204600, 
                            "v": 68, 
                            "dur": 180, 
                            "type": "note", 
                            "channel": 14
                        }
                    ]
                ], 
                [
                    204780, 
                    [
                        {
                            "pitch": 50, 
                            "t0": 204780, 
                            "v": 68, 
                            "dur": 180, 
                            "type": "note", 
                            "channel": 14
                        }
                    ]
                ], 
                [
                    204960, 
                    [
                        {
                            "pitch": 55, 
                            "t0": 204960, 
                            "v": 68, 
                            "dur": 480, 
                            "type": "note", 
                            "channel": 14
                        }
                    ]
                ], 
                [
                    205440, 
                    [
                        {
                            "pitch": 45, 
                            "t0": 205440, 
                            "v": 67, 
                            "dur": 120, 
                            "type": "note", 
                            "channel": 14
                        }
                    ]
                ], 
                [
                    205560, 
                    [
                        {
                            "pitch": 48, 
                            "t0": 205560, 
                            "v": 69, 
                            "dur": 180, 
                            "type": "note", 
                            "channel": 14
                        }
                    ]
                ], 
                [
                    205740, 
                    [
                        {
                            "pitch": 52, 
                            "t0": 205740, 
                            "v": 69, 
                            "dur": 180, 
                            "type": "note", 
                            "channel": 14
                        }
                    ]
                ], 
                [
                    205920, 
                    [
                        {
                            "pitch": 57, 
                            "t0": 205920, 
                            "v": 69, 
                            "dur": 480, 
                            "type": "note", 
                            "channel": 14
                        }
                    ]
                ], 
                [
                    206400, 
                    [
                        {
                            "pitch": 45, 
                            "t0": 206400, 
                            "v": 69, 
                            "dur": 120, 
                            "type": "note", 
                            "channel": 14
                        }
                    ]
                ], 
                [
                    206520, 
                    [
                        {
                            "pitch": 48, 
                            "t0": 206520, 
                            "v": 69, 
                            "dur": 180, 
                            "type": "note", 
                            "channel": 14
                        }
                    ]
                ], 
                [
                    206700, 
                    [
                        {
                            "pitch": 52, 
                            "t0": 206700, 
                            "v": 69, 
                            "dur": 180, 
                            "type": "note", 
                            "channel": 14
                        }
                    ]
                ], 
                [
                    206880, 
                    [
                        {
                            "pitch": 57, 
                            "t0": 206880, 
                            "v": 69, 
                            "dur": 480, 
                            "type": "note", 
                            "channel": 14
                        }
                    ]
                ], 
                [
                    207360, 
                    [
                        {
                            "pitch": 40, 
                            "t0": 207360, 
                            "v": 69, 
                            "dur": 120, 
                            "type": "note", 
                            "channel": 14
                        }
                    ]
                ], 
                [
                    207480, 
                    [
                        {
                            "pitch": 43, 
                            "t0": 207480, 
                            "v": 69, 
                            "dur": 180, 
                            "type": "note", 
                            "channel": 14
                        }
                    ]
                ], 
                [
                    207660, 
                    [
                        {
                            "pitch": 47, 
                            "t0": 207660, 
                            "v": 69, 
                            "dur": 180, 
                            "type": "note", 
                            "channel": 14
                        }
                    ]
                ], 
                [
                    207840, 
                    [
                        {
                            "pitch": 52, 
                            "t0": 207840, 
                            "v": 69, 
                            "dur": 480, 
                            "type": "note", 
                            "channel": 14
                        }
                    ]
                ], 
                [
                    208320, 
                    [
                        {
                            "pitch": 40, 
                            "t0": 208320, 
                            "v": 69, 
                            "dur": 120, 
                            "type": "note", 
                            "channel": 14
                        }
                    ]
                ], 
                [
                    208440, 
                    [
                        {
                            "pitch": 43, 
                            "t0": 208440, 
                            "v": 69, 
                            "dur": 180, 
                            "type": "note", 
                            "channel": 14
                        }
                    ]
                ], 
                [
                    208620, 
                    [
                        {
                            "pitch": 47, 
                            "t0": 208620, 
                            "v": 69, 
                            "dur": 180, 
                            "type": "note", 
                            "channel": 14
                        }
                    ]
                ], 
                [
                    208800, 
                    [
                        {
                            "pitch": 52, 
                            "t0": 208800, 
                            "v": 69, 
                            "dur": 480, 
                            "type": "note", 
                            "channel": 14
                        }
                    ]
                ], 
                [
                    209280, 
                    [
                        {
                            "pitch": 41, 
                            "t0": 209280, 
                            "v": 69, 
                            "dur": 120, 
                            "type": "note", 
                            "channel": 14
                        }
                    ]
                ], 
                [
                    209400, 
                    [
                        {
                            "pitch": 45, 
                            "t0": 209400, 
                            "v": 70, 
                            "dur": 180, 
                            "type": "note", 
                            "channel": 14
                        }
                    ]
                ], 
                [
                    209580, 
                    [
                        {
                            "pitch": 48, 
                            "t0": 209580, 
                            "v": 71, 
                            "dur": 180, 
                            "type": "note", 
                            "channel": 14
                        }
                    ]
                ], 
                [
                    209760, 
                    [
                        {
                            "pitch": 53, 
                            "t0": 209760, 
                            "v": 73, 
                            "dur": 420, 
                            "type": "note", 
                            "channel": 14
                        }
                    ]
                ], 
                [
                    210240, 
                    [
                        {
                            "pitch": 43, 
                            "t0": 210240, 
                            "v": 77, 
                            "dur": 180, 
                            "type": "note", 
                            "channel": 14
                        }
                    ]
                ], 
                [
                    210420, 
                    [
                        {
                            "pitch": 47, 
                            "t0": 210420, 
                            "v": 79, 
                            "dur": 120, 
                            "type": "note", 
                            "channel": 14
                        }
                    ]
                ], 
                [
                    210540, 
                    [
                        {
                            "pitch": 50, 
                            "t0": 210540, 
                            "v": 80, 
                            "dur": 180, 
                            "type": "note", 
                            "channel": 14
                        }
                    ]
                ], 
                [
                    210720, 
                    [
                        {
                            "pitch": 55, 
                            "t0": 210720, 
                            "v": 81, 
                            "dur": 480, 
                            "type": "note", 
                            "channel": 14
                        }
                    ]
                ], 
                [
                    211200, 
                    [
                        {
                            "pitch": 45, 
                            "t0": 211200, 
                            "v": 85, 
                            "dur": 120, 
                            "type": "note", 
                            "channel": 14
                        }
                    ]
                ], 
                [
                    211320, 
                    [
                        {
                            "pitch": 48, 
                            "t0": 211320, 
                            "v": 86, 
                            "dur": 180, 
                            "type": "note", 
                            "channel": 14
                        }
                    ]
                ], 
                [
                    211500, 
                    [
                        {
                            "pitch": 52, 
                            "t0": 211500, 
                            "v": 88, 
                            "dur": 180, 
                            "type": "note", 
                            "channel": 14
                        }
                    ]
                ], 
                [
                    211680, 
                    [
                        {
                            "pitch": 57, 
                            "t0": 211680, 
                            "v": 90, 
                            "dur": 480, 
                            "type": "note", 
                            "channel": 14
                        }
                    ]
                ], 
                [
                    213120, 
                    [
                        {
                            "pitch": 48, 
                            "t0": 213120, 
                            "v": 71, 
                            "dur": 120, 
                            "type": "note", 
                            "channel": 14
                        }
                    ]
                ], 
                [
                    213240, 
                    [
                        {
                            "pitch": 52, 
                            "t0": 213240, 
                            "v": 71, 
                            "dur": 180, 
                            "type": "note", 
                            "channel": 14
                        }
                    ]
                ], 
                [
                    213420, 
                    [
                        {
                            "pitch": 55, 
                            "t0": 213420, 
                            "v": 71, 
                            "dur": 180, 
                            "type": "note", 
                            "channel": 14
                        }
                    ]
                ], 
                [
                    213600, 
                    [
                        {
                            "pitch": 60, 
                            "t0": 213600, 
                            "v": 71, 
                            "dur": 480, 
                            "type": "note", 
                            "channel": 14
                        }
                    ]
                ], 
                [
                    214080, 
                    [
                        {
                            "pitch": 43, 
                            "t0": 214080, 
                            "v": 71, 
                            "dur": 120, 
                            "type": "note", 
                            "channel": 14
                        }
                    ]
                ], 
                [
                    214200, 
                    [
                        {
                            "pitch": 47, 
                            "t0": 214200, 
                            "v": 71, 
                            "dur": 180, 
                            "type": "note", 
                            "channel": 14
                        }
                    ]
                ], 
                [
                    214380, 
                    [
                        {
                            "pitch": 50, 
                            "t0": 214380, 
                            "v": 71, 
                            "dur": 180, 
                            "type": "note", 
                            "channel": 14
                        }
                    ]
                ], 
                [
                    214560, 
                    [
                        {
                            "pitch": 55, 
                            "t0": 214560, 
                            "v": 71, 
                            "dur": 480, 
                            "type": "note", 
                            "channel": 14
                        }
                    ]
                ], 
                [
                    215040, 
                    [
                        {
                            "pitch": 45, 
                            "t0": 215040, 
                            "v": 71, 
                            "dur": 120, 
                            "type": "note", 
                            "channel": 14
                        }
                    ]
                ], 
                [
                    215160, 
                    [
                        {
                            "pitch": 48, 
                            "t0": 215160, 
                            "v": 71, 
                            "dur": 180, 
                            "type": "note", 
                            "channel": 14
                        }
                    ]
                ], 
                [
                    215340, 
                    [
                        {
                            "pitch": 52, 
                            "t0": 215340, 
                            "v": 71, 
                            "dur": 180, 
                            "type": "note", 
                            "channel": 14
                        }
                    ]
                ], 
                [
                    215520, 
                    [
                        {
                            "pitch": 57, 
                            "t0": 215520, 
                            "v": 71, 
                            "dur": 480, 
                            "type": "note", 
                            "channel": 14
                        }
                    ]
                ], 
                [
                    216000, 
                    [
                        {
                            "pitch": 40, 
                            "t0": 216000, 
                            "v": 71, 
                            "dur": 120, 
                            "type": "note", 
                            "channel": 14
                        }
                    ]
                ], 
                [
                    216120, 
                    [
                        {
                            "pitch": 43, 
                            "t0": 216120, 
                            "v": 71, 
                            "dur": 180, 
                            "type": "note", 
                            "channel": 14
                        }
                    ]
                ], 
                [
                    216300, 
                    [
                        {
                            "pitch": 47, 
                            "t0": 216300, 
                            "v": 71, 
                            "dur": 180, 
                            "type": "note", 
                            "channel": 14
                        }
                    ]
                ], 
                [
                    216480, 
                    [
                        {
                            "pitch": 52, 
                            "t0": 216480, 
                            "v": 71, 
                            "dur": 480, 
                            "type": "note", 
                            "channel": 14
                        }
                    ]
                ], 
                [
                    216960, 
                    [
                        {
                            "pitch": 41, 
                            "t0": 216960, 
                            "v": 71, 
                            "dur": 120, 
                            "type": "note", 
                            "channel": 14
                        }
                    ]
                ], 
                [
                    217080, 
                    [
                        {
                            "pitch": 45, 
                            "t0": 217080, 
                            "v": 72, 
                            "dur": 180, 
                            "type": "note", 
                            "channel": 14
                        }
                    ]
                ], 
                [
                    217260, 
                    [
                        {
                            "pitch": 48, 
                            "t0": 217260, 
                            "v": 74, 
                            "dur": 190, 
                            "type": "note", 
                            "channel": 14
                        }
                    ]
                ], 
                [
                    217440, 
                    [
                        {
                            "pitch": 53, 
                            "t0": 217440, 
                            "v": 75, 
                            "dur": 480, 
                            "type": "note", 
                            "channel": 14
                        }
                    ]
                ], 
                [
                    217920, 
                    [
                        {
                            "pitch": 43, 
                            "t0": 217920, 
                            "v": 79, 
                            "dur": 120, 
                            "type": "note", 
                            "channel": 14
                        }
                    ]
                ], 
                [
                    218040, 
                    [
                        {
                            "pitch": 47, 
                            "t0": 218040, 
                            "v": 80, 
                            "dur": 180, 
                            "type": "note", 
                            "channel": 14
                        }
                    ]
                ], 
                [
                    218220, 
                    [
                        {
                            "pitch": 50, 
                            "t0": 218220, 
                            "v": 82, 
                            "dur": 180, 
                            "type": "note", 
                            "channel": 14
                        }
                    ]
                ], 
                [
                    218400, 
                    [
                        {
                            "pitch": 55, 
                            "t0": 218400, 
                            "v": 83, 
                            "dur": 480, 
                            "type": "note", 
                            "channel": 14
                        }
                    ]
                ], 
                [
                    218880, 
                    [
                        {
                            "pitch": 45, 
                            "t0": 218880, 
                            "v": 87, 
                            "dur": 120, 
                            "type": "note", 
                            "channel": 14
                        }
                    ]
                ], 
                [
                    219000, 
                    [
                        {
                            "pitch": 48, 
                            "t0": 219000, 
                            "v": 88, 
                            "dur": 180, 
                            "type": "note", 
                            "channel": 14
                        }
                    ]
                ], 
                [
                    219180, 
                    [
                        {
                            "pitch": 52, 
                            "t0": 219180, 
                            "v": 89, 
                            "dur": 180, 
                            "type": "note", 
                            "channel": 14
                        }
                    ]
                ], 
                [
                    219360, 
                    [
                        {
                            "pitch": 57, 
                            "t0": 219360, 
                            "v": 91, 
                            "dur": 480, 
                            "type": "note", 
                            "channel": 14
                        }
                    ]
                ]
            ], 
            "instruments": [
                69
            ], 
            "tMax": 219840, 
            "channels": [
                14
            ], 
            "instrument": 69, 
            "numNotes": 144, 
            "type": "TrackObj"
        }, 
        {
            "trackName": "Track 16", 
            "seq": [
                [
                    0, 
                    [
                        {
                            "instrument": 60, 
                            "type": "programChange", 
                            "t0": 0, 
                            "channel": 15
                        }
                    ]
                ], 
                [
                    94080, 
                    [
                        {
                            "pitch": 48, 
                            "t0": 94080, 
                            "v": 91, 
                            "dur": 1920, 
                            "type": "note", 
                            "channel": 15
                        }, 
                        {
                            "pitch": 60, 
                            "t0": 94080, 
                            "v": 86, 
                            "dur": 1920, 
                            "type": "note", 
                            "channel": 15
                        }
                    ]
                ], 
                [
                    96000, 
                    [
                        {
                            "pitch": 43, 
                            "t0": 96000, 
                            "v": 94, 
                            "dur": 1920, 
                            "type": "note", 
                            "channel": 15
                        }, 
                        {
                            "pitch": 55, 
                            "t0": 96000, 
                            "v": 97, 
                            "dur": 1920, 
                            "type": "note", 
                            "channel": 15
                        }
                    ]
                ], 
                [
                    97920, 
                    [
                        {
                            "pitch": 57, 
                            "t0": 97920, 
                            "v": 101, 
                            "dur": 1920, 
                            "type": "note", 
                            "channel": 15
                        }, 
                        {
                            "pitch": 45, 
                            "t0": 97920, 
                            "v": 108, 
                            "dur": 1920, 
                            "type": "note", 
                            "channel": 15
                        }
                    ]
                ], 
                [
                    99840, 
                    [
                        {
                            "pitch": 52, 
                            "t0": 99840, 
                            "v": 101, 
                            "dur": 1920, 
                            "type": "note", 
                            "channel": 15
                        }, 
                        {
                            "pitch": 40, 
                            "t0": 99840, 
                            "v": 104, 
                            "dur": 1920, 
                            "type": "note", 
                            "channel": 15
                        }
                    ]
                ], 
                [
                    101760, 
                    [
                        {
                            "pitch": 41, 
                            "t0": 101760, 
                            "v": 104, 
                            "dur": 960, 
                            "type": "note", 
                            "channel": 15
                        }, 
                        {
                            "pitch": 53, 
                            "t0": 101760, 
                            "v": 108, 
                            "dur": 960, 
                            "type": "note", 
                            "channel": 15
                        }
                    ]
                ], 
                [
                    102720, 
                    [
                        {
                            "pitch": 55, 
                            "t0": 102720, 
                            "v": 113, 
                            "dur": 960, 
                            "type": "note", 
                            "channel": 15
                        }, 
                        {
                            "pitch": 43, 
                            "t0": 102720, 
                            "v": 108, 
                            "dur": 960, 
                            "type": "note", 
                            "channel": 15
                        }
                    ]
                ], 
                [
                    103680, 
                    [
                        {
                            "pitch": 57, 
                            "t0": 103680, 
                            "v": 108, 
                            "dur": 1440, 
                            "type": "note", 
                            "channel": 15
                        }, 
                        {
                            "pitch": 45, 
                            "t0": 103680, 
                            "v": 113, 
                            "dur": 1440, 
                            "type": "note", 
                            "channel": 15
                        }
                    ]
                ], 
                [
                    105600, 
                    [
                        {
                            "pitch": 60, 
                            "t0": 105600, 
                            "v": 104, 
                            "dur": 960, 
                            "type": "note", 
                            "channel": 15
                        }, 
                        {
                            "pitch": 48, 
                            "t0": 105600, 
                            "v": 108, 
                            "dur": 960, 
                            "type": "note", 
                            "channel": 15
                        }
                    ]
                ], 
                [
                    106560, 
                    [
                        {
                            "pitch": 43, 
                            "t0": 106560, 
                            "v": 108, 
                            "dur": 960, 
                            "type": "note", 
                            "channel": 15
                        }, 
                        {
                            "pitch": 55, 
                            "t0": 106560, 
                            "v": 117, 
                            "dur": 960, 
                            "type": "note", 
                            "channel": 15
                        }
                    ]
                ], 
                [
                    107520, 
                    [
                        {
                            "pitch": 45, 
                            "t0": 107520, 
                            "v": 113, 
                            "dur": 960, 
                            "type": "note", 
                            "channel": 15
                        }, 
                        {
                            "pitch": 57, 
                            "t0": 107520, 
                            "v": 108, 
                            "dur": 960, 
                            "type": "note", 
                            "channel": 15
                        }
                    ]
                ], 
                [
                    108480, 
                    [
                        {
                            "pitch": 40, 
                            "t0": 108480, 
                            "v": 122, 
                            "dur": 960, 
                            "type": "note", 
                            "channel": 15
                        }, 
                        {
                            "pitch": 52, 
                            "t0": 108480, 
                            "v": 104, 
                            "dur": 960, 
                            "type": "note", 
                            "channel": 15
                        }
                    ]
                ], 
                [
                    109440, 
                    [
                        {
                            "pitch": 41, 
                            "t0": 109440, 
                            "v": 117, 
                            "dur": 960, 
                            "type": "note", 
                            "channel": 15
                        }, 
                        {
                            "pitch": 53, 
                            "t0": 109440, 
                            "v": 117, 
                            "dur": 960, 
                            "type": "note", 
                            "channel": 15
                        }
                    ]
                ], 
                [
                    110400, 
                    [
                        {
                            "pitch": 43, 
                            "t0": 110400, 
                            "v": 113, 
                            "dur": 960, 
                            "type": "note", 
                            "channel": 15
                        }, 
                        {
                            "pitch": 55, 
                            "t0": 110400, 
                            "v": 122, 
                            "dur": 960, 
                            "type": "note", 
                            "channel": 15
                        }
                    ]
                ], 
                [
                    111360, 
                    [
                        {
                            "pitch": 45, 
                            "t0": 111360, 
                            "v": 122, 
                            "dur": 1440, 
                            "type": "note", 
                            "channel": 15
                        }, 
                        {
                            "pitch": 57, 
                            "t0": 111360, 
                            "v": 122, 
                            "dur": 1440, 
                            "type": "note", 
                            "channel": 15
                        }
                    ]
                ], 
                [
                    201600, 
                    [
                        {
                            "pitch": 48, 
                            "t0": 201600, 
                            "v": 91, 
                            "dur": 1920, 
                            "type": "note", 
                            "channel": 15
                        }, 
                        {
                            "pitch": 60, 
                            "t0": 201600, 
                            "v": 86, 
                            "dur": 1920, 
                            "type": "note", 
                            "channel": 15
                        }
                    ]
                ], 
                [
                    203520, 
                    [
                        {
                            "pitch": 43, 
                            "t0": 203520, 
                            "v": 94, 
                            "dur": 1920, 
                            "type": "note", 
                            "channel": 15
                        }, 
                        {
                            "pitch": 55, 
                            "t0": 203520, 
                            "v": 97, 
                            "dur": 1920, 
                            "type": "note", 
                            "channel": 15
                        }
                    ]
                ], 
                [
                    205440, 
                    [
                        {
                            "pitch": 57, 
                            "t0": 205440, 
                            "v": 101, 
                            "dur": 1920, 
                            "type": "note", 
                            "channel": 15
                        }, 
                        {
                            "pitch": 45, 
                            "t0": 205440, 
                            "v": 108, 
                            "dur": 1920, 
                            "type": "note", 
                            "channel": 15
                        }
                    ]
                ], 
                [
                    207360, 
                    [
                        {
                            "pitch": 52, 
                            "t0": 207360, 
                            "v": 101, 
                            "dur": 1920, 
                            "type": "note", 
                            "channel": 15
                        }, 
                        {
                            "pitch": 40, 
                            "t0": 207360, 
                            "v": 104, 
                            "dur": 1920, 
                            "type": "note", 
                            "channel": 15
                        }
                    ]
                ], 
                [
                    209280, 
                    [
                        {
                            "pitch": 41, 
                            "t0": 209280, 
                            "v": 104, 
                            "dur": 960, 
                            "type": "note", 
                            "channel": 15
                        }, 
                        {
                            "pitch": 53, 
                            "t0": 209280, 
                            "v": 108, 
                            "dur": 960, 
                            "type": "note", 
                            "channel": 15
                        }
                    ]
                ], 
                [
                    210240, 
                    [
                        {
                            "pitch": 55, 
                            "t0": 210240, 
                            "v": 113, 
                            "dur": 960, 
                            "type": "note", 
                            "channel": 15
                        }, 
                        {
                            "pitch": 43, 
                            "t0": 210240, 
                            "v": 108, 
                            "dur": 960, 
                            "type": "note", 
                            "channel": 15
                        }
                    ]
                ], 
                [
                    211200, 
                    [
                        {
                            "pitch": 57, 
                            "t0": 211200, 
                            "v": 108, 
                            "dur": 1440, 
                            "type": "note", 
                            "channel": 15
                        }, 
                        {
                            "pitch": 45, 
                            "t0": 211200, 
                            "v": 113, 
                            "dur": 1440, 
                            "type": "note", 
                            "channel": 15
                        }
                    ]
                ], 
                [
                    213120, 
                    [
                        {
                            "pitch": 60, 
                            "t0": 213120, 
                            "v": 104, 
                            "dur": 960, 
                            "type": "note", 
                            "channel": 15
                        }, 
                        {
                            "pitch": 48, 
                            "t0": 213120, 
                            "v": 108, 
                            "dur": 960, 
                            "type": "note", 
                            "channel": 15
                        }
                    ]
                ], 
                [
                    214080, 
                    [
                        {
                            "pitch": 43, 
                            "t0": 214080, 
                            "v": 108, 
                            "dur": 960, 
                            "type": "note", 
                            "channel": 15
                        }, 
                        {
                            "pitch": 55, 
                            "t0": 214080, 
                            "v": 117, 
                            "dur": 960, 
                            "type": "note", 
                            "channel": 15
                        }
                    ]
                ], 
                [
                    215040, 
                    [
                        {
                            "pitch": 45, 
                            "t0": 215040, 
                            "v": 113, 
                            "dur": 960, 
                            "type": "note", 
                            "channel": 15
                        }, 
                        {
                            "pitch": 57, 
                            "t0": 215040, 
                            "v": 108, 
                            "dur": 960, 
                            "type": "note", 
                            "channel": 15
                        }
                    ]
                ], 
                [
                    216000, 
                    [
                        {
                            "pitch": 40, 
                            "t0": 216000, 
                            "v": 122, 
                            "dur": 960, 
                            "type": "note", 
                            "channel": 15
                        }, 
                        {
                            "pitch": 52, 
                            "t0": 216000, 
                            "v": 104, 
                            "dur": 960, 
                            "type": "note", 
                            "channel": 15
                        }
                    ]
                ], 
                [
                    216960, 
                    [
                        {
                            "pitch": 41, 
                            "t0": 216960, 
                            "v": 117, 
                            "dur": 960, 
                            "type": "note", 
                            "channel": 15
                        }, 
                        {
                            "pitch": 53, 
                            "t0": 216960, 
                            "v": 117, 
                            "dur": 960, 
                            "type": "note", 
                            "channel": 15
                        }
                    ]
                ], 
                [
                    217920, 
                    [
                        {
                            "pitch": 43, 
                            "t0": 217920, 
                            "v": 113, 
                            "dur": 960, 
                            "type": "note", 
                            "channel": 15
                        }, 
                        {
                            "pitch": 55, 
                            "t0": 217920, 
                            "v": 122, 
                            "dur": 960, 
                            "type": "note", 
                            "channel": 15
                        }
                    ]
                ], 
                [
                    218880, 
                    [
                        {
                            "pitch": 45, 
                            "t0": 218880, 
                            "v": 122, 
                            "dur": 1440, 
                            "type": "note", 
                            "channel": 15
                        }, 
                        {
                            "pitch": 57, 
                            "t0": 218880, 
                            "v": 122, 
                            "dur": 1440, 
                            "type": "note", 
                            "channel": 15
                        }
                    ]
                ]
            ], 
            "instruments": [
                60
            ], 
            "tMax": 220320, 
            "channels": [
                15
            ], 
            "instrument": 60, 
            "numNotes": 56, 
            "type": "TrackObj"
        }, 
        {
            "trackName": "Track16", 
            "seq": [], 
            "instruments": [], 
            "channels": [], 
            "numNotes": 0, 
            "type": "TrackObj"
        }, 
        {
            "trackName": "Track17", 
            "seq": [], 
            "instruments": [], 
            "channels": [], 
            "numNotes": 0, 
            "type": "TrackObj"
        }, 
        {
            "trackName": "Track18", 
            "seq": [
                [
                    0, 
                    [
                        {
                            "instrument": 47, 
                            "type": "programChange", 
                            "t0": 0, 
                            "channel": 13
                        }
                    ]
                ]
            ], 
            "instruments": [
                47
            ], 
            "tMax": 0, 
            "channels": [
                13
            ], 
            "instrument": 47, 
            "numNotes": 0, 
            "type": "TrackObj"
        }
    ], 
    "type": "MidiObj"
}