{
    "format": 1, 
    "instruments": [
        48, 
        32, 
        116, 
        85, 
        52, 
        75, 
        45
    ], 
    "resolution": 240, 
    "channels": [
        0, 
        1, 
        3, 
        4, 
        5, 
        6, 
        7, 
        9, 
        10, 
        11, 
        12
    ], 
    "tracks": [
        {
            "trackName": "Track1", 
            "seq": [
                [
                    0, 
                    [
                        {
                            "bpm": 120.0, 
                            "type": "tempo", 
                            "mpqn": 500000, 
                            "t0": 0
                        }
                    ]
                ]
            ], 
            "instruments": [], 
            "tMax": 0, 
            "channels": [], 
            "numNotes": 0, 
            "type": "TrackObj"
        }, 
        {
            "trackName": "Big Drum-Near Drums", 
            "seq": [
                [
                    0, 
                    [
                        {
                            "instrument": 116, 
                            "type": "programChange", 
                            "t0": 0, 
                            "channel": 0
                        }
                    ]
                ], 
                [
                    12, 
                    [
                        {
                            "instrument": 116, 
                            "type": "programChange", 
                            "t0": 12, 
                            "channel": 0
                        }, 
                        {
                            "pitch": 50, 
                            "t0": 12, 
                            "v": 80, 
                            "dur": 60, 
                            "type": "note", 
                            "channel": 0
                        }
                    ]
                ], 
                [
                    480, 
                    [
                        {
                            "pitch": 50, 
                            "t0": 480, 
                            "v": 80, 
                            "dur": 60, 
                            "type": "note", 
                            "channel": 0
                        }
                    ]
                ], 
                [
                    972, 
                    [
                        {
                            "pitch": 50, 
                            "t0": 972, 
                            "v": 80, 
                            "dur": 60, 
                            "type": "note", 
                            "channel": 0
                        }
                    ]
                ], 
                [
                    1440, 
                    [
                        {
                            "pitch": 50, 
                            "t0": 1440, 
                            "v": 80, 
                            "dur": 60, 
                            "type": "note", 
                            "channel": 0
                        }
                    ]
                ], 
                [
                    1932, 
                    [
                        {
                            "pitch": 50, 
                            "t0": 1932, 
                            "v": 80, 
                            "dur": 60, 
                            "type": "note", 
                            "channel": 0
                        }
                    ]
                ], 
                [
                    2400, 
                    [
                        {
                            "pitch": 50, 
                            "t0": 2400, 
                            "v": 80, 
                            "dur": 60, 
                            "type": "note", 
                            "channel": 0
                        }
                    ]
                ], 
                [
                    2892, 
                    [
                        {
                            "pitch": 50, 
                            "t0": 2892, 
                            "v": 80, 
                            "dur": 60, 
                            "type": "note", 
                            "channel": 0
                        }
                    ]
                ], 
                [
                    3360, 
                    [
                        {
                            "pitch": 50, 
                            "t0": 3360, 
                            "v": 80, 
                            "dur": 60, 
                            "type": "note", 
                            "channel": 0
                        }
                    ]
                ], 
                [
                    3852, 
                    [
                        {
                            "pitch": 50, 
                            "t0": 3852, 
                            "v": 80, 
                            "dur": 60, 
                            "type": "note", 
                            "channel": 0
                        }
                    ]
                ], 
                [
                    4320, 
                    [
                        {
                            "pitch": 50, 
                            "t0": 4320, 
                            "v": 80, 
                            "dur": 60, 
                            "type": "note", 
                            "channel": 0
                        }
                    ]
                ], 
                [
                    4812, 
                    [
                        {
                            "pitch": 50, 
                            "t0": 4812, 
                            "v": 80, 
                            "dur": 60, 
                            "type": "note", 
                            "channel": 0
                        }
                    ]
                ], 
                [
                    5280, 
                    [
                        {
                            "pitch": 50, 
                            "t0": 5280, 
                            "v": 80, 
                            "dur": 60, 
                            "type": "note", 
                            "channel": 0
                        }
                    ]
                ], 
                [
                    5772, 
                    [
                        {
                            "pitch": 50, 
                            "t0": 5772, 
                            "v": 80, 
                            "dur": 60, 
                            "type": "note", 
                            "channel": 0
                        }
                    ]
                ], 
                [
                    6240, 
                    [
                        {
                            "pitch": 50, 
                            "t0": 6240, 
                            "v": 80, 
                            "dur": 60, 
                            "type": "note", 
                            "channel": 0
                        }
                    ]
                ], 
                [
                    6732, 
                    [
                        {
                            "pitch": 50, 
                            "t0": 6732, 
                            "v": 80, 
                            "dur": 60, 
                            "type": "note", 
                            "channel": 0
                        }
                    ]
                ], 
                [
                    7200, 
                    [
                        {
                            "pitch": 50, 
                            "t0": 7200, 
                            "v": 80, 
                            "dur": 60, 
                            "type": "note", 
                            "channel": 0
                        }
                    ]
                ], 
                [
                    7692, 
                    [
                        {
                            "pitch": 50, 
                            "t0": 7692, 
                            "v": 80, 
                            "dur": 60, 
                            "type": "note", 
                            "channel": 0
                        }
                    ]
                ], 
                [
                    8160, 
                    [
                        {
                            "pitch": 50, 
                            "t0": 8160, 
                            "v": 80, 
                            "dur": 60, 
                            "type": "note", 
                            "channel": 0
                        }
                    ]
                ], 
                [
                    8652, 
                    [
                        {
                            "pitch": 50, 
                            "t0": 8652, 
                            "v": 80, 
                            "dur": 60, 
                            "type": "note", 
                            "channel": 0
                        }
                    ]
                ], 
                [
                    9120, 
                    [
                        {
                            "pitch": 50, 
                            "t0": 9120, 
                            "v": 80, 
                            "dur": 60, 
                            "type": "note", 
                            "channel": 0
                        }
                    ]
                ], 
                [
                    9612, 
                    [
                        {
                            "pitch": 50, 
                            "t0": 9612, 
                            "v": 80, 
                            "dur": 60, 
                            "type": "note", 
                            "channel": 0
                        }
                    ]
                ], 
                [
                    10080, 
                    [
                        {
                            "pitch": 50, 
                            "t0": 10080, 
                            "v": 80, 
                            "dur": 60, 
                            "type": "note", 
                            "channel": 0
                        }
                    ]
                ], 
                [
                    10572, 
                    [
                        {
                            "pitch": 50, 
                            "t0": 10572, 
                            "v": 80, 
                            "dur": 60, 
                            "type": "note", 
                            "channel": 0
                        }
                    ]
                ], 
                [
                    11040, 
                    [
                        {
                            "pitch": 50, 
                            "t0": 11040, 
                            "v": 80, 
                            "dur": 60, 
                            "type": "note", 
                            "channel": 0
                        }
                    ]
                ], 
                [
                    11532, 
                    [
                        {
                            "pitch": 50, 
                            "t0": 11532, 
                            "v": 80, 
                            "dur": 60, 
                            "type": "note", 
                            "channel": 0
                        }
                    ]
                ], 
                [
                    12000, 
                    [
                        {
                            "pitch": 50, 
                            "t0": 12000, 
                            "v": 80, 
                            "dur": 60, 
                            "type": "note", 
                            "channel": 0
                        }
                    ]
                ], 
                [
                    12492, 
                    [
                        {
                            "pitch": 50, 
                            "t0": 12492, 
                            "v": 80, 
                            "dur": 60, 
                            "type": "note", 
                            "channel": 0
                        }
                    ]
                ], 
                [
                    12960, 
                    [
                        {
                            "pitch": 50, 
                            "t0": 12960, 
                            "v": 80, 
                            "dur": 60, 
                            "type": "note", 
                            "channel": 0
                        }
                    ]
                ], 
                [
                    13452, 
                    [
                        {
                            "pitch": 50, 
                            "t0": 13452, 
                            "v": 80, 
                            "dur": 60, 
                            "type": "note", 
                            "channel": 0
                        }
                    ]
                ], 
                [
                    13920, 
                    [
                        {
                            "pitch": 50, 
                            "t0": 13920, 
                            "v": 80, 
                            "dur": 60, 
                            "type": "note", 
                            "channel": 0
                        }
                    ]
                ], 
                [
                    14412, 
                    [
                        {
                            "pitch": 50, 
                            "t0": 14412, 
                            "v": 80, 
                            "dur": 60, 
                            "type": "note", 
                            "channel": 0
                        }
                    ]
                ], 
                [
                    14880, 
                    [
                        {
                            "pitch": 50, 
                            "t0": 14880, 
                            "v": 80, 
                            "dur": 60, 
                            "type": "note", 
                            "channel": 0
                        }
                    ]
                ], 
                [
                    15372, 
                    [
                        {
                            "pitch": 50, 
                            "t0": 15372, 
                            "v": 80, 
                            "dur": 60, 
                            "type": "note", 
                            "channel": 0
                        }
                    ]
                ], 
                [
                    15840, 
                    [
                        {
                            "pitch": 50, 
                            "t0": 15840, 
                            "v": 80, 
                            "dur": 60, 
                            "type": "note", 
                            "channel": 0
                        }
                    ]
                ], 
                [
                    16332, 
                    [
                        {
                            "pitch": 50, 
                            "t0": 16332, 
                            "v": 80, 
                            "dur": 60, 
                            "type": "note", 
                            "channel": 0
                        }
                    ]
                ], 
                [
                    16800, 
                    [
                        {
                            "pitch": 50, 
                            "t0": 16800, 
                            "v": 80, 
                            "dur": 60, 
                            "type": "note", 
                            "channel": 0
                        }
                    ]
                ], 
                [
                    17292, 
                    [
                        {
                            "pitch": 50, 
                            "t0": 17292, 
                            "v": 80, 
                            "dur": 60, 
                            "type": "note", 
                            "channel": 0
                        }
                    ]
                ], 
                [
                    17760, 
                    [
                        {
                            "pitch": 50, 
                            "t0": 17760, 
                            "v": 80, 
                            "dur": 60, 
                            "type": "note", 
                            "channel": 0
                        }
                    ]
                ], 
                [
                    18252, 
                    [
                        {
                            "pitch": 50, 
                            "t0": 18252, 
                            "v": 80, 
                            "dur": 60, 
                            "type": "note", 
                            "channel": 0
                        }
                    ]
                ], 
                [
                    18720, 
                    [
                        {
                            "pitch": 50, 
                            "t0": 18720, 
                            "v": 80, 
                            "dur": 60, 
                            "type": "note", 
                            "channel": 0
                        }
                    ]
                ], 
                [
                    19212, 
                    [
                        {
                            "pitch": 50, 
                            "t0": 19212, 
                            "v": 80, 
                            "dur": 60, 
                            "type": "note", 
                            "channel": 0
                        }
                    ]
                ], 
                [
                    19680, 
                    [
                        {
                            "pitch": 50, 
                            "t0": 19680, 
                            "v": 80, 
                            "dur": 60, 
                            "type": "note", 
                            "channel": 0
                        }
                    ]
                ], 
                [
                    20172, 
                    [
                        {
                            "pitch": 50, 
                            "t0": 20172, 
                            "v": 80, 
                            "dur": 60, 
                            "type": "note", 
                            "channel": 0
                        }
                    ]
                ], 
                [
                    20640, 
                    [
                        {
                            "pitch": 50, 
                            "t0": 20640, 
                            "v": 80, 
                            "dur": 60, 
                            "type": "note", 
                            "channel": 0
                        }
                    ]
                ], 
                [
                    21132, 
                    [
                        {
                            "pitch": 50, 
                            "t0": 21132, 
                            "v": 80, 
                            "dur": 60, 
                            "type": "note", 
                            "channel": 0
                        }
                    ]
                ], 
                [
                    21600, 
                    [
                        {
                            "pitch": 50, 
                            "t0": 21600, 
                            "v": 80, 
                            "dur": 60, 
                            "type": "note", 
                            "channel": 0
                        }
                    ]
                ], 
                [
                    22092, 
                    [
                        {
                            "pitch": 50, 
                            "t0": 22092, 
                            "v": 80, 
                            "dur": 60, 
                            "type": "note", 
                            "channel": 0
                        }
                    ]
                ], 
                [
                    22560, 
                    [
                        {
                            "pitch": 50, 
                            "t0": 22560, 
                            "v": 80, 
                            "dur": 60, 
                            "type": "note", 
                            "channel": 0
                        }
                    ]
                ], 
                [
                    23052, 
                    [
                        {
                            "pitch": 50, 
                            "t0": 23052, 
                            "v": 80, 
                            "dur": 60, 
                            "type": "note", 
                            "channel": 0
                        }
                    ]
                ], 
                [
                    23520, 
                    [
                        {
                            "pitch": 50, 
                            "t0": 23520, 
                            "v": 80, 
                            "dur": 60, 
                            "type": "note", 
                            "channel": 0
                        }
                    ]
                ], 
                [
                    24012, 
                    [
                        {
                            "pitch": 50, 
                            "t0": 24012, 
                            "v": 80, 
                            "dur": 60, 
                            "type": "note", 
                            "channel": 0
                        }
                    ]
                ], 
                [
                    24480, 
                    [
                        {
                            "pitch": 50, 
                            "t0": 24480, 
                            "v": 80, 
                            "dur": 60, 
                            "type": "note", 
                            "channel": 0
                        }
                    ]
                ], 
                [
                    24972, 
                    [
                        {
                            "pitch": 50, 
                            "t0": 24972, 
                            "v": 80, 
                            "dur": 60, 
                            "type": "note", 
                            "channel": 0
                        }
                    ]
                ], 
                [
                    25440, 
                    [
                        {
                            "pitch": 50, 
                            "t0": 25440, 
                            "v": 80, 
                            "dur": 60, 
                            "type": "note", 
                            "channel": 0
                        }
                    ]
                ], 
                [
                    25932, 
                    [
                        {
                            "pitch": 50, 
                            "t0": 25932, 
                            "v": 80, 
                            "dur": 60, 
                            "type": "note", 
                            "channel": 0
                        }
                    ]
                ], 
                [
                    26400, 
                    [
                        {
                            "pitch": 50, 
                            "t0": 26400, 
                            "v": 80, 
                            "dur": 60, 
                            "type": "note", 
                            "channel": 0
                        }
                    ]
                ], 
                [
                    26892, 
                    [
                        {
                            "pitch": 50, 
                            "t0": 26892, 
                            "v": 80, 
                            "dur": 60, 
                            "type": "note", 
                            "channel": 0
                        }
                    ]
                ], 
                [
                    27360, 
                    [
                        {
                            "pitch": 50, 
                            "t0": 27360, 
                            "v": 80, 
                            "dur": 60, 
                            "type": "note", 
                            "channel": 0
                        }
                    ]
                ], 
                [
                    27852, 
                    [
                        {
                            "pitch": 50, 
                            "t0": 27852, 
                            "v": 80, 
                            "dur": 60, 
                            "type": "note", 
                            "channel": 0
                        }
                    ]
                ], 
                [
                    28320, 
                    [
                        {
                            "pitch": 50, 
                            "t0": 28320, 
                            "v": 80, 
                            "dur": 60, 
                            "type": "note", 
                            "channel": 0
                        }
                    ]
                ], 
                [
                    28812, 
                    [
                        {
                            "pitch": 50, 
                            "t0": 28812, 
                            "v": 80, 
                            "dur": 60, 
                            "type": "note", 
                            "channel": 0
                        }
                    ]
                ], 
                [
                    29280, 
                    [
                        {
                            "pitch": 50, 
                            "t0": 29280, 
                            "v": 80, 
                            "dur": 60, 
                            "type": "note", 
                            "channel": 0
                        }
                    ]
                ], 
                [
                    29772, 
                    [
                        {
                            "pitch": 50, 
                            "t0": 29772, 
                            "v": 80, 
                            "dur": 60, 
                            "type": "note", 
                            "channel": 0
                        }
                    ]
                ], 
                [
                    30240, 
                    [
                        {
                            "pitch": 50, 
                            "t0": 30240, 
                            "v": 80, 
                            "dur": 60, 
                            "type": "note", 
                            "channel": 0
                        }
                    ]
                ], 
                [
                    30732, 
                    [
                        {
                            "pitch": 50, 
                            "t0": 30732, 
                            "v": 80, 
                            "dur": 60, 
                            "type": "note", 
                            "channel": 0
                        }
                    ]
                ], 
                [
                    31200, 
                    [
                        {
                            "pitch": 50, 
                            "t0": 31200, 
                            "v": 80, 
                            "dur": 60, 
                            "type": "note", 
                            "channel": 0
                        }
                    ]
                ], 
                [
                    31692, 
                    [
                        {
                            "pitch": 50, 
                            "t0": 31692, 
                            "v": 80, 
                            "dur": 60, 
                            "type": "note", 
                            "channel": 0
                        }
                    ]
                ], 
                [
                    32160, 
                    [
                        {
                            "pitch": 50, 
                            "t0": 32160, 
                            "v": 80, 
                            "dur": 60, 
                            "type": "note", 
                            "channel": 0
                        }
                    ]
                ], 
                [
                    32652, 
                    [
                        {
                            "pitch": 50, 
                            "t0": 32652, 
                            "v": 80, 
                            "dur": 60, 
                            "type": "note", 
                            "channel": 0
                        }
                    ]
                ], 
                [
                    33120, 
                    [
                        {
                            "pitch": 50, 
                            "t0": 33120, 
                            "v": 80, 
                            "dur": 60, 
                            "type": "note", 
                            "channel": 0
                        }
                    ]
                ], 
                [
                    33612, 
                    [
                        {
                            "pitch": 50, 
                            "t0": 33612, 
                            "v": 80, 
                            "dur": 60, 
                            "type": "note", 
                            "channel": 0
                        }
                    ]
                ], 
                [
                    34080, 
                    [
                        {
                            "pitch": 50, 
                            "t0": 34080, 
                            "v": 80, 
                            "dur": 60, 
                            "type": "note", 
                            "channel": 0
                        }
                    ]
                ], 
                [
                    34572, 
                    [
                        {
                            "pitch": 50, 
                            "t0": 34572, 
                            "v": 80, 
                            "dur": 60, 
                            "type": "note", 
                            "channel": 0
                        }
                    ]
                ], 
                [
                    35040, 
                    [
                        {
                            "pitch": 50, 
                            "t0": 35040, 
                            "v": 80, 
                            "dur": 60, 
                            "type": "note", 
                            "channel": 0
                        }
                    ]
                ], 
                [
                    35532, 
                    [
                        {
                            "pitch": 50, 
                            "t0": 35532, 
                            "v": 80, 
                            "dur": 60, 
                            "type": "note", 
                            "channel": 0
                        }
                    ]
                ], 
                [
                    36000, 
                    [
                        {
                            "pitch": 50, 
                            "t0": 36000, 
                            "v": 80, 
                            "dur": 60, 
                            "type": "note", 
                            "channel": 0
                        }
                    ]
                ], 
                [
                    36492, 
                    [
                        {
                            "pitch": 50, 
                            "t0": 36492, 
                            "v": 80, 
                            "dur": 60, 
                            "type": "note", 
                            "channel": 0
                        }
                    ]
                ], 
                [
                    36960, 
                    [
                        {
                            "pitch": 50, 
                            "t0": 36960, 
                            "v": 80, 
                            "dur": 60, 
                            "type": "note", 
                            "channel": 0
                        }
                    ]
                ], 
                [
                    37452, 
                    [
                        {
                            "pitch": 50, 
                            "t0": 37452, 
                            "v": 80, 
                            "dur": 60, 
                            "type": "note", 
                            "channel": 0
                        }
                    ]
                ], 
                [
                    37920, 
                    [
                        {
                            "pitch": 50, 
                            "t0": 37920, 
                            "v": 80, 
                            "dur": 60, 
                            "type": "note", 
                            "channel": 0
                        }
                    ]
                ], 
                [
                    38412, 
                    [
                        {
                            "pitch": 50, 
                            "t0": 38412, 
                            "v": 80, 
                            "dur": 60, 
                            "type": "note", 
                            "channel": 0
                        }
                    ]
                ], 
                [
                    38880, 
                    [
                        {
                            "pitch": 50, 
                            "t0": 38880, 
                            "v": 80, 
                            "dur": 60, 
                            "type": "note", 
                            "channel": 0
                        }
                    ]
                ], 
                [
                    39372, 
                    [
                        {
                            "pitch": 50, 
                            "t0": 39372, 
                            "v": 80, 
                            "dur": 60, 
                            "type": "note", 
                            "channel": 0
                        }
                    ]
                ], 
                [
                    39840, 
                    [
                        {
                            "pitch": 50, 
                            "t0": 39840, 
                            "v": 80, 
                            "dur": 60, 
                            "type": "note", 
                            "channel": 0
                        }
                    ]
                ], 
                [
                    40332, 
                    [
                        {
                            "pitch": 50, 
                            "t0": 40332, 
                            "v": 80, 
                            "dur": 60, 
                            "type": "note", 
                            "channel": 0
                        }
                    ]
                ], 
                [
                    40800, 
                    [
                        {
                            "pitch": 50, 
                            "t0": 40800, 
                            "v": 80, 
                            "dur": 60, 
                            "type": "note", 
                            "channel": 0
                        }
                    ]
                ], 
                [
                    41292, 
                    [
                        {
                            "pitch": 50, 
                            "t0": 41292, 
                            "v": 80, 
                            "dur": 60, 
                            "type": "note", 
                            "channel": 0
                        }
                    ]
                ], 
                [
                    41760, 
                    [
                        {
                            "pitch": 50, 
                            "t0": 41760, 
                            "v": 80, 
                            "dur": 60, 
                            "type": "note", 
                            "channel": 0
                        }
                    ]
                ], 
                [
                    42252, 
                    [
                        {
                            "pitch": 50, 
                            "t0": 42252, 
                            "v": 80, 
                            "dur": 60, 
                            "type": "note", 
                            "channel": 0
                        }
                    ]
                ], 
                [
                    42720, 
                    [
                        {
                            "pitch": 50, 
                            "t0": 42720, 
                            "v": 80, 
                            "dur": 60, 
                            "type": "note", 
                            "channel": 0
                        }
                    ]
                ], 
                [
                    43212, 
                    [
                        {
                            "pitch": 50, 
                            "t0": 43212, 
                            "v": 80, 
                            "dur": 60, 
                            "type": "note", 
                            "channel": 0
                        }
                    ]
                ], 
                [
                    43680, 
                    [
                        {
                            "pitch": 50, 
                            "t0": 43680, 
                            "v": 80, 
                            "dur": 60, 
                            "type": "note", 
                            "channel": 0
                        }
                    ]
                ], 
                [
                    44172, 
                    [
                        {
                            "pitch": 50, 
                            "t0": 44172, 
                            "v": 80, 
                            "dur": 60, 
                            "type": "note", 
                            "channel": 0
                        }
                    ]
                ], 
                [
                    44640, 
                    [
                        {
                            "pitch": 50, 
                            "t0": 44640, 
                            "v": 80, 
                            "dur": 60, 
                            "type": "note", 
                            "channel": 0
                        }
                    ]
                ], 
                [
                    45132, 
                    [
                        {
                            "pitch": 50, 
                            "t0": 45132, 
                            "v": 80, 
                            "dur": 60, 
                            "type": "note", 
                            "channel": 0
                        }
                    ]
                ], 
                [
                    45600, 
                    [
                        {
                            "pitch": 50, 
                            "t0": 45600, 
                            "v": 80, 
                            "dur": 60, 
                            "type": "note", 
                            "channel": 0
                        }
                    ]
                ], 
                [
                    46092, 
                    [
                        {
                            "pitch": 50, 
                            "t0": 46092, 
                            "v": 80, 
                            "dur": 60, 
                            "type": "note", 
                            "channel": 0
                        }
                    ]
                ], 
                [
                    46560, 
                    [
                        {
                            "pitch": 50, 
                            "t0": 46560, 
                            "v": 80, 
                            "dur": 60, 
                            "type": "note", 
                            "channel": 0
                        }
                    ]
                ], 
                [
                    47052, 
                    [
                        {
                            "pitch": 50, 
                            "t0": 47052, 
                            "v": 80, 
                            "dur": 60, 
                            "type": "note", 
                            "channel": 0
                        }
                    ]
                ], 
                [
                    47520, 
                    [
                        {
                            "pitch": 50, 
                            "t0": 47520, 
                            "v": 80, 
                            "dur": 60, 
                            "type": "note", 
                            "channel": 0
                        }
                    ]
                ], 
                [
                    48012, 
                    [
                        {
                            "pitch": 50, 
                            "t0": 48012, 
                            "v": 80, 
                            "dur": 60, 
                            "type": "note", 
                            "channel": 0
                        }
                    ]
                ], 
                [
                    48480, 
                    [
                        {
                            "pitch": 50, 
                            "t0": 48480, 
                            "v": 80, 
                            "dur": 60, 
                            "type": "note", 
                            "channel": 0
                        }
                    ]
                ], 
                [
                    48972, 
                    [
                        {
                            "pitch": 50, 
                            "t0": 48972, 
                            "v": 80, 
                            "dur": 60, 
                            "type": "note", 
                            "channel": 0
                        }
                    ]
                ], 
                [
                    49440, 
                    [
                        {
                            "pitch": 50, 
                            "t0": 49440, 
                            "v": 80, 
                            "dur": 60, 
                            "type": "note", 
                            "channel": 0
                        }
                    ]
                ], 
                [
                    49932, 
                    [
                        {
                            "pitch": 50, 
                            "t0": 49932, 
                            "v": 80, 
                            "dur": 60, 
                            "type": "note", 
                            "channel": 0
                        }
                    ]
                ], 
                [
                    50400, 
                    [
                        {
                            "pitch": 50, 
                            "t0": 50400, 
                            "v": 80, 
                            "dur": 60, 
                            "type": "note", 
                            "channel": 0
                        }
                    ]
                ], 
                [
                    50892, 
                    [
                        {
                            "pitch": 50, 
                            "t0": 50892, 
                            "v": 80, 
                            "dur": 60, 
                            "type": "note", 
                            "channel": 0
                        }
                    ]
                ], 
                [
                    51360, 
                    [
                        {
                            "pitch": 50, 
                            "t0": 51360, 
                            "v": 80, 
                            "dur": 60, 
                            "type": "note", 
                            "channel": 0
                        }
                    ]
                ], 
                [
                    51852, 
                    [
                        {
                            "pitch": 50, 
                            "t0": 51852, 
                            "v": 80, 
                            "dur": 60, 
                            "type": "note", 
                            "channel": 0
                        }
                    ]
                ], 
                [
                    52320, 
                    [
                        {
                            "pitch": 50, 
                            "t0": 52320, 
                            "v": 80, 
                            "dur": 60, 
                            "type": "note", 
                            "channel": 0
                        }
                    ]
                ], 
                [
                    52812, 
                    [
                        {
                            "pitch": 50, 
                            "t0": 52812, 
                            "v": 80, 
                            "dur": 60, 
                            "type": "note", 
                            "channel": 0
                        }
                    ]
                ], 
                [
                    53280, 
                    [
                        {
                            "pitch": 50, 
                            "t0": 53280, 
                            "v": 80, 
                            "dur": 60, 
                            "type": "note", 
                            "channel": 0
                        }
                    ]
                ], 
                [
                    53772, 
                    [
                        {
                            "pitch": 50, 
                            "t0": 53772, 
                            "v": 80, 
                            "dur": 60, 
                            "type": "note", 
                            "channel": 0
                        }
                    ]
                ], 
                [
                    54240, 
                    [
                        {
                            "pitch": 50, 
                            "t0": 54240, 
                            "v": 80, 
                            "dur": 60, 
                            "type": "note", 
                            "channel": 0
                        }
                    ]
                ], 
                [
                    54732, 
                    [
                        {
                            "pitch": 50, 
                            "t0": 54732, 
                            "v": 80, 
                            "dur": 60, 
                            "type": "note", 
                            "channel": 0
                        }
                    ]
                ], 
                [
                    55200, 
                    [
                        {
                            "pitch": 50, 
                            "t0": 55200, 
                            "v": 80, 
                            "dur": 60, 
                            "type": "note", 
                            "channel": 0
                        }
                    ]
                ], 
                [
                    55692, 
                    [
                        {
                            "pitch": 50, 
                            "t0": 55692, 
                            "v": 80, 
                            "dur": 60, 
                            "type": "note", 
                            "channel": 0
                        }
                    ]
                ], 
                [
                    56160, 
                    [
                        {
                            "pitch": 50, 
                            "t0": 56160, 
                            "v": 80, 
                            "dur": 60, 
                            "type": "note", 
                            "channel": 0
                        }
                    ]
                ], 
                [
                    56652, 
                    [
                        {
                            "pitch": 50, 
                            "t0": 56652, 
                            "v": 80, 
                            "dur": 60, 
                            "type": "note", 
                            "channel": 0
                        }
                    ]
                ], 
                [
                    57120, 
                    [
                        {
                            "pitch": 50, 
                            "t0": 57120, 
                            "v": 80, 
                            "dur": 60, 
                            "type": "note", 
                            "channel": 0
                        }
                    ]
                ], 
                [
                    57612, 
                    [
                        {
                            "pitch": 50, 
                            "t0": 57612, 
                            "v": 80, 
                            "dur": 60, 
                            "type": "note", 
                            "channel": 0
                        }
                    ]
                ], 
                [
                    58080, 
                    [
                        {
                            "pitch": 50, 
                            "t0": 58080, 
                            "v": 80, 
                            "dur": 60, 
                            "type": "note", 
                            "channel": 0
                        }
                    ]
                ], 
                [
                    58572, 
                    [
                        {
                            "pitch": 50, 
                            "t0": 58572, 
                            "v": 80, 
                            "dur": 60, 
                            "type": "note", 
                            "channel": 0
                        }
                    ]
                ], 
                [
                    59040, 
                    [
                        {
                            "pitch": 50, 
                            "t0": 59040, 
                            "v": 80, 
                            "dur": 60, 
                            "type": "note", 
                            "channel": 0
                        }
                    ]
                ], 
                [
                    59532, 
                    [
                        {
                            "pitch": 50, 
                            "t0": 59532, 
                            "v": 80, 
                            "dur": 60, 
                            "type": "note", 
                            "channel": 0
                        }
                    ]
                ], 
                [
                    60000, 
                    [
                        {
                            "pitch": 50, 
                            "t0": 60000, 
                            "v": 80, 
                            "dur": 60, 
                            "type": "note", 
                            "channel": 0
                        }
                    ]
                ], 
                [
                    60492, 
                    [
                        {
                            "pitch": 50, 
                            "t0": 60492, 
                            "v": 80, 
                            "dur": 60, 
                            "type": "note", 
                            "channel": 0
                        }
                    ]
                ], 
                [
                    60960, 
                    [
                        {
                            "pitch": 50, 
                            "t0": 60960, 
                            "v": 80, 
                            "dur": 60, 
                            "type": "note", 
                            "channel": 0
                        }
                    ]
                ], 
                [
                    61452, 
                    [
                        {
                            "pitch": 50, 
                            "t0": 61452, 
                            "v": 80, 
                            "dur": 60, 
                            "type": "note", 
                            "channel": 0
                        }
                    ]
                ], 
                [
                    61920, 
                    [
                        {
                            "pitch": 50, 
                            "t0": 61920, 
                            "v": 80, 
                            "dur": 60, 
                            "type": "note", 
                            "channel": 0
                        }
                    ]
                ], 
                [
                    62412, 
                    [
                        {
                            "pitch": 50, 
                            "t0": 62412, 
                            "v": 80, 
                            "dur": 60, 
                            "type": "note", 
                            "channel": 0
                        }
                    ]
                ], 
                [
                    62880, 
                    [
                        {
                            "pitch": 50, 
                            "t0": 62880, 
                            "v": 80, 
                            "dur": 60, 
                            "type": "note", 
                            "channel": 0
                        }
                    ]
                ], 
                [
                    63372, 
                    [
                        {
                            "pitch": 50, 
                            "t0": 63372, 
                            "v": 80, 
                            "dur": 60, 
                            "type": "note", 
                            "channel": 0
                        }
                    ]
                ], 
                [
                    63840, 
                    [
                        {
                            "pitch": 50, 
                            "t0": 63840, 
                            "v": 80, 
                            "dur": 60, 
                            "type": "note", 
                            "channel": 0
                        }
                    ]
                ], 
                [
                    64332, 
                    [
                        {
                            "pitch": 50, 
                            "t0": 64332, 
                            "v": 80, 
                            "dur": 60, 
                            "type": "note", 
                            "channel": 0
                        }
                    ]
                ], 
                [
                    64800, 
                    [
                        {
                            "pitch": 50, 
                            "t0": 64800, 
                            "v": 80, 
                            "dur": 60, 
                            "type": "note", 
                            "channel": 0
                        }
                    ]
                ], 
                [
                    65292, 
                    [
                        {
                            "pitch": 50, 
                            "t0": 65292, 
                            "v": 80, 
                            "dur": 60, 
                            "type": "note", 
                            "channel": 0
                        }
                    ]
                ], 
                [
                    65760, 
                    [
                        {
                            "pitch": 50, 
                            "t0": 65760, 
                            "v": 80, 
                            "dur": 60, 
                            "type": "note", 
                            "channel": 0
                        }
                    ]
                ], 
                [
                    66252, 
                    [
                        {
                            "pitch": 50, 
                            "t0": 66252, 
                            "v": 80, 
                            "dur": 60, 
                            "type": "note", 
                            "channel": 0
                        }
                    ]
                ], 
                [
                    66720, 
                    [
                        {
                            "pitch": 50, 
                            "t0": 66720, 
                            "v": 80, 
                            "dur": 60, 
                            "type": "note", 
                            "channel": 0
                        }
                    ]
                ], 
                [
                    67212, 
                    [
                        {
                            "pitch": 50, 
                            "t0": 67212, 
                            "v": 80, 
                            "dur": 60, 
                            "type": "note", 
                            "channel": 0
                        }
                    ]
                ], 
                [
                    67680, 
                    [
                        {
                            "pitch": 50, 
                            "t0": 67680, 
                            "v": 80, 
                            "dur": 60, 
                            "type": "note", 
                            "channel": 0
                        }
                    ]
                ], 
                [
                    68172, 
                    [
                        {
                            "pitch": 50, 
                            "t0": 68172, 
                            "v": 80, 
                            "dur": 60, 
                            "type": "note", 
                            "channel": 0
                        }
                    ]
                ], 
                [
                    68640, 
                    [
                        {
                            "pitch": 50, 
                            "t0": 68640, 
                            "v": 80, 
                            "dur": 60, 
                            "type": "note", 
                            "channel": 0
                        }
                    ]
                ], 
                [
                    69132, 
                    [
                        {
                            "pitch": 50, 
                            "t0": 69132, 
                            "v": 80, 
                            "dur": 60, 
                            "type": "note", 
                            "channel": 0
                        }
                    ]
                ], 
                [
                    69600, 
                    [
                        {
                            "pitch": 50, 
                            "t0": 69600, 
                            "v": 80, 
                            "dur": 60, 
                            "type": "note", 
                            "channel": 0
                        }
                    ]
                ], 
                [
                    70092, 
                    [
                        {
                            "pitch": 50, 
                            "t0": 70092, 
                            "v": 80, 
                            "dur": 60, 
                            "type": "note", 
                            "channel": 0
                        }
                    ]
                ], 
                [
                    70560, 
                    [
                        {
                            "pitch": 50, 
                            "t0": 70560, 
                            "v": 80, 
                            "dur": 60, 
                            "type": "note", 
                            "channel": 0
                        }
                    ]
                ], 
                [
                    71052, 
                    [
                        {
                            "pitch": 50, 
                            "t0": 71052, 
                            "v": 80, 
                            "dur": 60, 
                            "type": "note", 
                            "channel": 0
                        }
                    ]
                ], 
                [
                    71520, 
                    [
                        {
                            "pitch": 50, 
                            "t0": 71520, 
                            "v": 80, 
                            "dur": 60, 
                            "type": "note", 
                            "channel": 0
                        }
                    ]
                ], 
                [
                    72012, 
                    [
                        {
                            "pitch": 50, 
                            "t0": 72012, 
                            "v": 80, 
                            "dur": 60, 
                            "type": "note", 
                            "channel": 0
                        }
                    ]
                ], 
                [
                    72480, 
                    [
                        {
                            "pitch": 50, 
                            "t0": 72480, 
                            "v": 80, 
                            "dur": 60, 
                            "type": "note", 
                            "channel": 0
                        }
                    ]
                ], 
                [
                    72972, 
                    [
                        {
                            "pitch": 50, 
                            "t0": 72972, 
                            "v": 80, 
                            "dur": 60, 
                            "type": "note", 
                            "channel": 0
                        }
                    ]
                ], 
                [
                    73440, 
                    [
                        {
                            "pitch": 50, 
                            "t0": 73440, 
                            "v": 80, 
                            "dur": 60, 
                            "type": "note", 
                            "channel": 0
                        }
                    ]
                ], 
                [
                    73932, 
                    [
                        {
                            "pitch": 50, 
                            "t0": 73932, 
                            "v": 80, 
                            "dur": 60, 
                            "type": "note", 
                            "channel": 0
                        }
                    ]
                ], 
                [
                    74400, 
                    [
                        {
                            "pitch": 50, 
                            "t0": 74400, 
                            "v": 80, 
                            "dur": 60, 
                            "type": "note", 
                            "channel": 0
                        }
                    ]
                ], 
                [
                    74892, 
                    [
                        {
                            "pitch": 50, 
                            "t0": 74892, 
                            "v": 80, 
                            "dur": 60, 
                            "type": "note", 
                            "channel": 0
                        }
                    ]
                ], 
                [
                    75360, 
                    [
                        {
                            "pitch": 50, 
                            "t0": 75360, 
                            "v": 80, 
                            "dur": 60, 
                            "type": "note", 
                            "channel": 0
                        }
                    ]
                ], 
                [
                    75852, 
                    [
                        {
                            "pitch": 50, 
                            "t0": 75852, 
                            "v": 80, 
                            "dur": 60, 
                            "type": "note", 
                            "channel": 0
                        }
                    ]
                ], 
                [
                    76320, 
                    [
                        {
                            "pitch": 50, 
                            "t0": 76320, 
                            "v": 80, 
                            "dur": 60, 
                            "type": "note", 
                            "channel": 0
                        }
                    ]
                ], 
                [
                    76812, 
                    [
                        {
                            "pitch": 50, 
                            "t0": 76812, 
                            "v": 80, 
                            "dur": 60, 
                            "type": "note", 
                            "channel": 0
                        }
                    ]
                ], 
                [
                    77280, 
                    [
                        {
                            "pitch": 50, 
                            "t0": 77280, 
                            "v": 80, 
                            "dur": 60, 
                            "type": "note", 
                            "channel": 0
                        }
                    ]
                ], 
                [
                    77772, 
                    [
                        {
                            "pitch": 50, 
                            "t0": 77772, 
                            "v": 80, 
                            "dur": 60, 
                            "type": "note", 
                            "channel": 0
                        }
                    ]
                ], 
                [
                    78240, 
                    [
                        {
                            "pitch": 50, 
                            "t0": 78240, 
                            "v": 80, 
                            "dur": 60, 
                            "type": "note", 
                            "channel": 0
                        }
                    ]
                ], 
                [
                    78732, 
                    [
                        {
                            "pitch": 50, 
                            "t0": 78732, 
                            "v": 80, 
                            "dur": 60, 
                            "type": "note", 
                            "channel": 0
                        }
                    ]
                ], 
                [
                    79200, 
                    [
                        {
                            "pitch": 50, 
                            "t0": 79200, 
                            "v": 80, 
                            "dur": 60, 
                            "type": "note", 
                            "channel": 0
                        }
                    ]
                ], 
                [
                    79692, 
                    [
                        {
                            "pitch": 50, 
                            "t0": 79692, 
                            "v": 80, 
                            "dur": 60, 
                            "type": "note", 
                            "channel": 0
                        }
                    ]
                ], 
                [
                    80160, 
                    [
                        {
                            "pitch": 50, 
                            "t0": 80160, 
                            "v": 80, 
                            "dur": 60, 
                            "type": "note", 
                            "channel": 0
                        }
                    ]
                ], 
                [
                    80652, 
                    [
                        {
                            "pitch": 50, 
                            "t0": 80652, 
                            "v": 80, 
                            "dur": 60, 
                            "type": "note", 
                            "channel": 0
                        }
                    ]
                ], 
                [
                    81120, 
                    [
                        {
                            "pitch": 50, 
                            "t0": 81120, 
                            "v": 80, 
                            "dur": 60, 
                            "type": "note", 
                            "channel": 0
                        }
                    ]
                ], 
                [
                    81612, 
                    [
                        {
                            "pitch": 50, 
                            "t0": 81612, 
                            "v": 80, 
                            "dur": 60, 
                            "type": "note", 
                            "channel": 0
                        }
                    ]
                ], 
                [
                    82080, 
                    [
                        {
                            "pitch": 50, 
                            "t0": 82080, 
                            "v": 80, 
                            "dur": 60, 
                            "type": "note", 
                            "channel": 0
                        }
                    ]
                ], 
                [
                    82572, 
                    [
                        {
                            "pitch": 50, 
                            "t0": 82572, 
                            "v": 80, 
                            "dur": 60, 
                            "type": "note", 
                            "channel": 0
                        }
                    ]
                ], 
                [
                    83040, 
                    [
                        {
                            "pitch": 50, 
                            "t0": 83040, 
                            "v": 80, 
                            "dur": 60, 
                            "type": "note", 
                            "channel": 0
                        }
                    ]
                ], 
                [
                    83532, 
                    [
                        {
                            "pitch": 50, 
                            "t0": 83532, 
                            "v": 80, 
                            "dur": 60, 
                            "type": "note", 
                            "channel": 0
                        }
                    ]
                ], 
                [
                    84000, 
                    [
                        {
                            "pitch": 50, 
                            "t0": 84000, 
                            "v": 80, 
                            "dur": 60, 
                            "type": "note", 
                            "channel": 0
                        }
                    ]
                ], 
                [
                    84492, 
                    [
                        {
                            "pitch": 50, 
                            "t0": 84492, 
                            "v": 80, 
                            "dur": 60, 
                            "type": "note", 
                            "channel": 0
                        }
                    ]
                ], 
                [
                    84960, 
                    [
                        {
                            "pitch": 50, 
                            "t0": 84960, 
                            "v": 80, 
                            "dur": 60, 
                            "type": "note", 
                            "channel": 0
                        }
                    ]
                ], 
                [
                    85452, 
                    [
                        {
                            "pitch": 50, 
                            "t0": 85452, 
                            "v": 80, 
                            "dur": 60, 
                            "type": "note", 
                            "channel": 0
                        }
                    ]
                ], 
                [
                    85920, 
                    [
                        {
                            "pitch": 50, 
                            "t0": 85920, 
                            "v": 80, 
                            "dur": 60, 
                            "type": "note", 
                            "channel": 0
                        }
                    ]
                ], 
                [
                    86412, 
                    [
                        {
                            "pitch": 50, 
                            "t0": 86412, 
                            "v": 80, 
                            "dur": 60, 
                            "type": "note", 
                            "channel": 0
                        }
                    ]
                ], 
                [
                    86880, 
                    [
                        {
                            "pitch": 50, 
                            "t0": 86880, 
                            "v": 80, 
                            "dur": 60, 
                            "type": "note", 
                            "channel": 0
                        }
                    ]
                ], 
                [
                    87372, 
                    [
                        {
                            "pitch": 50, 
                            "t0": 87372, 
                            "v": 80, 
                            "dur": 60, 
                            "type": "note", 
                            "channel": 0
                        }
                    ]
                ], 
                [
                    87840, 
                    [
                        {
                            "pitch": 50, 
                            "t0": 87840, 
                            "v": 80, 
                            "dur": 60, 
                            "type": "note", 
                            "channel": 0
                        }
                    ]
                ], 
                [
                    88332, 
                    [
                        {
                            "pitch": 50, 
                            "t0": 88332, 
                            "v": 80, 
                            "dur": 60, 
                            "type": "note", 
                            "channel": 0
                        }
                    ]
                ], 
                [
                    88800, 
                    [
                        {
                            "pitch": 50, 
                            "t0": 88800, 
                            "v": 80, 
                            "dur": 60, 
                            "type": "note", 
                            "channel": 0
                        }
                    ]
                ], 
                [
                    89292, 
                    [
                        {
                            "pitch": 50, 
                            "t0": 89292, 
                            "v": 80, 
                            "dur": 60, 
                            "type": "note", 
                            "channel": 0
                        }
                    ]
                ], 
                [
                    89760, 
                    [
                        {
                            "pitch": 50, 
                            "t0": 89760, 
                            "v": 80, 
                            "dur": 60, 
                            "type": "note", 
                            "channel": 0
                        }
                    ]
                ], 
                [
                    90252, 
                    [
                        {
                            "pitch": 50, 
                            "t0": 90252, 
                            "v": 80, 
                            "dur": 60, 
                            "type": "note", 
                            "channel": 0
                        }
                    ]
                ], 
                [
                    90720, 
                    [
                        {
                            "pitch": 50, 
                            "t0": 90720, 
                            "v": 80, 
                            "dur": 60, 
                            "type": "note", 
                            "channel": 0
                        }
                    ]
                ], 
                [
                    91212, 
                    [
                        {
                            "pitch": 50, 
                            "t0": 91212, 
                            "v": 80, 
                            "dur": 60, 
                            "type": "note", 
                            "channel": 0
                        }
                    ]
                ], 
                [
                    91680, 
                    [
                        {
                            "pitch": 50, 
                            "t0": 91680, 
                            "v": 80, 
                            "dur": 60, 
                            "type": "note", 
                            "channel": 0
                        }
                    ]
                ], 
                [
                    92172, 
                    [
                        {
                            "pitch": 50, 
                            "t0": 92172, 
                            "v": 80, 
                            "dur": 60, 
                            "type": "note", 
                            "channel": 0
                        }
                    ]
                ], 
                [
                    92640, 
                    [
                        {
                            "pitch": 50, 
                            "t0": 92640, 
                            "v": 80, 
                            "dur": 60, 
                            "type": "note", 
                            "channel": 0
                        }
                    ]
                ], 
                [
                    93132, 
                    [
                        {
                            "pitch": 50, 
                            "t0": 93132, 
                            "v": 80, 
                            "dur": 60, 
                            "type": "note", 
                            "channel": 0
                        }
                    ]
                ], 
                [
                    93600, 
                    [
                        {
                            "pitch": 50, 
                            "t0": 93600, 
                            "v": 80, 
                            "dur": 60, 
                            "type": "note", 
                            "channel": 0
                        }
                    ]
                ], 
                [
                    94092, 
                    [
                        {
                            "pitch": 50, 
                            "t0": 94092, 
                            "v": 80, 
                            "dur": 60, 
                            "type": "note", 
                            "channel": 0
                        }
                    ]
                ], 
                [
                    94560, 
                    [
                        {
                            "pitch": 50, 
                            "t0": 94560, 
                            "v": 80, 
                            "dur": 60, 
                            "type": "note", 
                            "channel": 0
                        }
                    ]
                ], 
                [
                    95052, 
                    [
                        {
                            "pitch": 50, 
                            "t0": 95052, 
                            "v": 80, 
                            "dur": 60, 
                            "type": "note", 
                            "channel": 0
                        }
                    ]
                ], 
                [
                    95520, 
                    [
                        {
                            "pitch": 50, 
                            "t0": 95520, 
                            "v": 80, 
                            "dur": 60, 
                            "type": "note", 
                            "channel": 0
                        }
                    ]
                ], 
                [
                    96012, 
                    [
                        {
                            "pitch": 50, 
                            "t0": 96012, 
                            "v": 80, 
                            "dur": 60, 
                            "type": "note", 
                            "channel": 0
                        }
                    ]
                ], 
                [
                    96480, 
                    [
                        {
                            "pitch": 50, 
                            "t0": 96480, 
                            "v": 80, 
                            "dur": 60, 
                            "type": "note", 
                            "channel": 0
                        }
                    ]
                ], 
                [
                    96972, 
                    [
                        {
                            "pitch": 50, 
                            "t0": 96972, 
                            "v": 80, 
                            "dur": 60, 
                            "type": "note", 
                            "channel": 0
                        }
                    ]
                ], 
                [
                    97440, 
                    [
                        {
                            "pitch": 50, 
                            "t0": 97440, 
                            "v": 80, 
                            "dur": 60, 
                            "type": "note", 
                            "channel": 0
                        }
                    ]
                ], 
                [
                    97932, 
                    [
                        {
                            "pitch": 50, 
                            "t0": 97932, 
                            "v": 80, 
                            "dur": 60, 
                            "type": "note", 
                            "channel": 0
                        }
                    ]
                ], 
                [
                    98400, 
                    [
                        {
                            "pitch": 50, 
                            "t0": 98400, 
                            "v": 80, 
                            "dur": 60, 
                            "type": "note", 
                            "channel": 0
                        }
                    ]
                ], 
                [
                    98892, 
                    [
                        {
                            "pitch": 50, 
                            "t0": 98892, 
                            "v": 80, 
                            "dur": 60, 
                            "type": "note", 
                            "channel": 0
                        }
                    ]
                ], 
                [
                    99360, 
                    [
                        {
                            "pitch": 50, 
                            "t0": 99360, 
                            "v": 80, 
                            "dur": 60, 
                            "type": "note", 
                            "channel": 0
                        }
                    ]
                ], 
                [
                    99852, 
                    [
                        {
                            "pitch": 50, 
                            "t0": 99852, 
                            "v": 80, 
                            "dur": 60, 
                            "type": "note", 
                            "channel": 0
                        }
                    ]
                ], 
                [
                    100320, 
                    [
                        {
                            "pitch": 50, 
                            "t0": 100320, 
                            "v": 80, 
                            "dur": 60, 
                            "type": "note", 
                            "channel": 0
                        }
                    ]
                ], 
                [
                    100812, 
                    [
                        {
                            "pitch": 50, 
                            "t0": 100812, 
                            "v": 80, 
                            "dur": 60, 
                            "type": "note", 
                            "channel": 0
                        }
                    ]
                ], 
                [
                    101280, 
                    [
                        {
                            "pitch": 50, 
                            "t0": 101280, 
                            "v": 80, 
                            "dur": 60, 
                            "type": "note", 
                            "channel": 0
                        }
                    ]
                ], 
                [
                    101772, 
                    [
                        {
                            "pitch": 50, 
                            "t0": 101772, 
                            "v": 80, 
                            "dur": 60, 
                            "type": "note", 
                            "channel": 0
                        }
                    ]
                ], 
                [
                    102240, 
                    [
                        {
                            "pitch": 50, 
                            "t0": 102240, 
                            "v": 80, 
                            "dur": 60, 
                            "type": "note", 
                            "channel": 0
                        }
                    ]
                ], 
                [
                    102732, 
                    [
                        {
                            "pitch": 50, 
                            "t0": 102732, 
                            "v": 80, 
                            "dur": 60, 
                            "type": "note", 
                            "channel": 0
                        }
                    ]
                ], 
                [
                    103200, 
                    [
                        {
                            "pitch": 50, 
                            "t0": 103200, 
                            "v": 80, 
                            "dur": 60, 
                            "type": "note", 
                            "channel": 0
                        }
                    ]
                ], 
                [
                    103692, 
                    [
                        {
                            "pitch": 50, 
                            "t0": 103692, 
                            "v": 80, 
                            "dur": 60, 
                            "type": "note", 
                            "channel": 0
                        }
                    ]
                ], 
                [
                    104160, 
                    [
                        {
                            "pitch": 50, 
                            "t0": 104160, 
                            "v": 80, 
                            "dur": 60, 
                            "type": "note", 
                            "channel": 0
                        }
                    ]
                ], 
                [
                    104652, 
                    [
                        {
                            "pitch": 50, 
                            "t0": 104652, 
                            "v": 80, 
                            "dur": 60, 
                            "type": "note", 
                            "channel": 0
                        }
                    ]
                ], 
                [
                    105120, 
                    [
                        {
                            "pitch": 50, 
                            "t0": 105120, 
                            "v": 80, 
                            "dur": 60, 
                            "type": "note", 
                            "channel": 0
                        }
                    ]
                ], 
                [
                    105612, 
                    [
                        {
                            "pitch": 50, 
                            "t0": 105612, 
                            "v": 80, 
                            "dur": 60, 
                            "type": "note", 
                            "channel": 0
                        }
                    ]
                ], 
                [
                    106080, 
                    [
                        {
                            "pitch": 50, 
                            "t0": 106080, 
                            "v": 80, 
                            "dur": 60, 
                            "type": "note", 
                            "channel": 0
                        }
                    ]
                ], 
                [
                    106572, 
                    [
                        {
                            "pitch": 50, 
                            "t0": 106572, 
                            "v": 80, 
                            "dur": 60, 
                            "type": "note", 
                            "channel": 0
                        }
                    ]
                ], 
                [
                    107040, 
                    [
                        {
                            "pitch": 50, 
                            "t0": 107040, 
                            "v": 80, 
                            "dur": 60, 
                            "type": "note", 
                            "channel": 0
                        }
                    ]
                ], 
                [
                    107532, 
                    [
                        {
                            "pitch": 50, 
                            "t0": 107532, 
                            "v": 80, 
                            "dur": 60, 
                            "type": "note", 
                            "channel": 0
                        }
                    ]
                ], 
                [
                    108000, 
                    [
                        {
                            "pitch": 50, 
                            "t0": 108000, 
                            "v": 80, 
                            "dur": 60, 
                            "type": "note", 
                            "channel": 0
                        }
                    ]
                ], 
                [
                    108492, 
                    [
                        {
                            "pitch": 50, 
                            "t0": 108492, 
                            "v": 80, 
                            "dur": 60, 
                            "type": "note", 
                            "channel": 0
                        }
                    ]
                ], 
                [
                    108960, 
                    [
                        {
                            "pitch": 50, 
                            "t0": 108960, 
                            "v": 80, 
                            "dur": 60, 
                            "type": "note", 
                            "channel": 0
                        }
                    ]
                ], 
                [
                    109452, 
                    [
                        {
                            "pitch": 50, 
                            "t0": 109452, 
                            "v": 80, 
                            "dur": 60, 
                            "type": "note", 
                            "channel": 0
                        }
                    ]
                ], 
                [
                    109920, 
                    [
                        {
                            "pitch": 50, 
                            "t0": 109920, 
                            "v": 80, 
                            "dur": 60, 
                            "type": "note", 
                            "channel": 0
                        }
                    ]
                ], 
                [
                    110412, 
                    [
                        {
                            "pitch": 50, 
                            "t0": 110412, 
                            "v": 80, 
                            "dur": 60, 
                            "type": "note", 
                            "channel": 0
                        }
                    ]
                ], 
                [
                    110880, 
                    [
                        {
                            "pitch": 50, 
                            "t0": 110880, 
                            "v": 80, 
                            "dur": 60, 
                            "type": "note", 
                            "channel": 0
                        }
                    ]
                ], 
                [
                    111372, 
                    [
                        {
                            "pitch": 50, 
                            "t0": 111372, 
                            "v": 80, 
                            "dur": 60, 
                            "type": "note", 
                            "channel": 0
                        }
                    ]
                ], 
                [
                    111840, 
                    [
                        {
                            "pitch": 50, 
                            "t0": 111840, 
                            "v": 80, 
                            "dur": 60, 
                            "type": "note", 
                            "channel": 0
                        }
                    ]
                ], 
                [
                    112332, 
                    [
                        {
                            "pitch": 50, 
                            "t0": 112332, 
                            "v": 80, 
                            "dur": 60, 
                            "type": "note", 
                            "channel": 0
                        }
                    ]
                ], 
                [
                    112800, 
                    [
                        {
                            "pitch": 50, 
                            "t0": 112800, 
                            "v": 80, 
                            "dur": 60, 
                            "type": "note", 
                            "channel": 0
                        }
                    ]
                ], 
                [
                    113292, 
                    [
                        {
                            "pitch": 50, 
                            "t0": 113292, 
                            "v": 80, 
                            "dur": 60, 
                            "type": "note", 
                            "channel": 0
                        }
                    ]
                ], 
                [
                    113760, 
                    [
                        {
                            "pitch": 50, 
                            "t0": 113760, 
                            "v": 80, 
                            "dur": 60, 
                            "type": "note", 
                            "channel": 0
                        }
                    ]
                ], 
                [
                    114252, 
                    [
                        {
                            "pitch": 50, 
                            "t0": 114252, 
                            "v": 80, 
                            "dur": 60, 
                            "type": "note", 
                            "channel": 0
                        }
                    ]
                ], 
                [
                    114720, 
                    [
                        {
                            "pitch": 50, 
                            "t0": 114720, 
                            "v": 80, 
                            "dur": 60, 
                            "type": "note", 
                            "channel": 0
                        }
                    ]
                ], 
                [
                    115212, 
                    [
                        {
                            "pitch": 50, 
                            "t0": 115212, 
                            "v": 80, 
                            "dur": 60, 
                            "type": "note", 
                            "channel": 0
                        }
                    ]
                ], 
                [
                    115680, 
                    [
                        {
                            "pitch": 50, 
                            "t0": 115680, 
                            "v": 80, 
                            "dur": 60, 
                            "type": "note", 
                            "channel": 0
                        }
                    ]
                ], 
                [
                    116172, 
                    [
                        {
                            "pitch": 50, 
                            "t0": 116172, 
                            "v": 80, 
                            "dur": 60, 
                            "type": "note", 
                            "channel": 0
                        }
                    ]
                ], 
                [
                    116640, 
                    [
                        {
                            "pitch": 50, 
                            "t0": 116640, 
                            "v": 80, 
                            "dur": 60, 
                            "type": "note", 
                            "channel": 0
                        }
                    ]
                ], 
                [
                    117132, 
                    [
                        {
                            "pitch": 50, 
                            "t0": 117132, 
                            "v": 80, 
                            "dur": 60, 
                            "type": "note", 
                            "channel": 0
                        }
                    ]
                ], 
                [
                    117600, 
                    [
                        {
                            "pitch": 50, 
                            "t0": 117600, 
                            "v": 80, 
                            "dur": 60, 
                            "type": "note", 
                            "channel": 0
                        }
                    ]
                ], 
                [
                    118092, 
                    [
                        {
                            "pitch": 50, 
                            "t0": 118092, 
                            "v": 80, 
                            "dur": 60, 
                            "type": "note", 
                            "channel": 0
                        }
                    ]
                ], 
                [
                    118560, 
                    [
                        {
                            "pitch": 50, 
                            "t0": 118560, 
                            "v": 80, 
                            "dur": 60, 
                            "type": "note", 
                            "channel": 0
                        }
                    ]
                ], 
                [
                    119052, 
                    [
                        {
                            "pitch": 50, 
                            "t0": 119052, 
                            "v": 80, 
                            "dur": 60, 
                            "type": "note", 
                            "channel": 0
                        }
                    ]
                ], 
                [
                    119520, 
                    [
                        {
                            "pitch": 50, 
                            "t0": 119520, 
                            "v": 80, 
                            "dur": 60, 
                            "type": "note", 
                            "channel": 0
                        }
                    ]
                ], 
                [
                    120012, 
                    [
                        {
                            "pitch": 50, 
                            "t0": 120012, 
                            "v": 80, 
                            "dur": 60, 
                            "type": "note", 
                            "channel": 0
                        }
                    ]
                ], 
                [
                    120480, 
                    [
                        {
                            "pitch": 50, 
                            "t0": 120480, 
                            "v": 80, 
                            "dur": 60, 
                            "type": "note", 
                            "channel": 0
                        }
                    ]
                ], 
                [
                    120972, 
                    [
                        {
                            "pitch": 50, 
                            "t0": 120972, 
                            "v": 80, 
                            "dur": 60, 
                            "type": "note", 
                            "channel": 0
                        }
                    ]
                ], 
                [
                    121440, 
                    [
                        {
                            "pitch": 50, 
                            "t0": 121440, 
                            "v": 80, 
                            "dur": 60, 
                            "type": "note", 
                            "channel": 0
                        }
                    ]
                ], 
                [
                    121932, 
                    [
                        {
                            "pitch": 50, 
                            "t0": 121932, 
                            "v": 80, 
                            "dur": 60, 
                            "type": "note", 
                            "channel": 0
                        }
                    ]
                ], 
                [
                    122400, 
                    [
                        {
                            "pitch": 50, 
                            "t0": 122400, 
                            "v": 80, 
                            "dur": 60, 
                            "type": "note", 
                            "channel": 0
                        }
                    ]
                ], 
                [
                    122892, 
                    [
                        {
                            "pitch": 50, 
                            "t0": 122892, 
                            "v": 80, 
                            "dur": 60, 
                            "type": "note", 
                            "channel": 0
                        }
                    ]
                ], 
                [
                    123360, 
                    [
                        {
                            "pitch": 50, 
                            "t0": 123360, 
                            "v": 80, 
                            "dur": 60, 
                            "type": "note", 
                            "channel": 0
                        }
                    ]
                ], 
                [
                    123852, 
                    [
                        {
                            "pitch": 50, 
                            "t0": 123852, 
                            "v": 80, 
                            "dur": 60, 
                            "type": "note", 
                            "channel": 0
                        }
                    ]
                ], 
                [
                    124320, 
                    [
                        {
                            "pitch": 50, 
                            "t0": 124320, 
                            "v": 80, 
                            "dur": 60, 
                            "type": "note", 
                            "channel": 0
                        }
                    ]
                ], 
                [
                    124812, 
                    [
                        {
                            "pitch": 50, 
                            "t0": 124812, 
                            "v": 80, 
                            "dur": 60, 
                            "type": "note", 
                            "channel": 0
                        }
                    ]
                ], 
                [
                    125280, 
                    [
                        {
                            "pitch": 50, 
                            "t0": 125280, 
                            "v": 80, 
                            "dur": 60, 
                            "type": "note", 
                            "channel": 0
                        }
                    ]
                ], 
                [
                    125772, 
                    [
                        {
                            "pitch": 50, 
                            "t0": 125772, 
                            "v": 80, 
                            "dur": 60, 
                            "type": "note", 
                            "channel": 0
                        }
                    ]
                ], 
                [
                    126240, 
                    [
                        {
                            "pitch": 50, 
                            "t0": 126240, 
                            "v": 80, 
                            "dur": 60, 
                            "type": "note", 
                            "channel": 0
                        }
                    ]
                ], 
                [
                    126732, 
                    [
                        {
                            "pitch": 50, 
                            "t0": 126732, 
                            "v": 80, 
                            "dur": 60, 
                            "type": "note", 
                            "channel": 0
                        }
                    ]
                ], 
                [
                    127200, 
                    [
                        {
                            "pitch": 50, 
                            "t0": 127200, 
                            "v": 80, 
                            "dur": 60, 
                            "type": "note", 
                            "channel": 0
                        }
                    ]
                ], 
                [
                    127692, 
                    [
                        {
                            "pitch": 50, 
                            "t0": 127692, 
                            "v": 80, 
                            "dur": 60, 
                            "type": "note", 
                            "channel": 0
                        }
                    ]
                ], 
                [
                    128160, 
                    [
                        {
                            "pitch": 50, 
                            "t0": 128160, 
                            "v": 80, 
                            "dur": 60, 
                            "type": "note", 
                            "channel": 0
                        }
                    ]
                ], 
                [
                    128652, 
                    [
                        {
                            "pitch": 50, 
                            "t0": 128652, 
                            "v": 80, 
                            "dur": 60, 
                            "type": "note", 
                            "channel": 0
                        }
                    ]
                ], 
                [
                    129120, 
                    [
                        {
                            "pitch": 50, 
                            "t0": 129120, 
                            "v": 80, 
                            "dur": 60, 
                            "type": "note", 
                            "channel": 0
                        }
                    ]
                ], 
                [
                    129612, 
                    [
                        {
                            "pitch": 50, 
                            "t0": 129612, 
                            "v": 80, 
                            "dur": 60, 
                            "type": "note", 
                            "channel": 0
                        }
                    ]
                ], 
                [
                    130080, 
                    [
                        {
                            "pitch": 50, 
                            "t0": 130080, 
                            "v": 80, 
                            "dur": 60, 
                            "type": "note", 
                            "channel": 0
                        }
                    ]
                ]
            ], 
            "instruments": [
                116
            ], 
            "tMax": 130080, 
            "channels": [
                0
            ], 
            "instrument": 116, 
            "numNotes": 272, 
            "type": "TrackObj"
        }, 
        {
            "trackName": "Strings", 
            "seq": [
                [
                    0, 
                    [
                        {
                            "instrument": 48, 
                            "type": "programChange", 
                            "t0": 0, 
                            "channel": 1
                        }
                    ]
                ], 
                [
                    222, 
                    [
                        {
                            "instrument": 48, 
                            "type": "programChange", 
                            "t0": 222, 
                            "channel": 1
                        }, 
                        {
                            "pitch": 45, 
                            "t0": 222, 
                            "v": 80, 
                            "dur": 21852, 
                            "type": "note", 
                            "channel": 1
                        }, 
                        {
                            "pitch": 50, 
                            "t0": 222, 
                            "v": 84, 
                            "dur": 21852, 
                            "type": "note", 
                            "channel": 1
                        }
                    ]
                ], 
                [
                    1885, 
                    [
                        {
                            "pitch": 53, 
                            "t0": 1885, 
                            "v": 56, 
                            "dur": 20184, 
                            "type": "note", 
                            "channel": 1
                        }
                    ]
                ], 
                [
                    3821, 
                    [
                        {
                            "pitch": 57, 
                            "t0": 3821, 
                            "v": 92, 
                            "dur": 18252, 
                            "type": "note", 
                            "channel": 1
                        }
                    ]
                ], 
                [
                    5969, 
                    [
                        {
                            "pitch": 62, 
                            "t0": 5969, 
                            "v": 92, 
                            "dur": 4264, 
                            "type": "note", 
                            "channel": 1
                        }
                    ]
                ], 
                [
                    6206, 
                    [
                        {
                            "pitch": 65, 
                            "t0": 6206, 
                            "v": 84, 
                            "dur": 571, 
                            "type": "note", 
                            "channel": 1
                        }
                    ]
                ], 
                [
                    6689, 
                    [
                        {
                            "pitch": 69, 
                            "t0": 6689, 
                            "v": 112, 
                            "dur": 524, 
                            "type": "note", 
                            "channel": 1
                        }
                    ]
                ], 
                [
                    7182, 
                    [
                        {
                            "pitch": 71, 
                            "t0": 7182, 
                            "v": 76, 
                            "dur": 1012, 
                            "type": "note", 
                            "channel": 1
                        }
                    ]
                ], 
                [
                    8147, 
                    [
                        {
                            "pitch": 69, 
                            "t0": 8147, 
                            "v": 88, 
                            "dur": 537, 
                            "type": "note", 
                            "channel": 1
                        }
                    ]
                ], 
                [
                    8636, 
                    [
                        {
                            "pitch": 67, 
                            "t0": 8636, 
                            "v": 84, 
                            "dur": 747, 
                            "type": "note", 
                            "channel": 1
                        }
                    ]
                ], 
                [
                    9338, 
                    [
                        {
                            "pitch": 65, 
                            "t0": 9338, 
                            "v": 84, 
                            "dur": 161, 
                            "type": "note", 
                            "channel": 1
                        }
                    ]
                ], 
                [
                    9456, 
                    [
                        {
                            "pitch": 67, 
                            "t0": 9456, 
                            "v": 96, 
                            "dur": 182, 
                            "type": "note", 
                            "channel": 1
                        }
                    ]
                ], 
                [
                    9596, 
                    [
                        {
                            "pitch": 65, 
                            "t0": 9596, 
                            "v": 104, 
                            "dur": 307, 
                            "type": "note", 
                            "channel": 1
                        }
                    ]
                ], 
                [
                    9856, 
                    [
                        {
                            "pitch": 67, 
                            "t0": 9856, 
                            "v": 104, 
                            "dur": 630, 
                            "type": "note", 
                            "channel": 1
                        }
                    ]
                ], 
                [
                    10103, 
                    [
                        {
                            "pitch": 64, 
                            "t0": 10103, 
                            "v": 84, 
                            "dur": 364, 
                            "type": "note", 
                            "channel": 1
                        }
                    ]
                ], 
                [
                    10317, 
                    [
                        {
                            "pitch": 62, 
                            "t0": 10317, 
                            "v": 84, 
                            "dur": 1242, 
                            "type": "note", 
                            "channel": 1
                        }
                    ]
                ], 
                [
                    10567, 
                    [
                        {
                            "pitch": 64, 
                            "t0": 10567, 
                            "v": 64, 
                            "dur": 738, 
                            "type": "note", 
                            "channel": 1
                        }
                    ]
                ], 
                [
                    11263, 
                    [
                        {
                            "pitch": 65, 
                            "t0": 11263, 
                            "v": 92, 
                            "dur": 306, 
                            "type": "note", 
                            "channel": 1
                        }
                    ]
                ], 
                [
                    11517, 
                    [
                        {
                            "pitch": 64, 
                            "t0": 11517, 
                            "v": 100, 
                            "dur": 738, 
                            "type": "note", 
                            "channel": 1
                        }
                    ]
                ], 
                [
                    12181, 
                    [
                        {
                            "pitch": 62, 
                            "t0": 12181, 
                            "v": 84, 
                            "dur": 156, 
                            "type": "note", 
                            "channel": 1
                        }
                    ]
                ], 
                [
                    12297, 
                    [
                        {
                            "pitch": 64, 
                            "t0": 12297, 
                            "v": 92, 
                            "dur": 197, 
                            "type": "note", 
                            "channel": 1
                        }
                    ]
                ], 
                [
                    12429, 
                    [
                        {
                            "pitch": 65, 
                            "t0": 12429, 
                            "v": 7, 
                            "dur": 1506, 
                            "type": "note", 
                            "channel": 1
                        }
                    ]
                ], 
                [
                    13901, 
                    [
                        {
                            "pitch": 64, 
                            "t0": 13901, 
                            "v": 92, 
                            "dur": 134, 
                            "type": "note", 
                            "channel": 1
                        }
                    ]
                ], 
                [
                    14003, 
                    [
                        {
                            "pitch": 65, 
                            "t0": 14003, 
                            "v": 92, 
                            "dur": 405, 
                            "type": "note", 
                            "channel": 1
                        }
                    ]
                ], 
                [
                    14381, 
                    [
                        {
                            "pitch": 67, 
                            "t0": 14381, 
                            "v": 92, 
                            "dur": 725, 
                            "type": "note", 
                            "channel": 1
                        }
                    ]
                ], 
                [
                    15079, 
                    [
                        {
                            "pitch": 69, 
                            "t0": 15079, 
                            "v": 96, 
                            "dur": 292, 
                            "type": "note", 
                            "channel": 1
                        }
                    ]
                ], 
                [
                    15341, 
                    [
                        {
                            "pitch": 74, 
                            "t0": 15341, 
                            "v": 100, 
                            "dur": 733, 
                            "type": "note", 
                            "channel": 1
                        }
                    ]
                ], 
                [
                    16041, 
                    [
                        {
                            "pitch": 69, 
                            "t0": 16041, 
                            "v": 72, 
                            "dur": 143, 
                            "type": "note", 
                            "channel": 1
                        }
                    ]
                ], 
                [
                    16161, 
                    [
                        {
                            "pitch": 67, 
                            "t0": 16161, 
                            "v": 100, 
                            "dur": 153, 
                            "type": "note", 
                            "channel": 1
                        }
                    ]
                ], 
                [
                    16286, 
                    [
                        {
                            "pitch": 69, 
                            "t0": 16286, 
                            "v": 108, 
                            "dur": 489, 
                            "type": "note", 
                            "channel": 1
                        }
                    ]
                ], 
                [
                    16745, 
                    [
                        {
                            "pitch": 67, 
                            "t0": 16745, 
                            "v": 108, 
                            "dur": 514, 
                            "type": "note", 
                            "channel": 1
                        }
                    ]
                ], 
                [
                    17232, 
                    [
                        {
                            "pitch": 69, 
                            "t0": 17232, 
                            "v": 100, 
                            "dur": 284, 
                            "type": "note", 
                            "channel": 1
                        }
                    ]
                ], 
                [
                    17485, 
                    [
                        {
                            "pitch": 67, 
                            "t0": 17485, 
                            "v": 72, 
                            "dur": 536, 
                            "type": "note", 
                            "channel": 1
                        }
                    ]
                ], 
                [
                    18000, 
                    [
                        {
                            "pitch": 65, 
                            "t0": 18000, 
                            "v": 88, 
                            "dur": 158, 
                            "type": "note", 
                            "channel": 1
                        }
                    ]
                ], 
                [
                    18123, 
                    [
                        {
                            "pitch": 64, 
                            "t0": 18123, 
                            "v": 88, 
                            "dur": 153, 
                            "type": "note", 
                            "channel": 1
                        }
                    ]
                ], 
                [
                    18242, 
                    [
                        {
                            "pitch": 65, 
                            "t0": 18242, 
                            "v": 88, 
                            "dur": 469, 
                            "type": "note", 
                            "channel": 1
                        }
                    ]
                ], 
                [
                    18693, 
                    [
                        {
                            "pitch": 67, 
                            "t0": 18693, 
                            "v": 100, 
                            "dur": 463, 
                            "type": "note", 
                            "channel": 1
                        }
                    ]
                ], 
                [
                    19133, 
                    [
                        {
                            "pitch": 65, 
                            "t0": 19133, 
                            "v": 104, 
                            "dur": 308, 
                            "type": "note", 
                            "channel": 1
                        }
                    ]
                ], 
                [
                    19392, 
                    [
                        {
                            "pitch": 64, 
                            "t0": 19392, 
                            "v": 108, 
                            "dur": 515, 
                            "type": "note", 
                            "channel": 1
                        }
                    ]
                ], 
                [
                    19884, 
                    [
                        {
                            "pitch": 62, 
                            "t0": 19884, 
                            "v": 100, 
                            "dur": 2196, 
                            "type": "note", 
                            "channel": 1
                        }
                    ]
                ]
            ], 
            "instruments": [
                48
            ], 
            "tMax": 19884, 
            "channels": [
                1
            ], 
            "instrument": 48, 
            "numNotes": 40, 
            "type": "TrackObj"
        }, 
        {
            "trackName": "Big Drum-Near Drums", 
            "seq": [
                [
                    0, 
                    [
                        {
                            "instrument": 116, 
                            "type": "programChange", 
                            "t0": 0, 
                            "channel": 3
                        }
                    ]
                ], 
                [
                    15, 
                    [
                        {
                            "instrument": 116, 
                            "type": "programChange", 
                            "t0": 15, 
                            "channel": 3
                        }, 
                        {
                            "pitch": 43, 
                            "t0": 15, 
                            "v": 68, 
                            "dur": 15, 
                            "type": "note", 
                            "channel": 3
                        }
                    ]
                ], 
                [
                    483, 
                    [
                        {
                            "pitch": 43, 
                            "t0": 483, 
                            "v": 72, 
                            "dur": 15, 
                            "type": "note", 
                            "channel": 3
                        }
                    ]
                ], 
                [
                    975, 
                    [
                        {
                            "pitch": 43, 
                            "t0": 975, 
                            "v": 62, 
                            "dur": 15, 
                            "type": "note", 
                            "channel": 3
                        }
                    ]
                ], 
                [
                    1443, 
                    [
                        {
                            "pitch": 43, 
                            "t0": 1443, 
                            "v": 104, 
                            "dur": 15, 
                            "type": "note", 
                            "channel": 3
                        }
                    ]
                ], 
                [
                    1935, 
                    [
                        {
                            "pitch": 43, 
                            "t0": 1935, 
                            "v": 58, 
                            "dur": 15, 
                            "type": "note", 
                            "channel": 3
                        }
                    ]
                ], 
                [
                    2403, 
                    [
                        {
                            "pitch": 43, 
                            "t0": 2403, 
                            "v": 103, 
                            "dur": 15, 
                            "type": "note", 
                            "channel": 3
                        }
                    ]
                ], 
                [
                    2895, 
                    [
                        {
                            "pitch": 43, 
                            "t0": 2895, 
                            "v": 70, 
                            "dur": 15, 
                            "type": "note", 
                            "channel": 3
                        }
                    ]
                ], 
                [
                    3363, 
                    [
                        {
                            "pitch": 43, 
                            "t0": 3363, 
                            "v": 95, 
                            "dur": 15, 
                            "type": "note", 
                            "channel": 3
                        }
                    ]
                ], 
                [
                    3855, 
                    [
                        {
                            "pitch": 43, 
                            "t0": 3855, 
                            "v": 66, 
                            "dur": 15, 
                            "type": "note", 
                            "channel": 3
                        }
                    ]
                ], 
                [
                    4323, 
                    [
                        {
                            "pitch": 43, 
                            "t0": 4323, 
                            "v": 103, 
                            "dur": 15, 
                            "type": "note", 
                            "channel": 3
                        }
                    ]
                ], 
                [
                    4815, 
                    [
                        {
                            "pitch": 43, 
                            "t0": 4815, 
                            "v": 64, 
                            "dur": 15, 
                            "type": "note", 
                            "channel": 3
                        }
                    ]
                ], 
                [
                    5283, 
                    [
                        {
                            "pitch": 43, 
                            "t0": 5283, 
                            "v": 93, 
                            "dur": 15, 
                            "type": "note", 
                            "channel": 3
                        }
                    ]
                ], 
                [
                    5775, 
                    [
                        {
                            "pitch": 43, 
                            "t0": 5775, 
                            "v": 75, 
                            "dur": 15, 
                            "type": "note", 
                            "channel": 3
                        }
                    ]
                ], 
                [
                    6243, 
                    [
                        {
                            "pitch": 43, 
                            "t0": 6243, 
                            "v": 80, 
                            "dur": 15, 
                            "type": "note", 
                            "channel": 3
                        }
                    ]
                ], 
                [
                    6735, 
                    [
                        {
                            "pitch": 43, 
                            "t0": 6735, 
                            "v": 83, 
                            "dur": 15, 
                            "type": "note", 
                            "channel": 3
                        }
                    ]
                ], 
                [
                    7203, 
                    [
                        {
                            "pitch": 43, 
                            "t0": 7203, 
                            "v": 92, 
                            "dur": 15, 
                            "type": "note", 
                            "channel": 3
                        }
                    ]
                ], 
                [
                    7695, 
                    [
                        {
                            "pitch": 43, 
                            "t0": 7695, 
                            "v": 70, 
                            "dur": 15, 
                            "type": "note", 
                            "channel": 3
                        }
                    ]
                ], 
                [
                    8163, 
                    [
                        {
                            "pitch": 43, 
                            "t0": 8163, 
                            "v": 104, 
                            "dur": 15, 
                            "type": "note", 
                            "channel": 3
                        }
                    ]
                ], 
                [
                    8655, 
                    [
                        {
                            "pitch": 43, 
                            "t0": 8655, 
                            "v": 95, 
                            "dur": 15, 
                            "type": "note", 
                            "channel": 3
                        }
                    ]
                ], 
                [
                    9123, 
                    [
                        {
                            "pitch": 43, 
                            "t0": 9123, 
                            "v": 77, 
                            "dur": 15, 
                            "type": "note", 
                            "channel": 3
                        }
                    ]
                ], 
                [
                    9615, 
                    [
                        {
                            "pitch": 43, 
                            "t0": 9615, 
                            "v": 93, 
                            "dur": 15, 
                            "type": "note", 
                            "channel": 3
                        }
                    ]
                ], 
                [
                    10083, 
                    [
                        {
                            "pitch": 43, 
                            "t0": 10083, 
                            "v": 76, 
                            "dur": 15, 
                            "type": "note", 
                            "channel": 3
                        }
                    ]
                ], 
                [
                    10575, 
                    [
                        {
                            "pitch": 43, 
                            "t0": 10575, 
                            "v": 91, 
                            "dur": 15, 
                            "type": "note", 
                            "channel": 3
                        }
                    ]
                ], 
                [
                    11043, 
                    [
                        {
                            "pitch": 43, 
                            "t0": 11043, 
                            "v": 103, 
                            "dur": 15, 
                            "type": "note", 
                            "channel": 3
                        }
                    ]
                ], 
                [
                    11535, 
                    [
                        {
                            "pitch": 43, 
                            "t0": 11535, 
                            "v": 69, 
                            "dur": 15, 
                            "type": "note", 
                            "channel": 3
                        }
                    ]
                ], 
                [
                    12003, 
                    [
                        {
                            "pitch": 43, 
                            "t0": 12003, 
                            "v": 87, 
                            "dur": 15, 
                            "type": "note", 
                            "channel": 3
                        }
                    ]
                ], 
                [
                    12495, 
                    [
                        {
                            "pitch": 43, 
                            "t0": 12495, 
                            "v": 81, 
                            "dur": 15, 
                            "type": "note", 
                            "channel": 3
                        }
                    ]
                ], 
                [
                    12963, 
                    [
                        {
                            "pitch": 43, 
                            "t0": 12963, 
                            "v": 92, 
                            "dur": 15, 
                            "type": "note", 
                            "channel": 3
                        }
                    ]
                ], 
                [
                    13455, 
                    [
                        {
                            "pitch": 43, 
                            "t0": 13455, 
                            "v": 62, 
                            "dur": 15, 
                            "type": "note", 
                            "channel": 3
                        }
                    ]
                ], 
                [
                    13923, 
                    [
                        {
                            "pitch": 43, 
                            "t0": 13923, 
                            "v": 68, 
                            "dur": 15, 
                            "type": "note", 
                            "channel": 3
                        }
                    ]
                ], 
                [
                    14415, 
                    [
                        {
                            "pitch": 43, 
                            "t0": 14415, 
                            "v": 56, 
                            "dur": 15, 
                            "type": "note", 
                            "channel": 3
                        }
                    ]
                ], 
                [
                    14883, 
                    [
                        {
                            "pitch": 43, 
                            "t0": 14883, 
                            "v": 101, 
                            "dur": 15, 
                            "type": "note", 
                            "channel": 3
                        }
                    ]
                ], 
                [
                    15375, 
                    [
                        {
                            "pitch": 43, 
                            "t0": 15375, 
                            "v": 101, 
                            "dur": 15, 
                            "type": "note", 
                            "channel": 3
                        }
                    ]
                ], 
                [
                    15843, 
                    [
                        {
                            "pitch": 43, 
                            "t0": 15843, 
                            "v": 92, 
                            "dur": 15, 
                            "type": "note", 
                            "channel": 3
                        }
                    ]
                ], 
                [
                    16335, 
                    [
                        {
                            "pitch": 43, 
                            "t0": 16335, 
                            "v": 101, 
                            "dur": 15, 
                            "type": "note", 
                            "channel": 3
                        }
                    ]
                ], 
                [
                    16803, 
                    [
                        {
                            "pitch": 43, 
                            "t0": 16803, 
                            "v": 96, 
                            "dur": 15, 
                            "type": "note", 
                            "channel": 3
                        }
                    ]
                ], 
                [
                    17295, 
                    [
                        {
                            "pitch": 43, 
                            "t0": 17295, 
                            "v": 71, 
                            "dur": 15, 
                            "type": "note", 
                            "channel": 3
                        }
                    ]
                ], 
                [
                    17763, 
                    [
                        {
                            "pitch": 43, 
                            "t0": 17763, 
                            "v": 94, 
                            "dur": 15, 
                            "type": "note", 
                            "channel": 3
                        }
                    ]
                ], 
                [
                    18255, 
                    [
                        {
                            "pitch": 43, 
                            "t0": 18255, 
                            "v": 97, 
                            "dur": 15, 
                            "type": "note", 
                            "channel": 3
                        }
                    ]
                ], 
                [
                    18723, 
                    [
                        {
                            "pitch": 43, 
                            "t0": 18723, 
                            "v": 59, 
                            "dur": 15, 
                            "type": "note", 
                            "channel": 3
                        }
                    ]
                ], 
                [
                    19215, 
                    [
                        {
                            "pitch": 43, 
                            "t0": 19215, 
                            "v": 64, 
                            "dur": 15, 
                            "type": "note", 
                            "channel": 3
                        }
                    ]
                ], 
                [
                    19683, 
                    [
                        {
                            "pitch": 43, 
                            "t0": 19683, 
                            "v": 61, 
                            "dur": 15, 
                            "type": "note", 
                            "channel": 3
                        }
                    ]
                ], 
                [
                    20175, 
                    [
                        {
                            "pitch": 43, 
                            "t0": 20175, 
                            "v": 60, 
                            "dur": 15, 
                            "type": "note", 
                            "channel": 3
                        }
                    ]
                ], 
                [
                    20643, 
                    [
                        {
                            "pitch": 43, 
                            "t0": 20643, 
                            "v": 81, 
                            "dur": 15, 
                            "type": "note", 
                            "channel": 3
                        }
                    ]
                ], 
                [
                    21135, 
                    [
                        {
                            "pitch": 43, 
                            "t0": 21135, 
                            "v": 92, 
                            "dur": 15, 
                            "type": "note", 
                            "channel": 3
                        }
                    ]
                ], 
                [
                    21603, 
                    [
                        {
                            "pitch": 43, 
                            "t0": 21603, 
                            "v": 88, 
                            "dur": 15, 
                            "type": "note", 
                            "channel": 3
                        }
                    ]
                ], 
                [
                    22095, 
                    [
                        {
                            "pitch": 43, 
                            "t0": 22095, 
                            "v": 62, 
                            "dur": 15, 
                            "type": "note", 
                            "channel": 3
                        }
                    ]
                ], 
                [
                    22563, 
                    [
                        {
                            "pitch": 43, 
                            "t0": 22563, 
                            "v": 88, 
                            "dur": 15, 
                            "type": "note", 
                            "channel": 3
                        }
                    ]
                ], 
                [
                    23055, 
                    [
                        {
                            "pitch": 43, 
                            "t0": 23055, 
                            "v": 68, 
                            "dur": 15, 
                            "type": "note", 
                            "channel": 3
                        }
                    ]
                ], 
                [
                    23523, 
                    [
                        {
                            "pitch": 43, 
                            "t0": 23523, 
                            "v": 90, 
                            "dur": 15, 
                            "type": "note", 
                            "channel": 3
                        }
                    ]
                ], 
                [
                    24015, 
                    [
                        {
                            "pitch": 43, 
                            "t0": 24015, 
                            "v": 80, 
                            "dur": 15, 
                            "type": "note", 
                            "channel": 3
                        }
                    ]
                ], 
                [
                    24483, 
                    [
                        {
                            "pitch": 43, 
                            "t0": 24483, 
                            "v": 85, 
                            "dur": 15, 
                            "type": "note", 
                            "channel": 3
                        }
                    ]
                ], 
                [
                    24975, 
                    [
                        {
                            "pitch": 43, 
                            "t0": 24975, 
                            "v": 84, 
                            "dur": 15, 
                            "type": "note", 
                            "channel": 3
                        }
                    ]
                ], 
                [
                    25443, 
                    [
                        {
                            "pitch": 43, 
                            "t0": 25443, 
                            "v": 56, 
                            "dur": 15, 
                            "type": "note", 
                            "channel": 3
                        }
                    ]
                ], 
                [
                    25935, 
                    [
                        {
                            "pitch": 43, 
                            "t0": 25935, 
                            "v": 84, 
                            "dur": 15, 
                            "type": "note", 
                            "channel": 3
                        }
                    ]
                ], 
                [
                    26403, 
                    [
                        {
                            "pitch": 43, 
                            "t0": 26403, 
                            "v": 72, 
                            "dur": 15, 
                            "type": "note", 
                            "channel": 3
                        }
                    ]
                ], 
                [
                    26895, 
                    [
                        {
                            "pitch": 43, 
                            "t0": 26895, 
                            "v": 90, 
                            "dur": 15, 
                            "type": "note", 
                            "channel": 3
                        }
                    ]
                ], 
                [
                    27363, 
                    [
                        {
                            "pitch": 43, 
                            "t0": 27363, 
                            "v": 87, 
                            "dur": 15, 
                            "type": "note", 
                            "channel": 3
                        }
                    ]
                ], 
                [
                    27855, 
                    [
                        {
                            "pitch": 43, 
                            "t0": 27855, 
                            "v": 78, 
                            "dur": 15, 
                            "type": "note", 
                            "channel": 3
                        }
                    ]
                ], 
                [
                    28323, 
                    [
                        {
                            "pitch": 43, 
                            "t0": 28323, 
                            "v": 63, 
                            "dur": 15, 
                            "type": "note", 
                            "channel": 3
                        }
                    ]
                ], 
                [
                    28815, 
                    [
                        {
                            "pitch": 43, 
                            "t0": 28815, 
                            "v": 96, 
                            "dur": 15, 
                            "type": "note", 
                            "channel": 3
                        }
                    ]
                ], 
                [
                    29283, 
                    [
                        {
                            "pitch": 43, 
                            "t0": 29283, 
                            "v": 59, 
                            "dur": 15, 
                            "type": "note", 
                            "channel": 3
                        }
                    ]
                ], 
                [
                    29775, 
                    [
                        {
                            "pitch": 43, 
                            "t0": 29775, 
                            "v": 80, 
                            "dur": 15, 
                            "type": "note", 
                            "channel": 3
                        }
                    ]
                ], 
                [
                    30243, 
                    [
                        {
                            "pitch": 43, 
                            "t0": 30243, 
                            "v": 78, 
                            "dur": 15, 
                            "type": "note", 
                            "channel": 3
                        }
                    ]
                ], 
                [
                    30735, 
                    [
                        {
                            "pitch": 43, 
                            "t0": 30735, 
                            "v": 57, 
                            "dur": 15, 
                            "type": "note", 
                            "channel": 3
                        }
                    ]
                ], 
                [
                    31203, 
                    [
                        {
                            "pitch": 43, 
                            "t0": 31203, 
                            "v": 101, 
                            "dur": 15, 
                            "type": "note", 
                            "channel": 3
                        }
                    ]
                ], 
                [
                    31695, 
                    [
                        {
                            "pitch": 43, 
                            "t0": 31695, 
                            "v": 85, 
                            "dur": 15, 
                            "type": "note", 
                            "channel": 3
                        }
                    ]
                ], 
                [
                    32163, 
                    [
                        {
                            "pitch": 43, 
                            "t0": 32163, 
                            "v": 64, 
                            "dur": 15, 
                            "type": "note", 
                            "channel": 3
                        }
                    ]
                ], 
                [
                    32655, 
                    [
                        {
                            "pitch": 43, 
                            "t0": 32655, 
                            "v": 75, 
                            "dur": 15, 
                            "type": "note", 
                            "channel": 3
                        }
                    ]
                ], 
                [
                    33123, 
                    [
                        {
                            "pitch": 43, 
                            "t0": 33123, 
                            "v": 63, 
                            "dur": 15, 
                            "type": "note", 
                            "channel": 3
                        }
                    ]
                ], 
                [
                    33615, 
                    [
                        {
                            "pitch": 43, 
                            "t0": 33615, 
                            "v": 79, 
                            "dur": 15, 
                            "type": "note", 
                            "channel": 3
                        }
                    ]
                ], 
                [
                    34083, 
                    [
                        {
                            "pitch": 43, 
                            "t0": 34083, 
                            "v": 65, 
                            "dur": 15, 
                            "type": "note", 
                            "channel": 3
                        }
                    ]
                ], 
                [
                    34575, 
                    [
                        {
                            "pitch": 43, 
                            "t0": 34575, 
                            "v": 103, 
                            "dur": 15, 
                            "type": "note", 
                            "channel": 3
                        }
                    ]
                ], 
                [
                    35043, 
                    [
                        {
                            "pitch": 43, 
                            "t0": 35043, 
                            "v": 58, 
                            "dur": 15, 
                            "type": "note", 
                            "channel": 3
                        }
                    ]
                ], 
                [
                    35535, 
                    [
                        {
                            "pitch": 43, 
                            "t0": 35535, 
                            "v": 97, 
                            "dur": 15, 
                            "type": "note", 
                            "channel": 3
                        }
                    ]
                ], 
                [
                    36003, 
                    [
                        {
                            "pitch": 43, 
                            "t0": 36003, 
                            "v": 70, 
                            "dur": 15, 
                            "type": "note", 
                            "channel": 3
                        }
                    ]
                ], 
                [
                    36495, 
                    [
                        {
                            "pitch": 43, 
                            "t0": 36495, 
                            "v": 88, 
                            "dur": 15, 
                            "type": "note", 
                            "channel": 3
                        }
                    ]
                ], 
                [
                    36963, 
                    [
                        {
                            "pitch": 43, 
                            "t0": 36963, 
                            "v": 97, 
                            "dur": 15, 
                            "type": "note", 
                            "channel": 3
                        }
                    ]
                ], 
                [
                    37455, 
                    [
                        {
                            "pitch": 43, 
                            "t0": 37455, 
                            "v": 65, 
                            "dur": 15, 
                            "type": "note", 
                            "channel": 3
                        }
                    ]
                ], 
                [
                    37923, 
                    [
                        {
                            "pitch": 43, 
                            "t0": 37923, 
                            "v": 97, 
                            "dur": 15, 
                            "type": "note", 
                            "channel": 3
                        }
                    ]
                ], 
                [
                    38415, 
                    [
                        {
                            "pitch": 43, 
                            "t0": 38415, 
                            "v": 91, 
                            "dur": 15, 
                            "type": "note", 
                            "channel": 3
                        }
                    ]
                ], 
                [
                    38883, 
                    [
                        {
                            "pitch": 43, 
                            "t0": 38883, 
                            "v": 63, 
                            "dur": 15, 
                            "type": "note", 
                            "channel": 3
                        }
                    ]
                ], 
                [
                    39375, 
                    [
                        {
                            "pitch": 43, 
                            "t0": 39375, 
                            "v": 100, 
                            "dur": 15, 
                            "type": "note", 
                            "channel": 3
                        }
                    ]
                ], 
                [
                    39843, 
                    [
                        {
                            "pitch": 43, 
                            "t0": 39843, 
                            "v": 104, 
                            "dur": 15, 
                            "type": "note", 
                            "channel": 3
                        }
                    ]
                ], 
                [
                    40335, 
                    [
                        {
                            "pitch": 43, 
                            "t0": 40335, 
                            "v": 67, 
                            "dur": 15, 
                            "type": "note", 
                            "channel": 3
                        }
                    ]
                ], 
                [
                    40803, 
                    [
                        {
                            "pitch": 43, 
                            "t0": 40803, 
                            "v": 98, 
                            "dur": 15, 
                            "type": "note", 
                            "channel": 3
                        }
                    ]
                ], 
                [
                    41295, 
                    [
                        {
                            "pitch": 43, 
                            "t0": 41295, 
                            "v": 80, 
                            "dur": 15, 
                            "type": "note", 
                            "channel": 3
                        }
                    ]
                ], 
                [
                    41763, 
                    [
                        {
                            "pitch": 43, 
                            "t0": 41763, 
                            "v": 93, 
                            "dur": 15, 
                            "type": "note", 
                            "channel": 3
                        }
                    ]
                ], 
                [
                    42255, 
                    [
                        {
                            "pitch": 43, 
                            "t0": 42255, 
                            "v": 96, 
                            "dur": 15, 
                            "type": "note", 
                            "channel": 3
                        }
                    ]
                ], 
                [
                    42723, 
                    [
                        {
                            "pitch": 43, 
                            "t0": 42723, 
                            "v": 82, 
                            "dur": 15, 
                            "type": "note", 
                            "channel": 3
                        }
                    ]
                ], 
                [
                    43215, 
                    [
                        {
                            "pitch": 43, 
                            "t0": 43215, 
                            "v": 100, 
                            "dur": 15, 
                            "type": "note", 
                            "channel": 3
                        }
                    ]
                ], 
                [
                    43683, 
                    [
                        {
                            "pitch": 43, 
                            "t0": 43683, 
                            "v": 94, 
                            "dur": 15, 
                            "type": "note", 
                            "channel": 3
                        }
                    ]
                ], 
                [
                    44175, 
                    [
                        {
                            "pitch": 43, 
                            "t0": 44175, 
                            "v": 67, 
                            "dur": 15, 
                            "type": "note", 
                            "channel": 3
                        }
                    ]
                ], 
                [
                    44643, 
                    [
                        {
                            "pitch": 43, 
                            "t0": 44643, 
                            "v": 97, 
                            "dur": 15, 
                            "type": "note", 
                            "channel": 3
                        }
                    ]
                ], 
                [
                    45135, 
                    [
                        {
                            "pitch": 43, 
                            "t0": 45135, 
                            "v": 87, 
                            "dur": 15, 
                            "type": "note", 
                            "channel": 3
                        }
                    ]
                ], 
                [
                    45603, 
                    [
                        {
                            "pitch": 43, 
                            "t0": 45603, 
                            "v": 76, 
                            "dur": 15, 
                            "type": "note", 
                            "channel": 3
                        }
                    ]
                ], 
                [
                    46095, 
                    [
                        {
                            "pitch": 43, 
                            "t0": 46095, 
                            "v": 93, 
                            "dur": 15, 
                            "type": "note", 
                            "channel": 3
                        }
                    ]
                ], 
                [
                    46563, 
                    [
                        {
                            "pitch": 43, 
                            "t0": 46563, 
                            "v": 83, 
                            "dur": 15, 
                            "type": "note", 
                            "channel": 3
                        }
                    ]
                ], 
                [
                    47055, 
                    [
                        {
                            "pitch": 43, 
                            "t0": 47055, 
                            "v": 78, 
                            "dur": 15, 
                            "type": "note", 
                            "channel": 3
                        }
                    ]
                ], 
                [
                    47523, 
                    [
                        {
                            "pitch": 43, 
                            "t0": 47523, 
                            "v": 77, 
                            "dur": 15, 
                            "type": "note", 
                            "channel": 3
                        }
                    ]
                ], 
                [
                    48015, 
                    [
                        {
                            "pitch": 43, 
                            "t0": 48015, 
                            "v": 56, 
                            "dur": 15, 
                            "type": "note", 
                            "channel": 3
                        }
                    ]
                ], 
                [
                    48483, 
                    [
                        {
                            "pitch": 43, 
                            "t0": 48483, 
                            "v": 88, 
                            "dur": 15, 
                            "type": "note", 
                            "channel": 3
                        }
                    ]
                ], 
                [
                    48975, 
                    [
                        {
                            "pitch": 43, 
                            "t0": 48975, 
                            "v": 86, 
                            "dur": 15, 
                            "type": "note", 
                            "channel": 3
                        }
                    ]
                ], 
                [
                    49443, 
                    [
                        {
                            "pitch": 43, 
                            "t0": 49443, 
                            "v": 95, 
                            "dur": 15, 
                            "type": "note", 
                            "channel": 3
                        }
                    ]
                ], 
                [
                    49935, 
                    [
                        {
                            "pitch": 43, 
                            "t0": 49935, 
                            "v": 80, 
                            "dur": 15, 
                            "type": "note", 
                            "channel": 3
                        }
                    ]
                ], 
                [
                    50403, 
                    [
                        {
                            "pitch": 43, 
                            "t0": 50403, 
                            "v": 96, 
                            "dur": 15, 
                            "type": "note", 
                            "channel": 3
                        }
                    ]
                ], 
                [
                    50895, 
                    [
                        {
                            "pitch": 43, 
                            "t0": 50895, 
                            "v": 93, 
                            "dur": 15, 
                            "type": "note", 
                            "channel": 3
                        }
                    ]
                ], 
                [
                    51363, 
                    [
                        {
                            "pitch": 43, 
                            "t0": 51363, 
                            "v": 95, 
                            "dur": 15, 
                            "type": "note", 
                            "channel": 3
                        }
                    ]
                ], 
                [
                    51855, 
                    [
                        {
                            "pitch": 43, 
                            "t0": 51855, 
                            "v": 61, 
                            "dur": 15, 
                            "type": "note", 
                            "channel": 3
                        }
                    ]
                ], 
                [
                    52323, 
                    [
                        {
                            "pitch": 43, 
                            "t0": 52323, 
                            "v": 102, 
                            "dur": 15, 
                            "type": "note", 
                            "channel": 3
                        }
                    ]
                ], 
                [
                    52815, 
                    [
                        {
                            "pitch": 43, 
                            "t0": 52815, 
                            "v": 98, 
                            "dur": 15, 
                            "type": "note", 
                            "channel": 3
                        }
                    ]
                ], 
                [
                    53283, 
                    [
                        {
                            "pitch": 43, 
                            "t0": 53283, 
                            "v": 100, 
                            "dur": 15, 
                            "type": "note", 
                            "channel": 3
                        }
                    ]
                ], 
                [
                    53775, 
                    [
                        {
                            "pitch": 43, 
                            "t0": 53775, 
                            "v": 60, 
                            "dur": 15, 
                            "type": "note", 
                            "channel": 3
                        }
                    ]
                ], 
                [
                    54243, 
                    [
                        {
                            "pitch": 43, 
                            "t0": 54243, 
                            "v": 82, 
                            "dur": 15, 
                            "type": "note", 
                            "channel": 3
                        }
                    ]
                ], 
                [
                    54735, 
                    [
                        {
                            "pitch": 43, 
                            "t0": 54735, 
                            "v": 99, 
                            "dur": 15, 
                            "type": "note", 
                            "channel": 3
                        }
                    ]
                ], 
                [
                    55203, 
                    [
                        {
                            "pitch": 43, 
                            "t0": 55203, 
                            "v": 85, 
                            "dur": 15, 
                            "type": "note", 
                            "channel": 3
                        }
                    ]
                ], 
                [
                    55695, 
                    [
                        {
                            "pitch": 43, 
                            "t0": 55695, 
                            "v": 58, 
                            "dur": 15, 
                            "type": "note", 
                            "channel": 3
                        }
                    ]
                ], 
                [
                    56163, 
                    [
                        {
                            "pitch": 43, 
                            "t0": 56163, 
                            "v": 69, 
                            "dur": 15, 
                            "type": "note", 
                            "channel": 3
                        }
                    ]
                ], 
                [
                    56655, 
                    [
                        {
                            "pitch": 43, 
                            "t0": 56655, 
                            "v": 67, 
                            "dur": 15, 
                            "type": "note", 
                            "channel": 3
                        }
                    ]
                ], 
                [
                    57123, 
                    [
                        {
                            "pitch": 43, 
                            "t0": 57123, 
                            "v": 100, 
                            "dur": 15, 
                            "type": "note", 
                            "channel": 3
                        }
                    ]
                ], 
                [
                    57615, 
                    [
                        {
                            "pitch": 43, 
                            "t0": 57615, 
                            "v": 90, 
                            "dur": 15, 
                            "type": "note", 
                            "channel": 3
                        }
                    ]
                ], 
                [
                    58083, 
                    [
                        {
                            "pitch": 43, 
                            "t0": 58083, 
                            "v": 103, 
                            "dur": 15, 
                            "type": "note", 
                            "channel": 3
                        }
                    ]
                ], 
                [
                    58575, 
                    [
                        {
                            "pitch": 43, 
                            "t0": 58575, 
                            "v": 102, 
                            "dur": 15, 
                            "type": "note", 
                            "channel": 3
                        }
                    ]
                ], 
                [
                    59043, 
                    [
                        {
                            "pitch": 43, 
                            "t0": 59043, 
                            "v": 69, 
                            "dur": 15, 
                            "type": "note", 
                            "channel": 3
                        }
                    ]
                ], 
                [
                    59535, 
                    [
                        {
                            "pitch": 43, 
                            "t0": 59535, 
                            "v": 90, 
                            "dur": 15, 
                            "type": "note", 
                            "channel": 3
                        }
                    ]
                ], 
                [
                    60003, 
                    [
                        {
                            "pitch": 43, 
                            "t0": 60003, 
                            "v": 87, 
                            "dur": 15, 
                            "type": "note", 
                            "channel": 3
                        }
                    ]
                ], 
                [
                    60495, 
                    [
                        {
                            "pitch": 43, 
                            "t0": 60495, 
                            "v": 57, 
                            "dur": 15, 
                            "type": "note", 
                            "channel": 3
                        }
                    ]
                ], 
                [
                    60963, 
                    [
                        {
                            "pitch": 43, 
                            "t0": 60963, 
                            "v": 79, 
                            "dur": 15, 
                            "type": "note", 
                            "channel": 3
                        }
                    ]
                ], 
                [
                    61455, 
                    [
                        {
                            "pitch": 43, 
                            "t0": 61455, 
                            "v": 100, 
                            "dur": 15, 
                            "type": "note", 
                            "channel": 3
                        }
                    ]
                ], 
                [
                    61923, 
                    [
                        {
                            "pitch": 43, 
                            "t0": 61923, 
                            "v": 69, 
                            "dur": 15, 
                            "type": "note", 
                            "channel": 3
                        }
                    ]
                ], 
                [
                    62415, 
                    [
                        {
                            "pitch": 43, 
                            "t0": 62415, 
                            "v": 86, 
                            "dur": 15, 
                            "type": "note", 
                            "channel": 3
                        }
                    ]
                ], 
                [
                    62883, 
                    [
                        {
                            "pitch": 43, 
                            "t0": 62883, 
                            "v": 74, 
                            "dur": 15, 
                            "type": "note", 
                            "channel": 3
                        }
                    ]
                ], 
                [
                    63375, 
                    [
                        {
                            "pitch": 43, 
                            "t0": 63375, 
                            "v": 71, 
                            "dur": 15, 
                            "type": "note", 
                            "channel": 3
                        }
                    ]
                ], 
                [
                    63843, 
                    [
                        {
                            "pitch": 43, 
                            "t0": 63843, 
                            "v": 101, 
                            "dur": 15, 
                            "type": "note", 
                            "channel": 3
                        }
                    ]
                ], 
                [
                    64335, 
                    [
                        {
                            "pitch": 43, 
                            "t0": 64335, 
                            "v": 97, 
                            "dur": 15, 
                            "type": "note", 
                            "channel": 3
                        }
                    ]
                ], 
                [
                    64803, 
                    [
                        {
                            "pitch": 43, 
                            "t0": 64803, 
                            "v": 80, 
                            "dur": 15, 
                            "type": "note", 
                            "channel": 3
                        }
                    ]
                ], 
                [
                    65295, 
                    [
                        {
                            "pitch": 43, 
                            "t0": 65295, 
                            "v": 78, 
                            "dur": 15, 
                            "type": "note", 
                            "channel": 3
                        }
                    ]
                ], 
                [
                    65763, 
                    [
                        {
                            "pitch": 43, 
                            "t0": 65763, 
                            "v": 87, 
                            "dur": 15, 
                            "type": "note", 
                            "channel": 3
                        }
                    ]
                ], 
                [
                    66255, 
                    [
                        {
                            "pitch": 43, 
                            "t0": 66255, 
                            "v": 82, 
                            "dur": 15, 
                            "type": "note", 
                            "channel": 3
                        }
                    ]
                ], 
                [
                    66723, 
                    [
                        {
                            "pitch": 43, 
                            "t0": 66723, 
                            "v": 65, 
                            "dur": 15, 
                            "type": "note", 
                            "channel": 3
                        }
                    ]
                ], 
                [
                    67215, 
                    [
                        {
                            "pitch": 43, 
                            "t0": 67215, 
                            "v": 63, 
                            "dur": 15, 
                            "type": "note", 
                            "channel": 3
                        }
                    ]
                ], 
                [
                    67683, 
                    [
                        {
                            "pitch": 43, 
                            "t0": 67683, 
                            "v": 92, 
                            "dur": 15, 
                            "type": "note", 
                            "channel": 3
                        }
                    ]
                ], 
                [
                    68175, 
                    [
                        {
                            "pitch": 43, 
                            "t0": 68175, 
                            "v": 97, 
                            "dur": 15, 
                            "type": "note", 
                            "channel": 3
                        }
                    ]
                ], 
                [
                    68643, 
                    [
                        {
                            "pitch": 43, 
                            "t0": 68643, 
                            "v": 74, 
                            "dur": 15, 
                            "type": "note", 
                            "channel": 3
                        }
                    ]
                ], 
                [
                    69135, 
                    [
                        {
                            "pitch": 43, 
                            "t0": 69135, 
                            "v": 80, 
                            "dur": 15, 
                            "type": "note", 
                            "channel": 3
                        }
                    ]
                ], 
                [
                    69603, 
                    [
                        {
                            "pitch": 43, 
                            "t0": 69603, 
                            "v": 80, 
                            "dur": 15, 
                            "type": "note", 
                            "channel": 3
                        }
                    ]
                ], 
                [
                    70095, 
                    [
                        {
                            "pitch": 43, 
                            "t0": 70095, 
                            "v": 72, 
                            "dur": 15, 
                            "type": "note", 
                            "channel": 3
                        }
                    ]
                ], 
                [
                    70563, 
                    [
                        {
                            "pitch": 43, 
                            "t0": 70563, 
                            "v": 63, 
                            "dur": 15, 
                            "type": "note", 
                            "channel": 3
                        }
                    ]
                ], 
                [
                    71055, 
                    [
                        {
                            "pitch": 43, 
                            "t0": 71055, 
                            "v": 58, 
                            "dur": 15, 
                            "type": "note", 
                            "channel": 3
                        }
                    ]
                ], 
                [
                    71523, 
                    [
                        {
                            "pitch": 43, 
                            "t0": 71523, 
                            "v": 104, 
                            "dur": 15, 
                            "type": "note", 
                            "channel": 3
                        }
                    ]
                ], 
                [
                    72015, 
                    [
                        {
                            "pitch": 43, 
                            "t0": 72015, 
                            "v": 56, 
                            "dur": 15, 
                            "type": "note", 
                            "channel": 3
                        }
                    ]
                ], 
                [
                    72483, 
                    [
                        {
                            "pitch": 43, 
                            "t0": 72483, 
                            "v": 91, 
                            "dur": 15, 
                            "type": "note", 
                            "channel": 3
                        }
                    ]
                ], 
                [
                    72975, 
                    [
                        {
                            "pitch": 43, 
                            "t0": 72975, 
                            "v": 71, 
                            "dur": 15, 
                            "type": "note", 
                            "channel": 3
                        }
                    ]
                ], 
                [
                    73443, 
                    [
                        {
                            "pitch": 43, 
                            "t0": 73443, 
                            "v": 94, 
                            "dur": 15, 
                            "type": "note", 
                            "channel": 3
                        }
                    ]
                ], 
                [
                    73935, 
                    [
                        {
                            "pitch": 43, 
                            "t0": 73935, 
                            "v": 67, 
                            "dur": 15, 
                            "type": "note", 
                            "channel": 3
                        }
                    ]
                ], 
                [
                    74403, 
                    [
                        {
                            "pitch": 43, 
                            "t0": 74403, 
                            "v": 76, 
                            "dur": 15, 
                            "type": "note", 
                            "channel": 3
                        }
                    ]
                ], 
                [
                    74895, 
                    [
                        {
                            "pitch": 43, 
                            "t0": 74895, 
                            "v": 75, 
                            "dur": 15, 
                            "type": "note", 
                            "channel": 3
                        }
                    ]
                ], 
                [
                    75363, 
                    [
                        {
                            "pitch": 43, 
                            "t0": 75363, 
                            "v": 80, 
                            "dur": 15, 
                            "type": "note", 
                            "channel": 3
                        }
                    ]
                ], 
                [
                    75855, 
                    [
                        {
                            "pitch": 43, 
                            "t0": 75855, 
                            "v": 100, 
                            "dur": 15, 
                            "type": "note", 
                            "channel": 3
                        }
                    ]
                ], 
                [
                    76323, 
                    [
                        {
                            "pitch": 43, 
                            "t0": 76323, 
                            "v": 85, 
                            "dur": 15, 
                            "type": "note", 
                            "channel": 3
                        }
                    ]
                ], 
                [
                    76815, 
                    [
                        {
                            "pitch": 43, 
                            "t0": 76815, 
                            "v": 98, 
                            "dur": 15, 
                            "type": "note", 
                            "channel": 3
                        }
                    ]
                ], 
                [
                    77283, 
                    [
                        {
                            "pitch": 43, 
                            "t0": 77283, 
                            "v": 65, 
                            "dur": 15, 
                            "type": "note", 
                            "channel": 3
                        }
                    ]
                ], 
                [
                    77775, 
                    [
                        {
                            "pitch": 43, 
                            "t0": 77775, 
                            "v": 86, 
                            "dur": 15, 
                            "type": "note", 
                            "channel": 3
                        }
                    ]
                ], 
                [
                    78243, 
                    [
                        {
                            "pitch": 43, 
                            "t0": 78243, 
                            "v": 64, 
                            "dur": 15, 
                            "type": "note", 
                            "channel": 3
                        }
                    ]
                ], 
                [
                    78735, 
                    [
                        {
                            "pitch": 43, 
                            "t0": 78735, 
                            "v": 67, 
                            "dur": 15, 
                            "type": "note", 
                            "channel": 3
                        }
                    ]
                ], 
                [
                    79203, 
                    [
                        {
                            "pitch": 43, 
                            "t0": 79203, 
                            "v": 99, 
                            "dur": 15, 
                            "type": "note", 
                            "channel": 3
                        }
                    ]
                ], 
                [
                    79695, 
                    [
                        {
                            "pitch": 43, 
                            "t0": 79695, 
                            "v": 104, 
                            "dur": 15, 
                            "type": "note", 
                            "channel": 3
                        }
                    ]
                ], 
                [
                    80163, 
                    [
                        {
                            "pitch": 43, 
                            "t0": 80163, 
                            "v": 62, 
                            "dur": 15, 
                            "type": "note", 
                            "channel": 3
                        }
                    ]
                ], 
                [
                    80655, 
                    [
                        {
                            "pitch": 43, 
                            "t0": 80655, 
                            "v": 69, 
                            "dur": 15, 
                            "type": "note", 
                            "channel": 3
                        }
                    ]
                ], 
                [
                    81123, 
                    [
                        {
                            "pitch": 43, 
                            "t0": 81123, 
                            "v": 92, 
                            "dur": 15, 
                            "type": "note", 
                            "channel": 3
                        }
                    ]
                ], 
                [
                    81615, 
                    [
                        {
                            "pitch": 43, 
                            "t0": 81615, 
                            "v": 59, 
                            "dur": 15, 
                            "type": "note", 
                            "channel": 3
                        }
                    ]
                ], 
                [
                    82083, 
                    [
                        {
                            "pitch": 43, 
                            "t0": 82083, 
                            "v": 89, 
                            "dur": 15, 
                            "type": "note", 
                            "channel": 3
                        }
                    ]
                ], 
                [
                    82575, 
                    [
                        {
                            "pitch": 43, 
                            "t0": 82575, 
                            "v": 99, 
                            "dur": 15, 
                            "type": "note", 
                            "channel": 3
                        }
                    ]
                ], 
                [
                    83043, 
                    [
                        {
                            "pitch": 43, 
                            "t0": 83043, 
                            "v": 58, 
                            "dur": 15, 
                            "type": "note", 
                            "channel": 3
                        }
                    ]
                ], 
                [
                    83535, 
                    [
                        {
                            "pitch": 43, 
                            "t0": 83535, 
                            "v": 62, 
                            "dur": 15, 
                            "type": "note", 
                            "channel": 3
                        }
                    ]
                ], 
                [
                    84003, 
                    [
                        {
                            "pitch": 43, 
                            "t0": 84003, 
                            "v": 86, 
                            "dur": 15, 
                            "type": "note", 
                            "channel": 3
                        }
                    ]
                ], 
                [
                    84495, 
                    [
                        {
                            "pitch": 43, 
                            "t0": 84495, 
                            "v": 73, 
                            "dur": 15, 
                            "type": "note", 
                            "channel": 3
                        }
                    ]
                ], 
                [
                    84963, 
                    [
                        {
                            "pitch": 43, 
                            "t0": 84963, 
                            "v": 74, 
                            "dur": 15, 
                            "type": "note", 
                            "channel": 3
                        }
                    ]
                ], 
                [
                    85455, 
                    [
                        {
                            "pitch": 43, 
                            "t0": 85455, 
                            "v": 73, 
                            "dur": 15, 
                            "type": "note", 
                            "channel": 3
                        }
                    ]
                ], 
                [
                    85923, 
                    [
                        {
                            "pitch": 43, 
                            "t0": 85923, 
                            "v": 101, 
                            "dur": 15, 
                            "type": "note", 
                            "channel": 3
                        }
                    ]
                ], 
                [
                    86415, 
                    [
                        {
                            "pitch": 43, 
                            "t0": 86415, 
                            "v": 87, 
                            "dur": 15, 
                            "type": "note", 
                            "channel": 3
                        }
                    ]
                ], 
                [
                    86883, 
                    [
                        {
                            "pitch": 43, 
                            "t0": 86883, 
                            "v": 68, 
                            "dur": 15, 
                            "type": "note", 
                            "channel": 3
                        }
                    ]
                ], 
                [
                    87375, 
                    [
                        {
                            "pitch": 43, 
                            "t0": 87375, 
                            "v": 81, 
                            "dur": 15, 
                            "type": "note", 
                            "channel": 3
                        }
                    ]
                ], 
                [
                    87843, 
                    [
                        {
                            "pitch": 43, 
                            "t0": 87843, 
                            "v": 65, 
                            "dur": 15, 
                            "type": "note", 
                            "channel": 3
                        }
                    ]
                ], 
                [
                    88335, 
                    [
                        {
                            "pitch": 43, 
                            "t0": 88335, 
                            "v": 66, 
                            "dur": 15, 
                            "type": "note", 
                            "channel": 3
                        }
                    ]
                ], 
                [
                    88803, 
                    [
                        {
                            "pitch": 43, 
                            "t0": 88803, 
                            "v": 78, 
                            "dur": 15, 
                            "type": "note", 
                            "channel": 3
                        }
                    ]
                ], 
                [
                    89295, 
                    [
                        {
                            "pitch": 43, 
                            "t0": 89295, 
                            "v": 101, 
                            "dur": 15, 
                            "type": "note", 
                            "channel": 3
                        }
                    ]
                ], 
                [
                    89763, 
                    [
                        {
                            "pitch": 43, 
                            "t0": 89763, 
                            "v": 102, 
                            "dur": 15, 
                            "type": "note", 
                            "channel": 3
                        }
                    ]
                ], 
                [
                    90255, 
                    [
                        {
                            "pitch": 43, 
                            "t0": 90255, 
                            "v": 69, 
                            "dur": 15, 
                            "type": "note", 
                            "channel": 3
                        }
                    ]
                ], 
                [
                    90723, 
                    [
                        {
                            "pitch": 43, 
                            "t0": 90723, 
                            "v": 77, 
                            "dur": 15, 
                            "type": "note", 
                            "channel": 3
                        }
                    ]
                ], 
                [
                    91215, 
                    [
                        {
                            "pitch": 43, 
                            "t0": 91215, 
                            "v": 103, 
                            "dur": 15, 
                            "type": "note", 
                            "channel": 3
                        }
                    ]
                ], 
                [
                    91683, 
                    [
                        {
                            "pitch": 43, 
                            "t0": 91683, 
                            "v": 81, 
                            "dur": 15, 
                            "type": "note", 
                            "channel": 3
                        }
                    ]
                ], 
                [
                    92175, 
                    [
                        {
                            "pitch": 43, 
                            "t0": 92175, 
                            "v": 62, 
                            "dur": 15, 
                            "type": "note", 
                            "channel": 3
                        }
                    ]
                ], 
                [
                    92643, 
                    [
                        {
                            "pitch": 43, 
                            "t0": 92643, 
                            "v": 71, 
                            "dur": 15, 
                            "type": "note", 
                            "channel": 3
                        }
                    ]
                ], 
                [
                    93135, 
                    [
                        {
                            "pitch": 43, 
                            "t0": 93135, 
                            "v": 86, 
                            "dur": 15, 
                            "type": "note", 
                            "channel": 3
                        }
                    ]
                ], 
                [
                    93603, 
                    [
                        {
                            "pitch": 43, 
                            "t0": 93603, 
                            "v": 72, 
                            "dur": 15, 
                            "type": "note", 
                            "channel": 3
                        }
                    ]
                ], 
                [
                    94095, 
                    [
                        {
                            "pitch": 43, 
                            "t0": 94095, 
                            "v": 98, 
                            "dur": 15, 
                            "type": "note", 
                            "channel": 3
                        }
                    ]
                ], 
                [
                    94563, 
                    [
                        {
                            "pitch": 43, 
                            "t0": 94563, 
                            "v": 59, 
                            "dur": 15, 
                            "type": "note", 
                            "channel": 3
                        }
                    ]
                ], 
                [
                    95055, 
                    [
                        {
                            "pitch": 43, 
                            "t0": 95055, 
                            "v": 56, 
                            "dur": 15, 
                            "type": "note", 
                            "channel": 3
                        }
                    ]
                ], 
                [
                    95523, 
                    [
                        {
                            "pitch": 43, 
                            "t0": 95523, 
                            "v": 78, 
                            "dur": 15, 
                            "type": "note", 
                            "channel": 3
                        }
                    ]
                ], 
                [
                    96015, 
                    [
                        {
                            "pitch": 43, 
                            "t0": 96015, 
                            "v": 73, 
                            "dur": 15, 
                            "type": "note", 
                            "channel": 3
                        }
                    ]
                ], 
                [
                    96483, 
                    [
                        {
                            "pitch": 43, 
                            "t0": 96483, 
                            "v": 79, 
                            "dur": 15, 
                            "type": "note", 
                            "channel": 3
                        }
                    ]
                ], 
                [
                    96975, 
                    [
                        {
                            "pitch": 43, 
                            "t0": 96975, 
                            "v": 92, 
                            "dur": 15, 
                            "type": "note", 
                            "channel": 3
                        }
                    ]
                ], 
                [
                    97443, 
                    [
                        {
                            "pitch": 43, 
                            "t0": 97443, 
                            "v": 93, 
                            "dur": 15, 
                            "type": "note", 
                            "channel": 3
                        }
                    ]
                ], 
                [
                    97935, 
                    [
                        {
                            "pitch": 43, 
                            "t0": 97935, 
                            "v": 89, 
                            "dur": 15, 
                            "type": "note", 
                            "channel": 3
                        }
                    ]
                ], 
                [
                    98403, 
                    [
                        {
                            "pitch": 43, 
                            "t0": 98403, 
                            "v": 78, 
                            "dur": 15, 
                            "type": "note", 
                            "channel": 3
                        }
                    ]
                ], 
                [
                    98895, 
                    [
                        {
                            "pitch": 43, 
                            "t0": 98895, 
                            "v": 85, 
                            "dur": 15, 
                            "type": "note", 
                            "channel": 3
                        }
                    ]
                ], 
                [
                    99363, 
                    [
                        {
                            "pitch": 43, 
                            "t0": 99363, 
                            "v": 70, 
                            "dur": 15, 
                            "type": "note", 
                            "channel": 3
                        }
                    ]
                ], 
                [
                    99855, 
                    [
                        {
                            "pitch": 43, 
                            "t0": 99855, 
                            "v": 80, 
                            "dur": 15, 
                            "type": "note", 
                            "channel": 3
                        }
                    ]
                ], 
                [
                    100323, 
                    [
                        {
                            "pitch": 43, 
                            "t0": 100323, 
                            "v": 86, 
                            "dur": 15, 
                            "type": "note", 
                            "channel": 3
                        }
                    ]
                ], 
                [
                    100815, 
                    [
                        {
                            "pitch": 43, 
                            "t0": 100815, 
                            "v": 96, 
                            "dur": 15, 
                            "type": "note", 
                            "channel": 3
                        }
                    ]
                ], 
                [
                    101283, 
                    [
                        {
                            "pitch": 43, 
                            "t0": 101283, 
                            "v": 78, 
                            "dur": 15, 
                            "type": "note", 
                            "channel": 3
                        }
                    ]
                ], 
                [
                    101775, 
                    [
                        {
                            "pitch": 43, 
                            "t0": 101775, 
                            "v": 58, 
                            "dur": 15, 
                            "type": "note", 
                            "channel": 3
                        }
                    ]
                ], 
                [
                    102243, 
                    [
                        {
                            "pitch": 43, 
                            "t0": 102243, 
                            "v": 75, 
                            "dur": 15, 
                            "type": "note", 
                            "channel": 3
                        }
                    ]
                ], 
                [
                    102735, 
                    [
                        {
                            "pitch": 43, 
                            "t0": 102735, 
                            "v": 86, 
                            "dur": 15, 
                            "type": "note", 
                            "channel": 3
                        }
                    ]
                ], 
                [
                    103203, 
                    [
                        {
                            "pitch": 43, 
                            "t0": 103203, 
                            "v": 97, 
                            "dur": 15, 
                            "type": "note", 
                            "channel": 3
                        }
                    ]
                ], 
                [
                    103695, 
                    [
                        {
                            "pitch": 43, 
                            "t0": 103695, 
                            "v": 95, 
                            "dur": 15, 
                            "type": "note", 
                            "channel": 3
                        }
                    ]
                ], 
                [
                    104163, 
                    [
                        {
                            "pitch": 43, 
                            "t0": 104163, 
                            "v": 63, 
                            "dur": 15, 
                            "type": "note", 
                            "channel": 3
                        }
                    ]
                ], 
                [
                    104655, 
                    [
                        {
                            "pitch": 43, 
                            "t0": 104655, 
                            "v": 58, 
                            "dur": 15, 
                            "type": "note", 
                            "channel": 3
                        }
                    ]
                ], 
                [
                    105123, 
                    [
                        {
                            "pitch": 43, 
                            "t0": 105123, 
                            "v": 87, 
                            "dur": 15, 
                            "type": "note", 
                            "channel": 3
                        }
                    ]
                ], 
                [
                    105615, 
                    [
                        {
                            "pitch": 43, 
                            "t0": 105615, 
                            "v": 83, 
                            "dur": 15, 
                            "type": "note", 
                            "channel": 3
                        }
                    ]
                ], 
                [
                    106083, 
                    [
                        {
                            "pitch": 43, 
                            "t0": 106083, 
                            "v": 87, 
                            "dur": 15, 
                            "type": "note", 
                            "channel": 3
                        }
                    ]
                ], 
                [
                    106575, 
                    [
                        {
                            "pitch": 43, 
                            "t0": 106575, 
                            "v": 59, 
                            "dur": 15, 
                            "type": "note", 
                            "channel": 3
                        }
                    ]
                ], 
                [
                    107043, 
                    [
                        {
                            "pitch": 43, 
                            "t0": 107043, 
                            "v": 80, 
                            "dur": 15, 
                            "type": "note", 
                            "channel": 3
                        }
                    ]
                ], 
                [
                    107535, 
                    [
                        {
                            "pitch": 43, 
                            "t0": 107535, 
                            "v": 85, 
                            "dur": 15, 
                            "type": "note", 
                            "channel": 3
                        }
                    ]
                ], 
                [
                    108003, 
                    [
                        {
                            "pitch": 43, 
                            "t0": 108003, 
                            "v": 89, 
                            "dur": 15, 
                            "type": "note", 
                            "channel": 3
                        }
                    ]
                ], 
                [
                    108495, 
                    [
                        {
                            "pitch": 43, 
                            "t0": 108495, 
                            "v": 77, 
                            "dur": 15, 
                            "type": "note", 
                            "channel": 3
                        }
                    ]
                ], 
                [
                    108963, 
                    [
                        {
                            "pitch": 43, 
                            "t0": 108963, 
                            "v": 101, 
                            "dur": 15, 
                            "type": "note", 
                            "channel": 3
                        }
                    ]
                ], 
                [
                    109455, 
                    [
                        {
                            "pitch": 43, 
                            "t0": 109455, 
                            "v": 96, 
                            "dur": 15, 
                            "type": "note", 
                            "channel": 3
                        }
                    ]
                ], 
                [
                    109923, 
                    [
                        {
                            "pitch": 43, 
                            "t0": 109923, 
                            "v": 75, 
                            "dur": 15, 
                            "type": "note", 
                            "channel": 3
                        }
                    ]
                ], 
                [
                    110415, 
                    [
                        {
                            "pitch": 43, 
                            "t0": 110415, 
                            "v": 75, 
                            "dur": 15, 
                            "type": "note", 
                            "channel": 3
                        }
                    ]
                ], 
                [
                    110883, 
                    [
                        {
                            "pitch": 43, 
                            "t0": 110883, 
                            "v": 95, 
                            "dur": 15, 
                            "type": "note", 
                            "channel": 3
                        }
                    ]
                ], 
                [
                    111375, 
                    [
                        {
                            "pitch": 43, 
                            "t0": 111375, 
                            "v": 83, 
                            "dur": 15, 
                            "type": "note", 
                            "channel": 3
                        }
                    ]
                ], 
                [
                    111843, 
                    [
                        {
                            "pitch": 43, 
                            "t0": 111843, 
                            "v": 74, 
                            "dur": 15, 
                            "type": "note", 
                            "channel": 3
                        }
                    ]
                ], 
                [
                    112335, 
                    [
                        {
                            "pitch": 43, 
                            "t0": 112335, 
                            "v": 71, 
                            "dur": 15, 
                            "type": "note", 
                            "channel": 3
                        }
                    ]
                ], 
                [
                    112803, 
                    [
                        {
                            "pitch": 43, 
                            "t0": 112803, 
                            "v": 89, 
                            "dur": 15, 
                            "type": "note", 
                            "channel": 3
                        }
                    ]
                ], 
                [
                    113295, 
                    [
                        {
                            "pitch": 43, 
                            "t0": 113295, 
                            "v": 80, 
                            "dur": 15, 
                            "type": "note", 
                            "channel": 3
                        }
                    ]
                ], 
                [
                    113763, 
                    [
                        {
                            "pitch": 43, 
                            "t0": 113763, 
                            "v": 56, 
                            "dur": 15, 
                            "type": "note", 
                            "channel": 3
                        }
                    ]
                ], 
                [
                    114255, 
                    [
                        {
                            "pitch": 43, 
                            "t0": 114255, 
                            "v": 97, 
                            "dur": 15, 
                            "type": "note", 
                            "channel": 3
                        }
                    ]
                ], 
                [
                    114723, 
                    [
                        {
                            "pitch": 43, 
                            "t0": 114723, 
                            "v": 83, 
                            "dur": 15, 
                            "type": "note", 
                            "channel": 3
                        }
                    ]
                ], 
                [
                    115215, 
                    [
                        {
                            "pitch": 43, 
                            "t0": 115215, 
                            "v": 104, 
                            "dur": 15, 
                            "type": "note", 
                            "channel": 3
                        }
                    ]
                ], 
                [
                    115683, 
                    [
                        {
                            "pitch": 43, 
                            "t0": 115683, 
                            "v": 88, 
                            "dur": 15, 
                            "type": "note", 
                            "channel": 3
                        }
                    ]
                ], 
                [
                    116175, 
                    [
                        {
                            "pitch": 43, 
                            "t0": 116175, 
                            "v": 80, 
                            "dur": 15, 
                            "type": "note", 
                            "channel": 3
                        }
                    ]
                ], 
                [
                    116643, 
                    [
                        {
                            "pitch": 43, 
                            "t0": 116643, 
                            "v": 99, 
                            "dur": 15, 
                            "type": "note", 
                            "channel": 3
                        }
                    ]
                ], 
                [
                    117135, 
                    [
                        {
                            "pitch": 43, 
                            "t0": 117135, 
                            "v": 65, 
                            "dur": 15, 
                            "type": "note", 
                            "channel": 3
                        }
                    ]
                ], 
                [
                    117603, 
                    [
                        {
                            "pitch": 43, 
                            "t0": 117603, 
                            "v": 63, 
                            "dur": 15, 
                            "type": "note", 
                            "channel": 3
                        }
                    ]
                ], 
                [
                    118095, 
                    [
                        {
                            "pitch": 43, 
                            "t0": 118095, 
                            "v": 57, 
                            "dur": 15, 
                            "type": "note", 
                            "channel": 3
                        }
                    ]
                ], 
                [
                    118563, 
                    [
                        {
                            "pitch": 43, 
                            "t0": 118563, 
                            "v": 102, 
                            "dur": 15, 
                            "type": "note", 
                            "channel": 3
                        }
                    ]
                ], 
                [
                    119055, 
                    [
                        {
                            "pitch": 43, 
                            "t0": 119055, 
                            "v": 93, 
                            "dur": 15, 
                            "type": "note", 
                            "channel": 3
                        }
                    ]
                ], 
                [
                    119523, 
                    [
                        {
                            "pitch": 43, 
                            "t0": 119523, 
                            "v": 86, 
                            "dur": 15, 
                            "type": "note", 
                            "channel": 3
                        }
                    ]
                ], 
                [
                    120015, 
                    [
                        {
                            "pitch": 43, 
                            "t0": 120015, 
                            "v": 95, 
                            "dur": 15, 
                            "type": "note", 
                            "channel": 3
                        }
                    ]
                ], 
                [
                    120483, 
                    [
                        {
                            "pitch": 43, 
                            "t0": 120483, 
                            "v": 80, 
                            "dur": 15, 
                            "type": "note", 
                            "channel": 3
                        }
                    ]
                ], 
                [
                    120975, 
                    [
                        {
                            "pitch": 43, 
                            "t0": 120975, 
                            "v": 78, 
                            "dur": 15, 
                            "type": "note", 
                            "channel": 3
                        }
                    ]
                ], 
                [
                    121443, 
                    [
                        {
                            "pitch": 43, 
                            "t0": 121443, 
                            "v": 104, 
                            "dur": 15, 
                            "type": "note", 
                            "channel": 3
                        }
                    ]
                ], 
                [
                    121935, 
                    [
                        {
                            "pitch": 43, 
                            "t0": 121935, 
                            "v": 104, 
                            "dur": 15, 
                            "type": "note", 
                            "channel": 3
                        }
                    ]
                ], 
                [
                    122403, 
                    [
                        {
                            "pitch": 43, 
                            "t0": 122403, 
                            "v": 56, 
                            "dur": 15, 
                            "type": "note", 
                            "channel": 3
                        }
                    ]
                ], 
                [
                    122895, 
                    [
                        {
                            "pitch": 43, 
                            "t0": 122895, 
                            "v": 80, 
                            "dur": 15, 
                            "type": "note", 
                            "channel": 3
                        }
                    ]
                ], 
                [
                    123363, 
                    [
                        {
                            "pitch": 43, 
                            "t0": 123363, 
                            "v": 85, 
                            "dur": 15, 
                            "type": "note", 
                            "channel": 3
                        }
                    ]
                ], 
                [
                    123855, 
                    [
                        {
                            "pitch": 43, 
                            "t0": 123855, 
                            "v": 65, 
                            "dur": 15, 
                            "type": "note", 
                            "channel": 3
                        }
                    ]
                ], 
                [
                    124323, 
                    [
                        {
                            "pitch": 43, 
                            "t0": 124323, 
                            "v": 94, 
                            "dur": 15, 
                            "type": "note", 
                            "channel": 3
                        }
                    ]
                ], 
                [
                    124815, 
                    [
                        {
                            "pitch": 43, 
                            "t0": 124815, 
                            "v": 102, 
                            "dur": 15, 
                            "type": "note", 
                            "channel": 3
                        }
                    ]
                ], 
                [
                    125283, 
                    [
                        {
                            "pitch": 43, 
                            "t0": 125283, 
                            "v": 87, 
                            "dur": 15, 
                            "type": "note", 
                            "channel": 3
                        }
                    ]
                ], 
                [
                    125775, 
                    [
                        {
                            "pitch": 43, 
                            "t0": 125775, 
                            "v": 57, 
                            "dur": 15, 
                            "type": "note", 
                            "channel": 3
                        }
                    ]
                ], 
                [
                    126243, 
                    [
                        {
                            "pitch": 43, 
                            "t0": 126243, 
                            "v": 95, 
                            "dur": 15, 
                            "type": "note", 
                            "channel": 3
                        }
                    ]
                ], 
                [
                    126735, 
                    [
                        {
                            "pitch": 43, 
                            "t0": 126735, 
                            "v": 64, 
                            "dur": 15, 
                            "type": "note", 
                            "channel": 3
                        }
                    ]
                ], 
                [
                    127203, 
                    [
                        {
                            "pitch": 43, 
                            "t0": 127203, 
                            "v": 61, 
                            "dur": 15, 
                            "type": "note", 
                            "channel": 3
                        }
                    ]
                ], 
                [
                    127695, 
                    [
                        {
                            "pitch": 43, 
                            "t0": 127695, 
                            "v": 85, 
                            "dur": 15, 
                            "type": "note", 
                            "channel": 3
                        }
                    ]
                ], 
                [
                    128163, 
                    [
                        {
                            "pitch": 43, 
                            "t0": 128163, 
                            "v": 60, 
                            "dur": 15, 
                            "type": "note", 
                            "channel": 3
                        }
                    ]
                ], 
                [
                    128655, 
                    [
                        {
                            "pitch": 43, 
                            "t0": 128655, 
                            "v": 93, 
                            "dur": 15, 
                            "type": "note", 
                            "channel": 3
                        }
                    ]
                ], 
                [
                    129123, 
                    [
                        {
                            "pitch": 43, 
                            "t0": 129123, 
                            "v": 82, 
                            "dur": 15, 
                            "type": "note", 
                            "channel": 3
                        }
                    ]
                ], 
                [
                    129615, 
                    [
                        {
                            "pitch": 43, 
                            "t0": 129615, 
                            "v": 74, 
                            "dur": 15, 
                            "type": "note", 
                            "channel": 3
                        }
                    ]
                ], 
                [
                    130083, 
                    [
                        {
                            "pitch": 43, 
                            "t0": 130083, 
                            "v": 80, 
                            "dur": 15, 
                            "type": "note", 
                            "channel": 3
                        }
                    ]
                ]
            ], 
            "instruments": [
                116
            ], 
            "tMax": 130083, 
            "channels": [
                3
            ], 
            "instrument": 116, 
            "numNotes": 272, 
            "type": "TrackObj"
        }, 
        {
            "trackName": "Small Drums-Near Drums", 
            "seq": [
                [
                    0, 
                    [
                        {
                            "instrument": 32, 
                            "type": "programChange", 
                            "t0": 0, 
                            "channel": 9
                        }
                    ]
                ], 
                [
                    17, 
                    [
                        {
                            "instrument": 32, 
                            "type": "programChange", 
                            "t0": 17, 
                            "channel": 9
                        }, 
                        {
                            "pitch": 43, 
                            "t0": 17, 
                            "v": 68, 
                            "dur": 60, 
                            "type": "note", 
                            "channel": 9
                        }
                    ]
                ], 
                [
                    485, 
                    [
                        {
                            "pitch": 43, 
                            "t0": 485, 
                            "v": 72, 
                            "dur": 60, 
                            "type": "note", 
                            "channel": 9
                        }
                    ]
                ], 
                [
                    977, 
                    [
                        {
                            "pitch": 43, 
                            "t0": 977, 
                            "v": 62, 
                            "dur": 60, 
                            "type": "note", 
                            "channel": 9
                        }
                    ]
                ], 
                [
                    1445, 
                    [
                        {
                            "pitch": 43, 
                            "t0": 1445, 
                            "v": 104, 
                            "dur": 60, 
                            "type": "note", 
                            "channel": 9
                        }
                    ]
                ], 
                [
                    1937, 
                    [
                        {
                            "pitch": 43, 
                            "t0": 1937, 
                            "v": 58, 
                            "dur": 60, 
                            "type": "note", 
                            "channel": 9
                        }
                    ]
                ], 
                [
                    2405, 
                    [
                        {
                            "pitch": 43, 
                            "t0": 2405, 
                            "v": 103, 
                            "dur": 60, 
                            "type": "note", 
                            "channel": 9
                        }
                    ]
                ], 
                [
                    2897, 
                    [
                        {
                            "pitch": 43, 
                            "t0": 2897, 
                            "v": 70, 
                            "dur": 60, 
                            "type": "note", 
                            "channel": 9
                        }
                    ]
                ], 
                [
                    3365, 
                    [
                        {
                            "pitch": 43, 
                            "t0": 3365, 
                            "v": 95, 
                            "dur": 60, 
                            "type": "note", 
                            "channel": 9
                        }
                    ]
                ], 
                [
                    3857, 
                    [
                        {
                            "pitch": 43, 
                            "t0": 3857, 
                            "v": 66, 
                            "dur": 60, 
                            "type": "note", 
                            "channel": 9
                        }
                    ]
                ], 
                [
                    4325, 
                    [
                        {
                            "pitch": 43, 
                            "t0": 4325, 
                            "v": 103, 
                            "dur": 60, 
                            "type": "note", 
                            "channel": 9
                        }
                    ]
                ], 
                [
                    4817, 
                    [
                        {
                            "pitch": 43, 
                            "t0": 4817, 
                            "v": 64, 
                            "dur": 60, 
                            "type": "note", 
                            "channel": 9
                        }
                    ]
                ], 
                [
                    5285, 
                    [
                        {
                            "pitch": 43, 
                            "t0": 5285, 
                            "v": 93, 
                            "dur": 60, 
                            "type": "note", 
                            "channel": 9
                        }
                    ]
                ], 
                [
                    5777, 
                    [
                        {
                            "pitch": 43, 
                            "t0": 5777, 
                            "v": 75, 
                            "dur": 60, 
                            "type": "note", 
                            "channel": 9
                        }
                    ]
                ], 
                [
                    6245, 
                    [
                        {
                            "pitch": 43, 
                            "t0": 6245, 
                            "v": 80, 
                            "dur": 60, 
                            "type": "note", 
                            "channel": 9
                        }
                    ]
                ], 
                [
                    6737, 
                    [
                        {
                            "pitch": 43, 
                            "t0": 6737, 
                            "v": 83, 
                            "dur": 60, 
                            "type": "note", 
                            "channel": 9
                        }
                    ]
                ], 
                [
                    7205, 
                    [
                        {
                            "pitch": 43, 
                            "t0": 7205, 
                            "v": 92, 
                            "dur": 60, 
                            "type": "note", 
                            "channel": 9
                        }
                    ]
                ], 
                [
                    7697, 
                    [
                        {
                            "pitch": 43, 
                            "t0": 7697, 
                            "v": 70, 
                            "dur": 60, 
                            "type": "note", 
                            "channel": 9
                        }
                    ]
                ], 
                [
                    8165, 
                    [
                        {
                            "pitch": 43, 
                            "t0": 8165, 
                            "v": 104, 
                            "dur": 60, 
                            "type": "note", 
                            "channel": 9
                        }
                    ]
                ], 
                [
                    8657, 
                    [
                        {
                            "pitch": 43, 
                            "t0": 8657, 
                            "v": 95, 
                            "dur": 60, 
                            "type": "note", 
                            "channel": 9
                        }
                    ]
                ], 
                [
                    9125, 
                    [
                        {
                            "pitch": 43, 
                            "t0": 9125, 
                            "v": 77, 
                            "dur": 60, 
                            "type": "note", 
                            "channel": 9
                        }
                    ]
                ], 
                [
                    9617, 
                    [
                        {
                            "pitch": 43, 
                            "t0": 9617, 
                            "v": 93, 
                            "dur": 60, 
                            "type": "note", 
                            "channel": 9
                        }
                    ]
                ], 
                [
                    10085, 
                    [
                        {
                            "pitch": 43, 
                            "t0": 10085, 
                            "v": 76, 
                            "dur": 60, 
                            "type": "note", 
                            "channel": 9
                        }
                    ]
                ], 
                [
                    10577, 
                    [
                        {
                            "pitch": 43, 
                            "t0": 10577, 
                            "v": 91, 
                            "dur": 60, 
                            "type": "note", 
                            "channel": 9
                        }
                    ]
                ], 
                [
                    11045, 
                    [
                        {
                            "pitch": 43, 
                            "t0": 11045, 
                            "v": 103, 
                            "dur": 60, 
                            "type": "note", 
                            "channel": 9
                        }
                    ]
                ], 
                [
                    11537, 
                    [
                        {
                            "pitch": 43, 
                            "t0": 11537, 
                            "v": 69, 
                            "dur": 60, 
                            "type": "note", 
                            "channel": 9
                        }
                    ]
                ], 
                [
                    12005, 
                    [
                        {
                            "pitch": 43, 
                            "t0": 12005, 
                            "v": 87, 
                            "dur": 60, 
                            "type": "note", 
                            "channel": 9
                        }
                    ]
                ], 
                [
                    12497, 
                    [
                        {
                            "pitch": 43, 
                            "t0": 12497, 
                            "v": 81, 
                            "dur": 60, 
                            "type": "note", 
                            "channel": 9
                        }
                    ]
                ], 
                [
                    12965, 
                    [
                        {
                            "pitch": 43, 
                            "t0": 12965, 
                            "v": 92, 
                            "dur": 60, 
                            "type": "note", 
                            "channel": 9
                        }
                    ]
                ], 
                [
                    13457, 
                    [
                        {
                            "pitch": 43, 
                            "t0": 13457, 
                            "v": 62, 
                            "dur": 60, 
                            "type": "note", 
                            "channel": 9
                        }
                    ]
                ], 
                [
                    13925, 
                    [
                        {
                            "pitch": 43, 
                            "t0": 13925, 
                            "v": 68, 
                            "dur": 60, 
                            "type": "note", 
                            "channel": 9
                        }
                    ]
                ], 
                [
                    14417, 
                    [
                        {
                            "pitch": 43, 
                            "t0": 14417, 
                            "v": 56, 
                            "dur": 60, 
                            "type": "note", 
                            "channel": 9
                        }
                    ]
                ], 
                [
                    14885, 
                    [
                        {
                            "pitch": 43, 
                            "t0": 14885, 
                            "v": 101, 
                            "dur": 60, 
                            "type": "note", 
                            "channel": 9
                        }
                    ]
                ], 
                [
                    15377, 
                    [
                        {
                            "pitch": 43, 
                            "t0": 15377, 
                            "v": 101, 
                            "dur": 60, 
                            "type": "note", 
                            "channel": 9
                        }
                    ]
                ], 
                [
                    15845, 
                    [
                        {
                            "pitch": 43, 
                            "t0": 15845, 
                            "v": 92, 
                            "dur": 60, 
                            "type": "note", 
                            "channel": 9
                        }
                    ]
                ], 
                [
                    16337, 
                    [
                        {
                            "pitch": 43, 
                            "t0": 16337, 
                            "v": 101, 
                            "dur": 60, 
                            "type": "note", 
                            "channel": 9
                        }
                    ]
                ], 
                [
                    16805, 
                    [
                        {
                            "pitch": 43, 
                            "t0": 16805, 
                            "v": 96, 
                            "dur": 60, 
                            "type": "note", 
                            "channel": 9
                        }
                    ]
                ], 
                [
                    17297, 
                    [
                        {
                            "pitch": 43, 
                            "t0": 17297, 
                            "v": 71, 
                            "dur": 60, 
                            "type": "note", 
                            "channel": 9
                        }
                    ]
                ], 
                [
                    17765, 
                    [
                        {
                            "pitch": 43, 
                            "t0": 17765, 
                            "v": 94, 
                            "dur": 60, 
                            "type": "note", 
                            "channel": 9
                        }
                    ]
                ], 
                [
                    18257, 
                    [
                        {
                            "pitch": 43, 
                            "t0": 18257, 
                            "v": 97, 
                            "dur": 60, 
                            "type": "note", 
                            "channel": 9
                        }
                    ]
                ], 
                [
                    18725, 
                    [
                        {
                            "pitch": 43, 
                            "t0": 18725, 
                            "v": 59, 
                            "dur": 60, 
                            "type": "note", 
                            "channel": 9
                        }
                    ]
                ], 
                [
                    19217, 
                    [
                        {
                            "pitch": 43, 
                            "t0": 19217, 
                            "v": 64, 
                            "dur": 60, 
                            "type": "note", 
                            "channel": 9
                        }
                    ]
                ], 
                [
                    19685, 
                    [
                        {
                            "pitch": 43, 
                            "t0": 19685, 
                            "v": 61, 
                            "dur": 60, 
                            "type": "note", 
                            "channel": 9
                        }
                    ]
                ], 
                [
                    20177, 
                    [
                        {
                            "pitch": 43, 
                            "t0": 20177, 
                            "v": 60, 
                            "dur": 60, 
                            "type": "note", 
                            "channel": 9
                        }
                    ]
                ], 
                [
                    20645, 
                    [
                        {
                            "pitch": 43, 
                            "t0": 20645, 
                            "v": 81, 
                            "dur": 60, 
                            "type": "note", 
                            "channel": 9
                        }
                    ]
                ], 
                [
                    21137, 
                    [
                        {
                            "pitch": 43, 
                            "t0": 21137, 
                            "v": 92, 
                            "dur": 60, 
                            "type": "note", 
                            "channel": 9
                        }
                    ]
                ], 
                [
                    21605, 
                    [
                        {
                            "pitch": 43, 
                            "t0": 21605, 
                            "v": 88, 
                            "dur": 60, 
                            "type": "note", 
                            "channel": 9
                        }
                    ]
                ], 
                [
                    22097, 
                    [
                        {
                            "pitch": 43, 
                            "t0": 22097, 
                            "v": 62, 
                            "dur": 60, 
                            "type": "note", 
                            "channel": 9
                        }
                    ]
                ], 
                [
                    22565, 
                    [
                        {
                            "pitch": 43, 
                            "t0": 22565, 
                            "v": 88, 
                            "dur": 60, 
                            "type": "note", 
                            "channel": 9
                        }
                    ]
                ], 
                [
                    23057, 
                    [
                        {
                            "pitch": 43, 
                            "t0": 23057, 
                            "v": 68, 
                            "dur": 60, 
                            "type": "note", 
                            "channel": 9
                        }
                    ]
                ], 
                [
                    23525, 
                    [
                        {
                            "pitch": 43, 
                            "t0": 23525, 
                            "v": 90, 
                            "dur": 60, 
                            "type": "note", 
                            "channel": 9
                        }
                    ]
                ], 
                [
                    24017, 
                    [
                        {
                            "pitch": 43, 
                            "t0": 24017, 
                            "v": 80, 
                            "dur": 60, 
                            "type": "note", 
                            "channel": 9
                        }
                    ]
                ], 
                [
                    24485, 
                    [
                        {
                            "pitch": 43, 
                            "t0": 24485, 
                            "v": 85, 
                            "dur": 60, 
                            "type": "note", 
                            "channel": 9
                        }
                    ]
                ], 
                [
                    24977, 
                    [
                        {
                            "pitch": 43, 
                            "t0": 24977, 
                            "v": 84, 
                            "dur": 60, 
                            "type": "note", 
                            "channel": 9
                        }
                    ]
                ], 
                [
                    25445, 
                    [
                        {
                            "pitch": 43, 
                            "t0": 25445, 
                            "v": 56, 
                            "dur": 60, 
                            "type": "note", 
                            "channel": 9
                        }
                    ]
                ], 
                [
                    25937, 
                    [
                        {
                            "pitch": 43, 
                            "t0": 25937, 
                            "v": 84, 
                            "dur": 60, 
                            "type": "note", 
                            "channel": 9
                        }
                    ]
                ], 
                [
                    26405, 
                    [
                        {
                            "pitch": 43, 
                            "t0": 26405, 
                            "v": 72, 
                            "dur": 60, 
                            "type": "note", 
                            "channel": 9
                        }
                    ]
                ], 
                [
                    26897, 
                    [
                        {
                            "pitch": 43, 
                            "t0": 26897, 
                            "v": 90, 
                            "dur": 60, 
                            "type": "note", 
                            "channel": 9
                        }
                    ]
                ], 
                [
                    27365, 
                    [
                        {
                            "pitch": 43, 
                            "t0": 27365, 
                            "v": 87, 
                            "dur": 60, 
                            "type": "note", 
                            "channel": 9
                        }
                    ]
                ], 
                [
                    27857, 
                    [
                        {
                            "pitch": 43, 
                            "t0": 27857, 
                            "v": 78, 
                            "dur": 60, 
                            "type": "note", 
                            "channel": 9
                        }
                    ]
                ], 
                [
                    28325, 
                    [
                        {
                            "pitch": 43, 
                            "t0": 28325, 
                            "v": 63, 
                            "dur": 60, 
                            "type": "note", 
                            "channel": 9
                        }
                    ]
                ], 
                [
                    28817, 
                    [
                        {
                            "pitch": 43, 
                            "t0": 28817, 
                            "v": 96, 
                            "dur": 60, 
                            "type": "note", 
                            "channel": 9
                        }
                    ]
                ], 
                [
                    29285, 
                    [
                        {
                            "pitch": 43, 
                            "t0": 29285, 
                            "v": 59, 
                            "dur": 60, 
                            "type": "note", 
                            "channel": 9
                        }
                    ]
                ], 
                [
                    29777, 
                    [
                        {
                            "pitch": 43, 
                            "t0": 29777, 
                            "v": 80, 
                            "dur": 60, 
                            "type": "note", 
                            "channel": 9
                        }
                    ]
                ], 
                [
                    30245, 
                    [
                        {
                            "pitch": 43, 
                            "t0": 30245, 
                            "v": 78, 
                            "dur": 60, 
                            "type": "note", 
                            "channel": 9
                        }
                    ]
                ], 
                [
                    30737, 
                    [
                        {
                            "pitch": 43, 
                            "t0": 30737, 
                            "v": 57, 
                            "dur": 60, 
                            "type": "note", 
                            "channel": 9
                        }
                    ]
                ], 
                [
                    31205, 
                    [
                        {
                            "pitch": 43, 
                            "t0": 31205, 
                            "v": 101, 
                            "dur": 60, 
                            "type": "note", 
                            "channel": 9
                        }
                    ]
                ], 
                [
                    31697, 
                    [
                        {
                            "pitch": 43, 
                            "t0": 31697, 
                            "v": 85, 
                            "dur": 60, 
                            "type": "note", 
                            "channel": 9
                        }
                    ]
                ], 
                [
                    32165, 
                    [
                        {
                            "pitch": 43, 
                            "t0": 32165, 
                            "v": 64, 
                            "dur": 60, 
                            "type": "note", 
                            "channel": 9
                        }
                    ]
                ], 
                [
                    32657, 
                    [
                        {
                            "pitch": 43, 
                            "t0": 32657, 
                            "v": 75, 
                            "dur": 60, 
                            "type": "note", 
                            "channel": 9
                        }
                    ]
                ], 
                [
                    33125, 
                    [
                        {
                            "pitch": 43, 
                            "t0": 33125, 
                            "v": 63, 
                            "dur": 60, 
                            "type": "note", 
                            "channel": 9
                        }
                    ]
                ], 
                [
                    33617, 
                    [
                        {
                            "pitch": 43, 
                            "t0": 33617, 
                            "v": 79, 
                            "dur": 60, 
                            "type": "note", 
                            "channel": 9
                        }
                    ]
                ], 
                [
                    34085, 
                    [
                        {
                            "pitch": 43, 
                            "t0": 34085, 
                            "v": 65, 
                            "dur": 60, 
                            "type": "note", 
                            "channel": 9
                        }
                    ]
                ], 
                [
                    34577, 
                    [
                        {
                            "pitch": 43, 
                            "t0": 34577, 
                            "v": 103, 
                            "dur": 60, 
                            "type": "note", 
                            "channel": 9
                        }
                    ]
                ], 
                [
                    35045, 
                    [
                        {
                            "pitch": 43, 
                            "t0": 35045, 
                            "v": 58, 
                            "dur": 60, 
                            "type": "note", 
                            "channel": 9
                        }
                    ]
                ], 
                [
                    35537, 
                    [
                        {
                            "pitch": 43, 
                            "t0": 35537, 
                            "v": 97, 
                            "dur": 60, 
                            "type": "note", 
                            "channel": 9
                        }
                    ]
                ], 
                [
                    36005, 
                    [
                        {
                            "pitch": 43, 
                            "t0": 36005, 
                            "v": 70, 
                            "dur": 60, 
                            "type": "note", 
                            "channel": 9
                        }
                    ]
                ], 
                [
                    36497, 
                    [
                        {
                            "pitch": 43, 
                            "t0": 36497, 
                            "v": 88, 
                            "dur": 60, 
                            "type": "note", 
                            "channel": 9
                        }
                    ]
                ], 
                [
                    36965, 
                    [
                        {
                            "pitch": 43, 
                            "t0": 36965, 
                            "v": 97, 
                            "dur": 60, 
                            "type": "note", 
                            "channel": 9
                        }
                    ]
                ], 
                [
                    37457, 
                    [
                        {
                            "pitch": 43, 
                            "t0": 37457, 
                            "v": 65, 
                            "dur": 60, 
                            "type": "note", 
                            "channel": 9
                        }
                    ]
                ], 
                [
                    37925, 
                    [
                        {
                            "pitch": 43, 
                            "t0": 37925, 
                            "v": 97, 
                            "dur": 60, 
                            "type": "note", 
                            "channel": 9
                        }
                    ]
                ], 
                [
                    38417, 
                    [
                        {
                            "pitch": 43, 
                            "t0": 38417, 
                            "v": 91, 
                            "dur": 60, 
                            "type": "note", 
                            "channel": 9
                        }
                    ]
                ], 
                [
                    38885, 
                    [
                        {
                            "pitch": 43, 
                            "t0": 38885, 
                            "v": 63, 
                            "dur": 60, 
                            "type": "note", 
                            "channel": 9
                        }
                    ]
                ], 
                [
                    39377, 
                    [
                        {
                            "pitch": 43, 
                            "t0": 39377, 
                            "v": 100, 
                            "dur": 60, 
                            "type": "note", 
                            "channel": 9
                        }
                    ]
                ], 
                [
                    39845, 
                    [
                        {
                            "pitch": 43, 
                            "t0": 39845, 
                            "v": 104, 
                            "dur": 60, 
                            "type": "note", 
                            "channel": 9
                        }
                    ]
                ], 
                [
                    40337, 
                    [
                        {
                            "pitch": 43, 
                            "t0": 40337, 
                            "v": 67, 
                            "dur": 60, 
                            "type": "note", 
                            "channel": 9
                        }
                    ]
                ], 
                [
                    40805, 
                    [
                        {
                            "pitch": 43, 
                            "t0": 40805, 
                            "v": 98, 
                            "dur": 60, 
                            "type": "note", 
                            "channel": 9
                        }
                    ]
                ], 
                [
                    41297, 
                    [
                        {
                            "pitch": 43, 
                            "t0": 41297, 
                            "v": 80, 
                            "dur": 60, 
                            "type": "note", 
                            "channel": 9
                        }
                    ]
                ], 
                [
                    41765, 
                    [
                        {
                            "pitch": 43, 
                            "t0": 41765, 
                            "v": 93, 
                            "dur": 60, 
                            "type": "note", 
                            "channel": 9
                        }
                    ]
                ], 
                [
                    42257, 
                    [
                        {
                            "pitch": 43, 
                            "t0": 42257, 
                            "v": 96, 
                            "dur": 60, 
                            "type": "note", 
                            "channel": 9
                        }
                    ]
                ], 
                [
                    42725, 
                    [
                        {
                            "pitch": 43, 
                            "t0": 42725, 
                            "v": 82, 
                            "dur": 60, 
                            "type": "note", 
                            "channel": 9
                        }
                    ]
                ], 
                [
                    43217, 
                    [
                        {
                            "pitch": 43, 
                            "t0": 43217, 
                            "v": 100, 
                            "dur": 60, 
                            "type": "note", 
                            "channel": 9
                        }
                    ]
                ], 
                [
                    43685, 
                    [
                        {
                            "pitch": 43, 
                            "t0": 43685, 
                            "v": 94, 
                            "dur": 60, 
                            "type": "note", 
                            "channel": 9
                        }
                    ]
                ], 
                [
                    44177, 
                    [
                        {
                            "pitch": 43, 
                            "t0": 44177, 
                            "v": 67, 
                            "dur": 60, 
                            "type": "note", 
                            "channel": 9
                        }
                    ]
                ], 
                [
                    44645, 
                    [
                        {
                            "pitch": 43, 
                            "t0": 44645, 
                            "v": 97, 
                            "dur": 60, 
                            "type": "note", 
                            "channel": 9
                        }
                    ]
                ], 
                [
                    45137, 
                    [
                        {
                            "pitch": 43, 
                            "t0": 45137, 
                            "v": 87, 
                            "dur": 60, 
                            "type": "note", 
                            "channel": 9
                        }
                    ]
                ], 
                [
                    45605, 
                    [
                        {
                            "pitch": 43, 
                            "t0": 45605, 
                            "v": 76, 
                            "dur": 60, 
                            "type": "note", 
                            "channel": 9
                        }
                    ]
                ], 
                [
                    46097, 
                    [
                        {
                            "pitch": 43, 
                            "t0": 46097, 
                            "v": 93, 
                            "dur": 60, 
                            "type": "note", 
                            "channel": 9
                        }
                    ]
                ], 
                [
                    46565, 
                    [
                        {
                            "pitch": 43, 
                            "t0": 46565, 
                            "v": 83, 
                            "dur": 60, 
                            "type": "note", 
                            "channel": 9
                        }
                    ]
                ], 
                [
                    47057, 
                    [
                        {
                            "pitch": 43, 
                            "t0": 47057, 
                            "v": 78, 
                            "dur": 60, 
                            "type": "note", 
                            "channel": 9
                        }
                    ]
                ], 
                [
                    47525, 
                    [
                        {
                            "pitch": 43, 
                            "t0": 47525, 
                            "v": 77, 
                            "dur": 60, 
                            "type": "note", 
                            "channel": 9
                        }
                    ]
                ], 
                [
                    48017, 
                    [
                        {
                            "pitch": 43, 
                            "t0": 48017, 
                            "v": 56, 
                            "dur": 60, 
                            "type": "note", 
                            "channel": 9
                        }
                    ]
                ], 
                [
                    48485, 
                    [
                        {
                            "pitch": 43, 
                            "t0": 48485, 
                            "v": 88, 
                            "dur": 60, 
                            "type": "note", 
                            "channel": 9
                        }
                    ]
                ], 
                [
                    48977, 
                    [
                        {
                            "pitch": 43, 
                            "t0": 48977, 
                            "v": 86, 
                            "dur": 60, 
                            "type": "note", 
                            "channel": 9
                        }
                    ]
                ], 
                [
                    49445, 
                    [
                        {
                            "pitch": 43, 
                            "t0": 49445, 
                            "v": 95, 
                            "dur": 60, 
                            "type": "note", 
                            "channel": 9
                        }
                    ]
                ], 
                [
                    49937, 
                    [
                        {
                            "pitch": 43, 
                            "t0": 49937, 
                            "v": 80, 
                            "dur": 60, 
                            "type": "note", 
                            "channel": 9
                        }
                    ]
                ], 
                [
                    50405, 
                    [
                        {
                            "pitch": 43, 
                            "t0": 50405, 
                            "v": 96, 
                            "dur": 60, 
                            "type": "note", 
                            "channel": 9
                        }
                    ]
                ], 
                [
                    50897, 
                    [
                        {
                            "pitch": 43, 
                            "t0": 50897, 
                            "v": 93, 
                            "dur": 60, 
                            "type": "note", 
                            "channel": 9
                        }
                    ]
                ], 
                [
                    51365, 
                    [
                        {
                            "pitch": 43, 
                            "t0": 51365, 
                            "v": 95, 
                            "dur": 60, 
                            "type": "note", 
                            "channel": 9
                        }
                    ]
                ], 
                [
                    51857, 
                    [
                        {
                            "pitch": 43, 
                            "t0": 51857, 
                            "v": 61, 
                            "dur": 60, 
                            "type": "note", 
                            "channel": 9
                        }
                    ]
                ], 
                [
                    52325, 
                    [
                        {
                            "pitch": 43, 
                            "t0": 52325, 
                            "v": 102, 
                            "dur": 60, 
                            "type": "note", 
                            "channel": 9
                        }
                    ]
                ], 
                [
                    52817, 
                    [
                        {
                            "pitch": 43, 
                            "t0": 52817, 
                            "v": 98, 
                            "dur": 60, 
                            "type": "note", 
                            "channel": 9
                        }
                    ]
                ], 
                [
                    53285, 
                    [
                        {
                            "pitch": 43, 
                            "t0": 53285, 
                            "v": 100, 
                            "dur": 60, 
                            "type": "note", 
                            "channel": 9
                        }
                    ]
                ], 
                [
                    53777, 
                    [
                        {
                            "pitch": 43, 
                            "t0": 53777, 
                            "v": 60, 
                            "dur": 60, 
                            "type": "note", 
                            "channel": 9
                        }
                    ]
                ], 
                [
                    54245, 
                    [
                        {
                            "pitch": 43, 
                            "t0": 54245, 
                            "v": 82, 
                            "dur": 60, 
                            "type": "note", 
                            "channel": 9
                        }
                    ]
                ], 
                [
                    54737, 
                    [
                        {
                            "pitch": 43, 
                            "t0": 54737, 
                            "v": 99, 
                            "dur": 60, 
                            "type": "note", 
                            "channel": 9
                        }
                    ]
                ], 
                [
                    55205, 
                    [
                        {
                            "pitch": 43, 
                            "t0": 55205, 
                            "v": 85, 
                            "dur": 60, 
                            "type": "note", 
                            "channel": 9
                        }
                    ]
                ], 
                [
                    55697, 
                    [
                        {
                            "pitch": 43, 
                            "t0": 55697, 
                            "v": 58, 
                            "dur": 60, 
                            "type": "note", 
                            "channel": 9
                        }
                    ]
                ], 
                [
                    56165, 
                    [
                        {
                            "pitch": 43, 
                            "t0": 56165, 
                            "v": 69, 
                            "dur": 60, 
                            "type": "note", 
                            "channel": 9
                        }
                    ]
                ], 
                [
                    56657, 
                    [
                        {
                            "pitch": 43, 
                            "t0": 56657, 
                            "v": 67, 
                            "dur": 60, 
                            "type": "note", 
                            "channel": 9
                        }
                    ]
                ], 
                [
                    57125, 
                    [
                        {
                            "pitch": 43, 
                            "t0": 57125, 
                            "v": 100, 
                            "dur": 60, 
                            "type": "note", 
                            "channel": 9
                        }
                    ]
                ], 
                [
                    57617, 
                    [
                        {
                            "pitch": 43, 
                            "t0": 57617, 
                            "v": 90, 
                            "dur": 60, 
                            "type": "note", 
                            "channel": 9
                        }
                    ]
                ], 
                [
                    58085, 
                    [
                        {
                            "pitch": 43, 
                            "t0": 58085, 
                            "v": 103, 
                            "dur": 60, 
                            "type": "note", 
                            "channel": 9
                        }
                    ]
                ], 
                [
                    58577, 
                    [
                        {
                            "pitch": 43, 
                            "t0": 58577, 
                            "v": 102, 
                            "dur": 60, 
                            "type": "note", 
                            "channel": 9
                        }
                    ]
                ], 
                [
                    59045, 
                    [
                        {
                            "pitch": 43, 
                            "t0": 59045, 
                            "v": 69, 
                            "dur": 60, 
                            "type": "note", 
                            "channel": 9
                        }
                    ]
                ], 
                [
                    59537, 
                    [
                        {
                            "pitch": 43, 
                            "t0": 59537, 
                            "v": 90, 
                            "dur": 60, 
                            "type": "note", 
                            "channel": 9
                        }
                    ]
                ], 
                [
                    60005, 
                    [
                        {
                            "pitch": 43, 
                            "t0": 60005, 
                            "v": 87, 
                            "dur": 60, 
                            "type": "note", 
                            "channel": 9
                        }
                    ]
                ], 
                [
                    60497, 
                    [
                        {
                            "pitch": 43, 
                            "t0": 60497, 
                            "v": 57, 
                            "dur": 60, 
                            "type": "note", 
                            "channel": 9
                        }
                    ]
                ], 
                [
                    60965, 
                    [
                        {
                            "pitch": 43, 
                            "t0": 60965, 
                            "v": 79, 
                            "dur": 60, 
                            "type": "note", 
                            "channel": 9
                        }
                    ]
                ], 
                [
                    61457, 
                    [
                        {
                            "pitch": 43, 
                            "t0": 61457, 
                            "v": 100, 
                            "dur": 60, 
                            "type": "note", 
                            "channel": 9
                        }
                    ]
                ], 
                [
                    61925, 
                    [
                        {
                            "pitch": 43, 
                            "t0": 61925, 
                            "v": 69, 
                            "dur": 60, 
                            "type": "note", 
                            "channel": 9
                        }
                    ]
                ], 
                [
                    62417, 
                    [
                        {
                            "pitch": 43, 
                            "t0": 62417, 
                            "v": 86, 
                            "dur": 60, 
                            "type": "note", 
                            "channel": 9
                        }
                    ]
                ], 
                [
                    62885, 
                    [
                        {
                            "pitch": 43, 
                            "t0": 62885, 
                            "v": 74, 
                            "dur": 60, 
                            "type": "note", 
                            "channel": 9
                        }
                    ]
                ], 
                [
                    63377, 
                    [
                        {
                            "pitch": 43, 
                            "t0": 63377, 
                            "v": 71, 
                            "dur": 60, 
                            "type": "note", 
                            "channel": 9
                        }
                    ]
                ], 
                [
                    63845, 
                    [
                        {
                            "pitch": 43, 
                            "t0": 63845, 
                            "v": 101, 
                            "dur": 60, 
                            "type": "note", 
                            "channel": 9
                        }
                    ]
                ], 
                [
                    64337, 
                    [
                        {
                            "pitch": 43, 
                            "t0": 64337, 
                            "v": 97, 
                            "dur": 60, 
                            "type": "note", 
                            "channel": 9
                        }
                    ]
                ], 
                [
                    64805, 
                    [
                        {
                            "pitch": 43, 
                            "t0": 64805, 
                            "v": 80, 
                            "dur": 60, 
                            "type": "note", 
                            "channel": 9
                        }
                    ]
                ], 
                [
                    65297, 
                    [
                        {
                            "pitch": 43, 
                            "t0": 65297, 
                            "v": 78, 
                            "dur": 60, 
                            "type": "note", 
                            "channel": 9
                        }
                    ]
                ], 
                [
                    65765, 
                    [
                        {
                            "pitch": 43, 
                            "t0": 65765, 
                            "v": 87, 
                            "dur": 60, 
                            "type": "note", 
                            "channel": 9
                        }
                    ]
                ], 
                [
                    66257, 
                    [
                        {
                            "pitch": 43, 
                            "t0": 66257, 
                            "v": 82, 
                            "dur": 60, 
                            "type": "note", 
                            "channel": 9
                        }
                    ]
                ], 
                [
                    66725, 
                    [
                        {
                            "pitch": 43, 
                            "t0": 66725, 
                            "v": 65, 
                            "dur": 60, 
                            "type": "note", 
                            "channel": 9
                        }
                    ]
                ], 
                [
                    67217, 
                    [
                        {
                            "pitch": 43, 
                            "t0": 67217, 
                            "v": 63, 
                            "dur": 60, 
                            "type": "note", 
                            "channel": 9
                        }
                    ]
                ], 
                [
                    67685, 
                    [
                        {
                            "pitch": 43, 
                            "t0": 67685, 
                            "v": 92, 
                            "dur": 60, 
                            "type": "note", 
                            "channel": 9
                        }
                    ]
                ], 
                [
                    68177, 
                    [
                        {
                            "pitch": 43, 
                            "t0": 68177, 
                            "v": 97, 
                            "dur": 60, 
                            "type": "note", 
                            "channel": 9
                        }
                    ]
                ], 
                [
                    68645, 
                    [
                        {
                            "pitch": 43, 
                            "t0": 68645, 
                            "v": 74, 
                            "dur": 60, 
                            "type": "note", 
                            "channel": 9
                        }
                    ]
                ], 
                [
                    69137, 
                    [
                        {
                            "pitch": 43, 
                            "t0": 69137, 
                            "v": 80, 
                            "dur": 60, 
                            "type": "note", 
                            "channel": 9
                        }
                    ]
                ], 
                [
                    69605, 
                    [
                        {
                            "pitch": 43, 
                            "t0": 69605, 
                            "v": 80, 
                            "dur": 60, 
                            "type": "note", 
                            "channel": 9
                        }
                    ]
                ], 
                [
                    70097, 
                    [
                        {
                            "pitch": 43, 
                            "t0": 70097, 
                            "v": 72, 
                            "dur": 60, 
                            "type": "note", 
                            "channel": 9
                        }
                    ]
                ], 
                [
                    70565, 
                    [
                        {
                            "pitch": 43, 
                            "t0": 70565, 
                            "v": 63, 
                            "dur": 60, 
                            "type": "note", 
                            "channel": 9
                        }
                    ]
                ], 
                [
                    71057, 
                    [
                        {
                            "pitch": 43, 
                            "t0": 71057, 
                            "v": 58, 
                            "dur": 60, 
                            "type": "note", 
                            "channel": 9
                        }
                    ]
                ], 
                [
                    71525, 
                    [
                        {
                            "pitch": 43, 
                            "t0": 71525, 
                            "v": 104, 
                            "dur": 60, 
                            "type": "note", 
                            "channel": 9
                        }
                    ]
                ], 
                [
                    72017, 
                    [
                        {
                            "pitch": 43, 
                            "t0": 72017, 
                            "v": 56, 
                            "dur": 60, 
                            "type": "note", 
                            "channel": 9
                        }
                    ]
                ], 
                [
                    72485, 
                    [
                        {
                            "pitch": 43, 
                            "t0": 72485, 
                            "v": 91, 
                            "dur": 60, 
                            "type": "note", 
                            "channel": 9
                        }
                    ]
                ], 
                [
                    72977, 
                    [
                        {
                            "pitch": 43, 
                            "t0": 72977, 
                            "v": 71, 
                            "dur": 60, 
                            "type": "note", 
                            "channel": 9
                        }
                    ]
                ], 
                [
                    73445, 
                    [
                        {
                            "pitch": 43, 
                            "t0": 73445, 
                            "v": 94, 
                            "dur": 60, 
                            "type": "note", 
                            "channel": 9
                        }
                    ]
                ], 
                [
                    73937, 
                    [
                        {
                            "pitch": 43, 
                            "t0": 73937, 
                            "v": 67, 
                            "dur": 60, 
                            "type": "note", 
                            "channel": 9
                        }
                    ]
                ], 
                [
                    74405, 
                    [
                        {
                            "pitch": 43, 
                            "t0": 74405, 
                            "v": 76, 
                            "dur": 60, 
                            "type": "note", 
                            "channel": 9
                        }
                    ]
                ], 
                [
                    74897, 
                    [
                        {
                            "pitch": 43, 
                            "t0": 74897, 
                            "v": 75, 
                            "dur": 60, 
                            "type": "note", 
                            "channel": 9
                        }
                    ]
                ], 
                [
                    75365, 
                    [
                        {
                            "pitch": 43, 
                            "t0": 75365, 
                            "v": 80, 
                            "dur": 60, 
                            "type": "note", 
                            "channel": 9
                        }
                    ]
                ], 
                [
                    75857, 
                    [
                        {
                            "pitch": 43, 
                            "t0": 75857, 
                            "v": 100, 
                            "dur": 60, 
                            "type": "note", 
                            "channel": 9
                        }
                    ]
                ], 
                [
                    76325, 
                    [
                        {
                            "pitch": 43, 
                            "t0": 76325, 
                            "v": 85, 
                            "dur": 60, 
                            "type": "note", 
                            "channel": 9
                        }
                    ]
                ], 
                [
                    76817, 
                    [
                        {
                            "pitch": 43, 
                            "t0": 76817, 
                            "v": 98, 
                            "dur": 60, 
                            "type": "note", 
                            "channel": 9
                        }
                    ]
                ], 
                [
                    77285, 
                    [
                        {
                            "pitch": 43, 
                            "t0": 77285, 
                            "v": 65, 
                            "dur": 60, 
                            "type": "note", 
                            "channel": 9
                        }
                    ]
                ], 
                [
                    77777, 
                    [
                        {
                            "pitch": 43, 
                            "t0": 77777, 
                            "v": 86, 
                            "dur": 60, 
                            "type": "note", 
                            "channel": 9
                        }
                    ]
                ], 
                [
                    78245, 
                    [
                        {
                            "pitch": 43, 
                            "t0": 78245, 
                            "v": 64, 
                            "dur": 60, 
                            "type": "note", 
                            "channel": 9
                        }
                    ]
                ], 
                [
                    78737, 
                    [
                        {
                            "pitch": 43, 
                            "t0": 78737, 
                            "v": 67, 
                            "dur": 60, 
                            "type": "note", 
                            "channel": 9
                        }
                    ]
                ], 
                [
                    79205, 
                    [
                        {
                            "pitch": 43, 
                            "t0": 79205, 
                            "v": 99, 
                            "dur": 60, 
                            "type": "note", 
                            "channel": 9
                        }
                    ]
                ], 
                [
                    79697, 
                    [
                        {
                            "pitch": 43, 
                            "t0": 79697, 
                            "v": 104, 
                            "dur": 60, 
                            "type": "note", 
                            "channel": 9
                        }
                    ]
                ], 
                [
                    80165, 
                    [
                        {
                            "pitch": 43, 
                            "t0": 80165, 
                            "v": 62, 
                            "dur": 60, 
                            "type": "note", 
                            "channel": 9
                        }
                    ]
                ], 
                [
                    80657, 
                    [
                        {
                            "pitch": 43, 
                            "t0": 80657, 
                            "v": 69, 
                            "dur": 60, 
                            "type": "note", 
                            "channel": 9
                        }
                    ]
                ], 
                [
                    81125, 
                    [
                        {
                            "pitch": 43, 
                            "t0": 81125, 
                            "v": 92, 
                            "dur": 60, 
                            "type": "note", 
                            "channel": 9
                        }
                    ]
                ], 
                [
                    81617, 
                    [
                        {
                            "pitch": 43, 
                            "t0": 81617, 
                            "v": 59, 
                            "dur": 60, 
                            "type": "note", 
                            "channel": 9
                        }
                    ]
                ], 
                [
                    82085, 
                    [
                        {
                            "pitch": 43, 
                            "t0": 82085, 
                            "v": 89, 
                            "dur": 60, 
                            "type": "note", 
                            "channel": 9
                        }
                    ]
                ], 
                [
                    82577, 
                    [
                        {
                            "pitch": 43, 
                            "t0": 82577, 
                            "v": 99, 
                            "dur": 60, 
                            "type": "note", 
                            "channel": 9
                        }
                    ]
                ], 
                [
                    83045, 
                    [
                        {
                            "pitch": 43, 
                            "t0": 83045, 
                            "v": 58, 
                            "dur": 60, 
                            "type": "note", 
                            "channel": 9
                        }
                    ]
                ], 
                [
                    83537, 
                    [
                        {
                            "pitch": 43, 
                            "t0": 83537, 
                            "v": 62, 
                            "dur": 60, 
                            "type": "note", 
                            "channel": 9
                        }
                    ]
                ], 
                [
                    84005, 
                    [
                        {
                            "pitch": 43, 
                            "t0": 84005, 
                            "v": 86, 
                            "dur": 60, 
                            "type": "note", 
                            "channel": 9
                        }
                    ]
                ], 
                [
                    84497, 
                    [
                        {
                            "pitch": 43, 
                            "t0": 84497, 
                            "v": 73, 
                            "dur": 60, 
                            "type": "note", 
                            "channel": 9
                        }
                    ]
                ], 
                [
                    84965, 
                    [
                        {
                            "pitch": 43, 
                            "t0": 84965, 
                            "v": 74, 
                            "dur": 60, 
                            "type": "note", 
                            "channel": 9
                        }
                    ]
                ], 
                [
                    85457, 
                    [
                        {
                            "pitch": 43, 
                            "t0": 85457, 
                            "v": 73, 
                            "dur": 60, 
                            "type": "note", 
                            "channel": 9
                        }
                    ]
                ], 
                [
                    85925, 
                    [
                        {
                            "pitch": 43, 
                            "t0": 85925, 
                            "v": 101, 
                            "dur": 60, 
                            "type": "note", 
                            "channel": 9
                        }
                    ]
                ], 
                [
                    86417, 
                    [
                        {
                            "pitch": 43, 
                            "t0": 86417, 
                            "v": 87, 
                            "dur": 60, 
                            "type": "note", 
                            "channel": 9
                        }
                    ]
                ], 
                [
                    86885, 
                    [
                        {
                            "pitch": 43, 
                            "t0": 86885, 
                            "v": 68, 
                            "dur": 60, 
                            "type": "note", 
                            "channel": 9
                        }
                    ]
                ], 
                [
                    87377, 
                    [
                        {
                            "pitch": 43, 
                            "t0": 87377, 
                            "v": 81, 
                            "dur": 60, 
                            "type": "note", 
                            "channel": 9
                        }
                    ]
                ], 
                [
                    87845, 
                    [
                        {
                            "pitch": 43, 
                            "t0": 87845, 
                            "v": 65, 
                            "dur": 60, 
                            "type": "note", 
                            "channel": 9
                        }
                    ]
                ], 
                [
                    88337, 
                    [
                        {
                            "pitch": 43, 
                            "t0": 88337, 
                            "v": 66, 
                            "dur": 60, 
                            "type": "note", 
                            "channel": 9
                        }
                    ]
                ], 
                [
                    88805, 
                    [
                        {
                            "pitch": 43, 
                            "t0": 88805, 
                            "v": 78, 
                            "dur": 60, 
                            "type": "note", 
                            "channel": 9
                        }
                    ]
                ], 
                [
                    89297, 
                    [
                        {
                            "pitch": 43, 
                            "t0": 89297, 
                            "v": 101, 
                            "dur": 60, 
                            "type": "note", 
                            "channel": 9
                        }
                    ]
                ], 
                [
                    89765, 
                    [
                        {
                            "pitch": 43, 
                            "t0": 89765, 
                            "v": 102, 
                            "dur": 60, 
                            "type": "note", 
                            "channel": 9
                        }
                    ]
                ], 
                [
                    90257, 
                    [
                        {
                            "pitch": 43, 
                            "t0": 90257, 
                            "v": 69, 
                            "dur": 60, 
                            "type": "note", 
                            "channel": 9
                        }
                    ]
                ], 
                [
                    90725, 
                    [
                        {
                            "pitch": 43, 
                            "t0": 90725, 
                            "v": 77, 
                            "dur": 60, 
                            "type": "note", 
                            "channel": 9
                        }
                    ]
                ], 
                [
                    91217, 
                    [
                        {
                            "pitch": 43, 
                            "t0": 91217, 
                            "v": 103, 
                            "dur": 60, 
                            "type": "note", 
                            "channel": 9
                        }
                    ]
                ], 
                [
                    91685, 
                    [
                        {
                            "pitch": 43, 
                            "t0": 91685, 
                            "v": 81, 
                            "dur": 60, 
                            "type": "note", 
                            "channel": 9
                        }
                    ]
                ], 
                [
                    92177, 
                    [
                        {
                            "pitch": 43, 
                            "t0": 92177, 
                            "v": 62, 
                            "dur": 60, 
                            "type": "note", 
                            "channel": 9
                        }
                    ]
                ], 
                [
                    92645, 
                    [
                        {
                            "pitch": 43, 
                            "t0": 92645, 
                            "v": 71, 
                            "dur": 60, 
                            "type": "note", 
                            "channel": 9
                        }
                    ]
                ], 
                [
                    93137, 
                    [
                        {
                            "pitch": 43, 
                            "t0": 93137, 
                            "v": 86, 
                            "dur": 60, 
                            "type": "note", 
                            "channel": 9
                        }
                    ]
                ], 
                [
                    93605, 
                    [
                        {
                            "pitch": 43, 
                            "t0": 93605, 
                            "v": 72, 
                            "dur": 60, 
                            "type": "note", 
                            "channel": 9
                        }
                    ]
                ], 
                [
                    94097, 
                    [
                        {
                            "pitch": 43, 
                            "t0": 94097, 
                            "v": 98, 
                            "dur": 60, 
                            "type": "note", 
                            "channel": 9
                        }
                    ]
                ], 
                [
                    94565, 
                    [
                        {
                            "pitch": 43, 
                            "t0": 94565, 
                            "v": 59, 
                            "dur": 60, 
                            "type": "note", 
                            "channel": 9
                        }
                    ]
                ], 
                [
                    95057, 
                    [
                        {
                            "pitch": 43, 
                            "t0": 95057, 
                            "v": 56, 
                            "dur": 60, 
                            "type": "note", 
                            "channel": 9
                        }
                    ]
                ], 
                [
                    95525, 
                    [
                        {
                            "pitch": 43, 
                            "t0": 95525, 
                            "v": 78, 
                            "dur": 60, 
                            "type": "note", 
                            "channel": 9
                        }
                    ]
                ], 
                [
                    96017, 
                    [
                        {
                            "pitch": 43, 
                            "t0": 96017, 
                            "v": 73, 
                            "dur": 60, 
                            "type": "note", 
                            "channel": 9
                        }
                    ]
                ], 
                [
                    96485, 
                    [
                        {
                            "pitch": 43, 
                            "t0": 96485, 
                            "v": 79, 
                            "dur": 60, 
                            "type": "note", 
                            "channel": 9
                        }
                    ]
                ], 
                [
                    96977, 
                    [
                        {
                            "pitch": 43, 
                            "t0": 96977, 
                            "v": 92, 
                            "dur": 60, 
                            "type": "note", 
                            "channel": 9
                        }
                    ]
                ], 
                [
                    97445, 
                    [
                        {
                            "pitch": 43, 
                            "t0": 97445, 
                            "v": 93, 
                            "dur": 60, 
                            "type": "note", 
                            "channel": 9
                        }
                    ]
                ], 
                [
                    97937, 
                    [
                        {
                            "pitch": 43, 
                            "t0": 97937, 
                            "v": 89, 
                            "dur": 60, 
                            "type": "note", 
                            "channel": 9
                        }
                    ]
                ], 
                [
                    98405, 
                    [
                        {
                            "pitch": 43, 
                            "t0": 98405, 
                            "v": 78, 
                            "dur": 60, 
                            "type": "note", 
                            "channel": 9
                        }
                    ]
                ], 
                [
                    98897, 
                    [
                        {
                            "pitch": 43, 
                            "t0": 98897, 
                            "v": 85, 
                            "dur": 60, 
                            "type": "note", 
                            "channel": 9
                        }
                    ]
                ], 
                [
                    99365, 
                    [
                        {
                            "pitch": 43, 
                            "t0": 99365, 
                            "v": 70, 
                            "dur": 60, 
                            "type": "note", 
                            "channel": 9
                        }
                    ]
                ], 
                [
                    99857, 
                    [
                        {
                            "pitch": 43, 
                            "t0": 99857, 
                            "v": 80, 
                            "dur": 60, 
                            "type": "note", 
                            "channel": 9
                        }
                    ]
                ], 
                [
                    100325, 
                    [
                        {
                            "pitch": 43, 
                            "t0": 100325, 
                            "v": 86, 
                            "dur": 60, 
                            "type": "note", 
                            "channel": 9
                        }
                    ]
                ], 
                [
                    100817, 
                    [
                        {
                            "pitch": 43, 
                            "t0": 100817, 
                            "v": 96, 
                            "dur": 60, 
                            "type": "note", 
                            "channel": 9
                        }
                    ]
                ], 
                [
                    101285, 
                    [
                        {
                            "pitch": 43, 
                            "t0": 101285, 
                            "v": 78, 
                            "dur": 60, 
                            "type": "note", 
                            "channel": 9
                        }
                    ]
                ], 
                [
                    101777, 
                    [
                        {
                            "pitch": 43, 
                            "t0": 101777, 
                            "v": 58, 
                            "dur": 60, 
                            "type": "note", 
                            "channel": 9
                        }
                    ]
                ], 
                [
                    102245, 
                    [
                        {
                            "pitch": 43, 
                            "t0": 102245, 
                            "v": 75, 
                            "dur": 60, 
                            "type": "note", 
                            "channel": 9
                        }
                    ]
                ], 
                [
                    102737, 
                    [
                        {
                            "pitch": 43, 
                            "t0": 102737, 
                            "v": 86, 
                            "dur": 60, 
                            "type": "note", 
                            "channel": 9
                        }
                    ]
                ], 
                [
                    103205, 
                    [
                        {
                            "pitch": 43, 
                            "t0": 103205, 
                            "v": 97, 
                            "dur": 60, 
                            "type": "note", 
                            "channel": 9
                        }
                    ]
                ], 
                [
                    103697, 
                    [
                        {
                            "pitch": 43, 
                            "t0": 103697, 
                            "v": 95, 
                            "dur": 60, 
                            "type": "note", 
                            "channel": 9
                        }
                    ]
                ], 
                [
                    104165, 
                    [
                        {
                            "pitch": 43, 
                            "t0": 104165, 
                            "v": 63, 
                            "dur": 60, 
                            "type": "note", 
                            "channel": 9
                        }
                    ]
                ], 
                [
                    104657, 
                    [
                        {
                            "pitch": 43, 
                            "t0": 104657, 
                            "v": 58, 
                            "dur": 60, 
                            "type": "note", 
                            "channel": 9
                        }
                    ]
                ], 
                [
                    105125, 
                    [
                        {
                            "pitch": 43, 
                            "t0": 105125, 
                            "v": 87, 
                            "dur": 60, 
                            "type": "note", 
                            "channel": 9
                        }
                    ]
                ], 
                [
                    105617, 
                    [
                        {
                            "pitch": 43, 
                            "t0": 105617, 
                            "v": 83, 
                            "dur": 60, 
                            "type": "note", 
                            "channel": 9
                        }
                    ]
                ], 
                [
                    106085, 
                    [
                        {
                            "pitch": 43, 
                            "t0": 106085, 
                            "v": 87, 
                            "dur": 60, 
                            "type": "note", 
                            "channel": 9
                        }
                    ]
                ], 
                [
                    106577, 
                    [
                        {
                            "pitch": 43, 
                            "t0": 106577, 
                            "v": 59, 
                            "dur": 60, 
                            "type": "note", 
                            "channel": 9
                        }
                    ]
                ], 
                [
                    107045, 
                    [
                        {
                            "pitch": 43, 
                            "t0": 107045, 
                            "v": 80, 
                            "dur": 60, 
                            "type": "note", 
                            "channel": 9
                        }
                    ]
                ], 
                [
                    107537, 
                    [
                        {
                            "pitch": 43, 
                            "t0": 107537, 
                            "v": 85, 
                            "dur": 60, 
                            "type": "note", 
                            "channel": 9
                        }
                    ]
                ], 
                [
                    108005, 
                    [
                        {
                            "pitch": 43, 
                            "t0": 108005, 
                            "v": 89, 
                            "dur": 60, 
                            "type": "note", 
                            "channel": 9
                        }
                    ]
                ], 
                [
                    108497, 
                    [
                        {
                            "pitch": 43, 
                            "t0": 108497, 
                            "v": 77, 
                            "dur": 60, 
                            "type": "note", 
                            "channel": 9
                        }
                    ]
                ], 
                [
                    108965, 
                    [
                        {
                            "pitch": 43, 
                            "t0": 108965, 
                            "v": 101, 
                            "dur": 60, 
                            "type": "note", 
                            "channel": 9
                        }
                    ]
                ], 
                [
                    109457, 
                    [
                        {
                            "pitch": 43, 
                            "t0": 109457, 
                            "v": 96, 
                            "dur": 60, 
                            "type": "note", 
                            "channel": 9
                        }
                    ]
                ], 
                [
                    109925, 
                    [
                        {
                            "pitch": 43, 
                            "t0": 109925, 
                            "v": 75, 
                            "dur": 60, 
                            "type": "note", 
                            "channel": 9
                        }
                    ]
                ], 
                [
                    110417, 
                    [
                        {
                            "pitch": 43, 
                            "t0": 110417, 
                            "v": 75, 
                            "dur": 60, 
                            "type": "note", 
                            "channel": 9
                        }
                    ]
                ], 
                [
                    110885, 
                    [
                        {
                            "pitch": 43, 
                            "t0": 110885, 
                            "v": 95, 
                            "dur": 60, 
                            "type": "note", 
                            "channel": 9
                        }
                    ]
                ], 
                [
                    111377, 
                    [
                        {
                            "pitch": 43, 
                            "t0": 111377, 
                            "v": 83, 
                            "dur": 60, 
                            "type": "note", 
                            "channel": 9
                        }
                    ]
                ], 
                [
                    111845, 
                    [
                        {
                            "pitch": 43, 
                            "t0": 111845, 
                            "v": 74, 
                            "dur": 60, 
                            "type": "note", 
                            "channel": 9
                        }
                    ]
                ], 
                [
                    112337, 
                    [
                        {
                            "pitch": 43, 
                            "t0": 112337, 
                            "v": 71, 
                            "dur": 60, 
                            "type": "note", 
                            "channel": 9
                        }
                    ]
                ], 
                [
                    112805, 
                    [
                        {
                            "pitch": 43, 
                            "t0": 112805, 
                            "v": 89, 
                            "dur": 60, 
                            "type": "note", 
                            "channel": 9
                        }
                    ]
                ], 
                [
                    113297, 
                    [
                        {
                            "pitch": 43, 
                            "t0": 113297, 
                            "v": 80, 
                            "dur": 60, 
                            "type": "note", 
                            "channel": 9
                        }
                    ]
                ], 
                [
                    113765, 
                    [
                        {
                            "pitch": 43, 
                            "t0": 113765, 
                            "v": 56, 
                            "dur": 60, 
                            "type": "note", 
                            "channel": 9
                        }
                    ]
                ], 
                [
                    114257, 
                    [
                        {
                            "pitch": 43, 
                            "t0": 114257, 
                            "v": 97, 
                            "dur": 60, 
                            "type": "note", 
                            "channel": 9
                        }
                    ]
                ], 
                [
                    114725, 
                    [
                        {
                            "pitch": 43, 
                            "t0": 114725, 
                            "v": 83, 
                            "dur": 60, 
                            "type": "note", 
                            "channel": 9
                        }
                    ]
                ], 
                [
                    115217, 
                    [
                        {
                            "pitch": 43, 
                            "t0": 115217, 
                            "v": 104, 
                            "dur": 60, 
                            "type": "note", 
                            "channel": 9
                        }
                    ]
                ], 
                [
                    115685, 
                    [
                        {
                            "pitch": 43, 
                            "t0": 115685, 
                            "v": 88, 
                            "dur": 60, 
                            "type": "note", 
                            "channel": 9
                        }
                    ]
                ], 
                [
                    116177, 
                    [
                        {
                            "pitch": 43, 
                            "t0": 116177, 
                            "v": 80, 
                            "dur": 60, 
                            "type": "note", 
                            "channel": 9
                        }
                    ]
                ], 
                [
                    116645, 
                    [
                        {
                            "pitch": 43, 
                            "t0": 116645, 
                            "v": 99, 
                            "dur": 60, 
                            "type": "note", 
                            "channel": 9
                        }
                    ]
                ], 
                [
                    117137, 
                    [
                        {
                            "pitch": 43, 
                            "t0": 117137, 
                            "v": 65, 
                            "dur": 60, 
                            "type": "note", 
                            "channel": 9
                        }
                    ]
                ], 
                [
                    117605, 
                    [
                        {
                            "pitch": 43, 
                            "t0": 117605, 
                            "v": 63, 
                            "dur": 60, 
                            "type": "note", 
                            "channel": 9
                        }
                    ]
                ], 
                [
                    118097, 
                    [
                        {
                            "pitch": 43, 
                            "t0": 118097, 
                            "v": 57, 
                            "dur": 60, 
                            "type": "note", 
                            "channel": 9
                        }
                    ]
                ], 
                [
                    118565, 
                    [
                        {
                            "pitch": 43, 
                            "t0": 118565, 
                            "v": 102, 
                            "dur": 60, 
                            "type": "note", 
                            "channel": 9
                        }
                    ]
                ], 
                [
                    119057, 
                    [
                        {
                            "pitch": 43, 
                            "t0": 119057, 
                            "v": 93, 
                            "dur": 60, 
                            "type": "note", 
                            "channel": 9
                        }
                    ]
                ], 
                [
                    119525, 
                    [
                        {
                            "pitch": 43, 
                            "t0": 119525, 
                            "v": 86, 
                            "dur": 60, 
                            "type": "note", 
                            "channel": 9
                        }
                    ]
                ], 
                [
                    120017, 
                    [
                        {
                            "pitch": 43, 
                            "t0": 120017, 
                            "v": 95, 
                            "dur": 60, 
                            "type": "note", 
                            "channel": 9
                        }
                    ]
                ], 
                [
                    120485, 
                    [
                        {
                            "pitch": 43, 
                            "t0": 120485, 
                            "v": 80, 
                            "dur": 60, 
                            "type": "note", 
                            "channel": 9
                        }
                    ]
                ], 
                [
                    120977, 
                    [
                        {
                            "pitch": 43, 
                            "t0": 120977, 
                            "v": 78, 
                            "dur": 60, 
                            "type": "note", 
                            "channel": 9
                        }
                    ]
                ], 
                [
                    121445, 
                    [
                        {
                            "pitch": 43, 
                            "t0": 121445, 
                            "v": 104, 
                            "dur": 60, 
                            "type": "note", 
                            "channel": 9
                        }
                    ]
                ], 
                [
                    121937, 
                    [
                        {
                            "pitch": 43, 
                            "t0": 121937, 
                            "v": 104, 
                            "dur": 60, 
                            "type": "note", 
                            "channel": 9
                        }
                    ]
                ], 
                [
                    122405, 
                    [
                        {
                            "pitch": 43, 
                            "t0": 122405, 
                            "v": 56, 
                            "dur": 60, 
                            "type": "note", 
                            "channel": 9
                        }
                    ]
                ], 
                [
                    122897, 
                    [
                        {
                            "pitch": 43, 
                            "t0": 122897, 
                            "v": 80, 
                            "dur": 60, 
                            "type": "note", 
                            "channel": 9
                        }
                    ]
                ], 
                [
                    123365, 
                    [
                        {
                            "pitch": 43, 
                            "t0": 123365, 
                            "v": 85, 
                            "dur": 60, 
                            "type": "note", 
                            "channel": 9
                        }
                    ]
                ], 
                [
                    123857, 
                    [
                        {
                            "pitch": 43, 
                            "t0": 123857, 
                            "v": 65, 
                            "dur": 60, 
                            "type": "note", 
                            "channel": 9
                        }
                    ]
                ], 
                [
                    124325, 
                    [
                        {
                            "pitch": 43, 
                            "t0": 124325, 
                            "v": 94, 
                            "dur": 60, 
                            "type": "note", 
                            "channel": 9
                        }
                    ]
                ], 
                [
                    124817, 
                    [
                        {
                            "pitch": 43, 
                            "t0": 124817, 
                            "v": 102, 
                            "dur": 60, 
                            "type": "note", 
                            "channel": 9
                        }
                    ]
                ], 
                [
                    125285, 
                    [
                        {
                            "pitch": 43, 
                            "t0": 125285, 
                            "v": 87, 
                            "dur": 60, 
                            "type": "note", 
                            "channel": 9
                        }
                    ]
                ], 
                [
                    125777, 
                    [
                        {
                            "pitch": 43, 
                            "t0": 125777, 
                            "v": 57, 
                            "dur": 60, 
                            "type": "note", 
                            "channel": 9
                        }
                    ]
                ], 
                [
                    126245, 
                    [
                        {
                            "pitch": 43, 
                            "t0": 126245, 
                            "v": 95, 
                            "dur": 60, 
                            "type": "note", 
                            "channel": 9
                        }
                    ]
                ], 
                [
                    126737, 
                    [
                        {
                            "pitch": 43, 
                            "t0": 126737, 
                            "v": 64, 
                            "dur": 60, 
                            "type": "note", 
                            "channel": 9
                        }
                    ]
                ], 
                [
                    127205, 
                    [
                        {
                            "pitch": 43, 
                            "t0": 127205, 
                            "v": 61, 
                            "dur": 60, 
                            "type": "note", 
                            "channel": 9
                        }
                    ]
                ], 
                [
                    127697, 
                    [
                        {
                            "pitch": 43, 
                            "t0": 127697, 
                            "v": 85, 
                            "dur": 60, 
                            "type": "note", 
                            "channel": 9
                        }
                    ]
                ], 
                [
                    128165, 
                    [
                        {
                            "pitch": 43, 
                            "t0": 128165, 
                            "v": 60, 
                            "dur": 60, 
                            "type": "note", 
                            "channel": 9
                        }
                    ]
                ], 
                [
                    128657, 
                    [
                        {
                            "pitch": 43, 
                            "t0": 128657, 
                            "v": 93, 
                            "dur": 60, 
                            "type": "note", 
                            "channel": 9
                        }
                    ]
                ], 
                [
                    129125, 
                    [
                        {
                            "pitch": 43, 
                            "t0": 129125, 
                            "v": 82, 
                            "dur": 60, 
                            "type": "note", 
                            "channel": 9
                        }
                    ]
                ], 
                [
                    129617, 
                    [
                        {
                            "pitch": 43, 
                            "t0": 129617, 
                            "v": 74, 
                            "dur": 60, 
                            "type": "note", 
                            "channel": 9
                        }
                    ]
                ], 
                [
                    130085, 
                    [
                        {
                            "pitch": 43, 
                            "t0": 130085, 
                            "v": 80, 
                            "dur": 60, 
                            "type": "note", 
                            "channel": 9
                        }
                    ]
                ]
            ], 
            "instruments": [
                32
            ], 
            "tMax": 130085, 
            "channels": [
                9
            ], 
            "instrument": 32, 
            "numNotes": 272, 
            "type": "TrackObj"
        }, 
        {
            "trackName": "Ankle Bells", 
            "seq": [
                [
                    0, 
                    [
                        {
                            "instrument": 32, 
                            "type": "programChange", 
                            "t0": 0, 
                            "channel": 9
                        }
                    ]
                ], 
                [
                    240, 
                    [
                        {
                            "instrument": 32, 
                            "type": "programChange", 
                            "t0": 240, 
                            "channel": 9
                        }, 
                        {
                            "pitch": 83, 
                            "t0": 240, 
                            "v": 57, 
                            "dur": 60, 
                            "type": "note", 
                            "channel": 9
                        }
                    ]
                ], 
                [
                    360, 
                    [
                        {
                            "pitch": 83, 
                            "t0": 360, 
                            "v": 61, 
                            "dur": 60, 
                            "type": "note", 
                            "channel": 9
                        }
                    ]
                ], 
                [
                    1200, 
                    [
                        {
                            "pitch": 83, 
                            "t0": 1200, 
                            "v": 57, 
                            "dur": 60, 
                            "type": "note", 
                            "channel": 9
                        }
                    ]
                ], 
                [
                    2160, 
                    [
                        {
                            "pitch": 83, 
                            "t0": 2160, 
                            "v": 57, 
                            "dur": 60, 
                            "type": "note", 
                            "channel": 9
                        }
                    ]
                ], 
                [
                    2400, 
                    [
                        {
                            "pitch": 83, 
                            "t0": 2400, 
                            "v": 62, 
                            "dur": 60, 
                            "type": "note", 
                            "channel": 9
                        }
                    ]
                ], 
                [
                    3120, 
                    [
                        {
                            "pitch": 83, 
                            "t0": 3120, 
                            "v": 57, 
                            "dur": 60, 
                            "type": "note", 
                            "channel": 9
                        }
                    ]
                ], 
                [
                    4080, 
                    [
                        {
                            "pitch": 83, 
                            "t0": 4080, 
                            "v": 57, 
                            "dur": 60, 
                            "type": "note", 
                            "channel": 9
                        }
                    ]
                ], 
                [
                    4200, 
                    [
                        {
                            "pitch": 83, 
                            "t0": 4200, 
                            "v": 57, 
                            "dur": 60, 
                            "type": "note", 
                            "channel": 9
                        }
                    ]
                ], 
                [
                    5040, 
                    [
                        {
                            "pitch": 83, 
                            "t0": 5040, 
                            "v": 57, 
                            "dur": 60, 
                            "type": "note", 
                            "channel": 9
                        }
                    ]
                ], 
                [
                    6000, 
                    [
                        {
                            "pitch": 83, 
                            "t0": 6000, 
                            "v": 57, 
                            "dur": 60, 
                            "type": "note", 
                            "channel": 9
                        }
                    ]
                ], 
                [
                    6120, 
                    [
                        {
                            "pitch": 83, 
                            "t0": 6120, 
                            "v": 57, 
                            "dur": 60, 
                            "type": "note", 
                            "channel": 9
                        }
                    ]
                ], 
                [
                    6480, 
                    [
                        {
                            "pitch": 83, 
                            "t0": 6480, 
                            "v": 57, 
                            "dur": 60, 
                            "type": "note", 
                            "channel": 9
                        }
                    ]
                ], 
                [
                    6960, 
                    [
                        {
                            "pitch": 83, 
                            "t0": 6960, 
                            "v": 57, 
                            "dur": 60, 
                            "type": "note", 
                            "channel": 9
                        }
                    ]
                ], 
                [
                    7920, 
                    [
                        {
                            "instrument": 32, 
                            "type": "programChange", 
                            "t0": 7920, 
                            "channel": 9
                        }, 
                        {
                            "pitch": 83, 
                            "t0": 7920, 
                            "v": 57, 
                            "dur": 60, 
                            "type": "note", 
                            "channel": 9
                        }
                    ]
                ], 
                [
                    8040, 
                    [
                        {
                            "pitch": 83, 
                            "t0": 8040, 
                            "v": 61, 
                            "dur": 60, 
                            "type": "note", 
                            "channel": 9
                        }
                    ]
                ], 
                [
                    8880, 
                    [
                        {
                            "pitch": 83, 
                            "t0": 8880, 
                            "v": 57, 
                            "dur": 60, 
                            "type": "note", 
                            "channel": 9
                        }
                    ]
                ], 
                [
                    9840, 
                    [
                        {
                            "pitch": 83, 
                            "t0": 9840, 
                            "v": 57, 
                            "dur": 60, 
                            "type": "note", 
                            "channel": 9
                        }
                    ]
                ], 
                [
                    10080, 
                    [
                        {
                            "pitch": 83, 
                            "t0": 10080, 
                            "v": 62, 
                            "dur": 60, 
                            "type": "note", 
                            "channel": 9
                        }
                    ]
                ], 
                [
                    10800, 
                    [
                        {
                            "pitch": 83, 
                            "t0": 10800, 
                            "v": 57, 
                            "dur": 60, 
                            "type": "note", 
                            "channel": 9
                        }
                    ]
                ], 
                [
                    11760, 
                    [
                        {
                            "pitch": 83, 
                            "t0": 11760, 
                            "v": 57, 
                            "dur": 60, 
                            "type": "note", 
                            "channel": 9
                        }
                    ]
                ], 
                [
                    11880, 
                    [
                        {
                            "pitch": 83, 
                            "t0": 11880, 
                            "v": 57, 
                            "dur": 60, 
                            "type": "note", 
                            "channel": 9
                        }
                    ]
                ], 
                [
                    12720, 
                    [
                        {
                            "pitch": 83, 
                            "t0": 12720, 
                            "v": 57, 
                            "dur": 60, 
                            "type": "note", 
                            "channel": 9
                        }
                    ]
                ], 
                [
                    13680, 
                    [
                        {
                            "pitch": 83, 
                            "t0": 13680, 
                            "v": 57, 
                            "dur": 60, 
                            "type": "note", 
                            "channel": 9
                        }
                    ]
                ], 
                [
                    13800, 
                    [
                        {
                            "pitch": 83, 
                            "t0": 13800, 
                            "v": 57, 
                            "dur": 60, 
                            "type": "note", 
                            "channel": 9
                        }
                    ]
                ], 
                [
                    14160, 
                    [
                        {
                            "pitch": 83, 
                            "t0": 14160, 
                            "v": 57, 
                            "dur": 60, 
                            "type": "note", 
                            "channel": 9
                        }
                    ]
                ], 
                [
                    14640, 
                    [
                        {
                            "pitch": 83, 
                            "t0": 14640, 
                            "v": 57, 
                            "dur": 60, 
                            "type": "note", 
                            "channel": 9
                        }
                    ]
                ], 
                [
                    15600, 
                    [
                        {
                            "instrument": 32, 
                            "type": "programChange", 
                            "t0": 15600, 
                            "channel": 9
                        }, 
                        {
                            "pitch": 83, 
                            "t0": 15600, 
                            "v": 57, 
                            "dur": 60, 
                            "type": "note", 
                            "channel": 9
                        }
                    ]
                ], 
                [
                    15720, 
                    [
                        {
                            "pitch": 83, 
                            "t0": 15720, 
                            "v": 61, 
                            "dur": 60, 
                            "type": "note", 
                            "channel": 9
                        }
                    ]
                ], 
                [
                    16560, 
                    [
                        {
                            "pitch": 83, 
                            "t0": 16560, 
                            "v": 57, 
                            "dur": 60, 
                            "type": "note", 
                            "channel": 9
                        }
                    ]
                ], 
                [
                    17520, 
                    [
                        {
                            "pitch": 83, 
                            "t0": 17520, 
                            "v": 57, 
                            "dur": 60, 
                            "type": "note", 
                            "channel": 9
                        }
                    ]
                ], 
                [
                    17760, 
                    [
                        {
                            "pitch": 83, 
                            "t0": 17760, 
                            "v": 62, 
                            "dur": 60, 
                            "type": "note", 
                            "channel": 9
                        }
                    ]
                ], 
                [
                    18480, 
                    [
                        {
                            "pitch": 83, 
                            "t0": 18480, 
                            "v": 57, 
                            "dur": 60, 
                            "type": "note", 
                            "channel": 9
                        }
                    ]
                ], 
                [
                    19440, 
                    [
                        {
                            "pitch": 83, 
                            "t0": 19440, 
                            "v": 57, 
                            "dur": 60, 
                            "type": "note", 
                            "channel": 9
                        }
                    ]
                ], 
                [
                    19560, 
                    [
                        {
                            "pitch": 83, 
                            "t0": 19560, 
                            "v": 57, 
                            "dur": 60, 
                            "type": "note", 
                            "channel": 9
                        }
                    ]
                ], 
                [
                    20400, 
                    [
                        {
                            "pitch": 83, 
                            "t0": 20400, 
                            "v": 57, 
                            "dur": 60, 
                            "type": "note", 
                            "channel": 9
                        }
                    ]
                ], 
                [
                    21360, 
                    [
                        {
                            "pitch": 83, 
                            "t0": 21360, 
                            "v": 57, 
                            "dur": 60, 
                            "type": "note", 
                            "channel": 9
                        }
                    ]
                ], 
                [
                    21480, 
                    [
                        {
                            "pitch": 83, 
                            "t0": 21480, 
                            "v": 57, 
                            "dur": 60, 
                            "type": "note", 
                            "channel": 9
                        }
                    ]
                ], 
                [
                    21840, 
                    [
                        {
                            "pitch": 83, 
                            "t0": 21840, 
                            "v": 57, 
                            "dur": 60, 
                            "type": "note", 
                            "channel": 9
                        }
                    ]
                ], 
                [
                    22320, 
                    [
                        {
                            "pitch": 83, 
                            "t0": 22320, 
                            "v": 57, 
                            "dur": 60, 
                            "type": "note", 
                            "channel": 9
                        }
                    ]
                ], 
                [
                    23280, 
                    [
                        {
                            "instrument": 32, 
                            "type": "programChange", 
                            "t0": 23280, 
                            "channel": 9
                        }, 
                        {
                            "pitch": 83, 
                            "t0": 23280, 
                            "v": 57, 
                            "dur": 60, 
                            "type": "note", 
                            "channel": 9
                        }
                    ]
                ], 
                [
                    23400, 
                    [
                        {
                            "pitch": 83, 
                            "t0": 23400, 
                            "v": 61, 
                            "dur": 60, 
                            "type": "note", 
                            "channel": 9
                        }
                    ]
                ], 
                [
                    24240, 
                    [
                        {
                            "pitch": 83, 
                            "t0": 24240, 
                            "v": 57, 
                            "dur": 60, 
                            "type": "note", 
                            "channel": 9
                        }
                    ]
                ], 
                [
                    25200, 
                    [
                        {
                            "pitch": 83, 
                            "t0": 25200, 
                            "v": 57, 
                            "dur": 60, 
                            "type": "note", 
                            "channel": 9
                        }
                    ]
                ], 
                [
                    25440, 
                    [
                        {
                            "pitch": 83, 
                            "t0": 25440, 
                            "v": 62, 
                            "dur": 60, 
                            "type": "note", 
                            "channel": 9
                        }
                    ]
                ], 
                [
                    26160, 
                    [
                        {
                            "pitch": 83, 
                            "t0": 26160, 
                            "v": 57, 
                            "dur": 60, 
                            "type": "note", 
                            "channel": 9
                        }
                    ]
                ], 
                [
                    27120, 
                    [
                        {
                            "pitch": 83, 
                            "t0": 27120, 
                            "v": 57, 
                            "dur": 60, 
                            "type": "note", 
                            "channel": 9
                        }
                    ]
                ], 
                [
                    27240, 
                    [
                        {
                            "pitch": 83, 
                            "t0": 27240, 
                            "v": 57, 
                            "dur": 60, 
                            "type": "note", 
                            "channel": 9
                        }
                    ]
                ], 
                [
                    28080, 
                    [
                        {
                            "pitch": 83, 
                            "t0": 28080, 
                            "v": 57, 
                            "dur": 60, 
                            "type": "note", 
                            "channel": 9
                        }
                    ]
                ], 
                [
                    29040, 
                    [
                        {
                            "pitch": 83, 
                            "t0": 29040, 
                            "v": 57, 
                            "dur": 60, 
                            "type": "note", 
                            "channel": 9
                        }
                    ]
                ], 
                [
                    29160, 
                    [
                        {
                            "pitch": 83, 
                            "t0": 29160, 
                            "v": 57, 
                            "dur": 60, 
                            "type": "note", 
                            "channel": 9
                        }
                    ]
                ], 
                [
                    29520, 
                    [
                        {
                            "pitch": 83, 
                            "t0": 29520, 
                            "v": 57, 
                            "dur": 60, 
                            "type": "note", 
                            "channel": 9
                        }
                    ]
                ], 
                [
                    30000, 
                    [
                        {
                            "pitch": 83, 
                            "t0": 30000, 
                            "v": 57, 
                            "dur": 60, 
                            "type": "note", 
                            "channel": 9
                        }
                    ]
                ], 
                [
                    30960, 
                    [
                        {
                            "instrument": 32, 
                            "type": "programChange", 
                            "t0": 30960, 
                            "channel": 9
                        }, 
                        {
                            "pitch": 83, 
                            "t0": 30960, 
                            "v": 57, 
                            "dur": 60, 
                            "type": "note", 
                            "channel": 9
                        }
                    ]
                ], 
                [
                    31080, 
                    [
                        {
                            "pitch": 83, 
                            "t0": 31080, 
                            "v": 61, 
                            "dur": 60, 
                            "type": "note", 
                            "channel": 9
                        }
                    ]
                ], 
                [
                    31920, 
                    [
                        {
                            "pitch": 83, 
                            "t0": 31920, 
                            "v": 57, 
                            "dur": 60, 
                            "type": "note", 
                            "channel": 9
                        }
                    ]
                ], 
                [
                    32880, 
                    [
                        {
                            "pitch": 83, 
                            "t0": 32880, 
                            "v": 57, 
                            "dur": 60, 
                            "type": "note", 
                            "channel": 9
                        }
                    ]
                ], 
                [
                    33120, 
                    [
                        {
                            "pitch": 83, 
                            "t0": 33120, 
                            "v": 62, 
                            "dur": 60, 
                            "type": "note", 
                            "channel": 9
                        }
                    ]
                ], 
                [
                    33840, 
                    [
                        {
                            "pitch": 83, 
                            "t0": 33840, 
                            "v": 57, 
                            "dur": 60, 
                            "type": "note", 
                            "channel": 9
                        }
                    ]
                ], 
                [
                    34800, 
                    [
                        {
                            "pitch": 83, 
                            "t0": 34800, 
                            "v": 57, 
                            "dur": 60, 
                            "type": "note", 
                            "channel": 9
                        }
                    ]
                ], 
                [
                    34920, 
                    [
                        {
                            "pitch": 83, 
                            "t0": 34920, 
                            "v": 57, 
                            "dur": 60, 
                            "type": "note", 
                            "channel": 9
                        }
                    ]
                ], 
                [
                    35760, 
                    [
                        {
                            "pitch": 83, 
                            "t0": 35760, 
                            "v": 57, 
                            "dur": 60, 
                            "type": "note", 
                            "channel": 9
                        }
                    ]
                ], 
                [
                    36720, 
                    [
                        {
                            "pitch": 83, 
                            "t0": 36720, 
                            "v": 57, 
                            "dur": 60, 
                            "type": "note", 
                            "channel": 9
                        }
                    ]
                ], 
                [
                    36840, 
                    [
                        {
                            "pitch": 83, 
                            "t0": 36840, 
                            "v": 57, 
                            "dur": 60, 
                            "type": "note", 
                            "channel": 9
                        }
                    ]
                ], 
                [
                    37200, 
                    [
                        {
                            "pitch": 83, 
                            "t0": 37200, 
                            "v": 57, 
                            "dur": 60, 
                            "type": "note", 
                            "channel": 9
                        }
                    ]
                ], 
                [
                    37680, 
                    [
                        {
                            "pitch": 83, 
                            "t0": 37680, 
                            "v": 57, 
                            "dur": 60, 
                            "type": "note", 
                            "channel": 9
                        }
                    ]
                ], 
                [
                    38640, 
                    [
                        {
                            "instrument": 32, 
                            "type": "programChange", 
                            "t0": 38640, 
                            "channel": 9
                        }, 
                        {
                            "pitch": 83, 
                            "t0": 38640, 
                            "v": 57, 
                            "dur": 60, 
                            "type": "note", 
                            "channel": 9
                        }
                    ]
                ], 
                [
                    38760, 
                    [
                        {
                            "pitch": 83, 
                            "t0": 38760, 
                            "v": 61, 
                            "dur": 60, 
                            "type": "note", 
                            "channel": 9
                        }
                    ]
                ], 
                [
                    39600, 
                    [
                        {
                            "pitch": 83, 
                            "t0": 39600, 
                            "v": 57, 
                            "dur": 60, 
                            "type": "note", 
                            "channel": 9
                        }
                    ]
                ], 
                [
                    40560, 
                    [
                        {
                            "pitch": 83, 
                            "t0": 40560, 
                            "v": 57, 
                            "dur": 60, 
                            "type": "note", 
                            "channel": 9
                        }
                    ]
                ], 
                [
                    40800, 
                    [
                        {
                            "pitch": 83, 
                            "t0": 40800, 
                            "v": 62, 
                            "dur": 60, 
                            "type": "note", 
                            "channel": 9
                        }
                    ]
                ], 
                [
                    41520, 
                    [
                        {
                            "pitch": 83, 
                            "t0": 41520, 
                            "v": 57, 
                            "dur": 60, 
                            "type": "note", 
                            "channel": 9
                        }
                    ]
                ], 
                [
                    42480, 
                    [
                        {
                            "pitch": 83, 
                            "t0": 42480, 
                            "v": 57, 
                            "dur": 60, 
                            "type": "note", 
                            "channel": 9
                        }
                    ]
                ], 
                [
                    42600, 
                    [
                        {
                            "pitch": 83, 
                            "t0": 42600, 
                            "v": 57, 
                            "dur": 60, 
                            "type": "note", 
                            "channel": 9
                        }
                    ]
                ], 
                [
                    43440, 
                    [
                        {
                            "pitch": 83, 
                            "t0": 43440, 
                            "v": 57, 
                            "dur": 60, 
                            "type": "note", 
                            "channel": 9
                        }
                    ]
                ], 
                [
                    44400, 
                    [
                        {
                            "pitch": 83, 
                            "t0": 44400, 
                            "v": 57, 
                            "dur": 60, 
                            "type": "note", 
                            "channel": 9
                        }
                    ]
                ], 
                [
                    44520, 
                    [
                        {
                            "pitch": 83, 
                            "t0": 44520, 
                            "v": 57, 
                            "dur": 60, 
                            "type": "note", 
                            "channel": 9
                        }
                    ]
                ], 
                [
                    44880, 
                    [
                        {
                            "pitch": 83, 
                            "t0": 44880, 
                            "v": 57, 
                            "dur": 60, 
                            "type": "note", 
                            "channel": 9
                        }
                    ]
                ], 
                [
                    45360, 
                    [
                        {
                            "pitch": 83, 
                            "t0": 45360, 
                            "v": 57, 
                            "dur": 60, 
                            "type": "note", 
                            "channel": 9
                        }
                    ]
                ], 
                [
                    46320, 
                    [
                        {
                            "instrument": 32, 
                            "type": "programChange", 
                            "t0": 46320, 
                            "channel": 9
                        }, 
                        {
                            "pitch": 83, 
                            "t0": 46320, 
                            "v": 57, 
                            "dur": 60, 
                            "type": "note", 
                            "channel": 9
                        }
                    ]
                ], 
                [
                    46440, 
                    [
                        {
                            "pitch": 83, 
                            "t0": 46440, 
                            "v": 61, 
                            "dur": 60, 
                            "type": "note", 
                            "channel": 9
                        }
                    ]
                ], 
                [
                    47280, 
                    [
                        {
                            "pitch": 83, 
                            "t0": 47280, 
                            "v": 57, 
                            "dur": 60, 
                            "type": "note", 
                            "channel": 9
                        }
                    ]
                ], 
                [
                    48240, 
                    [
                        {
                            "pitch": 83, 
                            "t0": 48240, 
                            "v": 57, 
                            "dur": 60, 
                            "type": "note", 
                            "channel": 9
                        }
                    ]
                ], 
                [
                    48480, 
                    [
                        {
                            "pitch": 83, 
                            "t0": 48480, 
                            "v": 62, 
                            "dur": 60, 
                            "type": "note", 
                            "channel": 9
                        }
                    ]
                ], 
                [
                    49200, 
                    [
                        {
                            "pitch": 83, 
                            "t0": 49200, 
                            "v": 57, 
                            "dur": 60, 
                            "type": "note", 
                            "channel": 9
                        }
                    ]
                ], 
                [
                    50160, 
                    [
                        {
                            "pitch": 83, 
                            "t0": 50160, 
                            "v": 57, 
                            "dur": 60, 
                            "type": "note", 
                            "channel": 9
                        }
                    ]
                ], 
                [
                    50280, 
                    [
                        {
                            "pitch": 83, 
                            "t0": 50280, 
                            "v": 57, 
                            "dur": 60, 
                            "type": "note", 
                            "channel": 9
                        }
                    ]
                ], 
                [
                    51120, 
                    [
                        {
                            "pitch": 83, 
                            "t0": 51120, 
                            "v": 57, 
                            "dur": 60, 
                            "type": "note", 
                            "channel": 9
                        }
                    ]
                ], 
                [
                    52080, 
                    [
                        {
                            "pitch": 83, 
                            "t0": 52080, 
                            "v": 57, 
                            "dur": 60, 
                            "type": "note", 
                            "channel": 9
                        }
                    ]
                ], 
                [
                    52200, 
                    [
                        {
                            "pitch": 83, 
                            "t0": 52200, 
                            "v": 57, 
                            "dur": 60, 
                            "type": "note", 
                            "channel": 9
                        }
                    ]
                ], 
                [
                    52560, 
                    [
                        {
                            "pitch": 83, 
                            "t0": 52560, 
                            "v": 57, 
                            "dur": 60, 
                            "type": "note", 
                            "channel": 9
                        }
                    ]
                ], 
                [
                    53040, 
                    [
                        {
                            "pitch": 83, 
                            "t0": 53040, 
                            "v": 57, 
                            "dur": 60, 
                            "type": "note", 
                            "channel": 9
                        }
                    ]
                ], 
                [
                    54000, 
                    [
                        {
                            "instrument": 32, 
                            "type": "programChange", 
                            "t0": 54000, 
                            "channel": 9
                        }, 
                        {
                            "pitch": 83, 
                            "t0": 54000, 
                            "v": 57, 
                            "dur": 60, 
                            "type": "note", 
                            "channel": 9
                        }
                    ]
                ], 
                [
                    54120, 
                    [
                        {
                            "pitch": 83, 
                            "t0": 54120, 
                            "v": 61, 
                            "dur": 60, 
                            "type": "note", 
                            "channel": 9
                        }
                    ]
                ], 
                [
                    54960, 
                    [
                        {
                            "pitch": 83, 
                            "t0": 54960, 
                            "v": 57, 
                            "dur": 60, 
                            "type": "note", 
                            "channel": 9
                        }
                    ]
                ], 
                [
                    55920, 
                    [
                        {
                            "pitch": 83, 
                            "t0": 55920, 
                            "v": 57, 
                            "dur": 60, 
                            "type": "note", 
                            "channel": 9
                        }
                    ]
                ], 
                [
                    56160, 
                    [
                        {
                            "pitch": 83, 
                            "t0": 56160, 
                            "v": 62, 
                            "dur": 60, 
                            "type": "note", 
                            "channel": 9
                        }
                    ]
                ], 
                [
                    56880, 
                    [
                        {
                            "pitch": 83, 
                            "t0": 56880, 
                            "v": 57, 
                            "dur": 60, 
                            "type": "note", 
                            "channel": 9
                        }
                    ]
                ], 
                [
                    57840, 
                    [
                        {
                            "pitch": 83, 
                            "t0": 57840, 
                            "v": 57, 
                            "dur": 60, 
                            "type": "note", 
                            "channel": 9
                        }
                    ]
                ], 
                [
                    57960, 
                    [
                        {
                            "pitch": 83, 
                            "t0": 57960, 
                            "v": 57, 
                            "dur": 60, 
                            "type": "note", 
                            "channel": 9
                        }
                    ]
                ], 
                [
                    58800, 
                    [
                        {
                            "pitch": 83, 
                            "t0": 58800, 
                            "v": 57, 
                            "dur": 60, 
                            "type": "note", 
                            "channel": 9
                        }
                    ]
                ], 
                [
                    59760, 
                    [
                        {
                            "pitch": 83, 
                            "t0": 59760, 
                            "v": 57, 
                            "dur": 60, 
                            "type": "note", 
                            "channel": 9
                        }
                    ]
                ], 
                [
                    59880, 
                    [
                        {
                            "pitch": 83, 
                            "t0": 59880, 
                            "v": 57, 
                            "dur": 60, 
                            "type": "note", 
                            "channel": 9
                        }
                    ]
                ], 
                [
                    60240, 
                    [
                        {
                            "pitch": 83, 
                            "t0": 60240, 
                            "v": 57, 
                            "dur": 60, 
                            "type": "note", 
                            "channel": 9
                        }
                    ]
                ], 
                [
                    60720, 
                    [
                        {
                            "pitch": 83, 
                            "t0": 60720, 
                            "v": 57, 
                            "dur": 60, 
                            "type": "note", 
                            "channel": 9
                        }
                    ]
                ], 
                [
                    61680, 
                    [
                        {
                            "instrument": 32, 
                            "type": "programChange", 
                            "t0": 61680, 
                            "channel": 9
                        }, 
                        {
                            "pitch": 83, 
                            "t0": 61680, 
                            "v": 57, 
                            "dur": 60, 
                            "type": "note", 
                            "channel": 9
                        }
                    ]
                ], 
                [
                    61800, 
                    [
                        {
                            "pitch": 83, 
                            "t0": 61800, 
                            "v": 61, 
                            "dur": 60, 
                            "type": "note", 
                            "channel": 9
                        }
                    ]
                ], 
                [
                    62640, 
                    [
                        {
                            "pitch": 83, 
                            "t0": 62640, 
                            "v": 57, 
                            "dur": 60, 
                            "type": "note", 
                            "channel": 9
                        }
                    ]
                ], 
                [
                    63600, 
                    [
                        {
                            "pitch": 83, 
                            "t0": 63600, 
                            "v": 57, 
                            "dur": 60, 
                            "type": "note", 
                            "channel": 9
                        }
                    ]
                ], 
                [
                    63840, 
                    [
                        {
                            "pitch": 83, 
                            "t0": 63840, 
                            "v": 62, 
                            "dur": 60, 
                            "type": "note", 
                            "channel": 9
                        }
                    ]
                ], 
                [
                    64560, 
                    [
                        {
                            "pitch": 83, 
                            "t0": 64560, 
                            "v": 57, 
                            "dur": 60, 
                            "type": "note", 
                            "channel": 9
                        }
                    ]
                ], 
                [
                    65520, 
                    [
                        {
                            "pitch": 83, 
                            "t0": 65520, 
                            "v": 57, 
                            "dur": 60, 
                            "type": "note", 
                            "channel": 9
                        }
                    ]
                ], 
                [
                    65640, 
                    [
                        {
                            "pitch": 83, 
                            "t0": 65640, 
                            "v": 57, 
                            "dur": 60, 
                            "type": "note", 
                            "channel": 9
                        }
                    ]
                ], 
                [
                    66480, 
                    [
                        {
                            "pitch": 83, 
                            "t0": 66480, 
                            "v": 57, 
                            "dur": 60, 
                            "type": "note", 
                            "channel": 9
                        }
                    ]
                ], 
                [
                    67440, 
                    [
                        {
                            "pitch": 83, 
                            "t0": 67440, 
                            "v": 57, 
                            "dur": 60, 
                            "type": "note", 
                            "channel": 9
                        }
                    ]
                ], 
                [
                    67560, 
                    [
                        {
                            "pitch": 83, 
                            "t0": 67560, 
                            "v": 57, 
                            "dur": 60, 
                            "type": "note", 
                            "channel": 9
                        }
                    ]
                ], 
                [
                    67920, 
                    [
                        {
                            "pitch": 83, 
                            "t0": 67920, 
                            "v": 57, 
                            "dur": 60, 
                            "type": "note", 
                            "channel": 9
                        }
                    ]
                ], 
                [
                    68400, 
                    [
                        {
                            "pitch": 83, 
                            "t0": 68400, 
                            "v": 57, 
                            "dur": 60, 
                            "type": "note", 
                            "channel": 9
                        }
                    ]
                ], 
                [
                    69360, 
                    [
                        {
                            "instrument": 32, 
                            "type": "programChange", 
                            "t0": 69360, 
                            "channel": 9
                        }, 
                        {
                            "pitch": 83, 
                            "t0": 69360, 
                            "v": 57, 
                            "dur": 60, 
                            "type": "note", 
                            "channel": 9
                        }
                    ]
                ], 
                [
                    69480, 
                    [
                        {
                            "pitch": 83, 
                            "t0": 69480, 
                            "v": 61, 
                            "dur": 60, 
                            "type": "note", 
                            "channel": 9
                        }
                    ]
                ], 
                [
                    70320, 
                    [
                        {
                            "pitch": 83, 
                            "t0": 70320, 
                            "v": 57, 
                            "dur": 60, 
                            "type": "note", 
                            "channel": 9
                        }
                    ]
                ], 
                [
                    71280, 
                    [
                        {
                            "pitch": 83, 
                            "t0": 71280, 
                            "v": 57, 
                            "dur": 60, 
                            "type": "note", 
                            "channel": 9
                        }
                    ]
                ], 
                [
                    71520, 
                    [
                        {
                            "pitch": 83, 
                            "t0": 71520, 
                            "v": 62, 
                            "dur": 60, 
                            "type": "note", 
                            "channel": 9
                        }
                    ]
                ], 
                [
                    72240, 
                    [
                        {
                            "pitch": 83, 
                            "t0": 72240, 
                            "v": 57, 
                            "dur": 60, 
                            "type": "note", 
                            "channel": 9
                        }
                    ]
                ], 
                [
                    73200, 
                    [
                        {
                            "pitch": 83, 
                            "t0": 73200, 
                            "v": 57, 
                            "dur": 60, 
                            "type": "note", 
                            "channel": 9
                        }
                    ]
                ], 
                [
                    73320, 
                    [
                        {
                            "pitch": 83, 
                            "t0": 73320, 
                            "v": 57, 
                            "dur": 60, 
                            "type": "note", 
                            "channel": 9
                        }
                    ]
                ], 
                [
                    74160, 
                    [
                        {
                            "pitch": 83, 
                            "t0": 74160, 
                            "v": 57, 
                            "dur": 60, 
                            "type": "note", 
                            "channel": 9
                        }
                    ]
                ], 
                [
                    75120, 
                    [
                        {
                            "pitch": 83, 
                            "t0": 75120, 
                            "v": 57, 
                            "dur": 60, 
                            "type": "note", 
                            "channel": 9
                        }
                    ]
                ], 
                [
                    75240, 
                    [
                        {
                            "pitch": 83, 
                            "t0": 75240, 
                            "v": 57, 
                            "dur": 60, 
                            "type": "note", 
                            "channel": 9
                        }
                    ]
                ], 
                [
                    75600, 
                    [
                        {
                            "pitch": 83, 
                            "t0": 75600, 
                            "v": 57, 
                            "dur": 60, 
                            "type": "note", 
                            "channel": 9
                        }
                    ]
                ], 
                [
                    76080, 
                    [
                        {
                            "pitch": 83, 
                            "t0": 76080, 
                            "v": 57, 
                            "dur": 60, 
                            "type": "note", 
                            "channel": 9
                        }
                    ]
                ], 
                [
                    77040, 
                    [
                        {
                            "instrument": 32, 
                            "type": "programChange", 
                            "t0": 77040, 
                            "channel": 9
                        }, 
                        {
                            "pitch": 83, 
                            "t0": 77040, 
                            "v": 57, 
                            "dur": 60, 
                            "type": "note", 
                            "channel": 9
                        }
                    ]
                ], 
                [
                    77160, 
                    [
                        {
                            "pitch": 83, 
                            "t0": 77160, 
                            "v": 61, 
                            "dur": 60, 
                            "type": "note", 
                            "channel": 9
                        }
                    ]
                ], 
                [
                    78000, 
                    [
                        {
                            "pitch": 83, 
                            "t0": 78000, 
                            "v": 57, 
                            "dur": 60, 
                            "type": "note", 
                            "channel": 9
                        }
                    ]
                ], 
                [
                    78960, 
                    [
                        {
                            "pitch": 83, 
                            "t0": 78960, 
                            "v": 57, 
                            "dur": 60, 
                            "type": "note", 
                            "channel": 9
                        }
                    ]
                ], 
                [
                    79200, 
                    [
                        {
                            "pitch": 83, 
                            "t0": 79200, 
                            "v": 62, 
                            "dur": 60, 
                            "type": "note", 
                            "channel": 9
                        }
                    ]
                ], 
                [
                    79920, 
                    [
                        {
                            "pitch": 83, 
                            "t0": 79920, 
                            "v": 57, 
                            "dur": 60, 
                            "type": "note", 
                            "channel": 9
                        }
                    ]
                ], 
                [
                    80880, 
                    [
                        {
                            "pitch": 83, 
                            "t0": 80880, 
                            "v": 57, 
                            "dur": 60, 
                            "type": "note", 
                            "channel": 9
                        }
                    ]
                ], 
                [
                    81000, 
                    [
                        {
                            "pitch": 83, 
                            "t0": 81000, 
                            "v": 57, 
                            "dur": 60, 
                            "type": "note", 
                            "channel": 9
                        }
                    ]
                ], 
                [
                    81840, 
                    [
                        {
                            "pitch": 83, 
                            "t0": 81840, 
                            "v": 57, 
                            "dur": 60, 
                            "type": "note", 
                            "channel": 9
                        }
                    ]
                ], 
                [
                    82800, 
                    [
                        {
                            "pitch": 83, 
                            "t0": 82800, 
                            "v": 57, 
                            "dur": 60, 
                            "type": "note", 
                            "channel": 9
                        }
                    ]
                ], 
                [
                    82920, 
                    [
                        {
                            "pitch": 83, 
                            "t0": 82920, 
                            "v": 57, 
                            "dur": 60, 
                            "type": "note", 
                            "channel": 9
                        }
                    ]
                ], 
                [
                    83280, 
                    [
                        {
                            "pitch": 83, 
                            "t0": 83280, 
                            "v": 57, 
                            "dur": 60, 
                            "type": "note", 
                            "channel": 9
                        }
                    ]
                ], 
                [
                    83760, 
                    [
                        {
                            "pitch": 83, 
                            "t0": 83760, 
                            "v": 57, 
                            "dur": 60, 
                            "type": "note", 
                            "channel": 9
                        }
                    ]
                ], 
                [
                    84720, 
                    [
                        {
                            "instrument": 32, 
                            "type": "programChange", 
                            "t0": 84720, 
                            "channel": 9
                        }, 
                        {
                            "pitch": 83, 
                            "t0": 84720, 
                            "v": 57, 
                            "dur": 60, 
                            "type": "note", 
                            "channel": 9
                        }
                    ]
                ], 
                [
                    84840, 
                    [
                        {
                            "pitch": 83, 
                            "t0": 84840, 
                            "v": 61, 
                            "dur": 60, 
                            "type": "note", 
                            "channel": 9
                        }
                    ]
                ], 
                [
                    85680, 
                    [
                        {
                            "pitch": 83, 
                            "t0": 85680, 
                            "v": 57, 
                            "dur": 60, 
                            "type": "note", 
                            "channel": 9
                        }
                    ]
                ], 
                [
                    86640, 
                    [
                        {
                            "pitch": 83, 
                            "t0": 86640, 
                            "v": 57, 
                            "dur": 60, 
                            "type": "note", 
                            "channel": 9
                        }
                    ]
                ], 
                [
                    86880, 
                    [
                        {
                            "pitch": 83, 
                            "t0": 86880, 
                            "v": 62, 
                            "dur": 60, 
                            "type": "note", 
                            "channel": 9
                        }
                    ]
                ], 
                [
                    87600, 
                    [
                        {
                            "pitch": 83, 
                            "t0": 87600, 
                            "v": 57, 
                            "dur": 60, 
                            "type": "note", 
                            "channel": 9
                        }
                    ]
                ], 
                [
                    88560, 
                    [
                        {
                            "pitch": 83, 
                            "t0": 88560, 
                            "v": 57, 
                            "dur": 60, 
                            "type": "note", 
                            "channel": 9
                        }
                    ]
                ], 
                [
                    88680, 
                    [
                        {
                            "pitch": 83, 
                            "t0": 88680, 
                            "v": 57, 
                            "dur": 60, 
                            "type": "note", 
                            "channel": 9
                        }
                    ]
                ], 
                [
                    89520, 
                    [
                        {
                            "pitch": 83, 
                            "t0": 89520, 
                            "v": 57, 
                            "dur": 60, 
                            "type": "note", 
                            "channel": 9
                        }
                    ]
                ], 
                [
                    90480, 
                    [
                        {
                            "pitch": 83, 
                            "t0": 90480, 
                            "v": 57, 
                            "dur": 60, 
                            "type": "note", 
                            "channel": 9
                        }
                    ]
                ], 
                [
                    90600, 
                    [
                        {
                            "pitch": 83, 
                            "t0": 90600, 
                            "v": 57, 
                            "dur": 60, 
                            "type": "note", 
                            "channel": 9
                        }
                    ]
                ], 
                [
                    90960, 
                    [
                        {
                            "pitch": 83, 
                            "t0": 90960, 
                            "v": 57, 
                            "dur": 60, 
                            "type": "note", 
                            "channel": 9
                        }
                    ]
                ], 
                [
                    91440, 
                    [
                        {
                            "pitch": 83, 
                            "t0": 91440, 
                            "v": 57, 
                            "dur": 60, 
                            "type": "note", 
                            "channel": 9
                        }
                    ]
                ], 
                [
                    92400, 
                    [
                        {
                            "instrument": 32, 
                            "type": "programChange", 
                            "t0": 92400, 
                            "channel": 9
                        }, 
                        {
                            "pitch": 83, 
                            "t0": 92400, 
                            "v": 57, 
                            "dur": 60, 
                            "type": "note", 
                            "channel": 9
                        }
                    ]
                ], 
                [
                    92520, 
                    [
                        {
                            "pitch": 83, 
                            "t0": 92520, 
                            "v": 61, 
                            "dur": 60, 
                            "type": "note", 
                            "channel": 9
                        }
                    ]
                ], 
                [
                    93360, 
                    [
                        {
                            "pitch": 83, 
                            "t0": 93360, 
                            "v": 57, 
                            "dur": 60, 
                            "type": "note", 
                            "channel": 9
                        }
                    ]
                ], 
                [
                    94320, 
                    [
                        {
                            "pitch": 83, 
                            "t0": 94320, 
                            "v": 57, 
                            "dur": 60, 
                            "type": "note", 
                            "channel": 9
                        }
                    ]
                ], 
                [
                    94560, 
                    [
                        {
                            "pitch": 83, 
                            "t0": 94560, 
                            "v": 62, 
                            "dur": 60, 
                            "type": "note", 
                            "channel": 9
                        }
                    ]
                ], 
                [
                    95280, 
                    [
                        {
                            "pitch": 83, 
                            "t0": 95280, 
                            "v": 57, 
                            "dur": 60, 
                            "type": "note", 
                            "channel": 9
                        }
                    ]
                ], 
                [
                    96240, 
                    [
                        {
                            "pitch": 83, 
                            "t0": 96240, 
                            "v": 57, 
                            "dur": 60, 
                            "type": "note", 
                            "channel": 9
                        }
                    ]
                ], 
                [
                    96360, 
                    [
                        {
                            "pitch": 83, 
                            "t0": 96360, 
                            "v": 57, 
                            "dur": 60, 
                            "type": "note", 
                            "channel": 9
                        }
                    ]
                ], 
                [
                    97200, 
                    [
                        {
                            "pitch": 83, 
                            "t0": 97200, 
                            "v": 57, 
                            "dur": 60, 
                            "type": "note", 
                            "channel": 9
                        }
                    ]
                ], 
                [
                    98160, 
                    [
                        {
                            "pitch": 83, 
                            "t0": 98160, 
                            "v": 57, 
                            "dur": 60, 
                            "type": "note", 
                            "channel": 9
                        }
                    ]
                ], 
                [
                    98280, 
                    [
                        {
                            "pitch": 83, 
                            "t0": 98280, 
                            "v": 57, 
                            "dur": 60, 
                            "type": "note", 
                            "channel": 9
                        }
                    ]
                ], 
                [
                    98640, 
                    [
                        {
                            "pitch": 83, 
                            "t0": 98640, 
                            "v": 57, 
                            "dur": 60, 
                            "type": "note", 
                            "channel": 9
                        }
                    ]
                ], 
                [
                    99120, 
                    [
                        {
                            "pitch": 83, 
                            "t0": 99120, 
                            "v": 57, 
                            "dur": 60, 
                            "type": "note", 
                            "channel": 9
                        }
                    ]
                ], 
                [
                    100080, 
                    [
                        {
                            "instrument": 32, 
                            "type": "programChange", 
                            "t0": 100080, 
                            "channel": 9
                        }, 
                        {
                            "pitch": 83, 
                            "t0": 100080, 
                            "v": 57, 
                            "dur": 60, 
                            "type": "note", 
                            "channel": 9
                        }
                    ]
                ], 
                [
                    100200, 
                    [
                        {
                            "pitch": 83, 
                            "t0": 100200, 
                            "v": 61, 
                            "dur": 60, 
                            "type": "note", 
                            "channel": 9
                        }
                    ]
                ], 
                [
                    101040, 
                    [
                        {
                            "pitch": 83, 
                            "t0": 101040, 
                            "v": 57, 
                            "dur": 60, 
                            "type": "note", 
                            "channel": 9
                        }
                    ]
                ], 
                [
                    102000, 
                    [
                        {
                            "pitch": 83, 
                            "t0": 102000, 
                            "v": 57, 
                            "dur": 60, 
                            "type": "note", 
                            "channel": 9
                        }
                    ]
                ], 
                [
                    102240, 
                    [
                        {
                            "pitch": 83, 
                            "t0": 102240, 
                            "v": 62, 
                            "dur": 60, 
                            "type": "note", 
                            "channel": 9
                        }
                    ]
                ], 
                [
                    102960, 
                    [
                        {
                            "pitch": 83, 
                            "t0": 102960, 
                            "v": 57, 
                            "dur": 60, 
                            "type": "note", 
                            "channel": 9
                        }
                    ]
                ], 
                [
                    103920, 
                    [
                        {
                            "pitch": 83, 
                            "t0": 103920, 
                            "v": 57, 
                            "dur": 60, 
                            "type": "note", 
                            "channel": 9
                        }
                    ]
                ], 
                [
                    104040, 
                    [
                        {
                            "pitch": 83, 
                            "t0": 104040, 
                            "v": 57, 
                            "dur": 60, 
                            "type": "note", 
                            "channel": 9
                        }
                    ]
                ], 
                [
                    104880, 
                    [
                        {
                            "pitch": 83, 
                            "t0": 104880, 
                            "v": 57, 
                            "dur": 60, 
                            "type": "note", 
                            "channel": 9
                        }
                    ]
                ], 
                [
                    105840, 
                    [
                        {
                            "pitch": 83, 
                            "t0": 105840, 
                            "v": 57, 
                            "dur": 60, 
                            "type": "note", 
                            "channel": 9
                        }
                    ]
                ], 
                [
                    105960, 
                    [
                        {
                            "pitch": 83, 
                            "t0": 105960, 
                            "v": 57, 
                            "dur": 60, 
                            "type": "note", 
                            "channel": 9
                        }
                    ]
                ], 
                [
                    106320, 
                    [
                        {
                            "pitch": 83, 
                            "t0": 106320, 
                            "v": 57, 
                            "dur": 60, 
                            "type": "note", 
                            "channel": 9
                        }
                    ]
                ], 
                [
                    106800, 
                    [
                        {
                            "pitch": 83, 
                            "t0": 106800, 
                            "v": 57, 
                            "dur": 60, 
                            "type": "note", 
                            "channel": 9
                        }
                    ]
                ], 
                [
                    107760, 
                    [
                        {
                            "instrument": 32, 
                            "type": "programChange", 
                            "t0": 107760, 
                            "channel": 9
                        }, 
                        {
                            "pitch": 83, 
                            "t0": 107760, 
                            "v": 57, 
                            "dur": 60, 
                            "type": "note", 
                            "channel": 9
                        }
                    ]
                ], 
                [
                    107880, 
                    [
                        {
                            "pitch": 83, 
                            "t0": 107880, 
                            "v": 61, 
                            "dur": 60, 
                            "type": "note", 
                            "channel": 9
                        }
                    ]
                ], 
                [
                    108720, 
                    [
                        {
                            "pitch": 83, 
                            "t0": 108720, 
                            "v": 57, 
                            "dur": 60, 
                            "type": "note", 
                            "channel": 9
                        }
                    ]
                ], 
                [
                    109680, 
                    [
                        {
                            "pitch": 83, 
                            "t0": 109680, 
                            "v": 57, 
                            "dur": 60, 
                            "type": "note", 
                            "channel": 9
                        }
                    ]
                ], 
                [
                    109920, 
                    [
                        {
                            "pitch": 83, 
                            "t0": 109920, 
                            "v": 62, 
                            "dur": 60, 
                            "type": "note", 
                            "channel": 9
                        }
                    ]
                ], 
                [
                    110640, 
                    [
                        {
                            "pitch": 83, 
                            "t0": 110640, 
                            "v": 57, 
                            "dur": 60, 
                            "type": "note", 
                            "channel": 9
                        }
                    ]
                ], 
                [
                    111600, 
                    [
                        {
                            "pitch": 83, 
                            "t0": 111600, 
                            "v": 57, 
                            "dur": 60, 
                            "type": "note", 
                            "channel": 9
                        }
                    ]
                ], 
                [
                    111720, 
                    [
                        {
                            "pitch": 83, 
                            "t0": 111720, 
                            "v": 57, 
                            "dur": 60, 
                            "type": "note", 
                            "channel": 9
                        }
                    ]
                ], 
                [
                    112560, 
                    [
                        {
                            "pitch": 83, 
                            "t0": 112560, 
                            "v": 57, 
                            "dur": 60, 
                            "type": "note", 
                            "channel": 9
                        }
                    ]
                ], 
                [
                    113520, 
                    [
                        {
                            "pitch": 83, 
                            "t0": 113520, 
                            "v": 57, 
                            "dur": 60, 
                            "type": "note", 
                            "channel": 9
                        }
                    ]
                ], 
                [
                    113640, 
                    [
                        {
                            "pitch": 83, 
                            "t0": 113640, 
                            "v": 57, 
                            "dur": 60, 
                            "type": "note", 
                            "channel": 9
                        }
                    ]
                ], 
                [
                    114000, 
                    [
                        {
                            "pitch": 83, 
                            "t0": 114000, 
                            "v": 57, 
                            "dur": 60, 
                            "type": "note", 
                            "channel": 9
                        }
                    ]
                ], 
                [
                    114480, 
                    [
                        {
                            "pitch": 83, 
                            "t0": 114480, 
                            "v": 57, 
                            "dur": 60, 
                            "type": "note", 
                            "channel": 9
                        }
                    ]
                ], 
                [
                    115440, 
                    [
                        {
                            "instrument": 32, 
                            "type": "programChange", 
                            "t0": 115440, 
                            "channel": 9
                        }, 
                        {
                            "pitch": 83, 
                            "t0": 115440, 
                            "v": 57, 
                            "dur": 60, 
                            "type": "note", 
                            "channel": 9
                        }
                    ]
                ], 
                [
                    115560, 
                    [
                        {
                            "pitch": 83, 
                            "t0": 115560, 
                            "v": 61, 
                            "dur": 60, 
                            "type": "note", 
                            "channel": 9
                        }
                    ]
                ], 
                [
                    116400, 
                    [
                        {
                            "pitch": 83, 
                            "t0": 116400, 
                            "v": 57, 
                            "dur": 60, 
                            "type": "note", 
                            "channel": 9
                        }
                    ]
                ], 
                [
                    117360, 
                    [
                        {
                            "pitch": 83, 
                            "t0": 117360, 
                            "v": 57, 
                            "dur": 60, 
                            "type": "note", 
                            "channel": 9
                        }
                    ]
                ], 
                [
                    117600, 
                    [
                        {
                            "pitch": 83, 
                            "t0": 117600, 
                            "v": 62, 
                            "dur": 60, 
                            "type": "note", 
                            "channel": 9
                        }
                    ]
                ], 
                [
                    118320, 
                    [
                        {
                            "pitch": 83, 
                            "t0": 118320, 
                            "v": 57, 
                            "dur": 60, 
                            "type": "note", 
                            "channel": 9
                        }
                    ]
                ], 
                [
                    119280, 
                    [
                        {
                            "pitch": 83, 
                            "t0": 119280, 
                            "v": 57, 
                            "dur": 60, 
                            "type": "note", 
                            "channel": 9
                        }
                    ]
                ], 
                [
                    119400, 
                    [
                        {
                            "pitch": 83, 
                            "t0": 119400, 
                            "v": 57, 
                            "dur": 60, 
                            "type": "note", 
                            "channel": 9
                        }
                    ]
                ], 
                [
                    120240, 
                    [
                        {
                            "pitch": 83, 
                            "t0": 120240, 
                            "v": 57, 
                            "dur": 60, 
                            "type": "note", 
                            "channel": 9
                        }
                    ]
                ], 
                [
                    121200, 
                    [
                        {
                            "pitch": 83, 
                            "t0": 121200, 
                            "v": 57, 
                            "dur": 60, 
                            "type": "note", 
                            "channel": 9
                        }
                    ]
                ], 
                [
                    121320, 
                    [
                        {
                            "pitch": 83, 
                            "t0": 121320, 
                            "v": 57, 
                            "dur": 60, 
                            "type": "note", 
                            "channel": 9
                        }
                    ]
                ], 
                [
                    121680, 
                    [
                        {
                            "pitch": 83, 
                            "t0": 121680, 
                            "v": 57, 
                            "dur": 60, 
                            "type": "note", 
                            "channel": 9
                        }
                    ]
                ], 
                [
                    122160, 
                    [
                        {
                            "pitch": 83, 
                            "t0": 122160, 
                            "v": 57, 
                            "dur": 60, 
                            "type": "note", 
                            "channel": 9
                        }
                    ]
                ], 
                [
                    123120, 
                    [
                        {
                            "instrument": 32, 
                            "type": "programChange", 
                            "t0": 123120, 
                            "channel": 9
                        }, 
                        {
                            "pitch": 83, 
                            "t0": 123120, 
                            "v": 57, 
                            "dur": 60, 
                            "type": "note", 
                            "channel": 9
                        }
                    ]
                ], 
                [
                    123240, 
                    [
                        {
                            "pitch": 83, 
                            "t0": 123240, 
                            "v": 61, 
                            "dur": 60, 
                            "type": "note", 
                            "channel": 9
                        }
                    ]
                ], 
                [
                    124080, 
                    [
                        {
                            "pitch": 83, 
                            "t0": 124080, 
                            "v": 57, 
                            "dur": 60, 
                            "type": "note", 
                            "channel": 9
                        }
                    ]
                ], 
                [
                    125040, 
                    [
                        {
                            "pitch": 83, 
                            "t0": 125040, 
                            "v": 57, 
                            "dur": 60, 
                            "type": "note", 
                            "channel": 9
                        }
                    ]
                ], 
                [
                    125280, 
                    [
                        {
                            "pitch": 83, 
                            "t0": 125280, 
                            "v": 62, 
                            "dur": 60, 
                            "type": "note", 
                            "channel": 9
                        }
                    ]
                ], 
                [
                    126000, 
                    [
                        {
                            "pitch": 83, 
                            "t0": 126000, 
                            "v": 57, 
                            "dur": 60, 
                            "type": "note", 
                            "channel": 9
                        }
                    ]
                ], 
                [
                    126960, 
                    [
                        {
                            "pitch": 83, 
                            "t0": 126960, 
                            "v": 57, 
                            "dur": 60, 
                            "type": "note", 
                            "channel": 9
                        }
                    ]
                ], 
                [
                    127080, 
                    [
                        {
                            "pitch": 83, 
                            "t0": 127080, 
                            "v": 57, 
                            "dur": 60, 
                            "type": "note", 
                            "channel": 9
                        }
                    ]
                ], 
                [
                    127920, 
                    [
                        {
                            "pitch": 83, 
                            "t0": 127920, 
                            "v": 57, 
                            "dur": 60, 
                            "type": "note", 
                            "channel": 9
                        }
                    ]
                ], 
                [
                    128880, 
                    [
                        {
                            "pitch": 83, 
                            "t0": 128880, 
                            "v": 57, 
                            "dur": 60, 
                            "type": "note", 
                            "channel": 9
                        }
                    ]
                ], 
                [
                    129000, 
                    [
                        {
                            "pitch": 83, 
                            "t0": 129000, 
                            "v": 57, 
                            "dur": 60, 
                            "type": "note", 
                            "channel": 9
                        }
                    ]
                ], 
                [
                    129360, 
                    [
                        {
                            "pitch": 83, 
                            "t0": 129360, 
                            "v": 57, 
                            "dur": 60, 
                            "type": "note", 
                            "channel": 9
                        }
                    ]
                ], 
                [
                    129840, 
                    [
                        {
                            "pitch": 83, 
                            "t0": 129840, 
                            "v": 57, 
                            "dur": 60, 
                            "type": "note", 
                            "channel": 9
                        }
                    ]
                ]
            ], 
            "instruments": [
                32
            ], 
            "tMax": 129840, 
            "channels": [
                9
            ], 
            "instrument": 32, 
            "numNotes": 221, 
            "type": "TrackObj"
        }, 
        {
            "trackName": "SoloSynthVx", 
            "seq": [
                [
                    0, 
                    [
                        {
                            "instrument": 85, 
                            "type": "programChange", 
                            "t0": 0, 
                            "channel": 4
                        }
                    ]
                ], 
                [
                    21, 
                    [
                        {
                            "instrument": 85, 
                            "type": "programChange", 
                            "t0": 21, 
                            "channel": 4
                        }, 
                        {
                            "pitch": 38, 
                            "t0": 21, 
                            "v": 104, 
                            "dur": 3762, 
                            "type": "note", 
                            "channel": 4
                        }
                    ]
                ], 
                [
                    3827, 
                    [
                        {
                            "pitch": 38, 
                            "t0": 3827, 
                            "v": 116, 
                            "dur": 3792, 
                            "type": "note", 
                            "channel": 4
                        }
                    ]
                ], 
                [
                    7668, 
                    [
                        {
                            "pitch": 38, 
                            "t0": 7668, 
                            "v": 120, 
                            "dur": 3742, 
                            "type": "note", 
                            "channel": 4
                        }
                    ]
                ], 
                [
                    11481, 
                    [
                        {
                            "pitch": 38, 
                            "t0": 11481, 
                            "v": 120, 
                            "dur": 3811, 
                            "type": "note", 
                            "channel": 4
                        }
                    ]
                ], 
                [
                    15352, 
                    [
                        {
                            "pitch": 38, 
                            "t0": 15352, 
                            "v": 112, 
                            "dur": 3762, 
                            "type": "note", 
                            "channel": 4
                        }
                    ]
                ], 
                [
                    19189, 
                    [
                        {
                            "pitch": 38, 
                            "t0": 19189, 
                            "v": 116, 
                            "dur": 3764, 
                            "type": "note", 
                            "channel": 4
                        }
                    ]
                ], 
                [
                    23028, 
                    [
                        {
                            "pitch": 38, 
                            "t0": 23028, 
                            "v": 116, 
                            "dur": 3776, 
                            "type": "note", 
                            "channel": 4
                        }
                    ]
                ], 
                [
                    26869, 
                    [
                        {
                            "pitch": 38, 
                            "t0": 26869, 
                            "v": 112, 
                            "dur": 3817, 
                            "type": "note", 
                            "channel": 4
                        }
                    ]
                ], 
                [
                    30725, 
                    [
                        {
                            "pitch": 38, 
                            "t0": 30725, 
                            "v": 112, 
                            "dur": 3805, 
                            "type": "note", 
                            "channel": 4
                        }
                    ]
                ], 
                [
                    34568, 
                    [
                        {
                            "pitch": 38, 
                            "t0": 34568, 
                            "v": 116, 
                            "dur": 3759, 
                            "type": "note", 
                            "channel": 4
                        }
                    ]
                ], 
                [
                    38386, 
                    [
                        {
                            "pitch": 38, 
                            "t0": 38386, 
                            "v": 108, 
                            "dur": 3801, 
                            "type": "note", 
                            "channel": 4
                        }
                    ]
                ], 
                [
                    42235, 
                    [
                        {
                            "pitch": 38, 
                            "t0": 42235, 
                            "v": 108, 
                            "dur": 3776, 
                            "type": "note", 
                            "channel": 4
                        }
                    ]
                ], 
                [
                    46063, 
                    [
                        {
                            "pitch": 38, 
                            "t0": 46063, 
                            "v": 108, 
                            "dur": 3782, 
                            "type": "note", 
                            "channel": 4
                        }
                    ]
                ], 
                [
                    49912, 
                    [
                        {
                            "pitch": 38, 
                            "t0": 49912, 
                            "v": 116, 
                            "dur": 3803, 
                            "type": "note", 
                            "channel": 4
                        }
                    ]
                ], 
                [
                    53758, 
                    [
                        {
                            "pitch": 38, 
                            "t0": 53758, 
                            "v": 116, 
                            "dur": 3792, 
                            "type": "note", 
                            "channel": 4
                        }
                    ]
                ], 
                [
                    57602, 
                    [
                        {
                            "pitch": 38, 
                            "t0": 57602, 
                            "v": 108, 
                            "dur": 3784, 
                            "type": "note", 
                            "channel": 4
                        }
                    ]
                ], 
                [
                    61435, 
                    [
                        {
                            "pitch": 38, 
                            "t0": 61435, 
                            "v": 108, 
                            "dur": 3764, 
                            "type": "note", 
                            "channel": 4
                        }
                    ]
                ], 
                [
                    65259, 
                    [
                        {
                            "pitch": 38, 
                            "t0": 65259, 
                            "v": 112, 
                            "dur": 3790, 
                            "type": "note", 
                            "channel": 4
                        }
                    ]
                ], 
                [
                    69101, 
                    [
                        {
                            "pitch": 38, 
                            "t0": 69101, 
                            "v": 96, 
                            "dur": 3817, 
                            "type": "note", 
                            "channel": 4
                        }
                    ]
                ], 
                [
                    72968, 
                    [
                        {
                            "pitch": 38, 
                            "t0": 72968, 
                            "v": 112, 
                            "dur": 3852, 
                            "type": "note", 
                            "channel": 4
                        }
                    ]
                ], 
                [
                    76868, 
                    [
                        {
                            "pitch": 38, 
                            "t0": 76868, 
                            "v": 116, 
                            "dur": 3711, 
                            "type": "note", 
                            "channel": 4
                        }
                    ]
                ], 
                [
                    80638, 
                    [
                        {
                            "pitch": 38, 
                            "t0": 80638, 
                            "v": 108, 
                            "dur": 3784, 
                            "type": "note", 
                            "channel": 4
                        }
                    ]
                ], 
                [
                    84475, 
                    [
                        {
                            "pitch": 38, 
                            "t0": 84475, 
                            "v": 108, 
                            "dur": 3823, 
                            "type": "note", 
                            "channel": 4
                        }
                    ]
                ], 
                [
                    88340, 
                    [
                        {
                            "pitch": 38, 
                            "t0": 88340, 
                            "v": 104, 
                            "dur": 3749, 
                            "type": "note", 
                            "channel": 4
                        }
                    ]
                ], 
                [
                    92137, 
                    [
                        {
                            "pitch": 38, 
                            "t0": 92137, 
                            "v": 112, 
                            "dur": 3798, 
                            "type": "note", 
                            "channel": 4
                        }
                    ]
                ], 
                [
                    95994, 
                    [
                        {
                            "pitch": 38, 
                            "t0": 95994, 
                            "v": 112, 
                            "dur": 3798, 
                            "type": "note", 
                            "channel": 4
                        }
                    ]
                ], 
                [
                    99836, 
                    [
                        {
                            "pitch": 38, 
                            "t0": 99836, 
                            "v": 100, 
                            "dur": 3758, 
                            "type": "note", 
                            "channel": 4
                        }
                    ]
                ], 
                [
                    103680, 
                    [
                        {
                            "pitch": 38, 
                            "t0": 103680, 
                            "v": 112, 
                            "dur": 3796, 
                            "type": "note", 
                            "channel": 4
                        }
                    ]
                ], 
                [
                    107522, 
                    [
                        {
                            "pitch": 38, 
                            "t0": 107522, 
                            "v": 108, 
                            "dur": 3807, 
                            "type": "note", 
                            "channel": 4
                        }
                    ]
                ], 
                [
                    111368, 
                    [
                        {
                            "pitch": 38, 
                            "t0": 111368, 
                            "v": 108, 
                            "dur": 3791, 
                            "type": "note", 
                            "channel": 4
                        }
                    ]
                ], 
                [
                    115205, 
                    [
                        {
                            "pitch": 38, 
                            "t0": 115205, 
                            "v": 112, 
                            "dur": 3781, 
                            "type": "note", 
                            "channel": 4
                        }
                    ]
                ], 
                [
                    119046, 
                    [
                        {
                            "pitch": 38, 
                            "t0": 119046, 
                            "v": 108, 
                            "dur": 3762, 
                            "type": "note", 
                            "channel": 4
                        }
                    ]
                ], 
                [
                    122864, 
                    [
                        {
                            "pitch": 38, 
                            "t0": 122864, 
                            "v": 112, 
                            "dur": 3815, 
                            "type": "note", 
                            "channel": 4
                        }
                    ]
                ], 
                [
                    126732, 
                    [
                        {
                            "pitch": 38, 
                            "t0": 126732, 
                            "v": 104, 
                            "dur": 3985, 
                            "type": "note", 
                            "channel": 4
                        }
                    ]
                ]
            ], 
            "instruments": [
                85
            ], 
            "tMax": 126732, 
            "channels": [
                4
            ], 
            "instrument": 85, 
            "numNotes": 34, 
            "type": "TrackObj"
        }, 
        {
            "trackName": "Strings", 
            "seq": [
                [
                    0, 
                    [
                        {
                            "instrument": 48, 
                            "type": "programChange", 
                            "t0": 0, 
                            "channel": 5
                        }
                    ]
                ], 
                [
                    15342, 
                    [
                        {
                            "instrument": 48, 
                            "type": "programChange", 
                            "t0": 15342, 
                            "channel": 5
                        }, 
                        {
                            "pitch": 60, 
                            "t0": 15342, 
                            "v": 96, 
                            "dur": 1508, 
                            "type": "note", 
                            "channel": 5
                        }
                    ]
                ], 
                [
                    15343, 
                    [
                        {
                            "pitch": 64, 
                            "t0": 15343, 
                            "v": 116, 
                            "dur": 1496, 
                            "type": "note", 
                            "channel": 5
                        }, 
                        {
                            "pitch": 57, 
                            "t0": 15343, 
                            "v": 96, 
                            "dur": 1720, 
                            "type": "note", 
                            "channel": 5
                        }
                    ]
                ], 
                [
                    17248, 
                    [
                        {
                            "pitch": 57, 
                            "t0": 17248, 
                            "v": 60, 
                            "dur": 1809, 
                            "type": "note", 
                            "channel": 5
                        }
                    ]
                ], 
                [
                    17250, 
                    [
                        {
                            "pitch": 60, 
                            "t0": 17250, 
                            "v": 72, 
                            "dur": 1761, 
                            "type": "note", 
                            "channel": 5
                        }, 
                        {
                            "pitch": 64, 
                            "t0": 17250, 
                            "v": 64, 
                            "dur": 1777, 
                            "type": "note", 
                            "channel": 5
                        }
                    ]
                ], 
                [
                    19188, 
                    [
                        {
                            "pitch": 65, 
                            "t0": 19188, 
                            "v": 92, 
                            "dur": 2742, 
                            "type": "note", 
                            "channel": 5
                        }, 
                        {
                            "pitch": 62, 
                            "t0": 19188, 
                            "v": 76, 
                            "dur": 2745, 
                            "type": "note", 
                            "channel": 5
                        }
                    ]
                ], 
                [
                    19190, 
                    [
                        {
                            "pitch": 57, 
                            "t0": 19190, 
                            "v": 92, 
                            "dur": 2782, 
                            "type": "note", 
                            "channel": 5
                        }
                    ]
                ], 
                [
                    22020, 
                    [
                        {
                            "pitch": 62, 
                            "t0": 22020, 
                            "v": 58, 
                            "dur": 938, 
                            "type": "note", 
                            "channel": 5
                        }
                    ]
                ], 
                [
                    22021, 
                    [
                        {
                            "pitch": 65, 
                            "t0": 22021, 
                            "v": 88, 
                            "dur": 941, 
                            "type": "note", 
                            "channel": 5
                        }
                    ]
                ], 
                [
                    22022, 
                    [
                        {
                            "pitch": 57, 
                            "t0": 22022, 
                            "v": 58, 
                            "dur": 960, 
                            "type": "note", 
                            "channel": 5
                        }
                    ]
                ], 
                [
                    23016, 
                    [
                        {
                            "pitch": 57, 
                            "t0": 23016, 
                            "v": 80, 
                            "dur": 1928, 
                            "type": "note", 
                            "channel": 5
                        }, 
                        {
                            "pitch": 64, 
                            "t0": 23016, 
                            "v": 92, 
                            "dur": 3786, 
                            "type": "note", 
                            "channel": 5
                        }
                    ]
                ], 
                [
                    23017, 
                    [
                        {
                            "pitch": 60, 
                            "t0": 23017, 
                            "v": 84, 
                            "dur": 1942, 
                            "type": "note", 
                            "channel": 5
                        }
                    ]
                ], 
                [
                    24970, 
                    [
                        {
                            "pitch": 60, 
                            "t0": 24970, 
                            "v": 104, 
                            "dur": 1840, 
                            "type": "note", 
                            "channel": 5
                        }
                    ]
                ], 
                [
                    24972, 
                    [
                        {
                            "pitch": 57, 
                            "t0": 24972, 
                            "v": 104, 
                            "dur": 1828, 
                            "type": "note", 
                            "channel": 5
                        }
                    ]
                ], 
                [
                    26876, 
                    [
                        {
                            "pitch": 62, 
                            "t0": 26876, 
                            "v": 112, 
                            "dur": 1876, 
                            "type": "note", 
                            "channel": 5
                        }
                    ]
                ], 
                [
                    26877, 
                    [
                        {
                            "pitch": 57, 
                            "t0": 26877, 
                            "v": 116, 
                            "dur": 1868, 
                            "type": "note", 
                            "channel": 5
                        }
                    ]
                ], 
                [
                    26878, 
                    [
                        {
                            "pitch": 65, 
                            "t0": 26878, 
                            "v": 116, 
                            "dur": 1876, 
                            "type": "note", 
                            "channel": 5
                        }
                    ]
                ], 
                [
                    28773, 
                    [
                        {
                            "pitch": 62, 
                            "t0": 28773, 
                            "v": 26, 
                            "dur": 1884, 
                            "type": "note", 
                            "channel": 5
                        }
                    ]
                ], 
                [
                    28774, 
                    [
                        {
                            "pitch": 57, 
                            "t0": 28774, 
                            "v": 112, 
                            "dur": 1910, 
                            "type": "note", 
                            "channel": 5
                        }
                    ]
                ], 
                [
                    28775, 
                    [
                        {
                            "pitch": 65, 
                            "t0": 28775, 
                            "v": 116, 
                            "dur": 1888, 
                            "type": "note", 
                            "channel": 5
                        }
                    ]
                ], 
                [
                    30715, 
                    [
                        {
                            "pitch": 60, 
                            "t0": 30715, 
                            "v": 100, 
                            "dur": 3799, 
                            "type": "note", 
                            "channel": 5
                        }
                    ]
                ], 
                [
                    30716, 
                    [
                        {
                            "pitch": 64, 
                            "t0": 30716, 
                            "v": 116, 
                            "dur": 2837, 
                            "type": "note", 
                            "channel": 5
                        }
                    ]
                ], 
                [
                    30718, 
                    [
                        {
                            "pitch": 57, 
                            "t0": 30718, 
                            "v": 104, 
                            "dur": 2391, 
                            "type": "note", 
                            "channel": 5
                        }
                    ]
                ], 
                [
                    30727, 
                    [
                        {
                            "pitch": 62, 
                            "t0": 30727, 
                            "v": 45, 
                            "dur": 39, 
                            "type": "note", 
                            "channel": 5
                        }
                    ]
                ], 
                [
                    33132, 
                    [
                        {
                            "pitch": 57, 
                            "t0": 33132, 
                            "v": 92, 
                            "dur": 2846, 
                            "type": "note", 
                            "channel": 5
                        }
                    ]
                ], 
                [
                    33576, 
                    [
                        {
                            "pitch": 64, 
                            "t0": 33576, 
                            "v": 100, 
                            "dur": 937, 
                            "type": "note", 
                            "channel": 5
                        }
                    ]
                ], 
                [
                    34541, 
                    [
                        {
                            "pitch": 62, 
                            "t0": 34541, 
                            "v": 96, 
                            "dur": 1445, 
                            "type": "note", 
                            "channel": 5
                        }
                    ]
                ], 
                [
                    34545, 
                    [
                        {
                            "pitch": 65, 
                            "t0": 34545, 
                            "v": 112, 
                            "dur": 1442, 
                            "type": "note", 
                            "channel": 5
                        }
                    ]
                ], 
                [
                    34549, 
                    [
                        {
                            "pitch": 64, 
                            "t0": 34549, 
                            "v": 88, 
                            "dur": 22, 
                            "type": "note", 
                            "channel": 5
                        }
                    ]
                ], 
                [
                    35993, 
                    [
                        {
                            "pitch": 57, 
                            "t0": 35993, 
                            "v": 92, 
                            "dur": 8115, 
                            "type": "note", 
                            "channel": 5
                        }
                    ]
                ], 
                [
                    35994, 
                    [
                        {
                            "pitch": 62, 
                            "t0": 35994, 
                            "v": 88, 
                            "dur": 1345, 
                            "type": "note", 
                            "channel": 5
                        }
                    ]
                ], 
                [
                    35996, 
                    [
                        {
                            "pitch": 65, 
                            "t0": 35996, 
                            "v": 84, 
                            "dur": 1340, 
                            "type": "note", 
                            "channel": 5
                        }
                    ]
                ], 
                [
                    37362, 
                    [
                        {
                            "pitch": 62, 
                            "t0": 37362, 
                            "v": 84, 
                            "dur": 970, 
                            "type": "note", 
                            "channel": 5
                        }
                    ]
                ], 
                [
                    37364, 
                    [
                        {
                            "pitch": 65, 
                            "t0": 37364, 
                            "v": 100, 
                            "dur": 965, 
                            "type": "note", 
                            "channel": 5
                        }
                    ]
                ], 
                [
                    38369, 
                    [
                        {
                            "pitch": 64, 
                            "t0": 38369, 
                            "v": 108, 
                            "dur": 1939, 
                            "type": "note", 
                            "channel": 5
                        }
                    ]
                ], 
                [
                    38371, 
                    [
                        {
                            "pitch": 60, 
                            "t0": 38371, 
                            "v": 104, 
                            "dur": 1939, 
                            "type": "note", 
                            "channel": 5
                        }
                    ]
                ], 
                [
                    40329, 
                    [
                        {
                            "pitch": 60, 
                            "t0": 40329, 
                            "v": 92, 
                            "dur": 1883, 
                            "type": "note", 
                            "channel": 5
                        }
                    ]
                ], 
                [
                    40330, 
                    [
                        {
                            "pitch": 64, 
                            "t0": 40330, 
                            "v": 108, 
                            "dur": 1883, 
                            "type": "note", 
                            "channel": 5
                        }
                    ]
                ], 
                [
                    40333, 
                    [
                        {
                            "pitch": 65, 
                            "t0": 40333, 
                            "v": 108, 
                            "dur": 64, 
                            "type": "note", 
                            "channel": 5
                        }
                    ]
                ], 
                [
                    42240, 
                    [
                        {
                            "pitch": 62, 
                            "t0": 42240, 
                            "v": 92, 
                            "dur": 1862, 
                            "type": "note", 
                            "channel": 5
                        }
                    ]
                ], 
                [
                    42242, 
                    [
                        {
                            "pitch": 65, 
                            "t0": 42242, 
                            "v": 116, 
                            "dur": 1869, 
                            "type": "note", 
                            "channel": 5
                        }
                    ]
                ], 
                [
                    44119, 
                    [
                        {
                            "pitch": 65, 
                            "t0": 44119, 
                            "v": 76, 
                            "dur": 911, 
                            "type": "note", 
                            "channel": 5
                        }
                    ]
                ], 
                [
                    44120, 
                    [
                        {
                            "pitch": 62, 
                            "t0": 44120, 
                            "v": 76, 
                            "dur": 915, 
                            "type": "note", 
                            "channel": 5
                        }
                    ]
                ], 
                [
                    44122, 
                    [
                        {
                            "pitch": 57, 
                            "t0": 44122, 
                            "v": 108, 
                            "dur": 2891, 
                            "type": "note", 
                            "channel": 5
                        }
                    ]
                ], 
                [
                    45047, 
                    [
                        {
                            "pitch": 62, 
                            "t0": 45047, 
                            "v": 92, 
                            "dur": 986, 
                            "type": "note", 
                            "channel": 5
                        }
                    ]
                ], 
                [
                    45049, 
                    [
                        {
                            "pitch": 65, 
                            "t0": 45049, 
                            "v": 108, 
                            "dur": 983, 
                            "type": "note", 
                            "channel": 5
                        }
                    ]
                ], 
                [
                    46065, 
                    [
                        {
                            "pitch": 64, 
                            "t0": 46065, 
                            "v": 112, 
                            "dur": 1856, 
                            "type": "note", 
                            "channel": 5
                        }
                    ]
                ], 
                [
                    46066, 
                    [
                        {
                            "pitch": 60, 
                            "t0": 46066, 
                            "v": 96, 
                            "dur": 1870, 
                            "type": "note", 
                            "channel": 5
                        }
                    ]
                ], 
                [
                    47045, 
                    [
                        {
                            "pitch": 57, 
                            "t0": 47045, 
                            "v": 112, 
                            "dur": 1815, 
                            "type": "note", 
                            "channel": 5
                        }
                    ]
                ], 
                [
                    47963, 
                    [
                        {
                            "pitch": 60, 
                            "t0": 47963, 
                            "v": 112, 
                            "dur": 1853, 
                            "type": "note", 
                            "channel": 5
                        }
                    ]
                ], 
                [
                    47965, 
                    [
                        {
                            "pitch": 64, 
                            "t0": 47965, 
                            "v": 116, 
                            "dur": 1855, 
                            "type": "note", 
                            "channel": 5
                        }
                    ]
                ], 
                [
                    48903, 
                    [
                        {
                            "pitch": 57, 
                            "t0": 48903, 
                            "v": 108, 
                            "dur": 2896, 
                            "type": "note", 
                            "channel": 5
                        }
                    ]
                ], 
                [
                    49858, 
                    [
                        {
                            "pitch": 62, 
                            "t0": 49858, 
                            "v": 104, 
                            "dur": 2879, 
                            "type": "note", 
                            "channel": 5
                        }
                    ]
                ], 
                [
                    49861, 
                    [
                        {
                            "pitch": 65, 
                            "t0": 49861, 
                            "v": 108, 
                            "dur": 925, 
                            "type": "note", 
                            "channel": 5
                        }
                    ]
                ], 
                [
                    50826, 
                    [
                        {
                            "pitch": 65, 
                            "t0": 50826, 
                            "v": 108, 
                            "dur": 1895, 
                            "type": "note", 
                            "channel": 5
                        }
                    ]
                ], 
                [
                    51839, 
                    [
                        {
                            "pitch": 57, 
                            "t0": 51839, 
                            "v": 112, 
                            "dur": 1904, 
                            "type": "note", 
                            "channel": 5
                        }
                    ]
                ], 
                [
                    52759, 
                    [
                        {
                            "pitch": 62, 
                            "t0": 52759, 
                            "v": 54, 
                            "dur": 955, 
                            "type": "note", 
                            "channel": 5
                        }
                    ]
                ], 
                [
                    52763, 
                    [
                        {
                            "pitch": 65, 
                            "t0": 52763, 
                            "v": 112, 
                            "dur": 948, 
                            "type": "note", 
                            "channel": 5
                        }
                    ]
                ], 
                [
                    53758, 
                    [
                        {
                            "pitch": 60, 
                            "t0": 53758, 
                            "v": 92, 
                            "dur": 1911, 
                            "type": "note", 
                            "channel": 5
                        }
                    ]
                ], 
                [
                    53759, 
                    [
                        {
                            "pitch": 64, 
                            "t0": 53759, 
                            "v": 120, 
                            "dur": 2829, 
                            "type": "note", 
                            "channel": 5
                        }
                    ]
                ], 
                [
                    53760, 
                    [
                        {
                            "pitch": 57, 
                            "t0": 53760, 
                            "v": 76, 
                            "dur": 933, 
                            "type": "note", 
                            "channel": 5
                        }
                    ]
                ], 
                [
                    54720, 
                    [
                        {
                            "pitch": 57, 
                            "t0": 54720, 
                            "v": 108, 
                            "dur": 928, 
                            "type": "note", 
                            "channel": 5
                        }
                    ]
                ], 
                [
                    55683, 
                    [
                        {
                            "pitch": 60, 
                            "t0": 55683, 
                            "v": 100, 
                            "dur": 1815, 
                            "type": "note", 
                            "channel": 5
                        }
                    ]
                ], 
                [
                    55685, 
                    [
                        {
                            "pitch": 57, 
                            "t0": 55685, 
                            "v": 108, 
                            "dur": 1786, 
                            "type": "note", 
                            "channel": 5
                        }
                    ]
                ], 
                [
                    56606, 
                    [
                        {
                            "pitch": 64, 
                            "t0": 56606, 
                            "v": 88, 
                            "dur": 1052, 
                            "type": "note", 
                            "channel": 5
                        }
                    ]
                ], 
                [
                    57133, 
                    [
                        {
                            "pitch": 62, 
                            "t0": 57133, 
                            "v": 104, 
                            "dur": 3792, 
                            "type": "note", 
                            "channel": 5
                        }
                    ]
                ], 
                [
                    57558, 
                    [
                        {
                            "pitch": 55, 
                            "t0": 57558, 
                            "v": 104, 
                            "dur": 3842, 
                            "type": "note", 
                            "channel": 5
                        }
                    ]
                ], 
                [
                    57559, 
                    [
                        {
                            "pitch": 59, 
                            "t0": 57559, 
                            "v": 104, 
                            "dur": 3856, 
                            "type": "note", 
                            "channel": 5
                        }
                    ]
                ], 
                [
                    60431, 
                    [
                        {
                            "pitch": 60, 
                            "t0": 60431, 
                            "v": 88, 
                            "dur": 972, 
                            "type": "note", 
                            "channel": 5
                        }
                    ]
                ], 
                [
                    60961, 
                    [
                        {
                            "pitch": 62, 
                            "t0": 60961, 
                            "v": 80, 
                            "dur": 467, 
                            "type": "note", 
                            "channel": 5
                        }
                    ]
                ], 
                [
                    61442, 
                    [
                        {
                            "pitch": 57, 
                            "t0": 61442, 
                            "v": 100, 
                            "dur": 3782, 
                            "type": "note", 
                            "channel": 5
                        }
                    ]
                ], 
                [
                    61444, 
                    [
                        {
                            "pitch": 60, 
                            "t0": 61444, 
                            "v": 108, 
                            "dur": 3770, 
                            "type": "note", 
                            "channel": 5
                        }
                    ]
                ], 
                [
                    61450, 
                    [
                        {
                            "pitch": 64, 
                            "t0": 61450, 
                            "v": 104, 
                            "dur": 3762, 
                            "type": "note", 
                            "channel": 5
                        }
                    ]
                ], 
                [
                    61459, 
                    [
                        {
                            "pitch": 62, 
                            "t0": 61459, 
                            "v": 80, 
                            "dur": 22, 
                            "type": "note", 
                            "channel": 5
                        }
                    ]
                ], 
                [
                    63371, 
                    [
                        {
                            "pitch": 62, 
                            "t0": 63371, 
                            "v": 80, 
                            "dur": 900, 
                            "type": "note", 
                            "channel": 5
                        }
                    ]
                ], 
                [
                    65242, 
                    [
                        {
                            "pitch": 57, 
                            "t0": 65242, 
                            "v": 68, 
                            "dur": 930, 
                            "type": "note", 
                            "channel": 5
                        }
                    ]
                ], 
                [
                    65243, 
                    [
                        {
                            "pitch": 62, 
                            "t0": 65243, 
                            "v": 100, 
                            "dur": 932, 
                            "type": "note", 
                            "channel": 5
                        }
                    ]
                ], 
                [
                    65245, 
                    [
                        {
                            "pitch": 65, 
                            "t0": 65245, 
                            "v": 112, 
                            "dur": 924, 
                            "type": "note", 
                            "channel": 5
                        }
                    ]
                ], 
                [
                    66195, 
                    [
                        {
                            "pitch": 65, 
                            "t0": 66195, 
                            "v": 112, 
                            "dur": 975, 
                            "type": "note", 
                            "channel": 5
                        }, 
                        {
                            "pitch": 62, 
                            "t0": 66195, 
                            "v": 84, 
                            "dur": 2868, 
                            "type": "note", 
                            "channel": 5
                        }
                    ]
                ], 
                [
                    66196, 
                    [
                        {
                            "pitch": 57, 
                            "t0": 66196, 
                            "v": 88, 
                            "dur": 1893, 
                            "type": "note", 
                            "channel": 5
                        }
                    ]
                ], 
                [
                    67194, 
                    [
                        {
                            "pitch": 65, 
                            "t0": 67194, 
                            "v": 84, 
                            "dur": 1868, 
                            "type": "note", 
                            "channel": 5
                        }
                    ]
                ], 
                [
                    68126, 
                    [
                        {
                            "pitch": 57, 
                            "t0": 68126, 
                            "v": 116, 
                            "dur": 1872, 
                            "type": "note", 
                            "channel": 5
                        }
                    ]
                ], 
                [
                    69094, 
                    [
                        {
                            "pitch": 60, 
                            "t0": 69094, 
                            "v": 108, 
                            "dur": 2841, 
                            "type": "note", 
                            "channel": 5
                        }
                    ]
                ], 
                [
                    69098, 
                    [
                        {
                            "pitch": 64, 
                            "t0": 69098, 
                            "v": 120, 
                            "dur": 1837, 
                            "type": "note", 
                            "channel": 5
                        }
                    ]
                ], 
                [
                    70041, 
                    [
                        {
                            "pitch": 57, 
                            "t0": 70041, 
                            "v": 80, 
                            "dur": 1883, 
                            "type": "note", 
                            "channel": 5
                        }
                    ]
                ], 
                [
                    70043, 
                    [
                        {
                            "pitch": 59, 
                            "t0": 70043, 
                            "v": 92, 
                            "dur": 73, 
                            "type": "note", 
                            "channel": 5
                        }
                    ]
                ], 
                [
                    70989, 
                    [
                        {
                            "pitch": 64, 
                            "t0": 70989, 
                            "v": 88, 
                            "dur": 944, 
                            "type": "note", 
                            "channel": 5
                        }
                    ]
                ], 
                [
                    71953, 
                    [
                        {
                            "pitch": 60, 
                            "t0": 71953, 
                            "v": 104, 
                            "dur": 934, 
                            "type": "note", 
                            "channel": 5
                        }
                    ]
                ], 
                [
                    71955, 
                    [
                        {
                            "pitch": 64, 
                            "t0": 71955, 
                            "v": 104, 
                            "dur": 928, 
                            "type": "note", 
                            "channel": 5
                        }
                    ]
                ], 
                [
                    71957, 
                    [
                        {
                            "pitch": 57, 
                            "t0": 71957, 
                            "v": 108, 
                            "dur": 2865, 
                            "type": "note", 
                            "channel": 5
                        }
                    ]
                ], 
                [
                    72910, 
                    [
                        {
                            "pitch": 62, 
                            "t0": 72910, 
                            "v": 100, 
                            "dur": 1923, 
                            "type": "note", 
                            "channel": 5
                        }
                    ]
                ], 
                [
                    72914, 
                    [
                        {
                            "pitch": 65, 
                            "t0": 72914, 
                            "v": 120, 
                            "dur": 1917, 
                            "type": "note", 
                            "channel": 5
                        }
                    ]
                ], 
                [
                    73891, 
                    [
                        {
                            "pitch": 64, 
                            "t0": 73891, 
                            "v": 108, 
                            "dur": 241, 
                            "type": "note", 
                            "channel": 5
                        }
                    ]
                ], 
                [
                    74239, 
                    [
                        {
                            "pitch": 64, 
                            "t0": 74239, 
                            "v": 56, 
                            "dur": 565, 
                            "type": "note", 
                            "channel": 5
                        }
                    ]
                ], 
                [
                    74847, 
                    [
                        {
                            "pitch": 65, 
                            "t0": 74847, 
                            "v": 80, 
                            "dur": 944, 
                            "type": "note", 
                            "channel": 5
                        }, 
                        {
                            "pitch": 62, 
                            "t0": 74847, 
                            "v": 96, 
                            "dur": 948, 
                            "type": "note", 
                            "channel": 5
                        }
                    ]
                ], 
                [
                    74848, 
                    [
                        {
                            "pitch": 57, 
                            "t0": 74848, 
                            "v": 76, 
                            "dur": 945, 
                            "type": "note", 
                            "channel": 5
                        }
                    ]
                ], 
                [
                    75813, 
                    [
                        {
                            "pitch": 62, 
                            "t0": 75813, 
                            "v": 80, 
                            "dur": 906, 
                            "type": "note", 
                            "channel": 5
                        }
                    ]
                ], 
                [
                    75814, 
                    [
                        {
                            "pitch": 65, 
                            "t0": 75814, 
                            "v": 100, 
                            "dur": 899, 
                            "type": "note", 
                            "channel": 5
                        }
                    ]
                ], 
                [
                    75815, 
                    [
                        {
                            "pitch": 57, 
                            "t0": 75815, 
                            "v": 76, 
                            "dur": 2816, 
                            "type": "note", 
                            "channel": 5
                        }
                    ]
                ], 
                [
                    76754, 
                    [
                        {
                            "pitch": 64, 
                            "t0": 76754, 
                            "v": 108, 
                            "dur": 1891, 
                            "type": "note", 
                            "channel": 5
                        }
                    ]
                ], 
                [
                    76755, 
                    [
                        {
                            "pitch": 60, 
                            "t0": 76755, 
                            "v": 100, 
                            "dur": 1889, 
                            "type": "note", 
                            "channel": 5
                        }
                    ]
                ], 
                [
                    78665, 
                    [
                        {
                            "pitch": 60, 
                            "t0": 78665, 
                            "v": 100, 
                            "dur": 962, 
                            "type": "note", 
                            "channel": 5
                        }, 
                        {
                            "pitch": 64, 
                            "t0": 78665, 
                            "v": 104, 
                            "dur": 966, 
                            "type": "note", 
                            "channel": 5
                        }
                    ]
                ], 
                [
                    78666, 
                    [
                        {
                            "pitch": 57, 
                            "t0": 78666, 
                            "v": 92, 
                            "dur": 960, 
                            "type": "note", 
                            "channel": 5
                        }
                    ]
                ], 
                [
                    79652, 
                    [
                        {
                            "pitch": 60, 
                            "t0": 79652, 
                            "v": 104, 
                            "dur": 928, 
                            "type": "note", 
                            "channel": 5
                        }
                    ]
                ], 
                [
                    79654, 
                    [
                        {
                            "pitch": 64, 
                            "t0": 79654, 
                            "v": 112, 
                            "dur": 926, 
                            "type": "note", 
                            "channel": 5
                        }
                    ]
                ], 
                [
                    79655, 
                    [
                        {
                            "pitch": 57, 
                            "t0": 79655, 
                            "v": 100, 
                            "dur": 2894, 
                            "type": "note", 
                            "channel": 5
                        }
                    ]
                ], 
                [
                    80614, 
                    [
                        {
                            "pitch": 62, 
                            "t0": 80614, 
                            "v": 96, 
                            "dur": 1932, 
                            "type": "note", 
                            "channel": 5
                        }
                    ]
                ], 
                [
                    80615, 
                    [
                        {
                            "pitch": 65, 
                            "t0": 80615, 
                            "v": 104, 
                            "dur": 1935, 
                            "type": "note", 
                            "channel": 5
                        }
                    ]
                ], 
                [
                    82561, 
                    [
                        {
                            "pitch": 62, 
                            "t0": 82561, 
                            "v": 76, 
                            "dur": 1870, 
                            "type": "note", 
                            "channel": 5
                        }
                    ]
                ], 
                [
                    82562, 
                    [
                        {
                            "pitch": 57, 
                            "t0": 82562, 
                            "v": 72, 
                            "dur": 3787, 
                            "type": "note", 
                            "channel": 5
                        }
                    ]
                ], 
                [
                    82563, 
                    [
                        {
                            "pitch": 65, 
                            "t0": 82563, 
                            "v": 108, 
                            "dur": 1857, 
                            "type": "note", 
                            "channel": 5
                        }
                    ]
                ], 
                [
                    83475, 
                    [
                        {
                            "pitch": 64, 
                            "t0": 83475, 
                            "v": 108, 
                            "dur": 924, 
                            "type": "note", 
                            "channel": 5
                        }
                    ]
                ], 
                [
                    84450, 
                    [
                        {
                            "pitch": 64, 
                            "t0": 84450, 
                            "v": 92, 
                            "dur": 1897, 
                            "type": "note", 
                            "channel": 5
                        }
                    ]
                ], 
                [
                    84453, 
                    [
                        {
                            "pitch": 60, 
                            "t0": 84453, 
                            "v": 104, 
                            "dur": 3787, 
                            "type": "note", 
                            "channel": 5
                        }
                    ]
                ], 
                [
                    84466, 
                    [
                        {
                            "pitch": 62, 
                            "t0": 84466, 
                            "v": 68, 
                            "dur": 18, 
                            "type": "note", 
                            "channel": 5
                        }
                    ]
                ], 
                [
                    86359, 
                    [
                        {
                            "pitch": 57, 
                            "t0": 86359, 
                            "v": 58, 
                            "dur": 1894, 
                            "type": "note", 
                            "channel": 5
                        }
                    ]
                ], 
                [
                    86364, 
                    [
                        {
                            "pitch": 64, 
                            "t0": 86364, 
                            "v": 112, 
                            "dur": 1875, 
                            "type": "note", 
                            "channel": 5
                        }
                    ]
                ], 
                [
                    88277, 
                    [
                        {
                            "pitch": 62, 
                            "t0": 88277, 
                            "v": 108, 
                            "dur": 1927, 
                            "type": "note", 
                            "channel": 5
                        }
                    ]
                ], 
                [
                    88278, 
                    [
                        {
                            "pitch": 57, 
                            "t0": 88278, 
                            "v": 80, 
                            "dur": 1929, 
                            "type": "note", 
                            "channel": 5
                        }
                    ]
                ], 
                [
                    88279, 
                    [
                        {
                            "pitch": 65, 
                            "t0": 88279, 
                            "v": 108, 
                            "dur": 1920, 
                            "type": "note", 
                            "channel": 5
                        }
                    ]
                ], 
                [
                    90224, 
                    [
                        {
                            "pitch": 57, 
                            "t0": 90224, 
                            "v": 88, 
                            "dur": 1909, 
                            "type": "note", 
                            "channel": 5
                        }
                    ]
                ], 
                [
                    90225, 
                    [
                        {
                            "pitch": 62, 
                            "t0": 90225, 
                            "v": 80, 
                            "dur": 1893, 
                            "type": "note", 
                            "channel": 5
                        }
                    ]
                ], 
                [
                    90226, 
                    [
                        {
                            "pitch": 65, 
                            "t0": 90226, 
                            "v": 120, 
                            "dur": 1897, 
                            "type": "note", 
                            "channel": 5
                        }
                    ]
                ], 
                [
                    92140, 
                    [
                        {
                            "pitch": 55, 
                            "t0": 92140, 
                            "v": 64, 
                            "dur": 3776, 
                            "type": "note", 
                            "channel": 5
                        }
                    ]
                ], 
                [
                    92148, 
                    [
                        {
                            "pitch": 57, 
                            "t0": 92148, 
                            "v": 33, 
                            "dur": 10, 
                            "type": "note", 
                            "channel": 5
                        }
                    ]
                ], 
                [
                    92150, 
                    [
                        {
                            "pitch": 59, 
                            "t0": 92150, 
                            "v": 108, 
                            "dur": 3770, 
                            "type": "note", 
                            "channel": 5
                        }
                    ]
                ], 
                [
                    92156, 
                    [
                        {
                            "pitch": 62, 
                            "t0": 92156, 
                            "v": 120, 
                            "dur": 3771, 
                            "type": "note", 
                            "channel": 5
                        }
                    ]
                ], 
                [
                    95948, 
                    [
                        {
                            "pitch": 60, 
                            "t0": 95948, 
                            "v": 104, 
                            "dur": 1954, 
                            "type": "note", 
                            "channel": 5
                        }, 
                        {
                            "pitch": 57, 
                            "t0": 95948, 
                            "v": 104, 
                            "dur": 2895, 
                            "type": "note", 
                            "channel": 5
                        }
                    ]
                ], 
                [
                    95951, 
                    [
                        {
                            "pitch": 64, 
                            "t0": 95951, 
                            "v": 108, 
                            "dur": 1945, 
                            "type": "note", 
                            "channel": 5
                        }
                    ]
                ], 
                [
                    97919, 
                    [
                        {
                            "pitch": 60, 
                            "t0": 97919, 
                            "v": 104, 
                            "dur": 926, 
                            "type": "note", 
                            "channel": 5
                        }
                    ]
                ], 
                [
                    97920, 
                    [
                        {
                            "pitch": 64, 
                            "t0": 97920, 
                            "v": 108, 
                            "dur": 922, 
                            "type": "note", 
                            "channel": 5
                        }
                    ]
                ], 
                [
                    98861, 
                    [
                        {
                            "pitch": 60, 
                            "t0": 98861, 
                            "v": 112, 
                            "dur": 934, 
                            "type": "note", 
                            "channel": 5
                        }
                    ]
                ], 
                [
                    98862, 
                    [
                        {
                            "pitch": 64, 
                            "t0": 98862, 
                            "v": 112, 
                            "dur": 932, 
                            "type": "note", 
                            "channel": 5
                        }, 
                        {
                            "pitch": 57, 
                            "t0": 98862, 
                            "v": 34, 
                            "dur": 2877, 
                            "type": "note", 
                            "channel": 5
                        }
                    ]
                ], 
                [
                    99820, 
                    [
                        {
                            "pitch": 62, 
                            "t0": 99820, 
                            "v": 100, 
                            "dur": 1000, 
                            "type": "note", 
                            "channel": 5
                        }
                    ]
                ], 
                [
                    99822, 
                    [
                        {
                            "pitch": 65, 
                            "t0": 99822, 
                            "v": 108, 
                            "dur": 995, 
                            "type": "note", 
                            "channel": 5
                        }
                    ]
                ], 
                [
                    100831, 
                    [
                        {
                            "pitch": 65, 
                            "t0": 100831, 
                            "v": 104, 
                            "dur": 906, 
                            "type": "note", 
                            "channel": 5
                        }, 
                        {
                            "pitch": 62, 
                            "t0": 100831, 
                            "v": 104, 
                            "dur": 912, 
                            "type": "note", 
                            "channel": 5
                        }
                    ]
                ], 
                [
                    101750, 
                    [
                        {
                            "pitch": 62, 
                            "t0": 101750, 
                            "v": 92, 
                            "dur": 985, 
                            "type": "note", 
                            "channel": 5
                        }
                    ]
                ], 
                [
                    101751, 
                    [
                        {
                            "pitch": 57, 
                            "t0": 101751, 
                            "v": 68, 
                            "dur": 1903, 
                            "type": "note", 
                            "channel": 5
                        }
                    ]
                ], 
                [
                    101752, 
                    [
                        {
                            "pitch": 65, 
                            "t0": 101752, 
                            "v": 96, 
                            "dur": 978, 
                            "type": "note", 
                            "channel": 5
                        }
                    ]
                ], 
                [
                    102748, 
                    [
                        {
                            "pitch": 62, 
                            "t0": 102748, 
                            "v": 92, 
                            "dur": 902, 
                            "type": "note", 
                            "channel": 5
                        }
                    ]
                ], 
                [
                    102752, 
                    [
                        {
                            "pitch": 65, 
                            "t0": 102752, 
                            "v": 116, 
                            "dur": 894, 
                            "type": "note", 
                            "channel": 5
                        }
                    ]
                ], 
                [
                    102760, 
                    [
                        {
                            "pitch": 64, 
                            "t0": 102760, 
                            "v": 60, 
                            "dur": 35, 
                            "type": "note", 
                            "channel": 5
                        }
                    ]
                ], 
                [
                    103674, 
                    [
                        {
                            "pitch": 60, 
                            "t0": 103674, 
                            "v": 100, 
                            "dur": 128, 
                            "type": "note", 
                            "channel": 5
                        }
                    ]
                ], 
                [
                    103676, 
                    [
                        {
                            "pitch": 64, 
                            "t0": 103676, 
                            "v": 112, 
                            "dur": 111, 
                            "type": "note", 
                            "channel": 5
                        }
                    ]
                ], 
                [
                    103679, 
                    [
                        {
                            "pitch": 62, 
                            "t0": 103679, 
                            "v": 104, 
                            "dur": 1906, 
                            "type": "note", 
                            "channel": 5
                        }, 
                        {
                            "pitch": 55, 
                            "t0": 103679, 
                            "v": 84, 
                            "dur": 3781, 
                            "type": "note", 
                            "channel": 5
                        }
                    ]
                ], 
                [
                    103680, 
                    [
                        {
                            "pitch": 59, 
                            "t0": 103680, 
                            "v": 96, 
                            "dur": 3792, 
                            "type": "note", 
                            "channel": 5
                        }
                    ]
                ], 
                [
                    103681, 
                    [
                        {
                            "pitch": 57, 
                            "t0": 103681, 
                            "v": 84, 
                            "dur": 329, 
                            "type": "note", 
                            "channel": 5
                        }
                    ]
                ], 
                [
                    105596, 
                    [
                        {
                            "pitch": 62, 
                            "t0": 105596, 
                            "v": 96, 
                            "dur": 1877, 
                            "type": "note", 
                            "channel": 5
                        }
                    ]
                ], 
                [
                    107498, 
                    [
                        {
                            "pitch": 60, 
                            "t0": 107498, 
                            "v": 108, 
                            "dur": 1920, 
                            "type": "note", 
                            "channel": 5
                        }
                    ]
                ], 
                [
                    107499, 
                    [
                        {
                            "pitch": 57, 
                            "t0": 107499, 
                            "v": 108, 
                            "dur": 1911, 
                            "type": "note", 
                            "channel": 5
                        }, 
                        {
                            "pitch": 64, 
                            "t0": 107499, 
                            "v": 120, 
                            "dur": 2847, 
                            "type": "note", 
                            "channel": 5
                        }
                    ]
                ], 
                [
                    109426, 
                    [
                        {
                            "pitch": 57, 
                            "t0": 109426, 
                            "v": 88, 
                            "dur": 932, 
                            "type": "note", 
                            "channel": 5
                        }
                    ]
                ], 
                [
                    109427, 
                    [
                        {
                            "pitch": 60, 
                            "t0": 109427, 
                            "v": 84, 
                            "dur": 923, 
                            "type": "note", 
                            "channel": 5
                        }
                    ]
                ], 
                [
                    110367, 
                    [
                        {
                            "pitch": 57, 
                            "t0": 110367, 
                            "v": 72, 
                            "dur": 985, 
                            "type": "note", 
                            "channel": 5
                        }
                    ]
                ], 
                [
                    110369, 
                    [
                        {
                            "pitch": 60, 
                            "t0": 110369, 
                            "v": 88, 
                            "dur": 963, 
                            "type": "note", 
                            "channel": 5
                        }
                    ]
                ], 
                [
                    110370, 
                    [
                        {
                            "pitch": 64, 
                            "t0": 110370, 
                            "v": 116, 
                            "dur": 956, 
                            "type": "note", 
                            "channel": 5
                        }
                    ]
                ], 
                [
                    111358, 
                    [
                        {
                            "pitch": 62, 
                            "t0": 111358, 
                            "v": 112, 
                            "dur": 904, 
                            "type": "note", 
                            "channel": 5
                        }
                    ]
                ], 
                [
                    111359, 
                    [
                        {
                            "pitch": 65, 
                            "t0": 111359, 
                            "v": 112, 
                            "dur": 901, 
                            "type": "note", 
                            "channel": 5
                        }, 
                        {
                            "pitch": 57, 
                            "t0": 111359, 
                            "v": 76, 
                            "dur": 1853, 
                            "type": "note", 
                            "channel": 5
                        }
                    ]
                ], 
                [
                    112280, 
                    [
                        {
                            "pitch": 62, 
                            "t0": 112280, 
                            "v": 31, 
                            "dur": 932, 
                            "type": "note", 
                            "channel": 5
                        }
                    ]
                ], 
                [
                    112281, 
                    [
                        {
                            "pitch": 65, 
                            "t0": 112281, 
                            "v": 112, 
                            "dur": 929, 
                            "type": "note", 
                            "channel": 5
                        }
                    ]
                ], 
                [
                    112285, 
                    [
                        {
                            "pitch": 64, 
                            "t0": 112285, 
                            "v": 104, 
                            "dur": 31, 
                            "type": "note", 
                            "channel": 5
                        }
                    ]
                ], 
                [
                    113231, 
                    [
                        {
                            "pitch": 65, 
                            "t0": 113231, 
                            "v": 120, 
                            "dur": 965, 
                            "type": "note", 
                            "channel": 5
                        }, 
                        {
                            "pitch": 62, 
                            "t0": 113231, 
                            "v": 35, 
                            "dur": 971, 
                            "type": "note", 
                            "channel": 5
                        }
                    ]
                ], 
                [
                    113232, 
                    [
                        {
                            "pitch": 57, 
                            "t0": 113232, 
                            "v": 104, 
                            "dur": 1929, 
                            "type": "note", 
                            "channel": 5
                        }
                    ]
                ], 
                [
                    114222, 
                    [
                        {
                            "pitch": 62, 
                            "t0": 114222, 
                            "v": 26, 
                            "dur": 931, 
                            "type": "note", 
                            "channel": 5
                        }
                    ]
                ], 
                [
                    114223, 
                    [
                        {
                            "pitch": 65, 
                            "t0": 114223, 
                            "v": 116, 
                            "dur": 925, 
                            "type": "note", 
                            "channel": 5
                        }
                    ]
                ], 
                [
                    115179, 
                    [
                        {
                            "pitch": 62, 
                            "t0": 115179, 
                            "v": 120, 
                            "dur": 2878, 
                            "type": "note", 
                            "channel": 5
                        }
                    ]
                ], 
                [
                    115181, 
                    [
                        {
                            "pitch": 59, 
                            "t0": 115181, 
                            "v": 108, 
                            "dur": 2879, 
                            "type": "note", 
                            "channel": 5
                        }
                    ]
                ], 
                [
                    115183, 
                    [
                        {
                            "pitch": 55, 
                            "t0": 115183, 
                            "v": 92, 
                            "dur": 2880, 
                            "type": "note", 
                            "channel": 5
                        }
                    ]
                ], 
                [
                    118072, 
                    [
                        {
                            "pitch": 62, 
                            "t0": 118072, 
                            "v": 96, 
                            "dur": 942, 
                            "type": "note", 
                            "channel": 5
                        }
                    ]
                ], 
                [
                    118073, 
                    [
                        {
                            "pitch": 59, 
                            "t0": 118073, 
                            "v": 100, 
                            "dur": 937, 
                            "type": "note", 
                            "channel": 5
                        }
                    ]
                ], 
                [
                    118075, 
                    [
                        {
                            "pitch": 55, 
                            "t0": 118075, 
                            "v": 96, 
                            "dur": 930, 
                            "type": "note", 
                            "channel": 5
                        }
                    ]
                ], 
                [
                    119031, 
                    [
                        {
                            "pitch": 60, 
                            "t0": 119031, 
                            "v": 100, 
                            "dur": 5737, 
                            "type": "note", 
                            "channel": 5
                        }
                    ]
                ], 
                [
                    119032, 
                    [
                        {
                            "pitch": 57, 
                            "t0": 119032, 
                            "v": 108, 
                            "dur": 1917, 
                            "type": "note", 
                            "channel": 5
                        }
                    ]
                ], 
                [
                    119033, 
                    [
                        {
                            "pitch": 64, 
                            "t0": 119033, 
                            "v": 108, 
                            "dur": 5730, 
                            "type": "note", 
                            "channel": 5
                        }
                    ]
                ], 
                [
                    120972, 
                    [
                        {
                            "pitch": 57, 
                            "t0": 120972, 
                            "v": 104, 
                            "dur": 3805, 
                            "type": "note", 
                            "channel": 5
                        }
                    ]
                ], 
                [
                    123232, 
                    [
                        {
                            "pitch": 45, 
                            "t0": 123232, 
                            "v": 1, 
                            "dur": 1537, 
                            "type": "note", 
                            "channel": 5
                        }
                    ]
                ], 
                [
                    124783, 
                    [
                        {
                            "pitch": 45, 
                            "t0": 124783, 
                            "v": 88, 
                            "dur": 1951, 
                            "type": "note", 
                            "channel": 5
                        }
                    ]
                ], 
                [
                    124785, 
                    [
                        {
                            "pitch": 60, 
                            "t0": 124785, 
                            "v": 88, 
                            "dur": 1881, 
                            "type": "note", 
                            "channel": 5
                        }
                    ]
                ], 
                [
                    124787, 
                    [
                        {
                            "pitch": 64, 
                            "t0": 124787, 
                            "v": 104, 
                            "dur": 1880, 
                            "type": "note", 
                            "channel": 5
                        }, 
                        {
                            "pitch": 57, 
                            "t0": 124787, 
                            "v": 52, 
                            "dur": 5715, 
                            "type": "note", 
                            "channel": 5
                        }
                    ]
                ], 
                [
                    126687, 
                    [
                        {
                            "pitch": 50, 
                            "t0": 126687, 
                            "v": 92, 
                            "dur": 1916, 
                            "type": "note", 
                            "channel": 5
                        }
                    ]
                ], 
                [
                    126696, 
                    [
                        {
                            "pitch": 62, 
                            "t0": 126696, 
                            "v": 108, 
                            "dur": 1904, 
                            "type": "note", 
                            "channel": 5
                        }
                    ]
                ], 
                [
                    126697, 
                    [
                        {
                            "pitch": 65, 
                            "t0": 126697, 
                            "v": 116, 
                            "dur": 1898, 
                            "type": "note", 
                            "channel": 5
                        }
                    ]
                ], 
                [
                    128616, 
                    [
                        {
                            "pitch": 50, 
                            "t0": 128616, 
                            "v": 88, 
                            "dur": 955, 
                            "type": "note", 
                            "channel": 5
                        }, 
                        {
                            "pitch": 62, 
                            "t0": 128616, 
                            "v": 64, 
                            "dur": 1437, 
                            "type": "note", 
                            "channel": 5
                        }
                    ]
                ], 
                [
                    128618, 
                    [
                        {
                            "pitch": 65, 
                            "t0": 128618, 
                            "v": 104, 
                            "dur": 1432, 
                            "type": "note", 
                            "channel": 5
                        }
                    ]
                ], 
                [
                    128633, 
                    [
                        {
                            "pitch": 45, 
                            "t0": 128633, 
                            "v": 68, 
                            "dur": 20, 
                            "type": "note", 
                            "channel": 5
                        }
                    ]
                ], 
                [
                    129588, 
                    [
                        {
                            "pitch": 50, 
                            "t0": 129588, 
                            "v": 49, 
                            "dur": 991, 
                            "type": "note", 
                            "channel": 5
                        }
                    ]
                ], 
                [
                    129608, 
                    [
                        {
                            "pitch": 45, 
                            "t0": 129608, 
                            "v": 49, 
                            "dur": 15, 
                            "type": "note", 
                            "channel": 5
                        }
                    ]
                ], 
                [
                    130066, 
                    [
                        {
                            "pitch": 62, 
                            "t0": 130066, 
                            "v": 84, 
                            "dur": 422, 
                            "type": "note", 
                            "channel": 5
                        }
                    ]
                ], 
                [
                    130068, 
                    [
                        {
                            "pitch": 65, 
                            "t0": 130068, 
                            "v": 112, 
                            "dur": 412, 
                            "type": "note", 
                            "channel": 5
                        }
                    ]
                ], 
                [
                    130078, 
                    [
                        {
                            "pitch": 64, 
                            "t0": 130078, 
                            "v": 68, 
                            "dur": 39, 
                            "type": "note", 
                            "channel": 5
                        }
                    ]
                ], 
                [
                    130079, 
                    [
                        {
                            "pitch": 60, 
                            "t0": 130079, 
                            "v": 80, 
                            "dur": 27, 
                            "type": "note", 
                            "channel": 5
                        }
                    ]
                ], 
                [
                    130527, 
                    [
                        {
                            "pitch": 59, 
                            "t0": 130527, 
                            "v": 112, 
                            "dur": 1996, 
                            "type": "note", 
                            "channel": 5
                        }
                    ]
                ], 
                [
                    130528, 
                    [
                        {
                            "pitch": 62, 
                            "t0": 130528, 
                            "v": 104, 
                            "dur": 2043, 
                            "type": "note", 
                            "channel": 5
                        }
                    ]
                ], 
                [
                    130531, 
                    [
                        {
                            "pitch": 55, 
                            "t0": 130531, 
                            "v": 84, 
                            "dur": 1953, 
                            "type": "note", 
                            "channel": 5
                        }
                    ]
                ], 
                [
                    130536, 
                    [
                        {
                            "pitch": 43, 
                            "t0": 130536, 
                            "v": 52, 
                            "dur": 2073, 
                            "type": "note", 
                            "channel": 5
                        }
                    ]
                ], 
                [
                    132541, 
                    [
                        {
                            "pitch": 60, 
                            "t0": 132541, 
                            "v": 52, 
                            "dur": 4084, 
                            "type": "note", 
                            "channel": 5
                        }, 
                        {
                            "pitch": 57, 
                            "t0": 132541, 
                            "v": 56, 
                            "dur": 4111, 
                            "type": "note", 
                            "channel": 5
                        }
                    ]
                ], 
                [
                    132550, 
                    [
                        {
                            "pitch": 64, 
                            "t0": 132550, 
                            "v": 47, 
                            "dur": 4099, 
                            "type": "note", 
                            "channel": 5
                        }
                    ]
                ], 
                [
                    132556, 
                    [
                        {
                            "pitch": 45, 
                            "t0": 132556, 
                            "v": 64, 
                            "dur": 4099, 
                            "type": "note", 
                            "channel": 5
                        }
                    ]
                ]
            ], 
            "instruments": [
                48
            ], 
            "tMax": 132556, 
            "channels": [
                5
            ], 
            "instrument": 48, 
            "numNotes": 213, 
            "type": "TrackObj"
        }, 
        {
            "trackName": "Pizzicato Strings", 
            "seq": [
                [
                    0, 
                    [
                        {
                            "instrument": 45, 
                            "type": "programChange", 
                            "t0": 0, 
                            "channel": 6
                        }
                    ]
                ], 
                [
                    364, 
                    [
                        {
                            "instrument": 45, 
                            "type": "programChange", 
                            "t0": 364, 
                            "channel": 6
                        }, 
                        {
                            "pitch": 40, 
                            "t0": 364, 
                            "v": 48, 
                            "dur": 85, 
                            "type": "note", 
                            "channel": 6
                        }
                    ]
                ], 
                [
                    477, 
                    [
                        {
                            "pitch": 45, 
                            "t0": 477, 
                            "v": 100, 
                            "dur": 141, 
                            "type": "note", 
                            "channel": 6
                        }
                    ]
                ], 
                [
                    608, 
                    [
                        {
                            "pitch": 40, 
                            "t0": 608, 
                            "v": 80, 
                            "dur": 89, 
                            "type": "note", 
                            "channel": 6
                        }
                    ]
                ], 
                [
                    844, 
                    [
                        {
                            "pitch": 40, 
                            "t0": 844, 
                            "v": 56, 
                            "dur": 98, 
                            "type": "note", 
                            "channel": 6
                        }
                    ]
                ], 
                [
                    966, 
                    [
                        {
                            "pitch": 43, 
                            "t0": 966, 
                            "v": 92, 
                            "dur": 104, 
                            "type": "note", 
                            "channel": 6
                        }
                    ]
                ], 
                [
                    1088, 
                    [
                        {
                            "pitch": 38, 
                            "t0": 1088, 
                            "v": 96, 
                            "dur": 102, 
                            "type": "note", 
                            "channel": 6
                        }
                    ]
                ], 
                [
                    1329, 
                    [
                        {
                            "pitch": 40, 
                            "t0": 1329, 
                            "v": 64, 
                            "dur": 96, 
                            "type": "note", 
                            "channel": 6
                        }
                    ]
                ], 
                [
                    1459, 
                    [
                        {
                            "pitch": 45, 
                            "t0": 1459, 
                            "v": 104, 
                            "dur": 120, 
                            "type": "note", 
                            "channel": 6
                        }
                    ]
                ], 
                [
                    1565, 
                    [
                        {
                            "pitch": 40, 
                            "t0": 1565, 
                            "v": 88, 
                            "dur": 97, 
                            "type": "note", 
                            "channel": 6
                        }
                    ]
                ], 
                [
                    1800, 
                    [
                        {
                            "pitch": 40, 
                            "t0": 1800, 
                            "v": 50, 
                            "dur": 101, 
                            "type": "note", 
                            "channel": 6
                        }
                    ]
                ], 
                [
                    1920, 
                    [
                        {
                            "pitch": 43, 
                            "t0": 1920, 
                            "v": 96, 
                            "dur": 128, 
                            "type": "note", 
                            "channel": 6
                        }
                    ]
                ], 
                [
                    2037, 
                    [
                        {
                            "pitch": 38, 
                            "t0": 2037, 
                            "v": 92, 
                            "dur": 105, 
                            "type": "note", 
                            "channel": 6
                        }
                    ]
                ], 
                [
                    2299, 
                    [
                        {
                            "pitch": 40, 
                            "t0": 2299, 
                            "v": 76, 
                            "dur": 121, 
                            "type": "note", 
                            "channel": 6
                        }
                    ]
                ], 
                [
                    2418, 
                    [
                        {
                            "pitch": 45, 
                            "t0": 2418, 
                            "v": 92, 
                            "dur": 124, 
                            "type": "note", 
                            "channel": 6
                        }
                    ]
                ], 
                [
                    2521, 
                    [
                        {
                            "pitch": 40, 
                            "t0": 2521, 
                            "v": 64, 
                            "dur": 147, 
                            "type": "note", 
                            "channel": 6
                        }
                    ]
                ], 
                [
                    2760, 
                    [
                        {
                            "pitch": 40, 
                            "t0": 2760, 
                            "v": 76, 
                            "dur": 116, 
                            "type": "note", 
                            "channel": 6
                        }
                    ]
                ], 
                [
                    2877, 
                    [
                        {
                            "pitch": 43, 
                            "t0": 2877, 
                            "v": 100, 
                            "dur": 148, 
                            "type": "note", 
                            "channel": 6
                        }
                    ]
                ], 
                [
                    3005, 
                    [
                        {
                            "pitch": 38, 
                            "t0": 3005, 
                            "v": 92, 
                            "dur": 127, 
                            "type": "note", 
                            "channel": 6
                        }
                    ]
                ], 
                [
                    3263, 
                    [
                        {
                            "pitch": 40, 
                            "t0": 3263, 
                            "v": 60, 
                            "dur": 124, 
                            "type": "note", 
                            "channel": 6
                        }
                    ]
                ], 
                [
                    3372, 
                    [
                        {
                            "pitch": 45, 
                            "t0": 3372, 
                            "v": 64, 
                            "dur": 128, 
                            "type": "note", 
                            "channel": 6
                        }
                    ]
                ], 
                [
                    3474, 
                    [
                        {
                            "pitch": 40, 
                            "t0": 3474, 
                            "v": 88, 
                            "dur": 146, 
                            "type": "note", 
                            "channel": 6
                        }
                    ]
                ], 
                [
                    3732, 
                    [
                        {
                            "pitch": 38, 
                            "t0": 3732, 
                            "v": 76, 
                            "dur": 114, 
                            "type": "note", 
                            "channel": 6
                        }
                    ]
                ], 
                [
                    3743, 
                    [
                        {
                            "pitch": 40, 
                            "t0": 3743, 
                            "v": 50, 
                            "dur": 16, 
                            "type": "note", 
                            "channel": 6
                        }
                    ]
                ], 
                [
                    3852, 
                    [
                        {
                            "pitch": 43, 
                            "t0": 3852, 
                            "v": 72, 
                            "dur": 117, 
                            "type": "note", 
                            "channel": 6
                        }
                    ]
                ], 
                [
                    3952, 
                    [
                        {
                            "pitch": 38, 
                            "t0": 3952, 
                            "v": 76, 
                            "dur": 101, 
                            "type": "note", 
                            "channel": 6
                        }
                    ]
                ], 
                [
                    4218, 
                    [
                        {
                            "pitch": 40, 
                            "t0": 4218, 
                            "v": 58, 
                            "dur": 125, 
                            "type": "note", 
                            "channel": 6
                        }
                    ]
                ], 
                [
                    4337, 
                    [
                        {
                            "pitch": 45, 
                            "t0": 4337, 
                            "v": 72, 
                            "dur": 115, 
                            "type": "note", 
                            "channel": 6
                        }
                    ]
                ], 
                [
                    4441, 
                    [
                        {
                            "pitch": 40, 
                            "t0": 4441, 
                            "v": 104, 
                            "dur": 118, 
                            "type": "note", 
                            "channel": 6
                        }
                    ]
                ], 
                [
                    4682, 
                    [
                        {
                            "pitch": 40, 
                            "t0": 4682, 
                            "v": 68, 
                            "dur": 113, 
                            "type": "note", 
                            "channel": 6
                        }
                    ]
                ], 
                [
                    4797, 
                    [
                        {
                            "pitch": 43, 
                            "t0": 4797, 
                            "v": 100, 
                            "dur": 147, 
                            "type": "note", 
                            "channel": 6
                        }
                    ]
                ], 
                [
                    4920, 
                    [
                        {
                            "pitch": 38, 
                            "t0": 4920, 
                            "v": 104, 
                            "dur": 93, 
                            "type": "note", 
                            "channel": 6
                        }
                    ]
                ], 
                [
                    5167, 
                    [
                        {
                            "pitch": 40, 
                            "t0": 5167, 
                            "v": 76, 
                            "dur": 93, 
                            "type": "note", 
                            "channel": 6
                        }
                    ]
                ], 
                [
                    5286, 
                    [
                        {
                            "pitch": 45, 
                            "t0": 5286, 
                            "v": 92, 
                            "dur": 136, 
                            "type": "note", 
                            "channel": 6
                        }
                    ]
                ], 
                [
                    5395, 
                    [
                        {
                            "pitch": 40, 
                            "t0": 5395, 
                            "v": 96, 
                            "dur": 114, 
                            "type": "note", 
                            "channel": 6
                        }
                    ]
                ], 
                [
                    5652, 
                    [
                        {
                            "pitch": 40, 
                            "t0": 5652, 
                            "v": 60, 
                            "dur": 94, 
                            "type": "note", 
                            "channel": 6
                        }
                    ]
                ], 
                [
                    5758, 
                    [
                        {
                            "pitch": 43, 
                            "t0": 5758, 
                            "v": 96, 
                            "dur": 133, 
                            "type": "note", 
                            "channel": 6
                        }
                    ]
                ], 
                [
                    5873, 
                    [
                        {
                            "pitch": 38, 
                            "t0": 5873, 
                            "v": 96, 
                            "dur": 116, 
                            "type": "note", 
                            "channel": 6
                        }
                    ]
                ], 
                [
                    6132, 
                    [
                        {
                            "pitch": 40, 
                            "t0": 6132, 
                            "v": 64, 
                            "dur": 100, 
                            "type": "note", 
                            "channel": 6
                        }
                    ]
                ], 
                [
                    6249, 
                    [
                        {
                            "pitch": 45, 
                            "t0": 6249, 
                            "v": 92, 
                            "dur": 141, 
                            "type": "note", 
                            "channel": 6
                        }
                    ]
                ], 
                [
                    6364, 
                    [
                        {
                            "pitch": 40, 
                            "t0": 6364, 
                            "v": 92, 
                            "dur": 149, 
                            "type": "note", 
                            "channel": 6
                        }
                    ]
                ], 
                [
                    6603, 
                    [
                        {
                            "pitch": 40, 
                            "t0": 6603, 
                            "v": 76, 
                            "dur": 105, 
                            "type": "note", 
                            "channel": 6
                        }
                    ]
                ], 
                [
                    6723, 
                    [
                        {
                            "pitch": 43, 
                            "t0": 6723, 
                            "v": 80, 
                            "dur": 130, 
                            "type": "note", 
                            "channel": 6
                        }
                    ]
                ], 
                [
                    6831, 
                    [
                        {
                            "pitch": 38, 
                            "t0": 6831, 
                            "v": 72, 
                            "dur": 111, 
                            "type": "note", 
                            "channel": 6
                        }
                    ]
                ], 
                [
                    7086, 
                    [
                        {
                            "pitch": 38, 
                            "t0": 7086, 
                            "v": 72, 
                            "dur": 66, 
                            "type": "note", 
                            "channel": 6
                        }
                    ]
                ], 
                [
                    7087, 
                    [
                        {
                            "pitch": 40, 
                            "t0": 7087, 
                            "v": 41, 
                            "dur": 92, 
                            "type": "note", 
                            "channel": 6
                        }
                    ]
                ], 
                [
                    7202, 
                    [
                        {
                            "pitch": 45, 
                            "t0": 7202, 
                            "v": 80, 
                            "dur": 142, 
                            "type": "note", 
                            "channel": 6
                        }
                    ]
                ], 
                [
                    7317, 
                    [
                        {
                            "pitch": 40, 
                            "t0": 7317, 
                            "v": 92, 
                            "dur": 109, 
                            "type": "note", 
                            "channel": 6
                        }
                    ]
                ], 
                [
                    7553, 
                    [
                        {
                            "pitch": 40, 
                            "t0": 7553, 
                            "v": 52, 
                            "dur": 95, 
                            "type": "note", 
                            "channel": 6
                        }
                    ]
                ], 
                [
                    7674, 
                    [
                        {
                            "pitch": 43, 
                            "t0": 7674, 
                            "v": 100, 
                            "dur": 103, 
                            "type": "note", 
                            "channel": 6
                        }
                    ]
                ], 
                [
                    7773, 
                    [
                        {
                            "pitch": 38, 
                            "t0": 7773, 
                            "v": 76, 
                            "dur": 112, 
                            "type": "note", 
                            "channel": 6
                        }
                    ]
                ], 
                [
                    8018, 
                    [
                        {
                            "pitch": 40, 
                            "t0": 8018, 
                            "v": 72, 
                            "dur": 114, 
                            "type": "note", 
                            "channel": 6
                        }
                    ]
                ], 
                [
                    8157, 
                    [
                        {
                            "pitch": 45, 
                            "t0": 8157, 
                            "v": 88, 
                            "dur": 160, 
                            "type": "note", 
                            "channel": 6
                        }
                    ]
                ], 
                [
                    8284, 
                    [
                        {
                            "pitch": 40, 
                            "t0": 8284, 
                            "v": 96, 
                            "dur": 103, 
                            "type": "note", 
                            "channel": 6
                        }
                    ]
                ], 
                [
                    8518, 
                    [
                        {
                            "pitch": 40, 
                            "t0": 8518, 
                            "v": 58, 
                            "dur": 108, 
                            "type": "note", 
                            "channel": 6
                        }
                    ]
                ], 
                [
                    8644, 
                    [
                        {
                            "pitch": 43, 
                            "t0": 8644, 
                            "v": 104, 
                            "dur": 118, 
                            "type": "note", 
                            "channel": 6
                        }
                    ]
                ], 
                [
                    8765, 
                    [
                        {
                            "pitch": 38, 
                            "t0": 8765, 
                            "v": 100, 
                            "dur": 89, 
                            "type": "note", 
                            "channel": 6
                        }
                    ]
                ], 
                [
                    9001, 
                    [
                        {
                            "pitch": 40, 
                            "t0": 9001, 
                            "v": 80, 
                            "dur": 92, 
                            "type": "note", 
                            "channel": 6
                        }
                    ]
                ], 
                [
                    9140, 
                    [
                        {
                            "pitch": 45, 
                            "t0": 9140, 
                            "v": 112, 
                            "dur": 126, 
                            "type": "note", 
                            "channel": 6
                        }
                    ]
                ], 
                [
                    9242, 
                    [
                        {
                            "pitch": 40, 
                            "t0": 9242, 
                            "v": 104, 
                            "dur": 63, 
                            "type": "note", 
                            "channel": 6
                        }
                    ]
                ], 
                [
                    9475, 
                    [
                        {
                            "pitch": 40, 
                            "t0": 9475, 
                            "v": 64, 
                            "dur": 82, 
                            "type": "note", 
                            "channel": 6
                        }
                    ]
                ], 
                [
                    9600, 
                    [
                        {
                            "pitch": 43, 
                            "t0": 9600, 
                            "v": 108, 
                            "dur": 145, 
                            "type": "note", 
                            "channel": 6
                        }
                    ]
                ], 
                [
                    9711, 
                    [
                        {
                            "pitch": 38, 
                            "t0": 9711, 
                            "v": 96, 
                            "dur": 87, 
                            "type": "note", 
                            "channel": 6
                        }
                    ]
                ], 
                [
                    9947, 
                    [
                        {
                            "pitch": 40, 
                            "t0": 9947, 
                            "v": 64, 
                            "dur": 73, 
                            "type": "note", 
                            "channel": 6
                        }
                    ]
                ], 
                [
                    10091, 
                    [
                        {
                            "pitch": 45, 
                            "t0": 10091, 
                            "v": 108, 
                            "dur": 121, 
                            "type": "note", 
                            "channel": 6
                        }
                    ]
                ], 
                [
                    10196, 
                    [
                        {
                            "pitch": 40, 
                            "t0": 10196, 
                            "v": 100, 
                            "dur": 64, 
                            "type": "note", 
                            "channel": 6
                        }
                    ]
                ], 
                [
                    10420, 
                    [
                        {
                            "pitch": 40, 
                            "t0": 10420, 
                            "v": 56, 
                            "dur": 98, 
                            "type": "note", 
                            "channel": 6
                        }
                    ]
                ], 
                [
                    10561, 
                    [
                        {
                            "pitch": 43, 
                            "t0": 10561, 
                            "v": 116, 
                            "dur": 118, 
                            "type": "note", 
                            "channel": 6
                        }
                    ]
                ], 
                [
                    10671, 
                    [
                        {
                            "pitch": 38, 
                            "t0": 10671, 
                            "v": 108, 
                            "dur": 75, 
                            "type": "note", 
                            "channel": 6
                        }
                    ]
                ], 
                [
                    10935, 
                    [
                        {
                            "pitch": 40, 
                            "t0": 10935, 
                            "v": 76, 
                            "dur": 69, 
                            "type": "note", 
                            "channel": 6
                        }
                    ]
                ], 
                [
                    11060, 
                    [
                        {
                            "pitch": 45, 
                            "t0": 11060, 
                            "v": 116, 
                            "dur": 120, 
                            "type": "note", 
                            "channel": 6
                        }
                    ]
                ], 
                [
                    11170, 
                    [
                        {
                            "pitch": 40, 
                            "t0": 11170, 
                            "v": 100, 
                            "dur": 60, 
                            "type": "note", 
                            "channel": 6
                        }
                    ]
                ], 
                [
                    11397, 
                    [
                        {
                            "pitch": 40, 
                            "t0": 11397, 
                            "v": 64, 
                            "dur": 84, 
                            "type": "note", 
                            "channel": 6
                        }
                    ]
                ], 
                [
                    11533, 
                    [
                        {
                            "pitch": 43, 
                            "t0": 11533, 
                            "v": 116, 
                            "dur": 119, 
                            "type": "note", 
                            "channel": 6
                        }
                    ]
                ], 
                [
                    11632, 
                    [
                        {
                            "pitch": 38, 
                            "t0": 11632, 
                            "v": 80, 
                            "dur": 92, 
                            "type": "note", 
                            "channel": 6
                        }
                    ]
                ], 
                [
                    11884, 
                    [
                        {
                            "pitch": 40, 
                            "t0": 11884, 
                            "v": 92, 
                            "dur": 85, 
                            "type": "note", 
                            "channel": 6
                        }
                    ]
                ], 
                [
                    12015, 
                    [
                        {
                            "pitch": 45, 
                            "t0": 12015, 
                            "v": 112, 
                            "dur": 122, 
                            "type": "note", 
                            "channel": 6
                        }
                    ]
                ], 
                [
                    12123, 
                    [
                        {
                            "pitch": 40, 
                            "t0": 12123, 
                            "v": 96, 
                            "dur": 64, 
                            "type": "note", 
                            "channel": 6
                        }
                    ]
                ], 
                [
                    12358, 
                    [
                        {
                            "pitch": 40, 
                            "t0": 12358, 
                            "v": 64, 
                            "dur": 86, 
                            "type": "note", 
                            "channel": 6
                        }
                    ]
                ], 
                [
                    12487, 
                    [
                        {
                            "pitch": 43, 
                            "t0": 12487, 
                            "v": 112, 
                            "dur": 115, 
                            "type": "note", 
                            "channel": 6
                        }
                    ]
                ], 
                [
                    12493, 
                    [
                        {
                            "pitch": 41, 
                            "t0": 12493, 
                            "v": 84, 
                            "dur": 21, 
                            "type": "note", 
                            "channel": 6
                        }
                    ]
                ], 
                [
                    12593, 
                    [
                        {
                            "pitch": 38, 
                            "t0": 12593, 
                            "v": 100, 
                            "dur": 86, 
                            "type": "note", 
                            "channel": 6
                        }
                    ]
                ], 
                [
                    12850, 
                    [
                        {
                            "pitch": 40, 
                            "t0": 12850, 
                            "v": 19, 
                            "dur": 92, 
                            "type": "note", 
                            "channel": 6
                        }
                    ]
                ], 
                [
                    12862, 
                    [
                        {
                            "pitch": 41, 
                            "t0": 12862, 
                            "v": 20, 
                            "dur": 66, 
                            "type": "note", 
                            "channel": 6
                        }
                    ]
                ], 
                [
                    12976, 
                    [
                        {
                            "pitch": 45, 
                            "t0": 12976, 
                            "v": 88, 
                            "dur": 142, 
                            "type": "note", 
                            "channel": 6
                        }
                    ]
                ], 
                [
                    13090, 
                    [
                        {
                            "pitch": 40, 
                            "t0": 13090, 
                            "v": 96, 
                            "dur": 74, 
                            "type": "note", 
                            "channel": 6
                        }
                    ]
                ], 
                [
                    13322, 
                    [
                        {
                            "pitch": 40, 
                            "t0": 13322, 
                            "v": 60, 
                            "dur": 102, 
                            "type": "note", 
                            "channel": 6
                        }
                    ]
                ], 
                [
                    13451, 
                    [
                        {
                            "pitch": 43, 
                            "t0": 13451, 
                            "v": 108, 
                            "dur": 132, 
                            "type": "note", 
                            "channel": 6
                        }
                    ]
                ], 
                [
                    13559, 
                    [
                        {
                            "pitch": 38, 
                            "t0": 13559, 
                            "v": 104, 
                            "dur": 73, 
                            "type": "note", 
                            "channel": 6
                        }
                    ]
                ], 
                [
                    13805, 
                    [
                        {
                            "pitch": 40, 
                            "t0": 13805, 
                            "v": 76, 
                            "dur": 93, 
                            "type": "note", 
                            "channel": 6
                        }
                    ]
                ], 
                [
                    13930, 
                    [
                        {
                            "pitch": 45, 
                            "t0": 13930, 
                            "v": 100, 
                            "dur": 144, 
                            "type": "note", 
                            "channel": 6
                        }
                    ]
                ], 
                [
                    14045, 
                    [
                        {
                            "pitch": 40, 
                            "t0": 14045, 
                            "v": 92, 
                            "dur": 80, 
                            "type": "note", 
                            "channel": 6
                        }
                    ]
                ], 
                [
                    14280, 
                    [
                        {
                            "pitch": 40, 
                            "t0": 14280, 
                            "v": 60, 
                            "dur": 107, 
                            "type": "note", 
                            "channel": 6
                        }
                    ]
                ], 
                [
                    14407, 
                    [
                        {
                            "pitch": 43, 
                            "t0": 14407, 
                            "v": 104, 
                            "dur": 126, 
                            "type": "note", 
                            "channel": 6
                        }
                    ]
                ], 
                [
                    14507, 
                    [
                        {
                            "pitch": 38, 
                            "t0": 14507, 
                            "v": 88, 
                            "dur": 85, 
                            "type": "note", 
                            "channel": 6
                        }
                    ]
                ], 
                [
                    14765, 
                    [
                        {
                            "pitch": 40, 
                            "t0": 14765, 
                            "v": 76, 
                            "dur": 104, 
                            "type": "note", 
                            "channel": 6
                        }
                    ]
                ], 
                [
                    14893, 
                    [
                        {
                            "pitch": 45, 
                            "t0": 14893, 
                            "v": 92, 
                            "dur": 141, 
                            "type": "note", 
                            "channel": 6
                        }
                    ]
                ], 
                [
                    15002, 
                    [
                        {
                            "pitch": 40, 
                            "t0": 15002, 
                            "v": 72, 
                            "dur": 71, 
                            "type": "note", 
                            "channel": 6
                        }
                    ]
                ], 
                [
                    15226, 
                    [
                        {
                            "pitch": 40, 
                            "t0": 15226, 
                            "v": 60, 
                            "dur": 103, 
                            "type": "note", 
                            "channel": 6
                        }
                    ]
                ], 
                [
                    15352, 
                    [
                        {
                            "pitch": 43, 
                            "t0": 15352, 
                            "v": 92, 
                            "dur": 119, 
                            "type": "note", 
                            "channel": 6
                        }
                    ]
                ], 
                [
                    15464, 
                    [
                        {
                            "pitch": 40, 
                            "t0": 15464, 
                            "v": 68, 
                            "dur": 57, 
                            "type": "note", 
                            "channel": 6
                        }
                    ]
                ], 
                [
                    15592, 
                    [
                        {
                            "pitch": 38, 
                            "t0": 15592, 
                            "v": 100, 
                            "dur": 118, 
                            "type": "note", 
                            "channel": 6
                        }
                    ]
                ], 
                [
                    15857, 
                    [
                        {
                            "pitch": 40, 
                            "t0": 15857, 
                            "v": 96, 
                            "dur": 97, 
                            "type": "note", 
                            "channel": 6
                        }
                    ]
                ], 
                [
                    15964, 
                    [
                        {
                            "pitch": 45, 
                            "t0": 15964, 
                            "v": 76, 
                            "dur": 66, 
                            "type": "note", 
                            "channel": 6
                        }
                    ]
                ], 
                [
                    16196, 
                    [
                        {
                            "pitch": 40, 
                            "t0": 16196, 
                            "v": 72, 
                            "dur": 93, 
                            "type": "note", 
                            "channel": 6
                        }
                    ]
                ], 
                [
                    16320, 
                    [
                        {
                            "pitch": 43, 
                            "t0": 16320, 
                            "v": 108, 
                            "dur": 117, 
                            "type": "note", 
                            "channel": 6
                        }
                    ]
                ], 
                [
                    16440, 
                    [
                        {
                            "pitch": 38, 
                            "t0": 16440, 
                            "v": 104, 
                            "dur": 93, 
                            "type": "note", 
                            "channel": 6
                        }
                    ]
                ], 
                [
                    16698, 
                    [
                        {
                            "pitch": 40, 
                            "t0": 16698, 
                            "v": 100, 
                            "dur": 90, 
                            "type": "note", 
                            "channel": 6
                        }
                    ]
                ], 
                [
                    16816, 
                    [
                        {
                            "pitch": 45, 
                            "t0": 16816, 
                            "v": 112, 
                            "dur": 149, 
                            "type": "note", 
                            "channel": 6
                        }
                    ]
                ], 
                [
                    16934, 
                    [
                        {
                            "pitch": 40, 
                            "t0": 16934, 
                            "v": 108, 
                            "dur": 84, 
                            "type": "note", 
                            "channel": 6
                        }
                    ]
                ], 
                [
                    17165, 
                    [
                        {
                            "pitch": 40, 
                            "t0": 17165, 
                            "v": 96, 
                            "dur": 77, 
                            "type": "note", 
                            "channel": 6
                        }
                    ]
                ], 
                [
                    17284, 
                    [
                        {
                            "pitch": 43, 
                            "t0": 17284, 
                            "v": 116, 
                            "dur": 153, 
                            "type": "note", 
                            "channel": 6
                        }
                    ]
                ], 
                [
                    17402, 
                    [
                        {
                            "pitch": 38, 
                            "t0": 17402, 
                            "v": 116, 
                            "dur": 82, 
                            "type": "note", 
                            "channel": 6
                        }
                    ]
                ], 
                [
                    17668, 
                    [
                        {
                            "pitch": 40, 
                            "t0": 17668, 
                            "v": 104, 
                            "dur": 86, 
                            "type": "note", 
                            "channel": 6
                        }
                    ]
                ], 
                [
                    17787, 
                    [
                        {
                            "pitch": 45, 
                            "t0": 17787, 
                            "v": 116, 
                            "dur": 133, 
                            "type": "note", 
                            "channel": 6
                        }
                    ]
                ], 
                [
                    17898, 
                    [
                        {
                            "pitch": 40, 
                            "t0": 17898, 
                            "v": 108, 
                            "dur": 90, 
                            "type": "note", 
                            "channel": 6
                        }
                    ]
                ], 
                [
                    18114, 
                    [
                        {
                            "pitch": 40, 
                            "t0": 18114, 
                            "v": 104, 
                            "dur": 86, 
                            "type": "note", 
                            "channel": 6
                        }
                    ]
                ], 
                [
                    18231, 
                    [
                        {
                            "pitch": 43, 
                            "t0": 18231, 
                            "v": 116, 
                            "dur": 151, 
                            "type": "note", 
                            "channel": 6
                        }
                    ]
                ], 
                [
                    18348, 
                    [
                        {
                            "pitch": 38, 
                            "t0": 18348, 
                            "v": 108, 
                            "dur": 95, 
                            "type": "note", 
                            "channel": 6
                        }
                    ]
                ], 
                [
                    18609, 
                    [
                        {
                            "pitch": 40, 
                            "t0": 18609, 
                            "v": 108, 
                            "dur": 87, 
                            "type": "note", 
                            "channel": 6
                        }
                    ]
                ], 
                [
                    18730, 
                    [
                        {
                            "pitch": 45, 
                            "t0": 18730, 
                            "v": 116, 
                            "dur": 144, 
                            "type": "note", 
                            "channel": 6
                        }
                    ]
                ], 
                [
                    18845, 
                    [
                        {
                            "pitch": 40, 
                            "t0": 18845, 
                            "v": 112, 
                            "dur": 94, 
                            "type": "note", 
                            "channel": 6
                        }
                    ]
                ], 
                [
                    19073, 
                    [
                        {
                            "pitch": 40, 
                            "t0": 19073, 
                            "v": 80, 
                            "dur": 81, 
                            "type": "note", 
                            "channel": 6
                        }
                    ]
                ], 
                [
                    19196, 
                    [
                        {
                            "pitch": 43, 
                            "t0": 19196, 
                            "v": 112, 
                            "dur": 150, 
                            "type": "note", 
                            "channel": 6
                        }
                    ]
                ], 
                [
                    19312, 
                    [
                        {
                            "pitch": 38, 
                            "t0": 19312, 
                            "v": 112, 
                            "dur": 89, 
                            "type": "note", 
                            "channel": 6
                        }
                    ]
                ], 
                [
                    19560, 
                    [
                        {
                            "pitch": 40, 
                            "t0": 19560, 
                            "v": 96, 
                            "dur": 88, 
                            "type": "note", 
                            "channel": 6
                        }
                    ]
                ], 
                [
                    19681, 
                    [
                        {
                            "pitch": 45, 
                            "t0": 19681, 
                            "v": 116, 
                            "dur": 143, 
                            "type": "note", 
                            "channel": 6
                        }
                    ]
                ], 
                [
                    19799, 
                    [
                        {
                            "pitch": 40, 
                            "t0": 19799, 
                            "v": 108, 
                            "dur": 88, 
                            "type": "note", 
                            "channel": 6
                        }
                    ]
                ], 
                [
                    20040, 
                    [
                        {
                            "pitch": 40, 
                            "t0": 20040, 
                            "v": 100, 
                            "dur": 81, 
                            "type": "note", 
                            "channel": 6
                        }
                    ]
                ], 
                [
                    20160, 
                    [
                        {
                            "pitch": 43, 
                            "t0": 20160, 
                            "v": 120, 
                            "dur": 125, 
                            "type": "note", 
                            "channel": 6
                        }
                    ]
                ], 
                [
                    20281, 
                    [
                        {
                            "pitch": 38, 
                            "t0": 20281, 
                            "v": 108, 
                            "dur": 124, 
                            "type": "note", 
                            "channel": 6
                        }
                    ]
                ], 
                [
                    20528, 
                    [
                        {
                            "pitch": 40, 
                            "t0": 20528, 
                            "v": 108, 
                            "dur": 95, 
                            "type": "note", 
                            "channel": 6
                        }
                    ]
                ], 
                [
                    20645, 
                    [
                        {
                            "pitch": 45, 
                            "t0": 20645, 
                            "v": 112, 
                            "dur": 134, 
                            "type": "note", 
                            "channel": 6
                        }
                    ]
                ], 
                [
                    20764, 
                    [
                        {
                            "pitch": 40, 
                            "t0": 20764, 
                            "v": 112, 
                            "dur": 111, 
                            "type": "note", 
                            "channel": 6
                        }
                    ]
                ], 
                [
                    21012, 
                    [
                        {
                            "pitch": 40, 
                            "t0": 21012, 
                            "v": 96, 
                            "dur": 92, 
                            "type": "note", 
                            "channel": 6
                        }
                    ]
                ], 
                [
                    21128, 
                    [
                        {
                            "pitch": 43, 
                            "t0": 21128, 
                            "v": 116, 
                            "dur": 120, 
                            "type": "note", 
                            "channel": 6
                        }
                    ]
                ], 
                [
                    21243, 
                    [
                        {
                            "pitch": 38, 
                            "t0": 21243, 
                            "v": 112, 
                            "dur": 112, 
                            "type": "note", 
                            "channel": 6
                        }
                    ]
                ], 
                [
                    21493, 
                    [
                        {
                            "pitch": 40, 
                            "t0": 21493, 
                            "v": 100, 
                            "dur": 87, 
                            "type": "note", 
                            "channel": 6
                        }
                    ]
                ], 
                [
                    21496, 
                    [
                        {
                            "pitch": 41, 
                            "t0": 21496, 
                            "v": 100, 
                            "dur": 69, 
                            "type": "note", 
                            "channel": 6
                        }
                    ]
                ], 
                [
                    21615, 
                    [
                        {
                            "pitch": 45, 
                            "t0": 21615, 
                            "v": 88, 
                            "dur": 133, 
                            "type": "note", 
                            "channel": 6
                        }
                    ]
                ], 
                [
                    21617, 
                    [
                        {
                            "pitch": 47, 
                            "t0": 21617, 
                            "v": 88, 
                            "dur": 92, 
                            "type": "note", 
                            "channel": 6
                        }
                    ]
                ], 
                [
                    21729, 
                    [
                        {
                            "pitch": 40, 
                            "t0": 21729, 
                            "v": 108, 
                            "dur": 115, 
                            "type": "note", 
                            "channel": 6
                        }
                    ]
                ], 
                [
                    21970, 
                    [
                        {
                            "pitch": 40, 
                            "t0": 21970, 
                            "v": 92, 
                            "dur": 86, 
                            "type": "note", 
                            "channel": 6
                        }
                    ]
                ], 
                [
                    22083, 
                    [
                        {
                            "pitch": 43, 
                            "t0": 22083, 
                            "v": 104, 
                            "dur": 142, 
                            "type": "note", 
                            "channel": 6
                        }
                    ]
                ], 
                [
                    22088, 
                    [
                        {
                            "pitch": 45, 
                            "t0": 22088, 
                            "v": 72, 
                            "dur": 45, 
                            "type": "note", 
                            "channel": 6
                        }
                    ]
                ], 
                [
                    22194, 
                    [
                        {
                            "pitch": 38, 
                            "t0": 22194, 
                            "v": 112, 
                            "dur": 99, 
                            "type": "note", 
                            "channel": 6
                        }
                    ]
                ], 
                [
                    22454, 
                    [
                        {
                            "pitch": 40, 
                            "t0": 22454, 
                            "v": 104, 
                            "dur": 104, 
                            "type": "note", 
                            "channel": 6
                        }
                    ]
                ], 
                [
                    22577, 
                    [
                        {
                            "pitch": 45, 
                            "t0": 22577, 
                            "v": 108, 
                            "dur": 155, 
                            "type": "note", 
                            "channel": 6
                        }
                    ]
                ], 
                [
                    22701, 
                    [
                        {
                            "pitch": 40, 
                            "t0": 22701, 
                            "v": 112, 
                            "dur": 97, 
                            "type": "note", 
                            "channel": 6
                        }
                    ]
                ], 
                [
                    22928, 
                    [
                        {
                            "pitch": 40, 
                            "t0": 22928, 
                            "v": 72, 
                            "dur": 96, 
                            "type": "note", 
                            "channel": 6
                        }
                    ]
                ], 
                [
                    23042, 
                    [
                        {
                            "pitch": 43, 
                            "t0": 23042, 
                            "v": 112, 
                            "dur": 161, 
                            "type": "note", 
                            "channel": 6
                        }
                    ]
                ], 
                [
                    23160, 
                    [
                        {
                            "pitch": 38, 
                            "t0": 23160, 
                            "v": 112, 
                            "dur": 114, 
                            "type": "note", 
                            "channel": 6
                        }
                    ]
                ], 
                [
                    23418, 
                    [
                        {
                            "pitch": 40, 
                            "t0": 23418, 
                            "v": 100, 
                            "dur": 92, 
                            "type": "note", 
                            "channel": 6
                        }
                    ]
                ], 
                [
                    23531, 
                    [
                        {
                            "pitch": 45, 
                            "t0": 23531, 
                            "v": 112, 
                            "dur": 132, 
                            "type": "note", 
                            "channel": 6
                        }
                    ]
                ], 
                [
                    23641, 
                    [
                        {
                            "pitch": 40, 
                            "t0": 23641, 
                            "v": 108, 
                            "dur": 110, 
                            "type": "note", 
                            "channel": 6
                        }
                    ]
                ], 
                [
                    23878, 
                    [
                        {
                            "pitch": 40, 
                            "t0": 23878, 
                            "v": 64, 
                            "dur": 94, 
                            "type": "note", 
                            "channel": 6
                        }
                    ]
                ], 
                [
                    23996, 
                    [
                        {
                            "pitch": 43, 
                            "t0": 23996, 
                            "v": 116, 
                            "dur": 150, 
                            "type": "note", 
                            "channel": 6
                        }
                    ]
                ], 
                [
                    24108, 
                    [
                        {
                            "pitch": 38, 
                            "t0": 24108, 
                            "v": 112, 
                            "dur": 119, 
                            "type": "note", 
                            "channel": 6
                        }
                    ]
                ], 
                [
                    24369, 
                    [
                        {
                            "pitch": 40, 
                            "t0": 24369, 
                            "v": 96, 
                            "dur": 100, 
                            "type": "note", 
                            "channel": 6
                        }
                    ]
                ], 
                [
                    24480, 
                    [
                        {
                            "pitch": 45, 
                            "t0": 24480, 
                            "v": 108, 
                            "dur": 153, 
                            "type": "note", 
                            "channel": 6
                        }
                    ]
                ], 
                [
                    24602, 
                    [
                        {
                            "pitch": 40, 
                            "t0": 24602, 
                            "v": 104, 
                            "dur": 126, 
                            "type": "note", 
                            "channel": 6
                        }
                    ]
                ], 
                [
                    24838, 
                    [
                        {
                            "pitch": 40, 
                            "t0": 24838, 
                            "v": 88, 
                            "dur": 97, 
                            "type": "note", 
                            "channel": 6
                        }
                    ]
                ], 
                [
                    24951, 
                    [
                        {
                            "pitch": 43, 
                            "t0": 24951, 
                            "v": 116, 
                            "dur": 147, 
                            "type": "note", 
                            "channel": 6
                        }
                    ]
                ], 
                [
                    25065, 
                    [
                        {
                            "pitch": 38, 
                            "t0": 25065, 
                            "v": 100, 
                            "dur": 126, 
                            "type": "note", 
                            "channel": 6
                        }
                    ]
                ], 
                [
                    25319, 
                    [
                        {
                            "pitch": 40, 
                            "t0": 25319, 
                            "v": 76, 
                            "dur": 106, 
                            "type": "note", 
                            "channel": 6
                        }
                    ]
                ], 
                [
                    25440, 
                    [
                        {
                            "pitch": 45, 
                            "t0": 25440, 
                            "v": 112, 
                            "dur": 148, 
                            "type": "note", 
                            "channel": 6
                        }
                    ]
                ], 
                [
                    25560, 
                    [
                        {
                            "pitch": 40, 
                            "t0": 25560, 
                            "v": 92, 
                            "dur": 103, 
                            "type": "note", 
                            "channel": 6
                        }
                    ]
                ], 
                [
                    25797, 
                    [
                        {
                            "pitch": 40, 
                            "t0": 25797, 
                            "v": 76, 
                            "dur": 108, 
                            "type": "note", 
                            "channel": 6
                        }
                    ]
                ], 
                [
                    25920, 
                    [
                        {
                            "pitch": 43, 
                            "t0": 25920, 
                            "v": 112, 
                            "dur": 147, 
                            "type": "note", 
                            "channel": 6
                        }
                    ]
                ], 
                [
                    26035, 
                    [
                        {
                            "pitch": 38, 
                            "t0": 26035, 
                            "v": 92, 
                            "dur": 121, 
                            "type": "note", 
                            "channel": 6
                        }
                    ]
                ], 
                [
                    26292, 
                    [
                        {
                            "pitch": 40, 
                            "t0": 26292, 
                            "v": 96, 
                            "dur": 103, 
                            "type": "note", 
                            "channel": 6
                        }
                    ]
                ], 
                [
                    26415, 
                    [
                        {
                            "pitch": 45, 
                            "t0": 26415, 
                            "v": 112, 
                            "dur": 129, 
                            "type": "note", 
                            "channel": 6
                        }
                    ]
                ], 
                [
                    26524, 
                    [
                        {
                            "pitch": 40, 
                            "t0": 26524, 
                            "v": 88, 
                            "dur": 111, 
                            "type": "note", 
                            "channel": 6
                        }
                    ]
                ], 
                [
                    26782, 
                    [
                        {
                            "pitch": 40, 
                            "t0": 26782, 
                            "v": 88, 
                            "dur": 89, 
                            "type": "note", 
                            "channel": 6
                        }
                    ]
                ], 
                [
                    26893, 
                    [
                        {
                            "pitch": 43, 
                            "t0": 26893, 
                            "v": 100, 
                            "dur": 170, 
                            "type": "note", 
                            "channel": 6
                        }
                    ]
                ], 
                [
                    27019, 
                    [
                        {
                            "pitch": 38, 
                            "t0": 27019, 
                            "v": 108, 
                            "dur": 101, 
                            "type": "note", 
                            "channel": 6
                        }
                    ]
                ], 
                [
                    27257, 
                    [
                        {
                            "pitch": 40, 
                            "t0": 27257, 
                            "v": 96, 
                            "dur": 108, 
                            "type": "note", 
                            "channel": 6
                        }
                    ]
                ], 
                [
                    27370, 
                    [
                        {
                            "pitch": 45, 
                            "t0": 27370, 
                            "v": 112, 
                            "dur": 148, 
                            "type": "note", 
                            "channel": 6
                        }
                    ]
                ], 
                [
                    27488, 
                    [
                        {
                            "pitch": 40, 
                            "t0": 27488, 
                            "v": 104, 
                            "dur": 97, 
                            "type": "note", 
                            "channel": 6
                        }
                    ]
                ], 
                [
                    27744, 
                    [
                        {
                            "pitch": 40, 
                            "t0": 27744, 
                            "v": 68, 
                            "dur": 86, 
                            "type": "note", 
                            "channel": 6
                        }
                    ]
                ], 
                [
                    27845, 
                    [
                        {
                            "pitch": 43, 
                            "t0": 27845, 
                            "v": 100, 
                            "dur": 152, 
                            "type": "note", 
                            "channel": 6
                        }
                    ]
                ], 
                [
                    27974, 
                    [
                        {
                            "pitch": 38, 
                            "t0": 27974, 
                            "v": 112, 
                            "dur": 106, 
                            "type": "note", 
                            "channel": 6
                        }
                    ]
                ], 
                [
                    28215, 
                    [
                        {
                            "pitch": 40, 
                            "t0": 28215, 
                            "v": 100, 
                            "dur": 99, 
                            "type": "note", 
                            "channel": 6
                        }
                    ]
                ], 
                [
                    28329, 
                    [
                        {
                            "pitch": 45, 
                            "t0": 28329, 
                            "v": 112, 
                            "dur": 124, 
                            "type": "note", 
                            "channel": 6
                        }
                    ]
                ], 
                [
                    28447, 
                    [
                        {
                            "pitch": 40, 
                            "t0": 28447, 
                            "v": 104, 
                            "dur": 96, 
                            "type": "note", 
                            "channel": 6
                        }
                    ]
                ], 
                [
                    28681, 
                    [
                        {
                            "pitch": 40, 
                            "t0": 28681, 
                            "v": 60, 
                            "dur": 93, 
                            "type": "note", 
                            "channel": 6
                        }
                    ]
                ], 
                [
                    28792, 
                    [
                        {
                            "pitch": 43, 
                            "t0": 28792, 
                            "v": 108, 
                            "dur": 127, 
                            "type": "note", 
                            "channel": 6
                        }
                    ]
                ], 
                [
                    28910, 
                    [
                        {
                            "pitch": 38, 
                            "t0": 28910, 
                            "v": 108, 
                            "dur": 116, 
                            "type": "note", 
                            "channel": 6
                        }
                    ]
                ], 
                [
                    29172, 
                    [
                        {
                            "pitch": 40, 
                            "t0": 29172, 
                            "v": 96, 
                            "dur": 96, 
                            "type": "note", 
                            "channel": 6
                        }
                    ]
                ], 
                [
                    29282, 
                    [
                        {
                            "pitch": 45, 
                            "t0": 29282, 
                            "v": 112, 
                            "dur": 131, 
                            "type": "note", 
                            "channel": 6
                        }
                    ]
                ], 
                [
                    29400, 
                    [
                        {
                            "pitch": 40, 
                            "t0": 29400, 
                            "v": 100, 
                            "dur": 118, 
                            "type": "note", 
                            "channel": 6
                        }
                    ]
                ], 
                [
                    29644, 
                    [
                        {
                            "pitch": 40, 
                            "t0": 29644, 
                            "v": 72, 
                            "dur": 96, 
                            "type": "note", 
                            "channel": 6
                        }
                    ]
                ], 
                [
                    29760, 
                    [
                        {
                            "pitch": 43, 
                            "t0": 29760, 
                            "v": 108, 
                            "dur": 132, 
                            "type": "note", 
                            "channel": 6
                        }
                    ]
                ], 
                [
                    29884, 
                    [
                        {
                            "pitch": 38, 
                            "t0": 29884, 
                            "v": 104, 
                            "dur": 114, 
                            "type": "note", 
                            "channel": 6
                        }
                    ]
                ], 
                [
                    30140, 
                    [
                        {
                            "pitch": 40, 
                            "t0": 30140, 
                            "v": 92, 
                            "dur": 107, 
                            "type": "note", 
                            "channel": 6
                        }
                    ]
                ], 
                [
                    30252, 
                    [
                        {
                            "pitch": 45, 
                            "t0": 30252, 
                            "v": 100, 
                            "dur": 133, 
                            "type": "note", 
                            "channel": 6
                        }
                    ]
                ], 
                [
                    30370, 
                    [
                        {
                            "pitch": 40, 
                            "t0": 30370, 
                            "v": 104, 
                            "dur": 114, 
                            "type": "note", 
                            "channel": 6
                        }
                    ]
                ], 
                [
                    30610, 
                    [
                        {
                            "pitch": 40, 
                            "t0": 30610, 
                            "v": 92, 
                            "dur": 90, 
                            "type": "note", 
                            "channel": 6
                        }
                    ]
                ], 
                [
                    30721, 
                    [
                        {
                            "pitch": 43, 
                            "t0": 30721, 
                            "v": 112, 
                            "dur": 132, 
                            "type": "note", 
                            "channel": 6
                        }
                    ]
                ], 
                [
                    30828, 
                    [
                        {
                            "pitch": 38, 
                            "t0": 30828, 
                            "v": 104, 
                            "dur": 107, 
                            "type": "note", 
                            "channel": 6
                        }
                    ]
                ], 
                [
                    31097, 
                    [
                        {
                            "pitch": 40, 
                            "t0": 31097, 
                            "v": 104, 
                            "dur": 97, 
                            "type": "note", 
                            "channel": 6
                        }
                    ]
                ], 
                [
                    31205, 
                    [
                        {
                            "pitch": 45, 
                            "t0": 31205, 
                            "v": 108, 
                            "dur": 134, 
                            "type": "note", 
                            "channel": 6
                        }
                    ]
                ], 
                [
                    31326, 
                    [
                        {
                            "pitch": 40, 
                            "t0": 31326, 
                            "v": 104, 
                            "dur": 113, 
                            "type": "note", 
                            "channel": 6
                        }
                    ]
                ], 
                [
                    31578, 
                    [
                        {
                            "pitch": 40, 
                            "t0": 31578, 
                            "v": 76, 
                            "dur": 92, 
                            "type": "note", 
                            "channel": 6
                        }
                    ]
                ], 
                [
                    31687, 
                    [
                        {
                            "pitch": 43, 
                            "t0": 31687, 
                            "v": 104, 
                            "dur": 128, 
                            "type": "note", 
                            "channel": 6
                        }
                    ]
                ], 
                [
                    31814, 
                    [
                        {
                            "pitch": 38, 
                            "t0": 31814, 
                            "v": 112, 
                            "dur": 120, 
                            "type": "note", 
                            "channel": 6
                        }
                    ]
                ], 
                [
                    32064, 
                    [
                        {
                            "pitch": 40, 
                            "t0": 32064, 
                            "v": 100, 
                            "dur": 103, 
                            "type": "note", 
                            "channel": 6
                        }
                    ]
                ], 
                [
                    32173, 
                    [
                        {
                            "pitch": 45, 
                            "t0": 32173, 
                            "v": 112, 
                            "dur": 132, 
                            "type": "note", 
                            "channel": 6
                        }
                    ]
                ], 
                [
                    32295, 
                    [
                        {
                            "pitch": 40, 
                            "t0": 32295, 
                            "v": 108, 
                            "dur": 108, 
                            "type": "note", 
                            "channel": 6
                        }
                    ]
                ], 
                [
                    32532, 
                    [
                        {
                            "pitch": 40, 
                            "t0": 32532, 
                            "v": 80, 
                            "dur": 89, 
                            "type": "note", 
                            "channel": 6
                        }
                    ]
                ], 
                [
                    32647, 
                    [
                        {
                            "pitch": 43, 
                            "t0": 32647, 
                            "v": 112, 
                            "dur": 109, 
                            "type": "note", 
                            "channel": 6
                        }
                    ]
                ], 
                [
                    32756, 
                    [
                        {
                            "pitch": 38, 
                            "t0": 32756, 
                            "v": 112, 
                            "dur": 86, 
                            "type": "note", 
                            "channel": 6
                        }
                    ]
                ], 
                [
                    33011, 
                    [
                        {
                            "pitch": 40, 
                            "t0": 33011, 
                            "v": 92, 
                            "dur": 93, 
                            "type": "note", 
                            "channel": 6
                        }
                    ]
                ], 
                [
                    33119, 
                    [
                        {
                            "pitch": 45, 
                            "t0": 33119, 
                            "v": 108, 
                            "dur": 127, 
                            "type": "note", 
                            "channel": 6
                        }
                    ]
                ], 
                [
                    33238, 
                    [
                        {
                            "pitch": 40, 
                            "t0": 33238, 
                            "v": 108, 
                            "dur": 135, 
                            "type": "note", 
                            "channel": 6
                        }
                    ]
                ], 
                [
                    33492, 
                    [
                        {
                            "pitch": 40, 
                            "t0": 33492, 
                            "v": 72, 
                            "dur": 87, 
                            "type": "note", 
                            "channel": 6
                        }
                    ]
                ], 
                [
                    33605, 
                    [
                        {
                            "pitch": 43, 
                            "t0": 33605, 
                            "v": 108, 
                            "dur": 149, 
                            "type": "note", 
                            "channel": 6
                        }
                    ]
                ], 
                [
                    33727, 
                    [
                        {
                            "pitch": 38, 
                            "t0": 33727, 
                            "v": 72, 
                            "dur": 120, 
                            "type": "note", 
                            "channel": 6
                        }
                    ]
                ], 
                [
                    33728, 
                    [
                        {
                            "pitch": 36, 
                            "t0": 33728, 
                            "v": 104, 
                            "dur": 88, 
                            "type": "note", 
                            "channel": 6
                        }
                    ]
                ], 
                [
                    33982, 
                    [
                        {
                            "pitch": 40, 
                            "t0": 33982, 
                            "v": 72, 
                            "dur": 105, 
                            "type": "note", 
                            "channel": 6
                        }
                    ]
                ], 
                [
                    34100, 
                    [
                        {
                            "pitch": 45, 
                            "t0": 34100, 
                            "v": 72, 
                            "dur": 120, 
                            "type": "note", 
                            "channel": 6
                        }
                    ]
                ], 
                [
                    34215, 
                    [
                        {
                            "pitch": 40, 
                            "t0": 34215, 
                            "v": 100, 
                            "dur": 121, 
                            "type": "note", 
                            "channel": 6
                        }
                    ]
                ], 
                [
                    34443, 
                    [
                        {
                            "pitch": 40, 
                            "t0": 34443, 
                            "v": 72, 
                            "dur": 100, 
                            "type": "note", 
                            "channel": 6
                        }
                    ]
                ], 
                [
                    34564, 
                    [
                        {
                            "pitch": 43, 
                            "t0": 34564, 
                            "v": 112, 
                            "dur": 109, 
                            "type": "note", 
                            "channel": 6
                        }
                    ]
                ], 
                [
                    34668, 
                    [
                        {
                            "pitch": 38, 
                            "t0": 34668, 
                            "v": 108, 
                            "dur": 103, 
                            "type": "note", 
                            "channel": 6
                        }
                    ]
                ], 
                [
                    34938, 
                    [
                        {
                            "pitch": 40, 
                            "t0": 34938, 
                            "v": 100, 
                            "dur": 93, 
                            "type": "note", 
                            "channel": 6
                        }
                    ]
                ], 
                [
                    35057, 
                    [
                        {
                            "pitch": 45, 
                            "t0": 35057, 
                            "v": 108, 
                            "dur": 124, 
                            "type": "note", 
                            "channel": 6
                        }
                    ]
                ], 
                [
                    35175, 
                    [
                        {
                            "pitch": 40, 
                            "t0": 35175, 
                            "v": 100, 
                            "dur": 102, 
                            "type": "note", 
                            "channel": 6
                        }
                    ]
                ], 
                [
                    35407, 
                    [
                        {
                            "pitch": 40, 
                            "t0": 35407, 
                            "v": 80, 
                            "dur": 89, 
                            "type": "note", 
                            "channel": 6
                        }
                    ]
                ], 
                [
                    35528, 
                    [
                        {
                            "pitch": 43, 
                            "t0": 35528, 
                            "v": 112, 
                            "dur": 119, 
                            "type": "note", 
                            "channel": 6
                        }
                    ]
                ], 
                [
                    35640, 
                    [
                        {
                            "pitch": 38, 
                            "t0": 35640, 
                            "v": 100, 
                            "dur": 117, 
                            "type": "note", 
                            "channel": 6
                        }
                    ]
                ], 
                [
                    35900, 
                    [
                        {
                            "pitch": 40, 
                            "t0": 35900, 
                            "v": 92, 
                            "dur": 101, 
                            "type": "note", 
                            "channel": 6
                        }
                    ]
                ], 
                [
                    36023, 
                    [
                        {
                            "pitch": 45, 
                            "t0": 36023, 
                            "v": 112, 
                            "dur": 116, 
                            "type": "note", 
                            "channel": 6
                        }
                    ]
                ], 
                [
                    36132, 
                    [
                        {
                            "pitch": 40, 
                            "t0": 36132, 
                            "v": 100, 
                            "dur": 119, 
                            "type": "note", 
                            "channel": 6
                        }
                    ]
                ], 
                [
                    36380, 
                    [
                        {
                            "pitch": 40, 
                            "t0": 36380, 
                            "v": 88, 
                            "dur": 87, 
                            "type": "note", 
                            "channel": 6
                        }
                    ]
                ], 
                [
                    36495, 
                    [
                        {
                            "pitch": 43, 
                            "t0": 36495, 
                            "v": 108, 
                            "dur": 111, 
                            "type": "note", 
                            "channel": 6
                        }
                    ]
                ], 
                [
                    36601, 
                    [
                        {
                            "pitch": 38, 
                            "t0": 36601, 
                            "v": 104, 
                            "dur": 113, 
                            "type": "note", 
                            "channel": 6
                        }
                    ]
                ], 
                [
                    36872, 
                    [
                        {
                            "pitch": 40, 
                            "t0": 36872, 
                            "v": 96, 
                            "dur": 103, 
                            "type": "note", 
                            "channel": 6
                        }
                    ]
                ], 
                [
                    36986, 
                    [
                        {
                            "pitch": 45, 
                            "t0": 36986, 
                            "v": 104, 
                            "dur": 118, 
                            "type": "note", 
                            "channel": 6
                        }
                    ]
                ], 
                [
                    37092, 
                    [
                        {
                            "pitch": 40, 
                            "t0": 37092, 
                            "v": 100, 
                            "dur": 113, 
                            "type": "note", 
                            "channel": 6
                        }
                    ]
                ], 
                [
                    37340, 
                    [
                        {
                            "pitch": 40, 
                            "t0": 37340, 
                            "v": 56, 
                            "dur": 92, 
                            "type": "note", 
                            "channel": 6
                        }
                    ]
                ], 
                [
                    37452, 
                    [
                        {
                            "pitch": 43, 
                            "t0": 37452, 
                            "v": 108, 
                            "dur": 130, 
                            "type": "note", 
                            "channel": 6
                        }
                    ]
                ], 
                [
                    37549, 
                    [
                        {
                            "pitch": 38, 
                            "t0": 37549, 
                            "v": 100, 
                            "dur": 130, 
                            "type": "note", 
                            "channel": 6
                        }
                    ]
                ], 
                [
                    37817, 
                    [
                        {
                            "pitch": 40, 
                            "t0": 37817, 
                            "v": 64, 
                            "dur": 119, 
                            "type": "note", 
                            "channel": 6
                        }
                    ]
                ], 
                [
                    37935, 
                    [
                        {
                            "pitch": 45, 
                            "t0": 37935, 
                            "v": 88, 
                            "dur": 137, 
                            "type": "note", 
                            "channel": 6
                        }
                    ]
                ], 
                [
                    38051, 
                    [
                        {
                            "pitch": 40, 
                            "t0": 38051, 
                            "v": 96, 
                            "dur": 96, 
                            "type": "note", 
                            "channel": 6
                        }
                    ]
                ], 
                [
                    38301, 
                    [
                        {
                            "pitch": 38, 
                            "t0": 38301, 
                            "v": 92, 
                            "dur": 96, 
                            "type": "note", 
                            "channel": 6
                        }
                    ]
                ], 
                [
                    38410, 
                    [
                        {
                            "pitch": 43, 
                            "t0": 38410, 
                            "v": 84, 
                            "dur": 108, 
                            "type": "note", 
                            "channel": 6
                        }
                    ]
                ], 
                [
                    38510, 
                    [
                        {
                            "pitch": 38, 
                            "t0": 38510, 
                            "v": 100, 
                            "dur": 115, 
                            "type": "note", 
                            "channel": 6
                        }
                    ]
                ], 
                [
                    38767, 
                    [
                        {
                            "pitch": 40, 
                            "t0": 38767, 
                            "v": 84, 
                            "dur": 104, 
                            "type": "note", 
                            "channel": 6
                        }
                    ]
                ], 
                [
                    38879, 
                    [
                        {
                            "pitch": 45, 
                            "t0": 38879, 
                            "v": 104, 
                            "dur": 138, 
                            "type": "note", 
                            "channel": 6
                        }
                    ]
                ], 
                [
                    38990, 
                    [
                        {
                            "pitch": 40, 
                            "t0": 38990, 
                            "v": 84, 
                            "dur": 112, 
                            "type": "note", 
                            "channel": 6
                        }
                    ]
                ], 
                [
                    39235, 
                    [
                        {
                            "pitch": 40, 
                            "t0": 39235, 
                            "v": 72, 
                            "dur": 96, 
                            "type": "note", 
                            "channel": 6
                        }
                    ]
                ], 
                [
                    39343, 
                    [
                        {
                            "pitch": 43, 
                            "t0": 39343, 
                            "v": 96, 
                            "dur": 110, 
                            "type": "note", 
                            "channel": 6
                        }
                    ]
                ], 
                [
                    39454, 
                    [
                        {
                            "pitch": 38, 
                            "t0": 39454, 
                            "v": 96, 
                            "dur": 122, 
                            "type": "note", 
                            "channel": 6
                        }
                    ]
                ], 
                [
                    39727, 
                    [
                        {
                            "pitch": 40, 
                            "t0": 39727, 
                            "v": 92, 
                            "dur": 103, 
                            "type": "note", 
                            "channel": 6
                        }
                    ]
                ], 
                [
                    39844, 
                    [
                        {
                            "pitch": 45, 
                            "t0": 39844, 
                            "v": 92, 
                            "dur": 123, 
                            "type": "note", 
                            "channel": 6
                        }
                    ]
                ], 
                [
                    39957, 
                    [
                        {
                            "pitch": 40, 
                            "t0": 39957, 
                            "v": 84, 
                            "dur": 122, 
                            "type": "note", 
                            "channel": 6
                        }
                    ]
                ], 
                [
                    40199, 
                    [
                        {
                            "pitch": 40, 
                            "t0": 40199, 
                            "v": 76, 
                            "dur": 99, 
                            "type": "note", 
                            "channel": 6
                        }
                    ]
                ], 
                [
                    40314, 
                    [
                        {
                            "pitch": 43, 
                            "t0": 40314, 
                            "v": 104, 
                            "dur": 133, 
                            "type": "note", 
                            "channel": 6
                        }
                    ]
                ], 
                [
                    40421, 
                    [
                        {
                            "pitch": 38, 
                            "t0": 40421, 
                            "v": 100, 
                            "dur": 112, 
                            "type": "note", 
                            "channel": 6
                        }
                    ]
                ], 
                [
                    40692, 
                    [
                        {
                            "pitch": 40, 
                            "t0": 40692, 
                            "v": 88, 
                            "dur": 109, 
                            "type": "note", 
                            "channel": 6
                        }
                    ]
                ], 
                [
                    40809, 
                    [
                        {
                            "pitch": 45, 
                            "t0": 40809, 
                            "v": 100, 
                            "dur": 136, 
                            "type": "note", 
                            "channel": 6
                        }
                    ]
                ], 
                [
                    40921, 
                    [
                        {
                            "pitch": 40, 
                            "t0": 40921, 
                            "v": 88, 
                            "dur": 117, 
                            "type": "note", 
                            "channel": 6
                        }
                    ]
                ], 
                [
                    41166, 
                    [
                        {
                            "pitch": 40, 
                            "t0": 41166, 
                            "v": 76, 
                            "dur": 101, 
                            "type": "note", 
                            "channel": 6
                        }
                    ]
                ], 
                [
                    41282, 
                    [
                        {
                            "pitch": 43, 
                            "t0": 41282, 
                            "v": 108, 
                            "dur": 130, 
                            "type": "note", 
                            "channel": 6
                        }
                    ]
                ], 
                [
                    41394, 
                    [
                        {
                            "pitch": 38, 
                            "t0": 41394, 
                            "v": 104, 
                            "dur": 105, 
                            "type": "note", 
                            "channel": 6
                        }
                    ]
                ], 
                [
                    41669, 
                    [
                        {
                            "pitch": 40, 
                            "t0": 41669, 
                            "v": 76, 
                            "dur": 102, 
                            "type": "note", 
                            "channel": 6
                        }
                    ]
                ], 
                [
                    41784, 
                    [
                        {
                            "pitch": 45, 
                            "t0": 41784, 
                            "v": 100, 
                            "dur": 131, 
                            "type": "note", 
                            "channel": 6
                        }
                    ]
                ], 
                [
                    41892, 
                    [
                        {
                            "pitch": 40, 
                            "t0": 41892, 
                            "v": 80, 
                            "dur": 119, 
                            "type": "note", 
                            "channel": 6
                        }
                    ]
                ], 
                [
                    42124, 
                    [
                        {
                            "pitch": 40, 
                            "t0": 42124, 
                            "v": 76, 
                            "dur": 94, 
                            "type": "note", 
                            "channel": 6
                        }
                    ]
                ], 
                [
                    42238, 
                    [
                        {
                            "pitch": 43, 
                            "t0": 42238, 
                            "v": 108, 
                            "dur": 111, 
                            "type": "note", 
                            "channel": 6
                        }
                    ]
                ], 
                [
                    42346, 
                    [
                        {
                            "pitch": 38, 
                            "t0": 42346, 
                            "v": 104, 
                            "dur": 120, 
                            "type": "note", 
                            "channel": 6
                        }
                    ]
                ], 
                [
                    42607, 
                    [
                        {
                            "pitch": 40, 
                            "t0": 42607, 
                            "v": 92, 
                            "dur": 108, 
                            "type": "note", 
                            "channel": 6
                        }
                    ]
                ], 
                [
                    42726, 
                    [
                        {
                            "pitch": 45, 
                            "t0": 42726, 
                            "v": 104, 
                            "dur": 142, 
                            "type": "note", 
                            "channel": 6
                        }
                    ]
                ], 
                [
                    42837, 
                    [
                        {
                            "pitch": 40, 
                            "t0": 42837, 
                            "v": 100, 
                            "dur": 129, 
                            "type": "note", 
                            "channel": 6
                        }
                    ]
                ], 
                [
                    43089, 
                    [
                        {
                            "pitch": 40, 
                            "t0": 43089, 
                            "v": 58, 
                            "dur": 94, 
                            "type": "note", 
                            "channel": 6
                        }
                    ]
                ], 
                [
                    43201, 
                    [
                        {
                            "pitch": 43, 
                            "t0": 43201, 
                            "v": 96, 
                            "dur": 108, 
                            "type": "note", 
                            "channel": 6
                        }
                    ]
                ], 
                [
                    43315, 
                    [
                        {
                            "pitch": 38, 
                            "t0": 43315, 
                            "v": 104, 
                            "dur": 104, 
                            "type": "note", 
                            "channel": 6
                        }
                    ]
                ], 
                [
                    43579, 
                    [
                        {
                            "pitch": 40, 
                            "t0": 43579, 
                            "v": 88, 
                            "dur": 107, 
                            "type": "note", 
                            "channel": 6
                        }
                    ]
                ], 
                [
                    43695, 
                    [
                        {
                            "pitch": 45, 
                            "t0": 43695, 
                            "v": 104, 
                            "dur": 121, 
                            "type": "note", 
                            "channel": 6
                        }
                    ]
                ], 
                [
                    43803, 
                    [
                        {
                            "pitch": 40, 
                            "t0": 43803, 
                            "v": 96, 
                            "dur": 105, 
                            "type": "note", 
                            "channel": 6
                        }
                    ]
                ], 
                [
                    44034, 
                    [
                        {
                            "pitch": 40, 
                            "t0": 44034, 
                            "v": 72, 
                            "dur": 117, 
                            "type": "note", 
                            "channel": 6
                        }
                    ]
                ], 
                [
                    44153, 
                    [
                        {
                            "pitch": 43, 
                            "t0": 44153, 
                            "v": 104, 
                            "dur": 118, 
                            "type": "note", 
                            "channel": 6
                        }
                    ]
                ], 
                [
                    44265, 
                    [
                        {
                            "pitch": 38, 
                            "t0": 44265, 
                            "v": 104, 
                            "dur": 108, 
                            "type": "note", 
                            "channel": 6
                        }
                    ]
                ], 
                [
                    44524, 
                    [
                        {
                            "pitch": 40, 
                            "t0": 44524, 
                            "v": 80, 
                            "dur": 113, 
                            "type": "note", 
                            "channel": 6
                        }
                    ]
                ], 
                [
                    44652, 
                    [
                        {
                            "pitch": 45, 
                            "t0": 44652, 
                            "v": 96, 
                            "dur": 126, 
                            "type": "note", 
                            "channel": 6
                        }
                    ]
                ], 
                [
                    44765, 
                    [
                        {
                            "pitch": 40, 
                            "t0": 44765, 
                            "v": 96, 
                            "dur": 112, 
                            "type": "note", 
                            "channel": 6
                        }
                    ]
                ], 
                [
                    45014, 
                    [
                        {
                            "pitch": 40, 
                            "t0": 45014, 
                            "v": 80, 
                            "dur": 91, 
                            "type": "note", 
                            "channel": 6
                        }
                    ]
                ], 
                [
                    45124, 
                    [
                        {
                            "pitch": 43, 
                            "t0": 45124, 
                            "v": 96, 
                            "dur": 134, 
                            "type": "note", 
                            "channel": 6
                        }
                    ]
                ], 
                [
                    45235, 
                    [
                        {
                            "pitch": 38, 
                            "t0": 45235, 
                            "v": 96, 
                            "dur": 107, 
                            "type": "note", 
                            "channel": 6
                        }
                    ]
                ], 
                [
                    45492, 
                    [
                        {
                            "pitch": 40, 
                            "t0": 45492, 
                            "v": 72, 
                            "dur": 108, 
                            "type": "note", 
                            "channel": 6
                        }
                    ]
                ], 
                [
                    45621, 
                    [
                        {
                            "pitch": 45, 
                            "t0": 45621, 
                            "v": 104, 
                            "dur": 118, 
                            "type": "note", 
                            "channel": 6
                        }
                    ]
                ], 
                [
                    45733, 
                    [
                        {
                            "pitch": 40, 
                            "t0": 45733, 
                            "v": 104, 
                            "dur": 92, 
                            "type": "note", 
                            "channel": 6
                        }
                    ]
                ], 
                [
                    45973, 
                    [
                        {
                            "pitch": 40, 
                            "t0": 45973, 
                            "v": 35, 
                            "dur": 95, 
                            "type": "note", 
                            "channel": 6
                        }
                    ]
                ], 
                [
                    46102, 
                    [
                        {
                            "pitch": 43, 
                            "t0": 46102, 
                            "v": 104, 
                            "dur": 100, 
                            "type": "note", 
                            "channel": 6
                        }
                    ]
                ], 
                [
                    46206, 
                    [
                        {
                            "pitch": 38, 
                            "t0": 46206, 
                            "v": 104, 
                            "dur": 97, 
                            "type": "note", 
                            "channel": 6
                        }
                    ]
                ], 
                [
                    46448, 
                    [
                        {
                            "pitch": 40, 
                            "t0": 46448, 
                            "v": 84, 
                            "dur": 109, 
                            "type": "note", 
                            "channel": 6
                        }
                    ]
                ], 
                [
                    46576, 
                    [
                        {
                            "pitch": 45, 
                            "t0": 46576, 
                            "v": 112, 
                            "dur": 116, 
                            "type": "note", 
                            "channel": 6
                        }
                    ]
                ], 
                [
                    46687, 
                    [
                        {
                            "pitch": 40, 
                            "t0": 46687, 
                            "v": 96, 
                            "dur": 97, 
                            "type": "note", 
                            "channel": 6
                        }
                    ]
                ], 
                [
                    46924, 
                    [
                        {
                            "pitch": 40, 
                            "t0": 46924, 
                            "v": 96, 
                            "dur": 88, 
                            "type": "note", 
                            "channel": 6
                        }
                    ]
                ], 
                [
                    47044, 
                    [
                        {
                            "pitch": 43, 
                            "t0": 47044, 
                            "v": 112, 
                            "dur": 130, 
                            "type": "note", 
                            "channel": 6
                        }
                    ]
                ], 
                [
                    47149, 
                    [
                        {
                            "pitch": 38, 
                            "t0": 47149, 
                            "v": 108, 
                            "dur": 108, 
                            "type": "note", 
                            "channel": 6
                        }
                    ]
                ], 
                [
                    47401, 
                    [
                        {
                            "pitch": 40, 
                            "t0": 47401, 
                            "v": 104, 
                            "dur": 110, 
                            "type": "note", 
                            "channel": 6
                        }
                    ]
                ], 
                [
                    47526, 
                    [
                        {
                            "pitch": 45, 
                            "t0": 47526, 
                            "v": 108, 
                            "dur": 112, 
                            "type": "note", 
                            "channel": 6
                        }
                    ]
                ], 
                [
                    47636, 
                    [
                        {
                            "pitch": 40, 
                            "t0": 47636, 
                            "v": 104, 
                            "dur": 109, 
                            "type": "note", 
                            "channel": 6
                        }
                    ]
                ], 
                [
                    47868, 
                    [
                        {
                            "pitch": 40, 
                            "t0": 47868, 
                            "v": 84, 
                            "dur": 90, 
                            "type": "note", 
                            "channel": 6
                        }
                    ]
                ], 
                [
                    47990, 
                    [
                        {
                            "pitch": 43, 
                            "t0": 47990, 
                            "v": 108, 
                            "dur": 107, 
                            "type": "note", 
                            "channel": 6
                        }
                    ]
                ], 
                [
                    48096, 
                    [
                        {
                            "pitch": 38, 
                            "t0": 48096, 
                            "v": 112, 
                            "dur": 111, 
                            "type": "note", 
                            "channel": 6
                        }
                    ]
                ], 
                [
                    48361, 
                    [
                        {
                            "pitch": 40, 
                            "t0": 48361, 
                            "v": 108, 
                            "dur": 100, 
                            "type": "note", 
                            "channel": 6
                        }
                    ]
                ], 
                [
                    48494, 
                    [
                        {
                            "pitch": 45, 
                            "t0": 48494, 
                            "v": 112, 
                            "dur": 113, 
                            "type": "note", 
                            "channel": 6
                        }
                    ]
                ], 
                [
                    48599, 
                    [
                        {
                            "pitch": 40, 
                            "t0": 48599, 
                            "v": 104, 
                            "dur": 104, 
                            "type": "note", 
                            "channel": 6
                        }
                    ]
                ], 
                [
                    48846, 
                    [
                        {
                            "pitch": 40, 
                            "t0": 48846, 
                            "v": 100, 
                            "dur": 84, 
                            "type": "note", 
                            "channel": 6
                        }
                    ]
                ], 
                [
                    48967, 
                    [
                        {
                            "pitch": 43, 
                            "t0": 48967, 
                            "v": 112, 
                            "dur": 113, 
                            "type": "note", 
                            "channel": 6
                        }
                    ]
                ], 
                [
                    49078, 
                    [
                        {
                            "pitch": 38, 
                            "t0": 49078, 
                            "v": 108, 
                            "dur": 106, 
                            "type": "note", 
                            "channel": 6
                        }
                    ]
                ], 
                [
                    49344, 
                    [
                        {
                            "pitch": 40, 
                            "t0": 49344, 
                            "v": 104, 
                            "dur": 98, 
                            "type": "note", 
                            "channel": 6
                        }
                    ]
                ], 
                [
                    49468, 
                    [
                        {
                            "pitch": 45, 
                            "t0": 49468, 
                            "v": 116, 
                            "dur": 116, 
                            "type": "note", 
                            "channel": 6
                        }
                    ]
                ], 
                [
                    49572, 
                    [
                        {
                            "pitch": 40, 
                            "t0": 49572, 
                            "v": 112, 
                            "dur": 102, 
                            "type": "note", 
                            "channel": 6
                        }
                    ]
                ], 
                [
                    49819, 
                    [
                        {
                            "pitch": 40, 
                            "t0": 49819, 
                            "v": 100, 
                            "dur": 77, 
                            "type": "note", 
                            "channel": 6
                        }
                    ]
                ], 
                [
                    49940, 
                    [
                        {
                            "pitch": 43, 
                            "t0": 49940, 
                            "v": 116, 
                            "dur": 121, 
                            "type": "note", 
                            "channel": 6
                        }
                    ]
                ], 
                [
                    50049, 
                    [
                        {
                            "pitch": 38, 
                            "t0": 50049, 
                            "v": 112, 
                            "dur": 100, 
                            "type": "note", 
                            "channel": 6
                        }
                    ]
                ], 
                [
                    50306, 
                    [
                        {
                            "pitch": 40, 
                            "t0": 50306, 
                            "v": 112, 
                            "dur": 91, 
                            "type": "note", 
                            "channel": 6
                        }
                    ]
                ], 
                [
                    50425, 
                    [
                        {
                            "pitch": 45, 
                            "t0": 50425, 
                            "v": 116, 
                            "dur": 126, 
                            "type": "note", 
                            "channel": 6
                        }
                    ]
                ], 
                [
                    50534, 
                    [
                        {
                            "pitch": 40, 
                            "t0": 50534, 
                            "v": 108, 
                            "dur": 80, 
                            "type": "note", 
                            "channel": 6
                        }
                    ]
                ], 
                [
                    50773, 
                    [
                        {
                            "pitch": 38, 
                            "t0": 50773, 
                            "v": 108, 
                            "dur": 77, 
                            "type": "note", 
                            "channel": 6
                        }
                    ]
                ], 
                [
                    50898, 
                    [
                        {
                            "pitch": 43, 
                            "t0": 50898, 
                            "v": 112, 
                            "dur": 117, 
                            "type": "note", 
                            "channel": 6
                        }
                    ]
                ], 
                [
                    51001, 
                    [
                        {
                            "pitch": 38, 
                            "t0": 51001, 
                            "v": 112, 
                            "dur": 95, 
                            "type": "note", 
                            "channel": 6
                        }
                    ]
                ], 
                [
                    51244, 
                    [
                        {
                            "pitch": 40, 
                            "t0": 51244, 
                            "v": 108, 
                            "dur": 101, 
                            "type": "note", 
                            "channel": 6
                        }
                    ]
                ], 
                [
                    51370, 
                    [
                        {
                            "pitch": 45, 
                            "t0": 51370, 
                            "v": 116, 
                            "dur": 118, 
                            "type": "note", 
                            "channel": 6
                        }
                    ]
                ], 
                [
                    51479, 
                    [
                        {
                            "pitch": 40, 
                            "t0": 51479, 
                            "v": 112, 
                            "dur": 100, 
                            "type": "note", 
                            "channel": 6
                        }
                    ]
                ], 
                [
                    51714, 
                    [
                        {
                            "pitch": 40, 
                            "t0": 51714, 
                            "v": 96, 
                            "dur": 97, 
                            "type": "note", 
                            "channel": 6
                        }
                    ]
                ], 
                [
                    51846, 
                    [
                        {
                            "pitch": 43, 
                            "t0": 51846, 
                            "v": 112, 
                            "dur": 138, 
                            "type": "note", 
                            "channel": 6
                        }
                    ]
                ], 
                [
                    51954, 
                    [
                        {
                            "pitch": 38, 
                            "t0": 51954, 
                            "v": 116, 
                            "dur": 98, 
                            "type": "note", 
                            "channel": 6
                        }
                    ]
                ], 
                [
                    52220, 
                    [
                        {
                            "pitch": 40, 
                            "t0": 52220, 
                            "v": 108, 
                            "dur": 104, 
                            "type": "note", 
                            "channel": 6
                        }
                    ]
                ], 
                [
                    52341, 
                    [
                        {
                            "pitch": 45, 
                            "t0": 52341, 
                            "v": 112, 
                            "dur": 130, 
                            "type": "note", 
                            "channel": 6
                        }
                    ]
                ], 
                [
                    52448, 
                    [
                        {
                            "pitch": 40, 
                            "t0": 52448, 
                            "v": 104, 
                            "dur": 91, 
                            "type": "note", 
                            "channel": 6
                        }
                    ]
                ], 
                [
                    52685, 
                    [
                        {
                            "pitch": 40, 
                            "t0": 52685, 
                            "v": 104, 
                            "dur": 84, 
                            "type": "note", 
                            "channel": 6
                        }
                    ]
                ], 
                [
                    52801, 
                    [
                        {
                            "pitch": 43, 
                            "t0": 52801, 
                            "v": 120, 
                            "dur": 128, 
                            "type": "note", 
                            "channel": 6
                        }
                    ]
                ], 
                [
                    52902, 
                    [
                        {
                            "pitch": 38, 
                            "t0": 52902, 
                            "v": 108, 
                            "dur": 111, 
                            "type": "note", 
                            "channel": 6
                        }
                    ]
                ], 
                [
                    53170, 
                    [
                        {
                            "pitch": 40, 
                            "t0": 53170, 
                            "v": 92, 
                            "dur": 95, 
                            "type": "note", 
                            "channel": 6
                        }
                    ]
                ], 
                [
                    53294, 
                    [
                        {
                            "pitch": 45, 
                            "t0": 53294, 
                            "v": 116, 
                            "dur": 136, 
                            "type": "note", 
                            "channel": 6
                        }
                    ]
                ], 
                [
                    53397, 
                    [
                        {
                            "pitch": 40, 
                            "t0": 53397, 
                            "v": 108, 
                            "dur": 108, 
                            "type": "note", 
                            "channel": 6
                        }
                    ]
                ], 
                [
                    53640, 
                    [
                        {
                            "pitch": 40, 
                            "t0": 53640, 
                            "v": 88, 
                            "dur": 87, 
                            "type": "note", 
                            "channel": 6
                        }
                    ]
                ], 
                [
                    53770, 
                    [
                        {
                            "pitch": 43, 
                            "t0": 53770, 
                            "v": 112, 
                            "dur": 136, 
                            "type": "note", 
                            "channel": 6
                        }
                    ]
                ], 
                [
                    53869, 
                    [
                        {
                            "pitch": 38, 
                            "t0": 53869, 
                            "v": 112, 
                            "dur": 120, 
                            "type": "note", 
                            "channel": 6
                        }
                    ]
                ], 
                [
                    54145, 
                    [
                        {
                            "pitch": 40, 
                            "t0": 54145, 
                            "v": 104, 
                            "dur": 94, 
                            "type": "note", 
                            "channel": 6
                        }
                    ]
                ], 
                [
                    54266, 
                    [
                        {
                            "pitch": 45, 
                            "t0": 54266, 
                            "v": 112, 
                            "dur": 143, 
                            "type": "note", 
                            "channel": 6
                        }
                    ]
                ], 
                [
                    54374, 
                    [
                        {
                            "pitch": 40, 
                            "t0": 54374, 
                            "v": 112, 
                            "dur": 114, 
                            "type": "note", 
                            "channel": 6
                        }
                    ]
                ], 
                [
                    54627, 
                    [
                        {
                            "pitch": 40, 
                            "t0": 54627, 
                            "v": 96, 
                            "dur": 77, 
                            "type": "note", 
                            "channel": 6
                        }
                    ]
                ], 
                [
                    54746, 
                    [
                        {
                            "pitch": 43, 
                            "t0": 54746, 
                            "v": 116, 
                            "dur": 113, 
                            "type": "note", 
                            "channel": 6
                        }
                    ]
                ], 
                [
                    54858, 
                    [
                        {
                            "pitch": 38, 
                            "t0": 54858, 
                            "v": 116, 
                            "dur": 113, 
                            "type": "note", 
                            "channel": 6
                        }
                    ]
                ], 
                [
                    55105, 
                    [
                        {
                            "pitch": 40, 
                            "t0": 55105, 
                            "v": 104, 
                            "dur": 92, 
                            "type": "note", 
                            "channel": 6
                        }
                    ]
                ], 
                [
                    55224, 
                    [
                        {
                            "pitch": 45, 
                            "t0": 55224, 
                            "v": 120, 
                            "dur": 122, 
                            "type": "note", 
                            "channel": 6
                        }
                    ]
                ], 
                [
                    55329, 
                    [
                        {
                            "pitch": 40, 
                            "t0": 55329, 
                            "v": 112, 
                            "dur": 113, 
                            "type": "note", 
                            "channel": 6
                        }
                    ]
                ], 
                [
                    55560, 
                    [
                        {
                            "pitch": 40, 
                            "t0": 55560, 
                            "v": 96, 
                            "dur": 82, 
                            "type": "note", 
                            "channel": 6
                        }
                    ]
                ], 
                [
                    55678, 
                    [
                        {
                            "pitch": 43, 
                            "t0": 55678, 
                            "v": 116, 
                            "dur": 138, 
                            "type": "note", 
                            "channel": 6
                        }
                    ]
                ], 
                [
                    55784, 
                    [
                        {
                            "pitch": 38, 
                            "t0": 55784, 
                            "v": 112, 
                            "dur": 128, 
                            "type": "note", 
                            "channel": 6
                        }
                    ]
                ], 
                [
                    56061, 
                    [
                        {
                            "pitch": 40, 
                            "t0": 56061, 
                            "v": 104, 
                            "dur": 99, 
                            "type": "note", 
                            "channel": 6
                        }
                    ]
                ], 
                [
                    56183, 
                    [
                        {
                            "pitch": 45, 
                            "t0": 56183, 
                            "v": 116, 
                            "dur": 131, 
                            "type": "note", 
                            "channel": 6
                        }
                    ]
                ], 
                [
                    56284, 
                    [
                        {
                            "pitch": 40, 
                            "t0": 56284, 
                            "v": 104, 
                            "dur": 112, 
                            "type": "note", 
                            "channel": 6
                        }
                    ]
                ], 
                [
                    56521, 
                    [
                        {
                            "pitch": 40, 
                            "t0": 56521, 
                            "v": 88, 
                            "dur": 95, 
                            "type": "note", 
                            "channel": 6
                        }
                    ]
                ], 
                [
                    56650, 
                    [
                        {
                            "pitch": 43, 
                            "t0": 56650, 
                            "v": 120, 
                            "dur": 159, 
                            "type": "note", 
                            "channel": 6
                        }
                    ]
                ], 
                [
                    56774, 
                    [
                        {
                            "pitch": 38, 
                            "t0": 56774, 
                            "v": 112, 
                            "dur": 110, 
                            "type": "note", 
                            "channel": 6
                        }
                    ]
                ], 
                [
                    57035, 
                    [
                        {
                            "pitch": 40, 
                            "t0": 57035, 
                            "v": 104, 
                            "dur": 94, 
                            "type": "note", 
                            "channel": 6
                        }
                    ]
                ], 
                [
                    57154, 
                    [
                        {
                            "pitch": 45, 
                            "t0": 57154, 
                            "v": 112, 
                            "dur": 130, 
                            "type": "note", 
                            "channel": 6
                        }
                    ]
                ], 
                [
                    57256, 
                    [
                        {
                            "pitch": 40, 
                            "t0": 57256, 
                            "v": 108, 
                            "dur": 116, 
                            "type": "note", 
                            "channel": 6
                        }
                    ]
                ], 
                [
                    57499, 
                    [
                        {
                            "pitch": 40, 
                            "t0": 57499, 
                            "v": 96, 
                            "dur": 82, 
                            "type": "note", 
                            "channel": 6
                        }
                    ]
                ], 
                [
                    57622, 
                    [
                        {
                            "pitch": 43, 
                            "t0": 57622, 
                            "v": 108, 
                            "dur": 130, 
                            "type": "note", 
                            "channel": 6
                        }
                    ]
                ], 
                [
                    57736, 
                    [
                        {
                            "pitch": 38, 
                            "t0": 57736, 
                            "v": 112, 
                            "dur": 113, 
                            "type": "note", 
                            "channel": 6
                        }
                    ]
                ], 
                [
                    57997, 
                    [
                        {
                            "pitch": 40, 
                            "t0": 57997, 
                            "v": 100, 
                            "dur": 96, 
                            "type": "note", 
                            "channel": 6
                        }
                    ]
                ], 
                [
                    58116, 
                    [
                        {
                            "pitch": 45, 
                            "t0": 58116, 
                            "v": 116, 
                            "dur": 135, 
                            "type": "note", 
                            "channel": 6
                        }
                    ]
                ], 
                [
                    58225, 
                    [
                        {
                            "pitch": 40, 
                            "t0": 58225, 
                            "v": 108, 
                            "dur": 94, 
                            "type": "note", 
                            "channel": 6
                        }
                    ]
                ], 
                [
                    58462, 
                    [
                        {
                            "pitch": 40, 
                            "t0": 58462, 
                            "v": 100, 
                            "dur": 89, 
                            "type": "note", 
                            "channel": 6
                        }
                    ]
                ], 
                [
                    58592, 
                    [
                        {
                            "pitch": 43, 
                            "t0": 58592, 
                            "v": 120, 
                            "dur": 132, 
                            "type": "note", 
                            "channel": 6
                        }
                    ]
                ], 
                [
                    58695, 
                    [
                        {
                            "pitch": 38, 
                            "t0": 58695, 
                            "v": 112, 
                            "dur": 108, 
                            "type": "note", 
                            "channel": 6
                        }
                    ]
                ], 
                [
                    58948, 
                    [
                        {
                            "pitch": 40, 
                            "t0": 58948, 
                            "v": 116, 
                            "dur": 84, 
                            "type": "note", 
                            "channel": 6
                        }
                    ]
                ], 
                [
                    59066, 
                    [
                        {
                            "pitch": 45, 
                            "t0": 59066, 
                            "v": 116, 
                            "dur": 114, 
                            "type": "note", 
                            "channel": 6
                        }
                    ]
                ], 
                [
                    59174, 
                    [
                        {
                            "pitch": 40, 
                            "t0": 59174, 
                            "v": 112, 
                            "dur": 118, 
                            "type": "note", 
                            "channel": 6
                        }
                    ]
                ], 
                [
                    59412, 
                    [
                        {
                            "pitch": 40, 
                            "t0": 59412, 
                            "v": 104, 
                            "dur": 82, 
                            "type": "note", 
                            "channel": 6
                        }
                    ]
                ], 
                [
                    59528, 
                    [
                        {
                            "pitch": 43, 
                            "t0": 59528, 
                            "v": 112, 
                            "dur": 152, 
                            "type": "note", 
                            "channel": 6
                        }
                    ]
                ], 
                [
                    59641, 
                    [
                        {
                            "pitch": 38, 
                            "t0": 59641, 
                            "v": 108, 
                            "dur": 116, 
                            "type": "note", 
                            "channel": 6
                        }
                    ]
                ], 
                [
                    59888, 
                    [
                        {
                            "pitch": 40, 
                            "t0": 59888, 
                            "v": 100, 
                            "dur": 97, 
                            "type": "note", 
                            "channel": 6
                        }
                    ]
                ], 
                [
                    60007, 
                    [
                        {
                            "pitch": 45, 
                            "t0": 60007, 
                            "v": 116, 
                            "dur": 143, 
                            "type": "note", 
                            "channel": 6
                        }
                    ]
                ], 
                [
                    60130, 
                    [
                        {
                            "pitch": 40, 
                            "t0": 60130, 
                            "v": 96, 
                            "dur": 97, 
                            "type": "note", 
                            "channel": 6
                        }
                    ]
                ], 
                [
                    60365, 
                    [
                        {
                            "pitch": 40, 
                            "t0": 60365, 
                            "v": 92, 
                            "dur": 80, 
                            "type": "note", 
                            "channel": 6
                        }
                    ]
                ], 
                [
                    60477, 
                    [
                        {
                            "pitch": 43, 
                            "t0": 60477, 
                            "v": 112, 
                            "dur": 154, 
                            "type": "note", 
                            "channel": 6
                        }
                    ]
                ], 
                [
                    60594, 
                    [
                        {
                            "pitch": 38, 
                            "t0": 60594, 
                            "v": 108, 
                            "dur": 122, 
                            "type": "note", 
                            "channel": 6
                        }
                    ]
                ], 
                [
                    60853, 
                    [
                        {
                            "pitch": 40, 
                            "t0": 60853, 
                            "v": 104, 
                            "dur": 93, 
                            "type": "note", 
                            "channel": 6
                        }
                    ]
                ], 
                [
                    60974, 
                    [
                        {
                            "pitch": 45, 
                            "t0": 60974, 
                            "v": 116, 
                            "dur": 122, 
                            "type": "note", 
                            "channel": 6
                        }
                    ]
                ], 
                [
                    61085, 
                    [
                        {
                            "pitch": 40, 
                            "t0": 61085, 
                            "v": 108, 
                            "dur": 107, 
                            "type": "note", 
                            "channel": 6
                        }
                    ]
                ], 
                [
                    61317, 
                    [
                        {
                            "pitch": 40, 
                            "t0": 61317, 
                            "v": 100, 
                            "dur": 78, 
                            "type": "note", 
                            "channel": 6
                        }
                    ]
                ], 
                [
                    61428, 
                    [
                        {
                            "pitch": 43, 
                            "t0": 61428, 
                            "v": 112, 
                            "dur": 152, 
                            "type": "note", 
                            "channel": 6
                        }
                    ]
                ], 
                [
                    61544, 
                    [
                        {
                            "pitch": 38, 
                            "t0": 61544, 
                            "v": 108, 
                            "dur": 109, 
                            "type": "note", 
                            "channel": 6
                        }
                    ]
                ], 
                [
                    61809, 
                    [
                        {
                            "pitch": 40, 
                            "t0": 61809, 
                            "v": 100, 
                            "dur": 94, 
                            "type": "note", 
                            "channel": 6
                        }
                    ]
                ], 
                [
                    61928, 
                    [
                        {
                            "pitch": 45, 
                            "t0": 61928, 
                            "v": 116, 
                            "dur": 145, 
                            "type": "note", 
                            "channel": 6
                        }
                    ]
                ], 
                [
                    62045, 
                    [
                        {
                            "pitch": 40, 
                            "t0": 62045, 
                            "v": 108, 
                            "dur": 102, 
                            "type": "note", 
                            "channel": 6
                        }
                    ]
                ], 
                [
                    62283, 
                    [
                        {
                            "pitch": 40, 
                            "t0": 62283, 
                            "v": 76, 
                            "dur": 84, 
                            "type": "note", 
                            "channel": 6
                        }
                    ]
                ], 
                [
                    62405, 
                    [
                        {
                            "pitch": 43, 
                            "t0": 62405, 
                            "v": 120, 
                            "dur": 141, 
                            "type": "note", 
                            "channel": 6
                        }
                    ]
                ], 
                [
                    62525, 
                    [
                        {
                            "pitch": 38, 
                            "t0": 62525, 
                            "v": 108, 
                            "dur": 102, 
                            "type": "note", 
                            "channel": 6
                        }
                    ]
                ], 
                [
                    62763, 
                    [
                        {
                            "pitch": 40, 
                            "t0": 62763, 
                            "v": 92, 
                            "dur": 99, 
                            "type": "note", 
                            "channel": 6
                        }
                    ]
                ], 
                [
                    62882, 
                    [
                        {
                            "pitch": 45, 
                            "t0": 62882, 
                            "v": 116, 
                            "dur": 123, 
                            "type": "note", 
                            "channel": 6
                        }
                    ]
                ], 
                [
                    62997, 
                    [
                        {
                            "pitch": 40, 
                            "t0": 62997, 
                            "v": 100, 
                            "dur": 111, 
                            "type": "note", 
                            "channel": 6
                        }
                    ]
                ], 
                [
                    63231, 
                    [
                        {
                            "pitch": 40, 
                            "t0": 63231, 
                            "v": 80, 
                            "dur": 93, 
                            "type": "note", 
                            "channel": 6
                        }
                    ]
                ], 
                [
                    63353, 
                    [
                        {
                            "pitch": 43, 
                            "t0": 63353, 
                            "v": 112, 
                            "dur": 115, 
                            "type": "note", 
                            "channel": 6
                        }
                    ]
                ], 
                [
                    63469, 
                    [
                        {
                            "pitch": 38, 
                            "t0": 63469, 
                            "v": 100, 
                            "dur": 107, 
                            "type": "note", 
                            "channel": 6
                        }
                    ]
                ], 
                [
                    63732, 
                    [
                        {
                            "pitch": 40, 
                            "t0": 63732, 
                            "v": 96, 
                            "dur": 95, 
                            "type": "note", 
                            "channel": 6
                        }
                    ]
                ], 
                [
                    63850, 
                    [
                        {
                            "pitch": 45, 
                            "t0": 63850, 
                            "v": 108, 
                            "dur": 120, 
                            "type": "note", 
                            "channel": 6
                        }
                    ]
                ], 
                [
                    63967, 
                    [
                        {
                            "pitch": 40, 
                            "t0": 63967, 
                            "v": 104, 
                            "dur": 106, 
                            "type": "note", 
                            "channel": 6
                        }
                    ]
                ], 
                [
                    64216, 
                    [
                        {
                            "pitch": 40, 
                            "t0": 64216, 
                            "v": 96, 
                            "dur": 85, 
                            "type": "note", 
                            "channel": 6
                        }
                    ]
                ], 
                [
                    64329, 
                    [
                        {
                            "pitch": 43, 
                            "t0": 64329, 
                            "v": 108, 
                            "dur": 147, 
                            "type": "note", 
                            "channel": 6
                        }
                    ]
                ], 
                [
                    64448, 
                    [
                        {
                            "pitch": 38, 
                            "t0": 64448, 
                            "v": 104, 
                            "dur": 111, 
                            "type": "note", 
                            "channel": 6
                        }
                    ]
                ], 
                [
                    64694, 
                    [
                        {
                            "pitch": 40, 
                            "t0": 64694, 
                            "v": 96, 
                            "dur": 96, 
                            "type": "note", 
                            "channel": 6
                        }
                    ]
                ], 
                [
                    64813, 
                    [
                        {
                            "pitch": 45, 
                            "t0": 64813, 
                            "v": 116, 
                            "dur": 131, 
                            "type": "note", 
                            "channel": 6
                        }
                    ]
                ], 
                [
                    64935, 
                    [
                        {
                            "pitch": 40, 
                            "t0": 64935, 
                            "v": 108, 
                            "dur": 122, 
                            "type": "note", 
                            "channel": 6
                        }
                    ]
                ], 
                [
                    65176, 
                    [
                        {
                            "pitch": 40, 
                            "t0": 65176, 
                            "v": 96, 
                            "dur": 80, 
                            "type": "note", 
                            "channel": 6
                        }
                    ]
                ], 
                [
                    65287, 
                    [
                        {
                            "pitch": 43, 
                            "t0": 65287, 
                            "v": 112, 
                            "dur": 151, 
                            "type": "note", 
                            "channel": 6
                        }
                    ]
                ], 
                [
                    65399, 
                    [
                        {
                            "pitch": 38, 
                            "t0": 65399, 
                            "v": 104, 
                            "dur": 111, 
                            "type": "note", 
                            "channel": 6
                        }
                    ]
                ], 
                [
                    65649, 
                    [
                        {
                            "pitch": 40, 
                            "t0": 65649, 
                            "v": 100, 
                            "dur": 94, 
                            "type": "note", 
                            "channel": 6
                        }
                    ]
                ], 
                [
                    65770, 
                    [
                        {
                            "pitch": 45, 
                            "t0": 65770, 
                            "v": 112, 
                            "dur": 122, 
                            "type": "note", 
                            "channel": 6
                        }
                    ]
                ], 
                [
                    65894, 
                    [
                        {
                            "pitch": 40, 
                            "t0": 65894, 
                            "v": 104, 
                            "dur": 94, 
                            "type": "note", 
                            "channel": 6
                        }
                    ]
                ], 
                [
                    66134, 
                    [
                        {
                            "pitch": 40, 
                            "t0": 66134, 
                            "v": 96, 
                            "dur": 77, 
                            "type": "note", 
                            "channel": 6
                        }
                    ]
                ], 
                [
                    66244, 
                    [
                        {
                            "pitch": 43, 
                            "t0": 66244, 
                            "v": 112, 
                            "dur": 120, 
                            "type": "note", 
                            "channel": 6
                        }
                    ]
                ], 
                [
                    66367, 
                    [
                        {
                            "pitch": 38, 
                            "t0": 66367, 
                            "v": 116, 
                            "dur": 94, 
                            "type": "note", 
                            "channel": 6
                        }
                    ]
                ], 
                [
                    66638, 
                    [
                        {
                            "pitch": 40, 
                            "t0": 66638, 
                            "v": 108, 
                            "dur": 86, 
                            "type": "note", 
                            "channel": 6
                        }
                    ]
                ], 
                [
                    66750, 
                    [
                        {
                            "pitch": 45, 
                            "t0": 66750, 
                            "v": 116, 
                            "dur": 118, 
                            "type": "note", 
                            "channel": 6
                        }
                    ]
                ], 
                [
                    66863, 
                    [
                        {
                            "pitch": 40, 
                            "t0": 66863, 
                            "v": 104, 
                            "dur": 103, 
                            "type": "note", 
                            "channel": 6
                        }
                    ]
                ], 
                [
                    67085, 
                    [
                        {
                            "pitch": 40, 
                            "t0": 67085, 
                            "v": 92, 
                            "dur": 85, 
                            "type": "note", 
                            "channel": 6
                        }
                    ]
                ], 
                [
                    67203, 
                    [
                        {
                            "pitch": 43, 
                            "t0": 67203, 
                            "v": 116, 
                            "dur": 150, 
                            "type": "note", 
                            "channel": 6
                        }
                    ]
                ], 
                [
                    67320, 
                    [
                        {
                            "pitch": 38, 
                            "t0": 67320, 
                            "v": 108, 
                            "dur": 106, 
                            "type": "note", 
                            "channel": 6
                        }
                    ]
                ], 
                [
                    67572, 
                    [
                        {
                            "pitch": 40, 
                            "t0": 67572, 
                            "v": 92, 
                            "dur": 95, 
                            "type": "note", 
                            "channel": 6
                        }
                    ]
                ], 
                [
                    67692, 
                    [
                        {
                            "pitch": 45, 
                            "t0": 67692, 
                            "v": 112, 
                            "dur": 122, 
                            "type": "note", 
                            "channel": 6
                        }
                    ]
                ], 
                [
                    67813, 
                    [
                        {
                            "pitch": 40, 
                            "t0": 67813, 
                            "v": 108, 
                            "dur": 85, 
                            "type": "note", 
                            "channel": 6
                        }
                    ]
                ], 
                [
                    68048, 
                    [
                        {
                            "pitch": 40, 
                            "t0": 68048, 
                            "v": 96, 
                            "dur": 78, 
                            "type": "note", 
                            "channel": 6
                        }
                    ]
                ], 
                [
                    68160, 
                    [
                        {
                            "pitch": 43, 
                            "t0": 68160, 
                            "v": 116, 
                            "dur": 134, 
                            "type": "note", 
                            "channel": 6
                        }
                    ]
                ], 
                [
                    68280, 
                    [
                        {
                            "pitch": 38, 
                            "t0": 68280, 
                            "v": 100, 
                            "dur": 97, 
                            "type": "note", 
                            "channel": 6
                        }
                    ]
                ], 
                [
                    68530, 
                    [
                        {
                            "pitch": 40, 
                            "t0": 68530, 
                            "v": 104, 
                            "dur": 96, 
                            "type": "note", 
                            "channel": 6
                        }
                    ]
                ], 
                [
                    68653, 
                    [
                        {
                            "pitch": 45, 
                            "t0": 68653, 
                            "v": 120, 
                            "dur": 119, 
                            "type": "note", 
                            "channel": 6
                        }
                    ]
                ], 
                [
                    68768, 
                    [
                        {
                            "pitch": 40, 
                            "t0": 68768, 
                            "v": 108, 
                            "dur": 87, 
                            "type": "note", 
                            "channel": 6
                        }
                    ]
                ], 
                [
                    69007, 
                    [
                        {
                            "pitch": 40, 
                            "t0": 69007, 
                            "v": 100, 
                            "dur": 74, 
                            "type": "note", 
                            "channel": 6
                        }
                    ]
                ], 
                [
                    69122, 
                    [
                        {
                            "pitch": 43, 
                            "t0": 69122, 
                            "v": 104, 
                            "dur": 117, 
                            "type": "note", 
                            "channel": 6
                        }
                    ]
                ], 
                [
                    69240, 
                    [
                        {
                            "pitch": 38, 
                            "t0": 69240, 
                            "v": 112, 
                            "dur": 103, 
                            "type": "note", 
                            "channel": 6
                        }
                    ]
                ], 
                [
                    69500, 
                    [
                        {
                            "pitch": 40, 
                            "t0": 69500, 
                            "v": 100, 
                            "dur": 92, 
                            "type": "note", 
                            "channel": 6
                        }
                    ]
                ], 
                [
                    69612, 
                    [
                        {
                            "pitch": 45, 
                            "t0": 69612, 
                            "v": 112, 
                            "dur": 130, 
                            "type": "note", 
                            "channel": 6
                        }
                    ]
                ], 
                [
                    69731, 
                    [
                        {
                            "pitch": 40, 
                            "t0": 69731, 
                            "v": 104, 
                            "dur": 119, 
                            "type": "note", 
                            "channel": 6
                        }
                    ]
                ], 
                [
                    69978, 
                    [
                        {
                            "pitch": 40, 
                            "t0": 69978, 
                            "v": 92, 
                            "dur": 88, 
                            "type": "note", 
                            "channel": 6
                        }
                    ]
                ], 
                [
                    70086, 
                    [
                        {
                            "pitch": 43, 
                            "t0": 70086, 
                            "v": 108, 
                            "dur": 121, 
                            "type": "note", 
                            "channel": 6
                        }
                    ]
                ], 
                [
                    70198, 
                    [
                        {
                            "pitch": 38, 
                            "t0": 70198, 
                            "v": 100, 
                            "dur": 122, 
                            "type": "note", 
                            "channel": 6
                        }
                    ]
                ], 
                [
                    70453, 
                    [
                        {
                            "pitch": 40, 
                            "t0": 70453, 
                            "v": 104, 
                            "dur": 98, 
                            "type": "note", 
                            "channel": 6
                        }
                    ]
                ], 
                [
                    70570, 
                    [
                        {
                            "pitch": 45, 
                            "t0": 70570, 
                            "v": 112, 
                            "dur": 119, 
                            "type": "note", 
                            "channel": 6
                        }
                    ]
                ], 
                [
                    70684, 
                    [
                        {
                            "pitch": 40, 
                            "t0": 70684, 
                            "v": 104, 
                            "dur": 85, 
                            "type": "note", 
                            "channel": 6
                        }
                    ]
                ], 
                [
                    70929, 
                    [
                        {
                            "pitch": 40, 
                            "t0": 70929, 
                            "v": 96, 
                            "dur": 88, 
                            "type": "note", 
                            "channel": 6
                        }
                    ]
                ], 
                [
                    71045, 
                    [
                        {
                            "pitch": 43, 
                            "t0": 71045, 
                            "v": 112, 
                            "dur": 111, 
                            "type": "note", 
                            "channel": 6
                        }
                    ]
                ], 
                [
                    71161, 
                    [
                        {
                            "pitch": 38, 
                            "t0": 71161, 
                            "v": 112, 
                            "dur": 119, 
                            "type": "note", 
                            "channel": 6
                        }
                    ]
                ], 
                [
                    71412, 
                    [
                        {
                            "pitch": 40, 
                            "t0": 71412, 
                            "v": 104, 
                            "dur": 88, 
                            "type": "note", 
                            "channel": 6
                        }
                    ]
                ], 
                [
                    71533, 
                    [
                        {
                            "pitch": 45, 
                            "t0": 71533, 
                            "v": 116, 
                            "dur": 112, 
                            "type": "note", 
                            "channel": 6
                        }
                    ]
                ], 
                [
                    71646, 
                    [
                        {
                            "pitch": 40, 
                            "t0": 71646, 
                            "v": 112, 
                            "dur": 97, 
                            "type": "note", 
                            "channel": 6
                        }
                    ]
                ], 
                [
                    71872, 
                    [
                        {
                            "pitch": 40, 
                            "t0": 71872, 
                            "v": 92, 
                            "dur": 84, 
                            "type": "note", 
                            "channel": 6
                        }
                    ]
                ], 
                [
                    71995, 
                    [
                        {
                            "pitch": 43, 
                            "t0": 71995, 
                            "v": 108, 
                            "dur": 108, 
                            "type": "note", 
                            "channel": 6
                        }
                    ]
                ], 
                [
                    72112, 
                    [
                        {
                            "pitch": 38, 
                            "t0": 72112, 
                            "v": 112, 
                            "dur": 121, 
                            "type": "note", 
                            "channel": 6
                        }
                    ]
                ], 
                [
                    72369, 
                    [
                        {
                            "pitch": 40, 
                            "t0": 72369, 
                            "v": 96, 
                            "dur": 99, 
                            "type": "note", 
                            "channel": 6
                        }
                    ]
                ], 
                [
                    72498, 
                    [
                        {
                            "pitch": 45, 
                            "t0": 72498, 
                            "v": 116, 
                            "dur": 110, 
                            "type": "note", 
                            "channel": 6
                        }
                    ]
                ], 
                [
                    72605, 
                    [
                        {
                            "pitch": 40, 
                            "t0": 72605, 
                            "v": 108, 
                            "dur": 98, 
                            "type": "note", 
                            "channel": 6
                        }
                    ]
                ], 
                [
                    72851, 
                    [
                        {
                            "pitch": 40, 
                            "t0": 72851, 
                            "v": 88, 
                            "dur": 86, 
                            "type": "note", 
                            "channel": 6
                        }
                    ]
                ], 
                [
                    72972, 
                    [
                        {
                            "pitch": 43, 
                            "t0": 72972, 
                            "v": 108, 
                            "dur": 110, 
                            "type": "note", 
                            "channel": 6
                        }
                    ]
                ], 
                [
                    73087, 
                    [
                        {
                            "pitch": 38, 
                            "t0": 73087, 
                            "v": 108, 
                            "dur": 104, 
                            "type": "note", 
                            "channel": 6
                        }
                    ]
                ], 
                [
                    73343, 
                    [
                        {
                            "pitch": 40, 
                            "t0": 73343, 
                            "v": 84, 
                            "dur": 104, 
                            "type": "note", 
                            "channel": 6
                        }
                    ]
                ], 
                [
                    73464, 
                    [
                        {
                            "pitch": 45, 
                            "t0": 73464, 
                            "v": 108, 
                            "dur": 110, 
                            "type": "note", 
                            "channel": 6
                        }
                    ]
                ], 
                [
                    73569, 
                    [
                        {
                            "pitch": 40, 
                            "t0": 73569, 
                            "v": 108, 
                            "dur": 122, 
                            "type": "note", 
                            "channel": 6
                        }
                    ]
                ], 
                [
                    73809, 
                    [
                        {
                            "pitch": 40, 
                            "t0": 73809, 
                            "v": 84, 
                            "dur": 95, 
                            "type": "note", 
                            "channel": 6
                        }
                    ]
                ], 
                [
                    73936, 
                    [
                        {
                            "pitch": 43, 
                            "t0": 73936, 
                            "v": 116, 
                            "dur": 104, 
                            "type": "note", 
                            "channel": 6
                        }
                    ]
                ], 
                [
                    74050, 
                    [
                        {
                            "pitch": 38, 
                            "t0": 74050, 
                            "v": 112, 
                            "dur": 100, 
                            "type": "note", 
                            "channel": 6
                        }
                    ]
                ], 
                [
                    74289, 
                    [
                        {
                            "pitch": 40, 
                            "t0": 74289, 
                            "v": 108, 
                            "dur": 92, 
                            "type": "note", 
                            "channel": 6
                        }
                    ]
                ], 
                [
                    74414, 
                    [
                        {
                            "pitch": 45, 
                            "t0": 74414, 
                            "v": 116, 
                            "dur": 108, 
                            "type": "note", 
                            "channel": 6
                        }
                    ]
                ], 
                [
                    74525, 
                    [
                        {
                            "pitch": 40, 
                            "t0": 74525, 
                            "v": 104, 
                            "dur": 101, 
                            "type": "note", 
                            "channel": 6
                        }
                    ]
                ], 
                [
                    74762, 
                    [
                        {
                            "pitch": 40, 
                            "t0": 74762, 
                            "v": 92, 
                            "dur": 88, 
                            "type": "note", 
                            "channel": 6
                        }
                    ]
                ], 
                [
                    74886, 
                    [
                        {
                            "pitch": 43, 
                            "t0": 74886, 
                            "v": 112, 
                            "dur": 97, 
                            "type": "note", 
                            "channel": 6
                        }
                    ]
                ], 
                [
                    74986, 
                    [
                        {
                            "pitch": 38, 
                            "t0": 74986, 
                            "v": 108, 
                            "dur": 120, 
                            "type": "note", 
                            "channel": 6
                        }
                    ]
                ], 
                [
                    75248, 
                    [
                        {
                            "pitch": 40, 
                            "t0": 75248, 
                            "v": 108, 
                            "dur": 101, 
                            "type": "note", 
                            "channel": 6
                        }
                    ]
                ], 
                [
                    75369, 
                    [
                        {
                            "pitch": 45, 
                            "t0": 75369, 
                            "v": 120, 
                            "dur": 120, 
                            "type": "note", 
                            "channel": 6
                        }
                    ]
                ], 
                [
                    75483, 
                    [
                        {
                            "pitch": 40, 
                            "t0": 75483, 
                            "v": 100, 
                            "dur": 102, 
                            "type": "note", 
                            "channel": 6
                        }
                    ]
                ], 
                [
                    75727, 
                    [
                        {
                            "pitch": 40, 
                            "t0": 75727, 
                            "v": 100, 
                            "dur": 77, 
                            "type": "note", 
                            "channel": 6
                        }
                    ]
                ], 
                [
                    75848, 
                    [
                        {
                            "pitch": 43, 
                            "t0": 75848, 
                            "v": 116, 
                            "dur": 117, 
                            "type": "note", 
                            "channel": 6
                        }
                    ]
                ], 
                [
                    75967, 
                    [
                        {
                            "pitch": 38, 
                            "t0": 75967, 
                            "v": 112, 
                            "dur": 122, 
                            "type": "note", 
                            "channel": 6
                        }
                    ]
                ], 
                [
                    76216, 
                    [
                        {
                            "pitch": 40, 
                            "t0": 76216, 
                            "v": 96, 
                            "dur": 92, 
                            "type": "note", 
                            "channel": 6
                        }
                    ]
                ], 
                [
                    76337, 
                    [
                        {
                            "pitch": 45, 
                            "t0": 76337, 
                            "v": 116, 
                            "dur": 110, 
                            "type": "note", 
                            "channel": 6
                        }
                    ]
                ], 
                [
                    76442, 
                    [
                        {
                            "pitch": 40, 
                            "t0": 76442, 
                            "v": 104, 
                            "dur": 111, 
                            "type": "note", 
                            "channel": 6
                        }
                    ]
                ], 
                [
                    76679, 
                    [
                        {
                            "pitch": 40, 
                            "t0": 76679, 
                            "v": 96, 
                            "dur": 98, 
                            "type": "note", 
                            "channel": 6
                        }
                    ]
                ], 
                [
                    76798, 
                    [
                        {
                            "pitch": 43, 
                            "t0": 76798, 
                            "v": 108, 
                            "dur": 109, 
                            "type": "note", 
                            "channel": 6
                        }
                    ]
                ], 
                [
                    76908, 
                    [
                        {
                            "pitch": 38, 
                            "t0": 76908, 
                            "v": 100, 
                            "dur": 99, 
                            "type": "note", 
                            "channel": 6
                        }
                    ]
                ], 
                [
                    77173, 
                    [
                        {
                            "pitch": 40, 
                            "t0": 77173, 
                            "v": 88, 
                            "dur": 92, 
                            "type": "note", 
                            "channel": 6
                        }
                    ]
                ], 
                [
                    77289, 
                    [
                        {
                            "pitch": 45, 
                            "t0": 77289, 
                            "v": 108, 
                            "dur": 116, 
                            "type": "note", 
                            "channel": 6
                        }
                    ]
                ], 
                [
                    77410, 
                    [
                        {
                            "pitch": 40, 
                            "t0": 77410, 
                            "v": 108, 
                            "dur": 96, 
                            "type": "note", 
                            "channel": 6
                        }
                    ]
                ], 
                [
                    77638, 
                    [
                        {
                            "pitch": 40, 
                            "t0": 77638, 
                            "v": 92, 
                            "dur": 90, 
                            "type": "note", 
                            "channel": 6
                        }
                    ]
                ], 
                [
                    77757, 
                    [
                        {
                            "pitch": 43, 
                            "t0": 77757, 
                            "v": 108, 
                            "dur": 113, 
                            "type": "note", 
                            "channel": 6
                        }
                    ]
                ], 
                [
                    77871, 
                    [
                        {
                            "pitch": 38, 
                            "t0": 77871, 
                            "v": 108, 
                            "dur": 115, 
                            "type": "note", 
                            "channel": 6
                        }
                    ]
                ], 
                [
                    78113, 
                    [
                        {
                            "pitch": 40, 
                            "t0": 78113, 
                            "v": 96, 
                            "dur": 94, 
                            "type": "note", 
                            "channel": 6
                        }
                    ]
                ], 
                [
                    78245, 
                    [
                        {
                            "pitch": 45, 
                            "t0": 78245, 
                            "v": 116, 
                            "dur": 114, 
                            "type": "note", 
                            "channel": 6
                        }
                    ]
                ], 
                [
                    78360, 
                    [
                        {
                            "pitch": 40, 
                            "t0": 78360, 
                            "v": 104, 
                            "dur": 104, 
                            "type": "note", 
                            "channel": 6
                        }
                    ]
                ], 
                [
                    78607, 
                    [
                        {
                            "pitch": 40, 
                            "t0": 78607, 
                            "v": 92, 
                            "dur": 87, 
                            "type": "note", 
                            "channel": 6
                        }
                    ]
                ], 
                [
                    78722, 
                    [
                        {
                            "pitch": 43, 
                            "t0": 78722, 
                            "v": 108, 
                            "dur": 110, 
                            "type": "note", 
                            "channel": 6
                        }
                    ]
                ], 
                [
                    78838, 
                    [
                        {
                            "pitch": 38, 
                            "t0": 78838, 
                            "v": 112, 
                            "dur": 122, 
                            "type": "note", 
                            "channel": 6
                        }
                    ]
                ], 
                [
                    79103, 
                    [
                        {
                            "pitch": 40, 
                            "t0": 79103, 
                            "v": 96, 
                            "dur": 94, 
                            "type": "note", 
                            "channel": 6
                        }
                    ]
                ], 
                [
                    79213, 
                    [
                        {
                            "pitch": 45, 
                            "t0": 79213, 
                            "v": 104, 
                            "dur": 125, 
                            "type": "note", 
                            "channel": 6
                        }
                    ]
                ], 
                [
                    79337, 
                    [
                        {
                            "pitch": 40, 
                            "t0": 79337, 
                            "v": 104, 
                            "dur": 125, 
                            "type": "note", 
                            "channel": 6
                        }
                    ]
                ], 
                [
                    79577, 
                    [
                        {
                            "pitch": 40, 
                            "t0": 79577, 
                            "v": 96, 
                            "dur": 94, 
                            "type": "note", 
                            "channel": 6
                        }
                    ]
                ], 
                [
                    79704, 
                    [
                        {
                            "pitch": 43, 
                            "t0": 79704, 
                            "v": 112, 
                            "dur": 110, 
                            "type": "note", 
                            "channel": 6
                        }
                    ]
                ], 
                [
                    79814, 
                    [
                        {
                            "pitch": 38, 
                            "t0": 79814, 
                            "v": 100, 
                            "dur": 112, 
                            "type": "note", 
                            "channel": 6
                        }
                    ]
                ], 
                [
                    80052, 
                    [
                        {
                            "pitch": 40, 
                            "t0": 80052, 
                            "v": 84, 
                            "dur": 107, 
                            "type": "note", 
                            "channel": 6
                        }
                    ]
                ], 
                [
                    80188, 
                    [
                        {
                            "pitch": 45, 
                            "t0": 80188, 
                            "v": 108, 
                            "dur": 114, 
                            "type": "note", 
                            "channel": 6
                        }
                    ]
                ], 
                [
                    80298, 
                    [
                        {
                            "pitch": 40, 
                            "t0": 80298, 
                            "v": 96, 
                            "dur": 115, 
                            "type": "note", 
                            "channel": 6
                        }
                    ]
                ], 
                [
                    80562, 
                    [
                        {
                            "pitch": 40, 
                            "t0": 80562, 
                            "v": 100, 
                            "dur": 87, 
                            "type": "note", 
                            "channel": 6
                        }
                    ]
                ], 
                [
                    80675, 
                    [
                        {
                            "pitch": 43, 
                            "t0": 80675, 
                            "v": 100, 
                            "dur": 120, 
                            "type": "note", 
                            "channel": 6
                        }
                    ]
                ], 
                [
                    80786, 
                    [
                        {
                            "pitch": 38, 
                            "t0": 80786, 
                            "v": 108, 
                            "dur": 125, 
                            "type": "note", 
                            "channel": 6
                        }
                    ]
                ], 
                [
                    81036, 
                    [
                        {
                            "pitch": 40, 
                            "t0": 81036, 
                            "v": 108, 
                            "dur": 91, 
                            "type": "note", 
                            "channel": 6
                        }
                    ]
                ], 
                [
                    81152, 
                    [
                        {
                            "pitch": 45, 
                            "t0": 81152, 
                            "v": 112, 
                            "dur": 111, 
                            "type": "note", 
                            "channel": 6
                        }
                    ]
                ], 
                [
                    81262, 
                    [
                        {
                            "pitch": 40, 
                            "t0": 81262, 
                            "v": 108, 
                            "dur": 133, 
                            "type": "note", 
                            "channel": 6
                        }
                    ]
                ], 
                [
                    81501, 
                    [
                        {
                            "pitch": 40, 
                            "t0": 81501, 
                            "v": 92, 
                            "dur": 97, 
                            "type": "note", 
                            "channel": 6
                        }
                    ]
                ], 
                [
                    81626, 
                    [
                        {
                            "pitch": 43, 
                            "t0": 81626, 
                            "v": 112, 
                            "dur": 111, 
                            "type": "note", 
                            "channel": 6
                        }
                    ]
                ], 
                [
                    81733, 
                    [
                        {
                            "pitch": 38, 
                            "t0": 81733, 
                            "v": 108, 
                            "dur": 133, 
                            "type": "note", 
                            "channel": 6
                        }
                    ]
                ], 
                [
                    81974, 
                    [
                        {
                            "pitch": 40, 
                            "t0": 81974, 
                            "v": 100, 
                            "dur": 106, 
                            "type": "note", 
                            "channel": 6
                        }
                    ]
                ], 
                [
                    82102, 
                    [
                        {
                            "pitch": 45, 
                            "t0": 82102, 
                            "v": 108, 
                            "dur": 113, 
                            "type": "note", 
                            "channel": 6
                        }
                    ]
                ], 
                [
                    82210, 
                    [
                        {
                            "pitch": 40, 
                            "t0": 82210, 
                            "v": 104, 
                            "dur": 115, 
                            "type": "note", 
                            "channel": 6
                        }
                    ]
                ], 
                [
                    82449, 
                    [
                        {
                            "pitch": 40, 
                            "t0": 82449, 
                            "v": 84, 
                            "dur": 91, 
                            "type": "note", 
                            "channel": 6
                        }
                    ]
                ], 
                [
                    82567, 
                    [
                        {
                            "pitch": 43, 
                            "t0": 82567, 
                            "v": 112, 
                            "dur": 109, 
                            "type": "note", 
                            "channel": 6
                        }
                    ]
                ], 
                [
                    82674, 
                    [
                        {
                            "pitch": 38, 
                            "t0": 82674, 
                            "v": 100, 
                            "dur": 105, 
                            "type": "note", 
                            "channel": 6
                        }
                    ]
                ], 
                [
                    82935, 
                    [
                        {
                            "pitch": 40, 
                            "t0": 82935, 
                            "v": 80, 
                            "dur": 105, 
                            "type": "note", 
                            "channel": 6
                        }
                    ]
                ], 
                [
                    83053, 
                    [
                        {
                            "pitch": 45, 
                            "t0": 83053, 
                            "v": 104, 
                            "dur": 113, 
                            "type": "note", 
                            "channel": 6
                        }
                    ]
                ], 
                [
                    83167, 
                    [
                        {
                            "pitch": 40, 
                            "t0": 83167, 
                            "v": 92, 
                            "dur": 109, 
                            "type": "note", 
                            "channel": 6
                        }
                    ]
                ], 
                [
                    83407, 
                    [
                        {
                            "pitch": 40, 
                            "t0": 83407, 
                            "v": 80, 
                            "dur": 87, 
                            "type": "note", 
                            "channel": 6
                        }
                    ]
                ], 
                [
                    83529, 
                    [
                        {
                            "pitch": 43, 
                            "t0": 83529, 
                            "v": 112, 
                            "dur": 116, 
                            "type": "note", 
                            "channel": 6
                        }
                    ]
                ], 
                [
                    83640, 
                    [
                        {
                            "pitch": 38, 
                            "t0": 83640, 
                            "v": 96, 
                            "dur": 109, 
                            "type": "note", 
                            "channel": 6
                        }
                    ]
                ], 
                [
                    83896, 
                    [
                        {
                            "pitch": 40, 
                            "t0": 83896, 
                            "v": 100, 
                            "dur": 92, 
                            "type": "note", 
                            "channel": 6
                        }
                    ]
                ], 
                [
                    84026, 
                    [
                        {
                            "pitch": 45, 
                            "t0": 84026, 
                            "v": 112, 
                            "dur": 108, 
                            "type": "note", 
                            "channel": 6
                        }
                    ]
                ], 
                [
                    84131, 
                    [
                        {
                            "pitch": 40, 
                            "t0": 84131, 
                            "v": 100, 
                            "dur": 109, 
                            "type": "note", 
                            "channel": 6
                        }
                    ]
                ], 
                [
                    84383, 
                    [
                        {
                            "pitch": 40, 
                            "t0": 84383, 
                            "v": 92, 
                            "dur": 86, 
                            "type": "note", 
                            "channel": 6
                        }
                    ]
                ], 
                [
                    84512, 
                    [
                        {
                            "pitch": 43, 
                            "t0": 84512, 
                            "v": 112, 
                            "dur": 108, 
                            "type": "note", 
                            "channel": 6
                        }
                    ]
                ], 
                [
                    84616, 
                    [
                        {
                            "pitch": 38, 
                            "t0": 84616, 
                            "v": 104, 
                            "dur": 127, 
                            "type": "note", 
                            "channel": 6
                        }
                    ]
                ], 
                [
                    84872, 
                    [
                        {
                            "pitch": 40, 
                            "t0": 84872, 
                            "v": 96, 
                            "dur": 88, 
                            "type": "note", 
                            "channel": 6
                        }
                    ]
                ], 
                [
                    84990, 
                    [
                        {
                            "pitch": 45, 
                            "t0": 84990, 
                            "v": 112, 
                            "dur": 94, 
                            "type": "note", 
                            "channel": 6
                        }
                    ]
                ], 
                [
                    85088, 
                    [
                        {
                            "pitch": 40, 
                            "t0": 85088, 
                            "v": 112, 
                            "dur": 101, 
                            "type": "note", 
                            "channel": 6
                        }
                    ]
                ], 
                [
                    85337, 
                    [
                        {
                            "pitch": 40, 
                            "t0": 85337, 
                            "v": 84, 
                            "dur": 71, 
                            "type": "note", 
                            "channel": 6
                        }
                    ]
                ], 
                [
                    85459, 
                    [
                        {
                            "pitch": 43, 
                            "t0": 85459, 
                            "v": 116, 
                            "dur": 99, 
                            "type": "note", 
                            "channel": 6
                        }
                    ]
                ], 
                [
                    85561, 
                    [
                        {
                            "pitch": 38, 
                            "t0": 85561, 
                            "v": 100, 
                            "dur": 117, 
                            "type": "note", 
                            "channel": 6
                        }
                    ]
                ], 
                [
                    85819, 
                    [
                        {
                            "pitch": 40, 
                            "t0": 85819, 
                            "v": 80, 
                            "dur": 95, 
                            "type": "note", 
                            "channel": 6
                        }
                    ]
                ], 
                [
                    85955, 
                    [
                        {
                            "pitch": 45, 
                            "t0": 85955, 
                            "v": 112, 
                            "dur": 102, 
                            "type": "note", 
                            "channel": 6
                        }
                    ]
                ], 
                [
                    86055, 
                    [
                        {
                            "pitch": 40, 
                            "t0": 86055, 
                            "v": 96, 
                            "dur": 89, 
                            "type": "note", 
                            "channel": 6
                        }
                    ]
                ], 
                [
                    86304, 
                    [
                        {
                            "pitch": 38, 
                            "t0": 86304, 
                            "v": 88, 
                            "dur": 65, 
                            "type": "note", 
                            "channel": 6
                        }, 
                        {
                            "pitch": 40, 
                            "t0": 86304, 
                            "v": 60, 
                            "dur": 68, 
                            "type": "note", 
                            "channel": 6
                        }
                    ]
                ], 
                [
                    86412, 
                    [
                        {
                            "pitch": 43, 
                            "t0": 86412, 
                            "v": 104, 
                            "dur": 124, 
                            "type": "note", 
                            "channel": 6
                        }
                    ]
                ], 
                [
                    86519, 
                    [
                        {
                            "pitch": 38, 
                            "t0": 86519, 
                            "v": 108, 
                            "dur": 110, 
                            "type": "note", 
                            "channel": 6
                        }
                    ]
                ], 
                [
                    86784, 
                    [
                        {
                            "pitch": 40, 
                            "t0": 86784, 
                            "v": 96, 
                            "dur": 86, 
                            "type": "note", 
                            "channel": 6
                        }
                    ]
                ], 
                [
                    86905, 
                    [
                        {
                            "pitch": 45, 
                            "t0": 86905, 
                            "v": 112, 
                            "dur": 109, 
                            "type": "note", 
                            "channel": 6
                        }
                    ]
                ], 
                [
                    87006, 
                    [
                        {
                            "pitch": 40, 
                            "t0": 87006, 
                            "v": 100, 
                            "dur": 88, 
                            "type": "note", 
                            "channel": 6
                        }
                    ]
                ], 
                [
                    87243, 
                    [
                        {
                            "pitch": 40, 
                            "t0": 87243, 
                            "v": 96, 
                            "dur": 82, 
                            "type": "note", 
                            "channel": 6
                        }
                    ]
                ], 
                [
                    87365, 
                    [
                        {
                            "pitch": 43, 
                            "t0": 87365, 
                            "v": 100, 
                            "dur": 128, 
                            "type": "note", 
                            "channel": 6
                        }
                    ]
                ], 
                [
                    87474, 
                    [
                        {
                            "pitch": 38, 
                            "t0": 87474, 
                            "v": 96, 
                            "dur": 114, 
                            "type": "note", 
                            "channel": 6
                        }
                    ]
                ], 
                [
                    87743, 
                    [
                        {
                            "pitch": 40, 
                            "t0": 87743, 
                            "v": 100, 
                            "dur": 100, 
                            "type": "note", 
                            "channel": 6
                        }
                    ]
                ], 
                [
                    87863, 
                    [
                        {
                            "pitch": 45, 
                            "t0": 87863, 
                            "v": 112, 
                            "dur": 122, 
                            "type": "note", 
                            "channel": 6
                        }
                    ]
                ], 
                [
                    87967, 
                    [
                        {
                            "pitch": 40, 
                            "t0": 87967, 
                            "v": 100, 
                            "dur": 112, 
                            "type": "note", 
                            "channel": 6
                        }
                    ]
                ], 
                [
                    88216, 
                    [
                        {
                            "pitch": 40, 
                            "t0": 88216, 
                            "v": 96, 
                            "dur": 88, 
                            "type": "note", 
                            "channel": 6
                        }
                    ]
                ], 
                [
                    88339, 
                    [
                        {
                            "pitch": 43, 
                            "t0": 88339, 
                            "v": 108, 
                            "dur": 112, 
                            "type": "note", 
                            "channel": 6
                        }
                    ]
                ], 
                [
                    88444, 
                    [
                        {
                            "pitch": 38, 
                            "t0": 88444, 
                            "v": 104, 
                            "dur": 120, 
                            "type": "note", 
                            "channel": 6
                        }
                    ]
                ], 
                [
                    88707, 
                    [
                        {
                            "pitch": 40, 
                            "t0": 88707, 
                            "v": 100, 
                            "dur": 91, 
                            "type": "note", 
                            "channel": 6
                        }
                    ]
                ], 
                [
                    88839, 
                    [
                        {
                            "pitch": 45, 
                            "t0": 88839, 
                            "v": 112, 
                            "dur": 101, 
                            "type": "note", 
                            "channel": 6
                        }
                    ]
                ], 
                [
                    88935, 
                    [
                        {
                            "pitch": 40, 
                            "t0": 88935, 
                            "v": 104, 
                            "dur": 70, 
                            "type": "note", 
                            "channel": 6
                        }
                    ]
                ], 
                [
                    89186, 
                    [
                        {
                            "pitch": 40, 
                            "t0": 89186, 
                            "v": 100, 
                            "dur": 76, 
                            "type": "note", 
                            "channel": 6
                        }
                    ]
                ], 
                [
                    89311, 
                    [
                        {
                            "pitch": 43, 
                            "t0": 89311, 
                            "v": 116, 
                            "dur": 110, 
                            "type": "note", 
                            "channel": 6
                        }
                    ]
                ], 
                [
                    89414, 
                    [
                        {
                            "pitch": 38, 
                            "t0": 89414, 
                            "v": 104, 
                            "dur": 96, 
                            "type": "note", 
                            "channel": 6
                        }
                    ]
                ], 
                [
                    89670, 
                    [
                        {
                            "pitch": 40, 
                            "t0": 89670, 
                            "v": 104, 
                            "dur": 98, 
                            "type": "note", 
                            "channel": 6
                        }
                    ]
                ], 
                [
                    89778, 
                    [
                        {
                            "pitch": 45, 
                            "t0": 89778, 
                            "v": 116, 
                            "dur": 131, 
                            "type": "note", 
                            "channel": 6
                        }
                    ]
                ], 
                [
                    89889, 
                    [
                        {
                            "pitch": 40, 
                            "t0": 89889, 
                            "v": 104, 
                            "dur": 115, 
                            "type": "note", 
                            "channel": 6
                        }
                    ]
                ], 
                [
                    90134, 
                    [
                        {
                            "pitch": 40, 
                            "t0": 90134, 
                            "v": 100, 
                            "dur": 84, 
                            "type": "note", 
                            "channel": 6
                        }
                    ]
                ], 
                [
                    90255, 
                    [
                        {
                            "pitch": 43, 
                            "t0": 90255, 
                            "v": 116, 
                            "dur": 109, 
                            "type": "note", 
                            "channel": 6
                        }
                    ]
                ], 
                [
                    90360, 
                    [
                        {
                            "pitch": 38, 
                            "t0": 90360, 
                            "v": 108, 
                            "dur": 103, 
                            "type": "note", 
                            "channel": 6
                        }
                    ]
                ], 
                [
                    90627, 
                    [
                        {
                            "pitch": 40, 
                            "t0": 90627, 
                            "v": 108, 
                            "dur": 92, 
                            "type": "note", 
                            "channel": 6
                        }
                    ]
                ], 
                [
                    90742, 
                    [
                        {
                            "pitch": 45, 
                            "t0": 90742, 
                            "v": 112, 
                            "dur": 110, 
                            "type": "note", 
                            "channel": 6
                        }
                    ]
                ], 
                [
                    90850, 
                    [
                        {
                            "pitch": 40, 
                            "t0": 90850, 
                            "v": 108, 
                            "dur": 139, 
                            "type": "note", 
                            "channel": 6
                        }
                    ]
                ], 
                [
                    91093, 
                    [
                        {
                            "pitch": 40, 
                            "t0": 91093, 
                            "v": 100, 
                            "dur": 82, 
                            "type": "note", 
                            "channel": 6
                        }
                    ]
                ], 
                [
                    91214, 
                    [
                        {
                            "pitch": 43, 
                            "t0": 91214, 
                            "v": 108, 
                            "dur": 116, 
                            "type": "note", 
                            "channel": 6
                        }
                    ]
                ], 
                [
                    91324, 
                    [
                        {
                            "pitch": 38, 
                            "t0": 91324, 
                            "v": 108, 
                            "dur": 127, 
                            "type": "note", 
                            "channel": 6
                        }
                    ]
                ], 
                [
                    91572, 
                    [
                        {
                            "pitch": 40, 
                            "t0": 91572, 
                            "v": 104, 
                            "dur": 93, 
                            "type": "note", 
                            "channel": 6
                        }
                    ]
                ], 
                [
                    91693, 
                    [
                        {
                            "pitch": 45, 
                            "t0": 91693, 
                            "v": 116, 
                            "dur": 113, 
                            "type": "note", 
                            "channel": 6
                        }
                    ]
                ], 
                [
                    91797, 
                    [
                        {
                            "pitch": 40, 
                            "t0": 91797, 
                            "v": 92, 
                            "dur": 130, 
                            "type": "note", 
                            "channel": 6
                        }
                    ]
                ], 
                [
                    92043, 
                    [
                        {
                            "pitch": 40, 
                            "t0": 92043, 
                            "v": 100, 
                            "dur": 97, 
                            "type": "note", 
                            "channel": 6
                        }
                    ]
                ], 
                [
                    92162, 
                    [
                        {
                            "pitch": 43, 
                            "t0": 92162, 
                            "v": 108, 
                            "dur": 158, 
                            "type": "note", 
                            "channel": 6
                        }
                    ]
                ], 
                [
                    92274, 
                    [
                        {
                            "pitch": 38, 
                            "t0": 92274, 
                            "v": 108, 
                            "dur": 112, 
                            "type": "note", 
                            "channel": 6
                        }
                    ]
                ], 
                [
                    92518, 
                    [
                        {
                            "pitch": 40, 
                            "t0": 92518, 
                            "v": 100, 
                            "dur": 93, 
                            "type": "note", 
                            "channel": 6
                        }
                    ]
                ], 
                [
                    92633, 
                    [
                        {
                            "pitch": 45, 
                            "t0": 92633, 
                            "v": 112, 
                            "dur": 127, 
                            "type": "note", 
                            "channel": 6
                        }
                    ]
                ], 
                [
                    92736, 
                    [
                        {
                            "pitch": 40, 
                            "t0": 92736, 
                            "v": 108, 
                            "dur": 141, 
                            "type": "note", 
                            "channel": 6
                        }
                    ]
                ], 
                [
                    92981, 
                    [
                        {
                            "pitch": 40, 
                            "t0": 92981, 
                            "v": 104, 
                            "dur": 98, 
                            "type": "note", 
                            "channel": 6
                        }
                    ]
                ], 
                [
                    93099, 
                    [
                        {
                            "pitch": 43, 
                            "t0": 93099, 
                            "v": 112, 
                            "dur": 154, 
                            "type": "note", 
                            "channel": 6
                        }
                    ]
                ], 
                [
                    93221, 
                    [
                        {
                            "pitch": 38, 
                            "t0": 93221, 
                            "v": 112, 
                            "dur": 114, 
                            "type": "note", 
                            "channel": 6
                        }
                    ]
                ], 
                [
                    93473, 
                    [
                        {
                            "pitch": 40, 
                            "t0": 93473, 
                            "v": 108, 
                            "dur": 91, 
                            "type": "note", 
                            "channel": 6
                        }
                    ]
                ], 
                [
                    93586, 
                    [
                        {
                            "pitch": 45, 
                            "t0": 93586, 
                            "v": 112, 
                            "dur": 127, 
                            "type": "note", 
                            "channel": 6
                        }
                    ]
                ], 
                [
                    93703, 
                    [
                        {
                            "pitch": 40, 
                            "t0": 93703, 
                            "v": 108, 
                            "dur": 133, 
                            "type": "note", 
                            "channel": 6
                        }
                    ]
                ], 
                [
                    93959, 
                    [
                        {
                            "pitch": 40, 
                            "t0": 93959, 
                            "v": 96, 
                            "dur": 95, 
                            "type": "note", 
                            "channel": 6
                        }
                    ]
                ], 
                [
                    94073, 
                    [
                        {
                            "pitch": 43, 
                            "t0": 94073, 
                            "v": 108, 
                            "dur": 108, 
                            "type": "note", 
                            "channel": 6
                        }
                    ]
                ], 
                [
                    94189, 
                    [
                        {
                            "pitch": 38, 
                            "t0": 94189, 
                            "v": 104, 
                            "dur": 119, 
                            "type": "note", 
                            "channel": 6
                        }
                    ]
                ], 
                [
                    94441, 
                    [
                        {
                            "pitch": 40, 
                            "t0": 94441, 
                            "v": 92, 
                            "dur": 102, 
                            "type": "note", 
                            "channel": 6
                        }
                    ]
                ], 
                [
                    94567, 
                    [
                        {
                            "pitch": 45, 
                            "t0": 94567, 
                            "v": 108, 
                            "dur": 118, 
                            "type": "note", 
                            "channel": 6
                        }
                    ]
                ], 
                [
                    94687, 
                    [
                        {
                            "pitch": 40, 
                            "t0": 94687, 
                            "v": 104, 
                            "dur": 127, 
                            "type": "note", 
                            "channel": 6
                        }
                    ]
                ], 
                [
                    94919, 
                    [
                        {
                            "pitch": 40, 
                            "t0": 94919, 
                            "v": 96, 
                            "dur": 85, 
                            "type": "note", 
                            "channel": 6
                        }
                    ]
                ], 
                [
                    95039, 
                    [
                        {
                            "pitch": 43, 
                            "t0": 95039, 
                            "v": 108, 
                            "dur": 116, 
                            "type": "note", 
                            "channel": 6
                        }
                    ]
                ], 
                [
                    95162, 
                    [
                        {
                            "pitch": 38, 
                            "t0": 95162, 
                            "v": 108, 
                            "dur": 120, 
                            "type": "note", 
                            "channel": 6
                        }
                    ]
                ], 
                [
                    95410, 
                    [
                        {
                            "pitch": 40, 
                            "t0": 95410, 
                            "v": 96, 
                            "dur": 97, 
                            "type": "note", 
                            "channel": 6
                        }
                    ]
                ], 
                [
                    95530, 
                    [
                        {
                            "pitch": 45, 
                            "t0": 95530, 
                            "v": 112, 
                            "dur": 123, 
                            "type": "note", 
                            "channel": 6
                        }
                    ]
                ], 
                [
                    95646, 
                    [
                        {
                            "pitch": 40, 
                            "t0": 95646, 
                            "v": 100, 
                            "dur": 145, 
                            "type": "note", 
                            "channel": 6
                        }
                    ]
                ], 
                [
                    95884, 
                    [
                        {
                            "pitch": 40, 
                            "t0": 95884, 
                            "v": 92, 
                            "dur": 94, 
                            "type": "note", 
                            "channel": 6
                        }
                    ]
                ], 
                [
                    96002, 
                    [
                        {
                            "pitch": 43, 
                            "t0": 96002, 
                            "v": 108, 
                            "dur": 142, 
                            "type": "note", 
                            "channel": 6
                        }
                    ]
                ], 
                [
                    96113, 
                    [
                        {
                            "pitch": 38, 
                            "t0": 96113, 
                            "v": 104, 
                            "dur": 114, 
                            "type": "note", 
                            "channel": 6
                        }
                    ]
                ], 
                [
                    96362, 
                    [
                        {
                            "pitch": 40, 
                            "t0": 96362, 
                            "v": 96, 
                            "dur": 94, 
                            "type": "note", 
                            "channel": 6
                        }
                    ]
                ], 
                [
                    96485, 
                    [
                        {
                            "pitch": 45, 
                            "t0": 96485, 
                            "v": 104, 
                            "dur": 125, 
                            "type": "note", 
                            "channel": 6
                        }
                    ]
                ], 
                [
                    96606, 
                    [
                        {
                            "pitch": 40, 
                            "t0": 96606, 
                            "v": 96, 
                            "dur": 130, 
                            "type": "note", 
                            "channel": 6
                        }
                    ]
                ], 
                [
                    96838, 
                    [
                        {
                            "pitch": 40, 
                            "t0": 96838, 
                            "v": 100, 
                            "dur": 85, 
                            "type": "note", 
                            "channel": 6
                        }
                    ]
                ], 
                [
                    96956, 
                    [
                        {
                            "pitch": 43, 
                            "t0": 96956, 
                            "v": 108, 
                            "dur": 153, 
                            "type": "note", 
                            "channel": 6
                        }
                    ]
                ], 
                [
                    97080, 
                    [
                        {
                            "pitch": 38, 
                            "t0": 97080, 
                            "v": 112, 
                            "dur": 133, 
                            "type": "note", 
                            "channel": 6
                        }
                    ]
                ], 
                [
                    97330, 
                    [
                        {
                            "pitch": 40, 
                            "t0": 97330, 
                            "v": 96, 
                            "dur": 97, 
                            "type": "note", 
                            "channel": 6
                        }
                    ]
                ], 
                [
                    97455, 
                    [
                        {
                            "pitch": 45, 
                            "t0": 97455, 
                            "v": 112, 
                            "dur": 119, 
                            "type": "note", 
                            "channel": 6
                        }
                    ]
                ], 
                [
                    97568, 
                    [
                        {
                            "pitch": 40, 
                            "t0": 97568, 
                            "v": 104, 
                            "dur": 114, 
                            "type": "note", 
                            "channel": 6
                        }
                    ]
                ], 
                [
                    97802, 
                    [
                        {
                            "pitch": 40, 
                            "t0": 97802, 
                            "v": 100, 
                            "dur": 78, 
                            "type": "note", 
                            "channel": 6
                        }
                    ]
                ], 
                [
                    97926, 
                    [
                        {
                            "pitch": 43, 
                            "t0": 97926, 
                            "v": 116, 
                            "dur": 115, 
                            "type": "note", 
                            "channel": 6
                        }
                    ]
                ], 
                [
                    98034, 
                    [
                        {
                            "pitch": 38, 
                            "t0": 98034, 
                            "v": 108, 
                            "dur": 131, 
                            "type": "note", 
                            "channel": 6
                        }
                    ]
                ], 
                [
                    98291, 
                    [
                        {
                            "pitch": 40, 
                            "t0": 98291, 
                            "v": 92, 
                            "dur": 96, 
                            "type": "note", 
                            "channel": 6
                        }
                    ]
                ], 
                [
                    98411, 
                    [
                        {
                            "pitch": 45, 
                            "t0": 98411, 
                            "v": 116, 
                            "dur": 117, 
                            "type": "note", 
                            "channel": 6
                        }
                    ]
                ], 
                [
                    98529, 
                    [
                        {
                            "pitch": 40, 
                            "t0": 98529, 
                            "v": 100, 
                            "dur": 116, 
                            "type": "note", 
                            "channel": 6
                        }
                    ]
                ], 
                [
                    98763, 
                    [
                        {
                            "pitch": 40, 
                            "t0": 98763, 
                            "v": 88, 
                            "dur": 97, 
                            "type": "note", 
                            "channel": 6
                        }
                    ]
                ], 
                [
                    98880, 
                    [
                        {
                            "pitch": 43, 
                            "t0": 98880, 
                            "v": 108, 
                            "dur": 112, 
                            "type": "note", 
                            "channel": 6
                        }
                    ]
                ], 
                [
                    98991, 
                    [
                        {
                            "pitch": 38, 
                            "t0": 98991, 
                            "v": 108, 
                            "dur": 116, 
                            "type": "note", 
                            "channel": 6
                        }
                    ]
                ], 
                [
                    99243, 
                    [
                        {
                            "pitch": 40, 
                            "t0": 99243, 
                            "v": 104, 
                            "dur": 96, 
                            "type": "note", 
                            "channel": 6
                        }
                    ]
                ], 
                [
                    99363, 
                    [
                        {
                            "pitch": 45, 
                            "t0": 99363, 
                            "v": 116, 
                            "dur": 122, 
                            "type": "note", 
                            "channel": 6
                        }
                    ]
                ], 
                [
                    99489, 
                    [
                        {
                            "pitch": 40, 
                            "t0": 99489, 
                            "v": 100, 
                            "dur": 101, 
                            "type": "note", 
                            "channel": 6
                        }
                    ]
                ], 
                [
                    99721, 
                    [
                        {
                            "pitch": 40, 
                            "t0": 99721, 
                            "v": 100, 
                            "dur": 82, 
                            "type": "note", 
                            "channel": 6
                        }
                    ]
                ], 
                [
                    99839, 
                    [
                        {
                            "pitch": 43, 
                            "t0": 99839, 
                            "v": 112, 
                            "dur": 113, 
                            "type": "note", 
                            "channel": 6
                        }
                    ]
                ], 
                [
                    99949, 
                    [
                        {
                            "pitch": 38, 
                            "t0": 99949, 
                            "v": 108, 
                            "dur": 138, 
                            "type": "note", 
                            "channel": 6
                        }
                    ]
                ], 
                [
                    100190, 
                    [
                        {
                            "pitch": 40, 
                            "t0": 100190, 
                            "v": 104, 
                            "dur": 103, 
                            "type": "note", 
                            "channel": 6
                        }
                    ]
                ], 
                [
                    100317, 
                    [
                        {
                            "pitch": 45, 
                            "t0": 100317, 
                            "v": 112, 
                            "dur": 116, 
                            "type": "note", 
                            "channel": 6
                        }
                    ]
                ], 
                [
                    100428, 
                    [
                        {
                            "pitch": 40, 
                            "t0": 100428, 
                            "v": 96, 
                            "dur": 127, 
                            "type": "note", 
                            "channel": 6
                        }
                    ]
                ], 
                [
                    100668, 
                    [
                        {
                            "pitch": 40, 
                            "t0": 100668, 
                            "v": 96, 
                            "dur": 84, 
                            "type": "note", 
                            "channel": 6
                        }
                    ]
                ], 
                [
                    100783, 
                    [
                        {
                            "pitch": 43, 
                            "t0": 100783, 
                            "v": 108, 
                            "dur": 113, 
                            "type": "note", 
                            "channel": 6
                        }
                    ]
                ], 
                [
                    100911, 
                    [
                        {
                            "pitch": 38, 
                            "t0": 100911, 
                            "v": 104, 
                            "dur": 128, 
                            "type": "note", 
                            "channel": 6
                        }
                    ]
                ], 
                [
                    101191, 
                    [
                        {
                            "pitch": 40, 
                            "t0": 101191, 
                            "v": 100, 
                            "dur": 109, 
                            "type": "note", 
                            "channel": 6
                        }
                    ]
                ], 
                [
                    101299, 
                    [
                        {
                            "pitch": 45, 
                            "t0": 101299, 
                            "v": 108, 
                            "dur": 137, 
                            "type": "note", 
                            "channel": 6
                        }
                    ]
                ], 
                [
                    101424, 
                    [
                        {
                            "pitch": 40, 
                            "t0": 101424, 
                            "v": 108, 
                            "dur": 123, 
                            "type": "note", 
                            "channel": 6
                        }
                    ]
                ], 
                [
                    101655, 
                    [
                        {
                            "pitch": 40, 
                            "t0": 101655, 
                            "v": 92, 
                            "dur": 105, 
                            "type": "note", 
                            "channel": 6
                        }
                    ]
                ], 
                [
                    101781, 
                    [
                        {
                            "pitch": 43, 
                            "t0": 101781, 
                            "v": 108, 
                            "dur": 121, 
                            "type": "note", 
                            "channel": 6
                        }
                    ]
                ], 
                [
                    101894, 
                    [
                        {
                            "pitch": 38, 
                            "t0": 101894, 
                            "v": 104, 
                            "dur": 113, 
                            "type": "note", 
                            "channel": 6
                        }
                    ]
                ], 
                [
                    102136, 
                    [
                        {
                            "pitch": 40, 
                            "t0": 102136, 
                            "v": 100, 
                            "dur": 105, 
                            "type": "note", 
                            "channel": 6
                        }
                    ]
                ], 
                [
                    102259, 
                    [
                        {
                            "pitch": 45, 
                            "t0": 102259, 
                            "v": 112, 
                            "dur": 114, 
                            "type": "note", 
                            "channel": 6
                        }
                    ]
                ], 
                [
                    102365, 
                    [
                        {
                            "pitch": 40, 
                            "t0": 102365, 
                            "v": 92, 
                            "dur": 138, 
                            "type": "note", 
                            "channel": 6
                        }
                    ]
                ], 
                [
                    102602, 
                    [
                        {
                            "pitch": 40, 
                            "t0": 102602, 
                            "v": 92, 
                            "dur": 90, 
                            "type": "note", 
                            "channel": 6
                        }
                    ]
                ], 
                [
                    102717, 
                    [
                        {
                            "pitch": 43, 
                            "t0": 102717, 
                            "v": 112, 
                            "dur": 119, 
                            "type": "note", 
                            "channel": 6
                        }
                    ]
                ], 
                [
                    102848, 
                    [
                        {
                            "pitch": 38, 
                            "t0": 102848, 
                            "v": 76, 
                            "dur": 82, 
                            "type": "note", 
                            "channel": 6
                        }
                    ]
                ], 
                [
                    102850, 
                    [
                        {
                            "pitch": 36, 
                            "t0": 102850, 
                            "v": 104, 
                            "dur": 79, 
                            "type": "note", 
                            "channel": 6
                        }
                    ]
                ], 
                [
                    103091, 
                    [
                        {
                            "pitch": 40, 
                            "t0": 103091, 
                            "v": 92, 
                            "dur": 106, 
                            "type": "note", 
                            "channel": 6
                        }
                    ]
                ], 
                [
                    103198, 
                    [
                        {
                            "pitch": 45, 
                            "t0": 103198, 
                            "v": 104, 
                            "dur": 127, 
                            "type": "note", 
                            "channel": 6
                        }
                    ]
                ], 
                [
                    103316, 
                    [
                        {
                            "pitch": 40, 
                            "t0": 103316, 
                            "v": 88, 
                            "dur": 127, 
                            "type": "note", 
                            "channel": 6
                        }
                    ]
                ], 
                [
                    103552, 
                    [
                        {
                            "pitch": 40, 
                            "t0": 103552, 
                            "v": 80, 
                            "dur": 98, 
                            "type": "note", 
                            "channel": 6
                        }
                    ]
                ], 
                [
                    103664, 
                    [
                        {
                            "pitch": 43, 
                            "t0": 103664, 
                            "v": 72, 
                            "dur": 112, 
                            "type": "note", 
                            "channel": 6
                        }
                    ]
                ], 
                [
                    103796, 
                    [
                        {
                            "pitch": 38, 
                            "t0": 103796, 
                            "v": 108, 
                            "dur": 101, 
                            "type": "note", 
                            "channel": 6
                        }
                    ]
                ], 
                [
                    104057, 
                    [
                        {
                            "pitch": 40, 
                            "t0": 104057, 
                            "v": 96, 
                            "dur": 92, 
                            "type": "note", 
                            "channel": 6
                        }
                    ]
                ], 
                [
                    104174, 
                    [
                        {
                            "pitch": 45, 
                            "t0": 104174, 
                            "v": 104, 
                            "dur": 121, 
                            "type": "note", 
                            "channel": 6
                        }
                    ]
                ], 
                [
                    104291, 
                    [
                        {
                            "pitch": 40, 
                            "t0": 104291, 
                            "v": 104, 
                            "dur": 134, 
                            "type": "note", 
                            "channel": 6
                        }
                    ]
                ], 
                [
                    104528, 
                    [
                        {
                            "pitch": 40, 
                            "t0": 104528, 
                            "v": 96, 
                            "dur": 92, 
                            "type": "note", 
                            "channel": 6
                        }
                    ]
                ], 
                [
                    104646, 
                    [
                        {
                            "pitch": 43, 
                            "t0": 104646, 
                            "v": 100, 
                            "dur": 151, 
                            "type": "note", 
                            "channel": 6
                        }
                    ]
                ], 
                [
                    104770, 
                    [
                        {
                            "pitch": 38, 
                            "t0": 104770, 
                            "v": 100, 
                            "dur": 125, 
                            "type": "note", 
                            "channel": 6
                        }
                    ]
                ], 
                [
                    105023, 
                    [
                        {
                            "pitch": 40, 
                            "t0": 105023, 
                            "v": 96, 
                            "dur": 102, 
                            "type": "note", 
                            "channel": 6
                        }
                    ]
                ], 
                [
                    105132, 
                    [
                        {
                            "pitch": 45, 
                            "t0": 105132, 
                            "v": 104, 
                            "dur": 113, 
                            "type": "note", 
                            "channel": 6
                        }
                    ]
                ], 
                [
                    105242, 
                    [
                        {
                            "pitch": 40, 
                            "t0": 105242, 
                            "v": 96, 
                            "dur": 129, 
                            "type": "note", 
                            "channel": 6
                        }
                    ]
                ], 
                [
                    105488, 
                    [
                        {
                            "pitch": 40, 
                            "t0": 105488, 
                            "v": 88, 
                            "dur": 114, 
                            "type": "note", 
                            "channel": 6
                        }
                    ]
                ], 
                [
                    105603, 
                    [
                        {
                            "pitch": 43, 
                            "t0": 105603, 
                            "v": 108, 
                            "dur": 133, 
                            "type": "note", 
                            "channel": 6
                        }
                    ]
                ], 
                [
                    105732, 
                    [
                        {
                            "pitch": 38, 
                            "t0": 105732, 
                            "v": 104, 
                            "dur": 142, 
                            "type": "note", 
                            "channel": 6
                        }
                    ]
                ], 
                [
                    105982, 
                    [
                        {
                            "pitch": 40, 
                            "t0": 105982, 
                            "v": 92, 
                            "dur": 110, 
                            "type": "note", 
                            "channel": 6
                        }
                    ]
                ], 
                [
                    106100, 
                    [
                        {
                            "pitch": 45, 
                            "t0": 106100, 
                            "v": 108, 
                            "dur": 124, 
                            "type": "note", 
                            "channel": 6
                        }
                    ]
                ], 
                [
                    106209, 
                    [
                        {
                            "pitch": 40, 
                            "t0": 106209, 
                            "v": 92, 
                            "dur": 148, 
                            "type": "note", 
                            "channel": 6
                        }
                    ]
                ], 
                [
                    106455, 
                    [
                        {
                            "pitch": 40, 
                            "t0": 106455, 
                            "v": 84, 
                            "dur": 99, 
                            "type": "note", 
                            "channel": 6
                        }
                    ]
                ], 
                [
                    106563, 
                    [
                        {
                            "pitch": 43, 
                            "t0": 106563, 
                            "v": 92, 
                            "dur": 111, 
                            "type": "note", 
                            "channel": 6
                        }
                    ]
                ], 
                [
                    106681, 
                    [
                        {
                            "pitch": 38, 
                            "t0": 106681, 
                            "v": 112, 
                            "dur": 127, 
                            "type": "note", 
                            "channel": 6
                        }
                    ]
                ], 
                [
                    106950, 
                    [
                        {
                            "pitch": 40, 
                            "t0": 106950, 
                            "v": 96, 
                            "dur": 105, 
                            "type": "note", 
                            "channel": 6
                        }
                    ]
                ], 
                [
                    107058, 
                    [
                        {
                            "pitch": 45, 
                            "t0": 107058, 
                            "v": 108, 
                            "dur": 130, 
                            "type": "note", 
                            "channel": 6
                        }
                    ]
                ], 
                [
                    107175, 
                    [
                        {
                            "pitch": 40, 
                            "t0": 107175, 
                            "v": 104, 
                            "dur": 140, 
                            "type": "note", 
                            "channel": 6
                        }
                    ]
                ], 
                [
                    107406, 
                    [
                        {
                            "pitch": 40, 
                            "t0": 107406, 
                            "v": 96, 
                            "dur": 113, 
                            "type": "note", 
                            "channel": 6
                        }
                    ]
                ], 
                [
                    107517, 
                    [
                        {
                            "pitch": 43, 
                            "t0": 107517, 
                            "v": 96, 
                            "dur": 119, 
                            "type": "note", 
                            "channel": 6
                        }
                    ]
                ], 
                [
                    107643, 
                    [
                        {
                            "pitch": 38, 
                            "t0": 107643, 
                            "v": 112, 
                            "dur": 117, 
                            "type": "note", 
                            "channel": 6
                        }
                    ]
                ], 
                [
                    107899, 
                    [
                        {
                            "pitch": 40, 
                            "t0": 107899, 
                            "v": 84, 
                            "dur": 107, 
                            "type": "note", 
                            "channel": 6
                        }
                    ]
                ], 
                [
                    108014, 
                    [
                        {
                            "pitch": 45, 
                            "t0": 108014, 
                            "v": 100, 
                            "dur": 119, 
                            "type": "note", 
                            "channel": 6
                        }
                    ]
                ], 
                [
                    108125, 
                    [
                        {
                            "pitch": 40, 
                            "t0": 108125, 
                            "v": 96, 
                            "dur": 127, 
                            "type": "note", 
                            "channel": 6
                        }
                    ]
                ], 
                [
                    108355, 
                    [
                        {
                            "pitch": 40, 
                            "t0": 108355, 
                            "v": 80, 
                            "dur": 109, 
                            "type": "note", 
                            "channel": 6
                        }
                    ]
                ], 
                [
                    108474, 
                    [
                        {
                            "pitch": 43, 
                            "t0": 108474, 
                            "v": 100, 
                            "dur": 128, 
                            "type": "note", 
                            "channel": 6
                        }
                    ]
                ], 
                [
                    108596, 
                    [
                        {
                            "pitch": 38, 
                            "t0": 108596, 
                            "v": 104, 
                            "dur": 131, 
                            "type": "note", 
                            "channel": 6
                        }
                    ]
                ], 
                [
                    108857, 
                    [
                        {
                            "pitch": 40, 
                            "t0": 108857, 
                            "v": 84, 
                            "dur": 127, 
                            "type": "note", 
                            "channel": 6
                        }
                    ]
                ], 
                [
                    108976, 
                    [
                        {
                            "pitch": 45, 
                            "t0": 108976, 
                            "v": 96, 
                            "dur": 142, 
                            "type": "note", 
                            "channel": 6
                        }
                    ]
                ], 
                [
                    109102, 
                    [
                        {
                            "pitch": 40, 
                            "t0": 109102, 
                            "v": 100, 
                            "dur": 144, 
                            "type": "note", 
                            "channel": 6
                        }
                    ]
                ], 
                [
                    109337, 
                    [
                        {
                            "pitch": 40, 
                            "t0": 109337, 
                            "v": 84, 
                            "dur": 103, 
                            "type": "note", 
                            "channel": 6
                        }
                    ]
                ], 
                [
                    109442, 
                    [
                        {
                            "pitch": 43, 
                            "t0": 109442, 
                            "v": 100, 
                            "dur": 157, 
                            "type": "note", 
                            "channel": 6
                        }
                    ]
                ], 
                [
                    109573, 
                    [
                        {
                            "pitch": 38, 
                            "t0": 109573, 
                            "v": 112, 
                            "dur": 144, 
                            "type": "note", 
                            "channel": 6
                        }
                    ]
                ], 
                [
                    109849, 
                    [
                        {
                            "pitch": 40, 
                            "t0": 109849, 
                            "v": 96, 
                            "dur": 105, 
                            "type": "note", 
                            "channel": 6
                        }
                    ]
                ], 
                [
                    109961, 
                    [
                        {
                            "pitch": 45, 
                            "t0": 109961, 
                            "v": 100, 
                            "dur": 116, 
                            "type": "note", 
                            "channel": 6
                        }
                    ]
                ], 
                [
                    110071, 
                    [
                        {
                            "pitch": 40, 
                            "t0": 110071, 
                            "v": 92, 
                            "dur": 155, 
                            "type": "note", 
                            "channel": 6
                        }
                    ]
                ], 
                [
                    110299, 
                    [
                        {
                            "pitch": 40, 
                            "t0": 110299, 
                            "v": 100, 
                            "dur": 116, 
                            "type": "note", 
                            "channel": 6
                        }
                    ]
                ], 
                [
                    110421, 
                    [
                        {
                            "pitch": 43, 
                            "t0": 110421, 
                            "v": 96, 
                            "dur": 113, 
                            "type": "note", 
                            "channel": 6
                        }
                    ]
                ], 
                [
                    110536, 
                    [
                        {
                            "pitch": 38, 
                            "t0": 110536, 
                            "v": 104, 
                            "dur": 125, 
                            "type": "note", 
                            "channel": 6
                        }
                    ]
                ], 
                [
                    110786, 
                    [
                        {
                            "pitch": 40, 
                            "t0": 110786, 
                            "v": 84, 
                            "dur": 108, 
                            "type": "note", 
                            "channel": 6
                        }
                    ]
                ], 
                [
                    110899, 
                    [
                        {
                            "pitch": 45, 
                            "t0": 110899, 
                            "v": 96, 
                            "dur": 129, 
                            "type": "note", 
                            "channel": 6
                        }
                    ]
                ], 
                [
                    111010, 
                    [
                        {
                            "pitch": 40, 
                            "t0": 111010, 
                            "v": 96, 
                            "dur": 153, 
                            "type": "note", 
                            "channel": 6
                        }
                    ]
                ], 
                [
                    111240, 
                    [
                        {
                            "pitch": 40, 
                            "t0": 111240, 
                            "v": 84, 
                            "dur": 94, 
                            "type": "note", 
                            "channel": 6
                        }
                    ]
                ], 
                [
                    111362, 
                    [
                        {
                            "pitch": 43, 
                            "t0": 111362, 
                            "v": 88, 
                            "dur": 113, 
                            "type": "note", 
                            "channel": 6
                        }
                    ]
                ], 
                [
                    111481, 
                    [
                        {
                            "pitch": 38, 
                            "t0": 111481, 
                            "v": 88, 
                            "dur": 110, 
                            "type": "note", 
                            "channel": 6
                        }
                    ]
                ], 
                [
                    111751, 
                    [
                        {
                            "pitch": 40, 
                            "t0": 111751, 
                            "v": 76, 
                            "dur": 108, 
                            "type": "note", 
                            "channel": 6
                        }
                    ]
                ], 
                [
                    111864, 
                    [
                        {
                            "pitch": 45, 
                            "t0": 111864, 
                            "v": 104, 
                            "dur": 130, 
                            "type": "note", 
                            "channel": 6
                        }
                    ]
                ], 
                [
                    111979, 
                    [
                        {
                            "pitch": 40, 
                            "t0": 111979, 
                            "v": 92, 
                            "dur": 123, 
                            "type": "note", 
                            "channel": 6
                        }
                    ]
                ], 
                [
                    112202, 
                    [
                        {
                            "pitch": 40, 
                            "t0": 112202, 
                            "v": 88, 
                            "dur": 105, 
                            "type": "note", 
                            "channel": 6
                        }
                    ]
                ], 
                [
                    112328, 
                    [
                        {
                            "pitch": 43, 
                            "t0": 112328, 
                            "v": 96, 
                            "dur": 110, 
                            "type": "note", 
                            "channel": 6
                        }
                    ]
                ], 
                [
                    112444, 
                    [
                        {
                            "pitch": 40, 
                            "t0": 112444, 
                            "v": 84, 
                            "dur": 77, 
                            "type": "note", 
                            "channel": 6
                        }
                    ]
                ], 
                [
                    112452, 
                    [
                        {
                            "pitch": 38, 
                            "t0": 112452, 
                            "v": 80, 
                            "dur": 50, 
                            "type": "note", 
                            "channel": 6
                        }
                    ]
                ], 
                [
                    112704, 
                    [
                        {
                            "pitch": 40, 
                            "t0": 112704, 
                            "v": 76, 
                            "dur": 104, 
                            "type": "note", 
                            "channel": 6
                        }
                    ]
                ], 
                [
                    112816, 
                    [
                        {
                            "pitch": 45, 
                            "t0": 112816, 
                            "v": 96, 
                            "dur": 128, 
                            "type": "note", 
                            "channel": 6
                        }
                    ]
                ], 
                [
                    112931, 
                    [
                        {
                            "pitch": 40, 
                            "t0": 112931, 
                            "v": 88, 
                            "dur": 115, 
                            "type": "note", 
                            "channel": 6
                        }
                    ]
                ], 
                [
                    113154, 
                    [
                        {
                            "pitch": 40, 
                            "t0": 113154, 
                            "v": 84, 
                            "dur": 95, 
                            "type": "note", 
                            "channel": 6
                        }
                    ]
                ], 
                [
                    113268, 
                    [
                        {
                            "pitch": 43, 
                            "t0": 113268, 
                            "v": 96, 
                            "dur": 122, 
                            "type": "note", 
                            "channel": 6
                        }
                    ]
                ], 
                [
                    113396, 
                    [
                        {
                            "pitch": 38, 
                            "t0": 113396, 
                            "v": 108, 
                            "dur": 110, 
                            "type": "note", 
                            "channel": 6
                        }
                    ]
                ], 
                [
                    113656, 
                    [
                        {
                            "pitch": 40, 
                            "t0": 113656, 
                            "v": 84, 
                            "dur": 81, 
                            "type": "note", 
                            "channel": 6
                        }
                    ]
                ], 
                [
                    113764, 
                    [
                        {
                            "pitch": 45, 
                            "t0": 113764, 
                            "v": 56, 
                            "dur": 125, 
                            "type": "note", 
                            "channel": 6
                        }
                    ]
                ], 
                [
                    113893, 
                    [
                        {
                            "pitch": 40, 
                            "t0": 113893, 
                            "v": 100, 
                            "dur": 136, 
                            "type": "note", 
                            "channel": 6
                        }
                    ]
                ], 
                [
                    114125, 
                    [
                        {
                            "pitch": 40, 
                            "t0": 114125, 
                            "v": 84, 
                            "dur": 107, 
                            "type": "note", 
                            "channel": 6
                        }
                    ]
                ], 
                [
                    114240, 
                    [
                        {
                            "pitch": 43, 
                            "t0": 114240, 
                            "v": 100, 
                            "dur": 119, 
                            "type": "note", 
                            "channel": 6
                        }
                    ]
                ], 
                [
                    114358, 
                    [
                        {
                            "pitch": 40, 
                            "t0": 114358, 
                            "v": 40, 
                            "dur": 52, 
                            "type": "note", 
                            "channel": 6
                        }, 
                        {
                            "pitch": 38, 
                            "t0": 114358, 
                            "v": 60, 
                            "dur": 53, 
                            "type": "note", 
                            "channel": 6
                        }
                    ]
                ], 
                [
                    114580, 
                    [
                        {
                            "pitch": 40, 
                            "t0": 114580, 
                            "v": 64, 
                            "dur": 128, 
                            "type": "note", 
                            "channel": 6
                        }
                    ]
                ], 
                [
                    114744, 
                    [
                        {
                            "pitch": 45, 
                            "t0": 114744, 
                            "v": 76, 
                            "dur": 105, 
                            "type": "note", 
                            "channel": 6
                        }
                    ]
                ], 
                [
                    114844, 
                    [
                        {
                            "pitch": 40, 
                            "t0": 114844, 
                            "v": 88, 
                            "dur": 136, 
                            "type": "note", 
                            "channel": 6
                        }
                    ]
                ], 
                [
                    115067, 
                    [
                        {
                            "pitch": 40, 
                            "t0": 115067, 
                            "v": 76, 
                            "dur": 106, 
                            "type": "note", 
                            "channel": 6
                        }
                    ]
                ], 
                [
                    115188, 
                    [
                        {
                            "pitch": 43, 
                            "t0": 115188, 
                            "v": 104, 
                            "dur": 109, 
                            "type": "note", 
                            "channel": 6
                        }
                    ]
                ], 
                [
                    115298, 
                    [
                        {
                            "pitch": 38, 
                            "t0": 115298, 
                            "v": 96, 
                            "dur": 132, 
                            "type": "note", 
                            "channel": 6
                        }
                    ]
                ], 
                [
                    115300, 
                    [
                        {
                            "pitch": 36, 
                            "t0": 115300, 
                            "v": 96, 
                            "dur": 17, 
                            "type": "note", 
                            "channel": 6
                        }
                    ]
                ], 
                [
                    115563, 
                    [
                        {
                            "pitch": 40, 
                            "t0": 115563, 
                            "v": 96, 
                            "dur": 98, 
                            "type": "note", 
                            "channel": 6
                        }
                    ]
                ], 
                [
                    115679, 
                    [
                        {
                            "pitch": 45, 
                            "t0": 115679, 
                            "v": 100, 
                            "dur": 130, 
                            "type": "note", 
                            "channel": 6
                        }
                    ]
                ], 
                [
                    115802, 
                    [
                        {
                            "pitch": 40, 
                            "t0": 115802, 
                            "v": 92, 
                            "dur": 129, 
                            "type": "note", 
                            "channel": 6
                        }
                    ]
                ], 
                [
                    116028, 
                    [
                        {
                            "pitch": 40, 
                            "t0": 116028, 
                            "v": 96, 
                            "dur": 103, 
                            "type": "note", 
                            "channel": 6
                        }
                    ]
                ], 
                [
                    116149, 
                    [
                        {
                            "pitch": 43, 
                            "t0": 116149, 
                            "v": 112, 
                            "dur": 114, 
                            "type": "note", 
                            "channel": 6
                        }
                    ]
                ], 
                [
                    116263, 
                    [
                        {
                            "pitch": 38, 
                            "t0": 116263, 
                            "v": 112, 
                            "dur": 126, 
                            "type": "note", 
                            "channel": 6
                        }
                    ]
                ], 
                [
                    116541, 
                    [
                        {
                            "pitch": 40, 
                            "t0": 116541, 
                            "v": 96, 
                            "dur": 118, 
                            "type": "note", 
                            "channel": 6
                        }
                    ]
                ], 
                [
                    116661, 
                    [
                        {
                            "pitch": 45, 
                            "t0": 116661, 
                            "v": 68, 
                            "dur": 129, 
                            "type": "note", 
                            "channel": 6
                        }
                    ]
                ], 
                [
                    116664, 
                    [
                        {
                            "pitch": 47, 
                            "t0": 116664, 
                            "v": 80, 
                            "dur": 20, 
                            "type": "note", 
                            "channel": 6
                        }
                    ]
                ], 
                [
                    116773, 
                    [
                        {
                            "pitch": 40, 
                            "t0": 116773, 
                            "v": 100, 
                            "dur": 114, 
                            "type": "note", 
                            "channel": 6
                        }
                    ]
                ], 
                [
                    116995, 
                    [
                        {
                            "pitch": 40, 
                            "t0": 116995, 
                            "v": 92, 
                            "dur": 98, 
                            "type": "note", 
                            "channel": 6
                        }
                    ]
                ], 
                [
                    117109, 
                    [
                        {
                            "pitch": 43, 
                            "t0": 117109, 
                            "v": 108, 
                            "dur": 119, 
                            "type": "note", 
                            "channel": 6
                        }
                    ]
                ], 
                [
                    117229, 
                    [
                        {
                            "pitch": 38, 
                            "t0": 117229, 
                            "v": 108, 
                            "dur": 108, 
                            "type": "note", 
                            "channel": 6
                        }
                    ]
                ], 
                [
                    117486, 
                    [
                        {
                            "pitch": 40, 
                            "t0": 117486, 
                            "v": 84, 
                            "dur": 104, 
                            "type": "note", 
                            "channel": 6
                        }
                    ]
                ], 
                [
                    117603, 
                    [
                        {
                            "pitch": 45, 
                            "t0": 117603, 
                            "v": 100, 
                            "dur": 137, 
                            "type": "note", 
                            "channel": 6
                        }
                    ]
                ], 
                [
                    117724, 
                    [
                        {
                            "pitch": 40, 
                            "t0": 117724, 
                            "v": 96, 
                            "dur": 121, 
                            "type": "note", 
                            "channel": 6
                        }
                    ]
                ], 
                [
                    117957, 
                    [
                        {
                            "pitch": 40, 
                            "t0": 117957, 
                            "v": 92, 
                            "dur": 110, 
                            "type": "note", 
                            "channel": 6
                        }
                    ]
                ], 
                [
                    118084, 
                    [
                        {
                            "pitch": 43, 
                            "t0": 118084, 
                            "v": 104, 
                            "dur": 138, 
                            "type": "note", 
                            "channel": 6
                        }
                    ]
                ], 
                [
                    118201, 
                    [
                        {
                            "pitch": 38, 
                            "t0": 118201, 
                            "v": 112, 
                            "dur": 128, 
                            "type": "note", 
                            "channel": 6
                        }
                    ]
                ], 
                [
                    118446, 
                    [
                        {
                            "pitch": 40, 
                            "t0": 118446, 
                            "v": 100, 
                            "dur": 107, 
                            "type": "note", 
                            "channel": 6
                        }
                    ]
                ], 
                [
                    118569, 
                    [
                        {
                            "pitch": 45, 
                            "t0": 118569, 
                            "v": 104, 
                            "dur": 136, 
                            "type": "note", 
                            "channel": 6
                        }
                    ]
                ], 
                [
                    118692, 
                    [
                        {
                            "pitch": 40, 
                            "t0": 118692, 
                            "v": 96, 
                            "dur": 129, 
                            "type": "note", 
                            "channel": 6
                        }
                    ]
                ], 
                [
                    118919, 
                    [
                        {
                            "pitch": 40, 
                            "t0": 118919, 
                            "v": 96, 
                            "dur": 98, 
                            "type": "note", 
                            "channel": 6
                        }
                    ]
                ], 
                [
                    119050, 
                    [
                        {
                            "pitch": 43, 
                            "t0": 119050, 
                            "v": 104, 
                            "dur": 119, 
                            "type": "note", 
                            "channel": 6
                        }
                    ]
                ], 
                [
                    119172, 
                    [
                        {
                            "pitch": 38, 
                            "t0": 119172, 
                            "v": 104, 
                            "dur": 118, 
                            "type": "note", 
                            "channel": 6
                        }
                    ]
                ], 
                [
                    119415, 
                    [
                        {
                            "pitch": 40, 
                            "t0": 119415, 
                            "v": 92, 
                            "dur": 99, 
                            "type": "note", 
                            "channel": 6
                        }
                    ]
                ], 
                [
                    119534, 
                    [
                        {
                            "pitch": 45, 
                            "t0": 119534, 
                            "v": 100, 
                            "dur": 133, 
                            "type": "note", 
                            "channel": 6
                        }
                    ]
                ], 
                [
                    119660, 
                    [
                        {
                            "pitch": 40, 
                            "t0": 119660, 
                            "v": 100, 
                            "dur": 118, 
                            "type": "note", 
                            "channel": 6
                        }
                    ]
                ], 
                [
                    119890, 
                    [
                        {
                            "pitch": 40, 
                            "t0": 119890, 
                            "v": 88, 
                            "dur": 98, 
                            "type": "note", 
                            "channel": 6
                        }
                    ]
                ], 
                [
                    120005, 
                    [
                        {
                            "pitch": 43, 
                            "t0": 120005, 
                            "v": 108, 
                            "dur": 109, 
                            "type": "note", 
                            "channel": 6
                        }
                    ]
                ], 
                [
                    120130, 
                    [
                        {
                            "pitch": 40, 
                            "t0": 120130, 
                            "v": 32, 
                            "dur": 33, 
                            "type": "note", 
                            "channel": 6
                        }
                    ]
                ], 
                [
                    120132, 
                    [
                        {
                            "pitch": 38, 
                            "t0": 120132, 
                            "v": 45, 
                            "dur": 37, 
                            "type": "note", 
                            "channel": 6
                        }
                    ]
                ], 
                [
                    120143, 
                    [
                        {
                            "pitch": 43, 
                            "t0": 120143, 
                            "v": 36, 
                            "dur": 54, 
                            "type": "note", 
                            "channel": 6
                        }
                    ]
                ], 
                [
                    120378, 
                    [
                        {
                            "pitch": 40, 
                            "t0": 120378, 
                            "v": 88, 
                            "dur": 100, 
                            "type": "note", 
                            "channel": 6
                        }
                    ]
                ], 
                [
                    120479, 
                    [
                        {
                            "pitch": 45, 
                            "t0": 120479, 
                            "v": 92, 
                            "dur": 143, 
                            "type": "note", 
                            "channel": 6
                        }
                    ]
                ], 
                [
                    120619, 
                    [
                        {
                            "pitch": 40, 
                            "t0": 120619, 
                            "v": 92, 
                            "dur": 86, 
                            "type": "note", 
                            "channel": 6
                        }
                    ]
                ], 
                [
                    120623, 
                    [
                        {
                            "pitch": 41, 
                            "t0": 120623, 
                            "v": 92, 
                            "dur": 72, 
                            "type": "note", 
                            "channel": 6
                        }
                    ]
                ], 
                [
                    120848, 
                    [
                        {
                            "pitch": 40, 
                            "t0": 120848, 
                            "v": 92, 
                            "dur": 88, 
                            "type": "note", 
                            "channel": 6
                        }
                    ]
                ], 
                [
                    120959, 
                    [
                        {
                            "pitch": 43, 
                            "t0": 120959, 
                            "v": 92, 
                            "dur": 116, 
                            "type": "note", 
                            "channel": 6
                        }
                    ]
                ], 
                [
                    121085, 
                    [
                        {
                            "pitch": 38, 
                            "t0": 121085, 
                            "v": 108, 
                            "dur": 96, 
                            "type": "note", 
                            "channel": 6
                        }
                    ]
                ], 
                [
                    121345, 
                    [
                        {
                            "pitch": 40, 
                            "t0": 121345, 
                            "v": 100, 
                            "dur": 104, 
                            "type": "note", 
                            "channel": 6
                        }
                    ]
                ], 
                [
                    121457, 
                    [
                        {
                            "pitch": 45, 
                            "t0": 121457, 
                            "v": 108, 
                            "dur": 121, 
                            "type": "note", 
                            "channel": 6
                        }
                    ]
                ], 
                [
                    121574, 
                    [
                        {
                            "pitch": 40, 
                            "t0": 121574, 
                            "v": 108, 
                            "dur": 117, 
                            "type": "note", 
                            "channel": 6
                        }
                    ]
                ], 
                [
                    121805, 
                    [
                        {
                            "pitch": 40, 
                            "t0": 121805, 
                            "v": 88, 
                            "dur": 100, 
                            "type": "note", 
                            "channel": 6
                        }
                    ]
                ], 
                [
                    121920, 
                    [
                        {
                            "pitch": 43, 
                            "t0": 121920, 
                            "v": 108, 
                            "dur": 120, 
                            "type": "note", 
                            "channel": 6
                        }
                    ]
                ], 
                [
                    122041, 
                    [
                        {
                            "pitch": 38, 
                            "t0": 122041, 
                            "v": 104, 
                            "dur": 119, 
                            "type": "note", 
                            "channel": 6
                        }
                    ]
                ], 
                [
                    122308, 
                    [
                        {
                            "pitch": 40, 
                            "t0": 122308, 
                            "v": 84, 
                            "dur": 104, 
                            "type": "note", 
                            "channel": 6
                        }
                    ]
                ], 
                [
                    122417, 
                    [
                        {
                            "pitch": 45, 
                            "t0": 122417, 
                            "v": 104, 
                            "dur": 136, 
                            "type": "note", 
                            "channel": 6
                        }
                    ]
                ], 
                [
                    122540, 
                    [
                        {
                            "pitch": 40, 
                            "t0": 122540, 
                            "v": 108, 
                            "dur": 128, 
                            "type": "note", 
                            "channel": 6
                        }
                    ]
                ], 
                [
                    122770, 
                    [
                        {
                            "pitch": 40, 
                            "t0": 122770, 
                            "v": 88, 
                            "dur": 94, 
                            "type": "note", 
                            "channel": 6
                        }
                    ]
                ], 
                [
                    122880, 
                    [
                        {
                            "pitch": 43, 
                            "t0": 122880, 
                            "v": 108, 
                            "dur": 138, 
                            "type": "note", 
                            "channel": 6
                        }
                    ]
                ], 
                [
                    123016, 
                    [
                        {
                            "pitch": 38, 
                            "t0": 123016, 
                            "v": 100, 
                            "dur": 70, 
                            "type": "note", 
                            "channel": 6
                        }
                    ]
                ], 
                [
                    123017, 
                    [
                        {
                            "pitch": 36, 
                            "t0": 123017, 
                            "v": 96, 
                            "dur": 62, 
                            "type": "note", 
                            "channel": 6
                        }
                    ]
                ], 
                [
                    123235, 
                    [
                        {
                            "pitch": 38, 
                            "t0": 123235, 
                            "v": 76, 
                            "dur": 27, 
                            "type": "note", 
                            "channel": 6
                        }, 
                        {
                            "pitch": 40, 
                            "t0": 123235, 
                            "v": 46, 
                            "dur": 122, 
                            "type": "note", 
                            "channel": 6
                        }
                    ]
                ], 
                [
                    123354, 
                    [
                        {
                            "pitch": 45, 
                            "t0": 123354, 
                            "v": 38, 
                            "dur": 128, 
                            "type": "note", 
                            "channel": 6
                        }
                    ]
                ], 
                [
                    123472, 
                    [
                        {
                            "pitch": 40, 
                            "t0": 123472, 
                            "v": 88, 
                            "dur": 151, 
                            "type": "note", 
                            "channel": 6
                        }
                    ]
                ], 
                [
                    123714, 
                    [
                        {
                            "pitch": 40, 
                            "t0": 123714, 
                            "v": 96, 
                            "dur": 104, 
                            "type": "note", 
                            "channel": 6
                        }
                    ]
                ], 
                [
                    123816, 
                    [
                        {
                            "pitch": 43, 
                            "t0": 123816, 
                            "v": 76, 
                            "dur": 128, 
                            "type": "note", 
                            "channel": 6
                        }
                    ]
                ], 
                [
                    123945, 
                    [
                        {
                            "pitch": 38, 
                            "t0": 123945, 
                            "v": 112, 
                            "dur": 102, 
                            "type": "note", 
                            "channel": 6
                        }
                    ]
                ], 
                [
                    124196, 
                    [
                        {
                            "pitch": 40, 
                            "t0": 124196, 
                            "v": 96, 
                            "dur": 101, 
                            "type": "note", 
                            "channel": 6
                        }
                    ]
                ], 
                [
                    124305, 
                    [
                        {
                            "pitch": 45, 
                            "t0": 124305, 
                            "v": 100, 
                            "dur": 122, 
                            "type": "note", 
                            "channel": 6
                        }
                    ]
                ], 
                [
                    124426, 
                    [
                        {
                            "pitch": 40, 
                            "t0": 124426, 
                            "v": 84, 
                            "dur": 119, 
                            "type": "note", 
                            "channel": 6
                        }
                    ]
                ], 
                [
                    124666, 
                    [
                        {
                            "pitch": 40, 
                            "t0": 124666, 
                            "v": 96, 
                            "dur": 98, 
                            "type": "note", 
                            "channel": 6
                        }
                    ]
                ], 
                [
                    124780, 
                    [
                        {
                            "pitch": 43, 
                            "t0": 124780, 
                            "v": 104, 
                            "dur": 130, 
                            "type": "note", 
                            "channel": 6
                        }
                    ]
                ], 
                [
                    124911, 
                    [
                        {
                            "pitch": 38, 
                            "t0": 124911, 
                            "v": 108, 
                            "dur": 113, 
                            "type": "note", 
                            "channel": 6
                        }
                    ]
                ], 
                [
                    125189, 
                    [
                        {
                            "pitch": 40, 
                            "t0": 125189, 
                            "v": 108, 
                            "dur": 104, 
                            "type": "note", 
                            "channel": 6
                        }
                    ]
                ], 
                [
                    125299, 
                    [
                        {
                            "pitch": 45, 
                            "t0": 125299, 
                            "v": 112, 
                            "dur": 110, 
                            "type": "note", 
                            "channel": 6
                        }
                    ]
                ], 
                [
                    125407, 
                    [
                        {
                            "pitch": 40, 
                            "t0": 125407, 
                            "v": 100, 
                            "dur": 119, 
                            "type": "note", 
                            "channel": 6
                        }
                    ]
                ], 
                [
                    125653, 
                    [
                        {
                            "pitch": 40, 
                            "t0": 125653, 
                            "v": 96, 
                            "dur": 94, 
                            "type": "note", 
                            "channel": 6
                        }
                    ]
                ], 
                [
                    125766, 
                    [
                        {
                            "pitch": 43, 
                            "t0": 125766, 
                            "v": 112, 
                            "dur": 113, 
                            "type": "note", 
                            "channel": 6
                        }
                    ]
                ], 
                [
                    125889, 
                    [
                        {
                            "pitch": 38, 
                            "t0": 125889, 
                            "v": 108, 
                            "dur": 126, 
                            "type": "note", 
                            "channel": 6
                        }
                    ]
                ], 
                [
                    126128, 
                    [
                        {
                            "pitch": 40, 
                            "t0": 126128, 
                            "v": 104, 
                            "dur": 97, 
                            "type": "note", 
                            "channel": 6
                        }
                    ]
                ], 
                [
                    126248, 
                    [
                        {
                            "pitch": 45, 
                            "t0": 126248, 
                            "v": 108, 
                            "dur": 112, 
                            "type": "note", 
                            "channel": 6
                        }
                    ]
                ], 
                [
                    126364, 
                    [
                        {
                            "pitch": 40, 
                            "t0": 126364, 
                            "v": 108, 
                            "dur": 116, 
                            "type": "note", 
                            "channel": 6
                        }
                    ]
                ], 
                [
                    126598, 
                    [
                        {
                            "pitch": 40, 
                            "t0": 126598, 
                            "v": 96, 
                            "dur": 85, 
                            "type": "note", 
                            "channel": 6
                        }
                    ]
                ], 
                [
                    126712, 
                    [
                        {
                            "pitch": 43, 
                            "t0": 126712, 
                            "v": 96, 
                            "dur": 122, 
                            "type": "note", 
                            "channel": 6
                        }
                    ]
                ], 
                [
                    126838, 
                    [
                        {
                            "pitch": 38, 
                            "t0": 126838, 
                            "v": 112, 
                            "dur": 131, 
                            "type": "note", 
                            "channel": 6
                        }
                    ]
                ], 
                [
                    127109, 
                    [
                        {
                            "pitch": 40, 
                            "t0": 127109, 
                            "v": 108, 
                            "dur": 97, 
                            "type": "note", 
                            "channel": 6
                        }
                    ]
                ], 
                [
                    127220, 
                    [
                        {
                            "pitch": 45, 
                            "t0": 127220, 
                            "v": 108, 
                            "dur": 120, 
                            "type": "note", 
                            "channel": 6
                        }
                    ]
                ], 
                [
                    127334, 
                    [
                        {
                            "pitch": 40, 
                            "t0": 127334, 
                            "v": 108, 
                            "dur": 126, 
                            "type": "note", 
                            "channel": 6
                        }
                    ]
                ], 
                [
                    127570, 
                    [
                        {
                            "pitch": 40, 
                            "t0": 127570, 
                            "v": 104, 
                            "dur": 98, 
                            "type": "note", 
                            "channel": 6
                        }
                    ]
                ], 
                [
                    127691, 
                    [
                        {
                            "pitch": 43, 
                            "t0": 127691, 
                            "v": 112, 
                            "dur": 107, 
                            "type": "note", 
                            "channel": 6
                        }
                    ]
                ], 
                [
                    127805, 
                    [
                        {
                            "pitch": 38, 
                            "t0": 127805, 
                            "v": 108, 
                            "dur": 113, 
                            "type": "note", 
                            "channel": 6
                        }
                    ]
                ], 
                [
                    128058, 
                    [
                        {
                            "pitch": 40, 
                            "t0": 128058, 
                            "v": 108, 
                            "dur": 93, 
                            "type": "note", 
                            "channel": 6
                        }
                    ]
                ], 
                [
                    128172, 
                    [
                        {
                            "pitch": 45, 
                            "t0": 128172, 
                            "v": 112, 
                            "dur": 112, 
                            "type": "note", 
                            "channel": 6
                        }
                    ]
                ], 
                [
                    128285, 
                    [
                        {
                            "pitch": 40, 
                            "t0": 128285, 
                            "v": 108, 
                            "dur": 83, 
                            "type": "note", 
                            "channel": 6
                        }
                    ]
                ], 
                [
                    128528, 
                    [
                        {
                            "pitch": 38, 
                            "t0": 128528, 
                            "v": 104, 
                            "dur": 69, 
                            "type": "note", 
                            "channel": 6
                        }
                    ]
                ], 
                [
                    128530, 
                    [
                        {
                            "pitch": 40, 
                            "t0": 128530, 
                            "v": 100, 
                            "dur": 65, 
                            "type": "note", 
                            "channel": 6
                        }
                    ]
                ], 
                [
                    128643, 
                    [
                        {
                            "pitch": 43, 
                            "t0": 128643, 
                            "v": 112, 
                            "dur": 109, 
                            "type": "note", 
                            "channel": 6
                        }
                    ]
                ], 
                [
                    128757, 
                    [
                        {
                            "pitch": 38, 
                            "t0": 128757, 
                            "v": 108, 
                            "dur": 111, 
                            "type": "note", 
                            "channel": 6
                        }
                    ]
                ], 
                [
                    129002, 
                    [
                        {
                            "pitch": 40, 
                            "t0": 129002, 
                            "v": 104, 
                            "dur": 90, 
                            "type": "note", 
                            "channel": 6
                        }
                    ]
                ], 
                [
                    129131, 
                    [
                        {
                            "pitch": 45, 
                            "t0": 129131, 
                            "v": 116, 
                            "dur": 105, 
                            "type": "note", 
                            "channel": 6
                        }
                    ]
                ], 
                [
                    129241, 
                    [
                        {
                            "pitch": 40, 
                            "t0": 129241, 
                            "v": 112, 
                            "dur": 126, 
                            "type": "note", 
                            "channel": 6
                        }
                    ]
                ], 
                [
                    129473, 
                    [
                        {
                            "pitch": 40, 
                            "t0": 129473, 
                            "v": 108, 
                            "dur": 79, 
                            "type": "note", 
                            "channel": 6
                        }
                    ]
                ], 
                [
                    129594, 
                    [
                        {
                            "pitch": 43, 
                            "t0": 129594, 
                            "v": 116, 
                            "dur": 109, 
                            "type": "note", 
                            "channel": 6
                        }
                    ]
                ], 
                [
                    129707, 
                    [
                        {
                            "pitch": 38, 
                            "t0": 129707, 
                            "v": 116, 
                            "dur": 127, 
                            "type": "note", 
                            "channel": 6
                        }
                    ]
                ], 
                [
                    129962, 
                    [
                        {
                            "pitch": 40, 
                            "t0": 129962, 
                            "v": 112, 
                            "dur": 81, 
                            "type": "note", 
                            "channel": 6
                        }
                    ]
                ], 
                [
                    130084, 
                    [
                        {
                            "pitch": 45, 
                            "t0": 130084, 
                            "v": 116, 
                            "dur": 107, 
                            "type": "note", 
                            "channel": 6
                        }
                    ]
                ], 
                [
                    130195, 
                    [
                        {
                            "pitch": 40, 
                            "t0": 130195, 
                            "v": 108, 
                            "dur": 113, 
                            "type": "note", 
                            "channel": 6
                        }
                    ]
                ], 
                [
                    130438, 
                    [
                        {
                            "pitch": 40, 
                            "t0": 130438, 
                            "v": 108, 
                            "dur": 70, 
                            "type": "note", 
                            "channel": 6
                        }
                    ]
                ], 
                [
                    130560, 
                    [
                        {
                            "pitch": 43, 
                            "t0": 130560, 
                            "v": 116, 
                            "dur": 116, 
                            "type": "note", 
                            "channel": 6
                        }
                    ]
                ], 
                [
                    130684, 
                    [
                        {
                            "pitch": 38, 
                            "t0": 130684, 
                            "v": 116, 
                            "dur": 125, 
                            "type": "note", 
                            "channel": 6
                        }
                    ]
                ], 
                [
                    130930, 
                    [
                        {
                            "pitch": 40, 
                            "t0": 130930, 
                            "v": 108, 
                            "dur": 91, 
                            "type": "note", 
                            "channel": 6
                        }
                    ]
                ], 
                [
                    131050, 
                    [
                        {
                            "pitch": 45, 
                            "t0": 131050, 
                            "v": 112, 
                            "dur": 109, 
                            "type": "note", 
                            "channel": 6
                        }
                    ]
                ], 
                [
                    131158, 
                    [
                        {
                            "pitch": 40, 
                            "t0": 131158, 
                            "v": 88, 
                            "dur": 117, 
                            "type": "note", 
                            "channel": 6
                        }
                    ]
                ], 
                [
                    131404, 
                    [
                        {
                            "pitch": 40, 
                            "t0": 131404, 
                            "v": 84, 
                            "dur": 79, 
                            "type": "note", 
                            "channel": 6
                        }
                    ]
                ], 
                [
                    131518, 
                    [
                        {
                            "pitch": 43, 
                            "t0": 131518, 
                            "v": 60, 
                            "dur": 102, 
                            "type": "note", 
                            "channel": 6
                        }
                    ]
                ], 
                [
                    131633, 
                    [
                        {
                            "pitch": 38, 
                            "t0": 131633, 
                            "v": 76, 
                            "dur": 122, 
                            "type": "note", 
                            "channel": 6
                        }
                    ]
                ], 
                [
                    131883, 
                    [
                        {
                            "pitch": 40, 
                            "t0": 131883, 
                            "v": 68, 
                            "dur": 92, 
                            "type": "note", 
                            "channel": 6
                        }
                    ]
                ], 
                [
                    131993, 
                    [
                        {
                            "pitch": 45, 
                            "t0": 131993, 
                            "v": 58, 
                            "dur": 117, 
                            "type": "note", 
                            "channel": 6
                        }
                    ]
                ], 
                [
                    132112, 
                    [
                        {
                            "pitch": 40, 
                            "t0": 132112, 
                            "v": 60, 
                            "dur": 82, 
                            "type": "note", 
                            "channel": 6
                        }
                    ]
                ], 
                [
                    132349, 
                    [
                        {
                            "pitch": 40, 
                            "t0": 132349, 
                            "v": 76, 
                            "dur": 70, 
                            "type": "note", 
                            "channel": 6
                        }
                    ]
                ], 
                [
                    132455, 
                    [
                        {
                            "pitch": 43, 
                            "t0": 132455, 
                            "v": 64, 
                            "dur": 100, 
                            "type": "note", 
                            "channel": 6
                        }
                    ]
                ], 
                [
                    132579, 
                    [
                        {
                            "pitch": 38, 
                            "t0": 132579, 
                            "v": 92, 
                            "dur": 82, 
                            "type": "note", 
                            "channel": 6
                        }
                    ]
                ], 
                [
                    132823, 
                    [
                        {
                            "pitch": 38, 
                            "t0": 132823, 
                            "v": 58, 
                            "dur": 58, 
                            "type": "note", 
                            "channel": 6
                        }
                    ]
                ], 
                [
                    132948, 
                    [
                        {
                            "pitch": 45, 
                            "t0": 132948, 
                            "v": 50, 
                            "dur": 110, 
                            "type": "note", 
                            "channel": 6
                        }
                    ]
                ], 
                [
                    133047, 
                    [
                        {
                            "pitch": 40, 
                            "t0": 133047, 
                            "v": 58, 
                            "dur": 670, 
                            "type": "note", 
                            "channel": 6
                        }
                    ]
                ], 
                [
                    133707, 
                    [
                        {
                            "pitch": 43, 
                            "t0": 133707, 
                            "v": 14, 
                            "dur": 177, 
                            "type": "note", 
                            "channel": 6
                        }
                    ]
                ], 
                [
                    133890, 
                    [
                        {
                            "pitch": 40, 
                            "t0": 133890, 
                            "v": 52, 
                            "dur": 200, 
                            "type": "note", 
                            "channel": 6
                        }
                    ]
                ], 
                [
                    134145, 
                    [
                        {
                            "pitch": 40, 
                            "t0": 134145, 
                            "v": 43, 
                            "dur": 613, 
                            "type": "note", 
                            "channel": 6
                        }
                    ]
                ]
            ], 
            "instruments": [
                45
            ], 
            "tMax": 134145, 
            "channels": [
                6
            ], 
            "instrument": 45, 
            "numNotes": 854, 
            "type": "TrackObj"
        }, 
        {
            "trackName": "Voices", 
            "seq": [
                [
                    0, 
                    [
                        {
                            "instrument": 52, 
                            "type": "programChange", 
                            "t0": 0, 
                            "channel": 7
                        }, 
                        {
                            "instrument": 52, 
                            "type": "programChange", 
                            "t0": 0, 
                            "channel": 7
                        }
                    ]
                ], 
                [
                    15979, 
                    [
                        {
                            "pitch": 45, 
                            "t0": 15979, 
                            "v": 56, 
                            "dur": 394, 
                            "type": "note", 
                            "channel": 7
                        }
                    ]
                ], 
                [
                    15980, 
                    [
                        {
                            "pitch": 52, 
                            "t0": 15980, 
                            "v": 64, 
                            "dur": 282, 
                            "type": "note", 
                            "channel": 7
                        }, 
                        {
                            "pitch": 48, 
                            "t0": 15980, 
                            "v": 72, 
                            "dur": 284, 
                            "type": "note", 
                            "channel": 7
                        }
                    ]
                ], 
                [
                    15987, 
                    [
                        {
                            "pitch": 50, 
                            "t0": 15987, 
                            "v": 60, 
                            "dur": 27, 
                            "type": "note", 
                            "channel": 7
                        }
                    ]
                ], 
                [
                    16293, 
                    [
                        {
                            "pitch": 50, 
                            "t0": 16293, 
                            "v": 108, 
                            "dur": 59, 
                            "type": "note", 
                            "channel": 7
                        }
                    ]
                ], 
                [
                    16296, 
                    [
                        {
                            "pitch": 53, 
                            "t0": 16296, 
                            "v": 116, 
                            "dur": 52, 
                            "type": "note", 
                            "channel": 7
                        }
                    ]
                ], 
                [
                    16937, 
                    [
                        {
                            "pitch": 53, 
                            "t0": 16937, 
                            "v": 112, 
                            "dur": 292, 
                            "type": "note", 
                            "channel": 7
                        }
                    ]
                ], 
                [
                    16938, 
                    [
                        {
                            "pitch": 50, 
                            "t0": 16938, 
                            "v": 112, 
                            "dur": 293, 
                            "type": "note", 
                            "channel": 7
                        }, 
                        {
                            "pitch": 45, 
                            "t0": 16938, 
                            "v": 108, 
                            "dur": 355, 
                            "type": "note", 
                            "channel": 7
                        }
                    ]
                ], 
                [
                    17256, 
                    [
                        {
                            "pitch": 48, 
                            "t0": 17256, 
                            "v": 116, 
                            "dur": 48, 
                            "type": "note", 
                            "channel": 7
                        }
                    ]
                ], 
                [
                    17258, 
                    [
                        {
                            "pitch": 52, 
                            "t0": 17258, 
                            "v": 112, 
                            "dur": 49, 
                            "type": "note", 
                            "channel": 7
                        }
                    ]
                ], 
                [
                    17261, 
                    [
                        {
                            "pitch": 50, 
                            "t0": 17261, 
                            "v": 108, 
                            "dur": 26, 
                            "type": "note", 
                            "channel": 7
                        }
                    ]
                ], 
                [
                    17873, 
                    [
                        {
                            "pitch": 48, 
                            "t0": 17873, 
                            "v": 120, 
                            "dur": 337, 
                            "type": "note", 
                            "channel": 7
                        }
                    ]
                ], 
                [
                    17874, 
                    [
                        {
                            "pitch": 52, 
                            "t0": 17874, 
                            "v": 120, 
                            "dur": 332, 
                            "type": "note", 
                            "channel": 7
                        }, 
                        {
                            "pitch": 45, 
                            "t0": 17874, 
                            "v": 104, 
                            "dur": 417, 
                            "type": "note", 
                            "channel": 7
                        }
                    ]
                ], 
                [
                    18226, 
                    [
                        {
                            "pitch": 50, 
                            "t0": 18226, 
                            "v": 108, 
                            "dur": 45, 
                            "type": "note", 
                            "channel": 7
                        }
                    ]
                ], 
                [
                    18229, 
                    [
                        {
                            "pitch": 53, 
                            "t0": 18229, 
                            "v": 116, 
                            "dur": 44, 
                            "type": "note", 
                            "channel": 7
                        }
                    ]
                ], 
                [
                    18840, 
                    [
                        {
                            "pitch": 50, 
                            "t0": 18840, 
                            "v": 116, 
                            "dur": 311, 
                            "type": "note", 
                            "channel": 7
                        }
                    ]
                ], 
                [
                    18842, 
                    [
                        {
                            "pitch": 53, 
                            "t0": 18842, 
                            "v": 120, 
                            "dur": 307, 
                            "type": "note", 
                            "channel": 7
                        }, 
                        {
                            "pitch": 45, 
                            "t0": 18842, 
                            "v": 108, 
                            "dur": 373, 
                            "type": "note", 
                            "channel": 7
                        }
                    ]
                ], 
                [
                    19176, 
                    [
                        {
                            "pitch": 48, 
                            "t0": 19176, 
                            "v": 104, 
                            "dur": 46, 
                            "type": "note", 
                            "channel": 7
                        }
                    ]
                ], 
                [
                    19179, 
                    [
                        {
                            "pitch": 52, 
                            "t0": 19179, 
                            "v": 116, 
                            "dur": 47, 
                            "type": "note", 
                            "channel": 7
                        }
                    ]
                ], 
                [
                    19182, 
                    [
                        {
                            "pitch": 50, 
                            "t0": 19182, 
                            "v": 108, 
                            "dur": 13, 
                            "type": "note", 
                            "channel": 7
                        }
                    ]
                ], 
                [
                    19795, 
                    [
                        {
                            "pitch": 52, 
                            "t0": 19795, 
                            "v": 120, 
                            "dur": 337, 
                            "type": "note", 
                            "channel": 7
                        }, 
                        {
                            "pitch": 45, 
                            "t0": 19795, 
                            "v": 112, 
                            "dur": 399, 
                            "type": "note", 
                            "channel": 7
                        }
                    ]
                ], 
                [
                    19796, 
                    [
                        {
                            "pitch": 48, 
                            "t0": 19796, 
                            "v": 100, 
                            "dur": 340, 
                            "type": "note", 
                            "channel": 7
                        }
                    ]
                ], 
                [
                    19797, 
                    [
                        {
                            "pitch": 50, 
                            "t0": 19797, 
                            "v": 96, 
                            "dur": 66, 
                            "type": "note", 
                            "channel": 7
                        }
                    ]
                ], 
                [
                    20154, 
                    [
                        {
                            "pitch": 50, 
                            "t0": 20154, 
                            "v": 104, 
                            "dur": 53, 
                            "type": "note", 
                            "channel": 7
                        }
                    ]
                ], 
                [
                    20157, 
                    [
                        {
                            "pitch": 53, 
                            "t0": 20157, 
                            "v": 120, 
                            "dur": 51, 
                            "type": "note", 
                            "channel": 7
                        }
                    ]
                ], 
                [
                    20765, 
                    [
                        {
                            "pitch": 53, 
                            "t0": 20765, 
                            "v": 120, 
                            "dur": 319, 
                            "type": "note", 
                            "channel": 7
                        }, 
                        {
                            "pitch": 50, 
                            "t0": 20765, 
                            "v": 112, 
                            "dur": 322, 
                            "type": "note", 
                            "channel": 7
                        }
                    ]
                ], 
                [
                    20766, 
                    [
                        {
                            "pitch": 45, 
                            "t0": 20766, 
                            "v": 108, 
                            "dur": 457, 
                            "type": "note", 
                            "channel": 7
                        }
                    ]
                ], 
                [
                    21110, 
                    [
                        {
                            "pitch": 48, 
                            "t0": 21110, 
                            "v": 108, 
                            "dur": 56, 
                            "type": "note", 
                            "channel": 7
                        }
                    ]
                ], 
                [
                    21113, 
                    [
                        {
                            "pitch": 52, 
                            "t0": 21113, 
                            "v": 112, 
                            "dur": 56, 
                            "type": "note", 
                            "channel": 7
                        }
                    ]
                ], 
                [
                    21738, 
                    [
                        {
                            "pitch": 48, 
                            "t0": 21738, 
                            "v": 96, 
                            "dur": 318, 
                            "type": "note", 
                            "channel": 7
                        }
                    ]
                ], 
                [
                    21740, 
                    [
                        {
                            "pitch": 52, 
                            "t0": 21740, 
                            "v": 108, 
                            "dur": 312, 
                            "type": "note", 
                            "channel": 7
                        }
                    ]
                ], 
                [
                    21741, 
                    [
                        {
                            "pitch": 45, 
                            "t0": 21741, 
                            "v": 112, 
                            "dur": 373, 
                            "type": "note", 
                            "channel": 7
                        }
                    ]
                ], 
                [
                    22077, 
                    [
                        {
                            "pitch": 50, 
                            "t0": 22077, 
                            "v": 108, 
                            "dur": 46, 
                            "type": "note", 
                            "channel": 7
                        }
                    ]
                ], 
                [
                    22079, 
                    [
                        {
                            "pitch": 53, 
                            "t0": 22079, 
                            "v": 120, 
                            "dur": 46, 
                            "type": "note", 
                            "channel": 7
                        }
                    ]
                ], 
                [
                    22677, 
                    [
                        {
                            "pitch": 50, 
                            "t0": 22677, 
                            "v": 112, 
                            "dur": 334, 
                            "type": "note", 
                            "channel": 7
                        }, 
                        {
                            "pitch": 45, 
                            "t0": 22677, 
                            "v": 76, 
                            "dur": 404, 
                            "type": "note", 
                            "channel": 7
                        }
                    ]
                ], 
                [
                    22678, 
                    [
                        {
                            "pitch": 53, 
                            "t0": 22678, 
                            "v": 112, 
                            "dur": 331, 
                            "type": "note", 
                            "channel": 7
                        }
                    ]
                ], 
                [
                    22681, 
                    [
                        {
                            "pitch": 52, 
                            "t0": 22681, 
                            "v": 112, 
                            "dur": 85, 
                            "type": "note", 
                            "channel": 7
                        }
                    ]
                ], 
                [
                    23040, 
                    [
                        {
                            "pitch": 48, 
                            "t0": 23040, 
                            "v": 112, 
                            "dur": 47, 
                            "type": "note", 
                            "channel": 7
                        }, 
                        {
                            "pitch": 52, 
                            "t0": 23040, 
                            "v": 120, 
                            "dur": 53, 
                            "type": "note", 
                            "channel": 7
                        }
                    ]
                ], 
                [
                    23639, 
                    [
                        {
                            "pitch": 48, 
                            "t0": 23639, 
                            "v": 112, 
                            "dur": 327, 
                            "type": "note", 
                            "channel": 7
                        }
                    ]
                ], 
                [
                    23640, 
                    [
                        {
                            "pitch": 52, 
                            "t0": 23640, 
                            "v": 116, 
                            "dur": 329, 
                            "type": "note", 
                            "channel": 7
                        }, 
                        {
                            "pitch": 45, 
                            "t0": 23640, 
                            "v": 100, 
                            "dur": 392, 
                            "type": "note", 
                            "channel": 7
                        }
                    ]
                ], 
                [
                    23989, 
                    [
                        {
                            "pitch": 50, 
                            "t0": 23989, 
                            "v": 100, 
                            "dur": 44, 
                            "type": "note", 
                            "channel": 7
                        }
                    ]
                ], 
                [
                    23991, 
                    [
                        {
                            "pitch": 53, 
                            "t0": 23991, 
                            "v": 120, 
                            "dur": 45, 
                            "type": "note", 
                            "channel": 7
                        }
                    ]
                ], 
                [
                    24586, 
                    [
                        {
                            "pitch": 53, 
                            "t0": 24586, 
                            "v": 116, 
                            "dur": 325, 
                            "type": "note", 
                            "channel": 7
                        }, 
                        {
                            "pitch": 50, 
                            "t0": 24586, 
                            "v": 108, 
                            "dur": 327, 
                            "type": "note", 
                            "channel": 7
                        }
                    ]
                ], 
                [
                    24588, 
                    [
                        {
                            "pitch": 45, 
                            "t0": 24588, 
                            "v": 96, 
                            "dur": 430, 
                            "type": "note", 
                            "channel": 7
                        }
                    ]
                ], 
                [
                    24933, 
                    [
                        {
                            "pitch": 48, 
                            "t0": 24933, 
                            "v": 96, 
                            "dur": 58, 
                            "type": "note", 
                            "channel": 7
                        }
                    ]
                ], 
                [
                    24934, 
                    [
                        {
                            "pitch": 52, 
                            "t0": 24934, 
                            "v": 112, 
                            "dur": 58, 
                            "type": "note", 
                            "channel": 7
                        }
                    ]
                ], 
                [
                    25573, 
                    [
                        {
                            "pitch": 48, 
                            "t0": 25573, 
                            "v": 108, 
                            "dur": 330, 
                            "type": "note", 
                            "channel": 7
                        }
                    ]
                ], 
                [
                    25574, 
                    [
                        {
                            "pitch": 52, 
                            "t0": 25574, 
                            "v": 116, 
                            "dur": 327, 
                            "type": "note", 
                            "channel": 7
                        }
                    ]
                ], 
                [
                    25575, 
                    [
                        {
                            "pitch": 45, 
                            "t0": 25575, 
                            "v": 108, 
                            "dur": 425, 
                            "type": "note", 
                            "channel": 7
                        }
                    ]
                ], 
                [
                    25923, 
                    [
                        {
                            "pitch": 50, 
                            "t0": 25923, 
                            "v": 88, 
                            "dur": 51, 
                            "type": "note", 
                            "channel": 7
                        }
                    ]
                ], 
                [
                    25926, 
                    [
                        {
                            "pitch": 53, 
                            "t0": 25926, 
                            "v": 120, 
                            "dur": 50, 
                            "type": "note", 
                            "channel": 7
                        }
                    ]
                ], 
                [
                    26521, 
                    [
                        {
                            "pitch": 50, 
                            "t0": 26521, 
                            "v": 100, 
                            "dur": 327, 
                            "type": "note", 
                            "channel": 7
                        }
                    ]
                ], 
                [
                    26522, 
                    [
                        {
                            "pitch": 53, 
                            "t0": 26522, 
                            "v": 116, 
                            "dur": 320, 
                            "type": "note", 
                            "channel": 7
                        }
                    ]
                ], 
                [
                    26523, 
                    [
                        {
                            "pitch": 45, 
                            "t0": 26523, 
                            "v": 92, 
                            "dur": 383, 
                            "type": "note", 
                            "channel": 7
                        }
                    ]
                ], 
                [
                    26530, 
                    [
                        {
                            "pitch": 47, 
                            "t0": 26530, 
                            "v": 88, 
                            "dur": 67, 
                            "type": "note", 
                            "channel": 7
                        }
                    ]
                ], 
                [
                    26869, 
                    [
                        {
                            "pitch": 48, 
                            "t0": 26869, 
                            "v": 108, 
                            "dur": 48, 
                            "type": "note", 
                            "channel": 7
                        }
                    ]
                ], 
                [
                    26871, 
                    [
                        {
                            "pitch": 52, 
                            "t0": 26871, 
                            "v": 124, 
                            "dur": 50, 
                            "type": "note", 
                            "channel": 7
                        }
                    ]
                ], 
                [
                    27474, 
                    [
                        {
                            "pitch": 48, 
                            "t0": 27474, 
                            "v": 96, 
                            "dur": 339, 
                            "type": "note", 
                            "channel": 7
                        }, 
                        {
                            "pitch": 45, 
                            "t0": 27474, 
                            "v": 108, 
                            "dur": 431, 
                            "type": "note", 
                            "channel": 7
                        }
                    ]
                ], 
                [
                    27475, 
                    [
                        {
                            "pitch": 52, 
                            "t0": 27475, 
                            "v": 116, 
                            "dur": 336, 
                            "type": "note", 
                            "channel": 7
                        }
                    ]
                ], 
                [
                    27479, 
                    [
                        {
                            "pitch": 53, 
                            "t0": 27479, 
                            "v": 100, 
                            "dur": 41, 
                            "type": "note", 
                            "channel": 7
                        }
                    ]
                ], 
                [
                    27838, 
                    [
                        {
                            "pitch": 50, 
                            "t0": 27838, 
                            "v": 112, 
                            "dur": 47, 
                            "type": "note", 
                            "channel": 7
                        }
                    ]
                ], 
                [
                    27840, 
                    [
                        {
                            "pitch": 53, 
                            "t0": 27840, 
                            "v": 124, 
                            "dur": 49, 
                            "type": "note", 
                            "channel": 7
                        }
                    ]
                ], 
                [
                    28463, 
                    [
                        {
                            "pitch": 53, 
                            "t0": 28463, 
                            "v": 120, 
                            "dur": 320, 
                            "type": "note", 
                            "channel": 7
                        }, 
                        {
                            "pitch": 50, 
                            "t0": 28463, 
                            "v": 104, 
                            "dur": 323, 
                            "type": "note", 
                            "channel": 7
                        }
                    ]
                ], 
                [
                    28464, 
                    [
                        {
                            "pitch": 45, 
                            "t0": 28464, 
                            "v": 108, 
                            "dur": 451, 
                            "type": "note", 
                            "channel": 7
                        }
                    ]
                ], 
                [
                    28815, 
                    [
                        {
                            "pitch": 52, 
                            "t0": 28815, 
                            "v": 116, 
                            "dur": 58, 
                            "type": "note", 
                            "channel": 7
                        }, 
                        {
                            "pitch": 48, 
                            "t0": 28815, 
                            "v": 104, 
                            "dur": 64, 
                            "type": "note", 
                            "channel": 7
                        }
                    ]
                ], 
                [
                    29410, 
                    [
                        {
                            "pitch": 48, 
                            "t0": 29410, 
                            "v": 104, 
                            "dur": 316, 
                            "type": "note", 
                            "channel": 7
                        }
                    ]
                ], 
                [
                    29411, 
                    [
                        {
                            "pitch": 52, 
                            "t0": 29411, 
                            "v": 108, 
                            "dur": 313, 
                            "type": "note", 
                            "channel": 7
                        }
                    ]
                ], 
                [
                    29413, 
                    [
                        {
                            "pitch": 45, 
                            "t0": 29413, 
                            "v": 108, 
                            "dur": 380, 
                            "type": "note", 
                            "channel": 7
                        }
                    ]
                ], 
                [
                    29748, 
                    [
                        {
                            "pitch": 50, 
                            "t0": 29748, 
                            "v": 108, 
                            "dur": 51, 
                            "type": "note", 
                            "channel": 7
                        }
                    ]
                ], 
                [
                    29750, 
                    [
                        {
                            "pitch": 53, 
                            "t0": 29750, 
                            "v": 108, 
                            "dur": 53, 
                            "type": "note", 
                            "channel": 7
                        }
                    ]
                ], 
                [
                    30369, 
                    [
                        {
                            "pitch": 50, 
                            "t0": 30369, 
                            "v": 116, 
                            "dur": 308, 
                            "type": "note", 
                            "channel": 7
                        }
                    ]
                ], 
                [
                    30370, 
                    [
                        {
                            "pitch": 53, 
                            "t0": 30370, 
                            "v": 116, 
                            "dur": 305, 
                            "type": "note", 
                            "channel": 7
                        }
                    ]
                ], 
                [
                    30371, 
                    [
                        {
                            "pitch": 45, 
                            "t0": 30371, 
                            "v": 112, 
                            "dur": 401, 
                            "type": "note", 
                            "channel": 7
                        }
                    ]
                ], 
                [
                    30703, 
                    [
                        {
                            "pitch": 48, 
                            "t0": 30703, 
                            "v": 100, 
                            "dur": 51, 
                            "type": "note", 
                            "channel": 7
                        }
                    ]
                ], 
                [
                    30704, 
                    [
                        {
                            "pitch": 52, 
                            "t0": 30704, 
                            "v": 116, 
                            "dur": 53, 
                            "type": "note", 
                            "channel": 7
                        }
                    ]
                ], 
                [
                    31314, 
                    [
                        {
                            "pitch": 52, 
                            "t0": 31314, 
                            "v": 116, 
                            "dur": 349, 
                            "type": "note", 
                            "channel": 7
                        }, 
                        {
                            "pitch": 48, 
                            "t0": 31314, 
                            "v": 112, 
                            "dur": 351, 
                            "type": "note", 
                            "channel": 7
                        }
                    ]
                ], 
                [
                    31318, 
                    [
                        {
                            "pitch": 45, 
                            "t0": 31318, 
                            "v": 108, 
                            "dur": 472, 
                            "type": "note", 
                            "channel": 7
                        }
                    ]
                ], 
                [
                    31683, 
                    [
                        {
                            "pitch": 50, 
                            "t0": 31683, 
                            "v": 100, 
                            "dur": 59, 
                            "type": "note", 
                            "channel": 7
                        }
                    ]
                ], 
                [
                    31686, 
                    [
                        {
                            "pitch": 53, 
                            "t0": 31686, 
                            "v": 116, 
                            "dur": 58, 
                            "type": "note", 
                            "channel": 7
                        }
                    ]
                ], 
                [
                    32275, 
                    [
                        {
                            "pitch": 50, 
                            "t0": 32275, 
                            "v": 108, 
                            "dur": 326, 
                            "type": "note", 
                            "channel": 7
                        }, 
                        {
                            "pitch": 53, 
                            "t0": 32275, 
                            "v": 124, 
                            "dur": 326, 
                            "type": "note", 
                            "channel": 7
                        }
                    ]
                ], 
                [
                    32276, 
                    [
                        {
                            "pitch": 45, 
                            "t0": 32276, 
                            "v": 108, 
                            "dur": 452, 
                            "type": "note", 
                            "channel": 7
                        }
                    ]
                ], 
                [
                    32622, 
                    [
                        {
                            "pitch": 48, 
                            "t0": 32622, 
                            "v": 104, 
                            "dur": 52, 
                            "type": "note", 
                            "channel": 7
                        }
                    ]
                ], 
                [
                    32625, 
                    [
                        {
                            "pitch": 52, 
                            "t0": 32625, 
                            "v": 116, 
                            "dur": 52, 
                            "type": "note", 
                            "channel": 7
                        }
                    ]
                ], 
                [
                    33240, 
                    [
                        {
                            "pitch": 48, 
                            "t0": 33240, 
                            "v": 116, 
                            "dur": 331, 
                            "type": "note", 
                            "channel": 7
                        }
                    ]
                ], 
                [
                    33241, 
                    [
                        {
                            "pitch": 52, 
                            "t0": 33241, 
                            "v": 116, 
                            "dur": 328, 
                            "type": "note", 
                            "channel": 7
                        }
                    ]
                ], 
                [
                    33243, 
                    [
                        {
                            "pitch": 45, 
                            "t0": 33243, 
                            "v": 108, 
                            "dur": 473, 
                            "type": "note", 
                            "channel": 7
                        }
                    ]
                ], 
                [
                    33588, 
                    [
                        {
                            "pitch": 50, 
                            "t0": 33588, 
                            "v": 92, 
                            "dur": 58, 
                            "type": "note", 
                            "channel": 7
                        }
                    ]
                ], 
                [
                    33590, 
                    [
                        {
                            "pitch": 53, 
                            "t0": 33590, 
                            "v": 116, 
                            "dur": 56, 
                            "type": "note", 
                            "channel": 7
                        }
                    ]
                ], 
                [
                    34206, 
                    [
                        {
                            "pitch": 53, 
                            "t0": 34206, 
                            "v": 116, 
                            "dur": 337, 
                            "type": "note", 
                            "channel": 7
                        }, 
                        {
                            "pitch": 50, 
                            "t0": 34206, 
                            "v": 112, 
                            "dur": 340, 
                            "type": "note", 
                            "channel": 7
                        }
                    ]
                ], 
                [
                    34207, 
                    [
                        {
                            "pitch": 45, 
                            "t0": 34207, 
                            "v": 108, 
                            "dur": 443, 
                            "type": "note", 
                            "channel": 7
                        }
                    ]
                ], 
                [
                    34566, 
                    [
                        {
                            "pitch": 48, 
                            "t0": 34566, 
                            "v": 104, 
                            "dur": 59, 
                            "type": "note", 
                            "channel": 7
                        }
                    ]
                ], 
                [
                    34568, 
                    [
                        {
                            "pitch": 52, 
                            "t0": 34568, 
                            "v": 120, 
                            "dur": 60, 
                            "type": "note", 
                            "channel": 7
                        }
                    ]
                ], 
                [
                    35153, 
                    [
                        {
                            "pitch": 52, 
                            "t0": 35153, 
                            "v": 108, 
                            "dur": 347, 
                            "type": "note", 
                            "channel": 7
                        }, 
                        {
                            "pitch": 48, 
                            "t0": 35153, 
                            "v": 100, 
                            "dur": 350, 
                            "type": "note", 
                            "channel": 7
                        }
                    ]
                ], 
                [
                    35155, 
                    [
                        {
                            "pitch": 45, 
                            "t0": 35155, 
                            "v": 112, 
                            "dur": 465, 
                            "type": "note", 
                            "channel": 7
                        }
                    ]
                ], 
                [
                    35525, 
                    [
                        {
                            "pitch": 50, 
                            "t0": 35525, 
                            "v": 104, 
                            "dur": 56, 
                            "type": "note", 
                            "channel": 7
                        }
                    ]
                ], 
                [
                    35527, 
                    [
                        {
                            "pitch": 53, 
                            "t0": 35527, 
                            "v": 116, 
                            "dur": 56, 
                            "type": "note", 
                            "channel": 7
                        }
                    ]
                ], 
                [
                    36139, 
                    [
                        {
                            "pitch": 50, 
                            "t0": 36139, 
                            "v": 112, 
                            "dur": 332, 
                            "type": "note", 
                            "channel": 7
                        }
                    ]
                ], 
                [
                    36140, 
                    [
                        {
                            "pitch": 53, 
                            "t0": 36140, 
                            "v": 120, 
                            "dur": 328, 
                            "type": "note", 
                            "channel": 7
                        }
                    ]
                ], 
                [
                    36141, 
                    [
                        {
                            "pitch": 45, 
                            "t0": 36141, 
                            "v": 104, 
                            "dur": 421, 
                            "type": "note", 
                            "channel": 7
                        }
                    ]
                ], 
                [
                    36493, 
                    [
                        {
                            "pitch": 48, 
                            "t0": 36493, 
                            "v": 116, 
                            "dur": 50, 
                            "type": "note", 
                            "channel": 7
                        }
                    ]
                ], 
                [
                    36495, 
                    [
                        {
                            "pitch": 52, 
                            "t0": 36495, 
                            "v": 120, 
                            "dur": 51, 
                            "type": "note", 
                            "channel": 7
                        }
                    ]
                ], 
                [
                    37089, 
                    [
                        {
                            "pitch": 48, 
                            "t0": 37089, 
                            "v": 96, 
                            "dur": 327, 
                            "type": "note", 
                            "channel": 7
                        }
                    ]
                ], 
                [
                    37090, 
                    [
                        {
                            "pitch": 52, 
                            "t0": 37090, 
                            "v": 100, 
                            "dur": 322, 
                            "type": "note", 
                            "channel": 7
                        }
                    ]
                ], 
                [
                    37092, 
                    [
                        {
                            "pitch": 45, 
                            "t0": 37092, 
                            "v": 112, 
                            "dur": 430, 
                            "type": "note", 
                            "channel": 7
                        }
                    ]
                ], 
                [
                    37434, 
                    [
                        {
                            "pitch": 50, 
                            "t0": 37434, 
                            "v": 96, 
                            "dur": 64, 
                            "type": "note", 
                            "channel": 7
                        }
                    ]
                ], 
                [
                    37436, 
                    [
                        {
                            "pitch": 53, 
                            "t0": 37436, 
                            "v": 116, 
                            "dur": 55, 
                            "type": "note", 
                            "channel": 7
                        }
                    ]
                ], 
                [
                    38033, 
                    [
                        {
                            "pitch": 50, 
                            "t0": 38033, 
                            "v": 112, 
                            "dur": 340, 
                            "type": "note", 
                            "channel": 7
                        }
                    ]
                ], 
                [
                    38034, 
                    [
                        {
                            "pitch": 53, 
                            "t0": 38034, 
                            "v": 124, 
                            "dur": 333, 
                            "type": "note", 
                            "channel": 7
                        }, 
                        {
                            "pitch": 45, 
                            "t0": 38034, 
                            "v": 116, 
                            "dur": 522, 
                            "type": "note", 
                            "channel": 7
                        }
                    ]
                ], 
                [
                    38397, 
                    [
                        {
                            "pitch": 48, 
                            "t0": 38397, 
                            "v": 108, 
                            "dur": 70, 
                            "type": "note", 
                            "channel": 7
                        }
                    ]
                ], 
                [
                    38399, 
                    [
                        {
                            "pitch": 52, 
                            "t0": 38399, 
                            "v": 116, 
                            "dur": 61, 
                            "type": "note", 
                            "channel": 7
                        }
                    ]
                ], 
                [
                    39000, 
                    [
                        {
                            "pitch": 48, 
                            "t0": 39000, 
                            "v": 116, 
                            "dur": 344, 
                            "type": "note", 
                            "channel": 7
                        }
                    ]
                ], 
                [
                    39001, 
                    [
                        {
                            "pitch": 52, 
                            "t0": 39001, 
                            "v": 120, 
                            "dur": 340, 
                            "type": "note", 
                            "channel": 7
                        }
                    ]
                ], 
                [
                    39002, 
                    [
                        {
                            "pitch": 45, 
                            "t0": 39002, 
                            "v": 112, 
                            "dur": 455, 
                            "type": "note", 
                            "channel": 7
                        }
                    ]
                ], 
                [
                    39367, 
                    [
                        {
                            "pitch": 50, 
                            "t0": 39367, 
                            "v": 112, 
                            "dur": 55, 
                            "type": "note", 
                            "channel": 7
                        }
                    ]
                ], 
                [
                    39368, 
                    [
                        {
                            "pitch": 53, 
                            "t0": 39368, 
                            "v": 120, 
                            "dur": 55, 
                            "type": "note", 
                            "channel": 7
                        }
                    ]
                ], 
                [
                    39968, 
                    [
                        {
                            "pitch": 53, 
                            "t0": 39968, 
                            "v": 120, 
                            "dur": 316, 
                            "type": "note", 
                            "channel": 7
                        }
                    ]
                ], 
                [
                    39969, 
                    [
                        {
                            "pitch": 50, 
                            "t0": 39969, 
                            "v": 108, 
                            "dur": 322, 
                            "type": "note", 
                            "channel": 7
                        }
                    ]
                ], 
                [
                    39971, 
                    [
                        {
                            "pitch": 45, 
                            "t0": 39971, 
                            "v": 112, 
                            "dur": 445, 
                            "type": "note", 
                            "channel": 7
                        }
                    ]
                ], 
                [
                    40314, 
                    [
                        {
                            "pitch": 52, 
                            "t0": 40314, 
                            "v": 116, 
                            "dur": 64, 
                            "type": "note", 
                            "channel": 7
                        }, 
                        {
                            "pitch": 48, 
                            "t0": 40314, 
                            "v": 112, 
                            "dur": 67, 
                            "type": "note", 
                            "channel": 7
                        }
                    ]
                ], 
                [
                    40916, 
                    [
                        {
                            "pitch": 48, 
                            "t0": 40916, 
                            "v": 108, 
                            "dur": 354, 
                            "type": "note", 
                            "channel": 7
                        }
                    ]
                ], 
                [
                    40918, 
                    [
                        {
                            "pitch": 52, 
                            "t0": 40918, 
                            "v": 104, 
                            "dur": 352, 
                            "type": "note", 
                            "channel": 7
                        }, 
                        {
                            "pitch": 45, 
                            "t0": 40918, 
                            "v": 108, 
                            "dur": 411, 
                            "type": "note", 
                            "channel": 7
                        }
                    ]
                ], 
                [
                    41291, 
                    [
                        {
                            "pitch": 50, 
                            "t0": 41291, 
                            "v": 116, 
                            "dur": 52, 
                            "type": "note", 
                            "channel": 7
                        }
                    ]
                ], 
                [
                    41293, 
                    [
                        {
                            "pitch": 53, 
                            "t0": 41293, 
                            "v": 120, 
                            "dur": 54, 
                            "type": "note", 
                            "channel": 7
                        }
                    ]
                ], 
                [
                    41892, 
                    [
                        {
                            "pitch": 53, 
                            "t0": 41892, 
                            "v": 112, 
                            "dur": 321, 
                            "type": "note", 
                            "channel": 7
                        }, 
                        {
                            "pitch": 50, 
                            "t0": 41892, 
                            "v": 116, 
                            "dur": 326, 
                            "type": "note", 
                            "channel": 7
                        }
                    ]
                ], 
                [
                    41893, 
                    [
                        {
                            "pitch": 45, 
                            "t0": 41893, 
                            "v": 108, 
                            "dur": 423, 
                            "type": "note", 
                            "channel": 7
                        }
                    ]
                ], 
                [
                    42242, 
                    [
                        {
                            "pitch": 48, 
                            "t0": 42242, 
                            "v": 104, 
                            "dur": 52, 
                            "type": "note", 
                            "channel": 7
                        }
                    ]
                ], 
                [
                    42243, 
                    [
                        {
                            "pitch": 52, 
                            "t0": 42243, 
                            "v": 120, 
                            "dur": 55, 
                            "type": "note", 
                            "channel": 7
                        }
                    ]
                ], 
                [
                    42856, 
                    [
                        {
                            "pitch": 52, 
                            "t0": 42856, 
                            "v": 116, 
                            "dur": 317, 
                            "type": "note", 
                            "channel": 7
                        }, 
                        {
                            "pitch": 48, 
                            "t0": 42856, 
                            "v": 100, 
                            "dur": 319, 
                            "type": "note", 
                            "channel": 7
                        }
                    ]
                ], 
                [
                    42860, 
                    [
                        {
                            "pitch": 45, 
                            "t0": 42860, 
                            "v": 104, 
                            "dur": 409, 
                            "type": "note", 
                            "channel": 7
                        }
                    ]
                ], 
                [
                    42864, 
                    [
                        {
                            "pitch": 47, 
                            "t0": 42864, 
                            "v": 104, 
                            "dur": 32, 
                            "type": "note", 
                            "channel": 7
                        }
                    ]
                ], 
                [
                    43202, 
                    [
                        {
                            "pitch": 50, 
                            "t0": 43202, 
                            "v": 96, 
                            "dur": 53, 
                            "type": "note", 
                            "channel": 7
                        }
                    ]
                ], 
                [
                    43203, 
                    [
                        {
                            "pitch": 53, 
                            "t0": 43203, 
                            "v": 112, 
                            "dur": 52, 
                            "type": "note", 
                            "channel": 7
                        }
                    ]
                ], 
                [
                    43807, 
                    [
                        {
                            "pitch": 53, 
                            "t0": 43807, 
                            "v": 108, 
                            "dur": 324, 
                            "type": "note", 
                            "channel": 7
                        }, 
                        {
                            "pitch": 50, 
                            "t0": 43807, 
                            "v": 112, 
                            "dur": 328, 
                            "type": "note", 
                            "channel": 7
                        }
                    ]
                ], 
                [
                    43808, 
                    [
                        {
                            "pitch": 45, 
                            "t0": 43808, 
                            "v": 116, 
                            "dur": 441, 
                            "type": "note", 
                            "channel": 7
                        }
                    ]
                ], 
                [
                    44155, 
                    [
                        {
                            "pitch": 48, 
                            "t0": 44155, 
                            "v": 104, 
                            "dur": 67, 
                            "type": "note", 
                            "channel": 7
                        }
                    ]
                ], 
                [
                    44157, 
                    [
                        {
                            "pitch": 52, 
                            "t0": 44157, 
                            "v": 116, 
                            "dur": 62, 
                            "type": "note", 
                            "channel": 7
                        }
                    ]
                ], 
                [
                    44749, 
                    [
                        {
                            "pitch": 48, 
                            "t0": 44749, 
                            "v": 112, 
                            "dur": 351, 
                            "type": "note", 
                            "channel": 7
                        }, 
                        {
                            "pitch": 52, 
                            "t0": 44749, 
                            "v": 120, 
                            "dur": 354, 
                            "type": "note", 
                            "channel": 7
                        }
                    ]
                ], 
                [
                    44752, 
                    [
                        {
                            "pitch": 45, 
                            "t0": 44752, 
                            "v": 88, 
                            "dur": 430, 
                            "type": "note", 
                            "channel": 7
                        }
                    ]
                ], 
                [
                    45120, 
                    [
                        {
                            "pitch": 50, 
                            "t0": 45120, 
                            "v": 112, 
                            "dur": 56, 
                            "type": "note", 
                            "channel": 7
                        }
                    ]
                ], 
                [
                    45122, 
                    [
                        {
                            "pitch": 53, 
                            "t0": 45122, 
                            "v": 116, 
                            "dur": 50, 
                            "type": "note", 
                            "channel": 7
                        }
                    ]
                ], 
                [
                    45711, 
                    [
                        {
                            "pitch": 50, 
                            "t0": 45711, 
                            "v": 116, 
                            "dur": 354, 
                            "type": "note", 
                            "channel": 7
                        }
                    ]
                ], 
                [
                    45712, 
                    [
                        {
                            "pitch": 53, 
                            "t0": 45712, 
                            "v": 116, 
                            "dur": 351, 
                            "type": "note", 
                            "channel": 7
                        }
                    ]
                ], 
                [
                    45713, 
                    [
                        {
                            "pitch": 45, 
                            "t0": 45713, 
                            "v": 112, 
                            "dur": 486, 
                            "type": "note", 
                            "channel": 7
                        }
                    ]
                ], 
                [
                    46086, 
                    [
                        {
                            "pitch": 48, 
                            "t0": 46086, 
                            "v": 104, 
                            "dur": 59, 
                            "type": "note", 
                            "channel": 7
                        }
                    ]
                ], 
                [
                    46089, 
                    [
                        {
                            "pitch": 52, 
                            "t0": 46089, 
                            "v": 116, 
                            "dur": 60, 
                            "type": "note", 
                            "channel": 7
                        }
                    ]
                ], 
                [
                    46678, 
                    [
                        {
                            "pitch": 48, 
                            "t0": 46678, 
                            "v": 108, 
                            "dur": 361, 
                            "type": "note", 
                            "channel": 7
                        }
                    ]
                ], 
                [
                    46679, 
                    [
                        {
                            "pitch": 52, 
                            "t0": 46679, 
                            "v": 120, 
                            "dur": 358, 
                            "type": "note", 
                            "channel": 7
                        }
                    ]
                ], 
                [
                    46680, 
                    [
                        {
                            "pitch": 45, 
                            "t0": 46680, 
                            "v": 104, 
                            "dur": 491, 
                            "type": "note", 
                            "channel": 7
                        }
                    ]
                ], 
                [
                    47055, 
                    [
                        {
                            "pitch": 50, 
                            "t0": 47055, 
                            "v": 104, 
                            "dur": 74, 
                            "type": "note", 
                            "channel": 7
                        }
                    ]
                ], 
                [
                    47056, 
                    [
                        {
                            "pitch": 53, 
                            "t0": 47056, 
                            "v": 116, 
                            "dur": 67, 
                            "type": "note", 
                            "channel": 7
                        }
                    ]
                ], 
                [
                    47660, 
                    [
                        {
                            "pitch": 50, 
                            "t0": 47660, 
                            "v": 112, 
                            "dur": 325, 
                            "type": "note", 
                            "channel": 7
                        }
                    ]
                ], 
                [
                    47661, 
                    [
                        {
                            "pitch": 53, 
                            "t0": 47661, 
                            "v": 120, 
                            "dur": 322, 
                            "type": "note", 
                            "channel": 7
                        }
                    ]
                ], 
                [
                    47664, 
                    [
                        {
                            "pitch": 45, 
                            "t0": 47664, 
                            "v": 112, 
                            "dur": 423, 
                            "type": "note", 
                            "channel": 7
                        }
                    ]
                ], 
                [
                    48011, 
                    [
                        {
                            "pitch": 48, 
                            "t0": 48011, 
                            "v": 104, 
                            "dur": 57, 
                            "type": "note", 
                            "channel": 7
                        }
                    ]
                ], 
                [
                    48012, 
                    [
                        {
                            "pitch": 52, 
                            "t0": 48012, 
                            "v": 127, 
                            "dur": 57, 
                            "type": "note", 
                            "channel": 7
                        }
                    ]
                ], 
                [
                    48591, 
                    [
                        {
                            "pitch": 52, 
                            "t0": 48591, 
                            "v": 124, 
                            "dur": 349, 
                            "type": "note", 
                            "channel": 7
                        }
                    ]
                ], 
                [
                    48592, 
                    [
                        {
                            "pitch": 48, 
                            "t0": 48592, 
                            "v": 112, 
                            "dur": 351, 
                            "type": "note", 
                            "channel": 7
                        }
                    ]
                ], 
                [
                    48593, 
                    [
                        {
                            "pitch": 45, 
                            "t0": 48593, 
                            "v": 112, 
                            "dur": 451, 
                            "type": "note", 
                            "channel": 7
                        }
                    ]
                ], 
                [
                    48961, 
                    [
                        {
                            "pitch": 50, 
                            "t0": 48961, 
                            "v": 104, 
                            "dur": 60, 
                            "type": "note", 
                            "channel": 7
                        }
                    ]
                ], 
                [
                    48965, 
                    [
                        {
                            "pitch": 53, 
                            "t0": 48965, 
                            "v": 116, 
                            "dur": 55, 
                            "type": "note", 
                            "channel": 7
                        }
                    ]
                ], 
                [
                    49562, 
                    [
                        {
                            "pitch": 53, 
                            "t0": 49562, 
                            "v": 124, 
                            "dur": 339, 
                            "type": "note", 
                            "channel": 7
                        }
                    ]
                ], 
                [
                    49563, 
                    [
                        {
                            "pitch": 50, 
                            "t0": 49563, 
                            "v": 108, 
                            "dur": 344, 
                            "type": "note", 
                            "channel": 7
                        }, 
                        {
                            "pitch": 45, 
                            "t0": 49563, 
                            "v": 112, 
                            "dur": 527, 
                            "type": "note", 
                            "channel": 7
                        }
                    ]
                ], 
                [
                    49935, 
                    [
                        {
                            "pitch": 48, 
                            "t0": 49935, 
                            "v": 108, 
                            "dur": 60, 
                            "type": "note", 
                            "channel": 7
                        }, 
                        {
                            "pitch": 52, 
                            "t0": 49935, 
                            "v": 120, 
                            "dur": 62, 
                            "type": "note", 
                            "channel": 7
                        }
                    ]
                ], 
                [
                    50494, 
                    [
                        {
                            "pitch": 48, 
                            "t0": 50494, 
                            "v": 116, 
                            "dur": 343, 
                            "type": "note", 
                            "channel": 7
                        }
                    ]
                ], 
                [
                    50495, 
                    [
                        {
                            "pitch": 52, 
                            "t0": 50495, 
                            "v": 116, 
                            "dur": 341, 
                            "type": "note", 
                            "channel": 7
                        }
                    ]
                ], 
                [
                    50496, 
                    [
                        {
                            "pitch": 45, 
                            "t0": 50496, 
                            "v": 112, 
                            "dur": 460, 
                            "type": "note", 
                            "channel": 7
                        }
                    ]
                ], 
                [
                    50866, 
                    [
                        {
                            "pitch": 50, 
                            "t0": 50866, 
                            "v": 112, 
                            "dur": 70, 
                            "type": "note", 
                            "channel": 7
                        }
                    ]
                ], 
                [
                    50868, 
                    [
                        {
                            "pitch": 53, 
                            "t0": 50868, 
                            "v": 120, 
                            "dur": 66, 
                            "type": "note", 
                            "channel": 7
                        }
                    ]
                ], 
                [
                    51488, 
                    [
                        {
                            "pitch": 53, 
                            "t0": 51488, 
                            "v": 120, 
                            "dur": 337, 
                            "type": "note", 
                            "channel": 7
                        }, 
                        {
                            "pitch": 50, 
                            "t0": 51488, 
                            "v": 108, 
                            "dur": 344, 
                            "type": "note", 
                            "channel": 7
                        }
                    ]
                ], 
                [
                    51489, 
                    [
                        {
                            "pitch": 45, 
                            "t0": 51489, 
                            "v": 116, 
                            "dur": 464, 
                            "type": "note", 
                            "channel": 7
                        }
                    ]
                ], 
                [
                    51852, 
                    [
                        {
                            "pitch": 48, 
                            "t0": 51852, 
                            "v": 100, 
                            "dur": 67, 
                            "type": "note", 
                            "channel": 7
                        }
                    ]
                ], 
                [
                    51855, 
                    [
                        {
                            "pitch": 52, 
                            "t0": 51855, 
                            "v": 120, 
                            "dur": 64, 
                            "type": "note", 
                            "channel": 7
                        }
                    ]
                ], 
                [
                    52429, 
                    [
                        {
                            "pitch": 52, 
                            "t0": 52429, 
                            "v": 124, 
                            "dur": 343, 
                            "type": "note", 
                            "channel": 7
                        }
                    ]
                ], 
                [
                    52430, 
                    [
                        {
                            "pitch": 48, 
                            "t0": 52430, 
                            "v": 104, 
                            "dur": 345, 
                            "type": "note", 
                            "channel": 7
                        }, 
                        {
                            "pitch": 45, 
                            "t0": 52430, 
                            "v": 104, 
                            "dur": 450, 
                            "type": "note", 
                            "channel": 7
                        }
                    ]
                ], 
                [
                    52799, 
                    [
                        {
                            "pitch": 50, 
                            "t0": 52799, 
                            "v": 100, 
                            "dur": 63, 
                            "type": "note", 
                            "channel": 7
                        }
                    ]
                ], 
                [
                    52803, 
                    [
                        {
                            "pitch": 53, 
                            "t0": 52803, 
                            "v": 116, 
                            "dur": 57, 
                            "type": "note", 
                            "channel": 7
                        }
                    ]
                ], 
                [
                    53394, 
                    [
                        {
                            "pitch": 53, 
                            "t0": 53394, 
                            "v": 120, 
                            "dur": 346, 
                            "type": "note", 
                            "channel": 7
                        }, 
                        {
                            "pitch": 50, 
                            "t0": 53394, 
                            "v": 116, 
                            "dur": 347, 
                            "type": "note", 
                            "channel": 7
                        }
                    ]
                ], 
                [
                    53395, 
                    [
                        {
                            "pitch": 45, 
                            "t0": 53395, 
                            "v": 108, 
                            "dur": 457, 
                            "type": "note", 
                            "channel": 7
                        }
                    ]
                ], 
                [
                    53768, 
                    [
                        {
                            "pitch": 48, 
                            "t0": 53768, 
                            "v": 104, 
                            "dur": 62, 
                            "type": "note", 
                            "channel": 7
                        }, 
                        {
                            "pitch": 52, 
                            "t0": 53768, 
                            "v": 116, 
                            "dur": 66, 
                            "type": "note", 
                            "channel": 7
                        }
                    ]
                ], 
                [
                    54362, 
                    [
                        {
                            "pitch": 48, 
                            "t0": 54362, 
                            "v": 104, 
                            "dur": 346, 
                            "type": "note", 
                            "channel": 7
                        }
                    ]
                ], 
                [
                    54363, 
                    [
                        {
                            "pitch": 52, 
                            "t0": 54363, 
                            "v": 127, 
                            "dur": 344, 
                            "type": "note", 
                            "channel": 7
                        }
                    ]
                ], 
                [
                    54364, 
                    [
                        {
                            "pitch": 45, 
                            "t0": 54364, 
                            "v": 112, 
                            "dur": 514, 
                            "type": "note", 
                            "channel": 7
                        }
                    ]
                ], 
                [
                    54724, 
                    [
                        {
                            "pitch": 50, 
                            "t0": 54724, 
                            "v": 76, 
                            "dur": 56, 
                            "type": "note", 
                            "channel": 7
                        }
                    ]
                ], 
                [
                    54726, 
                    [
                        {
                            "pitch": 53, 
                            "t0": 54726, 
                            "v": 116, 
                            "dur": 51, 
                            "type": "note", 
                            "channel": 7
                        }
                    ]
                ], 
                [
                    54727, 
                    [
                        {
                            "pitch": 48, 
                            "t0": 54727, 
                            "v": 80, 
                            "dur": 17, 
                            "type": "note", 
                            "channel": 7
                        }
                    ]
                ], 
                [
                    54983, 
                    [
                        {
                            "pitch": 53, 
                            "t0": 54983, 
                            "v": 104, 
                            "dur": 48, 
                            "type": "note", 
                            "channel": 7
                        }
                    ]
                ], 
                [
                    54984, 
                    [
                        {
                            "pitch": 45, 
                            "t0": 54984, 
                            "v": 92, 
                            "dur": 39, 
                            "type": "note", 
                            "channel": 7
                        }, 
                        {
                            "pitch": 50, 
                            "t0": 54984, 
                            "v": 100, 
                            "dur": 44, 
                            "type": "note", 
                            "channel": 7
                        }
                    ]
                ], 
                [
                    55351, 
                    [
                        {
                            "pitch": 53, 
                            "t0": 55351, 
                            "v": 116, 
                            "dur": 318, 
                            "type": "note", 
                            "channel": 7
                        }
                    ]
                ], 
                [
                    55352, 
                    [
                        {
                            "pitch": 50, 
                            "t0": 55352, 
                            "v": 104, 
                            "dur": 318, 
                            "type": "note", 
                            "channel": 7
                        }
                    ]
                ], 
                [
                    55353, 
                    [
                        {
                            "pitch": 45, 
                            "t0": 55353, 
                            "v": 112, 
                            "dur": 376, 
                            "type": "note", 
                            "channel": 7
                        }
                    ]
                ], 
                [
                    55691, 
                    [
                        {
                            "pitch": 48, 
                            "t0": 55691, 
                            "v": 104, 
                            "dur": 50, 
                            "type": "note", 
                            "channel": 7
                        }
                    ]
                ], 
                [
                    55693, 
                    [
                        {
                            "pitch": 52, 
                            "t0": 55693, 
                            "v": 116, 
                            "dur": 52, 
                            "type": "note", 
                            "channel": 7
                        }
                    ]
                ], 
                [
                    56291, 
                    [
                        {
                            "pitch": 48, 
                            "t0": 56291, 
                            "v": 112, 
                            "dur": 330, 
                            "type": "note", 
                            "channel": 7
                        }
                    ]
                ], 
                [
                    56292, 
                    [
                        {
                            "pitch": 52, 
                            "t0": 56292, 
                            "v": 124, 
                            "dur": 330, 
                            "type": "note", 
                            "channel": 7
                        }
                    ]
                ], 
                [
                    56293, 
                    [
                        {
                            "pitch": 45, 
                            "t0": 56293, 
                            "v": 112, 
                            "dur": 384, 
                            "type": "note", 
                            "channel": 7
                        }
                    ]
                ], 
                [
                    56638, 
                    [
                        {
                            "pitch": 50, 
                            "t0": 56638, 
                            "v": 108, 
                            "dur": 52, 
                            "type": "note", 
                            "channel": 7
                        }
                    ]
                ], 
                [
                    56640, 
                    [
                        {
                            "pitch": 53, 
                            "t0": 56640, 
                            "v": 116, 
                            "dur": 51, 
                            "type": "note", 
                            "channel": 7
                        }
                    ]
                ], 
                [
                    57222, 
                    [
                        {
                            "pitch": 53, 
                            "t0": 57222, 
                            "v": 108, 
                            "dur": 337, 
                            "type": "note", 
                            "channel": 7
                        }
                    ]
                ], 
                [
                    57223, 
                    [
                        {
                            "pitch": 50, 
                            "t0": 57223, 
                            "v": 108, 
                            "dur": 341, 
                            "type": "note", 
                            "channel": 7
                        }, 
                        {
                            "pitch": 45, 
                            "t0": 57223, 
                            "v": 92, 
                            "dur": 458, 
                            "type": "note", 
                            "channel": 7
                        }
                    ]
                ], 
                [
                    57588, 
                    [
                        {
                            "pitch": 48, 
                            "t0": 57588, 
                            "v": 108, 
                            "dur": 63, 
                            "type": "note", 
                            "channel": 7
                        }
                    ]
                ], 
                [
                    57590, 
                    [
                        {
                            "pitch": 52, 
                            "t0": 57590, 
                            "v": 120, 
                            "dur": 63, 
                            "type": "note", 
                            "channel": 7
                        }
                    ]
                ], 
                [
                    58202, 
                    [
                        {
                            "pitch": 48, 
                            "t0": 58202, 
                            "v": 112, 
                            "dur": 331, 
                            "type": "note", 
                            "channel": 7
                        }
                    ]
                ], 
                [
                    58203, 
                    [
                        {
                            "pitch": 52, 
                            "t0": 58203, 
                            "v": 120, 
                            "dur": 331, 
                            "type": "note", 
                            "channel": 7
                        }
                    ]
                ], 
                [
                    58204, 
                    [
                        {
                            "pitch": 45, 
                            "t0": 58204, 
                            "v": 108, 
                            "dur": 394, 
                            "type": "note", 
                            "channel": 7
                        }
                    ]
                ], 
                [
                    58554, 
                    [
                        {
                            "pitch": 50, 
                            "t0": 58554, 
                            "v": 104, 
                            "dur": 53, 
                            "type": "note", 
                            "channel": 7
                        }
                    ]
                ], 
                [
                    58556, 
                    [
                        {
                            "pitch": 53, 
                            "t0": 58556, 
                            "v": 120, 
                            "dur": 51, 
                            "type": "note", 
                            "channel": 7
                        }
                    ]
                ], 
                [
                    59170, 
                    [
                        {
                            "pitch": 53, 
                            "t0": 59170, 
                            "v": 120, 
                            "dur": 301, 
                            "type": "note", 
                            "channel": 7
                        }
                    ]
                ], 
                [
                    59171, 
                    [
                        {
                            "pitch": 50, 
                            "t0": 59171, 
                            "v": 100, 
                            "dur": 301, 
                            "type": "note", 
                            "channel": 7
                        }
                    ]
                ], 
                [
                    59172, 
                    [
                        {
                            "pitch": 45, 
                            "t0": 59172, 
                            "v": 100, 
                            "dur": 388, 
                            "type": "note", 
                            "channel": 7
                        }
                    ]
                ], 
                [
                    59494, 
                    [
                        {
                            "pitch": 48, 
                            "t0": 59494, 
                            "v": 92, 
                            "dur": 55, 
                            "type": "note", 
                            "channel": 7
                        }
                    ]
                ], 
                [
                    59496, 
                    [
                        {
                            "pitch": 52, 
                            "t0": 59496, 
                            "v": 108, 
                            "dur": 56, 
                            "type": "note", 
                            "channel": 7
                        }
                    ]
                ], 
                [
                    60138, 
                    [
                        {
                            "pitch": 48, 
                            "t0": 60138, 
                            "v": 104, 
                            "dur": 314, 
                            "type": "note", 
                            "channel": 7
                        }
                    ]
                ], 
                [
                    60139, 
                    [
                        {
                            "pitch": 52, 
                            "t0": 60139, 
                            "v": 108, 
                            "dur": 310, 
                            "type": "note", 
                            "channel": 7
                        }
                    ]
                ], 
                [
                    60140, 
                    [
                        {
                            "pitch": 45, 
                            "t0": 60140, 
                            "v": 104, 
                            "dur": 422, 
                            "type": "note", 
                            "channel": 7
                        }
                    ]
                ], 
                [
                    60468, 
                    [
                        {
                            "pitch": 50, 
                            "t0": 60468, 
                            "v": 92, 
                            "dur": 61, 
                            "type": "note", 
                            "channel": 7
                        }
                    ]
                ], 
                [
                    60471, 
                    [
                        {
                            "pitch": 53, 
                            "t0": 60471, 
                            "v": 112, 
                            "dur": 52, 
                            "type": "note", 
                            "channel": 7
                        }
                    ]
                ], 
                [
                    61071, 
                    [
                        {
                            "pitch": 53, 
                            "t0": 61071, 
                            "v": 120, 
                            "dur": 331, 
                            "type": "note", 
                            "channel": 7
                        }, 
                        {
                            "pitch": 50, 
                            "t0": 61071, 
                            "v": 116, 
                            "dur": 333, 
                            "type": "note", 
                            "channel": 7
                        }
                    ]
                ], 
                [
                    61072, 
                    [
                        {
                            "pitch": 45, 
                            "t0": 61072, 
                            "v": 104, 
                            "dur": 449, 
                            "type": "note", 
                            "channel": 7
                        }
                    ]
                ], 
                [
                    61430, 
                    [
                        {
                            "pitch": 48, 
                            "t0": 61430, 
                            "v": 100, 
                            "dur": 66, 
                            "type": "note", 
                            "channel": 7
                        }
                    ]
                ], 
                [
                    61433, 
                    [
                        {
                            "pitch": 52, 
                            "t0": 61433, 
                            "v": 108, 
                            "dur": 65, 
                            "type": "note", 
                            "channel": 7
                        }
                    ]
                ], 
                [
                    62043, 
                    [
                        {
                            "pitch": 48, 
                            "t0": 62043, 
                            "v": 112, 
                            "dur": 337, 
                            "type": "note", 
                            "channel": 7
                        }
                    ]
                ], 
                [
                    62044, 
                    [
                        {
                            "pitch": 52, 
                            "t0": 62044, 
                            "v": 116, 
                            "dur": 336, 
                            "type": "note", 
                            "channel": 7
                        }
                    ]
                ], 
                [
                    62045, 
                    [
                        {
                            "pitch": 45, 
                            "t0": 62045, 
                            "v": 108, 
                            "dur": 444, 
                            "type": "note", 
                            "channel": 7
                        }
                    ]
                ], 
                [
                    62403, 
                    [
                        {
                            "pitch": 50, 
                            "t0": 62403, 
                            "v": 100, 
                            "dur": 52, 
                            "type": "note", 
                            "channel": 7
                        }
                    ]
                ], 
                [
                    62406, 
                    [
                        {
                            "pitch": 53, 
                            "t0": 62406, 
                            "v": 116, 
                            "dur": 50, 
                            "type": "note", 
                            "channel": 7
                        }
                    ]
                ], 
                [
                    63026, 
                    [
                        {
                            "pitch": 53, 
                            "t0": 63026, 
                            "v": 116, 
                            "dur": 319, 
                            "type": "note", 
                            "channel": 7
                        }, 
                        {
                            "pitch": 50, 
                            "t0": 63026, 
                            "v": 112, 
                            "dur": 323, 
                            "type": "note", 
                            "channel": 7
                        }
                    ]
                ], 
                [
                    63027, 
                    [
                        {
                            "pitch": 45, 
                            "t0": 63027, 
                            "v": 108, 
                            "dur": 435, 
                            "type": "note", 
                            "channel": 7
                        }
                    ]
                ], 
                [
                    63368, 
                    [
                        {
                            "pitch": 48, 
                            "t0": 63368, 
                            "v": 96, 
                            "dur": 73, 
                            "type": "note", 
                            "channel": 7
                        }
                    ]
                ], 
                [
                    63370, 
                    [
                        {
                            "pitch": 52, 
                            "t0": 63370, 
                            "v": 108, 
                            "dur": 62, 
                            "type": "note", 
                            "channel": 7
                        }
                    ]
                ], 
                [
                    63976, 
                    [
                        {
                            "pitch": 48, 
                            "t0": 63976, 
                            "v": 116, 
                            "dur": 312, 
                            "type": "note", 
                            "channel": 7
                        }
                    ]
                ], 
                [
                    63978, 
                    [
                        {
                            "pitch": 52, 
                            "t0": 63978, 
                            "v": 116, 
                            "dur": 308, 
                            "type": "note", 
                            "channel": 7
                        }
                    ]
                ], 
                [
                    63979, 
                    [
                        {
                            "pitch": 45, 
                            "t0": 63979, 
                            "v": 108, 
                            "dur": 449, 
                            "type": "note", 
                            "channel": 7
                        }
                    ]
                ], 
                [
                    64310, 
                    [
                        {
                            "pitch": 50, 
                            "t0": 64310, 
                            "v": 100, 
                            "dur": 63, 
                            "type": "note", 
                            "channel": 7
                        }
                    ]
                ], 
                [
                    64314, 
                    [
                        {
                            "pitch": 53, 
                            "t0": 64314, 
                            "v": 116, 
                            "dur": 58, 
                            "type": "note", 
                            "channel": 7
                        }
                    ]
                ], 
                [
                    64923, 
                    [
                        {
                            "pitch": 53, 
                            "t0": 64923, 
                            "v": 112, 
                            "dur": 333, 
                            "type": "note", 
                            "channel": 7
                        }
                    ]
                ], 
                [
                    64924, 
                    [
                        {
                            "pitch": 50, 
                            "t0": 64924, 
                            "v": 96, 
                            "dur": 335, 
                            "type": "note", 
                            "channel": 7
                        }
                    ]
                ], 
                [
                    64925, 
                    [
                        {
                            "pitch": 45, 
                            "t0": 64925, 
                            "v": 104, 
                            "dur": 462, 
                            "type": "note", 
                            "channel": 7
                        }
                    ]
                ], 
                [
                    64927, 
                    [
                        {
                            "pitch": 48, 
                            "t0": 64927, 
                            "v": 104, 
                            "dur": 36, 
                            "type": "note", 
                            "channel": 7
                        }
                    ]
                ], 
                [
                    64932, 
                    [
                        {
                            "pitch": 52, 
                            "t0": 64932, 
                            "v": 54, 
                            "dur": 32, 
                            "type": "note", 
                            "channel": 7
                        }
                    ]
                ], 
                [
                    65289, 
                    [
                        {
                            "pitch": 48, 
                            "t0": 65289, 
                            "v": 112, 
                            "dur": 73, 
                            "type": "note", 
                            "channel": 7
                        }
                    ]
                ], 
                [
                    65290, 
                    [
                        {
                            "pitch": 52, 
                            "t0": 65290, 
                            "v": 116, 
                            "dur": 67, 
                            "type": "note", 
                            "channel": 7
                        }
                    ]
                ], 
                [
                    65876, 
                    [
                        {
                            "pitch": 52, 
                            "t0": 65876, 
                            "v": 120, 
                            "dur": 342, 
                            "type": "note", 
                            "channel": 7
                        }
                    ]
                ], 
                [
                    65877, 
                    [
                        {
                            "pitch": 48, 
                            "t0": 65877, 
                            "v": 104, 
                            "dur": 344, 
                            "type": "note", 
                            "channel": 7
                        }
                    ]
                ], 
                [
                    65879, 
                    [
                        {
                            "pitch": 45, 
                            "t0": 65879, 
                            "v": 108, 
                            "dur": 444, 
                            "type": "note", 
                            "channel": 7
                        }
                    ]
                ], 
                [
                    66247, 
                    [
                        {
                            "pitch": 50, 
                            "t0": 66247, 
                            "v": 112, 
                            "dur": 60, 
                            "type": "note", 
                            "channel": 7
                        }
                    ]
                ], 
                [
                    66248, 
                    [
                        {
                            "pitch": 53, 
                            "t0": 66248, 
                            "v": 124, 
                            "dur": 54, 
                            "type": "note", 
                            "channel": 7
                        }
                    ]
                ], 
                [
                    66836, 
                    [
                        {
                            "pitch": 53, 
                            "t0": 66836, 
                            "v": 112, 
                            "dur": 325, 
                            "type": "note", 
                            "channel": 7
                        }, 
                        {
                            "pitch": 50, 
                            "t0": 66836, 
                            "v": 104, 
                            "dur": 328, 
                            "type": "note", 
                            "channel": 7
                        }
                    ]
                ], 
                [
                    66837, 
                    [
                        {
                            "pitch": 45, 
                            "t0": 66837, 
                            "v": 96, 
                            "dur": 431, 
                            "type": "note", 
                            "channel": 7
                        }
                    ]
                ], 
                [
                    67187, 
                    [
                        {
                            "pitch": 48, 
                            "t0": 67187, 
                            "v": 108, 
                            "dur": 62, 
                            "type": "note", 
                            "channel": 7
                        }
                    ]
                ], 
                [
                    67190, 
                    [
                        {
                            "pitch": 52, 
                            "t0": 67190, 
                            "v": 120, 
                            "dur": 58, 
                            "type": "note", 
                            "channel": 7
                        }
                    ]
                ], 
                [
                    67801, 
                    [
                        {
                            "pitch": 52, 
                            "t0": 67801, 
                            "v": 120, 
                            "dur": 340, 
                            "type": "note", 
                            "channel": 7
                        }, 
                        {
                            "pitch": 48, 
                            "t0": 67801, 
                            "v": 104, 
                            "dur": 344, 
                            "type": "note", 
                            "channel": 7
                        }
                    ]
                ], 
                [
                    67802, 
                    [
                        {
                            "pitch": 45, 
                            "t0": 67802, 
                            "v": 108, 
                            "dur": 436, 
                            "type": "note", 
                            "channel": 7
                        }
                    ]
                ], 
                [
                    68167, 
                    [
                        {
                            "pitch": 50, 
                            "t0": 68167, 
                            "v": 108, 
                            "dur": 50, 
                            "type": "note", 
                            "channel": 7
                        }
                    ]
                ], 
                [
                    68169, 
                    [
                        {
                            "pitch": 53, 
                            "t0": 68169, 
                            "v": 120, 
                            "dur": 52, 
                            "type": "note", 
                            "channel": 7
                        }
                    ]
                ], 
                [
                    68760, 
                    [
                        {
                            "pitch": 53, 
                            "t0": 68760, 
                            "v": 120, 
                            "dur": 332, 
                            "type": "note", 
                            "channel": 7
                        }, 
                        {
                            "pitch": 50, 
                            "t0": 68760, 
                            "v": 120, 
                            "dur": 337, 
                            "type": "note", 
                            "channel": 7
                        }
                    ]
                ], 
                [
                    68761, 
                    [
                        {
                            "pitch": 45, 
                            "t0": 68761, 
                            "v": 112, 
                            "dur": 449, 
                            "type": "note", 
                            "channel": 7
                        }
                    ]
                ], 
                [
                    69118, 
                    [
                        {
                            "pitch": 48, 
                            "t0": 69118, 
                            "v": 104, 
                            "dur": 77, 
                            "type": "note", 
                            "channel": 7
                        }
                    ]
                ], 
                [
                    69120, 
                    [
                        {
                            "pitch": 52, 
                            "t0": 69120, 
                            "v": 120, 
                            "dur": 67, 
                            "type": "note", 
                            "channel": 7
                        }
                    ]
                ], 
                [
                    69714, 
                    [
                        {
                            "pitch": 52, 
                            "t0": 69714, 
                            "v": 116, 
                            "dur": 351, 
                            "type": "note", 
                            "channel": 7
                        }
                    ]
                ], 
                [
                    69715, 
                    [
                        {
                            "pitch": 48, 
                            "t0": 69715, 
                            "v": 100, 
                            "dur": 354, 
                            "type": "note", 
                            "channel": 7
                        }, 
                        {
                            "pitch": 45, 
                            "t0": 69715, 
                            "v": 104, 
                            "dur": 443, 
                            "type": "note", 
                            "channel": 7
                        }
                    ]
                ], 
                [
                    70089, 
                    [
                        {
                            "pitch": 50, 
                            "t0": 70089, 
                            "v": 108, 
                            "dur": 52, 
                            "type": "note", 
                            "channel": 7
                        }
                    ]
                ], 
                [
                    70091, 
                    [
                        {
                            "pitch": 53, 
                            "t0": 70091, 
                            "v": 120, 
                            "dur": 47, 
                            "type": "note", 
                            "channel": 7
                        }
                    ]
                ], 
                [
                    70658, 
                    [
                        {
                            "pitch": 50, 
                            "t0": 70658, 
                            "v": 112, 
                            "dur": 345, 
                            "type": "note", 
                            "channel": 7
                        }
                    ]
                ], 
                [
                    70659, 
                    [
                        {
                            "pitch": 45, 
                            "t0": 70659, 
                            "v": 104, 
                            "dur": 441, 
                            "type": "note", 
                            "channel": 7
                        }
                    ]
                ], 
                [
                    70660, 
                    [
                        {
                            "pitch": 53, 
                            "t0": 70660, 
                            "v": 120, 
                            "dur": 338, 
                            "type": "note", 
                            "channel": 7
                        }
                    ]
                ], 
                [
                    71023, 
                    [
                        {
                            "pitch": 48, 
                            "t0": 71023, 
                            "v": 100, 
                            "dur": 62, 
                            "type": "note", 
                            "channel": 7
                        }
                    ]
                ], 
                [
                    71024, 
                    [
                        {
                            "pitch": 52, 
                            "t0": 71024, 
                            "v": 116, 
                            "dur": 62, 
                            "type": "note", 
                            "channel": 7
                        }
                    ]
                ], 
                [
                    71557, 
                    [
                        {
                            "pitch": 48, 
                            "t0": 71557, 
                            "v": 108, 
                            "dur": 413, 
                            "type": "note", 
                            "channel": 7
                        }
                    ]
                ], 
                [
                    71558, 
                    [
                        {
                            "pitch": 52, 
                            "t0": 71558, 
                            "v": 120, 
                            "dur": 405, 
                            "type": "note", 
                            "channel": 7
                        }
                    ]
                ], 
                [
                    71559, 
                    [
                        {
                            "pitch": 45, 
                            "t0": 71559, 
                            "v": 104, 
                            "dur": 489, 
                            "type": "note", 
                            "channel": 7
                        }
                    ]
                ], 
                [
                    71561, 
                    [
                        {
                            "pitch": 53, 
                            "t0": 71561, 
                            "v": 112, 
                            "dur": 13, 
                            "type": "note", 
                            "channel": 7
                        }
                    ]
                ], 
                [
                    72005, 
                    [
                        {
                            "pitch": 50, 
                            "t0": 72005, 
                            "v": 108, 
                            "dur": 47, 
                            "type": "note", 
                            "channel": 7
                        }, 
                        {
                            "pitch": 53, 
                            "t0": 72005, 
                            "v": 116, 
                            "dur": 50, 
                            "type": "note", 
                            "channel": 7
                        }
                    ]
                ], 
                [
                    72596, 
                    [
                        {
                            "pitch": 53, 
                            "t0": 72596, 
                            "v": 120, 
                            "dur": 321, 
                            "type": "note", 
                            "channel": 7
                        }
                    ]
                ], 
                [
                    72597, 
                    [
                        {
                            "pitch": 50, 
                            "t0": 72597, 
                            "v": 108, 
                            "dur": 326, 
                            "type": "note", 
                            "channel": 7
                        }
                    ]
                ], 
                [
                    72599, 
                    [
                        {
                            "pitch": 45, 
                            "t0": 72599, 
                            "v": 92, 
                            "dur": 440, 
                            "type": "note", 
                            "channel": 7
                        }
                    ]
                ], 
                [
                    72947, 
                    [
                        {
                            "pitch": 48, 
                            "t0": 72947, 
                            "v": 104, 
                            "dur": 60, 
                            "type": "note", 
                            "channel": 7
                        }
                    ]
                ], 
                [
                    72948, 
                    [
                        {
                            "pitch": 52, 
                            "t0": 72948, 
                            "v": 116, 
                            "dur": 59, 
                            "type": "note", 
                            "channel": 7
                        }
                    ]
                ], 
                [
                    73560, 
                    [
                        {
                            "pitch": 52, 
                            "t0": 73560, 
                            "v": 124, 
                            "dur": 341, 
                            "type": "note", 
                            "channel": 7
                        }, 
                        {
                            "pitch": 48, 
                            "t0": 73560, 
                            "v": 116, 
                            "dur": 344, 
                            "type": "note", 
                            "channel": 7
                        }, 
                        {
                            "pitch": 45, 
                            "t0": 73560, 
                            "v": 108, 
                            "dur": 459, 
                            "type": "note", 
                            "channel": 7
                        }
                    ]
                ], 
                [
                    73922, 
                    [
                        {
                            "pitch": 50, 
                            "t0": 73922, 
                            "v": 100, 
                            "dur": 63, 
                            "type": "note", 
                            "channel": 7
                        }
                    ]
                ], 
                [
                    73925, 
                    [
                        {
                            "pitch": 53, 
                            "t0": 73925, 
                            "v": 112, 
                            "dur": 53, 
                            "type": "note", 
                            "channel": 7
                        }
                    ]
                ], 
                [
                    74529, 
                    [
                        {
                            "pitch": 50, 
                            "t0": 74529, 
                            "v": 104, 
                            "dur": 358, 
                            "type": "note", 
                            "channel": 7
                        }
                    ]
                ], 
                [
                    74530, 
                    [
                        {
                            "pitch": 53, 
                            "t0": 74530, 
                            "v": 116, 
                            "dur": 352, 
                            "type": "note", 
                            "channel": 7
                        }
                    ]
                ], 
                [
                    74533, 
                    [
                        {
                            "pitch": 45, 
                            "t0": 74533, 
                            "v": 92, 
                            "dur": 480, 
                            "type": "note", 
                            "channel": 7
                        }
                    ]
                ], 
                [
                    74911, 
                    [
                        {
                            "pitch": 48, 
                            "t0": 74911, 
                            "v": 116, 
                            "dur": 59, 
                            "type": "note", 
                            "channel": 7
                        }
                    ]
                ], 
                [
                    74914, 
                    [
                        {
                            "pitch": 52, 
                            "t0": 74914, 
                            "v": 124, 
                            "dur": 59, 
                            "type": "note", 
                            "channel": 7
                        }
                    ]
                ], 
                [
                    75494, 
                    [
                        {
                            "pitch": 48, 
                            "t0": 75494, 
                            "v": 108, 
                            "dur": 333, 
                            "type": "note", 
                            "channel": 7
                        }
                    ]
                ], 
                [
                    75495, 
                    [
                        {
                            "pitch": 52, 
                            "t0": 75495, 
                            "v": 120, 
                            "dur": 329, 
                            "type": "note", 
                            "channel": 7
                        }
                    ]
                ], 
                [
                    75498, 
                    [
                        {
                            "pitch": 45, 
                            "t0": 75498, 
                            "v": 96, 
                            "dur": 446, 
                            "type": "note", 
                            "channel": 7
                        }
                    ]
                ], 
                [
                    75848, 
                    [
                        {
                            "pitch": 50, 
                            "t0": 75848, 
                            "v": 104, 
                            "dur": 61, 
                            "type": "note", 
                            "channel": 7
                        }
                    ]
                ], 
                [
                    75850, 
                    [
                        {
                            "pitch": 53, 
                            "t0": 75850, 
                            "v": 120, 
                            "dur": 56, 
                            "type": "note", 
                            "channel": 7
                        }
                    ]
                ], 
                [
                    76450, 
                    [
                        {
                            "pitch": 53, 
                            "t0": 76450, 
                            "v": 116, 
                            "dur": 316, 
                            "type": "note", 
                            "channel": 7
                        }
                    ]
                ], 
                [
                    76451, 
                    [
                        {
                            "pitch": 50, 
                            "t0": 76451, 
                            "v": 108, 
                            "dur": 318, 
                            "type": "note", 
                            "channel": 7
                        }
                    ]
                ], 
                [
                    76454, 
                    [
                        {
                            "pitch": 45, 
                            "t0": 76454, 
                            "v": 100, 
                            "dur": 441, 
                            "type": "note", 
                            "channel": 7
                        }
                    ]
                ], 
                [
                    76792, 
                    [
                        {
                            "pitch": 48, 
                            "t0": 76792, 
                            "v": 112, 
                            "dur": 85, 
                            "type": "note", 
                            "channel": 7
                        }
                    ]
                ], 
                [
                    76794, 
                    [
                        {
                            "pitch": 52, 
                            "t0": 76794, 
                            "v": 124, 
                            "dur": 77, 
                            "type": "note", 
                            "channel": 7
                        }
                    ]
                ], 
                [
                    77407, 
                    [
                        {
                            "pitch": 52, 
                            "t0": 77407, 
                            "v": 108, 
                            "dur": 335, 
                            "type": "note", 
                            "channel": 7
                        }, 
                        {
                            "pitch": 48, 
                            "t0": 77407, 
                            "v": 100, 
                            "dur": 337, 
                            "type": "note", 
                            "channel": 7
                        }
                    ]
                ], 
                [
                    77408, 
                    [
                        {
                            "pitch": 45, 
                            "t0": 77408, 
                            "v": 104, 
                            "dur": 426, 
                            "type": "note", 
                            "channel": 7
                        }
                    ]
                ], 
                [
                    77409, 
                    [
                        {
                            "pitch": 50, 
                            "t0": 77409, 
                            "v": 104, 
                            "dur": 77, 
                            "type": "note", 
                            "channel": 7
                        }
                    ]
                ], 
                [
                    77770, 
                    [
                        {
                            "pitch": 50, 
                            "t0": 77770, 
                            "v": 112, 
                            "dur": 46, 
                            "type": "note", 
                            "channel": 7
                        }
                    ]
                ], 
                [
                    77771, 
                    [
                        {
                            "pitch": 53, 
                            "t0": 77771, 
                            "v": 116, 
                            "dur": 47, 
                            "type": "note", 
                            "channel": 7
                        }
                    ]
                ], 
                [
                    78361, 
                    [
                        {
                            "pitch": 53, 
                            "t0": 78361, 
                            "v": 124, 
                            "dur": 325, 
                            "type": "note", 
                            "channel": 7
                        }, 
                        {
                            "pitch": 50, 
                            "t0": 78361, 
                            "v": 112, 
                            "dur": 329, 
                            "type": "note", 
                            "channel": 7
                        }
                    ]
                ], 
                [
                    78362, 
                    [
                        {
                            "pitch": 45, 
                            "t0": 78362, 
                            "v": 108, 
                            "dur": 427, 
                            "type": "note", 
                            "channel": 7
                        }
                    ]
                ], 
                [
                    78714, 
                    [
                        {
                            "pitch": 48, 
                            "t0": 78714, 
                            "v": 100, 
                            "dur": 56, 
                            "type": "note", 
                            "channel": 7
                        }
                    ]
                ], 
                [
                    78716, 
                    [
                        {
                            "pitch": 52, 
                            "t0": 78716, 
                            "v": 124, 
                            "dur": 57, 
                            "type": "note", 
                            "channel": 7
                        }
                    ]
                ], 
                [
                    79324, 
                    [
                        {
                            "pitch": 48, 
                            "t0": 79324, 
                            "v": 116, 
                            "dur": 338, 
                            "type": "note", 
                            "channel": 7
                        }
                    ]
                ], 
                [
                    79325, 
                    [
                        {
                            "pitch": 52, 
                            "t0": 79325, 
                            "v": 116, 
                            "dur": 333, 
                            "type": "note", 
                            "channel": 7
                        }
                    ]
                ], 
                [
                    79326, 
                    [
                        {
                            "pitch": 45, 
                            "t0": 79326, 
                            "v": 112, 
                            "dur": 482, 
                            "type": "note", 
                            "channel": 7
                        }
                    ]
                ], 
                [
                    79680, 
                    [
                        {
                            "pitch": 50, 
                            "t0": 79680, 
                            "v": 100, 
                            "dur": 65, 
                            "type": "note", 
                            "channel": 7
                        }
                    ]
                ], 
                [
                    79682, 
                    [
                        {
                            "pitch": 53, 
                            "t0": 79682, 
                            "v": 120, 
                            "dur": 58, 
                            "type": "note", 
                            "channel": 7
                        }
                    ]
                ], 
                [
                    80282, 
                    [
                        {
                            "pitch": 53, 
                            "t0": 80282, 
                            "v": 116, 
                            "dur": 339, 
                            "type": "note", 
                            "channel": 7
                        }, 
                        {
                            "pitch": 50, 
                            "t0": 80282, 
                            "v": 108, 
                            "dur": 342, 
                            "type": "note", 
                            "channel": 7
                        }
                    ]
                ], 
                [
                    80284, 
                    [
                        {
                            "pitch": 45, 
                            "t0": 80284, 
                            "v": 96, 
                            "dur": 514, 
                            "type": "note", 
                            "channel": 7
                        }
                    ]
                ], 
                [
                    80647, 
                    [
                        {
                            "pitch": 48, 
                            "t0": 80647, 
                            "v": 104, 
                            "dur": 61, 
                            "type": "note", 
                            "channel": 7
                        }
                    ]
                ], 
                [
                    80648, 
                    [
                        {
                            "pitch": 52, 
                            "t0": 80648, 
                            "v": 112, 
                            "dur": 64, 
                            "type": "note", 
                            "channel": 7
                        }
                    ]
                ], 
                [
                    80909, 
                    [
                        {
                            "pitch": 52, 
                            "t0": 80909, 
                            "v": 100, 
                            "dur": 51, 
                            "type": "note", 
                            "channel": 7
                        }
                    ]
                ], 
                [
                    80910, 
                    [
                        {
                            "pitch": 48, 
                            "t0": 80910, 
                            "v": 92, 
                            "dur": 42, 
                            "type": "note", 
                            "channel": 7
                        }, 
                        {
                            "pitch": 45, 
                            "t0": 80910, 
                            "v": 88, 
                            "dur": 49, 
                            "type": "note", 
                            "channel": 7
                        }
                    ]
                ], 
                [
                    81267, 
                    [
                        {
                            "pitch": 48, 
                            "t0": 81267, 
                            "v": 120, 
                            "dur": 323, 
                            "type": "note", 
                            "channel": 7
                        }
                    ]
                ], 
                [
                    81268, 
                    [
                        {
                            "pitch": 52, 
                            "t0": 81268, 
                            "v": 108, 
                            "dur": 320, 
                            "type": "note", 
                            "channel": 7
                        }
                    ]
                ], 
                [
                    81269, 
                    [
                        {
                            "pitch": 45, 
                            "t0": 81269, 
                            "v": 112, 
                            "dur": 387, 
                            "type": "note", 
                            "channel": 7
                        }
                    ]
                ], 
                [
                    81605, 
                    [
                        {
                            "pitch": 50, 
                            "t0": 81605, 
                            "v": 108, 
                            "dur": 52, 
                            "type": "note", 
                            "channel": 7
                        }
                    ]
                ], 
                [
                    81609, 
                    [
                        {
                            "pitch": 53, 
                            "t0": 81609, 
                            "v": 112, 
                            "dur": 51, 
                            "type": "note", 
                            "channel": 7
                        }
                    ]
                ], 
                [
                    81616, 
                    [
                        {
                            "pitch": 52, 
                            "t0": 81616, 
                            "v": 76, 
                            "dur": 18, 
                            "type": "note", 
                            "channel": 7
                        }
                    ]
                ], 
                [
                    81850, 
                    [
                        {
                            "pitch": 50, 
                            "t0": 81850, 
                            "v": 100, 
                            "dur": 62, 
                            "type": "note", 
                            "channel": 7
                        }, 
                        {
                            "pitch": 53, 
                            "t0": 81850, 
                            "v": 108, 
                            "dur": 64, 
                            "type": "note", 
                            "channel": 7
                        }
                    ]
                ], 
                [
                    81851, 
                    [
                        {
                            "pitch": 45, 
                            "t0": 81851, 
                            "v": 76, 
                            "dur": 74, 
                            "type": "note", 
                            "channel": 7
                        }
                    ]
                ], 
                [
                    82221, 
                    [
                        {
                            "pitch": 45, 
                            "t0": 82221, 
                            "v": 84, 
                            "dur": 388, 
                            "type": "note", 
                            "channel": 7
                        }
                    ]
                ], 
                [
                    82222, 
                    [
                        {
                            "pitch": 48, 
                            "t0": 82222, 
                            "v": 108, 
                            "dur": 311, 
                            "type": "note", 
                            "channel": 7
                        }
                    ]
                ], 
                [
                    82223, 
                    [
                        {
                            "pitch": 52, 
                            "t0": 82223, 
                            "v": 124, 
                            "dur": 308, 
                            "type": "note", 
                            "channel": 7
                        }
                    ]
                ], 
                [
                    82556, 
                    [
                        {
                            "pitch": 50, 
                            "t0": 82556, 
                            "v": 104, 
                            "dur": 43, 
                            "type": "note", 
                            "channel": 7
                        }
                    ]
                ], 
                [
                    82557, 
                    [
                        {
                            "pitch": 53, 
                            "t0": 82557, 
                            "v": 112, 
                            "dur": 38, 
                            "type": "note", 
                            "channel": 7
                        }
                    ]
                ], 
                [
                    83151, 
                    [
                        {
                            "pitch": 48, 
                            "t0": 83151, 
                            "v": 116, 
                            "dur": 328, 
                            "type": "note", 
                            "channel": 7
                        }
                    ]
                ], 
                [
                    83152, 
                    [
                        {
                            "pitch": 52, 
                            "t0": 83152, 
                            "v": 108, 
                            "dur": 324, 
                            "type": "note", 
                            "channel": 7
                        }, 
                        {
                            "pitch": 45, 
                            "t0": 83152, 
                            "v": 108, 
                            "dur": 418, 
                            "type": "note", 
                            "channel": 7
                        }
                    ]
                ], 
                [
                    83496, 
                    [
                        {
                            "pitch": 50, 
                            "t0": 83496, 
                            "v": 88, 
                            "dur": 50, 
                            "type": "note", 
                            "channel": 7
                        }
                    ]
                ], 
                [
                    83497, 
                    [
                        {
                            "pitch": 53, 
                            "t0": 83497, 
                            "v": 116, 
                            "dur": 51, 
                            "type": "note", 
                            "channel": 7
                        }
                    ]
                ], 
                [
                    83498, 
                    [
                        {
                            "pitch": 48, 
                            "t0": 83498, 
                            "v": 92, 
                            "dur": 29, 
                            "type": "note", 
                            "channel": 7
                        }
                    ]
                ], 
                [
                    83761, 
                    [
                        {
                            "pitch": 50, 
                            "t0": 83761, 
                            "v": 108, 
                            "dur": 56, 
                            "type": "note", 
                            "channel": 7
                        }, 
                        {
                            "pitch": 53, 
                            "t0": 83761, 
                            "v": 116, 
                            "dur": 59, 
                            "type": "note", 
                            "channel": 7
                        }
                    ]
                ], 
                [
                    83762, 
                    [
                        {
                            "pitch": 45, 
                            "t0": 83762, 
                            "v": 108, 
                            "dur": 60, 
                            "type": "note", 
                            "channel": 7
                        }
                    ]
                ], 
                [
                    83766, 
                    [
                        {
                            "pitch": 52, 
                            "t0": 83766, 
                            "v": 88, 
                            "dur": 18, 
                            "type": "note", 
                            "channel": 7
                        }
                    ]
                ], 
                [
                    84126, 
                    [
                        {
                            "pitch": 52, 
                            "t0": 84126, 
                            "v": 120, 
                            "dur": 304, 
                            "type": "note", 
                            "channel": 7
                        }, 
                        {
                            "pitch": 48, 
                            "t0": 84126, 
                            "v": 108, 
                            "dur": 305, 
                            "type": "note", 
                            "channel": 7
                        }
                    ]
                ], 
                [
                    84127, 
                    [
                        {
                            "pitch": 45, 
                            "t0": 84127, 
                            "v": 112, 
                            "dur": 402, 
                            "type": "note", 
                            "channel": 7
                        }
                    ]
                ], 
                [
                    84452, 
                    [
                        {
                            "pitch": 50, 
                            "t0": 84452, 
                            "v": 104, 
                            "dur": 58, 
                            "type": "note", 
                            "channel": 7
                        }
                    ]
                ], 
                [
                    84453, 
                    [
                        {
                            "pitch": 53, 
                            "t0": 84453, 
                            "v": 116, 
                            "dur": 53, 
                            "type": "note", 
                            "channel": 7
                        }
                    ]
                ], 
                [
                    85075, 
                    [
                        {
                            "pitch": 48, 
                            "t0": 85075, 
                            "v": 116, 
                            "dur": 325, 
                            "type": "note", 
                            "channel": 7
                        }
                    ]
                ], 
                [
                    85076, 
                    [
                        {
                            "pitch": 52, 
                            "t0": 85076, 
                            "v": 116, 
                            "dur": 321, 
                            "type": "note", 
                            "channel": 7
                        }
                    ]
                ], 
                [
                    85077, 
                    [
                        {
                            "pitch": 45, 
                            "t0": 85077, 
                            "v": 108, 
                            "dur": 412, 
                            "type": "note", 
                            "channel": 7
                        }
                    ]
                ], 
                [
                    85418, 
                    [
                        {
                            "pitch": 50, 
                            "t0": 85418, 
                            "v": 96, 
                            "dur": 55, 
                            "type": "note", 
                            "channel": 7
                        }
                    ]
                ], 
                [
                    85421, 
                    [
                        {
                            "pitch": 53, 
                            "t0": 85421, 
                            "v": 112, 
                            "dur": 50, 
                            "type": "note", 
                            "channel": 7
                        }
                    ]
                ], 
                [
                    85677, 
                    [
                        {
                            "pitch": 53, 
                            "t0": 85677, 
                            "v": 100, 
                            "dur": 66, 
                            "type": "note", 
                            "channel": 7
                        }, 
                        {
                            "pitch": 50, 
                            "t0": 85677, 
                            "v": 96, 
                            "dur": 69, 
                            "type": "note", 
                            "channel": 7
                        }
                    ]
                ], 
                [
                    85678, 
                    [
                        {
                            "pitch": 45, 
                            "t0": 85678, 
                            "v": 92, 
                            "dur": 85, 
                            "type": "note", 
                            "channel": 7
                        }
                    ]
                ], 
                [
                    86059, 
                    [
                        {
                            "pitch": 52, 
                            "t0": 86059, 
                            "v": 108, 
                            "dur": 289, 
                            "type": "note", 
                            "channel": 7
                        }, 
                        {
                            "pitch": 48, 
                            "t0": 86059, 
                            "v": 112, 
                            "dur": 295, 
                            "type": "note", 
                            "channel": 7
                        }
                    ]
                ], 
                [
                    86060, 
                    [
                        {
                            "pitch": 45, 
                            "t0": 86060, 
                            "v": 104, 
                            "dur": 405, 
                            "type": "note", 
                            "channel": 7
                        }
                    ]
                ], 
                [
                    86392, 
                    [
                        {
                            "pitch": 50, 
                            "t0": 86392, 
                            "v": 100, 
                            "dur": 63, 
                            "type": "note", 
                            "channel": 7
                        }
                    ]
                ], 
                [
                    86991, 
                    [
                        {
                            "pitch": 48, 
                            "t0": 86991, 
                            "v": 112, 
                            "dur": 339, 
                            "type": "note", 
                            "channel": 7
                        }, 
                        {
                            "pitch": 45, 
                            "t0": 86991, 
                            "v": 116, 
                            "dur": 356, 
                            "type": "note", 
                            "channel": 7
                        }
                    ]
                ], 
                [
                    87361, 
                    [
                        {
                            "pitch": 50, 
                            "t0": 87361, 
                            "v": 104, 
                            "dur": 72, 
                            "type": "note", 
                            "channel": 7
                        }, 
                        {
                            "pitch": 45, 
                            "t0": 87361, 
                            "v": 80, 
                            "dur": 86, 
                            "type": "note", 
                            "channel": 7
                        }
                    ]
                ], 
                [
                    87603, 
                    [
                        {
                            "pitch": 50, 
                            "t0": 87603, 
                            "v": 116, 
                            "dur": 111, 
                            "type": "note", 
                            "channel": 7
                        }
                    ]
                ], 
                [
                    87604, 
                    [
                        {
                            "pitch": 45, 
                            "t0": 87604, 
                            "v": 112, 
                            "dur": 129, 
                            "type": "note", 
                            "channel": 7
                        }
                    ]
                ], 
                [
                    87960, 
                    [
                        {
                            "pitch": 48, 
                            "t0": 87960, 
                            "v": 112, 
                            "dur": 322, 
                            "type": "note", 
                            "channel": 7
                        }
                    ]
                ], 
                [
                    87962, 
                    [
                        {
                            "pitch": 45, 
                            "t0": 87962, 
                            "v": 116, 
                            "dur": 423, 
                            "type": "note", 
                            "channel": 7
                        }
                    ]
                ], 
                [
                    88308, 
                    [
                        {
                            "pitch": 50, 
                            "t0": 88308, 
                            "v": 112, 
                            "dur": 63, 
                            "type": "note", 
                            "channel": 7
                        }
                    ]
                ], 
                [
                    88921, 
                    [
                        {
                            "pitch": 48, 
                            "t0": 88921, 
                            "v": 108, 
                            "dur": 328, 
                            "type": "note", 
                            "channel": 7
                        }
                    ]
                ], 
                [
                    88923, 
                    [
                        {
                            "pitch": 45, 
                            "t0": 88923, 
                            "v": 108, 
                            "dur": 411, 
                            "type": "note", 
                            "channel": 7
                        }
                    ]
                ], 
                [
                    89275, 
                    [
                        {
                            "pitch": 50, 
                            "t0": 89275, 
                            "v": 112, 
                            "dur": 66, 
                            "type": "note", 
                            "channel": 7
                        }
                    ]
                ], 
                [
                    89532, 
                    [
                        {
                            "pitch": 50, 
                            "t0": 89532, 
                            "v": 96, 
                            "dur": 121, 
                            "type": "note", 
                            "channel": 7
                        }
                    ]
                ], 
                [
                    89533, 
                    [
                        {
                            "pitch": 45, 
                            "t0": 89533, 
                            "v": 100, 
                            "dur": 132, 
                            "type": "note", 
                            "channel": 7
                        }
                    ]
                ], 
                [
                    89538, 
                    [
                        {
                            "pitch": 47, 
                            "t0": 89538, 
                            "v": 96, 
                            "dur": 64, 
                            "type": "note", 
                            "channel": 7
                        }
                    ]
                ], 
                [
                    89887, 
                    [
                        {
                            "pitch": 48, 
                            "t0": 89887, 
                            "v": 112, 
                            "dur": 317, 
                            "type": "note", 
                            "channel": 7
                        }
                    ]
                ], 
                [
                    89891, 
                    [
                        {
                            "pitch": 45, 
                            "t0": 89891, 
                            "v": 96, 
                            "dur": 415, 
                            "type": "note", 
                            "channel": 7
                        }
                    ]
                ], 
                [
                    89892, 
                    [
                        {
                            "pitch": 43, 
                            "t0": 89892, 
                            "v": 104, 
                            "dur": 75, 
                            "type": "note", 
                            "channel": 7
                        }
                    ]
                ], 
                [
                    90244, 
                    [
                        {
                            "pitch": 50, 
                            "t0": 90244, 
                            "v": 112, 
                            "dur": 61, 
                            "type": "note", 
                            "channel": 7
                        }
                    ]
                ], 
                [
                    90843, 
                    [
                        {
                            "pitch": 48, 
                            "t0": 90843, 
                            "v": 116, 
                            "dur": 333, 
                            "type": "note", 
                            "channel": 7
                        }
                    ]
                ], 
                [
                    90844, 
                    [
                        {
                            "pitch": 45, 
                            "t0": 90844, 
                            "v": 112, 
                            "dur": 350, 
                            "type": "note", 
                            "channel": 7
                        }
                    ]
                ], 
                [
                    91203, 
                    [
                        {
                            "pitch": 45, 
                            "t0": 91203, 
                            "v": 80, 
                            "dur": 70, 
                            "type": "note", 
                            "channel": 7
                        }
                    ]
                ], 
                [
                    91204, 
                    [
                        {
                            "pitch": 50, 
                            "t0": 91204, 
                            "v": 108, 
                            "dur": 65, 
                            "type": "note", 
                            "channel": 7
                        }
                    ]
                ], 
                [
                    91451, 
                    [
                        {
                            "pitch": 50, 
                            "t0": 91451, 
                            "v": 112, 
                            "dur": 106, 
                            "type": "note", 
                            "channel": 7
                        }
                    ]
                ], 
                [
                    91453, 
                    [
                        {
                            "pitch": 45, 
                            "t0": 91453, 
                            "v": 108, 
                            "dur": 120, 
                            "type": "note", 
                            "channel": 7
                        }
                    ]
                ], 
                [
                    91459, 
                    [
                        {
                            "pitch": 47, 
                            "t0": 91459, 
                            "v": 100, 
                            "dur": 30, 
                            "type": "note", 
                            "channel": 7
                        }
                    ]
                ], 
                [
                    91807, 
                    [
                        {
                            "pitch": 48, 
                            "t0": 91807, 
                            "v": 108, 
                            "dur": 321, 
                            "type": "note", 
                            "channel": 7
                        }
                    ]
                ], 
                [
                    91809, 
                    [
                        {
                            "pitch": 45, 
                            "t0": 91809, 
                            "v": 108, 
                            "dur": 454, 
                            "type": "note", 
                            "channel": 7
                        }
                    ]
                ], 
                [
                    92156, 
                    [
                        {
                            "pitch": 50, 
                            "t0": 92156, 
                            "v": 116, 
                            "dur": 73, 
                            "type": "note", 
                            "channel": 7
                        }
                    ]
                ], 
                [
                    92750, 
                    [
                        {
                            "pitch": 48, 
                            "t0": 92750, 
                            "v": 100, 
                            "dur": 310, 
                            "type": "note", 
                            "channel": 7
                        }
                    ]
                ], 
                [
                    92752, 
                    [
                        {
                            "pitch": 45, 
                            "t0": 92752, 
                            "v": 108, 
                            "dur": 425, 
                            "type": "note", 
                            "channel": 7
                        }
                    ]
                ], 
                [
                    93096, 
                    [
                        {
                            "pitch": 50, 
                            "t0": 93096, 
                            "v": 108, 
                            "dur": 62, 
                            "type": "note", 
                            "channel": 7
                        }
                    ]
                ], 
                [
                    93359, 
                    [
                        {
                            "pitch": 50, 
                            "t0": 93359, 
                            "v": 108, 
                            "dur": 78, 
                            "type": "note", 
                            "channel": 7
                        }
                    ]
                ], 
                [
                    93361, 
                    [
                        {
                            "pitch": 45, 
                            "t0": 93361, 
                            "v": 108, 
                            "dur": 92, 
                            "type": "note", 
                            "channel": 7
                        }
                    ]
                ], 
                [
                    93724, 
                    [
                        {
                            "pitch": 48, 
                            "t0": 93724, 
                            "v": 104, 
                            "dur": 327, 
                            "type": "note", 
                            "channel": 7
                        }
                    ]
                ], 
                [
                    93725, 
                    [
                        {
                            "pitch": 45, 
                            "t0": 93725, 
                            "v": 96, 
                            "dur": 401, 
                            "type": "note", 
                            "channel": 7
                        }
                    ]
                ], 
                [
                    94077, 
                    [
                        {
                            "pitch": 50, 
                            "t0": 94077, 
                            "v": 104, 
                            "dur": 52, 
                            "type": "note", 
                            "channel": 7
                        }
                    ]
                ], 
                [
                    94678, 
                    [
                        {
                            "pitch": 48, 
                            "t0": 94678, 
                            "v": 112, 
                            "dur": 331, 
                            "type": "note", 
                            "channel": 7
                        }
                    ]
                ], 
                [
                    94679, 
                    [
                        {
                            "pitch": 45, 
                            "t0": 94679, 
                            "v": 96, 
                            "dur": 411, 
                            "type": "note", 
                            "channel": 7
                        }
                    ]
                ], 
                [
                    95037, 
                    [
                        {
                            "pitch": 50, 
                            "t0": 95037, 
                            "v": 108, 
                            "dur": 59, 
                            "type": "note", 
                            "channel": 7
                        }
                    ]
                ], 
                [
                    95280, 
                    [
                        {
                            "pitch": 50, 
                            "t0": 95280, 
                            "v": 108, 
                            "dur": 80, 
                            "type": "note", 
                            "channel": 7
                        }
                    ]
                ], 
                [
                    95281, 
                    [
                        {
                            "pitch": 45, 
                            "t0": 95281, 
                            "v": 104, 
                            "dur": 99, 
                            "type": "note", 
                            "channel": 7
                        }
                    ]
                ], 
                [
                    95636, 
                    [
                        {
                            "pitch": 45, 
                            "t0": 95636, 
                            "v": 100, 
                            "dur": 400, 
                            "type": "note", 
                            "channel": 7
                        }
                    ]
                ], 
                [
                    95637, 
                    [
                        {
                            "pitch": 48, 
                            "t0": 95637, 
                            "v": 112, 
                            "dur": 298, 
                            "type": "note", 
                            "channel": 7
                        }
                    ]
                ], 
                [
                    95976, 
                    [
                        {
                            "pitch": 50, 
                            "t0": 95976, 
                            "v": 108, 
                            "dur": 59, 
                            "type": "note", 
                            "channel": 7
                        }
                    ]
                ], 
                [
                    96601, 
                    [
                        {
                            "pitch": 48, 
                            "t0": 96601, 
                            "v": 112, 
                            "dur": 330, 
                            "type": "note", 
                            "channel": 7
                        }
                    ]
                ], 
                [
                    96602, 
                    [
                        {
                            "pitch": 45, 
                            "t0": 96602, 
                            "v": 108, 
                            "dur": 411, 
                            "type": "note", 
                            "channel": 7
                        }
                    ]
                ], 
                [
                    96958, 
                    [
                        {
                            "pitch": 50, 
                            "t0": 96958, 
                            "v": 108, 
                            "dur": 59, 
                            "type": "note", 
                            "channel": 7
                        }
                    ]
                ], 
                [
                    97201, 
                    [
                        {
                            "pitch": 50, 
                            "t0": 97201, 
                            "v": 112, 
                            "dur": 80, 
                            "type": "note", 
                            "channel": 7
                        }
                    ]
                ], 
                [
                    97203, 
                    [
                        {
                            "pitch": 45, 
                            "t0": 97203, 
                            "v": 108, 
                            "dur": 99, 
                            "type": "note", 
                            "channel": 7
                        }
                    ]
                ], 
                [
                    97565, 
                    [
                        {
                            "pitch": 48, 
                            "t0": 97565, 
                            "v": 108, 
                            "dur": 321, 
                            "type": "note", 
                            "channel": 7
                        }
                    ]
                ], 
                [
                    97566, 
                    [
                        {
                            "pitch": 45, 
                            "t0": 97566, 
                            "v": 112, 
                            "dur": 394, 
                            "type": "note", 
                            "channel": 7
                        }
                    ]
                ], 
                [
                    97913, 
                    [
                        {
                            "pitch": 50, 
                            "t0": 97913, 
                            "v": 112, 
                            "dur": 52, 
                            "type": "note", 
                            "channel": 7
                        }
                    ]
                ], 
                [
                    98515, 
                    [
                        {
                            "pitch": 48, 
                            "t0": 98515, 
                            "v": 108, 
                            "dur": 345, 
                            "type": "note", 
                            "channel": 7
                        }
                    ]
                ], 
                [
                    98516, 
                    [
                        {
                            "pitch": 45, 
                            "t0": 98516, 
                            "v": 112, 
                            "dur": 428, 
                            "type": "note", 
                            "channel": 7
                        }
                    ]
                ], 
                [
                    98520, 
                    [
                        {
                            "pitch": 47, 
                            "t0": 98520, 
                            "v": 112, 
                            "dur": 64, 
                            "type": "note", 
                            "channel": 7
                        }
                    ]
                ], 
                [
                    98892, 
                    [
                        {
                            "pitch": 50, 
                            "t0": 98892, 
                            "v": 108, 
                            "dur": 56, 
                            "type": "note", 
                            "channel": 7
                        }
                    ]
                ], 
                [
                    99133, 
                    [
                        {
                            "pitch": 50, 
                            "t0": 99133, 
                            "v": 112, 
                            "dur": 77, 
                            "type": "note", 
                            "channel": 7
                        }
                    ]
                ], 
                [
                    99134, 
                    [
                        {
                            "pitch": 45, 
                            "t0": 99134, 
                            "v": 108, 
                            "dur": 90, 
                            "type": "note", 
                            "channel": 7
                        }
                    ]
                ], 
                [
                    99139, 
                    [
                        {
                            "pitch": 48, 
                            "t0": 99139, 
                            "v": 96, 
                            "dur": 19, 
                            "type": "note", 
                            "channel": 7
                        }
                    ]
                ], 
                [
                    99499, 
                    [
                        {
                            "pitch": 48, 
                            "t0": 99499, 
                            "v": 116, 
                            "dur": 316, 
                            "type": "note", 
                            "channel": 7
                        }
                    ]
                ], 
                [
                    99500, 
                    [
                        {
                            "pitch": 45, 
                            "t0": 99500, 
                            "v": 116, 
                            "dur": 324, 
                            "type": "note", 
                            "channel": 7
                        }
                    ]
                ], 
                [
                    99841, 
                    [
                        {
                            "pitch": 45, 
                            "t0": 99841, 
                            "v": 100, 
                            "dur": 64, 
                            "type": "note", 
                            "channel": 7
                        }
                    ]
                ], 
                [
                    99842, 
                    [
                        {
                            "pitch": 50, 
                            "t0": 99842, 
                            "v": 108, 
                            "dur": 61, 
                            "type": "note", 
                            "channel": 7
                        }
                    ]
                ], 
                [
                    100450, 
                    [
                        {
                            "pitch": 48, 
                            "t0": 100450, 
                            "v": 112, 
                            "dur": 333, 
                            "type": "note", 
                            "channel": 7
                        }
                    ]
                ], 
                [
                    100451, 
                    [
                        {
                            "pitch": 45, 
                            "t0": 100451, 
                            "v": 112, 
                            "dur": 342, 
                            "type": "note", 
                            "channel": 7
                        }
                    ]
                ], 
                [
                    100809, 
                    [
                        {
                            "pitch": 45, 
                            "t0": 100809, 
                            "v": 88, 
                            "dur": 59, 
                            "type": "note", 
                            "channel": 7
                        }, 
                        {
                            "pitch": 50, 
                            "t0": 100809, 
                            "v": 116, 
                            "dur": 63, 
                            "type": "note", 
                            "channel": 7
                        }
                    ]
                ], 
                [
                    101052, 
                    [
                        {
                            "pitch": 50, 
                            "t0": 101052, 
                            "v": 112, 
                            "dur": 73, 
                            "type": "note", 
                            "channel": 7
                        }, 
                        {
                            "pitch": 45, 
                            "t0": 101052, 
                            "v": 108, 
                            "dur": 89, 
                            "type": "note", 
                            "channel": 7
                        }
                    ]
                ], 
                [
                    101416, 
                    [
                        {
                            "pitch": 48, 
                            "t0": 101416, 
                            "v": 104, 
                            "dur": 313, 
                            "type": "note", 
                            "channel": 7
                        }
                    ]
                ], 
                [
                    101418, 
                    [
                        {
                            "pitch": 45, 
                            "t0": 101418, 
                            "v": 108, 
                            "dur": 401, 
                            "type": "note", 
                            "channel": 7
                        }
                    ]
                ], 
                [
                    101760, 
                    [
                        {
                            "pitch": 50, 
                            "t0": 101760, 
                            "v": 112, 
                            "dur": 60, 
                            "type": "note", 
                            "channel": 7
                        }
                    ]
                ], 
                [
                    102365, 
                    [
                        {
                            "pitch": 48, 
                            "t0": 102365, 
                            "v": 112, 
                            "dur": 348, 
                            "type": "note", 
                            "channel": 7
                        }, 
                        {
                            "pitch": 45, 
                            "t0": 102365, 
                            "v": 112, 
                            "dur": 455, 
                            "type": "note", 
                            "channel": 7
                        }
                    ]
                ], 
                [
                    102738, 
                    [
                        {
                            "pitch": 50, 
                            "t0": 102738, 
                            "v": 104, 
                            "dur": 64, 
                            "type": "note", 
                            "channel": 7
                        }
                    ]
                ], 
                [
                    102986, 
                    [
                        {
                            "pitch": 50, 
                            "t0": 102986, 
                            "v": 84, 
                            "dur": 78, 
                            "type": "note", 
                            "channel": 7
                        }
                    ]
                ], 
                [
                    102988, 
                    [
                        {
                            "pitch": 45, 
                            "t0": 102988, 
                            "v": 88, 
                            "dur": 88, 
                            "type": "note", 
                            "channel": 7
                        }
                    ]
                ], 
                [
                    103320, 
                    [
                        {
                            "pitch": 48, 
                            "t0": 103320, 
                            "v": 108, 
                            "dur": 335, 
                            "type": "note", 
                            "channel": 7
                        }
                    ]
                ], 
                [
                    103321, 
                    [
                        {
                            "pitch": 45, 
                            "t0": 103321, 
                            "v": 104, 
                            "dur": 407, 
                            "type": "note", 
                            "channel": 7
                        }
                    ]
                ], 
                [
                    103680, 
                    [
                        {
                            "pitch": 50, 
                            "t0": 103680, 
                            "v": 112, 
                            "dur": 53, 
                            "type": "note", 
                            "channel": 7
                        }
                    ]
                ], 
                [
                    104283, 
                    [
                        {
                            "pitch": 48, 
                            "t0": 104283, 
                            "v": 96, 
                            "dur": 326, 
                            "type": "note", 
                            "channel": 7
                        }
                    ]
                ], 
                [
                    104284, 
                    [
                        {
                            "pitch": 45, 
                            "t0": 104284, 
                            "v": 112, 
                            "dur": 528, 
                            "type": "note", 
                            "channel": 7
                        }
                    ]
                ], 
                [
                    104637, 
                    [
                        {
                            "pitch": 50, 
                            "t0": 104637, 
                            "v": 112, 
                            "dur": 68, 
                            "type": "note", 
                            "channel": 7
                        }
                    ]
                ], 
                [
                    104891, 
                    [
                        {
                            "pitch": 50, 
                            "t0": 104891, 
                            "v": 104, 
                            "dur": 79, 
                            "type": "note", 
                            "channel": 7
                        }
                    ]
                ], 
                [
                    104892, 
                    [
                        {
                            "pitch": 45, 
                            "t0": 104892, 
                            "v": 96, 
                            "dur": 106, 
                            "type": "note", 
                            "channel": 7
                        }
                    ]
                ], 
                [
                    105250, 
                    [
                        {
                            "pitch": 48, 
                            "t0": 105250, 
                            "v": 108, 
                            "dur": 322, 
                            "type": "note", 
                            "channel": 7
                        }
                    ]
                ], 
                [
                    105252, 
                    [
                        {
                            "pitch": 45, 
                            "t0": 105252, 
                            "v": 100, 
                            "dur": 392, 
                            "type": "note", 
                            "channel": 7
                        }
                    ]
                ], 
                [
                    105596, 
                    [
                        {
                            "pitch": 50, 
                            "t0": 105596, 
                            "v": 108, 
                            "dur": 55, 
                            "type": "note", 
                            "channel": 7
                        }
                    ]
                ], 
                [
                    106200, 
                    [
                        {
                            "pitch": 48, 
                            "t0": 106200, 
                            "v": 104, 
                            "dur": 327, 
                            "type": "note", 
                            "channel": 7
                        }
                    ]
                ], 
                [
                    106202, 
                    [
                        {
                            "pitch": 45, 
                            "t0": 106202, 
                            "v": 92, 
                            "dur": 412, 
                            "type": "note", 
                            "channel": 7
                        }
                    ]
                ], 
                [
                    106557, 
                    [
                        {
                            "pitch": 50, 
                            "t0": 106557, 
                            "v": 108, 
                            "dur": 57, 
                            "type": "note", 
                            "channel": 7
                        }
                    ]
                ], 
                [
                    106798, 
                    [
                        {
                            "pitch": 50, 
                            "t0": 106798, 
                            "v": 112, 
                            "dur": 63, 
                            "type": "note", 
                            "channel": 7
                        }
                    ]
                ], 
                [
                    106799, 
                    [
                        {
                            "pitch": 45, 
                            "t0": 106799, 
                            "v": 108, 
                            "dur": 73, 
                            "type": "note", 
                            "channel": 7
                        }
                    ]
                ], 
                [
                    107146, 
                    [
                        {
                            "pitch": 48, 
                            "t0": 107146, 
                            "v": 104, 
                            "dur": 341, 
                            "type": "note", 
                            "channel": 7
                        }
                    ]
                ], 
                [
                    107148, 
                    [
                        {
                            "pitch": 45, 
                            "t0": 107148, 
                            "v": 92, 
                            "dur": 429, 
                            "type": "note", 
                            "channel": 7
                        }
                    ]
                ], 
                [
                    107513, 
                    [
                        {
                            "pitch": 50, 
                            "t0": 107513, 
                            "v": 112, 
                            "dur": 60, 
                            "type": "note", 
                            "channel": 7
                        }
                    ]
                ], 
                [
                    108100, 
                    [
                        {
                            "pitch": 48, 
                            "t0": 108100, 
                            "v": 100, 
                            "dur": 320, 
                            "type": "note", 
                            "channel": 7
                        }
                    ]
                ], 
                [
                    108101, 
                    [
                        {
                            "pitch": 45, 
                            "t0": 108101, 
                            "v": 104, 
                            "dur": 452, 
                            "type": "note", 
                            "channel": 7
                        }
                    ]
                ], 
                [
                    108458, 
                    [
                        {
                            "pitch": 50, 
                            "t0": 108458, 
                            "v": 104, 
                            "dur": 84, 
                            "type": "note", 
                            "channel": 7
                        }
                    ]
                ], 
                [
                    108711, 
                    [
                        {
                            "pitch": 50, 
                            "t0": 108711, 
                            "v": 108, 
                            "dur": 111, 
                            "type": "note", 
                            "channel": 7
                        }
                    ]
                ], 
                [
                    108713, 
                    [
                        {
                            "pitch": 45, 
                            "t0": 108713, 
                            "v": 84, 
                            "dur": 133, 
                            "type": "note", 
                            "channel": 7
                        }
                    ]
                ], 
                [
                    108719, 
                    [
                        {
                            "pitch": 43, 
                            "t0": 108719, 
                            "v": 60, 
                            "dur": 52, 
                            "type": "note", 
                            "channel": 7
                        }
                    ]
                ], 
                [
                    108720, 
                    [
                        {
                            "pitch": 48, 
                            "t0": 108720, 
                            "v": 58, 
                            "dur": 45, 
                            "type": "note", 
                            "channel": 7
                        }
                    ]
                ], 
                [
                    109077, 
                    [
                        {
                            "pitch": 48, 
                            "t0": 109077, 
                            "v": 100, 
                            "dur": 337, 
                            "type": "note", 
                            "channel": 7
                        }
                    ]
                ], 
                [
                    109079, 
                    [
                        {
                            "pitch": 45, 
                            "t0": 109079, 
                            "v": 108, 
                            "dur": 352, 
                            "type": "note", 
                            "channel": 7
                        }
                    ]
                ], 
                [
                    109447, 
                    [
                        {
                            "pitch": 50, 
                            "t0": 109447, 
                            "v": 108, 
                            "dur": 76, 
                            "type": "note", 
                            "channel": 7
                        }
                    ]
                ], 
                [
                    109448, 
                    [
                        {
                            "pitch": 45, 
                            "t0": 109448, 
                            "v": 92, 
                            "dur": 92, 
                            "type": "note", 
                            "channel": 7
                        }
                    ]
                ], 
                [
                    110041, 
                    [
                        {
                            "pitch": 45, 
                            "t0": 110041, 
                            "v": 104, 
                            "dur": 348, 
                            "type": "note", 
                            "channel": 7
                        }
                    ]
                ], 
                [
                    110042, 
                    [
                        {
                            "pitch": 50, 
                            "t0": 110042, 
                            "v": 96, 
                            "dur": 92, 
                            "type": "note", 
                            "channel": 7
                        }, 
                        {
                            "pitch": 48, 
                            "t0": 110042, 
                            "v": 96, 
                            "dur": 335, 
                            "type": "note", 
                            "channel": 7
                        }
                    ]
                ], 
                [
                    110404, 
                    [
                        {
                            "pitch": 45, 
                            "t0": 110404, 
                            "v": 92, 
                            "dur": 179, 
                            "type": "note", 
                            "channel": 7
                        }
                    ]
                ], 
                [
                    110406, 
                    [
                        {
                            "pitch": 50, 
                            "t0": 110406, 
                            "v": 116, 
                            "dur": 73, 
                            "type": "note", 
                            "channel": 7
                        }
                    ]
                ], 
                [
                    110659, 
                    [
                        {
                            "pitch": 50, 
                            "t0": 110659, 
                            "v": 108, 
                            "dur": 89, 
                            "type": "note", 
                            "channel": 7
                        }
                    ]
                ], 
                [
                    110662, 
                    [
                        {
                            "pitch": 45, 
                            "t0": 110662, 
                            "v": 108, 
                            "dur": 102, 
                            "type": "note", 
                            "channel": 7
                        }
                    ]
                ], 
                [
                    111002, 
                    [
                        {
                            "pitch": 48, 
                            "t0": 111002, 
                            "v": 108, 
                            "dur": 335, 
                            "type": "note", 
                            "channel": 7
                        }
                    ]
                ], 
                [
                    111003, 
                    [
                        {
                            "pitch": 45, 
                            "t0": 111003, 
                            "v": 112, 
                            "dur": 350, 
                            "type": "note", 
                            "channel": 7
                        }
                    ]
                ], 
                [
                    111365, 
                    [
                        {
                            "pitch": 45, 
                            "t0": 111365, 
                            "v": 80, 
                            "dur": 56, 
                            "type": "note", 
                            "channel": 7
                        }
                    ]
                ], 
                [
                    111367, 
                    [
                        {
                            "pitch": 50, 
                            "t0": 111367, 
                            "v": 116, 
                            "dur": 55, 
                            "type": "note", 
                            "channel": 7
                        }
                    ]
                ], 
                [
                    111957, 
                    [
                        {
                            "pitch": 45, 
                            "t0": 111957, 
                            "v": 104, 
                            "dur": 340, 
                            "type": "note", 
                            "channel": 7
                        }
                    ]
                ], 
                [
                    111958, 
                    [
                        {
                            "pitch": 50, 
                            "t0": 111958, 
                            "v": 88, 
                            "dur": 90, 
                            "type": "note", 
                            "channel": 7
                        }
                    ]
                ], 
                [
                    111959, 
                    [
                        {
                            "pitch": 48, 
                            "t0": 111959, 
                            "v": 104, 
                            "dur": 334, 
                            "type": "note", 
                            "channel": 7
                        }
                    ]
                ], 
                [
                    111961, 
                    [
                        {
                            "pitch": 47, 
                            "t0": 111961, 
                            "v": 100, 
                            "dur": 86, 
                            "type": "note", 
                            "channel": 7
                        }
                    ]
                ], 
                [
                    112323, 
                    [
                        {
                            "pitch": 45, 
                            "t0": 112323, 
                            "v": 88, 
                            "dur": 104, 
                            "type": "note", 
                            "channel": 7
                        }
                    ]
                ], 
                [
                    112325, 
                    [
                        {
                            "pitch": 50, 
                            "t0": 112325, 
                            "v": 112, 
                            "dur": 79, 
                            "type": "note", 
                            "channel": 7
                        }
                    ]
                ], 
                [
                    112566, 
                    [
                        {
                            "pitch": 50, 
                            "t0": 112566, 
                            "v": 104, 
                            "dur": 91, 
                            "type": "note", 
                            "channel": 7
                        }
                    ]
                ], 
                [
                    112567, 
                    [
                        {
                            "pitch": 45, 
                            "t0": 112567, 
                            "v": 96, 
                            "dur": 107, 
                            "type": "note", 
                            "channel": 7
                        }
                    ]
                ], 
                [
                    112911, 
                    [
                        {
                            "pitch": 48, 
                            "t0": 112911, 
                            "v": 104, 
                            "dur": 353, 
                            "type": "note", 
                            "channel": 7
                        }
                    ]
                ], 
                [
                    112913, 
                    [
                        {
                            "pitch": 45, 
                            "t0": 112913, 
                            "v": 108, 
                            "dur": 358, 
                            "type": "note", 
                            "channel": 7
                        }
                    ]
                ], 
                [
                    113295, 
                    [
                        {
                            "pitch": 45, 
                            "t0": 113295, 
                            "v": 92, 
                            "dur": 130, 
                            "type": "note", 
                            "channel": 7
                        }
                    ]
                ], 
                [
                    113298, 
                    [
                        {
                            "pitch": 50, 
                            "t0": 113298, 
                            "v": 112, 
                            "dur": 87, 
                            "type": "note", 
                            "channel": 7
                        }
                    ]
                ], 
                [
                    113897, 
                    [
                        {
                            "pitch": 48, 
                            "t0": 113897, 
                            "v": 108, 
                            "dur": 338, 
                            "type": "note", 
                            "channel": 7
                        }
                    ]
                ], 
                [
                    113898, 
                    [
                        {
                            "pitch": 45, 
                            "t0": 113898, 
                            "v": 112, 
                            "dur": 353, 
                            "type": "note", 
                            "channel": 7
                        }
                    ]
                ], 
                [
                    114263, 
                    [
                        {
                            "pitch": 50, 
                            "t0": 114263, 
                            "v": 112, 
                            "dur": 75, 
                            "type": "note", 
                            "channel": 7
                        }, 
                        {
                            "pitch": 45, 
                            "t0": 114263, 
                            "v": 68, 
                            "dur": 99, 
                            "type": "note", 
                            "channel": 7
                        }
                    ]
                ], 
                [
                    114502, 
                    [
                        {
                            "pitch": 50, 
                            "t0": 114502, 
                            "v": 108, 
                            "dur": 95, 
                            "type": "note", 
                            "channel": 7
                        }
                    ]
                ], 
                [
                    114503, 
                    [
                        {
                            "pitch": 45, 
                            "t0": 114503, 
                            "v": 108, 
                            "dur": 178, 
                            "type": "note", 
                            "channel": 7
                        }
                    ]
                ], 
                [
                    114510, 
                    [
                        {
                            "pitch": 47, 
                            "t0": 114510, 
                            "v": 88, 
                            "dur": 40, 
                            "type": "note", 
                            "channel": 7
                        }
                    ]
                ], 
                [
                    114839, 
                    [
                        {
                            "pitch": 48, 
                            "t0": 114839, 
                            "v": 108, 
                            "dur": 333, 
                            "type": "note", 
                            "channel": 7
                        }
                    ]
                ], 
                [
                    114840, 
                    [
                        {
                            "pitch": 45, 
                            "t0": 114840, 
                            "v": 112, 
                            "dur": 426, 
                            "type": "note", 
                            "channel": 7
                        }
                    ]
                ], 
                [
                    115197, 
                    [
                        {
                            "pitch": 50, 
                            "t0": 115197, 
                            "v": 108, 
                            "dur": 65, 
                            "type": "note", 
                            "channel": 7
                        }
                    ]
                ], 
                [
                    115778, 
                    [
                        {
                            "pitch": 48, 
                            "t0": 115778, 
                            "v": 96, 
                            "dur": 366, 
                            "type": "note", 
                            "channel": 7
                        }
                    ]
                ], 
                [
                    115779, 
                    [
                        {
                            "pitch": 45, 
                            "t0": 115779, 
                            "v": 112, 
                            "dur": 488, 
                            "type": "note", 
                            "channel": 7
                        }
                    ]
                ], 
                [
                    116162, 
                    [
                        {
                            "pitch": 50, 
                            "t0": 116162, 
                            "v": 96, 
                            "dur": 78, 
                            "type": "note", 
                            "channel": 7
                        }
                    ]
                ], 
                [
                    116400, 
                    [
                        {
                            "pitch": 50, 
                            "t0": 116400, 
                            "v": 108, 
                            "dur": 133, 
                            "type": "note", 
                            "channel": 7
                        }
                    ]
                ], 
                [
                    116401, 
                    [
                        {
                            "pitch": 45, 
                            "t0": 116401, 
                            "v": 104, 
                            "dur": 151, 
                            "type": "note", 
                            "channel": 7
                        }
                    ]
                ], 
                [
                    116407, 
                    [
                        {
                            "pitch": 47, 
                            "t0": 116407, 
                            "v": 92, 
                            "dur": 59, 
                            "type": "note", 
                            "channel": 7
                        }
                    ]
                ], 
                [
                    116759, 
                    [
                        {
                            "pitch": 48, 
                            "t0": 116759, 
                            "v": 108, 
                            "dur": 327, 
                            "type": "note", 
                            "channel": 7
                        }
                    ]
                ], 
                [
                    116761, 
                    [
                        {
                            "pitch": 45, 
                            "t0": 116761, 
                            "v": 92, 
                            "dur": 465, 
                            "type": "note", 
                            "channel": 7
                        }
                    ]
                ], 
                [
                    117121, 
                    [
                        {
                            "pitch": 50, 
                            "t0": 117121, 
                            "v": 104, 
                            "dur": 71, 
                            "type": "note", 
                            "channel": 7
                        }
                    ]
                ], 
                [
                    117727, 
                    [
                        {
                            "pitch": 48, 
                            "t0": 117727, 
                            "v": 100, 
                            "dur": 332, 
                            "type": "note", 
                            "channel": 7
                        }
                    ]
                ], 
                [
                    117730, 
                    [
                        {
                            "pitch": 45, 
                            "t0": 117730, 
                            "v": 108, 
                            "dur": 455, 
                            "type": "note", 
                            "channel": 7
                        }
                    ]
                ], 
                [
                    118093, 
                    [
                        {
                            "pitch": 50, 
                            "t0": 118093, 
                            "v": 112, 
                            "dur": 72, 
                            "type": "note", 
                            "channel": 7
                        }
                    ]
                ], 
                [
                    118327, 
                    [
                        {
                            "pitch": 50, 
                            "t0": 118327, 
                            "v": 112, 
                            "dur": 98, 
                            "type": "note", 
                            "channel": 7
                        }
                    ]
                ], 
                [
                    118329, 
                    [
                        {
                            "pitch": 45, 
                            "t0": 118329, 
                            "v": 112, 
                            "dur": 110, 
                            "type": "note", 
                            "channel": 7
                        }
                    ]
                ], 
                [
                    118672, 
                    [
                        {
                            "pitch": 48, 
                            "t0": 118672, 
                            "v": 108, 
                            "dur": 328, 
                            "type": "note", 
                            "channel": 7
                        }, 
                        {
                            "pitch": 45, 
                            "t0": 118672, 
                            "v": 108, 
                            "dur": 448, 
                            "type": "note", 
                            "channel": 7
                        }
                    ]
                ], 
                [
                    119035, 
                    [
                        {
                            "pitch": 50, 
                            "t0": 119035, 
                            "v": 104, 
                            "dur": 72, 
                            "type": "note", 
                            "channel": 7
                        }
                    ]
                ], 
                [
                    119620, 
                    [
                        {
                            "pitch": 48, 
                            "t0": 119620, 
                            "v": 112, 
                            "dur": 351, 
                            "type": "note", 
                            "channel": 7
                        }
                    ]
                ], 
                [
                    119622, 
                    [
                        {
                            "pitch": 45, 
                            "t0": 119622, 
                            "v": 112, 
                            "dur": 361, 
                            "type": "note", 
                            "channel": 7
                        }
                    ]
                ], 
                [
                    120005, 
                    [
                        {
                            "pitch": 45, 
                            "t0": 120005, 
                            "v": 84, 
                            "dur": 89, 
                            "type": "note", 
                            "channel": 7
                        }
                    ]
                ], 
                [
                    120007, 
                    [
                        {
                            "pitch": 50, 
                            "t0": 120007, 
                            "v": 108, 
                            "dur": 78, 
                            "type": "note", 
                            "channel": 7
                        }
                    ]
                ], 
                [
                    120248, 
                    [
                        {
                            "pitch": 50, 
                            "t0": 120248, 
                            "v": 112, 
                            "dur": 88, 
                            "type": "note", 
                            "channel": 7
                        }
                    ]
                ], 
                [
                    120250, 
                    [
                        {
                            "pitch": 45, 
                            "t0": 120250, 
                            "v": 108, 
                            "dur": 100, 
                            "type": "note", 
                            "channel": 7
                        }
                    ]
                ], 
                [
                    120603, 
                    [
                        {
                            "pitch": 48, 
                            "t0": 120603, 
                            "v": 100, 
                            "dur": 328, 
                            "type": "note", 
                            "channel": 7
                        }
                    ]
                ], 
                [
                    120605, 
                    [
                        {
                            "pitch": 45, 
                            "t0": 120605, 
                            "v": 108, 
                            "dur": 333, 
                            "type": "note", 
                            "channel": 7
                        }
                    ]
                ], 
                [
                    120967, 
                    [
                        {
                            "pitch": 50, 
                            "t0": 120967, 
                            "v": 108, 
                            "dur": 65, 
                            "type": "note", 
                            "channel": 7
                        }, 
                        {
                            "pitch": 45, 
                            "t0": 120967, 
                            "v": 96, 
                            "dur": 66, 
                            "type": "note", 
                            "channel": 7
                        }
                    ]
                ], 
                [
                    121560, 
                    [
                        {
                            "pitch": 48, 
                            "t0": 121560, 
                            "v": 112, 
                            "dur": 327, 
                            "type": "note", 
                            "channel": 7
                        }, 
                        {
                            "pitch": 45, 
                            "t0": 121560, 
                            "v": 116, 
                            "dur": 334, 
                            "type": "note", 
                            "channel": 7
                        }
                    ]
                ], 
                [
                    121924, 
                    [
                        {
                            "pitch": 50, 
                            "t0": 121924, 
                            "v": 104, 
                            "dur": 79, 
                            "type": "note", 
                            "channel": 7
                        }
                    ]
                ], 
                [
                    121926, 
                    [
                        {
                            "pitch": 45, 
                            "t0": 121926, 
                            "v": 96, 
                            "dur": 93, 
                            "type": "note", 
                            "channel": 7
                        }
                    ]
                ], 
                [
                    122161, 
                    [
                        {
                            "pitch": 50, 
                            "t0": 122161, 
                            "v": 112, 
                            "dur": 96, 
                            "type": "note", 
                            "channel": 7
                        }
                    ]
                ], 
                [
                    122164, 
                    [
                        {
                            "pitch": 45, 
                            "t0": 122164, 
                            "v": 108, 
                            "dur": 119, 
                            "type": "note", 
                            "channel": 7
                        }
                    ]
                ], 
                [
                    122168, 
                    [
                        {
                            "pitch": 48, 
                            "t0": 122168, 
                            "v": 72, 
                            "dur": 16, 
                            "type": "note", 
                            "channel": 7
                        }
                    ]
                ], 
                [
                    122525, 
                    [
                        {
                            "pitch": 48, 
                            "t0": 122525, 
                            "v": 112, 
                            "dur": 307, 
                            "type": "note", 
                            "channel": 7
                        }
                    ]
                ], 
                [
                    122526, 
                    [
                        {
                            "pitch": 45, 
                            "t0": 122526, 
                            "v": 112, 
                            "dur": 330, 
                            "type": "note", 
                            "channel": 7
                        }
                    ]
                ], 
                [
                    122872, 
                    [
                        {
                            "pitch": 45, 
                            "t0": 122872, 
                            "v": 84, 
                            "dur": 109, 
                            "type": "note", 
                            "channel": 7
                        }
                    ]
                ], 
                [
                    122873, 
                    [
                        {
                            "pitch": 50, 
                            "t0": 122873, 
                            "v": 120, 
                            "dur": 75, 
                            "type": "note", 
                            "channel": 7
                        }
                    ]
                ], 
                [
                    123491, 
                    [
                        {
                            "pitch": 48, 
                            "t0": 123491, 
                            "v": 112, 
                            "dur": 326, 
                            "type": "note", 
                            "channel": 7
                        }
                    ]
                ], 
                [
                    123493, 
                    [
                        {
                            "pitch": 45, 
                            "t0": 123493, 
                            "v": 112, 
                            "dur": 334, 
                            "type": "note", 
                            "channel": 7
                        }
                    ]
                ], 
                [
                    123847, 
                    [
                        {
                            "pitch": 50, 
                            "t0": 123847, 
                            "v": 116, 
                            "dur": 58, 
                            "type": "note", 
                            "channel": 7
                        }, 
                        {
                            "pitch": 45, 
                            "t0": 123847, 
                            "v": 88, 
                            "dur": 63, 
                            "type": "note", 
                            "channel": 7
                        }
                    ]
                ], 
                [
                    124090, 
                    [
                        {
                            "pitch": 50, 
                            "t0": 124090, 
                            "v": 108, 
                            "dur": 69, 
                            "type": "note", 
                            "channel": 7
                        }
                    ]
                ], 
                [
                    124091, 
                    [
                        {
                            "pitch": 45, 
                            "t0": 124091, 
                            "v": 104, 
                            "dur": 84, 
                            "type": "note", 
                            "channel": 7
                        }
                    ]
                ], 
                [
                    124432, 
                    [
                        {
                            "pitch": 48, 
                            "t0": 124432, 
                            "v": 96, 
                            "dur": 323, 
                            "type": "note", 
                            "channel": 7
                        }
                    ]
                ], 
                [
                    124434, 
                    [
                        {
                            "pitch": 45, 
                            "t0": 124434, 
                            "v": 88, 
                            "dur": 416, 
                            "type": "note", 
                            "channel": 7
                        }
                    ]
                ], 
                [
                    124789, 
                    [
                        {
                            "pitch": 50, 
                            "t0": 124789, 
                            "v": 100, 
                            "dur": 56, 
                            "type": "note", 
                            "channel": 7
                        }
                    ]
                ], 
                [
                    125406, 
                    [
                        {
                            "pitch": 48, 
                            "t0": 125406, 
                            "v": 108, 
                            "dur": 339, 
                            "type": "note", 
                            "channel": 7
                        }
                    ]
                ], 
                [
                    125407, 
                    [
                        {
                            "pitch": 45, 
                            "t0": 125407, 
                            "v": 108, 
                            "dur": 444, 
                            "type": "note", 
                            "channel": 7
                        }
                    ]
                ], 
                [
                    125777, 
                    [
                        {
                            "pitch": 50, 
                            "t0": 125777, 
                            "v": 108, 
                            "dur": 68, 
                            "type": "note", 
                            "channel": 7
                        }
                    ]
                ], 
                [
                    126016, 
                    [
                        {
                            "pitch": 50, 
                            "t0": 126016, 
                            "v": 108, 
                            "dur": 88, 
                            "type": "note", 
                            "channel": 7
                        }
                    ]
                ], 
                [
                    126019, 
                    [
                        {
                            "pitch": 45, 
                            "t0": 126019, 
                            "v": 100, 
                            "dur": 107, 
                            "type": "note", 
                            "channel": 7
                        }
                    ]
                ], 
                [
                    126359, 
                    [
                        {
                            "pitch": 48, 
                            "t0": 126359, 
                            "v": 104, 
                            "dur": 314, 
                            "type": "note", 
                            "channel": 7
                        }
                    ]
                ], 
                [
                    126360, 
                    [
                        {
                            "pitch": 45, 
                            "t0": 126360, 
                            "v": 104, 
                            "dur": 445, 
                            "type": "note", 
                            "channel": 7
                        }
                    ]
                ], 
                [
                    126703, 
                    [
                        {
                            "pitch": 50, 
                            "t0": 126703, 
                            "v": 108, 
                            "dur": 59, 
                            "type": "note", 
                            "channel": 7
                        }
                    ]
                ], 
                [
                    126960, 
                    [
                        {
                            "pitch": 50, 
                            "t0": 126960, 
                            "v": 104, 
                            "dur": 50, 
                            "type": "note", 
                            "channel": 7
                        }
                    ]
                ], 
                [
                    126961, 
                    [
                        {
                            "pitch": 45, 
                            "t0": 126961, 
                            "v": 68, 
                            "dur": 60, 
                            "type": "note", 
                            "channel": 7
                        }
                    ]
                ], 
                [
                    126967, 
                    [
                        {
                            "pitch": 47, 
                            "t0": 126967, 
                            "v": 88, 
                            "dur": 33, 
                            "type": "note", 
                            "channel": 7
                        }
                    ]
                ], 
                [
                    127328, 
                    [
                        {
                            "pitch": 48, 
                            "t0": 127328, 
                            "v": 108, 
                            "dur": 326, 
                            "type": "note", 
                            "channel": 7
                        }, 
                        {
                            "pitch": 45, 
                            "t0": 127328, 
                            "v": 100, 
                            "dur": 435, 
                            "type": "note", 
                            "channel": 7
                        }
                    ]
                ], 
                [
                    127687, 
                    [
                        {
                            "pitch": 50, 
                            "t0": 127687, 
                            "v": 104, 
                            "dur": 63, 
                            "type": "note", 
                            "channel": 7
                        }
                    ]
                ], 
                [
                    127912, 
                    [
                        {
                            "pitch": 50, 
                            "t0": 127912, 
                            "v": 104, 
                            "dur": 75, 
                            "type": "note", 
                            "channel": 7
                        }, 
                        {
                            "pitch": 45, 
                            "t0": 127912, 
                            "v": 92, 
                            "dur": 95, 
                            "type": "note", 
                            "channel": 7
                        }
                    ]
                ], 
                [
                    128276, 
                    [
                        {
                            "pitch": 48, 
                            "t0": 128276, 
                            "v": 100, 
                            "dur": 322, 
                            "type": "note", 
                            "channel": 7
                        }
                    ]
                ], 
                [
                    128277, 
                    [
                        {
                            "pitch": 45, 
                            "t0": 128277, 
                            "v": 104, 
                            "dur": 336, 
                            "type": "note", 
                            "channel": 7
                        }
                    ]
                ], 
                [
                    128633, 
                    [
                        {
                            "pitch": 50, 
                            "t0": 128633, 
                            "v": 108, 
                            "dur": 68, 
                            "type": "note", 
                            "channel": 7
                        }
                    ]
                ], 
                [
                    128634, 
                    [
                        {
                            "pitch": 45, 
                            "t0": 128634, 
                            "v": 84, 
                            "dur": 82, 
                            "type": "note", 
                            "channel": 7
                        }
                    ]
                ], 
                [
                    128885, 
                    [
                        {
                            "pitch": 50, 
                            "t0": 128885, 
                            "v": 112, 
                            "dur": 89, 
                            "type": "note", 
                            "channel": 7
                        }
                    ]
                ], 
                [
                    128886, 
                    [
                        {
                            "pitch": 45, 
                            "t0": 128886, 
                            "v": 100, 
                            "dur": 115, 
                            "type": "note", 
                            "channel": 7
                        }
                    ]
                ], 
                [
                    129251, 
                    [
                        {
                            "pitch": 48, 
                            "t0": 129251, 
                            "v": 108, 
                            "dur": 335, 
                            "type": "note", 
                            "channel": 7
                        }
                    ]
                ], 
                [
                    129252, 
                    [
                        {
                            "pitch": 45, 
                            "t0": 129252, 
                            "v": 104, 
                            "dur": 345, 
                            "type": "note", 
                            "channel": 7
                        }
                    ]
                ], 
                [
                    129614, 
                    [
                        {
                            "pitch": 50, 
                            "t0": 129614, 
                            "v": 104, 
                            "dur": 72, 
                            "type": "note", 
                            "channel": 7
                        }, 
                        {
                            "pitch": 45, 
                            "t0": 129614, 
                            "v": 84, 
                            "dur": 90, 
                            "type": "note", 
                            "channel": 7
                        }
                    ]
                ], 
                [
                    129847, 
                    [
                        {
                            "pitch": 50, 
                            "t0": 129847, 
                            "v": 88, 
                            "dur": 92, 
                            "type": "note", 
                            "channel": 7
                        }
                    ]
                ], 
                [
                    129849, 
                    [
                        {
                            "pitch": 45, 
                            "t0": 129849, 
                            "v": 80, 
                            "dur": 107, 
                            "type": "note", 
                            "channel": 7
                        }
                    ]
                ], 
                [
                    130202, 
                    [
                        {
                            "pitch": 48, 
                            "t0": 130202, 
                            "v": 112, 
                            "dur": 318, 
                            "type": "note", 
                            "channel": 7
                        }
                    ]
                ], 
                [
                    130203, 
                    [
                        {
                            "pitch": 45, 
                            "t0": 130203, 
                            "v": 96, 
                            "dur": 440, 
                            "type": "note", 
                            "channel": 7
                        }
                    ]
                ], 
                [
                    130551, 
                    [
                        {
                            "pitch": 50, 
                            "t0": 130551, 
                            "v": 108, 
                            "dur": 77, 
                            "type": "note", 
                            "channel": 7
                        }
                    ]
                ], 
                [
                    130784, 
                    [
                        {
                            "pitch": 50, 
                            "t0": 130784, 
                            "v": 100, 
                            "dur": 77, 
                            "type": "note", 
                            "channel": 7
                        }, 
                        {
                            "pitch": 45, 
                            "t0": 130784, 
                            "v": 72, 
                            "dur": 149, 
                            "type": "note", 
                            "channel": 7
                        }
                    ]
                ], 
                [
                    131169, 
                    [
                        {
                            "pitch": 45, 
                            "t0": 131169, 
                            "v": 54, 
                            "dur": 519, 
                            "type": "note", 
                            "channel": 7
                        }
                    ]
                ], 
                [
                    131170, 
                    [
                        {
                            "pitch": 48, 
                            "t0": 131170, 
                            "v": 80, 
                            "dur": 326, 
                            "type": "note", 
                            "channel": 7
                        }
                    ]
                ], 
                [
                    131524, 
                    [
                        {
                            "pitch": 50, 
                            "t0": 131524, 
                            "v": 88, 
                            "dur": 68, 
                            "type": "note", 
                            "channel": 7
                        }
                    ]
                ], 
                [
                    131761, 
                    [
                        {
                            "pitch": 50, 
                            "t0": 131761, 
                            "v": 84, 
                            "dur": 176, 
                            "type": "note", 
                            "channel": 7
                        }
                    ]
                ], 
                [
                    131763, 
                    [
                        {
                            "pitch": 45, 
                            "t0": 131763, 
                            "v": 68, 
                            "dur": 310, 
                            "type": "note", 
                            "channel": 7
                        }
                    ]
                ], 
                [
                    132099, 
                    [
                        {
                            "pitch": 48, 
                            "t0": 132099, 
                            "v": 104, 
                            "dur": 305, 
                            "type": "note", 
                            "channel": 7
                        }
                    ]
                ], 
                [
                    132101, 
                    [
                        {
                            "pitch": 45, 
                            "t0": 132101, 
                            "v": 76, 
                            "dur": 4660, 
                            "type": "note", 
                            "channel": 7
                        }
                    ]
                ], 
                [
                    132439, 
                    [
                        {
                            "pitch": 50, 
                            "t0": 132439, 
                            "v": 88, 
                            "dur": 96, 
                            "type": "note", 
                            "channel": 7
                        }
                    ]
                ], 
                [
                    132681, 
                    [
                        {
                            "pitch": 50, 
                            "t0": 132681, 
                            "v": 76, 
                            "dur": 1265, 
                            "type": "note", 
                            "channel": 7
                        }
                    ]
                ], 
                [
                    133826, 
                    [
                        {
                            "pitch": 52, 
                            "t0": 133826, 
                            "v": 64, 
                            "dur": 2980, 
                            "type": "note", 
                            "channel": 7
                        }
                    ]
                ]
            ], 
            "instruments": [
                52
            ], 
            "tMax": 133826, 
            "channels": [
                7
            ], 
            "instrument": 52, 
            "numNotes": 631, 
            "type": "TrackObj"
        }, 
        {
            "trackName": "Woodblocks", 
            "seq": [
                [
                    0, 
                    [
                        {
                            "instrument": 32, 
                            "type": "programChange", 
                            "t0": 0, 
                            "channel": 9
                        }
                    ]
                ], 
                [
                    1098, 
                    [
                        {
                            "instrument": 32, 
                            "type": "programChange", 
                            "t0": 1098, 
                            "channel": 9
                        }, 
                        {
                            "pitch": 77, 
                            "t0": 1098, 
                            "v": 8, 
                            "dur": 17, 
                            "type": "note", 
                            "channel": 9
                        }
                    ]
                ], 
                [
                    1219, 
                    [
                        {
                            "pitch": 76, 
                            "t0": 1219, 
                            "v": 23, 
                            "dur": 35, 
                            "type": "note", 
                            "channel": 9
                        }
                    ]
                ], 
                [
                    1221, 
                    [
                        {
                            "pitch": 77, 
                            "t0": 1221, 
                            "v": 24, 
                            "dur": 34, 
                            "type": "note", 
                            "channel": 9
                        }
                    ]
                ], 
                [
                    1579, 
                    [
                        {
                            "pitch": 76, 
                            "t0": 1579, 
                            "v": 24, 
                            "dur": 39, 
                            "type": "note", 
                            "channel": 9
                        }, 
                        {
                            "pitch": 77, 
                            "t0": 1579, 
                            "v": 24, 
                            "dur": 41, 
                            "type": "note", 
                            "channel": 9
                        }
                    ]
                ], 
                [
                    2192, 
                    [
                        {
                            "pitch": 77, 
                            "t0": 2192, 
                            "v": 15, 
                            "dur": 20, 
                            "type": "note", 
                            "channel": 9
                        }
                    ]
                ], 
                [
                    2194, 
                    [
                        {
                            "pitch": 76, 
                            "t0": 2194, 
                            "v": 10, 
                            "dur": 14, 
                            "type": "note", 
                            "channel": 9
                        }
                    ]
                ], 
                [
                    2248, 
                    [
                        {
                            "pitch": 76, 
                            "t0": 2248, 
                            "v": 19, 
                            "dur": 21, 
                            "type": "note", 
                            "channel": 9
                        }, 
                        {
                            "pitch": 77, 
                            "t0": 2248, 
                            "v": 18, 
                            "dur": 24, 
                            "type": "note", 
                            "channel": 9
                        }
                    ]
                ], 
                [
                    2299, 
                    [
                        {
                            "pitch": 77, 
                            "t0": 2299, 
                            "v": 18, 
                            "dur": 39, 
                            "type": "note", 
                            "channel": 9
                        }
                    ]
                ], 
                [
                    2301, 
                    [
                        {
                            "pitch": 76, 
                            "t0": 2301, 
                            "v": 19, 
                            "dur": 35, 
                            "type": "note", 
                            "channel": 9
                        }
                    ]
                ], 
                [
                    2429, 
                    [
                        {
                            "pitch": 77, 
                            "t0": 2429, 
                            "v": 28, 
                            "dur": 51, 
                            "type": "note", 
                            "channel": 9
                        }
                    ]
                ], 
                [
                    2430, 
                    [
                        {
                            "pitch": 76, 
                            "t0": 2430, 
                            "v": 27, 
                            "dur": 32, 
                            "type": "note", 
                            "channel": 9
                        }
                    ]
                ], 
                [
                    2538, 
                    [
                        {
                            "pitch": 76, 
                            "t0": 2538, 
                            "v": 20, 
                            "dur": 21, 
                            "type": "note", 
                            "channel": 9
                        }
                    ]
                ], 
                [
                    2658, 
                    [
                        {
                            "pitch": 76, 
                            "t0": 2658, 
                            "v": 27, 
                            "dur": 38, 
                            "type": "note", 
                            "channel": 9
                        }
                    ]
                ], 
                [
                    3125, 
                    [
                        {
                            "pitch": 77, 
                            "t0": 3125, 
                            "v": 19, 
                            "dur": 22, 
                            "type": "note", 
                            "channel": 9
                        }
                    ]
                ], 
                [
                    3184, 
                    [
                        {
                            "pitch": 77, 
                            "t0": 3184, 
                            "v": 14, 
                            "dur": 25, 
                            "type": "note", 
                            "channel": 9
                        }
                    ]
                ], 
                [
                    3185, 
                    [
                        {
                            "pitch": 76, 
                            "t0": 3185, 
                            "v": 18, 
                            "dur": 26, 
                            "type": "note", 
                            "channel": 9
                        }
                    ]
                ], 
                [
                    3244, 
                    [
                        {
                            "pitch": 77, 
                            "t0": 3244, 
                            "v": 24, 
                            "dur": 39, 
                            "type": "note", 
                            "channel": 9
                        }
                    ]
                ], 
                [
                    3248, 
                    [
                        {
                            "pitch": 76, 
                            "t0": 3248, 
                            "v": 18, 
                            "dur": 18, 
                            "type": "note", 
                            "channel": 9
                        }
                    ]
                ], 
                [
                    3378, 
                    [
                        {
                            "pitch": 76, 
                            "t0": 3378, 
                            "v": 32, 
                            "dur": 42, 
                            "type": "note", 
                            "channel": 9
                        }
                    ]
                ], 
                [
                    3624, 
                    [
                        {
                            "pitch": 76, 
                            "t0": 3624, 
                            "v": 31, 
                            "dur": 37, 
                            "type": "note", 
                            "channel": 9
                        }
                    ]
                ], 
                [
                    3628, 
                    [
                        {
                            "pitch": 77, 
                            "t0": 3628, 
                            "v": 31, 
                            "dur": 28, 
                            "type": "note", 
                            "channel": 9
                        }
                    ]
                ], 
                [
                    4113, 
                    [
                        {
                            "pitch": 77, 
                            "t0": 4113, 
                            "v": 18, 
                            "dur": 14, 
                            "type": "note", 
                            "channel": 9
                        }
                    ]
                ], 
                [
                    4169, 
                    [
                        {
                            "pitch": 77, 
                            "t0": 4169, 
                            "v": 24, 
                            "dur": 27, 
                            "type": "note", 
                            "channel": 9
                        }
                    ]
                ], 
                [
                    4173, 
                    [
                        {
                            "pitch": 76, 
                            "t0": 4173, 
                            "v": 22, 
                            "dur": 22, 
                            "type": "note", 
                            "channel": 9
                        }
                    ]
                ], 
                [
                    4221, 
                    [
                        {
                            "pitch": 77, 
                            "t0": 4221, 
                            "v": 28, 
                            "dur": 44, 
                            "type": "note", 
                            "channel": 9
                        }
                    ]
                ], 
                [
                    4350, 
                    [
                        {
                            "pitch": 76, 
                            "t0": 4350, 
                            "v": 34, 
                            "dur": 41, 
                            "type": "note", 
                            "channel": 9
                        }
                    ]
                ], 
                [
                    4356, 
                    [
                        {
                            "pitch": 77, 
                            "t0": 4356, 
                            "v": 24, 
                            "dur": 20, 
                            "type": "note", 
                            "channel": 9
                        }
                    ]
                ], 
                [
                    4459, 
                    [
                        {
                            "pitch": 77, 
                            "t0": 4459, 
                            "v": 34, 
                            "dur": 34, 
                            "type": "note", 
                            "channel": 9
                        }
                    ]
                ], 
                [
                    4463, 
                    [
                        {
                            "pitch": 76, 
                            "t0": 4463, 
                            "v": 15, 
                            "dur": 14, 
                            "type": "note", 
                            "channel": 9
                        }
                    ]
                ], 
                [
                    4580, 
                    [
                        {
                            "pitch": 77, 
                            "t0": 4580, 
                            "v": 37, 
                            "dur": 42, 
                            "type": "note", 
                            "channel": 9
                        }
                    ]
                ], 
                [
                    5051, 
                    [
                        {
                            "pitch": 76, 
                            "t0": 5051, 
                            "v": 21, 
                            "dur": 22, 
                            "type": "note", 
                            "channel": 9
                        }
                    ]
                ], 
                [
                    5115, 
                    [
                        {
                            "pitch": 77, 
                            "t0": 5115, 
                            "v": 24, 
                            "dur": 29, 
                            "type": "note", 
                            "channel": 9
                        }
                    ]
                ], 
                [
                    5116, 
                    [
                        {
                            "pitch": 76, 
                            "t0": 5116, 
                            "v": 24, 
                            "dur": 23, 
                            "type": "note", 
                            "channel": 9
                        }
                    ]
                ], 
                [
                    5166, 
                    [
                        {
                            "pitch": 76, 
                            "t0": 5166, 
                            "v": 27, 
                            "dur": 38, 
                            "type": "note", 
                            "channel": 9
                        }
                    ]
                ], 
                [
                    5176, 
                    [
                        {
                            "pitch": 77, 
                            "t0": 5176, 
                            "v": 18, 
                            "dur": 20, 
                            "type": "note", 
                            "channel": 9
                        }
                    ]
                ], 
                [
                    5300, 
                    [
                        {
                            "pitch": 77, 
                            "t0": 5300, 
                            "v": 36, 
                            "dur": 43, 
                            "type": "note", 
                            "channel": 9
                        }
                    ]
                ], 
                [
                    5306, 
                    [
                        {
                            "pitch": 76, 
                            "t0": 5306, 
                            "v": 35, 
                            "dur": 21, 
                            "type": "note", 
                            "channel": 9
                        }
                    ]
                ], 
                [
                    5541, 
                    [
                        {
                            "pitch": 76, 
                            "t0": 5541, 
                            "v": 37, 
                            "dur": 38, 
                            "type": "note", 
                            "channel": 9
                        }
                    ]
                ], 
                [
                    5542, 
                    [
                        {
                            "pitch": 77, 
                            "t0": 5542, 
                            "v": 37, 
                            "dur": 37, 
                            "type": "note", 
                            "channel": 9
                        }
                    ]
                ], 
                [
                    6009, 
                    [
                        {
                            "pitch": 77, 
                            "t0": 6009, 
                            "v": 22, 
                            "dur": 27, 
                            "type": "note", 
                            "channel": 9
                        }
                    ]
                ], 
                [
                    6059, 
                    [
                        {
                            "pitch": 77, 
                            "t0": 6059, 
                            "v": 15, 
                            "dur": 17, 
                            "type": "note", 
                            "channel": 9
                        }
                    ]
                ], 
                [
                    6140, 
                    [
                        {
                            "pitch": 77, 
                            "t0": 6140, 
                            "v": 37, 
                            "dur": 30, 
                            "type": "note", 
                            "channel": 9
                        }
                    ]
                ], 
                [
                    6257, 
                    [
                        {
                            "pitch": 77, 
                            "t0": 6257, 
                            "v": 38, 
                            "dur": 34, 
                            "type": "note", 
                            "channel": 9
                        }
                    ]
                ], 
                [
                    6362, 
                    [
                        {
                            "pitch": 77, 
                            "t0": 6362, 
                            "v": 32, 
                            "dur": 39, 
                            "type": "note", 
                            "channel": 9
                        }
                    ]
                ], 
                [
                    6488, 
                    [
                        {
                            "pitch": 76, 
                            "t0": 6488, 
                            "v": 40, 
                            "dur": 75, 
                            "type": "note", 
                            "channel": 9
                        }
                    ]
                ], 
                [
                    6864, 
                    [
                        {
                            "pitch": 76, 
                            "t0": 6864, 
                            "v": 23, 
                            "dur": 23, 
                            "type": "note", 
                            "channel": 9
                        }
                    ]
                ], 
                [
                    6884, 
                    [
                        {
                            "pitch": 77, 
                            "t0": 6884, 
                            "v": 16, 
                            "dur": 24, 
                            "type": "note", 
                            "channel": 9
                        }
                    ]
                ], 
                [
                    6915, 
                    [
                        {
                            "pitch": 76, 
                            "t0": 6915, 
                            "v": 31, 
                            "dur": 38, 
                            "type": "note", 
                            "channel": 9
                        }
                    ]
                ], 
                [
                    6947, 
                    [
                        {
                            "pitch": 77, 
                            "t0": 6947, 
                            "v": 30, 
                            "dur": 67, 
                            "type": "note", 
                            "channel": 9
                        }
                    ]
                ], 
                [
                    7092, 
                    [
                        {
                            "pitch": 76, 
                            "t0": 7092, 
                            "v": 40, 
                            "dur": 32, 
                            "type": "note", 
                            "channel": 9
                        }
                    ]
                ], 
                [
                    7213, 
                    [
                        {
                            "pitch": 77, 
                            "t0": 7213, 
                            "v": 39, 
                            "dur": 56, 
                            "type": "note", 
                            "channel": 9
                        }
                    ]
                ], 
                [
                    7320, 
                    [
                        {
                            "pitch": 77, 
                            "t0": 7320, 
                            "v": 41, 
                            "dur": 43, 
                            "type": "note", 
                            "channel": 9
                        }
                    ]
                ], 
                [
                    7332, 
                    [
                        {
                            "pitch": 76, 
                            "t0": 7332, 
                            "v": 25, 
                            "dur": 22, 
                            "type": "note", 
                            "channel": 9
                        }
                    ]
                ], 
                [
                    7436, 
                    [
                        {
                            "pitch": 76, 
                            "t0": 7436, 
                            "v": 43, 
                            "dur": 40, 
                            "type": "note", 
                            "channel": 9
                        }
                    ]
                ], 
                [
                    7438, 
                    [
                        {
                            "pitch": 77, 
                            "t0": 7438, 
                            "v": 45, 
                            "dur": 40, 
                            "type": "note", 
                            "channel": 9
                        }
                    ]
                ], 
                [
                    7809, 
                    [
                        {
                            "pitch": 77, 
                            "t0": 7809, 
                            "v": 41, 
                            "dur": 45, 
                            "type": "note", 
                            "channel": 9
                        }
                    ]
                ], 
                [
                    7813, 
                    [
                        {
                            "pitch": 76, 
                            "t0": 7813, 
                            "v": 19, 
                            "dur": 17, 
                            "type": "note", 
                            "channel": 9
                        }
                    ]
                ], 
                [
                    8178, 
                    [
                        {
                            "pitch": 77, 
                            "t0": 8178, 
                            "v": 49, 
                            "dur": 58, 
                            "type": "note", 
                            "channel": 9
                        }
                    ]
                ], 
                [
                    8408, 
                    [
                        {
                            "pitch": 77, 
                            "t0": 8408, 
                            "v": 50, 
                            "dur": 55, 
                            "type": "note", 
                            "channel": 9
                        }
                    ]
                ], 
                [
                    8782, 
                    [
                        {
                            "pitch": 77, 
                            "t0": 8782, 
                            "v": 49, 
                            "dur": 94, 
                            "type": "note", 
                            "channel": 9
                        }
                    ]
                ], 
                [
                    9020, 
                    [
                        {
                            "pitch": 77, 
                            "t0": 9020, 
                            "v": 43, 
                            "dur": 25, 
                            "type": "note", 
                            "channel": 9
                        }
                    ]
                ], 
                [
                    9128, 
                    [
                        {
                            "pitch": 77, 
                            "t0": 9128, 
                            "v": 42, 
                            "dur": 41, 
                            "type": "note", 
                            "channel": 9
                        }
                    ]
                ], 
                [
                    9194, 
                    [
                        {
                            "pitch": 77, 
                            "t0": 9194, 
                            "v": 33, 
                            "dur": 30, 
                            "type": "note", 
                            "channel": 9
                        }
                    ]
                ], 
                [
                    9199, 
                    [
                        {
                            "pitch": 76, 
                            "t0": 9199, 
                            "v": 52, 
                            "dur": 89, 
                            "type": "note", 
                            "channel": 9
                        }
                    ]
                ], 
                [
                    9366, 
                    [
                        {
                            "pitch": 77, 
                            "t0": 9366, 
                            "v": 48, 
                            "dur": 59, 
                            "type": "note", 
                            "channel": 9
                        }
                    ]
                ], 
                [
                    9737, 
                    [
                        {
                            "pitch": 77, 
                            "t0": 9737, 
                            "v": 37, 
                            "dur": 34, 
                            "type": "note", 
                            "channel": 9
                        }
                    ]
                ], 
                [
                    9744, 
                    [
                        {
                            "pitch": 76, 
                            "t0": 9744, 
                            "v": 30, 
                            "dur": 20, 
                            "type": "note", 
                            "channel": 9
                        }
                    ]
                ], 
                [
                    9783, 
                    [
                        {
                            "pitch": 76, 
                            "t0": 9783, 
                            "v": 16, 
                            "dur": 24, 
                            "type": "note", 
                            "channel": 9
                        }
                    ]
                ], 
                [
                    9819, 
                    [
                        {
                            "pitch": 77, 
                            "t0": 9819, 
                            "v": 37, 
                            "dur": 46, 
                            "type": "note", 
                            "channel": 9
                        }
                    ]
                ], 
                [
                    9849, 
                    [
                        {
                            "pitch": 76, 
                            "t0": 9849, 
                            "v": 42, 
                            "dur": 54, 
                            "type": "note", 
                            "channel": 9
                        }
                    ]
                ], 
                [
                    9976, 
                    [
                        {
                            "pitch": 77, 
                            "t0": 9976, 
                            "v": 49, 
                            "dur": 43, 
                            "type": "note", 
                            "channel": 9
                        }
                    ]
                ], 
                [
                    10104, 
                    [
                        {
                            "pitch": 77, 
                            "t0": 10104, 
                            "v": 50, 
                            "dur": 50, 
                            "type": "note", 
                            "channel": 9
                        }
                    ]
                ], 
                [
                    10211, 
                    [
                        {
                            "pitch": 76, 
                            "t0": 10211, 
                            "v": 46, 
                            "dur": 28, 
                            "type": "note", 
                            "channel": 9
                        }
                    ]
                ], 
                [
                    10332, 
                    [
                        {
                            "pitch": 76, 
                            "t0": 10332, 
                            "v": 56, 
                            "dur": 64, 
                            "type": "note", 
                            "channel": 9
                        }, 
                        {
                            "pitch": 77, 
                            "t0": 10332, 
                            "v": 57, 
                            "dur": 71, 
                            "type": "note", 
                            "channel": 9
                        }
                    ]
                ], 
                [
                    10695, 
                    [
                        {
                            "pitch": 77, 
                            "t0": 10695, 
                            "v": 55, 
                            "dur": 82, 
                            "type": "note", 
                            "channel": 9
                        }
                    ]
                ], 
                [
                    10703, 
                    [
                        {
                            "pitch": 76, 
                            "t0": 10703, 
                            "v": 44, 
                            "dur": 19, 
                            "type": "note", 
                            "channel": 9
                        }
                    ]
                ], 
                [
                    11048, 
                    [
                        {
                            "pitch": 77, 
                            "t0": 11048, 
                            "v": 61, 
                            "dur": 45, 
                            "type": "note", 
                            "channel": 9
                        }
                    ]
                ], 
                [
                    11158, 
                    [
                        {
                            "pitch": 77, 
                            "t0": 11158, 
                            "v": 53, 
                            "dur": 40, 
                            "type": "note", 
                            "channel": 9
                        }
                    ]
                ], 
                [
                    11289, 
                    [
                        {
                            "pitch": 77, 
                            "t0": 11289, 
                            "v": 59, 
                            "dur": 35, 
                            "type": "note", 
                            "channel": 9
                        }
                    ]
                ], 
                [
                    11669, 
                    [
                        {
                            "pitch": 77, 
                            "t0": 11669, 
                            "v": 28, 
                            "dur": 21, 
                            "type": "note", 
                            "channel": 9
                        }
                    ]
                ], 
                [
                    11705, 
                    [
                        {
                            "pitch": 76, 
                            "t0": 11705, 
                            "v": 9, 
                            "dur": 31, 
                            "type": "note", 
                            "channel": 9
                        }
                    ]
                ], 
                [
                    11709, 
                    [
                        {
                            "pitch": 77, 
                            "t0": 11709, 
                            "v": 18, 
                            "dur": 27, 
                            "type": "note", 
                            "channel": 9
                        }
                    ]
                ], 
                [
                    11747, 
                    [
                        {
                            "pitch": 77, 
                            "t0": 11747, 
                            "v": 28, 
                            "dur": 35, 
                            "type": "note", 
                            "channel": 9
                        }
                    ]
                ], 
                [
                    11764, 
                    [
                        {
                            "pitch": 76, 
                            "t0": 11764, 
                            "v": 34, 
                            "dur": 70, 
                            "type": "note", 
                            "channel": 9
                        }
                    ]
                ], 
                [
                    11894, 
                    [
                        {
                            "pitch": 77, 
                            "t0": 11894, 
                            "v": 55, 
                            "dur": 39, 
                            "type": "note", 
                            "channel": 9
                        }
                    ]
                ], 
                [
                    12013, 
                    [
                        {
                            "pitch": 77, 
                            "t0": 12013, 
                            "v": 62, 
                            "dur": 51, 
                            "type": "note", 
                            "channel": 9
                        }
                    ]
                ], 
                [
                    12140, 
                    [
                        {
                            "pitch": 77, 
                            "t0": 12140, 
                            "v": 56, 
                            "dur": 32, 
                            "type": "note", 
                            "channel": 9
                        }
                    ]
                ], 
                [
                    12248, 
                    [
                        {
                            "pitch": 77, 
                            "t0": 12248, 
                            "v": 56, 
                            "dur": 53, 
                            "type": "note", 
                            "channel": 9
                        }
                    ]
                ], 
                [
                    12365, 
                    [
                        {
                            "pitch": 76, 
                            "t0": 12365, 
                            "v": 59, 
                            "dur": 38, 
                            "type": "note", 
                            "channel": 9
                        }
                    ]
                ], 
                [
                    12373, 
                    [
                        {
                            "pitch": 77, 
                            "t0": 12373, 
                            "v": 24, 
                            "dur": 21, 
                            "type": "note", 
                            "channel": 9
                        }
                    ]
                ], 
                [
                    12734, 
                    [
                        {
                            "pitch": 76, 
                            "t0": 12734, 
                            "v": 43, 
                            "dur": 36, 
                            "type": "note", 
                            "channel": 9
                        }, 
                        {
                            "pitch": 77, 
                            "t0": 12734, 
                            "v": 53, 
                            "dur": 40, 
                            "type": "note", 
                            "channel": 9
                        }
                    ]
                ], 
                [
                    13089, 
                    [
                        {
                            "pitch": 77, 
                            "t0": 13089, 
                            "v": 63, 
                            "dur": 56, 
                            "type": "note", 
                            "channel": 9
                        }
                    ]
                ], 
                [
                    13095, 
                    [
                        {
                            "pitch": 76, 
                            "t0": 13095, 
                            "v": 55, 
                            "dur": 33, 
                            "type": "note", 
                            "channel": 9
                        }
                    ]
                ], 
                [
                    13452, 
                    [
                        {
                            "pitch": 77, 
                            "t0": 13452, 
                            "v": 60, 
                            "dur": 44, 
                            "type": "note", 
                            "channel": 9
                        }
                    ]
                ], 
                [
                    13454, 
                    [
                        {
                            "pitch": 76, 
                            "t0": 13454, 
                            "v": 51, 
                            "dur": 38, 
                            "type": "note", 
                            "channel": 9
                        }
                    ]
                ], 
                [
                    13565, 
                    [
                        {
                            "pitch": 77, 
                            "t0": 13565, 
                            "v": 46, 
                            "dur": 73, 
                            "type": "note", 
                            "channel": 9
                        }
                    ]
                ], 
                [
                    13573, 
                    [
                        {
                            "pitch": 76, 
                            "t0": 13573, 
                            "v": 25, 
                            "dur": 63, 
                            "type": "note", 
                            "channel": 9
                        }
                    ]
                ], 
                [
                    13811, 
                    [
                        {
                            "pitch": 77, 
                            "t0": 13811, 
                            "v": 61, 
                            "dur": 74, 
                            "type": "note", 
                            "channel": 9
                        }
                    ]
                ], 
                [
                    13812, 
                    [
                        {
                            "pitch": 76, 
                            "t0": 13812, 
                            "v": 50, 
                            "dur": 73, 
                            "type": "note", 
                            "channel": 9
                        }
                    ]
                ], 
                [
                    14041, 
                    [
                        {
                            "pitch": 77, 
                            "t0": 14041, 
                            "v": 57, 
                            "dur": 160, 
                            "type": "note", 
                            "channel": 9
                        }
                    ]
                ], 
                [
                    14042, 
                    [
                        {
                            "pitch": 76, 
                            "t0": 14042, 
                            "v": 52, 
                            "dur": 29, 
                            "type": "note", 
                            "channel": 9
                        }
                    ]
                ], 
                [
                    14659, 
                    [
                        {
                            "pitch": 77, 
                            "t0": 14659, 
                            "v": 68, 
                            "dur": 93, 
                            "type": "note", 
                            "channel": 9
                        }
                    ]
                ], 
                [
                    14663, 
                    [
                        {
                            "pitch": 76, 
                            "t0": 14663, 
                            "v": 61, 
                            "dur": 21, 
                            "type": "note", 
                            "channel": 9
                        }
                    ]
                ], 
                [
                    15012, 
                    [
                        {
                            "pitch": 77, 
                            "t0": 15012, 
                            "v": 67, 
                            "dur": 118, 
                            "type": "note", 
                            "channel": 9
                        }
                    ]
                ], 
                [
                    15272, 
                    [
                        {
                            "pitch": 77, 
                            "t0": 15272, 
                            "v": 48, 
                            "dur": 27, 
                            "type": "note", 
                            "channel": 9
                        }
                    ]
                ], 
                [
                    15374, 
                    [
                        {
                            "pitch": 77, 
                            "t0": 15374, 
                            "v": 61, 
                            "dur": 41, 
                            "type": "note", 
                            "channel": 9
                        }
                    ]
                ], 
                [
                    15494, 
                    [
                        {
                            "pitch": 77, 
                            "t0": 15494, 
                            "v": 63, 
                            "dur": 38, 
                            "type": "note", 
                            "channel": 9
                        }
                    ]
                ], 
                [
                    15613, 
                    [
                        {
                            "pitch": 77, 
                            "t0": 15613, 
                            "v": 72, 
                            "dur": 57, 
                            "type": "note", 
                            "channel": 9
                        }
                    ]
                ], 
                [
                    15724, 
                    [
                        {
                            "pitch": 77, 
                            "t0": 15724, 
                            "v": 64, 
                            "dur": 40, 
                            "type": "note", 
                            "channel": 9
                        }
                    ]
                ], 
                [
                    15843, 
                    [
                        {
                            "pitch": 77, 
                            "t0": 15843, 
                            "v": 67, 
                            "dur": 30, 
                            "type": "note", 
                            "channel": 9
                        }
                    ]
                ], 
                [
                    15897, 
                    [
                        {
                            "pitch": 76, 
                            "t0": 15897, 
                            "v": 54, 
                            "dur": 30, 
                            "type": "note", 
                            "channel": 9
                        }
                    ]
                ], 
                [
                    15916, 
                    [
                        {
                            "pitch": 77, 
                            "t0": 15916, 
                            "v": 50, 
                            "dur": 50, 
                            "type": "note", 
                            "channel": 9
                        }
                    ]
                ], 
                [
                    15954, 
                    [
                        {
                            "pitch": 76, 
                            "t0": 15954, 
                            "v": 63, 
                            "dur": 51, 
                            "type": "note", 
                            "channel": 9
                        }
                    ]
                ], 
                [
                    16081, 
                    [
                        {
                            "pitch": 77, 
                            "t0": 16081, 
                            "v": 76, 
                            "dur": 51, 
                            "type": "note", 
                            "channel": 9
                        }
                    ]
                ], 
                [
                    16201, 
                    [
                        {
                            "pitch": 77, 
                            "t0": 16201, 
                            "v": 68, 
                            "dur": 44, 
                            "type": "note", 
                            "channel": 9
                        }
                    ]
                ], 
                [
                    16572, 
                    [
                        {
                            "pitch": 64, 
                            "t0": 16572, 
                            "v": 69, 
                            "dur": 29, 
                            "type": "note", 
                            "channel": 9
                        }
                    ]
                ], 
                [
                    16696, 
                    [
                        {
                            "pitch": 64, 
                            "t0": 16696, 
                            "v": 52, 
                            "dur": 20, 
                            "type": "note", 
                            "channel": 9
                        }
                    ]
                ], 
                [
                    16816, 
                    [
                        {
                            "pitch": 60, 
                            "t0": 16816, 
                            "v": 70, 
                            "dur": 66, 
                            "type": "note", 
                            "channel": 9
                        }
                    ]
                ], 
                [
                    16937, 
                    [
                        {
                            "pitch": 60, 
                            "t0": 16937, 
                            "v": 52, 
                            "dur": 87, 
                            "type": "note", 
                            "channel": 9
                        }
                    ]
                ], 
                [
                    17313, 
                    [
                        {
                            "pitch": 64, 
                            "t0": 17313, 
                            "v": 45, 
                            "dur": 39, 
                            "type": "note", 
                            "channel": 9
                        }
                    ]
                ], 
                [
                    17379, 
                    [
                        {
                            "pitch": 64, 
                            "t0": 17379, 
                            "v": 45, 
                            "dur": 40, 
                            "type": "note", 
                            "channel": 9
                        }
                    ]
                ], 
                [
                    17446, 
                    [
                        {
                            "pitch": 64, 
                            "t0": 17446, 
                            "v": 45, 
                            "dur": 31, 
                            "type": "note", 
                            "channel": 9
                        }
                    ]
                ], 
                [
                    17552, 
                    [
                        {
                            "pitch": 64, 
                            "t0": 17552, 
                            "v": 69, 
                            "dur": 40, 
                            "type": "note", 
                            "channel": 9
                        }
                    ]
                ], 
                [
                    17556, 
                    [
                        {
                            "pitch": 62, 
                            "t0": 17556, 
                            "v": 59, 
                            "dur": 35, 
                            "type": "note", 
                            "channel": 9
                        }
                    ]
                ], 
                [
                    17683, 
                    [
                        {
                            "pitch": 64, 
                            "t0": 17683, 
                            "v": 45, 
                            "dur": 33, 
                            "type": "note", 
                            "channel": 9
                        }
                    ]
                ], 
                [
                    17792, 
                    [
                        {
                            "pitch": 60, 
                            "t0": 17792, 
                            "v": 79, 
                            "dur": 128, 
                            "type": "note", 
                            "channel": 9
                        }
                    ]
                ], 
                [
                    18168, 
                    [
                        {
                            "pitch": 64, 
                            "t0": 18168, 
                            "v": 41, 
                            "dur": 70, 
                            "type": "note", 
                            "channel": 9
                        }
                    ]
                ], 
                [
                    18400, 
                    [
                        {
                            "pitch": 64, 
                            "t0": 18400, 
                            "v": 50, 
                            "dur": 54, 
                            "type": "note", 
                            "channel": 9
                        }
                    ]
                ], 
                [
                    18611, 
                    [
                        {
                            "pitch": 64, 
                            "t0": 18611, 
                            "v": 42, 
                            "dur": 54, 
                            "type": "note", 
                            "channel": 9
                        }
                    ]
                ], 
                [
                    18754, 
                    [
                        {
                            "pitch": 60, 
                            "t0": 18754, 
                            "v": 81, 
                            "dur": 336, 
                            "type": "note", 
                            "channel": 9
                        }
                    ]
                ], 
                [
                    19210, 
                    [
                        {
                            "pitch": 64, 
                            "t0": 19210, 
                            "v": 39, 
                            "dur": 36, 
                            "type": "note", 
                            "channel": 9
                        }
                    ]
                ], 
                [
                    19472, 
                    [
                        {
                            "pitch": 64, 
                            "t0": 19472, 
                            "v": 56, 
                            "dur": 98, 
                            "type": "note", 
                            "channel": 9
                        }
                    ]
                ], 
                [
                    19708, 
                    [
                        {
                            "pitch": 60, 
                            "t0": 19708, 
                            "v": 84, 
                            "dur": 53, 
                            "type": "note", 
                            "channel": 9
                        }
                    ]
                ], 
                [
                    19821, 
                    [
                        {
                            "pitch": 60, 
                            "t0": 19821, 
                            "v": 84, 
                            "dur": 150, 
                            "type": "note", 
                            "channel": 9
                        }
                    ]
                ], 
                [
                    20181, 
                    [
                        {
                            "pitch": 64, 
                            "t0": 20181, 
                            "v": 75, 
                            "dur": 50, 
                            "type": "note", 
                            "channel": 9
                        }
                    ]
                ], 
                [
                    20408, 
                    [
                        {
                            "pitch": 64, 
                            "t0": 20408, 
                            "v": 61, 
                            "dur": 38, 
                            "type": "note", 
                            "channel": 9
                        }
                    ]
                ], 
                [
                    20531, 
                    [
                        {
                            "pitch": 60, 
                            "t0": 20531, 
                            "v": 81, 
                            "dur": 181, 
                            "type": "note", 
                            "channel": 9
                        }
                    ]
                ], 
                [
                    20765, 
                    [
                        {
                            "pitch": 60, 
                            "t0": 20765, 
                            "v": 81, 
                            "dur": 341, 
                            "type": "note", 
                            "channel": 9
                        }
                    ]
                ], 
                [
                    21120, 
                    [
                        {
                            "pitch": 64, 
                            "t0": 21120, 
                            "v": 67, 
                            "dur": 55, 
                            "type": "note", 
                            "channel": 9
                        }
                    ]
                ], 
                [
                    21379, 
                    [
                        {
                            "pitch": 64, 
                            "t0": 21379, 
                            "v": 58, 
                            "dur": 27, 
                            "type": "note", 
                            "channel": 9
                        }
                    ]
                ], 
                [
                    21383, 
                    [
                        {
                            "pitch": 65, 
                            "t0": 21383, 
                            "v": 47, 
                            "dur": 21, 
                            "type": "note", 
                            "channel": 9
                        }
                    ]
                ], 
                [
                    21443, 
                    [
                        {
                            "pitch": 64, 
                            "t0": 21443, 
                            "v": 47, 
                            "dur": 98, 
                            "type": "note", 
                            "channel": 9
                        }
                    ]
                ], 
                [
                    21618, 
                    [
                        {
                            "pitch": 60, 
                            "t0": 21618, 
                            "v": 81, 
                            "dur": 328, 
                            "type": "note", 
                            "channel": 9
                        }
                    ]
                ], 
                [
                    21974, 
                    [
                        {
                            "pitch": 64, 
                            "t0": 21974, 
                            "v": 78, 
                            "dur": 182, 
                            "type": "note", 
                            "channel": 9
                        }
                    ]
                ], 
                [
                    22213, 
                    [
                        {
                            "pitch": 64, 
                            "t0": 22213, 
                            "v": 56, 
                            "dur": 30, 
                            "type": "note", 
                            "channel": 9
                        }
                    ]
                ], 
                [
                    22349, 
                    [
                        {
                            "pitch": 64, 
                            "t0": 22349, 
                            "v": 72, 
                            "dur": 24, 
                            "type": "note", 
                            "channel": 9
                        }
                    ]
                ], 
                [
                    22400, 
                    [
                        {
                            "pitch": 64, 
                            "t0": 22400, 
                            "v": 56, 
                            "dur": 35, 
                            "type": "note", 
                            "channel": 9
                        }
                    ]
                ], 
                [
                    22448, 
                    [
                        {
                            "pitch": 64, 
                            "t0": 22448, 
                            "v": 67, 
                            "dur": 52, 
                            "type": "note", 
                            "channel": 9
                        }
                    ]
                ], 
                [
                    22579, 
                    [
                        {
                            "pitch": 60, 
                            "t0": 22579, 
                            "v": 81, 
                            "dur": 174, 
                            "type": "note", 
                            "channel": 9
                        }
                    ]
                ], 
                [
                    22581, 
                    [
                        {
                            "pitch": 59, 
                            "t0": 22581, 
                            "v": 78, 
                            "dur": 111, 
                            "type": "note", 
                            "channel": 9
                        }
                    ]
                ], 
                [
                    22815, 
                    [
                        {
                            "pitch": 60, 
                            "t0": 22815, 
                            "v": 78, 
                            "dur": 244, 
                            "type": "note", 
                            "channel": 9
                        }
                    ]
                ], 
                [
                    23056, 
                    [
                        {
                            "pitch": 64, 
                            "t0": 23056, 
                            "v": 67, 
                            "dur": 58, 
                            "type": "note", 
                            "channel": 9
                        }
                    ]
                ], 
                [
                    23302, 
                    [
                        {
                            "pitch": 64, 
                            "t0": 23302, 
                            "v": 61, 
                            "dur": 38, 
                            "type": "note", 
                            "channel": 9
                        }
                    ]
                ], 
                [
                    23376, 
                    [
                        {
                            "pitch": 64, 
                            "t0": 23376, 
                            "v": 50, 
                            "dur": 43, 
                            "type": "note", 
                            "channel": 9
                        }
                    ]
                ], 
                [
                    23435, 
                    [
                        {
                            "pitch": 64, 
                            "t0": 23435, 
                            "v": 58, 
                            "dur": 55, 
                            "type": "note", 
                            "channel": 9
                        }
                    ]
                ], 
                [
                    23551, 
                    [
                        {
                            "pitch": 60, 
                            "t0": 23551, 
                            "v": 84, 
                            "dur": 65, 
                            "type": "note", 
                            "channel": 9
                        }
                    ]
                ], 
                [
                    23655, 
                    [
                        {
                            "pitch": 60, 
                            "t0": 23655, 
                            "v": 75, 
                            "dur": 287, 
                            "type": "note", 
                            "channel": 9
                        }
                    ]
                ], 
                [
                    23996, 
                    [
                        {
                            "pitch": 64, 
                            "t0": 23996, 
                            "v": 70, 
                            "dur": 198, 
                            "type": "note", 
                            "channel": 9
                        }
                    ]
                ], 
                [
                    24259, 
                    [
                        {
                            "pitch": 64, 
                            "t0": 24259, 
                            "v": 61, 
                            "dur": 59, 
                            "type": "note", 
                            "channel": 9
                        }
                    ]
                ], 
                [
                    24373, 
                    [
                        {
                            "pitch": 60, 
                            "t0": 24373, 
                            "v": 86, 
                            "dur": 291, 
                            "type": "note", 
                            "channel": 9
                        }
                    ]
                ], 
                [
                    24726, 
                    [
                        {
                            "pitch": 60, 
                            "t0": 24726, 
                            "v": 84, 
                            "dur": 356, 
                            "type": "note", 
                            "channel": 9
                        }
                    ]
                ], 
                [
                    25217, 
                    [
                        {
                            "pitch": 64, 
                            "t0": 25217, 
                            "v": 81, 
                            "dur": 30, 
                            "type": "note", 
                            "channel": 9
                        }
                    ]
                ], 
                [
                    25281, 
                    [
                        {
                            "pitch": 64, 
                            "t0": 25281, 
                            "v": 67, 
                            "dur": 111, 
                            "type": "note", 
                            "channel": 9
                        }
                    ]
                ], 
                [
                    25458, 
                    [
                        {
                            "pitch": 60, 
                            "t0": 25458, 
                            "v": 81, 
                            "dur": 93, 
                            "type": "note", 
                            "channel": 9
                        }
                    ]
                ], 
                [
                    25584, 
                    [
                        {
                            "pitch": 60, 
                            "t0": 25584, 
                            "v": 75, 
                            "dur": 309, 
                            "type": "note", 
                            "channel": 9
                        }
                    ]
                ], 
                [
                    25585, 
                    [
                        {
                            "pitch": 62, 
                            "t0": 25585, 
                            "v": 72, 
                            "dur": 80, 
                            "type": "note", 
                            "channel": 9
                        }
                    ]
                ], 
                [
                    25940, 
                    [
                        {
                            "pitch": 64, 
                            "t0": 25940, 
                            "v": 78, 
                            "dur": 52, 
                            "type": "note", 
                            "channel": 9
                        }
                    ]
                ], 
                [
                    26047, 
                    [
                        {
                            "pitch": 64, 
                            "t0": 26047, 
                            "v": 67, 
                            "dur": 192, 
                            "type": "note", 
                            "channel": 9
                        }
                    ]
                ], 
                [
                    26277, 
                    [
                        {
                            "pitch": 60, 
                            "t0": 26277, 
                            "v": 81, 
                            "dur": 276, 
                            "type": "note", 
                            "channel": 9
                        }
                    ]
                ], 
                [
                    26634, 
                    [
                        {
                            "pitch": 60, 
                            "t0": 26634, 
                            "v": 84, 
                            "dur": 440, 
                            "type": "note", 
                            "channel": 9
                        }
                    ]
                ], 
                [
                    27140, 
                    [
                        {
                            "pitch": 64, 
                            "t0": 27140, 
                            "v": 72, 
                            "dur": 32, 
                            "type": "note", 
                            "channel": 9
                        }
                    ]
                ], 
                [
                    27202, 
                    [
                        {
                            "pitch": 64, 
                            "t0": 27202, 
                            "v": 61, 
                            "dur": 42, 
                            "type": "note", 
                            "channel": 9
                        }
                    ]
                ], 
                [
                    27255, 
                    [
                        {
                            "pitch": 64, 
                            "t0": 27255, 
                            "v": 61, 
                            "dur": 66, 
                            "type": "note", 
                            "channel": 9
                        }
                    ]
                ], 
                [
                    27384, 
                    [
                        {
                            "pitch": 60, 
                            "t0": 27384, 
                            "v": 88, 
                            "dur": 107, 
                            "type": "note", 
                            "channel": 9
                        }
                    ]
                ], 
                [
                    27513, 
                    [
                        {
                            "pitch": 60, 
                            "t0": 27513, 
                            "v": 72, 
                            "dur": 341, 
                            "type": "note", 
                            "channel": 9
                        }
                    ]
                ], 
                [
                    27849, 
                    [
                        {
                            "pitch": 64, 
                            "t0": 27849, 
                            "v": 67, 
                            "dur": 55, 
                            "type": "note", 
                            "channel": 9
                        }
                    ]
                ], 
                [
                    27960, 
                    [
                        {
                            "pitch": 64, 
                            "t0": 27960, 
                            "v": 35, 
                            "dur": 75, 
                            "type": "note", 
                            "channel": 9
                        }
                    ]
                ], 
                [
                    28208, 
                    [
                        {
                            "pitch": 60, 
                            "t0": 28208, 
                            "v": 81, 
                            "dur": 268, 
                            "type": "note", 
                            "channel": 9
                        }
                    ]
                ], 
                [
                    28565, 
                    [
                        {
                            "pitch": 60, 
                            "t0": 28565, 
                            "v": 88, 
                            "dur": 441, 
                            "type": "note", 
                            "channel": 9
                        }
                    ]
                ], 
                [
                    29063, 
                    [
                        {
                            "pitch": 64, 
                            "t0": 29063, 
                            "v": 78, 
                            "dur": 32, 
                            "type": "note", 
                            "channel": 9
                        }
                    ]
                ], 
                [
                    29128, 
                    [
                        {
                            "pitch": 64, 
                            "t0": 29128, 
                            "v": 64, 
                            "dur": 35, 
                            "type": "note", 
                            "channel": 9
                        }
                    ]
                ], 
                [
                    29177, 
                    [
                        {
                            "pitch": 64, 
                            "t0": 29177, 
                            "v": 64, 
                            "dur": 56, 
                            "type": "note", 
                            "channel": 9
                        }
                    ]
                ], 
                [
                    29301, 
                    [
                        {
                            "pitch": 60, 
                            "t0": 29301, 
                            "v": 84, 
                            "dur": 95, 
                            "type": "note", 
                            "channel": 9
                        }
                    ]
                ], 
                [
                    29421, 
                    [
                        {
                            "pitch": 60, 
                            "t0": 29421, 
                            "v": 81, 
                            "dur": 313, 
                            "type": "note", 
                            "channel": 9
                        }
                    ]
                ], 
                [
                    29767, 
                    [
                        {
                            "pitch": 64, 
                            "t0": 29767, 
                            "v": 75, 
                            "dur": 56, 
                            "type": "note", 
                            "channel": 9
                        }
                    ]
                ], 
                [
                    29884, 
                    [
                        {
                            "pitch": 64, 
                            "t0": 29884, 
                            "v": 81, 
                            "dur": 165, 
                            "type": "note", 
                            "channel": 9
                        }
                    ]
                ], 
                [
                    30131, 
                    [
                        {
                            "pitch": 60, 
                            "t0": 30131, 
                            "v": 81, 
                            "dur": 286, 
                            "type": "note", 
                            "channel": 9
                        }
                    ]
                ], 
                [
                    30479, 
                    [
                        {
                            "pitch": 60, 
                            "t0": 30479, 
                            "v": 84, 
                            "dur": 294, 
                            "type": "note", 
                            "channel": 9
                        }
                    ]
                ], 
                [
                    30978, 
                    [
                        {
                            "pitch": 64, 
                            "t0": 30978, 
                            "v": 70, 
                            "dur": 21, 
                            "type": "note", 
                            "channel": 9
                        }
                    ]
                ], 
                [
                    31041, 
                    [
                        {
                            "pitch": 65, 
                            "t0": 31041, 
                            "v": 53, 
                            "dur": 38, 
                            "type": "note", 
                            "channel": 9
                        }, 
                        {
                            "pitch": 64, 
                            "t0": 31041, 
                            "v": 50, 
                            "dur": 43, 
                            "type": "note", 
                            "channel": 9
                        }
                    ]
                ], 
                [
                    31096, 
                    [
                        {
                            "pitch": 64, 
                            "t0": 31096, 
                            "v": 34, 
                            "dur": 46, 
                            "type": "note", 
                            "channel": 9
                        }
                    ]
                ], 
                [
                    31100, 
                    [
                        {
                            "pitch": 65, 
                            "t0": 31100, 
                            "v": 50, 
                            "dur": 33, 
                            "type": "note", 
                            "channel": 9
                        }
                    ]
                ], 
                [
                    31217, 
                    [
                        {
                            "pitch": 60, 
                            "t0": 31217, 
                            "v": 84, 
                            "dur": 76, 
                            "type": "note", 
                            "channel": 9
                        }
                    ]
                ], 
                [
                    31224, 
                    [
                        {
                            "pitch": 62, 
                            "t0": 31224, 
                            "v": 47, 
                            "dur": 25, 
                            "type": "note", 
                            "channel": 9
                        }
                    ]
                ], 
                [
                    31328, 
                    [
                        {
                            "pitch": 60, 
                            "t0": 31328, 
                            "v": 81, 
                            "dur": 298, 
                            "type": "note", 
                            "channel": 9
                        }
                    ]
                ], 
                [
                    31692, 
                    [
                        {
                            "pitch": 64, 
                            "t0": 31692, 
                            "v": 81, 
                            "dur": 69, 
                            "type": "note", 
                            "channel": 9
                        }
                    ]
                ], 
                [
                    31806, 
                    [
                        {
                            "pitch": 64, 
                            "t0": 31806, 
                            "v": 72, 
                            "dur": 76, 
                            "type": "note", 
                            "channel": 9
                        }
                    ]
                ], 
                [
                    32065, 
                    [
                        {
                            "pitch": 60, 
                            "t0": 32065, 
                            "v": 84, 
                            "dur": 288, 
                            "type": "note", 
                            "channel": 9
                        }
                    ]
                ], 
                [
                    32424, 
                    [
                        {
                            "pitch": 60, 
                            "t0": 32424, 
                            "v": 86, 
                            "dur": 381, 
                            "type": "note", 
                            "channel": 9
                        }
                    ]
                ], 
                [
                    32909, 
                    [
                        {
                            "pitch": 64, 
                            "t0": 32909, 
                            "v": 72, 
                            "dur": 29, 
                            "type": "note", 
                            "channel": 9
                        }
                    ]
                ], 
                [
                    32971, 
                    [
                        {
                            "pitch": 64, 
                            "t0": 32971, 
                            "v": 56, 
                            "dur": 39, 
                            "type": "note", 
                            "channel": 9
                        }
                    ]
                ], 
                [
                    33026, 
                    [
                        {
                            "pitch": 64, 
                            "t0": 33026, 
                            "v": 61, 
                            "dur": 55, 
                            "type": "note", 
                            "channel": 9
                        }
                    ]
                ], 
                [
                    33144, 
                    [
                        {
                            "pitch": 60, 
                            "t0": 33144, 
                            "v": 86, 
                            "dur": 92, 
                            "type": "note", 
                            "channel": 9
                        }
                    ]
                ], 
                [
                    33259, 
                    [
                        {
                            "pitch": 60, 
                            "t0": 33259, 
                            "v": 81, 
                            "dur": 319, 
                            "type": "note", 
                            "channel": 9
                        }
                    ]
                ], 
                [
                    33616, 
                    [
                        {
                            "pitch": 64, 
                            "t0": 33616, 
                            "v": 67, 
                            "dur": 44, 
                            "type": "note", 
                            "channel": 9
                        }
                    ]
                ], 
                [
                    33727, 
                    [
                        {
                            "pitch": 64, 
                            "t0": 33727, 
                            "v": 64, 
                            "dur": 81, 
                            "type": "note", 
                            "channel": 9
                        }
                    ]
                ], 
                [
                    33972, 
                    [
                        {
                            "pitch": 60, 
                            "t0": 33972, 
                            "v": 86, 
                            "dur": 282, 
                            "type": "note", 
                            "channel": 9
                        }
                    ]
                ], 
                [
                    34331, 
                    [
                        {
                            "pitch": 60, 
                            "t0": 34331, 
                            "v": 86, 
                            "dur": 293, 
                            "type": "note", 
                            "channel": 9
                        }
                    ]
                ], 
                [
                    34827, 
                    [
                        {
                            "pitch": 64, 
                            "t0": 34827, 
                            "v": 81, 
                            "dur": 33, 
                            "type": "note", 
                            "channel": 9
                        }
                    ]
                ], 
                [
                    34890, 
                    [
                        {
                            "pitch": 64, 
                            "t0": 34890, 
                            "v": 61, 
                            "dur": 39, 
                            "type": "note", 
                            "channel": 9
                        }
                    ]
                ], 
                [
                    34946, 
                    [
                        {
                            "pitch": 64, 
                            "t0": 34946, 
                            "v": 72, 
                            "dur": 56, 
                            "type": "note", 
                            "channel": 9
                        }
                    ]
                ], 
                [
                    35069, 
                    [
                        {
                            "pitch": 60, 
                            "t0": 35069, 
                            "v": 86, 
                            "dur": 75, 
                            "type": "note", 
                            "channel": 9
                        }
                    ]
                ], 
                [
                    35174, 
                    [
                        {
                            "pitch": 60, 
                            "t0": 35174, 
                            "v": 81, 
                            "dur": 289, 
                            "type": "note", 
                            "channel": 9
                        }
                    ]
                ], 
                [
                    35558, 
                    [
                        {
                            "pitch": 64, 
                            "t0": 35558, 
                            "v": 33, 
                            "dur": 28, 
                            "type": "note", 
                            "channel": 9
                        }
                    ]
                ], 
                [
                    35666, 
                    [
                        {
                            "pitch": 64, 
                            "t0": 35666, 
                            "v": 81, 
                            "dur": 62, 
                            "type": "note", 
                            "channel": 9
                        }
                    ]
                ], 
                [
                    35912, 
                    [
                        {
                            "pitch": 60, 
                            "t0": 35912, 
                            "v": 86, 
                            "dur": 258, 
                            "type": "note", 
                            "channel": 9
                        }
                    ]
                ], 
                [
                    36257, 
                    [
                        {
                            "pitch": 60, 
                            "t0": 36257, 
                            "v": 84, 
                            "dur": 190, 
                            "type": "note", 
                            "channel": 9
                        }
                    ]
                ], 
                [
                    36746, 
                    [
                        {
                            "pitch": 64, 
                            "t0": 36746, 
                            "v": 72, 
                            "dur": 23, 
                            "type": "note", 
                            "channel": 9
                        }
                    ]
                ], 
                [
                    36809, 
                    [
                        {
                            "pitch": 64, 
                            "t0": 36809, 
                            "v": 75, 
                            "dur": 40, 
                            "type": "note", 
                            "channel": 9
                        }
                    ]
                ], 
                [
                    36864, 
                    [
                        {
                            "pitch": 64, 
                            "t0": 36864, 
                            "v": 56, 
                            "dur": 42, 
                            "type": "note", 
                            "channel": 9
                        }
                    ]
                ], 
                [
                    36978, 
                    [
                        {
                            "pitch": 60, 
                            "t0": 36978, 
                            "v": 81, 
                            "dur": 50, 
                            "type": "note", 
                            "channel": 9
                        }
                    ]
                ], 
                [
                    36979, 
                    [
                        {
                            "pitch": 59, 
                            "t0": 36979, 
                            "v": 75, 
                            "dur": 45, 
                            "type": "note", 
                            "channel": 9
                        }
                    ]
                ], 
                [
                    37086, 
                    [
                        {
                            "pitch": 60, 
                            "t0": 37086, 
                            "v": 81, 
                            "dur": 218, 
                            "type": "note", 
                            "channel": 9
                        }
                    ]
                ], 
                [
                    37444, 
                    [
                        {
                            "pitch": 64, 
                            "t0": 37444, 
                            "v": 72, 
                            "dur": 50, 
                            "type": "note", 
                            "channel": 9
                        }
                    ]
                ], 
                [
                    37557, 
                    [
                        {
                            "pitch": 64, 
                            "t0": 37557, 
                            "v": 67, 
                            "dur": 74, 
                            "type": "note", 
                            "channel": 9
                        }
                    ]
                ], 
                [
                    37824, 
                    [
                        {
                            "pitch": 60, 
                            "t0": 37824, 
                            "v": 81, 
                            "dur": 282, 
                            "type": "note", 
                            "channel": 9
                        }
                    ]
                ], 
                [
                    38177, 
                    [
                        {
                            "pitch": 60, 
                            "t0": 38177, 
                            "v": 86, 
                            "dur": 245, 
                            "type": "note", 
                            "channel": 9
                        }
                    ]
                ], 
                [
                    38656, 
                    [
                        {
                            "pitch": 64, 
                            "t0": 38656, 
                            "v": 70, 
                            "dur": 32, 
                            "type": "note", 
                            "channel": 9
                        }
                    ]
                ], 
                [
                    38727, 
                    [
                        {
                            "pitch": 64, 
                            "t0": 38727, 
                            "v": 67, 
                            "dur": 102, 
                            "type": "note", 
                            "channel": 9
                        }
                    ]
                ], 
                [
                    38899, 
                    [
                        {
                            "pitch": 60, 
                            "t0": 38899, 
                            "v": 84, 
                            "dur": 81, 
                            "type": "note", 
                            "channel": 9
                        }
                    ]
                ], 
                [
                    39013, 
                    [
                        {
                            "pitch": 60, 
                            "t0": 39013, 
                            "v": 81, 
                            "dur": 309, 
                            "type": "note", 
                            "channel": 9
                        }
                    ]
                ], 
                [
                    39384, 
                    [
                        {
                            "pitch": 64, 
                            "t0": 39384, 
                            "v": 75, 
                            "dur": 67, 
                            "type": "note", 
                            "channel": 9
                        }
                    ]
                ], 
                [
                    39503, 
                    [
                        {
                            "pitch": 64, 
                            "t0": 39503, 
                            "v": 75, 
                            "dur": 138, 
                            "type": "note", 
                            "channel": 9
                        }
                    ]
                ], 
                [
                    39749, 
                    [
                        {
                            "pitch": 60, 
                            "t0": 39749, 
                            "v": 81, 
                            "dur": 268, 
                            "type": "note", 
                            "channel": 9
                        }
                    ]
                ], 
                [
                    40103, 
                    [
                        {
                            "pitch": 60, 
                            "t0": 40103, 
                            "v": 84, 
                            "dur": 346, 
                            "type": "note", 
                            "channel": 9
                        }
                    ]
                ], 
                [
                    40585, 
                    [
                        {
                            "pitch": 64, 
                            "t0": 40585, 
                            "v": 70, 
                            "dur": 35, 
                            "type": "note", 
                            "channel": 9
                        }
                    ]
                ], 
                [
                    40654, 
                    [
                        {
                            "pitch": 64, 
                            "t0": 40654, 
                            "v": 56, 
                            "dur": 38, 
                            "type": "note", 
                            "channel": 9
                        }
                    ]
                ], 
                [
                    40709, 
                    [
                        {
                            "pitch": 64, 
                            "t0": 40709, 
                            "v": 53, 
                            "dur": 45, 
                            "type": "note", 
                            "channel": 9
                        }
                    ]
                ], 
                [
                    40818, 
                    [
                        {
                            "pitch": 60, 
                            "t0": 40818, 
                            "v": 84, 
                            "dur": 70, 
                            "type": "note", 
                            "channel": 9
                        }
                    ]
                ], 
                [
                    40928, 
                    [
                        {
                            "pitch": 60, 
                            "t0": 40928, 
                            "v": 81, 
                            "dur": 305, 
                            "type": "note", 
                            "channel": 9
                        }
                    ]
                ], 
                [
                    41277, 
                    [
                        {
                            "pitch": 64, 
                            "t0": 41277, 
                            "v": 75, 
                            "dur": 53, 
                            "type": "note", 
                            "channel": 9
                        }
                    ]
                ], 
                [
                    41400, 
                    [
                        {
                            "pitch": 64, 
                            "t0": 41400, 
                            "v": 64, 
                            "dur": 108, 
                            "type": "note", 
                            "channel": 9
                        }
                    ]
                ], 
                [
                    41655, 
                    [
                        {
                            "pitch": 60, 
                            "t0": 41655, 
                            "v": 81, 
                            "dur": 215, 
                            "type": "note", 
                            "channel": 9
                        }
                    ]
                ], 
                [
                    42002, 
                    [
                        {
                            "pitch": 60, 
                            "t0": 42002, 
                            "v": 84, 
                            "dur": 88, 
                            "type": "note", 
                            "channel": 9
                        }
                    ]
                ], 
                [
                    42124, 
                    [
                        {
                            "pitch": 60, 
                            "t0": 42124, 
                            "v": 78, 
                            "dur": 136, 
                            "type": "note", 
                            "channel": 9
                        }
                    ]
                ], 
                [
                    42502, 
                    [
                        {
                            "pitch": 64, 
                            "t0": 42502, 
                            "v": 78, 
                            "dur": 33, 
                            "type": "note", 
                            "channel": 9
                        }
                    ]
                ], 
                [
                    42564, 
                    [
                        {
                            "pitch": 64, 
                            "t0": 42564, 
                            "v": 64, 
                            "dur": 88, 
                            "type": "note", 
                            "channel": 9
                        }
                    ]
                ], 
                [
                    42718, 
                    [
                        {
                            "pitch": 60, 
                            "t0": 42718, 
                            "v": 81, 
                            "dur": 58, 
                            "type": "note", 
                            "channel": 9
                        }
                    ]
                ], 
                [
                    42833, 
                    [
                        {
                            "pitch": 60, 
                            "t0": 42833, 
                            "v": 81, 
                            "dur": 269, 
                            "type": "note", 
                            "channel": 9
                        }
                    ]
                ], 
                [
                    43205, 
                    [
                        {
                            "pitch": 64, 
                            "t0": 43205, 
                            "v": 78, 
                            "dur": 63, 
                            "type": "note", 
                            "channel": 9
                        }
                    ]
                ], 
                [
                    43328, 
                    [
                        {
                            "pitch": 64, 
                            "t0": 43328, 
                            "v": 58, 
                            "dur": 38, 
                            "type": "note", 
                            "channel": 9
                        }
                    ]
                ], 
                [
                    43569, 
                    [
                        {
                            "pitch": 60, 
                            "t0": 43569, 
                            "v": 78, 
                            "dur": 168, 
                            "type": "note", 
                            "channel": 9
                        }
                    ]
                ], 
                [
                    43572, 
                    [
                        {
                            "pitch": 62, 
                            "t0": 43572, 
                            "v": 75, 
                            "dur": 49, 
                            "type": "note", 
                            "channel": 9
                        }
                    ]
                ], 
                [
                    43932, 
                    [
                        {
                            "pitch": 60, 
                            "t0": 43932, 
                            "v": 84, 
                            "dur": 143, 
                            "type": "note", 
                            "channel": 9
                        }
                    ]
                ], 
                [
                    44409, 
                    [
                        {
                            "pitch": 64, 
                            "t0": 44409, 
                            "v": 61, 
                            "dur": 27, 
                            "type": "note", 
                            "channel": 9
                        }
                    ]
                ], 
                [
                    44484, 
                    [
                        {
                            "pitch": 64, 
                            "t0": 44484, 
                            "v": 50, 
                            "dur": 100, 
                            "type": "note", 
                            "channel": 9
                        }
                    ]
                ], 
                [
                    44655, 
                    [
                        {
                            "pitch": 60, 
                            "t0": 44655, 
                            "v": 81, 
                            "dur": 64, 
                            "type": "note", 
                            "channel": 9
                        }
                    ]
                ], 
                [
                    44771, 
                    [
                        {
                            "pitch": 60, 
                            "t0": 44771, 
                            "v": 81, 
                            "dur": 284, 
                            "type": "note", 
                            "channel": 9
                        }
                    ]
                ], 
                [
                    45132, 
                    [
                        {
                            "pitch": 64, 
                            "t0": 45132, 
                            "v": 75, 
                            "dur": 50, 
                            "type": "note", 
                            "channel": 9
                        }
                    ]
                ], 
                [
                    45261, 
                    [
                        {
                            "pitch": 64, 
                            "t0": 45261, 
                            "v": 61, 
                            "dur": 101, 
                            "type": "note", 
                            "channel": 9
                        }
                    ]
                ], 
                [
                    45515, 
                    [
                        {
                            "pitch": 60, 
                            "t0": 45515, 
                            "v": 78, 
                            "dur": 198, 
                            "type": "note", 
                            "channel": 9
                        }
                    ]
                ], 
                [
                    45517, 
                    [
                        {
                            "pitch": 59, 
                            "t0": 45517, 
                            "v": 78, 
                            "dur": 79, 
                            "type": "note", 
                            "channel": 9
                        }
                    ]
                ], 
                [
                    45844, 
                    [
                        {
                            "pitch": 60, 
                            "t0": 45844, 
                            "v": 84, 
                            "dur": 219, 
                            "type": "note", 
                            "channel": 9
                        }
                    ]
                ], 
                [
                    46340, 
                    [
                        {
                            "pitch": 64, 
                            "t0": 46340, 
                            "v": 58, 
                            "dur": 49, 
                            "type": "note", 
                            "channel": 9
                        }
                    ]
                ], 
                [
                    46413, 
                    [
                        {
                            "pitch": 64, 
                            "t0": 46413, 
                            "v": 61, 
                            "dur": 115, 
                            "type": "note", 
                            "channel": 9
                        }
                    ]
                ], 
                [
                    46573, 
                    [
                        {
                            "pitch": 60, 
                            "t0": 46573, 
                            "v": 84, 
                            "dur": 91, 
                            "type": "note", 
                            "channel": 9
                        }
                    ]
                ], 
                [
                    46698, 
                    [
                        {
                            "pitch": 60, 
                            "t0": 46698, 
                            "v": 78, 
                            "dur": 320, 
                            "type": "note", 
                            "channel": 9
                        }
                    ]
                ], 
                [
                    47050, 
                    [
                        {
                            "pitch": 64, 
                            "t0": 47050, 
                            "v": 58, 
                            "dur": 69, 
                            "type": "note", 
                            "channel": 9
                        }
                    ]
                ], 
                [
                    47169, 
                    [
                        {
                            "pitch": 64, 
                            "t0": 47169, 
                            "v": 44, 
                            "dur": 109, 
                            "type": "note", 
                            "channel": 9
                        }
                    ]
                ], 
                [
                    47424, 
                    [
                        {
                            "pitch": 60, 
                            "t0": 47424, 
                            "v": 81, 
                            "dur": 297, 
                            "type": "note", 
                            "channel": 9
                        }
                    ]
                ], 
                [
                    47778, 
                    [
                        {
                            "pitch": 60, 
                            "t0": 47778, 
                            "v": 78, 
                            "dur": 96, 
                            "type": "note", 
                            "channel": 9
                        }
                    ]
                ], 
                [
                    47902, 
                    [
                        {
                            "pitch": 60, 
                            "t0": 47902, 
                            "v": 75, 
                            "dur": 147, 
                            "type": "note", 
                            "channel": 9
                        }
                    ]
                ], 
                [
                    48258, 
                    [
                        {
                            "pitch": 64, 
                            "t0": 48258, 
                            "v": 75, 
                            "dur": 36, 
                            "type": "note", 
                            "channel": 9
                        }
                    ]
                ], 
                [
                    48325, 
                    [
                        {
                            "pitch": 64, 
                            "t0": 48325, 
                            "v": 64, 
                            "dur": 99, 
                            "type": "note", 
                            "channel": 9
                        }
                    ]
                ], 
                [
                    48494, 
                    [
                        {
                            "pitch": 60, 
                            "t0": 48494, 
                            "v": 81, 
                            "dur": 71, 
                            "type": "note", 
                            "channel": 9
                        }
                    ]
                ], 
                [
                    48604, 
                    [
                        {
                            "pitch": 60, 
                            "t0": 48604, 
                            "v": 81, 
                            "dur": 316, 
                            "type": "note", 
                            "channel": 9
                        }
                    ]
                ], 
                [
                    48970, 
                    [
                        {
                            "pitch": 64, 
                            "t0": 48970, 
                            "v": 75, 
                            "dur": 61, 
                            "type": "note", 
                            "channel": 9
                        }
                    ]
                ], 
                [
                    49096, 
                    [
                        {
                            "pitch": 64, 
                            "t0": 49096, 
                            "v": 81, 
                            "dur": 144, 
                            "type": "note", 
                            "channel": 9
                        }
                    ]
                ], 
                [
                    49346, 
                    [
                        {
                            "pitch": 60, 
                            "t0": 49346, 
                            "v": 84, 
                            "dur": 177, 
                            "type": "note", 
                            "channel": 9
                        }
                    ]
                ], 
                [
                    49579, 
                    [
                        {
                            "pitch": 60, 
                            "t0": 49579, 
                            "v": 84, 
                            "dur": 169, 
                            "type": "note", 
                            "channel": 9
                        }
                    ]
                ], 
                [
                    49799, 
                    [
                        {
                            "pitch": 60, 
                            "t0": 49799, 
                            "v": 81, 
                            "dur": 115, 
                            "type": "note", 
                            "channel": 9
                        }
                    ]
                ], 
                [
                    50176, 
                    [
                        {
                            "pitch": 64, 
                            "t0": 50176, 
                            "v": 78, 
                            "dur": 34, 
                            "type": "note", 
                            "channel": 9
                        }
                    ]
                ], 
                [
                    50238, 
                    [
                        {
                            "pitch": 64, 
                            "t0": 50238, 
                            "v": 70, 
                            "dur": 108, 
                            "type": "note", 
                            "channel": 9
                        }
                    ]
                ], 
                [
                    50421, 
                    [
                        {
                            "pitch": 60, 
                            "t0": 50421, 
                            "v": 84, 
                            "dur": 65, 
                            "type": "note", 
                            "channel": 9
                        }
                    ]
                ], 
                [
                    50532, 
                    [
                        {
                            "pitch": 60, 
                            "t0": 50532, 
                            "v": 86, 
                            "dur": 285, 
                            "type": "note", 
                            "channel": 9
                        }
                    ]
                ], 
                [
                    50892, 
                    [
                        {
                            "pitch": 64, 
                            "t0": 50892, 
                            "v": 75, 
                            "dur": 65, 
                            "type": "note", 
                            "channel": 9
                        }
                    ]
                ], 
                [
                    51011, 
                    [
                        {
                            "pitch": 64, 
                            "t0": 51011, 
                            "v": 75, 
                            "dur": 111, 
                            "type": "note", 
                            "channel": 9
                        }
                    ]
                ], 
                [
                    51259, 
                    [
                        {
                            "pitch": 60, 
                            "t0": 51259, 
                            "v": 84, 
                            "dur": 228, 
                            "type": "note", 
                            "channel": 9
                        }
                    ]
                ], 
                [
                    51605, 
                    [
                        {
                            "pitch": 60, 
                            "t0": 51605, 
                            "v": 84, 
                            "dur": 85, 
                            "type": "note", 
                            "channel": 9
                        }
                    ]
                ], 
                [
                    51720, 
                    [
                        {
                            "pitch": 60, 
                            "t0": 51720, 
                            "v": 81, 
                            "dur": 156, 
                            "type": "note", 
                            "channel": 9
                        }
                    ]
                ], 
                [
                    52092, 
                    [
                        {
                            "pitch": 64, 
                            "t0": 52092, 
                            "v": 78, 
                            "dur": 32, 
                            "type": "note", 
                            "channel": 9
                        }
                    ]
                ], 
                [
                    52159, 
                    [
                        {
                            "pitch": 64, 
                            "t0": 52159, 
                            "v": 64, 
                            "dur": 43, 
                            "type": "note", 
                            "channel": 9
                        }
                    ]
                ], 
                [
                    52217, 
                    [
                        {
                            "pitch": 64, 
                            "t0": 52217, 
                            "v": 64, 
                            "dur": 45, 
                            "type": "note", 
                            "channel": 9
                        }
                    ]
                ], 
                [
                    52339, 
                    [
                        {
                            "pitch": 60, 
                            "t0": 52339, 
                            "v": 81, 
                            "dur": 77, 
                            "type": "note", 
                            "channel": 9
                        }
                    ]
                ], 
                [
                    52454, 
                    [
                        {
                            "pitch": 60, 
                            "t0": 52454, 
                            "v": 86, 
                            "dur": 229, 
                            "type": "note", 
                            "channel": 9
                        }
                    ]
                ], 
                [
                    52815, 
                    [
                        {
                            "pitch": 64, 
                            "t0": 52815, 
                            "v": 84, 
                            "dur": 57, 
                            "type": "note", 
                            "channel": 9
                        }
                    ]
                ], 
                [
                    52933, 
                    [
                        {
                            "pitch": 64, 
                            "t0": 52933, 
                            "v": 78, 
                            "dur": 103, 
                            "type": "note", 
                            "channel": 9
                        }
                    ]
                ], 
                [
                    53184, 
                    [
                        {
                            "pitch": 60, 
                            "t0": 53184, 
                            "v": 84, 
                            "dur": 249, 
                            "type": "note", 
                            "channel": 9
                        }
                    ]
                ], 
                [
                    53536, 
                    [
                        {
                            "pitch": 60, 
                            "t0": 53536, 
                            "v": 84, 
                            "dur": 91, 
                            "type": "note", 
                            "channel": 9
                        }
                    ]
                ], 
                [
                    53652, 
                    [
                        {
                            "pitch": 60, 
                            "t0": 53652, 
                            "v": 84, 
                            "dur": 156, 
                            "type": "note", 
                            "channel": 9
                        }
                    ]
                ], 
                [
                    54025, 
                    [
                        {
                            "pitch": 64, 
                            "t0": 54025, 
                            "v": 72, 
                            "dur": 26, 
                            "type": "note", 
                            "channel": 9
                        }
                    ]
                ], 
                [
                    54089, 
                    [
                        {
                            "pitch": 64, 
                            "t0": 54089, 
                            "v": 67, 
                            "dur": 42, 
                            "type": "note", 
                            "channel": 9
                        }
                    ]
                ], 
                [
                    54145, 
                    [
                        {
                            "pitch": 64, 
                            "t0": 54145, 
                            "v": 44, 
                            "dur": 41, 
                            "type": "note", 
                            "channel": 9
                        }
                    ]
                ], 
                [
                    54266, 
                    [
                        {
                            "pitch": 60, 
                            "t0": 54266, 
                            "v": 84, 
                            "dur": 60, 
                            "type": "note", 
                            "channel": 9
                        }
                    ]
                ], 
                [
                    54376, 
                    [
                        {
                            "pitch": 60, 
                            "t0": 54376, 
                            "v": 81, 
                            "dur": 230, 
                            "type": "note", 
                            "channel": 9
                        }
                    ]
                ], 
                [
                    54726, 
                    [
                        {
                            "pitch": 64, 
                            "t0": 54726, 
                            "v": 78, 
                            "dur": 57, 
                            "type": "note", 
                            "channel": 9
                        }
                    ]
                ], 
                [
                    54848, 
                    [
                        {
                            "pitch": 64, 
                            "t0": 54848, 
                            "v": 72, 
                            "dur": 38, 
                            "type": "note", 
                            "channel": 9
                        }
                    ]
                ], 
                [
                    55097, 
                    [
                        {
                            "pitch": 60, 
                            "t0": 55097, 
                            "v": 84, 
                            "dur": 155, 
                            "type": "note", 
                            "channel": 9
                        }
                    ]
                ], 
                [
                    55456, 
                    [
                        {
                            "pitch": 60, 
                            "t0": 55456, 
                            "v": 84, 
                            "dur": 79, 
                            "type": "note", 
                            "channel": 9
                        }
                    ]
                ], 
                [
                    55570, 
                    [
                        {
                            "pitch": 60, 
                            "t0": 55570, 
                            "v": 81, 
                            "dur": 131, 
                            "type": "note", 
                            "channel": 9
                        }
                    ]
                ], 
                [
                    55932, 
                    [
                        {
                            "pitch": 64, 
                            "t0": 55932, 
                            "v": 78, 
                            "dur": 31, 
                            "type": "note", 
                            "channel": 9
                        }
                    ]
                ], 
                [
                    55999, 
                    [
                        {
                            "pitch": 64, 
                            "t0": 55999, 
                            "v": 64, 
                            "dur": 43, 
                            "type": "note", 
                            "channel": 9
                        }
                    ]
                ], 
                [
                    56052, 
                    [
                        {
                            "pitch": 64, 
                            "t0": 56052, 
                            "v": 37, 
                            "dur": 48, 
                            "type": "note", 
                            "channel": 9
                        }
                    ]
                ], 
                [
                    56188, 
                    [
                        {
                            "pitch": 60, 
                            "t0": 56188, 
                            "v": 81, 
                            "dur": 208, 
                            "type": "note", 
                            "channel": 9
                        }
                    ]
                ], 
                [
                    56536, 
                    [
                        {
                            "pitch": 64, 
                            "t0": 56536, 
                            "v": 75, 
                            "dur": 118, 
                            "type": "note", 
                            "channel": 9
                        }
                    ]
                ], 
                [
                    56765, 
                    [
                        {
                            "pitch": 64, 
                            "t0": 56765, 
                            "v": 81, 
                            "dur": 123, 
                            "type": "note", 
                            "channel": 9
                        }
                    ]
                ], 
                [
                    57008, 
                    [
                        {
                            "pitch": 64, 
                            "t0": 57008, 
                            "v": 64, 
                            "dur": 52, 
                            "type": "note", 
                            "channel": 9
                        }
                    ]
                ], 
                [
                    57128, 
                    [
                        {
                            "pitch": 60, 
                            "t0": 57128, 
                            "v": 78, 
                            "dur": 134, 
                            "type": "note", 
                            "channel": 9
                        }
                    ]
                ], 
                [
                    57372, 
                    [
                        {
                            "pitch": 60, 
                            "t0": 57372, 
                            "v": 84, 
                            "dur": 206, 
                            "type": "note", 
                            "channel": 9
                        }
                    ]
                ], 
                [
                    57852, 
                    [
                        {
                            "pitch": 64, 
                            "t0": 57852, 
                            "v": 75, 
                            "dur": 22, 
                            "type": "note", 
                            "channel": 9
                        }
                    ]
                ], 
                [
                    57915, 
                    [
                        {
                            "pitch": 64, 
                            "t0": 57915, 
                            "v": 70, 
                            "dur": 34, 
                            "type": "note", 
                            "channel": 9
                        }
                    ]
                ], 
                [
                    57975, 
                    [
                        {
                            "pitch": 64, 
                            "t0": 57975, 
                            "v": 70, 
                            "dur": 54, 
                            "type": "note", 
                            "channel": 9
                        }
                    ]
                ], 
                [
                    58099, 
                    [
                        {
                            "pitch": 60, 
                            "t0": 58099, 
                            "v": 86, 
                            "dur": 57, 
                            "type": "note", 
                            "channel": 9
                        }
                    ]
                ], 
                [
                    58211, 
                    [
                        {
                            "pitch": 60, 
                            "t0": 58211, 
                            "v": 84, 
                            "dur": 251, 
                            "type": "note", 
                            "channel": 9
                        }
                    ]
                ], 
                [
                    58572, 
                    [
                        {
                            "pitch": 62, 
                            "t0": 58572, 
                            "v": 32, 
                            "dur": 27, 
                            "type": "note", 
                            "channel": 9
                        }
                    ]
                ], 
                [
                    58573, 
                    [
                        {
                            "pitch": 64, 
                            "t0": 58573, 
                            "v": 27, 
                            "dur": 26, 
                            "type": "note", 
                            "channel": 9
                        }
                    ]
                ], 
                [
                    58824, 
                    [
                        {
                            "pitch": 64, 
                            "t0": 58824, 
                            "v": 53, 
                            "dur": 35, 
                            "type": "note", 
                            "channel": 9
                        }
                    ]
                ], 
                [
                    58937, 
                    [
                        {
                            "pitch": 60, 
                            "t0": 58937, 
                            "v": 75, 
                            "dur": 224, 
                            "type": "note", 
                            "channel": 9
                        }
                    ]
                ], 
                [
                    59306, 
                    [
                        {
                            "pitch": 60, 
                            "t0": 59306, 
                            "v": 81, 
                            "dur": 78, 
                            "type": "note", 
                            "channel": 9
                        }
                    ]
                ], 
                [
                    59416, 
                    [
                        {
                            "pitch": 60, 
                            "t0": 59416, 
                            "v": 75, 
                            "dur": 108, 
                            "type": "note", 
                            "channel": 9
                        }
                    ]
                ], 
                [
                    59772, 
                    [
                        {
                            "pitch": 64, 
                            "t0": 59772, 
                            "v": 72, 
                            "dur": 29, 
                            "type": "note", 
                            "channel": 9
                        }
                    ]
                ], 
                [
                    59840, 
                    [
                        {
                            "pitch": 64, 
                            "t0": 59840, 
                            "v": 61, 
                            "dur": 38, 
                            "type": "note", 
                            "channel": 9
                        }
                    ]
                ], 
                [
                    59891, 
                    [
                        {
                            "pitch": 64, 
                            "t0": 59891, 
                            "v": 58, 
                            "dur": 50, 
                            "type": "note", 
                            "channel": 9
                        }
                    ]
                ], 
                [
                    60008, 
                    [
                        {
                            "pitch": 60, 
                            "t0": 60008, 
                            "v": 78, 
                            "dur": 67, 
                            "type": "note", 
                            "channel": 9
                        }
                    ]
                ], 
                [
                    60128, 
                    [
                        {
                            "pitch": 60, 
                            "t0": 60128, 
                            "v": 81, 
                            "dur": 226, 
                            "type": "note", 
                            "channel": 9
                        }
                    ]
                ], 
                [
                    60483, 
                    [
                        {
                            "pitch": 64, 
                            "t0": 60483, 
                            "v": 78, 
                            "dur": 52, 
                            "type": "note", 
                            "channel": 9
                        }
                    ]
                ], 
                [
                    60597, 
                    [
                        {
                            "pitch": 64, 
                            "t0": 60597, 
                            "v": 75, 
                            "dur": 62, 
                            "type": "note", 
                            "channel": 9
                        }
                    ]
                ], 
                [
                    60845, 
                    [
                        {
                            "pitch": 60, 
                            "t0": 60845, 
                            "v": 84, 
                            "dur": 220, 
                            "type": "note", 
                            "channel": 9
                        }
                    ]
                ], 
                [
                    61199, 
                    [
                        {
                            "pitch": 60, 
                            "t0": 61199, 
                            "v": 84, 
                            "dur": 104, 
                            "type": "note", 
                            "channel": 9
                        }
                    ]
                ], 
                [
                    61692, 
                    [
                        {
                            "pitch": 64, 
                            "t0": 61692, 
                            "v": 61, 
                            "dur": 27, 
                            "type": "note", 
                            "channel": 9
                        }
                    ]
                ], 
                [
                    61758, 
                    [
                        {
                            "pitch": 64, 
                            "t0": 61758, 
                            "v": 72, 
                            "dur": 84, 
                            "type": "note", 
                            "channel": 9
                        }
                    ]
                ], 
                [
                    61926, 
                    [
                        {
                            "pitch": 60, 
                            "t0": 61926, 
                            "v": 86, 
                            "dur": 63, 
                            "type": "note", 
                            "channel": 9
                        }
                    ]
                ], 
                [
                    62038, 
                    [
                        {
                            "pitch": 60, 
                            "t0": 62038, 
                            "v": 81, 
                            "dur": 190, 
                            "type": "note", 
                            "channel": 9
                        }
                    ]
                ], 
                [
                    62410, 
                    [
                        {
                            "pitch": 64, 
                            "t0": 62410, 
                            "v": 75, 
                            "dur": 67, 
                            "type": "note", 
                            "channel": 9
                        }
                    ]
                ], 
                [
                    62532, 
                    [
                        {
                            "pitch": 64, 
                            "t0": 62532, 
                            "v": 72, 
                            "dur": 60, 
                            "type": "note", 
                            "channel": 9
                        }
                    ]
                ], 
                [
                    62792, 
                    [
                        {
                            "pitch": 60, 
                            "t0": 62792, 
                            "v": 81, 
                            "dur": 227, 
                            "type": "note", 
                            "channel": 9
                        }
                    ]
                ], 
                [
                    63150, 
                    [
                        {
                            "pitch": 60, 
                            "t0": 63150, 
                            "v": 81, 
                            "dur": 86, 
                            "type": "note", 
                            "channel": 9
                        }
                    ]
                ], 
                [
                    63154, 
                    [
                        {
                            "pitch": 62, 
                            "t0": 63154, 
                            "v": 61, 
                            "dur": 25, 
                            "type": "note", 
                            "channel": 9
                        }
                    ]
                ], 
                [
                    63264, 
                    [
                        {
                            "pitch": 60, 
                            "t0": 63264, 
                            "v": 75, 
                            "dur": 150, 
                            "type": "note", 
                            "channel": 9
                        }
                    ]
                ], 
                [
                    63641, 
                    [
                        {
                            "pitch": 64, 
                            "t0": 63641, 
                            "v": 72, 
                            "dur": 28, 
                            "type": "note", 
                            "channel": 9
                        }
                    ]
                ], 
                [
                    63649, 
                    [
                        {
                            "pitch": 60, 
                            "t0": 63649, 
                            "v": 37, 
                            "dur": 14, 
                            "type": "note", 
                            "channel": 9
                        }
                    ]
                ], 
                [
                    63710, 
                    [
                        {
                            "pitch": 64, 
                            "t0": 63710, 
                            "v": 58, 
                            "dur": 84, 
                            "type": "note", 
                            "channel": 9
                        }
                    ]
                ], 
                [
                    63859, 
                    [
                        {
                            "pitch": 60, 
                            "t0": 63859, 
                            "v": 75, 
                            "dur": 241, 
                            "type": "note", 
                            "channel": 9
                        }
                    ]
                ], 
                [
                    64205, 
                    [
                        {
                            "pitch": 64, 
                            "t0": 64205, 
                            "v": 75, 
                            "dur": 114, 
                            "type": "note", 
                            "channel": 9
                        }
                    ]
                ], 
                [
                    64437, 
                    [
                        {
                            "pitch": 64, 
                            "t0": 64437, 
                            "v": 61, 
                            "dur": 149, 
                            "type": "note", 
                            "channel": 9
                        }
                    ]
                ], 
                [
                    64669, 
                    [
                        {
                            "pitch": 64, 
                            "t0": 64669, 
                            "v": 39, 
                            "dur": 54, 
                            "type": "note", 
                            "channel": 9
                        }
                    ]
                ], 
                [
                    64817, 
                    [
                        {
                            "pitch": 60, 
                            "t0": 64817, 
                            "v": 86, 
                            "dur": 109, 
                            "type": "note", 
                            "channel": 9
                        }
                    ]
                ], 
                [
                    65049, 
                    [
                        {
                            "pitch": 60, 
                            "t0": 65049, 
                            "v": 86, 
                            "dur": 159, 
                            "type": "note", 
                            "channel": 9
                        }
                    ]
                ], 
                [
                    65527, 
                    [
                        {
                            "pitch": 64, 
                            "t0": 65527, 
                            "v": 78, 
                            "dur": 29, 
                            "type": "note", 
                            "channel": 9
                        }
                    ]
                ], 
                [
                    65594, 
                    [
                        {
                            "pitch": 64, 
                            "t0": 65594, 
                            "v": 75, 
                            "dur": 97, 
                            "type": "note", 
                            "channel": 9
                        }
                    ]
                ], 
                [
                    65781, 
                    [
                        {
                            "pitch": 60, 
                            "t0": 65781, 
                            "v": 78, 
                            "dur": 43, 
                            "type": "note", 
                            "channel": 9
                        }
                    ]
                ], 
                [
                    65782, 
                    [
                        {
                            "pitch": 62, 
                            "t0": 65782, 
                            "v": 72, 
                            "dur": 40, 
                            "type": "note", 
                            "channel": 9
                        }
                    ]
                ], 
                [
                    65892, 
                    [
                        {
                            "pitch": 60, 
                            "t0": 65892, 
                            "v": 81, 
                            "dur": 93, 
                            "type": "note", 
                            "channel": 9
                        }
                    ]
                ], 
                [
                    66267, 
                    [
                        {
                            "pitch": 64, 
                            "t0": 66267, 
                            "v": 72, 
                            "dur": 54, 
                            "type": "note", 
                            "channel": 9
                        }
                    ]
                ], 
                [
                    66383, 
                    [
                        {
                            "pitch": 64, 
                            "t0": 66383, 
                            "v": 75, 
                            "dur": 89, 
                            "type": "note", 
                            "channel": 9
                        }
                    ]
                ], 
                [
                    66633, 
                    [
                        {
                            "pitch": 60, 
                            "t0": 66633, 
                            "v": 81, 
                            "dur": 211, 
                            "type": "note", 
                            "channel": 9
                        }
                    ]
                ], 
                [
                    66979, 
                    [
                        {
                            "pitch": 60, 
                            "t0": 66979, 
                            "v": 81, 
                            "dur": 86, 
                            "type": "note", 
                            "channel": 9
                        }
                    ]
                ], 
                [
                    67096, 
                    [
                        {
                            "pitch": 60, 
                            "t0": 67096, 
                            "v": 64, 
                            "dur": 136, 
                            "type": "note", 
                            "channel": 9
                        }
                    ]
                ], 
                [
                    67462, 
                    [
                        {
                            "pitch": 64, 
                            "t0": 67462, 
                            "v": 75, 
                            "dur": 31, 
                            "type": "note", 
                            "channel": 9
                        }
                    ]
                ], 
                [
                    67526, 
                    [
                        {
                            "pitch": 64, 
                            "t0": 67526, 
                            "v": 64, 
                            "dur": 93, 
                            "type": "note", 
                            "channel": 9
                        }
                    ]
                ], 
                [
                    67691, 
                    [
                        {
                            "pitch": 60, 
                            "t0": 67691, 
                            "v": 84, 
                            "dur": 60, 
                            "type": "note", 
                            "channel": 9
                        }
                    ]
                ], 
                [
                    67812, 
                    [
                        {
                            "pitch": 60, 
                            "t0": 67812, 
                            "v": 86, 
                            "dur": 208, 
                            "type": "note", 
                            "channel": 9
                        }
                    ]
                ], 
                [
                    68180, 
                    [
                        {
                            "pitch": 60, 
                            "t0": 68180, 
                            "v": 86, 
                            "dur": 161, 
                            "type": "note", 
                            "channel": 9
                        }
                    ]
                ], 
                [
                    68538, 
                    [
                        {
                            "pitch": 64, 
                            "t0": 68538, 
                            "v": 84, 
                            "dur": 144, 
                            "type": "note", 
                            "channel": 9
                        }
                    ]
                ], 
                [
                    68783, 
                    [
                        {
                            "pitch": 64, 
                            "t0": 68783, 
                            "v": 84, 
                            "dur": 123, 
                            "type": "note", 
                            "channel": 9
                        }
                    ]
                ], 
                [
                    69000, 
                    [
                        {
                            "pitch": 64, 
                            "t0": 69000, 
                            "v": 78, 
                            "dur": 63, 
                            "type": "note", 
                            "channel": 9
                        }
                    ]
                ], 
                [
                    69383, 
                    [
                        {
                            "pitch": 64, 
                            "t0": 69383, 
                            "v": 75, 
                            "dur": 35, 
                            "type": "note", 
                            "channel": 9
                        }
                    ]
                ], 
                [
                    69446, 
                    [
                        {
                            "pitch": 64, 
                            "t0": 69446, 
                            "v": 58, 
                            "dur": 97, 
                            "type": "note", 
                            "channel": 9
                        }
                    ]
                ], 
                [
                    69620, 
                    [
                        {
                            "pitch": 60, 
                            "t0": 69620, 
                            "v": 78, 
                            "dur": 78, 
                            "type": "note", 
                            "channel": 9
                        }
                    ]
                ], 
                [
                    69742, 
                    [
                        {
                            "pitch": 60, 
                            "t0": 69742, 
                            "v": 81, 
                            "dur": 187, 
                            "type": "note", 
                            "channel": 9
                        }
                    ]
                ], 
                [
                    70086, 
                    [
                        {
                            "pitch": 64, 
                            "t0": 70086, 
                            "v": 78, 
                            "dur": 79, 
                            "type": "note", 
                            "channel": 9
                        }
                    ]
                ], 
                [
                    70090, 
                    [
                        {
                            "pitch": 62, 
                            "t0": 70090, 
                            "v": 72, 
                            "dur": 55, 
                            "type": "note", 
                            "channel": 9
                        }
                    ]
                ], 
                [
                    70464, 
                    [
                        {
                            "pitch": 60, 
                            "t0": 70464, 
                            "v": 84, 
                            "dur": 210, 
                            "type": "note", 
                            "channel": 9
                        }
                    ]
                ], 
                [
                    70812, 
                    [
                        {
                            "pitch": 60, 
                            "t0": 70812, 
                            "v": 84, 
                            "dur": 82, 
                            "type": "note", 
                            "channel": 9
                        }
                    ]
                ], 
                [
                    70930, 
                    [
                        {
                            "pitch": 60, 
                            "t0": 70930, 
                            "v": 81, 
                            "dur": 159, 
                            "type": "note", 
                            "channel": 9
                        }
                    ]
                ], 
                [
                    71280, 
                    [
                        {
                            "pitch": 62, 
                            "t0": 71280, 
                            "v": 44, 
                            "dur": 25, 
                            "type": "note", 
                            "channel": 9
                        }
                    ]
                ], 
                [
                    71283, 
                    [
                        {
                            "pitch": 64, 
                            "t0": 71283, 
                            "v": 47, 
                            "dur": 21, 
                            "type": "note", 
                            "channel": 9
                        }
                    ]
                ], 
                [
                    71351, 
                    [
                        {
                            "pitch": 64, 
                            "t0": 71351, 
                            "v": 50, 
                            "dur": 94, 
                            "type": "note", 
                            "channel": 9
                        }
                    ]
                ], 
                [
                    71541, 
                    [
                        {
                            "pitch": 64, 
                            "t0": 71541, 
                            "v": 78, 
                            "dur": 63, 
                            "type": "note", 
                            "channel": 9
                        }
                    ]
                ], 
                [
                    71891, 
                    [
                        {
                            "pitch": 64, 
                            "t0": 71891, 
                            "v": 75, 
                            "dur": 152, 
                            "type": "note", 
                            "channel": 9
                        }
                    ]
                ], 
                [
                    72136, 
                    [
                        {
                            "pitch": 64, 
                            "t0": 72136, 
                            "v": 56, 
                            "dur": 89, 
                            "type": "note", 
                            "channel": 9
                        }
                    ]
                ], 
                [
                    72143, 
                    [
                        {
                            "pitch": 62, 
                            "t0": 72143, 
                            "v": 32, 
                            "dur": 11, 
                            "type": "note", 
                            "channel": 9
                        }
                    ]
                ], 
                [
                    72365, 
                    [
                        {
                            "pitch": 64, 
                            "t0": 72365, 
                            "v": 70, 
                            "dur": 60, 
                            "type": "note", 
                            "channel": 9
                        }
                    ]
                ], 
                [
                    72498, 
                    [
                        {
                            "pitch": 60, 
                            "t0": 72498, 
                            "v": 84, 
                            "dur": 160, 
                            "type": "note", 
                            "channel": 9
                        }
                    ]
                ], 
                [
                    72727, 
                    [
                        {
                            "pitch": 60, 
                            "t0": 72727, 
                            "v": 86, 
                            "dur": 191, 
                            "type": "note", 
                            "channel": 9
                        }
                    ]
                ], 
                [
                    73217, 
                    [
                        {
                            "pitch": 64, 
                            "t0": 73217, 
                            "v": 78, 
                            "dur": 31, 
                            "type": "note", 
                            "channel": 9
                        }
                    ]
                ], 
                [
                    73283, 
                    [
                        {
                            "pitch": 64, 
                            "t0": 73283, 
                            "v": 70, 
                            "dur": 41, 
                            "type": "note", 
                            "channel": 9
                        }
                    ]
                ], 
                [
                    73338, 
                    [
                        {
                            "pitch": 64, 
                            "t0": 73338, 
                            "v": 67, 
                            "dur": 56, 
                            "type": "note", 
                            "channel": 9
                        }
                    ]
                ], 
                [
                    73467, 
                    [
                        {
                            "pitch": 60, 
                            "t0": 73467, 
                            "v": 84, 
                            "dur": 78, 
                            "type": "note", 
                            "channel": 9
                        }
                    ]
                ], 
                [
                    73470, 
                    [
                        {
                            "pitch": 62, 
                            "t0": 73470, 
                            "v": 67, 
                            "dur": 64, 
                            "type": "note", 
                            "channel": 9
                        }
                    ]
                ], 
                [
                    73578, 
                    [
                        {
                            "pitch": 60, 
                            "t0": 73578, 
                            "v": 81, 
                            "dur": 169, 
                            "type": "note", 
                            "channel": 9
                        }
                    ]
                ], 
                [
                    73939, 
                    [
                        {
                            "pitch": 64, 
                            "t0": 73939, 
                            "v": 81, 
                            "dur": 72, 
                            "type": "note", 
                            "channel": 9
                        }
                    ]
                ], 
                [
                    74061, 
                    [
                        {
                            "pitch": 64, 
                            "t0": 74061, 
                            "v": 81, 
                            "dur": 125, 
                            "type": "note", 
                            "channel": 9
                        }
                    ]
                ], 
                [
                    74310, 
                    [
                        {
                            "pitch": 60, 
                            "t0": 74310, 
                            "v": 81, 
                            "dur": 263, 
                            "type": "note", 
                            "channel": 9
                        }
                    ]
                ], 
                [
                    74664, 
                    [
                        {
                            "pitch": 60, 
                            "t0": 74664, 
                            "v": 84, 
                            "dur": 74, 
                            "type": "note", 
                            "channel": 9
                        }
                    ]
                ], 
                [
                    74775, 
                    [
                        {
                            "pitch": 60, 
                            "t0": 74775, 
                            "v": 81, 
                            "dur": 219, 
                            "type": "note", 
                            "channel": 9
                        }
                    ]
                ], 
                [
                    75153, 
                    [
                        {
                            "pitch": 64, 
                            "t0": 75153, 
                            "v": 70, 
                            "dur": 34, 
                            "type": "note", 
                            "channel": 9
                        }
                    ]
                ], 
                [
                    75214, 
                    [
                        {
                            "pitch": 64, 
                            "t0": 75214, 
                            "v": 61, 
                            "dur": 110, 
                            "type": "note", 
                            "channel": 9
                        }
                    ]
                ], 
                [
                    75387, 
                    [
                        {
                            "pitch": 60, 
                            "t0": 75387, 
                            "v": 86, 
                            "dur": 81, 
                            "type": "note", 
                            "channel": 9
                        }
                    ]
                ], 
                [
                    75502, 
                    [
                        {
                            "pitch": 60, 
                            "t0": 75502, 
                            "v": 78, 
                            "dur": 279, 
                            "type": "note", 
                            "channel": 9
                        }
                    ]
                ], 
                [
                    75859, 
                    [
                        {
                            "pitch": 64, 
                            "t0": 75859, 
                            "v": 75, 
                            "dur": 56, 
                            "type": "note", 
                            "channel": 9
                        }
                    ]
                ], 
                [
                    75982, 
                    [
                        {
                            "pitch": 64, 
                            "t0": 75982, 
                            "v": 75, 
                            "dur": 165, 
                            "type": "note", 
                            "channel": 9
                        }
                    ]
                ], 
                [
                    76228, 
                    [
                        {
                            "pitch": 60, 
                            "t0": 76228, 
                            "v": 84, 
                            "dur": 230, 
                            "type": "note", 
                            "channel": 9
                        }
                    ]
                ], 
                [
                    76573, 
                    [
                        {
                            "pitch": 60, 
                            "t0": 76573, 
                            "v": 81, 
                            "dur": 184, 
                            "type": "note", 
                            "channel": 9
                        }
                    ]
                ], 
                [
                    77040, 
                    [
                        {
                            "pitch": 64, 
                            "t0": 77040, 
                            "v": 70, 
                            "dur": 38, 
                            "type": "note", 
                            "channel": 9
                        }
                    ]
                ], 
                [
                    77108, 
                    [
                        {
                            "pitch": 64, 
                            "t0": 77108, 
                            "v": 61, 
                            "dur": 125, 
                            "type": "note", 
                            "channel": 9
                        }
                    ]
                ], 
                [
                    77294, 
                    [
                        {
                            "pitch": 60, 
                            "t0": 77294, 
                            "v": 78, 
                            "dur": 324, 
                            "type": "note", 
                            "channel": 9
                        }
                    ]
                ], 
                [
                    77658, 
                    [
                        {
                            "pitch": 64, 
                            "t0": 77658, 
                            "v": 70, 
                            "dur": 186, 
                            "type": "note", 
                            "channel": 9
                        }
                    ]
                ], 
                [
                    77894, 
                    [
                        {
                            "pitch": 64, 
                            "t0": 77894, 
                            "v": 75, 
                            "dur": 173, 
                            "type": "note", 
                            "channel": 9
                        }
                    ]
                ], 
                [
                    78134, 
                    [
                        {
                            "pitch": 64, 
                            "t0": 78134, 
                            "v": 72, 
                            "dur": 101, 
                            "type": "note", 
                            "channel": 9
                        }
                    ]
                ], 
                [
                    78261, 
                    [
                        {
                            "pitch": 60, 
                            "t0": 78261, 
                            "v": 81, 
                            "dur": 128, 
                            "type": "note", 
                            "channel": 9
                        }
                    ]
                ], 
                [
                    78478, 
                    [
                        {
                            "pitch": 60, 
                            "t0": 78478, 
                            "v": 84, 
                            "dur": 91, 
                            "type": "note", 
                            "channel": 9
                        }
                    ]
                ], 
                [
                    78597, 
                    [
                        {
                            "pitch": 60, 
                            "t0": 78597, 
                            "v": 75, 
                            "dur": 170, 
                            "type": "note", 
                            "channel": 9
                        }
                    ]
                ], 
                [
                    78983, 
                    [
                        {
                            "pitch": 64, 
                            "t0": 78983, 
                            "v": 72, 
                            "dur": 32, 
                            "type": "note", 
                            "channel": 9
                        }
                    ]
                ], 
                [
                    79043, 
                    [
                        {
                            "pitch": 64, 
                            "t0": 79043, 
                            "v": 67, 
                            "dur": 42, 
                            "type": "note", 
                            "channel": 9
                        }
                    ]
                ], 
                [
                    79102, 
                    [
                        {
                            "pitch": 64, 
                            "t0": 79102, 
                            "v": 50, 
                            "dur": 45, 
                            "type": "note", 
                            "channel": 9
                        }
                    ]
                ], 
                [
                    79226, 
                    [
                        {
                            "pitch": 60, 
                            "t0": 79226, 
                            "v": 81, 
                            "dur": 285, 
                            "type": "note", 
                            "channel": 9
                        }
                    ]
                ], 
                [
                    79570, 
                    [
                        {
                            "pitch": 64, 
                            "t0": 79570, 
                            "v": 78, 
                            "dur": 161, 
                            "type": "note", 
                            "channel": 9
                        }
                    ]
                ], 
                [
                    79802, 
                    [
                        {
                            "pitch": 64, 
                            "t0": 79802, 
                            "v": 78, 
                            "dur": 197, 
                            "type": "note", 
                            "channel": 9
                        }
                    ]
                ], 
                [
                    80050, 
                    [
                        {
                            "pitch": 64, 
                            "t0": 80050, 
                            "v": 37, 
                            "dur": 45, 
                            "type": "note", 
                            "channel": 9
                        }
                    ]
                ], 
                [
                    80179, 
                    [
                        {
                            "pitch": 60, 
                            "t0": 80179, 
                            "v": 75, 
                            "dur": 138, 
                            "type": "note", 
                            "channel": 9
                        }
                    ]
                ], 
                [
                    80415, 
                    [
                        {
                            "pitch": 60, 
                            "t0": 80415, 
                            "v": 86, 
                            "dur": 200, 
                            "type": "note", 
                            "channel": 9
                        }
                    ]
                ], 
                [
                    80908, 
                    [
                        {
                            "pitch": 64, 
                            "t0": 80908, 
                            "v": 81, 
                            "dur": 30, 
                            "type": "note", 
                            "channel": 9
                        }
                    ]
                ], 
                [
                    80973, 
                    [
                        {
                            "pitch": 64, 
                            "t0": 80973, 
                            "v": 58, 
                            "dur": 39, 
                            "type": "note", 
                            "channel": 9
                        }
                    ]
                ], 
                [
                    81029, 
                    [
                        {
                            "pitch": 64, 
                            "t0": 81029, 
                            "v": 56, 
                            "dur": 49, 
                            "type": "note", 
                            "channel": 9
                        }
                    ]
                ], 
                [
                    81153, 
                    [
                        {
                            "pitch": 62, 
                            "t0": 81153, 
                            "v": 75, 
                            "dur": 69, 
                            "type": "note", 
                            "channel": 9
                        }
                    ]
                ], 
                [
                    81154, 
                    [
                        {
                            "pitch": 60, 
                            "t0": 81154, 
                            "v": 72, 
                            "dur": 68, 
                            "type": "note", 
                            "channel": 9
                        }
                    ]
                ], 
                [
                    81266, 
                    [
                        {
                            "pitch": 60, 
                            "t0": 81266, 
                            "v": 75, 
                            "dur": 256, 
                            "type": "note", 
                            "channel": 9
                        }
                    ]
                ], 
                [
                    81640, 
                    [
                        {
                            "pitch": 64, 
                            "t0": 81640, 
                            "v": 81, 
                            "dur": 79, 
                            "type": "note", 
                            "channel": 9
                        }
                    ]
                ], 
                [
                    81758, 
                    [
                        {
                            "pitch": 64, 
                            "t0": 81758, 
                            "v": 78, 
                            "dur": 212, 
                            "type": "note", 
                            "channel": 9
                        }
                    ]
                ], 
                [
                    81995, 
                    [
                        {
                            "pitch": 60, 
                            "t0": 81995, 
                            "v": 84, 
                            "dur": 264, 
                            "type": "note", 
                            "channel": 9
                        }
                    ]
                ], 
                [
                    82327, 
                    [
                        {
                            "pitch": 60, 
                            "t0": 82327, 
                            "v": 75, 
                            "dur": 57, 
                            "type": "note", 
                            "channel": 9
                        }
                    ]
                ], 
                [
                    82438, 
                    [
                        {
                            "pitch": 60, 
                            "t0": 82438, 
                            "v": 72, 
                            "dur": 164, 
                            "type": "note", 
                            "channel": 9
                        }
                    ]
                ], 
                [
                    82821, 
                    [
                        {
                            "pitch": 64, 
                            "t0": 82821, 
                            "v": 75, 
                            "dur": 33, 
                            "type": "note", 
                            "channel": 9
                        }
                    ]
                ], 
                [
                    82881, 
                    [
                        {
                            "pitch": 64, 
                            "t0": 82881, 
                            "v": 61, 
                            "dur": 107, 
                            "type": "note", 
                            "channel": 9
                        }
                    ]
                ], 
                [
                    83046, 
                    [
                        {
                            "pitch": 60, 
                            "t0": 83046, 
                            "v": 84, 
                            "dur": 219, 
                            "type": "note", 
                            "channel": 9
                        }
                    ]
                ], 
                [
                    83414, 
                    [
                        {
                            "pitch": 64, 
                            "t0": 83414, 
                            "v": 78, 
                            "dur": 182, 
                            "type": "note", 
                            "channel": 9
                        }
                    ]
                ], 
                [
                    83640, 
                    [
                        {
                            "pitch": 64, 
                            "t0": 83640, 
                            "v": 67, 
                            "dur": 172, 
                            "type": "note", 
                            "channel": 9
                        }
                    ]
                ], 
                [
                    83892, 
                    [
                        {
                            "pitch": 64, 
                            "t0": 83892, 
                            "v": 50, 
                            "dur": 83, 
                            "type": "note", 
                            "channel": 9
                        }
                    ]
                ], 
                [
                    84015, 
                    [
                        {
                            "pitch": 60, 
                            "t0": 84015, 
                            "v": 75, 
                            "dur": 165, 
                            "type": "note", 
                            "channel": 9
                        }
                    ]
                ], 
                [
                    84245, 
                    [
                        {
                            "pitch": 60, 
                            "t0": 84245, 
                            "v": 81, 
                            "dur": 66, 
                            "type": "note", 
                            "channel": 9
                        }
                    ]
                ], 
                [
                    84355, 
                    [
                        {
                            "pitch": 60, 
                            "t0": 84355, 
                            "v": 78, 
                            "dur": 177, 
                            "type": "note", 
                            "channel": 9
                        }
                    ]
                ], 
                [
                    84742, 
                    [
                        {
                            "pitch": 64, 
                            "t0": 84742, 
                            "v": 61, 
                            "dur": 34, 
                            "type": "note", 
                            "channel": 9
                        }
                    ]
                ], 
                [
                    84811, 
                    [
                        {
                            "pitch": 64, 
                            "t0": 84811, 
                            "v": 58, 
                            "dur": 34, 
                            "type": "note", 
                            "channel": 9
                        }
                    ]
                ], 
                [
                    84871, 
                    [
                        {
                            "pitch": 64, 
                            "t0": 84871, 
                            "v": 72, 
                            "dur": 47, 
                            "type": "note", 
                            "channel": 9
                        }
                    ]
                ], 
                [
                    84993, 
                    [
                        {
                            "pitch": 60, 
                            "t0": 84993, 
                            "v": 84, 
                            "dur": 89, 
                            "type": "note", 
                            "channel": 9
                        }
                    ]
                ], 
                [
                    85110, 
                    [
                        {
                            "pitch": 60, 
                            "t0": 85110, 
                            "v": 78, 
                            "dur": 263, 
                            "type": "note", 
                            "channel": 9
                        }
                    ]
                ], 
                [
                    85453, 
                    [
                        {
                            "pitch": 64, 
                            "t0": 85453, 
                            "v": 75, 
                            "dur": 63, 
                            "type": "note", 
                            "channel": 9
                        }
                    ]
                ], 
                [
                    85570, 
                    [
                        {
                            "pitch": 64, 
                            "t0": 85570, 
                            "v": 64, 
                            "dur": 220, 
                            "type": "note", 
                            "channel": 9
                        }
                    ]
                ], 
                [
                    85806, 
                    [
                        {
                            "pitch": 60, 
                            "t0": 85806, 
                            "v": 78, 
                            "dur": 306, 
                            "type": "note", 
                            "channel": 9
                        }
                    ]
                ], 
                [
                    86167, 
                    [
                        {
                            "pitch": 60, 
                            "t0": 86167, 
                            "v": 75, 
                            "dur": 67, 
                            "type": "note", 
                            "channel": 9
                        }
                    ]
                ], 
                [
                    86279, 
                    [
                        {
                            "pitch": 60, 
                            "t0": 86279, 
                            "v": 75, 
                            "dur": 193, 
                            "type": "note", 
                            "channel": 9
                        }
                    ]
                ], 
                [
                    86656, 
                    [
                        {
                            "pitch": 64, 
                            "t0": 86656, 
                            "v": 72, 
                            "dur": 34, 
                            "type": "note", 
                            "channel": 9
                        }
                    ]
                ], 
                [
                    86722, 
                    [
                        {
                            "pitch": 64, 
                            "t0": 86722, 
                            "v": 58, 
                            "dur": 112, 
                            "type": "note", 
                            "channel": 9
                        }
                    ]
                ], 
                [
                    86895, 
                    [
                        {
                            "pitch": 60, 
                            "t0": 86895, 
                            "v": 78, 
                            "dur": 333, 
                            "type": "note", 
                            "channel": 9
                        }
                    ]
                ], 
                [
                    87251, 
                    [
                        {
                            "pitch": 64, 
                            "t0": 87251, 
                            "v": 75, 
                            "dur": 203, 
                            "type": "note", 
                            "channel": 9
                        }
                    ]
                ], 
                [
                    87498, 
                    [
                        {
                            "pitch": 64, 
                            "t0": 87498, 
                            "v": 75, 
                            "dur": 174, 
                            "type": "note", 
                            "channel": 9
                        }
                    ]
                ], 
                [
                    87743, 
                    [
                        {
                            "pitch": 64, 
                            "t0": 87743, 
                            "v": 70, 
                            "dur": 123, 
                            "type": "note", 
                            "channel": 9
                        }
                    ]
                ], 
                [
                    87869, 
                    [
                        {
                            "pitch": 60, 
                            "t0": 87869, 
                            "v": 78, 
                            "dur": 159, 
                            "type": "note", 
                            "channel": 9
                        }
                    ]
                ], 
                [
                    88083, 
                    [
                        {
                            "pitch": 60, 
                            "t0": 88083, 
                            "v": 78, 
                            "dur": 69, 
                            "type": "note", 
                            "channel": 9
                        }
                    ]
                ], 
                [
                    88191, 
                    [
                        {
                            "pitch": 60, 
                            "t0": 88191, 
                            "v": 56, 
                            "dur": 176, 
                            "type": "note", 
                            "channel": 9
                        }
                    ]
                ], 
                [
                    88575, 
                    [
                        {
                            "pitch": 64, 
                            "t0": 88575, 
                            "v": 50, 
                            "dur": 40, 
                            "type": "note", 
                            "channel": 9
                        }
                    ]
                ], 
                [
                    88645, 
                    [
                        {
                            "pitch": 64, 
                            "t0": 88645, 
                            "v": 39, 
                            "dur": 109, 
                            "type": "note", 
                            "channel": 9
                        }
                    ]
                ], 
                [
                    88824, 
                    [
                        {
                            "pitch": 60, 
                            "t0": 88824, 
                            "v": 84, 
                            "dur": 76, 
                            "type": "note", 
                            "channel": 9
                        }
                    ]
                ], 
                [
                    88933, 
                    [
                        {
                            "pitch": 60, 
                            "t0": 88933, 
                            "v": 78, 
                            "dur": 287, 
                            "type": "note", 
                            "channel": 9
                        }
                    ]
                ], 
                [
                    89281, 
                    [
                        {
                            "pitch": 64, 
                            "t0": 89281, 
                            "v": 72, 
                            "dur": 79, 
                            "type": "note", 
                            "channel": 9
                        }
                    ]
                ], 
                [
                    89404, 
                    [
                        {
                            "pitch": 64, 
                            "t0": 89404, 
                            "v": 78, 
                            "dur": 226, 
                            "type": "note", 
                            "channel": 9
                        }
                    ]
                ], 
                [
                    89660, 
                    [
                        {
                            "pitch": 60, 
                            "t0": 89660, 
                            "v": 81, 
                            "dur": 299, 
                            "type": "note", 
                            "channel": 9
                        }
                    ]
                ], 
                [
                    90005, 
                    [
                        {
                            "pitch": 60, 
                            "t0": 90005, 
                            "v": 70, 
                            "dur": 249, 
                            "type": "note", 
                            "channel": 9
                        }
                    ]
                ], 
                [
                    90481, 
                    [
                        {
                            "pitch": 64, 
                            "t0": 90481, 
                            "v": 53, 
                            "dur": 23, 
                            "type": "note", 
                            "channel": 9
                        }
                    ]
                ], 
                [
                    90548, 
                    [
                        {
                            "pitch": 64, 
                            "t0": 90548, 
                            "v": 61, 
                            "dur": 116, 
                            "type": "note", 
                            "channel": 9
                        }
                    ]
                ], 
                [
                    90726, 
                    [
                        {
                            "pitch": 60, 
                            "t0": 90726, 
                            "v": 78, 
                            "dur": 90, 
                            "type": "note", 
                            "channel": 9
                        }
                    ]
                ], 
                [
                    91091, 
                    [
                        {
                            "pitch": 64, 
                            "t0": 91091, 
                            "v": 61, 
                            "dur": 97, 
                            "type": "note", 
                            "channel": 9
                        }
                    ]
                ], 
                [
                    91329, 
                    [
                        {
                            "pitch": 64, 
                            "t0": 91329, 
                            "v": 78, 
                            "dur": 152, 
                            "type": "note", 
                            "channel": 9
                        }
                    ]
                ], 
                [
                    91570, 
                    [
                        {
                            "pitch": 64, 
                            "t0": 91570, 
                            "v": 84, 
                            "dur": 77, 
                            "type": "note", 
                            "channel": 9
                        }
                    ]
                ], 
                [
                    91689, 
                    [
                        {
                            "pitch": 62, 
                            "t0": 91689, 
                            "v": 67, 
                            "dur": 109, 
                            "type": "note", 
                            "channel": 9
                        }, 
                        {
                            "pitch": 60, 
                            "t0": 91689, 
                            "v": 67, 
                            "dur": 181, 
                            "type": "note", 
                            "channel": 9
                        }
                    ]
                ], 
                [
                    91924, 
                    [
                        {
                            "pitch": 60, 
                            "t0": 91924, 
                            "v": 81, 
                            "dur": 237, 
                            "type": "note", 
                            "channel": 9
                        }
                    ]
                ], 
                [
                    92404, 
                    [
                        {
                            "pitch": 64, 
                            "t0": 92404, 
                            "v": 75, 
                            "dur": 31, 
                            "type": "note", 
                            "channel": 9
                        }
                    ]
                ], 
                [
                    92471, 
                    [
                        {
                            "pitch": 64, 
                            "t0": 92471, 
                            "v": 64, 
                            "dur": 107, 
                            "type": "note", 
                            "channel": 9
                        }
                    ]
                ], 
                [
                    92642, 
                    [
                        {
                            "pitch": 60, 
                            "t0": 92642, 
                            "v": 81, 
                            "dur": 73, 
                            "type": "note", 
                            "channel": 9
                        }
                    ]
                ], 
                [
                    92750, 
                    [
                        {
                            "pitch": 60, 
                            "t0": 92750, 
                            "v": 72, 
                            "dur": 267, 
                            "type": "note", 
                            "channel": 9
                        }
                    ]
                ], 
                [
                    93108, 
                    [
                        {
                            "pitch": 64, 
                            "t0": 93108, 
                            "v": 78, 
                            "dur": 71, 
                            "type": "note", 
                            "channel": 9
                        }
                    ]
                ], 
                [
                    93233, 
                    [
                        {
                            "pitch": 64, 
                            "t0": 93233, 
                            "v": 72, 
                            "dur": 218, 
                            "type": "note", 
                            "channel": 9
                        }
                    ]
                ], 
                [
                    93491, 
                    [
                        {
                            "pitch": 60, 
                            "t0": 93491, 
                            "v": 81, 
                            "dur": 300, 
                            "type": "note", 
                            "channel": 9
                        }
                    ]
                ], 
                [
                    93852, 
                    [
                        {
                            "pitch": 60, 
                            "t0": 93852, 
                            "v": 81, 
                            "dur": 85, 
                            "type": "note", 
                            "channel": 9
                        }
                    ]
                ], 
                [
                    93971, 
                    [
                        {
                            "pitch": 60, 
                            "t0": 93971, 
                            "v": 78, 
                            "dur": 131, 
                            "type": "note", 
                            "channel": 9
                        }
                    ]
                ], 
                [
                    94343, 
                    [
                        {
                            "pitch": 64, 
                            "t0": 94343, 
                            "v": 72, 
                            "dur": 40, 
                            "type": "note", 
                            "channel": 9
                        }
                    ]
                ], 
                [
                    94401, 
                    [
                        {
                            "pitch": 64, 
                            "t0": 94401, 
                            "v": 50, 
                            "dur": 44, 
                            "type": "note", 
                            "channel": 9
                        }
                    ]
                ], 
                [
                    94467, 
                    [
                        {
                            "pitch": 64, 
                            "t0": 94467, 
                            "v": 61, 
                            "dur": 56, 
                            "type": "note", 
                            "channel": 9
                        }
                    ]
                ], 
                [
                    94578, 
                    [
                        {
                            "pitch": 60, 
                            "t0": 94578, 
                            "v": 78, 
                            "dur": 84, 
                            "type": "note", 
                            "channel": 9
                        }
                    ]
                ], 
                [
                    94695, 
                    [
                        {
                            "pitch": 60, 
                            "t0": 94695, 
                            "v": 78, 
                            "dur": 323, 
                            "type": "note", 
                            "channel": 9
                        }
                    ]
                ], 
                [
                    95051, 
                    [
                        {
                            "pitch": 64, 
                            "t0": 95051, 
                            "v": 72, 
                            "dur": 77, 
                            "type": "note", 
                            "channel": 9
                        }
                    ]
                ], 
                [
                    95174, 
                    [
                        {
                            "pitch": 64, 
                            "t0": 95174, 
                            "v": 64, 
                            "dur": 229, 
                            "type": "note", 
                            "channel": 9
                        }
                    ]
                ], 
                [
                    95417, 
                    [
                        {
                            "pitch": 60, 
                            "t0": 95417, 
                            "v": 75, 
                            "dur": 307, 
                            "type": "note", 
                            "channel": 9
                        }
                    ]
                ], 
                [
                    95776, 
                    [
                        {
                            "pitch": 60, 
                            "t0": 95776, 
                            "v": 78, 
                            "dur": 63, 
                            "type": "note", 
                            "channel": 9
                        }
                    ]
                ], 
                [
                    95880, 
                    [
                        {
                            "pitch": 60, 
                            "t0": 95880, 
                            "v": 70, 
                            "dur": 204, 
                            "type": "note", 
                            "channel": 9
                        }
                    ]
                ], 
                [
                    96252, 
                    [
                        {
                            "pitch": 64, 
                            "t0": 96252, 
                            "v": 72, 
                            "dur": 41, 
                            "type": "note", 
                            "channel": 9
                        }
                    ]
                ], 
                [
                    96320, 
                    [
                        {
                            "pitch": 64, 
                            "t0": 96320, 
                            "v": 56, 
                            "dur": 44, 
                            "type": "note", 
                            "channel": 9
                        }
                    ]
                ], 
                [
                    96384, 
                    [
                        {
                            "pitch": 64, 
                            "t0": 96384, 
                            "v": 53, 
                            "dur": 47, 
                            "type": "note", 
                            "channel": 9
                        }
                    ]
                ], 
                [
                    96486, 
                    [
                        {
                            "pitch": 60, 
                            "t0": 96486, 
                            "v": 81, 
                            "dur": 71, 
                            "type": "note", 
                            "channel": 9
                        }
                    ]
                ], 
                [
                    96600, 
                    [
                        {
                            "pitch": 60, 
                            "t0": 96600, 
                            "v": 81, 
                            "dur": 282, 
                            "type": "note", 
                            "channel": 9
                        }
                    ]
                ], 
                [
                    96957, 
                    [
                        {
                            "pitch": 64, 
                            "t0": 96957, 
                            "v": 75, 
                            "dur": 67, 
                            "type": "note", 
                            "channel": 9
                        }
                    ]
                ], 
                [
                    97074, 
                    [
                        {
                            "pitch": 64, 
                            "t0": 97074, 
                            "v": 78, 
                            "dur": 227, 
                            "type": "note", 
                            "channel": 9
                        }
                    ]
                ], 
                [
                    97332, 
                    [
                        {
                            "pitch": 60, 
                            "t0": 97332, 
                            "v": 81, 
                            "dur": 310, 
                            "type": "note", 
                            "channel": 9
                        }
                    ]
                ], 
                [
                    97693, 
                    [
                        {
                            "pitch": 60, 
                            "t0": 97693, 
                            "v": 75, 
                            "dur": 70, 
                            "type": "note", 
                            "channel": 9
                        }
                    ]
                ], 
                [
                    97813, 
                    [
                        {
                            "pitch": 60, 
                            "t0": 97813, 
                            "v": 81, 
                            "dur": 147, 
                            "type": "note", 
                            "channel": 9
                        }
                    ]
                ], 
                [
                    98174, 
                    [
                        {
                            "pitch": 64, 
                            "t0": 98174, 
                            "v": 72, 
                            "dur": 38, 
                            "type": "note", 
                            "channel": 9
                        }
                    ]
                ], 
                [
                    98243, 
                    [
                        {
                            "pitch": 64, 
                            "t0": 98243, 
                            "v": 70, 
                            "dur": 115, 
                            "type": "note", 
                            "channel": 9
                        }
                    ]
                ], 
                [
                    98416, 
                    [
                        {
                            "pitch": 60, 
                            "t0": 98416, 
                            "v": 78, 
                            "dur": 80, 
                            "type": "note", 
                            "channel": 9
                        }
                    ]
                ], 
                [
                    98532, 
                    [
                        {
                            "pitch": 60, 
                            "t0": 98532, 
                            "v": 72, 
                            "dur": 237, 
                            "type": "note", 
                            "channel": 9
                        }
                    ]
                ], 
                [
                    98800, 
                    [
                        {
                            "pitch": 60, 
                            "t0": 98800, 
                            "v": 72, 
                            "dur": 61, 
                            "type": "note", 
                            "channel": 9
                        }
                    ]
                ], 
                [
                    98916, 
                    [
                        {
                            "pitch": 64, 
                            "t0": 98916, 
                            "v": 78, 
                            "dur": 69, 
                            "type": "note", 
                            "channel": 9
                        }
                    ]
                ], 
                [
                    99031, 
                    [
                        {
                            "pitch": 64, 
                            "t0": 99031, 
                            "v": 81, 
                            "dur": 172, 
                            "type": "note", 
                            "channel": 9
                        }
                    ]
                ], 
                [
                    99264, 
                    [
                        {
                            "pitch": 60, 
                            "t0": 99264, 
                            "v": 84, 
                            "dur": 291, 
                            "type": "note", 
                            "channel": 9
                        }
                    ]
                ], 
                [
                    99604, 
                    [
                        {
                            "pitch": 60, 
                            "t0": 99604, 
                            "v": 81, 
                            "dur": 93, 
                            "type": "note", 
                            "channel": 9
                        }
                    ]
                ], 
                [
                    99730, 
                    [
                        {
                            "pitch": 60, 
                            "t0": 99730, 
                            "v": 75, 
                            "dur": 125, 
                            "type": "note", 
                            "channel": 9
                        }
                    ]
                ], 
                [
                    100101, 
                    [
                        {
                            "pitch": 64, 
                            "t0": 100101, 
                            "v": 78, 
                            "dur": 39, 
                            "type": "note", 
                            "channel": 9
                        }
                    ]
                ], 
                [
                    100166, 
                    [
                        {
                            "pitch": 64, 
                            "t0": 100166, 
                            "v": 61, 
                            "dur": 53, 
                            "type": "note", 
                            "channel": 9
                        }
                    ]
                ], 
                [
                    100232, 
                    [
                        {
                            "pitch": 64, 
                            "t0": 100232, 
                            "v": 36, 
                            "dur": 37, 
                            "type": "note", 
                            "channel": 9
                        }
                    ]
                ], 
                [
                    100329, 
                    [
                        {
                            "pitch": 60, 
                            "t0": 100329, 
                            "v": 81, 
                            "dur": 223, 
                            "type": "note", 
                            "channel": 9
                        }
                    ]
                ], 
                [
                    100682, 
                    [
                        {
                            "pitch": 64, 
                            "t0": 100682, 
                            "v": 84, 
                            "dur": 175, 
                            "type": "note", 
                            "channel": 9
                        }
                    ]
                ], 
                [
                    100930, 
                    [
                        {
                            "pitch": 64, 
                            "t0": 100930, 
                            "v": 81, 
                            "dur": 195, 
                            "type": "note", 
                            "channel": 9
                        }
                    ]
                ], 
                [
                    101180, 
                    [
                        {
                            "pitch": 64, 
                            "t0": 101180, 
                            "v": 75, 
                            "dur": 94, 
                            "type": "note", 
                            "channel": 9
                        }
                    ]
                ], 
                [
                    101301, 
                    [
                        {
                            "pitch": 60, 
                            "t0": 101301, 
                            "v": 81, 
                            "dur": 180, 
                            "type": "note", 
                            "channel": 9
                        }
                    ]
                ], 
                [
                    101531, 
                    [
                        {
                            "pitch": 60, 
                            "t0": 101531, 
                            "v": 86, 
                            "dur": 318, 
                            "type": "note", 
                            "channel": 9
                        }
                    ]
                ], 
                [
                    102025, 
                    [
                        {
                            "pitch": 64, 
                            "t0": 102025, 
                            "v": 78, 
                            "dur": 34, 
                            "type": "note", 
                            "channel": 9
                        }
                    ]
                ], 
                [
                    102088, 
                    [
                        {
                            "pitch": 64, 
                            "t0": 102088, 
                            "v": 50, 
                            "dur": 105, 
                            "type": "note", 
                            "channel": 9
                        }
                    ]
                ], 
                [
                    102260, 
                    [
                        {
                            "pitch": 60, 
                            "t0": 102260, 
                            "v": 81, 
                            "dur": 83, 
                            "type": "note", 
                            "channel": 9
                        }
                    ]
                ], 
                [
                    102377, 
                    [
                        {
                            "pitch": 60, 
                            "t0": 102377, 
                            "v": 75, 
                            "dur": 328, 
                            "type": "note", 
                            "channel": 9
                        }
                    ]
                ], 
                [
                    102741, 
                    [
                        {
                            "pitch": 64, 
                            "t0": 102741, 
                            "v": 72, 
                            "dur": 75, 
                            "type": "note", 
                            "channel": 9
                        }
                    ]
                ], 
                [
                    102854, 
                    [
                        {
                            "pitch": 64, 
                            "t0": 102854, 
                            "v": 72, 
                            "dur": 219, 
                            "type": "note", 
                            "channel": 9
                        }
                    ]
                ], 
                [
                    103094, 
                    [
                        {
                            "pitch": 60, 
                            "t0": 103094, 
                            "v": 81, 
                            "dur": 302, 
                            "type": "note", 
                            "channel": 9
                        }
                    ]
                ], 
                [
                    103452, 
                    [
                        {
                            "pitch": 60, 
                            "t0": 103452, 
                            "v": 75, 
                            "dur": 74, 
                            "type": "note", 
                            "channel": 9
                        }
                    ]
                ], 
                [
                    103560, 
                    [
                        {
                            "pitch": 60, 
                            "t0": 103560, 
                            "v": 72, 
                            "dur": 163, 
                            "type": "note", 
                            "channel": 9
                        }
                    ]
                ], 
                [
                    103937, 
                    [
                        {
                            "pitch": 64, 
                            "t0": 103937, 
                            "v": 75, 
                            "dur": 39, 
                            "type": "note", 
                            "channel": 9
                        }
                    ]
                ], 
                [
                    104003, 
                    [
                        {
                            "pitch": 64, 
                            "t0": 104003, 
                            "v": 56, 
                            "dur": 109, 
                            "type": "note", 
                            "channel": 9
                        }
                    ]
                ], 
                [
                    104175, 
                    [
                        {
                            "pitch": 60, 
                            "t0": 104175, 
                            "v": 81, 
                            "dur": 79, 
                            "type": "note", 
                            "channel": 9
                        }
                    ]
                ], 
                [
                    104286, 
                    [
                        {
                            "pitch": 60, 
                            "t0": 104286, 
                            "v": 72, 
                            "dur": 319, 
                            "type": "note", 
                            "channel": 9
                        }
                    ]
                ], 
                [
                    104640, 
                    [
                        {
                            "pitch": 64, 
                            "t0": 104640, 
                            "v": 72, 
                            "dur": 60, 
                            "type": "note", 
                            "channel": 9
                        }
                    ]
                ], 
                [
                    104754, 
                    [
                        {
                            "pitch": 64, 
                            "t0": 104754, 
                            "v": 72, 
                            "dur": 210, 
                            "type": "note", 
                            "channel": 9
                        }
                    ]
                ], 
                [
                    105006, 
                    [
                        {
                            "pitch": 60, 
                            "t0": 105006, 
                            "v": 81, 
                            "dur": 202, 
                            "type": "note", 
                            "channel": 9
                        }
                    ]
                ], 
                [
                    105257, 
                    [
                        {
                            "pitch": 60, 
                            "t0": 105257, 
                            "v": 75, 
                            "dur": 186, 
                            "type": "note", 
                            "channel": 9
                        }
                    ]
                ], 
                [
                    105481, 
                    [
                        {
                            "pitch": 60, 
                            "t0": 105481, 
                            "v": 72, 
                            "dur": 163, 
                            "type": "note", 
                            "channel": 9
                        }
                    ]
                ], 
                [
                    105842, 
                    [
                        {
                            "pitch": 64, 
                            "t0": 105842, 
                            "v": 70, 
                            "dur": 37, 
                            "type": "note", 
                            "channel": 9
                        }
                    ]
                ], 
                [
                    105912, 
                    [
                        {
                            "pitch": 64, 
                            "t0": 105912, 
                            "v": 56, 
                            "dur": 83, 
                            "type": "note", 
                            "channel": 9
                        }
                    ]
                ], 
                [
                    106063, 
                    [
                        {
                            "pitch": 60, 
                            "t0": 106063, 
                            "v": 84, 
                            "dur": 247, 
                            "type": "note", 
                            "channel": 9
                        }
                    ]
                ], 
                [
                    106449, 
                    [
                        {
                            "pitch": 64, 
                            "t0": 106449, 
                            "v": 81, 
                            "dur": 115, 
                            "type": "note", 
                            "channel": 9
                        }
                    ]
                ], 
                [
                    106689, 
                    [
                        {
                            "pitch": 64, 
                            "t0": 106689, 
                            "v": 78, 
                            "dur": 125, 
                            "type": "note", 
                            "channel": 9
                        }
                    ]
                ], 
                [
                    106940, 
                    [
                        {
                            "pitch": 60, 
                            "t0": 106940, 
                            "v": 50, 
                            "dur": 75, 
                            "type": "note", 
                            "channel": 9
                        }
                    ]
                ], 
                [
                    107172, 
                    [
                        {
                            "pitch": 60, 
                            "t0": 107172, 
                            "v": 78, 
                            "dur": 102, 
                            "type": "note", 
                            "channel": 9
                        }
                    ]
                ], 
                [
                    107407, 
                    [
                        {
                            "pitch": 60, 
                            "t0": 107407, 
                            "v": 75, 
                            "dur": 180, 
                            "type": "note", 
                            "channel": 9
                        }
                    ]
                ], 
                [
                    107782, 
                    [
                        {
                            "pitch": 64, 
                            "t0": 107782, 
                            "v": 58, 
                            "dur": 37, 
                            "type": "note", 
                            "channel": 9
                        }
                    ]
                ], 
                [
                    107850, 
                    [
                        {
                            "pitch": 64, 
                            "t0": 107850, 
                            "v": 32, 
                            "dur": 38, 
                            "type": "note", 
                            "channel": 9
                        }
                    ]
                ], 
                [
                    108009, 
                    [
                        {
                            "pitch": 60, 
                            "t0": 108009, 
                            "v": 78, 
                            "dur": 51, 
                            "type": "note", 
                            "channel": 9
                        }
                    ]
                ], 
                [
                    108132, 
                    [
                        {
                            "pitch": 60, 
                            "t0": 108132, 
                            "v": 67, 
                            "dur": 60, 
                            "type": "note", 
                            "channel": 9
                        }
                    ]
                ], 
                [
                    108397, 
                    [
                        {
                            "pitch": 64, 
                            "t0": 108397, 
                            "v": 70, 
                            "dur": 101, 
                            "type": "note", 
                            "channel": 9
                        }
                    ]
                ], 
                [
                    108644, 
                    [
                        {
                            "pitch": 64, 
                            "t0": 108644, 
                            "v": 70, 
                            "dur": 123, 
                            "type": "note", 
                            "channel": 9
                        }
                    ]
                ], 
                [
                    108856, 
                    [
                        {
                            "pitch": 64, 
                            "t0": 108856, 
                            "v": 53, 
                            "dur": 85, 
                            "type": "note", 
                            "channel": 9
                        }
                    ]
                ], 
                [
                    108996, 
                    [
                        {
                            "pitch": 60, 
                            "t0": 108996, 
                            "v": 78, 
                            "dur": 118, 
                            "type": "note", 
                            "channel": 9
                        }
                    ]
                ], 
                [
                    109221, 
                    [
                        {
                            "pitch": 60, 
                            "t0": 109221, 
                            "v": 81, 
                            "dur": 63, 
                            "type": "note", 
                            "channel": 9
                        }
                    ]
                ], 
                [
                    109327, 
                    [
                        {
                            "pitch": 60, 
                            "t0": 109327, 
                            "v": 64, 
                            "dur": 62, 
                            "type": "note", 
                            "channel": 9
                        }
                    ]
                ], 
                [
                    109687, 
                    [
                        {
                            "pitch": 64, 
                            "t0": 109687, 
                            "v": 50, 
                            "dur": 24, 
                            "type": "note", 
                            "channel": 9
                        }
                    ]
                ], 
                [
                    109749, 
                    [
                        {
                            "pitch": 64, 
                            "t0": 109749, 
                            "v": 37, 
                            "dur": 37, 
                            "type": "note", 
                            "channel": 9
                        }
                    ]
                ], 
                [
                    109921, 
                    [
                        {
                            "pitch": 60, 
                            "t0": 109921, 
                            "v": 78, 
                            "dur": 99, 
                            "type": "note", 
                            "channel": 9
                        }
                    ]
                ], 
                [
                    110277, 
                    [
                        {
                            "pitch": 64, 
                            "t0": 110277, 
                            "v": 70, 
                            "dur": 60, 
                            "type": "note", 
                            "channel": 9
                        }
                    ]
                ], 
                [
                    110513, 
                    [
                        {
                            "pitch": 60, 
                            "t0": 110513, 
                            "v": 64, 
                            "dur": 86, 
                            "type": "note", 
                            "channel": 9
                        }
                    ]
                ], 
                [
                    110757, 
                    [
                        {
                            "pitch": 60, 
                            "t0": 110757, 
                            "v": 72, 
                            "dur": 78, 
                            "type": "note", 
                            "channel": 9
                        }
                    ]
                ], 
                [
                    110990, 
                    [
                        {
                            "pitch": 60, 
                            "t0": 110990, 
                            "v": 67, 
                            "dur": 49, 
                            "type": "note", 
                            "channel": 9
                        }
                    ]
                ], 
                [
                    111100, 
                    [
                        {
                            "pitch": 60, 
                            "t0": 111100, 
                            "v": 67, 
                            "dur": 41, 
                            "type": "note", 
                            "channel": 9
                        }
                    ]
                ], 
                [
                    111616, 
                    [
                        {
                            "pitch": 64, 
                            "t0": 111616, 
                            "v": 72, 
                            "dur": 27, 
                            "type": "note", 
                            "channel": 9
                        }
                    ]
                ], 
                [
                    111682, 
                    [
                        {
                            "pitch": 64, 
                            "t0": 111682, 
                            "v": 42, 
                            "dur": 73, 
                            "type": "note", 
                            "channel": 9
                        }
                    ]
                ], 
                [
                    111860, 
                    [
                        {
                            "pitch": 60, 
                            "t0": 111860, 
                            "v": 81, 
                            "dur": 50, 
                            "type": "note", 
                            "channel": 9
                        }
                    ]
                ], 
                [
                    111972, 
                    [
                        {
                            "pitch": 60, 
                            "t0": 111972, 
                            "v": 61, 
                            "dur": 97, 
                            "type": "note", 
                            "channel": 9
                        }
                    ]
                ], 
                [
                    112341, 
                    [
                        {
                            "pitch": 64, 
                            "t0": 112341, 
                            "v": 58, 
                            "dur": 65, 
                            "type": "note", 
                            "channel": 9
                        }
                    ]
                ], 
                [
                    112464, 
                    [
                        {
                            "pitch": 64, 
                            "t0": 112464, 
                            "v": 70, 
                            "dur": 135, 
                            "type": "note", 
                            "channel": 9
                        }
                    ]
                ], 
                [
                    112696, 
                    [
                        {
                            "pitch": 60, 
                            "t0": 112696, 
                            "v": 70, 
                            "dur": 175, 
                            "type": "note", 
                            "channel": 9
                        }
                    ]
                ], 
                [
                    112924, 
                    [
                        {
                            "pitch": 60, 
                            "t0": 112924, 
                            "v": 56, 
                            "dur": 58, 
                            "type": "note", 
                            "channel": 9
                        }
                    ]
                ], 
                [
                    113160, 
                    [
                        {
                            "pitch": 60, 
                            "t0": 113160, 
                            "v": 50, 
                            "dur": 84, 
                            "type": "note", 
                            "channel": 9
                        }
                    ]
                ], 
                [
                    113551, 
                    [
                        {
                            "pitch": 64, 
                            "t0": 113551, 
                            "v": 67, 
                            "dur": 31, 
                            "type": "note", 
                            "channel": 9
                        }
                    ]
                ], 
                [
                    113616, 
                    [
                        {
                            "pitch": 64, 
                            "t0": 113616, 
                            "v": 61, 
                            "dur": 77, 
                            "type": "note", 
                            "channel": 9
                        }
                    ]
                ], 
                [
                    113774, 
                    [
                        {
                            "pitch": 60, 
                            "t0": 113774, 
                            "v": 75, 
                            "dur": 53, 
                            "type": "note", 
                            "channel": 9
                        }
                    ]
                ], 
                [
                    113887, 
                    [
                        {
                            "pitch": 60, 
                            "t0": 113887, 
                            "v": 67, 
                            "dur": 113, 
                            "type": "note", 
                            "channel": 9
                        }
                    ]
                ], 
                [
                    114240, 
                    [
                        {
                            "pitch": 64, 
                            "t0": 114240, 
                            "v": 67, 
                            "dur": 100, 
                            "type": "note", 
                            "channel": 9
                        }
                    ]
                ], 
                [
                    114611, 
                    [
                        {
                            "pitch": 60, 
                            "t0": 114611, 
                            "v": 78, 
                            "dur": 149, 
                            "type": "note", 
                            "channel": 9
                        }
                    ]
                ], 
                [
                    114850, 
                    [
                        {
                            "pitch": 60, 
                            "t0": 114850, 
                            "v": 67, 
                            "dur": 155, 
                            "type": "note", 
                            "channel": 9
                        }
                    ]
                ], 
                [
                    115076, 
                    [
                        {
                            "pitch": 60, 
                            "t0": 115076, 
                            "v": 56, 
                            "dur": 127, 
                            "type": "note", 
                            "channel": 9
                        }
                    ]
                ], 
                [
                    115466, 
                    [
                        {
                            "pitch": 64, 
                            "t0": 115466, 
                            "v": 58, 
                            "dur": 32, 
                            "type": "note", 
                            "channel": 9
                        }
                    ]
                ], 
                [
                    115531, 
                    [
                        {
                            "pitch": 64, 
                            "t0": 115531, 
                            "v": 37, 
                            "dur": 59, 
                            "type": "note", 
                            "channel": 9
                        }
                    ]
                ], 
                [
                    115697, 
                    [
                        {
                            "pitch": 60, 
                            "t0": 115697, 
                            "v": 72, 
                            "dur": 157, 
                            "type": "note", 
                            "channel": 9
                        }
                    ]
                ], 
                [
                    116041, 
                    [
                        {
                            "pitch": 64, 
                            "t0": 116041, 
                            "v": 75, 
                            "dur": 116, 
                            "type": "note", 
                            "channel": 9
                        }
                    ]
                ], 
                [
                    116278, 
                    [
                        {
                            "pitch": 60, 
                            "t0": 116278, 
                            "v": 75, 
                            "dur": 111, 
                            "type": "note", 
                            "channel": 9
                        }
                    ]
                ], 
                [
                    116520, 
                    [
                        {
                            "pitch": 64, 
                            "t0": 116520, 
                            "v": 58, 
                            "dur": 50, 
                            "type": "note", 
                            "channel": 9
                        }
                    ]
                ], 
                [
                    116638, 
                    [
                        {
                            "pitch": 60, 
                            "t0": 116638, 
                            "v": 78, 
                            "dur": 72, 
                            "type": "note", 
                            "channel": 9
                        }
                    ]
                ], 
                [
                    116890, 
                    [
                        {
                            "pitch": 64, 
                            "t0": 116890, 
                            "v": 72, 
                            "dur": 92, 
                            "type": "note", 
                            "channel": 9
                        }
                    ]
                ], 
                [
                    117145, 
                    [
                        {
                            "pitch": 64, 
                            "t0": 117145, 
                            "v": 75, 
                            "dur": 117, 
                            "type": "note", 
                            "channel": 9
                        }
                    ]
                ], 
                [
                    117374, 
                    [
                        {
                            "pitch": 64, 
                            "t0": 117374, 
                            "v": 53, 
                            "dur": 24, 
                            "type": "note", 
                            "channel": 9
                        }
                    ]
                ], 
                [
                    117432, 
                    [
                        {
                            "pitch": 64, 
                            "t0": 117432, 
                            "v": 47, 
                            "dur": 42, 
                            "type": "note", 
                            "channel": 9
                        }
                    ]
                ], 
                [
                    117497, 
                    [
                        {
                            "pitch": 64, 
                            "t0": 117497, 
                            "v": 32, 
                            "dur": 35, 
                            "type": "note", 
                            "channel": 9
                        }
                    ]
                ], 
                [
                    117627, 
                    [
                        {
                            "pitch": 60, 
                            "t0": 117627, 
                            "v": 81, 
                            "dur": 114, 
                            "type": "note", 
                            "channel": 9
                        }
                    ]
                ], 
                [
                    117960, 
                    [
                        {
                            "pitch": 64, 
                            "t0": 117960, 
                            "v": 72, 
                            "dur": 63, 
                            "type": "note", 
                            "channel": 9
                        }
                    ]
                ], 
                [
                    118205, 
                    [
                        {
                            "pitch": 64, 
                            "t0": 118205, 
                            "v": 72, 
                            "dur": 104, 
                            "type": "note", 
                            "channel": 9
                        }
                    ]
                ], 
                [
                    118449, 
                    [
                        {
                            "pitch": 64, 
                            "t0": 118449, 
                            "v": 44, 
                            "dur": 39, 
                            "type": "note", 
                            "channel": 9
                        }
                    ]
                ], 
                [
                    118571, 
                    [
                        {
                            "pitch": 60, 
                            "t0": 118571, 
                            "v": 78, 
                            "dur": 46, 
                            "type": "note", 
                            "channel": 9
                        }
                    ]
                ], 
                [
                    118684, 
                    [
                        {
                            "pitch": 60, 
                            "t0": 118684, 
                            "v": 75, 
                            "dur": 64, 
                            "type": "note", 
                            "channel": 9
                        }
                    ]
                ], 
                [
                    118804, 
                    [
                        {
                            "pitch": 60, 
                            "t0": 118804, 
                            "v": 81, 
                            "dur": 66, 
                            "type": "note", 
                            "channel": 9
                        }
                    ]
                ], 
                [
                    118915, 
                    [
                        {
                            "pitch": 60, 
                            "t0": 118915, 
                            "v": 75, 
                            "dur": 69, 
                            "type": "note", 
                            "channel": 9
                        }
                    ]
                ], 
                [
                    119284, 
                    [
                        {
                            "pitch": 64, 
                            "t0": 119284, 
                            "v": 72, 
                            "dur": 22, 
                            "type": "note", 
                            "channel": 9
                        }
                    ]
                ], 
                [
                    119344, 
                    [
                        {
                            "pitch": 64, 
                            "t0": 119344, 
                            "v": 40, 
                            "dur": 30, 
                            "type": "note", 
                            "channel": 9
                        }
                    ]
                ], 
                [
                    119345, 
                    [
                        {
                            "pitch": 62, 
                            "t0": 119345, 
                            "v": 35, 
                            "dur": 27, 
                            "type": "note", 
                            "channel": 9
                        }
                    ]
                ], 
                [
                    119528, 
                    [
                        {
                            "pitch": 60, 
                            "t0": 119528, 
                            "v": 75, 
                            "dur": 108, 
                            "type": "note", 
                            "channel": 9
                        }
                    ]
                ], 
                [
                    119888, 
                    [
                        {
                            "pitch": 64, 
                            "t0": 119888, 
                            "v": 75, 
                            "dur": 101, 
                            "type": "note", 
                            "channel": 9
                        }
                    ]
                ], 
                [
                    120129, 
                    [
                        {
                            "pitch": 64, 
                            "t0": 120129, 
                            "v": 72, 
                            "dur": 126, 
                            "type": "note", 
                            "channel": 9
                        }
                    ]
                ], 
                [
                    120367, 
                    [
                        {
                            "pitch": 64, 
                            "t0": 120367, 
                            "v": 47, 
                            "dur": 44, 
                            "type": "note", 
                            "channel": 9
                        }
                    ]
                ], 
                [
                    120493, 
                    [
                        {
                            "pitch": 60, 
                            "t0": 120493, 
                            "v": 72, 
                            "dur": 134, 
                            "type": "note", 
                            "channel": 9
                        }
                    ]
                ], 
                [
                    120711, 
                    [
                        {
                            "pitch": 60, 
                            "t0": 120711, 
                            "v": 78, 
                            "dur": 62, 
                            "type": "note", 
                            "channel": 9
                        }
                    ]
                ], 
                [
                    121215, 
                    [
                        {
                            "pitch": 64, 
                            "t0": 121215, 
                            "v": 70, 
                            "dur": 29, 
                            "type": "note", 
                            "channel": 9
                        }
                    ]
                ], 
                [
                    121277, 
                    [
                        {
                            "pitch": 64, 
                            "t0": 121277, 
                            "v": 56, 
                            "dur": 73, 
                            "type": "note", 
                            "channel": 9
                        }
                    ]
                ], 
                [
                    121450, 
                    [
                        {
                            "pitch": 60, 
                            "t0": 121450, 
                            "v": 81, 
                            "dur": 149, 
                            "type": "note", 
                            "channel": 9
                        }
                    ]
                ], 
                [
                    121809, 
                    [
                        {
                            "pitch": 64, 
                            "t0": 121809, 
                            "v": 78, 
                            "dur": 102, 
                            "type": "note", 
                            "channel": 9
                        }
                    ]
                ], 
                [
                    122038, 
                    [
                        {
                            "pitch": 64, 
                            "t0": 122038, 
                            "v": 78, 
                            "dur": 161, 
                            "type": "note", 
                            "channel": 9
                        }
                    ]
                ], 
                [
                    122272, 
                    [
                        {
                            "pitch": 64, 
                            "t0": 122272, 
                            "v": 72, 
                            "dur": 49, 
                            "type": "note", 
                            "channel": 9
                        }
                    ]
                ], 
                [
                    122409, 
                    [
                        {
                            "pitch": 60, 
                            "t0": 122409, 
                            "v": 78, 
                            "dur": 135, 
                            "type": "note", 
                            "channel": 9
                        }
                    ]
                ], 
                [
                    122411, 
                    [
                        {
                            "pitch": 62, 
                            "t0": 122411, 
                            "v": 67, 
                            "dur": 81, 
                            "type": "note", 
                            "channel": 9
                        }
                    ]
                ], 
                [
                    122653, 
                    [
                        {
                            "pitch": 60, 
                            "t0": 122653, 
                            "v": 84, 
                            "dur": 159, 
                            "type": "note", 
                            "channel": 9
                        }
                    ]
                ], 
                [
                    123134, 
                    [
                        {
                            "pitch": 62, 
                            "t0": 123134, 
                            "v": 58, 
                            "dur": 35, 
                            "type": "note", 
                            "channel": 9
                        }, 
                        {
                            "pitch": 64, 
                            "t0": 123134, 
                            "v": 58, 
                            "dur": 37, 
                            "type": "note", 
                            "channel": 9
                        }
                    ]
                ], 
                [
                    123202, 
                    [
                        {
                            "pitch": 64, 
                            "t0": 123202, 
                            "v": 32, 
                            "dur": 98, 
                            "type": "note", 
                            "channel": 9
                        }
                    ]
                ], 
                [
                    123378, 
                    [
                        {
                            "pitch": 60, 
                            "t0": 123378, 
                            "v": 78, 
                            "dur": 285, 
                            "type": "note", 
                            "channel": 9
                        }
                    ]
                ], 
                [
                    123732, 
                    [
                        {
                            "pitch": 64, 
                            "t0": 123732, 
                            "v": 75, 
                            "dur": 150, 
                            "type": "note", 
                            "channel": 9
                        }
                    ]
                ], 
                [
                    123963, 
                    [
                        {
                            "pitch": 64, 
                            "t0": 123963, 
                            "v": 72, 
                            "dur": 193, 
                            "type": "note", 
                            "channel": 9
                        }
                    ]
                ], 
                [
                    124206, 
                    [
                        {
                            "pitch": 64, 
                            "t0": 124206, 
                            "v": 58, 
                            "dur": 44, 
                            "type": "note", 
                            "channel": 9
                        }
                    ]
                ], 
                [
                    124323, 
                    [
                        {
                            "pitch": 60, 
                            "t0": 124323, 
                            "v": 84, 
                            "dur": 57, 
                            "type": "note", 
                            "channel": 9
                        }
                    ]
                ], 
                [
                    124437, 
                    [
                        {
                            "pitch": 60, 
                            "t0": 124437, 
                            "v": 81, 
                            "dur": 47, 
                            "type": "note", 
                            "channel": 9
                        }
                    ]
                ], 
                [
                    124554, 
                    [
                        {
                            "pitch": 60, 
                            "t0": 124554, 
                            "v": 81, 
                            "dur": 70, 
                            "type": "note", 
                            "channel": 9
                        }
                    ]
                ], 
                [
                    124673, 
                    [
                        {
                            "pitch": 60, 
                            "t0": 124673, 
                            "v": 75, 
                            "dur": 128, 
                            "type": "note", 
                            "channel": 9
                        }
                    ]
                ], 
                [
                    125052, 
                    [
                        {
                            "pitch": 64, 
                            "t0": 125052, 
                            "v": 72, 
                            "dur": 38, 
                            "type": "note", 
                            "channel": 9
                        }
                    ]
                ], 
                [
                    125121, 
                    [
                        {
                            "pitch": 64, 
                            "t0": 125121, 
                            "v": 39, 
                            "dur": 71, 
                            "type": "note", 
                            "channel": 9
                        }
                    ]
                ], 
                [
                    125122, 
                    [
                        {
                            "pitch": 62, 
                            "t0": 125122, 
                            "v": 50, 
                            "dur": 53, 
                            "type": "note", 
                            "channel": 9
                        }
                    ]
                ], 
                [
                    125303, 
                    [
                        {
                            "pitch": 60, 
                            "t0": 125303, 
                            "v": 81, 
                            "dur": 277, 
                            "type": "note", 
                            "channel": 9
                        }
                    ]
                ], 
                [
                    125649, 
                    [
                        {
                            "pitch": 64, 
                            "t0": 125649, 
                            "v": 81, 
                            "dur": 167, 
                            "type": "note", 
                            "channel": 9
                        }
                    ]
                ], 
                [
                    125889, 
                    [
                        {
                            "pitch": 64, 
                            "t0": 125889, 
                            "v": 72, 
                            "dur": 160, 
                            "type": "note", 
                            "channel": 9
                        }
                    ]
                ], 
                [
                    126111, 
                    [
                        {
                            "pitch": 64, 
                            "t0": 126111, 
                            "v": 75, 
                            "dur": 72, 
                            "type": "note", 
                            "channel": 9
                        }
                    ]
                ], 
                [
                    126255, 
                    [
                        {
                            "pitch": 60, 
                            "t0": 126255, 
                            "v": 81, 
                            "dur": 45, 
                            "type": "note", 
                            "channel": 9
                        }
                    ]
                ], 
                [
                    126371, 
                    [
                        {
                            "pitch": 60, 
                            "t0": 126371, 
                            "v": 72, 
                            "dur": 45, 
                            "type": "note", 
                            "channel": 9
                        }
                    ]
                ], 
                [
                    126602, 
                    [
                        {
                            "pitch": 60, 
                            "t0": 126602, 
                            "v": 75, 
                            "dur": 46, 
                            "type": "note", 
                            "channel": 9
                        }
                    ]
                ], 
                [
                    126982, 
                    [
                        {
                            "pitch": 64, 
                            "t0": 126982, 
                            "v": 70, 
                            "dur": 33, 
                            "type": "note", 
                            "channel": 9
                        }
                    ]
                ], 
                [
                    127052, 
                    [
                        {
                            "pitch": 64, 
                            "t0": 127052, 
                            "v": 47, 
                            "dur": 86, 
                            "type": "note", 
                            "channel": 9
                        }
                    ]
                ], 
                [
                    127226, 
                    [
                        {
                            "pitch": 60, 
                            "t0": 127226, 
                            "v": 81, 
                            "dur": 152, 
                            "type": "note", 
                            "channel": 9
                        }
                    ]
                ], 
                [
                    127583, 
                    [
                        {
                            "pitch": 64, 
                            "t0": 127583, 
                            "v": 72, 
                            "dur": 110, 
                            "type": "note", 
                            "channel": 9
                        }
                    ]
                ], 
                [
                    127822, 
                    [
                        {
                            "pitch": 64, 
                            "t0": 127822, 
                            "v": 78, 
                            "dur": 130, 
                            "type": "note", 
                            "channel": 9
                        }
                    ]
                ], 
                [
                    128058, 
                    [
                        {
                            "pitch": 64, 
                            "t0": 128058, 
                            "v": 75, 
                            "dur": 47, 
                            "type": "note", 
                            "channel": 9
                        }
                    ]
                ], 
                [
                    128176, 
                    [
                        {
                            "pitch": 60, 
                            "t0": 128176, 
                            "v": 84, 
                            "dur": 69, 
                            "type": "note", 
                            "channel": 9
                        }
                    ]
                ], 
                [
                    128292, 
                    [
                        {
                            "pitch": 60, 
                            "t0": 128292, 
                            "v": 72, 
                            "dur": 95, 
                            "type": "note", 
                            "channel": 9
                        }
                    ]
                ], 
                [
                    128520, 
                    [
                        {
                            "pitch": 60, 
                            "t0": 128520, 
                            "v": 81, 
                            "dur": 136, 
                            "type": "note", 
                            "channel": 9
                        }
                    ]
                ], 
                [
                    128895, 
                    [
                        {
                            "pitch": 64, 
                            "t0": 128895, 
                            "v": 72, 
                            "dur": 33, 
                            "type": "note", 
                            "channel": 9
                        }
                    ]
                ], 
                [
                    128960, 
                    [
                        {
                            "pitch": 64, 
                            "t0": 128960, 
                            "v": 56, 
                            "dur": 91, 
                            "type": "note", 
                            "channel": 9
                        }
                    ]
                ], 
                [
                    129133, 
                    [
                        {
                            "pitch": 60, 
                            "t0": 129133, 
                            "v": 78, 
                            "dur": 198, 
                            "type": "note", 
                            "channel": 9
                        }
                    ]
                ], 
                [
                    129462, 
                    [
                        {
                            "pitch": 64, 
                            "t0": 129462, 
                            "v": 70, 
                            "dur": 135, 
                            "type": "note", 
                            "channel": 9
                        }
                    ]
                ], 
                [
                    129707, 
                    [
                        {
                            "pitch": 64, 
                            "t0": 129707, 
                            "v": 75, 
                            "dur": 164, 
                            "type": "note", 
                            "channel": 9
                        }
                    ]
                ], 
                [
                    129958, 
                    [
                        {
                            "pitch": 64, 
                            "t0": 129958, 
                            "v": 47, 
                            "dur": 49, 
                            "type": "note", 
                            "channel": 9
                        }
                    ]
                ], 
                [
                    130078, 
                    [
                        {
                            "pitch": 60, 
                            "t0": 130078, 
                            "v": 78, 
                            "dur": 143, 
                            "type": "note", 
                            "channel": 9
                        }
                    ]
                ], 
                [
                    130328, 
                    [
                        {
                            "pitch": 60, 
                            "t0": 130328, 
                            "v": 81, 
                            "dur": 207, 
                            "type": "note", 
                            "channel": 9
                        }
                    ]
                ], 
                [
                    130823, 
                    [
                        {
                            "pitch": 64, 
                            "t0": 130823, 
                            "v": 44, 
                            "dur": 46, 
                            "type": "note", 
                            "channel": 9
                        }
                    ]
                ], 
                [
                    131064, 
                    [
                        {
                            "pitch": 64, 
                            "t0": 131064, 
                            "v": 36, 
                            "dur": 92, 
                            "type": "note", 
                            "channel": 9
                        }
                    ]
                ], 
                [
                    131287, 
                    [
                        {
                            "pitch": 64, 
                            "t0": 131287, 
                            "v": 53, 
                            "dur": 124, 
                            "type": "note", 
                            "channel": 9
                        }
                    ]
                ], 
                [
                    131783, 
                    [
                        {
                            "pitch": 64, 
                            "t0": 131783, 
                            "v": 50, 
                            "dur": 106, 
                            "type": "note", 
                            "channel": 9
                        }
                    ]
                ], 
                [
                    132137, 
                    [
                        {
                            "pitch": 64, 
                            "t0": 132137, 
                            "v": 72, 
                            "dur": 67, 
                            "type": "note", 
                            "channel": 9
                        }
                    ]
                ], 
                [
                    132377, 
                    [
                        {
                            "pitch": 64, 
                            "t0": 132377, 
                            "v": 53, 
                            "dur": 139, 
                            "type": "note", 
                            "channel": 9
                        }
                    ]
                ], 
                [
                    132737, 
                    [
                        {
                            "pitch": 64, 
                            "t0": 132737, 
                            "v": 50, 
                            "dur": 78, 
                            "type": "note", 
                            "channel": 9
                        }
                    ]
                ], 
                [
                    133080, 
                    [
                        {
                            "pitch": 64, 
                            "t0": 133080, 
                            "v": 34, 
                            "dur": 43, 
                            "type": "note", 
                            "channel": 9
                        }
                    ]
                ], 
                [
                    133434, 
                    [
                        {
                            "pitch": 64, 
                            "t0": 133434, 
                            "v": 30, 
                            "dur": 56, 
                            "type": "note", 
                            "channel": 9
                        }
                    ]
                ], 
                [
                    133793, 
                    [
                        {
                            "pitch": 64, 
                            "t0": 133793, 
                            "v": 36, 
                            "dur": 82, 
                            "type": "note", 
                            "channel": 9
                        }
                    ]
                ], 
                [
                    134168, 
                    [
                        {
                            "pitch": 64, 
                            "t0": 134168, 
                            "v": 44, 
                            "dur": 61, 
                            "type": "note", 
                            "channel": 9
                        }
                    ]
                ], 
                [
                    136812, 
                    [
                        {
                            "pitch": 43, 
                            "t0": 136812, 
                            "v": 44, 
                            "dur": 44, 
                            "type": "note", 
                            "channel": 9
                        }, 
                        {
                            "pitch": 41, 
                            "t0": 136812, 
                            "v": 39, 
                            "dur": 47, 
                            "type": "note", 
                            "channel": 9
                        }
                    ]
                ]
            ], 
            "instruments": [
                32
            ], 
            "tMax": 136812, 
            "channels": [
                9
            ], 
            "instrument": 32, 
            "numNotes": 691, 
            "type": "TrackObj"
        }, 
        {
            "trackName": "Flute", 
            "seq": [
                [
                    0, 
                    [
                        {
                            "instrument": 75, 
                            "type": "programChange", 
                            "t0": 0, 
                            "channel": 10
                        }, 
                        {
                            "instrument": 75, 
                            "type": "programChange", 
                            "t0": 0, 
                            "channel": 10
                        }
                    ]
                ], 
                [
                    27460, 
                    [
                        {
                            "pitch": 81, 
                            "t0": 27460, 
                            "v": 120, 
                            "dur": 1375, 
                            "type": "note", 
                            "channel": 10
                        }
                    ]
                ], 
                [
                    30940, 
                    [
                        {
                            "pitch": 74, 
                            "t0": 30940, 
                            "v": 16, 
                            "dur": 21, 
                            "type": "note", 
                            "channel": 10
                        }
                    ]
                ], 
                [
                    31048, 
                    [
                        {
                            "pitch": 76, 
                            "t0": 31048, 
                            "v": 100, 
                            "dur": 38, 
                            "type": "note", 
                            "channel": 10
                        }
                    ]
                ], 
                [
                    31086, 
                    [
                        {
                            "pitch": 74, 
                            "t0": 31086, 
                            "v": 68, 
                            "dur": 46, 
                            "type": "note", 
                            "channel": 10
                        }
                    ]
                ], 
                [
                    31125, 
                    [
                        {
                            "pitch": 76, 
                            "t0": 31125, 
                            "v": 108, 
                            "dur": 1605, 
                            "type": "note", 
                            "channel": 10
                        }
                    ]
                ], 
                [
                    35444, 
                    [
                        {
                            "pitch": 69, 
                            "t0": 35444, 
                            "v": 120, 
                            "dur": 1088, 
                            "type": "note", 
                            "channel": 10
                        }
                    ]
                ], 
                [
                    38287, 
                    [
                        {
                            "pitch": 76, 
                            "t0": 38287, 
                            "v": 108, 
                            "dur": 35, 
                            "type": "note", 
                            "channel": 10
                        }
                    ]
                ], 
                [
                    38315, 
                    [
                        {
                            "pitch": 74, 
                            "t0": 38315, 
                            "v": 96, 
                            "dur": 48, 
                            "type": "note", 
                            "channel": 10
                        }
                    ]
                ], 
                [
                    38363, 
                    [
                        {
                            "pitch": 76, 
                            "t0": 38363, 
                            "v": 112, 
                            "dur": 1984, 
                            "type": "note", 
                            "channel": 10
                        }
                    ]
                ], 
                [
                    43032, 
                    [
                        {
                            "pitch": 69, 
                            "t0": 43032, 
                            "v": 108, 
                            "dur": 43, 
                            "type": "note", 
                            "channel": 10
                        }
                    ]
                ], 
                [
                    43072, 
                    [
                        {
                            "pitch": 67, 
                            "t0": 43072, 
                            "v": 104, 
                            "dur": 54, 
                            "type": "note", 
                            "channel": 10
                        }
                    ]
                ], 
                [
                    43113, 
                    [
                        {
                            "pitch": 69, 
                            "t0": 43113, 
                            "v": 112, 
                            "dur": 462, 
                            "type": "note", 
                            "channel": 10
                        }
                    ]
                ], 
                [
                    43116, 
                    [
                        {
                            "pitch": 71, 
                            "t0": 43116, 
                            "v": 108, 
                            "dur": 23, 
                            "type": "note", 
                            "channel": 10
                        }
                    ]
                ], 
                [
                    43561, 
                    [
                        {
                            "pitch": 76, 
                            "t0": 43561, 
                            "v": 120, 
                            "dur": 358, 
                            "type": "note", 
                            "channel": 10
                        }
                    ]
                ], 
                [
                    43893, 
                    [
                        {
                            "pitch": 74, 
                            "t0": 43893, 
                            "v": 100, 
                            "dur": 902, 
                            "type": "note", 
                            "channel": 10
                        }
                    ]
                ], 
                [
                    44999, 
                    [
                        {
                            "pitch": 69, 
                            "t0": 44999, 
                            "v": 88, 
                            "dur": 25, 
                            "type": "note", 
                            "channel": 10
                        }
                    ]
                ], 
                [
                    45026, 
                    [
                        {
                            "pitch": 67, 
                            "t0": 45026, 
                            "v": 84, 
                            "dur": 41, 
                            "type": "note", 
                            "channel": 10
                        }
                    ]
                ], 
                [
                    45066, 
                    [
                        {
                            "pitch": 69, 
                            "t0": 45066, 
                            "v": 108, 
                            "dur": 360, 
                            "type": "note", 
                            "channel": 10
                        }
                    ]
                ], 
                [
                    45492, 
                    [
                        {
                            "pitch": 74, 
                            "t0": 45492, 
                            "v": 112, 
                            "dur": 330, 
                            "type": "note", 
                            "channel": 10
                        }
                    ]
                ], 
                [
                    45815, 
                    [
                        {
                            "pitch": 76, 
                            "t0": 45815, 
                            "v": 112, 
                            "dur": 656, 
                            "type": "note", 
                            "channel": 10
                        }
                    ]
                ], 
                [
                    46443, 
                    [
                        {
                            "pitch": 74, 
                            "t0": 46443, 
                            "v": 80, 
                            "dur": 1592, 
                            "type": "note", 
                            "channel": 10
                        }
                    ]
                ], 
                [
                    50770, 
                    [
                        {
                            "pitch": 79, 
                            "t0": 50770, 
                            "v": 48, 
                            "dur": 30, 
                            "type": "note", 
                            "channel": 10
                        }
                    ]
                ], 
                [
                    50802, 
                    [
                        {
                            "pitch": 81, 
                            "t0": 50802, 
                            "v": 96, 
                            "dur": 41, 
                            "type": "note", 
                            "channel": 10
                        }
                    ]
                ], 
                [
                    50837, 
                    [
                        {
                            "pitch": 79, 
                            "t0": 50837, 
                            "v": 100, 
                            "dur": 52, 
                            "type": "note", 
                            "channel": 10
                        }
                    ]
                ], 
                [
                    50870, 
                    [
                        {
                            "pitch": 81, 
                            "t0": 50870, 
                            "v": 112, 
                            "dur": 252, 
                            "type": "note", 
                            "channel": 10
                        }
                    ]
                ], 
                [
                    51102, 
                    [
                        {
                            "pitch": 79, 
                            "t0": 51102, 
                            "v": 116, 
                            "dur": 242, 
                            "type": "note", 
                            "channel": 10
                        }
                    ]
                ], 
                [
                    51337, 
                    [
                        {
                            "pitch": 76, 
                            "t0": 51337, 
                            "v": 104, 
                            "dur": 1209, 
                            "type": "note", 
                            "channel": 10
                        }
                    ]
                ], 
                [
                    53205, 
                    [
                        {
                            "pitch": 81, 
                            "t0": 53205, 
                            "v": 72, 
                            "dur": 26, 
                            "type": "note", 
                            "channel": 10
                        }
                    ]
                ], 
                [
                    53225, 
                    [
                        {
                            "pitch": 79, 
                            "t0": 53225, 
                            "v": 56, 
                            "dur": 55, 
                            "type": "note", 
                            "channel": 10
                        }
                    ]
                ], 
                [
                    53269, 
                    [
                        {
                            "pitch": 81, 
                            "t0": 53269, 
                            "v": 104, 
                            "dur": 254, 
                            "type": "note", 
                            "channel": 10
                        }
                    ]
                ], 
                [
                    53501, 
                    [
                        {
                            "pitch": 79, 
                            "t0": 53501, 
                            "v": 120, 
                            "dur": 251, 
                            "type": "note", 
                            "channel": 10
                        }
                    ]
                ], 
                [
                    53747, 
                    [
                        {
                            "pitch": 76, 
                            "t0": 53747, 
                            "v": 108, 
                            "dur": 385, 
                            "type": "note", 
                            "channel": 10
                        }
                    ]
                ], 
                [
                    54111, 
                    [
                        {
                            "pitch": 74, 
                            "t0": 54111, 
                            "v": 88, 
                            "dur": 123, 
                            "type": "note", 
                            "channel": 10
                        }
                    ]
                ], 
                [
                    54224, 
                    [
                        {
                            "pitch": 76, 
                            "t0": 54224, 
                            "v": 116, 
                            "dur": 1468, 
                            "type": "note", 
                            "channel": 10
                        }
                    ]
                ], 
                [
                    58706, 
                    [
                        {
                            "pitch": 81, 
                            "t0": 58706, 
                            "v": 116, 
                            "dur": 215, 
                            "type": "note", 
                            "channel": 10
                        }
                    ]
                ], 
                [
                    58905, 
                    [
                        {
                            "pitch": 79, 
                            "t0": 58905, 
                            "v": 112, 
                            "dur": 132, 
                            "type": "note", 
                            "channel": 10
                        }
                    ]
                ], 
                [
                    59028, 
                    [
                        {
                            "pitch": 76, 
                            "t0": 59028, 
                            "v": 104, 
                            "dur": 270, 
                            "type": "note", 
                            "channel": 10
                        }
                    ]
                ], 
                [
                    59269, 
                    [
                        {
                            "pitch": 74, 
                            "t0": 59269, 
                            "v": 100, 
                            "dur": 237, 
                            "type": "note", 
                            "channel": 10
                        }
                    ]
                ], 
                [
                    59524, 
                    [
                        {
                            "pitch": 74, 
                            "t0": 59524, 
                            "v": 96, 
                            "dur": 674, 
                            "type": "note", 
                            "channel": 10
                        }
                    ]
                ], 
                [
                    60227, 
                    [
                        {
                            "pitch": 74, 
                            "t0": 60227, 
                            "v": 40, 
                            "dur": 102, 
                            "type": "note", 
                            "channel": 10
                        }
                    ]
                ], 
                [
                    60460, 
                    [
                        {
                            "pitch": 74, 
                            "t0": 60460, 
                            "v": 116, 
                            "dur": 362, 
                            "type": "note", 
                            "channel": 10
                        }
                    ]
                ], 
                [
                    60804, 
                    [
                        {
                            "pitch": 76, 
                            "t0": 60804, 
                            "v": 112, 
                            "dur": 395, 
                            "type": "note", 
                            "channel": 10
                        }
                    ]
                ], 
                [
                    61175, 
                    [
                        {
                            "pitch": 74, 
                            "t0": 61175, 
                            "v": 100, 
                            "dur": 249, 
                            "type": "note", 
                            "channel": 10
                        }
                    ]
                ], 
                [
                    61452, 
                    [
                        {
                            "pitch": 69, 
                            "t0": 61452, 
                            "v": 108, 
                            "dur": 948, 
                            "type": "note", 
                            "channel": 10
                        }
                    ]
                ], 
                [
                    65941, 
                    [
                        {
                            "pitch": 69, 
                            "t0": 65941, 
                            "v": 116, 
                            "dur": 1810, 
                            "type": "note", 
                            "channel": 10
                        }
                    ]
                ], 
                [
                    69927, 
                    [
                        {
                            "pitch": 69, 
                            "t0": 69927, 
                            "v": 76, 
                            "dur": 24, 
                            "type": "note", 
                            "channel": 10
                        }
                    ]
                ], 
                [
                    69957, 
                    [
                        {
                            "pitch": 67, 
                            "t0": 69957, 
                            "v": 92, 
                            "dur": 40, 
                            "type": "note", 
                            "channel": 10
                        }
                    ]
                ], 
                [
                    69996, 
                    [
                        {
                            "pitch": 69, 
                            "t0": 69996, 
                            "v": 100, 
                            "dur": 54, 
                            "type": "note", 
                            "channel": 10
                        }
                    ]
                ], 
                [
                    70034, 
                    [
                        {
                            "pitch": 67, 
                            "t0": 70034, 
                            "v": 104, 
                            "dur": 420, 
                            "type": "note", 
                            "channel": 10
                        }
                    ]
                ], 
                [
                    70438, 
                    [
                        {
                            "pitch": 69, 
                            "t0": 70438, 
                            "v": 112, 
                            "dur": 619, 
                            "type": "note", 
                            "channel": 10
                        }
                    ]
                ], 
                [
                    73392, 
                    [
                        {
                            "pitch": 67, 
                            "t0": 73392, 
                            "v": 60, 
                            "dur": 47, 
                            "type": "note", 
                            "channel": 10
                        }
                    ]
                ], 
                [
                    73438, 
                    [
                        {
                            "pitch": 69, 
                            "t0": 73438, 
                            "v": 100, 
                            "dur": 838, 
                            "type": "note", 
                            "channel": 10
                        }
                    ]
                ], 
                [
                    75762, 
                    [
                        {
                            "pitch": 76, 
                            "t0": 75762, 
                            "v": 35, 
                            "dur": 11, 
                            "type": "note", 
                            "channel": 10
                        }
                    ]
                ], 
                [
                    75779, 
                    [
                        {
                            "pitch": 74, 
                            "t0": 75779, 
                            "v": 76, 
                            "dur": 54, 
                            "type": "note", 
                            "channel": 10
                        }
                    ]
                ], 
                [
                    75822, 
                    [
                        {
                            "pitch": 76, 
                            "t0": 75822, 
                            "v": 112, 
                            "dur": 410, 
                            "type": "note", 
                            "channel": 10
                        }
                    ]
                ], 
                [
                    75852, 
                    [
                        {
                            "pitch": 74, 
                            "t0": 75852, 
                            "v": 76, 
                            "dur": 28, 
                            "type": "note", 
                            "channel": 10
                        }
                    ]
                ], 
                [
                    76204, 
                    [
                        {
                            "pitch": 74, 
                            "t0": 76204, 
                            "v": 112, 
                            "dur": 482, 
                            "type": "note", 
                            "channel": 10
                        }
                    ]
                ], 
                [
                    76675, 
                    [
                        {
                            "pitch": 67, 
                            "t0": 76675, 
                            "v": 96, 
                            "dur": 126, 
                            "type": "note", 
                            "channel": 10
                        }
                    ]
                ], 
                [
                    76786, 
                    [
                        {
                            "pitch": 69, 
                            "t0": 76786, 
                            "v": 104, 
                            "dur": 1034, 
                            "type": "note", 
                            "channel": 10
                        }
                    ]
                ], 
                [
                    81258, 
                    [
                        {
                            "pitch": 81, 
                            "t0": 81258, 
                            "v": 116, 
                            "dur": 368, 
                            "type": "note", 
                            "channel": 10
                        }
                    ]
                ], 
                [
                    81597, 
                    [
                        {
                            "pitch": 79, 
                            "t0": 81597, 
                            "v": 116, 
                            "dur": 656, 
                            "type": "note", 
                            "channel": 10
                        }
                    ]
                ], 
                [
                    82236, 
                    [
                        {
                            "pitch": 81, 
                            "t0": 82236, 
                            "v": 108, 
                            "dur": 350, 
                            "type": "note", 
                            "channel": 10
                        }
                    ]
                ], 
                [
                    82561, 
                    [
                        {
                            "pitch": 79, 
                            "t0": 82561, 
                            "v": 116, 
                            "dur": 818, 
                            "type": "note", 
                            "channel": 10
                        }
                    ]
                ], 
                [
                    83356, 
                    [
                        {
                            "pitch": 76, 
                            "t0": 83356, 
                            "v": 80, 
                            "dur": 530, 
                            "type": "note", 
                            "channel": 10
                        }
                    ]
                ], 
                [
                    83858, 
                    [
                        {
                            "pitch": 74, 
                            "t0": 83858, 
                            "v": 100, 
                            "dur": 404, 
                            "type": "note", 
                            "channel": 10
                        }
                    ]
                ], 
                [
                    84239, 
                    [
                        {
                            "pitch": 76, 
                            "t0": 84239, 
                            "v": 80, 
                            "dur": 196, 
                            "type": "note", 
                            "channel": 10
                        }
                    ]
                ], 
                [
                    84485, 
                    [
                        {
                            "pitch": 74, 
                            "t0": 84485, 
                            "v": 112, 
                            "dur": 383, 
                            "type": "note", 
                            "channel": 10
                        }
                    ]
                ], 
                [
                    84845, 
                    [
                        {
                            "pitch": 76, 
                            "t0": 84845, 
                            "v": 104, 
                            "dur": 1571, 
                            "type": "note", 
                            "channel": 10
                        }
                    ]
                ], 
                [
                    89147, 
                    [
                        {
                            "pitch": 69, 
                            "t0": 89147, 
                            "v": 72, 
                            "dur": 28, 
                            "type": "note", 
                            "channel": 10
                        }
                    ]
                ], 
                [
                    89182, 
                    [
                        {
                            "pitch": 67, 
                            "t0": 89182, 
                            "v": 76, 
                            "dur": 36, 
                            "type": "note", 
                            "channel": 10
                        }
                    ]
                ], 
                [
                    89214, 
                    [
                        {
                            "pitch": 69, 
                            "t0": 89214, 
                            "v": 108, 
                            "dur": 930, 
                            "type": "note", 
                            "channel": 10
                        }
                    ]
                ], 
                [
                    92016, 
                    [
                        {
                            "pitch": 69, 
                            "t0": 92016, 
                            "v": 54, 
                            "dur": 24, 
                            "type": "note", 
                            "channel": 10
                        }
                    ]
                ], 
                [
                    92039, 
                    [
                        {
                            "pitch": 67, 
                            "t0": 92039, 
                            "v": 50, 
                            "dur": 47, 
                            "type": "note", 
                            "channel": 10
                        }
                    ]
                ], 
                [
                    92089, 
                    [
                        {
                            "pitch": 69, 
                            "t0": 92089, 
                            "v": 76, 
                            "dur": 25, 
                            "type": "note", 
                            "channel": 10
                        }
                    ]
                ], 
                [
                    92104, 
                    [
                        {
                            "pitch": 67, 
                            "t0": 92104, 
                            "v": 64, 
                            "dur": 58, 
                            "type": "note", 
                            "channel": 10
                        }
                    ]
                ], 
                [
                    92148, 
                    [
                        {
                            "pitch": 69, 
                            "t0": 92148, 
                            "v": 96, 
                            "dur": 754, 
                            "type": "note", 
                            "channel": 10
                        }
                    ]
                ], 
                [
                    92584, 
                    [
                        {
                            "pitch": 67, 
                            "t0": 92584, 
                            "v": 35, 
                            "dur": 18, 
                            "type": "note", 
                            "channel": 10
                        }
                    ]
                ], 
                [
                    92870, 
                    [
                        {
                            "pitch": 67, 
                            "t0": 92870, 
                            "v": 92, 
                            "dur": 374, 
                            "type": "note", 
                            "channel": 10
                        }
                    ]
                ], 
                [
                    93227, 
                    [
                        {
                            "pitch": 64, 
                            "t0": 93227, 
                            "v": 76, 
                            "dur": 604, 
                            "type": "note", 
                            "channel": 10
                        }
                    ]
                ], 
                [
                    93804, 
                    [
                        {
                            "pitch": 62, 
                            "t0": 93804, 
                            "v": 88, 
                            "dur": 1133, 
                            "type": "note", 
                            "channel": 10
                        }
                    ]
                ], 
                [
                    94876, 
                    [
                        {
                            "pitch": 67, 
                            "t0": 94876, 
                            "v": 43, 
                            "dur": 79, 
                            "type": "note", 
                            "channel": 10
                        }
                    ]
                ], 
                [
                    94949, 
                    [
                        {
                            "pitch": 69, 
                            "t0": 94949, 
                            "v": 72, 
                            "dur": 33, 
                            "type": "note", 
                            "channel": 10
                        }
                    ]
                ], 
                [
                    94983, 
                    [
                        {
                            "pitch": 67, 
                            "t0": 94983, 
                            "v": 58, 
                            "dur": 44, 
                            "type": "note", 
                            "channel": 10
                        }
                    ]
                ], 
                [
                    95013, 
                    [
                        {
                            "pitch": 69, 
                            "t0": 95013, 
                            "v": 108, 
                            "dur": 260, 
                            "type": "note", 
                            "channel": 10
                        }
                    ]
                ], 
                [
                    95220, 
                    [
                        {
                            "pitch": 67, 
                            "t0": 95220, 
                            "v": 80, 
                            "dur": 269, 
                            "type": "note", 
                            "channel": 10
                        }
                    ]
                ], 
                [
                    95480, 
                    [
                        {
                            "pitch": 64, 
                            "t0": 95480, 
                            "v": 100, 
                            "dur": 297, 
                            "type": "note", 
                            "channel": 10
                        }
                    ]
                ], 
                [
                    95740, 
                    [
                        {
                            "pitch": 62, 
                            "t0": 95740, 
                            "v": 68, 
                            "dur": 137, 
                            "type": "note", 
                            "channel": 10
                        }
                    ]
                ], 
                [
                    95854, 
                    [
                        {
                            "pitch": 64, 
                            "t0": 95854, 
                            "v": 80, 
                            "dur": 2088, 
                            "type": "note", 
                            "channel": 10
                        }
                    ]
                ], 
                [
                    100973, 
                    [
                        {
                            "pitch": 69, 
                            "t0": 100973, 
                            "v": 124, 
                            "dur": 829, 
                            "type": "note", 
                            "channel": 10
                        }
                    ]
                ], 
                [
                    103556, 
                    [
                        {
                            "pitch": 76, 
                            "t0": 103556, 
                            "v": 88, 
                            "dur": 37, 
                            "type": "note", 
                            "channel": 10
                        }
                    ]
                ], 
                [
                    103594, 
                    [
                        {
                            "pitch": 74, 
                            "t0": 103594, 
                            "v": 80, 
                            "dur": 51, 
                            "type": "note", 
                            "channel": 10
                        }
                    ]
                ], 
                [
                    103636, 
                    [
                        {
                            "pitch": 76, 
                            "t0": 103636, 
                            "v": 108, 
                            "dur": 606, 
                            "type": "note", 
                            "channel": 10
                        }
                    ]
                ], 
                [
                    104199, 
                    [
                        {
                            "pitch": 74, 
                            "t0": 104199, 
                            "v": 80, 
                            "dur": 1226, 
                            "type": "note", 
                            "channel": 10
                        }
                    ]
                ], 
                [
                    105490, 
                    [
                        {
                            "pitch": 76, 
                            "t0": 105490, 
                            "v": 100, 
                            "dur": 45, 
                            "type": "note", 
                            "channel": 10
                        }
                    ]
                ], 
                [
                    105528, 
                    [
                        {
                            "pitch": 74, 
                            "t0": 105528, 
                            "v": 88, 
                            "dur": 52, 
                            "type": "note", 
                            "channel": 10
                        }
                    ]
                ], 
                [
                    105577, 
                    [
                        {
                            "pitch": 76, 
                            "t0": 105577, 
                            "v": 104, 
                            "dur": 511, 
                            "type": "note", 
                            "channel": 10
                        }
                    ]
                ], 
                [
                    106063, 
                    [
                        {
                            "pitch": 74, 
                            "t0": 106063, 
                            "v": 112, 
                            "dur": 1273, 
                            "type": "note", 
                            "channel": 10
                        }
                    ]
                ], 
                [
                    107263, 
                    [
                        {
                            "pitch": 69, 
                            "t0": 107263, 
                            "v": 92, 
                            "dur": 211, 
                            "type": "note", 
                            "channel": 10
                        }
                    ]
                ], 
                [
                    107472, 
                    [
                        {
                            "pitch": 67, 
                            "t0": 107472, 
                            "v": 84, 
                            "dur": 86, 
                            "type": "note", 
                            "channel": 10
                        }
                    ]
                ], 
                [
                    107551, 
                    [
                        {
                            "pitch": 69, 
                            "t0": 107551, 
                            "v": 108, 
                            "dur": 1015, 
                            "type": "note", 
                            "channel": 10
                        }
                    ]
                ], 
                [
                    109317, 
                    [
                        {
                            "pitch": 67, 
                            "t0": 109317, 
                            "v": 100, 
                            "dur": 138, 
                            "type": "note", 
                            "channel": 10
                        }
                    ]
                ], 
                [
                    109436, 
                    [
                        {
                            "pitch": 69, 
                            "t0": 109436, 
                            "v": 108, 
                            "dur": 862, 
                            "type": "note", 
                            "channel": 10
                        }
                    ]
                ], 
                [
                    112181, 
                    [
                        {
                            "pitch": 81, 
                            "t0": 112181, 
                            "v": 116, 
                            "dur": 1136, 
                            "type": "note", 
                            "channel": 10
                        }
                    ]
                ], 
                [
                    112190, 
                    [
                        {
                            "pitch": 79, 
                            "t0": 112190, 
                            "v": 64, 
                            "dur": 18, 
                            "type": "note", 
                            "channel": 10
                        }
                    ]
                ], 
                [
                    115114, 
                    [
                        {
                            "pitch": 79, 
                            "t0": 115114, 
                            "v": 41, 
                            "dur": 127, 
                            "type": "note", 
                            "channel": 10
                        }
                    ]
                ], 
                [
                    115217, 
                    [
                        {
                            "pitch": 81, 
                            "t0": 115217, 
                            "v": 112, 
                            "dur": 1136, 
                            "type": "note", 
                            "channel": 10
                        }
                    ]
                ], 
                [
                    116321, 
                    [
                        {
                            "pitch": 76, 
                            "t0": 116321, 
                            "v": 64, 
                            "dur": 631, 
                            "type": "note", 
                            "channel": 10
                        }
                    ]
                ], 
                [
                    116876, 
                    [
                        {
                            "pitch": 81, 
                            "t0": 116876, 
                            "v": 100, 
                            "dur": 667, 
                            "type": "note", 
                            "channel": 10
                        }
                    ]
                ], 
                [
                    117514, 
                    [
                        {
                            "pitch": 76, 
                            "t0": 117514, 
                            "v": 104, 
                            "dur": 726, 
                            "type": "note", 
                            "channel": 10
                        }
                    ]
                ], 
                [
                    118217, 
                    [
                        {
                            "pitch": 81, 
                            "t0": 118217, 
                            "v": 108, 
                            "dur": 400, 
                            "type": "note", 
                            "channel": 10
                        }
                    ]
                ], 
                [
                    118595, 
                    [
                        {
                            "pitch": 76, 
                            "t0": 118595, 
                            "v": 96, 
                            "dur": 339, 
                            "type": "note", 
                            "channel": 10
                        }
                    ]
                ], 
                [
                    118906, 
                    [
                        {
                            "pitch": 74, 
                            "t0": 118906, 
                            "v": 84, 
                            "dur": 196, 
                            "type": "note", 
                            "channel": 10
                        }
                    ]
                ], 
                [
                    119041, 
                    [
                        {
                            "pitch": 76, 
                            "t0": 119041, 
                            "v": 64, 
                            "dur": 978, 
                            "type": "note", 
                            "channel": 10
                        }
                    ]
                ], 
                [
                    121906, 
                    [
                        {
                            "pitch": 64, 
                            "t0": 121906, 
                            "v": 88, 
                            "dur": 1005, 
                            "type": "note", 
                            "channel": 10
                        }
                    ]
                ], 
                [
                    124772, 
                    [
                        {
                            "pitch": 69, 
                            "t0": 124772, 
                            "v": 112, 
                            "dur": 1981, 
                            "type": "note", 
                            "channel": 10
                        }
                    ]
                ], 
                [
                    129593, 
                    [
                        {
                            "pitch": 69, 
                            "t0": 129593, 
                            "v": 104, 
                            "dur": 1068, 
                            "type": "note", 
                            "channel": 10
                        }
                    ]
                ], 
                [
                    132039, 
                    [
                        {
                            "pitch": 76, 
                            "t0": 132039, 
                            "v": 108, 
                            "dur": 298, 
                            "type": "note", 
                            "channel": 10
                        }
                    ]
                ], 
                [
                    132274, 
                    [
                        {
                            "pitch": 74, 
                            "t0": 132274, 
                            "v": 72, 
                            "dur": 746, 
                            "type": "note", 
                            "channel": 10
                        }
                    ]
                ], 
                [
                    132975, 
                    [
                        {
                            "pitch": 69, 
                            "t0": 132975, 
                            "v": 62, 
                            "dur": 3408, 
                            "type": "note", 
                            "channel": 10
                        }
                    ]
                ], 
                [
                    136785, 
                    [
                        {
                            "pitch": 41, 
                            "t0": 136785, 
                            "v": 45, 
                            "dur": 23, 
                            "type": "note", 
                            "channel": 10
                        }
                    ]
                ]
            ], 
            "instruments": [
                75
            ], 
            "tMax": 136785, 
            "channels": [
                10
            ], 
            "instrument": 75, 
            "numNotes": 120, 
            "type": "TrackObj"
        }, 
        {
            "trackName": "Flute Echo", 
            "seq": [
                [
                    0, 
                    [
                        {
                            "instrument": 75, 
                            "type": "programChange", 
                            "t0": 0, 
                            "channel": 11
                        }, 
                        {
                            "instrument": 75, 
                            "type": "programChange", 
                            "t0": 0, 
                            "channel": 11
                        }
                    ]
                ], 
                [
                    27580, 
                    [
                        {
                            "pitch": 81, 
                            "t0": 27580, 
                            "v": 102, 
                            "dur": 1375, 
                            "type": "note", 
                            "channel": 11
                        }
                    ]
                ], 
                [
                    31060, 
                    [
                        {
                            "pitch": 74, 
                            "t0": 31060, 
                            "v": 13, 
                            "dur": 21, 
                            "type": "note", 
                            "channel": 11
                        }
                    ]
                ], 
                [
                    31168, 
                    [
                        {
                            "pitch": 76, 
                            "t0": 31168, 
                            "v": 85, 
                            "dur": 38, 
                            "type": "note", 
                            "channel": 11
                        }
                    ]
                ], 
                [
                    31206, 
                    [
                        {
                            "pitch": 74, 
                            "t0": 31206, 
                            "v": 57, 
                            "dur": 46, 
                            "type": "note", 
                            "channel": 11
                        }
                    ]
                ], 
                [
                    31245, 
                    [
                        {
                            "pitch": 76, 
                            "t0": 31245, 
                            "v": 91, 
                            "dur": 1605, 
                            "type": "note", 
                            "channel": 11
                        }
                    ]
                ], 
                [
                    35564, 
                    [
                        {
                            "pitch": 69, 
                            "t0": 35564, 
                            "v": 102, 
                            "dur": 1088, 
                            "type": "note", 
                            "channel": 11
                        }
                    ]
                ], 
                [
                    38407, 
                    [
                        {
                            "pitch": 76, 
                            "t0": 38407, 
                            "v": 91, 
                            "dur": 35, 
                            "type": "note", 
                            "channel": 11
                        }
                    ]
                ], 
                [
                    38435, 
                    [
                        {
                            "pitch": 74, 
                            "t0": 38435, 
                            "v": 81, 
                            "dur": 48, 
                            "type": "note", 
                            "channel": 11
                        }
                    ]
                ], 
                [
                    38483, 
                    [
                        {
                            "pitch": 76, 
                            "t0": 38483, 
                            "v": 95, 
                            "dur": 1984, 
                            "type": "note", 
                            "channel": 11
                        }
                    ]
                ], 
                [
                    43152, 
                    [
                        {
                            "pitch": 69, 
                            "t0": 43152, 
                            "v": 91, 
                            "dur": 43, 
                            "type": "note", 
                            "channel": 11
                        }
                    ]
                ], 
                [
                    43192, 
                    [
                        {
                            "pitch": 67, 
                            "t0": 43192, 
                            "v": 88, 
                            "dur": 54, 
                            "type": "note", 
                            "channel": 11
                        }
                    ]
                ], 
                [
                    43233, 
                    [
                        {
                            "pitch": 69, 
                            "t0": 43233, 
                            "v": 95, 
                            "dur": 462, 
                            "type": "note", 
                            "channel": 11
                        }
                    ]
                ], 
                [
                    43236, 
                    [
                        {
                            "pitch": 71, 
                            "t0": 43236, 
                            "v": 91, 
                            "dur": 23, 
                            "type": "note", 
                            "channel": 11
                        }
                    ]
                ], 
                [
                    43681, 
                    [
                        {
                            "pitch": 76, 
                            "t0": 43681, 
                            "v": 102, 
                            "dur": 358, 
                            "type": "note", 
                            "channel": 11
                        }
                    ]
                ], 
                [
                    44013, 
                    [
                        {
                            "pitch": 74, 
                            "t0": 44013, 
                            "v": 85, 
                            "dur": 902, 
                            "type": "note", 
                            "channel": 11
                        }
                    ]
                ], 
                [
                    45119, 
                    [
                        {
                            "pitch": 69, 
                            "t0": 45119, 
                            "v": 74, 
                            "dur": 25, 
                            "type": "note", 
                            "channel": 11
                        }
                    ]
                ], 
                [
                    45146, 
                    [
                        {
                            "pitch": 67, 
                            "t0": 45146, 
                            "v": 71, 
                            "dur": 41, 
                            "type": "note", 
                            "channel": 11
                        }
                    ]
                ], 
                [
                    45186, 
                    [
                        {
                            "pitch": 69, 
                            "t0": 45186, 
                            "v": 91, 
                            "dur": 360, 
                            "type": "note", 
                            "channel": 11
                        }
                    ]
                ], 
                [
                    45612, 
                    [
                        {
                            "pitch": 74, 
                            "t0": 45612, 
                            "v": 95, 
                            "dur": 330, 
                            "type": "note", 
                            "channel": 11
                        }
                    ]
                ], 
                [
                    45935, 
                    [
                        {
                            "pitch": 76, 
                            "t0": 45935, 
                            "v": 95, 
                            "dur": 656, 
                            "type": "note", 
                            "channel": 11
                        }
                    ]
                ], 
                [
                    46563, 
                    [
                        {
                            "pitch": 74, 
                            "t0": 46563, 
                            "v": 68, 
                            "dur": 1592, 
                            "type": "note", 
                            "channel": 11
                        }
                    ]
                ], 
                [
                    50890, 
                    [
                        {
                            "pitch": 79, 
                            "t0": 50890, 
                            "v": 40, 
                            "dur": 30, 
                            "type": "note", 
                            "channel": 11
                        }
                    ]
                ], 
                [
                    50922, 
                    [
                        {
                            "pitch": 81, 
                            "t0": 50922, 
                            "v": 81, 
                            "dur": 41, 
                            "type": "note", 
                            "channel": 11
                        }
                    ]
                ], 
                [
                    50957, 
                    [
                        {
                            "pitch": 79, 
                            "t0": 50957, 
                            "v": 85, 
                            "dur": 52, 
                            "type": "note", 
                            "channel": 11
                        }
                    ]
                ], 
                [
                    50990, 
                    [
                        {
                            "pitch": 81, 
                            "t0": 50990, 
                            "v": 95, 
                            "dur": 252, 
                            "type": "note", 
                            "channel": 11
                        }
                    ]
                ], 
                [
                    51222, 
                    [
                        {
                            "pitch": 79, 
                            "t0": 51222, 
                            "v": 98, 
                            "dur": 242, 
                            "type": "note", 
                            "channel": 11
                        }
                    ]
                ], 
                [
                    51457, 
                    [
                        {
                            "pitch": 76, 
                            "t0": 51457, 
                            "v": 88, 
                            "dur": 1209, 
                            "type": "note", 
                            "channel": 11
                        }
                    ]
                ], 
                [
                    53325, 
                    [
                        {
                            "pitch": 81, 
                            "t0": 53325, 
                            "v": 61, 
                            "dur": 26, 
                            "type": "note", 
                            "channel": 11
                        }
                    ]
                ], 
                [
                    53345, 
                    [
                        {
                            "pitch": 79, 
                            "t0": 53345, 
                            "v": 47, 
                            "dur": 55, 
                            "type": "note", 
                            "channel": 11
                        }
                    ]
                ], 
                [
                    53389, 
                    [
                        {
                            "pitch": 81, 
                            "t0": 53389, 
                            "v": 88, 
                            "dur": 254, 
                            "type": "note", 
                            "channel": 11
                        }
                    ]
                ], 
                [
                    53621, 
                    [
                        {
                            "pitch": 79, 
                            "t0": 53621, 
                            "v": 102, 
                            "dur": 251, 
                            "type": "note", 
                            "channel": 11
                        }
                    ]
                ], 
                [
                    53867, 
                    [
                        {
                            "pitch": 76, 
                            "t0": 53867, 
                            "v": 91, 
                            "dur": 385, 
                            "type": "note", 
                            "channel": 11
                        }
                    ]
                ], 
                [
                    54231, 
                    [
                        {
                            "pitch": 74, 
                            "t0": 54231, 
                            "v": 74, 
                            "dur": 123, 
                            "type": "note", 
                            "channel": 11
                        }
                    ]
                ], 
                [
                    54344, 
                    [
                        {
                            "pitch": 76, 
                            "t0": 54344, 
                            "v": 98, 
                            "dur": 1468, 
                            "type": "note", 
                            "channel": 11
                        }
                    ]
                ], 
                [
                    58826, 
                    [
                        {
                            "pitch": 81, 
                            "t0": 58826, 
                            "v": 98, 
                            "dur": 215, 
                            "type": "note", 
                            "channel": 11
                        }
                    ]
                ], 
                [
                    59025, 
                    [
                        {
                            "pitch": 79, 
                            "t0": 59025, 
                            "v": 95, 
                            "dur": 132, 
                            "type": "note", 
                            "channel": 11
                        }
                    ]
                ], 
                [
                    59148, 
                    [
                        {
                            "pitch": 76, 
                            "t0": 59148, 
                            "v": 88, 
                            "dur": 270, 
                            "type": "note", 
                            "channel": 11
                        }
                    ]
                ], 
                [
                    59389, 
                    [
                        {
                            "pitch": 74, 
                            "t0": 59389, 
                            "v": 85, 
                            "dur": 237, 
                            "type": "note", 
                            "channel": 11
                        }
                    ]
                ], 
                [
                    59644, 
                    [
                        {
                            "pitch": 74, 
                            "t0": 59644, 
                            "v": 81, 
                            "dur": 674, 
                            "type": "note", 
                            "channel": 11
                        }
                    ]
                ], 
                [
                    60347, 
                    [
                        {
                            "pitch": 74, 
                            "t0": 60347, 
                            "v": 34, 
                            "dur": 102, 
                            "type": "note", 
                            "channel": 11
                        }
                    ]
                ], 
                [
                    60580, 
                    [
                        {
                            "pitch": 74, 
                            "t0": 60580, 
                            "v": 98, 
                            "dur": 362, 
                            "type": "note", 
                            "channel": 11
                        }
                    ]
                ], 
                [
                    60924, 
                    [
                        {
                            "pitch": 76, 
                            "t0": 60924, 
                            "v": 95, 
                            "dur": 395, 
                            "type": "note", 
                            "channel": 11
                        }
                    ]
                ], 
                [
                    61295, 
                    [
                        {
                            "pitch": 74, 
                            "t0": 61295, 
                            "v": 85, 
                            "dur": 249, 
                            "type": "note", 
                            "channel": 11
                        }
                    ]
                ], 
                [
                    61572, 
                    [
                        {
                            "pitch": 69, 
                            "t0": 61572, 
                            "v": 91, 
                            "dur": 948, 
                            "type": "note", 
                            "channel": 11
                        }
                    ]
                ], 
                [
                    66061, 
                    [
                        {
                            "pitch": 69, 
                            "t0": 66061, 
                            "v": 98, 
                            "dur": 1810, 
                            "type": "note", 
                            "channel": 11
                        }
                    ]
                ], 
                [
                    70047, 
                    [
                        {
                            "pitch": 69, 
                            "t0": 70047, 
                            "v": 64, 
                            "dur": 24, 
                            "type": "note", 
                            "channel": 11
                        }
                    ]
                ], 
                [
                    70077, 
                    [
                        {
                            "pitch": 67, 
                            "t0": 70077, 
                            "v": 78, 
                            "dur": 40, 
                            "type": "note", 
                            "channel": 11
                        }
                    ]
                ], 
                [
                    70116, 
                    [
                        {
                            "pitch": 69, 
                            "t0": 70116, 
                            "v": 85, 
                            "dur": 54, 
                            "type": "note", 
                            "channel": 11
                        }
                    ]
                ], 
                [
                    70154, 
                    [
                        {
                            "pitch": 67, 
                            "t0": 70154, 
                            "v": 88, 
                            "dur": 420, 
                            "type": "note", 
                            "channel": 11
                        }
                    ]
                ], 
                [
                    70558, 
                    [
                        {
                            "pitch": 69, 
                            "t0": 70558, 
                            "v": 95, 
                            "dur": 619, 
                            "type": "note", 
                            "channel": 11
                        }
                    ]
                ], 
                [
                    73512, 
                    [
                        {
                            "pitch": 67, 
                            "t0": 73512, 
                            "v": 51, 
                            "dur": 47, 
                            "type": "note", 
                            "channel": 11
                        }
                    ]
                ], 
                [
                    73558, 
                    [
                        {
                            "pitch": 69, 
                            "t0": 73558, 
                            "v": 85, 
                            "dur": 838, 
                            "type": "note", 
                            "channel": 11
                        }
                    ]
                ], 
                [
                    75882, 
                    [
                        {
                            "pitch": 76, 
                            "t0": 75882, 
                            "v": 29, 
                            "dur": 11, 
                            "type": "note", 
                            "channel": 11
                        }
                    ]
                ], 
                [
                    75899, 
                    [
                        {
                            "pitch": 74, 
                            "t0": 75899, 
                            "v": 64, 
                            "dur": 54, 
                            "type": "note", 
                            "channel": 11
                        }
                    ]
                ], 
                [
                    75942, 
                    [
                        {
                            "pitch": 76, 
                            "t0": 75942, 
                            "v": 95, 
                            "dur": 410, 
                            "type": "note", 
                            "channel": 11
                        }
                    ]
                ], 
                [
                    75972, 
                    [
                        {
                            "pitch": 74, 
                            "t0": 75972, 
                            "v": 64, 
                            "dur": 28, 
                            "type": "note", 
                            "channel": 11
                        }
                    ]
                ], 
                [
                    76324, 
                    [
                        {
                            "pitch": 74, 
                            "t0": 76324, 
                            "v": 95, 
                            "dur": 482, 
                            "type": "note", 
                            "channel": 11
                        }
                    ]
                ], 
                [
                    76795, 
                    [
                        {
                            "pitch": 67, 
                            "t0": 76795, 
                            "v": 81, 
                            "dur": 126, 
                            "type": "note", 
                            "channel": 11
                        }
                    ]
                ], 
                [
                    76906, 
                    [
                        {
                            "pitch": 69, 
                            "t0": 76906, 
                            "v": 88, 
                            "dur": 1034, 
                            "type": "note", 
                            "channel": 11
                        }
                    ]
                ], 
                [
                    81378, 
                    [
                        {
                            "pitch": 81, 
                            "t0": 81378, 
                            "v": 98, 
                            "dur": 368, 
                            "type": "note", 
                            "channel": 11
                        }
                    ]
                ], 
                [
                    81717, 
                    [
                        {
                            "pitch": 79, 
                            "t0": 81717, 
                            "v": 98, 
                            "dur": 656, 
                            "type": "note", 
                            "channel": 11
                        }
                    ]
                ], 
                [
                    82356, 
                    [
                        {
                            "pitch": 81, 
                            "t0": 82356, 
                            "v": 91, 
                            "dur": 350, 
                            "type": "note", 
                            "channel": 11
                        }
                    ]
                ], 
                [
                    82681, 
                    [
                        {
                            "pitch": 79, 
                            "t0": 82681, 
                            "v": 98, 
                            "dur": 818, 
                            "type": "note", 
                            "channel": 11
                        }
                    ]
                ], 
                [
                    83476, 
                    [
                        {
                            "pitch": 76, 
                            "t0": 83476, 
                            "v": 68, 
                            "dur": 530, 
                            "type": "note", 
                            "channel": 11
                        }
                    ]
                ], 
                [
                    83978, 
                    [
                        {
                            "pitch": 74, 
                            "t0": 83978, 
                            "v": 85, 
                            "dur": 404, 
                            "type": "note", 
                            "channel": 11
                        }
                    ]
                ], 
                [
                    84359, 
                    [
                        {
                            "pitch": 76, 
                            "t0": 84359, 
                            "v": 68, 
                            "dur": 196, 
                            "type": "note", 
                            "channel": 11
                        }
                    ]
                ], 
                [
                    84605, 
                    [
                        {
                            "pitch": 74, 
                            "t0": 84605, 
                            "v": 95, 
                            "dur": 383, 
                            "type": "note", 
                            "channel": 11
                        }
                    ]
                ], 
                [
                    84965, 
                    [
                        {
                            "pitch": 76, 
                            "t0": 84965, 
                            "v": 88, 
                            "dur": 1571, 
                            "type": "note", 
                            "channel": 11
                        }
                    ]
                ], 
                [
                    89267, 
                    [
                        {
                            "pitch": 69, 
                            "t0": 89267, 
                            "v": 61, 
                            "dur": 28, 
                            "type": "note", 
                            "channel": 11
                        }
                    ]
                ], 
                [
                    89302, 
                    [
                        {
                            "pitch": 67, 
                            "t0": 89302, 
                            "v": 64, 
                            "dur": 36, 
                            "type": "note", 
                            "channel": 11
                        }
                    ]
                ], 
                [
                    89334, 
                    [
                        {
                            "pitch": 69, 
                            "t0": 89334, 
                            "v": 91, 
                            "dur": 930, 
                            "type": "note", 
                            "channel": 11
                        }
                    ]
                ], 
                [
                    92136, 
                    [
                        {
                            "pitch": 69, 
                            "t0": 92136, 
                            "v": 45, 
                            "dur": 24, 
                            "type": "note", 
                            "channel": 11
                        }
                    ]
                ], 
                [
                    92159, 
                    [
                        {
                            "pitch": 67, 
                            "t0": 92159, 
                            "v": 42, 
                            "dur": 47, 
                            "type": "note", 
                            "channel": 11
                        }
                    ]
                ], 
                [
                    92209, 
                    [
                        {
                            "pitch": 69, 
                            "t0": 92209, 
                            "v": 64, 
                            "dur": 25, 
                            "type": "note", 
                            "channel": 11
                        }
                    ]
                ], 
                [
                    92224, 
                    [
                        {
                            "pitch": 67, 
                            "t0": 92224, 
                            "v": 54, 
                            "dur": 58, 
                            "type": "note", 
                            "channel": 11
                        }
                    ]
                ], 
                [
                    92268, 
                    [
                        {
                            "pitch": 69, 
                            "t0": 92268, 
                            "v": 81, 
                            "dur": 754, 
                            "type": "note", 
                            "channel": 11
                        }
                    ]
                ], 
                [
                    92704, 
                    [
                        {
                            "pitch": 67, 
                            "t0": 92704, 
                            "v": 29, 
                            "dur": 18, 
                            "type": "note", 
                            "channel": 11
                        }
                    ]
                ], 
                [
                    92990, 
                    [
                        {
                            "pitch": 67, 
                            "t0": 92990, 
                            "v": 78, 
                            "dur": 374, 
                            "type": "note", 
                            "channel": 11
                        }
                    ]
                ], 
                [
                    93347, 
                    [
                        {
                            "pitch": 64, 
                            "t0": 93347, 
                            "v": 64, 
                            "dur": 604, 
                            "type": "note", 
                            "channel": 11
                        }
                    ]
                ], 
                [
                    93924, 
                    [
                        {
                            "pitch": 62, 
                            "t0": 93924, 
                            "v": 74, 
                            "dur": 1133, 
                            "type": "note", 
                            "channel": 11
                        }
                    ]
                ], 
                [
                    94996, 
                    [
                        {
                            "pitch": 67, 
                            "t0": 94996, 
                            "v": 36, 
                            "dur": 79, 
                            "type": "note", 
                            "channel": 11
                        }
                    ]
                ], 
                [
                    95069, 
                    [
                        {
                            "pitch": 69, 
                            "t0": 95069, 
                            "v": 61, 
                            "dur": 33, 
                            "type": "note", 
                            "channel": 11
                        }
                    ]
                ], 
                [
                    95103, 
                    [
                        {
                            "pitch": 67, 
                            "t0": 95103, 
                            "v": 49, 
                            "dur": 44, 
                            "type": "note", 
                            "channel": 11
                        }
                    ]
                ], 
                [
                    95133, 
                    [
                        {
                            "pitch": 69, 
                            "t0": 95133, 
                            "v": 91, 
                            "dur": 260, 
                            "type": "note", 
                            "channel": 11
                        }
                    ]
                ], 
                [
                    95340, 
                    [
                        {
                            "pitch": 67, 
                            "t0": 95340, 
                            "v": 68, 
                            "dur": 269, 
                            "type": "note", 
                            "channel": 11
                        }
                    ]
                ], 
                [
                    95600, 
                    [
                        {
                            "pitch": 64, 
                            "t0": 95600, 
                            "v": 85, 
                            "dur": 297, 
                            "type": "note", 
                            "channel": 11
                        }
                    ]
                ], 
                [
                    95860, 
                    [
                        {
                            "pitch": 62, 
                            "t0": 95860, 
                            "v": 57, 
                            "dur": 137, 
                            "type": "note", 
                            "channel": 11
                        }
                    ]
                ], 
                [
                    95974, 
                    [
                        {
                            "pitch": 64, 
                            "t0": 95974, 
                            "v": 68, 
                            "dur": 2088, 
                            "type": "note", 
                            "channel": 11
                        }
                    ]
                ], 
                [
                    101093, 
                    [
                        {
                            "pitch": 69, 
                            "t0": 101093, 
                            "v": 105, 
                            "dur": 829, 
                            "type": "note", 
                            "channel": 11
                        }
                    ]
                ], 
                [
                    103676, 
                    [
                        {
                            "pitch": 76, 
                            "t0": 103676, 
                            "v": 74, 
                            "dur": 37, 
                            "type": "note", 
                            "channel": 11
                        }
                    ]
                ], 
                [
                    103714, 
                    [
                        {
                            "pitch": 74, 
                            "t0": 103714, 
                            "v": 68, 
                            "dur": 51, 
                            "type": "note", 
                            "channel": 11
                        }
                    ]
                ], 
                [
                    103756, 
                    [
                        {
                            "pitch": 76, 
                            "t0": 103756, 
                            "v": 91, 
                            "dur": 606, 
                            "type": "note", 
                            "channel": 11
                        }
                    ]
                ], 
                [
                    104319, 
                    [
                        {
                            "pitch": 74, 
                            "t0": 104319, 
                            "v": 68, 
                            "dur": 1226, 
                            "type": "note", 
                            "channel": 11
                        }
                    ]
                ], 
                [
                    105610, 
                    [
                        {
                            "pitch": 76, 
                            "t0": 105610, 
                            "v": 85, 
                            "dur": 45, 
                            "type": "note", 
                            "channel": 11
                        }
                    ]
                ], 
                [
                    105648, 
                    [
                        {
                            "pitch": 74, 
                            "t0": 105648, 
                            "v": 74, 
                            "dur": 52, 
                            "type": "note", 
                            "channel": 11
                        }
                    ]
                ], 
                [
                    105697, 
                    [
                        {
                            "pitch": 76, 
                            "t0": 105697, 
                            "v": 88, 
                            "dur": 511, 
                            "type": "note", 
                            "channel": 11
                        }
                    ]
                ], 
                [
                    106183, 
                    [
                        {
                            "pitch": 74, 
                            "t0": 106183, 
                            "v": 95, 
                            "dur": 1273, 
                            "type": "note", 
                            "channel": 11
                        }
                    ]
                ], 
                [
                    107383, 
                    [
                        {
                            "pitch": 69, 
                            "t0": 107383, 
                            "v": 78, 
                            "dur": 211, 
                            "type": "note", 
                            "channel": 11
                        }
                    ]
                ], 
                [
                    107592, 
                    [
                        {
                            "pitch": 67, 
                            "t0": 107592, 
                            "v": 71, 
                            "dur": 86, 
                            "type": "note", 
                            "channel": 11
                        }
                    ]
                ], 
                [
                    107671, 
                    [
                        {
                            "pitch": 69, 
                            "t0": 107671, 
                            "v": 91, 
                            "dur": 1015, 
                            "type": "note", 
                            "channel": 11
                        }
                    ]
                ], 
                [
                    109437, 
                    [
                        {
                            "pitch": 67, 
                            "t0": 109437, 
                            "v": 85, 
                            "dur": 138, 
                            "type": "note", 
                            "channel": 11
                        }
                    ]
                ], 
                [
                    109556, 
                    [
                        {
                            "pitch": 69, 
                            "t0": 109556, 
                            "v": 91, 
                            "dur": 852, 
                            "type": "note", 
                            "channel": 11
                        }
                    ]
                ], 
                [
                    112301, 
                    [
                        {
                            "pitch": 81, 
                            "t0": 112301, 
                            "v": 98, 
                            "dur": 1136, 
                            "type": "note", 
                            "channel": 11
                        }
                    ]
                ], 
                [
                    112310, 
                    [
                        {
                            "pitch": 79, 
                            "t0": 112310, 
                            "v": 54, 
                            "dur": 18, 
                            "type": "note", 
                            "channel": 11
                        }
                    ]
                ], 
                [
                    115234, 
                    [
                        {
                            "pitch": 79, 
                            "t0": 115234, 
                            "v": 34, 
                            "dur": 127, 
                            "type": "note", 
                            "channel": 11
                        }
                    ]
                ], 
                [
                    115337, 
                    [
                        {
                            "pitch": 81, 
                            "t0": 115337, 
                            "v": 95, 
                            "dur": 1136, 
                            "type": "note", 
                            "channel": 11
                        }
                    ]
                ], 
                [
                    116441, 
                    [
                        {
                            "pitch": 76, 
                            "t0": 116441, 
                            "v": 54, 
                            "dur": 631, 
                            "type": "note", 
                            "channel": 11
                        }
                    ]
                ], 
                [
                    116996, 
                    [
                        {
                            "pitch": 81, 
                            "t0": 116996, 
                            "v": 85, 
                            "dur": 667, 
                            "type": "note", 
                            "channel": 11
                        }
                    ]
                ], 
                [
                    117634, 
                    [
                        {
                            "pitch": 76, 
                            "t0": 117634, 
                            "v": 88, 
                            "dur": 726, 
                            "type": "note", 
                            "channel": 11
                        }
                    ]
                ], 
                [
                    118337, 
                    [
                        {
                            "pitch": 81, 
                            "t0": 118337, 
                            "v": 91, 
                            "dur": 400, 
                            "type": "note", 
                            "channel": 11
                        }
                    ]
                ], 
                [
                    118715, 
                    [
                        {
                            "pitch": 76, 
                            "t0": 118715, 
                            "v": 81, 
                            "dur": 339, 
                            "type": "note", 
                            "channel": 11
                        }
                    ]
                ], 
                [
                    119026, 
                    [
                        {
                            "pitch": 74, 
                            "t0": 119026, 
                            "v": 71, 
                            "dur": 196, 
                            "type": "note", 
                            "channel": 11
                        }
                    ]
                ], 
                [
                    119161, 
                    [
                        {
                            "pitch": 76, 
                            "t0": 119161, 
                            "v": 54, 
                            "dur": 978, 
                            "type": "note", 
                            "channel": 11
                        }
                    ]
                ], 
                [
                    122026, 
                    [
                        {
                            "pitch": 64, 
                            "t0": 122026, 
                            "v": 74, 
                            "dur": 1005, 
                            "type": "note", 
                            "channel": 11
                        }
                    ]
                ], 
                [
                    124892, 
                    [
                        {
                            "pitch": 69, 
                            "t0": 124892, 
                            "v": 95, 
                            "dur": 1981, 
                            "type": "note", 
                            "channel": 11
                        }
                    ]
                ], 
                [
                    129713, 
                    [
                        {
                            "pitch": 69, 
                            "t0": 129713, 
                            "v": 88, 
                            "dur": 1068, 
                            "type": "note", 
                            "channel": 11
                        }
                    ]
                ], 
                [
                    132159, 
                    [
                        {
                            "pitch": 76, 
                            "t0": 132159, 
                            "v": 91, 
                            "dur": 298, 
                            "type": "note", 
                            "channel": 11
                        }
                    ]
                ], 
                [
                    132394, 
                    [
                        {
                            "pitch": 74, 
                            "t0": 132394, 
                            "v": 61, 
                            "dur": 746, 
                            "type": "note", 
                            "channel": 11
                        }
                    ]
                ], 
                [
                    133095, 
                    [
                        {
                            "pitch": 69, 
                            "t0": 133095, 
                            "v": 52, 
                            "dur": 3408, 
                            "type": "note", 
                            "channel": 11
                        }
                    ]
                ], 
                [
                    136905, 
                    [
                        {
                            "pitch": 41, 
                            "t0": 136905, 
                            "v": 38, 
                            "dur": 23, 
                            "type": "note", 
                            "channel": 11
                        }
                    ]
                ]
            ], 
            "instruments": [
                75
            ], 
            "tMax": 136905, 
            "channels": [
                11
            ], 
            "instrument": 75, 
            "numNotes": 120, 
            "type": "TrackObj"
        }, 
        {
            "trackName": "Big Drums-Distant Drums", 
            "seq": [
                [
                    0, 
                    [
                        {
                            "instrument": 116, 
                            "type": "programChange", 
                            "t0": 0, 
                            "channel": 12
                        }
                    ]
                ], 
                [
                    21378, 
                    [
                        {
                            "instrument": 116, 
                            "type": "programChange", 
                            "t0": 21378, 
                            "channel": 12
                        }, 
                        {
                            "pitch": 75, 
                            "t0": 21378, 
                            "v": 116, 
                            "dur": 20, 
                            "type": "note", 
                            "channel": 12
                        }
                    ]
                ], 
                [
                    21379, 
                    [
                        {
                            "pitch": 78, 
                            "t0": 21379, 
                            "v": 108, 
                            "dur": 14, 
                            "type": "note", 
                            "channel": 12
                        }, 
                        {
                            "pitch": 82, 
                            "t0": 21379, 
                            "v": 108, 
                            "dur": 19, 
                            "type": "note", 
                            "channel": 12
                        }
                    ]
                ], 
                [
                    21436, 
                    [
                        {
                            "pitch": 75, 
                            "t0": 21436, 
                            "v": 108, 
                            "dur": 24, 
                            "type": "note", 
                            "channel": 12
                        }, 
                        {
                            "pitch": 78, 
                            "t0": 21436, 
                            "v": 108, 
                            "dur": 26, 
                            "type": "note", 
                            "channel": 12
                        }
                    ]
                ], 
                [
                    21437, 
                    [
                        {
                            "pitch": 82, 
                            "t0": 21437, 
                            "v": 108, 
                            "dur": 27, 
                            "type": "note", 
                            "channel": 12
                        }
                    ]
                ], 
                [
                    21473, 
                    [
                        {
                            "pitch": 78, 
                            "t0": 21473, 
                            "v": 88, 
                            "dur": 39, 
                            "type": "note", 
                            "channel": 12
                        }
                    ]
                ], 
                [
                    21478, 
                    [
                        {
                            "pitch": 82, 
                            "t0": 21478, 
                            "v": 96, 
                            "dur": 35, 
                            "type": "note", 
                            "channel": 12
                        }
                    ]
                ], 
                [
                    21480, 
                    [
                        {
                            "pitch": 75, 
                            "t0": 21480, 
                            "v": 80, 
                            "dur": 28, 
                            "type": "note", 
                            "channel": 12
                        }
                    ]
                ], 
                [
                    21610, 
                    [
                        {
                            "pitch": 75, 
                            "t0": 21610, 
                            "v": 120, 
                            "dur": 25, 
                            "type": "note", 
                            "channel": 12
                        }
                    ]
                ], 
                [
                    21611, 
                    [
                        {
                            "pitch": 82, 
                            "t0": 21611, 
                            "v": 120, 
                            "dur": 34, 
                            "type": "note", 
                            "channel": 12
                        }
                    ]
                ], 
                [
                    21612, 
                    [
                        {
                            "pitch": 78, 
                            "t0": 21612, 
                            "v": 116, 
                            "dur": 27, 
                            "type": "note", 
                            "channel": 12
                        }
                    ]
                ], 
                [
                    22210, 
                    [
                        {
                            "pitch": 75, 
                            "t0": 22210, 
                            "v": 120, 
                            "dur": 24, 
                            "type": "note", 
                            "channel": 12
                        }
                    ]
                ], 
                [
                    22211, 
                    [
                        {
                            "pitch": 78, 
                            "t0": 22211, 
                            "v": 116, 
                            "dur": 22, 
                            "type": "note", 
                            "channel": 12
                        }, 
                        {
                            "pitch": 82, 
                            "t0": 22211, 
                            "v": 116, 
                            "dur": 25, 
                            "type": "note", 
                            "channel": 12
                        }
                    ]
                ], 
                [
                    22572, 
                    [
                        {
                            "pitch": 75, 
                            "t0": 22572, 
                            "v": 116, 
                            "dur": 26, 
                            "type": "note", 
                            "channel": 12
                        }, 
                        {
                            "pitch": 82, 
                            "t0": 22572, 
                            "v": 116, 
                            "dur": 27, 
                            "type": "note", 
                            "channel": 12
                        }
                    ]
                ], 
                [
                    22573, 
                    [
                        {
                            "pitch": 78, 
                            "t0": 22573, 
                            "v": 116, 
                            "dur": 26, 
                            "type": "note", 
                            "channel": 12
                        }
                    ]
                ], 
                [
                    22798, 
                    [
                        {
                            "pitch": 75, 
                            "t0": 22798, 
                            "v": 116, 
                            "dur": 26, 
                            "type": "note", 
                            "channel": 12
                        }
                    ]
                ], 
                [
                    22799, 
                    [
                        {
                            "pitch": 78, 
                            "t0": 22799, 
                            "v": 116, 
                            "dur": 26, 
                            "type": "note", 
                            "channel": 12
                        }, 
                        {
                            "pitch": 82, 
                            "t0": 22799, 
                            "v": 116, 
                            "dur": 27, 
                            "type": "note", 
                            "channel": 12
                        }
                    ]
                ], 
                [
                    23295, 
                    [
                        {
                            "pitch": 75, 
                            "t0": 23295, 
                            "v": 116, 
                            "dur": 22, 
                            "type": "note", 
                            "channel": 12
                        }
                    ]
                ], 
                [
                    23296, 
                    [
                        {
                            "pitch": 78, 
                            "t0": 23296, 
                            "v": 112, 
                            "dur": 18, 
                            "type": "note", 
                            "channel": 12
                        }
                    ]
                ], 
                [
                    23297, 
                    [
                        {
                            "pitch": 82, 
                            "t0": 23297, 
                            "v": 104, 
                            "dur": 20, 
                            "type": "note", 
                            "channel": 12
                        }
                    ]
                ], 
                [
                    23352, 
                    [
                        {
                            "pitch": 75, 
                            "t0": 23352, 
                            "v": 112, 
                            "dur": 32, 
                            "type": "note", 
                            "channel": 12
                        }
                    ]
                ], 
                [
                    23355, 
                    [
                        {
                            "pitch": 82, 
                            "t0": 23355, 
                            "v": 112, 
                            "dur": 23, 
                            "type": "note", 
                            "channel": 12
                        }
                    ]
                ], 
                [
                    23356, 
                    [
                        {
                            "pitch": 78, 
                            "t0": 23356, 
                            "v": 104, 
                            "dur": 20, 
                            "type": "note", 
                            "channel": 12
                        }
                    ]
                ], 
                [
                    23395, 
                    [
                        {
                            "pitch": 75, 
                            "t0": 23395, 
                            "v": 108, 
                            "dur": 35, 
                            "type": "note", 
                            "channel": 12
                        }
                    ]
                ], 
                [
                    23396, 
                    [
                        {
                            "pitch": 82, 
                            "t0": 23396, 
                            "v": 42, 
                            "dur": 32, 
                            "type": "note", 
                            "channel": 12
                        }
                    ]
                ], 
                [
                    23398, 
                    [
                        {
                            "pitch": 78, 
                            "t0": 23398, 
                            "v": 112, 
                            "dur": 34, 
                            "type": "note", 
                            "channel": 12
                        }
                    ]
                ], 
                [
                    23529, 
                    [
                        {
                            "pitch": 75, 
                            "t0": 23529, 
                            "v": 120, 
                            "dur": 26, 
                            "type": "note", 
                            "channel": 12
                        }, 
                        {
                            "pitch": 82, 
                            "t0": 23529, 
                            "v": 120, 
                            "dur": 29, 
                            "type": "note", 
                            "channel": 12
                        }
                    ]
                ], 
                [
                    23530, 
                    [
                        {
                            "pitch": 78, 
                            "t0": 23530, 
                            "v": 124, 
                            "dur": 25, 
                            "type": "note", 
                            "channel": 12
                        }
                    ]
                ], 
                [
                    24130, 
                    [
                        {
                            "pitch": 75, 
                            "t0": 24130, 
                            "v": 116, 
                            "dur": 24, 
                            "type": "note", 
                            "channel": 12
                        }
                    ]
                ], 
                [
                    24131, 
                    [
                        {
                            "pitch": 78, 
                            "t0": 24131, 
                            "v": 116, 
                            "dur": 23, 
                            "type": "note", 
                            "channel": 12
                        }, 
                        {
                            "pitch": 82, 
                            "t0": 24131, 
                            "v": 116, 
                            "dur": 25, 
                            "type": "note", 
                            "channel": 12
                        }
                    ]
                ], 
                [
                    24494, 
                    [
                        {
                            "pitch": 75, 
                            "t0": 24494, 
                            "v": 116, 
                            "dur": 27, 
                            "type": "note", 
                            "channel": 12
                        }
                    ]
                ], 
                [
                    24496, 
                    [
                        {
                            "pitch": 78, 
                            "t0": 24496, 
                            "v": 120, 
                            "dur": 27, 
                            "type": "note", 
                            "channel": 12
                        }, 
                        {
                            "pitch": 82, 
                            "t0": 24496, 
                            "v": 116, 
                            "dur": 32, 
                            "type": "note", 
                            "channel": 12
                        }
                    ]
                ], 
                [
                    24727, 
                    [
                        {
                            "pitch": 82, 
                            "t0": 24727, 
                            "v": 116, 
                            "dur": 33, 
                            "type": "note", 
                            "channel": 12
                        }
                    ]
                ], 
                [
                    24728, 
                    [
                        {
                            "pitch": 75, 
                            "t0": 24728, 
                            "v": 116, 
                            "dur": 28, 
                            "type": "note", 
                            "channel": 12
                        }
                    ]
                ], 
                [
                    24729, 
                    [
                        {
                            "pitch": 78, 
                            "t0": 24729, 
                            "v": 120, 
                            "dur": 29, 
                            "type": "note", 
                            "channel": 12
                        }
                    ]
                ], 
                [
                    25221, 
                    [
                        {
                            "pitch": 75, 
                            "t0": 25221, 
                            "v": 112, 
                            "dur": 26, 
                            "type": "note", 
                            "channel": 12
                        }
                    ]
                ], 
                [
                    25222, 
                    [
                        {
                            "pitch": 78, 
                            "t0": 25222, 
                            "v": 112, 
                            "dur": 20, 
                            "type": "note", 
                            "channel": 12
                        }
                    ]
                ], 
                [
                    25223, 
                    [
                        {
                            "pitch": 82, 
                            "t0": 25223, 
                            "v": 120, 
                            "dur": 24, 
                            "type": "note", 
                            "channel": 12
                        }
                    ]
                ], 
                [
                    25276, 
                    [
                        {
                            "pitch": 75, 
                            "t0": 25276, 
                            "v": 112, 
                            "dur": 32, 
                            "type": "note", 
                            "channel": 12
                        }
                    ]
                ], 
                [
                    25278, 
                    [
                        {
                            "pitch": 78, 
                            "t0": 25278, 
                            "v": 116, 
                            "dur": 27, 
                            "type": "note", 
                            "channel": 12
                        }
                    ]
                ], 
                [
                    25279, 
                    [
                        {
                            "pitch": 82, 
                            "t0": 25279, 
                            "v": 116, 
                            "dur": 34, 
                            "type": "note", 
                            "channel": 12
                        }
                    ]
                ], 
                [
                    25323, 
                    [
                        {
                            "pitch": 75, 
                            "t0": 25323, 
                            "v": 88, 
                            "dur": 33, 
                            "type": "note", 
                            "channel": 12
                        }
                    ]
                ], 
                [
                    25325, 
                    [
                        {
                            "pitch": 82, 
                            "t0": 25325, 
                            "v": 100, 
                            "dur": 32, 
                            "type": "note", 
                            "channel": 12
                        }, 
                        {
                            "pitch": 78, 
                            "t0": 25325, 
                            "v": 84, 
                            "dur": 34, 
                            "type": "note", 
                            "channel": 12
                        }
                    ]
                ], 
                [
                    25457, 
                    [
                        {
                            "pitch": 82, 
                            "t0": 25457, 
                            "v": 116, 
                            "dur": 34, 
                            "type": "note", 
                            "channel": 12
                        }
                    ]
                ], 
                [
                    25458, 
                    [
                        {
                            "pitch": 75, 
                            "t0": 25458, 
                            "v": 116, 
                            "dur": 25, 
                            "type": "note", 
                            "channel": 12
                        }, 
                        {
                            "pitch": 78, 
                            "t0": 25458, 
                            "v": 120, 
                            "dur": 27, 
                            "type": "note", 
                            "channel": 12
                        }
                    ]
                ], 
                [
                    26064, 
                    [
                        {
                            "pitch": 75, 
                            "t0": 26064, 
                            "v": 120, 
                            "dur": 26, 
                            "type": "note", 
                            "channel": 12
                        }, 
                        {
                            "pitch": 78, 
                            "t0": 26064, 
                            "v": 116, 
                            "dur": 28, 
                            "type": "note", 
                            "channel": 12
                        }, 
                        {
                            "pitch": 82, 
                            "t0": 26064, 
                            "v": 124, 
                            "dur": 31, 
                            "type": "note", 
                            "channel": 12
                        }
                    ]
                ], 
                [
                    26421, 
                    [
                        {
                            "pitch": 75, 
                            "t0": 26421, 
                            "v": 120, 
                            "dur": 28, 
                            "type": "note", 
                            "channel": 12
                        }
                    ]
                ], 
                [
                    26422, 
                    [
                        {
                            "pitch": 78, 
                            "t0": 26422, 
                            "v": 116, 
                            "dur": 32, 
                            "type": "note", 
                            "channel": 12
                        }
                    ]
                ], 
                [
                    26423, 
                    [
                        {
                            "pitch": 82, 
                            "t0": 26423, 
                            "v": 116, 
                            "dur": 36, 
                            "type": "note", 
                            "channel": 12
                        }
                    ]
                ], 
                [
                    26651, 
                    [
                        {
                            "pitch": 82, 
                            "t0": 26651, 
                            "v": 116, 
                            "dur": 35, 
                            "type": "note", 
                            "channel": 12
                        }, 
                        {
                            "pitch": 78, 
                            "t0": 26651, 
                            "v": 116, 
                            "dur": 38, 
                            "type": "note", 
                            "channel": 12
                        }
                    ]
                ], 
                [
                    26652, 
                    [
                        {
                            "pitch": 75, 
                            "t0": 26652, 
                            "v": 116, 
                            "dur": 28, 
                            "type": "note", 
                            "channel": 12
                        }
                    ]
                ], 
                [
                    27138, 
                    [
                        {
                            "pitch": 75, 
                            "t0": 27138, 
                            "v": 104, 
                            "dur": 22, 
                            "type": "note", 
                            "channel": 12
                        }
                    ]
                ], 
                [
                    27139, 
                    [
                        {
                            "pitch": 78, 
                            "t0": 27139, 
                            "v": 104, 
                            "dur": 18, 
                            "type": "note", 
                            "channel": 12
                        }
                    ]
                ], 
                [
                    27141, 
                    [
                        {
                            "pitch": 82, 
                            "t0": 27141, 
                            "v": 104, 
                            "dur": 18, 
                            "type": "note", 
                            "channel": 12
                        }
                    ]
                ], 
                [
                    27196, 
                    [
                        {
                            "pitch": 75, 
                            "t0": 27196, 
                            "v": 108, 
                            "dur": 31, 
                            "type": "note", 
                            "channel": 12
                        }
                    ]
                ], 
                [
                    27198, 
                    [
                        {
                            "pitch": 78, 
                            "t0": 27198, 
                            "v": 108, 
                            "dur": 23, 
                            "type": "note", 
                            "channel": 12
                        }, 
                        {
                            "pitch": 82, 
                            "t0": 27198, 
                            "v": 108, 
                            "dur": 25, 
                            "type": "note", 
                            "channel": 12
                        }
                    ]
                ], 
                [
                    27247, 
                    [
                        {
                            "pitch": 78, 
                            "t0": 27247, 
                            "v": 96, 
                            "dur": 34, 
                            "type": "note", 
                            "channel": 12
                        }
                    ]
                ], 
                [
                    27248, 
                    [
                        {
                            "pitch": 75, 
                            "t0": 27248, 
                            "v": 88, 
                            "dur": 30, 
                            "type": "note", 
                            "channel": 12
                        }, 
                        {
                            "pitch": 82, 
                            "t0": 27248, 
                            "v": 104, 
                            "dur": 35, 
                            "type": "note", 
                            "channel": 12
                        }
                    ]
                ], 
                [
                    27383, 
                    [
                        {
                            "pitch": 78, 
                            "t0": 27383, 
                            "v": 124, 
                            "dur": 27, 
                            "type": "note", 
                            "channel": 12
                        }
                    ]
                ], 
                [
                    27384, 
                    [
                        {
                            "pitch": 75, 
                            "t0": 27384, 
                            "v": 120, 
                            "dur": 24, 
                            "type": "note", 
                            "channel": 12
                        }, 
                        {
                            "pitch": 82, 
                            "t0": 27384, 
                            "v": 124, 
                            "dur": 28, 
                            "type": "note", 
                            "channel": 12
                        }
                    ]
                ], 
                [
                    27976, 
                    [
                        {
                            "pitch": 78, 
                            "t0": 27976, 
                            "v": 116, 
                            "dur": 30, 
                            "type": "note", 
                            "channel": 12
                        }
                    ]
                ], 
                [
                    27977, 
                    [
                        {
                            "pitch": 75, 
                            "t0": 27977, 
                            "v": 116, 
                            "dur": 27, 
                            "type": "note", 
                            "channel": 12
                        }
                    ]
                ], 
                [
                    27978, 
                    [
                        {
                            "pitch": 82, 
                            "t0": 27978, 
                            "v": 120, 
                            "dur": 32, 
                            "type": "note", 
                            "channel": 12
                        }
                    ]
                ], 
                [
                    27988, 
                    [
                        {
                            "pitch": 80, 
                            "t0": 27988, 
                            "v": 84, 
                            "dur": 11, 
                            "type": "note", 
                            "channel": 12
                        }
                    ]
                ], 
                [
                    28338, 
                    [
                        {
                            "pitch": 78, 
                            "t0": 28338, 
                            "v": 116, 
                            "dur": 33, 
                            "type": "note", 
                            "channel": 12
                        }
                    ]
                ], 
                [
                    28339, 
                    [
                        {
                            "pitch": 82, 
                            "t0": 28339, 
                            "v": 112, 
                            "dur": 32, 
                            "type": "note", 
                            "channel": 12
                        }
                    ]
                ], 
                [
                    28340, 
                    [
                        {
                            "pitch": 75, 
                            "t0": 28340, 
                            "v": 112, 
                            "dur": 27, 
                            "type": "note", 
                            "channel": 12
                        }
                    ]
                ], 
                [
                    28574, 
                    [
                        {
                            "pitch": 78, 
                            "t0": 28574, 
                            "v": 116, 
                            "dur": 32, 
                            "type": "note", 
                            "channel": 12
                        }, 
                        {
                            "pitch": 82, 
                            "t0": 28574, 
                            "v": 120, 
                            "dur": 34, 
                            "type": "note", 
                            "channel": 12
                        }
                    ]
                ], 
                [
                    28575, 
                    [
                        {
                            "pitch": 75, 
                            "t0": 28575, 
                            "v": 116, 
                            "dur": 29, 
                            "type": "note", 
                            "channel": 12
                        }
                    ]
                ], 
                [
                    29046, 
                    [
                        {
                            "pitch": 75, 
                            "t0": 29046, 
                            "v": 104, 
                            "dur": 22, 
                            "type": "note", 
                            "channel": 12
                        }
                    ]
                ], 
                [
                    29047, 
                    [
                        {
                            "pitch": 78, 
                            "t0": 29047, 
                            "v": 104, 
                            "dur": 18, 
                            "type": "note", 
                            "channel": 12
                        }
                    ]
                ], 
                [
                    29049, 
                    [
                        {
                            "pitch": 82, 
                            "t0": 29049, 
                            "v": 104, 
                            "dur": 18, 
                            "type": "note", 
                            "channel": 12
                        }
                    ]
                ], 
                [
                    29104, 
                    [
                        {
                            "pitch": 75, 
                            "t0": 29104, 
                            "v": 108, 
                            "dur": 31, 
                            "type": "note", 
                            "channel": 12
                        }
                    ]
                ], 
                [
                    29106, 
                    [
                        {
                            "pitch": 78, 
                            "t0": 29106, 
                            "v": 108, 
                            "dur": 23, 
                            "type": "note", 
                            "channel": 12
                        }, 
                        {
                            "pitch": 82, 
                            "t0": 29106, 
                            "v": 108, 
                            "dur": 25, 
                            "type": "note", 
                            "channel": 12
                        }
                    ]
                ], 
                [
                    29155, 
                    [
                        {
                            "pitch": 78, 
                            "t0": 29155, 
                            "v": 96, 
                            "dur": 34, 
                            "type": "note", 
                            "channel": 12
                        }
                    ]
                ], 
                [
                    29156, 
                    [
                        {
                            "pitch": 75, 
                            "t0": 29156, 
                            "v": 88, 
                            "dur": 30, 
                            "type": "note", 
                            "channel": 12
                        }, 
                        {
                            "pitch": 82, 
                            "t0": 29156, 
                            "v": 104, 
                            "dur": 35, 
                            "type": "note", 
                            "channel": 12
                        }
                    ]
                ], 
                [
                    29291, 
                    [
                        {
                            "pitch": 78, 
                            "t0": 29291, 
                            "v": 124, 
                            "dur": 27, 
                            "type": "note", 
                            "channel": 12
                        }
                    ]
                ], 
                [
                    29292, 
                    [
                        {
                            "pitch": 75, 
                            "t0": 29292, 
                            "v": 120, 
                            "dur": 24, 
                            "type": "note", 
                            "channel": 12
                        }, 
                        {
                            "pitch": 82, 
                            "t0": 29292, 
                            "v": 124, 
                            "dur": 28, 
                            "type": "note", 
                            "channel": 12
                        }
                    ]
                ], 
                [
                    29901, 
                    [
                        {
                            "pitch": 78, 
                            "t0": 29901, 
                            "v": 116, 
                            "dur": 29, 
                            "type": "note", 
                            "channel": 12
                        }
                    ]
                ], 
                [
                    29902, 
                    [
                        {
                            "pitch": 75, 
                            "t0": 29902, 
                            "v": 112, 
                            "dur": 29, 
                            "type": "note", 
                            "channel": 12
                        }
                    ]
                ], 
                [
                    29903, 
                    [
                        {
                            "pitch": 82, 
                            "t0": 29903, 
                            "v": 124, 
                            "dur": 26, 
                            "type": "note", 
                            "channel": 12
                        }
                    ]
                ], 
                [
                    30252, 
                    [
                        {
                            "pitch": 78, 
                            "t0": 30252, 
                            "v": 112, 
                            "dur": 29, 
                            "type": "note", 
                            "channel": 12
                        }, 
                        {
                            "pitch": 75, 
                            "t0": 30252, 
                            "v": 112, 
                            "dur": 30, 
                            "type": "note", 
                            "channel": 12
                        }, 
                        {
                            "pitch": 82, 
                            "t0": 30252, 
                            "v": 120, 
                            "dur": 33, 
                            "type": "note", 
                            "channel": 12
                        }
                    ]
                ], 
                [
                    30491, 
                    [
                        {
                            "pitch": 75, 
                            "t0": 30491, 
                            "v": 120, 
                            "dur": 28, 
                            "type": "note", 
                            "channel": 12
                        }
                    ]
                ], 
                [
                    30492, 
                    [
                        {
                            "pitch": 78, 
                            "t0": 30492, 
                            "v": 120, 
                            "dur": 25, 
                            "type": "note", 
                            "channel": 12
                        }, 
                        {
                            "pitch": 82, 
                            "t0": 30492, 
                            "v": 120, 
                            "dur": 28, 
                            "type": "note", 
                            "channel": 12
                        }
                    ]
                ], 
                [
                    30975, 
                    [
                        {
                            "pitch": 78, 
                            "t0": 30975, 
                            "v": 108, 
                            "dur": 21, 
                            "type": "note", 
                            "channel": 12
                        }
                    ]
                ], 
                [
                    30976, 
                    [
                        {
                            "pitch": 75, 
                            "t0": 30976, 
                            "v": 96, 
                            "dur": 18, 
                            "type": "note", 
                            "channel": 12
                        }, 
                        {
                            "pitch": 82, 
                            "t0": 30976, 
                            "v": 112, 
                            "dur": 22, 
                            "type": "note", 
                            "channel": 12
                        }
                    ]
                ], 
                [
                    31031, 
                    [
                        {
                            "pitch": 78, 
                            "t0": 31031, 
                            "v": 112, 
                            "dur": 29, 
                            "type": "note", 
                            "channel": 12
                        }
                    ]
                ], 
                [
                    31032, 
                    [
                        {
                            "pitch": 75, 
                            "t0": 31032, 
                            "v": 112, 
                            "dur": 28, 
                            "type": "note", 
                            "channel": 12
                        }
                    ]
                ], 
                [
                    31034, 
                    [
                        {
                            "pitch": 82, 
                            "t0": 31034, 
                            "v": 108, 
                            "dur": 31, 
                            "type": "note", 
                            "channel": 12
                        }
                    ]
                ], 
                [
                    31081, 
                    [
                        {
                            "pitch": 82, 
                            "t0": 31081, 
                            "v": 72, 
                            "dur": 37, 
                            "type": "note", 
                            "channel": 12
                        }
                    ]
                ], 
                [
                    31082, 
                    [
                        {
                            "pitch": 78, 
                            "t0": 31082, 
                            "v": 100, 
                            "dur": 33, 
                            "type": "note", 
                            "channel": 12
                        }
                    ]
                ], 
                [
                    31083, 
                    [
                        {
                            "pitch": 75, 
                            "t0": 31083, 
                            "v": 100, 
                            "dur": 28, 
                            "type": "note", 
                            "channel": 12
                        }
                    ]
                ], 
                [
                    31214, 
                    [
                        {
                            "pitch": 78, 
                            "t0": 31214, 
                            "v": 120, 
                            "dur": 33, 
                            "type": "note", 
                            "channel": 12
                        }, 
                        {
                            "pitch": 82, 
                            "t0": 31214, 
                            "v": 120, 
                            "dur": 39, 
                            "type": "note", 
                            "channel": 12
                        }
                    ]
                ], 
                [
                    31216, 
                    [
                        {
                            "pitch": 75, 
                            "t0": 31216, 
                            "v": 120, 
                            "dur": 25, 
                            "type": "note", 
                            "channel": 12
                        }
                    ]
                ], 
                [
                    31822, 
                    [
                        {
                            "pitch": 78, 
                            "t0": 31822, 
                            "v": 116, 
                            "dur": 28, 
                            "type": "note", 
                            "channel": 12
                        }
                    ]
                ], 
                [
                    31823, 
                    [
                        {
                            "pitch": 75, 
                            "t0": 31823, 
                            "v": 116, 
                            "dur": 23, 
                            "type": "note", 
                            "channel": 12
                        }
                    ]
                ], 
                [
                    31824, 
                    [
                        {
                            "pitch": 82, 
                            "t0": 31824, 
                            "v": 116, 
                            "dur": 27, 
                            "type": "note", 
                            "channel": 12
                        }
                    ]
                ], 
                [
                    32177, 
                    [
                        {
                            "pitch": 78, 
                            "t0": 32177, 
                            "v": 116, 
                            "dur": 33, 
                            "type": "note", 
                            "channel": 12
                        }
                    ]
                ], 
                [
                    32178, 
                    [
                        {
                            "pitch": 75, 
                            "t0": 32178, 
                            "v": 108, 
                            "dur": 31, 
                            "type": "note", 
                            "channel": 12
                        }
                    ]
                ], 
                [
                    32179, 
                    [
                        {
                            "pitch": 82, 
                            "t0": 32179, 
                            "v": 112, 
                            "dur": 32, 
                            "type": "note", 
                            "channel": 12
                        }
                    ]
                ], 
                [
                    32406, 
                    [
                        {
                            "pitch": 78, 
                            "t0": 32406, 
                            "v": 116, 
                            "dur": 32, 
                            "type": "note", 
                            "channel": 12
                        }
                    ]
                ], 
                [
                    32407, 
                    [
                        {
                            "pitch": 82, 
                            "t0": 32407, 
                            "v": 108, 
                            "dur": 32, 
                            "type": "note", 
                            "channel": 12
                        }
                    ]
                ], 
                [
                    32408, 
                    [
                        {
                            "pitch": 75, 
                            "t0": 32408, 
                            "v": 112, 
                            "dur": 28, 
                            "type": "note", 
                            "channel": 12
                        }
                    ]
                ], 
                [
                    32900, 
                    [
                        {
                            "pitch": 75, 
                            "t0": 32900, 
                            "v": 116, 
                            "dur": 23, 
                            "type": "note", 
                            "channel": 12
                        }
                    ]
                ], 
                [
                    32902, 
                    [
                        {
                            "pitch": 78, 
                            "t0": 32902, 
                            "v": 116, 
                            "dur": 19, 
                            "type": "note", 
                            "channel": 12
                        }, 
                        {
                            "pitch": 82, 
                            "t0": 32902, 
                            "v": 116, 
                            "dur": 24, 
                            "type": "note", 
                            "channel": 12
                        }
                    ]
                ], 
                [
                    32960, 
                    [
                        {
                            "pitch": 75, 
                            "t0": 32960, 
                            "v": 108, 
                            "dur": 32, 
                            "type": "note", 
                            "channel": 12
                        }
                    ]
                ], 
                [
                    32961, 
                    [
                        {
                            "pitch": 78, 
                            "t0": 32961, 
                            "v": 108, 
                            "dur": 28, 
                            "type": "note", 
                            "channel": 12
                        }
                    ]
                ], 
                [
                    32964, 
                    [
                        {
                            "pitch": 82, 
                            "t0": 32964, 
                            "v": 112, 
                            "dur": 27, 
                            "type": "note", 
                            "channel": 12
                        }
                    ]
                ], 
                [
                    33005, 
                    [
                        {
                            "pitch": 78, 
                            "t0": 33005, 
                            "v": 47, 
                            "dur": 38, 
                            "type": "note", 
                            "channel": 12
                        }
                    ]
                ], 
                [
                    33007, 
                    [
                        {
                            "pitch": 75, 
                            "t0": 33007, 
                            "v": 88, 
                            "dur": 27, 
                            "type": "note", 
                            "channel": 12
                        }
                    ]
                ], 
                [
                    33009, 
                    [
                        {
                            "pitch": 82, 
                            "t0": 33009, 
                            "v": 64, 
                            "dur": 34, 
                            "type": "note", 
                            "channel": 12
                        }
                    ]
                ], 
                [
                    33138, 
                    [
                        {
                            "pitch": 82, 
                            "t0": 33138, 
                            "v": 120, 
                            "dur": 33, 
                            "type": "note", 
                            "channel": 12
                        }
                    ]
                ], 
                [
                    33139, 
                    [
                        {
                            "pitch": 78, 
                            "t0": 33139, 
                            "v": 120, 
                            "dur": 26, 
                            "type": "note", 
                            "channel": 12
                        }
                    ]
                ], 
                [
                    33140, 
                    [
                        {
                            "pitch": 75, 
                            "t0": 33140, 
                            "v": 120, 
                            "dur": 24, 
                            "type": "note", 
                            "channel": 12
                        }
                    ]
                ], 
                [
                    33742, 
                    [
                        {
                            "pitch": 78, 
                            "t0": 33742, 
                            "v": 120, 
                            "dur": 28, 
                            "type": "note", 
                            "channel": 12
                        }, 
                        {
                            "pitch": 82, 
                            "t0": 33742, 
                            "v": 124, 
                            "dur": 31, 
                            "type": "note", 
                            "channel": 12
                        }
                    ]
                ], 
                [
                    33743, 
                    [
                        {
                            "pitch": 75, 
                            "t0": 33743, 
                            "v": 120, 
                            "dur": 25, 
                            "type": "note", 
                            "channel": 12
                        }
                    ]
                ], 
                [
                    34078, 
                    [
                        {
                            "pitch": 78, 
                            "t0": 34078, 
                            "v": 104, 
                            "dur": 39, 
                            "type": "note", 
                            "channel": 12
                        }, 
                        {
                            "pitch": 82, 
                            "t0": 34078, 
                            "v": 116, 
                            "dur": 42, 
                            "type": "note", 
                            "channel": 12
                        }
                    ]
                ], 
                [
                    34079, 
                    [
                        {
                            "pitch": 75, 
                            "t0": 34079, 
                            "v": 116, 
                            "dur": 30, 
                            "type": "note", 
                            "channel": 12
                        }
                    ]
                ], 
                [
                    34319, 
                    [
                        {
                            "pitch": 75, 
                            "t0": 34319, 
                            "v": 112, 
                            "dur": 36, 
                            "type": "note", 
                            "channel": 12
                        }
                    ]
                ], 
                [
                    34320, 
                    [
                        {
                            "pitch": 78, 
                            "t0": 34320, 
                            "v": 112, 
                            "dur": 35, 
                            "type": "note", 
                            "channel": 12
                        }
                    ]
                ], 
                [
                    34321, 
                    [
                        {
                            "pitch": 82, 
                            "t0": 34321, 
                            "v": 116, 
                            "dur": 36, 
                            "type": "note", 
                            "channel": 12
                        }
                    ]
                ], 
                [
                    34835, 
                    [
                        {
                            "pitch": 75, 
                            "t0": 34835, 
                            "v": 112, 
                            "dur": 25, 
                            "type": "note", 
                            "channel": 12
                        }
                    ]
                ], 
                [
                    34836, 
                    [
                        {
                            "pitch": 78, 
                            "t0": 34836, 
                            "v": 112, 
                            "dur": 17, 
                            "type": "note", 
                            "channel": 12
                        }, 
                        {
                            "pitch": 82, 
                            "t0": 34836, 
                            "v": 116, 
                            "dur": 24, 
                            "type": "note", 
                            "channel": 12
                        }
                    ]
                ], 
                [
                    34893, 
                    [
                        {
                            "pitch": 78, 
                            "t0": 34893, 
                            "v": 112, 
                            "dur": 27, 
                            "type": "note", 
                            "channel": 12
                        }, 
                        {
                            "pitch": 75, 
                            "t0": 34893, 
                            "v": 112, 
                            "dur": 28, 
                            "type": "note", 
                            "channel": 12
                        }
                    ]
                ], 
                [
                    34896, 
                    [
                        {
                            "pitch": 82, 
                            "t0": 34896, 
                            "v": 112, 
                            "dur": 24, 
                            "type": "note", 
                            "channel": 12
                        }
                    ]
                ], 
                [
                    34944, 
                    [
                        {
                            "pitch": 78, 
                            "t0": 34944, 
                            "v": 96, 
                            "dur": 35, 
                            "type": "note", 
                            "channel": 12
                        }
                    ]
                ], 
                [
                    34945, 
                    [
                        {
                            "pitch": 75, 
                            "t0": 34945, 
                            "v": 96, 
                            "dur": 35, 
                            "type": "note", 
                            "channel": 12
                        }
                    ]
                ], 
                [
                    34951, 
                    [
                        {
                            "pitch": 82, 
                            "t0": 34951, 
                            "v": 84, 
                            "dur": 29, 
                            "type": "note", 
                            "channel": 12
                        }
                    ]
                ], 
                [
                    35069, 
                    [
                        {
                            "pitch": 75, 
                            "t0": 35069, 
                            "v": 120, 
                            "dur": 25, 
                            "type": "note", 
                            "channel": 12
                        }, 
                        {
                            "pitch": 78, 
                            "t0": 35069, 
                            "v": 116, 
                            "dur": 26, 
                            "type": "note", 
                            "channel": 12
                        }, 
                        {
                            "pitch": 82, 
                            "t0": 35069, 
                            "v": 120, 
                            "dur": 32, 
                            "type": "note", 
                            "channel": 12
                        }
                    ]
                ], 
                [
                    35666, 
                    [
                        {
                            "pitch": 78, 
                            "t0": 35666, 
                            "v": 116, 
                            "dur": 29, 
                            "type": "note", 
                            "channel": 12
                        }, 
                        {
                            "pitch": 82, 
                            "t0": 35666, 
                            "v": 116, 
                            "dur": 34, 
                            "type": "note", 
                            "channel": 12
                        }
                    ]
                ], 
                [
                    35667, 
                    [
                        {
                            "pitch": 75, 
                            "t0": 35667, 
                            "v": 120, 
                            "dur": 27, 
                            "type": "note", 
                            "channel": 12
                        }
                    ]
                ], 
                [
                    36022, 
                    [
                        {
                            "pitch": 75, 
                            "t0": 36022, 
                            "v": 116, 
                            "dur": 39, 
                            "type": "note", 
                            "channel": 12
                        }
                    ]
                ], 
                [
                    36023, 
                    [
                        {
                            "pitch": 82, 
                            "t0": 36023, 
                            "v": 112, 
                            "dur": 45, 
                            "type": "note", 
                            "channel": 12
                        }
                    ]
                ], 
                [
                    36024, 
                    [
                        {
                            "pitch": 78, 
                            "t0": 36024, 
                            "v": 116, 
                            "dur": 43, 
                            "type": "note", 
                            "channel": 12
                        }
                    ]
                ], 
                [
                    36258, 
                    [
                        {
                            "pitch": 78, 
                            "t0": 36258, 
                            "v": 116, 
                            "dur": 34, 
                            "type": "note", 
                            "channel": 12
                        }
                    ]
                ], 
                [
                    36259, 
                    [
                        {
                            "pitch": 82, 
                            "t0": 36259, 
                            "v": 120, 
                            "dur": 33, 
                            "type": "note", 
                            "channel": 12
                        }
                    ]
                ], 
                [
                    36260, 
                    [
                        {
                            "pitch": 75, 
                            "t0": 36260, 
                            "v": 116, 
                            "dur": 29, 
                            "type": "note", 
                            "channel": 12
                        }
                    ]
                ], 
                [
                    36737, 
                    [
                        {
                            "pitch": 75, 
                            "t0": 36737, 
                            "v": 116, 
                            "dur": 19, 
                            "type": "note", 
                            "channel": 12
                        }
                    ]
                ], 
                [
                    36738, 
                    [
                        {
                            "pitch": 78, 
                            "t0": 36738, 
                            "v": 108, 
                            "dur": 16, 
                            "type": "note", 
                            "channel": 12
                        }, 
                        {
                            "pitch": 82, 
                            "t0": 36738, 
                            "v": 116, 
                            "dur": 23, 
                            "type": "note", 
                            "channel": 12
                        }
                    ]
                ], 
                [
                    36792, 
                    [
                        {
                            "pitch": 75, 
                            "t0": 36792, 
                            "v": 116, 
                            "dur": 28, 
                            "type": "note", 
                            "channel": 12
                        }
                    ]
                ], 
                [
                    36794, 
                    [
                        {
                            "pitch": 78, 
                            "t0": 36794, 
                            "v": 112, 
                            "dur": 23, 
                            "type": "note", 
                            "channel": 12
                        }
                    ]
                ], 
                [
                    36795, 
                    [
                        {
                            "pitch": 82, 
                            "t0": 36795, 
                            "v": 116, 
                            "dur": 25, 
                            "type": "note", 
                            "channel": 12
                        }
                    ]
                ], 
                [
                    36842, 
                    [
                        {
                            "pitch": 78, 
                            "t0": 36842, 
                            "v": 104, 
                            "dur": 34, 
                            "type": "note", 
                            "channel": 12
                        }
                    ]
                ], 
                [
                    36844, 
                    [
                        {
                            "pitch": 75, 
                            "t0": 36844, 
                            "v": 112, 
                            "dur": 28, 
                            "type": "note", 
                            "channel": 12
                        }
                    ]
                ], 
                [
                    36845, 
                    [
                        {
                            "pitch": 82, 
                            "t0": 36845, 
                            "v": 104, 
                            "dur": 26, 
                            "type": "note", 
                            "channel": 12
                        }
                    ]
                ], 
                [
                    36969, 
                    [
                        {
                            "pitch": 82, 
                            "t0": 36969, 
                            "v": 120, 
                            "dur": 32, 
                            "type": "note", 
                            "channel": 12
                        }
                    ]
                ], 
                [
                    36970, 
                    [
                        {
                            "pitch": 78, 
                            "t0": 36970, 
                            "v": 120, 
                            "dur": 26, 
                            "type": "note", 
                            "channel": 12
                        }
                    ]
                ], 
                [
                    36972, 
                    [
                        {
                            "pitch": 75, 
                            "t0": 36972, 
                            "v": 124, 
                            "dur": 22, 
                            "type": "note", 
                            "channel": 12
                        }
                    ]
                ], 
                [
                    37580, 
                    [
                        {
                            "pitch": 78, 
                            "t0": 37580, 
                            "v": 116, 
                            "dur": 27, 
                            "type": "note", 
                            "channel": 12
                        }
                    ]
                ], 
                [
                    37581, 
                    [
                        {
                            "pitch": 75, 
                            "t0": 37581, 
                            "v": 120, 
                            "dur": 24, 
                            "type": "note", 
                            "channel": 12
                        }, 
                        {
                            "pitch": 82, 
                            "t0": 37581, 
                            "v": 120, 
                            "dur": 29, 
                            "type": "note", 
                            "channel": 12
                        }
                    ]
                ], 
                [
                    37921, 
                    [
                        {
                            "pitch": 78, 
                            "t0": 37921, 
                            "v": 116, 
                            "dur": 34, 
                            "type": "note", 
                            "channel": 12
                        }
                    ]
                ], 
                [
                    37922, 
                    [
                        {
                            "pitch": 75, 
                            "t0": 37922, 
                            "v": 120, 
                            "dur": 31, 
                            "type": "note", 
                            "channel": 12
                        }, 
                        {
                            "pitch": 82, 
                            "t0": 37922, 
                            "v": 120, 
                            "dur": 34, 
                            "type": "note", 
                            "channel": 12
                        }
                    ]
                ], 
                [
                    38157, 
                    [
                        {
                            "pitch": 78, 
                            "t0": 38157, 
                            "v": 120, 
                            "dur": 35, 
                            "type": "note", 
                            "channel": 12
                        }, 
                        {
                            "pitch": 82, 
                            "t0": 38157, 
                            "v": 116, 
                            "dur": 39, 
                            "type": "note", 
                            "channel": 12
                        }
                    ]
                ], 
                [
                    38158, 
                    [
                        {
                            "pitch": 75, 
                            "t0": 38158, 
                            "v": 120, 
                            "dur": 29, 
                            "type": "note", 
                            "channel": 12
                        }
                    ]
                ], 
                [
                    38655, 
                    [
                        {
                            "pitch": 82, 
                            "t0": 38655, 
                            "v": 112, 
                            "dur": 25, 
                            "type": "note", 
                            "channel": 12
                        }
                    ]
                ], 
                [
                    38656, 
                    [
                        {
                            "pitch": 78, 
                            "t0": 38656, 
                            "v": 112, 
                            "dur": 21, 
                            "type": "note", 
                            "channel": 12
                        }
                    ]
                ], 
                [
                    38659, 
                    [
                        {
                            "pitch": 75, 
                            "t0": 38659, 
                            "v": 104, 
                            "dur": 14, 
                            "type": "note", 
                            "channel": 12
                        }
                    ]
                ], 
                [
                    38713, 
                    [
                        {
                            "pitch": 75, 
                            "t0": 38713, 
                            "v": 116, 
                            "dur": 27, 
                            "type": "note", 
                            "channel": 12
                        }
                    ]
                ], 
                [
                    38714, 
                    [
                        {
                            "pitch": 78, 
                            "t0": 38714, 
                            "v": 112, 
                            "dur": 23, 
                            "type": "note", 
                            "channel": 12
                        }
                    ]
                ], 
                [
                    38715, 
                    [
                        {
                            "pitch": 82, 
                            "t0": 38715, 
                            "v": 100, 
                            "dur": 23, 
                            "type": "note", 
                            "channel": 12
                        }
                    ]
                ], 
                [
                    38763, 
                    [
                        {
                            "pitch": 75, 
                            "t0": 38763, 
                            "v": 104, 
                            "dur": 33, 
                            "type": "note", 
                            "channel": 12
                        }
                    ]
                ], 
                [
                    38764, 
                    [
                        {
                            "pitch": 78, 
                            "t0": 38764, 
                            "v": 100, 
                            "dur": 31, 
                            "type": "note", 
                            "channel": 12
                        }
                    ]
                ], 
                [
                    38769, 
                    [
                        {
                            "pitch": 82, 
                            "t0": 38769, 
                            "v": 100, 
                            "dur": 29, 
                            "type": "note", 
                            "channel": 12
                        }
                    ]
                ], 
                [
                    38889, 
                    [
                        {
                            "pitch": 82, 
                            "t0": 38889, 
                            "v": 124, 
                            "dur": 27, 
                            "type": "note", 
                            "channel": 12
                        }
                    ]
                ], 
                [
                    38890, 
                    [
                        {
                            "pitch": 78, 
                            "t0": 38890, 
                            "v": 120, 
                            "dur": 25, 
                            "type": "note", 
                            "channel": 12
                        }
                    ]
                ], 
                [
                    38891, 
                    [
                        {
                            "pitch": 75, 
                            "t0": 38891, 
                            "v": 120, 
                            "dur": 21, 
                            "type": "note", 
                            "channel": 12
                        }
                    ]
                ], 
                [
                    39504, 
                    [
                        {
                            "pitch": 75, 
                            "t0": 39504, 
                            "v": 120, 
                            "dur": 26, 
                            "type": "note", 
                            "channel": 12
                        }, 
                        {
                            "pitch": 78, 
                            "t0": 39504, 
                            "v": 116, 
                            "dur": 27, 
                            "type": "note", 
                            "channel": 12
                        }, 
                        {
                            "pitch": 82, 
                            "t0": 39504, 
                            "v": 120, 
                            "dur": 28, 
                            "type": "note", 
                            "channel": 12
                        }
                    ]
                ], 
                [
                    39839, 
                    [
                        {
                            "pitch": 78, 
                            "t0": 39839, 
                            "v": 116, 
                            "dur": 31, 
                            "type": "note", 
                            "channel": 12
                        }, 
                        {
                            "pitch": 82, 
                            "t0": 39839, 
                            "v": 120, 
                            "dur": 32, 
                            "type": "note", 
                            "channel": 12
                        }
                    ]
                ], 
                [
                    39840, 
                    [
                        {
                            "pitch": 75, 
                            "t0": 39840, 
                            "v": 116, 
                            "dur": 26, 
                            "type": "note", 
                            "channel": 12
                        }
                    ]
                ], 
                [
                    40082, 
                    [
                        {
                            "pitch": 82, 
                            "t0": 40082, 
                            "v": 120, 
                            "dur": 32, 
                            "type": "note", 
                            "channel": 12
                        }
                    ]
                ], 
                [
                    40083, 
                    [
                        {
                            "pitch": 75, 
                            "t0": 40083, 
                            "v": 116, 
                            "dur": 27, 
                            "type": "note", 
                            "channel": 12
                        }, 
                        {
                            "pitch": 78, 
                            "t0": 40083, 
                            "v": 116, 
                            "dur": 28, 
                            "type": "note", 
                            "channel": 12
                        }
                    ]
                ], 
                [
                    40574, 
                    [
                        {
                            "pitch": 82, 
                            "t0": 40574, 
                            "v": 112, 
                            "dur": 22, 
                            "type": "note", 
                            "channel": 12
                        }
                    ]
                ], 
                [
                    40575, 
                    [
                        {
                            "pitch": 78, 
                            "t0": 40575, 
                            "v": 108, 
                            "dur": 21, 
                            "type": "note", 
                            "channel": 12
                        }, 
                        {
                            "pitch": 75, 
                            "t0": 40575, 
                            "v": 108, 
                            "dur": 24, 
                            "type": "note", 
                            "channel": 12
                        }
                    ]
                ], 
                [
                    40629, 
                    [
                        {
                            "pitch": 75, 
                            "t0": 40629, 
                            "v": 104, 
                            "dur": 34, 
                            "type": "note", 
                            "channel": 12
                        }
                    ]
                ], 
                [
                    40630, 
                    [
                        {
                            "pitch": 78, 
                            "t0": 40630, 
                            "v": 112, 
                            "dur": 29, 
                            "type": "note", 
                            "channel": 12
                        }
                    ]
                ], 
                [
                    40632, 
                    [
                        {
                            "pitch": 82, 
                            "t0": 40632, 
                            "v": 112, 
                            "dur": 30, 
                            "type": "note", 
                            "channel": 12
                        }
                    ]
                ], 
                [
                    40683, 
                    [
                        {
                            "pitch": 78, 
                            "t0": 40683, 
                            "v": 100, 
                            "dur": 33, 
                            "type": "note", 
                            "channel": 12
                        }
                    ]
                ], 
                [
                    40686, 
                    [
                        {
                            "pitch": 82, 
                            "t0": 40686, 
                            "v": 104, 
                            "dur": 30, 
                            "type": "note", 
                            "channel": 12
                        }
                    ]
                ], 
                [
                    40687, 
                    [
                        {
                            "pitch": 75, 
                            "t0": 40687, 
                            "v": 76, 
                            "dur": 25, 
                            "type": "note", 
                            "channel": 12
                        }
                    ]
                ], 
                [
                    40812, 
                    [
                        {
                            "pitch": 75, 
                            "t0": 40812, 
                            "v": 116, 
                            "dur": 26, 
                            "type": "note", 
                            "channel": 12
                        }, 
                        {
                            "pitch": 78, 
                            "t0": 40812, 
                            "v": 120, 
                            "dur": 27, 
                            "type": "note", 
                            "channel": 12
                        }
                    ]
                ], 
                [
                    40813, 
                    [
                        {
                            "pitch": 82, 
                            "t0": 40813, 
                            "v": 124, 
                            "dur": 27, 
                            "type": "note", 
                            "channel": 12
                        }
                    ]
                ], 
                [
                    41408, 
                    [
                        {
                            "pitch": 78, 
                            "t0": 41408, 
                            "v": 112, 
                            "dur": 35, 
                            "type": "note", 
                            "channel": 12
                        }
                    ]
                ], 
                [
                    41410, 
                    [
                        {
                            "pitch": 75, 
                            "t0": 41410, 
                            "v": 108, 
                            "dur": 31, 
                            "type": "note", 
                            "channel": 12
                        }, 
                        {
                            "pitch": 82, 
                            "t0": 41410, 
                            "v": 120, 
                            "dur": 35, 
                            "type": "note", 
                            "channel": 12
                        }
                    ]
                ], 
                [
                    41771, 
                    [
                        {
                            "pitch": 82, 
                            "t0": 41771, 
                            "v": 120, 
                            "dur": 36, 
                            "type": "note", 
                            "channel": 12
                        }
                    ]
                ], 
                [
                    41774, 
                    [
                        {
                            "pitch": 78, 
                            "t0": 41774, 
                            "v": 112, 
                            "dur": 30, 
                            "type": "note", 
                            "channel": 12
                        }, 
                        {
                            "pitch": 75, 
                            "t0": 41774, 
                            "v": 116, 
                            "dur": 31, 
                            "type": "note", 
                            "channel": 12
                        }
                    ]
                ], 
                [
                    42008, 
                    [
                        {
                            "pitch": 82, 
                            "t0": 42008, 
                            "v": 120, 
                            "dur": 31, 
                            "type": "note", 
                            "channel": 12
                        }
                    ]
                ], 
                [
                    42009, 
                    [
                        {
                            "pitch": 78, 
                            "t0": 42009, 
                            "v": 112, 
                            "dur": 29, 
                            "type": "note", 
                            "channel": 12
                        }, 
                        {
                            "pitch": 75, 
                            "t0": 42009, 
                            "v": 112, 
                            "dur": 31, 
                            "type": "note", 
                            "channel": 12
                        }
                    ]
                ], 
                [
                    42494, 
                    [
                        {
                            "pitch": 75, 
                            "t0": 42494, 
                            "v": 108, 
                            "dur": 23, 
                            "type": "note", 
                            "channel": 12
                        }
                    ]
                ], 
                [
                    42495, 
                    [
                        {
                            "pitch": 78, 
                            "t0": 42495, 
                            "v": 108, 
                            "dur": 21, 
                            "type": "note", 
                            "channel": 12
                        }
                    ]
                ], 
                [
                    42496, 
                    [
                        {
                            "pitch": 82, 
                            "t0": 42496, 
                            "v": 108, 
                            "dur": 22, 
                            "type": "note", 
                            "channel": 12
                        }
                    ]
                ], 
                [
                    42550, 
                    [
                        {
                            "pitch": 75, 
                            "t0": 42550, 
                            "v": 108, 
                            "dur": 34, 
                            "type": "note", 
                            "channel": 12
                        }
                    ]
                ], 
                [
                    42551, 
                    [
                        {
                            "pitch": 78, 
                            "t0": 42551, 
                            "v": 108, 
                            "dur": 25, 
                            "type": "note", 
                            "channel": 12
                        }
                    ]
                ], 
                [
                    42556, 
                    [
                        {
                            "pitch": 82, 
                            "t0": 42556, 
                            "v": 88, 
                            "dur": 21, 
                            "type": "note", 
                            "channel": 12
                        }
                    ]
                ], 
                [
                    42596, 
                    [
                        {
                            "pitch": 78, 
                            "t0": 42596, 
                            "v": 80, 
                            "dur": 35, 
                            "type": "note", 
                            "channel": 12
                        }
                    ]
                ], 
                [
                    42598, 
                    [
                        {
                            "pitch": 75, 
                            "t0": 42598, 
                            "v": 88, 
                            "dur": 31, 
                            "type": "note", 
                            "channel": 12
                        }, 
                        {
                            "pitch": 82, 
                            "t0": 42598, 
                            "v": 88, 
                            "dur": 38, 
                            "type": "note", 
                            "channel": 12
                        }
                    ]
                ], 
                [
                    42726, 
                    [
                        {
                            "pitch": 78, 
                            "t0": 42726, 
                            "v": 116, 
                            "dur": 29, 
                            "type": "note", 
                            "channel": 12
                        }
                    ]
                ], 
                [
                    42727, 
                    [
                        {
                            "pitch": 75, 
                            "t0": 42727, 
                            "v": 120, 
                            "dur": 25, 
                            "type": "note", 
                            "channel": 12
                        }, 
                        {
                            "pitch": 82, 
                            "t0": 42727, 
                            "v": 112, 
                            "dur": 27, 
                            "type": "note", 
                            "channel": 12
                        }
                    ]
                ], 
                [
                    43345, 
                    [
                        {
                            "pitch": 78, 
                            "t0": 43345, 
                            "v": 116, 
                            "dur": 31, 
                            "type": "note", 
                            "channel": 12
                        }
                    ]
                ], 
                [
                    43346, 
                    [
                        {
                            "pitch": 75, 
                            "t0": 43346, 
                            "v": 116, 
                            "dur": 26, 
                            "type": "note", 
                            "channel": 12
                        }, 
                        {
                            "pitch": 82, 
                            "t0": 43346, 
                            "v": 120, 
                            "dur": 35, 
                            "type": "note", 
                            "channel": 12
                        }
                    ]
                ], 
                [
                    43702, 
                    [
                        {
                            "pitch": 82, 
                            "t0": 43702, 
                            "v": 120, 
                            "dur": 36, 
                            "type": "note", 
                            "channel": 12
                        }
                    ]
                ], 
                [
                    43703, 
                    [
                        {
                            "pitch": 78, 
                            "t0": 43703, 
                            "v": 112, 
                            "dur": 29, 
                            "type": "note", 
                            "channel": 12
                        }
                    ]
                ], 
                [
                    43704, 
                    [
                        {
                            "pitch": 75, 
                            "t0": 43704, 
                            "v": 124, 
                            "dur": 26, 
                            "type": "note", 
                            "channel": 12
                        }
                    ]
                ], 
                [
                    43933, 
                    [
                        {
                            "pitch": 78, 
                            "t0": 43933, 
                            "v": 116, 
                            "dur": 31, 
                            "type": "note", 
                            "channel": 12
                        }, 
                        {
                            "pitch": 82, 
                            "t0": 43933, 
                            "v": 116, 
                            "dur": 34, 
                            "type": "note", 
                            "channel": 12
                        }
                    ]
                ], 
                [
                    43934, 
                    [
                        {
                            "pitch": 75, 
                            "t0": 43934, 
                            "v": 116, 
                            "dur": 27, 
                            "type": "note", 
                            "channel": 12
                        }
                    ]
                ], 
                [
                    44409, 
                    [
                        {
                            "pitch": 75, 
                            "t0": 44409, 
                            "v": 116, 
                            "dur": 27, 
                            "type": "note", 
                            "channel": 12
                        }
                    ]
                ], 
                [
                    44410, 
                    [
                        {
                            "pitch": 78, 
                            "t0": 44410, 
                            "v": 116, 
                            "dur": 22, 
                            "type": "note", 
                            "channel": 12
                        }
                    ]
                ], 
                [
                    44411, 
                    [
                        {
                            "pitch": 82, 
                            "t0": 44411, 
                            "v": 116, 
                            "dur": 26, 
                            "type": "note", 
                            "channel": 12
                        }
                    ]
                ], 
                [
                    44465, 
                    [
                        {
                            "pitch": 75, 
                            "t0": 44465, 
                            "v": 100, 
                            "dur": 32, 
                            "type": "note", 
                            "channel": 12
                        }
                    ]
                ], 
                [
                    44468, 
                    [
                        {
                            "pitch": 78, 
                            "t0": 44468, 
                            "v": 108, 
                            "dur": 28, 
                            "type": "note", 
                            "channel": 12
                        }, 
                        {
                            "pitch": 82, 
                            "t0": 44468, 
                            "v": 100, 
                            "dur": 31, 
                            "type": "note", 
                            "channel": 12
                        }
                    ]
                ], 
                [
                    44520, 
                    [
                        {
                            "pitch": 78, 
                            "t0": 44520, 
                            "v": 104, 
                            "dur": 30, 
                            "type": "note", 
                            "channel": 12
                        }
                    ]
                ], 
                [
                    44523, 
                    [
                        {
                            "pitch": 82, 
                            "t0": 44523, 
                            "v": 80, 
                            "dur": 28, 
                            "type": "note", 
                            "channel": 12
                        }
                    ]
                ], 
                [
                    44527, 
                    [
                        {
                            "pitch": 75, 
                            "t0": 44527, 
                            "v": 58, 
                            "dur": 19, 
                            "type": "note", 
                            "channel": 12
                        }
                    ]
                ], 
                [
                    44649, 
                    [
                        {
                            "pitch": 82, 
                            "t0": 44649, 
                            "v": 116, 
                            "dur": 32, 
                            "type": "note", 
                            "channel": 12
                        }
                    ]
                ], 
                [
                    44650, 
                    [
                        {
                            "pitch": 75, 
                            "t0": 44650, 
                            "v": 116, 
                            "dur": 24, 
                            "type": "note", 
                            "channel": 12
                        }, 
                        {
                            "pitch": 78, 
                            "t0": 44650, 
                            "v": 116, 
                            "dur": 25, 
                            "type": "note", 
                            "channel": 12
                        }
                    ]
                ], 
                [
                    45271, 
                    [
                        {
                            "pitch": 78, 
                            "t0": 45271, 
                            "v": 116, 
                            "dur": 36, 
                            "type": "note", 
                            "channel": 12
                        }
                    ]
                ], 
                [
                    45273, 
                    [
                        {
                            "pitch": 75, 
                            "t0": 45273, 
                            "v": 116, 
                            "dur": 28, 
                            "type": "note", 
                            "channel": 12
                        }
                    ]
                ], 
                [
                    45274, 
                    [
                        {
                            "pitch": 82, 
                            "t0": 45274, 
                            "v": 120, 
                            "dur": 36, 
                            "type": "note", 
                            "channel": 12
                        }
                    ]
                ], 
                [
                    45612, 
                    [
                        {
                            "pitch": 75, 
                            "t0": 45612, 
                            "v": 116, 
                            "dur": 47, 
                            "type": "note", 
                            "channel": 12
                        }
                    ]
                ], 
                [
                    45613, 
                    [
                        {
                            "pitch": 78, 
                            "t0": 45613, 
                            "v": 112, 
                            "dur": 50, 
                            "type": "note", 
                            "channel": 12
                        }, 
                        {
                            "pitch": 82, 
                            "t0": 45613, 
                            "v": 116, 
                            "dur": 51, 
                            "type": "note", 
                            "channel": 12
                        }
                    ]
                ], 
                [
                    45850, 
                    [
                        {
                            "pitch": 75, 
                            "t0": 45850, 
                            "v": 116, 
                            "dur": 32, 
                            "type": "note", 
                            "channel": 12
                        }, 
                        {
                            "pitch": 82, 
                            "t0": 45850, 
                            "v": 112, 
                            "dur": 38, 
                            "type": "note", 
                            "channel": 12
                        }, 
                        {
                            "pitch": 78, 
                            "t0": 45850, 
                            "v": 116, 
                            "dur": 38, 
                            "type": "note", 
                            "channel": 12
                        }
                    ]
                ], 
                [
                    46329, 
                    [
                        {
                            "pitch": 82, 
                            "t0": 46329, 
                            "v": 112, 
                            "dur": 28, 
                            "type": "note", 
                            "channel": 12
                        }
                    ]
                ], 
                [
                    46330, 
                    [
                        {
                            "pitch": 78, 
                            "t0": 46330, 
                            "v": 108, 
                            "dur": 25, 
                            "type": "note", 
                            "channel": 12
                        }, 
                        {
                            "pitch": 75, 
                            "t0": 46330, 
                            "v": 112, 
                            "dur": 27, 
                            "type": "note", 
                            "channel": 12
                        }
                    ]
                ], 
                [
                    46391, 
                    [
                        {
                            "pitch": 78, 
                            "t0": 46391, 
                            "v": 108, 
                            "dur": 31, 
                            "type": "note", 
                            "channel": 12
                        }
                    ]
                ], 
                [
                    46392, 
                    [
                        {
                            "pitch": 75, 
                            "t0": 46392, 
                            "v": 108, 
                            "dur": 30, 
                            "type": "note", 
                            "channel": 12
                        }
                    ]
                ], 
                [
                    46393, 
                    [
                        {
                            "pitch": 82, 
                            "t0": 46393, 
                            "v": 112, 
                            "dur": 30, 
                            "type": "note", 
                            "channel": 12
                        }
                    ]
                ], 
                [
                    46445, 
                    [
                        {
                            "pitch": 75, 
                            "t0": 46445, 
                            "v": 92, 
                            "dur": 34, 
                            "type": "note", 
                            "channel": 12
                        }
                    ]
                ], 
                [
                    46446, 
                    [
                        {
                            "pitch": 78, 
                            "t0": 46446, 
                            "v": 108, 
                            "dur": 35, 
                            "type": "note", 
                            "channel": 12
                        }
                    ]
                ], 
                [
                    46449, 
                    [
                        {
                            "pitch": 82, 
                            "t0": 46449, 
                            "v": 100, 
                            "dur": 35, 
                            "type": "note", 
                            "channel": 12
                        }
                    ]
                ], 
                [
                    46579, 
                    [
                        {
                            "pitch": 78, 
                            "t0": 46579, 
                            "v": 116, 
                            "dur": 31, 
                            "type": "note", 
                            "channel": 12
                        }, 
                        {
                            "pitch": 82, 
                            "t0": 46579, 
                            "v": 120, 
                            "dur": 36, 
                            "type": "note", 
                            "channel": 12
                        }
                    ]
                ], 
                [
                    46580, 
                    [
                        {
                            "pitch": 75, 
                            "t0": 46580, 
                            "v": 120, 
                            "dur": 24, 
                            "type": "note", 
                            "channel": 12
                        }
                    ]
                ], 
                [
                    47184, 
                    [
                        {
                            "pitch": 78, 
                            "t0": 47184, 
                            "v": 116, 
                            "dur": 30, 
                            "type": "note", 
                            "channel": 12
                        }
                    ]
                ], 
                [
                    47186, 
                    [
                        {
                            "pitch": 82, 
                            "t0": 47186, 
                            "v": 116, 
                            "dur": 30, 
                            "type": "note", 
                            "channel": 12
                        }
                    ]
                ], 
                [
                    47187, 
                    [
                        {
                            "pitch": 75, 
                            "t0": 47187, 
                            "v": 116, 
                            "dur": 23, 
                            "type": "note", 
                            "channel": 12
                        }
                    ]
                ], 
                [
                    47539, 
                    [
                        {
                            "pitch": 78, 
                            "t0": 47539, 
                            "v": 120, 
                            "dur": 35, 
                            "type": "note", 
                            "channel": 12
                        }, 
                        {
                            "pitch": 82, 
                            "t0": 47539, 
                            "v": 120, 
                            "dur": 35, 
                            "type": "note", 
                            "channel": 12
                        }
                    ]
                ], 
                [
                    47543, 
                    [
                        {
                            "pitch": 75, 
                            "t0": 47543, 
                            "v": 120, 
                            "dur": 24, 
                            "type": "note", 
                            "channel": 12
                        }
                    ]
                ], 
                [
                    47769, 
                    [
                        {
                            "pitch": 82, 
                            "t0": 47769, 
                            "v": 112, 
                            "dur": 34, 
                            "type": "note", 
                            "channel": 12
                        }, 
                        {
                            "pitch": 78, 
                            "t0": 47769, 
                            "v": 116, 
                            "dur": 39, 
                            "type": "note", 
                            "channel": 12
                        }
                    ]
                ], 
                [
                    47771, 
                    [
                        {
                            "pitch": 75, 
                            "t0": 47771, 
                            "v": 116, 
                            "dur": 28, 
                            "type": "note", 
                            "channel": 12
                        }
                    ]
                ], 
                [
                    48261, 
                    [
                        {
                            "pitch": 75, 
                            "t0": 48261, 
                            "v": 116, 
                            "dur": 23, 
                            "type": "note", 
                            "channel": 12
                        }
                    ]
                ], 
                [
                    48262, 
                    [
                        {
                            "pitch": 78, 
                            "t0": 48262, 
                            "v": 112, 
                            "dur": 21, 
                            "type": "note", 
                            "channel": 12
                        }
                    ]
                ], 
                [
                    48263, 
                    [
                        {
                            "pitch": 82, 
                            "t0": 48263, 
                            "v": 116, 
                            "dur": 21, 
                            "type": "note", 
                            "channel": 12
                        }
                    ]
                ], 
                [
                    48318, 
                    [
                        {
                            "pitch": 75, 
                            "t0": 48318, 
                            "v": 112, 
                            "dur": 30, 
                            "type": "note", 
                            "channel": 12
                        }
                    ]
                ], 
                [
                    48321, 
                    [
                        {
                            "pitch": 78, 
                            "t0": 48321, 
                            "v": 112, 
                            "dur": 24, 
                            "type": "note", 
                            "channel": 12
                        }
                    ]
                ], 
                [
                    48322, 
                    [
                        {
                            "pitch": 82, 
                            "t0": 48322, 
                            "v": 112, 
                            "dur": 29, 
                            "type": "note", 
                            "channel": 12
                        }
                    ]
                ], 
                [
                    48374, 
                    [
                        {
                            "pitch": 82, 
                            "t0": 48374, 
                            "v": 104, 
                            "dur": 30, 
                            "type": "note", 
                            "channel": 12
                        }
                    ]
                ], 
                [
                    48376, 
                    [
                        {
                            "pitch": 75, 
                            "t0": 48376, 
                            "v": 80, 
                            "dur": 21, 
                            "type": "note", 
                            "channel": 12
                        }, 
                        {
                            "pitch": 78, 
                            "t0": 48376, 
                            "v": 88, 
                            "dur": 25, 
                            "type": "note", 
                            "channel": 12
                        }
                    ]
                ], 
                [
                    48501, 
                    [
                        {
                            "pitch": 78, 
                            "t0": 48501, 
                            "v": 116, 
                            "dur": 27, 
                            "type": "note", 
                            "channel": 12
                        }
                    ]
                ], 
                [
                    48502, 
                    [
                        {
                            "pitch": 75, 
                            "t0": 48502, 
                            "v": 120, 
                            "dur": 21, 
                            "type": "note", 
                            "channel": 12
                        }
                    ]
                ], 
                [
                    48503, 
                    [
                        {
                            "pitch": 82, 
                            "t0": 48503, 
                            "v": 120, 
                            "dur": 25, 
                            "type": "note", 
                            "channel": 12
                        }
                    ]
                ], 
                [
                    49102, 
                    [
                        {
                            "pitch": 78, 
                            "t0": 49102, 
                            "v": 120, 
                            "dur": 29, 
                            "type": "note", 
                            "channel": 12
                        }
                    ]
                ], 
                [
                    49103, 
                    [
                        {
                            "pitch": 75, 
                            "t0": 49103, 
                            "v": 116, 
                            "dur": 24, 
                            "type": "note", 
                            "channel": 12
                        }, 
                        {
                            "pitch": 82, 
                            "t0": 49103, 
                            "v": 112, 
                            "dur": 30, 
                            "type": "note", 
                            "channel": 12
                        }
                    ]
                ], 
                [
                    49456, 
                    [
                        {
                            "pitch": 78, 
                            "t0": 49456, 
                            "v": 116, 
                            "dur": 31, 
                            "type": "note", 
                            "channel": 12
                        }
                    ]
                ], 
                [
                    49457, 
                    [
                        {
                            "pitch": 82, 
                            "t0": 49457, 
                            "v": 120, 
                            "dur": 34, 
                            "type": "note", 
                            "channel": 12
                        }
                    ]
                ], 
                [
                    49458, 
                    [
                        {
                            "pitch": 75, 
                            "t0": 49458, 
                            "v": 120, 
                            "dur": 25, 
                            "type": "note", 
                            "channel": 12
                        }
                    ]
                ], 
                [
                    49686, 
                    [
                        {
                            "pitch": 78, 
                            "t0": 49686, 
                            "v": 116, 
                            "dur": 32, 
                            "type": "note", 
                            "channel": 12
                        }
                    ]
                ], 
                [
                    49687, 
                    [
                        {
                            "pitch": 75, 
                            "t0": 49687, 
                            "v": 120, 
                            "dur": 26, 
                            "type": "note", 
                            "channel": 12
                        }
                    ]
                ], 
                [
                    49688, 
                    [
                        {
                            "pitch": 82, 
                            "t0": 49688, 
                            "v": 120, 
                            "dur": 30, 
                            "type": "note", 
                            "channel": 12
                        }
                    ]
                ], 
                [
                    50170, 
                    [
                        {
                            "pitch": 78, 
                            "t0": 50170, 
                            "v": 112, 
                            "dur": 21, 
                            "type": "note", 
                            "channel": 12
                        }, 
                        {
                            "pitch": 75, 
                            "t0": 50170, 
                            "v": 112, 
                            "dur": 25, 
                            "type": "note", 
                            "channel": 12
                        }
                    ]
                ], 
                [
                    50171, 
                    [
                        {
                            "pitch": 82, 
                            "t0": 50171, 
                            "v": 116, 
                            "dur": 24, 
                            "type": "note", 
                            "channel": 12
                        }
                    ]
                ], 
                [
                    50225, 
                    [
                        {
                            "pitch": 78, 
                            "t0": 50225, 
                            "v": 108, 
                            "dur": 30, 
                            "type": "note", 
                            "channel": 12
                        }
                    ]
                ], 
                [
                    50226, 
                    [
                        {
                            "pitch": 75, 
                            "t0": 50226, 
                            "v": 100, 
                            "dur": 31, 
                            "type": "note", 
                            "channel": 12
                        }
                    ]
                ], 
                [
                    50228, 
                    [
                        {
                            "pitch": 82, 
                            "t0": 50228, 
                            "v": 112, 
                            "dur": 35, 
                            "type": "note", 
                            "channel": 12
                        }
                    ]
                ], 
                [
                    50272, 
                    [
                        {
                            "pitch": 78, 
                            "t0": 50272, 
                            "v": 36, 
                            "dur": 33, 
                            "type": "note", 
                            "channel": 12
                        }
                    ]
                ], 
                [
                    50273, 
                    [
                        {
                            "pitch": 75, 
                            "t0": 50273, 
                            "v": 84, 
                            "dur": 29, 
                            "type": "note", 
                            "channel": 12
                        }
                    ]
                ], 
                [
                    50275, 
                    [
                        {
                            "pitch": 82, 
                            "t0": 50275, 
                            "v": 80, 
                            "dur": 30, 
                            "type": "note", 
                            "channel": 12
                        }
                    ]
                ], 
                [
                    50408, 
                    [
                        {
                            "pitch": 78, 
                            "t0": 50408, 
                            "v": 116, 
                            "dur": 28, 
                            "type": "note", 
                            "channel": 12
                        }, 
                        {
                            "pitch": 82, 
                            "t0": 50408, 
                            "v": 116, 
                            "dur": 28, 
                            "type": "note", 
                            "channel": 12
                        }
                    ]
                ], 
                [
                    50409, 
                    [
                        {
                            "pitch": 75, 
                            "t0": 50409, 
                            "v": 124, 
                            "dur": 22, 
                            "type": "note", 
                            "channel": 12
                        }
                    ]
                ], 
                [
                    50418, 
                    [
                        {
                            "pitch": 74, 
                            "t0": 50418, 
                            "v": 64, 
                            "dur": 17, 
                            "type": "note", 
                            "channel": 12
                        }
                    ]
                ], 
                [
                    51020, 
                    [
                        {
                            "pitch": 75, 
                            "t0": 51020, 
                            "v": 124, 
                            "dur": 27, 
                            "type": "note", 
                            "channel": 12
                        }, 
                        {
                            "pitch": 78, 
                            "t0": 51020, 
                            "v": 112, 
                            "dur": 30, 
                            "type": "note", 
                            "channel": 12
                        }
                    ]
                ], 
                [
                    51021, 
                    [
                        {
                            "pitch": 82, 
                            "t0": 51021, 
                            "v": 124, 
                            "dur": 27, 
                            "type": "note", 
                            "channel": 12
                        }
                    ]
                ], 
                [
                    51367, 
                    [
                        {
                            "pitch": 78, 
                            "t0": 51367, 
                            "v": 116, 
                            "dur": 30, 
                            "type": "note", 
                            "channel": 12
                        }
                    ]
                ], 
                [
                    51369, 
                    [
                        {
                            "pitch": 75, 
                            "t0": 51369, 
                            "v": 120, 
                            "dur": 25, 
                            "type": "note", 
                            "channel": 12
                        }
                    ]
                ], 
                [
                    51370, 
                    [
                        {
                            "pitch": 82, 
                            "t0": 51370, 
                            "v": 120, 
                            "dur": 27, 
                            "type": "note", 
                            "channel": 12
                        }
                    ]
                ], 
                [
                    51597, 
                    [
                        {
                            "pitch": 82, 
                            "t0": 51597, 
                            "v": 116, 
                            "dur": 30, 
                            "type": "note", 
                            "channel": 12
                        }, 
                        {
                            "pitch": 78, 
                            "t0": 51597, 
                            "v": 120, 
                            "dur": 32, 
                            "type": "note", 
                            "channel": 12
                        }
                    ]
                ], 
                [
                    51598, 
                    [
                        {
                            "pitch": 75, 
                            "t0": 51598, 
                            "v": 120, 
                            "dur": 26, 
                            "type": "note", 
                            "channel": 12
                        }
                    ]
                ], 
                [
                    52066, 
                    [
                        {
                            "pitch": 75, 
                            "t0": 52066, 
                            "v": 108, 
                            "dur": 19, 
                            "type": "note", 
                            "channel": 12
                        }, 
                        {
                            "pitch": 78, 
                            "t0": 52066, 
                            "v": 116, 
                            "dur": 21, 
                            "type": "note", 
                            "channel": 12
                        }
                    ]
                ], 
                [
                    52067, 
                    [
                        {
                            "pitch": 82, 
                            "t0": 52067, 
                            "v": 112, 
                            "dur": 23, 
                            "type": "note", 
                            "channel": 12
                        }
                    ]
                ], 
                [
                    52119, 
                    [
                        {
                            "pitch": 75, 
                            "t0": 52119, 
                            "v": 108, 
                            "dur": 34, 
                            "type": "note", 
                            "channel": 12
                        }
                    ]
                ], 
                [
                    52123, 
                    [
                        {
                            "pitch": 78, 
                            "t0": 52123, 
                            "v": 112, 
                            "dur": 24, 
                            "type": "note", 
                            "channel": 12
                        }
                    ]
                ], 
                [
                    52124, 
                    [
                        {
                            "pitch": 82, 
                            "t0": 52124, 
                            "v": 108, 
                            "dur": 27, 
                            "type": "note", 
                            "channel": 12
                        }
                    ]
                ], 
                [
                    52169, 
                    [
                        {
                            "pitch": 75, 
                            "t0": 52169, 
                            "v": 92, 
                            "dur": 30, 
                            "type": "note", 
                            "channel": 12
                        }
                    ]
                ], 
                [
                    52171, 
                    [
                        {
                            "pitch": 78, 
                            "t0": 52171, 
                            "v": 108, 
                            "dur": 30, 
                            "type": "note", 
                            "channel": 12
                        }
                    ]
                ], 
                [
                    52175, 
                    [
                        {
                            "pitch": 82, 
                            "t0": 52175, 
                            "v": 104, 
                            "dur": 28, 
                            "type": "note", 
                            "channel": 12
                        }
                    ]
                ], 
                [
                    52307, 
                    [
                        {
                            "pitch": 82, 
                            "t0": 52307, 
                            "v": 120, 
                            "dur": 26, 
                            "type": "note", 
                            "channel": 12
                        }
                    ]
                ], 
                [
                    52308, 
                    [
                        {
                            "pitch": 75, 
                            "t0": 52308, 
                            "v": 120, 
                            "dur": 24, 
                            "type": "note", 
                            "channel": 12
                        }, 
                        {
                            "pitch": 78, 
                            "t0": 52308, 
                            "v": 120, 
                            "dur": 24, 
                            "type": "note", 
                            "channel": 12
                        }
                    ]
                ], 
                [
                    52952, 
                    [
                        {
                            "pitch": 78, 
                            "t0": 52952, 
                            "v": 116, 
                            "dur": 28, 
                            "type": "note", 
                            "channel": 12
                        }
                    ]
                ], 
                [
                    52953, 
                    [
                        {
                            "pitch": 75, 
                            "t0": 52953, 
                            "v": 116, 
                            "dur": 22, 
                            "type": "note", 
                            "channel": 12
                        }, 
                        {
                            "pitch": 82, 
                            "t0": 52953, 
                            "v": 116, 
                            "dur": 28, 
                            "type": "note", 
                            "channel": 12
                        }
                    ]
                ], 
                [
                    53298, 
                    [
                        {
                            "pitch": 82, 
                            "t0": 53298, 
                            "v": 112, 
                            "dur": 35, 
                            "type": "note", 
                            "channel": 12
                        }
                    ]
                ], 
                [
                    53299, 
                    [
                        {
                            "pitch": 78, 
                            "t0": 53299, 
                            "v": 116, 
                            "dur": 39, 
                            "type": "note", 
                            "channel": 12
                        }
                    ]
                ], 
                [
                    53300, 
                    [
                        {
                            "pitch": 75, 
                            "t0": 53300, 
                            "v": 116, 
                            "dur": 32, 
                            "type": "note", 
                            "channel": 12
                        }
                    ]
                ], 
                [
                    53535, 
                    [
                        {
                            "pitch": 78, 
                            "t0": 53535, 
                            "v": 120, 
                            "dur": 33, 
                            "type": "note", 
                            "channel": 12
                        }
                    ]
                ], 
                [
                    53536, 
                    [
                        {
                            "pitch": 82, 
                            "t0": 53536, 
                            "v": 116, 
                            "dur": 31, 
                            "type": "note", 
                            "channel": 12
                        }
                    ]
                ], 
                [
                    53537, 
                    [
                        {
                            "pitch": 75, 
                            "t0": 53537, 
                            "v": 116, 
                            "dur": 30, 
                            "type": "note", 
                            "channel": 12
                        }
                    ]
                ], 
                [
                    54014, 
                    [
                        {
                            "pitch": 78, 
                            "t0": 54014, 
                            "v": 112, 
                            "dur": 22, 
                            "type": "note", 
                            "channel": 12
                        }
                    ]
                ], 
                [
                    54015, 
                    [
                        {
                            "pitch": 75, 
                            "t0": 54015, 
                            "v": 116, 
                            "dur": 20, 
                            "type": "note", 
                            "channel": 12
                        }, 
                        {
                            "pitch": 82, 
                            "t0": 54015, 
                            "v": 116, 
                            "dur": 23, 
                            "type": "note", 
                            "channel": 12
                        }
                    ]
                ], 
                [
                    54063, 
                    [
                        {
                            "pitch": 75, 
                            "t0": 54063, 
                            "v": 108, 
                            "dur": 43, 
                            "type": "note", 
                            "channel": 12
                        }
                    ]
                ], 
                [
                    54065, 
                    [
                        {
                            "pitch": 78, 
                            "t0": 54065, 
                            "v": 96, 
                            "dur": 32, 
                            "type": "note", 
                            "channel": 12
                        }
                    ]
                ], 
                [
                    54067, 
                    [
                        {
                            "pitch": 82, 
                            "t0": 54067, 
                            "v": 108, 
                            "dur": 31, 
                            "type": "note", 
                            "channel": 12
                        }
                    ]
                ], 
                [
                    54255, 
                    [
                        {
                            "pitch": 78, 
                            "t0": 54255, 
                            "v": 120, 
                            "dur": 31, 
                            "type": "note", 
                            "channel": 12
                        }, 
                        {
                            "pitch": 82, 
                            "t0": 54255, 
                            "v": 120, 
                            "dur": 33, 
                            "type": "note", 
                            "channel": 12
                        }
                    ]
                ], 
                [
                    54257, 
                    [
                        {
                            "pitch": 75, 
                            "t0": 54257, 
                            "v": 120, 
                            "dur": 29, 
                            "type": "note", 
                            "channel": 12
                        }
                    ]
                ], 
                [
                    54852, 
                    [
                        {
                            "pitch": 78, 
                            "t0": 54852, 
                            "v": 116, 
                            "dur": 32, 
                            "type": "note", 
                            "channel": 12
                        }
                    ]
                ], 
                [
                    54853, 
                    [
                        {
                            "pitch": 75, 
                            "t0": 54853, 
                            "v": 120, 
                            "dur": 29, 
                            "type": "note", 
                            "channel": 12
                        }
                    ]
                ], 
                [
                    54854, 
                    [
                        {
                            "pitch": 82, 
                            "t0": 54854, 
                            "v": 120, 
                            "dur": 32, 
                            "type": "note", 
                            "channel": 12
                        }
                    ]
                ], 
                [
                    55202, 
                    [
                        {
                            "pitch": 82, 
                            "t0": 55202, 
                            "v": 116, 
                            "dur": 45, 
                            "type": "note", 
                            "channel": 12
                        }
                    ]
                ], 
                [
                    55203, 
                    [
                        {
                            "pitch": 78, 
                            "t0": 55203, 
                            "v": 112, 
                            "dur": 35, 
                            "type": "note", 
                            "channel": 12
                        }
                    ]
                ], 
                [
                    55204, 
                    [
                        {
                            "pitch": 75, 
                            "t0": 55204, 
                            "v": 116, 
                            "dur": 32, 
                            "type": "note", 
                            "channel": 12
                        }
                    ]
                ], 
                [
                    55439, 
                    [
                        {
                            "pitch": 82, 
                            "t0": 55439, 
                            "v": 112, 
                            "dur": 40, 
                            "type": "note", 
                            "channel": 12
                        }
                    ]
                ], 
                [
                    55440, 
                    [
                        {
                            "pitch": 78, 
                            "t0": 55440, 
                            "v": 116, 
                            "dur": 37, 
                            "type": "note", 
                            "channel": 12
                        }
                    ]
                ], 
                [
                    55441, 
                    [
                        {
                            "pitch": 75, 
                            "t0": 55441, 
                            "v": 116, 
                            "dur": 33, 
                            "type": "note", 
                            "channel": 12
                        }
                    ]
                ], 
                [
                    55924, 
                    [
                        {
                            "pitch": 78, 
                            "t0": 55924, 
                            "v": 104, 
                            "dur": 16, 
                            "type": "note", 
                            "channel": 12
                        }, 
                        {
                            "pitch": 82, 
                            "t0": 55924, 
                            "v": 120, 
                            "dur": 18, 
                            "type": "note", 
                            "channel": 12
                        }
                    ]
                ], 
                [
                    55925, 
                    [
                        {
                            "pitch": 75, 
                            "t0": 55925, 
                            "v": 104, 
                            "dur": 19, 
                            "type": "note", 
                            "channel": 12
                        }
                    ]
                ], 
                [
                    55977, 
                    [
                        {
                            "pitch": 78, 
                            "t0": 55977, 
                            "v": 108, 
                            "dur": 29, 
                            "type": "note", 
                            "channel": 12
                        }, 
                        {
                            "pitch": 75, 
                            "t0": 55977, 
                            "v": 108, 
                            "dur": 30, 
                            "type": "note", 
                            "channel": 12
                        }
                    ]
                ], 
                [
                    55980, 
                    [
                        {
                            "pitch": 82, 
                            "t0": 55980, 
                            "v": 120, 
                            "dur": 29, 
                            "type": "note", 
                            "channel": 12
                        }
                    ]
                ], 
                [
                    56032, 
                    [
                        {
                            "pitch": 78, 
                            "t0": 56032, 
                            "v": 104, 
                            "dur": 32, 
                            "type": "note", 
                            "channel": 12
                        }
                    ]
                ], 
                [
                    56033, 
                    [
                        {
                            "pitch": 75, 
                            "t0": 56033, 
                            "v": 80, 
                            "dur": 28, 
                            "type": "note", 
                            "channel": 12
                        }
                    ]
                ], 
                [
                    56034, 
                    [
                        {
                            "pitch": 82, 
                            "t0": 56034, 
                            "v": 100, 
                            "dur": 30, 
                            "type": "note", 
                            "channel": 12
                        }
                    ]
                ], 
                [
                    56167, 
                    [
                        {
                            "pitch": 75, 
                            "t0": 56167, 
                            "v": 120, 
                            "dur": 25, 
                            "type": "note", 
                            "channel": 12
                        }, 
                        {
                            "pitch": 78, 
                            "t0": 56167, 
                            "v": 120, 
                            "dur": 27, 
                            "type": "note", 
                            "channel": 12
                        }
                    ]
                ], 
                [
                    56168, 
                    [
                        {
                            "pitch": 82, 
                            "t0": 56168, 
                            "v": 120, 
                            "dur": 27, 
                            "type": "note", 
                            "channel": 12
                        }
                    ]
                ], 
                [
                    56774, 
                    [
                        {
                            "pitch": 82, 
                            "t0": 56774, 
                            "v": 116, 
                            "dur": 31, 
                            "type": "note", 
                            "channel": 12
                        }, 
                        {
                            "pitch": 78, 
                            "t0": 56774, 
                            "v": 116, 
                            "dur": 31, 
                            "type": "note", 
                            "channel": 12
                        }
                    ]
                ], 
                [
                    56776, 
                    [
                        {
                            "pitch": 75, 
                            "t0": 56776, 
                            "v": 116, 
                            "dur": 27, 
                            "type": "note", 
                            "channel": 12
                        }
                    ]
                ], 
                [
                    57122, 
                    [
                        {
                            "pitch": 78, 
                            "t0": 57122, 
                            "v": 116, 
                            "dur": 37, 
                            "type": "note", 
                            "channel": 12
                        }, 
                        {
                            "pitch": 82, 
                            "t0": 57122, 
                            "v": 120, 
                            "dur": 38, 
                            "type": "note", 
                            "channel": 12
                        }
                    ]
                ], 
                [
                    57123, 
                    [
                        {
                            "pitch": 75, 
                            "t0": 57123, 
                            "v": 112, 
                            "dur": 34, 
                            "type": "note", 
                            "channel": 12
                        }
                    ]
                ], 
                [
                    57359, 
                    [
                        {
                            "pitch": 78, 
                            "t0": 57359, 
                            "v": 116, 
                            "dur": 32, 
                            "type": "note", 
                            "channel": 12
                        }, 
                        {
                            "pitch": 82, 
                            "t0": 57359, 
                            "v": 124, 
                            "dur": 34, 
                            "type": "note", 
                            "channel": 12
                        }
                    ]
                ], 
                [
                    57360, 
                    [
                        {
                            "pitch": 75, 
                            "t0": 57360, 
                            "v": 120, 
                            "dur": 29, 
                            "type": "note", 
                            "channel": 12
                        }
                    ]
                ], 
                [
                    57853, 
                    [
                        {
                            "pitch": 78, 
                            "t0": 57853, 
                            "v": 116, 
                            "dur": 21, 
                            "type": "note", 
                            "channel": 12
                        }, 
                        {
                            "pitch": 82, 
                            "t0": 57853, 
                            "v": 112, 
                            "dur": 23, 
                            "type": "note", 
                            "channel": 12
                        }
                    ]
                ], 
                [
                    57854, 
                    [
                        {
                            "pitch": 75, 
                            "t0": 57854, 
                            "v": 112, 
                            "dur": 20, 
                            "type": "note", 
                            "channel": 12
                        }
                    ]
                ], 
                [
                    57909, 
                    [
                        {
                            "pitch": 75, 
                            "t0": 57909, 
                            "v": 108, 
                            "dur": 30, 
                            "type": "note", 
                            "channel": 12
                        }
                    ]
                ], 
                [
                    57910, 
                    [
                        {
                            "pitch": 78, 
                            "t0": 57910, 
                            "v": 108, 
                            "dur": 27, 
                            "type": "note", 
                            "channel": 12
                        }, 
                        {
                            "pitch": 82, 
                            "t0": 57910, 
                            "v": 96, 
                            "dur": 33, 
                            "type": "note", 
                            "channel": 12
                        }
                    ]
                ], 
                [
                    57960, 
                    [
                        {
                            "pitch": 75, 
                            "t0": 57960, 
                            "v": 96, 
                            "dur": 31, 
                            "type": "note", 
                            "channel": 12
                        }, 
                        {
                            "pitch": 78, 
                            "t0": 57960, 
                            "v": 108, 
                            "dur": 36, 
                            "type": "note", 
                            "channel": 12
                        }
                    ]
                ], 
                [
                    57961, 
                    [
                        {
                            "pitch": 82, 
                            "t0": 57961, 
                            "v": 88, 
                            "dur": 35, 
                            "type": "note", 
                            "channel": 12
                        }
                    ]
                ], 
                [
                    58093, 
                    [
                        {
                            "pitch": 78, 
                            "t0": 58093, 
                            "v": 116, 
                            "dur": 33, 
                            "type": "note", 
                            "channel": 12
                        }, 
                        {
                            "pitch": 82, 
                            "t0": 58093, 
                            "v": 120, 
                            "dur": 41, 
                            "type": "note", 
                            "channel": 12
                        }
                    ]
                ], 
                [
                    58094, 
                    [
                        {
                            "pitch": 75, 
                            "t0": 58094, 
                            "v": 112, 
                            "dur": 28, 
                            "type": "note", 
                            "channel": 12
                        }
                    ]
                ], 
                [
                    58699, 
                    [
                        {
                            "pitch": 82, 
                            "t0": 58699, 
                            "v": 112, 
                            "dur": 41, 
                            "type": "note", 
                            "channel": 12
                        }
                    ]
                ], 
                [
                    58700, 
                    [
                        {
                            "pitch": 78, 
                            "t0": 58700, 
                            "v": 116, 
                            "dur": 32, 
                            "type": "note", 
                            "channel": 12
                        }
                    ]
                ], 
                [
                    58701, 
                    [
                        {
                            "pitch": 75, 
                            "t0": 58701, 
                            "v": 112, 
                            "dur": 27, 
                            "type": "note", 
                            "channel": 12
                        }
                    ]
                ], 
                [
                    58710, 
                    [
                        {
                            "pitch": 80, 
                            "t0": 58710, 
                            "v": 64, 
                            "dur": 9, 
                            "type": "note", 
                            "channel": 12
                        }
                    ]
                ], 
                [
                    59055, 
                    [
                        {
                            "pitch": 78, 
                            "t0": 59055, 
                            "v": 116, 
                            "dur": 30, 
                            "type": "note", 
                            "channel": 12
                        }
                    ]
                ], 
                [
                    59056, 
                    [
                        {
                            "pitch": 75, 
                            "t0": 59056, 
                            "v": 116, 
                            "dur": 28, 
                            "type": "note", 
                            "channel": 12
                        }, 
                        {
                            "pitch": 82, 
                            "t0": 59056, 
                            "v": 120, 
                            "dur": 34, 
                            "type": "note", 
                            "channel": 12
                        }
                    ]
                ], 
                [
                    59285, 
                    [
                        {
                            "pitch": 78, 
                            "t0": 59285, 
                            "v": 120, 
                            "dur": 33, 
                            "type": "note", 
                            "channel": 12
                        }
                    ]
                ], 
                [
                    59286, 
                    [
                        {
                            "pitch": 75, 
                            "t0": 59286, 
                            "v": 112, 
                            "dur": 28, 
                            "type": "note", 
                            "channel": 12
                        }, 
                        {
                            "pitch": 82, 
                            "t0": 59286, 
                            "v": 120, 
                            "dur": 33, 
                            "type": "note", 
                            "channel": 12
                        }
                    ]
                ], 
                [
                    59772, 
                    [
                        {
                            "pitch": 82, 
                            "t0": 59772, 
                            "v": 120, 
                            "dur": 21, 
                            "type": "note", 
                            "channel": 12
                        }, 
                        {
                            "pitch": 78, 
                            "t0": 59772, 
                            "v": 116, 
                            "dur": 22, 
                            "type": "note", 
                            "channel": 12
                        }
                    ]
                ], 
                [
                    59773, 
                    [
                        {
                            "pitch": 75, 
                            "t0": 59773, 
                            "v": 108, 
                            "dur": 23, 
                            "type": "note", 
                            "channel": 12
                        }
                    ]
                ], 
                [
                    59827, 
                    [
                        {
                            "pitch": 75, 
                            "t0": 59827, 
                            "v": 100, 
                            "dur": 30, 
                            "type": "note", 
                            "channel": 12
                        }
                    ]
                ], 
                [
                    59828, 
                    [
                        {
                            "pitch": 78, 
                            "t0": 59828, 
                            "v": 112, 
                            "dur": 29, 
                            "type": "note", 
                            "channel": 12
                        }
                    ]
                ], 
                [
                    59830, 
                    [
                        {
                            "pitch": 82, 
                            "t0": 59830, 
                            "v": 120, 
                            "dur": 37, 
                            "type": "note", 
                            "channel": 12
                        }
                    ]
                ], 
                [
                    59880, 
                    [
                        {
                            "pitch": 82, 
                            "t0": 59880, 
                            "v": 92, 
                            "dur": 38, 
                            "type": "note", 
                            "channel": 12
                        }
                    ]
                ], 
                [
                    59881, 
                    [
                        {
                            "pitch": 78, 
                            "t0": 59881, 
                            "v": 104, 
                            "dur": 34, 
                            "type": "note", 
                            "channel": 12
                        }
                    ]
                ], 
                [
                    59883, 
                    [
                        {
                            "pitch": 75, 
                            "t0": 59883, 
                            "v": 80, 
                            "dur": 23, 
                            "type": "note", 
                            "channel": 12
                        }
                    ]
                ], 
                [
                    60012, 
                    [
                        {
                            "pitch": 78, 
                            "t0": 60012, 
                            "v": 120, 
                            "dur": 31, 
                            "type": "note", 
                            "channel": 12
                        }
                    ]
                ], 
                [
                    60013, 
                    [
                        {
                            "pitch": 75, 
                            "t0": 60013, 
                            "v": 120, 
                            "dur": 24, 
                            "type": "note", 
                            "channel": 12
                        }, 
                        {
                            "pitch": 82, 
                            "t0": 60013, 
                            "v": 124, 
                            "dur": 31, 
                            "type": "note", 
                            "channel": 12
                        }
                    ]
                ], 
                [
                    60606, 
                    [
                        {
                            "pitch": 82, 
                            "t0": 60606, 
                            "v": 124, 
                            "dur": 37, 
                            "type": "note", 
                            "channel": 12
                        }
                    ]
                ], 
                [
                    60607, 
                    [
                        {
                            "pitch": 75, 
                            "t0": 60607, 
                            "v": 120, 
                            "dur": 28, 
                            "type": "note", 
                            "channel": 12
                        }, 
                        {
                            "pitch": 78, 
                            "t0": 60607, 
                            "v": 120, 
                            "dur": 35, 
                            "type": "note", 
                            "channel": 12
                        }
                    ]
                ], 
                [
                    60966, 
                    [
                        {
                            "pitch": 82, 
                            "t0": 60966, 
                            "v": 124, 
                            "dur": 45, 
                            "type": "note", 
                            "channel": 12
                        }
                    ]
                ], 
                [
                    60967, 
                    [
                        {
                            "pitch": 78, 
                            "t0": 60967, 
                            "v": 116, 
                            "dur": 36, 
                            "type": "note", 
                            "channel": 12
                        }
                    ]
                ], 
                [
                    60968, 
                    [
                        {
                            "pitch": 75, 
                            "t0": 60968, 
                            "v": 112, 
                            "dur": 31, 
                            "type": "note", 
                            "channel": 12
                        }
                    ]
                ], 
                [
                    61197, 
                    [
                        {
                            "pitch": 78, 
                            "t0": 61197, 
                            "v": 120, 
                            "dur": 40, 
                            "type": "note", 
                            "channel": 12
                        }
                    ]
                ], 
                [
                    61198, 
                    [
                        {
                            "pitch": 82, 
                            "t0": 61198, 
                            "v": 120, 
                            "dur": 38, 
                            "type": "note", 
                            "channel": 12
                        }
                    ]
                ], 
                [
                    61200, 
                    [
                        {
                            "pitch": 75, 
                            "t0": 61200, 
                            "v": 120, 
                            "dur": 29, 
                            "type": "note", 
                            "channel": 12
                        }
                    ]
                ], 
                [
                    61695, 
                    [
                        {
                            "pitch": 78, 
                            "t0": 61695, 
                            "v": 112, 
                            "dur": 20, 
                            "type": "note", 
                            "channel": 12
                        }, 
                        {
                            "pitch": 75, 
                            "t0": 61695, 
                            "v": 116, 
                            "dur": 23, 
                            "type": "note", 
                            "channel": 12
                        }
                    ]
                ], 
                [
                    61696, 
                    [
                        {
                            "pitch": 82, 
                            "t0": 61696, 
                            "v": 112, 
                            "dur": 20, 
                            "type": "note", 
                            "channel": 12
                        }
                    ]
                ], 
                [
                    61752, 
                    [
                        {
                            "pitch": 75, 
                            "t0": 61752, 
                            "v": 108, 
                            "dur": 36, 
                            "type": "note", 
                            "channel": 12
                        }
                    ]
                ], 
                [
                    61753, 
                    [
                        {
                            "pitch": 78, 
                            "t0": 61753, 
                            "v": 112, 
                            "dur": 26, 
                            "type": "note", 
                            "channel": 12
                        }, 
                        {
                            "pitch": 82, 
                            "t0": 61753, 
                            "v": 116, 
                            "dur": 29, 
                            "type": "note", 
                            "channel": 12
                        }
                    ]
                ], 
                [
                    61798, 
                    [
                        {
                            "pitch": 75, 
                            "t0": 61798, 
                            "v": 72, 
                            "dur": 31, 
                            "type": "note", 
                            "channel": 12
                        }
                    ]
                ], 
                [
                    61802, 
                    [
                        {
                            "pitch": 78, 
                            "t0": 61802, 
                            "v": 112, 
                            "dur": 34, 
                            "type": "note", 
                            "channel": 12
                        }
                    ]
                ], 
                [
                    61803, 
                    [
                        {
                            "pitch": 82, 
                            "t0": 61803, 
                            "v": 112, 
                            "dur": 33, 
                            "type": "note", 
                            "channel": 12
                        }
                    ]
                ], 
                [
                    61932, 
                    [
                        {
                            "pitch": 75, 
                            "t0": 61932, 
                            "v": 120, 
                            "dur": 25, 
                            "type": "note", 
                            "channel": 12
                        }, 
                        {
                            "pitch": 82, 
                            "t0": 61932, 
                            "v": 127, 
                            "dur": 28, 
                            "type": "note", 
                            "channel": 12
                        }
                    ]
                ], 
                [
                    61933, 
                    [
                        {
                            "pitch": 78, 
                            "t0": 61933, 
                            "v": 116, 
                            "dur": 27, 
                            "type": "note", 
                            "channel": 12
                        }
                    ]
                ], 
                [
                    62540, 
                    [
                        {
                            "pitch": 82, 
                            "t0": 62540, 
                            "v": 120, 
                            "dur": 31, 
                            "type": "note", 
                            "channel": 12
                        }, 
                        {
                            "pitch": 78, 
                            "t0": 62540, 
                            "v": 120, 
                            "dur": 34, 
                            "type": "note", 
                            "channel": 12
                        }
                    ]
                ], 
                [
                    62542, 
                    [
                        {
                            "pitch": 75, 
                            "t0": 62542, 
                            "v": 112, 
                            "dur": 25, 
                            "type": "note", 
                            "channel": 12
                        }
                    ]
                ], 
                [
                    62902, 
                    [
                        {
                            "pitch": 82, 
                            "t0": 62902, 
                            "v": 120, 
                            "dur": 34, 
                            "type": "note", 
                            "channel": 12
                        }
                    ]
                ], 
                [
                    62903, 
                    [
                        {
                            "pitch": 78, 
                            "t0": 62903, 
                            "v": 116, 
                            "dur": 31, 
                            "type": "note", 
                            "channel": 12
                        }
                    ]
                ], 
                [
                    62905, 
                    [
                        {
                            "pitch": 75, 
                            "t0": 62905, 
                            "v": 108, 
                            "dur": 26, 
                            "type": "note", 
                            "channel": 12
                        }
                    ]
                ], 
                [
                    63137, 
                    [
                        {
                            "pitch": 78, 
                            "t0": 63137, 
                            "v": 120, 
                            "dur": 36, 
                            "type": "note", 
                            "channel": 12
                        }
                    ]
                ], 
                [
                    63138, 
                    [
                        {
                            "pitch": 75, 
                            "t0": 63138, 
                            "v": 116, 
                            "dur": 29, 
                            "type": "note", 
                            "channel": 12
                        }, 
                        {
                            "pitch": 82, 
                            "t0": 63138, 
                            "v": 120, 
                            "dur": 35, 
                            "type": "note", 
                            "channel": 12
                        }
                    ]
                ], 
                [
                    63617, 
                    [
                        {
                            "pitch": 82, 
                            "t0": 63617, 
                            "v": 120, 
                            "dur": 24, 
                            "type": "note", 
                            "channel": 12
                        }
                    ]
                ], 
                [
                    63618, 
                    [
                        {
                            "pitch": 78, 
                            "t0": 63618, 
                            "v": 112, 
                            "dur": 19, 
                            "type": "note", 
                            "channel": 12
                        }
                    ]
                ], 
                [
                    63620, 
                    [
                        {
                            "pitch": 75, 
                            "t0": 63620, 
                            "v": 116, 
                            "dur": 19, 
                            "type": "note", 
                            "channel": 12
                        }
                    ]
                ], 
                [
                    63672, 
                    [
                        {
                            "pitch": 78, 
                            "t0": 63672, 
                            "v": 116, 
                            "dur": 27, 
                            "type": "note", 
                            "channel": 12
                        }
                    ]
                ], 
                [
                    63673, 
                    [
                        {
                            "pitch": 75, 
                            "t0": 63673, 
                            "v": 116, 
                            "dur": 27, 
                            "type": "note", 
                            "channel": 12
                        }, 
                        {
                            "pitch": 82, 
                            "t0": 63673, 
                            "v": 116, 
                            "dur": 29, 
                            "type": "note", 
                            "channel": 12
                        }
                    ]
                ], 
                [
                    63722, 
                    [
                        {
                            "pitch": 78, 
                            "t0": 63722, 
                            "v": 112, 
                            "dur": 36, 
                            "type": "note", 
                            "channel": 12
                        }, 
                        {
                            "pitch": 82, 
                            "t0": 63722, 
                            "v": 108, 
                            "dur": 38, 
                            "type": "note", 
                            "channel": 12
                        }
                    ]
                ], 
                [
                    63723, 
                    [
                        {
                            "pitch": 75, 
                            "t0": 63723, 
                            "v": 108, 
                            "dur": 30, 
                            "type": "note", 
                            "channel": 12
                        }
                    ]
                ], 
                [
                    63846, 
                    [
                        {
                            "pitch": 75, 
                            "t0": 63846, 
                            "v": 116, 
                            "dur": 25, 
                            "type": "note", 
                            "channel": 12
                        }, 
                        {
                            "pitch": 82, 
                            "t0": 63846, 
                            "v": 124, 
                            "dur": 29, 
                            "type": "note", 
                            "channel": 12
                        }
                    ]
                ], 
                [
                    63847, 
                    [
                        {
                            "pitch": 78, 
                            "t0": 63847, 
                            "v": 124, 
                            "dur": 27, 
                            "type": "note", 
                            "channel": 12
                        }
                    ]
                ], 
                [
                    64464, 
                    [
                        {
                            "pitch": 78, 
                            "t0": 64464, 
                            "v": 116, 
                            "dur": 34, 
                            "type": "note", 
                            "channel": 12
                        }, 
                        {
                            "pitch": 82, 
                            "t0": 64464, 
                            "v": 120, 
                            "dur": 35, 
                            "type": "note", 
                            "channel": 12
                        }
                    ]
                ], 
                [
                    64465, 
                    [
                        {
                            "pitch": 75, 
                            "t0": 64465, 
                            "v": 120, 
                            "dur": 25, 
                            "type": "note", 
                            "channel": 12
                        }
                    ]
                ], 
                [
                    64821, 
                    [
                        {
                            "pitch": 78, 
                            "t0": 64821, 
                            "v": 116, 
                            "dur": 42, 
                            "type": "note", 
                            "channel": 12
                        }, 
                        {
                            "pitch": 82, 
                            "t0": 64821, 
                            "v": 120, 
                            "dur": 49, 
                            "type": "note", 
                            "channel": 12
                        }
                    ]
                ], 
                [
                    64824, 
                    [
                        {
                            "pitch": 75, 
                            "t0": 64824, 
                            "v": 112, 
                            "dur": 30, 
                            "type": "note", 
                            "channel": 12
                        }
                    ]
                ], 
                [
                    65043, 
                    [
                        {
                            "pitch": 82, 
                            "t0": 65043, 
                            "v": 120, 
                            "dur": 41, 
                            "type": "note", 
                            "channel": 12
                        }
                    ]
                ], 
                [
                    65045, 
                    [
                        {
                            "pitch": 78, 
                            "t0": 65045, 
                            "v": 120, 
                            "dur": 36, 
                            "type": "note", 
                            "channel": 12
                        }
                    ]
                ], 
                [
                    65047, 
                    [
                        {
                            "pitch": 75, 
                            "t0": 65047, 
                            "v": 108, 
                            "dur": 27, 
                            "type": "note", 
                            "channel": 12
                        }
                    ]
                ], 
                [
                    65532, 
                    [
                        {
                            "pitch": 78, 
                            "t0": 65532, 
                            "v": 104, 
                            "dur": 21, 
                            "type": "note", 
                            "channel": 12
                        }, 
                        {
                            "pitch": 82, 
                            "t0": 65532, 
                            "v": 120, 
                            "dur": 24, 
                            "type": "note", 
                            "channel": 12
                        }
                    ]
                ], 
                [
                    65533, 
                    [
                        {
                            "pitch": 75, 
                            "t0": 65533, 
                            "v": 108, 
                            "dur": 24, 
                            "type": "note", 
                            "channel": 12
                        }
                    ]
                ], 
                [
                    65587, 
                    [
                        {
                            "pitch": 75, 
                            "t0": 65587, 
                            "v": 108, 
                            "dur": 38, 
                            "type": "note", 
                            "channel": 12
                        }
                    ]
                ], 
                [
                    65588, 
                    [
                        {
                            "pitch": 78, 
                            "t0": 65588, 
                            "v": 112, 
                            "dur": 31, 
                            "type": "note", 
                            "channel": 12
                        }
                    ]
                ], 
                [
                    65589, 
                    [
                        {
                            "pitch": 82, 
                            "t0": 65589, 
                            "v": 112, 
                            "dur": 34, 
                            "type": "note", 
                            "channel": 12
                        }
                    ]
                ], 
                [
                    65640, 
                    [
                        {
                            "pitch": 75, 
                            "t0": 65640, 
                            "v": 76, 
                            "dur": 35, 
                            "type": "note", 
                            "channel": 12
                        }
                    ]
                ], 
                [
                    65642, 
                    [
                        {
                            "pitch": 82, 
                            "t0": 65642, 
                            "v": 64, 
                            "dur": 36, 
                            "type": "note", 
                            "channel": 12
                        }
                    ]
                ], 
                [
                    65643, 
                    [
                        {
                            "pitch": 78, 
                            "t0": 65643, 
                            "v": 108, 
                            "dur": 32, 
                            "type": "note", 
                            "channel": 12
                        }
                    ]
                ], 
                [
                    65773, 
                    [
                        {
                            "pitch": 78, 
                            "t0": 65773, 
                            "v": 124, 
                            "dur": 33, 
                            "type": "note", 
                            "channel": 12
                        }
                    ]
                ], 
                [
                    65774, 
                    [
                        {
                            "pitch": 75, 
                            "t0": 65774, 
                            "v": 120, 
                            "dur": 26, 
                            "type": "note", 
                            "channel": 12
                        }, 
                        {
                            "pitch": 82, 
                            "t0": 65774, 
                            "v": 124, 
                            "dur": 28, 
                            "type": "note", 
                            "channel": 12
                        }
                    ]
                ], 
                [
                    66384, 
                    [
                        {
                            "pitch": 78, 
                            "t0": 66384, 
                            "v": 120, 
                            "dur": 36, 
                            "type": "note", 
                            "channel": 12
                        }
                    ]
                ], 
                [
                    66385, 
                    [
                        {
                            "pitch": 75, 
                            "t0": 66385, 
                            "v": 124, 
                            "dur": 27, 
                            "type": "note", 
                            "channel": 12
                        }, 
                        {
                            "pitch": 82, 
                            "t0": 66385, 
                            "v": 120, 
                            "dur": 37, 
                            "type": "note", 
                            "channel": 12
                        }
                    ]
                ], 
                [
                    66752, 
                    [
                        {
                            "pitch": 78, 
                            "t0": 66752, 
                            "v": 116, 
                            "dur": 33, 
                            "type": "note", 
                            "channel": 12
                        }
                    ]
                ], 
                [
                    66753, 
                    [
                        {
                            "pitch": 75, 
                            "t0": 66753, 
                            "v": 112, 
                            "dur": 31, 
                            "type": "note", 
                            "channel": 12
                        }, 
                        {
                            "pitch": 82, 
                            "t0": 66753, 
                            "v": 116, 
                            "dur": 32, 
                            "type": "note", 
                            "channel": 12
                        }
                    ]
                ], 
                [
                    66988, 
                    [
                        {
                            "pitch": 78, 
                            "t0": 66988, 
                            "v": 116, 
                            "dur": 37, 
                            "type": "note", 
                            "channel": 12
                        }, 
                        {
                            "pitch": 82, 
                            "t0": 66988, 
                            "v": 116, 
                            "dur": 37, 
                            "type": "note", 
                            "channel": 12
                        }
                    ]
                ], 
                [
                    66989, 
                    [
                        {
                            "pitch": 75, 
                            "t0": 66989, 
                            "v": 112, 
                            "dur": 30, 
                            "type": "note", 
                            "channel": 12
                        }
                    ]
                ], 
                [
                    67458, 
                    [
                        {
                            "pitch": 78, 
                            "t0": 67458, 
                            "v": 112, 
                            "dur": 24, 
                            "type": "note", 
                            "channel": 12
                        }
                    ]
                ], 
                [
                    67459, 
                    [
                        {
                            "pitch": 82, 
                            "t0": 67459, 
                            "v": 112, 
                            "dur": 24, 
                            "type": "note", 
                            "channel": 12
                        }
                    ]
                ], 
                [
                    67460, 
                    [
                        {
                            "pitch": 75, 
                            "t0": 67460, 
                            "v": 108, 
                            "dur": 24, 
                            "type": "note", 
                            "channel": 12
                        }
                    ]
                ], 
                [
                    67516, 
                    [
                        {
                            "pitch": 75, 
                            "t0": 67516, 
                            "v": 104, 
                            "dur": 34, 
                            "type": "note", 
                            "channel": 12
                        }
                    ]
                ], 
                [
                    67517, 
                    [
                        {
                            "pitch": 78, 
                            "t0": 67517, 
                            "v": 112, 
                            "dur": 30, 
                            "type": "note", 
                            "channel": 12
                        }
                    ]
                ], 
                [
                    67518, 
                    [
                        {
                            "pitch": 82, 
                            "t0": 67518, 
                            "v": 116, 
                            "dur": 43, 
                            "type": "note", 
                            "channel": 12
                        }
                    ]
                ], 
                [
                    67571, 
                    [
                        {
                            "pitch": 82, 
                            "t0": 67571, 
                            "v": 54, 
                            "dur": 32, 
                            "type": "note", 
                            "channel": 12
                        }
                    ]
                ], 
                [
                    67577, 
                    [
                        {
                            "pitch": 78, 
                            "t0": 67577, 
                            "v": 76, 
                            "dur": 24, 
                            "type": "note", 
                            "channel": 12
                        }
                    ]
                ], 
                [
                    67584, 
                    [
                        {
                            "pitch": 75, 
                            "t0": 67584, 
                            "v": 46, 
                            "dur": 12, 
                            "type": "note", 
                            "channel": 12
                        }
                    ]
                ], 
                [
                    67700, 
                    [
                        {
                            "pitch": 78, 
                            "t0": 67700, 
                            "v": 116, 
                            "dur": 30, 
                            "type": "note", 
                            "channel": 12
                        }, 
                        {
                            "pitch": 82, 
                            "t0": 67700, 
                            "v": 124, 
                            "dur": 32, 
                            "type": "note", 
                            "channel": 12
                        }
                    ]
                ], 
                [
                    67701, 
                    [
                        {
                            "pitch": 75, 
                            "t0": 67701, 
                            "v": 116, 
                            "dur": 27, 
                            "type": "note", 
                            "channel": 12
                        }
                    ]
                ], 
                [
                    68303, 
                    [
                        {
                            "pitch": 78, 
                            "t0": 68303, 
                            "v": 116, 
                            "dur": 37, 
                            "type": "note", 
                            "channel": 12
                        }
                    ]
                ], 
                [
                    68304, 
                    [
                        {
                            "pitch": 75, 
                            "t0": 68304, 
                            "v": 112, 
                            "dur": 33, 
                            "type": "note", 
                            "channel": 12
                        }, 
                        {
                            "pitch": 82, 
                            "t0": 68304, 
                            "v": 124, 
                            "dur": 39, 
                            "type": "note", 
                            "channel": 12
                        }
                    ]
                ], 
                [
                    68651, 
                    [
                        {
                            "pitch": 82, 
                            "t0": 68651, 
                            "v": 116, 
                            "dur": 40, 
                            "type": "note", 
                            "channel": 12
                        }
                    ]
                ], 
                [
                    68652, 
                    [
                        {
                            "pitch": 75, 
                            "t0": 68652, 
                            "v": 112, 
                            "dur": 33, 
                            "type": "note", 
                            "channel": 12
                        }, 
                        {
                            "pitch": 78, 
                            "t0": 68652, 
                            "v": 120, 
                            "dur": 34, 
                            "type": "note", 
                            "channel": 12
                        }
                    ]
                ], 
                [
                    68883, 
                    [
                        {
                            "pitch": 78, 
                            "t0": 68883, 
                            "v": 116, 
                            "dur": 40, 
                            "type": "note", 
                            "channel": 12
                        }
                    ]
                ], 
                [
                    68884, 
                    [
                        {
                            "pitch": 82, 
                            "t0": 68884, 
                            "v": 120, 
                            "dur": 41, 
                            "type": "note", 
                            "channel": 12
                        }
                    ]
                ], 
                [
                    68885, 
                    [
                        {
                            "pitch": 75, 
                            "t0": 68885, 
                            "v": 112, 
                            "dur": 33, 
                            "type": "note", 
                            "channel": 12
                        }
                    ]
                ], 
                [
                    69383, 
                    [
                        {
                            "pitch": 78, 
                            "t0": 69383, 
                            "v": 108, 
                            "dur": 22, 
                            "type": "note", 
                            "channel": 12
                        }, 
                        {
                            "pitch": 82, 
                            "t0": 69383, 
                            "v": 116, 
                            "dur": 27, 
                            "type": "note", 
                            "channel": 12
                        }
                    ]
                ], 
                [
                    69384, 
                    [
                        {
                            "pitch": 75, 
                            "t0": 69384, 
                            "v": 108, 
                            "dur": 23, 
                            "type": "note", 
                            "channel": 12
                        }
                    ]
                ], 
                [
                    69437, 
                    [
                        {
                            "pitch": 75, 
                            "t0": 69437, 
                            "v": 108, 
                            "dur": 32, 
                            "type": "note", 
                            "channel": 12
                        }
                    ]
                ], 
                [
                    69438, 
                    [
                        {
                            "pitch": 78, 
                            "t0": 69438, 
                            "v": 112, 
                            "dur": 33, 
                            "type": "note", 
                            "channel": 12
                        }, 
                        {
                            "pitch": 82, 
                            "t0": 69438, 
                            "v": 104, 
                            "dur": 38, 
                            "type": "note", 
                            "channel": 12
                        }
                    ]
                ], 
                [
                    69491, 
                    [
                        {
                            "pitch": 78, 
                            "t0": 69491, 
                            "v": 84, 
                            "dur": 35, 
                            "type": "note", 
                            "channel": 12
                        }
                    ]
                ], 
                [
                    69492, 
                    [
                        {
                            "pitch": 82, 
                            "t0": 69492, 
                            "v": 80, 
                            "dur": 32, 
                            "type": "note", 
                            "channel": 12
                        }
                    ]
                ], 
                [
                    69498, 
                    [
                        {
                            "pitch": 75, 
                            "t0": 69498, 
                            "v": 54, 
                            "dur": 18, 
                            "type": "note", 
                            "channel": 12
                        }
                    ]
                ], 
                [
                    69617, 
                    [
                        {
                            "pitch": 75, 
                            "t0": 69617, 
                            "v": 120, 
                            "dur": 30, 
                            "type": "note", 
                            "channel": 12
                        }
                    ]
                ], 
                [
                    69618, 
                    [
                        {
                            "pitch": 82, 
                            "t0": 69618, 
                            "v": 116, 
                            "dur": 36, 
                            "type": "note", 
                            "channel": 12
                        }
                    ]
                ], 
                [
                    69619, 
                    [
                        {
                            "pitch": 78, 
                            "t0": 69619, 
                            "v": 124, 
                            "dur": 29, 
                            "type": "note", 
                            "channel": 12
                        }
                    ]
                ], 
                [
                    70227, 
                    [
                        {
                            "pitch": 78, 
                            "t0": 70227, 
                            "v": 120, 
                            "dur": 34, 
                            "type": "note", 
                            "channel": 12
                        }
                    ]
                ], 
                [
                    70228, 
                    [
                        {
                            "pitch": 75, 
                            "t0": 70228, 
                            "v": 116, 
                            "dur": 28, 
                            "type": "note", 
                            "channel": 12
                        }
                    ]
                ], 
                [
                    70229, 
                    [
                        {
                            "pitch": 82, 
                            "t0": 70229, 
                            "v": 116, 
                            "dur": 37, 
                            "type": "note", 
                            "channel": 12
                        }
                    ]
                ], 
                [
                    70565, 
                    [
                        {
                            "pitch": 78, 
                            "t0": 70565, 
                            "v": 116, 
                            "dur": 38, 
                            "type": "note", 
                            "channel": 12
                        }, 
                        {
                            "pitch": 82, 
                            "t0": 70565, 
                            "v": 120, 
                            "dur": 50, 
                            "type": "note", 
                            "channel": 12
                        }
                    ]
                ], 
                [
                    70566, 
                    [
                        {
                            "pitch": 75, 
                            "t0": 70566, 
                            "v": 116, 
                            "dur": 34, 
                            "type": "note", 
                            "channel": 12
                        }
                    ]
                ], 
                [
                    70814, 
                    [
                        {
                            "pitch": 78, 
                            "t0": 70814, 
                            "v": 116, 
                            "dur": 41, 
                            "type": "note", 
                            "channel": 12
                        }
                    ]
                ], 
                [
                    70815, 
                    [
                        {
                            "pitch": 82, 
                            "t0": 70815, 
                            "v": 116, 
                            "dur": 44, 
                            "type": "note", 
                            "channel": 12
                        }
                    ]
                ], 
                [
                    70816, 
                    [
                        {
                            "pitch": 75, 
                            "t0": 70816, 
                            "v": 116, 
                            "dur": 32, 
                            "type": "note", 
                            "channel": 12
                        }
                    ]
                ], 
                [
                    71292, 
                    [
                        {
                            "pitch": 78, 
                            "t0": 71292, 
                            "v": 108, 
                            "dur": 21, 
                            "type": "note", 
                            "channel": 12
                        }
                    ]
                ], 
                [
                    71293, 
                    [
                        {
                            "pitch": 82, 
                            "t0": 71293, 
                            "v": 112, 
                            "dur": 23, 
                            "type": "note", 
                            "channel": 12
                        }
                    ]
                ], 
                [
                    71295, 
                    [
                        {
                            "pitch": 75, 
                            "t0": 71295, 
                            "v": 104, 
                            "dur": 17, 
                            "type": "note", 
                            "channel": 12
                        }
                    ]
                ], 
                [
                    71349, 
                    [
                        {
                            "pitch": 78, 
                            "t0": 71349, 
                            "v": 112, 
                            "dur": 29, 
                            "type": "note", 
                            "channel": 12
                        }
                    ]
                ], 
                [
                    71350, 
                    [
                        {
                            "pitch": 75, 
                            "t0": 71350, 
                            "v": 104, 
                            "dur": 32, 
                            "type": "note", 
                            "channel": 12
                        }, 
                        {
                            "pitch": 82, 
                            "t0": 71350, 
                            "v": 112, 
                            "dur": 38, 
                            "type": "note", 
                            "channel": 12
                        }
                    ]
                ], 
                [
                    71403, 
                    [
                        {
                            "pitch": 78, 
                            "t0": 71403, 
                            "v": 100, 
                            "dur": 38, 
                            "type": "note", 
                            "channel": 12
                        }
                    ]
                ], 
                [
                    71404, 
                    [
                        {
                            "pitch": 82, 
                            "t0": 71404, 
                            "v": 88, 
                            "dur": 36, 
                            "type": "note", 
                            "channel": 12
                        }
                    ]
                ], 
                [
                    71405, 
                    [
                        {
                            "pitch": 75, 
                            "t0": 71405, 
                            "v": 92, 
                            "dur": 30, 
                            "type": "note", 
                            "channel": 12
                        }
                    ]
                ], 
                [
                    71533, 
                    [
                        {
                            "pitch": 75, 
                            "t0": 71533, 
                            "v": 120, 
                            "dur": 34, 
                            "type": "note", 
                            "channel": 12
                        }, 
                        {
                            "pitch": 78, 
                            "t0": 71533, 
                            "v": 116, 
                            "dur": 35, 
                            "type": "note", 
                            "channel": 12
                        }
                    ]
                ], 
                [
                    71534, 
                    [
                        {
                            "pitch": 82, 
                            "t0": 71534, 
                            "v": 120, 
                            "dur": 42, 
                            "type": "note", 
                            "channel": 12
                        }
                    ]
                ], 
                [
                    72139, 
                    [
                        {
                            "pitch": 78, 
                            "t0": 72139, 
                            "v": 116, 
                            "dur": 35, 
                            "type": "note", 
                            "channel": 12
                        }
                    ]
                ], 
                [
                    72140, 
                    [
                        {
                            "pitch": 82, 
                            "t0": 72140, 
                            "v": 108, 
                            "dur": 42, 
                            "type": "note", 
                            "channel": 12
                        }
                    ]
                ], 
                [
                    72141, 
                    [
                        {
                            "pitch": 75, 
                            "t0": 72141, 
                            "v": 112, 
                            "dur": 27, 
                            "type": "note", 
                            "channel": 12
                        }
                    ]
                ], 
                [
                    72497, 
                    [
                        {
                            "pitch": 75, 
                            "t0": 72497, 
                            "v": 120, 
                            "dur": 36, 
                            "type": "note", 
                            "channel": 12
                        }, 
                        {
                            "pitch": 78, 
                            "t0": 72497, 
                            "v": 116, 
                            "dur": 41, 
                            "type": "note", 
                            "channel": 12
                        }
                    ]
                ], 
                [
                    72498, 
                    [
                        {
                            "pitch": 82, 
                            "t0": 72498, 
                            "v": 112, 
                            "dur": 37, 
                            "type": "note", 
                            "channel": 12
                        }
                    ]
                ], 
                [
                    72736, 
                    [
                        {
                            "pitch": 78, 
                            "t0": 72736, 
                            "v": 116, 
                            "dur": 39, 
                            "type": "note", 
                            "channel": 12
                        }
                    ]
                ], 
                [
                    72737, 
                    [
                        {
                            "pitch": 82, 
                            "t0": 72737, 
                            "v": 120, 
                            "dur": 37, 
                            "type": "note", 
                            "channel": 12
                        }
                    ]
                ], 
                [
                    72738, 
                    [
                        {
                            "pitch": 75, 
                            "t0": 72738, 
                            "v": 116, 
                            "dur": 28, 
                            "type": "note", 
                            "channel": 12
                        }
                    ]
                ], 
                [
                    73222, 
                    [
                        {
                            "pitch": 82, 
                            "t0": 73222, 
                            "v": 120, 
                            "dur": 20, 
                            "type": "note", 
                            "channel": 12
                        }
                    ]
                ], 
                [
                    73223, 
                    [
                        {
                            "pitch": 78, 
                            "t0": 73223, 
                            "v": 108, 
                            "dur": 20, 
                            "type": "note", 
                            "channel": 12
                        }
                    ]
                ], 
                [
                    73224, 
                    [
                        {
                            "pitch": 75, 
                            "t0": 73224, 
                            "v": 100, 
                            "dur": 20, 
                            "type": "note", 
                            "channel": 12
                        }
                    ]
                ], 
                [
                    73280, 
                    [
                        {
                            "pitch": 78, 
                            "t0": 73280, 
                            "v": 108, 
                            "dur": 27, 
                            "type": "note", 
                            "channel": 12
                        }, 
                        {
                            "pitch": 75, 
                            "t0": 73280, 
                            "v": 108, 
                            "dur": 29, 
                            "type": "note", 
                            "channel": 12
                        }, 
                        {
                            "pitch": 82, 
                            "t0": 73280, 
                            "v": 120, 
                            "dur": 32, 
                            "type": "note", 
                            "channel": 12
                        }
                    ]
                ], 
                [
                    73331, 
                    [
                        {
                            "pitch": 75, 
                            "t0": 73331, 
                            "v": 92, 
                            "dur": 31, 
                            "type": "note", 
                            "channel": 12
                        }
                    ]
                ], 
                [
                    73332, 
                    [
                        {
                            "pitch": 78, 
                            "t0": 73332, 
                            "v": 104, 
                            "dur": 33, 
                            "type": "note", 
                            "channel": 12
                        }
                    ]
                ], 
                [
                    73334, 
                    [
                        {
                            "pitch": 82, 
                            "t0": 73334, 
                            "v": 112, 
                            "dur": 35, 
                            "type": "note", 
                            "channel": 12
                        }
                    ]
                ], 
                [
                    73453, 
                    [
                        {
                            "pitch": 75, 
                            "t0": 73453, 
                            "v": 116, 
                            "dur": 32, 
                            "type": "note", 
                            "channel": 12
                        }, 
                        {
                            "pitch": 78, 
                            "t0": 73453, 
                            "v": 116, 
                            "dur": 36, 
                            "type": "note", 
                            "channel": 12
                        }
                    ]
                ], 
                [
                    73454, 
                    [
                        {
                            "pitch": 82, 
                            "t0": 73454, 
                            "v": 116, 
                            "dur": 38, 
                            "type": "note", 
                            "channel": 12
                        }
                    ]
                ], 
                [
                    74062, 
                    [
                        {
                            "pitch": 75, 
                            "t0": 74062, 
                            "v": 112, 
                            "dur": 34, 
                            "type": "note", 
                            "channel": 12
                        }, 
                        {
                            "pitch": 78, 
                            "t0": 74062, 
                            "v": 112, 
                            "dur": 58, 
                            "type": "note", 
                            "channel": 12
                        }
                    ]
                ], 
                [
                    74063, 
                    [
                        {
                            "pitch": 82, 
                            "t0": 74063, 
                            "v": 120, 
                            "dur": 50, 
                            "type": "note", 
                            "channel": 12
                        }
                    ]
                ], 
                [
                    74420, 
                    [
                        {
                            "pitch": 78, 
                            "t0": 74420, 
                            "v": 116, 
                            "dur": 38, 
                            "type": "note", 
                            "channel": 12
                        }, 
                        {
                            "pitch": 82, 
                            "t0": 74420, 
                            "v": 120, 
                            "dur": 45, 
                            "type": "note", 
                            "channel": 12
                        }
                    ]
                ], 
                [
                    74421, 
                    [
                        {
                            "pitch": 75, 
                            "t0": 74421, 
                            "v": 112, 
                            "dur": 29, 
                            "type": "note", 
                            "channel": 12
                        }
                    ]
                ], 
                [
                    74651, 
                    [
                        {
                            "pitch": 78, 
                            "t0": 74651, 
                            "v": 116, 
                            "dur": 42, 
                            "type": "note", 
                            "channel": 12
                        }
                    ]
                ], 
                [
                    74652, 
                    [
                        {
                            "pitch": 82, 
                            "t0": 74652, 
                            "v": 120, 
                            "dur": 42, 
                            "type": "note", 
                            "channel": 12
                        }
                    ]
                ], 
                [
                    74655, 
                    [
                        {
                            "pitch": 75, 
                            "t0": 74655, 
                            "v": 112, 
                            "dur": 28, 
                            "type": "note", 
                            "channel": 12
                        }
                    ]
                ], 
                [
                    75133, 
                    [
                        {
                            "pitch": 78, 
                            "t0": 75133, 
                            "v": 116, 
                            "dur": 21, 
                            "type": "note", 
                            "channel": 12
                        }
                    ]
                ], 
                [
                    75134, 
                    [
                        {
                            "pitch": 82, 
                            "t0": 75134, 
                            "v": 116, 
                            "dur": 22, 
                            "type": "note", 
                            "channel": 12
                        }
                    ]
                ], 
                [
                    75135, 
                    [
                        {
                            "pitch": 75, 
                            "t0": 75135, 
                            "v": 104, 
                            "dur": 19, 
                            "type": "note", 
                            "channel": 12
                        }
                    ]
                ], 
                [
                    75192, 
                    [
                        {
                            "pitch": 78, 
                            "t0": 75192, 
                            "v": 108, 
                            "dur": 29, 
                            "type": "note", 
                            "channel": 12
                        }, 
                        {
                            "pitch": 75, 
                            "t0": 75192, 
                            "v": 108, 
                            "dur": 36, 
                            "type": "note", 
                            "channel": 12
                        }
                    ]
                ], 
                [
                    75194, 
                    [
                        {
                            "pitch": 82, 
                            "t0": 75194, 
                            "v": 120, 
                            "dur": 32, 
                            "type": "note", 
                            "channel": 12
                        }
                    ]
                ], 
                [
                    75239, 
                    [
                        {
                            "pitch": 75, 
                            "t0": 75239, 
                            "v": 64, 
                            "dur": 38, 
                            "type": "note", 
                            "channel": 12
                        }
                    ]
                ], 
                [
                    75243, 
                    [
                        {
                            "pitch": 82, 
                            "t0": 75243, 
                            "v": 88, 
                            "dur": 38, 
                            "type": "note", 
                            "channel": 12
                        }
                    ]
                ], 
                [
                    75244, 
                    [
                        {
                            "pitch": 78, 
                            "t0": 75244, 
                            "v": 100, 
                            "dur": 35, 
                            "type": "note", 
                            "channel": 12
                        }
                    ]
                ], 
                [
                    75373, 
                    [
                        {
                            "pitch": 82, 
                            "t0": 75373, 
                            "v": 120, 
                            "dur": 34, 
                            "type": "note", 
                            "channel": 12
                        }, 
                        {
                            "pitch": 78, 
                            "t0": 75373, 
                            "v": 120, 
                            "dur": 35, 
                            "type": "note", 
                            "channel": 12
                        }
                    ]
                ], 
                [
                    75374, 
                    [
                        {
                            "pitch": 75, 
                            "t0": 75374, 
                            "v": 124, 
                            "dur": 26, 
                            "type": "note", 
                            "channel": 12
                        }
                    ]
                ], 
                [
                    75977, 
                    [
                        {
                            "pitch": 78, 
                            "t0": 75977, 
                            "v": 116, 
                            "dur": 34, 
                            "type": "note", 
                            "channel": 12
                        }
                    ]
                ], 
                [
                    75978, 
                    [
                        {
                            "pitch": 75, 
                            "t0": 75978, 
                            "v": 112, 
                            "dur": 29, 
                            "type": "note", 
                            "channel": 12
                        }
                    ]
                ], 
                [
                    75979, 
                    [
                        {
                            "pitch": 82, 
                            "t0": 75979, 
                            "v": 120, 
                            "dur": 38, 
                            "type": "note", 
                            "channel": 12
                        }
                    ]
                ], 
                [
                    76333, 
                    [
                        {
                            "pitch": 82, 
                            "t0": 76333, 
                            "v": 112, 
                            "dur": 57, 
                            "type": "note", 
                            "channel": 12
                        }
                    ]
                ], 
                [
                    76334, 
                    [
                        {
                            "pitch": 78, 
                            "t0": 76334, 
                            "v": 112, 
                            "dur": 58, 
                            "type": "note", 
                            "channel": 12
                        }
                    ]
                ], 
                [
                    76339, 
                    [
                        {
                            "pitch": 75, 
                            "t0": 76339, 
                            "v": 108, 
                            "dur": 42, 
                            "type": "note", 
                            "channel": 12
                        }
                    ]
                ], 
                [
                    76569, 
                    [
                        {
                            "pitch": 75, 
                            "t0": 76569, 
                            "v": 120, 
                            "dur": 43, 
                            "type": "note", 
                            "channel": 12
                        }, 
                        {
                            "pitch": 78, 
                            "t0": 76569, 
                            "v": 116, 
                            "dur": 43, 
                            "type": "note", 
                            "channel": 12
                        }
                    ]
                ], 
                [
                    76570, 
                    [
                        {
                            "pitch": 82, 
                            "t0": 76570, 
                            "v": 116, 
                            "dur": 41, 
                            "type": "note", 
                            "channel": 12
                        }
                    ]
                ], 
                [
                    77050, 
                    [
                        {
                            "pitch": 78, 
                            "t0": 77050, 
                            "v": 112, 
                            "dur": 22, 
                            "type": "note", 
                            "channel": 12
                        }, 
                        {
                            "pitch": 82, 
                            "t0": 77050, 
                            "v": 120, 
                            "dur": 24, 
                            "type": "note", 
                            "channel": 12
                        }
                    ]
                ], 
                [
                    77051, 
                    [
                        {
                            "pitch": 75, 
                            "t0": 77051, 
                            "v": 100, 
                            "dur": 25, 
                            "type": "note", 
                            "channel": 12
                        }
                    ]
                ], 
                [
                    77108, 
                    [
                        {
                            "pitch": 78, 
                            "t0": 77108, 
                            "v": 112, 
                            "dur": 32, 
                            "type": "note", 
                            "channel": 12
                        }
                    ]
                ], 
                [
                    77110, 
                    [
                        {
                            "pitch": 75, 
                            "t0": 77110, 
                            "v": 104, 
                            "dur": 31, 
                            "type": "note", 
                            "channel": 12
                        }, 
                        {
                            "pitch": 82, 
                            "t0": 77110, 
                            "v": 120, 
                            "dur": 33, 
                            "type": "note", 
                            "channel": 12
                        }
                    ]
                ], 
                [
                    77161, 
                    [
                        {
                            "pitch": 75, 
                            "t0": 77161, 
                            "v": 88, 
                            "dur": 33, 
                            "type": "note", 
                            "channel": 12
                        }
                    ]
                ], 
                [
                    77162, 
                    [
                        {
                            "pitch": 78, 
                            "t0": 77162, 
                            "v": 104, 
                            "dur": 37, 
                            "type": "note", 
                            "channel": 12
                        }
                    ]
                ], 
                [
                    77163, 
                    [
                        {
                            "pitch": 82, 
                            "t0": 77163, 
                            "v": 104, 
                            "dur": 36, 
                            "type": "note", 
                            "channel": 12
                        }
                    ]
                ], 
                [
                    77290, 
                    [
                        {
                            "pitch": 75, 
                            "t0": 77290, 
                            "v": 116, 
                            "dur": 33, 
                            "type": "note", 
                            "channel": 12
                        }
                    ]
                ], 
                [
                    77291, 
                    [
                        {
                            "pitch": 78, 
                            "t0": 77291, 
                            "v": 120, 
                            "dur": 37, 
                            "type": "note", 
                            "channel": 12
                        }, 
                        {
                            "pitch": 82, 
                            "t0": 77291, 
                            "v": 124, 
                            "dur": 43, 
                            "type": "note", 
                            "channel": 12
                        }
                    ]
                ], 
                [
                    77901, 
                    [
                        {
                            "pitch": 78, 
                            "t0": 77901, 
                            "v": 116, 
                            "dur": 41, 
                            "type": "note", 
                            "channel": 12
                        }
                    ]
                ], 
                [
                    77902, 
                    [
                        {
                            "pitch": 75, 
                            "t0": 77902, 
                            "v": 108, 
                            "dur": 32, 
                            "type": "note", 
                            "channel": 12
                        }, 
                        {
                            "pitch": 82, 
                            "t0": 77902, 
                            "v": 124, 
                            "dur": 50, 
                            "type": "note", 
                            "channel": 12
                        }
                    ]
                ], 
                [
                    78264, 
                    [
                        {
                            "pitch": 78, 
                            "t0": 78264, 
                            "v": 116, 
                            "dur": 36, 
                            "type": "note", 
                            "channel": 12
                        }, 
                        {
                            "pitch": 82, 
                            "t0": 78264, 
                            "v": 124, 
                            "dur": 42, 
                            "type": "note", 
                            "channel": 12
                        }
                    ]
                ], 
                [
                    78265, 
                    [
                        {
                            "pitch": 75, 
                            "t0": 78265, 
                            "v": 116, 
                            "dur": 38, 
                            "type": "note", 
                            "channel": 12
                        }
                    ]
                ], 
                [
                    78498, 
                    [
                        {
                            "pitch": 78, 
                            "t0": 78498, 
                            "v": 116, 
                            "dur": 41, 
                            "type": "note", 
                            "channel": 12
                        }, 
                        {
                            "pitch": 82, 
                            "t0": 78498, 
                            "v": 120, 
                            "dur": 50, 
                            "type": "note", 
                            "channel": 12
                        }
                    ]
                ], 
                [
                    78499, 
                    [
                        {
                            "pitch": 75, 
                            "t0": 78499, 
                            "v": 112, 
                            "dur": 36, 
                            "type": "note", 
                            "channel": 12
                        }
                    ]
                ], 
                [
                    78968, 
                    [
                        {
                            "pitch": 78, 
                            "t0": 78968, 
                            "v": 116, 
                            "dur": 21, 
                            "type": "note", 
                            "channel": 12
                        }, 
                        {
                            "pitch": 82, 
                            "t0": 78968, 
                            "v": 116, 
                            "dur": 25, 
                            "type": "note", 
                            "channel": 12
                        }
                    ]
                ], 
                [
                    78969, 
                    [
                        {
                            "pitch": 75, 
                            "t0": 78969, 
                            "v": 104, 
                            "dur": 23, 
                            "type": "note", 
                            "channel": 12
                        }
                    ]
                ], 
                [
                    79017, 
                    [
                        {
                            "pitch": 75, 
                            "t0": 79017, 
                            "v": 100, 
                            "dur": 85, 
                            "type": "note", 
                            "channel": 12
                        }
                    ]
                ], 
                [
                    79021, 
                    [
                        {
                            "pitch": 78, 
                            "t0": 79021, 
                            "v": 104, 
                            "dur": 37, 
                            "type": "note", 
                            "channel": 12
                        }
                    ]
                ], 
                [
                    79023, 
                    [
                        {
                            "pitch": 82, 
                            "t0": 79023, 
                            "v": 116, 
                            "dur": 38, 
                            "type": "note", 
                            "channel": 12
                        }
                    ]
                ], 
                [
                    79072, 
                    [
                        {
                            "pitch": 78, 
                            "t0": 79072, 
                            "v": 88, 
                            "dur": 41, 
                            "type": "note", 
                            "channel": 12
                        }
                    ]
                ], 
                [
                    79075, 
                    [
                        {
                            "pitch": 82, 
                            "t0": 79075, 
                            "v": 100, 
                            "dur": 40, 
                            "type": "note", 
                            "channel": 12
                        }
                    ]
                ], 
                [
                    79202, 
                    [
                        {
                            "pitch": 75, 
                            "t0": 79202, 
                            "v": 120, 
                            "dur": 34, 
                            "type": "note", 
                            "channel": 12
                        }, 
                        {
                            "pitch": 82, 
                            "t0": 79202, 
                            "v": 120, 
                            "dur": 38, 
                            "type": "note", 
                            "channel": 12
                        }
                    ]
                ], 
                [
                    79203, 
                    [
                        {
                            "pitch": 78, 
                            "t0": 79203, 
                            "v": 124, 
                            "dur": 40, 
                            "type": "note", 
                            "channel": 12
                        }
                    ]
                ], 
                [
                    79824, 
                    [
                        {
                            "pitch": 75, 
                            "t0": 79824, 
                            "v": 112, 
                            "dur": 29, 
                            "type": "note", 
                            "channel": 12
                        }, 
                        {
                            "pitch": 78, 
                            "t0": 79824, 
                            "v": 116, 
                            "dur": 36, 
                            "type": "note", 
                            "channel": 12
                        }, 
                        {
                            "pitch": 82, 
                            "t0": 79824, 
                            "v": 124, 
                            "dur": 42, 
                            "type": "note", 
                            "channel": 12
                        }
                    ]
                ], 
                [
                    80176, 
                    [
                        {
                            "pitch": 82, 
                            "t0": 80176, 
                            "v": 124, 
                            "dur": 42, 
                            "type": "note", 
                            "channel": 12
                        }
                    ]
                ], 
                [
                    80178, 
                    [
                        {
                            "pitch": 78, 
                            "t0": 80178, 
                            "v": 116, 
                            "dur": 34, 
                            "type": "note", 
                            "channel": 12
                        }
                    ]
                ], 
                [
                    80180, 
                    [
                        {
                            "pitch": 75, 
                            "t0": 80180, 
                            "v": 116, 
                            "dur": 34, 
                            "type": "note", 
                            "channel": 12
                        }
                    ]
                ], 
                [
                    80407, 
                    [
                        {
                            "pitch": 82, 
                            "t0": 80407, 
                            "v": 116, 
                            "dur": 71, 
                            "type": "note", 
                            "channel": 12
                        }
                    ]
                ], 
                [
                    80409, 
                    [
                        {
                            "pitch": 78, 
                            "t0": 80409, 
                            "v": 112, 
                            "dur": 58, 
                            "type": "note", 
                            "channel": 12
                        }
                    ]
                ], 
                [
                    80411, 
                    [
                        {
                            "pitch": 75, 
                            "t0": 80411, 
                            "v": 112, 
                            "dur": 51, 
                            "type": "note", 
                            "channel": 12
                        }
                    ]
                ], 
                [
                    80905, 
                    [
                        {
                            "pitch": 78, 
                            "t0": 80905, 
                            "v": 116, 
                            "dur": 21, 
                            "type": "note", 
                            "channel": 12
                        }, 
                        {
                            "pitch": 82, 
                            "t0": 80905, 
                            "v": 116, 
                            "dur": 23, 
                            "type": "note", 
                            "channel": 12
                        }
                    ]
                ], 
                [
                    80907, 
                    [
                        {
                            "pitch": 75, 
                            "t0": 80907, 
                            "v": 104, 
                            "dur": 20, 
                            "type": "note", 
                            "channel": 12
                        }
                    ]
                ], 
                [
                    80959, 
                    [
                        {
                            "pitch": 82, 
                            "t0": 80959, 
                            "v": 112, 
                            "dur": 37, 
                            "type": "note", 
                            "channel": 12
                        }
                    ]
                ], 
                [
                    80961, 
                    [
                        {
                            "pitch": 75, 
                            "t0": 80961, 
                            "v": 108, 
                            "dur": 28, 
                            "type": "note", 
                            "channel": 12
                        }
                    ]
                ], 
                [
                    80962, 
                    [
                        {
                            "pitch": 78, 
                            "t0": 80962, 
                            "v": 112, 
                            "dur": 24, 
                            "type": "note", 
                            "channel": 12
                        }
                    ]
                ], 
                [
                    81011, 
                    [
                        {
                            "pitch": 82, 
                            "t0": 81011, 
                            "v": 84, 
                            "dur": 45, 
                            "type": "note", 
                            "channel": 12
                        }
                    ]
                ], 
                [
                    81012, 
                    [
                        {
                            "pitch": 78, 
                            "t0": 81012, 
                            "v": 96, 
                            "dur": 38, 
                            "type": "note", 
                            "channel": 12
                        }
                    ]
                ], 
                [
                    81014, 
                    [
                        {
                            "pitch": 75, 
                            "t0": 81014, 
                            "v": 92, 
                            "dur": 26, 
                            "type": "note", 
                            "channel": 12
                        }
                    ]
                ], 
                [
                    81141, 
                    [
                        {
                            "pitch": 75, 
                            "t0": 81141, 
                            "v": 120, 
                            "dur": 30, 
                            "type": "note", 
                            "channel": 12
                        }, 
                        {
                            "pitch": 82, 
                            "t0": 81141, 
                            "v": 116, 
                            "dur": 40, 
                            "type": "note", 
                            "channel": 12
                        }
                    ]
                ], 
                [
                    81142, 
                    [
                        {
                            "pitch": 78, 
                            "t0": 81142, 
                            "v": 116, 
                            "dur": 34, 
                            "type": "note", 
                            "channel": 12
                        }
                    ]
                ], 
                [
                    81742, 
                    [
                        {
                            "pitch": 82, 
                            "t0": 81742, 
                            "v": 124, 
                            "dur": 43, 
                            "type": "note", 
                            "channel": 12
                        }
                    ]
                ], 
                [
                    81743, 
                    [
                        {
                            "pitch": 75, 
                            "t0": 81743, 
                            "v": 108, 
                            "dur": 31, 
                            "type": "note", 
                            "channel": 12
                        }, 
                        {
                            "pitch": 78, 
                            "t0": 81743, 
                            "v": 108, 
                            "dur": 36, 
                            "type": "note", 
                            "channel": 12
                        }
                    ]
                ], 
                [
                    82094, 
                    [
                        {
                            "pitch": 78, 
                            "t0": 82094, 
                            "v": 116, 
                            "dur": 46, 
                            "type": "note", 
                            "channel": 12
                        }, 
                        {
                            "pitch": 82, 
                            "t0": 82094, 
                            "v": 120, 
                            "dur": 47, 
                            "type": "note", 
                            "channel": 12
                        }
                    ]
                ], 
                [
                    82097, 
                    [
                        {
                            "pitch": 75, 
                            "t0": 82097, 
                            "v": 108, 
                            "dur": 39, 
                            "type": "note", 
                            "channel": 12
                        }
                    ]
                ], 
                [
                    82323, 
                    [
                        {
                            "pitch": 82, 
                            "t0": 82323, 
                            "v": 120, 
                            "dur": 49, 
                            "type": "note", 
                            "channel": 12
                        }
                    ]
                ], 
                [
                    82324, 
                    [
                        {
                            "pitch": 78, 
                            "t0": 82324, 
                            "v": 120, 
                            "dur": 42, 
                            "type": "note", 
                            "channel": 12
                        }
                    ]
                ], 
                [
                    82326, 
                    [
                        {
                            "pitch": 75, 
                            "t0": 82326, 
                            "v": 112, 
                            "dur": 30, 
                            "type": "note", 
                            "channel": 12
                        }
                    ]
                ], 
                [
                    82799, 
                    [
                        {
                            "pitch": 78, 
                            "t0": 82799, 
                            "v": 112, 
                            "dur": 20, 
                            "type": "note", 
                            "channel": 12
                        }, 
                        {
                            "pitch": 82, 
                            "t0": 82799, 
                            "v": 116, 
                            "dur": 23, 
                            "type": "note", 
                            "channel": 12
                        }
                    ]
                ], 
                [
                    82800, 
                    [
                        {
                            "pitch": 75, 
                            "t0": 82800, 
                            "v": 112, 
                            "dur": 23, 
                            "type": "note", 
                            "channel": 12
                        }
                    ]
                ], 
                [
                    82860, 
                    [
                        {
                            "pitch": 75, 
                            "t0": 82860, 
                            "v": 112, 
                            "dur": 32, 
                            "type": "note", 
                            "channel": 12
                        }
                    ]
                ], 
                [
                    82862, 
                    [
                        {
                            "pitch": 82, 
                            "t0": 82862, 
                            "v": 116, 
                            "dur": 30, 
                            "type": "note", 
                            "channel": 12
                        }
                    ]
                ], 
                [
                    82863, 
                    [
                        {
                            "pitch": 78, 
                            "t0": 82863, 
                            "v": 112, 
                            "dur": 23, 
                            "type": "note", 
                            "channel": 12
                        }
                    ]
                ], 
                [
                    82909, 
                    [
                        {
                            "pitch": 75, 
                            "t0": 82909, 
                            "v": 88, 
                            "dur": 36, 
                            "type": "note", 
                            "channel": 12
                        }
                    ]
                ], 
                [
                    82911, 
                    [
                        {
                            "pitch": 78, 
                            "t0": 82911, 
                            "v": 112, 
                            "dur": 37, 
                            "type": "note", 
                            "channel": 12
                        }
                    ]
                ], 
                [
                    82912, 
                    [
                        {
                            "pitch": 82, 
                            "t0": 82912, 
                            "v": 108, 
                            "dur": 41, 
                            "type": "note", 
                            "channel": 12
                        }
                    ]
                ], 
                [
                    83040, 
                    [
                        {
                            "pitch": 75, 
                            "t0": 83040, 
                            "v": 120, 
                            "dur": 26, 
                            "type": "note", 
                            "channel": 12
                        }, 
                        {
                            "pitch": 78, 
                            "t0": 83040, 
                            "v": 120, 
                            "dur": 32, 
                            "type": "note", 
                            "channel": 12
                        }, 
                        {
                            "pitch": 82, 
                            "t0": 83040, 
                            "v": 120, 
                            "dur": 33, 
                            "type": "note", 
                            "channel": 12
                        }
                    ]
                ], 
                [
                    83657, 
                    [
                        {
                            "pitch": 75, 
                            "t0": 83657, 
                            "v": 112, 
                            "dur": 31, 
                            "type": "note", 
                            "channel": 12
                        }
                    ]
                ], 
                [
                    83658, 
                    [
                        {
                            "pitch": 78, 
                            "t0": 83658, 
                            "v": 116, 
                            "dur": 31, 
                            "type": "note", 
                            "channel": 12
                        }, 
                        {
                            "pitch": 82, 
                            "t0": 83658, 
                            "v": 120, 
                            "dur": 34, 
                            "type": "note", 
                            "channel": 12
                        }
                    ]
                ], 
                [
                    83996, 
                    [
                        {
                            "pitch": 82, 
                            "t0": 83996, 
                            "v": 124, 
                            "dur": 36, 
                            "type": "note", 
                            "channel": 12
                        }
                    ]
                ], 
                [
                    83997, 
                    [
                        {
                            "pitch": 78, 
                            "t0": 83997, 
                            "v": 116, 
                            "dur": 32, 
                            "type": "note", 
                            "channel": 12
                        }
                    ]
                ], 
                [
                    83998, 
                    [
                        {
                            "pitch": 75, 
                            "t0": 83998, 
                            "v": 108, 
                            "dur": 29, 
                            "type": "note", 
                            "channel": 12
                        }
                    ]
                ], 
                [
                    84244, 
                    [
                        {
                            "pitch": 78, 
                            "t0": 84244, 
                            "v": 112, 
                            "dur": 38, 
                            "type": "note", 
                            "channel": 12
                        }
                    ]
                ], 
                [
                    84245, 
                    [
                        {
                            "pitch": 82, 
                            "t0": 84245, 
                            "v": 120, 
                            "dur": 48, 
                            "type": "note", 
                            "channel": 12
                        }
                    ]
                ], 
                [
                    84246, 
                    [
                        {
                            "pitch": 75, 
                            "t0": 84246, 
                            "v": 112, 
                            "dur": 28, 
                            "type": "note", 
                            "channel": 12
                        }
                    ]
                ], 
                [
                    84728, 
                    [
                        {
                            "pitch": 78, 
                            "t0": 84728, 
                            "v": 112, 
                            "dur": 21, 
                            "type": "note", 
                            "channel": 12
                        }, 
                        {
                            "pitch": 75, 
                            "t0": 84728, 
                            "v": 104, 
                            "dur": 25, 
                            "type": "note", 
                            "channel": 12
                        }
                    ]
                ], 
                [
                    84729, 
                    [
                        {
                            "pitch": 82, 
                            "t0": 84729, 
                            "v": 112, 
                            "dur": 23, 
                            "type": "note", 
                            "channel": 12
                        }
                    ]
                ], 
                [
                    84788, 
                    [
                        {
                            "pitch": 75, 
                            "t0": 84788, 
                            "v": 108, 
                            "dur": 32, 
                            "type": "note", 
                            "channel": 12
                        }
                    ]
                ], 
                [
                    84789, 
                    [
                        {
                            "pitch": 82, 
                            "t0": 84789, 
                            "v": 116, 
                            "dur": 37, 
                            "type": "note", 
                            "channel": 12
                        }
                    ]
                ], 
                [
                    84791, 
                    [
                        {
                            "pitch": 78, 
                            "t0": 84791, 
                            "v": 108, 
                            "dur": 25, 
                            "type": "note", 
                            "channel": 12
                        }
                    ]
                ], 
                [
                    84839, 
                    [
                        {
                            "pitch": 75, 
                            "t0": 84839, 
                            "v": 72, 
                            "dur": 25, 
                            "type": "note", 
                            "channel": 12
                        }, 
                        {
                            "pitch": 82, 
                            "t0": 84839, 
                            "v": 72, 
                            "dur": 39, 
                            "type": "note", 
                            "channel": 12
                        }
                    ]
                ], 
                [
                    84840, 
                    [
                        {
                            "pitch": 78, 
                            "t0": 84840, 
                            "v": 108, 
                            "dur": 33, 
                            "type": "note", 
                            "channel": 12
                        }
                    ]
                ], 
                [
                    84967, 
                    [
                        {
                            "pitch": 82, 
                            "t0": 84967, 
                            "v": 120, 
                            "dur": 41, 
                            "type": "note", 
                            "channel": 12
                        }
                    ]
                ], 
                [
                    84969, 
                    [
                        {
                            "pitch": 78, 
                            "t0": 84969, 
                            "v": 116, 
                            "dur": 31, 
                            "type": "note", 
                            "channel": 12
                        }
                    ]
                ], 
                [
                    84970, 
                    [
                        {
                            "pitch": 75, 
                            "t0": 84970, 
                            "v": 116, 
                            "dur": 26, 
                            "type": "note", 
                            "channel": 12
                        }
                    ]
                ], 
                [
                    85584, 
                    [
                        {
                            "pitch": 78, 
                            "t0": 85584, 
                            "v": 112, 
                            "dur": 37, 
                            "type": "note", 
                            "channel": 12
                        }, 
                        {
                            "pitch": 82, 
                            "t0": 85584, 
                            "v": 120, 
                            "dur": 47, 
                            "type": "note", 
                            "channel": 12
                        }
                    ]
                ], 
                [
                    85585, 
                    [
                        {
                            "pitch": 75, 
                            "t0": 85585, 
                            "v": 112, 
                            "dur": 29, 
                            "type": "note", 
                            "channel": 12
                        }
                    ]
                ], 
                [
                    85940, 
                    [
                        {
                            "pitch": 78, 
                            "t0": 85940, 
                            "v": 120, 
                            "dur": 36, 
                            "type": "note", 
                            "channel": 12
                        }
                    ]
                ], 
                [
                    85941, 
                    [
                        {
                            "pitch": 75, 
                            "t0": 85941, 
                            "v": 112, 
                            "dur": 29, 
                            "type": "note", 
                            "channel": 12
                        }
                    ]
                ], 
                [
                    85942, 
                    [
                        {
                            "pitch": 82, 
                            "t0": 85942, 
                            "v": 120, 
                            "dur": 47, 
                            "type": "note", 
                            "channel": 12
                        }
                    ]
                ], 
                [
                    86169, 
                    [
                        {
                            "pitch": 82, 
                            "t0": 86169, 
                            "v": 116, 
                            "dur": 48, 
                            "type": "note", 
                            "channel": 12
                        }
                    ]
                ], 
                [
                    86170, 
                    [
                        {
                            "pitch": 78, 
                            "t0": 86170, 
                            "v": 120, 
                            "dur": 37, 
                            "type": "note", 
                            "channel": 12
                        }
                    ]
                ], 
                [
                    86172, 
                    [
                        {
                            "pitch": 75, 
                            "t0": 86172, 
                            "v": 112, 
                            "dur": 26, 
                            "type": "note", 
                            "channel": 12
                        }
                    ]
                ], 
                [
                    86640, 
                    [
                        {
                            "pitch": 78, 
                            "t0": 86640, 
                            "v": 112, 
                            "dur": 21, 
                            "type": "note", 
                            "channel": 12
                        }, 
                        {
                            "pitch": 82, 
                            "t0": 86640, 
                            "v": 112, 
                            "dur": 24, 
                            "type": "note", 
                            "channel": 12
                        }, 
                        {
                            "pitch": 75, 
                            "t0": 86640, 
                            "v": 104, 
                            "dur": 25, 
                            "type": "note", 
                            "channel": 12
                        }
                    ]
                ], 
                [
                    86698, 
                    [
                        {
                            "pitch": 78, 
                            "t0": 86698, 
                            "v": 104, 
                            "dur": 30, 
                            "type": "note", 
                            "channel": 12
                        }
                    ]
                ], 
                [
                    86699, 
                    [
                        {
                            "pitch": 75, 
                            "t0": 86699, 
                            "v": 100, 
                            "dur": 35, 
                            "type": "note", 
                            "channel": 12
                        }
                    ]
                ], 
                [
                    86700, 
                    [
                        {
                            "pitch": 82, 
                            "t0": 86700, 
                            "v": 120, 
                            "dur": 34, 
                            "type": "note", 
                            "channel": 12
                        }
                    ]
                ], 
                [
                    86745, 
                    [
                        {
                            "pitch": 75, 
                            "t0": 86745, 
                            "v": 64, 
                            "dur": 36, 
                            "type": "note", 
                            "channel": 12
                        }
                    ]
                ], 
                [
                    86747, 
                    [
                        {
                            "pitch": 82, 
                            "t0": 86747, 
                            "v": 104, 
                            "dur": 41, 
                            "type": "note", 
                            "channel": 12
                        }
                    ]
                ], 
                [
                    86748, 
                    [
                        {
                            "pitch": 78, 
                            "t0": 86748, 
                            "v": 88, 
                            "dur": 37, 
                            "type": "note", 
                            "channel": 12
                        }
                    ]
                ], 
                [
                    86874, 
                    [
                        {
                            "pitch": 75, 
                            "t0": 86874, 
                            "v": 120, 
                            "dur": 28, 
                            "type": "note", 
                            "channel": 12
                        }, 
                        {
                            "pitch": 82, 
                            "t0": 86874, 
                            "v": 120, 
                            "dur": 43, 
                            "type": "note", 
                            "channel": 12
                        }
                    ]
                ], 
                [
                    86875, 
                    [
                        {
                            "pitch": 78, 
                            "t0": 86875, 
                            "v": 120, 
                            "dur": 32, 
                            "type": "note", 
                            "channel": 12
                        }
                    ]
                ], 
                [
                    87498, 
                    [
                        {
                            "pitch": 82, 
                            "t0": 87498, 
                            "v": 112, 
                            "dur": 45, 
                            "type": "note", 
                            "channel": 12
                        }
                    ]
                ], 
                [
                    87499, 
                    [
                        {
                            "pitch": 78, 
                            "t0": 87499, 
                            "v": 112, 
                            "dur": 41, 
                            "type": "note", 
                            "channel": 12
                        }
                    ]
                ], 
                [
                    87500, 
                    [
                        {
                            "pitch": 75, 
                            "t0": 87500, 
                            "v": 112, 
                            "dur": 31, 
                            "type": "note", 
                            "channel": 12
                        }
                    ]
                ], 
                [
                    87870, 
                    [
                        {
                            "pitch": 78, 
                            "t0": 87870, 
                            "v": 116, 
                            "dur": 56, 
                            "type": "note", 
                            "channel": 12
                        }
                    ]
                ], 
                [
                    87871, 
                    [
                        {
                            "pitch": 82, 
                            "t0": 87871, 
                            "v": 112, 
                            "dur": 60, 
                            "type": "note", 
                            "channel": 12
                        }
                    ]
                ], 
                [
                    87873, 
                    [
                        {
                            "pitch": 75, 
                            "t0": 87873, 
                            "v": 104, 
                            "dur": 36, 
                            "type": "note", 
                            "channel": 12
                        }
                    ]
                ], 
                [
                    88107, 
                    [
                        {
                            "pitch": 78, 
                            "t0": 88107, 
                            "v": 120, 
                            "dur": 46, 
                            "type": "note", 
                            "channel": 12
                        }
                    ]
                ], 
                [
                    88108, 
                    [
                        {
                            "pitch": 82, 
                            "t0": 88108, 
                            "v": 116, 
                            "dur": 46, 
                            "type": "note", 
                            "channel": 12
                        }
                    ]
                ], 
                [
                    88110, 
                    [
                        {
                            "pitch": 75, 
                            "t0": 88110, 
                            "v": 116, 
                            "dur": 30, 
                            "type": "note", 
                            "channel": 12
                        }
                    ]
                ], 
                [
                    88576, 
                    [
                        {
                            "pitch": 82, 
                            "t0": 88576, 
                            "v": 104, 
                            "dur": 30, 
                            "type": "note", 
                            "channel": 12
                        }
                    ]
                ], 
                [
                    88577, 
                    [
                        {
                            "pitch": 78, 
                            "t0": 88577, 
                            "v": 112, 
                            "dur": 25, 
                            "type": "note", 
                            "channel": 12
                        }
                    ]
                ], 
                [
                    88578, 
                    [
                        {
                            "pitch": 75, 
                            "t0": 88578, 
                            "v": 112, 
                            "dur": 27, 
                            "type": "note", 
                            "channel": 12
                        }
                    ]
                ], 
                [
                    88639, 
                    [
                        {
                            "pitch": 75, 
                            "t0": 88639, 
                            "v": 104, 
                            "dur": 41, 
                            "type": "note", 
                            "channel": 12
                        }
                    ]
                ], 
                [
                    88640, 
                    [
                        {
                            "pitch": 78, 
                            "t0": 88640, 
                            "v": 104, 
                            "dur": 32, 
                            "type": "note", 
                            "channel": 12
                        }
                    ]
                ], 
                [
                    88642, 
                    [
                        {
                            "pitch": 82, 
                            "t0": 88642, 
                            "v": 100, 
                            "dur": 33, 
                            "type": "note", 
                            "channel": 12
                        }
                    ]
                ], 
                [
                    88691, 
                    [
                        {
                            "pitch": 75, 
                            "t0": 88691, 
                            "v": 72, 
                            "dur": 37, 
                            "type": "note", 
                            "channel": 12
                        }
                    ]
                ], 
                [
                    88693, 
                    [
                        {
                            "pitch": 78, 
                            "t0": 88693, 
                            "v": 84, 
                            "dur": 41, 
                            "type": "note", 
                            "channel": 12
                        }
                    ]
                ], 
                [
                    88695, 
                    [
                        {
                            "pitch": 82, 
                            "t0": 88695, 
                            "v": 76, 
                            "dur": 40, 
                            "type": "note", 
                            "channel": 12
                        }
                    ]
                ], 
                [
                    88813, 
                    [
                        {
                            "pitch": 75, 
                            "t0": 88813, 
                            "v": 112, 
                            "dur": 41, 
                            "type": "note", 
                            "channel": 12
                        }, 
                        {
                            "pitch": 82, 
                            "t0": 88813, 
                            "v": 116, 
                            "dur": 54, 
                            "type": "note", 
                            "channel": 12
                        }
                    ]
                ], 
                [
                    88814, 
                    [
                        {
                            "pitch": 78, 
                            "t0": 88814, 
                            "v": 116, 
                            "dur": 48, 
                            "type": "note", 
                            "channel": 12
                        }
                    ]
                ], 
                [
                    89430, 
                    [
                        {
                            "pitch": 78, 
                            "t0": 89430, 
                            "v": 116, 
                            "dur": 38, 
                            "type": "note", 
                            "channel": 12
                        }, 
                        {
                            "pitch": 82, 
                            "t0": 89430, 
                            "v": 116, 
                            "dur": 44, 
                            "type": "note", 
                            "channel": 12
                        }
                    ]
                ], 
                [
                    89431, 
                    [
                        {
                            "pitch": 75, 
                            "t0": 89431, 
                            "v": 112, 
                            "dur": 30, 
                            "type": "note", 
                            "channel": 12
                        }
                    ]
                ], 
                [
                    89769, 
                    [
                        {
                            "pitch": 78, 
                            "t0": 89769, 
                            "v": 112, 
                            "dur": 50, 
                            "type": "note", 
                            "channel": 12
                        }
                    ]
                ], 
                [
                    89770, 
                    [
                        {
                            "pitch": 82, 
                            "t0": 89770, 
                            "v": 116, 
                            "dur": 47, 
                            "type": "note", 
                            "channel": 12
                        }
                    ]
                ], 
                [
                    89772, 
                    [
                        {
                            "pitch": 75, 
                            "t0": 89772, 
                            "v": 108, 
                            "dur": 36, 
                            "type": "note", 
                            "channel": 12
                        }
                    ]
                ], 
                [
                    90000, 
                    [
                        {
                            "pitch": 78, 
                            "t0": 90000, 
                            "v": 112, 
                            "dur": 43, 
                            "type": "note", 
                            "channel": 12
                        }, 
                        {
                            "pitch": 82, 
                            "t0": 90000, 
                            "v": 116, 
                            "dur": 52, 
                            "type": "note", 
                            "channel": 12
                        }
                    ]
                ], 
                [
                    90003, 
                    [
                        {
                            "pitch": 75, 
                            "t0": 90003, 
                            "v": 112, 
                            "dur": 31, 
                            "type": "note", 
                            "channel": 12
                        }
                    ]
                ], 
                [
                    90488, 
                    [
                        {
                            "pitch": 78, 
                            "t0": 90488, 
                            "v": 108, 
                            "dur": 21, 
                            "type": "note", 
                            "channel": 12
                        }, 
                        {
                            "pitch": 82, 
                            "t0": 90488, 
                            "v": 104, 
                            "dur": 22, 
                            "type": "note", 
                            "channel": 12
                        }
                    ]
                ], 
                [
                    90490, 
                    [
                        {
                            "pitch": 75, 
                            "t0": 90490, 
                            "v": 100, 
                            "dur": 22, 
                            "type": "note", 
                            "channel": 12
                        }
                    ]
                ], 
                [
                    90548, 
                    [
                        {
                            "pitch": 78, 
                            "t0": 90548, 
                            "v": 112, 
                            "dur": 28, 
                            "type": "note", 
                            "channel": 12
                        }
                    ]
                ], 
                [
                    90549, 
                    [
                        {
                            "pitch": 82, 
                            "t0": 90549, 
                            "v": 112, 
                            "dur": 31, 
                            "type": "note", 
                            "channel": 12
                        }
                    ]
                ], 
                [
                    90550, 
                    [
                        {
                            "pitch": 75, 
                            "t0": 90550, 
                            "v": 104, 
                            "dur": 29, 
                            "type": "note", 
                            "channel": 12
                        }
                    ]
                ], 
                [
                    90600, 
                    [
                        {
                            "pitch": 75, 
                            "t0": 90600, 
                            "v": 84, 
                            "dur": 32, 
                            "type": "note", 
                            "channel": 12
                        }, 
                        {
                            "pitch": 82, 
                            "t0": 90600, 
                            "v": 80, 
                            "dur": 38, 
                            "type": "note", 
                            "channel": 12
                        }
                    ]
                ], 
                [
                    90601, 
                    [
                        {
                            "pitch": 78, 
                            "t0": 90601, 
                            "v": 104, 
                            "dur": 33, 
                            "type": "note", 
                            "channel": 12
                        }
                    ]
                ], 
                [
                    90728, 
                    [
                        {
                            "pitch": 78, 
                            "t0": 90728, 
                            "v": 116, 
                            "dur": 30, 
                            "type": "note", 
                            "channel": 12
                        }
                    ]
                ], 
                [
                    90729, 
                    [
                        {
                            "pitch": 75, 
                            "t0": 90729, 
                            "v": 116, 
                            "dur": 23, 
                            "type": "note", 
                            "channel": 12
                        }, 
                        {
                            "pitch": 82, 
                            "t0": 90729, 
                            "v": 120, 
                            "dur": 40, 
                            "type": "note", 
                            "channel": 12
                        }
                    ]
                ], 
                [
                    91344, 
                    [
                        {
                            "pitch": 78, 
                            "t0": 91344, 
                            "v": 112, 
                            "dur": 39, 
                            "type": "note", 
                            "channel": 12
                        }, 
                        {
                            "pitch": 82, 
                            "t0": 91344, 
                            "v": 120, 
                            "dur": 54, 
                            "type": "note", 
                            "channel": 12
                        }
                    ]
                ], 
                [
                    91345, 
                    [
                        {
                            "pitch": 75, 
                            "t0": 91345, 
                            "v": 104, 
                            "dur": 33, 
                            "type": "note", 
                            "channel": 12
                        }
                    ]
                ], 
                [
                    91705, 
                    [
                        {
                            "pitch": 82, 
                            "t0": 91705, 
                            "v": 116, 
                            "dur": 59, 
                            "type": "note", 
                            "channel": 12
                        }
                    ]
                ], 
                [
                    91706, 
                    [
                        {
                            "pitch": 78, 
                            "t0": 91706, 
                            "v": 112, 
                            "dur": 47, 
                            "type": "note", 
                            "channel": 12
                        }
                    ]
                ], 
                [
                    91707, 
                    [
                        {
                            "pitch": 75, 
                            "t0": 91707, 
                            "v": 112, 
                            "dur": 33, 
                            "type": "note", 
                            "channel": 12
                        }
                    ]
                ], 
                [
                    91938, 
                    [
                        {
                            "pitch": 78, 
                            "t0": 91938, 
                            "v": 116, 
                            "dur": 52, 
                            "type": "note", 
                            "channel": 12
                        }
                    ]
                ], 
                [
                    91940, 
                    [
                        {
                            "pitch": 75, 
                            "t0": 91940, 
                            "v": 112, 
                            "dur": 34, 
                            "type": "note", 
                            "channel": 12
                        }, 
                        {
                            "pitch": 82, 
                            "t0": 91940, 
                            "v": 124, 
                            "dur": 45, 
                            "type": "note", 
                            "channel": 12
                        }
                    ]
                ], 
                [
                    91946, 
                    [
                        {
                            "pitch": 83, 
                            "t0": 91946, 
                            "v": 84, 
                            "dur": 19, 
                            "type": "note", 
                            "channel": 12
                        }
                    ]
                ], 
                [
                    92402, 
                    [
                        {
                            "pitch": 78, 
                            "t0": 92402, 
                            "v": 104, 
                            "dur": 19, 
                            "type": "note", 
                            "channel": 12
                        }
                    ]
                ], 
                [
                    92403, 
                    [
                        {
                            "pitch": 82, 
                            "t0": 92403, 
                            "v": 108, 
                            "dur": 19, 
                            "type": "note", 
                            "channel": 12
                        }, 
                        {
                            "pitch": 75, 
                            "t0": 92403, 
                            "v": 100, 
                            "dur": 22, 
                            "type": "note", 
                            "channel": 12
                        }
                    ]
                ], 
                [
                    92461, 
                    [
                        {
                            "pitch": 75, 
                            "t0": 92461, 
                            "v": 104, 
                            "dur": 32, 
                            "type": "note", 
                            "channel": 12
                        }
                    ]
                ], 
                [
                    92462, 
                    [
                        {
                            "pitch": 78, 
                            "t0": 92462, 
                            "v": 108, 
                            "dur": 26, 
                            "type": "note", 
                            "channel": 12
                        }
                    ]
                ], 
                [
                    92464, 
                    [
                        {
                            "pitch": 82, 
                            "t0": 92464, 
                            "v": 120, 
                            "dur": 26, 
                            "type": "note", 
                            "channel": 12
                        }
                    ]
                ], 
                [
                    92513, 
                    [
                        {
                            "pitch": 78, 
                            "t0": 92513, 
                            "v": 104, 
                            "dur": 38, 
                            "type": "note", 
                            "channel": 12
                        }
                    ]
                ], 
                [
                    92515, 
                    [
                        {
                            "pitch": 75, 
                            "t0": 92515, 
                            "v": 100, 
                            "dur": 32, 
                            "type": "note", 
                            "channel": 12
                        }
                    ]
                ], 
                [
                    92516, 
                    [
                        {
                            "pitch": 82, 
                            "t0": 92516, 
                            "v": 116, 
                            "dur": 39, 
                            "type": "note", 
                            "channel": 12
                        }
                    ]
                ], 
                [
                    92640, 
                    [
                        {
                            "pitch": 78, 
                            "t0": 92640, 
                            "v": 120, 
                            "dur": 36, 
                            "type": "note", 
                            "channel": 12
                        }
                    ]
                ], 
                [
                    92641, 
                    [
                        {
                            "pitch": 75, 
                            "t0": 92641, 
                            "v": 116, 
                            "dur": 25, 
                            "type": "note", 
                            "channel": 12
                        }, 
                        {
                            "pitch": 82, 
                            "t0": 92641, 
                            "v": 127, 
                            "dur": 36, 
                            "type": "note", 
                            "channel": 12
                        }
                    ]
                ], 
                [
                    93260, 
                    [
                        {
                            "pitch": 78, 
                            "t0": 93260, 
                            "v": 116, 
                            "dur": 38, 
                            "type": "note", 
                            "channel": 12
                        }, 
                        {
                            "pitch": 82, 
                            "t0": 93260, 
                            "v": 116, 
                            "dur": 46, 
                            "type": "note", 
                            "channel": 12
                        }
                    ]
                ], 
                [
                    93261, 
                    [
                        {
                            "pitch": 75, 
                            "t0": 93261, 
                            "v": 112, 
                            "dur": 29, 
                            "type": "note", 
                            "channel": 12
                        }
                    ]
                ], 
                [
                    93610, 
                    [
                        {
                            "pitch": 82, 
                            "t0": 93610, 
                            "v": 124, 
                            "dur": 47, 
                            "type": "note", 
                            "channel": 12
                        }
                    ]
                ], 
                [
                    93611, 
                    [
                        {
                            "pitch": 78, 
                            "t0": 93611, 
                            "v": 120, 
                            "dur": 37, 
                            "type": "note", 
                            "channel": 12
                        }
                    ]
                ], 
                [
                    93612, 
                    [
                        {
                            "pitch": 75, 
                            "t0": 93612, 
                            "v": 108, 
                            "dur": 32, 
                            "type": "note", 
                            "channel": 12
                        }
                    ]
                ], 
                [
                    93846, 
                    [
                        {
                            "pitch": 82, 
                            "t0": 93846, 
                            "v": 124, 
                            "dur": 54, 
                            "type": "note", 
                            "channel": 12
                        }
                    ]
                ], 
                [
                    93847, 
                    [
                        {
                            "pitch": 78, 
                            "t0": 93847, 
                            "v": 116, 
                            "dur": 45, 
                            "type": "note", 
                            "channel": 12
                        }
                    ]
                ], 
                [
                    93848, 
                    [
                        {
                            "pitch": 75, 
                            "t0": 93848, 
                            "v": 116, 
                            "dur": 36, 
                            "type": "note", 
                            "channel": 12
                        }
                    ]
                ], 
                [
                    94327, 
                    [
                        {
                            "pitch": 82, 
                            "t0": 94327, 
                            "v": 112, 
                            "dur": 19, 
                            "type": "note", 
                            "channel": 12
                        }
                    ]
                ], 
                [
                    94328, 
                    [
                        {
                            "pitch": 78, 
                            "t0": 94328, 
                            "v": 104, 
                            "dur": 14, 
                            "type": "note", 
                            "channel": 12
                        }, 
                        {
                            "pitch": 75, 
                            "t0": 94328, 
                            "v": 104, 
                            "dur": 19, 
                            "type": "note", 
                            "channel": 12
                        }
                    ]
                ], 
                [
                    94382, 
                    [
                        {
                            "pitch": 75, 
                            "t0": 94382, 
                            "v": 108, 
                            "dur": 30, 
                            "type": "note", 
                            "channel": 12
                        }
                    ]
                ], 
                [
                    94383, 
                    [
                        {
                            "pitch": 78, 
                            "t0": 94383, 
                            "v": 108, 
                            "dur": 26, 
                            "type": "note", 
                            "channel": 12
                        }
                    ]
                ], 
                [
                    94385, 
                    [
                        {
                            "pitch": 82, 
                            "t0": 94385, 
                            "v": 116, 
                            "dur": 26, 
                            "type": "note", 
                            "channel": 12
                        }
                    ]
                ], 
                [
                    94433, 
                    [
                        {
                            "pitch": 78, 
                            "t0": 94433, 
                            "v": 112, 
                            "dur": 35, 
                            "type": "note", 
                            "channel": 12
                        }
                    ]
                ], 
                [
                    94434, 
                    [
                        {
                            "pitch": 75, 
                            "t0": 94434, 
                            "v": 100, 
                            "dur": 28, 
                            "type": "note", 
                            "channel": 12
                        }
                    ]
                ], 
                [
                    94435, 
                    [
                        {
                            "pitch": 82, 
                            "t0": 94435, 
                            "v": 112, 
                            "dur": 36, 
                            "type": "note", 
                            "channel": 12
                        }
                    ]
                ], 
                [
                    94552, 
                    [
                        {
                            "pitch": 82, 
                            "t0": 94552, 
                            "v": 120, 
                            "dur": 42, 
                            "type": "note", 
                            "channel": 12
                        }
                    ]
                ], 
                [
                    94553, 
                    [
                        {
                            "pitch": 75, 
                            "t0": 94553, 
                            "v": 112, 
                            "dur": 29, 
                            "type": "note", 
                            "channel": 12
                        }, 
                        {
                            "pitch": 78, 
                            "t0": 94553, 
                            "v": 120, 
                            "dur": 37, 
                            "type": "note", 
                            "channel": 12
                        }
                    ]
                ], 
                [
                    95172, 
                    [
                        {
                            "pitch": 75, 
                            "t0": 95172, 
                            "v": 116, 
                            "dur": 29, 
                            "type": "note", 
                            "channel": 12
                        }, 
                        {
                            "pitch": 78, 
                            "t0": 95172, 
                            "v": 120, 
                            "dur": 36, 
                            "type": "note", 
                            "channel": 12
                        }
                    ]
                ], 
                [
                    95174, 
                    [
                        {
                            "pitch": 82, 
                            "t0": 95174, 
                            "v": 120, 
                            "dur": 35, 
                            "type": "note", 
                            "channel": 12
                        }
                    ]
                ], 
                [
                    95525, 
                    [
                        {
                            "pitch": 82, 
                            "t0": 95525, 
                            "v": 112, 
                            "dur": 46, 
                            "type": "note", 
                            "channel": 12
                        }
                    ]
                ], 
                [
                    95526, 
                    [
                        {
                            "pitch": 75, 
                            "t0": 95526, 
                            "v": 116, 
                            "dur": 33, 
                            "type": "note", 
                            "channel": 12
                        }
                    ]
                ], 
                [
                    95527, 
                    [
                        {
                            "pitch": 78, 
                            "t0": 95527, 
                            "v": 112, 
                            "dur": 38, 
                            "type": "note", 
                            "channel": 12
                        }
                    ]
                ], 
                [
                    95764, 
                    [
                        {
                            "pitch": 82, 
                            "t0": 95764, 
                            "v": 120, 
                            "dur": 56, 
                            "type": "note", 
                            "channel": 12
                        }
                    ]
                ], 
                [
                    95765, 
                    [
                        {
                            "pitch": 78, 
                            "t0": 95765, 
                            "v": 120, 
                            "dur": 45, 
                            "type": "note", 
                            "channel": 12
                        }
                    ]
                ], 
                [
                    95767, 
                    [
                        {
                            "pitch": 75, 
                            "t0": 95767, 
                            "v": 116, 
                            "dur": 31, 
                            "type": "note", 
                            "channel": 12
                        }
                    ]
                ], 
                [
                    96247, 
                    [
                        {
                            "pitch": 82, 
                            "t0": 96247, 
                            "v": 120, 
                            "dur": 26, 
                            "type": "note", 
                            "channel": 12
                        }
                    ]
                ], 
                [
                    96248, 
                    [
                        {
                            "pitch": 78, 
                            "t0": 96248, 
                            "v": 108, 
                            "dur": 20, 
                            "type": "note", 
                            "channel": 12
                        }, 
                        {
                            "pitch": 75, 
                            "t0": 96248, 
                            "v": 104, 
                            "dur": 21, 
                            "type": "note", 
                            "channel": 12
                        }
                    ]
                ], 
                [
                    96306, 
                    [
                        {
                            "pitch": 78, 
                            "t0": 96306, 
                            "v": 108, 
                            "dur": 26, 
                            "type": "note", 
                            "channel": 12
                        }, 
                        {
                            "pitch": 75, 
                            "t0": 96306, 
                            "v": 104, 
                            "dur": 31, 
                            "type": "note", 
                            "channel": 12
                        }
                    ]
                ], 
                [
                    96307, 
                    [
                        {
                            "pitch": 82, 
                            "t0": 96307, 
                            "v": 108, 
                            "dur": 30, 
                            "type": "note", 
                            "channel": 12
                        }
                    ]
                ], 
                [
                    96355, 
                    [
                        {
                            "pitch": 82, 
                            "t0": 96355, 
                            "v": 84, 
                            "dur": 39, 
                            "type": "note", 
                            "channel": 12
                        }
                    ]
                ], 
                [
                    96356, 
                    [
                        {
                            "pitch": 78, 
                            "t0": 96356, 
                            "v": 112, 
                            "dur": 33, 
                            "type": "note", 
                            "channel": 12
                        }
                    ]
                ], 
                [
                    96357, 
                    [
                        {
                            "pitch": 75, 
                            "t0": 96357, 
                            "v": 92, 
                            "dur": 27, 
                            "type": "note", 
                            "channel": 12
                        }
                    ]
                ], 
                [
                    96488, 
                    [
                        {
                            "pitch": 82, 
                            "t0": 96488, 
                            "v": 124, 
                            "dur": 36, 
                            "type": "note", 
                            "channel": 12
                        }
                    ]
                ], 
                [
                    96489, 
                    [
                        {
                            "pitch": 75, 
                            "t0": 96489, 
                            "v": 120, 
                            "dur": 25, 
                            "type": "note", 
                            "channel": 12
                        }, 
                        {
                            "pitch": 78, 
                            "t0": 96489, 
                            "v": 120, 
                            "dur": 30, 
                            "type": "note", 
                            "channel": 12
                        }
                    ]
                ], 
                [
                    97095, 
                    [
                        {
                            "pitch": 78, 
                            "t0": 97095, 
                            "v": 120, 
                            "dur": 37, 
                            "type": "note", 
                            "channel": 12
                        }
                    ]
                ], 
                [
                    97096, 
                    [
                        {
                            "pitch": 82, 
                            "t0": 97096, 
                            "v": 120, 
                            "dur": 43, 
                            "type": "note", 
                            "channel": 12
                        }
                    ]
                ], 
                [
                    97097, 
                    [
                        {
                            "pitch": 75, 
                            "t0": 97097, 
                            "v": 116, 
                            "dur": 29, 
                            "type": "note", 
                            "channel": 12
                        }
                    ]
                ], 
                [
                    97453, 
                    [
                        {
                            "pitch": 82, 
                            "t0": 97453, 
                            "v": 124, 
                            "dur": 40, 
                            "type": "note", 
                            "channel": 12
                        }
                    ]
                ], 
                [
                    97454, 
                    [
                        {
                            "pitch": 78, 
                            "t0": 97454, 
                            "v": 112, 
                            "dur": 37, 
                            "type": "note", 
                            "channel": 12
                        }
                    ]
                ], 
                [
                    97457, 
                    [
                        {
                            "pitch": 75, 
                            "t0": 97457, 
                            "v": 112, 
                            "dur": 29, 
                            "type": "note", 
                            "channel": 12
                        }
                    ]
                ], 
                [
                    97683, 
                    [
                        {
                            "pitch": 78, 
                            "t0": 97683, 
                            "v": 120, 
                            "dur": 45, 
                            "type": "note", 
                            "channel": 12
                        }, 
                        {
                            "pitch": 82, 
                            "t0": 97683, 
                            "v": 124, 
                            "dur": 48, 
                            "type": "note", 
                            "channel": 12
                        }
                    ]
                ], 
                [
                    97684, 
                    [
                        {
                            "pitch": 75, 
                            "t0": 97684, 
                            "v": 108, 
                            "dur": 56, 
                            "type": "note", 
                            "channel": 12
                        }
                    ]
                ], 
                [
                    98160, 
                    [
                        {
                            "pitch": 78, 
                            "t0": 98160, 
                            "v": 112, 
                            "dur": 21, 
                            "type": "note", 
                            "channel": 12
                        }
                    ]
                ], 
                [
                    98161, 
                    [
                        {
                            "pitch": 75, 
                            "t0": 98161, 
                            "v": 108, 
                            "dur": 21, 
                            "type": "note", 
                            "channel": 12
                        }
                    ]
                ], 
                [
                    98162, 
                    [
                        {
                            "pitch": 82, 
                            "t0": 98162, 
                            "v": 116, 
                            "dur": 18, 
                            "type": "note", 
                            "channel": 12
                        }
                    ]
                ], 
                [
                    98221, 
                    [
                        {
                            "pitch": 75, 
                            "t0": 98221, 
                            "v": 104, 
                            "dur": 29, 
                            "type": "note", 
                            "channel": 12
                        }
                    ]
                ], 
                [
                    98222, 
                    [
                        {
                            "pitch": 78, 
                            "t0": 98222, 
                            "v": 108, 
                            "dur": 23, 
                            "type": "note", 
                            "channel": 12
                        }, 
                        {
                            "pitch": 82, 
                            "t0": 98222, 
                            "v": 120, 
                            "dur": 27, 
                            "type": "note", 
                            "channel": 12
                        }
                    ]
                ], 
                [
                    98272, 
                    [
                        {
                            "pitch": 75, 
                            "t0": 98272, 
                            "v": 96, 
                            "dur": 30, 
                            "type": "note", 
                            "channel": 12
                        }, 
                        {
                            "pitch": 78, 
                            "t0": 98272, 
                            "v": 96, 
                            "dur": 32, 
                            "type": "note", 
                            "channel": 12
                        }
                    ]
                ], 
                [
                    98273, 
                    [
                        {
                            "pitch": 82, 
                            "t0": 98273, 
                            "v": 112, 
                            "dur": 36, 
                            "type": "note", 
                            "channel": 12
                        }
                    ]
                ], 
                [
                    98408, 
                    [
                        {
                            "pitch": 78, 
                            "t0": 98408, 
                            "v": 124, 
                            "dur": 32, 
                            "type": "note", 
                            "channel": 12
                        }
                    ]
                ], 
                [
                    98409, 
                    [
                        {
                            "pitch": 82, 
                            "t0": 98409, 
                            "v": 124, 
                            "dur": 30, 
                            "type": "note", 
                            "channel": 12
                        }
                    ]
                ], 
                [
                    98410, 
                    [
                        {
                            "pitch": 75, 
                            "t0": 98410, 
                            "v": 120, 
                            "dur": 21, 
                            "type": "note", 
                            "channel": 12
                        }
                    ]
                ], 
                [
                    99024, 
                    [
                        {
                            "pitch": 78, 
                            "t0": 99024, 
                            "v": 116, 
                            "dur": 31, 
                            "type": "note", 
                            "channel": 12
                        }
                    ]
                ], 
                [
                    99025, 
                    [
                        {
                            "pitch": 75, 
                            "t0": 99025, 
                            "v": 116, 
                            "dur": 26, 
                            "type": "note", 
                            "channel": 12
                        }, 
                        {
                            "pitch": 82, 
                            "t0": 99025, 
                            "v": 124, 
                            "dur": 35, 
                            "type": "note", 
                            "channel": 12
                        }
                    ]
                ], 
                [
                    99385, 
                    [
                        {
                            "pitch": 82, 
                            "t0": 99385, 
                            "v": 124, 
                            "dur": 40, 
                            "type": "note", 
                            "channel": 12
                        }
                    ]
                ], 
                [
                    99386, 
                    [
                        {
                            "pitch": 78, 
                            "t0": 99386, 
                            "v": 120, 
                            "dur": 32, 
                            "type": "note", 
                            "channel": 12
                        }
                    ]
                ], 
                [
                    99387, 
                    [
                        {
                            "pitch": 75, 
                            "t0": 99387, 
                            "v": 116, 
                            "dur": 28, 
                            "type": "note", 
                            "channel": 12
                        }
                    ]
                ], 
                [
                    99618, 
                    [
                        {
                            "pitch": 78, 
                            "t0": 99618, 
                            "v": 116, 
                            "dur": 33, 
                            "type": "note", 
                            "channel": 12
                        }
                    ]
                ], 
                [
                    99619, 
                    [
                        {
                            "pitch": 75, 
                            "t0": 99619, 
                            "v": 116, 
                            "dur": 26, 
                            "type": "note", 
                            "channel": 12
                        }, 
                        {
                            "pitch": 82, 
                            "t0": 99619, 
                            "v": 124, 
                            "dur": 32, 
                            "type": "note", 
                            "channel": 12
                        }
                    ]
                ], 
                [
                    100092, 
                    [
                        {
                            "pitch": 82, 
                            "t0": 100092, 
                            "v": 108, 
                            "dur": 22, 
                            "type": "note", 
                            "channel": 12
                        }, 
                        {
                            "pitch": 78, 
                            "t0": 100092, 
                            "v": 108, 
                            "dur": 22, 
                            "type": "note", 
                            "channel": 12
                        }
                    ]
                ], 
                [
                    100094, 
                    [
                        {
                            "pitch": 75, 
                            "t0": 100094, 
                            "v": 80, 
                            "dur": 21, 
                            "type": "note", 
                            "channel": 12
                        }
                    ]
                ], 
                [
                    100150, 
                    [
                        {
                            "pitch": 78, 
                            "t0": 100150, 
                            "v": 112, 
                            "dur": 27, 
                            "type": "note", 
                            "channel": 12
                        }
                    ]
                ], 
                [
                    100151, 
                    [
                        {
                            "pitch": 75, 
                            "t0": 100151, 
                            "v": 108, 
                            "dur": 29, 
                            "type": "note", 
                            "channel": 12
                        }
                    ]
                ], 
                [
                    100152, 
                    [
                        {
                            "pitch": 82, 
                            "t0": 100152, 
                            "v": 120, 
                            "dur": 29, 
                            "type": "note", 
                            "channel": 12
                        }
                    ]
                ], 
                [
                    100203, 
                    [
                        {
                            "pitch": 75, 
                            "t0": 100203, 
                            "v": 96, 
                            "dur": 33, 
                            "type": "note", 
                            "channel": 12
                        }
                    ]
                ], 
                [
                    100204, 
                    [
                        {
                            "pitch": 78, 
                            "t0": 100204, 
                            "v": 100, 
                            "dur": 31, 
                            "type": "note", 
                            "channel": 12
                        }
                    ]
                ], 
                [
                    100205, 
                    [
                        {
                            "pitch": 82, 
                            "t0": 100205, 
                            "v": 108, 
                            "dur": 35, 
                            "type": "note", 
                            "channel": 12
                        }
                    ]
                ], 
                [
                    100333, 
                    [
                        {
                            "pitch": 82, 
                            "t0": 100333, 
                            "v": 120, 
                            "dur": 35, 
                            "type": "note", 
                            "channel": 12
                        }
                    ]
                ], 
                [
                    100334, 
                    [
                        {
                            "pitch": 75, 
                            "t0": 100334, 
                            "v": 116, 
                            "dur": 27, 
                            "type": "note", 
                            "channel": 12
                        }, 
                        {
                            "pitch": 78, 
                            "t0": 100334, 
                            "v": 116, 
                            "dur": 33, 
                            "type": "note", 
                            "channel": 12
                        }
                    ]
                ], 
                [
                    100338, 
                    [
                        {
                            "pitch": 80, 
                            "t0": 100338, 
                            "v": 104, 
                            "dur": 12, 
                            "type": "note", 
                            "channel": 12
                        }
                    ]
                ], 
                [
                    100925, 
                    [
                        {
                            "pitch": 78, 
                            "t0": 100925, 
                            "v": 116, 
                            "dur": 39, 
                            "type": "note", 
                            "channel": 12
                        }
                    ]
                ], 
                [
                    100926, 
                    [
                        {
                            "pitch": 82, 
                            "t0": 100926, 
                            "v": 124, 
                            "dur": 42, 
                            "type": "note", 
                            "channel": 12
                        }
                    ]
                ], 
                [
                    100927, 
                    [
                        {
                            "pitch": 75, 
                            "t0": 100927, 
                            "v": 112, 
                            "dur": 30, 
                            "type": "note", 
                            "channel": 12
                        }
                    ]
                ], 
                [
                    101287, 
                    [
                        {
                            "pitch": 78, 
                            "t0": 101287, 
                            "v": 120, 
                            "dur": 35, 
                            "type": "note", 
                            "channel": 12
                        }
                    ]
                ], 
                [
                    101288, 
                    [
                        {
                            "pitch": 82, 
                            "t0": 101288, 
                            "v": 124, 
                            "dur": 41, 
                            "type": "note", 
                            "channel": 12
                        }
                    ]
                ], 
                [
                    101289, 
                    [
                        {
                            "pitch": 75, 
                            "t0": 101289, 
                            "v": 108, 
                            "dur": 32, 
                            "type": "note", 
                            "channel": 12
                        }
                    ]
                ], 
                [
                    101517, 
                    [
                        {
                            "pitch": 78, 
                            "t0": 101517, 
                            "v": 116, 
                            "dur": 41, 
                            "type": "note", 
                            "channel": 12
                        }
                    ]
                ], 
                [
                    101518, 
                    [
                        {
                            "pitch": 75, 
                            "t0": 101518, 
                            "v": 116, 
                            "dur": 41, 
                            "type": "note", 
                            "channel": 12
                        }, 
                        {
                            "pitch": 82, 
                            "t0": 101518, 
                            "v": 116, 
                            "dur": 47, 
                            "type": "note", 
                            "channel": 12
                        }
                    ]
                ], 
                [
                    102013, 
                    [
                        {
                            "pitch": 82, 
                            "t0": 102013, 
                            "v": 120, 
                            "dur": 23, 
                            "type": "note", 
                            "channel": 12
                        }
                    ]
                ], 
                [
                    102014, 
                    [
                        {
                            "pitch": 78, 
                            "t0": 102014, 
                            "v": 100, 
                            "dur": 18, 
                            "type": "note", 
                            "channel": 12
                        }
                    ]
                ], 
                [
                    102015, 
                    [
                        {
                            "pitch": 75, 
                            "t0": 102015, 
                            "v": 100, 
                            "dur": 21, 
                            "type": "note", 
                            "channel": 12
                        }
                    ]
                ], 
                [
                    102072, 
                    [
                        {
                            "pitch": 78, 
                            "t0": 102072, 
                            "v": 112, 
                            "dur": 27, 
                            "type": "note", 
                            "channel": 12
                        }, 
                        {
                            "pitch": 82, 
                            "t0": 102072, 
                            "v": 116, 
                            "dur": 30, 
                            "type": "note", 
                            "channel": 12
                        }, 
                        {
                            "pitch": 75, 
                            "t0": 102072, 
                            "v": 104, 
                            "dur": 32, 
                            "type": "note", 
                            "channel": 12
                        }
                    ]
                ], 
                [
                    102124, 
                    [
                        {
                            "pitch": 78, 
                            "t0": 102124, 
                            "v": 100, 
                            "dur": 36, 
                            "type": "note", 
                            "channel": 12
                        }
                    ]
                ], 
                [
                    102125, 
                    [
                        {
                            "pitch": 75, 
                            "t0": 102125, 
                            "v": 88, 
                            "dur": 29, 
                            "type": "note", 
                            "channel": 12
                        }
                    ]
                ], 
                [
                    102126, 
                    [
                        {
                            "pitch": 82, 
                            "t0": 102126, 
                            "v": 116, 
                            "dur": 37, 
                            "type": "note", 
                            "channel": 12
                        }
                    ]
                ], 
                [
                    102255, 
                    [
                        {
                            "pitch": 78, 
                            "t0": 102255, 
                            "v": 116, 
                            "dur": 37, 
                            "type": "note", 
                            "channel": 12
                        }
                    ]
                ], 
                [
                    102256, 
                    [
                        {
                            "pitch": 75, 
                            "t0": 102256, 
                            "v": 116, 
                            "dur": 30, 
                            "type": "note", 
                            "channel": 12
                        }, 
                        {
                            "pitch": 82, 
                            "t0": 102256, 
                            "v": 120, 
                            "dur": 35, 
                            "type": "note", 
                            "channel": 12
                        }
                    ]
                ], 
                [
                    102864, 
                    [
                        {
                            "pitch": 78, 
                            "t0": 102864, 
                            "v": 120, 
                            "dur": 35, 
                            "type": "note", 
                            "channel": 12
                        }
                    ]
                ], 
                [
                    102865, 
                    [
                        {
                            "pitch": 82, 
                            "t0": 102865, 
                            "v": 124, 
                            "dur": 40, 
                            "type": "note", 
                            "channel": 12
                        }
                    ]
                ], 
                [
                    102866, 
                    [
                        {
                            "pitch": 75, 
                            "t0": 102866, 
                            "v": 112, 
                            "dur": 30, 
                            "type": "note", 
                            "channel": 12
                        }
                    ]
                ], 
                [
                    103209, 
                    [
                        {
                            "pitch": 82, 
                            "t0": 103209, 
                            "v": 120, 
                            "dur": 47, 
                            "type": "note", 
                            "channel": 12
                        }
                    ]
                ], 
                [
                    103210, 
                    [
                        {
                            "pitch": 75, 
                            "t0": 103210, 
                            "v": 116, 
                            "dur": 38, 
                            "type": "note", 
                            "channel": 12
                        }
                    ]
                ], 
                [
                    103211, 
                    [
                        {
                            "pitch": 78, 
                            "t0": 103211, 
                            "v": 108, 
                            "dur": 33, 
                            "type": "note", 
                            "channel": 12
                        }
                    ]
                ], 
                [
                    103446, 
                    [
                        {
                            "pitch": 82, 
                            "t0": 103446, 
                            "v": 127, 
                            "dur": 51, 
                            "type": "note", 
                            "channel": 12
                        }
                    ]
                ], 
                [
                    103447, 
                    [
                        {
                            "pitch": 78, 
                            "t0": 103447, 
                            "v": 120, 
                            "dur": 42, 
                            "type": "note", 
                            "channel": 12
                        }
                    ]
                ], 
                [
                    103449, 
                    [
                        {
                            "pitch": 75, 
                            "t0": 103449, 
                            "v": 116, 
                            "dur": 36, 
                            "type": "note", 
                            "channel": 12
                        }
                    ]
                ], 
                [
                    103928, 
                    [
                        {
                            "pitch": 78, 
                            "t0": 103928, 
                            "v": 96, 
                            "dur": 16, 
                            "type": "note", 
                            "channel": 12
                        }, 
                        {
                            "pitch": 82, 
                            "t0": 103928, 
                            "v": 116, 
                            "dur": 19, 
                            "type": "note", 
                            "channel": 12
                        }
                    ]
                ], 
                [
                    103930, 
                    [
                        {
                            "pitch": 75, 
                            "t0": 103930, 
                            "v": 92, 
                            "dur": 18, 
                            "type": "note", 
                            "channel": 12
                        }
                    ]
                ], 
                [
                    103980, 
                    [
                        {
                            "pitch": 75, 
                            "t0": 103980, 
                            "v": 108, 
                            "dur": 34, 
                            "type": "note", 
                            "channel": 12
                        }
                    ]
                ], 
                [
                    103984, 
                    [
                        {
                            "pitch": 78, 
                            "t0": 103984, 
                            "v": 116, 
                            "dur": 26, 
                            "type": "note", 
                            "channel": 12
                        }, 
                        {
                            "pitch": 82, 
                            "t0": 103984, 
                            "v": 116, 
                            "dur": 30, 
                            "type": "note", 
                            "channel": 12
                        }
                    ]
                ], 
                [
                    104040, 
                    [
                        {
                            "pitch": 75, 
                            "t0": 104040, 
                            "v": 92, 
                            "dur": 33, 
                            "type": "note", 
                            "channel": 12
                        }
                    ]
                ], 
                [
                    104041, 
                    [
                        {
                            "pitch": 78, 
                            "t0": 104041, 
                            "v": 108, 
                            "dur": 34, 
                            "type": "note", 
                            "channel": 12
                        }
                    ]
                ], 
                [
                    104042, 
                    [
                        {
                            "pitch": 82, 
                            "t0": 104042, 
                            "v": 108, 
                            "dur": 37, 
                            "type": "note", 
                            "channel": 12
                        }
                    ]
                ], 
                [
                    104171, 
                    [
                        {
                            "pitch": 78, 
                            "t0": 104171, 
                            "v": 124, 
                            "dur": 33, 
                            "type": "note", 
                            "channel": 12
                        }
                    ]
                ], 
                [
                    104172, 
                    [
                        {
                            "pitch": 75, 
                            "t0": 104172, 
                            "v": 116, 
                            "dur": 25, 
                            "type": "note", 
                            "channel": 12
                        }, 
                        {
                            "pitch": 82, 
                            "t0": 104172, 
                            "v": 120, 
                            "dur": 32, 
                            "type": "note", 
                            "channel": 12
                        }
                    ]
                ], 
                [
                    104774, 
                    [
                        {
                            "pitch": 75, 
                            "t0": 104774, 
                            "v": 108, 
                            "dur": 31, 
                            "type": "note", 
                            "channel": 12
                        }, 
                        {
                            "pitch": 78, 
                            "t0": 104774, 
                            "v": 112, 
                            "dur": 33, 
                            "type": "note", 
                            "channel": 12
                        }, 
                        {
                            "pitch": 82, 
                            "t0": 104774, 
                            "v": 124, 
                            "dur": 40, 
                            "type": "note", 
                            "channel": 12
                        }
                    ]
                ], 
                [
                    105137, 
                    [
                        {
                            "pitch": 82, 
                            "t0": 105137, 
                            "v": 116, 
                            "dur": 39, 
                            "type": "note", 
                            "channel": 12
                        }
                    ]
                ], 
                [
                    105138, 
                    [
                        {
                            "pitch": 78, 
                            "t0": 105138, 
                            "v": 112, 
                            "dur": 32, 
                            "type": "note", 
                            "channel": 12
                        }, 
                        {
                            "pitch": 75, 
                            "t0": 105138, 
                            "v": 116, 
                            "dur": 37, 
                            "type": "note", 
                            "channel": 12
                        }
                    ]
                ], 
                [
                    105363, 
                    [
                        {
                            "pitch": 82, 
                            "t0": 105363, 
                            "v": 116, 
                            "dur": 38, 
                            "type": "note", 
                            "channel": 12
                        }, 
                        {
                            "pitch": 78, 
                            "t0": 105363, 
                            "v": 116, 
                            "dur": 41, 
                            "type": "note", 
                            "channel": 12
                        }
                    ]
                ], 
                [
                    105364, 
                    [
                        {
                            "pitch": 75, 
                            "t0": 105364, 
                            "v": 112, 
                            "dur": 31, 
                            "type": "note", 
                            "channel": 12
                        }
                    ]
                ], 
                [
                    105839, 
                    [
                        {
                            "pitch": 82, 
                            "t0": 105839, 
                            "v": 112, 
                            "dur": 25, 
                            "type": "note", 
                            "channel": 12
                        }
                    ]
                ], 
                [
                    105841, 
                    [
                        {
                            "pitch": 78, 
                            "t0": 105841, 
                            "v": 96, 
                            "dur": 17, 
                            "type": "note", 
                            "channel": 12
                        }
                    ]
                ], 
                [
                    105842, 
                    [
                        {
                            "pitch": 75, 
                            "t0": 105842, 
                            "v": 84, 
                            "dur": 19, 
                            "type": "note", 
                            "channel": 12
                        }
                    ]
                ], 
                [
                    105902, 
                    [
                        {
                            "pitch": 75, 
                            "t0": 105902, 
                            "v": 100, 
                            "dur": 26, 
                            "type": "note", 
                            "channel": 12
                        }, 
                        {
                            "pitch": 82, 
                            "t0": 105902, 
                            "v": 120, 
                            "dur": 32, 
                            "type": "note", 
                            "channel": 12
                        }
                    ]
                ], 
                [
                    105903, 
                    [
                        {
                            "pitch": 78, 
                            "t0": 105903, 
                            "v": 108, 
                            "dur": 23, 
                            "type": "note", 
                            "channel": 12
                        }
                    ]
                ], 
                [
                    105951, 
                    [
                        {
                            "pitch": 78, 
                            "t0": 105951, 
                            "v": 100, 
                            "dur": 33, 
                            "type": "note", 
                            "channel": 12
                        }, 
                        {
                            "pitch": 82, 
                            "t0": 105951, 
                            "v": 80, 
                            "dur": 37, 
                            "type": "note", 
                            "channel": 12
                        }
                    ]
                ], 
                [
                    105953, 
                    [
                        {
                            "pitch": 75, 
                            "t0": 105953, 
                            "v": 92, 
                            "dur": 29, 
                            "type": "note", 
                            "channel": 12
                        }
                    ]
                ], 
                [
                    106077, 
                    [
                        {
                            "pitch": 82, 
                            "t0": 106077, 
                            "v": 120, 
                            "dur": 41, 
                            "type": "note", 
                            "channel": 12
                        }
                    ]
                ], 
                [
                    106078, 
                    [
                        {
                            "pitch": 78, 
                            "t0": 106078, 
                            "v": 116, 
                            "dur": 30, 
                            "type": "note", 
                            "channel": 12
                        }, 
                        {
                            "pitch": 75, 
                            "t0": 106078, 
                            "v": 112, 
                            "dur": 30, 
                            "type": "note", 
                            "channel": 12
                        }
                    ]
                ], 
                [
                    106690, 
                    [
                        {
                            "pitch": 82, 
                            "t0": 106690, 
                            "v": 120, 
                            "dur": 47, 
                            "type": "note", 
                            "channel": 12
                        }
                    ]
                ], 
                [
                    106691, 
                    [
                        {
                            "pitch": 75, 
                            "t0": 106691, 
                            "v": 112, 
                            "dur": 30, 
                            "type": "note", 
                            "channel": 12
                        }, 
                        {
                            "pitch": 78, 
                            "t0": 106691, 
                            "v": 116, 
                            "dur": 37, 
                            "type": "note", 
                            "channel": 12
                        }
                    ]
                ], 
                [
                    107057, 
                    [
                        {
                            "pitch": 82, 
                            "t0": 107057, 
                            "v": 116, 
                            "dur": 50, 
                            "type": "note", 
                            "channel": 12
                        }
                    ]
                ], 
                [
                    107058, 
                    [
                        {
                            "pitch": 75, 
                            "t0": 107058, 
                            "v": 112, 
                            "dur": 42, 
                            "type": "note", 
                            "channel": 12
                        }
                    ]
                ], 
                [
                    107060, 
                    [
                        {
                            "pitch": 78, 
                            "t0": 107060, 
                            "v": 112, 
                            "dur": 35, 
                            "type": "note", 
                            "channel": 12
                        }
                    ]
                ], 
                [
                    107295, 
                    [
                        {
                            "pitch": 82, 
                            "t0": 107295, 
                            "v": 124, 
                            "dur": 49, 
                            "type": "note", 
                            "channel": 12
                        }
                    ]
                ], 
                [
                    107297, 
                    [
                        {
                            "pitch": 78, 
                            "t0": 107297, 
                            "v": 112, 
                            "dur": 37, 
                            "type": "note", 
                            "channel": 12
                        }
                    ]
                ], 
                [
                    107298, 
                    [
                        {
                            "pitch": 75, 
                            "t0": 107298, 
                            "v": 112, 
                            "dur": 32, 
                            "type": "note", 
                            "channel": 12
                        }
                    ]
                ], 
                [
                    107771, 
                    [
                        {
                            "pitch": 78, 
                            "t0": 107771, 
                            "v": 112, 
                            "dur": 21, 
                            "type": "note", 
                            "channel": 12
                        }, 
                        {
                            "pitch": 82, 
                            "t0": 107771, 
                            "v": 127, 
                            "dur": 24, 
                            "type": "note", 
                            "channel": 12
                        }
                    ]
                ], 
                [
                    107772, 
                    [
                        {
                            "pitch": 75, 
                            "t0": 107772, 
                            "v": 108, 
                            "dur": 24, 
                            "type": "note", 
                            "channel": 12
                        }
                    ]
                ], 
                [
                    107828, 
                    [
                        {
                            "pitch": 75, 
                            "t0": 107828, 
                            "v": 104, 
                            "dur": 31, 
                            "type": "note", 
                            "channel": 12
                        }
                    ]
                ], 
                [
                    107829, 
                    [
                        {
                            "pitch": 78, 
                            "t0": 107829, 
                            "v": 108, 
                            "dur": 27, 
                            "type": "note", 
                            "channel": 12
                        }, 
                        {
                            "pitch": 82, 
                            "t0": 107829, 
                            "v": 120, 
                            "dur": 33, 
                            "type": "note", 
                            "channel": 12
                        }
                    ]
                ], 
                [
                    107881, 
                    [
                        {
                            "pitch": 75, 
                            "t0": 107881, 
                            "v": 88, 
                            "dur": 34, 
                            "type": "note", 
                            "channel": 12
                        }, 
                        {
                            "pitch": 78, 
                            "t0": 107881, 
                            "v": 100, 
                            "dur": 37, 
                            "type": "note", 
                            "channel": 12
                        }
                    ]
                ], 
                [
                    107883, 
                    [
                        {
                            "pitch": 82, 
                            "t0": 107883, 
                            "v": 116, 
                            "dur": 39, 
                            "type": "note", 
                            "channel": 12
                        }
                    ]
                ], 
                [
                    108019, 
                    [
                        {
                            "pitch": 82, 
                            "t0": 108019, 
                            "v": 127, 
                            "dur": 31, 
                            "type": "note", 
                            "channel": 12
                        }
                    ]
                ], 
                [
                    108020, 
                    [
                        {
                            "pitch": 75, 
                            "t0": 108020, 
                            "v": 116, 
                            "dur": 23, 
                            "type": "note", 
                            "channel": 12
                        }, 
                        {
                            "pitch": 78, 
                            "t0": 108020, 
                            "v": 112, 
                            "dur": 28, 
                            "type": "note", 
                            "channel": 12
                        }
                    ]
                ], 
                [
                    108627, 
                    [
                        {
                            "pitch": 78, 
                            "t0": 108627, 
                            "v": 120, 
                            "dur": 35, 
                            "type": "note", 
                            "channel": 12
                        }
                    ]
                ], 
                [
                    108628, 
                    [
                        {
                            "pitch": 75, 
                            "t0": 108628, 
                            "v": 112, 
                            "dur": 33, 
                            "type": "note", 
                            "channel": 12
                        }
                    ]
                ], 
                [
                    108629, 
                    [
                        {
                            "pitch": 82, 
                            "t0": 108629, 
                            "v": 124, 
                            "dur": 41, 
                            "type": "note", 
                            "channel": 12
                        }
                    ]
                ], 
                [
                    108976, 
                    [
                        {
                            "pitch": 78, 
                            "t0": 108976, 
                            "v": 112, 
                            "dur": 44, 
                            "type": "note", 
                            "channel": 12
                        }
                    ]
                ], 
                [
                    108977, 
                    [
                        {
                            "pitch": 82, 
                            "t0": 108977, 
                            "v": 116, 
                            "dur": 54, 
                            "type": "note", 
                            "channel": 12
                        }
                    ]
                ], 
                [
                    108979, 
                    [
                        {
                            "pitch": 75, 
                            "t0": 108979, 
                            "v": 108, 
                            "dur": 32, 
                            "type": "note", 
                            "channel": 12
                        }
                    ]
                ], 
                [
                    109208, 
                    [
                        {
                            "pitch": 82, 
                            "t0": 109208, 
                            "v": 124, 
                            "dur": 55, 
                            "type": "note", 
                            "channel": 12
                        }
                    ]
                ], 
                [
                    109209, 
                    [
                        {
                            "pitch": 75, 
                            "t0": 109209, 
                            "v": 108, 
                            "dur": 34, 
                            "type": "note", 
                            "channel": 12
                        }, 
                        {
                            "pitch": 78, 
                            "t0": 109209, 
                            "v": 116, 
                            "dur": 44, 
                            "type": "note", 
                            "channel": 12
                        }
                    ]
                ], 
                [
                    109687, 
                    [
                        {
                            "pitch": 78, 
                            "t0": 109687, 
                            "v": 108, 
                            "dur": 21, 
                            "type": "note", 
                            "channel": 12
                        }, 
                        {
                            "pitch": 82, 
                            "t0": 109687, 
                            "v": 112, 
                            "dur": 23, 
                            "type": "note", 
                            "channel": 12
                        }
                    ]
                ], 
                [
                    109688, 
                    [
                        {
                            "pitch": 75, 
                            "t0": 109688, 
                            "v": 100, 
                            "dur": 22, 
                            "type": "note", 
                            "channel": 12
                        }
                    ]
                ], 
                [
                    109740, 
                    [
                        {
                            "pitch": 75, 
                            "t0": 109740, 
                            "v": 104, 
                            "dur": 34, 
                            "type": "note", 
                            "channel": 12
                        }
                    ]
                ], 
                [
                    109742, 
                    [
                        {
                            "pitch": 78, 
                            "t0": 109742, 
                            "v": 112, 
                            "dur": 31, 
                            "type": "note", 
                            "channel": 12
                        }
                    ]
                ], 
                [
                    109744, 
                    [
                        {
                            "pitch": 82, 
                            "t0": 109744, 
                            "v": 112, 
                            "dur": 32, 
                            "type": "note", 
                            "channel": 12
                        }
                    ]
                ], 
                [
                    109792, 
                    [
                        {
                            "pitch": 78, 
                            "t0": 109792, 
                            "v": 80, 
                            "dur": 38, 
                            "type": "note", 
                            "channel": 12
                        }
                    ]
                ], 
                [
                    109795, 
                    [
                        {
                            "pitch": 82, 
                            "t0": 109795, 
                            "v": 84, 
                            "dur": 39, 
                            "type": "note", 
                            "channel": 12
                        }
                    ]
                ], 
                [
                    109797, 
                    [
                        {
                            "pitch": 75, 
                            "t0": 109797, 
                            "v": 72, 
                            "dur": 22, 
                            "type": "note", 
                            "channel": 12
                        }
                    ]
                ], 
                [
                    109921, 
                    [
                        {
                            "pitch": 75, 
                            "t0": 109921, 
                            "v": 120, 
                            "dur": 29, 
                            "type": "note", 
                            "channel": 12
                        }
                    ]
                ], 
                [
                    109922, 
                    [
                        {
                            "pitch": 78, 
                            "t0": 109922, 
                            "v": 116, 
                            "dur": 34, 
                            "type": "note", 
                            "channel": 12
                        }, 
                        {
                            "pitch": 82, 
                            "t0": 109922, 
                            "v": 120, 
                            "dur": 39, 
                            "type": "note", 
                            "channel": 12
                        }
                    ]
                ], 
                [
                    110541, 
                    [
                        {
                            "pitch": 78, 
                            "t0": 110541, 
                            "v": 108, 
                            "dur": 33, 
                            "type": "note", 
                            "channel": 12
                        }
                    ]
                ], 
                [
                    110542, 
                    [
                        {
                            "pitch": 82, 
                            "t0": 110542, 
                            "v": 120, 
                            "dur": 44, 
                            "type": "note", 
                            "channel": 12
                        }
                    ]
                ], 
                [
                    110543, 
                    [
                        {
                            "pitch": 75, 
                            "t0": 110543, 
                            "v": 112, 
                            "dur": 29, 
                            "type": "note", 
                            "channel": 12
                        }
                    ]
                ], 
                [
                    110905, 
                    [
                        {
                            "pitch": 78, 
                            "t0": 110905, 
                            "v": 116, 
                            "dur": 35, 
                            "type": "note", 
                            "channel": 12
                        }
                    ]
                ], 
                [
                    110906, 
                    [
                        {
                            "pitch": 82, 
                            "t0": 110906, 
                            "v": 120, 
                            "dur": 39, 
                            "type": "note", 
                            "channel": 12
                        }
                    ]
                ], 
                [
                    110907, 
                    [
                        {
                            "pitch": 75, 
                            "t0": 110907, 
                            "v": 112, 
                            "dur": 28, 
                            "type": "note", 
                            "channel": 12
                        }
                    ]
                ], 
                [
                    111132, 
                    [
                        {
                            "pitch": 82, 
                            "t0": 111132, 
                            "v": 116, 
                            "dur": 38, 
                            "type": "note", 
                            "channel": 12
                        }, 
                        {
                            "pitch": 78, 
                            "t0": 111132, 
                            "v": 120, 
                            "dur": 40, 
                            "type": "note", 
                            "channel": 12
                        }
                    ]
                ], 
                [
                    111134, 
                    [
                        {
                            "pitch": 75, 
                            "t0": 111134, 
                            "v": 116, 
                            "dur": 32, 
                            "type": "note", 
                            "channel": 12
                        }
                    ]
                ], 
                [
                    111608, 
                    [
                        {
                            "pitch": 82, 
                            "t0": 111608, 
                            "v": 112, 
                            "dur": 25, 
                            "type": "note", 
                            "channel": 12
                        }
                    ]
                ], 
                [
                    111609, 
                    [
                        {
                            "pitch": 78, 
                            "t0": 111609, 
                            "v": 112, 
                            "dur": 22, 
                            "type": "note", 
                            "channel": 12
                        }
                    ]
                ], 
                [
                    111612, 
                    [
                        {
                            "pitch": 75, 
                            "t0": 111612, 
                            "v": 104, 
                            "dur": 20, 
                            "type": "note", 
                            "channel": 12
                        }
                    ]
                ], 
                [
                    111670, 
                    [
                        {
                            "pitch": 78, 
                            "t0": 111670, 
                            "v": 100, 
                            "dur": 26, 
                            "type": "note", 
                            "channel": 12
                        }
                    ]
                ], 
                [
                    111671, 
                    [
                        {
                            "pitch": 82, 
                            "t0": 111671, 
                            "v": 108, 
                            "dur": 26, 
                            "type": "note", 
                            "channel": 12
                        }
                    ]
                ], 
                [
                    111672, 
                    [
                        {
                            "pitch": 75, 
                            "t0": 111672, 
                            "v": 108, 
                            "dur": 24, 
                            "type": "note", 
                            "channel": 12
                        }
                    ]
                ], 
                [
                    111719, 
                    [
                        {
                            "pitch": 78, 
                            "t0": 111719, 
                            "v": 108, 
                            "dur": 35, 
                            "type": "note", 
                            "channel": 12
                        }
                    ]
                ], 
                [
                    111720, 
                    [
                        {
                            "pitch": 82, 
                            "t0": 111720, 
                            "v": 92, 
                            "dur": 38, 
                            "type": "note", 
                            "channel": 12
                        }
                    ]
                ], 
                [
                    111721, 
                    [
                        {
                            "pitch": 75, 
                            "t0": 111721, 
                            "v": 88, 
                            "dur": 27, 
                            "type": "note", 
                            "channel": 12
                        }
                    ]
                ], 
                [
                    111852, 
                    [
                        {
                            "pitch": 78, 
                            "t0": 111852, 
                            "v": 120, 
                            "dur": 31, 
                            "type": "note", 
                            "channel": 12
                        }
                    ]
                ], 
                [
                    111853, 
                    [
                        {
                            "pitch": 75, 
                            "t0": 111853, 
                            "v": 112, 
                            "dur": 25, 
                            "type": "note", 
                            "channel": 12
                        }, 
                        {
                            "pitch": 82, 
                            "t0": 111853, 
                            "v": 124, 
                            "dur": 32, 
                            "type": "note", 
                            "channel": 12
                        }
                    ]
                ], 
                [
                    112464, 
                    [
                        {
                            "pitch": 75, 
                            "t0": 112464, 
                            "v": 112, 
                            "dur": 36, 
                            "type": "note", 
                            "channel": 12
                        }, 
                        {
                            "pitch": 78, 
                            "t0": 112464, 
                            "v": 116, 
                            "dur": 38, 
                            "type": "note", 
                            "channel": 12
                        }
                    ]
                ], 
                [
                    112465, 
                    [
                        {
                            "pitch": 82, 
                            "t0": 112465, 
                            "v": 120, 
                            "dur": 36, 
                            "type": "note", 
                            "channel": 12
                        }
                    ]
                ], 
                [
                    112821, 
                    [
                        {
                            "pitch": 78, 
                            "t0": 112821, 
                            "v": 112, 
                            "dur": 35, 
                            "type": "note", 
                            "channel": 12
                        }
                    ]
                ], 
                [
                    112822, 
                    [
                        {
                            "pitch": 75, 
                            "t0": 112822, 
                            "v": 120, 
                            "dur": 29, 
                            "type": "note", 
                            "channel": 12
                        }
                    ]
                ], 
                [
                    112823, 
                    [
                        {
                            "pitch": 82, 
                            "t0": 112823, 
                            "v": 120, 
                            "dur": 39, 
                            "type": "note", 
                            "channel": 12
                        }
                    ]
                ], 
                [
                    113056, 
                    [
                        {
                            "pitch": 75, 
                            "t0": 113056, 
                            "v": 112, 
                            "dur": 29, 
                            "type": "note", 
                            "channel": 12
                        }, 
                        {
                            "pitch": 78, 
                            "t0": 113056, 
                            "v": 116, 
                            "dur": 32, 
                            "type": "note", 
                            "channel": 12
                        }, 
                        {
                            "pitch": 82, 
                            "t0": 113056, 
                            "v": 124, 
                            "dur": 36, 
                            "type": "note", 
                            "channel": 12
                        }
                    ]
                ], 
                [
                    113536, 
                    [
                        {
                            "pitch": 78, 
                            "t0": 113536, 
                            "v": 108, 
                            "dur": 20, 
                            "type": "note", 
                            "channel": 12
                        }, 
                        {
                            "pitch": 75, 
                            "t0": 113536, 
                            "v": 104, 
                            "dur": 25, 
                            "type": "note", 
                            "channel": 12
                        }
                    ]
                ], 
                [
                    113537, 
                    [
                        {
                            "pitch": 82, 
                            "t0": 113537, 
                            "v": 104, 
                            "dur": 19, 
                            "type": "note", 
                            "channel": 12
                        }
                    ]
                ], 
                [
                    113595, 
                    [
                        {
                            "pitch": 75, 
                            "t0": 113595, 
                            "v": 108, 
                            "dur": 32, 
                            "type": "note", 
                            "channel": 12
                        }
                    ]
                ], 
                [
                    113596, 
                    [
                        {
                            "pitch": 78, 
                            "t0": 113596, 
                            "v": 104, 
                            "dur": 25, 
                            "type": "note", 
                            "channel": 12
                        }
                    ]
                ], 
                [
                    113597, 
                    [
                        {
                            "pitch": 82, 
                            "t0": 113597, 
                            "v": 116, 
                            "dur": 30, 
                            "type": "note", 
                            "channel": 12
                        }
                    ]
                ], 
                [
                    113646, 
                    [
                        {
                            "pitch": 75, 
                            "t0": 113646, 
                            "v": 92, 
                            "dur": 32, 
                            "type": "note", 
                            "channel": 12
                        }
                    ]
                ], 
                [
                    113647, 
                    [
                        {
                            "pitch": 78, 
                            "t0": 113647, 
                            "v": 104, 
                            "dur": 34, 
                            "type": "note", 
                            "channel": 12
                        }
                    ]
                ], 
                [
                    113648, 
                    [
                        {
                            "pitch": 82, 
                            "t0": 113648, 
                            "v": 100, 
                            "dur": 36, 
                            "type": "note", 
                            "channel": 12
                        }
                    ]
                ], 
                [
                    113769, 
                    [
                        {
                            "pitch": 75, 
                            "t0": 113769, 
                            "v": 116, 
                            "dur": 23, 
                            "type": "note", 
                            "channel": 12
                        }, 
                        {
                            "pitch": 82, 
                            "t0": 113769, 
                            "v": 124, 
                            "dur": 31, 
                            "type": "note", 
                            "channel": 12
                        }
                    ]
                ], 
                [
                    113770, 
                    [
                        {
                            "pitch": 78, 
                            "t0": 113770, 
                            "v": 120, 
                            "dur": 28, 
                            "type": "note", 
                            "channel": 12
                        }
                    ]
                ], 
                [
                    114378, 
                    [
                        {
                            "pitch": 78, 
                            "t0": 114378, 
                            "v": 120, 
                            "dur": 36, 
                            "type": "note", 
                            "channel": 12
                        }
                    ]
                ], 
                [
                    114379, 
                    [
                        {
                            "pitch": 82, 
                            "t0": 114379, 
                            "v": 124, 
                            "dur": 38, 
                            "type": "note", 
                            "channel": 12
                        }
                    ]
                ], 
                [
                    114380, 
                    [
                        {
                            "pitch": 75, 
                            "t0": 114380, 
                            "v": 116, 
                            "dur": 25, 
                            "type": "note", 
                            "channel": 12
                        }
                    ]
                ], 
                [
                    114729, 
                    [
                        {
                            "pitch": 82, 
                            "t0": 114729, 
                            "v": 120, 
                            "dur": 33, 
                            "type": "note", 
                            "channel": 12
                        }, 
                        {
                            "pitch": 78, 
                            "t0": 114729, 
                            "v": 116, 
                            "dur": 34, 
                            "type": "note", 
                            "channel": 12
                        }
                    ]
                ], 
                [
                    114733, 
                    [
                        {
                            "pitch": 75, 
                            "t0": 114733, 
                            "v": 112, 
                            "dur": 24, 
                            "type": "note", 
                            "channel": 12
                        }
                    ]
                ], 
                [
                    114954, 
                    [
                        {
                            "pitch": 82, 
                            "t0": 114954, 
                            "v": 124, 
                            "dur": 37, 
                            "type": "note", 
                            "channel": 12
                        }
                    ]
                ], 
                [
                    114955, 
                    [
                        {
                            "pitch": 78, 
                            "t0": 114955, 
                            "v": 112, 
                            "dur": 33, 
                            "type": "note", 
                            "channel": 12
                        }
                    ]
                ], 
                [
                    114956, 
                    [
                        {
                            "pitch": 75, 
                            "t0": 114956, 
                            "v": 116, 
                            "dur": 30, 
                            "type": "note", 
                            "channel": 12
                        }
                    ]
                ], 
                [
                    115463, 
                    [
                        {
                            "pitch": 82, 
                            "t0": 115463, 
                            "v": 124, 
                            "dur": 24, 
                            "type": "note", 
                            "channel": 12
                        }
                    ]
                ], 
                [
                    115465, 
                    [
                        {
                            "pitch": 78, 
                            "t0": 115465, 
                            "v": 104, 
                            "dur": 15, 
                            "type": "note", 
                            "channel": 12
                        }
                    ]
                ], 
                [
                    115467, 
                    [
                        {
                            "pitch": 75, 
                            "t0": 115467, 
                            "v": 112, 
                            "dur": 18, 
                            "type": "note", 
                            "channel": 12
                        }
                    ]
                ], 
                [
                    115520, 
                    [
                        {
                            "pitch": 75, 
                            "t0": 115520, 
                            "v": 112, 
                            "dur": 34, 
                            "type": "note", 
                            "channel": 12
                        }
                    ]
                ], 
                [
                    115522, 
                    [
                        {
                            "pitch": 78, 
                            "t0": 115522, 
                            "v": 112, 
                            "dur": 26, 
                            "type": "note", 
                            "channel": 12
                        }, 
                        {
                            "pitch": 82, 
                            "t0": 115522, 
                            "v": 124, 
                            "dur": 32, 
                            "type": "note", 
                            "channel": 12
                        }
                    ]
                ], 
                [
                    115574, 
                    [
                        {
                            "pitch": 75, 
                            "t0": 115574, 
                            "v": 100, 
                            "dur": 34, 
                            "type": "note", 
                            "channel": 12
                        }
                    ]
                ], 
                [
                    115575, 
                    [
                        {
                            "pitch": 78, 
                            "t0": 115575, 
                            "v": 100, 
                            "dur": 35, 
                            "type": "note", 
                            "channel": 12
                        }
                    ]
                ], 
                [
                    115577, 
                    [
                        {
                            "pitch": 82, 
                            "t0": 115577, 
                            "v": 112, 
                            "dur": 34, 
                            "type": "note", 
                            "channel": 12
                        }
                    ]
                ], 
                [
                    115702, 
                    [
                        {
                            "pitch": 75, 
                            "t0": 115702, 
                            "v": 120, 
                            "dur": 24, 
                            "type": "note", 
                            "channel": 12
                        }, 
                        {
                            "pitch": 82, 
                            "t0": 115702, 
                            "v": 120, 
                            "dur": 29, 
                            "type": "note", 
                            "channel": 12
                        }
                    ]
                ], 
                [
                    115703, 
                    [
                        {
                            "pitch": 78, 
                            "t0": 115703, 
                            "v": 120, 
                            "dur": 27, 
                            "type": "note", 
                            "channel": 12
                        }
                    ]
                ], 
                [
                    116307, 
                    [
                        {
                            "pitch": 82, 
                            "t0": 116307, 
                            "v": 120, 
                            "dur": 33, 
                            "type": "note", 
                            "channel": 12
                        }
                    ]
                ], 
                [
                    116308, 
                    [
                        {
                            "pitch": 78, 
                            "t0": 116308, 
                            "v": 116, 
                            "dur": 27, 
                            "type": "note", 
                            "channel": 12
                        }
                    ]
                ], 
                [
                    116310, 
                    [
                        {
                            "pitch": 75, 
                            "t0": 116310, 
                            "v": 108, 
                            "dur": 21, 
                            "type": "note", 
                            "channel": 12
                        }
                    ]
                ], 
                [
                    116653, 
                    [
                        {
                            "pitch": 82, 
                            "t0": 116653, 
                            "v": 127, 
                            "dur": 35, 
                            "type": "note", 
                            "channel": 12
                        }
                    ]
                ], 
                [
                    116655, 
                    [
                        {
                            "pitch": 78, 
                            "t0": 116655, 
                            "v": 116, 
                            "dur": 27, 
                            "type": "note", 
                            "channel": 12
                        }
                    ]
                ], 
                [
                    116656, 
                    [
                        {
                            "pitch": 75, 
                            "t0": 116656, 
                            "v": 112, 
                            "dur": 23, 
                            "type": "note", 
                            "channel": 12
                        }
                    ]
                ], 
                [
                    116884, 
                    [
                        {
                            "pitch": 82, 
                            "t0": 116884, 
                            "v": 120, 
                            "dur": 35, 
                            "type": "note", 
                            "channel": 12
                        }
                    ]
                ], 
                [
                    116885, 
                    [
                        {
                            "pitch": 75, 
                            "t0": 116885, 
                            "v": 116, 
                            "dur": 27, 
                            "type": "note", 
                            "channel": 12
                        }, 
                        {
                            "pitch": 78, 
                            "t0": 116885, 
                            "v": 116, 
                            "dur": 31, 
                            "type": "note", 
                            "channel": 12
                        }
                    ]
                ], 
                [
                    117360, 
                    [
                        {
                            "pitch": 75, 
                            "t0": 117360, 
                            "v": 116, 
                            "dur": 25, 
                            "type": "note", 
                            "channel": 12
                        }
                    ]
                ], 
                [
                    117361, 
                    [
                        {
                            "pitch": 78, 
                            "t0": 117361, 
                            "v": 112, 
                            "dur": 21, 
                            "type": "note", 
                            "channel": 12
                        }, 
                        {
                            "pitch": 82, 
                            "t0": 117361, 
                            "v": 116, 
                            "dur": 27, 
                            "type": "note", 
                            "channel": 12
                        }
                    ]
                ], 
                [
                    117420, 
                    [
                        {
                            "pitch": 78, 
                            "t0": 117420, 
                            "v": 108, 
                            "dur": 24, 
                            "type": "note", 
                            "channel": 12
                        }, 
                        {
                            "pitch": 75, 
                            "t0": 117420, 
                            "v": 100, 
                            "dur": 30, 
                            "type": "note", 
                            "channel": 12
                        }
                    ]
                ], 
                [
                    117421, 
                    [
                        {
                            "pitch": 82, 
                            "t0": 117421, 
                            "v": 108, 
                            "dur": 29, 
                            "type": "note", 
                            "channel": 12
                        }
                    ]
                ], 
                [
                    117469, 
                    [
                        {
                            "pitch": 75, 
                            "t0": 117469, 
                            "v": 92, 
                            "dur": 30, 
                            "type": "note", 
                            "channel": 12
                        }, 
                        {
                            "pitch": 78, 
                            "t0": 117469, 
                            "v": 108, 
                            "dur": 32, 
                            "type": "note", 
                            "channel": 12
                        }, 
                        {
                            "pitch": 82, 
                            "t0": 117469, 
                            "v": 92, 
                            "dur": 39, 
                            "type": "note", 
                            "channel": 12
                        }
                    ]
                ], 
                [
                    117600, 
                    [
                        {
                            "pitch": 82, 
                            "t0": 117600, 
                            "v": 116, 
                            "dur": 36, 
                            "type": "note", 
                            "channel": 12
                        }
                    ]
                ], 
                [
                    117601, 
                    [
                        {
                            "pitch": 75, 
                            "t0": 117601, 
                            "v": 116, 
                            "dur": 24, 
                            "type": "note", 
                            "channel": 12
                        }, 
                        {
                            "pitch": 78, 
                            "t0": 117601, 
                            "v": 116, 
                            "dur": 31, 
                            "type": "note", 
                            "channel": 12
                        }
                    ]
                ], 
                [
                    118217, 
                    [
                        {
                            "pitch": 78, 
                            "t0": 118217, 
                            "v": 112, 
                            "dur": 32, 
                            "type": "note", 
                            "channel": 12
                        }
                    ]
                ], 
                [
                    118218, 
                    [
                        {
                            "pitch": 75, 
                            "t0": 118218, 
                            "v": 112, 
                            "dur": 26, 
                            "type": "note", 
                            "channel": 12
                        }, 
                        {
                            "pitch": 82, 
                            "t0": 118218, 
                            "v": 120, 
                            "dur": 32, 
                            "type": "note", 
                            "channel": 12
                        }
                    ]
                ], 
                [
                    118582, 
                    [
                        {
                            "pitch": 75, 
                            "t0": 118582, 
                            "v": 112, 
                            "dur": 29, 
                            "type": "note", 
                            "channel": 12
                        }, 
                        {
                            "pitch": 82, 
                            "t0": 118582, 
                            "v": 120, 
                            "dur": 35, 
                            "type": "note", 
                            "channel": 12
                        }
                    ]
                ], 
                [
                    118583, 
                    [
                        {
                            "pitch": 78, 
                            "t0": 118583, 
                            "v": 112, 
                            "dur": 32, 
                            "type": "note", 
                            "channel": 12
                        }
                    ]
                ], 
                [
                    118819, 
                    [
                        {
                            "pitch": 82, 
                            "t0": 118819, 
                            "v": 120, 
                            "dur": 37, 
                            "type": "note", 
                            "channel": 12
                        }
                    ]
                ], 
                [
                    118821, 
                    [
                        {
                            "pitch": 78, 
                            "t0": 118821, 
                            "v": 116, 
                            "dur": 28, 
                            "type": "note", 
                            "channel": 12
                        }
                    ]
                ], 
                [
                    118822, 
                    [
                        {
                            "pitch": 75, 
                            "t0": 118822, 
                            "v": 116, 
                            "dur": 23, 
                            "type": "note", 
                            "channel": 12
                        }
                    ]
                ], 
                [
                    119294, 
                    [
                        {
                            "pitch": 82, 
                            "t0": 119294, 
                            "v": 112, 
                            "dur": 31, 
                            "type": "note", 
                            "channel": 12
                        }
                    ]
                ], 
                [
                    119297, 
                    [
                        {
                            "pitch": 75, 
                            "t0": 119297, 
                            "v": 112, 
                            "dur": 26, 
                            "type": "note", 
                            "channel": 12
                        }
                    ]
                ], 
                [
                    119298, 
                    [
                        {
                            "pitch": 78, 
                            "t0": 119298, 
                            "v": 104, 
                            "dur": 21, 
                            "type": "note", 
                            "channel": 12
                        }
                    ]
                ], 
                [
                    119359, 
                    [
                        {
                            "pitch": 82, 
                            "t0": 119359, 
                            "v": 100, 
                            "dur": 32, 
                            "type": "note", 
                            "channel": 12
                        }
                    ]
                ], 
                [
                    119360, 
                    [
                        {
                            "pitch": 75, 
                            "t0": 119360, 
                            "v": 104, 
                            "dur": 32, 
                            "type": "note", 
                            "channel": 12
                        }
                    ]
                ], 
                [
                    119363, 
                    [
                        {
                            "pitch": 78, 
                            "t0": 119363, 
                            "v": 100, 
                            "dur": 22, 
                            "type": "note", 
                            "channel": 12
                        }
                    ]
                ], 
                [
                    119406, 
                    [
                        {
                            "pitch": 75, 
                            "t0": 119406, 
                            "v": 80, 
                            "dur": 31, 
                            "type": "note", 
                            "channel": 12
                        }
                    ]
                ], 
                [
                    119407, 
                    [
                        {
                            "pitch": 82, 
                            "t0": 119407, 
                            "v": 88, 
                            "dur": 35, 
                            "type": "note", 
                            "channel": 12
                        }
                    ]
                ], 
                [
                    119408, 
                    [
                        {
                            "pitch": 78, 
                            "t0": 119408, 
                            "v": 104, 
                            "dur": 33, 
                            "type": "note", 
                            "channel": 12
                        }
                    ]
                ], 
                [
                    119536, 
                    [
                        {
                            "pitch": 75, 
                            "t0": 119536, 
                            "v": 116, 
                            "dur": 26, 
                            "type": "note", 
                            "channel": 12
                        }, 
                        {
                            "pitch": 78, 
                            "t0": 119536, 
                            "v": 124, 
                            "dur": 28, 
                            "type": "note", 
                            "channel": 12
                        }
                    ]
                ], 
                [
                    119537, 
                    [
                        {
                            "pitch": 82, 
                            "t0": 119537, 
                            "v": 112, 
                            "dur": 31, 
                            "type": "note", 
                            "channel": 12
                        }
                    ]
                ], 
                [
                    119543, 
                    [
                        {
                            "pitch": 79, 
                            "t0": 119543, 
                            "v": 104, 
                            "dur": 18, 
                            "type": "note", 
                            "channel": 12
                        }
                    ]
                ], 
                [
                    119544, 
                    [
                        {
                            "pitch": 83, 
                            "t0": 119544, 
                            "v": 80, 
                            "dur": 18, 
                            "type": "note", 
                            "channel": 12
                        }
                    ]
                ], 
                [
                    120135, 
                    [
                        {
                            "pitch": 78, 
                            "t0": 120135, 
                            "v": 116, 
                            "dur": 30, 
                            "type": "note", 
                            "channel": 12
                        }
                    ]
                ], 
                [
                    120136, 
                    [
                        {
                            "pitch": 75, 
                            "t0": 120136, 
                            "v": 116, 
                            "dur": 27, 
                            "type": "note", 
                            "channel": 12
                        }
                    ]
                ], 
                [
                    120137, 
                    [
                        {
                            "pitch": 82, 
                            "t0": 120137, 
                            "v": 120, 
                            "dur": 29, 
                            "type": "note", 
                            "channel": 12
                        }
                    ]
                ], 
                [
                    120495, 
                    [
                        {
                            "pitch": 82, 
                            "t0": 120495, 
                            "v": 120, 
                            "dur": 37, 
                            "type": "note", 
                            "channel": 12
                        }
                    ]
                ], 
                [
                    120496, 
                    [
                        {
                            "pitch": 78, 
                            "t0": 120496, 
                            "v": 112, 
                            "dur": 34, 
                            "type": "note", 
                            "channel": 12
                        }
                    ]
                ], 
                [
                    120497, 
                    [
                        {
                            "pitch": 75, 
                            "t0": 120497, 
                            "v": 108, 
                            "dur": 34, 
                            "type": "note", 
                            "channel": 12
                        }
                    ]
                ], 
                [
                    120710, 
                    [
                        {
                            "pitch": 82, 
                            "t0": 120710, 
                            "v": 120, 
                            "dur": 37, 
                            "type": "note", 
                            "channel": 12
                        }, 
                        {
                            "pitch": 78, 
                            "t0": 120710, 
                            "v": 116, 
                            "dur": 41, 
                            "type": "note", 
                            "channel": 12
                        }
                    ]
                ], 
                [
                    120713, 
                    [
                        {
                            "pitch": 75, 
                            "t0": 120713, 
                            "v": 108, 
                            "dur": 31, 
                            "type": "note", 
                            "channel": 12
                        }
                    ]
                ], 
                [
                    121206, 
                    [
                        {
                            "pitch": 78, 
                            "t0": 121206, 
                            "v": 108, 
                            "dur": 19, 
                            "type": "note", 
                            "channel": 12
                        }
                    ]
                ], 
                [
                    121207, 
                    [
                        {
                            "pitch": 82, 
                            "t0": 121207, 
                            "v": 116, 
                            "dur": 18, 
                            "type": "note", 
                            "channel": 12
                        }
                    ]
                ], 
                [
                    121209, 
                    [
                        {
                            "pitch": 75, 
                            "t0": 121209, 
                            "v": 92, 
                            "dur": 18, 
                            "type": "note", 
                            "channel": 12
                        }
                    ]
                ], 
                [
                    121264, 
                    [
                        {
                            "pitch": 75, 
                            "t0": 121264, 
                            "v": 112, 
                            "dur": 27, 
                            "type": "note", 
                            "channel": 12
                        }
                    ]
                ], 
                [
                    121265, 
                    [
                        {
                            "pitch": 78, 
                            "t0": 121265, 
                            "v": 112, 
                            "dur": 23, 
                            "type": "note", 
                            "channel": 12
                        }
                    ]
                ], 
                [
                    121266, 
                    [
                        {
                            "pitch": 82, 
                            "t0": 121266, 
                            "v": 120, 
                            "dur": 27, 
                            "type": "note", 
                            "channel": 12
                        }
                    ]
                ], 
                [
                    121316, 
                    [
                        {
                            "pitch": 75, 
                            "t0": 121316, 
                            "v": 100, 
                            "dur": 27, 
                            "type": "note", 
                            "channel": 12
                        }
                    ]
                ], 
                [
                    121317, 
                    [
                        {
                            "pitch": 78, 
                            "t0": 121317, 
                            "v": 100, 
                            "dur": 30, 
                            "type": "note", 
                            "channel": 12
                        }
                    ]
                ], 
                [
                    121318, 
                    [
                        {
                            "pitch": 82, 
                            "t0": 121318, 
                            "v": 112, 
                            "dur": 32, 
                            "type": "note", 
                            "channel": 12
                        }
                    ]
                ], 
                [
                    121449, 
                    [
                        {
                            "pitch": 78, 
                            "t0": 121449, 
                            "v": 116, 
                            "dur": 26, 
                            "type": "note", 
                            "channel": 12
                        }
                    ]
                ], 
                [
                    121450, 
                    [
                        {
                            "pitch": 75, 
                            "t0": 121450, 
                            "v": 116, 
                            "dur": 20, 
                            "type": "note", 
                            "channel": 12
                        }
                    ]
                ], 
                [
                    121451, 
                    [
                        {
                            "pitch": 82, 
                            "t0": 121451, 
                            "v": 124, 
                            "dur": 24, 
                            "type": "note", 
                            "channel": 12
                        }
                    ]
                ], 
                [
                    122045, 
                    [
                        {
                            "pitch": 78, 
                            "t0": 122045, 
                            "v": 116, 
                            "dur": 28, 
                            "type": "note", 
                            "channel": 12
                        }
                    ]
                ], 
                [
                    122046, 
                    [
                        {
                            "pitch": 75, 
                            "t0": 122046, 
                            "v": 112, 
                            "dur": 25, 
                            "type": "note", 
                            "channel": 12
                        }, 
                        {
                            "pitch": 82, 
                            "t0": 122046, 
                            "v": 127, 
                            "dur": 30, 
                            "type": "note", 
                            "channel": 12
                        }
                    ]
                ], 
                [
                    122419, 
                    [
                        {
                            "pitch": 75, 
                            "t0": 122419, 
                            "v": 112, 
                            "dur": 30, 
                            "type": "note", 
                            "channel": 12
                        }, 
                        {
                            "pitch": 78, 
                            "t0": 122419, 
                            "v": 120, 
                            "dur": 31, 
                            "type": "note", 
                            "channel": 12
                        }
                    ]
                ], 
                [
                    122422, 
                    [
                        {
                            "pitch": 82, 
                            "t0": 122422, 
                            "v": 120, 
                            "dur": 31, 
                            "type": "note", 
                            "channel": 12
                        }
                    ]
                ], 
                [
                    122659, 
                    [
                        {
                            "pitch": 82, 
                            "t0": 122659, 
                            "v": 124, 
                            "dur": 35, 
                            "type": "note", 
                            "channel": 12
                        }
                    ]
                ], 
                [
                    122660, 
                    [
                        {
                            "pitch": 78, 
                            "t0": 122660, 
                            "v": 112, 
                            "dur": 32, 
                            "type": "note", 
                            "channel": 12
                        }
                    ]
                ], 
                [
                    122661, 
                    [
                        {
                            "pitch": 75, 
                            "t0": 122661, 
                            "v": 116, 
                            "dur": 28, 
                            "type": "note", 
                            "channel": 12
                        }
                    ]
                ], 
                [
                    123135, 
                    [
                        {
                            "pitch": 82, 
                            "t0": 123135, 
                            "v": 120, 
                            "dur": 25, 
                            "type": "note", 
                            "channel": 12
                        }
                    ]
                ], 
                [
                    123136, 
                    [
                        {
                            "pitch": 78, 
                            "t0": 123136, 
                            "v": 100, 
                            "dur": 20, 
                            "type": "note", 
                            "channel": 12
                        }, 
                        {
                            "pitch": 75, 
                            "t0": 123136, 
                            "v": 104, 
                            "dur": 23, 
                            "type": "note", 
                            "channel": 12
                        }
                    ]
                ], 
                [
                    123194, 
                    [
                        {
                            "pitch": 75, 
                            "t0": 123194, 
                            "v": 104, 
                            "dur": 29, 
                            "type": "note", 
                            "channel": 12
                        }
                    ]
                ], 
                [
                    123196, 
                    [
                        {
                            "pitch": 78, 
                            "t0": 123196, 
                            "v": 100, 
                            "dur": 23, 
                            "type": "note", 
                            "channel": 12
                        }
                    ]
                ], 
                [
                    123197, 
                    [
                        {
                            "pitch": 82, 
                            "t0": 123197, 
                            "v": 116, 
                            "dur": 28, 
                            "type": "note", 
                            "channel": 12
                        }
                    ]
                ], 
                [
                    123241, 
                    [
                        {
                            "pitch": 78, 
                            "t0": 123241, 
                            "v": 104, 
                            "dur": 35, 
                            "type": "note", 
                            "channel": 12
                        }
                    ]
                ], 
                [
                    123242, 
                    [
                        {
                            "pitch": 75, 
                            "t0": 123242, 
                            "v": 92, 
                            "dur": 29, 
                            "type": "note", 
                            "channel": 12
                        }, 
                        {
                            "pitch": 82, 
                            "t0": 123242, 
                            "v": 96, 
                            "dur": 38, 
                            "type": "note", 
                            "channel": 12
                        }
                    ]
                ], 
                [
                    123379, 
                    [
                        {
                            "pitch": 78, 
                            "t0": 123379, 
                            "v": 112, 
                            "dur": 29, 
                            "type": "note", 
                            "channel": 12
                        }, 
                        {
                            "pitch": 82, 
                            "t0": 123379, 
                            "v": 127, 
                            "dur": 31, 
                            "type": "note", 
                            "channel": 12
                        }
                    ]
                ], 
                [
                    123380, 
                    [
                        {
                            "pitch": 75, 
                            "t0": 123380, 
                            "v": 116, 
                            "dur": 22, 
                            "type": "note", 
                            "channel": 12
                        }
                    ]
                ], 
                [
                    123984, 
                    [
                        {
                            "pitch": 78, 
                            "t0": 123984, 
                            "v": 112, 
                            "dur": 33, 
                            "type": "note", 
                            "channel": 12
                        }
                    ]
                ], 
                [
                    123985, 
                    [
                        {
                            "pitch": 82, 
                            "t0": 123985, 
                            "v": 124, 
                            "dur": 33, 
                            "type": "note", 
                            "channel": 12
                        }
                    ]
                ], 
                [
                    123986, 
                    [
                        {
                            "pitch": 75, 
                            "t0": 123986, 
                            "v": 120, 
                            "dur": 27, 
                            "type": "note", 
                            "channel": 12
                        }
                    ]
                ], 
                [
                    124348, 
                    [
                        {
                            "pitch": 78, 
                            "t0": 124348, 
                            "v": 120, 
                            "dur": 33, 
                            "type": "note", 
                            "channel": 12
                        }
                    ]
                ], 
                [
                    124349, 
                    [
                        {
                            "pitch": 82, 
                            "t0": 124349, 
                            "v": 124, 
                            "dur": 43, 
                            "type": "note", 
                            "channel": 12
                        }
                    ]
                ], 
                [
                    124350, 
                    [
                        {
                            "pitch": 75, 
                            "t0": 124350, 
                            "v": 112, 
                            "dur": 28, 
                            "type": "note", 
                            "channel": 12
                        }
                    ]
                ], 
                [
                    124573, 
                    [
                        {
                            "pitch": 82, 
                            "t0": 124573, 
                            "v": 124, 
                            "dur": 35, 
                            "type": "note", 
                            "channel": 12
                        }
                    ]
                ], 
                [
                    124574, 
                    [
                        {
                            "pitch": 78, 
                            "t0": 124574, 
                            "v": 116, 
                            "dur": 34, 
                            "type": "note", 
                            "channel": 12
                        }
                    ]
                ], 
                [
                    124576, 
                    [
                        {
                            "pitch": 75, 
                            "t0": 124576, 
                            "v": 112, 
                            "dur": 25, 
                            "type": "note", 
                            "channel": 12
                        }
                    ]
                ], 
                [
                    125046, 
                    [
                        {
                            "pitch": 82, 
                            "t0": 125046, 
                            "v": 120, 
                            "dur": 27, 
                            "type": "note", 
                            "channel": 12
                        }
                    ]
                ], 
                [
                    125047, 
                    [
                        {
                            "pitch": 78, 
                            "t0": 125047, 
                            "v": 108, 
                            "dur": 23, 
                            "type": "note", 
                            "channel": 12
                        }
                    ]
                ], 
                [
                    125048, 
                    [
                        {
                            "pitch": 75, 
                            "t0": 125048, 
                            "v": 104, 
                            "dur": 25, 
                            "type": "note", 
                            "channel": 12
                        }
                    ]
                ], 
                [
                    125105, 
                    [
                        {
                            "pitch": 82, 
                            "t0": 125105, 
                            "v": 116, 
                            "dur": 36, 
                            "type": "note", 
                            "channel": 12
                        }
                    ]
                ], 
                [
                    125106, 
                    [
                        {
                            "pitch": 78, 
                            "t0": 125106, 
                            "v": 100, 
                            "dur": 27, 
                            "type": "note", 
                            "channel": 12
                        }
                    ]
                ], 
                [
                    125107, 
                    [
                        {
                            "pitch": 75, 
                            "t0": 125107, 
                            "v": 100, 
                            "dur": 29, 
                            "type": "note", 
                            "channel": 12
                        }
                    ]
                ], 
                [
                    125154, 
                    [
                        {
                            "pitch": 82, 
                            "t0": 125154, 
                            "v": 92, 
                            "dur": 42, 
                            "type": "note", 
                            "channel": 12
                        }
                    ]
                ], 
                [
                    125155, 
                    [
                        {
                            "pitch": 75, 
                            "t0": 125155, 
                            "v": 76, 
                            "dur": 27, 
                            "type": "note", 
                            "channel": 12
                        }, 
                        {
                            "pitch": 78, 
                            "t0": 125155, 
                            "v": 100, 
                            "dur": 38, 
                            "type": "note", 
                            "channel": 12
                        }
                    ]
                ], 
                [
                    125284, 
                    [
                        {
                            "pitch": 75, 
                            "t0": 125284, 
                            "v": 112, 
                            "dur": 25, 
                            "type": "note", 
                            "channel": 12
                        }
                    ]
                ], 
                [
                    125285, 
                    [
                        {
                            "pitch": 78, 
                            "t0": 125285, 
                            "v": 116, 
                            "dur": 31, 
                            "type": "note", 
                            "channel": 12
                        }, 
                        {
                            "pitch": 82, 
                            "t0": 125285, 
                            "v": 127, 
                            "dur": 33, 
                            "type": "note", 
                            "channel": 12
                        }
                    ]
                ], 
                [
                    125900, 
                    [
                        {
                            "pitch": 78, 
                            "t0": 125900, 
                            "v": 116, 
                            "dur": 32, 
                            "type": "note", 
                            "channel": 12
                        }
                    ]
                ], 
                [
                    125901, 
                    [
                        {
                            "pitch": 75, 
                            "t0": 125901, 
                            "v": 112, 
                            "dur": 27, 
                            "type": "note", 
                            "channel": 12
                        }, 
                        {
                            "pitch": 82, 
                            "t0": 125901, 
                            "v": 120, 
                            "dur": 33, 
                            "type": "note", 
                            "channel": 12
                        }
                    ]
                ], 
                [
                    126267, 
                    [
                        {
                            "pitch": 78, 
                            "t0": 126267, 
                            "v": 116, 
                            "dur": 33, 
                            "type": "note", 
                            "channel": 12
                        }
                    ]
                ], 
                [
                    126268, 
                    [
                        {
                            "pitch": 82, 
                            "t0": 126268, 
                            "v": 127, 
                            "dur": 36, 
                            "type": "note", 
                            "channel": 12
                        }
                    ]
                ], 
                [
                    126269, 
                    [
                        {
                            "pitch": 75, 
                            "t0": 126269, 
                            "v": 120, 
                            "dur": 25, 
                            "type": "note", 
                            "channel": 12
                        }
                    ]
                ], 
                [
                    126492, 
                    [
                        {
                            "pitch": 82, 
                            "t0": 126492, 
                            "v": 124, 
                            "dur": 37, 
                            "type": "note", 
                            "channel": 12
                        }
                    ]
                ], 
                [
                    126493, 
                    [
                        {
                            "pitch": 75, 
                            "t0": 126493, 
                            "v": 112, 
                            "dur": 27, 
                            "type": "note", 
                            "channel": 12
                        }, 
                        {
                            "pitch": 78, 
                            "t0": 126493, 
                            "v": 120, 
                            "dur": 35, 
                            "type": "note", 
                            "channel": 12
                        }
                    ]
                ], 
                [
                    126954, 
                    [
                        {
                            "pitch": 82, 
                            "t0": 126954, 
                            "v": 124, 
                            "dur": 27, 
                            "type": "note", 
                            "channel": 12
                        }
                    ]
                ], 
                [
                    126955, 
                    [
                        {
                            "pitch": 75, 
                            "t0": 126955, 
                            "v": 108, 
                            "dur": 27, 
                            "type": "note", 
                            "channel": 12
                        }
                    ]
                ], 
                [
                    126956, 
                    [
                        {
                            "pitch": 78, 
                            "t0": 126956, 
                            "v": 108, 
                            "dur": 21, 
                            "type": "note", 
                            "channel": 12
                        }
                    ]
                ], 
                [
                    127015, 
                    [
                        {
                            "pitch": 75, 
                            "t0": 127015, 
                            "v": 92, 
                            "dur": 29, 
                            "type": "note", 
                            "channel": 12
                        }
                    ]
                ], 
                [
                    127016, 
                    [
                        {
                            "pitch": 78, 
                            "t0": 127016, 
                            "v": 108, 
                            "dur": 28, 
                            "type": "note", 
                            "channel": 12
                        }
                    ]
                ], 
                [
                    127017, 
                    [
                        {
                            "pitch": 82, 
                            "t0": 127017, 
                            "v": 116, 
                            "dur": 31, 
                            "type": "note", 
                            "channel": 12
                        }
                    ]
                ], 
                [
                    127067, 
                    [
                        {
                            "pitch": 78, 
                            "t0": 127067, 
                            "v": 104, 
                            "dur": 37, 
                            "type": "note", 
                            "channel": 12
                        }
                    ]
                ], 
                [
                    127068, 
                    [
                        {
                            "pitch": 75, 
                            "t0": 127068, 
                            "v": 88, 
                            "dur": 28, 
                            "type": "note", 
                            "channel": 12
                        }
                    ]
                ], 
                [
                    127069, 
                    [
                        {
                            "pitch": 82, 
                            "t0": 127069, 
                            "v": 108, 
                            "dur": 34, 
                            "type": "note", 
                            "channel": 12
                        }
                    ]
                ], 
                [
                    127205, 
                    [
                        {
                            "pitch": 78, 
                            "t0": 127205, 
                            "v": 120, 
                            "dur": 28, 
                            "type": "note", 
                            "channel": 12
                        }, 
                        {
                            "pitch": 82, 
                            "t0": 127205, 
                            "v": 124, 
                            "dur": 30, 
                            "type": "note", 
                            "channel": 12
                        }
                    ]
                ], 
                [
                    127206, 
                    [
                        {
                            "pitch": 75, 
                            "t0": 127206, 
                            "v": 116, 
                            "dur": 21, 
                            "type": "note", 
                            "channel": 12
                        }
                    ]
                ], 
                [
                    127815, 
                    [
                        {
                            "pitch": 78, 
                            "t0": 127815, 
                            "v": 116, 
                            "dur": 31, 
                            "type": "note", 
                            "channel": 12
                        }, 
                        {
                            "pitch": 82, 
                            "t0": 127815, 
                            "v": 127, 
                            "dur": 35, 
                            "type": "note", 
                            "channel": 12
                        }
                    ]
                ], 
                [
                    127817, 
                    [
                        {
                            "pitch": 75, 
                            "t0": 127817, 
                            "v": 116, 
                            "dur": 28, 
                            "type": "note", 
                            "channel": 12
                        }
                    ]
                ], 
                [
                    128170, 
                    [
                        {
                            "pitch": 82, 
                            "t0": 128170, 
                            "v": 127, 
                            "dur": 41, 
                            "type": "note", 
                            "channel": 12
                        }
                    ]
                ], 
                [
                    128171, 
                    [
                        {
                            "pitch": 78, 
                            "t0": 128171, 
                            "v": 112, 
                            "dur": 43, 
                            "type": "note", 
                            "channel": 12
                        }
                    ]
                ], 
                [
                    128172, 
                    [
                        {
                            "pitch": 75, 
                            "t0": 128172, 
                            "v": 112, 
                            "dur": 34, 
                            "type": "note", 
                            "channel": 12
                        }
                    ]
                ], 
                [
                    128402, 
                    [
                        {
                            "pitch": 75, 
                            "t0": 128402, 
                            "v": 112, 
                            "dur": 34, 
                            "type": "note", 
                            "channel": 12
                        }, 
                        {
                            "pitch": 82, 
                            "t0": 128402, 
                            "v": 124, 
                            "dur": 36, 
                            "type": "note", 
                            "channel": 12
                        }
                    ]
                ], 
                [
                    128403, 
                    [
                        {
                            "pitch": 78, 
                            "t0": 128403, 
                            "v": 116, 
                            "dur": 34, 
                            "type": "note", 
                            "channel": 12
                        }
                    ]
                ], 
                [
                    128902, 
                    [
                        {
                            "pitch": 78, 
                            "t0": 128902, 
                            "v": 112, 
                            "dur": 26, 
                            "type": "note", 
                            "channel": 12
                        }
                    ]
                ], 
                [
                    128903, 
                    [
                        {
                            "pitch": 82, 
                            "t0": 128903, 
                            "v": 120, 
                            "dur": 30, 
                            "type": "note", 
                            "channel": 12
                        }
                    ]
                ], 
                [
                    128904, 
                    [
                        {
                            "pitch": 75, 
                            "t0": 128904, 
                            "v": 116, 
                            "dur": 23, 
                            "type": "note", 
                            "channel": 12
                        }
                    ]
                ], 
                [
                    128964, 
                    [
                        {
                            "pitch": 78, 
                            "t0": 128964, 
                            "v": 116, 
                            "dur": 77, 
                            "type": "note", 
                            "channel": 12
                        }, 
                        {
                            "pitch": 82, 
                            "t0": 128964, 
                            "v": 108, 
                            "dur": 77, 
                            "type": "note", 
                            "channel": 12
                        }
                    ]
                ], 
                [
                    128966, 
                    [
                        {
                            "pitch": 75, 
                            "t0": 128966, 
                            "v": 108, 
                            "dur": 70, 
                            "type": "note", 
                            "channel": 12
                        }
                    ]
                ], 
                [
                    129143, 
                    [
                        {
                            "pitch": 75, 
                            "t0": 129143, 
                            "v": 108, 
                            "dur": 31, 
                            "type": "note", 
                            "channel": 12
                        }
                    ]
                ], 
                [
                    129144, 
                    [
                        {
                            "pitch": 78, 
                            "t0": 129144, 
                            "v": 120, 
                            "dur": 36, 
                            "type": "note", 
                            "channel": 12
                        }, 
                        {
                            "pitch": 82, 
                            "t0": 129144, 
                            "v": 116, 
                            "dur": 40, 
                            "type": "note", 
                            "channel": 12
                        }
                    ]
                ], 
                [
                    129715, 
                    [
                        {
                            "pitch": 78, 
                            "t0": 129715, 
                            "v": 120, 
                            "dur": 32, 
                            "type": "note", 
                            "channel": 12
                        }
                    ]
                ], 
                [
                    129716, 
                    [
                        {
                            "pitch": 75, 
                            "t0": 129716, 
                            "v": 108, 
                            "dur": 28, 
                            "type": "note", 
                            "channel": 12
                        }
                    ]
                ], 
                [
                    129718, 
                    [
                        {
                            "pitch": 82, 
                            "t0": 129718, 
                            "v": 120, 
                            "dur": 32, 
                            "type": "note", 
                            "channel": 12
                        }
                    ]
                ], 
                [
                    130088, 
                    [
                        {
                            "pitch": 82, 
                            "t0": 130088, 
                            "v": 112, 
                            "dur": 30, 
                            "type": "note", 
                            "channel": 12
                        }
                    ]
                ], 
                [
                    130089, 
                    [
                        {
                            "pitch": 78, 
                            "t0": 130089, 
                            "v": 116, 
                            "dur": 28, 
                            "type": "note", 
                            "channel": 12
                        }, 
                        {
                            "pitch": 75, 
                            "t0": 130089, 
                            "v": 108, 
                            "dur": 31, 
                            "type": "note", 
                            "channel": 12
                        }
                    ]
                ], 
                [
                    130328, 
                    [
                        {
                            "pitch": 82, 
                            "t0": 130328, 
                            "v": 124, 
                            "dur": 32, 
                            "type": "note", 
                            "channel": 12
                        }
                    ]
                ], 
                [
                    130330, 
                    [
                        {
                            "pitch": 75, 
                            "t0": 130330, 
                            "v": 112, 
                            "dur": 25, 
                            "type": "note", 
                            "channel": 12
                        }, 
                        {
                            "pitch": 78, 
                            "t0": 130330, 
                            "v": 120, 
                            "dur": 27, 
                            "type": "note", 
                            "channel": 12
                        }
                    ]
                ], 
                [
                    130845, 
                    [
                        {
                            "pitch": 78, 
                            "t0": 130845, 
                            "v": 108, 
                            "dur": 25, 
                            "type": "note", 
                            "channel": 12
                        }
                    ]
                ], 
                [
                    130847, 
                    [
                        {
                            "pitch": 82, 
                            "t0": 130847, 
                            "v": 116, 
                            "dur": 26, 
                            "type": "note", 
                            "channel": 12
                        }
                    ]
                ], 
                [
                    130848, 
                    [
                        {
                            "pitch": 75, 
                            "t0": 130848, 
                            "v": 92, 
                            "dur": 20, 
                            "type": "note", 
                            "channel": 12
                        }
                    ]
                ], 
                [
                    130913, 
                    [
                        {
                            "pitch": 82, 
                            "t0": 130913, 
                            "v": 108, 
                            "dur": 25, 
                            "type": "note", 
                            "channel": 12
                        }
                    ]
                ], 
                [
                    130914, 
                    [
                        {
                            "pitch": 78, 
                            "t0": 130914, 
                            "v": 96, 
                            "dur": 24, 
                            "type": "note", 
                            "channel": 12
                        }, 
                        {
                            "pitch": 75, 
                            "t0": 130914, 
                            "v": 92, 
                            "dur": 73, 
                            "type": "note", 
                            "channel": 12
                        }
                    ]
                ], 
                [
                    130960, 
                    [
                        {
                            "pitch": 82, 
                            "t0": 130960, 
                            "v": 84, 
                            "dur": 29, 
                            "type": "note", 
                            "channel": 12
                        }
                    ]
                ], 
                [
                    130961, 
                    [
                        {
                            "pitch": 78, 
                            "t0": 130961, 
                            "v": 80, 
                            "dur": 25, 
                            "type": "note", 
                            "channel": 12
                        }
                    ]
                ], 
                [
                    131076, 
                    [
                        {
                            "pitch": 75, 
                            "t0": 131076, 
                            "v": 92, 
                            "dur": 25, 
                            "type": "note", 
                            "channel": 12
                        }, 
                        {
                            "pitch": 82, 
                            "t0": 131076, 
                            "v": 116, 
                            "dur": 30, 
                            "type": "note", 
                            "channel": 12
                        }
                    ]
                ], 
                [
                    131078, 
                    [
                        {
                            "pitch": 78, 
                            "t0": 131078, 
                            "v": 100, 
                            "dur": 24, 
                            "type": "note", 
                            "channel": 12
                        }
                    ]
                ], 
                [
                    131665, 
                    [
                        {
                            "pitch": 78, 
                            "t0": 131665, 
                            "v": 108, 
                            "dur": 26, 
                            "type": "note", 
                            "channel": 12
                        }
                    ]
                ], 
                [
                    131666, 
                    [
                        {
                            "pitch": 82, 
                            "t0": 131666, 
                            "v": 120, 
                            "dur": 29, 
                            "type": "note", 
                            "channel": 12
                        }
                    ]
                ], 
                [
                    131667, 
                    [
                        {
                            "pitch": 75, 
                            "t0": 131667, 
                            "v": 100, 
                            "dur": 23, 
                            "type": "note", 
                            "channel": 12
                        }
                    ]
                ], 
                [
                    132037, 
                    [
                        {
                            "pitch": 78, 
                            "t0": 132037, 
                            "v": 100, 
                            "dur": 27, 
                            "type": "note", 
                            "channel": 12
                        }
                    ]
                ], 
                [
                    132038, 
                    [
                        {
                            "pitch": 75, 
                            "t0": 132038, 
                            "v": 92, 
                            "dur": 25, 
                            "type": "note", 
                            "channel": 12
                        }, 
                        {
                            "pitch": 82, 
                            "t0": 132038, 
                            "v": 116, 
                            "dur": 31, 
                            "type": "note", 
                            "channel": 12
                        }
                    ]
                ], 
                [
                    132287, 
                    [
                        {
                            "pitch": 78, 
                            "t0": 132287, 
                            "v": 108, 
                            "dur": 29, 
                            "type": "note", 
                            "channel": 12
                        }, 
                        {
                            "pitch": 82, 
                            "t0": 132287, 
                            "v": 116, 
                            "dur": 31, 
                            "type": "note", 
                            "channel": 12
                        }
                    ]
                ], 
                [
                    132288, 
                    [
                        {
                            "pitch": 75, 
                            "t0": 132288, 
                            "v": 88, 
                            "dur": 25, 
                            "type": "note", 
                            "channel": 12
                        }
                    ]
                ], 
                [
                    132797, 
                    [
                        {
                            "pitch": 82, 
                            "t0": 132797, 
                            "v": 100, 
                            "dur": 20, 
                            "type": "note", 
                            "channel": 12
                        }
                    ]
                ], 
                [
                    132799, 
                    [
                        {
                            "pitch": 75, 
                            "t0": 132799, 
                            "v": 76, 
                            "dur": 22, 
                            "type": "note", 
                            "channel": 12
                        }
                    ]
                ], 
                [
                    132800, 
                    [
                        {
                            "pitch": 78, 
                            "t0": 132800, 
                            "v": 72, 
                            "dur": 16, 
                            "type": "note", 
                            "channel": 12
                        }
                    ]
                ], 
                [
                    132857, 
                    [
                        {
                            "pitch": 75, 
                            "t0": 132857, 
                            "v": 80, 
                            "dur": 28, 
                            "type": "note", 
                            "channel": 12
                        }
                    ]
                ], 
                [
                    132858, 
                    [
                        {
                            "pitch": 82, 
                            "t0": 132858, 
                            "v": 104, 
                            "dur": 25, 
                            "type": "note", 
                            "channel": 12
                        }
                    ]
                ], 
                [
                    132859, 
                    [
                        {
                            "pitch": 78, 
                            "t0": 132859, 
                            "v": 84, 
                            "dur": 23, 
                            "type": "note", 
                            "channel": 12
                        }
                    ]
                ], 
                [
                    132915, 
                    [
                        {
                            "pitch": 75, 
                            "t0": 132915, 
                            "v": 80, 
                            "dur": 39, 
                            "type": "note", 
                            "channel": 12
                        }
                    ]
                ], 
                [
                    132918, 
                    [
                        {
                            "pitch": 78, 
                            "t0": 132918, 
                            "v": 84, 
                            "dur": 30, 
                            "type": "note", 
                            "channel": 12
                        }
                    ]
                ], 
                [
                    132920, 
                    [
                        {
                            "pitch": 82, 
                            "t0": 132920, 
                            "v": 104, 
                            "dur": 28, 
                            "type": "note", 
                            "channel": 12
                        }
                    ]
                ], 
                [
                    133037, 
                    [
                        {
                            "pitch": 78, 
                            "t0": 133037, 
                            "v": 100, 
                            "dur": 28, 
                            "type": "note", 
                            "channel": 12
                        }
                    ]
                ], 
                [
                    133038, 
                    [
                        {
                            "pitch": 75, 
                            "t0": 133038, 
                            "v": 88, 
                            "dur": 25, 
                            "type": "note", 
                            "channel": 12
                        }, 
                        {
                            "pitch": 82, 
                            "t0": 133038, 
                            "v": 112, 
                            "dur": 26, 
                            "type": "note", 
                            "channel": 12
                        }
                    ]
                ], 
                [
                    133629, 
                    [
                        {
                            "pitch": 75, 
                            "t0": 133629, 
                            "v": 104, 
                            "dur": 27, 
                            "type": "note", 
                            "channel": 12
                        }, 
                        {
                            "pitch": 78, 
                            "t0": 133629, 
                            "v": 112, 
                            "dur": 28, 
                            "type": "note", 
                            "channel": 12
                        }
                    ]
                ], 
                [
                    133630, 
                    [
                        {
                            "pitch": 82, 
                            "t0": 133630, 
                            "v": 108, 
                            "dur": 28, 
                            "type": "note", 
                            "channel": 12
                        }
                    ]
                ], 
                [
                    133974, 
                    [
                        {
                            "pitch": 78, 
                            "t0": 133974, 
                            "v": 108, 
                            "dur": 27, 
                            "type": "note", 
                            "channel": 12
                        }, 
                        {
                            "pitch": 82, 
                            "t0": 133974, 
                            "v": 112, 
                            "dur": 30, 
                            "type": "note", 
                            "channel": 12
                        }
                    ]
                ], 
                [
                    133975, 
                    [
                        {
                            "pitch": 75, 
                            "t0": 133975, 
                            "v": 92, 
                            "dur": 26, 
                            "type": "note", 
                            "channel": 12
                        }
                    ]
                ], 
                [
                    134228, 
                    [
                        {
                            "pitch": 82, 
                            "t0": 134228, 
                            "v": 100, 
                            "dur": 31, 
                            "type": "note", 
                            "channel": 12
                        }
                    ]
                ], 
                [
                    134229, 
                    [
                        {
                            "pitch": 78, 
                            "t0": 134229, 
                            "v": 100, 
                            "dur": 28, 
                            "type": "note", 
                            "channel": 12
                        }
                    ]
                ], 
                [
                    134230, 
                    [
                        {
                            "pitch": 75, 
                            "t0": 134230, 
                            "v": 88, 
                            "dur": 30, 
                            "type": "note", 
                            "channel": 12
                        }
                    ]
                ], 
                [
                    134694, 
                    [
                        {
                            "pitch": 75, 
                            "t0": 134694, 
                            "v": 104, 
                            "dur": 22, 
                            "type": "note", 
                            "channel": 12
                        }
                    ]
                ], 
                [
                    134695, 
                    [
                        {
                            "pitch": 78, 
                            "t0": 134695, 
                            "v": 104, 
                            "dur": 18, 
                            "type": "note", 
                            "channel": 12
                        }
                    ]
                ], 
                [
                    134697, 
                    [
                        {
                            "pitch": 82, 
                            "t0": 134697, 
                            "v": 104, 
                            "dur": 18, 
                            "type": "note", 
                            "channel": 12
                        }
                    ]
                ], 
                [
                    134752, 
                    [
                        {
                            "pitch": 75, 
                            "t0": 134752, 
                            "v": 108, 
                            "dur": 31, 
                            "type": "note", 
                            "channel": 12
                        }
                    ]
                ], 
                [
                    134754, 
                    [
                        {
                            "pitch": 78, 
                            "t0": 134754, 
                            "v": 108, 
                            "dur": 23, 
                            "type": "note", 
                            "channel": 12
                        }, 
                        {
                            "pitch": 82, 
                            "t0": 134754, 
                            "v": 108, 
                            "dur": 25, 
                            "type": "note", 
                            "channel": 12
                        }
                    ]
                ], 
                [
                    134803, 
                    [
                        {
                            "pitch": 78, 
                            "t0": 134803, 
                            "v": 96, 
                            "dur": 34, 
                            "type": "note", 
                            "channel": 12
                        }
                    ]
                ], 
                [
                    134804, 
                    [
                        {
                            "pitch": 75, 
                            "t0": 134804, 
                            "v": 88, 
                            "dur": 30, 
                            "type": "note", 
                            "channel": 12
                        }, 
                        {
                            "pitch": 82, 
                            "t0": 134804, 
                            "v": 104, 
                            "dur": 35, 
                            "type": "note", 
                            "channel": 12
                        }
                    ]
                ], 
                [
                    134939, 
                    [
                        {
                            "pitch": 78, 
                            "t0": 134939, 
                            "v": 124, 
                            "dur": 27, 
                            "type": "note", 
                            "channel": 12
                        }
                    ]
                ], 
                [
                    134940, 
                    [
                        {
                            "pitch": 75, 
                            "t0": 134940, 
                            "v": 120, 
                            "dur": 24, 
                            "type": "note", 
                            "channel": 12
                        }, 
                        {
                            "pitch": 82, 
                            "t0": 134940, 
                            "v": 124, 
                            "dur": 28, 
                            "type": "note", 
                            "channel": 12
                        }
                    ]
                ], 
                [
                    135573, 
                    [
                        {
                            "pitch": 75, 
                            "t0": 135573, 
                            "v": 104, 
                            "dur": 27, 
                            "type": "note", 
                            "channel": 12
                        }, 
                        {
                            "pitch": 78, 
                            "t0": 135573, 
                            "v": 112, 
                            "dur": 28, 
                            "type": "note", 
                            "channel": 12
                        }
                    ]
                ], 
                [
                    135574, 
                    [
                        {
                            "pitch": 82, 
                            "t0": 135574, 
                            "v": 108, 
                            "dur": 28, 
                            "type": "note", 
                            "channel": 12
                        }
                    ]
                ], 
                [
                    135918, 
                    [
                        {
                            "pitch": 78, 
                            "t0": 135918, 
                            "v": 108, 
                            "dur": 27, 
                            "type": "note", 
                            "channel": 12
                        }, 
                        {
                            "pitch": 82, 
                            "t0": 135918, 
                            "v": 112, 
                            "dur": 30, 
                            "type": "note", 
                            "channel": 12
                        }
                    ]
                ], 
                [
                    135919, 
                    [
                        {
                            "pitch": 75, 
                            "t0": 135919, 
                            "v": 92, 
                            "dur": 26, 
                            "type": "note", 
                            "channel": 12
                        }
                    ]
                ], 
                [
                    136172, 
                    [
                        {
                            "pitch": 82, 
                            "t0": 136172, 
                            "v": 100, 
                            "dur": 31, 
                            "type": "note", 
                            "channel": 12
                        }
                    ]
                ], 
                [
                    136173, 
                    [
                        {
                            "pitch": 78, 
                            "t0": 136173, 
                            "v": 100, 
                            "dur": 28, 
                            "type": "note", 
                            "channel": 12
                        }
                    ]
                ], 
                [
                    136174, 
                    [
                        {
                            "pitch": 75, 
                            "t0": 136174, 
                            "v": 88, 
                            "dur": 30, 
                            "type": "note", 
                            "channel": 12
                        }
                    ]
                ], 
                [
                    136577, 
                    [
                        {
                            "pitch": 82, 
                            "t0": 136577, 
                            "v": 100, 
                            "dur": 20, 
                            "type": "note", 
                            "channel": 12
                        }
                    ]
                ], 
                [
                    136579, 
                    [
                        {
                            "pitch": 75, 
                            "t0": 136579, 
                            "v": 76, 
                            "dur": 22, 
                            "type": "note", 
                            "channel": 12
                        }
                    ]
                ], 
                [
                    136580, 
                    [
                        {
                            "pitch": 78, 
                            "t0": 136580, 
                            "v": 72, 
                            "dur": 16, 
                            "type": "note", 
                            "channel": 12
                        }
                    ]
                ], 
                [
                    136637, 
                    [
                        {
                            "pitch": 75, 
                            "t0": 136637, 
                            "v": 80, 
                            "dur": 28, 
                            "type": "note", 
                            "channel": 12
                        }
                    ]
                ], 
                [
                    136638, 
                    [
                        {
                            "pitch": 82, 
                            "t0": 136638, 
                            "v": 104, 
                            "dur": 25, 
                            "type": "note", 
                            "channel": 12
                        }
                    ]
                ], 
                [
                    136639, 
                    [
                        {
                            "pitch": 78, 
                            "t0": 136639, 
                            "v": 84, 
                            "dur": 23, 
                            "type": "note", 
                            "channel": 12
                        }
                    ]
                ], 
                [
                    136695, 
                    [
                        {
                            "pitch": 75, 
                            "t0": 136695, 
                            "v": 80, 
                            "dur": 39, 
                            "type": "note", 
                            "channel": 12
                        }
                    ]
                ], 
                [
                    136698, 
                    [
                        {
                            "pitch": 78, 
                            "t0": 136698, 
                            "v": 84, 
                            "dur": 30, 
                            "type": "note", 
                            "channel": 12
                        }
                    ]
                ], 
                [
                    136700, 
                    [
                        {
                            "pitch": 82, 
                            "t0": 136700, 
                            "v": 104, 
                            "dur": 28, 
                            "type": "note", 
                            "channel": 12
                        }
                    ]
                ], 
                [
                    136817, 
                    [
                        {
                            "pitch": 78, 
                            "t0": 136817, 
                            "v": 100, 
                            "dur": 28, 
                            "type": "note", 
                            "channel": 12
                        }
                    ]
                ], 
                [
                    136818, 
                    [
                        {
                            "pitch": 75, 
                            "t0": 136818, 
                            "v": 88, 
                            "dur": 25, 
                            "type": "note", 
                            "channel": 12
                        }, 
                        {
                            "pitch": 82, 
                            "t0": 136818, 
                            "v": 112, 
                            "dur": 26, 
                            "type": "note", 
                            "channel": 12
                        }
                    ]
                ]
            ], 
            "instruments": [
                116
            ], 
            "tMax": 136818, 
            "channels": [
                12
            ], 
            "instrument": 116, 
            "numNotes": 1271, 
            "type": "TrackObj"
        }, 
        {
            "trackName": "Track15", 
            "seq": [], 
            "instruments": [], 
            "channels": [], 
            "numNotes": 0, 
            "type": "TrackObj"
        }, 
        {
            "trackName": "9/98 - TT - 4:46", 
            "seq": [], 
            "instruments": [], 
            "channels": [], 
            "numNotes": 0, 
            "type": "TrackObj"
        }, 
        {
            "trackName": "Track17", 
            "seq": [], 
            "instruments": [], 
            "channels": [], 
            "numNotes": 0, 
            "type": "TrackObj"
        }, 
        {
            "trackName": "\"Distant Drums\"", 
            "seq": [], 
            "instruments": [], 
            "channels": [], 
            "numNotes": 0, 
            "type": "TrackObj"
        }, 
        {
            "trackName": "From the album\"Seer\" - 1999", 
            "seq": [], 
            "instruments": [], 
            "channels": [], 
            "numNotes": 0, 
            "type": "TrackObj"
        }, 
        {
            "trackName": "All Rights Reserved (ASCAP)", 
            "seq": [], 
            "instruments": [], 
            "channels": [], 
            "numNotes": 0, 
            "type": "TrackObj"
        }, 
        {
            "trackName": "Unauthorized Distribution", 
            "seq": [], 
            "instruments": [], 
            "channels": [], 
            "numNotes": 0, 
            "type": "TrackObj"
        }, 
        {
            "trackName": "Strictly Prohibited", 
            "seq": [], 
            "instruments": [], 
            "channels": [], 
            "numNotes": 0, 
            "type": "TrackObj"
        }, 
        {
            "trackName": "Freely distributed for personal", 
            "seq": [], 
            "instruments": [], 
            "channels": [], 
            "numNotes": 0, 
            "type": "TrackObj"
        }, 
        {
            "trackName": "use and non-commercial  sites.", 
            "seq": [], 
            "instruments": [], 
            "channels": [], 
            "numNotes": 0, 
            "type": "TrackObj"
        }, 
        {
            "trackName": "This file may not be sold or", 
            "seq": [], 
            "instruments": [], 
            "channels": [], 
            "numNotes": 0, 
            "type": "TrackObj"
        }, 
        {
            "trackName": "altered under any circumstance.", 
            "seq": [], 
            "instruments": [], 
            "channels": [], 
            "numNotes": 0, 
            "type": "TrackObj"
        }, 
        {
            "trackName": "Contact:", 
            "seq": [], 
            "instruments": [], 
            "channels": [], 
            "numNotes": 0, 
            "type": "TrackObj"
        }, 
        {
            "trackName": "elanmichaels@netscape.net", 
            "seq": [], 
            "instruments": [], 
            "channels": [], 
            "numNotes": 0, 
            "type": "TrackObj"
        }, 
        {
            "trackName": "MP3's:", 
            "seq": [], 
            "instruments": [], 
            "channels": [], 
            "numNotes": 0, 
            "type": "TrackObj"
        }, 
        {
            "trackName": "http://www.mp3.com/elan", 
            "seq": [], 
            "instruments": [], 
            "channels": [], 
            "numNotes": 0, 
            "type": "TrackObj"
        }, 
        {
            "trackName": "****Honor Mother Earth****", 
            "seq": [], 
            "instruments": [], 
            "channels": [], 
            "numNotes": 0, 
            "type": "TrackObj"
        }
    ], 
    "type": "MidiObj"
}