{
    "format": 1, 
    "instruments": [
        32, 
        0, 
        75, 
        45, 
        48, 
        116, 
        85, 
        52
    ], 
    "resolution": 1000, 
    "channels": [
        0, 
        1, 
        2, 
        3, 
        4, 
        5, 
        6, 
        7, 
        8, 
        9, 
        10, 
        11, 
        12, 
        13, 
        14, 
        15
    ], 
    "tracks": [
        {
            "trackName": "Track1", 
            "seq": [
                [
                    0, 
                    [
                        {
                            "bpm": 120.0, 
                            "type": "tempo", 
                            "mpqn": 500000, 
                            "t0": 0
                        }
                    ]
                ]
            ], 
            "instruments": [], 
            "tMax": 0, 
            "channels": [], 
            "numNotes": 0, 
            "type": "TrackObj"
        }, 
        {
            "trackName": "Instrument Track", 
            "seq": [
                [
                    0, 
                    [
                        {
                            "instrument": 116, 
                            "type": "programChange", 
                            "t0": 0, 
                            "channel": 0
                        }
                    ]
                ], 
                [
                    50, 
                    [
                        {
                            "pitch": 50, 
                            "t0": 50, 
                            "v": 80, 
                            "dur": 250, 
                            "type": "note", 
                            "channel": 0
                        }
                    ]
                ], 
                [
                    2000, 
                    [
                        {
                            "pitch": 50, 
                            "t0": 2000, 
                            "v": 80, 
                            "dur": 250, 
                            "type": "note", 
                            "channel": 0
                        }
                    ]
                ], 
                [
                    4050, 
                    [
                        {
                            "pitch": 50, 
                            "t0": 4050, 
                            "v": 80, 
                            "dur": 250, 
                            "type": "note", 
                            "channel": 0
                        }
                    ]
                ], 
                [
                    6000, 
                    [
                        {
                            "pitch": 50, 
                            "t0": 6000, 
                            "v": 80, 
                            "dur": 250, 
                            "type": "note", 
                            "channel": 0
                        }
                    ]
                ], 
                [
                    8050, 
                    [
                        {
                            "pitch": 50, 
                            "t0": 8050, 
                            "v": 80, 
                            "dur": 250, 
                            "type": "note", 
                            "channel": 0
                        }
                    ]
                ], 
                [
                    10000, 
                    [
                        {
                            "pitch": 50, 
                            "t0": 10000, 
                            "v": 80, 
                            "dur": 250, 
                            "type": "note", 
                            "channel": 0
                        }
                    ]
                ], 
                [
                    12050, 
                    [
                        {
                            "pitch": 50, 
                            "t0": 12050, 
                            "v": 80, 
                            "dur": 250, 
                            "type": "note", 
                            "channel": 0
                        }
                    ]
                ], 
                [
                    14000, 
                    [
                        {
                            "pitch": 50, 
                            "t0": 14000, 
                            "v": 80, 
                            "dur": 250, 
                            "type": "note", 
                            "channel": 0
                        }
                    ]
                ], 
                [
                    16050, 
                    [
                        {
                            "pitch": 50, 
                            "t0": 16050, 
                            "v": 80, 
                            "dur": 250, 
                            "type": "note", 
                            "channel": 0
                        }
                    ]
                ], 
                [
                    18000, 
                    [
                        {
                            "pitch": 50, 
                            "t0": 18000, 
                            "v": 80, 
                            "dur": 250, 
                            "type": "note", 
                            "channel": 0
                        }
                    ]
                ], 
                [
                    20050, 
                    [
                        {
                            "pitch": 50, 
                            "t0": 20050, 
                            "v": 80, 
                            "dur": 250, 
                            "type": "note", 
                            "channel": 0
                        }
                    ]
                ], 
                [
                    22000, 
                    [
                        {
                            "pitch": 50, 
                            "t0": 22000, 
                            "v": 80, 
                            "dur": 250, 
                            "type": "note", 
                            "channel": 0
                        }
                    ]
                ], 
                [
                    24050, 
                    [
                        {
                            "pitch": 50, 
                            "t0": 24050, 
                            "v": 80, 
                            "dur": 250, 
                            "type": "note", 
                            "channel": 0
                        }
                    ]
                ], 
                [
                    26000, 
                    [
                        {
                            "pitch": 50, 
                            "t0": 26000, 
                            "v": 80, 
                            "dur": 250, 
                            "type": "note", 
                            "channel": 0
                        }
                    ]
                ], 
                [
                    28050, 
                    [
                        {
                            "pitch": 50, 
                            "t0": 28050, 
                            "v": 80, 
                            "dur": 250, 
                            "type": "note", 
                            "channel": 0
                        }
                    ]
                ], 
                [
                    30000, 
                    [
                        {
                            "pitch": 50, 
                            "t0": 30000, 
                            "v": 80, 
                            "dur": 250, 
                            "type": "note", 
                            "channel": 0
                        }
                    ]
                ], 
                [
                    32050, 
                    [
                        {
                            "pitch": 50, 
                            "t0": 32050, 
                            "v": 80, 
                            "dur": 250, 
                            "type": "note", 
                            "channel": 0
                        }
                    ]
                ], 
                [
                    34000, 
                    [
                        {
                            "pitch": 50, 
                            "t0": 34000, 
                            "v": 80, 
                            "dur": 250, 
                            "type": "note", 
                            "channel": 0
                        }
                    ]
                ], 
                [
                    36050, 
                    [
                        {
                            "pitch": 50, 
                            "t0": 36050, 
                            "v": 80, 
                            "dur": 250, 
                            "type": "note", 
                            "channel": 0
                        }
                    ]
                ], 
                [
                    38000, 
                    [
                        {
                            "pitch": 50, 
                            "t0": 38000, 
                            "v": 80, 
                            "dur": 250, 
                            "type": "note", 
                            "channel": 0
                        }
                    ]
                ], 
                [
                    40050, 
                    [
                        {
                            "pitch": 50, 
                            "t0": 40050, 
                            "v": 80, 
                            "dur": 250, 
                            "type": "note", 
                            "channel": 0
                        }
                    ]
                ], 
                [
                    42000, 
                    [
                        {
                            "pitch": 50, 
                            "t0": 42000, 
                            "v": 80, 
                            "dur": 250, 
                            "type": "note", 
                            "channel": 0
                        }
                    ]
                ], 
                [
                    44050, 
                    [
                        {
                            "pitch": 50, 
                            "t0": 44050, 
                            "v": 80, 
                            "dur": 250, 
                            "type": "note", 
                            "channel": 0
                        }
                    ]
                ], 
                [
                    46000, 
                    [
                        {
                            "pitch": 50, 
                            "t0": 46000, 
                            "v": 80, 
                            "dur": 250, 
                            "type": "note", 
                            "channel": 0
                        }
                    ]
                ], 
                [
                    48050, 
                    [
                        {
                            "pitch": 50, 
                            "t0": 48050, 
                            "v": 80, 
                            "dur": 250, 
                            "type": "note", 
                            "channel": 0
                        }
                    ]
                ], 
                [
                    50000, 
                    [
                        {
                            "pitch": 50, 
                            "t0": 50000, 
                            "v": 80, 
                            "dur": 250, 
                            "type": "note", 
                            "channel": 0
                        }
                    ]
                ], 
                [
                    52050, 
                    [
                        {
                            "pitch": 50, 
                            "t0": 52050, 
                            "v": 80, 
                            "dur": 250, 
                            "type": "note", 
                            "channel": 0
                        }
                    ]
                ], 
                [
                    54000, 
                    [
                        {
                            "pitch": 50, 
                            "t0": 54000, 
                            "v": 80, 
                            "dur": 250, 
                            "type": "note", 
                            "channel": 0
                        }
                    ]
                ], 
                [
                    56050, 
                    [
                        {
                            "pitch": 50, 
                            "t0": 56050, 
                            "v": 80, 
                            "dur": 250, 
                            "type": "note", 
                            "channel": 0
                        }
                    ]
                ], 
                [
                    58000, 
                    [
                        {
                            "pitch": 50, 
                            "t0": 58000, 
                            "v": 80, 
                            "dur": 250, 
                            "type": "note", 
                            "channel": 0
                        }
                    ]
                ], 
                [
                    60050, 
                    [
                        {
                            "pitch": 50, 
                            "t0": 60050, 
                            "v": 80, 
                            "dur": 250, 
                            "type": "note", 
                            "channel": 0
                        }
                    ]
                ], 
                [
                    62000, 
                    [
                        {
                            "pitch": 50, 
                            "t0": 62000, 
                            "v": 80, 
                            "dur": 250, 
                            "type": "note", 
                            "channel": 0
                        }
                    ]
                ], 
                [
                    64050, 
                    [
                        {
                            "pitch": 50, 
                            "t0": 64050, 
                            "v": 80, 
                            "dur": 250, 
                            "type": "note", 
                            "channel": 0
                        }
                    ]
                ], 
                [
                    66000, 
                    [
                        {
                            "pitch": 50, 
                            "t0": 66000, 
                            "v": 80, 
                            "dur": 250, 
                            "type": "note", 
                            "channel": 0
                        }
                    ]
                ], 
                [
                    68050, 
                    [
                        {
                            "pitch": 50, 
                            "t0": 68050, 
                            "v": 80, 
                            "dur": 250, 
                            "type": "note", 
                            "channel": 0
                        }
                    ]
                ], 
                [
                    70000, 
                    [
                        {
                            "pitch": 50, 
                            "t0": 70000, 
                            "v": 80, 
                            "dur": 250, 
                            "type": "note", 
                            "channel": 0
                        }
                    ]
                ], 
                [
                    72050, 
                    [
                        {
                            "pitch": 50, 
                            "t0": 72050, 
                            "v": 80, 
                            "dur": 250, 
                            "type": "note", 
                            "channel": 0
                        }
                    ]
                ], 
                [
                    74000, 
                    [
                        {
                            "pitch": 50, 
                            "t0": 74000, 
                            "v": 80, 
                            "dur": 250, 
                            "type": "note", 
                            "channel": 0
                        }
                    ]
                ], 
                [
                    76050, 
                    [
                        {
                            "pitch": 50, 
                            "t0": 76050, 
                            "v": 80, 
                            "dur": 250, 
                            "type": "note", 
                            "channel": 0
                        }
                    ]
                ], 
                [
                    78000, 
                    [
                        {
                            "pitch": 50, 
                            "t0": 78000, 
                            "v": 80, 
                            "dur": 250, 
                            "type": "note", 
                            "channel": 0
                        }
                    ]
                ], 
                [
                    80050, 
                    [
                        {
                            "pitch": 50, 
                            "t0": 80050, 
                            "v": 80, 
                            "dur": 250, 
                            "type": "note", 
                            "channel": 0
                        }
                    ]
                ], 
                [
                    82000, 
                    [
                        {
                            "pitch": 50, 
                            "t0": 82000, 
                            "v": 80, 
                            "dur": 250, 
                            "type": "note", 
                            "channel": 0
                        }
                    ]
                ], 
                [
                    84050, 
                    [
                        {
                            "pitch": 50, 
                            "t0": 84050, 
                            "v": 80, 
                            "dur": 250, 
                            "type": "note", 
                            "channel": 0
                        }
                    ]
                ], 
                [
                    86000, 
                    [
                        {
                            "pitch": 50, 
                            "t0": 86000, 
                            "v": 80, 
                            "dur": 250, 
                            "type": "note", 
                            "channel": 0
                        }
                    ]
                ], 
                [
                    88050, 
                    [
                        {
                            "pitch": 50, 
                            "t0": 88050, 
                            "v": 80, 
                            "dur": 250, 
                            "type": "note", 
                            "channel": 0
                        }
                    ]
                ], 
                [
                    90000, 
                    [
                        {
                            "pitch": 50, 
                            "t0": 90000, 
                            "v": 80, 
                            "dur": 250, 
                            "type": "note", 
                            "channel": 0
                        }
                    ]
                ], 
                [
                    92050, 
                    [
                        {
                            "pitch": 50, 
                            "t0": 92050, 
                            "v": 80, 
                            "dur": 250, 
                            "type": "note", 
                            "channel": 0
                        }
                    ]
                ], 
                [
                    94000, 
                    [
                        {
                            "pitch": 50, 
                            "t0": 94000, 
                            "v": 80, 
                            "dur": 250, 
                            "type": "note", 
                            "channel": 0
                        }
                    ]
                ], 
                [
                    96050, 
                    [
                        {
                            "pitch": 50, 
                            "t0": 96050, 
                            "v": 80, 
                            "dur": 250, 
                            "type": "note", 
                            "channel": 0
                        }
                    ]
                ], 
                [
                    98000, 
                    [
                        {
                            "pitch": 50, 
                            "t0": 98000, 
                            "v": 80, 
                            "dur": 250, 
                            "type": "note", 
                            "channel": 0
                        }
                    ]
                ], 
                [
                    100050, 
                    [
                        {
                            "pitch": 50, 
                            "t0": 100050, 
                            "v": 80, 
                            "dur": 250, 
                            "type": "note", 
                            "channel": 0
                        }
                    ]
                ], 
                [
                    102000, 
                    [
                        {
                            "pitch": 50, 
                            "t0": 102000, 
                            "v": 80, 
                            "dur": 250, 
                            "type": "note", 
                            "channel": 0
                        }
                    ]
                ], 
                [
                    104050, 
                    [
                        {
                            "pitch": 50, 
                            "t0": 104050, 
                            "v": 80, 
                            "dur": 250, 
                            "type": "note", 
                            "channel": 0
                        }
                    ]
                ], 
                [
                    106000, 
                    [
                        {
                            "pitch": 50, 
                            "t0": 106000, 
                            "v": 80, 
                            "dur": 250, 
                            "type": "note", 
                            "channel": 0
                        }
                    ]
                ], 
                [
                    108050, 
                    [
                        {
                            "pitch": 50, 
                            "t0": 108050, 
                            "v": 80, 
                            "dur": 250, 
                            "type": "note", 
                            "channel": 0
                        }
                    ]
                ], 
                [
                    110000, 
                    [
                        {
                            "pitch": 50, 
                            "t0": 110000, 
                            "v": 80, 
                            "dur": 250, 
                            "type": "note", 
                            "channel": 0
                        }
                    ]
                ], 
                [
                    112050, 
                    [
                        {
                            "pitch": 50, 
                            "t0": 112050, 
                            "v": 80, 
                            "dur": 250, 
                            "type": "note", 
                            "channel": 0
                        }
                    ]
                ], 
                [
                    114000, 
                    [
                        {
                            "pitch": 50, 
                            "t0": 114000, 
                            "v": 80, 
                            "dur": 250, 
                            "type": "note", 
                            "channel": 0
                        }
                    ]
                ], 
                [
                    116050, 
                    [
                        {
                            "pitch": 50, 
                            "t0": 116050, 
                            "v": 80, 
                            "dur": 250, 
                            "type": "note", 
                            "channel": 0
                        }
                    ]
                ], 
                [
                    118000, 
                    [
                        {
                            "pitch": 50, 
                            "t0": 118000, 
                            "v": 80, 
                            "dur": 250, 
                            "type": "note", 
                            "channel": 0
                        }
                    ]
                ], 
                [
                    120050, 
                    [
                        {
                            "pitch": 50, 
                            "t0": 120050, 
                            "v": 80, 
                            "dur": 250, 
                            "type": "note", 
                            "channel": 0
                        }
                    ]
                ], 
                [
                    122000, 
                    [
                        {
                            "pitch": 50, 
                            "t0": 122000, 
                            "v": 80, 
                            "dur": 250, 
                            "type": "note", 
                            "channel": 0
                        }
                    ]
                ], 
                [
                    124050, 
                    [
                        {
                            "pitch": 50, 
                            "t0": 124050, 
                            "v": 80, 
                            "dur": 250, 
                            "type": "note", 
                            "channel": 0
                        }
                    ]
                ], 
                [
                    126000, 
                    [
                        {
                            "pitch": 50, 
                            "t0": 126000, 
                            "v": 80, 
                            "dur": 250, 
                            "type": "note", 
                            "channel": 0
                        }
                    ]
                ], 
                [
                    128050, 
                    [
                        {
                            "pitch": 50, 
                            "t0": 128050, 
                            "v": 80, 
                            "dur": 250, 
                            "type": "note", 
                            "channel": 0
                        }
                    ]
                ], 
                [
                    130000, 
                    [
                        {
                            "pitch": 50, 
                            "t0": 130000, 
                            "v": 80, 
                            "dur": 250, 
                            "type": "note", 
                            "channel": 0
                        }
                    ]
                ], 
                [
                    132050, 
                    [
                        {
                            "pitch": 50, 
                            "t0": 132050, 
                            "v": 80, 
                            "dur": 250, 
                            "type": "note", 
                            "channel": 0
                        }
                    ]
                ], 
                [
                    134000, 
                    [
                        {
                            "pitch": 50, 
                            "t0": 134000, 
                            "v": 80, 
                            "dur": 250, 
                            "type": "note", 
                            "channel": 0
                        }
                    ]
                ], 
                [
                    136050, 
                    [
                        {
                            "pitch": 50, 
                            "t0": 136050, 
                            "v": 80, 
                            "dur": 250, 
                            "type": "note", 
                            "channel": 0
                        }
                    ]
                ], 
                [
                    138000, 
                    [
                        {
                            "pitch": 50, 
                            "t0": 138000, 
                            "v": 80, 
                            "dur": 250, 
                            "type": "note", 
                            "channel": 0
                        }
                    ]
                ], 
                [
                    140050, 
                    [
                        {
                            "pitch": 50, 
                            "t0": 140050, 
                            "v": 80, 
                            "dur": 250, 
                            "type": "note", 
                            "channel": 0
                        }
                    ]
                ], 
                [
                    142000, 
                    [
                        {
                            "pitch": 50, 
                            "t0": 142000, 
                            "v": 80, 
                            "dur": 250, 
                            "type": "note", 
                            "channel": 0
                        }
                    ]
                ], 
                [
                    144050, 
                    [
                        {
                            "pitch": 50, 
                            "t0": 144050, 
                            "v": 80, 
                            "dur": 250, 
                            "type": "note", 
                            "channel": 0
                        }
                    ]
                ], 
                [
                    146000, 
                    [
                        {
                            "pitch": 50, 
                            "t0": 146000, 
                            "v": 80, 
                            "dur": 250, 
                            "type": "note", 
                            "channel": 0
                        }
                    ]
                ], 
                [
                    148050, 
                    [
                        {
                            "pitch": 50, 
                            "t0": 148050, 
                            "v": 80, 
                            "dur": 250, 
                            "type": "note", 
                            "channel": 0
                        }
                    ]
                ], 
                [
                    150000, 
                    [
                        {
                            "pitch": 50, 
                            "t0": 150000, 
                            "v": 80, 
                            "dur": 250, 
                            "type": "note", 
                            "channel": 0
                        }
                    ]
                ], 
                [
                    152050, 
                    [
                        {
                            "pitch": 50, 
                            "t0": 152050, 
                            "v": 80, 
                            "dur": 250, 
                            "type": "note", 
                            "channel": 0
                        }
                    ]
                ], 
                [
                    154000, 
                    [
                        {
                            "pitch": 50, 
                            "t0": 154000, 
                            "v": 80, 
                            "dur": 250, 
                            "type": "note", 
                            "channel": 0
                        }
                    ]
                ], 
                [
                    156050, 
                    [
                        {
                            "pitch": 50, 
                            "t0": 156050, 
                            "v": 80, 
                            "dur": 250, 
                            "type": "note", 
                            "channel": 0
                        }
                    ]
                ], 
                [
                    158000, 
                    [
                        {
                            "pitch": 50, 
                            "t0": 158000, 
                            "v": 80, 
                            "dur": 250, 
                            "type": "note", 
                            "channel": 0
                        }
                    ]
                ], 
                [
                    160050, 
                    [
                        {
                            "pitch": 50, 
                            "t0": 160050, 
                            "v": 80, 
                            "dur": 250, 
                            "type": "note", 
                            "channel": 0
                        }
                    ]
                ], 
                [
                    162000, 
                    [
                        {
                            "pitch": 50, 
                            "t0": 162000, 
                            "v": 80, 
                            "dur": 250, 
                            "type": "note", 
                            "channel": 0
                        }
                    ]
                ], 
                [
                    164050, 
                    [
                        {
                            "pitch": 50, 
                            "t0": 164050, 
                            "v": 80, 
                            "dur": 250, 
                            "type": "note", 
                            "channel": 0
                        }
                    ]
                ], 
                [
                    166000, 
                    [
                        {
                            "pitch": 50, 
                            "t0": 166000, 
                            "v": 80, 
                            "dur": 250, 
                            "type": "note", 
                            "channel": 0
                        }
                    ]
                ], 
                [
                    168050, 
                    [
                        {
                            "pitch": 50, 
                            "t0": 168050, 
                            "v": 80, 
                            "dur": 250, 
                            "type": "note", 
                            "channel": 0
                        }
                    ]
                ], 
                [
                    170000, 
                    [
                        {
                            "pitch": 50, 
                            "t0": 170000, 
                            "v": 80, 
                            "dur": 250, 
                            "type": "note", 
                            "channel": 0
                        }
                    ]
                ], 
                [
                    172050, 
                    [
                        {
                            "pitch": 50, 
                            "t0": 172050, 
                            "v": 80, 
                            "dur": 250, 
                            "type": "note", 
                            "channel": 0
                        }
                    ]
                ], 
                [
                    174000, 
                    [
                        {
                            "pitch": 50, 
                            "t0": 174000, 
                            "v": 80, 
                            "dur": 250, 
                            "type": "note", 
                            "channel": 0
                        }
                    ]
                ], 
                [
                    176050, 
                    [
                        {
                            "pitch": 50, 
                            "t0": 176050, 
                            "v": 80, 
                            "dur": 250, 
                            "type": "note", 
                            "channel": 0
                        }
                    ]
                ], 
                [
                    178000, 
                    [
                        {
                            "pitch": 50, 
                            "t0": 178000, 
                            "v": 80, 
                            "dur": 250, 
                            "type": "note", 
                            "channel": 0
                        }
                    ]
                ], 
                [
                    180050, 
                    [
                        {
                            "pitch": 50, 
                            "t0": 180050, 
                            "v": 80, 
                            "dur": 250, 
                            "type": "note", 
                            "channel": 0
                        }
                    ]
                ], 
                [
                    182000, 
                    [
                        {
                            "pitch": 50, 
                            "t0": 182000, 
                            "v": 80, 
                            "dur": 250, 
                            "type": "note", 
                            "channel": 0
                        }
                    ]
                ], 
                [
                    184050, 
                    [
                        {
                            "pitch": 50, 
                            "t0": 184050, 
                            "v": 80, 
                            "dur": 250, 
                            "type": "note", 
                            "channel": 0
                        }
                    ]
                ], 
                [
                    186000, 
                    [
                        {
                            "pitch": 50, 
                            "t0": 186000, 
                            "v": 80, 
                            "dur": 250, 
                            "type": "note", 
                            "channel": 0
                        }
                    ]
                ], 
                [
                    188050, 
                    [
                        {
                            "pitch": 50, 
                            "t0": 188050, 
                            "v": 80, 
                            "dur": 250, 
                            "type": "note", 
                            "channel": 0
                        }
                    ]
                ], 
                [
                    190000, 
                    [
                        {
                            "pitch": 50, 
                            "t0": 190000, 
                            "v": 80, 
                            "dur": 250, 
                            "type": "note", 
                            "channel": 0
                        }
                    ]
                ], 
                [
                    192050, 
                    [
                        {
                            "pitch": 50, 
                            "t0": 192050, 
                            "v": 80, 
                            "dur": 250, 
                            "type": "note", 
                            "channel": 0
                        }
                    ]
                ], 
                [
                    194000, 
                    [
                        {
                            "pitch": 50, 
                            "t0": 194000, 
                            "v": 80, 
                            "dur": 250, 
                            "type": "note", 
                            "channel": 0
                        }
                    ]
                ], 
                [
                    196050, 
                    [
                        {
                            "pitch": 50, 
                            "t0": 196050, 
                            "v": 80, 
                            "dur": 250, 
                            "type": "note", 
                            "channel": 0
                        }
                    ]
                ], 
                [
                    198000, 
                    [
                        {
                            "pitch": 50, 
                            "t0": 198000, 
                            "v": 80, 
                            "dur": 250, 
                            "type": "note", 
                            "channel": 0
                        }
                    ]
                ], 
                [
                    200050, 
                    [
                        {
                            "pitch": 50, 
                            "t0": 200050, 
                            "v": 80, 
                            "dur": 250, 
                            "type": "note", 
                            "channel": 0
                        }
                    ]
                ], 
                [
                    202000, 
                    [
                        {
                            "pitch": 50, 
                            "t0": 202000, 
                            "v": 80, 
                            "dur": 250, 
                            "type": "note", 
                            "channel": 0
                        }
                    ]
                ], 
                [
                    204050, 
                    [
                        {
                            "pitch": 50, 
                            "t0": 204050, 
                            "v": 80, 
                            "dur": 250, 
                            "type": "note", 
                            "channel": 0
                        }
                    ]
                ], 
                [
                    206000, 
                    [
                        {
                            "pitch": 50, 
                            "t0": 206000, 
                            "v": 80, 
                            "dur": 250, 
                            "type": "note", 
                            "channel": 0
                        }
                    ]
                ], 
                [
                    208050, 
                    [
                        {
                            "pitch": 50, 
                            "t0": 208050, 
                            "v": 80, 
                            "dur": 250, 
                            "type": "note", 
                            "channel": 0
                        }
                    ]
                ], 
                [
                    210000, 
                    [
                        {
                            "pitch": 50, 
                            "t0": 210000, 
                            "v": 80, 
                            "dur": 250, 
                            "type": "note", 
                            "channel": 0
                        }
                    ]
                ], 
                [
                    212050, 
                    [
                        {
                            "pitch": 50, 
                            "t0": 212050, 
                            "v": 80, 
                            "dur": 250, 
                            "type": "note", 
                            "channel": 0
                        }
                    ]
                ], 
                [
                    214000, 
                    [
                        {
                            "pitch": 50, 
                            "t0": 214000, 
                            "v": 80, 
                            "dur": 250, 
                            "type": "note", 
                            "channel": 0
                        }
                    ]
                ], 
                [
                    216050, 
                    [
                        {
                            "pitch": 50, 
                            "t0": 216050, 
                            "v": 80, 
                            "dur": 250, 
                            "type": "note", 
                            "channel": 0
                        }
                    ]
                ], 
                [
                    218000, 
                    [
                        {
                            "pitch": 50, 
                            "t0": 218000, 
                            "v": 80, 
                            "dur": 250, 
                            "type": "note", 
                            "channel": 0
                        }
                    ]
                ], 
                [
                    220050, 
                    [
                        {
                            "pitch": 50, 
                            "t0": 220050, 
                            "v": 80, 
                            "dur": 250, 
                            "type": "note", 
                            "channel": 0
                        }
                    ]
                ], 
                [
                    222000, 
                    [
                        {
                            "pitch": 50, 
                            "t0": 222000, 
                            "v": 80, 
                            "dur": 250, 
                            "type": "note", 
                            "channel": 0
                        }
                    ]
                ], 
                [
                    224050, 
                    [
                        {
                            "pitch": 50, 
                            "t0": 224050, 
                            "v": 80, 
                            "dur": 250, 
                            "type": "note", 
                            "channel": 0
                        }
                    ]
                ], 
                [
                    226000, 
                    [
                        {
                            "pitch": 50, 
                            "t0": 226000, 
                            "v": 80, 
                            "dur": 250, 
                            "type": "note", 
                            "channel": 0
                        }
                    ]
                ], 
                [
                    228050, 
                    [
                        {
                            "pitch": 50, 
                            "t0": 228050, 
                            "v": 80, 
                            "dur": 250, 
                            "type": "note", 
                            "channel": 0
                        }
                    ]
                ], 
                [
                    230000, 
                    [
                        {
                            "pitch": 50, 
                            "t0": 230000, 
                            "v": 80, 
                            "dur": 250, 
                            "type": "note", 
                            "channel": 0
                        }
                    ]
                ], 
                [
                    232050, 
                    [
                        {
                            "pitch": 50, 
                            "t0": 232050, 
                            "v": 80, 
                            "dur": 250, 
                            "type": "note", 
                            "channel": 0
                        }
                    ]
                ], 
                [
                    234000, 
                    [
                        {
                            "pitch": 50, 
                            "t0": 234000, 
                            "v": 80, 
                            "dur": 250, 
                            "type": "note", 
                            "channel": 0
                        }
                    ]
                ], 
                [
                    236050, 
                    [
                        {
                            "pitch": 50, 
                            "t0": 236050, 
                            "v": 80, 
                            "dur": 250, 
                            "type": "note", 
                            "channel": 0
                        }
                    ]
                ], 
                [
                    238000, 
                    [
                        {
                            "pitch": 50, 
                            "t0": 238000, 
                            "v": 80, 
                            "dur": 250, 
                            "type": "note", 
                            "channel": 0
                        }
                    ]
                ], 
                [
                    240050, 
                    [
                        {
                            "pitch": 50, 
                            "t0": 240050, 
                            "v": 80, 
                            "dur": 250, 
                            "type": "note", 
                            "channel": 0
                        }
                    ]
                ], 
                [
                    242000, 
                    [
                        {
                            "pitch": 50, 
                            "t0": 242000, 
                            "v": 80, 
                            "dur": 250, 
                            "type": "note", 
                            "channel": 0
                        }
                    ]
                ], 
                [
                    244050, 
                    [
                        {
                            "pitch": 50, 
                            "t0": 244050, 
                            "v": 80, 
                            "dur": 250, 
                            "type": "note", 
                            "channel": 0
                        }
                    ]
                ], 
                [
                    246000, 
                    [
                        {
                            "pitch": 50, 
                            "t0": 246000, 
                            "v": 80, 
                            "dur": 250, 
                            "type": "note", 
                            "channel": 0
                        }
                    ]
                ], 
                [
                    248050, 
                    [
                        {
                            "pitch": 50, 
                            "t0": 248050, 
                            "v": 80, 
                            "dur": 250, 
                            "type": "note", 
                            "channel": 0
                        }
                    ]
                ], 
                [
                    250000, 
                    [
                        {
                            "pitch": 50, 
                            "t0": 250000, 
                            "v": 80, 
                            "dur": 250, 
                            "type": "note", 
                            "channel": 0
                        }
                    ]
                ], 
                [
                    252050, 
                    [
                        {
                            "pitch": 50, 
                            "t0": 252050, 
                            "v": 80, 
                            "dur": 250, 
                            "type": "note", 
                            "channel": 0
                        }
                    ]
                ], 
                [
                    254000, 
                    [
                        {
                            "pitch": 50, 
                            "t0": 254000, 
                            "v": 80, 
                            "dur": 250, 
                            "type": "note", 
                            "channel": 0
                        }
                    ]
                ], 
                [
                    256050, 
                    [
                        {
                            "pitch": 50, 
                            "t0": 256050, 
                            "v": 80, 
                            "dur": 250, 
                            "type": "note", 
                            "channel": 0
                        }
                    ]
                ], 
                [
                    258000, 
                    [
                        {
                            "pitch": 50, 
                            "t0": 258000, 
                            "v": 80, 
                            "dur": 250, 
                            "type": "note", 
                            "channel": 0
                        }
                    ]
                ], 
                [
                    260050, 
                    [
                        {
                            "pitch": 50, 
                            "t0": 260050, 
                            "v": 80, 
                            "dur": 250, 
                            "type": "note", 
                            "channel": 0
                        }
                    ]
                ], 
                [
                    262000, 
                    [
                        {
                            "pitch": 50, 
                            "t0": 262000, 
                            "v": 80, 
                            "dur": 250, 
                            "type": "note", 
                            "channel": 0
                        }
                    ]
                ], 
                [
                    264050, 
                    [
                        {
                            "pitch": 50, 
                            "t0": 264050, 
                            "v": 80, 
                            "dur": 250, 
                            "type": "note", 
                            "channel": 0
                        }
                    ]
                ], 
                [
                    266000, 
                    [
                        {
                            "pitch": 50, 
                            "t0": 266000, 
                            "v": 80, 
                            "dur": 250, 
                            "type": "note", 
                            "channel": 0
                        }
                    ]
                ], 
                [
                    268050, 
                    [
                        {
                            "pitch": 50, 
                            "t0": 268050, 
                            "v": 80, 
                            "dur": 250, 
                            "type": "note", 
                            "channel": 0
                        }
                    ]
                ], 
                [
                    270000, 
                    [
                        {
                            "pitch": 50, 
                            "t0": 270000, 
                            "v": 80, 
                            "dur": 250, 
                            "type": "note", 
                            "channel": 0
                        }
                    ]
                ], 
                [
                    272050, 
                    [
                        {
                            "pitch": 50, 
                            "t0": 272050, 
                            "v": 80, 
                            "dur": 250, 
                            "type": "note", 
                            "channel": 0
                        }
                    ]
                ], 
                [
                    274000, 
                    [
                        {
                            "pitch": 50, 
                            "t0": 274000, 
                            "v": 80, 
                            "dur": 250, 
                            "type": "note", 
                            "channel": 0
                        }
                    ]
                ], 
                [
                    276050, 
                    [
                        {
                            "pitch": 50, 
                            "t0": 276050, 
                            "v": 80, 
                            "dur": 250, 
                            "type": "note", 
                            "channel": 0
                        }
                    ]
                ], 
                [
                    278000, 
                    [
                        {
                            "pitch": 50, 
                            "t0": 278000, 
                            "v": 80, 
                            "dur": 250, 
                            "type": "note", 
                            "channel": 0
                        }
                    ]
                ], 
                [
                    280050, 
                    [
                        {
                            "pitch": 50, 
                            "t0": 280050, 
                            "v": 80, 
                            "dur": 250, 
                            "type": "note", 
                            "channel": 0
                        }
                    ]
                ], 
                [
                    282000, 
                    [
                        {
                            "pitch": 50, 
                            "t0": 282000, 
                            "v": 80, 
                            "dur": 250, 
                            "type": "note", 
                            "channel": 0
                        }
                    ]
                ], 
                [
                    284050, 
                    [
                        {
                            "pitch": 50, 
                            "t0": 284050, 
                            "v": 80, 
                            "dur": 250, 
                            "type": "note", 
                            "channel": 0
                        }
                    ]
                ], 
                [
                    286000, 
                    [
                        {
                            "pitch": 50, 
                            "t0": 286000, 
                            "v": 80, 
                            "dur": 250, 
                            "type": "note", 
                            "channel": 0
                        }
                    ]
                ], 
                [
                    288050, 
                    [
                        {
                            "pitch": 50, 
                            "t0": 288050, 
                            "v": 80, 
                            "dur": 250, 
                            "type": "note", 
                            "channel": 0
                        }
                    ]
                ], 
                [
                    290000, 
                    [
                        {
                            "pitch": 50, 
                            "t0": 290000, 
                            "v": 80, 
                            "dur": 250, 
                            "type": "note", 
                            "channel": 0
                        }
                    ]
                ], 
                [
                    292050, 
                    [
                        {
                            "pitch": 50, 
                            "t0": 292050, 
                            "v": 80, 
                            "dur": 250, 
                            "type": "note", 
                            "channel": 0
                        }
                    ]
                ], 
                [
                    294000, 
                    [
                        {
                            "pitch": 50, 
                            "t0": 294000, 
                            "v": 80, 
                            "dur": 250, 
                            "type": "note", 
                            "channel": 0
                        }
                    ]
                ], 
                [
                    296050, 
                    [
                        {
                            "pitch": 50, 
                            "t0": 296050, 
                            "v": 80, 
                            "dur": 250, 
                            "type": "note", 
                            "channel": 0
                        }
                    ]
                ], 
                [
                    298000, 
                    [
                        {
                            "pitch": 50, 
                            "t0": 298000, 
                            "v": 80, 
                            "dur": 250, 
                            "type": "note", 
                            "channel": 0
                        }
                    ]
                ], 
                [
                    300050, 
                    [
                        {
                            "pitch": 50, 
                            "t0": 300050, 
                            "v": 80, 
                            "dur": 250, 
                            "type": "note", 
                            "channel": 0
                        }
                    ]
                ], 
                [
                    302000, 
                    [
                        {
                            "pitch": 50, 
                            "t0": 302000, 
                            "v": 80, 
                            "dur": 250, 
                            "type": "note", 
                            "channel": 0
                        }
                    ]
                ], 
                [
                    304050, 
                    [
                        {
                            "pitch": 50, 
                            "t0": 304050, 
                            "v": 80, 
                            "dur": 250, 
                            "type": "note", 
                            "channel": 0
                        }
                    ]
                ], 
                [
                    306000, 
                    [
                        {
                            "pitch": 50, 
                            "t0": 306000, 
                            "v": 80, 
                            "dur": 250, 
                            "type": "note", 
                            "channel": 0
                        }
                    ]
                ], 
                [
                    308050, 
                    [
                        {
                            "pitch": 50, 
                            "t0": 308050, 
                            "v": 80, 
                            "dur": 250, 
                            "type": "note", 
                            "channel": 0
                        }
                    ]
                ], 
                [
                    310000, 
                    [
                        {
                            "pitch": 50, 
                            "t0": 310000, 
                            "v": 80, 
                            "dur": 250, 
                            "type": "note", 
                            "channel": 0
                        }
                    ]
                ], 
                [
                    312050, 
                    [
                        {
                            "pitch": 50, 
                            "t0": 312050, 
                            "v": 80, 
                            "dur": 250, 
                            "type": "note", 
                            "channel": 0
                        }
                    ]
                ], 
                [
                    314000, 
                    [
                        {
                            "pitch": 50, 
                            "t0": 314000, 
                            "v": 80, 
                            "dur": 250, 
                            "type": "note", 
                            "channel": 0
                        }
                    ]
                ], 
                [
                    316050, 
                    [
                        {
                            "pitch": 50, 
                            "t0": 316050, 
                            "v": 80, 
                            "dur": 250, 
                            "type": "note", 
                            "channel": 0
                        }
                    ]
                ], 
                [
                    318000, 
                    [
                        {
                            "pitch": 50, 
                            "t0": 318000, 
                            "v": 80, 
                            "dur": 250, 
                            "type": "note", 
                            "channel": 0
                        }
                    ]
                ], 
                [
                    320050, 
                    [
                        {
                            "pitch": 50, 
                            "t0": 320050, 
                            "v": 80, 
                            "dur": 250, 
                            "type": "note", 
                            "channel": 0
                        }
                    ]
                ], 
                [
                    322000, 
                    [
                        {
                            "pitch": 50, 
                            "t0": 322000, 
                            "v": 80, 
                            "dur": 250, 
                            "type": "note", 
                            "channel": 0
                        }
                    ]
                ], 
                [
                    324050, 
                    [
                        {
                            "pitch": 50, 
                            "t0": 324050, 
                            "v": 80, 
                            "dur": 250, 
                            "type": "note", 
                            "channel": 0
                        }
                    ]
                ], 
                [
                    326000, 
                    [
                        {
                            "pitch": 50, 
                            "t0": 326000, 
                            "v": 80, 
                            "dur": 250, 
                            "type": "note", 
                            "channel": 0
                        }
                    ]
                ], 
                [
                    328050, 
                    [
                        {
                            "pitch": 50, 
                            "t0": 328050, 
                            "v": 80, 
                            "dur": 250, 
                            "type": "note", 
                            "channel": 0
                        }
                    ]
                ], 
                [
                    330000, 
                    [
                        {
                            "pitch": 50, 
                            "t0": 330000, 
                            "v": 80, 
                            "dur": 250, 
                            "type": "note", 
                            "channel": 0
                        }
                    ]
                ], 
                [
                    332050, 
                    [
                        {
                            "pitch": 50, 
                            "t0": 332050, 
                            "v": 80, 
                            "dur": 250, 
                            "type": "note", 
                            "channel": 0
                        }
                    ]
                ], 
                [
                    334000, 
                    [
                        {
                            "pitch": 50, 
                            "t0": 334000, 
                            "v": 80, 
                            "dur": 250, 
                            "type": "note", 
                            "channel": 0
                        }
                    ]
                ], 
                [
                    336050, 
                    [
                        {
                            "pitch": 50, 
                            "t0": 336050, 
                            "v": 80, 
                            "dur": 250, 
                            "type": "note", 
                            "channel": 0
                        }
                    ]
                ], 
                [
                    338000, 
                    [
                        {
                            "pitch": 50, 
                            "t0": 338000, 
                            "v": 80, 
                            "dur": 250, 
                            "type": "note", 
                            "channel": 0
                        }
                    ]
                ], 
                [
                    340050, 
                    [
                        {
                            "pitch": 50, 
                            "t0": 340050, 
                            "v": 80, 
                            "dur": 250, 
                            "type": "note", 
                            "channel": 0
                        }
                    ]
                ], 
                [
                    342000, 
                    [
                        {
                            "pitch": 50, 
                            "t0": 342000, 
                            "v": 80, 
                            "dur": 250, 
                            "type": "note", 
                            "channel": 0
                        }
                    ]
                ], 
                [
                    344050, 
                    [
                        {
                            "pitch": 50, 
                            "t0": 344050, 
                            "v": 80, 
                            "dur": 250, 
                            "type": "note", 
                            "channel": 0
                        }
                    ]
                ], 
                [
                    346000, 
                    [
                        {
                            "pitch": 50, 
                            "t0": 346000, 
                            "v": 80, 
                            "dur": 250, 
                            "type": "note", 
                            "channel": 0
                        }
                    ]
                ], 
                [
                    348050, 
                    [
                        {
                            "pitch": 50, 
                            "t0": 348050, 
                            "v": 80, 
                            "dur": 250, 
                            "type": "note", 
                            "channel": 0
                        }
                    ]
                ], 
                [
                    350000, 
                    [
                        {
                            "pitch": 50, 
                            "t0": 350000, 
                            "v": 80, 
                            "dur": 250, 
                            "type": "note", 
                            "channel": 0
                        }
                    ]
                ], 
                [
                    352050, 
                    [
                        {
                            "pitch": 50, 
                            "t0": 352050, 
                            "v": 80, 
                            "dur": 250, 
                            "type": "note", 
                            "channel": 0
                        }
                    ]
                ], 
                [
                    354000, 
                    [
                        {
                            "pitch": 50, 
                            "t0": 354000, 
                            "v": 80, 
                            "dur": 250, 
                            "type": "note", 
                            "channel": 0
                        }
                    ]
                ], 
                [
                    356050, 
                    [
                        {
                            "pitch": 50, 
                            "t0": 356050, 
                            "v": 80, 
                            "dur": 250, 
                            "type": "note", 
                            "channel": 0
                        }
                    ]
                ], 
                [
                    358000, 
                    [
                        {
                            "pitch": 50, 
                            "t0": 358000, 
                            "v": 80, 
                            "dur": 250, 
                            "type": "note", 
                            "channel": 0
                        }
                    ]
                ], 
                [
                    360050, 
                    [
                        {
                            "pitch": 50, 
                            "t0": 360050, 
                            "v": 80, 
                            "dur": 250, 
                            "type": "note", 
                            "channel": 0
                        }
                    ]
                ], 
                [
                    362000, 
                    [
                        {
                            "pitch": 50, 
                            "t0": 362000, 
                            "v": 80, 
                            "dur": 250, 
                            "type": "note", 
                            "channel": 0
                        }
                    ]
                ], 
                [
                    364050, 
                    [
                        {
                            "pitch": 50, 
                            "t0": 364050, 
                            "v": 80, 
                            "dur": 250, 
                            "type": "note", 
                            "channel": 0
                        }
                    ]
                ], 
                [
                    366000, 
                    [
                        {
                            "pitch": 50, 
                            "t0": 366000, 
                            "v": 80, 
                            "dur": 250, 
                            "type": "note", 
                            "channel": 0
                        }
                    ]
                ], 
                [
                    368050, 
                    [
                        {
                            "pitch": 50, 
                            "t0": 368050, 
                            "v": 80, 
                            "dur": 250, 
                            "type": "note", 
                            "channel": 0
                        }
                    ]
                ], 
                [
                    370000, 
                    [
                        {
                            "pitch": 50, 
                            "t0": 370000, 
                            "v": 80, 
                            "dur": 250, 
                            "type": "note", 
                            "channel": 0
                        }
                    ]
                ], 
                [
                    372050, 
                    [
                        {
                            "pitch": 50, 
                            "t0": 372050, 
                            "v": 80, 
                            "dur": 250, 
                            "type": "note", 
                            "channel": 0
                        }
                    ]
                ], 
                [
                    374000, 
                    [
                        {
                            "pitch": 50, 
                            "t0": 374000, 
                            "v": 80, 
                            "dur": 250, 
                            "type": "note", 
                            "channel": 0
                        }
                    ]
                ], 
                [
                    376050, 
                    [
                        {
                            "pitch": 50, 
                            "t0": 376050, 
                            "v": 80, 
                            "dur": 250, 
                            "type": "note", 
                            "channel": 0
                        }
                    ]
                ], 
                [
                    378000, 
                    [
                        {
                            "pitch": 50, 
                            "t0": 378000, 
                            "v": 80, 
                            "dur": 250, 
                            "type": "note", 
                            "channel": 0
                        }
                    ]
                ], 
                [
                    380050, 
                    [
                        {
                            "pitch": 50, 
                            "t0": 380050, 
                            "v": 80, 
                            "dur": 250, 
                            "type": "note", 
                            "channel": 0
                        }
                    ]
                ], 
                [
                    382000, 
                    [
                        {
                            "pitch": 50, 
                            "t0": 382000, 
                            "v": 80, 
                            "dur": 250, 
                            "type": "note", 
                            "channel": 0
                        }
                    ]
                ], 
                [
                    384050, 
                    [
                        {
                            "pitch": 50, 
                            "t0": 384050, 
                            "v": 80, 
                            "dur": 250, 
                            "type": "note", 
                            "channel": 0
                        }
                    ]
                ], 
                [
                    386000, 
                    [
                        {
                            "pitch": 50, 
                            "t0": 386000, 
                            "v": 80, 
                            "dur": 250, 
                            "type": "note", 
                            "channel": 0
                        }
                    ]
                ], 
                [
                    388050, 
                    [
                        {
                            "pitch": 50, 
                            "t0": 388050, 
                            "v": 80, 
                            "dur": 250, 
                            "type": "note", 
                            "channel": 0
                        }
                    ]
                ], 
                [
                    390000, 
                    [
                        {
                            "pitch": 50, 
                            "t0": 390000, 
                            "v": 80, 
                            "dur": 250, 
                            "type": "note", 
                            "channel": 0
                        }
                    ]
                ], 
                [
                    392050, 
                    [
                        {
                            "pitch": 50, 
                            "t0": 392050, 
                            "v": 80, 
                            "dur": 250, 
                            "type": "note", 
                            "channel": 0
                        }
                    ]
                ], 
                [
                    394000, 
                    [
                        {
                            "pitch": 50, 
                            "t0": 394000, 
                            "v": 80, 
                            "dur": 250, 
                            "type": "note", 
                            "channel": 0
                        }
                    ]
                ], 
                [
                    396050, 
                    [
                        {
                            "pitch": 50, 
                            "t0": 396050, 
                            "v": 80, 
                            "dur": 250, 
                            "type": "note", 
                            "channel": 0
                        }
                    ]
                ], 
                [
                    398000, 
                    [
                        {
                            "pitch": 50, 
                            "t0": 398000, 
                            "v": 80, 
                            "dur": 250, 
                            "type": "note", 
                            "channel": 0
                        }
                    ]
                ], 
                [
                    400050, 
                    [
                        {
                            "pitch": 50, 
                            "t0": 400050, 
                            "v": 80, 
                            "dur": 250, 
                            "type": "note", 
                            "channel": 0
                        }
                    ]
                ], 
                [
                    402000, 
                    [
                        {
                            "pitch": 50, 
                            "t0": 402000, 
                            "v": 80, 
                            "dur": 250, 
                            "type": "note", 
                            "channel": 0
                        }
                    ]
                ], 
                [
                    404050, 
                    [
                        {
                            "pitch": 50, 
                            "t0": 404050, 
                            "v": 80, 
                            "dur": 250, 
                            "type": "note", 
                            "channel": 0
                        }
                    ]
                ], 
                [
                    406000, 
                    [
                        {
                            "pitch": 50, 
                            "t0": 406000, 
                            "v": 80, 
                            "dur": 250, 
                            "type": "note", 
                            "channel": 0
                        }
                    ]
                ], 
                [
                    408050, 
                    [
                        {
                            "pitch": 50, 
                            "t0": 408050, 
                            "v": 80, 
                            "dur": 250, 
                            "type": "note", 
                            "channel": 0
                        }
                    ]
                ], 
                [
                    410000, 
                    [
                        {
                            "pitch": 50, 
                            "t0": 410000, 
                            "v": 80, 
                            "dur": 250, 
                            "type": "note", 
                            "channel": 0
                        }
                    ]
                ], 
                [
                    412050, 
                    [
                        {
                            "pitch": 50, 
                            "t0": 412050, 
                            "v": 80, 
                            "dur": 250, 
                            "type": "note", 
                            "channel": 0
                        }
                    ]
                ], 
                [
                    414000, 
                    [
                        {
                            "pitch": 50, 
                            "t0": 414000, 
                            "v": 80, 
                            "dur": 250, 
                            "type": "note", 
                            "channel": 0
                        }
                    ]
                ], 
                [
                    416050, 
                    [
                        {
                            "pitch": 50, 
                            "t0": 416050, 
                            "v": 80, 
                            "dur": 250, 
                            "type": "note", 
                            "channel": 0
                        }
                    ]
                ], 
                [
                    418000, 
                    [
                        {
                            "pitch": 50, 
                            "t0": 418000, 
                            "v": 80, 
                            "dur": 250, 
                            "type": "note", 
                            "channel": 0
                        }
                    ]
                ], 
                [
                    420050, 
                    [
                        {
                            "pitch": 50, 
                            "t0": 420050, 
                            "v": 80, 
                            "dur": 250, 
                            "type": "note", 
                            "channel": 0
                        }
                    ]
                ], 
                [
                    422000, 
                    [
                        {
                            "pitch": 50, 
                            "t0": 422000, 
                            "v": 80, 
                            "dur": 250, 
                            "type": "note", 
                            "channel": 0
                        }
                    ]
                ], 
                [
                    424050, 
                    [
                        {
                            "pitch": 50, 
                            "t0": 424050, 
                            "v": 80, 
                            "dur": 250, 
                            "type": "note", 
                            "channel": 0
                        }
                    ]
                ], 
                [
                    426000, 
                    [
                        {
                            "pitch": 50, 
                            "t0": 426000, 
                            "v": 80, 
                            "dur": 250, 
                            "type": "note", 
                            "channel": 0
                        }
                    ]
                ], 
                [
                    428050, 
                    [
                        {
                            "pitch": 50, 
                            "t0": 428050, 
                            "v": 80, 
                            "dur": 250, 
                            "type": "note", 
                            "channel": 0
                        }
                    ]
                ], 
                [
                    430000, 
                    [
                        {
                            "pitch": 50, 
                            "t0": 430000, 
                            "v": 80, 
                            "dur": 250, 
                            "type": "note", 
                            "channel": 0
                        }
                    ]
                ], 
                [
                    432050, 
                    [
                        {
                            "pitch": 50, 
                            "t0": 432050, 
                            "v": 80, 
                            "dur": 250, 
                            "type": "note", 
                            "channel": 0
                        }
                    ]
                ], 
                [
                    434000, 
                    [
                        {
                            "pitch": 50, 
                            "t0": 434000, 
                            "v": 80, 
                            "dur": 250, 
                            "type": "note", 
                            "channel": 0
                        }
                    ]
                ], 
                [
                    436050, 
                    [
                        {
                            "pitch": 50, 
                            "t0": 436050, 
                            "v": 80, 
                            "dur": 250, 
                            "type": "note", 
                            "channel": 0
                        }
                    ]
                ], 
                [
                    438000, 
                    [
                        {
                            "pitch": 50, 
                            "t0": 438000, 
                            "v": 80, 
                            "dur": 250, 
                            "type": "note", 
                            "channel": 0
                        }
                    ]
                ], 
                [
                    440050, 
                    [
                        {
                            "pitch": 50, 
                            "t0": 440050, 
                            "v": 80, 
                            "dur": 250, 
                            "type": "note", 
                            "channel": 0
                        }
                    ]
                ], 
                [
                    442000, 
                    [
                        {
                            "pitch": 50, 
                            "t0": 442000, 
                            "v": 80, 
                            "dur": 250, 
                            "type": "note", 
                            "channel": 0
                        }
                    ]
                ], 
                [
                    444050, 
                    [
                        {
                            "pitch": 50, 
                            "t0": 444050, 
                            "v": 80, 
                            "dur": 250, 
                            "type": "note", 
                            "channel": 0
                        }
                    ]
                ], 
                [
                    446000, 
                    [
                        {
                            "pitch": 50, 
                            "t0": 446000, 
                            "v": 80, 
                            "dur": 250, 
                            "type": "note", 
                            "channel": 0
                        }
                    ]
                ], 
                [
                    448050, 
                    [
                        {
                            "pitch": 50, 
                            "t0": 448050, 
                            "v": 80, 
                            "dur": 250, 
                            "type": "note", 
                            "channel": 0
                        }
                    ]
                ], 
                [
                    450000, 
                    [
                        {
                            "pitch": 50, 
                            "t0": 450000, 
                            "v": 80, 
                            "dur": 250, 
                            "type": "note", 
                            "channel": 0
                        }
                    ]
                ], 
                [
                    452050, 
                    [
                        {
                            "pitch": 50, 
                            "t0": 452050, 
                            "v": 80, 
                            "dur": 250, 
                            "type": "note", 
                            "channel": 0
                        }
                    ]
                ], 
                [
                    454000, 
                    [
                        {
                            "pitch": 50, 
                            "t0": 454000, 
                            "v": 80, 
                            "dur": 250, 
                            "type": "note", 
                            "channel": 0
                        }
                    ]
                ], 
                [
                    456050, 
                    [
                        {
                            "pitch": 50, 
                            "t0": 456050, 
                            "v": 80, 
                            "dur": 250, 
                            "type": "note", 
                            "channel": 0
                        }
                    ]
                ], 
                [
                    458000, 
                    [
                        {
                            "pitch": 50, 
                            "t0": 458000, 
                            "v": 80, 
                            "dur": 250, 
                            "type": "note", 
                            "channel": 0
                        }
                    ]
                ], 
                [
                    460050, 
                    [
                        {
                            "pitch": 50, 
                            "t0": 460050, 
                            "v": 80, 
                            "dur": 250, 
                            "type": "note", 
                            "channel": 0
                        }
                    ]
                ], 
                [
                    462000, 
                    [
                        {
                            "pitch": 50, 
                            "t0": 462000, 
                            "v": 80, 
                            "dur": 250, 
                            "type": "note", 
                            "channel": 0
                        }
                    ]
                ], 
                [
                    464050, 
                    [
                        {
                            "pitch": 50, 
                            "t0": 464050, 
                            "v": 80, 
                            "dur": 250, 
                            "type": "note", 
                            "channel": 0
                        }
                    ]
                ], 
                [
                    466000, 
                    [
                        {
                            "pitch": 50, 
                            "t0": 466000, 
                            "v": 80, 
                            "dur": 250, 
                            "type": "note", 
                            "channel": 0
                        }
                    ]
                ], 
                [
                    468050, 
                    [
                        {
                            "pitch": 50, 
                            "t0": 468050, 
                            "v": 80, 
                            "dur": 250, 
                            "type": "note", 
                            "channel": 0
                        }
                    ]
                ], 
                [
                    470000, 
                    [
                        {
                            "pitch": 50, 
                            "t0": 470000, 
                            "v": 80, 
                            "dur": 250, 
                            "type": "note", 
                            "channel": 0
                        }
                    ]
                ], 
                [
                    472050, 
                    [
                        {
                            "pitch": 50, 
                            "t0": 472050, 
                            "v": 80, 
                            "dur": 250, 
                            "type": "note", 
                            "channel": 0
                        }
                    ]
                ], 
                [
                    474000, 
                    [
                        {
                            "pitch": 50, 
                            "t0": 474000, 
                            "v": 80, 
                            "dur": 250, 
                            "type": "note", 
                            "channel": 0
                        }
                    ]
                ], 
                [
                    476050, 
                    [
                        {
                            "pitch": 50, 
                            "t0": 476050, 
                            "v": 80, 
                            "dur": 250, 
                            "type": "note", 
                            "channel": 0
                        }
                    ]
                ], 
                [
                    478000, 
                    [
                        {
                            "pitch": 50, 
                            "t0": 478000, 
                            "v": 80, 
                            "dur": 250, 
                            "type": "note", 
                            "channel": 0
                        }
                    ]
                ], 
                [
                    480050, 
                    [
                        {
                            "pitch": 50, 
                            "t0": 480050, 
                            "v": 80, 
                            "dur": 250, 
                            "type": "note", 
                            "channel": 0
                        }
                    ]
                ], 
                [
                    482000, 
                    [
                        {
                            "pitch": 50, 
                            "t0": 482000, 
                            "v": 80, 
                            "dur": 250, 
                            "type": "note", 
                            "channel": 0
                        }
                    ]
                ], 
                [
                    484050, 
                    [
                        {
                            "pitch": 50, 
                            "t0": 484050, 
                            "v": 80, 
                            "dur": 250, 
                            "type": "note", 
                            "channel": 0
                        }
                    ]
                ], 
                [
                    486000, 
                    [
                        {
                            "pitch": 50, 
                            "t0": 486000, 
                            "v": 80, 
                            "dur": 250, 
                            "type": "note", 
                            "channel": 0
                        }
                    ]
                ], 
                [
                    488050, 
                    [
                        {
                            "pitch": 50, 
                            "t0": 488050, 
                            "v": 80, 
                            "dur": 250, 
                            "type": "note", 
                            "channel": 0
                        }
                    ]
                ], 
                [
                    490000, 
                    [
                        {
                            "pitch": 50, 
                            "t0": 490000, 
                            "v": 80, 
                            "dur": 250, 
                            "type": "note", 
                            "channel": 0
                        }
                    ]
                ], 
                [
                    492050, 
                    [
                        {
                            "pitch": 50, 
                            "t0": 492050, 
                            "v": 80, 
                            "dur": 250, 
                            "type": "note", 
                            "channel": 0
                        }
                    ]
                ], 
                [
                    494000, 
                    [
                        {
                            "pitch": 50, 
                            "t0": 494000, 
                            "v": 80, 
                            "dur": 250, 
                            "type": "note", 
                            "channel": 0
                        }
                    ]
                ], 
                [
                    496050, 
                    [
                        {
                            "pitch": 50, 
                            "t0": 496050, 
                            "v": 80, 
                            "dur": 250, 
                            "type": "note", 
                            "channel": 0
                        }
                    ]
                ], 
                [
                    498000, 
                    [
                        {
                            "pitch": 50, 
                            "t0": 498000, 
                            "v": 80, 
                            "dur": 250, 
                            "type": "note", 
                            "channel": 0
                        }
                    ]
                ], 
                [
                    500050, 
                    [
                        {
                            "pitch": 50, 
                            "t0": 500050, 
                            "v": 80, 
                            "dur": 250, 
                            "type": "note", 
                            "channel": 0
                        }
                    ]
                ], 
                [
                    502000, 
                    [
                        {
                            "pitch": 50, 
                            "t0": 502000, 
                            "v": 80, 
                            "dur": 250, 
                            "type": "note", 
                            "channel": 0
                        }
                    ]
                ], 
                [
                    504050, 
                    [
                        {
                            "pitch": 50, 
                            "t0": 504050, 
                            "v": 80, 
                            "dur": 250, 
                            "type": "note", 
                            "channel": 0
                        }
                    ]
                ], 
                [
                    506000, 
                    [
                        {
                            "pitch": 50, 
                            "t0": 506000, 
                            "v": 80, 
                            "dur": 250, 
                            "type": "note", 
                            "channel": 0
                        }
                    ]
                ], 
                [
                    508050, 
                    [
                        {
                            "pitch": 50, 
                            "t0": 508050, 
                            "v": 80, 
                            "dur": 250, 
                            "type": "note", 
                            "channel": 0
                        }
                    ]
                ], 
                [
                    510000, 
                    [
                        {
                            "pitch": 50, 
                            "t0": 510000, 
                            "v": 80, 
                            "dur": 250, 
                            "type": "note", 
                            "channel": 0
                        }
                    ]
                ], 
                [
                    512050, 
                    [
                        {
                            "pitch": 50, 
                            "t0": 512050, 
                            "v": 80, 
                            "dur": 250, 
                            "type": "note", 
                            "channel": 0
                        }
                    ]
                ], 
                [
                    514000, 
                    [
                        {
                            "pitch": 50, 
                            "t0": 514000, 
                            "v": 80, 
                            "dur": 250, 
                            "type": "note", 
                            "channel": 0
                        }
                    ]
                ], 
                [
                    516050, 
                    [
                        {
                            "pitch": 50, 
                            "t0": 516050, 
                            "v": 80, 
                            "dur": 250, 
                            "type": "note", 
                            "channel": 0
                        }
                    ]
                ], 
                [
                    518000, 
                    [
                        {
                            "pitch": 50, 
                            "t0": 518000, 
                            "v": 80, 
                            "dur": 250, 
                            "type": "note", 
                            "channel": 0
                        }
                    ]
                ], 
                [
                    520050, 
                    [
                        {
                            "pitch": 50, 
                            "t0": 520050, 
                            "v": 80, 
                            "dur": 250, 
                            "type": "note", 
                            "channel": 0
                        }
                    ]
                ], 
                [
                    522000, 
                    [
                        {
                            "pitch": 50, 
                            "t0": 522000, 
                            "v": 80, 
                            "dur": 250, 
                            "type": "note", 
                            "channel": 0
                        }
                    ]
                ], 
                [
                    524050, 
                    [
                        {
                            "pitch": 50, 
                            "t0": 524050, 
                            "v": 80, 
                            "dur": 250, 
                            "type": "note", 
                            "channel": 0
                        }
                    ]
                ], 
                [
                    526000, 
                    [
                        {
                            "pitch": 50, 
                            "t0": 526000, 
                            "v": 80, 
                            "dur": 250, 
                            "type": "note", 
                            "channel": 0
                        }
                    ]
                ], 
                [
                    528050, 
                    [
                        {
                            "pitch": 50, 
                            "t0": 528050, 
                            "v": 80, 
                            "dur": 250, 
                            "type": "note", 
                            "channel": 0
                        }
                    ]
                ], 
                [
                    530000, 
                    [
                        {
                            "pitch": 50, 
                            "t0": 530000, 
                            "v": 80, 
                            "dur": 250, 
                            "type": "note", 
                            "channel": 0
                        }
                    ]
                ], 
                [
                    532050, 
                    [
                        {
                            "pitch": 50, 
                            "t0": 532050, 
                            "v": 80, 
                            "dur": 250, 
                            "type": "note", 
                            "channel": 0
                        }
                    ]
                ], 
                [
                    534000, 
                    [
                        {
                            "pitch": 50, 
                            "t0": 534000, 
                            "v": 80, 
                            "dur": 250, 
                            "type": "note", 
                            "channel": 0
                        }
                    ]
                ], 
                [
                    536050, 
                    [
                        {
                            "pitch": 50, 
                            "t0": 536050, 
                            "v": 80, 
                            "dur": 250, 
                            "type": "note", 
                            "channel": 0
                        }
                    ]
                ], 
                [
                    538000, 
                    [
                        {
                            "pitch": 50, 
                            "t0": 538000, 
                            "v": 80, 
                            "dur": 250, 
                            "type": "note", 
                            "channel": 0
                        }
                    ]
                ], 
                [
                    540050, 
                    [
                        {
                            "pitch": 50, 
                            "t0": 540050, 
                            "v": 80, 
                            "dur": 250, 
                            "type": "note", 
                            "channel": 0
                        }
                    ]
                ], 
                [
                    542000, 
                    [
                        {
                            "pitch": 50, 
                            "t0": 542000, 
                            "v": 80, 
                            "dur": 250, 
                            "type": "note", 
                            "channel": 0
                        }
                    ]
                ]
            ], 
            "instruments": [
                116
            ], 
            "tMax": 542000, 
            "channels": [
                0
            ], 
            "instrument": 116, 
            "numNotes": 272, 
            "type": "TrackObj"
        }, 
        {
            "trackName": "Instrument Track", 
            "seq": [
                [
                    0, 
                    [
                        {
                            "instrument": 48, 
                            "type": "programChange", 
                            "t0": 0, 
                            "channel": 1
                        }
                    ]
                ], 
                [
                    926, 
                    [
                        {
                            "pitch": 50, 
                            "t0": 926, 
                            "v": 84, 
                            "dur": 91050, 
                            "type": "note", 
                            "channel": 1
                        }, 
                        {
                            "pitch": 45, 
                            "t0": 926, 
                            "v": 80, 
                            "dur": 91050, 
                            "type": "note", 
                            "channel": 1
                        }
                    ]
                ], 
                [
                    7854, 
                    [
                        {
                            "pitch": 53, 
                            "t0": 7854, 
                            "v": 56, 
                            "dur": 84100, 
                            "type": "note", 
                            "channel": 1
                        }
                    ]
                ], 
                [
                    15920, 
                    [
                        {
                            "pitch": 57, 
                            "t0": 15920, 
                            "v": 92, 
                            "dur": 76050, 
                            "type": "note", 
                            "channel": 1
                        }
                    ]
                ], 
                [
                    24870, 
                    [
                        {
                            "pitch": 62, 
                            "t0": 24870, 
                            "v": 92, 
                            "dur": 17768, 
                            "type": "note", 
                            "channel": 1
                        }
                    ]
                ], 
                [
                    25858, 
                    [
                        {
                            "pitch": 65, 
                            "t0": 25858, 
                            "v": 84, 
                            "dur": 2380, 
                            "type": "note", 
                            "channel": 1
                        }
                    ]
                ], 
                [
                    27870, 
                    [
                        {
                            "pitch": 69, 
                            "t0": 27870, 
                            "v": 112, 
                            "dur": 2184, 
                            "type": "note", 
                            "channel": 1
                        }
                    ]
                ], 
                [
                    29926, 
                    [
                        {
                            "pitch": 71, 
                            "t0": 29926, 
                            "v": 76, 
                            "dur": 4216, 
                            "type": "note", 
                            "channel": 1
                        }
                    ]
                ], 
                [
                    33946, 
                    [
                        {
                            "pitch": 69, 
                            "t0": 33946, 
                            "v": 88, 
                            "dur": 2238, 
                            "type": "note", 
                            "channel": 1
                        }
                    ]
                ], 
                [
                    35984, 
                    [
                        {
                            "pitch": 67, 
                            "t0": 35984, 
                            "v": 84, 
                            "dur": 3112, 
                            "type": "note", 
                            "channel": 1
                        }
                    ]
                ], 
                [
                    38908, 
                    [
                        {
                            "pitch": 65, 
                            "t0": 38908, 
                            "v": 84, 
                            "dur": 672, 
                            "type": "note", 
                            "channel": 1
                        }
                    ]
                ], 
                [
                    39400, 
                    [
                        {
                            "pitch": 67, 
                            "t0": 39400, 
                            "v": 96, 
                            "dur": 758, 
                            "type": "note", 
                            "channel": 1
                        }
                    ]
                ], 
                [
                    39984, 
                    [
                        {
                            "pitch": 65, 
                            "t0": 39984, 
                            "v": 104, 
                            "dur": 1278, 
                            "type": "note", 
                            "channel": 1
                        }
                    ]
                ], 
                [
                    41066, 
                    [
                        {
                            "pitch": 67, 
                            "t0": 41066, 
                            "v": 104, 
                            "dur": 2626, 
                            "type": "note", 
                            "channel": 1
                        }
                    ]
                ], 
                [
                    42096, 
                    [
                        {
                            "pitch": 64, 
                            "t0": 42096, 
                            "v": 84, 
                            "dur": 1516, 
                            "type": "note", 
                            "channel": 1
                        }
                    ]
                ], 
                [
                    42988, 
                    [
                        {
                            "pitch": 62, 
                            "t0": 42988, 
                            "v": 84, 
                            "dur": 5174, 
                            "type": "note", 
                            "channel": 1
                        }
                    ]
                ], 
                [
                    44030, 
                    [
                        {
                            "pitch": 64, 
                            "t0": 44030, 
                            "v": 64, 
                            "dur": 3074, 
                            "type": "note", 
                            "channel": 1
                        }
                    ]
                ], 
                [
                    46930, 
                    [
                        {
                            "pitch": 65, 
                            "t0": 46930, 
                            "v": 92, 
                            "dur": 1274, 
                            "type": "note", 
                            "channel": 1
                        }
                    ]
                ], 
                [
                    47988, 
                    [
                        {
                            "pitch": 64, 
                            "t0": 47988, 
                            "v": 100, 
                            "dur": 3074, 
                            "type": "note", 
                            "channel": 1
                        }
                    ]
                ], 
                [
                    50754, 
                    [
                        {
                            "pitch": 62, 
                            "t0": 50754, 
                            "v": 84, 
                            "dur": 650, 
                            "type": "note", 
                            "channel": 1
                        }
                    ]
                ], 
                [
                    51238, 
                    [
                        {
                            "pitch": 64, 
                            "t0": 51238, 
                            "v": 92, 
                            "dur": 820, 
                            "type": "note", 
                            "channel": 1
                        }
                    ]
                ], 
                [
                    51788, 
                    [
                        {
                            "pitch": 65, 
                            "t0": 51788, 
                            "v": 7, 
                            "dur": 6274, 
                            "type": "note", 
                            "channel": 1
                        }
                    ]
                ], 
                [
                    57920, 
                    [
                        {
                            "pitch": 64, 
                            "t0": 57920, 
                            "v": 92, 
                            "dur": 560, 
                            "type": "note", 
                            "channel": 1
                        }
                    ]
                ], 
                [
                    58346, 
                    [
                        {
                            "pitch": 65, 
                            "t0": 58346, 
                            "v": 92, 
                            "dur": 1688, 
                            "type": "note", 
                            "channel": 1
                        }
                    ]
                ], 
                [
                    59920, 
                    [
                        {
                            "pitch": 67, 
                            "t0": 59920, 
                            "v": 92, 
                            "dur": 3022, 
                            "type": "note", 
                            "channel": 1
                        }
                    ]
                ], 
                [
                    62830, 
                    [
                        {
                            "pitch": 69, 
                            "t0": 62830, 
                            "v": 96, 
                            "dur": 1216, 
                            "type": "note", 
                            "channel": 1
                        }
                    ]
                ], 
                [
                    63920, 
                    [
                        {
                            "pitch": 74, 
                            "t0": 63920, 
                            "v": 100, 
                            "dur": 3056, 
                            "type": "note", 
                            "channel": 1
                        }
                    ]
                ], 
                [
                    66838, 
                    [
                        {
                            "pitch": 69, 
                            "t0": 66838, 
                            "v": 72, 
                            "dur": 596, 
                            "type": "note", 
                            "channel": 1
                        }
                    ]
                ], 
                [
                    67338, 
                    [
                        {
                            "pitch": 67, 
                            "t0": 67338, 
                            "v": 100, 
                            "dur": 638, 
                            "type": "note", 
                            "channel": 1
                        }
                    ]
                ], 
                [
                    67858, 
                    [
                        {
                            "pitch": 69, 
                            "t0": 67858, 
                            "v": 108, 
                            "dur": 2038, 
                            "type": "note", 
                            "channel": 1
                        }
                    ]
                ], 
                [
                    69770, 
                    [
                        {
                            "pitch": 67, 
                            "t0": 69770, 
                            "v": 108, 
                            "dur": 2142, 
                            "type": "note", 
                            "channel": 1
                        }
                    ]
                ], 
                [
                    71800, 
                    [
                        {
                            "pitch": 69, 
                            "t0": 71800, 
                            "v": 100, 
                            "dur": 1184, 
                            "type": "note", 
                            "channel": 1
                        }
                    ]
                ], 
                [
                    72854, 
                    [
                        {
                            "pitch": 67, 
                            "t0": 72854, 
                            "v": 72, 
                            "dur": 2234, 
                            "type": "note", 
                            "channel": 1
                        }
                    ]
                ], 
                [
                    75000, 
                    [
                        {
                            "pitch": 65, 
                            "t0": 75000, 
                            "v": 88, 
                            "dur": 658, 
                            "type": "note", 
                            "channel": 1
                        }
                    ]
                ], 
                [
                    75512, 
                    [
                        {
                            "pitch": 64, 
                            "t0": 75512, 
                            "v": 88, 
                            "dur": 638, 
                            "type": "note", 
                            "channel": 1
                        }
                    ]
                ], 
                [
                    76008, 
                    [
                        {
                            "pitch": 65, 
                            "t0": 76008, 
                            "v": 88, 
                            "dur": 1954, 
                            "type": "note", 
                            "channel": 1
                        }
                    ]
                ], 
                [
                    77888, 
                    [
                        {
                            "pitch": 67, 
                            "t0": 77888, 
                            "v": 100, 
                            "dur": 1928, 
                            "type": "note", 
                            "channel": 1
                        }
                    ]
                ], 
                [
                    79720, 
                    [
                        {
                            "pitch": 65, 
                            "t0": 79720, 
                            "v": 104, 
                            "dur": 1284, 
                            "type": "note", 
                            "channel": 1
                        }
                    ]
                ], 
                [
                    80800, 
                    [
                        {
                            "pitch": 64, 
                            "t0": 80800, 
                            "v": 108, 
                            "dur": 2146, 
                            "type": "note", 
                            "channel": 1
                        }
                    ]
                ], 
                [
                    82850, 
                    [
                        {
                            "pitch": 62, 
                            "t0": 82850, 
                            "v": 100, 
                            "dur": 9150, 
                            "type": "note", 
                            "channel": 1
                        }
                    ]
                ]
            ], 
            "instruments": [
                48
            ], 
            "tMax": 82850, 
            "channels": [
                1
            ], 
            "instrument": 48, 
            "numNotes": 40, 
            "type": "TrackObj"
        }, 
        {
            "trackName": "Instrument Track", 
            "seq": [
                [
                    0, 
                    [
                        {
                            "instrument": 116, 
                            "type": "programChange", 
                            "t0": 0, 
                            "channel": 2
                        }
                    ]
                ], 
                [
                    62, 
                    [
                        {
                            "pitch": 43, 
                            "t0": 62, 
                            "v": 68, 
                            "dur": 64, 
                            "type": "note", 
                            "channel": 2
                        }
                    ]
                ], 
                [
                    2012, 
                    [
                        {
                            "pitch": 43, 
                            "t0": 2012, 
                            "v": 72, 
                            "dur": 64, 
                            "type": "note", 
                            "channel": 2
                        }
                    ]
                ], 
                [
                    4062, 
                    [
                        {
                            "pitch": 43, 
                            "t0": 4062, 
                            "v": 62, 
                            "dur": 64, 
                            "type": "note", 
                            "channel": 2
                        }
                    ]
                ], 
                [
                    6012, 
                    [
                        {
                            "pitch": 43, 
                            "t0": 6012, 
                            "v": 104, 
                            "dur": 64, 
                            "type": "note", 
                            "channel": 2
                        }
                    ]
                ], 
                [
                    8062, 
                    [
                        {
                            "pitch": 43, 
                            "t0": 8062, 
                            "v": 58, 
                            "dur": 64, 
                            "type": "note", 
                            "channel": 2
                        }
                    ]
                ], 
                [
                    10012, 
                    [
                        {
                            "pitch": 43, 
                            "t0": 10012, 
                            "v": 103, 
                            "dur": 64, 
                            "type": "note", 
                            "channel": 2
                        }
                    ]
                ], 
                [
                    12062, 
                    [
                        {
                            "pitch": 43, 
                            "t0": 12062, 
                            "v": 70, 
                            "dur": 64, 
                            "type": "note", 
                            "channel": 2
                        }
                    ]
                ], 
                [
                    14012, 
                    [
                        {
                            "pitch": 43, 
                            "t0": 14012, 
                            "v": 95, 
                            "dur": 64, 
                            "type": "note", 
                            "channel": 2
                        }
                    ]
                ], 
                [
                    16062, 
                    [
                        {
                            "pitch": 43, 
                            "t0": 16062, 
                            "v": 66, 
                            "dur": 64, 
                            "type": "note", 
                            "channel": 2
                        }
                    ]
                ], 
                [
                    18012, 
                    [
                        {
                            "pitch": 43, 
                            "t0": 18012, 
                            "v": 103, 
                            "dur": 64, 
                            "type": "note", 
                            "channel": 2
                        }
                    ]
                ], 
                [
                    20062, 
                    [
                        {
                            "pitch": 43, 
                            "t0": 20062, 
                            "v": 64, 
                            "dur": 64, 
                            "type": "note", 
                            "channel": 2
                        }
                    ]
                ], 
                [
                    22012, 
                    [
                        {
                            "pitch": 43, 
                            "t0": 22012, 
                            "v": 93, 
                            "dur": 64, 
                            "type": "note", 
                            "channel": 2
                        }
                    ]
                ], 
                [
                    24062, 
                    [
                        {
                            "pitch": 43, 
                            "t0": 24062, 
                            "v": 75, 
                            "dur": 64, 
                            "type": "note", 
                            "channel": 2
                        }
                    ]
                ], 
                [
                    26012, 
                    [
                        {
                            "pitch": 43, 
                            "t0": 26012, 
                            "v": 80, 
                            "dur": 64, 
                            "type": "note", 
                            "channel": 2
                        }
                    ]
                ], 
                [
                    28062, 
                    [
                        {
                            "pitch": 43, 
                            "t0": 28062, 
                            "v": 83, 
                            "dur": 64, 
                            "type": "note", 
                            "channel": 2
                        }
                    ]
                ], 
                [
                    30012, 
                    [
                        {
                            "pitch": 43, 
                            "t0": 30012, 
                            "v": 92, 
                            "dur": 64, 
                            "type": "note", 
                            "channel": 2
                        }
                    ]
                ], 
                [
                    32062, 
                    [
                        {
                            "pitch": 43, 
                            "t0": 32062, 
                            "v": 70, 
                            "dur": 64, 
                            "type": "note", 
                            "channel": 2
                        }
                    ]
                ], 
                [
                    34012, 
                    [
                        {
                            "pitch": 43, 
                            "t0": 34012, 
                            "v": 104, 
                            "dur": 64, 
                            "type": "note", 
                            "channel": 2
                        }
                    ]
                ], 
                [
                    36062, 
                    [
                        {
                            "pitch": 43, 
                            "t0": 36062, 
                            "v": 95, 
                            "dur": 64, 
                            "type": "note", 
                            "channel": 2
                        }
                    ]
                ], 
                [
                    38012, 
                    [
                        {
                            "pitch": 43, 
                            "t0": 38012, 
                            "v": 77, 
                            "dur": 64, 
                            "type": "note", 
                            "channel": 2
                        }
                    ]
                ], 
                [
                    40062, 
                    [
                        {
                            "pitch": 43, 
                            "t0": 40062, 
                            "v": 93, 
                            "dur": 64, 
                            "type": "note", 
                            "channel": 2
                        }
                    ]
                ], 
                [
                    42012, 
                    [
                        {
                            "pitch": 43, 
                            "t0": 42012, 
                            "v": 76, 
                            "dur": 64, 
                            "type": "note", 
                            "channel": 2
                        }
                    ]
                ], 
                [
                    44062, 
                    [
                        {
                            "pitch": 43, 
                            "t0": 44062, 
                            "v": 91, 
                            "dur": 64, 
                            "type": "note", 
                            "channel": 2
                        }
                    ]
                ], 
                [
                    46012, 
                    [
                        {
                            "pitch": 43, 
                            "t0": 46012, 
                            "v": 103, 
                            "dur": 64, 
                            "type": "note", 
                            "channel": 2
                        }
                    ]
                ], 
                [
                    48062, 
                    [
                        {
                            "pitch": 43, 
                            "t0": 48062, 
                            "v": 69, 
                            "dur": 64, 
                            "type": "note", 
                            "channel": 2
                        }
                    ]
                ], 
                [
                    50012, 
                    [
                        {
                            "pitch": 43, 
                            "t0": 50012, 
                            "v": 87, 
                            "dur": 64, 
                            "type": "note", 
                            "channel": 2
                        }
                    ]
                ], 
                [
                    52062, 
                    [
                        {
                            "pitch": 43, 
                            "t0": 52062, 
                            "v": 81, 
                            "dur": 64, 
                            "type": "note", 
                            "channel": 2
                        }
                    ]
                ], 
                [
                    54012, 
                    [
                        {
                            "pitch": 43, 
                            "t0": 54012, 
                            "v": 92, 
                            "dur": 64, 
                            "type": "note", 
                            "channel": 2
                        }
                    ]
                ], 
                [
                    56062, 
                    [
                        {
                            "pitch": 43, 
                            "t0": 56062, 
                            "v": 62, 
                            "dur": 64, 
                            "type": "note", 
                            "channel": 2
                        }
                    ]
                ], 
                [
                    58012, 
                    [
                        {
                            "pitch": 43, 
                            "t0": 58012, 
                            "v": 68, 
                            "dur": 64, 
                            "type": "note", 
                            "channel": 2
                        }
                    ]
                ], 
                [
                    60062, 
                    [
                        {
                            "pitch": 43, 
                            "t0": 60062, 
                            "v": 56, 
                            "dur": 64, 
                            "type": "note", 
                            "channel": 2
                        }
                    ]
                ], 
                [
                    62012, 
                    [
                        {
                            "pitch": 43, 
                            "t0": 62012, 
                            "v": 101, 
                            "dur": 64, 
                            "type": "note", 
                            "channel": 2
                        }
                    ]
                ], 
                [
                    64062, 
                    [
                        {
                            "pitch": 43, 
                            "t0": 64062, 
                            "v": 101, 
                            "dur": 64, 
                            "type": "note", 
                            "channel": 2
                        }
                    ]
                ], 
                [
                    66012, 
                    [
                        {
                            "pitch": 43, 
                            "t0": 66012, 
                            "v": 92, 
                            "dur": 64, 
                            "type": "note", 
                            "channel": 2
                        }
                    ]
                ], 
                [
                    68062, 
                    [
                        {
                            "pitch": 43, 
                            "t0": 68062, 
                            "v": 101, 
                            "dur": 64, 
                            "type": "note", 
                            "channel": 2
                        }
                    ]
                ], 
                [
                    70012, 
                    [
                        {
                            "pitch": 43, 
                            "t0": 70012, 
                            "v": 96, 
                            "dur": 64, 
                            "type": "note", 
                            "channel": 2
                        }
                    ]
                ], 
                [
                    72062, 
                    [
                        {
                            "pitch": 43, 
                            "t0": 72062, 
                            "v": 71, 
                            "dur": 64, 
                            "type": "note", 
                            "channel": 2
                        }
                    ]
                ], 
                [
                    74012, 
                    [
                        {
                            "pitch": 43, 
                            "t0": 74012, 
                            "v": 94, 
                            "dur": 64, 
                            "type": "note", 
                            "channel": 2
                        }
                    ]
                ], 
                [
                    76062, 
                    [
                        {
                            "pitch": 43, 
                            "t0": 76062, 
                            "v": 97, 
                            "dur": 64, 
                            "type": "note", 
                            "channel": 2
                        }
                    ]
                ], 
                [
                    78012, 
                    [
                        {
                            "pitch": 43, 
                            "t0": 78012, 
                            "v": 59, 
                            "dur": 64, 
                            "type": "note", 
                            "channel": 2
                        }
                    ]
                ], 
                [
                    80062, 
                    [
                        {
                            "pitch": 43, 
                            "t0": 80062, 
                            "v": 64, 
                            "dur": 64, 
                            "type": "note", 
                            "channel": 2
                        }
                    ]
                ], 
                [
                    82012, 
                    [
                        {
                            "pitch": 43, 
                            "t0": 82012, 
                            "v": 61, 
                            "dur": 64, 
                            "type": "note", 
                            "channel": 2
                        }
                    ]
                ], 
                [
                    84062, 
                    [
                        {
                            "pitch": 43, 
                            "t0": 84062, 
                            "v": 60, 
                            "dur": 64, 
                            "type": "note", 
                            "channel": 2
                        }
                    ]
                ], 
                [
                    86012, 
                    [
                        {
                            "pitch": 43, 
                            "t0": 86012, 
                            "v": 81, 
                            "dur": 64, 
                            "type": "note", 
                            "channel": 2
                        }
                    ]
                ], 
                [
                    88062, 
                    [
                        {
                            "pitch": 43, 
                            "t0": 88062, 
                            "v": 92, 
                            "dur": 64, 
                            "type": "note", 
                            "channel": 2
                        }
                    ]
                ], 
                [
                    90012, 
                    [
                        {
                            "pitch": 43, 
                            "t0": 90012, 
                            "v": 88, 
                            "dur": 64, 
                            "type": "note", 
                            "channel": 2
                        }
                    ]
                ], 
                [
                    92062, 
                    [
                        {
                            "pitch": 43, 
                            "t0": 92062, 
                            "v": 62, 
                            "dur": 64, 
                            "type": "note", 
                            "channel": 2
                        }
                    ]
                ], 
                [
                    94012, 
                    [
                        {
                            "pitch": 43, 
                            "t0": 94012, 
                            "v": 88, 
                            "dur": 64, 
                            "type": "note", 
                            "channel": 2
                        }
                    ]
                ], 
                [
                    96062, 
                    [
                        {
                            "pitch": 43, 
                            "t0": 96062, 
                            "v": 68, 
                            "dur": 64, 
                            "type": "note", 
                            "channel": 2
                        }
                    ]
                ], 
                [
                    98012, 
                    [
                        {
                            "pitch": 43, 
                            "t0": 98012, 
                            "v": 90, 
                            "dur": 64, 
                            "type": "note", 
                            "channel": 2
                        }
                    ]
                ], 
                [
                    100062, 
                    [
                        {
                            "pitch": 43, 
                            "t0": 100062, 
                            "v": 80, 
                            "dur": 64, 
                            "type": "note", 
                            "channel": 2
                        }
                    ]
                ], 
                [
                    102012, 
                    [
                        {
                            "pitch": 43, 
                            "t0": 102012, 
                            "v": 85, 
                            "dur": 64, 
                            "type": "note", 
                            "channel": 2
                        }
                    ]
                ], 
                [
                    104062, 
                    [
                        {
                            "pitch": 43, 
                            "t0": 104062, 
                            "v": 84, 
                            "dur": 64, 
                            "type": "note", 
                            "channel": 2
                        }
                    ]
                ], 
                [
                    106012, 
                    [
                        {
                            "pitch": 43, 
                            "t0": 106012, 
                            "v": 56, 
                            "dur": 64, 
                            "type": "note", 
                            "channel": 2
                        }
                    ]
                ], 
                [
                    108062, 
                    [
                        {
                            "pitch": 43, 
                            "t0": 108062, 
                            "v": 84, 
                            "dur": 64, 
                            "type": "note", 
                            "channel": 2
                        }
                    ]
                ], 
                [
                    110012, 
                    [
                        {
                            "pitch": 43, 
                            "t0": 110012, 
                            "v": 72, 
                            "dur": 64, 
                            "type": "note", 
                            "channel": 2
                        }
                    ]
                ], 
                [
                    112062, 
                    [
                        {
                            "pitch": 43, 
                            "t0": 112062, 
                            "v": 90, 
                            "dur": 64, 
                            "type": "note", 
                            "channel": 2
                        }
                    ]
                ], 
                [
                    114012, 
                    [
                        {
                            "pitch": 43, 
                            "t0": 114012, 
                            "v": 87, 
                            "dur": 64, 
                            "type": "note", 
                            "channel": 2
                        }
                    ]
                ], 
                [
                    116062, 
                    [
                        {
                            "pitch": 43, 
                            "t0": 116062, 
                            "v": 78, 
                            "dur": 64, 
                            "type": "note", 
                            "channel": 2
                        }
                    ]
                ], 
                [
                    118012, 
                    [
                        {
                            "pitch": 43, 
                            "t0": 118012, 
                            "v": 63, 
                            "dur": 64, 
                            "type": "note", 
                            "channel": 2
                        }
                    ]
                ], 
                [
                    120062, 
                    [
                        {
                            "pitch": 43, 
                            "t0": 120062, 
                            "v": 96, 
                            "dur": 64, 
                            "type": "note", 
                            "channel": 2
                        }
                    ]
                ], 
                [
                    122012, 
                    [
                        {
                            "pitch": 43, 
                            "t0": 122012, 
                            "v": 59, 
                            "dur": 64, 
                            "type": "note", 
                            "channel": 2
                        }
                    ]
                ], 
                [
                    124062, 
                    [
                        {
                            "pitch": 43, 
                            "t0": 124062, 
                            "v": 80, 
                            "dur": 64, 
                            "type": "note", 
                            "channel": 2
                        }
                    ]
                ], 
                [
                    126012, 
                    [
                        {
                            "pitch": 43, 
                            "t0": 126012, 
                            "v": 78, 
                            "dur": 64, 
                            "type": "note", 
                            "channel": 2
                        }
                    ]
                ], 
                [
                    128062, 
                    [
                        {
                            "pitch": 43, 
                            "t0": 128062, 
                            "v": 57, 
                            "dur": 64, 
                            "type": "note", 
                            "channel": 2
                        }
                    ]
                ], 
                [
                    130012, 
                    [
                        {
                            "pitch": 43, 
                            "t0": 130012, 
                            "v": 101, 
                            "dur": 64, 
                            "type": "note", 
                            "channel": 2
                        }
                    ]
                ], 
                [
                    132062, 
                    [
                        {
                            "pitch": 43, 
                            "t0": 132062, 
                            "v": 85, 
                            "dur": 64, 
                            "type": "note", 
                            "channel": 2
                        }
                    ]
                ], 
                [
                    134012, 
                    [
                        {
                            "pitch": 43, 
                            "t0": 134012, 
                            "v": 64, 
                            "dur": 64, 
                            "type": "note", 
                            "channel": 2
                        }
                    ]
                ], 
                [
                    136062, 
                    [
                        {
                            "pitch": 43, 
                            "t0": 136062, 
                            "v": 75, 
                            "dur": 64, 
                            "type": "note", 
                            "channel": 2
                        }
                    ]
                ], 
                [
                    138012, 
                    [
                        {
                            "pitch": 43, 
                            "t0": 138012, 
                            "v": 63, 
                            "dur": 64, 
                            "type": "note", 
                            "channel": 2
                        }
                    ]
                ], 
                [
                    140062, 
                    [
                        {
                            "pitch": 43, 
                            "t0": 140062, 
                            "v": 79, 
                            "dur": 64, 
                            "type": "note", 
                            "channel": 2
                        }
                    ]
                ], 
                [
                    142012, 
                    [
                        {
                            "pitch": 43, 
                            "t0": 142012, 
                            "v": 65, 
                            "dur": 64, 
                            "type": "note", 
                            "channel": 2
                        }
                    ]
                ], 
                [
                    144062, 
                    [
                        {
                            "pitch": 43, 
                            "t0": 144062, 
                            "v": 103, 
                            "dur": 64, 
                            "type": "note", 
                            "channel": 2
                        }
                    ]
                ], 
                [
                    146012, 
                    [
                        {
                            "pitch": 43, 
                            "t0": 146012, 
                            "v": 58, 
                            "dur": 64, 
                            "type": "note", 
                            "channel": 2
                        }
                    ]
                ], 
                [
                    148062, 
                    [
                        {
                            "pitch": 43, 
                            "t0": 148062, 
                            "v": 97, 
                            "dur": 64, 
                            "type": "note", 
                            "channel": 2
                        }
                    ]
                ], 
                [
                    150012, 
                    [
                        {
                            "pitch": 43, 
                            "t0": 150012, 
                            "v": 70, 
                            "dur": 64, 
                            "type": "note", 
                            "channel": 2
                        }
                    ]
                ], 
                [
                    152062, 
                    [
                        {
                            "pitch": 43, 
                            "t0": 152062, 
                            "v": 88, 
                            "dur": 64, 
                            "type": "note", 
                            "channel": 2
                        }
                    ]
                ], 
                [
                    154012, 
                    [
                        {
                            "pitch": 43, 
                            "t0": 154012, 
                            "v": 97, 
                            "dur": 64, 
                            "type": "note", 
                            "channel": 2
                        }
                    ]
                ], 
                [
                    156062, 
                    [
                        {
                            "pitch": 43, 
                            "t0": 156062, 
                            "v": 65, 
                            "dur": 64, 
                            "type": "note", 
                            "channel": 2
                        }
                    ]
                ], 
                [
                    158012, 
                    [
                        {
                            "pitch": 43, 
                            "t0": 158012, 
                            "v": 97, 
                            "dur": 64, 
                            "type": "note", 
                            "channel": 2
                        }
                    ]
                ], 
                [
                    160062, 
                    [
                        {
                            "pitch": 43, 
                            "t0": 160062, 
                            "v": 91, 
                            "dur": 64, 
                            "type": "note", 
                            "channel": 2
                        }
                    ]
                ], 
                [
                    162012, 
                    [
                        {
                            "pitch": 43, 
                            "t0": 162012, 
                            "v": 63, 
                            "dur": 64, 
                            "type": "note", 
                            "channel": 2
                        }
                    ]
                ], 
                [
                    164062, 
                    [
                        {
                            "pitch": 43, 
                            "t0": 164062, 
                            "v": 100, 
                            "dur": 64, 
                            "type": "note", 
                            "channel": 2
                        }
                    ]
                ], 
                [
                    166012, 
                    [
                        {
                            "pitch": 43, 
                            "t0": 166012, 
                            "v": 104, 
                            "dur": 64, 
                            "type": "note", 
                            "channel": 2
                        }
                    ]
                ], 
                [
                    168062, 
                    [
                        {
                            "pitch": 43, 
                            "t0": 168062, 
                            "v": 67, 
                            "dur": 64, 
                            "type": "note", 
                            "channel": 2
                        }
                    ]
                ], 
                [
                    170012, 
                    [
                        {
                            "pitch": 43, 
                            "t0": 170012, 
                            "v": 98, 
                            "dur": 64, 
                            "type": "note", 
                            "channel": 2
                        }
                    ]
                ], 
                [
                    172062, 
                    [
                        {
                            "pitch": 43, 
                            "t0": 172062, 
                            "v": 80, 
                            "dur": 64, 
                            "type": "note", 
                            "channel": 2
                        }
                    ]
                ], 
                [
                    174012, 
                    [
                        {
                            "pitch": 43, 
                            "t0": 174012, 
                            "v": 93, 
                            "dur": 64, 
                            "type": "note", 
                            "channel": 2
                        }
                    ]
                ], 
                [
                    176062, 
                    [
                        {
                            "pitch": 43, 
                            "t0": 176062, 
                            "v": 96, 
                            "dur": 64, 
                            "type": "note", 
                            "channel": 2
                        }
                    ]
                ], 
                [
                    178012, 
                    [
                        {
                            "pitch": 43, 
                            "t0": 178012, 
                            "v": 82, 
                            "dur": 64, 
                            "type": "note", 
                            "channel": 2
                        }
                    ]
                ], 
                [
                    180062, 
                    [
                        {
                            "pitch": 43, 
                            "t0": 180062, 
                            "v": 100, 
                            "dur": 64, 
                            "type": "note", 
                            "channel": 2
                        }
                    ]
                ], 
                [
                    182012, 
                    [
                        {
                            "pitch": 43, 
                            "t0": 182012, 
                            "v": 94, 
                            "dur": 64, 
                            "type": "note", 
                            "channel": 2
                        }
                    ]
                ], 
                [
                    184062, 
                    [
                        {
                            "pitch": 43, 
                            "t0": 184062, 
                            "v": 67, 
                            "dur": 64, 
                            "type": "note", 
                            "channel": 2
                        }
                    ]
                ], 
                [
                    186012, 
                    [
                        {
                            "pitch": 43, 
                            "t0": 186012, 
                            "v": 97, 
                            "dur": 64, 
                            "type": "note", 
                            "channel": 2
                        }
                    ]
                ], 
                [
                    188062, 
                    [
                        {
                            "pitch": 43, 
                            "t0": 188062, 
                            "v": 87, 
                            "dur": 64, 
                            "type": "note", 
                            "channel": 2
                        }
                    ]
                ], 
                [
                    190012, 
                    [
                        {
                            "pitch": 43, 
                            "t0": 190012, 
                            "v": 76, 
                            "dur": 64, 
                            "type": "note", 
                            "channel": 2
                        }
                    ]
                ], 
                [
                    192062, 
                    [
                        {
                            "pitch": 43, 
                            "t0": 192062, 
                            "v": 93, 
                            "dur": 64, 
                            "type": "note", 
                            "channel": 2
                        }
                    ]
                ], 
                [
                    194012, 
                    [
                        {
                            "pitch": 43, 
                            "t0": 194012, 
                            "v": 83, 
                            "dur": 64, 
                            "type": "note", 
                            "channel": 2
                        }
                    ]
                ], 
                [
                    196062, 
                    [
                        {
                            "pitch": 43, 
                            "t0": 196062, 
                            "v": 78, 
                            "dur": 64, 
                            "type": "note", 
                            "channel": 2
                        }
                    ]
                ], 
                [
                    198012, 
                    [
                        {
                            "pitch": 43, 
                            "t0": 198012, 
                            "v": 77, 
                            "dur": 64, 
                            "type": "note", 
                            "channel": 2
                        }
                    ]
                ], 
                [
                    200062, 
                    [
                        {
                            "pitch": 43, 
                            "t0": 200062, 
                            "v": 56, 
                            "dur": 64, 
                            "type": "note", 
                            "channel": 2
                        }
                    ]
                ], 
                [
                    202012, 
                    [
                        {
                            "pitch": 43, 
                            "t0": 202012, 
                            "v": 88, 
                            "dur": 64, 
                            "type": "note", 
                            "channel": 2
                        }
                    ]
                ], 
                [
                    204062, 
                    [
                        {
                            "pitch": 43, 
                            "t0": 204062, 
                            "v": 86, 
                            "dur": 64, 
                            "type": "note", 
                            "channel": 2
                        }
                    ]
                ], 
                [
                    206012, 
                    [
                        {
                            "pitch": 43, 
                            "t0": 206012, 
                            "v": 95, 
                            "dur": 64, 
                            "type": "note", 
                            "channel": 2
                        }
                    ]
                ], 
                [
                    208062, 
                    [
                        {
                            "pitch": 43, 
                            "t0": 208062, 
                            "v": 80, 
                            "dur": 64, 
                            "type": "note", 
                            "channel": 2
                        }
                    ]
                ], 
                [
                    210012, 
                    [
                        {
                            "pitch": 43, 
                            "t0": 210012, 
                            "v": 96, 
                            "dur": 64, 
                            "type": "note", 
                            "channel": 2
                        }
                    ]
                ], 
                [
                    212062, 
                    [
                        {
                            "pitch": 43, 
                            "t0": 212062, 
                            "v": 93, 
                            "dur": 64, 
                            "type": "note", 
                            "channel": 2
                        }
                    ]
                ], 
                [
                    214012, 
                    [
                        {
                            "pitch": 43, 
                            "t0": 214012, 
                            "v": 95, 
                            "dur": 64, 
                            "type": "note", 
                            "channel": 2
                        }
                    ]
                ], 
                [
                    216062, 
                    [
                        {
                            "pitch": 43, 
                            "t0": 216062, 
                            "v": 61, 
                            "dur": 64, 
                            "type": "note", 
                            "channel": 2
                        }
                    ]
                ], 
                [
                    218012, 
                    [
                        {
                            "pitch": 43, 
                            "t0": 218012, 
                            "v": 102, 
                            "dur": 64, 
                            "type": "note", 
                            "channel": 2
                        }
                    ]
                ], 
                [
                    220062, 
                    [
                        {
                            "pitch": 43, 
                            "t0": 220062, 
                            "v": 98, 
                            "dur": 64, 
                            "type": "note", 
                            "channel": 2
                        }
                    ]
                ], 
                [
                    222012, 
                    [
                        {
                            "pitch": 43, 
                            "t0": 222012, 
                            "v": 100, 
                            "dur": 64, 
                            "type": "note", 
                            "channel": 2
                        }
                    ]
                ], 
                [
                    224062, 
                    [
                        {
                            "pitch": 43, 
                            "t0": 224062, 
                            "v": 60, 
                            "dur": 64, 
                            "type": "note", 
                            "channel": 2
                        }
                    ]
                ], 
                [
                    226012, 
                    [
                        {
                            "pitch": 43, 
                            "t0": 226012, 
                            "v": 82, 
                            "dur": 64, 
                            "type": "note", 
                            "channel": 2
                        }
                    ]
                ], 
                [
                    228062, 
                    [
                        {
                            "pitch": 43, 
                            "t0": 228062, 
                            "v": 99, 
                            "dur": 64, 
                            "type": "note", 
                            "channel": 2
                        }
                    ]
                ], 
                [
                    230012, 
                    [
                        {
                            "pitch": 43, 
                            "t0": 230012, 
                            "v": 85, 
                            "dur": 64, 
                            "type": "note", 
                            "channel": 2
                        }
                    ]
                ], 
                [
                    232062, 
                    [
                        {
                            "pitch": 43, 
                            "t0": 232062, 
                            "v": 58, 
                            "dur": 64, 
                            "type": "note", 
                            "channel": 2
                        }
                    ]
                ], 
                [
                    234012, 
                    [
                        {
                            "pitch": 43, 
                            "t0": 234012, 
                            "v": 69, 
                            "dur": 64, 
                            "type": "note", 
                            "channel": 2
                        }
                    ]
                ], 
                [
                    236062, 
                    [
                        {
                            "pitch": 43, 
                            "t0": 236062, 
                            "v": 67, 
                            "dur": 64, 
                            "type": "note", 
                            "channel": 2
                        }
                    ]
                ], 
                [
                    238012, 
                    [
                        {
                            "pitch": 43, 
                            "t0": 238012, 
                            "v": 100, 
                            "dur": 64, 
                            "type": "note", 
                            "channel": 2
                        }
                    ]
                ], 
                [
                    240062, 
                    [
                        {
                            "pitch": 43, 
                            "t0": 240062, 
                            "v": 90, 
                            "dur": 64, 
                            "type": "note", 
                            "channel": 2
                        }
                    ]
                ], 
                [
                    242012, 
                    [
                        {
                            "pitch": 43, 
                            "t0": 242012, 
                            "v": 103, 
                            "dur": 64, 
                            "type": "note", 
                            "channel": 2
                        }
                    ]
                ], 
                [
                    244062, 
                    [
                        {
                            "pitch": 43, 
                            "t0": 244062, 
                            "v": 102, 
                            "dur": 64, 
                            "type": "note", 
                            "channel": 2
                        }
                    ]
                ], 
                [
                    246012, 
                    [
                        {
                            "pitch": 43, 
                            "t0": 246012, 
                            "v": 69, 
                            "dur": 64, 
                            "type": "note", 
                            "channel": 2
                        }
                    ]
                ], 
                [
                    248062, 
                    [
                        {
                            "pitch": 43, 
                            "t0": 248062, 
                            "v": 90, 
                            "dur": 64, 
                            "type": "note", 
                            "channel": 2
                        }
                    ]
                ], 
                [
                    250012, 
                    [
                        {
                            "pitch": 43, 
                            "t0": 250012, 
                            "v": 87, 
                            "dur": 64, 
                            "type": "note", 
                            "channel": 2
                        }
                    ]
                ], 
                [
                    252062, 
                    [
                        {
                            "pitch": 43, 
                            "t0": 252062, 
                            "v": 57, 
                            "dur": 64, 
                            "type": "note", 
                            "channel": 2
                        }
                    ]
                ], 
                [
                    254012, 
                    [
                        {
                            "pitch": 43, 
                            "t0": 254012, 
                            "v": 79, 
                            "dur": 64, 
                            "type": "note", 
                            "channel": 2
                        }
                    ]
                ], 
                [
                    256062, 
                    [
                        {
                            "pitch": 43, 
                            "t0": 256062, 
                            "v": 100, 
                            "dur": 64, 
                            "type": "note", 
                            "channel": 2
                        }
                    ]
                ], 
                [
                    258012, 
                    [
                        {
                            "pitch": 43, 
                            "t0": 258012, 
                            "v": 69, 
                            "dur": 64, 
                            "type": "note", 
                            "channel": 2
                        }
                    ]
                ], 
                [
                    260062, 
                    [
                        {
                            "pitch": 43, 
                            "t0": 260062, 
                            "v": 86, 
                            "dur": 64, 
                            "type": "note", 
                            "channel": 2
                        }
                    ]
                ], 
                [
                    262012, 
                    [
                        {
                            "pitch": 43, 
                            "t0": 262012, 
                            "v": 74, 
                            "dur": 64, 
                            "type": "note", 
                            "channel": 2
                        }
                    ]
                ], 
                [
                    264062, 
                    [
                        {
                            "pitch": 43, 
                            "t0": 264062, 
                            "v": 71, 
                            "dur": 64, 
                            "type": "note", 
                            "channel": 2
                        }
                    ]
                ], 
                [
                    266012, 
                    [
                        {
                            "pitch": 43, 
                            "t0": 266012, 
                            "v": 101, 
                            "dur": 64, 
                            "type": "note", 
                            "channel": 2
                        }
                    ]
                ], 
                [
                    268062, 
                    [
                        {
                            "pitch": 43, 
                            "t0": 268062, 
                            "v": 97, 
                            "dur": 64, 
                            "type": "note", 
                            "channel": 2
                        }
                    ]
                ], 
                [
                    270012, 
                    [
                        {
                            "pitch": 43, 
                            "t0": 270012, 
                            "v": 80, 
                            "dur": 64, 
                            "type": "note", 
                            "channel": 2
                        }
                    ]
                ], 
                [
                    272062, 
                    [
                        {
                            "pitch": 43, 
                            "t0": 272062, 
                            "v": 78, 
                            "dur": 64, 
                            "type": "note", 
                            "channel": 2
                        }
                    ]
                ], 
                [
                    274012, 
                    [
                        {
                            "pitch": 43, 
                            "t0": 274012, 
                            "v": 87, 
                            "dur": 64, 
                            "type": "note", 
                            "channel": 2
                        }
                    ]
                ], 
                [
                    276062, 
                    [
                        {
                            "pitch": 43, 
                            "t0": 276062, 
                            "v": 82, 
                            "dur": 64, 
                            "type": "note", 
                            "channel": 2
                        }
                    ]
                ], 
                [
                    278012, 
                    [
                        {
                            "pitch": 43, 
                            "t0": 278012, 
                            "v": 65, 
                            "dur": 64, 
                            "type": "note", 
                            "channel": 2
                        }
                    ]
                ], 
                [
                    280062, 
                    [
                        {
                            "pitch": 43, 
                            "t0": 280062, 
                            "v": 63, 
                            "dur": 64, 
                            "type": "note", 
                            "channel": 2
                        }
                    ]
                ], 
                [
                    282012, 
                    [
                        {
                            "pitch": 43, 
                            "t0": 282012, 
                            "v": 92, 
                            "dur": 64, 
                            "type": "note", 
                            "channel": 2
                        }
                    ]
                ], 
                [
                    284062, 
                    [
                        {
                            "pitch": 43, 
                            "t0": 284062, 
                            "v": 97, 
                            "dur": 64, 
                            "type": "note", 
                            "channel": 2
                        }
                    ]
                ], 
                [
                    286012, 
                    [
                        {
                            "pitch": 43, 
                            "t0": 286012, 
                            "v": 74, 
                            "dur": 64, 
                            "type": "note", 
                            "channel": 2
                        }
                    ]
                ], 
                [
                    288062, 
                    [
                        {
                            "pitch": 43, 
                            "t0": 288062, 
                            "v": 80, 
                            "dur": 64, 
                            "type": "note", 
                            "channel": 2
                        }
                    ]
                ], 
                [
                    290012, 
                    [
                        {
                            "pitch": 43, 
                            "t0": 290012, 
                            "v": 80, 
                            "dur": 64, 
                            "type": "note", 
                            "channel": 2
                        }
                    ]
                ], 
                [
                    292062, 
                    [
                        {
                            "pitch": 43, 
                            "t0": 292062, 
                            "v": 72, 
                            "dur": 64, 
                            "type": "note", 
                            "channel": 2
                        }
                    ]
                ], 
                [
                    294012, 
                    [
                        {
                            "pitch": 43, 
                            "t0": 294012, 
                            "v": 63, 
                            "dur": 64, 
                            "type": "note", 
                            "channel": 2
                        }
                    ]
                ], 
                [
                    296062, 
                    [
                        {
                            "pitch": 43, 
                            "t0": 296062, 
                            "v": 58, 
                            "dur": 64, 
                            "type": "note", 
                            "channel": 2
                        }
                    ]
                ], 
                [
                    298012, 
                    [
                        {
                            "pitch": 43, 
                            "t0": 298012, 
                            "v": 104, 
                            "dur": 64, 
                            "type": "note", 
                            "channel": 2
                        }
                    ]
                ], 
                [
                    300062, 
                    [
                        {
                            "pitch": 43, 
                            "t0": 300062, 
                            "v": 56, 
                            "dur": 64, 
                            "type": "note", 
                            "channel": 2
                        }
                    ]
                ], 
                [
                    302012, 
                    [
                        {
                            "pitch": 43, 
                            "t0": 302012, 
                            "v": 91, 
                            "dur": 64, 
                            "type": "note", 
                            "channel": 2
                        }
                    ]
                ], 
                [
                    304062, 
                    [
                        {
                            "pitch": 43, 
                            "t0": 304062, 
                            "v": 71, 
                            "dur": 64, 
                            "type": "note", 
                            "channel": 2
                        }
                    ]
                ], 
                [
                    306012, 
                    [
                        {
                            "pitch": 43, 
                            "t0": 306012, 
                            "v": 94, 
                            "dur": 64, 
                            "type": "note", 
                            "channel": 2
                        }
                    ]
                ], 
                [
                    308062, 
                    [
                        {
                            "pitch": 43, 
                            "t0": 308062, 
                            "v": 67, 
                            "dur": 64, 
                            "type": "note", 
                            "channel": 2
                        }
                    ]
                ], 
                [
                    310012, 
                    [
                        {
                            "pitch": 43, 
                            "t0": 310012, 
                            "v": 76, 
                            "dur": 64, 
                            "type": "note", 
                            "channel": 2
                        }
                    ]
                ], 
                [
                    312062, 
                    [
                        {
                            "pitch": 43, 
                            "t0": 312062, 
                            "v": 75, 
                            "dur": 64, 
                            "type": "note", 
                            "channel": 2
                        }
                    ]
                ], 
                [
                    314012, 
                    [
                        {
                            "pitch": 43, 
                            "t0": 314012, 
                            "v": 80, 
                            "dur": 64, 
                            "type": "note", 
                            "channel": 2
                        }
                    ]
                ], 
                [
                    316062, 
                    [
                        {
                            "pitch": 43, 
                            "t0": 316062, 
                            "v": 100, 
                            "dur": 64, 
                            "type": "note", 
                            "channel": 2
                        }
                    ]
                ], 
                [
                    318012, 
                    [
                        {
                            "pitch": 43, 
                            "t0": 318012, 
                            "v": 85, 
                            "dur": 64, 
                            "type": "note", 
                            "channel": 2
                        }
                    ]
                ], 
                [
                    320062, 
                    [
                        {
                            "pitch": 43, 
                            "t0": 320062, 
                            "v": 98, 
                            "dur": 64, 
                            "type": "note", 
                            "channel": 2
                        }
                    ]
                ], 
                [
                    322012, 
                    [
                        {
                            "pitch": 43, 
                            "t0": 322012, 
                            "v": 65, 
                            "dur": 64, 
                            "type": "note", 
                            "channel": 2
                        }
                    ]
                ], 
                [
                    324062, 
                    [
                        {
                            "pitch": 43, 
                            "t0": 324062, 
                            "v": 86, 
                            "dur": 64, 
                            "type": "note", 
                            "channel": 2
                        }
                    ]
                ], 
                [
                    326012, 
                    [
                        {
                            "pitch": 43, 
                            "t0": 326012, 
                            "v": 64, 
                            "dur": 64, 
                            "type": "note", 
                            "channel": 2
                        }
                    ]
                ], 
                [
                    328062, 
                    [
                        {
                            "pitch": 43, 
                            "t0": 328062, 
                            "v": 67, 
                            "dur": 64, 
                            "type": "note", 
                            "channel": 2
                        }
                    ]
                ], 
                [
                    330012, 
                    [
                        {
                            "pitch": 43, 
                            "t0": 330012, 
                            "v": 99, 
                            "dur": 64, 
                            "type": "note", 
                            "channel": 2
                        }
                    ]
                ], 
                [
                    332062, 
                    [
                        {
                            "pitch": 43, 
                            "t0": 332062, 
                            "v": 104, 
                            "dur": 64, 
                            "type": "note", 
                            "channel": 2
                        }
                    ]
                ], 
                [
                    334012, 
                    [
                        {
                            "pitch": 43, 
                            "t0": 334012, 
                            "v": 62, 
                            "dur": 64, 
                            "type": "note", 
                            "channel": 2
                        }
                    ]
                ], 
                [
                    336062, 
                    [
                        {
                            "pitch": 43, 
                            "t0": 336062, 
                            "v": 69, 
                            "dur": 64, 
                            "type": "note", 
                            "channel": 2
                        }
                    ]
                ], 
                [
                    338012, 
                    [
                        {
                            "pitch": 43, 
                            "t0": 338012, 
                            "v": 92, 
                            "dur": 64, 
                            "type": "note", 
                            "channel": 2
                        }
                    ]
                ], 
                [
                    340062, 
                    [
                        {
                            "pitch": 43, 
                            "t0": 340062, 
                            "v": 59, 
                            "dur": 64, 
                            "type": "note", 
                            "channel": 2
                        }
                    ]
                ], 
                [
                    342012, 
                    [
                        {
                            "pitch": 43, 
                            "t0": 342012, 
                            "v": 89, 
                            "dur": 64, 
                            "type": "note", 
                            "channel": 2
                        }
                    ]
                ], 
                [
                    344062, 
                    [
                        {
                            "pitch": 43, 
                            "t0": 344062, 
                            "v": 99, 
                            "dur": 64, 
                            "type": "note", 
                            "channel": 2
                        }
                    ]
                ], 
                [
                    346012, 
                    [
                        {
                            "pitch": 43, 
                            "t0": 346012, 
                            "v": 58, 
                            "dur": 64, 
                            "type": "note", 
                            "channel": 2
                        }
                    ]
                ], 
                [
                    348062, 
                    [
                        {
                            "pitch": 43, 
                            "t0": 348062, 
                            "v": 62, 
                            "dur": 64, 
                            "type": "note", 
                            "channel": 2
                        }
                    ]
                ], 
                [
                    350012, 
                    [
                        {
                            "pitch": 43, 
                            "t0": 350012, 
                            "v": 86, 
                            "dur": 64, 
                            "type": "note", 
                            "channel": 2
                        }
                    ]
                ], 
                [
                    352062, 
                    [
                        {
                            "pitch": 43, 
                            "t0": 352062, 
                            "v": 73, 
                            "dur": 64, 
                            "type": "note", 
                            "channel": 2
                        }
                    ]
                ], 
                [
                    354012, 
                    [
                        {
                            "pitch": 43, 
                            "t0": 354012, 
                            "v": 74, 
                            "dur": 64, 
                            "type": "note", 
                            "channel": 2
                        }
                    ]
                ], 
                [
                    356062, 
                    [
                        {
                            "pitch": 43, 
                            "t0": 356062, 
                            "v": 73, 
                            "dur": 64, 
                            "type": "note", 
                            "channel": 2
                        }
                    ]
                ], 
                [
                    358012, 
                    [
                        {
                            "pitch": 43, 
                            "t0": 358012, 
                            "v": 101, 
                            "dur": 64, 
                            "type": "note", 
                            "channel": 2
                        }
                    ]
                ], 
                [
                    360062, 
                    [
                        {
                            "pitch": 43, 
                            "t0": 360062, 
                            "v": 87, 
                            "dur": 64, 
                            "type": "note", 
                            "channel": 2
                        }
                    ]
                ], 
                [
                    362012, 
                    [
                        {
                            "pitch": 43, 
                            "t0": 362012, 
                            "v": 68, 
                            "dur": 64, 
                            "type": "note", 
                            "channel": 2
                        }
                    ]
                ], 
                [
                    364062, 
                    [
                        {
                            "pitch": 43, 
                            "t0": 364062, 
                            "v": 81, 
                            "dur": 64, 
                            "type": "note", 
                            "channel": 2
                        }
                    ]
                ], 
                [
                    366012, 
                    [
                        {
                            "pitch": 43, 
                            "t0": 366012, 
                            "v": 65, 
                            "dur": 64, 
                            "type": "note", 
                            "channel": 2
                        }
                    ]
                ], 
                [
                    368062, 
                    [
                        {
                            "pitch": 43, 
                            "t0": 368062, 
                            "v": 66, 
                            "dur": 64, 
                            "type": "note", 
                            "channel": 2
                        }
                    ]
                ], 
                [
                    370012, 
                    [
                        {
                            "pitch": 43, 
                            "t0": 370012, 
                            "v": 78, 
                            "dur": 64, 
                            "type": "note", 
                            "channel": 2
                        }
                    ]
                ], 
                [
                    372062, 
                    [
                        {
                            "pitch": 43, 
                            "t0": 372062, 
                            "v": 101, 
                            "dur": 64, 
                            "type": "note", 
                            "channel": 2
                        }
                    ]
                ], 
                [
                    374012, 
                    [
                        {
                            "pitch": 43, 
                            "t0": 374012, 
                            "v": 102, 
                            "dur": 64, 
                            "type": "note", 
                            "channel": 2
                        }
                    ]
                ], 
                [
                    376062, 
                    [
                        {
                            "pitch": 43, 
                            "t0": 376062, 
                            "v": 69, 
                            "dur": 64, 
                            "type": "note", 
                            "channel": 2
                        }
                    ]
                ], 
                [
                    378012, 
                    [
                        {
                            "pitch": 43, 
                            "t0": 378012, 
                            "v": 77, 
                            "dur": 64, 
                            "type": "note", 
                            "channel": 2
                        }
                    ]
                ], 
                [
                    380062, 
                    [
                        {
                            "pitch": 43, 
                            "t0": 380062, 
                            "v": 103, 
                            "dur": 64, 
                            "type": "note", 
                            "channel": 2
                        }
                    ]
                ], 
                [
                    382012, 
                    [
                        {
                            "pitch": 43, 
                            "t0": 382012, 
                            "v": 81, 
                            "dur": 64, 
                            "type": "note", 
                            "channel": 2
                        }
                    ]
                ], 
                [
                    384062, 
                    [
                        {
                            "pitch": 43, 
                            "t0": 384062, 
                            "v": 62, 
                            "dur": 64, 
                            "type": "note", 
                            "channel": 2
                        }
                    ]
                ], 
                [
                    386012, 
                    [
                        {
                            "pitch": 43, 
                            "t0": 386012, 
                            "v": 71, 
                            "dur": 64, 
                            "type": "note", 
                            "channel": 2
                        }
                    ]
                ], 
                [
                    388062, 
                    [
                        {
                            "pitch": 43, 
                            "t0": 388062, 
                            "v": 86, 
                            "dur": 64, 
                            "type": "note", 
                            "channel": 2
                        }
                    ]
                ], 
                [
                    390012, 
                    [
                        {
                            "pitch": 43, 
                            "t0": 390012, 
                            "v": 72, 
                            "dur": 64, 
                            "type": "note", 
                            "channel": 2
                        }
                    ]
                ], 
                [
                    392062, 
                    [
                        {
                            "pitch": 43, 
                            "t0": 392062, 
                            "v": 98, 
                            "dur": 64, 
                            "type": "note", 
                            "channel": 2
                        }
                    ]
                ], 
                [
                    394012, 
                    [
                        {
                            "pitch": 43, 
                            "t0": 394012, 
                            "v": 59, 
                            "dur": 64, 
                            "type": "note", 
                            "channel": 2
                        }
                    ]
                ], 
                [
                    396062, 
                    [
                        {
                            "pitch": 43, 
                            "t0": 396062, 
                            "v": 56, 
                            "dur": 64, 
                            "type": "note", 
                            "channel": 2
                        }
                    ]
                ], 
                [
                    398012, 
                    [
                        {
                            "pitch": 43, 
                            "t0": 398012, 
                            "v": 78, 
                            "dur": 64, 
                            "type": "note", 
                            "channel": 2
                        }
                    ]
                ], 
                [
                    400062, 
                    [
                        {
                            "pitch": 43, 
                            "t0": 400062, 
                            "v": 73, 
                            "dur": 64, 
                            "type": "note", 
                            "channel": 2
                        }
                    ]
                ], 
                [
                    402012, 
                    [
                        {
                            "pitch": 43, 
                            "t0": 402012, 
                            "v": 79, 
                            "dur": 64, 
                            "type": "note", 
                            "channel": 2
                        }
                    ]
                ], 
                [
                    404062, 
                    [
                        {
                            "pitch": 43, 
                            "t0": 404062, 
                            "v": 92, 
                            "dur": 64, 
                            "type": "note", 
                            "channel": 2
                        }
                    ]
                ], 
                [
                    406012, 
                    [
                        {
                            "pitch": 43, 
                            "t0": 406012, 
                            "v": 93, 
                            "dur": 64, 
                            "type": "note", 
                            "channel": 2
                        }
                    ]
                ], 
                [
                    408062, 
                    [
                        {
                            "pitch": 43, 
                            "t0": 408062, 
                            "v": 89, 
                            "dur": 64, 
                            "type": "note", 
                            "channel": 2
                        }
                    ]
                ], 
                [
                    410012, 
                    [
                        {
                            "pitch": 43, 
                            "t0": 410012, 
                            "v": 78, 
                            "dur": 64, 
                            "type": "note", 
                            "channel": 2
                        }
                    ]
                ], 
                [
                    412062, 
                    [
                        {
                            "pitch": 43, 
                            "t0": 412062, 
                            "v": 85, 
                            "dur": 64, 
                            "type": "note", 
                            "channel": 2
                        }
                    ]
                ], 
                [
                    414012, 
                    [
                        {
                            "pitch": 43, 
                            "t0": 414012, 
                            "v": 70, 
                            "dur": 64, 
                            "type": "note", 
                            "channel": 2
                        }
                    ]
                ], 
                [
                    416062, 
                    [
                        {
                            "pitch": 43, 
                            "t0": 416062, 
                            "v": 80, 
                            "dur": 64, 
                            "type": "note", 
                            "channel": 2
                        }
                    ]
                ], 
                [
                    418012, 
                    [
                        {
                            "pitch": 43, 
                            "t0": 418012, 
                            "v": 86, 
                            "dur": 64, 
                            "type": "note", 
                            "channel": 2
                        }
                    ]
                ], 
                [
                    420062, 
                    [
                        {
                            "pitch": 43, 
                            "t0": 420062, 
                            "v": 96, 
                            "dur": 64, 
                            "type": "note", 
                            "channel": 2
                        }
                    ]
                ], 
                [
                    422012, 
                    [
                        {
                            "pitch": 43, 
                            "t0": 422012, 
                            "v": 78, 
                            "dur": 64, 
                            "type": "note", 
                            "channel": 2
                        }
                    ]
                ], 
                [
                    424062, 
                    [
                        {
                            "pitch": 43, 
                            "t0": 424062, 
                            "v": 58, 
                            "dur": 64, 
                            "type": "note", 
                            "channel": 2
                        }
                    ]
                ], 
                [
                    426012, 
                    [
                        {
                            "pitch": 43, 
                            "t0": 426012, 
                            "v": 75, 
                            "dur": 64, 
                            "type": "note", 
                            "channel": 2
                        }
                    ]
                ], 
                [
                    428062, 
                    [
                        {
                            "pitch": 43, 
                            "t0": 428062, 
                            "v": 86, 
                            "dur": 64, 
                            "type": "note", 
                            "channel": 2
                        }
                    ]
                ], 
                [
                    430012, 
                    [
                        {
                            "pitch": 43, 
                            "t0": 430012, 
                            "v": 97, 
                            "dur": 64, 
                            "type": "note", 
                            "channel": 2
                        }
                    ]
                ], 
                [
                    432062, 
                    [
                        {
                            "pitch": 43, 
                            "t0": 432062, 
                            "v": 95, 
                            "dur": 64, 
                            "type": "note", 
                            "channel": 2
                        }
                    ]
                ], 
                [
                    434012, 
                    [
                        {
                            "pitch": 43, 
                            "t0": 434012, 
                            "v": 63, 
                            "dur": 64, 
                            "type": "note", 
                            "channel": 2
                        }
                    ]
                ], 
                [
                    436062, 
                    [
                        {
                            "pitch": 43, 
                            "t0": 436062, 
                            "v": 58, 
                            "dur": 64, 
                            "type": "note", 
                            "channel": 2
                        }
                    ]
                ], 
                [
                    438012, 
                    [
                        {
                            "pitch": 43, 
                            "t0": 438012, 
                            "v": 87, 
                            "dur": 64, 
                            "type": "note", 
                            "channel": 2
                        }
                    ]
                ], 
                [
                    440062, 
                    [
                        {
                            "pitch": 43, 
                            "t0": 440062, 
                            "v": 83, 
                            "dur": 64, 
                            "type": "note", 
                            "channel": 2
                        }
                    ]
                ], 
                [
                    442012, 
                    [
                        {
                            "pitch": 43, 
                            "t0": 442012, 
                            "v": 87, 
                            "dur": 64, 
                            "type": "note", 
                            "channel": 2
                        }
                    ]
                ], 
                [
                    444062, 
                    [
                        {
                            "pitch": 43, 
                            "t0": 444062, 
                            "v": 59, 
                            "dur": 64, 
                            "type": "note", 
                            "channel": 2
                        }
                    ]
                ], 
                [
                    446012, 
                    [
                        {
                            "pitch": 43, 
                            "t0": 446012, 
                            "v": 80, 
                            "dur": 64, 
                            "type": "note", 
                            "channel": 2
                        }
                    ]
                ], 
                [
                    448062, 
                    [
                        {
                            "pitch": 43, 
                            "t0": 448062, 
                            "v": 85, 
                            "dur": 64, 
                            "type": "note", 
                            "channel": 2
                        }
                    ]
                ], 
                [
                    450012, 
                    [
                        {
                            "pitch": 43, 
                            "t0": 450012, 
                            "v": 89, 
                            "dur": 64, 
                            "type": "note", 
                            "channel": 2
                        }
                    ]
                ], 
                [
                    452062, 
                    [
                        {
                            "pitch": 43, 
                            "t0": 452062, 
                            "v": 77, 
                            "dur": 64, 
                            "type": "note", 
                            "channel": 2
                        }
                    ]
                ], 
                [
                    454012, 
                    [
                        {
                            "pitch": 43, 
                            "t0": 454012, 
                            "v": 101, 
                            "dur": 64, 
                            "type": "note", 
                            "channel": 2
                        }
                    ]
                ], 
                [
                    456062, 
                    [
                        {
                            "pitch": 43, 
                            "t0": 456062, 
                            "v": 96, 
                            "dur": 64, 
                            "type": "note", 
                            "channel": 2
                        }
                    ]
                ], 
                [
                    458012, 
                    [
                        {
                            "pitch": 43, 
                            "t0": 458012, 
                            "v": 75, 
                            "dur": 64, 
                            "type": "note", 
                            "channel": 2
                        }
                    ]
                ], 
                [
                    460062, 
                    [
                        {
                            "pitch": 43, 
                            "t0": 460062, 
                            "v": 75, 
                            "dur": 64, 
                            "type": "note", 
                            "channel": 2
                        }
                    ]
                ], 
                [
                    462012, 
                    [
                        {
                            "pitch": 43, 
                            "t0": 462012, 
                            "v": 95, 
                            "dur": 64, 
                            "type": "note", 
                            "channel": 2
                        }
                    ]
                ], 
                [
                    464062, 
                    [
                        {
                            "pitch": 43, 
                            "t0": 464062, 
                            "v": 83, 
                            "dur": 64, 
                            "type": "note", 
                            "channel": 2
                        }
                    ]
                ], 
                [
                    466012, 
                    [
                        {
                            "pitch": 43, 
                            "t0": 466012, 
                            "v": 74, 
                            "dur": 64, 
                            "type": "note", 
                            "channel": 2
                        }
                    ]
                ], 
                [
                    468062, 
                    [
                        {
                            "pitch": 43, 
                            "t0": 468062, 
                            "v": 71, 
                            "dur": 64, 
                            "type": "note", 
                            "channel": 2
                        }
                    ]
                ], 
                [
                    470012, 
                    [
                        {
                            "pitch": 43, 
                            "t0": 470012, 
                            "v": 89, 
                            "dur": 64, 
                            "type": "note", 
                            "channel": 2
                        }
                    ]
                ], 
                [
                    472062, 
                    [
                        {
                            "pitch": 43, 
                            "t0": 472062, 
                            "v": 80, 
                            "dur": 64, 
                            "type": "note", 
                            "channel": 2
                        }
                    ]
                ], 
                [
                    474012, 
                    [
                        {
                            "pitch": 43, 
                            "t0": 474012, 
                            "v": 56, 
                            "dur": 64, 
                            "type": "note", 
                            "channel": 2
                        }
                    ]
                ], 
                [
                    476062, 
                    [
                        {
                            "pitch": 43, 
                            "t0": 476062, 
                            "v": 97, 
                            "dur": 64, 
                            "type": "note", 
                            "channel": 2
                        }
                    ]
                ], 
                [
                    478012, 
                    [
                        {
                            "pitch": 43, 
                            "t0": 478012, 
                            "v": 83, 
                            "dur": 64, 
                            "type": "note", 
                            "channel": 2
                        }
                    ]
                ], 
                [
                    480062, 
                    [
                        {
                            "pitch": 43, 
                            "t0": 480062, 
                            "v": 104, 
                            "dur": 64, 
                            "type": "note", 
                            "channel": 2
                        }
                    ]
                ], 
                [
                    482012, 
                    [
                        {
                            "pitch": 43, 
                            "t0": 482012, 
                            "v": 88, 
                            "dur": 64, 
                            "type": "note", 
                            "channel": 2
                        }
                    ]
                ], 
                [
                    484062, 
                    [
                        {
                            "pitch": 43, 
                            "t0": 484062, 
                            "v": 80, 
                            "dur": 64, 
                            "type": "note", 
                            "channel": 2
                        }
                    ]
                ], 
                [
                    486012, 
                    [
                        {
                            "pitch": 43, 
                            "t0": 486012, 
                            "v": 99, 
                            "dur": 64, 
                            "type": "note", 
                            "channel": 2
                        }
                    ]
                ], 
                [
                    488062, 
                    [
                        {
                            "pitch": 43, 
                            "t0": 488062, 
                            "v": 65, 
                            "dur": 64, 
                            "type": "note", 
                            "channel": 2
                        }
                    ]
                ], 
                [
                    490012, 
                    [
                        {
                            "pitch": 43, 
                            "t0": 490012, 
                            "v": 63, 
                            "dur": 64, 
                            "type": "note", 
                            "channel": 2
                        }
                    ]
                ], 
                [
                    492062, 
                    [
                        {
                            "pitch": 43, 
                            "t0": 492062, 
                            "v": 57, 
                            "dur": 64, 
                            "type": "note", 
                            "channel": 2
                        }
                    ]
                ], 
                [
                    494012, 
                    [
                        {
                            "pitch": 43, 
                            "t0": 494012, 
                            "v": 102, 
                            "dur": 64, 
                            "type": "note", 
                            "channel": 2
                        }
                    ]
                ], 
                [
                    496062, 
                    [
                        {
                            "pitch": 43, 
                            "t0": 496062, 
                            "v": 93, 
                            "dur": 64, 
                            "type": "note", 
                            "channel": 2
                        }
                    ]
                ], 
                [
                    498012, 
                    [
                        {
                            "pitch": 43, 
                            "t0": 498012, 
                            "v": 86, 
                            "dur": 64, 
                            "type": "note", 
                            "channel": 2
                        }
                    ]
                ], 
                [
                    500062, 
                    [
                        {
                            "pitch": 43, 
                            "t0": 500062, 
                            "v": 95, 
                            "dur": 64, 
                            "type": "note", 
                            "channel": 2
                        }
                    ]
                ], 
                [
                    502012, 
                    [
                        {
                            "pitch": 43, 
                            "t0": 502012, 
                            "v": 80, 
                            "dur": 64, 
                            "type": "note", 
                            "channel": 2
                        }
                    ]
                ], 
                [
                    504062, 
                    [
                        {
                            "pitch": 43, 
                            "t0": 504062, 
                            "v": 78, 
                            "dur": 64, 
                            "type": "note", 
                            "channel": 2
                        }
                    ]
                ], 
                [
                    506012, 
                    [
                        {
                            "pitch": 43, 
                            "t0": 506012, 
                            "v": 104, 
                            "dur": 64, 
                            "type": "note", 
                            "channel": 2
                        }
                    ]
                ], 
                [
                    508062, 
                    [
                        {
                            "pitch": 43, 
                            "t0": 508062, 
                            "v": 104, 
                            "dur": 64, 
                            "type": "note", 
                            "channel": 2
                        }
                    ]
                ], 
                [
                    510012, 
                    [
                        {
                            "pitch": 43, 
                            "t0": 510012, 
                            "v": 56, 
                            "dur": 64, 
                            "type": "note", 
                            "channel": 2
                        }
                    ]
                ], 
                [
                    512062, 
                    [
                        {
                            "pitch": 43, 
                            "t0": 512062, 
                            "v": 80, 
                            "dur": 64, 
                            "type": "note", 
                            "channel": 2
                        }
                    ]
                ], 
                [
                    514012, 
                    [
                        {
                            "pitch": 43, 
                            "t0": 514012, 
                            "v": 85, 
                            "dur": 64, 
                            "type": "note", 
                            "channel": 2
                        }
                    ]
                ], 
                [
                    516062, 
                    [
                        {
                            "pitch": 43, 
                            "t0": 516062, 
                            "v": 65, 
                            "dur": 64, 
                            "type": "note", 
                            "channel": 2
                        }
                    ]
                ], 
                [
                    518012, 
                    [
                        {
                            "pitch": 43, 
                            "t0": 518012, 
                            "v": 94, 
                            "dur": 64, 
                            "type": "note", 
                            "channel": 2
                        }
                    ]
                ], 
                [
                    520062, 
                    [
                        {
                            "pitch": 43, 
                            "t0": 520062, 
                            "v": 102, 
                            "dur": 64, 
                            "type": "note", 
                            "channel": 2
                        }
                    ]
                ], 
                [
                    522012, 
                    [
                        {
                            "pitch": 43, 
                            "t0": 522012, 
                            "v": 87, 
                            "dur": 64, 
                            "type": "note", 
                            "channel": 2
                        }
                    ]
                ], 
                [
                    524062, 
                    [
                        {
                            "pitch": 43, 
                            "t0": 524062, 
                            "v": 57, 
                            "dur": 64, 
                            "type": "note", 
                            "channel": 2
                        }
                    ]
                ], 
                [
                    526012, 
                    [
                        {
                            "pitch": 43, 
                            "t0": 526012, 
                            "v": 95, 
                            "dur": 64, 
                            "type": "note", 
                            "channel": 2
                        }
                    ]
                ], 
                [
                    528062, 
                    [
                        {
                            "pitch": 43, 
                            "t0": 528062, 
                            "v": 64, 
                            "dur": 64, 
                            "type": "note", 
                            "channel": 2
                        }
                    ]
                ], 
                [
                    530012, 
                    [
                        {
                            "pitch": 43, 
                            "t0": 530012, 
                            "v": 61, 
                            "dur": 64, 
                            "type": "note", 
                            "channel": 2
                        }
                    ]
                ], 
                [
                    532062, 
                    [
                        {
                            "pitch": 43, 
                            "t0": 532062, 
                            "v": 85, 
                            "dur": 64, 
                            "type": "note", 
                            "channel": 2
                        }
                    ]
                ], 
                [
                    534012, 
                    [
                        {
                            "pitch": 43, 
                            "t0": 534012, 
                            "v": 60, 
                            "dur": 64, 
                            "type": "note", 
                            "channel": 2
                        }
                    ]
                ], 
                [
                    536062, 
                    [
                        {
                            "pitch": 43, 
                            "t0": 536062, 
                            "v": 93, 
                            "dur": 64, 
                            "type": "note", 
                            "channel": 2
                        }
                    ]
                ], 
                [
                    538012, 
                    [
                        {
                            "pitch": 43, 
                            "t0": 538012, 
                            "v": 82, 
                            "dur": 64, 
                            "type": "note", 
                            "channel": 2
                        }
                    ]
                ], 
                [
                    540062, 
                    [
                        {
                            "pitch": 43, 
                            "t0": 540062, 
                            "v": 74, 
                            "dur": 64, 
                            "type": "note", 
                            "channel": 2
                        }
                    ]
                ], 
                [
                    542012, 
                    [
                        {
                            "pitch": 43, 
                            "t0": 542012, 
                            "v": 80, 
                            "dur": 64, 
                            "type": "note", 
                            "channel": 2
                        }
                    ]
                ]
            ], 
            "instruments": [
                116
            ], 
            "tMax": 542012, 
            "channels": [
                2
            ], 
            "instrument": 116, 
            "numNotes": 272, 
            "type": "TrackObj"
        }, 
        {
            "trackName": "Instrument Track", 
            "seq": [
                [
                    0, 
                    [
                        {
                            "instrument": 32, 
                            "type": "programChange", 
                            "t0": 0, 
                            "channel": 9
                        }
                    ]
                ], 
                [
                    70, 
                    [
                        {
                            "pitch": 43, 
                            "t0": 70, 
                            "v": 68, 
                            "dur": 250, 
                            "type": "note", 
                            "channel": 9
                        }
                    ]
                ], 
                [
                    2020, 
                    [
                        {
                            "pitch": 43, 
                            "t0": 2020, 
                            "v": 72, 
                            "dur": 250, 
                            "type": "note", 
                            "channel": 9
                        }
                    ]
                ], 
                [
                    4070, 
                    [
                        {
                            "pitch": 43, 
                            "t0": 4070, 
                            "v": 62, 
                            "dur": 250, 
                            "type": "note", 
                            "channel": 9
                        }
                    ]
                ], 
                [
                    6020, 
                    [
                        {
                            "pitch": 43, 
                            "t0": 6020, 
                            "v": 104, 
                            "dur": 250, 
                            "type": "note", 
                            "channel": 9
                        }
                    ]
                ], 
                [
                    8070, 
                    [
                        {
                            "pitch": 43, 
                            "t0": 8070, 
                            "v": 58, 
                            "dur": 250, 
                            "type": "note", 
                            "channel": 9
                        }
                    ]
                ], 
                [
                    10020, 
                    [
                        {
                            "pitch": 43, 
                            "t0": 10020, 
                            "v": 103, 
                            "dur": 250, 
                            "type": "note", 
                            "channel": 9
                        }
                    ]
                ], 
                [
                    12070, 
                    [
                        {
                            "pitch": 43, 
                            "t0": 12070, 
                            "v": 70, 
                            "dur": 250, 
                            "type": "note", 
                            "channel": 9
                        }
                    ]
                ], 
                [
                    14020, 
                    [
                        {
                            "pitch": 43, 
                            "t0": 14020, 
                            "v": 95, 
                            "dur": 250, 
                            "type": "note", 
                            "channel": 9
                        }
                    ]
                ], 
                [
                    16070, 
                    [
                        {
                            "pitch": 43, 
                            "t0": 16070, 
                            "v": 66, 
                            "dur": 250, 
                            "type": "note", 
                            "channel": 9
                        }
                    ]
                ], 
                [
                    18020, 
                    [
                        {
                            "pitch": 43, 
                            "t0": 18020, 
                            "v": 103, 
                            "dur": 250, 
                            "type": "note", 
                            "channel": 9
                        }
                    ]
                ], 
                [
                    20070, 
                    [
                        {
                            "pitch": 43, 
                            "t0": 20070, 
                            "v": 64, 
                            "dur": 250, 
                            "type": "note", 
                            "channel": 9
                        }
                    ]
                ], 
                [
                    22020, 
                    [
                        {
                            "pitch": 43, 
                            "t0": 22020, 
                            "v": 93, 
                            "dur": 250, 
                            "type": "note", 
                            "channel": 9
                        }
                    ]
                ], 
                [
                    24070, 
                    [
                        {
                            "pitch": 43, 
                            "t0": 24070, 
                            "v": 75, 
                            "dur": 250, 
                            "type": "note", 
                            "channel": 9
                        }
                    ]
                ], 
                [
                    26020, 
                    [
                        {
                            "pitch": 43, 
                            "t0": 26020, 
                            "v": 80, 
                            "dur": 250, 
                            "type": "note", 
                            "channel": 9
                        }
                    ]
                ], 
                [
                    28070, 
                    [
                        {
                            "pitch": 43, 
                            "t0": 28070, 
                            "v": 83, 
                            "dur": 250, 
                            "type": "note", 
                            "channel": 9
                        }
                    ]
                ], 
                [
                    30020, 
                    [
                        {
                            "pitch": 43, 
                            "t0": 30020, 
                            "v": 92, 
                            "dur": 250, 
                            "type": "note", 
                            "channel": 9
                        }
                    ]
                ], 
                [
                    32070, 
                    [
                        {
                            "pitch": 43, 
                            "t0": 32070, 
                            "v": 70, 
                            "dur": 250, 
                            "type": "note", 
                            "channel": 9
                        }
                    ]
                ], 
                [
                    34020, 
                    [
                        {
                            "pitch": 43, 
                            "t0": 34020, 
                            "v": 104, 
                            "dur": 250, 
                            "type": "note", 
                            "channel": 9
                        }
                    ]
                ], 
                [
                    36070, 
                    [
                        {
                            "pitch": 43, 
                            "t0": 36070, 
                            "v": 95, 
                            "dur": 250, 
                            "type": "note", 
                            "channel": 9
                        }
                    ]
                ], 
                [
                    38020, 
                    [
                        {
                            "pitch": 43, 
                            "t0": 38020, 
                            "v": 77, 
                            "dur": 250, 
                            "type": "note", 
                            "channel": 9
                        }
                    ]
                ], 
                [
                    40070, 
                    [
                        {
                            "pitch": 43, 
                            "t0": 40070, 
                            "v": 93, 
                            "dur": 250, 
                            "type": "note", 
                            "channel": 9
                        }
                    ]
                ], 
                [
                    42020, 
                    [
                        {
                            "pitch": 43, 
                            "t0": 42020, 
                            "v": 76, 
                            "dur": 250, 
                            "type": "note", 
                            "channel": 9
                        }
                    ]
                ], 
                [
                    44070, 
                    [
                        {
                            "pitch": 43, 
                            "t0": 44070, 
                            "v": 91, 
                            "dur": 250, 
                            "type": "note", 
                            "channel": 9
                        }
                    ]
                ], 
                [
                    46020, 
                    [
                        {
                            "pitch": 43, 
                            "t0": 46020, 
                            "v": 103, 
                            "dur": 250, 
                            "type": "note", 
                            "channel": 9
                        }
                    ]
                ], 
                [
                    48070, 
                    [
                        {
                            "pitch": 43, 
                            "t0": 48070, 
                            "v": 69, 
                            "dur": 250, 
                            "type": "note", 
                            "channel": 9
                        }
                    ]
                ], 
                [
                    50020, 
                    [
                        {
                            "pitch": 43, 
                            "t0": 50020, 
                            "v": 87, 
                            "dur": 250, 
                            "type": "note", 
                            "channel": 9
                        }
                    ]
                ], 
                [
                    52070, 
                    [
                        {
                            "pitch": 43, 
                            "t0": 52070, 
                            "v": 81, 
                            "dur": 250, 
                            "type": "note", 
                            "channel": 9
                        }
                    ]
                ], 
                [
                    54020, 
                    [
                        {
                            "pitch": 43, 
                            "t0": 54020, 
                            "v": 92, 
                            "dur": 250, 
                            "type": "note", 
                            "channel": 9
                        }
                    ]
                ], 
                [
                    56070, 
                    [
                        {
                            "pitch": 43, 
                            "t0": 56070, 
                            "v": 62, 
                            "dur": 250, 
                            "type": "note", 
                            "channel": 9
                        }
                    ]
                ], 
                [
                    58020, 
                    [
                        {
                            "pitch": 43, 
                            "t0": 58020, 
                            "v": 68, 
                            "dur": 250, 
                            "type": "note", 
                            "channel": 9
                        }
                    ]
                ], 
                [
                    60070, 
                    [
                        {
                            "pitch": 43, 
                            "t0": 60070, 
                            "v": 56, 
                            "dur": 250, 
                            "type": "note", 
                            "channel": 9
                        }
                    ]
                ], 
                [
                    62020, 
                    [
                        {
                            "pitch": 43, 
                            "t0": 62020, 
                            "v": 101, 
                            "dur": 250, 
                            "type": "note", 
                            "channel": 9
                        }
                    ]
                ], 
                [
                    64070, 
                    [
                        {
                            "pitch": 43, 
                            "t0": 64070, 
                            "v": 101, 
                            "dur": 250, 
                            "type": "note", 
                            "channel": 9
                        }
                    ]
                ], 
                [
                    66020, 
                    [
                        {
                            "pitch": 43, 
                            "t0": 66020, 
                            "v": 92, 
                            "dur": 250, 
                            "type": "note", 
                            "channel": 9
                        }
                    ]
                ], 
                [
                    68070, 
                    [
                        {
                            "pitch": 43, 
                            "t0": 68070, 
                            "v": 101, 
                            "dur": 250, 
                            "type": "note", 
                            "channel": 9
                        }
                    ]
                ], 
                [
                    70020, 
                    [
                        {
                            "pitch": 43, 
                            "t0": 70020, 
                            "v": 96, 
                            "dur": 250, 
                            "type": "note", 
                            "channel": 9
                        }
                    ]
                ], 
                [
                    72070, 
                    [
                        {
                            "pitch": 43, 
                            "t0": 72070, 
                            "v": 71, 
                            "dur": 250, 
                            "type": "note", 
                            "channel": 9
                        }
                    ]
                ], 
                [
                    74020, 
                    [
                        {
                            "pitch": 43, 
                            "t0": 74020, 
                            "v": 94, 
                            "dur": 250, 
                            "type": "note", 
                            "channel": 9
                        }
                    ]
                ], 
                [
                    76070, 
                    [
                        {
                            "pitch": 43, 
                            "t0": 76070, 
                            "v": 97, 
                            "dur": 250, 
                            "type": "note", 
                            "channel": 9
                        }
                    ]
                ], 
                [
                    78020, 
                    [
                        {
                            "pitch": 43, 
                            "t0": 78020, 
                            "v": 59, 
                            "dur": 250, 
                            "type": "note", 
                            "channel": 9
                        }
                    ]
                ], 
                [
                    80070, 
                    [
                        {
                            "pitch": 43, 
                            "t0": 80070, 
                            "v": 64, 
                            "dur": 250, 
                            "type": "note", 
                            "channel": 9
                        }
                    ]
                ], 
                [
                    82020, 
                    [
                        {
                            "pitch": 43, 
                            "t0": 82020, 
                            "v": 61, 
                            "dur": 250, 
                            "type": "note", 
                            "channel": 9
                        }
                    ]
                ], 
                [
                    84070, 
                    [
                        {
                            "pitch": 43, 
                            "t0": 84070, 
                            "v": 60, 
                            "dur": 250, 
                            "type": "note", 
                            "channel": 9
                        }
                    ]
                ], 
                [
                    86020, 
                    [
                        {
                            "pitch": 43, 
                            "t0": 86020, 
                            "v": 81, 
                            "dur": 250, 
                            "type": "note", 
                            "channel": 9
                        }
                    ]
                ], 
                [
                    88070, 
                    [
                        {
                            "pitch": 43, 
                            "t0": 88070, 
                            "v": 92, 
                            "dur": 250, 
                            "type": "note", 
                            "channel": 9
                        }
                    ]
                ], 
                [
                    90020, 
                    [
                        {
                            "pitch": 43, 
                            "t0": 90020, 
                            "v": 88, 
                            "dur": 250, 
                            "type": "note", 
                            "channel": 9
                        }
                    ]
                ], 
                [
                    92070, 
                    [
                        {
                            "pitch": 43, 
                            "t0": 92070, 
                            "v": 62, 
                            "dur": 250, 
                            "type": "note", 
                            "channel": 9
                        }
                    ]
                ], 
                [
                    94020, 
                    [
                        {
                            "pitch": 43, 
                            "t0": 94020, 
                            "v": 88, 
                            "dur": 250, 
                            "type": "note", 
                            "channel": 9
                        }
                    ]
                ], 
                [
                    96070, 
                    [
                        {
                            "pitch": 43, 
                            "t0": 96070, 
                            "v": 68, 
                            "dur": 250, 
                            "type": "note", 
                            "channel": 9
                        }
                    ]
                ], 
                [
                    98020, 
                    [
                        {
                            "pitch": 43, 
                            "t0": 98020, 
                            "v": 90, 
                            "dur": 250, 
                            "type": "note", 
                            "channel": 9
                        }
                    ]
                ], 
                [
                    100070, 
                    [
                        {
                            "pitch": 43, 
                            "t0": 100070, 
                            "v": 80, 
                            "dur": 250, 
                            "type": "note", 
                            "channel": 9
                        }
                    ]
                ], 
                [
                    102020, 
                    [
                        {
                            "pitch": 43, 
                            "t0": 102020, 
                            "v": 85, 
                            "dur": 250, 
                            "type": "note", 
                            "channel": 9
                        }
                    ]
                ], 
                [
                    104070, 
                    [
                        {
                            "pitch": 43, 
                            "t0": 104070, 
                            "v": 84, 
                            "dur": 250, 
                            "type": "note", 
                            "channel": 9
                        }
                    ]
                ], 
                [
                    106020, 
                    [
                        {
                            "pitch": 43, 
                            "t0": 106020, 
                            "v": 56, 
                            "dur": 250, 
                            "type": "note", 
                            "channel": 9
                        }
                    ]
                ], 
                [
                    108070, 
                    [
                        {
                            "pitch": 43, 
                            "t0": 108070, 
                            "v": 84, 
                            "dur": 250, 
                            "type": "note", 
                            "channel": 9
                        }
                    ]
                ], 
                [
                    110020, 
                    [
                        {
                            "pitch": 43, 
                            "t0": 110020, 
                            "v": 72, 
                            "dur": 250, 
                            "type": "note", 
                            "channel": 9
                        }
                    ]
                ], 
                [
                    112070, 
                    [
                        {
                            "pitch": 43, 
                            "t0": 112070, 
                            "v": 90, 
                            "dur": 250, 
                            "type": "note", 
                            "channel": 9
                        }
                    ]
                ], 
                [
                    114020, 
                    [
                        {
                            "pitch": 43, 
                            "t0": 114020, 
                            "v": 87, 
                            "dur": 250, 
                            "type": "note", 
                            "channel": 9
                        }
                    ]
                ], 
                [
                    116070, 
                    [
                        {
                            "pitch": 43, 
                            "t0": 116070, 
                            "v": 78, 
                            "dur": 250, 
                            "type": "note", 
                            "channel": 9
                        }
                    ]
                ], 
                [
                    118020, 
                    [
                        {
                            "pitch": 43, 
                            "t0": 118020, 
                            "v": 63, 
                            "dur": 250, 
                            "type": "note", 
                            "channel": 9
                        }
                    ]
                ], 
                [
                    120070, 
                    [
                        {
                            "pitch": 43, 
                            "t0": 120070, 
                            "v": 96, 
                            "dur": 250, 
                            "type": "note", 
                            "channel": 9
                        }
                    ]
                ], 
                [
                    122020, 
                    [
                        {
                            "pitch": 43, 
                            "t0": 122020, 
                            "v": 59, 
                            "dur": 250, 
                            "type": "note", 
                            "channel": 9
                        }
                    ]
                ], 
                [
                    124070, 
                    [
                        {
                            "pitch": 43, 
                            "t0": 124070, 
                            "v": 80, 
                            "dur": 250, 
                            "type": "note", 
                            "channel": 9
                        }
                    ]
                ], 
                [
                    126020, 
                    [
                        {
                            "pitch": 43, 
                            "t0": 126020, 
                            "v": 78, 
                            "dur": 250, 
                            "type": "note", 
                            "channel": 9
                        }
                    ]
                ], 
                [
                    128070, 
                    [
                        {
                            "pitch": 43, 
                            "t0": 128070, 
                            "v": 57, 
                            "dur": 250, 
                            "type": "note", 
                            "channel": 9
                        }
                    ]
                ], 
                [
                    130020, 
                    [
                        {
                            "pitch": 43, 
                            "t0": 130020, 
                            "v": 101, 
                            "dur": 250, 
                            "type": "note", 
                            "channel": 9
                        }
                    ]
                ], 
                [
                    132070, 
                    [
                        {
                            "pitch": 43, 
                            "t0": 132070, 
                            "v": 85, 
                            "dur": 250, 
                            "type": "note", 
                            "channel": 9
                        }
                    ]
                ], 
                [
                    134020, 
                    [
                        {
                            "pitch": 43, 
                            "t0": 134020, 
                            "v": 64, 
                            "dur": 250, 
                            "type": "note", 
                            "channel": 9
                        }
                    ]
                ], 
                [
                    136070, 
                    [
                        {
                            "pitch": 43, 
                            "t0": 136070, 
                            "v": 75, 
                            "dur": 250, 
                            "type": "note", 
                            "channel": 9
                        }
                    ]
                ], 
                [
                    138020, 
                    [
                        {
                            "pitch": 43, 
                            "t0": 138020, 
                            "v": 63, 
                            "dur": 250, 
                            "type": "note", 
                            "channel": 9
                        }
                    ]
                ], 
                [
                    140070, 
                    [
                        {
                            "pitch": 43, 
                            "t0": 140070, 
                            "v": 79, 
                            "dur": 250, 
                            "type": "note", 
                            "channel": 9
                        }
                    ]
                ], 
                [
                    142020, 
                    [
                        {
                            "pitch": 43, 
                            "t0": 142020, 
                            "v": 65, 
                            "dur": 250, 
                            "type": "note", 
                            "channel": 9
                        }
                    ]
                ], 
                [
                    144070, 
                    [
                        {
                            "pitch": 43, 
                            "t0": 144070, 
                            "v": 103, 
                            "dur": 250, 
                            "type": "note", 
                            "channel": 9
                        }
                    ]
                ], 
                [
                    146020, 
                    [
                        {
                            "pitch": 43, 
                            "t0": 146020, 
                            "v": 58, 
                            "dur": 250, 
                            "type": "note", 
                            "channel": 9
                        }
                    ]
                ], 
                [
                    148070, 
                    [
                        {
                            "pitch": 43, 
                            "t0": 148070, 
                            "v": 97, 
                            "dur": 250, 
                            "type": "note", 
                            "channel": 9
                        }
                    ]
                ], 
                [
                    150020, 
                    [
                        {
                            "pitch": 43, 
                            "t0": 150020, 
                            "v": 70, 
                            "dur": 250, 
                            "type": "note", 
                            "channel": 9
                        }
                    ]
                ], 
                [
                    152070, 
                    [
                        {
                            "pitch": 43, 
                            "t0": 152070, 
                            "v": 88, 
                            "dur": 250, 
                            "type": "note", 
                            "channel": 9
                        }
                    ]
                ], 
                [
                    154020, 
                    [
                        {
                            "pitch": 43, 
                            "t0": 154020, 
                            "v": 97, 
                            "dur": 250, 
                            "type": "note", 
                            "channel": 9
                        }
                    ]
                ], 
                [
                    156070, 
                    [
                        {
                            "pitch": 43, 
                            "t0": 156070, 
                            "v": 65, 
                            "dur": 250, 
                            "type": "note", 
                            "channel": 9
                        }
                    ]
                ], 
                [
                    158020, 
                    [
                        {
                            "pitch": 43, 
                            "t0": 158020, 
                            "v": 97, 
                            "dur": 250, 
                            "type": "note", 
                            "channel": 9
                        }
                    ]
                ], 
                [
                    160070, 
                    [
                        {
                            "pitch": 43, 
                            "t0": 160070, 
                            "v": 91, 
                            "dur": 250, 
                            "type": "note", 
                            "channel": 9
                        }
                    ]
                ], 
                [
                    162020, 
                    [
                        {
                            "pitch": 43, 
                            "t0": 162020, 
                            "v": 63, 
                            "dur": 250, 
                            "type": "note", 
                            "channel": 9
                        }
                    ]
                ], 
                [
                    164070, 
                    [
                        {
                            "pitch": 43, 
                            "t0": 164070, 
                            "v": 100, 
                            "dur": 250, 
                            "type": "note", 
                            "channel": 9
                        }
                    ]
                ], 
                [
                    166020, 
                    [
                        {
                            "pitch": 43, 
                            "t0": 166020, 
                            "v": 104, 
                            "dur": 250, 
                            "type": "note", 
                            "channel": 9
                        }
                    ]
                ], 
                [
                    168070, 
                    [
                        {
                            "pitch": 43, 
                            "t0": 168070, 
                            "v": 67, 
                            "dur": 250, 
                            "type": "note", 
                            "channel": 9
                        }
                    ]
                ], 
                [
                    170020, 
                    [
                        {
                            "pitch": 43, 
                            "t0": 170020, 
                            "v": 98, 
                            "dur": 250, 
                            "type": "note", 
                            "channel": 9
                        }
                    ]
                ], 
                [
                    172070, 
                    [
                        {
                            "pitch": 43, 
                            "t0": 172070, 
                            "v": 80, 
                            "dur": 250, 
                            "type": "note", 
                            "channel": 9
                        }
                    ]
                ], 
                [
                    174020, 
                    [
                        {
                            "pitch": 43, 
                            "t0": 174020, 
                            "v": 93, 
                            "dur": 250, 
                            "type": "note", 
                            "channel": 9
                        }
                    ]
                ], 
                [
                    176070, 
                    [
                        {
                            "pitch": 43, 
                            "t0": 176070, 
                            "v": 96, 
                            "dur": 250, 
                            "type": "note", 
                            "channel": 9
                        }
                    ]
                ], 
                [
                    178020, 
                    [
                        {
                            "pitch": 43, 
                            "t0": 178020, 
                            "v": 82, 
                            "dur": 250, 
                            "type": "note", 
                            "channel": 9
                        }
                    ]
                ], 
                [
                    180070, 
                    [
                        {
                            "pitch": 43, 
                            "t0": 180070, 
                            "v": 100, 
                            "dur": 250, 
                            "type": "note", 
                            "channel": 9
                        }
                    ]
                ], 
                [
                    182020, 
                    [
                        {
                            "pitch": 43, 
                            "t0": 182020, 
                            "v": 94, 
                            "dur": 250, 
                            "type": "note", 
                            "channel": 9
                        }
                    ]
                ], 
                [
                    184070, 
                    [
                        {
                            "pitch": 43, 
                            "t0": 184070, 
                            "v": 67, 
                            "dur": 250, 
                            "type": "note", 
                            "channel": 9
                        }
                    ]
                ], 
                [
                    186020, 
                    [
                        {
                            "pitch": 43, 
                            "t0": 186020, 
                            "v": 97, 
                            "dur": 250, 
                            "type": "note", 
                            "channel": 9
                        }
                    ]
                ], 
                [
                    188070, 
                    [
                        {
                            "pitch": 43, 
                            "t0": 188070, 
                            "v": 87, 
                            "dur": 250, 
                            "type": "note", 
                            "channel": 9
                        }
                    ]
                ], 
                [
                    190020, 
                    [
                        {
                            "pitch": 43, 
                            "t0": 190020, 
                            "v": 76, 
                            "dur": 250, 
                            "type": "note", 
                            "channel": 9
                        }
                    ]
                ], 
                [
                    192070, 
                    [
                        {
                            "pitch": 43, 
                            "t0": 192070, 
                            "v": 93, 
                            "dur": 250, 
                            "type": "note", 
                            "channel": 9
                        }
                    ]
                ], 
                [
                    194020, 
                    [
                        {
                            "pitch": 43, 
                            "t0": 194020, 
                            "v": 83, 
                            "dur": 250, 
                            "type": "note", 
                            "channel": 9
                        }
                    ]
                ], 
                [
                    196070, 
                    [
                        {
                            "pitch": 43, 
                            "t0": 196070, 
                            "v": 78, 
                            "dur": 250, 
                            "type": "note", 
                            "channel": 9
                        }
                    ]
                ], 
                [
                    198020, 
                    [
                        {
                            "pitch": 43, 
                            "t0": 198020, 
                            "v": 77, 
                            "dur": 250, 
                            "type": "note", 
                            "channel": 9
                        }
                    ]
                ], 
                [
                    200070, 
                    [
                        {
                            "pitch": 43, 
                            "t0": 200070, 
                            "v": 56, 
                            "dur": 250, 
                            "type": "note", 
                            "channel": 9
                        }
                    ]
                ], 
                [
                    202020, 
                    [
                        {
                            "pitch": 43, 
                            "t0": 202020, 
                            "v": 88, 
                            "dur": 250, 
                            "type": "note", 
                            "channel": 9
                        }
                    ]
                ], 
                [
                    204070, 
                    [
                        {
                            "pitch": 43, 
                            "t0": 204070, 
                            "v": 86, 
                            "dur": 250, 
                            "type": "note", 
                            "channel": 9
                        }
                    ]
                ], 
                [
                    206020, 
                    [
                        {
                            "pitch": 43, 
                            "t0": 206020, 
                            "v": 95, 
                            "dur": 250, 
                            "type": "note", 
                            "channel": 9
                        }
                    ]
                ], 
                [
                    208070, 
                    [
                        {
                            "pitch": 43, 
                            "t0": 208070, 
                            "v": 80, 
                            "dur": 250, 
                            "type": "note", 
                            "channel": 9
                        }
                    ]
                ], 
                [
                    210020, 
                    [
                        {
                            "pitch": 43, 
                            "t0": 210020, 
                            "v": 96, 
                            "dur": 250, 
                            "type": "note", 
                            "channel": 9
                        }
                    ]
                ], 
                [
                    212070, 
                    [
                        {
                            "pitch": 43, 
                            "t0": 212070, 
                            "v": 93, 
                            "dur": 250, 
                            "type": "note", 
                            "channel": 9
                        }
                    ]
                ], 
                [
                    214020, 
                    [
                        {
                            "pitch": 43, 
                            "t0": 214020, 
                            "v": 95, 
                            "dur": 250, 
                            "type": "note", 
                            "channel": 9
                        }
                    ]
                ], 
                [
                    216070, 
                    [
                        {
                            "pitch": 43, 
                            "t0": 216070, 
                            "v": 61, 
                            "dur": 250, 
                            "type": "note", 
                            "channel": 9
                        }
                    ]
                ], 
                [
                    218020, 
                    [
                        {
                            "pitch": 43, 
                            "t0": 218020, 
                            "v": 102, 
                            "dur": 250, 
                            "type": "note", 
                            "channel": 9
                        }
                    ]
                ], 
                [
                    220070, 
                    [
                        {
                            "pitch": 43, 
                            "t0": 220070, 
                            "v": 98, 
                            "dur": 250, 
                            "type": "note", 
                            "channel": 9
                        }
                    ]
                ], 
                [
                    222020, 
                    [
                        {
                            "pitch": 43, 
                            "t0": 222020, 
                            "v": 100, 
                            "dur": 250, 
                            "type": "note", 
                            "channel": 9
                        }
                    ]
                ], 
                [
                    224070, 
                    [
                        {
                            "pitch": 43, 
                            "t0": 224070, 
                            "v": 60, 
                            "dur": 250, 
                            "type": "note", 
                            "channel": 9
                        }
                    ]
                ], 
                [
                    226020, 
                    [
                        {
                            "pitch": 43, 
                            "t0": 226020, 
                            "v": 82, 
                            "dur": 250, 
                            "type": "note", 
                            "channel": 9
                        }
                    ]
                ], 
                [
                    228070, 
                    [
                        {
                            "pitch": 43, 
                            "t0": 228070, 
                            "v": 99, 
                            "dur": 250, 
                            "type": "note", 
                            "channel": 9
                        }
                    ]
                ], 
                [
                    230020, 
                    [
                        {
                            "pitch": 43, 
                            "t0": 230020, 
                            "v": 85, 
                            "dur": 250, 
                            "type": "note", 
                            "channel": 9
                        }
                    ]
                ], 
                [
                    232070, 
                    [
                        {
                            "pitch": 43, 
                            "t0": 232070, 
                            "v": 58, 
                            "dur": 250, 
                            "type": "note", 
                            "channel": 9
                        }
                    ]
                ], 
                [
                    234020, 
                    [
                        {
                            "pitch": 43, 
                            "t0": 234020, 
                            "v": 69, 
                            "dur": 250, 
                            "type": "note", 
                            "channel": 9
                        }
                    ]
                ], 
                [
                    236070, 
                    [
                        {
                            "pitch": 43, 
                            "t0": 236070, 
                            "v": 67, 
                            "dur": 250, 
                            "type": "note", 
                            "channel": 9
                        }
                    ]
                ], 
                [
                    238020, 
                    [
                        {
                            "pitch": 43, 
                            "t0": 238020, 
                            "v": 100, 
                            "dur": 250, 
                            "type": "note", 
                            "channel": 9
                        }
                    ]
                ], 
                [
                    240070, 
                    [
                        {
                            "pitch": 43, 
                            "t0": 240070, 
                            "v": 90, 
                            "dur": 250, 
                            "type": "note", 
                            "channel": 9
                        }
                    ]
                ], 
                [
                    242020, 
                    [
                        {
                            "pitch": 43, 
                            "t0": 242020, 
                            "v": 103, 
                            "dur": 250, 
                            "type": "note", 
                            "channel": 9
                        }
                    ]
                ], 
                [
                    244070, 
                    [
                        {
                            "pitch": 43, 
                            "t0": 244070, 
                            "v": 102, 
                            "dur": 250, 
                            "type": "note", 
                            "channel": 9
                        }
                    ]
                ], 
                [
                    246020, 
                    [
                        {
                            "pitch": 43, 
                            "t0": 246020, 
                            "v": 69, 
                            "dur": 250, 
                            "type": "note", 
                            "channel": 9
                        }
                    ]
                ], 
                [
                    248070, 
                    [
                        {
                            "pitch": 43, 
                            "t0": 248070, 
                            "v": 90, 
                            "dur": 250, 
                            "type": "note", 
                            "channel": 9
                        }
                    ]
                ], 
                [
                    250020, 
                    [
                        {
                            "pitch": 43, 
                            "t0": 250020, 
                            "v": 87, 
                            "dur": 250, 
                            "type": "note", 
                            "channel": 9
                        }
                    ]
                ], 
                [
                    252070, 
                    [
                        {
                            "pitch": 43, 
                            "t0": 252070, 
                            "v": 57, 
                            "dur": 250, 
                            "type": "note", 
                            "channel": 9
                        }
                    ]
                ], 
                [
                    254020, 
                    [
                        {
                            "pitch": 43, 
                            "t0": 254020, 
                            "v": 79, 
                            "dur": 250, 
                            "type": "note", 
                            "channel": 9
                        }
                    ]
                ], 
                [
                    256070, 
                    [
                        {
                            "pitch": 43, 
                            "t0": 256070, 
                            "v": 100, 
                            "dur": 250, 
                            "type": "note", 
                            "channel": 9
                        }
                    ]
                ], 
                [
                    258020, 
                    [
                        {
                            "pitch": 43, 
                            "t0": 258020, 
                            "v": 69, 
                            "dur": 250, 
                            "type": "note", 
                            "channel": 9
                        }
                    ]
                ], 
                [
                    260070, 
                    [
                        {
                            "pitch": 43, 
                            "t0": 260070, 
                            "v": 86, 
                            "dur": 250, 
                            "type": "note", 
                            "channel": 9
                        }
                    ]
                ], 
                [
                    262020, 
                    [
                        {
                            "pitch": 43, 
                            "t0": 262020, 
                            "v": 74, 
                            "dur": 250, 
                            "type": "note", 
                            "channel": 9
                        }
                    ]
                ], 
                [
                    264070, 
                    [
                        {
                            "pitch": 43, 
                            "t0": 264070, 
                            "v": 71, 
                            "dur": 250, 
                            "type": "note", 
                            "channel": 9
                        }
                    ]
                ], 
                [
                    266020, 
                    [
                        {
                            "pitch": 43, 
                            "t0": 266020, 
                            "v": 101, 
                            "dur": 250, 
                            "type": "note", 
                            "channel": 9
                        }
                    ]
                ], 
                [
                    268070, 
                    [
                        {
                            "pitch": 43, 
                            "t0": 268070, 
                            "v": 97, 
                            "dur": 250, 
                            "type": "note", 
                            "channel": 9
                        }
                    ]
                ], 
                [
                    270020, 
                    [
                        {
                            "pitch": 43, 
                            "t0": 270020, 
                            "v": 80, 
                            "dur": 250, 
                            "type": "note", 
                            "channel": 9
                        }
                    ]
                ], 
                [
                    272070, 
                    [
                        {
                            "pitch": 43, 
                            "t0": 272070, 
                            "v": 78, 
                            "dur": 250, 
                            "type": "note", 
                            "channel": 9
                        }
                    ]
                ], 
                [
                    274020, 
                    [
                        {
                            "pitch": 43, 
                            "t0": 274020, 
                            "v": 87, 
                            "dur": 250, 
                            "type": "note", 
                            "channel": 9
                        }
                    ]
                ], 
                [
                    276070, 
                    [
                        {
                            "pitch": 43, 
                            "t0": 276070, 
                            "v": 82, 
                            "dur": 250, 
                            "type": "note", 
                            "channel": 9
                        }
                    ]
                ], 
                [
                    278020, 
                    [
                        {
                            "pitch": 43, 
                            "t0": 278020, 
                            "v": 65, 
                            "dur": 250, 
                            "type": "note", 
                            "channel": 9
                        }
                    ]
                ], 
                [
                    280070, 
                    [
                        {
                            "pitch": 43, 
                            "t0": 280070, 
                            "v": 63, 
                            "dur": 250, 
                            "type": "note", 
                            "channel": 9
                        }
                    ]
                ], 
                [
                    282020, 
                    [
                        {
                            "pitch": 43, 
                            "t0": 282020, 
                            "v": 92, 
                            "dur": 250, 
                            "type": "note", 
                            "channel": 9
                        }
                    ]
                ], 
                [
                    284070, 
                    [
                        {
                            "pitch": 43, 
                            "t0": 284070, 
                            "v": 97, 
                            "dur": 250, 
                            "type": "note", 
                            "channel": 9
                        }
                    ]
                ], 
                [
                    286020, 
                    [
                        {
                            "pitch": 43, 
                            "t0": 286020, 
                            "v": 74, 
                            "dur": 250, 
                            "type": "note", 
                            "channel": 9
                        }
                    ]
                ], 
                [
                    288070, 
                    [
                        {
                            "pitch": 43, 
                            "t0": 288070, 
                            "v": 80, 
                            "dur": 250, 
                            "type": "note", 
                            "channel": 9
                        }
                    ]
                ], 
                [
                    290020, 
                    [
                        {
                            "pitch": 43, 
                            "t0": 290020, 
                            "v": 80, 
                            "dur": 250, 
                            "type": "note", 
                            "channel": 9
                        }
                    ]
                ], 
                [
                    292070, 
                    [
                        {
                            "pitch": 43, 
                            "t0": 292070, 
                            "v": 72, 
                            "dur": 250, 
                            "type": "note", 
                            "channel": 9
                        }
                    ]
                ], 
                [
                    294020, 
                    [
                        {
                            "pitch": 43, 
                            "t0": 294020, 
                            "v": 63, 
                            "dur": 250, 
                            "type": "note", 
                            "channel": 9
                        }
                    ]
                ], 
                [
                    296070, 
                    [
                        {
                            "pitch": 43, 
                            "t0": 296070, 
                            "v": 58, 
                            "dur": 250, 
                            "type": "note", 
                            "channel": 9
                        }
                    ]
                ], 
                [
                    298020, 
                    [
                        {
                            "pitch": 43, 
                            "t0": 298020, 
                            "v": 104, 
                            "dur": 250, 
                            "type": "note", 
                            "channel": 9
                        }
                    ]
                ], 
                [
                    300070, 
                    [
                        {
                            "pitch": 43, 
                            "t0": 300070, 
                            "v": 56, 
                            "dur": 250, 
                            "type": "note", 
                            "channel": 9
                        }
                    ]
                ], 
                [
                    302020, 
                    [
                        {
                            "pitch": 43, 
                            "t0": 302020, 
                            "v": 91, 
                            "dur": 250, 
                            "type": "note", 
                            "channel": 9
                        }
                    ]
                ], 
                [
                    304070, 
                    [
                        {
                            "pitch": 43, 
                            "t0": 304070, 
                            "v": 71, 
                            "dur": 250, 
                            "type": "note", 
                            "channel": 9
                        }
                    ]
                ], 
                [
                    306020, 
                    [
                        {
                            "pitch": 43, 
                            "t0": 306020, 
                            "v": 94, 
                            "dur": 250, 
                            "type": "note", 
                            "channel": 9
                        }
                    ]
                ], 
                [
                    308070, 
                    [
                        {
                            "pitch": 43, 
                            "t0": 308070, 
                            "v": 67, 
                            "dur": 250, 
                            "type": "note", 
                            "channel": 9
                        }
                    ]
                ], 
                [
                    310020, 
                    [
                        {
                            "pitch": 43, 
                            "t0": 310020, 
                            "v": 76, 
                            "dur": 250, 
                            "type": "note", 
                            "channel": 9
                        }
                    ]
                ], 
                [
                    312070, 
                    [
                        {
                            "pitch": 43, 
                            "t0": 312070, 
                            "v": 75, 
                            "dur": 250, 
                            "type": "note", 
                            "channel": 9
                        }
                    ]
                ], 
                [
                    314020, 
                    [
                        {
                            "pitch": 43, 
                            "t0": 314020, 
                            "v": 80, 
                            "dur": 250, 
                            "type": "note", 
                            "channel": 9
                        }
                    ]
                ], 
                [
                    316070, 
                    [
                        {
                            "pitch": 43, 
                            "t0": 316070, 
                            "v": 100, 
                            "dur": 250, 
                            "type": "note", 
                            "channel": 9
                        }
                    ]
                ], 
                [
                    318020, 
                    [
                        {
                            "pitch": 43, 
                            "t0": 318020, 
                            "v": 85, 
                            "dur": 250, 
                            "type": "note", 
                            "channel": 9
                        }
                    ]
                ], 
                [
                    320070, 
                    [
                        {
                            "pitch": 43, 
                            "t0": 320070, 
                            "v": 98, 
                            "dur": 250, 
                            "type": "note", 
                            "channel": 9
                        }
                    ]
                ], 
                [
                    322020, 
                    [
                        {
                            "pitch": 43, 
                            "t0": 322020, 
                            "v": 65, 
                            "dur": 250, 
                            "type": "note", 
                            "channel": 9
                        }
                    ]
                ], 
                [
                    324070, 
                    [
                        {
                            "pitch": 43, 
                            "t0": 324070, 
                            "v": 86, 
                            "dur": 250, 
                            "type": "note", 
                            "channel": 9
                        }
                    ]
                ], 
                [
                    326020, 
                    [
                        {
                            "pitch": 43, 
                            "t0": 326020, 
                            "v": 64, 
                            "dur": 250, 
                            "type": "note", 
                            "channel": 9
                        }
                    ]
                ], 
                [
                    328070, 
                    [
                        {
                            "pitch": 43, 
                            "t0": 328070, 
                            "v": 67, 
                            "dur": 250, 
                            "type": "note", 
                            "channel": 9
                        }
                    ]
                ], 
                [
                    330020, 
                    [
                        {
                            "pitch": 43, 
                            "t0": 330020, 
                            "v": 99, 
                            "dur": 250, 
                            "type": "note", 
                            "channel": 9
                        }
                    ]
                ], 
                [
                    332070, 
                    [
                        {
                            "pitch": 43, 
                            "t0": 332070, 
                            "v": 104, 
                            "dur": 250, 
                            "type": "note", 
                            "channel": 9
                        }
                    ]
                ], 
                [
                    334020, 
                    [
                        {
                            "pitch": 43, 
                            "t0": 334020, 
                            "v": 62, 
                            "dur": 250, 
                            "type": "note", 
                            "channel": 9
                        }
                    ]
                ], 
                [
                    336070, 
                    [
                        {
                            "pitch": 43, 
                            "t0": 336070, 
                            "v": 69, 
                            "dur": 250, 
                            "type": "note", 
                            "channel": 9
                        }
                    ]
                ], 
                [
                    338020, 
                    [
                        {
                            "pitch": 43, 
                            "t0": 338020, 
                            "v": 92, 
                            "dur": 250, 
                            "type": "note", 
                            "channel": 9
                        }
                    ]
                ], 
                [
                    340070, 
                    [
                        {
                            "pitch": 43, 
                            "t0": 340070, 
                            "v": 59, 
                            "dur": 250, 
                            "type": "note", 
                            "channel": 9
                        }
                    ]
                ], 
                [
                    342020, 
                    [
                        {
                            "pitch": 43, 
                            "t0": 342020, 
                            "v": 89, 
                            "dur": 250, 
                            "type": "note", 
                            "channel": 9
                        }
                    ]
                ], 
                [
                    344070, 
                    [
                        {
                            "pitch": 43, 
                            "t0": 344070, 
                            "v": 99, 
                            "dur": 250, 
                            "type": "note", 
                            "channel": 9
                        }
                    ]
                ], 
                [
                    346020, 
                    [
                        {
                            "pitch": 43, 
                            "t0": 346020, 
                            "v": 58, 
                            "dur": 250, 
                            "type": "note", 
                            "channel": 9
                        }
                    ]
                ], 
                [
                    348070, 
                    [
                        {
                            "pitch": 43, 
                            "t0": 348070, 
                            "v": 62, 
                            "dur": 250, 
                            "type": "note", 
                            "channel": 9
                        }
                    ]
                ], 
                [
                    350020, 
                    [
                        {
                            "pitch": 43, 
                            "t0": 350020, 
                            "v": 86, 
                            "dur": 250, 
                            "type": "note", 
                            "channel": 9
                        }
                    ]
                ], 
                [
                    352070, 
                    [
                        {
                            "pitch": 43, 
                            "t0": 352070, 
                            "v": 73, 
                            "dur": 250, 
                            "type": "note", 
                            "channel": 9
                        }
                    ]
                ], 
                [
                    354020, 
                    [
                        {
                            "pitch": 43, 
                            "t0": 354020, 
                            "v": 74, 
                            "dur": 250, 
                            "type": "note", 
                            "channel": 9
                        }
                    ]
                ], 
                [
                    356070, 
                    [
                        {
                            "pitch": 43, 
                            "t0": 356070, 
                            "v": 73, 
                            "dur": 250, 
                            "type": "note", 
                            "channel": 9
                        }
                    ]
                ], 
                [
                    358020, 
                    [
                        {
                            "pitch": 43, 
                            "t0": 358020, 
                            "v": 101, 
                            "dur": 250, 
                            "type": "note", 
                            "channel": 9
                        }
                    ]
                ], 
                [
                    360070, 
                    [
                        {
                            "pitch": 43, 
                            "t0": 360070, 
                            "v": 87, 
                            "dur": 250, 
                            "type": "note", 
                            "channel": 9
                        }
                    ]
                ], 
                [
                    362020, 
                    [
                        {
                            "pitch": 43, 
                            "t0": 362020, 
                            "v": 68, 
                            "dur": 250, 
                            "type": "note", 
                            "channel": 9
                        }
                    ]
                ], 
                [
                    364070, 
                    [
                        {
                            "pitch": 43, 
                            "t0": 364070, 
                            "v": 81, 
                            "dur": 250, 
                            "type": "note", 
                            "channel": 9
                        }
                    ]
                ], 
                [
                    366020, 
                    [
                        {
                            "pitch": 43, 
                            "t0": 366020, 
                            "v": 65, 
                            "dur": 250, 
                            "type": "note", 
                            "channel": 9
                        }
                    ]
                ], 
                [
                    368070, 
                    [
                        {
                            "pitch": 43, 
                            "t0": 368070, 
                            "v": 66, 
                            "dur": 250, 
                            "type": "note", 
                            "channel": 9
                        }
                    ]
                ], 
                [
                    370020, 
                    [
                        {
                            "pitch": 43, 
                            "t0": 370020, 
                            "v": 78, 
                            "dur": 250, 
                            "type": "note", 
                            "channel": 9
                        }
                    ]
                ], 
                [
                    372070, 
                    [
                        {
                            "pitch": 43, 
                            "t0": 372070, 
                            "v": 101, 
                            "dur": 250, 
                            "type": "note", 
                            "channel": 9
                        }
                    ]
                ], 
                [
                    374020, 
                    [
                        {
                            "pitch": 43, 
                            "t0": 374020, 
                            "v": 102, 
                            "dur": 250, 
                            "type": "note", 
                            "channel": 9
                        }
                    ]
                ], 
                [
                    376070, 
                    [
                        {
                            "pitch": 43, 
                            "t0": 376070, 
                            "v": 69, 
                            "dur": 250, 
                            "type": "note", 
                            "channel": 9
                        }
                    ]
                ], 
                [
                    378020, 
                    [
                        {
                            "pitch": 43, 
                            "t0": 378020, 
                            "v": 77, 
                            "dur": 250, 
                            "type": "note", 
                            "channel": 9
                        }
                    ]
                ], 
                [
                    380070, 
                    [
                        {
                            "pitch": 43, 
                            "t0": 380070, 
                            "v": 103, 
                            "dur": 250, 
                            "type": "note", 
                            "channel": 9
                        }
                    ]
                ], 
                [
                    382020, 
                    [
                        {
                            "pitch": 43, 
                            "t0": 382020, 
                            "v": 81, 
                            "dur": 250, 
                            "type": "note", 
                            "channel": 9
                        }
                    ]
                ], 
                [
                    384070, 
                    [
                        {
                            "pitch": 43, 
                            "t0": 384070, 
                            "v": 62, 
                            "dur": 250, 
                            "type": "note", 
                            "channel": 9
                        }
                    ]
                ], 
                [
                    386020, 
                    [
                        {
                            "pitch": 43, 
                            "t0": 386020, 
                            "v": 71, 
                            "dur": 250, 
                            "type": "note", 
                            "channel": 9
                        }
                    ]
                ], 
                [
                    388070, 
                    [
                        {
                            "pitch": 43, 
                            "t0": 388070, 
                            "v": 86, 
                            "dur": 250, 
                            "type": "note", 
                            "channel": 9
                        }
                    ]
                ], 
                [
                    390020, 
                    [
                        {
                            "pitch": 43, 
                            "t0": 390020, 
                            "v": 72, 
                            "dur": 250, 
                            "type": "note", 
                            "channel": 9
                        }
                    ]
                ], 
                [
                    392070, 
                    [
                        {
                            "pitch": 43, 
                            "t0": 392070, 
                            "v": 98, 
                            "dur": 250, 
                            "type": "note", 
                            "channel": 9
                        }
                    ]
                ], 
                [
                    394020, 
                    [
                        {
                            "pitch": 43, 
                            "t0": 394020, 
                            "v": 59, 
                            "dur": 250, 
                            "type": "note", 
                            "channel": 9
                        }
                    ]
                ], 
                [
                    396070, 
                    [
                        {
                            "pitch": 43, 
                            "t0": 396070, 
                            "v": 56, 
                            "dur": 250, 
                            "type": "note", 
                            "channel": 9
                        }
                    ]
                ], 
                [
                    398020, 
                    [
                        {
                            "pitch": 43, 
                            "t0": 398020, 
                            "v": 78, 
                            "dur": 250, 
                            "type": "note", 
                            "channel": 9
                        }
                    ]
                ], 
                [
                    400070, 
                    [
                        {
                            "pitch": 43, 
                            "t0": 400070, 
                            "v": 73, 
                            "dur": 250, 
                            "type": "note", 
                            "channel": 9
                        }
                    ]
                ], 
                [
                    402020, 
                    [
                        {
                            "pitch": 43, 
                            "t0": 402020, 
                            "v": 79, 
                            "dur": 250, 
                            "type": "note", 
                            "channel": 9
                        }
                    ]
                ], 
                [
                    404070, 
                    [
                        {
                            "pitch": 43, 
                            "t0": 404070, 
                            "v": 92, 
                            "dur": 250, 
                            "type": "note", 
                            "channel": 9
                        }
                    ]
                ], 
                [
                    406020, 
                    [
                        {
                            "pitch": 43, 
                            "t0": 406020, 
                            "v": 93, 
                            "dur": 250, 
                            "type": "note", 
                            "channel": 9
                        }
                    ]
                ], 
                [
                    408070, 
                    [
                        {
                            "pitch": 43, 
                            "t0": 408070, 
                            "v": 89, 
                            "dur": 250, 
                            "type": "note", 
                            "channel": 9
                        }
                    ]
                ], 
                [
                    410020, 
                    [
                        {
                            "pitch": 43, 
                            "t0": 410020, 
                            "v": 78, 
                            "dur": 250, 
                            "type": "note", 
                            "channel": 9
                        }
                    ]
                ], 
                [
                    412070, 
                    [
                        {
                            "pitch": 43, 
                            "t0": 412070, 
                            "v": 85, 
                            "dur": 250, 
                            "type": "note", 
                            "channel": 9
                        }
                    ]
                ], 
                [
                    414020, 
                    [
                        {
                            "pitch": 43, 
                            "t0": 414020, 
                            "v": 70, 
                            "dur": 250, 
                            "type": "note", 
                            "channel": 9
                        }
                    ]
                ], 
                [
                    416070, 
                    [
                        {
                            "pitch": 43, 
                            "t0": 416070, 
                            "v": 80, 
                            "dur": 250, 
                            "type": "note", 
                            "channel": 9
                        }
                    ]
                ], 
                [
                    418020, 
                    [
                        {
                            "pitch": 43, 
                            "t0": 418020, 
                            "v": 86, 
                            "dur": 250, 
                            "type": "note", 
                            "channel": 9
                        }
                    ]
                ], 
                [
                    420070, 
                    [
                        {
                            "pitch": 43, 
                            "t0": 420070, 
                            "v": 96, 
                            "dur": 250, 
                            "type": "note", 
                            "channel": 9
                        }
                    ]
                ], 
                [
                    422020, 
                    [
                        {
                            "pitch": 43, 
                            "t0": 422020, 
                            "v": 78, 
                            "dur": 250, 
                            "type": "note", 
                            "channel": 9
                        }
                    ]
                ], 
                [
                    424070, 
                    [
                        {
                            "pitch": 43, 
                            "t0": 424070, 
                            "v": 58, 
                            "dur": 250, 
                            "type": "note", 
                            "channel": 9
                        }
                    ]
                ], 
                [
                    426020, 
                    [
                        {
                            "pitch": 43, 
                            "t0": 426020, 
                            "v": 75, 
                            "dur": 250, 
                            "type": "note", 
                            "channel": 9
                        }
                    ]
                ], 
                [
                    428070, 
                    [
                        {
                            "pitch": 43, 
                            "t0": 428070, 
                            "v": 86, 
                            "dur": 250, 
                            "type": "note", 
                            "channel": 9
                        }
                    ]
                ], 
                [
                    430020, 
                    [
                        {
                            "pitch": 43, 
                            "t0": 430020, 
                            "v": 97, 
                            "dur": 250, 
                            "type": "note", 
                            "channel": 9
                        }
                    ]
                ], 
                [
                    432070, 
                    [
                        {
                            "pitch": 43, 
                            "t0": 432070, 
                            "v": 95, 
                            "dur": 250, 
                            "type": "note", 
                            "channel": 9
                        }
                    ]
                ], 
                [
                    434020, 
                    [
                        {
                            "pitch": 43, 
                            "t0": 434020, 
                            "v": 63, 
                            "dur": 250, 
                            "type": "note", 
                            "channel": 9
                        }
                    ]
                ], 
                [
                    436070, 
                    [
                        {
                            "pitch": 43, 
                            "t0": 436070, 
                            "v": 58, 
                            "dur": 250, 
                            "type": "note", 
                            "channel": 9
                        }
                    ]
                ], 
                [
                    438020, 
                    [
                        {
                            "pitch": 43, 
                            "t0": 438020, 
                            "v": 87, 
                            "dur": 250, 
                            "type": "note", 
                            "channel": 9
                        }
                    ]
                ], 
                [
                    440070, 
                    [
                        {
                            "pitch": 43, 
                            "t0": 440070, 
                            "v": 83, 
                            "dur": 250, 
                            "type": "note", 
                            "channel": 9
                        }
                    ]
                ], 
                [
                    442020, 
                    [
                        {
                            "pitch": 43, 
                            "t0": 442020, 
                            "v": 87, 
                            "dur": 250, 
                            "type": "note", 
                            "channel": 9
                        }
                    ]
                ], 
                [
                    444070, 
                    [
                        {
                            "pitch": 43, 
                            "t0": 444070, 
                            "v": 59, 
                            "dur": 250, 
                            "type": "note", 
                            "channel": 9
                        }
                    ]
                ], 
                [
                    446020, 
                    [
                        {
                            "pitch": 43, 
                            "t0": 446020, 
                            "v": 80, 
                            "dur": 250, 
                            "type": "note", 
                            "channel": 9
                        }
                    ]
                ], 
                [
                    448070, 
                    [
                        {
                            "pitch": 43, 
                            "t0": 448070, 
                            "v": 85, 
                            "dur": 250, 
                            "type": "note", 
                            "channel": 9
                        }
                    ]
                ], 
                [
                    450020, 
                    [
                        {
                            "pitch": 43, 
                            "t0": 450020, 
                            "v": 89, 
                            "dur": 250, 
                            "type": "note", 
                            "channel": 9
                        }
                    ]
                ], 
                [
                    452070, 
                    [
                        {
                            "pitch": 43, 
                            "t0": 452070, 
                            "v": 77, 
                            "dur": 250, 
                            "type": "note", 
                            "channel": 9
                        }
                    ]
                ], 
                [
                    454020, 
                    [
                        {
                            "pitch": 43, 
                            "t0": 454020, 
                            "v": 101, 
                            "dur": 250, 
                            "type": "note", 
                            "channel": 9
                        }
                    ]
                ], 
                [
                    456070, 
                    [
                        {
                            "pitch": 43, 
                            "t0": 456070, 
                            "v": 96, 
                            "dur": 250, 
                            "type": "note", 
                            "channel": 9
                        }
                    ]
                ], 
                [
                    458020, 
                    [
                        {
                            "pitch": 43, 
                            "t0": 458020, 
                            "v": 75, 
                            "dur": 250, 
                            "type": "note", 
                            "channel": 9
                        }
                    ]
                ], 
                [
                    460070, 
                    [
                        {
                            "pitch": 43, 
                            "t0": 460070, 
                            "v": 75, 
                            "dur": 250, 
                            "type": "note", 
                            "channel": 9
                        }
                    ]
                ], 
                [
                    462020, 
                    [
                        {
                            "pitch": 43, 
                            "t0": 462020, 
                            "v": 95, 
                            "dur": 250, 
                            "type": "note", 
                            "channel": 9
                        }
                    ]
                ], 
                [
                    464070, 
                    [
                        {
                            "pitch": 43, 
                            "t0": 464070, 
                            "v": 83, 
                            "dur": 250, 
                            "type": "note", 
                            "channel": 9
                        }
                    ]
                ], 
                [
                    466020, 
                    [
                        {
                            "pitch": 43, 
                            "t0": 466020, 
                            "v": 74, 
                            "dur": 250, 
                            "type": "note", 
                            "channel": 9
                        }
                    ]
                ], 
                [
                    468070, 
                    [
                        {
                            "pitch": 43, 
                            "t0": 468070, 
                            "v": 71, 
                            "dur": 250, 
                            "type": "note", 
                            "channel": 9
                        }
                    ]
                ], 
                [
                    470020, 
                    [
                        {
                            "pitch": 43, 
                            "t0": 470020, 
                            "v": 89, 
                            "dur": 250, 
                            "type": "note", 
                            "channel": 9
                        }
                    ]
                ], 
                [
                    472070, 
                    [
                        {
                            "pitch": 43, 
                            "t0": 472070, 
                            "v": 80, 
                            "dur": 250, 
                            "type": "note", 
                            "channel": 9
                        }
                    ]
                ], 
                [
                    474020, 
                    [
                        {
                            "pitch": 43, 
                            "t0": 474020, 
                            "v": 56, 
                            "dur": 250, 
                            "type": "note", 
                            "channel": 9
                        }
                    ]
                ], 
                [
                    476070, 
                    [
                        {
                            "pitch": 43, 
                            "t0": 476070, 
                            "v": 97, 
                            "dur": 250, 
                            "type": "note", 
                            "channel": 9
                        }
                    ]
                ], 
                [
                    478020, 
                    [
                        {
                            "pitch": 43, 
                            "t0": 478020, 
                            "v": 83, 
                            "dur": 250, 
                            "type": "note", 
                            "channel": 9
                        }
                    ]
                ], 
                [
                    480070, 
                    [
                        {
                            "pitch": 43, 
                            "t0": 480070, 
                            "v": 104, 
                            "dur": 250, 
                            "type": "note", 
                            "channel": 9
                        }
                    ]
                ], 
                [
                    482020, 
                    [
                        {
                            "pitch": 43, 
                            "t0": 482020, 
                            "v": 88, 
                            "dur": 250, 
                            "type": "note", 
                            "channel": 9
                        }
                    ]
                ], 
                [
                    484070, 
                    [
                        {
                            "pitch": 43, 
                            "t0": 484070, 
                            "v": 80, 
                            "dur": 250, 
                            "type": "note", 
                            "channel": 9
                        }
                    ]
                ], 
                [
                    486020, 
                    [
                        {
                            "pitch": 43, 
                            "t0": 486020, 
                            "v": 99, 
                            "dur": 250, 
                            "type": "note", 
                            "channel": 9
                        }
                    ]
                ], 
                [
                    488070, 
                    [
                        {
                            "pitch": 43, 
                            "t0": 488070, 
                            "v": 65, 
                            "dur": 250, 
                            "type": "note", 
                            "channel": 9
                        }
                    ]
                ], 
                [
                    490020, 
                    [
                        {
                            "pitch": 43, 
                            "t0": 490020, 
                            "v": 63, 
                            "dur": 250, 
                            "type": "note", 
                            "channel": 9
                        }
                    ]
                ], 
                [
                    492070, 
                    [
                        {
                            "pitch": 43, 
                            "t0": 492070, 
                            "v": 57, 
                            "dur": 250, 
                            "type": "note", 
                            "channel": 9
                        }
                    ]
                ], 
                [
                    494020, 
                    [
                        {
                            "pitch": 43, 
                            "t0": 494020, 
                            "v": 102, 
                            "dur": 250, 
                            "type": "note", 
                            "channel": 9
                        }
                    ]
                ], 
                [
                    496070, 
                    [
                        {
                            "pitch": 43, 
                            "t0": 496070, 
                            "v": 93, 
                            "dur": 250, 
                            "type": "note", 
                            "channel": 9
                        }
                    ]
                ], 
                [
                    498020, 
                    [
                        {
                            "pitch": 43, 
                            "t0": 498020, 
                            "v": 86, 
                            "dur": 250, 
                            "type": "note", 
                            "channel": 9
                        }
                    ]
                ], 
                [
                    500070, 
                    [
                        {
                            "pitch": 43, 
                            "t0": 500070, 
                            "v": 95, 
                            "dur": 250, 
                            "type": "note", 
                            "channel": 9
                        }
                    ]
                ], 
                [
                    502020, 
                    [
                        {
                            "pitch": 43, 
                            "t0": 502020, 
                            "v": 80, 
                            "dur": 250, 
                            "type": "note", 
                            "channel": 9
                        }
                    ]
                ], 
                [
                    504070, 
                    [
                        {
                            "pitch": 43, 
                            "t0": 504070, 
                            "v": 78, 
                            "dur": 250, 
                            "type": "note", 
                            "channel": 9
                        }
                    ]
                ], 
                [
                    506020, 
                    [
                        {
                            "pitch": 43, 
                            "t0": 506020, 
                            "v": 104, 
                            "dur": 250, 
                            "type": "note", 
                            "channel": 9
                        }
                    ]
                ], 
                [
                    508070, 
                    [
                        {
                            "pitch": 43, 
                            "t0": 508070, 
                            "v": 104, 
                            "dur": 250, 
                            "type": "note", 
                            "channel": 9
                        }
                    ]
                ], 
                [
                    510020, 
                    [
                        {
                            "pitch": 43, 
                            "t0": 510020, 
                            "v": 56, 
                            "dur": 250, 
                            "type": "note", 
                            "channel": 9
                        }
                    ]
                ], 
                [
                    512070, 
                    [
                        {
                            "pitch": 43, 
                            "t0": 512070, 
                            "v": 80, 
                            "dur": 250, 
                            "type": "note", 
                            "channel": 9
                        }
                    ]
                ], 
                [
                    514020, 
                    [
                        {
                            "pitch": 43, 
                            "t0": 514020, 
                            "v": 85, 
                            "dur": 250, 
                            "type": "note", 
                            "channel": 9
                        }
                    ]
                ], 
                [
                    516070, 
                    [
                        {
                            "pitch": 43, 
                            "t0": 516070, 
                            "v": 65, 
                            "dur": 250, 
                            "type": "note", 
                            "channel": 9
                        }
                    ]
                ], 
                [
                    518020, 
                    [
                        {
                            "pitch": 43, 
                            "t0": 518020, 
                            "v": 94, 
                            "dur": 250, 
                            "type": "note", 
                            "channel": 9
                        }
                    ]
                ], 
                [
                    520070, 
                    [
                        {
                            "pitch": 43, 
                            "t0": 520070, 
                            "v": 102, 
                            "dur": 250, 
                            "type": "note", 
                            "channel": 9
                        }
                    ]
                ], 
                [
                    522020, 
                    [
                        {
                            "pitch": 43, 
                            "t0": 522020, 
                            "v": 87, 
                            "dur": 250, 
                            "type": "note", 
                            "channel": 9
                        }
                    ]
                ], 
                [
                    524070, 
                    [
                        {
                            "pitch": 43, 
                            "t0": 524070, 
                            "v": 57, 
                            "dur": 250, 
                            "type": "note", 
                            "channel": 9
                        }
                    ]
                ], 
                [
                    526020, 
                    [
                        {
                            "pitch": 43, 
                            "t0": 526020, 
                            "v": 95, 
                            "dur": 250, 
                            "type": "note", 
                            "channel": 9
                        }
                    ]
                ], 
                [
                    528070, 
                    [
                        {
                            "pitch": 43, 
                            "t0": 528070, 
                            "v": 64, 
                            "dur": 250, 
                            "type": "note", 
                            "channel": 9
                        }
                    ]
                ], 
                [
                    530020, 
                    [
                        {
                            "pitch": 43, 
                            "t0": 530020, 
                            "v": 61, 
                            "dur": 250, 
                            "type": "note", 
                            "channel": 9
                        }
                    ]
                ], 
                [
                    532070, 
                    [
                        {
                            "pitch": 43, 
                            "t0": 532070, 
                            "v": 85, 
                            "dur": 250, 
                            "type": "note", 
                            "channel": 9
                        }
                    ]
                ], 
                [
                    534020, 
                    [
                        {
                            "pitch": 43, 
                            "t0": 534020, 
                            "v": 60, 
                            "dur": 250, 
                            "type": "note", 
                            "channel": 9
                        }
                    ]
                ], 
                [
                    536070, 
                    [
                        {
                            "pitch": 43, 
                            "t0": 536070, 
                            "v": 93, 
                            "dur": 250, 
                            "type": "note", 
                            "channel": 9
                        }
                    ]
                ], 
                [
                    538020, 
                    [
                        {
                            "pitch": 43, 
                            "t0": 538020, 
                            "v": 82, 
                            "dur": 250, 
                            "type": "note", 
                            "channel": 9
                        }
                    ]
                ], 
                [
                    540070, 
                    [
                        {
                            "pitch": 43, 
                            "t0": 540070, 
                            "v": 74, 
                            "dur": 250, 
                            "type": "note", 
                            "channel": 9
                        }
                    ]
                ], 
                [
                    542020, 
                    [
                        {
                            "pitch": 43, 
                            "t0": 542020, 
                            "v": 80, 
                            "dur": 250, 
                            "type": "note", 
                            "channel": 9
                        }
                    ]
                ]
            ], 
            "instruments": [
                32
            ], 
            "tMax": 542020, 
            "channels": [
                9
            ], 
            "instrument": 32, 
            "numNotes": 272, 
            "type": "TrackObj"
        }, 
        {
            "trackName": "Instrument Track", 
            "seq": [
                [
                    0, 
                    [
                        {
                            "instrument": 32, 
                            "type": "programChange", 
                            "t0": 0, 
                            "channel": 9
                        }
                    ]
                ], 
                [
                    1000, 
                    [
                        {
                            "pitch": 83, 
                            "t0": 1000, 
                            "v": 57, 
                            "dur": 250, 
                            "type": "note", 
                            "channel": 9
                        }
                    ]
                ], 
                [
                    1500, 
                    [
                        {
                            "pitch": 83, 
                            "t0": 1500, 
                            "v": 61, 
                            "dur": 250, 
                            "type": "note", 
                            "channel": 9
                        }
                    ]
                ], 
                [
                    5000, 
                    [
                        {
                            "pitch": 83, 
                            "t0": 5000, 
                            "v": 57, 
                            "dur": 250, 
                            "type": "note", 
                            "channel": 9
                        }
                    ]
                ], 
                [
                    9000, 
                    [
                        {
                            "pitch": 83, 
                            "t0": 9000, 
                            "v": 57, 
                            "dur": 250, 
                            "type": "note", 
                            "channel": 9
                        }
                    ]
                ], 
                [
                    10000, 
                    [
                        {
                            "pitch": 83, 
                            "t0": 10000, 
                            "v": 62, 
                            "dur": 250, 
                            "type": "note", 
                            "channel": 9
                        }
                    ]
                ], 
                [
                    13000, 
                    [
                        {
                            "pitch": 83, 
                            "t0": 13000, 
                            "v": 57, 
                            "dur": 250, 
                            "type": "note", 
                            "channel": 9
                        }
                    ]
                ], 
                [
                    17000, 
                    [
                        {
                            "pitch": 83, 
                            "t0": 17000, 
                            "v": 57, 
                            "dur": 250, 
                            "type": "note", 
                            "channel": 9
                        }
                    ]
                ], 
                [
                    17500, 
                    [
                        {
                            "pitch": 83, 
                            "t0": 17500, 
                            "v": 57, 
                            "dur": 250, 
                            "type": "note", 
                            "channel": 9
                        }
                    ]
                ], 
                [
                    21000, 
                    [
                        {
                            "pitch": 83, 
                            "t0": 21000, 
                            "v": 57, 
                            "dur": 250, 
                            "type": "note", 
                            "channel": 9
                        }
                    ]
                ], 
                [
                    25000, 
                    [
                        {
                            "pitch": 83, 
                            "t0": 25000, 
                            "v": 57, 
                            "dur": 250, 
                            "type": "note", 
                            "channel": 9
                        }
                    ]
                ], 
                [
                    25500, 
                    [
                        {
                            "pitch": 83, 
                            "t0": 25500, 
                            "v": 57, 
                            "dur": 250, 
                            "type": "note", 
                            "channel": 9
                        }
                    ]
                ], 
                [
                    27000, 
                    [
                        {
                            "pitch": 83, 
                            "t0": 27000, 
                            "v": 57, 
                            "dur": 250, 
                            "type": "note", 
                            "channel": 9
                        }
                    ]
                ], 
                [
                    29000, 
                    [
                        {
                            "pitch": 83, 
                            "t0": 29000, 
                            "v": 57, 
                            "dur": 250, 
                            "type": "note", 
                            "channel": 9
                        }
                    ]
                ], 
                [
                    33000, 
                    [
                        {
                            "pitch": 83, 
                            "t0": 33000, 
                            "v": 57, 
                            "dur": 250, 
                            "type": "note", 
                            "channel": 9
                        }
                    ]
                ], 
                [
                    33500, 
                    [
                        {
                            "pitch": 83, 
                            "t0": 33500, 
                            "v": 61, 
                            "dur": 250, 
                            "type": "note", 
                            "channel": 9
                        }
                    ]
                ], 
                [
                    37000, 
                    [
                        {
                            "pitch": 83, 
                            "t0": 37000, 
                            "v": 57, 
                            "dur": 250, 
                            "type": "note", 
                            "channel": 9
                        }
                    ]
                ], 
                [
                    41000, 
                    [
                        {
                            "pitch": 83, 
                            "t0": 41000, 
                            "v": 57, 
                            "dur": 250, 
                            "type": "note", 
                            "channel": 9
                        }
                    ]
                ], 
                [
                    42000, 
                    [
                        {
                            "pitch": 83, 
                            "t0": 42000, 
                            "v": 62, 
                            "dur": 250, 
                            "type": "note", 
                            "channel": 9
                        }
                    ]
                ], 
                [
                    45000, 
                    [
                        {
                            "pitch": 83, 
                            "t0": 45000, 
                            "v": 57, 
                            "dur": 250, 
                            "type": "note", 
                            "channel": 9
                        }
                    ]
                ], 
                [
                    49000, 
                    [
                        {
                            "pitch": 83, 
                            "t0": 49000, 
                            "v": 57, 
                            "dur": 250, 
                            "type": "note", 
                            "channel": 9
                        }
                    ]
                ], 
                [
                    49500, 
                    [
                        {
                            "pitch": 83, 
                            "t0": 49500, 
                            "v": 57, 
                            "dur": 250, 
                            "type": "note", 
                            "channel": 9
                        }
                    ]
                ], 
                [
                    53000, 
                    [
                        {
                            "pitch": 83, 
                            "t0": 53000, 
                            "v": 57, 
                            "dur": 250, 
                            "type": "note", 
                            "channel": 9
                        }
                    ]
                ], 
                [
                    57000, 
                    [
                        {
                            "pitch": 83, 
                            "t0": 57000, 
                            "v": 57, 
                            "dur": 250, 
                            "type": "note", 
                            "channel": 9
                        }
                    ]
                ], 
                [
                    57500, 
                    [
                        {
                            "pitch": 83, 
                            "t0": 57500, 
                            "v": 57, 
                            "dur": 250, 
                            "type": "note", 
                            "channel": 9
                        }
                    ]
                ], 
                [
                    59000, 
                    [
                        {
                            "pitch": 83, 
                            "t0": 59000, 
                            "v": 57, 
                            "dur": 250, 
                            "type": "note", 
                            "channel": 9
                        }
                    ]
                ], 
                [
                    61000, 
                    [
                        {
                            "pitch": 83, 
                            "t0": 61000, 
                            "v": 57, 
                            "dur": 250, 
                            "type": "note", 
                            "channel": 9
                        }
                    ]
                ], 
                [
                    65000, 
                    [
                        {
                            "pitch": 83, 
                            "t0": 65000, 
                            "v": 57, 
                            "dur": 250, 
                            "type": "note", 
                            "channel": 9
                        }
                    ]
                ], 
                [
                    65500, 
                    [
                        {
                            "pitch": 83, 
                            "t0": 65500, 
                            "v": 61, 
                            "dur": 250, 
                            "type": "note", 
                            "channel": 9
                        }
                    ]
                ], 
                [
                    69000, 
                    [
                        {
                            "pitch": 83, 
                            "t0": 69000, 
                            "v": 57, 
                            "dur": 250, 
                            "type": "note", 
                            "channel": 9
                        }
                    ]
                ], 
                [
                    73000, 
                    [
                        {
                            "pitch": 83, 
                            "t0": 73000, 
                            "v": 57, 
                            "dur": 250, 
                            "type": "note", 
                            "channel": 9
                        }
                    ]
                ], 
                [
                    74000, 
                    [
                        {
                            "pitch": 83, 
                            "t0": 74000, 
                            "v": 62, 
                            "dur": 250, 
                            "type": "note", 
                            "channel": 9
                        }
                    ]
                ], 
                [
                    77000, 
                    [
                        {
                            "pitch": 83, 
                            "t0": 77000, 
                            "v": 57, 
                            "dur": 250, 
                            "type": "note", 
                            "channel": 9
                        }
                    ]
                ], 
                [
                    81000, 
                    [
                        {
                            "pitch": 83, 
                            "t0": 81000, 
                            "v": 57, 
                            "dur": 250, 
                            "type": "note", 
                            "channel": 9
                        }
                    ]
                ], 
                [
                    81500, 
                    [
                        {
                            "pitch": 83, 
                            "t0": 81500, 
                            "v": 57, 
                            "dur": 250, 
                            "type": "note", 
                            "channel": 9
                        }
                    ]
                ], 
                [
                    85000, 
                    [
                        {
                            "pitch": 83, 
                            "t0": 85000, 
                            "v": 57, 
                            "dur": 250, 
                            "type": "note", 
                            "channel": 9
                        }
                    ]
                ], 
                [
                    89000, 
                    [
                        {
                            "pitch": 83, 
                            "t0": 89000, 
                            "v": 57, 
                            "dur": 250, 
                            "type": "note", 
                            "channel": 9
                        }
                    ]
                ], 
                [
                    89500, 
                    [
                        {
                            "pitch": 83, 
                            "t0": 89500, 
                            "v": 57, 
                            "dur": 250, 
                            "type": "note", 
                            "channel": 9
                        }
                    ]
                ], 
                [
                    91000, 
                    [
                        {
                            "pitch": 83, 
                            "t0": 91000, 
                            "v": 57, 
                            "dur": 250, 
                            "type": "note", 
                            "channel": 9
                        }
                    ]
                ], 
                [
                    93000, 
                    [
                        {
                            "pitch": 83, 
                            "t0": 93000, 
                            "v": 57, 
                            "dur": 250, 
                            "type": "note", 
                            "channel": 9
                        }
                    ]
                ], 
                [
                    97000, 
                    [
                        {
                            "pitch": 83, 
                            "t0": 97000, 
                            "v": 57, 
                            "dur": 250, 
                            "type": "note", 
                            "channel": 9
                        }
                    ]
                ], 
                [
                    97500, 
                    [
                        {
                            "pitch": 83, 
                            "t0": 97500, 
                            "v": 61, 
                            "dur": 250, 
                            "type": "note", 
                            "channel": 9
                        }
                    ]
                ], 
                [
                    101000, 
                    [
                        {
                            "pitch": 83, 
                            "t0": 101000, 
                            "v": 57, 
                            "dur": 250, 
                            "type": "note", 
                            "channel": 9
                        }
                    ]
                ], 
                [
                    105000, 
                    [
                        {
                            "pitch": 83, 
                            "t0": 105000, 
                            "v": 57, 
                            "dur": 250, 
                            "type": "note", 
                            "channel": 9
                        }
                    ]
                ], 
                [
                    106000, 
                    [
                        {
                            "pitch": 83, 
                            "t0": 106000, 
                            "v": 62, 
                            "dur": 250, 
                            "type": "note", 
                            "channel": 9
                        }
                    ]
                ], 
                [
                    109000, 
                    [
                        {
                            "pitch": 83, 
                            "t0": 109000, 
                            "v": 57, 
                            "dur": 250, 
                            "type": "note", 
                            "channel": 9
                        }
                    ]
                ], 
                [
                    113000, 
                    [
                        {
                            "pitch": 83, 
                            "t0": 113000, 
                            "v": 57, 
                            "dur": 250, 
                            "type": "note", 
                            "channel": 9
                        }
                    ]
                ], 
                [
                    113500, 
                    [
                        {
                            "pitch": 83, 
                            "t0": 113500, 
                            "v": 57, 
                            "dur": 250, 
                            "type": "note", 
                            "channel": 9
                        }
                    ]
                ], 
                [
                    117000, 
                    [
                        {
                            "pitch": 83, 
                            "t0": 117000, 
                            "v": 57, 
                            "dur": 250, 
                            "type": "note", 
                            "channel": 9
                        }
                    ]
                ], 
                [
                    121000, 
                    [
                        {
                            "pitch": 83, 
                            "t0": 121000, 
                            "v": 57, 
                            "dur": 250, 
                            "type": "note", 
                            "channel": 9
                        }
                    ]
                ], 
                [
                    121500, 
                    [
                        {
                            "pitch": 83, 
                            "t0": 121500, 
                            "v": 57, 
                            "dur": 250, 
                            "type": "note", 
                            "channel": 9
                        }
                    ]
                ], 
                [
                    123000, 
                    [
                        {
                            "pitch": 83, 
                            "t0": 123000, 
                            "v": 57, 
                            "dur": 250, 
                            "type": "note", 
                            "channel": 9
                        }
                    ]
                ], 
                [
                    125000, 
                    [
                        {
                            "pitch": 83, 
                            "t0": 125000, 
                            "v": 57, 
                            "dur": 250, 
                            "type": "note", 
                            "channel": 9
                        }
                    ]
                ], 
                [
                    129000, 
                    [
                        {
                            "pitch": 83, 
                            "t0": 129000, 
                            "v": 57, 
                            "dur": 250, 
                            "type": "note", 
                            "channel": 9
                        }
                    ]
                ], 
                [
                    129500, 
                    [
                        {
                            "pitch": 83, 
                            "t0": 129500, 
                            "v": 61, 
                            "dur": 250, 
                            "type": "note", 
                            "channel": 9
                        }
                    ]
                ], 
                [
                    133000, 
                    [
                        {
                            "pitch": 83, 
                            "t0": 133000, 
                            "v": 57, 
                            "dur": 250, 
                            "type": "note", 
                            "channel": 9
                        }
                    ]
                ], 
                [
                    137000, 
                    [
                        {
                            "pitch": 83, 
                            "t0": 137000, 
                            "v": 57, 
                            "dur": 250, 
                            "type": "note", 
                            "channel": 9
                        }
                    ]
                ], 
                [
                    138000, 
                    [
                        {
                            "pitch": 83, 
                            "t0": 138000, 
                            "v": 62, 
                            "dur": 250, 
                            "type": "note", 
                            "channel": 9
                        }
                    ]
                ], 
                [
                    141000, 
                    [
                        {
                            "pitch": 83, 
                            "t0": 141000, 
                            "v": 57, 
                            "dur": 250, 
                            "type": "note", 
                            "channel": 9
                        }
                    ]
                ], 
                [
                    145000, 
                    [
                        {
                            "pitch": 83, 
                            "t0": 145000, 
                            "v": 57, 
                            "dur": 250, 
                            "type": "note", 
                            "channel": 9
                        }
                    ]
                ], 
                [
                    145500, 
                    [
                        {
                            "pitch": 83, 
                            "t0": 145500, 
                            "v": 57, 
                            "dur": 250, 
                            "type": "note", 
                            "channel": 9
                        }
                    ]
                ], 
                [
                    149000, 
                    [
                        {
                            "pitch": 83, 
                            "t0": 149000, 
                            "v": 57, 
                            "dur": 250, 
                            "type": "note", 
                            "channel": 9
                        }
                    ]
                ], 
                [
                    153000, 
                    [
                        {
                            "pitch": 83, 
                            "t0": 153000, 
                            "v": 57, 
                            "dur": 250, 
                            "type": "note", 
                            "channel": 9
                        }
                    ]
                ], 
                [
                    153500, 
                    [
                        {
                            "pitch": 83, 
                            "t0": 153500, 
                            "v": 57, 
                            "dur": 250, 
                            "type": "note", 
                            "channel": 9
                        }
                    ]
                ], 
                [
                    155000, 
                    [
                        {
                            "pitch": 83, 
                            "t0": 155000, 
                            "v": 57, 
                            "dur": 250, 
                            "type": "note", 
                            "channel": 9
                        }
                    ]
                ], 
                [
                    157000, 
                    [
                        {
                            "pitch": 83, 
                            "t0": 157000, 
                            "v": 57, 
                            "dur": 250, 
                            "type": "note", 
                            "channel": 9
                        }
                    ]
                ], 
                [
                    161000, 
                    [
                        {
                            "pitch": 83, 
                            "t0": 161000, 
                            "v": 57, 
                            "dur": 250, 
                            "type": "note", 
                            "channel": 9
                        }
                    ]
                ], 
                [
                    161500, 
                    [
                        {
                            "pitch": 83, 
                            "t0": 161500, 
                            "v": 61, 
                            "dur": 250, 
                            "type": "note", 
                            "channel": 9
                        }
                    ]
                ], 
                [
                    165000, 
                    [
                        {
                            "pitch": 83, 
                            "t0": 165000, 
                            "v": 57, 
                            "dur": 250, 
                            "type": "note", 
                            "channel": 9
                        }
                    ]
                ], 
                [
                    169000, 
                    [
                        {
                            "pitch": 83, 
                            "t0": 169000, 
                            "v": 57, 
                            "dur": 250, 
                            "type": "note", 
                            "channel": 9
                        }
                    ]
                ], 
                [
                    170000, 
                    [
                        {
                            "pitch": 83, 
                            "t0": 170000, 
                            "v": 62, 
                            "dur": 250, 
                            "type": "note", 
                            "channel": 9
                        }
                    ]
                ], 
                [
                    173000, 
                    [
                        {
                            "pitch": 83, 
                            "t0": 173000, 
                            "v": 57, 
                            "dur": 250, 
                            "type": "note", 
                            "channel": 9
                        }
                    ]
                ], 
                [
                    177000, 
                    [
                        {
                            "pitch": 83, 
                            "t0": 177000, 
                            "v": 57, 
                            "dur": 250, 
                            "type": "note", 
                            "channel": 9
                        }
                    ]
                ], 
                [
                    177500, 
                    [
                        {
                            "pitch": 83, 
                            "t0": 177500, 
                            "v": 57, 
                            "dur": 250, 
                            "type": "note", 
                            "channel": 9
                        }
                    ]
                ], 
                [
                    181000, 
                    [
                        {
                            "pitch": 83, 
                            "t0": 181000, 
                            "v": 57, 
                            "dur": 250, 
                            "type": "note", 
                            "channel": 9
                        }
                    ]
                ], 
                [
                    185000, 
                    [
                        {
                            "pitch": 83, 
                            "t0": 185000, 
                            "v": 57, 
                            "dur": 250, 
                            "type": "note", 
                            "channel": 9
                        }
                    ]
                ], 
                [
                    185500, 
                    [
                        {
                            "pitch": 83, 
                            "t0": 185500, 
                            "v": 57, 
                            "dur": 250, 
                            "type": "note", 
                            "channel": 9
                        }
                    ]
                ], 
                [
                    187000, 
                    [
                        {
                            "pitch": 83, 
                            "t0": 187000, 
                            "v": 57, 
                            "dur": 250, 
                            "type": "note", 
                            "channel": 9
                        }
                    ]
                ], 
                [
                    189000, 
                    [
                        {
                            "pitch": 83, 
                            "t0": 189000, 
                            "v": 57, 
                            "dur": 250, 
                            "type": "note", 
                            "channel": 9
                        }
                    ]
                ], 
                [
                    193000, 
                    [
                        {
                            "pitch": 83, 
                            "t0": 193000, 
                            "v": 57, 
                            "dur": 250, 
                            "type": "note", 
                            "channel": 9
                        }
                    ]
                ], 
                [
                    193500, 
                    [
                        {
                            "pitch": 83, 
                            "t0": 193500, 
                            "v": 61, 
                            "dur": 250, 
                            "type": "note", 
                            "channel": 9
                        }
                    ]
                ], 
                [
                    197000, 
                    [
                        {
                            "pitch": 83, 
                            "t0": 197000, 
                            "v": 57, 
                            "dur": 250, 
                            "type": "note", 
                            "channel": 9
                        }
                    ]
                ], 
                [
                    201000, 
                    [
                        {
                            "pitch": 83, 
                            "t0": 201000, 
                            "v": 57, 
                            "dur": 250, 
                            "type": "note", 
                            "channel": 9
                        }
                    ]
                ], 
                [
                    202000, 
                    [
                        {
                            "pitch": 83, 
                            "t0": 202000, 
                            "v": 62, 
                            "dur": 250, 
                            "type": "note", 
                            "channel": 9
                        }
                    ]
                ], 
                [
                    205000, 
                    [
                        {
                            "pitch": 83, 
                            "t0": 205000, 
                            "v": 57, 
                            "dur": 250, 
                            "type": "note", 
                            "channel": 9
                        }
                    ]
                ], 
                [
                    209000, 
                    [
                        {
                            "pitch": 83, 
                            "t0": 209000, 
                            "v": 57, 
                            "dur": 250, 
                            "type": "note", 
                            "channel": 9
                        }
                    ]
                ], 
                [
                    209500, 
                    [
                        {
                            "pitch": 83, 
                            "t0": 209500, 
                            "v": 57, 
                            "dur": 250, 
                            "type": "note", 
                            "channel": 9
                        }
                    ]
                ], 
                [
                    213000, 
                    [
                        {
                            "pitch": 83, 
                            "t0": 213000, 
                            "v": 57, 
                            "dur": 250, 
                            "type": "note", 
                            "channel": 9
                        }
                    ]
                ], 
                [
                    217000, 
                    [
                        {
                            "pitch": 83, 
                            "t0": 217000, 
                            "v": 57, 
                            "dur": 250, 
                            "type": "note", 
                            "channel": 9
                        }
                    ]
                ], 
                [
                    217500, 
                    [
                        {
                            "pitch": 83, 
                            "t0": 217500, 
                            "v": 57, 
                            "dur": 250, 
                            "type": "note", 
                            "channel": 9
                        }
                    ]
                ], 
                [
                    219000, 
                    [
                        {
                            "pitch": 83, 
                            "t0": 219000, 
                            "v": 57, 
                            "dur": 250, 
                            "type": "note", 
                            "channel": 9
                        }
                    ]
                ], 
                [
                    221000, 
                    [
                        {
                            "pitch": 83, 
                            "t0": 221000, 
                            "v": 57, 
                            "dur": 250, 
                            "type": "note", 
                            "channel": 9
                        }
                    ]
                ], 
                [
                    225000, 
                    [
                        {
                            "pitch": 83, 
                            "t0": 225000, 
                            "v": 57, 
                            "dur": 250, 
                            "type": "note", 
                            "channel": 9
                        }
                    ]
                ], 
                [
                    225500, 
                    [
                        {
                            "pitch": 83, 
                            "t0": 225500, 
                            "v": 61, 
                            "dur": 250, 
                            "type": "note", 
                            "channel": 9
                        }
                    ]
                ], 
                [
                    229000, 
                    [
                        {
                            "pitch": 83, 
                            "t0": 229000, 
                            "v": 57, 
                            "dur": 250, 
                            "type": "note", 
                            "channel": 9
                        }
                    ]
                ], 
                [
                    233000, 
                    [
                        {
                            "pitch": 83, 
                            "t0": 233000, 
                            "v": 57, 
                            "dur": 250, 
                            "type": "note", 
                            "channel": 9
                        }
                    ]
                ], 
                [
                    234000, 
                    [
                        {
                            "pitch": 83, 
                            "t0": 234000, 
                            "v": 62, 
                            "dur": 250, 
                            "type": "note", 
                            "channel": 9
                        }
                    ]
                ], 
                [
                    237000, 
                    [
                        {
                            "pitch": 83, 
                            "t0": 237000, 
                            "v": 57, 
                            "dur": 250, 
                            "type": "note", 
                            "channel": 9
                        }
                    ]
                ], 
                [
                    241000, 
                    [
                        {
                            "pitch": 83, 
                            "t0": 241000, 
                            "v": 57, 
                            "dur": 250, 
                            "type": "note", 
                            "channel": 9
                        }
                    ]
                ], 
                [
                    241500, 
                    [
                        {
                            "pitch": 83, 
                            "t0": 241500, 
                            "v": 57, 
                            "dur": 250, 
                            "type": "note", 
                            "channel": 9
                        }
                    ]
                ], 
                [
                    245000, 
                    [
                        {
                            "pitch": 83, 
                            "t0": 245000, 
                            "v": 57, 
                            "dur": 250, 
                            "type": "note", 
                            "channel": 9
                        }
                    ]
                ], 
                [
                    249000, 
                    [
                        {
                            "pitch": 83, 
                            "t0": 249000, 
                            "v": 57, 
                            "dur": 250, 
                            "type": "note", 
                            "channel": 9
                        }
                    ]
                ], 
                [
                    249500, 
                    [
                        {
                            "pitch": 83, 
                            "t0": 249500, 
                            "v": 57, 
                            "dur": 250, 
                            "type": "note", 
                            "channel": 9
                        }
                    ]
                ], 
                [
                    251000, 
                    [
                        {
                            "pitch": 83, 
                            "t0": 251000, 
                            "v": 57, 
                            "dur": 250, 
                            "type": "note", 
                            "channel": 9
                        }
                    ]
                ], 
                [
                    253000, 
                    [
                        {
                            "pitch": 83, 
                            "t0": 253000, 
                            "v": 57, 
                            "dur": 250, 
                            "type": "note", 
                            "channel": 9
                        }
                    ]
                ], 
                [
                    257000, 
                    [
                        {
                            "pitch": 83, 
                            "t0": 257000, 
                            "v": 57, 
                            "dur": 250, 
                            "type": "note", 
                            "channel": 9
                        }
                    ]
                ], 
                [
                    257500, 
                    [
                        {
                            "pitch": 83, 
                            "t0": 257500, 
                            "v": 61, 
                            "dur": 250, 
                            "type": "note", 
                            "channel": 9
                        }
                    ]
                ], 
                [
                    261000, 
                    [
                        {
                            "pitch": 83, 
                            "t0": 261000, 
                            "v": 57, 
                            "dur": 250, 
                            "type": "note", 
                            "channel": 9
                        }
                    ]
                ], 
                [
                    265000, 
                    [
                        {
                            "pitch": 83, 
                            "t0": 265000, 
                            "v": 57, 
                            "dur": 250, 
                            "type": "note", 
                            "channel": 9
                        }
                    ]
                ], 
                [
                    266000, 
                    [
                        {
                            "pitch": 83, 
                            "t0": 266000, 
                            "v": 62, 
                            "dur": 250, 
                            "type": "note", 
                            "channel": 9
                        }
                    ]
                ], 
                [
                    269000, 
                    [
                        {
                            "pitch": 83, 
                            "t0": 269000, 
                            "v": 57, 
                            "dur": 250, 
                            "type": "note", 
                            "channel": 9
                        }
                    ]
                ], 
                [
                    273000, 
                    [
                        {
                            "pitch": 83, 
                            "t0": 273000, 
                            "v": 57, 
                            "dur": 250, 
                            "type": "note", 
                            "channel": 9
                        }
                    ]
                ], 
                [
                    273500, 
                    [
                        {
                            "pitch": 83, 
                            "t0": 273500, 
                            "v": 57, 
                            "dur": 250, 
                            "type": "note", 
                            "channel": 9
                        }
                    ]
                ], 
                [
                    277000, 
                    [
                        {
                            "pitch": 83, 
                            "t0": 277000, 
                            "v": 57, 
                            "dur": 250, 
                            "type": "note", 
                            "channel": 9
                        }
                    ]
                ], 
                [
                    281000, 
                    [
                        {
                            "pitch": 83, 
                            "t0": 281000, 
                            "v": 57, 
                            "dur": 250, 
                            "type": "note", 
                            "channel": 9
                        }
                    ]
                ], 
                [
                    281500, 
                    [
                        {
                            "pitch": 83, 
                            "t0": 281500, 
                            "v": 57, 
                            "dur": 250, 
                            "type": "note", 
                            "channel": 9
                        }
                    ]
                ], 
                [
                    283000, 
                    [
                        {
                            "pitch": 83, 
                            "t0": 283000, 
                            "v": 57, 
                            "dur": 250, 
                            "type": "note", 
                            "channel": 9
                        }
                    ]
                ], 
                [
                    285000, 
                    [
                        {
                            "pitch": 83, 
                            "t0": 285000, 
                            "v": 57, 
                            "dur": 250, 
                            "type": "note", 
                            "channel": 9
                        }
                    ]
                ], 
                [
                    289000, 
                    [
                        {
                            "pitch": 83, 
                            "t0": 289000, 
                            "v": 57, 
                            "dur": 250, 
                            "type": "note", 
                            "channel": 9
                        }
                    ]
                ], 
                [
                    289500, 
                    [
                        {
                            "pitch": 83, 
                            "t0": 289500, 
                            "v": 61, 
                            "dur": 250, 
                            "type": "note", 
                            "channel": 9
                        }
                    ]
                ], 
                [
                    293000, 
                    [
                        {
                            "pitch": 83, 
                            "t0": 293000, 
                            "v": 57, 
                            "dur": 250, 
                            "type": "note", 
                            "channel": 9
                        }
                    ]
                ], 
                [
                    297000, 
                    [
                        {
                            "pitch": 83, 
                            "t0": 297000, 
                            "v": 57, 
                            "dur": 250, 
                            "type": "note", 
                            "channel": 9
                        }
                    ]
                ], 
                [
                    298000, 
                    [
                        {
                            "pitch": 83, 
                            "t0": 298000, 
                            "v": 62, 
                            "dur": 250, 
                            "type": "note", 
                            "channel": 9
                        }
                    ]
                ], 
                [
                    301000, 
                    [
                        {
                            "pitch": 83, 
                            "t0": 301000, 
                            "v": 57, 
                            "dur": 250, 
                            "type": "note", 
                            "channel": 9
                        }
                    ]
                ], 
                [
                    305000, 
                    [
                        {
                            "pitch": 83, 
                            "t0": 305000, 
                            "v": 57, 
                            "dur": 250, 
                            "type": "note", 
                            "channel": 9
                        }
                    ]
                ], 
                [
                    305500, 
                    [
                        {
                            "pitch": 83, 
                            "t0": 305500, 
                            "v": 57, 
                            "dur": 250, 
                            "type": "note", 
                            "channel": 9
                        }
                    ]
                ], 
                [
                    309000, 
                    [
                        {
                            "pitch": 83, 
                            "t0": 309000, 
                            "v": 57, 
                            "dur": 250, 
                            "type": "note", 
                            "channel": 9
                        }
                    ]
                ], 
                [
                    313000, 
                    [
                        {
                            "pitch": 83, 
                            "t0": 313000, 
                            "v": 57, 
                            "dur": 250, 
                            "type": "note", 
                            "channel": 9
                        }
                    ]
                ], 
                [
                    313500, 
                    [
                        {
                            "pitch": 83, 
                            "t0": 313500, 
                            "v": 57, 
                            "dur": 250, 
                            "type": "note", 
                            "channel": 9
                        }
                    ]
                ], 
                [
                    315000, 
                    [
                        {
                            "pitch": 83, 
                            "t0": 315000, 
                            "v": 57, 
                            "dur": 250, 
                            "type": "note", 
                            "channel": 9
                        }
                    ]
                ], 
                [
                    317000, 
                    [
                        {
                            "pitch": 83, 
                            "t0": 317000, 
                            "v": 57, 
                            "dur": 250, 
                            "type": "note", 
                            "channel": 9
                        }
                    ]
                ], 
                [
                    321000, 
                    [
                        {
                            "pitch": 83, 
                            "t0": 321000, 
                            "v": 57, 
                            "dur": 250, 
                            "type": "note", 
                            "channel": 9
                        }
                    ]
                ], 
                [
                    321500, 
                    [
                        {
                            "pitch": 83, 
                            "t0": 321500, 
                            "v": 61, 
                            "dur": 250, 
                            "type": "note", 
                            "channel": 9
                        }
                    ]
                ], 
                [
                    325000, 
                    [
                        {
                            "pitch": 83, 
                            "t0": 325000, 
                            "v": 57, 
                            "dur": 250, 
                            "type": "note", 
                            "channel": 9
                        }
                    ]
                ], 
                [
                    329000, 
                    [
                        {
                            "pitch": 83, 
                            "t0": 329000, 
                            "v": 57, 
                            "dur": 250, 
                            "type": "note", 
                            "channel": 9
                        }
                    ]
                ], 
                [
                    330000, 
                    [
                        {
                            "pitch": 83, 
                            "t0": 330000, 
                            "v": 62, 
                            "dur": 250, 
                            "type": "note", 
                            "channel": 9
                        }
                    ]
                ], 
                [
                    333000, 
                    [
                        {
                            "pitch": 83, 
                            "t0": 333000, 
                            "v": 57, 
                            "dur": 250, 
                            "type": "note", 
                            "channel": 9
                        }
                    ]
                ], 
                [
                    337000, 
                    [
                        {
                            "pitch": 83, 
                            "t0": 337000, 
                            "v": 57, 
                            "dur": 250, 
                            "type": "note", 
                            "channel": 9
                        }
                    ]
                ], 
                [
                    337500, 
                    [
                        {
                            "pitch": 83, 
                            "t0": 337500, 
                            "v": 57, 
                            "dur": 250, 
                            "type": "note", 
                            "channel": 9
                        }
                    ]
                ], 
                [
                    341000, 
                    [
                        {
                            "pitch": 83, 
                            "t0": 341000, 
                            "v": 57, 
                            "dur": 250, 
                            "type": "note", 
                            "channel": 9
                        }
                    ]
                ], 
                [
                    345000, 
                    [
                        {
                            "pitch": 83, 
                            "t0": 345000, 
                            "v": 57, 
                            "dur": 250, 
                            "type": "note", 
                            "channel": 9
                        }
                    ]
                ], 
                [
                    345500, 
                    [
                        {
                            "pitch": 83, 
                            "t0": 345500, 
                            "v": 57, 
                            "dur": 250, 
                            "type": "note", 
                            "channel": 9
                        }
                    ]
                ], 
                [
                    347000, 
                    [
                        {
                            "pitch": 83, 
                            "t0": 347000, 
                            "v": 57, 
                            "dur": 250, 
                            "type": "note", 
                            "channel": 9
                        }
                    ]
                ], 
                [
                    349000, 
                    [
                        {
                            "pitch": 83, 
                            "t0": 349000, 
                            "v": 57, 
                            "dur": 250, 
                            "type": "note", 
                            "channel": 9
                        }
                    ]
                ], 
                [
                    353000, 
                    [
                        {
                            "pitch": 83, 
                            "t0": 353000, 
                            "v": 57, 
                            "dur": 250, 
                            "type": "note", 
                            "channel": 9
                        }
                    ]
                ], 
                [
                    353500, 
                    [
                        {
                            "pitch": 83, 
                            "t0": 353500, 
                            "v": 61, 
                            "dur": 250, 
                            "type": "note", 
                            "channel": 9
                        }
                    ]
                ], 
                [
                    357000, 
                    [
                        {
                            "pitch": 83, 
                            "t0": 357000, 
                            "v": 57, 
                            "dur": 250, 
                            "type": "note", 
                            "channel": 9
                        }
                    ]
                ], 
                [
                    361000, 
                    [
                        {
                            "pitch": 83, 
                            "t0": 361000, 
                            "v": 57, 
                            "dur": 250, 
                            "type": "note", 
                            "channel": 9
                        }
                    ]
                ], 
                [
                    362000, 
                    [
                        {
                            "pitch": 83, 
                            "t0": 362000, 
                            "v": 62, 
                            "dur": 250, 
                            "type": "note", 
                            "channel": 9
                        }
                    ]
                ], 
                [
                    365000, 
                    [
                        {
                            "pitch": 83, 
                            "t0": 365000, 
                            "v": 57, 
                            "dur": 250, 
                            "type": "note", 
                            "channel": 9
                        }
                    ]
                ], 
                [
                    369000, 
                    [
                        {
                            "pitch": 83, 
                            "t0": 369000, 
                            "v": 57, 
                            "dur": 250, 
                            "type": "note", 
                            "channel": 9
                        }
                    ]
                ], 
                [
                    369500, 
                    [
                        {
                            "pitch": 83, 
                            "t0": 369500, 
                            "v": 57, 
                            "dur": 250, 
                            "type": "note", 
                            "channel": 9
                        }
                    ]
                ], 
                [
                    373000, 
                    [
                        {
                            "pitch": 83, 
                            "t0": 373000, 
                            "v": 57, 
                            "dur": 250, 
                            "type": "note", 
                            "channel": 9
                        }
                    ]
                ], 
                [
                    377000, 
                    [
                        {
                            "pitch": 83, 
                            "t0": 377000, 
                            "v": 57, 
                            "dur": 250, 
                            "type": "note", 
                            "channel": 9
                        }
                    ]
                ], 
                [
                    377500, 
                    [
                        {
                            "pitch": 83, 
                            "t0": 377500, 
                            "v": 57, 
                            "dur": 250, 
                            "type": "note", 
                            "channel": 9
                        }
                    ]
                ], 
                [
                    379000, 
                    [
                        {
                            "pitch": 83, 
                            "t0": 379000, 
                            "v": 57, 
                            "dur": 250, 
                            "type": "note", 
                            "channel": 9
                        }
                    ]
                ], 
                [
                    381000, 
                    [
                        {
                            "pitch": 83, 
                            "t0": 381000, 
                            "v": 57, 
                            "dur": 250, 
                            "type": "note", 
                            "channel": 9
                        }
                    ]
                ], 
                [
                    385000, 
                    [
                        {
                            "pitch": 83, 
                            "t0": 385000, 
                            "v": 57, 
                            "dur": 250, 
                            "type": "note", 
                            "channel": 9
                        }
                    ]
                ], 
                [
                    385500, 
                    [
                        {
                            "pitch": 83, 
                            "t0": 385500, 
                            "v": 61, 
                            "dur": 250, 
                            "type": "note", 
                            "channel": 9
                        }
                    ]
                ], 
                [
                    389000, 
                    [
                        {
                            "pitch": 83, 
                            "t0": 389000, 
                            "v": 57, 
                            "dur": 250, 
                            "type": "note", 
                            "channel": 9
                        }
                    ]
                ], 
                [
                    393000, 
                    [
                        {
                            "pitch": 83, 
                            "t0": 393000, 
                            "v": 57, 
                            "dur": 250, 
                            "type": "note", 
                            "channel": 9
                        }
                    ]
                ], 
                [
                    394000, 
                    [
                        {
                            "pitch": 83, 
                            "t0": 394000, 
                            "v": 62, 
                            "dur": 250, 
                            "type": "note", 
                            "channel": 9
                        }
                    ]
                ], 
                [
                    397000, 
                    [
                        {
                            "pitch": 83, 
                            "t0": 397000, 
                            "v": 57, 
                            "dur": 250, 
                            "type": "note", 
                            "channel": 9
                        }
                    ]
                ], 
                [
                    401000, 
                    [
                        {
                            "pitch": 83, 
                            "t0": 401000, 
                            "v": 57, 
                            "dur": 250, 
                            "type": "note", 
                            "channel": 9
                        }
                    ]
                ], 
                [
                    401500, 
                    [
                        {
                            "pitch": 83, 
                            "t0": 401500, 
                            "v": 57, 
                            "dur": 250, 
                            "type": "note", 
                            "channel": 9
                        }
                    ]
                ], 
                [
                    405000, 
                    [
                        {
                            "pitch": 83, 
                            "t0": 405000, 
                            "v": 57, 
                            "dur": 250, 
                            "type": "note", 
                            "channel": 9
                        }
                    ]
                ], 
                [
                    409000, 
                    [
                        {
                            "pitch": 83, 
                            "t0": 409000, 
                            "v": 57, 
                            "dur": 250, 
                            "type": "note", 
                            "channel": 9
                        }
                    ]
                ], 
                [
                    409500, 
                    [
                        {
                            "pitch": 83, 
                            "t0": 409500, 
                            "v": 57, 
                            "dur": 250, 
                            "type": "note", 
                            "channel": 9
                        }
                    ]
                ], 
                [
                    411000, 
                    [
                        {
                            "pitch": 83, 
                            "t0": 411000, 
                            "v": 57, 
                            "dur": 250, 
                            "type": "note", 
                            "channel": 9
                        }
                    ]
                ], 
                [
                    413000, 
                    [
                        {
                            "pitch": 83, 
                            "t0": 413000, 
                            "v": 57, 
                            "dur": 250, 
                            "type": "note", 
                            "channel": 9
                        }
                    ]
                ], 
                [
                    417000, 
                    [
                        {
                            "pitch": 83, 
                            "t0": 417000, 
                            "v": 57, 
                            "dur": 250, 
                            "type": "note", 
                            "channel": 9
                        }
                    ]
                ], 
                [
                    417500, 
                    [
                        {
                            "pitch": 83, 
                            "t0": 417500, 
                            "v": 61, 
                            "dur": 250, 
                            "type": "note", 
                            "channel": 9
                        }
                    ]
                ], 
                [
                    421000, 
                    [
                        {
                            "pitch": 83, 
                            "t0": 421000, 
                            "v": 57, 
                            "dur": 250, 
                            "type": "note", 
                            "channel": 9
                        }
                    ]
                ], 
                [
                    425000, 
                    [
                        {
                            "pitch": 83, 
                            "t0": 425000, 
                            "v": 57, 
                            "dur": 250, 
                            "type": "note", 
                            "channel": 9
                        }
                    ]
                ], 
                [
                    426000, 
                    [
                        {
                            "pitch": 83, 
                            "t0": 426000, 
                            "v": 62, 
                            "dur": 250, 
                            "type": "note", 
                            "channel": 9
                        }
                    ]
                ], 
                [
                    429000, 
                    [
                        {
                            "pitch": 83, 
                            "t0": 429000, 
                            "v": 57, 
                            "dur": 250, 
                            "type": "note", 
                            "channel": 9
                        }
                    ]
                ], 
                [
                    433000, 
                    [
                        {
                            "pitch": 83, 
                            "t0": 433000, 
                            "v": 57, 
                            "dur": 250, 
                            "type": "note", 
                            "channel": 9
                        }
                    ]
                ], 
                [
                    433500, 
                    [
                        {
                            "pitch": 83, 
                            "t0": 433500, 
                            "v": 57, 
                            "dur": 250, 
                            "type": "note", 
                            "channel": 9
                        }
                    ]
                ], 
                [
                    437000, 
                    [
                        {
                            "pitch": 83, 
                            "t0": 437000, 
                            "v": 57, 
                            "dur": 250, 
                            "type": "note", 
                            "channel": 9
                        }
                    ]
                ], 
                [
                    441000, 
                    [
                        {
                            "pitch": 83, 
                            "t0": 441000, 
                            "v": 57, 
                            "dur": 250, 
                            "type": "note", 
                            "channel": 9
                        }
                    ]
                ], 
                [
                    441500, 
                    [
                        {
                            "pitch": 83, 
                            "t0": 441500, 
                            "v": 57, 
                            "dur": 250, 
                            "type": "note", 
                            "channel": 9
                        }
                    ]
                ], 
                [
                    443000, 
                    [
                        {
                            "pitch": 83, 
                            "t0": 443000, 
                            "v": 57, 
                            "dur": 250, 
                            "type": "note", 
                            "channel": 9
                        }
                    ]
                ], 
                [
                    445000, 
                    [
                        {
                            "pitch": 83, 
                            "t0": 445000, 
                            "v": 57, 
                            "dur": 250, 
                            "type": "note", 
                            "channel": 9
                        }
                    ]
                ], 
                [
                    449000, 
                    [
                        {
                            "pitch": 83, 
                            "t0": 449000, 
                            "v": 57, 
                            "dur": 250, 
                            "type": "note", 
                            "channel": 9
                        }
                    ]
                ], 
                [
                    449500, 
                    [
                        {
                            "pitch": 83, 
                            "t0": 449500, 
                            "v": 61, 
                            "dur": 250, 
                            "type": "note", 
                            "channel": 9
                        }
                    ]
                ], 
                [
                    453000, 
                    [
                        {
                            "pitch": 83, 
                            "t0": 453000, 
                            "v": 57, 
                            "dur": 250, 
                            "type": "note", 
                            "channel": 9
                        }
                    ]
                ], 
                [
                    457000, 
                    [
                        {
                            "pitch": 83, 
                            "t0": 457000, 
                            "v": 57, 
                            "dur": 250, 
                            "type": "note", 
                            "channel": 9
                        }
                    ]
                ], 
                [
                    458000, 
                    [
                        {
                            "pitch": 83, 
                            "t0": 458000, 
                            "v": 62, 
                            "dur": 250, 
                            "type": "note", 
                            "channel": 9
                        }
                    ]
                ], 
                [
                    461000, 
                    [
                        {
                            "pitch": 83, 
                            "t0": 461000, 
                            "v": 57, 
                            "dur": 250, 
                            "type": "note", 
                            "channel": 9
                        }
                    ]
                ], 
                [
                    465000, 
                    [
                        {
                            "pitch": 83, 
                            "t0": 465000, 
                            "v": 57, 
                            "dur": 250, 
                            "type": "note", 
                            "channel": 9
                        }
                    ]
                ], 
                [
                    465500, 
                    [
                        {
                            "pitch": 83, 
                            "t0": 465500, 
                            "v": 57, 
                            "dur": 250, 
                            "type": "note", 
                            "channel": 9
                        }
                    ]
                ], 
                [
                    469000, 
                    [
                        {
                            "pitch": 83, 
                            "t0": 469000, 
                            "v": 57, 
                            "dur": 250, 
                            "type": "note", 
                            "channel": 9
                        }
                    ]
                ], 
                [
                    473000, 
                    [
                        {
                            "pitch": 83, 
                            "t0": 473000, 
                            "v": 57, 
                            "dur": 250, 
                            "type": "note", 
                            "channel": 9
                        }
                    ]
                ], 
                [
                    473500, 
                    [
                        {
                            "pitch": 83, 
                            "t0": 473500, 
                            "v": 57, 
                            "dur": 250, 
                            "type": "note", 
                            "channel": 9
                        }
                    ]
                ], 
                [
                    475000, 
                    [
                        {
                            "pitch": 83, 
                            "t0": 475000, 
                            "v": 57, 
                            "dur": 250, 
                            "type": "note", 
                            "channel": 9
                        }
                    ]
                ], 
                [
                    477000, 
                    [
                        {
                            "pitch": 83, 
                            "t0": 477000, 
                            "v": 57, 
                            "dur": 250, 
                            "type": "note", 
                            "channel": 9
                        }
                    ]
                ], 
                [
                    481000, 
                    [
                        {
                            "pitch": 83, 
                            "t0": 481000, 
                            "v": 57, 
                            "dur": 250, 
                            "type": "note", 
                            "channel": 9
                        }
                    ]
                ], 
                [
                    481500, 
                    [
                        {
                            "pitch": 83, 
                            "t0": 481500, 
                            "v": 61, 
                            "dur": 250, 
                            "type": "note", 
                            "channel": 9
                        }
                    ]
                ], 
                [
                    485000, 
                    [
                        {
                            "pitch": 83, 
                            "t0": 485000, 
                            "v": 57, 
                            "dur": 250, 
                            "type": "note", 
                            "channel": 9
                        }
                    ]
                ], 
                [
                    489000, 
                    [
                        {
                            "pitch": 83, 
                            "t0": 489000, 
                            "v": 57, 
                            "dur": 250, 
                            "type": "note", 
                            "channel": 9
                        }
                    ]
                ], 
                [
                    490000, 
                    [
                        {
                            "pitch": 83, 
                            "t0": 490000, 
                            "v": 62, 
                            "dur": 250, 
                            "type": "note", 
                            "channel": 9
                        }
                    ]
                ], 
                [
                    493000, 
                    [
                        {
                            "pitch": 83, 
                            "t0": 493000, 
                            "v": 57, 
                            "dur": 250, 
                            "type": "note", 
                            "channel": 9
                        }
                    ]
                ], 
                [
                    497000, 
                    [
                        {
                            "pitch": 83, 
                            "t0": 497000, 
                            "v": 57, 
                            "dur": 250, 
                            "type": "note", 
                            "channel": 9
                        }
                    ]
                ], 
                [
                    497500, 
                    [
                        {
                            "pitch": 83, 
                            "t0": 497500, 
                            "v": 57, 
                            "dur": 250, 
                            "type": "note", 
                            "channel": 9
                        }
                    ]
                ], 
                [
                    501000, 
                    [
                        {
                            "pitch": 83, 
                            "t0": 501000, 
                            "v": 57, 
                            "dur": 250, 
                            "type": "note", 
                            "channel": 9
                        }
                    ]
                ], 
                [
                    505000, 
                    [
                        {
                            "pitch": 83, 
                            "t0": 505000, 
                            "v": 57, 
                            "dur": 250, 
                            "type": "note", 
                            "channel": 9
                        }
                    ]
                ], 
                [
                    505500, 
                    [
                        {
                            "pitch": 83, 
                            "t0": 505500, 
                            "v": 57, 
                            "dur": 250, 
                            "type": "note", 
                            "channel": 9
                        }
                    ]
                ], 
                [
                    507000, 
                    [
                        {
                            "pitch": 83, 
                            "t0": 507000, 
                            "v": 57, 
                            "dur": 250, 
                            "type": "note", 
                            "channel": 9
                        }
                    ]
                ], 
                [
                    509000, 
                    [
                        {
                            "pitch": 83, 
                            "t0": 509000, 
                            "v": 57, 
                            "dur": 250, 
                            "type": "note", 
                            "channel": 9
                        }
                    ]
                ], 
                [
                    513000, 
                    [
                        {
                            "pitch": 83, 
                            "t0": 513000, 
                            "v": 57, 
                            "dur": 250, 
                            "type": "note", 
                            "channel": 9
                        }
                    ]
                ], 
                [
                    513500, 
                    [
                        {
                            "pitch": 83, 
                            "t0": 513500, 
                            "v": 61, 
                            "dur": 250, 
                            "type": "note", 
                            "channel": 9
                        }
                    ]
                ], 
                [
                    517000, 
                    [
                        {
                            "pitch": 83, 
                            "t0": 517000, 
                            "v": 57, 
                            "dur": 250, 
                            "type": "note", 
                            "channel": 9
                        }
                    ]
                ], 
                [
                    521000, 
                    [
                        {
                            "pitch": 83, 
                            "t0": 521000, 
                            "v": 57, 
                            "dur": 250, 
                            "type": "note", 
                            "channel": 9
                        }
                    ]
                ], 
                [
                    522000, 
                    [
                        {
                            "pitch": 83, 
                            "t0": 522000, 
                            "v": 62, 
                            "dur": 250, 
                            "type": "note", 
                            "channel": 9
                        }
                    ]
                ], 
                [
                    525000, 
                    [
                        {
                            "pitch": 83, 
                            "t0": 525000, 
                            "v": 57, 
                            "dur": 250, 
                            "type": "note", 
                            "channel": 9
                        }
                    ]
                ], 
                [
                    529000, 
                    [
                        {
                            "pitch": 83, 
                            "t0": 529000, 
                            "v": 57, 
                            "dur": 250, 
                            "type": "note", 
                            "channel": 9
                        }
                    ]
                ], 
                [
                    529500, 
                    [
                        {
                            "pitch": 83, 
                            "t0": 529500, 
                            "v": 57, 
                            "dur": 250, 
                            "type": "note", 
                            "channel": 9
                        }
                    ]
                ], 
                [
                    533000, 
                    [
                        {
                            "pitch": 83, 
                            "t0": 533000, 
                            "v": 57, 
                            "dur": 250, 
                            "type": "note", 
                            "channel": 9
                        }
                    ]
                ], 
                [
                    537000, 
                    [
                        {
                            "pitch": 83, 
                            "t0": 537000, 
                            "v": 57, 
                            "dur": 250, 
                            "type": "note", 
                            "channel": 9
                        }
                    ]
                ], 
                [
                    537500, 
                    [
                        {
                            "pitch": 83, 
                            "t0": 537500, 
                            "v": 57, 
                            "dur": 250, 
                            "type": "note", 
                            "channel": 9
                        }
                    ]
                ], 
                [
                    539000, 
                    [
                        {
                            "pitch": 83, 
                            "t0": 539000, 
                            "v": 57, 
                            "dur": 250, 
                            "type": "note", 
                            "channel": 9
                        }
                    ]
                ], 
                [
                    541000, 
                    [
                        {
                            "pitch": 83, 
                            "t0": 541000, 
                            "v": 57, 
                            "dur": 250, 
                            "type": "note", 
                            "channel": 9
                        }
                    ]
                ]
            ], 
            "instruments": [
                32
            ], 
            "tMax": 541000, 
            "channels": [
                9
            ], 
            "instrument": 32, 
            "numNotes": 221, 
            "type": "TrackObj"
        }, 
        {
            "trackName": "Instrument Track", 
            "seq": [
                [
                    0, 
                    [
                        {
                            "instrument": 85, 
                            "type": "programChange", 
                            "t0": 0, 
                            "channel": 5
                        }
                    ]
                ], 
                [
                    88, 
                    [
                        {
                            "pitch": 38, 
                            "t0": 88, 
                            "v": 104, 
                            "dur": 15674, 
                            "type": "note", 
                            "channel": 5
                        }
                    ]
                ], 
                [
                    15946, 
                    [
                        {
                            "pitch": 38, 
                            "t0": 15946, 
                            "v": 116, 
                            "dur": 15800, 
                            "type": "note", 
                            "channel": 5
                        }
                    ]
                ], 
                [
                    31950, 
                    [
                        {
                            "pitch": 38, 
                            "t0": 31950, 
                            "v": 120, 
                            "dur": 15592, 
                            "type": "note", 
                            "channel": 5
                        }
                    ]
                ], 
                [
                    47838, 
                    [
                        {
                            "pitch": 38, 
                            "t0": 47838, 
                            "v": 120, 
                            "dur": 15878, 
                            "type": "note", 
                            "channel": 5
                        }
                    ]
                ], 
                [
                    63966, 
                    [
                        {
                            "pitch": 38, 
                            "t0": 63966, 
                            "v": 112, 
                            "dur": 15676, 
                            "type": "note", 
                            "channel": 5
                        }
                    ]
                ], 
                [
                    79954, 
                    [
                        {
                            "pitch": 38, 
                            "t0": 79954, 
                            "v": 116, 
                            "dur": 15684, 
                            "type": "note", 
                            "channel": 5
                        }
                    ]
                ], 
                [
                    95950, 
                    [
                        {
                            "pitch": 38, 
                            "t0": 95950, 
                            "v": 116, 
                            "dur": 15734, 
                            "type": "note", 
                            "channel": 5
                        }
                    ]
                ], 
                [
                    111954, 
                    [
                        {
                            "pitch": 38, 
                            "t0": 111954, 
                            "v": 112, 
                            "dur": 15904, 
                            "type": "note", 
                            "channel": 5
                        }
                    ]
                ], 
                [
                    128020, 
                    [
                        {
                            "pitch": 38, 
                            "t0": 128020, 
                            "v": 112, 
                            "dur": 15856, 
                            "type": "note", 
                            "channel": 5
                        }
                    ]
                ], 
                [
                    144034, 
                    [
                        {
                            "pitch": 38, 
                            "t0": 144034, 
                            "v": 116, 
                            "dur": 15662, 
                            "type": "note", 
                            "channel": 5
                        }
                    ]
                ], 
                [
                    159942, 
                    [
                        {
                            "pitch": 38, 
                            "t0": 159942, 
                            "v": 108, 
                            "dur": 15838, 
                            "type": "note", 
                            "channel": 5
                        }
                    ]
                ], 
                [
                    175980, 
                    [
                        {
                            "pitch": 38, 
                            "t0": 175980, 
                            "v": 108, 
                            "dur": 15732, 
                            "type": "note", 
                            "channel": 5
                        }
                    ]
                ], 
                [
                    191930, 
                    [
                        {
                            "pitch": 38, 
                            "t0": 191930, 
                            "v": 108, 
                            "dur": 15758, 
                            "type": "note", 
                            "channel": 5
                        }
                    ]
                ], 
                [
                    207966, 
                    [
                        {
                            "pitch": 38, 
                            "t0": 207966, 
                            "v": 116, 
                            "dur": 15846, 
                            "type": "note", 
                            "channel": 5
                        }
                    ]
                ], 
                [
                    223992, 
                    [
                        {
                            "pitch": 38, 
                            "t0": 223992, 
                            "v": 116, 
                            "dur": 15800, 
                            "type": "note", 
                            "channel": 5
                        }
                    ]
                ], 
                [
                    240008, 
                    [
                        {
                            "pitch": 38, 
                            "t0": 240008, 
                            "v": 108, 
                            "dur": 15768, 
                            "type": "note", 
                            "channel": 5
                        }
                    ]
                ], 
                [
                    255980, 
                    [
                        {
                            "pitch": 38, 
                            "t0": 255980, 
                            "v": 108, 
                            "dur": 15682, 
                            "type": "note", 
                            "channel": 5
                        }
                    ]
                ], 
                [
                    271912, 
                    [
                        {
                            "pitch": 38, 
                            "t0": 271912, 
                            "v": 112, 
                            "dur": 15792, 
                            "type": "note", 
                            "channel": 5
                        }
                    ]
                ], 
                [
                    287920, 
                    [
                        {
                            "pitch": 38, 
                            "t0": 287920, 
                            "v": 96, 
                            "dur": 15906, 
                            "type": "note", 
                            "channel": 5
                        }
                    ]
                ], 
                [
                    304034, 
                    [
                        {
                            "pitch": 38, 
                            "t0": 304034, 
                            "v": 112, 
                            "dur": 16050, 
                            "type": "note", 
                            "channel": 5
                        }
                    ]
                ], 
                [
                    320284, 
                    [
                        {
                            "pitch": 38, 
                            "t0": 320284, 
                            "v": 116, 
                            "dur": 15462, 
                            "type": "note", 
                            "channel": 5
                        }
                    ]
                ], 
                [
                    335992, 
                    [
                        {
                            "pitch": 38, 
                            "t0": 335992, 
                            "v": 108, 
                            "dur": 15766, 
                            "type": "note", 
                            "channel": 5
                        }
                    ]
                ], 
                [
                    351980, 
                    [
                        {
                            "pitch": 38, 
                            "t0": 351980, 
                            "v": 108, 
                            "dur": 15928, 
                            "type": "note", 
                            "channel": 5
                        }
                    ]
                ], 
                [
                    368084, 
                    [
                        {
                            "pitch": 38, 
                            "t0": 368084, 
                            "v": 104, 
                            "dur": 15620, 
                            "type": "note", 
                            "channel": 5
                        }
                    ]
                ], 
                [
                    383904, 
                    [
                        {
                            "pitch": 38, 
                            "t0": 383904, 
                            "v": 112, 
                            "dur": 15826, 
                            "type": "note", 
                            "channel": 5
                        }
                    ]
                ], 
                [
                    399976, 
                    [
                        {
                            "pitch": 38, 
                            "t0": 399976, 
                            "v": 112, 
                            "dur": 15824, 
                            "type": "note", 
                            "channel": 5
                        }
                    ]
                ], 
                [
                    415984, 
                    [
                        {
                            "pitch": 38, 
                            "t0": 415984, 
                            "v": 100, 
                            "dur": 15658, 
                            "type": "note", 
                            "channel": 5
                        }
                    ]
                ], 
                [
                    432000, 
                    [
                        {
                            "pitch": 38, 
                            "t0": 432000, 
                            "v": 112, 
                            "dur": 15816, 
                            "type": "note", 
                            "channel": 5
                        }
                    ]
                ], 
                [
                    448008, 
                    [
                        {
                            "pitch": 38, 
                            "t0": 448008, 
                            "v": 108, 
                            "dur": 15862, 
                            "type": "note", 
                            "channel": 5
                        }
                    ]
                ], 
                [
                    464034, 
                    [
                        {
                            "pitch": 38, 
                            "t0": 464034, 
                            "v": 108, 
                            "dur": 15796, 
                            "type": "note", 
                            "channel": 5
                        }
                    ]
                ], 
                [
                    480020, 
                    [
                        {
                            "pitch": 38, 
                            "t0": 480020, 
                            "v": 112, 
                            "dur": 15756, 
                            "type": "note", 
                            "channel": 5
                        }
                    ]
                ], 
                [
                    496026, 
                    [
                        {
                            "pitch": 38, 
                            "t0": 496026, 
                            "v": 108, 
                            "dur": 15674, 
                            "type": "note", 
                            "channel": 5
                        }
                    ]
                ], 
                [
                    511934, 
                    [
                        {
                            "pitch": 38, 
                            "t0": 511934, 
                            "v": 112, 
                            "dur": 15896, 
                            "type": "note", 
                            "channel": 5
                        }
                    ]
                ], 
                [
                    528050, 
                    [
                        {
                            "pitch": 38, 
                            "t0": 528050, 
                            "v": 104, 
                            "dur": 16604, 
                            "type": "note", 
                            "channel": 5
                        }
                    ]
                ]
            ], 
            "instruments": [
                85
            ], 
            "tMax": 528050, 
            "channels": [
                5
            ], 
            "instrument": 85, 
            "numNotes": 34, 
            "type": "TrackObj"
        }, 
        {
            "trackName": "Instrument Track", 
            "seq": [
                [
                    0, 
                    [
                        {
                            "instrument": 48, 
                            "type": "programChange", 
                            "t0": 0, 
                            "channel": 6
                        }
                    ]
                ], 
                [
                    63926, 
                    [
                        {
                            "pitch": 60, 
                            "t0": 63926, 
                            "v": 96, 
                            "dur": 6282, 
                            "type": "note", 
                            "channel": 6
                        }
                    ]
                ], 
                [
                    63930, 
                    [
                        {
                            "pitch": 64, 
                            "t0": 63930, 
                            "v": 116, 
                            "dur": 6232, 
                            "type": "note", 
                            "channel": 6
                        }, 
                        {
                            "pitch": 57, 
                            "t0": 63930, 
                            "v": 96, 
                            "dur": 7166, 
                            "type": "note", 
                            "channel": 6
                        }
                    ]
                ], 
                [
                    71866, 
                    [
                        {
                            "pitch": 57, 
                            "t0": 71866, 
                            "v": 60, 
                            "dur": 7538, 
                            "type": "note", 
                            "channel": 6
                        }
                    ]
                ], 
                [
                    71876, 
                    [
                        {
                            "pitch": 60, 
                            "t0": 71876, 
                            "v": 72, 
                            "dur": 7336, 
                            "type": "note", 
                            "channel": 6
                        }, 
                        {
                            "pitch": 64, 
                            "t0": 71876, 
                            "v": 64, 
                            "dur": 7404, 
                            "type": "note", 
                            "channel": 6
                        }
                    ]
                ], 
                [
                    79950, 
                    [
                        {
                            "pitch": 65, 
                            "t0": 79950, 
                            "v": 92, 
                            "dur": 11426, 
                            "type": "note", 
                            "channel": 6
                        }, 
                        {
                            "pitch": 62, 
                            "t0": 79950, 
                            "v": 76, 
                            "dur": 11438, 
                            "type": "note", 
                            "channel": 6
                        }
                    ]
                ], 
                [
                    79958, 
                    [
                        {
                            "pitch": 57, 
                            "t0": 79958, 
                            "v": 92, 
                            "dur": 11592, 
                            "type": "note", 
                            "channel": 6
                        }
                    ]
                ], 
                [
                    91750, 
                    [
                        {
                            "pitch": 62, 
                            "t0": 91750, 
                            "v": 58, 
                            "dur": 3908, 
                            "type": "note", 
                            "channel": 6
                        }
                    ]
                ], 
                [
                    91754, 
                    [
                        {
                            "pitch": 65, 
                            "t0": 91754, 
                            "v": 88, 
                            "dur": 3922, 
                            "type": "note", 
                            "channel": 6
                        }
                    ]
                ], 
                [
                    91758, 
                    [
                        {
                            "pitch": 57, 
                            "t0": 91758, 
                            "v": 58, 
                            "dur": 4000, 
                            "type": "note", 
                            "channel": 6
                        }
                    ]
                ], 
                [
                    95900, 
                    [
                        {
                            "pitch": 57, 
                            "t0": 95900, 
                            "v": 80, 
                            "dur": 8034, 
                            "type": "note", 
                            "channel": 6
                        }, 
                        {
                            "pitch": 64, 
                            "t0": 95900, 
                            "v": 92, 
                            "dur": 15776, 
                            "type": "note", 
                            "channel": 6
                        }
                    ]
                ], 
                [
                    95904, 
                    [
                        {
                            "pitch": 60, 
                            "t0": 95904, 
                            "v": 84, 
                            "dur": 8092, 
                            "type": "note", 
                            "channel": 6
                        }
                    ]
                ], 
                [
                    104042, 
                    [
                        {
                            "pitch": 60, 
                            "t0": 104042, 
                            "v": 104, 
                            "dur": 7666, 
                            "type": "note", 
                            "channel": 6
                        }
                    ]
                ], 
                [
                    104050, 
                    [
                        {
                            "pitch": 57, 
                            "t0": 104050, 
                            "v": 104, 
                            "dur": 7616, 
                            "type": "note", 
                            "channel": 6
                        }
                    ]
                ], 
                [
                    111984, 
                    [
                        {
                            "pitch": 62, 
                            "t0": 111984, 
                            "v": 112, 
                            "dur": 7816, 
                            "type": "note", 
                            "channel": 6
                        }
                    ]
                ], 
                [
                    111988, 
                    [
                        {
                            "pitch": 57, 
                            "t0": 111988, 
                            "v": 116, 
                            "dur": 7782, 
                            "type": "note", 
                            "channel": 6
                        }
                    ]
                ], 
                [
                    111992, 
                    [
                        {
                            "pitch": 65, 
                            "t0": 111992, 
                            "v": 116, 
                            "dur": 7816, 
                            "type": "note", 
                            "channel": 6
                        }
                    ]
                ], 
                [
                    119888, 
                    [
                        {
                            "pitch": 62, 
                            "t0": 119888, 
                            "v": 26, 
                            "dur": 7850, 
                            "type": "note", 
                            "channel": 6
                        }
                    ]
                ], 
                [
                    119892, 
                    [
                        {
                            "pitch": 57, 
                            "t0": 119892, 
                            "v": 112, 
                            "dur": 7958, 
                            "type": "note", 
                            "channel": 6
                        }
                    ]
                ], 
                [
                    119896, 
                    [
                        {
                            "pitch": 65, 
                            "t0": 119896, 
                            "v": 116, 
                            "dur": 7866, 
                            "type": "note", 
                            "channel": 6
                        }
                    ]
                ], 
                [
                    127980, 
                    [
                        {
                            "pitch": 60, 
                            "t0": 127980, 
                            "v": 100, 
                            "dur": 15828, 
                            "type": "note", 
                            "channel": 6
                        }
                    ]
                ], 
                [
                    127984, 
                    [
                        {
                            "pitch": 64, 
                            "t0": 127984, 
                            "v": 116, 
                            "dur": 11820, 
                            "type": "note", 
                            "channel": 6
                        }
                    ]
                ], 
                [
                    127992, 
                    [
                        {
                            "pitch": 57, 
                            "t0": 127992, 
                            "v": 104, 
                            "dur": 9962, 
                            "type": "note", 
                            "channel": 6
                        }
                    ]
                ], 
                [
                    128030, 
                    [
                        {
                            "pitch": 62, 
                            "t0": 128030, 
                            "v": 45, 
                            "dur": 162, 
                            "type": "note", 
                            "channel": 6
                        }
                    ]
                ], 
                [
                    138050, 
                    [
                        {
                            "pitch": 57, 
                            "t0": 138050, 
                            "v": 92, 
                            "dur": 11858, 
                            "type": "note", 
                            "channel": 6
                        }
                    ]
                ], 
                [
                    139900, 
                    [
                        {
                            "pitch": 64, 
                            "t0": 139900, 
                            "v": 100, 
                            "dur": 3904, 
                            "type": "note", 
                            "channel": 6
                        }
                    ]
                ], 
                [
                    143920, 
                    [
                        {
                            "pitch": 62, 
                            "t0": 143920, 
                            "v": 96, 
                            "dur": 6022, 
                            "type": "note", 
                            "channel": 6
                        }
                    ]
                ], 
                [
                    143938, 
                    [
                        {
                            "pitch": 65, 
                            "t0": 143938, 
                            "v": 112, 
                            "dur": 6008, 
                            "type": "note", 
                            "channel": 6
                        }
                    ]
                ], 
                [
                    143954, 
                    [
                        {
                            "pitch": 64, 
                            "t0": 143954, 
                            "v": 88, 
                            "dur": 92, 
                            "type": "note", 
                            "channel": 6
                        }
                    ]
                ], 
                [
                    149970, 
                    [
                        {
                            "pitch": 57, 
                            "t0": 149970, 
                            "v": 92, 
                            "dur": 33814, 
                            "type": "note", 
                            "channel": 6
                        }
                    ]
                ], 
                [
                    149976, 
                    [
                        {
                            "pitch": 62, 
                            "t0": 149976, 
                            "v": 88, 
                            "dur": 5604, 
                            "type": "note", 
                            "channel": 6
                        }
                    ]
                ], 
                [
                    149984, 
                    [
                        {
                            "pitch": 65, 
                            "t0": 149984, 
                            "v": 84, 
                            "dur": 5582, 
                            "type": "note", 
                            "channel": 6
                        }
                    ]
                ], 
                [
                    155676, 
                    [
                        {
                            "pitch": 62, 
                            "t0": 155676, 
                            "v": 84, 
                            "dur": 4040, 
                            "type": "note", 
                            "channel": 6
                        }
                    ]
                ], 
                [
                    155684, 
                    [
                        {
                            "pitch": 65, 
                            "t0": 155684, 
                            "v": 100, 
                            "dur": 4020, 
                            "type": "note", 
                            "channel": 6
                        }
                    ]
                ], 
                [
                    159870, 
                    [
                        {
                            "pitch": 64, 
                            "t0": 159870, 
                            "v": 108, 
                            "dur": 8080, 
                            "type": "note", 
                            "channel": 6
                        }
                    ]
                ], 
                [
                    159880, 
                    [
                        {
                            "pitch": 60, 
                            "t0": 159880, 
                            "v": 104, 
                            "dur": 8078, 
                            "type": "note", 
                            "channel": 6
                        }
                    ]
                ], 
                [
                    168038, 
                    [
                        {
                            "pitch": 60, 
                            "t0": 168038, 
                            "v": 92, 
                            "dur": 7846, 
                            "type": "note", 
                            "channel": 6
                        }
                    ]
                ], 
                [
                    168042, 
                    [
                        {
                            "pitch": 64, 
                            "t0": 168042, 
                            "v": 108, 
                            "dur": 7846, 
                            "type": "note", 
                            "channel": 6
                        }
                    ]
                ], 
                [
                    168054, 
                    [
                        {
                            "pitch": 65, 
                            "t0": 168054, 
                            "v": 108, 
                            "dur": 266, 
                            "type": "note", 
                            "channel": 6
                        }
                    ]
                ], 
                [
                    176000, 
                    [
                        {
                            "pitch": 62, 
                            "t0": 176000, 
                            "v": 92, 
                            "dur": 7758, 
                            "type": "note", 
                            "channel": 6
                        }
                    ]
                ], 
                [
                    176008, 
                    [
                        {
                            "pitch": 65, 
                            "t0": 176008, 
                            "v": 116, 
                            "dur": 7788, 
                            "type": "note", 
                            "channel": 6
                        }
                    ]
                ], 
                [
                    183830, 
                    [
                        {
                            "pitch": 65, 
                            "t0": 183830, 
                            "v": 76, 
                            "dur": 3796, 
                            "type": "note", 
                            "channel": 6
                        }
                    ]
                ], 
                [
                    183834, 
                    [
                        {
                            "pitch": 62, 
                            "t0": 183834, 
                            "v": 76, 
                            "dur": 3812, 
                            "type": "note", 
                            "channel": 6
                        }
                    ]
                ], 
                [
                    183842, 
                    [
                        {
                            "pitch": 57, 
                            "t0": 183842, 
                            "v": 108, 
                            "dur": 12046, 
                            "type": "note", 
                            "channel": 6
                        }
                    ]
                ], 
                [
                    187696, 
                    [
                        {
                            "pitch": 62, 
                            "t0": 187696, 
                            "v": 92, 
                            "dur": 4108, 
                            "type": "note", 
                            "channel": 6
                        }
                    ]
                ], 
                [
                    187704, 
                    [
                        {
                            "pitch": 65, 
                            "t0": 187704, 
                            "v": 108, 
                            "dur": 4096, 
                            "type": "note", 
                            "channel": 6
                        }
                    ]
                ], 
                [
                    191938, 
                    [
                        {
                            "pitch": 64, 
                            "t0": 191938, 
                            "v": 112, 
                            "dur": 7732, 
                            "type": "note", 
                            "channel": 6
                        }
                    ]
                ], 
                [
                    191942, 
                    [
                        {
                            "pitch": 60, 
                            "t0": 191942, 
                            "v": 96, 
                            "dur": 7792, 
                            "type": "note", 
                            "channel": 6
                        }
                    ]
                ], 
                [
                    196020, 
                    [
                        {
                            "pitch": 57, 
                            "t0": 196020, 
                            "v": 112, 
                            "dur": 7564, 
                            "type": "note", 
                            "channel": 6
                        }
                    ]
                ], 
                [
                    199846, 
                    [
                        {
                            "pitch": 60, 
                            "t0": 199846, 
                            "v": 112, 
                            "dur": 7720, 
                            "type": "note", 
                            "channel": 6
                        }
                    ]
                ], 
                [
                    199854, 
                    [
                        {
                            "pitch": 64, 
                            "t0": 199854, 
                            "v": 116, 
                            "dur": 7730, 
                            "type": "note", 
                            "channel": 6
                        }
                    ]
                ], 
                [
                    203762, 
                    [
                        {
                            "pitch": 57, 
                            "t0": 203762, 
                            "v": 108, 
                            "dur": 12068, 
                            "type": "note", 
                            "channel": 6
                        }
                    ]
                ], 
                [
                    207742, 
                    [
                        {
                            "pitch": 62, 
                            "t0": 207742, 
                            "v": 104, 
                            "dur": 11996, 
                            "type": "note", 
                            "channel": 6
                        }
                    ]
                ], 
                [
                    207754, 
                    [
                        {
                            "pitch": 65, 
                            "t0": 207754, 
                            "v": 108, 
                            "dur": 3854, 
                            "type": "note", 
                            "channel": 6
                        }
                    ]
                ], 
                [
                    211776, 
                    [
                        {
                            "pitch": 65, 
                            "t0": 211776, 
                            "v": 108, 
                            "dur": 7894, 
                            "type": "note", 
                            "channel": 6
                        }
                    ]
                ], 
                [
                    215996, 
                    [
                        {
                            "pitch": 57, 
                            "t0": 215996, 
                            "v": 112, 
                            "dur": 7934, 
                            "type": "note", 
                            "channel": 6
                        }
                    ]
                ], 
                [
                    219830, 
                    [
                        {
                            "pitch": 62, 
                            "t0": 219830, 
                            "v": 54, 
                            "dur": 3978, 
                            "type": "note", 
                            "channel": 6
                        }
                    ]
                ], 
                [
                    219846, 
                    [
                        {
                            "pitch": 65, 
                            "t0": 219846, 
                            "v": 112, 
                            "dur": 3950, 
                            "type": "note", 
                            "channel": 6
                        }
                    ]
                ], 
                [
                    223992, 
                    [
                        {
                            "pitch": 60, 
                            "t0": 223992, 
                            "v": 92, 
                            "dur": 7962, 
                            "type": "note", 
                            "channel": 6
                        }
                    ]
                ], 
                [
                    223996, 
                    [
                        {
                            "pitch": 64, 
                            "t0": 223996, 
                            "v": 120, 
                            "dur": 11788, 
                            "type": "note", 
                            "channel": 6
                        }
                    ]
                ], 
                [
                    224000, 
                    [
                        {
                            "pitch": 57, 
                            "t0": 224000, 
                            "v": 76, 
                            "dur": 3888, 
                            "type": "note", 
                            "channel": 6
                        }
                    ]
                ], 
                [
                    228000, 
                    [
                        {
                            "pitch": 57, 
                            "t0": 228000, 
                            "v": 108, 
                            "dur": 3866, 
                            "type": "note", 
                            "channel": 6
                        }
                    ]
                ], 
                [
                    232012, 
                    [
                        {
                            "pitch": 60, 
                            "t0": 232012, 
                            "v": 100, 
                            "dur": 7564, 
                            "type": "note", 
                            "channel": 6
                        }
                    ]
                ], 
                [
                    232020, 
                    [
                        {
                            "pitch": 57, 
                            "t0": 232020, 
                            "v": 108, 
                            "dur": 7442, 
                            "type": "note", 
                            "channel": 6
                        }
                    ]
                ], 
                [
                    235858, 
                    [
                        {
                            "pitch": 64, 
                            "t0": 235858, 
                            "v": 88, 
                            "dur": 4384, 
                            "type": "note", 
                            "channel": 6
                        }
                    ]
                ], 
                [
                    238054, 
                    [
                        {
                            "pitch": 62, 
                            "t0": 238054, 
                            "v": 104, 
                            "dur": 15800, 
                            "type": "note", 
                            "channel": 6
                        }
                    ]
                ], 
                [
                    239826, 
                    [
                        {
                            "pitch": 55, 
                            "t0": 239826, 
                            "v": 104, 
                            "dur": 16008, 
                            "type": "note", 
                            "channel": 6
                        }
                    ]
                ], 
                [
                    239830, 
                    [
                        {
                            "pitch": 59, 
                            "t0": 239830, 
                            "v": 104, 
                            "dur": 16066, 
                            "type": "note", 
                            "channel": 6
                        }
                    ]
                ], 
                [
                    251796, 
                    [
                        {
                            "pitch": 60, 
                            "t0": 251796, 
                            "v": 88, 
                            "dur": 4050, 
                            "type": "note", 
                            "channel": 6
                        }
                    ]
                ], 
                [
                    254004, 
                    [
                        {
                            "pitch": 62, 
                            "t0": 254004, 
                            "v": 80, 
                            "dur": 1946, 
                            "type": "note", 
                            "channel": 6
                        }
                    ]
                ], 
                [
                    256008, 
                    [
                        {
                            "pitch": 57, 
                            "t0": 256008, 
                            "v": 100, 
                            "dur": 15758, 
                            "type": "note", 
                            "channel": 6
                        }
                    ]
                ], 
                [
                    256016, 
                    [
                        {
                            "pitch": 60, 
                            "t0": 256016, 
                            "v": 108, 
                            "dur": 15710, 
                            "type": "note", 
                            "channel": 6
                        }
                    ]
                ], 
                [
                    256042, 
                    [
                        {
                            "pitch": 64, 
                            "t0": 256042, 
                            "v": 104, 
                            "dur": 15674, 
                            "type": "note", 
                            "channel": 6
                        }
                    ]
                ], 
                [
                    256080, 
                    [
                        {
                            "pitch": 62, 
                            "t0": 256080, 
                            "v": 80, 
                            "dur": 90, 
                            "type": "note", 
                            "channel": 6
                        }
                    ]
                ], 
                [
                    264046, 
                    [
                        {
                            "pitch": 62, 
                            "t0": 264046, 
                            "v": 80, 
                            "dur": 3750, 
                            "type": "note", 
                            "channel": 6
                        }
                    ]
                ], 
                [
                    271842, 
                    [
                        {
                            "pitch": 57, 
                            "t0": 271842, 
                            "v": 68, 
                            "dur": 3874, 
                            "type": "note", 
                            "channel": 6
                        }
                    ]
                ], 
                [
                    271846, 
                    [
                        {
                            "pitch": 62, 
                            "t0": 271846, 
                            "v": 100, 
                            "dur": 3884, 
                            "type": "note", 
                            "channel": 6
                        }
                    ]
                ], 
                [
                    271854, 
                    [
                        {
                            "pitch": 65, 
                            "t0": 271854, 
                            "v": 112, 
                            "dur": 3850, 
                            "type": "note", 
                            "channel": 6
                        }
                    ]
                ], 
                [
                    275812, 
                    [
                        {
                            "pitch": 65, 
                            "t0": 275812, 
                            "v": 112, 
                            "dur": 4064, 
                            "type": "note", 
                            "channel": 6
                        }, 
                        {
                            "pitch": 62, 
                            "t0": 275812, 
                            "v": 84, 
                            "dur": 11950, 
                            "type": "note", 
                            "channel": 6
                        }
                    ]
                ], 
                [
                    275816, 
                    [
                        {
                            "pitch": 57, 
                            "t0": 275816, 
                            "v": 88, 
                            "dur": 7888, 
                            "type": "note", 
                            "channel": 6
                        }
                    ]
                ], 
                [
                    279976, 
                    [
                        {
                            "pitch": 65, 
                            "t0": 279976, 
                            "v": 84, 
                            "dur": 7782, 
                            "type": "note", 
                            "channel": 6
                        }
                    ]
                ], 
                [
                    283858, 
                    [
                        {
                            "pitch": 57, 
                            "t0": 283858, 
                            "v": 116, 
                            "dur": 7800, 
                            "type": "note", 
                            "channel": 6
                        }
                    ]
                ], 
                [
                    287892, 
                    [
                        {
                            "pitch": 60, 
                            "t0": 287892, 
                            "v": 108, 
                            "dur": 11838, 
                            "type": "note", 
                            "channel": 6
                        }
                    ]
                ], 
                [
                    287908, 
                    [
                        {
                            "pitch": 64, 
                            "t0": 287908, 
                            "v": 120, 
                            "dur": 7654, 
                            "type": "note", 
                            "channel": 6
                        }
                    ]
                ], 
                [
                    291838, 
                    [
                        {
                            "pitch": 57, 
                            "t0": 291838, 
                            "v": 80, 
                            "dur": 7846, 
                            "type": "note", 
                            "channel": 6
                        }
                    ]
                ], 
                [
                    291846, 
                    [
                        {
                            "pitch": 59, 
                            "t0": 291846, 
                            "v": 92, 
                            "dur": 304, 
                            "type": "note", 
                            "channel": 6
                        }
                    ]
                ], 
                [
                    295788, 
                    [
                        {
                            "pitch": 64, 
                            "t0": 295788, 
                            "v": 88, 
                            "dur": 3932, 
                            "type": "note", 
                            "channel": 6
                        }
                    ]
                ], 
                [
                    299804, 
                    [
                        {
                            "pitch": 60, 
                            "t0": 299804, 
                            "v": 104, 
                            "dur": 3892, 
                            "type": "note", 
                            "channel": 6
                        }
                    ]
                ], 
                [
                    299812, 
                    [
                        {
                            "pitch": 64, 
                            "t0": 299812, 
                            "v": 104, 
                            "dur": 3868, 
                            "type": "note", 
                            "channel": 6
                        }
                    ]
                ], 
                [
                    299820, 
                    [
                        {
                            "pitch": 57, 
                            "t0": 299820, 
                            "v": 108, 
                            "dur": 11938, 
                            "type": "note", 
                            "channel": 6
                        }
                    ]
                ], 
                [
                    303792, 
                    [
                        {
                            "pitch": 62, 
                            "t0": 303792, 
                            "v": 100, 
                            "dur": 8012, 
                            "type": "note", 
                            "channel": 6
                        }
                    ]
                ], 
                [
                    303808, 
                    [
                        {
                            "pitch": 65, 
                            "t0": 303808, 
                            "v": 120, 
                            "dur": 7988, 
                            "type": "note", 
                            "channel": 6
                        }
                    ]
                ], 
                [
                    307880, 
                    [
                        {
                            "pitch": 64, 
                            "t0": 307880, 
                            "v": 108, 
                            "dur": 1004, 
                            "type": "note", 
                            "channel": 6
                        }
                    ]
                ], 
                [
                    309330, 
                    [
                        {
                            "pitch": 64, 
                            "t0": 309330, 
                            "v": 56, 
                            "dur": 2354, 
                            "type": "note", 
                            "channel": 6
                        }
                    ]
                ], 
                [
                    311862, 
                    [
                        {
                            "pitch": 65, 
                            "t0": 311862, 
                            "v": 80, 
                            "dur": 3934, 
                            "type": "note", 
                            "channel": 6
                        }, 
                        {
                            "pitch": 62, 
                            "t0": 311862, 
                            "v": 96, 
                            "dur": 3950, 
                            "type": "note", 
                            "channel": 6
                        }
                    ]
                ], 
                [
                    311866, 
                    [
                        {
                            "pitch": 57, 
                            "t0": 311866, 
                            "v": 76, 
                            "dur": 3938, 
                            "type": "note", 
                            "channel": 6
                        }
                    ]
                ], 
                [
                    315888, 
                    [
                        {
                            "pitch": 62, 
                            "t0": 315888, 
                            "v": 80, 
                            "dur": 3774, 
                            "type": "note", 
                            "channel": 6
                        }
                    ]
                ], 
                [
                    315892, 
                    [
                        {
                            "pitch": 65, 
                            "t0": 315892, 
                            "v": 100, 
                            "dur": 3746, 
                            "type": "note", 
                            "channel": 6
                        }
                    ]
                ], 
                [
                    315896, 
                    [
                        {
                            "pitch": 57, 
                            "t0": 315896, 
                            "v": 76, 
                            "dur": 11734, 
                            "type": "note", 
                            "channel": 6
                        }
                    ]
                ], 
                [
                    319808, 
                    [
                        {
                            "pitch": 64, 
                            "t0": 319808, 
                            "v": 108, 
                            "dur": 7880, 
                            "type": "note", 
                            "channel": 6
                        }
                    ]
                ], 
                [
                    319812, 
                    [
                        {
                            "pitch": 60, 
                            "t0": 319812, 
                            "v": 100, 
                            "dur": 7872, 
                            "type": "note", 
                            "channel": 6
                        }
                    ]
                ], 
                [
                    327770, 
                    [
                        {
                            "pitch": 60, 
                            "t0": 327770, 
                            "v": 100, 
                            "dur": 4010, 
                            "type": "note", 
                            "channel": 6
                        }, 
                        {
                            "pitch": 64, 
                            "t0": 327770, 
                            "v": 104, 
                            "dur": 4026, 
                            "type": "note", 
                            "channel": 6
                        }
                    ]
                ], 
                [
                    327776, 
                    [
                        {
                            "pitch": 57, 
                            "t0": 327776, 
                            "v": 92, 
                            "dur": 4000, 
                            "type": "note", 
                            "channel": 6
                        }
                    ]
                ], 
                [
                    331884, 
                    [
                        {
                            "pitch": 60, 
                            "t0": 331884, 
                            "v": 104, 
                            "dur": 3866, 
                            "type": "note", 
                            "channel": 6
                        }
                    ]
                ], 
                [
                    331892, 
                    [
                        {
                            "pitch": 64, 
                            "t0": 331892, 
                            "v": 112, 
                            "dur": 3858, 
                            "type": "note", 
                            "channel": 6
                        }
                    ]
                ], 
                [
                    331896, 
                    [
                        {
                            "pitch": 57, 
                            "t0": 331896, 
                            "v": 100, 
                            "dur": 12058, 
                            "type": "note", 
                            "channel": 6
                        }
                    ]
                ], 
                [
                    335892, 
                    [
                        {
                            "pitch": 62, 
                            "t0": 335892, 
                            "v": 96, 
                            "dur": 8050, 
                            "type": "note", 
                            "channel": 6
                        }
                    ]
                ], 
                [
                    335896, 
                    [
                        {
                            "pitch": 65, 
                            "t0": 335896, 
                            "v": 104, 
                            "dur": 8062, 
                            "type": "note", 
                            "channel": 6
                        }
                    ]
                ], 
                [
                    344004, 
                    [
                        {
                            "pitch": 62, 
                            "t0": 344004, 
                            "v": 76, 
                            "dur": 7792, 
                            "type": "note", 
                            "channel": 6
                        }
                    ]
                ], 
                [
                    344008, 
                    [
                        {
                            "pitch": 57, 
                            "t0": 344008, 
                            "v": 72, 
                            "dur": 15780, 
                            "type": "note", 
                            "channel": 6
                        }
                    ]
                ], 
                [
                    344012, 
                    [
                        {
                            "pitch": 65, 
                            "t0": 344012, 
                            "v": 108, 
                            "dur": 7738, 
                            "type": "note", 
                            "channel": 6
                        }
                    ]
                ], 
                [
                    347812, 
                    [
                        {
                            "pitch": 64, 
                            "t0": 347812, 
                            "v": 108, 
                            "dur": 3850, 
                            "type": "note", 
                            "channel": 6
                        }
                    ]
                ], 
                [
                    351876, 
                    [
                        {
                            "pitch": 64, 
                            "t0": 351876, 
                            "v": 92, 
                            "dur": 7904, 
                            "type": "note", 
                            "channel": 6
                        }
                    ]
                ], 
                [
                    351888, 
                    [
                        {
                            "pitch": 60, 
                            "t0": 351888, 
                            "v": 104, 
                            "dur": 15778, 
                            "type": "note", 
                            "channel": 6
                        }
                    ]
                ], 
                [
                    351942, 
                    [
                        {
                            "pitch": 62, 
                            "t0": 351942, 
                            "v": 68, 
                            "dur": 74, 
                            "type": "note", 
                            "channel": 6
                        }
                    ]
                ], 
                [
                    359830, 
                    [
                        {
                            "pitch": 57, 
                            "t0": 359830, 
                            "v": 58, 
                            "dur": 7890, 
                            "type": "note", 
                            "channel": 6
                        }
                    ]
                ], 
                [
                    359850, 
                    [
                        {
                            "pitch": 64, 
                            "t0": 359850, 
                            "v": 112, 
                            "dur": 7812, 
                            "type": "note", 
                            "channel": 6
                        }
                    ]
                ], 
                [
                    367820, 
                    [
                        {
                            "pitch": 62, 
                            "t0": 367820, 
                            "v": 108, 
                            "dur": 8030, 
                            "type": "note", 
                            "channel": 6
                        }
                    ]
                ], 
                [
                    367826, 
                    [
                        {
                            "pitch": 57, 
                            "t0": 367826, 
                            "v": 80, 
                            "dur": 8036, 
                            "type": "note", 
                            "channel": 6
                        }
                    ]
                ], 
                [
                    367830, 
                    [
                        {
                            "pitch": 65, 
                            "t0": 367830, 
                            "v": 108, 
                            "dur": 8000, 
                            "type": "note", 
                            "channel": 6
                        }
                    ]
                ], 
                [
                    375934, 
                    [
                        {
                            "pitch": 57, 
                            "t0": 375934, 
                            "v": 88, 
                            "dur": 7954, 
                            "type": "note", 
                            "channel": 6
                        }
                    ]
                ], 
                [
                    375938, 
                    [
                        {
                            "pitch": 62, 
                            "t0": 375938, 
                            "v": 80, 
                            "dur": 7888, 
                            "type": "note", 
                            "channel": 6
                        }
                    ]
                ], 
                [
                    375942, 
                    [
                        {
                            "pitch": 65, 
                            "t0": 375942, 
                            "v": 120, 
                            "dur": 7904, 
                            "type": "note", 
                            "channel": 6
                        }
                    ]
                ], 
                [
                    383916, 
                    [
                        {
                            "pitch": 55, 
                            "t0": 383916, 
                            "v": 64, 
                            "dur": 15734, 
                            "type": "note", 
                            "channel": 6
                        }
                    ]
                ], 
                [
                    383950, 
                    [
                        {
                            "pitch": 57, 
                            "t0": 383950, 
                            "v": 33, 
                            "dur": 42, 
                            "type": "note", 
                            "channel": 6
                        }
                    ]
                ], 
                [
                    383958, 
                    [
                        {
                            "pitch": 59, 
                            "t0": 383958, 
                            "v": 108, 
                            "dur": 15708, 
                            "type": "note", 
                            "channel": 6
                        }
                    ]
                ], 
                [
                    383984, 
                    [
                        {
                            "pitch": 62, 
                            "t0": 383984, 
                            "v": 120, 
                            "dur": 15712, 
                            "type": "note", 
                            "channel": 6
                        }
                    ]
                ], 
                [
                    399784, 
                    [
                        {
                            "pitch": 60, 
                            "t0": 399784, 
                            "v": 104, 
                            "dur": 8142, 
                            "type": "note", 
                            "channel": 6
                        }, 
                        {
                            "pitch": 57, 
                            "t0": 399784, 
                            "v": 104, 
                            "dur": 12062, 
                            "type": "note", 
                            "channel": 6
                        }
                    ]
                ], 
                [
                    399796, 
                    [
                        {
                            "pitch": 64, 
                            "t0": 399796, 
                            "v": 108, 
                            "dur": 8104, 
                            "type": "note", 
                            "channel": 6
                        }
                    ]
                ], 
                [
                    407996, 
                    [
                        {
                            "pitch": 60, 
                            "t0": 407996, 
                            "v": 104, 
                            "dur": 3858, 
                            "type": "note", 
                            "channel": 6
                        }
                    ]
                ], 
                [
                    408000, 
                    [
                        {
                            "pitch": 64, 
                            "t0": 408000, 
                            "v": 108, 
                            "dur": 3842, 
                            "type": "note", 
                            "channel": 6
                        }
                    ]
                ], 
                [
                    411920, 
                    [
                        {
                            "pitch": 60, 
                            "t0": 411920, 
                            "v": 112, 
                            "dur": 3892, 
                            "type": "note", 
                            "channel": 6
                        }
                    ]
                ], 
                [
                    411926, 
                    [
                        {
                            "pitch": 64, 
                            "t0": 411926, 
                            "v": 112, 
                            "dur": 3882, 
                            "type": "note", 
                            "channel": 6
                        }, 
                        {
                            "pitch": 57, 
                            "t0": 411926, 
                            "v": 34, 
                            "dur": 11986, 
                            "type": "note", 
                            "channel": 6
                        }
                    ]
                ], 
                [
                    415916, 
                    [
                        {
                            "pitch": 62, 
                            "t0": 415916, 
                            "v": 100, 
                            "dur": 4168, 
                            "type": "note", 
                            "channel": 6
                        }
                    ]
                ], 
                [
                    415926, 
                    [
                        {
                            "pitch": 65, 
                            "t0": 415926, 
                            "v": 108, 
                            "dur": 4144, 
                            "type": "note", 
                            "channel": 6
                        }
                    ]
                ], 
                [
                    420130, 
                    [
                        {
                            "pitch": 65, 
                            "t0": 420130, 
                            "v": 104, 
                            "dur": 3774, 
                            "type": "note", 
                            "channel": 6
                        }, 
                        {
                            "pitch": 62, 
                            "t0": 420130, 
                            "v": 104, 
                            "dur": 3800, 
                            "type": "note", 
                            "channel": 6
                        }
                    ]
                ], 
                [
                    423958, 
                    [
                        {
                            "pitch": 62, 
                            "t0": 423958, 
                            "v": 92, 
                            "dur": 4104, 
                            "type": "note", 
                            "channel": 6
                        }
                    ]
                ], 
                [
                    423962, 
                    [
                        {
                            "pitch": 57, 
                            "t0": 423962, 
                            "v": 68, 
                            "dur": 7930, 
                            "type": "note", 
                            "channel": 6
                        }
                    ]
                ], 
                [
                    423966, 
                    [
                        {
                            "pitch": 65, 
                            "t0": 423966, 
                            "v": 96, 
                            "dur": 4076, 
                            "type": "note", 
                            "channel": 6
                        }
                    ]
                ], 
                [
                    428116, 
                    [
                        {
                            "pitch": 62, 
                            "t0": 428116, 
                            "v": 92, 
                            "dur": 3760, 
                            "type": "note", 
                            "channel": 6
                        }
                    ]
                ], 
                [
                    428134, 
                    [
                        {
                            "pitch": 65, 
                            "t0": 428134, 
                            "v": 116, 
                            "dur": 3724, 
                            "type": "note", 
                            "channel": 6
                        }
                    ]
                ], 
                [
                    428166, 
                    [
                        {
                            "pitch": 64, 
                            "t0": 428166, 
                            "v": 60, 
                            "dur": 146, 
                            "type": "note", 
                            "channel": 6
                        }
                    ]
                ], 
                [
                    431976, 
                    [
                        {
                            "pitch": 60, 
                            "t0": 431976, 
                            "v": 100, 
                            "dur": 532, 
                            "type": "note", 
                            "channel": 6
                        }
                    ]
                ], 
                [
                    431984, 
                    [
                        {
                            "pitch": 64, 
                            "t0": 431984, 
                            "v": 112, 
                            "dur": 462, 
                            "type": "note", 
                            "channel": 6
                        }
                    ]
                ], 
                [
                    431996, 
                    [
                        {
                            "pitch": 62, 
                            "t0": 431996, 
                            "v": 104, 
                            "dur": 7942, 
                            "type": "note", 
                            "channel": 6
                        }, 
                        {
                            "pitch": 55, 
                            "t0": 431996, 
                            "v": 84, 
                            "dur": 15754, 
                            "type": "note", 
                            "channel": 6
                        }
                    ]
                ], 
                [
                    432000, 
                    [
                        {
                            "pitch": 59, 
                            "t0": 432000, 
                            "v": 96, 
                            "dur": 15800, 
                            "type": "note", 
                            "channel": 6
                        }
                    ]
                ], 
                [
                    432004, 
                    [
                        {
                            "pitch": 57, 
                            "t0": 432004, 
                            "v": 84, 
                            "dur": 1372, 
                            "type": "note", 
                            "channel": 6
                        }
                    ]
                ], 
                [
                    439984, 
                    [
                        {
                            "pitch": 62, 
                            "t0": 439984, 
                            "v": 96, 
                            "dur": 7820, 
                            "type": "note", 
                            "channel": 6
                        }
                    ]
                ], 
                [
                    447908, 
                    [
                        {
                            "pitch": 60, 
                            "t0": 447908, 
                            "v": 108, 
                            "dur": 8000, 
                            "type": "note", 
                            "channel": 6
                        }
                    ]
                ], 
                [
                    447912, 
                    [
                        {
                            "pitch": 57, 
                            "t0": 447912, 
                            "v": 108, 
                            "dur": 7964, 
                            "type": "note", 
                            "channel": 6
                        }, 
                        {
                            "pitch": 64, 
                            "t0": 447912, 
                            "v": 120, 
                            "dur": 11864, 
                            "type": "note", 
                            "channel": 6
                        }
                    ]
                ], 
                [
                    455942, 
                    [
                        {
                            "pitch": 57, 
                            "t0": 455942, 
                            "v": 88, 
                            "dur": 3884, 
                            "type": "note", 
                            "channel": 6
                        }
                    ]
                ], 
                [
                    455946, 
                    [
                        {
                            "pitch": 60, 
                            "t0": 455946, 
                            "v": 84, 
                            "dur": 3846, 
                            "type": "note", 
                            "channel": 6
                        }
                    ]
                ], 
                [
                    459862, 
                    [
                        {
                            "pitch": 57, 
                            "t0": 459862, 
                            "v": 72, 
                            "dur": 4104, 
                            "type": "note", 
                            "channel": 6
                        }
                    ]
                ], 
                [
                    459870, 
                    [
                        {
                            "pitch": 60, 
                            "t0": 459870, 
                            "v": 88, 
                            "dur": 4014, 
                            "type": "note", 
                            "channel": 6
                        }
                    ]
                ], 
                [
                    459876, 
                    [
                        {
                            "pitch": 64, 
                            "t0": 459876, 
                            "v": 116, 
                            "dur": 3982, 
                            "type": "note", 
                            "channel": 6
                        }
                    ]
                ], 
                [
                    463992, 
                    [
                        {
                            "pitch": 62, 
                            "t0": 463992, 
                            "v": 112, 
                            "dur": 3766, 
                            "type": "note", 
                            "channel": 6
                        }
                    ]
                ], 
                [
                    463996, 
                    [
                        {
                            "pitch": 65, 
                            "t0": 463996, 
                            "v": 112, 
                            "dur": 3754, 
                            "type": "note", 
                            "channel": 6
                        }, 
                        {
                            "pitch": 57, 
                            "t0": 463996, 
                            "v": 76, 
                            "dur": 7720, 
                            "type": "note", 
                            "channel": 6
                        }
                    ]
                ], 
                [
                    467834, 
                    [
                        {
                            "pitch": 62, 
                            "t0": 467834, 
                            "v": 31, 
                            "dur": 3882, 
                            "type": "note", 
                            "channel": 6
                        }
                    ]
                ], 
                [
                    467838, 
                    [
                        {
                            "pitch": 65, 
                            "t0": 467838, 
                            "v": 112, 
                            "dur": 3870, 
                            "type": "note", 
                            "channel": 6
                        }
                    ]
                ], 
                [
                    467854, 
                    [
                        {
                            "pitch": 64, 
                            "t0": 467854, 
                            "v": 104, 
                            "dur": 130, 
                            "type": "note", 
                            "channel": 6
                        }
                    ]
                ], 
                [
                    471796, 
                    [
                        {
                            "pitch": 65, 
                            "t0": 471796, 
                            "v": 120, 
                            "dur": 4020, 
                            "type": "note", 
                            "channel": 6
                        }, 
                        {
                            "pitch": 62, 
                            "t0": 471796, 
                            "v": 35, 
                            "dur": 4046, 
                            "type": "note", 
                            "channel": 6
                        }
                    ]
                ], 
                [
                    471800, 
                    [
                        {
                            "pitch": 57, 
                            "t0": 471800, 
                            "v": 104, 
                            "dur": 8038, 
                            "type": "note", 
                            "channel": 6
                        }
                    ]
                ], 
                [
                    475926, 
                    [
                        {
                            "pitch": 62, 
                            "t0": 475926, 
                            "v": 26, 
                            "dur": 3878, 
                            "type": "note", 
                            "channel": 6
                        }
                    ]
                ], 
                [
                    475930, 
                    [
                        {
                            "pitch": 65, 
                            "t0": 475930, 
                            "v": 116, 
                            "dur": 3854, 
                            "type": "note", 
                            "channel": 6
                        }
                    ]
                ], 
                [
                    479912, 
                    [
                        {
                            "pitch": 62, 
                            "t0": 479912, 
                            "v": 120, 
                            "dur": 11992, 
                            "type": "note", 
                            "channel": 6
                        }
                    ]
                ], 
                [
                    479920, 
                    [
                        {
                            "pitch": 59, 
                            "t0": 479920, 
                            "v": 108, 
                            "dur": 11996, 
                            "type": "note", 
                            "channel": 6
                        }
                    ]
                ], 
                [
                    479930, 
                    [
                        {
                            "pitch": 55, 
                            "t0": 479930, 
                            "v": 92, 
                            "dur": 12000, 
                            "type": "note", 
                            "channel": 6
                        }
                    ]
                ], 
                [
                    491966, 
                    [
                        {
                            "pitch": 62, 
                            "t0": 491966, 
                            "v": 96, 
                            "dur": 3926, 
                            "type": "note", 
                            "channel": 6
                        }
                    ]
                ], 
                [
                    491970, 
                    [
                        {
                            "pitch": 59, 
                            "t0": 491970, 
                            "v": 100, 
                            "dur": 3906, 
                            "type": "note", 
                            "channel": 6
                        }
                    ]
                ], 
                [
                    491980, 
                    [
                        {
                            "pitch": 55, 
                            "t0": 491980, 
                            "v": 96, 
                            "dur": 3874, 
                            "type": "note", 
                            "channel": 6
                        }
                    ]
                ], 
                [
                    495962, 
                    [
                        {
                            "pitch": 60, 
                            "t0": 495962, 
                            "v": 100, 
                            "dur": 23904, 
                            "type": "note", 
                            "channel": 6
                        }
                    ]
                ], 
                [
                    495966, 
                    [
                        {
                            "pitch": 57, 
                            "t0": 495966, 
                            "v": 108, 
                            "dur": 7988, 
                            "type": "note", 
                            "channel": 6
                        }
                    ]
                ], 
                [
                    495970, 
                    [
                        {
                            "pitch": 64, 
                            "t0": 495970, 
                            "v": 108, 
                            "dur": 23876, 
                            "type": "note", 
                            "channel": 6
                        }
                    ]
                ], 
                [
                    504050, 
                    [
                        {
                            "pitch": 57, 
                            "t0": 504050, 
                            "v": 104, 
                            "dur": 15854, 
                            "type": "note", 
                            "channel": 6
                        }
                    ]
                ], 
                [
                    513466, 
                    [
                        {
                            "pitch": 45, 
                            "t0": 513466, 
                            "v": 1, 
                            "dur": 6404, 
                            "type": "note", 
                            "channel": 6
                        }
                    ]
                ], 
                [
                    519930, 
                    [
                        {
                            "pitch": 45, 
                            "t0": 519930, 
                            "v": 88, 
                            "dur": 8128, 
                            "type": "note", 
                            "channel": 6
                        }
                    ]
                ], 
                [
                    519938, 
                    [
                        {
                            "pitch": 60, 
                            "t0": 519938, 
                            "v": 88, 
                            "dur": 7838, 
                            "type": "note", 
                            "channel": 6
                        }
                    ]
                ], 
                [
                    519946, 
                    [
                        {
                            "pitch": 64, 
                            "t0": 519946, 
                            "v": 104, 
                            "dur": 7834, 
                            "type": "note", 
                            "channel": 6
                        }, 
                        {
                            "pitch": 57, 
                            "t0": 519946, 
                            "v": 52, 
                            "dur": 23812, 
                            "type": "note", 
                            "channel": 6
                        }
                    ]
                ], 
                [
                    527862, 
                    [
                        {
                            "pitch": 50, 
                            "t0": 527862, 
                            "v": 92, 
                            "dur": 7984, 
                            "type": "note", 
                            "channel": 6
                        }
                    ]
                ], 
                [
                    527900, 
                    [
                        {
                            "pitch": 62, 
                            "t0": 527900, 
                            "v": 108, 
                            "dur": 7934, 
                            "type": "note", 
                            "channel": 6
                        }
                    ]
                ], 
                [
                    527904, 
                    [
                        {
                            "pitch": 65, 
                            "t0": 527904, 
                            "v": 116, 
                            "dur": 7908, 
                            "type": "note", 
                            "channel": 6
                        }
                    ]
                ], 
                [
                    535900, 
                    [
                        {
                            "pitch": 50, 
                            "t0": 535900, 
                            "v": 88, 
                            "dur": 3980, 
                            "type": "note", 
                            "channel": 6
                        }, 
                        {
                            "pitch": 62, 
                            "t0": 535900, 
                            "v": 64, 
                            "dur": 5988, 
                            "type": "note", 
                            "channel": 6
                        }
                    ]
                ], 
                [
                    535908, 
                    [
                        {
                            "pitch": 65, 
                            "t0": 535908, 
                            "v": 104, 
                            "dur": 5968, 
                            "type": "note", 
                            "channel": 6
                        }
                    ]
                ], 
                [
                    535970, 
                    [
                        {
                            "pitch": 45, 
                            "t0": 535970, 
                            "v": 68, 
                            "dur": 84, 
                            "type": "note", 
                            "channel": 6
                        }
                    ]
                ], 
                [
                    539950, 
                    [
                        {
                            "pitch": 50, 
                            "t0": 539950, 
                            "v": 49, 
                            "dur": 4130, 
                            "type": "note", 
                            "channel": 6
                        }
                    ]
                ], 
                [
                    540034, 
                    [
                        {
                            "pitch": 45, 
                            "t0": 540034, 
                            "v": 49, 
                            "dur": 62, 
                            "type": "note", 
                            "channel": 6
                        }
                    ]
                ], 
                [
                    541942, 
                    [
                        {
                            "pitch": 62, 
                            "t0": 541942, 
                            "v": 84, 
                            "dur": 1758, 
                            "type": "note", 
                            "channel": 6
                        }
                    ]
                ], 
                [
                    541950, 
                    [
                        {
                            "pitch": 65, 
                            "t0": 541950, 
                            "v": 112, 
                            "dur": 1716, 
                            "type": "note", 
                            "channel": 6
                        }
                    ]
                ], 
                [
                    541992, 
                    [
                        {
                            "pitch": 64, 
                            "t0": 541992, 
                            "v": 68, 
                            "dur": 162, 
                            "type": "note", 
                            "channel": 6
                        }
                    ]
                ], 
                [
                    541996, 
                    [
                        {
                            "pitch": 60, 
                            "t0": 541996, 
                            "v": 80, 
                            "dur": 112, 
                            "type": "note", 
                            "channel": 6
                        }
                    ]
                ], 
                [
                    543862, 
                    [
                        {
                            "pitch": 59, 
                            "t0": 543862, 
                            "v": 112, 
                            "dur": 8318, 
                            "type": "note", 
                            "channel": 6
                        }
                    ]
                ], 
                [
                    543866, 
                    [
                        {
                            "pitch": 62, 
                            "t0": 543866, 
                            "v": 104, 
                            "dur": 8514, 
                            "type": "note", 
                            "channel": 6
                        }
                    ]
                ], 
                [
                    543880, 
                    [
                        {
                            "pitch": 55, 
                            "t0": 543880, 
                            "v": 84, 
                            "dur": 8136, 
                            "type": "note", 
                            "channel": 6
                        }
                    ]
                ], 
                [
                    543900, 
                    [
                        {
                            "pitch": 43, 
                            "t0": 543900, 
                            "v": 52, 
                            "dur": 8638, 
                            "type": "note", 
                            "channel": 6
                        }
                    ]
                ], 
                [
                    552254, 
                    [
                        {
                            "pitch": 60, 
                            "t0": 552254, 
                            "v": 52, 
                            "dur": 17016, 
                            "type": "note", 
                            "channel": 6
                        }, 
                        {
                            "pitch": 57, 
                            "t0": 552254, 
                            "v": 56, 
                            "dur": 17130, 
                            "type": "note", 
                            "channel": 6
                        }
                    ]
                ], 
                [
                    552292, 
                    [
                        {
                            "pitch": 64, 
                            "t0": 552292, 
                            "v": 47, 
                            "dur": 17078, 
                            "type": "note", 
                            "channel": 6
                        }
                    ]
                ], 
                [
                    552316, 
                    [
                        {
                            "pitch": 45, 
                            "t0": 552316, 
                            "v": 64, 
                            "dur": 17080, 
                            "type": "note", 
                            "channel": 6
                        }
                    ]
                ]
            ], 
            "instruments": [
                48
            ], 
            "tMax": 552316, 
            "channels": [
                6
            ], 
            "instrument": 48, 
            "numNotes": 213, 
            "type": "TrackObj"
        }, 
        {
            "trackName": "Instrument Track", 
            "seq": [
                [
                    0, 
                    [
                        {
                            "instrument": 45, 
                            "type": "programChange", 
                            "t0": 0, 
                            "channel": 7
                        }
                    ]
                ], 
                [
                    1516, 
                    [
                        {
                            "pitch": 40, 
                            "t0": 1516, 
                            "v": 48, 
                            "dur": 354, 
                            "type": "note", 
                            "channel": 7
                        }
                    ]
                ], 
                [
                    1988, 
                    [
                        {
                            "pitch": 45, 
                            "t0": 1988, 
                            "v": 100, 
                            "dur": 588, 
                            "type": "note", 
                            "channel": 7
                        }
                    ]
                ], 
                [
                    2534, 
                    [
                        {
                            "pitch": 40, 
                            "t0": 2534, 
                            "v": 80, 
                            "dur": 370, 
                            "type": "note", 
                            "channel": 7
                        }
                    ]
                ], 
                [
                    3516, 
                    [
                        {
                            "pitch": 40, 
                            "t0": 3516, 
                            "v": 56, 
                            "dur": 410, 
                            "type": "note", 
                            "channel": 7
                        }
                    ]
                ], 
                [
                    4026, 
                    [
                        {
                            "pitch": 43, 
                            "t0": 4026, 
                            "v": 92, 
                            "dur": 432, 
                            "type": "note", 
                            "channel": 7
                        }
                    ]
                ], 
                [
                    4534, 
                    [
                        {
                            "pitch": 38, 
                            "t0": 4534, 
                            "v": 96, 
                            "dur": 424, 
                            "type": "note", 
                            "channel": 7
                        }
                    ]
                ], 
                [
                    5538, 
                    [
                        {
                            "pitch": 40, 
                            "t0": 5538, 
                            "v": 64, 
                            "dur": 400, 
                            "type": "note", 
                            "channel": 7
                        }
                    ]
                ], 
                [
                    6080, 
                    [
                        {
                            "pitch": 45, 
                            "t0": 6080, 
                            "v": 104, 
                            "dur": 500, 
                            "type": "note", 
                            "channel": 7
                        }
                    ]
                ], 
                [
                    6520, 
                    [
                        {
                            "pitch": 40, 
                            "t0": 6520, 
                            "v": 88, 
                            "dur": 406, 
                            "type": "note", 
                            "channel": 7
                        }
                    ]
                ], 
                [
                    7500, 
                    [
                        {
                            "pitch": 40, 
                            "t0": 7500, 
                            "v": 50, 
                            "dur": 420, 
                            "type": "note", 
                            "channel": 7
                        }
                    ]
                ], 
                [
                    8000, 
                    [
                        {
                            "pitch": 43, 
                            "t0": 8000, 
                            "v": 96, 
                            "dur": 534, 
                            "type": "note", 
                            "channel": 7
                        }
                    ]
                ], 
                [
                    8488, 
                    [
                        {
                            "pitch": 38, 
                            "t0": 8488, 
                            "v": 92, 
                            "dur": 438, 
                            "type": "note", 
                            "channel": 7
                        }
                    ]
                ], 
                [
                    9580, 
                    [
                        {
                            "pitch": 40, 
                            "t0": 9580, 
                            "v": 76, 
                            "dur": 504, 
                            "type": "note", 
                            "channel": 7
                        }
                    ]
                ], 
                [
                    10076, 
                    [
                        {
                            "pitch": 45, 
                            "t0": 10076, 
                            "v": 92, 
                            "dur": 516, 
                            "type": "note", 
                            "channel": 7
                        }
                    ]
                ], 
                [
                    10504, 
                    [
                        {
                            "pitch": 40, 
                            "t0": 10504, 
                            "v": 64, 
                            "dur": 612, 
                            "type": "note", 
                            "channel": 7
                        }
                    ]
                ], 
                [
                    11500, 
                    [
                        {
                            "pitch": 40, 
                            "t0": 11500, 
                            "v": 76, 
                            "dur": 484, 
                            "type": "note", 
                            "channel": 7
                        }
                    ]
                ], 
                [
                    11988, 
                    [
                        {
                            "pitch": 43, 
                            "t0": 11988, 
                            "v": 100, 
                            "dur": 616, 
                            "type": "note", 
                            "channel": 7
                        }
                    ]
                ], 
                [
                    12520, 
                    [
                        {
                            "pitch": 38, 
                            "t0": 12520, 
                            "v": 92, 
                            "dur": 530, 
                            "type": "note", 
                            "channel": 7
                        }
                    ]
                ], 
                [
                    13596, 
                    [
                        {
                            "pitch": 40, 
                            "t0": 13596, 
                            "v": 60, 
                            "dur": 516, 
                            "type": "note", 
                            "channel": 7
                        }
                    ]
                ], 
                [
                    14050, 
                    [
                        {
                            "pitch": 45, 
                            "t0": 14050, 
                            "v": 64, 
                            "dur": 534, 
                            "type": "note", 
                            "channel": 7
                        }
                    ]
                ], 
                [
                    14476, 
                    [
                        {
                            "pitch": 40, 
                            "t0": 14476, 
                            "v": 88, 
                            "dur": 608, 
                            "type": "note", 
                            "channel": 7
                        }
                    ]
                ], 
                [
                    15550, 
                    [
                        {
                            "pitch": 38, 
                            "t0": 15550, 
                            "v": 76, 
                            "dur": 476, 
                            "type": "note", 
                            "channel": 7
                        }
                    ]
                ], 
                [
                    15596, 
                    [
                        {
                            "pitch": 40, 
                            "t0": 15596, 
                            "v": 50, 
                            "dur": 66, 
                            "type": "note", 
                            "channel": 7
                        }
                    ]
                ], 
                [
                    16050, 
                    [
                        {
                            "pitch": 43, 
                            "t0": 16050, 
                            "v": 72, 
                            "dur": 488, 
                            "type": "note", 
                            "channel": 7
                        }
                    ]
                ], 
                [
                    16466, 
                    [
                        {
                            "pitch": 38, 
                            "t0": 16466, 
                            "v": 76, 
                            "dur": 422, 
                            "type": "note", 
                            "channel": 7
                        }
                    ]
                ], 
                [
                    17576, 
                    [
                        {
                            "pitch": 40, 
                            "t0": 17576, 
                            "v": 58, 
                            "dur": 520, 
                            "type": "note", 
                            "channel": 7
                        }
                    ]
                ], 
                [
                    18070, 
                    [
                        {
                            "pitch": 45, 
                            "t0": 18070, 
                            "v": 72, 
                            "dur": 480, 
                            "type": "note", 
                            "channel": 7
                        }
                    ]
                ], 
                [
                    18504, 
                    [
                        {
                            "pitch": 40, 
                            "t0": 18504, 
                            "v": 104, 
                            "dur": 492, 
                            "type": "note", 
                            "channel": 7
                        }
                    ]
                ], 
                [
                    19508, 
                    [
                        {
                            "pitch": 40, 
                            "t0": 19508, 
                            "v": 68, 
                            "dur": 472, 
                            "type": "note", 
                            "channel": 7
                        }
                    ]
                ], 
                [
                    19988, 
                    [
                        {
                            "pitch": 43, 
                            "t0": 19988, 
                            "v": 100, 
                            "dur": 612, 
                            "type": "note", 
                            "channel": 7
                        }
                    ]
                ], 
                [
                    20500, 
                    [
                        {
                            "pitch": 38, 
                            "t0": 20500, 
                            "v": 104, 
                            "dur": 388, 
                            "type": "note", 
                            "channel": 7
                        }
                    ]
                ], 
                [
                    21530, 
                    [
                        {
                            "pitch": 40, 
                            "t0": 21530, 
                            "v": 76, 
                            "dur": 386, 
                            "type": "note", 
                            "channel": 7
                        }
                    ]
                ], 
                [
                    22026, 
                    [
                        {
                            "pitch": 45, 
                            "t0": 22026, 
                            "v": 92, 
                            "dur": 566, 
                            "type": "note", 
                            "channel": 7
                        }
                    ]
                ], 
                [
                    22480, 
                    [
                        {
                            "pitch": 40, 
                            "t0": 22480, 
                            "v": 96, 
                            "dur": 474, 
                            "type": "note", 
                            "channel": 7
                        }
                    ]
                ], 
                [
                    23550, 
                    [
                        {
                            "pitch": 40, 
                            "t0": 23550, 
                            "v": 60, 
                            "dur": 392, 
                            "type": "note", 
                            "channel": 7
                        }
                    ]
                ], 
                [
                    23992, 
                    [
                        {
                            "pitch": 43, 
                            "t0": 23992, 
                            "v": 96, 
                            "dur": 554, 
                            "type": "note", 
                            "channel": 7
                        }
                    ]
                ], 
                [
                    24470, 
                    [
                        {
                            "pitch": 38, 
                            "t0": 24470, 
                            "v": 96, 
                            "dur": 484, 
                            "type": "note", 
                            "channel": 7
                        }
                    ]
                ], 
                [
                    25550, 
                    [
                        {
                            "pitch": 40, 
                            "t0": 25550, 
                            "v": 64, 
                            "dur": 416, 
                            "type": "note", 
                            "channel": 7
                        }
                    ]
                ], 
                [
                    26038, 
                    [
                        {
                            "pitch": 45, 
                            "t0": 26038, 
                            "v": 92, 
                            "dur": 588, 
                            "type": "note", 
                            "channel": 7
                        }
                    ]
                ], 
                [
                    26516, 
                    [
                        {
                            "pitch": 40, 
                            "t0": 26516, 
                            "v": 92, 
                            "dur": 622, 
                            "type": "note", 
                            "channel": 7
                        }
                    ]
                ], 
                [
                    27512, 
                    [
                        {
                            "pitch": 40, 
                            "t0": 27512, 
                            "v": 76, 
                            "dur": 438, 
                            "type": "note", 
                            "channel": 7
                        }
                    ]
                ], 
                [
                    28012, 
                    [
                        {
                            "pitch": 43, 
                            "t0": 28012, 
                            "v": 80, 
                            "dur": 542, 
                            "type": "note", 
                            "channel": 7
                        }
                    ]
                ], 
                [
                    28462, 
                    [
                        {
                            "pitch": 38, 
                            "t0": 28462, 
                            "v": 72, 
                            "dur": 464, 
                            "type": "note", 
                            "channel": 7
                        }
                    ]
                ], 
                [
                    29526, 
                    [
                        {
                            "pitch": 38, 
                            "t0": 29526, 
                            "v": 72, 
                            "dur": 274, 
                            "type": "note", 
                            "channel": 7
                        }
                    ]
                ], 
                [
                    29530, 
                    [
                        {
                            "pitch": 40, 
                            "t0": 29530, 
                            "v": 41, 
                            "dur": 382, 
                            "type": "note", 
                            "channel": 7
                        }
                    ]
                ], 
                [
                    30008, 
                    [
                        {
                            "pitch": 45, 
                            "t0": 30008, 
                            "v": 80, 
                            "dur": 592, 
                            "type": "note", 
                            "channel": 7
                        }
                    ]
                ], 
                [
                    30488, 
                    [
                        {
                            "pitch": 40, 
                            "t0": 30488, 
                            "v": 92, 
                            "dur": 454, 
                            "type": "note", 
                            "channel": 7
                        }
                    ]
                ], 
                [
                    31470, 
                    [
                        {
                            "pitch": 40, 
                            "t0": 31470, 
                            "v": 52, 
                            "dur": 396, 
                            "type": "note", 
                            "channel": 7
                        }
                    ]
                ], 
                [
                    31976, 
                    [
                        {
                            "pitch": 43, 
                            "t0": 31976, 
                            "v": 100, 
                            "dur": 428, 
                            "type": "note", 
                            "channel": 7
                        }
                    ]
                ], 
                [
                    32388, 
                    [
                        {
                            "pitch": 38, 
                            "t0": 32388, 
                            "v": 76, 
                            "dur": 466, 
                            "type": "note", 
                            "channel": 7
                        }
                    ]
                ], 
                [
                    33408, 
                    [
                        {
                            "pitch": 40, 
                            "t0": 33408, 
                            "v": 72, 
                            "dur": 476, 
                            "type": "note", 
                            "channel": 7
                        }
                    ]
                ], 
                [
                    33988, 
                    [
                        {
                            "pitch": 45, 
                            "t0": 33988, 
                            "v": 88, 
                            "dur": 666, 
                            "type": "note", 
                            "channel": 7
                        }
                    ]
                ], 
                [
                    34516, 
                    [
                        {
                            "pitch": 40, 
                            "t0": 34516, 
                            "v": 96, 
                            "dur": 430, 
                            "type": "note", 
                            "channel": 7
                        }
                    ]
                ], 
                [
                    35492, 
                    [
                        {
                            "pitch": 40, 
                            "t0": 35492, 
                            "v": 58, 
                            "dur": 450, 
                            "type": "note", 
                            "channel": 7
                        }
                    ]
                ], 
                [
                    36016, 
                    [
                        {
                            "pitch": 43, 
                            "t0": 36016, 
                            "v": 104, 
                            "dur": 492, 
                            "type": "note", 
                            "channel": 7
                        }
                    ]
                ], 
                [
                    36520, 
                    [
                        {
                            "pitch": 38, 
                            "t0": 36520, 
                            "v": 100, 
                            "dur": 372, 
                            "type": "note", 
                            "channel": 7
                        }
                    ]
                ], 
                [
                    37504, 
                    [
                        {
                            "pitch": 40, 
                            "t0": 37504, 
                            "v": 80, 
                            "dur": 384, 
                            "type": "note", 
                            "channel": 7
                        }
                    ]
                ], 
                [
                    38084, 
                    [
                        {
                            "pitch": 45, 
                            "t0": 38084, 
                            "v": 112, 
                            "dur": 524, 
                            "type": "note", 
                            "channel": 7
                        }
                    ]
                ], 
                [
                    38508, 
                    [
                        {
                            "pitch": 40, 
                            "t0": 38508, 
                            "v": 104, 
                            "dur": 262, 
                            "type": "note", 
                            "channel": 7
                        }
                    ]
                ], 
                [
                    39480, 
                    [
                        {
                            "pitch": 40, 
                            "t0": 39480, 
                            "v": 64, 
                            "dur": 340, 
                            "type": "note", 
                            "channel": 7
                        }
                    ]
                ], 
                [
                    40000, 
                    [
                        {
                            "pitch": 43, 
                            "t0": 40000, 
                            "v": 108, 
                            "dur": 604, 
                            "type": "note", 
                            "channel": 7
                        }
                    ]
                ], 
                [
                    40462, 
                    [
                        {
                            "pitch": 38, 
                            "t0": 40462, 
                            "v": 96, 
                            "dur": 364, 
                            "type": "note", 
                            "channel": 7
                        }
                    ]
                ], 
                [
                    41446, 
                    [
                        {
                            "pitch": 40, 
                            "t0": 41446, 
                            "v": 64, 
                            "dur": 304, 
                            "type": "note", 
                            "channel": 7
                        }
                    ]
                ], 
                [
                    42046, 
                    [
                        {
                            "pitch": 45, 
                            "t0": 42046, 
                            "v": 108, 
                            "dur": 504, 
                            "type": "note", 
                            "channel": 7
                        }
                    ]
                ], 
                [
                    42484, 
                    [
                        {
                            "pitch": 40, 
                            "t0": 42484, 
                            "v": 100, 
                            "dur": 266, 
                            "type": "note", 
                            "channel": 7
                        }
                    ]
                ], 
                [
                    43416, 
                    [
                        {
                            "pitch": 40, 
                            "t0": 43416, 
                            "v": 56, 
                            "dur": 410, 
                            "type": "note", 
                            "channel": 7
                        }
                    ]
                ], 
                [
                    44004, 
                    [
                        {
                            "pitch": 43, 
                            "t0": 44004, 
                            "v": 116, 
                            "dur": 492, 
                            "type": "note", 
                            "channel": 7
                        }
                    ]
                ], 
                [
                    44462, 
                    [
                        {
                            "pitch": 38, 
                            "t0": 44462, 
                            "v": 108, 
                            "dur": 314, 
                            "type": "note", 
                            "channel": 7
                        }
                    ]
                ], 
                [
                    45562, 
                    [
                        {
                            "pitch": 40, 
                            "t0": 45562, 
                            "v": 76, 
                            "dur": 288, 
                            "type": "note", 
                            "channel": 7
                        }
                    ]
                ], 
                [
                    46084, 
                    [
                        {
                            "pitch": 45, 
                            "t0": 46084, 
                            "v": 116, 
                            "dur": 500, 
                            "type": "note", 
                            "channel": 7
                        }
                    ]
                ], 
                [
                    46542, 
                    [
                        {
                            "pitch": 40, 
                            "t0": 46542, 
                            "v": 100, 
                            "dur": 250, 
                            "type": "note", 
                            "channel": 7
                        }
                    ]
                ], 
                [
                    47488, 
                    [
                        {
                            "pitch": 40, 
                            "t0": 47488, 
                            "v": 64, 
                            "dur": 350, 
                            "type": "note", 
                            "channel": 7
                        }
                    ]
                ], 
                [
                    48054, 
                    [
                        {
                            "pitch": 43, 
                            "t0": 48054, 
                            "v": 116, 
                            "dur": 496, 
                            "type": "note", 
                            "channel": 7
                        }
                    ]
                ], 
                [
                    48466, 
                    [
                        {
                            "pitch": 38, 
                            "t0": 48466, 
                            "v": 80, 
                            "dur": 384, 
                            "type": "note", 
                            "channel": 7
                        }
                    ]
                ], 
                [
                    49516, 
                    [
                        {
                            "pitch": 40, 
                            "t0": 49516, 
                            "v": 92, 
                            "dur": 354, 
                            "type": "note", 
                            "channel": 7
                        }
                    ]
                ], 
                [
                    50062, 
                    [
                        {
                            "pitch": 45, 
                            "t0": 50062, 
                            "v": 112, 
                            "dur": 508, 
                            "type": "note", 
                            "channel": 7
                        }
                    ]
                ], 
                [
                    50512, 
                    [
                        {
                            "pitch": 40, 
                            "t0": 50512, 
                            "v": 96, 
                            "dur": 268, 
                            "type": "note", 
                            "channel": 7
                        }
                    ]
                ], 
                [
                    51492, 
                    [
                        {
                            "pitch": 40, 
                            "t0": 51492, 
                            "v": 64, 
                            "dur": 358, 
                            "type": "note", 
                            "channel": 7
                        }
                    ]
                ], 
                [
                    52030, 
                    [
                        {
                            "pitch": 43, 
                            "t0": 52030, 
                            "v": 112, 
                            "dur": 478, 
                            "type": "note", 
                            "channel": 7
                        }
                    ]
                ], 
                [
                    52054, 
                    [
                        {
                            "pitch": 41, 
                            "t0": 52054, 
                            "v": 84, 
                            "dur": 88, 
                            "type": "note", 
                            "channel": 7
                        }
                    ]
                ], 
                [
                    52470, 
                    [
                        {
                            "pitch": 38, 
                            "t0": 52470, 
                            "v": 100, 
                            "dur": 360, 
                            "type": "note", 
                            "channel": 7
                        }
                    ]
                ], 
                [
                    53542, 
                    [
                        {
                            "pitch": 40, 
                            "t0": 53542, 
                            "v": 19, 
                            "dur": 384, 
                            "type": "note", 
                            "channel": 7
                        }
                    ]
                ], 
                [
                    53592, 
                    [
                        {
                            "pitch": 41, 
                            "t0": 53592, 
                            "v": 20, 
                            "dur": 274, 
                            "type": "note", 
                            "channel": 7
                        }
                    ]
                ], 
                [
                    54066, 
                    [
                        {
                            "pitch": 45, 
                            "t0": 54066, 
                            "v": 88, 
                            "dur": 592, 
                            "type": "note", 
                            "channel": 7
                        }
                    ]
                ], 
                [
                    54542, 
                    [
                        {
                            "pitch": 40, 
                            "t0": 54542, 
                            "v": 96, 
                            "dur": 308, 
                            "type": "note", 
                            "channel": 7
                        }
                    ]
                ], 
                [
                    55508, 
                    [
                        {
                            "pitch": 40, 
                            "t0": 55508, 
                            "v": 60, 
                            "dur": 426, 
                            "type": "note", 
                            "channel": 7
                        }
                    ]
                ], 
                [
                    56046, 
                    [
                        {
                            "pitch": 43, 
                            "t0": 56046, 
                            "v": 108, 
                            "dur": 550, 
                            "type": "note", 
                            "channel": 7
                        }
                    ]
                ], 
                [
                    56496, 
                    [
                        {
                            "pitch": 38, 
                            "t0": 56496, 
                            "v": 104, 
                            "dur": 304, 
                            "type": "note", 
                            "channel": 7
                        }
                    ]
                ], 
                [
                    57520, 
                    [
                        {
                            "pitch": 40, 
                            "t0": 57520, 
                            "v": 76, 
                            "dur": 388, 
                            "type": "note", 
                            "channel": 7
                        }
                    ]
                ], 
                [
                    58042, 
                    [
                        {
                            "pitch": 45, 
                            "t0": 58042, 
                            "v": 100, 
                            "dur": 600, 
                            "type": "note", 
                            "channel": 7
                        }
                    ]
                ], 
                [
                    58520, 
                    [
                        {
                            "pitch": 40, 
                            "t0": 58520, 
                            "v": 92, 
                            "dur": 334, 
                            "type": "note", 
                            "channel": 7
                        }
                    ]
                ], 
                [
                    59500, 
                    [
                        {
                            "pitch": 40, 
                            "t0": 59500, 
                            "v": 60, 
                            "dur": 446, 
                            "type": "note", 
                            "channel": 7
                        }
                    ]
                ], 
                [
                    60030, 
                    [
                        {
                            "pitch": 43, 
                            "t0": 60030, 
                            "v": 104, 
                            "dur": 524, 
                            "type": "note", 
                            "channel": 7
                        }
                    ]
                ], 
                [
                    60446, 
                    [
                        {
                            "pitch": 38, 
                            "t0": 60446, 
                            "v": 88, 
                            "dur": 354, 
                            "type": "note", 
                            "channel": 7
                        }
                    ]
                ], 
                [
                    61520, 
                    [
                        {
                            "pitch": 40, 
                            "t0": 61520, 
                            "v": 76, 
                            "dur": 434, 
                            "type": "note", 
                            "channel": 7
                        }
                    ]
                ], 
                [
                    62054, 
                    [
                        {
                            "pitch": 45, 
                            "t0": 62054, 
                            "v": 92, 
                            "dur": 588, 
                            "type": "note", 
                            "channel": 7
                        }
                    ]
                ], 
                [
                    62508, 
                    [
                        {
                            "pitch": 40, 
                            "t0": 62508, 
                            "v": 72, 
                            "dur": 296, 
                            "type": "note", 
                            "channel": 7
                        }
                    ]
                ], 
                [
                    63442, 
                    [
                        {
                            "pitch": 40, 
                            "t0": 63442, 
                            "v": 60, 
                            "dur": 428, 
                            "type": "note", 
                            "channel": 7
                        }
                    ]
                ], 
                [
                    63966, 
                    [
                        {
                            "pitch": 43, 
                            "t0": 63966, 
                            "v": 92, 
                            "dur": 496, 
                            "type": "note", 
                            "channel": 7
                        }
                    ]
                ], 
                [
                    64434, 
                    [
                        {
                            "pitch": 40, 
                            "t0": 64434, 
                            "v": 68, 
                            "dur": 236, 
                            "type": "note", 
                            "channel": 7
                        }
                    ]
                ], 
                [
                    64966, 
                    [
                        {
                            "pitch": 38, 
                            "t0": 64966, 
                            "v": 100, 
                            "dur": 492, 
                            "type": "note", 
                            "channel": 7
                        }
                    ]
                ], 
                [
                    66070, 
                    [
                        {
                            "pitch": 40, 
                            "t0": 66070, 
                            "v": 96, 
                            "dur": 406, 
                            "type": "note", 
                            "channel": 7
                        }
                    ]
                ], 
                [
                    66516, 
                    [
                        {
                            "pitch": 45, 
                            "t0": 66516, 
                            "v": 76, 
                            "dur": 276, 
                            "type": "note", 
                            "channel": 7
                        }
                    ]
                ], 
                [
                    67484, 
                    [
                        {
                            "pitch": 40, 
                            "t0": 67484, 
                            "v": 72, 
                            "dur": 386, 
                            "type": "note", 
                            "channel": 7
                        }
                    ]
                ], 
                [
                    68000, 
                    [
                        {
                            "pitch": 43, 
                            "t0": 68000, 
                            "v": 108, 
                            "dur": 488, 
                            "type": "note", 
                            "channel": 7
                        }
                    ]
                ], 
                [
                    68500, 
                    [
                        {
                            "pitch": 38, 
                            "t0": 68500, 
                            "v": 104, 
                            "dur": 388, 
                            "type": "note", 
                            "channel": 7
                        }
                    ]
                ], 
                [
                    69576, 
                    [
                        {
                            "pitch": 40, 
                            "t0": 69576, 
                            "v": 100, 
                            "dur": 374, 
                            "type": "note", 
                            "channel": 7
                        }
                    ]
                ], 
                [
                    70066, 
                    [
                        {
                            "pitch": 45, 
                            "t0": 70066, 
                            "v": 112, 
                            "dur": 622, 
                            "type": "note", 
                            "channel": 7
                        }
                    ]
                ], 
                [
                    70558, 
                    [
                        {
                            "pitch": 40, 
                            "t0": 70558, 
                            "v": 108, 
                            "dur": 350, 
                            "type": "note", 
                            "channel": 7
                        }
                    ]
                ], 
                [
                    71520, 
                    [
                        {
                            "pitch": 40, 
                            "t0": 71520, 
                            "v": 96, 
                            "dur": 322, 
                            "type": "note", 
                            "channel": 7
                        }
                    ]
                ], 
                [
                    72016, 
                    [
                        {
                            "pitch": 43, 
                            "t0": 72016, 
                            "v": 116, 
                            "dur": 638, 
                            "type": "note", 
                            "channel": 7
                        }
                    ]
                ], 
                [
                    72508, 
                    [
                        {
                            "pitch": 38, 
                            "t0": 72508, 
                            "v": 116, 
                            "dur": 342, 
                            "type": "note", 
                            "channel": 7
                        }
                    ]
                ], 
                [
                    73616, 
                    [
                        {
                            "pitch": 40, 
                            "t0": 73616, 
                            "v": 104, 
                            "dur": 360, 
                            "type": "note", 
                            "channel": 7
                        }
                    ]
                ], 
                [
                    74112, 
                    [
                        {
                            "pitch": 45, 
                            "t0": 74112, 
                            "v": 116, 
                            "dur": 554, 
                            "type": "note", 
                            "channel": 7
                        }
                    ]
                ], 
                [
                    74576, 
                    [
                        {
                            "pitch": 40, 
                            "t0": 74576, 
                            "v": 108, 
                            "dur": 374, 
                            "type": "note", 
                            "channel": 7
                        }
                    ]
                ], 
                [
                    75476, 
                    [
                        {
                            "pitch": 40, 
                            "t0": 75476, 
                            "v": 104, 
                            "dur": 358, 
                            "type": "note", 
                            "channel": 7
                        }
                    ]
                ], 
                [
                    75962, 
                    [
                        {
                            "pitch": 43, 
                            "t0": 75962, 
                            "v": 116, 
                            "dur": 630, 
                            "type": "note", 
                            "channel": 7
                        }
                    ]
                ], 
                [
                    76450, 
                    [
                        {
                            "pitch": 38, 
                            "t0": 76450, 
                            "v": 108, 
                            "dur": 396, 
                            "type": "note", 
                            "channel": 7
                        }
                    ]
                ], 
                [
                    77538, 
                    [
                        {
                            "pitch": 40, 
                            "t0": 77538, 
                            "v": 108, 
                            "dur": 362, 
                            "type": "note", 
                            "channel": 7
                        }
                    ]
                ], 
                [
                    78042, 
                    [
                        {
                            "pitch": 45, 
                            "t0": 78042, 
                            "v": 116, 
                            "dur": 600, 
                            "type": "note", 
                            "channel": 7
                        }
                    ]
                ], 
                [
                    78520, 
                    [
                        {
                            "pitch": 40, 
                            "t0": 78520, 
                            "v": 112, 
                            "dur": 392, 
                            "type": "note", 
                            "channel": 7
                        }
                    ]
                ], 
                [
                    79470, 
                    [
                        {
                            "pitch": 40, 
                            "t0": 79470, 
                            "v": 80, 
                            "dur": 338, 
                            "type": "note", 
                            "channel": 7
                        }
                    ]
                ], 
                [
                    79984, 
                    [
                        {
                            "pitch": 43, 
                            "t0": 79984, 
                            "v": 112, 
                            "dur": 624, 
                            "type": "note", 
                            "channel": 7
                        }
                    ]
                ], 
                [
                    80466, 
                    [
                        {
                            "pitch": 38, 
                            "t0": 80466, 
                            "v": 112, 
                            "dur": 372, 
                            "type": "note", 
                            "channel": 7
                        }
                    ]
                ], 
                [
                    81500, 
                    [
                        {
                            "pitch": 40, 
                            "t0": 81500, 
                            "v": 96, 
                            "dur": 366, 
                            "type": "note", 
                            "channel": 7
                        }
                    ]
                ], 
                [
                    82004, 
                    [
                        {
                            "pitch": 45, 
                            "t0": 82004, 
                            "v": 116, 
                            "dur": 596, 
                            "type": "note", 
                            "channel": 7
                        }
                    ]
                ], 
                [
                    82496, 
                    [
                        {
                            "pitch": 40, 
                            "t0": 82496, 
                            "v": 108, 
                            "dur": 366, 
                            "type": "note", 
                            "channel": 7
                        }
                    ]
                ], 
                [
                    83500, 
                    [
                        {
                            "pitch": 40, 
                            "t0": 83500, 
                            "v": 100, 
                            "dur": 338, 
                            "type": "note", 
                            "channel": 7
                        }
                    ]
                ], 
                [
                    84000, 
                    [
                        {
                            "pitch": 43, 
                            "t0": 84000, 
                            "v": 120, 
                            "dur": 520, 
                            "type": "note", 
                            "channel": 7
                        }
                    ]
                ], 
                [
                    84504, 
                    [
                        {
                            "pitch": 38, 
                            "t0": 84504, 
                            "v": 108, 
                            "dur": 516, 
                            "type": "note", 
                            "channel": 7
                        }
                    ]
                ], 
                [
                    85534, 
                    [
                        {
                            "pitch": 40, 
                            "t0": 85534, 
                            "v": 108, 
                            "dur": 396, 
                            "type": "note", 
                            "channel": 7
                        }
                    ]
                ], 
                [
                    86020, 
                    [
                        {
                            "pitch": 45, 
                            "t0": 86020, 
                            "v": 112, 
                            "dur": 560, 
                            "type": "note", 
                            "channel": 7
                        }
                    ]
                ], 
                [
                    86516, 
                    [
                        {
                            "pitch": 40, 
                            "t0": 86516, 
                            "v": 112, 
                            "dur": 464, 
                            "type": "note", 
                            "channel": 7
                        }
                    ]
                ], 
                [
                    87550, 
                    [
                        {
                            "pitch": 40, 
                            "t0": 87550, 
                            "v": 96, 
                            "dur": 384, 
                            "type": "note", 
                            "channel": 7
                        }
                    ]
                ], 
                [
                    88034, 
                    [
                        {
                            "pitch": 43, 
                            "t0": 88034, 
                            "v": 116, 
                            "dur": 500, 
                            "type": "note", 
                            "channel": 7
                        }
                    ]
                ], 
                [
                    88512, 
                    [
                        {
                            "pitch": 38, 
                            "t0": 88512, 
                            "v": 112, 
                            "dur": 468, 
                            "type": "note", 
                            "channel": 7
                        }
                    ]
                ], 
                [
                    89554, 
                    [
                        {
                            "pitch": 40, 
                            "t0": 89554, 
                            "v": 100, 
                            "dur": 362, 
                            "type": "note", 
                            "channel": 7
                        }
                    ]
                ], 
                [
                    89566, 
                    [
                        {
                            "pitch": 41, 
                            "t0": 89566, 
                            "v": 100, 
                            "dur": 288, 
                            "type": "note", 
                            "channel": 7
                        }
                    ]
                ], 
                [
                    90062, 
                    [
                        {
                            "pitch": 45, 
                            "t0": 90062, 
                            "v": 88, 
                            "dur": 554, 
                            "type": "note", 
                            "channel": 7
                        }
                    ]
                ], 
                [
                    90070, 
                    [
                        {
                            "pitch": 47, 
                            "t0": 90070, 
                            "v": 88, 
                            "dur": 384, 
                            "type": "note", 
                            "channel": 7
                        }
                    ]
                ], 
                [
                    90538, 
                    [
                        {
                            "pitch": 40, 
                            "t0": 90538, 
                            "v": 108, 
                            "dur": 478, 
                            "type": "note", 
                            "channel": 7
                        }
                    ]
                ], 
                [
                    91542, 
                    [
                        {
                            "pitch": 40, 
                            "t0": 91542, 
                            "v": 92, 
                            "dur": 358, 
                            "type": "note", 
                            "channel": 7
                        }
                    ]
                ], 
                [
                    92012, 
                    [
                        {
                            "pitch": 43, 
                            "t0": 92012, 
                            "v": 104, 
                            "dur": 592, 
                            "type": "note", 
                            "channel": 7
                        }
                    ]
                ], 
                [
                    92034, 
                    [
                        {
                            "pitch": 45, 
                            "t0": 92034, 
                            "v": 72, 
                            "dur": 186, 
                            "type": "note", 
                            "channel": 7
                        }
                    ]
                ], 
                [
                    92476, 
                    [
                        {
                            "pitch": 38, 
                            "t0": 92476, 
                            "v": 112, 
                            "dur": 412, 
                            "type": "note", 
                            "channel": 7
                        }
                    ]
                ], 
                [
                    93558, 
                    [
                        {
                            "pitch": 40, 
                            "t0": 93558, 
                            "v": 104, 
                            "dur": 434, 
                            "type": "note", 
                            "channel": 7
                        }
                    ]
                ], 
                [
                    94070, 
                    [
                        {
                            "pitch": 45, 
                            "t0": 94070, 
                            "v": 108, 
                            "dur": 646, 
                            "type": "note", 
                            "channel": 7
                        }
                    ]
                ], 
                [
                    94588, 
                    [
                        {
                            "pitch": 40, 
                            "t0": 94588, 
                            "v": 112, 
                            "dur": 404, 
                            "type": "note", 
                            "channel": 7
                        }
                    ]
                ], 
                [
                    95534, 
                    [
                        {
                            "pitch": 40, 
                            "t0": 95534, 
                            "v": 72, 
                            "dur": 400, 
                            "type": "note", 
                            "channel": 7
                        }
                    ]
                ], 
                [
                    96008, 
                    [
                        {
                            "pitch": 43, 
                            "t0": 96008, 
                            "v": 112, 
                            "dur": 672, 
                            "type": "note", 
                            "channel": 7
                        }
                    ]
                ], 
                [
                    96500, 
                    [
                        {
                            "pitch": 38, 
                            "t0": 96500, 
                            "v": 112, 
                            "dur": 476, 
                            "type": "note", 
                            "channel": 7
                        }
                    ]
                ], 
                [
                    97576, 
                    [
                        {
                            "pitch": 40, 
                            "t0": 97576, 
                            "v": 100, 
                            "dur": 382, 
                            "type": "note", 
                            "channel": 7
                        }
                    ]
                ], 
                [
                    98046, 
                    [
                        {
                            "pitch": 45, 
                            "t0": 98046, 
                            "v": 112, 
                            "dur": 550, 
                            "type": "note", 
                            "channel": 7
                        }
                    ]
                ], 
                [
                    98504, 
                    [
                        {
                            "pitch": 40, 
                            "t0": 98504, 
                            "v": 108, 
                            "dur": 458, 
                            "type": "note", 
                            "channel": 7
                        }
                    ]
                ], 
                [
                    99492, 
                    [
                        {
                            "pitch": 40, 
                            "t0": 99492, 
                            "v": 64, 
                            "dur": 392, 
                            "type": "note", 
                            "channel": 7
                        }
                    ]
                ], 
                [
                    99984, 
                    [
                        {
                            "pitch": 43, 
                            "t0": 99984, 
                            "v": 116, 
                            "dur": 624, 
                            "type": "note", 
                            "channel": 7
                        }
                    ]
                ], 
                [
                    100450, 
                    [
                        {
                            "pitch": 38, 
                            "t0": 100450, 
                            "v": 112, 
                            "dur": 496, 
                            "type": "note", 
                            "channel": 7
                        }
                    ]
                ], 
                [
                    101538, 
                    [
                        {
                            "pitch": 40, 
                            "t0": 101538, 
                            "v": 96, 
                            "dur": 416, 
                            "type": "note", 
                            "channel": 7
                        }
                    ]
                ], 
                [
                    102000, 
                    [
                        {
                            "pitch": 45, 
                            "t0": 102000, 
                            "v": 108, 
                            "dur": 638, 
                            "type": "note", 
                            "channel": 7
                        }
                    ]
                ], 
                [
                    102508, 
                    [
                        {
                            "pitch": 40, 
                            "t0": 102508, 
                            "v": 104, 
                            "dur": 526, 
                            "type": "note", 
                            "channel": 7
                        }
                    ]
                ], 
                [
                    103492, 
                    [
                        {
                            "pitch": 40, 
                            "t0": 103492, 
                            "v": 88, 
                            "dur": 404, 
                            "type": "note", 
                            "channel": 7
                        }
                    ]
                ], 
                [
                    103962, 
                    [
                        {
                            "pitch": 43, 
                            "t0": 103962, 
                            "v": 116, 
                            "dur": 614, 
                            "type": "note", 
                            "channel": 7
                        }
                    ]
                ], 
                [
                    104438, 
                    [
                        {
                            "pitch": 38, 
                            "t0": 104438, 
                            "v": 100, 
                            "dur": 524, 
                            "type": "note", 
                            "channel": 7
                        }
                    ]
                ], 
                [
                    105496, 
                    [
                        {
                            "pitch": 40, 
                            "t0": 105496, 
                            "v": 76, 
                            "dur": 442, 
                            "type": "note", 
                            "channel": 7
                        }
                    ]
                ], 
                [
                    106000, 
                    [
                        {
                            "pitch": 45, 
                            "t0": 106000, 
                            "v": 112, 
                            "dur": 616, 
                            "type": "note", 
                            "channel": 7
                        }
                    ]
                ], 
                [
                    106500, 
                    [
                        {
                            "pitch": 40, 
                            "t0": 106500, 
                            "v": 92, 
                            "dur": 430, 
                            "type": "note", 
                            "channel": 7
                        }
                    ]
                ], 
                [
                    107488, 
                    [
                        {
                            "pitch": 40, 
                            "t0": 107488, 
                            "v": 76, 
                            "dur": 450, 
                            "type": "note", 
                            "channel": 7
                        }
                    ]
                ], 
                [
                    108000, 
                    [
                        {
                            "pitch": 43, 
                            "t0": 108000, 
                            "v": 112, 
                            "dur": 612, 
                            "type": "note", 
                            "channel": 7
                        }
                    ]
                ], 
                [
                    108480, 
                    [
                        {
                            "pitch": 38, 
                            "t0": 108480, 
                            "v": 92, 
                            "dur": 504, 
                            "type": "note", 
                            "channel": 7
                        }
                    ]
                ], 
                [
                    109550, 
                    [
                        {
                            "pitch": 40, 
                            "t0": 109550, 
                            "v": 96, 
                            "dur": 430, 
                            "type": "note", 
                            "channel": 7
                        }
                    ]
                ], 
                [
                    110062, 
                    [
                        {
                            "pitch": 45, 
                            "t0": 110062, 
                            "v": 112, 
                            "dur": 538, 
                            "type": "note", 
                            "channel": 7
                        }
                    ]
                ], 
                [
                    110516, 
                    [
                        {
                            "pitch": 40, 
                            "t0": 110516, 
                            "v": 88, 
                            "dur": 464, 
                            "type": "note", 
                            "channel": 7
                        }
                    ]
                ], 
                [
                    111592, 
                    [
                        {
                            "pitch": 40, 
                            "t0": 111592, 
                            "v": 88, 
                            "dur": 370, 
                            "type": "note", 
                            "channel": 7
                        }
                    ]
                ], 
                [
                    112054, 
                    [
                        {
                            "pitch": 43, 
                            "t0": 112054, 
                            "v": 100, 
                            "dur": 708, 
                            "type": "note", 
                            "channel": 7
                        }
                    ]
                ], 
                [
                    112580, 
                    [
                        {
                            "pitch": 38, 
                            "t0": 112580, 
                            "v": 108, 
                            "dur": 420, 
                            "type": "note", 
                            "channel": 7
                        }
                    ]
                ], 
                [
                    113570, 
                    [
                        {
                            "pitch": 40, 
                            "t0": 113570, 
                            "v": 96, 
                            "dur": 450, 
                            "type": "note", 
                            "channel": 7
                        }
                    ]
                ], 
                [
                    114042, 
                    [
                        {
                            "pitch": 45, 
                            "t0": 114042, 
                            "v": 112, 
                            "dur": 616, 
                            "type": "note", 
                            "channel": 7
                        }
                    ]
                ], 
                [
                    114534, 
                    [
                        {
                            "pitch": 40, 
                            "t0": 114534, 
                            "v": 104, 
                            "dur": 404, 
                            "type": "note", 
                            "channel": 7
                        }
                    ]
                ], 
                [
                    115600, 
                    [
                        {
                            "pitch": 40, 
                            "t0": 115600, 
                            "v": 68, 
                            "dur": 358, 
                            "type": "note", 
                            "channel": 7
                        }
                    ]
                ], 
                [
                    116020, 
                    [
                        {
                            "pitch": 43, 
                            "t0": 116020, 
                            "v": 100, 
                            "dur": 634, 
                            "type": "note", 
                            "channel": 7
                        }
                    ]
                ], 
                [
                    116558, 
                    [
                        {
                            "pitch": 38, 
                            "t0": 116558, 
                            "v": 112, 
                            "dur": 442, 
                            "type": "note", 
                            "channel": 7
                        }
                    ]
                ], 
                [
                    117562, 
                    [
                        {
                            "pitch": 40, 
                            "t0": 117562, 
                            "v": 100, 
                            "dur": 414, 
                            "type": "note", 
                            "channel": 7
                        }
                    ]
                ], 
                [
                    118038, 
                    [
                        {
                            "pitch": 45, 
                            "t0": 118038, 
                            "v": 112, 
                            "dur": 516, 
                            "type": "note", 
                            "channel": 7
                        }
                    ]
                ], 
                [
                    118530, 
                    [
                        {
                            "pitch": 40, 
                            "t0": 118530, 
                            "v": 104, 
                            "dur": 400, 
                            "type": "note", 
                            "channel": 7
                        }
                    ]
                ], 
                [
                    119504, 
                    [
                        {
                            "pitch": 40, 
                            "t0": 119504, 
                            "v": 60, 
                            "dur": 388, 
                            "type": "note", 
                            "channel": 7
                        }
                    ]
                ], 
                [
                    119966, 
                    [
                        {
                            "pitch": 43, 
                            "t0": 119966, 
                            "v": 108, 
                            "dur": 530, 
                            "type": "note", 
                            "channel": 7
                        }
                    ]
                ], 
                [
                    120458, 
                    [
                        {
                            "pitch": 38, 
                            "t0": 120458, 
                            "v": 108, 
                            "dur": 484, 
                            "type": "note", 
                            "channel": 7
                        }
                    ]
                ], 
                [
                    121550, 
                    [
                        {
                            "pitch": 40, 
                            "t0": 121550, 
                            "v": 96, 
                            "dur": 400, 
                            "type": "note", 
                            "channel": 7
                        }
                    ]
                ], 
                [
                    122008, 
                    [
                        {
                            "pitch": 45, 
                            "t0": 122008, 
                            "v": 112, 
                            "dur": 546, 
                            "type": "note", 
                            "channel": 7
                        }
                    ]
                ], 
                [
                    122500, 
                    [
                        {
                            "pitch": 40, 
                            "t0": 122500, 
                            "v": 100, 
                            "dur": 492, 
                            "type": "note", 
                            "channel": 7
                        }
                    ]
                ], 
                [
                    123516, 
                    [
                        {
                            "pitch": 40, 
                            "t0": 123516, 
                            "v": 72, 
                            "dur": 400, 
                            "type": "note", 
                            "channel": 7
                        }
                    ]
                ], 
                [
                    124000, 
                    [
                        {
                            "pitch": 43, 
                            "t0": 124000, 
                            "v": 108, 
                            "dur": 550, 
                            "type": "note", 
                            "channel": 7
                        }
                    ]
                ], 
                [
                    124516, 
                    [
                        {
                            "pitch": 38, 
                            "t0": 124516, 
                            "v": 104, 
                            "dur": 476, 
                            "type": "note", 
                            "channel": 7
                        }
                    ]
                ], 
                [
                    125584, 
                    [
                        {
                            "pitch": 40, 
                            "t0": 125584, 
                            "v": 92, 
                            "dur": 446, 
                            "type": "note", 
                            "channel": 7
                        }
                    ]
                ], 
                [
                    126050, 
                    [
                        {
                            "pitch": 45, 
                            "t0": 126050, 
                            "v": 100, 
                            "dur": 554, 
                            "type": "note", 
                            "channel": 7
                        }
                    ]
                ], 
                [
                    126542, 
                    [
                        {
                            "pitch": 40, 
                            "t0": 126542, 
                            "v": 104, 
                            "dur": 474, 
                            "type": "note", 
                            "channel": 7
                        }
                    ]
                ], 
                [
                    127542, 
                    [
                        {
                            "pitch": 40, 
                            "t0": 127542, 
                            "v": 92, 
                            "dur": 374, 
                            "type": "note", 
                            "channel": 7
                        }
                    ]
                ], 
                [
                    128004, 
                    [
                        {
                            "pitch": 43, 
                            "t0": 128004, 
                            "v": 112, 
                            "dur": 550, 
                            "type": "note", 
                            "channel": 7
                        }
                    ]
                ], 
                [
                    128450, 
                    [
                        {
                            "pitch": 38, 
                            "t0": 128450, 
                            "v": 104, 
                            "dur": 446, 
                            "type": "note", 
                            "channel": 7
                        }
                    ]
                ], 
                [
                    129570, 
                    [
                        {
                            "pitch": 40, 
                            "t0": 129570, 
                            "v": 104, 
                            "dur": 406, 
                            "type": "note", 
                            "channel": 7
                        }
                    ]
                ], 
                [
                    130020, 
                    [
                        {
                            "pitch": 45, 
                            "t0": 130020, 
                            "v": 108, 
                            "dur": 560, 
                            "type": "note", 
                            "channel": 7
                        }
                    ]
                ], 
                [
                    130526, 
                    [
                        {
                            "pitch": 40, 
                            "t0": 130526, 
                            "v": 104, 
                            "dur": 470, 
                            "type": "note", 
                            "channel": 7
                        }
                    ]
                ], 
                [
                    131576, 
                    [
                        {
                            "pitch": 40, 
                            "t0": 131576, 
                            "v": 76, 
                            "dur": 382, 
                            "type": "note", 
                            "channel": 7
                        }
                    ]
                ], 
                [
                    132030, 
                    [
                        {
                            "pitch": 43, 
                            "t0": 132030, 
                            "v": 104, 
                            "dur": 532, 
                            "type": "note", 
                            "channel": 7
                        }
                    ]
                ], 
                [
                    132558, 
                    [
                        {
                            "pitch": 38, 
                            "t0": 132558, 
                            "v": 112, 
                            "dur": 500, 
                            "type": "note", 
                            "channel": 7
                        }
                    ]
                ], 
                [
                    133600, 
                    [
                        {
                            "pitch": 40, 
                            "t0": 133600, 
                            "v": 100, 
                            "dur": 430, 
                            "type": "note", 
                            "channel": 7
                        }
                    ]
                ], 
                [
                    134054, 
                    [
                        {
                            "pitch": 45, 
                            "t0": 134054, 
                            "v": 112, 
                            "dur": 550, 
                            "type": "note", 
                            "channel": 7
                        }
                    ]
                ], 
                [
                    134562, 
                    [
                        {
                            "pitch": 40, 
                            "t0": 134562, 
                            "v": 108, 
                            "dur": 450, 
                            "type": "note", 
                            "channel": 7
                        }
                    ]
                ], 
                [
                    135550, 
                    [
                        {
                            "pitch": 40, 
                            "t0": 135550, 
                            "v": 80, 
                            "dur": 370, 
                            "type": "note", 
                            "channel": 7
                        }
                    ]
                ], 
                [
                    136030, 
                    [
                        {
                            "pitch": 43, 
                            "t0": 136030, 
                            "v": 112, 
                            "dur": 454, 
                            "type": "note", 
                            "channel": 7
                        }
                    ]
                ], 
                [
                    136484, 
                    [
                        {
                            "pitch": 38, 
                            "t0": 136484, 
                            "v": 112, 
                            "dur": 358, 
                            "type": "note", 
                            "channel": 7
                        }
                    ]
                ], 
                [
                    137546, 
                    [
                        {
                            "pitch": 40, 
                            "t0": 137546, 
                            "v": 92, 
                            "dur": 388, 
                            "type": "note", 
                            "channel": 7
                        }
                    ]
                ], 
                [
                    137996, 
                    [
                        {
                            "pitch": 45, 
                            "t0": 137996, 
                            "v": 108, 
                            "dur": 530, 
                            "type": "note", 
                            "channel": 7
                        }
                    ]
                ], 
                [
                    138492, 
                    [
                        {
                            "pitch": 40, 
                            "t0": 138492, 
                            "v": 108, 
                            "dur": 562, 
                            "type": "note", 
                            "channel": 7
                        }
                    ]
                ], 
                [
                    139550, 
                    [
                        {
                            "pitch": 40, 
                            "t0": 139550, 
                            "v": 72, 
                            "dur": 362, 
                            "type": "note", 
                            "channel": 7
                        }
                    ]
                ], 
                [
                    140020, 
                    [
                        {
                            "pitch": 43, 
                            "t0": 140020, 
                            "v": 108, 
                            "dur": 622, 
                            "type": "note", 
                            "channel": 7
                        }
                    ]
                ], 
                [
                    140530, 
                    [
                        {
                            "pitch": 38, 
                            "t0": 140530, 
                            "v": 72, 
                            "dur": 500, 
                            "type": "note", 
                            "channel": 7
                        }
                    ]
                ], 
                [
                    140534, 
                    [
                        {
                            "pitch": 36, 
                            "t0": 140534, 
                            "v": 104, 
                            "dur": 366, 
                            "type": "note", 
                            "channel": 7
                        }
                    ]
                ], 
                [
                    141592, 
                    [
                        {
                            "pitch": 40, 
                            "t0": 141592, 
                            "v": 72, 
                            "dur": 438, 
                            "type": "note", 
                            "channel": 7
                        }
                    ]
                ], 
                [
                    142084, 
                    [
                        {
                            "pitch": 45, 
                            "t0": 142084, 
                            "v": 72, 
                            "dur": 500, 
                            "type": "note", 
                            "channel": 7
                        }
                    ]
                ], 
                [
                    142562, 
                    [
                        {
                            "pitch": 40, 
                            "t0": 142562, 
                            "v": 100, 
                            "dur": 504, 
                            "type": "note", 
                            "channel": 7
                        }
                    ]
                ], 
                [
                    143512, 
                    [
                        {
                            "pitch": 40, 
                            "t0": 143512, 
                            "v": 72, 
                            "dur": 418, 
                            "type": "note", 
                            "channel": 7
                        }
                    ]
                ], 
                [
                    144016, 
                    [
                        {
                            "pitch": 43, 
                            "t0": 144016, 
                            "v": 112, 
                            "dur": 454, 
                            "type": "note", 
                            "channel": 7
                        }
                    ]
                ], 
                [
                    144450, 
                    [
                        {
                            "pitch": 38, 
                            "t0": 144450, 
                            "v": 108, 
                            "dur": 430, 
                            "type": "note", 
                            "channel": 7
                        }
                    ]
                ], 
                [
                    145576, 
                    [
                        {
                            "pitch": 40, 
                            "t0": 145576, 
                            "v": 100, 
                            "dur": 386, 
                            "type": "note", 
                            "channel": 7
                        }
                    ]
                ], 
                [
                    146070, 
                    [
                        {
                            "pitch": 45, 
                            "t0": 146070, 
                            "v": 108, 
                            "dur": 518, 
                            "type": "note", 
                            "channel": 7
                        }
                    ]
                ], 
                [
                    146562, 
                    [
                        {
                            "pitch": 40, 
                            "t0": 146562, 
                            "v": 100, 
                            "dur": 426, 
                            "type": "note", 
                            "channel": 7
                        }
                    ]
                ], 
                [
                    147530, 
                    [
                        {
                            "pitch": 40, 
                            "t0": 147530, 
                            "v": 80, 
                            "dur": 370, 
                            "type": "note", 
                            "channel": 7
                        }
                    ]
                ], 
                [
                    148034, 
                    [
                        {
                            "pitch": 43, 
                            "t0": 148034, 
                            "v": 112, 
                            "dur": 496, 
                            "type": "note", 
                            "channel": 7
                        }
                    ]
                ], 
                [
                    148500, 
                    [
                        {
                            "pitch": 38, 
                            "t0": 148500, 
                            "v": 100, 
                            "dur": 488, 
                            "type": "note", 
                            "channel": 7
                        }
                    ]
                ], 
                [
                    149584, 
                    [
                        {
                            "pitch": 40, 
                            "t0": 149584, 
                            "v": 92, 
                            "dur": 420, 
                            "type": "note", 
                            "channel": 7
                        }
                    ]
                ], 
                [
                    150096, 
                    [
                        {
                            "pitch": 45, 
                            "t0": 150096, 
                            "v": 112, 
                            "dur": 484, 
                            "type": "note", 
                            "channel": 7
                        }
                    ]
                ], 
                [
                    150550, 
                    [
                        {
                            "pitch": 40, 
                            "t0": 150550, 
                            "v": 100, 
                            "dur": 496, 
                            "type": "note", 
                            "channel": 7
                        }
                    ]
                ], 
                [
                    151584, 
                    [
                        {
                            "pitch": 40, 
                            "t0": 151584, 
                            "v": 88, 
                            "dur": 362, 
                            "type": "note", 
                            "channel": 7
                        }
                    ]
                ], 
                [
                    152062, 
                    [
                        {
                            "pitch": 43, 
                            "t0": 152062, 
                            "v": 108, 
                            "dur": 464, 
                            "type": "note", 
                            "channel": 7
                        }
                    ]
                ], 
                [
                    152504, 
                    [
                        {
                            "pitch": 38, 
                            "t0": 152504, 
                            "v": 104, 
                            "dur": 472, 
                            "type": "note", 
                            "channel": 7
                        }
                    ]
                ], 
                [
                    153634, 
                    [
                        {
                            "pitch": 40, 
                            "t0": 153634, 
                            "v": 96, 
                            "dur": 428, 
                            "type": "note", 
                            "channel": 7
                        }
                    ]
                ], 
                [
                    154108, 
                    [
                        {
                            "pitch": 45, 
                            "t0": 154108, 
                            "v": 104, 
                            "dur": 492, 
                            "type": "note", 
                            "channel": 7
                        }
                    ]
                ], 
                [
                    154550, 
                    [
                        {
                            "pitch": 40, 
                            "t0": 154550, 
                            "v": 100, 
                            "dur": 470, 
                            "type": "note", 
                            "channel": 7
                        }
                    ]
                ], 
                [
                    155584, 
                    [
                        {
                            "pitch": 40, 
                            "t0": 155584, 
                            "v": 56, 
                            "dur": 382, 
                            "type": "note", 
                            "channel": 7
                        }
                    ]
                ], 
                [
                    156050, 
                    [
                        {
                            "pitch": 43, 
                            "t0": 156050, 
                            "v": 108, 
                            "dur": 542, 
                            "type": "note", 
                            "channel": 7
                        }
                    ]
                ], 
                [
                    156454, 
                    [
                        {
                            "pitch": 38, 
                            "t0": 156454, 
                            "v": 100, 
                            "dur": 542, 
                            "type": "note", 
                            "channel": 7
                        }
                    ]
                ], 
                [
                    157570, 
                    [
                        {
                            "pitch": 40, 
                            "t0": 157570, 
                            "v": 64, 
                            "dur": 496, 
                            "type": "note", 
                            "channel": 7
                        }
                    ]
                ], 
                [
                    158062, 
                    [
                        {
                            "pitch": 45, 
                            "t0": 158062, 
                            "v": 88, 
                            "dur": 572, 
                            "type": "note", 
                            "channel": 7
                        }
                    ]
                ], 
                [
                    158546, 
                    [
                        {
                            "pitch": 40, 
                            "t0": 158546, 
                            "v": 96, 
                            "dur": 400, 
                            "type": "note", 
                            "channel": 7
                        }
                    ]
                ], 
                [
                    159588, 
                    [
                        {
                            "pitch": 38, 
                            "t0": 159588, 
                            "v": 92, 
                            "dur": 400, 
                            "type": "note", 
                            "channel": 7
                        }
                    ]
                ], 
                [
                    160042, 
                    [
                        {
                            "pitch": 43, 
                            "t0": 160042, 
                            "v": 84, 
                            "dur": 450, 
                            "type": "note", 
                            "channel": 7
                        }
                    ]
                ], 
                [
                    160458, 
                    [
                        {
                            "pitch": 38, 
                            "t0": 160458, 
                            "v": 100, 
                            "dur": 480, 
                            "type": "note", 
                            "channel": 7
                        }
                    ]
                ], 
                [
                    161530, 
                    [
                        {
                            "pitch": 40, 
                            "t0": 161530, 
                            "v": 84, 
                            "dur": 432, 
                            "type": "note", 
                            "channel": 7
                        }
                    ]
                ], 
                [
                    161996, 
                    [
                        {
                            "pitch": 45, 
                            "t0": 161996, 
                            "v": 104, 
                            "dur": 574, 
                            "type": "note", 
                            "channel": 7
                        }
                    ]
                ], 
                [
                    162458, 
                    [
                        {
                            "pitch": 40, 
                            "t0": 162458, 
                            "v": 84, 
                            "dur": 468, 
                            "type": "note", 
                            "channel": 7
                        }
                    ]
                ], 
                [
                    163480, 
                    [
                        {
                            "pitch": 40, 
                            "t0": 163480, 
                            "v": 72, 
                            "dur": 400, 
                            "type": "note", 
                            "channel": 7
                        }
                    ]
                ], 
                [
                    163930, 
                    [
                        {
                            "pitch": 43, 
                            "t0": 163930, 
                            "v": 96, 
                            "dur": 458, 
                            "type": "note", 
                            "channel": 7
                        }
                    ]
                ], 
                [
                    164392, 
                    [
                        {
                            "pitch": 38, 
                            "t0": 164392, 
                            "v": 96, 
                            "dur": 508, 
                            "type": "note", 
                            "channel": 7
                        }
                    ]
                ], 
                [
                    165530, 
                    [
                        {
                            "pitch": 40, 
                            "t0": 165530, 
                            "v": 92, 
                            "dur": 428, 
                            "type": "note", 
                            "channel": 7
                        }
                    ]
                ], 
                [
                    166016, 
                    [
                        {
                            "pitch": 45, 
                            "t0": 166016, 
                            "v": 92, 
                            "dur": 514, 
                            "type": "note", 
                            "channel": 7
                        }
                    ]
                ], 
                [
                    166488, 
                    [
                        {
                            "pitch": 40, 
                            "t0": 166488, 
                            "v": 84, 
                            "dur": 508, 
                            "type": "note", 
                            "channel": 7
                        }
                    ]
                ], 
                [
                    167496, 
                    [
                        {
                            "pitch": 40, 
                            "t0": 167496, 
                            "v": 76, 
                            "dur": 412, 
                            "type": "note", 
                            "channel": 7
                        }
                    ]
                ], 
                [
                    167976, 
                    [
                        {
                            "pitch": 43, 
                            "t0": 167976, 
                            "v": 104, 
                            "dur": 554, 
                            "type": "note", 
                            "channel": 7
                        }
                    ]
                ], 
                [
                    168420, 
                    [
                        {
                            "pitch": 38, 
                            "t0": 168420, 
                            "v": 100, 
                            "dur": 468, 
                            "type": "note", 
                            "channel": 7
                        }
                    ]
                ], 
                [
                    169550, 
                    [
                        {
                            "pitch": 40, 
                            "t0": 169550, 
                            "v": 88, 
                            "dur": 454, 
                            "type": "note", 
                            "channel": 7
                        }
                    ]
                ], 
                [
                    170038, 
                    [
                        {
                            "pitch": 45, 
                            "t0": 170038, 
                            "v": 100, 
                            "dur": 566, 
                            "type": "note", 
                            "channel": 7
                        }
                    ]
                ], 
                [
                    170504, 
                    [
                        {
                            "pitch": 40, 
                            "t0": 170504, 
                            "v": 88, 
                            "dur": 488, 
                            "type": "note", 
                            "channel": 7
                        }
                    ]
                ], 
                [
                    171526, 
                    [
                        {
                            "pitch": 40, 
                            "t0": 171526, 
                            "v": 76, 
                            "dur": 420, 
                            "type": "note", 
                            "channel": 7
                        }
                    ]
                ], 
                [
                    172008, 
                    [
                        {
                            "pitch": 43, 
                            "t0": 172008, 
                            "v": 108, 
                            "dur": 542, 
                            "type": "note", 
                            "channel": 7
                        }
                    ]
                ], 
                [
                    172476, 
                    [
                        {
                            "pitch": 38, 
                            "t0": 172476, 
                            "v": 104, 
                            "dur": 436, 
                            "type": "note", 
                            "channel": 7
                        }
                    ]
                ], 
                [
                    173620, 
                    [
                        {
                            "pitch": 40, 
                            "t0": 173620, 
                            "v": 76, 
                            "dur": 426, 
                            "type": "note", 
                            "channel": 7
                        }
                    ]
                ], 
                [
                    174100, 
                    [
                        {
                            "pitch": 45, 
                            "t0": 174100, 
                            "v": 100, 
                            "dur": 546, 
                            "type": "note", 
                            "channel": 7
                        }
                    ]
                ], 
                [
                    174550, 
                    [
                        {
                            "pitch": 40, 
                            "t0": 174550, 
                            "v": 80, 
                            "dur": 496, 
                            "type": "note", 
                            "channel": 7
                        }
                    ]
                ], 
                [
                    175516, 
                    [
                        {
                            "pitch": 40, 
                            "t0": 175516, 
                            "v": 76, 
                            "dur": 392, 
                            "type": "note", 
                            "channel": 7
                        }
                    ]
                ], 
                [
                    175992, 
                    [
                        {
                            "pitch": 43, 
                            "t0": 175992, 
                            "v": 108, 
                            "dur": 462, 
                            "type": "note", 
                            "channel": 7
                        }
                    ]
                ], 
                [
                    176442, 
                    [
                        {
                            "pitch": 38, 
                            "t0": 176442, 
                            "v": 104, 
                            "dur": 500, 
                            "type": "note", 
                            "channel": 7
                        }
                    ]
                ], 
                [
                    177530, 
                    [
                        {
                            "pitch": 40, 
                            "t0": 177530, 
                            "v": 92, 
                            "dur": 450, 
                            "type": "note", 
                            "channel": 7
                        }
                    ]
                ], 
                [
                    178026, 
                    [
                        {
                            "pitch": 45, 
                            "t0": 178026, 
                            "v": 104, 
                            "dur": 590, 
                            "type": "note", 
                            "channel": 7
                        }
                    ]
                ], 
                [
                    178488, 
                    [
                        {
                            "pitch": 40, 
                            "t0": 178488, 
                            "v": 100, 
                            "dur": 538, 
                            "type": "note", 
                            "channel": 7
                        }
                    ]
                ], 
                [
                    179538, 
                    [
                        {
                            "pitch": 40, 
                            "t0": 179538, 
                            "v": 58, 
                            "dur": 392, 
                            "type": "note", 
                            "channel": 7
                        }
                    ]
                ], 
                [
                    180004, 
                    [
                        {
                            "pitch": 43, 
                            "t0": 180004, 
                            "v": 96, 
                            "dur": 450, 
                            "type": "note", 
                            "channel": 7
                        }
                    ]
                ], 
                [
                    180480, 
                    [
                        {
                            "pitch": 38, 
                            "t0": 180480, 
                            "v": 104, 
                            "dur": 432, 
                            "type": "note", 
                            "channel": 7
                        }
                    ]
                ], 
                [
                    181580, 
                    [
                        {
                            "pitch": 40, 
                            "t0": 181580, 
                            "v": 88, 
                            "dur": 446, 
                            "type": "note", 
                            "channel": 7
                        }
                    ]
                ], 
                [
                    182062, 
                    [
                        {
                            "pitch": 45, 
                            "t0": 182062, 
                            "v": 104, 
                            "dur": 504, 
                            "type": "note", 
                            "channel": 7
                        }
                    ]
                ], 
                [
                    182512, 
                    [
                        {
                            "pitch": 40, 
                            "t0": 182512, 
                            "v": 96, 
                            "dur": 438, 
                            "type": "note", 
                            "channel": 7
                        }
                    ]
                ], 
                [
                    183476, 
                    [
                        {
                            "pitch": 40, 
                            "t0": 183476, 
                            "v": 72, 
                            "dur": 486, 
                            "type": "note", 
                            "channel": 7
                        }
                    ]
                ], 
                [
                    183970, 
                    [
                        {
                            "pitch": 43, 
                            "t0": 183970, 
                            "v": 104, 
                            "dur": 492, 
                            "type": "note", 
                            "channel": 7
                        }
                    ]
                ], 
                [
                    184438, 
                    [
                        {
                            "pitch": 38, 
                            "t0": 184438, 
                            "v": 104, 
                            "dur": 450, 
                            "type": "note", 
                            "channel": 7
                        }
                    ]
                ], 
                [
                    185516, 
                    [
                        {
                            "pitch": 40, 
                            "t0": 185516, 
                            "v": 80, 
                            "dur": 472, 
                            "type": "note", 
                            "channel": 7
                        }
                    ]
                ], 
                [
                    186050, 
                    [
                        {
                            "pitch": 45, 
                            "t0": 186050, 
                            "v": 96, 
                            "dur": 526, 
                            "type": "note", 
                            "channel": 7
                        }
                    ]
                ], 
                [
                    186520, 
                    [
                        {
                            "pitch": 40, 
                            "t0": 186520, 
                            "v": 96, 
                            "dur": 468, 
                            "type": "note", 
                            "channel": 7
                        }
                    ]
                ], 
                [
                    187558, 
                    [
                        {
                            "pitch": 40, 
                            "t0": 187558, 
                            "v": 80, 
                            "dur": 380, 
                            "type": "note", 
                            "channel": 7
                        }
                    ]
                ], 
                [
                    188016, 
                    [
                        {
                            "pitch": 43, 
                            "t0": 188016, 
                            "v": 96, 
                            "dur": 560, 
                            "type": "note", 
                            "channel": 7
                        }
                    ]
                ], 
                [
                    188480, 
                    [
                        {
                            "pitch": 38, 
                            "t0": 188480, 
                            "v": 96, 
                            "dur": 446, 
                            "type": "note", 
                            "channel": 7
                        }
                    ]
                ], 
                [
                    189550, 
                    [
                        {
                            "pitch": 40, 
                            "t0": 189550, 
                            "v": 72, 
                            "dur": 450, 
                            "type": "note", 
                            "channel": 7
                        }
                    ]
                ], 
                [
                    190088, 
                    [
                        {
                            "pitch": 45, 
                            "t0": 190088, 
                            "v": 104, 
                            "dur": 492, 
                            "type": "note", 
                            "channel": 7
                        }
                    ]
                ], 
                [
                    190554, 
                    [
                        {
                            "pitch": 40, 
                            "t0": 190554, 
                            "v": 104, 
                            "dur": 384, 
                            "type": "note", 
                            "channel": 7
                        }
                    ]
                ], 
                [
                    191554, 
                    [
                        {
                            "pitch": 40, 
                            "t0": 191554, 
                            "v": 35, 
                            "dur": 396, 
                            "type": "note", 
                            "channel": 7
                        }
                    ]
                ], 
                [
                    192092, 
                    [
                        {
                            "pitch": 43, 
                            "t0": 192092, 
                            "v": 104, 
                            "dur": 416, 
                            "type": "note", 
                            "channel": 7
                        }
                    ]
                ], 
                [
                    192526, 
                    [
                        {
                            "pitch": 38, 
                            "t0": 192526, 
                            "v": 104, 
                            "dur": 404, 
                            "type": "note", 
                            "channel": 7
                        }
                    ]
                ], 
                [
                    193534, 
                    [
                        {
                            "pitch": 40, 
                            "t0": 193534, 
                            "v": 84, 
                            "dur": 454, 
                            "type": "note", 
                            "channel": 7
                        }
                    ]
                ], 
                [
                    194066, 
                    [
                        {
                            "pitch": 45, 
                            "t0": 194066, 
                            "v": 112, 
                            "dur": 484, 
                            "type": "note", 
                            "channel": 7
                        }
                    ]
                ], 
                [
                    194530, 
                    [
                        {
                            "pitch": 40, 
                            "t0": 194530, 
                            "v": 96, 
                            "dur": 404, 
                            "type": "note", 
                            "channel": 7
                        }
                    ]
                ], 
                [
                    195516, 
                    [
                        {
                            "pitch": 40, 
                            "t0": 195516, 
                            "v": 96, 
                            "dur": 368, 
                            "type": "note", 
                            "channel": 7
                        }
                    ]
                ], 
                [
                    196016, 
                    [
                        {
                            "pitch": 43, 
                            "t0": 196016, 
                            "v": 112, 
                            "dur": 542, 
                            "type": "note", 
                            "channel": 7
                        }
                    ]
                ], 
                [
                    196454, 
                    [
                        {
                            "pitch": 38, 
                            "t0": 196454, 
                            "v": 108, 
                            "dur": 450, 
                            "type": "note", 
                            "channel": 7
                        }
                    ]
                ], 
                [
                    197504, 
                    [
                        {
                            "pitch": 40, 
                            "t0": 197504, 
                            "v": 104, 
                            "dur": 458, 
                            "type": "note", 
                            "channel": 7
                        }
                    ]
                ], 
                [
                    198026, 
                    [
                        {
                            "pitch": 45, 
                            "t0": 198026, 
                            "v": 108, 
                            "dur": 466, 
                            "type": "note", 
                            "channel": 7
                        }
                    ]
                ], 
                [
                    198484, 
                    [
                        {
                            "pitch": 40, 
                            "t0": 198484, 
                            "v": 104, 
                            "dur": 454, 
                            "type": "note", 
                            "channel": 7
                        }
                    ]
                ], 
                [
                    199450, 
                    [
                        {
                            "pitch": 40, 
                            "t0": 199450, 
                            "v": 84, 
                            "dur": 376, 
                            "type": "note", 
                            "channel": 7
                        }
                    ]
                ], 
                [
                    199958, 
                    [
                        {
                            "pitch": 43, 
                            "t0": 199958, 
                            "v": 108, 
                            "dur": 446, 
                            "type": "note", 
                            "channel": 7
                        }
                    ]
                ], 
                [
                    200400, 
                    [
                        {
                            "pitch": 38, 
                            "t0": 200400, 
                            "v": 112, 
                            "dur": 462, 
                            "type": "note", 
                            "channel": 7
                        }
                    ]
                ], 
                [
                    201504, 
                    [
                        {
                            "pitch": 40, 
                            "t0": 201504, 
                            "v": 108, 
                            "dur": 416, 
                            "type": "note", 
                            "channel": 7
                        }
                    ]
                ], 
                [
                    202058, 
                    [
                        {
                            "pitch": 45, 
                            "t0": 202058, 
                            "v": 112, 
                            "dur": 472, 
                            "type": "note", 
                            "channel": 7
                        }
                    ]
                ], 
                [
                    202496, 
                    [
                        {
                            "pitch": 40, 
                            "t0": 202496, 
                            "v": 104, 
                            "dur": 434, 
                            "type": "note", 
                            "channel": 7
                        }
                    ]
                ], 
                [
                    203526, 
                    [
                        {
                            "pitch": 40, 
                            "t0": 203526, 
                            "v": 100, 
                            "dur": 350, 
                            "type": "note", 
                            "channel": 7
                        }
                    ]
                ], 
                [
                    204030, 
                    [
                        {
                            "pitch": 43, 
                            "t0": 204030, 
                            "v": 112, 
                            "dur": 470, 
                            "type": "note", 
                            "channel": 7
                        }
                    ]
                ], 
                [
                    204492, 
                    [
                        {
                            "pitch": 38, 
                            "t0": 204492, 
                            "v": 108, 
                            "dur": 442, 
                            "type": "note", 
                            "channel": 7
                        }
                    ]
                ], 
                [
                    205600, 
                    [
                        {
                            "pitch": 40, 
                            "t0": 205600, 
                            "v": 104, 
                            "dur": 408, 
                            "type": "note", 
                            "channel": 7
                        }
                    ]
                ], 
                [
                    206116, 
                    [
                        {
                            "pitch": 45, 
                            "t0": 206116, 
                            "v": 116, 
                            "dur": 484, 
                            "type": "note", 
                            "channel": 7
                        }
                    ]
                ], 
                [
                    206550, 
                    [
                        {
                            "pitch": 40, 
                            "t0": 206550, 
                            "v": 112, 
                            "dur": 426, 
                            "type": "note", 
                            "channel": 7
                        }
                    ]
                ], 
                [
                    207580, 
                    [
                        {
                            "pitch": 40, 
                            "t0": 207580, 
                            "v": 100, 
                            "dur": 320, 
                            "type": "note", 
                            "channel": 7
                        }
                    ]
                ], 
                [
                    208084, 
                    [
                        {
                            "pitch": 43, 
                            "t0": 208084, 
                            "v": 116, 
                            "dur": 504, 
                            "type": "note", 
                            "channel": 7
                        }
                    ]
                ], 
                [
                    208538, 
                    [
                        {
                            "pitch": 38, 
                            "t0": 208538, 
                            "v": 112, 
                            "dur": 416, 
                            "type": "note", 
                            "channel": 7
                        }
                    ]
                ], 
                [
                    209608, 
                    [
                        {
                            "pitch": 40, 
                            "t0": 209608, 
                            "v": 112, 
                            "dur": 380, 
                            "type": "note", 
                            "channel": 7
                        }
                    ]
                ], 
                [
                    210104, 
                    [
                        {
                            "pitch": 45, 
                            "t0": 210104, 
                            "v": 116, 
                            "dur": 526, 
                            "type": "note", 
                            "channel": 7
                        }
                    ]
                ], 
                [
                    210558, 
                    [
                        {
                            "pitch": 40, 
                            "t0": 210558, 
                            "v": 108, 
                            "dur": 334, 
                            "type": "note", 
                            "channel": 7
                        }
                    ]
                ], 
                [
                    211554, 
                    [
                        {
                            "pitch": 38, 
                            "t0": 211554, 
                            "v": 108, 
                            "dur": 322, 
                            "type": "note", 
                            "channel": 7
                        }
                    ]
                ], 
                [
                    212076, 
                    [
                        {
                            "pitch": 43, 
                            "t0": 212076, 
                            "v": 112, 
                            "dur": 486, 
                            "type": "note", 
                            "channel": 7
                        }
                    ]
                ], 
                [
                    212504, 
                    [
                        {
                            "pitch": 38, 
                            "t0": 212504, 
                            "v": 112, 
                            "dur": 396, 
                            "type": "note", 
                            "channel": 7
                        }
                    ]
                ], 
                [
                    213516, 
                    [
                        {
                            "pitch": 40, 
                            "t0": 213516, 
                            "v": 108, 
                            "dur": 422, 
                            "type": "note", 
                            "channel": 7
                        }
                    ]
                ], 
                [
                    214042, 
                    [
                        {
                            "pitch": 45, 
                            "t0": 214042, 
                            "v": 116, 
                            "dur": 492, 
                            "type": "note", 
                            "channel": 7
                        }
                    ]
                ], 
                [
                    214496, 
                    [
                        {
                            "pitch": 40, 
                            "t0": 214496, 
                            "v": 112, 
                            "dur": 416, 
                            "type": "note", 
                            "channel": 7
                        }
                    ]
                ], 
                [
                    215476, 
                    [
                        {
                            "pitch": 40, 
                            "t0": 215476, 
                            "v": 96, 
                            "dur": 404, 
                            "type": "note", 
                            "channel": 7
                        }
                    ]
                ], 
                [
                    216026, 
                    [
                        {
                            "pitch": 43, 
                            "t0": 216026, 
                            "v": 112, 
                            "dur": 574, 
                            "type": "note", 
                            "channel": 7
                        }
                    ]
                ], 
                [
                    216476, 
                    [
                        {
                            "pitch": 38, 
                            "t0": 216476, 
                            "v": 116, 
                            "dur": 408, 
                            "type": "note", 
                            "channel": 7
                        }
                    ]
                ], 
                [
                    217584, 
                    [
                        {
                            "pitch": 40, 
                            "t0": 217584, 
                            "v": 108, 
                            "dur": 432, 
                            "type": "note", 
                            "channel": 7
                        }
                    ]
                ], 
                [
                    218088, 
                    [
                        {
                            "pitch": 45, 
                            "t0": 218088, 
                            "v": 112, 
                            "dur": 542, 
                            "type": "note", 
                            "channel": 7
                        }
                    ]
                ], 
                [
                    218534, 
                    [
                        {
                            "pitch": 40, 
                            "t0": 218534, 
                            "v": 104, 
                            "dur": 378, 
                            "type": "note", 
                            "channel": 7
                        }
                    ]
                ], 
                [
                    219520, 
                    [
                        {
                            "pitch": 40, 
                            "t0": 219520, 
                            "v": 104, 
                            "dur": 350, 
                            "type": "note", 
                            "channel": 7
                        }
                    ]
                ], 
                [
                    220004, 
                    [
                        {
                            "pitch": 43, 
                            "t0": 220004, 
                            "v": 120, 
                            "dur": 534, 
                            "type": "note", 
                            "channel": 7
                        }
                    ]
                ], 
                [
                    220426, 
                    [
                        {
                            "pitch": 38, 
                            "t0": 220426, 
                            "v": 108, 
                            "dur": 462, 
                            "type": "note", 
                            "channel": 7
                        }
                    ]
                ], 
                [
                    221542, 
                    [
                        {
                            "pitch": 40, 
                            "t0": 221542, 
                            "v": 92, 
                            "dur": 396, 
                            "type": "note", 
                            "channel": 7
                        }
                    ]
                ], 
                [
                    222058, 
                    [
                        {
                            "pitch": 45, 
                            "t0": 222058, 
                            "v": 116, 
                            "dur": 568, 
                            "type": "note", 
                            "channel": 7
                        }
                    ]
                ], 
                [
                    222488, 
                    [
                        {
                            "pitch": 40, 
                            "t0": 222488, 
                            "v": 108, 
                            "dur": 450, 
                            "type": "note", 
                            "channel": 7
                        }
                    ]
                ], 
                [
                    223500, 
                    [
                        {
                            "pitch": 40, 
                            "t0": 223500, 
                            "v": 88, 
                            "dur": 362, 
                            "type": "note", 
                            "channel": 7
                        }
                    ]
                ], 
                [
                    224042, 
                    [
                        {
                            "pitch": 43, 
                            "t0": 224042, 
                            "v": 112, 
                            "dur": 566, 
                            "type": "note", 
                            "channel": 7
                        }
                    ]
                ], 
                [
                    224454, 
                    [
                        {
                            "pitch": 38, 
                            "t0": 224454, 
                            "v": 112, 
                            "dur": 500, 
                            "type": "note", 
                            "channel": 7
                        }
                    ]
                ], 
                [
                    225604, 
                    [
                        {
                            "pitch": 40, 
                            "t0": 225604, 
                            "v": 104, 
                            "dur": 392, 
                            "type": "note", 
                            "channel": 7
                        }
                    ]
                ], 
                [
                    226108, 
                    [
                        {
                            "pitch": 45, 
                            "t0": 226108, 
                            "v": 112, 
                            "dur": 596, 
                            "type": "note", 
                            "channel": 7
                        }
                    ]
                ], 
                [
                    226558, 
                    [
                        {
                            "pitch": 40, 
                            "t0": 226558, 
                            "v": 112, 
                            "dur": 476, 
                            "type": "note", 
                            "channel": 7
                        }
                    ]
                ], 
                [
                    227612, 
                    [
                        {
                            "pitch": 40, 
                            "t0": 227612, 
                            "v": 96, 
                            "dur": 322, 
                            "type": "note", 
                            "channel": 7
                        }
                    ]
                ], 
                [
                    228108, 
                    [
                        {
                            "pitch": 43, 
                            "t0": 228108, 
                            "v": 116, 
                            "dur": 472, 
                            "type": "note", 
                            "channel": 7
                        }
                    ]
                ], 
                [
                    228576, 
                    [
                        {
                            "pitch": 38, 
                            "t0": 228576, 
                            "v": 116, 
                            "dur": 470, 
                            "type": "note", 
                            "channel": 7
                        }
                    ]
                ], 
                [
                    229604, 
                    [
                        {
                            "pitch": 40, 
                            "t0": 229604, 
                            "v": 104, 
                            "dur": 384, 
                            "type": "note", 
                            "channel": 7
                        }
                    ]
                ], 
                [
                    230100, 
                    [
                        {
                            "pitch": 45, 
                            "t0": 230100, 
                            "v": 120, 
                            "dur": 508, 
                            "type": "note", 
                            "channel": 7
                        }
                    ]
                ], 
                [
                    230538, 
                    [
                        {
                            "pitch": 40, 
                            "t0": 230538, 
                            "v": 112, 
                            "dur": 470, 
                            "type": "note", 
                            "channel": 7
                        }
                    ]
                ], 
                [
                    231500, 
                    [
                        {
                            "pitch": 40, 
                            "t0": 231500, 
                            "v": 96, 
                            "dur": 342, 
                            "type": "note", 
                            "channel": 7
                        }
                    ]
                ], 
                [
                    231992, 
                    [
                        {
                            "pitch": 43, 
                            "t0": 231992, 
                            "v": 116, 
                            "dur": 574, 
                            "type": "note", 
                            "channel": 7
                        }
                    ]
                ], 
                [
                    232434, 
                    [
                        {
                            "pitch": 38, 
                            "t0": 232434, 
                            "v": 112, 
                            "dur": 532, 
                            "type": "note", 
                            "channel": 7
                        }
                    ]
                ], 
                [
                    233588, 
                    [
                        {
                            "pitch": 40, 
                            "t0": 233588, 
                            "v": 104, 
                            "dur": 412, 
                            "type": "note", 
                            "channel": 7
                        }
                    ]
                ], 
                [
                    234096, 
                    [
                        {
                            "pitch": 45, 
                            "t0": 234096, 
                            "v": 116, 
                            "dur": 546, 
                            "type": "note", 
                            "channel": 7
                        }
                    ]
                ], 
                [
                    234516, 
                    [
                        {
                            "pitch": 40, 
                            "t0": 234516, 
                            "v": 104, 
                            "dur": 468, 
                            "type": "note", 
                            "channel": 7
                        }
                    ]
                ], 
                [
                    235504, 
                    [
                        {
                            "pitch": 40, 
                            "t0": 235504, 
                            "v": 88, 
                            "dur": 396, 
                            "type": "note", 
                            "channel": 7
                        }
                    ]
                ], 
                [
                    236042, 
                    [
                        {
                            "pitch": 43, 
                            "t0": 236042, 
                            "v": 120, 
                            "dur": 662, 
                            "type": "note", 
                            "channel": 7
                        }
                    ]
                ], 
                [
                    236558, 
                    [
                        {
                            "pitch": 38, 
                            "t0": 236558, 
                            "v": 112, 
                            "dur": 458, 
                            "type": "note", 
                            "channel": 7
                        }
                    ]
                ], 
                [
                    237646, 
                    [
                        {
                            "pitch": 40, 
                            "t0": 237646, 
                            "v": 104, 
                            "dur": 392, 
                            "type": "note", 
                            "channel": 7
                        }
                    ]
                ], 
                [
                    238142, 
                    [
                        {
                            "pitch": 45, 
                            "t0": 238142, 
                            "v": 112, 
                            "dur": 542, 
                            "type": "note", 
                            "channel": 7
                        }
                    ]
                ], 
                [
                    238566, 
                    [
                        {
                            "pitch": 40, 
                            "t0": 238566, 
                            "v": 108, 
                            "dur": 484, 
                            "type": "note", 
                            "channel": 7
                        }
                    ]
                ], 
                [
                    239580, 
                    [
                        {
                            "pitch": 40, 
                            "t0": 239580, 
                            "v": 96, 
                            "dur": 340, 
                            "type": "note", 
                            "channel": 7
                        }
                    ]
                ], 
                [
                    240092, 
                    [
                        {
                            "pitch": 43, 
                            "t0": 240092, 
                            "v": 108, 
                            "dur": 542, 
                            "type": "note", 
                            "channel": 7
                        }
                    ]
                ], 
                [
                    240566, 
                    [
                        {
                            "pitch": 38, 
                            "t0": 240566, 
                            "v": 112, 
                            "dur": 472, 
                            "type": "note", 
                            "channel": 7
                        }
                    ]
                ], 
                [
                    241654, 
                    [
                        {
                            "pitch": 40, 
                            "t0": 241654, 
                            "v": 100, 
                            "dur": 400, 
                            "type": "note", 
                            "channel": 7
                        }
                    ]
                ], 
                [
                    242150, 
                    [
                        {
                            "pitch": 45, 
                            "t0": 242150, 
                            "v": 116, 
                            "dur": 562, 
                            "type": "note", 
                            "channel": 7
                        }
                    ]
                ], 
                [
                    242604, 
                    [
                        {
                            "pitch": 40, 
                            "t0": 242604, 
                            "v": 108, 
                            "dur": 392, 
                            "type": "note", 
                            "channel": 7
                        }
                    ]
                ], 
                [
                    243592, 
                    [
                        {
                            "pitch": 40, 
                            "t0": 243592, 
                            "v": 100, 
                            "dur": 370, 
                            "type": "note", 
                            "channel": 7
                        }
                    ]
                ], 
                [
                    244134, 
                    [
                        {
                            "pitch": 43, 
                            "t0": 244134, 
                            "v": 120, 
                            "dur": 550, 
                            "type": "note", 
                            "channel": 7
                        }
                    ]
                ], 
                [
                    244562, 
                    [
                        {
                            "pitch": 38, 
                            "t0": 244562, 
                            "v": 112, 
                            "dur": 450, 
                            "type": "note", 
                            "channel": 7
                        }
                    ]
                ], 
                [
                    245616, 
                    [
                        {
                            "pitch": 40, 
                            "t0": 245616, 
                            "v": 116, 
                            "dur": 350, 
                            "type": "note", 
                            "channel": 7
                        }
                    ]
                ], 
                [
                    246108, 
                    [
                        {
                            "pitch": 45, 
                            "t0": 246108, 
                            "v": 116, 
                            "dur": 476, 
                            "type": "note", 
                            "channel": 7
                        }
                    ]
                ], 
                [
                    246558, 
                    [
                        {
                            "pitch": 40, 
                            "t0": 246558, 
                            "v": 112, 
                            "dur": 492, 
                            "type": "note", 
                            "channel": 7
                        }
                    ]
                ], 
                [
                    247550, 
                    [
                        {
                            "pitch": 40, 
                            "t0": 247550, 
                            "v": 104, 
                            "dur": 342, 
                            "type": "note", 
                            "channel": 7
                        }
                    ]
                ], 
                [
                    248034, 
                    [
                        {
                            "pitch": 43, 
                            "t0": 248034, 
                            "v": 112, 
                            "dur": 632, 
                            "type": "note", 
                            "channel": 7
                        }
                    ]
                ], 
                [
                    248504, 
                    [
                        {
                            "pitch": 38, 
                            "t0": 248504, 
                            "v": 108, 
                            "dur": 484, 
                            "type": "note", 
                            "channel": 7
                        }
                    ]
                ], 
                [
                    249534, 
                    [
                        {
                            "pitch": 40, 
                            "t0": 249534, 
                            "v": 100, 
                            "dur": 404, 
                            "type": "note", 
                            "channel": 7
                        }
                    ]
                ], 
                [
                    250030, 
                    [
                        {
                            "pitch": 45, 
                            "t0": 250030, 
                            "v": 116, 
                            "dur": 596, 
                            "type": "note", 
                            "channel": 7
                        }
                    ]
                ], 
                [
                    250542, 
                    [
                        {
                            "pitch": 40, 
                            "t0": 250542, 
                            "v": 96, 
                            "dur": 404, 
                            "type": "note", 
                            "channel": 7
                        }
                    ]
                ], 
                [
                    251520, 
                    [
                        {
                            "pitch": 40, 
                            "t0": 251520, 
                            "v": 92, 
                            "dur": 334, 
                            "type": "note", 
                            "channel": 7
                        }
                    ]
                ], 
                [
                    251988, 
                    [
                        {
                            "pitch": 43, 
                            "t0": 251988, 
                            "v": 112, 
                            "dur": 642, 
                            "type": "note", 
                            "channel": 7
                        }
                    ]
                ], 
                [
                    252476, 
                    [
                        {
                            "pitch": 38, 
                            "t0": 252476, 
                            "v": 108, 
                            "dur": 508, 
                            "type": "note", 
                            "channel": 7
                        }
                    ]
                ], 
                [
                    253554, 
                    [
                        {
                            "pitch": 40, 
                            "t0": 253554, 
                            "v": 104, 
                            "dur": 388, 
                            "type": "note", 
                            "channel": 7
                        }
                    ]
                ], 
                [
                    254058, 
                    [
                        {
                            "pitch": 45, 
                            "t0": 254058, 
                            "v": 116, 
                            "dur": 508, 
                            "type": "note", 
                            "channel": 7
                        }
                    ]
                ], 
                [
                    254520, 
                    [
                        {
                            "pitch": 40, 
                            "t0": 254520, 
                            "v": 108, 
                            "dur": 446, 
                            "type": "note", 
                            "channel": 7
                        }
                    ]
                ], 
                [
                    255488, 
                    [
                        {
                            "pitch": 40, 
                            "t0": 255488, 
                            "v": 100, 
                            "dur": 324, 
                            "type": "note", 
                            "channel": 7
                        }
                    ]
                ], 
                [
                    255950, 
                    [
                        {
                            "pitch": 43, 
                            "t0": 255950, 
                            "v": 112, 
                            "dur": 634, 
                            "type": "note", 
                            "channel": 7
                        }
                    ]
                ], 
                [
                    256434, 
                    [
                        {
                            "pitch": 38, 
                            "t0": 256434, 
                            "v": 108, 
                            "dur": 454, 
                            "type": "note", 
                            "channel": 7
                        }
                    ]
                ], 
                [
                    257538, 
                    [
                        {
                            "pitch": 40, 
                            "t0": 257538, 
                            "v": 100, 
                            "dur": 392, 
                            "type": "note", 
                            "channel": 7
                        }
                    ]
                ], 
                [
                    258034, 
                    [
                        {
                            "pitch": 45, 
                            "t0": 258034, 
                            "v": 116, 
                            "dur": 604, 
                            "type": "note", 
                            "channel": 7
                        }
                    ]
                ], 
                [
                    258520, 
                    [
                        {
                            "pitch": 40, 
                            "t0": 258520, 
                            "v": 108, 
                            "dur": 426, 
                            "type": "note", 
                            "channel": 7
                        }
                    ]
                ], 
                [
                    259512, 
                    [
                        {
                            "pitch": 40, 
                            "t0": 259512, 
                            "v": 76, 
                            "dur": 350, 
                            "type": "note", 
                            "channel": 7
                        }
                    ]
                ], 
                [
                    260020, 
                    [
                        {
                            "pitch": 43, 
                            "t0": 260020, 
                            "v": 120, 
                            "dur": 588, 
                            "type": "note", 
                            "channel": 7
                        }
                    ]
                ], 
                [
                    260520, 
                    [
                        {
                            "pitch": 38, 
                            "t0": 260520, 
                            "v": 108, 
                            "dur": 426, 
                            "type": "note", 
                            "channel": 7
                        }
                    ]
                ], 
                [
                    261512, 
                    [
                        {
                            "pitch": 40, 
                            "t0": 261512, 
                            "v": 92, 
                            "dur": 414, 
                            "type": "note", 
                            "channel": 7
                        }
                    ]
                ], 
                [
                    262008, 
                    [
                        {
                            "pitch": 45, 
                            "t0": 262008, 
                            "v": 116, 
                            "dur": 512, 
                            "type": "note", 
                            "channel": 7
                        }
                    ]
                ], 
                [
                    262488, 
                    [
                        {
                            "pitch": 40, 
                            "t0": 262488, 
                            "v": 100, 
                            "dur": 462, 
                            "type": "note", 
                            "channel": 7
                        }
                    ]
                ], 
                [
                    263462, 
                    [
                        {
                            "pitch": 40, 
                            "t0": 263462, 
                            "v": 80, 
                            "dur": 388, 
                            "type": "note", 
                            "channel": 7
                        }
                    ]
                ], 
                [
                    263970, 
                    [
                        {
                            "pitch": 43, 
                            "t0": 263970, 
                            "v": 112, 
                            "dur": 480, 
                            "type": "note", 
                            "channel": 7
                        }
                    ]
                ], 
                [
                    264454, 
                    [
                        {
                            "pitch": 38, 
                            "t0": 264454, 
                            "v": 100, 
                            "dur": 446, 
                            "type": "note", 
                            "channel": 7
                        }
                    ]
                ], 
                [
                    265550, 
                    [
                        {
                            "pitch": 40, 
                            "t0": 265550, 
                            "v": 96, 
                            "dur": 396, 
                            "type": "note", 
                            "channel": 7
                        }
                    ]
                ], 
                [
                    266042, 
                    [
                        {
                            "pitch": 45, 
                            "t0": 266042, 
                            "v": 108, 
                            "dur": 500, 
                            "type": "note", 
                            "channel": 7
                        }
                    ]
                ], 
                [
                    266530, 
                    [
                        {
                            "pitch": 40, 
                            "t0": 266530, 
                            "v": 104, 
                            "dur": 440, 
                            "type": "note", 
                            "channel": 7
                        }
                    ]
                ], 
                [
                    267566, 
                    [
                        {
                            "pitch": 40, 
                            "t0": 267566, 
                            "v": 96, 
                            "dur": 354, 
                            "type": "note", 
                            "channel": 7
                        }
                    ]
                ], 
                [
                    268038, 
                    [
                        {
                            "pitch": 43, 
                            "t0": 268038, 
                            "v": 108, 
                            "dur": 612, 
                            "type": "note", 
                            "channel": 7
                        }
                    ]
                ], 
                [
                    268534, 
                    [
                        {
                            "pitch": 38, 
                            "t0": 268534, 
                            "v": 104, 
                            "dur": 462, 
                            "type": "note", 
                            "channel": 7
                        }
                    ]
                ], 
                [
                    269558, 
                    [
                        {
                            "pitch": 40, 
                            "t0": 269558, 
                            "v": 96, 
                            "dur": 400, 
                            "type": "note", 
                            "channel": 7
                        }
                    ]
                ], 
                [
                    270054, 
                    [
                        {
                            "pitch": 45, 
                            "t0": 270054, 
                            "v": 116, 
                            "dur": 546, 
                            "type": "note", 
                            "channel": 7
                        }
                    ]
                ], 
                [
                    270562, 
                    [
                        {
                            "pitch": 40, 
                            "t0": 270562, 
                            "v": 108, 
                            "dur": 508, 
                            "type": "note", 
                            "channel": 7
                        }
                    ]
                ], 
                [
                    271566, 
                    [
                        {
                            "pitch": 40, 
                            "t0": 271566, 
                            "v": 96, 
                            "dur": 334, 
                            "type": "note", 
                            "channel": 7
                        }
                    ]
                ], 
                [
                    272030, 
                    [
                        {
                            "pitch": 43, 
                            "t0": 272030, 
                            "v": 112, 
                            "dur": 628, 
                            "type": "note", 
                            "channel": 7
                        }
                    ]
                ], 
                [
                    272496, 
                    [
                        {
                            "pitch": 38, 
                            "t0": 272496, 
                            "v": 104, 
                            "dur": 462, 
                            "type": "note", 
                            "channel": 7
                        }
                    ]
                ], 
                [
                    273538, 
                    [
                        {
                            "pitch": 40, 
                            "t0": 273538, 
                            "v": 100, 
                            "dur": 392, 
                            "type": "note", 
                            "channel": 7
                        }
                    ]
                ], 
                [
                    274042, 
                    [
                        {
                            "pitch": 45, 
                            "t0": 274042, 
                            "v": 112, 
                            "dur": 508, 
                            "type": "note", 
                            "channel": 7
                        }
                    ]
                ], 
                [
                    274558, 
                    [
                        {
                            "pitch": 40, 
                            "t0": 274558, 
                            "v": 104, 
                            "dur": 392, 
                            "type": "note", 
                            "channel": 7
                        }
                    ]
                ], 
                [
                    275558, 
                    [
                        {
                            "pitch": 40, 
                            "t0": 275558, 
                            "v": 96, 
                            "dur": 322, 
                            "type": "note", 
                            "channel": 7
                        }
                    ]
                ], 
                [
                    276016, 
                    [
                        {
                            "pitch": 43, 
                            "t0": 276016, 
                            "v": 112, 
                            "dur": 500, 
                            "type": "note", 
                            "channel": 7
                        }
                    ]
                ], 
                [
                    276530, 
                    [
                        {
                            "pitch": 38, 
                            "t0": 276530, 
                            "v": 116, 
                            "dur": 390, 
                            "type": "note", 
                            "channel": 7
                        }
                    ]
                ], 
                [
                    277658, 
                    [
                        {
                            "pitch": 40, 
                            "t0": 277658, 
                            "v": 108, 
                            "dur": 358, 
                            "type": "note", 
                            "channel": 7
                        }
                    ]
                ], 
                [
                    278126, 
                    [
                        {
                            "pitch": 45, 
                            "t0": 278126, 
                            "v": 116, 
                            "dur": 490, 
                            "type": "note", 
                            "channel": 7
                        }
                    ]
                ], 
                [
                    278596, 
                    [
                        {
                            "pitch": 40, 
                            "t0": 278596, 
                            "v": 104, 
                            "dur": 430, 
                            "type": "note", 
                            "channel": 7
                        }
                    ]
                ], 
                [
                    279520, 
                    [
                        {
                            "pitch": 40, 
                            "t0": 279520, 
                            "v": 92, 
                            "dur": 356, 
                            "type": "note", 
                            "channel": 7
                        }
                    ]
                ], 
                [
                    280012, 
                    [
                        {
                            "pitch": 43, 
                            "t0": 280012, 
                            "v": 116, 
                            "dur": 626, 
                            "type": "note", 
                            "channel": 7
                        }
                    ]
                ], 
                [
                    280500, 
                    [
                        {
                            "pitch": 38, 
                            "t0": 280500, 
                            "v": 108, 
                            "dur": 442, 
                            "type": "note", 
                            "channel": 7
                        }
                    ]
                ], 
                [
                    281550, 
                    [
                        {
                            "pitch": 40, 
                            "t0": 281550, 
                            "v": 92, 
                            "dur": 396, 
                            "type": "note", 
                            "channel": 7
                        }
                    ]
                ], 
                [
                    282050, 
                    [
                        {
                            "pitch": 45, 
                            "t0": 282050, 
                            "v": 112, 
                            "dur": 508, 
                            "type": "note", 
                            "channel": 7
                        }
                    ]
                ], 
                [
                    282554, 
                    [
                        {
                            "pitch": 40, 
                            "t0": 282554, 
                            "v": 108, 
                            "dur": 354, 
                            "type": "note", 
                            "channel": 7
                        }
                    ]
                ], 
                [
                    283534, 
                    [
                        {
                            "pitch": 40, 
                            "t0": 283534, 
                            "v": 96, 
                            "dur": 324, 
                            "type": "note", 
                            "channel": 7
                        }
                    ]
                ], 
                [
                    284000, 
                    [
                        {
                            "pitch": 43, 
                            "t0": 284000, 
                            "v": 116, 
                            "dur": 558, 
                            "type": "note", 
                            "channel": 7
                        }
                    ]
                ], 
                [
                    284500, 
                    [
                        {
                            "pitch": 38, 
                            "t0": 284500, 
                            "v": 100, 
                            "dur": 404, 
                            "type": "note", 
                            "channel": 7
                        }
                    ]
                ], 
                [
                    285542, 
                    [
                        {
                            "pitch": 40, 
                            "t0": 285542, 
                            "v": 104, 
                            "dur": 400, 
                            "type": "note", 
                            "channel": 7
                        }
                    ]
                ], 
                [
                    286054, 
                    [
                        {
                            "pitch": 45, 
                            "t0": 286054, 
                            "v": 120, 
                            "dur": 496, 
                            "type": "note", 
                            "channel": 7
                        }
                    ]
                ], 
                [
                    286534, 
                    [
                        {
                            "pitch": 40, 
                            "t0": 286534, 
                            "v": 108, 
                            "dur": 362, 
                            "type": "note", 
                            "channel": 7
                        }
                    ]
                ], 
                [
                    287530, 
                    [
                        {
                            "pitch": 40, 
                            "t0": 287530, 
                            "v": 100, 
                            "dur": 308, 
                            "type": "note", 
                            "channel": 7
                        }
                    ]
                ], 
                [
                    288008, 
                    [
                        {
                            "pitch": 43, 
                            "t0": 288008, 
                            "v": 104, 
                            "dur": 488, 
                            "type": "note", 
                            "channel": 7
                        }
                    ]
                ], 
                [
                    288500, 
                    [
                        {
                            "pitch": 38, 
                            "t0": 288500, 
                            "v": 112, 
                            "dur": 430, 
                            "type": "note", 
                            "channel": 7
                        }
                    ]
                ], 
                [
                    289584, 
                    [
                        {
                            "pitch": 40, 
                            "t0": 289584, 
                            "v": 100, 
                            "dur": 382, 
                            "type": "note", 
                            "channel": 7
                        }
                    ]
                ], 
                [
                    290050, 
                    [
                        {
                            "pitch": 45, 
                            "t0": 290050, 
                            "v": 112, 
                            "dur": 542, 
                            "type": "note", 
                            "channel": 7
                        }
                    ]
                ], 
                [
                    290546, 
                    [
                        {
                            "pitch": 40, 
                            "t0": 290546, 
                            "v": 104, 
                            "dur": 496, 
                            "type": "note", 
                            "channel": 7
                        }
                    ]
                ], 
                [
                    291576, 
                    [
                        {
                            "pitch": 40, 
                            "t0": 291576, 
                            "v": 92, 
                            "dur": 366, 
                            "type": "note", 
                            "channel": 7
                        }
                    ]
                ], 
                [
                    292026, 
                    [
                        {
                            "pitch": 43, 
                            "t0": 292026, 
                            "v": 108, 
                            "dur": 504, 
                            "type": "note", 
                            "channel": 7
                        }
                    ]
                ], 
                [
                    292492, 
                    [
                        {
                            "pitch": 38, 
                            "t0": 292492, 
                            "v": 100, 
                            "dur": 508, 
                            "type": "note", 
                            "channel": 7
                        }
                    ]
                ], 
                [
                    293554, 
                    [
                        {
                            "pitch": 40, 
                            "t0": 293554, 
                            "v": 104, 
                            "dur": 408, 
                            "type": "note", 
                            "channel": 7
                        }
                    ]
                ], 
                [
                    294042, 
                    [
                        {
                            "pitch": 45, 
                            "t0": 294042, 
                            "v": 112, 
                            "dur": 496, 
                            "type": "note", 
                            "channel": 7
                        }
                    ]
                ], 
                [
                    294516, 
                    [
                        {
                            "pitch": 40, 
                            "t0": 294516, 
                            "v": 104, 
                            "dur": 354, 
                            "type": "note", 
                            "channel": 7
                        }
                    ]
                ], 
                [
                    295538, 
                    [
                        {
                            "pitch": 40, 
                            "t0": 295538, 
                            "v": 96, 
                            "dur": 366, 
                            "type": "note", 
                            "channel": 7
                        }
                    ]
                ], 
                [
                    296020, 
                    [
                        {
                            "pitch": 43, 
                            "t0": 296020, 
                            "v": 112, 
                            "dur": 464, 
                            "type": "note", 
                            "channel": 7
                        }
                    ]
                ], 
                [
                    296504, 
                    [
                        {
                            "pitch": 38, 
                            "t0": 296504, 
                            "v": 112, 
                            "dur": 496, 
                            "type": "note", 
                            "channel": 7
                        }
                    ]
                ], 
                [
                    297550, 
                    [
                        {
                            "pitch": 40, 
                            "t0": 297550, 
                            "v": 104, 
                            "dur": 366, 
                            "type": "note", 
                            "channel": 7
                        }
                    ]
                ], 
                [
                    298054, 
                    [
                        {
                            "pitch": 45, 
                            "t0": 298054, 
                            "v": 116, 
                            "dur": 466, 
                            "type": "note", 
                            "channel": 7
                        }
                    ]
                ], 
                [
                    298526, 
                    [
                        {
                            "pitch": 40, 
                            "t0": 298526, 
                            "v": 112, 
                            "dur": 404, 
                            "type": "note", 
                            "channel": 7
                        }
                    ]
                ], 
                [
                    299466, 
                    [
                        {
                            "pitch": 40, 
                            "t0": 299466, 
                            "v": 92, 
                            "dur": 350, 
                            "type": "note", 
                            "channel": 7
                        }
                    ]
                ], 
                [
                    299980, 
                    [
                        {
                            "pitch": 43, 
                            "t0": 299980, 
                            "v": 108, 
                            "dur": 450, 
                            "type": "note", 
                            "channel": 7
                        }
                    ]
                ], 
                [
                    300466, 
                    [
                        {
                            "pitch": 38, 
                            "t0": 300466, 
                            "v": 112, 
                            "dur": 504, 
                            "type": "note", 
                            "channel": 7
                        }
                    ]
                ], 
                [
                    301538, 
                    [
                        {
                            "pitch": 40, 
                            "t0": 301538, 
                            "v": 96, 
                            "dur": 412, 
                            "type": "note", 
                            "channel": 7
                        }
                    ]
                ], 
                [
                    302076, 
                    [
                        {
                            "pitch": 45, 
                            "t0": 302076, 
                            "v": 116, 
                            "dur": 458, 
                            "type": "note", 
                            "channel": 7
                        }
                    ]
                ], 
                [
                    302520, 
                    [
                        {
                            "pitch": 40, 
                            "t0": 302520, 
                            "v": 108, 
                            "dur": 410, 
                            "type": "note", 
                            "channel": 7
                        }
                    ]
                ], 
                [
                    303546, 
                    [
                        {
                            "pitch": 40, 
                            "t0": 303546, 
                            "v": 88, 
                            "dur": 358, 
                            "type": "note", 
                            "channel": 7
                        }
                    ]
                ], 
                [
                    304050, 
                    [
                        {
                            "pitch": 43, 
                            "t0": 304050, 
                            "v": 108, 
                            "dur": 458, 
                            "type": "note", 
                            "channel": 7
                        }
                    ]
                ], 
                [
                    304530, 
                    [
                        {
                            "pitch": 38, 
                            "t0": 304530, 
                            "v": 108, 
                            "dur": 432, 
                            "type": "note", 
                            "channel": 7
                        }
                    ]
                ], 
                [
                    305596, 
                    [
                        {
                            "pitch": 40, 
                            "t0": 305596, 
                            "v": 84, 
                            "dur": 434, 
                            "type": "note", 
                            "channel": 7
                        }
                    ]
                ], 
                [
                    306100, 
                    [
                        {
                            "pitch": 45, 
                            "t0": 306100, 
                            "v": 108, 
                            "dur": 458, 
                            "type": "note", 
                            "channel": 7
                        }
                    ]
                ], 
                [
                    306538, 
                    [
                        {
                            "pitch": 40, 
                            "t0": 306538, 
                            "v": 108, 
                            "dur": 508, 
                            "type": "note", 
                            "channel": 7
                        }
                    ]
                ], 
                [
                    307538, 
                    [
                        {
                            "pitch": 40, 
                            "t0": 307538, 
                            "v": 84, 
                            "dur": 396, 
                            "type": "note", 
                            "channel": 7
                        }
                    ]
                ], 
                [
                    308066, 
                    [
                        {
                            "pitch": 43, 
                            "t0": 308066, 
                            "v": 116, 
                            "dur": 434, 
                            "type": "note", 
                            "channel": 7
                        }
                    ]
                ], 
                [
                    308542, 
                    [
                        {
                            "pitch": 38, 
                            "t0": 308542, 
                            "v": 112, 
                            "dur": 416, 
                            "type": "note", 
                            "channel": 7
                        }
                    ]
                ], 
                [
                    309538, 
                    [
                        {
                            "pitch": 40, 
                            "t0": 309538, 
                            "v": 108, 
                            "dur": 382, 
                            "type": "note", 
                            "channel": 7
                        }
                    ]
                ], 
                [
                    310058, 
                    [
                        {
                            "pitch": 45, 
                            "t0": 310058, 
                            "v": 116, 
                            "dur": 450, 
                            "type": "note", 
                            "channel": 7
                        }
                    ]
                ], 
                [
                    310520, 
                    [
                        {
                            "pitch": 40, 
                            "t0": 310520, 
                            "v": 104, 
                            "dur": 422, 
                            "type": "note", 
                            "channel": 7
                        }
                    ]
                ], 
                [
                    311508, 
                    [
                        {
                            "pitch": 40, 
                            "t0": 311508, 
                            "v": 92, 
                            "dur": 368, 
                            "type": "note", 
                            "channel": 7
                        }
                    ]
                ], 
                [
                    312026, 
                    [
                        {
                            "pitch": 43, 
                            "t0": 312026, 
                            "v": 112, 
                            "dur": 404, 
                            "type": "note", 
                            "channel": 7
                        }
                    ]
                ], 
                [
                    312442, 
                    [
                        {
                            "pitch": 38, 
                            "t0": 312442, 
                            "v": 108, 
                            "dur": 500, 
                            "type": "note", 
                            "channel": 7
                        }
                    ]
                ], 
                [
                    313534, 
                    [
                        {
                            "pitch": 40, 
                            "t0": 313534, 
                            "v": 108, 
                            "dur": 420, 
                            "type": "note", 
                            "channel": 7
                        }
                    ]
                ], 
                [
                    314038, 
                    [
                        {
                            "pitch": 45, 
                            "t0": 314038, 
                            "v": 120, 
                            "dur": 500, 
                            "type": "note", 
                            "channel": 7
                        }
                    ]
                ], 
                [
                    314512, 
                    [
                        {
                            "pitch": 40, 
                            "t0": 314512, 
                            "v": 100, 
                            "dur": 426, 
                            "type": "note", 
                            "channel": 7
                        }
                    ]
                ], 
                [
                    315530, 
                    [
                        {
                            "pitch": 40, 
                            "t0": 315530, 
                            "v": 100, 
                            "dur": 320, 
                            "type": "note", 
                            "channel": 7
                        }
                    ]
                ], 
                [
                    316034, 
                    [
                        {
                            "pitch": 43, 
                            "t0": 316034, 
                            "v": 116, 
                            "dur": 486, 
                            "type": "note", 
                            "channel": 7
                        }
                    ]
                ], 
                [
                    316530, 
                    [
                        {
                            "pitch": 38, 
                            "t0": 316530, 
                            "v": 112, 
                            "dur": 508, 
                            "type": "note", 
                            "channel": 7
                        }
                    ]
                ], 
                [
                    317566, 
                    [
                        {
                            "pitch": 40, 
                            "t0": 317566, 
                            "v": 96, 
                            "dur": 384, 
                            "type": "note", 
                            "channel": 7
                        }
                    ]
                ], 
                [
                    318070, 
                    [
                        {
                            "pitch": 45, 
                            "t0": 318070, 
                            "v": 116, 
                            "dur": 460, 
                            "type": "note", 
                            "channel": 7
                        }
                    ]
                ], 
                [
                    318508, 
                    [
                        {
                            "pitch": 40, 
                            "t0": 318508, 
                            "v": 104, 
                            "dur": 462, 
                            "type": "note", 
                            "channel": 7
                        }
                    ]
                ], 
                [
                    319496, 
                    [
                        {
                            "pitch": 40, 
                            "t0": 319496, 
                            "v": 96, 
                            "dur": 408, 
                            "type": "note", 
                            "channel": 7
                        }
                    ]
                ], 
                [
                    319992, 
                    [
                        {
                            "pitch": 43, 
                            "t0": 319992, 
                            "v": 108, 
                            "dur": 454, 
                            "type": "note", 
                            "channel": 7
                        }
                    ]
                ], 
                [
                    320450, 
                    [
                        {
                            "pitch": 38, 
                            "t0": 320450, 
                            "v": 100, 
                            "dur": 412, 
                            "type": "note", 
                            "channel": 7
                        }
                    ]
                ], 
                [
                    321554, 
                    [
                        {
                            "pitch": 40, 
                            "t0": 321554, 
                            "v": 88, 
                            "dur": 384, 
                            "type": "note", 
                            "channel": 7
                        }
                    ]
                ], 
                [
                    322038, 
                    [
                        {
                            "pitch": 45, 
                            "t0": 322038, 
                            "v": 108, 
                            "dur": 482, 
                            "type": "note", 
                            "channel": 7
                        }
                    ]
                ], 
                [
                    322542, 
                    [
                        {
                            "pitch": 40, 
                            "t0": 322542, 
                            "v": 108, 
                            "dur": 400, 
                            "type": "note", 
                            "channel": 7
                        }
                    ]
                ], 
                [
                    323492, 
                    [
                        {
                            "pitch": 40, 
                            "t0": 323492, 
                            "v": 92, 
                            "dur": 374, 
                            "type": "note", 
                            "channel": 7
                        }
                    ]
                ], 
                [
                    323988, 
                    [
                        {
                            "pitch": 43, 
                            "t0": 323988, 
                            "v": 108, 
                            "dur": 470, 
                            "type": "note", 
                            "channel": 7
                        }
                    ]
                ], 
                [
                    324462, 
                    [
                        {
                            "pitch": 38, 
                            "t0": 324462, 
                            "v": 108, 
                            "dur": 480, 
                            "type": "note", 
                            "channel": 7
                        }
                    ]
                ], 
                [
                    325470, 
                    [
                        {
                            "pitch": 40, 
                            "t0": 325470, 
                            "v": 96, 
                            "dur": 392, 
                            "type": "note", 
                            "channel": 7
                        }
                    ]
                ], 
                [
                    326020, 
                    [
                        {
                            "pitch": 45, 
                            "t0": 326020, 
                            "v": 116, 
                            "dur": 476, 
                            "type": "note", 
                            "channel": 7
                        }
                    ]
                ], 
                [
                    326500, 
                    [
                        {
                            "pitch": 40, 
                            "t0": 326500, 
                            "v": 104, 
                            "dur": 434, 
                            "type": "note", 
                            "channel": 7
                        }
                    ]
                ], 
                [
                    327530, 
                    [
                        {
                            "pitch": 40, 
                            "t0": 327530, 
                            "v": 92, 
                            "dur": 362, 
                            "type": "note", 
                            "channel": 7
                        }
                    ]
                ], 
                [
                    328008, 
                    [
                        {
                            "pitch": 43, 
                            "t0": 328008, 
                            "v": 108, 
                            "dur": 458, 
                            "type": "note", 
                            "channel": 7
                        }
                    ]
                ], 
                [
                    328492, 
                    [
                        {
                            "pitch": 38, 
                            "t0": 328492, 
                            "v": 112, 
                            "dur": 508, 
                            "type": "note", 
                            "channel": 7
                        }
                    ]
                ], 
                [
                    329596, 
                    [
                        {
                            "pitch": 40, 
                            "t0": 329596, 
                            "v": 96, 
                            "dur": 392, 
                            "type": "note", 
                            "channel": 7
                        }
                    ]
                ], 
                [
                    330054, 
                    [
                        {
                            "pitch": 45, 
                            "t0": 330054, 
                            "v": 104, 
                            "dur": 522, 
                            "type": "note", 
                            "channel": 7
                        }
                    ]
                ], 
                [
                    330570, 
                    [
                        {
                            "pitch": 40, 
                            "t0": 330570, 
                            "v": 104, 
                            "dur": 522, 
                            "type": "note", 
                            "channel": 7
                        }
                    ]
                ], 
                [
                    331570, 
                    [
                        {
                            "pitch": 40, 
                            "t0": 331570, 
                            "v": 96, 
                            "dur": 392, 
                            "type": "note", 
                            "channel": 7
                        }
                    ]
                ], 
                [
                    332100, 
                    [
                        {
                            "pitch": 43, 
                            "t0": 332100, 
                            "v": 112, 
                            "dur": 458, 
                            "type": "note", 
                            "channel": 7
                        }
                    ]
                ], 
                [
                    332558, 
                    [
                        {
                            "pitch": 38, 
                            "t0": 332558, 
                            "v": 100, 
                            "dur": 468, 
                            "type": "note", 
                            "channel": 7
                        }
                    ]
                ], 
                [
                    333550, 
                    [
                        {
                            "pitch": 40, 
                            "t0": 333550, 
                            "v": 84, 
                            "dur": 446, 
                            "type": "note", 
                            "channel": 7
                        }
                    ]
                ], 
                [
                    334116, 
                    [
                        {
                            "pitch": 45, 
                            "t0": 334116, 
                            "v": 108, 
                            "dur": 476, 
                            "type": "note", 
                            "channel": 7
                        }
                    ]
                ], 
                [
                    334576, 
                    [
                        {
                            "pitch": 40, 
                            "t0": 334576, 
                            "v": 96, 
                            "dur": 478, 
                            "type": "note", 
                            "channel": 7
                        }
                    ]
                ], 
                [
                    335676, 
                    [
                        {
                            "pitch": 40, 
                            "t0": 335676, 
                            "v": 100, 
                            "dur": 362, 
                            "type": "note", 
                            "channel": 7
                        }
                    ]
                ], 
                [
                    336146, 
                    [
                        {
                            "pitch": 43, 
                            "t0": 336146, 
                            "v": 100, 
                            "dur": 500, 
                            "type": "note", 
                            "channel": 7
                        }
                    ]
                ], 
                [
                    336608, 
                    [
                        {
                            "pitch": 38, 
                            "t0": 336608, 
                            "v": 108, 
                            "dur": 522, 
                            "type": "note", 
                            "channel": 7
                        }
                    ]
                ], 
                [
                    337650, 
                    [
                        {
                            "pitch": 40, 
                            "t0": 337650, 
                            "v": 108, 
                            "dur": 380, 
                            "type": "note", 
                            "channel": 7
                        }
                    ]
                ], 
                [
                    338134, 
                    [
                        {
                            "pitch": 45, 
                            "t0": 338134, 
                            "v": 112, 
                            "dur": 462, 
                            "type": "note", 
                            "channel": 7
                        }
                    ]
                ], 
                [
                    338592, 
                    [
                        {
                            "pitch": 40, 
                            "t0": 338592, 
                            "v": 108, 
                            "dur": 554, 
                            "type": "note", 
                            "channel": 7
                        }
                    ]
                ], 
                [
                    339588, 
                    [
                        {
                            "pitch": 40, 
                            "t0": 339588, 
                            "v": 92, 
                            "dur": 404, 
                            "type": "note", 
                            "channel": 7
                        }
                    ]
                ], 
                [
                    340108, 
                    [
                        {
                            "pitch": 43, 
                            "t0": 340108, 
                            "v": 112, 
                            "dur": 462, 
                            "type": "note", 
                            "channel": 7
                        }
                    ]
                ], 
                [
                    340554, 
                    [
                        {
                            "pitch": 38, 
                            "t0": 340554, 
                            "v": 108, 
                            "dur": 554, 
                            "type": "note", 
                            "channel": 7
                        }
                    ]
                ], 
                [
                    341558, 
                    [
                        {
                            "pitch": 40, 
                            "t0": 341558, 
                            "v": 100, 
                            "dur": 442, 
                            "type": "note", 
                            "channel": 7
                        }
                    ]
                ], 
                [
                    342092, 
                    [
                        {
                            "pitch": 45, 
                            "t0": 342092, 
                            "v": 108, 
                            "dur": 470, 
                            "type": "note", 
                            "channel": 7
                        }
                    ]
                ], 
                [
                    342542, 
                    [
                        {
                            "pitch": 40, 
                            "t0": 342542, 
                            "v": 104, 
                            "dur": 478, 
                            "type": "note", 
                            "channel": 7
                        }
                    ]
                ], 
                [
                    343538, 
                    [
                        {
                            "pitch": 40, 
                            "t0": 343538, 
                            "v": 84, 
                            "dur": 378, 
                            "type": "note", 
                            "channel": 7
                        }
                    ]
                ], 
                [
                    344030, 
                    [
                        {
                            "pitch": 43, 
                            "t0": 344030, 
                            "v": 112, 
                            "dur": 454, 
                            "type": "note", 
                            "channel": 7
                        }
                    ]
                ], 
                [
                    344476, 
                    [
                        {
                            "pitch": 38, 
                            "t0": 344476, 
                            "v": 100, 
                            "dur": 436, 
                            "type": "note", 
                            "channel": 7
                        }
                    ]
                ], 
                [
                    345562, 
                    [
                        {
                            "pitch": 40, 
                            "t0": 345562, 
                            "v": 80, 
                            "dur": 438, 
                            "type": "note", 
                            "channel": 7
                        }
                    ]
                ], 
                [
                    346054, 
                    [
                        {
                            "pitch": 45, 
                            "t0": 346054, 
                            "v": 104, 
                            "dur": 472, 
                            "type": "note", 
                            "channel": 7
                        }
                    ]
                ], 
                [
                    346530, 
                    [
                        {
                            "pitch": 40, 
                            "t0": 346530, 
                            "v": 92, 
                            "dur": 454, 
                            "type": "note", 
                            "channel": 7
                        }
                    ]
                ], 
                [
                    347530, 
                    [
                        {
                            "pitch": 40, 
                            "t0": 347530, 
                            "v": 80, 
                            "dur": 362, 
                            "type": "note", 
                            "channel": 7
                        }
                    ]
                ], 
                [
                    348038, 
                    [
                        {
                            "pitch": 43, 
                            "t0": 348038, 
                            "v": 112, 
                            "dur": 482, 
                            "type": "note", 
                            "channel": 7
                        }
                    ]
                ], 
                [
                    348500, 
                    [
                        {
                            "pitch": 38, 
                            "t0": 348500, 
                            "v": 96, 
                            "dur": 454, 
                            "type": "note", 
                            "channel": 7
                        }
                    ]
                ], 
                [
                    349566, 
                    [
                        {
                            "pitch": 40, 
                            "t0": 349566, 
                            "v": 100, 
                            "dur": 384, 
                            "type": "note", 
                            "channel": 7
                        }
                    ]
                ], 
                [
                    350108, 
                    [
                        {
                            "pitch": 45, 
                            "t0": 350108, 
                            "v": 112, 
                            "dur": 450, 
                            "type": "note", 
                            "channel": 7
                        }
                    ]
                ], 
                [
                    350546, 
                    [
                        {
                            "pitch": 40, 
                            "t0": 350546, 
                            "v": 100, 
                            "dur": 454, 
                            "type": "note", 
                            "channel": 7
                        }
                    ]
                ], 
                [
                    351596, 
                    [
                        {
                            "pitch": 40, 
                            "t0": 351596, 
                            "v": 92, 
                            "dur": 358, 
                            "type": "note", 
                            "channel": 7
                        }
                    ]
                ], 
                [
                    352134, 
                    [
                        {
                            "pitch": 43, 
                            "t0": 352134, 
                            "v": 112, 
                            "dur": 450, 
                            "type": "note", 
                            "channel": 7
                        }
                    ]
                ], 
                [
                    352566, 
                    [
                        {
                            "pitch": 38, 
                            "t0": 352566, 
                            "v": 104, 
                            "dur": 530, 
                            "type": "note", 
                            "channel": 7
                        }
                    ]
                ], 
                [
                    353634, 
                    [
                        {
                            "pitch": 40, 
                            "t0": 353634, 
                            "v": 96, 
                            "dur": 366, 
                            "type": "note", 
                            "channel": 7
                        }
                    ]
                ], 
                [
                    354126, 
                    [
                        {
                            "pitch": 45, 
                            "t0": 354126, 
                            "v": 112, 
                            "dur": 390, 
                            "type": "note", 
                            "channel": 7
                        }
                    ]
                ], 
                [
                    354534, 
                    [
                        {
                            "pitch": 40, 
                            "t0": 354534, 
                            "v": 112, 
                            "dur": 420, 
                            "type": "note", 
                            "channel": 7
                        }
                    ]
                ], 
                [
                    355570, 
                    [
                        {
                            "pitch": 40, 
                            "t0": 355570, 
                            "v": 84, 
                            "dur": 296, 
                            "type": "note", 
                            "channel": 7
                        }
                    ]
                ], 
                [
                    356080, 
                    [
                        {
                            "pitch": 43, 
                            "t0": 356080, 
                            "v": 116, 
                            "dur": 412, 
                            "type": "note", 
                            "channel": 7
                        }
                    ]
                ], 
                [
                    356504, 
                    [
                        {
                            "pitch": 38, 
                            "t0": 356504, 
                            "v": 100, 
                            "dur": 488, 
                            "type": "note", 
                            "channel": 7
                        }
                    ]
                ], 
                [
                    357580, 
                    [
                        {
                            "pitch": 40, 
                            "t0": 357580, 
                            "v": 80, 
                            "dur": 396, 
                            "type": "note", 
                            "channel": 7
                        }
                    ]
                ], 
                [
                    358146, 
                    [
                        {
                            "pitch": 45, 
                            "t0": 358146, 
                            "v": 112, 
                            "dur": 424, 
                            "type": "note", 
                            "channel": 7
                        }
                    ]
                ], 
                [
                    358562, 
                    [
                        {
                            "pitch": 40, 
                            "t0": 358562, 
                            "v": 96, 
                            "dur": 372, 
                            "type": "note", 
                            "channel": 7
                        }
                    ]
                ], 
                [
                    359600, 
                    [
                        {
                            "pitch": 38, 
                            "t0": 359600, 
                            "v": 88, 
                            "dur": 270, 
                            "type": "note", 
                            "channel": 7
                        }, 
                        {
                            "pitch": 40, 
                            "t0": 359600, 
                            "v": 60, 
                            "dur": 284, 
                            "type": "note", 
                            "channel": 7
                        }
                    ]
                ], 
                [
                    360050, 
                    [
                        {
                            "pitch": 43, 
                            "t0": 360050, 
                            "v": 104, 
                            "dur": 516, 
                            "type": "note", 
                            "channel": 7
                        }
                    ]
                ], 
                [
                    360496, 
                    [
                        {
                            "pitch": 38, 
                            "t0": 360496, 
                            "v": 108, 
                            "dur": 458, 
                            "type": "note", 
                            "channel": 7
                        }
                    ]
                ], 
                [
                    361600, 
                    [
                        {
                            "pitch": 40, 
                            "t0": 361600, 
                            "v": 96, 
                            "dur": 358, 
                            "type": "note", 
                            "channel": 7
                        }
                    ]
                ], 
                [
                    362104, 
                    [
                        {
                            "pitch": 45, 
                            "t0": 362104, 
                            "v": 112, 
                            "dur": 454, 
                            "type": "note", 
                            "channel": 7
                        }
                    ]
                ], 
                [
                    362526, 
                    [
                        {
                            "pitch": 40, 
                            "t0": 362526, 
                            "v": 100, 
                            "dur": 366, 
                            "type": "note", 
                            "channel": 7
                        }
                    ]
                ], 
                [
                    363512, 
                    [
                        {
                            "pitch": 40, 
                            "t0": 363512, 
                            "v": 96, 
                            "dur": 342, 
                            "type": "note", 
                            "channel": 7
                        }
                    ]
                ], 
                [
                    364020, 
                    [
                        {
                            "pitch": 43, 
                            "t0": 364020, 
                            "v": 100, 
                            "dur": 534, 
                            "type": "note", 
                            "channel": 7
                        }
                    ]
                ], 
                [
                    364476, 
                    [
                        {
                            "pitch": 38, 
                            "t0": 364476, 
                            "v": 96, 
                            "dur": 474, 
                            "type": "note", 
                            "channel": 7
                        }
                    ]
                ], 
                [
                    365596, 
                    [
                        {
                            "pitch": 40, 
                            "t0": 365596, 
                            "v": 100, 
                            "dur": 416, 
                            "type": "note", 
                            "channel": 7
                        }
                    ]
                ], 
                [
                    366096, 
                    [
                        {
                            "pitch": 45, 
                            "t0": 366096, 
                            "v": 112, 
                            "dur": 508, 
                            "type": "note", 
                            "channel": 7
                        }
                    ]
                ], 
                [
                    366530, 
                    [
                        {
                            "pitch": 40, 
                            "t0": 366530, 
                            "v": 100, 
                            "dur": 466, 
                            "type": "note", 
                            "channel": 7
                        }
                    ]
                ], 
                [
                    367566, 
                    [
                        {
                            "pitch": 40, 
                            "t0": 367566, 
                            "v": 96, 
                            "dur": 368, 
                            "type": "note", 
                            "channel": 7
                        }
                    ]
                ], 
                [
                    368080, 
                    [
                        {
                            "pitch": 43, 
                            "t0": 368080, 
                            "v": 108, 
                            "dur": 466, 
                            "type": "note", 
                            "channel": 7
                        }
                    ]
                ], 
                [
                    368516, 
                    [
                        {
                            "pitch": 38, 
                            "t0": 368516, 
                            "v": 104, 
                            "dur": 500, 
                            "type": "note", 
                            "channel": 7
                        }
                    ]
                ], 
                [
                    369612, 
                    [
                        {
                            "pitch": 40, 
                            "t0": 369612, 
                            "v": 100, 
                            "dur": 380, 
                            "type": "note", 
                            "channel": 7
                        }
                    ]
                ], 
                [
                    370162, 
                    [
                        {
                            "pitch": 45, 
                            "t0": 370162, 
                            "v": 112, 
                            "dur": 422, 
                            "type": "note", 
                            "channel": 7
                        }
                    ]
                ], 
                [
                    370562, 
                    [
                        {
                            "pitch": 40, 
                            "t0": 370562, 
                            "v": 104, 
                            "dur": 292, 
                            "type": "note", 
                            "channel": 7
                        }
                    ]
                ], 
                [
                    371608, 
                    [
                        {
                            "pitch": 40, 
                            "t0": 371608, 
                            "v": 100, 
                            "dur": 318, 
                            "type": "note", 
                            "channel": 7
                        }
                    ]
                ], 
                [
                    372130, 
                    [
                        {
                            "pitch": 43, 
                            "t0": 372130, 
                            "v": 116, 
                            "dur": 458, 
                            "type": "note", 
                            "channel": 7
                        }
                    ]
                ], 
                [
                    372558, 
                    [
                        {
                            "pitch": 38, 
                            "t0": 372558, 
                            "v": 104, 
                            "dur": 400, 
                            "type": "note", 
                            "channel": 7
                        }
                    ]
                ], 
                [
                    373626, 
                    [
                        {
                            "pitch": 40, 
                            "t0": 373626, 
                            "v": 104, 
                            "dur": 408, 
                            "type": "note", 
                            "channel": 7
                        }
                    ]
                ], 
                [
                    374076, 
                    [
                        {
                            "pitch": 45, 
                            "t0": 374076, 
                            "v": 116, 
                            "dur": 544, 
                            "type": "note", 
                            "channel": 7
                        }
                    ]
                ], 
                [
                    374538, 
                    [
                        {
                            "pitch": 40, 
                            "t0": 374538, 
                            "v": 104, 
                            "dur": 478, 
                            "type": "note", 
                            "channel": 7
                        }
                    ]
                ], 
                [
                    375558, 
                    [
                        {
                            "pitch": 40, 
                            "t0": 375558, 
                            "v": 100, 
                            "dur": 350, 
                            "type": "note", 
                            "channel": 7
                        }
                    ]
                ], 
                [
                    376062, 
                    [
                        {
                            "pitch": 43, 
                            "t0": 376062, 
                            "v": 116, 
                            "dur": 454, 
                            "type": "note", 
                            "channel": 7
                        }
                    ]
                ], 
                [
                    376500, 
                    [
                        {
                            "pitch": 38, 
                            "t0": 376500, 
                            "v": 108, 
                            "dur": 430, 
                            "type": "note", 
                            "channel": 7
                        }
                    ]
                ], 
                [
                    377612, 
                    [
                        {
                            "pitch": 40, 
                            "t0": 377612, 
                            "v": 108, 
                            "dur": 384, 
                            "type": "note", 
                            "channel": 7
                        }
                    ]
                ], 
                [
                    378092, 
                    [
                        {
                            "pitch": 45, 
                            "t0": 378092, 
                            "v": 112, 
                            "dur": 458, 
                            "type": "note", 
                            "channel": 7
                        }
                    ]
                ], 
                [
                    378542, 
                    [
                        {
                            "pitch": 40, 
                            "t0": 378542, 
                            "v": 108, 
                            "dur": 578, 
                            "type": "note", 
                            "channel": 7
                        }
                    ]
                ], 
                [
                    379554, 
                    [
                        {
                            "pitch": 40, 
                            "t0": 379554, 
                            "v": 100, 
                            "dur": 342, 
                            "type": "note", 
                            "channel": 7
                        }
                    ]
                ], 
                [
                    380058, 
                    [
                        {
                            "pitch": 43, 
                            "t0": 380058, 
                            "v": 108, 
                            "dur": 484, 
                            "type": "note", 
                            "channel": 7
                        }
                    ]
                ], 
                [
                    380516, 
                    [
                        {
                            "pitch": 38, 
                            "t0": 380516, 
                            "v": 108, 
                            "dur": 530, 
                            "type": "note", 
                            "channel": 7
                        }
                    ]
                ], 
                [
                    381550, 
                    [
                        {
                            "pitch": 40, 
                            "t0": 381550, 
                            "v": 104, 
                            "dur": 388, 
                            "type": "note", 
                            "channel": 7
                        }
                    ]
                ], 
                [
                    382054, 
                    [
                        {
                            "pitch": 45, 
                            "t0": 382054, 
                            "v": 116, 
                            "dur": 472, 
                            "type": "note", 
                            "channel": 7
                        }
                    ]
                ], 
                [
                    382488, 
                    [
                        {
                            "pitch": 40, 
                            "t0": 382488, 
                            "v": 92, 
                            "dur": 542, 
                            "type": "note", 
                            "channel": 7
                        }
                    ]
                ], 
                [
                    383512, 
                    [
                        {
                            "pitch": 40, 
                            "t0": 383512, 
                            "v": 100, 
                            "dur": 404, 
                            "type": "note", 
                            "channel": 7
                        }
                    ]
                ], 
                [
                    384008, 
                    [
                        {
                            "pitch": 43, 
                            "t0": 384008, 
                            "v": 108, 
                            "dur": 658, 
                            "type": "note", 
                            "channel": 7
                        }
                    ]
                ], 
                [
                    384476, 
                    [
                        {
                            "pitch": 38, 
                            "t0": 384476, 
                            "v": 108, 
                            "dur": 466, 
                            "type": "note", 
                            "channel": 7
                        }
                    ]
                ], 
                [
                    385492, 
                    [
                        {
                            "pitch": 40, 
                            "t0": 385492, 
                            "v": 100, 
                            "dur": 388, 
                            "type": "note", 
                            "channel": 7
                        }
                    ]
                ], 
                [
                    385970, 
                    [
                        {
                            "pitch": 45, 
                            "t0": 385970, 
                            "v": 112, 
                            "dur": 530, 
                            "type": "note", 
                            "channel": 7
                        }
                    ]
                ], 
                [
                    386400, 
                    [
                        {
                            "pitch": 40, 
                            "t0": 386400, 
                            "v": 108, 
                            "dur": 588, 
                            "type": "note", 
                            "channel": 7
                        }
                    ]
                ], 
                [
                    387420, 
                    [
                        {
                            "pitch": 40, 
                            "t0": 387420, 
                            "v": 104, 
                            "dur": 410, 
                            "type": "note", 
                            "channel": 7
                        }
                    ]
                ], 
                [
                    387912, 
                    [
                        {
                            "pitch": 43, 
                            "t0": 387912, 
                            "v": 112, 
                            "dur": 642, 
                            "type": "note", 
                            "channel": 7
                        }
                    ]
                ], 
                [
                    388420, 
                    [
                        {
                            "pitch": 38, 
                            "t0": 388420, 
                            "v": 112, 
                            "dur": 476, 
                            "type": "note", 
                            "channel": 7
                        }
                    ]
                ], 
                [
                    389470, 
                    [
                        {
                            "pitch": 40, 
                            "t0": 389470, 
                            "v": 108, 
                            "dur": 380, 
                            "type": "note", 
                            "channel": 7
                        }
                    ]
                ], 
                [
                    389942, 
                    [
                        {
                            "pitch": 45, 
                            "t0": 389942, 
                            "v": 112, 
                            "dur": 528, 
                            "type": "note", 
                            "channel": 7
                        }
                    ]
                ], 
                [
                    390430, 
                    [
                        {
                            "pitch": 40, 
                            "t0": 390430, 
                            "v": 108, 
                            "dur": 554, 
                            "type": "note", 
                            "channel": 7
                        }
                    ]
                ], 
                [
                    391496, 
                    [
                        {
                            "pitch": 40, 
                            "t0": 391496, 
                            "v": 96, 
                            "dur": 396, 
                            "type": "note", 
                            "channel": 7
                        }
                    ]
                ], 
                [
                    391970, 
                    [
                        {
                            "pitch": 43, 
                            "t0": 391970, 
                            "v": 108, 
                            "dur": 450, 
                            "type": "note", 
                            "channel": 7
                        }
                    ]
                ], 
                [
                    392454, 
                    [
                        {
                            "pitch": 38, 
                            "t0": 392454, 
                            "v": 104, 
                            "dur": 496, 
                            "type": "note", 
                            "channel": 7
                        }
                    ]
                ], 
                [
                    393504, 
                    [
                        {
                            "pitch": 40, 
                            "t0": 393504, 
                            "v": 92, 
                            "dur": 426, 
                            "type": "note", 
                            "channel": 7
                        }
                    ]
                ], 
                [
                    394030, 
                    [
                        {
                            "pitch": 45, 
                            "t0": 394030, 
                            "v": 108, 
                            "dur": 490, 
                            "type": "note", 
                            "channel": 7
                        }
                    ]
                ], 
                [
                    394530, 
                    [
                        {
                            "pitch": 40, 
                            "t0": 394530, 
                            "v": 104, 
                            "dur": 528, 
                            "type": "note", 
                            "channel": 7
                        }
                    ]
                ], 
                [
                    395496, 
                    [
                        {
                            "pitch": 40, 
                            "t0": 395496, 
                            "v": 96, 
                            "dur": 354, 
                            "type": "note", 
                            "channel": 7
                        }
                    ]
                ], 
                [
                    395996, 
                    [
                        {
                            "pitch": 43, 
                            "t0": 395996, 
                            "v": 108, 
                            "dur": 484, 
                            "type": "note", 
                            "channel": 7
                        }
                    ]
                ], 
                [
                    396508, 
                    [
                        {
                            "pitch": 38, 
                            "t0": 396508, 
                            "v": 108, 
                            "dur": 500, 
                            "type": "note", 
                            "channel": 7
                        }
                    ]
                ], 
                [
                    397542, 
                    [
                        {
                            "pitch": 40, 
                            "t0": 397542, 
                            "v": 96, 
                            "dur": 404, 
                            "type": "note", 
                            "channel": 7
                        }
                    ]
                ], 
                [
                    398042, 
                    [
                        {
                            "pitch": 45, 
                            "t0": 398042, 
                            "v": 112, 
                            "dur": 512, 
                            "type": "note", 
                            "channel": 7
                        }
                    ]
                ], 
                [
                    398526, 
                    [
                        {
                            "pitch": 40, 
                            "t0": 398526, 
                            "v": 100, 
                            "dur": 604, 
                            "type": "note", 
                            "channel": 7
                        }
                    ]
                ], 
                [
                    399516, 
                    [
                        {
                            "pitch": 40, 
                            "t0": 399516, 
                            "v": 92, 
                            "dur": 392, 
                            "type": "note", 
                            "channel": 7
                        }
                    ]
                ], 
                [
                    400008, 
                    [
                        {
                            "pitch": 43, 
                            "t0": 400008, 
                            "v": 108, 
                            "dur": 592, 
                            "type": "note", 
                            "channel": 7
                        }
                    ]
                ], 
                [
                    400470, 
                    [
                        {
                            "pitch": 38, 
                            "t0": 400470, 
                            "v": 104, 
                            "dur": 476, 
                            "type": "note", 
                            "channel": 7
                        }
                    ]
                ], 
                [
                    401508, 
                    [
                        {
                            "pitch": 40, 
                            "t0": 401508, 
                            "v": 96, 
                            "dur": 392, 
                            "type": "note", 
                            "channel": 7
                        }
                    ]
                ], 
                [
                    402020, 
                    [
                        {
                            "pitch": 45, 
                            "t0": 402020, 
                            "v": 104, 
                            "dur": 522, 
                            "type": "note", 
                            "channel": 7
                        }
                    ]
                ], 
                [
                    402526, 
                    [
                        {
                            "pitch": 40, 
                            "t0": 402526, 
                            "v": 96, 
                            "dur": 540, 
                            "type": "note", 
                            "channel": 7
                        }
                    ]
                ], 
                [
                    403492, 
                    [
                        {
                            "pitch": 40, 
                            "t0": 403492, 
                            "v": 100, 
                            "dur": 354, 
                            "type": "note", 
                            "channel": 7
                        }
                    ]
                ], 
                [
                    403984, 
                    [
                        {
                            "pitch": 43, 
                            "t0": 403984, 
                            "v": 108, 
                            "dur": 636, 
                            "type": "note", 
                            "channel": 7
                        }
                    ]
                ], 
                [
                    404500, 
                    [
                        {
                            "pitch": 38, 
                            "t0": 404500, 
                            "v": 112, 
                            "dur": 554, 
                            "type": "note", 
                            "channel": 7
                        }
                    ]
                ], 
                [
                    405542, 
                    [
                        {
                            "pitch": 40, 
                            "t0": 405542, 
                            "v": 96, 
                            "dur": 404, 
                            "type": "note", 
                            "channel": 7
                        }
                    ]
                ], 
                [
                    406062, 
                    [
                        {
                            "pitch": 45, 
                            "t0": 406062, 
                            "v": 112, 
                            "dur": 496, 
                            "type": "note", 
                            "channel": 7
                        }
                    ]
                ], 
                [
                    406534, 
                    [
                        {
                            "pitch": 40, 
                            "t0": 406534, 
                            "v": 104, 
                            "dur": 474, 
                            "type": "note", 
                            "channel": 7
                        }
                    ]
                ], 
                [
                    407508, 
                    [
                        {
                            "pitch": 40, 
                            "t0": 407508, 
                            "v": 100, 
                            "dur": 326, 
                            "type": "note", 
                            "channel": 7
                        }
                    ]
                ], 
                [
                    408026, 
                    [
                        {
                            "pitch": 43, 
                            "t0": 408026, 
                            "v": 116, 
                            "dur": 478, 
                            "type": "note", 
                            "channel": 7
                        }
                    ]
                ], 
                [
                    408476, 
                    [
                        {
                            "pitch": 38, 
                            "t0": 408476, 
                            "v": 108, 
                            "dur": 544, 
                            "type": "note", 
                            "channel": 7
                        }
                    ]
                ], 
                [
                    409546, 
                    [
                        {
                            "pitch": 40, 
                            "t0": 409546, 
                            "v": 92, 
                            "dur": 400, 
                            "type": "note", 
                            "channel": 7
                        }
                    ]
                ], 
                [
                    410046, 
                    [
                        {
                            "pitch": 45, 
                            "t0": 410046, 
                            "v": 116, 
                            "dur": 488, 
                            "type": "note", 
                            "channel": 7
                        }
                    ]
                ], 
                [
                    410538, 
                    [
                        {
                            "pitch": 40, 
                            "t0": 410538, 
                            "v": 100, 
                            "dur": 482, 
                            "type": "note", 
                            "channel": 7
                        }
                    ]
                ], 
                [
                    411512, 
                    [
                        {
                            "pitch": 40, 
                            "t0": 411512, 
                            "v": 88, 
                            "dur": 404, 
                            "type": "note", 
                            "channel": 7
                        }
                    ]
                ], 
                [
                    412000, 
                    [
                        {
                            "pitch": 43, 
                            "t0": 412000, 
                            "v": 108, 
                            "dur": 466, 
                            "type": "note", 
                            "channel": 7
                        }
                    ]
                ], 
                [
                    412462, 
                    [
                        {
                            "pitch": 38, 
                            "t0": 412462, 
                            "v": 108, 
                            "dur": 484, 
                            "type": "note", 
                            "channel": 7
                        }
                    ]
                ], 
                [
                    413512, 
                    [
                        {
                            "pitch": 40, 
                            "t0": 413512, 
                            "v": 104, 
                            "dur": 400, 
                            "type": "note", 
                            "channel": 7
                        }
                    ]
                ], 
                [
                    414012, 
                    [
                        {
                            "pitch": 45, 
                            "t0": 414012, 
                            "v": 116, 
                            "dur": 508, 
                            "type": "note", 
                            "channel": 7
                        }
                    ]
                ], 
                [
                    414538, 
                    [
                        {
                            "pitch": 40, 
                            "t0": 414538, 
                            "v": 100, 
                            "dur": 420, 
                            "type": "note", 
                            "channel": 7
                        }
                    ]
                ], 
                [
                    415504, 
                    [
                        {
                            "pitch": 40, 
                            "t0": 415504, 
                            "v": 100, 
                            "dur": 342, 
                            "type": "note", 
                            "channel": 7
                        }
                    ]
                ], 
                [
                    415996, 
                    [
                        {
                            "pitch": 43, 
                            "t0": 415996, 
                            "v": 112, 
                            "dur": 470, 
                            "type": "note", 
                            "channel": 7
                        }
                    ]
                ], 
                [
                    416454, 
                    [
                        {
                            "pitch": 38, 
                            "t0": 416454, 
                            "v": 108, 
                            "dur": 576, 
                            "type": "note", 
                            "channel": 7
                        }
                    ]
                ], 
                [
                    417458, 
                    [
                        {
                            "pitch": 40, 
                            "t0": 417458, 
                            "v": 104, 
                            "dur": 430, 
                            "type": "note", 
                            "channel": 7
                        }
                    ]
                ], 
                [
                    417988, 
                    [
                        {
                            "pitch": 45, 
                            "t0": 417988, 
                            "v": 112, 
                            "dur": 482, 
                            "type": "note", 
                            "channel": 7
                        }
                    ]
                ], 
                [
                    418450, 
                    [
                        {
                            "pitch": 40, 
                            "t0": 418450, 
                            "v": 96, 
                            "dur": 530, 
                            "type": "note", 
                            "channel": 7
                        }
                    ]
                ], 
                [
                    419450, 
                    [
                        {
                            "pitch": 40, 
                            "t0": 419450, 
                            "v": 96, 
                            "dur": 350, 
                            "type": "note", 
                            "channel": 7
                        }
                    ]
                ], 
                [
                    419930, 
                    [
                        {
                            "pitch": 43, 
                            "t0": 419930, 
                            "v": 108, 
                            "dur": 470, 
                            "type": "note", 
                            "channel": 7
                        }
                    ]
                ], 
                [
                    420462, 
                    [
                        {
                            "pitch": 38, 
                            "t0": 420462, 
                            "v": 104, 
                            "dur": 534, 
                            "type": "note", 
                            "channel": 7
                        }
                    ]
                ], 
                [
                    421630, 
                    [
                        {
                            "pitch": 40, 
                            "t0": 421630, 
                            "v": 100, 
                            "dur": 454, 
                            "type": "note", 
                            "channel": 7
                        }
                    ]
                ], 
                [
                    422080, 
                    [
                        {
                            "pitch": 45, 
                            "t0": 422080, 
                            "v": 108, 
                            "dur": 570, 
                            "type": "note", 
                            "channel": 7
                        }
                    ]
                ], 
                [
                    422600, 
                    [
                        {
                            "pitch": 40, 
                            "t0": 422600, 
                            "v": 108, 
                            "dur": 512, 
                            "type": "note", 
                            "channel": 7
                        }
                    ]
                ], 
                [
                    423562, 
                    [
                        {
                            "pitch": 40, 
                            "t0": 423562, 
                            "v": 92, 
                            "dur": 438, 
                            "type": "note", 
                            "channel": 7
                        }
                    ]
                ], 
                [
                    424088, 
                    [
                        {
                            "pitch": 43, 
                            "t0": 424088, 
                            "v": 108, 
                            "dur": 504, 
                            "type": "note", 
                            "channel": 7
                        }
                    ]
                ], 
                [
                    424558, 
                    [
                        {
                            "pitch": 38, 
                            "t0": 424558, 
                            "v": 104, 
                            "dur": 472, 
                            "type": "note", 
                            "channel": 7
                        }
                    ]
                ], 
                [
                    425566, 
                    [
                        {
                            "pitch": 40, 
                            "t0": 425566, 
                            "v": 100, 
                            "dur": 438, 
                            "type": "note", 
                            "channel": 7
                        }
                    ]
                ], 
                [
                    426080, 
                    [
                        {
                            "pitch": 45, 
                            "t0": 426080, 
                            "v": 112, 
                            "dur": 474, 
                            "type": "note", 
                            "channel": 7
                        }
                    ]
                ], 
                [
                    426520, 
                    [
                        {
                            "pitch": 40, 
                            "t0": 426520, 
                            "v": 92, 
                            "dur": 576, 
                            "type": "note", 
                            "channel": 7
                        }
                    ]
                ], 
                [
                    427508, 
                    [
                        {
                            "pitch": 40, 
                            "t0": 427508, 
                            "v": 92, 
                            "dur": 376, 
                            "type": "note", 
                            "channel": 7
                        }
                    ]
                ], 
                [
                    427988, 
                    [
                        {
                            "pitch": 43, 
                            "t0": 427988, 
                            "v": 112, 
                            "dur": 496, 
                            "type": "note", 
                            "channel": 7
                        }
                    ]
                ], 
                [
                    428534, 
                    [
                        {
                            "pitch": 38, 
                            "t0": 428534, 
                            "v": 76, 
                            "dur": 342, 
                            "type": "note", 
                            "channel": 7
                        }
                    ]
                ], 
                [
                    428542, 
                    [
                        {
                            "pitch": 36, 
                            "t0": 428542, 
                            "v": 104, 
                            "dur": 328, 
                            "type": "note", 
                            "channel": 7
                        }
                    ]
                ], 
                [
                    429546, 
                    [
                        {
                            "pitch": 40, 
                            "t0": 429546, 
                            "v": 92, 
                            "dur": 442, 
                            "type": "note", 
                            "channel": 7
                        }
                    ]
                ], 
                [
                    429992, 
                    [
                        {
                            "pitch": 45, 
                            "t0": 429992, 
                            "v": 104, 
                            "dur": 528, 
                            "type": "note", 
                            "channel": 7
                        }
                    ]
                ], 
                [
                    430484, 
                    [
                        {
                            "pitch": 40, 
                            "t0": 430484, 
                            "v": 88, 
                            "dur": 528, 
                            "type": "note", 
                            "channel": 7
                        }
                    ]
                ], 
                [
                    431466, 
                    [
                        {
                            "pitch": 40, 
                            "t0": 431466, 
                            "v": 80, 
                            "dur": 410, 
                            "type": "note", 
                            "channel": 7
                        }
                    ]
                ], 
                [
                    431934, 
                    [
                        {
                            "pitch": 43, 
                            "t0": 431934, 
                            "v": 72, 
                            "dur": 466, 
                            "type": "note", 
                            "channel": 7
                        }
                    ]
                ], 
                [
                    432484, 
                    [
                        {
                            "pitch": 38, 
                            "t0": 432484, 
                            "v": 108, 
                            "dur": 420, 
                            "type": "note", 
                            "channel": 7
                        }
                    ]
                ], 
                [
                    433570, 
                    [
                        {
                            "pitch": 40, 
                            "t0": 433570, 
                            "v": 96, 
                            "dur": 384, 
                            "type": "note", 
                            "channel": 7
                        }
                    ]
                ], 
                [
                    434058, 
                    [
                        {
                            "pitch": 45, 
                            "t0": 434058, 
                            "v": 104, 
                            "dur": 504, 
                            "type": "note", 
                            "channel": 7
                        }
                    ]
                ], 
                [
                    434546, 
                    [
                        {
                            "pitch": 40, 
                            "t0": 434546, 
                            "v": 104, 
                            "dur": 558, 
                            "type": "note", 
                            "channel": 7
                        }
                    ]
                ], 
                [
                    435534, 
                    [
                        {
                            "pitch": 40, 
                            "t0": 435534, 
                            "v": 96, 
                            "dur": 382, 
                            "type": "note", 
                            "channel": 7
                        }
                    ]
                ], 
                [
                    436026, 
                    [
                        {
                            "pitch": 43, 
                            "t0": 436026, 
                            "v": 100, 
                            "dur": 628, 
                            "type": "note", 
                            "channel": 7
                        }
                    ]
                ], 
                [
                    436542, 
                    [
                        {
                            "pitch": 38, 
                            "t0": 436542, 
                            "v": 100, 
                            "dur": 520, 
                            "type": "note", 
                            "channel": 7
                        }
                    ]
                ], 
                [
                    437596, 
                    [
                        {
                            "pitch": 40, 
                            "t0": 437596, 
                            "v": 96, 
                            "dur": 424, 
                            "type": "note", 
                            "channel": 7
                        }
                    ]
                ], 
                [
                    438050, 
                    [
                        {
                            "pitch": 45, 
                            "t0": 438050, 
                            "v": 104, 
                            "dur": 470, 
                            "type": "note", 
                            "channel": 7
                        }
                    ]
                ], 
                [
                    438508, 
                    [
                        {
                            "pitch": 40, 
                            "t0": 438508, 
                            "v": 96, 
                            "dur": 538, 
                            "type": "note", 
                            "channel": 7
                        }
                    ]
                ], 
                [
                    439534, 
                    [
                        {
                            "pitch": 40, 
                            "t0": 439534, 
                            "v": 88, 
                            "dur": 474, 
                            "type": "note", 
                            "channel": 7
                        }
                    ]
                ], 
                [
                    440012, 
                    [
                        {
                            "pitch": 43, 
                            "t0": 440012, 
                            "v": 108, 
                            "dur": 554, 
                            "type": "note", 
                            "channel": 7
                        }
                    ]
                ], 
                [
                    440550, 
                    [
                        {
                            "pitch": 38, 
                            "t0": 440550, 
                            "v": 104, 
                            "dur": 592, 
                            "type": "note", 
                            "channel": 7
                        }
                    ]
                ], 
                [
                    441592, 
                    [
                        {
                            "pitch": 40, 
                            "t0": 441592, 
                            "v": 92, 
                            "dur": 458, 
                            "type": "note", 
                            "channel": 7
                        }
                    ]
                ], 
                [
                    442084, 
                    [
                        {
                            "pitch": 45, 
                            "t0": 442084, 
                            "v": 108, 
                            "dur": 516, 
                            "type": "note", 
                            "channel": 7
                        }
                    ]
                ], 
                [
                    442538, 
                    [
                        {
                            "pitch": 40, 
                            "t0": 442538, 
                            "v": 92, 
                            "dur": 616, 
                            "type": "note", 
                            "channel": 7
                        }
                    ]
                ], 
                [
                    443562, 
                    [
                        {
                            "pitch": 40, 
                            "t0": 443562, 
                            "v": 84, 
                            "dur": 414, 
                            "type": "note", 
                            "channel": 7
                        }
                    ]
                ], 
                [
                    444012, 
                    [
                        {
                            "pitch": 43, 
                            "t0": 444012, 
                            "v": 92, 
                            "dur": 464, 
                            "type": "note", 
                            "channel": 7
                        }
                    ]
                ], 
                [
                    444504, 
                    [
                        {
                            "pitch": 38, 
                            "t0": 444504, 
                            "v": 112, 
                            "dur": 530, 
                            "type": "note", 
                            "channel": 7
                        }
                    ]
                ], 
                [
                    445626, 
                    [
                        {
                            "pitch": 40, 
                            "t0": 445626, 
                            "v": 96, 
                            "dur": 436, 
                            "type": "note", 
                            "channel": 7
                        }
                    ]
                ], 
                [
                    446076, 
                    [
                        {
                            "pitch": 45, 
                            "t0": 446076, 
                            "v": 108, 
                            "dur": 540, 
                            "type": "note", 
                            "channel": 7
                        }
                    ]
                ], 
                [
                    446562, 
                    [
                        {
                            "pitch": 40, 
                            "t0": 446562, 
                            "v": 104, 
                            "dur": 584, 
                            "type": "note", 
                            "channel": 7
                        }
                    ]
                ], 
                [
                    447526, 
                    [
                        {
                            "pitch": 40, 
                            "t0": 447526, 
                            "v": 96, 
                            "dur": 470, 
                            "type": "note", 
                            "channel": 7
                        }
                    ]
                ], 
                [
                    447988, 
                    [
                        {
                            "pitch": 43, 
                            "t0": 447988, 
                            "v": 96, 
                            "dur": 496, 
                            "type": "note", 
                            "channel": 7
                        }
                    ]
                ], 
                [
                    448512, 
                    [
                        {
                            "pitch": 38, 
                            "t0": 448512, 
                            "v": 112, 
                            "dur": 488, 
                            "type": "note", 
                            "channel": 7
                        }
                    ]
                ], 
                [
                    449580, 
                    [
                        {
                            "pitch": 40, 
                            "t0": 449580, 
                            "v": 84, 
                            "dur": 446, 
                            "type": "note", 
                            "channel": 7
                        }
                    ]
                ], 
                [
                    450058, 
                    [
                        {
                            "pitch": 45, 
                            "t0": 450058, 
                            "v": 100, 
                            "dur": 496, 
                            "type": "note", 
                            "channel": 7
                        }
                    ]
                ], 
                [
                    450520, 
                    [
                        {
                            "pitch": 40, 
                            "t0": 450520, 
                            "v": 96, 
                            "dur": 530, 
                            "type": "note", 
                            "channel": 7
                        }
                    ]
                ], 
                [
                    451480, 
                    [
                        {
                            "pitch": 40, 
                            "t0": 451480, 
                            "v": 80, 
                            "dur": 454, 
                            "type": "note", 
                            "channel": 7
                        }
                    ]
                ], 
                [
                    451976, 
                    [
                        {
                            "pitch": 43, 
                            "t0": 451976, 
                            "v": 100, 
                            "dur": 532, 
                            "type": "note", 
                            "channel": 7
                        }
                    ]
                ], 
                [
                    452484, 
                    [
                        {
                            "pitch": 38, 
                            "t0": 452484, 
                            "v": 104, 
                            "dur": 546, 
                            "type": "note", 
                            "channel": 7
                        }
                    ]
                ], 
                [
                    453570, 
                    [
                        {
                            "pitch": 40, 
                            "t0": 453570, 
                            "v": 84, 
                            "dur": 530, 
                            "type": "note", 
                            "channel": 7
                        }
                    ]
                ], 
                [
                    454066, 
                    [
                        {
                            "pitch": 45, 
                            "t0": 454066, 
                            "v": 96, 
                            "dur": 592, 
                            "type": "note", 
                            "channel": 7
                        }
                    ]
                ], 
                [
                    454592, 
                    [
                        {
                            "pitch": 40, 
                            "t0": 454592, 
                            "v": 100, 
                            "dur": 600, 
                            "type": "note", 
                            "channel": 7
                        }
                    ]
                ], 
                [
                    455570, 
                    [
                        {
                            "pitch": 40, 
                            "t0": 455570, 
                            "v": 84, 
                            "dur": 430, 
                            "type": "note", 
                            "channel": 7
                        }
                    ]
                ], 
                [
                    456008, 
                    [
                        {
                            "pitch": 43, 
                            "t0": 456008, 
                            "v": 100, 
                            "dur": 654, 
                            "type": "note", 
                            "channel": 7
                        }
                    ]
                ], 
                [
                    456554, 
                    [
                        {
                            "pitch": 38, 
                            "t0": 456554, 
                            "v": 112, 
                            "dur": 600, 
                            "type": "note", 
                            "channel": 7
                        }
                    ]
                ], 
                [
                    457704, 
                    [
                        {
                            "pitch": 40, 
                            "t0": 457704, 
                            "v": 96, 
                            "dur": 438, 
                            "type": "note", 
                            "channel": 7
                        }
                    ]
                ], 
                [
                    458170, 
                    [
                        {
                            "pitch": 45, 
                            "t0": 458170, 
                            "v": 100, 
                            "dur": 484, 
                            "type": "note", 
                            "channel": 7
                        }
                    ]
                ], 
                [
                    458630, 
                    [
                        {
                            "pitch": 40, 
                            "t0": 458630, 
                            "v": 92, 
                            "dur": 646, 
                            "type": "note", 
                            "channel": 7
                        }
                    ]
                ], 
                [
                    459580, 
                    [
                        {
                            "pitch": 40, 
                            "t0": 459580, 
                            "v": 100, 
                            "dur": 482, 
                            "type": "note", 
                            "channel": 7
                        }
                    ]
                ], 
                [
                    460088, 
                    [
                        {
                            "pitch": 43, 
                            "t0": 460088, 
                            "v": 96, 
                            "dur": 470, 
                            "type": "note", 
                            "channel": 7
                        }
                    ]
                ], 
                [
                    460566, 
                    [
                        {
                            "pitch": 38, 
                            "t0": 460566, 
                            "v": 104, 
                            "dur": 522, 
                            "type": "note", 
                            "channel": 7
                        }
                    ]
                ], 
                [
                    461608, 
                    [
                        {
                            "pitch": 40, 
                            "t0": 461608, 
                            "v": 84, 
                            "dur": 450, 
                            "type": "note", 
                            "channel": 7
                        }
                    ]
                ], 
                [
                    462080, 
                    [
                        {
                            "pitch": 45, 
                            "t0": 462080, 
                            "v": 96, 
                            "dur": 536, 
                            "type": "note", 
                            "channel": 7
                        }
                    ]
                ], 
                [
                    462542, 
                    [
                        {
                            "pitch": 40, 
                            "t0": 462542, 
                            "v": 96, 
                            "dur": 638, 
                            "type": "note", 
                            "channel": 7
                        }
                    ]
                ], 
                [
                    463500, 
                    [
                        {
                            "pitch": 40, 
                            "t0": 463500, 
                            "v": 84, 
                            "dur": 392, 
                            "type": "note", 
                            "channel": 7
                        }
                    ]
                ], 
                [
                    464008, 
                    [
                        {
                            "pitch": 43, 
                            "t0": 464008, 
                            "v": 88, 
                            "dur": 472, 
                            "type": "note", 
                            "channel": 7
                        }
                    ]
                ], 
                [
                    464504, 
                    [
                        {
                            "pitch": 38, 
                            "t0": 464504, 
                            "v": 88, 
                            "dur": 458, 
                            "type": "note", 
                            "channel": 7
                        }
                    ]
                ], 
                [
                    465630, 
                    [
                        {
                            "pitch": 40, 
                            "t0": 465630, 
                            "v": 76, 
                            "dur": 450, 
                            "type": "note", 
                            "channel": 7
                        }
                    ]
                ], 
                [
                    466100, 
                    [
                        {
                            "pitch": 45, 
                            "t0": 466100, 
                            "v": 104, 
                            "dur": 542, 
                            "type": "note", 
                            "channel": 7
                        }
                    ]
                ], 
                [
                    466580, 
                    [
                        {
                            "pitch": 40, 
                            "t0": 466580, 
                            "v": 92, 
                            "dur": 512, 
                            "type": "note", 
                            "channel": 7
                        }
                    ]
                ], 
                [
                    467508, 
                    [
                        {
                            "pitch": 40, 
                            "t0": 467508, 
                            "v": 88, 
                            "dur": 438, 
                            "type": "note", 
                            "channel": 7
                        }
                    ]
                ], 
                [
                    468034, 
                    [
                        {
                            "pitch": 43, 
                            "t0": 468034, 
                            "v": 96, 
                            "dur": 458, 
                            "type": "note", 
                            "channel": 7
                        }
                    ]
                ], 
                [
                    468516, 
                    [
                        {
                            "pitch": 40, 
                            "t0": 468516, 
                            "v": 84, 
                            "dur": 322, 
                            "type": "note", 
                            "channel": 7
                        }
                    ]
                ], 
                [
                    468550, 
                    [
                        {
                            "pitch": 38, 
                            "t0": 468550, 
                            "v": 80, 
                            "dur": 208, 
                            "type": "note", 
                            "channel": 7
                        }
                    ]
                ], 
                [
                    469600, 
                    [
                        {
                            "pitch": 40, 
                            "t0": 469600, 
                            "v": 76, 
                            "dur": 434, 
                            "type": "note", 
                            "channel": 7
                        }
                    ]
                ], 
                [
                    470066, 
                    [
                        {
                            "pitch": 45, 
                            "t0": 470066, 
                            "v": 96, 
                            "dur": 534, 
                            "type": "note", 
                            "channel": 7
                        }
                    ]
                ], 
                [
                    470546, 
                    [
                        {
                            "pitch": 40, 
                            "t0": 470546, 
                            "v": 88, 
                            "dur": 480, 
                            "type": "note", 
                            "channel": 7
                        }
                    ]
                ], 
                [
                    471476, 
                    [
                        {
                            "pitch": 40, 
                            "t0": 471476, 
                            "v": 84, 
                            "dur": 394, 
                            "type": "note", 
                            "channel": 7
                        }
                    ]
                ], 
                [
                    471950, 
                    [
                        {
                            "pitch": 43, 
                            "t0": 471950, 
                            "v": 96, 
                            "dur": 508, 
                            "type": "note", 
                            "channel": 7
                        }
                    ]
                ], 
                [
                    472484, 
                    [
                        {
                            "pitch": 38, 
                            "t0": 472484, 
                            "v": 108, 
                            "dur": 458, 
                            "type": "note", 
                            "channel": 7
                        }
                    ]
                ], 
                [
                    473566, 
                    [
                        {
                            "pitch": 40, 
                            "t0": 473566, 
                            "v": 84, 
                            "dur": 338, 
                            "type": "note", 
                            "channel": 7
                        }
                    ]
                ], 
                [
                    474016, 
                    [
                        {
                            "pitch": 45, 
                            "t0": 474016, 
                            "v": 56, 
                            "dur": 522, 
                            "type": "note", 
                            "channel": 7
                        }
                    ]
                ], 
                [
                    474554, 
                    [
                        {
                            "pitch": 40, 
                            "t0": 474554, 
                            "v": 100, 
                            "dur": 566, 
                            "type": "note", 
                            "channel": 7
                        }
                    ]
                ], 
                [
                    475520, 
                    [
                        {
                            "pitch": 40, 
                            "t0": 475520, 
                            "v": 84, 
                            "dur": 446, 
                            "type": "note", 
                            "channel": 7
                        }
                    ]
                ], 
                [
                    476000, 
                    [
                        {
                            "pitch": 43, 
                            "t0": 476000, 
                            "v": 100, 
                            "dur": 496, 
                            "type": "note", 
                            "channel": 7
                        }
                    ]
                ], 
                [
                    476492, 
                    [
                        {
                            "pitch": 40, 
                            "t0": 476492, 
                            "v": 40, 
                            "dur": 216, 
                            "type": "note", 
                            "channel": 7
                        }, 
                        {
                            "pitch": 38, 
                            "t0": 476492, 
                            "v": 60, 
                            "dur": 220, 
                            "type": "note", 
                            "channel": 7
                        }
                    ]
                ], 
                [
                    477416, 
                    [
                        {
                            "pitch": 40, 
                            "t0": 477416, 
                            "v": 64, 
                            "dur": 534, 
                            "type": "note", 
                            "channel": 7
                        }
                    ]
                ], 
                [
                    478100, 
                    [
                        {
                            "pitch": 45, 
                            "t0": 478100, 
                            "v": 76, 
                            "dur": 438, 
                            "type": "note", 
                            "channel": 7
                        }
                    ]
                ], 
                [
                    478516, 
                    [
                        {
                            "pitch": 40, 
                            "t0": 478516, 
                            "v": 88, 
                            "dur": 568, 
                            "type": "note", 
                            "channel": 7
                        }
                    ]
                ], 
                [
                    479446, 
                    [
                        {
                            "pitch": 40, 
                            "t0": 479446, 
                            "v": 76, 
                            "dur": 442, 
                            "type": "note", 
                            "channel": 7
                        }
                    ]
                ], 
                [
                    479950, 
                    [
                        {
                            "pitch": 43, 
                            "t0": 479950, 
                            "v": 104, 
                            "dur": 454, 
                            "type": "note", 
                            "channel": 7
                        }
                    ]
                ], 
                [
                    480408, 
                    [
                        {
                            "pitch": 38, 
                            "t0": 480408, 
                            "v": 96, 
                            "dur": 550, 
                            "type": "note", 
                            "channel": 7
                        }
                    ]
                ], 
                [
                    480416, 
                    [
                        {
                            "pitch": 36, 
                            "t0": 480416, 
                            "v": 96, 
                            "dur": 72, 
                            "type": "note", 
                            "channel": 7
                        }
                    ]
                ], 
                [
                    481512, 
                    [
                        {
                            "pitch": 40, 
                            "t0": 481512, 
                            "v": 96, 
                            "dur": 408, 
                            "type": "note", 
                            "channel": 7
                        }
                    ]
                ], 
                [
                    481996, 
                    [
                        {
                            "pitch": 45, 
                            "t0": 481996, 
                            "v": 100, 
                            "dur": 542, 
                            "type": "note", 
                            "channel": 7
                        }
                    ]
                ], 
                [
                    482508, 
                    [
                        {
                            "pitch": 40, 
                            "t0": 482508, 
                            "v": 92, 
                            "dur": 538, 
                            "type": "note", 
                            "channel": 7
                        }
                    ]
                ], 
                [
                    483450, 
                    [
                        {
                            "pitch": 40, 
                            "t0": 483450, 
                            "v": 96, 
                            "dur": 430, 
                            "type": "note", 
                            "channel": 7
                        }
                    ]
                ], 
                [
                    483954, 
                    [
                        {
                            "pitch": 43, 
                            "t0": 483954, 
                            "v": 112, 
                            "dur": 476, 
                            "type": "note", 
                            "channel": 7
                        }
                    ]
                ], 
                [
                    484430, 
                    [
                        {
                            "pitch": 38, 
                            "t0": 484430, 
                            "v": 112, 
                            "dur": 524, 
                            "type": "note", 
                            "channel": 7
                        }
                    ]
                ], 
                [
                    485588, 
                    [
                        {
                            "pitch": 40, 
                            "t0": 485588, 
                            "v": 96, 
                            "dur": 492, 
                            "type": "note", 
                            "channel": 7
                        }
                    ]
                ], 
                [
                    486088, 
                    [
                        {
                            "pitch": 45, 
                            "t0": 486088, 
                            "v": 68, 
                            "dur": 538, 
                            "type": "note", 
                            "channel": 7
                        }
                    ]
                ], 
                [
                    486100, 
                    [
                        {
                            "pitch": 47, 
                            "t0": 486100, 
                            "v": 80, 
                            "dur": 84, 
                            "type": "note", 
                            "channel": 7
                        }
                    ]
                ], 
                [
                    486554, 
                    [
                        {
                            "pitch": 40, 
                            "t0": 486554, 
                            "v": 100, 
                            "dur": 476, 
                            "type": "note", 
                            "channel": 7
                        }
                    ]
                ], 
                [
                    487480, 
                    [
                        {
                            "pitch": 40, 
                            "t0": 487480, 
                            "v": 92, 
                            "dur": 408, 
                            "type": "note", 
                            "channel": 7
                        }
                    ]
                ], 
                [
                    487954, 
                    [
                        {
                            "pitch": 43, 
                            "t0": 487954, 
                            "v": 108, 
                            "dur": 496, 
                            "type": "note", 
                            "channel": 7
                        }
                    ]
                ], 
                [
                    488454, 
                    [
                        {
                            "pitch": 38, 
                            "t0": 488454, 
                            "v": 108, 
                            "dur": 450, 
                            "type": "note", 
                            "channel": 7
                        }
                    ]
                ], 
                [
                    489526, 
                    [
                        {
                            "pitch": 40, 
                            "t0": 489526, 
                            "v": 84, 
                            "dur": 432, 
                            "type": "note", 
                            "channel": 7
                        }
                    ]
                ], 
                [
                    490012, 
                    [
                        {
                            "pitch": 45, 
                            "t0": 490012, 
                            "v": 100, 
                            "dur": 572, 
                            "type": "note", 
                            "channel": 7
                        }
                    ]
                ], 
                [
                    490516, 
                    [
                        {
                            "pitch": 40, 
                            "t0": 490516, 
                            "v": 96, 
                            "dur": 504, 
                            "type": "note", 
                            "channel": 7
                        }
                    ]
                ], 
                [
                    491488, 
                    [
                        {
                            "pitch": 40, 
                            "t0": 491488, 
                            "v": 92, 
                            "dur": 458, 
                            "type": "note", 
                            "channel": 7
                        }
                    ]
                ], 
                [
                    492016, 
                    [
                        {
                            "pitch": 43, 
                            "t0": 492016, 
                            "v": 104, 
                            "dur": 576, 
                            "type": "note", 
                            "channel": 7
                        }
                    ]
                ], 
                [
                    492504, 
                    [
                        {
                            "pitch": 38, 
                            "t0": 492504, 
                            "v": 112, 
                            "dur": 534, 
                            "type": "note", 
                            "channel": 7
                        }
                    ]
                ], 
                [
                    493526, 
                    [
                        {
                            "pitch": 40, 
                            "t0": 493526, 
                            "v": 100, 
                            "dur": 444, 
                            "type": "note", 
                            "channel": 7
                        }
                    ]
                ], 
                [
                    494038, 
                    [
                        {
                            "pitch": 45, 
                            "t0": 494038, 
                            "v": 104, 
                            "dur": 566, 
                            "type": "note", 
                            "channel": 7
                        }
                    ]
                ], 
                [
                    494550, 
                    [
                        {
                            "pitch": 40, 
                            "t0": 494550, 
                            "v": 96, 
                            "dur": 538, 
                            "type": "note", 
                            "channel": 7
                        }
                    ]
                ], 
                [
                    495496, 
                    [
                        {
                            "pitch": 40, 
                            "t0": 495496, 
                            "v": 96, 
                            "dur": 408, 
                            "type": "note", 
                            "channel": 7
                        }
                    ]
                ], 
                [
                    496042, 
                    [
                        {
                            "pitch": 43, 
                            "t0": 496042, 
                            "v": 104, 
                            "dur": 496, 
                            "type": "note", 
                            "channel": 7
                        }
                    ]
                ], 
                [
                    496550, 
                    [
                        {
                            "pitch": 38, 
                            "t0": 496550, 
                            "v": 104, 
                            "dur": 492, 
                            "type": "note", 
                            "channel": 7
                        }
                    ]
                ], 
                [
                    497562, 
                    [
                        {
                            "pitch": 40, 
                            "t0": 497562, 
                            "v": 92, 
                            "dur": 414, 
                            "type": "note", 
                            "channel": 7
                        }
                    ]
                ], 
                [
                    498058, 
                    [
                        {
                            "pitch": 45, 
                            "t0": 498058, 
                            "v": 100, 
                            "dur": 554, 
                            "type": "note", 
                            "channel": 7
                        }
                    ]
                ], 
                [
                    498584, 
                    [
                        {
                            "pitch": 40, 
                            "t0": 498584, 
                            "v": 100, 
                            "dur": 492, 
                            "type": "note", 
                            "channel": 7
                        }
                    ]
                ], 
                [
                    499542, 
                    [
                        {
                            "pitch": 40, 
                            "t0": 499542, 
                            "v": 88, 
                            "dur": 408, 
                            "type": "note", 
                            "channel": 7
                        }
                    ]
                ], 
                [
                    500020, 
                    [
                        {
                            "pitch": 43, 
                            "t0": 500020, 
                            "v": 108, 
                            "dur": 456, 
                            "type": "note", 
                            "channel": 7
                        }
                    ]
                ], 
                [
                    500542, 
                    [
                        {
                            "pitch": 40, 
                            "t0": 500542, 
                            "v": 32, 
                            "dur": 138, 
                            "type": "note", 
                            "channel": 7
                        }
                    ]
                ], 
                [
                    500550, 
                    [
                        {
                            "pitch": 38, 
                            "t0": 500550, 
                            "v": 45, 
                            "dur": 154, 
                            "type": "note", 
                            "channel": 7
                        }
                    ]
                ], 
                [
                    500596, 
                    [
                        {
                            "pitch": 43, 
                            "t0": 500596, 
                            "v": 36, 
                            "dur": 224, 
                            "type": "note", 
                            "channel": 7
                        }
                    ]
                ], 
                [
                    501576, 
                    [
                        {
                            "pitch": 40, 
                            "t0": 501576, 
                            "v": 88, 
                            "dur": 416, 
                            "type": "note", 
                            "channel": 7
                        }
                    ]
                ], 
                [
                    501996, 
                    [
                        {
                            "pitch": 45, 
                            "t0": 501996, 
                            "v": 92, 
                            "dur": 596, 
                            "type": "note", 
                            "channel": 7
                        }
                    ]
                ], 
                [
                    502580, 
                    [
                        {
                            "pitch": 40, 
                            "t0": 502580, 
                            "v": 92, 
                            "dur": 358, 
                            "type": "note", 
                            "channel": 7
                        }
                    ]
                ], 
                [
                    502596, 
                    [
                        {
                            "pitch": 41, 
                            "t0": 502596, 
                            "v": 92, 
                            "dur": 300, 
                            "type": "note", 
                            "channel": 7
                        }
                    ]
                ], 
                [
                    503534, 
                    [
                        {
                            "pitch": 40, 
                            "t0": 503534, 
                            "v": 92, 
                            "dur": 366, 
                            "type": "note", 
                            "channel": 7
                        }
                    ]
                ], 
                [
                    503996, 
                    [
                        {
                            "pitch": 43, 
                            "t0": 503996, 
                            "v": 92, 
                            "dur": 484, 
                            "type": "note", 
                            "channel": 7
                        }
                    ]
                ], 
                [
                    504520, 
                    [
                        {
                            "pitch": 38, 
                            "t0": 504520, 
                            "v": 108, 
                            "dur": 400, 
                            "type": "note", 
                            "channel": 7
                        }
                    ]
                ], 
                [
                    505604, 
                    [
                        {
                            "pitch": 40, 
                            "t0": 505604, 
                            "v": 100, 
                            "dur": 434, 
                            "type": "note", 
                            "channel": 7
                        }
                    ]
                ], 
                [
                    506070, 
                    [
                        {
                            "pitch": 45, 
                            "t0": 506070, 
                            "v": 108, 
                            "dur": 506, 
                            "type": "note", 
                            "channel": 7
                        }
                    ]
                ], 
                [
                    506558, 
                    [
                        {
                            "pitch": 40, 
                            "t0": 506558, 
                            "v": 108, 
                            "dur": 488, 
                            "type": "note", 
                            "channel": 7
                        }
                    ]
                ], 
                [
                    507520, 
                    [
                        {
                            "pitch": 40, 
                            "t0": 507520, 
                            "v": 88, 
                            "dur": 418, 
                            "type": "note", 
                            "channel": 7
                        }
                    ]
                ], 
                [
                    508000, 
                    [
                        {
                            "pitch": 43, 
                            "t0": 508000, 
                            "v": 108, 
                            "dur": 500, 
                            "type": "note", 
                            "channel": 7
                        }
                    ]
                ], 
                [
                    508504, 
                    [
                        {
                            "pitch": 38, 
                            "t0": 508504, 
                            "v": 104, 
                            "dur": 496, 
                            "type": "note", 
                            "channel": 7
                        }
                    ]
                ], 
                [
                    509616, 
                    [
                        {
                            "pitch": 40, 
                            "t0": 509616, 
                            "v": 84, 
                            "dur": 434, 
                            "type": "note", 
                            "channel": 7
                        }
                    ]
                ], 
                [
                    510070, 
                    [
                        {
                            "pitch": 45, 
                            "t0": 510070, 
                            "v": 104, 
                            "dur": 568, 
                            "type": "note", 
                            "channel": 7
                        }
                    ]
                ], 
                [
                    510584, 
                    [
                        {
                            "pitch": 40, 
                            "t0": 510584, 
                            "v": 108, 
                            "dur": 532, 
                            "type": "note", 
                            "channel": 7
                        }
                    ]
                ], 
                [
                    511542, 
                    [
                        {
                            "pitch": 40, 
                            "t0": 511542, 
                            "v": 88, 
                            "dur": 392, 
                            "type": "note", 
                            "channel": 7
                        }
                    ]
                ], 
                [
                    512000, 
                    [
                        {
                            "pitch": 43, 
                            "t0": 512000, 
                            "v": 108, 
                            "dur": 576, 
                            "type": "note", 
                            "channel": 7
                        }
                    ]
                ], 
                [
                    512566, 
                    [
                        {
                            "pitch": 38, 
                            "t0": 512566, 
                            "v": 100, 
                            "dur": 292, 
                            "type": "note", 
                            "channel": 7
                        }
                    ]
                ], 
                [
                    512570, 
                    [
                        {
                            "pitch": 36, 
                            "t0": 512570, 
                            "v": 96, 
                            "dur": 260, 
                            "type": "note", 
                            "channel": 7
                        }
                    ]
                ], 
                [
                    513480, 
                    [
                        {
                            "pitch": 38, 
                            "t0": 513480, 
                            "v": 76, 
                            "dur": 112, 
                            "type": "note", 
                            "channel": 7
                        }, 
                        {
                            "pitch": 40, 
                            "t0": 513480, 
                            "v": 46, 
                            "dur": 508, 
                            "type": "note", 
                            "channel": 7
                        }
                    ]
                ], 
                [
                    513976, 
                    [
                        {
                            "pitch": 45, 
                            "t0": 513976, 
                            "v": 38, 
                            "dur": 532, 
                            "type": "note", 
                            "channel": 7
                        }
                    ]
                ], 
                [
                    514466, 
                    [
                        {
                            "pitch": 40, 
                            "t0": 514466, 
                            "v": 88, 
                            "dur": 630, 
                            "type": "note", 
                            "channel": 7
                        }
                    ]
                ], 
                [
                    515476, 
                    [
                        {
                            "pitch": 40, 
                            "t0": 515476, 
                            "v": 96, 
                            "dur": 432, 
                            "type": "note", 
                            "channel": 7
                        }
                    ]
                ], 
                [
                    515900, 
                    [
                        {
                            "pitch": 43, 
                            "t0": 515900, 
                            "v": 76, 
                            "dur": 534, 
                            "type": "note", 
                            "channel": 7
                        }
                    ]
                ], 
                [
                    516438, 
                    [
                        {
                            "pitch": 38, 
                            "t0": 516438, 
                            "v": 112, 
                            "dur": 424, 
                            "type": "note", 
                            "channel": 7
                        }
                    ]
                ], 
                [
                    517484, 
                    [
                        {
                            "pitch": 40, 
                            "t0": 517484, 
                            "v": 96, 
                            "dur": 420, 
                            "type": "note", 
                            "channel": 7
                        }
                    ]
                ], 
                [
                    517938, 
                    [
                        {
                            "pitch": 45, 
                            "t0": 517938, 
                            "v": 100, 
                            "dur": 508, 
                            "type": "note", 
                            "channel": 7
                        }
                    ]
                ], 
                [
                    518442, 
                    [
                        {
                            "pitch": 40, 
                            "t0": 518442, 
                            "v": 84, 
                            "dur": 496, 
                            "type": "note", 
                            "channel": 7
                        }
                    ]
                ], 
                [
                    519442, 
                    [
                        {
                            "pitch": 40, 
                            "t0": 519442, 
                            "v": 96, 
                            "dur": 408, 
                            "type": "note", 
                            "channel": 7
                        }
                    ]
                ], 
                [
                    519916, 
                    [
                        {
                            "pitch": 43, 
                            "t0": 519916, 
                            "v": 104, 
                            "dur": 542, 
                            "type": "note", 
                            "channel": 7
                        }
                    ]
                ], 
                [
                    520462, 
                    [
                        {
                            "pitch": 38, 
                            "t0": 520462, 
                            "v": 108, 
                            "dur": 472, 
                            "type": "note", 
                            "channel": 7
                        }
                    ]
                ], 
                [
                    521620, 
                    [
                        {
                            "pitch": 40, 
                            "t0": 521620, 
                            "v": 108, 
                            "dur": 434, 
                            "type": "note", 
                            "channel": 7
                        }
                    ]
                ], 
                [
                    522080, 
                    [
                        {
                            "pitch": 45, 
                            "t0": 522080, 
                            "v": 112, 
                            "dur": 458, 
                            "type": "note", 
                            "channel": 7
                        }
                    ]
                ], 
                [
                    522530, 
                    [
                        {
                            "pitch": 40, 
                            "t0": 522530, 
                            "v": 100, 
                            "dur": 496, 
                            "type": "note", 
                            "channel": 7
                        }
                    ]
                ], 
                [
                    523554, 
                    [
                        {
                            "pitch": 40, 
                            "t0": 523554, 
                            "v": 96, 
                            "dur": 392, 
                            "type": "note", 
                            "channel": 7
                        }
                    ]
                ], 
                [
                    524026, 
                    [
                        {
                            "pitch": 43, 
                            "t0": 524026, 
                            "v": 112, 
                            "dur": 470, 
                            "type": "note", 
                            "channel": 7
                        }
                    ]
                ], 
                [
                    524538, 
                    [
                        {
                            "pitch": 38, 
                            "t0": 524538, 
                            "v": 108, 
                            "dur": 524, 
                            "type": "note", 
                            "channel": 7
                        }
                    ]
                ], 
                [
                    525534, 
                    [
                        {
                            "pitch": 40, 
                            "t0": 525534, 
                            "v": 104, 
                            "dur": 404, 
                            "type": "note", 
                            "channel": 7
                        }
                    ]
                ], 
                [
                    526034, 
                    [
                        {
                            "pitch": 45, 
                            "t0": 526034, 
                            "v": 108, 
                            "dur": 466, 
                            "type": "note", 
                            "channel": 7
                        }
                    ]
                ], 
                [
                    526516, 
                    [
                        {
                            "pitch": 40, 
                            "t0": 526516, 
                            "v": 108, 
                            "dur": 484, 
                            "type": "note", 
                            "channel": 7
                        }
                    ]
                ], 
                [
                    527492, 
                    [
                        {
                            "pitch": 40, 
                            "t0": 527492, 
                            "v": 96, 
                            "dur": 354, 
                            "type": "note", 
                            "channel": 7
                        }
                    ]
                ], 
                [
                    527966, 
                    [
                        {
                            "pitch": 43, 
                            "t0": 527966, 
                            "v": 96, 
                            "dur": 510, 
                            "type": "note", 
                            "channel": 7
                        }
                    ]
                ], 
                [
                    528492, 
                    [
                        {
                            "pitch": 38, 
                            "t0": 528492, 
                            "v": 112, 
                            "dur": 546, 
                            "type": "note", 
                            "channel": 7
                        }
                    ]
                ], 
                [
                    529620, 
                    [
                        {
                            "pitch": 40, 
                            "t0": 529620, 
                            "v": 108, 
                            "dur": 406, 
                            "type": "note", 
                            "channel": 7
                        }
                    ]
                ], 
                [
                    530084, 
                    [
                        {
                            "pitch": 45, 
                            "t0": 530084, 
                            "v": 108, 
                            "dur": 500, 
                            "type": "note", 
                            "channel": 7
                        }
                    ]
                ], 
                [
                    530558, 
                    [
                        {
                            "pitch": 40, 
                            "t0": 530558, 
                            "v": 108, 
                            "dur": 526, 
                            "type": "note", 
                            "channel": 7
                        }
                    ]
                ], 
                [
                    531542, 
                    [
                        {
                            "pitch": 40, 
                            "t0": 531542, 
                            "v": 104, 
                            "dur": 408, 
                            "type": "note", 
                            "channel": 7
                        }
                    ]
                ], 
                [
                    532046, 
                    [
                        {
                            "pitch": 43, 
                            "t0": 532046, 
                            "v": 112, 
                            "dur": 446, 
                            "type": "note", 
                            "channel": 7
                        }
                    ]
                ], 
                [
                    532520, 
                    [
                        {
                            "pitch": 38, 
                            "t0": 532520, 
                            "v": 108, 
                            "dur": 472, 
                            "type": "note", 
                            "channel": 7
                        }
                    ]
                ], 
                [
                    533576, 
                    [
                        {
                            "pitch": 40, 
                            "t0": 533576, 
                            "v": 108, 
                            "dur": 386, 
                            "type": "note", 
                            "channel": 7
                        }
                    ]
                ], 
                [
                    534050, 
                    [
                        {
                            "pitch": 45, 
                            "t0": 534050, 
                            "v": 112, 
                            "dur": 466, 
                            "type": "note", 
                            "channel": 7
                        }
                    ]
                ], 
                [
                    534520, 
                    [
                        {
                            "pitch": 40, 
                            "t0": 534520, 
                            "v": 108, 
                            "dur": 346, 
                            "type": "note", 
                            "channel": 7
                        }
                    ]
                ], 
                [
                    535534, 
                    [
                        {
                            "pitch": 38, 
                            "t0": 535534, 
                            "v": 104, 
                            "dur": 286, 
                            "type": "note", 
                            "channel": 7
                        }
                    ]
                ], 
                [
                    535542, 
                    [
                        {
                            "pitch": 40, 
                            "t0": 535542, 
                            "v": 100, 
                            "dur": 270, 
                            "type": "note", 
                            "channel": 7
                        }
                    ]
                ], 
                [
                    536012, 
                    [
                        {
                            "pitch": 43, 
                            "t0": 536012, 
                            "v": 112, 
                            "dur": 454, 
                            "type": "note", 
                            "channel": 7
                        }
                    ]
                ], 
                [
                    536488, 
                    [
                        {
                            "pitch": 38, 
                            "t0": 536488, 
                            "v": 108, 
                            "dur": 462, 
                            "type": "note", 
                            "channel": 7
                        }
                    ]
                ], 
                [
                    537508, 
                    [
                        {
                            "pitch": 40, 
                            "t0": 537508, 
                            "v": 104, 
                            "dur": 376, 
                            "type": "note", 
                            "channel": 7
                        }
                    ]
                ], 
                [
                    538046, 
                    [
                        {
                            "pitch": 45, 
                            "t0": 538046, 
                            "v": 116, 
                            "dur": 438, 
                            "type": "note", 
                            "channel": 7
                        }
                    ]
                ], 
                [
                    538504, 
                    [
                        {
                            "pitch": 40, 
                            "t0": 538504, 
                            "v": 112, 
                            "dur": 526, 
                            "type": "note", 
                            "channel": 7
                        }
                    ]
                ], 
                [
                    539470, 
                    [
                        {
                            "pitch": 40, 
                            "t0": 539470, 
                            "v": 108, 
                            "dur": 330, 
                            "type": "note", 
                            "channel": 7
                        }
                    ]
                ], 
                [
                    539976, 
                    [
                        {
                            "pitch": 43, 
                            "t0": 539976, 
                            "v": 116, 
                            "dur": 454, 
                            "type": "note", 
                            "channel": 7
                        }
                    ]
                ], 
                [
                    540446, 
                    [
                        {
                            "pitch": 38, 
                            "t0": 540446, 
                            "v": 116, 
                            "dur": 530, 
                            "type": "note", 
                            "channel": 7
                        }
                    ]
                ], 
                [
                    541508, 
                    [
                        {
                            "pitch": 40, 
                            "t0": 541508, 
                            "v": 112, 
                            "dur": 338, 
                            "type": "note", 
                            "channel": 7
                        }
                    ]
                ], 
                [
                    542016, 
                    [
                        {
                            "pitch": 45, 
                            "t0": 542016, 
                            "v": 116, 
                            "dur": 446, 
                            "type": "note", 
                            "channel": 7
                        }
                    ]
                ], 
                [
                    542480, 
                    [
                        {
                            "pitch": 40, 
                            "t0": 542480, 
                            "v": 108, 
                            "dur": 470, 
                            "type": "note", 
                            "channel": 7
                        }
                    ]
                ], 
                [
                    543492, 
                    [
                        {
                            "pitch": 40, 
                            "t0": 543492, 
                            "v": 108, 
                            "dur": 292, 
                            "type": "note", 
                            "channel": 7
                        }
                    ]
                ], 
                [
                    544000, 
                    [
                        {
                            "pitch": 43, 
                            "t0": 544000, 
                            "v": 116, 
                            "dur": 484, 
                            "type": "note", 
                            "channel": 7
                        }
                    ]
                ], 
                [
                    544516, 
                    [
                        {
                            "pitch": 38, 
                            "t0": 544516, 
                            "v": 116, 
                            "dur": 522, 
                            "type": "note", 
                            "channel": 7
                        }
                    ]
                ], 
                [
                    545542, 
                    [
                        {
                            "pitch": 40, 
                            "t0": 545542, 
                            "v": 108, 
                            "dur": 378, 
                            "type": "note", 
                            "channel": 7
                        }
                    ]
                ], 
                [
                    546042, 
                    [
                        {
                            "pitch": 45, 
                            "t0": 546042, 
                            "v": 112, 
                            "dur": 454, 
                            "type": "note", 
                            "channel": 7
                        }
                    ]
                ], 
                [
                    546492, 
                    [
                        {
                            "pitch": 40, 
                            "t0": 546492, 
                            "v": 88, 
                            "dur": 488, 
                            "type": "note", 
                            "channel": 7
                        }
                    ]
                ], 
                [
                    547516, 
                    [
                        {
                            "pitch": 40, 
                            "t0": 547516, 
                            "v": 84, 
                            "dur": 330, 
                            "type": "note", 
                            "channel": 7
                        }
                    ]
                ], 
                [
                    547992, 
                    [
                        {
                            "pitch": 43, 
                            "t0": 547992, 
                            "v": 60, 
                            "dur": 424, 
                            "type": "note", 
                            "channel": 7
                        }
                    ]
                ], 
                [
                    548470, 
                    [
                        {
                            "pitch": 38, 
                            "t0": 548470, 
                            "v": 76, 
                            "dur": 510, 
                            "type": "note", 
                            "channel": 7
                        }
                    ]
                ], 
                [
                    549512, 
                    [
                        {
                            "pitch": 40, 
                            "t0": 549512, 
                            "v": 68, 
                            "dur": 384, 
                            "type": "note", 
                            "channel": 7
                        }
                    ]
                ], 
                [
                    549970, 
                    [
                        {
                            "pitch": 45, 
                            "t0": 549970, 
                            "v": 58, 
                            "dur": 488, 
                            "type": "note", 
                            "channel": 7
                        }
                    ]
                ], 
                [
                    550466, 
                    [
                        {
                            "pitch": 40, 
                            "t0": 550466, 
                            "v": 60, 
                            "dur": 342, 
                            "type": "note", 
                            "channel": 7
                        }
                    ]
                ], 
                [
                    551454, 
                    [
                        {
                            "pitch": 40, 
                            "t0": 551454, 
                            "v": 76, 
                            "dur": 292, 
                            "type": "note", 
                            "channel": 7
                        }
                    ]
                ], 
                [
                    551896, 
                    [
                        {
                            "pitch": 43, 
                            "t0": 551896, 
                            "v": 64, 
                            "dur": 416, 
                            "type": "note", 
                            "channel": 7
                        }
                    ]
                ], 
                [
                    552412, 
                    [
                        {
                            "pitch": 38, 
                            "t0": 552412, 
                            "v": 92, 
                            "dur": 342, 
                            "type": "note", 
                            "channel": 7
                        }
                    ]
                ], 
                [
                    553430, 
                    [
                        {
                            "pitch": 38, 
                            "t0": 553430, 
                            "v": 58, 
                            "dur": 240, 
                            "type": "note", 
                            "channel": 7
                        }
                    ]
                ], 
                [
                    553950, 
                    [
                        {
                            "pitch": 45, 
                            "t0": 553950, 
                            "v": 50, 
                            "dur": 458, 
                            "type": "note", 
                            "channel": 7
                        }
                    ]
                ], 
                [
                    554362, 
                    [
                        {
                            "pitch": 40, 
                            "t0": 554362, 
                            "v": 58, 
                            "dur": 2792, 
                            "type": "note", 
                            "channel": 7
                        }
                    ]
                ], 
                [
                    557112, 
                    [
                        {
                            "pitch": 43, 
                            "t0": 557112, 
                            "v": 14, 
                            "dur": 738, 
                            "type": "note", 
                            "channel": 7
                        }
                    ]
                ], 
                [
                    557876, 
                    [
                        {
                            "pitch": 40, 
                            "t0": 557876, 
                            "v": 52, 
                            "dur": 832, 
                            "type": "note", 
                            "channel": 7
                        }
                    ]
                ], 
                [
                    558938, 
                    [
                        {
                            "pitch": 40, 
                            "t0": 558938, 
                            "v": 43, 
                            "dur": 2554, 
                            "type": "note", 
                            "channel": 7
                        }
                    ]
                ]
            ], 
            "instruments": [
                45
            ], 
            "tMax": 558938, 
            "channels": [
                7
            ], 
            "instrument": 45, 
            "numNotes": 854, 
            "type": "TrackObj"
        }, 
        {
            "trackName": "Instrument Track", 
            "seq": [
                [
                    0, 
                    [
                        {
                            "instrument": 52, 
                            "type": "programChange", 
                            "t0": 0, 
                            "channel": 8
                        }
                    ]
                ], 
                [
                    66580, 
                    [
                        {
                            "pitch": 45, 
                            "t0": 66580, 
                            "v": 56, 
                            "dur": 1640, 
                            "type": "note", 
                            "channel": 8
                        }
                    ]
                ], 
                [
                    66584, 
                    [
                        {
                            "pitch": 52, 
                            "t0": 66584, 
                            "v": 64, 
                            "dur": 1174, 
                            "type": "note", 
                            "channel": 8
                        }, 
                        {
                            "pitch": 48, 
                            "t0": 66584, 
                            "v": 72, 
                            "dur": 1182, 
                            "type": "note", 
                            "channel": 8
                        }
                    ]
                ], 
                [
                    66612, 
                    [
                        {
                            "pitch": 50, 
                            "t0": 66612, 
                            "v": 60, 
                            "dur": 114, 
                            "type": "note", 
                            "channel": 8
                        }
                    ]
                ], 
                [
                    67888, 
                    [
                        {
                            "pitch": 50, 
                            "t0": 67888, 
                            "v": 108, 
                            "dur": 246, 
                            "type": "note", 
                            "channel": 8
                        }
                    ]
                ], 
                [
                    67900, 
                    [
                        {
                            "pitch": 53, 
                            "t0": 67900, 
                            "v": 116, 
                            "dur": 216, 
                            "type": "note", 
                            "channel": 8
                        }
                    ]
                ], 
                [
                    70570, 
                    [
                        {
                            "pitch": 53, 
                            "t0": 70570, 
                            "v": 112, 
                            "dur": 1218, 
                            "type": "note", 
                            "channel": 8
                        }
                    ]
                ], 
                [
                    70576, 
                    [
                        {
                            "pitch": 50, 
                            "t0": 70576, 
                            "v": 112, 
                            "dur": 1220, 
                            "type": "note", 
                            "channel": 8
                        }, 
                        {
                            "pitch": 45, 
                            "t0": 70576, 
                            "v": 108, 
                            "dur": 1478, 
                            "type": "note", 
                            "channel": 8
                        }
                    ]
                ], 
                [
                    71900, 
                    [
                        {
                            "pitch": 48, 
                            "t0": 71900, 
                            "v": 116, 
                            "dur": 200, 
                            "type": "note", 
                            "channel": 8
                        }
                    ]
                ], 
                [
                    71908, 
                    [
                        {
                            "pitch": 52, 
                            "t0": 71908, 
                            "v": 112, 
                            "dur": 204, 
                            "type": "note", 
                            "channel": 8
                        }
                    ]
                ], 
                [
                    71920, 
                    [
                        {
                            "pitch": 50, 
                            "t0": 71920, 
                            "v": 108, 
                            "dur": 110, 
                            "type": "note", 
                            "channel": 8
                        }
                    ]
                ], 
                [
                    74470, 
                    [
                        {
                            "pitch": 48, 
                            "t0": 74470, 
                            "v": 120, 
                            "dur": 1406, 
                            "type": "note", 
                            "channel": 8
                        }
                    ]
                ], 
                [
                    74476, 
                    [
                        {
                            "pitch": 52, 
                            "t0": 74476, 
                            "v": 120, 
                            "dur": 1382, 
                            "type": "note", 
                            "channel": 8
                        }, 
                        {
                            "pitch": 45, 
                            "t0": 74476, 
                            "v": 104, 
                            "dur": 1736, 
                            "type": "note", 
                            "channel": 8
                        }
                    ]
                ], 
                [
                    75942, 
                    [
                        {
                            "pitch": 50, 
                            "t0": 75942, 
                            "v": 108, 
                            "dur": 188, 
                            "type": "note", 
                            "channel": 8
                        }
                    ]
                ], 
                [
                    75954, 
                    [
                        {
                            "pitch": 53, 
                            "t0": 75954, 
                            "v": 116, 
                            "dur": 184, 
                            "type": "note", 
                            "channel": 8
                        }
                    ]
                ], 
                [
                    78500, 
                    [
                        {
                            "pitch": 50, 
                            "t0": 78500, 
                            "v": 116, 
                            "dur": 1296, 
                            "type": "note", 
                            "channel": 8
                        }
                    ]
                ], 
                [
                    78508, 
                    [
                        {
                            "pitch": 53, 
                            "t0": 78508, 
                            "v": 120, 
                            "dur": 1280, 
                            "type": "note", 
                            "channel": 8
                        }, 
                        {
                            "pitch": 45, 
                            "t0": 78508, 
                            "v": 108, 
                            "dur": 1554, 
                            "type": "note", 
                            "channel": 8
                        }
                    ]
                ], 
                [
                    79900, 
                    [
                        {
                            "pitch": 48, 
                            "t0": 79900, 
                            "v": 104, 
                            "dur": 192, 
                            "type": "note", 
                            "channel": 8
                        }
                    ]
                ], 
                [
                    79912, 
                    [
                        {
                            "pitch": 52, 
                            "t0": 79912, 
                            "v": 116, 
                            "dur": 196, 
                            "type": "note", 
                            "channel": 8
                        }
                    ]
                ], 
                [
                    79926, 
                    [
                        {
                            "pitch": 50, 
                            "t0": 79926, 
                            "v": 108, 
                            "dur": 54, 
                            "type": "note", 
                            "channel": 8
                        }
                    ]
                ], 
                [
                    82480, 
                    [
                        {
                            "pitch": 52, 
                            "t0": 82480, 
                            "v": 120, 
                            "dur": 1404, 
                            "type": "note", 
                            "channel": 8
                        }, 
                        {
                            "pitch": 45, 
                            "t0": 82480, 
                            "v": 112, 
                            "dur": 1662, 
                            "type": "note", 
                            "channel": 8
                        }
                    ]
                ], 
                [
                    82484, 
                    [
                        {
                            "pitch": 48, 
                            "t0": 82484, 
                            "v": 100, 
                            "dur": 1416, 
                            "type": "note", 
                            "channel": 8
                        }
                    ]
                ], 
                [
                    82488, 
                    [
                        {
                            "pitch": 50, 
                            "t0": 82488, 
                            "v": 96, 
                            "dur": 274, 
                            "type": "note", 
                            "channel": 8
                        }
                    ]
                ], 
                [
                    83976, 
                    [
                        {
                            "pitch": 50, 
                            "t0": 83976, 
                            "v": 104, 
                            "dur": 220, 
                            "type": "note", 
                            "channel": 8
                        }
                    ]
                ], 
                [
                    83988, 
                    [
                        {
                            "pitch": 53, 
                            "t0": 83988, 
                            "v": 120, 
                            "dur": 212, 
                            "type": "note", 
                            "channel": 8
                        }
                    ]
                ], 
                [
                    86520, 
                    [
                        {
                            "pitch": 53, 
                            "t0": 86520, 
                            "v": 120, 
                            "dur": 1330, 
                            "type": "note", 
                            "channel": 8
                        }, 
                        {
                            "pitch": 50, 
                            "t0": 86520, 
                            "v": 112, 
                            "dur": 1342, 
                            "type": "note", 
                            "channel": 8
                        }
                    ]
                ], 
                [
                    86526, 
                    [
                        {
                            "pitch": 45, 
                            "t0": 86526, 
                            "v": 108, 
                            "dur": 1904, 
                            "type": "note", 
                            "channel": 8
                        }
                    ]
                ], 
                [
                    87958, 
                    [
                        {
                            "pitch": 48, 
                            "t0": 87958, 
                            "v": 108, 
                            "dur": 234, 
                            "type": "note", 
                            "channel": 8
                        }
                    ]
                ], 
                [
                    87970, 
                    [
                        {
                            "pitch": 52, 
                            "t0": 87970, 
                            "v": 112, 
                            "dur": 234, 
                            "type": "note", 
                            "channel": 8
                        }
                    ]
                ], 
                [
                    90576, 
                    [
                        {
                            "pitch": 48, 
                            "t0": 90576, 
                            "v": 96, 
                            "dur": 1324, 
                            "type": "note", 
                            "channel": 8
                        }
                    ]
                ], 
                [
                    90584, 
                    [
                        {
                            "pitch": 52, 
                            "t0": 90584, 
                            "v": 108, 
                            "dur": 1300, 
                            "type": "note", 
                            "channel": 8
                        }
                    ]
                ], 
                [
                    90588, 
                    [
                        {
                            "pitch": 45, 
                            "t0": 90588, 
                            "v": 112, 
                            "dur": 1554, 
                            "type": "note", 
                            "channel": 8
                        }
                    ]
                ], 
                [
                    91988, 
                    [
                        {
                            "pitch": 50, 
                            "t0": 91988, 
                            "v": 108, 
                            "dur": 192, 
                            "type": "note", 
                            "channel": 8
                        }
                    ]
                ], 
                [
                    91996, 
                    [
                        {
                            "pitch": 53, 
                            "t0": 91996, 
                            "v": 120, 
                            "dur": 192, 
                            "type": "note", 
                            "channel": 8
                        }
                    ]
                ], 
                [
                    94488, 
                    [
                        {
                            "pitch": 50, 
                            "t0": 94488, 
                            "v": 112, 
                            "dur": 1392, 
                            "type": "note", 
                            "channel": 8
                        }, 
                        {
                            "pitch": 45, 
                            "t0": 94488, 
                            "v": 76, 
                            "dur": 1682, 
                            "type": "note", 
                            "channel": 8
                        }
                    ]
                ], 
                [
                    94492, 
                    [
                        {
                            "pitch": 53, 
                            "t0": 94492, 
                            "v": 112, 
                            "dur": 1378, 
                            "type": "note", 
                            "channel": 8
                        }
                    ]
                ], 
                [
                    94504, 
                    [
                        {
                            "pitch": 52, 
                            "t0": 94504, 
                            "v": 112, 
                            "dur": 354, 
                            "type": "note", 
                            "channel": 8
                        }
                    ]
                ], 
                [
                    96000, 
                    [
                        {
                            "pitch": 48, 
                            "t0": 96000, 
                            "v": 112, 
                            "dur": 196, 
                            "type": "note", 
                            "channel": 8
                        }, 
                        {
                            "pitch": 52, 
                            "t0": 96000, 
                            "v": 120, 
                            "dur": 220, 
                            "type": "note", 
                            "channel": 8
                        }
                    ]
                ], 
                [
                    98496, 
                    [
                        {
                            "pitch": 48, 
                            "t0": 98496, 
                            "v": 112, 
                            "dur": 1362, 
                            "type": "note", 
                            "channel": 8
                        }
                    ]
                ], 
                [
                    98500, 
                    [
                        {
                            "pitch": 52, 
                            "t0": 98500, 
                            "v": 116, 
                            "dur": 1370, 
                            "type": "note", 
                            "channel": 8
                        }, 
                        {
                            "pitch": 45, 
                            "t0": 98500, 
                            "v": 100, 
                            "dur": 1634, 
                            "type": "note", 
                            "channel": 8
                        }
                    ]
                ], 
                [
                    99954, 
                    [
                        {
                            "pitch": 50, 
                            "t0": 99954, 
                            "v": 100, 
                            "dur": 184, 
                            "type": "note", 
                            "channel": 8
                        }
                    ]
                ], 
                [
                    99962, 
                    [
                        {
                            "pitch": 53, 
                            "t0": 99962, 
                            "v": 120, 
                            "dur": 188, 
                            "type": "note", 
                            "channel": 8
                        }
                    ]
                ], 
                [
                    102442, 
                    [
                        {
                            "pitch": 53, 
                            "t0": 102442, 
                            "v": 116, 
                            "dur": 1354, 
                            "type": "note", 
                            "channel": 8
                        }, 
                        {
                            "pitch": 50, 
                            "t0": 102442, 
                            "v": 108, 
                            "dur": 1362, 
                            "type": "note", 
                            "channel": 8
                        }
                    ]
                ], 
                [
                    102450, 
                    [
                        {
                            "pitch": 45, 
                            "t0": 102450, 
                            "v": 96, 
                            "dur": 1792, 
                            "type": "note", 
                            "channel": 8
                        }
                    ]
                ], 
                [
                    103888, 
                    [
                        {
                            "pitch": 48, 
                            "t0": 103888, 
                            "v": 96, 
                            "dur": 242, 
                            "type": "note", 
                            "channel": 8
                        }
                    ]
                ], 
                [
                    103892, 
                    [
                        {
                            "pitch": 52, 
                            "t0": 103892, 
                            "v": 112, 
                            "dur": 242, 
                            "type": "note", 
                            "channel": 8
                        }
                    ]
                ], 
                [
                    106554, 
                    [
                        {
                            "pitch": 48, 
                            "t0": 106554, 
                            "v": 108, 
                            "dur": 1376, 
                            "type": "note", 
                            "channel": 8
                        }
                    ]
                ], 
                [
                    106558, 
                    [
                        {
                            "pitch": 52, 
                            "t0": 106558, 
                            "v": 116, 
                            "dur": 1362, 
                            "type": "note", 
                            "channel": 8
                        }
                    ]
                ], 
                [
                    106562, 
                    [
                        {
                            "pitch": 45, 
                            "t0": 106562, 
                            "v": 108, 
                            "dur": 1772, 
                            "type": "note", 
                            "channel": 8
                        }
                    ]
                ], 
                [
                    108012, 
                    [
                        {
                            "pitch": 50, 
                            "t0": 108012, 
                            "v": 88, 
                            "dur": 214, 
                            "type": "note", 
                            "channel": 8
                        }
                    ]
                ], 
                [
                    108026, 
                    [
                        {
                            "pitch": 53, 
                            "t0": 108026, 
                            "v": 120, 
                            "dur": 208, 
                            "type": "note", 
                            "channel": 8
                        }
                    ]
                ], 
                [
                    110504, 
                    [
                        {
                            "pitch": 50, 
                            "t0": 110504, 
                            "v": 100, 
                            "dur": 1362, 
                            "type": "note", 
                            "channel": 8
                        }
                    ]
                ], 
                [
                    110508, 
                    [
                        {
                            "pitch": 53, 
                            "t0": 110508, 
                            "v": 116, 
                            "dur": 1334, 
                            "type": "note", 
                            "channel": 8
                        }
                    ]
                ], 
                [
                    110512, 
                    [
                        {
                            "pitch": 45, 
                            "t0": 110512, 
                            "v": 92, 
                            "dur": 1596, 
                            "type": "note", 
                            "channel": 8
                        }
                    ]
                ], 
                [
                    110542, 
                    [
                        {
                            "pitch": 47, 
                            "t0": 110542, 
                            "v": 88, 
                            "dur": 278, 
                            "type": "note", 
                            "channel": 8
                        }
                    ]
                ], 
                [
                    111954, 
                    [
                        {
                            "pitch": 48, 
                            "t0": 111954, 
                            "v": 108, 
                            "dur": 200, 
                            "type": "note", 
                            "channel": 8
                        }
                    ]
                ], 
                [
                    111962, 
                    [
                        {
                            "pitch": 52, 
                            "t0": 111962, 
                            "v": 124, 
                            "dur": 208, 
                            "type": "note", 
                            "channel": 8
                        }
                    ]
                ], 
                [
                    114476, 
                    [
                        {
                            "pitch": 48, 
                            "t0": 114476, 
                            "v": 96, 
                            "dur": 1412, 
                            "type": "note", 
                            "channel": 8
                        }, 
                        {
                            "pitch": 45, 
                            "t0": 114476, 
                            "v": 108, 
                            "dur": 1794, 
                            "type": "note", 
                            "channel": 8
                        }
                    ]
                ], 
                [
                    114480, 
                    [
                        {
                            "pitch": 52, 
                            "t0": 114480, 
                            "v": 116, 
                            "dur": 1400, 
                            "type": "note", 
                            "channel": 8
                        }
                    ]
                ], 
                [
                    114496, 
                    [
                        {
                            "pitch": 53, 
                            "t0": 114496, 
                            "v": 100, 
                            "dur": 170, 
                            "type": "note", 
                            "channel": 8
                        }
                    ]
                ], 
                [
                    115992, 
                    [
                        {
                            "pitch": 50, 
                            "t0": 115992, 
                            "v": 112, 
                            "dur": 196, 
                            "type": "note", 
                            "channel": 8
                        }
                    ]
                ], 
                [
                    116000, 
                    [
                        {
                            "pitch": 53, 
                            "t0": 116000, 
                            "v": 124, 
                            "dur": 204, 
                            "type": "note", 
                            "channel": 8
                        }
                    ]
                ], 
                [
                    118596, 
                    [
                        {
                            "pitch": 53, 
                            "t0": 118596, 
                            "v": 120, 
                            "dur": 1334, 
                            "type": "note", 
                            "channel": 8
                        }, 
                        {
                            "pitch": 50, 
                            "t0": 118596, 
                            "v": 104, 
                            "dur": 1346, 
                            "type": "note", 
                            "channel": 8
                        }
                    ]
                ], 
                [
                    118600, 
                    [
                        {
                            "pitch": 45, 
                            "t0": 118600, 
                            "v": 108, 
                            "dur": 1880, 
                            "type": "note", 
                            "channel": 8
                        }
                    ]
                ], 
                [
                    120062, 
                    [
                        {
                            "pitch": 52, 
                            "t0": 120062, 
                            "v": 116, 
                            "dur": 242, 
                            "type": "note", 
                            "channel": 8
                        }, 
                        {
                            "pitch": 48, 
                            "t0": 120062, 
                            "v": 104, 
                            "dur": 268, 
                            "type": "note", 
                            "channel": 8
                        }
                    ]
                ], 
                [
                    122542, 
                    [
                        {
                            "pitch": 48, 
                            "t0": 122542, 
                            "v": 104, 
                            "dur": 1316, 
                            "type": "note", 
                            "channel": 8
                        }
                    ]
                ], 
                [
                    122546, 
                    [
                        {
                            "pitch": 52, 
                            "t0": 122546, 
                            "v": 108, 
                            "dur": 1304, 
                            "type": "note", 
                            "channel": 8
                        }
                    ]
                ], 
                [
                    122554, 
                    [
                        {
                            "pitch": 45, 
                            "t0": 122554, 
                            "v": 108, 
                            "dur": 1584, 
                            "type": "note", 
                            "channel": 8
                        }
                    ]
                ], 
                [
                    123950, 
                    [
                        {
                            "pitch": 50, 
                            "t0": 123950, 
                            "v": 108, 
                            "dur": 212, 
                            "type": "note", 
                            "channel": 8
                        }
                    ]
                ], 
                [
                    123958, 
                    [
                        {
                            "pitch": 53, 
                            "t0": 123958, 
                            "v": 108, 
                            "dur": 222, 
                            "type": "note", 
                            "channel": 8
                        }
                    ]
                ], 
                [
                    126538, 
                    [
                        {
                            "pitch": 50, 
                            "t0": 126538, 
                            "v": 116, 
                            "dur": 1282, 
                            "type": "note", 
                            "channel": 8
                        }
                    ]
                ], 
                [
                    126542, 
                    [
                        {
                            "pitch": 53, 
                            "t0": 126542, 
                            "v": 116, 
                            "dur": 1270, 
                            "type": "note", 
                            "channel": 8
                        }
                    ]
                ], 
                [
                    126546, 
                    [
                        {
                            "pitch": 45, 
                            "t0": 126546, 
                            "v": 112, 
                            "dur": 1670, 
                            "type": "note", 
                            "channel": 8
                        }
                    ]
                ], 
                [
                    127930, 
                    [
                        {
                            "pitch": 48, 
                            "t0": 127930, 
                            "v": 100, 
                            "dur": 212, 
                            "type": "note", 
                            "channel": 8
                        }
                    ]
                ], 
                [
                    127934, 
                    [
                        {
                            "pitch": 52, 
                            "t0": 127934, 
                            "v": 116, 
                            "dur": 220, 
                            "type": "note", 
                            "channel": 8
                        }
                    ]
                ], 
                [
                    130476, 
                    [
                        {
                            "pitch": 52, 
                            "t0": 130476, 
                            "v": 116, 
                            "dur": 1454, 
                            "type": "note", 
                            "channel": 8
                        }, 
                        {
                            "pitch": 48, 
                            "t0": 130476, 
                            "v": 112, 
                            "dur": 1462, 
                            "type": "note", 
                            "channel": 8
                        }
                    ]
                ], 
                [
                    130492, 
                    [
                        {
                            "pitch": 45, 
                            "t0": 130492, 
                            "v": 108, 
                            "dur": 1966, 
                            "type": "note", 
                            "channel": 8
                        }
                    ]
                ], 
                [
                    132012, 
                    [
                        {
                            "pitch": 50, 
                            "t0": 132012, 
                            "v": 100, 
                            "dur": 246, 
                            "type": "note", 
                            "channel": 8
                        }
                    ]
                ], 
                [
                    132026, 
                    [
                        {
                            "pitch": 53, 
                            "t0": 132026, 
                            "v": 116, 
                            "dur": 240, 
                            "type": "note", 
                            "channel": 8
                        }
                    ]
                ], 
                [
                    134480, 
                    [
                        {
                            "pitch": 53, 
                            "t0": 134480, 
                            "v": 124, 
                            "dur": 1358, 
                            "type": "note", 
                            "channel": 8
                        }, 
                        {
                            "pitch": 50, 
                            "t0": 134480, 
                            "v": 108, 
                            "dur": 1358, 
                            "type": "note", 
                            "channel": 8
                        }
                    ]
                ], 
                [
                    134484, 
                    [
                        {
                            "pitch": 45, 
                            "t0": 134484, 
                            "v": 108, 
                            "dur": 1882, 
                            "type": "note", 
                            "channel": 8
                        }
                    ]
                ], 
                [
                    135926, 
                    [
                        {
                            "pitch": 48, 
                            "t0": 135926, 
                            "v": 104, 
                            "dur": 216, 
                            "type": "note", 
                            "channel": 8
                        }
                    ]
                ], 
                [
                    135938, 
                    [
                        {
                            "pitch": 52, 
                            "t0": 135938, 
                            "v": 116, 
                            "dur": 216, 
                            "type": "note", 
                            "channel": 8
                        }
                    ]
                ], 
                [
                    138500, 
                    [
                        {
                            "pitch": 48, 
                            "t0": 138500, 
                            "v": 116, 
                            "dur": 1380, 
                            "type": "note", 
                            "channel": 8
                        }
                    ]
                ], 
                [
                    138504, 
                    [
                        {
                            "pitch": 52, 
                            "t0": 138504, 
                            "v": 116, 
                            "dur": 1366, 
                            "type": "note", 
                            "channel": 8
                        }
                    ]
                ], 
                [
                    138512, 
                    [
                        {
                            "pitch": 45, 
                            "t0": 138512, 
                            "v": 108, 
                            "dur": 1972, 
                            "type": "note", 
                            "channel": 8
                        }
                    ]
                ], 
                [
                    139950, 
                    [
                        {
                            "pitch": 50, 
                            "t0": 139950, 
                            "v": 92, 
                            "dur": 242, 
                            "type": "note", 
                            "channel": 8
                        }
                    ]
                ], 
                [
                    139958, 
                    [
                        {
                            "pitch": 53, 
                            "t0": 139958, 
                            "v": 116, 
                            "dur": 234, 
                            "type": "note", 
                            "channel": 8
                        }
                    ]
                ], 
                [
                    142526, 
                    [
                        {
                            "pitch": 53, 
                            "t0": 142526, 
                            "v": 116, 
                            "dur": 1404, 
                            "type": "note", 
                            "channel": 8
                        }, 
                        {
                            "pitch": 50, 
                            "t0": 142526, 
                            "v": 112, 
                            "dur": 1416, 
                            "type": "note", 
                            "channel": 8
                        }
                    ]
                ], 
                [
                    142530, 
                    [
                        {
                            "pitch": 45, 
                            "t0": 142530, 
                            "v": 108, 
                            "dur": 1846, 
                            "type": "note", 
                            "channel": 8
                        }
                    ]
                ], 
                [
                    144026, 
                    [
                        {
                            "pitch": 48, 
                            "t0": 144026, 
                            "v": 104, 
                            "dur": 244, 
                            "type": "note", 
                            "channel": 8
                        }
                    ]
                ], 
                [
                    144034, 
                    [
                        {
                            "pitch": 52, 
                            "t0": 144034, 
                            "v": 120, 
                            "dur": 250, 
                            "type": "note", 
                            "channel": 8
                        }
                    ]
                ], 
                [
                    146470, 
                    [
                        {
                            "pitch": 52, 
                            "t0": 146470, 
                            "v": 108, 
                            "dur": 1446, 
                            "type": "note", 
                            "channel": 8
                        }, 
                        {
                            "pitch": 48, 
                            "t0": 146470, 
                            "v": 100, 
                            "dur": 1460, 
                            "type": "note", 
                            "channel": 8
                        }
                    ]
                ], 
                [
                    146480, 
                    [
                        {
                            "pitch": 45, 
                            "t0": 146480, 
                            "v": 112, 
                            "dur": 1936, 
                            "type": "note", 
                            "channel": 8
                        }
                    ]
                ], 
                [
                    148020, 
                    [
                        {
                            "pitch": 50, 
                            "t0": 148020, 
                            "v": 104, 
                            "dur": 234, 
                            "type": "note", 
                            "channel": 8
                        }
                    ]
                ], 
                [
                    148030, 
                    [
                        {
                            "pitch": 53, 
                            "t0": 148030, 
                            "v": 116, 
                            "dur": 232, 
                            "type": "note", 
                            "channel": 8
                        }
                    ]
                ], 
                [
                    150580, 
                    [
                        {
                            "pitch": 50, 
                            "t0": 150580, 
                            "v": 112, 
                            "dur": 1382, 
                            "type": "note", 
                            "channel": 8
                        }
                    ]
                ], 
                [
                    150584, 
                    [
                        {
                            "pitch": 53, 
                            "t0": 150584, 
                            "v": 120, 
                            "dur": 1366, 
                            "type": "note", 
                            "channel": 8
                        }
                    ]
                ], 
                [
                    150588, 
                    [
                        {
                            "pitch": 45, 
                            "t0": 150588, 
                            "v": 104, 
                            "dur": 1754, 
                            "type": "note", 
                            "channel": 8
                        }
                    ]
                ], 
                [
                    152054, 
                    [
                        {
                            "pitch": 48, 
                            "t0": 152054, 
                            "v": 116, 
                            "dur": 208, 
                            "type": "note", 
                            "channel": 8
                        }
                    ]
                ], 
                [
                    152062, 
                    [
                        {
                            "pitch": 52, 
                            "t0": 152062, 
                            "v": 120, 
                            "dur": 214, 
                            "type": "note", 
                            "channel": 8
                        }
                    ]
                ], 
                [
                    154538, 
                    [
                        {
                            "pitch": 48, 
                            "t0": 154538, 
                            "v": 96, 
                            "dur": 1362, 
                            "type": "note", 
                            "channel": 8
                        }
                    ]
                ], 
                [
                    154542, 
                    [
                        {
                            "pitch": 52, 
                            "t0": 154542, 
                            "v": 100, 
                            "dur": 1342, 
                            "type": "note", 
                            "channel": 8
                        }
                    ]
                ], 
                [
                    154550, 
                    [
                        {
                            "pitch": 45, 
                            "t0": 154550, 
                            "v": 112, 
                            "dur": 1792, 
                            "type": "note", 
                            "channel": 8
                        }
                    ]
                ], 
                [
                    155976, 
                    [
                        {
                            "pitch": 50, 
                            "t0": 155976, 
                            "v": 96, 
                            "dur": 266, 
                            "type": "note", 
                            "channel": 8
                        }
                    ]
                ], 
                [
                    155984, 
                    [
                        {
                            "pitch": 53, 
                            "t0": 155984, 
                            "v": 116, 
                            "dur": 228, 
                            "type": "note", 
                            "channel": 8
                        }
                    ]
                ], 
                [
                    158470, 
                    [
                        {
                            "pitch": 50, 
                            "t0": 158470, 
                            "v": 112, 
                            "dur": 1418, 
                            "type": "note", 
                            "channel": 8
                        }
                    ]
                ], 
                [
                    158476, 
                    [
                        {
                            "pitch": 53, 
                            "t0": 158476, 
                            "v": 124, 
                            "dur": 1386, 
                            "type": "note", 
                            "channel": 8
                        }, 
                        {
                            "pitch": 45, 
                            "t0": 158476, 
                            "v": 116, 
                            "dur": 2174, 
                            "type": "note", 
                            "channel": 8
                        }
                    ]
                ], 
                [
                    159988, 
                    [
                        {
                            "pitch": 48, 
                            "t0": 159988, 
                            "v": 108, 
                            "dur": 292, 
                            "type": "note", 
                            "channel": 8
                        }
                    ]
                ], 
                [
                    159996, 
                    [
                        {
                            "pitch": 52, 
                            "t0": 159996, 
                            "v": 116, 
                            "dur": 254, 
                            "type": "note", 
                            "channel": 8
                        }
                    ]
                ], 
                [
                    162500, 
                    [
                        {
                            "pitch": 48, 
                            "t0": 162500, 
                            "v": 116, 
                            "dur": 1434, 
                            "type": "note", 
                            "channel": 8
                        }
                    ]
                ], 
                [
                    162504, 
                    [
                        {
                            "pitch": 52, 
                            "t0": 162504, 
                            "v": 120, 
                            "dur": 1416, 
                            "type": "note", 
                            "channel": 8
                        }
                    ]
                ], 
                [
                    162508, 
                    [
                        {
                            "pitch": 45, 
                            "t0": 162508, 
                            "v": 112, 
                            "dur": 1896, 
                            "type": "note", 
                            "channel": 8
                        }
                    ]
                ], 
                [
                    164030, 
                    [
                        {
                            "pitch": 50, 
                            "t0": 164030, 
                            "v": 112, 
                            "dur": 228, 
                            "type": "note", 
                            "channel": 8
                        }
                    ]
                ], 
                [
                    164034, 
                    [
                        {
                            "pitch": 53, 
                            "t0": 164034, 
                            "v": 120, 
                            "dur": 228, 
                            "type": "note", 
                            "channel": 8
                        }
                    ]
                ], 
                [
                    166534, 
                    [
                        {
                            "pitch": 53, 
                            "t0": 166534, 
                            "v": 120, 
                            "dur": 1316, 
                            "type": "note", 
                            "channel": 8
                        }
                    ]
                ], 
                [
                    166538, 
                    [
                        {
                            "pitch": 50, 
                            "t0": 166538, 
                            "v": 108, 
                            "dur": 1342, 
                            "type": "note", 
                            "channel": 8
                        }
                    ]
                ], 
                [
                    166546, 
                    [
                        {
                            "pitch": 45, 
                            "t0": 166546, 
                            "v": 112, 
                            "dur": 1854, 
                            "type": "note", 
                            "channel": 8
                        }
                    ]
                ], 
                [
                    167976, 
                    [
                        {
                            "pitch": 52, 
                            "t0": 167976, 
                            "v": 116, 
                            "dur": 266, 
                            "type": "note", 
                            "channel": 8
                        }, 
                        {
                            "pitch": 48, 
                            "t0": 167976, 
                            "v": 112, 
                            "dur": 278, 
                            "type": "note", 
                            "channel": 8
                        }
                    ]
                ], 
                [
                    170484, 
                    [
                        {
                            "pitch": 48, 
                            "t0": 170484, 
                            "v": 108, 
                            "dur": 1474, 
                            "type": "note", 
                            "channel": 8
                        }
                    ]
                ], 
                [
                    170492, 
                    [
                        {
                            "pitch": 52, 
                            "t0": 170492, 
                            "v": 104, 
                            "dur": 1466, 
                            "type": "note", 
                            "channel": 8
                        }, 
                        {
                            "pitch": 45, 
                            "t0": 170492, 
                            "v": 108, 
                            "dur": 1712, 
                            "type": "note", 
                            "channel": 8
                        }
                    ]
                ], 
                [
                    172046, 
                    [
                        {
                            "pitch": 50, 
                            "t0": 172046, 
                            "v": 116, 
                            "dur": 216, 
                            "type": "note", 
                            "channel": 8
                        }
                    ]
                ], 
                [
                    172054, 
                    [
                        {
                            "pitch": 53, 
                            "t0": 172054, 
                            "v": 120, 
                            "dur": 226, 
                            "type": "note", 
                            "channel": 8
                        }
                    ]
                ], 
                [
                    174550, 
                    [
                        {
                            "pitch": 53, 
                            "t0": 174550, 
                            "v": 112, 
                            "dur": 1338, 
                            "type": "note", 
                            "channel": 8
                        }, 
                        {
                            "pitch": 50, 
                            "t0": 174550, 
                            "v": 116, 
                            "dur": 1358, 
                            "type": "note", 
                            "channel": 8
                        }
                    ]
                ], 
                [
                    174554, 
                    [
                        {
                            "pitch": 45, 
                            "t0": 174554, 
                            "v": 108, 
                            "dur": 1762, 
                            "type": "note", 
                            "channel": 8
                        }
                    ]
                ], 
                [
                    176008, 
                    [
                        {
                            "pitch": 48, 
                            "t0": 176008, 
                            "v": 104, 
                            "dur": 218, 
                            "type": "note", 
                            "channel": 8
                        }
                    ]
                ], 
                [
                    176012, 
                    [
                        {
                            "pitch": 52, 
                            "t0": 176012, 
                            "v": 120, 
                            "dur": 230, 
                            "type": "note", 
                            "channel": 8
                        }
                    ]
                ], 
                [
                    178566, 
                    [
                        {
                            "pitch": 52, 
                            "t0": 178566, 
                            "v": 116, 
                            "dur": 1322, 
                            "type": "note", 
                            "channel": 8
                        }, 
                        {
                            "pitch": 48, 
                            "t0": 178566, 
                            "v": 100, 
                            "dur": 1330, 
                            "type": "note", 
                            "channel": 8
                        }
                    ]
                ], 
                [
                    178584, 
                    [
                        {
                            "pitch": 45, 
                            "t0": 178584, 
                            "v": 104, 
                            "dur": 1704, 
                            "type": "note", 
                            "channel": 8
                        }
                    ]
                ], 
                [
                    178600, 
                    [
                        {
                            "pitch": 47, 
                            "t0": 178600, 
                            "v": 104, 
                            "dur": 134, 
                            "type": "note", 
                            "channel": 8
                        }
                    ]
                ], 
                [
                    180008, 
                    [
                        {
                            "pitch": 50, 
                            "t0": 180008, 
                            "v": 96, 
                            "dur": 222, 
                            "type": "note", 
                            "channel": 8
                        }
                    ]
                ], 
                [
                    180012, 
                    [
                        {
                            "pitch": 53, 
                            "t0": 180012, 
                            "v": 112, 
                            "dur": 218, 
                            "type": "note", 
                            "channel": 8
                        }
                    ]
                ], 
                [
                    182530, 
                    [
                        {
                            "pitch": 53, 
                            "t0": 182530, 
                            "v": 108, 
                            "dur": 1350, 
                            "type": "note", 
                            "channel": 8
                        }, 
                        {
                            "pitch": 50, 
                            "t0": 182530, 
                            "v": 112, 
                            "dur": 1366, 
                            "type": "note", 
                            "channel": 8
                        }
                    ]
                ], 
                [
                    182534, 
                    [
                        {
                            "pitch": 45, 
                            "t0": 182534, 
                            "v": 116, 
                            "dur": 1836, 
                            "type": "note", 
                            "channel": 8
                        }
                    ]
                ], 
                [
                    183980, 
                    [
                        {
                            "pitch": 48, 
                            "t0": 183980, 
                            "v": 104, 
                            "dur": 278, 
                            "type": "note", 
                            "channel": 8
                        }
                    ]
                ], 
                [
                    183988, 
                    [
                        {
                            "pitch": 52, 
                            "t0": 183988, 
                            "v": 116, 
                            "dur": 258, 
                            "type": "note", 
                            "channel": 8
                        }
                    ]
                ], 
                [
                    186454, 
                    [
                        {
                            "pitch": 48, 
                            "t0": 186454, 
                            "v": 112, 
                            "dur": 1462, 
                            "type": "note", 
                            "channel": 8
                        }, 
                        {
                            "pitch": 52, 
                            "t0": 186454, 
                            "v": 120, 
                            "dur": 1476, 
                            "type": "note", 
                            "channel": 8
                        }
                    ]
                ], 
                [
                    186466, 
                    [
                        {
                            "pitch": 45, 
                            "t0": 186466, 
                            "v": 88, 
                            "dur": 1792, 
                            "type": "note", 
                            "channel": 8
                        }
                    ]
                ], 
                [
                    188000, 
                    [
                        {
                            "pitch": 50, 
                            "t0": 188000, 
                            "v": 112, 
                            "dur": 234, 
                            "type": "note", 
                            "channel": 8
                        }
                    ]
                ], 
                [
                    188008, 
                    [
                        {
                            "pitch": 53, 
                            "t0": 188008, 
                            "v": 116, 
                            "dur": 208, 
                            "type": "note", 
                            "channel": 8
                        }
                    ]
                ], 
                [
                    190462, 
                    [
                        {
                            "pitch": 50, 
                            "t0": 190462, 
                            "v": 116, 
                            "dur": 1476, 
                            "type": "note", 
                            "channel": 8
                        }
                    ]
                ], 
                [
                    190466, 
                    [
                        {
                            "pitch": 53, 
                            "t0": 190466, 
                            "v": 116, 
                            "dur": 1464, 
                            "type": "note", 
                            "channel": 8
                        }
                    ]
                ], 
                [
                    190470, 
                    [
                        {
                            "pitch": 45, 
                            "t0": 190470, 
                            "v": 112, 
                            "dur": 2026, 
                            "type": "note", 
                            "channel": 8
                        }
                    ]
                ], 
                [
                    192026, 
                    [
                        {
                            "pitch": 48, 
                            "t0": 192026, 
                            "v": 104, 
                            "dur": 244, 
                            "type": "note", 
                            "channel": 8
                        }
                    ]
                ], 
                [
                    192038, 
                    [
                        {
                            "pitch": 52, 
                            "t0": 192038, 
                            "v": 116, 
                            "dur": 250, 
                            "type": "note", 
                            "channel": 8
                        }
                    ]
                ], 
                [
                    194492, 
                    [
                        {
                            "pitch": 48, 
                            "t0": 194492, 
                            "v": 108, 
                            "dur": 1504, 
                            "type": "note", 
                            "channel": 8
                        }
                    ]
                ], 
                [
                    194496, 
                    [
                        {
                            "pitch": 52, 
                            "t0": 194496, 
                            "v": 120, 
                            "dur": 1492, 
                            "type": "note", 
                            "channel": 8
                        }
                    ]
                ], 
                [
                    194500, 
                    [
                        {
                            "pitch": 45, 
                            "t0": 194500, 
                            "v": 104, 
                            "dur": 2046, 
                            "type": "note", 
                            "channel": 8
                        }
                    ]
                ], 
                [
                    196062, 
                    [
                        {
                            "pitch": 50, 
                            "t0": 196062, 
                            "v": 104, 
                            "dur": 308, 
                            "type": "note", 
                            "channel": 8
                        }
                    ]
                ], 
                [
                    196066, 
                    [
                        {
                            "pitch": 53, 
                            "t0": 196066, 
                            "v": 116, 
                            "dur": 280, 
                            "type": "note", 
                            "channel": 8
                        }
                    ]
                ], 
                [
                    198584, 
                    [
                        {
                            "pitch": 50, 
                            "t0": 198584, 
                            "v": 112, 
                            "dur": 1354, 
                            "type": "note", 
                            "channel": 8
                        }
                    ]
                ], 
                [
                    198588, 
                    [
                        {
                            "pitch": 53, 
                            "t0": 198588, 
                            "v": 120, 
                            "dur": 1342, 
                            "type": "note", 
                            "channel": 8
                        }
                    ]
                ], 
                [
                    198600, 
                    [
                        {
                            "pitch": 45, 
                            "t0": 198600, 
                            "v": 112, 
                            "dur": 1762, 
                            "type": "note", 
                            "channel": 8
                        }
                    ]
                ], 
                [
                    200046, 
                    [
                        {
                            "pitch": 48, 
                            "t0": 200046, 
                            "v": 104, 
                            "dur": 238, 
                            "type": "note", 
                            "channel": 8
                        }
                    ]
                ], 
                [
                    200050, 
                    [
                        {
                            "pitch": 52, 
                            "t0": 200050, 
                            "v": 127, 
                            "dur": 238, 
                            "type": "note", 
                            "channel": 8
                        }
                    ]
                ], 
                [
                    202462, 
                    [
                        {
                            "pitch": 52, 
                            "t0": 202462, 
                            "v": 124, 
                            "dur": 1454, 
                            "type": "note", 
                            "channel": 8
                        }
                    ]
                ], 
                [
                    202466, 
                    [
                        {
                            "pitch": 48, 
                            "t0": 202466, 
                            "v": 112, 
                            "dur": 1464, 
                            "type": "note", 
                            "channel": 8
                        }
                    ]
                ], 
                [
                    202470, 
                    [
                        {
                            "pitch": 45, 
                            "t0": 202470, 
                            "v": 112, 
                            "dur": 1880, 
                            "type": "note", 
                            "channel": 8
                        }
                    ]
                ], 
                [
                    204004, 
                    [
                        {
                            "pitch": 50, 
                            "t0": 204004, 
                            "v": 104, 
                            "dur": 250, 
                            "type": "note", 
                            "channel": 8
                        }
                    ]
                ], 
                [
                    204020, 
                    [
                        {
                            "pitch": 53, 
                            "t0": 204020, 
                            "v": 116, 
                            "dur": 230, 
                            "type": "note", 
                            "channel": 8
                        }
                    ]
                ], 
                [
                    206508, 
                    [
                        {
                            "pitch": 53, 
                            "t0": 206508, 
                            "v": 124, 
                            "dur": 1412, 
                            "type": "note", 
                            "channel": 8
                        }
                    ]
                ], 
                [
                    206512, 
                    [
                        {
                            "pitch": 50, 
                            "t0": 206512, 
                            "v": 108, 
                            "dur": 1434, 
                            "type": "note", 
                            "channel": 8
                        }, 
                        {
                            "pitch": 45, 
                            "t0": 206512, 
                            "v": 112, 
                            "dur": 2196, 
                            "type": "note", 
                            "channel": 8
                        }
                    ]
                ], 
                [
                    208062, 
                    [
                        {
                            "pitch": 48, 
                            "t0": 208062, 
                            "v": 108, 
                            "dur": 250, 
                            "type": "note", 
                            "channel": 8
                        }, 
                        {
                            "pitch": 52, 
                            "t0": 208062, 
                            "v": 120, 
                            "dur": 258, 
                            "type": "note", 
                            "channel": 8
                        }
                    ]
                ], 
                [
                    210392, 
                    [
                        {
                            "pitch": 48, 
                            "t0": 210392, 
                            "v": 116, 
                            "dur": 1428, 
                            "type": "note", 
                            "channel": 8
                        }
                    ]
                ], 
                [
                    210396, 
                    [
                        {
                            "pitch": 52, 
                            "t0": 210396, 
                            "v": 116, 
                            "dur": 1420, 
                            "type": "note", 
                            "channel": 8
                        }
                    ]
                ], 
                [
                    210400, 
                    [
                        {
                            "pitch": 45, 
                            "t0": 210400, 
                            "v": 112, 
                            "dur": 1916, 
                            "type": "note", 
                            "channel": 8
                        }
                    ]
                ], 
                [
                    211942, 
                    [
                        {
                            "pitch": 50, 
                            "t0": 211942, 
                            "v": 112, 
                            "dur": 292, 
                            "type": "note", 
                            "channel": 8
                        }
                    ]
                ], 
                [
                    211950, 
                    [
                        {
                            "pitch": 53, 
                            "t0": 211950, 
                            "v": 120, 
                            "dur": 276, 
                            "type": "note", 
                            "channel": 8
                        }
                    ]
                ], 
                [
                    214534, 
                    [
                        {
                            "pitch": 53, 
                            "t0": 214534, 
                            "v": 120, 
                            "dur": 1404, 
                            "type": "note", 
                            "channel": 8
                        }, 
                        {
                            "pitch": 50, 
                            "t0": 214534, 
                            "v": 108, 
                            "dur": 1432, 
                            "type": "note", 
                            "channel": 8
                        }
                    ]
                ], 
                [
                    214538, 
                    [
                        {
                            "pitch": 45, 
                            "t0": 214538, 
                            "v": 116, 
                            "dur": 1932, 
                            "type": "note", 
                            "channel": 8
                        }
                    ]
                ], 
                [
                    216050, 
                    [
                        {
                            "pitch": 48, 
                            "t0": 216050, 
                            "v": 100, 
                            "dur": 280, 
                            "type": "note", 
                            "channel": 8
                        }
                    ]
                ], 
                [
                    216062, 
                    [
                        {
                            "pitch": 52, 
                            "t0": 216062, 
                            "v": 120, 
                            "dur": 268, 
                            "type": "note", 
                            "channel": 8
                        }
                    ]
                ], 
                [
                    218454, 
                    [
                        {
                            "pitch": 52, 
                            "t0": 218454, 
                            "v": 124, 
                            "dur": 1430, 
                            "type": "note", 
                            "channel": 8
                        }
                    ]
                ], 
                [
                    218458, 
                    [
                        {
                            "pitch": 48, 
                            "t0": 218458, 
                            "v": 104, 
                            "dur": 1438, 
                            "type": "note", 
                            "channel": 8
                        }, 
                        {
                            "pitch": 45, 
                            "t0": 218458, 
                            "v": 104, 
                            "dur": 1876, 
                            "type": "note", 
                            "channel": 8
                        }
                    ]
                ], 
                [
                    219996, 
                    [
                        {
                            "pitch": 50, 
                            "t0": 219996, 
                            "v": 100, 
                            "dur": 262, 
                            "type": "note", 
                            "channel": 8
                        }
                    ]
                ], 
                [
                    220012, 
                    [
                        {
                            "pitch": 53, 
                            "t0": 220012, 
                            "v": 116, 
                            "dur": 238, 
                            "type": "note", 
                            "channel": 8
                        }
                    ]
                ], 
                [
                    222476, 
                    [
                        {
                            "pitch": 53, 
                            "t0": 222476, 
                            "v": 120, 
                            "dur": 1440, 
                            "type": "note", 
                            "channel": 8
                        }, 
                        {
                            "pitch": 50, 
                            "t0": 222476, 
                            "v": 116, 
                            "dur": 1444, 
                            "type": "note", 
                            "channel": 8
                        }
                    ]
                ], 
                [
                    222480, 
                    [
                        {
                            "pitch": 45, 
                            "t0": 222480, 
                            "v": 108, 
                            "dur": 1904, 
                            "type": "note", 
                            "channel": 8
                        }
                    ]
                ], 
                [
                    224034, 
                    [
                        {
                            "pitch": 48, 
                            "t0": 224034, 
                            "v": 104, 
                            "dur": 258, 
                            "type": "note", 
                            "channel": 8
                        }, 
                        {
                            "pitch": 52, 
                            "t0": 224034, 
                            "v": 116, 
                            "dur": 274, 
                            "type": "note", 
                            "channel": 8
                        }
                    ]
                ], 
                [
                    226508, 
                    [
                        {
                            "pitch": 48, 
                            "t0": 226508, 
                            "v": 104, 
                            "dur": 1442, 
                            "type": "note", 
                            "channel": 8
                        }
                    ]
                ], 
                [
                    226512, 
                    [
                        {
                            "pitch": 52, 
                            "t0": 226512, 
                            "v": 127, 
                            "dur": 1434, 
                            "type": "note", 
                            "channel": 8
                        }
                    ]
                ], 
                [
                    226516, 
                    [
                        {
                            "pitch": 45, 
                            "t0": 226516, 
                            "v": 112, 
                            "dur": 2142, 
                            "type": "note", 
                            "channel": 8
                        }
                    ]
                ], 
                [
                    228016, 
                    [
                        {
                            "pitch": 50, 
                            "t0": 228016, 
                            "v": 76, 
                            "dur": 234, 
                            "type": "note", 
                            "channel": 8
                        }
                    ]
                ], 
                [
                    228026, 
                    [
                        {
                            "pitch": 53, 
                            "t0": 228026, 
                            "v": 116, 
                            "dur": 212, 
                            "type": "note", 
                            "channel": 8
                        }
                    ]
                ], 
                [
                    228030, 
                    [
                        {
                            "pitch": 48, 
                            "t0": 228030, 
                            "v": 80, 
                            "dur": 70, 
                            "type": "note", 
                            "channel": 8
                        }
                    ]
                ], 
                [
                    229096, 
                    [
                        {
                            "pitch": 53, 
                            "t0": 229096, 
                            "v": 104, 
                            "dur": 200, 
                            "type": "note", 
                            "channel": 8
                        }
                    ]
                ], 
                [
                    229100, 
                    [
                        {
                            "pitch": 45, 
                            "t0": 229100, 
                            "v": 92, 
                            "dur": 162, 
                            "type": "note", 
                            "channel": 8
                        }, 
                        {
                            "pitch": 50, 
                            "t0": 229100, 
                            "v": 100, 
                            "dur": 184, 
                            "type": "note", 
                            "channel": 8
                        }
                    ]
                ], 
                [
                    230630, 
                    [
                        {
                            "pitch": 53, 
                            "t0": 230630, 
                            "v": 116, 
                            "dur": 1324, 
                            "type": "note", 
                            "channel": 8
                        }
                    ]
                ], 
                [
                    230634, 
                    [
                        {
                            "pitch": 50, 
                            "t0": 230634, 
                            "v": 104, 
                            "dur": 1324, 
                            "type": "note", 
                            "channel": 8
                        }
                    ]
                ], 
                [
                    230638, 
                    [
                        {
                            "pitch": 45, 
                            "t0": 230638, 
                            "v": 112, 
                            "dur": 1566, 
                            "type": "note", 
                            "channel": 8
                        }
                    ]
                ], 
                [
                    232046, 
                    [
                        {
                            "pitch": 48, 
                            "t0": 232046, 
                            "v": 104, 
                            "dur": 208, 
                            "type": "note", 
                            "channel": 8
                        }
                    ]
                ], 
                [
                    232054, 
                    [
                        {
                            "pitch": 52, 
                            "t0": 232054, 
                            "v": 116, 
                            "dur": 216, 
                            "type": "note", 
                            "channel": 8
                        }
                    ]
                ], 
                [
                    234546, 
                    [
                        {
                            "pitch": 48, 
                            "t0": 234546, 
                            "v": 112, 
                            "dur": 1374, 
                            "type": "note", 
                            "channel": 8
                        }
                    ]
                ], 
                [
                    234550, 
                    [
                        {
                            "pitch": 52, 
                            "t0": 234550, 
                            "v": 124, 
                            "dur": 1376, 
                            "type": "note", 
                            "channel": 8
                        }
                    ]
                ], 
                [
                    234554, 
                    [
                        {
                            "pitch": 45, 
                            "t0": 234554, 
                            "v": 112, 
                            "dur": 1600, 
                            "type": "note", 
                            "channel": 8
                        }
                    ]
                ], 
                [
                    235992, 
                    [
                        {
                            "pitch": 50, 
                            "t0": 235992, 
                            "v": 108, 
                            "dur": 216, 
                            "type": "note", 
                            "channel": 8
                        }
                    ]
                ], 
                [
                    236000, 
                    [
                        {
                            "pitch": 53, 
                            "t0": 236000, 
                            "v": 116, 
                            "dur": 212, 
                            "type": "note", 
                            "channel": 8
                        }
                    ]
                ], 
                [
                    238426, 
                    [
                        {
                            "pitch": 53, 
                            "t0": 238426, 
                            "v": 108, 
                            "dur": 1404, 
                            "type": "note", 
                            "channel": 8
                        }
                    ]
                ], 
                [
                    238430, 
                    [
                        {
                            "pitch": 50, 
                            "t0": 238430, 
                            "v": 108, 
                            "dur": 1420, 
                            "type": "note", 
                            "channel": 8
                        }, 
                        {
                            "pitch": 45, 
                            "t0": 238430, 
                            "v": 92, 
                            "dur": 1908, 
                            "type": "note", 
                            "channel": 8
                        }
                    ]
                ], 
                [
                    239950, 
                    [
                        {
                            "pitch": 48, 
                            "t0": 239950, 
                            "v": 108, 
                            "dur": 262, 
                            "type": "note", 
                            "channel": 8
                        }
                    ]
                ], 
                [
                    239958, 
                    [
                        {
                            "pitch": 52, 
                            "t0": 239958, 
                            "v": 120, 
                            "dur": 262, 
                            "type": "note", 
                            "channel": 8
                        }
                    ]
                ], 
                [
                    242508, 
                    [
                        {
                            "pitch": 48, 
                            "t0": 242508, 
                            "v": 112, 
                            "dur": 1380, 
                            "type": "note", 
                            "channel": 8
                        }
                    ]
                ], 
                [
                    242512, 
                    [
                        {
                            "pitch": 52, 
                            "t0": 242512, 
                            "v": 120, 
                            "dur": 1380, 
                            "type": "note", 
                            "channel": 8
                        }
                    ]
                ], 
                [
                    242516, 
                    [
                        {
                            "pitch": 45, 
                            "t0": 242516, 
                            "v": 108, 
                            "dur": 1642, 
                            "type": "note", 
                            "channel": 8
                        }
                    ]
                ], 
                [
                    243976, 
                    [
                        {
                            "pitch": 50, 
                            "t0": 243976, 
                            "v": 104, 
                            "dur": 220, 
                            "type": "note", 
                            "channel": 8
                        }
                    ]
                ], 
                [
                    243984, 
                    [
                        {
                            "pitch": 53, 
                            "t0": 243984, 
                            "v": 120, 
                            "dur": 212, 
                            "type": "note", 
                            "channel": 8
                        }
                    ]
                ], 
                [
                    246542, 
                    [
                        {
                            "pitch": 53, 
                            "t0": 246542, 
                            "v": 120, 
                            "dur": 1254, 
                            "type": "note", 
                            "channel": 8
                        }
                    ]
                ], 
                [
                    246546, 
                    [
                        {
                            "pitch": 50, 
                            "t0": 246546, 
                            "v": 100, 
                            "dur": 1254, 
                            "type": "note", 
                            "channel": 8
                        }
                    ]
                ], 
                [
                    246550, 
                    [
                        {
                            "pitch": 45, 
                            "t0": 246550, 
                            "v": 100, 
                            "dur": 1616, 
                            "type": "note", 
                            "channel": 8
                        }
                    ]
                ], 
                [
                    247892, 
                    [
                        {
                            "pitch": 48, 
                            "t0": 247892, 
                            "v": 92, 
                            "dur": 228, 
                            "type": "note", 
                            "channel": 8
                        }
                    ]
                ], 
                [
                    247900, 
                    [
                        {
                            "pitch": 52, 
                            "t0": 247900, 
                            "v": 108, 
                            "dur": 234, 
                            "type": "note", 
                            "channel": 8
                        }
                    ]
                ], 
                [
                    250576, 
                    [
                        {
                            "pitch": 48, 
                            "t0": 250576, 
                            "v": 104, 
                            "dur": 1308, 
                            "type": "note", 
                            "channel": 8
                        }
                    ]
                ], 
                [
                    250580, 
                    [
                        {
                            "pitch": 52, 
                            "t0": 250580, 
                            "v": 108, 
                            "dur": 1290, 
                            "type": "note", 
                            "channel": 8
                        }
                    ]
                ], 
                [
                    250584, 
                    [
                        {
                            "pitch": 45, 
                            "t0": 250584, 
                            "v": 104, 
                            "dur": 1758, 
                            "type": "note", 
                            "channel": 8
                        }
                    ]
                ], 
                [
                    251950, 
                    [
                        {
                            "pitch": 50, 
                            "t0": 251950, 
                            "v": 92, 
                            "dur": 254, 
                            "type": "note", 
                            "channel": 8
                        }
                    ]
                ], 
                [
                    251962, 
                    [
                        {
                            "pitch": 53, 
                            "t0": 251962, 
                            "v": 112, 
                            "dur": 218, 
                            "type": "note", 
                            "channel": 8
                        }
                    ]
                ], 
                [
                    254462, 
                    [
                        {
                            "pitch": 53, 
                            "t0": 254462, 
                            "v": 120, 
                            "dur": 1380, 
                            "type": "note", 
                            "channel": 8
                        }, 
                        {
                            "pitch": 50, 
                            "t0": 254462, 
                            "v": 116, 
                            "dur": 1388, 
                            "type": "note", 
                            "channel": 8
                        }
                    ]
                ], 
                [
                    254466, 
                    [
                        {
                            "pitch": 45, 
                            "t0": 254466, 
                            "v": 104, 
                            "dur": 1872, 
                            "type": "note", 
                            "channel": 8
                        }
                    ]
                ], 
                [
                    255958, 
                    [
                        {
                            "pitch": 48, 
                            "t0": 255958, 
                            "v": 100, 
                            "dur": 276, 
                            "type": "note", 
                            "channel": 8
                        }
                    ]
                ], 
                [
                    255970, 
                    [
                        {
                            "pitch": 52, 
                            "t0": 255970, 
                            "v": 108, 
                            "dur": 272, 
                            "type": "note", 
                            "channel": 8
                        }
                    ]
                ], 
                [
                    258512, 
                    [
                        {
                            "pitch": 48, 
                            "t0": 258512, 
                            "v": 112, 
                            "dur": 1404, 
                            "type": "note", 
                            "channel": 8
                        }
                    ]
                ], 
                [
                    258516, 
                    [
                        {
                            "pitch": 52, 
                            "t0": 258516, 
                            "v": 116, 
                            "dur": 1400, 
                            "type": "note", 
                            "channel": 8
                        }
                    ]
                ], 
                [
                    258520, 
                    [
                        {
                            "pitch": 45, 
                            "t0": 258520, 
                            "v": 108, 
                            "dur": 1850, 
                            "type": "note", 
                            "channel": 8
                        }
                    ]
                ], 
                [
                    260012, 
                    [
                        {
                            "pitch": 50, 
                            "t0": 260012, 
                            "v": 100, 
                            "dur": 218, 
                            "type": "note", 
                            "channel": 8
                        }
                    ]
                ], 
                [
                    260026, 
                    [
                        {
                            "pitch": 53, 
                            "t0": 260026, 
                            "v": 116, 
                            "dur": 208, 
                            "type": "note", 
                            "channel": 8
                        }
                    ]
                ], 
                [
                    262608, 
                    [
                        {
                            "pitch": 53, 
                            "t0": 262608, 
                            "v": 116, 
                            "dur": 1330, 
                            "type": "note", 
                            "channel": 8
                        }, 
                        {
                            "pitch": 50, 
                            "t0": 262608, 
                            "v": 112, 
                            "dur": 1346, 
                            "type": "note", 
                            "channel": 8
                        }
                    ]
                ], 
                [
                    262612, 
                    [
                        {
                            "pitch": 45, 
                            "t0": 262612, 
                            "v": 108, 
                            "dur": 1814, 
                            "type": "note", 
                            "channel": 8
                        }
                    ]
                ], 
                [
                    264034, 
                    [
                        {
                            "pitch": 48, 
                            "t0": 264034, 
                            "v": 96, 
                            "dur": 304, 
                            "type": "note", 
                            "channel": 8
                        }
                    ]
                ], 
                [
                    264042, 
                    [
                        {
                            "pitch": 52, 
                            "t0": 264042, 
                            "v": 108, 
                            "dur": 258, 
                            "type": "note", 
                            "channel": 8
                        }
                    ]
                ], 
                [
                    266566, 
                    [
                        {
                            "pitch": 48, 
                            "t0": 266566, 
                            "v": 116, 
                            "dur": 1300, 
                            "type": "note", 
                            "channel": 8
                        }
                    ]
                ], 
                [
                    266576, 
                    [
                        {
                            "pitch": 52, 
                            "t0": 266576, 
                            "v": 116, 
                            "dur": 1282, 
                            "type": "note", 
                            "channel": 8
                        }
                    ]
                ], 
                [
                    266580, 
                    [
                        {
                            "pitch": 45, 
                            "t0": 266580, 
                            "v": 108, 
                            "dur": 1870, 
                            "type": "note", 
                            "channel": 8
                        }
                    ]
                ], 
                [
                    267958, 
                    [
                        {
                            "pitch": 50, 
                            "t0": 267958, 
                            "v": 100, 
                            "dur": 262, 
                            "type": "note", 
                            "channel": 8
                        }
                    ]
                ], 
                [
                    267976, 
                    [
                        {
                            "pitch": 53, 
                            "t0": 267976, 
                            "v": 116, 
                            "dur": 240, 
                            "type": "note", 
                            "channel": 8
                        }
                    ]
                ], 
                [
                    270512, 
                    [
                        {
                            "pitch": 53, 
                            "t0": 270512, 
                            "v": 112, 
                            "dur": 1388, 
                            "type": "note", 
                            "channel": 8
                        }
                    ]
                ], 
                [
                    270516, 
                    [
                        {
                            "pitch": 50, 
                            "t0": 270516, 
                            "v": 96, 
                            "dur": 1396, 
                            "type": "note", 
                            "channel": 8
                        }
                    ]
                ], 
                [
                    270520, 
                    [
                        {
                            "pitch": 45, 
                            "t0": 270520, 
                            "v": 104, 
                            "dur": 1926, 
                            "type": "note", 
                            "channel": 8
                        }
                    ]
                ], 
                [
                    270530, 
                    [
                        {
                            "pitch": 48, 
                            "t0": 270530, 
                            "v": 104, 
                            "dur": 150, 
                            "type": "note", 
                            "channel": 8
                        }
                    ]
                ], 
                [
                    270550, 
                    [
                        {
                            "pitch": 52, 
                            "t0": 270550, 
                            "v": 54, 
                            "dur": 134, 
                            "type": "note", 
                            "channel": 8
                        }
                    ]
                ], 
                [
                    272038, 
                    [
                        {
                            "pitch": 48, 
                            "t0": 272038, 
                            "v": 112, 
                            "dur": 304, 
                            "type": "note", 
                            "channel": 8
                        }
                    ]
                ], 
                [
                    272042, 
                    [
                        {
                            "pitch": 52, 
                            "t0": 272042, 
                            "v": 116, 
                            "dur": 278, 
                            "type": "note", 
                            "channel": 8
                        }
                    ]
                ], 
                [
                    274484, 
                    [
                        {
                            "pitch": 52, 
                            "t0": 274484, 
                            "v": 120, 
                            "dur": 1424, 
                            "type": "note", 
                            "channel": 8
                        }
                    ]
                ], 
                [
                    274488, 
                    [
                        {
                            "pitch": 48, 
                            "t0": 274488, 
                            "v": 104, 
                            "dur": 1432, 
                            "type": "note", 
                            "channel": 8
                        }
                    ]
                ], 
                [
                    274496, 
                    [
                        {
                            "pitch": 45, 
                            "t0": 274496, 
                            "v": 108, 
                            "dur": 1850, 
                            "type": "note", 
                            "channel": 8
                        }
                    ]
                ], 
                [
                    276030, 
                    [
                        {
                            "pitch": 50, 
                            "t0": 276030, 
                            "v": 112, 
                            "dur": 250, 
                            "type": "note", 
                            "channel": 8
                        }
                    ]
                ], 
                [
                    276034, 
                    [
                        {
                            "pitch": 53, 
                            "t0": 276034, 
                            "v": 124, 
                            "dur": 224, 
                            "type": "note", 
                            "channel": 8
                        }
                    ]
                ], 
                [
                    278484, 
                    [
                        {
                            "pitch": 53, 
                            "t0": 278484, 
                            "v": 112, 
                            "dur": 1354, 
                            "type": "note", 
                            "channel": 8
                        }, 
                        {
                            "pitch": 50, 
                            "t0": 278484, 
                            "v": 104, 
                            "dur": 1366, 
                            "type": "note", 
                            "channel": 8
                        }
                    ]
                ], 
                [
                    278488, 
                    [
                        {
                            "pitch": 45, 
                            "t0": 278488, 
                            "v": 96, 
                            "dur": 1796, 
                            "type": "note", 
                            "channel": 8
                        }
                    ]
                ], 
                [
                    279946, 
                    [
                        {
                            "pitch": 48, 
                            "t0": 279946, 
                            "v": 108, 
                            "dur": 258, 
                            "type": "note", 
                            "channel": 8
                        }
                    ]
                ], 
                [
                    279958, 
                    [
                        {
                            "pitch": 52, 
                            "t0": 279958, 
                            "v": 120, 
                            "dur": 242, 
                            "type": "note", 
                            "channel": 8
                        }
                    ]
                ], 
                [
                    282504, 
                    [
                        {
                            "pitch": 52, 
                            "t0": 282504, 
                            "v": 120, 
                            "dur": 1416, 
                            "type": "note", 
                            "channel": 8
                        }, 
                        {
                            "pitch": 48, 
                            "t0": 282504, 
                            "v": 104, 
                            "dur": 1434, 
                            "type": "note", 
                            "channel": 8
                        }
                    ]
                ], 
                [
                    282508, 
                    [
                        {
                            "pitch": 45, 
                            "t0": 282508, 
                            "v": 108, 
                            "dur": 1818, 
                            "type": "note", 
                            "channel": 8
                        }
                    ]
                ], 
                [
                    284030, 
                    [
                        {
                            "pitch": 50, 
                            "t0": 284030, 
                            "v": 108, 
                            "dur": 208, 
                            "type": "note", 
                            "channel": 8
                        }
                    ]
                ], 
                [
                    284038, 
                    [
                        {
                            "pitch": 53, 
                            "t0": 284038, 
                            "v": 120, 
                            "dur": 216, 
                            "type": "note", 
                            "channel": 8
                        }
                    ]
                ], 
                [
                    286500, 
                    [
                        {
                            "pitch": 53, 
                            "t0": 286500, 
                            "v": 120, 
                            "dur": 1384, 
                            "type": "note", 
                            "channel": 8
                        }, 
                        {
                            "pitch": 50, 
                            "t0": 286500, 
                            "v": 120, 
                            "dur": 1404, 
                            "type": "note", 
                            "channel": 8
                        }
                    ]
                ], 
                [
                    286504, 
                    [
                        {
                            "pitch": 45, 
                            "t0": 286504, 
                            "v": 112, 
                            "dur": 1872, 
                            "type": "note", 
                            "channel": 8
                        }
                    ]
                ], 
                [
                    287992, 
                    [
                        {
                            "pitch": 48, 
                            "t0": 287992, 
                            "v": 104, 
                            "dur": 320, 
                            "type": "note", 
                            "channel": 8
                        }
                    ]
                ], 
                [
                    288000, 
                    [
                        {
                            "pitch": 52, 
                            "t0": 288000, 
                            "v": 120, 
                            "dur": 280, 
                            "type": "note", 
                            "channel": 8
                        }
                    ]
                ], 
                [
                    290476, 
                    [
                        {
                            "pitch": 52, 
                            "t0": 290476, 
                            "v": 116, 
                            "dur": 1462, 
                            "type": "note", 
                            "channel": 8
                        }
                    ]
                ], 
                [
                    290480, 
                    [
                        {
                            "pitch": 48, 
                            "t0": 290480, 
                            "v": 100, 
                            "dur": 1474, 
                            "type": "note", 
                            "channel": 8
                        }, 
                        {
                            "pitch": 45, 
                            "t0": 290480, 
                            "v": 104, 
                            "dur": 1846, 
                            "type": "note", 
                            "channel": 8
                        }
                    ]
                ], 
                [
                    292038, 
                    [
                        {
                            "pitch": 50, 
                            "t0": 292038, 
                            "v": 108, 
                            "dur": 216, 
                            "type": "note", 
                            "channel": 8
                        }
                    ]
                ], 
                [
                    292046, 
                    [
                        {
                            "pitch": 53, 
                            "t0": 292046, 
                            "v": 120, 
                            "dur": 196, 
                            "type": "note", 
                            "channel": 8
                        }
                    ]
                ], 
                [
                    294408, 
                    [
                        {
                            "pitch": 50, 
                            "t0": 294408, 
                            "v": 112, 
                            "dur": 1438, 
                            "type": "note", 
                            "channel": 8
                        }
                    ]
                ], 
                [
                    294412, 
                    [
                        {
                            "pitch": 45, 
                            "t0": 294412, 
                            "v": 104, 
                            "dur": 1838, 
                            "type": "note", 
                            "channel": 8
                        }
                    ]
                ], 
                [
                    294416, 
                    [
                        {
                            "pitch": 53, 
                            "t0": 294416, 
                            "v": 120, 
                            "dur": 1410, 
                            "type": "note", 
                            "channel": 8
                        }
                    ]
                ], 
                [
                    295930, 
                    [
                        {
                            "pitch": 48, 
                            "t0": 295930, 
                            "v": 100, 
                            "dur": 258, 
                            "type": "note", 
                            "channel": 8
                        }
                    ]
                ], 
                [
                    295934, 
                    [
                        {
                            "pitch": 52, 
                            "t0": 295934, 
                            "v": 116, 
                            "dur": 258, 
                            "type": "note", 
                            "channel": 8
                        }
                    ]
                ], 
                [
                    298154, 
                    [
                        {
                            "pitch": 48, 
                            "t0": 298154, 
                            "v": 108, 
                            "dur": 1722, 
                            "type": "note", 
                            "channel": 8
                        }
                    ]
                ], 
                [
                    298158, 
                    [
                        {
                            "pitch": 52, 
                            "t0": 298158, 
                            "v": 120, 
                            "dur": 1688, 
                            "type": "note", 
                            "channel": 8
                        }
                    ]
                ], 
                [
                    298162, 
                    [
                        {
                            "pitch": 45, 
                            "t0": 298162, 
                            "v": 104, 
                            "dur": 2038, 
                            "type": "note", 
                            "channel": 8
                        }
                    ]
                ], 
                [
                    298170, 
                    [
                        {
                            "pitch": 53, 
                            "t0": 298170, 
                            "v": 112, 
                            "dur": 56, 
                            "type": "note", 
                            "channel": 8
                        }
                    ]
                ], 
                [
                    300020, 
                    [
                        {
                            "pitch": 50, 
                            "t0": 300020, 
                            "v": 108, 
                            "dur": 196, 
                            "type": "note", 
                            "channel": 8
                        }, 
                        {
                            "pitch": 53, 
                            "t0": 300020, 
                            "v": 116, 
                            "dur": 210, 
                            "type": "note", 
                            "channel": 8
                        }
                    ]
                ], 
                [
                    302484, 
                    [
                        {
                            "pitch": 53, 
                            "t0": 302484, 
                            "v": 120, 
                            "dur": 1336, 
                            "type": "note", 
                            "channel": 8
                        }
                    ]
                ], 
                [
                    302488, 
                    [
                        {
                            "pitch": 50, 
                            "t0": 302488, 
                            "v": 108, 
                            "dur": 1358, 
                            "type": "note", 
                            "channel": 8
                        }
                    ]
                ], 
                [
                    302496, 
                    [
                        {
                            "pitch": 45, 
                            "t0": 302496, 
                            "v": 92, 
                            "dur": 1834, 
                            "type": "note", 
                            "channel": 8
                        }
                    ]
                ], 
                [
                    303946, 
                    [
                        {
                            "pitch": 48, 
                            "t0": 303946, 
                            "v": 104, 
                            "dur": 250, 
                            "type": "note", 
                            "channel": 8
                        }
                    ]
                ], 
                [
                    303950, 
                    [
                        {
                            "pitch": 52, 
                            "t0": 303950, 
                            "v": 116, 
                            "dur": 246, 
                            "type": "note", 
                            "channel": 8
                        }
                    ]
                ], 
                [
                    306500, 
                    [
                        {
                            "pitch": 52, 
                            "t0": 306500, 
                            "v": 124, 
                            "dur": 1420, 
                            "type": "note", 
                            "channel": 8
                        }, 
                        {
                            "pitch": 48, 
                            "t0": 306500, 
                            "v": 116, 
                            "dur": 1434, 
                            "type": "note", 
                            "channel": 8
                        }, 
                        {
                            "pitch": 45, 
                            "t0": 306500, 
                            "v": 108, 
                            "dur": 1912, 
                            "type": "note", 
                            "channel": 8
                        }
                    ]
                ], 
                [
                    308008, 
                    [
                        {
                            "pitch": 50, 
                            "t0": 308008, 
                            "v": 100, 
                            "dur": 262, 
                            "type": "note", 
                            "channel": 8
                        }
                    ]
                ], 
                [
                    308020, 
                    [
                        {
                            "pitch": 53, 
                            "t0": 308020, 
                            "v": 112, 
                            "dur": 222, 
                            "type": "note", 
                            "channel": 8
                        }
                    ]
                ], 
                [
                    310538, 
                    [
                        {
                            "pitch": 50, 
                            "t0": 310538, 
                            "v": 104, 
                            "dur": 1492, 
                            "type": "note", 
                            "channel": 8
                        }
                    ]
                ], 
                [
                    310542, 
                    [
                        {
                            "pitch": 53, 
                            "t0": 310542, 
                            "v": 116, 
                            "dur": 1466, 
                            "type": "note", 
                            "channel": 8
                        }
                    ]
                ], 
                [
                    310554, 
                    [
                        {
                            "pitch": 45, 
                            "t0": 310554, 
                            "v": 92, 
                            "dur": 2000, 
                            "type": "note", 
                            "channel": 8
                        }
                    ]
                ], 
                [
                    312130, 
                    [
                        {
                            "pitch": 48, 
                            "t0": 312130, 
                            "v": 116, 
                            "dur": 246, 
                            "type": "note", 
                            "channel": 8
                        }
                    ]
                ], 
                [
                    312142, 
                    [
                        {
                            "pitch": 52, 
                            "t0": 312142, 
                            "v": 124, 
                            "dur": 246, 
                            "type": "note", 
                            "channel": 8
                        }
                    ]
                ], 
                [
                    314558, 
                    [
                        {
                            "pitch": 48, 
                            "t0": 314558, 
                            "v": 108, 
                            "dur": 1388, 
                            "type": "note", 
                            "channel": 8
                        }
                    ]
                ], 
                [
                    314562, 
                    [
                        {
                            "pitch": 52, 
                            "t0": 314562, 
                            "v": 120, 
                            "dur": 1372, 
                            "type": "note", 
                            "channel": 8
                        }
                    ]
                ], 
                [
                    314576, 
                    [
                        {
                            "pitch": 45, 
                            "t0": 314576, 
                            "v": 96, 
                            "dur": 1858, 
                            "type": "note", 
                            "channel": 8
                        }
                    ]
                ], 
                [
                    316034, 
                    [
                        {
                            "pitch": 50, 
                            "t0": 316034, 
                            "v": 104, 
                            "dur": 254, 
                            "type": "note", 
                            "channel": 8
                        }
                    ]
                ], 
                [
                    316042, 
                    [
                        {
                            "pitch": 53, 
                            "t0": 316042, 
                            "v": 120, 
                            "dur": 234, 
                            "type": "note", 
                            "channel": 8
                        }
                    ]
                ], 
                [
                    318542, 
                    [
                        {
                            "pitch": 53, 
                            "t0": 318542, 
                            "v": 116, 
                            "dur": 1316, 
                            "type": "note", 
                            "channel": 8
                        }
                    ]
                ], 
                [
                    318546, 
                    [
                        {
                            "pitch": 50, 
                            "t0": 318546, 
                            "v": 108, 
                            "dur": 1324, 
                            "type": "note", 
                            "channel": 8
                        }
                    ]
                ], 
                [
                    318558, 
                    [
                        {
                            "pitch": 45, 
                            "t0": 318558, 
                            "v": 100, 
                            "dur": 1838, 
                            "type": "note", 
                            "channel": 8
                        }
                    ]
                ], 
                [
                    319966, 
                    [
                        {
                            "pitch": 48, 
                            "t0": 319966, 
                            "v": 112, 
                            "dur": 354, 
                            "type": "note", 
                            "channel": 8
                        }
                    ]
                ], 
                [
                    319976, 
                    [
                        {
                            "pitch": 52, 
                            "t0": 319976, 
                            "v": 124, 
                            "dur": 320, 
                            "type": "note", 
                            "channel": 8
                        }
                    ]
                ], 
                [
                    322530, 
                    [
                        {
                            "pitch": 52, 
                            "t0": 322530, 
                            "v": 108, 
                            "dur": 1396, 
                            "type": "note", 
                            "channel": 8
                        }, 
                        {
                            "pitch": 48, 
                            "t0": 322530, 
                            "v": 100, 
                            "dur": 1404, 
                            "type": "note", 
                            "channel": 8
                        }
                    ]
                ], 
                [
                    322534, 
                    [
                        {
                            "pitch": 45, 
                            "t0": 322534, 
                            "v": 104, 
                            "dur": 1774, 
                            "type": "note", 
                            "channel": 8
                        }
                    ]
                ], 
                [
                    322538, 
                    [
                        {
                            "pitch": 50, 
                            "t0": 322538, 
                            "v": 104, 
                            "dur": 320, 
                            "type": "note", 
                            "channel": 8
                        }
                    ]
                ], 
                [
                    324042, 
                    [
                        {
                            "pitch": 50, 
                            "t0": 324042, 
                            "v": 112, 
                            "dur": 192, 
                            "type": "note", 
                            "channel": 8
                        }
                    ]
                ], 
                [
                    324046, 
                    [
                        {
                            "pitch": 53, 
                            "t0": 324046, 
                            "v": 116, 
                            "dur": 196, 
                            "type": "note", 
                            "channel": 8
                        }
                    ]
                ], 
                [
                    326504, 
                    [
                        {
                            "pitch": 53, 
                            "t0": 326504, 
                            "v": 124, 
                            "dur": 1354, 
                            "type": "note", 
                            "channel": 8
                        }, 
                        {
                            "pitch": 50, 
                            "t0": 326504, 
                            "v": 112, 
                            "dur": 1372, 
                            "type": "note", 
                            "channel": 8
                        }
                    ]
                ], 
                [
                    326508, 
                    [
                        {
                            "pitch": 45, 
                            "t0": 326508, 
                            "v": 108, 
                            "dur": 1780, 
                            "type": "note", 
                            "channel": 8
                        }
                    ]
                ], 
                [
                    327976, 
                    [
                        {
                            "pitch": 48, 
                            "t0": 327976, 
                            "v": 100, 
                            "dur": 232, 
                            "type": "note", 
                            "channel": 8
                        }
                    ]
                ], 
                [
                    327984, 
                    [
                        {
                            "pitch": 52, 
                            "t0": 327984, 
                            "v": 124, 
                            "dur": 236, 
                            "type": "note", 
                            "channel": 8
                        }
                    ]
                ], 
                [
                    330516, 
                    [
                        {
                            "pitch": 48, 
                            "t0": 330516, 
                            "v": 116, 
                            "dur": 1410, 
                            "type": "note", 
                            "channel": 8
                        }
                    ]
                ], 
                [
                    330520, 
                    [
                        {
                            "pitch": 52, 
                            "t0": 330520, 
                            "v": 116, 
                            "dur": 1388, 
                            "type": "note", 
                            "channel": 8
                        }
                    ]
                ], 
                [
                    330526, 
                    [
                        {
                            "pitch": 45, 
                            "t0": 330526, 
                            "v": 112, 
                            "dur": 2008, 
                            "type": "note", 
                            "channel": 8
                        }
                    ]
                ], 
                [
                    332000, 
                    [
                        {
                            "pitch": 50, 
                            "t0": 332000, 
                            "v": 100, 
                            "dur": 270, 
                            "type": "note", 
                            "channel": 8
                        }
                    ]
                ], 
                [
                    332008, 
                    [
                        {
                            "pitch": 53, 
                            "t0": 332008, 
                            "v": 120, 
                            "dur": 242, 
                            "type": "note", 
                            "channel": 8
                        }
                    ]
                ], 
                [
                    334508, 
                    [
                        {
                            "pitch": 53, 
                            "t0": 334508, 
                            "v": 116, 
                            "dur": 1412, 
                            "type": "note", 
                            "channel": 8
                        }, 
                        {
                            "pitch": 50, 
                            "t0": 334508, 
                            "v": 108, 
                            "dur": 1426, 
                            "type": "note", 
                            "channel": 8
                        }
                    ]
                ], 
                [
                    334516, 
                    [
                        {
                            "pitch": 45, 
                            "t0": 334516, 
                            "v": 96, 
                            "dur": 2142, 
                            "type": "note", 
                            "channel": 8
                        }
                    ]
                ], 
                [
                    336030, 
                    [
                        {
                            "pitch": 48, 
                            "t0": 336030, 
                            "v": 104, 
                            "dur": 254, 
                            "type": "note", 
                            "channel": 8
                        }
                    ]
                ], 
                [
                    336034, 
                    [
                        {
                            "pitch": 52, 
                            "t0": 336034, 
                            "v": 112, 
                            "dur": 266, 
                            "type": "note", 
                            "channel": 8
                        }
                    ]
                ], 
                [
                    337120, 
                    [
                        {
                            "pitch": 52, 
                            "t0": 337120, 
                            "v": 100, 
                            "dur": 214, 
                            "type": "note", 
                            "channel": 8
                        }
                    ]
                ], 
                [
                    337126, 
                    [
                        {
                            "pitch": 48, 
                            "t0": 337126, 
                            "v": 92, 
                            "dur": 174, 
                            "type": "note", 
                            "channel": 8
                        }, 
                        {
                            "pitch": 45, 
                            "t0": 337126, 
                            "v": 88, 
                            "dur": 204, 
                            "type": "note", 
                            "channel": 8
                        }
                    ]
                ], 
                [
                    338612, 
                    [
                        {
                            "pitch": 48, 
                            "t0": 338612, 
                            "v": 120, 
                            "dur": 1346, 
                            "type": "note", 
                            "channel": 8
                        }
                    ]
                ], 
                [
                    338616, 
                    [
                        {
                            "pitch": 52, 
                            "t0": 338616, 
                            "v": 108, 
                            "dur": 1334, 
                            "type": "note", 
                            "channel": 8
                        }
                    ]
                ], 
                [
                    338620, 
                    [
                        {
                            "pitch": 45, 
                            "t0": 338620, 
                            "v": 112, 
                            "dur": 1614, 
                            "type": "note", 
                            "channel": 8
                        }
                    ]
                ], 
                [
                    340020, 
                    [
                        {
                            "pitch": 50, 
                            "t0": 340020, 
                            "v": 108, 
                            "dur": 218, 
                            "type": "note", 
                            "channel": 8
                        }
                    ]
                ], 
                [
                    340038, 
                    [
                        {
                            "pitch": 53, 
                            "t0": 340038, 
                            "v": 112, 
                            "dur": 212, 
                            "type": "note", 
                            "channel": 8
                        }
                    ]
                ], 
                [
                    340066, 
                    [
                        {
                            "pitch": 52, 
                            "t0": 340066, 
                            "v": 76, 
                            "dur": 76, 
                            "type": "note", 
                            "channel": 8
                        }
                    ]
                ], 
                [
                    341042, 
                    [
                        {
                            "pitch": 50, 
                            "t0": 341042, 
                            "v": 100, 
                            "dur": 258, 
                            "type": "note", 
                            "channel": 8
                        }, 
                        {
                            "pitch": 53, 
                            "t0": 341042, 
                            "v": 108, 
                            "dur": 266, 
                            "type": "note", 
                            "channel": 8
                        }
                    ]
                ], 
                [
                    341046, 
                    [
                        {
                            "pitch": 45, 
                            "t0": 341046, 
                            "v": 76, 
                            "dur": 308, 
                            "type": "note", 
                            "channel": 8
                        }
                    ]
                ], 
                [
                    342588, 
                    [
                        {
                            "pitch": 45, 
                            "t0": 342588, 
                            "v": 84, 
                            "dur": 1616, 
                            "type": "note", 
                            "channel": 8
                        }
                    ]
                ], 
                [
                    342592, 
                    [
                        {
                            "pitch": 48, 
                            "t0": 342592, 
                            "v": 108, 
                            "dur": 1296, 
                            "type": "note", 
                            "channel": 8
                        }
                    ]
                ], 
                [
                    342596, 
                    [
                        {
                            "pitch": 52, 
                            "t0": 342596, 
                            "v": 124, 
                            "dur": 1284, 
                            "type": "note", 
                            "channel": 8
                        }
                    ]
                ], 
                [
                    343984, 
                    [
                        {
                            "pitch": 50, 
                            "t0": 343984, 
                            "v": 104, 
                            "dur": 178, 
                            "type": "note", 
                            "channel": 8
                        }
                    ]
                ], 
                [
                    343988, 
                    [
                        {
                            "pitch": 53, 
                            "t0": 343988, 
                            "v": 112, 
                            "dur": 158, 
                            "type": "note", 
                            "channel": 8
                        }
                    ]
                ], 
                [
                    346462, 
                    [
                        {
                            "pitch": 48, 
                            "t0": 346462, 
                            "v": 116, 
                            "dur": 1368, 
                            "type": "note", 
                            "channel": 8
                        }
                    ]
                ], 
                [
                    346466, 
                    [
                        {
                            "pitch": 52, 
                            "t0": 346466, 
                            "v": 108, 
                            "dur": 1350, 
                            "type": "note", 
                            "channel": 8
                        }, 
                        {
                            "pitch": 45, 
                            "t0": 346466, 
                            "v": 108, 
                            "dur": 1742, 
                            "type": "note", 
                            "channel": 8
                        }
                    ]
                ], 
                [
                    347900, 
                    [
                        {
                            "pitch": 50, 
                            "t0": 347900, 
                            "v": 88, 
                            "dur": 208, 
                            "type": "note", 
                            "channel": 8
                        }
                    ]
                ], 
                [
                    347904, 
                    [
                        {
                            "pitch": 53, 
                            "t0": 347904, 
                            "v": 116, 
                            "dur": 212, 
                            "type": "note", 
                            "channel": 8
                        }
                    ]
                ], 
                [
                    347908, 
                    [
                        {
                            "pitch": 48, 
                            "t0": 347908, 
                            "v": 92, 
                            "dur": 122, 
                            "type": "note", 
                            "channel": 8
                        }
                    ]
                ], 
                [
                    349004, 
                    [
                        {
                            "pitch": 50, 
                            "t0": 349004, 
                            "v": 108, 
                            "dur": 234, 
                            "type": "note", 
                            "channel": 8
                        }, 
                        {
                            "pitch": 53, 
                            "t0": 349004, 
                            "v": 116, 
                            "dur": 246, 
                            "type": "note", 
                            "channel": 8
                        }
                    ]
                ], 
                [
                    349008, 
                    [
                        {
                            "pitch": 45, 
                            "t0": 349008, 
                            "v": 108, 
                            "dur": 250, 
                            "type": "note", 
                            "channel": 8
                        }
                    ]
                ], 
                [
                    349026, 
                    [
                        {
                            "pitch": 52, 
                            "t0": 349026, 
                            "v": 88, 
                            "dur": 74, 
                            "type": "note", 
                            "channel": 8
                        }
                    ]
                ], 
                [
                    350526, 
                    [
                        {
                            "pitch": 52, 
                            "t0": 350526, 
                            "v": 120, 
                            "dur": 1266, 
                            "type": "note", 
                            "channel": 8
                        }, 
                        {
                            "pitch": 48, 
                            "t0": 350526, 
                            "v": 108, 
                            "dur": 1270, 
                            "type": "note", 
                            "channel": 8
                        }
                    ]
                ], 
                [
                    350530, 
                    [
                        {
                            "pitch": 45, 
                            "t0": 350530, 
                            "v": 112, 
                            "dur": 1674, 
                            "type": "note", 
                            "channel": 8
                        }
                    ]
                ], 
                [
                    351884, 
                    [
                        {
                            "pitch": 50, 
                            "t0": 351884, 
                            "v": 104, 
                            "dur": 242, 
                            "type": "note", 
                            "channel": 8
                        }
                    ]
                ], 
                [
                    351888, 
                    [
                        {
                            "pitch": 53, 
                            "t0": 351888, 
                            "v": 116, 
                            "dur": 220, 
                            "type": "note", 
                            "channel": 8
                        }
                    ]
                ], 
                [
                    354480, 
                    [
                        {
                            "pitch": 48, 
                            "t0": 354480, 
                            "v": 116, 
                            "dur": 1354, 
                            "type": "note", 
                            "channel": 8
                        }
                    ]
                ], 
                [
                    354484, 
                    [
                        {
                            "pitch": 52, 
                            "t0": 354484, 
                            "v": 116, 
                            "dur": 1336, 
                            "type": "note", 
                            "channel": 8
                        }
                    ]
                ], 
                [
                    354488, 
                    [
                        {
                            "pitch": 45, 
                            "t0": 354488, 
                            "v": 108, 
                            "dur": 1716, 
                            "type": "note", 
                            "channel": 8
                        }
                    ]
                ], 
                [
                    355908, 
                    [
                        {
                            "pitch": 50, 
                            "t0": 355908, 
                            "v": 96, 
                            "dur": 230, 
                            "type": "note", 
                            "channel": 8
                        }
                    ]
                ], 
                [
                    355920, 
                    [
                        {
                            "pitch": 53, 
                            "t0": 355920, 
                            "v": 112, 
                            "dur": 210, 
                            "type": "note", 
                            "channel": 8
                        }
                    ]
                ], 
                [
                    356988, 
                    [
                        {
                            "pitch": 53, 
                            "t0": 356988, 
                            "v": 100, 
                            "dur": 274, 
                            "type": "note", 
                            "channel": 8
                        }, 
                        {
                            "pitch": 50, 
                            "t0": 356988, 
                            "v": 96, 
                            "dur": 288, 
                            "type": "note", 
                            "channel": 8
                        }
                    ]
                ], 
                [
                    356992, 
                    [
                        {
                            "pitch": 45, 
                            "t0": 356992, 
                            "v": 92, 
                            "dur": 354, 
                            "type": "note", 
                            "channel": 8
                        }
                    ]
                ], 
                [
                    358580, 
                    [
                        {
                            "pitch": 52, 
                            "t0": 358580, 
                            "v": 108, 
                            "dur": 1204, 
                            "type": "note", 
                            "channel": 8
                        }, 
                        {
                            "pitch": 48, 
                            "t0": 358580, 
                            "v": 112, 
                            "dur": 1228, 
                            "type": "note", 
                            "channel": 8
                        }
                    ]
                ], 
                [
                    358584, 
                    [
                        {
                            "pitch": 45, 
                            "t0": 358584, 
                            "v": 104, 
                            "dur": 1686, 
                            "type": "note", 
                            "channel": 8
                        }
                    ]
                ], 
                [
                    359966, 
                    [
                        {
                            "pitch": 50, 
                            "t0": 359966, 
                            "v": 100, 
                            "dur": 264, 
                            "type": "note", 
                            "channel": 8
                        }
                    ]
                ], 
                [
                    362462, 
                    [
                        {
                            "pitch": 48, 
                            "t0": 362462, 
                            "v": 112, 
                            "dur": 1414, 
                            "type": "note", 
                            "channel": 8
                        }, 
                        {
                            "pitch": 45, 
                            "t0": 362462, 
                            "v": 116, 
                            "dur": 1484, 
                            "type": "note", 
                            "channel": 8
                        }
                    ]
                ], 
                [
                    364004, 
                    [
                        {
                            "pitch": 50, 
                            "t0": 364004, 
                            "v": 104, 
                            "dur": 300, 
                            "type": "note", 
                            "channel": 8
                        }, 
                        {
                            "pitch": 45, 
                            "t0": 364004, 
                            "v": 80, 
                            "dur": 358, 
                            "type": "note", 
                            "channel": 8
                        }
                    ]
                ], 
                [
                    365012, 
                    [
                        {
                            "pitch": 50, 
                            "t0": 365012, 
                            "v": 116, 
                            "dur": 464, 
                            "type": "note", 
                            "channel": 8
                        }
                    ]
                ], 
                [
                    365016, 
                    [
                        {
                            "pitch": 45, 
                            "t0": 365016, 
                            "v": 112, 
                            "dur": 538, 
                            "type": "note", 
                            "channel": 8
                        }
                    ]
                ], 
                [
                    366500, 
                    [
                        {
                            "pitch": 48, 
                            "t0": 366500, 
                            "v": 112, 
                            "dur": 1342, 
                            "type": "note", 
                            "channel": 8
                        }
                    ]
                ], 
                [
                    366508, 
                    [
                        {
                            "pitch": 45, 
                            "t0": 366508, 
                            "v": 116, 
                            "dur": 1762, 
                            "type": "note", 
                            "channel": 8
                        }
                    ]
                ], 
                [
                    367950, 
                    [
                        {
                            "pitch": 50, 
                            "t0": 367950, 
                            "v": 112, 
                            "dur": 262, 
                            "type": "note", 
                            "channel": 8
                        }
                    ]
                ], 
                [
                    370504, 
                    [
                        {
                            "pitch": 48, 
                            "t0": 370504, 
                            "v": 108, 
                            "dur": 1366, 
                            "type": "note", 
                            "channel": 8
                        }
                    ]
                ], 
                [
                    370512, 
                    [
                        {
                            "pitch": 45, 
                            "t0": 370512, 
                            "v": 108, 
                            "dur": 1714, 
                            "type": "note", 
                            "channel": 8
                        }
                    ]
                ], 
                [
                    371980, 
                    [
                        {
                            "pitch": 50, 
                            "t0": 371980, 
                            "v": 112, 
                            "dur": 274, 
                            "type": "note", 
                            "channel": 8
                        }
                    ]
                ], 
                [
                    373050, 
                    [
                        {
                            "pitch": 50, 
                            "t0": 373050, 
                            "v": 96, 
                            "dur": 504, 
                            "type": "note", 
                            "channel": 8
                        }
                    ]
                ], 
                [
                    373054, 
                    [
                        {
                            "pitch": 45, 
                            "t0": 373054, 
                            "v": 100, 
                            "dur": 550, 
                            "type": "note", 
                            "channel": 8
                        }
                    ]
                ], 
                [
                    373076, 
                    [
                        {
                            "pitch": 47, 
                            "t0": 373076, 
                            "v": 96, 
                            "dur": 266, 
                            "type": "note", 
                            "channel": 8
                        }
                    ]
                ], 
                [
                    374530, 
                    [
                        {
                            "pitch": 48, 
                            "t0": 374530, 
                            "v": 112, 
                            "dur": 1320, 
                            "type": "note", 
                            "channel": 8
                        }
                    ]
                ], 
                [
                    374546, 
                    [
                        {
                            "pitch": 45, 
                            "t0": 374546, 
                            "v": 96, 
                            "dur": 1730, 
                            "type": "note", 
                            "channel": 8
                        }
                    ]
                ], 
                [
                    374550, 
                    [
                        {
                            "pitch": 43, 
                            "t0": 374550, 
                            "v": 104, 
                            "dur": 312, 
                            "type": "note", 
                            "channel": 8
                        }
                    ]
                ], 
                [
                    376016, 
                    [
                        {
                            "pitch": 50, 
                            "t0": 376016, 
                            "v": 112, 
                            "dur": 254, 
                            "type": "note", 
                            "channel": 8
                        }
                    ]
                ], 
                [
                    378512, 
                    [
                        {
                            "pitch": 48, 
                            "t0": 378512, 
                            "v": 116, 
                            "dur": 1388, 
                            "type": "note", 
                            "channel": 8
                        }
                    ]
                ], 
                [
                    378516, 
                    [
                        {
                            "pitch": 45, 
                            "t0": 378516, 
                            "v": 112, 
                            "dur": 1460, 
                            "type": "note", 
                            "channel": 8
                        }
                    ]
                ], 
                [
                    380012, 
                    [
                        {
                            "pitch": 45, 
                            "t0": 380012, 
                            "v": 80, 
                            "dur": 292, 
                            "type": "note", 
                            "channel": 8
                        }
                    ]
                ], 
                [
                    380016, 
                    [
                        {
                            "pitch": 50, 
                            "t0": 380016, 
                            "v": 108, 
                            "dur": 272, 
                            "type": "note", 
                            "channel": 8
                        }
                    ]
                ], 
                [
                    381046, 
                    [
                        {
                            "pitch": 50, 
                            "t0": 381046, 
                            "v": 112, 
                            "dur": 442, 
                            "type": "note", 
                            "channel": 8
                        }
                    ]
                ], 
                [
                    381054, 
                    [
                        {
                            "pitch": 45, 
                            "t0": 381054, 
                            "v": 108, 
                            "dur": 500, 
                            "type": "note", 
                            "channel": 8
                        }
                    ]
                ], 
                [
                    381080, 
                    [
                        {
                            "pitch": 47, 
                            "t0": 381080, 
                            "v": 100, 
                            "dur": 124, 
                            "type": "note", 
                            "channel": 8
                        }
                    ]
                ], 
                [
                    382530, 
                    [
                        {
                            "pitch": 48, 
                            "t0": 382530, 
                            "v": 108, 
                            "dur": 1336, 
                            "type": "note", 
                            "channel": 8
                        }
                    ]
                ], 
                [
                    382538, 
                    [
                        {
                            "pitch": 45, 
                            "t0": 382538, 
                            "v": 108, 
                            "dur": 1892, 
                            "type": "note", 
                            "channel": 8
                        }
                    ]
                ], 
                [
                    383984, 
                    [
                        {
                            "pitch": 50, 
                            "t0": 383984, 
                            "v": 116, 
                            "dur": 304, 
                            "type": "note", 
                            "channel": 8
                        }
                    ]
                ], 
                [
                    386458, 
                    [
                        {
                            "pitch": 48, 
                            "t0": 386458, 
                            "v": 100, 
                            "dur": 1292, 
                            "type": "note", 
                            "channel": 8
                        }
                    ]
                ], 
                [
                    386466, 
                    [
                        {
                            "pitch": 45, 
                            "t0": 386466, 
                            "v": 108, 
                            "dur": 1772, 
                            "type": "note", 
                            "channel": 8
                        }
                    ]
                ], 
                [
                    387900, 
                    [
                        {
                            "pitch": 50, 
                            "t0": 387900, 
                            "v": 108, 
                            "dur": 258, 
                            "type": "note", 
                            "channel": 8
                        }
                    ]
                ], 
                [
                    388996, 
                    [
                        {
                            "pitch": 50, 
                            "t0": 388996, 
                            "v": 108, 
                            "dur": 324, 
                            "type": "note", 
                            "channel": 8
                        }
                    ]
                ], 
                [
                    389004, 
                    [
                        {
                            "pitch": 45, 
                            "t0": 389004, 
                            "v": 108, 
                            "dur": 384, 
                            "type": "note", 
                            "channel": 8
                        }
                    ]
                ], 
                [
                    390516, 
                    [
                        {
                            "pitch": 48, 
                            "t0": 390516, 
                            "v": 104, 
                            "dur": 1364, 
                            "type": "note", 
                            "channel": 8
                        }
                    ]
                ], 
                [
                    390520, 
                    [
                        {
                            "pitch": 45, 
                            "t0": 390520, 
                            "v": 96, 
                            "dur": 1672, 
                            "type": "note", 
                            "channel": 8
                        }
                    ]
                ], 
                [
                    391988, 
                    [
                        {
                            "pitch": 50, 
                            "t0": 391988, 
                            "v": 104, 
                            "dur": 216, 
                            "type": "note", 
                            "channel": 8
                        }
                    ]
                ], 
                [
                    394492, 
                    [
                        {
                            "pitch": 48, 
                            "t0": 394492, 
                            "v": 112, 
                            "dur": 1378, 
                            "type": "note", 
                            "channel": 8
                        }
                    ]
                ], 
                [
                    394496, 
                    [
                        {
                            "pitch": 45, 
                            "t0": 394496, 
                            "v": 96, 
                            "dur": 1712, 
                            "type": "note", 
                            "channel": 8
                        }
                    ]
                ], 
                [
                    395988, 
                    [
                        {
                            "pitch": 50, 
                            "t0": 395988, 
                            "v": 108, 
                            "dur": 246, 
                            "type": "note", 
                            "channel": 8
                        }
                    ]
                ], 
                [
                    397000, 
                    [
                        {
                            "pitch": 50, 
                            "t0": 397000, 
                            "v": 108, 
                            "dur": 334, 
                            "type": "note", 
                            "channel": 8
                        }
                    ]
                ], 
                [
                    397004, 
                    [
                        {
                            "pitch": 45, 
                            "t0": 397004, 
                            "v": 104, 
                            "dur": 412, 
                            "type": "note", 
                            "channel": 8
                        }
                    ]
                ], 
                [
                    398484, 
                    [
                        {
                            "pitch": 45, 
                            "t0": 398484, 
                            "v": 100, 
                            "dur": 1666, 
                            "type": "note", 
                            "channel": 8
                        }
                    ]
                ], 
                [
                    398488, 
                    [
                        {
                            "pitch": 48, 
                            "t0": 398488, 
                            "v": 112, 
                            "dur": 1242, 
                            "type": "note", 
                            "channel": 8
                        }
                    ]
                ], 
                [
                    399900, 
                    [
                        {
                            "pitch": 50, 
                            "t0": 399900, 
                            "v": 108, 
                            "dur": 246, 
                            "type": "note", 
                            "channel": 8
                        }
                    ]
                ], 
                [
                    402504, 
                    [
                        {
                            "pitch": 48, 
                            "t0": 402504, 
                            "v": 112, 
                            "dur": 1376, 
                            "type": "note", 
                            "channel": 8
                        }
                    ]
                ], 
                [
                    402508, 
                    [
                        {
                            "pitch": 45, 
                            "t0": 402508, 
                            "v": 108, 
                            "dur": 1712, 
                            "type": "note", 
                            "channel": 8
                        }
                    ]
                ], 
                [
                    403992, 
                    [
                        {
                            "pitch": 50, 
                            "t0": 403992, 
                            "v": 108, 
                            "dur": 246, 
                            "type": "note", 
                            "channel": 8
                        }
                    ]
                ], 
                [
                    405004, 
                    [
                        {
                            "pitch": 50, 
                            "t0": 405004, 
                            "v": 112, 
                            "dur": 334, 
                            "type": "note", 
                            "channel": 8
                        }
                    ]
                ], 
                [
                    405012, 
                    [
                        {
                            "pitch": 45, 
                            "t0": 405012, 
                            "v": 108, 
                            "dur": 414, 
                            "type": "note", 
                            "channel": 8
                        }
                    ]
                ], 
                [
                    406520, 
                    [
                        {
                            "pitch": 48, 
                            "t0": 406520, 
                            "v": 108, 
                            "dur": 1338, 
                            "type": "note", 
                            "channel": 8
                        }
                    ]
                ], 
                [
                    406526, 
                    [
                        {
                            "pitch": 45, 
                            "t0": 406526, 
                            "v": 112, 
                            "dur": 1640, 
                            "type": "note", 
                            "channel": 8
                        }
                    ]
                ], 
                [
                    407970, 
                    [
                        {
                            "pitch": 50, 
                            "t0": 407970, 
                            "v": 112, 
                            "dur": 218, 
                            "type": "note", 
                            "channel": 8
                        }
                    ]
                ], 
                [
                    410480, 
                    [
                        {
                            "pitch": 48, 
                            "t0": 410480, 
                            "v": 108, 
                            "dur": 1436, 
                            "type": "note", 
                            "channel": 8
                        }
                    ]
                ], 
                [
                    410484, 
                    [
                        {
                            "pitch": 45, 
                            "t0": 410484, 
                            "v": 112, 
                            "dur": 1782, 
                            "type": "note", 
                            "channel": 8
                        }
                    ]
                ], 
                [
                    410500, 
                    [
                        {
                            "pitch": 47, 
                            "t0": 410500, 
                            "v": 112, 
                            "dur": 266, 
                            "type": "note", 
                            "channel": 8
                        }
                    ]
                ], 
                [
                    412050, 
                    [
                        {
                            "pitch": 50, 
                            "t0": 412050, 
                            "v": 108, 
                            "dur": 234, 
                            "type": "note", 
                            "channel": 8
                        }
                    ]
                ], 
                [
                    413054, 
                    [
                        {
                            "pitch": 50, 
                            "t0": 413054, 
                            "v": 112, 
                            "dur": 322, 
                            "type": "note", 
                            "channel": 8
                        }
                    ]
                ], 
                [
                    413058, 
                    [
                        {
                            "pitch": 45, 
                            "t0": 413058, 
                            "v": 108, 
                            "dur": 376, 
                            "type": "note", 
                            "channel": 8
                        }
                    ]
                ], 
                [
                    413080, 
                    [
                        {
                            "pitch": 48, 
                            "t0": 413080, 
                            "v": 96, 
                            "dur": 78, 
                            "type": "note", 
                            "channel": 8
                        }
                    ]
                ], 
                [
                    414580, 
                    [
                        {
                            "pitch": 48, 
                            "t0": 414580, 
                            "v": 116, 
                            "dur": 1316, 
                            "type": "note", 
                            "channel": 8
                        }
                    ]
                ], 
                [
                    414584, 
                    [
                        {
                            "pitch": 45, 
                            "t0": 414584, 
                            "v": 116, 
                            "dur": 1350, 
                            "type": "note", 
                            "channel": 8
                        }
                    ]
                ], 
                [
                    416004, 
                    [
                        {
                            "pitch": 45, 
                            "t0": 416004, 
                            "v": 100, 
                            "dur": 266, 
                            "type": "note", 
                            "channel": 8
                        }
                    ]
                ], 
                [
                    416008, 
                    [
                        {
                            "pitch": 50, 
                            "t0": 416008, 
                            "v": 108, 
                            "dur": 254, 
                            "type": "note", 
                            "channel": 8
                        }
                    ]
                ], 
                [
                    418542, 
                    [
                        {
                            "pitch": 48, 
                            "t0": 418542, 
                            "v": 112, 
                            "dur": 1388, 
                            "type": "note", 
                            "channel": 8
                        }
                    ]
                ], 
                [
                    418546, 
                    [
                        {
                            "pitch": 45, 
                            "t0": 418546, 
                            "v": 112, 
                            "dur": 1424, 
                            "type": "note", 
                            "channel": 8
                        }
                    ]
                ], 
                [
                    420038, 
                    [
                        {
                            "pitch": 45, 
                            "t0": 420038, 
                            "v": 88, 
                            "dur": 246, 
                            "type": "note", 
                            "channel": 8
                        }, 
                        {
                            "pitch": 50, 
                            "t0": 420038, 
                            "v": 116, 
                            "dur": 262, 
                            "type": "note", 
                            "channel": 8
                        }
                    ]
                ], 
                [
                    421050, 
                    [
                        {
                            "pitch": 50, 
                            "t0": 421050, 
                            "v": 112, 
                            "dur": 304, 
                            "type": "note", 
                            "channel": 8
                        }, 
                        {
                            "pitch": 45, 
                            "t0": 421050, 
                            "v": 108, 
                            "dur": 370, 
                            "type": "note", 
                            "channel": 8
                        }
                    ]
                ], 
                [
                    422566, 
                    [
                        {
                            "pitch": 48, 
                            "t0": 422566, 
                            "v": 104, 
                            "dur": 1304, 
                            "type": "note", 
                            "channel": 8
                        }
                    ]
                ], 
                [
                    422576, 
                    [
                        {
                            "pitch": 45, 
                            "t0": 422576, 
                            "v": 108, 
                            "dur": 1670, 
                            "type": "note", 
                            "channel": 8
                        }
                    ]
                ], 
                [
                    424000, 
                    [
                        {
                            "pitch": 50, 
                            "t0": 424000, 
                            "v": 112, 
                            "dur": 250, 
                            "type": "note", 
                            "channel": 8
                        }
                    ]
                ], 
                [
                    426520, 
                    [
                        {
                            "pitch": 48, 
                            "t0": 426520, 
                            "v": 112, 
                            "dur": 1450, 
                            "type": "note", 
                            "channel": 8
                        }, 
                        {
                            "pitch": 45, 
                            "t0": 426520, 
                            "v": 112, 
                            "dur": 1896, 
                            "type": "note", 
                            "channel": 8
                        }
                    ]
                ], 
                [
                    428076, 
                    [
                        {
                            "pitch": 50, 
                            "t0": 428076, 
                            "v": 104, 
                            "dur": 266, 
                            "type": "note", 
                            "channel": 8
                        }
                    ]
                ], 
                [
                    429108, 
                    [
                        {
                            "pitch": 50, 
                            "t0": 429108, 
                            "v": 84, 
                            "dur": 326, 
                            "type": "note", 
                            "channel": 8
                        }
                    ]
                ], 
                [
                    429116, 
                    [
                        {
                            "pitch": 45, 
                            "t0": 429116, 
                            "v": 88, 
                            "dur": 368, 
                            "type": "note", 
                            "channel": 8
                        }
                    ]
                ], 
                [
                    430500, 
                    [
                        {
                            "pitch": 48, 
                            "t0": 430500, 
                            "v": 108, 
                            "dur": 1396, 
                            "type": "note", 
                            "channel": 8
                        }
                    ]
                ], 
                [
                    430504, 
                    [
                        {
                            "pitch": 45, 
                            "t0": 430504, 
                            "v": 104, 
                            "dur": 1696, 
                            "type": "note", 
                            "channel": 8
                        }
                    ]
                ], 
                [
                    432000, 
                    [
                        {
                            "pitch": 50, 
                            "t0": 432000, 
                            "v": 112, 
                            "dur": 220, 
                            "type": "note", 
                            "channel": 8
                        }
                    ]
                ], 
                [
                    434512, 
                    [
                        {
                            "pitch": 48, 
                            "t0": 434512, 
                            "v": 96, 
                            "dur": 1358, 
                            "type": "note", 
                            "channel": 8
                        }
                    ]
                ], 
                [
                    434516, 
                    [
                        {
                            "pitch": 45, 
                            "t0": 434516, 
                            "v": 112, 
                            "dur": 2200, 
                            "type": "note", 
                            "channel": 8
                        }
                    ]
                ], 
                [
                    435988, 
                    [
                        {
                            "pitch": 50, 
                            "t0": 435988, 
                            "v": 112, 
                            "dur": 282, 
                            "type": "note", 
                            "channel": 8
                        }
                    ]
                ], 
                [
                    437046, 
                    [
                        {
                            "pitch": 50, 
                            "t0": 437046, 
                            "v": 104, 
                            "dur": 330, 
                            "type": "note", 
                            "channel": 8
                        }
                    ]
                ], 
                [
                    437050, 
                    [
                        {
                            "pitch": 45, 
                            "t0": 437050, 
                            "v": 96, 
                            "dur": 442, 
                            "type": "note", 
                            "channel": 8
                        }
                    ]
                ], 
                [
                    438542, 
                    [
                        {
                            "pitch": 48, 
                            "t0": 438542, 
                            "v": 108, 
                            "dur": 1342, 
                            "type": "note", 
                            "channel": 8
                        }
                    ]
                ], 
                [
                    438550, 
                    [
                        {
                            "pitch": 45, 
                            "t0": 438550, 
                            "v": 100, 
                            "dur": 1634, 
                            "type": "note", 
                            "channel": 8
                        }
                    ]
                ], 
                [
                    439984, 
                    [
                        {
                            "pitch": 50, 
                            "t0": 439984, 
                            "v": 108, 
                            "dur": 228, 
                            "type": "note", 
                            "channel": 8
                        }
                    ]
                ], 
                [
                    442500, 
                    [
                        {
                            "pitch": 48, 
                            "t0": 442500, 
                            "v": 104, 
                            "dur": 1362, 
                            "type": "note", 
                            "channel": 8
                        }
                    ]
                ], 
                [
                    442508, 
                    [
                        {
                            "pitch": 45, 
                            "t0": 442508, 
                            "v": 92, 
                            "dur": 1718, 
                            "type": "note", 
                            "channel": 8
                        }
                    ]
                ], 
                [
                    443988, 
                    [
                        {
                            "pitch": 50, 
                            "t0": 443988, 
                            "v": 108, 
                            "dur": 238, 
                            "type": "note", 
                            "channel": 8
                        }
                    ]
                ], 
                [
                    444992, 
                    [
                        {
                            "pitch": 50, 
                            "t0": 444992, 
                            "v": 112, 
                            "dur": 262, 
                            "type": "note", 
                            "channel": 8
                        }
                    ]
                ], 
                [
                    444996, 
                    [
                        {
                            "pitch": 45, 
                            "t0": 444996, 
                            "v": 108, 
                            "dur": 304, 
                            "type": "note", 
                            "channel": 8
                        }
                    ]
                ], 
                [
                    446442, 
                    [
                        {
                            "pitch": 48, 
                            "t0": 446442, 
                            "v": 104, 
                            "dur": 1420, 
                            "type": "note", 
                            "channel": 8
                        }
                    ]
                ], 
                [
                    446450, 
                    [
                        {
                            "pitch": 45, 
                            "t0": 446450, 
                            "v": 92, 
                            "dur": 1788, 
                            "type": "note", 
                            "channel": 8
                        }
                    ]
                ], 
                [
                    447970, 
                    [
                        {
                            "pitch": 50, 
                            "t0": 447970, 
                            "v": 112, 
                            "dur": 250, 
                            "type": "note", 
                            "channel": 8
                        }
                    ]
                ], 
                [
                    450416, 
                    [
                        {
                            "pitch": 48, 
                            "t0": 450416, 
                            "v": 100, 
                            "dur": 1334, 
                            "type": "note", 
                            "channel": 8
                        }
                    ]
                ], 
                [
                    450420, 
                    [
                        {
                            "pitch": 45, 
                            "t0": 450420, 
                            "v": 104, 
                            "dur": 1884, 
                            "type": "note", 
                            "channel": 8
                        }
                    ]
                ], 
                [
                    451908, 
                    [
                        {
                            "pitch": 50, 
                            "t0": 451908, 
                            "v": 104, 
                            "dur": 350, 
                            "type": "note", 
                            "channel": 8
                        }
                    ]
                ], 
                [
                    452962, 
                    [
                        {
                            "pitch": 50, 
                            "t0": 452962, 
                            "v": 108, 
                            "dur": 464, 
                            "type": "note", 
                            "channel": 8
                        }
                    ]
                ], 
                [
                    452970, 
                    [
                        {
                            "pitch": 45, 
                            "t0": 452970, 
                            "v": 84, 
                            "dur": 556, 
                            "type": "note", 
                            "channel": 8
                        }
                    ]
                ], 
                [
                    452996, 
                    [
                        {
                            "pitch": 43, 
                            "t0": 452996, 
                            "v": 60, 
                            "dur": 216, 
                            "type": "note", 
                            "channel": 8
                        }
                    ]
                ], 
                [
                    453000, 
                    [
                        {
                            "pitch": 48, 
                            "t0": 453000, 
                            "v": 58, 
                            "dur": 188, 
                            "type": "note", 
                            "channel": 8
                        }
                    ]
                ], 
                [
                    454488, 
                    [
                        {
                            "pitch": 48, 
                            "t0": 454488, 
                            "v": 100, 
                            "dur": 1404, 
                            "type": "note", 
                            "channel": 8
                        }
                    ]
                ], 
                [
                    454496, 
                    [
                        {
                            "pitch": 45, 
                            "t0": 454496, 
                            "v": 108, 
                            "dur": 1466, 
                            "type": "note", 
                            "channel": 8
                        }
                    ]
                ], 
                [
                    456030, 
                    [
                        {
                            "pitch": 50, 
                            "t0": 456030, 
                            "v": 108, 
                            "dur": 316, 
                            "type": "note", 
                            "channel": 8
                        }
                    ]
                ], 
                [
                    456034, 
                    [
                        {
                            "pitch": 45, 
                            "t0": 456034, 
                            "v": 92, 
                            "dur": 382, 
                            "type": "note", 
                            "channel": 8
                        }
                    ]
                ], 
                [
                    458504, 
                    [
                        {
                            "pitch": 45, 
                            "t0": 458504, 
                            "v": 104, 
                            "dur": 1450, 
                            "type": "note", 
                            "channel": 8
                        }
                    ]
                ], 
                [
                    458508, 
                    [
                        {
                            "pitch": 50, 
                            "t0": 458508, 
                            "v": 96, 
                            "dur": 384, 
                            "type": "note", 
                            "channel": 8
                        }, 
                        {
                            "pitch": 48, 
                            "t0": 458508, 
                            "v": 96, 
                            "dur": 1396, 
                            "type": "note", 
                            "channel": 8
                        }
                    ]
                ], 
                [
                    460016, 
                    [
                        {
                            "pitch": 45, 
                            "t0": 460016, 
                            "v": 92, 
                            "dur": 746, 
                            "type": "note", 
                            "channel": 8
                        }
                    ]
                ], 
                [
                    460026, 
                    [
                        {
                            "pitch": 50, 
                            "t0": 460026, 
                            "v": 116, 
                            "dur": 304, 
                            "type": "note", 
                            "channel": 8
                        }
                    ]
                ], 
                [
                    461080, 
                    [
                        {
                            "pitch": 50, 
                            "t0": 461080, 
                            "v": 108, 
                            "dur": 370, 
                            "type": "note", 
                            "channel": 8
                        }
                    ]
                ], 
                [
                    461092, 
                    [
                        {
                            "pitch": 45, 
                            "t0": 461092, 
                            "v": 108, 
                            "dur": 424, 
                            "type": "note", 
                            "channel": 8
                        }
                    ]
                ], 
                [
                    462508, 
                    [
                        {
                            "pitch": 48, 
                            "t0": 462508, 
                            "v": 108, 
                            "dur": 1396, 
                            "type": "note", 
                            "channel": 8
                        }
                    ]
                ], 
                [
                    462512, 
                    [
                        {
                            "pitch": 45, 
                            "t0": 462512, 
                            "v": 112, 
                            "dur": 1458, 
                            "type": "note", 
                            "channel": 8
                        }
                    ]
                ], 
                [
                    464020, 
                    [
                        {
                            "pitch": 45, 
                            "t0": 464020, 
                            "v": 80, 
                            "dur": 234, 
                            "type": "note", 
                            "channel": 8
                        }
                    ]
                ], 
                [
                    464030, 
                    [
                        {
                            "pitch": 50, 
                            "t0": 464030, 
                            "v": 116, 
                            "dur": 228, 
                            "type": "note", 
                            "channel": 8
                        }
                    ]
                ], 
                [
                    466488, 
                    [
                        {
                            "pitch": 45, 
                            "t0": 466488, 
                            "v": 104, 
                            "dur": 1416, 
                            "type": "note", 
                            "channel": 8
                        }
                    ]
                ], 
                [
                    466492, 
                    [
                        {
                            "pitch": 50, 
                            "t0": 466492, 
                            "v": 88, 
                            "dur": 374, 
                            "type": "note", 
                            "channel": 8
                        }
                    ]
                ], 
                [
                    466496, 
                    [
                        {
                            "pitch": 48, 
                            "t0": 466496, 
                            "v": 104, 
                            "dur": 1392, 
                            "type": "note", 
                            "channel": 8
                        }
                    ]
                ], 
                [
                    466504, 
                    [
                        {
                            "pitch": 47, 
                            "t0": 466504, 
                            "v": 100, 
                            "dur": 358, 
                            "type": "note", 
                            "channel": 8
                        }
                    ]
                ], 
                [
                    468012, 
                    [
                        {
                            "pitch": 45, 
                            "t0": 468012, 
                            "v": 88, 
                            "dur": 434, 
                            "type": "note", 
                            "channel": 8
                        }
                    ]
                ], 
                [
                    468020, 
                    [
                        {
                            "pitch": 50, 
                            "t0": 468020, 
                            "v": 112, 
                            "dur": 330, 
                            "type": "note", 
                            "channel": 8
                        }
                    ]
                ], 
                [
                    469026, 
                    [
                        {
                            "pitch": 50, 
                            "t0": 469026, 
                            "v": 104, 
                            "dur": 378, 
                            "type": "note", 
                            "channel": 8
                        }
                    ]
                ], 
                [
                    469030, 
                    [
                        {
                            "pitch": 45, 
                            "t0": 469030, 
                            "v": 96, 
                            "dur": 446, 
                            "type": "note", 
                            "channel": 8
                        }
                    ]
                ], 
                [
                    470462, 
                    [
                        {
                            "pitch": 48, 
                            "t0": 470462, 
                            "v": 104, 
                            "dur": 1472, 
                            "type": "note", 
                            "channel": 8
                        }
                    ]
                ], 
                [
                    470470, 
                    [
                        {
                            "pitch": 45, 
                            "t0": 470470, 
                            "v": 108, 
                            "dur": 1492, 
                            "type": "note", 
                            "channel": 8
                        }
                    ]
                ], 
                [
                    472062, 
                    [
                        {
                            "pitch": 45, 
                            "t0": 472062, 
                            "v": 92, 
                            "dur": 542, 
                            "type": "note", 
                            "channel": 8
                        }
                    ]
                ], 
                [
                    472076, 
                    [
                        {
                            "pitch": 50, 
                            "t0": 472076, 
                            "v": 112, 
                            "dur": 362, 
                            "type": "note", 
                            "channel": 8
                        }
                    ]
                ], 
                [
                    474570, 
                    [
                        {
                            "pitch": 48, 
                            "t0": 474570, 
                            "v": 108, 
                            "dur": 1410, 
                            "type": "note", 
                            "channel": 8
                        }
                    ]
                ], 
                [
                    474576, 
                    [
                        {
                            "pitch": 45, 
                            "t0": 474576, 
                            "v": 112, 
                            "dur": 1470, 
                            "type": "note", 
                            "channel": 8
                        }
                    ]
                ], 
                [
                    476096, 
                    [
                        {
                            "pitch": 50, 
                            "t0": 476096, 
                            "v": 112, 
                            "dur": 312, 
                            "type": "note", 
                            "channel": 8
                        }, 
                        {
                            "pitch": 45, 
                            "t0": 476096, 
                            "v": 68, 
                            "dur": 412, 
                            "type": "note", 
                            "channel": 8
                        }
                    ]
                ], 
                [
                    477092, 
                    [
                        {
                            "pitch": 50, 
                            "t0": 477092, 
                            "v": 108, 
                            "dur": 396, 
                            "type": "note", 
                            "channel": 8
                        }
                    ]
                ], 
                [
                    477096, 
                    [
                        {
                            "pitch": 45, 
                            "t0": 477096, 
                            "v": 108, 
                            "dur": 742, 
                            "type": "note", 
                            "channel": 8
                        }
                    ]
                ], 
                [
                    477126, 
                    [
                        {
                            "pitch": 47, 
                            "t0": 477126, 
                            "v": 88, 
                            "dur": 166, 
                            "type": "note", 
                            "channel": 8
                        }
                    ]
                ], 
                [
                    478496, 
                    [
                        {
                            "pitch": 48, 
                            "t0": 478496, 
                            "v": 108, 
                            "dur": 1388, 
                            "type": "note", 
                            "channel": 8
                        }
                    ]
                ], 
                [
                    478500, 
                    [
                        {
                            "pitch": 45, 
                            "t0": 478500, 
                            "v": 112, 
                            "dur": 1776, 
                            "type": "note", 
                            "channel": 8
                        }
                    ]
                ], 
                [
                    479988, 
                    [
                        {
                            "pitch": 50, 
                            "t0": 479988, 
                            "v": 108, 
                            "dur": 270, 
                            "type": "note", 
                            "channel": 8
                        }
                    ]
                ], 
                [
                    482408, 
                    [
                        {
                            "pitch": 48, 
                            "t0": 482408, 
                            "v": 96, 
                            "dur": 1526, 
                            "type": "note", 
                            "channel": 8
                        }
                    ]
                ], 
                [
                    482412, 
                    [
                        {
                            "pitch": 45, 
                            "t0": 482412, 
                            "v": 112, 
                            "dur": 2034, 
                            "type": "note", 
                            "channel": 8
                        }
                    ]
                ], 
                [
                    484008, 
                    [
                        {
                            "pitch": 50, 
                            "t0": 484008, 
                            "v": 96, 
                            "dur": 326, 
                            "type": "note", 
                            "channel": 8
                        }
                    ]
                ], 
                [
                    485000, 
                    [
                        {
                            "pitch": 50, 
                            "t0": 485000, 
                            "v": 108, 
                            "dur": 554, 
                            "type": "note", 
                            "channel": 8
                        }
                    ]
                ], 
                [
                    485004, 
                    [
                        {
                            "pitch": 45, 
                            "t0": 485004, 
                            "v": 104, 
                            "dur": 630, 
                            "type": "note", 
                            "channel": 8
                        }
                    ]
                ], 
                [
                    485030, 
                    [
                        {
                            "pitch": 47, 
                            "t0": 485030, 
                            "v": 92, 
                            "dur": 246, 
                            "type": "note", 
                            "channel": 8
                        }
                    ]
                ], 
                [
                    486496, 
                    [
                        {
                            "pitch": 48, 
                            "t0": 486496, 
                            "v": 108, 
                            "dur": 1362, 
                            "type": "note", 
                            "channel": 8
                        }
                    ]
                ], 
                [
                    486504, 
                    [
                        {
                            "pitch": 45, 
                            "t0": 486504, 
                            "v": 92, 
                            "dur": 1938, 
                            "type": "note", 
                            "channel": 8
                        }
                    ]
                ], 
                [
                    488004, 
                    [
                        {
                            "pitch": 50, 
                            "t0": 488004, 
                            "v": 104, 
                            "dur": 296, 
                            "type": "note", 
                            "channel": 8
                        }
                    ]
                ], 
                [
                    490530, 
                    [
                        {
                            "pitch": 48, 
                            "t0": 490530, 
                            "v": 100, 
                            "dur": 1382, 
                            "type": "note", 
                            "channel": 8
                        }
                    ]
                ], 
                [
                    490542, 
                    [
                        {
                            "pitch": 45, 
                            "t0": 490542, 
                            "v": 108, 
                            "dur": 1896, 
                            "type": "note", 
                            "channel": 8
                        }
                    ]
                ], 
                [
                    492054, 
                    [
                        {
                            "pitch": 50, 
                            "t0": 492054, 
                            "v": 112, 
                            "dur": 300, 
                            "type": "note", 
                            "channel": 8
                        }
                    ]
                ], 
                [
                    493030, 
                    [
                        {
                            "pitch": 50, 
                            "t0": 493030, 
                            "v": 112, 
                            "dur": 408, 
                            "type": "note", 
                            "channel": 8
                        }
                    ]
                ], 
                [
                    493038, 
                    [
                        {
                            "pitch": 45, 
                            "t0": 493038, 
                            "v": 112, 
                            "dur": 458, 
                            "type": "note", 
                            "channel": 8
                        }
                    ]
                ], 
                [
                    494466, 
                    [
                        {
                            "pitch": 48, 
                            "t0": 494466, 
                            "v": 108, 
                            "dur": 1368, 
                            "type": "note", 
                            "channel": 8
                        }, 
                        {
                            "pitch": 45, 
                            "t0": 494466, 
                            "v": 108, 
                            "dur": 1868, 
                            "type": "note", 
                            "channel": 8
                        }
                    ]
                ], 
                [
                    495980, 
                    [
                        {
                            "pitch": 50, 
                            "t0": 495980, 
                            "v": 104, 
                            "dur": 300, 
                            "type": "note", 
                            "channel": 8
                        }
                    ]
                ], 
                [
                    498416, 
                    [
                        {
                            "pitch": 48, 
                            "t0": 498416, 
                            "v": 112, 
                            "dur": 1464, 
                            "type": "note", 
                            "channel": 8
                        }
                    ]
                ], 
                [
                    498426, 
                    [
                        {
                            "pitch": 45, 
                            "t0": 498426, 
                            "v": 112, 
                            "dur": 1504, 
                            "type": "note", 
                            "channel": 8
                        }
                    ]
                ], 
                [
                    500020, 
                    [
                        {
                            "pitch": 45, 
                            "t0": 500020, 
                            "v": 84, 
                            "dur": 372, 
                            "type": "note", 
                            "channel": 8
                        }
                    ]
                ], 
                [
                    500030, 
                    [
                        {
                            "pitch": 50, 
                            "t0": 500030, 
                            "v": 108, 
                            "dur": 324, 
                            "type": "note", 
                            "channel": 8
                        }
                    ]
                ], 
                [
                    501034, 
                    [
                        {
                            "pitch": 50, 
                            "t0": 501034, 
                            "v": 112, 
                            "dur": 366, 
                            "type": "note", 
                            "channel": 8
                        }
                    ]
                ], 
                [
                    501042, 
                    [
                        {
                            "pitch": 45, 
                            "t0": 501042, 
                            "v": 108, 
                            "dur": 416, 
                            "type": "note", 
                            "channel": 8
                        }
                    ]
                ], 
                [
                    502512, 
                    [
                        {
                            "pitch": 48, 
                            "t0": 502512, 
                            "v": 100, 
                            "dur": 1368, 
                            "type": "note", 
                            "channel": 8
                        }
                    ]
                ], 
                [
                    502520, 
                    [
                        {
                            "pitch": 45, 
                            "t0": 502520, 
                            "v": 108, 
                            "dur": 1388, 
                            "type": "note", 
                            "channel": 8
                        }
                    ]
                ], 
                [
                    504030, 
                    [
                        {
                            "pitch": 50, 
                            "t0": 504030, 
                            "v": 108, 
                            "dur": 270, 
                            "type": "note", 
                            "channel": 8
                        }, 
                        {
                            "pitch": 45, 
                            "t0": 504030, 
                            "v": 96, 
                            "dur": 274, 
                            "type": "note", 
                            "channel": 8
                        }
                    ]
                ], 
                [
                    506500, 
                    [
                        {
                            "pitch": 48, 
                            "t0": 506500, 
                            "v": 112, 
                            "dur": 1362, 
                            "type": "note", 
                            "channel": 8
                        }, 
                        {
                            "pitch": 45, 
                            "t0": 506500, 
                            "v": 116, 
                            "dur": 1392, 
                            "type": "note", 
                            "channel": 8
                        }
                    ]
                ], 
                [
                    508016, 
                    [
                        {
                            "pitch": 50, 
                            "t0": 508016, 
                            "v": 104, 
                            "dur": 330, 
                            "type": "note", 
                            "channel": 8
                        }
                    ]
                ], 
                [
                    508026, 
                    [
                        {
                            "pitch": 45, 
                            "t0": 508026, 
                            "v": 96, 
                            "dur": 386, 
                            "type": "note", 
                            "channel": 8
                        }
                    ]
                ], 
                [
                    509004, 
                    [
                        {
                            "pitch": 50, 
                            "t0": 509004, 
                            "v": 112, 
                            "dur": 400, 
                            "type": "note", 
                            "channel": 8
                        }
                    ]
                ], 
                [
                    509016, 
                    [
                        {
                            "pitch": 45, 
                            "t0": 509016, 
                            "v": 108, 
                            "dur": 496, 
                            "type": "note", 
                            "channel": 8
                        }
                    ]
                ], 
                [
                    509034, 
                    [
                        {
                            "pitch": 48, 
                            "t0": 509034, 
                            "v": 72, 
                            "dur": 66, 
                            "type": "note", 
                            "channel": 8
                        }
                    ]
                ], 
                [
                    510520, 
                    [
                        {
                            "pitch": 48, 
                            "t0": 510520, 
                            "v": 112, 
                            "dur": 1280, 
                            "type": "note", 
                            "channel": 8
                        }
                    ]
                ], 
                [
                    510526, 
                    [
                        {
                            "pitch": 45, 
                            "t0": 510526, 
                            "v": 112, 
                            "dur": 1374, 
                            "type": "note", 
                            "channel": 8
                        }
                    ]
                ], 
                [
                    511966, 
                    [
                        {
                            "pitch": 45, 
                            "t0": 511966, 
                            "v": 84, 
                            "dur": 454, 
                            "type": "note", 
                            "channel": 8
                        }
                    ]
                ], 
                [
                    511970, 
                    [
                        {
                            "pitch": 50, 
                            "t0": 511970, 
                            "v": 120, 
                            "dur": 314, 
                            "type": "note", 
                            "channel": 8
                        }
                    ]
                ], 
                [
                    514546, 
                    [
                        {
                            "pitch": 48, 
                            "t0": 514546, 
                            "v": 112, 
                            "dur": 1358, 
                            "type": "note", 
                            "channel": 8
                        }
                    ]
                ], 
                [
                    514554, 
                    [
                        {
                            "pitch": 45, 
                            "t0": 514554, 
                            "v": 112, 
                            "dur": 1392, 
                            "type": "note", 
                            "channel": 8
                        }
                    ]
                ], 
                [
                    516030, 
                    [
                        {
                            "pitch": 50, 
                            "t0": 516030, 
                            "v": 116, 
                            "dur": 240, 
                            "type": "note", 
                            "channel": 8
                        }, 
                        {
                            "pitch": 45, 
                            "t0": 516030, 
                            "v": 88, 
                            "dur": 262, 
                            "type": "note", 
                            "channel": 8
                        }
                    ]
                ], 
                [
                    517042, 
                    [
                        {
                            "pitch": 50, 
                            "t0": 517042, 
                            "v": 108, 
                            "dur": 288, 
                            "type": "note", 
                            "channel": 8
                        }
                    ]
                ], 
                [
                    517046, 
                    [
                        {
                            "pitch": 45, 
                            "t0": 517046, 
                            "v": 104, 
                            "dur": 350, 
                            "type": "note", 
                            "channel": 8
                        }
                    ]
                ], 
                [
                    518466, 
                    [
                        {
                            "pitch": 48, 
                            "t0": 518466, 
                            "v": 96, 
                            "dur": 1346, 
                            "type": "note", 
                            "channel": 8
                        }
                    ]
                ], 
                [
                    518476, 
                    [
                        {
                            "pitch": 45, 
                            "t0": 518476, 
                            "v": 88, 
                            "dur": 1732, 
                            "type": "note", 
                            "channel": 8
                        }
                    ]
                ], 
                [
                    519954, 
                    [
                        {
                            "pitch": 50, 
                            "t0": 519954, 
                            "v": 100, 
                            "dur": 234, 
                            "type": "note", 
                            "channel": 8
                        }
                    ]
                ], 
                [
                    522526, 
                    [
                        {
                            "pitch": 48, 
                            "t0": 522526, 
                            "v": 108, 
                            "dur": 1412, 
                            "type": "note", 
                            "channel": 8
                        }
                    ]
                ], 
                [
                    522530, 
                    [
                        {
                            "pitch": 45, 
                            "t0": 522530, 
                            "v": 108, 
                            "dur": 1850, 
                            "type": "note", 
                            "channel": 8
                        }
                    ]
                ], 
                [
                    524070, 
                    [
                        {
                            "pitch": 50, 
                            "t0": 524070, 
                            "v": 108, 
                            "dur": 284, 
                            "type": "note", 
                            "channel": 8
                        }
                    ]
                ], 
                [
                    525066, 
                    [
                        {
                            "pitch": 50, 
                            "t0": 525066, 
                            "v": 108, 
                            "dur": 368, 
                            "type": "note", 
                            "channel": 8
                        }
                    ]
                ], 
                [
                    525080, 
                    [
                        {
                            "pitch": 45, 
                            "t0": 525080, 
                            "v": 100, 
                            "dur": 446, 
                            "type": "note", 
                            "channel": 8
                        }
                    ]
                ], 
                [
                    526496, 
                    [
                        {
                            "pitch": 48, 
                            "t0": 526496, 
                            "v": 104, 
                            "dur": 1308, 
                            "type": "note", 
                            "channel": 8
                        }
                    ]
                ], 
                [
                    526500, 
                    [
                        {
                            "pitch": 45, 
                            "t0": 526500, 
                            "v": 104, 
                            "dur": 1854, 
                            "type": "note", 
                            "channel": 8
                        }
                    ]
                ], 
                [
                    527930, 
                    [
                        {
                            "pitch": 50, 
                            "t0": 527930, 
                            "v": 108, 
                            "dur": 246, 
                            "type": "note", 
                            "channel": 8
                        }
                    ]
                ], 
                [
                    529000, 
                    [
                        {
                            "pitch": 50, 
                            "t0": 529000, 
                            "v": 104, 
                            "dur": 208, 
                            "type": "note", 
                            "channel": 8
                        }
                    ]
                ], 
                [
                    529004, 
                    [
                        {
                            "pitch": 45, 
                            "t0": 529004, 
                            "v": 68, 
                            "dur": 250, 
                            "type": "note", 
                            "channel": 8
                        }
                    ]
                ], 
                [
                    529030, 
                    [
                        {
                            "pitch": 47, 
                            "t0": 529030, 
                            "v": 88, 
                            "dur": 136, 
                            "type": "note", 
                            "channel": 8
                        }
                    ]
                ], 
                [
                    530534, 
                    [
                        {
                            "pitch": 48, 
                            "t0": 530534, 
                            "v": 108, 
                            "dur": 1358, 
                            "type": "note", 
                            "channel": 8
                        }, 
                        {
                            "pitch": 45, 
                            "t0": 530534, 
                            "v": 100, 
                            "dur": 1812, 
                            "type": "note", 
                            "channel": 8
                        }
                    ]
                ], 
                [
                    532030, 
                    [
                        {
                            "pitch": 50, 
                            "t0": 532030, 
                            "v": 104, 
                            "dur": 262, 
                            "type": "note", 
                            "channel": 8
                        }
                    ]
                ], 
                [
                    532966, 
                    [
                        {
                            "pitch": 50, 
                            "t0": 532966, 
                            "v": 104, 
                            "dur": 314, 
                            "type": "note", 
                            "channel": 8
                        }, 
                        {
                            "pitch": 45, 
                            "t0": 532966, 
                            "v": 92, 
                            "dur": 396, 
                            "type": "note", 
                            "channel": 8
                        }
                    ]
                ], 
                [
                    534484, 
                    [
                        {
                            "pitch": 48, 
                            "t0": 534484, 
                            "v": 100, 
                            "dur": 1342, 
                            "type": "note", 
                            "channel": 8
                        }
                    ]
                ], 
                [
                    534488, 
                    [
                        {
                            "pitch": 45, 
                            "t0": 534488, 
                            "v": 104, 
                            "dur": 1400, 
                            "type": "note", 
                            "channel": 8
                        }
                    ]
                ], 
                [
                    535970, 
                    [
                        {
                            "pitch": 50, 
                            "t0": 535970, 
                            "v": 108, 
                            "dur": 284, 
                            "type": "note", 
                            "channel": 8
                        }
                    ]
                ], 
                [
                    535976, 
                    [
                        {
                            "pitch": 45, 
                            "t0": 535976, 
                            "v": 84, 
                            "dur": 340, 
                            "type": "note", 
                            "channel": 8
                        }
                    ]
                ], 
                [
                    537020, 
                    [
                        {
                            "pitch": 50, 
                            "t0": 537020, 
                            "v": 112, 
                            "dur": 372, 
                            "type": "note", 
                            "channel": 8
                        }
                    ]
                ], 
                [
                    537026, 
                    [
                        {
                            "pitch": 45, 
                            "t0": 537026, 
                            "v": 100, 
                            "dur": 478, 
                            "type": "note", 
                            "channel": 8
                        }
                    ]
                ], 
                [
                    538546, 
                    [
                        {
                            "pitch": 48, 
                            "t0": 538546, 
                            "v": 108, 
                            "dur": 1396, 
                            "type": "note", 
                            "channel": 8
                        }
                    ]
                ], 
                [
                    538550, 
                    [
                        {
                            "pitch": 45, 
                            "t0": 538550, 
                            "v": 104, 
                            "dur": 1438, 
                            "type": "note", 
                            "channel": 8
                        }
                    ]
                ], 
                [
                    540058, 
                    [
                        {
                            "pitch": 50, 
                            "t0": 540058, 
                            "v": 104, 
                            "dur": 300, 
                            "type": "note", 
                            "channel": 8
                        }, 
                        {
                            "pitch": 45, 
                            "t0": 540058, 
                            "v": 84, 
                            "dur": 376, 
                            "type": "note", 
                            "channel": 8
                        }
                    ]
                ], 
                [
                    541030, 
                    [
                        {
                            "pitch": 50, 
                            "t0": 541030, 
                            "v": 88, 
                            "dur": 382, 
                            "type": "note", 
                            "channel": 8
                        }
                    ]
                ], 
                [
                    541038, 
                    [
                        {
                            "pitch": 45, 
                            "t0": 541038, 
                            "v": 80, 
                            "dur": 446, 
                            "type": "note", 
                            "channel": 8
                        }
                    ]
                ], 
                [
                    542508, 
                    [
                        {
                            "pitch": 48, 
                            "t0": 542508, 
                            "v": 112, 
                            "dur": 1326, 
                            "type": "note", 
                            "channel": 8
                        }
                    ]
                ], 
                [
                    542512, 
                    [
                        {
                            "pitch": 45, 
                            "t0": 542512, 
                            "v": 96, 
                            "dur": 1834, 
                            "type": "note", 
                            "channel": 8
                        }
                    ]
                ], 
                [
                    543962, 
                    [
                        {
                            "pitch": 50, 
                            "t0": 543962, 
                            "v": 108, 
                            "dur": 322, 
                            "type": "note", 
                            "channel": 8
                        }
                    ]
                ], 
                [
                    544934, 
                    [
                        {
                            "pitch": 50, 
                            "t0": 544934, 
                            "v": 100, 
                            "dur": 320, 
                            "type": "note", 
                            "channel": 8
                        }, 
                        {
                            "pitch": 45, 
                            "t0": 544934, 
                            "v": 72, 
                            "dur": 620, 
                            "type": "note", 
                            "channel": 8
                        }
                    ]
                ], 
                [
                    546538, 
                    [
                        {
                            "pitch": 45, 
                            "t0": 546538, 
                            "v": 54, 
                            "dur": 2162, 
                            "type": "note", 
                            "channel": 8
                        }
                    ]
                ], 
                [
                    546542, 
                    [
                        {
                            "pitch": 48, 
                            "t0": 546542, 
                            "v": 80, 
                            "dur": 1358, 
                            "type": "note", 
                            "channel": 8
                        }
                    ]
                ], 
                [
                    548016, 
                    [
                        {
                            "pitch": 50, 
                            "t0": 548016, 
                            "v": 88, 
                            "dur": 284, 
                            "type": "note", 
                            "channel": 8
                        }
                    ]
                ], 
                [
                    549004, 
                    [
                        {
                            "pitch": 50, 
                            "t0": 549004, 
                            "v": 84, 
                            "dur": 734, 
                            "type": "note", 
                            "channel": 8
                        }
                    ]
                ], 
                [
                    549012, 
                    [
                        {
                            "pitch": 45, 
                            "t0": 549012, 
                            "v": 68, 
                            "dur": 1292, 
                            "type": "note", 
                            "channel": 8
                        }
                    ]
                ], 
                [
                    550412, 
                    [
                        {
                            "pitch": 48, 
                            "t0": 550412, 
                            "v": 104, 
                            "dur": 1272, 
                            "type": "note", 
                            "channel": 8
                        }
                    ]
                ], 
                [
                    550420, 
                    [
                        {
                            "pitch": 45, 
                            "t0": 550420, 
                            "v": 76, 
                            "dur": 19418, 
                            "type": "note", 
                            "channel": 8
                        }
                    ]
                ], 
                [
                    551830, 
                    [
                        {
                            "pitch": 50, 
                            "t0": 551830, 
                            "v": 88, 
                            "dur": 400, 
                            "type": "note", 
                            "channel": 8
                        }
                    ]
                ], 
                [
                    552838, 
                    [
                        {
                            "pitch": 50, 
                            "t0": 552838, 
                            "v": 76, 
                            "dur": 5270, 
                            "type": "note", 
                            "channel": 8
                        }
                    ]
                ], 
                [
                    557608, 
                    [
                        {
                            "pitch": 52, 
                            "t0": 557608, 
                            "v": 64, 
                            "dur": 12418, 
                            "type": "note", 
                            "channel": 8
                        }
                    ]
                ]
            ], 
            "instruments": [
                52
            ], 
            "tMax": 557608, 
            "channels": [
                8
            ], 
            "instrument": 52, 
            "numNotes": 631, 
            "type": "TrackObj"
        }, 
        {
            "trackName": "Instrument Track", 
            "seq": [
                [
                    0, 
                    [
                        {
                            "instrument": 32, 
                            "type": "programChange", 
                            "t0": 0, 
                            "channel": 9
                        }
                    ]
                ], 
                [
                    4576, 
                    [
                        {
                            "pitch": 77, 
                            "t0": 4576, 
                            "v": 8, 
                            "dur": 70, 
                            "type": "note", 
                            "channel": 9
                        }
                    ]
                ], 
                [
                    5080, 
                    [
                        {
                            "pitch": 76, 
                            "t0": 5080, 
                            "v": 23, 
                            "dur": 146, 
                            "type": "note", 
                            "channel": 9
                        }
                    ]
                ], 
                [
                    5088, 
                    [
                        {
                            "pitch": 77, 
                            "t0": 5088, 
                            "v": 24, 
                            "dur": 142, 
                            "type": "note", 
                            "channel": 9
                        }
                    ]
                ], 
                [
                    6580, 
                    [
                        {
                            "pitch": 76, 
                            "t0": 6580, 
                            "v": 24, 
                            "dur": 162, 
                            "type": "note", 
                            "channel": 9
                        }, 
                        {
                            "pitch": 77, 
                            "t0": 6580, 
                            "v": 24, 
                            "dur": 170, 
                            "type": "note", 
                            "channel": 9
                        }
                    ]
                ], 
                [
                    9134, 
                    [
                        {
                            "pitch": 77, 
                            "t0": 9134, 
                            "v": 15, 
                            "dur": 82, 
                            "type": "note", 
                            "channel": 9
                        }
                    ]
                ], 
                [
                    9142, 
                    [
                        {
                            "pitch": 76, 
                            "t0": 9142, 
                            "v": 10, 
                            "dur": 58, 
                            "type": "note", 
                            "channel": 9
                        }
                    ]
                ], 
                [
                    9366, 
                    [
                        {
                            "pitch": 76, 
                            "t0": 9366, 
                            "v": 19, 
                            "dur": 88, 
                            "type": "note", 
                            "channel": 9
                        }, 
                        {
                            "pitch": 77, 
                            "t0": 9366, 
                            "v": 18, 
                            "dur": 100, 
                            "type": "note", 
                            "channel": 9
                        }
                    ]
                ], 
                [
                    9580, 
                    [
                        {
                            "pitch": 77, 
                            "t0": 9580, 
                            "v": 18, 
                            "dur": 162, 
                            "type": "note", 
                            "channel": 9
                        }
                    ]
                ], 
                [
                    9588, 
                    [
                        {
                            "pitch": 76, 
                            "t0": 9588, 
                            "v": 19, 
                            "dur": 146, 
                            "type": "note", 
                            "channel": 9
                        }
                    ]
                ], 
                [
                    10120, 
                    [
                        {
                            "pitch": 77, 
                            "t0": 10120, 
                            "v": 28, 
                            "dur": 214, 
                            "type": "note", 
                            "channel": 9
                        }
                    ]
                ], 
                [
                    10126, 
                    [
                        {
                            "pitch": 76, 
                            "t0": 10126, 
                            "v": 27, 
                            "dur": 132, 
                            "type": "note", 
                            "channel": 9
                        }
                    ]
                ], 
                [
                    10576, 
                    [
                        {
                            "pitch": 76, 
                            "t0": 10576, 
                            "v": 20, 
                            "dur": 86, 
                            "type": "note", 
                            "channel": 9
                        }
                    ]
                ], 
                [
                    11076, 
                    [
                        {
                            "pitch": 76, 
                            "t0": 11076, 
                            "v": 27, 
                            "dur": 158, 
                            "type": "note", 
                            "channel": 9
                        }
                    ]
                ], 
                [
                    13020, 
                    [
                        {
                            "pitch": 77, 
                            "t0": 13020, 
                            "v": 19, 
                            "dur": 92, 
                            "type": "note", 
                            "channel": 9
                        }
                    ]
                ], 
                [
                    13266, 
                    [
                        {
                            "pitch": 77, 
                            "t0": 13266, 
                            "v": 14, 
                            "dur": 104, 
                            "type": "note", 
                            "channel": 9
                        }
                    ]
                ], 
                [
                    13270, 
                    [
                        {
                            "pitch": 76, 
                            "t0": 13270, 
                            "v": 18, 
                            "dur": 110, 
                            "type": "note", 
                            "channel": 9
                        }
                    ]
                ], 
                [
                    13516, 
                    [
                        {
                            "pitch": 77, 
                            "t0": 13516, 
                            "v": 24, 
                            "dur": 164, 
                            "type": "note", 
                            "channel": 9
                        }
                    ]
                ], 
                [
                    13534, 
                    [
                        {
                            "pitch": 76, 
                            "t0": 13534, 
                            "v": 18, 
                            "dur": 74, 
                            "type": "note", 
                            "channel": 9
                        }
                    ]
                ], 
                [
                    14076, 
                    [
                        {
                            "pitch": 76, 
                            "t0": 14076, 
                            "v": 32, 
                            "dur": 174, 
                            "type": "note", 
                            "channel": 9
                        }
                    ]
                ], 
                [
                    15100, 
                    [
                        {
                            "pitch": 76, 
                            "t0": 15100, 
                            "v": 31, 
                            "dur": 154, 
                            "type": "note", 
                            "channel": 9
                        }
                    ]
                ], 
                [
                    15116, 
                    [
                        {
                            "pitch": 77, 
                            "t0": 15116, 
                            "v": 31, 
                            "dur": 118, 
                            "type": "note", 
                            "channel": 9
                        }
                    ]
                ], 
                [
                    17138, 
                    [
                        {
                            "pitch": 77, 
                            "t0": 17138, 
                            "v": 18, 
                            "dur": 58, 
                            "type": "note", 
                            "channel": 9
                        }
                    ]
                ], 
                [
                    17370, 
                    [
                        {
                            "pitch": 77, 
                            "t0": 17370, 
                            "v": 24, 
                            "dur": 114, 
                            "type": "note", 
                            "channel": 9
                        }
                    ]
                ], 
                [
                    17388, 
                    [
                        {
                            "pitch": 76, 
                            "t0": 17388, 
                            "v": 22, 
                            "dur": 92, 
                            "type": "note", 
                            "channel": 9
                        }
                    ]
                ], 
                [
                    17588, 
                    [
                        {
                            "pitch": 77, 
                            "t0": 17588, 
                            "v": 28, 
                            "dur": 182, 
                            "type": "note", 
                            "channel": 9
                        }
                    ]
                ], 
                [
                    18126, 
                    [
                        {
                            "pitch": 76, 
                            "t0": 18126, 
                            "v": 34, 
                            "dur": 170, 
                            "type": "note", 
                            "channel": 9
                        }
                    ]
                ], 
                [
                    18150, 
                    [
                        {
                            "pitch": 77, 
                            "t0": 18150, 
                            "v": 24, 
                            "dur": 84, 
                            "type": "note", 
                            "channel": 9
                        }
                    ]
                ], 
                [
                    18580, 
                    [
                        {
                            "pitch": 77, 
                            "t0": 18580, 
                            "v": 34, 
                            "dur": 140, 
                            "type": "note", 
                            "channel": 9
                        }
                    ]
                ], 
                [
                    18596, 
                    [
                        {
                            "pitch": 76, 
                            "t0": 18596, 
                            "v": 15, 
                            "dur": 58, 
                            "type": "note", 
                            "channel": 9
                        }
                    ]
                ], 
                [
                    19084, 
                    [
                        {
                            "pitch": 77, 
                            "t0": 19084, 
                            "v": 37, 
                            "dur": 174, 
                            "type": "note", 
                            "channel": 9
                        }
                    ]
                ], 
                [
                    21046, 
                    [
                        {
                            "pitch": 76, 
                            "t0": 21046, 
                            "v": 21, 
                            "dur": 92, 
                            "type": "note", 
                            "channel": 9
                        }
                    ]
                ], 
                [
                    21312, 
                    [
                        {
                            "pitch": 77, 
                            "t0": 21312, 
                            "v": 24, 
                            "dur": 122, 
                            "type": "note", 
                            "channel": 9
                        }
                    ]
                ], 
                [
                    21316, 
                    [
                        {
                            "pitch": 76, 
                            "t0": 21316, 
                            "v": 24, 
                            "dur": 96, 
                            "type": "note", 
                            "channel": 9
                        }
                    ]
                ], 
                [
                    21526, 
                    [
                        {
                            "pitch": 76, 
                            "t0": 21526, 
                            "v": 27, 
                            "dur": 158, 
                            "type": "note", 
                            "channel": 9
                        }
                    ]
                ], 
                [
                    21566, 
                    [
                        {
                            "pitch": 77, 
                            "t0": 21566, 
                            "v": 18, 
                            "dur": 84, 
                            "type": "note", 
                            "channel": 9
                        }
                    ]
                ], 
                [
                    22084, 
                    [
                        {
                            "pitch": 77, 
                            "t0": 22084, 
                            "v": 36, 
                            "dur": 178, 
                            "type": "note", 
                            "channel": 9
                        }
                    ]
                ], 
                [
                    22108, 
                    [
                        {
                            "pitch": 76, 
                            "t0": 22108, 
                            "v": 35, 
                            "dur": 88, 
                            "type": "note", 
                            "channel": 9
                        }
                    ]
                ], 
                [
                    23088, 
                    [
                        {
                            "pitch": 76, 
                            "t0": 23088, 
                            "v": 37, 
                            "dur": 158, 
                            "type": "note", 
                            "channel": 9
                        }
                    ]
                ], 
                [
                    23092, 
                    [
                        {
                            "pitch": 77, 
                            "t0": 23092, 
                            "v": 37, 
                            "dur": 154, 
                            "type": "note", 
                            "channel": 9
                        }
                    ]
                ], 
                [
                    25038, 
                    [
                        {
                            "pitch": 77, 
                            "t0": 25038, 
                            "v": 22, 
                            "dur": 112, 
                            "type": "note", 
                            "channel": 9
                        }
                    ]
                ], 
                [
                    25246, 
                    [
                        {
                            "pitch": 77, 
                            "t0": 25246, 
                            "v": 15, 
                            "dur": 70, 
                            "type": "note", 
                            "channel": 9
                        }
                    ]
                ], 
                [
                    25584, 
                    [
                        {
                            "pitch": 77, 
                            "t0": 25584, 
                            "v": 37, 
                            "dur": 124, 
                            "type": "note", 
                            "channel": 9
                        }
                    ]
                ], 
                [
                    26070, 
                    [
                        {
                            "pitch": 77, 
                            "t0": 26070, 
                            "v": 38, 
                            "dur": 142, 
                            "type": "note", 
                            "channel": 9
                        }
                    ]
                ], 
                [
                    26508, 
                    [
                        {
                            "pitch": 77, 
                            "t0": 26508, 
                            "v": 32, 
                            "dur": 162, 
                            "type": "note", 
                            "channel": 9
                        }
                    ]
                ], 
                [
                    27034, 
                    [
                        {
                            "pitch": 76, 
                            "t0": 27034, 
                            "v": 40, 
                            "dur": 312, 
                            "type": "note", 
                            "channel": 9
                        }
                    ]
                ], 
                [
                    28600, 
                    [
                        {
                            "pitch": 76, 
                            "t0": 28600, 
                            "v": 23, 
                            "dur": 96, 
                            "type": "note", 
                            "channel": 9
                        }
                    ]
                ], 
                [
                    28684, 
                    [
                        {
                            "pitch": 77, 
                            "t0": 28684, 
                            "v": 16, 
                            "dur": 100, 
                            "type": "note", 
                            "channel": 9
                        }
                    ]
                ], 
                [
                    28812, 
                    [
                        {
                            "pitch": 76, 
                            "t0": 28812, 
                            "v": 31, 
                            "dur": 158, 
                            "type": "note", 
                            "channel": 9
                        }
                    ]
                ], 
                [
                    28946, 
                    [
                        {
                            "pitch": 77, 
                            "t0": 28946, 
                            "v": 30, 
                            "dur": 280, 
                            "type": "note", 
                            "channel": 9
                        }
                    ]
                ], 
                [
                    29550, 
                    [
                        {
                            "pitch": 76, 
                            "t0": 29550, 
                            "v": 40, 
                            "dur": 134, 
                            "type": "note", 
                            "channel": 9
                        }
                    ]
                ], 
                [
                    30054, 
                    [
                        {
                            "pitch": 77, 
                            "t0": 30054, 
                            "v": 39, 
                            "dur": 234, 
                            "type": "note", 
                            "channel": 9
                        }
                    ]
                ], 
                [
                    30500, 
                    [
                        {
                            "pitch": 77, 
                            "t0": 30500, 
                            "v": 41, 
                            "dur": 180, 
                            "type": "note", 
                            "channel": 9
                        }
                    ]
                ], 
                [
                    30550, 
                    [
                        {
                            "pitch": 76, 
                            "t0": 30550, 
                            "v": 25, 
                            "dur": 92, 
                            "type": "note", 
                            "channel": 9
                        }
                    ]
                ], 
                [
                    30984, 
                    [
                        {
                            "pitch": 76, 
                            "t0": 30984, 
                            "v": 43, 
                            "dur": 166, 
                            "type": "note", 
                            "channel": 9
                        }
                    ]
                ], 
                [
                    30992, 
                    [
                        {
                            "pitch": 77, 
                            "t0": 30992, 
                            "v": 45, 
                            "dur": 166, 
                            "type": "note", 
                            "channel": 9
                        }
                    ]
                ], 
                [
                    32538, 
                    [
                        {
                            "pitch": 77, 
                            "t0": 32538, 
                            "v": 41, 
                            "dur": 188, 
                            "type": "note", 
                            "channel": 9
                        }
                    ]
                ], 
                [
                    32554, 
                    [
                        {
                            "pitch": 76, 
                            "t0": 32554, 
                            "v": 19, 
                            "dur": 72, 
                            "type": "note", 
                            "channel": 9
                        }
                    ]
                ], 
                [
                    34076, 
                    [
                        {
                            "pitch": 77, 
                            "t0": 34076, 
                            "v": 49, 
                            "dur": 240, 
                            "type": "note", 
                            "channel": 9
                        }
                    ]
                ], 
                [
                    35034, 
                    [
                        {
                            "pitch": 77, 
                            "t0": 35034, 
                            "v": 50, 
                            "dur": 228, 
                            "type": "note", 
                            "channel": 9
                        }
                    ]
                ], 
                [
                    36592, 
                    [
                        {
                            "pitch": 77, 
                            "t0": 36592, 
                            "v": 49, 
                            "dur": 392, 
                            "type": "note", 
                            "channel": 9
                        }
                    ]
                ], 
                [
                    37584, 
                    [
                        {
                            "pitch": 77, 
                            "t0": 37584, 
                            "v": 43, 
                            "dur": 104, 
                            "type": "note", 
                            "channel": 9
                        }
                    ]
                ], 
                [
                    38034, 
                    [
                        {
                            "pitch": 77, 
                            "t0": 38034, 
                            "v": 42, 
                            "dur": 170, 
                            "type": "note", 
                            "channel": 9
                        }
                    ]
                ], 
                [
                    38308, 
                    [
                        {
                            "pitch": 77, 
                            "t0": 38308, 
                            "v": 33, 
                            "dur": 126, 
                            "type": "note", 
                            "channel": 9
                        }
                    ]
                ], 
                [
                    38330, 
                    [
                        {
                            "pitch": 76, 
                            "t0": 38330, 
                            "v": 52, 
                            "dur": 370, 
                            "type": "note", 
                            "channel": 9
                        }
                    ]
                ], 
                [
                    39026, 
                    [
                        {
                            "pitch": 77, 
                            "t0": 39026, 
                            "v": 48, 
                            "dur": 244, 
                            "type": "note", 
                            "channel": 9
                        }
                    ]
                ], 
                [
                    40570, 
                    [
                        {
                            "pitch": 77, 
                            "t0": 40570, 
                            "v": 37, 
                            "dur": 142, 
                            "type": "note", 
                            "channel": 9
                        }
                    ]
                ], 
                [
                    40600, 
                    [
                        {
                            "pitch": 76, 
                            "t0": 40600, 
                            "v": 30, 
                            "dur": 84, 
                            "type": "note", 
                            "channel": 9
                        }
                    ]
                ], 
                [
                    40762, 
                    [
                        {
                            "pitch": 76, 
                            "t0": 40762, 
                            "v": 16, 
                            "dur": 100, 
                            "type": "note", 
                            "channel": 9
                        }
                    ]
                ], 
                [
                    40912, 
                    [
                        {
                            "pitch": 77, 
                            "t0": 40912, 
                            "v": 37, 
                            "dur": 192, 
                            "type": "note", 
                            "channel": 9
                        }
                    ]
                ], 
                [
                    41038, 
                    [
                        {
                            "pitch": 76, 
                            "t0": 41038, 
                            "v": 42, 
                            "dur": 224, 
                            "type": "note", 
                            "channel": 9
                        }
                    ]
                ], 
                [
                    41566, 
                    [
                        {
                            "pitch": 77, 
                            "t0": 41566, 
                            "v": 49, 
                            "dur": 180, 
                            "type": "note", 
                            "channel": 9
                        }
                    ]
                ], 
                [
                    42100, 
                    [
                        {
                            "pitch": 77, 
                            "t0": 42100, 
                            "v": 50, 
                            "dur": 208, 
                            "type": "note", 
                            "channel": 9
                        }
                    ]
                ], 
                [
                    42546, 
                    [
                        {
                            "pitch": 76, 
                            "t0": 42546, 
                            "v": 46, 
                            "dur": 116, 
                            "type": "note", 
                            "channel": 9
                        }
                    ]
                ], 
                [
                    43050, 
                    [
                        {
                            "pitch": 76, 
                            "t0": 43050, 
                            "v": 56, 
                            "dur": 266, 
                            "type": "note", 
                            "channel": 9
                        }, 
                        {
                            "pitch": 77, 
                            "t0": 43050, 
                            "v": 57, 
                            "dur": 296, 
                            "type": "note", 
                            "channel": 9
                        }
                    ]
                ], 
                [
                    44562, 
                    [
                        {
                            "pitch": 77, 
                            "t0": 44562, 
                            "v": 55, 
                            "dur": 342, 
                            "type": "note", 
                            "channel": 9
                        }
                    ]
                ], 
                [
                    44596, 
                    [
                        {
                            "pitch": 76, 
                            "t0": 44596, 
                            "v": 44, 
                            "dur": 80, 
                            "type": "note", 
                            "channel": 9
                        }
                    ]
                ], 
                [
                    46034, 
                    [
                        {
                            "pitch": 77, 
                            "t0": 46034, 
                            "v": 61, 
                            "dur": 186, 
                            "type": "note", 
                            "channel": 9
                        }
                    ]
                ], 
                [
                    46492, 
                    [
                        {
                            "pitch": 77, 
                            "t0": 46492, 
                            "v": 53, 
                            "dur": 166, 
                            "type": "note", 
                            "channel": 9
                        }
                    ]
                ], 
                [
                    47038, 
                    [
                        {
                            "pitch": 77, 
                            "t0": 47038, 
                            "v": 59, 
                            "dur": 146, 
                            "type": "note", 
                            "channel": 9
                        }
                    ]
                ], 
                [
                    48620, 
                    [
                        {
                            "pitch": 77, 
                            "t0": 48620, 
                            "v": 28, 
                            "dur": 88, 
                            "type": "note", 
                            "channel": 9
                        }
                    ]
                ], 
                [
                    48770, 
                    [
                        {
                            "pitch": 76, 
                            "t0": 48770, 
                            "v": 9, 
                            "dur": 130, 
                            "type": "note", 
                            "channel": 9
                        }
                    ]
                ], 
                [
                    48788, 
                    [
                        {
                            "pitch": 77, 
                            "t0": 48788, 
                            "v": 18, 
                            "dur": 112, 
                            "type": "note", 
                            "channel": 9
                        }
                    ]
                ], 
                [
                    48946, 
                    [
                        {
                            "pitch": 77, 
                            "t0": 48946, 
                            "v": 28, 
                            "dur": 146, 
                            "type": "note", 
                            "channel": 9
                        }
                    ]
                ], 
                [
                    49016, 
                    [
                        {
                            "pitch": 76, 
                            "t0": 49016, 
                            "v": 34, 
                            "dur": 292, 
                            "type": "note", 
                            "channel": 9
                        }
                    ]
                ], 
                [
                    49558, 
                    [
                        {
                            "pitch": 77, 
                            "t0": 49558, 
                            "v": 55, 
                            "dur": 162, 
                            "type": "note", 
                            "channel": 9
                        }
                    ]
                ], 
                [
                    50054, 
                    [
                        {
                            "pitch": 77, 
                            "t0": 50054, 
                            "v": 62, 
                            "dur": 212, 
                            "type": "note", 
                            "channel": 9
                        }
                    ]
                ], 
                [
                    50584, 
                    [
                        {
                            "pitch": 77, 
                            "t0": 50584, 
                            "v": 56, 
                            "dur": 132, 
                            "type": "note", 
                            "channel": 9
                        }
                    ]
                ], 
                [
                    51034, 
                    [
                        {
                            "pitch": 77, 
                            "t0": 51034, 
                            "v": 56, 
                            "dur": 220, 
                            "type": "note", 
                            "channel": 9
                        }
                    ]
                ], 
                [
                    51520, 
                    [
                        {
                            "pitch": 76, 
                            "t0": 51520, 
                            "v": 59, 
                            "dur": 160, 
                            "type": "note", 
                            "channel": 9
                        }
                    ]
                ], 
                [
                    51554, 
                    [
                        {
                            "pitch": 77, 
                            "t0": 51554, 
                            "v": 24, 
                            "dur": 88, 
                            "type": "note", 
                            "channel": 9
                        }
                    ]
                ], 
                [
                    53058, 
                    [
                        {
                            "pitch": 76, 
                            "t0": 53058, 
                            "v": 43, 
                            "dur": 150, 
                            "type": "note", 
                            "channel": 9
                        }, 
                        {
                            "pitch": 77, 
                            "t0": 53058, 
                            "v": 53, 
                            "dur": 168, 
                            "type": "note", 
                            "channel": 9
                        }
                    ]
                ], 
                [
                    54538, 
                    [
                        {
                            "pitch": 77, 
                            "t0": 54538, 
                            "v": 63, 
                            "dur": 232, 
                            "type": "note", 
                            "channel": 9
                        }
                    ]
                ], 
                [
                    54562, 
                    [
                        {
                            "pitch": 76, 
                            "t0": 54562, 
                            "v": 55, 
                            "dur": 138, 
                            "type": "note", 
                            "channel": 9
                        }
                    ]
                ], 
                [
                    56050, 
                    [
                        {
                            "pitch": 77, 
                            "t0": 56050, 
                            "v": 60, 
                            "dur": 184, 
                            "type": "note", 
                            "channel": 9
                        }
                    ]
                ], 
                [
                    56058, 
                    [
                        {
                            "pitch": 76, 
                            "t0": 56058, 
                            "v": 51, 
                            "dur": 158, 
                            "type": "note", 
                            "channel": 9
                        }
                    ]
                ], 
                [
                    56520, 
                    [
                        {
                            "pitch": 77, 
                            "t0": 56520, 
                            "v": 46, 
                            "dur": 306, 
                            "type": "note", 
                            "channel": 9
                        }
                    ]
                ], 
                [
                    56554, 
                    [
                        {
                            "pitch": 76, 
                            "t0": 56554, 
                            "v": 25, 
                            "dur": 262, 
                            "type": "note", 
                            "channel": 9
                        }
                    ]
                ], 
                [
                    57546, 
                    [
                        {
                            "pitch": 77, 
                            "t0": 57546, 
                            "v": 61, 
                            "dur": 308, 
                            "type": "note", 
                            "channel": 9
                        }
                    ]
                ], 
                [
                    57550, 
                    [
                        {
                            "pitch": 76, 
                            "t0": 57550, 
                            "v": 50, 
                            "dur": 304, 
                            "type": "note", 
                            "channel": 9
                        }
                    ]
                ], 
                [
                    58504, 
                    [
                        {
                            "pitch": 77, 
                            "t0": 58504, 
                            "v": 57, 
                            "dur": 666, 
                            "type": "note", 
                            "channel": 9
                        }
                    ]
                ], 
                [
                    58508, 
                    [
                        {
                            "pitch": 76, 
                            "t0": 58508, 
                            "v": 52, 
                            "dur": 122, 
                            "type": "note", 
                            "channel": 9
                        }
                    ]
                ], 
                [
                    61080, 
                    [
                        {
                            "pitch": 77, 
                            "t0": 61080, 
                            "v": 68, 
                            "dur": 386, 
                            "type": "note", 
                            "channel": 9
                        }
                    ]
                ], 
                [
                    61096, 
                    [
                        {
                            "pitch": 76, 
                            "t0": 61096, 
                            "v": 61, 
                            "dur": 88, 
                            "type": "note", 
                            "channel": 9
                        }
                    ]
                ], 
                [
                    62550, 
                    [
                        {
                            "pitch": 77, 
                            "t0": 62550, 
                            "v": 67, 
                            "dur": 492, 
                            "type": "note", 
                            "channel": 9
                        }
                    ]
                ], 
                [
                    63634, 
                    [
                        {
                            "pitch": 77, 
                            "t0": 63634, 
                            "v": 48, 
                            "dur": 112, 
                            "type": "note", 
                            "channel": 9
                        }
                    ]
                ], 
                [
                    64058, 
                    [
                        {
                            "pitch": 77, 
                            "t0": 64058, 
                            "v": 61, 
                            "dur": 172, 
                            "type": "note", 
                            "channel": 9
                        }
                    ]
                ], 
                [
                    64558, 
                    [
                        {
                            "pitch": 77, 
                            "t0": 64558, 
                            "v": 63, 
                            "dur": 158, 
                            "type": "note", 
                            "channel": 9
                        }
                    ]
                ], 
                [
                    65054, 
                    [
                        {
                            "pitch": 77, 
                            "t0": 65054, 
                            "v": 72, 
                            "dur": 238, 
                            "type": "note", 
                            "channel": 9
                        }
                    ]
                ], 
                [
                    65516, 
                    [
                        {
                            "pitch": 77, 
                            "t0": 65516, 
                            "v": 64, 
                            "dur": 168, 
                            "type": "note", 
                            "channel": 9
                        }
                    ]
                ], 
                [
                    66012, 
                    [
                        {
                            "pitch": 77, 
                            "t0": 66012, 
                            "v": 67, 
                            "dur": 126, 
                            "type": "note", 
                            "channel": 9
                        }
                    ]
                ], 
                [
                    66238, 
                    [
                        {
                            "pitch": 76, 
                            "t0": 66238, 
                            "v": 54, 
                            "dur": 124, 
                            "type": "note", 
                            "channel": 9
                        }
                    ]
                ], 
                [
                    66316, 
                    [
                        {
                            "pitch": 77, 
                            "t0": 66316, 
                            "v": 50, 
                            "dur": 210, 
                            "type": "note", 
                            "channel": 9
                        }
                    ]
                ], 
                [
                    66476, 
                    [
                        {
                            "pitch": 76, 
                            "t0": 66476, 
                            "v": 63, 
                            "dur": 212, 
                            "type": "note", 
                            "channel": 9
                        }
                    ]
                ], 
                [
                    67004, 
                    [
                        {
                            "pitch": 77, 
                            "t0": 67004, 
                            "v": 76, 
                            "dur": 212, 
                            "type": "note", 
                            "channel": 9
                        }
                    ]
                ], 
                [
                    67504, 
                    [
                        {
                            "pitch": 77, 
                            "t0": 67504, 
                            "v": 68, 
                            "dur": 184, 
                            "type": "note", 
                            "channel": 9
                        }
                    ]
                ], 
                [
                    69050, 
                    [
                        {
                            "pitch": 64, 
                            "t0": 69050, 
                            "v": 69, 
                            "dur": 120, 
                            "type": "note", 
                            "channel": 9
                        }
                    ]
                ], 
                [
                    69566, 
                    [
                        {
                            "pitch": 64, 
                            "t0": 69566, 
                            "v": 52, 
                            "dur": 84, 
                            "type": "note", 
                            "channel": 9
                        }
                    ]
                ], 
                [
                    70066, 
                    [
                        {
                            "pitch": 60, 
                            "t0": 70066, 
                            "v": 70, 
                            "dur": 276, 
                            "type": "note", 
                            "channel": 9
                        }
                    ]
                ], 
                [
                    70570, 
                    [
                        {
                            "pitch": 60, 
                            "t0": 70570, 
                            "v": 52, 
                            "dur": 364, 
                            "type": "note", 
                            "channel": 9
                        }
                    ]
                ], 
                [
                    72138, 
                    [
                        {
                            "pitch": 64, 
                            "t0": 72138, 
                            "v": 45, 
                            "dur": 162, 
                            "type": "note", 
                            "channel": 9
                        }
                    ]
                ], 
                [
                    72412, 
                    [
                        {
                            "pitch": 64, 
                            "t0": 72412, 
                            "v": 45, 
                            "dur": 168, 
                            "type": "note", 
                            "channel": 9
                        }
                    ]
                ], 
                [
                    72692, 
                    [
                        {
                            "pitch": 64, 
                            "t0": 72692, 
                            "v": 45, 
                            "dur": 128, 
                            "type": "note", 
                            "channel": 9
                        }
                    ]
                ], 
                [
                    73134, 
                    [
                        {
                            "pitch": 64, 
                            "t0": 73134, 
                            "v": 69, 
                            "dur": 166, 
                            "type": "note", 
                            "channel": 9
                        }
                    ]
                ], 
                [
                    73150, 
                    [
                        {
                            "pitch": 62, 
                            "t0": 73150, 
                            "v": 59, 
                            "dur": 146, 
                            "type": "note", 
                            "channel": 9
                        }
                    ]
                ], 
                [
                    73680, 
                    [
                        {
                            "pitch": 64, 
                            "t0": 73680, 
                            "v": 45, 
                            "dur": 136, 
                            "type": "note", 
                            "channel": 9
                        }
                    ]
                ], 
                [
                    74134, 
                    [
                        {
                            "pitch": 60, 
                            "t0": 74134, 
                            "v": 79, 
                            "dur": 532, 
                            "type": "note", 
                            "channel": 9
                        }
                    ]
                ], 
                [
                    75700, 
                    [
                        {
                            "pitch": 64, 
                            "t0": 75700, 
                            "v": 41, 
                            "dur": 292, 
                            "type": "note", 
                            "channel": 9
                        }
                    ]
                ], 
                [
                    76666, 
                    [
                        {
                            "pitch": 64, 
                            "t0": 76666, 
                            "v": 50, 
                            "dur": 226, 
                            "type": "note", 
                            "channel": 9
                        }
                    ]
                ], 
                [
                    77546, 
                    [
                        {
                            "pitch": 64, 
                            "t0": 77546, 
                            "v": 42, 
                            "dur": 224, 
                            "type": "note", 
                            "channel": 9
                        }
                    ]
                ], 
                [
                    78142, 
                    [
                        {
                            "pitch": 60, 
                            "t0": 78142, 
                            "v": 81, 
                            "dur": 1400, 
                            "type": "note", 
                            "channel": 9
                        }
                    ]
                ], 
                [
                    80042, 
                    [
                        {
                            "pitch": 64, 
                            "t0": 80042, 
                            "v": 39, 
                            "dur": 150, 
                            "type": "note", 
                            "channel": 9
                        }
                    ]
                ], 
                [
                    81134, 
                    [
                        {
                            "pitch": 64, 
                            "t0": 81134, 
                            "v": 56, 
                            "dur": 408, 
                            "type": "note", 
                            "channel": 9
                        }
                    ]
                ], 
                [
                    82116, 
                    [
                        {
                            "pitch": 60, 
                            "t0": 82116, 
                            "v": 84, 
                            "dur": 222, 
                            "type": "note", 
                            "channel": 9
                        }
                    ]
                ], 
                [
                    82588, 
                    [
                        {
                            "pitch": 60, 
                            "t0": 82588, 
                            "v": 84, 
                            "dur": 624, 
                            "type": "note", 
                            "channel": 9
                        }
                    ]
                ], 
                [
                    84088, 
                    [
                        {
                            "pitch": 64, 
                            "t0": 84088, 
                            "v": 75, 
                            "dur": 208, 
                            "type": "note", 
                            "channel": 9
                        }
                    ]
                ], 
                [
                    85034, 
                    [
                        {
                            "pitch": 64, 
                            "t0": 85034, 
                            "v": 61, 
                            "dur": 158, 
                            "type": "note", 
                            "channel": 9
                        }
                    ]
                ], 
                [
                    85546, 
                    [
                        {
                            "pitch": 60, 
                            "t0": 85546, 
                            "v": 81, 
                            "dur": 754, 
                            "type": "note", 
                            "channel": 9
                        }
                    ]
                ], 
                [
                    86520, 
                    [
                        {
                            "pitch": 60, 
                            "t0": 86520, 
                            "v": 81, 
                            "dur": 1422, 
                            "type": "note", 
                            "channel": 9
                        }
                    ]
                ], 
                [
                    88000, 
                    [
                        {
                            "pitch": 64, 
                            "t0": 88000, 
                            "v": 67, 
                            "dur": 230, 
                            "type": "note", 
                            "channel": 9
                        }
                    ]
                ], 
                [
                    89080, 
                    [
                        {
                            "pitch": 64, 
                            "t0": 89080, 
                            "v": 58, 
                            "dur": 112, 
                            "type": "note", 
                            "channel": 9
                        }
                    ]
                ], 
                [
                    89096, 
                    [
                        {
                            "pitch": 65, 
                            "t0": 89096, 
                            "v": 47, 
                            "dur": 88, 
                            "type": "note", 
                            "channel": 9
                        }
                    ]
                ], 
                [
                    89346, 
                    [
                        {
                            "pitch": 64, 
                            "t0": 89346, 
                            "v": 47, 
                            "dur": 408, 
                            "type": "note", 
                            "channel": 9
                        }
                    ]
                ], 
                [
                    90076, 
                    [
                        {
                            "pitch": 60, 
                            "t0": 90076, 
                            "v": 81, 
                            "dur": 1366, 
                            "type": "note", 
                            "channel": 9
                        }
                    ]
                ], 
                [
                    91558, 
                    [
                        {
                            "pitch": 64, 
                            "t0": 91558, 
                            "v": 78, 
                            "dur": 758, 
                            "type": "note", 
                            "channel": 9
                        }
                    ]
                ], 
                [
                    92554, 
                    [
                        {
                            "pitch": 64, 
                            "t0": 92554, 
                            "v": 56, 
                            "dur": 126, 
                            "type": "note", 
                            "channel": 9
                        }
                    ]
                ], 
                [
                    93120, 
                    [
                        {
                            "pitch": 64, 
                            "t0": 93120, 
                            "v": 72, 
                            "dur": 100, 
                            "type": "note", 
                            "channel": 9
                        }
                    ]
                ], 
                [
                    93334, 
                    [
                        {
                            "pitch": 64, 
                            "t0": 93334, 
                            "v": 56, 
                            "dur": 146, 
                            "type": "note", 
                            "channel": 9
                        }
                    ]
                ], 
                [
                    93534, 
                    [
                        {
                            "pitch": 64, 
                            "t0": 93534, 
                            "v": 67, 
                            "dur": 216, 
                            "type": "note", 
                            "channel": 9
                        }
                    ]
                ], 
                [
                    94080, 
                    [
                        {
                            "pitch": 60, 
                            "t0": 94080, 
                            "v": 81, 
                            "dur": 724, 
                            "type": "note", 
                            "channel": 9
                        }
                    ]
                ], 
                [
                    94088, 
                    [
                        {
                            "pitch": 59, 
                            "t0": 94088, 
                            "v": 78, 
                            "dur": 462, 
                            "type": "note", 
                            "channel": 9
                        }
                    ]
                ], 
                [
                    95062, 
                    [
                        {
                            "pitch": 60, 
                            "t0": 95062, 
                            "v": 78, 
                            "dur": 1018, 
                            "type": "note", 
                            "channel": 9
                        }
                    ]
                ], 
                [
                    96066, 
                    [
                        {
                            "pitch": 64, 
                            "t0": 96066, 
                            "v": 67, 
                            "dur": 242, 
                            "type": "note", 
                            "channel": 9
                        }
                    ]
                ], 
                [
                    97092, 
                    [
                        {
                            "pitch": 64, 
                            "t0": 97092, 
                            "v": 61, 
                            "dur": 158, 
                            "type": "note", 
                            "channel": 9
                        }
                    ]
                ], 
                [
                    97400, 
                    [
                        {
                            "pitch": 64, 
                            "t0": 97400, 
                            "v": 50, 
                            "dur": 180, 
                            "type": "note", 
                            "channel": 9
                        }
                    ]
                ], 
                [
                    97646, 
                    [
                        {
                            "pitch": 64, 
                            "t0": 97646, 
                            "v": 58, 
                            "dur": 230, 
                            "type": "note", 
                            "channel": 9
                        }
                    ]
                ], 
                [
                    98130, 
                    [
                        {
                            "pitch": 60, 
                            "t0": 98130, 
                            "v": 84, 
                            "dur": 270, 
                            "type": "note", 
                            "channel": 9
                        }
                    ]
                ], 
                [
                    98562, 
                    [
                        {
                            "pitch": 60, 
                            "t0": 98562, 
                            "v": 75, 
                            "dur": 1196, 
                            "type": "note", 
                            "channel": 9
                        }
                    ]
                ], 
                [
                    99984, 
                    [
                        {
                            "pitch": 64, 
                            "t0": 99984, 
                            "v": 70, 
                            "dur": 824, 
                            "type": "note", 
                            "channel": 9
                        }
                    ]
                ], 
                [
                    101080, 
                    [
                        {
                            "pitch": 64, 
                            "t0": 101080, 
                            "v": 61, 
                            "dur": 246, 
                            "type": "note", 
                            "channel": 9
                        }
                    ]
                ], 
                [
                    101554, 
                    [
                        {
                            "pitch": 60, 
                            "t0": 101554, 
                            "v": 86, 
                            "dur": 1212, 
                            "type": "note", 
                            "channel": 9
                        }
                    ]
                ], 
                [
                    103026, 
                    [
                        {
                            "pitch": 60, 
                            "t0": 103026, 
                            "v": 84, 
                            "dur": 1482, 
                            "type": "note", 
                            "channel": 9
                        }
                    ]
                ], 
                [
                    105070, 
                    [
                        {
                            "pitch": 64, 
                            "t0": 105070, 
                            "v": 81, 
                            "dur": 126, 
                            "type": "note", 
                            "channel": 9
                        }
                    ]
                ], 
                [
                    105338, 
                    [
                        {
                            "pitch": 64, 
                            "t0": 105338, 
                            "v": 67, 
                            "dur": 462, 
                            "type": "note", 
                            "channel": 9
                        }
                    ]
                ], 
                [
                    106076, 
                    [
                        {
                            "pitch": 60, 
                            "t0": 106076, 
                            "v": 81, 
                            "dur": 386, 
                            "type": "note", 
                            "channel": 9
                        }
                    ]
                ], 
                [
                    106600, 
                    [
                        {
                            "pitch": 60, 
                            "t0": 106600, 
                            "v": 75, 
                            "dur": 1288, 
                            "type": "note", 
                            "channel": 9
                        }
                    ]
                ], 
                [
                    106604, 
                    [
                        {
                            "pitch": 62, 
                            "t0": 106604, 
                            "v": 72, 
                            "dur": 334, 
                            "type": "note", 
                            "channel": 9
                        }
                    ]
                ], 
                [
                    108084, 
                    [
                        {
                            "pitch": 64, 
                            "t0": 108084, 
                            "v": 78, 
                            "dur": 216, 
                            "type": "note", 
                            "channel": 9
                        }
                    ]
                ], 
                [
                    108530, 
                    [
                        {
                            "pitch": 64, 
                            "t0": 108530, 
                            "v": 67, 
                            "dur": 800, 
                            "type": "note", 
                            "channel": 9
                        }
                    ]
                ], 
                [
                    109488, 
                    [
                        {
                            "pitch": 60, 
                            "t0": 109488, 
                            "v": 81, 
                            "dur": 1150, 
                            "type": "note", 
                            "channel": 9
                        }
                    ]
                ], 
                [
                    110976, 
                    [
                        {
                            "pitch": 60, 
                            "t0": 110976, 
                            "v": 84, 
                            "dur": 1832, 
                            "type": "note", 
                            "channel": 9
                        }
                    ]
                ], 
                [
                    113084, 
                    [
                        {
                            "pitch": 64, 
                            "t0": 113084, 
                            "v": 72, 
                            "dur": 132, 
                            "type": "note", 
                            "channel": 9
                        }
                    ]
                ], 
                [
                    113342, 
                    [
                        {
                            "pitch": 64, 
                            "t0": 113342, 
                            "v": 61, 
                            "dur": 174, 
                            "type": "note", 
                            "channel": 9
                        }
                    ]
                ], 
                [
                    113562, 
                    [
                        {
                            "pitch": 64, 
                            "t0": 113562, 
                            "v": 61, 
                            "dur": 276, 
                            "type": "note", 
                            "channel": 9
                        }
                    ]
                ], 
                [
                    114100, 
                    [
                        {
                            "pitch": 60, 
                            "t0": 114100, 
                            "v": 88, 
                            "dur": 446, 
                            "type": "note", 
                            "channel": 9
                        }
                    ]
                ], 
                [
                    114638, 
                    [
                        {
                            "pitch": 60, 
                            "t0": 114638, 
                            "v": 72, 
                            "dur": 1420, 
                            "type": "note", 
                            "channel": 9
                        }
                    ]
                ], 
                [
                    116038, 
                    [
                        {
                            "pitch": 64, 
                            "t0": 116038, 
                            "v": 67, 
                            "dur": 228, 
                            "type": "note", 
                            "channel": 9
                        }
                    ]
                ], 
                [
                    116500, 
                    [
                        {
                            "pitch": 64, 
                            "t0": 116500, 
                            "v": 35, 
                            "dur": 312, 
                            "type": "note", 
                            "channel": 9
                        }
                    ]
                ], 
                [
                    117534, 
                    [
                        {
                            "pitch": 60, 
                            "t0": 117534, 
                            "v": 81, 
                            "dur": 1116, 
                            "type": "note", 
                            "channel": 9
                        }
                    ]
                ], 
                [
                    119020, 
                    [
                        {
                            "pitch": 60, 
                            "t0": 119020, 
                            "v": 88, 
                            "dur": 1838, 
                            "type": "note", 
                            "channel": 9
                        }
                    ]
                ], 
                [
                    121096, 
                    [
                        {
                            "pitch": 64, 
                            "t0": 121096, 
                            "v": 78, 
                            "dur": 134, 
                            "type": "note", 
                            "channel": 9
                        }
                    ]
                ], 
                [
                    121366, 
                    [
                        {
                            "pitch": 64, 
                            "t0": 121366, 
                            "v": 64, 
                            "dur": 146, 
                            "type": "note", 
                            "channel": 9
                        }
                    ]
                ], 
                [
                    121570, 
                    [
                        {
                            "pitch": 64, 
                            "t0": 121570, 
                            "v": 64, 
                            "dur": 234, 
                            "type": "note", 
                            "channel": 9
                        }
                    ]
                ], 
                [
                    122088, 
                    [
                        {
                            "pitch": 60, 
                            "t0": 122088, 
                            "v": 84, 
                            "dur": 396, 
                            "type": "note", 
                            "channel": 9
                        }
                    ]
                ], 
                [
                    122588, 
                    [
                        {
                            "pitch": 60, 
                            "t0": 122588, 
                            "v": 81, 
                            "dur": 1304, 
                            "type": "note", 
                            "channel": 9
                        }
                    ]
                ], 
                [
                    124030, 
                    [
                        {
                            "pitch": 64, 
                            "t0": 124030, 
                            "v": 75, 
                            "dur": 232, 
                            "type": "note", 
                            "channel": 9
                        }
                    ]
                ], 
                [
                    124516, 
                    [
                        {
                            "pitch": 64, 
                            "t0": 124516, 
                            "v": 81, 
                            "dur": 688, 
                            "type": "note", 
                            "channel": 9
                        }
                    ]
                ], 
                [
                    125546, 
                    [
                        {
                            "pitch": 60, 
                            "t0": 125546, 
                            "v": 81, 
                            "dur": 1192, 
                            "type": "note", 
                            "channel": 9
                        }
                    ]
                ], 
                [
                    126996, 
                    [
                        {
                            "pitch": 60, 
                            "t0": 126996, 
                            "v": 84, 
                            "dur": 1224, 
                            "type": "note", 
                            "channel": 9
                        }
                    ]
                ], 
                [
                    129076, 
                    [
                        {
                            "pitch": 64, 
                            "t0": 129076, 
                            "v": 70, 
                            "dur": 86, 
                            "type": "note", 
                            "channel": 9
                        }
                    ]
                ], 
                [
                    129338, 
                    [
                        {
                            "pitch": 65, 
                            "t0": 129338, 
                            "v": 53, 
                            "dur": 158, 
                            "type": "note", 
                            "channel": 9
                        }, 
                        {
                            "pitch": 64, 
                            "t0": 129338, 
                            "v": 50, 
                            "dur": 178, 
                            "type": "note", 
                            "channel": 9
                        }
                    ]
                ], 
                [
                    129566, 
                    [
                        {
                            "pitch": 64, 
                            "t0": 129566, 
                            "v": 34, 
                            "dur": 192, 
                            "type": "note", 
                            "channel": 9
                        }
                    ]
                ], 
                [
                    129584, 
                    [
                        {
                            "pitch": 65, 
                            "t0": 129584, 
                            "v": 50, 
                            "dur": 136, 
                            "type": "note", 
                            "channel": 9
                        }
                    ]
                ], 
                [
                    130070, 
                    [
                        {
                            "pitch": 60, 
                            "t0": 130070, 
                            "v": 84, 
                            "dur": 318, 
                            "type": "note", 
                            "channel": 9
                        }
                    ]
                ], 
                [
                    130100, 
                    [
                        {
                            "pitch": 62, 
                            "t0": 130100, 
                            "v": 47, 
                            "dur": 104, 
                            "type": "note", 
                            "channel": 9
                        }
                    ]
                ], 
                [
                    130534, 
                    [
                        {
                            "pitch": 60, 
                            "t0": 130534, 
                            "v": 81, 
                            "dur": 1242, 
                            "type": "note", 
                            "channel": 9
                        }
                    ]
                ], 
                [
                    132050, 
                    [
                        {
                            "pitch": 64, 
                            "t0": 132050, 
                            "v": 81, 
                            "dur": 288, 
                            "type": "note", 
                            "channel": 9
                        }
                    ]
                ], 
                [
                    132526, 
                    [
                        {
                            "pitch": 64, 
                            "t0": 132526, 
                            "v": 72, 
                            "dur": 316, 
                            "type": "note", 
                            "channel": 9
                        }
                    ]
                ], 
                [
                    133604, 
                    [
                        {
                            "pitch": 60, 
                            "t0": 133604, 
                            "v": 84, 
                            "dur": 1200, 
                            "type": "note", 
                            "channel": 9
                        }
                    ]
                ], 
                [
                    135100, 
                    [
                        {
                            "pitch": 60, 
                            "t0": 135100, 
                            "v": 86, 
                            "dur": 1588, 
                            "type": "note", 
                            "channel": 9
                        }
                    ]
                ], 
                [
                    137120, 
                    [
                        {
                            "pitch": 64, 
                            "t0": 137120, 
                            "v": 72, 
                            "dur": 122, 
                            "type": "note", 
                            "channel": 9
                        }
                    ]
                ], 
                [
                    137380, 
                    [
                        {
                            "pitch": 64, 
                            "t0": 137380, 
                            "v": 56, 
                            "dur": 162, 
                            "type": "note", 
                            "channel": 9
                        }
                    ]
                ], 
                [
                    137608, 
                    [
                        {
                            "pitch": 64, 
                            "t0": 137608, 
                            "v": 61, 
                            "dur": 230, 
                            "type": "note", 
                            "channel": 9
                        }
                    ]
                ], 
                [
                    138100, 
                    [
                        {
                            "pitch": 60, 
                            "t0": 138100, 
                            "v": 86, 
                            "dur": 384, 
                            "type": "note", 
                            "channel": 9
                        }
                    ]
                ], 
                [
                    138580, 
                    [
                        {
                            "pitch": 60, 
                            "t0": 138580, 
                            "v": 81, 
                            "dur": 1328, 
                            "type": "note", 
                            "channel": 9
                        }
                    ]
                ], 
                [
                    140066, 
                    [
                        {
                            "pitch": 64, 
                            "t0": 140066, 
                            "v": 67, 
                            "dur": 184, 
                            "type": "note", 
                            "channel": 9
                        }
                    ]
                ], 
                [
                    140530, 
                    [
                        {
                            "pitch": 64, 
                            "t0": 140530, 
                            "v": 64, 
                            "dur": 336, 
                            "type": "note", 
                            "channel": 9
                        }
                    ]
                ], 
                [
                    141550, 
                    [
                        {
                            "pitch": 60, 
                            "t0": 141550, 
                            "v": 86, 
                            "dur": 1176, 
                            "type": "note", 
                            "channel": 9
                        }
                    ]
                ], 
                [
                    143046, 
                    [
                        {
                            "pitch": 60, 
                            "t0": 143046, 
                            "v": 86, 
                            "dur": 1220, 
                            "type": "note", 
                            "channel": 9
                        }
                    ]
                ], 
                [
                    145112, 
                    [
                        {
                            "pitch": 64, 
                            "t0": 145112, 
                            "v": 81, 
                            "dur": 138, 
                            "type": "note", 
                            "channel": 9
                        }
                    ]
                ], 
                [
                    145376, 
                    [
                        {
                            "pitch": 64, 
                            "t0": 145376, 
                            "v": 61, 
                            "dur": 162, 
                            "type": "note", 
                            "channel": 9
                        }
                    ]
                ], 
                [
                    145608, 
                    [
                        {
                            "pitch": 64, 
                            "t0": 145608, 
                            "v": 72, 
                            "dur": 234, 
                            "type": "note", 
                            "channel": 9
                        }
                    ]
                ], 
                [
                    146120, 
                    [
                        {
                            "pitch": 60, 
                            "t0": 146120, 
                            "v": 86, 
                            "dur": 314, 
                            "type": "note", 
                            "channel": 9
                        }
                    ]
                ], 
                [
                    146558, 
                    [
                        {
                            "pitch": 60, 
                            "t0": 146558, 
                            "v": 81, 
                            "dur": 1204, 
                            "type": "note", 
                            "channel": 9
                        }
                    ]
                ], 
                [
                    148158, 
                    [
                        {
                            "pitch": 64, 
                            "t0": 148158, 
                            "v": 33, 
                            "dur": 118, 
                            "type": "note", 
                            "channel": 9
                        }
                    ]
                ], 
                [
                    148608, 
                    [
                        {
                            "pitch": 64, 
                            "t0": 148608, 
                            "v": 81, 
                            "dur": 258, 
                            "type": "note", 
                            "channel": 9
                        }
                    ]
                ], 
                [
                    149634, 
                    [
                        {
                            "pitch": 60, 
                            "t0": 149634, 
                            "v": 86, 
                            "dur": 1074, 
                            "type": "note", 
                            "channel": 9
                        }
                    ]
                ], 
                [
                    151070, 
                    [
                        {
                            "pitch": 60, 
                            "t0": 151070, 
                            "v": 84, 
                            "dur": 792, 
                            "type": "note", 
                            "channel": 9
                        }
                    ]
                ], 
                [
                    153108, 
                    [
                        {
                            "pitch": 64, 
                            "t0": 153108, 
                            "v": 72, 
                            "dur": 96, 
                            "type": "note", 
                            "channel": 9
                        }
                    ]
                ], 
                [
                    153370, 
                    [
                        {
                            "pitch": 64, 
                            "t0": 153370, 
                            "v": 75, 
                            "dur": 168, 
                            "type": "note", 
                            "channel": 9
                        }
                    ]
                ], 
                [
                    153600, 
                    [
                        {
                            "pitch": 64, 
                            "t0": 153600, 
                            "v": 56, 
                            "dur": 176, 
                            "type": "note", 
                            "channel": 9
                        }
                    ]
                ], 
                [
                    154076, 
                    [
                        {
                            "pitch": 60, 
                            "t0": 154076, 
                            "v": 81, 
                            "dur": 208, 
                            "type": "note", 
                            "channel": 9
                        }
                    ]
                ], 
                [
                    154080, 
                    [
                        {
                            "pitch": 59, 
                            "t0": 154080, 
                            "v": 75, 
                            "dur": 186, 
                            "type": "note", 
                            "channel": 9
                        }
                    ]
                ], 
                [
                    154526, 
                    [
                        {
                            "pitch": 60, 
                            "t0": 154526, 
                            "v": 81, 
                            "dur": 908, 
                            "type": "note", 
                            "channel": 9
                        }
                    ]
                ], 
                [
                    156016, 
                    [
                        {
                            "pitch": 64, 
                            "t0": 156016, 
                            "v": 72, 
                            "dur": 210, 
                            "type": "note", 
                            "channel": 9
                        }
                    ]
                ], 
                [
                    156488, 
                    [
                        {
                            "pitch": 64, 
                            "t0": 156488, 
                            "v": 67, 
                            "dur": 308, 
                            "type": "note", 
                            "channel": 9
                        }
                    ]
                ], 
                [
                    157600, 
                    [
                        {
                            "pitch": 60, 
                            "t0": 157600, 
                            "v": 81, 
                            "dur": 1176, 
                            "type": "note", 
                            "channel": 9
                        }
                    ]
                ], 
                [
                    159070, 
                    [
                        {
                            "pitch": 60, 
                            "t0": 159070, 
                            "v": 86, 
                            "dur": 1022, 
                            "type": "note", 
                            "channel": 9
                        }
                    ]
                ], 
                [
                    161066, 
                    [
                        {
                            "pitch": 64, 
                            "t0": 161066, 
                            "v": 70, 
                            "dur": 134, 
                            "type": "note", 
                            "channel": 9
                        }
                    ]
                ], 
                [
                    161362, 
                    [
                        {
                            "pitch": 64, 
                            "t0": 161362, 
                            "v": 67, 
                            "dur": 426, 
                            "type": "note", 
                            "channel": 9
                        }
                    ]
                ], 
                [
                    162080, 
                    [
                        {
                            "pitch": 60, 
                            "t0": 162080, 
                            "v": 84, 
                            "dur": 336, 
                            "type": "note", 
                            "channel": 9
                        }
                    ]
                ], 
                [
                    162554, 
                    [
                        {
                            "pitch": 60, 
                            "t0": 162554, 
                            "v": 81, 
                            "dur": 1288, 
                            "type": "note", 
                            "channel": 9
                        }
                    ]
                ], 
                [
                    164100, 
                    [
                        {
                            "pitch": 64, 
                            "t0": 164100, 
                            "v": 75, 
                            "dur": 280, 
                            "type": "note", 
                            "channel": 9
                        }
                    ]
                ], 
                [
                    164596, 
                    [
                        {
                            "pitch": 64, 
                            "t0": 164596, 
                            "v": 75, 
                            "dur": 574, 
                            "type": "note", 
                            "channel": 9
                        }
                    ]
                ], 
                [
                    165620, 
                    [
                        {
                            "pitch": 60, 
                            "t0": 165620, 
                            "v": 81, 
                            "dur": 1118, 
                            "type": "note", 
                            "channel": 9
                        }
                    ]
                ], 
                [
                    167096, 
                    [
                        {
                            "pitch": 60, 
                            "t0": 167096, 
                            "v": 84, 
                            "dur": 1442, 
                            "type": "note", 
                            "channel": 9
                        }
                    ]
                ], 
                [
                    169104, 
                    [
                        {
                            "pitch": 64, 
                            "t0": 169104, 
                            "v": 70, 
                            "dur": 146, 
                            "type": "note", 
                            "channel": 9
                        }
                    ]
                ], 
                [
                    169392, 
                    [
                        {
                            "pitch": 64, 
                            "t0": 169392, 
                            "v": 56, 
                            "dur": 158, 
                            "type": "note", 
                            "channel": 9
                        }
                    ]
                ], 
                [
                    169620, 
                    [
                        {
                            "pitch": 64, 
                            "t0": 169620, 
                            "v": 53, 
                            "dur": 188, 
                            "type": "note", 
                            "channel": 9
                        }
                    ]
                ], 
                [
                    170076, 
                    [
                        {
                            "pitch": 60, 
                            "t0": 170076, 
                            "v": 84, 
                            "dur": 290, 
                            "type": "note", 
                            "channel": 9
                        }
                    ]
                ], 
                [
                    170534, 
                    [
                        {
                            "pitch": 60, 
                            "t0": 170534, 
                            "v": 81, 
                            "dur": 1270, 
                            "type": "note", 
                            "channel": 9
                        }
                    ]
                ], 
                [
                    171988, 
                    [
                        {
                            "pitch": 64, 
                            "t0": 171988, 
                            "v": 75, 
                            "dur": 220, 
                            "type": "note", 
                            "channel": 9
                        }
                    ]
                ], 
                [
                    172500, 
                    [
                        {
                            "pitch": 64, 
                            "t0": 172500, 
                            "v": 64, 
                            "dur": 450, 
                            "type": "note", 
                            "channel": 9
                        }
                    ]
                ], 
                [
                    173562, 
                    [
                        {
                            "pitch": 60, 
                            "t0": 173562, 
                            "v": 81, 
                            "dur": 896, 
                            "type": "note", 
                            "channel": 9
                        }
                    ]
                ], 
                [
                    175008, 
                    [
                        {
                            "pitch": 60, 
                            "t0": 175008, 
                            "v": 84, 
                            "dur": 368, 
                            "type": "note", 
                            "channel": 9
                        }
                    ]
                ], 
                [
                    175516, 
                    [
                        {
                            "pitch": 60, 
                            "t0": 175516, 
                            "v": 78, 
                            "dur": 568, 
                            "type": "note", 
                            "channel": 9
                        }
                    ]
                ], 
                [
                    177092, 
                    [
                        {
                            "pitch": 64, 
                            "t0": 177092, 
                            "v": 78, 
                            "dur": 138, 
                            "type": "note", 
                            "channel": 9
                        }
                    ]
                ], 
                [
                    177350, 
                    [
                        {
                            "pitch": 64, 
                            "t0": 177350, 
                            "v": 64, 
                            "dur": 366, 
                            "type": "note", 
                            "channel": 9
                        }
                    ]
                ], 
                [
                    177992, 
                    [
                        {
                            "pitch": 60, 
                            "t0": 177992, 
                            "v": 81, 
                            "dur": 242, 
                            "type": "note", 
                            "channel": 9
                        }
                    ]
                ], 
                [
                    178470, 
                    [
                        {
                            "pitch": 60, 
                            "t0": 178470, 
                            "v": 81, 
                            "dur": 1122, 
                            "type": "note", 
                            "channel": 9
                        }
                    ]
                ], 
                [
                    180020, 
                    [
                        {
                            "pitch": 64, 
                            "t0": 180020, 
                            "v": 78, 
                            "dur": 264, 
                            "type": "note", 
                            "channel": 9
                        }
                    ]
                ], 
                [
                    180534, 
                    [
                        {
                            "pitch": 64, 
                            "t0": 180534, 
                            "v": 58, 
                            "dur": 158, 
                            "type": "note", 
                            "channel": 9
                        }
                    ]
                ], 
                [
                    181538, 
                    [
                        {
                            "pitch": 60, 
                            "t0": 181538, 
                            "v": 78, 
                            "dur": 700, 
                            "type": "note", 
                            "channel": 9
                        }
                    ]
                ], 
                [
                    181550, 
                    [
                        {
                            "pitch": 62, 
                            "t0": 181550, 
                            "v": 75, 
                            "dur": 204, 
                            "type": "note", 
                            "channel": 9
                        }
                    ]
                ], 
                [
                    183050, 
                    [
                        {
                            "pitch": 60, 
                            "t0": 183050, 
                            "v": 84, 
                            "dur": 596, 
                            "type": "note", 
                            "channel": 9
                        }
                    ]
                ], 
                [
                    185038, 
                    [
                        {
                            "pitch": 64, 
                            "t0": 185038, 
                            "v": 61, 
                            "dur": 112, 
                            "type": "note", 
                            "channel": 9
                        }
                    ]
                ], 
                [
                    185350, 
                    [
                        {
                            "pitch": 64, 
                            "t0": 185350, 
                            "v": 50, 
                            "dur": 416, 
                            "type": "note", 
                            "channel": 9
                        }
                    ]
                ], 
                [
                    186062, 
                    [
                        {
                            "pitch": 60, 
                            "t0": 186062, 
                            "v": 81, 
                            "dur": 268, 
                            "type": "note", 
                            "channel": 9
                        }
                    ]
                ], 
                [
                    186546, 
                    [
                        {
                            "pitch": 60, 
                            "t0": 186546, 
                            "v": 81, 
                            "dur": 1184, 
                            "type": "note", 
                            "channel": 9
                        }
                    ]
                ], 
                [
                    188050, 
                    [
                        {
                            "pitch": 64, 
                            "t0": 188050, 
                            "v": 75, 
                            "dur": 208, 
                            "type": "note", 
                            "channel": 9
                        }
                    ]
                ], 
                [
                    188588, 
                    [
                        {
                            "pitch": 64, 
                            "t0": 188588, 
                            "v": 61, 
                            "dur": 420, 
                            "type": "note", 
                            "channel": 9
                        }
                    ]
                ], 
                [
                    189646, 
                    [
                        {
                            "pitch": 60, 
                            "t0": 189646, 
                            "v": 78, 
                            "dur": 824, 
                            "type": "note", 
                            "channel": 9
                        }
                    ]
                ], 
                [
                    189654, 
                    [
                        {
                            "pitch": 59, 
                            "t0": 189654, 
                            "v": 78, 
                            "dur": 330, 
                            "type": "note", 
                            "channel": 9
                        }
                    ]
                ], 
                [
                    191016, 
                    [
                        {
                            "pitch": 60, 
                            "t0": 191016, 
                            "v": 84, 
                            "dur": 914, 
                            "type": "note", 
                            "channel": 9
                        }
                    ]
                ], 
                [
                    193084, 
                    [
                        {
                            "pitch": 64, 
                            "t0": 193084, 
                            "v": 58, 
                            "dur": 204, 
                            "type": "note", 
                            "channel": 9
                        }
                    ]
                ], 
                [
                    193388, 
                    [
                        {
                            "pitch": 64, 
                            "t0": 193388, 
                            "v": 61, 
                            "dur": 478, 
                            "type": "note", 
                            "channel": 9
                        }
                    ]
                ], 
                [
                    194054, 
                    [
                        {
                            "pitch": 60, 
                            "t0": 194054, 
                            "v": 84, 
                            "dur": 380, 
                            "type": "note", 
                            "channel": 9
                        }
                    ]
                ], 
                [
                    194576, 
                    [
                        {
                            "pitch": 60, 
                            "t0": 194576, 
                            "v": 78, 
                            "dur": 1332, 
                            "type": "note", 
                            "channel": 9
                        }
                    ]
                ], 
                [
                    196042, 
                    [
                        {
                            "pitch": 64, 
                            "t0": 196042, 
                            "v": 58, 
                            "dur": 288, 
                            "type": "note", 
                            "channel": 9
                        }
                    ]
                ], 
                [
                    196538, 
                    [
                        {
                            "pitch": 64, 
                            "t0": 196538, 
                            "v": 44, 
                            "dur": 454, 
                            "type": "note", 
                            "channel": 9
                        }
                    ]
                ], 
                [
                    197600, 
                    [
                        {
                            "pitch": 60, 
                            "t0": 197600, 
                            "v": 81, 
                            "dur": 1238, 
                            "type": "note", 
                            "channel": 9
                        }
                    ]
                ], 
                [
                    199076, 
                    [
                        {
                            "pitch": 60, 
                            "t0": 199076, 
                            "v": 78, 
                            "dur": 400, 
                            "type": "note", 
                            "channel": 9
                        }
                    ]
                ], 
                [
                    199592, 
                    [
                        {
                            "pitch": 60, 
                            "t0": 199592, 
                            "v": 75, 
                            "dur": 612, 
                            "type": "note", 
                            "channel": 9
                        }
                    ]
                ], 
                [
                    201076, 
                    [
                        {
                            "pitch": 64, 
                            "t0": 201076, 
                            "v": 75, 
                            "dur": 150, 
                            "type": "note", 
                            "channel": 9
                        }
                    ]
                ], 
                [
                    201354, 
                    [
                        {
                            "pitch": 64, 
                            "t0": 201354, 
                            "v": 64, 
                            "dur": 412, 
                            "type": "note", 
                            "channel": 9
                        }
                    ]
                ], 
                [
                    202058, 
                    [
                        {
                            "pitch": 60, 
                            "t0": 202058, 
                            "v": 81, 
                            "dur": 296, 
                            "type": "note", 
                            "channel": 9
                        }
                    ]
                ], 
                [
                    202516, 
                    [
                        {
                            "pitch": 60, 
                            "t0": 202516, 
                            "v": 81, 
                            "dur": 1318, 
                            "type": "note", 
                            "channel": 9
                        }
                    ]
                ], 
                [
                    204042, 
                    [
                        {
                            "pitch": 64, 
                            "t0": 204042, 
                            "v": 75, 
                            "dur": 254, 
                            "type": "note", 
                            "channel": 9
                        }
                    ]
                ], 
                [
                    204566, 
                    [
                        {
                            "pitch": 64, 
                            "t0": 204566, 
                            "v": 81, 
                            "dur": 600, 
                            "type": "note", 
                            "channel": 9
                        }
                    ]
                ], 
                [
                    205608, 
                    [
                        {
                            "pitch": 60, 
                            "t0": 205608, 
                            "v": 84, 
                            "dur": 738, 
                            "type": "note", 
                            "channel": 9
                        }
                    ]
                ], 
                [
                    206580, 
                    [
                        {
                            "pitch": 60, 
                            "t0": 206580, 
                            "v": 84, 
                            "dur": 704, 
                            "type": "note", 
                            "channel": 9
                        }
                    ]
                ], 
                [
                    207496, 
                    [
                        {
                            "pitch": 60, 
                            "t0": 207496, 
                            "v": 81, 
                            "dur": 480, 
                            "type": "note", 
                            "channel": 9
                        }
                    ]
                ], 
                [
                    209066, 
                    [
                        {
                            "pitch": 64, 
                            "t0": 209066, 
                            "v": 78, 
                            "dur": 142, 
                            "type": "note", 
                            "channel": 9
                        }
                    ]
                ], 
                [
                    209326, 
                    [
                        {
                            "pitch": 64, 
                            "t0": 209326, 
                            "v": 70, 
                            "dur": 450, 
                            "type": "note", 
                            "channel": 9
                        }
                    ]
                ], 
                [
                    210088, 
                    [
                        {
                            "pitch": 60, 
                            "t0": 210088, 
                            "v": 84, 
                            "dur": 270, 
                            "type": "note", 
                            "channel": 9
                        }
                    ]
                ], 
                [
                    210550, 
                    [
                        {
                            "pitch": 60, 
                            "t0": 210550, 
                            "v": 86, 
                            "dur": 1188, 
                            "type": "note", 
                            "channel": 9
                        }
                    ]
                ], 
                [
                    212050, 
                    [
                        {
                            "pitch": 64, 
                            "t0": 212050, 
                            "v": 75, 
                            "dur": 270, 
                            "type": "note", 
                            "channel": 9
                        }
                    ]
                ], 
                [
                    212546, 
                    [
                        {
                            "pitch": 64, 
                            "t0": 212546, 
                            "v": 75, 
                            "dur": 462, 
                            "type": "note", 
                            "channel": 9
                        }
                    ]
                ], 
                [
                    213580, 
                    [
                        {
                            "pitch": 60, 
                            "t0": 213580, 
                            "v": 84, 
                            "dur": 950, 
                            "type": "note", 
                            "channel": 9
                        }
                    ]
                ], 
                [
                    215020, 
                    [
                        {
                            "pitch": 60, 
                            "t0": 215020, 
                            "v": 84, 
                            "dur": 356, 
                            "type": "note", 
                            "channel": 9
                        }
                    ]
                ], 
                [
                    215500, 
                    [
                        {
                            "pitch": 60, 
                            "t0": 215500, 
                            "v": 81, 
                            "dur": 650, 
                            "type": "note", 
                            "channel": 9
                        }
                    ]
                ], 
                [
                    217050, 
                    [
                        {
                            "pitch": 64, 
                            "t0": 217050, 
                            "v": 78, 
                            "dur": 134, 
                            "type": "note", 
                            "channel": 9
                        }
                    ]
                ], 
                [
                    217330, 
                    [
                        {
                            "pitch": 64, 
                            "t0": 217330, 
                            "v": 64, 
                            "dur": 178, 
                            "type": "note", 
                            "channel": 9
                        }
                    ]
                ], 
                [
                    217570, 
                    [
                        {
                            "pitch": 64, 
                            "t0": 217570, 
                            "v": 64, 
                            "dur": 188, 
                            "type": "note", 
                            "channel": 9
                        }
                    ]
                ], 
                [
                    218080, 
                    [
                        {
                            "pitch": 60, 
                            "t0": 218080, 
                            "v": 81, 
                            "dur": 320, 
                            "type": "note", 
                            "channel": 9
                        }
                    ]
                ], 
                [
                    218558, 
                    [
                        {
                            "pitch": 60, 
                            "t0": 218558, 
                            "v": 86, 
                            "dur": 954, 
                            "type": "note", 
                            "channel": 9
                        }
                    ]
                ], 
                [
                    220062, 
                    [
                        {
                            "pitch": 64, 
                            "t0": 220062, 
                            "v": 84, 
                            "dur": 238, 
                            "type": "note", 
                            "channel": 9
                        }
                    ]
                ], 
                [
                    220554, 
                    [
                        {
                            "pitch": 64, 
                            "t0": 220554, 
                            "v": 78, 
                            "dur": 430, 
                            "type": "note", 
                            "channel": 9
                        }
                    ]
                ], 
                [
                    221600, 
                    [
                        {
                            "pitch": 60, 
                            "t0": 221600, 
                            "v": 84, 
                            "dur": 1038, 
                            "type": "note", 
                            "channel": 9
                        }
                    ]
                ], 
                [
                    223066, 
                    [
                        {
                            "pitch": 60, 
                            "t0": 223066, 
                            "v": 84, 
                            "dur": 380, 
                            "type": "note", 
                            "channel": 9
                        }
                    ]
                ], 
                [
                    223550, 
                    [
                        {
                            "pitch": 60, 
                            "t0": 223550, 
                            "v": 84, 
                            "dur": 650, 
                            "type": "note", 
                            "channel": 9
                        }
                    ]
                ], 
                [
                    225104, 
                    [
                        {
                            "pitch": 64, 
                            "t0": 225104, 
                            "v": 72, 
                            "dur": 108, 
                            "type": "note", 
                            "channel": 9
                        }
                    ]
                ], 
                [
                    225370, 
                    [
                        {
                            "pitch": 64, 
                            "t0": 225370, 
                            "v": 67, 
                            "dur": 176, 
                            "type": "note", 
                            "channel": 9
                        }
                    ]
                ], 
                [
                    225604, 
                    [
                        {
                            "pitch": 64, 
                            "t0": 225604, 
                            "v": 44, 
                            "dur": 172, 
                            "type": "note", 
                            "channel": 9
                        }
                    ]
                ], 
                [
                    226108, 
                    [
                        {
                            "pitch": 60, 
                            "t0": 226108, 
                            "v": 84, 
                            "dur": 250, 
                            "type": "note", 
                            "channel": 9
                        }
                    ]
                ], 
                [
                    226566, 
                    [
                        {
                            "pitch": 60, 
                            "t0": 226566, 
                            "v": 81, 
                            "dur": 960, 
                            "type": "note", 
                            "channel": 9
                        }
                    ]
                ], 
                [
                    228026, 
                    [
                        {
                            "pitch": 64, 
                            "t0": 228026, 
                            "v": 78, 
                            "dur": 236, 
                            "type": "note", 
                            "channel": 9
                        }
                    ]
                ], 
                [
                    228534, 
                    [
                        {
                            "pitch": 64, 
                            "t0": 228534, 
                            "v": 72, 
                            "dur": 158, 
                            "type": "note", 
                            "channel": 9
                        }
                    ]
                ], 
                [
                    229570, 
                    [
                        {
                            "pitch": 60, 
                            "t0": 229570, 
                            "v": 84, 
                            "dur": 646, 
                            "type": "note", 
                            "channel": 9
                        }
                    ]
                ], 
                [
                    231066, 
                    [
                        {
                            "pitch": 60, 
                            "t0": 231066, 
                            "v": 84, 
                            "dur": 330, 
                            "type": "note", 
                            "channel": 9
                        }
                    ]
                ], 
                [
                    231542, 
                    [
                        {
                            "pitch": 60, 
                            "t0": 231542, 
                            "v": 81, 
                            "dur": 546, 
                            "type": "note", 
                            "channel": 9
                        }
                    ]
                ], 
                [
                    233050, 
                    [
                        {
                            "pitch": 64, 
                            "t0": 233050, 
                            "v": 78, 
                            "dur": 130, 
                            "type": "note", 
                            "channel": 9
                        }
                    ]
                ], 
                [
                    233330, 
                    [
                        {
                            "pitch": 64, 
                            "t0": 233330, 
                            "v": 64, 
                            "dur": 178, 
                            "type": "note", 
                            "channel": 9
                        }
                    ]
                ], 
                [
                    233550, 
                    [
                        {
                            "pitch": 64, 
                            "t0": 233550, 
                            "v": 37, 
                            "dur": 200, 
                            "type": "note", 
                            "channel": 9
                        }
                    ]
                ], 
                [
                    234116, 
                    [
                        {
                            "pitch": 60, 
                            "t0": 234116, 
                            "v": 81, 
                            "dur": 868, 
                            "type": "note", 
                            "channel": 9
                        }
                    ]
                ], 
                [
                    235566, 
                    [
                        {
                            "pitch": 64, 
                            "t0": 235566, 
                            "v": 75, 
                            "dur": 492, 
                            "type": "note", 
                            "channel": 9
                        }
                    ]
                ], 
                [
                    236520, 
                    [
                        {
                            "pitch": 64, 
                            "t0": 236520, 
                            "v": 81, 
                            "dur": 514, 
                            "type": "note", 
                            "channel": 9
                        }
                    ]
                ], 
                [
                    237534, 
                    [
                        {
                            "pitch": 64, 
                            "t0": 237534, 
                            "v": 64, 
                            "dur": 216, 
                            "type": "note", 
                            "channel": 9
                        }
                    ]
                ], 
                [
                    238034, 
                    [
                        {
                            "pitch": 60, 
                            "t0": 238034, 
                            "v": 78, 
                            "dur": 558, 
                            "type": "note", 
                            "channel": 9
                        }
                    ]
                ], 
                [
                    239050, 
                    [
                        {
                            "pitch": 60, 
                            "t0": 239050, 
                            "v": 84, 
                            "dur": 858, 
                            "type": "note", 
                            "channel": 9
                        }
                    ]
                ], 
                [
                    241050, 
                    [
                        {
                            "pitch": 64, 
                            "t0": 241050, 
                            "v": 75, 
                            "dur": 92, 
                            "type": "note", 
                            "channel": 9
                        }
                    ]
                ], 
                [
                    241312, 
                    [
                        {
                            "pitch": 64, 
                            "t0": 241312, 
                            "v": 70, 
                            "dur": 142, 
                            "type": "note", 
                            "channel": 9
                        }
                    ]
                ], 
                [
                    241562, 
                    [
                        {
                            "pitch": 64, 
                            "t0": 241562, 
                            "v": 70, 
                            "dur": 226, 
                            "type": "note", 
                            "channel": 9
                        }
                    ]
                ], 
                [
                    242080, 
                    [
                        {
                            "pitch": 60, 
                            "t0": 242080, 
                            "v": 86, 
                            "dur": 236, 
                            "type": "note", 
                            "channel": 9
                        }
                    ]
                ], 
                [
                    242546, 
                    [
                        {
                            "pitch": 60, 
                            "t0": 242546, 
                            "v": 84, 
                            "dur": 1046, 
                            "type": "note", 
                            "channel": 9
                        }
                    ]
                ], 
                [
                    244050, 
                    [
                        {
                            "pitch": 62, 
                            "t0": 244050, 
                            "v": 32, 
                            "dur": 112, 
                            "type": "note", 
                            "channel": 9
                        }
                    ]
                ], 
                [
                    244054, 
                    [
                        {
                            "pitch": 64, 
                            "t0": 244054, 
                            "v": 27, 
                            "dur": 108, 
                            "type": "note", 
                            "channel": 9
                        }
                    ]
                ], 
                [
                    245100, 
                    [
                        {
                            "pitch": 64, 
                            "t0": 245100, 
                            "v": 53, 
                            "dur": 146, 
                            "type": "note", 
                            "channel": 9
                        }
                    ]
                ], 
                [
                    245570, 
                    [
                        {
                            "pitch": 60, 
                            "t0": 245570, 
                            "v": 75, 
                            "dur": 934, 
                            "type": "note", 
                            "channel": 9
                        }
                    ]
                ], 
                [
                    247108, 
                    [
                        {
                            "pitch": 60, 
                            "t0": 247108, 
                            "v": 81, 
                            "dur": 326, 
                            "type": "note", 
                            "channel": 9
                        }
                    ]
                ], 
                [
                    247566, 
                    [
                        {
                            "pitch": 60, 
                            "t0": 247566, 
                            "v": 75, 
                            "dur": 450, 
                            "type": "note", 
                            "channel": 9
                        }
                    ]
                ], 
                [
                    249050, 
                    [
                        {
                            "pitch": 64, 
                            "t0": 249050, 
                            "v": 72, 
                            "dur": 120, 
                            "type": "note", 
                            "channel": 9
                        }
                    ]
                ], 
                [
                    249334, 
                    [
                        {
                            "pitch": 64, 
                            "t0": 249334, 
                            "v": 61, 
                            "dur": 158, 
                            "type": "note", 
                            "channel": 9
                        }
                    ]
                ], 
                [
                    249546, 
                    [
                        {
                            "pitch": 64, 
                            "t0": 249546, 
                            "v": 58, 
                            "dur": 208, 
                            "type": "note", 
                            "channel": 9
                        }
                    ]
                ], 
                [
                    250034, 
                    [
                        {
                            "pitch": 60, 
                            "t0": 250034, 
                            "v": 78, 
                            "dur": 278, 
                            "type": "note", 
                            "channel": 9
                        }
                    ]
                ], 
                [
                    250534, 
                    [
                        {
                            "pitch": 60, 
                            "t0": 250534, 
                            "v": 81, 
                            "dur": 942, 
                            "type": "note", 
                            "channel": 9
                        }
                    ]
                ], 
                [
                    252012, 
                    [
                        {
                            "pitch": 64, 
                            "t0": 252012, 
                            "v": 78, 
                            "dur": 218, 
                            "type": "note", 
                            "channel": 9
                        }
                    ]
                ], 
                [
                    252488, 
                    [
                        {
                            "pitch": 64, 
                            "t0": 252488, 
                            "v": 75, 
                            "dur": 258, 
                            "type": "note", 
                            "channel": 9
                        }
                    ]
                ], 
                [
                    253520, 
                    [
                        {
                            "pitch": 60, 
                            "t0": 253520, 
                            "v": 84, 
                            "dur": 918, 
                            "type": "note", 
                            "channel": 9
                        }
                    ]
                ], 
                [
                    254996, 
                    [
                        {
                            "pitch": 60, 
                            "t0": 254996, 
                            "v": 84, 
                            "dur": 434, 
                            "type": "note", 
                            "channel": 9
                        }
                    ]
                ], 
                [
                    257050, 
                    [
                        {
                            "pitch": 64, 
                            "t0": 257050, 
                            "v": 61, 
                            "dur": 112, 
                            "type": "note", 
                            "channel": 9
                        }
                    ]
                ], 
                [
                    257326, 
                    [
                        {
                            "pitch": 64, 
                            "t0": 257326, 
                            "v": 72, 
                            "dur": 350, 
                            "type": "note", 
                            "channel": 9
                        }
                    ]
                ], 
                [
                    258026, 
                    [
                        {
                            "pitch": 60, 
                            "t0": 258026, 
                            "v": 86, 
                            "dur": 262, 
                            "type": "note", 
                            "channel": 9
                        }
                    ]
                ], 
                [
                    258492, 
                    [
                        {
                            "pitch": 60, 
                            "t0": 258492, 
                            "v": 81, 
                            "dur": 792, 
                            "type": "note", 
                            "channel": 9
                        }
                    ]
                ], 
                [
                    260042, 
                    [
                        {
                            "pitch": 64, 
                            "t0": 260042, 
                            "v": 75, 
                            "dur": 278, 
                            "type": "note", 
                            "channel": 9
                        }
                    ]
                ], 
                [
                    260550, 
                    [
                        {
                            "pitch": 64, 
                            "t0": 260550, 
                            "v": 72, 
                            "dur": 250, 
                            "type": "note", 
                            "channel": 9
                        }
                    ]
                ], 
                [
                    261634, 
                    [
                        {
                            "pitch": 60, 
                            "t0": 261634, 
                            "v": 81, 
                            "dur": 946, 
                            "type": "note", 
                            "channel": 9
                        }
                    ]
                ], 
                [
                    263126, 
                    [
                        {
                            "pitch": 60, 
                            "t0": 263126, 
                            "v": 81, 
                            "dur": 358, 
                            "type": "note", 
                            "channel": 9
                        }
                    ]
                ], 
                [
                    263142, 
                    [
                        {
                            "pitch": 62, 
                            "t0": 263142, 
                            "v": 61, 
                            "dur": 104, 
                            "type": "note", 
                            "channel": 9
                        }
                    ]
                ], 
                [
                    263600, 
                    [
                        {
                            "pitch": 60, 
                            "t0": 263600, 
                            "v": 75, 
                            "dur": 626, 
                            "type": "note", 
                            "channel": 9
                        }
                    ]
                ], 
                [
                    265170, 
                    [
                        {
                            "pitch": 64, 
                            "t0": 265170, 
                            "v": 72, 
                            "dur": 118, 
                            "type": "note", 
                            "channel": 9
                        }
                    ]
                ], 
                [
                    265204, 
                    [
                        {
                            "pitch": 60, 
                            "t0": 265204, 
                            "v": 37, 
                            "dur": 58, 
                            "type": "note", 
                            "channel": 9
                        }
                    ]
                ], 
                [
                    265458, 
                    [
                        {
                            "pitch": 64, 
                            "t0": 265458, 
                            "v": 58, 
                            "dur": 350, 
                            "type": "note", 
                            "channel": 9
                        }
                    ]
                ], 
                [
                    266080, 
                    [
                        {
                            "pitch": 60, 
                            "t0": 266080, 
                            "v": 75, 
                            "dur": 1004, 
                            "type": "note", 
                            "channel": 9
                        }
                    ]
                ], 
                [
                    267520, 
                    [
                        {
                            "pitch": 64, 
                            "t0": 267520, 
                            "v": 75, 
                            "dur": 476, 
                            "type": "note", 
                            "channel": 9
                        }
                    ]
                ], 
                [
                    268488, 
                    [
                        {
                            "pitch": 64, 
                            "t0": 268488, 
                            "v": 61, 
                            "dur": 620, 
                            "type": "note", 
                            "channel": 9
                        }
                    ]
                ], 
                [
                    269454, 
                    [
                        {
                            "pitch": 64, 
                            "t0": 269454, 
                            "v": 39, 
                            "dur": 226, 
                            "type": "note", 
                            "channel": 9
                        }
                    ]
                ], 
                [
                    270070, 
                    [
                        {
                            "pitch": 60, 
                            "t0": 270070, 
                            "v": 86, 
                            "dur": 456, 
                            "type": "note", 
                            "channel": 9
                        }
                    ]
                ], 
                [
                    271038, 
                    [
                        {
                            "pitch": 60, 
                            "t0": 271038, 
                            "v": 86, 
                            "dur": 662, 
                            "type": "note", 
                            "channel": 9
                        }
                    ]
                ], 
                [
                    273030, 
                    [
                        {
                            "pitch": 64, 
                            "t0": 273030, 
                            "v": 78, 
                            "dur": 120, 
                            "type": "note", 
                            "channel": 9
                        }
                    ]
                ], 
                [
                    273308, 
                    [
                        {
                            "pitch": 64, 
                            "t0": 273308, 
                            "v": 75, 
                            "dur": 404, 
                            "type": "note", 
                            "channel": 9
                        }
                    ]
                ], 
                [
                    274088, 
                    [
                        {
                            "pitch": 60, 
                            "t0": 274088, 
                            "v": 78, 
                            "dur": 178, 
                            "type": "note", 
                            "channel": 9
                        }
                    ]
                ], 
                [
                    274092, 
                    [
                        {
                            "pitch": 62, 
                            "t0": 274092, 
                            "v": 72, 
                            "dur": 166, 
                            "type": "note", 
                            "channel": 9
                        }
                    ]
                ], 
                [
                    274550, 
                    [
                        {
                            "pitch": 60, 
                            "t0": 274550, 
                            "v": 81, 
                            "dur": 388, 
                            "type": "note", 
                            "channel": 9
                        }
                    ]
                ], 
                [
                    276112, 
                    [
                        {
                            "pitch": 64, 
                            "t0": 276112, 
                            "v": 72, 
                            "dur": 226, 
                            "type": "note", 
                            "channel": 9
                        }
                    ]
                ], 
                [
                    276596, 
                    [
                        {
                            "pitch": 64, 
                            "t0": 276596, 
                            "v": 75, 
                            "dur": 370, 
                            "type": "note", 
                            "channel": 9
                        }
                    ]
                ], 
                [
                    277638, 
                    [
                        {
                            "pitch": 60, 
                            "t0": 277638, 
                            "v": 81, 
                            "dur": 878, 
                            "type": "note", 
                            "channel": 9
                        }
                    ]
                ], 
                [
                    279080, 
                    [
                        {
                            "pitch": 60, 
                            "t0": 279080, 
                            "v": 81, 
                            "dur": 358, 
                            "type": "note", 
                            "channel": 9
                        }
                    ]
                ], 
                [
                    279566, 
                    [
                        {
                            "pitch": 60, 
                            "t0": 279566, 
                            "v": 64, 
                            "dur": 568, 
                            "type": "note", 
                            "channel": 9
                        }
                    ]
                ], 
                [
                    281092, 
                    [
                        {
                            "pitch": 64, 
                            "t0": 281092, 
                            "v": 75, 
                            "dur": 128, 
                            "type": "note", 
                            "channel": 9
                        }
                    ]
                ], 
                [
                    281358, 
                    [
                        {
                            "pitch": 64, 
                            "t0": 281358, 
                            "v": 64, 
                            "dur": 388, 
                            "type": "note", 
                            "channel": 9
                        }
                    ]
                ], 
                [
                    282046, 
                    [
                        {
                            "pitch": 60, 
                            "t0": 282046, 
                            "v": 84, 
                            "dur": 250, 
                            "type": "note", 
                            "channel": 9
                        }
                    ]
                ], 
                [
                    282550, 
                    [
                        {
                            "pitch": 60, 
                            "t0": 282550, 
                            "v": 86, 
                            "dur": 866, 
                            "type": "note", 
                            "channel": 9
                        }
                    ]
                ], 
                [
                    284084, 
                    [
                        {
                            "pitch": 60, 
                            "t0": 284084, 
                            "v": 86, 
                            "dur": 670, 
                            "type": "note", 
                            "channel": 9
                        }
                    ]
                ], 
                [
                    285576, 
                    [
                        {
                            "pitch": 64, 
                            "t0": 285576, 
                            "v": 84, 
                            "dur": 600, 
                            "type": "note", 
                            "channel": 9
                        }
                    ]
                ], 
                [
                    286596, 
                    [
                        {
                            "pitch": 64, 
                            "t0": 286596, 
                            "v": 84, 
                            "dur": 512, 
                            "type": "note", 
                            "channel": 9
                        }
                    ]
                ], 
                [
                    287500, 
                    [
                        {
                            "pitch": 64, 
                            "t0": 287500, 
                            "v": 78, 
                            "dur": 262, 
                            "type": "note", 
                            "channel": 9
                        }
                    ]
                ], 
                [
                    289096, 
                    [
                        {
                            "pitch": 64, 
                            "t0": 289096, 
                            "v": 75, 
                            "dur": 146, 
                            "type": "note", 
                            "channel": 9
                        }
                    ]
                ], 
                [
                    289358, 
                    [
                        {
                            "pitch": 64, 
                            "t0": 289358, 
                            "v": 58, 
                            "dur": 404, 
                            "type": "note", 
                            "channel": 9
                        }
                    ]
                ], 
                [
                    290084, 
                    [
                        {
                            "pitch": 60, 
                            "t0": 290084, 
                            "v": 78, 
                            "dur": 324, 
                            "type": "note", 
                            "channel": 9
                        }
                    ]
                ], 
                [
                    290592, 
                    [
                        {
                            "pitch": 60, 
                            "t0": 290592, 
                            "v": 81, 
                            "dur": 778, 
                            "type": "note", 
                            "channel": 9
                        }
                    ]
                ], 
                [
                    292026, 
                    [
                        {
                            "pitch": 64, 
                            "t0": 292026, 
                            "v": 78, 
                            "dur": 328, 
                            "type": "note", 
                            "channel": 9
                        }
                    ]
                ], 
                [
                    292042, 
                    [
                        {
                            "pitch": 62, 
                            "t0": 292042, 
                            "v": 72, 
                            "dur": 228, 
                            "type": "note", 
                            "channel": 9
                        }
                    ]
                ], 
                [
                    293600, 
                    [
                        {
                            "pitch": 60, 
                            "t0": 293600, 
                            "v": 84, 
                            "dur": 876, 
                            "type": "note", 
                            "channel": 9
                        }
                    ]
                ], 
                [
                    295050, 
                    [
                        {
                            "pitch": 60, 
                            "t0": 295050, 
                            "v": 84, 
                            "dur": 342, 
                            "type": "note", 
                            "channel": 9
                        }
                    ]
                ], 
                [
                    295542, 
                    [
                        {
                            "pitch": 60, 
                            "t0": 295542, 
                            "v": 81, 
                            "dur": 662, 
                            "type": "note", 
                            "channel": 9
                        }
                    ]
                ], 
                [
                    297000, 
                    [
                        {
                            "pitch": 62, 
                            "t0": 297000, 
                            "v": 44, 
                            "dur": 104, 
                            "type": "note", 
                            "channel": 9
                        }
                    ]
                ], 
                [
                    297012, 
                    [
                        {
                            "pitch": 64, 
                            "t0": 297012, 
                            "v": 47, 
                            "dur": 88, 
                            "type": "note", 
                            "channel": 9
                        }
                    ]
                ], 
                [
                    297296, 
                    [
                        {
                            "pitch": 64, 
                            "t0": 297296, 
                            "v": 50, 
                            "dur": 392, 
                            "type": "note", 
                            "channel": 9
                        }
                    ]
                ], 
                [
                    298088, 
                    [
                        {
                            "pitch": 64, 
                            "t0": 298088, 
                            "v": 78, 
                            "dur": 262, 
                            "type": "note", 
                            "channel": 9
                        }
                    ]
                ], 
                [
                    299546, 
                    [
                        {
                            "pitch": 64, 
                            "t0": 299546, 
                            "v": 75, 
                            "dur": 634, 
                            "type": "note", 
                            "channel": 9
                        }
                    ]
                ], 
                [
                    300566, 
                    [
                        {
                            "pitch": 64, 
                            "t0": 300566, 
                            "v": 56, 
                            "dur": 372, 
                            "type": "note", 
                            "channel": 9
                        }
                    ]
                ], 
                [
                    300596, 
                    [
                        {
                            "pitch": 62, 
                            "t0": 300596, 
                            "v": 32, 
                            "dur": 46, 
                            "type": "note", 
                            "channel": 9
                        }
                    ]
                ], 
                [
                    301520, 
                    [
                        {
                            "pitch": 64, 
                            "t0": 301520, 
                            "v": 70, 
                            "dur": 250, 
                            "type": "note", 
                            "channel": 9
                        }
                    ]
                ], 
                [
                    302076, 
                    [
                        {
                            "pitch": 60, 
                            "t0": 302076, 
                            "v": 84, 
                            "dur": 666, 
                            "type": "note", 
                            "channel": 9
                        }
                    ]
                ], 
                [
                    303030, 
                    [
                        {
                            "pitch": 60, 
                            "t0": 303030, 
                            "v": 86, 
                            "dur": 796, 
                            "type": "note", 
                            "channel": 9
                        }
                    ]
                ], 
                [
                    305070, 
                    [
                        {
                            "pitch": 64, 
                            "t0": 305070, 
                            "v": 78, 
                            "dur": 130, 
                            "type": "note", 
                            "channel": 9
                        }
                    ]
                ], 
                [
                    305346, 
                    [
                        {
                            "pitch": 64, 
                            "t0": 305346, 
                            "v": 70, 
                            "dur": 170, 
                            "type": "note", 
                            "channel": 9
                        }
                    ]
                ], 
                [
                    305576, 
                    [
                        {
                            "pitch": 64, 
                            "t0": 305576, 
                            "v": 67, 
                            "dur": 232, 
                            "type": "note", 
                            "channel": 9
                        }
                    ]
                ], 
                [
                    306112, 
                    [
                        {
                            "pitch": 60, 
                            "t0": 306112, 
                            "v": 84, 
                            "dur": 326, 
                            "type": "note", 
                            "channel": 9
                        }
                    ]
                ], 
                [
                    306126, 
                    [
                        {
                            "pitch": 62, 
                            "t0": 306126, 
                            "v": 67, 
                            "dur": 266, 
                            "type": "note", 
                            "channel": 9
                        }
                    ]
                ], 
                [
                    306576, 
                    [
                        {
                            "pitch": 60, 
                            "t0": 306576, 
                            "v": 81, 
                            "dur": 704, 
                            "type": "note", 
                            "channel": 9
                        }
                    ]
                ], 
                [
                    308080, 
                    [
                        {
                            "pitch": 64, 
                            "t0": 308080, 
                            "v": 81, 
                            "dur": 300, 
                            "type": "note", 
                            "channel": 9
                        }
                    ]
                ], 
                [
                    308588, 
                    [
                        {
                            "pitch": 64, 
                            "t0": 308588, 
                            "v": 81, 
                            "dur": 520, 
                            "type": "note", 
                            "channel": 9
                        }
                    ]
                ], 
                [
                    309626, 
                    [
                        {
                            "pitch": 60, 
                            "t0": 309626, 
                            "v": 81, 
                            "dur": 1094, 
                            "type": "note", 
                            "channel": 9
                        }
                    ]
                ], 
                [
                    311100, 
                    [
                        {
                            "pitch": 60, 
                            "t0": 311100, 
                            "v": 84, 
                            "dur": 308, 
                            "type": "note", 
                            "channel": 9
                        }
                    ]
                ], 
                [
                    311562, 
                    [
                        {
                            "pitch": 60, 
                            "t0": 311562, 
                            "v": 81, 
                            "dur": 914, 
                            "type": "note", 
                            "channel": 9
                        }
                    ]
                ], 
                [
                    313138, 
                    [
                        {
                            "pitch": 64, 
                            "t0": 313138, 
                            "v": 70, 
                            "dur": 142, 
                            "type": "note", 
                            "channel": 9
                        }
                    ]
                ], 
                [
                    313392, 
                    [
                        {
                            "pitch": 64, 
                            "t0": 313392, 
                            "v": 61, 
                            "dur": 458, 
                            "type": "note", 
                            "channel": 9
                        }
                    ]
                ], 
                [
                    314112, 
                    [
                        {
                            "pitch": 60, 
                            "t0": 314112, 
                            "v": 86, 
                            "dur": 338, 
                            "type": "note", 
                            "channel": 9
                        }
                    ]
                ], 
                [
                    314592, 
                    [
                        {
                            "pitch": 60, 
                            "t0": 314592, 
                            "v": 78, 
                            "dur": 1162, 
                            "type": "note", 
                            "channel": 9
                        }
                    ]
                ], 
                [
                    316080, 
                    [
                        {
                            "pitch": 64, 
                            "t0": 316080, 
                            "v": 75, 
                            "dur": 232, 
                            "type": "note", 
                            "channel": 9
                        }
                    ]
                ], 
                [
                    316592, 
                    [
                        {
                            "pitch": 64, 
                            "t0": 316592, 
                            "v": 75, 
                            "dur": 688, 
                            "type": "note", 
                            "channel": 9
                        }
                    ]
                ], 
                [
                    317616, 
                    [
                        {
                            "pitch": 60, 
                            "t0": 317616, 
                            "v": 84, 
                            "dur": 960, 
                            "type": "note", 
                            "channel": 9
                        }
                    ]
                ], 
                [
                    319054, 
                    [
                        {
                            "pitch": 60, 
                            "t0": 319054, 
                            "v": 81, 
                            "dur": 766, 
                            "type": "note", 
                            "channel": 9
                        }
                    ]
                ], 
                [
                    321000, 
                    [
                        {
                            "pitch": 64, 
                            "t0": 321000, 
                            "v": 70, 
                            "dur": 158, 
                            "type": "note", 
                            "channel": 9
                        }
                    ]
                ], 
                [
                    321284, 
                    [
                        {
                            "pitch": 64, 
                            "t0": 321284, 
                            "v": 61, 
                            "dur": 520, 
                            "type": "note", 
                            "channel": 9
                        }
                    ]
                ], 
                [
                    322058, 
                    [
                        {
                            "pitch": 60, 
                            "t0": 322058, 
                            "v": 78, 
                            "dur": 1350, 
                            "type": "note", 
                            "channel": 9
                        }
                    ]
                ], 
                [
                    323576, 
                    [
                        {
                            "pitch": 64, 
                            "t0": 323576, 
                            "v": 70, 
                            "dur": 774, 
                            "type": "note", 
                            "channel": 9
                        }
                    ]
                ], 
                [
                    324558, 
                    [
                        {
                            "pitch": 64, 
                            "t0": 324558, 
                            "v": 75, 
                            "dur": 722, 
                            "type": "note", 
                            "channel": 9
                        }
                    ]
                ], 
                [
                    325558, 
                    [
                        {
                            "pitch": 64, 
                            "t0": 325558, 
                            "v": 72, 
                            "dur": 422, 
                            "type": "note", 
                            "channel": 9
                        }
                    ]
                ], 
                [
                    326088, 
                    [
                        {
                            "pitch": 60, 
                            "t0": 326088, 
                            "v": 81, 
                            "dur": 532, 
                            "type": "note", 
                            "channel": 9
                        }
                    ]
                ], 
                [
                    326992, 
                    [
                        {
                            "pitch": 60, 
                            "t0": 326992, 
                            "v": 84, 
                            "dur": 378, 
                            "type": "note", 
                            "channel": 9
                        }
                    ]
                ], 
                [
                    327488, 
                    [
                        {
                            "pitch": 60, 
                            "t0": 327488, 
                            "v": 75, 
                            "dur": 708, 
                            "type": "note", 
                            "channel": 9
                        }
                    ]
                ], 
                [
                    329096, 
                    [
                        {
                            "pitch": 64, 
                            "t0": 329096, 
                            "v": 72, 
                            "dur": 134, 
                            "type": "note", 
                            "channel": 9
                        }
                    ]
                ], 
                [
                    329346, 
                    [
                        {
                            "pitch": 64, 
                            "t0": 329346, 
                            "v": 67, 
                            "dur": 174, 
                            "type": "note", 
                            "channel": 9
                        }
                    ]
                ], 
                [
                    329592, 
                    [
                        {
                            "pitch": 64, 
                            "t0": 329592, 
                            "v": 50, 
                            "dur": 188, 
                            "type": "note", 
                            "channel": 9
                        }
                    ]
                ], 
                [
                    330108, 
                    [
                        {
                            "pitch": 60, 
                            "t0": 330108, 
                            "v": 81, 
                            "dur": 1188, 
                            "type": "note", 
                            "channel": 9
                        }
                    ]
                ], 
                [
                    331542, 
                    [
                        {
                            "pitch": 64, 
                            "t0": 331542, 
                            "v": 78, 
                            "dur": 670, 
                            "type": "note", 
                            "channel": 9
                        }
                    ]
                ], 
                [
                    332508, 
                    [
                        {
                            "pitch": 64, 
                            "t0": 332508, 
                            "v": 78, 
                            "dur": 822, 
                            "type": "note", 
                            "channel": 9
                        }
                    ]
                ], 
                [
                    333542, 
                    [
                        {
                            "pitch": 64, 
                            "t0": 333542, 
                            "v": 37, 
                            "dur": 188, 
                            "type": "note", 
                            "channel": 9
                        }
                    ]
                ], 
                [
                    334080, 
                    [
                        {
                            "pitch": 60, 
                            "t0": 334080, 
                            "v": 75, 
                            "dur": 574, 
                            "type": "note", 
                            "channel": 9
                        }
                    ]
                ], 
                [
                    335062, 
                    [
                        {
                            "pitch": 60, 
                            "t0": 335062, 
                            "v": 86, 
                            "dur": 834, 
                            "type": "note", 
                            "channel": 9
                        }
                    ]
                ], 
                [
                    337116, 
                    [
                        {
                            "pitch": 64, 
                            "t0": 337116, 
                            "v": 81, 
                            "dur": 126, 
                            "type": "note", 
                            "channel": 9
                        }
                    ]
                ], 
                [
                    337388, 
                    [
                        {
                            "pitch": 64, 
                            "t0": 337388, 
                            "v": 58, 
                            "dur": 162, 
                            "type": "note", 
                            "channel": 9
                        }
                    ]
                ], 
                [
                    337620, 
                    [
                        {
                            "pitch": 64, 
                            "t0": 337620, 
                            "v": 56, 
                            "dur": 206, 
                            "type": "note", 
                            "channel": 9
                        }
                    ]
                ], 
                [
                    338138, 
                    [
                        {
                            "pitch": 62, 
                            "t0": 338138, 
                            "v": 75, 
                            "dur": 288, 
                            "type": "note", 
                            "channel": 9
                        }
                    ]
                ], 
                [
                    338142, 
                    [
                        {
                            "pitch": 60, 
                            "t0": 338142, 
                            "v": 72, 
                            "dur": 284, 
                            "type": "note", 
                            "channel": 9
                        }
                    ]
                ], 
                [
                    338608, 
                    [
                        {
                            "pitch": 60, 
                            "t0": 338608, 
                            "v": 75, 
                            "dur": 1068, 
                            "type": "note", 
                            "channel": 9
                        }
                    ]
                ], 
                [
                    340166, 
                    [
                        {
                            "pitch": 64, 
                            "t0": 340166, 
                            "v": 81, 
                            "dur": 330, 
                            "type": "note", 
                            "channel": 9
                        }
                    ]
                ], 
                [
                    340658, 
                    [
                        {
                            "pitch": 64, 
                            "t0": 340658, 
                            "v": 78, 
                            "dur": 884, 
                            "type": "note", 
                            "channel": 9
                        }
                    ]
                ], 
                [
                    341646, 
                    [
                        {
                            "pitch": 60, 
                            "t0": 341646, 
                            "v": 84, 
                            "dur": 1100, 
                            "type": "note", 
                            "channel": 9
                        }
                    ]
                ], 
                [
                    343030, 
                    [
                        {
                            "pitch": 60, 
                            "t0": 343030, 
                            "v": 75, 
                            "dur": 236, 
                            "type": "note", 
                            "channel": 9
                        }
                    ]
                ], 
                [
                    343492, 
                    [
                        {
                            "pitch": 60, 
                            "t0": 343492, 
                            "v": 72, 
                            "dur": 684, 
                            "type": "note", 
                            "channel": 9
                        }
                    ]
                ], 
                [
                    345088, 
                    [
                        {
                            "pitch": 64, 
                            "t0": 345088, 
                            "v": 75, 
                            "dur": 138, 
                            "type": "note", 
                            "channel": 9
                        }
                    ]
                ], 
                [
                    345338, 
                    [
                        {
                            "pitch": 64, 
                            "t0": 345338, 
                            "v": 61, 
                            "dur": 446, 
                            "type": "note", 
                            "channel": 9
                        }
                    ]
                ], 
                [
                    346026, 
                    [
                        {
                            "pitch": 60, 
                            "t0": 346026, 
                            "v": 84, 
                            "dur": 912, 
                            "type": "note", 
                            "channel": 9
                        }
                    ]
                ], 
                [
                    347558, 
                    [
                        {
                            "pitch": 64, 
                            "t0": 347558, 
                            "v": 78, 
                            "dur": 758, 
                            "type": "note", 
                            "channel": 9
                        }
                    ]
                ], 
                [
                    348500, 
                    [
                        {
                            "pitch": 64, 
                            "t0": 348500, 
                            "v": 67, 
                            "dur": 716, 
                            "type": "note", 
                            "channel": 9
                        }
                    ]
                ], 
                [
                    349550, 
                    [
                        {
                            "pitch": 64, 
                            "t0": 349550, 
                            "v": 50, 
                            "dur": 346, 
                            "type": "note", 
                            "channel": 9
                        }
                    ]
                ], 
                [
                    350062, 
                    [
                        {
                            "pitch": 60, 
                            "t0": 350062, 
                            "v": 75, 
                            "dur": 688, 
                            "type": "note", 
                            "channel": 9
                        }
                    ]
                ], 
                [
                    351020, 
                    [
                        {
                            "pitch": 60, 
                            "t0": 351020, 
                            "v": 81, 
                            "dur": 276, 
                            "type": "note", 
                            "channel": 9
                        }
                    ]
                ], 
                [
                    351480, 
                    [
                        {
                            "pitch": 60, 
                            "t0": 351480, 
                            "v": 78, 
                            "dur": 736, 
                            "type": "note", 
                            "channel": 9
                        }
                    ]
                ], 
                [
                    353092, 
                    [
                        {
                            "pitch": 64, 
                            "t0": 353092, 
                            "v": 61, 
                            "dur": 142, 
                            "type": "note", 
                            "channel": 9
                        }
                    ]
                ], 
                [
                    353380, 
                    [
                        {
                            "pitch": 64, 
                            "t0": 353380, 
                            "v": 58, 
                            "dur": 140, 
                            "type": "note", 
                            "channel": 9
                        }
                    ]
                ], 
                [
                    353630, 
                    [
                        {
                            "pitch": 64, 
                            "t0": 353630, 
                            "v": 72, 
                            "dur": 196, 
                            "type": "note", 
                            "channel": 9
                        }
                    ]
                ], 
                [
                    354138, 
                    [
                        {
                            "pitch": 60, 
                            "t0": 354138, 
                            "v": 84, 
                            "dur": 370, 
                            "type": "note", 
                            "channel": 9
                        }
                    ]
                ], 
                [
                    354626, 
                    [
                        {
                            "pitch": 60, 
                            "t0": 354626, 
                            "v": 78, 
                            "dur": 1094, 
                            "type": "note", 
                            "channel": 9
                        }
                    ]
                ], 
                [
                    356054, 
                    [
                        {
                            "pitch": 64, 
                            "t0": 356054, 
                            "v": 75, 
                            "dur": 262, 
                            "type": "note", 
                            "channel": 9
                        }
                    ]
                ], 
                [
                    356542, 
                    [
                        {
                            "pitch": 64, 
                            "t0": 356542, 
                            "v": 64, 
                            "dur": 916, 
                            "type": "note", 
                            "channel": 9
                        }
                    ]
                ], 
                [
                    357526, 
                    [
                        {
                            "pitch": 60, 
                            "t0": 357526, 
                            "v": 78, 
                            "dur": 1274, 
                            "type": "note", 
                            "channel": 9
                        }
                    ]
                ], 
                [
                    359030, 
                    [
                        {
                            "pitch": 60, 
                            "t0": 359030, 
                            "v": 75, 
                            "dur": 278, 
                            "type": "note", 
                            "channel": 9
                        }
                    ]
                ], 
                [
                    359496, 
                    [
                        {
                            "pitch": 60, 
                            "t0": 359496, 
                            "v": 75, 
                            "dur": 804, 
                            "type": "note", 
                            "channel": 9
                        }
                    ]
                ], 
                [
                    361066, 
                    [
                        {
                            "pitch": 64, 
                            "t0": 361066, 
                            "v": 72, 
                            "dur": 142, 
                            "type": "note", 
                            "channel": 9
                        }
                    ]
                ], 
                [
                    361342, 
                    [
                        {
                            "pitch": 64, 
                            "t0": 361342, 
                            "v": 58, 
                            "dur": 466, 
                            "type": "note", 
                            "channel": 9
                        }
                    ]
                ], 
                [
                    362062, 
                    [
                        {
                            "pitch": 60, 
                            "t0": 362062, 
                            "v": 78, 
                            "dur": 1388, 
                            "type": "note", 
                            "channel": 9
                        }
                    ]
                ], 
                [
                    363546, 
                    [
                        {
                            "pitch": 64, 
                            "t0": 363546, 
                            "v": 75, 
                            "dur": 846, 
                            "type": "note", 
                            "channel": 9
                        }
                    ]
                ], 
                [
                    364576, 
                    [
                        {
                            "pitch": 64, 
                            "t0": 364576, 
                            "v": 75, 
                            "dur": 724, 
                            "type": "note", 
                            "channel": 9
                        }
                    ]
                ], 
                [
                    365596, 
                    [
                        {
                            "pitch": 64, 
                            "t0": 365596, 
                            "v": 70, 
                            "dur": 512, 
                            "type": "note", 
                            "channel": 9
                        }
                    ]
                ], 
                [
                    366120, 
                    [
                        {
                            "pitch": 60, 
                            "t0": 366120, 
                            "v": 78, 
                            "dur": 664, 
                            "type": "note", 
                            "channel": 9
                        }
                    ]
                ], 
                [
                    367012, 
                    [
                        {
                            "pitch": 60, 
                            "t0": 367012, 
                            "v": 78, 
                            "dur": 288, 
                            "type": "note", 
                            "channel": 9
                        }
                    ]
                ], 
                [
                    367462, 
                    [
                        {
                            "pitch": 60, 
                            "t0": 367462, 
                            "v": 56, 
                            "dur": 734, 
                            "type": "note", 
                            "channel": 9
                        }
                    ]
                ], 
                [
                    369062, 
                    [
                        {
                            "pitch": 64, 
                            "t0": 369062, 
                            "v": 50, 
                            "dur": 168, 
                            "type": "note", 
                            "channel": 9
                        }
                    ]
                ], 
                [
                    369354, 
                    [
                        {
                            "pitch": 64, 
                            "t0": 369354, 
                            "v": 39, 
                            "dur": 454, 
                            "type": "note", 
                            "channel": 9
                        }
                    ]
                ], 
                [
                    370100, 
                    [
                        {
                            "pitch": 60, 
                            "t0": 370100, 
                            "v": 84, 
                            "dur": 316, 
                            "type": "note", 
                            "channel": 9
                        }
                    ]
                ], 
                [
                    370554, 
                    [
                        {
                            "pitch": 60, 
                            "t0": 370554, 
                            "v": 78, 
                            "dur": 1196, 
                            "type": "note", 
                            "channel": 9
                        }
                    ]
                ], 
                [
                    372004, 
                    [
                        {
                            "pitch": 64, 
                            "t0": 372004, 
                            "v": 72, 
                            "dur": 330, 
                            "type": "note", 
                            "channel": 9
                        }
                    ]
                ], 
                [
                    372516, 
                    [
                        {
                            "pitch": 64, 
                            "t0": 372516, 
                            "v": 78, 
                            "dur": 942, 
                            "type": "note", 
                            "channel": 9
                        }
                    ]
                ], 
                [
                    373584, 
                    [
                        {
                            "pitch": 60, 
                            "t0": 373584, 
                            "v": 81, 
                            "dur": 1246, 
                            "type": "note", 
                            "channel": 9
                        }
                    ]
                ], 
                [
                    375020, 
                    [
                        {
                            "pitch": 60, 
                            "t0": 375020, 
                            "v": 70, 
                            "dur": 1038, 
                            "type": "note", 
                            "channel": 9
                        }
                    ]
                ], 
                [
                    377004, 
                    [
                        {
                            "pitch": 64, 
                            "t0": 377004, 
                            "v": 53, 
                            "dur": 96, 
                            "type": "note", 
                            "channel": 9
                        }
                    ]
                ], 
                [
                    377284, 
                    [
                        {
                            "pitch": 64, 
                            "t0": 377284, 
                            "v": 61, 
                            "dur": 482, 
                            "type": "note", 
                            "channel": 9
                        }
                    ]
                ], 
                [
                    378026, 
                    [
                        {
                            "pitch": 60, 
                            "t0": 378026, 
                            "v": 78, 
                            "dur": 374, 
                            "type": "note", 
                            "channel": 9
                        }
                    ]
                ], 
                [
                    379546, 
                    [
                        {
                            "pitch": 64, 
                            "t0": 379546, 
                            "v": 61, 
                            "dur": 404, 
                            "type": "note", 
                            "channel": 9
                        }
                    ]
                ], 
                [
                    380538, 
                    [
                        {
                            "pitch": 64, 
                            "t0": 380538, 
                            "v": 78, 
                            "dur": 632, 
                            "type": "note", 
                            "channel": 9
                        }
                    ]
                ], 
                [
                    381542, 
                    [
                        {
                            "pitch": 64, 
                            "t0": 381542, 
                            "v": 84, 
                            "dur": 320, 
                            "type": "note", 
                            "channel": 9
                        }
                    ]
                ], 
                [
                    382038, 
                    [
                        {
                            "pitch": 62, 
                            "t0": 382038, 
                            "v": 67, 
                            "dur": 454, 
                            "type": "note", 
                            "channel": 9
                        }, 
                        {
                            "pitch": 60, 
                            "t0": 382038, 
                            "v": 67, 
                            "dur": 754, 
                            "type": "note", 
                            "channel": 9
                        }
                    ]
                ], 
                [
                    383016, 
                    [
                        {
                            "pitch": 60, 
                            "t0": 383016, 
                            "v": 81, 
                            "dur": 988, 
                            "type": "note", 
                            "channel": 9
                        }
                    ]
                ], 
                [
                    385016, 
                    [
                        {
                            "pitch": 64, 
                            "t0": 385016, 
                            "v": 75, 
                            "dur": 130, 
                            "type": "note", 
                            "channel": 9
                        }
                    ]
                ], 
                [
                    385296, 
                    [
                        {
                            "pitch": 64, 
                            "t0": 385296, 
                            "v": 64, 
                            "dur": 446, 
                            "type": "note", 
                            "channel": 9
                        }
                    ]
                ], 
                [
                    386008, 
                    [
                        {
                            "pitch": 60, 
                            "t0": 386008, 
                            "v": 81, 
                            "dur": 304, 
                            "type": "note", 
                            "channel": 9
                        }
                    ]
                ], 
                [
                    386458, 
                    [
                        {
                            "pitch": 60, 
                            "t0": 386458, 
                            "v": 72, 
                            "dur": 1112, 
                            "type": "note", 
                            "channel": 9
                        }
                    ]
                ], 
                [
                    387950, 
                    [
                        {
                            "pitch": 64, 
                            "t0": 387950, 
                            "v": 78, 
                            "dur": 296, 
                            "type": "note", 
                            "channel": 9
                        }
                    ]
                ], 
                [
                    388470, 
                    [
                        {
                            "pitch": 64, 
                            "t0": 388470, 
                            "v": 72, 
                            "dur": 910, 
                            "type": "note", 
                            "channel": 9
                        }
                    ]
                ], 
                [
                    389546, 
                    [
                        {
                            "pitch": 60, 
                            "t0": 389546, 
                            "v": 81, 
                            "dur": 1250, 
                            "type": "note", 
                            "channel": 9
                        }
                    ]
                ], 
                [
                    391050, 
                    [
                        {
                            "pitch": 60, 
                            "t0": 391050, 
                            "v": 81, 
                            "dur": 354, 
                            "type": "note", 
                            "channel": 9
                        }
                    ]
                ], 
                [
                    391546, 
                    [
                        {
                            "pitch": 60, 
                            "t0": 391546, 
                            "v": 78, 
                            "dur": 546, 
                            "type": "note", 
                            "channel": 9
                        }
                    ]
                ], 
                [
                    393096, 
                    [
                        {
                            "pitch": 64, 
                            "t0": 393096, 
                            "v": 72, 
                            "dur": 166, 
                            "type": "note", 
                            "channel": 9
                        }
                    ]
                ], 
                [
                    393338, 
                    [
                        {
                            "pitch": 64, 
                            "t0": 393338, 
                            "v": 50, 
                            "dur": 182, 
                            "type": "note", 
                            "channel": 9
                        }
                    ]
                ], 
                [
                    393612, 
                    [
                        {
                            "pitch": 64, 
                            "t0": 393612, 
                            "v": 61, 
                            "dur": 234, 
                            "type": "note", 
                            "channel": 9
                        }
                    ]
                ], 
                [
                    394076, 
                    [
                        {
                            "pitch": 60, 
                            "t0": 394076, 
                            "v": 78, 
                            "dur": 350, 
                            "type": "note", 
                            "channel": 9
                        }
                    ]
                ], 
                [
                    394562, 
                    [
                        {
                            "pitch": 60, 
                            "t0": 394562, 
                            "v": 78, 
                            "dur": 1346, 
                            "type": "note", 
                            "channel": 9
                        }
                    ]
                ], 
                [
                    396046, 
                    [
                        {
                            "pitch": 64, 
                            "t0": 396046, 
                            "v": 72, 
                            "dur": 320, 
                            "type": "note", 
                            "channel": 9
                        }
                    ]
                ], 
                [
                    396558, 
                    [
                        {
                            "pitch": 64, 
                            "t0": 396558, 
                            "v": 64, 
                            "dur": 954, 
                            "type": "note", 
                            "channel": 9
                        }
                    ]
                ], 
                [
                    397570, 
                    [
                        {
                            "pitch": 60, 
                            "t0": 397570, 
                            "v": 75, 
                            "dur": 1280, 
                            "type": "note", 
                            "channel": 9
                        }
                    ]
                ], 
                [
                    399066, 
                    [
                        {
                            "pitch": 60, 
                            "t0": 399066, 
                            "v": 78, 
                            "dur": 264, 
                            "type": "note", 
                            "channel": 9
                        }
                    ]
                ], 
                [
                    399500, 
                    [
                        {
                            "pitch": 60, 
                            "t0": 399500, 
                            "v": 70, 
                            "dur": 850, 
                            "type": "note", 
                            "channel": 9
                        }
                    ]
                ], 
                [
                    401050, 
                    [
                        {
                            "pitch": 64, 
                            "t0": 401050, 
                            "v": 72, 
                            "dur": 170, 
                            "type": "note", 
                            "channel": 9
                        }
                    ]
                ], 
                [
                    401334, 
                    [
                        {
                            "pitch": 64, 
                            "t0": 401334, 
                            "v": 56, 
                            "dur": 182, 
                            "type": "note", 
                            "channel": 9
                        }
                    ]
                ], 
                [
                    401600, 
                    [
                        {
                            "pitch": 64, 
                            "t0": 401600, 
                            "v": 53, 
                            "dur": 196, 
                            "type": "note", 
                            "channel": 9
                        }
                    ]
                ], 
                [
                    402026, 
                    [
                        {
                            "pitch": 60, 
                            "t0": 402026, 
                            "v": 81, 
                            "dur": 294, 
                            "type": "note", 
                            "channel": 9
                        }
                    ]
                ], 
                [
                    402500, 
                    [
                        {
                            "pitch": 60, 
                            "t0": 402500, 
                            "v": 81, 
                            "dur": 1176, 
                            "type": "note", 
                            "channel": 9
                        }
                    ]
                ], 
                [
                    403988, 
                    [
                        {
                            "pitch": 64, 
                            "t0": 403988, 
                            "v": 75, 
                            "dur": 278, 
                            "type": "note", 
                            "channel": 9
                        }
                    ]
                ], 
                [
                    404476, 
                    [
                        {
                            "pitch": 64, 
                            "t0": 404476, 
                            "v": 78, 
                            "dur": 944, 
                            "type": "note", 
                            "channel": 9
                        }
                    ]
                ], 
                [
                    405550, 
                    [
                        {
                            "pitch": 60, 
                            "t0": 405550, 
                            "v": 81, 
                            "dur": 1292, 
                            "type": "note", 
                            "channel": 9
                        }
                    ]
                ], 
                [
                    407054, 
                    [
                        {
                            "pitch": 60, 
                            "t0": 407054, 
                            "v": 75, 
                            "dur": 292, 
                            "type": "note", 
                            "channel": 9
                        }
                    ]
                ], 
                [
                    407554, 
                    [
                        {
                            "pitch": 60, 
                            "t0": 407554, 
                            "v": 81, 
                            "dur": 612, 
                            "type": "note", 
                            "channel": 9
                        }
                    ]
                ], 
                [
                    409058, 
                    [
                        {
                            "pitch": 64, 
                            "t0": 409058, 
                            "v": 72, 
                            "dur": 158, 
                            "type": "note", 
                            "channel": 9
                        }
                    ]
                ], 
                [
                    409346, 
                    [
                        {
                            "pitch": 64, 
                            "t0": 409346, 
                            "v": 70, 
                            "dur": 480, 
                            "type": "note", 
                            "channel": 9
                        }
                    ]
                ], 
                [
                    410066, 
                    [
                        {
                            "pitch": 60, 
                            "t0": 410066, 
                            "v": 78, 
                            "dur": 334, 
                            "type": "note", 
                            "channel": 9
                        }
                    ]
                ], 
                [
                    410550, 
                    [
                        {
                            "pitch": 60, 
                            "t0": 410550, 
                            "v": 72, 
                            "dur": 988, 
                            "type": "note", 
                            "channel": 9
                        }
                    ]
                ], 
                [
                    411666, 
                    [
                        {
                            "pitch": 60, 
                            "t0": 411666, 
                            "v": 72, 
                            "dur": 254, 
                            "type": "note", 
                            "channel": 9
                        }
                    ]
                ], 
                [
                    412150, 
                    [
                        {
                            "pitch": 64, 
                            "t0": 412150, 
                            "v": 78, 
                            "dur": 288, 
                            "type": "note", 
                            "channel": 9
                        }
                    ]
                ], 
                [
                    412630, 
                    [
                        {
                            "pitch": 64, 
                            "t0": 412630, 
                            "v": 81, 
                            "dur": 716, 
                            "type": "note", 
                            "channel": 9
                        }
                    ]
                ], 
                [
                    413600, 
                    [
                        {
                            "pitch": 60, 
                            "t0": 413600, 
                            "v": 84, 
                            "dur": 1212, 
                            "type": "note", 
                            "channel": 9
                        }
                    ]
                ], 
                [
                    415016, 
                    [
                        {
                            "pitch": 60, 
                            "t0": 415016, 
                            "v": 81, 
                            "dur": 388, 
                            "type": "note", 
                            "channel": 9
                        }
                    ]
                ], 
                [
                    415542, 
                    [
                        {
                            "pitch": 60, 
                            "t0": 415542, 
                            "v": 75, 
                            "dur": 520, 
                            "type": "note", 
                            "channel": 9
                        }
                    ]
                ], 
                [
                    417088, 
                    [
                        {
                            "pitch": 64, 
                            "t0": 417088, 
                            "v": 78, 
                            "dur": 162, 
                            "type": "note", 
                            "channel": 9
                        }
                    ]
                ], 
                [
                    417358, 
                    [
                        {
                            "pitch": 64, 
                            "t0": 417358, 
                            "v": 61, 
                            "dur": 222, 
                            "type": "note", 
                            "channel": 9
                        }
                    ]
                ], 
                [
                    417634, 
                    [
                        {
                            "pitch": 64, 
                            "t0": 417634, 
                            "v": 36, 
                            "dur": 154, 
                            "type": "note", 
                            "channel": 9
                        }
                    ]
                ], 
                [
                    418038, 
                    [
                        {
                            "pitch": 60, 
                            "t0": 418038, 
                            "v": 81, 
                            "dur": 928, 
                            "type": "note", 
                            "channel": 9
                        }
                    ]
                ], 
                [
                    419508, 
                    [
                        {
                            "pitch": 64, 
                            "t0": 419508, 
                            "v": 84, 
                            "dur": 730, 
                            "type": "note", 
                            "channel": 9
                        }
                    ]
                ], 
                [
                    420542, 
                    [
                        {
                            "pitch": 64, 
                            "t0": 420542, 
                            "v": 81, 
                            "dur": 812, 
                            "type": "note", 
                            "channel": 9
                        }
                    ]
                ], 
                [
                    421584, 
                    [
                        {
                            "pitch": 64, 
                            "t0": 421584, 
                            "v": 75, 
                            "dur": 392, 
                            "type": "note", 
                            "channel": 9
                        }
                    ]
                ], 
                [
                    422088, 
                    [
                        {
                            "pitch": 60, 
                            "t0": 422088, 
                            "v": 81, 
                            "dur": 750, 
                            "type": "note", 
                            "channel": 9
                        }
                    ]
                ], 
                [
                    423046, 
                    [
                        {
                            "pitch": 60, 
                            "t0": 423046, 
                            "v": 86, 
                            "dur": 1324, 
                            "type": "note", 
                            "channel": 9
                        }
                    ]
                ], 
                [
                    425104, 
                    [
                        {
                            "pitch": 64, 
                            "t0": 425104, 
                            "v": 78, 
                            "dur": 142, 
                            "type": "note", 
                            "channel": 9
                        }
                    ]
                ], 
                [
                    425366, 
                    [
                        {
                            "pitch": 64, 
                            "t0": 425366, 
                            "v": 50, 
                            "dur": 438, 
                            "type": "note", 
                            "channel": 9
                        }
                    ]
                ], 
                [
                    426084, 
                    [
                        {
                            "pitch": 60, 
                            "t0": 426084, 
                            "v": 81, 
                            "dur": 346, 
                            "type": "note", 
                            "channel": 9
                        }
                    ]
                ], 
                [
                    426570, 
                    [
                        {
                            "pitch": 60, 
                            "t0": 426570, 
                            "v": 75, 
                            "dur": 1368, 
                            "type": "note", 
                            "channel": 9
                        }
                    ]
                ], 
                [
                    428088, 
                    [
                        {
                            "pitch": 64, 
                            "t0": 428088, 
                            "v": 72, 
                            "dur": 312, 
                            "type": "note", 
                            "channel": 9
                        }
                    ]
                ], 
                [
                    428558, 
                    [
                        {
                            "pitch": 64, 
                            "t0": 428558, 
                            "v": 72, 
                            "dur": 912, 
                            "type": "note", 
                            "channel": 9
                        }
                    ]
                ], 
                [
                    429558, 
                    [
                        {
                            "pitch": 60, 
                            "t0": 429558, 
                            "v": 81, 
                            "dur": 1258, 
                            "type": "note", 
                            "channel": 9
                        }
                    ]
                ], 
                [
                    431050, 
                    [
                        {
                            "pitch": 60, 
                            "t0": 431050, 
                            "v": 75, 
                            "dur": 308, 
                            "type": "note", 
                            "channel": 9
                        }
                    ]
                ], 
                [
                    431500, 
                    [
                        {
                            "pitch": 60, 
                            "t0": 431500, 
                            "v": 72, 
                            "dur": 680, 
                            "type": "note", 
                            "channel": 9
                        }
                    ]
                ], 
                [
                    433070, 
                    [
                        {
                            "pitch": 64, 
                            "t0": 433070, 
                            "v": 75, 
                            "dur": 164, 
                            "type": "note", 
                            "channel": 9
                        }
                    ]
                ], 
                [
                    433346, 
                    [
                        {
                            "pitch": 64, 
                            "t0": 433346, 
                            "v": 56, 
                            "dur": 454, 
                            "type": "note", 
                            "channel": 9
                        }
                    ]
                ], 
                [
                    434062, 
                    [
                        {
                            "pitch": 60, 
                            "t0": 434062, 
                            "v": 81, 
                            "dur": 330, 
                            "type": "note", 
                            "channel": 9
                        }
                    ]
                ], 
                [
                    434526, 
                    [
                        {
                            "pitch": 60, 
                            "t0": 434526, 
                            "v": 72, 
                            "dur": 1328, 
                            "type": "note", 
                            "channel": 9
                        }
                    ]
                ], 
                [
                    436000, 
                    [
                        {
                            "pitch": 64, 
                            "t0": 436000, 
                            "v": 72, 
                            "dur": 250, 
                            "type": "note", 
                            "channel": 9
                        }
                    ]
                ], 
                [
                    436476, 
                    [
                        {
                            "pitch": 64, 
                            "t0": 436476, 
                            "v": 72, 
                            "dur": 874, 
                            "type": "note", 
                            "channel": 9
                        }
                    ]
                ], 
                [
                    437526, 
                    [
                        {
                            "pitch": 60, 
                            "t0": 437526, 
                            "v": 81, 
                            "dur": 840, 
                            "type": "note", 
                            "channel": 9
                        }
                    ]
                ], 
                [
                    438570, 
                    [
                        {
                            "pitch": 60, 
                            "t0": 438570, 
                            "v": 75, 
                            "dur": 776, 
                            "type": "note", 
                            "channel": 9
                        }
                    ]
                ], 
                [
                    439504, 
                    [
                        {
                            "pitch": 60, 
                            "t0": 439504, 
                            "v": 72, 
                            "dur": 680, 
                            "type": "note", 
                            "channel": 9
                        }
                    ]
                ], 
                [
                    441008, 
                    [
                        {
                            "pitch": 64, 
                            "t0": 441008, 
                            "v": 70, 
                            "dur": 154, 
                            "type": "note", 
                            "channel": 9
                        }
                    ]
                ], 
                [
                    441300, 
                    [
                        {
                            "pitch": 64, 
                            "t0": 441300, 
                            "v": 56, 
                            "dur": 346, 
                            "type": "note", 
                            "channel": 9
                        }
                    ]
                ], 
                [
                    441930, 
                    [
                        {
                            "pitch": 60, 
                            "t0": 441930, 
                            "v": 84, 
                            "dur": 1028, 
                            "type": "note", 
                            "channel": 9
                        }
                    ]
                ], 
                [
                    443538, 
                    [
                        {
                            "pitch": 64, 
                            "t0": 443538, 
                            "v": 81, 
                            "dur": 478, 
                            "type": "note", 
                            "channel": 9
                        }
                    ]
                ], 
                [
                    444538, 
                    [
                        {
                            "pitch": 64, 
                            "t0": 444538, 
                            "v": 78, 
                            "dur": 520, 
                            "type": "note", 
                            "channel": 9
                        }
                    ]
                ], 
                [
                    445584, 
                    [
                        {
                            "pitch": 60, 
                            "t0": 445584, 
                            "v": 50, 
                            "dur": 312, 
                            "type": "note", 
                            "channel": 9
                        }
                    ]
                ], 
                [
                    446550, 
                    [
                        {
                            "pitch": 60, 
                            "t0": 446550, 
                            "v": 78, 
                            "dur": 426, 
                            "type": "note", 
                            "channel": 9
                        }
                    ]
                ], 
                [
                    447530, 
                    [
                        {
                            "pitch": 60, 
                            "t0": 447530, 
                            "v": 75, 
                            "dur": 750, 
                            "type": "note", 
                            "channel": 9
                        }
                    ]
                ], 
                [
                    449092, 
                    [
                        {
                            "pitch": 64, 
                            "t0": 449092, 
                            "v": 58, 
                            "dur": 154, 
                            "type": "note", 
                            "channel": 9
                        }
                    ]
                ], 
                [
                    449376, 
                    [
                        {
                            "pitch": 64, 
                            "t0": 449376, 
                            "v": 32, 
                            "dur": 158, 
                            "type": "note", 
                            "channel": 9
                        }
                    ]
                ], 
                [
                    450038, 
                    [
                        {
                            "pitch": 60, 
                            "t0": 450038, 
                            "v": 78, 
                            "dur": 212, 
                            "type": "note", 
                            "channel": 9
                        }
                    ]
                ], 
                [
                    450550, 
                    [
                        {
                            "pitch": 60, 
                            "t0": 450550, 
                            "v": 67, 
                            "dur": 250, 
                            "type": "note", 
                            "channel": 9
                        }
                    ]
                ], 
                [
                    451654, 
                    [
                        {
                            "pitch": 64, 
                            "t0": 451654, 
                            "v": 70, 
                            "dur": 422, 
                            "type": "note", 
                            "channel": 9
                        }
                    ]
                ], 
                [
                    452684, 
                    [
                        {
                            "pitch": 64, 
                            "t0": 452684, 
                            "v": 70, 
                            "dur": 512, 
                            "type": "note", 
                            "channel": 9
                        }
                    ]
                ], 
                [
                    453566, 
                    [
                        {
                            "pitch": 64, 
                            "t0": 453566, 
                            "v": 53, 
                            "dur": 354, 
                            "type": "note", 
                            "channel": 9
                        }
                    ]
                ], 
                [
                    454150, 
                    [
                        {
                            "pitch": 60, 
                            "t0": 454150, 
                            "v": 78, 
                            "dur": 492, 
                            "type": "note", 
                            "channel": 9
                        }
                    ]
                ], 
                [
                    455088, 
                    [
                        {
                            "pitch": 60, 
                            "t0": 455088, 
                            "v": 81, 
                            "dur": 262, 
                            "type": "note", 
                            "channel": 9
                        }
                    ]
                ], 
                [
                    455530, 
                    [
                        {
                            "pitch": 60, 
                            "t0": 455530, 
                            "v": 64, 
                            "dur": 258, 
                            "type": "note", 
                            "channel": 9
                        }
                    ]
                ], 
                [
                    457030, 
                    [
                        {
                            "pitch": 64, 
                            "t0": 457030, 
                            "v": 50, 
                            "dur": 100, 
                            "type": "note", 
                            "channel": 9
                        }
                    ]
                ], 
                [
                    457288, 
                    [
                        {
                            "pitch": 64, 
                            "t0": 457288, 
                            "v": 37, 
                            "dur": 154, 
                            "type": "note", 
                            "channel": 9
                        }
                    ]
                ], 
                [
                    458004, 
                    [
                        {
                            "pitch": 60, 
                            "t0": 458004, 
                            "v": 78, 
                            "dur": 412, 
                            "type": "note", 
                            "channel": 9
                        }
                    ]
                ], 
                [
                    459488, 
                    [
                        {
                            "pitch": 64, 
                            "t0": 459488, 
                            "v": 70, 
                            "dur": 250, 
                            "type": "note", 
                            "channel": 9
                        }
                    ]
                ], 
                [
                    460470, 
                    [
                        {
                            "pitch": 60, 
                            "t0": 460470, 
                            "v": 64, 
                            "dur": 360, 
                            "type": "note", 
                            "channel": 9
                        }
                    ]
                ], 
                [
                    461488, 
                    [
                        {
                            "pitch": 60, 
                            "t0": 461488, 
                            "v": 72, 
                            "dur": 324, 
                            "type": "note", 
                            "channel": 9
                        }
                    ]
                ], 
                [
                    462458, 
                    [
                        {
                            "pitch": 60, 
                            "t0": 462458, 
                            "v": 67, 
                            "dur": 204, 
                            "type": "note", 
                            "channel": 9
                        }
                    ]
                ], 
                [
                    462916, 
                    [
                        {
                            "pitch": 60, 
                            "t0": 462916, 
                            "v": 67, 
                            "dur": 172, 
                            "type": "note", 
                            "channel": 9
                        }
                    ]
                ], 
                [
                    465066, 
                    [
                        {
                            "pitch": 64, 
                            "t0": 465066, 
                            "v": 72, 
                            "dur": 114, 
                            "type": "note", 
                            "channel": 9
                        }
                    ]
                ], 
                [
                    465342, 
                    [
                        {
                            "pitch": 64, 
                            "t0": 465342, 
                            "v": 42, 
                            "dur": 304, 
                            "type": "note", 
                            "channel": 9
                        }
                    ]
                ], 
                [
                    466084, 
                    [
                        {
                            "pitch": 60, 
                            "t0": 466084, 
                            "v": 81, 
                            "dur": 208, 
                            "type": "note", 
                            "channel": 9
                        }
                    ]
                ], 
                [
                    466550, 
                    [
                        {
                            "pitch": 60, 
                            "t0": 466550, 
                            "v": 61, 
                            "dur": 404, 
                            "type": "note", 
                            "channel": 9
                        }
                    ]
                ], 
                [
                    468088, 
                    [
                        {
                            "pitch": 64, 
                            "t0": 468088, 
                            "v": 58, 
                            "dur": 270, 
                            "type": "note", 
                            "channel": 9
                        }
                    ]
                ], 
                [
                    468600, 
                    [
                        {
                            "pitch": 64, 
                            "t0": 468600, 
                            "v": 70, 
                            "dur": 562, 
                            "type": "note", 
                            "channel": 9
                        }
                    ]
                ], 
                [
                    469566, 
                    [
                        {
                            "pitch": 60, 
                            "t0": 469566, 
                            "v": 70, 
                            "dur": 730, 
                            "type": "note", 
                            "channel": 9
                        }
                    ]
                ], 
                [
                    470516, 
                    [
                        {
                            "pitch": 60, 
                            "t0": 470516, 
                            "v": 56, 
                            "dur": 242, 
                            "type": "note", 
                            "channel": 9
                        }
                    ]
                ], 
                [
                    471500, 
                    [
                        {
                            "pitch": 60, 
                            "t0": 471500, 
                            "v": 50, 
                            "dur": 350, 
                            "type": "note", 
                            "channel": 9
                        }
                    ]
                ], 
                [
                    473130, 
                    [
                        {
                            "pitch": 64, 
                            "t0": 473130, 
                            "v": 67, 
                            "dur": 128, 
                            "type": "note", 
                            "channel": 9
                        }
                    ]
                ], 
                [
                    473400, 
                    [
                        {
                            "pitch": 64, 
                            "t0": 473400, 
                            "v": 61, 
                            "dur": 320, 
                            "type": "note", 
                            "channel": 9
                        }
                    ]
                ], 
                [
                    474058, 
                    [
                        {
                            "pitch": 60, 
                            "t0": 474058, 
                            "v": 75, 
                            "dur": 222, 
                            "type": "note", 
                            "channel": 9
                        }
                    ]
                ], 
                [
                    474530, 
                    [
                        {
                            "pitch": 60, 
                            "t0": 474530, 
                            "v": 67, 
                            "dur": 470, 
                            "type": "note", 
                            "channel": 9
                        }
                    ]
                ], 
                [
                    476000, 
                    [
                        {
                            "pitch": 64, 
                            "t0": 476000, 
                            "v": 67, 
                            "dur": 416, 
                            "type": "note", 
                            "channel": 9
                        }
                    ]
                ], 
                [
                    477546, 
                    [
                        {
                            "pitch": 60, 
                            "t0": 477546, 
                            "v": 78, 
                            "dur": 620, 
                            "type": "note", 
                            "channel": 9
                        }
                    ]
                ], 
                [
                    478542, 
                    [
                        {
                            "pitch": 60, 
                            "t0": 478542, 
                            "v": 67, 
                            "dur": 646, 
                            "type": "note", 
                            "channel": 9
                        }
                    ]
                ], 
                [
                    479484, 
                    [
                        {
                            "pitch": 60, 
                            "t0": 479484, 
                            "v": 56, 
                            "dur": 528, 
                            "type": "note", 
                            "channel": 9
                        }
                    ]
                ], 
                [
                    481108, 
                    [
                        {
                            "pitch": 64, 
                            "t0": 481108, 
                            "v": 58, 
                            "dur": 134, 
                            "type": "note", 
                            "channel": 9
                        }
                    ]
                ], 
                [
                    481380, 
                    [
                        {
                            "pitch": 64, 
                            "t0": 481380, 
                            "v": 37, 
                            "dur": 246, 
                            "type": "note", 
                            "channel": 9
                        }
                    ]
                ], 
                [
                    482070, 
                    [
                        {
                            "pitch": 60, 
                            "t0": 482070, 
                            "v": 72, 
                            "dur": 656, 
                            "type": "note", 
                            "channel": 9
                        }
                    ]
                ], 
                [
                    483504, 
                    [
                        {
                            "pitch": 64, 
                            "t0": 483504, 
                            "v": 75, 
                            "dur": 484, 
                            "type": "note", 
                            "channel": 9
                        }
                    ]
                ], 
                [
                    484492, 
                    [
                        {
                            "pitch": 60, 
                            "t0": 484492, 
                            "v": 75, 
                            "dur": 462, 
                            "type": "note", 
                            "channel": 9
                        }
                    ]
                ], 
                [
                    485500, 
                    [
                        {
                            "pitch": 64, 
                            "t0": 485500, 
                            "v": 58, 
                            "dur": 208, 
                            "type": "note", 
                            "channel": 9
                        }
                    ]
                ], 
                [
                    485992, 
                    [
                        {
                            "pitch": 60, 
                            "t0": 485992, 
                            "v": 78, 
                            "dur": 300, 
                            "type": "note", 
                            "channel": 9
                        }
                    ]
                ], 
                [
                    487042, 
                    [
                        {
                            "pitch": 64, 
                            "t0": 487042, 
                            "v": 72, 
                            "dur": 384, 
                            "type": "note", 
                            "channel": 9
                        }
                    ]
                ], 
                [
                    488104, 
                    [
                        {
                            "pitch": 64, 
                            "t0": 488104, 
                            "v": 75, 
                            "dur": 488, 
                            "type": "note", 
                            "channel": 9
                        }
                    ]
                ], 
                [
                    489058, 
                    [
                        {
                            "pitch": 64, 
                            "t0": 489058, 
                            "v": 53, 
                            "dur": 100, 
                            "type": "note", 
                            "channel": 9
                        }
                    ]
                ], 
                [
                    489300, 
                    [
                        {
                            "pitch": 64, 
                            "t0": 489300, 
                            "v": 47, 
                            "dur": 176, 
                            "type": "note", 
                            "channel": 9
                        }
                    ]
                ], 
                [
                    489570, 
                    [
                        {
                            "pitch": 64, 
                            "t0": 489570, 
                            "v": 32, 
                            "dur": 146, 
                            "type": "note", 
                            "channel": 9
                        }
                    ]
                ], 
                [
                    490112, 
                    [
                        {
                            "pitch": 60, 
                            "t0": 490112, 
                            "v": 81, 
                            "dur": 476, 
                            "type": "note", 
                            "channel": 9
                        }
                    ]
                ], 
                [
                    491500, 
                    [
                        {
                            "pitch": 64, 
                            "t0": 491500, 
                            "v": 72, 
                            "dur": 262, 
                            "type": "note", 
                            "channel": 9
                        }
                    ]
                ], 
                [
                    492520, 
                    [
                        {
                            "pitch": 64, 
                            "t0": 492520, 
                            "v": 72, 
                            "dur": 434, 
                            "type": "note", 
                            "channel": 9
                        }
                    ]
                ], 
                [
                    493538, 
                    [
                        {
                            "pitch": 64, 
                            "t0": 493538, 
                            "v": 44, 
                            "dur": 162, 
                            "type": "note", 
                            "channel": 9
                        }
                    ]
                ], 
                [
                    494046, 
                    [
                        {
                            "pitch": 60, 
                            "t0": 494046, 
                            "v": 78, 
                            "dur": 192, 
                            "type": "note", 
                            "channel": 9
                        }
                    ]
                ], 
                [
                    494516, 
                    [
                        {
                            "pitch": 60, 
                            "t0": 494516, 
                            "v": 75, 
                            "dur": 268, 
                            "type": "note", 
                            "channel": 9
                        }
                    ]
                ], 
                [
                    495016, 
                    [
                        {
                            "pitch": 60, 
                            "t0": 495016, 
                            "v": 81, 
                            "dur": 276, 
                            "type": "note", 
                            "channel": 9
                        }
                    ]
                ], 
                [
                    495480, 
                    [
                        {
                            "pitch": 60, 
                            "t0": 495480, 
                            "v": 75, 
                            "dur": 286, 
                            "type": "note", 
                            "channel": 9
                        }
                    ]
                ], 
                [
                    497016, 
                    [
                        {
                            "pitch": 64, 
                            "t0": 497016, 
                            "v": 72, 
                            "dur": 92, 
                            "type": "note", 
                            "channel": 9
                        }
                    ]
                ], 
                [
                    497266, 
                    [
                        {
                            "pitch": 64, 
                            "t0": 497266, 
                            "v": 40, 
                            "dur": 126, 
                            "type": "note", 
                            "channel": 9
                        }
                    ]
                ], 
                [
                    497270, 
                    [
                        {
                            "pitch": 62, 
                            "t0": 497270, 
                            "v": 35, 
                            "dur": 114, 
                            "type": "note", 
                            "channel": 9
                        }
                    ]
                ], 
                [
                    498034, 
                    [
                        {
                            "pitch": 60, 
                            "t0": 498034, 
                            "v": 75, 
                            "dur": 450, 
                            "type": "note", 
                            "channel": 9
                        }
                    ]
                ], 
                [
                    499534, 
                    [
                        {
                            "pitch": 64, 
                            "t0": 499534, 
                            "v": 75, 
                            "dur": 420, 
                            "type": "note", 
                            "channel": 9
                        }
                    ]
                ], 
                [
                    500538, 
                    [
                        {
                            "pitch": 64, 
                            "t0": 500538, 
                            "v": 72, 
                            "dur": 524, 
                            "type": "note", 
                            "channel": 9
                        }
                    ]
                ], 
                [
                    501530, 
                    [
                        {
                            "pitch": 64, 
                            "t0": 501530, 
                            "v": 47, 
                            "dur": 182, 
                            "type": "note", 
                            "channel": 9
                        }
                    ]
                ], 
                [
                    502054, 
                    [
                        {
                            "pitch": 60, 
                            "t0": 502054, 
                            "v": 72, 
                            "dur": 558, 
                            "type": "note", 
                            "channel": 9
                        }
                    ]
                ], 
                [
                    502962, 
                    [
                        {
                            "pitch": 60, 
                            "t0": 502962, 
                            "v": 78, 
                            "dur": 258, 
                            "type": "note", 
                            "channel": 9
                        }
                    ]
                ], 
                [
                    505062, 
                    [
                        {
                            "pitch": 64, 
                            "t0": 505062, 
                            "v": 70, 
                            "dur": 122, 
                            "type": "note", 
                            "channel": 9
                        }
                    ]
                ], 
                [
                    505320, 
                    [
                        {
                            "pitch": 64, 
                            "t0": 505320, 
                            "v": 56, 
                            "dur": 306, 
                            "type": "note", 
                            "channel": 9
                        }
                    ]
                ], 
                [
                    506042, 
                    [
                        {
                            "pitch": 60, 
                            "t0": 506042, 
                            "v": 81, 
                            "dur": 620, 
                            "type": "note", 
                            "channel": 9
                        }
                    ]
                ], 
                [
                    507538, 
                    [
                        {
                            "pitch": 64, 
                            "t0": 507538, 
                            "v": 78, 
                            "dur": 424, 
                            "type": "note", 
                            "channel": 9
                        }
                    ]
                ], 
                [
                    508492, 
                    [
                        {
                            "pitch": 64, 
                            "t0": 508492, 
                            "v": 78, 
                            "dur": 670, 
                            "type": "note", 
                            "channel": 9
                        }
                    ]
                ], 
                [
                    509466, 
                    [
                        {
                            "pitch": 64, 
                            "t0": 509466, 
                            "v": 72, 
                            "dur": 204, 
                            "type": "note", 
                            "channel": 9
                        }
                    ]
                ], 
                [
                    510038, 
                    [
                        {
                            "pitch": 60, 
                            "t0": 510038, 
                            "v": 78, 
                            "dur": 562, 
                            "type": "note", 
                            "channel": 9
                        }
                    ]
                ], 
                [
                    510046, 
                    [
                        {
                            "pitch": 62, 
                            "t0": 510046, 
                            "v": 67, 
                            "dur": 338, 
                            "type": "note", 
                            "channel": 9
                        }
                    ]
                ], 
                [
                    511054, 
                    [
                        {
                            "pitch": 60, 
                            "t0": 511054, 
                            "v": 84, 
                            "dur": 662, 
                            "type": "note", 
                            "channel": 9
                        }
                    ]
                ], 
                [
                    513058, 
                    [
                        {
                            "pitch": 62, 
                            "t0": 513058, 
                            "v": 58, 
                            "dur": 146, 
                            "type": "note", 
                            "channel": 9
                        }, 
                        {
                            "pitch": 64, 
                            "t0": 513058, 
                            "v": 58, 
                            "dur": 154, 
                            "type": "note", 
                            "channel": 9
                        }
                    ]
                ], 
                [
                    513342, 
                    [
                        {
                            "pitch": 64, 
                            "t0": 513342, 
                            "v": 32, 
                            "dur": 408, 
                            "type": "note", 
                            "channel": 9
                        }
                    ]
                ], 
                [
                    514076, 
                    [
                        {
                            "pitch": 60, 
                            "t0": 514076, 
                            "v": 78, 
                            "dur": 1186, 
                            "type": "note", 
                            "channel": 9
                        }
                    ]
                ], 
                [
                    515550, 
                    [
                        {
                            "pitch": 64, 
                            "t0": 515550, 
                            "v": 75, 
                            "dur": 626, 
                            "type": "note", 
                            "channel": 9
                        }
                    ]
                ], 
                [
                    516512, 
                    [
                        {
                            "pitch": 64, 
                            "t0": 516512, 
                            "v": 72, 
                            "dur": 804, 
                            "type": "note", 
                            "channel": 9
                        }
                    ]
                ], 
                [
                    517526, 
                    [
                        {
                            "pitch": 64, 
                            "t0": 517526, 
                            "v": 58, 
                            "dur": 182, 
                            "type": "note", 
                            "channel": 9
                        }
                    ]
                ], 
                [
                    518012, 
                    [
                        {
                            "pitch": 60, 
                            "t0": 518012, 
                            "v": 84, 
                            "dur": 238, 
                            "type": "note", 
                            "channel": 9
                        }
                    ]
                ], 
                [
                    518488, 
                    [
                        {
                            "pitch": 60, 
                            "t0": 518488, 
                            "v": 81, 
                            "dur": 196, 
                            "type": "note", 
                            "channel": 9
                        }
                    ]
                ], 
                [
                    518976, 
                    [
                        {
                            "pitch": 60, 
                            "t0": 518976, 
                            "v": 81, 
                            "dur": 290, 
                            "type": "note", 
                            "channel": 9
                        }
                    ]
                ], 
                [
                    519470, 
                    [
                        {
                            "pitch": 60, 
                            "t0": 519470, 
                            "v": 75, 
                            "dur": 534, 
                            "type": "note", 
                            "channel": 9
                        }
                    ]
                ], 
                [
                    521050, 
                    [
                        {
                            "pitch": 64, 
                            "t0": 521050, 
                            "v": 72, 
                            "dur": 158, 
                            "type": "note", 
                            "channel": 9
                        }
                    ]
                ], 
                [
                    521338, 
                    [
                        {
                            "pitch": 64, 
                            "t0": 521338, 
                            "v": 39, 
                            "dur": 296, 
                            "type": "note", 
                            "channel": 9
                        }
                    ]
                ], 
                [
                    521342, 
                    [
                        {
                            "pitch": 62, 
                            "t0": 521342, 
                            "v": 50, 
                            "dur": 220, 
                            "type": "note", 
                            "channel": 9
                        }
                    ]
                ], 
                [
                    522096, 
                    [
                        {
                            "pitch": 60, 
                            "t0": 522096, 
                            "v": 81, 
                            "dur": 1154, 
                            "type": "note", 
                            "channel": 9
                        }
                    ]
                ], 
                [
                    523538, 
                    [
                        {
                            "pitch": 64, 
                            "t0": 523538, 
                            "v": 81, 
                            "dur": 696, 
                            "type": "note", 
                            "channel": 9
                        }
                    ]
                ], 
                [
                    524538, 
                    [
                        {
                            "pitch": 64, 
                            "t0": 524538, 
                            "v": 72, 
                            "dur": 666, 
                            "type": "note", 
                            "channel": 9
                        }
                    ]
                ], 
                [
                    525462, 
                    [
                        {
                            "pitch": 64, 
                            "t0": 525462, 
                            "v": 75, 
                            "dur": 300, 
                            "type": "note", 
                            "channel": 9
                        }
                    ]
                ], 
                [
                    526062, 
                    [
                        {
                            "pitch": 60, 
                            "t0": 526062, 
                            "v": 81, 
                            "dur": 188, 
                            "type": "note", 
                            "channel": 9
                        }
                    ]
                ], 
                [
                    526546, 
                    [
                        {
                            "pitch": 60, 
                            "t0": 526546, 
                            "v": 72, 
                            "dur": 188, 
                            "type": "note", 
                            "channel": 9
                        }
                    ]
                ], 
                [
                    527508, 
                    [
                        {
                            "pitch": 60, 
                            "t0": 527508, 
                            "v": 75, 
                            "dur": 192, 
                            "type": "note", 
                            "channel": 9
                        }
                    ]
                ], 
                [
                    529092, 
                    [
                        {
                            "pitch": 64, 
                            "t0": 529092, 
                            "v": 70, 
                            "dur": 138, 
                            "type": "note", 
                            "channel": 9
                        }
                    ]
                ], 
                [
                    529384, 
                    [
                        {
                            "pitch": 64, 
                            "t0": 529384, 
                            "v": 47, 
                            "dur": 358, 
                            "type": "note", 
                            "channel": 9
                        }
                    ]
                ], 
                [
                    530108, 
                    [
                        {
                            "pitch": 60, 
                            "t0": 530108, 
                            "v": 81, 
                            "dur": 634, 
                            "type": "note", 
                            "channel": 9
                        }
                    ]
                ], 
                [
                    531596, 
                    [
                        {
                            "pitch": 64, 
                            "t0": 531596, 
                            "v": 72, 
                            "dur": 458, 
                            "type": "note", 
                            "channel": 9
                        }
                    ]
                ], 
                [
                    532592, 
                    [
                        {
                            "pitch": 64, 
                            "t0": 532592, 
                            "v": 78, 
                            "dur": 542, 
                            "type": "note", 
                            "channel": 9
                        }
                    ]
                ], 
                [
                    533576, 
                    [
                        {
                            "pitch": 64, 
                            "t0": 533576, 
                            "v": 75, 
                            "dur": 194, 
                            "type": "note", 
                            "channel": 9
                        }
                    ]
                ], 
                [
                    534066, 
                    [
                        {
                            "pitch": 60, 
                            "t0": 534066, 
                            "v": 84, 
                            "dur": 288, 
                            "type": "note", 
                            "channel": 9
                        }
                    ]
                ], 
                [
                    534550, 
                    [
                        {
                            "pitch": 60, 
                            "t0": 534550, 
                            "v": 72, 
                            "dur": 396, 
                            "type": "note", 
                            "channel": 9
                        }
                    ]
                ], 
                [
                    535500, 
                    [
                        {
                            "pitch": 60, 
                            "t0": 535500, 
                            "v": 81, 
                            "dur": 566, 
                            "type": "note", 
                            "channel": 9
                        }
                    ]
                ], 
                [
                    537062, 
                    [
                        {
                            "pitch": 64, 
                            "t0": 537062, 
                            "v": 72, 
                            "dur": 138, 
                            "type": "note", 
                            "channel": 9
                        }
                    ]
                ], 
                [
                    537334, 
                    [
                        {
                            "pitch": 64, 
                            "t0": 537334, 
                            "v": 56, 
                            "dur": 378, 
                            "type": "note", 
                            "channel": 9
                        }
                    ]
                ], 
                [
                    538054, 
                    [
                        {
                            "pitch": 60, 
                            "t0": 538054, 
                            "v": 78, 
                            "dur": 826, 
                            "type": "note", 
                            "channel": 9
                        }
                    ]
                ], 
                [
                    539426, 
                    [
                        {
                            "pitch": 64, 
                            "t0": 539426, 
                            "v": 70, 
                            "dur": 562, 
                            "type": "note", 
                            "channel": 9
                        }
                    ]
                ], 
                [
                    540446, 
                    [
                        {
                            "pitch": 64, 
                            "t0": 540446, 
                            "v": 75, 
                            "dur": 684, 
                            "type": "note", 
                            "channel": 9
                        }
                    ]
                ], 
                [
                    541492, 
                    [
                        {
                            "pitch": 64, 
                            "t0": 541492, 
                            "v": 47, 
                            "dur": 204, 
                            "type": "note", 
                            "channel": 9
                        }
                    ]
                ], 
                [
                    541992, 
                    [
                        {
                            "pitch": 60, 
                            "t0": 541992, 
                            "v": 78, 
                            "dur": 596, 
                            "type": "note", 
                            "channel": 9
                        }
                    ]
                ], 
                [
                    543034, 
                    [
                        {
                            "pitch": 60, 
                            "t0": 543034, 
                            "v": 81, 
                            "dur": 862, 
                            "type": "note", 
                            "channel": 9
                        }
                    ]
                ], 
                [
                    545096, 
                    [
                        {
                            "pitch": 64, 
                            "t0": 545096, 
                            "v": 44, 
                            "dur": 192, 
                            "type": "note", 
                            "channel": 9
                        }
                    ]
                ], 
                [
                    546100, 
                    [
                        {
                            "pitch": 64, 
                            "t0": 546100, 
                            "v": 36, 
                            "dur": 384, 
                            "type": "note", 
                            "channel": 9
                        }
                    ]
                ], 
                [
                    547030, 
                    [
                        {
                            "pitch": 64, 
                            "t0": 547030, 
                            "v": 53, 
                            "dur": 516, 
                            "type": "note", 
                            "channel": 9
                        }
                    ]
                ], 
                [
                    549096, 
                    [
                        {
                            "pitch": 64, 
                            "t0": 549096, 
                            "v": 50, 
                            "dur": 442, 
                            "type": "note", 
                            "channel": 9
                        }
                    ]
                ], 
                [
                    550570, 
                    [
                        {
                            "pitch": 64, 
                            "t0": 550570, 
                            "v": 72, 
                            "dur": 280, 
                            "type": "note", 
                            "channel": 9
                        }
                    ]
                ], 
                [
                    551570, 
                    [
                        {
                            "pitch": 64, 
                            "t0": 551570, 
                            "v": 53, 
                            "dur": 580, 
                            "type": "note", 
                            "channel": 9
                        }
                    ]
                ], 
                [
                    553070, 
                    [
                        {
                            "pitch": 64, 
                            "t0": 553070, 
                            "v": 50, 
                            "dur": 326, 
                            "type": "note", 
                            "channel": 9
                        }
                    ]
                ], 
                [
                    554500, 
                    [
                        {
                            "pitch": 64, 
                            "t0": 554500, 
                            "v": 34, 
                            "dur": 180, 
                            "type": "note", 
                            "channel": 9
                        }
                    ]
                ], 
                [
                    555976, 
                    [
                        {
                            "pitch": 64, 
                            "t0": 555976, 
                            "v": 30, 
                            "dur": 232, 
                            "type": "note", 
                            "channel": 9
                        }
                    ]
                ], 
                [
                    557470, 
                    [
                        {
                            "pitch": 64, 
                            "t0": 557470, 
                            "v": 36, 
                            "dur": 342, 
                            "type": "note", 
                            "channel": 9
                        }
                    ]
                ], 
                [
                    559034, 
                    [
                        {
                            "pitch": 64, 
                            "t0": 559034, 
                            "v": 44, 
                            "dur": 254, 
                            "type": "note", 
                            "channel": 9
                        }
                    ]
                ], 
                [
                    570050, 
                    [
                        {
                            "pitch": 43, 
                            "t0": 570050, 
                            "v": 44, 
                            "dur": 184, 
                            "type": "note", 
                            "channel": 9
                        }, 
                        {
                            "pitch": 41, 
                            "t0": 570050, 
                            "v": 39, 
                            "dur": 196, 
                            "type": "note", 
                            "channel": 9
                        }
                    ]
                ]
            ], 
            "instruments": [
                32
            ], 
            "tMax": 570050, 
            "channels": [
                9
            ], 
            "instrument": 32, 
            "numNotes": 691, 
            "type": "TrackObj"
        }, 
        {
            "trackName": "Instrument Track", 
            "seq": [
                [
                    0, 
                    [
                        {
                            "instrument": 75, 
                            "type": "programChange", 
                            "t0": 0, 
                            "channel": 10
                        }
                    ]
                ], 
                [
                    114416, 
                    [
                        {
                            "pitch": 81, 
                            "t0": 114416, 
                            "v": 120, 
                            "dur": 5730, 
                            "type": "note", 
                            "channel": 10
                        }
                    ]
                ], 
                [
                    128916, 
                    [
                        {
                            "pitch": 74, 
                            "t0": 128916, 
                            "v": 16, 
                            "dur": 88, 
                            "type": "note", 
                            "channel": 10
                        }
                    ]
                ], 
                [
                    129366, 
                    [
                        {
                            "pitch": 76, 
                            "t0": 129366, 
                            "v": 100, 
                            "dur": 160, 
                            "type": "note", 
                            "channel": 10
                        }
                    ]
                ], 
                [
                    129526, 
                    [
                        {
                            "pitch": 74, 
                            "t0": 129526, 
                            "v": 68, 
                            "dur": 190, 
                            "type": "note", 
                            "channel": 10
                        }
                    ]
                ], 
                [
                    129688, 
                    [
                        {
                            "pitch": 76, 
                            "t0": 129688, 
                            "v": 108, 
                            "dur": 6688, 
                            "type": "note", 
                            "channel": 10
                        }
                    ]
                ], 
                [
                    147684, 
                    [
                        {
                            "pitch": 69, 
                            "t0": 147684, 
                            "v": 120, 
                            "dur": 4532, 
                            "type": "note", 
                            "channel": 10
                        }
                    ]
                ], 
                [
                    159530, 
                    [
                        {
                            "pitch": 76, 
                            "t0": 159530, 
                            "v": 108, 
                            "dur": 146, 
                            "type": "note", 
                            "channel": 10
                        }
                    ]
                ], 
                [
                    159646, 
                    [
                        {
                            "pitch": 74, 
                            "t0": 159646, 
                            "v": 96, 
                            "dur": 200, 
                            "type": "note", 
                            "channel": 10
                        }
                    ]
                ], 
                [
                    159846, 
                    [
                        {
                            "pitch": 76, 
                            "t0": 159846, 
                            "v": 112, 
                            "dur": 8266, 
                            "type": "note", 
                            "channel": 10
                        }
                    ]
                ], 
                [
                    179300, 
                    [
                        {
                            "pitch": 69, 
                            "t0": 179300, 
                            "v": 108, 
                            "dur": 180, 
                            "type": "note", 
                            "channel": 10
                        }
                    ]
                ], 
                [
                    179466, 
                    [
                        {
                            "pitch": 67, 
                            "t0": 179466, 
                            "v": 104, 
                            "dur": 226, 
                            "type": "note", 
                            "channel": 10
                        }
                    ]
                ], 
                [
                    179638, 
                    [
                        {
                            "pitch": 69, 
                            "t0": 179638, 
                            "v": 112, 
                            "dur": 1924, 
                            "type": "note", 
                            "channel": 10
                        }
                    ]
                ], 
                [
                    179650, 
                    [
                        {
                            "pitch": 71, 
                            "t0": 179650, 
                            "v": 108, 
                            "dur": 96, 
                            "type": "note", 
                            "channel": 10
                        }
                    ]
                ], 
                [
                    181504, 
                    [
                        {
                            "pitch": 76, 
                            "t0": 181504, 
                            "v": 120, 
                            "dur": 1492, 
                            "type": "note", 
                            "channel": 10
                        }
                    ]
                ], 
                [
                    182888, 
                    [
                        {
                            "pitch": 74, 
                            "t0": 182888, 
                            "v": 100, 
                            "dur": 3758, 
                            "type": "note", 
                            "channel": 10
                        }
                    ]
                ], 
                [
                    187496, 
                    [
                        {
                            "pitch": 69, 
                            "t0": 187496, 
                            "v": 88, 
                            "dur": 104, 
                            "type": "note", 
                            "channel": 10
                        }
                    ]
                ], 
                [
                    187608, 
                    [
                        {
                            "pitch": 67, 
                            "t0": 187608, 
                            "v": 84, 
                            "dur": 172, 
                            "type": "note", 
                            "channel": 10
                        }
                    ]
                ], 
                [
                    187776, 
                    [
                        {
                            "pitch": 69, 
                            "t0": 187776, 
                            "v": 108, 
                            "dur": 1500, 
                            "type": "note", 
                            "channel": 10
                        }
                    ]
                ], 
                [
                    189550, 
                    [
                        {
                            "pitch": 74, 
                            "t0": 189550, 
                            "v": 112, 
                            "dur": 1376, 
                            "type": "note", 
                            "channel": 10
                        }
                    ]
                ], 
                [
                    190896, 
                    [
                        {
                            "pitch": 76, 
                            "t0": 190896, 
                            "v": 112, 
                            "dur": 2734, 
                            "type": "note", 
                            "channel": 10
                        }
                    ]
                ], 
                [
                    193512, 
                    [
                        {
                            "pitch": 74, 
                            "t0": 193512, 
                            "v": 80, 
                            "dur": 6634, 
                            "type": "note", 
                            "channel": 10
                        }
                    ]
                ], 
                [
                    211542, 
                    [
                        {
                            "pitch": 79, 
                            "t0": 211542, 
                            "v": 48, 
                            "dur": 124, 
                            "type": "note", 
                            "channel": 10
                        }
                    ]
                ], 
                [
                    211676, 
                    [
                        {
                            "pitch": 81, 
                            "t0": 211676, 
                            "v": 96, 
                            "dur": 170, 
                            "type": "note", 
                            "channel": 10
                        }
                    ]
                ], 
                [
                    211820, 
                    [
                        {
                            "pitch": 79, 
                            "t0": 211820, 
                            "v": 100, 
                            "dur": 218, 
                            "type": "note", 
                            "channel": 10
                        }
                    ]
                ], 
                [
                    211958, 
                    [
                        {
                            "pitch": 81, 
                            "t0": 211958, 
                            "v": 112, 
                            "dur": 1050, 
                            "type": "note", 
                            "channel": 10
                        }
                    ]
                ], 
                [
                    212926, 
                    [
                        {
                            "pitch": 79, 
                            "t0": 212926, 
                            "v": 116, 
                            "dur": 1008, 
                            "type": "note", 
                            "channel": 10
                        }
                    ]
                ], 
                [
                    213904, 
                    [
                        {
                            "pitch": 76, 
                            "t0": 213904, 
                            "v": 104, 
                            "dur": 5038, 
                            "type": "note", 
                            "channel": 10
                        }
                    ]
                ], 
                [
                    221688, 
                    [
                        {
                            "pitch": 81, 
                            "t0": 221688, 
                            "v": 72, 
                            "dur": 108, 
                            "type": "note", 
                            "channel": 10
                        }
                    ]
                ], 
                [
                    221770, 
                    [
                        {
                            "pitch": 79, 
                            "t0": 221770, 
                            "v": 56, 
                            "dur": 230, 
                            "type": "note", 
                            "channel": 10
                        }
                    ]
                ], 
                [
                    221954, 
                    [
                        {
                            "pitch": 81, 
                            "t0": 221954, 
                            "v": 104, 
                            "dur": 1058, 
                            "type": "note", 
                            "channel": 10
                        }
                    ]
                ], 
                [
                    222920, 
                    [
                        {
                            "pitch": 79, 
                            "t0": 222920, 
                            "v": 120, 
                            "dur": 1046, 
                            "type": "note", 
                            "channel": 10
                        }
                    ]
                ], 
                [
                    223946, 
                    [
                        {
                            "pitch": 76, 
                            "t0": 223946, 
                            "v": 108, 
                            "dur": 1604, 
                            "type": "note", 
                            "channel": 10
                        }
                    ]
                ], 
                [
                    225462, 
                    [
                        {
                            "pitch": 74, 
                            "t0": 225462, 
                            "v": 88, 
                            "dur": 514, 
                            "type": "note", 
                            "channel": 10
                        }
                    ]
                ], 
                [
                    225934, 
                    [
                        {
                            "pitch": 76, 
                            "t0": 225934, 
                            "v": 116, 
                            "dur": 6116, 
                            "type": "note", 
                            "channel": 10
                        }
                    ]
                ], 
                [
                    244608, 
                    [
                        {
                            "pitch": 81, 
                            "t0": 244608, 
                            "v": 116, 
                            "dur": 896, 
                            "type": "note", 
                            "channel": 10
                        }
                    ]
                ], 
                [
                    245438, 
                    [
                        {
                            "pitch": 79, 
                            "t0": 245438, 
                            "v": 112, 
                            "dur": 550, 
                            "type": "note", 
                            "channel": 10
                        }
                    ]
                ], 
                [
                    245950, 
                    [
                        {
                            "pitch": 76, 
                            "t0": 245950, 
                            "v": 104, 
                            "dur": 1126, 
                            "type": "note", 
                            "channel": 10
                        }
                    ]
                ], 
                [
                    246954, 
                    [
                        {
                            "pitch": 74, 
                            "t0": 246954, 
                            "v": 100, 
                            "dur": 988, 
                            "type": "note", 
                            "channel": 10
                        }
                    ]
                ], 
                [
                    248016, 
                    [
                        {
                            "pitch": 74, 
                            "t0": 248016, 
                            "v": 96, 
                            "dur": 2810, 
                            "type": "note", 
                            "channel": 10
                        }
                    ]
                ], 
                [
                    250946, 
                    [
                        {
                            "pitch": 74, 
                            "t0": 250946, 
                            "v": 40, 
                            "dur": 424, 
                            "type": "note", 
                            "channel": 10
                        }
                    ]
                ], 
                [
                    251916, 
                    [
                        {
                            "pitch": 74, 
                            "t0": 251916, 
                            "v": 116, 
                            "dur": 1510, 
                            "type": "note", 
                            "channel": 10
                        }
                    ]
                ], 
                [
                    253350, 
                    [
                        {
                            "pitch": 76, 
                            "t0": 253350, 
                            "v": 112, 
                            "dur": 1646, 
                            "type": "note", 
                            "channel": 10
                        }
                    ]
                ], 
                [
                    254896, 
                    [
                        {
                            "pitch": 74, 
                            "t0": 254896, 
                            "v": 100, 
                            "dur": 1038, 
                            "type": "note", 
                            "channel": 10
                        }
                    ]
                ], 
                [
                    256050, 
                    [
                        {
                            "pitch": 69, 
                            "t0": 256050, 
                            "v": 108, 
                            "dur": 3950, 
                            "type": "note", 
                            "channel": 10
                        }
                    ]
                ], 
                [
                    274754, 
                    [
                        {
                            "pitch": 69, 
                            "t0": 274754, 
                            "v": 116, 
                            "dur": 7542, 
                            "type": "note", 
                            "channel": 10
                        }
                    ]
                ], 
                [
                    291362, 
                    [
                        {
                            "pitch": 69, 
                            "t0": 291362, 
                            "v": 76, 
                            "dur": 100, 
                            "type": "note", 
                            "channel": 10
                        }
                    ]
                ], 
                [
                    291488, 
                    [
                        {
                            "pitch": 67, 
                            "t0": 291488, 
                            "v": 92, 
                            "dur": 166, 
                            "type": "note", 
                            "channel": 10
                        }
                    ]
                ], 
                [
                    291650, 
                    [
                        {
                            "pitch": 69, 
                            "t0": 291650, 
                            "v": 100, 
                            "dur": 226, 
                            "type": "note", 
                            "channel": 10
                        }
                    ]
                ], 
                [
                    291808, 
                    [
                        {
                            "pitch": 67, 
                            "t0": 291808, 
                            "v": 104, 
                            "dur": 1750, 
                            "type": "note", 
                            "channel": 10
                        }
                    ]
                ], 
                [
                    293492, 
                    [
                        {
                            "pitch": 69, 
                            "t0": 293492, 
                            "v": 112, 
                            "dur": 2578, 
                            "type": "note", 
                            "channel": 10
                        }
                    ]
                ], 
                [
                    305800, 
                    [
                        {
                            "pitch": 67, 
                            "t0": 305800, 
                            "v": 60, 
                            "dur": 196, 
                            "type": "note", 
                            "channel": 10
                        }
                    ]
                ], 
                [
                    305992, 
                    [
                        {
                            "pitch": 69, 
                            "t0": 305992, 
                            "v": 100, 
                            "dur": 3492, 
                            "type": "note", 
                            "channel": 10
                        }
                    ]
                ], 
                [
                    315676, 
                    [
                        {
                            "pitch": 76, 
                            "t0": 315676, 
                            "v": 35, 
                            "dur": 44, 
                            "type": "note", 
                            "channel": 10
                        }
                    ]
                ], 
                [
                    315746, 
                    [
                        {
                            "pitch": 74, 
                            "t0": 315746, 
                            "v": 76, 
                            "dur": 224, 
                            "type": "note", 
                            "channel": 10
                        }
                    ]
                ], 
                [
                    315926, 
                    [
                        {
                            "pitch": 76, 
                            "t0": 315926, 
                            "v": 112, 
                            "dur": 1708, 
                            "type": "note", 
                            "channel": 10
                        }
                    ]
                ], 
                [
                    316050, 
                    [
                        {
                            "pitch": 74, 
                            "t0": 316050, 
                            "v": 76, 
                            "dur": 116, 
                            "type": "note", 
                            "channel": 10
                        }
                    ]
                ], 
                [
                    317516, 
                    [
                        {
                            "pitch": 74, 
                            "t0": 317516, 
                            "v": 112, 
                            "dur": 2010, 
                            "type": "note", 
                            "channel": 10
                        }
                    ]
                ], 
                [
                    319480, 
                    [
                        {
                            "pitch": 67, 
                            "t0": 319480, 
                            "v": 96, 
                            "dur": 524, 
                            "type": "note", 
                            "channel": 10
                        }
                    ]
                ], 
                [
                    319942, 
                    [
                        {
                            "pitch": 69, 
                            "t0": 319942, 
                            "v": 104, 
                            "dur": 4308, 
                            "type": "note", 
                            "channel": 10
                        }
                    ]
                ], 
                [
                    338576, 
                    [
                        {
                            "pitch": 81, 
                            "t0": 338576, 
                            "v": 116, 
                            "dur": 1532, 
                            "type": "note", 
                            "channel": 10
                        }
                    ]
                ], 
                [
                    339988, 
                    [
                        {
                            "pitch": 79, 
                            "t0": 339988, 
                            "v": 116, 
                            "dur": 2732, 
                            "type": "note", 
                            "channel": 10
                        }
                    ]
                ], 
                [
                    342650, 
                    [
                        {
                            "pitch": 81, 
                            "t0": 342650, 
                            "v": 108, 
                            "dur": 1458, 
                            "type": "note", 
                            "channel": 10
                        }
                    ]
                ], 
                [
                    344004, 
                    [
                        {
                            "pitch": 79, 
                            "t0": 344004, 
                            "v": 116, 
                            "dur": 3408, 
                            "type": "note", 
                            "channel": 10
                        }
                    ]
                ], 
                [
                    347316, 
                    [
                        {
                            "pitch": 76, 
                            "t0": 347316, 
                            "v": 80, 
                            "dur": 2210, 
                            "type": "note", 
                            "channel": 10
                        }
                    ]
                ], 
                [
                    349408, 
                    [
                        {
                            "pitch": 74, 
                            "t0": 349408, 
                            "v": 100, 
                            "dur": 1684, 
                            "type": "note", 
                            "channel": 10
                        }
                    ]
                ], 
                [
                    350996, 
                    [
                        {
                            "pitch": 76, 
                            "t0": 350996, 
                            "v": 80, 
                            "dur": 816, 
                            "type": "note", 
                            "channel": 10
                        }
                    ]
                ], 
                [
                    352020, 
                    [
                        {
                            "pitch": 74, 
                            "t0": 352020, 
                            "v": 112, 
                            "dur": 1596, 
                            "type": "note", 
                            "channel": 10
                        }
                    ]
                ], 
                [
                    353520, 
                    [
                        {
                            "pitch": 76, 
                            "t0": 353520, 
                            "v": 104, 
                            "dur": 6546, 
                            "type": "note", 
                            "channel": 10
                        }
                    ]
                ], 
                [
                    371446, 
                    [
                        {
                            "pitch": 69, 
                            "t0": 371446, 
                            "v": 72, 
                            "dur": 116, 
                            "type": "note", 
                            "channel": 10
                        }
                    ]
                ], 
                [
                    371592, 
                    [
                        {
                            "pitch": 67, 
                            "t0": 371592, 
                            "v": 76, 
                            "dur": 150, 
                            "type": "note", 
                            "channel": 10
                        }
                    ]
                ], 
                [
                    371726, 
                    [
                        {
                            "pitch": 69, 
                            "t0": 371726, 
                            "v": 108, 
                            "dur": 3874, 
                            "type": "note", 
                            "channel": 10
                        }
                    ]
                ], 
                [
                    383400, 
                    [
                        {
                            "pitch": 69, 
                            "t0": 383400, 
                            "v": 54, 
                            "dur": 100, 
                            "type": "note", 
                            "channel": 10
                        }
                    ]
                ], 
                [
                    383496, 
                    [
                        {
                            "pitch": 67, 
                            "t0": 383496, 
                            "v": 50, 
                            "dur": 196, 
                            "type": "note", 
                            "channel": 10
                        }
                    ]
                ], 
                [
                    383704, 
                    [
                        {
                            "pitch": 69, 
                            "t0": 383704, 
                            "v": 76, 
                            "dur": 104, 
                            "type": "note", 
                            "channel": 10
                        }
                    ]
                ], 
                [
                    383766, 
                    [
                        {
                            "pitch": 67, 
                            "t0": 383766, 
                            "v": 64, 
                            "dur": 242, 
                            "type": "note", 
                            "channel": 10
                        }
                    ]
                ], 
                [
                    383950, 
                    [
                        {
                            "pitch": 69, 
                            "t0": 383950, 
                            "v": 96, 
                            "dur": 3142, 
                            "type": "note", 
                            "channel": 10
                        }
                    ]
                ], 
                [
                    385766, 
                    [
                        {
                            "pitch": 67, 
                            "t0": 385766, 
                            "v": 35, 
                            "dur": 76, 
                            "type": "note", 
                            "channel": 10
                        }
                    ]
                ], 
                [
                    386958, 
                    [
                        {
                            "pitch": 67, 
                            "t0": 386958, 
                            "v": 92, 
                            "dur": 1558, 
                            "type": "note", 
                            "channel": 10
                        }
                    ]
                ], 
                [
                    388446, 
                    [
                        {
                            "pitch": 64, 
                            "t0": 388446, 
                            "v": 76, 
                            "dur": 2516, 
                            "type": "note", 
                            "channel": 10
                        }
                    ]
                ], 
                [
                    390850, 
                    [
                        {
                            "pitch": 62, 
                            "t0": 390850, 
                            "v": 88, 
                            "dur": 4720, 
                            "type": "note", 
                            "channel": 10
                        }
                    ]
                ], 
                [
                    395316, 
                    [
                        {
                            "pitch": 67, 
                            "t0": 395316, 
                            "v": 43, 
                            "dur": 330, 
                            "type": "note", 
                            "channel": 10
                        }
                    ]
                ], 
                [
                    395620, 
                    [
                        {
                            "pitch": 69, 
                            "t0": 395620, 
                            "v": 72, 
                            "dur": 138, 
                            "type": "note", 
                            "channel": 10
                        }
                    ]
                ], 
                [
                    395762, 
                    [
                        {
                            "pitch": 67, 
                            "t0": 395762, 
                            "v": 58, 
                            "dur": 184, 
                            "type": "note", 
                            "channel": 10
                        }
                    ]
                ], 
                [
                    395888, 
                    [
                        {
                            "pitch": 69, 
                            "t0": 395888, 
                            "v": 108, 
                            "dur": 1082, 
                            "type": "note", 
                            "channel": 10
                        }
                    ]
                ], 
                [
                    396750, 
                    [
                        {
                            "pitch": 67, 
                            "t0": 396750, 
                            "v": 80, 
                            "dur": 1120, 
                            "type": "note", 
                            "channel": 10
                        }
                    ]
                ], 
                [
                    397834, 
                    [
                        {
                            "pitch": 64, 
                            "t0": 397834, 
                            "v": 100, 
                            "dur": 1236, 
                            "type": "note", 
                            "channel": 10
                        }
                    ]
                ], 
                [
                    398916, 
                    [
                        {
                            "pitch": 62, 
                            "t0": 398916, 
                            "v": 68, 
                            "dur": 572, 
                            "type": "note", 
                            "channel": 10
                        }
                    ]
                ], 
                [
                    399392, 
                    [
                        {
                            "pitch": 64, 
                            "t0": 399392, 
                            "v": 80, 
                            "dur": 8700, 
                            "type": "note", 
                            "channel": 10
                        }
                    ]
                ], 
                [
                    420720, 
                    [
                        {
                            "pitch": 69, 
                            "t0": 420720, 
                            "v": 124, 
                            "dur": 3456, 
                            "type": "note", 
                            "channel": 10
                        }
                    ]
                ], 
                [
                    431484, 
                    [
                        {
                            "pitch": 76, 
                            "t0": 431484, 
                            "v": 88, 
                            "dur": 154, 
                            "type": "note", 
                            "channel": 10
                        }
                    ]
                ], 
                [
                    431642, 
                    [
                        {
                            "pitch": 74, 
                            "t0": 431642, 
                            "v": 80, 
                            "dur": 212, 
                            "type": "note", 
                            "channel": 10
                        }
                    ]
                ], 
                [
                    431816, 
                    [
                        {
                            "pitch": 76, 
                            "t0": 431816, 
                            "v": 108, 
                            "dur": 2526, 
                            "type": "note", 
                            "channel": 10
                        }
                    ]
                ], 
                [
                    434162, 
                    [
                        {
                            "pitch": 74, 
                            "t0": 434162, 
                            "v": 80, 
                            "dur": 5108, 
                            "type": "note", 
                            "channel": 10
                        }
                    ]
                ], 
                [
                    439542, 
                    [
                        {
                            "pitch": 76, 
                            "t0": 439542, 
                            "v": 100, 
                            "dur": 188, 
                            "type": "note", 
                            "channel": 10
                        }
                    ]
                ], 
                [
                    439700, 
                    [
                        {
                            "pitch": 74, 
                            "t0": 439700, 
                            "v": 88, 
                            "dur": 216, 
                            "type": "note", 
                            "channel": 10
                        }
                    ]
                ], 
                [
                    439904, 
                    [
                        {
                            "pitch": 76, 
                            "t0": 439904, 
                            "v": 104, 
                            "dur": 2130, 
                            "type": "note", 
                            "channel": 10
                        }
                    ]
                ], 
                [
                    441930, 
                    [
                        {
                            "pitch": 74, 
                            "t0": 441930, 
                            "v": 112, 
                            "dur": 5304, 
                            "type": "note", 
                            "channel": 10
                        }
                    ]
                ], 
                [
                    446930, 
                    [
                        {
                            "pitch": 69, 
                            "t0": 446930, 
                            "v": 92, 
                            "dur": 878, 
                            "type": "note", 
                            "channel": 10
                        }
                    ]
                ], 
                [
                    447800, 
                    [
                        {
                            "pitch": 67, 
                            "t0": 447800, 
                            "v": 84, 
                            "dur": 358, 
                            "type": "note", 
                            "channel": 10
                        }
                    ]
                ], 
                [
                    448130, 
                    [
                        {
                            "pitch": 69, 
                            "t0": 448130, 
                            "v": 108, 
                            "dur": 4228, 
                            "type": "note", 
                            "channel": 10
                        }
                    ]
                ], 
                [
                    455488, 
                    [
                        {
                            "pitch": 67, 
                            "t0": 455488, 
                            "v": 100, 
                            "dur": 574, 
                            "type": "note", 
                            "channel": 10
                        }
                    ]
                ], 
                [
                    455984, 
                    [
                        {
                            "pitch": 69, 
                            "t0": 455984, 
                            "v": 108, 
                            "dur": 3592, 
                            "type": "note", 
                            "channel": 10
                        }
                    ]
                ], 
                [
                    467420, 
                    [
                        {
                            "pitch": 81, 
                            "t0": 467420, 
                            "v": 116, 
                            "dur": 4734, 
                            "type": "note", 
                            "channel": 10
                        }
                    ]
                ], 
                [
                    467458, 
                    [
                        {
                            "pitch": 79, 
                            "t0": 467458, 
                            "v": 64, 
                            "dur": 76, 
                            "type": "note", 
                            "channel": 10
                        }
                    ]
                ], 
                [
                    479642, 
                    [
                        {
                            "pitch": 79, 
                            "t0": 479642, 
                            "v": 41, 
                            "dur": 528, 
                            "type": "note", 
                            "channel": 10
                        }
                    ]
                ], 
                [
                    480070, 
                    [
                        {
                            "pitch": 81, 
                            "t0": 480070, 
                            "v": 112, 
                            "dur": 4734, 
                            "type": "note", 
                            "channel": 10
                        }
                    ]
                ], 
                [
                    484670, 
                    [
                        {
                            "pitch": 76, 
                            "t0": 484670, 
                            "v": 64, 
                            "dur": 2630, 
                            "type": "note", 
                            "channel": 10
                        }
                    ]
                ], 
                [
                    486984, 
                    [
                        {
                            "pitch": 81, 
                            "t0": 486984, 
                            "v": 100, 
                            "dur": 2778, 
                            "type": "note", 
                            "channel": 10
                        }
                    ]
                ], 
                [
                    489642, 
                    [
                        {
                            "pitch": 76, 
                            "t0": 489642, 
                            "v": 104, 
                            "dur": 3024, 
                            "type": "note", 
                            "channel": 10
                        }
                    ]
                ], 
                [
                    492570, 
                    [
                        {
                            "pitch": 81, 
                            "t0": 492570, 
                            "v": 108, 
                            "dur": 1668, 
                            "type": "note", 
                            "channel": 10
                        }
                    ]
                ], 
                [
                    494146, 
                    [
                        {
                            "pitch": 76, 
                            "t0": 494146, 
                            "v": 96, 
                            "dur": 1412, 
                            "type": "note", 
                            "channel": 10
                        }
                    ]
                ], 
                [
                    495442, 
                    [
                        {
                            "pitch": 74, 
                            "t0": 495442, 
                            "v": 84, 
                            "dur": 816, 
                            "type": "note", 
                            "channel": 10
                        }
                    ]
                ], 
                [
                    496004, 
                    [
                        {
                            "pitch": 76, 
                            "t0": 496004, 
                            "v": 64, 
                            "dur": 4076, 
                            "type": "note", 
                            "channel": 10
                        }
                    ]
                ], 
                [
                    507942, 
                    [
                        {
                            "pitch": 64, 
                            "t0": 507942, 
                            "v": 88, 
                            "dur": 4188, 
                            "type": "note", 
                            "channel": 10
                        }
                    ]
                ], 
                [
                    519884, 
                    [
                        {
                            "pitch": 69, 
                            "t0": 519884, 
                            "v": 112, 
                            "dur": 8254, 
                            "type": "note", 
                            "channel": 10
                        }
                    ]
                ], 
                [
                    539970, 
                    [
                        {
                            "pitch": 69, 
                            "t0": 539970, 
                            "v": 104, 
                            "dur": 4450, 
                            "type": "note", 
                            "channel": 10
                        }
                    ]
                ], 
                [
                    550162, 
                    [
                        {
                            "pitch": 76, 
                            "t0": 550162, 
                            "v": 108, 
                            "dur": 1242, 
                            "type": "note", 
                            "channel": 10
                        }
                    ]
                ], 
                [
                    551142, 
                    [
                        {
                            "pitch": 74, 
                            "t0": 551142, 
                            "v": 72, 
                            "dur": 3108, 
                            "type": "note", 
                            "channel": 10
                        }
                    ]
                ], 
                [
                    554062, 
                    [
                        {
                            "pitch": 69, 
                            "t0": 554062, 
                            "v": 62, 
                            "dur": 14200, 
                            "type": "note", 
                            "channel": 10
                        }
                    ]
                ], 
                [
                    569938, 
                    [
                        {
                            "pitch": 41, 
                            "t0": 569938, 
                            "v": 45, 
                            "dur": 96, 
                            "type": "note", 
                            "channel": 10
                        }
                    ]
                ]
            ], 
            "instruments": [
                75
            ], 
            "tMax": 569938, 
            "channels": [
                10
            ], 
            "instrument": 75, 
            "numNotes": 120, 
            "type": "TrackObj"
        }, 
        {
            "trackName": "Instrument Track", 
            "seq": [
                [
                    0, 
                    [
                        {
                            "instrument": 75, 
                            "type": "programChange", 
                            "t0": 0, 
                            "channel": 11
                        }
                    ]
                ], 
                [
                    114916, 
                    [
                        {
                            "pitch": 81, 
                            "t0": 114916, 
                            "v": 102, 
                            "dur": 5730, 
                            "type": "note", 
                            "channel": 11
                        }
                    ]
                ], 
                [
                    129416, 
                    [
                        {
                            "pitch": 74, 
                            "t0": 129416, 
                            "v": 13, 
                            "dur": 88, 
                            "type": "note", 
                            "channel": 11
                        }
                    ]
                ], 
                [
                    129866, 
                    [
                        {
                            "pitch": 76, 
                            "t0": 129866, 
                            "v": 85, 
                            "dur": 160, 
                            "type": "note", 
                            "channel": 11
                        }
                    ]
                ], 
                [
                    130026, 
                    [
                        {
                            "pitch": 74, 
                            "t0": 130026, 
                            "v": 57, 
                            "dur": 190, 
                            "type": "note", 
                            "channel": 11
                        }
                    ]
                ], 
                [
                    130188, 
                    [
                        {
                            "pitch": 76, 
                            "t0": 130188, 
                            "v": 91, 
                            "dur": 6688, 
                            "type": "note", 
                            "channel": 11
                        }
                    ]
                ], 
                [
                    148184, 
                    [
                        {
                            "pitch": 69, 
                            "t0": 148184, 
                            "v": 102, 
                            "dur": 4532, 
                            "type": "note", 
                            "channel": 11
                        }
                    ]
                ], 
                [
                    160030, 
                    [
                        {
                            "pitch": 76, 
                            "t0": 160030, 
                            "v": 91, 
                            "dur": 146, 
                            "type": "note", 
                            "channel": 11
                        }
                    ]
                ], 
                [
                    160146, 
                    [
                        {
                            "pitch": 74, 
                            "t0": 160146, 
                            "v": 81, 
                            "dur": 200, 
                            "type": "note", 
                            "channel": 11
                        }
                    ]
                ], 
                [
                    160346, 
                    [
                        {
                            "pitch": 76, 
                            "t0": 160346, 
                            "v": 95, 
                            "dur": 8266, 
                            "type": "note", 
                            "channel": 11
                        }
                    ]
                ], 
                [
                    179800, 
                    [
                        {
                            "pitch": 69, 
                            "t0": 179800, 
                            "v": 91, 
                            "dur": 180, 
                            "type": "note", 
                            "channel": 11
                        }
                    ]
                ], 
                [
                    179966, 
                    [
                        {
                            "pitch": 67, 
                            "t0": 179966, 
                            "v": 88, 
                            "dur": 226, 
                            "type": "note", 
                            "channel": 11
                        }
                    ]
                ], 
                [
                    180138, 
                    [
                        {
                            "pitch": 69, 
                            "t0": 180138, 
                            "v": 95, 
                            "dur": 1924, 
                            "type": "note", 
                            "channel": 11
                        }
                    ]
                ], 
                [
                    180150, 
                    [
                        {
                            "pitch": 71, 
                            "t0": 180150, 
                            "v": 91, 
                            "dur": 96, 
                            "type": "note", 
                            "channel": 11
                        }
                    ]
                ], 
                [
                    182004, 
                    [
                        {
                            "pitch": 76, 
                            "t0": 182004, 
                            "v": 102, 
                            "dur": 1492, 
                            "type": "note", 
                            "channel": 11
                        }
                    ]
                ], 
                [
                    183388, 
                    [
                        {
                            "pitch": 74, 
                            "t0": 183388, 
                            "v": 85, 
                            "dur": 3758, 
                            "type": "note", 
                            "channel": 11
                        }
                    ]
                ], 
                [
                    187996, 
                    [
                        {
                            "pitch": 69, 
                            "t0": 187996, 
                            "v": 74, 
                            "dur": 104, 
                            "type": "note", 
                            "channel": 11
                        }
                    ]
                ], 
                [
                    188108, 
                    [
                        {
                            "pitch": 67, 
                            "t0": 188108, 
                            "v": 71, 
                            "dur": 172, 
                            "type": "note", 
                            "channel": 11
                        }
                    ]
                ], 
                [
                    188276, 
                    [
                        {
                            "pitch": 69, 
                            "t0": 188276, 
                            "v": 91, 
                            "dur": 1500, 
                            "type": "note", 
                            "channel": 11
                        }
                    ]
                ], 
                [
                    190050, 
                    [
                        {
                            "pitch": 74, 
                            "t0": 190050, 
                            "v": 95, 
                            "dur": 1376, 
                            "type": "note", 
                            "channel": 11
                        }
                    ]
                ], 
                [
                    191396, 
                    [
                        {
                            "pitch": 76, 
                            "t0": 191396, 
                            "v": 95, 
                            "dur": 2734, 
                            "type": "note", 
                            "channel": 11
                        }
                    ]
                ], 
                [
                    194012, 
                    [
                        {
                            "pitch": 74, 
                            "t0": 194012, 
                            "v": 68, 
                            "dur": 6634, 
                            "type": "note", 
                            "channel": 11
                        }
                    ]
                ], 
                [
                    212042, 
                    [
                        {
                            "pitch": 79, 
                            "t0": 212042, 
                            "v": 40, 
                            "dur": 124, 
                            "type": "note", 
                            "channel": 11
                        }
                    ]
                ], 
                [
                    212176, 
                    [
                        {
                            "pitch": 81, 
                            "t0": 212176, 
                            "v": 81, 
                            "dur": 170, 
                            "type": "note", 
                            "channel": 11
                        }
                    ]
                ], 
                [
                    212320, 
                    [
                        {
                            "pitch": 79, 
                            "t0": 212320, 
                            "v": 85, 
                            "dur": 218, 
                            "type": "note", 
                            "channel": 11
                        }
                    ]
                ], 
                [
                    212458, 
                    [
                        {
                            "pitch": 81, 
                            "t0": 212458, 
                            "v": 95, 
                            "dur": 1050, 
                            "type": "note", 
                            "channel": 11
                        }
                    ]
                ], 
                [
                    213426, 
                    [
                        {
                            "pitch": 79, 
                            "t0": 213426, 
                            "v": 98, 
                            "dur": 1008, 
                            "type": "note", 
                            "channel": 11
                        }
                    ]
                ], 
                [
                    214404, 
                    [
                        {
                            "pitch": 76, 
                            "t0": 214404, 
                            "v": 88, 
                            "dur": 5038, 
                            "type": "note", 
                            "channel": 11
                        }
                    ]
                ], 
                [
                    222188, 
                    [
                        {
                            "pitch": 81, 
                            "t0": 222188, 
                            "v": 61, 
                            "dur": 108, 
                            "type": "note", 
                            "channel": 11
                        }
                    ]
                ], 
                [
                    222270, 
                    [
                        {
                            "pitch": 79, 
                            "t0": 222270, 
                            "v": 47, 
                            "dur": 230, 
                            "type": "note", 
                            "channel": 11
                        }
                    ]
                ], 
                [
                    222454, 
                    [
                        {
                            "pitch": 81, 
                            "t0": 222454, 
                            "v": 88, 
                            "dur": 1058, 
                            "type": "note", 
                            "channel": 11
                        }
                    ]
                ], 
                [
                    223420, 
                    [
                        {
                            "pitch": 79, 
                            "t0": 223420, 
                            "v": 102, 
                            "dur": 1046, 
                            "type": "note", 
                            "channel": 11
                        }
                    ]
                ], 
                [
                    224446, 
                    [
                        {
                            "pitch": 76, 
                            "t0": 224446, 
                            "v": 91, 
                            "dur": 1604, 
                            "type": "note", 
                            "channel": 11
                        }
                    ]
                ], 
                [
                    225962, 
                    [
                        {
                            "pitch": 74, 
                            "t0": 225962, 
                            "v": 74, 
                            "dur": 514, 
                            "type": "note", 
                            "channel": 11
                        }
                    ]
                ], 
                [
                    226434, 
                    [
                        {
                            "pitch": 76, 
                            "t0": 226434, 
                            "v": 98, 
                            "dur": 6116, 
                            "type": "note", 
                            "channel": 11
                        }
                    ]
                ], 
                [
                    245108, 
                    [
                        {
                            "pitch": 81, 
                            "t0": 245108, 
                            "v": 98, 
                            "dur": 896, 
                            "type": "note", 
                            "channel": 11
                        }
                    ]
                ], 
                [
                    245938, 
                    [
                        {
                            "pitch": 79, 
                            "t0": 245938, 
                            "v": 95, 
                            "dur": 550, 
                            "type": "note", 
                            "channel": 11
                        }
                    ]
                ], 
                [
                    246450, 
                    [
                        {
                            "pitch": 76, 
                            "t0": 246450, 
                            "v": 88, 
                            "dur": 1126, 
                            "type": "note", 
                            "channel": 11
                        }
                    ]
                ], 
                [
                    247454, 
                    [
                        {
                            "pitch": 74, 
                            "t0": 247454, 
                            "v": 85, 
                            "dur": 988, 
                            "type": "note", 
                            "channel": 11
                        }
                    ]
                ], 
                [
                    248516, 
                    [
                        {
                            "pitch": 74, 
                            "t0": 248516, 
                            "v": 81, 
                            "dur": 2810, 
                            "type": "note", 
                            "channel": 11
                        }
                    ]
                ], 
                [
                    251446, 
                    [
                        {
                            "pitch": 74, 
                            "t0": 251446, 
                            "v": 34, 
                            "dur": 424, 
                            "type": "note", 
                            "channel": 11
                        }
                    ]
                ], 
                [
                    252416, 
                    [
                        {
                            "pitch": 74, 
                            "t0": 252416, 
                            "v": 98, 
                            "dur": 1510, 
                            "type": "note", 
                            "channel": 11
                        }
                    ]
                ], 
                [
                    253850, 
                    [
                        {
                            "pitch": 76, 
                            "t0": 253850, 
                            "v": 95, 
                            "dur": 1646, 
                            "type": "note", 
                            "channel": 11
                        }
                    ]
                ], 
                [
                    255396, 
                    [
                        {
                            "pitch": 74, 
                            "t0": 255396, 
                            "v": 85, 
                            "dur": 1038, 
                            "type": "note", 
                            "channel": 11
                        }
                    ]
                ], 
                [
                    256550, 
                    [
                        {
                            "pitch": 69, 
                            "t0": 256550, 
                            "v": 91, 
                            "dur": 3950, 
                            "type": "note", 
                            "channel": 11
                        }
                    ]
                ], 
                [
                    275254, 
                    [
                        {
                            "pitch": 69, 
                            "t0": 275254, 
                            "v": 98, 
                            "dur": 7542, 
                            "type": "note", 
                            "channel": 11
                        }
                    ]
                ], 
                [
                    291862, 
                    [
                        {
                            "pitch": 69, 
                            "t0": 291862, 
                            "v": 64, 
                            "dur": 100, 
                            "type": "note", 
                            "channel": 11
                        }
                    ]
                ], 
                [
                    291988, 
                    [
                        {
                            "pitch": 67, 
                            "t0": 291988, 
                            "v": 78, 
                            "dur": 166, 
                            "type": "note", 
                            "channel": 11
                        }
                    ]
                ], 
                [
                    292150, 
                    [
                        {
                            "pitch": 69, 
                            "t0": 292150, 
                            "v": 85, 
                            "dur": 226, 
                            "type": "note", 
                            "channel": 11
                        }
                    ]
                ], 
                [
                    292308, 
                    [
                        {
                            "pitch": 67, 
                            "t0": 292308, 
                            "v": 88, 
                            "dur": 1750, 
                            "type": "note", 
                            "channel": 11
                        }
                    ]
                ], 
                [
                    293992, 
                    [
                        {
                            "pitch": 69, 
                            "t0": 293992, 
                            "v": 95, 
                            "dur": 2578, 
                            "type": "note", 
                            "channel": 11
                        }
                    ]
                ], 
                [
                    306300, 
                    [
                        {
                            "pitch": 67, 
                            "t0": 306300, 
                            "v": 51, 
                            "dur": 196, 
                            "type": "note", 
                            "channel": 11
                        }
                    ]
                ], 
                [
                    306492, 
                    [
                        {
                            "pitch": 69, 
                            "t0": 306492, 
                            "v": 85, 
                            "dur": 3492, 
                            "type": "note", 
                            "channel": 11
                        }
                    ]
                ], 
                [
                    316176, 
                    [
                        {
                            "pitch": 76, 
                            "t0": 316176, 
                            "v": 29, 
                            "dur": 44, 
                            "type": "note", 
                            "channel": 11
                        }
                    ]
                ], 
                [
                    316246, 
                    [
                        {
                            "pitch": 74, 
                            "t0": 316246, 
                            "v": 64, 
                            "dur": 224, 
                            "type": "note", 
                            "channel": 11
                        }
                    ]
                ], 
                [
                    316426, 
                    [
                        {
                            "pitch": 76, 
                            "t0": 316426, 
                            "v": 95, 
                            "dur": 1708, 
                            "type": "note", 
                            "channel": 11
                        }
                    ]
                ], 
                [
                    316550, 
                    [
                        {
                            "pitch": 74, 
                            "t0": 316550, 
                            "v": 64, 
                            "dur": 116, 
                            "type": "note", 
                            "channel": 11
                        }
                    ]
                ], 
                [
                    318016, 
                    [
                        {
                            "pitch": 74, 
                            "t0": 318016, 
                            "v": 95, 
                            "dur": 2010, 
                            "type": "note", 
                            "channel": 11
                        }
                    ]
                ], 
                [
                    319980, 
                    [
                        {
                            "pitch": 67, 
                            "t0": 319980, 
                            "v": 81, 
                            "dur": 524, 
                            "type": "note", 
                            "channel": 11
                        }
                    ]
                ], 
                [
                    320442, 
                    [
                        {
                            "pitch": 69, 
                            "t0": 320442, 
                            "v": 88, 
                            "dur": 4308, 
                            "type": "note", 
                            "channel": 11
                        }
                    ]
                ], 
                [
                    339076, 
                    [
                        {
                            "pitch": 81, 
                            "t0": 339076, 
                            "v": 98, 
                            "dur": 1532, 
                            "type": "note", 
                            "channel": 11
                        }
                    ]
                ], 
                [
                    340488, 
                    [
                        {
                            "pitch": 79, 
                            "t0": 340488, 
                            "v": 98, 
                            "dur": 2732, 
                            "type": "note", 
                            "channel": 11
                        }
                    ]
                ], 
                [
                    343150, 
                    [
                        {
                            "pitch": 81, 
                            "t0": 343150, 
                            "v": 91, 
                            "dur": 1458, 
                            "type": "note", 
                            "channel": 11
                        }
                    ]
                ], 
                [
                    344504, 
                    [
                        {
                            "pitch": 79, 
                            "t0": 344504, 
                            "v": 98, 
                            "dur": 3408, 
                            "type": "note", 
                            "channel": 11
                        }
                    ]
                ], 
                [
                    347816, 
                    [
                        {
                            "pitch": 76, 
                            "t0": 347816, 
                            "v": 68, 
                            "dur": 2210, 
                            "type": "note", 
                            "channel": 11
                        }
                    ]
                ], 
                [
                    349908, 
                    [
                        {
                            "pitch": 74, 
                            "t0": 349908, 
                            "v": 85, 
                            "dur": 1684, 
                            "type": "note", 
                            "channel": 11
                        }
                    ]
                ], 
                [
                    351496, 
                    [
                        {
                            "pitch": 76, 
                            "t0": 351496, 
                            "v": 68, 
                            "dur": 816, 
                            "type": "note", 
                            "channel": 11
                        }
                    ]
                ], 
                [
                    352520, 
                    [
                        {
                            "pitch": 74, 
                            "t0": 352520, 
                            "v": 95, 
                            "dur": 1596, 
                            "type": "note", 
                            "channel": 11
                        }
                    ]
                ], 
                [
                    354020, 
                    [
                        {
                            "pitch": 76, 
                            "t0": 354020, 
                            "v": 88, 
                            "dur": 6546, 
                            "type": "note", 
                            "channel": 11
                        }
                    ]
                ], 
                [
                    371946, 
                    [
                        {
                            "pitch": 69, 
                            "t0": 371946, 
                            "v": 61, 
                            "dur": 116, 
                            "type": "note", 
                            "channel": 11
                        }
                    ]
                ], 
                [
                    372092, 
                    [
                        {
                            "pitch": 67, 
                            "t0": 372092, 
                            "v": 64, 
                            "dur": 150, 
                            "type": "note", 
                            "channel": 11
                        }
                    ]
                ], 
                [
                    372226, 
                    [
                        {
                            "pitch": 69, 
                            "t0": 372226, 
                            "v": 91, 
                            "dur": 3874, 
                            "type": "note", 
                            "channel": 11
                        }
                    ]
                ], 
                [
                    383900, 
                    [
                        {
                            "pitch": 69, 
                            "t0": 383900, 
                            "v": 45, 
                            "dur": 100, 
                            "type": "note", 
                            "channel": 11
                        }
                    ]
                ], 
                [
                    383996, 
                    [
                        {
                            "pitch": 67, 
                            "t0": 383996, 
                            "v": 42, 
                            "dur": 196, 
                            "type": "note", 
                            "channel": 11
                        }
                    ]
                ], 
                [
                    384204, 
                    [
                        {
                            "pitch": 69, 
                            "t0": 384204, 
                            "v": 64, 
                            "dur": 104, 
                            "type": "note", 
                            "channel": 11
                        }
                    ]
                ], 
                [
                    384266, 
                    [
                        {
                            "pitch": 67, 
                            "t0": 384266, 
                            "v": 54, 
                            "dur": 242, 
                            "type": "note", 
                            "channel": 11
                        }
                    ]
                ], 
                [
                    384450, 
                    [
                        {
                            "pitch": 69, 
                            "t0": 384450, 
                            "v": 81, 
                            "dur": 3142, 
                            "type": "note", 
                            "channel": 11
                        }
                    ]
                ], 
                [
                    386266, 
                    [
                        {
                            "pitch": 67, 
                            "t0": 386266, 
                            "v": 29, 
                            "dur": 76, 
                            "type": "note", 
                            "channel": 11
                        }
                    ]
                ], 
                [
                    387458, 
                    [
                        {
                            "pitch": 67, 
                            "t0": 387458, 
                            "v": 78, 
                            "dur": 1558, 
                            "type": "note", 
                            "channel": 11
                        }
                    ]
                ], 
                [
                    388946, 
                    [
                        {
                            "pitch": 64, 
                            "t0": 388946, 
                            "v": 64, 
                            "dur": 2516, 
                            "type": "note", 
                            "channel": 11
                        }
                    ]
                ], 
                [
                    391350, 
                    [
                        {
                            "pitch": 62, 
                            "t0": 391350, 
                            "v": 74, 
                            "dur": 4720, 
                            "type": "note", 
                            "channel": 11
                        }
                    ]
                ], 
                [
                    395816, 
                    [
                        {
                            "pitch": 67, 
                            "t0": 395816, 
                            "v": 36, 
                            "dur": 330, 
                            "type": "note", 
                            "channel": 11
                        }
                    ]
                ], 
                [
                    396120, 
                    [
                        {
                            "pitch": 69, 
                            "t0": 396120, 
                            "v": 61, 
                            "dur": 138, 
                            "type": "note", 
                            "channel": 11
                        }
                    ]
                ], 
                [
                    396262, 
                    [
                        {
                            "pitch": 67, 
                            "t0": 396262, 
                            "v": 49, 
                            "dur": 184, 
                            "type": "note", 
                            "channel": 11
                        }
                    ]
                ], 
                [
                    396388, 
                    [
                        {
                            "pitch": 69, 
                            "t0": 396388, 
                            "v": 91, 
                            "dur": 1082, 
                            "type": "note", 
                            "channel": 11
                        }
                    ]
                ], 
                [
                    397250, 
                    [
                        {
                            "pitch": 67, 
                            "t0": 397250, 
                            "v": 68, 
                            "dur": 1120, 
                            "type": "note", 
                            "channel": 11
                        }
                    ]
                ], 
                [
                    398334, 
                    [
                        {
                            "pitch": 64, 
                            "t0": 398334, 
                            "v": 85, 
                            "dur": 1236, 
                            "type": "note", 
                            "channel": 11
                        }
                    ]
                ], 
                [
                    399416, 
                    [
                        {
                            "pitch": 62, 
                            "t0": 399416, 
                            "v": 57, 
                            "dur": 572, 
                            "type": "note", 
                            "channel": 11
                        }
                    ]
                ], 
                [
                    399892, 
                    [
                        {
                            "pitch": 64, 
                            "t0": 399892, 
                            "v": 68, 
                            "dur": 8700, 
                            "type": "note", 
                            "channel": 11
                        }
                    ]
                ], 
                [
                    421220, 
                    [
                        {
                            "pitch": 69, 
                            "t0": 421220, 
                            "v": 105, 
                            "dur": 3456, 
                            "type": "note", 
                            "channel": 11
                        }
                    ]
                ], 
                [
                    431984, 
                    [
                        {
                            "pitch": 76, 
                            "t0": 431984, 
                            "v": 74, 
                            "dur": 154, 
                            "type": "note", 
                            "channel": 11
                        }
                    ]
                ], 
                [
                    432142, 
                    [
                        {
                            "pitch": 74, 
                            "t0": 432142, 
                            "v": 68, 
                            "dur": 212, 
                            "type": "note", 
                            "channel": 11
                        }
                    ]
                ], 
                [
                    432316, 
                    [
                        {
                            "pitch": 76, 
                            "t0": 432316, 
                            "v": 91, 
                            "dur": 2526, 
                            "type": "note", 
                            "channel": 11
                        }
                    ]
                ], 
                [
                    434662, 
                    [
                        {
                            "pitch": 74, 
                            "t0": 434662, 
                            "v": 68, 
                            "dur": 5108, 
                            "type": "note", 
                            "channel": 11
                        }
                    ]
                ], 
                [
                    440042, 
                    [
                        {
                            "pitch": 76, 
                            "t0": 440042, 
                            "v": 85, 
                            "dur": 188, 
                            "type": "note", 
                            "channel": 11
                        }
                    ]
                ], 
                [
                    440200, 
                    [
                        {
                            "pitch": 74, 
                            "t0": 440200, 
                            "v": 74, 
                            "dur": 216, 
                            "type": "note", 
                            "channel": 11
                        }
                    ]
                ], 
                [
                    440404, 
                    [
                        {
                            "pitch": 76, 
                            "t0": 440404, 
                            "v": 88, 
                            "dur": 2130, 
                            "type": "note", 
                            "channel": 11
                        }
                    ]
                ], 
                [
                    442430, 
                    [
                        {
                            "pitch": 74, 
                            "t0": 442430, 
                            "v": 95, 
                            "dur": 5304, 
                            "type": "note", 
                            "channel": 11
                        }
                    ]
                ], 
                [
                    447430, 
                    [
                        {
                            "pitch": 69, 
                            "t0": 447430, 
                            "v": 78, 
                            "dur": 878, 
                            "type": "note", 
                            "channel": 11
                        }
                    ]
                ], 
                [
                    448300, 
                    [
                        {
                            "pitch": 67, 
                            "t0": 448300, 
                            "v": 71, 
                            "dur": 358, 
                            "type": "note", 
                            "channel": 11
                        }
                    ]
                ], 
                [
                    448630, 
                    [
                        {
                            "pitch": 69, 
                            "t0": 448630, 
                            "v": 91, 
                            "dur": 4228, 
                            "type": "note", 
                            "channel": 11
                        }
                    ]
                ], 
                [
                    455988, 
                    [
                        {
                            "pitch": 67, 
                            "t0": 455988, 
                            "v": 85, 
                            "dur": 574, 
                            "type": "note", 
                            "channel": 11
                        }
                    ]
                ], 
                [
                    456484, 
                    [
                        {
                            "pitch": 69, 
                            "t0": 456484, 
                            "v": 91, 
                            "dur": 3550, 
                            "type": "note", 
                            "channel": 11
                        }
                    ]
                ], 
                [
                    467920, 
                    [
                        {
                            "pitch": 81, 
                            "t0": 467920, 
                            "v": 98, 
                            "dur": 4734, 
                            "type": "note", 
                            "channel": 11
                        }
                    ]
                ], 
                [
                    467958, 
                    [
                        {
                            "pitch": 79, 
                            "t0": 467958, 
                            "v": 54, 
                            "dur": 76, 
                            "type": "note", 
                            "channel": 11
                        }
                    ]
                ], 
                [
                    480142, 
                    [
                        {
                            "pitch": 79, 
                            "t0": 480142, 
                            "v": 34, 
                            "dur": 528, 
                            "type": "note", 
                            "channel": 11
                        }
                    ]
                ], 
                [
                    480570, 
                    [
                        {
                            "pitch": 81, 
                            "t0": 480570, 
                            "v": 95, 
                            "dur": 4734, 
                            "type": "note", 
                            "channel": 11
                        }
                    ]
                ], 
                [
                    485170, 
                    [
                        {
                            "pitch": 76, 
                            "t0": 485170, 
                            "v": 54, 
                            "dur": 2630, 
                            "type": "note", 
                            "channel": 11
                        }
                    ]
                ], 
                [
                    487484, 
                    [
                        {
                            "pitch": 81, 
                            "t0": 487484, 
                            "v": 85, 
                            "dur": 2778, 
                            "type": "note", 
                            "channel": 11
                        }
                    ]
                ], 
                [
                    490142, 
                    [
                        {
                            "pitch": 76, 
                            "t0": 490142, 
                            "v": 88, 
                            "dur": 3024, 
                            "type": "note", 
                            "channel": 11
                        }
                    ]
                ], 
                [
                    493070, 
                    [
                        {
                            "pitch": 81, 
                            "t0": 493070, 
                            "v": 91, 
                            "dur": 1668, 
                            "type": "note", 
                            "channel": 11
                        }
                    ]
                ], 
                [
                    494646, 
                    [
                        {
                            "pitch": 76, 
                            "t0": 494646, 
                            "v": 81, 
                            "dur": 1412, 
                            "type": "note", 
                            "channel": 11
                        }
                    ]
                ], 
                [
                    495942, 
                    [
                        {
                            "pitch": 74, 
                            "t0": 495942, 
                            "v": 71, 
                            "dur": 816, 
                            "type": "note", 
                            "channel": 11
                        }
                    ]
                ], 
                [
                    496504, 
                    [
                        {
                            "pitch": 76, 
                            "t0": 496504, 
                            "v": 54, 
                            "dur": 4076, 
                            "type": "note", 
                            "channel": 11
                        }
                    ]
                ], 
                [
                    508442, 
                    [
                        {
                            "pitch": 64, 
                            "t0": 508442, 
                            "v": 74, 
                            "dur": 4188, 
                            "type": "note", 
                            "channel": 11
                        }
                    ]
                ], 
                [
                    520384, 
                    [
                        {
                            "pitch": 69, 
                            "t0": 520384, 
                            "v": 95, 
                            "dur": 8254, 
                            "type": "note", 
                            "channel": 11
                        }
                    ]
                ], 
                [
                    540470, 
                    [
                        {
                            "pitch": 69, 
                            "t0": 540470, 
                            "v": 88, 
                            "dur": 4450, 
                            "type": "note", 
                            "channel": 11
                        }
                    ]
                ], 
                [
                    550662, 
                    [
                        {
                            "pitch": 76, 
                            "t0": 550662, 
                            "v": 91, 
                            "dur": 1242, 
                            "type": "note", 
                            "channel": 11
                        }
                    ]
                ], 
                [
                    551642, 
                    [
                        {
                            "pitch": 74, 
                            "t0": 551642, 
                            "v": 61, 
                            "dur": 3108, 
                            "type": "note", 
                            "channel": 11
                        }
                    ]
                ], 
                [
                    554562, 
                    [
                        {
                            "pitch": 69, 
                            "t0": 554562, 
                            "v": 52, 
                            "dur": 14200, 
                            "type": "note", 
                            "channel": 11
                        }
                    ]
                ], 
                [
                    570438, 
                    [
                        {
                            "pitch": 41, 
                            "t0": 570438, 
                            "v": 38, 
                            "dur": 96, 
                            "type": "note", 
                            "channel": 11
                        }
                    ]
                ]
            ], 
            "instruments": [
                75
            ], 
            "tMax": 570438, 
            "channels": [
                11
            ], 
            "instrument": 75, 
            "numNotes": 120, 
            "type": "TrackObj"
        }, 
        {
            "trackName": "Instrument Track", 
            "seq": [
                [
                    0, 
                    [
                        {
                            "instrument": 116, 
                            "type": "programChange", 
                            "t0": 0, 
                            "channel": 12
                        }
                    ]
                ], 
                [
                    89076, 
                    [
                        {
                            "pitch": 75, 
                            "t0": 89076, 
                            "v": 116, 
                            "dur": 82, 
                            "type": "note", 
                            "channel": 12
                        }
                    ]
                ], 
                [
                    89080, 
                    [
                        {
                            "pitch": 78, 
                            "t0": 89080, 
                            "v": 108, 
                            "dur": 58, 
                            "type": "note", 
                            "channel": 12
                        }, 
                        {
                            "pitch": 82, 
                            "t0": 89080, 
                            "v": 108, 
                            "dur": 78, 
                            "type": "note", 
                            "channel": 12
                        }
                    ]
                ], 
                [
                    89316, 
                    [
                        {
                            "pitch": 75, 
                            "t0": 89316, 
                            "v": 108, 
                            "dur": 100, 
                            "type": "note", 
                            "channel": 12
                        }, 
                        {
                            "pitch": 78, 
                            "t0": 89316, 
                            "v": 108, 
                            "dur": 110, 
                            "type": "note", 
                            "channel": 12
                        }
                    ]
                ], 
                [
                    89320, 
                    [
                        {
                            "pitch": 82, 
                            "t0": 89320, 
                            "v": 108, 
                            "dur": 114, 
                            "type": "note", 
                            "channel": 12
                        }
                    ]
                ], 
                [
                    89470, 
                    [
                        {
                            "pitch": 78, 
                            "t0": 89470, 
                            "v": 88, 
                            "dur": 164, 
                            "type": "note", 
                            "channel": 12
                        }
                    ]
                ], 
                [
                    89492, 
                    [
                        {
                            "pitch": 82, 
                            "t0": 89492, 
                            "v": 96, 
                            "dur": 146, 
                            "type": "note", 
                            "channel": 12
                        }
                    ]
                ], 
                [
                    89500, 
                    [
                        {
                            "pitch": 75, 
                            "t0": 89500, 
                            "v": 80, 
                            "dur": 116, 
                            "type": "note", 
                            "channel": 12
                        }
                    ]
                ], 
                [
                    90042, 
                    [
                        {
                            "pitch": 75, 
                            "t0": 90042, 
                            "v": 120, 
                            "dur": 104, 
                            "type": "note", 
                            "channel": 12
                        }
                    ]
                ], 
                [
                    90046, 
                    [
                        {
                            "pitch": 82, 
                            "t0": 90046, 
                            "v": 120, 
                            "dur": 142, 
                            "type": "note", 
                            "channel": 12
                        }
                    ]
                ], 
                [
                    90050, 
                    [
                        {
                            "pitch": 78, 
                            "t0": 90050, 
                            "v": 116, 
                            "dur": 112, 
                            "type": "note", 
                            "channel": 12
                        }
                    ]
                ], 
                [
                    92542, 
                    [
                        {
                            "pitch": 75, 
                            "t0": 92542, 
                            "v": 120, 
                            "dur": 100, 
                            "type": "note", 
                            "channel": 12
                        }
                    ]
                ], 
                [
                    92546, 
                    [
                        {
                            "pitch": 78, 
                            "t0": 92546, 
                            "v": 116, 
                            "dur": 92, 
                            "type": "note", 
                            "channel": 12
                        }, 
                        {
                            "pitch": 82, 
                            "t0": 92546, 
                            "v": 116, 
                            "dur": 104, 
                            "type": "note", 
                            "channel": 12
                        }
                    ]
                ], 
                [
                    94050, 
                    [
                        {
                            "pitch": 75, 
                            "t0": 94050, 
                            "v": 116, 
                            "dur": 108, 
                            "type": "note", 
                            "channel": 12
                        }, 
                        {
                            "pitch": 82, 
                            "t0": 94050, 
                            "v": 116, 
                            "dur": 112, 
                            "type": "note", 
                            "channel": 12
                        }
                    ]
                ], 
                [
                    94054, 
                    [
                        {
                            "pitch": 78, 
                            "t0": 94054, 
                            "v": 116, 
                            "dur": 108, 
                            "type": "note", 
                            "channel": 12
                        }
                    ]
                ], 
                [
                    94992, 
                    [
                        {
                            "pitch": 75, 
                            "t0": 94992, 
                            "v": 116, 
                            "dur": 108, 
                            "type": "note", 
                            "channel": 12
                        }
                    ]
                ], 
                [
                    94996, 
                    [
                        {
                            "pitch": 78, 
                            "t0": 94996, 
                            "v": 116, 
                            "dur": 108, 
                            "type": "note", 
                            "channel": 12
                        }, 
                        {
                            "pitch": 82, 
                            "t0": 94996, 
                            "v": 116, 
                            "dur": 112, 
                            "type": "note", 
                            "channel": 12
                        }
                    ]
                ], 
                [
                    97062, 
                    [
                        {
                            "pitch": 75, 
                            "t0": 97062, 
                            "v": 116, 
                            "dur": 92, 
                            "type": "note", 
                            "channel": 12
                        }
                    ]
                ], 
                [
                    97066, 
                    [
                        {
                            "pitch": 78, 
                            "t0": 97066, 
                            "v": 112, 
                            "dur": 76, 
                            "type": "note", 
                            "channel": 12
                        }
                    ]
                ], 
                [
                    97070, 
                    [
                        {
                            "pitch": 82, 
                            "t0": 97070, 
                            "v": 104, 
                            "dur": 84, 
                            "type": "note", 
                            "channel": 12
                        }
                    ]
                ], 
                [
                    97300, 
                    [
                        {
                            "pitch": 75, 
                            "t0": 97300, 
                            "v": 112, 
                            "dur": 134, 
                            "type": "note", 
                            "channel": 12
                        }
                    ]
                ], 
                [
                    97312, 
                    [
                        {
                            "pitch": 82, 
                            "t0": 97312, 
                            "v": 112, 
                            "dur": 96, 
                            "type": "note", 
                            "channel": 12
                        }
                    ]
                ], 
                [
                    97316, 
                    [
                        {
                            "pitch": 78, 
                            "t0": 97316, 
                            "v": 104, 
                            "dur": 84, 
                            "type": "note", 
                            "channel": 12
                        }
                    ]
                ], 
                [
                    97480, 
                    [
                        {
                            "pitch": 75, 
                            "t0": 97480, 
                            "v": 108, 
                            "dur": 146, 
                            "type": "note", 
                            "channel": 12
                        }
                    ]
                ], 
                [
                    97484, 
                    [
                        {
                            "pitch": 82, 
                            "t0": 97484, 
                            "v": 42, 
                            "dur": 132, 
                            "type": "note", 
                            "channel": 12
                        }
                    ]
                ], 
                [
                    97492, 
                    [
                        {
                            "pitch": 78, 
                            "t0": 97492, 
                            "v": 112, 
                            "dur": 142, 
                            "type": "note", 
                            "channel": 12
                        }
                    ]
                ], 
                [
                    98038, 
                    [
                        {
                            "pitch": 75, 
                            "t0": 98038, 
                            "v": 120, 
                            "dur": 108, 
                            "type": "note", 
                            "channel": 12
                        }, 
                        {
                            "pitch": 82, 
                            "t0": 98038, 
                            "v": 120, 
                            "dur": 120, 
                            "type": "note", 
                            "channel": 12
                        }
                    ]
                ], 
                [
                    98042, 
                    [
                        {
                            "pitch": 78, 
                            "t0": 98042, 
                            "v": 124, 
                            "dur": 104, 
                            "type": "note", 
                            "channel": 12
                        }
                    ]
                ], 
                [
                    100542, 
                    [
                        {
                            "pitch": 75, 
                            "t0": 100542, 
                            "v": 116, 
                            "dur": 100, 
                            "type": "note", 
                            "channel": 12
                        }
                    ]
                ], 
                [
                    100546, 
                    [
                        {
                            "pitch": 78, 
                            "t0": 100546, 
                            "v": 116, 
                            "dur": 96, 
                            "type": "note", 
                            "channel": 12
                        }, 
                        {
                            "pitch": 82, 
                            "t0": 100546, 
                            "v": 116, 
                            "dur": 104, 
                            "type": "note", 
                            "channel": 12
                        }
                    ]
                ], 
                [
                    102058, 
                    [
                        {
                            "pitch": 75, 
                            "t0": 102058, 
                            "v": 116, 
                            "dur": 112, 
                            "type": "note", 
                            "channel": 12
                        }
                    ]
                ], 
                [
                    102066, 
                    [
                        {
                            "pitch": 78, 
                            "t0": 102066, 
                            "v": 120, 
                            "dur": 114, 
                            "type": "note", 
                            "channel": 12
                        }, 
                        {
                            "pitch": 82, 
                            "t0": 102066, 
                            "v": 116, 
                            "dur": 134, 
                            "type": "note", 
                            "channel": 12
                        }
                    ]
                ], 
                [
                    103030, 
                    [
                        {
                            "pitch": 82, 
                            "t0": 103030, 
                            "v": 116, 
                            "dur": 136, 
                            "type": "note", 
                            "channel": 12
                        }
                    ]
                ], 
                [
                    103034, 
                    [
                        {
                            "pitch": 75, 
                            "t0": 103034, 
                            "v": 116, 
                            "dur": 116, 
                            "type": "note", 
                            "channel": 12
                        }
                    ]
                ], 
                [
                    103038, 
                    [
                        {
                            "pitch": 78, 
                            "t0": 103038, 
                            "v": 120, 
                            "dur": 120, 
                            "type": "note", 
                            "channel": 12
                        }
                    ]
                ], 
                [
                    105088, 
                    [
                        {
                            "pitch": 75, 
                            "t0": 105088, 
                            "v": 112, 
                            "dur": 108, 
                            "type": "note", 
                            "channel": 12
                        }
                    ]
                ], 
                [
                    105092, 
                    [
                        {
                            "pitch": 78, 
                            "t0": 105092, 
                            "v": 112, 
                            "dur": 84, 
                            "type": "note", 
                            "channel": 12
                        }
                    ]
                ], 
                [
                    105096, 
                    [
                        {
                            "pitch": 82, 
                            "t0": 105096, 
                            "v": 120, 
                            "dur": 100, 
                            "type": "note", 
                            "channel": 12
                        }
                    ]
                ], 
                [
                    105316, 
                    [
                        {
                            "pitch": 75, 
                            "t0": 105316, 
                            "v": 112, 
                            "dur": 134, 
                            "type": "note", 
                            "channel": 12
                        }
                    ]
                ], 
                [
                    105326, 
                    [
                        {
                            "pitch": 78, 
                            "t0": 105326, 
                            "v": 116, 
                            "dur": 112, 
                            "type": "note", 
                            "channel": 12
                        }
                    ]
                ], 
                [
                    105330, 
                    [
                        {
                            "pitch": 82, 
                            "t0": 105330, 
                            "v": 116, 
                            "dur": 140, 
                            "type": "note", 
                            "channel": 12
                        }
                    ]
                ], 
                [
                    105512, 
                    [
                        {
                            "pitch": 75, 
                            "t0": 105512, 
                            "v": 88, 
                            "dur": 138, 
                            "type": "note", 
                            "channel": 12
                        }
                    ]
                ], 
                [
                    105520, 
                    [
                        {
                            "pitch": 82, 
                            "t0": 105520, 
                            "v": 100, 
                            "dur": 134, 
                            "type": "note", 
                            "channel": 12
                        }, 
                        {
                            "pitch": 78, 
                            "t0": 105520, 
                            "v": 84, 
                            "dur": 142, 
                            "type": "note", 
                            "channel": 12
                        }
                    ]
                ], 
                [
                    106070, 
                    [
                        {
                            "pitch": 82, 
                            "t0": 106070, 
                            "v": 116, 
                            "dur": 142, 
                            "type": "note", 
                            "channel": 12
                        }
                    ]
                ], 
                [
                    106076, 
                    [
                        {
                            "pitch": 75, 
                            "t0": 106076, 
                            "v": 116, 
                            "dur": 104, 
                            "type": "note", 
                            "channel": 12
                        }, 
                        {
                            "pitch": 78, 
                            "t0": 106076, 
                            "v": 120, 
                            "dur": 112, 
                            "type": "note", 
                            "channel": 12
                        }
                    ]
                ], 
                [
                    108600, 
                    [
                        {
                            "pitch": 75, 
                            "t0": 108600, 
                            "v": 120, 
                            "dur": 108, 
                            "type": "note", 
                            "channel": 12
                        }, 
                        {
                            "pitch": 78, 
                            "t0": 108600, 
                            "v": 116, 
                            "dur": 116, 
                            "type": "note", 
                            "channel": 12
                        }, 
                        {
                            "pitch": 82, 
                            "t0": 108600, 
                            "v": 124, 
                            "dur": 130, 
                            "type": "note", 
                            "channel": 12
                        }
                    ]
                ], 
                [
                    110088, 
                    [
                        {
                            "pitch": 75, 
                            "t0": 110088, 
                            "v": 120, 
                            "dur": 116, 
                            "type": "note", 
                            "channel": 12
                        }
                    ]
                ], 
                [
                    110092, 
                    [
                        {
                            "pitch": 78, 
                            "t0": 110092, 
                            "v": 116, 
                            "dur": 134, 
                            "type": "note", 
                            "channel": 12
                        }
                    ]
                ], 
                [
                    110096, 
                    [
                        {
                            "pitch": 82, 
                            "t0": 110096, 
                            "v": 116, 
                            "dur": 150, 
                            "type": "note", 
                            "channel": 12
                        }
                    ]
                ], 
                [
                    111046, 
                    [
                        {
                            "pitch": 82, 
                            "t0": 111046, 
                            "v": 116, 
                            "dur": 146, 
                            "type": "note", 
                            "channel": 12
                        }, 
                        {
                            "pitch": 78, 
                            "t0": 111046, 
                            "v": 116, 
                            "dur": 158, 
                            "type": "note", 
                            "channel": 12
                        }
                    ]
                ], 
                [
                    111050, 
                    [
                        {
                            "pitch": 75, 
                            "t0": 111050, 
                            "v": 116, 
                            "dur": 116, 
                            "type": "note", 
                            "channel": 12
                        }
                    ]
                ], 
                [
                    113076, 
                    [
                        {
                            "pitch": 75, 
                            "t0": 113076, 
                            "v": 104, 
                            "dur": 90, 
                            "type": "note", 
                            "channel": 12
                        }
                    ]
                ], 
                [
                    113080, 
                    [
                        {
                            "pitch": 78, 
                            "t0": 113080, 
                            "v": 104, 
                            "dur": 74, 
                            "type": "note", 
                            "channel": 12
                        }
                    ]
                ], 
                [
                    113088, 
                    [
                        {
                            "pitch": 82, 
                            "t0": 113088, 
                            "v": 104, 
                            "dur": 74, 
                            "type": "note", 
                            "channel": 12
                        }
                    ]
                ], 
                [
                    113316, 
                    [
                        {
                            "pitch": 75, 
                            "t0": 113316, 
                            "v": 108, 
                            "dur": 130, 
                            "type": "note", 
                            "channel": 12
                        }
                    ]
                ], 
                [
                    113326, 
                    [
                        {
                            "pitch": 78, 
                            "t0": 113326, 
                            "v": 108, 
                            "dur": 94, 
                            "type": "note", 
                            "channel": 12
                        }, 
                        {
                            "pitch": 82, 
                            "t0": 113326, 
                            "v": 108, 
                            "dur": 104, 
                            "type": "note", 
                            "channel": 12
                        }
                    ]
                ], 
                [
                    113530, 
                    [
                        {
                            "pitch": 78, 
                            "t0": 113530, 
                            "v": 96, 
                            "dur": 140, 
                            "type": "note", 
                            "channel": 12
                        }
                    ]
                ], 
                [
                    113534, 
                    [
                        {
                            "pitch": 75, 
                            "t0": 113534, 
                            "v": 88, 
                            "dur": 124, 
                            "type": "note", 
                            "channel": 12
                        }, 
                        {
                            "pitch": 82, 
                            "t0": 113534, 
                            "v": 104, 
                            "dur": 146, 
                            "type": "note", 
                            "channel": 12
                        }
                    ]
                ], 
                [
                    114096, 
                    [
                        {
                            "pitch": 78, 
                            "t0": 114096, 
                            "v": 124, 
                            "dur": 112, 
                            "type": "note", 
                            "channel": 12
                        }
                    ]
                ], 
                [
                    114100, 
                    [
                        {
                            "pitch": 75, 
                            "t0": 114100, 
                            "v": 120, 
                            "dur": 100, 
                            "type": "note", 
                            "channel": 12
                        }, 
                        {
                            "pitch": 82, 
                            "t0": 114100, 
                            "v": 124, 
                            "dur": 116, 
                            "type": "note", 
                            "channel": 12
                        }
                    ]
                ], 
                [
                    116566, 
                    [
                        {
                            "pitch": 78, 
                            "t0": 116566, 
                            "v": 116, 
                            "dur": 126, 
                            "type": "note", 
                            "channel": 12
                        }
                    ]
                ], 
                [
                    116570, 
                    [
                        {
                            "pitch": 75, 
                            "t0": 116570, 
                            "v": 116, 
                            "dur": 114, 
                            "type": "note", 
                            "channel": 12
                        }
                    ]
                ], 
                [
                    116576, 
                    [
                        {
                            "pitch": 82, 
                            "t0": 116576, 
                            "v": 120, 
                            "dur": 132, 
                            "type": "note", 
                            "channel": 12
                        }
                    ]
                ], 
                [
                    116616, 
                    [
                        {
                            "pitch": 80, 
                            "t0": 116616, 
                            "v": 84, 
                            "dur": 46, 
                            "type": "note", 
                            "channel": 12
                        }
                    ]
                ], 
                [
                    118076, 
                    [
                        {
                            "pitch": 78, 
                            "t0": 118076, 
                            "v": 116, 
                            "dur": 136, 
                            "type": "note", 
                            "channel": 12
                        }
                    ]
                ], 
                [
                    118080, 
                    [
                        {
                            "pitch": 82, 
                            "t0": 118080, 
                            "v": 112, 
                            "dur": 132, 
                            "type": "note", 
                            "channel": 12
                        }
                    ]
                ], 
                [
                    118084, 
                    [
                        {
                            "pitch": 75, 
                            "t0": 118084, 
                            "v": 112, 
                            "dur": 112, 
                            "type": "note", 
                            "channel": 12
                        }
                    ]
                ], 
                [
                    119058, 
                    [
                        {
                            "pitch": 78, 
                            "t0": 119058, 
                            "v": 116, 
                            "dur": 134, 
                            "type": "note", 
                            "channel": 12
                        }, 
                        {
                            "pitch": 82, 
                            "t0": 119058, 
                            "v": 120, 
                            "dur": 142, 
                            "type": "note", 
                            "channel": 12
                        }
                    ]
                ], 
                [
                    119062, 
                    [
                        {
                            "pitch": 75, 
                            "t0": 119062, 
                            "v": 116, 
                            "dur": 122, 
                            "type": "note", 
                            "channel": 12
                        }
                    ]
                ], 
                [
                    121026, 
                    [
                        {
                            "pitch": 75, 
                            "t0": 121026, 
                            "v": 104, 
                            "dur": 90, 
                            "type": "note", 
                            "channel": 12
                        }
                    ]
                ], 
                [
                    121030, 
                    [
                        {
                            "pitch": 78, 
                            "t0": 121030, 
                            "v": 104, 
                            "dur": 74, 
                            "type": "note", 
                            "channel": 12
                        }
                    ]
                ], 
                [
                    121038, 
                    [
                        {
                            "pitch": 82, 
                            "t0": 121038, 
                            "v": 104, 
                            "dur": 74, 
                            "type": "note", 
                            "channel": 12
                        }
                    ]
                ], 
                [
                    121266, 
                    [
                        {
                            "pitch": 75, 
                            "t0": 121266, 
                            "v": 108, 
                            "dur": 130, 
                            "type": "note", 
                            "channel": 12
                        }
                    ]
                ], 
                [
                    121276, 
                    [
                        {
                            "pitch": 78, 
                            "t0": 121276, 
                            "v": 108, 
                            "dur": 94, 
                            "type": "note", 
                            "channel": 12
                        }, 
                        {
                            "pitch": 82, 
                            "t0": 121276, 
                            "v": 108, 
                            "dur": 104, 
                            "type": "note", 
                            "channel": 12
                        }
                    ]
                ], 
                [
                    121480, 
                    [
                        {
                            "pitch": 78, 
                            "t0": 121480, 
                            "v": 96, 
                            "dur": 140, 
                            "type": "note", 
                            "channel": 12
                        }
                    ]
                ], 
                [
                    121484, 
                    [
                        {
                            "pitch": 75, 
                            "t0": 121484, 
                            "v": 88, 
                            "dur": 124, 
                            "type": "note", 
                            "channel": 12
                        }, 
                        {
                            "pitch": 82, 
                            "t0": 121484, 
                            "v": 104, 
                            "dur": 146, 
                            "type": "note", 
                            "channel": 12
                        }
                    ]
                ], 
                [
                    122046, 
                    [
                        {
                            "pitch": 78, 
                            "t0": 122046, 
                            "v": 124, 
                            "dur": 112, 
                            "type": "note", 
                            "channel": 12
                        }
                    ]
                ], 
                [
                    122050, 
                    [
                        {
                            "pitch": 75, 
                            "t0": 122050, 
                            "v": 120, 
                            "dur": 100, 
                            "type": "note", 
                            "channel": 12
                        }, 
                        {
                            "pitch": 82, 
                            "t0": 122050, 
                            "v": 124, 
                            "dur": 116, 
                            "type": "note", 
                            "channel": 12
                        }
                    ]
                ], 
                [
                    124588, 
                    [
                        {
                            "pitch": 78, 
                            "t0": 124588, 
                            "v": 116, 
                            "dur": 120, 
                            "type": "note", 
                            "channel": 12
                        }
                    ]
                ], 
                [
                    124592, 
                    [
                        {
                            "pitch": 75, 
                            "t0": 124592, 
                            "v": 112, 
                            "dur": 120, 
                            "type": "note", 
                            "channel": 12
                        }
                    ]
                ], 
                [
                    124596, 
                    [
                        {
                            "pitch": 82, 
                            "t0": 124596, 
                            "v": 124, 
                            "dur": 108, 
                            "type": "note", 
                            "channel": 12
                        }
                    ]
                ], 
                [
                    126050, 
                    [
                        {
                            "pitch": 78, 
                            "t0": 126050, 
                            "v": 112, 
                            "dur": 120, 
                            "type": "note", 
                            "channel": 12
                        }, 
                        {
                            "pitch": 75, 
                            "t0": 126050, 
                            "v": 112, 
                            "dur": 126, 
                            "type": "note", 
                            "channel": 12
                        }, 
                        {
                            "pitch": 82, 
                            "t0": 126050, 
                            "v": 120, 
                            "dur": 138, 
                            "type": "note", 
                            "channel": 12
                        }
                    ]
                ], 
                [
                    127046, 
                    [
                        {
                            "pitch": 75, 
                            "t0": 127046, 
                            "v": 120, 
                            "dur": 116, 
                            "type": "note", 
                            "channel": 12
                        }
                    ]
                ], 
                [
                    127050, 
                    [
                        {
                            "pitch": 78, 
                            "t0": 127050, 
                            "v": 120, 
                            "dur": 104, 
                            "type": "note", 
                            "channel": 12
                        }, 
                        {
                            "pitch": 82, 
                            "t0": 127050, 
                            "v": 120, 
                            "dur": 116, 
                            "type": "note", 
                            "channel": 12
                        }
                    ]
                ], 
                [
                    129062, 
                    [
                        {
                            "pitch": 78, 
                            "t0": 129062, 
                            "v": 108, 
                            "dur": 88, 
                            "type": "note", 
                            "channel": 12
                        }
                    ]
                ], 
                [
                    129066, 
                    [
                        {
                            "pitch": 75, 
                            "t0": 129066, 
                            "v": 96, 
                            "dur": 76, 
                            "type": "note", 
                            "channel": 12
                        }, 
                        {
                            "pitch": 82, 
                            "t0": 129066, 
                            "v": 112, 
                            "dur": 92, 
                            "type": "note", 
                            "channel": 12
                        }
                    ]
                ], 
                [
                    129296, 
                    [
                        {
                            "pitch": 78, 
                            "t0": 129296, 
                            "v": 112, 
                            "dur": 120, 
                            "type": "note", 
                            "channel": 12
                        }
                    ]
                ], 
                [
                    129300, 
                    [
                        {
                            "pitch": 75, 
                            "t0": 129300, 
                            "v": 112, 
                            "dur": 116, 
                            "type": "note", 
                            "channel": 12
                        }
                    ]
                ], 
                [
                    129308, 
                    [
                        {
                            "pitch": 82, 
                            "t0": 129308, 
                            "v": 108, 
                            "dur": 130, 
                            "type": "note", 
                            "channel": 12
                        }
                    ]
                ], 
                [
                    129504, 
                    [
                        {
                            "pitch": 82, 
                            "t0": 129504, 
                            "v": 72, 
                            "dur": 154, 
                            "type": "note", 
                            "channel": 12
                        }
                    ]
                ], 
                [
                    129508, 
                    [
                        {
                            "pitch": 78, 
                            "t0": 129508, 
                            "v": 100, 
                            "dur": 138, 
                            "type": "note", 
                            "channel": 12
                        }
                    ]
                ], 
                [
                    129512, 
                    [
                        {
                            "pitch": 75, 
                            "t0": 129512, 
                            "v": 100, 
                            "dur": 118, 
                            "type": "note", 
                            "channel": 12
                        }
                    ]
                ], 
                [
                    130058, 
                    [
                        {
                            "pitch": 78, 
                            "t0": 130058, 
                            "v": 120, 
                            "dur": 138, 
                            "type": "note", 
                            "channel": 12
                        }, 
                        {
                            "pitch": 82, 
                            "t0": 130058, 
                            "v": 120, 
                            "dur": 162, 
                            "type": "note", 
                            "channel": 12
                        }
                    ]
                ], 
                [
                    130066, 
                    [
                        {
                            "pitch": 75, 
                            "t0": 130066, 
                            "v": 120, 
                            "dur": 104, 
                            "type": "note", 
                            "channel": 12
                        }
                    ]
                ], 
                [
                    132592, 
                    [
                        {
                            "pitch": 78, 
                            "t0": 132592, 
                            "v": 116, 
                            "dur": 116, 
                            "type": "note", 
                            "channel": 12
                        }
                    ]
                ], 
                [
                    132596, 
                    [
                        {
                            "pitch": 75, 
                            "t0": 132596, 
                            "v": 116, 
                            "dur": 96, 
                            "type": "note", 
                            "channel": 12
                        }
                    ]
                ], 
                [
                    132600, 
                    [
                        {
                            "pitch": 82, 
                            "t0": 132600, 
                            "v": 116, 
                            "dur": 112, 
                            "type": "note", 
                            "channel": 12
                        }
                    ]
                ], 
                [
                    134070, 
                    [
                        {
                            "pitch": 78, 
                            "t0": 134070, 
                            "v": 116, 
                            "dur": 138, 
                            "type": "note", 
                            "channel": 12
                        }
                    ]
                ], 
                [
                    134076, 
                    [
                        {
                            "pitch": 75, 
                            "t0": 134076, 
                            "v": 108, 
                            "dur": 128, 
                            "type": "note", 
                            "channel": 12
                        }
                    ]
                ], 
                [
                    134080, 
                    [
                        {
                            "pitch": 82, 
                            "t0": 134080, 
                            "v": 112, 
                            "dur": 132, 
                            "type": "note", 
                            "channel": 12
                        }
                    ]
                ], 
                [
                    135026, 
                    [
                        {
                            "pitch": 78, 
                            "t0": 135026, 
                            "v": 116, 
                            "dur": 132, 
                            "type": "note", 
                            "channel": 12
                        }
                    ]
                ], 
                [
                    135030, 
                    [
                        {
                            "pitch": 82, 
                            "t0": 135030, 
                            "v": 108, 
                            "dur": 132, 
                            "type": "note", 
                            "channel": 12
                        }
                    ]
                ], 
                [
                    135034, 
                    [
                        {
                            "pitch": 75, 
                            "t0": 135034, 
                            "v": 112, 
                            "dur": 116, 
                            "type": "note", 
                            "channel": 12
                        }
                    ]
                ], 
                [
                    137084, 
                    [
                        {
                            "pitch": 75, 
                            "t0": 137084, 
                            "v": 116, 
                            "dur": 96, 
                            "type": "note", 
                            "channel": 12
                        }
                    ]
                ], 
                [
                    137092, 
                    [
                        {
                            "pitch": 78, 
                            "t0": 137092, 
                            "v": 116, 
                            "dur": 78, 
                            "type": "note", 
                            "channel": 12
                        }, 
                        {
                            "pitch": 82, 
                            "t0": 137092, 
                            "v": 116, 
                            "dur": 100, 
                            "type": "note", 
                            "channel": 12
                        }
                    ]
                ], 
                [
                    137334, 
                    [
                        {
                            "pitch": 75, 
                            "t0": 137334, 
                            "v": 108, 
                            "dur": 132, 
                            "type": "note", 
                            "channel": 12
                        }
                    ]
                ], 
                [
                    137338, 
                    [
                        {
                            "pitch": 78, 
                            "t0": 137338, 
                            "v": 108, 
                            "dur": 116, 
                            "type": "note", 
                            "channel": 12
                        }
                    ]
                ], 
                [
                    137350, 
                    [
                        {
                            "pitch": 82, 
                            "t0": 137350, 
                            "v": 112, 
                            "dur": 112, 
                            "type": "note", 
                            "channel": 12
                        }
                    ]
                ], 
                [
                    137520, 
                    [
                        {
                            "pitch": 78, 
                            "t0": 137520, 
                            "v": 47, 
                            "dur": 160, 
                            "type": "note", 
                            "channel": 12
                        }
                    ]
                ], 
                [
                    137530, 
                    [
                        {
                            "pitch": 75, 
                            "t0": 137530, 
                            "v": 88, 
                            "dur": 112, 
                            "type": "note", 
                            "channel": 12
                        }
                    ]
                ], 
                [
                    137538, 
                    [
                        {
                            "pitch": 82, 
                            "t0": 137538, 
                            "v": 64, 
                            "dur": 142, 
                            "type": "note", 
                            "channel": 12
                        }
                    ]
                ], 
                [
                    138076, 
                    [
                        {
                            "pitch": 82, 
                            "t0": 138076, 
                            "v": 120, 
                            "dur": 136, 
                            "type": "note", 
                            "channel": 12
                        }
                    ]
                ], 
                [
                    138080, 
                    [
                        {
                            "pitch": 78, 
                            "t0": 138080, 
                            "v": 120, 
                            "dur": 108, 
                            "type": "note", 
                            "channel": 12
                        }
                    ]
                ], 
                [
                    138084, 
                    [
                        {
                            "pitch": 75, 
                            "t0": 138084, 
                            "v": 120, 
                            "dur": 100, 
                            "type": "note", 
                            "channel": 12
                        }
                    ]
                ], 
                [
                    140592, 
                    [
                        {
                            "pitch": 78, 
                            "t0": 140592, 
                            "v": 120, 
                            "dur": 116, 
                            "type": "note", 
                            "channel": 12
                        }, 
                        {
                            "pitch": 82, 
                            "t0": 140592, 
                            "v": 124, 
                            "dur": 128, 
                            "type": "note", 
                            "channel": 12
                        }
                    ]
                ], 
                [
                    140596, 
                    [
                        {
                            "pitch": 75, 
                            "t0": 140596, 
                            "v": 120, 
                            "dur": 104, 
                            "type": "note", 
                            "channel": 12
                        }
                    ]
                ], 
                [
                    141992, 
                    [
                        {
                            "pitch": 78, 
                            "t0": 141992, 
                            "v": 104, 
                            "dur": 162, 
                            "type": "note", 
                            "channel": 12
                        }, 
                        {
                            "pitch": 82, 
                            "t0": 141992, 
                            "v": 116, 
                            "dur": 174, 
                            "type": "note", 
                            "channel": 12
                        }
                    ]
                ], 
                [
                    141996, 
                    [
                        {
                            "pitch": 75, 
                            "t0": 141996, 
                            "v": 116, 
                            "dur": 124, 
                            "type": "note", 
                            "channel": 12
                        }
                    ]
                ], 
                [
                    142996, 
                    [
                        {
                            "pitch": 75, 
                            "t0": 142996, 
                            "v": 112, 
                            "dur": 150, 
                            "type": "note", 
                            "channel": 12
                        }
                    ]
                ], 
                [
                    143000, 
                    [
                        {
                            "pitch": 78, 
                            "t0": 143000, 
                            "v": 112, 
                            "dur": 146, 
                            "type": "note", 
                            "channel": 12
                        }
                    ]
                ], 
                [
                    143004, 
                    [
                        {
                            "pitch": 82, 
                            "t0": 143004, 
                            "v": 116, 
                            "dur": 150, 
                            "type": "note", 
                            "channel": 12
                        }
                    ]
                ], 
                [
                    145146, 
                    [
                        {
                            "pitch": 75, 
                            "t0": 145146, 
                            "v": 112, 
                            "dur": 104, 
                            "type": "note", 
                            "channel": 12
                        }
                    ]
                ], 
                [
                    145150, 
                    [
                        {
                            "pitch": 78, 
                            "t0": 145150, 
                            "v": 112, 
                            "dur": 70, 
                            "type": "note", 
                            "channel": 12
                        }, 
                        {
                            "pitch": 82, 
                            "t0": 145150, 
                            "v": 116, 
                            "dur": 100, 
                            "type": "note", 
                            "channel": 12
                        }
                    ]
                ], 
                [
                    145388, 
                    [
                        {
                            "pitch": 78, 
                            "t0": 145388, 
                            "v": 112, 
                            "dur": 112, 
                            "type": "note", 
                            "channel": 12
                        }, 
                        {
                            "pitch": 75, 
                            "t0": 145388, 
                            "v": 112, 
                            "dur": 116, 
                            "type": "note", 
                            "channel": 12
                        }
                    ]
                ], 
                [
                    145400, 
                    [
                        {
                            "pitch": 82, 
                            "t0": 145400, 
                            "v": 112, 
                            "dur": 100, 
                            "type": "note", 
                            "channel": 12
                        }
                    ]
                ], 
                [
                    145600, 
                    [
                        {
                            "pitch": 78, 
                            "t0": 145600, 
                            "v": 96, 
                            "dur": 146, 
                            "type": "note", 
                            "channel": 12
                        }
                    ]
                ], 
                [
                    145604, 
                    [
                        {
                            "pitch": 75, 
                            "t0": 145604, 
                            "v": 96, 
                            "dur": 146, 
                            "type": "note", 
                            "channel": 12
                        }
                    ]
                ], 
                [
                    145630, 
                    [
                        {
                            "pitch": 82, 
                            "t0": 145630, 
                            "v": 84, 
                            "dur": 120, 
                            "type": "note", 
                            "channel": 12
                        }
                    ]
                ], 
                [
                    146120, 
                    [
                        {
                            "pitch": 75, 
                            "t0": 146120, 
                            "v": 120, 
                            "dur": 106, 
                            "type": "note", 
                            "channel": 12
                        }, 
                        {
                            "pitch": 78, 
                            "t0": 146120, 
                            "v": 116, 
                            "dur": 110, 
                            "type": "note", 
                            "channel": 12
                        }, 
                        {
                            "pitch": 82, 
                            "t0": 146120, 
                            "v": 120, 
                            "dur": 134, 
                            "type": "note", 
                            "channel": 12
                        }
                    ]
                ], 
                [
                    148608, 
                    [
                        {
                            "pitch": 78, 
                            "t0": 148608, 
                            "v": 116, 
                            "dur": 122, 
                            "type": "note", 
                            "channel": 12
                        }, 
                        {
                            "pitch": 82, 
                            "t0": 148608, 
                            "v": 116, 
                            "dur": 142, 
                            "type": "note", 
                            "channel": 12
                        }
                    ]
                ], 
                [
                    148612, 
                    [
                        {
                            "pitch": 75, 
                            "t0": 148612, 
                            "v": 120, 
                            "dur": 114, 
                            "type": "note", 
                            "channel": 12
                        }
                    ]
                ], 
                [
                    150092, 
                    [
                        {
                            "pitch": 75, 
                            "t0": 150092, 
                            "v": 116, 
                            "dur": 162, 
                            "type": "note", 
                            "channel": 12
                        }
                    ]
                ], 
                [
                    150096, 
                    [
                        {
                            "pitch": 82, 
                            "t0": 150096, 
                            "v": 112, 
                            "dur": 188, 
                            "type": "note", 
                            "channel": 12
                        }
                    ]
                ], 
                [
                    150100, 
                    [
                        {
                            "pitch": 78, 
                            "t0": 150100, 
                            "v": 116, 
                            "dur": 180, 
                            "type": "note", 
                            "channel": 12
                        }
                    ]
                ], 
                [
                    151076, 
                    [
                        {
                            "pitch": 78, 
                            "t0": 151076, 
                            "v": 116, 
                            "dur": 140, 
                            "type": "note", 
                            "channel": 12
                        }
                    ]
                ], 
                [
                    151080, 
                    [
                        {
                            "pitch": 82, 
                            "t0": 151080, 
                            "v": 120, 
                            "dur": 136, 
                            "type": "note", 
                            "channel": 12
                        }
                    ]
                ], 
                [
                    151084, 
                    [
                        {
                            "pitch": 75, 
                            "t0": 151084, 
                            "v": 116, 
                            "dur": 120, 
                            "type": "note", 
                            "channel": 12
                        }
                    ]
                ], 
                [
                    153070, 
                    [
                        {
                            "pitch": 75, 
                            "t0": 153070, 
                            "v": 116, 
                            "dur": 80, 
                            "type": "note", 
                            "channel": 12
                        }
                    ]
                ], 
                [
                    153076, 
                    [
                        {
                            "pitch": 78, 
                            "t0": 153076, 
                            "v": 108, 
                            "dur": 66, 
                            "type": "note", 
                            "channel": 12
                        }, 
                        {
                            "pitch": 82, 
                            "t0": 153076, 
                            "v": 116, 
                            "dur": 94, 
                            "type": "note", 
                            "channel": 12
                        }
                    ]
                ], 
                [
                    153300, 
                    [
                        {
                            "pitch": 75, 
                            "t0": 153300, 
                            "v": 116, 
                            "dur": 116, 
                            "type": "note", 
                            "channel": 12
                        }
                    ]
                ], 
                [
                    153308, 
                    [
                        {
                            "pitch": 78, 
                            "t0": 153308, 
                            "v": 112, 
                            "dur": 96, 
                            "type": "note", 
                            "channel": 12
                        }
                    ]
                ], 
                [
                    153312, 
                    [
                        {
                            "pitch": 82, 
                            "t0": 153312, 
                            "v": 116, 
                            "dur": 104, 
                            "type": "note", 
                            "channel": 12
                        }
                    ]
                ], 
                [
                    153508, 
                    [
                        {
                            "pitch": 78, 
                            "t0": 153508, 
                            "v": 104, 
                            "dur": 142, 
                            "type": "note", 
                            "channel": 12
                        }
                    ]
                ], 
                [
                    153516, 
                    [
                        {
                            "pitch": 75, 
                            "t0": 153516, 
                            "v": 112, 
                            "dur": 118, 
                            "type": "note", 
                            "channel": 12
                        }
                    ]
                ], 
                [
                    153520, 
                    [
                        {
                            "pitch": 82, 
                            "t0": 153520, 
                            "v": 104, 
                            "dur": 110, 
                            "type": "note", 
                            "channel": 12
                        }
                    ]
                ], 
                [
                    154038, 
                    [
                        {
                            "pitch": 82, 
                            "t0": 154038, 
                            "v": 120, 
                            "dur": 132, 
                            "type": "note", 
                            "channel": 12
                        }
                    ]
                ], 
                [
                    154042, 
                    [
                        {
                            "pitch": 78, 
                            "t0": 154042, 
                            "v": 120, 
                            "dur": 108, 
                            "type": "note", 
                            "channel": 12
                        }
                    ]
                ], 
                [
                    154050, 
                    [
                        {
                            "pitch": 75, 
                            "t0": 154050, 
                            "v": 124, 
                            "dur": 92, 
                            "type": "note", 
                            "channel": 12
                        }
                    ]
                ], 
                [
                    156584, 
                    [
                        {
                            "pitch": 78, 
                            "t0": 156584, 
                            "v": 116, 
                            "dur": 112, 
                            "type": "note", 
                            "channel": 12
                        }
                    ]
                ], 
                [
                    156588, 
                    [
                        {
                            "pitch": 75, 
                            "t0": 156588, 
                            "v": 120, 
                            "dur": 100, 
                            "type": "note", 
                            "channel": 12
                        }, 
                        {
                            "pitch": 82, 
                            "t0": 156588, 
                            "v": 120, 
                            "dur": 120, 
                            "type": "note", 
                            "channel": 12
                        }
                    ]
                ], 
                [
                    158004, 
                    [
                        {
                            "pitch": 78, 
                            "t0": 158004, 
                            "v": 116, 
                            "dur": 142, 
                            "type": "note", 
                            "channel": 12
                        }
                    ]
                ], 
                [
                    158008, 
                    [
                        {
                            "pitch": 75, 
                            "t0": 158008, 
                            "v": 120, 
                            "dur": 130, 
                            "type": "note", 
                            "channel": 12
                        }, 
                        {
                            "pitch": 82, 
                            "t0": 158008, 
                            "v": 120, 
                            "dur": 142, 
                            "type": "note", 
                            "channel": 12
                        }
                    ]
                ], 
                [
                    158988, 
                    [
                        {
                            "pitch": 78, 
                            "t0": 158988, 
                            "v": 120, 
                            "dur": 146, 
                            "type": "note", 
                            "channel": 12
                        }, 
                        {
                            "pitch": 82, 
                            "t0": 158988, 
                            "v": 116, 
                            "dur": 162, 
                            "type": "note", 
                            "channel": 12
                        }
                    ]
                ], 
                [
                    158992, 
                    [
                        {
                            "pitch": 75, 
                            "t0": 158992, 
                            "v": 120, 
                            "dur": 120, 
                            "type": "note", 
                            "channel": 12
                        }
                    ]
                ], 
                [
                    161062, 
                    [
                        {
                            "pitch": 82, 
                            "t0": 161062, 
                            "v": 112, 
                            "dur": 104, 
                            "type": "note", 
                            "channel": 12
                        }
                    ]
                ], 
                [
                    161066, 
                    [
                        {
                            "pitch": 78, 
                            "t0": 161066, 
                            "v": 112, 
                            "dur": 88, 
                            "type": "note", 
                            "channel": 12
                        }
                    ]
                ], 
                [
                    161080, 
                    [
                        {
                            "pitch": 75, 
                            "t0": 161080, 
                            "v": 104, 
                            "dur": 58, 
                            "type": "note", 
                            "channel": 12
                        }
                    ]
                ], 
                [
                    161304, 
                    [
                        {
                            "pitch": 75, 
                            "t0": 161304, 
                            "v": 116, 
                            "dur": 112, 
                            "type": "note", 
                            "channel": 12
                        }
                    ]
                ], 
                [
                    161308, 
                    [
                        {
                            "pitch": 78, 
                            "t0": 161308, 
                            "v": 112, 
                            "dur": 96, 
                            "type": "note", 
                            "channel": 12
                        }
                    ]
                ], 
                [
                    161312, 
                    [
                        {
                            "pitch": 82, 
                            "t0": 161312, 
                            "v": 100, 
                            "dur": 96, 
                            "type": "note", 
                            "channel": 12
                        }
                    ]
                ], 
                [
                    161512, 
                    [
                        {
                            "pitch": 75, 
                            "t0": 161512, 
                            "v": 104, 
                            "dur": 138, 
                            "type": "note", 
                            "channel": 12
                        }
                    ]
                ], 
                [
                    161516, 
                    [
                        {
                            "pitch": 78, 
                            "t0": 161516, 
                            "v": 100, 
                            "dur": 130, 
                            "type": "note", 
                            "channel": 12
                        }
                    ]
                ], 
                [
                    161538, 
                    [
                        {
                            "pitch": 82, 
                            "t0": 161538, 
                            "v": 100, 
                            "dur": 120, 
                            "type": "note", 
                            "channel": 12
                        }
                    ]
                ], 
                [
                    162038, 
                    [
                        {
                            "pitch": 82, 
                            "t0": 162038, 
                            "v": 124, 
                            "dur": 112, 
                            "type": "note", 
                            "channel": 12
                        }
                    ]
                ], 
                [
                    162042, 
                    [
                        {
                            "pitch": 78, 
                            "t0": 162042, 
                            "v": 120, 
                            "dur": 104, 
                            "type": "note", 
                            "channel": 12
                        }
                    ]
                ], 
                [
                    162046, 
                    [
                        {
                            "pitch": 75, 
                            "t0": 162046, 
                            "v": 120, 
                            "dur": 88, 
                            "type": "note", 
                            "channel": 12
                        }
                    ]
                ], 
                [
                    164600, 
                    [
                        {
                            "pitch": 75, 
                            "t0": 164600, 
                            "v": 120, 
                            "dur": 108, 
                            "type": "note", 
                            "channel": 12
                        }, 
                        {
                            "pitch": 78, 
                            "t0": 164600, 
                            "v": 116, 
                            "dur": 112, 
                            "type": "note", 
                            "channel": 12
                        }, 
                        {
                            "pitch": 82, 
                            "t0": 164600, 
                            "v": 120, 
                            "dur": 116, 
                            "type": "note", 
                            "channel": 12
                        }
                    ]
                ], 
                [
                    165996, 
                    [
                        {
                            "pitch": 78, 
                            "t0": 165996, 
                            "v": 116, 
                            "dur": 130, 
                            "type": "note", 
                            "channel": 12
                        }, 
                        {
                            "pitch": 82, 
                            "t0": 165996, 
                            "v": 120, 
                            "dur": 134, 
                            "type": "note", 
                            "channel": 12
                        }
                    ]
                ], 
                [
                    166000, 
                    [
                        {
                            "pitch": 75, 
                            "t0": 166000, 
                            "v": 116, 
                            "dur": 108, 
                            "type": "note", 
                            "channel": 12
                        }
                    ]
                ], 
                [
                    167008, 
                    [
                        {
                            "pitch": 82, 
                            "t0": 167008, 
                            "v": 120, 
                            "dur": 134, 
                            "type": "note", 
                            "channel": 12
                        }
                    ]
                ], 
                [
                    167012, 
                    [
                        {
                            "pitch": 75, 
                            "t0": 167012, 
                            "v": 116, 
                            "dur": 114, 
                            "type": "note", 
                            "channel": 12
                        }, 
                        {
                            "pitch": 78, 
                            "t0": 167012, 
                            "v": 116, 
                            "dur": 118, 
                            "type": "note", 
                            "channel": 12
                        }
                    ]
                ], 
                [
                    169058, 
                    [
                        {
                            "pitch": 82, 
                            "t0": 169058, 
                            "v": 112, 
                            "dur": 92, 
                            "type": "note", 
                            "channel": 12
                        }
                    ]
                ], 
                [
                    169062, 
                    [
                        {
                            "pitch": 78, 
                            "t0": 169062, 
                            "v": 108, 
                            "dur": 88, 
                            "type": "note", 
                            "channel": 12
                        }, 
                        {
                            "pitch": 75, 
                            "t0": 169062, 
                            "v": 108, 
                            "dur": 100, 
                            "type": "note", 
                            "channel": 12
                        }
                    ]
                ], 
                [
                    169288, 
                    [
                        {
                            "pitch": 75, 
                            "t0": 169288, 
                            "v": 104, 
                            "dur": 142, 
                            "type": "note", 
                            "channel": 12
                        }
                    ]
                ], 
                [
                    169292, 
                    [
                        {
                            "pitch": 78, 
                            "t0": 169292, 
                            "v": 112, 
                            "dur": 120, 
                            "type": "note", 
                            "channel": 12
                        }
                    ]
                ], 
                [
                    169300, 
                    [
                        {
                            "pitch": 82, 
                            "t0": 169300, 
                            "v": 112, 
                            "dur": 126, 
                            "type": "note", 
                            "channel": 12
                        }
                    ]
                ], 
                [
                    169512, 
                    [
                        {
                            "pitch": 78, 
                            "t0": 169512, 
                            "v": 100, 
                            "dur": 138, 
                            "type": "note", 
                            "channel": 12
                        }
                    ]
                ], 
                [
                    169526, 
                    [
                        {
                            "pitch": 82, 
                            "t0": 169526, 
                            "v": 104, 
                            "dur": 124, 
                            "type": "note", 
                            "channel": 12
                        }
                    ]
                ], 
                [
                    169530, 
                    [
                        {
                            "pitch": 75, 
                            "t0": 169530, 
                            "v": 76, 
                            "dur": 104, 
                            "type": "note", 
                            "channel": 12
                        }
                    ]
                ], 
                [
                    170050, 
                    [
                        {
                            "pitch": 75, 
                            "t0": 170050, 
                            "v": 116, 
                            "dur": 108, 
                            "type": "note", 
                            "channel": 12
                        }, 
                        {
                            "pitch": 78, 
                            "t0": 170050, 
                            "v": 120, 
                            "dur": 112, 
                            "type": "note", 
                            "channel": 12
                        }
                    ]
                ], 
                [
                    170054, 
                    [
                        {
                            "pitch": 82, 
                            "t0": 170054, 
                            "v": 124, 
                            "dur": 112, 
                            "type": "note", 
                            "channel": 12
                        }
                    ]
                ], 
                [
                    172534, 
                    [
                        {
                            "pitch": 78, 
                            "t0": 172534, 
                            "v": 112, 
                            "dur": 146, 
                            "type": "note", 
                            "channel": 12
                        }
                    ]
                ], 
                [
                    172542, 
                    [
                        {
                            "pitch": 75, 
                            "t0": 172542, 
                            "v": 108, 
                            "dur": 128, 
                            "type": "note", 
                            "channel": 12
                        }, 
                        {
                            "pitch": 82, 
                            "t0": 172542, 
                            "v": 120, 
                            "dur": 146, 
                            "type": "note", 
                            "channel": 12
                        }
                    ]
                ], 
                [
                    174046, 
                    [
                        {
                            "pitch": 82, 
                            "t0": 174046, 
                            "v": 120, 
                            "dur": 150, 
                            "type": "note", 
                            "channel": 12
                        }
                    ]
                ], 
                [
                    174058, 
                    [
                        {
                            "pitch": 78, 
                            "t0": 174058, 
                            "v": 112, 
                            "dur": 126, 
                            "type": "note", 
                            "channel": 12
                        }, 
                        {
                            "pitch": 75, 
                            "t0": 174058, 
                            "v": 116, 
                            "dur": 130, 
                            "type": "note", 
                            "channel": 12
                        }
                    ]
                ], 
                [
                    175034, 
                    [
                        {
                            "pitch": 82, 
                            "t0": 175034, 
                            "v": 120, 
                            "dur": 128, 
                            "type": "note", 
                            "channel": 12
                        }
                    ]
                ], 
                [
                    175038, 
                    [
                        {
                            "pitch": 78, 
                            "t0": 175038, 
                            "v": 112, 
                            "dur": 120, 
                            "type": "note", 
                            "channel": 12
                        }, 
                        {
                            "pitch": 75, 
                            "t0": 175038, 
                            "v": 112, 
                            "dur": 128, 
                            "type": "note", 
                            "channel": 12
                        }
                    ]
                ], 
                [
                    177058, 
                    [
                        {
                            "pitch": 75, 
                            "t0": 177058, 
                            "v": 108, 
                            "dur": 96, 
                            "type": "note", 
                            "channel": 12
                        }
                    ]
                ], 
                [
                    177062, 
                    [
                        {
                            "pitch": 78, 
                            "t0": 177062, 
                            "v": 108, 
                            "dur": 88, 
                            "type": "note", 
                            "channel": 12
                        }
                    ]
                ], 
                [
                    177066, 
                    [
                        {
                            "pitch": 82, 
                            "t0": 177066, 
                            "v": 108, 
                            "dur": 92, 
                            "type": "note", 
                            "channel": 12
                        }
                    ]
                ], 
                [
                    177292, 
                    [
                        {
                            "pitch": 75, 
                            "t0": 177292, 
                            "v": 108, 
                            "dur": 142, 
                            "type": "note", 
                            "channel": 12
                        }
                    ]
                ], 
                [
                    177296, 
                    [
                        {
                            "pitch": 78, 
                            "t0": 177296, 
                            "v": 108, 
                            "dur": 104, 
                            "type": "note", 
                            "channel": 12
                        }
                    ]
                ], 
                [
                    177316, 
                    [
                        {
                            "pitch": 82, 
                            "t0": 177316, 
                            "v": 88, 
                            "dur": 88, 
                            "type": "note", 
                            "channel": 12
                        }
                    ]
                ], 
                [
                    177484, 
                    [
                        {
                            "pitch": 78, 
                            "t0": 177484, 
                            "v": 80, 
                            "dur": 146, 
                            "type": "note", 
                            "channel": 12
                        }
                    ]
                ], 
                [
                    177492, 
                    [
                        {
                            "pitch": 75, 
                            "t0": 177492, 
                            "v": 88, 
                            "dur": 128, 
                            "type": "note", 
                            "channel": 12
                        }, 
                        {
                            "pitch": 82, 
                            "t0": 177492, 
                            "v": 88, 
                            "dur": 158, 
                            "type": "note", 
                            "channel": 12
                        }
                    ]
                ], 
                [
                    178026, 
                    [
                        {
                            "pitch": 78, 
                            "t0": 178026, 
                            "v": 116, 
                            "dur": 120, 
                            "type": "note", 
                            "channel": 12
                        }
                    ]
                ], 
                [
                    178030, 
                    [
                        {
                            "pitch": 75, 
                            "t0": 178030, 
                            "v": 120, 
                            "dur": 104, 
                            "type": "note", 
                            "channel": 12
                        }, 
                        {
                            "pitch": 82, 
                            "t0": 178030, 
                            "v": 112, 
                            "dur": 112, 
                            "type": "note", 
                            "channel": 12
                        }
                    ]
                ], 
                [
                    180604, 
                    [
                        {
                            "pitch": 78, 
                            "t0": 180604, 
                            "v": 116, 
                            "dur": 130, 
                            "type": "note", 
                            "channel": 12
                        }
                    ]
                ], 
                [
                    180608, 
                    [
                        {
                            "pitch": 75, 
                            "t0": 180608, 
                            "v": 116, 
                            "dur": 108, 
                            "type": "note", 
                            "channel": 12
                        }, 
                        {
                            "pitch": 82, 
                            "t0": 180608, 
                            "v": 120, 
                            "dur": 146, 
                            "type": "note", 
                            "channel": 12
                        }
                    ]
                ], 
                [
                    182092, 
                    [
                        {
                            "pitch": 82, 
                            "t0": 182092, 
                            "v": 120, 
                            "dur": 150, 
                            "type": "note", 
                            "channel": 12
                        }
                    ]
                ], 
                [
                    182096, 
                    [
                        {
                            "pitch": 78, 
                            "t0": 182096, 
                            "v": 112, 
                            "dur": 120, 
                            "type": "note", 
                            "channel": 12
                        }
                    ]
                ], 
                [
                    182100, 
                    [
                        {
                            "pitch": 75, 
                            "t0": 182100, 
                            "v": 124, 
                            "dur": 108, 
                            "type": "note", 
                            "channel": 12
                        }
                    ]
                ], 
                [
                    183054, 
                    [
                        {
                            "pitch": 78, 
                            "t0": 183054, 
                            "v": 116, 
                            "dur": 130, 
                            "type": "note", 
                            "channel": 12
                        }, 
                        {
                            "pitch": 82, 
                            "t0": 183054, 
                            "v": 116, 
                            "dur": 142, 
                            "type": "note", 
                            "channel": 12
                        }
                    ]
                ], 
                [
                    183058, 
                    [
                        {
                            "pitch": 75, 
                            "t0": 183058, 
                            "v": 116, 
                            "dur": 112, 
                            "type": "note", 
                            "channel": 12
                        }
                    ]
                ], 
                [
                    185038, 
                    [
                        {
                            "pitch": 75, 
                            "t0": 185038, 
                            "v": 116, 
                            "dur": 112, 
                            "type": "note", 
                            "channel": 12
                        }
                    ]
                ], 
                [
                    185042, 
                    [
                        {
                            "pitch": 78, 
                            "t0": 185042, 
                            "v": 116, 
                            "dur": 92, 
                            "type": "note", 
                            "channel": 12
                        }
                    ]
                ], 
                [
                    185046, 
                    [
                        {
                            "pitch": 82, 
                            "t0": 185046, 
                            "v": 116, 
                            "dur": 108, 
                            "type": "note", 
                            "channel": 12
                        }
                    ]
                ], 
                [
                    185270, 
                    [
                        {
                            "pitch": 75, 
                            "t0": 185270, 
                            "v": 100, 
                            "dur": 134, 
                            "type": "note", 
                            "channel": 12
                        }
                    ]
                ], 
                [
                    185284, 
                    [
                        {
                            "pitch": 78, 
                            "t0": 185284, 
                            "v": 108, 
                            "dur": 116, 
                            "type": "note", 
                            "channel": 12
                        }, 
                        {
                            "pitch": 82, 
                            "t0": 185284, 
                            "v": 100, 
                            "dur": 128, 
                            "type": "note", 
                            "channel": 12
                        }
                    ]
                ], 
                [
                    185500, 
                    [
                        {
                            "pitch": 78, 
                            "t0": 185500, 
                            "v": 104, 
                            "dur": 126, 
                            "type": "note", 
                            "channel": 12
                        }
                    ]
                ], 
                [
                    185512, 
                    [
                        {
                            "pitch": 82, 
                            "t0": 185512, 
                            "v": 80, 
                            "dur": 118, 
                            "type": "note", 
                            "channel": 12
                        }
                    ]
                ], 
                [
                    185530, 
                    [
                        {
                            "pitch": 75, 
                            "t0": 185530, 
                            "v": 58, 
                            "dur": 78, 
                            "type": "note", 
                            "channel": 12
                        }
                    ]
                ], 
                [
                    186038, 
                    [
                        {
                            "pitch": 82, 
                            "t0": 186038, 
                            "v": 116, 
                            "dur": 132, 
                            "type": "note", 
                            "channel": 12
                        }
                    ]
                ], 
                [
                    186042, 
                    [
                        {
                            "pitch": 75, 
                            "t0": 186042, 
                            "v": 116, 
                            "dur": 100, 
                            "type": "note", 
                            "channel": 12
                        }, 
                        {
                            "pitch": 78, 
                            "t0": 186042, 
                            "v": 116, 
                            "dur": 104, 
                            "type": "note", 
                            "channel": 12
                        }
                    ]
                ], 
                [
                    188630, 
                    [
                        {
                            "pitch": 78, 
                            "t0": 188630, 
                            "v": 116, 
                            "dur": 150, 
                            "type": "note", 
                            "channel": 12
                        }
                    ]
                ], 
                [
                    188638, 
                    [
                        {
                            "pitch": 75, 
                            "t0": 188638, 
                            "v": 116, 
                            "dur": 116, 
                            "type": "note", 
                            "channel": 12
                        }
                    ]
                ], 
                [
                    188642, 
                    [
                        {
                            "pitch": 82, 
                            "t0": 188642, 
                            "v": 120, 
                            "dur": 150, 
                            "type": "note", 
                            "channel": 12
                        }
                    ]
                ], 
                [
                    190050, 
                    [
                        {
                            "pitch": 75, 
                            "t0": 190050, 
                            "v": 116, 
                            "dur": 196, 
                            "type": "note", 
                            "channel": 12
                        }
                    ]
                ], 
                [
                    190054, 
                    [
                        {
                            "pitch": 78, 
                            "t0": 190054, 
                            "v": 112, 
                            "dur": 208, 
                            "type": "note", 
                            "channel": 12
                        }, 
                        {
                            "pitch": 82, 
                            "t0": 190054, 
                            "v": 116, 
                            "dur": 212, 
                            "type": "note", 
                            "channel": 12
                        }
                    ]
                ], 
                [
                    191042, 
                    [
                        {
                            "pitch": 75, 
                            "t0": 191042, 
                            "v": 116, 
                            "dur": 134, 
                            "type": "note", 
                            "channel": 12
                        }, 
                        {
                            "pitch": 78, 
                            "t0": 191042, 
                            "v": 116, 
                            "dur": 158, 
                            "type": "note", 
                            "channel": 12
                        }, 
                        {
                            "pitch": 82, 
                            "t0": 191042, 
                            "v": 112, 
                            "dur": 158, 
                            "type": "note", 
                            "channel": 12
                        }
                    ]
                ], 
                [
                    193038, 
                    [
                        {
                            "pitch": 82, 
                            "t0": 193038, 
                            "v": 112, 
                            "dur": 116, 
                            "type": "note", 
                            "channel": 12
                        }
                    ]
                ], 
                [
                    193042, 
                    [
                        {
                            "pitch": 78, 
                            "t0": 193042, 
                            "v": 108, 
                            "dur": 104, 
                            "type": "note", 
                            "channel": 12
                        }, 
                        {
                            "pitch": 75, 
                            "t0": 193042, 
                            "v": 112, 
                            "dur": 112, 
                            "type": "note", 
                            "channel": 12
                        }
                    ]
                ], 
                [
                    193296, 
                    [
                        {
                            "pitch": 78, 
                            "t0": 193296, 
                            "v": 108, 
                            "dur": 130, 
                            "type": "note", 
                            "channel": 12
                        }
                    ]
                ], 
                [
                    193300, 
                    [
                        {
                            "pitch": 75, 
                            "t0": 193300, 
                            "v": 108, 
                            "dur": 126, 
                            "type": "note", 
                            "channel": 12
                        }
                    ]
                ], 
                [
                    193304, 
                    [
                        {
                            "pitch": 82, 
                            "t0": 193304, 
                            "v": 112, 
                            "dur": 126, 
                            "type": "note", 
                            "channel": 12
                        }
                    ]
                ], 
                [
                    193520, 
                    [
                        {
                            "pitch": 75, 
                            "t0": 193520, 
                            "v": 92, 
                            "dur": 142, 
                            "type": "note", 
                            "channel": 12
                        }
                    ]
                ], 
                [
                    193526, 
                    [
                        {
                            "pitch": 78, 
                            "t0": 193526, 
                            "v": 108, 
                            "dur": 144, 
                            "type": "note", 
                            "channel": 12
                        }
                    ]
                ], 
                [
                    193538, 
                    [
                        {
                            "pitch": 82, 
                            "t0": 193538, 
                            "v": 100, 
                            "dur": 146, 
                            "type": "note", 
                            "channel": 12
                        }
                    ]
                ], 
                [
                    194080, 
                    [
                        {
                            "pitch": 78, 
                            "t0": 194080, 
                            "v": 116, 
                            "dur": 128, 
                            "type": "note", 
                            "channel": 12
                        }, 
                        {
                            "pitch": 82, 
                            "t0": 194080, 
                            "v": 120, 
                            "dur": 150, 
                            "type": "note", 
                            "channel": 12
                        }
                    ]
                ], 
                [
                    194084, 
                    [
                        {
                            "pitch": 75, 
                            "t0": 194084, 
                            "v": 120, 
                            "dur": 100, 
                            "type": "note", 
                            "channel": 12
                        }
                    ]
                ], 
                [
                    196600, 
                    [
                        {
                            "pitch": 78, 
                            "t0": 196600, 
                            "v": 116, 
                            "dur": 126, 
                            "type": "note", 
                            "channel": 12
                        }
                    ]
                ], 
                [
                    196608, 
                    [
                        {
                            "pitch": 82, 
                            "t0": 196608, 
                            "v": 116, 
                            "dur": 126, 
                            "type": "note", 
                            "channel": 12
                        }
                    ]
                ], 
                [
                    196612, 
                    [
                        {
                            "pitch": 75, 
                            "t0": 196612, 
                            "v": 116, 
                            "dur": 96, 
                            "type": "note", 
                            "channel": 12
                        }
                    ]
                ], 
                [
                    198080, 
                    [
                        {
                            "pitch": 82, 
                            "t0": 198080, 
                            "v": 120, 
                            "dur": 146, 
                            "type": "note", 
                            "channel": 12
                        }, 
                        {
                            "pitch": 78, 
                            "t0": 198080, 
                            "v": 120, 
                            "dur": 146, 
                            "type": "note", 
                            "channel": 12
                        }
                    ]
                ], 
                [
                    198096, 
                    [
                        {
                            "pitch": 75, 
                            "t0": 198096, 
                            "v": 120, 
                            "dur": 100, 
                            "type": "note", 
                            "channel": 12
                        }
                    ]
                ], 
                [
                    199038, 
                    [
                        {
                            "pitch": 82, 
                            "t0": 199038, 
                            "v": 112, 
                            "dur": 142, 
                            "type": "note", 
                            "channel": 12
                        }, 
                        {
                            "pitch": 78, 
                            "t0": 199038, 
                            "v": 116, 
                            "dur": 162, 
                            "type": "note", 
                            "channel": 12
                        }
                    ]
                ], 
                [
                    199046, 
                    [
                        {
                            "pitch": 75, 
                            "t0": 199046, 
                            "v": 116, 
                            "dur": 116, 
                            "type": "note", 
                            "channel": 12
                        }
                    ]
                ], 
                [
                    201088, 
                    [
                        {
                            "pitch": 75, 
                            "t0": 201088, 
                            "v": 116, 
                            "dur": 96, 
                            "type": "note", 
                            "channel": 12
                        }
                    ]
                ], 
                [
                    201092, 
                    [
                        {
                            "pitch": 78, 
                            "t0": 201092, 
                            "v": 112, 
                            "dur": 88, 
                            "type": "note", 
                            "channel": 12
                        }
                    ]
                ], 
                [
                    201096, 
                    [
                        {
                            "pitch": 82, 
                            "t0": 201096, 
                            "v": 116, 
                            "dur": 88, 
                            "type": "note", 
                            "channel": 12
                        }
                    ]
                ], 
                [
                    201326, 
                    [
                        {
                            "pitch": 75, 
                            "t0": 201326, 
                            "v": 112, 
                            "dur": 124, 
                            "type": "note", 
                            "channel": 12
                        }
                    ]
                ], 
                [
                    201338, 
                    [
                        {
                            "pitch": 78, 
                            "t0": 201338, 
                            "v": 112, 
                            "dur": 100, 
                            "type": "note", 
                            "channel": 12
                        }
                    ]
                ], 
                [
                    201342, 
                    [
                        {
                            "pitch": 82, 
                            "t0": 201342, 
                            "v": 112, 
                            "dur": 120, 
                            "type": "note", 
                            "channel": 12
                        }
                    ]
                ], 
                [
                    201558, 
                    [
                        {
                            "pitch": 82, 
                            "t0": 201558, 
                            "v": 104, 
                            "dur": 126, 
                            "type": "note", 
                            "channel": 12
                        }
                    ]
                ], 
                [
                    201566, 
                    [
                        {
                            "pitch": 75, 
                            "t0": 201566, 
                            "v": 80, 
                            "dur": 88, 
                            "type": "note", 
                            "channel": 12
                        }, 
                        {
                            "pitch": 78, 
                            "t0": 201566, 
                            "v": 88, 
                            "dur": 104, 
                            "type": "note", 
                            "channel": 12
                        }
                    ]
                ], 
                [
                    202088, 
                    [
                        {
                            "pitch": 78, 
                            "t0": 202088, 
                            "v": 116, 
                            "dur": 112, 
                            "type": "note", 
                            "channel": 12
                        }
                    ]
                ], 
                [
                    202092, 
                    [
                        {
                            "pitch": 75, 
                            "t0": 202092, 
                            "v": 120, 
                            "dur": 88, 
                            "type": "note", 
                            "channel": 12
                        }
                    ]
                ], 
                [
                    202096, 
                    [
                        {
                            "pitch": 82, 
                            "t0": 202096, 
                            "v": 120, 
                            "dur": 104, 
                            "type": "note", 
                            "channel": 12
                        }
                    ]
                ], 
                [
                    204592, 
                    [
                        {
                            "pitch": 78, 
                            "t0": 204592, 
                            "v": 120, 
                            "dur": 120, 
                            "type": "note", 
                            "channel": 12
                        }
                    ]
                ], 
                [
                    204596, 
                    [
                        {
                            "pitch": 75, 
                            "t0": 204596, 
                            "v": 116, 
                            "dur": 100, 
                            "type": "note", 
                            "channel": 12
                        }, 
                        {
                            "pitch": 82, 
                            "t0": 204596, 
                            "v": 112, 
                            "dur": 124, 
                            "type": "note", 
                            "channel": 12
                        }
                    ]
                ], 
                [
                    206066, 
                    [
                        {
                            "pitch": 78, 
                            "t0": 206066, 
                            "v": 116, 
                            "dur": 130, 
                            "type": "note", 
                            "channel": 12
                        }
                    ]
                ], 
                [
                    206070, 
                    [
                        {
                            "pitch": 82, 
                            "t0": 206070, 
                            "v": 120, 
                            "dur": 142, 
                            "type": "note", 
                            "channel": 12
                        }
                    ]
                ], 
                [
                    206076, 
                    [
                        {
                            "pitch": 75, 
                            "t0": 206076, 
                            "v": 120, 
                            "dur": 104, 
                            "type": "note", 
                            "channel": 12
                        }
                    ]
                ], 
                [
                    207026, 
                    [
                        {
                            "pitch": 78, 
                            "t0": 207026, 
                            "v": 116, 
                            "dur": 132, 
                            "type": "note", 
                            "channel": 12
                        }
                    ]
                ], 
                [
                    207030, 
                    [
                        {
                            "pitch": 75, 
                            "t0": 207030, 
                            "v": 120, 
                            "dur": 108, 
                            "type": "note", 
                            "channel": 12
                        }
                    ]
                ], 
                [
                    207034, 
                    [
                        {
                            "pitch": 82, 
                            "t0": 207034, 
                            "v": 120, 
                            "dur": 124, 
                            "type": "note", 
                            "channel": 12
                        }
                    ]
                ], 
                [
                    209042, 
                    [
                        {
                            "pitch": 78, 
                            "t0": 209042, 
                            "v": 112, 
                            "dur": 88, 
                            "type": "note", 
                            "channel": 12
                        }, 
                        {
                            "pitch": 75, 
                            "t0": 209042, 
                            "v": 112, 
                            "dur": 104, 
                            "type": "note", 
                            "channel": 12
                        }
                    ]
                ], 
                [
                    209046, 
                    [
                        {
                            "pitch": 82, 
                            "t0": 209046, 
                            "v": 116, 
                            "dur": 100, 
                            "type": "note", 
                            "channel": 12
                        }
                    ]
                ], 
                [
                    209270, 
                    [
                        {
                            "pitch": 78, 
                            "t0": 209270, 
                            "v": 108, 
                            "dur": 126, 
                            "type": "note", 
                            "channel": 12
                        }
                    ]
                ], 
                [
                    209276, 
                    [
                        {
                            "pitch": 75, 
                            "t0": 209276, 
                            "v": 100, 
                            "dur": 128, 
                            "type": "note", 
                            "channel": 12
                        }
                    ]
                ], 
                [
                    209284, 
                    [
                        {
                            "pitch": 82, 
                            "t0": 209284, 
                            "v": 112, 
                            "dur": 146, 
                            "type": "note", 
                            "channel": 12
                        }
                    ]
                ], 
                [
                    209466, 
                    [
                        {
                            "pitch": 78, 
                            "t0": 209466, 
                            "v": 36, 
                            "dur": 138, 
                            "type": "note", 
                            "channel": 12
                        }
                    ]
                ], 
                [
                    209470, 
                    [
                        {
                            "pitch": 75, 
                            "t0": 209470, 
                            "v": 84, 
                            "dur": 122, 
                            "type": "note", 
                            "channel": 12
                        }
                    ]
                ], 
                [
                    209480, 
                    [
                        {
                            "pitch": 82, 
                            "t0": 209480, 
                            "v": 80, 
                            "dur": 124, 
                            "type": "note", 
                            "channel": 12
                        }
                    ]
                ], 
                [
                    210034, 
                    [
                        {
                            "pitch": 82, 
                            "t0": 210034, 
                            "v": 116, 
                            "dur": 116, 
                            "type": "note", 
                            "channel": 12
                        }, 
                        {
                            "pitch": 78, 
                            "t0": 210034, 
                            "v": 116, 
                            "dur": 116, 
                            "type": "note", 
                            "channel": 12
                        }
                    ]
                ], 
                [
                    210038, 
                    [
                        {
                            "pitch": 75, 
                            "t0": 210038, 
                            "v": 124, 
                            "dur": 92, 
                            "type": "note", 
                            "channel": 12
                        }
                    ]
                ], 
                [
                    210076, 
                    [
                        {
                            "pitch": 74, 
                            "t0": 210076, 
                            "v": 64, 
                            "dur": 70, 
                            "type": "note", 
                            "channel": 12
                        }
                    ]
                ], 
                [
                    212584, 
                    [
                        {
                            "pitch": 75, 
                            "t0": 212584, 
                            "v": 124, 
                            "dur": 112, 
                            "type": "note", 
                            "channel": 12
                        }, 
                        {
                            "pitch": 78, 
                            "t0": 212584, 
                            "v": 112, 
                            "dur": 124, 
                            "type": "note", 
                            "channel": 12
                        }
                    ]
                ], 
                [
                    212588, 
                    [
                        {
                            "pitch": 82, 
                            "t0": 212588, 
                            "v": 124, 
                            "dur": 112, 
                            "type": "note", 
                            "channel": 12
                        }
                    ]
                ], 
                [
                    214030, 
                    [
                        {
                            "pitch": 78, 
                            "t0": 214030, 
                            "v": 116, 
                            "dur": 124, 
                            "type": "note", 
                            "channel": 12
                        }
                    ]
                ], 
                [
                    214038, 
                    [
                        {
                            "pitch": 75, 
                            "t0": 214038, 
                            "v": 120, 
                            "dur": 104, 
                            "type": "note", 
                            "channel": 12
                        }
                    ]
                ], 
                [
                    214042, 
                    [
                        {
                            "pitch": 82, 
                            "t0": 214042, 
                            "v": 120, 
                            "dur": 112, 
                            "type": "note", 
                            "channel": 12
                        }
                    ]
                ], 
                [
                    214988, 
                    [
                        {
                            "pitch": 82, 
                            "t0": 214988, 
                            "v": 116, 
                            "dur": 124, 
                            "type": "note", 
                            "channel": 12
                        }, 
                        {
                            "pitch": 78, 
                            "t0": 214988, 
                            "v": 120, 
                            "dur": 132, 
                            "type": "note", 
                            "channel": 12
                        }
                    ]
                ], 
                [
                    214992, 
                    [
                        {
                            "pitch": 75, 
                            "t0": 214992, 
                            "v": 120, 
                            "dur": 108, 
                            "type": "note", 
                            "channel": 12
                        }
                    ]
                ], 
                [
                    216942, 
                    [
                        {
                            "pitch": 75, 
                            "t0": 216942, 
                            "v": 108, 
                            "dur": 78, 
                            "type": "note", 
                            "channel": 12
                        }, 
                        {
                            "pitch": 78, 
                            "t0": 216942, 
                            "v": 116, 
                            "dur": 88, 
                            "type": "note", 
                            "channel": 12
                        }
                    ]
                ], 
                [
                    216946, 
                    [
                        {
                            "pitch": 82, 
                            "t0": 216946, 
                            "v": 112, 
                            "dur": 96, 
                            "type": "note", 
                            "channel": 12
                        }
                    ]
                ], 
                [
                    217162, 
                    [
                        {
                            "pitch": 75, 
                            "t0": 217162, 
                            "v": 108, 
                            "dur": 142, 
                            "type": "note", 
                            "channel": 12
                        }
                    ]
                ], 
                [
                    217180, 
                    [
                        {
                            "pitch": 78, 
                            "t0": 217180, 
                            "v": 112, 
                            "dur": 100, 
                            "type": "note", 
                            "channel": 12
                        }
                    ]
                ], 
                [
                    217184, 
                    [
                        {
                            "pitch": 82, 
                            "t0": 217184, 
                            "v": 108, 
                            "dur": 112, 
                            "type": "note", 
                            "channel": 12
                        }
                    ]
                ], 
                [
                    217370, 
                    [
                        {
                            "pitch": 75, 
                            "t0": 217370, 
                            "v": 92, 
                            "dur": 126, 
                            "type": "note", 
                            "channel": 12
                        }
                    ]
                ], 
                [
                    217380, 
                    [
                        {
                            "pitch": 78, 
                            "t0": 217380, 
                            "v": 108, 
                            "dur": 124, 
                            "type": "note", 
                            "channel": 12
                        }
                    ]
                ], 
                [
                    217396, 
                    [
                        {
                            "pitch": 82, 
                            "t0": 217396, 
                            "v": 104, 
                            "dur": 116, 
                            "type": "note", 
                            "channel": 12
                        }
                    ]
                ], 
                [
                    217946, 
                    [
                        {
                            "pitch": 82, 
                            "t0": 217946, 
                            "v": 120, 
                            "dur": 108, 
                            "type": "note", 
                            "channel": 12
                        }
                    ]
                ], 
                [
                    217950, 
                    [
                        {
                            "pitch": 78, 
                            "t0": 217950, 
                            "v": 120, 
                            "dur": 100, 
                            "type": "note", 
                            "channel": 12
                        }, 
                        {
                            "pitch": 75, 
                            "t0": 217950, 
                            "v": 120, 
                            "dur": 100, 
                            "type": "note", 
                            "channel": 12
                        }
                    ]
                ], 
                [
                    220634, 
                    [
                        {
                            "pitch": 78, 
                            "t0": 220634, 
                            "v": 116, 
                            "dur": 116, 
                            "type": "note", 
                            "channel": 12
                        }
                    ]
                ], 
                [
                    220638, 
                    [
                        {
                            "pitch": 75, 
                            "t0": 220638, 
                            "v": 116, 
                            "dur": 92, 
                            "type": "note", 
                            "channel": 12
                        }, 
                        {
                            "pitch": 82, 
                            "t0": 220638, 
                            "v": 116, 
                            "dur": 116, 
                            "type": "note", 
                            "channel": 12
                        }
                    ]
                ], 
                [
                    222076, 
                    [
                        {
                            "pitch": 82, 
                            "t0": 222076, 
                            "v": 112, 
                            "dur": 144, 
                            "type": "note", 
                            "channel": 12
                        }
                    ]
                ], 
                [
                    222080, 
                    [
                        {
                            "pitch": 78, 
                            "t0": 222080, 
                            "v": 116, 
                            "dur": 162, 
                            "type": "note", 
                            "channel": 12
                        }
                    ]
                ], 
                [
                    222084, 
                    [
                        {
                            "pitch": 75, 
                            "t0": 222084, 
                            "v": 116, 
                            "dur": 132, 
                            "type": "note", 
                            "channel": 12
                        }
                    ]
                ], 
                [
                    223062, 
                    [
                        {
                            "pitch": 78, 
                            "t0": 223062, 
                            "v": 120, 
                            "dur": 138, 
                            "type": "note", 
                            "channel": 12
                        }
                    ]
                ], 
                [
                    223066, 
                    [
                        {
                            "pitch": 82, 
                            "t0": 223066, 
                            "v": 116, 
                            "dur": 130, 
                            "type": "note", 
                            "channel": 12
                        }
                    ]
                ], 
                [
                    223070, 
                    [
                        {
                            "pitch": 75, 
                            "t0": 223070, 
                            "v": 116, 
                            "dur": 126, 
                            "type": "note", 
                            "channel": 12
                        }
                    ]
                ], 
                [
                    225058, 
                    [
                        {
                            "pitch": 78, 
                            "t0": 225058, 
                            "v": 112, 
                            "dur": 92, 
                            "type": "note", 
                            "channel": 12
                        }
                    ]
                ], 
                [
                    225062, 
                    [
                        {
                            "pitch": 75, 
                            "t0": 225062, 
                            "v": 116, 
                            "dur": 84, 
                            "type": "note", 
                            "channel": 12
                        }, 
                        {
                            "pitch": 82, 
                            "t0": 225062, 
                            "v": 116, 
                            "dur": 96, 
                            "type": "note", 
                            "channel": 12
                        }
                    ]
                ], 
                [
                    225262, 
                    [
                        {
                            "pitch": 75, 
                            "t0": 225262, 
                            "v": 108, 
                            "dur": 180, 
                            "type": "note", 
                            "channel": 12
                        }
                    ]
                ], 
                [
                    225270, 
                    [
                        {
                            "pitch": 78, 
                            "t0": 225270, 
                            "v": 96, 
                            "dur": 134, 
                            "type": "note", 
                            "channel": 12
                        }
                    ]
                ], 
                [
                    225280, 
                    [
                        {
                            "pitch": 82, 
                            "t0": 225280, 
                            "v": 108, 
                            "dur": 128, 
                            "type": "note", 
                            "channel": 12
                        }
                    ]
                ], 
                [
                    226062, 
                    [
                        {
                            "pitch": 78, 
                            "t0": 226062, 
                            "v": 120, 
                            "dur": 130, 
                            "type": "note", 
                            "channel": 12
                        }, 
                        {
                            "pitch": 82, 
                            "t0": 226062, 
                            "v": 120, 
                            "dur": 138, 
                            "type": "note", 
                            "channel": 12
                        }
                    ]
                ], 
                [
                    226070, 
                    [
                        {
                            "pitch": 75, 
                            "t0": 226070, 
                            "v": 120, 
                            "dur": 122, 
                            "type": "note", 
                            "channel": 12
                        }
                    ]
                ], 
                [
                    228550, 
                    [
                        {
                            "pitch": 78, 
                            "t0": 228550, 
                            "v": 116, 
                            "dur": 134, 
                            "type": "note", 
                            "channel": 12
                        }
                    ]
                ], 
                [
                    228554, 
                    [
                        {
                            "pitch": 75, 
                            "t0": 228554, 
                            "v": 120, 
                            "dur": 122, 
                            "type": "note", 
                            "channel": 12
                        }
                    ]
                ], 
                [
                    228558, 
                    [
                        {
                            "pitch": 82, 
                            "t0": 228558, 
                            "v": 120, 
                            "dur": 134, 
                            "type": "note", 
                            "channel": 12
                        }
                    ]
                ], 
                [
                    230008, 
                    [
                        {
                            "pitch": 82, 
                            "t0": 230008, 
                            "v": 116, 
                            "dur": 188, 
                            "type": "note", 
                            "channel": 12
                        }
                    ]
                ], 
                [
                    230012, 
                    [
                        {
                            "pitch": 78, 
                            "t0": 230012, 
                            "v": 112, 
                            "dur": 146, 
                            "type": "note", 
                            "channel": 12
                        }
                    ]
                ], 
                [
                    230016, 
                    [
                        {
                            "pitch": 75, 
                            "t0": 230016, 
                            "v": 116, 
                            "dur": 134, 
                            "type": "note", 
                            "channel": 12
                        }
                    ]
                ], 
                [
                    230996, 
                    [
                        {
                            "pitch": 82, 
                            "t0": 230996, 
                            "v": 112, 
                            "dur": 166, 
                            "type": "note", 
                            "channel": 12
                        }
                    ]
                ], 
                [
                    231000, 
                    [
                        {
                            "pitch": 78, 
                            "t0": 231000, 
                            "v": 116, 
                            "dur": 154, 
                            "type": "note", 
                            "channel": 12
                        }
                    ]
                ], 
                [
                    231004, 
                    [
                        {
                            "pitch": 75, 
                            "t0": 231004, 
                            "v": 116, 
                            "dur": 138, 
                            "type": "note", 
                            "channel": 12
                        }
                    ]
                ], 
                [
                    233016, 
                    [
                        {
                            "pitch": 78, 
                            "t0": 233016, 
                            "v": 104, 
                            "dur": 68, 
                            "type": "note", 
                            "channel": 12
                        }, 
                        {
                            "pitch": 82, 
                            "t0": 233016, 
                            "v": 120, 
                            "dur": 76, 
                            "type": "note", 
                            "channel": 12
                        }
                    ]
                ], 
                [
                    233020, 
                    [
                        {
                            "pitch": 75, 
                            "t0": 233020, 
                            "v": 104, 
                            "dur": 80, 
                            "type": "note", 
                            "channel": 12
                        }
                    ]
                ], 
                [
                    233238, 
                    [
                        {
                            "pitch": 78, 
                            "t0": 233238, 
                            "v": 108, 
                            "dur": 120, 
                            "type": "note", 
                            "channel": 12
                        }, 
                        {
                            "pitch": 75, 
                            "t0": 233238, 
                            "v": 108, 
                            "dur": 124, 
                            "type": "note", 
                            "channel": 12
                        }
                    ]
                ], 
                [
                    233250, 
                    [
                        {
                            "pitch": 82, 
                            "t0": 233250, 
                            "v": 120, 
                            "dur": 120, 
                            "type": "note", 
                            "channel": 12
                        }
                    ]
                ], 
                [
                    233466, 
                    [
                        {
                            "pitch": 78, 
                            "t0": 233466, 
                            "v": 104, 
                            "dur": 134, 
                            "type": "note", 
                            "channel": 12
                        }
                    ]
                ], 
                [
                    233470, 
                    [
                        {
                            "pitch": 75, 
                            "t0": 233470, 
                            "v": 80, 
                            "dur": 118, 
                            "type": "note", 
                            "channel": 12
                        }
                    ]
                ], 
                [
                    233476, 
                    [
                        {
                            "pitch": 82, 
                            "t0": 233476, 
                            "v": 100, 
                            "dur": 124, 
                            "type": "note", 
                            "channel": 12
                        }
                    ]
                ], 
                [
                    234030, 
                    [
                        {
                            "pitch": 75, 
                            "t0": 234030, 
                            "v": 120, 
                            "dur": 104, 
                            "type": "note", 
                            "channel": 12
                        }, 
                        {
                            "pitch": 78, 
                            "t0": 234030, 
                            "v": 120, 
                            "dur": 112, 
                            "type": "note", 
                            "channel": 12
                        }
                    ]
                ], 
                [
                    234034, 
                    [
                        {
                            "pitch": 82, 
                            "t0": 234034, 
                            "v": 120, 
                            "dur": 112, 
                            "type": "note", 
                            "channel": 12
                        }
                    ]
                ], 
                [
                    236558, 
                    [
                        {
                            "pitch": 78, 
                            "t0": 236558, 
                            "v": 116, 
                            "dur": 130, 
                            "type": "note", 
                            "channel": 12
                        }, 
                        {
                            "pitch": 82, 
                            "t0": 236558, 
                            "v": 116, 
                            "dur": 130, 
                            "type": "note", 
                            "channel": 12
                        }
                    ]
                ], 
                [
                    236566, 
                    [
                        {
                            "pitch": 75, 
                            "t0": 236566, 
                            "v": 116, 
                            "dur": 114, 
                            "type": "note", 
                            "channel": 12
                        }
                    ]
                ], 
                [
                    238008, 
                    [
                        {
                            "pitch": 78, 
                            "t0": 238008, 
                            "v": 116, 
                            "dur": 154, 
                            "type": "note", 
                            "channel": 12
                        }, 
                        {
                            "pitch": 82, 
                            "t0": 238008, 
                            "v": 120, 
                            "dur": 158, 
                            "type": "note", 
                            "channel": 12
                        }
                    ]
                ], 
                [
                    238012, 
                    [
                        {
                            "pitch": 75, 
                            "t0": 238012, 
                            "v": 112, 
                            "dur": 142, 
                            "type": "note", 
                            "channel": 12
                        }
                    ]
                ], 
                [
                    238996, 
                    [
                        {
                            "pitch": 78, 
                            "t0": 238996, 
                            "v": 116, 
                            "dur": 134, 
                            "type": "note", 
                            "channel": 12
                        }, 
                        {
                            "pitch": 82, 
                            "t0": 238996, 
                            "v": 124, 
                            "dur": 142, 
                            "type": "note", 
                            "channel": 12
                        }
                    ]
                ], 
                [
                    239000, 
                    [
                        {
                            "pitch": 75, 
                            "t0": 239000, 
                            "v": 120, 
                            "dur": 120, 
                            "type": "note", 
                            "channel": 12
                        }
                    ]
                ], 
                [
                    241054, 
                    [
                        {
                            "pitch": 78, 
                            "t0": 241054, 
                            "v": 116, 
                            "dur": 88, 
                            "type": "note", 
                            "channel": 12
                        }, 
                        {
                            "pitch": 82, 
                            "t0": 241054, 
                            "v": 112, 
                            "dur": 96, 
                            "type": "note", 
                            "channel": 12
                        }
                    ]
                ], 
                [
                    241058, 
                    [
                        {
                            "pitch": 75, 
                            "t0": 241058, 
                            "v": 112, 
                            "dur": 84, 
                            "type": "note", 
                            "channel": 12
                        }
                    ]
                ], 
                [
                    241288, 
                    [
                        {
                            "pitch": 75, 
                            "t0": 241288, 
                            "v": 108, 
                            "dur": 124, 
                            "type": "note", 
                            "channel": 12
                        }
                    ]
                ], 
                [
                    241292, 
                    [
                        {
                            "pitch": 78, 
                            "t0": 241292, 
                            "v": 108, 
                            "dur": 112, 
                            "type": "note", 
                            "channel": 12
                        }, 
                        {
                            "pitch": 82, 
                            "t0": 241292, 
                            "v": 96, 
                            "dur": 138, 
                            "type": "note", 
                            "channel": 12
                        }
                    ]
                ], 
                [
                    241500, 
                    [
                        {
                            "pitch": 75, 
                            "t0": 241500, 
                            "v": 96, 
                            "dur": 130, 
                            "type": "note", 
                            "channel": 12
                        }, 
                        {
                            "pitch": 78, 
                            "t0": 241500, 
                            "v": 108, 
                            "dur": 150, 
                            "type": "note", 
                            "channel": 12
                        }
                    ]
                ], 
                [
                    241504, 
                    [
                        {
                            "pitch": 82, 
                            "t0": 241504, 
                            "v": 88, 
                            "dur": 146, 
                            "type": "note", 
                            "channel": 12
                        }
                    ]
                ], 
                [
                    242054, 
                    [
                        {
                            "pitch": 78, 
                            "t0": 242054, 
                            "v": 116, 
                            "dur": 138, 
                            "type": "note", 
                            "channel": 12
                        }, 
                        {
                            "pitch": 82, 
                            "t0": 242054, 
                            "v": 120, 
                            "dur": 172, 
                            "type": "note", 
                            "channel": 12
                        }
                    ]
                ], 
                [
                    242058, 
                    [
                        {
                            "pitch": 75, 
                            "t0": 242058, 
                            "v": 112, 
                            "dur": 118, 
                            "type": "note", 
                            "channel": 12
                        }
                    ]
                ], 
                [
                    244580, 
                    [
                        {
                            "pitch": 82, 
                            "t0": 244580, 
                            "v": 112, 
                            "dur": 170, 
                            "type": "note", 
                            "channel": 12
                        }
                    ]
                ], 
                [
                    244584, 
                    [
                        {
                            "pitch": 78, 
                            "t0": 244584, 
                            "v": 116, 
                            "dur": 132, 
                            "type": "note", 
                            "channel": 12
                        }
                    ]
                ], 
                [
                    244588, 
                    [
                        {
                            "pitch": 75, 
                            "t0": 244588, 
                            "v": 112, 
                            "dur": 112, 
                            "type": "note", 
                            "channel": 12
                        }
                    ]
                ], 
                [
                    244626, 
                    [
                        {
                            "pitch": 80, 
                            "t0": 244626, 
                            "v": 64, 
                            "dur": 36, 
                            "type": "note", 
                            "channel": 12
                        }
                    ]
                ], 
                [
                    246062, 
                    [
                        {
                            "pitch": 78, 
                            "t0": 246062, 
                            "v": 116, 
                            "dur": 126, 
                            "type": "note", 
                            "channel": 12
                        }
                    ]
                ], 
                [
                    246066, 
                    [
                        {
                            "pitch": 75, 
                            "t0": 246066, 
                            "v": 116, 
                            "dur": 118, 
                            "type": "note", 
                            "channel": 12
                        }, 
                        {
                            "pitch": 82, 
                            "t0": 246066, 
                            "v": 120, 
                            "dur": 142, 
                            "type": "note", 
                            "channel": 12
                        }
                    ]
                ], 
                [
                    247020, 
                    [
                        {
                            "pitch": 78, 
                            "t0": 247020, 
                            "v": 120, 
                            "dur": 138, 
                            "type": "note", 
                            "channel": 12
                        }
                    ]
                ], 
                [
                    247026, 
                    [
                        {
                            "pitch": 75, 
                            "t0": 247026, 
                            "v": 112, 
                            "dur": 116, 
                            "type": "note", 
                            "channel": 12
                        }, 
                        {
                            "pitch": 82, 
                            "t0": 247026, 
                            "v": 120, 
                            "dur": 136, 
                            "type": "note", 
                            "channel": 12
                        }
                    ]
                ], 
                [
                    249050, 
                    [
                        {
                            "pitch": 82, 
                            "t0": 249050, 
                            "v": 120, 
                            "dur": 88, 
                            "type": "note", 
                            "channel": 12
                        }, 
                        {
                            "pitch": 78, 
                            "t0": 249050, 
                            "v": 116, 
                            "dur": 92, 
                            "type": "note", 
                            "channel": 12
                        }
                    ]
                ], 
                [
                    249054, 
                    [
                        {
                            "pitch": 75, 
                            "t0": 249054, 
                            "v": 108, 
                            "dur": 96, 
                            "type": "note", 
                            "channel": 12
                        }
                    ]
                ], 
                [
                    249280, 
                    [
                        {
                            "pitch": 75, 
                            "t0": 249280, 
                            "v": 100, 
                            "dur": 124, 
                            "type": "note", 
                            "channel": 12
                        }
                    ]
                ], 
                [
                    249284, 
                    [
                        {
                            "pitch": 78, 
                            "t0": 249284, 
                            "v": 112, 
                            "dur": 120, 
                            "type": "note", 
                            "channel": 12
                        }
                    ]
                ], 
                [
                    249292, 
                    [
                        {
                            "pitch": 82, 
                            "t0": 249292, 
                            "v": 120, 
                            "dur": 154, 
                            "type": "note", 
                            "channel": 12
                        }
                    ]
                ], 
                [
                    249500, 
                    [
                        {
                            "pitch": 82, 
                            "t0": 249500, 
                            "v": 92, 
                            "dur": 158, 
                            "type": "note", 
                            "channel": 12
                        }
                    ]
                ], 
                [
                    249504, 
                    [
                        {
                            "pitch": 78, 
                            "t0": 249504, 
                            "v": 104, 
                            "dur": 142, 
                            "type": "note", 
                            "channel": 12
                        }
                    ]
                ], 
                [
                    249512, 
                    [
                        {
                            "pitch": 75, 
                            "t0": 249512, 
                            "v": 80, 
                            "dur": 96, 
                            "type": "note", 
                            "channel": 12
                        }
                    ]
                ], 
                [
                    250050, 
                    [
                        {
                            "pitch": 78, 
                            "t0": 250050, 
                            "v": 120, 
                            "dur": 130, 
                            "type": "note", 
                            "channel": 12
                        }
                    ]
                ], 
                [
                    250054, 
                    [
                        {
                            "pitch": 75, 
                            "t0": 250054, 
                            "v": 120, 
                            "dur": 100, 
                            "type": "note", 
                            "channel": 12
                        }, 
                        {
                            "pitch": 82, 
                            "t0": 250054, 
                            "v": 124, 
                            "dur": 130, 
                            "type": "note", 
                            "channel": 12
                        }
                    ]
                ], 
                [
                    252526, 
                    [
                        {
                            "pitch": 82, 
                            "t0": 252526, 
                            "v": 124, 
                            "dur": 154, 
                            "type": "note", 
                            "channel": 12
                        }
                    ]
                ], 
                [
                    252530, 
                    [
                        {
                            "pitch": 75, 
                            "t0": 252530, 
                            "v": 120, 
                            "dur": 116, 
                            "type": "note", 
                            "channel": 12
                        }, 
                        {
                            "pitch": 78, 
                            "t0": 252530, 
                            "v": 120, 
                            "dur": 146, 
                            "type": "note", 
                            "channel": 12
                        }
                    ]
                ], 
                [
                    254026, 
                    [
                        {
                            "pitch": 82, 
                            "t0": 254026, 
                            "v": 124, 
                            "dur": 186, 
                            "type": "note", 
                            "channel": 12
                        }
                    ]
                ], 
                [
                    254030, 
                    [
                        {
                            "pitch": 78, 
                            "t0": 254030, 
                            "v": 116, 
                            "dur": 150, 
                            "type": "note", 
                            "channel": 12
                        }
                    ]
                ], 
                [
                    254034, 
                    [
                        {
                            "pitch": 75, 
                            "t0": 254034, 
                            "v": 112, 
                            "dur": 128, 
                            "type": "note", 
                            "channel": 12
                        }
                    ]
                ], 
                [
                    254988, 
                    [
                        {
                            "pitch": 78, 
                            "t0": 254988, 
                            "v": 120, 
                            "dur": 166, 
                            "type": "note", 
                            "channel": 12
                        }
                    ]
                ], 
                [
                    254992, 
                    [
                        {
                            "pitch": 82, 
                            "t0": 254992, 
                            "v": 120, 
                            "dur": 158, 
                            "type": "note", 
                            "channel": 12
                        }
                    ]
                ], 
                [
                    255000, 
                    [
                        {
                            "pitch": 75, 
                            "t0": 255000, 
                            "v": 120, 
                            "dur": 120, 
                            "type": "note", 
                            "channel": 12
                        }
                    ]
                ], 
                [
                    257062, 
                    [
                        {
                            "pitch": 78, 
                            "t0": 257062, 
                            "v": 112, 
                            "dur": 84, 
                            "type": "note", 
                            "channel": 12
                        }, 
                        {
                            "pitch": 75, 
                            "t0": 257062, 
                            "v": 116, 
                            "dur": 96, 
                            "type": "note", 
                            "channel": 12
                        }
                    ]
                ], 
                [
                    257066, 
                    [
                        {
                            "pitch": 82, 
                            "t0": 257066, 
                            "v": 112, 
                            "dur": 84, 
                            "type": "note", 
                            "channel": 12
                        }
                    ]
                ], 
                [
                    257300, 
                    [
                        {
                            "pitch": 75, 
                            "t0": 257300, 
                            "v": 108, 
                            "dur": 150, 
                            "type": "note", 
                            "channel": 12
                        }
                    ]
                ], 
                [
                    257304, 
                    [
                        {
                            "pitch": 78, 
                            "t0": 257304, 
                            "v": 112, 
                            "dur": 108, 
                            "type": "note", 
                            "channel": 12
                        }, 
                        {
                            "pitch": 82, 
                            "t0": 257304, 
                            "v": 116, 
                            "dur": 122, 
                            "type": "note", 
                            "channel": 12
                        }
                    ]
                ], 
                [
                    257492, 
                    [
                        {
                            "pitch": 75, 
                            "t0": 257492, 
                            "v": 72, 
                            "dur": 128, 
                            "type": "note", 
                            "channel": 12
                        }
                    ]
                ], 
                [
                    257508, 
                    [
                        {
                            "pitch": 78, 
                            "t0": 257508, 
                            "v": 112, 
                            "dur": 142, 
                            "type": "note", 
                            "channel": 12
                        }
                    ]
                ], 
                [
                    257512, 
                    [
                        {
                            "pitch": 82, 
                            "t0": 257512, 
                            "v": 112, 
                            "dur": 138, 
                            "type": "note", 
                            "channel": 12
                        }
                    ]
                ], 
                [
                    258050, 
                    [
                        {
                            "pitch": 75, 
                            "t0": 258050, 
                            "v": 120, 
                            "dur": 104, 
                            "type": "note", 
                            "channel": 12
                        }, 
                        {
                            "pitch": 82, 
                            "t0": 258050, 
                            "v": 127, 
                            "dur": 116, 
                            "type": "note", 
                            "channel": 12
                        }
                    ]
                ], 
                [
                    258054, 
                    [
                        {
                            "pitch": 78, 
                            "t0": 258054, 
                            "v": 116, 
                            "dur": 112, 
                            "type": "note", 
                            "channel": 12
                        }
                    ]
                ], 
                [
                    260584, 
                    [
                        {
                            "pitch": 82, 
                            "t0": 260584, 
                            "v": 120, 
                            "dur": 128, 
                            "type": "note", 
                            "channel": 12
                        }, 
                        {
                            "pitch": 78, 
                            "t0": 260584, 
                            "v": 120, 
                            "dur": 142, 
                            "type": "note", 
                            "channel": 12
                        }
                    ]
                ], 
                [
                    260592, 
                    [
                        {
                            "pitch": 75, 
                            "t0": 260592, 
                            "v": 112, 
                            "dur": 104, 
                            "type": "note", 
                            "channel": 12
                        }
                    ]
                ], 
                [
                    262092, 
                    [
                        {
                            "pitch": 82, 
                            "t0": 262092, 
                            "v": 120, 
                            "dur": 142, 
                            "type": "note", 
                            "channel": 12
                        }
                    ]
                ], 
                [
                    262096, 
                    [
                        {
                            "pitch": 78, 
                            "t0": 262096, 
                            "v": 116, 
                            "dur": 130, 
                            "type": "note", 
                            "channel": 12
                        }
                    ]
                ], 
                [
                    262104, 
                    [
                        {
                            "pitch": 75, 
                            "t0": 262104, 
                            "v": 108, 
                            "dur": 108, 
                            "type": "note", 
                            "channel": 12
                        }
                    ]
                ], 
                [
                    263070, 
                    [
                        {
                            "pitch": 78, 
                            "t0": 263070, 
                            "v": 120, 
                            "dur": 150, 
                            "type": "note", 
                            "channel": 12
                        }
                    ]
                ], 
                [
                    263076, 
                    [
                        {
                            "pitch": 75, 
                            "t0": 263076, 
                            "v": 116, 
                            "dur": 120, 
                            "type": "note", 
                            "channel": 12
                        }, 
                        {
                            "pitch": 82, 
                            "t0": 263076, 
                            "v": 120, 
                            "dur": 144, 
                            "type": "note", 
                            "channel": 12
                        }
                    ]
                ], 
                [
                    265070, 
                    [
                        {
                            "pitch": 82, 
                            "t0": 265070, 
                            "v": 120, 
                            "dur": 100, 
                            "type": "note", 
                            "channel": 12
                        }
                    ]
                ], 
                [
                    265076, 
                    [
                        {
                            "pitch": 78, 
                            "t0": 265076, 
                            "v": 112, 
                            "dur": 78, 
                            "type": "note", 
                            "channel": 12
                        }
                    ]
                ], 
                [
                    265084, 
                    [
                        {
                            "pitch": 75, 
                            "t0": 265084, 
                            "v": 116, 
                            "dur": 78, 
                            "type": "note", 
                            "channel": 12
                        }
                    ]
                ], 
                [
                    265300, 
                    [
                        {
                            "pitch": 78, 
                            "t0": 265300, 
                            "v": 116, 
                            "dur": 112, 
                            "type": "note", 
                            "channel": 12
                        }
                    ]
                ], 
                [
                    265304, 
                    [
                        {
                            "pitch": 75, 
                            "t0": 265304, 
                            "v": 116, 
                            "dur": 112, 
                            "type": "note", 
                            "channel": 12
                        }, 
                        {
                            "pitch": 82, 
                            "t0": 265304, 
                            "v": 116, 
                            "dur": 122, 
                            "type": "note", 
                            "channel": 12
                        }
                    ]
                ], 
                [
                    265508, 
                    [
                        {
                            "pitch": 78, 
                            "t0": 265508, 
                            "v": 112, 
                            "dur": 150, 
                            "type": "note", 
                            "channel": 12
                        }, 
                        {
                            "pitch": 82, 
                            "t0": 265508, 
                            "v": 108, 
                            "dur": 158, 
                            "type": "note", 
                            "channel": 12
                        }
                    ]
                ], 
                [
                    265512, 
                    [
                        {
                            "pitch": 75, 
                            "t0": 265512, 
                            "v": 108, 
                            "dur": 126, 
                            "type": "note", 
                            "channel": 12
                        }
                    ]
                ], 
                [
                    266026, 
                    [
                        {
                            "pitch": 75, 
                            "t0": 266026, 
                            "v": 116, 
                            "dur": 104, 
                            "type": "note", 
                            "channel": 12
                        }, 
                        {
                            "pitch": 82, 
                            "t0": 266026, 
                            "v": 124, 
                            "dur": 120, 
                            "type": "note", 
                            "channel": 12
                        }
                    ]
                ], 
                [
                    266030, 
                    [
                        {
                            "pitch": 78, 
                            "t0": 266030, 
                            "v": 124, 
                            "dur": 112, 
                            "type": "note", 
                            "channel": 12
                        }
                    ]
                ], 
                [
                    268600, 
                    [
                        {
                            "pitch": 78, 
                            "t0": 268600, 
                            "v": 116, 
                            "dur": 142, 
                            "type": "note", 
                            "channel": 12
                        }, 
                        {
                            "pitch": 82, 
                            "t0": 268600, 
                            "v": 120, 
                            "dur": 146, 
                            "type": "note", 
                            "channel": 12
                        }
                    ]
                ], 
                [
                    268604, 
                    [
                        {
                            "pitch": 75, 
                            "t0": 268604, 
                            "v": 120, 
                            "dur": 104, 
                            "type": "note", 
                            "channel": 12
                        }
                    ]
                ], 
                [
                    270088, 
                    [
                        {
                            "pitch": 78, 
                            "t0": 270088, 
                            "v": 116, 
                            "dur": 174, 
                            "type": "note", 
                            "channel": 12
                        }, 
                        {
                            "pitch": 82, 
                            "t0": 270088, 
                            "v": 120, 
                            "dur": 204, 
                            "type": "note", 
                            "channel": 12
                        }
                    ]
                ], 
                [
                    270100, 
                    [
                        {
                            "pitch": 75, 
                            "t0": 270100, 
                            "v": 112, 
                            "dur": 126, 
                            "type": "note", 
                            "channel": 12
                        }
                    ]
                ], 
                [
                    271012, 
                    [
                        {
                            "pitch": 82, 
                            "t0": 271012, 
                            "v": 120, 
                            "dur": 172, 
                            "type": "note", 
                            "channel": 12
                        }
                    ]
                ], 
                [
                    271020, 
                    [
                        {
                            "pitch": 78, 
                            "t0": 271020, 
                            "v": 120, 
                            "dur": 150, 
                            "type": "note", 
                            "channel": 12
                        }
                    ]
                ], 
                [
                    271030, 
                    [
                        {
                            "pitch": 75, 
                            "t0": 271030, 
                            "v": 108, 
                            "dur": 112, 
                            "type": "note", 
                            "channel": 12
                        }
                    ]
                ], 
                [
                    273050, 
                    [
                        {
                            "pitch": 78, 
                            "t0": 273050, 
                            "v": 104, 
                            "dur": 88, 
                            "type": "note", 
                            "channel": 12
                        }, 
                        {
                            "pitch": 82, 
                            "t0": 273050, 
                            "v": 120, 
                            "dur": 100, 
                            "type": "note", 
                            "channel": 12
                        }
                    ]
                ], 
                [
                    273054, 
                    [
                        {
                            "pitch": 75, 
                            "t0": 273054, 
                            "v": 108, 
                            "dur": 100, 
                            "type": "note", 
                            "channel": 12
                        }
                    ]
                ], 
                [
                    273280, 
                    [
                        {
                            "pitch": 75, 
                            "t0": 273280, 
                            "v": 108, 
                            "dur": 158, 
                            "type": "note", 
                            "channel": 12
                        }
                    ]
                ], 
                [
                    273284, 
                    [
                        {
                            "pitch": 78, 
                            "t0": 273284, 
                            "v": 112, 
                            "dur": 128, 
                            "type": "note", 
                            "channel": 12
                        }
                    ]
                ], 
                [
                    273288, 
                    [
                        {
                            "pitch": 82, 
                            "t0": 273288, 
                            "v": 112, 
                            "dur": 142, 
                            "type": "note", 
                            "channel": 12
                        }
                    ]
                ], 
                [
                    273500, 
                    [
                        {
                            "pitch": 75, 
                            "t0": 273500, 
                            "v": 76, 
                            "dur": 146, 
                            "type": "note", 
                            "channel": 12
                        }
                    ]
                ], 
                [
                    273508, 
                    [
                        {
                            "pitch": 82, 
                            "t0": 273508, 
                            "v": 64, 
                            "dur": 150, 
                            "type": "note", 
                            "channel": 12
                        }
                    ]
                ], 
                [
                    273512, 
                    [
                        {
                            "pitch": 78, 
                            "t0": 273512, 
                            "v": 108, 
                            "dur": 134, 
                            "type": "note", 
                            "channel": 12
                        }
                    ]
                ], 
                [
                    274054, 
                    [
                        {
                            "pitch": 78, 
                            "t0": 274054, 
                            "v": 124, 
                            "dur": 138, 
                            "type": "note", 
                            "channel": 12
                        }
                    ]
                ], 
                [
                    274058, 
                    [
                        {
                            "pitch": 75, 
                            "t0": 274058, 
                            "v": 120, 
                            "dur": 108, 
                            "type": "note", 
                            "channel": 12
                        }, 
                        {
                            "pitch": 82, 
                            "t0": 274058, 
                            "v": 124, 
                            "dur": 118, 
                            "type": "note", 
                            "channel": 12
                        }
                    ]
                ], 
                [
                    276600, 
                    [
                        {
                            "pitch": 78, 
                            "t0": 276600, 
                            "v": 120, 
                            "dur": 150, 
                            "type": "note", 
                            "channel": 12
                        }
                    ]
                ], 
                [
                    276604, 
                    [
                        {
                            "pitch": 75, 
                            "t0": 276604, 
                            "v": 124, 
                            "dur": 112, 
                            "type": "note", 
                            "channel": 12
                        }, 
                        {
                            "pitch": 82, 
                            "t0": 276604, 
                            "v": 120, 
                            "dur": 154, 
                            "type": "note", 
                            "channel": 12
                        }
                    ]
                ], 
                [
                    278134, 
                    [
                        {
                            "pitch": 78, 
                            "t0": 278134, 
                            "v": 116, 
                            "dur": 136, 
                            "type": "note", 
                            "channel": 12
                        }
                    ]
                ], 
                [
                    278138, 
                    [
                        {
                            "pitch": 75, 
                            "t0": 278138, 
                            "v": 112, 
                            "dur": 128, 
                            "type": "note", 
                            "channel": 12
                        }, 
                        {
                            "pitch": 82, 
                            "t0": 278138, 
                            "v": 116, 
                            "dur": 132, 
                            "type": "note", 
                            "channel": 12
                        }
                    ]
                ], 
                [
                    279116, 
                    [
                        {
                            "pitch": 82, 
                            "t0": 279116, 
                            "v": 116, 
                            "dur": 154, 
                            "type": "note", 
                            "channel": 12
                        }, 
                        {
                            "pitch": 78, 
                            "t0": 279116, 
                            "v": 116, 
                            "dur": 154, 
                            "type": "note", 
                            "channel": 12
                        }
                    ]
                ], 
                [
                    279120, 
                    [
                        {
                            "pitch": 75, 
                            "t0": 279120, 
                            "v": 112, 
                            "dur": 126, 
                            "type": "note", 
                            "channel": 12
                        }
                    ]
                ], 
                [
                    281076, 
                    [
                        {
                            "pitch": 78, 
                            "t0": 281076, 
                            "v": 112, 
                            "dur": 100, 
                            "type": "note", 
                            "channel": 12
                        }
                    ]
                ], 
                [
                    281080, 
                    [
                        {
                            "pitch": 82, 
                            "t0": 281080, 
                            "v": 112, 
                            "dur": 100, 
                            "type": "note", 
                            "channel": 12
                        }
                    ]
                ], 
                [
                    281084, 
                    [
                        {
                            "pitch": 75, 
                            "t0": 281084, 
                            "v": 108, 
                            "dur": 100, 
                            "type": "note", 
                            "channel": 12
                        }
                    ]
                ], 
                [
                    281316, 
                    [
                        {
                            "pitch": 75, 
                            "t0": 281316, 
                            "v": 104, 
                            "dur": 142, 
                            "type": "note", 
                            "channel": 12
                        }
                    ]
                ], 
                [
                    281320, 
                    [
                        {
                            "pitch": 78, 
                            "t0": 281320, 
                            "v": 112, 
                            "dur": 126, 
                            "type": "note", 
                            "channel": 12
                        }
                    ]
                ], 
                [
                    281326, 
                    [
                        {
                            "pitch": 82, 
                            "t0": 281326, 
                            "v": 116, 
                            "dur": 178, 
                            "type": "note", 
                            "channel": 12
                        }
                    ]
                ], 
                [
                    281546, 
                    [
                        {
                            "pitch": 82, 
                            "t0": 281546, 
                            "v": 54, 
                            "dur": 134, 
                            "type": "note", 
                            "channel": 12
                        }
                    ]
                ], 
                [
                    281570, 
                    [
                        {
                            "pitch": 78, 
                            "t0": 281570, 
                            "v": 76, 
                            "dur": 100, 
                            "type": "note", 
                            "channel": 12
                        }
                    ]
                ], 
                [
                    281600, 
                    [
                        {
                            "pitch": 75, 
                            "t0": 281600, 
                            "v": 46, 
                            "dur": 50, 
                            "type": "note", 
                            "channel": 12
                        }
                    ]
                ], 
                [
                    282084, 
                    [
                        {
                            "pitch": 78, 
                            "t0": 282084, 
                            "v": 116, 
                            "dur": 124, 
                            "type": "note", 
                            "channel": 12
                        }, 
                        {
                            "pitch": 82, 
                            "t0": 282084, 
                            "v": 124, 
                            "dur": 132, 
                            "type": "note", 
                            "channel": 12
                        }
                    ]
                ], 
                [
                    282088, 
                    [
                        {
                            "pitch": 75, 
                            "t0": 282088, 
                            "v": 116, 
                            "dur": 112, 
                            "type": "note", 
                            "channel": 12
                        }
                    ]
                ], 
                [
                    284596, 
                    [
                        {
                            "pitch": 78, 
                            "t0": 284596, 
                            "v": 116, 
                            "dur": 154, 
                            "type": "note", 
                            "channel": 12
                        }
                    ]
                ], 
                [
                    284600, 
                    [
                        {
                            "pitch": 75, 
                            "t0": 284600, 
                            "v": 112, 
                            "dur": 138, 
                            "type": "note", 
                            "channel": 12
                        }, 
                        {
                            "pitch": 82, 
                            "t0": 284600, 
                            "v": 124, 
                            "dur": 162, 
                            "type": "note", 
                            "channel": 12
                        }
                    ]
                ], 
                [
                    286046, 
                    [
                        {
                            "pitch": 82, 
                            "t0": 286046, 
                            "v": 116, 
                            "dur": 166, 
                            "type": "note", 
                            "channel": 12
                        }
                    ]
                ], 
                [
                    286050, 
                    [
                        {
                            "pitch": 75, 
                            "t0": 286050, 
                            "v": 112, 
                            "dur": 138, 
                            "type": "note", 
                            "channel": 12
                        }, 
                        {
                            "pitch": 78, 
                            "t0": 286050, 
                            "v": 120, 
                            "dur": 142, 
                            "type": "note", 
                            "channel": 12
                        }
                    ]
                ], 
                [
                    287012, 
                    [
                        {
                            "pitch": 78, 
                            "t0": 287012, 
                            "v": 116, 
                            "dur": 168, 
                            "type": "note", 
                            "channel": 12
                        }
                    ]
                ], 
                [
                    287016, 
                    [
                        {
                            "pitch": 82, 
                            "t0": 287016, 
                            "v": 120, 
                            "dur": 172, 
                            "type": "note", 
                            "channel": 12
                        }
                    ]
                ], 
                [
                    287020, 
                    [
                        {
                            "pitch": 75, 
                            "t0": 287020, 
                            "v": 112, 
                            "dur": 138, 
                            "type": "note", 
                            "channel": 12
                        }
                    ]
                ], 
                [
                    289096, 
                    [
                        {
                            "pitch": 78, 
                            "t0": 289096, 
                            "v": 108, 
                            "dur": 92, 
                            "type": "note", 
                            "channel": 12
                        }, 
                        {
                            "pitch": 82, 
                            "t0": 289096, 
                            "v": 116, 
                            "dur": 112, 
                            "type": "note", 
                            "channel": 12
                        }
                    ]
                ], 
                [
                    289100, 
                    [
                        {
                            "pitch": 75, 
                            "t0": 289100, 
                            "v": 108, 
                            "dur": 96, 
                            "type": "note", 
                            "channel": 12
                        }
                    ]
                ], 
                [
                    289320, 
                    [
                        {
                            "pitch": 75, 
                            "t0": 289320, 
                            "v": 108, 
                            "dur": 134, 
                            "type": "note", 
                            "channel": 12
                        }
                    ]
                ], 
                [
                    289326, 
                    [
                        {
                            "pitch": 78, 
                            "t0": 289326, 
                            "v": 112, 
                            "dur": 136, 
                            "type": "note", 
                            "channel": 12
                        }, 
                        {
                            "pitch": 82, 
                            "t0": 289326, 
                            "v": 104, 
                            "dur": 158, 
                            "type": "note", 
                            "channel": 12
                        }
                    ]
                ], 
                [
                    289546, 
                    [
                        {
                            "pitch": 78, 
                            "t0": 289546, 
                            "v": 84, 
                            "dur": 146, 
                            "type": "note", 
                            "channel": 12
                        }
                    ]
                ], 
                [
                    289550, 
                    [
                        {
                            "pitch": 82, 
                            "t0": 289550, 
                            "v": 80, 
                            "dur": 134, 
                            "type": "note", 
                            "channel": 12
                        }
                    ]
                ], 
                [
                    289576, 
                    [
                        {
                            "pitch": 75, 
                            "t0": 289576, 
                            "v": 54, 
                            "dur": 74, 
                            "type": "note", 
                            "channel": 12
                        }
                    ]
                ], 
                [
                    290070, 
                    [
                        {
                            "pitch": 75, 
                            "t0": 290070, 
                            "v": 120, 
                            "dur": 126, 
                            "type": "note", 
                            "channel": 12
                        }
                    ]
                ], 
                [
                    290076, 
                    [
                        {
                            "pitch": 82, 
                            "t0": 290076, 
                            "v": 116, 
                            "dur": 150, 
                            "type": "note", 
                            "channel": 12
                        }
                    ]
                ], 
                [
                    290080, 
                    [
                        {
                            "pitch": 78, 
                            "t0": 290080, 
                            "v": 124, 
                            "dur": 120, 
                            "type": "note", 
                            "channel": 12
                        }
                    ]
                ], 
                [
                    292612, 
                    [
                        {
                            "pitch": 78, 
                            "t0": 292612, 
                            "v": 120, 
                            "dur": 142, 
                            "type": "note", 
                            "channel": 12
                        }
                    ]
                ], 
                [
                    292616, 
                    [
                        {
                            "pitch": 75, 
                            "t0": 292616, 
                            "v": 116, 
                            "dur": 118, 
                            "type": "note", 
                            "channel": 12
                        }
                    ]
                ], 
                [
                    292620, 
                    [
                        {
                            "pitch": 82, 
                            "t0": 292620, 
                            "v": 116, 
                            "dur": 156, 
                            "type": "note", 
                            "channel": 12
                        }
                    ]
                ], 
                [
                    294020, 
                    [
                        {
                            "pitch": 78, 
                            "t0": 294020, 
                            "v": 116, 
                            "dur": 160, 
                            "type": "note", 
                            "channel": 12
                        }, 
                        {
                            "pitch": 82, 
                            "t0": 294020, 
                            "v": 120, 
                            "dur": 210, 
                            "type": "note", 
                            "channel": 12
                        }
                    ]
                ], 
                [
                    294026, 
                    [
                        {
                            "pitch": 75, 
                            "t0": 294026, 
                            "v": 116, 
                            "dur": 140, 
                            "type": "note", 
                            "channel": 12
                        }
                    ]
                ], 
                [
                    295058, 
                    [
                        {
                            "pitch": 78, 
                            "t0": 295058, 
                            "v": 116, 
                            "dur": 172, 
                            "type": "note", 
                            "channel": 12
                        }
                    ]
                ], 
                [
                    295062, 
                    [
                        {
                            "pitch": 82, 
                            "t0": 295062, 
                            "v": 116, 
                            "dur": 184, 
                            "type": "note", 
                            "channel": 12
                        }
                    ]
                ], 
                [
                    295066, 
                    [
                        {
                            "pitch": 75, 
                            "t0": 295066, 
                            "v": 116, 
                            "dur": 134, 
                            "type": "note", 
                            "channel": 12
                        }
                    ]
                ], 
                [
                    297050, 
                    [
                        {
                            "pitch": 78, 
                            "t0": 297050, 
                            "v": 108, 
                            "dur": 88, 
                            "type": "note", 
                            "channel": 12
                        }
                    ]
                ], 
                [
                    297054, 
                    [
                        {
                            "pitch": 82, 
                            "t0": 297054, 
                            "v": 112, 
                            "dur": 96, 
                            "type": "note", 
                            "channel": 12
                        }
                    ]
                ], 
                [
                    297062, 
                    [
                        {
                            "pitch": 75, 
                            "t0": 297062, 
                            "v": 104, 
                            "dur": 72, 
                            "type": "note", 
                            "channel": 12
                        }
                    ]
                ], 
                [
                    297288, 
                    [
                        {
                            "pitch": 78, 
                            "t0": 297288, 
                            "v": 112, 
                            "dur": 120, 
                            "type": "note", 
                            "channel": 12
                        }
                    ]
                ], 
                [
                    297292, 
                    [
                        {
                            "pitch": 75, 
                            "t0": 297292, 
                            "v": 104, 
                            "dur": 134, 
                            "type": "note", 
                            "channel": 12
                        }, 
                        {
                            "pitch": 82, 
                            "t0": 297292, 
                            "v": 112, 
                            "dur": 158, 
                            "type": "note", 
                            "channel": 12
                        }
                    ]
                ], 
                [
                    297512, 
                    [
                        {
                            "pitch": 78, 
                            "t0": 297512, 
                            "v": 100, 
                            "dur": 158, 
                            "type": "note", 
                            "channel": 12
                        }
                    ]
                ], 
                [
                    297516, 
                    [
                        {
                            "pitch": 82, 
                            "t0": 297516, 
                            "v": 88, 
                            "dur": 150, 
                            "type": "note", 
                            "channel": 12
                        }
                    ]
                ], 
                [
                    297520, 
                    [
                        {
                            "pitch": 75, 
                            "t0": 297520, 
                            "v": 92, 
                            "dur": 126, 
                            "type": "note", 
                            "channel": 12
                        }
                    ]
                ], 
                [
                    298054, 
                    [
                        {
                            "pitch": 75, 
                            "t0": 298054, 
                            "v": 120, 
                            "dur": 142, 
                            "type": "note", 
                            "channel": 12
                        }, 
                        {
                            "pitch": 78, 
                            "t0": 298054, 
                            "v": 116, 
                            "dur": 146, 
                            "type": "note", 
                            "channel": 12
                        }
                    ]
                ], 
                [
                    298058, 
                    [
                        {
                            "pitch": 82, 
                            "t0": 298058, 
                            "v": 120, 
                            "dur": 176, 
                            "type": "note", 
                            "channel": 12
                        }
                    ]
                ], 
                [
                    300580, 
                    [
                        {
                            "pitch": 78, 
                            "t0": 300580, 
                            "v": 116, 
                            "dur": 146, 
                            "type": "note", 
                            "channel": 12
                        }
                    ]
                ], 
                [
                    300584, 
                    [
                        {
                            "pitch": 82, 
                            "t0": 300584, 
                            "v": 108, 
                            "dur": 174, 
                            "type": "note", 
                            "channel": 12
                        }
                    ]
                ], 
                [
                    300588, 
                    [
                        {
                            "pitch": 75, 
                            "t0": 300588, 
                            "v": 112, 
                            "dur": 112, 
                            "type": "note", 
                            "channel": 12
                        }
                    ]
                ], 
                [
                    302070, 
                    [
                        {
                            "pitch": 75, 
                            "t0": 302070, 
                            "v": 120, 
                            "dur": 150, 
                            "type": "note", 
                            "channel": 12
                        }, 
                        {
                            "pitch": 78, 
                            "t0": 302070, 
                            "v": 116, 
                            "dur": 172, 
                            "type": "note", 
                            "channel": 12
                        }
                    ]
                ], 
                [
                    302076, 
                    [
                        {
                            "pitch": 82, 
                            "t0": 302076, 
                            "v": 112, 
                            "dur": 154, 
                            "type": "note", 
                            "channel": 12
                        }
                    ]
                ], 
                [
                    303066, 
                    [
                        {
                            "pitch": 78, 
                            "t0": 303066, 
                            "v": 116, 
                            "dur": 164, 
                            "type": "note", 
                            "channel": 12
                        }
                    ]
                ], 
                [
                    303070, 
                    [
                        {
                            "pitch": 82, 
                            "t0": 303070, 
                            "v": 120, 
                            "dur": 156, 
                            "type": "note", 
                            "channel": 12
                        }
                    ]
                ], 
                [
                    303076, 
                    [
                        {
                            "pitch": 75, 
                            "t0": 303076, 
                            "v": 116, 
                            "dur": 116, 
                            "type": "note", 
                            "channel": 12
                        }
                    ]
                ], 
                [
                    305092, 
                    [
                        {
                            "pitch": 82, 
                            "t0": 305092, 
                            "v": 120, 
                            "dur": 84, 
                            "type": "note", 
                            "channel": 12
                        }
                    ]
                ], 
                [
                    305096, 
                    [
                        {
                            "pitch": 78, 
                            "t0": 305096, 
                            "v": 108, 
                            "dur": 84, 
                            "type": "note", 
                            "channel": 12
                        }
                    ]
                ], 
                [
                    305100, 
                    [
                        {
                            "pitch": 75, 
                            "t0": 305100, 
                            "v": 100, 
                            "dur": 84, 
                            "type": "note", 
                            "channel": 12
                        }
                    ]
                ], 
                [
                    305334, 
                    [
                        {
                            "pitch": 78, 
                            "t0": 305334, 
                            "v": 108, 
                            "dur": 112, 
                            "type": "note", 
                            "channel": 12
                        }, 
                        {
                            "pitch": 75, 
                            "t0": 305334, 
                            "v": 108, 
                            "dur": 120, 
                            "type": "note", 
                            "channel": 12
                        }, 
                        {
                            "pitch": 82, 
                            "t0": 305334, 
                            "v": 120, 
                            "dur": 132, 
                            "type": "note", 
                            "channel": 12
                        }
                    ]
                ], 
                [
                    305546, 
                    [
                        {
                            "pitch": 75, 
                            "t0": 305546, 
                            "v": 92, 
                            "dur": 130, 
                            "type": "note", 
                            "channel": 12
                        }
                    ]
                ], 
                [
                    305550, 
                    [
                        {
                            "pitch": 78, 
                            "t0": 305550, 
                            "v": 104, 
                            "dur": 138, 
                            "type": "note", 
                            "channel": 12
                        }
                    ]
                ], 
                [
                    305558, 
                    [
                        {
                            "pitch": 82, 
                            "t0": 305558, 
                            "v": 112, 
                            "dur": 146, 
                            "type": "note", 
                            "channel": 12
                        }
                    ]
                ], 
                [
                    306054, 
                    [
                        {
                            "pitch": 75, 
                            "t0": 306054, 
                            "v": 116, 
                            "dur": 134, 
                            "type": "note", 
                            "channel": 12
                        }, 
                        {
                            "pitch": 78, 
                            "t0": 306054, 
                            "v": 116, 
                            "dur": 150, 
                            "type": "note", 
                            "channel": 12
                        }
                    ]
                ], 
                [
                    306058, 
                    [
                        {
                            "pitch": 82, 
                            "t0": 306058, 
                            "v": 116, 
                            "dur": 158, 
                            "type": "note", 
                            "channel": 12
                        }
                    ]
                ], 
                [
                    308592, 
                    [
                        {
                            "pitch": 75, 
                            "t0": 308592, 
                            "v": 112, 
                            "dur": 142, 
                            "type": "note", 
                            "channel": 12
                        }, 
                        {
                            "pitch": 78, 
                            "t0": 308592, 
                            "v": 112, 
                            "dur": 242, 
                            "type": "note", 
                            "channel": 12
                        }
                    ]
                ], 
                [
                    308596, 
                    [
                        {
                            "pitch": 82, 
                            "t0": 308596, 
                            "v": 120, 
                            "dur": 208, 
                            "type": "note", 
                            "channel": 12
                        }
                    ]
                ], 
                [
                    310084, 
                    [
                        {
                            "pitch": 78, 
                            "t0": 310084, 
                            "v": 116, 
                            "dur": 158, 
                            "type": "note", 
                            "channel": 12
                        }, 
                        {
                            "pitch": 82, 
                            "t0": 310084, 
                            "v": 120, 
                            "dur": 186, 
                            "type": "note", 
                            "channel": 12
                        }
                    ]
                ], 
                [
                    310088, 
                    [
                        {
                            "pitch": 75, 
                            "t0": 310088, 
                            "v": 112, 
                            "dur": 120, 
                            "type": "note", 
                            "channel": 12
                        }
                    ]
                ], 
                [
                    311046, 
                    [
                        {
                            "pitch": 78, 
                            "t0": 311046, 
                            "v": 116, 
                            "dur": 174, 
                            "type": "note", 
                            "channel": 12
                        }
                    ]
                ], 
                [
                    311050, 
                    [
                        {
                            "pitch": 82, 
                            "t0": 311050, 
                            "v": 120, 
                            "dur": 176, 
                            "type": "note", 
                            "channel": 12
                        }
                    ]
                ], 
                [
                    311062, 
                    [
                        {
                            "pitch": 75, 
                            "t0": 311062, 
                            "v": 112, 
                            "dur": 118, 
                            "type": "note", 
                            "channel": 12
                        }
                    ]
                ], 
                [
                    313054, 
                    [
                        {
                            "pitch": 78, 
                            "t0": 313054, 
                            "v": 116, 
                            "dur": 88, 
                            "type": "note", 
                            "channel": 12
                        }
                    ]
                ], 
                [
                    313058, 
                    [
                        {
                            "pitch": 82, 
                            "t0": 313058, 
                            "v": 116, 
                            "dur": 92, 
                            "type": "note", 
                            "channel": 12
                        }
                    ]
                ], 
                [
                    313062, 
                    [
                        {
                            "pitch": 75, 
                            "t0": 313062, 
                            "v": 104, 
                            "dur": 80, 
                            "type": "note", 
                            "channel": 12
                        }
                    ]
                ], 
                [
                    313300, 
                    [
                        {
                            "pitch": 78, 
                            "t0": 313300, 
                            "v": 108, 
                            "dur": 120, 
                            "type": "note", 
                            "channel": 12
                        }, 
                        {
                            "pitch": 75, 
                            "t0": 313300, 
                            "v": 108, 
                            "dur": 150, 
                            "type": "note", 
                            "channel": 12
                        }
                    ]
                ], 
                [
                    313308, 
                    [
                        {
                            "pitch": 82, 
                            "t0": 313308, 
                            "v": 120, 
                            "dur": 134, 
                            "type": "note", 
                            "channel": 12
                        }
                    ]
                ], 
                [
                    313496, 
                    [
                        {
                            "pitch": 75, 
                            "t0": 313496, 
                            "v": 64, 
                            "dur": 158, 
                            "type": "note", 
                            "channel": 12
                        }
                    ]
                ], 
                [
                    313512, 
                    [
                        {
                            "pitch": 82, 
                            "t0": 313512, 
                            "v": 88, 
                            "dur": 158, 
                            "type": "note", 
                            "channel": 12
                        }
                    ]
                ], 
                [
                    313516, 
                    [
                        {
                            "pitch": 78, 
                            "t0": 313516, 
                            "v": 100, 
                            "dur": 146, 
                            "type": "note", 
                            "channel": 12
                        }
                    ]
                ], 
                [
                    314054, 
                    [
                        {
                            "pitch": 82, 
                            "t0": 314054, 
                            "v": 120, 
                            "dur": 142, 
                            "type": "note", 
                            "channel": 12
                        }, 
                        {
                            "pitch": 78, 
                            "t0": 314054, 
                            "v": 120, 
                            "dur": 146, 
                            "type": "note", 
                            "channel": 12
                        }
                    ]
                ], 
                [
                    314058, 
                    [
                        {
                            "pitch": 75, 
                            "t0": 314058, 
                            "v": 124, 
                            "dur": 108, 
                            "type": "note", 
                            "channel": 12
                        }
                    ]
                ], 
                [
                    316570, 
                    [
                        {
                            "pitch": 78, 
                            "t0": 316570, 
                            "v": 116, 
                            "dur": 142, 
                            "type": "note", 
                            "channel": 12
                        }
                    ]
                ], 
                [
                    316576, 
                    [
                        {
                            "pitch": 75, 
                            "t0": 316576, 
                            "v": 112, 
                            "dur": 120, 
                            "type": "note", 
                            "channel": 12
                        }
                    ]
                ], 
                [
                    316580, 
                    [
                        {
                            "pitch": 82, 
                            "t0": 316580, 
                            "v": 120, 
                            "dur": 158, 
                            "type": "note", 
                            "channel": 12
                        }
                    ]
                ], 
                [
                    318054, 
                    [
                        {
                            "pitch": 82, 
                            "t0": 318054, 
                            "v": 112, 
                            "dur": 238, 
                            "type": "note", 
                            "channel": 12
                        }
                    ]
                ], 
                [
                    318058, 
                    [
                        {
                            "pitch": 78, 
                            "t0": 318058, 
                            "v": 112, 
                            "dur": 242, 
                            "type": "note", 
                            "channel": 12
                        }
                    ]
                ], 
                [
                    318080, 
                    [
                        {
                            "pitch": 75, 
                            "t0": 318080, 
                            "v": 108, 
                            "dur": 174, 
                            "type": "note", 
                            "channel": 12
                        }
                    ]
                ], 
                [
                    319038, 
                    [
                        {
                            "pitch": 78, 
                            "t0": 319038, 
                            "v": 116, 
                            "dur": 178, 
                            "type": "note", 
                            "channel": 12
                        }, 
                        {
                            "pitch": 75, 
                            "t0": 319038, 
                            "v": 120, 
                            "dur": 178, 
                            "type": "note", 
                            "channel": 12
                        }
                    ]
                ], 
                [
                    319042, 
                    [
                        {
                            "pitch": 82, 
                            "t0": 319042, 
                            "v": 116, 
                            "dur": 170, 
                            "type": "note", 
                            "channel": 12
                        }
                    ]
                ], 
                [
                    321042, 
                    [
                        {
                            "pitch": 78, 
                            "t0": 321042, 
                            "v": 112, 
                            "dur": 92, 
                            "type": "note", 
                            "channel": 12
                        }, 
                        {
                            "pitch": 82, 
                            "t0": 321042, 
                            "v": 120, 
                            "dur": 100, 
                            "type": "note", 
                            "channel": 12
                        }
                    ]
                ], 
                [
                    321046, 
                    [
                        {
                            "pitch": 75, 
                            "t0": 321046, 
                            "v": 100, 
                            "dur": 104, 
                            "type": "note", 
                            "channel": 12
                        }
                    ]
                ], 
                [
                    321284, 
                    [
                        {
                            "pitch": 78, 
                            "t0": 321284, 
                            "v": 112, 
                            "dur": 132, 
                            "type": "note", 
                            "channel": 12
                        }
                    ]
                ], 
                [
                    321292, 
                    [
                        {
                            "pitch": 75, 
                            "t0": 321292, 
                            "v": 104, 
                            "dur": 128, 
                            "type": "note", 
                            "channel": 12
                        }, 
                        {
                            "pitch": 82, 
                            "t0": 321292, 
                            "v": 120, 
                            "dur": 138, 
                            "type": "note", 
                            "channel": 12
                        }
                    ]
                ], 
                [
                    321504, 
                    [
                        {
                            "pitch": 75, 
                            "t0": 321504, 
                            "v": 88, 
                            "dur": 138, 
                            "type": "note", 
                            "channel": 12
                        }
                    ]
                ], 
                [
                    321508, 
                    [
                        {
                            "pitch": 78, 
                            "t0": 321508, 
                            "v": 104, 
                            "dur": 154, 
                            "type": "note", 
                            "channel": 12
                        }
                    ]
                ], 
                [
                    321512, 
                    [
                        {
                            "pitch": 82, 
                            "t0": 321512, 
                            "v": 104, 
                            "dur": 150, 
                            "type": "note", 
                            "channel": 12
                        }
                    ]
                ], 
                [
                    322042, 
                    [
                        {
                            "pitch": 75, 
                            "t0": 322042, 
                            "v": 116, 
                            "dur": 138, 
                            "type": "note", 
                            "channel": 12
                        }
                    ]
                ], 
                [
                    322046, 
                    [
                        {
                            "pitch": 78, 
                            "t0": 322046, 
                            "v": 120, 
                            "dur": 154, 
                            "type": "note", 
                            "channel": 12
                        }, 
                        {
                            "pitch": 82, 
                            "t0": 322046, 
                            "v": 124, 
                            "dur": 180, 
                            "type": "note", 
                            "channel": 12
                        }
                    ]
                ], 
                [
                    324588, 
                    [
                        {
                            "pitch": 78, 
                            "t0": 324588, 
                            "v": 116, 
                            "dur": 170, 
                            "type": "note", 
                            "channel": 12
                        }
                    ]
                ], 
                [
                    324592, 
                    [
                        {
                            "pitch": 75, 
                            "t0": 324592, 
                            "v": 108, 
                            "dur": 134, 
                            "type": "note", 
                            "channel": 12
                        }, 
                        {
                            "pitch": 82, 
                            "t0": 324592, 
                            "v": 124, 
                            "dur": 208, 
                            "type": "note", 
                            "channel": 12
                        }
                    ]
                ], 
                [
                    326100, 
                    [
                        {
                            "pitch": 78, 
                            "t0": 326100, 
                            "v": 116, 
                            "dur": 150, 
                            "type": "note", 
                            "channel": 12
                        }, 
                        {
                            "pitch": 82, 
                            "t0": 326100, 
                            "v": 124, 
                            "dur": 176, 
                            "type": "note", 
                            "channel": 12
                        }
                    ]
                ], 
                [
                    326104, 
                    [
                        {
                            "pitch": 75, 
                            "t0": 326104, 
                            "v": 116, 
                            "dur": 158, 
                            "type": "note", 
                            "channel": 12
                        }
                    ]
                ], 
                [
                    327076, 
                    [
                        {
                            "pitch": 78, 
                            "t0": 327076, 
                            "v": 116, 
                            "dur": 170, 
                            "type": "note", 
                            "channel": 12
                        }, 
                        {
                            "pitch": 82, 
                            "t0": 327076, 
                            "v": 120, 
                            "dur": 208, 
                            "type": "note", 
                            "channel": 12
                        }
                    ]
                ], 
                [
                    327080, 
                    [
                        {
                            "pitch": 75, 
                            "t0": 327080, 
                            "v": 112, 
                            "dur": 150, 
                            "type": "note", 
                            "channel": 12
                        }
                    ]
                ], 
                [
                    329034, 
                    [
                        {
                            "pitch": 78, 
                            "t0": 329034, 
                            "v": 116, 
                            "dur": 86, 
                            "type": "note", 
                            "channel": 12
                        }, 
                        {
                            "pitch": 82, 
                            "t0": 329034, 
                            "v": 116, 
                            "dur": 104, 
                            "type": "note", 
                            "channel": 12
                        }
                    ]
                ], 
                [
                    329038, 
                    [
                        {
                            "pitch": 75, 
                            "t0": 329038, 
                            "v": 104, 
                            "dur": 96, 
                            "type": "note", 
                            "channel": 12
                        }
                    ]
                ], 
                [
                    329238, 
                    [
                        {
                            "pitch": 75, 
                            "t0": 329238, 
                            "v": 100, 
                            "dur": 354, 
                            "type": "note", 
                            "channel": 12
                        }
                    ]
                ], 
                [
                    329254, 
                    [
                        {
                            "pitch": 78, 
                            "t0": 329254, 
                            "v": 104, 
                            "dur": 154, 
                            "type": "note", 
                            "channel": 12
                        }
                    ]
                ], 
                [
                    329262, 
                    [
                        {
                            "pitch": 82, 
                            "t0": 329262, 
                            "v": 116, 
                            "dur": 158, 
                            "type": "note", 
                            "channel": 12
                        }
                    ]
                ], 
                [
                    329466, 
                    [
                        {
                            "pitch": 78, 
                            "t0": 329466, 
                            "v": 88, 
                            "dur": 172, 
                            "type": "note", 
                            "channel": 12
                        }
                    ]
                ], 
                [
                    329480, 
                    [
                        {
                            "pitch": 82, 
                            "t0": 329480, 
                            "v": 100, 
                            "dur": 166, 
                            "type": "note", 
                            "channel": 12
                        }
                    ]
                ], 
                [
                    330008, 
                    [
                        {
                            "pitch": 75, 
                            "t0": 330008, 
                            "v": 120, 
                            "dur": 142, 
                            "type": "note", 
                            "channel": 12
                        }, 
                        {
                            "pitch": 82, 
                            "t0": 330008, 
                            "v": 120, 
                            "dur": 158, 
                            "type": "note", 
                            "channel": 12
                        }
                    ]
                ], 
                [
                    330012, 
                    [
                        {
                            "pitch": 78, 
                            "t0": 330012, 
                            "v": 124, 
                            "dur": 168, 
                            "type": "note", 
                            "channel": 12
                        }
                    ]
                ], 
                [
                    332600, 
                    [
                        {
                            "pitch": 75, 
                            "t0": 332600, 
                            "v": 112, 
                            "dur": 120, 
                            "type": "note", 
                            "channel": 12
                        }, 
                        {
                            "pitch": 78, 
                            "t0": 332600, 
                            "v": 116, 
                            "dur": 150, 
                            "type": "note", 
                            "channel": 12
                        }, 
                        {
                            "pitch": 82, 
                            "t0": 332600, 
                            "v": 124, 
                            "dur": 176, 
                            "type": "note", 
                            "channel": 12
                        }
                    ]
                ], 
                [
                    334066, 
                    [
                        {
                            "pitch": 82, 
                            "t0": 334066, 
                            "v": 124, 
                            "dur": 176, 
                            "type": "note", 
                            "channel": 12
                        }
                    ]
                ], 
                [
                    334076, 
                    [
                        {
                            "pitch": 78, 
                            "t0": 334076, 
                            "v": 116, 
                            "dur": 140, 
                            "type": "note", 
                            "channel": 12
                        }
                    ]
                ], 
                [
                    334084, 
                    [
                        {
                            "pitch": 75, 
                            "t0": 334084, 
                            "v": 116, 
                            "dur": 142, 
                            "type": "note", 
                            "channel": 12
                        }
                    ]
                ], 
                [
                    335030, 
                    [
                        {
                            "pitch": 82, 
                            "t0": 335030, 
                            "v": 116, 
                            "dur": 296, 
                            "type": "note", 
                            "channel": 12
                        }
                    ]
                ], 
                [
                    335038, 
                    [
                        {
                            "pitch": 78, 
                            "t0": 335038, 
                            "v": 112, 
                            "dur": 242, 
                            "type": "note", 
                            "channel": 12
                        }
                    ]
                ], 
                [
                    335046, 
                    [
                        {
                            "pitch": 75, 
                            "t0": 335046, 
                            "v": 112, 
                            "dur": 212, 
                            "type": "note", 
                            "channel": 12
                        }
                    ]
                ], 
                [
                    337104, 
                    [
                        {
                            "pitch": 78, 
                            "t0": 337104, 
                            "v": 116, 
                            "dur": 88, 
                            "type": "note", 
                            "channel": 12
                        }, 
                        {
                            "pitch": 82, 
                            "t0": 337104, 
                            "v": 116, 
                            "dur": 96, 
                            "type": "note", 
                            "channel": 12
                        }
                    ]
                ], 
                [
                    337112, 
                    [
                        {
                            "pitch": 75, 
                            "t0": 337112, 
                            "v": 104, 
                            "dur": 84, 
                            "type": "note", 
                            "channel": 12
                        }
                    ]
                ], 
                [
                    337330, 
                    [
                        {
                            "pitch": 82, 
                            "t0": 337330, 
                            "v": 112, 
                            "dur": 154, 
                            "type": "note", 
                            "channel": 12
                        }
                    ]
                ], 
                [
                    337338, 
                    [
                        {
                            "pitch": 75, 
                            "t0": 337338, 
                            "v": 108, 
                            "dur": 116, 
                            "type": "note", 
                            "channel": 12
                        }
                    ]
                ], 
                [
                    337342, 
                    [
                        {
                            "pitch": 78, 
                            "t0": 337342, 
                            "v": 112, 
                            "dur": 100, 
                            "type": "note", 
                            "channel": 12
                        }
                    ]
                ], 
                [
                    337546, 
                    [
                        {
                            "pitch": 82, 
                            "t0": 337546, 
                            "v": 84, 
                            "dur": 188, 
                            "type": "note", 
                            "channel": 12
                        }
                    ]
                ], 
                [
                    337550, 
                    [
                        {
                            "pitch": 78, 
                            "t0": 337550, 
                            "v": 96, 
                            "dur": 158, 
                            "type": "note", 
                            "channel": 12
                        }
                    ]
                ], 
                [
                    337558, 
                    [
                        {
                            "pitch": 75, 
                            "t0": 337558, 
                            "v": 92, 
                            "dur": 108, 
                            "type": "note", 
                            "channel": 12
                        }
                    ]
                ], 
                [
                    338088, 
                    [
                        {
                            "pitch": 75, 
                            "t0": 338088, 
                            "v": 120, 
                            "dur": 124, 
                            "type": "note", 
                            "channel": 12
                        }, 
                        {
                            "pitch": 82, 
                            "t0": 338088, 
                            "v": 116, 
                            "dur": 166, 
                            "type": "note", 
                            "channel": 12
                        }
                    ]
                ], 
                [
                    338092, 
                    [
                        {
                            "pitch": 78, 
                            "t0": 338092, 
                            "v": 116, 
                            "dur": 142, 
                            "type": "note", 
                            "channel": 12
                        }
                    ]
                ], 
                [
                    340592, 
                    [
                        {
                            "pitch": 82, 
                            "t0": 340592, 
                            "v": 124, 
                            "dur": 178, 
                            "type": "note", 
                            "channel": 12
                        }
                    ]
                ], 
                [
                    340596, 
                    [
                        {
                            "pitch": 75, 
                            "t0": 340596, 
                            "v": 108, 
                            "dur": 130, 
                            "type": "note", 
                            "channel": 12
                        }, 
                        {
                            "pitch": 78, 
                            "t0": 340596, 
                            "v": 108, 
                            "dur": 150, 
                            "type": "note", 
                            "channel": 12
                        }
                    ]
                ], 
                [
                    342058, 
                    [
                        {
                            "pitch": 78, 
                            "t0": 342058, 
                            "v": 116, 
                            "dur": 192, 
                            "type": "note", 
                            "channel": 12
                        }, 
                        {
                            "pitch": 82, 
                            "t0": 342058, 
                            "v": 120, 
                            "dur": 196, 
                            "type": "note", 
                            "channel": 12
                        }
                    ]
                ], 
                [
                    342070, 
                    [
                        {
                            "pitch": 75, 
                            "t0": 342070, 
                            "v": 108, 
                            "dur": 164, 
                            "type": "note", 
                            "channel": 12
                        }
                    ]
                ], 
                [
                    343012, 
                    [
                        {
                            "pitch": 82, 
                            "t0": 343012, 
                            "v": 120, 
                            "dur": 204, 
                            "type": "note", 
                            "channel": 12
                        }
                    ]
                ], 
                [
                    343016, 
                    [
                        {
                            "pitch": 78, 
                            "t0": 343016, 
                            "v": 120, 
                            "dur": 176, 
                            "type": "note", 
                            "channel": 12
                        }
                    ]
                ], 
                [
                    343026, 
                    [
                        {
                            "pitch": 75, 
                            "t0": 343026, 
                            "v": 112, 
                            "dur": 124, 
                            "type": "note", 
                            "channel": 12
                        }
                    ]
                ], 
                [
                    344996, 
                    [
                        {
                            "pitch": 78, 
                            "t0": 344996, 
                            "v": 112, 
                            "dur": 84, 
                            "type": "note", 
                            "channel": 12
                        }, 
                        {
                            "pitch": 82, 
                            "t0": 344996, 
                            "v": 116, 
                            "dur": 96, 
                            "type": "note", 
                            "channel": 12
                        }
                    ]
                ], 
                [
                    345000, 
                    [
                        {
                            "pitch": 75, 
                            "t0": 345000, 
                            "v": 112, 
                            "dur": 96, 
                            "type": "note", 
                            "channel": 12
                        }
                    ]
                ], 
                [
                    345250, 
                    [
                        {
                            "pitch": 75, 
                            "t0": 345250, 
                            "v": 112, 
                            "dur": 134, 
                            "type": "note", 
                            "channel": 12
                        }
                    ]
                ], 
                [
                    345258, 
                    [
                        {
                            "pitch": 82, 
                            "t0": 345258, 
                            "v": 116, 
                            "dur": 126, 
                            "type": "note", 
                            "channel": 12
                        }
                    ]
                ], 
                [
                    345262, 
                    [
                        {
                            "pitch": 78, 
                            "t0": 345262, 
                            "v": 112, 
                            "dur": 96, 
                            "type": "note", 
                            "channel": 12
                        }
                    ]
                ], 
                [
                    345454, 
                    [
                        {
                            "pitch": 75, 
                            "t0": 345454, 
                            "v": 88, 
                            "dur": 150, 
                            "type": "note", 
                            "channel": 12
                        }
                    ]
                ], 
                [
                    345462, 
                    [
                        {
                            "pitch": 78, 
                            "t0": 345462, 
                            "v": 112, 
                            "dur": 154, 
                            "type": "note", 
                            "channel": 12
                        }
                    ]
                ], 
                [
                    345466, 
                    [
                        {
                            "pitch": 82, 
                            "t0": 345466, 
                            "v": 108, 
                            "dur": 172, 
                            "type": "note", 
                            "channel": 12
                        }
                    ]
                ], 
                [
                    346000, 
                    [
                        {
                            "pitch": 75, 
                            "t0": 346000, 
                            "v": 120, 
                            "dur": 108, 
                            "type": "note", 
                            "channel": 12
                        }, 
                        {
                            "pitch": 78, 
                            "t0": 346000, 
                            "v": 120, 
                            "dur": 134, 
                            "type": "note", 
                            "channel": 12
                        }, 
                        {
                            "pitch": 82, 
                            "t0": 346000, 
                            "v": 120, 
                            "dur": 138, 
                            "type": "note", 
                            "channel": 12
                        }
                    ]
                ], 
                [
                    348570, 
                    [
                        {
                            "pitch": 75, 
                            "t0": 348570, 
                            "v": 112, 
                            "dur": 130, 
                            "type": "note", 
                            "channel": 12
                        }
                    ]
                ], 
                [
                    348576, 
                    [
                        {
                            "pitch": 78, 
                            "t0": 348576, 
                            "v": 116, 
                            "dur": 128, 
                            "type": "note", 
                            "channel": 12
                        }, 
                        {
                            "pitch": 82, 
                            "t0": 348576, 
                            "v": 120, 
                            "dur": 140, 
                            "type": "note", 
                            "channel": 12
                        }
                    ]
                ], 
                [
                    349984, 
                    [
                        {
                            "pitch": 82, 
                            "t0": 349984, 
                            "v": 124, 
                            "dur": 150, 
                            "type": "note", 
                            "channel": 12
                        }
                    ]
                ], 
                [
                    349988, 
                    [
                        {
                            "pitch": 78, 
                            "t0": 349988, 
                            "v": 116, 
                            "dur": 132, 
                            "type": "note", 
                            "channel": 12
                        }
                    ]
                ], 
                [
                    349992, 
                    [
                        {
                            "pitch": 75, 
                            "t0": 349992, 
                            "v": 108, 
                            "dur": 120, 
                            "type": "note", 
                            "channel": 12
                        }
                    ]
                ], 
                [
                    351016, 
                    [
                        {
                            "pitch": 78, 
                            "t0": 351016, 
                            "v": 112, 
                            "dur": 160, 
                            "type": "note", 
                            "channel": 12
                        }
                    ]
                ], 
                [
                    351020, 
                    [
                        {
                            "pitch": 82, 
                            "t0": 351020, 
                            "v": 120, 
                            "dur": 200, 
                            "type": "note", 
                            "channel": 12
                        }
                    ]
                ], 
                [
                    351026, 
                    [
                        {
                            "pitch": 75, 
                            "t0": 351026, 
                            "v": 112, 
                            "dur": 116, 
                            "type": "note", 
                            "channel": 12
                        }
                    ]
                ], 
                [
                    353034, 
                    [
                        {
                            "pitch": 78, 
                            "t0": 353034, 
                            "v": 112, 
                            "dur": 86, 
                            "type": "note", 
                            "channel": 12
                        }, 
                        {
                            "pitch": 75, 
                            "t0": 353034, 
                            "v": 104, 
                            "dur": 104, 
                            "type": "note", 
                            "channel": 12
                        }
                    ]
                ], 
                [
                    353038, 
                    [
                        {
                            "pitch": 82, 
                            "t0": 353038, 
                            "v": 112, 
                            "dur": 96, 
                            "type": "note", 
                            "channel": 12
                        }
                    ]
                ], 
                [
                    353284, 
                    [
                        {
                            "pitch": 75, 
                            "t0": 353284, 
                            "v": 108, 
                            "dur": 132, 
                            "type": "note", 
                            "channel": 12
                        }
                    ]
                ], 
                [
                    353288, 
                    [
                        {
                            "pitch": 82, 
                            "t0": 353288, 
                            "v": 116, 
                            "dur": 154, 
                            "type": "note", 
                            "channel": 12
                        }
                    ]
                ], 
                [
                    353296, 
                    [
                        {
                            "pitch": 78, 
                            "t0": 353296, 
                            "v": 108, 
                            "dur": 104, 
                            "type": "note", 
                            "channel": 12
                        }
                    ]
                ], 
                [
                    353496, 
                    [
                        {
                            "pitch": 75, 
                            "t0": 353496, 
                            "v": 72, 
                            "dur": 104, 
                            "type": "note", 
                            "channel": 12
                        }, 
                        {
                            "pitch": 82, 
                            "t0": 353496, 
                            "v": 72, 
                            "dur": 162, 
                            "type": "note", 
                            "channel": 12
                        }
                    ]
                ], 
                [
                    353500, 
                    [
                        {
                            "pitch": 78, 
                            "t0": 353500, 
                            "v": 108, 
                            "dur": 138, 
                            "type": "note", 
                            "channel": 12
                        }
                    ]
                ], 
                [
                    354030, 
                    [
                        {
                            "pitch": 82, 
                            "t0": 354030, 
                            "v": 120, 
                            "dur": 170, 
                            "type": "note", 
                            "channel": 12
                        }
                    ]
                ], 
                [
                    354038, 
                    [
                        {
                            "pitch": 78, 
                            "t0": 354038, 
                            "v": 116, 
                            "dur": 128, 
                            "type": "note", 
                            "channel": 12
                        }
                    ]
                ], 
                [
                    354042, 
                    [
                        {
                            "pitch": 75, 
                            "t0": 354042, 
                            "v": 116, 
                            "dur": 108, 
                            "type": "note", 
                            "channel": 12
                        }
                    ]
                ], 
                [
                    356600, 
                    [
                        {
                            "pitch": 78, 
                            "t0": 356600, 
                            "v": 112, 
                            "dur": 154, 
                            "type": "note", 
                            "channel": 12
                        }, 
                        {
                            "pitch": 82, 
                            "t0": 356600, 
                            "v": 120, 
                            "dur": 196, 
                            "type": "note", 
                            "channel": 12
                        }
                    ]
                ], 
                [
                    356604, 
                    [
                        {
                            "pitch": 75, 
                            "t0": 356604, 
                            "v": 112, 
                            "dur": 122, 
                            "type": "note", 
                            "channel": 12
                        }
                    ]
                ], 
                [
                    358084, 
                    [
                        {
                            "pitch": 78, 
                            "t0": 358084, 
                            "v": 120, 
                            "dur": 150, 
                            "type": "note", 
                            "channel": 12
                        }
                    ]
                ], 
                [
                    358088, 
                    [
                        {
                            "pitch": 75, 
                            "t0": 358088, 
                            "v": 112, 
                            "dur": 120, 
                            "type": "note", 
                            "channel": 12
                        }
                    ]
                ], 
                [
                    358092, 
                    [
                        {
                            "pitch": 82, 
                            "t0": 358092, 
                            "v": 120, 
                            "dur": 196, 
                            "type": "note", 
                            "channel": 12
                        }
                    ]
                ], 
                [
                    359038, 
                    [
                        {
                            "pitch": 82, 
                            "t0": 359038, 
                            "v": 116, 
                            "dur": 200, 
                            "type": "note", 
                            "channel": 12
                        }
                    ]
                ], 
                [
                    359042, 
                    [
                        {
                            "pitch": 78, 
                            "t0": 359042, 
                            "v": 120, 
                            "dur": 154, 
                            "type": "note", 
                            "channel": 12
                        }
                    ]
                ], 
                [
                    359050, 
                    [
                        {
                            "pitch": 75, 
                            "t0": 359050, 
                            "v": 112, 
                            "dur": 108, 
                            "type": "note", 
                            "channel": 12
                        }
                    ]
                ], 
                [
                    361000, 
                    [
                        {
                            "pitch": 78, 
                            "t0": 361000, 
                            "v": 112, 
                            "dur": 88, 
                            "type": "note", 
                            "channel": 12
                        }, 
                        {
                            "pitch": 82, 
                            "t0": 361000, 
                            "v": 112, 
                            "dur": 100, 
                            "type": "note", 
                            "channel": 12
                        }, 
                        {
                            "pitch": 75, 
                            "t0": 361000, 
                            "v": 104, 
                            "dur": 104, 
                            "type": "note", 
                            "channel": 12
                        }
                    ]
                ], 
                [
                    361242, 
                    [
                        {
                            "pitch": 78, 
                            "t0": 361242, 
                            "v": 104, 
                            "dur": 124, 
                            "type": "note", 
                            "channel": 12
                        }
                    ]
                ], 
                [
                    361246, 
                    [
                        {
                            "pitch": 75, 
                            "t0": 361246, 
                            "v": 100, 
                            "dur": 146, 
                            "type": "note", 
                            "channel": 12
                        }
                    ]
                ], 
                [
                    361250, 
                    [
                        {
                            "pitch": 82, 
                            "t0": 361250, 
                            "v": 120, 
                            "dur": 142, 
                            "type": "note", 
                            "channel": 12
                        }
                    ]
                ], 
                [
                    361438, 
                    [
                        {
                            "pitch": 75, 
                            "t0": 361438, 
                            "v": 64, 
                            "dur": 150, 
                            "type": "note", 
                            "channel": 12
                        }
                    ]
                ], 
                [
                    361446, 
                    [
                        {
                            "pitch": 82, 
                            "t0": 361446, 
                            "v": 104, 
                            "dur": 170, 
                            "type": "note", 
                            "channel": 12
                        }
                    ]
                ], 
                [
                    361450, 
                    [
                        {
                            "pitch": 78, 
                            "t0": 361450, 
                            "v": 88, 
                            "dur": 154, 
                            "type": "note", 
                            "channel": 12
                        }
                    ]
                ], 
                [
                    361976, 
                    [
                        {
                            "pitch": 75, 
                            "t0": 361976, 
                            "v": 120, 
                            "dur": 116, 
                            "type": "note", 
                            "channel": 12
                        }, 
                        {
                            "pitch": 82, 
                            "t0": 361976, 
                            "v": 120, 
                            "dur": 178, 
                            "type": "note", 
                            "channel": 12
                        }
                    ]
                ], 
                [
                    361980, 
                    [
                        {
                            "pitch": 78, 
                            "t0": 361980, 
                            "v": 120, 
                            "dur": 132, 
                            "type": "note", 
                            "channel": 12
                        }
                    ]
                ], 
                [
                    364576, 
                    [
                        {
                            "pitch": 82, 
                            "t0": 364576, 
                            "v": 112, 
                            "dur": 186, 
                            "type": "note", 
                            "channel": 12
                        }
                    ]
                ], 
                [
                    364580, 
                    [
                        {
                            "pitch": 78, 
                            "t0": 364580, 
                            "v": 112, 
                            "dur": 170, 
                            "type": "note", 
                            "channel": 12
                        }
                    ]
                ], 
                [
                    364584, 
                    [
                        {
                            "pitch": 75, 
                            "t0": 364584, 
                            "v": 112, 
                            "dur": 128, 
                            "type": "note", 
                            "channel": 12
                        }
                    ]
                ], 
                [
                    366126, 
                    [
                        {
                            "pitch": 78, 
                            "t0": 366126, 
                            "v": 116, 
                            "dur": 232, 
                            "type": "note", 
                            "channel": 12
                        }
                    ]
                ], 
                [
                    366130, 
                    [
                        {
                            "pitch": 82, 
                            "t0": 366130, 
                            "v": 112, 
                            "dur": 250, 
                            "type": "note", 
                            "channel": 12
                        }
                    ]
                ], 
                [
                    366138, 
                    [
                        {
                            "pitch": 75, 
                            "t0": 366138, 
                            "v": 104, 
                            "dur": 150, 
                            "type": "note", 
                            "channel": 12
                        }
                    ]
                ], 
                [
                    367112, 
                    [
                        {
                            "pitch": 78, 
                            "t0": 367112, 
                            "v": 120, 
                            "dur": 192, 
                            "type": "note", 
                            "channel": 12
                        }
                    ]
                ], 
                [
                    367116, 
                    [
                        {
                            "pitch": 82, 
                            "t0": 367116, 
                            "v": 116, 
                            "dur": 192, 
                            "type": "note", 
                            "channel": 12
                        }
                    ]
                ], 
                [
                    367126, 
                    [
                        {
                            "pitch": 75, 
                            "t0": 367126, 
                            "v": 116, 
                            "dur": 124, 
                            "type": "note", 
                            "channel": 12
                        }
                    ]
                ], 
                [
                    369066, 
                    [
                        {
                            "pitch": 82, 
                            "t0": 369066, 
                            "v": 104, 
                            "dur": 126, 
                            "type": "note", 
                            "channel": 12
                        }
                    ]
                ], 
                [
                    369070, 
                    [
                        {
                            "pitch": 78, 
                            "t0": 369070, 
                            "v": 112, 
                            "dur": 106, 
                            "type": "note", 
                            "channel": 12
                        }
                    ]
                ], 
                [
                    369076, 
                    [
                        {
                            "pitch": 75, 
                            "t0": 369076, 
                            "v": 112, 
                            "dur": 112, 
                            "type": "note", 
                            "channel": 12
                        }
                    ]
                ], 
                [
                    369330, 
                    [
                        {
                            "pitch": 75, 
                            "t0": 369330, 
                            "v": 104, 
                            "dur": 170, 
                            "type": "note", 
                            "channel": 12
                        }
                    ]
                ], 
                [
                    369334, 
                    [
                        {
                            "pitch": 78, 
                            "t0": 369334, 
                            "v": 104, 
                            "dur": 132, 
                            "type": "note", 
                            "channel": 12
                        }
                    ]
                ], 
                [
                    369342, 
                    [
                        {
                            "pitch": 82, 
                            "t0": 369342, 
                            "v": 100, 
                            "dur": 138, 
                            "type": "note", 
                            "channel": 12
                        }
                    ]
                ], 
                [
                    369546, 
                    [
                        {
                            "pitch": 75, 
                            "t0": 369546, 
                            "v": 72, 
                            "dur": 154, 
                            "type": "note", 
                            "channel": 12
                        }
                    ]
                ], 
                [
                    369554, 
                    [
                        {
                            "pitch": 78, 
                            "t0": 369554, 
                            "v": 84, 
                            "dur": 172, 
                            "type": "note", 
                            "channel": 12
                        }
                    ]
                ], 
                [
                    369562, 
                    [
                        {
                            "pitch": 82, 
                            "t0": 369562, 
                            "v": 76, 
                            "dur": 168, 
                            "type": "note", 
                            "channel": 12
                        }
                    ]
                ], 
                [
                    370054, 
                    [
                        {
                            "pitch": 75, 
                            "t0": 370054, 
                            "v": 112, 
                            "dur": 172, 
                            "type": "note", 
                            "channel": 12
                        }, 
                        {
                            "pitch": 82, 
                            "t0": 370054, 
                            "v": 116, 
                            "dur": 226, 
                            "type": "note", 
                            "channel": 12
                        }
                    ]
                ], 
                [
                    370058, 
                    [
                        {
                            "pitch": 78, 
                            "t0": 370058, 
                            "v": 116, 
                            "dur": 200, 
                            "type": "note", 
                            "channel": 12
                        }
                    ]
                ], 
                [
                    372626, 
                    [
                        {
                            "pitch": 78, 
                            "t0": 372626, 
                            "v": 116, 
                            "dur": 158, 
                            "type": "note", 
                            "channel": 12
                        }, 
                        {
                            "pitch": 82, 
                            "t0": 372626, 
                            "v": 116, 
                            "dur": 182, 
                            "type": "note", 
                            "channel": 12
                        }
                    ]
                ], 
                [
                    372630, 
                    [
                        {
                            "pitch": 75, 
                            "t0": 372630, 
                            "v": 112, 
                            "dur": 124, 
                            "type": "note", 
                            "channel": 12
                        }
                    ]
                ], 
                [
                    374038, 
                    [
                        {
                            "pitch": 78, 
                            "t0": 374038, 
                            "v": 112, 
                            "dur": 208, 
                            "type": "note", 
                            "channel": 12
                        }
                    ]
                ], 
                [
                    374042, 
                    [
                        {
                            "pitch": 82, 
                            "t0": 374042, 
                            "v": 116, 
                            "dur": 196, 
                            "type": "note", 
                            "channel": 12
                        }
                    ]
                ], 
                [
                    374050, 
                    [
                        {
                            "pitch": 75, 
                            "t0": 374050, 
                            "v": 108, 
                            "dur": 150, 
                            "type": "note", 
                            "channel": 12
                        }
                    ]
                ], 
                [
                    375000, 
                    [
                        {
                            "pitch": 78, 
                            "t0": 375000, 
                            "v": 112, 
                            "dur": 180, 
                            "type": "note", 
                            "channel": 12
                        }, 
                        {
                            "pitch": 82, 
                            "t0": 375000, 
                            "v": 116, 
                            "dur": 216, 
                            "type": "note", 
                            "channel": 12
                        }
                    ]
                ], 
                [
                    375012, 
                    [
                        {
                            "pitch": 75, 
                            "t0": 375012, 
                            "v": 112, 
                            "dur": 130, 
                            "type": "note", 
                            "channel": 12
                        }
                    ]
                ], 
                [
                    377034, 
                    [
                        {
                            "pitch": 78, 
                            "t0": 377034, 
                            "v": 108, 
                            "dur": 86, 
                            "type": "note", 
                            "channel": 12
                        }, 
                        {
                            "pitch": 82, 
                            "t0": 377034, 
                            "v": 104, 
                            "dur": 92, 
                            "type": "note", 
                            "channel": 12
                        }
                    ]
                ], 
                [
                    377042, 
                    [
                        {
                            "pitch": 75, 
                            "t0": 377042, 
                            "v": 100, 
                            "dur": 92, 
                            "type": "note", 
                            "channel": 12
                        }
                    ]
                ], 
                [
                    377284, 
                    [
                        {
                            "pitch": 78, 
                            "t0": 377284, 
                            "v": 112, 
                            "dur": 116, 
                            "type": "note", 
                            "channel": 12
                        }
                    ]
                ], 
                [
                    377288, 
                    [
                        {
                            "pitch": 82, 
                            "t0": 377288, 
                            "v": 112, 
                            "dur": 128, 
                            "type": "note", 
                            "channel": 12
                        }
                    ]
                ], 
                [
                    377292, 
                    [
                        {
                            "pitch": 75, 
                            "t0": 377292, 
                            "v": 104, 
                            "dur": 120, 
                            "type": "note", 
                            "channel": 12
                        }
                    ]
                ], 
                [
                    377500, 
                    [
                        {
                            "pitch": 75, 
                            "t0": 377500, 
                            "v": 84, 
                            "dur": 134, 
                            "type": "note", 
                            "channel": 12
                        }, 
                        {
                            "pitch": 82, 
                            "t0": 377500, 
                            "v": 80, 
                            "dur": 158, 
                            "type": "note", 
                            "channel": 12
                        }
                    ]
                ], 
                [
                    377504, 
                    [
                        {
                            "pitch": 78, 
                            "t0": 377504, 
                            "v": 104, 
                            "dur": 138, 
                            "type": "note", 
                            "channel": 12
                        }
                    ]
                ], 
                [
                    378034, 
                    [
                        {
                            "pitch": 78, 
                            "t0": 378034, 
                            "v": 116, 
                            "dur": 124, 
                            "type": "note", 
                            "channel": 12
                        }
                    ]
                ], 
                [
                    378038, 
                    [
                        {
                            "pitch": 75, 
                            "t0": 378038, 
                            "v": 116, 
                            "dur": 96, 
                            "type": "note", 
                            "channel": 12
                        }, 
                        {
                            "pitch": 82, 
                            "t0": 378038, 
                            "v": 120, 
                            "dur": 166, 
                            "type": "note", 
                            "channel": 12
                        }
                    ]
                ], 
                [
                    380600, 
                    [
                        {
                            "pitch": 78, 
                            "t0": 380600, 
                            "v": 112, 
                            "dur": 162, 
                            "type": "note", 
                            "channel": 12
                        }, 
                        {
                            "pitch": 82, 
                            "t0": 380600, 
                            "v": 120, 
                            "dur": 226, 
                            "type": "note", 
                            "channel": 12
                        }
                    ]
                ], 
                [
                    380604, 
                    [
                        {
                            "pitch": 75, 
                            "t0": 380604, 
                            "v": 104, 
                            "dur": 138, 
                            "type": "note", 
                            "channel": 12
                        }
                    ]
                ], 
                [
                    382104, 
                    [
                        {
                            "pitch": 82, 
                            "t0": 382104, 
                            "v": 116, 
                            "dur": 246, 
                            "type": "note", 
                            "channel": 12
                        }
                    ]
                ], 
                [
                    382108, 
                    [
                        {
                            "pitch": 78, 
                            "t0": 382108, 
                            "v": 112, 
                            "dur": 196, 
                            "type": "note", 
                            "channel": 12
                        }
                    ]
                ], 
                [
                    382112, 
                    [
                        {
                            "pitch": 75, 
                            "t0": 382112, 
                            "v": 112, 
                            "dur": 138, 
                            "type": "note", 
                            "channel": 12
                        }
                    ]
                ], 
                [
                    383076, 
                    [
                        {
                            "pitch": 78, 
                            "t0": 383076, 
                            "v": 116, 
                            "dur": 216, 
                            "type": "note", 
                            "channel": 12
                        }
                    ]
                ], 
                [
                    383084, 
                    [
                        {
                            "pitch": 75, 
                            "t0": 383084, 
                            "v": 112, 
                            "dur": 142, 
                            "type": "note", 
                            "channel": 12
                        }, 
                        {
                            "pitch": 82, 
                            "t0": 383084, 
                            "v": 124, 
                            "dur": 186, 
                            "type": "note", 
                            "channel": 12
                        }
                    ]
                ], 
                [
                    383108, 
                    [
                        {
                            "pitch": 83, 
                            "t0": 383108, 
                            "v": 84, 
                            "dur": 80, 
                            "type": "note", 
                            "channel": 12
                        }
                    ]
                ], 
                [
                    385008, 
                    [
                        {
                            "pitch": 78, 
                            "t0": 385008, 
                            "v": 104, 
                            "dur": 80, 
                            "type": "note", 
                            "channel": 12
                        }
                    ]
                ], 
                [
                    385012, 
                    [
                        {
                            "pitch": 82, 
                            "t0": 385012, 
                            "v": 108, 
                            "dur": 80, 
                            "type": "note", 
                            "channel": 12
                        }, 
                        {
                            "pitch": 75, 
                            "t0": 385012, 
                            "v": 100, 
                            "dur": 92, 
                            "type": "note", 
                            "channel": 12
                        }
                    ]
                ], 
                [
                    385254, 
                    [
                        {
                            "pitch": 75, 
                            "t0": 385254, 
                            "v": 104, 
                            "dur": 134, 
                            "type": "note", 
                            "channel": 12
                        }
                    ]
                ], 
                [
                    385258, 
                    [
                        {
                            "pitch": 78, 
                            "t0": 385258, 
                            "v": 108, 
                            "dur": 108, 
                            "type": "note", 
                            "channel": 12
                        }
                    ]
                ], 
                [
                    385266, 
                    [
                        {
                            "pitch": 82, 
                            "t0": 385266, 
                            "v": 120, 
                            "dur": 110, 
                            "type": "note", 
                            "channel": 12
                        }
                    ]
                ], 
                [
                    385470, 
                    [
                        {
                            "pitch": 78, 
                            "t0": 385470, 
                            "v": 104, 
                            "dur": 160, 
                            "type": "note", 
                            "channel": 12
                        }
                    ]
                ], 
                [
                    385480, 
                    [
                        {
                            "pitch": 75, 
                            "t0": 385480, 
                            "v": 100, 
                            "dur": 132, 
                            "type": "note", 
                            "channel": 12
                        }
                    ]
                ], 
                [
                    385484, 
                    [
                        {
                            "pitch": 82, 
                            "t0": 385484, 
                            "v": 116, 
                            "dur": 162, 
                            "type": "note", 
                            "channel": 12
                        }
                    ]
                ], 
                [
                    386000, 
                    [
                        {
                            "pitch": 78, 
                            "t0": 386000, 
                            "v": 120, 
                            "dur": 150, 
                            "type": "note", 
                            "channel": 12
                        }
                    ]
                ], 
                [
                    386004, 
                    [
                        {
                            "pitch": 75, 
                            "t0": 386004, 
                            "v": 116, 
                            "dur": 104, 
                            "type": "note", 
                            "channel": 12
                        }, 
                        {
                            "pitch": 82, 
                            "t0": 386004, 
                            "v": 127, 
                            "dur": 150, 
                            "type": "note", 
                            "channel": 12
                        }
                    ]
                ], 
                [
                    388584, 
                    [
                        {
                            "pitch": 78, 
                            "t0": 388584, 
                            "v": 116, 
                            "dur": 158, 
                            "type": "note", 
                            "channel": 12
                        }, 
                        {
                            "pitch": 82, 
                            "t0": 388584, 
                            "v": 116, 
                            "dur": 192, 
                            "type": "note", 
                            "channel": 12
                        }
                    ]
                ], 
                [
                    388588, 
                    [
                        {
                            "pitch": 75, 
                            "t0": 388588, 
                            "v": 112, 
                            "dur": 120, 
                            "type": "note", 
                            "channel": 12
                        }
                    ]
                ], 
                [
                    390042, 
                    [
                        {
                            "pitch": 82, 
                            "t0": 390042, 
                            "v": 124, 
                            "dur": 196, 
                            "type": "note", 
                            "channel": 12
                        }
                    ]
                ], 
                [
                    390046, 
                    [
                        {
                            "pitch": 78, 
                            "t0": 390046, 
                            "v": 120, 
                            "dur": 154, 
                            "type": "note", 
                            "channel": 12
                        }
                    ]
                ], 
                [
                    390050, 
                    [
                        {
                            "pitch": 75, 
                            "t0": 390050, 
                            "v": 108, 
                            "dur": 134, 
                            "type": "note", 
                            "channel": 12
                        }
                    ]
                ], 
                [
                    391026, 
                    [
                        {
                            "pitch": 82, 
                            "t0": 391026, 
                            "v": 124, 
                            "dur": 224, 
                            "type": "note", 
                            "channel": 12
                        }
                    ]
                ], 
                [
                    391030, 
                    [
                        {
                            "pitch": 78, 
                            "t0": 391030, 
                            "v": 116, 
                            "dur": 186, 
                            "type": "note", 
                            "channel": 12
                        }
                    ]
                ], 
                [
                    391034, 
                    [
                        {
                            "pitch": 75, 
                            "t0": 391034, 
                            "v": 116, 
                            "dur": 150, 
                            "type": "note", 
                            "channel": 12
                        }
                    ]
                ], 
                [
                    393030, 
                    [
                        {
                            "pitch": 82, 
                            "t0": 393030, 
                            "v": 112, 
                            "dur": 78, 
                            "type": "note", 
                            "channel": 12
                        }
                    ]
                ], 
                [
                    393034, 
                    [
                        {
                            "pitch": 78, 
                            "t0": 393034, 
                            "v": 104, 
                            "dur": 58, 
                            "type": "note", 
                            "channel": 12
                        }, 
                        {
                            "pitch": 75, 
                            "t0": 393034, 
                            "v": 104, 
                            "dur": 78, 
                            "type": "note", 
                            "channel": 12
                        }
                    ]
                ], 
                [
                    393258, 
                    [
                        {
                            "pitch": 75, 
                            "t0": 393258, 
                            "v": 108, 
                            "dur": 126, 
                            "type": "note", 
                            "channel": 12
                        }
                    ]
                ], 
                [
                    393262, 
                    [
                        {
                            "pitch": 78, 
                            "t0": 393262, 
                            "v": 108, 
                            "dur": 108, 
                            "type": "note", 
                            "channel": 12
                        }
                    ]
                ], 
                [
                    393270, 
                    [
                        {
                            "pitch": 82, 
                            "t0": 393270, 
                            "v": 116, 
                            "dur": 110, 
                            "type": "note", 
                            "channel": 12
                        }
                    ]
                ], 
                [
                    393470, 
                    [
                        {
                            "pitch": 78, 
                            "t0": 393470, 
                            "v": 112, 
                            "dur": 146, 
                            "type": "note", 
                            "channel": 12
                        }
                    ]
                ], 
                [
                    393476, 
                    [
                        {
                            "pitch": 75, 
                            "t0": 393476, 
                            "v": 100, 
                            "dur": 116, 
                            "type": "note", 
                            "channel": 12
                        }
                    ]
                ], 
                [
                    393480, 
                    [
                        {
                            "pitch": 82, 
                            "t0": 393480, 
                            "v": 112, 
                            "dur": 150, 
                            "type": "note", 
                            "channel": 12
                        }
                    ]
                ], 
                [
                    393966, 
                    [
                        {
                            "pitch": 82, 
                            "t0": 393966, 
                            "v": 120, 
                            "dur": 176, 
                            "type": "note", 
                            "channel": 12
                        }
                    ]
                ], 
                [
                    393970, 
                    [
                        {
                            "pitch": 75, 
                            "t0": 393970, 
                            "v": 112, 
                            "dur": 122, 
                            "type": "note", 
                            "channel": 12
                        }, 
                        {
                            "pitch": 78, 
                            "t0": 393970, 
                            "v": 120, 
                            "dur": 156, 
                            "type": "note", 
                            "channel": 12
                        }
                    ]
                ], 
                [
                    396550, 
                    [
                        {
                            "pitch": 75, 
                            "t0": 396550, 
                            "v": 116, 
                            "dur": 120, 
                            "type": "note", 
                            "channel": 12
                        }, 
                        {
                            "pitch": 78, 
                            "t0": 396550, 
                            "v": 120, 
                            "dur": 150, 
                            "type": "note", 
                            "channel": 12
                        }
                    ]
                ], 
                [
                    396558, 
                    [
                        {
                            "pitch": 82, 
                            "t0": 396558, 
                            "v": 120, 
                            "dur": 146, 
                            "type": "note", 
                            "channel": 12
                        }
                    ]
                ], 
                [
                    398020, 
                    [
                        {
                            "pitch": 82, 
                            "t0": 398020, 
                            "v": 112, 
                            "dur": 192, 
                            "type": "note", 
                            "channel": 12
                        }
                    ]
                ], 
                [
                    398026, 
                    [
                        {
                            "pitch": 75, 
                            "t0": 398026, 
                            "v": 116, 
                            "dur": 136, 
                            "type": "note", 
                            "channel": 12
                        }
                    ]
                ], 
                [
                    398030, 
                    [
                        {
                            "pitch": 78, 
                            "t0": 398030, 
                            "v": 112, 
                            "dur": 158, 
                            "type": "note", 
                            "channel": 12
                        }
                    ]
                ], 
                [
                    399016, 
                    [
                        {
                            "pitch": 82, 
                            "t0": 399016, 
                            "v": 120, 
                            "dur": 234, 
                            "type": "note", 
                            "channel": 12
                        }
                    ]
                ], 
                [
                    399020, 
                    [
                        {
                            "pitch": 78, 
                            "t0": 399020, 
                            "v": 120, 
                            "dur": 188, 
                            "type": "note", 
                            "channel": 12
                        }
                    ]
                ], 
                [
                    399030, 
                    [
                        {
                            "pitch": 75, 
                            "t0": 399030, 
                            "v": 116, 
                            "dur": 128, 
                            "type": "note", 
                            "channel": 12
                        }
                    ]
                ], 
                [
                    401030, 
                    [
                        {
                            "pitch": 82, 
                            "t0": 401030, 
                            "v": 120, 
                            "dur": 108, 
                            "type": "note", 
                            "channel": 12
                        }
                    ]
                ], 
                [
                    401034, 
                    [
                        {
                            "pitch": 78, 
                            "t0": 401034, 
                            "v": 108, 
                            "dur": 82, 
                            "type": "note", 
                            "channel": 12
                        }, 
                        {
                            "pitch": 75, 
                            "t0": 401034, 
                            "v": 104, 
                            "dur": 86, 
                            "type": "note", 
                            "channel": 12
                        }
                    ]
                ], 
                [
                    401276, 
                    [
                        {
                            "pitch": 78, 
                            "t0": 401276, 
                            "v": 108, 
                            "dur": 108, 
                            "type": "note", 
                            "channel": 12
                        }, 
                        {
                            "pitch": 75, 
                            "t0": 401276, 
                            "v": 104, 
                            "dur": 128, 
                            "type": "note", 
                            "channel": 12
                        }
                    ]
                ], 
                [
                    401280, 
                    [
                        {
                            "pitch": 82, 
                            "t0": 401280, 
                            "v": 108, 
                            "dur": 124, 
                            "type": "note", 
                            "channel": 12
                        }
                    ]
                ], 
                [
                    401480, 
                    [
                        {
                            "pitch": 82, 
                            "t0": 401480, 
                            "v": 84, 
                            "dur": 162, 
                            "type": "note", 
                            "channel": 12
                        }
                    ]
                ], 
                [
                    401484, 
                    [
                        {
                            "pitch": 78, 
                            "t0": 401484, 
                            "v": 112, 
                            "dur": 136, 
                            "type": "note", 
                            "channel": 12
                        }
                    ]
                ], 
                [
                    401488, 
                    [
                        {
                            "pitch": 75, 
                            "t0": 401488, 
                            "v": 92, 
                            "dur": 112, 
                            "type": "note", 
                            "channel": 12
                        }
                    ]
                ], 
                [
                    402034, 
                    [
                        {
                            "pitch": 82, 
                            "t0": 402034, 
                            "v": 124, 
                            "dur": 150, 
                            "type": "note", 
                            "channel": 12
                        }
                    ]
                ], 
                [
                    402038, 
                    [
                        {
                            "pitch": 75, 
                            "t0": 402038, 
                            "v": 120, 
                            "dur": 104, 
                            "type": "note", 
                            "channel": 12
                        }, 
                        {
                            "pitch": 78, 
                            "t0": 402038, 
                            "v": 120, 
                            "dur": 124, 
                            "type": "note", 
                            "channel": 12
                        }
                    ]
                ], 
                [
                    404562, 
                    [
                        {
                            "pitch": 78, 
                            "t0": 404562, 
                            "v": 120, 
                            "dur": 154, 
                            "type": "note", 
                            "channel": 12
                        }
                    ]
                ], 
                [
                    404566, 
                    [
                        {
                            "pitch": 82, 
                            "t0": 404566, 
                            "v": 120, 
                            "dur": 180, 
                            "type": "note", 
                            "channel": 12
                        }
                    ]
                ], 
                [
                    404570, 
                    [
                        {
                            "pitch": 75, 
                            "t0": 404570, 
                            "v": 116, 
                            "dur": 122, 
                            "type": "note", 
                            "channel": 12
                        }
                    ]
                ], 
                [
                    406054, 
                    [
                        {
                            "pitch": 82, 
                            "t0": 406054, 
                            "v": 124, 
                            "dur": 166, 
                            "type": "note", 
                            "channel": 12
                        }
                    ]
                ], 
                [
                    406058, 
                    [
                        {
                            "pitch": 78, 
                            "t0": 406058, 
                            "v": 112, 
                            "dur": 154, 
                            "type": "note", 
                            "channel": 12
                        }
                    ]
                ], 
                [
                    406070, 
                    [
                        {
                            "pitch": 75, 
                            "t0": 406070, 
                            "v": 112, 
                            "dur": 122, 
                            "type": "note", 
                            "channel": 12
                        }
                    ]
                ], 
                [
                    407012, 
                    [
                        {
                            "pitch": 78, 
                            "t0": 407012, 
                            "v": 120, 
                            "dur": 188, 
                            "type": "note", 
                            "channel": 12
                        }, 
                        {
                            "pitch": 82, 
                            "t0": 407012, 
                            "v": 124, 
                            "dur": 200, 
                            "type": "note", 
                            "channel": 12
                        }
                    ]
                ], 
                [
                    407016, 
                    [
                        {
                            "pitch": 75, 
                            "t0": 407016, 
                            "v": 108, 
                            "dur": 234, 
                            "type": "note", 
                            "channel": 12
                        }
                    ]
                ], 
                [
                    409000, 
                    [
                        {
                            "pitch": 78, 
                            "t0": 409000, 
                            "v": 112, 
                            "dur": 88, 
                            "type": "note", 
                            "channel": 12
                        }
                    ]
                ], 
                [
                    409004, 
                    [
                        {
                            "pitch": 75, 
                            "t0": 409004, 
                            "v": 108, 
                            "dur": 88, 
                            "type": "note", 
                            "channel": 12
                        }
                    ]
                ], 
                [
                    409008, 
                    [
                        {
                            "pitch": 82, 
                            "t0": 409008, 
                            "v": 116, 
                            "dur": 76, 
                            "type": "note", 
                            "channel": 12
                        }
                    ]
                ], 
                [
                    409254, 
                    [
                        {
                            "pitch": 75, 
                            "t0": 409254, 
                            "v": 104, 
                            "dur": 122, 
                            "type": "note", 
                            "channel": 12
                        }
                    ]
                ], 
                [
                    409258, 
                    [
                        {
                            "pitch": 78, 
                            "t0": 409258, 
                            "v": 108, 
                            "dur": 96, 
                            "type": "note", 
                            "channel": 12
                        }, 
                        {
                            "pitch": 82, 
                            "t0": 409258, 
                            "v": 120, 
                            "dur": 112, 
                            "type": "note", 
                            "channel": 12
                        }
                    ]
                ], 
                [
                    409466, 
                    [
                        {
                            "pitch": 75, 
                            "t0": 409466, 
                            "v": 96, 
                            "dur": 126, 
                            "type": "note", 
                            "channel": 12
                        }, 
                        {
                            "pitch": 78, 
                            "t0": 409466, 
                            "v": 96, 
                            "dur": 134, 
                            "type": "note", 
                            "channel": 12
                        }
                    ]
                ], 
                [
                    409470, 
                    [
                        {
                            "pitch": 82, 
                            "t0": 409470, 
                            "v": 112, 
                            "dur": 150, 
                            "type": "note", 
                            "channel": 12
                        }
                    ]
                ], 
                [
                    410034, 
                    [
                        {
                            "pitch": 78, 
                            "t0": 410034, 
                            "v": 124, 
                            "dur": 132, 
                            "type": "note", 
                            "channel": 12
                        }
                    ]
                ], 
                [
                    410038, 
                    [
                        {
                            "pitch": 82, 
                            "t0": 410038, 
                            "v": 124, 
                            "dur": 124, 
                            "type": "note", 
                            "channel": 12
                        }
                    ]
                ], 
                [
                    410042, 
                    [
                        {
                            "pitch": 75, 
                            "t0": 410042, 
                            "v": 120, 
                            "dur": 88, 
                            "type": "note", 
                            "channel": 12
                        }
                    ]
                ], 
                [
                    412600, 
                    [
                        {
                            "pitch": 78, 
                            "t0": 412600, 
                            "v": 116, 
                            "dur": 130, 
                            "type": "note", 
                            "channel": 12
                        }
                    ]
                ], 
                [
                    412604, 
                    [
                        {
                            "pitch": 75, 
                            "t0": 412604, 
                            "v": 116, 
                            "dur": 108, 
                            "type": "note", 
                            "channel": 12
                        }, 
                        {
                            "pitch": 82, 
                            "t0": 412604, 
                            "v": 124, 
                            "dur": 146, 
                            "type": "note", 
                            "channel": 12
                        }
                    ]
                ], 
                [
                    414104, 
                    [
                        {
                            "pitch": 82, 
                            "t0": 414104, 
                            "v": 124, 
                            "dur": 166, 
                            "type": "note", 
                            "channel": 12
                        }
                    ]
                ], 
                [
                    414108, 
                    [
                        {
                            "pitch": 78, 
                            "t0": 414108, 
                            "v": 120, 
                            "dur": 134, 
                            "type": "note", 
                            "channel": 12
                        }
                    ]
                ], 
                [
                    414112, 
                    [
                        {
                            "pitch": 75, 
                            "t0": 414112, 
                            "v": 116, 
                            "dur": 118, 
                            "type": "note", 
                            "channel": 12
                        }
                    ]
                ], 
                [
                    415076, 
                    [
                        {
                            "pitch": 78, 
                            "t0": 415076, 
                            "v": 116, 
                            "dur": 136, 
                            "type": "note", 
                            "channel": 12
                        }
                    ]
                ], 
                [
                    415080, 
                    [
                        {
                            "pitch": 75, 
                            "t0": 415080, 
                            "v": 116, 
                            "dur": 108, 
                            "type": "note", 
                            "channel": 12
                        }, 
                        {
                            "pitch": 82, 
                            "t0": 415080, 
                            "v": 124, 
                            "dur": 132, 
                            "type": "note", 
                            "channel": 12
                        }
                    ]
                ], 
                [
                    417050, 
                    [
                        {
                            "pitch": 78, 
                            "t0": 417050, 
                            "v": 108, 
                            "dur": 92, 
                            "type": "note", 
                            "channel": 12
                        }, 
                        {
                            "pitch": 82, 
                            "t0": 417050, 
                            "v": 108, 
                            "dur": 92, 
                            "type": "note", 
                            "channel": 12
                        }
                    ]
                ], 
                [
                    417058, 
                    [
                        {
                            "pitch": 75, 
                            "t0": 417058, 
                            "v": 80, 
                            "dur": 88, 
                            "type": "note", 
                            "channel": 12
                        }
                    ]
                ], 
                [
                    417292, 
                    [
                        {
                            "pitch": 78, 
                            "t0": 417292, 
                            "v": 112, 
                            "dur": 112, 
                            "type": "note", 
                            "channel": 12
                        }
                    ]
                ], 
                [
                    417296, 
                    [
                        {
                            "pitch": 75, 
                            "t0": 417296, 
                            "v": 108, 
                            "dur": 120, 
                            "type": "note", 
                            "channel": 12
                        }
                    ]
                ], 
                [
                    417300, 
                    [
                        {
                            "pitch": 82, 
                            "t0": 417300, 
                            "v": 120, 
                            "dur": 120, 
                            "type": "note", 
                            "channel": 12
                        }
                    ]
                ], 
                [
                    417512, 
                    [
                        {
                            "pitch": 75, 
                            "t0": 417512, 
                            "v": 96, 
                            "dur": 138, 
                            "type": "note", 
                            "channel": 12
                        }
                    ]
                ], 
                [
                    417516, 
                    [
                        {
                            "pitch": 78, 
                            "t0": 417516, 
                            "v": 100, 
                            "dur": 130, 
                            "type": "note", 
                            "channel": 12
                        }
                    ]
                ], 
                [
                    417520, 
                    [
                        {
                            "pitch": 82, 
                            "t0": 417520, 
                            "v": 108, 
                            "dur": 146, 
                            "type": "note", 
                            "channel": 12
                        }
                    ]
                ], 
                [
                    418054, 
                    [
                        {
                            "pitch": 82, 
                            "t0": 418054, 
                            "v": 120, 
                            "dur": 146, 
                            "type": "note", 
                            "channel": 12
                        }
                    ]
                ], 
                [
                    418058, 
                    [
                        {
                            "pitch": 75, 
                            "t0": 418058, 
                            "v": 116, 
                            "dur": 112, 
                            "type": "note", 
                            "channel": 12
                        }, 
                        {
                            "pitch": 78, 
                            "t0": 418058, 
                            "v": 116, 
                            "dur": 138, 
                            "type": "note", 
                            "channel": 12
                        }
                    ]
                ], 
                [
                    418076, 
                    [
                        {
                            "pitch": 80, 
                            "t0": 418076, 
                            "v": 104, 
                            "dur": 50, 
                            "type": "note", 
                            "channel": 12
                        }
                    ]
                ], 
                [
                    420520, 
                    [
                        {
                            "pitch": 78, 
                            "t0": 420520, 
                            "v": 116, 
                            "dur": 164, 
                            "type": "note", 
                            "channel": 12
                        }
                    ]
                ], 
                [
                    420526, 
                    [
                        {
                            "pitch": 82, 
                            "t0": 420526, 
                            "v": 124, 
                            "dur": 174, 
                            "type": "note", 
                            "channel": 12
                        }
                    ]
                ], 
                [
                    420530, 
                    [
                        {
                            "pitch": 75, 
                            "t0": 420530, 
                            "v": 112, 
                            "dur": 124, 
                            "type": "note", 
                            "channel": 12
                        }
                    ]
                ], 
                [
                    422030, 
                    [
                        {
                            "pitch": 78, 
                            "t0": 422030, 
                            "v": 120, 
                            "dur": 146, 
                            "type": "note", 
                            "channel": 12
                        }
                    ]
                ], 
                [
                    422034, 
                    [
                        {
                            "pitch": 82, 
                            "t0": 422034, 
                            "v": 124, 
                            "dur": 170, 
                            "type": "note", 
                            "channel": 12
                        }
                    ]
                ], 
                [
                    422038, 
                    [
                        {
                            "pitch": 75, 
                            "t0": 422038, 
                            "v": 108, 
                            "dur": 132, 
                            "type": "note", 
                            "channel": 12
                        }
                    ]
                ], 
                [
                    422988, 
                    [
                        {
                            "pitch": 78, 
                            "t0": 422988, 
                            "v": 116, 
                            "dur": 170, 
                            "type": "note", 
                            "channel": 12
                        }
                    ]
                ], 
                [
                    422992, 
                    [
                        {
                            "pitch": 75, 
                            "t0": 422992, 
                            "v": 116, 
                            "dur": 170, 
                            "type": "note", 
                            "channel": 12
                        }, 
                        {
                            "pitch": 82, 
                            "t0": 422992, 
                            "v": 116, 
                            "dur": 196, 
                            "type": "note", 
                            "channel": 12
                        }
                    ]
                ], 
                [
                    425054, 
                    [
                        {
                            "pitch": 82, 
                            "t0": 425054, 
                            "v": 120, 
                            "dur": 96, 
                            "type": "note", 
                            "channel": 12
                        }
                    ]
                ], 
                [
                    425058, 
                    [
                        {
                            "pitch": 78, 
                            "t0": 425058, 
                            "v": 100, 
                            "dur": 76, 
                            "type": "note", 
                            "channel": 12
                        }
                    ]
                ], 
                [
                    425062, 
                    [
                        {
                            "pitch": 75, 
                            "t0": 425062, 
                            "v": 100, 
                            "dur": 88, 
                            "type": "note", 
                            "channel": 12
                        }
                    ]
                ], 
                [
                    425300, 
                    [
                        {
                            "pitch": 78, 
                            "t0": 425300, 
                            "v": 112, 
                            "dur": 112, 
                            "type": "note", 
                            "channel": 12
                        }, 
                        {
                            "pitch": 82, 
                            "t0": 425300, 
                            "v": 116, 
                            "dur": 126, 
                            "type": "note", 
                            "channel": 12
                        }, 
                        {
                            "pitch": 75, 
                            "t0": 425300, 
                            "v": 104, 
                            "dur": 134, 
                            "type": "note", 
                            "channel": 12
                        }
                    ]
                ], 
                [
                    425516, 
                    [
                        {
                            "pitch": 78, 
                            "t0": 425516, 
                            "v": 100, 
                            "dur": 150, 
                            "type": "note", 
                            "channel": 12
                        }
                    ]
                ], 
                [
                    425520, 
                    [
                        {
                            "pitch": 75, 
                            "t0": 425520, 
                            "v": 88, 
                            "dur": 122, 
                            "type": "note", 
                            "channel": 12
                        }
                    ]
                ], 
                [
                    425526, 
                    [
                        {
                            "pitch": 82, 
                            "t0": 425526, 
                            "v": 116, 
                            "dur": 154, 
                            "type": "note", 
                            "channel": 12
                        }
                    ]
                ], 
                [
                    426062, 
                    [
                        {
                            "pitch": 78, 
                            "t0": 426062, 
                            "v": 116, 
                            "dur": 154, 
                            "type": "note", 
                            "channel": 12
                        }
                    ]
                ], 
                [
                    426066, 
                    [
                        {
                            "pitch": 75, 
                            "t0": 426066, 
                            "v": 116, 
                            "dur": 126, 
                            "type": "note", 
                            "channel": 12
                        }, 
                        {
                            "pitch": 82, 
                            "t0": 426066, 
                            "v": 120, 
                            "dur": 146, 
                            "type": "note", 
                            "channel": 12
                        }
                    ]
                ], 
                [
                    428600, 
                    [
                        {
                            "pitch": 78, 
                            "t0": 428600, 
                            "v": 120, 
                            "dur": 146, 
                            "type": "note", 
                            "channel": 12
                        }
                    ]
                ], 
                [
                    428604, 
                    [
                        {
                            "pitch": 82, 
                            "t0": 428604, 
                            "v": 124, 
                            "dur": 166, 
                            "type": "note", 
                            "channel": 12
                        }
                    ]
                ], 
                [
                    428608, 
                    [
                        {
                            "pitch": 75, 
                            "t0": 428608, 
                            "v": 112, 
                            "dur": 126, 
                            "type": "note", 
                            "channel": 12
                        }
                    ]
                ], 
                [
                    430038, 
                    [
                        {
                            "pitch": 82, 
                            "t0": 430038, 
                            "v": 120, 
                            "dur": 196, 
                            "type": "note", 
                            "channel": 12
                        }
                    ]
                ], 
                [
                    430042, 
                    [
                        {
                            "pitch": 75, 
                            "t0": 430042, 
                            "v": 116, 
                            "dur": 158, 
                            "type": "note", 
                            "channel": 12
                        }
                    ]
                ], 
                [
                    430046, 
                    [
                        {
                            "pitch": 78, 
                            "t0": 430046, 
                            "v": 108, 
                            "dur": 138, 
                            "type": "note", 
                            "channel": 12
                        }
                    ]
                ], 
                [
                    431026, 
                    [
                        {
                            "pitch": 82, 
                            "t0": 431026, 
                            "v": 127, 
                            "dur": 212, 
                            "type": "note", 
                            "channel": 12
                        }
                    ]
                ], 
                [
                    431030, 
                    [
                        {
                            "pitch": 78, 
                            "t0": 431030, 
                            "v": 120, 
                            "dur": 174, 
                            "type": "note", 
                            "channel": 12
                        }
                    ]
                ], 
                [
                    431038, 
                    [
                        {
                            "pitch": 75, 
                            "t0": 431038, 
                            "v": 116, 
                            "dur": 150, 
                            "type": "note", 
                            "channel": 12
                        }
                    ]
                ], 
                [
                    433034, 
                    [
                        {
                            "pitch": 78, 
                            "t0": 433034, 
                            "v": 96, 
                            "dur": 66, 
                            "type": "note", 
                            "channel": 12
                        }, 
                        {
                            "pitch": 82, 
                            "t0": 433034, 
                            "v": 116, 
                            "dur": 78, 
                            "type": "note", 
                            "channel": 12
                        }
                    ]
                ], 
                [
                    433042, 
                    [
                        {
                            "pitch": 75, 
                            "t0": 433042, 
                            "v": 92, 
                            "dur": 74, 
                            "type": "note", 
                            "channel": 12
                        }
                    ]
                ], 
                [
                    433250, 
                    [
                        {
                            "pitch": 75, 
                            "t0": 433250, 
                            "v": 108, 
                            "dur": 142, 
                            "type": "note", 
                            "channel": 12
                        }
                    ]
                ], 
                [
                    433266, 
                    [
                        {
                            "pitch": 78, 
                            "t0": 433266, 
                            "v": 116, 
                            "dur": 110, 
                            "type": "note", 
                            "channel": 12
                        }, 
                        {
                            "pitch": 82, 
                            "t0": 433266, 
                            "v": 116, 
                            "dur": 126, 
                            "type": "note", 
                            "channel": 12
                        }
                    ]
                ], 
                [
                    433500, 
                    [
                        {
                            "pitch": 75, 
                            "t0": 433500, 
                            "v": 92, 
                            "dur": 138, 
                            "type": "note", 
                            "channel": 12
                        }
                    ]
                ], 
                [
                    433504, 
                    [
                        {
                            "pitch": 78, 
                            "t0": 433504, 
                            "v": 108, 
                            "dur": 142, 
                            "type": "note", 
                            "channel": 12
                        }
                    ]
                ], 
                [
                    433508, 
                    [
                        {
                            "pitch": 82, 
                            "t0": 433508, 
                            "v": 108, 
                            "dur": 154, 
                            "type": "note", 
                            "channel": 12
                        }
                    ]
                ], 
                [
                    434046, 
                    [
                        {
                            "pitch": 78, 
                            "t0": 434046, 
                            "v": 124, 
                            "dur": 138, 
                            "type": "note", 
                            "channel": 12
                        }
                    ]
                ], 
                [
                    434050, 
                    [
                        {
                            "pitch": 75, 
                            "t0": 434050, 
                            "v": 116, 
                            "dur": 104, 
                            "type": "note", 
                            "channel": 12
                        }, 
                        {
                            "pitch": 82, 
                            "t0": 434050, 
                            "v": 120, 
                            "dur": 134, 
                            "type": "note", 
                            "channel": 12
                        }
                    ]
                ], 
                [
                    436558, 
                    [
                        {
                            "pitch": 75, 
                            "t0": 436558, 
                            "v": 108, 
                            "dur": 130, 
                            "type": "note", 
                            "channel": 12
                        }, 
                        {
                            "pitch": 78, 
                            "t0": 436558, 
                            "v": 112, 
                            "dur": 138, 
                            "type": "note", 
                            "channel": 12
                        }, 
                        {
                            "pitch": 82, 
                            "t0": 436558, 
                            "v": 124, 
                            "dur": 168, 
                            "type": "note", 
                            "channel": 12
                        }
                    ]
                ], 
                [
                    438070, 
                    [
                        {
                            "pitch": 82, 
                            "t0": 438070, 
                            "v": 116, 
                            "dur": 164, 
                            "type": "note", 
                            "channel": 12
                        }
                    ]
                ], 
                [
                    438076, 
                    [
                        {
                            "pitch": 78, 
                            "t0": 438076, 
                            "v": 112, 
                            "dur": 132, 
                            "type": "note", 
                            "channel": 12
                        }, 
                        {
                            "pitch": 75, 
                            "t0": 438076, 
                            "v": 116, 
                            "dur": 154, 
                            "type": "note", 
                            "channel": 12
                        }
                    ]
                ], 
                [
                    439012, 
                    [
                        {
                            "pitch": 82, 
                            "t0": 439012, 
                            "v": 116, 
                            "dur": 158, 
                            "type": "note", 
                            "channel": 12
                        }, 
                        {
                            "pitch": 78, 
                            "t0": 439012, 
                            "v": 116, 
                            "dur": 172, 
                            "type": "note", 
                            "channel": 12
                        }
                    ]
                ], 
                [
                    439016, 
                    [
                        {
                            "pitch": 75, 
                            "t0": 439016, 
                            "v": 112, 
                            "dur": 130, 
                            "type": "note", 
                            "channel": 12
                        }
                    ]
                ], 
                [
                    440996, 
                    [
                        {
                            "pitch": 82, 
                            "t0": 440996, 
                            "v": 112, 
                            "dur": 104, 
                            "type": "note", 
                            "channel": 12
                        }
                    ]
                ], 
                [
                    441004, 
                    [
                        {
                            "pitch": 78, 
                            "t0": 441004, 
                            "v": 96, 
                            "dur": 72, 
                            "type": "note", 
                            "channel": 12
                        }
                    ]
                ], 
                [
                    441008, 
                    [
                        {
                            "pitch": 75, 
                            "t0": 441008, 
                            "v": 84, 
                            "dur": 80, 
                            "type": "note", 
                            "channel": 12
                        }
                    ]
                ], 
                [
                    441258, 
                    [
                        {
                            "pitch": 75, 
                            "t0": 441258, 
                            "v": 100, 
                            "dur": 108, 
                            "type": "note", 
                            "channel": 12
                        }, 
                        {
                            "pitch": 82, 
                            "t0": 441258, 
                            "v": 120, 
                            "dur": 134, 
                            "type": "note", 
                            "channel": 12
                        }
                    ]
                ], 
                [
                    441262, 
                    [
                        {
                            "pitch": 78, 
                            "t0": 441262, 
                            "v": 108, 
                            "dur": 96, 
                            "type": "note", 
                            "channel": 12
                        }
                    ]
                ], 
                [
                    441462, 
                    [
                        {
                            "pitch": 78, 
                            "t0": 441462, 
                            "v": 100, 
                            "dur": 138, 
                            "type": "note", 
                            "channel": 12
                        }, 
                        {
                            "pitch": 82, 
                            "t0": 441462, 
                            "v": 80, 
                            "dur": 154, 
                            "type": "note", 
                            "channel": 12
                        }
                    ]
                ], 
                [
                    441470, 
                    [
                        {
                            "pitch": 75, 
                            "t0": 441470, 
                            "v": 92, 
                            "dur": 122, 
                            "type": "note", 
                            "channel": 12
                        }
                    ]
                ], 
                [
                    441988, 
                    [
                        {
                            "pitch": 82, 
                            "t0": 441988, 
                            "v": 120, 
                            "dur": 170, 
                            "type": "note", 
                            "channel": 12
                        }
                    ]
                ], 
                [
                    441992, 
                    [
                        {
                            "pitch": 75, 
                            "t0": 441992, 
                            "v": 112, 
                            "dur": 124, 
                            "type": "note", 
                            "channel": 12
                        }, 
                        {
                            "pitch": 78, 
                            "t0": 441992, 
                            "v": 116, 
                            "dur": 124, 
                            "type": "note", 
                            "channel": 12
                        }
                    ]
                ], 
                [
                    444542, 
                    [
                        {
                            "pitch": 82, 
                            "t0": 444542, 
                            "v": 120, 
                            "dur": 196, 
                            "type": "note", 
                            "channel": 12
                        }
                    ]
                ], 
                [
                    444546, 
                    [
                        {
                            "pitch": 75, 
                            "t0": 444546, 
                            "v": 112, 
                            "dur": 124, 
                            "type": "note", 
                            "channel": 12
                        }, 
                        {
                            "pitch": 78, 
                            "t0": 444546, 
                            "v": 116, 
                            "dur": 154, 
                            "type": "note", 
                            "channel": 12
                        }
                    ]
                ], 
                [
                    446070, 
                    [
                        {
                            "pitch": 82, 
                            "t0": 446070, 
                            "v": 116, 
                            "dur": 210, 
                            "type": "note", 
                            "channel": 12
                        }
                    ]
                ], 
                [
                    446076, 
                    [
                        {
                            "pitch": 75, 
                            "t0": 446076, 
                            "v": 112, 
                            "dur": 174, 
                            "type": "note", 
                            "channel": 12
                        }
                    ]
                ], 
                [
                    446084, 
                    [
                        {
                            "pitch": 78, 
                            "t0": 446084, 
                            "v": 112, 
                            "dur": 146, 
                            "type": "note", 
                            "channel": 12
                        }
                    ]
                ], 
                [
                    447062, 
                    [
                        {
                            "pitch": 82, 
                            "t0": 447062, 
                            "v": 124, 
                            "dur": 204, 
                            "type": "note", 
                            "channel": 12
                        }
                    ]
                ], 
                [
                    447070, 
                    [
                        {
                            "pitch": 78, 
                            "t0": 447070, 
                            "v": 112, 
                            "dur": 156, 
                            "type": "note", 
                            "channel": 12
                        }
                    ]
                ], 
                [
                    447076, 
                    [
                        {
                            "pitch": 75, 
                            "t0": 447076, 
                            "v": 112, 
                            "dur": 132, 
                            "type": "note", 
                            "channel": 12
                        }
                    ]
                ], 
                [
                    449046, 
                    [
                        {
                            "pitch": 78, 
                            "t0": 449046, 
                            "v": 112, 
                            "dur": 88, 
                            "type": "note", 
                            "channel": 12
                        }, 
                        {
                            "pitch": 82, 
                            "t0": 449046, 
                            "v": 127, 
                            "dur": 100, 
                            "type": "note", 
                            "channel": 12
                        }
                    ]
                ], 
                [
                    449050, 
                    [
                        {
                            "pitch": 75, 
                            "t0": 449050, 
                            "v": 108, 
                            "dur": 100, 
                            "type": "note", 
                            "channel": 12
                        }
                    ]
                ], 
                [
                    449284, 
                    [
                        {
                            "pitch": 75, 
                            "t0": 449284, 
                            "v": 104, 
                            "dur": 128, 
                            "type": "note", 
                            "channel": 12
                        }
                    ]
                ], 
                [
                    449288, 
                    [
                        {
                            "pitch": 78, 
                            "t0": 449288, 
                            "v": 108, 
                            "dur": 112, 
                            "type": "note", 
                            "channel": 12
                        }, 
                        {
                            "pitch": 82, 
                            "t0": 449288, 
                            "v": 120, 
                            "dur": 138, 
                            "type": "note", 
                            "channel": 12
                        }
                    ]
                ], 
                [
                    449504, 
                    [
                        {
                            "pitch": 75, 
                            "t0": 449504, 
                            "v": 88, 
                            "dur": 142, 
                            "type": "note", 
                            "channel": 12
                        }, 
                        {
                            "pitch": 78, 
                            "t0": 449504, 
                            "v": 100, 
                            "dur": 154, 
                            "type": "note", 
                            "channel": 12
                        }
                    ]
                ], 
                [
                    449512, 
                    [
                        {
                            "pitch": 82, 
                            "t0": 449512, 
                            "v": 116, 
                            "dur": 164, 
                            "type": "note", 
                            "channel": 12
                        }
                    ]
                ], 
                [
                    450080, 
                    [
                        {
                            "pitch": 82, 
                            "t0": 450080, 
                            "v": 127, 
                            "dur": 128, 
                            "type": "note", 
                            "channel": 12
                        }
                    ]
                ], 
                [
                    450084, 
                    [
                        {
                            "pitch": 75, 
                            "t0": 450084, 
                            "v": 116, 
                            "dur": 96, 
                            "type": "note", 
                            "channel": 12
                        }, 
                        {
                            "pitch": 78, 
                            "t0": 450084, 
                            "v": 112, 
                            "dur": 116, 
                            "type": "note", 
                            "channel": 12
                        }
                    ]
                ], 
                [
                    452612, 
                    [
                        {
                            "pitch": 78, 
                            "t0": 452612, 
                            "v": 120, 
                            "dur": 146, 
                            "type": "note", 
                            "channel": 12
                        }
                    ]
                ], 
                [
                    452616, 
                    [
                        {
                            "pitch": 75, 
                            "t0": 452616, 
                            "v": 112, 
                            "dur": 138, 
                            "type": "note", 
                            "channel": 12
                        }
                    ]
                ], 
                [
                    452620, 
                    [
                        {
                            "pitch": 82, 
                            "t0": 452620, 
                            "v": 124, 
                            "dur": 172, 
                            "type": "note", 
                            "channel": 12
                        }
                    ]
                ], 
                [
                    454066, 
                    [
                        {
                            "pitch": 78, 
                            "t0": 454066, 
                            "v": 112, 
                            "dur": 184, 
                            "type": "note", 
                            "channel": 12
                        }
                    ]
                ], 
                [
                    454070, 
                    [
                        {
                            "pitch": 82, 
                            "t0": 454070, 
                            "v": 116, 
                            "dur": 226, 
                            "type": "note", 
                            "channel": 12
                        }
                    ]
                ], 
                [
                    454080, 
                    [
                        {
                            "pitch": 75, 
                            "t0": 454080, 
                            "v": 108, 
                            "dur": 132, 
                            "type": "note", 
                            "channel": 12
                        }
                    ]
                ], 
                [
                    455034, 
                    [
                        {
                            "pitch": 82, 
                            "t0": 455034, 
                            "v": 124, 
                            "dur": 228, 
                            "type": "note", 
                            "channel": 12
                        }
                    ]
                ], 
                [
                    455038, 
                    [
                        {
                            "pitch": 75, 
                            "t0": 455038, 
                            "v": 108, 
                            "dur": 142, 
                            "type": "note", 
                            "channel": 12
                        }, 
                        {
                            "pitch": 78, 
                            "t0": 455038, 
                            "v": 116, 
                            "dur": 182, 
                            "type": "note", 
                            "channel": 12
                        }
                    ]
                ], 
                [
                    457030, 
                    [
                        {
                            "pitch": 78, 
                            "t0": 457030, 
                            "v": 108, 
                            "dur": 86, 
                            "type": "note", 
                            "channel": 12
                        }, 
                        {
                            "pitch": 82, 
                            "t0": 457030, 
                            "v": 112, 
                            "dur": 96, 
                            "type": "note", 
                            "channel": 12
                        }
                    ]
                ], 
                [
                    457034, 
                    [
                        {
                            "pitch": 75, 
                            "t0": 457034, 
                            "v": 100, 
                            "dur": 92, 
                            "type": "note", 
                            "channel": 12
                        }
                    ]
                ], 
                [
                    457250, 
                    [
                        {
                            "pitch": 75, 
                            "t0": 457250, 
                            "v": 104, 
                            "dur": 142, 
                            "type": "note", 
                            "channel": 12
                        }
                    ]
                ], 
                [
                    457258, 
                    [
                        {
                            "pitch": 78, 
                            "t0": 457258, 
                            "v": 112, 
                            "dur": 130, 
                            "type": "note", 
                            "channel": 12
                        }
                    ]
                ], 
                [
                    457266, 
                    [
                        {
                            "pitch": 82, 
                            "t0": 457266, 
                            "v": 112, 
                            "dur": 134, 
                            "type": "note", 
                            "channel": 12
                        }
                    ]
                ], 
                [
                    457466, 
                    [
                        {
                            "pitch": 78, 
                            "t0": 457466, 
                            "v": 80, 
                            "dur": 160, 
                            "type": "note", 
                            "channel": 12
                        }
                    ]
                ], 
                [
                    457480, 
                    [
                        {
                            "pitch": 82, 
                            "t0": 457480, 
                            "v": 84, 
                            "dur": 162, 
                            "type": "note", 
                            "channel": 12
                        }
                    ]
                ], 
                [
                    457488, 
                    [
                        {
                            "pitch": 75, 
                            "t0": 457488, 
                            "v": 72, 
                            "dur": 92, 
                            "type": "note", 
                            "channel": 12
                        }
                    ]
                ], 
                [
                    458004, 
                    [
                        {
                            "pitch": 75, 
                            "t0": 458004, 
                            "v": 120, 
                            "dur": 122, 
                            "type": "note", 
                            "channel": 12
                        }
                    ]
                ], 
                [
                    458008, 
                    [
                        {
                            "pitch": 78, 
                            "t0": 458008, 
                            "v": 116, 
                            "dur": 142, 
                            "type": "note", 
                            "channel": 12
                        }, 
                        {
                            "pitch": 82, 
                            "t0": 458008, 
                            "v": 120, 
                            "dur": 162, 
                            "type": "note", 
                            "channel": 12
                        }
                    ]
                ], 
                [
                    460588, 
                    [
                        {
                            "pitch": 78, 
                            "t0": 460588, 
                            "v": 108, 
                            "dur": 138, 
                            "type": "note", 
                            "channel": 12
                        }
                    ]
                ], 
                [
                    460592, 
                    [
                        {
                            "pitch": 82, 
                            "t0": 460592, 
                            "v": 120, 
                            "dur": 184, 
                            "type": "note", 
                            "channel": 12
                        }
                    ]
                ], 
                [
                    460596, 
                    [
                        {
                            "pitch": 75, 
                            "t0": 460596, 
                            "v": 112, 
                            "dur": 120, 
                            "type": "note", 
                            "channel": 12
                        }
                    ]
                ], 
                [
                    462104, 
                    [
                        {
                            "pitch": 78, 
                            "t0": 462104, 
                            "v": 116, 
                            "dur": 146, 
                            "type": "note", 
                            "channel": 12
                        }
                    ]
                ], 
                [
                    462108, 
                    [
                        {
                            "pitch": 82, 
                            "t0": 462108, 
                            "v": 120, 
                            "dur": 162, 
                            "type": "note", 
                            "channel": 12
                        }
                    ]
                ], 
                [
                    462112, 
                    [
                        {
                            "pitch": 75, 
                            "t0": 462112, 
                            "v": 112, 
                            "dur": 118, 
                            "type": "note", 
                            "channel": 12
                        }
                    ]
                ], 
                [
                    463050, 
                    [
                        {
                            "pitch": 82, 
                            "t0": 463050, 
                            "v": 116, 
                            "dur": 158, 
                            "type": "note", 
                            "channel": 12
                        }, 
                        {
                            "pitch": 78, 
                            "t0": 463050, 
                            "v": 120, 
                            "dur": 166, 
                            "type": "note", 
                            "channel": 12
                        }
                    ]
                ], 
                [
                    463058, 
                    [
                        {
                            "pitch": 75, 
                            "t0": 463058, 
                            "v": 116, 
                            "dur": 134, 
                            "type": "note", 
                            "channel": 12
                        }
                    ]
                ], 
                [
                    465034, 
                    [
                        {
                            "pitch": 82, 
                            "t0": 465034, 
                            "v": 112, 
                            "dur": 104, 
                            "type": "note", 
                            "channel": 12
                        }
                    ]
                ], 
                [
                    465038, 
                    [
                        {
                            "pitch": 78, 
                            "t0": 465038, 
                            "v": 112, 
                            "dur": 92, 
                            "type": "note", 
                            "channel": 12
                        }
                    ]
                ], 
                [
                    465050, 
                    [
                        {
                            "pitch": 75, 
                            "t0": 465050, 
                            "v": 104, 
                            "dur": 84, 
                            "type": "note", 
                            "channel": 12
                        }
                    ]
                ], 
                [
                    465292, 
                    [
                        {
                            "pitch": 78, 
                            "t0": 465292, 
                            "v": 100, 
                            "dur": 108, 
                            "type": "note", 
                            "channel": 12
                        }
                    ]
                ], 
                [
                    465296, 
                    [
                        {
                            "pitch": 82, 
                            "t0": 465296, 
                            "v": 108, 
                            "dur": 108, 
                            "type": "note", 
                            "channel": 12
                        }
                    ]
                ], 
                [
                    465300, 
                    [
                        {
                            "pitch": 75, 
                            "t0": 465300, 
                            "v": 108, 
                            "dur": 100, 
                            "type": "note", 
                            "channel": 12
                        }
                    ]
                ], 
                [
                    465496, 
                    [
                        {
                            "pitch": 78, 
                            "t0": 465496, 
                            "v": 108, 
                            "dur": 146, 
                            "type": "note", 
                            "channel": 12
                        }
                    ]
                ], 
                [
                    465500, 
                    [
                        {
                            "pitch": 82, 
                            "t0": 465500, 
                            "v": 92, 
                            "dur": 158, 
                            "type": "note", 
                            "channel": 12
                        }
                    ]
                ], 
                [
                    465504, 
                    [
                        {
                            "pitch": 75, 
                            "t0": 465504, 
                            "v": 88, 
                            "dur": 112, 
                            "type": "note", 
                            "channel": 12
                        }
                    ]
                ], 
                [
                    466050, 
                    [
                        {
                            "pitch": 78, 
                            "t0": 466050, 
                            "v": 120, 
                            "dur": 130, 
                            "type": "note", 
                            "channel": 12
                        }
                    ]
                ], 
                [
                    466054, 
                    [
                        {
                            "pitch": 75, 
                            "t0": 466054, 
                            "v": 112, 
                            "dur": 104, 
                            "type": "note", 
                            "channel": 12
                        }, 
                        {
                            "pitch": 82, 
                            "t0": 466054, 
                            "v": 124, 
                            "dur": 134, 
                            "type": "note", 
                            "channel": 12
                        }
                    ]
                ], 
                [
                    468600, 
                    [
                        {
                            "pitch": 75, 
                            "t0": 468600, 
                            "v": 112, 
                            "dur": 150, 
                            "type": "note", 
                            "channel": 12
                        }, 
                        {
                            "pitch": 78, 
                            "t0": 468600, 
                            "v": 116, 
                            "dur": 158, 
                            "type": "note", 
                            "channel": 12
                        }
                    ]
                ], 
                [
                    468604, 
                    [
                        {
                            "pitch": 82, 
                            "t0": 468604, 
                            "v": 120, 
                            "dur": 150, 
                            "type": "note", 
                            "channel": 12
                        }
                    ]
                ], 
                [
                    470088, 
                    [
                        {
                            "pitch": 78, 
                            "t0": 470088, 
                            "v": 112, 
                            "dur": 146, 
                            "type": "note", 
                            "channel": 12
                        }
                    ]
                ], 
                [
                    470092, 
                    [
                        {
                            "pitch": 75, 
                            "t0": 470092, 
                            "v": 120, 
                            "dur": 120, 
                            "type": "note", 
                            "channel": 12
                        }
                    ]
                ], 
                [
                    470096, 
                    [
                        {
                            "pitch": 82, 
                            "t0": 470096, 
                            "v": 120, 
                            "dur": 162, 
                            "type": "note", 
                            "channel": 12
                        }
                    ]
                ], 
                [
                    471066, 
                    [
                        {
                            "pitch": 75, 
                            "t0": 471066, 
                            "v": 112, 
                            "dur": 122, 
                            "type": "note", 
                            "channel": 12
                        }, 
                        {
                            "pitch": 78, 
                            "t0": 471066, 
                            "v": 116, 
                            "dur": 134, 
                            "type": "note", 
                            "channel": 12
                        }, 
                        {
                            "pitch": 82, 
                            "t0": 471066, 
                            "v": 124, 
                            "dur": 150, 
                            "type": "note", 
                            "channel": 12
                        }
                    ]
                ], 
                [
                    473066, 
                    [
                        {
                            "pitch": 78, 
                            "t0": 473066, 
                            "v": 108, 
                            "dur": 84, 
                            "type": "note", 
                            "channel": 12
                        }, 
                        {
                            "pitch": 75, 
                            "t0": 473066, 
                            "v": 104, 
                            "dur": 104, 
                            "type": "note", 
                            "channel": 12
                        }
                    ]
                ], 
                [
                    473070, 
                    [
                        {
                            "pitch": 82, 
                            "t0": 473070, 
                            "v": 104, 
                            "dur": 80, 
                            "type": "note", 
                            "channel": 12
                        }
                    ]
                ], 
                [
                    473312, 
                    [
                        {
                            "pitch": 75, 
                            "t0": 473312, 
                            "v": 108, 
                            "dur": 134, 
                            "type": "note", 
                            "channel": 12
                        }
                    ]
                ], 
                [
                    473316, 
                    [
                        {
                            "pitch": 78, 
                            "t0": 473316, 
                            "v": 104, 
                            "dur": 104, 
                            "type": "note", 
                            "channel": 12
                        }
                    ]
                ], 
                [
                    473320, 
                    [
                        {
                            "pitch": 82, 
                            "t0": 473320, 
                            "v": 116, 
                            "dur": 126, 
                            "type": "note", 
                            "channel": 12
                        }
                    ]
                ], 
                [
                    473526, 
                    [
                        {
                            "pitch": 75, 
                            "t0": 473526, 
                            "v": 92, 
                            "dur": 132, 
                            "type": "note", 
                            "channel": 12
                        }
                    ]
                ], 
                [
                    473530, 
                    [
                        {
                            "pitch": 78, 
                            "t0": 473530, 
                            "v": 104, 
                            "dur": 140, 
                            "type": "note", 
                            "channel": 12
                        }
                    ]
                ], 
                [
                    473534, 
                    [
                        {
                            "pitch": 82, 
                            "t0": 473534, 
                            "v": 100, 
                            "dur": 150, 
                            "type": "note", 
                            "channel": 12
                        }
                    ]
                ], 
                [
                    474038, 
                    [
                        {
                            "pitch": 75, 
                            "t0": 474038, 
                            "v": 116, 
                            "dur": 96, 
                            "type": "note", 
                            "channel": 12
                        }, 
                        {
                            "pitch": 82, 
                            "t0": 474038, 
                            "v": 124, 
                            "dur": 128, 
                            "type": "note", 
                            "channel": 12
                        }
                    ]
                ], 
                [
                    474042, 
                    [
                        {
                            "pitch": 78, 
                            "t0": 474042, 
                            "v": 120, 
                            "dur": 116, 
                            "type": "note", 
                            "channel": 12
                        }
                    ]
                ], 
                [
                    476576, 
                    [
                        {
                            "pitch": 78, 
                            "t0": 476576, 
                            "v": 120, 
                            "dur": 150, 
                            "type": "note", 
                            "channel": 12
                        }
                    ]
                ], 
                [
                    476580, 
                    [
                        {
                            "pitch": 82, 
                            "t0": 476580, 
                            "v": 124, 
                            "dur": 158, 
                            "type": "note", 
                            "channel": 12
                        }
                    ]
                ], 
                [
                    476584, 
                    [
                        {
                            "pitch": 75, 
                            "t0": 476584, 
                            "v": 116, 
                            "dur": 104, 
                            "type": "note", 
                            "channel": 12
                        }
                    ]
                ], 
                [
                    478038, 
                    [
                        {
                            "pitch": 82, 
                            "t0": 478038, 
                            "v": 120, 
                            "dur": 138, 
                            "type": "note", 
                            "channel": 12
                        }, 
                        {
                            "pitch": 78, 
                            "t0": 478038, 
                            "v": 116, 
                            "dur": 142, 
                            "type": "note", 
                            "channel": 12
                        }
                    ]
                ], 
                [
                    478054, 
                    [
                        {
                            "pitch": 75, 
                            "t0": 478054, 
                            "v": 112, 
                            "dur": 100, 
                            "type": "note", 
                            "channel": 12
                        }
                    ]
                ], 
                [
                    478976, 
                    [
                        {
                            "pitch": 82, 
                            "t0": 478976, 
                            "v": 124, 
                            "dur": 154, 
                            "type": "note", 
                            "channel": 12
                        }
                    ]
                ], 
                [
                    478980, 
                    [
                        {
                            "pitch": 78, 
                            "t0": 478980, 
                            "v": 112, 
                            "dur": 136, 
                            "type": "note", 
                            "channel": 12
                        }
                    ]
                ], 
                [
                    478984, 
                    [
                        {
                            "pitch": 75, 
                            "t0": 478984, 
                            "v": 116, 
                            "dur": 124, 
                            "type": "note", 
                            "channel": 12
                        }
                    ]
                ], 
                [
                    481096, 
                    [
                        {
                            "pitch": 82, 
                            "t0": 481096, 
                            "v": 124, 
                            "dur": 100, 
                            "type": "note", 
                            "channel": 12
                        }
                    ]
                ], 
                [
                    481104, 
                    [
                        {
                            "pitch": 78, 
                            "t0": 481104, 
                            "v": 104, 
                            "dur": 62, 
                            "type": "note", 
                            "channel": 12
                        }
                    ]
                ], 
                [
                    481112, 
                    [
                        {
                            "pitch": 75, 
                            "t0": 481112, 
                            "v": 112, 
                            "dur": 76, 
                            "type": "note", 
                            "channel": 12
                        }
                    ]
                ], 
                [
                    481334, 
                    [
                        {
                            "pitch": 75, 
                            "t0": 481334, 
                            "v": 112, 
                            "dur": 142, 
                            "type": "note", 
                            "channel": 12
                        }
                    ]
                ], 
                [
                    481342, 
                    [
                        {
                            "pitch": 78, 
                            "t0": 481342, 
                            "v": 112, 
                            "dur": 108, 
                            "type": "note", 
                            "channel": 12
                        }, 
                        {
                            "pitch": 82, 
                            "t0": 481342, 
                            "v": 124, 
                            "dur": 134, 
                            "type": "note", 
                            "channel": 12
                        }
                    ]
                ], 
                [
                    481558, 
                    [
                        {
                            "pitch": 75, 
                            "t0": 481558, 
                            "v": 100, 
                            "dur": 142, 
                            "type": "note", 
                            "channel": 12
                        }
                    ]
                ], 
                [
                    481562, 
                    [
                        {
                            "pitch": 78, 
                            "t0": 481562, 
                            "v": 100, 
                            "dur": 146, 
                            "type": "note", 
                            "channel": 12
                        }
                    ]
                ], 
                [
                    481570, 
                    [
                        {
                            "pitch": 82, 
                            "t0": 481570, 
                            "v": 112, 
                            "dur": 142, 
                            "type": "note", 
                            "channel": 12
                        }
                    ]
                ], 
                [
                    482092, 
                    [
                        {
                            "pitch": 75, 
                            "t0": 482092, 
                            "v": 120, 
                            "dur": 100, 
                            "type": "note", 
                            "channel": 12
                        }, 
                        {
                            "pitch": 82, 
                            "t0": 482092, 
                            "v": 120, 
                            "dur": 120, 
                            "type": "note", 
                            "channel": 12
                        }
                    ]
                ], 
                [
                    482096, 
                    [
                        {
                            "pitch": 78, 
                            "t0": 482096, 
                            "v": 120, 
                            "dur": 112, 
                            "type": "note", 
                            "channel": 12
                        }
                    ]
                ], 
                [
                    484612, 
                    [
                        {
                            "pitch": 82, 
                            "t0": 484612, 
                            "v": 120, 
                            "dur": 138, 
                            "type": "note", 
                            "channel": 12
                        }
                    ]
                ], 
                [
                    484616, 
                    [
                        {
                            "pitch": 78, 
                            "t0": 484616, 
                            "v": 116, 
                            "dur": 114, 
                            "type": "note", 
                            "channel": 12
                        }
                    ]
                ], 
                [
                    484626, 
                    [
                        {
                            "pitch": 75, 
                            "t0": 484626, 
                            "v": 108, 
                            "dur": 86, 
                            "type": "note", 
                            "channel": 12
                        }
                    ]
                ], 
                [
                    486054, 
                    [
                        {
                            "pitch": 82, 
                            "t0": 486054, 
                            "v": 127, 
                            "dur": 146, 
                            "type": "note", 
                            "channel": 12
                        }
                    ]
                ], 
                [
                    486062, 
                    [
                        {
                            "pitch": 78, 
                            "t0": 486062, 
                            "v": 116, 
                            "dur": 114, 
                            "type": "note", 
                            "channel": 12
                        }
                    ]
                ], 
                [
                    486066, 
                    [
                        {
                            "pitch": 75, 
                            "t0": 486066, 
                            "v": 112, 
                            "dur": 96, 
                            "type": "note", 
                            "channel": 12
                        }
                    ]
                ], 
                [
                    487016, 
                    [
                        {
                            "pitch": 82, 
                            "t0": 487016, 
                            "v": 120, 
                            "dur": 146, 
                            "type": "note", 
                            "channel": 12
                        }
                    ]
                ], 
                [
                    487020, 
                    [
                        {
                            "pitch": 75, 
                            "t0": 487020, 
                            "v": 116, 
                            "dur": 114, 
                            "type": "note", 
                            "channel": 12
                        }, 
                        {
                            "pitch": 78, 
                            "t0": 487020, 
                            "v": 116, 
                            "dur": 130, 
                            "type": "note", 
                            "channel": 12
                        }
                    ]
                ], 
                [
                    489000, 
                    [
                        {
                            "pitch": 75, 
                            "t0": 489000, 
                            "v": 116, 
                            "dur": 104, 
                            "type": "note", 
                            "channel": 12
                        }
                    ]
                ], 
                [
                    489004, 
                    [
                        {
                            "pitch": 78, 
                            "t0": 489004, 
                            "v": 112, 
                            "dur": 88, 
                            "type": "note", 
                            "channel": 12
                        }, 
                        {
                            "pitch": 82, 
                            "t0": 489004, 
                            "v": 116, 
                            "dur": 112, 
                            "type": "note", 
                            "channel": 12
                        }
                    ]
                ], 
                [
                    489250, 
                    [
                        {
                            "pitch": 78, 
                            "t0": 489250, 
                            "v": 108, 
                            "dur": 100, 
                            "type": "note", 
                            "channel": 12
                        }, 
                        {
                            "pitch": 75, 
                            "t0": 489250, 
                            "v": 100, 
                            "dur": 126, 
                            "type": "note", 
                            "channel": 12
                        }
                    ]
                ], 
                [
                    489254, 
                    [
                        {
                            "pitch": 82, 
                            "t0": 489254, 
                            "v": 108, 
                            "dur": 122, 
                            "type": "note", 
                            "channel": 12
                        }
                    ]
                ], 
                [
                    489454, 
                    [
                        {
                            "pitch": 75, 
                            "t0": 489454, 
                            "v": 92, 
                            "dur": 126, 
                            "type": "note", 
                            "channel": 12
                        }, 
                        {
                            "pitch": 78, 
                            "t0": 489454, 
                            "v": 108, 
                            "dur": 134, 
                            "type": "note", 
                            "channel": 12
                        }, 
                        {
                            "pitch": 82, 
                            "t0": 489454, 
                            "v": 92, 
                            "dur": 162, 
                            "type": "note", 
                            "channel": 12
                        }
                    ]
                ], 
                [
                    490000, 
                    [
                        {
                            "pitch": 82, 
                            "t0": 490000, 
                            "v": 116, 
                            "dur": 150, 
                            "type": "note", 
                            "channel": 12
                        }
                    ]
                ], 
                [
                    490004, 
                    [
                        {
                            "pitch": 75, 
                            "t0": 490004, 
                            "v": 116, 
                            "dur": 100, 
                            "type": "note", 
                            "channel": 12
                        }, 
                        {
                            "pitch": 78, 
                            "t0": 490004, 
                            "v": 116, 
                            "dur": 130, 
                            "type": "note", 
                            "channel": 12
                        }
                    ]
                ], 
                [
                    492570, 
                    [
                        {
                            "pitch": 78, 
                            "t0": 492570, 
                            "v": 112, 
                            "dur": 134, 
                            "type": "note", 
                            "channel": 12
                        }
                    ]
                ], 
                [
                    492576, 
                    [
                        {
                            "pitch": 75, 
                            "t0": 492576, 
                            "v": 112, 
                            "dur": 108, 
                            "type": "note", 
                            "channel": 12
                        }, 
                        {
                            "pitch": 82, 
                            "t0": 492576, 
                            "v": 120, 
                            "dur": 132, 
                            "type": "note", 
                            "channel": 12
                        }
                    ]
                ], 
                [
                    494092, 
                    [
                        {
                            "pitch": 75, 
                            "t0": 494092, 
                            "v": 112, 
                            "dur": 120, 
                            "type": "note", 
                            "channel": 12
                        }, 
                        {
                            "pitch": 82, 
                            "t0": 494092, 
                            "v": 120, 
                            "dur": 146, 
                            "type": "note", 
                            "channel": 12
                        }
                    ]
                ], 
                [
                    494096, 
                    [
                        {
                            "pitch": 78, 
                            "t0": 494096, 
                            "v": 112, 
                            "dur": 134, 
                            "type": "note", 
                            "channel": 12
                        }
                    ]
                ], 
                [
                    495080, 
                    [
                        {
                            "pitch": 82, 
                            "t0": 495080, 
                            "v": 120, 
                            "dur": 154, 
                            "type": "note", 
                            "channel": 12
                        }
                    ]
                ], 
                [
                    495088, 
                    [
                        {
                            "pitch": 78, 
                            "t0": 495088, 
                            "v": 116, 
                            "dur": 116, 
                            "type": "note", 
                            "channel": 12
                        }
                    ]
                ], 
                [
                    495092, 
                    [
                        {
                            "pitch": 75, 
                            "t0": 495092, 
                            "v": 116, 
                            "dur": 96, 
                            "type": "note", 
                            "channel": 12
                        }
                    ]
                ], 
                [
                    497058, 
                    [
                        {
                            "pitch": 82, 
                            "t0": 497058, 
                            "v": 112, 
                            "dur": 130, 
                            "type": "note", 
                            "channel": 12
                        }
                    ]
                ], 
                [
                    497070, 
                    [
                        {
                            "pitch": 75, 
                            "t0": 497070, 
                            "v": 112, 
                            "dur": 110, 
                            "type": "note", 
                            "channel": 12
                        }
                    ]
                ], 
                [
                    497076, 
                    [
                        {
                            "pitch": 78, 
                            "t0": 497076, 
                            "v": 104, 
                            "dur": 86, 
                            "type": "note", 
                            "channel": 12
                        }
                    ]
                ], 
                [
                    497330, 
                    [
                        {
                            "pitch": 82, 
                            "t0": 497330, 
                            "v": 100, 
                            "dur": 132, 
                            "type": "note", 
                            "channel": 12
                        }
                    ]
                ], 
                [
                    497334, 
                    [
                        {
                            "pitch": 75, 
                            "t0": 497334, 
                            "v": 104, 
                            "dur": 132, 
                            "type": "note", 
                            "channel": 12
                        }
                    ]
                ], 
                [
                    497346, 
                    [
                        {
                            "pitch": 78, 
                            "t0": 497346, 
                            "v": 100, 
                            "dur": 92, 
                            "type": "note", 
                            "channel": 12
                        }
                    ]
                ], 
                [
                    497526, 
                    [
                        {
                            "pitch": 75, 
                            "t0": 497526, 
                            "v": 80, 
                            "dur": 128, 
                            "type": "note", 
                            "channel": 12
                        }
                    ]
                ], 
                [
                    497530, 
                    [
                        {
                            "pitch": 82, 
                            "t0": 497530, 
                            "v": 88, 
                            "dur": 146, 
                            "type": "note", 
                            "channel": 12
                        }
                    ]
                ], 
                [
                    497534, 
                    [
                        {
                            "pitch": 78, 
                            "t0": 497534, 
                            "v": 104, 
                            "dur": 136, 
                            "type": "note", 
                            "channel": 12
                        }
                    ]
                ], 
                [
                    498066, 
                    [
                        {
                            "pitch": 75, 
                            "t0": 498066, 
                            "v": 116, 
                            "dur": 110, 
                            "type": "note", 
                            "channel": 12
                        }, 
                        {
                            "pitch": 78, 
                            "t0": 498066, 
                            "v": 124, 
                            "dur": 118, 
                            "type": "note", 
                            "channel": 12
                        }
                    ]
                ], 
                [
                    498070, 
                    [
                        {
                            "pitch": 82, 
                            "t0": 498070, 
                            "v": 112, 
                            "dur": 130, 
                            "type": "note", 
                            "channel": 12
                        }
                    ]
                ], 
                [
                    498096, 
                    [
                        {
                            "pitch": 79, 
                            "t0": 498096, 
                            "v": 104, 
                            "dur": 74, 
                            "type": "note", 
                            "channel": 12
                        }
                    ]
                ], 
                [
                    498100, 
                    [
                        {
                            "pitch": 83, 
                            "t0": 498100, 
                            "v": 80, 
                            "dur": 76, 
                            "type": "note", 
                            "channel": 12
                        }
                    ]
                ], 
                [
                    500562, 
                    [
                        {
                            "pitch": 78, 
                            "t0": 500562, 
                            "v": 116, 
                            "dur": 126, 
                            "type": "note", 
                            "channel": 12
                        }
                    ]
                ], 
                [
                    500566, 
                    [
                        {
                            "pitch": 75, 
                            "t0": 500566, 
                            "v": 116, 
                            "dur": 114, 
                            "type": "note", 
                            "channel": 12
                        }
                    ]
                ], 
                [
                    500570, 
                    [
                        {
                            "pitch": 82, 
                            "t0": 500570, 
                            "v": 120, 
                            "dur": 122, 
                            "type": "note", 
                            "channel": 12
                        }
                    ]
                ], 
                [
                    502062, 
                    [
                        {
                            "pitch": 82, 
                            "t0": 502062, 
                            "v": 120, 
                            "dur": 154, 
                            "type": "note", 
                            "channel": 12
                        }
                    ]
                ], 
                [
                    502066, 
                    [
                        {
                            "pitch": 78, 
                            "t0": 502066, 
                            "v": 112, 
                            "dur": 142, 
                            "type": "note", 
                            "channel": 12
                        }
                    ]
                ], 
                [
                    502070, 
                    [
                        {
                            "pitch": 75, 
                            "t0": 502070, 
                            "v": 108, 
                            "dur": 142, 
                            "type": "note", 
                            "channel": 12
                        }
                    ]
                ], 
                [
                    502958, 
                    [
                        {
                            "pitch": 82, 
                            "t0": 502958, 
                            "v": 120, 
                            "dur": 154, 
                            "type": "note", 
                            "channel": 12
                        }, 
                        {
                            "pitch": 78, 
                            "t0": 502958, 
                            "v": 116, 
                            "dur": 172, 
                            "type": "note", 
                            "channel": 12
                        }
                    ]
                ], 
                [
                    502970, 
                    [
                        {
                            "pitch": 75, 
                            "t0": 502970, 
                            "v": 108, 
                            "dur": 130, 
                            "type": "note", 
                            "channel": 12
                        }
                    ]
                ], 
                [
                    505026, 
                    [
                        {
                            "pitch": 78, 
                            "t0": 505026, 
                            "v": 108, 
                            "dur": 78, 
                            "type": "note", 
                            "channel": 12
                        }
                    ]
                ], 
                [
                    505030, 
                    [
                        {
                            "pitch": 82, 
                            "t0": 505030, 
                            "v": 116, 
                            "dur": 74, 
                            "type": "note", 
                            "channel": 12
                        }
                    ]
                ], 
                [
                    505038, 
                    [
                        {
                            "pitch": 75, 
                            "t0": 505038, 
                            "v": 92, 
                            "dur": 74, 
                            "type": "note", 
                            "channel": 12
                        }
                    ]
                ], 
                [
                    505266, 
                    [
                        {
                            "pitch": 75, 
                            "t0": 505266, 
                            "v": 112, 
                            "dur": 114, 
                            "type": "note", 
                            "channel": 12
                        }
                    ]
                ], 
                [
                    505270, 
                    [
                        {
                            "pitch": 78, 
                            "t0": 505270, 
                            "v": 112, 
                            "dur": 96, 
                            "type": "note", 
                            "channel": 12
                        }
                    ]
                ], 
                [
                    505276, 
                    [
                        {
                            "pitch": 82, 
                            "t0": 505276, 
                            "v": 120, 
                            "dur": 112, 
                            "type": "note", 
                            "channel": 12
                        }
                    ]
                ], 
                [
                    505484, 
                    [
                        {
                            "pitch": 75, 
                            "t0": 505484, 
                            "v": 100, 
                            "dur": 112, 
                            "type": "note", 
                            "channel": 12
                        }
                    ]
                ], 
                [
                    505488, 
                    [
                        {
                            "pitch": 78, 
                            "t0": 505488, 
                            "v": 100, 
                            "dur": 124, 
                            "type": "note", 
                            "channel": 12
                        }
                    ]
                ], 
                [
                    505492, 
                    [
                        {
                            "pitch": 82, 
                            "t0": 505492, 
                            "v": 112, 
                            "dur": 134, 
                            "type": "note", 
                            "channel": 12
                        }
                    ]
                ], 
                [
                    506038, 
                    [
                        {
                            "pitch": 78, 
                            "t0": 506038, 
                            "v": 116, 
                            "dur": 108, 
                            "type": "note", 
                            "channel": 12
                        }
                    ]
                ], 
                [
                    506042, 
                    [
                        {
                            "pitch": 75, 
                            "t0": 506042, 
                            "v": 116, 
                            "dur": 84, 
                            "type": "note", 
                            "channel": 12
                        }
                    ]
                ], 
                [
                    506046, 
                    [
                        {
                            "pitch": 82, 
                            "t0": 506046, 
                            "v": 124, 
                            "dur": 100, 
                            "type": "note", 
                            "channel": 12
                        }
                    ]
                ], 
                [
                    508520, 
                    [
                        {
                            "pitch": 78, 
                            "t0": 508520, 
                            "v": 116, 
                            "dur": 118, 
                            "type": "note", 
                            "channel": 12
                        }
                    ]
                ], 
                [
                    508526, 
                    [
                        {
                            "pitch": 75, 
                            "t0": 508526, 
                            "v": 112, 
                            "dur": 104, 
                            "type": "note", 
                            "channel": 12
                        }, 
                        {
                            "pitch": 82, 
                            "t0": 508526, 
                            "v": 127, 
                            "dur": 124, 
                            "type": "note", 
                            "channel": 12
                        }
                    ]
                ], 
                [
                    510080, 
                    [
                        {
                            "pitch": 75, 
                            "t0": 510080, 
                            "v": 112, 
                            "dur": 124, 
                            "type": "note", 
                            "channel": 12
                        }, 
                        {
                            "pitch": 78, 
                            "t0": 510080, 
                            "v": 120, 
                            "dur": 128, 
                            "type": "note", 
                            "channel": 12
                        }
                    ]
                ], 
                [
                    510092, 
                    [
                        {
                            "pitch": 82, 
                            "t0": 510092, 
                            "v": 120, 
                            "dur": 128, 
                            "type": "note", 
                            "channel": 12
                        }
                    ]
                ], 
                [
                    511080, 
                    [
                        {
                            "pitch": 82, 
                            "t0": 511080, 
                            "v": 124, 
                            "dur": 146, 
                            "type": "note", 
                            "channel": 12
                        }
                    ]
                ], 
                [
                    511084, 
                    [
                        {
                            "pitch": 78, 
                            "t0": 511084, 
                            "v": 112, 
                            "dur": 132, 
                            "type": "note", 
                            "channel": 12
                        }
                    ]
                ], 
                [
                    511088, 
                    [
                        {
                            "pitch": 75, 
                            "t0": 511088, 
                            "v": 116, 
                            "dur": 116, 
                            "type": "note", 
                            "channel": 12
                        }
                    ]
                ], 
                [
                    513062, 
                    [
                        {
                            "pitch": 82, 
                            "t0": 513062, 
                            "v": 120, 
                            "dur": 104, 
                            "type": "note", 
                            "channel": 12
                        }
                    ]
                ], 
                [
                    513066, 
                    [
                        {
                            "pitch": 78, 
                            "t0": 513066, 
                            "v": 100, 
                            "dur": 84, 
                            "type": "note", 
                            "channel": 12
                        }, 
                        {
                            "pitch": 75, 
                            "t0": 513066, 
                            "v": 104, 
                            "dur": 96, 
                            "type": "note", 
                            "channel": 12
                        }
                    ]
                ], 
                [
                    513308, 
                    [
                        {
                            "pitch": 75, 
                            "t0": 513308, 
                            "v": 104, 
                            "dur": 122, 
                            "type": "note", 
                            "channel": 12
                        }
                    ]
                ], 
                [
                    513316, 
                    [
                        {
                            "pitch": 78, 
                            "t0": 513316, 
                            "v": 100, 
                            "dur": 96, 
                            "type": "note", 
                            "channel": 12
                        }
                    ]
                ], 
                [
                    513320, 
                    [
                        {
                            "pitch": 82, 
                            "t0": 513320, 
                            "v": 116, 
                            "dur": 118, 
                            "type": "note", 
                            "channel": 12
                        }
                    ]
                ], 
                [
                    513504, 
                    [
                        {
                            "pitch": 78, 
                            "t0": 513504, 
                            "v": 104, 
                            "dur": 146, 
                            "type": "note", 
                            "channel": 12
                        }
                    ]
                ], 
                [
                    513508, 
                    [
                        {
                            "pitch": 75, 
                            "t0": 513508, 
                            "v": 92, 
                            "dur": 122, 
                            "type": "note", 
                            "channel": 12
                        }, 
                        {
                            "pitch": 82, 
                            "t0": 513508, 
                            "v": 96, 
                            "dur": 158, 
                            "type": "note", 
                            "channel": 12
                        }
                    ]
                ], 
                [
                    514080, 
                    [
                        {
                            "pitch": 78, 
                            "t0": 514080, 
                            "v": 112, 
                            "dur": 120, 
                            "type": "note", 
                            "channel": 12
                        }, 
                        {
                            "pitch": 82, 
                            "t0": 514080, 
                            "v": 127, 
                            "dur": 128, 
                            "type": "note", 
                            "channel": 12
                        }
                    ]
                ], 
                [
                    514084, 
                    [
                        {
                            "pitch": 75, 
                            "t0": 514084, 
                            "v": 116, 
                            "dur": 92, 
                            "type": "note", 
                            "channel": 12
                        }
                    ]
                ], 
                [
                    516600, 
                    [
                        {
                            "pitch": 78, 
                            "t0": 516600, 
                            "v": 112, 
                            "dur": 138, 
                            "type": "note", 
                            "channel": 12
                        }
                    ]
                ], 
                [
                    516604, 
                    [
                        {
                            "pitch": 82, 
                            "t0": 516604, 
                            "v": 124, 
                            "dur": 138, 
                            "type": "note", 
                            "channel": 12
                        }
                    ]
                ], 
                [
                    516608, 
                    [
                        {
                            "pitch": 75, 
                            "t0": 516608, 
                            "v": 120, 
                            "dur": 112, 
                            "type": "note", 
                            "channel": 12
                        }
                    ]
                ], 
                [
                    518116, 
                    [
                        {
                            "pitch": 78, 
                            "t0": 518116, 
                            "v": 120, 
                            "dur": 138, 
                            "type": "note", 
                            "channel": 12
                        }
                    ]
                ], 
                [
                    518120, 
                    [
                        {
                            "pitch": 82, 
                            "t0": 518120, 
                            "v": 124, 
                            "dur": 180, 
                            "type": "note", 
                            "channel": 12
                        }
                    ]
                ], 
                [
                    518126, 
                    [
                        {
                            "pitch": 75, 
                            "t0": 518126, 
                            "v": 112, 
                            "dur": 116, 
                            "type": "note", 
                            "channel": 12
                        }
                    ]
                ], 
                [
                    519054, 
                    [
                        {
                            "pitch": 82, 
                            "t0": 519054, 
                            "v": 124, 
                            "dur": 146, 
                            "type": "note", 
                            "channel": 12
                        }
                    ]
                ], 
                [
                    519058, 
                    [
                        {
                            "pitch": 78, 
                            "t0": 519058, 
                            "v": 116, 
                            "dur": 142, 
                            "type": "note", 
                            "channel": 12
                        }
                    ]
                ], 
                [
                    519066, 
                    [
                        {
                            "pitch": 75, 
                            "t0": 519066, 
                            "v": 112, 
                            "dur": 104, 
                            "type": "note", 
                            "channel": 12
                        }
                    ]
                ], 
                [
                    521026, 
                    [
                        {
                            "pitch": 82, 
                            "t0": 521026, 
                            "v": 120, 
                            "dur": 112, 
                            "type": "note", 
                            "channel": 12
                        }
                    ]
                ], 
                [
                    521030, 
                    [
                        {
                            "pitch": 78, 
                            "t0": 521030, 
                            "v": 108, 
                            "dur": 96, 
                            "type": "note", 
                            "channel": 12
                        }
                    ]
                ], 
                [
                    521034, 
                    [
                        {
                            "pitch": 75, 
                            "t0": 521034, 
                            "v": 104, 
                            "dur": 104, 
                            "type": "note", 
                            "channel": 12
                        }
                    ]
                ], 
                [
                    521270, 
                    [
                        {
                            "pitch": 82, 
                            "t0": 521270, 
                            "v": 116, 
                            "dur": 150, 
                            "type": "note", 
                            "channel": 12
                        }
                    ]
                ], 
                [
                    521276, 
                    [
                        {
                            "pitch": 78, 
                            "t0": 521276, 
                            "v": 100, 
                            "dur": 112, 
                            "type": "note", 
                            "channel": 12
                        }
                    ]
                ], 
                [
                    521280, 
                    [
                        {
                            "pitch": 75, 
                            "t0": 521280, 
                            "v": 100, 
                            "dur": 120, 
                            "type": "note", 
                            "channel": 12
                        }
                    ]
                ], 
                [
                    521476, 
                    [
                        {
                            "pitch": 82, 
                            "t0": 521476, 
                            "v": 92, 
                            "dur": 174, 
                            "type": "note", 
                            "channel": 12
                        }
                    ]
                ], 
                [
                    521480, 
                    [
                        {
                            "pitch": 75, 
                            "t0": 521480, 
                            "v": 76, 
                            "dur": 112, 
                            "type": "note", 
                            "channel": 12
                        }, 
                        {
                            "pitch": 78, 
                            "t0": 521480, 
                            "v": 100, 
                            "dur": 158, 
                            "type": "note", 
                            "channel": 12
                        }
                    ]
                ], 
                [
                    522016, 
                    [
                        {
                            "pitch": 75, 
                            "t0": 522016, 
                            "v": 112, 
                            "dur": 104, 
                            "type": "note", 
                            "channel": 12
                        }
                    ]
                ], 
                [
                    522020, 
                    [
                        {
                            "pitch": 78, 
                            "t0": 522020, 
                            "v": 116, 
                            "dur": 130, 
                            "type": "note", 
                            "channel": 12
                        }, 
                        {
                            "pitch": 82, 
                            "t0": 522020, 
                            "v": 127, 
                            "dur": 138, 
                            "type": "note", 
                            "channel": 12
                        }
                    ]
                ], 
                [
                    524584, 
                    [
                        {
                            "pitch": 78, 
                            "t0": 524584, 
                            "v": 116, 
                            "dur": 132, 
                            "type": "note", 
                            "channel": 12
                        }
                    ]
                ], 
                [
                    524588, 
                    [
                        {
                            "pitch": 75, 
                            "t0": 524588, 
                            "v": 112, 
                            "dur": 112, 
                            "type": "note", 
                            "channel": 12
                        }, 
                        {
                            "pitch": 82, 
                            "t0": 524588, 
                            "v": 120, 
                            "dur": 138, 
                            "type": "note", 
                            "channel": 12
                        }
                    ]
                ], 
                [
                    526112, 
                    [
                        {
                            "pitch": 78, 
                            "t0": 526112, 
                            "v": 116, 
                            "dur": 138, 
                            "type": "note", 
                            "channel": 12
                        }
                    ]
                ], 
                [
                    526116, 
                    [
                        {
                            "pitch": 82, 
                            "t0": 526116, 
                            "v": 127, 
                            "dur": 150, 
                            "type": "note", 
                            "channel": 12
                        }
                    ]
                ], 
                [
                    526120, 
                    [
                        {
                            "pitch": 75, 
                            "t0": 526120, 
                            "v": 120, 
                            "dur": 106, 
                            "type": "note", 
                            "channel": 12
                        }
                    ]
                ], 
                [
                    527050, 
                    [
                        {
                            "pitch": 82, 
                            "t0": 527050, 
                            "v": 124, 
                            "dur": 154, 
                            "type": "note", 
                            "channel": 12
                        }
                    ]
                ], 
                [
                    527054, 
                    [
                        {
                            "pitch": 75, 
                            "t0": 527054, 
                            "v": 112, 
                            "dur": 112, 
                            "type": "note", 
                            "channel": 12
                        }, 
                        {
                            "pitch": 78, 
                            "t0": 527054, 
                            "v": 120, 
                            "dur": 146, 
                            "type": "note", 
                            "channel": 12
                        }
                    ]
                ], 
                [
                    528976, 
                    [
                        {
                            "pitch": 82, 
                            "t0": 528976, 
                            "v": 124, 
                            "dur": 112, 
                            "type": "note", 
                            "channel": 12
                        }
                    ]
                ], 
                [
                    528980, 
                    [
                        {
                            "pitch": 75, 
                            "t0": 528980, 
                            "v": 108, 
                            "dur": 112, 
                            "type": "note", 
                            "channel": 12
                        }
                    ]
                ], 
                [
                    528984, 
                    [
                        {
                            "pitch": 78, 
                            "t0": 528984, 
                            "v": 108, 
                            "dur": 86, 
                            "type": "note", 
                            "channel": 12
                        }
                    ]
                ], 
                [
                    529230, 
                    [
                        {
                            "pitch": 75, 
                            "t0": 529230, 
                            "v": 92, 
                            "dur": 120, 
                            "type": "note", 
                            "channel": 12
                        }
                    ]
                ], 
                [
                    529234, 
                    [
                        {
                            "pitch": 78, 
                            "t0": 529234, 
                            "v": 108, 
                            "dur": 116, 
                            "type": "note", 
                            "channel": 12
                        }
                    ]
                ], 
                [
                    529238, 
                    [
                        {
                            "pitch": 82, 
                            "t0": 529238, 
                            "v": 116, 
                            "dur": 128, 
                            "type": "note", 
                            "channel": 12
                        }
                    ]
                ], 
                [
                    529446, 
                    [
                        {
                            "pitch": 78, 
                            "t0": 529446, 
                            "v": 104, 
                            "dur": 154, 
                            "type": "note", 
                            "channel": 12
                        }
                    ]
                ], 
                [
                    529450, 
                    [
                        {
                            "pitch": 75, 
                            "t0": 529450, 
                            "v": 88, 
                            "dur": 116, 
                            "type": "note", 
                            "channel": 12
                        }
                    ]
                ], 
                [
                    529454, 
                    [
                        {
                            "pitch": 82, 
                            "t0": 529454, 
                            "v": 108, 
                            "dur": 142, 
                            "type": "note", 
                            "channel": 12
                        }
                    ]
                ], 
                [
                    530020, 
                    [
                        {
                            "pitch": 78, 
                            "t0": 530020, 
                            "v": 120, 
                            "dur": 118, 
                            "type": "note", 
                            "channel": 12
                        }, 
                        {
                            "pitch": 82, 
                            "t0": 530020, 
                            "v": 124, 
                            "dur": 126, 
                            "type": "note", 
                            "channel": 12
                        }
                    ]
                ], 
                [
                    530026, 
                    [
                        {
                            "pitch": 75, 
                            "t0": 530026, 
                            "v": 116, 
                            "dur": 86, 
                            "type": "note", 
                            "channel": 12
                        }
                    ]
                ], 
                [
                    532562, 
                    [
                        {
                            "pitch": 78, 
                            "t0": 532562, 
                            "v": 116, 
                            "dur": 130, 
                            "type": "note", 
                            "channel": 12
                        }, 
                        {
                            "pitch": 82, 
                            "t0": 532562, 
                            "v": 127, 
                            "dur": 146, 
                            "type": "note", 
                            "channel": 12
                        }
                    ]
                ], 
                [
                    532570, 
                    [
                        {
                            "pitch": 75, 
                            "t0": 532570, 
                            "v": 116, 
                            "dur": 118, 
                            "type": "note", 
                            "channel": 12
                        }
                    ]
                ], 
                [
                    534042, 
                    [
                        {
                            "pitch": 82, 
                            "t0": 534042, 
                            "v": 127, 
                            "dur": 170, 
                            "type": "note", 
                            "channel": 12
                        }
                    ]
                ], 
                [
                    534046, 
                    [
                        {
                            "pitch": 78, 
                            "t0": 534046, 
                            "v": 112, 
                            "dur": 180, 
                            "type": "note", 
                            "channel": 12
                        }
                    ]
                ], 
                [
                    534050, 
                    [
                        {
                            "pitch": 75, 
                            "t0": 534050, 
                            "v": 112, 
                            "dur": 142, 
                            "type": "note", 
                            "channel": 12
                        }
                    ]
                ], 
                [
                    535008, 
                    [
                        {
                            "pitch": 75, 
                            "t0": 535008, 
                            "v": 112, 
                            "dur": 142, 
                            "type": "note", 
                            "channel": 12
                        }, 
                        {
                            "pitch": 82, 
                            "t0": 535008, 
                            "v": 124, 
                            "dur": 150, 
                            "type": "note", 
                            "channel": 12
                        }
                    ]
                ], 
                [
                    535012, 
                    [
                        {
                            "pitch": 78, 
                            "t0": 535012, 
                            "v": 116, 
                            "dur": 142, 
                            "type": "note", 
                            "channel": 12
                        }
                    ]
                ], 
                [
                    537092, 
                    [
                        {
                            "pitch": 78, 
                            "t0": 537092, 
                            "v": 112, 
                            "dur": 108, 
                            "type": "note", 
                            "channel": 12
                        }
                    ]
                ], 
                [
                    537096, 
                    [
                        {
                            "pitch": 82, 
                            "t0": 537096, 
                            "v": 120, 
                            "dur": 124, 
                            "type": "note", 
                            "channel": 12
                        }
                    ]
                ], 
                [
                    537100, 
                    [
                        {
                            "pitch": 75, 
                            "t0": 537100, 
                            "v": 116, 
                            "dur": 96, 
                            "type": "note", 
                            "channel": 12
                        }
                    ]
                ], 
                [
                    537350, 
                    [
                        {
                            "pitch": 82, 
                            "t0": 537350, 
                            "v": 108, 
                            "dur": 320, 
                            "type": "note", 
                            "channel": 12
                        }, 
                        {
                            "pitch": 78, 
                            "t0": 537350, 
                            "v": 116, 
                            "dur": 320, 
                            "type": "note", 
                            "channel": 12
                        }
                    ]
                ], 
                [
                    537358, 
                    [
                        {
                            "pitch": 75, 
                            "t0": 537358, 
                            "v": 108, 
                            "dur": 292, 
                            "type": "note", 
                            "channel": 12
                        }
                    ]
                ], 
                [
                    538096, 
                    [
                        {
                            "pitch": 75, 
                            "t0": 538096, 
                            "v": 108, 
                            "dur": 130, 
                            "type": "note", 
                            "channel": 12
                        }
                    ]
                ], 
                [
                    538100, 
                    [
                        {
                            "pitch": 78, 
                            "t0": 538100, 
                            "v": 120, 
                            "dur": 150, 
                            "type": "note", 
                            "channel": 12
                        }, 
                        {
                            "pitch": 82, 
                            "t0": 538100, 
                            "v": 116, 
                            "dur": 166, 
                            "type": "note", 
                            "channel": 12
                        }
                    ]
                ], 
                [
                    540480, 
                    [
                        {
                            "pitch": 78, 
                            "t0": 540480, 
                            "v": 120, 
                            "dur": 132, 
                            "type": "note", 
                            "channel": 12
                        }
                    ]
                ], 
                [
                    540484, 
                    [
                        {
                            "pitch": 75, 
                            "t0": 540484, 
                            "v": 108, 
                            "dur": 116, 
                            "type": "note", 
                            "channel": 12
                        }
                    ]
                ], 
                [
                    540492, 
                    [
                        {
                            "pitch": 82, 
                            "t0": 540492, 
                            "v": 120, 
                            "dur": 134, 
                            "type": "note", 
                            "channel": 12
                        }
                    ]
                ], 
                [
                    542034, 
                    [
                        {
                            "pitch": 82, 
                            "t0": 542034, 
                            "v": 112, 
                            "dur": 124, 
                            "type": "note", 
                            "channel": 12
                        }
                    ]
                ], 
                [
                    542038, 
                    [
                        {
                            "pitch": 78, 
                            "t0": 542038, 
                            "v": 116, 
                            "dur": 116, 
                            "type": "note", 
                            "channel": 12
                        }, 
                        {
                            "pitch": 75, 
                            "t0": 542038, 
                            "v": 108, 
                            "dur": 128, 
                            "type": "note", 
                            "channel": 12
                        }
                    ]
                ], 
                [
                    543034, 
                    [
                        {
                            "pitch": 82, 
                            "t0": 543034, 
                            "v": 124, 
                            "dur": 132, 
                            "type": "note", 
                            "channel": 12
                        }
                    ]
                ], 
                [
                    543042, 
                    [
                        {
                            "pitch": 75, 
                            "t0": 543042, 
                            "v": 112, 
                            "dur": 104, 
                            "type": "note", 
                            "channel": 12
                        }, 
                        {
                            "pitch": 78, 
                            "t0": 543042, 
                            "v": 120, 
                            "dur": 112, 
                            "type": "note", 
                            "channel": 12
                        }
                    ]
                ], 
                [
                    545188, 
                    [
                        {
                            "pitch": 78, 
                            "t0": 545188, 
                            "v": 108, 
                            "dur": 104, 
                            "type": "note", 
                            "channel": 12
                        }
                    ]
                ], 
                [
                    545196, 
                    [
                        {
                            "pitch": 82, 
                            "t0": 545196, 
                            "v": 116, 
                            "dur": 108, 
                            "type": "note", 
                            "channel": 12
                        }
                    ]
                ], 
                [
                    545200, 
                    [
                        {
                            "pitch": 75, 
                            "t0": 545200, 
                            "v": 92, 
                            "dur": 84, 
                            "type": "note", 
                            "channel": 12
                        }
                    ]
                ], 
                [
                    545470, 
                    [
                        {
                            "pitch": 82, 
                            "t0": 545470, 
                            "v": 108, 
                            "dur": 106, 
                            "type": "note", 
                            "channel": 12
                        }
                    ]
                ], 
                [
                    545476, 
                    [
                        {
                            "pitch": 78, 
                            "t0": 545476, 
                            "v": 96, 
                            "dur": 100, 
                            "type": "note", 
                            "channel": 12
                        }, 
                        {
                            "pitch": 75, 
                            "t0": 545476, 
                            "v": 92, 
                            "dur": 304, 
                            "type": "note", 
                            "channel": 12
                        }
                    ]
                ], 
                [
                    545666, 
                    [
                        {
                            "pitch": 82, 
                            "t0": 545666, 
                            "v": 84, 
                            "dur": 122, 
                            "type": "note", 
                            "channel": 12
                        }
                    ]
                ], 
                [
                    545670, 
                    [
                        {
                            "pitch": 78, 
                            "t0": 545670, 
                            "v": 80, 
                            "dur": 106, 
                            "type": "note", 
                            "channel": 12
                        }
                    ]
                ], 
                [
                    546150, 
                    [
                        {
                            "pitch": 75, 
                            "t0": 546150, 
                            "v": 92, 
                            "dur": 104, 
                            "type": "note", 
                            "channel": 12
                        }, 
                        {
                            "pitch": 82, 
                            "t0": 546150, 
                            "v": 116, 
                            "dur": 126, 
                            "type": "note", 
                            "channel": 12
                        }
                    ]
                ], 
                [
                    546158, 
                    [
                        {
                            "pitch": 78, 
                            "t0": 546158, 
                            "v": 100, 
                            "dur": 100, 
                            "type": "note", 
                            "channel": 12
                        }
                    ]
                ], 
                [
                    548604, 
                    [
                        {
                            "pitch": 78, 
                            "t0": 548604, 
                            "v": 108, 
                            "dur": 108, 
                            "type": "note", 
                            "channel": 12
                        }
                    ]
                ], 
                [
                    548608, 
                    [
                        {
                            "pitch": 82, 
                            "t0": 548608, 
                            "v": 120, 
                            "dur": 122, 
                            "type": "note", 
                            "channel": 12
                        }
                    ]
                ], 
                [
                    548612, 
                    [
                        {
                            "pitch": 75, 
                            "t0": 548612, 
                            "v": 100, 
                            "dur": 96, 
                            "type": "note", 
                            "channel": 12
                        }
                    ]
                ], 
                [
                    550154, 
                    [
                        {
                            "pitch": 78, 
                            "t0": 550154, 
                            "v": 100, 
                            "dur": 112, 
                            "type": "note", 
                            "channel": 12
                        }
                    ]
                ], 
                [
                    550158, 
                    [
                        {
                            "pitch": 75, 
                            "t0": 550158, 
                            "v": 92, 
                            "dur": 104, 
                            "type": "note", 
                            "channel": 12
                        }, 
                        {
                            "pitch": 82, 
                            "t0": 550158, 
                            "v": 116, 
                            "dur": 130, 
                            "type": "note", 
                            "channel": 12
                        }
                    ]
                ], 
                [
                    551196, 
                    [
                        {
                            "pitch": 78, 
                            "t0": 551196, 
                            "v": 108, 
                            "dur": 120, 
                            "type": "note", 
                            "channel": 12
                        }, 
                        {
                            "pitch": 82, 
                            "t0": 551196, 
                            "v": 116, 
                            "dur": 130, 
                            "type": "note", 
                            "channel": 12
                        }
                    ]
                ], 
                [
                    551200, 
                    [
                        {
                            "pitch": 75, 
                            "t0": 551200, 
                            "v": 88, 
                            "dur": 104, 
                            "type": "note", 
                            "channel": 12
                        }
                    ]
                ], 
                [
                    553320, 
                    [
                        {
                            "pitch": 82, 
                            "t0": 553320, 
                            "v": 100, 
                            "dur": 84, 
                            "type": "note", 
                            "channel": 12
                        }
                    ]
                ], 
                [
                    553330, 
                    [
                        {
                            "pitch": 75, 
                            "t0": 553330, 
                            "v": 76, 
                            "dur": 90, 
                            "type": "note", 
                            "channel": 12
                        }
                    ]
                ], 
                [
                    553334, 
                    [
                        {
                            "pitch": 78, 
                            "t0": 553334, 
                            "v": 72, 
                            "dur": 66, 
                            "type": "note", 
                            "channel": 12
                        }
                    ]
                ], 
                [
                    553570, 
                    [
                        {
                            "pitch": 75, 
                            "t0": 553570, 
                            "v": 80, 
                            "dur": 118, 
                            "type": "note", 
                            "channel": 12
                        }
                    ]
                ], 
                [
                    553576, 
                    [
                        {
                            "pitch": 82, 
                            "t0": 553576, 
                            "v": 104, 
                            "dur": 104, 
                            "type": "note", 
                            "channel": 12
                        }
                    ]
                ], 
                [
                    553580, 
                    [
                        {
                            "pitch": 78, 
                            "t0": 553580, 
                            "v": 84, 
                            "dur": 96, 
                            "type": "note", 
                            "channel": 12
                        }
                    ]
                ], 
                [
                    553812, 
                    [
                        {
                            "pitch": 75, 
                            "t0": 553812, 
                            "v": 80, 
                            "dur": 164, 
                            "type": "note", 
                            "channel": 12
                        }
                    ]
                ], 
                [
                    553826, 
                    [
                        {
                            "pitch": 78, 
                            "t0": 553826, 
                            "v": 84, 
                            "dur": 124, 
                            "type": "note", 
                            "channel": 12
                        }
                    ]
                ], 
                [
                    553834, 
                    [
                        {
                            "pitch": 82, 
                            "t0": 553834, 
                            "v": 104, 
                            "dur": 116, 
                            "type": "note", 
                            "channel": 12
                        }
                    ]
                ], 
                [
                    554320, 
                    [
                        {
                            "pitch": 78, 
                            "t0": 554320, 
                            "v": 100, 
                            "dur": 118, 
                            "type": "note", 
                            "channel": 12
                        }
                    ]
                ], 
                [
                    554326, 
                    [
                        {
                            "pitch": 75, 
                            "t0": 554326, 
                            "v": 88, 
                            "dur": 104, 
                            "type": "note", 
                            "channel": 12
                        }, 
                        {
                            "pitch": 82, 
                            "t0": 554326, 
                            "v": 112, 
                            "dur": 108, 
                            "type": "note", 
                            "channel": 12
                        }
                    ]
                ], 
                [
                    556788, 
                    [
                        {
                            "pitch": 75, 
                            "t0": 556788, 
                            "v": 104, 
                            "dur": 112, 
                            "type": "note", 
                            "channel": 12
                        }, 
                        {
                            "pitch": 78, 
                            "t0": 556788, 
                            "v": 112, 
                            "dur": 116, 
                            "type": "note", 
                            "channel": 12
                        }
                    ]
                ], 
                [
                    556792, 
                    [
                        {
                            "pitch": 82, 
                            "t0": 556792, 
                            "v": 108, 
                            "dur": 116, 
                            "type": "note", 
                            "channel": 12
                        }
                    ]
                ], 
                [
                    558226, 
                    [
                        {
                            "pitch": 78, 
                            "t0": 558226, 
                            "v": 108, 
                            "dur": 112, 
                            "type": "note", 
                            "channel": 12
                        }, 
                        {
                            "pitch": 82, 
                            "t0": 558226, 
                            "v": 112, 
                            "dur": 124, 
                            "type": "note", 
                            "channel": 12
                        }
                    ]
                ], 
                [
                    558230, 
                    [
                        {
                            "pitch": 75, 
                            "t0": 558230, 
                            "v": 92, 
                            "dur": 108, 
                            "type": "note", 
                            "channel": 12
                        }
                    ]
                ], 
                [
                    559284, 
                    [
                        {
                            "pitch": 82, 
                            "t0": 559284, 
                            "v": 100, 
                            "dur": 128, 
                            "type": "note", 
                            "channel": 12
                        }
                    ]
                ], 
                [
                    559288, 
                    [
                        {
                            "pitch": 78, 
                            "t0": 559288, 
                            "v": 100, 
                            "dur": 116, 
                            "type": "note", 
                            "channel": 12
                        }
                    ]
                ], 
                [
                    559292, 
                    [
                        {
                            "pitch": 75, 
                            "t0": 559292, 
                            "v": 88, 
                            "dur": 124, 
                            "type": "note", 
                            "channel": 12
                        }
                    ]
                ], 
                [
                    561226, 
                    [
                        {
                            "pitch": 75, 
                            "t0": 561226, 
                            "v": 104, 
                            "dur": 90, 
                            "type": "note", 
                            "channel": 12
                        }
                    ]
                ], 
                [
                    561230, 
                    [
                        {
                            "pitch": 78, 
                            "t0": 561230, 
                            "v": 104, 
                            "dur": 74, 
                            "type": "note", 
                            "channel": 12
                        }
                    ]
                ], 
                [
                    561238, 
                    [
                        {
                            "pitch": 82, 
                            "t0": 561238, 
                            "v": 104, 
                            "dur": 74, 
                            "type": "note", 
                            "channel": 12
                        }
                    ]
                ], 
                [
                    561466, 
                    [
                        {
                            "pitch": 75, 
                            "t0": 561466, 
                            "v": 108, 
                            "dur": 130, 
                            "type": "note", 
                            "channel": 12
                        }
                    ]
                ], 
                [
                    561476, 
                    [
                        {
                            "pitch": 78, 
                            "t0": 561476, 
                            "v": 108, 
                            "dur": 94, 
                            "type": "note", 
                            "channel": 12
                        }, 
                        {
                            "pitch": 82, 
                            "t0": 561476, 
                            "v": 108, 
                            "dur": 104, 
                            "type": "note", 
                            "channel": 12
                        }
                    ]
                ], 
                [
                    561680, 
                    [
                        {
                            "pitch": 78, 
                            "t0": 561680, 
                            "v": 96, 
                            "dur": 140, 
                            "type": "note", 
                            "channel": 12
                        }
                    ]
                ], 
                [
                    561684, 
                    [
                        {
                            "pitch": 75, 
                            "t0": 561684, 
                            "v": 88, 
                            "dur": 124, 
                            "type": "note", 
                            "channel": 12
                        }, 
                        {
                            "pitch": 82, 
                            "t0": 561684, 
                            "v": 104, 
                            "dur": 146, 
                            "type": "note", 
                            "channel": 12
                        }
                    ]
                ], 
                [
                    562246, 
                    [
                        {
                            "pitch": 78, 
                            "t0": 562246, 
                            "v": 124, 
                            "dur": 112, 
                            "type": "note", 
                            "channel": 12
                        }
                    ]
                ], 
                [
                    562250, 
                    [
                        {
                            "pitch": 75, 
                            "t0": 562250, 
                            "v": 120, 
                            "dur": 100, 
                            "type": "note", 
                            "channel": 12
                        }, 
                        {
                            "pitch": 82, 
                            "t0": 562250, 
                            "v": 124, 
                            "dur": 116, 
                            "type": "note", 
                            "channel": 12
                        }
                    ]
                ], 
                [
                    564888, 
                    [
                        {
                            "pitch": 75, 
                            "t0": 564888, 
                            "v": 104, 
                            "dur": 112, 
                            "type": "note", 
                            "channel": 12
                        }, 
                        {
                            "pitch": 78, 
                            "t0": 564888, 
                            "v": 112, 
                            "dur": 116, 
                            "type": "note", 
                            "channel": 12
                        }
                    ]
                ], 
                [
                    564892, 
                    [
                        {
                            "pitch": 82, 
                            "t0": 564892, 
                            "v": 108, 
                            "dur": 116, 
                            "type": "note", 
                            "channel": 12
                        }
                    ]
                ], 
                [
                    566326, 
                    [
                        {
                            "pitch": 78, 
                            "t0": 566326, 
                            "v": 108, 
                            "dur": 112, 
                            "type": "note", 
                            "channel": 12
                        }, 
                        {
                            "pitch": 82, 
                            "t0": 566326, 
                            "v": 112, 
                            "dur": 124, 
                            "type": "note", 
                            "channel": 12
                        }
                    ]
                ], 
                [
                    566330, 
                    [
                        {
                            "pitch": 75, 
                            "t0": 566330, 
                            "v": 92, 
                            "dur": 108, 
                            "type": "note", 
                            "channel": 12
                        }
                    ]
                ], 
                [
                    567384, 
                    [
                        {
                            "pitch": 82, 
                            "t0": 567384, 
                            "v": 100, 
                            "dur": 128, 
                            "type": "note", 
                            "channel": 12
                        }
                    ]
                ], 
                [
                    567388, 
                    [
                        {
                            "pitch": 78, 
                            "t0": 567388, 
                            "v": 100, 
                            "dur": 116, 
                            "type": "note", 
                            "channel": 12
                        }
                    ]
                ], 
                [
                    567392, 
                    [
                        {
                            "pitch": 75, 
                            "t0": 567392, 
                            "v": 88, 
                            "dur": 124, 
                            "type": "note", 
                            "channel": 12
                        }
                    ]
                ], 
                [
                    569070, 
                    [
                        {
                            "pitch": 82, 
                            "t0": 569070, 
                            "v": 100, 
                            "dur": 84, 
                            "type": "note", 
                            "channel": 12
                        }
                    ]
                ], 
                [
                    569080, 
                    [
                        {
                            "pitch": 75, 
                            "t0": 569080, 
                            "v": 76, 
                            "dur": 90, 
                            "type": "note", 
                            "channel": 12
                        }
                    ]
                ], 
                [
                    569084, 
                    [
                        {
                            "pitch": 78, 
                            "t0": 569084, 
                            "v": 72, 
                            "dur": 66, 
                            "type": "note", 
                            "channel": 12
                        }
                    ]
                ], 
                [
                    569320, 
                    [
                        {
                            "pitch": 75, 
                            "t0": 569320, 
                            "v": 80, 
                            "dur": 118, 
                            "type": "note", 
                            "channel": 12
                        }
                    ]
                ], 
                [
                    569326, 
                    [
                        {
                            "pitch": 82, 
                            "t0": 569326, 
                            "v": 104, 
                            "dur": 104, 
                            "type": "note", 
                            "channel": 12
                        }
                    ]
                ], 
                [
                    569330, 
                    [
                        {
                            "pitch": 78, 
                            "t0": 569330, 
                            "v": 84, 
                            "dur": 96, 
                            "type": "note", 
                            "channel": 12
                        }
                    ]
                ], 
                [
                    569562, 
                    [
                        {
                            "pitch": 75, 
                            "t0": 569562, 
                            "v": 80, 
                            "dur": 164, 
                            "type": "note", 
                            "channel": 12
                        }
                    ]
                ], 
                [
                    569576, 
                    [
                        {
                            "pitch": 78, 
                            "t0": 569576, 
                            "v": 84, 
                            "dur": 124, 
                            "type": "note", 
                            "channel": 12
                        }
                    ]
                ], 
                [
                    569584, 
                    [
                        {
                            "pitch": 82, 
                            "t0": 569584, 
                            "v": 104, 
                            "dur": 116, 
                            "type": "note", 
                            "channel": 12
                        }
                    ]
                ], 
                [
                    570070, 
                    [
                        {
                            "pitch": 78, 
                            "t0": 570070, 
                            "v": 100, 
                            "dur": 118, 
                            "type": "note", 
                            "channel": 12
                        }
                    ]
                ], 
                [
                    570076, 
                    [
                        {
                            "pitch": 75, 
                            "t0": 570076, 
                            "v": 88, 
                            "dur": 104, 
                            "type": "note", 
                            "channel": 12
                        }, 
                        {
                            "pitch": 82, 
                            "t0": 570076, 
                            "v": 112, 
                            "dur": 108, 
                            "type": "note", 
                            "channel": 12
                        }
                    ]
                ]
            ], 
            "instruments": [
                116
            ], 
            "tMax": 570076, 
            "channels": [
                12
            ], 
            "instrument": 116, 
            "numNotes": 1271, 
            "type": "TrackObj"
        }, 
        {
            "trackName": "Instrument Track", 
            "seq": [
                [
                    0, 
                    [
                        {
                            "instrument": 0, 
                            "type": "programChange", 
                            "t0": 0, 
                            "channel": 13
                        }
                    ]
                ]
            ], 
            "instruments": [
                0
            ], 
            "tMax": 0, 
            "channels": [
                13
            ], 
            "instrument": 0, 
            "numNotes": 0, 
            "type": "TrackObj"
        }, 
        {
            "trackName": "Instrument Track", 
            "seq": [
                [
                    0, 
                    [
                        {
                            "instrument": 0, 
                            "type": "programChange", 
                            "t0": 0, 
                            "channel": 14
                        }
                    ]
                ]
            ], 
            "instruments": [
                0
            ], 
            "tMax": 0, 
            "channels": [
                14
            ], 
            "instrument": 0, 
            "numNotes": 0, 
            "type": "TrackObj"
        }, 
        {
            "trackName": "Instrument Track", 
            "seq": [
                [
                    0, 
                    [
                        {
                            "instrument": 0, 
                            "type": "programChange", 
                            "t0": 0, 
                            "channel": 15
                        }
                    ]
                ]
            ], 
            "instruments": [
                0
            ], 
            "tMax": 0, 
            "channels": [
                15
            ], 
            "instrument": 0, 
            "numNotes": 0, 
            "type": "TrackObj"
        }, 
        {
            "trackName": "Instrument Track", 
            "seq": [
                [
                    0, 
                    [
                        {
                            "instrument": 0, 
                            "type": "programChange", 
                            "t0": 0, 
                            "channel": 0
                        }
                    ]
                ]
            ], 
            "instruments": [
                0
            ], 
            "tMax": 0, 
            "channels": [
                0
            ], 
            "instrument": 0, 
            "numNotes": 0, 
            "type": "TrackObj"
        }, 
        {
            "trackName": "Instrument Track", 
            "seq": [
                [
                    0, 
                    [
                        {
                            "instrument": 0, 
                            "type": "programChange", 
                            "t0": 0, 
                            "channel": 1
                        }
                    ]
                ]
            ], 
            "instruments": [
                0
            ], 
            "tMax": 0, 
            "channels": [
                1
            ], 
            "instrument": 0, 
            "numNotes": 0, 
            "type": "TrackObj"
        }, 
        {
            "trackName": "Instrument Track", 
            "seq": [
                [
                    0, 
                    [
                        {
                            "instrument": 0, 
                            "type": "programChange", 
                            "t0": 0, 
                            "channel": 2
                        }
                    ]
                ]
            ], 
            "instruments": [
                0
            ], 
            "tMax": 0, 
            "channels": [
                2
            ], 
            "instrument": 0, 
            "numNotes": 0, 
            "type": "TrackObj"
        }, 
        {
            "trackName": "Instrument Track", 
            "seq": [
                [
                    0, 
                    [
                        {
                            "instrument": 0, 
                            "type": "programChange", 
                            "t0": 0, 
                            "channel": 3
                        }
                    ]
                ]
            ], 
            "instruments": [
                0
            ], 
            "tMax": 0, 
            "channels": [
                3
            ], 
            "instrument": 0, 
            "numNotes": 0, 
            "type": "TrackObj"
        }, 
        {
            "trackName": "Instrument Track", 
            "seq": [
                [
                    0, 
                    [
                        {
                            "instrument": 0, 
                            "type": "programChange", 
                            "t0": 0, 
                            "channel": 4
                        }
                    ]
                ]
            ], 
            "instruments": [
                0
            ], 
            "tMax": 0, 
            "channels": [
                4
            ], 
            "instrument": 0, 
            "numNotes": 0, 
            "type": "TrackObj"
        }, 
        {
            "trackName": "Instrument Track", 
            "seq": [
                [
                    0, 
                    [
                        {
                            "instrument": 0, 
                            "type": "programChange", 
                            "t0": 0, 
                            "channel": 5
                        }
                    ]
                ]
            ], 
            "instruments": [
                0
            ], 
            "tMax": 0, 
            "channels": [
                5
            ], 
            "instrument": 0, 
            "numNotes": 0, 
            "type": "TrackObj"
        }, 
        {
            "trackName": "Instrument Track", 
            "seq": [
                [
                    0, 
                    [
                        {
                            "instrument": 0, 
                            "type": "programChange", 
                            "t0": 0, 
                            "channel": 6
                        }
                    ]
                ]
            ], 
            "instruments": [
                0
            ], 
            "tMax": 0, 
            "channels": [
                6
            ], 
            "instrument": 0, 
            "numNotes": 0, 
            "type": "TrackObj"
        }, 
        {
            "trackName": "Instrument Track", 
            "seq": [
                [
                    0, 
                    [
                        {
                            "instrument": 0, 
                            "type": "programChange", 
                            "t0": 0, 
                            "channel": 7
                        }
                    ]
                ]
            ], 
            "instruments": [
                0
            ], 
            "tMax": 0, 
            "channels": [
                7
            ], 
            "instrument": 0, 
            "numNotes": 0, 
            "type": "TrackObj"
        }, 
        {
            "trackName": "Instrument Track", 
            "seq": [
                [
                    0, 
                    [
                        {
                            "instrument": 0, 
                            "type": "programChange", 
                            "t0": 0, 
                            "channel": 8
                        }
                    ]
                ]
            ], 
            "instruments": [
                0
            ], 
            "tMax": 0, 
            "channels": [
                8
            ], 
            "instrument": 0, 
            "numNotes": 0, 
            "type": "TrackObj"
        }, 
        {
            "trackName": "Instrument Track", 
            "seq": [
                [
                    0, 
                    [
                        {
                            "instrument": 0, 
                            "type": "programChange", 
                            "t0": 0, 
                            "channel": 9
                        }
                    ]
                ]
            ], 
            "instruments": [
                0
            ], 
            "tMax": 0, 
            "channels": [
                9
            ], 
            "instrument": 0, 
            "numNotes": 0, 
            "type": "TrackObj"
        }, 
        {
            "trackName": "Instrument Track", 
            "seq": [
                [
                    0, 
                    [
                        {
                            "instrument": 0, 
                            "type": "programChange", 
                            "t0": 0, 
                            "channel": 10
                        }
                    ]
                ]
            ], 
            "instruments": [
                0
            ], 
            "tMax": 0, 
            "channels": [
                10
            ], 
            "instrument": 0, 
            "numNotes": 0, 
            "type": "TrackObj"
        }, 
        {
            "trackName": "Instrument Track", 
            "seq": [
                [
                    0, 
                    [
                        {
                            "instrument": 0, 
                            "type": "programChange", 
                            "t0": 0, 
                            "channel": 11
                        }
                    ]
                ]
            ], 
            "instruments": [
                0
            ], 
            "tMax": 0, 
            "channels": [
                11
            ], 
            "instrument": 0, 
            "numNotes": 0, 
            "type": "TrackObj"
        }, 
        {
            "trackName": "Instrument Track", 
            "seq": [
                [
                    0, 
                    [
                        {
                            "instrument": 0, 
                            "type": "programChange", 
                            "t0": 0, 
                            "channel": 12
                        }
                    ]
                ]
            ], 
            "instruments": [
                0
            ], 
            "tMax": 0, 
            "channels": [
                12
            ], 
            "instrument": 0, 
            "numNotes": 0, 
            "type": "TrackObj"
        }, 
        {
            "trackName": "Instrument Track", 
            "seq": [
                [
                    0, 
                    [
                        {
                            "instrument": 0, 
                            "type": "programChange", 
                            "t0": 0, 
                            "channel": 13
                        }
                    ]
                ]
            ], 
            "instruments": [
                0
            ], 
            "tMax": 0, 
            "channels": [
                13
            ], 
            "instrument": 0, 
            "numNotes": 0, 
            "type": "TrackObj"
        }
    ], 
    "type": "MidiObj"
}