{
    "format": 1, 
    "instruments": [
        0, 
        96, 
        100, 
        75, 
        76, 
        45, 
        15, 
        49, 
        116, 
        89, 
        92, 
        52
    ], 
    "resolution": 240, 
    "channels": [
        0, 
        1, 
        2, 
        3, 
        4, 
        5, 
        6, 
        7, 
        8, 
        9, 
        10, 
        11, 
        12
    ], 
    "tracks": [
        {
            "trackName": "Track1", 
            "seq": [
                [
                    0, 
                    [
                        {
                            "bpm": 123.99999173333389, 
                            "type": "tempo", 
                            "mpqn": 483871, 
                            "t0": 0
                        }
                    ]
                ]
            ], 
            "instruments": [], 
            "tMax": 0, 
            "channels": [], 
            "numNotes": 0, 
            "type": "TrackObj"
        }, 
        {
            "trackName": "Warm Pad", 
            "seq": [
                [
                    0, 
                    [
                        {
                            "instrument": 89, 
                            "type": "programChange", 
                            "t0": 0, 
                            "channel": 0
                        }, 
                        {
                            "instrument": 89, 
                            "type": "programChange", 
                            "t0": 0, 
                            "channel": 0
                        }, 
                        {
                            "pitch": 37, 
                            "t0": 0, 
                            "v": 127, 
                            "dur": 957, 
                            "type": "note", 
                            "channel": 0
                        }
                    ]
                ], 
                [
                    960, 
                    [
                        {
                            "pitch": 34, 
                            "t0": 960, 
                            "v": 127, 
                            "dur": 957, 
                            "type": "note", 
                            "channel": 0
                        }
                    ]
                ], 
                [
                    1920, 
                    [
                        {
                            "pitch": 29, 
                            "t0": 1920, 
                            "v": 127, 
                            "dur": 1917, 
                            "type": "note", 
                            "channel": 0
                        }
                    ]
                ], 
                [
                    3840, 
                    [
                        {
                            "pitch": 37, 
                            "t0": 3840, 
                            "v": 127, 
                            "dur": 957, 
                            "type": "note", 
                            "channel": 0
                        }
                    ]
                ], 
                [
                    4800, 
                    [
                        {
                            "pitch": 34, 
                            "t0": 4800, 
                            "v": 127, 
                            "dur": 957, 
                            "type": "note", 
                            "channel": 0
                        }
                    ]
                ], 
                [
                    5760, 
                    [
                        {
                            "pitch": 29, 
                            "t0": 5760, 
                            "v": 127, 
                            "dur": 1917, 
                            "type": "note", 
                            "channel": 0
                        }
                    ]
                ], 
                [
                    7680, 
                    [
                        {
                            "pitch": 37, 
                            "t0": 7680, 
                            "v": 127, 
                            "dur": 957, 
                            "type": "note", 
                            "channel": 0
                        }
                    ]
                ], 
                [
                    8640, 
                    [
                        {
                            "pitch": 34, 
                            "t0": 8640, 
                            "v": 127, 
                            "dur": 957, 
                            "type": "note", 
                            "channel": 0
                        }
                    ]
                ], 
                [
                    9600, 
                    [
                        {
                            "pitch": 29, 
                            "t0": 9600, 
                            "v": 127, 
                            "dur": 1917, 
                            "type": "note", 
                            "channel": 0
                        }
                    ]
                ], 
                [
                    11520, 
                    [
                        {
                            "pitch": 37, 
                            "t0": 11520, 
                            "v": 127, 
                            "dur": 957, 
                            "type": "note", 
                            "channel": 0
                        }
                    ]
                ], 
                [
                    12480, 
                    [
                        {
                            "pitch": 34, 
                            "t0": 12480, 
                            "v": 127, 
                            "dur": 957, 
                            "type": "note", 
                            "channel": 0
                        }
                    ]
                ], 
                [
                    13440, 
                    [
                        {
                            "pitch": 29, 
                            "t0": 13440, 
                            "v": 127, 
                            "dur": 1917, 
                            "type": "note", 
                            "channel": 0
                        }
                    ]
                ], 
                [
                    15360, 
                    [
                        {
                            "pitch": 37, 
                            "t0": 15360, 
                            "v": 127, 
                            "dur": 957, 
                            "type": "note", 
                            "channel": 0
                        }
                    ]
                ], 
                [
                    16320, 
                    [
                        {
                            "pitch": 34, 
                            "t0": 16320, 
                            "v": 127, 
                            "dur": 957, 
                            "type": "note", 
                            "channel": 0
                        }
                    ]
                ], 
                [
                    17280, 
                    [
                        {
                            "pitch": 29, 
                            "t0": 17280, 
                            "v": 127, 
                            "dur": 1917, 
                            "type": "note", 
                            "channel": 0
                        }
                    ]
                ], 
                [
                    19200, 
                    [
                        {
                            "pitch": 37, 
                            "t0": 19200, 
                            "v": 127, 
                            "dur": 957, 
                            "type": "note", 
                            "channel": 0
                        }
                    ]
                ], 
                [
                    20160, 
                    [
                        {
                            "pitch": 34, 
                            "t0": 20160, 
                            "v": 127, 
                            "dur": 957, 
                            "type": "note", 
                            "channel": 0
                        }
                    ]
                ], 
                [
                    21120, 
                    [
                        {
                            "pitch": 29, 
                            "t0": 21120, 
                            "v": 127, 
                            "dur": 1917, 
                            "type": "note", 
                            "channel": 0
                        }
                    ]
                ], 
                [
                    23040, 
                    [
                        {
                            "pitch": 37, 
                            "t0": 23040, 
                            "v": 127, 
                            "dur": 957, 
                            "type": "note", 
                            "channel": 0
                        }
                    ]
                ], 
                [
                    24000, 
                    [
                        {
                            "pitch": 34, 
                            "t0": 24000, 
                            "v": 127, 
                            "dur": 957, 
                            "type": "note", 
                            "channel": 0
                        }
                    ]
                ], 
                [
                    24960, 
                    [
                        {
                            "pitch": 29, 
                            "t0": 24960, 
                            "v": 127, 
                            "dur": 1917, 
                            "type": "note", 
                            "channel": 0
                        }
                    ]
                ], 
                [
                    26880, 
                    [
                        {
                            "pitch": 37, 
                            "t0": 26880, 
                            "v": 127, 
                            "dur": 957, 
                            "type": "note", 
                            "channel": 0
                        }
                    ]
                ], 
                [
                    27840, 
                    [
                        {
                            "pitch": 34, 
                            "t0": 27840, 
                            "v": 127, 
                            "dur": 957, 
                            "type": "note", 
                            "channel": 0
                        }
                    ]
                ], 
                [
                    28800, 
                    [
                        {
                            "pitch": 29, 
                            "t0": 28800, 
                            "v": 127, 
                            "dur": 1917, 
                            "type": "note", 
                            "channel": 0
                        }
                    ]
                ], 
                [
                    38400, 
                    [
                        {
                            "pitch": 65, 
                            "t0": 38400, 
                            "v": 127, 
                            "dur": 1887, 
                            "type": "note", 
                            "channel": 0
                        }, 
                        {
                            "pitch": 53, 
                            "t0": 38400, 
                            "v": 127, 
                            "dur": 1910, 
                            "type": "note", 
                            "channel": 0
                        }, 
                        {
                            "pitch": 61, 
                            "t0": 38400, 
                            "v": 127, 
                            "dur": 1917, 
                            "type": "note", 
                            "channel": 0
                        }, 
                        {
                            "pitch": 56, 
                            "t0": 38400, 
                            "parts": [
                                [
                                    38400, 
                                    127
                                ], 
                                [
                                    40320, 
                                    127
                                ], 
                                [
                                    40327, 
                                    0
                                ]
                            ], 
                            "v": 127, 
                            "dur": 1927, 
                            "type": "note", 
                            "channel": 0
                        }
                    ]
                ], 
                [
                    40320, 
                    [
                        {
                            "pitch": 60, 
                            "t0": 40320, 
                            "v": 127, 
                            "dur": 1882, 
                            "type": "note", 
                            "channel": 0
                        }, 
                        {
                            "pitch": 53, 
                            "t0": 40320, 
                            "v": 127, 
                            "dur": 1882, 
                            "type": "note", 
                            "channel": 0
                        }, 
                        {
                            "pitch": 65, 
                            "t0": 40320, 
                            "v": 127, 
                            "dur": 1895, 
                            "type": "note", 
                            "channel": 0
                        }
                    ]
                ], 
                [
                    42237, 
                    [
                        {
                            "pitch": 56, 
                            "t0": 42237, 
                            "v": 127, 
                            "dur": 1858, 
                            "type": "note", 
                            "channel": 0
                        }, 
                        {
                            "pitch": 65, 
                            "t0": 42237, 
                            "v": 127, 
                            "dur": 1870, 
                            "type": "note", 
                            "channel": 0
                        }, 
                        {
                            "pitch": 61, 
                            "t0": 42237, 
                            "v": 127, 
                            "dur": 1888, 
                            "type": "note", 
                            "channel": 0
                        }, 
                        {
                            "pitch": 53, 
                            "t0": 42237, 
                            "v": 127, 
                            "dur": 1890, 
                            "type": "note", 
                            "channel": 0
                        }
                    ]
                ], 
                [
                    44157, 
                    [
                        {
                            "pitch": 65, 
                            "t0": 44157, 
                            "v": 127, 
                            "dur": 1903, 
                            "type": "note", 
                            "channel": 0
                        }, 
                        {
                            "pitch": 56, 
                            "t0": 44157, 
                            "v": 127, 
                            "dur": 1903, 
                            "type": "note", 
                            "channel": 0
                        }, 
                        {
                            "pitch": 60, 
                            "t0": 44157, 
                            "v": 127, 
                            "dur": 1905, 
                            "type": "note", 
                            "channel": 0
                        }, 
                        {
                            "pitch": 53, 
                            "t0": 44157, 
                            "v": 127, 
                            "dur": 1908, 
                            "type": "note", 
                            "channel": 0
                        }
                    ]
                ], 
                [
                    46077, 
                    [
                        {
                            "pitch": 65, 
                            "t0": 46077, 
                            "v": 127, 
                            "dur": 1888, 
                            "type": "note", 
                            "channel": 0
                        }, 
                        {
                            "pitch": 53, 
                            "t0": 46077, 
                            "v": 127, 
                            "dur": 1910, 
                            "type": "note", 
                            "channel": 0
                        }, 
                        {
                            "pitch": 61, 
                            "t0": 46077, 
                            "v": 127, 
                            "dur": 1918, 
                            "type": "note", 
                            "channel": 0
                        }, 
                        {
                            "pitch": 56, 
                            "t0": 46077, 
                            "parts": [
                                [
                                    46077, 
                                    127
                                ], 
                                [
                                    47997, 
                                    127
                                ], 
                                [
                                    48005, 
                                    0
                                ]
                            ], 
                            "v": 127, 
                            "dur": 1928, 
                            "type": "note", 
                            "channel": 0
                        }
                    ]
                ], 
                [
                    47997, 
                    [
                        {
                            "pitch": 60, 
                            "t0": 47997, 
                            "v": 127, 
                            "dur": 1885, 
                            "type": "note", 
                            "channel": 0
                        }, 
                        {
                            "pitch": 53, 
                            "t0": 47997, 
                            "v": 127, 
                            "dur": 1885, 
                            "type": "note", 
                            "channel": 0
                        }, 
                        {
                            "pitch": 65, 
                            "t0": 47997, 
                            "v": 127, 
                            "dur": 1898, 
                            "type": "note", 
                            "channel": 0
                        }
                    ]
                ], 
                [
                    49917, 
                    [
                        {
                            "pitch": 56, 
                            "t0": 49917, 
                            "v": 127, 
                            "dur": 1858, 
                            "type": "note", 
                            "channel": 0
                        }, 
                        {
                            "pitch": 65, 
                            "t0": 49917, 
                            "v": 127, 
                            "dur": 1870, 
                            "type": "note", 
                            "channel": 0
                        }, 
                        {
                            "pitch": 61, 
                            "t0": 49917, 
                            "v": 127, 
                            "dur": 1888, 
                            "type": "note", 
                            "channel": 0
                        }, 
                        {
                            "pitch": 53, 
                            "t0": 49917, 
                            "v": 127, 
                            "dur": 1890, 
                            "type": "note", 
                            "channel": 0
                        }
                    ]
                ], 
                [
                    51837, 
                    [
                        {
                            "pitch": 65, 
                            "t0": 51837, 
                            "v": 127, 
                            "dur": 1903, 
                            "type": "note", 
                            "channel": 0
                        }, 
                        {
                            "pitch": 56, 
                            "t0": 51837, 
                            "v": 127, 
                            "dur": 1903, 
                            "type": "note", 
                            "channel": 0
                        }, 
                        {
                            "pitch": 60, 
                            "t0": 51837, 
                            "v": 127, 
                            "dur": 1905, 
                            "type": "note", 
                            "channel": 0
                        }, 
                        {
                            "pitch": 53, 
                            "t0": 51837, 
                            "v": 127, 
                            "dur": 1908, 
                            "type": "note", 
                            "channel": 0
                        }
                    ]
                ], 
                [
                    53757, 
                    [
                        {
                            "pitch": 65, 
                            "t0": 53757, 
                            "v": 127, 
                            "dur": 1888, 
                            "type": "note", 
                            "channel": 0
                        }, 
                        {
                            "pitch": 53, 
                            "t0": 53757, 
                            "v": 127, 
                            "dur": 1910, 
                            "type": "note", 
                            "channel": 0
                        }, 
                        {
                            "pitch": 61, 
                            "t0": 53757, 
                            "v": 127, 
                            "dur": 1918, 
                            "type": "note", 
                            "channel": 0
                        }, 
                        {
                            "pitch": 56, 
                            "t0": 53757, 
                            "parts": [
                                [
                                    53757, 
                                    127
                                ], 
                                [
                                    55677, 
                                    127
                                ], 
                                [
                                    55685, 
                                    0
                                ]
                            ], 
                            "v": 127, 
                            "dur": 1928, 
                            "type": "note", 
                            "channel": 0
                        }
                    ]
                ], 
                [
                    55677, 
                    [
                        {
                            "pitch": 60, 
                            "t0": 55677, 
                            "v": 127, 
                            "dur": 1885, 
                            "type": "note", 
                            "channel": 0
                        }, 
                        {
                            "pitch": 53, 
                            "t0": 55677, 
                            "v": 127, 
                            "dur": 1885, 
                            "type": "note", 
                            "channel": 0
                        }, 
                        {
                            "pitch": 65, 
                            "t0": 55677, 
                            "v": 127, 
                            "dur": 1898, 
                            "type": "note", 
                            "channel": 0
                        }
                    ]
                ], 
                [
                    57597, 
                    [
                        {
                            "pitch": 56, 
                            "t0": 57597, 
                            "v": 127, 
                            "dur": 1858, 
                            "type": "note", 
                            "channel": 0
                        }, 
                        {
                            "pitch": 65, 
                            "t0": 57597, 
                            "v": 127, 
                            "dur": 1870, 
                            "type": "note", 
                            "channel": 0
                        }, 
                        {
                            "pitch": 61, 
                            "t0": 57597, 
                            "v": 127, 
                            "dur": 1888, 
                            "type": "note", 
                            "channel": 0
                        }, 
                        {
                            "pitch": 53, 
                            "t0": 57597, 
                            "v": 127, 
                            "dur": 1890, 
                            "type": "note", 
                            "channel": 0
                        }
                    ]
                ], 
                [
                    59517, 
                    [
                        {
                            "pitch": 65, 
                            "t0": 59517, 
                            "v": 127, 
                            "dur": 1903, 
                            "type": "note", 
                            "channel": 0
                        }, 
                        {
                            "pitch": 56, 
                            "t0": 59517, 
                            "v": 127, 
                            "dur": 1903, 
                            "type": "note", 
                            "channel": 0
                        }, 
                        {
                            "pitch": 60, 
                            "t0": 59517, 
                            "v": 127, 
                            "dur": 1905, 
                            "type": "note", 
                            "channel": 0
                        }, 
                        {
                            "pitch": 53, 
                            "t0": 59517, 
                            "v": 127, 
                            "dur": 1908, 
                            "type": "note", 
                            "channel": 0
                        }
                    ]
                ], 
                [
                    61437, 
                    [
                        {
                            "pitch": 65, 
                            "t0": 61437, 
                            "v": 127, 
                            "dur": 1888, 
                            "type": "note", 
                            "channel": 0
                        }, 
                        {
                            "pitch": 53, 
                            "t0": 61437, 
                            "v": 127, 
                            "dur": 1910, 
                            "type": "note", 
                            "channel": 0
                        }, 
                        {
                            "pitch": 61, 
                            "t0": 61437, 
                            "v": 127, 
                            "dur": 1918, 
                            "type": "note", 
                            "channel": 0
                        }, 
                        {
                            "pitch": 56, 
                            "t0": 61437, 
                            "parts": [
                                [
                                    61437, 
                                    127
                                ], 
                                [
                                    63357, 
                                    127
                                ], 
                                [
                                    63365, 
                                    0
                                ]
                            ], 
                            "v": 127, 
                            "dur": 1928, 
                            "type": "note", 
                            "channel": 0
                        }
                    ]
                ], 
                [
                    63357, 
                    [
                        {
                            "pitch": 60, 
                            "t0": 63357, 
                            "v": 127, 
                            "dur": 1885, 
                            "type": "note", 
                            "channel": 0
                        }, 
                        {
                            "pitch": 53, 
                            "t0": 63357, 
                            "v": 127, 
                            "dur": 1885, 
                            "type": "note", 
                            "channel": 0
                        }, 
                        {
                            "pitch": 65, 
                            "t0": 63357, 
                            "v": 127, 
                            "dur": 1898, 
                            "type": "note", 
                            "channel": 0
                        }
                    ]
                ], 
                [
                    65277, 
                    [
                        {
                            "pitch": 56, 
                            "t0": 65277, 
                            "v": 127, 
                            "dur": 1858, 
                            "type": "note", 
                            "channel": 0
                        }, 
                        {
                            "pitch": 65, 
                            "t0": 65277, 
                            "v": 127, 
                            "dur": 1870, 
                            "type": "note", 
                            "channel": 0
                        }, 
                        {
                            "pitch": 61, 
                            "t0": 65277, 
                            "v": 127, 
                            "dur": 1888, 
                            "type": "note", 
                            "channel": 0
                        }, 
                        {
                            "pitch": 53, 
                            "t0": 65277, 
                            "v": 127, 
                            "dur": 1890, 
                            "type": "note", 
                            "channel": 0
                        }
                    ]
                ], 
                [
                    67197, 
                    [
                        {
                            "pitch": 65, 
                            "t0": 67197, 
                            "v": 127, 
                            "dur": 1900, 
                            "type": "note", 
                            "channel": 0
                        }, 
                        {
                            "pitch": 56, 
                            "t0": 67197, 
                            "v": 127, 
                            "dur": 1900, 
                            "type": "note", 
                            "channel": 0
                        }, 
                        {
                            "pitch": 60, 
                            "t0": 67197, 
                            "v": 127, 
                            "dur": 1903, 
                            "type": "note", 
                            "channel": 0
                        }, 
                        {
                            "pitch": 53, 
                            "t0": 67197, 
                            "v": 127, 
                            "dur": 1905, 
                            "type": "note", 
                            "channel": 0
                        }
                    ]
                ], 
                [
                    69115, 
                    [
                        {
                            "pitch": 65, 
                            "t0": 69115, 
                            "v": 127, 
                            "dur": 1887, 
                            "type": "note", 
                            "channel": 0
                        }, 
                        {
                            "pitch": 53, 
                            "t0": 69115, 
                            "v": 127, 
                            "dur": 1910, 
                            "type": "note", 
                            "channel": 0
                        }, 
                        {
                            "pitch": 61, 
                            "t0": 69115, 
                            "v": 127, 
                            "dur": 1917, 
                            "type": "note", 
                            "channel": 0
                        }, 
                        {
                            "pitch": 56, 
                            "t0": 69115, 
                            "parts": [
                                [
                                    69115, 
                                    127
                                ], 
                                [
                                    71035, 
                                    127
                                ], 
                                [
                                    71042, 
                                    0
                                ]
                            ], 
                            "v": 127, 
                            "dur": 1927, 
                            "type": "note", 
                            "channel": 0
                        }
                    ]
                ], 
                [
                    71035, 
                    [
                        {
                            "pitch": 60, 
                            "t0": 71035, 
                            "v": 127, 
                            "dur": 1885, 
                            "type": "note", 
                            "channel": 0
                        }, 
                        {
                            "pitch": 53, 
                            "t0": 71035, 
                            "v": 127, 
                            "dur": 1885, 
                            "type": "note", 
                            "channel": 0
                        }, 
                        {
                            "pitch": 65, 
                            "t0": 71035, 
                            "v": 127, 
                            "dur": 1897, 
                            "type": "note", 
                            "channel": 0
                        }
                    ]
                ], 
                [
                    72955, 
                    [
                        {
                            "pitch": 56, 
                            "t0": 72955, 
                            "v": 127, 
                            "dur": 1857, 
                            "type": "note", 
                            "channel": 0
                        }, 
                        {
                            "pitch": 65, 
                            "t0": 72955, 
                            "v": 127, 
                            "dur": 1870, 
                            "type": "note", 
                            "channel": 0
                        }, 
                        {
                            "pitch": 61, 
                            "t0": 72955, 
                            "v": 127, 
                            "dur": 1887, 
                            "type": "note", 
                            "channel": 0
                        }, 
                        {
                            "pitch": 53, 
                            "t0": 72955, 
                            "v": 127, 
                            "dur": 1890, 
                            "type": "note", 
                            "channel": 0
                        }
                    ]
                ], 
                [
                    74875, 
                    [
                        {
                            "pitch": 65, 
                            "t0": 74875, 
                            "v": 127, 
                            "dur": 1902, 
                            "type": "note", 
                            "channel": 0
                        }, 
                        {
                            "pitch": 56, 
                            "t0": 74875, 
                            "v": 127, 
                            "dur": 1902, 
                            "type": "note", 
                            "channel": 0
                        }, 
                        {
                            "pitch": 60, 
                            "t0": 74875, 
                            "v": 127, 
                            "dur": 1905, 
                            "type": "note", 
                            "channel": 0
                        }, 
                        {
                            "pitch": 53, 
                            "t0": 74875, 
                            "v": 127, 
                            "dur": 1907, 
                            "type": "note", 
                            "channel": 0
                        }
                    ]
                ], 
                [
                    76795, 
                    [
                        {
                            "pitch": 65, 
                            "t0": 76795, 
                            "v": 127, 
                            "dur": 1887, 
                            "type": "note", 
                            "channel": 0
                        }, 
                        {
                            "pitch": 53, 
                            "t0": 76795, 
                            "v": 127, 
                            "dur": 1910, 
                            "type": "note", 
                            "channel": 0
                        }, 
                        {
                            "pitch": 61, 
                            "t0": 76795, 
                            "v": 127, 
                            "dur": 1917, 
                            "type": "note", 
                            "channel": 0
                        }, 
                        {
                            "pitch": 56, 
                            "t0": 76795, 
                            "parts": [
                                [
                                    76795, 
                                    127
                                ], 
                                [
                                    78715, 
                                    127
                                ], 
                                [
                                    78722, 
                                    0
                                ]
                            ], 
                            "v": 127, 
                            "dur": 1927, 
                            "type": "note", 
                            "channel": 0
                        }
                    ]
                ], 
                [
                    78715, 
                    [
                        {
                            "pitch": 60, 
                            "t0": 78715, 
                            "v": 127, 
                            "dur": 1885, 
                            "type": "note", 
                            "channel": 0
                        }, 
                        {
                            "pitch": 53, 
                            "t0": 78715, 
                            "v": 127, 
                            "dur": 1885, 
                            "type": "note", 
                            "channel": 0
                        }, 
                        {
                            "pitch": 65, 
                            "t0": 78715, 
                            "v": 127, 
                            "dur": 1897, 
                            "type": "note", 
                            "channel": 0
                        }
                    ]
                ], 
                [
                    80635, 
                    [
                        {
                            "pitch": 56, 
                            "t0": 80635, 
                            "v": 127, 
                            "dur": 1857, 
                            "type": "note", 
                            "channel": 0
                        }, 
                        {
                            "pitch": 65, 
                            "t0": 80635, 
                            "v": 127, 
                            "dur": 1870, 
                            "type": "note", 
                            "channel": 0
                        }, 
                        {
                            "pitch": 61, 
                            "t0": 80635, 
                            "v": 127, 
                            "dur": 1887, 
                            "type": "note", 
                            "channel": 0
                        }, 
                        {
                            "pitch": 53, 
                            "t0": 80635, 
                            "v": 127, 
                            "dur": 1890, 
                            "type": "note", 
                            "channel": 0
                        }
                    ]
                ], 
                [
                    82555, 
                    [
                        {
                            "pitch": 65, 
                            "t0": 82555, 
                            "v": 127, 
                            "dur": 2448, 
                            "type": "note", 
                            "channel": 0
                        }, 
                        {
                            "pitch": 60, 
                            "t0": 82555, 
                            "v": 127, 
                            "dur": 2448, 
                            "type": "note", 
                            "channel": 0
                        }, 
                        {
                            "pitch": 56, 
                            "t0": 82555, 
                            "v": 127, 
                            "dur": 2448, 
                            "type": "note", 
                            "channel": 0
                        }, 
                        {
                            "pitch": 53, 
                            "t0": 82555, 
                            "v": 127, 
                            "dur": 2460, 
                            "type": "note", 
                            "channel": 0
                        }
                    ]
                ]
            ], 
            "instruments": [
                89
            ], 
            "tMax": 82555, 
            "channels": [
                0
            ], 
            "instrument": 89, 
            "numNotes": 114, 
            "type": "TrackObj"
        }, 
        {
            "trackName": "Strings", 
            "seq": [
                [
                    0, 
                    [
                        {
                            "instrument": 49, 
                            "type": "programChange", 
                            "t0": 0, 
                            "channel": 1
                        }, 
                        {
                            "pitch": 67, 
                            "t0": 0, 
                            "v": 127, 
                            "dur": 957, 
                            "type": "note", 
                            "channel": 1
                        }
                    ]
                ], 
                [
                    950, 
                    [
                        {
                            "pitch": 63, 
                            "t0": 950, 
                            "v": 127, 
                            "dur": 982, 
                            "type": "note", 
                            "channel": 1
                        }
                    ]
                ], 
                [
                    1910, 
                    [
                        {
                            "pitch": 60, 
                            "t0": 1910, 
                            "v": 127, 
                            "dur": 1935, 
                            "type": "note", 
                            "channel": 1
                        }
                    ]
                ], 
                [
                    3830, 
                    [
                        {
                            "pitch": 67, 
                            "t0": 3830, 
                            "v": 126, 
                            "dur": 990, 
                            "type": "note", 
                            "channel": 1
                        }
                    ]
                ], 
                [
                    4790, 
                    [
                        {
                            "pitch": 63, 
                            "t0": 4790, 
                            "v": 127, 
                            "dur": 977, 
                            "type": "note", 
                            "channel": 1
                        }
                    ]
                ], 
                [
                    5750, 
                    [
                        {
                            "pitch": 65, 
                            "t0": 5750, 
                            "v": 127, 
                            "dur": 1917, 
                            "type": "note", 
                            "channel": 1
                        }
                    ]
                ], 
                [
                    7670, 
                    [
                        {
                            "pitch": 67, 
                            "t0": 7670, 
                            "v": 127, 
                            "dur": 967, 
                            "type": "note", 
                            "channel": 1
                        }
                    ]
                ], 
                [
                    8630, 
                    [
                        {
                            "pitch": 63, 
                            "t0": 8630, 
                            "v": 127, 
                            "dur": 982, 
                            "type": "note", 
                            "channel": 1
                        }
                    ]
                ], 
                [
                    9590, 
                    [
                        {
                            "pitch": 60, 
                            "t0": 9590, 
                            "v": 127, 
                            "dur": 1935, 
                            "type": "note", 
                            "channel": 1
                        }
                    ]
                ], 
                [
                    11510, 
                    [
                        {
                            "pitch": 67, 
                            "t0": 11510, 
                            "v": 126, 
                            "dur": 990, 
                            "type": "note", 
                            "channel": 1
                        }
                    ]
                ], 
                [
                    12470, 
                    [
                        {
                            "pitch": 63, 
                            "t0": 12470, 
                            "v": 127, 
                            "dur": 977, 
                            "type": "note", 
                            "channel": 1
                        }
                    ]
                ], 
                [
                    13430, 
                    [
                        {
                            "pitch": 65, 
                            "t0": 13430, 
                            "v": 127, 
                            "dur": 1917, 
                            "type": "note", 
                            "channel": 1
                        }
                    ]
                ], 
                [
                    15350, 
                    [
                        {
                            "pitch": 67, 
                            "t0": 15350, 
                            "v": 127, 
                            "dur": 967, 
                            "type": "note", 
                            "channel": 1
                        }
                    ]
                ], 
                [
                    16310, 
                    [
                        {
                            "pitch": 63, 
                            "t0": 16310, 
                            "v": 127, 
                            "dur": 982, 
                            "type": "note", 
                            "channel": 1
                        }
                    ]
                ], 
                [
                    17270, 
                    [
                        {
                            "pitch": 60, 
                            "t0": 17270, 
                            "v": 127, 
                            "dur": 1935, 
                            "type": "note", 
                            "channel": 1
                        }
                    ]
                ], 
                [
                    19190, 
                    [
                        {
                            "pitch": 67, 
                            "t0": 19190, 
                            "v": 126, 
                            "dur": 990, 
                            "type": "note", 
                            "channel": 1
                        }
                    ]
                ], 
                [
                    20150, 
                    [
                        {
                            "pitch": 63, 
                            "t0": 20150, 
                            "v": 127, 
                            "dur": 977, 
                            "type": "note", 
                            "channel": 1
                        }
                    ]
                ], 
                [
                    21110, 
                    [
                        {
                            "pitch": 65, 
                            "t0": 21110, 
                            "v": 127, 
                            "dur": 1917, 
                            "type": "note", 
                            "channel": 1
                        }
                    ]
                ], 
                [
                    23030, 
                    [
                        {
                            "pitch": 67, 
                            "t0": 23030, 
                            "v": 127, 
                            "dur": 967, 
                            "type": "note", 
                            "channel": 1
                        }
                    ]
                ], 
                [
                    23990, 
                    [
                        {
                            "pitch": 63, 
                            "t0": 23990, 
                            "v": 127, 
                            "dur": 982, 
                            "type": "note", 
                            "channel": 1
                        }
                    ]
                ], 
                [
                    24950, 
                    [
                        {
                            "pitch": 60, 
                            "t0": 24950, 
                            "v": 127, 
                            "dur": 1935, 
                            "type": "note", 
                            "channel": 1
                        }
                    ]
                ], 
                [
                    26870, 
                    [
                        {
                            "pitch": 67, 
                            "t0": 26870, 
                            "v": 126, 
                            "dur": 990, 
                            "type": "note", 
                            "channel": 1
                        }
                    ]
                ], 
                [
                    27830, 
                    [
                        {
                            "pitch": 63, 
                            "t0": 27830, 
                            "v": 127, 
                            "dur": 977, 
                            "type": "note", 
                            "channel": 1
                        }
                    ]
                ], 
                [
                    28790, 
                    [
                        {
                            "pitch": 65, 
                            "t0": 28790, 
                            "v": 127, 
                            "dur": 127, 
                            "type": "note", 
                            "channel": 1
                        }
                    ]
                ], 
                [
                    30710, 
                    [
                        {
                            "pitch": 41, 
                            "t0": 30710, 
                            "v": 96, 
                            "dur": 16315, 
                            "type": "note", 
                            "channel": 1
                        }
                    ]
                ], 
                [
                    38390, 
                    [
                        {
                            "pitch": 77, 
                            "t0": 38390, 
                            "v": 127, 
                            "dur": 975, 
                            "type": "note", 
                            "channel": 1
                        }
                    ]
                ], 
                [
                    40190, 
                    [
                        {
                            "pitch": 72, 
                            "t0": 40190, 
                            "v": 127, 
                            "dur": 57, 
                            "type": "note", 
                            "channel": 1
                        }
                    ]
                ], 
                [
                    40250, 
                    [
                        {
                            "pitch": 73, 
                            "t0": 40250, 
                            "v": 127, 
                            "dur": 57, 
                            "type": "note", 
                            "channel": 1
                        }
                    ]
                ], 
                [
                    40310, 
                    [
                        {
                            "pitch": 75, 
                            "t0": 40310, 
                            "v": 127, 
                            "dur": 127, 
                            "type": "note", 
                            "channel": 1
                        }
                    ]
                ], 
                [
                    42107, 
                    [
                        {
                            "pitch": 70, 
                            "t0": 42107, 
                            "v": 127, 
                            "dur": 58, 
                            "type": "note", 
                            "channel": 1
                        }
                    ]
                ], 
                [
                    42167, 
                    [
                        {
                            "pitch": 72, 
                            "t0": 42167, 
                            "v": 127, 
                            "dur": 58, 
                            "type": "note", 
                            "channel": 1
                        }
                    ]
                ], 
                [
                    42227, 
                    [
                        {
                            "pitch": 73, 
                            "t0": 42227, 
                            "v": 127, 
                            "dur": 1933, 
                            "type": "note", 
                            "channel": 1
                        }
                    ]
                ], 
                [
                    44027, 
                    [
                        {
                            "pitch": 68, 
                            "t0": 44027, 
                            "v": 127, 
                            "dur": 58, 
                            "type": "note", 
                            "channel": 1
                        }
                    ]
                ], 
                [
                    44087, 
                    [
                        {
                            "pitch": 70, 
                            "t0": 44087, 
                            "v": 127, 
                            "dur": 58, 
                            "type": "note", 
                            "channel": 1
                        }
                    ]
                ], 
                [
                    44147, 
                    [
                        {
                            "pitch": 72, 
                            "t0": 44147, 
                            "v": 127, 
                            "dur": 1918, 
                            "type": "note", 
                            "channel": 1
                        }
                    ]
                ], 
                [
                    46067, 
                    [
                        {
                            "pitch": 77, 
                            "t0": 46067, 
                            "v": 127, 
                            "dur": 975, 
                            "type": "note", 
                            "channel": 1
                        }
                    ]
                ], 
                [
                    47867, 
                    [
                        {
                            "pitch": 72, 
                            "t0": 47867, 
                            "v": 127, 
                            "dur": 58, 
                            "type": "note", 
                            "channel": 1
                        }
                    ]
                ], 
                [
                    47927, 
                    [
                        {
                            "pitch": 73, 
                            "t0": 47927, 
                            "v": 127, 
                            "dur": 58, 
                            "type": "note", 
                            "channel": 1
                        }
                    ]
                ], 
                [
                    47987, 
                    [
                        {
                            "pitch": 75, 
                            "t0": 47987, 
                            "v": 127, 
                            "dur": 128, 
                            "type": "note", 
                            "channel": 1
                        }
                    ]
                ], 
                [
                    49787, 
                    [
                        {
                            "pitch": 70, 
                            "t0": 49787, 
                            "v": 127, 
                            "dur": 58, 
                            "type": "note", 
                            "channel": 1
                        }
                    ]
                ], 
                [
                    49847, 
                    [
                        {
                            "pitch": 72, 
                            "t0": 49847, 
                            "v": 127, 
                            "dur": 58, 
                            "type": "note", 
                            "channel": 1
                        }
                    ]
                ], 
                [
                    49907, 
                    [
                        {
                            "pitch": 73, 
                            "t0": 49907, 
                            "v": 127, 
                            "dur": 1933, 
                            "type": "note", 
                            "channel": 1
                        }
                    ]
                ], 
                [
                    51707, 
                    [
                        {
                            "pitch": 68, 
                            "t0": 51707, 
                            "v": 127, 
                            "dur": 58, 
                            "type": "note", 
                            "channel": 1
                        }
                    ]
                ], 
                [
                    51767, 
                    [
                        {
                            "pitch": 70, 
                            "t0": 51767, 
                            "v": 127, 
                            "dur": 58, 
                            "type": "note", 
                            "channel": 1
                        }
                    ]
                ], 
                [
                    51827, 
                    [
                        {
                            "pitch": 72, 
                            "t0": 51827, 
                            "v": 127, 
                            "dur": 1918, 
                            "type": "note", 
                            "channel": 1
                        }
                    ]
                ], 
                [
                    53747, 
                    [
                        {
                            "pitch": 77, 
                            "t0": 53747, 
                            "v": 127, 
                            "dur": 975, 
                            "type": "note", 
                            "channel": 1
                        }
                    ]
                ], 
                [
                    55547, 
                    [
                        {
                            "pitch": 72, 
                            "t0": 55547, 
                            "v": 127, 
                            "dur": 58, 
                            "type": "note", 
                            "channel": 1
                        }
                    ]
                ], 
                [
                    55607, 
                    [
                        {
                            "pitch": 73, 
                            "t0": 55607, 
                            "v": 127, 
                            "dur": 58, 
                            "type": "note", 
                            "channel": 1
                        }
                    ]
                ], 
                [
                    55667, 
                    [
                        {
                            "pitch": 75, 
                            "t0": 55667, 
                            "v": 127, 
                            "dur": 128, 
                            "type": "note", 
                            "channel": 1
                        }
                    ]
                ], 
                [
                    57467, 
                    [
                        {
                            "pitch": 70, 
                            "t0": 57467, 
                            "v": 127, 
                            "dur": 58, 
                            "type": "note", 
                            "channel": 1
                        }
                    ]
                ], 
                [
                    57527, 
                    [
                        {
                            "pitch": 72, 
                            "t0": 57527, 
                            "v": 127, 
                            "dur": 58, 
                            "type": "note", 
                            "channel": 1
                        }
                    ]
                ], 
                [
                    57587, 
                    [
                        {
                            "pitch": 73, 
                            "t0": 57587, 
                            "v": 127, 
                            "dur": 1933, 
                            "type": "note", 
                            "channel": 1
                        }
                    ]
                ], 
                [
                    59387, 
                    [
                        {
                            "pitch": 68, 
                            "t0": 59387, 
                            "v": 127, 
                            "dur": 58, 
                            "type": "note", 
                            "channel": 1
                        }
                    ]
                ], 
                [
                    59447, 
                    [
                        {
                            "pitch": 70, 
                            "t0": 59447, 
                            "v": 127, 
                            "dur": 58, 
                            "type": "note", 
                            "channel": 1
                        }
                    ]
                ], 
                [
                    59507, 
                    [
                        {
                            "pitch": 72, 
                            "t0": 59507, 
                            "v": 127, 
                            "dur": 1918, 
                            "type": "note", 
                            "channel": 1
                        }
                    ]
                ], 
                [
                    61427, 
                    [
                        {
                            "pitch": 77, 
                            "t0": 61427, 
                            "v": 127, 
                            "dur": 975, 
                            "type": "note", 
                            "channel": 1
                        }
                    ]
                ], 
                [
                    63227, 
                    [
                        {
                            "pitch": 72, 
                            "t0": 63227, 
                            "v": 127, 
                            "dur": 58, 
                            "type": "note", 
                            "channel": 1
                        }
                    ]
                ], 
                [
                    63287, 
                    [
                        {
                            "pitch": 73, 
                            "t0": 63287, 
                            "v": 127, 
                            "dur": 58, 
                            "type": "note", 
                            "channel": 1
                        }
                    ]
                ], 
                [
                    63347, 
                    [
                        {
                            "pitch": 75, 
                            "t0": 63347, 
                            "v": 127, 
                            "dur": 128, 
                            "type": "note", 
                            "channel": 1
                        }
                    ]
                ], 
                [
                    65147, 
                    [
                        {
                            "pitch": 70, 
                            "t0": 65147, 
                            "v": 127, 
                            "dur": 58, 
                            "type": "note", 
                            "channel": 1
                        }
                    ]
                ], 
                [
                    65207, 
                    [
                        {
                            "pitch": 72, 
                            "t0": 65207, 
                            "v": 127, 
                            "dur": 58, 
                            "type": "note", 
                            "channel": 1
                        }
                    ]
                ], 
                [
                    65267, 
                    [
                        {
                            "pitch": 73, 
                            "t0": 65267, 
                            "v": 127, 
                            "dur": 1933, 
                            "type": "note", 
                            "channel": 1
                        }
                    ]
                ], 
                [
                    67067, 
                    [
                        {
                            "pitch": 68, 
                            "t0": 67067, 
                            "v": 127, 
                            "dur": 58, 
                            "type": "note", 
                            "channel": 1
                        }
                    ]
                ], 
                [
                    67127, 
                    [
                        {
                            "pitch": 70, 
                            "t0": 67127, 
                            "v": 127, 
                            "dur": 58, 
                            "type": "note", 
                            "channel": 1
                        }
                    ]
                ], 
                [
                    67187, 
                    [
                        {
                            "pitch": 72, 
                            "t0": 67187, 
                            "v": 127, 
                            "dur": 1915, 
                            "type": "note", 
                            "channel": 1
                        }
                    ]
                ], 
                [
                    69105, 
                    [
                        {
                            "pitch": 77, 
                            "t0": 69105, 
                            "v": 127, 
                            "dur": 975, 
                            "type": "note", 
                            "channel": 1
                        }
                    ]
                ], 
                [
                    70905, 
                    [
                        {
                            "pitch": 72, 
                            "t0": 70905, 
                            "v": 127, 
                            "dur": 57, 
                            "type": "note", 
                            "channel": 1
                        }
                    ]
                ], 
                [
                    70965, 
                    [
                        {
                            "pitch": 73, 
                            "t0": 70965, 
                            "v": 127, 
                            "dur": 57, 
                            "type": "note", 
                            "channel": 1
                        }
                    ]
                ], 
                [
                    71025, 
                    [
                        {
                            "pitch": 75, 
                            "t0": 71025, 
                            "v": 127, 
                            "dur": 127, 
                            "type": "note", 
                            "channel": 1
                        }
                    ]
                ], 
                [
                    72825, 
                    [
                        {
                            "pitch": 70, 
                            "t0": 72825, 
                            "v": 127, 
                            "dur": 57, 
                            "type": "note", 
                            "channel": 1
                        }
                    ]
                ], 
                [
                    72885, 
                    [
                        {
                            "pitch": 72, 
                            "t0": 72885, 
                            "v": 127, 
                            "dur": 57, 
                            "type": "note", 
                            "channel": 1
                        }
                    ]
                ], 
                [
                    72945, 
                    [
                        {
                            "pitch": 73, 
                            "t0": 72945, 
                            "v": 127, 
                            "dur": 1932, 
                            "type": "note", 
                            "channel": 1
                        }
                    ]
                ], 
                [
                    74745, 
                    [
                        {
                            "pitch": 68, 
                            "t0": 74745, 
                            "v": 127, 
                            "dur": 57, 
                            "type": "note", 
                            "channel": 1
                        }
                    ]
                ], 
                [
                    74805, 
                    [
                        {
                            "pitch": 70, 
                            "t0": 74805, 
                            "v": 127, 
                            "dur": 57, 
                            "type": "note", 
                            "channel": 1
                        }
                    ]
                ], 
                [
                    74865, 
                    [
                        {
                            "pitch": 72, 
                            "t0": 74865, 
                            "v": 127, 
                            "dur": 1917, 
                            "type": "note", 
                            "channel": 1
                        }
                    ]
                ], 
                [
                    76785, 
                    [
                        {
                            "pitch": 77, 
                            "t0": 76785, 
                            "v": 127, 
                            "dur": 975, 
                            "type": "note", 
                            "channel": 1
                        }
                    ]
                ], 
                [
                    78585, 
                    [
                        {
                            "pitch": 72, 
                            "t0": 78585, 
                            "v": 127, 
                            "dur": 57, 
                            "type": "note", 
                            "channel": 1
                        }
                    ]
                ], 
                [
                    78645, 
                    [
                        {
                            "pitch": 73, 
                            "t0": 78645, 
                            "v": 127, 
                            "dur": 57, 
                            "type": "note", 
                            "channel": 1
                        }
                    ]
                ], 
                [
                    78705, 
                    [
                        {
                            "pitch": 75, 
                            "t0": 78705, 
                            "v": 127, 
                            "dur": 127, 
                            "type": "note", 
                            "channel": 1
                        }
                    ]
                ], 
                [
                    80505, 
                    [
                        {
                            "pitch": 70, 
                            "t0": 80505, 
                            "v": 127, 
                            "dur": 57, 
                            "type": "note", 
                            "channel": 1
                        }
                    ]
                ], 
                [
                    80565, 
                    [
                        {
                            "pitch": 72, 
                            "t0": 80565, 
                            "v": 127, 
                            "dur": 57, 
                            "type": "note", 
                            "channel": 1
                        }
                    ]
                ], 
                [
                    80625, 
                    [
                        {
                            "pitch": 73, 
                            "t0": 80625, 
                            "v": 127, 
                            "dur": 1932, 
                            "type": "note", 
                            "channel": 1
                        }
                    ]
                ], 
                [
                    82425, 
                    [
                        {
                            "pitch": 68, 
                            "t0": 82425, 
                            "v": 127, 
                            "dur": 57, 
                            "type": "note", 
                            "channel": 1
                        }
                    ]
                ], 
                [
                    82485, 
                    [
                        {
                            "pitch": 70, 
                            "t0": 82485, 
                            "v": 127, 
                            "dur": 57, 
                            "type": "note", 
                            "channel": 1
                        }
                    ]
                ], 
                [
                    82545, 
                    [
                        {
                            "pitch": 72, 
                            "t0": 82545, 
                            "v": 127, 
                            "dur": 1917, 
                            "type": "note", 
                            "channel": 1
                        }
                    ]
                ]
            ], 
            "instruments": [
                49
            ], 
            "tMax": 82545, 
            "channels": [
                1
            ], 
            "instrument": 49, 
            "numNotes": 85, 
            "type": "TrackObj"
        }, 
        {
            "trackName": "Drums", 
            "seq": [
                [
                    0, 
                    [
                        {
                            "instrument": 0, 
                            "type": "programChange", 
                            "t0": 0, 
                            "channel": 9
                        }, 
                        {
                            "instrument": 0, 
                            "type": "programChange", 
                            "t0": 0, 
                            "channel": 9
                        }
                    ]
                ], 
                [
                    135, 
                    [
                        {
                            "pitch": 47, 
                            "t0": 135, 
                            "v": 60, 
                            "dur": 57, 
                            "type": "note", 
                            "channel": 9
                        }
                    ]
                ], 
                [
                    267, 
                    [
                        {
                            "pitch": 47, 
                            "t0": 267, 
                            "v": 49, 
                            "dur": 57, 
                            "type": "note", 
                            "channel": 9
                        }
                    ]
                ], 
                [
                    512, 
                    [
                        {
                            "pitch": 47, 
                            "t0": 512, 
                            "v": 44, 
                            "dur": 78, 
                            "type": "note", 
                            "channel": 9
                        }
                    ]
                ], 
                [
                    660, 
                    [
                        {
                            "pitch": 45, 
                            "t0": 660, 
                            "v": 44, 
                            "dur": 88, 
                            "type": "note", 
                            "channel": 9
                        }
                    ]
                ], 
                [
                    663, 
                    [
                        {
                            "pitch": 43, 
                            "t0": 663, 
                            "v": 52, 
                            "dur": 76, 
                            "type": "note", 
                            "channel": 9
                        }, 
                        {
                            "pitch": 41, 
                            "t0": 663, 
                            "v": 52, 
                            "dur": 77, 
                            "type": "note", 
                            "channel": 9
                        }
                    ]
                ], 
                [
                    920, 
                    [
                        {
                            "pitch": 45, 
                            "t0": 920, 
                            "v": 127, 
                            "dur": 94, 
                            "type": "note", 
                            "channel": 9
                        }
                    ]
                ], 
                [
                    924, 
                    [
                        {
                            "pitch": 41, 
                            "t0": 924, 
                            "v": 127, 
                            "dur": 83, 
                            "type": "note", 
                            "channel": 9
                        }, 
                        {
                            "pitch": 43, 
                            "t0": 924, 
                            "v": 127, 
                            "dur": 85, 
                            "type": "note", 
                            "channel": 9
                        }
                    ]
                ], 
                [
                    1180, 
                    [
                        {
                            "pitch": 47, 
                            "t0": 1180, 
                            "v": 76, 
                            "dur": 61, 
                            "type": "note", 
                            "channel": 9
                        }
                    ]
                ], 
                [
                    1308, 
                    [
                        {
                            "pitch": 47, 
                            "t0": 1308, 
                            "v": 60, 
                            "dur": 55, 
                            "type": "note", 
                            "channel": 9
                        }
                    ]
                ], 
                [
                    1563, 
                    [
                        {
                            "pitch": 47, 
                            "t0": 1563, 
                            "v": 47, 
                            "dur": 76, 
                            "type": "note", 
                            "channel": 9
                        }
                    ]
                ], 
                [
                    1704, 
                    [
                        {
                            "pitch": 45, 
                            "t0": 1704, 
                            "v": 58, 
                            "dur": 108, 
                            "type": "note", 
                            "channel": 9
                        }
                    ]
                ], 
                [
                    1705, 
                    [
                        {
                            "pitch": 41, 
                            "t0": 1705, 
                            "v": 50, 
                            "dur": 96, 
                            "type": "note", 
                            "channel": 9
                        }
                    ]
                ], 
                [
                    1708, 
                    [
                        {
                            "pitch": 43, 
                            "t0": 1708, 
                            "v": 54, 
                            "dur": 98, 
                            "type": "note", 
                            "channel": 9
                        }
                    ]
                ], 
                [
                    1961, 
                    [
                        {
                            "pitch": 45, 
                            "t0": 1961, 
                            "v": 127, 
                            "dur": 106, 
                            "type": "note", 
                            "channel": 9
                        }
                    ]
                ], 
                [
                    1965, 
                    [
                        {
                            "pitch": 41, 
                            "t0": 1965, 
                            "v": 127, 
                            "dur": 90, 
                            "type": "note", 
                            "channel": 9
                        }
                    ]
                ], 
                [
                    1967, 
                    [
                        {
                            "pitch": 43, 
                            "t0": 1967, 
                            "v": 127, 
                            "dur": 92, 
                            "type": "note", 
                            "channel": 9
                        }
                    ]
                ], 
                [
                    2226, 
                    [
                        {
                            "pitch": 47, 
                            "t0": 2226, 
                            "v": 80, 
                            "dur": 62, 
                            "type": "note", 
                            "channel": 9
                        }
                    ]
                ], 
                [
                    2355, 
                    [
                        {
                            "pitch": 47, 
                            "t0": 2355, 
                            "v": 72, 
                            "dur": 72, 
                            "type": "note", 
                            "channel": 9
                        }
                    ]
                ], 
                [
                    2612, 
                    [
                        {
                            "pitch": 47, 
                            "t0": 2612, 
                            "v": 56, 
                            "dur": 97, 
                            "type": "note", 
                            "channel": 9
                        }
                    ]
                ], 
                [
                    2750, 
                    [
                        {
                            "pitch": 45, 
                            "t0": 2750, 
                            "v": 49, 
                            "dur": 97, 
                            "type": "note", 
                            "channel": 9
                        }
                    ]
                ], 
                [
                    2752, 
                    [
                        {
                            "pitch": 43, 
                            "t0": 2752, 
                            "v": 50, 
                            "dur": 89, 
                            "type": "note", 
                            "channel": 9
                        }
                    ]
                ], 
                [
                    2754, 
                    [
                        {
                            "pitch": 41, 
                            "t0": 2754, 
                            "v": 50, 
                            "dur": 80, 
                            "type": "note", 
                            "channel": 9
                        }
                    ]
                ], 
                [
                    3003, 
                    [
                        {
                            "pitch": 45, 
                            "t0": 3003, 
                            "v": 127, 
                            "dur": 118, 
                            "type": "note", 
                            "channel": 9
                        }
                    ]
                ], 
                [
                    3006, 
                    [
                        {
                            "pitch": 41, 
                            "t0": 3006, 
                            "v": 127, 
                            "dur": 110, 
                            "type": "note", 
                            "channel": 9
                        }
                    ]
                ], 
                [
                    3007, 
                    [
                        {
                            "pitch": 43, 
                            "t0": 3007, 
                            "v": 127, 
                            "dur": 113, 
                            "type": "note", 
                            "channel": 9
                        }
                    ]
                ], 
                [
                    3238, 
                    [
                        {
                            "pitch": 47, 
                            "t0": 3238, 
                            "v": 64, 
                            "dur": 80, 
                            "type": "note", 
                            "channel": 9
                        }
                    ]
                ], 
                [
                    3364, 
                    [
                        {
                            "pitch": 47, 
                            "t0": 3364, 
                            "v": 58, 
                            "dur": 85, 
                            "type": "note", 
                            "channel": 9
                        }
                    ]
                ], 
                [
                    3624, 
                    [
                        {
                            "pitch": 47, 
                            "t0": 3624, 
                            "v": 72, 
                            "dur": 107, 
                            "type": "note", 
                            "channel": 9
                        }
                    ]
                ], 
                [
                    3755, 
                    [
                        {
                            "pitch": 45, 
                            "t0": 3755, 
                            "v": 68, 
                            "dur": 127, 
                            "type": "note", 
                            "channel": 9
                        }
                    ]
                ], 
                [
                    3759, 
                    [
                        {
                            "pitch": 41, 
                            "t0": 3759, 
                            "v": 58, 
                            "dur": 105, 
                            "type": "note", 
                            "channel": 9
                        }, 
                        {
                            "pitch": 43, 
                            "t0": 3759, 
                            "v": 72, 
                            "dur": 112, 
                            "type": "note", 
                            "channel": 9
                        }
                    ]
                ], 
                [
                    4015, 
                    [
                        {
                            "pitch": 45, 
                            "t0": 4015, 
                            "v": 127, 
                            "dur": 140, 
                            "type": "note", 
                            "channel": 9
                        }
                    ]
                ], 
                [
                    4019, 
                    [
                        {
                            "pitch": 43, 
                            "t0": 4019, 
                            "v": 127, 
                            "dur": 137, 
                            "type": "note", 
                            "channel": 9
                        }, 
                        {
                            "pitch": 41, 
                            "t0": 4019, 
                            "v": 127, 
                            "dur": 140, 
                            "type": "note", 
                            "channel": 9
                        }
                    ]
                ], 
                [
                    4281, 
                    [
                        {
                            "pitch": 47, 
                            "t0": 4281, 
                            "v": 80, 
                            "dur": 74, 
                            "type": "note", 
                            "channel": 9
                        }
                    ]
                ], 
                [
                    4411, 
                    [
                        {
                            "pitch": 47, 
                            "t0": 4411, 
                            "v": 72, 
                            "dur": 102, 
                            "type": "note", 
                            "channel": 9
                        }
                    ]
                ], 
                [
                    4660, 
                    [
                        {
                            "pitch": 47, 
                            "t0": 4660, 
                            "v": 76, 
                            "dur": 137, 
                            "type": "note", 
                            "channel": 9
                        }
                    ]
                ], 
                [
                    4798, 
                    [
                        {
                            "pitch": 45, 
                            "t0": 4798, 
                            "v": 72, 
                            "dur": 92, 
                            "type": "note", 
                            "channel": 9
                        }
                    ]
                ], 
                [
                    4802, 
                    [
                        {
                            "pitch": 41, 
                            "t0": 4802, 
                            "v": 72, 
                            "dur": 78, 
                            "type": "note", 
                            "channel": 9
                        }
                    ]
                ], 
                [
                    4803, 
                    [
                        {
                            "pitch": 43, 
                            "t0": 4803, 
                            "v": 72, 
                            "dur": 87, 
                            "type": "note", 
                            "channel": 9
                        }
                    ]
                ], 
                [
                    5045, 
                    [
                        {
                            "pitch": 45, 
                            "t0": 5045, 
                            "v": 127, 
                            "dur": 142, 
                            "type": "note", 
                            "channel": 9
                        }
                    ]
                ], 
                [
                    5046, 
                    [
                        {
                            "pitch": 43, 
                            "t0": 5046, 
                            "v": 127, 
                            "dur": 160, 
                            "type": "note", 
                            "channel": 9
                        }
                    ]
                ], 
                [
                    5047, 
                    [
                        {
                            "pitch": 41, 
                            "t0": 5047, 
                            "v": 127, 
                            "dur": 156, 
                            "type": "note", 
                            "channel": 9
                        }
                    ]
                ], 
                [
                    5308, 
                    [
                        {
                            "pitch": 47, 
                            "t0": 5308, 
                            "v": 104, 
                            "dur": 74, 
                            "type": "note", 
                            "channel": 9
                        }
                    ]
                ], 
                [
                    5438, 
                    [
                        {
                            "pitch": 47, 
                            "t0": 5438, 
                            "v": 68, 
                            "dur": 68, 
                            "type": "note", 
                            "channel": 9
                        }
                    ]
                ], 
                [
                    5696, 
                    [
                        {
                            "pitch": 47, 
                            "t0": 5696, 
                            "v": 96, 
                            "dur": 104, 
                            "type": "note", 
                            "channel": 9
                        }
                    ]
                ], 
                [
                    5829, 
                    [
                        {
                            "pitch": 45, 
                            "t0": 5829, 
                            "v": 72, 
                            "dur": 111, 
                            "type": "note", 
                            "channel": 9
                        }
                    ]
                ], 
                [
                    5831, 
                    [
                        {
                            "pitch": 41, 
                            "t0": 5831, 
                            "v": 64, 
                            "dur": 107, 
                            "type": "note", 
                            "channel": 9
                        }, 
                        {
                            "pitch": 43, 
                            "t0": 5831, 
                            "v": 72, 
                            "dur": 114, 
                            "type": "note", 
                            "channel": 9
                        }
                    ]
                ], 
                [
                    6094, 
                    [
                        {
                            "pitch": 41, 
                            "t0": 6094, 
                            "v": 127, 
                            "dur": 153, 
                            "type": "note", 
                            "channel": 9
                        }
                    ]
                ], 
                [
                    6095, 
                    [
                        {
                            "pitch": 45, 
                            "t0": 6095, 
                            "v": 127, 
                            "dur": 150, 
                            "type": "note", 
                            "channel": 9
                        }, 
                        {
                            "pitch": 43, 
                            "t0": 6095, 
                            "v": 127, 
                            "dur": 157, 
                            "type": "note", 
                            "channel": 9
                        }
                    ]
                ], 
                [
                    6359, 
                    [
                        {
                            "pitch": 47, 
                            "t0": 6359, 
                            "v": 108, 
                            "dur": 65, 
                            "type": "note", 
                            "channel": 9
                        }
                    ]
                ], 
                [
                    6493, 
                    [
                        {
                            "pitch": 47, 
                            "t0": 6493, 
                            "v": 64, 
                            "dur": 85, 
                            "type": "note", 
                            "channel": 9
                        }
                    ]
                ], 
                [
                    6744, 
                    [
                        {
                            "pitch": 47, 
                            "t0": 6744, 
                            "v": 50, 
                            "dur": 92, 
                            "type": "note", 
                            "channel": 9
                        }
                    ]
                ], 
                [
                    6877, 
                    [
                        {
                            "pitch": 45, 
                            "t0": 6877, 
                            "v": 80, 
                            "dur": 124, 
                            "type": "note", 
                            "channel": 9
                        }, 
                        {
                            "pitch": 41, 
                            "t0": 6877, 
                            "v": 60, 
                            "dur": 129, 
                            "type": "note", 
                            "channel": 9
                        }
                    ]
                ], 
                [
                    6879, 
                    [
                        {
                            "pitch": 43, 
                            "t0": 6879, 
                            "v": 56, 
                            "dur": 121, 
                            "type": "note", 
                            "channel": 9
                        }
                    ]
                ], 
                [
                    7140, 
                    [
                        {
                            "pitch": 45, 
                            "t0": 7140, 
                            "v": 127, 
                            "dur": 170, 
                            "type": "note", 
                            "channel": 9
                        }, 
                        {
                            "pitch": 41, 
                            "t0": 7140, 
                            "v": 127, 
                            "dur": 171, 
                            "type": "note", 
                            "channel": 9
                        }, 
                        {
                            "pitch": 43, 
                            "t0": 7140, 
                            "v": 127, 
                            "dur": 177, 
                            "type": "note", 
                            "channel": 9
                        }
                    ]
                ], 
                [
                    7392, 
                    [
                        {
                            "pitch": 47, 
                            "t0": 7392, 
                            "v": 96, 
                            "dur": 80, 
                            "type": "note", 
                            "channel": 9
                        }
                    ]
                ], 
                [
                    7526, 
                    [
                        {
                            "pitch": 47, 
                            "t0": 7526, 
                            "v": 58, 
                            "dur": 83, 
                            "type": "note", 
                            "channel": 9
                        }
                    ]
                ], 
                [
                    7767, 
                    [
                        {
                            "pitch": 47, 
                            "t0": 7767, 
                            "v": 60, 
                            "dur": 96, 
                            "type": "note", 
                            "channel": 9
                        }
                    ]
                ], 
                [
                    7908, 
                    [
                        {
                            "pitch": 45, 
                            "t0": 7908, 
                            "v": 46, 
                            "dur": 105, 
                            "type": "note", 
                            "channel": 9
                        }
                    ]
                ], 
                [
                    7910, 
                    [
                        {
                            "pitch": 43, 
                            "t0": 7910, 
                            "v": 45, 
                            "dur": 94, 
                            "type": "note", 
                            "channel": 9
                        }, 
                        {
                            "pitch": 41, 
                            "t0": 7910, 
                            "v": 44, 
                            "dur": 105, 
                            "type": "note", 
                            "channel": 9
                        }
                    ]
                ], 
                [
                    8180, 
                    [
                        {
                            "pitch": 41, 
                            "t0": 8180, 
                            "v": 127, 
                            "dur": 163, 
                            "type": "note", 
                            "channel": 9
                        }
                    ]
                ], 
                [
                    8181, 
                    [
                        {
                            "pitch": 43, 
                            "t0": 8181, 
                            "v": 127, 
                            "dur": 166, 
                            "type": "note", 
                            "channel": 9
                        }
                    ]
                ], 
                [
                    8182, 
                    [
                        {
                            "pitch": 45, 
                            "t0": 8182, 
                            "v": 127, 
                            "dur": 162, 
                            "type": "note", 
                            "channel": 9
                        }
                    ]
                ], 
                [
                    8452, 
                    [
                        {
                            "pitch": 47, 
                            "t0": 8452, 
                            "v": 45, 
                            "dur": 75, 
                            "type": "note", 
                            "channel": 9
                        }
                    ]
                ], 
                [
                    8585, 
                    [
                        {
                            "pitch": 47, 
                            "t0": 8585, 
                            "v": 50, 
                            "dur": 74, 
                            "type": "note", 
                            "channel": 9
                        }
                    ]
                ], 
                [
                    8825, 
                    [
                        {
                            "pitch": 47, 
                            "t0": 8825, 
                            "v": 76, 
                            "dur": 86, 
                            "type": "note", 
                            "channel": 9
                        }
                    ]
                ], 
                [
                    8976, 
                    [
                        {
                            "pitch": 45, 
                            "t0": 8976, 
                            "v": 45, 
                            "dur": 98, 
                            "type": "note", 
                            "channel": 9
                        }
                    ]
                ], 
                [
                    8978, 
                    [
                        {
                            "pitch": 41, 
                            "t0": 8978, 
                            "v": 46, 
                            "dur": 82, 
                            "type": "note", 
                            "channel": 9
                        }
                    ]
                ], 
                [
                    8982, 
                    [
                        {
                            "pitch": 43, 
                            "t0": 8982, 
                            "v": 49, 
                            "dur": 81, 
                            "type": "note", 
                            "channel": 9
                        }
                    ]
                ], 
                [
                    9239, 
                    [
                        {
                            "pitch": 45, 
                            "t0": 9239, 
                            "v": 127, 
                            "dur": 160, 
                            "type": "note", 
                            "channel": 9
                        }
                    ]
                ], 
                [
                    9240, 
                    [
                        {
                            "pitch": 43, 
                            "t0": 9240, 
                            "v": 127, 
                            "dur": 169, 
                            "type": "note", 
                            "channel": 9
                        }, 
                        {
                            "pitch": 41, 
                            "t0": 9240, 
                            "v": 127, 
                            "dur": 169, 
                            "type": "note", 
                            "channel": 9
                        }
                    ]
                ], 
                [
                    9499, 
                    [
                        {
                            "pitch": 47, 
                            "t0": 9499, 
                            "v": 76, 
                            "dur": 76, 
                            "type": "note", 
                            "channel": 9
                        }
                    ]
                ], 
                [
                    9630, 
                    [
                        {
                            "pitch": 47, 
                            "t0": 9630, 
                            "v": 64, 
                            "dur": 76, 
                            "type": "note", 
                            "channel": 9
                        }
                    ]
                ], 
                [
                    9869, 
                    [
                        {
                            "pitch": 47, 
                            "t0": 9869, 
                            "v": 88, 
                            "dur": 62, 
                            "type": "note", 
                            "channel": 9
                        }
                    ]
                ], 
                [
                    10003, 
                    [
                        {
                            "pitch": 45, 
                            "t0": 10003, 
                            "v": 54, 
                            "dur": 125, 
                            "type": "note", 
                            "channel": 9
                        }
                    ]
                ], 
                [
                    10008, 
                    [
                        {
                            "pitch": 41, 
                            "t0": 10008, 
                            "v": 49, 
                            "dur": 115, 
                            "type": "note", 
                            "channel": 9
                        }
                    ]
                ], 
                [
                    10009, 
                    [
                        {
                            "pitch": 43, 
                            "t0": 10009, 
                            "v": 50, 
                            "dur": 115, 
                            "type": "note", 
                            "channel": 9
                        }
                    ]
                ], 
                [
                    10270, 
                    [
                        {
                            "pitch": 41, 
                            "t0": 10270, 
                            "v": 127, 
                            "dur": 183, 
                            "type": "note", 
                            "channel": 9
                        }
                    ]
                ], 
                [
                    10271, 
                    [
                        {
                            "pitch": 45, 
                            "t0": 10271, 
                            "v": 127, 
                            "dur": 169, 
                            "type": "note", 
                            "channel": 9
                        }
                    ]
                ], 
                [
                    10272, 
                    [
                        {
                            "pitch": 43, 
                            "t0": 10272, 
                            "v": 127, 
                            "dur": 176, 
                            "type": "note", 
                            "channel": 9
                        }
                    ]
                ], 
                [
                    10541, 
                    [
                        {
                            "pitch": 47, 
                            "t0": 10541, 
                            "v": 58, 
                            "dur": 78, 
                            "type": "note", 
                            "channel": 9
                        }
                    ]
                ], 
                [
                    10669, 
                    [
                        {
                            "pitch": 47, 
                            "t0": 10669, 
                            "v": 49, 
                            "dur": 77, 
                            "type": "note", 
                            "channel": 9
                        }
                    ]
                ], 
                [
                    10924, 
                    [
                        {
                            "pitch": 47, 
                            "t0": 10924, 
                            "v": 76, 
                            "dur": 60, 
                            "type": "note", 
                            "channel": 9
                        }
                    ]
                ], 
                [
                    11056, 
                    [
                        {
                            "pitch": 45, 
                            "t0": 11056, 
                            "v": 58, 
                            "dur": 129, 
                            "type": "note", 
                            "channel": 9
                        }
                    ]
                ], 
                [
                    11060, 
                    [
                        {
                            "pitch": 41, 
                            "t0": 11060, 
                            "v": 58, 
                            "dur": 118, 
                            "type": "note", 
                            "channel": 9
                        }
                    ]
                ], 
                [
                    11061, 
                    [
                        {
                            "pitch": 43, 
                            "t0": 11061, 
                            "v": 58, 
                            "dur": 123, 
                            "type": "note", 
                            "channel": 9
                        }
                    ]
                ], 
                [
                    11329, 
                    [
                        {
                            "pitch": 45, 
                            "t0": 11329, 
                            "v": 127, 
                            "dur": 186, 
                            "type": "note", 
                            "channel": 9
                        }
                    ]
                ], 
                [
                    11330, 
                    [
                        {
                            "pitch": 43, 
                            "t0": 11330, 
                            "v": 127, 
                            "dur": 187, 
                            "type": "note", 
                            "channel": 9
                        }, 
                        {
                            "pitch": 41, 
                            "t0": 11330, 
                            "v": 127, 
                            "dur": 193, 
                            "type": "note", 
                            "channel": 9
                        }
                    ]
                ], 
                [
                    11590, 
                    [
                        {
                            "pitch": 47, 
                            "t0": 11590, 
                            "v": 84, 
                            "dur": 74, 
                            "type": "note", 
                            "channel": 9
                        }
                    ]
                ], 
                [
                    11724, 
                    [
                        {
                            "pitch": 47, 
                            "t0": 11724, 
                            "v": 42, 
                            "dur": 79, 
                            "type": "note", 
                            "channel": 9
                        }
                    ]
                ], 
                [
                    11965, 
                    [
                        {
                            "pitch": 47, 
                            "t0": 11965, 
                            "v": 76, 
                            "dur": 61, 
                            "type": "note", 
                            "channel": 9
                        }
                    ]
                ], 
                [
                    12103, 
                    [
                        {
                            "pitch": 45, 
                            "t0": 12103, 
                            "v": 58, 
                            "dur": 118, 
                            "type": "note", 
                            "channel": 9
                        }
                    ]
                ], 
                [
                    12105, 
                    [
                        {
                            "pitch": 41, 
                            "t0": 12105, 
                            "v": 58, 
                            "dur": 119, 
                            "type": "note", 
                            "channel": 9
                        }
                    ]
                ], 
                [
                    12106, 
                    [
                        {
                            "pitch": 43, 
                            "t0": 12106, 
                            "v": 58, 
                            "dur": 102, 
                            "type": "note", 
                            "channel": 9
                        }
                    ]
                ], 
                [
                    12369, 
                    [
                        {
                            "pitch": 43, 
                            "t0": 12369, 
                            "v": 127, 
                            "dur": 192, 
                            "type": "note", 
                            "channel": 9
                        }, 
                        {
                            "pitch": 45, 
                            "t0": 12369, 
                            "v": 127, 
                            "dur": 210, 
                            "type": "note", 
                            "channel": 9
                        }, 
                        {
                            "pitch": 41, 
                            "t0": 12369, 
                            "v": 127, 
                            "dur": 217, 
                            "type": "note", 
                            "channel": 9
                        }
                    ]
                ], 
                [
                    12631, 
                    [
                        {
                            "pitch": 47, 
                            "t0": 12631, 
                            "v": 72, 
                            "dur": 65, 
                            "type": "note", 
                            "channel": 9
                        }
                    ]
                ], 
                [
                    12748, 
                    [
                        {
                            "pitch": 47, 
                            "t0": 12748, 
                            "v": 48, 
                            "dur": 88, 
                            "type": "note", 
                            "channel": 9
                        }
                    ]
                ], 
                [
                    13000, 
                    [
                        {
                            "pitch": 47, 
                            "t0": 13000, 
                            "v": 56, 
                            "dur": 85, 
                            "type": "note", 
                            "channel": 9
                        }
                    ]
                ], 
                [
                    13143, 
                    [
                        {
                            "pitch": 43, 
                            "t0": 13143, 
                            "v": 58, 
                            "dur": 85, 
                            "type": "note", 
                            "channel": 9
                        }
                    ]
                ], 
                [
                    13144, 
                    [
                        {
                            "pitch": 45, 
                            "t0": 13144, 
                            "v": 58, 
                            "dur": 90, 
                            "type": "note", 
                            "channel": 9
                        }
                    ]
                ], 
                [
                    13146, 
                    [
                        {
                            "pitch": 41, 
                            "t0": 13146, 
                            "v": 58, 
                            "dur": 76, 
                            "type": "note", 
                            "channel": 9
                        }
                    ]
                ], 
                [
                    13413, 
                    [
                        {
                            "pitch": 45, 
                            "t0": 13413, 
                            "v": 127, 
                            "dur": 200, 
                            "type": "note", 
                            "channel": 9
                        }
                    ]
                ], 
                [
                    13415, 
                    [
                        {
                            "pitch": 43, 
                            "t0": 13415, 
                            "v": 127, 
                            "dur": 189, 
                            "type": "note", 
                            "channel": 9
                        }, 
                        {
                            "pitch": 41, 
                            "t0": 13415, 
                            "v": 127, 
                            "dur": 191, 
                            "type": "note", 
                            "channel": 9
                        }
                    ]
                ], 
                [
                    13676, 
                    [
                        {
                            "pitch": 47, 
                            "t0": 13676, 
                            "v": 68, 
                            "dur": 67, 
                            "type": "note", 
                            "channel": 9
                        }
                    ]
                ], 
                [
                    13816, 
                    [
                        {
                            "pitch": 47, 
                            "t0": 13816, 
                            "v": 49, 
                            "dur": 73, 
                            "type": "note", 
                            "channel": 9
                        }
                    ]
                ], 
                [
                    14065, 
                    [
                        {
                            "pitch": 47, 
                            "t0": 14065, 
                            "v": 68, 
                            "dur": 84, 
                            "type": "note", 
                            "channel": 9
                        }
                    ]
                ], 
                [
                    14197, 
                    [
                        {
                            "pitch": 41, 
                            "t0": 14197, 
                            "v": 68, 
                            "dur": 99, 
                            "type": "note", 
                            "channel": 9
                        }
                    ]
                ], 
                [
                    14198, 
                    [
                        {
                            "pitch": 45, 
                            "t0": 14198, 
                            "v": 64, 
                            "dur": 100, 
                            "type": "note", 
                            "channel": 9
                        }
                    ]
                ], 
                [
                    14199, 
                    [
                        {
                            "pitch": 43, 
                            "t0": 14199, 
                            "v": 68, 
                            "dur": 95, 
                            "type": "note", 
                            "channel": 9
                        }
                    ]
                ], 
                [
                    14457, 
                    [
                        {
                            "pitch": 43, 
                            "t0": 14457, 
                            "v": 127, 
                            "dur": 183, 
                            "type": "note", 
                            "channel": 9
                        }, 
                        {
                            "pitch": 45, 
                            "t0": 14457, 
                            "v": 127, 
                            "dur": 186, 
                            "type": "note", 
                            "channel": 9
                        }
                    ]
                ], 
                [
                    14458, 
                    [
                        {
                            "pitch": 41, 
                            "t0": 14458, 
                            "v": 127, 
                            "dur": 183, 
                            "type": "note", 
                            "channel": 9
                        }
                    ]
                ], 
                [
                    14718, 
                    [
                        {
                            "pitch": 47, 
                            "t0": 14718, 
                            "v": 64, 
                            "dur": 78, 
                            "type": "note", 
                            "channel": 9
                        }
                    ]
                ], 
                [
                    14850, 
                    [
                        {
                            "pitch": 47, 
                            "t0": 14850, 
                            "v": 58, 
                            "dur": 82, 
                            "type": "note", 
                            "channel": 9
                        }
                    ]
                ], 
                [
                    15093, 
                    [
                        {
                            "pitch": 47, 
                            "t0": 15093, 
                            "v": 60, 
                            "dur": 76, 
                            "type": "note", 
                            "channel": 9
                        }
                    ]
                ], 
                [
                    15233, 
                    [
                        {
                            "pitch": 41, 
                            "t0": 15233, 
                            "v": 64, 
                            "dur": 104, 
                            "type": "note", 
                            "channel": 9
                        }
                    ]
                ], 
                [
                    15234, 
                    [
                        {
                            "pitch": 43, 
                            "t0": 15234, 
                            "v": 64, 
                            "dur": 101, 
                            "type": "note", 
                            "channel": 9
                        }, 
                        {
                            "pitch": 45, 
                            "t0": 15234, 
                            "v": 76, 
                            "dur": 103, 
                            "type": "note", 
                            "channel": 9
                        }
                    ]
                ], 
                [
                    15484, 
                    [
                        {
                            "pitch": 41, 
                            "t0": 15484, 
                            "v": 127, 
                            "dur": 165, 
                            "type": "note", 
                            "channel": 9
                        }
                    ]
                ], 
                [
                    15485, 
                    [
                        {
                            "pitch": 45, 
                            "t0": 15485, 
                            "v": 127, 
                            "dur": 159, 
                            "type": "note", 
                            "channel": 9
                        }, 
                        {
                            "pitch": 43, 
                            "t0": 15485, 
                            "v": 127, 
                            "dur": 163, 
                            "type": "note", 
                            "channel": 9
                        }
                    ]
                ], 
                [
                    15745, 
                    [
                        {
                            "pitch": 47, 
                            "t0": 15745, 
                            "v": 100, 
                            "dur": 77, 
                            "type": "note", 
                            "channel": 9
                        }
                    ]
                ], 
                [
                    15876, 
                    [
                        {
                            "pitch": 47, 
                            "t0": 15876, 
                            "v": 52, 
                            "dur": 77, 
                            "type": "note", 
                            "channel": 9
                        }
                    ]
                ], 
                [
                    16137, 
                    [
                        {
                            "pitch": 47, 
                            "t0": 16137, 
                            "v": 80, 
                            "dur": 62, 
                            "type": "note", 
                            "channel": 9
                        }
                    ]
                ], 
                [
                    16265, 
                    [
                        {
                            "pitch": 45, 
                            "t0": 16265, 
                            "v": 68, 
                            "dur": 71, 
                            "type": "note", 
                            "channel": 9
                        }
                    ]
                ], 
                [
                    16267, 
                    [
                        {
                            "pitch": 41, 
                            "t0": 16267, 
                            "v": 68, 
                            "dur": 63, 
                            "type": "note", 
                            "channel": 9
                        }
                    ]
                ], 
                [
                    16268, 
                    [
                        {
                            "pitch": 43, 
                            "t0": 16268, 
                            "v": 68, 
                            "dur": 66, 
                            "type": "note", 
                            "channel": 9
                        }
                    ]
                ], 
                [
                    16530, 
                    [
                        {
                            "pitch": 45, 
                            "t0": 16530, 
                            "v": 127, 
                            "dur": 141, 
                            "type": "note", 
                            "channel": 9
                        }
                    ]
                ], 
                [
                    16531, 
                    [
                        {
                            "pitch": 41, 
                            "t0": 16531, 
                            "v": 127, 
                            "dur": 161, 
                            "type": "note", 
                            "channel": 9
                        }
                    ]
                ], 
                [
                    16532, 
                    [
                        {
                            "pitch": 43, 
                            "t0": 16532, 
                            "v": 127, 
                            "dur": 163, 
                            "type": "note", 
                            "channel": 9
                        }
                    ]
                ], 
                [
                    16791, 
                    [
                        {
                            "pitch": 47, 
                            "t0": 16791, 
                            "v": 96, 
                            "dur": 70, 
                            "type": "note", 
                            "channel": 9
                        }
                    ]
                ], 
                [
                    16916, 
                    [
                        {
                            "pitch": 47, 
                            "t0": 16916, 
                            "v": 58, 
                            "dur": 82, 
                            "type": "note", 
                            "channel": 9
                        }
                    ]
                ], 
                [
                    17162, 
                    [
                        {
                            "pitch": 47, 
                            "t0": 17162, 
                            "v": 68, 
                            "dur": 94, 
                            "type": "note", 
                            "channel": 9
                        }
                    ]
                ], 
                [
                    17294, 
                    [
                        {
                            "pitch": 45, 
                            "t0": 17294, 
                            "v": 68, 
                            "dur": 99, 
                            "type": "note", 
                            "channel": 9
                        }
                    ]
                ], 
                [
                    17303, 
                    [
                        {
                            "pitch": 43, 
                            "t0": 17303, 
                            "v": 68, 
                            "dur": 84, 
                            "type": "note", 
                            "channel": 9
                        }, 
                        {
                            "pitch": 41, 
                            "t0": 17303, 
                            "v": 68, 
                            "dur": 88, 
                            "type": "note", 
                            "channel": 9
                        }
                    ]
                ], 
                [
                    17551, 
                    [
                        {
                            "pitch": 45, 
                            "t0": 17551, 
                            "v": 127, 
                            "dur": 171, 
                            "type": "note", 
                            "channel": 9
                        }
                    ]
                ], 
                [
                    17552, 
                    [
                        {
                            "pitch": 41, 
                            "t0": 17552, 
                            "v": 127, 
                            "dur": 184, 
                            "type": "note", 
                            "channel": 9
                        }, 
                        {
                            "pitch": 43, 
                            "t0": 17552, 
                            "v": 127, 
                            "dur": 184, 
                            "type": "note", 
                            "channel": 9
                        }
                    ]
                ], 
                [
                    17804, 
                    [
                        {
                            "pitch": 47, 
                            "t0": 17804, 
                            "v": 54, 
                            "dur": 77, 
                            "type": "note", 
                            "channel": 9
                        }
                    ]
                ], 
                [
                    17928, 
                    [
                        {
                            "pitch": 47, 
                            "t0": 17928, 
                            "v": 47, 
                            "dur": 89, 
                            "type": "note", 
                            "channel": 9
                        }
                    ]
                ], 
                [
                    18180, 
                    [
                        {
                            "pitch": 47, 
                            "t0": 18180, 
                            "v": 54, 
                            "dur": 76, 
                            "type": "note", 
                            "channel": 9
                        }
                    ]
                ], 
                [
                    18316, 
                    [
                        {
                            "pitch": 45, 
                            "t0": 18316, 
                            "v": 42, 
                            "dur": 113, 
                            "type": "note", 
                            "channel": 9
                        }
                    ]
                ], 
                [
                    18321, 
                    [
                        {
                            "pitch": 41, 
                            "t0": 18321, 
                            "v": 46, 
                            "dur": 102, 
                            "type": "note", 
                            "channel": 9
                        }
                    ]
                ], 
                [
                    18322, 
                    [
                        {
                            "pitch": 43, 
                            "t0": 18322, 
                            "v": 50, 
                            "dur": 104, 
                            "type": "note", 
                            "channel": 9
                        }
                    ]
                ], 
                [
                    18583, 
                    [
                        {
                            "pitch": 45, 
                            "t0": 18583, 
                            "v": 127, 
                            "dur": 200, 
                            "type": "note", 
                            "channel": 9
                        }, 
                        {
                            "pitch": 41, 
                            "t0": 18583, 
                            "v": 127, 
                            "dur": 211, 
                            "type": "note", 
                            "channel": 9
                        }
                    ]
                ], 
                [
                    18584, 
                    [
                        {
                            "pitch": 43, 
                            "t0": 18584, 
                            "v": 127, 
                            "dur": 209, 
                            "type": "note", 
                            "channel": 9
                        }
                    ]
                ], 
                [
                    18834, 
                    [
                        {
                            "pitch": 47, 
                            "t0": 18834, 
                            "v": 68, 
                            "dur": 83, 
                            "type": "note", 
                            "channel": 9
                        }
                    ]
                ], 
                [
                    18962, 
                    [
                        {
                            "pitch": 47, 
                            "t0": 18962, 
                            "v": 44, 
                            "dur": 87, 
                            "type": "note", 
                            "channel": 9
                        }
                    ]
                ], 
                [
                    19207, 
                    [
                        {
                            "pitch": 47, 
                            "t0": 19207, 
                            "v": 60, 
                            "dur": 77, 
                            "type": "note", 
                            "channel": 9
                        }
                    ]
                ], 
                [
                    19336, 
                    [
                        {
                            "pitch": 45, 
                            "t0": 19336, 
                            "v": 46, 
                            "dur": 120, 
                            "type": "note", 
                            "channel": 9
                        }
                    ]
                ], 
                [
                    19342, 
                    [
                        {
                            "pitch": 41, 
                            "t0": 19342, 
                            "v": 48, 
                            "dur": 109, 
                            "type": "note", 
                            "channel": 9
                        }
                    ]
                ], 
                [
                    19344, 
                    [
                        {
                            "pitch": 43, 
                            "t0": 19344, 
                            "v": 47, 
                            "dur": 103, 
                            "type": "note", 
                            "channel": 9
                        }
                    ]
                ], 
                [
                    19606, 
                    [
                        {
                            "pitch": 45, 
                            "t0": 19606, 
                            "v": 127, 
                            "dur": 164, 
                            "type": "note", 
                            "channel": 9
                        }, 
                        {
                            "pitch": 43, 
                            "t0": 19606, 
                            "v": 127, 
                            "dur": 169, 
                            "type": "note", 
                            "channel": 9
                        }
                    ]
                ], 
                [
                    19607, 
                    [
                        {
                            "pitch": 41, 
                            "t0": 19607, 
                            "v": 127, 
                            "dur": 170, 
                            "type": "note", 
                            "channel": 9
                        }
                    ]
                ], 
                [
                    19870, 
                    [
                        {
                            "pitch": 47, 
                            "t0": 19870, 
                            "v": 80, 
                            "dur": 79, 
                            "type": "note", 
                            "channel": 9
                        }
                    ]
                ], 
                [
                    20005, 
                    [
                        {
                            "pitch": 47, 
                            "t0": 20005, 
                            "v": 45, 
                            "dur": 80, 
                            "type": "note", 
                            "channel": 9
                        }
                    ]
                ], 
                [
                    20251, 
                    [
                        {
                            "pitch": 47, 
                            "t0": 20251, 
                            "v": 64, 
                            "dur": 72, 
                            "type": "note", 
                            "channel": 9
                        }
                    ]
                ], 
                [
                    20382, 
                    [
                        {
                            "pitch": 45, 
                            "t0": 20382, 
                            "v": 54, 
                            "dur": 103, 
                            "type": "note", 
                            "channel": 9
                        }
                    ]
                ], 
                [
                    20383, 
                    [
                        {
                            "pitch": 41, 
                            "t0": 20383, 
                            "v": 54, 
                            "dur": 71, 
                            "type": "note", 
                            "channel": 9
                        }
                    ]
                ], 
                [
                    20384, 
                    [
                        {
                            "pitch": 43, 
                            "t0": 20384, 
                            "v": 54, 
                            "dur": 79, 
                            "type": "note", 
                            "channel": 9
                        }
                    ]
                ], 
                [
                    20639, 
                    [
                        {
                            "pitch": 45, 
                            "t0": 20639, 
                            "v": 127, 
                            "dur": 162, 
                            "type": "note", 
                            "channel": 9
                        }
                    ]
                ], 
                [
                    20640, 
                    [
                        {
                            "pitch": 41, 
                            "t0": 20640, 
                            "v": 127, 
                            "dur": 182, 
                            "type": "note", 
                            "channel": 9
                        }, 
                        {
                            "pitch": 43, 
                            "t0": 20640, 
                            "v": 127, 
                            "dur": 184, 
                            "type": "note", 
                            "channel": 9
                        }
                    ]
                ], 
                [
                    20889, 
                    [
                        {
                            "pitch": 47, 
                            "t0": 20889, 
                            "v": 54, 
                            "dur": 75, 
                            "type": "note", 
                            "channel": 9
                        }
                    ]
                ], 
                [
                    21019, 
                    [
                        {
                            "pitch": 47, 
                            "t0": 21019, 
                            "v": 50, 
                            "dur": 72, 
                            "type": "note", 
                            "channel": 9
                        }
                    ]
                ], 
                [
                    21266, 
                    [
                        {
                            "pitch": 47, 
                            "t0": 21266, 
                            "v": 64, 
                            "dur": 67, 
                            "type": "note", 
                            "channel": 9
                        }
                    ]
                ], 
                [
                    21401, 
                    [
                        {
                            "pitch": 45, 
                            "t0": 21401, 
                            "v": 50, 
                            "dur": 98, 
                            "type": "note", 
                            "channel": 9
                        }
                    ]
                ], 
                [
                    21404, 
                    [
                        {
                            "pitch": 41, 
                            "t0": 21404, 
                            "v": 54, 
                            "dur": 92, 
                            "type": "note", 
                            "channel": 9
                        }, 
                        {
                            "pitch": 43, 
                            "t0": 21404, 
                            "v": 58, 
                            "dur": 96, 
                            "type": "note", 
                            "channel": 9
                        }
                    ]
                ], 
                [
                    21668, 
                    [
                        {
                            "pitch": 45, 
                            "t0": 21668, 
                            "v": 104, 
                            "dur": 194, 
                            "type": "note", 
                            "channel": 9
                        }, 
                        {
                            "pitch": 43, 
                            "t0": 21668, 
                            "v": 120, 
                            "dur": 198, 
                            "type": "note", 
                            "channel": 9
                        }
                    ]
                ], 
                [
                    21669, 
                    [
                        {
                            "pitch": 41, 
                            "t0": 21669, 
                            "v": 112, 
                            "dur": 194, 
                            "type": "note", 
                            "channel": 9
                        }
                    ]
                ], 
                [
                    21927, 
                    [
                        {
                            "pitch": 47, 
                            "t0": 21927, 
                            "v": 64, 
                            "dur": 70, 
                            "type": "note", 
                            "channel": 9
                        }
                    ]
                ], 
                [
                    22051, 
                    [
                        {
                            "pitch": 47, 
                            "t0": 22051, 
                            "v": 35, 
                            "dur": 92, 
                            "type": "note", 
                            "channel": 9
                        }
                    ]
                ], 
                [
                    22306, 
                    [
                        {
                            "pitch": 47, 
                            "t0": 22306, 
                            "v": 64, 
                            "dur": 69, 
                            "type": "note", 
                            "channel": 9
                        }
                    ]
                ], 
                [
                    22444, 
                    [
                        {
                            "pitch": 45, 
                            "t0": 22444, 
                            "v": 43, 
                            "dur": 93, 
                            "type": "note", 
                            "channel": 9
                        }
                    ]
                ], 
                [
                    22446, 
                    [
                        {
                            "pitch": 41, 
                            "t0": 22446, 
                            "v": 38, 
                            "dur": 79, 
                            "type": "note", 
                            "channel": 9
                        }, 
                        {
                            "pitch": 43, 
                            "t0": 22446, 
                            "v": 42, 
                            "dur": 87, 
                            "type": "note", 
                            "channel": 9
                        }
                    ]
                ], 
                [
                    22705, 
                    [
                        {
                            "pitch": 45, 
                            "t0": 22705, 
                            "v": 116, 
                            "dur": 178, 
                            "type": "note", 
                            "channel": 9
                        }, 
                        {
                            "pitch": 43, 
                            "t0": 22705, 
                            "v": 92, 
                            "dur": 181, 
                            "type": "note", 
                            "channel": 9
                        }
                    ]
                ], 
                [
                    22706, 
                    [
                        {
                            "pitch": 41, 
                            "t0": 22706, 
                            "v": 116, 
                            "dur": 174, 
                            "type": "note", 
                            "channel": 9
                        }
                    ]
                ], 
                [
                    22967, 
                    [
                        {
                            "pitch": 47, 
                            "t0": 22967, 
                            "v": 52, 
                            "dur": 73, 
                            "type": "note", 
                            "channel": 9
                        }
                    ]
                ], 
                [
                    23090, 
                    [
                        {
                            "pitch": 47, 
                            "t0": 23090, 
                            "v": 54, 
                            "dur": 90, 
                            "type": "note", 
                            "channel": 9
                        }
                    ]
                ], 
                [
                    23335, 
                    [
                        {
                            "pitch": 47, 
                            "t0": 23335, 
                            "v": 50, 
                            "dur": 103, 
                            "type": "note", 
                            "channel": 9
                        }
                    ]
                ], 
                [
                    23465, 
                    [
                        {
                            "pitch": 43, 
                            "t0": 23465, 
                            "v": 56, 
                            "dur": 68, 
                            "type": "note", 
                            "channel": 9
                        }, 
                        {
                            "pitch": 45, 
                            "t0": 23465, 
                            "v": 76, 
                            "dur": 81, 
                            "type": "note", 
                            "channel": 9
                        }
                    ]
                ], 
                [
                    23466, 
                    [
                        {
                            "pitch": 41, 
                            "t0": 23466, 
                            "v": 58, 
                            "dur": 62, 
                            "type": "note", 
                            "channel": 9
                        }
                    ]
                ], 
                [
                    23720, 
                    [
                        {
                            "pitch": 45, 
                            "t0": 23720, 
                            "v": 116, 
                            "dur": 208, 
                            "type": "note", 
                            "channel": 9
                        }
                    ]
                ], 
                [
                    23721, 
                    [
                        {
                            "pitch": 41, 
                            "t0": 23721, 
                            "v": 112, 
                            "dur": 207, 
                            "type": "note", 
                            "channel": 9
                        }, 
                        {
                            "pitch": 43, 
                            "t0": 23721, 
                            "v": 112, 
                            "dur": 215, 
                            "type": "note", 
                            "channel": 9
                        }
                    ]
                ], 
                [
                    23986, 
                    [
                        {
                            "pitch": 47, 
                            "t0": 23986, 
                            "v": 43, 
                            "dur": 78, 
                            "type": "note", 
                            "channel": 9
                        }
                    ]
                ], 
                [
                    24116, 
                    [
                        {
                            "pitch": 47, 
                            "t0": 24116, 
                            "v": 46, 
                            "dur": 80, 
                            "type": "note", 
                            "channel": 9
                        }
                    ]
                ], 
                [
                    24365, 
                    [
                        {
                            "pitch": 47, 
                            "t0": 24365, 
                            "v": 49, 
                            "dur": 86, 
                            "type": "note", 
                            "channel": 9
                        }
                    ]
                ], 
                [
                    24509, 
                    [
                        {
                            "pitch": 45, 
                            "t0": 24509, 
                            "v": 40, 
                            "dur": 98, 
                            "type": "note", 
                            "channel": 9
                        }
                    ]
                ], 
                [
                    24514, 
                    [
                        {
                            "pitch": 43, 
                            "t0": 24514, 
                            "v": 38, 
                            "dur": 88, 
                            "type": "note", 
                            "channel": 9
                        }, 
                        {
                            "pitch": 41, 
                            "t0": 24514, 
                            "v": 40, 
                            "dur": 89, 
                            "type": "note", 
                            "channel": 9
                        }
                    ]
                ], 
                [
                    24764, 
                    [
                        {
                            "pitch": 45, 
                            "t0": 24764, 
                            "v": 112, 
                            "dur": 177, 
                            "type": "note", 
                            "channel": 9
                        }, 
                        {
                            "pitch": 41, 
                            "t0": 24764, 
                            "v": 116, 
                            "dur": 197, 
                            "type": "note", 
                            "channel": 9
                        }
                    ]
                ], 
                [
                    24765, 
                    [
                        {
                            "pitch": 43, 
                            "t0": 24765, 
                            "v": 120, 
                            "dur": 192, 
                            "type": "note", 
                            "channel": 9
                        }
                    ]
                ], 
                [
                    25025, 
                    [
                        {
                            "pitch": 47, 
                            "t0": 25025, 
                            "v": 68, 
                            "dur": 72, 
                            "type": "note", 
                            "channel": 9
                        }
                    ]
                ], 
                [
                    25158, 
                    [
                        {
                            "pitch": 47, 
                            "t0": 25158, 
                            "v": 37, 
                            "dur": 73, 
                            "type": "note", 
                            "channel": 9
                        }
                    ]
                ], 
                [
                    25408, 
                    [
                        {
                            "pitch": 47, 
                            "t0": 25408, 
                            "v": 64, 
                            "dur": 75, 
                            "type": "note", 
                            "channel": 9
                        }
                    ]
                ], 
                [
                    25538, 
                    [
                        {
                            "pitch": 45, 
                            "t0": 25538, 
                            "v": 72, 
                            "dur": 96, 
                            "type": "note", 
                            "channel": 9
                        }
                    ]
                ], 
                [
                    25539, 
                    [
                        {
                            "pitch": 41, 
                            "t0": 25539, 
                            "v": 64, 
                            "dur": 83, 
                            "type": "note", 
                            "channel": 9
                        }
                    ]
                ], 
                [
                    25540, 
                    [
                        {
                            "pitch": 43, 
                            "t0": 25540, 
                            "v": 58, 
                            "dur": 88, 
                            "type": "note", 
                            "channel": 9
                        }
                    ]
                ], 
                [
                    25800, 
                    [
                        {
                            "pitch": 45, 
                            "t0": 25800, 
                            "v": 112, 
                            "dur": 207, 
                            "type": "note", 
                            "channel": 9
                        }
                    ]
                ], 
                [
                    25801, 
                    [
                        {
                            "pitch": 43, 
                            "t0": 25801, 
                            "v": 116, 
                            "dur": 219, 
                            "type": "note", 
                            "channel": 9
                        }
                    ]
                ], 
                [
                    25802, 
                    [
                        {
                            "pitch": 41, 
                            "t0": 25802, 
                            "v": 120, 
                            "dur": 221, 
                            "type": "note", 
                            "channel": 9
                        }
                    ]
                ], 
                [
                    26061, 
                    [
                        {
                            "pitch": 47, 
                            "t0": 26061, 
                            "v": 60, 
                            "dur": 73, 
                            "type": "note", 
                            "channel": 9
                        }
                    ]
                ], 
                [
                    26187, 
                    [
                        {
                            "pitch": 47, 
                            "t0": 26187, 
                            "v": 42, 
                            "dur": 80, 
                            "type": "note", 
                            "channel": 9
                        }
                    ]
                ], 
                [
                    26434, 
                    [
                        {
                            "pitch": 47, 
                            "t0": 26434, 
                            "v": 64, 
                            "dur": 68, 
                            "type": "note", 
                            "channel": 9
                        }
                    ]
                ], 
                [
                    26579, 
                    [
                        {
                            "pitch": 45, 
                            "t0": 26579, 
                            "v": 76, 
                            "dur": 100, 
                            "type": "note", 
                            "channel": 9
                        }
                    ]
                ], 
                [
                    26581, 
                    [
                        {
                            "pitch": 43, 
                            "t0": 26581, 
                            "v": 54, 
                            "dur": 89, 
                            "type": "note", 
                            "channel": 9
                        }
                    ]
                ], 
                [
                    26583, 
                    [
                        {
                            "pitch": 41, 
                            "t0": 26583, 
                            "v": 58, 
                            "dur": 81, 
                            "type": "note", 
                            "channel": 9
                        }
                    ]
                ], 
                [
                    26841, 
                    [
                        {
                            "pitch": 45, 
                            "t0": 26841, 
                            "v": 100, 
                            "dur": 184, 
                            "type": "note", 
                            "channel": 9
                        }
                    ]
                ], 
                [
                    26842, 
                    [
                        {
                            "pitch": 41, 
                            "t0": 26842, 
                            "v": 116, 
                            "dur": 198, 
                            "type": "note", 
                            "channel": 9
                        }
                    ]
                ], 
                [
                    26843, 
                    [
                        {
                            "pitch": 43, 
                            "t0": 26843, 
                            "v": 112, 
                            "dur": 195, 
                            "type": "note", 
                            "channel": 9
                        }
                    ]
                ], 
                [
                    27101, 
                    [
                        {
                            "pitch": 47, 
                            "t0": 27101, 
                            "v": 60, 
                            "dur": 71, 
                            "type": "note", 
                            "channel": 9
                        }
                    ]
                ], 
                [
                    27229, 
                    [
                        {
                            "pitch": 47, 
                            "t0": 27229, 
                            "v": 49, 
                            "dur": 74, 
                            "type": "note", 
                            "channel": 9
                        }
                    ]
                ], 
                [
                    27486, 
                    [
                        {
                            "pitch": 47, 
                            "t0": 27486, 
                            "v": 52, 
                            "dur": 84, 
                            "type": "note", 
                            "channel": 9
                        }
                    ]
                ], 
                [
                    27613, 
                    [
                        {
                            "pitch": 41, 
                            "t0": 27613, 
                            "v": 64, 
                            "dur": 74, 
                            "type": "note", 
                            "channel": 9
                        }, 
                        {
                            "pitch": 45, 
                            "t0": 27613, 
                            "v": 72, 
                            "dur": 84, 
                            "type": "note", 
                            "channel": 9
                        }
                    ]
                ], 
                [
                    27615, 
                    [
                        {
                            "pitch": 43, 
                            "t0": 27615, 
                            "v": 52, 
                            "dur": 71, 
                            "type": "note", 
                            "channel": 9
                        }
                    ]
                ], 
                [
                    27875, 
                    [
                        {
                            "pitch": 41, 
                            "t0": 27875, 
                            "v": 116, 
                            "dur": 211, 
                            "type": "note", 
                            "channel": 9
                        }
                    ]
                ], 
                [
                    27876, 
                    [
                        {
                            "pitch": 45, 
                            "t0": 27876, 
                            "v": 116, 
                            "dur": 193, 
                            "type": "note", 
                            "channel": 9
                        }, 
                        {
                            "pitch": 43, 
                            "t0": 27876, 
                            "v": 116, 
                            "dur": 207, 
                            "type": "note", 
                            "channel": 9
                        }
                    ]
                ], 
                [
                    28143, 
                    [
                        {
                            "pitch": 47, 
                            "t0": 28143, 
                            "v": 54, 
                            "dur": 69, 
                            "type": "note", 
                            "channel": 9
                        }
                    ]
                ], 
                [
                    28276, 
                    [
                        {
                            "pitch": 47, 
                            "t0": 28276, 
                            "v": 58, 
                            "dur": 70, 
                            "type": "note", 
                            "channel": 9
                        }
                    ]
                ], 
                [
                    28532, 
                    [
                        {
                            "pitch": 47, 
                            "t0": 28532, 
                            "v": 54, 
                            "dur": 98, 
                            "type": "note", 
                            "channel": 9
                        }
                    ]
                ], 
                [
                    28662, 
                    [
                        {
                            "pitch": 45, 
                            "t0": 28662, 
                            "v": 48, 
                            "dur": 96, 
                            "type": "note", 
                            "channel": 9
                        }
                    ]
                ], 
                [
                    28665, 
                    [
                        {
                            "pitch": 43, 
                            "t0": 28665, 
                            "v": 49, 
                            "dur": 90, 
                            "type": "note", 
                            "channel": 9
                        }
                    ]
                ], 
                [
                    28668, 
                    [
                        {
                            "pitch": 41, 
                            "t0": 28668, 
                            "v": 48, 
                            "dur": 83, 
                            "type": "note", 
                            "channel": 9
                        }
                    ]
                ], 
                [
                    28920, 
                    [
                        {
                            "pitch": 43, 
                            "t0": 28920, 
                            "v": 108, 
                            "dur": 204, 
                            "type": "note", 
                            "channel": 9
                        }, 
                        {
                            "pitch": 41, 
                            "t0": 28920, 
                            "v": 116, 
                            "dur": 205, 
                            "type": "note", 
                            "channel": 9
                        }
                    ]
                ], 
                [
                    28921, 
                    [
                        {
                            "pitch": 45, 
                            "t0": 28921, 
                            "v": 108, 
                            "dur": 193, 
                            "type": "note", 
                            "channel": 9
                        }
                    ]
                ], 
                [
                    29178, 
                    [
                        {
                            "pitch": 47, 
                            "t0": 29178, 
                            "v": 64, 
                            "dur": 76, 
                            "type": "note", 
                            "channel": 9
                        }
                    ]
                ], 
                [
                    29302, 
                    [
                        {
                            "pitch": 47, 
                            "t0": 29302, 
                            "v": 58, 
                            "dur": 97, 
                            "type": "note", 
                            "channel": 9
                        }
                    ]
                ], 
                [
                    29550, 
                    [
                        {
                            "pitch": 47, 
                            "t0": 29550, 
                            "v": 56, 
                            "dur": 104, 
                            "type": "note", 
                            "channel": 9
                        }
                    ]
                ], 
                [
                    29697, 
                    [
                        {
                            "pitch": 45, 
                            "t0": 29697, 
                            "v": 43, 
                            "dur": 99, 
                            "type": "note", 
                            "channel": 9
                        }
                    ]
                ], 
                [
                    29700, 
                    [
                        {
                            "pitch": 43, 
                            "t0": 29700, 
                            "v": 44, 
                            "dur": 91, 
                            "type": "note", 
                            "channel": 9
                        }
                    ]
                ], 
                [
                    29704, 
                    [
                        {
                            "pitch": 41, 
                            "t0": 29704, 
                            "v": 43, 
                            "dur": 89, 
                            "type": "note", 
                            "channel": 9
                        }
                    ]
                ], 
                [
                    29952, 
                    [
                        {
                            "pitch": 43, 
                            "t0": 29952, 
                            "v": 116, 
                            "dur": 195, 
                            "type": "note", 
                            "channel": 9
                        }
                    ]
                ], 
                [
                    29953, 
                    [
                        {
                            "pitch": 41, 
                            "t0": 29953, 
                            "v": 112, 
                            "dur": 191, 
                            "type": "note", 
                            "channel": 9
                        }, 
                        {
                            "pitch": 45, 
                            "t0": 29953, 
                            "v": 112, 
                            "dur": 192, 
                            "type": "note", 
                            "channel": 9
                        }
                    ]
                ], 
                [
                    30204, 
                    [
                        {
                            "pitch": 47, 
                            "t0": 30204, 
                            "v": 76, 
                            "dur": 82, 
                            "type": "note", 
                            "channel": 9
                        }
                    ]
                ], 
                [
                    30329, 
                    [
                        {
                            "pitch": 47, 
                            "t0": 30329, 
                            "v": 64, 
                            "dur": 85, 
                            "type": "note", 
                            "channel": 9
                        }
                    ]
                ], 
                [
                    30592, 
                    [
                        {
                            "pitch": 47, 
                            "t0": 30592, 
                            "v": 54, 
                            "dur": 75, 
                            "type": "note", 
                            "channel": 9
                        }
                    ]
                ], 
                [
                    30724, 
                    [
                        {
                            "pitch": 45, 
                            "t0": 30724, 
                            "v": 80, 
                            "dur": 97, 
                            "type": "note", 
                            "channel": 9
                        }
                    ]
                ], 
                [
                    30726, 
                    [
                        {
                            "pitch": 41, 
                            "t0": 30726, 
                            "v": 76, 
                            "dur": 91, 
                            "type": "note", 
                            "channel": 9
                        }, 
                        {
                            "pitch": 43, 
                            "t0": 30726, 
                            "v": 68, 
                            "dur": 92, 
                            "type": "note", 
                            "channel": 9
                        }
                    ]
                ], 
                [
                    30985, 
                    [
                        {
                            "pitch": 45, 
                            "t0": 30985, 
                            "v": 112, 
                            "dur": 194, 
                            "type": "note", 
                            "channel": 9
                        }, 
                        {
                            "pitch": 41, 
                            "t0": 30985, 
                            "v": 112, 
                            "dur": 200, 
                            "type": "note", 
                            "channel": 9
                        }
                    ]
                ], 
                [
                    30986, 
                    [
                        {
                            "pitch": 43, 
                            "t0": 30986, 
                            "v": 120, 
                            "dur": 205, 
                            "type": "note", 
                            "channel": 9
                        }
                    ]
                ], 
                [
                    31240, 
                    [
                        {
                            "pitch": 47, 
                            "t0": 31240, 
                            "v": 60, 
                            "dur": 76, 
                            "type": "note", 
                            "channel": 9
                        }
                    ]
                ], 
                [
                    31366, 
                    [
                        {
                            "pitch": 47, 
                            "t0": 31366, 
                            "v": 54, 
                            "dur": 92, 
                            "type": "note", 
                            "channel": 9
                        }
                    ]
                ], 
                [
                    31606, 
                    [
                        {
                            "pitch": 47, 
                            "t0": 31606, 
                            "v": 58, 
                            "dur": 100, 
                            "type": "note", 
                            "channel": 9
                        }
                    ]
                ], 
                [
                    31732, 
                    [
                        {
                            "pitch": 45, 
                            "t0": 31732, 
                            "v": 60, 
                            "dur": 69, 
                            "type": "note", 
                            "channel": 9
                        }
                    ]
                ], 
                [
                    31734, 
                    [
                        {
                            "pitch": 41, 
                            "t0": 31734, 
                            "v": 72, 
                            "dur": 62, 
                            "type": "note", 
                            "channel": 9
                        }, 
                        {
                            "pitch": 43, 
                            "t0": 31734, 
                            "v": 58, 
                            "dur": 63, 
                            "type": "note", 
                            "channel": 9
                        }
                    ]
                ], 
                [
                    31997, 
                    [
                        {
                            "pitch": 41, 
                            "t0": 31997, 
                            "v": 112, 
                            "dur": 197, 
                            "type": "note", 
                            "channel": 9
                        }, 
                        {
                            "pitch": 43, 
                            "t0": 31997, 
                            "v": 116, 
                            "dur": 198, 
                            "type": "note", 
                            "channel": 9
                        }
                    ]
                ], 
                [
                    31998, 
                    [
                        {
                            "pitch": 45, 
                            "t0": 31998, 
                            "v": 108, 
                            "dur": 184, 
                            "type": "note", 
                            "channel": 9
                        }
                    ]
                ], 
                [
                    32265, 
                    [
                        {
                            "pitch": 47, 
                            "t0": 32265, 
                            "v": 40, 
                            "dur": 73, 
                            "type": "note", 
                            "channel": 9
                        }
                    ]
                ], 
                [
                    32387, 
                    [
                        {
                            "pitch": 47, 
                            "t0": 32387, 
                            "v": 56, 
                            "dur": 76, 
                            "type": "note", 
                            "channel": 9
                        }
                    ]
                ], 
                [
                    32639, 
                    [
                        {
                            "pitch": 47, 
                            "t0": 32639, 
                            "v": 60, 
                            "dur": 97, 
                            "type": "note", 
                            "channel": 9
                        }
                    ]
                ], 
                [
                    32772, 
                    [
                        {
                            "pitch": 43, 
                            "t0": 32772, 
                            "v": 50, 
                            "dur": 58, 
                            "type": "note", 
                            "channel": 9
                        }
                    ]
                ], 
                [
                    32773, 
                    [
                        {
                            "pitch": 45, 
                            "t0": 32773, 
                            "v": 50, 
                            "dur": 59, 
                            "type": "note", 
                            "channel": 9
                        }
                    ]
                ], 
                [
                    32774, 
                    [
                        {
                            "pitch": 41, 
                            "t0": 32774, 
                            "v": 48, 
                            "dur": 47, 
                            "type": "note", 
                            "channel": 9
                        }
                    ]
                ], 
                [
                    33022, 
                    [
                        {
                            "pitch": 45, 
                            "t0": 33022, 
                            "v": 104, 
                            "dur": 204, 
                            "type": "note", 
                            "channel": 9
                        }, 
                        {
                            "pitch": 41, 
                            "t0": 33022, 
                            "v": 112, 
                            "dur": 218, 
                            "type": "note", 
                            "channel": 9
                        }
                    ]
                ], 
                [
                    33023, 
                    [
                        {
                            "pitch": 43, 
                            "t0": 33023, 
                            "v": 112, 
                            "dur": 216, 
                            "type": "note", 
                            "channel": 9
                        }
                    ]
                ], 
                [
                    33272, 
                    [
                        {
                            "pitch": 47, 
                            "t0": 33272, 
                            "v": 72, 
                            "dur": 71, 
                            "type": "note", 
                            "channel": 9
                        }
                    ]
                ], 
                [
                    33399, 
                    [
                        {
                            "pitch": 47, 
                            "t0": 33399, 
                            "v": 52, 
                            "dur": 69, 
                            "type": "note", 
                            "channel": 9
                        }
                    ]
                ], 
                [
                    33648, 
                    [
                        {
                            "pitch": 47, 
                            "t0": 33648, 
                            "v": 50, 
                            "dur": 96, 
                            "type": "note", 
                            "channel": 9
                        }
                    ]
                ], 
                [
                    33782, 
                    [
                        {
                            "pitch": 45, 
                            "t0": 33782, 
                            "v": 46, 
                            "dur": 70, 
                            "type": "note", 
                            "channel": 9
                        }
                    ]
                ], 
                [
                    33783, 
                    [
                        {
                            "pitch": 43, 
                            "t0": 33783, 
                            "v": 48, 
                            "dur": 68, 
                            "type": "note", 
                            "channel": 9
                        }
                    ]
                ], 
                [
                    33785, 
                    [
                        {
                            "pitch": 41, 
                            "t0": 33785, 
                            "v": 46, 
                            "dur": 60, 
                            "type": "note", 
                            "channel": 9
                        }
                    ]
                ], 
                [
                    34038, 
                    [
                        {
                            "pitch": 43, 
                            "t0": 34038, 
                            "v": 112, 
                            "dur": 222, 
                            "type": "note", 
                            "channel": 9
                        }
                    ]
                ], 
                [
                    34039, 
                    [
                        {
                            "pitch": 41, 
                            "t0": 34039, 
                            "v": 116, 
                            "dur": 222, 
                            "type": "note", 
                            "channel": 9
                        }
                    ]
                ], 
                [
                    34040, 
                    [
                        {
                            "pitch": 45, 
                            "t0": 34040, 
                            "v": 108, 
                            "dur": 219, 
                            "type": "note", 
                            "channel": 9
                        }
                    ]
                ], 
                [
                    34298, 
                    [
                        {
                            "pitch": 47, 
                            "t0": 34298, 
                            "v": 46, 
                            "dur": 79, 
                            "type": "note", 
                            "channel": 9
                        }
                    ]
                ], 
                [
                    34422, 
                    [
                        {
                            "pitch": 47, 
                            "t0": 34422, 
                            "v": 48, 
                            "dur": 65, 
                            "type": "note", 
                            "channel": 9
                        }
                    ]
                ], 
                [
                    34669, 
                    [
                        {
                            "pitch": 47, 
                            "t0": 34669, 
                            "v": 44, 
                            "dur": 95, 
                            "type": "note", 
                            "channel": 9
                        }
                    ]
                ], 
                [
                    34792, 
                    [
                        {
                            "pitch": 45, 
                            "t0": 34792, 
                            "v": 68, 
                            "dur": 94, 
                            "type": "note", 
                            "channel": 9
                        }
                    ]
                ], 
                [
                    34793, 
                    [
                        {
                            "pitch": 43, 
                            "t0": 34793, 
                            "v": 64, 
                            "dur": 79, 
                            "type": "note", 
                            "channel": 9
                        }
                    ]
                ], 
                [
                    34795, 
                    [
                        {
                            "pitch": 41, 
                            "t0": 34795, 
                            "v": 60, 
                            "dur": 68, 
                            "type": "note", 
                            "channel": 9
                        }
                    ]
                ], 
                [
                    35057, 
                    [
                        {
                            "pitch": 45, 
                            "t0": 35057, 
                            "v": 108, 
                            "dur": 217, 
                            "type": "note", 
                            "channel": 9
                        }, 
                        {
                            "pitch": 41, 
                            "t0": 35057, 
                            "v": 116, 
                            "dur": 217, 
                            "type": "note", 
                            "channel": 9
                        }
                    ]
                ], 
                [
                    35058, 
                    [
                        {
                            "pitch": 43, 
                            "t0": 35058, 
                            "v": 108, 
                            "dur": 217, 
                            "type": "note", 
                            "channel": 9
                        }
                    ]
                ], 
                [
                    35316, 
                    [
                        {
                            "pitch": 47, 
                            "t0": 35316, 
                            "v": 58, 
                            "dur": 74, 
                            "type": "note", 
                            "channel": 9
                        }
                    ]
                ], 
                [
                    35454, 
                    [
                        {
                            "pitch": 47, 
                            "t0": 35454, 
                            "v": 46, 
                            "dur": 70, 
                            "type": "note", 
                            "channel": 9
                        }
                    ]
                ], 
                [
                    35710, 
                    [
                        {
                            "pitch": 47, 
                            "t0": 35710, 
                            "v": 50, 
                            "dur": 99, 
                            "type": "note", 
                            "channel": 9
                        }
                    ]
                ], 
                [
                    35838, 
                    [
                        {
                            "pitch": 45, 
                            "t0": 35838, 
                            "v": 60, 
                            "dur": 85, 
                            "type": "note", 
                            "channel": 9
                        }
                    ]
                ], 
                [
                    35839, 
                    [
                        {
                            "pitch": 43, 
                            "t0": 35839, 
                            "v": 58, 
                            "dur": 72, 
                            "type": "note", 
                            "channel": 9
                        }, 
                        {
                            "pitch": 41, 
                            "t0": 35839, 
                            "v": 56, 
                            "dur": 73, 
                            "type": "note", 
                            "channel": 9
                        }
                    ]
                ], 
                [
                    36095, 
                    [
                        {
                            "pitch": 41, 
                            "t0": 36095, 
                            "v": 124, 
                            "dur": 243, 
                            "type": "note", 
                            "channel": 9
                        }
                    ]
                ], 
                [
                    36096, 
                    [
                        {
                            "pitch": 43, 
                            "t0": 36096, 
                            "v": 127, 
                            "dur": 233, 
                            "type": "note", 
                            "channel": 9
                        }, 
                        {
                            "pitch": 45, 
                            "t0": 36096, 
                            "v": 120, 
                            "dur": 235, 
                            "type": "note", 
                            "channel": 9
                        }
                    ]
                ], 
                [
                    36348, 
                    [
                        {
                            "pitch": 47, 
                            "t0": 36348, 
                            "v": 76, 
                            "dur": 67, 
                            "type": "note", 
                            "channel": 9
                        }
                    ]
                ], 
                [
                    36478, 
                    [
                        {
                            "pitch": 47, 
                            "t0": 36478, 
                            "v": 47, 
                            "dur": 70, 
                            "type": "note", 
                            "channel": 9
                        }
                    ]
                ], 
                [
                    36727, 
                    [
                        {
                            "pitch": 47, 
                            "t0": 36727, 
                            "v": 72, 
                            "dur": 71, 
                            "type": "note", 
                            "channel": 9
                        }
                    ]
                ], 
                [
                    36859, 
                    [
                        {
                            "pitch": 43, 
                            "t0": 36859, 
                            "v": 49, 
                            "dur": 57, 
                            "type": "note", 
                            "channel": 9
                        }, 
                        {
                            "pitch": 45, 
                            "t0": 36859, 
                            "v": 49, 
                            "dur": 62, 
                            "type": "note", 
                            "channel": 9
                        }
                    ]
                ], 
                [
                    36860, 
                    [
                        {
                            "pitch": 41, 
                            "t0": 36860, 
                            "v": 48, 
                            "dur": 53, 
                            "type": "note", 
                            "channel": 9
                        }
                    ]
                ], 
                [
                    37110, 
                    [
                        {
                            "pitch": 45, 
                            "t0": 37110, 
                            "v": 124, 
                            "dur": 186, 
                            "type": "note", 
                            "channel": 9
                        }, 
                        {
                            "pitch": 43, 
                            "t0": 37110, 
                            "v": 116, 
                            "dur": 189, 
                            "type": "note", 
                            "channel": 9
                        }
                    ]
                ], 
                [
                    37111, 
                    [
                        {
                            "pitch": 41, 
                            "t0": 37111, 
                            "v": 120, 
                            "dur": 188, 
                            "type": "note", 
                            "channel": 9
                        }
                    ]
                ], 
                [
                    37363, 
                    [
                        {
                            "pitch": 47, 
                            "t0": 37363, 
                            "v": 76, 
                            "dur": 63, 
                            "type": "note", 
                            "channel": 9
                        }
                    ]
                ], 
                [
                    37487, 
                    [
                        {
                            "pitch": 47, 
                            "t0": 37487, 
                            "v": 44, 
                            "dur": 84, 
                            "type": "note", 
                            "channel": 9
                        }
                    ]
                ], 
                [
                    37744, 
                    [
                        {
                            "pitch": 47, 
                            "t0": 37744, 
                            "v": 68, 
                            "dur": 63, 
                            "type": "note", 
                            "channel": 9
                        }
                    ]
                ], 
                [
                    37884, 
                    [
                        {
                            "pitch": 41, 
                            "t0": 37884, 
                            "v": 92, 
                            "dur": 60, 
                            "type": "note", 
                            "channel": 9
                        }
                    ]
                ], 
                [
                    37885, 
                    [
                        {
                            "pitch": 43, 
                            "t0": 37885, 
                            "v": 88, 
                            "dur": 63, 
                            "type": "note", 
                            "channel": 9
                        }, 
                        {
                            "pitch": 45, 
                            "t0": 37885, 
                            "v": 84, 
                            "dur": 65, 
                            "type": "note", 
                            "channel": 9
                        }
                    ]
                ], 
                [
                    38133, 
                    [
                        {
                            "pitch": 41, 
                            "t0": 38133, 
                            "v": 80, 
                            "dur": 119, 
                            "type": "note", 
                            "channel": 9
                        }, 
                        {
                            "pitch": 43, 
                            "t0": 38133, 
                            "v": 88, 
                            "dur": 120, 
                            "type": "note", 
                            "channel": 9
                        }
                    ]
                ], 
                [
                    38134, 
                    [
                        {
                            "pitch": 45, 
                            "t0": 38134, 
                            "v": 80, 
                            "dur": 119, 
                            "type": "note", 
                            "channel": 9
                        }
                    ]
                ], 
                [
                    38403, 
                    [
                        {
                            "pitch": 47, 
                            "t0": 38403, 
                            "v": 60, 
                            "dur": 65, 
                            "type": "note", 
                            "channel": 9
                        }
                    ]
                ], 
                [
                    38531, 
                    [
                        {
                            "pitch": 47, 
                            "t0": 38531, 
                            "v": 46, 
                            "dur": 68, 
                            "type": "note", 
                            "channel": 9
                        }
                    ]
                ], 
                [
                    38796, 
                    [
                        {
                            "pitch": 47, 
                            "t0": 38796, 
                            "v": 6, 
                            "dur": 79, 
                            "type": "note", 
                            "channel": 9
                        }
                    ]
                ], 
                [
                    38922, 
                    [
                        {
                            "pitch": 45, 
                            "t0": 38922, 
                            "v": 46, 
                            "dur": 54, 
                            "type": "note", 
                            "channel": 9
                        }
                    ]
                ], 
                [
                    38926, 
                    [
                        {
                            "pitch": 43, 
                            "t0": 38926, 
                            "v": 46, 
                            "dur": 42, 
                            "type": "note", 
                            "channel": 9
                        }
                    ]
                ], 
                [
                    38927, 
                    [
                        {
                            "pitch": 41, 
                            "t0": 38927, 
                            "v": 46, 
                            "dur": 38, 
                            "type": "note", 
                            "channel": 9
                        }
                    ]
                ], 
                [
                    39158, 
                    [
                        {
                            "pitch": 41, 
                            "t0": 39158, 
                            "v": 116, 
                            "dur": 232, 
                            "type": "note", 
                            "channel": 9
                        }
                    ]
                ], 
                [
                    39159, 
                    [
                        {
                            "pitch": 45, 
                            "t0": 39159, 
                            "v": 112, 
                            "dur": 225, 
                            "type": "note", 
                            "channel": 9
                        }, 
                        {
                            "pitch": 43, 
                            "t0": 39159, 
                            "v": 112, 
                            "dur": 231, 
                            "type": "note", 
                            "channel": 9
                        }
                    ]
                ], 
                [
                    39416, 
                    [
                        {
                            "pitch": 47, 
                            "t0": 39416, 
                            "v": 72, 
                            "dur": 70, 
                            "type": "note", 
                            "channel": 9
                        }
                    ]
                ], 
                [
                    39811, 
                    [
                        {
                            "pitch": 47, 
                            "t0": 39811, 
                            "v": 60, 
                            "dur": 65, 
                            "type": "note", 
                            "channel": 9
                        }
                    ]
                ], 
                [
                    39936, 
                    [
                        {
                            "pitch": 47, 
                            "t0": 39936, 
                            "v": 47, 
                            "dur": 100, 
                            "type": "note", 
                            "channel": 9
                        }
                    ]
                ], 
                [
                    40202, 
                    [
                        {
                            "pitch": 45, 
                            "t0": 40202, 
                            "v": 112, 
                            "dur": 213, 
                            "type": "note", 
                            "channel": 9
                        }, 
                        {
                            "pitch": 43, 
                            "t0": 40202, 
                            "v": 104, 
                            "dur": 215, 
                            "type": "note", 
                            "channel": 9
                        }
                    ]
                ], 
                [
                    40203, 
                    [
                        {
                            "pitch": 41, 
                            "t0": 40203, 
                            "v": 112, 
                            "dur": 213, 
                            "type": "note", 
                            "channel": 9
                        }
                    ]
                ], 
                [
                    40455, 
                    [
                        {
                            "pitch": 47, 
                            "t0": 40455, 
                            "v": 60, 
                            "dur": 57, 
                            "type": "note", 
                            "channel": 9
                        }
                    ]
                ], 
                [
                    40587, 
                    [
                        {
                            "pitch": 47, 
                            "t0": 40587, 
                            "v": 49, 
                            "dur": 57, 
                            "type": "note", 
                            "channel": 9
                        }
                    ]
                ], 
                [
                    40832, 
                    [
                        {
                            "pitch": 47, 
                            "t0": 40832, 
                            "v": 44, 
                            "dur": 78, 
                            "type": "note", 
                            "channel": 9
                        }
                    ]
                ], 
                [
                    40980, 
                    [
                        {
                            "pitch": 45, 
                            "t0": 40980, 
                            "v": 44, 
                            "dur": 88, 
                            "type": "note", 
                            "channel": 9
                        }
                    ]
                ], 
                [
                    40983, 
                    [
                        {
                            "pitch": 43, 
                            "t0": 40983, 
                            "v": 52, 
                            "dur": 76, 
                            "type": "note", 
                            "channel": 9
                        }, 
                        {
                            "pitch": 41, 
                            "t0": 40983, 
                            "v": 52, 
                            "dur": 77, 
                            "type": "note", 
                            "channel": 9
                        }
                    ]
                ], 
                [
                    41240, 
                    [
                        {
                            "pitch": 45, 
                            "t0": 41240, 
                            "v": 127, 
                            "dur": 94, 
                            "type": "note", 
                            "channel": 9
                        }
                    ]
                ], 
                [
                    41244, 
                    [
                        {
                            "pitch": 41, 
                            "t0": 41244, 
                            "v": 127, 
                            "dur": 83, 
                            "type": "note", 
                            "channel": 9
                        }, 
                        {
                            "pitch": 43, 
                            "t0": 41244, 
                            "v": 127, 
                            "dur": 85, 
                            "type": "note", 
                            "channel": 9
                        }
                    ]
                ], 
                [
                    41500, 
                    [
                        {
                            "pitch": 47, 
                            "t0": 41500, 
                            "v": 76, 
                            "dur": 61, 
                            "type": "note", 
                            "channel": 9
                        }
                    ]
                ], 
                [
                    41628, 
                    [
                        {
                            "pitch": 47, 
                            "t0": 41628, 
                            "v": 60, 
                            "dur": 55, 
                            "type": "note", 
                            "channel": 9
                        }
                    ]
                ], 
                [
                    41883, 
                    [
                        {
                            "pitch": 47, 
                            "t0": 41883, 
                            "v": 47, 
                            "dur": 76, 
                            "type": "note", 
                            "channel": 9
                        }
                    ]
                ], 
                [
                    42024, 
                    [
                        {
                            "pitch": 45, 
                            "t0": 42024, 
                            "v": 58, 
                            "dur": 108, 
                            "type": "note", 
                            "channel": 9
                        }
                    ]
                ], 
                [
                    42025, 
                    [
                        {
                            "pitch": 41, 
                            "t0": 42025, 
                            "v": 50, 
                            "dur": 96, 
                            "type": "note", 
                            "channel": 9
                        }
                    ]
                ], 
                [
                    42028, 
                    [
                        {
                            "pitch": 43, 
                            "t0": 42028, 
                            "v": 54, 
                            "dur": 98, 
                            "type": "note", 
                            "channel": 9
                        }
                    ]
                ], 
                [
                    42281, 
                    [
                        {
                            "pitch": 45, 
                            "t0": 42281, 
                            "v": 127, 
                            "dur": 106, 
                            "type": "note", 
                            "channel": 9
                        }
                    ]
                ], 
                [
                    42285, 
                    [
                        {
                            "pitch": 41, 
                            "t0": 42285, 
                            "v": 127, 
                            "dur": 90, 
                            "type": "note", 
                            "channel": 9
                        }
                    ]
                ], 
                [
                    42287, 
                    [
                        {
                            "pitch": 43, 
                            "t0": 42287, 
                            "v": 127, 
                            "dur": 92, 
                            "type": "note", 
                            "channel": 9
                        }
                    ]
                ], 
                [
                    42546, 
                    [
                        {
                            "pitch": 47, 
                            "t0": 42546, 
                            "v": 80, 
                            "dur": 62, 
                            "type": "note", 
                            "channel": 9
                        }
                    ]
                ], 
                [
                    42675, 
                    [
                        {
                            "pitch": 47, 
                            "t0": 42675, 
                            "v": 72, 
                            "dur": 72, 
                            "type": "note", 
                            "channel": 9
                        }
                    ]
                ], 
                [
                    42932, 
                    [
                        {
                            "pitch": 47, 
                            "t0": 42932, 
                            "v": 56, 
                            "dur": 97, 
                            "type": "note", 
                            "channel": 9
                        }
                    ]
                ], 
                [
                    43070, 
                    [
                        {
                            "pitch": 45, 
                            "t0": 43070, 
                            "v": 49, 
                            "dur": 97, 
                            "type": "note", 
                            "channel": 9
                        }
                    ]
                ], 
                [
                    43072, 
                    [
                        {
                            "pitch": 43, 
                            "t0": 43072, 
                            "v": 50, 
                            "dur": 89, 
                            "type": "note", 
                            "channel": 9
                        }
                    ]
                ], 
                [
                    43074, 
                    [
                        {
                            "pitch": 41, 
                            "t0": 43074, 
                            "v": 50, 
                            "dur": 80, 
                            "type": "note", 
                            "channel": 9
                        }
                    ]
                ], 
                [
                    43323, 
                    [
                        {
                            "pitch": 45, 
                            "t0": 43323, 
                            "v": 127, 
                            "dur": 118, 
                            "type": "note", 
                            "channel": 9
                        }
                    ]
                ], 
                [
                    43326, 
                    [
                        {
                            "pitch": 41, 
                            "t0": 43326, 
                            "v": 127, 
                            "dur": 110, 
                            "type": "note", 
                            "channel": 9
                        }
                    ]
                ], 
                [
                    43327, 
                    [
                        {
                            "pitch": 43, 
                            "t0": 43327, 
                            "v": 127, 
                            "dur": 113, 
                            "type": "note", 
                            "channel": 9
                        }
                    ]
                ], 
                [
                    43558, 
                    [
                        {
                            "pitch": 47, 
                            "t0": 43558, 
                            "v": 64, 
                            "dur": 80, 
                            "type": "note", 
                            "channel": 9
                        }
                    ]
                ], 
                [
                    43684, 
                    [
                        {
                            "pitch": 47, 
                            "t0": 43684, 
                            "v": 58, 
                            "dur": 85, 
                            "type": "note", 
                            "channel": 9
                        }
                    ]
                ], 
                [
                    43944, 
                    [
                        {
                            "pitch": 47, 
                            "t0": 43944, 
                            "v": 72, 
                            "dur": 107, 
                            "type": "note", 
                            "channel": 9
                        }
                    ]
                ], 
                [
                    44075, 
                    [
                        {
                            "pitch": 45, 
                            "t0": 44075, 
                            "v": 68, 
                            "dur": 127, 
                            "type": "note", 
                            "channel": 9
                        }
                    ]
                ], 
                [
                    44079, 
                    [
                        {
                            "pitch": 41, 
                            "t0": 44079, 
                            "v": 58, 
                            "dur": 105, 
                            "type": "note", 
                            "channel": 9
                        }, 
                        {
                            "pitch": 43, 
                            "t0": 44079, 
                            "v": 72, 
                            "dur": 112, 
                            "type": "note", 
                            "channel": 9
                        }
                    ]
                ], 
                [
                    44335, 
                    [
                        {
                            "pitch": 45, 
                            "t0": 44335, 
                            "v": 127, 
                            "dur": 140, 
                            "type": "note", 
                            "channel": 9
                        }
                    ]
                ], 
                [
                    44339, 
                    [
                        {
                            "pitch": 43, 
                            "t0": 44339, 
                            "v": 127, 
                            "dur": 137, 
                            "type": "note", 
                            "channel": 9
                        }, 
                        {
                            "pitch": 41, 
                            "t0": 44339, 
                            "v": 127, 
                            "dur": 140, 
                            "type": "note", 
                            "channel": 9
                        }
                    ]
                ], 
                [
                    44601, 
                    [
                        {
                            "pitch": 47, 
                            "t0": 44601, 
                            "v": 80, 
                            "dur": 74, 
                            "type": "note", 
                            "channel": 9
                        }
                    ]
                ], 
                [
                    44731, 
                    [
                        {
                            "pitch": 47, 
                            "t0": 44731, 
                            "v": 72, 
                            "dur": 102, 
                            "type": "note", 
                            "channel": 9
                        }
                    ]
                ], 
                [
                    44980, 
                    [
                        {
                            "pitch": 47, 
                            "t0": 44980, 
                            "v": 76, 
                            "dur": 137, 
                            "type": "note", 
                            "channel": 9
                        }
                    ]
                ], 
                [
                    45118, 
                    [
                        {
                            "pitch": 45, 
                            "t0": 45118, 
                            "v": 72, 
                            "dur": 92, 
                            "type": "note", 
                            "channel": 9
                        }
                    ]
                ], 
                [
                    45122, 
                    [
                        {
                            "pitch": 41, 
                            "t0": 45122, 
                            "v": 72, 
                            "dur": 78, 
                            "type": "note", 
                            "channel": 9
                        }
                    ]
                ], 
                [
                    45123, 
                    [
                        {
                            "pitch": 43, 
                            "t0": 45123, 
                            "v": 72, 
                            "dur": 87, 
                            "type": "note", 
                            "channel": 9
                        }
                    ]
                ], 
                [
                    45365, 
                    [
                        {
                            "pitch": 45, 
                            "t0": 45365, 
                            "v": 127, 
                            "dur": 142, 
                            "type": "note", 
                            "channel": 9
                        }
                    ]
                ], 
                [
                    45366, 
                    [
                        {
                            "pitch": 43, 
                            "t0": 45366, 
                            "v": 127, 
                            "dur": 160, 
                            "type": "note", 
                            "channel": 9
                        }
                    ]
                ], 
                [
                    45367, 
                    [
                        {
                            "pitch": 41, 
                            "t0": 45367, 
                            "v": 127, 
                            "dur": 156, 
                            "type": "note", 
                            "channel": 9
                        }
                    ]
                ], 
                [
                    45628, 
                    [
                        {
                            "pitch": 47, 
                            "t0": 45628, 
                            "v": 104, 
                            "dur": 74, 
                            "type": "note", 
                            "channel": 9
                        }
                    ]
                ], 
                [
                    45758, 
                    [
                        {
                            "pitch": 47, 
                            "t0": 45758, 
                            "v": 68, 
                            "dur": 68, 
                            "type": "note", 
                            "channel": 9
                        }
                    ]
                ], 
                [
                    46016, 
                    [
                        {
                            "pitch": 47, 
                            "t0": 46016, 
                            "v": 96, 
                            "dur": 104, 
                            "type": "note", 
                            "channel": 9
                        }
                    ]
                ], 
                [
                    46149, 
                    [
                        {
                            "pitch": 45, 
                            "t0": 46149, 
                            "v": 72, 
                            "dur": 111, 
                            "type": "note", 
                            "channel": 9
                        }
                    ]
                ], 
                [
                    46151, 
                    [
                        {
                            "pitch": 41, 
                            "t0": 46151, 
                            "v": 64, 
                            "dur": 107, 
                            "type": "note", 
                            "channel": 9
                        }, 
                        {
                            "pitch": 43, 
                            "t0": 46151, 
                            "v": 72, 
                            "dur": 114, 
                            "type": "note", 
                            "channel": 9
                        }
                    ]
                ], 
                [
                    46414, 
                    [
                        {
                            "pitch": 41, 
                            "t0": 46414, 
                            "v": 127, 
                            "dur": 153, 
                            "type": "note", 
                            "channel": 9
                        }
                    ]
                ], 
                [
                    46415, 
                    [
                        {
                            "pitch": 45, 
                            "t0": 46415, 
                            "v": 127, 
                            "dur": 150, 
                            "type": "note", 
                            "channel": 9
                        }, 
                        {
                            "pitch": 43, 
                            "t0": 46415, 
                            "v": 127, 
                            "dur": 157, 
                            "type": "note", 
                            "channel": 9
                        }
                    ]
                ], 
                [
                    46679, 
                    [
                        {
                            "pitch": 47, 
                            "t0": 46679, 
                            "v": 108, 
                            "dur": 65, 
                            "type": "note", 
                            "channel": 9
                        }
                    ]
                ], 
                [
                    46813, 
                    [
                        {
                            "pitch": 47, 
                            "t0": 46813, 
                            "v": 64, 
                            "dur": 85, 
                            "type": "note", 
                            "channel": 9
                        }
                    ]
                ], 
                [
                    47064, 
                    [
                        {
                            "pitch": 47, 
                            "t0": 47064, 
                            "v": 50, 
                            "dur": 92, 
                            "type": "note", 
                            "channel": 9
                        }
                    ]
                ], 
                [
                    47197, 
                    [
                        {
                            "pitch": 45, 
                            "t0": 47197, 
                            "v": 80, 
                            "dur": 124, 
                            "type": "note", 
                            "channel": 9
                        }, 
                        {
                            "pitch": 41, 
                            "t0": 47197, 
                            "v": 60, 
                            "dur": 129, 
                            "type": "note", 
                            "channel": 9
                        }
                    ]
                ], 
                [
                    47199, 
                    [
                        {
                            "pitch": 43, 
                            "t0": 47199, 
                            "v": 56, 
                            "dur": 121, 
                            "type": "note", 
                            "channel": 9
                        }
                    ]
                ], 
                [
                    47460, 
                    [
                        {
                            "pitch": 45, 
                            "t0": 47460, 
                            "v": 127, 
                            "dur": 170, 
                            "type": "note", 
                            "channel": 9
                        }, 
                        {
                            "pitch": 41, 
                            "t0": 47460, 
                            "v": 127, 
                            "dur": 171, 
                            "type": "note", 
                            "channel": 9
                        }, 
                        {
                            "pitch": 43, 
                            "t0": 47460, 
                            "v": 127, 
                            "dur": 177, 
                            "type": "note", 
                            "channel": 9
                        }
                    ]
                ], 
                [
                    47712, 
                    [
                        {
                            "pitch": 47, 
                            "t0": 47712, 
                            "v": 96, 
                            "dur": 80, 
                            "type": "note", 
                            "channel": 9
                        }
                    ]
                ], 
                [
                    47846, 
                    [
                        {
                            "pitch": 47, 
                            "t0": 47846, 
                            "v": 58, 
                            "dur": 83, 
                            "type": "note", 
                            "channel": 9
                        }
                    ]
                ], 
                [
                    48087, 
                    [
                        {
                            "pitch": 47, 
                            "t0": 48087, 
                            "v": 60, 
                            "dur": 96, 
                            "type": "note", 
                            "channel": 9
                        }
                    ]
                ], 
                [
                    48228, 
                    [
                        {
                            "pitch": 45, 
                            "t0": 48228, 
                            "v": 46, 
                            "dur": 105, 
                            "type": "note", 
                            "channel": 9
                        }
                    ]
                ], 
                [
                    48230, 
                    [
                        {
                            "pitch": 43, 
                            "t0": 48230, 
                            "v": 45, 
                            "dur": 94, 
                            "type": "note", 
                            "channel": 9
                        }, 
                        {
                            "pitch": 41, 
                            "t0": 48230, 
                            "v": 44, 
                            "dur": 105, 
                            "type": "note", 
                            "channel": 9
                        }
                    ]
                ], 
                [
                    48500, 
                    [
                        {
                            "pitch": 41, 
                            "t0": 48500, 
                            "v": 127, 
                            "dur": 163, 
                            "type": "note", 
                            "channel": 9
                        }
                    ]
                ], 
                [
                    48501, 
                    [
                        {
                            "pitch": 43, 
                            "t0": 48501, 
                            "v": 127, 
                            "dur": 166, 
                            "type": "note", 
                            "channel": 9
                        }
                    ]
                ], 
                [
                    48502, 
                    [
                        {
                            "pitch": 45, 
                            "t0": 48502, 
                            "v": 127, 
                            "dur": 162, 
                            "type": "note", 
                            "channel": 9
                        }
                    ]
                ], 
                [
                    48772, 
                    [
                        {
                            "pitch": 47, 
                            "t0": 48772, 
                            "v": 45, 
                            "dur": 75, 
                            "type": "note", 
                            "channel": 9
                        }
                    ]
                ], 
                [
                    48905, 
                    [
                        {
                            "pitch": 47, 
                            "t0": 48905, 
                            "v": 50, 
                            "dur": 74, 
                            "type": "note", 
                            "channel": 9
                        }
                    ]
                ], 
                [
                    49145, 
                    [
                        {
                            "pitch": 47, 
                            "t0": 49145, 
                            "v": 76, 
                            "dur": 86, 
                            "type": "note", 
                            "channel": 9
                        }
                    ]
                ], 
                [
                    49296, 
                    [
                        {
                            "pitch": 45, 
                            "t0": 49296, 
                            "v": 45, 
                            "dur": 98, 
                            "type": "note", 
                            "channel": 9
                        }
                    ]
                ], 
                [
                    49298, 
                    [
                        {
                            "pitch": 41, 
                            "t0": 49298, 
                            "v": 46, 
                            "dur": 82, 
                            "type": "note", 
                            "channel": 9
                        }
                    ]
                ], 
                [
                    49302, 
                    [
                        {
                            "pitch": 43, 
                            "t0": 49302, 
                            "v": 49, 
                            "dur": 81, 
                            "type": "note", 
                            "channel": 9
                        }
                    ]
                ], 
                [
                    49559, 
                    [
                        {
                            "pitch": 45, 
                            "t0": 49559, 
                            "v": 127, 
                            "dur": 160, 
                            "type": "note", 
                            "channel": 9
                        }
                    ]
                ], 
                [
                    49560, 
                    [
                        {
                            "pitch": 43, 
                            "t0": 49560, 
                            "v": 127, 
                            "dur": 169, 
                            "type": "note", 
                            "channel": 9
                        }, 
                        {
                            "pitch": 41, 
                            "t0": 49560, 
                            "v": 127, 
                            "dur": 169, 
                            "type": "note", 
                            "channel": 9
                        }
                    ]
                ], 
                [
                    49819, 
                    [
                        {
                            "pitch": 47, 
                            "t0": 49819, 
                            "v": 76, 
                            "dur": 76, 
                            "type": "note", 
                            "channel": 9
                        }
                    ]
                ], 
                [
                    49950, 
                    [
                        {
                            "pitch": 47, 
                            "t0": 49950, 
                            "v": 64, 
                            "dur": 76, 
                            "type": "note", 
                            "channel": 9
                        }
                    ]
                ], 
                [
                    50189, 
                    [
                        {
                            "pitch": 47, 
                            "t0": 50189, 
                            "v": 88, 
                            "dur": 62, 
                            "type": "note", 
                            "channel": 9
                        }
                    ]
                ], 
                [
                    50323, 
                    [
                        {
                            "pitch": 45, 
                            "t0": 50323, 
                            "v": 54, 
                            "dur": 125, 
                            "type": "note", 
                            "channel": 9
                        }
                    ]
                ], 
                [
                    50328, 
                    [
                        {
                            "pitch": 41, 
                            "t0": 50328, 
                            "v": 49, 
                            "dur": 115, 
                            "type": "note", 
                            "channel": 9
                        }
                    ]
                ], 
                [
                    50329, 
                    [
                        {
                            "pitch": 43, 
                            "t0": 50329, 
                            "v": 50, 
                            "dur": 115, 
                            "type": "note", 
                            "channel": 9
                        }
                    ]
                ], 
                [
                    50590, 
                    [
                        {
                            "pitch": 41, 
                            "t0": 50590, 
                            "v": 127, 
                            "dur": 183, 
                            "type": "note", 
                            "channel": 9
                        }
                    ]
                ], 
                [
                    50591, 
                    [
                        {
                            "pitch": 45, 
                            "t0": 50591, 
                            "v": 127, 
                            "dur": 169, 
                            "type": "note", 
                            "channel": 9
                        }
                    ]
                ], 
                [
                    50592, 
                    [
                        {
                            "pitch": 43, 
                            "t0": 50592, 
                            "v": 127, 
                            "dur": 176, 
                            "type": "note", 
                            "channel": 9
                        }
                    ]
                ], 
                [
                    50861, 
                    [
                        {
                            "pitch": 47, 
                            "t0": 50861, 
                            "v": 58, 
                            "dur": 78, 
                            "type": "note", 
                            "channel": 9
                        }
                    ]
                ], 
                [
                    50989, 
                    [
                        {
                            "pitch": 47, 
                            "t0": 50989, 
                            "v": 49, 
                            "dur": 77, 
                            "type": "note", 
                            "channel": 9
                        }
                    ]
                ], 
                [
                    51244, 
                    [
                        {
                            "pitch": 47, 
                            "t0": 51244, 
                            "v": 76, 
                            "dur": 60, 
                            "type": "note", 
                            "channel": 9
                        }
                    ]
                ], 
                [
                    51376, 
                    [
                        {
                            "pitch": 45, 
                            "t0": 51376, 
                            "v": 58, 
                            "dur": 129, 
                            "type": "note", 
                            "channel": 9
                        }
                    ]
                ], 
                [
                    51380, 
                    [
                        {
                            "pitch": 41, 
                            "t0": 51380, 
                            "v": 58, 
                            "dur": 118, 
                            "type": "note", 
                            "channel": 9
                        }
                    ]
                ], 
                [
                    51381, 
                    [
                        {
                            "pitch": 43, 
                            "t0": 51381, 
                            "v": 58, 
                            "dur": 123, 
                            "type": "note", 
                            "channel": 9
                        }
                    ]
                ], 
                [
                    51649, 
                    [
                        {
                            "pitch": 45, 
                            "t0": 51649, 
                            "v": 127, 
                            "dur": 186, 
                            "type": "note", 
                            "channel": 9
                        }
                    ]
                ], 
                [
                    51650, 
                    [
                        {
                            "pitch": 43, 
                            "t0": 51650, 
                            "v": 127, 
                            "dur": 187, 
                            "type": "note", 
                            "channel": 9
                        }, 
                        {
                            "pitch": 41, 
                            "t0": 51650, 
                            "v": 127, 
                            "dur": 193, 
                            "type": "note", 
                            "channel": 9
                        }
                    ]
                ], 
                [
                    51910, 
                    [
                        {
                            "pitch": 47, 
                            "t0": 51910, 
                            "v": 84, 
                            "dur": 74, 
                            "type": "note", 
                            "channel": 9
                        }
                    ]
                ], 
                [
                    52044, 
                    [
                        {
                            "pitch": 47, 
                            "t0": 52044, 
                            "v": 42, 
                            "dur": 79, 
                            "type": "note", 
                            "channel": 9
                        }
                    ]
                ], 
                [
                    52285, 
                    [
                        {
                            "pitch": 47, 
                            "t0": 52285, 
                            "v": 76, 
                            "dur": 61, 
                            "type": "note", 
                            "channel": 9
                        }
                    ]
                ], 
                [
                    52423, 
                    [
                        {
                            "pitch": 45, 
                            "t0": 52423, 
                            "v": 58, 
                            "dur": 118, 
                            "type": "note", 
                            "channel": 9
                        }
                    ]
                ], 
                [
                    52425, 
                    [
                        {
                            "pitch": 41, 
                            "t0": 52425, 
                            "v": 58, 
                            "dur": 119, 
                            "type": "note", 
                            "channel": 9
                        }
                    ]
                ], 
                [
                    52426, 
                    [
                        {
                            "pitch": 43, 
                            "t0": 52426, 
                            "v": 58, 
                            "dur": 102, 
                            "type": "note", 
                            "channel": 9
                        }
                    ]
                ], 
                [
                    52689, 
                    [
                        {
                            "pitch": 43, 
                            "t0": 52689, 
                            "v": 127, 
                            "dur": 192, 
                            "type": "note", 
                            "channel": 9
                        }, 
                        {
                            "pitch": 45, 
                            "t0": 52689, 
                            "v": 127, 
                            "dur": 210, 
                            "type": "note", 
                            "channel": 9
                        }, 
                        {
                            "pitch": 41, 
                            "t0": 52689, 
                            "v": 127, 
                            "dur": 217, 
                            "type": "note", 
                            "channel": 9
                        }
                    ]
                ], 
                [
                    52951, 
                    [
                        {
                            "pitch": 47, 
                            "t0": 52951, 
                            "v": 72, 
                            "dur": 65, 
                            "type": "note", 
                            "channel": 9
                        }
                    ]
                ], 
                [
                    53068, 
                    [
                        {
                            "pitch": 47, 
                            "t0": 53068, 
                            "v": 48, 
                            "dur": 88, 
                            "type": "note", 
                            "channel": 9
                        }
                    ]
                ], 
                [
                    53320, 
                    [
                        {
                            "pitch": 47, 
                            "t0": 53320, 
                            "v": 56, 
                            "dur": 85, 
                            "type": "note", 
                            "channel": 9
                        }
                    ]
                ], 
                [
                    53463, 
                    [
                        {
                            "pitch": 43, 
                            "t0": 53463, 
                            "v": 58, 
                            "dur": 85, 
                            "type": "note", 
                            "channel": 9
                        }
                    ]
                ], 
                [
                    53464, 
                    [
                        {
                            "pitch": 45, 
                            "t0": 53464, 
                            "v": 58, 
                            "dur": 90, 
                            "type": "note", 
                            "channel": 9
                        }
                    ]
                ], 
                [
                    53466, 
                    [
                        {
                            "pitch": 41, 
                            "t0": 53466, 
                            "v": 58, 
                            "dur": 76, 
                            "type": "note", 
                            "channel": 9
                        }
                    ]
                ], 
                [
                    53733, 
                    [
                        {
                            "pitch": 45, 
                            "t0": 53733, 
                            "v": 127, 
                            "dur": 200, 
                            "type": "note", 
                            "channel": 9
                        }
                    ]
                ], 
                [
                    53735, 
                    [
                        {
                            "pitch": 43, 
                            "t0": 53735, 
                            "v": 127, 
                            "dur": 189, 
                            "type": "note", 
                            "channel": 9
                        }, 
                        {
                            "pitch": 41, 
                            "t0": 53735, 
                            "v": 127, 
                            "dur": 191, 
                            "type": "note", 
                            "channel": 9
                        }
                    ]
                ], 
                [
                    53996, 
                    [
                        {
                            "pitch": 47, 
                            "t0": 53996, 
                            "v": 68, 
                            "dur": 67, 
                            "type": "note", 
                            "channel": 9
                        }
                    ]
                ], 
                [
                    54136, 
                    [
                        {
                            "pitch": 47, 
                            "t0": 54136, 
                            "v": 49, 
                            "dur": 73, 
                            "type": "note", 
                            "channel": 9
                        }
                    ]
                ], 
                [
                    54385, 
                    [
                        {
                            "pitch": 47, 
                            "t0": 54385, 
                            "v": 68, 
                            "dur": 84, 
                            "type": "note", 
                            "channel": 9
                        }
                    ]
                ], 
                [
                    54517, 
                    [
                        {
                            "pitch": 41, 
                            "t0": 54517, 
                            "v": 68, 
                            "dur": 99, 
                            "type": "note", 
                            "channel": 9
                        }
                    ]
                ], 
                [
                    54518, 
                    [
                        {
                            "pitch": 45, 
                            "t0": 54518, 
                            "v": 64, 
                            "dur": 100, 
                            "type": "note", 
                            "channel": 9
                        }
                    ]
                ], 
                [
                    54519, 
                    [
                        {
                            "pitch": 43, 
                            "t0": 54519, 
                            "v": 68, 
                            "dur": 95, 
                            "type": "note", 
                            "channel": 9
                        }
                    ]
                ], 
                [
                    54777, 
                    [
                        {
                            "pitch": 43, 
                            "t0": 54777, 
                            "v": 127, 
                            "dur": 183, 
                            "type": "note", 
                            "channel": 9
                        }, 
                        {
                            "pitch": 45, 
                            "t0": 54777, 
                            "v": 127, 
                            "dur": 186, 
                            "type": "note", 
                            "channel": 9
                        }
                    ]
                ], 
                [
                    54778, 
                    [
                        {
                            "pitch": 41, 
                            "t0": 54778, 
                            "v": 127, 
                            "dur": 183, 
                            "type": "note", 
                            "channel": 9
                        }
                    ]
                ], 
                [
                    55038, 
                    [
                        {
                            "pitch": 47, 
                            "t0": 55038, 
                            "v": 64, 
                            "dur": 78, 
                            "type": "note", 
                            "channel": 9
                        }
                    ]
                ], 
                [
                    55170, 
                    [
                        {
                            "pitch": 47, 
                            "t0": 55170, 
                            "v": 58, 
                            "dur": 82, 
                            "type": "note", 
                            "channel": 9
                        }
                    ]
                ], 
                [
                    55413, 
                    [
                        {
                            "pitch": 47, 
                            "t0": 55413, 
                            "v": 60, 
                            "dur": 76, 
                            "type": "note", 
                            "channel": 9
                        }
                    ]
                ], 
                [
                    55553, 
                    [
                        {
                            "pitch": 41, 
                            "t0": 55553, 
                            "v": 64, 
                            "dur": 104, 
                            "type": "note", 
                            "channel": 9
                        }
                    ]
                ], 
                [
                    55554, 
                    [
                        {
                            "pitch": 43, 
                            "t0": 55554, 
                            "v": 64, 
                            "dur": 101, 
                            "type": "note", 
                            "channel": 9
                        }, 
                        {
                            "pitch": 45, 
                            "t0": 55554, 
                            "v": 76, 
                            "dur": 103, 
                            "type": "note", 
                            "channel": 9
                        }
                    ]
                ], 
                [
                    55804, 
                    [
                        {
                            "pitch": 41, 
                            "t0": 55804, 
                            "v": 127, 
                            "dur": 165, 
                            "type": "note", 
                            "channel": 9
                        }
                    ]
                ], 
                [
                    55805, 
                    [
                        {
                            "pitch": 45, 
                            "t0": 55805, 
                            "v": 127, 
                            "dur": 159, 
                            "type": "note", 
                            "channel": 9
                        }, 
                        {
                            "pitch": 43, 
                            "t0": 55805, 
                            "v": 127, 
                            "dur": 163, 
                            "type": "note", 
                            "channel": 9
                        }
                    ]
                ], 
                [
                    56065, 
                    [
                        {
                            "pitch": 47, 
                            "t0": 56065, 
                            "v": 100, 
                            "dur": 77, 
                            "type": "note", 
                            "channel": 9
                        }
                    ]
                ], 
                [
                    56196, 
                    [
                        {
                            "pitch": 47, 
                            "t0": 56196, 
                            "v": 52, 
                            "dur": 77, 
                            "type": "note", 
                            "channel": 9
                        }
                    ]
                ], 
                [
                    56457, 
                    [
                        {
                            "pitch": 47, 
                            "t0": 56457, 
                            "v": 80, 
                            "dur": 62, 
                            "type": "note", 
                            "channel": 9
                        }
                    ]
                ], 
                [
                    56585, 
                    [
                        {
                            "pitch": 45, 
                            "t0": 56585, 
                            "v": 68, 
                            "dur": 71, 
                            "type": "note", 
                            "channel": 9
                        }
                    ]
                ], 
                [
                    56587, 
                    [
                        {
                            "pitch": 41, 
                            "t0": 56587, 
                            "v": 68, 
                            "dur": 63, 
                            "type": "note", 
                            "channel": 9
                        }
                    ]
                ], 
                [
                    56588, 
                    [
                        {
                            "pitch": 43, 
                            "t0": 56588, 
                            "v": 68, 
                            "dur": 66, 
                            "type": "note", 
                            "channel": 9
                        }
                    ]
                ], 
                [
                    56850, 
                    [
                        {
                            "pitch": 45, 
                            "t0": 56850, 
                            "v": 127, 
                            "dur": 141, 
                            "type": "note", 
                            "channel": 9
                        }
                    ]
                ], 
                [
                    56851, 
                    [
                        {
                            "pitch": 41, 
                            "t0": 56851, 
                            "v": 127, 
                            "dur": 161, 
                            "type": "note", 
                            "channel": 9
                        }
                    ]
                ], 
                [
                    56852, 
                    [
                        {
                            "pitch": 43, 
                            "t0": 56852, 
                            "v": 127, 
                            "dur": 163, 
                            "type": "note", 
                            "channel": 9
                        }
                    ]
                ], 
                [
                    57111, 
                    [
                        {
                            "pitch": 47, 
                            "t0": 57111, 
                            "v": 96, 
                            "dur": 70, 
                            "type": "note", 
                            "channel": 9
                        }
                    ]
                ], 
                [
                    57236, 
                    [
                        {
                            "pitch": 47, 
                            "t0": 57236, 
                            "v": 58, 
                            "dur": 82, 
                            "type": "note", 
                            "channel": 9
                        }
                    ]
                ], 
                [
                    57482, 
                    [
                        {
                            "pitch": 47, 
                            "t0": 57482, 
                            "v": 68, 
                            "dur": 94, 
                            "type": "note", 
                            "channel": 9
                        }
                    ]
                ], 
                [
                    57614, 
                    [
                        {
                            "pitch": 45, 
                            "t0": 57614, 
                            "v": 68, 
                            "dur": 99, 
                            "type": "note", 
                            "channel": 9
                        }
                    ]
                ], 
                [
                    57623, 
                    [
                        {
                            "pitch": 43, 
                            "t0": 57623, 
                            "v": 68, 
                            "dur": 84, 
                            "type": "note", 
                            "channel": 9
                        }, 
                        {
                            "pitch": 41, 
                            "t0": 57623, 
                            "v": 68, 
                            "dur": 88, 
                            "type": "note", 
                            "channel": 9
                        }
                    ]
                ], 
                [
                    57871, 
                    [
                        {
                            "pitch": 45, 
                            "t0": 57871, 
                            "v": 127, 
                            "dur": 171, 
                            "type": "note", 
                            "channel": 9
                        }
                    ]
                ], 
                [
                    57872, 
                    [
                        {
                            "pitch": 41, 
                            "t0": 57872, 
                            "v": 127, 
                            "dur": 184, 
                            "type": "note", 
                            "channel": 9
                        }, 
                        {
                            "pitch": 43, 
                            "t0": 57872, 
                            "v": 127, 
                            "dur": 184, 
                            "type": "note", 
                            "channel": 9
                        }
                    ]
                ], 
                [
                    58124, 
                    [
                        {
                            "pitch": 47, 
                            "t0": 58124, 
                            "v": 54, 
                            "dur": 77, 
                            "type": "note", 
                            "channel": 9
                        }
                    ]
                ], 
                [
                    58248, 
                    [
                        {
                            "pitch": 47, 
                            "t0": 58248, 
                            "v": 47, 
                            "dur": 89, 
                            "type": "note", 
                            "channel": 9
                        }
                    ]
                ], 
                [
                    58500, 
                    [
                        {
                            "pitch": 47, 
                            "t0": 58500, 
                            "v": 54, 
                            "dur": 76, 
                            "type": "note", 
                            "channel": 9
                        }
                    ]
                ], 
                [
                    58636, 
                    [
                        {
                            "pitch": 45, 
                            "t0": 58636, 
                            "v": 42, 
                            "dur": 113, 
                            "type": "note", 
                            "channel": 9
                        }
                    ]
                ], 
                [
                    58641, 
                    [
                        {
                            "pitch": 41, 
                            "t0": 58641, 
                            "v": 46, 
                            "dur": 102, 
                            "type": "note", 
                            "channel": 9
                        }
                    ]
                ], 
                [
                    58642, 
                    [
                        {
                            "pitch": 43, 
                            "t0": 58642, 
                            "v": 50, 
                            "dur": 104, 
                            "type": "note", 
                            "channel": 9
                        }
                    ]
                ], 
                [
                    58903, 
                    [
                        {
                            "pitch": 45, 
                            "t0": 58903, 
                            "v": 127, 
                            "dur": 200, 
                            "type": "note", 
                            "channel": 9
                        }, 
                        {
                            "pitch": 41, 
                            "t0": 58903, 
                            "v": 127, 
                            "dur": 211, 
                            "type": "note", 
                            "channel": 9
                        }
                    ]
                ], 
                [
                    58904, 
                    [
                        {
                            "pitch": 43, 
                            "t0": 58904, 
                            "v": 127, 
                            "dur": 209, 
                            "type": "note", 
                            "channel": 9
                        }
                    ]
                ], 
                [
                    59154, 
                    [
                        {
                            "pitch": 47, 
                            "t0": 59154, 
                            "v": 68, 
                            "dur": 83, 
                            "type": "note", 
                            "channel": 9
                        }
                    ]
                ], 
                [
                    59282, 
                    [
                        {
                            "pitch": 47, 
                            "t0": 59282, 
                            "v": 44, 
                            "dur": 87, 
                            "type": "note", 
                            "channel": 9
                        }
                    ]
                ], 
                [
                    59527, 
                    [
                        {
                            "pitch": 47, 
                            "t0": 59527, 
                            "v": 60, 
                            "dur": 77, 
                            "type": "note", 
                            "channel": 9
                        }
                    ]
                ], 
                [
                    59656, 
                    [
                        {
                            "pitch": 45, 
                            "t0": 59656, 
                            "v": 46, 
                            "dur": 120, 
                            "type": "note", 
                            "channel": 9
                        }
                    ]
                ], 
                [
                    59662, 
                    [
                        {
                            "pitch": 41, 
                            "t0": 59662, 
                            "v": 48, 
                            "dur": 109, 
                            "type": "note", 
                            "channel": 9
                        }
                    ]
                ], 
                [
                    59664, 
                    [
                        {
                            "pitch": 43, 
                            "t0": 59664, 
                            "v": 47, 
                            "dur": 103, 
                            "type": "note", 
                            "channel": 9
                        }
                    ]
                ], 
                [
                    59926, 
                    [
                        {
                            "pitch": 45, 
                            "t0": 59926, 
                            "v": 127, 
                            "dur": 164, 
                            "type": "note", 
                            "channel": 9
                        }, 
                        {
                            "pitch": 43, 
                            "t0": 59926, 
                            "v": 127, 
                            "dur": 169, 
                            "type": "note", 
                            "channel": 9
                        }
                    ]
                ], 
                [
                    59927, 
                    [
                        {
                            "pitch": 41, 
                            "t0": 59927, 
                            "v": 127, 
                            "dur": 170, 
                            "type": "note", 
                            "channel": 9
                        }
                    ]
                ], 
                [
                    60190, 
                    [
                        {
                            "pitch": 47, 
                            "t0": 60190, 
                            "v": 80, 
                            "dur": 79, 
                            "type": "note", 
                            "channel": 9
                        }
                    ]
                ], 
                [
                    60325, 
                    [
                        {
                            "pitch": 47, 
                            "t0": 60325, 
                            "v": 45, 
                            "dur": 80, 
                            "type": "note", 
                            "channel": 9
                        }
                    ]
                ], 
                [
                    60571, 
                    [
                        {
                            "pitch": 47, 
                            "t0": 60571, 
                            "v": 64, 
                            "dur": 72, 
                            "type": "note", 
                            "channel": 9
                        }
                    ]
                ], 
                [
                    60702, 
                    [
                        {
                            "pitch": 45, 
                            "t0": 60702, 
                            "v": 54, 
                            "dur": 103, 
                            "type": "note", 
                            "channel": 9
                        }
                    ]
                ], 
                [
                    60703, 
                    [
                        {
                            "pitch": 41, 
                            "t0": 60703, 
                            "v": 54, 
                            "dur": 71, 
                            "type": "note", 
                            "channel": 9
                        }
                    ]
                ], 
                [
                    60704, 
                    [
                        {
                            "pitch": 43, 
                            "t0": 60704, 
                            "v": 54, 
                            "dur": 79, 
                            "type": "note", 
                            "channel": 9
                        }
                    ]
                ], 
                [
                    60959, 
                    [
                        {
                            "pitch": 45, 
                            "t0": 60959, 
                            "v": 127, 
                            "dur": 162, 
                            "type": "note", 
                            "channel": 9
                        }
                    ]
                ], 
                [
                    60960, 
                    [
                        {
                            "pitch": 41, 
                            "t0": 60960, 
                            "v": 127, 
                            "dur": 182, 
                            "type": "note", 
                            "channel": 9
                        }, 
                        {
                            "pitch": 43, 
                            "t0": 60960, 
                            "v": 127, 
                            "dur": 184, 
                            "type": "note", 
                            "channel": 9
                        }
                    ]
                ], 
                [
                    61209, 
                    [
                        {
                            "pitch": 47, 
                            "t0": 61209, 
                            "v": 54, 
                            "dur": 75, 
                            "type": "note", 
                            "channel": 9
                        }
                    ]
                ], 
                [
                    61339, 
                    [
                        {
                            "pitch": 47, 
                            "t0": 61339, 
                            "v": 50, 
                            "dur": 72, 
                            "type": "note", 
                            "channel": 9
                        }
                    ]
                ], 
                [
                    61586, 
                    [
                        {
                            "pitch": 47, 
                            "t0": 61586, 
                            "v": 64, 
                            "dur": 67, 
                            "type": "note", 
                            "channel": 9
                        }
                    ]
                ], 
                [
                    61721, 
                    [
                        {
                            "pitch": 45, 
                            "t0": 61721, 
                            "v": 50, 
                            "dur": 98, 
                            "type": "note", 
                            "channel": 9
                        }
                    ]
                ], 
                [
                    61724, 
                    [
                        {
                            "pitch": 41, 
                            "t0": 61724, 
                            "v": 54, 
                            "dur": 92, 
                            "type": "note", 
                            "channel": 9
                        }, 
                        {
                            "pitch": 43, 
                            "t0": 61724, 
                            "v": 58, 
                            "dur": 96, 
                            "type": "note", 
                            "channel": 9
                        }
                    ]
                ], 
                [
                    61988, 
                    [
                        {
                            "pitch": 45, 
                            "t0": 61988, 
                            "v": 104, 
                            "dur": 194, 
                            "type": "note", 
                            "channel": 9
                        }, 
                        {
                            "pitch": 43, 
                            "t0": 61988, 
                            "v": 120, 
                            "dur": 198, 
                            "type": "note", 
                            "channel": 9
                        }
                    ]
                ], 
                [
                    61989, 
                    [
                        {
                            "pitch": 41, 
                            "t0": 61989, 
                            "v": 112, 
                            "dur": 194, 
                            "type": "note", 
                            "channel": 9
                        }
                    ]
                ], 
                [
                    62247, 
                    [
                        {
                            "pitch": 47, 
                            "t0": 62247, 
                            "v": 64, 
                            "dur": 70, 
                            "type": "note", 
                            "channel": 9
                        }
                    ]
                ], 
                [
                    62371, 
                    [
                        {
                            "pitch": 47, 
                            "t0": 62371, 
                            "v": 35, 
                            "dur": 92, 
                            "type": "note", 
                            "channel": 9
                        }
                    ]
                ], 
                [
                    62626, 
                    [
                        {
                            "pitch": 47, 
                            "t0": 62626, 
                            "v": 64, 
                            "dur": 69, 
                            "type": "note", 
                            "channel": 9
                        }
                    ]
                ], 
                [
                    62764, 
                    [
                        {
                            "pitch": 45, 
                            "t0": 62764, 
                            "v": 43, 
                            "dur": 93, 
                            "type": "note", 
                            "channel": 9
                        }
                    ]
                ], 
                [
                    62766, 
                    [
                        {
                            "pitch": 41, 
                            "t0": 62766, 
                            "v": 38, 
                            "dur": 79, 
                            "type": "note", 
                            "channel": 9
                        }, 
                        {
                            "pitch": 43, 
                            "t0": 62766, 
                            "v": 42, 
                            "dur": 87, 
                            "type": "note", 
                            "channel": 9
                        }
                    ]
                ], 
                [
                    63025, 
                    [
                        {
                            "pitch": 45, 
                            "t0": 63025, 
                            "v": 116, 
                            "dur": 178, 
                            "type": "note", 
                            "channel": 9
                        }, 
                        {
                            "pitch": 43, 
                            "t0": 63025, 
                            "v": 92, 
                            "dur": 181, 
                            "type": "note", 
                            "channel": 9
                        }
                    ]
                ], 
                [
                    63026, 
                    [
                        {
                            "pitch": 41, 
                            "t0": 63026, 
                            "v": 116, 
                            "dur": 174, 
                            "type": "note", 
                            "channel": 9
                        }
                    ]
                ], 
                [
                    63287, 
                    [
                        {
                            "pitch": 47, 
                            "t0": 63287, 
                            "v": 52, 
                            "dur": 73, 
                            "type": "note", 
                            "channel": 9
                        }
                    ]
                ], 
                [
                    63410, 
                    [
                        {
                            "pitch": 47, 
                            "t0": 63410, 
                            "v": 54, 
                            "dur": 90, 
                            "type": "note", 
                            "channel": 9
                        }
                    ]
                ], 
                [
                    63655, 
                    [
                        {
                            "pitch": 47, 
                            "t0": 63655, 
                            "v": 50, 
                            "dur": 103, 
                            "type": "note", 
                            "channel": 9
                        }
                    ]
                ], 
                [
                    63785, 
                    [
                        {
                            "pitch": 43, 
                            "t0": 63785, 
                            "v": 56, 
                            "dur": 68, 
                            "type": "note", 
                            "channel": 9
                        }, 
                        {
                            "pitch": 45, 
                            "t0": 63785, 
                            "v": 76, 
                            "dur": 81, 
                            "type": "note", 
                            "channel": 9
                        }
                    ]
                ], 
                [
                    63786, 
                    [
                        {
                            "pitch": 41, 
                            "t0": 63786, 
                            "v": 58, 
                            "dur": 62, 
                            "type": "note", 
                            "channel": 9
                        }
                    ]
                ], 
                [
                    64040, 
                    [
                        {
                            "pitch": 45, 
                            "t0": 64040, 
                            "v": 116, 
                            "dur": 208, 
                            "type": "note", 
                            "channel": 9
                        }
                    ]
                ], 
                [
                    64041, 
                    [
                        {
                            "pitch": 41, 
                            "t0": 64041, 
                            "v": 112, 
                            "dur": 207, 
                            "type": "note", 
                            "channel": 9
                        }, 
                        {
                            "pitch": 43, 
                            "t0": 64041, 
                            "v": 112, 
                            "dur": 215, 
                            "type": "note", 
                            "channel": 9
                        }
                    ]
                ], 
                [
                    64306, 
                    [
                        {
                            "pitch": 47, 
                            "t0": 64306, 
                            "v": 43, 
                            "dur": 78, 
                            "type": "note", 
                            "channel": 9
                        }
                    ]
                ], 
                [
                    64436, 
                    [
                        {
                            "pitch": 47, 
                            "t0": 64436, 
                            "v": 46, 
                            "dur": 80, 
                            "type": "note", 
                            "channel": 9
                        }
                    ]
                ], 
                [
                    64685, 
                    [
                        {
                            "pitch": 47, 
                            "t0": 64685, 
                            "v": 49, 
                            "dur": 86, 
                            "type": "note", 
                            "channel": 9
                        }
                    ]
                ], 
                [
                    64829, 
                    [
                        {
                            "pitch": 45, 
                            "t0": 64829, 
                            "v": 40, 
                            "dur": 98, 
                            "type": "note", 
                            "channel": 9
                        }
                    ]
                ], 
                [
                    64834, 
                    [
                        {
                            "pitch": 43, 
                            "t0": 64834, 
                            "v": 38, 
                            "dur": 88, 
                            "type": "note", 
                            "channel": 9
                        }, 
                        {
                            "pitch": 41, 
                            "t0": 64834, 
                            "v": 40, 
                            "dur": 89, 
                            "type": "note", 
                            "channel": 9
                        }
                    ]
                ], 
                [
                    65084, 
                    [
                        {
                            "pitch": 45, 
                            "t0": 65084, 
                            "v": 112, 
                            "dur": 177, 
                            "type": "note", 
                            "channel": 9
                        }, 
                        {
                            "pitch": 41, 
                            "t0": 65084, 
                            "v": 116, 
                            "dur": 197, 
                            "type": "note", 
                            "channel": 9
                        }
                    ]
                ], 
                [
                    65085, 
                    [
                        {
                            "pitch": 43, 
                            "t0": 65085, 
                            "v": 120, 
                            "dur": 192, 
                            "type": "note", 
                            "channel": 9
                        }
                    ]
                ], 
                [
                    65345, 
                    [
                        {
                            "pitch": 47, 
                            "t0": 65345, 
                            "v": 68, 
                            "dur": 72, 
                            "type": "note", 
                            "channel": 9
                        }
                    ]
                ], 
                [
                    65478, 
                    [
                        {
                            "pitch": 47, 
                            "t0": 65478, 
                            "v": 37, 
                            "dur": 73, 
                            "type": "note", 
                            "channel": 9
                        }
                    ]
                ], 
                [
                    65728, 
                    [
                        {
                            "pitch": 47, 
                            "t0": 65728, 
                            "v": 64, 
                            "dur": 75, 
                            "type": "note", 
                            "channel": 9
                        }
                    ]
                ], 
                [
                    65858, 
                    [
                        {
                            "pitch": 45, 
                            "t0": 65858, 
                            "v": 72, 
                            "dur": 96, 
                            "type": "note", 
                            "channel": 9
                        }
                    ]
                ], 
                [
                    65859, 
                    [
                        {
                            "pitch": 41, 
                            "t0": 65859, 
                            "v": 64, 
                            "dur": 83, 
                            "type": "note", 
                            "channel": 9
                        }
                    ]
                ], 
                [
                    65860, 
                    [
                        {
                            "pitch": 43, 
                            "t0": 65860, 
                            "v": 58, 
                            "dur": 88, 
                            "type": "note", 
                            "channel": 9
                        }
                    ]
                ], 
                [
                    66120, 
                    [
                        {
                            "pitch": 45, 
                            "t0": 66120, 
                            "v": 112, 
                            "dur": 207, 
                            "type": "note", 
                            "channel": 9
                        }
                    ]
                ], 
                [
                    66121, 
                    [
                        {
                            "pitch": 43, 
                            "t0": 66121, 
                            "v": 116, 
                            "dur": 219, 
                            "type": "note", 
                            "channel": 9
                        }
                    ]
                ], 
                [
                    66122, 
                    [
                        {
                            "pitch": 41, 
                            "t0": 66122, 
                            "v": 120, 
                            "dur": 221, 
                            "type": "note", 
                            "channel": 9
                        }
                    ]
                ], 
                [
                    66381, 
                    [
                        {
                            "pitch": 47, 
                            "t0": 66381, 
                            "v": 60, 
                            "dur": 73, 
                            "type": "note", 
                            "channel": 9
                        }
                    ]
                ], 
                [
                    66507, 
                    [
                        {
                            "pitch": 47, 
                            "t0": 66507, 
                            "v": 42, 
                            "dur": 80, 
                            "type": "note", 
                            "channel": 9
                        }
                    ]
                ], 
                [
                    66754, 
                    [
                        {
                            "pitch": 47, 
                            "t0": 66754, 
                            "v": 64, 
                            "dur": 68, 
                            "type": "note", 
                            "channel": 9
                        }
                    ]
                ], 
                [
                    66899, 
                    [
                        {
                            "pitch": 45, 
                            "t0": 66899, 
                            "v": 76, 
                            "dur": 100, 
                            "type": "note", 
                            "channel": 9
                        }
                    ]
                ], 
                [
                    66901, 
                    [
                        {
                            "pitch": 43, 
                            "t0": 66901, 
                            "v": 54, 
                            "dur": 89, 
                            "type": "note", 
                            "channel": 9
                        }
                    ]
                ], 
                [
                    66903, 
                    [
                        {
                            "pitch": 41, 
                            "t0": 66903, 
                            "v": 58, 
                            "dur": 81, 
                            "type": "note", 
                            "channel": 9
                        }
                    ]
                ], 
                [
                    67161, 
                    [
                        {
                            "pitch": 45, 
                            "t0": 67161, 
                            "v": 100, 
                            "dur": 184, 
                            "type": "note", 
                            "channel": 9
                        }
                    ]
                ], 
                [
                    67162, 
                    [
                        {
                            "pitch": 41, 
                            "t0": 67162, 
                            "v": 116, 
                            "dur": 198, 
                            "type": "note", 
                            "channel": 9
                        }
                    ]
                ], 
                [
                    67163, 
                    [
                        {
                            "pitch": 43, 
                            "t0": 67163, 
                            "v": 112, 
                            "dur": 195, 
                            "type": "note", 
                            "channel": 9
                        }
                    ]
                ], 
                [
                    67421, 
                    [
                        {
                            "pitch": 47, 
                            "t0": 67421, 
                            "v": 60, 
                            "dur": 71, 
                            "type": "note", 
                            "channel": 9
                        }
                    ]
                ], 
                [
                    67549, 
                    [
                        {
                            "pitch": 47, 
                            "t0": 67549, 
                            "v": 49, 
                            "dur": 74, 
                            "type": "note", 
                            "channel": 9
                        }
                    ]
                ], 
                [
                    67806, 
                    [
                        {
                            "pitch": 47, 
                            "t0": 67806, 
                            "v": 52, 
                            "dur": 84, 
                            "type": "note", 
                            "channel": 9
                        }
                    ]
                ], 
                [
                    67933, 
                    [
                        {
                            "pitch": 41, 
                            "t0": 67933, 
                            "v": 64, 
                            "dur": 74, 
                            "type": "note", 
                            "channel": 9
                        }, 
                        {
                            "pitch": 45, 
                            "t0": 67933, 
                            "v": 72, 
                            "dur": 84, 
                            "type": "note", 
                            "channel": 9
                        }
                    ]
                ], 
                [
                    67935, 
                    [
                        {
                            "pitch": 43, 
                            "t0": 67935, 
                            "v": 52, 
                            "dur": 71, 
                            "type": "note", 
                            "channel": 9
                        }
                    ]
                ], 
                [
                    68195, 
                    [
                        {
                            "pitch": 41, 
                            "t0": 68195, 
                            "v": 116, 
                            "dur": 211, 
                            "type": "note", 
                            "channel": 9
                        }
                    ]
                ], 
                [
                    68196, 
                    [
                        {
                            "pitch": 45, 
                            "t0": 68196, 
                            "v": 116, 
                            "dur": 193, 
                            "type": "note", 
                            "channel": 9
                        }, 
                        {
                            "pitch": 43, 
                            "t0": 68196, 
                            "v": 116, 
                            "dur": 207, 
                            "type": "note", 
                            "channel": 9
                        }
                    ]
                ], 
                [
                    68463, 
                    [
                        {
                            "pitch": 47, 
                            "t0": 68463, 
                            "v": 54, 
                            "dur": 69, 
                            "type": "note", 
                            "channel": 9
                        }
                    ]
                ], 
                [
                    68596, 
                    [
                        {
                            "pitch": 47, 
                            "t0": 68596, 
                            "v": 58, 
                            "dur": 70, 
                            "type": "note", 
                            "channel": 9
                        }
                    ]
                ], 
                [
                    68852, 
                    [
                        {
                            "pitch": 47, 
                            "t0": 68852, 
                            "v": 54, 
                            "dur": 98, 
                            "type": "note", 
                            "channel": 9
                        }
                    ]
                ], 
                [
                    68982, 
                    [
                        {
                            "pitch": 45, 
                            "t0": 68982, 
                            "v": 48, 
                            "dur": 96, 
                            "type": "note", 
                            "channel": 9
                        }
                    ]
                ], 
                [
                    68985, 
                    [
                        {
                            "pitch": 43, 
                            "t0": 68985, 
                            "v": 49, 
                            "dur": 90, 
                            "type": "note", 
                            "channel": 9
                        }
                    ]
                ], 
                [
                    68988, 
                    [
                        {
                            "pitch": 41, 
                            "t0": 68988, 
                            "v": 48, 
                            "dur": 83, 
                            "type": "note", 
                            "channel": 9
                        }
                    ]
                ], 
                [
                    69240, 
                    [
                        {
                            "pitch": 43, 
                            "t0": 69240, 
                            "v": 108, 
                            "dur": 204, 
                            "type": "note", 
                            "channel": 9
                        }, 
                        {
                            "pitch": 41, 
                            "t0": 69240, 
                            "v": 116, 
                            "dur": 205, 
                            "type": "note", 
                            "channel": 9
                        }
                    ]
                ], 
                [
                    69241, 
                    [
                        {
                            "pitch": 45, 
                            "t0": 69241, 
                            "v": 108, 
                            "dur": 193, 
                            "type": "note", 
                            "channel": 9
                        }
                    ]
                ], 
                [
                    69498, 
                    [
                        {
                            "pitch": 47, 
                            "t0": 69498, 
                            "v": 64, 
                            "dur": 76, 
                            "type": "note", 
                            "channel": 9
                        }
                    ]
                ], 
                [
                    69622, 
                    [
                        {
                            "pitch": 47, 
                            "t0": 69622, 
                            "v": 58, 
                            "dur": 97, 
                            "type": "note", 
                            "channel": 9
                        }
                    ]
                ], 
                [
                    69870, 
                    [
                        {
                            "pitch": 47, 
                            "t0": 69870, 
                            "v": 56, 
                            "dur": 104, 
                            "type": "note", 
                            "channel": 9
                        }
                    ]
                ], 
                [
                    70017, 
                    [
                        {
                            "pitch": 45, 
                            "t0": 70017, 
                            "v": 43, 
                            "dur": 99, 
                            "type": "note", 
                            "channel": 9
                        }
                    ]
                ], 
                [
                    70020, 
                    [
                        {
                            "pitch": 43, 
                            "t0": 70020, 
                            "v": 44, 
                            "dur": 91, 
                            "type": "note", 
                            "channel": 9
                        }
                    ]
                ], 
                [
                    70024, 
                    [
                        {
                            "pitch": 41, 
                            "t0": 70024, 
                            "v": 43, 
                            "dur": 89, 
                            "type": "note", 
                            "channel": 9
                        }
                    ]
                ], 
                [
                    70272, 
                    [
                        {
                            "pitch": 43, 
                            "t0": 70272, 
                            "v": 116, 
                            "dur": 195, 
                            "type": "note", 
                            "channel": 9
                        }
                    ]
                ], 
                [
                    70273, 
                    [
                        {
                            "pitch": 41, 
                            "t0": 70273, 
                            "v": 112, 
                            "dur": 191, 
                            "type": "note", 
                            "channel": 9
                        }, 
                        {
                            "pitch": 45, 
                            "t0": 70273, 
                            "v": 112, 
                            "dur": 192, 
                            "type": "note", 
                            "channel": 9
                        }
                    ]
                ], 
                [
                    70524, 
                    [
                        {
                            "pitch": 47, 
                            "t0": 70524, 
                            "v": 76, 
                            "dur": 82, 
                            "type": "note", 
                            "channel": 9
                        }
                    ]
                ], 
                [
                    70649, 
                    [
                        {
                            "pitch": 47, 
                            "t0": 70649, 
                            "v": 64, 
                            "dur": 85, 
                            "type": "note", 
                            "channel": 9
                        }
                    ]
                ], 
                [
                    70912, 
                    [
                        {
                            "pitch": 47, 
                            "t0": 70912, 
                            "v": 54, 
                            "dur": 75, 
                            "type": "note", 
                            "channel": 9
                        }
                    ]
                ], 
                [
                    71044, 
                    [
                        {
                            "pitch": 45, 
                            "t0": 71044, 
                            "v": 80, 
                            "dur": 97, 
                            "type": "note", 
                            "channel": 9
                        }
                    ]
                ], 
                [
                    71046, 
                    [
                        {
                            "pitch": 41, 
                            "t0": 71046, 
                            "v": 76, 
                            "dur": 91, 
                            "type": "note", 
                            "channel": 9
                        }, 
                        {
                            "pitch": 43, 
                            "t0": 71046, 
                            "v": 68, 
                            "dur": 92, 
                            "type": "note", 
                            "channel": 9
                        }
                    ]
                ], 
                [
                    71305, 
                    [
                        {
                            "pitch": 45, 
                            "t0": 71305, 
                            "v": 112, 
                            "dur": 194, 
                            "type": "note", 
                            "channel": 9
                        }, 
                        {
                            "pitch": 41, 
                            "t0": 71305, 
                            "v": 112, 
                            "dur": 200, 
                            "type": "note", 
                            "channel": 9
                        }
                    ]
                ], 
                [
                    71306, 
                    [
                        {
                            "pitch": 43, 
                            "t0": 71306, 
                            "v": 120, 
                            "dur": 205, 
                            "type": "note", 
                            "channel": 9
                        }
                    ]
                ], 
                [
                    71560, 
                    [
                        {
                            "pitch": 47, 
                            "t0": 71560, 
                            "v": 60, 
                            "dur": 76, 
                            "type": "note", 
                            "channel": 9
                        }
                    ]
                ], 
                [
                    71686, 
                    [
                        {
                            "pitch": 47, 
                            "t0": 71686, 
                            "v": 54, 
                            "dur": 92, 
                            "type": "note", 
                            "channel": 9
                        }
                    ]
                ], 
                [
                    71926, 
                    [
                        {
                            "pitch": 47, 
                            "t0": 71926, 
                            "v": 58, 
                            "dur": 100, 
                            "type": "note", 
                            "channel": 9
                        }
                    ]
                ], 
                [
                    72052, 
                    [
                        {
                            "pitch": 45, 
                            "t0": 72052, 
                            "v": 60, 
                            "dur": 69, 
                            "type": "note", 
                            "channel": 9
                        }
                    ]
                ], 
                [
                    72054, 
                    [
                        {
                            "pitch": 41, 
                            "t0": 72054, 
                            "v": 72, 
                            "dur": 62, 
                            "type": "note", 
                            "channel": 9
                        }, 
                        {
                            "pitch": 43, 
                            "t0": 72054, 
                            "v": 58, 
                            "dur": 63, 
                            "type": "note", 
                            "channel": 9
                        }
                    ]
                ], 
                [
                    72317, 
                    [
                        {
                            "pitch": 41, 
                            "t0": 72317, 
                            "v": 112, 
                            "dur": 197, 
                            "type": "note", 
                            "channel": 9
                        }, 
                        {
                            "pitch": 43, 
                            "t0": 72317, 
                            "v": 116, 
                            "dur": 198, 
                            "type": "note", 
                            "channel": 9
                        }
                    ]
                ], 
                [
                    72318, 
                    [
                        {
                            "pitch": 45, 
                            "t0": 72318, 
                            "v": 108, 
                            "dur": 184, 
                            "type": "note", 
                            "channel": 9
                        }
                    ]
                ], 
                [
                    72585, 
                    [
                        {
                            "pitch": 47, 
                            "t0": 72585, 
                            "v": 40, 
                            "dur": 73, 
                            "type": "note", 
                            "channel": 9
                        }
                    ]
                ], 
                [
                    72707, 
                    [
                        {
                            "pitch": 47, 
                            "t0": 72707, 
                            "v": 56, 
                            "dur": 76, 
                            "type": "note", 
                            "channel": 9
                        }
                    ]
                ], 
                [
                    72959, 
                    [
                        {
                            "pitch": 47, 
                            "t0": 72959, 
                            "v": 60, 
                            "dur": 97, 
                            "type": "note", 
                            "channel": 9
                        }
                    ]
                ], 
                [
                    73092, 
                    [
                        {
                            "pitch": 43, 
                            "t0": 73092, 
                            "v": 50, 
                            "dur": 58, 
                            "type": "note", 
                            "channel": 9
                        }
                    ]
                ], 
                [
                    73093, 
                    [
                        {
                            "pitch": 45, 
                            "t0": 73093, 
                            "v": 50, 
                            "dur": 59, 
                            "type": "note", 
                            "channel": 9
                        }
                    ]
                ], 
                [
                    73094, 
                    [
                        {
                            "pitch": 41, 
                            "t0": 73094, 
                            "v": 48, 
                            "dur": 47, 
                            "type": "note", 
                            "channel": 9
                        }
                    ]
                ], 
                [
                    73342, 
                    [
                        {
                            "pitch": 45, 
                            "t0": 73342, 
                            "v": 104, 
                            "dur": 204, 
                            "type": "note", 
                            "channel": 9
                        }, 
                        {
                            "pitch": 41, 
                            "t0": 73342, 
                            "v": 112, 
                            "dur": 218, 
                            "type": "note", 
                            "channel": 9
                        }
                    ]
                ], 
                [
                    73343, 
                    [
                        {
                            "pitch": 43, 
                            "t0": 73343, 
                            "v": 112, 
                            "dur": 216, 
                            "type": "note", 
                            "channel": 9
                        }
                    ]
                ], 
                [
                    73592, 
                    [
                        {
                            "pitch": 47, 
                            "t0": 73592, 
                            "v": 72, 
                            "dur": 71, 
                            "type": "note", 
                            "channel": 9
                        }
                    ]
                ], 
                [
                    73719, 
                    [
                        {
                            "pitch": 47, 
                            "t0": 73719, 
                            "v": 52, 
                            "dur": 69, 
                            "type": "note", 
                            "channel": 9
                        }
                    ]
                ], 
                [
                    73968, 
                    [
                        {
                            "pitch": 47, 
                            "t0": 73968, 
                            "v": 50, 
                            "dur": 96, 
                            "type": "note", 
                            "channel": 9
                        }
                    ]
                ], 
                [
                    74102, 
                    [
                        {
                            "pitch": 45, 
                            "t0": 74102, 
                            "v": 46, 
                            "dur": 70, 
                            "type": "note", 
                            "channel": 9
                        }
                    ]
                ], 
                [
                    74103, 
                    [
                        {
                            "pitch": 43, 
                            "t0": 74103, 
                            "v": 48, 
                            "dur": 68, 
                            "type": "note", 
                            "channel": 9
                        }
                    ]
                ], 
                [
                    74105, 
                    [
                        {
                            "pitch": 41, 
                            "t0": 74105, 
                            "v": 46, 
                            "dur": 60, 
                            "type": "note", 
                            "channel": 9
                        }
                    ]
                ], 
                [
                    74358, 
                    [
                        {
                            "pitch": 43, 
                            "t0": 74358, 
                            "v": 112, 
                            "dur": 222, 
                            "type": "note", 
                            "channel": 9
                        }
                    ]
                ], 
                [
                    74359, 
                    [
                        {
                            "pitch": 41, 
                            "t0": 74359, 
                            "v": 116, 
                            "dur": 222, 
                            "type": "note", 
                            "channel": 9
                        }
                    ]
                ], 
                [
                    74360, 
                    [
                        {
                            "pitch": 45, 
                            "t0": 74360, 
                            "v": 108, 
                            "dur": 219, 
                            "type": "note", 
                            "channel": 9
                        }
                    ]
                ], 
                [
                    74618, 
                    [
                        {
                            "pitch": 47, 
                            "t0": 74618, 
                            "v": 46, 
                            "dur": 79, 
                            "type": "note", 
                            "channel": 9
                        }
                    ]
                ], 
                [
                    74742, 
                    [
                        {
                            "pitch": 47, 
                            "t0": 74742, 
                            "v": 48, 
                            "dur": 65, 
                            "type": "note", 
                            "channel": 9
                        }
                    ]
                ], 
                [
                    74989, 
                    [
                        {
                            "pitch": 47, 
                            "t0": 74989, 
                            "v": 44, 
                            "dur": 95, 
                            "type": "note", 
                            "channel": 9
                        }
                    ]
                ], 
                [
                    75112, 
                    [
                        {
                            "pitch": 45, 
                            "t0": 75112, 
                            "v": 68, 
                            "dur": 94, 
                            "type": "note", 
                            "channel": 9
                        }
                    ]
                ], 
                [
                    75113, 
                    [
                        {
                            "pitch": 43, 
                            "t0": 75113, 
                            "v": 64, 
                            "dur": 79, 
                            "type": "note", 
                            "channel": 9
                        }
                    ]
                ], 
                [
                    75115, 
                    [
                        {
                            "pitch": 41, 
                            "t0": 75115, 
                            "v": 60, 
                            "dur": 68, 
                            "type": "note", 
                            "channel": 9
                        }
                    ]
                ], 
                [
                    75377, 
                    [
                        {
                            "pitch": 45, 
                            "t0": 75377, 
                            "v": 108, 
                            "dur": 217, 
                            "type": "note", 
                            "channel": 9
                        }, 
                        {
                            "pitch": 41, 
                            "t0": 75377, 
                            "v": 116, 
                            "dur": 217, 
                            "type": "note", 
                            "channel": 9
                        }
                    ]
                ], 
                [
                    75378, 
                    [
                        {
                            "pitch": 43, 
                            "t0": 75378, 
                            "v": 108, 
                            "dur": 217, 
                            "type": "note", 
                            "channel": 9
                        }
                    ]
                ], 
                [
                    75636, 
                    [
                        {
                            "pitch": 47, 
                            "t0": 75636, 
                            "v": 58, 
                            "dur": 74, 
                            "type": "note", 
                            "channel": 9
                        }
                    ]
                ], 
                [
                    75774, 
                    [
                        {
                            "pitch": 47, 
                            "t0": 75774, 
                            "v": 46, 
                            "dur": 70, 
                            "type": "note", 
                            "channel": 9
                        }
                    ]
                ], 
                [
                    76030, 
                    [
                        {
                            "pitch": 47, 
                            "t0": 76030, 
                            "v": 50, 
                            "dur": 99, 
                            "type": "note", 
                            "channel": 9
                        }
                    ]
                ], 
                [
                    76158, 
                    [
                        {
                            "pitch": 45, 
                            "t0": 76158, 
                            "v": 60, 
                            "dur": 85, 
                            "type": "note", 
                            "channel": 9
                        }
                    ]
                ], 
                [
                    76159, 
                    [
                        {
                            "pitch": 43, 
                            "t0": 76159, 
                            "v": 58, 
                            "dur": 72, 
                            "type": "note", 
                            "channel": 9
                        }, 
                        {
                            "pitch": 41, 
                            "t0": 76159, 
                            "v": 56, 
                            "dur": 73, 
                            "type": "note", 
                            "channel": 9
                        }
                    ]
                ], 
                [
                    76415, 
                    [
                        {
                            "pitch": 41, 
                            "t0": 76415, 
                            "v": 124, 
                            "dur": 243, 
                            "type": "note", 
                            "channel": 9
                        }
                    ]
                ], 
                [
                    76416, 
                    [
                        {
                            "pitch": 43, 
                            "t0": 76416, 
                            "v": 127, 
                            "dur": 233, 
                            "type": "note", 
                            "channel": 9
                        }, 
                        {
                            "pitch": 45, 
                            "t0": 76416, 
                            "v": 120, 
                            "dur": 235, 
                            "type": "note", 
                            "channel": 9
                        }
                    ]
                ], 
                [
                    76668, 
                    [
                        {
                            "pitch": 47, 
                            "t0": 76668, 
                            "v": 76, 
                            "dur": 67, 
                            "type": "note", 
                            "channel": 9
                        }
                    ]
                ], 
                [
                    76798, 
                    [
                        {
                            "pitch": 47, 
                            "t0": 76798, 
                            "v": 47, 
                            "dur": 70, 
                            "type": "note", 
                            "channel": 9
                        }
                    ]
                ], 
                [
                    77047, 
                    [
                        {
                            "pitch": 47, 
                            "t0": 77047, 
                            "v": 72, 
                            "dur": 71, 
                            "type": "note", 
                            "channel": 9
                        }
                    ]
                ], 
                [
                    77179, 
                    [
                        {
                            "pitch": 43, 
                            "t0": 77179, 
                            "v": 49, 
                            "dur": 57, 
                            "type": "note", 
                            "channel": 9
                        }, 
                        {
                            "pitch": 45, 
                            "t0": 77179, 
                            "v": 49, 
                            "dur": 62, 
                            "type": "note", 
                            "channel": 9
                        }
                    ]
                ], 
                [
                    77180, 
                    [
                        {
                            "pitch": 41, 
                            "t0": 77180, 
                            "v": 48, 
                            "dur": 53, 
                            "type": "note", 
                            "channel": 9
                        }
                    ]
                ], 
                [
                    77430, 
                    [
                        {
                            "pitch": 45, 
                            "t0": 77430, 
                            "v": 124, 
                            "dur": 186, 
                            "type": "note", 
                            "channel": 9
                        }, 
                        {
                            "pitch": 43, 
                            "t0": 77430, 
                            "v": 116, 
                            "dur": 189, 
                            "type": "note", 
                            "channel": 9
                        }
                    ]
                ], 
                [
                    77431, 
                    [
                        {
                            "pitch": 41, 
                            "t0": 77431, 
                            "v": 120, 
                            "dur": 188, 
                            "type": "note", 
                            "channel": 9
                        }
                    ]
                ], 
                [
                    77683, 
                    [
                        {
                            "pitch": 47, 
                            "t0": 77683, 
                            "v": 76, 
                            "dur": 63, 
                            "type": "note", 
                            "channel": 9
                        }
                    ]
                ], 
                [
                    77807, 
                    [
                        {
                            "pitch": 47, 
                            "t0": 77807, 
                            "v": 44, 
                            "dur": 84, 
                            "type": "note", 
                            "channel": 9
                        }
                    ]
                ], 
                [
                    78064, 
                    [
                        {
                            "pitch": 47, 
                            "t0": 78064, 
                            "v": 68, 
                            "dur": 63, 
                            "type": "note", 
                            "channel": 9
                        }
                    ]
                ], 
                [
                    78204, 
                    [
                        {
                            "pitch": 41, 
                            "t0": 78204, 
                            "v": 92, 
                            "dur": 60, 
                            "type": "note", 
                            "channel": 9
                        }
                    ]
                ], 
                [
                    78205, 
                    [
                        {
                            "pitch": 43, 
                            "t0": 78205, 
                            "v": 88, 
                            "dur": 63, 
                            "type": "note", 
                            "channel": 9
                        }, 
                        {
                            "pitch": 45, 
                            "t0": 78205, 
                            "v": 84, 
                            "dur": 65, 
                            "type": "note", 
                            "channel": 9
                        }
                    ]
                ], 
                [
                    78453, 
                    [
                        {
                            "pitch": 41, 
                            "t0": 78453, 
                            "v": 80, 
                            "dur": 119, 
                            "type": "note", 
                            "channel": 9
                        }, 
                        {
                            "pitch": 43, 
                            "t0": 78453, 
                            "v": 88, 
                            "dur": 120, 
                            "type": "note", 
                            "channel": 9
                        }
                    ]
                ], 
                [
                    78454, 
                    [
                        {
                            "pitch": 45, 
                            "t0": 78454, 
                            "v": 80, 
                            "dur": 119, 
                            "type": "note", 
                            "channel": 9
                        }
                    ]
                ], 
                [
                    78723, 
                    [
                        {
                            "pitch": 47, 
                            "t0": 78723, 
                            "v": 60, 
                            "dur": 65, 
                            "type": "note", 
                            "channel": 9
                        }
                    ]
                ], 
                [
                    78851, 
                    [
                        {
                            "pitch": 47, 
                            "t0": 78851, 
                            "v": 46, 
                            "dur": 68, 
                            "type": "note", 
                            "channel": 9
                        }
                    ]
                ], 
                [
                    79116, 
                    [
                        {
                            "pitch": 47, 
                            "t0": 79116, 
                            "v": 6, 
                            "dur": 79, 
                            "type": "note", 
                            "channel": 9
                        }
                    ]
                ], 
                [
                    79242, 
                    [
                        {
                            "pitch": 45, 
                            "t0": 79242, 
                            "v": 46, 
                            "dur": 54, 
                            "type": "note", 
                            "channel": 9
                        }
                    ]
                ], 
                [
                    79246, 
                    [
                        {
                            "pitch": 43, 
                            "t0": 79246, 
                            "v": 46, 
                            "dur": 42, 
                            "type": "note", 
                            "channel": 9
                        }
                    ]
                ], 
                [
                    79247, 
                    [
                        {
                            "pitch": 41, 
                            "t0": 79247, 
                            "v": 46, 
                            "dur": 38, 
                            "type": "note", 
                            "channel": 9
                        }
                    ]
                ], 
                [
                    79478, 
                    [
                        {
                            "pitch": 41, 
                            "t0": 79478, 
                            "v": 116, 
                            "dur": 232, 
                            "type": "note", 
                            "channel": 9
                        }
                    ]
                ], 
                [
                    79479, 
                    [
                        {
                            "pitch": 45, 
                            "t0": 79479, 
                            "v": 112, 
                            "dur": 225, 
                            "type": "note", 
                            "channel": 9
                        }, 
                        {
                            "pitch": 43, 
                            "t0": 79479, 
                            "v": 112, 
                            "dur": 231, 
                            "type": "note", 
                            "channel": 9
                        }
                    ]
                ], 
                [
                    79736, 
                    [
                        {
                            "pitch": 47, 
                            "t0": 79736, 
                            "v": 72, 
                            "dur": 70, 
                            "type": "note", 
                            "channel": 9
                        }
                    ]
                ], 
                [
                    80131, 
                    [
                        {
                            "pitch": 47, 
                            "t0": 80131, 
                            "v": 60, 
                            "dur": 65, 
                            "type": "note", 
                            "channel": 9
                        }
                    ]
                ], 
                [
                    80256, 
                    [
                        {
                            "pitch": 47, 
                            "t0": 80256, 
                            "v": 47, 
                            "dur": 100, 
                            "type": "note", 
                            "channel": 9
                        }
                    ]
                ], 
                [
                    80522, 
                    [
                        {
                            "pitch": 45, 
                            "t0": 80522, 
                            "v": 112, 
                            "dur": 213, 
                            "type": "note", 
                            "channel": 9
                        }, 
                        {
                            "pitch": 43, 
                            "t0": 80522, 
                            "v": 104, 
                            "dur": 215, 
                            "type": "note", 
                            "channel": 9
                        }
                    ]
                ], 
                [
                    80523, 
                    [
                        {
                            "pitch": 41, 
                            "t0": 80523, 
                            "v": 112, 
                            "dur": 213, 
                            "type": "note", 
                            "channel": 9
                        }
                    ]
                ], 
                [
                    84960, 
                    [
                        {
                            "pitch": 82, 
                            "t0": 84960, 
                            "v": 80, 
                            "dur": 480, 
                            "type": "note", 
                            "channel": 9
                        }, 
                        {
                            "pitch": 76, 
                            "t0": 84960, 
                            "v": 80, 
                            "dur": 480, 
                            "type": "note", 
                            "channel": 9
                        }, 
                        {
                            "pitch": 83, 
                            "t0": 84960, 
                            "v": 80, 
                            "dur": 480, 
                            "type": "note", 
                            "channel": 9
                        }, 
                        {
                            "pitch": 41, 
                            "t0": 84960, 
                            "v": 112, 
                            "dur": 480, 
                            "type": "note", 
                            "channel": 9
                        }, 
                        {
                            "pitch": 43, 
                            "t0": 84960, 
                            "v": 104, 
                            "dur": 480, 
                            "type": "note", 
                            "channel": 9
                        }, 
                        {
                            "pitch": 45, 
                            "t0": 84960, 
                            "v": 112, 
                            "dur": 480, 
                            "type": "note", 
                            "channel": 9
                        }, 
                        {
                            "pitch": 47, 
                            "t0": 84960, 
                            "v": 80, 
                            "dur": 480, 
                            "type": "note", 
                            "channel": 9
                        }
                    ]
                ]
            ], 
            "instruments": [
                0
            ], 
            "tMax": 84960, 
            "channels": [
                9
            ], 
            "instrument": 0, 
            "numNotes": 703, 
            "type": "TrackObj"
        }, 
        {
            "trackName": "Ankle Bells", 
            "seq": [
                [
                    0, 
                    [
                        {
                            "instrument": 0, 
                            "type": "programChange", 
                            "t0": 0, 
                            "channel": 9
                        }
                    ]
                ], 
                [
                    942, 
                    [
                        {
                            "instrument": 0, 
                            "type": "programChange", 
                            "t0": 942, 
                            "channel": 9
                        }, 
                        {
                            "pitch": 83, 
                            "t0": 942, 
                            "v": 124, 
                            "dur": 131, 
                            "type": "note", 
                            "channel": 9
                        }
                    ]
                ], 
                [
                    1969, 
                    [
                        {
                            "pitch": 83, 
                            "t0": 1969, 
                            "v": 124, 
                            "dur": 150, 
                            "type": "note", 
                            "channel": 9
                        }
                    ]
                ], 
                [
                    3014, 
                    [
                        {
                            "pitch": 83, 
                            "t0": 3014, 
                            "v": 124, 
                            "dur": 141, 
                            "type": "note", 
                            "channel": 9
                        }
                    ]
                ], 
                [
                    4012, 
                    [
                        {
                            "pitch": 83, 
                            "t0": 4012, 
                            "v": 116, 
                            "dur": 133, 
                            "type": "note", 
                            "channel": 9
                        }
                    ]
                ], 
                [
                    5055, 
                    [
                        {
                            "pitch": 83, 
                            "t0": 5055, 
                            "v": 124, 
                            "dur": 137, 
                            "type": "note", 
                            "channel": 9
                        }
                    ]
                ], 
                [
                    6090, 
                    [
                        {
                            "pitch": 83, 
                            "t0": 6090, 
                            "v": 127, 
                            "dur": 133, 
                            "type": "note", 
                            "channel": 9
                        }
                    ]
                ], 
                [
                    7128, 
                    [
                        {
                            "pitch": 83, 
                            "t0": 7128, 
                            "v": 124, 
                            "dur": 136, 
                            "type": "note", 
                            "channel": 9
                        }
                    ]
                ], 
                [
                    8172, 
                    [
                        {
                            "pitch": 83, 
                            "t0": 8172, 
                            "v": 120, 
                            "dur": 146, 
                            "type": "note", 
                            "channel": 9
                        }
                    ]
                ], 
                [
                    9222, 
                    [
                        {
                            "pitch": 83, 
                            "t0": 9222, 
                            "v": 116, 
                            "dur": 160, 
                            "type": "note", 
                            "channel": 9
                        }
                    ]
                ], 
                [
                    10257, 
                    [
                        {
                            "pitch": 83, 
                            "t0": 10257, 
                            "v": 120, 
                            "dur": 153, 
                            "type": "note", 
                            "channel": 9
                        }
                    ]
                ], 
                [
                    11313, 
                    [
                        {
                            "pitch": 83, 
                            "t0": 11313, 
                            "v": 116, 
                            "dur": 149, 
                            "type": "note", 
                            "channel": 9
                        }
                    ]
                ], 
                [
                    12360, 
                    [
                        {
                            "pitch": 83, 
                            "t0": 12360, 
                            "v": 124, 
                            "dur": 121, 
                            "type": "note", 
                            "channel": 9
                        }
                    ]
                ], 
                [
                    13387, 
                    [
                        {
                            "pitch": 83, 
                            "t0": 13387, 
                            "v": 127, 
                            "dur": 148, 
                            "type": "note", 
                            "channel": 9
                        }
                    ]
                ], 
                [
                    14458, 
                    [
                        {
                            "pitch": 83, 
                            "t0": 14458, 
                            "v": 124, 
                            "dur": 145, 
                            "type": "note", 
                            "channel": 9
                        }
                    ]
                ], 
                [
                    15491, 
                    [
                        {
                            "pitch": 83, 
                            "t0": 15491, 
                            "v": 112, 
                            "dur": 136, 
                            "type": "note", 
                            "channel": 9
                        }
                    ]
                ], 
                [
                    16520, 
                    [
                        {
                            "pitch": 83, 
                            "t0": 16520, 
                            "v": 120, 
                            "dur": 140, 
                            "type": "note", 
                            "channel": 9
                        }
                    ]
                ], 
                [
                    17566, 
                    [
                        {
                            "pitch": 83, 
                            "t0": 17566, 
                            "v": 116, 
                            "dur": 145, 
                            "type": "note", 
                            "channel": 9
                        }
                    ]
                ], 
                [
                    18564, 
                    [
                        {
                            "pitch": 83, 
                            "t0": 18564, 
                            "v": 120, 
                            "dur": 156, 
                            "type": "note", 
                            "channel": 9
                        }
                    ]
                ], 
                [
                    19608, 
                    [
                        {
                            "pitch": 83, 
                            "t0": 19608, 
                            "v": 120, 
                            "dur": 153, 
                            "type": "note", 
                            "channel": 9
                        }
                    ]
                ], 
                [
                    20631, 
                    [
                        {
                            "pitch": 83, 
                            "t0": 20631, 
                            "v": 120, 
                            "dur": 142, 
                            "type": "note", 
                            "channel": 9
                        }
                    ]
                ], 
                [
                    21640, 
                    [
                        {
                            "pitch": 83, 
                            "t0": 21640, 
                            "v": 127, 
                            "dur": 153, 
                            "type": "note", 
                            "channel": 9
                        }
                    ]
                ], 
                [
                    22693, 
                    [
                        {
                            "pitch": 83, 
                            "t0": 22693, 
                            "v": 124, 
                            "dur": 153, 
                            "type": "note", 
                            "channel": 9
                        }
                    ]
                ], 
                [
                    23725, 
                    [
                        {
                            "pitch": 83, 
                            "t0": 23725, 
                            "v": 120, 
                            "dur": 130, 
                            "type": "note", 
                            "channel": 9
                        }
                    ]
                ], 
                [
                    24759, 
                    [
                        {
                            "pitch": 83, 
                            "t0": 24759, 
                            "v": 124, 
                            "dur": 137, 
                            "type": "note", 
                            "channel": 9
                        }
                    ]
                ], 
                [
                    25788, 
                    [
                        {
                            "pitch": 83, 
                            "t0": 25788, 
                            "v": 120, 
                            "dur": 145, 
                            "type": "note", 
                            "channel": 9
                        }
                    ]
                ], 
                [
                    26833, 
                    [
                        {
                            "pitch": 83, 
                            "t0": 26833, 
                            "v": 120, 
                            "dur": 141, 
                            "type": "note", 
                            "channel": 9
                        }
                    ]
                ], 
                [
                    27853, 
                    [
                        {
                            "pitch": 83, 
                            "t0": 27853, 
                            "v": 120, 
                            "dur": 158, 
                            "type": "note", 
                            "channel": 9
                        }
                    ]
                ], 
                [
                    28913, 
                    [
                        {
                            "pitch": 83, 
                            "t0": 28913, 
                            "v": 124, 
                            "dur": 147, 
                            "type": "note", 
                            "channel": 9
                        }
                    ]
                ], 
                [
                    29959, 
                    [
                        {
                            "pitch": 83, 
                            "t0": 29959, 
                            "v": 120, 
                            "dur": 135, 
                            "type": "note", 
                            "channel": 9
                        }
                    ]
                ], 
                [
                    30983, 
                    [
                        {
                            "pitch": 83, 
                            "t0": 30983, 
                            "v": 120, 
                            "dur": 147, 
                            "type": "note", 
                            "channel": 9
                        }
                    ]
                ], 
                [
                    32005, 
                    [
                        {
                            "pitch": 83, 
                            "t0": 32005, 
                            "v": 124, 
                            "dur": 140, 
                            "type": "note", 
                            "channel": 9
                        }
                    ]
                ], 
                [
                    33027, 
                    [
                        {
                            "pitch": 83, 
                            "t0": 33027, 
                            "v": 116, 
                            "dur": 139, 
                            "type": "note", 
                            "channel": 9
                        }
                    ]
                ], 
                [
                    34041, 
                    [
                        {
                            "pitch": 83, 
                            "t0": 34041, 
                            "v": 120, 
                            "dur": 140, 
                            "type": "note", 
                            "channel": 9
                        }
                    ]
                ], 
                [
                    35062, 
                    [
                        {
                            "pitch": 83, 
                            "t0": 35062, 
                            "v": 120, 
                            "dur": 139, 
                            "type": "note", 
                            "channel": 9
                        }
                    ]
                ], 
                [
                    36082, 
                    [
                        {
                            "pitch": 83, 
                            "t0": 36082, 
                            "v": 124, 
                            "dur": 156, 
                            "type": "note", 
                            "channel": 9
                        }
                    ]
                ], 
                [
                    37109, 
                    [
                        {
                            "pitch": 83, 
                            "t0": 37109, 
                            "v": 124, 
                            "dur": 155, 
                            "type": "note", 
                            "channel": 9
                        }
                    ]
                ], 
                [
                    38136, 
                    [
                        {
                            "pitch": 83, 
                            "t0": 38136, 
                            "v": 120, 
                            "dur": 139, 
                            "type": "note", 
                            "channel": 9
                        }
                    ]
                ], 
                [
                    39167, 
                    [
                        {
                            "pitch": 83, 
                            "t0": 39167, 
                            "v": 127, 
                            "dur": 152, 
                            "type": "note", 
                            "channel": 9
                        }
                    ]
                ], 
                [
                    40191, 
                    [
                        {
                            "pitch": 83, 
                            "t0": 40191, 
                            "v": 120, 
                            "dur": 170, 
                            "type": "note", 
                            "channel": 9
                        }
                    ]
                ], 
                [
                    41250, 
                    [
                        {
                            "pitch": 83, 
                            "t0": 41250, 
                            "v": 124, 
                            "dur": 131, 
                            "type": "note", 
                            "channel": 9
                        }
                    ]
                ], 
                [
                    42277, 
                    [
                        {
                            "pitch": 83, 
                            "t0": 42277, 
                            "v": 124, 
                            "dur": 150, 
                            "type": "note", 
                            "channel": 9
                        }
                    ]
                ], 
                [
                    43322, 
                    [
                        {
                            "pitch": 83, 
                            "t0": 43322, 
                            "v": 124, 
                            "dur": 141, 
                            "type": "note", 
                            "channel": 9
                        }
                    ]
                ], 
                [
                    44320, 
                    [
                        {
                            "pitch": 83, 
                            "t0": 44320, 
                            "v": 116, 
                            "dur": 133, 
                            "type": "note", 
                            "channel": 9
                        }
                    ]
                ], 
                [
                    45363, 
                    [
                        {
                            "pitch": 83, 
                            "t0": 45363, 
                            "v": 124, 
                            "dur": 137, 
                            "type": "note", 
                            "channel": 9
                        }
                    ]
                ], 
                [
                    46398, 
                    [
                        {
                            "pitch": 83, 
                            "t0": 46398, 
                            "v": 127, 
                            "dur": 133, 
                            "type": "note", 
                            "channel": 9
                        }
                    ]
                ], 
                [
                    47436, 
                    [
                        {
                            "pitch": 83, 
                            "t0": 47436, 
                            "v": 124, 
                            "dur": 136, 
                            "type": "note", 
                            "channel": 9
                        }
                    ]
                ], 
                [
                    48480, 
                    [
                        {
                            "pitch": 83, 
                            "t0": 48480, 
                            "v": 120, 
                            "dur": 146, 
                            "type": "note", 
                            "channel": 9
                        }
                    ]
                ], 
                [
                    49530, 
                    [
                        {
                            "pitch": 83, 
                            "t0": 49530, 
                            "v": 116, 
                            "dur": 160, 
                            "type": "note", 
                            "channel": 9
                        }
                    ]
                ], 
                [
                    50565, 
                    [
                        {
                            "pitch": 83, 
                            "t0": 50565, 
                            "v": 120, 
                            "dur": 153, 
                            "type": "note", 
                            "channel": 9
                        }
                    ]
                ], 
                [
                    51621, 
                    [
                        {
                            "pitch": 83, 
                            "t0": 51621, 
                            "v": 116, 
                            "dur": 149, 
                            "type": "note", 
                            "channel": 9
                        }
                    ]
                ], 
                [
                    52668, 
                    [
                        {
                            "pitch": 83, 
                            "t0": 52668, 
                            "v": 124, 
                            "dur": 121, 
                            "type": "note", 
                            "channel": 9
                        }
                    ]
                ], 
                [
                    53695, 
                    [
                        {
                            "pitch": 83, 
                            "t0": 53695, 
                            "v": 127, 
                            "dur": 148, 
                            "type": "note", 
                            "channel": 9
                        }
                    ]
                ], 
                [
                    54766, 
                    [
                        {
                            "pitch": 83, 
                            "t0": 54766, 
                            "v": 124, 
                            "dur": 145, 
                            "type": "note", 
                            "channel": 9
                        }
                    ]
                ], 
                [
                    55799, 
                    [
                        {
                            "pitch": 83, 
                            "t0": 55799, 
                            "v": 112, 
                            "dur": 136, 
                            "type": "note", 
                            "channel": 9
                        }
                    ]
                ], 
                [
                    56828, 
                    [
                        {
                            "pitch": 83, 
                            "t0": 56828, 
                            "v": 120, 
                            "dur": 140, 
                            "type": "note", 
                            "channel": 9
                        }
                    ]
                ], 
                [
                    57874, 
                    [
                        {
                            "pitch": 83, 
                            "t0": 57874, 
                            "v": 116, 
                            "dur": 145, 
                            "type": "note", 
                            "channel": 9
                        }
                    ]
                ], 
                [
                    58872, 
                    [
                        {
                            "pitch": 83, 
                            "t0": 58872, 
                            "v": 120, 
                            "dur": 156, 
                            "type": "note", 
                            "channel": 9
                        }
                    ]
                ], 
                [
                    59916, 
                    [
                        {
                            "pitch": 83, 
                            "t0": 59916, 
                            "v": 120, 
                            "dur": 153, 
                            "type": "note", 
                            "channel": 9
                        }
                    ]
                ], 
                [
                    60939, 
                    [
                        {
                            "pitch": 83, 
                            "t0": 60939, 
                            "v": 120, 
                            "dur": 142, 
                            "type": "note", 
                            "channel": 9
                        }
                    ]
                ], 
                [
                    61948, 
                    [
                        {
                            "pitch": 83, 
                            "t0": 61948, 
                            "v": 127, 
                            "dur": 153, 
                            "type": "note", 
                            "channel": 9
                        }
                    ]
                ], 
                [
                    63001, 
                    [
                        {
                            "pitch": 83, 
                            "t0": 63001, 
                            "v": 124, 
                            "dur": 153, 
                            "type": "note", 
                            "channel": 9
                        }
                    ]
                ], 
                [
                    64033, 
                    [
                        {
                            "pitch": 83, 
                            "t0": 64033, 
                            "v": 120, 
                            "dur": 130, 
                            "type": "note", 
                            "channel": 9
                        }
                    ]
                ], 
                [
                    65067, 
                    [
                        {
                            "pitch": 83, 
                            "t0": 65067, 
                            "v": 124, 
                            "dur": 137, 
                            "type": "note", 
                            "channel": 9
                        }
                    ]
                ], 
                [
                    66096, 
                    [
                        {
                            "pitch": 83, 
                            "t0": 66096, 
                            "v": 120, 
                            "dur": 145, 
                            "type": "note", 
                            "channel": 9
                        }
                    ]
                ], 
                [
                    67141, 
                    [
                        {
                            "pitch": 83, 
                            "t0": 67141, 
                            "v": 120, 
                            "dur": 141, 
                            "type": "note", 
                            "channel": 9
                        }
                    ]
                ], 
                [
                    68161, 
                    [
                        {
                            "pitch": 83, 
                            "t0": 68161, 
                            "v": 120, 
                            "dur": 158, 
                            "type": "note", 
                            "channel": 9
                        }
                    ]
                ], 
                [
                    69221, 
                    [
                        {
                            "pitch": 83, 
                            "t0": 69221, 
                            "v": 124, 
                            "dur": 147, 
                            "type": "note", 
                            "channel": 9
                        }
                    ]
                ], 
                [
                    70267, 
                    [
                        {
                            "pitch": 83, 
                            "t0": 70267, 
                            "v": 120, 
                            "dur": 135, 
                            "type": "note", 
                            "channel": 9
                        }
                    ]
                ], 
                [
                    71291, 
                    [
                        {
                            "pitch": 83, 
                            "t0": 71291, 
                            "v": 120, 
                            "dur": 147, 
                            "type": "note", 
                            "channel": 9
                        }
                    ]
                ], 
                [
                    72313, 
                    [
                        {
                            "pitch": 83, 
                            "t0": 72313, 
                            "v": 124, 
                            "dur": 140, 
                            "type": "note", 
                            "channel": 9
                        }
                    ]
                ], 
                [
                    73335, 
                    [
                        {
                            "pitch": 83, 
                            "t0": 73335, 
                            "v": 116, 
                            "dur": 139, 
                            "type": "note", 
                            "channel": 9
                        }
                    ]
                ], 
                [
                    74349, 
                    [
                        {
                            "pitch": 83, 
                            "t0": 74349, 
                            "v": 120, 
                            "dur": 140, 
                            "type": "note", 
                            "channel": 9
                        }
                    ]
                ], 
                [
                    75370, 
                    [
                        {
                            "pitch": 83, 
                            "t0": 75370, 
                            "v": 120, 
                            "dur": 139, 
                            "type": "note", 
                            "channel": 9
                        }
                    ]
                ], 
                [
                    76390, 
                    [
                        {
                            "pitch": 83, 
                            "t0": 76390, 
                            "v": 124, 
                            "dur": 156, 
                            "type": "note", 
                            "channel": 9
                        }
                    ]
                ], 
                [
                    77417, 
                    [
                        {
                            "pitch": 83, 
                            "t0": 77417, 
                            "v": 124, 
                            "dur": 155, 
                            "type": "note", 
                            "channel": 9
                        }
                    ]
                ], 
                [
                    78444, 
                    [
                        {
                            "pitch": 83, 
                            "t0": 78444, 
                            "v": 120, 
                            "dur": 139, 
                            "type": "note", 
                            "channel": 9
                        }
                    ]
                ], 
                [
                    79475, 
                    [
                        {
                            "pitch": 83, 
                            "t0": 79475, 
                            "v": 127, 
                            "dur": 152, 
                            "type": "note", 
                            "channel": 9
                        }
                    ]
                ], 
                [
                    80499, 
                    [
                        {
                            "pitch": 83, 
                            "t0": 80499, 
                            "v": 120, 
                            "dur": 170, 
                            "type": "note", 
                            "channel": 9
                        }
                    ]
                ]
            ], 
            "instruments": [
                0
            ], 
            "tMax": 80499, 
            "channels": [
                9
            ], 
            "instrument": 0, 
            "numNotes": 78, 
            "type": "TrackObj"
        }, 
        {
            "trackName": "Shaker", 
            "seq": [
                [
                    0, 
                    [
                        {
                            "instrument": 0, 
                            "type": "programChange", 
                            "t0": 0, 
                            "channel": 9
                        }
                    ]
                ], 
                [
                    659, 
                    [
                        {
                            "instrument": 0, 
                            "type": "programChange", 
                            "t0": 659, 
                            "channel": 9
                        }, 
                        {
                            "pitch": 82, 
                            "t0": 659, 
                            "v": 100, 
                            "dur": 46, 
                            "type": "note", 
                            "channel": 9
                        }
                    ]
                ], 
                [
                    1701, 
                    [
                        {
                            "pitch": 82, 
                            "t0": 1701, 
                            "v": 116, 
                            "dur": 36, 
                            "type": "note", 
                            "channel": 9
                        }
                    ]
                ], 
                [
                    2777, 
                    [
                        {
                            "pitch": 82, 
                            "t0": 2777, 
                            "v": 112, 
                            "dur": 38, 
                            "type": "note", 
                            "channel": 9
                        }
                    ]
                ], 
                [
                    3751, 
                    [
                        {
                            "pitch": 82, 
                            "t0": 3751, 
                            "v": 100, 
                            "dur": 43, 
                            "type": "note", 
                            "channel": 9
                        }
                    ]
                ], 
                [
                    4792, 
                    [
                        {
                            "pitch": 82, 
                            "t0": 4792, 
                            "v": 104, 
                            "dur": 38, 
                            "type": "note", 
                            "channel": 9
                        }
                    ]
                ], 
                [
                    5823, 
                    [
                        {
                            "pitch": 82, 
                            "t0": 5823, 
                            "v": 116, 
                            "dur": 36, 
                            "type": "note", 
                            "channel": 9
                        }
                    ]
                ], 
                [
                    6885, 
                    [
                        {
                            "pitch": 82, 
                            "t0": 6885, 
                            "v": 108, 
                            "dur": 34, 
                            "type": "note", 
                            "channel": 9
                        }
                    ]
                ], 
                [
                    7923, 
                    [
                        {
                            "pitch": 82, 
                            "t0": 7923, 
                            "v": 120, 
                            "dur": 33, 
                            "type": "note", 
                            "channel": 9
                        }
                    ]
                ], 
                [
                    8977, 
                    [
                        {
                            "pitch": 82, 
                            "t0": 8977, 
                            "v": 104, 
                            "dur": 35, 
                            "type": "note", 
                            "channel": 9
                        }
                    ]
                ], 
                [
                    10013, 
                    [
                        {
                            "pitch": 82, 
                            "t0": 10013, 
                            "v": 116, 
                            "dur": 37, 
                            "type": "note", 
                            "channel": 9
                        }
                    ]
                ], 
                [
                    11056, 
                    [
                        {
                            "pitch": 82, 
                            "t0": 11056, 
                            "v": 120, 
                            "dur": 35, 
                            "type": "note", 
                            "channel": 9
                        }
                    ]
                ], 
                [
                    12106, 
                    [
                        {
                            "pitch": 82, 
                            "t0": 12106, 
                            "v": 112, 
                            "dur": 35, 
                            "type": "note", 
                            "channel": 9
                        }
                    ]
                ], 
                [
                    13137, 
                    [
                        {
                            "pitch": 82, 
                            "t0": 13137, 
                            "v": 112, 
                            "dur": 34, 
                            "type": "note", 
                            "channel": 9
                        }
                    ]
                ], 
                [
                    14196, 
                    [
                        {
                            "pitch": 82, 
                            "t0": 14196, 
                            "v": 104, 
                            "dur": 33, 
                            "type": "note", 
                            "channel": 9
                        }
                    ]
                ], 
                [
                    15227, 
                    [
                        {
                            "pitch": 82, 
                            "t0": 15227, 
                            "v": 108, 
                            "dur": 36, 
                            "type": "note", 
                            "channel": 9
                        }
                    ]
                ], 
                [
                    16307, 
                    [
                        {
                            "pitch": 82, 
                            "t0": 16307, 
                            "v": 100, 
                            "dur": 36, 
                            "type": "note", 
                            "channel": 9
                        }
                    ]
                ], 
                [
                    17278, 
                    [
                        {
                            "pitch": 82, 
                            "t0": 17278, 
                            "v": 104, 
                            "dur": 37, 
                            "type": "note", 
                            "channel": 9
                        }
                    ]
                ], 
                [
                    18312, 
                    [
                        {
                            "pitch": 82, 
                            "t0": 18312, 
                            "v": 116, 
                            "dur": 36, 
                            "type": "note", 
                            "channel": 9
                        }
                    ]
                ], 
                [
                    19343, 
                    [
                        {
                            "pitch": 82, 
                            "t0": 19343, 
                            "v": 108, 
                            "dur": 36, 
                            "type": "note", 
                            "channel": 9
                        }
                    ]
                ], 
                [
                    20367, 
                    [
                        {
                            "pitch": 82, 
                            "t0": 20367, 
                            "v": 100, 
                            "dur": 43, 
                            "type": "note", 
                            "channel": 9
                        }
                    ]
                ], 
                [
                    21408, 
                    [
                        {
                            "pitch": 82, 
                            "t0": 21408, 
                            "v": 120, 
                            "dur": 39, 
                            "type": "note", 
                            "channel": 9
                        }
                    ]
                ], 
                [
                    22431, 
                    [
                        {
                            "pitch": 82, 
                            "t0": 22431, 
                            "v": 100, 
                            "dur": 42, 
                            "type": "note", 
                            "channel": 9
                        }
                    ]
                ], 
                [
                    23472, 
                    [
                        {
                            "pitch": 82, 
                            "t0": 23472, 
                            "v": 116, 
                            "dur": 41, 
                            "type": "note", 
                            "channel": 9
                        }
                    ]
                ], 
                [
                    24502, 
                    [
                        {
                            "pitch": 82, 
                            "t0": 24502, 
                            "v": 108, 
                            "dur": 40, 
                            "type": "note", 
                            "channel": 9
                        }
                    ]
                ], 
                [
                    25536, 
                    [
                        {
                            "pitch": 82, 
                            "t0": 25536, 
                            "v": 100, 
                            "dur": 41, 
                            "type": "note", 
                            "channel": 9
                        }
                    ]
                ], 
                [
                    26573, 
                    [
                        {
                            "pitch": 82, 
                            "t0": 26573, 
                            "v": 68, 
                            "dur": 53, 
                            "type": "note", 
                            "channel": 9
                        }
                    ]
                ], 
                [
                    27624, 
                    [
                        {
                            "pitch": 82, 
                            "t0": 27624, 
                            "v": 100, 
                            "dur": 52, 
                            "type": "note", 
                            "channel": 9
                        }
                    ]
                ], 
                [
                    28654, 
                    [
                        {
                            "pitch": 82, 
                            "t0": 28654, 
                            "v": 96, 
                            "dur": 46, 
                            "type": "note", 
                            "channel": 9
                        }
                    ]
                ], 
                [
                    29688, 
                    [
                        {
                            "pitch": 82, 
                            "t0": 29688, 
                            "v": 112, 
                            "dur": 39, 
                            "type": "note", 
                            "channel": 9
                        }
                    ]
                ], 
                [
                    30727, 
                    [
                        {
                            "pitch": 82, 
                            "t0": 30727, 
                            "v": 116, 
                            "dur": 39, 
                            "type": "note", 
                            "channel": 9
                        }
                    ]
                ], 
                [
                    31755, 
                    [
                        {
                            "pitch": 82, 
                            "t0": 31755, 
                            "v": 100, 
                            "dur": 37, 
                            "type": "note", 
                            "channel": 9
                        }
                    ]
                ], 
                [
                    32785, 
                    [
                        {
                            "pitch": 82, 
                            "t0": 32785, 
                            "v": 104, 
                            "dur": 42, 
                            "type": "note", 
                            "channel": 9
                        }
                    ]
                ], 
                [
                    33800, 
                    [
                        {
                            "pitch": 82, 
                            "t0": 33800, 
                            "v": 112, 
                            "dur": 39, 
                            "type": "note", 
                            "channel": 9
                        }
                    ]
                ], 
                [
                    34812, 
                    [
                        {
                            "pitch": 82, 
                            "t0": 34812, 
                            "v": 104, 
                            "dur": 45, 
                            "type": "note", 
                            "channel": 9
                        }
                    ]
                ], 
                [
                    35825, 
                    [
                        {
                            "pitch": 82, 
                            "t0": 35825, 
                            "v": 108, 
                            "dur": 42, 
                            "type": "note", 
                            "channel": 9
                        }
                    ]
                ], 
                [
                    36852, 
                    [
                        {
                            "pitch": 82, 
                            "t0": 36852, 
                            "v": 100, 
                            "dur": 41, 
                            "type": "note", 
                            "channel": 9
                        }
                    ]
                ], 
                [
                    37871, 
                    [
                        {
                            "pitch": 82, 
                            "t0": 37871, 
                            "v": 100, 
                            "dur": 39, 
                            "type": "note", 
                            "channel": 9
                        }
                    ]
                ], 
                [
                    38943, 
                    [
                        {
                            "pitch": 82, 
                            "t0": 38943, 
                            "v": 108, 
                            "dur": 36, 
                            "type": "note", 
                            "channel": 9
                        }
                    ]
                ], 
                [
                    39948, 
                    [
                        {
                            "pitch": 82, 
                            "t0": 39948, 
                            "v": 104, 
                            "dur": 49, 
                            "type": "note", 
                            "channel": 9
                        }
                    ]
                ], 
                [
                    40953, 
                    [
                        {
                            "pitch": 82, 
                            "t0": 40953, 
                            "v": 96, 
                            "dur": 45, 
                            "type": "note", 
                            "channel": 9
                        }
                    ]
                ], 
                [
                    41991, 
                    [
                        {
                            "pitch": 82, 
                            "t0": 41991, 
                            "v": 92, 
                            "dur": 43, 
                            "type": "note", 
                            "channel": 9
                        }
                    ]
                ], 
                [
                    43072, 
                    [
                        {
                            "pitch": 82, 
                            "t0": 43072, 
                            "v": 80, 
                            "dur": 46, 
                            "type": "note", 
                            "channel": 9
                        }
                    ]
                ], 
                [
                    44069, 
                    [
                        {
                            "pitch": 82, 
                            "t0": 44069, 
                            "v": 104, 
                            "dur": 42, 
                            "type": "note", 
                            "channel": 9
                        }
                    ]
                ], 
                [
                    45120, 
                    [
                        {
                            "pitch": 82, 
                            "t0": 45120, 
                            "v": 96, 
                            "dur": 41, 
                            "type": "note", 
                            "channel": 9
                        }
                    ]
                ], 
                [
                    46135, 
                    [
                        {
                            "pitch": 82, 
                            "t0": 46135, 
                            "v": 108, 
                            "dur": 42, 
                            "type": "note", 
                            "channel": 9
                        }
                    ]
                ], 
                [
                    47202, 
                    [
                        {
                            "pitch": 82, 
                            "t0": 47202, 
                            "v": 100, 
                            "dur": 42, 
                            "type": "note", 
                            "channel": 9
                        }
                    ]
                ], 
                [
                    48242, 
                    [
                        {
                            "pitch": 82, 
                            "t0": 48242, 
                            "v": 100, 
                            "dur": 42, 
                            "type": "note", 
                            "channel": 9
                        }
                    ]
                ], 
                [
                    49259, 
                    [
                        {
                            "pitch": 82, 
                            "t0": 49259, 
                            "v": 100, 
                            "dur": 43, 
                            "type": "note", 
                            "channel": 9
                        }
                    ]
                ], 
                [
                    50337, 
                    [
                        {
                            "pitch": 82, 
                            "t0": 50337, 
                            "v": 96, 
                            "dur": 43, 
                            "type": "note", 
                            "channel": 9
                        }
                    ]
                ], 
                [
                    51368, 
                    [
                        {
                            "pitch": 82, 
                            "t0": 51368, 
                            "v": 104, 
                            "dur": 44, 
                            "type": "note", 
                            "channel": 9
                        }
                    ]
                ], 
                [
                    52419, 
                    [
                        {
                            "pitch": 82, 
                            "t0": 52419, 
                            "v": 108, 
                            "dur": 46, 
                            "type": "note", 
                            "channel": 9
                        }
                    ]
                ], 
                [
                    53454, 
                    [
                        {
                            "pitch": 82, 
                            "t0": 53454, 
                            "v": 108, 
                            "dur": 43, 
                            "type": "note", 
                            "channel": 9
                        }
                    ]
                ], 
                [
                    54514, 
                    [
                        {
                            "pitch": 82, 
                            "t0": 54514, 
                            "v": 108, 
                            "dur": 43, 
                            "type": "note", 
                            "channel": 9
                        }
                    ]
                ], 
                [
                    55537, 
                    [
                        {
                            "pitch": 82, 
                            "t0": 55537, 
                            "v": 112, 
                            "dur": 41, 
                            "type": "note", 
                            "channel": 9
                        }
                    ]
                ], 
                [
                    56580, 
                    [
                        {
                            "pitch": 82, 
                            "t0": 56580, 
                            "v": 96, 
                            "dur": 51, 
                            "type": "note", 
                            "channel": 9
                        }
                    ]
                ], 
                [
                    57632, 
                    [
                        {
                            "pitch": 82, 
                            "t0": 57632, 
                            "v": 104, 
                            "dur": 40, 
                            "type": "note", 
                            "channel": 9
                        }
                    ]
                ], 
                [
                    58637, 
                    [
                        {
                            "pitch": 82, 
                            "t0": 58637, 
                            "v": 108, 
                            "dur": 40, 
                            "type": "note", 
                            "channel": 9
                        }
                    ]
                ], 
                [
                    59662, 
                    [
                        {
                            "pitch": 82, 
                            "t0": 59662, 
                            "v": 108, 
                            "dur": 38, 
                            "type": "note", 
                            "channel": 9
                        }
                    ]
                ], 
                [
                    60695, 
                    [
                        {
                            "pitch": 82, 
                            "t0": 60695, 
                            "v": 112, 
                            "dur": 36, 
                            "type": "note", 
                            "channel": 9
                        }
                    ]
                ], 
                [
                    61720, 
                    [
                        {
                            "pitch": 82, 
                            "t0": 61720, 
                            "v": 108, 
                            "dur": 41, 
                            "type": "note", 
                            "channel": 9
                        }
                    ]
                ], 
                [
                    62774, 
                    [
                        {
                            "pitch": 82, 
                            "t0": 62774, 
                            "v": 104, 
                            "dur": 46, 
                            "type": "note", 
                            "channel": 9
                        }
                    ]
                ], 
                [
                    63791, 
                    [
                        {
                            "pitch": 82, 
                            "t0": 63791, 
                            "v": 112, 
                            "dur": 46, 
                            "type": "note", 
                            "channel": 9
                        }
                    ]
                ], 
                [
                    64832, 
                    [
                        {
                            "pitch": 82, 
                            "t0": 64832, 
                            "v": 108, 
                            "dur": 42, 
                            "type": "note", 
                            "channel": 9
                        }
                    ]
                ], 
                [
                    65865, 
                    [
                        {
                            "pitch": 82, 
                            "t0": 65865, 
                            "v": 116, 
                            "dur": 40, 
                            "type": "note", 
                            "channel": 9
                        }
                    ]
                ], 
                [
                    66883, 
                    [
                        {
                            "pitch": 82, 
                            "t0": 66883, 
                            "v": 116, 
                            "dur": 42, 
                            "type": "note", 
                            "channel": 9
                        }
                    ]
                ], 
                [
                    67920, 
                    [
                        {
                            "pitch": 82, 
                            "t0": 67920, 
                            "v": 80, 
                            "dur": 30, 
                            "type": "note", 
                            "channel": 9
                        }
                    ]
                ], 
                [
                    68973, 
                    [
                        {
                            "pitch": 82, 
                            "t0": 68973, 
                            "v": 120, 
                            "dur": 33, 
                            "type": "note", 
                            "channel": 9
                        }
                    ]
                ], 
                [
                    70007, 
                    [
                        {
                            "pitch": 82, 
                            "t0": 70007, 
                            "v": 100, 
                            "dur": 43, 
                            "type": "note", 
                            "channel": 9
                        }
                    ]
                ], 
                [
                    71031, 
                    [
                        {
                            "pitch": 82, 
                            "t0": 71031, 
                            "v": 108, 
                            "dur": 47, 
                            "type": "note", 
                            "channel": 9
                        }
                    ]
                ], 
                [
                    72070, 
                    [
                        {
                            "pitch": 82, 
                            "t0": 72070, 
                            "v": 108, 
                            "dur": 42, 
                            "type": "note", 
                            "channel": 9
                        }
                    ]
                ], 
                [
                    73102, 
                    [
                        {
                            "pitch": 82, 
                            "t0": 73102, 
                            "v": 116, 
                            "dur": 38, 
                            "type": "note", 
                            "channel": 9
                        }
                    ]
                ], 
                [
                    74103, 
                    [
                        {
                            "pitch": 82, 
                            "t0": 74103, 
                            "v": 112, 
                            "dur": 45, 
                            "type": "note", 
                            "channel": 9
                        }
                    ]
                ], 
                [
                    75129, 
                    [
                        {
                            "pitch": 82, 
                            "t0": 75129, 
                            "v": 100, 
                            "dur": 48, 
                            "type": "note", 
                            "channel": 9
                        }
                    ]
                ], 
                [
                    76161, 
                    [
                        {
                            "pitch": 82, 
                            "t0": 76161, 
                            "v": 104, 
                            "dur": 40, 
                            "type": "note", 
                            "channel": 9
                        }
                    ]
                ], 
                [
                    77172, 
                    [
                        {
                            "pitch": 82, 
                            "t0": 77172, 
                            "v": 120, 
                            "dur": 42, 
                            "type": "note", 
                            "channel": 9
                        }
                    ]
                ], 
                [
                    78190, 
                    [
                        {
                            "pitch": 82, 
                            "t0": 78190, 
                            "v": 120, 
                            "dur": 38, 
                            "type": "note", 
                            "channel": 9
                        }
                    ]
                ], 
                [
                    79224, 
                    [
                        {
                            "pitch": 82, 
                            "t0": 79224, 
                            "v": 80, 
                            "dur": 30, 
                            "type": "note", 
                            "channel": 9
                        }
                    ]
                ], 
                [
                    80270, 
                    [
                        {
                            "pitch": 82, 
                            "t0": 80270, 
                            "v": 88, 
                            "dur": 46, 
                            "type": "note", 
                            "channel": 9
                        }
                    ]
                ], 
                [
                    81303, 
                    [
                        {
                            "pitch": 82, 
                            "t0": 81303, 
                            "v": 108, 
                            "dur": 43, 
                            "type": "note", 
                            "channel": 9
                        }
                    ]
                ]
            ], 
            "instruments": [
                0
            ], 
            "tMax": 81303, 
            "channels": [
                9
            ], 
            "instrument": 0, 
            "numNotes": 79, 
            "type": "TrackObj"
        }, 
        {
            "trackName": "Flute", 
            "seq": [
                [
                    0, 
                    [
                        {
                            "instrument": 75, 
                            "type": "programChange", 
                            "t0": 0, 
                            "channel": 2
                        }
                    ]
                ], 
                [
                    6720, 
                    [
                        {
                            "instrument": 75, 
                            "type": "programChange", 
                            "t0": 6720, 
                            "channel": 2
                        }
                    ]
                ], 
                [
                    7406, 
                    [
                        {
                            "pitch": 77, 
                            "t0": 7406, 
                            "v": 92, 
                            "dur": 1066, 
                            "type": "note", 
                            "channel": 2
                        }
                    ]
                ], 
                [
                    8430, 
                    [
                        {
                            "pitch": 75, 
                            "t0": 8430, 
                            "v": 104, 
                            "dur": 1077, 
                            "type": "note", 
                            "channel": 2
                        }
                    ]
                ], 
                [
                    9480, 
                    [
                        {
                            "pitch": 72, 
                            "t0": 9480, 
                            "v": 104, 
                            "dur": 1136, 
                            "type": "note", 
                            "channel": 2
                        }
                    ]
                ], 
                [
                    11578, 
                    [
                        {
                            "pitch": 77, 
                            "t0": 11578, 
                            "v": 104, 
                            "dur": 1066, 
                            "type": "note", 
                            "channel": 2
                        }
                    ]
                ], 
                [
                    12607, 
                    [
                        {
                            "pitch": 75, 
                            "t0": 12607, 
                            "v": 112, 
                            "dur": 1077, 
                            "type": "note", 
                            "channel": 2
                        }
                    ]
                ], 
                [
                    13657, 
                    [
                        {
                            "pitch": 77, 
                            "t0": 13657, 
                            "v": 84, 
                            "dur": 1180, 
                            "type": "note", 
                            "channel": 2
                        }
                    ]
                ], 
                [
                    22968, 
                    [
                        {
                            "pitch": 77, 
                            "t0": 22968, 
                            "v": 120, 
                            "dur": 1032, 
                            "type": "note", 
                            "channel": 2
                        }
                    ]
                ], 
                [
                    23957, 
                    [
                        {
                            "pitch": 75, 
                            "t0": 23957, 
                            "v": 116, 
                            "dur": 1068, 
                            "type": "note", 
                            "channel": 2
                        }
                    ]
                ], 
                [
                    24995, 
                    [
                        {
                            "pitch": 72, 
                            "t0": 24995, 
                            "v": 108, 
                            "dur": 1163, 
                            "type": "note", 
                            "channel": 2
                        }
                    ]
                ], 
                [
                    27078, 
                    [
                        {
                            "pitch": 77, 
                            "t0": 27078, 
                            "v": 92, 
                            "dur": 1029, 
                            "type": "note", 
                            "channel": 2
                        }
                    ]
                ], 
                [
                    28071, 
                    [
                        {
                            "pitch": 75, 
                            "t0": 28071, 
                            "v": 100, 
                            "dur": 1124, 
                            "type": "note", 
                            "channel": 2
                        }
                    ]
                ], 
                [
                    29172, 
                    [
                        {
                            "pitch": 77, 
                            "t0": 29172, 
                            "v": 100, 
                            "dur": 1140, 
                            "type": "note", 
                            "channel": 2
                        }
                    ]
                ], 
                [
                    39087, 
                    [
                        {
                            "pitch": 89, 
                            "t0": 39087, 
                            "v": 108, 
                            "dur": 1006, 
                            "type": "note", 
                            "channel": 2
                        }
                    ]
                ], 
                [
                    40056, 
                    [
                        {
                            "pitch": 87, 
                            "t0": 40056, 
                            "v": 88, 
                            "dur": 63, 
                            "type": "note", 
                            "channel": 2
                        }
                    ]
                ], 
                [
                    40116, 
                    [
                        {
                            "pitch": 84, 
                            "t0": 40116, 
                            "v": 108, 
                            "dur": 930, 
                            "type": "note", 
                            "channel": 2
                        }
                    ]
                ], 
                [
                    40969, 
                    [
                        {
                            "pitch": 82, 
                            "t0": 40969, 
                            "v": 60, 
                            "dur": 776, 
                            "type": "note", 
                            "channel": 2
                        }
                    ]
                ], 
                [
                    41733, 
                    [
                        {
                            "pitch": 79, 
                            "t0": 41733, 
                            "v": 80, 
                            "dur": 440, 
                            "type": "note", 
                            "channel": 2
                        }
                    ]
                ], 
                [
                    42546, 
                    [
                        {
                            "pitch": 89, 
                            "t0": 42546, 
                            "v": 116, 
                            "dur": 1304, 
                            "type": "note", 
                            "channel": 2
                        }
                    ]
                ], 
                [
                    43825, 
                    [
                        {
                            "pitch": 87, 
                            "t0": 43825, 
                            "v": 88, 
                            "dur": 358, 
                            "type": "note", 
                            "channel": 2
                        }
                    ]
                ], 
                [
                    44169, 
                    [
                        {
                            "pitch": 84, 
                            "t0": 44169, 
                            "v": 92, 
                            "dur": 1263, 
                            "type": "note", 
                            "channel": 2
                        }
                    ]
                ], 
                [
                    46563, 
                    [
                        {
                            "pitch": 84, 
                            "t0": 46563, 
                            "v": 112, 
                            "dur": 264, 
                            "type": "note", 
                            "channel": 2
                        }
                    ]
                ], 
                [
                    46806, 
                    [
                        {
                            "pitch": 82, 
                            "t0": 46806, 
                            "v": 120, 
                            "dur": 116, 
                            "type": "note", 
                            "channel": 2
                        }
                    ]
                ], 
                [
                    46925, 
                    [
                        {
                            "pitch": 79, 
                            "t0": 46925, 
                            "v": 108, 
                            "dur": 807, 
                            "type": "note", 
                            "channel": 2
                        }
                    ]
                ], 
                [
                    48300, 
                    [
                        {
                            "pitch": 84, 
                            "t0": 48300, 
                            "v": 96, 
                            "dur": 44, 
                            "type": "note", 
                            "channel": 2
                        }
                    ]
                ], 
                [
                    48345, 
                    [
                        {
                            "pitch": 82, 
                            "t0": 48345, 
                            "v": 120, 
                            "dur": 49, 
                            "type": "note", 
                            "channel": 2
                        }
                    ]
                ], 
                [
                    48397, 
                    [
                        {
                            "pitch": 79, 
                            "t0": 48397, 
                            "v": 108, 
                            "dur": 71, 
                            "type": "note", 
                            "channel": 2
                        }
                    ]
                ], 
                [
                    48460, 
                    [
                        {
                            "pitch": 84, 
                            "t0": 48460, 
                            "v": 100, 
                            "dur": 976, 
                            "type": "note", 
                            "channel": 2
                        }
                    ]
                ], 
                [
                    49416, 
                    [
                        {
                            "pitch": 82, 
                            "t0": 49416, 
                            "v": 72, 
                            "dur": 40, 
                            "type": "note", 
                            "channel": 2
                        }
                    ]
                ], 
                [
                    49952, 
                    [
                        {
                            "pitch": 82, 
                            "t0": 49952, 
                            "v": 116, 
                            "dur": 257, 
                            "type": "note", 
                            "channel": 2
                        }
                    ]
                ], 
                [
                    50200, 
                    [
                        {
                            "pitch": 79, 
                            "t0": 50200, 
                            "v": 88, 
                            "dur": 107, 
                            "type": "note", 
                            "channel": 2
                        }
                    ]
                ], 
                [
                    50329, 
                    [
                        {
                            "pitch": 77, 
                            "t0": 50329, 
                            "v": 104, 
                            "dur": 797, 
                            "type": "note", 
                            "channel": 2
                        }
                    ]
                ], 
                [
                    51114, 
                    [
                        {
                            "pitch": 75, 
                            "t0": 51114, 
                            "v": 112, 
                            "dur": 240, 
                            "type": "note", 
                            "channel": 2
                        }
                    ]
                ], 
                [
                    51348, 
                    [
                        {
                            "pitch": 72, 
                            "t0": 51348, 
                            "v": 116, 
                            "dur": 269, 
                            "type": "note", 
                            "channel": 2
                        }
                    ]
                ], 
                [
                    51640, 
                    [
                        {
                            "pitch": 77, 
                            "t0": 51640, 
                            "v": 100, 
                            "dur": 1078, 
                            "type": "note", 
                            "channel": 2
                        }
                    ]
                ], 
                [
                    53712, 
                    [
                        {
                            "pitch": 89, 
                            "t0": 53712, 
                            "v": 124, 
                            "dur": 985, 
                            "type": "note", 
                            "channel": 2
                        }
                    ]
                ], 
                [
                    55023, 
                    [
                        {
                            "pitch": 89, 
                            "t0": 55023, 
                            "v": 116, 
                            "dur": 389, 
                            "type": "note", 
                            "channel": 2
                        }
                    ]
                ], 
                [
                    55387, 
                    [
                        {
                            "pitch": 87, 
                            "t0": 55387, 
                            "v": 108, 
                            "dur": 106, 
                            "type": "note", 
                            "channel": 2
                        }
                    ]
                ], 
                [
                    55511, 
                    [
                        {
                            "pitch": 84, 
                            "t0": 55511, 
                            "v": 100, 
                            "dur": 273, 
                            "type": "note", 
                            "channel": 2
                        }
                    ]
                ], 
                [
                    55776, 
                    [
                        {
                            "pitch": 87, 
                            "t0": 55776, 
                            "v": 100, 
                            "dur": 278, 
                            "type": "note", 
                            "channel": 2
                        }
                    ]
                ], 
                [
                    56049, 
                    [
                        {
                            "pitch": 84, 
                            "t0": 56049, 
                            "v": 108, 
                            "dur": 48, 
                            "type": "note", 
                            "channel": 2
                        }
                    ]
                ], 
                [
                    56700, 
                    [
                        {
                            "pitch": 89, 
                            "t0": 56700, 
                            "v": 84, 
                            "dur": 287, 
                            "type": "note", 
                            "channel": 2
                        }
                    ]
                ], 
                [
                    56950, 
                    [
                        {
                            "pitch": 87, 
                            "t0": 56950, 
                            "v": 112, 
                            "dur": 134, 
                            "type": "note", 
                            "channel": 2
                        }
                    ]
                ], 
                [
                    57073, 
                    [
                        {
                            "pitch": 84, 
                            "t0": 57073, 
                            "v": 112, 
                            "dur": 274, 
                            "type": "note", 
                            "channel": 2
                        }
                    ]
                ], 
                [
                    57338, 
                    [
                        {
                            "pitch": 87, 
                            "t0": 57338, 
                            "v": 116, 
                            "dur": 273, 
                            "type": "note", 
                            "channel": 2
                        }
                    ]
                ], 
                [
                    57603, 
                    [
                        {
                            "pitch": 84, 
                            "t0": 57603, 
                            "v": 104, 
                            "dur": 60, 
                            "type": "note", 
                            "channel": 2
                        }
                    ]
                ], 
                [
                    58000, 
                    [
                        {
                            "pitch": 89, 
                            "t0": 58000, 
                            "v": 112, 
                            "dur": 561, 
                            "type": "note", 
                            "channel": 2
                        }
                    ]
                ], 
                [
                    58562, 
                    [
                        {
                            "pitch": 84, 
                            "t0": 58562, 
                            "v": 84, 
                            "dur": 49, 
                            "type": "note", 
                            "channel": 2
                        }
                    ]
                ], 
                [
                    58624, 
                    [
                        {
                            "pitch": 87, 
                            "t0": 58624, 
                            "v": 116, 
                            "dur": 1490, 
                            "type": "note", 
                            "channel": 2
                        }
                    ]
                ], 
                [
                    60954, 
                    [
                        {
                            "pitch": 89, 
                            "t0": 60954, 
                            "v": 45, 
                            "dur": 210, 
                            "type": "note", 
                            "channel": 2
                        }
                    ]
                ], 
                [
                    61904, 
                    [
                        {
                            "pitch": 84, 
                            "t0": 61904, 
                            "v": 96, 
                            "dur": 464, 
                            "type": "note", 
                            "channel": 2
                        }
                    ]
                ], 
                [
                    62354, 
                    [
                        {
                            "pitch": 82, 
                            "t0": 62354, 
                            "v": 104, 
                            "dur": 54, 
                            "type": "note", 
                            "channel": 2
                        }
                    ]
                ], 
                [
                    63137, 
                    [
                        {
                            "pitch": 79, 
                            "t0": 63137, 
                            "v": 68, 
                            "dur": 428, 
                            "type": "note", 
                            "channel": 2
                        }
                    ]
                ], 
                [
                    63550, 
                    [
                        {
                            "pitch": 82, 
                            "t0": 63550, 
                            "v": 112, 
                            "dur": 401, 
                            "type": "note", 
                            "channel": 2
                        }
                    ]
                ], 
                [
                    63937, 
                    [
                        {
                            "pitch": 84, 
                            "t0": 63937, 
                            "v": 35, 
                            "dur": 1166, 
                            "type": "note", 
                            "channel": 2
                        }
                    ]
                ], 
                [
                    65732, 
                    [
                        {
                            "pitch": 84, 
                            "t0": 65732, 
                            "v": 88, 
                            "dur": 47, 
                            "type": "note", 
                            "channel": 2
                        }
                    ]
                ], 
                [
                    65774, 
                    [
                        {
                            "pitch": 82, 
                            "t0": 65774, 
                            "v": 120, 
                            "dur": 35, 
                            "type": "note", 
                            "channel": 2
                        }
                    ]
                ], 
                [
                    65799, 
                    [
                        {
                            "pitch": 84, 
                            "t0": 65799, 
                            "v": 80, 
                            "dur": 337, 
                            "type": "note", 
                            "channel": 2
                        }
                    ]
                ], 
                [
                    66118, 
                    [
                        {
                            "pitch": 82, 
                            "t0": 66118, 
                            "v": 120, 
                            "dur": 391, 
                            "type": "note", 
                            "channel": 2
                        }
                    ]
                ], 
                [
                    66508, 
                    [
                        {
                            "pitch": 79, 
                            "t0": 66508, 
                            "v": 68, 
                            "dur": 114, 
                            "type": "note", 
                            "channel": 2
                        }
                    ]
                ], 
                [
                    66631, 
                    [
                        {
                            "pitch": 78, 
                            "t0": 66631, 
                            "v": 112, 
                            "dur": 118, 
                            "type": "note", 
                            "channel": 2
                        }
                    ]
                ], 
                [
                    67276, 
                    [
                        {
                            "pitch": 79, 
                            "t0": 67276, 
                            "v": 92, 
                            "dur": 798, 
                            "type": "note", 
                            "channel": 2
                        }
                    ]
                ], 
                [
                    68059, 
                    [
                        {
                            "pitch": 77, 
                            "t0": 68059, 
                            "v": 68, 
                            "dur": 46, 
                            "type": "note", 
                            "channel": 2
                        }
                    ]
                ], 
                [
                    68593, 
                    [
                        {
                            "pitch": 72, 
                            "t0": 68593, 
                            "v": 48, 
                            "dur": 596, 
                            "type": "note", 
                            "channel": 2
                        }
                    ]
                ], 
                [
                    69617, 
                    [
                        {
                            "pitch": 75, 
                            "t0": 69617, 
                            "v": 88, 
                            "dur": 135, 
                            "type": "note", 
                            "channel": 2
                        }
                    ]
                ], 
                [
                    69751, 
                    [
                        {
                            "pitch": 77, 
                            "t0": 69751, 
                            "v": 100, 
                            "dur": 518, 
                            "type": "note", 
                            "channel": 2
                        }
                    ]
                ], 
                [
                    70276, 
                    [
                        {
                            "pitch": 79, 
                            "t0": 70276, 
                            "v": 100, 
                            "dur": 352, 
                            "type": "note", 
                            "channel": 2
                        }
                    ]
                ], 
                [
                    70622, 
                    [
                        {
                            "pitch": 77, 
                            "t0": 70622, 
                            "v": 104, 
                            "dur": 518, 
                            "type": "note", 
                            "channel": 2
                        }
                    ]
                ], 
                [
                    71150, 
                    [
                        {
                            "pitch": 79, 
                            "t0": 71150, 
                            "v": 56, 
                            "dur": 62, 
                            "type": "note", 
                            "channel": 2
                        }
                    ]
                ], 
                [
                    71302, 
                    [
                        {
                            "pitch": 82, 
                            "t0": 71302, 
                            "v": 108, 
                            "dur": 1027, 
                            "type": "note", 
                            "channel": 2
                        }
                    ]
                ], 
                [
                    73732, 
                    [
                        {
                            "pitch": 89, 
                            "t0": 73732, 
                            "v": 96, 
                            "dur": 273, 
                            "type": "note", 
                            "channel": 2
                        }
                    ]
                ], 
                [
                    73982, 
                    [
                        {
                            "pitch": 87, 
                            "t0": 73982, 
                            "v": 108, 
                            "dur": 124, 
                            "type": "note", 
                            "channel": 2
                        }
                    ]
                ], 
                [
                    74104, 
                    [
                        {
                            "pitch": 84, 
                            "t0": 74104, 
                            "v": 108, 
                            "dur": 261, 
                            "type": "note", 
                            "channel": 2
                        }
                    ]
                ], 
                [
                    74359, 
                    [
                        {
                            "pitch": 89, 
                            "t0": 74359, 
                            "v": 108, 
                            "dur": 388, 
                            "type": "note", 
                            "channel": 2
                        }
                    ]
                ], 
                [
                    74726, 
                    [
                        {
                            "pitch": 87, 
                            "t0": 74726, 
                            "v": 116, 
                            "dur": 383, 
                            "type": "note", 
                            "channel": 2
                        }
                    ]
                ], 
                [
                    75100, 
                    [
                        {
                            "pitch": 84, 
                            "t0": 75100, 
                            "v": 112, 
                            "dur": 1375, 
                            "type": "note", 
                            "channel": 2
                        }
                    ]
                ], 
                [
                    77291, 
                    [
                        {
                            "pitch": 84, 
                            "t0": 77291, 
                            "v": 96, 
                            "dur": 385, 
                            "type": "note", 
                            "channel": 2
                        }
                    ]
                ], 
                [
                    77669, 
                    [
                        {
                            "pitch": 82, 
                            "t0": 77669, 
                            "v": 108, 
                            "dur": 177, 
                            "type": "note", 
                            "channel": 2
                        }
                    ]
                ], 
                [
                    78066, 
                    [
                        {
                            "pitch": 79, 
                            "t0": 78066, 
                            "v": 88, 
                            "dur": 404, 
                            "type": "note", 
                            "channel": 2
                        }
                    ]
                ], 
                [
                    78453, 
                    [
                        {
                            "pitch": 77, 
                            "t0": 78453, 
                            "v": 84, 
                            "dur": 68, 
                            "type": "note", 
                            "channel": 2
                        }
                    ]
                ], 
                [
                    78854, 
                    [
                        {
                            "pitch": 77, 
                            "t0": 78854, 
                            "v": 84, 
                            "dur": 249, 
                            "type": "note", 
                            "channel": 2
                        }
                    ]
                ], 
                [
                    79088, 
                    [
                        {
                            "pitch": 75, 
                            "t0": 79088, 
                            "v": 112, 
                            "dur": 134, 
                            "type": "note", 
                            "channel": 2
                        }
                    ]
                ], 
                [
                    79227, 
                    [
                        {
                            "pitch": 72, 
                            "t0": 79227, 
                            "v": 84, 
                            "dur": 806, 
                            "type": "note", 
                            "channel": 2
                        }
                    ]
                ], 
                [
                    81173, 
                    [
                        {
                            "pitch": 79, 
                            "t0": 81173, 
                            "v": 68, 
                            "dur": 277, 
                            "type": "note", 
                            "channel": 2
                        }
                    ]
                ], 
                [
                    81418, 
                    [
                        {
                            "pitch": 77, 
                            "t0": 81418, 
                            "v": 108, 
                            "dur": 143, 
                            "type": "note", 
                            "channel": 2
                        }
                    ]
                ], 
                [
                    81548, 
                    [
                        {
                            "pitch": 75, 
                            "t0": 81548, 
                            "v": 112, 
                            "dur": 114, 
                            "type": "note", 
                            "channel": 2
                        }
                    ]
                ], 
                [
                    81669, 
                    [
                        {
                            "pitch": 77, 
                            "t0": 81669, 
                            "v": 92, 
                            "dur": 79, 
                            "type": "note", 
                            "channel": 2
                        }
                    ]
                ], 
                [
                    81790, 
                    [
                        {
                            "pitch": 77, 
                            "t0": 81790, 
                            "v": 100, 
                            "dur": 291, 
                            "type": "note", 
                            "channel": 2
                        }
                    ]
                ], 
                [
                    82069, 
                    [
                        {
                            "pitch": 75, 
                            "t0": 82069, 
                            "v": 116, 
                            "dur": 371, 
                            "type": "note", 
                            "channel": 2
                        }
                    ]
                ], 
                [
                    82431, 
                    [
                        {
                            "pitch": 77, 
                            "t0": 82431, 
                            "v": 84, 
                            "dur": 118, 
                            "type": "note", 
                            "channel": 2
                        }
                    ]
                ], 
                [
                    82565, 
                    [
                        {
                            "pitch": 77, 
                            "t0": 82565, 
                            "v": 92, 
                            "dur": 2328, 
                            "type": "note", 
                            "channel": 2
                        }
                    ]
                ]
            ], 
            "instruments": [
                75
            ], 
            "tMax": 82565, 
            "channels": [
                2
            ], 
            "instrument": 75, 
            "numNotes": 90, 
            "type": "TrackObj"
        }, 
        {
            "trackName": "Flute Echo", 
            "seq": [
                [
                    0, 
                    [
                        {
                            "instrument": 75, 
                            "type": "programChange", 
                            "t0": 0, 
                            "channel": 5
                        }
                    ]
                ], 
                [
                    6720, 
                    [
                        {
                            "instrument": 75, 
                            "type": "programChange", 
                            "t0": 6720, 
                            "channel": 5
                        }
                    ]
                ], 
                [
                    7466, 
                    [
                        {
                            "pitch": 77, 
                            "t0": 7466, 
                            "v": 78, 
                            "dur": 1066, 
                            "type": "note", 
                            "channel": 5
                        }
                    ]
                ], 
                [
                    8490, 
                    [
                        {
                            "pitch": 75, 
                            "t0": 8490, 
                            "v": 88, 
                            "dur": 1071, 
                            "type": "note", 
                            "channel": 5
                        }
                    ]
                ], 
                [
                    9540, 
                    [
                        {
                            "pitch": 72, 
                            "t0": 9540, 
                            "v": 88, 
                            "dur": 1137, 
                            "type": "note", 
                            "channel": 5
                        }
                    ]
                ], 
                [
                    11638, 
                    [
                        {
                            "pitch": 77, 
                            "t0": 11638, 
                            "v": 88, 
                            "dur": 1066, 
                            "type": "note", 
                            "channel": 5
                        }
                    ]
                ], 
                [
                    12667, 
                    [
                        {
                            "pitch": 75, 
                            "t0": 12667, 
                            "v": 95, 
                            "dur": 1077, 
                            "type": "note", 
                            "channel": 5
                        }
                    ]
                ], 
                [
                    13717, 
                    [
                        {
                            "pitch": 77, 
                            "t0": 13717, 
                            "v": 71, 
                            "dur": 1180, 
                            "type": "note", 
                            "channel": 5
                        }
                    ]
                ], 
                [
                    23028, 
                    [
                        {
                            "pitch": 77, 
                            "t0": 23028, 
                            "v": 102, 
                            "dur": 1032, 
                            "type": "note", 
                            "channel": 5
                        }
                    ]
                ], 
                [
                    24017, 
                    [
                        {
                            "pitch": 75, 
                            "t0": 24017, 
                            "v": 98, 
                            "dur": 1068, 
                            "type": "note", 
                            "channel": 5
                        }
                    ]
                ], 
                [
                    25055, 
                    [
                        {
                            "pitch": 72, 
                            "t0": 25055, 
                            "v": 91, 
                            "dur": 1163, 
                            "type": "note", 
                            "channel": 5
                        }
                    ]
                ], 
                [
                    27138, 
                    [
                        {
                            "pitch": 77, 
                            "t0": 27138, 
                            "v": 78, 
                            "dur": 1029, 
                            "type": "note", 
                            "channel": 5
                        }
                    ]
                ], 
                [
                    28131, 
                    [
                        {
                            "pitch": 75, 
                            "t0": 28131, 
                            "v": 85, 
                            "dur": 1124, 
                            "type": "note", 
                            "channel": 5
                        }
                    ]
                ], 
                [
                    29232, 
                    [
                        {
                            "pitch": 77, 
                            "t0": 29232, 
                            "v": 85, 
                            "dur": 1140, 
                            "type": "note", 
                            "channel": 5
                        }
                    ]
                ], 
                [
                    39110, 
                    [
                        {
                            "pitch": 89, 
                            "t0": 39110, 
                            "v": 91, 
                            "dur": 1006, 
                            "type": "note", 
                            "channel": 5
                        }
                    ]
                ], 
                [
                    40079, 
                    [
                        {
                            "pitch": 87, 
                            "t0": 40079, 
                            "v": 74, 
                            "dur": 63, 
                            "type": "note", 
                            "channel": 5
                        }
                    ]
                ], 
                [
                    40139, 
                    [
                        {
                            "pitch": 84, 
                            "t0": 40139, 
                            "v": 91, 
                            "dur": 930, 
                            "type": "note", 
                            "channel": 5
                        }
                    ]
                ], 
                [
                    40992, 
                    [
                        {
                            "pitch": 82, 
                            "t0": 40992, 
                            "v": 51, 
                            "dur": 776, 
                            "type": "note", 
                            "channel": 5
                        }
                    ]
                ], 
                [
                    41756, 
                    [
                        {
                            "pitch": 79, 
                            "t0": 41756, 
                            "v": 68, 
                            "dur": 440, 
                            "type": "note", 
                            "channel": 5
                        }
                    ]
                ], 
                [
                    42569, 
                    [
                        {
                            "pitch": 89, 
                            "t0": 42569, 
                            "v": 98, 
                            "dur": 1304, 
                            "type": "note", 
                            "channel": 5
                        }
                    ]
                ], 
                [
                    43848, 
                    [
                        {
                            "pitch": 87, 
                            "t0": 43848, 
                            "v": 74, 
                            "dur": 358, 
                            "type": "note", 
                            "channel": 5
                        }
                    ]
                ], 
                [
                    44192, 
                    [
                        {
                            "pitch": 84, 
                            "t0": 44192, 
                            "v": 78, 
                            "dur": 1263, 
                            "type": "note", 
                            "channel": 5
                        }
                    ]
                ], 
                [
                    46586, 
                    [
                        {
                            "pitch": 84, 
                            "t0": 46586, 
                            "v": 95, 
                            "dur": 264, 
                            "type": "note", 
                            "channel": 5
                        }
                    ]
                ], 
                [
                    46829, 
                    [
                        {
                            "pitch": 82, 
                            "t0": 46829, 
                            "v": 102, 
                            "dur": 116, 
                            "type": "note", 
                            "channel": 5
                        }
                    ]
                ], 
                [
                    46948, 
                    [
                        {
                            "pitch": 79, 
                            "t0": 46948, 
                            "v": 91, 
                            "dur": 807, 
                            "type": "note", 
                            "channel": 5
                        }
                    ]
                ], 
                [
                    48323, 
                    [
                        {
                            "pitch": 84, 
                            "t0": 48323, 
                            "v": 81, 
                            "dur": 44, 
                            "type": "note", 
                            "channel": 5
                        }
                    ]
                ], 
                [
                    48368, 
                    [
                        {
                            "pitch": 82, 
                            "t0": 48368, 
                            "v": 102, 
                            "dur": 49, 
                            "type": "note", 
                            "channel": 5
                        }
                    ]
                ], 
                [
                    48420, 
                    [
                        {
                            "pitch": 79, 
                            "t0": 48420, 
                            "v": 91, 
                            "dur": 71, 
                            "type": "note", 
                            "channel": 5
                        }
                    ]
                ], 
                [
                    48483, 
                    [
                        {
                            "pitch": 84, 
                            "t0": 48483, 
                            "v": 85, 
                            "dur": 976, 
                            "type": "note", 
                            "channel": 5
                        }
                    ]
                ], 
                [
                    49439, 
                    [
                        {
                            "pitch": 82, 
                            "t0": 49439, 
                            "v": 61, 
                            "dur": 40, 
                            "type": "note", 
                            "channel": 5
                        }
                    ]
                ], 
                [
                    49975, 
                    [
                        {
                            "pitch": 82, 
                            "t0": 49975, 
                            "v": 98, 
                            "dur": 257, 
                            "type": "note", 
                            "channel": 5
                        }
                    ]
                ], 
                [
                    50223, 
                    [
                        {
                            "pitch": 79, 
                            "t0": 50223, 
                            "v": 74, 
                            "dur": 107, 
                            "type": "note", 
                            "channel": 5
                        }
                    ]
                ], 
                [
                    50352, 
                    [
                        {
                            "pitch": 77, 
                            "t0": 50352, 
                            "v": 88, 
                            "dur": 797, 
                            "type": "note", 
                            "channel": 5
                        }
                    ]
                ], 
                [
                    51137, 
                    [
                        {
                            "pitch": 75, 
                            "t0": 51137, 
                            "v": 95, 
                            "dur": 240, 
                            "type": "note", 
                            "channel": 5
                        }
                    ]
                ], 
                [
                    51371, 
                    [
                        {
                            "pitch": 72, 
                            "t0": 51371, 
                            "v": 98, 
                            "dur": 269, 
                            "type": "note", 
                            "channel": 5
                        }
                    ]
                ], 
                [
                    51663, 
                    [
                        {
                            "pitch": 77, 
                            "t0": 51663, 
                            "v": 85, 
                            "dur": 1078, 
                            "type": "note", 
                            "channel": 5
                        }
                    ]
                ], 
                [
                    53735, 
                    [
                        {
                            "pitch": 89, 
                            "t0": 53735, 
                            "v": 105, 
                            "dur": 985, 
                            "type": "note", 
                            "channel": 5
                        }
                    ]
                ], 
                [
                    55046, 
                    [
                        {
                            "pitch": 89, 
                            "t0": 55046, 
                            "v": 98, 
                            "dur": 389, 
                            "type": "note", 
                            "channel": 5
                        }
                    ]
                ], 
                [
                    55410, 
                    [
                        {
                            "pitch": 87, 
                            "t0": 55410, 
                            "v": 91, 
                            "dur": 106, 
                            "type": "note", 
                            "channel": 5
                        }
                    ]
                ], 
                [
                    55534, 
                    [
                        {
                            "pitch": 84, 
                            "t0": 55534, 
                            "v": 85, 
                            "dur": 273, 
                            "type": "note", 
                            "channel": 5
                        }
                    ]
                ], 
                [
                    55799, 
                    [
                        {
                            "pitch": 87, 
                            "t0": 55799, 
                            "v": 85, 
                            "dur": 278, 
                            "type": "note", 
                            "channel": 5
                        }
                    ]
                ], 
                [
                    56072, 
                    [
                        {
                            "pitch": 84, 
                            "t0": 56072, 
                            "v": 91, 
                            "dur": 48, 
                            "type": "note", 
                            "channel": 5
                        }
                    ]
                ], 
                [
                    56723, 
                    [
                        {
                            "pitch": 89, 
                            "t0": 56723, 
                            "v": 71, 
                            "dur": 287, 
                            "type": "note", 
                            "channel": 5
                        }
                    ]
                ], 
                [
                    56973, 
                    [
                        {
                            "pitch": 87, 
                            "t0": 56973, 
                            "v": 95, 
                            "dur": 134, 
                            "type": "note", 
                            "channel": 5
                        }
                    ]
                ], 
                [
                    57096, 
                    [
                        {
                            "pitch": 84, 
                            "t0": 57096, 
                            "v": 95, 
                            "dur": 274, 
                            "type": "note", 
                            "channel": 5
                        }
                    ]
                ], 
                [
                    57361, 
                    [
                        {
                            "pitch": 87, 
                            "t0": 57361, 
                            "v": 98, 
                            "dur": 273, 
                            "type": "note", 
                            "channel": 5
                        }
                    ]
                ], 
                [
                    57626, 
                    [
                        {
                            "pitch": 84, 
                            "t0": 57626, 
                            "v": 88, 
                            "dur": 60, 
                            "type": "note", 
                            "channel": 5
                        }
                    ]
                ], 
                [
                    58023, 
                    [
                        {
                            "pitch": 89, 
                            "t0": 58023, 
                            "v": 95, 
                            "dur": 561, 
                            "type": "note", 
                            "channel": 5
                        }
                    ]
                ], 
                [
                    58585, 
                    [
                        {
                            "pitch": 84, 
                            "t0": 58585, 
                            "v": 71, 
                            "dur": 49, 
                            "type": "note", 
                            "channel": 5
                        }
                    ]
                ], 
                [
                    58647, 
                    [
                        {
                            "pitch": 87, 
                            "t0": 58647, 
                            "v": 98, 
                            "dur": 1490, 
                            "type": "note", 
                            "channel": 5
                        }
                    ]
                ], 
                [
                    60977, 
                    [
                        {
                            "pitch": 89, 
                            "t0": 60977, 
                            "v": 38, 
                            "dur": 210, 
                            "type": "note", 
                            "channel": 5
                        }
                    ]
                ], 
                [
                    61927, 
                    [
                        {
                            "pitch": 84, 
                            "t0": 61927, 
                            "v": 81, 
                            "dur": 464, 
                            "type": "note", 
                            "channel": 5
                        }
                    ]
                ], 
                [
                    62377, 
                    [
                        {
                            "pitch": 82, 
                            "t0": 62377, 
                            "v": 88, 
                            "dur": 54, 
                            "type": "note", 
                            "channel": 5
                        }
                    ]
                ], 
                [
                    63160, 
                    [
                        {
                            "pitch": 79, 
                            "t0": 63160, 
                            "v": 57, 
                            "dur": 428, 
                            "type": "note", 
                            "channel": 5
                        }
                    ]
                ], 
                [
                    63573, 
                    [
                        {
                            "pitch": 82, 
                            "t0": 63573, 
                            "v": 95, 
                            "dur": 401, 
                            "type": "note", 
                            "channel": 5
                        }
                    ]
                ], 
                [
                    63960, 
                    [
                        {
                            "pitch": 84, 
                            "t0": 63960, 
                            "v": 29, 
                            "dur": 1166, 
                            "type": "note", 
                            "channel": 5
                        }
                    ]
                ], 
                [
                    65755, 
                    [
                        {
                            "pitch": 84, 
                            "t0": 65755, 
                            "v": 74, 
                            "dur": 47, 
                            "type": "note", 
                            "channel": 5
                        }
                    ]
                ], 
                [
                    65797, 
                    [
                        {
                            "pitch": 82, 
                            "t0": 65797, 
                            "v": 102, 
                            "dur": 35, 
                            "type": "note", 
                            "channel": 5
                        }
                    ]
                ], 
                [
                    65822, 
                    [
                        {
                            "pitch": 84, 
                            "t0": 65822, 
                            "v": 68, 
                            "dur": 337, 
                            "type": "note", 
                            "channel": 5
                        }
                    ]
                ], 
                [
                    66141, 
                    [
                        {
                            "pitch": 82, 
                            "t0": 66141, 
                            "v": 102, 
                            "dur": 391, 
                            "type": "note", 
                            "channel": 5
                        }
                    ]
                ], 
                [
                    66531, 
                    [
                        {
                            "pitch": 79, 
                            "t0": 66531, 
                            "v": 57, 
                            "dur": 114, 
                            "type": "note", 
                            "channel": 5
                        }
                    ]
                ], 
                [
                    66654, 
                    [
                        {
                            "pitch": 78, 
                            "t0": 66654, 
                            "v": 95, 
                            "dur": 118, 
                            "type": "note", 
                            "channel": 5
                        }
                    ]
                ], 
                [
                    67299, 
                    [
                        {
                            "pitch": 79, 
                            "t0": 67299, 
                            "v": 78, 
                            "dur": 798, 
                            "type": "note", 
                            "channel": 5
                        }
                    ]
                ], 
                [
                    68082, 
                    [
                        {
                            "pitch": 77, 
                            "t0": 68082, 
                            "v": 57, 
                            "dur": 46, 
                            "type": "note", 
                            "channel": 5
                        }
                    ]
                ], 
                [
                    68616, 
                    [
                        {
                            "pitch": 72, 
                            "t0": 68616, 
                            "v": 40, 
                            "dur": 596, 
                            "type": "note", 
                            "channel": 5
                        }
                    ]
                ], 
                [
                    69640, 
                    [
                        {
                            "pitch": 75, 
                            "t0": 69640, 
                            "v": 74, 
                            "dur": 135, 
                            "type": "note", 
                            "channel": 5
                        }
                    ]
                ], 
                [
                    69774, 
                    [
                        {
                            "pitch": 77, 
                            "t0": 69774, 
                            "v": 85, 
                            "dur": 518, 
                            "type": "note", 
                            "channel": 5
                        }
                    ]
                ], 
                [
                    70299, 
                    [
                        {
                            "pitch": 79, 
                            "t0": 70299, 
                            "v": 85, 
                            "dur": 352, 
                            "type": "note", 
                            "channel": 5
                        }
                    ]
                ], 
                [
                    70645, 
                    [
                        {
                            "pitch": 77, 
                            "t0": 70645, 
                            "v": 88, 
                            "dur": 518, 
                            "type": "note", 
                            "channel": 5
                        }
                    ]
                ], 
                [
                    71173, 
                    [
                        {
                            "pitch": 79, 
                            "t0": 71173, 
                            "v": 47, 
                            "dur": 62, 
                            "type": "note", 
                            "channel": 5
                        }
                    ]
                ], 
                [
                    71325, 
                    [
                        {
                            "pitch": 82, 
                            "t0": 71325, 
                            "v": 91, 
                            "dur": 1027, 
                            "type": "note", 
                            "channel": 5
                        }
                    ]
                ], 
                [
                    73755, 
                    [
                        {
                            "pitch": 89, 
                            "t0": 73755, 
                            "v": 81, 
                            "dur": 273, 
                            "type": "note", 
                            "channel": 5
                        }
                    ]
                ], 
                [
                    74005, 
                    [
                        {
                            "pitch": 87, 
                            "t0": 74005, 
                            "v": 91, 
                            "dur": 124, 
                            "type": "note", 
                            "channel": 5
                        }
                    ]
                ], 
                [
                    74127, 
                    [
                        {
                            "pitch": 84, 
                            "t0": 74127, 
                            "v": 91, 
                            "dur": 261, 
                            "type": "note", 
                            "channel": 5
                        }
                    ]
                ], 
                [
                    74382, 
                    [
                        {
                            "pitch": 89, 
                            "t0": 74382, 
                            "v": 91, 
                            "dur": 388, 
                            "type": "note", 
                            "channel": 5
                        }
                    ]
                ], 
                [
                    74749, 
                    [
                        {
                            "pitch": 87, 
                            "t0": 74749, 
                            "v": 98, 
                            "dur": 383, 
                            "type": "note", 
                            "channel": 5
                        }
                    ]
                ], 
                [
                    75123, 
                    [
                        {
                            "pitch": 84, 
                            "t0": 75123, 
                            "v": 95, 
                            "dur": 1375, 
                            "type": "note", 
                            "channel": 5
                        }
                    ]
                ], 
                [
                    77314, 
                    [
                        {
                            "pitch": 84, 
                            "t0": 77314, 
                            "v": 81, 
                            "dur": 385, 
                            "type": "note", 
                            "channel": 5
                        }
                    ]
                ], 
                [
                    77692, 
                    [
                        {
                            "pitch": 82, 
                            "t0": 77692, 
                            "v": 91, 
                            "dur": 177, 
                            "type": "note", 
                            "channel": 5
                        }
                    ]
                ], 
                [
                    78089, 
                    [
                        {
                            "pitch": 79, 
                            "t0": 78089, 
                            "v": 74, 
                            "dur": 404, 
                            "type": "note", 
                            "channel": 5
                        }
                    ]
                ], 
                [
                    78476, 
                    [
                        {
                            "pitch": 77, 
                            "t0": 78476, 
                            "v": 71, 
                            "dur": 68, 
                            "type": "note", 
                            "channel": 5
                        }
                    ]
                ], 
                [
                    78877, 
                    [
                        {
                            "pitch": 77, 
                            "t0": 78877, 
                            "v": 71, 
                            "dur": 249, 
                            "type": "note", 
                            "channel": 5
                        }
                    ]
                ], 
                [
                    79111, 
                    [
                        {
                            "pitch": 75, 
                            "t0": 79111, 
                            "v": 95, 
                            "dur": 134, 
                            "type": "note", 
                            "channel": 5
                        }
                    ]
                ], 
                [
                    79250, 
                    [
                        {
                            "pitch": 72, 
                            "t0": 79250, 
                            "v": 71, 
                            "dur": 806, 
                            "type": "note", 
                            "channel": 5
                        }
                    ]
                ], 
                [
                    81196, 
                    [
                        {
                            "pitch": 79, 
                            "t0": 81196, 
                            "v": 57, 
                            "dur": 277, 
                            "type": "note", 
                            "channel": 5
                        }
                    ]
                ], 
                [
                    81441, 
                    [
                        {
                            "pitch": 77, 
                            "t0": 81441, 
                            "v": 91, 
                            "dur": 143, 
                            "type": "note", 
                            "channel": 5
                        }
                    ]
                ], 
                [
                    81571, 
                    [
                        {
                            "pitch": 75, 
                            "t0": 81571, 
                            "v": 95, 
                            "dur": 114, 
                            "type": "note", 
                            "channel": 5
                        }
                    ]
                ], 
                [
                    81692, 
                    [
                        {
                            "pitch": 77, 
                            "t0": 81692, 
                            "v": 78, 
                            "dur": 79, 
                            "type": "note", 
                            "channel": 5
                        }
                    ]
                ], 
                [
                    81813, 
                    [
                        {
                            "pitch": 77, 
                            "t0": 81813, 
                            "v": 85, 
                            "dur": 291, 
                            "type": "note", 
                            "channel": 5
                        }
                    ]
                ], 
                [
                    82092, 
                    [
                        {
                            "pitch": 75, 
                            "t0": 82092, 
                            "v": 98, 
                            "dur": 371, 
                            "type": "note", 
                            "channel": 5
                        }
                    ]
                ], 
                [
                    82454, 
                    [
                        {
                            "pitch": 77, 
                            "t0": 82454, 
                            "v": 71, 
                            "dur": 118, 
                            "type": "note", 
                            "channel": 5
                        }
                    ]
                ], 
                [
                    82588, 
                    [
                        {
                            "pitch": 77, 
                            "t0": 82588, 
                            "v": 78, 
                            "dur": 2328, 
                            "type": "note", 
                            "channel": 5
                        }
                    ]
                ]
            ], 
            "instruments": [
                75
            ], 
            "tMax": 82588, 
            "channels": [
                5
            ], 
            "instrument": 75, 
            "numNotes": 90, 
            "type": "TrackObj"
        }, 
        {
            "trackName": "Pizzicato Strings", 
            "seq": [
                [
                    0, 
                    [
                        {
                            "instrument": 45, 
                            "type": "programChange", 
                            "t0": 0, 
                            "channel": 3
                        }
                    ]
                ], 
                [
                    15360, 
                    [
                        {
                            "instrument": 45, 
                            "type": "programChange", 
                            "t0": 15360, 
                            "channel": 3
                        }
                    ]
                ], 
                [
                    15990, 
                    [
                        {
                            "pitch": 41, 
                            "t0": 15990, 
                            "v": 76, 
                            "dur": 125, 
                            "type": "note", 
                            "channel": 3
                        }
                    ]
                ], 
                [
                    15996, 
                    [
                        {
                            "pitch": 65, 
                            "t0": 15996, 
                            "v": 120, 
                            "dur": 142, 
                            "type": "note", 
                            "channel": 3
                        }
                    ]
                ], 
                [
                    16103, 
                    [
                        {
                            "pitch": 39, 
                            "t0": 16103, 
                            "v": 108, 
                            "dur": 126, 
                            "type": "note", 
                            "channel": 3
                        }
                    ]
                ], 
                [
                    16128, 
                    [
                        {
                            "pitch": 63, 
                            "t0": 16128, 
                            "v": 112, 
                            "dur": 141, 
                            "type": "note", 
                            "channel": 3
                        }
                    ]
                ], 
                [
                    16239, 
                    [
                        {
                            "pitch": 41, 
                            "t0": 16239, 
                            "v": 42, 
                            "dur": 114, 
                            "type": "note", 
                            "channel": 3
                        }
                    ]
                ], 
                [
                    16265, 
                    [
                        {
                            "pitch": 65, 
                            "t0": 16265, 
                            "v": 108, 
                            "dur": 116, 
                            "type": "note", 
                            "channel": 3
                        }
                    ]
                ], 
                [
                    16512, 
                    [
                        {
                            "pitch": 43, 
                            "t0": 16512, 
                            "v": 76, 
                            "dur": 101, 
                            "type": "note", 
                            "channel": 3
                        }
                    ]
                ], 
                [
                    16516, 
                    [
                        {
                            "pitch": 67, 
                            "t0": 16516, 
                            "v": 108, 
                            "dur": 81, 
                            "type": "note", 
                            "channel": 3
                        }
                    ]
                ], 
                [
                    16764, 
                    [
                        {
                            "pitch": 41, 
                            "t0": 16764, 
                            "v": 68, 
                            "dur": 135, 
                            "type": "note", 
                            "channel": 3
                        }
                    ]
                ], 
                [
                    16776, 
                    [
                        {
                            "pitch": 65, 
                            "t0": 16776, 
                            "v": 108, 
                            "dur": 137, 
                            "type": "note", 
                            "channel": 3
                        }
                    ]
                ], 
                [
                    16892, 
                    [
                        {
                            "pitch": 39, 
                            "t0": 16892, 
                            "v": 80, 
                            "dur": 122, 
                            "type": "note", 
                            "channel": 3
                        }
                    ]
                ], 
                [
                    16906, 
                    [
                        {
                            "pitch": 63, 
                            "t0": 16906, 
                            "v": 104, 
                            "dur": 122, 
                            "type": "note", 
                            "channel": 3
                        }
                    ]
                ], 
                [
                    17014, 
                    [
                        {
                            "pitch": 41, 
                            "t0": 17014, 
                            "v": 49, 
                            "dur": 262, 
                            "type": "note", 
                            "channel": 3
                        }
                    ]
                ], 
                [
                    17039, 
                    [
                        {
                            "pitch": 65, 
                            "t0": 17039, 
                            "v": 100, 
                            "dur": 177, 
                            "type": "note", 
                            "channel": 3
                        }
                    ]
                ], 
                [
                    17291, 
                    [
                        {
                            "pitch": 36, 
                            "t0": 17291, 
                            "v": 84, 
                            "dur": 120, 
                            "type": "note", 
                            "channel": 3
                        }
                    ]
                ], 
                [
                    17292, 
                    [
                        {
                            "pitch": 60, 
                            "t0": 17292, 
                            "v": 112, 
                            "dur": 97, 
                            "type": "note", 
                            "channel": 3
                        }
                    ]
                ], 
                [
                    17541, 
                    [
                        {
                            "pitch": 41, 
                            "t0": 17541, 
                            "v": 92, 
                            "dur": 129, 
                            "type": "note", 
                            "channel": 3
                        }
                    ]
                ], 
                [
                    17549, 
                    [
                        {
                            "pitch": 65, 
                            "t0": 17549, 
                            "v": 116, 
                            "dur": 129, 
                            "type": "note", 
                            "channel": 3
                        }
                    ]
                ], 
                [
                    17662, 
                    [
                        {
                            "pitch": 39, 
                            "t0": 17662, 
                            "v": 100, 
                            "dur": 138, 
                            "type": "note", 
                            "channel": 3
                        }
                    ]
                ], 
                [
                    17672, 
                    [
                        {
                            "pitch": 63, 
                            "t0": 17672, 
                            "v": 108, 
                            "dur": 130, 
                            "type": "note", 
                            "channel": 3
                        }
                    ]
                ], 
                [
                    17799, 
                    [
                        {
                            "pitch": 41, 
                            "t0": 17799, 
                            "v": 96, 
                            "dur": 100, 
                            "type": "note", 
                            "channel": 3
                        }
                    ]
                ], 
                [
                    17804, 
                    [
                        {
                            "pitch": 65, 
                            "t0": 17804, 
                            "v": 80, 
                            "dur": 127, 
                            "type": "note", 
                            "channel": 3
                        }
                    ]
                ], 
                [
                    18056, 
                    [
                        {
                            "pitch": 67, 
                            "t0": 18056, 
                            "v": 88, 
                            "dur": 99, 
                            "type": "note", 
                            "channel": 3
                        }
                    ]
                ], 
                [
                    18057, 
                    [
                        {
                            "pitch": 43, 
                            "t0": 18057, 
                            "v": 96, 
                            "dur": 113, 
                            "type": "note", 
                            "channel": 3
                        }
                    ]
                ], 
                [
                    18303, 
                    [
                        {
                            "pitch": 41, 
                            "t0": 18303, 
                            "v": 96, 
                            "dur": 123, 
                            "type": "note", 
                            "channel": 3
                        }
                    ]
                ], 
                [
                    18311, 
                    [
                        {
                            "pitch": 65, 
                            "t0": 18311, 
                            "v": 112, 
                            "dur": 129, 
                            "type": "note", 
                            "channel": 3
                        }
                    ]
                ], 
                [
                    18413, 
                    [
                        {
                            "pitch": 39, 
                            "t0": 18413, 
                            "v": 108, 
                            "dur": 150, 
                            "type": "note", 
                            "channel": 3
                        }
                    ]
                ], 
                [
                    18436, 
                    [
                        {
                            "pitch": 63, 
                            "t0": 18436, 
                            "v": 108, 
                            "dur": 122, 
                            "type": "note", 
                            "channel": 3
                        }
                    ]
                ], 
                [
                    18555, 
                    [
                        {
                            "pitch": 41, 
                            "t0": 18555, 
                            "v": 72, 
                            "dur": 116, 
                            "type": "note", 
                            "channel": 3
                        }
                    ]
                ], 
                [
                    18561, 
                    [
                        {
                            "pitch": 65, 
                            "t0": 18561, 
                            "v": 104, 
                            "dur": 87, 
                            "type": "note", 
                            "channel": 3
                        }
                    ]
                ], 
                [
                    19589, 
                    [
                        {
                            "pitch": 65, 
                            "t0": 19589, 
                            "v": 100, 
                            "dur": 127, 
                            "type": "note", 
                            "channel": 3
                        }
                    ]
                ], 
                [
                    19590, 
                    [
                        {
                            "pitch": 41, 
                            "t0": 19590, 
                            "v": 104, 
                            "dur": 119, 
                            "type": "note", 
                            "channel": 3
                        }
                    ]
                ], 
                [
                    19694, 
                    [
                        {
                            "pitch": 39, 
                            "t0": 19694, 
                            "v": 104, 
                            "dur": 148, 
                            "type": "note", 
                            "channel": 3
                        }
                    ]
                ], 
                [
                    19709, 
                    [
                        {
                            "pitch": 63, 
                            "t0": 19709, 
                            "v": 108, 
                            "dur": 130, 
                            "type": "note", 
                            "channel": 3
                        }
                    ]
                ], 
                [
                    19852, 
                    [
                        {
                            "pitch": 41, 
                            "t0": 19852, 
                            "v": 108, 
                            "dur": 111, 
                            "type": "note", 
                            "channel": 3
                        }
                    ]
                ], 
                [
                    19853, 
                    [
                        {
                            "pitch": 65, 
                            "t0": 19853, 
                            "v": 108, 
                            "dur": 115, 
                            "type": "note", 
                            "channel": 3
                        }
                    ]
                ], 
                [
                    20106, 
                    [
                        {
                            "pitch": 43, 
                            "t0": 20106, 
                            "v": 108, 
                            "dur": 114, 
                            "type": "note", 
                            "channel": 3
                        }
                    ]
                ], 
                [
                    20111, 
                    [
                        {
                            "pitch": 67, 
                            "t0": 20111, 
                            "v": 112, 
                            "dur": 100, 
                            "type": "note", 
                            "channel": 3
                        }
                    ]
                ], 
                [
                    20350, 
                    [
                        {
                            "pitch": 41, 
                            "t0": 20350, 
                            "v": 100, 
                            "dur": 141, 
                            "type": "note", 
                            "channel": 3
                        }
                    ]
                ], 
                [
                    20360, 
                    [
                        {
                            "pitch": 65, 
                            "t0": 20360, 
                            "v": 104, 
                            "dur": 142, 
                            "type": "note", 
                            "channel": 3
                        }
                    ]
                ], 
                [
                    20474, 
                    [
                        {
                            "pitch": 39, 
                            "t0": 20474, 
                            "v": 108, 
                            "dur": 142, 
                            "type": "note", 
                            "channel": 3
                        }
                    ]
                ], 
                [
                    20488, 
                    [
                        {
                            "pitch": 63, 
                            "t0": 20488, 
                            "v": 112, 
                            "dur": 121, 
                            "type": "note", 
                            "channel": 3
                        }
                    ]
                ], 
                [
                    20618, 
                    [
                        {
                            "pitch": 65, 
                            "t0": 20618, 
                            "v": 108, 
                            "dur": 150, 
                            "type": "note", 
                            "channel": 3
                        }
                    ]
                ], 
                [
                    20620, 
                    [
                        {
                            "pitch": 41, 
                            "t0": 20620, 
                            "v": 104, 
                            "dur": 153, 
                            "type": "note", 
                            "channel": 3
                        }
                    ]
                ], 
                [
                    20880, 
                    [
                        {
                            "pitch": 36, 
                            "t0": 20880, 
                            "v": 100, 
                            "dur": 121, 
                            "type": "note", 
                            "channel": 3
                        }
                    ]
                ], 
                [
                    20885, 
                    [
                        {
                            "pitch": 60, 
                            "t0": 20885, 
                            "v": 112, 
                            "dur": 114, 
                            "type": "note", 
                            "channel": 3
                        }
                    ]
                ], 
                [
                    21122, 
                    [
                        {
                            "pitch": 41, 
                            "t0": 21122, 
                            "v": 88, 
                            "dur": 150, 
                            "type": "note", 
                            "channel": 3
                        }
                    ]
                ], 
                [
                    21131, 
                    [
                        {
                            "pitch": 65, 
                            "t0": 21131, 
                            "v": 112, 
                            "dur": 125, 
                            "type": "note", 
                            "channel": 3
                        }
                    ]
                ], 
                [
                    21255, 
                    [
                        {
                            "pitch": 39, 
                            "t0": 21255, 
                            "v": 104, 
                            "dur": 124, 
                            "type": "note", 
                            "channel": 3
                        }
                    ]
                ], 
                [
                    21256, 
                    [
                        {
                            "pitch": 63, 
                            "t0": 21256, 
                            "v": 112, 
                            "dur": 104, 
                            "type": "note", 
                            "channel": 3
                        }
                    ]
                ], 
                [
                    21382, 
                    [
                        {
                            "pitch": 41, 
                            "t0": 21382, 
                            "v": 100, 
                            "dur": 130, 
                            "type": "note", 
                            "channel": 3
                        }
                    ]
                ], 
                [
                    21386, 
                    [
                        {
                            "pitch": 65, 
                            "t0": 21386, 
                            "v": 112, 
                            "dur": 121, 
                            "type": "note", 
                            "channel": 3
                        }
                    ]
                ], 
                [
                    21636, 
                    [
                        {
                            "pitch": 43, 
                            "t0": 21636, 
                            "v": 108, 
                            "dur": 127, 
                            "type": "note", 
                            "channel": 3
                        }
                    ]
                ], 
                [
                    21641, 
                    [
                        {
                            "pitch": 67, 
                            "t0": 21641, 
                            "v": 108, 
                            "dur": 104, 
                            "type": "note", 
                            "channel": 3
                        }
                    ]
                ], 
                [
                    21895, 
                    [
                        {
                            "pitch": 41, 
                            "t0": 21895, 
                            "v": 92, 
                            "dur": 151, 
                            "type": "note", 
                            "channel": 3
                        }
                    ]
                ], 
                [
                    21912, 
                    [
                        {
                            "pitch": 65, 
                            "t0": 21912, 
                            "v": 108, 
                            "dur": 123, 
                            "type": "note", 
                            "channel": 3
                        }
                    ]
                ], 
                [
                    22020, 
                    [
                        {
                            "pitch": 39, 
                            "t0": 22020, 
                            "v": 104, 
                            "dur": 143, 
                            "type": "note", 
                            "channel": 3
                        }
                    ]
                ], 
                [
                    22026, 
                    [
                        {
                            "pitch": 63, 
                            "t0": 22026, 
                            "v": 112, 
                            "dur": 113, 
                            "type": "note", 
                            "channel": 3
                        }
                    ]
                ], 
                [
                    22154, 
                    [
                        {
                            "pitch": 41, 
                            "t0": 22154, 
                            "v": 108, 
                            "dur": 125, 
                            "type": "note", 
                            "channel": 3
                        }
                    ]
                ], 
                [
                    22156, 
                    [
                        {
                            "pitch": 65, 
                            "t0": 22156, 
                            "v": 112, 
                            "dur": 107, 
                            "type": "note", 
                            "channel": 3
                        }
                    ]
                ], 
                [
                    31488, 
                    [
                        {
                            "pitch": 41, 
                            "t0": 31488, 
                            "v": 108, 
                            "dur": 138, 
                            "type": "note", 
                            "channel": 3
                        }
                    ]
                ], 
                [
                    31490, 
                    [
                        {
                            "pitch": 65, 
                            "t0": 31490, 
                            "v": 120, 
                            "dur": 133, 
                            "type": "note", 
                            "channel": 3
                        }
                    ]
                ], 
                [
                    31610, 
                    [
                        {
                            "pitch": 39, 
                            "t0": 31610, 
                            "v": 108, 
                            "dur": 138, 
                            "type": "note", 
                            "channel": 3
                        }
                    ]
                ], 
                [
                    31619, 
                    [
                        {
                            "pitch": 63, 
                            "t0": 31619, 
                            "v": 112, 
                            "dur": 125, 
                            "type": "note", 
                            "channel": 3
                        }
                    ]
                ], 
                [
                    31741, 
                    [
                        {
                            "pitch": 41, 
                            "t0": 31741, 
                            "v": 108, 
                            "dur": 119, 
                            "type": "note", 
                            "channel": 3
                        }
                    ]
                ], 
                [
                    31745, 
                    [
                        {
                            "pitch": 65, 
                            "t0": 31745, 
                            "v": 100, 
                            "dur": 113, 
                            "type": "note", 
                            "channel": 3
                        }
                    ]
                ], 
                [
                    31992, 
                    [
                        {
                            "pitch": 43, 
                            "t0": 31992, 
                            "v": 100, 
                            "dur": 117, 
                            "type": "note", 
                            "channel": 3
                        }
                    ]
                ], 
                [
                    31995, 
                    [
                        {
                            "pitch": 67, 
                            "t0": 31995, 
                            "v": 108, 
                            "dur": 96, 
                            "type": "note", 
                            "channel": 3
                        }
                    ]
                ], 
                [
                    32241, 
                    [
                        {
                            "pitch": 41, 
                            "t0": 32241, 
                            "v": 92, 
                            "dur": 131, 
                            "type": "note", 
                            "channel": 3
                        }
                    ]
                ], 
                [
                    32245, 
                    [
                        {
                            "pitch": 65, 
                            "t0": 32245, 
                            "v": 116, 
                            "dur": 131, 
                            "type": "note", 
                            "channel": 3
                        }
                    ]
                ], 
                [
                    32356, 
                    [
                        {
                            "pitch": 39, 
                            "t0": 32356, 
                            "v": 112, 
                            "dur": 131, 
                            "type": "note", 
                            "channel": 3
                        }
                    ]
                ], 
                [
                    32369, 
                    [
                        {
                            "pitch": 63, 
                            "t0": 32369, 
                            "v": 112, 
                            "dur": 105, 
                            "type": "note", 
                            "channel": 3
                        }
                    ]
                ], 
                [
                    32494, 
                    [
                        {
                            "pitch": 41, 
                            "t0": 32494, 
                            "v": 96, 
                            "dur": 162, 
                            "type": "note", 
                            "channel": 3
                        }
                    ]
                ], 
                [
                    32500, 
                    [
                        {
                            "pitch": 65, 
                            "t0": 32500, 
                            "v": 100, 
                            "dur": 123, 
                            "type": "note", 
                            "channel": 3
                        }
                    ]
                ], 
                [
                    32752, 
                    [
                        {
                            "pitch": 36, 
                            "t0": 32752, 
                            "v": 92, 
                            "dur": 124, 
                            "type": "note", 
                            "channel": 3
                        }
                    ]
                ], 
                [
                    32753, 
                    [
                        {
                            "pitch": 60, 
                            "t0": 32753, 
                            "v": 116, 
                            "dur": 104, 
                            "type": "note", 
                            "channel": 3
                        }
                    ]
                ], 
                [
                    33005, 
                    [
                        {
                            "pitch": 41, 
                            "t0": 33005, 
                            "v": 92, 
                            "dur": 132, 
                            "type": "note", 
                            "channel": 3
                        }
                    ]
                ], 
                [
                    33009, 
                    [
                        {
                            "pitch": 65, 
                            "t0": 33009, 
                            "v": 120, 
                            "dur": 131, 
                            "type": "note", 
                            "channel": 3
                        }
                    ]
                ], 
                [
                    33124, 
                    [
                        {
                            "pitch": 39, 
                            "t0": 33124, 
                            "v": 112, 
                            "dur": 141, 
                            "type": "note", 
                            "channel": 3
                        }
                    ]
                ], 
                [
                    33134, 
                    [
                        {
                            "pitch": 63, 
                            "t0": 33134, 
                            "v": 112, 
                            "dur": 96, 
                            "type": "note", 
                            "channel": 3
                        }
                    ]
                ], 
                [
                    33258, 
                    [
                        {
                            "pitch": 41, 
                            "t0": 33258, 
                            "v": 96, 
                            "dur": 121, 
                            "type": "note", 
                            "channel": 3
                        }
                    ]
                ], 
                [
                    33262, 
                    [
                        {
                            "pitch": 65, 
                            "t0": 33262, 
                            "v": 108, 
                            "dur": 126, 
                            "type": "note", 
                            "channel": 3
                        }
                    ]
                ], 
                [
                    33528, 
                    [
                        {
                            "pitch": 67, 
                            "t0": 33528, 
                            "v": 112, 
                            "dur": 94, 
                            "type": "note", 
                            "channel": 3
                        }, 
                        {
                            "pitch": 43, 
                            "t0": 33528, 
                            "v": 104, 
                            "dur": 116, 
                            "type": "note", 
                            "channel": 3
                        }
                    ]
                ], 
                [
                    33532, 
                    [
                        {
                            "pitch": 45, 
                            "t0": 33532, 
                            "v": 96, 
                            "dur": 58, 
                            "type": "note", 
                            "channel": 3
                        }
                    ]
                ], 
                [
                    33784, 
                    [
                        {
                            "pitch": 41, 
                            "t0": 33784, 
                            "v": 96, 
                            "dur": 132, 
                            "type": "note", 
                            "channel": 3
                        }
                    ]
                ], 
                [
                    33787, 
                    [
                        {
                            "pitch": 65, 
                            "t0": 33787, 
                            "v": 120, 
                            "dur": 127, 
                            "type": "note", 
                            "channel": 3
                        }
                    ]
                ], 
                [
                    33903, 
                    [
                        {
                            "pitch": 39, 
                            "t0": 33903, 
                            "v": 112, 
                            "dur": 117, 
                            "type": "note", 
                            "channel": 3
                        }
                    ]
                ], 
                [
                    33910, 
                    [
                        {
                            "pitch": 63, 
                            "t0": 33910, 
                            "v": 108, 
                            "dur": 84, 
                            "type": "note", 
                            "channel": 3
                        }
                    ]
                ], 
                [
                    34028, 
                    [
                        {
                            "pitch": 65, 
                            "t0": 34028, 
                            "v": 112, 
                            "dur": 109, 
                            "type": "note", 
                            "channel": 3
                        }
                    ]
                ], 
                [
                    34033, 
                    [
                        {
                            "pitch": 41, 
                            "t0": 34033, 
                            "v": 104, 
                            "dur": 119, 
                            "type": "note", 
                            "channel": 3
                        }
                    ]
                ], 
                [
                    35050, 
                    [
                        {
                            "pitch": 41, 
                            "t0": 35050, 
                            "v": 112, 
                            "dur": 141, 
                            "type": "note", 
                            "channel": 3
                        }
                    ]
                ], 
                [
                    35055, 
                    [
                        {
                            "pitch": 65, 
                            "t0": 35055, 
                            "v": 116, 
                            "dur": 125, 
                            "type": "note", 
                            "channel": 3
                        }
                    ]
                ], 
                [
                    35168, 
                    [
                        {
                            "pitch": 63, 
                            "t0": 35168, 
                            "v": 104, 
                            "dur": 115, 
                            "type": "note", 
                            "channel": 3
                        }
                    ]
                ], 
                [
                    35174, 
                    [
                        {
                            "pitch": 39, 
                            "t0": 35174, 
                            "v": 112, 
                            "dur": 142, 
                            "type": "note", 
                            "channel": 3
                        }
                    ]
                ], 
                [
                    35303, 
                    [
                        {
                            "pitch": 65, 
                            "t0": 35303, 
                            "v": 112, 
                            "dur": 114, 
                            "type": "note", 
                            "channel": 3
                        }
                    ]
                ], 
                [
                    35307, 
                    [
                        {
                            "pitch": 41, 
                            "t0": 35307, 
                            "v": 112, 
                            "dur": 118, 
                            "type": "note", 
                            "channel": 3
                        }
                    ]
                ], 
                [
                    35543, 
                    [
                        {
                            "pitch": 43, 
                            "t0": 35543, 
                            "v": 112, 
                            "dur": 129, 
                            "type": "note", 
                            "channel": 3
                        }
                    ]
                ], 
                [
                    35550, 
                    [
                        {
                            "pitch": 67, 
                            "t0": 35550, 
                            "v": 124, 
                            "dur": 120, 
                            "type": "note", 
                            "channel": 3
                        }
                    ]
                ], 
                [
                    35794, 
                    [
                        {
                            "pitch": 41, 
                            "t0": 35794, 
                            "v": 104, 
                            "dur": 139, 
                            "type": "note", 
                            "channel": 3
                        }
                    ]
                ], 
                [
                    35800, 
                    [
                        {
                            "pitch": 65, 
                            "t0": 35800, 
                            "v": 108, 
                            "dur": 140, 
                            "type": "note", 
                            "channel": 3
                        }
                    ]
                ], 
                [
                    35921, 
                    [
                        {
                            "pitch": 39, 
                            "t0": 35921, 
                            "v": 112, 
                            "dur": 131, 
                            "type": "note", 
                            "channel": 3
                        }
                    ]
                ], 
                [
                    35926, 
                    [
                        {
                            "pitch": 63, 
                            "t0": 35926, 
                            "v": 112, 
                            "dur": 108, 
                            "type": "note", 
                            "channel": 3
                        }
                    ]
                ], 
                [
                    36059, 
                    [
                        {
                            "pitch": 65, 
                            "t0": 36059, 
                            "v": 112, 
                            "dur": 114, 
                            "type": "note", 
                            "channel": 3
                        }
                    ]
                ], 
                [
                    36062, 
                    [
                        {
                            "pitch": 41, 
                            "t0": 36062, 
                            "v": 112, 
                            "dur": 136, 
                            "type": "note", 
                            "channel": 3
                        }
                    ]
                ], 
                [
                    36332, 
                    [
                        {
                            "pitch": 60, 
                            "t0": 36332, 
                            "v": 116, 
                            "dur": 121, 
                            "type": "note", 
                            "channel": 3
                        }
                    ]
                ], 
                [
                    36333, 
                    [
                        {
                            "pitch": 36, 
                            "t0": 36333, 
                            "v": 108, 
                            "dur": 144, 
                            "type": "note", 
                            "channel": 3
                        }
                    ]
                ], 
                [
                    36589, 
                    [
                        {
                            "pitch": 41, 
                            "t0": 36589, 
                            "v": 104, 
                            "dur": 133, 
                            "type": "note", 
                            "channel": 3
                        }
                    ]
                ], 
                [
                    36594, 
                    [
                        {
                            "pitch": 65, 
                            "t0": 36594, 
                            "v": 112, 
                            "dur": 128, 
                            "type": "note", 
                            "channel": 3
                        }
                    ]
                ], 
                [
                    36709, 
                    [
                        {
                            "pitch": 39, 
                            "t0": 36709, 
                            "v": 104, 
                            "dur": 147, 
                            "type": "note", 
                            "channel": 3
                        }
                    ]
                ], 
                [
                    36716, 
                    [
                        {
                            "pitch": 63, 
                            "t0": 36716, 
                            "v": 112, 
                            "dur": 97, 
                            "type": "note", 
                            "channel": 3
                        }
                    ]
                ], 
                [
                    36850, 
                    [
                        {
                            "pitch": 65, 
                            "t0": 36850, 
                            "v": 120, 
                            "dur": 106, 
                            "type": "note", 
                            "channel": 3
                        }
                    ]
                ], 
                [
                    36852, 
                    [
                        {
                            "pitch": 41, 
                            "t0": 36852, 
                            "v": 108, 
                            "dur": 114, 
                            "type": "note", 
                            "channel": 3
                        }
                    ]
                ], 
                [
                    37108, 
                    [
                        {
                            "pitch": 43, 
                            "t0": 37108, 
                            "v": 108, 
                            "dur": 122, 
                            "type": "note", 
                            "channel": 3
                        }
                    ]
                ], 
                [
                    37109, 
                    [
                        {
                            "pitch": 67, 
                            "t0": 37109, 
                            "v": 112, 
                            "dur": 111, 
                            "type": "note", 
                            "channel": 3
                        }
                    ]
                ], 
                [
                    37111, 
                    [
                        {
                            "pitch": 45, 
                            "t0": 37111, 
                            "v": 104, 
                            "dur": 62, 
                            "type": "note", 
                            "channel": 3
                        }
                    ]
                ], 
                [
                    37354, 
                    [
                        {
                            "pitch": 41, 
                            "t0": 37354, 
                            "v": 84, 
                            "dur": 135, 
                            "type": "note", 
                            "channel": 3
                        }
                    ]
                ], 
                [
                    37361, 
                    [
                        {
                            "pitch": 65, 
                            "t0": 37361, 
                            "v": 124, 
                            "dur": 127, 
                            "type": "note", 
                            "channel": 3
                        }
                    ]
                ], 
                [
                    37478, 
                    [
                        {
                            "pitch": 39, 
                            "t0": 37478, 
                            "v": 112, 
                            "dur": 146, 
                            "type": "note", 
                            "channel": 3
                        }
                    ]
                ], 
                [
                    37485, 
                    [
                        {
                            "pitch": 63, 
                            "t0": 37485, 
                            "v": 112, 
                            "dur": 108, 
                            "type": "note", 
                            "channel": 3
                        }
                    ]
                ], 
                [
                    37619, 
                    [
                        {
                            "pitch": 65, 
                            "t0": 37619, 
                            "v": 112, 
                            "dur": 109, 
                            "type": "note", 
                            "channel": 3
                        }
                    ]
                ], 
                [
                    37620, 
                    [
                        {
                            "pitch": 41, 
                            "t0": 37620, 
                            "v": 112, 
                            "dur": 110, 
                            "type": "note", 
                            "channel": 3
                        }
                    ]
                ], 
                [
                    38397, 
                    [
                        {
                            "pitch": 41, 
                            "t0": 38397, 
                            "v": 112, 
                            "dur": 141, 
                            "type": "note", 
                            "channel": 3
                        }
                    ]
                ], 
                [
                    38400, 
                    [
                        {
                            "pitch": 65, 
                            "t0": 38400, 
                            "v": 120, 
                            "dur": 128, 
                            "type": "note", 
                            "channel": 3
                        }
                    ]
                ], 
                [
                    38516, 
                    [
                        {
                            "pitch": 63, 
                            "t0": 38516, 
                            "v": 108, 
                            "dur": 127, 
                            "type": "note", 
                            "channel": 3
                        }
                    ]
                ], 
                [
                    38521, 
                    [
                        {
                            "pitch": 39, 
                            "t0": 38521, 
                            "v": 116, 
                            "dur": 138, 
                            "type": "note", 
                            "channel": 3
                        }
                    ]
                ], 
                [
                    38654, 
                    [
                        {
                            "pitch": 41, 
                            "t0": 38654, 
                            "v": 112, 
                            "dur": 160, 
                            "type": "note", 
                            "channel": 3
                        }
                    ]
                ], 
                [
                    38658, 
                    [
                        {
                            "pitch": 65, 
                            "t0": 38658, 
                            "v": 112, 
                            "dur": 138, 
                            "type": "note", 
                            "channel": 3
                        }
                    ]
                ], 
                [
                    38916, 
                    [
                        {
                            "pitch": 43, 
                            "t0": 38916, 
                            "v": 112, 
                            "dur": 126, 
                            "type": "note", 
                            "channel": 3
                        }
                    ]
                ], 
                [
                    38917, 
                    [
                        {
                            "pitch": 67, 
                            "t0": 38917, 
                            "v": 116, 
                            "dur": 114, 
                            "type": "note", 
                            "channel": 3
                        }
                    ]
                ], 
                [
                    39163, 
                    [
                        {
                            "pitch": 41, 
                            "t0": 39163, 
                            "v": 108, 
                            "dur": 139, 
                            "type": "note", 
                            "channel": 3
                        }
                    ]
                ], 
                [
                    39164, 
                    [
                        {
                            "pitch": 65, 
                            "t0": 39164, 
                            "v": 108, 
                            "dur": 130, 
                            "type": "note", 
                            "channel": 3
                        }
                    ]
                ], 
                [
                    39284, 
                    [
                        {
                            "pitch": 39, 
                            "t0": 39284, 
                            "v": 112, 
                            "dur": 145, 
                            "type": "note", 
                            "channel": 3
                        }
                    ]
                ], 
                [
                    39287, 
                    [
                        {
                            "pitch": 63, 
                            "t0": 39287, 
                            "v": 116, 
                            "dur": 109, 
                            "type": "note", 
                            "channel": 3
                        }
                    ]
                ], 
                [
                    39415, 
                    [
                        {
                            "pitch": 65, 
                            "t0": 39415, 
                            "v": 112, 
                            "dur": 166, 
                            "type": "note", 
                            "channel": 3
                        }, 
                        {
                            "pitch": 41, 
                            "t0": 39415, 
                            "v": 116, 
                            "dur": 216, 
                            "type": "note", 
                            "channel": 3
                        }
                    ]
                ], 
                [
                    39667, 
                    [
                        {
                            "pitch": 60, 
                            "t0": 39667, 
                            "v": 108, 
                            "dur": 127, 
                            "type": "note", 
                            "channel": 3
                        }
                    ]
                ], 
                [
                    39673, 
                    [
                        {
                            "pitch": 36, 
                            "t0": 39673, 
                            "v": 108, 
                            "dur": 151, 
                            "type": "note", 
                            "channel": 3
                        }
                    ]
                ], 
                [
                    39941, 
                    [
                        {
                            "pitch": 65, 
                            "t0": 39941, 
                            "v": 124, 
                            "dur": 127, 
                            "type": "note", 
                            "channel": 3
                        }
                    ]
                ], 
                [
                    39943, 
                    [
                        {
                            "pitch": 41, 
                            "t0": 39943, 
                            "v": 112, 
                            "dur": 126, 
                            "type": "note", 
                            "channel": 3
                        }
                    ]
                ], 
                [
                    40057, 
                    [
                        {
                            "pitch": 39, 
                            "t0": 40057, 
                            "v": 112, 
                            "dur": 136, 
                            "type": "note", 
                            "channel": 3
                        }
                    ]
                ], 
                [
                    40061, 
                    [
                        {
                            "pitch": 63, 
                            "t0": 40061, 
                            "v": 108, 
                            "dur": 107, 
                            "type": "note", 
                            "channel": 3
                        }
                    ]
                ], 
                [
                    40192, 
                    [
                        {
                            "pitch": 41, 
                            "t0": 40192, 
                            "v": 108, 
                            "dur": 132, 
                            "type": "note", 
                            "channel": 3
                        }
                    ]
                ], 
                [
                    40196, 
                    [
                        {
                            "pitch": 65, 
                            "t0": 40196, 
                            "v": 112, 
                            "dur": 116, 
                            "type": "note", 
                            "channel": 3
                        }
                    ]
                ], 
                [
                    40457, 
                    [
                        {
                            "pitch": 43, 
                            "t0": 40457, 
                            "v": 116, 
                            "dur": 123, 
                            "type": "note", 
                            "channel": 3
                        }
                    ]
                ], 
                [
                    40459, 
                    [
                        {
                            "pitch": 67, 
                            "t0": 40459, 
                            "v": 120, 
                            "dur": 96, 
                            "type": "note", 
                            "channel": 3
                        }
                    ]
                ], 
                [
                    40707, 
                    [
                        {
                            "pitch": 41, 
                            "t0": 40707, 
                            "v": 112, 
                            "dur": 142, 
                            "type": "note", 
                            "channel": 3
                        }
                    ]
                ], 
                [
                    40712, 
                    [
                        {
                            "pitch": 65, 
                            "t0": 40712, 
                            "v": 116, 
                            "dur": 142, 
                            "type": "note", 
                            "channel": 3
                        }
                    ]
                ], 
                [
                    40835, 
                    [
                        {
                            "pitch": 39, 
                            "t0": 40835, 
                            "v": 116, 
                            "dur": 134, 
                            "type": "note", 
                            "channel": 3
                        }
                    ]
                ], 
                [
                    40843, 
                    [
                        {
                            "pitch": 63, 
                            "t0": 40843, 
                            "v": 116, 
                            "dur": 98, 
                            "type": "note", 
                            "channel": 3
                        }
                    ]
                ], 
                [
                    40965, 
                    [
                        {
                            "pitch": 41, 
                            "t0": 40965, 
                            "v": 104, 
                            "dur": 115, 
                            "type": "note", 
                            "channel": 3
                        }
                    ]
                ], 
                [
                    40974, 
                    [
                        {
                            "pitch": 65, 
                            "t0": 40974, 
                            "v": 104, 
                            "dur": 92, 
                            "type": "note", 
                            "channel": 3
                        }
                    ]
                ], 
                [
                    42309, 
                    [
                        {
                            "pitch": 65, 
                            "t0": 42309, 
                            "v": 120, 
                            "dur": 125, 
                            "type": "note", 
                            "channel": 3
                        }
                    ]
                ], 
                [
                    42310, 
                    [
                        {
                            "pitch": 41, 
                            "t0": 42310, 
                            "v": 108, 
                            "dur": 135, 
                            "type": "note", 
                            "channel": 3
                        }
                    ]
                ], 
                [
                    42423, 
                    [
                        {
                            "pitch": 63, 
                            "t0": 42423, 
                            "v": 112, 
                            "dur": 110, 
                            "type": "note", 
                            "channel": 3
                        }
                    ]
                ], 
                [
                    42430, 
                    [
                        {
                            "pitch": 39, 
                            "t0": 42430, 
                            "v": 116, 
                            "dur": 131, 
                            "type": "note", 
                            "channel": 3
                        }
                    ]
                ], 
                [
                    42554, 
                    [
                        {
                            "pitch": 41, 
                            "t0": 42554, 
                            "v": 108, 
                            "dur": 153, 
                            "type": "note", 
                            "channel": 3
                        }
                    ]
                ], 
                [
                    42556, 
                    [
                        {
                            "pitch": 65, 
                            "t0": 42556, 
                            "v": 112, 
                            "dur": 132, 
                            "type": "note", 
                            "channel": 3
                        }
                    ]
                ], 
                [
                    42809, 
                    [
                        {
                            "pitch": 67, 
                            "t0": 42809, 
                            "v": 112, 
                            "dur": 103, 
                            "type": "note", 
                            "channel": 3
                        }, 
                        {
                            "pitch": 43, 
                            "t0": 42809, 
                            "v": 112, 
                            "dur": 117, 
                            "type": "note", 
                            "channel": 3
                        }
                    ]
                ], 
                [
                    43052, 
                    [
                        {
                            "pitch": 41, 
                            "t0": 43052, 
                            "v": 108, 
                            "dur": 130, 
                            "type": "note", 
                            "channel": 3
                        }
                    ]
                ], 
                [
                    43063, 
                    [
                        {
                            "pitch": 65, 
                            "t0": 43063, 
                            "v": 124, 
                            "dur": 127, 
                            "type": "note", 
                            "channel": 3
                        }
                    ]
                ], 
                [
                    43166, 
                    [
                        {
                            "pitch": 39, 
                            "t0": 43166, 
                            "v": 108, 
                            "dur": 142, 
                            "type": "note", 
                            "channel": 3
                        }
                    ]
                ], 
                [
                    43181, 
                    [
                        {
                            "pitch": 63, 
                            "t0": 43181, 
                            "v": 116, 
                            "dur": 101, 
                            "type": "note", 
                            "channel": 3
                        }
                    ]
                ], 
                [
                    43304, 
                    [
                        {
                            "pitch": 41, 
                            "t0": 43304, 
                            "v": 108, 
                            "dur": 167, 
                            "type": "note", 
                            "channel": 3
                        }
                    ]
                ], 
                [
                    43309, 
                    [
                        {
                            "pitch": 65, 
                            "t0": 43309, 
                            "v": 108, 
                            "dur": 113, 
                            "type": "note", 
                            "channel": 3
                        }
                    ]
                ], 
                [
                    43560, 
                    [
                        {
                            "pitch": 36, 
                            "t0": 43560, 
                            "v": 112, 
                            "dur": 152, 
                            "type": "note", 
                            "channel": 3
                        }
                    ]
                ], 
                [
                    43561, 
                    [
                        {
                            "pitch": 60, 
                            "t0": 43561, 
                            "v": 112, 
                            "dur": 117, 
                            "type": "note", 
                            "channel": 3
                        }
                    ]
                ], 
                [
                    43820, 
                    [
                        {
                            "pitch": 41, 
                            "t0": 43820, 
                            "v": 112, 
                            "dur": 129, 
                            "type": "note", 
                            "channel": 3
                        }
                    ]
                ], 
                [
                    43821, 
                    [
                        {
                            "pitch": 65, 
                            "t0": 43821, 
                            "v": 116, 
                            "dur": 117, 
                            "type": "note", 
                            "channel": 3
                        }
                    ]
                ], 
                [
                    43941, 
                    [
                        {
                            "pitch": 63, 
                            "t0": 43941, 
                            "v": 116, 
                            "dur": 96, 
                            "type": "note", 
                            "channel": 3
                        }
                    ]
                ], 
                [
                    43945, 
                    [
                        {
                            "pitch": 39, 
                            "t0": 43945, 
                            "v": 112, 
                            "dur": 120, 
                            "type": "note", 
                            "channel": 3
                        }
                    ]
                ], 
                [
                    44074, 
                    [
                        {
                            "pitch": 65, 
                            "t0": 44074, 
                            "v": 120, 
                            "dur": 120, 
                            "type": "note", 
                            "channel": 3
                        }
                    ]
                ], 
                [
                    44077, 
                    [
                        {
                            "pitch": 41, 
                            "t0": 44077, 
                            "v": 120, 
                            "dur": 127, 
                            "type": "note", 
                            "channel": 3
                        }
                    ]
                ], 
                [
                    44323, 
                    [
                        {
                            "pitch": 43, 
                            "t0": 44323, 
                            "v": 116, 
                            "dur": 119, 
                            "type": "note", 
                            "channel": 3
                        }
                    ]
                ], 
                [
                    44326, 
                    [
                        {
                            "pitch": 67, 
                            "t0": 44326, 
                            "v": 116, 
                            "dur": 108, 
                            "type": "note", 
                            "channel": 3
                        }
                    ]
                ], 
                [
                    44567, 
                    [
                        {
                            "pitch": 65, 
                            "t0": 44567, 
                            "v": 112, 
                            "dur": 129, 
                            "type": "note", 
                            "channel": 3
                        }
                    ]
                ], 
                [
                    44569, 
                    [
                        {
                            "pitch": 41, 
                            "t0": 44569, 
                            "v": 116, 
                            "dur": 133, 
                            "type": "note", 
                            "channel": 3
                        }
                    ]
                ], 
                [
                    44688, 
                    [
                        {
                            "pitch": 39, 
                            "t0": 44688, 
                            "v": 116, 
                            "dur": 128, 
                            "type": "note", 
                            "channel": 3
                        }
                    ]
                ], 
                [
                    44691, 
                    [
                        {
                            "pitch": 63, 
                            "t0": 44691, 
                            "v": 112, 
                            "dur": 98, 
                            "type": "note", 
                            "channel": 3
                        }
                    ]
                ], 
                [
                    44821, 
                    [
                        {
                            "pitch": 65, 
                            "t0": 44821, 
                            "v": 116, 
                            "dur": 121, 
                            "type": "note", 
                            "channel": 3
                        }
                    ]
                ], 
                [
                    44822, 
                    [
                        {
                            "pitch": 41, 
                            "t0": 44822, 
                            "v": 100, 
                            "dur": 142, 
                            "type": "note", 
                            "channel": 3
                        }
                    ]
                ], 
                [
                    46441, 
                    [
                        {
                            "pitch": 65, 
                            "t0": 46441, 
                            "v": 104, 
                            "dur": 113, 
                            "type": "note", 
                            "channel": 3
                        }, 
                        {
                            "pitch": 41, 
                            "t0": 46441, 
                            "v": 112, 
                            "dur": 144, 
                            "type": "note", 
                            "channel": 3
                        }
                    ]
                ], 
                [
                    46556, 
                    [
                        {
                            "pitch": 63, 
                            "t0": 46556, 
                            "v": 104, 
                            "dur": 96, 
                            "type": "note", 
                            "channel": 3
                        }
                    ]
                ], 
                [
                    46573, 
                    [
                        {
                            "pitch": 39, 
                            "t0": 46573, 
                            "v": 108, 
                            "dur": 60, 
                            "type": "note", 
                            "channel": 3
                        }
                    ]
                ], 
                [
                    46699, 
                    [
                        {
                            "pitch": 65, 
                            "t0": 46699, 
                            "v": 116, 
                            "dur": 127, 
                            "type": "note", 
                            "channel": 3
                        }, 
                        {
                            "pitch": 41, 
                            "t0": 46699, 
                            "v": 96, 
                            "dur": 139, 
                            "type": "note", 
                            "channel": 3
                        }
                    ]
                ], 
                [
                    46954, 
                    [
                        {
                            "pitch": 43, 
                            "t0": 46954, 
                            "v": 108, 
                            "dur": 135, 
                            "type": "note", 
                            "channel": 3
                        }
                    ]
                ], 
                [
                    46956, 
                    [
                        {
                            "pitch": 67, 
                            "t0": 46956, 
                            "v": 112, 
                            "dur": 102, 
                            "type": "note", 
                            "channel": 3
                        }
                    ]
                ], 
                [
                    47203, 
                    [
                        {
                            "pitch": 41, 
                            "t0": 47203, 
                            "v": 112, 
                            "dur": 145, 
                            "type": "note", 
                            "channel": 3
                        }
                    ]
                ], 
                [
                    47211, 
                    [
                        {
                            "pitch": 65, 
                            "t0": 47211, 
                            "v": 120, 
                            "dur": 130, 
                            "type": "note", 
                            "channel": 3
                        }
                    ]
                ], 
                [
                    47336, 
                    [
                        {
                            "pitch": 39, 
                            "t0": 47336, 
                            "v": 112, 
                            "dur": 117, 
                            "type": "note", 
                            "channel": 3
                        }
                    ]
                ], 
                [
                    47339, 
                    [
                        {
                            "pitch": 63, 
                            "t0": 47339, 
                            "v": 112, 
                            "dur": 87, 
                            "type": "note", 
                            "channel": 3
                        }
                    ]
                ], 
                [
                    47469, 
                    [
                        {
                            "pitch": 41, 
                            "t0": 47469, 
                            "v": 104, 
                            "dur": 152, 
                            "type": "note", 
                            "channel": 3
                        }
                    ]
                ], 
                [
                    47471, 
                    [
                        {
                            "pitch": 65, 
                            "t0": 47471, 
                            "v": 112, 
                            "dur": 113, 
                            "type": "note", 
                            "channel": 3
                        }
                    ]
                ], 
                [
                    47723, 
                    [
                        {
                            "pitch": 60, 
                            "t0": 47723, 
                            "v": 116, 
                            "dur": 134, 
                            "type": "note", 
                            "channel": 3
                        }
                    ]
                ], 
                [
                    47724, 
                    [
                        {
                            "pitch": 36, 
                            "t0": 47724, 
                            "v": 100, 
                            "dur": 152, 
                            "type": "note", 
                            "channel": 3
                        }
                    ]
                ], 
                [
                    47980, 
                    [
                        {
                            "pitch": 41, 
                            "t0": 47980, 
                            "v": 112, 
                            "dur": 126, 
                            "type": "note", 
                            "channel": 3
                        }
                    ]
                ], 
                [
                    47983, 
                    [
                        {
                            "pitch": 65, 
                            "t0": 47983, 
                            "v": 120, 
                            "dur": 115, 
                            "type": "note", 
                            "channel": 3
                        }
                    ]
                ], 
                [
                    48102, 
                    [
                        {
                            "pitch": 39, 
                            "t0": 48102, 
                            "v": 112, 
                            "dur": 118, 
                            "type": "note", 
                            "channel": 3
                        }
                    ]
                ], 
                [
                    48106, 
                    [
                        {
                            "pitch": 63, 
                            "t0": 48106, 
                            "v": 120, 
                            "dur": 90, 
                            "type": "note", 
                            "channel": 3
                        }
                    ]
                ], 
                [
                    48239, 
                    [
                        {
                            "pitch": 41, 
                            "t0": 48239, 
                            "v": 112, 
                            "dur": 126, 
                            "type": "note", 
                            "channel": 3
                        }
                    ]
                ], 
                [
                    48240, 
                    [
                        {
                            "pitch": 65, 
                            "t0": 48240, 
                            "v": 116, 
                            "dur": 100, 
                            "type": "note", 
                            "channel": 3
                        }
                    ]
                ], 
                [
                    48482, 
                    [
                        {
                            "pitch": 67, 
                            "t0": 48482, 
                            "v": 116, 
                            "dur": 117, 
                            "type": "note", 
                            "channel": 3
                        }
                    ]
                ], 
                [
                    48484, 
                    [
                        {
                            "pitch": 43, 
                            "t0": 48484, 
                            "v": 120, 
                            "dur": 118, 
                            "type": "note", 
                            "channel": 3
                        }
                    ]
                ], 
                [
                    48730, 
                    [
                        {
                            "pitch": 65, 
                            "t0": 48730, 
                            "v": 112, 
                            "dur": 119, 
                            "type": "note", 
                            "channel": 3
                        }, 
                        {
                            "pitch": 41, 
                            "t0": 48730, 
                            "v": 108, 
                            "dur": 124, 
                            "type": "note", 
                            "channel": 3
                        }
                    ]
                ], 
                [
                    48847, 
                    [
                        {
                            "pitch": 39, 
                            "t0": 48847, 
                            "v": 112, 
                            "dur": 134, 
                            "type": "note", 
                            "channel": 3
                        }
                    ]
                ], 
                [
                    48858, 
                    [
                        {
                            "pitch": 63, 
                            "t0": 48858, 
                            "v": 120, 
                            "dur": 83, 
                            "type": "note", 
                            "channel": 3
                        }
                    ]
                ], 
                [
                    48977, 
                    [
                        {
                            "pitch": 41, 
                            "t0": 48977, 
                            "v": 112, 
                            "dur": 133, 
                            "type": "note", 
                            "channel": 3
                        }
                    ]
                ], 
                [
                    48982, 
                    [
                        {
                            "pitch": 65, 
                            "t0": 48982, 
                            "v": 116, 
                            "dur": 101, 
                            "type": "note", 
                            "channel": 3
                        }
                    ]
                ], 
                [
                    50091, 
                    [
                        {
                            "pitch": 41, 
                            "t0": 50091, 
                            "v": 108, 
                            "dur": 158, 
                            "type": "note", 
                            "channel": 3
                        }
                    ]
                ], 
                [
                    50092, 
                    [
                        {
                            "pitch": 65, 
                            "t0": 50092, 
                            "v": 116, 
                            "dur": 146, 
                            "type": "note", 
                            "channel": 3
                        }
                    ]
                ], 
                [
                    50223, 
                    [
                        {
                            "pitch": 63, 
                            "t0": 50223, 
                            "v": 104, 
                            "dur": 87, 
                            "type": "note", 
                            "channel": 3
                        }
                    ]
                ], 
                [
                    50232, 
                    [
                        {
                            "pitch": 39, 
                            "t0": 50232, 
                            "v": 116, 
                            "dur": 120, 
                            "type": "note", 
                            "channel": 3
                        }
                    ]
                ], 
                [
                    50352, 
                    [
                        {
                            "pitch": 41, 
                            "t0": 50352, 
                            "v": 108, 
                            "dur": 137, 
                            "type": "note", 
                            "channel": 3
                        }
                    ]
                ], 
                [
                    50353, 
                    [
                        {
                            "pitch": 65, 
                            "t0": 50353, 
                            "v": 108, 
                            "dur": 125, 
                            "type": "note", 
                            "channel": 3
                        }
                    ]
                ], 
                [
                    50600, 
                    [
                        {
                            "pitch": 43, 
                            "t0": 50600, 
                            "v": 116, 
                            "dur": 125, 
                            "type": "note", 
                            "channel": 3
                        }
                    ]
                ], 
                [
                    50604, 
                    [
                        {
                            "pitch": 67, 
                            "t0": 50604, 
                            "v": 108, 
                            "dur": 109, 
                            "type": "note", 
                            "channel": 3
                        }
                    ]
                ], 
                [
                    50842, 
                    [
                        {
                            "pitch": 41, 
                            "t0": 50842, 
                            "v": 108, 
                            "dur": 146, 
                            "type": "note", 
                            "channel": 3
                        }
                    ]
                ], 
                [
                    50853, 
                    [
                        {
                            "pitch": 65, 
                            "t0": 50853, 
                            "v": 120, 
                            "dur": 127, 
                            "type": "note", 
                            "channel": 3
                        }
                    ]
                ], 
                [
                    50971, 
                    [
                        {
                            "pitch": 63, 
                            "t0": 50971, 
                            "v": 112, 
                            "dur": 96, 
                            "type": "note", 
                            "channel": 3
                        }
                    ]
                ], 
                [
                    50973, 
                    [
                        {
                            "pitch": 39, 
                            "t0": 50973, 
                            "v": 116, 
                            "dur": 126, 
                            "type": "note", 
                            "channel": 3
                        }
                    ]
                ], 
                [
                    51100, 
                    [
                        {
                            "pitch": 65, 
                            "t0": 51100, 
                            "v": 108, 
                            "dur": 127, 
                            "type": "note", 
                            "channel": 3
                        }, 
                        {
                            "pitch": 41, 
                            "t0": 51100, 
                            "v": 108, 
                            "dur": 182, 
                            "type": "note", 
                            "channel": 3
                        }
                    ]
                ], 
                [
                    51354, 
                    [
                        {
                            "pitch": 60, 
                            "t0": 51354, 
                            "v": 116, 
                            "dur": 146, 
                            "type": "note", 
                            "channel": 3
                        }
                    ]
                ], 
                [
                    51357, 
                    [
                        {
                            "pitch": 36, 
                            "t0": 51357, 
                            "v": 108, 
                            "dur": 158, 
                            "type": "note", 
                            "channel": 3
                        }
                    ]
                ], 
                [
                    51617, 
                    [
                        {
                            "pitch": 41, 
                            "t0": 51617, 
                            "v": 108, 
                            "dur": 145, 
                            "type": "note", 
                            "channel": 3
                        }
                    ]
                ], 
                [
                    51620, 
                    [
                        {
                            "pitch": 65, 
                            "t0": 51620, 
                            "v": 120, 
                            "dur": 129, 
                            "type": "note", 
                            "channel": 3
                        }
                    ]
                ], 
                [
                    51749, 
                    [
                        {
                            "pitch": 63, 
                            "t0": 51749, 
                            "v": 112, 
                            "dur": 87, 
                            "type": "note", 
                            "channel": 3
                        }
                    ]
                ], 
                [
                    51753, 
                    [
                        {
                            "pitch": 39, 
                            "t0": 51753, 
                            "v": 112, 
                            "dur": 116, 
                            "type": "note", 
                            "channel": 3
                        }
                    ]
                ], 
                [
                    51884, 
                    [
                        {
                            "pitch": 65, 
                            "t0": 51884, 
                            "v": 116, 
                            "dur": 117, 
                            "type": "note", 
                            "channel": 3
                        }
                    ]
                ], 
                [
                    51885, 
                    [
                        {
                            "pitch": 41, 
                            "t0": 51885, 
                            "v": 116, 
                            "dur": 139, 
                            "type": "note", 
                            "channel": 3
                        }
                    ]
                ], 
                [
                    52134, 
                    [
                        {
                            "pitch": 67, 
                            "t0": 52134, 
                            "v": 112, 
                            "dur": 115, 
                            "type": "note", 
                            "channel": 3
                        }
                    ]
                ], 
                [
                    52140, 
                    [
                        {
                            "pitch": 43, 
                            "t0": 52140, 
                            "v": 112, 
                            "dur": 125, 
                            "type": "note", 
                            "channel": 3
                        }
                    ]
                ], 
                [
                    52385, 
                    [
                        {
                            "pitch": 41, 
                            "t0": 52385, 
                            "v": 112, 
                            "dur": 131, 
                            "type": "note", 
                            "channel": 3
                        }
                    ]
                ], 
                [
                    52389, 
                    [
                        {
                            "pitch": 65, 
                            "t0": 52389, 
                            "v": 112, 
                            "dur": 122, 
                            "type": "note", 
                            "channel": 3
                        }
                    ]
                ], 
                [
                    52508, 
                    [
                        {
                            "pitch": 39, 
                            "t0": 52508, 
                            "v": 112, 
                            "dur": 137, 
                            "type": "note", 
                            "channel": 3
                        }
                    ]
                ], 
                [
                    52509, 
                    [
                        {
                            "pitch": 63, 
                            "t0": 52509, 
                            "v": 112, 
                            "dur": 95, 
                            "type": "note", 
                            "channel": 3
                        }
                    ]
                ], 
                [
                    52641, 
                    [
                        {
                            "pitch": 65, 
                            "t0": 52641, 
                            "v": 116, 
                            "dur": 124, 
                            "type": "note", 
                            "channel": 3
                        }, 
                        {
                            "pitch": 41, 
                            "t0": 52641, 
                            "v": 112, 
                            "dur": 147, 
                            "type": "note", 
                            "channel": 3
                        }
                    ]
                ]
            ], 
            "instruments": [
                45
            ], 
            "tMax": 52641, 
            "channels": [
                3
            ], 
            "instrument": 45, 
            "numNotes": 242, 
            "type": "TrackObj"
        }, 
        {
            "trackName": "Brightness", 
            "seq": [
                [
                    0, 
                    [
                        {
                            "instrument": 100, 
                            "type": "programChange", 
                            "t0": 0, 
                            "channel": 4
                        }
                    ]
                ], 
                [
                    2215, 
                    [
                        {
                            "instrument": 100, 
                            "type": "programChange", 
                            "t0": 2215, 
                            "channel": 4
                        }, 
                        {
                            "pitch": 77, 
                            "t0": 2215, 
                            "v": 49, 
                            "dur": 137, 
                            "type": "note", 
                            "channel": 4
                        }
                    ]
                ], 
                [
                    2339, 
                    [
                        {
                            "pitch": 75, 
                            "t0": 2339, 
                            "v": 97, 
                            "dur": 133, 
                            "type": "note", 
                            "channel": 4
                        }
                    ]
                ], 
                [
                    2484, 
                    [
                        {
                            "pitch": 77, 
                            "t0": 2484, 
                            "v": 84, 
                            "dur": 273, 
                            "type": "note", 
                            "channel": 4
                        }
                    ]
                ], 
                [
                    2748, 
                    [
                        {
                            "pitch": 79, 
                            "t0": 2748, 
                            "v": 55, 
                            "dur": 224, 
                            "type": "note", 
                            "channel": 4
                        }
                    ]
                ], 
                [
                    3008, 
                    [
                        {
                            "pitch": 77, 
                            "t0": 3008, 
                            "v": 61, 
                            "dur": 131, 
                            "type": "note", 
                            "channel": 4
                        }
                    ]
                ], 
                [
                    3127, 
                    [
                        {
                            "pitch": 75, 
                            "t0": 3127, 
                            "v": 97, 
                            "dur": 149, 
                            "type": "note", 
                            "channel": 4
                        }
                    ]
                ], 
                [
                    3258, 
                    [
                        {
                            "pitch": 77, 
                            "t0": 3258, 
                            "v": 78, 
                            "dur": 252, 
                            "type": "note", 
                            "channel": 4
                        }
                    ]
                ], 
                [
                    3501, 
                    [
                        {
                            "pitch": 72, 
                            "t0": 3501, 
                            "v": 90, 
                            "dur": 239, 
                            "type": "note", 
                            "channel": 4
                        }
                    ]
                ], 
                [
                    3770, 
                    [
                        {
                            "pitch": 77, 
                            "t0": 3770, 
                            "v": 90, 
                            "dur": 131, 
                            "type": "note", 
                            "channel": 4
                        }
                    ]
                ], 
                [
                    3881, 
                    [
                        {
                            "pitch": 75, 
                            "t0": 3881, 
                            "v": 92, 
                            "dur": 134, 
                            "type": "note", 
                            "channel": 4
                        }
                    ]
                ], 
                [
                    4008, 
                    [
                        {
                            "pitch": 77, 
                            "t0": 4008, 
                            "v": 65, 
                            "dur": 252, 
                            "type": "note", 
                            "channel": 4
                        }
                    ]
                ], 
                [
                    4278, 
                    [
                        {
                            "pitch": 79, 
                            "t0": 4278, 
                            "v": 67, 
                            "dur": 215, 
                            "type": "note", 
                            "channel": 4
                        }
                    ]
                ], 
                [
                    4525, 
                    [
                        {
                            "pitch": 77, 
                            "t0": 4525, 
                            "v": 45, 
                            "dur": 155, 
                            "type": "note", 
                            "channel": 4
                        }
                    ]
                ], 
                [
                    4667, 
                    [
                        {
                            "pitch": 75, 
                            "t0": 4667, 
                            "v": 89, 
                            "dur": 124, 
                            "type": "note", 
                            "channel": 4
                        }
                    ]
                ], 
                [
                    4794, 
                    [
                        {
                            "pitch": 77, 
                            "t0": 4794, 
                            "v": 66, 
                            "dur": 1245, 
                            "type": "note", 
                            "channel": 4
                        }
                    ]
                ], 
                [
                    6090, 
                    [
                        {
                            "pitch": 77, 
                            "t0": 6090, 
                            "v": 69, 
                            "dur": 129, 
                            "type": "note", 
                            "channel": 4
                        }
                    ]
                ], 
                [
                    6208, 
                    [
                        {
                            "pitch": 75, 
                            "t0": 6208, 
                            "v": 70, 
                            "dur": 137, 
                            "type": "note", 
                            "channel": 4
                        }
                    ]
                ], 
                [
                    6344, 
                    [
                        {
                            "pitch": 77, 
                            "t0": 6344, 
                            "v": 64, 
                            "dur": 249, 
                            "type": "note", 
                            "channel": 4
                        }
                    ]
                ], 
                [
                    6605, 
                    [
                        {
                            "pitch": 79, 
                            "t0": 6605, 
                            "v": 48, 
                            "dur": 283, 
                            "type": "note", 
                            "channel": 4
                        }
                    ]
                ], 
                [
                    6876, 
                    [
                        {
                            "pitch": 77, 
                            "t0": 6876, 
                            "v": 59, 
                            "dur": 126, 
                            "type": "note", 
                            "channel": 4
                        }
                    ]
                ], 
                [
                    6986, 
                    [
                        {
                            "pitch": 75, 
                            "t0": 6986, 
                            "v": 63, 
                            "dur": 149, 
                            "type": "note", 
                            "channel": 4
                        }
                    ]
                ], 
                [
                    7119, 
                    [
                        {
                            "pitch": 77, 
                            "t0": 7119, 
                            "v": 50, 
                            "dur": 269, 
                            "type": "note", 
                            "channel": 4
                        }
                    ]
                ], 
                [
                    7385, 
                    [
                        {
                            "pitch": 72, 
                            "t0": 7385, 
                            "v": 57, 
                            "dur": 230, 
                            "type": "note", 
                            "channel": 4
                        }
                    ]
                ], 
                [
                    7640, 
                    [
                        {
                            "pitch": 77, 
                            "t0": 7640, 
                            "v": 59, 
                            "dur": 156, 
                            "type": "note", 
                            "channel": 4
                        }
                    ]
                ], 
                [
                    7774, 
                    [
                        {
                            "pitch": 75, 
                            "t0": 7774, 
                            "v": 60, 
                            "dur": 146, 
                            "type": "note", 
                            "channel": 4
                        }
                    ]
                ], 
                [
                    7901, 
                    [
                        {
                            "pitch": 77, 
                            "t0": 7901, 
                            "v": 50, 
                            "dur": 257, 
                            "type": "note", 
                            "channel": 4
                        }
                    ]
                ], 
                [
                    8156, 
                    [
                        {
                            "pitch": 79, 
                            "t0": 8156, 
                            "v": 38, 
                            "dur": 292, 
                            "type": "note", 
                            "channel": 4
                        }
                    ]
                ], 
                [
                    8424, 
                    [
                        {
                            "pitch": 77, 
                            "t0": 8424, 
                            "v": 49, 
                            "dur": 134, 
                            "type": "note", 
                            "channel": 4
                        }
                    ]
                ], 
                [
                    8542, 
                    [
                        {
                            "pitch": 75, 
                            "t0": 8542, 
                            "v": 48, 
                            "dur": 118, 
                            "type": "note", 
                            "channel": 4
                        }
                    ]
                ], 
                [
                    8656, 
                    [
                        {
                            "pitch": 77, 
                            "t0": 8656, 
                            "v": 33, 
                            "dur": 1106, 
                            "type": "note", 
                            "channel": 4
                        }
                    ]
                ], 
                [
                    15996, 
                    [
                        {
                            "pitch": 65, 
                            "t0": 15996, 
                            "v": 120, 
                            "dur": 142, 
                            "type": "note", 
                            "channel": 4
                        }
                    ]
                ], 
                [
                    16128, 
                    [
                        {
                            "pitch": 63, 
                            "t0": 16128, 
                            "v": 112, 
                            "dur": 141, 
                            "type": "note", 
                            "channel": 4
                        }
                    ]
                ], 
                [
                    16265, 
                    [
                        {
                            "pitch": 65, 
                            "t0": 16265, 
                            "v": 108, 
                            "dur": 116, 
                            "type": "note", 
                            "channel": 4
                        }
                    ]
                ], 
                [
                    16516, 
                    [
                        {
                            "pitch": 67, 
                            "t0": 16516, 
                            "v": 108, 
                            "dur": 81, 
                            "type": "note", 
                            "channel": 4
                        }
                    ]
                ], 
                [
                    16776, 
                    [
                        {
                            "pitch": 65, 
                            "t0": 16776, 
                            "v": 108, 
                            "dur": 137, 
                            "type": "note", 
                            "channel": 4
                        }
                    ]
                ], 
                [
                    16906, 
                    [
                        {
                            "pitch": 63, 
                            "t0": 16906, 
                            "v": 104, 
                            "dur": 122, 
                            "type": "note", 
                            "channel": 4
                        }
                    ]
                ], 
                [
                    17039, 
                    [
                        {
                            "pitch": 65, 
                            "t0": 17039, 
                            "v": 100, 
                            "dur": 177, 
                            "type": "note", 
                            "channel": 4
                        }
                    ]
                ], 
                [
                    17292, 
                    [
                        {
                            "pitch": 60, 
                            "t0": 17292, 
                            "v": 112, 
                            "dur": 97, 
                            "type": "note", 
                            "channel": 4
                        }
                    ]
                ], 
                [
                    17549, 
                    [
                        {
                            "pitch": 65, 
                            "t0": 17549, 
                            "v": 116, 
                            "dur": 129, 
                            "type": "note", 
                            "channel": 4
                        }
                    ]
                ], 
                [
                    17672, 
                    [
                        {
                            "pitch": 63, 
                            "t0": 17672, 
                            "v": 108, 
                            "dur": 130, 
                            "type": "note", 
                            "channel": 4
                        }
                    ]
                ], 
                [
                    17804, 
                    [
                        {
                            "pitch": 65, 
                            "t0": 17804, 
                            "v": 80, 
                            "dur": 127, 
                            "type": "note", 
                            "channel": 4
                        }
                    ]
                ], 
                [
                    18056, 
                    [
                        {
                            "pitch": 67, 
                            "t0": 18056, 
                            "v": 88, 
                            "dur": 99, 
                            "type": "note", 
                            "channel": 4
                        }
                    ]
                ], 
                [
                    18311, 
                    [
                        {
                            "pitch": 65, 
                            "t0": 18311, 
                            "v": 112, 
                            "dur": 129, 
                            "type": "note", 
                            "channel": 4
                        }
                    ]
                ], 
                [
                    18436, 
                    [
                        {
                            "pitch": 63, 
                            "t0": 18436, 
                            "v": 108, 
                            "dur": 122, 
                            "type": "note", 
                            "channel": 4
                        }
                    ]
                ], 
                [
                    18561, 
                    [
                        {
                            "pitch": 65, 
                            "t0": 18561, 
                            "v": 104, 
                            "dur": 87, 
                            "type": "note", 
                            "channel": 4
                        }
                    ]
                ], 
                [
                    19589, 
                    [
                        {
                            "pitch": 65, 
                            "t0": 19589, 
                            "v": 100, 
                            "dur": 127, 
                            "type": "note", 
                            "channel": 4
                        }
                    ]
                ], 
                [
                    19709, 
                    [
                        {
                            "pitch": 63, 
                            "t0": 19709, 
                            "v": 108, 
                            "dur": 130, 
                            "type": "note", 
                            "channel": 4
                        }
                    ]
                ], 
                [
                    19853, 
                    [
                        {
                            "pitch": 65, 
                            "t0": 19853, 
                            "v": 108, 
                            "dur": 115, 
                            "type": "note", 
                            "channel": 4
                        }
                    ]
                ], 
                [
                    20111, 
                    [
                        {
                            "pitch": 67, 
                            "t0": 20111, 
                            "v": 112, 
                            "dur": 100, 
                            "type": "note", 
                            "channel": 4
                        }
                    ]
                ], 
                [
                    20360, 
                    [
                        {
                            "pitch": 65, 
                            "t0": 20360, 
                            "v": 104, 
                            "dur": 142, 
                            "type": "note", 
                            "channel": 4
                        }
                    ]
                ], 
                [
                    20488, 
                    [
                        {
                            "pitch": 63, 
                            "t0": 20488, 
                            "v": 112, 
                            "dur": 121, 
                            "type": "note", 
                            "channel": 4
                        }
                    ]
                ], 
                [
                    20618, 
                    [
                        {
                            "pitch": 65, 
                            "t0": 20618, 
                            "v": 108, 
                            "dur": 150, 
                            "type": "note", 
                            "channel": 4
                        }
                    ]
                ], 
                [
                    20885, 
                    [
                        {
                            "pitch": 60, 
                            "t0": 20885, 
                            "v": 112, 
                            "dur": 114, 
                            "type": "note", 
                            "channel": 4
                        }
                    ]
                ], 
                [
                    21131, 
                    [
                        {
                            "pitch": 65, 
                            "t0": 21131, 
                            "v": 112, 
                            "dur": 125, 
                            "type": "note", 
                            "channel": 4
                        }
                    ]
                ], 
                [
                    21256, 
                    [
                        {
                            "pitch": 63, 
                            "t0": 21256, 
                            "v": 112, 
                            "dur": 104, 
                            "type": "note", 
                            "channel": 4
                        }
                    ]
                ], 
                [
                    21386, 
                    [
                        {
                            "pitch": 65, 
                            "t0": 21386, 
                            "v": 112, 
                            "dur": 121, 
                            "type": "note", 
                            "channel": 4
                        }
                    ]
                ], 
                [
                    21641, 
                    [
                        {
                            "pitch": 67, 
                            "t0": 21641, 
                            "v": 108, 
                            "dur": 104, 
                            "type": "note", 
                            "channel": 4
                        }
                    ]
                ], 
                [
                    21912, 
                    [
                        {
                            "pitch": 65, 
                            "t0": 21912, 
                            "v": 108, 
                            "dur": 123, 
                            "type": "note", 
                            "channel": 4
                        }
                    ]
                ], 
                [
                    22026, 
                    [
                        {
                            "pitch": 63, 
                            "t0": 22026, 
                            "v": 112, 
                            "dur": 113, 
                            "type": "note", 
                            "channel": 4
                        }
                    ]
                ], 
                [
                    22156, 
                    [
                        {
                            "pitch": 65, 
                            "t0": 22156, 
                            "v": 112, 
                            "dur": 107, 
                            "type": "note", 
                            "channel": 4
                        }
                    ]
                ]
            ], 
            "instruments": [
                100
            ], 
            "tMax": 22156, 
            "channels": [
                4
            ], 
            "instrument": 100, 
            "numNotes": 60, 
            "type": "TrackObj"
        }, 
        {
            "trackName": "Choir", 
            "seq": [
                [
                    0, 
                    [
                        {
                            "instrument": 52, 
                            "type": "programChange", 
                            "t0": 0, 
                            "channel": 6
                        }
                    ]
                ], 
                [
                    16538, 
                    [
                        {
                            "instrument": 52, 
                            "type": "programChange", 
                            "t0": 16538, 
                            "channel": 6
                        }, 
                        {
                            "pitch": 53, 
                            "t0": 16538, 
                            "v": 49, 
                            "dur": 294, 
                            "type": "note", 
                            "channel": 6
                        }
                    ]
                ], 
                [
                    16816, 
                    [
                        {
                            "pitch": 51, 
                            "t0": 16816, 
                            "v": 50, 
                            "dur": 822, 
                            "type": "note", 
                            "channel": 6
                        }
                    ]
                ], 
                [
                    17647, 
                    [
                        {
                            "pitch": 48, 
                            "t0": 17647, 
                            "v": 48, 
                            "dur": 1035, 
                            "type": "note", 
                            "channel": 6
                        }
                    ]
                ], 
                [
                    19596, 
                    [
                        {
                            "pitch": 53, 
                            "t0": 19596, 
                            "v": 49, 
                            "dur": 793, 
                            "type": "note", 
                            "channel": 6
                        }
                    ]
                ], 
                [
                    20358, 
                    [
                        {
                            "pitch": 51, 
                            "t0": 20358, 
                            "v": 58, 
                            "dur": 818, 
                            "type": "note", 
                            "channel": 6
                        }
                    ]
                ], 
                [
                    21160, 
                    [
                        {
                            "pitch": 53, 
                            "t0": 21160, 
                            "v": 72, 
                            "dur": 1687, 
                            "type": "note", 
                            "channel": 6
                        }
                    ]
                ], 
                [
                    30969, 
                    [
                        {
                            "pitch": 53, 
                            "t0": 30969, 
                            "v": 48, 
                            "dur": 768, 
                            "type": "note", 
                            "channel": 6
                        }
                    ]
                ], 
                [
                    31713, 
                    [
                        {
                            "pitch": 51, 
                            "t0": 31713, 
                            "v": 58, 
                            "dur": 57, 
                            "type": "note", 
                            "channel": 6
                        }
                    ]
                ], 
                [
                    32247, 
                    [
                        {
                            "pitch": 48, 
                            "t0": 32247, 
                            "v": 43, 
                            "dur": 279, 
                            "type": "note", 
                            "channel": 6
                        }
                    ]
                ], 
                [
                    32494, 
                    [
                        {
                            "pitch": 51, 
                            "t0": 32494, 
                            "v": 34, 
                            "dur": 84, 
                            "type": "note", 
                            "channel": 6
                        }
                    ]
                ], 
                [
                    33247, 
                    [
                        {
                            "pitch": 53, 
                            "t0": 33247, 
                            "v": 60, 
                            "dur": 301, 
                            "type": "note", 
                            "channel": 6
                        }
                    ]
                ], 
                [
                    33502, 
                    [
                        {
                            "pitch": 51, 
                            "t0": 33502, 
                            "v": 48, 
                            "dur": 91, 
                            "type": "note", 
                            "channel": 6
                        }
                    ]
                ], 
                [
                    34279, 
                    [
                        {
                            "pitch": 48, 
                            "t0": 34279, 
                            "v": 58, 
                            "dur": 558, 
                            "type": "note", 
                            "channel": 6
                        }
                    ]
                ], 
                [
                    34824, 
                    [
                        {
                            "pitch": 51, 
                            "t0": 34824, 
                            "v": 92, 
                            "dur": 49, 
                            "type": "note", 
                            "channel": 6
                        }
                    ]
                ], 
                [
                    35287, 
                    [
                        {
                            "pitch": 53, 
                            "t0": 35287, 
                            "v": 68, 
                            "dur": 282, 
                            "type": "note", 
                            "channel": 6
                        }
                    ]
                ], 
                [
                    35547, 
                    [
                        {
                            "pitch": 51, 
                            "t0": 35547, 
                            "v": 96, 
                            "dur": 49, 
                            "type": "note", 
                            "channel": 6
                        }
                    ]
                ], 
                [
                    36306, 
                    [
                        {
                            "pitch": 53, 
                            "t0": 36306, 
                            "v": 48, 
                            "dur": 263, 
                            "type": "note", 
                            "channel": 6
                        }
                    ]
                ], 
                [
                    36558, 
                    [
                        {
                            "pitch": 51, 
                            "t0": 36558, 
                            "v": 58, 
                            "dur": 80, 
                            "type": "note", 
                            "channel": 6
                        }
                    ]
                ], 
                [
                    36862, 
                    [
                        {
                            "pitch": 48, 
                            "t0": 36862, 
                            "v": 24, 
                            "dur": 72, 
                            "type": "note", 
                            "channel": 6
                        }
                    ]
                ], 
                [
                    37345, 
                    [
                        {
                            "pitch": 53, 
                            "t0": 37345, 
                            "v": 44, 
                            "dur": 306, 
                            "type": "note", 
                            "channel": 6
                        }
                    ]
                ], 
                [
                    37623, 
                    [
                        {
                            "pitch": 51, 
                            "t0": 37623, 
                            "v": 96, 
                            "dur": 84, 
                            "type": "note", 
                            "channel": 6
                        }
                    ]
                ], 
                [
                    38145, 
                    [
                        {
                            "pitch": 48, 
                            "t0": 38145, 
                            "v": 76, 
                            "dur": 270, 
                            "type": "note", 
                            "channel": 6
                        }
                    ]
                ], 
                [
                    38391, 
                    [
                        {
                            "pitch": 51, 
                            "t0": 38391, 
                            "v": 47, 
                            "dur": 30, 
                            "type": "note", 
                            "channel": 6
                        }
                    ]
                ], 
                [
                    38674, 
                    [
                        {
                            "pitch": 53, 
                            "t0": 38674, 
                            "v": 68, 
                            "dur": 46, 
                            "type": "note", 
                            "channel": 6
                        }
                    ]
                ], 
                [
                    39153, 
                    [
                        {
                            "pitch": 53, 
                            "t0": 39153, 
                            "v": 68, 
                            "dur": 282, 
                            "type": "note", 
                            "channel": 6
                        }
                    ]
                ], 
                [
                    39411, 
                    [
                        {
                            "pitch": 51, 
                            "t0": 39411, 
                            "v": 52, 
                            "dur": 246, 
                            "type": "note", 
                            "channel": 6
                        }
                    ]
                ], 
                [
                    39660, 
                    [
                        {
                            "pitch": 53, 
                            "t0": 39660, 
                            "v": 68, 
                            "dur": 825, 
                            "type": "note", 
                            "channel": 6
                        }
                    ]
                ], 
                [
                    41476, 
                    [
                        {
                            "pitch": 65, 
                            "t0": 41476, 
                            "v": 80, 
                            "dur": 296, 
                            "type": "note", 
                            "channel": 6
                        }
                    ]
                ], 
                [
                    41731, 
                    [
                        {
                            "pitch": 63, 
                            "t0": 41731, 
                            "v": 64, 
                            "dur": 529, 
                            "type": "note", 
                            "channel": 6
                        }
                    ]
                ], 
                [
                    42524, 
                    [
                        {
                            "pitch": 53, 
                            "t0": 42524, 
                            "v": 72, 
                            "dur": 141, 
                            "type": "note", 
                            "channel": 6
                        }
                    ]
                ], 
                [
                    42647, 
                    [
                        {
                            "pitch": 51, 
                            "t0": 42647, 
                            "v": 76, 
                            "dur": 159, 
                            "type": "note", 
                            "channel": 6
                        }
                    ]
                ], 
                [
                    42788, 
                    [
                        {
                            "pitch": 53, 
                            "t0": 42788, 
                            "v": 60, 
                            "dur": 266, 
                            "type": "note", 
                            "channel": 6
                        }
                    ]
                ], 
                [
                    43041, 
                    [
                        {
                            "pitch": 48, 
                            "t0": 43041, 
                            "v": 50, 
                            "dur": 446, 
                            "type": "note", 
                            "channel": 6
                        }
                    ]
                ], 
                [
                    44291, 
                    [
                        {
                            "pitch": 53, 
                            "t0": 44291, 
                            "v": 80, 
                            "dur": 1573, 
                            "type": "note", 
                            "channel": 6
                        }
                    ]
                ], 
                [
                    46428, 
                    [
                        {
                            "pitch": 53, 
                            "t0": 46428, 
                            "v": 64, 
                            "dur": 684, 
                            "type": "note", 
                            "channel": 6
                        }
                    ]
                ], 
                [
                    47153, 
                    [
                        {
                            "pitch": 53, 
                            "t0": 47153, 
                            "v": 56, 
                            "dur": 728, 
                            "type": "note", 
                            "channel": 6
                        }
                    ]
                ], 
                [
                    48686, 
                    [
                        {
                            "pitch": 53, 
                            "t0": 48686, 
                            "v": 68, 
                            "dur": 1720, 
                            "type": "note", 
                            "channel": 6
                        }
                    ]
                ], 
                [
                    50964, 
                    [
                        {
                            "pitch": 53, 
                            "t0": 50964, 
                            "v": 56, 
                            "dur": 735, 
                            "type": "note", 
                            "channel": 6
                        }
                    ]
                ], 
                [
                    52509, 
                    [
                        {
                            "pitch": 53, 
                            "t0": 52509, 
                            "v": 68, 
                            "dur": 1517, 
                            "type": "note", 
                            "channel": 6
                        }
                    ]
                ], 
                [
                    54006, 
                    [
                        {
                            "pitch": 89, 
                            "t0": 54006, 
                            "v": 72, 
                            "dur": 791, 
                            "type": "note", 
                            "channel": 6
                        }
                    ]
                ], 
                [
                    54765, 
                    [
                        {
                            "pitch": 87, 
                            "t0": 54765, 
                            "v": 72, 
                            "dur": 299, 
                            "type": "note", 
                            "channel": 6
                        }
                    ]
                ], 
                [
                    55031, 
                    [
                        {
                            "pitch": 89, 
                            "t0": 55031, 
                            "v": 76, 
                            "dur": 402, 
                            "type": "note", 
                            "channel": 6
                        }
                    ]
                ], 
                [
                    55470, 
                    [
                        {
                            "pitch": 96, 
                            "t0": 55470, 
                            "v": 92, 
                            "dur": 126, 
                            "type": "note", 
                            "channel": 6
                        }
                    ]
                ], 
                [
                    55602, 
                    [
                        {
                            "pitch": 94, 
                            "t0": 55602, 
                            "v": 104, 
                            "dur": 797, 
                            "type": "note", 
                            "channel": 6
                        }
                    ]
                ], 
                [
                    56374, 
                    [
                        {
                            "pitch": 91, 
                            "t0": 56374, 
                            "v": 76, 
                            "dur": 563, 
                            "type": "note", 
                            "channel": 6
                        }
                    ]
                ], 
                [
                    56880, 
                    [
                        {
                            "pitch": 89, 
                            "t0": 56880, 
                            "v": 50, 
                            "dur": 133, 
                            "type": "note", 
                            "channel": 6
                        }
                    ]
                ], 
                [
                    56981, 
                    [
                        {
                            "pitch": 87, 
                            "t0": 56981, 
                            "v": 56, 
                            "dur": 157, 
                            "type": "note", 
                            "channel": 6
                        }
                    ]
                ], 
                [
                    57119, 
                    [
                        {
                            "pitch": 89, 
                            "t0": 57119, 
                            "v": 52, 
                            "dur": 1239, 
                            "type": "note", 
                            "channel": 6
                        }
                    ]
                ], 
                [
                    58324, 
                    [
                        {
                            "pitch": 87, 
                            "t0": 58324, 
                            "v": 56, 
                            "dur": 130, 
                            "type": "note", 
                            "channel": 6
                        }
                    ]
                ], 
                [
                    58435, 
                    [
                        {
                            "pitch": 89, 
                            "t0": 58435, 
                            "v": 80, 
                            "dur": 520, 
                            "type": "note", 
                            "channel": 6
                        }
                    ]
                ], 
                [
                    58973, 
                    [
                        {
                            "pitch": 96, 
                            "t0": 58973, 
                            "v": 42, 
                            "dur": 300, 
                            "type": "note", 
                            "channel": 6
                        }
                    ]
                ], 
                [
                    58975, 
                    [
                        {
                            "pitch": 95, 
                            "t0": 58975, 
                            "v": 33, 
                            "dur": 22, 
                            "type": "note", 
                            "channel": 6
                        }
                    ]
                ], 
                [
                    59245, 
                    [
                        {
                            "pitch": 94, 
                            "t0": 59245, 
                            "v": 96, 
                            "dur": 681, 
                            "type": "note", 
                            "channel": 6
                        }
                    ]
                ], 
                [
                    59859, 
                    [
                        {
                            "pitch": 91, 
                            "t0": 59859, 
                            "v": 47, 
                            "dur": 630, 
                            "type": "note", 
                            "channel": 6
                        }
                    ]
                ], 
                [
                    60435, 
                    [
                        {
                            "pitch": 89, 
                            "t0": 60435, 
                            "v": 43, 
                            "dur": 136, 
                            "type": "note", 
                            "channel": 6
                        }
                    ]
                ], 
                [
                    60540, 
                    [
                        {
                            "pitch": 87, 
                            "t0": 60540, 
                            "v": 72, 
                            "dur": 143, 
                            "type": "note", 
                            "channel": 6
                        }
                    ]
                ], 
                [
                    60673, 
                    [
                        {
                            "pitch": 89, 
                            "t0": 60673, 
                            "v": 50, 
                            "dur": 1367, 
                            "type": "note", 
                            "channel": 6
                        }
                    ]
                ], 
                [
                    62007, 
                    [
                        {
                            "pitch": 87, 
                            "t0": 62007, 
                            "v": 108, 
                            "dur": 260, 
                            "type": "note", 
                            "channel": 6
                        }
                    ]
                ], 
                [
                    62247, 
                    [
                        {
                            "pitch": 89, 
                            "t0": 62247, 
                            "v": 92, 
                            "dur": 540, 
                            "type": "note", 
                            "channel": 6
                        }
                    ]
                ], 
                [
                    62760, 
                    [
                        {
                            "pitch": 96, 
                            "t0": 62760, 
                            "v": 104, 
                            "dur": 282, 
                            "type": "note", 
                            "channel": 6
                        }
                    ]
                ], 
                [
                    63011, 
                    [
                        {
                            "pitch": 94, 
                            "t0": 63011, 
                            "v": 108, 
                            "dur": 509, 
                            "type": "note", 
                            "channel": 6
                        }
                    ]
                ], 
                [
                    63493, 
                    [
                        {
                            "pitch": 91, 
                            "t0": 63493, 
                            "v": 96, 
                            "dur": 299, 
                            "type": "note", 
                            "channel": 6
                        }
                    ]
                ], 
                [
                    63758, 
                    [
                        {
                            "pitch": 89, 
                            "t0": 63758, 
                            "v": 72, 
                            "dur": 3063, 
                            "type": "note", 
                            "channel": 6
                        }
                    ]
                ], 
                [
                    66783, 
                    [
                        {
                            "pitch": 87, 
                            "t0": 66783, 
                            "v": 76, 
                            "dur": 2491, 
                            "type": "note", 
                            "channel": 6
                        }
                    ]
                ], 
                [
                    69648, 
                    [
                        {
                            "pitch": 87, 
                            "t0": 69648, 
                            "v": 46, 
                            "dur": 242, 
                            "type": "note", 
                            "channel": 6
                        }
                    ]
                ], 
                [
                    69872, 
                    [
                        {
                            "pitch": 89, 
                            "t0": 69872, 
                            "v": 68, 
                            "dur": 369, 
                            "type": "note", 
                            "channel": 6
                        }
                    ]
                ], 
                [
                    70325, 
                    [
                        {
                            "pitch": 96, 
                            "t0": 70325, 
                            "v": 54, 
                            "dur": 247, 
                            "type": "note", 
                            "channel": 6
                        }
                    ]
                ], 
                [
                    70567, 
                    [
                        {
                            "pitch": 94, 
                            "t0": 70567, 
                            "v": 108, 
                            "dur": 757, 
                            "type": "note", 
                            "channel": 6
                        }
                    ]
                ], 
                [
                    71305, 
                    [
                        {
                            "pitch": 91, 
                            "t0": 71305, 
                            "v": 64, 
                            "dur": 512, 
                            "type": "note", 
                            "channel": 6
                        }
                    ]
                ], 
                [
                    71770, 
                    [
                        {
                            "pitch": 89, 
                            "t0": 71770, 
                            "v": 37, 
                            "dur": 307, 
                            "type": "note", 
                            "channel": 6
                        }
                    ]
                ], 
                [
                    72034, 
                    [
                        {
                            "pitch": 87, 
                            "t0": 72034, 
                            "v": 30, 
                            "dur": 235, 
                            "type": "note", 
                            "channel": 6
                        }
                    ]
                ], 
                [
                    72248, 
                    [
                        {
                            "pitch": 89, 
                            "t0": 72248, 
                            "v": 52, 
                            "dur": 1269, 
                            "type": "note", 
                            "channel": 6
                        }
                    ]
                ], 
                [
                    73490, 
                    [
                        {
                            "pitch": 87, 
                            "t0": 73490, 
                            "v": 43, 
                            "dur": 258, 
                            "type": "note", 
                            "channel": 6
                        }
                    ]
                ], 
                [
                    73713, 
                    [
                        {
                            "pitch": 89, 
                            "t0": 73713, 
                            "v": 80, 
                            "dur": 483, 
                            "type": "note", 
                            "channel": 6
                        }
                    ]
                ], 
                [
                    74153, 
                    [
                        {
                            "pitch": 96, 
                            "t0": 74153, 
                            "v": 92, 
                            "dur": 247, 
                            "type": "note", 
                            "channel": 6
                        }
                    ]
                ], 
                [
                    74383, 
                    [
                        {
                            "pitch": 94, 
                            "t0": 74383, 
                            "v": 92, 
                            "dur": 696, 
                            "type": "note", 
                            "channel": 6
                        }
                    ]
                ], 
                [
                    75035, 
                    [
                        {
                            "pitch": 91, 
                            "t0": 75035, 
                            "v": 68, 
                            "dur": 462, 
                            "type": "note", 
                            "channel": 6
                        }
                    ]
                ], 
                [
                    75456, 
                    [
                        {
                            "pitch": 89, 
                            "t0": 75456, 
                            "v": 48, 
                            "dur": 247, 
                            "type": "note", 
                            "channel": 6
                        }
                    ]
                ], 
                [
                    75659, 
                    [
                        {
                            "pitch": 87, 
                            "t0": 75659, 
                            "v": 40, 
                            "dur": 259, 
                            "type": "note", 
                            "channel": 6
                        }
                    ]
                ], 
                [
                    75874, 
                    [
                        {
                            "pitch": 89, 
                            "t0": 75874, 
                            "v": 31, 
                            "dur": 1551, 
                            "type": "note", 
                            "channel": 6
                        }
                    ]
                ], 
                [
                    75876, 
                    [
                        {
                            "pitch": 88, 
                            "t0": 75876, 
                            "v": 29, 
                            "dur": 172, 
                            "type": "note", 
                            "channel": 6
                        }
                    ]
                ], 
                [
                    77355, 
                    [
                        {
                            "pitch": 87, 
                            "t0": 77355, 
                            "v": 72, 
                            "dur": 217, 
                            "type": "note", 
                            "channel": 6
                        }
                    ]
                ], 
                [
                    77540, 
                    [
                        {
                            "pitch": 89, 
                            "t0": 77540, 
                            "v": 52, 
                            "dur": 498, 
                            "type": "note", 
                            "channel": 6
                        }
                    ]
                ], 
                [
                    77980, 
                    [
                        {
                            "pitch": 96, 
                            "t0": 77980, 
                            "v": 49, 
                            "dur": 239, 
                            "type": "note", 
                            "channel": 6
                        }
                    ]
                ], 
                [
                    78185, 
                    [
                        {
                            "pitch": 94, 
                            "t0": 78185, 
                            "v": 64, 
                            "dur": 533, 
                            "type": "note", 
                            "channel": 6
                        }
                    ]
                ], 
                [
                    78672, 
                    [
                        {
                            "pitch": 91, 
                            "t0": 78672, 
                            "v": 46, 
                            "dur": 662, 
                            "type": "note", 
                            "channel": 6
                        }
                    ]
                ], 
                [
                    79219, 
                    [
                        {
                            "pitch": 89, 
                            "t0": 79219, 
                            "v": 39, 
                            "dur": 242, 
                            "type": "note", 
                            "channel": 6
                        }
                    ]
                ], 
                [
                    79407, 
                    [
                        {
                            "pitch": 87, 
                            "t0": 79407, 
                            "v": 46, 
                            "dur": 314, 
                            "type": "note", 
                            "channel": 6
                        }
                    ]
                ], 
                [
                    79662, 
                    [
                        {
                            "pitch": 89, 
                            "t0": 79662, 
                            "v": 33, 
                            "dur": 1545, 
                            "type": "note", 
                            "channel": 6
                        }
                    ]
                ], 
                [
                    81150, 
                    [
                        {
                            "pitch": 87, 
                            "t0": 81150, 
                            "v": 43, 
                            "dur": 254, 
                            "type": "note", 
                            "channel": 6
                        }
                    ]
                ], 
                [
                    81369, 
                    [
                        {
                            "pitch": 89, 
                            "t0": 81369, 
                            "v": 64, 
                            "dur": 449, 
                            "type": "note", 
                            "channel": 6
                        }
                    ]
                ], 
                [
                    81779, 
                    [
                        {
                            "pitch": 96, 
                            "t0": 81779, 
                            "v": 80, 
                            "dur": 256, 
                            "type": "note", 
                            "channel": 6
                        }
                    ]
                ], 
                [
                    82007, 
                    [
                        {
                            "pitch": 94, 
                            "t0": 82007, 
                            "v": 64, 
                            "dur": 548, 
                            "type": "note", 
                            "channel": 6
                        }
                    ]
                ], 
                [
                    82527, 
                    [
                        {
                            "pitch": 91, 
                            "t0": 82527, 
                            "v": 56, 
                            "dur": 733, 
                            "type": "note", 
                            "channel": 6
                        }
                    ]
                ], 
                [
                    83175, 
                    [
                        {
                            "pitch": 89, 
                            "t0": 83175, 
                            "v": 46, 
                            "dur": 239, 
                            "type": "note", 
                            "channel": 6
                        }
                    ]
                ], 
                [
                    83356, 
                    [
                        {
                            "pitch": 87, 
                            "t0": 83356, 
                            "v": 47, 
                            "dur": 248, 
                            "type": "note", 
                            "channel": 6
                        }
                    ]
                ], 
                [
                    83550, 
                    [
                        {
                            "pitch": 89, 
                            "t0": 83550, 
                            "v": 37, 
                            "dur": 1067, 
                            "type": "note", 
                            "channel": 6
                        }
                    ]
                ]
            ], 
            "instruments": [
                52
            ], 
            "tMax": 83550, 
            "channels": [
                6
            ], 
            "instrument": 52, 
            "numNotes": 97, 
            "type": "TrackObj"
        }, 
        {
            "trackName": "Ice Rain", 
            "seq": [
                [
                    0, 
                    [
                        {
                            "instrument": 96, 
                            "type": "programChange", 
                            "t0": 0, 
                            "channel": 7
                        }
                    ]
                ], 
                [
                    29961, 
                    [
                        {
                            "instrument": 96, 
                            "type": "programChange", 
                            "t0": 29961, 
                            "channel": 7
                        }, 
                        {
                            "pitch": 65, 
                            "t0": 29961, 
                            "v": 80, 
                            "dur": 74, 
                            "type": "note", 
                            "channel": 7
                        }
                    ]
                ], 
                [
                    29964, 
                    [
                        {
                            "pitch": 60, 
                            "t0": 29964, 
                            "v": 64, 
                            "dur": 78, 
                            "type": "note", 
                            "channel": 7
                        }
                    ]
                ], 
                [
                    30079, 
                    [
                        {
                            "pitch": 60, 
                            "t0": 30079, 
                            "v": 84, 
                            "dur": 75, 
                            "type": "note", 
                            "channel": 7
                        }
                    ]
                ], 
                [
                    30080, 
                    [
                        {
                            "pitch": 65, 
                            "t0": 30080, 
                            "v": 112, 
                            "dur": 70, 
                            "type": "note", 
                            "channel": 7
                        }
                    ]
                ], 
                [
                    30210, 
                    [
                        {
                            "pitch": 65, 
                            "t0": 30210, 
                            "v": 116, 
                            "dur": 62, 
                            "type": "note", 
                            "channel": 7
                        }
                    ]
                ], 
                [
                    30211, 
                    [
                        {
                            "pitch": 60, 
                            "t0": 30211, 
                            "v": 84, 
                            "dur": 61, 
                            "type": "note", 
                            "channel": 7
                        }
                    ]
                ], 
                [
                    30343, 
                    [
                        {
                            "pitch": 63, 
                            "t0": 30343, 
                            "v": 116, 
                            "dur": 55, 
                            "type": "note", 
                            "channel": 7
                        }
                    ]
                ], 
                [
                    30344, 
                    [
                        {
                            "pitch": 59, 
                            "t0": 30344, 
                            "v": 84, 
                            "dur": 56, 
                            "type": "note", 
                            "channel": 7
                        }
                    ]
                ], 
                [
                    30473, 
                    [
                        {
                            "pitch": 60, 
                            "t0": 30473, 
                            "v": 108, 
                            "dur": 1471, 
                            "type": "note", 
                            "channel": 7
                        }
                    ]
                ], 
                [
                    30474, 
                    [
                        {
                            "pitch": 65, 
                            "t0": 30474, 
                            "v": 116, 
                            "dur": 1472, 
                            "type": "note", 
                            "channel": 7
                        }
                    ]
                ], 
                [
                    31996, 
                    [
                        {
                            "pitch": 65, 
                            "t0": 31996, 
                            "v": 108, 
                            "dur": 79, 
                            "type": "note", 
                            "channel": 7
                        }
                    ]
                ], 
                [
                    31998, 
                    [
                        {
                            "pitch": 60, 
                            "t0": 31998, 
                            "v": 88, 
                            "dur": 82, 
                            "type": "note", 
                            "channel": 7
                        }
                    ]
                ], 
                [
                    32122, 
                    [
                        {
                            "pitch": 65, 
                            "t0": 32122, 
                            "v": 104, 
                            "dur": 61, 
                            "type": "note", 
                            "channel": 7
                        }
                    ]
                ], 
                [
                    32124, 
                    [
                        {
                            "pitch": 60, 
                            "t0": 32124, 
                            "v": 88, 
                            "dur": 67, 
                            "type": "note", 
                            "channel": 7
                        }
                    ]
                ], 
                [
                    32243, 
                    [
                        {
                            "pitch": 60, 
                            "t0": 32243, 
                            "v": 92, 
                            "dur": 57, 
                            "type": "note", 
                            "channel": 7
                        }
                    ]
                ], 
                [
                    32244, 
                    [
                        {
                            "pitch": 65, 
                            "t0": 32244, 
                            "v": 92, 
                            "dur": 55, 
                            "type": "note", 
                            "channel": 7
                        }
                    ]
                ], 
                [
                    32380, 
                    [
                        {
                            "pitch": 63, 
                            "t0": 32380, 
                            "v": 104, 
                            "dur": 55, 
                            "type": "note", 
                            "channel": 7
                        }, 
                        {
                            "pitch": 59, 
                            "t0": 32380, 
                            "v": 100, 
                            "dur": 58, 
                            "type": "note", 
                            "channel": 7
                        }
                    ]
                ], 
                [
                    32516, 
                    [
                        {
                            "pitch": 60, 
                            "t0": 32516, 
                            "v": 100, 
                            "dur": 1470, 
                            "type": "note", 
                            "channel": 7
                        }
                    ]
                ], 
                [
                    32517, 
                    [
                        {
                            "pitch": 65, 
                            "t0": 32517, 
                            "v": 104, 
                            "dur": 1470, 
                            "type": "note", 
                            "channel": 7
                        }
                    ]
                ], 
                [
                    34051, 
                    [
                        {
                            "pitch": 60, 
                            "t0": 34051, 
                            "v": 84, 
                            "dur": 80, 
                            "type": "note", 
                            "channel": 7
                        }
                    ]
                ], 
                [
                    34053, 
                    [
                        {
                            "pitch": 65, 
                            "t0": 34053, 
                            "v": 92, 
                            "dur": 72, 
                            "type": "note", 
                            "channel": 7
                        }
                    ]
                ], 
                [
                    34176, 
                    [
                        {
                            "pitch": 60, 
                            "t0": 34176, 
                            "v": 76, 
                            "dur": 63, 
                            "type": "note", 
                            "channel": 7
                        }
                    ]
                ], 
                [
                    34177, 
                    [
                        {
                            "pitch": 65, 
                            "t0": 34177, 
                            "v": 108, 
                            "dur": 63, 
                            "type": "note", 
                            "channel": 7
                        }
                    ]
                ], 
                [
                    34298, 
                    [
                        {
                            "pitch": 60, 
                            "t0": 34298, 
                            "v": 76, 
                            "dur": 60, 
                            "type": "note", 
                            "channel": 7
                        }, 
                        {
                            "pitch": 65, 
                            "t0": 34298, 
                            "v": 100, 
                            "dur": 60, 
                            "type": "note", 
                            "channel": 7
                        }
                    ]
                ], 
                [
                    34432, 
                    [
                        {
                            "pitch": 63, 
                            "t0": 34432, 
                            "v": 116, 
                            "dur": 50, 
                            "type": "note", 
                            "channel": 7
                        }
                    ]
                ], 
                [
                    34433, 
                    [
                        {
                            "pitch": 59, 
                            "t0": 34433, 
                            "v": 96, 
                            "dur": 59, 
                            "type": "note", 
                            "channel": 7
                        }
                    ]
                ], 
                [
                    34567, 
                    [
                        {
                            "pitch": 60, 
                            "t0": 34567, 
                            "v": 100, 
                            "dur": 1344, 
                            "type": "note", 
                            "channel": 7
                        }
                    ]
                ], 
                [
                    34569, 
                    [
                        {
                            "pitch": 65, 
                            "t0": 34569, 
                            "v": 96, 
                            "dur": 1380, 
                            "type": "note", 
                            "channel": 7
                        }
                    ]
                ], 
                [
                    36079, 
                    [
                        {
                            "pitch": 60, 
                            "t0": 36079, 
                            "v": 96, 
                            "dur": 84, 
                            "type": "note", 
                            "channel": 7
                        }
                    ]
                ], 
                [
                    36080, 
                    [
                        {
                            "pitch": 65, 
                            "t0": 36080, 
                            "v": 100, 
                            "dur": 75, 
                            "type": "note", 
                            "channel": 7
                        }
                    ]
                ], 
                [
                    36215, 
                    [
                        {
                            "pitch": 65, 
                            "t0": 36215, 
                            "v": 96, 
                            "dur": 66, 
                            "type": "note", 
                            "channel": 7
                        }, 
                        {
                            "pitch": 60, 
                            "t0": 36215, 
                            "v": 80, 
                            "dur": 68, 
                            "type": "note", 
                            "channel": 7
                        }
                    ]
                ], 
                [
                    36333, 
                    [
                        {
                            "pitch": 65, 
                            "t0": 36333, 
                            "v": 108, 
                            "dur": 48, 
                            "type": "note", 
                            "channel": 7
                        }, 
                        {
                            "pitch": 60, 
                            "t0": 36333, 
                            "v": 76, 
                            "dur": 50, 
                            "type": "note", 
                            "channel": 7
                        }
                    ]
                ], 
                [
                    36461, 
                    [
                        {
                            "pitch": 63, 
                            "t0": 36461, 
                            "v": 116, 
                            "dur": 54, 
                            "type": "note", 
                            "channel": 7
                        }
                    ]
                ], 
                [
                    36463, 
                    [
                        {
                            "pitch": 59, 
                            "t0": 36463, 
                            "v": 100, 
                            "dur": 52, 
                            "type": "note", 
                            "channel": 7
                        }
                    ]
                ], 
                [
                    36585, 
                    [
                        {
                            "pitch": 60, 
                            "t0": 36585, 
                            "v": 100, 
                            "dur": 1469, 
                            "type": "note", 
                            "channel": 7
                        }
                    ]
                ], 
                [
                    36587, 
                    [
                        {
                            "pitch": 65, 
                            "t0": 36587, 
                            "v": 112, 
                            "dur": 1460, 
                            "type": "note", 
                            "channel": 7
                        }
                    ]
                ], 
                [
                    38136, 
                    [
                        {
                            "pitch": 65, 
                            "t0": 38136, 
                            "v": 108, 
                            "dur": 78, 
                            "type": "note", 
                            "channel": 7
                        }, 
                        {
                            "pitch": 60, 
                            "t0": 38136, 
                            "v": 88, 
                            "dur": 83, 
                            "type": "note", 
                            "channel": 7
                        }
                    ]
                ], 
                [
                    38261, 
                    [
                        {
                            "pitch": 65, 
                            "t0": 38261, 
                            "v": 100, 
                            "dur": 68, 
                            "type": "note", 
                            "channel": 7
                        }
                    ]
                ], 
                [
                    38263, 
                    [
                        {
                            "pitch": 60, 
                            "t0": 38263, 
                            "v": 80, 
                            "dur": 71, 
                            "type": "note", 
                            "channel": 7
                        }
                    ]
                ], 
                [
                    38391, 
                    [
                        {
                            "pitch": 60, 
                            "t0": 38391, 
                            "v": 84, 
                            "dur": 61, 
                            "type": "note", 
                            "channel": 7
                        }
                    ]
                ], 
                [
                    38393, 
                    [
                        {
                            "pitch": 65, 
                            "t0": 38393, 
                            "v": 100, 
                            "dur": 57, 
                            "type": "note", 
                            "channel": 7
                        }
                    ]
                ], 
                [
                    38525, 
                    [
                        {
                            "pitch": 59, 
                            "t0": 38525, 
                            "v": 92, 
                            "dur": 57, 
                            "type": "note", 
                            "channel": 7
                        }
                    ]
                ], 
                [
                    38526, 
                    [
                        {
                            "pitch": 63, 
                            "t0": 38526, 
                            "v": 116, 
                            "dur": 54, 
                            "type": "note", 
                            "channel": 7
                        }
                    ]
                ], 
                [
                    38651, 
                    [
                        {
                            "pitch": 60, 
                            "t0": 38651, 
                            "v": 104, 
                            "dur": 1359, 
                            "type": "note", 
                            "channel": 7
                        }
                    ]
                ], 
                [
                    38652, 
                    [
                        {
                            "pitch": 65, 
                            "t0": 38652, 
                            "v": 104, 
                            "dur": 1352, 
                            "type": "note", 
                            "channel": 7
                        }
                    ]
                ]
            ], 
            "instruments": [
                96
            ], 
            "tMax": 38652, 
            "channels": [
                7
            ], 
            "instrument": 96, 
            "numNotes": 50, 
            "type": "TrackObj"
        }, 
        {
            "trackName": "Shakuhachi Flute", 
            "seq": [
                [
                    0, 
                    [
                        {
                            "instrument": 76, 
                            "type": "programChange", 
                            "t0": 0, 
                            "channel": 8
                        }
                    ]
                ], 
                [
                    15750, 
                    [
                        {
                            "instrument": 76, 
                            "type": "programChange", 
                            "t0": 15750, 
                            "channel": 8
                        }, 
                        {
                            "pitch": 65, 
                            "t0": 15750, 
                            "v": 120, 
                            "dur": 803, 
                            "type": "note", 
                            "channel": 8
                        }
                    ]
                ], 
                [
                    17802, 
                    [
                        {
                            "pitch": 65, 
                            "t0": 17802, 
                            "v": 127, 
                            "dur": 587, 
                            "type": "note", 
                            "channel": 8
                        }
                    ]
                ], 
                [
                    19854, 
                    [
                        {
                            "pitch": 65, 
                            "t0": 19854, 
                            "v": 124, 
                            "dur": 574, 
                            "type": "note", 
                            "channel": 8
                        }
                    ]
                ], 
                [
                    21906, 
                    [
                        {
                            "pitch": 65, 
                            "t0": 21906, 
                            "v": 120, 
                            "dur": 627, 
                            "type": "note", 
                            "channel": 8
                        }
                    ]
                ], 
                [
                    30849, 
                    [
                        {
                            "pitch": 65, 
                            "t0": 30849, 
                            "v": 108, 
                            "dur": 587, 
                            "type": "note", 
                            "channel": 8
                        }
                    ]
                ], 
                [
                    32893, 
                    [
                        {
                            "pitch": 65, 
                            "t0": 32893, 
                            "v": 124, 
                            "dur": 614, 
                            "type": "note", 
                            "channel": 8
                        }
                    ]
                ], 
                [
                    34926, 
                    [
                        {
                            "pitch": 65, 
                            "t0": 34926, 
                            "v": 112, 
                            "dur": 577, 
                            "type": "note", 
                            "channel": 8
                        }
                    ]
                ], 
                [
                    36984, 
                    [
                        {
                            "pitch": 65, 
                            "t0": 36984, 
                            "v": 120, 
                            "dur": 569, 
                            "type": "note", 
                            "channel": 8
                        }
                    ]
                ], 
                [
                    39069, 
                    [
                        {
                            "pitch": 65, 
                            "t0": 39069, 
                            "v": 124, 
                            "dur": 1176, 
                            "type": "note", 
                            "channel": 8
                        }
                    ]
                ], 
                [
                    41626, 
                    [
                        {
                            "pitch": 65, 
                            "t0": 41626, 
                            "v": 116, 
                            "dur": 831, 
                            "type": "note", 
                            "channel": 8
                        }
                    ]
                ], 
                [
                    43226, 
                    [
                        {
                            "pitch": 65, 
                            "t0": 43226, 
                            "v": 116, 
                            "dur": 1154, 
                            "type": "note", 
                            "channel": 8
                        }
                    ]
                ], 
                [
                    45228, 
                    [
                        {
                            "pitch": 65, 
                            "t0": 45228, 
                            "v": 112, 
                            "dur": 574, 
                            "type": "note", 
                            "channel": 8
                        }
                    ]
                ], 
                [
                    46805, 
                    [
                        {
                            "pitch": 65, 
                            "t0": 46805, 
                            "v": 120, 
                            "dur": 1066, 
                            "type": "note", 
                            "channel": 8
                        }
                    ]
                ], 
                [
                    48932, 
                    [
                        {
                            "pitch": 65, 
                            "t0": 48932, 
                            "v": 100, 
                            "dur": 685, 
                            "type": "note", 
                            "channel": 8
                        }
                    ]
                ], 
                [
                    50980, 
                    [
                        {
                            "pitch": 65, 
                            "t0": 50980, 
                            "v": 112, 
                            "dur": 573, 
                            "type": "note", 
                            "channel": 8
                        }
                    ]
                ], 
                [
                    52572, 
                    [
                        {
                            "pitch": 65, 
                            "t0": 52572, 
                            "v": 124, 
                            "dur": 648, 
                            "type": "note", 
                            "channel": 8
                        }
                    ]
                ], 
                [
                    54148, 
                    [
                        {
                            "pitch": 65, 
                            "t0": 54148, 
                            "v": 120, 
                            "dur": 1083, 
                            "type": "note", 
                            "channel": 8
                        }
                    ]
                ], 
                [
                    56180, 
                    [
                        {
                            "pitch": 65, 
                            "t0": 56180, 
                            "v": 120, 
                            "dur": 1135, 
                            "type": "note", 
                            "channel": 8
                        }
                    ]
                ], 
                [
                    58276, 
                    [
                        {
                            "pitch": 65, 
                            "t0": 58276, 
                            "v": 104, 
                            "dur": 1387, 
                            "type": "note", 
                            "channel": 8
                        }
                    ]
                ]
            ], 
            "instruments": [
                76
            ], 
            "tMax": 58276, 
            "channels": [
                8
            ], 
            "instrument": 76, 
            "numNotes": 19, 
            "type": "TrackObj"
        }, 
        {
            "trackName": "Bowed Glass Pad", 
            "seq": [
                [
                    0, 
                    [
                        {
                            "instrument": 92, 
                            "type": "programChange", 
                            "t0": 0, 
                            "channel": 10
                        }
                    ]
                ], 
                [
                    30942, 
                    [
                        {
                            "instrument": 92, 
                            "type": "programChange", 
                            "t0": 30942, 
                            "channel": 10
                        }, 
                        {
                            "pitch": 51, 
                            "t0": 30942, 
                            "v": 108, 
                            "dur": 154, 
                            "type": "note", 
                            "channel": 10
                        }
                    ]
                ], 
                [
                    31091, 
                    [
                        {
                            "pitch": 53, 
                            "t0": 31091, 
                            "v": 68, 
                            "dur": 97, 
                            "type": "note", 
                            "channel": 10
                        }
                    ]
                ], 
                [
                    31367, 
                    [
                        {
                            "pitch": 58, 
                            "t0": 31367, 
                            "v": 112, 
                            "dur": 130, 
                            "type": "note", 
                            "channel": 10
                        }
                    ]
                ], 
                [
                    31487, 
                    [
                        {
                            "pitch": 60, 
                            "t0": 31487, 
                            "v": 68, 
                            "dur": 108, 
                            "type": "note", 
                            "channel": 10
                        }
                    ]
                ], 
                [
                    31720, 
                    [
                        {
                            "pitch": 63, 
                            "t0": 31720, 
                            "v": 116, 
                            "dur": 130, 
                            "type": "note", 
                            "channel": 10
                        }
                    ]
                ], 
                [
                    31846, 
                    [
                        {
                            "pitch": 65, 
                            "t0": 31846, 
                            "v": 60, 
                            "dur": 117, 
                            "type": "note", 
                            "channel": 10
                        }
                    ]
                ], 
                [
                    32110, 
                    [
                        {
                            "pitch": 70, 
                            "t0": 32110, 
                            "v": 100, 
                            "dur": 141, 
                            "type": "note", 
                            "channel": 10
                        }
                    ]
                ], 
                [
                    32244, 
                    [
                        {
                            "pitch": 72, 
                            "t0": 32244, 
                            "v": 92, 
                            "dur": 110, 
                            "type": "note", 
                            "channel": 10
                        }
                    ]
                ], 
                [
                    32503, 
                    [
                        {
                            "pitch": 75, 
                            "t0": 32503, 
                            "v": 108, 
                            "dur": 144, 
                            "type": "note", 
                            "channel": 10
                        }
                    ]
                ], 
                [
                    32623, 
                    [
                        {
                            "pitch": 77, 
                            "t0": 32623, 
                            "v": 80, 
                            "dur": 186, 
                            "type": "note", 
                            "channel": 10
                        }
                    ]
                ], 
                [
                    33006, 
                    [
                        {
                            "pitch": 51, 
                            "t0": 33006, 
                            "v": 104, 
                            "dur": 144, 
                            "type": "note", 
                            "channel": 10
                        }
                    ]
                ], 
                [
                    33138, 
                    [
                        {
                            "pitch": 53, 
                            "t0": 33138, 
                            "v": 76, 
                            "dur": 117, 
                            "type": "note", 
                            "channel": 10
                        }
                    ]
                ], 
                [
                    33374, 
                    [
                        {
                            "pitch": 58, 
                            "t0": 33374, 
                            "v": 112, 
                            "dur": 138, 
                            "type": "note", 
                            "channel": 10
                        }
                    ]
                ], 
                [
                    33508, 
                    [
                        {
                            "pitch": 60, 
                            "t0": 33508, 
                            "v": 92, 
                            "dur": 107, 
                            "type": "note", 
                            "channel": 10
                        }
                    ]
                ], 
                [
                    33755, 
                    [
                        {
                            "pitch": 63, 
                            "t0": 33755, 
                            "v": 104, 
                            "dur": 153, 
                            "type": "note", 
                            "channel": 10
                        }
                    ]
                ], 
                [
                    33894, 
                    [
                        {
                            "pitch": 65, 
                            "t0": 33894, 
                            "v": 72, 
                            "dur": 130, 
                            "type": "note", 
                            "channel": 10
                        }
                    ]
                ], 
                [
                    34149, 
                    [
                        {
                            "pitch": 70, 
                            "t0": 34149, 
                            "v": 108, 
                            "dur": 148, 
                            "type": "note", 
                            "channel": 10
                        }
                    ]
                ], 
                [
                    34285, 
                    [
                        {
                            "pitch": 72, 
                            "t0": 34285, 
                            "v": 96, 
                            "dur": 114, 
                            "type": "note", 
                            "channel": 10
                        }
                    ]
                ], 
                [
                    34544, 
                    [
                        {
                            "pitch": 75, 
                            "t0": 34544, 
                            "v": 116, 
                            "dur": 154, 
                            "type": "note", 
                            "channel": 10
                        }
                    ]
                ], 
                [
                    34670, 
                    [
                        {
                            "pitch": 77, 
                            "t0": 34670, 
                            "v": 72, 
                            "dur": 227, 
                            "type": "note", 
                            "channel": 10
                        }
                    ]
                ], 
                [
                    35043, 
                    [
                        {
                            "pitch": 51, 
                            "t0": 35043, 
                            "v": 84, 
                            "dur": 140, 
                            "type": "note", 
                            "channel": 10
                        }
                    ]
                ], 
                [
                    35169, 
                    [
                        {
                            "pitch": 53, 
                            "t0": 35169, 
                            "v": 76, 
                            "dur": 119, 
                            "type": "note", 
                            "channel": 10
                        }
                    ]
                ], 
                [
                    35417, 
                    [
                        {
                            "pitch": 58, 
                            "t0": 35417, 
                            "v": 112, 
                            "dur": 144, 
                            "type": "note", 
                            "channel": 10
                        }
                    ]
                ], 
                [
                    35546, 
                    [
                        {
                            "pitch": 60, 
                            "t0": 35546, 
                            "v": 84, 
                            "dur": 125, 
                            "type": "note", 
                            "channel": 10
                        }
                    ]
                ], 
                [
                    35787, 
                    [
                        {
                            "pitch": 63, 
                            "t0": 35787, 
                            "v": 108, 
                            "dur": 159, 
                            "type": "note", 
                            "channel": 10
                        }
                    ]
                ], 
                [
                    35932, 
                    [
                        {
                            "pitch": 65, 
                            "t0": 35932, 
                            "v": 88, 
                            "dur": 111, 
                            "type": "note", 
                            "channel": 10
                        }
                    ]
                ], 
                [
                    36189, 
                    [
                        {
                            "pitch": 70, 
                            "t0": 36189, 
                            "v": 108, 
                            "dur": 154, 
                            "type": "note", 
                            "channel": 10
                        }
                    ]
                ], 
                [
                    36321, 
                    [
                        {
                            "pitch": 72, 
                            "t0": 36321, 
                            "v": 84, 
                            "dur": 135, 
                            "type": "note", 
                            "channel": 10
                        }
                    ]
                ], 
                [
                    36604, 
                    [
                        {
                            "pitch": 75, 
                            "t0": 36604, 
                            "v": 112, 
                            "dur": 146, 
                            "type": "note", 
                            "channel": 10
                        }
                    ]
                ], 
                [
                    36730, 
                    [
                        {
                            "pitch": 77, 
                            "t0": 36730, 
                            "v": 84, 
                            "dur": 182, 
                            "type": "note", 
                            "channel": 10
                        }
                    ]
                ], 
                [
                    37089, 
                    [
                        {
                            "pitch": 51, 
                            "t0": 37089, 
                            "v": 88, 
                            "dur": 124, 
                            "type": "note", 
                            "channel": 10
                        }
                    ]
                ], 
                [
                    37209, 
                    [
                        {
                            "pitch": 53, 
                            "t0": 37209, 
                            "v": 72, 
                            "dur": 143, 
                            "type": "note", 
                            "channel": 10
                        }
                    ]
                ], 
                [
                    37480, 
                    [
                        {
                            "pitch": 58, 
                            "t0": 37480, 
                            "v": 104, 
                            "dur": 123, 
                            "type": "note", 
                            "channel": 10
                        }
                    ]
                ], 
                [
                    37598, 
                    [
                        {
                            "pitch": 60, 
                            "t0": 37598, 
                            "v": 72, 
                            "dur": 126, 
                            "type": "note", 
                            "channel": 10
                        }
                    ]
                ], 
                [
                    37855, 
                    [
                        {
                            "pitch": 63, 
                            "t0": 37855, 
                            "v": 108, 
                            "dur": 156, 
                            "type": "note", 
                            "channel": 10
                        }
                    ]
                ], 
                [
                    38001, 
                    [
                        {
                            "pitch": 65, 
                            "t0": 38001, 
                            "v": 88, 
                            "dur": 110, 
                            "type": "note", 
                            "channel": 10
                        }
                    ]
                ], 
                [
                    38249, 
                    [
                        {
                            "pitch": 70, 
                            "t0": 38249, 
                            "v": 104, 
                            "dur": 125, 
                            "type": "note", 
                            "channel": 10
                        }
                    ]
                ], 
                [
                    38361, 
                    [
                        {
                            "pitch": 72, 
                            "t0": 38361, 
                            "v": 92, 
                            "dur": 120, 
                            "type": "note", 
                            "channel": 10
                        }
                    ]
                ], 
                [
                    38628, 
                    [
                        {
                            "pitch": 75, 
                            "t0": 38628, 
                            "v": 112, 
                            "dur": 135, 
                            "type": "note", 
                            "channel": 10
                        }
                    ]
                ], 
                [
                    38739, 
                    [
                        {
                            "pitch": 77, 
                            "t0": 38739, 
                            "v": 100, 
                            "dur": 181, 
                            "type": "note", 
                            "channel": 10
                        }
                    ]
                ], 
                [
                    39124, 
                    [
                        {
                            "pitch": 51, 
                            "t0": 39124, 
                            "v": 100, 
                            "dur": 161, 
                            "type": "note", 
                            "channel": 10
                        }
                    ]
                ], 
                [
                    39274, 
                    [
                        {
                            "pitch": 53, 
                            "t0": 39274, 
                            "v": 80, 
                            "dur": 135, 
                            "type": "note", 
                            "channel": 10
                        }
                    ]
                ], 
                [
                    39550, 
                    [
                        {
                            "pitch": 58, 
                            "t0": 39550, 
                            "v": 108, 
                            "dur": 121, 
                            "type": "note", 
                            "channel": 10
                        }
                    ]
                ], 
                [
                    39660, 
                    [
                        {
                            "pitch": 60, 
                            "t0": 39660, 
                            "v": 72, 
                            "dur": 126, 
                            "type": "note", 
                            "channel": 10
                        }
                    ]
                ], 
                [
                    39907, 
                    [
                        {
                            "pitch": 63, 
                            "t0": 39907, 
                            "v": 108, 
                            "dur": 146, 
                            "type": "note", 
                            "channel": 10
                        }
                    ]
                ], 
                [
                    40043, 
                    [
                        {
                            "pitch": 65, 
                            "t0": 40043, 
                            "v": 76, 
                            "dur": 121, 
                            "type": "note", 
                            "channel": 10
                        }
                    ]
                ], 
                [
                    40299, 
                    [
                        {
                            "pitch": 70, 
                            "t0": 40299, 
                            "v": 108, 
                            "dur": 132, 
                            "type": "note", 
                            "channel": 10
                        }
                    ]
                ], 
                [
                    40424, 
                    [
                        {
                            "pitch": 72, 
                            "t0": 40424, 
                            "v": 92, 
                            "dur": 123, 
                            "type": "note", 
                            "channel": 10
                        }
                    ]
                ], 
                [
                    40696, 
                    [
                        {
                            "pitch": 75, 
                            "t0": 40696, 
                            "v": 116, 
                            "dur": 154, 
                            "type": "note", 
                            "channel": 10
                        }
                    ]
                ], 
                [
                    40827, 
                    [
                        {
                            "pitch": 77, 
                            "t0": 40827, 
                            "v": 76, 
                            "dur": 202, 
                            "type": "note", 
                            "channel": 10
                        }
                    ]
                ], 
                [
                    41196, 
                    [
                        {
                            "pitch": 51, 
                            "t0": 41196, 
                            "v": 92, 
                            "dur": 90, 
                            "type": "note", 
                            "channel": 10
                        }
                    ]
                ], 
                [
                    41325, 
                    [
                        {
                            "pitch": 53, 
                            "t0": 41325, 
                            "v": 84, 
                            "dur": 139, 
                            "type": "note", 
                            "channel": 10
                        }
                    ]
                ], 
                [
                    41591, 
                    [
                        {
                            "pitch": 58, 
                            "t0": 41591, 
                            "v": 108, 
                            "dur": 137, 
                            "type": "note", 
                            "channel": 10
                        }
                    ]
                ], 
                [
                    41721, 
                    [
                        {
                            "pitch": 60, 
                            "t0": 41721, 
                            "v": 64, 
                            "dur": 148, 
                            "type": "note", 
                            "channel": 10
                        }
                    ]
                ], 
                [
                    41984, 
                    [
                        {
                            "pitch": 63, 
                            "t0": 41984, 
                            "v": 92, 
                            "dur": 154, 
                            "type": "note", 
                            "channel": 10
                        }
                    ]
                ], 
                [
                    42120, 
                    [
                        {
                            "pitch": 65, 
                            "t0": 42120, 
                            "v": 68, 
                            "dur": 146, 
                            "type": "note", 
                            "channel": 10
                        }
                    ]
                ], 
                [
                    42388, 
                    [
                        {
                            "pitch": 70, 
                            "t0": 42388, 
                            "v": 100, 
                            "dur": 143, 
                            "type": "note", 
                            "channel": 10
                        }
                    ]
                ], 
                [
                    42519, 
                    [
                        {
                            "pitch": 72, 
                            "t0": 42519, 
                            "v": 84, 
                            "dur": 134, 
                            "type": "note", 
                            "channel": 10
                        }
                    ]
                ], 
                [
                    42785, 
                    [
                        {
                            "pitch": 75, 
                            "t0": 42785, 
                            "v": 104, 
                            "dur": 154, 
                            "type": "note", 
                            "channel": 10
                        }
                    ]
                ], 
                [
                    42918, 
                    [
                        {
                            "pitch": 77, 
                            "t0": 42918, 
                            "v": 68, 
                            "dur": 218, 
                            "type": "note", 
                            "channel": 10
                        }
                    ]
                ], 
                [
                    43318, 
                    [
                        {
                            "pitch": 51, 
                            "t0": 43318, 
                            "v": 88, 
                            "dur": 110, 
                            "type": "note", 
                            "channel": 10
                        }
                    ]
                ], 
                [
                    43427, 
                    [
                        {
                            "pitch": 53, 
                            "t0": 43427, 
                            "v": 72, 
                            "dur": 148, 
                            "type": "note", 
                            "channel": 10
                        }
                    ]
                ], 
                [
                    43686, 
                    [
                        {
                            "pitch": 58, 
                            "t0": 43686, 
                            "v": 112, 
                            "dur": 127, 
                            "type": "note", 
                            "channel": 10
                        }
                    ]
                ], 
                [
                    43804, 
                    [
                        {
                            "pitch": 60, 
                            "t0": 43804, 
                            "v": 68, 
                            "dur": 134, 
                            "type": "note", 
                            "channel": 10
                        }
                    ]
                ], 
                [
                    44063, 
                    [
                        {
                            "pitch": 63, 
                            "t0": 44063, 
                            "v": 108, 
                            "dur": 120, 
                            "type": "note", 
                            "channel": 10
                        }
                    ]
                ], 
                [
                    44184, 
                    [
                        {
                            "pitch": 65, 
                            "t0": 44184, 
                            "v": 80, 
                            "dur": 129, 
                            "type": "note", 
                            "channel": 10
                        }
                    ]
                ], 
                [
                    44441, 
                    [
                        {
                            "pitch": 70, 
                            "t0": 44441, 
                            "v": 104, 
                            "dur": 124, 
                            "type": "note", 
                            "channel": 10
                        }
                    ]
                ], 
                [
                    44559, 
                    [
                        {
                            "pitch": 72, 
                            "t0": 44559, 
                            "v": 76, 
                            "dur": 128, 
                            "type": "note", 
                            "channel": 10
                        }
                    ]
                ], 
                [
                    44837, 
                    [
                        {
                            "pitch": 75, 
                            "t0": 44837, 
                            "v": 112, 
                            "dur": 157, 
                            "type": "note", 
                            "channel": 10
                        }
                    ]
                ], 
                [
                    44971, 
                    [
                        {
                            "pitch": 77, 
                            "t0": 44971, 
                            "v": 64, 
                            "dur": 206, 
                            "type": "note", 
                            "channel": 10
                        }
                    ]
                ], 
                [
                    45348, 
                    [
                        {
                            "pitch": 51, 
                            "t0": 45348, 
                            "v": 88, 
                            "dur": 110, 
                            "type": "note", 
                            "channel": 10
                        }
                    ]
                ], 
                [
                    45457, 
                    [
                        {
                            "pitch": 53, 
                            "t0": 45457, 
                            "v": 92, 
                            "dur": 130, 
                            "type": "note", 
                            "channel": 10
                        }
                    ]
                ], 
                [
                    45716, 
                    [
                        {
                            "pitch": 58, 
                            "t0": 45716, 
                            "v": 104, 
                            "dur": 144, 
                            "type": "note", 
                            "channel": 10
                        }
                    ]
                ], 
                [
                    45856, 
                    [
                        {
                            "pitch": 60, 
                            "t0": 45856, 
                            "v": 72, 
                            "dur": 130, 
                            "type": "note", 
                            "channel": 10
                        }
                    ]
                ], 
                [
                    46107, 
                    [
                        {
                            "pitch": 63, 
                            "t0": 46107, 
                            "v": 92, 
                            "dur": 139, 
                            "type": "note", 
                            "channel": 10
                        }
                    ]
                ], 
                [
                    46250, 
                    [
                        {
                            "pitch": 65, 
                            "t0": 46250, 
                            "v": 72, 
                            "dur": 105, 
                            "type": "note", 
                            "channel": 10
                        }
                    ]
                ], 
                [
                    46523, 
                    [
                        {
                            "pitch": 70, 
                            "t0": 46523, 
                            "v": 108, 
                            "dur": 139, 
                            "type": "note", 
                            "channel": 10
                        }
                    ]
                ], 
                [
                    46657, 
                    [
                        {
                            "pitch": 72, 
                            "t0": 46657, 
                            "v": 72, 
                            "dur": 137, 
                            "type": "note", 
                            "channel": 10
                        }
                    ]
                ], 
                [
                    46932, 
                    [
                        {
                            "pitch": 75, 
                            "t0": 46932, 
                            "v": 108, 
                            "dur": 137, 
                            "type": "note", 
                            "channel": 10
                        }
                    ]
                ], 
                [
                    47053, 
                    [
                        {
                            "pitch": 77, 
                            "t0": 47053, 
                            "v": 54, 
                            "dur": 218, 
                            "type": "note", 
                            "channel": 10
                        }
                    ]
                ], 
                [
                    47455, 
                    [
                        {
                            "pitch": 51, 
                            "t0": 47455, 
                            "v": 96, 
                            "dur": 91, 
                            "type": "note", 
                            "channel": 10
                        }
                    ]
                ], 
                [
                    47562, 
                    [
                        {
                            "pitch": 53, 
                            "t0": 47562, 
                            "v": 68, 
                            "dur": 127, 
                            "type": "note", 
                            "channel": 10
                        }
                    ]
                ], 
                [
                    47813, 
                    [
                        {
                            "pitch": 58, 
                            "t0": 47813, 
                            "v": 104, 
                            "dur": 150, 
                            "type": "note", 
                            "channel": 10
                        }
                    ]
                ], 
                [
                    47951, 
                    [
                        {
                            "pitch": 60, 
                            "t0": 47951, 
                            "v": 72, 
                            "dur": 128, 
                            "type": "note", 
                            "channel": 10
                        }
                    ]
                ], 
                [
                    48226, 
                    [
                        {
                            "pitch": 63, 
                            "t0": 48226, 
                            "v": 100, 
                            "dur": 144, 
                            "type": "note", 
                            "channel": 10
                        }
                    ]
                ], 
                [
                    48357, 
                    [
                        {
                            "pitch": 65, 
                            "t0": 48357, 
                            "v": 76, 
                            "dur": 117, 
                            "type": "note", 
                            "channel": 10
                        }
                    ]
                ], 
                [
                    48614, 
                    [
                        {
                            "pitch": 70, 
                            "t0": 48614, 
                            "v": 96, 
                            "dur": 121, 
                            "type": "note", 
                            "channel": 10
                        }
                    ]
                ], 
                [
                    48729, 
                    [
                        {
                            "pitch": 72, 
                            "t0": 48729, 
                            "v": 64, 
                            "dur": 143, 
                            "type": "note", 
                            "channel": 10
                        }
                    ]
                ], 
                [
                    49003, 
                    [
                        {
                            "pitch": 75, 
                            "t0": 49003, 
                            "v": 108, 
                            "dur": 149, 
                            "type": "note", 
                            "channel": 10
                        }
                    ]
                ], 
                [
                    49133, 
                    [
                        {
                            "pitch": 77, 
                            "t0": 49133, 
                            "v": 56, 
                            "dur": 217, 
                            "type": "note", 
                            "channel": 10
                        }
                    ]
                ], 
                [
                    49533, 
                    [
                        {
                            "pitch": 51, 
                            "t0": 49533, 
                            "v": 84, 
                            "dur": 110, 
                            "type": "note", 
                            "channel": 10
                        }
                    ]
                ], 
                [
                    49657, 
                    [
                        {
                            "pitch": 53, 
                            "t0": 49657, 
                            "v": 52, 
                            "dur": 130, 
                            "type": "note", 
                            "channel": 10
                        }
                    ]
                ], 
                [
                    49945, 
                    [
                        {
                            "pitch": 58, 
                            "t0": 49945, 
                            "v": 100, 
                            "dur": 118, 
                            "type": "note", 
                            "channel": 10
                        }
                    ]
                ], 
                [
                    50063, 
                    [
                        {
                            "pitch": 60, 
                            "t0": 50063, 
                            "v": 50, 
                            "dur": 158, 
                            "type": "note", 
                            "channel": 10
                        }
                    ]
                ], 
                [
                    50334, 
                    [
                        {
                            "pitch": 63, 
                            "t0": 50334, 
                            "v": 92, 
                            "dur": 126, 
                            "type": "note", 
                            "channel": 10
                        }
                    ]
                ], 
                [
                    50460, 
                    [
                        {
                            "pitch": 65, 
                            "t0": 50460, 
                            "v": 64, 
                            "dur": 141, 
                            "type": "note", 
                            "channel": 10
                        }
                    ]
                ], 
                [
                    50710, 
                    [
                        {
                            "pitch": 70, 
                            "t0": 50710, 
                            "v": 96, 
                            "dur": 130, 
                            "type": "note", 
                            "channel": 10
                        }
                    ]
                ], 
                [
                    50834, 
                    [
                        {
                            "pitch": 72, 
                            "t0": 50834, 
                            "v": 72, 
                            "dur": 155, 
                            "type": "note", 
                            "channel": 10
                        }
                    ]
                ], 
                [
                    51108, 
                    [
                        {
                            "pitch": 75, 
                            "t0": 51108, 
                            "v": 96, 
                            "dur": 135, 
                            "type": "note", 
                            "channel": 10
                        }
                    ]
                ], 
                [
                    51226, 
                    [
                        {
                            "pitch": 77, 
                            "t0": 51226, 
                            "v": 48, 
                            "dur": 195, 
                            "type": "note", 
                            "channel": 10
                        }
                    ]
                ], 
                [
                    51615, 
                    [
                        {
                            "pitch": 51, 
                            "t0": 51615, 
                            "v": 76, 
                            "dur": 119, 
                            "type": "note", 
                            "channel": 10
                        }
                    ]
                ], 
                [
                    51732, 
                    [
                        {
                            "pitch": 53, 
                            "t0": 51732, 
                            "v": 33, 
                            "dur": 140, 
                            "type": "note", 
                            "channel": 10
                        }
                    ]
                ], 
                [
                    52004, 
                    [
                        {
                            "pitch": 58, 
                            "t0": 52004, 
                            "v": 100, 
                            "dur": 125, 
                            "type": "note", 
                            "channel": 10
                        }
                    ]
                ], 
                [
                    52127, 
                    [
                        {
                            "pitch": 60, 
                            "t0": 52127, 
                            "v": 60, 
                            "dur": 141, 
                            "type": "note", 
                            "channel": 10
                        }
                    ]
                ], 
                [
                    52388, 
                    [
                        {
                            "pitch": 63, 
                            "t0": 52388, 
                            "v": 104, 
                            "dur": 126, 
                            "type": "note", 
                            "channel": 10
                        }
                    ]
                ], 
                [
                    52520, 
                    [
                        {
                            "pitch": 65, 
                            "t0": 52520, 
                            "v": 52, 
                            "dur": 117, 
                            "type": "note", 
                            "channel": 10
                        }
                    ]
                ], 
                [
                    52774, 
                    [
                        {
                            "pitch": 70, 
                            "t0": 52774, 
                            "v": 100, 
                            "dur": 142, 
                            "type": "note", 
                            "channel": 10
                        }
                    ]
                ], 
                [
                    52904, 
                    [
                        {
                            "pitch": 72, 
                            "t0": 52904, 
                            "v": 64, 
                            "dur": 147, 
                            "type": "note", 
                            "channel": 10
                        }
                    ]
                ], 
                [
                    53183, 
                    [
                        {
                            "pitch": 75, 
                            "t0": 53183, 
                            "v": 100, 
                            "dur": 134, 
                            "type": "note", 
                            "channel": 10
                        }
                    ]
                ], 
                [
                    53298, 
                    [
                        {
                            "pitch": 77, 
                            "t0": 53298, 
                            "v": 56, 
                            "dur": 208, 
                            "type": "note", 
                            "channel": 10
                        }
                    ]
                ], 
                [
                    53691, 
                    [
                        {
                            "pitch": 51, 
                            "t0": 53691, 
                            "v": 72, 
                            "dur": 140, 
                            "type": "note", 
                            "channel": 10
                        }
                    ]
                ], 
                [
                    53823, 
                    [
                        {
                            "pitch": 53, 
                            "t0": 53823, 
                            "v": 58, 
                            "dur": 140, 
                            "type": "note", 
                            "channel": 10
                        }
                    ]
                ], 
                [
                    54091, 
                    [
                        {
                            "pitch": 58, 
                            "t0": 54091, 
                            "v": 84, 
                            "dur": 146, 
                            "type": "note", 
                            "channel": 10
                        }
                    ]
                ], 
                [
                    54224, 
                    [
                        {
                            "pitch": 60, 
                            "t0": 54224, 
                            "v": 68, 
                            "dur": 155, 
                            "type": "note", 
                            "channel": 10
                        }
                    ]
                ], 
                [
                    54497, 
                    [
                        {
                            "pitch": 63, 
                            "t0": 54497, 
                            "v": 96, 
                            "dur": 128, 
                            "type": "note", 
                            "channel": 10
                        }
                    ]
                ], 
                [
                    54622, 
                    [
                        {
                            "pitch": 65, 
                            "t0": 54622, 
                            "v": 60, 
                            "dur": 126, 
                            "type": "note", 
                            "channel": 10
                        }
                    ]
                ], 
                [
                    54874, 
                    [
                        {
                            "pitch": 70, 
                            "t0": 54874, 
                            "v": 92, 
                            "dur": 134, 
                            "type": "note", 
                            "channel": 10
                        }
                    ]
                ], 
                [
                    54999, 
                    [
                        {
                            "pitch": 72, 
                            "t0": 54999, 
                            "v": 60, 
                            "dur": 133, 
                            "type": "note", 
                            "channel": 10
                        }
                    ]
                ], 
                [
                    55271, 
                    [
                        {
                            "pitch": 75, 
                            "t0": 55271, 
                            "v": 92, 
                            "dur": 132, 
                            "type": "note", 
                            "channel": 10
                        }
                    ]
                ], 
                [
                    55389, 
                    [
                        {
                            "pitch": 77, 
                            "t0": 55389, 
                            "v": 56, 
                            "dur": 187, 
                            "type": "note", 
                            "channel": 10
                        }
                    ]
                ], 
                [
                    55765, 
                    [
                        {
                            "pitch": 51, 
                            "t0": 55765, 
                            "v": 92, 
                            "dur": 148, 
                            "type": "note", 
                            "channel": 10
                        }
                    ]
                ], 
                [
                    55910, 
                    [
                        {
                            "pitch": 53, 
                            "t0": 55910, 
                            "v": 52, 
                            "dur": 141, 
                            "type": "note", 
                            "channel": 10
                        }
                    ]
                ], 
                [
                    56179, 
                    [
                        {
                            "pitch": 58, 
                            "t0": 56179, 
                            "v": 96, 
                            "dur": 128, 
                            "type": "note", 
                            "channel": 10
                        }
                    ]
                ], 
                [
                    56310, 
                    [
                        {
                            "pitch": 60, 
                            "t0": 56310, 
                            "v": 64, 
                            "dur": 148, 
                            "type": "note", 
                            "channel": 10
                        }
                    ]
                ], 
                [
                    56568, 
                    [
                        {
                            "pitch": 63, 
                            "t0": 56568, 
                            "v": 84, 
                            "dur": 143, 
                            "type": "note", 
                            "channel": 10
                        }
                    ]
                ], 
                [
                    56706, 
                    [
                        {
                            "pitch": 65, 
                            "t0": 56706, 
                            "v": 56, 
                            "dur": 127, 
                            "type": "note", 
                            "channel": 10
                        }
                    ]
                ], 
                [
                    56957, 
                    [
                        {
                            "pitch": 70, 
                            "t0": 56957, 
                            "v": 96, 
                            "dur": 131, 
                            "type": "note", 
                            "channel": 10
                        }
                    ]
                ], 
                [
                    57077, 
                    [
                        {
                            "pitch": 72, 
                            "t0": 57077, 
                            "v": 76, 
                            "dur": 143, 
                            "type": "note", 
                            "channel": 10
                        }
                    ]
                ], 
                [
                    57342, 
                    [
                        {
                            "pitch": 75, 
                            "t0": 57342, 
                            "v": 104, 
                            "dur": 134, 
                            "type": "note", 
                            "channel": 10
                        }
                    ]
                ], 
                [
                    57464, 
                    [
                        {
                            "pitch": 77, 
                            "t0": 57464, 
                            "v": 68, 
                            "dur": 203, 
                            "type": "note", 
                            "channel": 10
                        }
                    ]
                ], 
                [
                    57850, 
                    [
                        {
                            "pitch": 51, 
                            "t0": 57850, 
                            "v": 92, 
                            "dur": 143, 
                            "type": "note", 
                            "channel": 10
                        }
                    ]
                ], 
                [
                    57986, 
                    [
                        {
                            "pitch": 53, 
                            "t0": 57986, 
                            "v": 50, 
                            "dur": 155, 
                            "type": "note", 
                            "channel": 10
                        }
                    ]
                ], 
                [
                    58247, 
                    [
                        {
                            "pitch": 58, 
                            "t0": 58247, 
                            "v": 100, 
                            "dur": 140, 
                            "type": "note", 
                            "channel": 10
                        }
                    ]
                ], 
                [
                    58375, 
                    [
                        {
                            "pitch": 60, 
                            "t0": 58375, 
                            "v": 58, 
                            "dur": 148, 
                            "type": "note", 
                            "channel": 10
                        }
                    ]
                ], 
                [
                    58631, 
                    [
                        {
                            "pitch": 63, 
                            "t0": 58631, 
                            "v": 108, 
                            "dur": 126, 
                            "type": "note", 
                            "channel": 10
                        }
                    ]
                ], 
                [
                    58754, 
                    [
                        {
                            "pitch": 65, 
                            "t0": 58754, 
                            "v": 80, 
                            "dur": 130, 
                            "type": "note", 
                            "channel": 10
                        }
                    ]
                ], 
                [
                    59019, 
                    [
                        {
                            "pitch": 70, 
                            "t0": 59019, 
                            "v": 104, 
                            "dur": 126, 
                            "type": "note", 
                            "channel": 10
                        }
                    ]
                ], 
                [
                    59138, 
                    [
                        {
                            "pitch": 72, 
                            "t0": 59138, 
                            "v": 76, 
                            "dur": 132, 
                            "type": "note", 
                            "channel": 10
                        }
                    ]
                ], 
                [
                    59395, 
                    [
                        {
                            "pitch": 75, 
                            "t0": 59395, 
                            "v": 104, 
                            "dur": 128, 
                            "type": "note", 
                            "channel": 10
                        }
                    ]
                ], 
                [
                    59508, 
                    [
                        {
                            "pitch": 77, 
                            "t0": 59508, 
                            "v": 58, 
                            "dur": 233, 
                            "type": "note", 
                            "channel": 10
                        }
                    ]
                ], 
                [
                    59912, 
                    [
                        {
                            "pitch": 51, 
                            "t0": 59912, 
                            "v": 84, 
                            "dur": 118, 
                            "type": "note", 
                            "channel": 10
                        }
                    ]
                ], 
                [
                    60033, 
                    [
                        {
                            "pitch": 53, 
                            "t0": 60033, 
                            "v": 54, 
                            "dur": 140, 
                            "type": "note", 
                            "channel": 10
                        }
                    ]
                ], 
                [
                    60294, 
                    [
                        {
                            "pitch": 58, 
                            "t0": 60294, 
                            "v": 100, 
                            "dur": 137, 
                            "type": "note", 
                            "channel": 10
                        }
                    ]
                ], 
                [
                    60430, 
                    [
                        {
                            "pitch": 60, 
                            "t0": 60430, 
                            "v": 80, 
                            "dur": 138, 
                            "type": "note", 
                            "channel": 10
                        }
                    ]
                ], 
                [
                    60695, 
                    [
                        {
                            "pitch": 63, 
                            "t0": 60695, 
                            "v": 92, 
                            "dur": 138, 
                            "type": "note", 
                            "channel": 10
                        }
                    ]
                ], 
                [
                    60818, 
                    [
                        {
                            "pitch": 65, 
                            "t0": 60818, 
                            "v": 58, 
                            "dur": 118, 
                            "type": "note", 
                            "channel": 10
                        }
                    ]
                ], 
                [
                    61085, 
                    [
                        {
                            "pitch": 70, 
                            "t0": 61085, 
                            "v": 100, 
                            "dur": 128, 
                            "type": "note", 
                            "channel": 10
                        }
                    ]
                ], 
                [
                    61203, 
                    [
                        {
                            "pitch": 72, 
                            "t0": 61203, 
                            "v": 64, 
                            "dur": 142, 
                            "type": "note", 
                            "channel": 10
                        }
                    ]
                ], 
                [
                    61467, 
                    [
                        {
                            "pitch": 75, 
                            "t0": 61467, 
                            "v": 104, 
                            "dur": 136, 
                            "type": "note", 
                            "channel": 10
                        }
                    ]
                ], 
                [
                    61590, 
                    [
                        {
                            "pitch": 77, 
                            "t0": 61590, 
                            "v": 64, 
                            "dur": 231, 
                            "type": "note", 
                            "channel": 10
                        }
                    ]
                ], 
                [
                    61979, 
                    [
                        {
                            "pitch": 51, 
                            "t0": 61979, 
                            "v": 88, 
                            "dur": 111, 
                            "type": "note", 
                            "channel": 10
                        }
                    ]
                ], 
                [
                    62090, 
                    [
                        {
                            "pitch": 53, 
                            "t0": 62090, 
                            "v": 64, 
                            "dur": 136, 
                            "type": "note", 
                            "channel": 10
                        }
                    ]
                ], 
                [
                    62354, 
                    [
                        {
                            "pitch": 58, 
                            "t0": 62354, 
                            "v": 104, 
                            "dur": 122, 
                            "type": "note", 
                            "channel": 10
                        }
                    ]
                ], 
                [
                    62475, 
                    [
                        {
                            "pitch": 60, 
                            "t0": 62475, 
                            "v": 68, 
                            "dur": 133, 
                            "type": "note", 
                            "channel": 10
                        }
                    ]
                ], 
                [
                    62728, 
                    [
                        {
                            "pitch": 63, 
                            "t0": 62728, 
                            "v": 100, 
                            "dur": 130, 
                            "type": "note", 
                            "channel": 10
                        }
                    ]
                ], 
                [
                    62849, 
                    [
                        {
                            "pitch": 65, 
                            "t0": 62849, 
                            "v": 60, 
                            "dur": 144, 
                            "type": "note", 
                            "channel": 10
                        }
                    ]
                ], 
                [
                    63132, 
                    [
                        {
                            "pitch": 70, 
                            "t0": 63132, 
                            "v": 88, 
                            "dur": 126, 
                            "type": "note", 
                            "channel": 10
                        }
                    ]
                ], 
                [
                    63253, 
                    [
                        {
                            "pitch": 72, 
                            "t0": 63253, 
                            "v": 76, 
                            "dur": 136, 
                            "type": "note", 
                            "channel": 10
                        }
                    ]
                ], 
                [
                    63511, 
                    [
                        {
                            "pitch": 75, 
                            "t0": 63511, 
                            "v": 96, 
                            "dur": 125, 
                            "type": "note", 
                            "channel": 10
                        }
                    ]
                ], 
                [
                    63620, 
                    [
                        {
                            "pitch": 77, 
                            "t0": 63620, 
                            "v": 58, 
                            "dur": 268, 
                            "type": "note", 
                            "channel": 10
                        }
                    ]
                ], 
                [
                    64045, 
                    [
                        {
                            "pitch": 51, 
                            "t0": 64045, 
                            "v": 80, 
                            "dur": 86, 
                            "type": "note", 
                            "channel": 10
                        }
                    ]
                ], 
                [
                    64168, 
                    [
                        {
                            "pitch": 53, 
                            "t0": 64168, 
                            "v": 60, 
                            "dur": 118, 
                            "type": "note", 
                            "channel": 10
                        }
                    ]
                ], 
                [
                    64408, 
                    [
                        {
                            "pitch": 58, 
                            "t0": 64408, 
                            "v": 104, 
                            "dur": 147, 
                            "type": "note", 
                            "channel": 10
                        }
                    ]
                ], 
                [
                    64544, 
                    [
                        {
                            "pitch": 60, 
                            "t0": 64544, 
                            "v": 72, 
                            "dur": 123, 
                            "type": "note", 
                            "channel": 10
                        }
                    ]
                ], 
                [
                    64789, 
                    [
                        {
                            "pitch": 63, 
                            "t0": 64789, 
                            "v": 92, 
                            "dur": 148, 
                            "type": "note", 
                            "channel": 10
                        }
                    ]
                ], 
                [
                    64931, 
                    [
                        {
                            "pitch": 65, 
                            "t0": 64931, 
                            "v": 54, 
                            "dur": 126, 
                            "type": "note", 
                            "channel": 10
                        }
                    ]
                ], 
                [
                    65205, 
                    [
                        {
                            "pitch": 70, 
                            "t0": 65205, 
                            "v": 88, 
                            "dur": 118, 
                            "type": "note", 
                            "channel": 10
                        }
                    ]
                ], 
                [
                    65321, 
                    [
                        {
                            "pitch": 72, 
                            "t0": 65321, 
                            "v": 68, 
                            "dur": 132, 
                            "type": "note", 
                            "channel": 10
                        }
                    ]
                ], 
                [
                    65583, 
                    [
                        {
                            "pitch": 75, 
                            "t0": 65583, 
                            "v": 92, 
                            "dur": 148, 
                            "type": "note", 
                            "channel": 10
                        }
                    ]
                ], 
                [
                    65714, 
                    [
                        {
                            "pitch": 77, 
                            "t0": 65714, 
                            "v": 56, 
                            "dur": 214, 
                            "type": "note", 
                            "channel": 10
                        }
                    ]
                ], 
                [
                    66109, 
                    [
                        {
                            "pitch": 51, 
                            "t0": 66109, 
                            "v": 88, 
                            "dur": 126, 
                            "type": "note", 
                            "channel": 10
                        }
                    ]
                ], 
                [
                    66227, 
                    [
                        {
                            "pitch": 53, 
                            "t0": 66227, 
                            "v": 60, 
                            "dur": 146, 
                            "type": "note", 
                            "channel": 10
                        }
                    ]
                ], 
                [
                    66501, 
                    [
                        {
                            "pitch": 58, 
                            "t0": 66501, 
                            "v": 84, 
                            "dur": 141, 
                            "type": "note", 
                            "channel": 10
                        }
                    ]
                ], 
                [
                    66632, 
                    [
                        {
                            "pitch": 60, 
                            "t0": 66632, 
                            "v": 72, 
                            "dur": 147, 
                            "type": "note", 
                            "channel": 10
                        }
                    ]
                ], 
                [
                    66896, 
                    [
                        {
                            "pitch": 63, 
                            "t0": 66896, 
                            "v": 88, 
                            "dur": 129, 
                            "type": "note", 
                            "channel": 10
                        }
                    ]
                ], 
                [
                    67022, 
                    [
                        {
                            "pitch": 65, 
                            "t0": 67022, 
                            "v": 72, 
                            "dur": 120, 
                            "type": "note", 
                            "channel": 10
                        }
                    ]
                ], 
                [
                    67288, 
                    [
                        {
                            "pitch": 70, 
                            "t0": 67288, 
                            "v": 100, 
                            "dur": 126, 
                            "type": "note", 
                            "channel": 10
                        }
                    ]
                ], 
                [
                    67403, 
                    [
                        {
                            "pitch": 72, 
                            "t0": 67403, 
                            "v": 64, 
                            "dur": 138, 
                            "type": "note", 
                            "channel": 10
                        }
                    ]
                ], 
                [
                    67665, 
                    [
                        {
                            "pitch": 75, 
                            "t0": 67665, 
                            "v": 100, 
                            "dur": 134, 
                            "type": "note", 
                            "channel": 10
                        }
                    ]
                ], 
                [
                    67782, 
                    [
                        {
                            "pitch": 77, 
                            "t0": 67782, 
                            "v": 60, 
                            "dur": 277, 
                            "type": "note", 
                            "channel": 10
                        }
                    ]
                ], 
                [
                    68204, 
                    [
                        {
                            "pitch": 51, 
                            "t0": 68204, 
                            "v": 100, 
                            "dur": 95, 
                            "type": "note", 
                            "channel": 10
                        }
                    ]
                ], 
                [
                    68304, 
                    [
                        {
                            "pitch": 53, 
                            "t0": 68304, 
                            "v": 64, 
                            "dur": 152, 
                            "type": "note", 
                            "channel": 10
                        }
                    ]
                ], 
                [
                    68573, 
                    [
                        {
                            "pitch": 58, 
                            "t0": 68573, 
                            "v": 104, 
                            "dur": 126, 
                            "type": "note", 
                            "channel": 10
                        }
                    ]
                ], 
                [
                    68697, 
                    [
                        {
                            "pitch": 60, 
                            "t0": 68697, 
                            "v": 50, 
                            "dur": 145, 
                            "type": "note", 
                            "channel": 10
                        }
                    ]
                ], 
                [
                    68964, 
                    [
                        {
                            "pitch": 63, 
                            "t0": 68964, 
                            "v": 96, 
                            "dur": 129, 
                            "type": "note", 
                            "channel": 10
                        }
                    ]
                ], 
                [
                    69078, 
                    [
                        {
                            "pitch": 65, 
                            "t0": 69078, 
                            "v": 54, 
                            "dur": 138, 
                            "type": "note", 
                            "channel": 10
                        }
                    ]
                ], 
                [
                    69356, 
                    [
                        {
                            "pitch": 70, 
                            "t0": 69356, 
                            "v": 88, 
                            "dur": 112, 
                            "type": "note", 
                            "channel": 10
                        }
                    ]
                ], 
                [
                    69464, 
                    [
                        {
                            "pitch": 72, 
                            "t0": 69464, 
                            "v": 60, 
                            "dur": 170, 
                            "type": "note", 
                            "channel": 10
                        }
                    ]
                ], 
                [
                    69751, 
                    [
                        {
                            "pitch": 75, 
                            "t0": 69751, 
                            "v": 92, 
                            "dur": 141, 
                            "type": "note", 
                            "channel": 10
                        }
                    ]
                ], 
                [
                    69877, 
                    [
                        {
                            "pitch": 77, 
                            "t0": 69877, 
                            "v": 68, 
                            "dur": 231, 
                            "type": "note", 
                            "channel": 10
                        }
                    ]
                ], 
                [
                    70263, 
                    [
                        {
                            "pitch": 51, 
                            "t0": 70263, 
                            "v": 68, 
                            "dur": 89, 
                            "type": "note", 
                            "channel": 10
                        }
                    ]
                ], 
                [
                    70359, 
                    [
                        {
                            "pitch": 53, 
                            "t0": 70359, 
                            "v": 54, 
                            "dur": 170, 
                            "type": "note", 
                            "channel": 10
                        }
                    ]
                ], 
                [
                    70642, 
                    [
                        {
                            "pitch": 58, 
                            "t0": 70642, 
                            "v": 96, 
                            "dur": 135, 
                            "type": "note", 
                            "channel": 10
                        }
                    ]
                ], 
                [
                    70766, 
                    [
                        {
                            "pitch": 60, 
                            "t0": 70766, 
                            "v": 64, 
                            "dur": 173, 
                            "type": "note", 
                            "channel": 10
                        }
                    ]
                ], 
                [
                    71028, 
                    [
                        {
                            "pitch": 63, 
                            "t0": 71028, 
                            "v": 104, 
                            "dur": 129, 
                            "type": "note", 
                            "channel": 10
                        }
                    ]
                ], 
                [
                    71139, 
                    [
                        {
                            "pitch": 65, 
                            "t0": 71139, 
                            "v": 50, 
                            "dur": 161, 
                            "type": "note", 
                            "channel": 10
                        }
                    ]
                ], 
                [
                    71427, 
                    [
                        {
                            "pitch": 70, 
                            "t0": 71427, 
                            "v": 84, 
                            "dur": 133, 
                            "type": "note", 
                            "channel": 10
                        }
                    ]
                ], 
                [
                    71547, 
                    [
                        {
                            "pitch": 72, 
                            "t0": 71547, 
                            "v": 56, 
                            "dur": 153, 
                            "type": "note", 
                            "channel": 10
                        }
                    ]
                ], 
                [
                    71810, 
                    [
                        {
                            "pitch": 75, 
                            "t0": 71810, 
                            "v": 96, 
                            "dur": 134, 
                            "type": "note", 
                            "channel": 10
                        }
                    ]
                ], 
                [
                    71929, 
                    [
                        {
                            "pitch": 77, 
                            "t0": 71929, 
                            "v": 50, 
                            "dur": 243, 
                            "type": "note", 
                            "channel": 10
                        }
                    ]
                ], 
                [
                    72322, 
                    [
                        {
                            "pitch": 51, 
                            "t0": 72322, 
                            "v": 96, 
                            "dur": 107, 
                            "type": "note", 
                            "channel": 10
                        }
                    ]
                ], 
                [
                    72440, 
                    [
                        {
                            "pitch": 53, 
                            "t0": 72440, 
                            "v": 49, 
                            "dur": 150, 
                            "type": "note", 
                            "channel": 10
                        }
                    ]
                ], 
                [
                    72704, 
                    [
                        {
                            "pitch": 58, 
                            "t0": 72704, 
                            "v": 96, 
                            "dur": 135, 
                            "type": "note", 
                            "channel": 10
                        }
                    ]
                ], 
                [
                    72833, 
                    [
                        {
                            "pitch": 60, 
                            "t0": 72833, 
                            "v": 64, 
                            "dur": 155, 
                            "type": "note", 
                            "channel": 10
                        }
                    ]
                ], 
                [
                    73087, 
                    [
                        {
                            "pitch": 63, 
                            "t0": 73087, 
                            "v": 104, 
                            "dur": 133, 
                            "type": "note", 
                            "channel": 10
                        }
                    ]
                ], 
                [
                    73207, 
                    [
                        {
                            "pitch": 65, 
                            "t0": 73207, 
                            "v": 47, 
                            "dur": 140, 
                            "type": "note", 
                            "channel": 10
                        }
                    ]
                ], 
                [
                    73478, 
                    [
                        {
                            "pitch": 70, 
                            "t0": 73478, 
                            "v": 104, 
                            "dur": 123, 
                            "type": "note", 
                            "channel": 10
                        }
                    ]
                ], 
                [
                    73584, 
                    [
                        {
                            "pitch": 72, 
                            "t0": 73584, 
                            "v": 52, 
                            "dur": 162, 
                            "type": "note", 
                            "channel": 10
                        }
                    ]
                ], 
                [
                    73846, 
                    [
                        {
                            "pitch": 75, 
                            "t0": 73846, 
                            "v": 108, 
                            "dur": 130, 
                            "type": "note", 
                            "channel": 10
                        }
                    ]
                ], 
                [
                    73956, 
                    [
                        {
                            "pitch": 77, 
                            "t0": 73956, 
                            "v": 47, 
                            "dur": 200, 
                            "type": "note", 
                            "channel": 10
                        }
                    ]
                ], 
                [
                    74345, 
                    [
                        {
                            "pitch": 51, 
                            "t0": 74345, 
                            "v": 52, 
                            "dur": 132, 
                            "type": "note", 
                            "channel": 10
                        }
                    ]
                ], 
                [
                    74475, 
                    [
                        {
                            "pitch": 53, 
                            "t0": 74475, 
                            "v": 49, 
                            "dur": 142, 
                            "type": "note", 
                            "channel": 10
                        }
                    ]
                ], 
                [
                    74727, 
                    [
                        {
                            "pitch": 58, 
                            "t0": 74727, 
                            "v": 92, 
                            "dur": 137, 
                            "type": "note", 
                            "channel": 10
                        }
                    ]
                ], 
                [
                    74852, 
                    [
                        {
                            "pitch": 60, 
                            "t0": 74852, 
                            "v": 64, 
                            "dur": 154, 
                            "type": "note", 
                            "channel": 10
                        }
                    ]
                ], 
                [
                    75113, 
                    [
                        {
                            "pitch": 63, 
                            "t0": 75113, 
                            "v": 88, 
                            "dur": 124, 
                            "type": "note", 
                            "channel": 10
                        }
                    ]
                ], 
                [
                    75230, 
                    [
                        {
                            "pitch": 65, 
                            "t0": 75230, 
                            "v": 47, 
                            "dur": 153, 
                            "type": "note", 
                            "channel": 10
                        }
                    ]
                ], 
                [
                    75492, 
                    [
                        {
                            "pitch": 70, 
                            "t0": 75492, 
                            "v": 80, 
                            "dur": 136, 
                            "type": "note", 
                            "channel": 10
                        }
                    ]
                ], 
                [
                    75616, 
                    [
                        {
                            "pitch": 72, 
                            "t0": 75616, 
                            "v": 72, 
                            "dur": 151, 
                            "type": "note", 
                            "channel": 10
                        }
                    ]
                ], 
                [
                    75881, 
                    [
                        {
                            "pitch": 75, 
                            "t0": 75881, 
                            "v": 96, 
                            "dur": 121, 
                            "type": "note", 
                            "channel": 10
                        }
                    ]
                ], 
                [
                    75985, 
                    [
                        {
                            "pitch": 77, 
                            "t0": 75985, 
                            "v": 47, 
                            "dur": 249, 
                            "type": "note", 
                            "channel": 10
                        }
                    ]
                ], 
                [
                    76379, 
                    [
                        {
                            "pitch": 51, 
                            "t0": 76379, 
                            "v": 96, 
                            "dur": 129, 
                            "type": "note", 
                            "channel": 10
                        }
                    ]
                ], 
                [
                    76507, 
                    [
                        {
                            "pitch": 53, 
                            "t0": 76507, 
                            "v": 76, 
                            "dur": 158, 
                            "type": "note", 
                            "channel": 10
                        }
                    ]
                ], 
                [
                    76788, 
                    [
                        {
                            "pitch": 58, 
                            "t0": 76788, 
                            "v": 88, 
                            "dur": 125, 
                            "type": "note", 
                            "channel": 10
                        }
                    ]
                ], 
                [
                    76905, 
                    [
                        {
                            "pitch": 60, 
                            "t0": 76905, 
                            "v": 46, 
                            "dur": 181, 
                            "type": "note", 
                            "channel": 10
                        }
                    ]
                ], 
                [
                    77178, 
                    [
                        {
                            "pitch": 63, 
                            "t0": 77178, 
                            "v": 96, 
                            "dur": 117, 
                            "type": "note", 
                            "channel": 10
                        }
                    ]
                ], 
                [
                    77285, 
                    [
                        {
                            "pitch": 65, 
                            "t0": 77285, 
                            "v": 50, 
                            "dur": 147, 
                            "type": "note", 
                            "channel": 10
                        }
                    ]
                ], 
                [
                    77550, 
                    [
                        {
                            "pitch": 70, 
                            "t0": 77550, 
                            "v": 84, 
                            "dur": 113, 
                            "type": "note", 
                            "channel": 10
                        }
                    ]
                ], 
                [
                    77661, 
                    [
                        {
                            "pitch": 72, 
                            "t0": 77661, 
                            "v": 56, 
                            "dur": 173, 
                            "type": "note", 
                            "channel": 10
                        }
                    ]
                ], 
                [
                    77923, 
                    [
                        {
                            "pitch": 75, 
                            "t0": 77923, 
                            "v": 100, 
                            "dur": 123, 
                            "type": "note", 
                            "channel": 10
                        }
                    ]
                ], 
                [
                    78034, 
                    [
                        {
                            "pitch": 77, 
                            "t0": 78034, 
                            "v": 56, 
                            "dur": 183, 
                            "type": "note", 
                            "channel": 10
                        }
                    ]
                ], 
                [
                    78414, 
                    [
                        {
                            "pitch": 51, 
                            "t0": 78414, 
                            "v": 88, 
                            "dur": 145, 
                            "type": "note", 
                            "channel": 10
                        }
                    ]
                ], 
                [
                    78552, 
                    [
                        {
                            "pitch": 53, 
                            "t0": 78552, 
                            "v": 60, 
                            "dur": 131, 
                            "type": "note", 
                            "channel": 10
                        }
                    ]
                ], 
                [
                    78815, 
                    [
                        {
                            "pitch": 58, 
                            "t0": 78815, 
                            "v": 92, 
                            "dur": 132, 
                            "type": "note", 
                            "channel": 10
                        }
                    ]
                ], 
                [
                    78931, 
                    [
                        {
                            "pitch": 60, 
                            "t0": 78931, 
                            "v": 60, 
                            "dur": 176, 
                            "type": "note", 
                            "channel": 10
                        }
                    ]
                ], 
                [
                    79204, 
                    [
                        {
                            "pitch": 63, 
                            "t0": 79204, 
                            "v": 100, 
                            "dur": 135, 
                            "type": "note", 
                            "channel": 10
                        }
                    ]
                ], 
                [
                    79327, 
                    [
                        {
                            "pitch": 65, 
                            "t0": 79327, 
                            "v": 48, 
                            "dur": 143, 
                            "type": "note", 
                            "channel": 10
                        }
                    ]
                ], 
                [
                    79595, 
                    [
                        {
                            "pitch": 70, 
                            "t0": 79595, 
                            "v": 100, 
                            "dur": 126, 
                            "type": "note", 
                            "channel": 10
                        }
                    ]
                ], 
                [
                    79712, 
                    [
                        {
                            "pitch": 72, 
                            "t0": 79712, 
                            "v": 72, 
                            "dur": 156, 
                            "type": "note", 
                            "channel": 10
                        }
                    ]
                ], 
                [
                    79972, 
                    [
                        {
                            "pitch": 75, 
                            "t0": 79972, 
                            "v": 96, 
                            "dur": 119, 
                            "type": "note", 
                            "channel": 10
                        }
                    ]
                ], 
                [
                    80075, 
                    [
                        {
                            "pitch": 77, 
                            "t0": 80075, 
                            "v": 50, 
                            "dur": 217, 
                            "type": "note", 
                            "channel": 10
                        }
                    ]
                ], 
                [
                    80452, 
                    [
                        {
                            "pitch": 51, 
                            "t0": 80452, 
                            "v": 96, 
                            "dur": 150, 
                            "type": "note", 
                            "channel": 10
                        }
                    ]
                ], 
                [
                    80602, 
                    [
                        {
                            "pitch": 53, 
                            "t0": 80602, 
                            "v": 47, 
                            "dur": 141, 
                            "type": "note", 
                            "channel": 10
                        }
                    ]
                ], 
                [
                    80878, 
                    [
                        {
                            "pitch": 58, 
                            "t0": 80878, 
                            "v": 96, 
                            "dur": 124, 
                            "type": "note", 
                            "channel": 10
                        }
                    ]
                ], 
                [
                    81003, 
                    [
                        {
                            "pitch": 60, 
                            "t0": 81003, 
                            "v": 56, 
                            "dur": 159, 
                            "type": "note", 
                            "channel": 10
                        }
                    ]
                ], 
                [
                    81260, 
                    [
                        {
                            "pitch": 63, 
                            "t0": 81260, 
                            "v": 92, 
                            "dur": 124, 
                            "type": "note", 
                            "channel": 10
                        }
                    ]
                ], 
                [
                    81380, 
                    [
                        {
                            "pitch": 65, 
                            "t0": 81380, 
                            "v": 41, 
                            "dur": 136, 
                            "type": "note", 
                            "channel": 10
                        }
                    ]
                ], 
                [
                    81650, 
                    [
                        {
                            "pitch": 70, 
                            "t0": 81650, 
                            "v": 104, 
                            "dur": 110, 
                            "type": "note", 
                            "channel": 10
                        }
                    ]
                ], 
                [
                    81762, 
                    [
                        {
                            "pitch": 72, 
                            "t0": 81762, 
                            "v": 64, 
                            "dur": 148, 
                            "type": "note", 
                            "channel": 10
                        }
                    ]
                ], 
                [
                    82044, 
                    [
                        {
                            "pitch": 75, 
                            "t0": 82044, 
                            "v": 104, 
                            "dur": 118, 
                            "type": "note", 
                            "channel": 10
                        }
                    ]
                ], 
                [
                    82144, 
                    [
                        {
                            "pitch": 77, 
                            "t0": 82144, 
                            "v": 52, 
                            "dur": 270, 
                            "type": "note", 
                            "channel": 10
                        }
                    ]
                ], 
                [
                    82593, 
                    [
                        {
                            "pitch": 51, 
                            "t0": 82593, 
                            "v": 88, 
                            "dur": 110, 
                            "type": "note", 
                            "channel": 10
                        }
                    ]
                ], 
                [
                    82705, 
                    [
                        {
                            "pitch": 53, 
                            "t0": 82705, 
                            "v": 52, 
                            "dur": 148, 
                            "type": "note", 
                            "channel": 10
                        }
                    ]
                ], 
                [
                    82963, 
                    [
                        {
                            "pitch": 58, 
                            "t0": 82963, 
                            "v": 100, 
                            "dur": 127, 
                            "type": "note", 
                            "channel": 10
                        }
                    ]
                ], 
                [
                    83083, 
                    [
                        {
                            "pitch": 60, 
                            "t0": 83083, 
                            "v": 58, 
                            "dur": 161, 
                            "type": "note", 
                            "channel": 10
                        }
                    ]
                ], 
                [
                    83341, 
                    [
                        {
                            "pitch": 63, 
                            "t0": 83341, 
                            "v": 92, 
                            "dur": 132, 
                            "type": "note", 
                            "channel": 10
                        }
                    ]
                ], 
                [
                    83462, 
                    [
                        {
                            "pitch": 65, 
                            "t0": 83462, 
                            "v": 47, 
                            "dur": 130, 
                            "type": "note", 
                            "channel": 10
                        }
                    ]
                ], 
                [
                    83728, 
                    [
                        {
                            "pitch": 70, 
                            "t0": 83728, 
                            "v": 92, 
                            "dur": 111, 
                            "type": "note", 
                            "channel": 10
                        }
                    ]
                ], 
                [
                    83832, 
                    [
                        {
                            "pitch": 72, 
                            "t0": 83832, 
                            "v": 48, 
                            "dur": 165, 
                            "type": "note", 
                            "channel": 10
                        }
                    ]
                ], 
                [
                    84104, 
                    [
                        {
                            "pitch": 75, 
                            "t0": 84104, 
                            "v": 92, 
                            "dur": 128, 
                            "type": "note", 
                            "channel": 10
                        }
                    ]
                ], 
                [
                    84213, 
                    [
                        {
                            "pitch": 77, 
                            "t0": 84213, 
                            "v": 54, 
                            "dur": 211, 
                            "type": "note", 
                            "channel": 10
                        }
                    ]
                ]
            ], 
            "instruments": [
                92
            ], 
            "tMax": 84213, 
            "channels": [
                10
            ], 
            "instrument": 92, 
            "numNotes": 260, 
            "type": "TrackObj"
        }, 
        {
            "trackName": "Dulcimer", 
            "seq": [
                [
                    0, 
                    [
                        {
                            "instrument": 15, 
                            "type": "programChange", 
                            "t0": 0, 
                            "channel": 11
                        }
                    ]
                ], 
                [
                    39301, 
                    [
                        {
                            "instrument": 15, 
                            "type": "programChange", 
                            "t0": 39301, 
                            "channel": 11
                        }, 
                        {
                            "pitch": 67, 
                            "t0": 39301, 
                            "v": 108, 
                            "dur": 97, 
                            "type": "note", 
                            "channel": 11
                        }
                    ]
                ], 
                [
                    39419, 
                    [
                        {
                            "pitch": 65, 
                            "t0": 39419, 
                            "v": 84, 
                            "dur": 76, 
                            "type": "note", 
                            "channel": 11
                        }
                    ]
                ], 
                [
                    39553, 
                    [
                        {
                            "pitch": 63, 
                            "t0": 39553, 
                            "v": 112, 
                            "dur": 97, 
                            "type": "note", 
                            "channel": 11
                        }
                    ]
                ], 
                [
                    39676, 
                    [
                        {
                            "pitch": 60, 
                            "t0": 39676, 
                            "v": 104, 
                            "dur": 142, 
                            "type": "note", 
                            "channel": 11
                        }
                    ]
                ], 
                [
                    41848, 
                    [
                        {
                            "pitch": 67, 
                            "t0": 41848, 
                            "v": 80, 
                            "dur": 105, 
                            "type": "note", 
                            "channel": 11
                        }
                    ]
                ], 
                [
                    41974, 
                    [
                        {
                            "pitch": 65, 
                            "t0": 41974, 
                            "v": 80, 
                            "dur": 163, 
                            "type": "note", 
                            "channel": 11
                        }
                    ]
                ], 
                [
                    42118, 
                    [
                        {
                            "pitch": 63, 
                            "t0": 42118, 
                            "v": 92, 
                            "dur": 155, 
                            "type": "note", 
                            "channel": 11
                        }
                    ]
                ], 
                [
                    42261, 
                    [
                        {
                            "pitch": 60, 
                            "t0": 42261, 
                            "v": 80, 
                            "dur": 262, 
                            "type": "note", 
                            "channel": 11
                        }
                    ]
                ], 
                [
                    42526, 
                    [
                        {
                            "pitch": 63, 
                            "t0": 42526, 
                            "v": 112, 
                            "dur": 229, 
                            "type": "note", 
                            "channel": 11
                        }
                    ]
                ], 
                [
                    42786, 
                    [
                        {
                            "pitch": 65, 
                            "t0": 42786, 
                            "v": 88, 
                            "dur": 72, 
                            "type": "note", 
                            "channel": 11
                        }
                    ]
                ], 
                [
                    44486, 
                    [
                        {
                            "pitch": 67, 
                            "t0": 44486, 
                            "v": 80, 
                            "dur": 94, 
                            "type": "note", 
                            "channel": 11
                        }
                    ]
                ], 
                [
                    44591, 
                    [
                        {
                            "pitch": 65, 
                            "t0": 44591, 
                            "v": 80, 
                            "dur": 113, 
                            "type": "note", 
                            "channel": 11
                        }
                    ]
                ], 
                [
                    44703, 
                    [
                        {
                            "pitch": 63, 
                            "t0": 44703, 
                            "v": 116, 
                            "dur": 124, 
                            "type": "note", 
                            "channel": 11
                        }
                    ]
                ], 
                [
                    44842, 
                    [
                        {
                            "pitch": 60, 
                            "t0": 44842, 
                            "v": 88, 
                            "dur": 181, 
                            "type": "note", 
                            "channel": 11
                        }
                    ]
                ], 
                [
                    46804, 
                    [
                        {
                            "pitch": 67, 
                            "t0": 46804, 
                            "v": 72, 
                            "dur": 102, 
                            "type": "note", 
                            "channel": 11
                        }
                    ]
                ], 
                [
                    46921, 
                    [
                        {
                            "pitch": 65, 
                            "t0": 46921, 
                            "v": 92, 
                            "dur": 81, 
                            "type": "note", 
                            "channel": 11
                        }
                    ]
                ], 
                [
                    47045, 
                    [
                        {
                            "pitch": 63, 
                            "t0": 47045, 
                            "v": 108, 
                            "dur": 141, 
                            "type": "note", 
                            "channel": 11
                        }
                    ]
                ], 
                [
                    47168, 
                    [
                        {
                            "pitch": 60, 
                            "t0": 47168, 
                            "v": 84, 
                            "dur": 155, 
                            "type": "note", 
                            "channel": 11
                        }
                    ]
                ], 
                [
                    47436, 
                    [
                        {
                            "pitch": 63, 
                            "t0": 47436, 
                            "v": 104, 
                            "dur": 211, 
                            "type": "note", 
                            "channel": 11
                        }
                    ]
                ], 
                [
                    47706, 
                    [
                        {
                            "pitch": 65, 
                            "t0": 47706, 
                            "v": 88, 
                            "dur": 67, 
                            "type": "note", 
                            "channel": 11
                        }
                    ]
                ], 
                [
                    48990, 
                    [
                        {
                            "pitch": 67, 
                            "t0": 48990, 
                            "v": 50, 
                            "dur": 113, 
                            "type": "note", 
                            "channel": 11
                        }
                    ]
                ], 
                [
                    49088, 
                    [
                        {
                            "pitch": 65, 
                            "t0": 49088, 
                            "v": 80, 
                            "dur": 140, 
                            "type": "note", 
                            "channel": 11
                        }
                    ]
                ], 
                [
                    49205, 
                    [
                        {
                            "pitch": 63, 
                            "t0": 49205, 
                            "v": 108, 
                            "dur": 121, 
                            "type": "note", 
                            "channel": 11
                        }
                    ]
                ], 
                [
                    49331, 
                    [
                        {
                            "pitch": 60, 
                            "t0": 49331, 
                            "v": 80, 
                            "dur": 198, 
                            "type": "note", 
                            "channel": 11
                        }
                    ]
                ], 
                [
                    51215, 
                    [
                        {
                            "pitch": 67, 
                            "t0": 51215, 
                            "v": 64, 
                            "dur": 94, 
                            "type": "note", 
                            "channel": 11
                        }
                    ]
                ], 
                [
                    51335, 
                    [
                        {
                            "pitch": 65, 
                            "t0": 51335, 
                            "v": 64, 
                            "dur": 154, 
                            "type": "note", 
                            "channel": 11
                        }
                    ]
                ], 
                [
                    51481, 
                    [
                        {
                            "pitch": 63, 
                            "t0": 51481, 
                            "v": 84, 
                            "dur": 132, 
                            "type": "note", 
                            "channel": 11
                        }
                    ]
                ], 
                [
                    51612, 
                    [
                        {
                            "pitch": 60, 
                            "t0": 51612, 
                            "v": 64, 
                            "dur": 250, 
                            "type": "note", 
                            "channel": 11
                        }
                    ]
                ], 
                [
                    51878, 
                    [
                        {
                            "pitch": 63, 
                            "t0": 51878, 
                            "v": 96, 
                            "dur": 265, 
                            "type": "note", 
                            "channel": 11
                        }
                    ]
                ], 
                [
                    52139, 
                    [
                        {
                            "pitch": 65, 
                            "t0": 52139, 
                            "v": 64, 
                            "dur": 87, 
                            "type": "note", 
                            "channel": 11
                        }
                    ]
                ], 
                [
                    54163, 
                    [
                        {
                            "pitch": 67, 
                            "t0": 54163, 
                            "v": 80, 
                            "dur": 101, 
                            "type": "note", 
                            "channel": 11
                        }
                    ]
                ], 
                [
                    54265, 
                    [
                        {
                            "pitch": 65, 
                            "t0": 54265, 
                            "v": 88, 
                            "dur": 128, 
                            "type": "note", 
                            "channel": 11
                        }
                    ]
                ], 
                [
                    54377, 
                    [
                        {
                            "pitch": 63, 
                            "t0": 54377, 
                            "v": 100, 
                            "dur": 141, 
                            "type": "note", 
                            "channel": 11
                        }
                    ]
                ], 
                [
                    54511, 
                    [
                        {
                            "pitch": 60, 
                            "t0": 54511, 
                            "v": 84, 
                            "dur": 177, 
                            "type": "note", 
                            "channel": 11
                        }
                    ]
                ], 
                [
                    55994, 
                    [
                        {
                            "pitch": 67, 
                            "t0": 55994, 
                            "v": 60, 
                            "dur": 113, 
                            "type": "note", 
                            "channel": 11
                        }
                    ]
                ], 
                [
                    56108, 
                    [
                        {
                            "pitch": 65, 
                            "t0": 56108, 
                            "v": 84, 
                            "dur": 122, 
                            "type": "note", 
                            "channel": 11
                        }
                    ]
                ], 
                [
                    56218, 
                    [
                        {
                            "pitch": 63, 
                            "t0": 56218, 
                            "v": 92, 
                            "dur": 100, 
                            "type": "note", 
                            "channel": 11
                        }
                    ]
                ], 
                [
                    56318, 
                    [
                        {
                            "pitch": 60, 
                            "t0": 56318, 
                            "v": 68, 
                            "dur": 266, 
                            "type": "note", 
                            "channel": 11
                        }
                    ]
                ], 
                [
                    56576, 
                    [
                        {
                            "pitch": 63, 
                            "t0": 56576, 
                            "v": 96, 
                            "dur": 235, 
                            "type": "note", 
                            "channel": 11
                        }
                    ]
                ], 
                [
                    56833, 
                    [
                        {
                            "pitch": 65, 
                            "t0": 56833, 
                            "v": 76, 
                            "dur": 77, 
                            "type": "note", 
                            "channel": 11
                        }
                    ]
                ], 
                [
                    58257, 
                    [
                        {
                            "pitch": 67, 
                            "t0": 58257, 
                            "v": 60, 
                            "dur": 87, 
                            "type": "note", 
                            "channel": 11
                        }
                    ]
                ], 
                [
                    58386, 
                    [
                        {
                            "pitch": 65, 
                            "t0": 58386, 
                            "v": 80, 
                            "dur": 124, 
                            "type": "note", 
                            "channel": 11
                        }
                    ]
                ], 
                [
                    58492, 
                    [
                        {
                            "pitch": 63, 
                            "t0": 58492, 
                            "v": 84, 
                            "dur": 170, 
                            "type": "note", 
                            "channel": 11
                        }
                    ]
                ], 
                [
                    58645, 
                    [
                        {
                            "pitch": 60, 
                            "t0": 58645, 
                            "v": 92, 
                            "dur": 254, 
                            "type": "note", 
                            "channel": 11
                        }
                    ]
                ], 
                [
                    60071, 
                    [
                        {
                            "pitch": 67, 
                            "t0": 60071, 
                            "v": 84, 
                            "dur": 111, 
                            "type": "note", 
                            "channel": 11
                        }
                    ]
                ], 
                [
                    60204, 
                    [
                        {
                            "pitch": 65, 
                            "t0": 60204, 
                            "v": 80, 
                            "dur": 126, 
                            "type": "note", 
                            "channel": 11
                        }
                    ]
                ], 
                [
                    60312, 
                    [
                        {
                            "pitch": 63, 
                            "t0": 60312, 
                            "v": 84, 
                            "dur": 148, 
                            "type": "note", 
                            "channel": 11
                        }
                    ]
                ], 
                [
                    60440, 
                    [
                        {
                            "pitch": 60, 
                            "t0": 60440, 
                            "v": 72, 
                            "dur": 277, 
                            "type": "note", 
                            "channel": 11
                        }
                    ]
                ], 
                [
                    60708, 
                    [
                        {
                            "pitch": 63, 
                            "t0": 60708, 
                            "v": 100, 
                            "dur": 269, 
                            "type": "note", 
                            "channel": 11
                        }
                    ]
                ], 
                [
                    60965, 
                    [
                        {
                            "pitch": 65, 
                            "t0": 60965, 
                            "v": 76, 
                            "dur": 88, 
                            "type": "note", 
                            "channel": 11
                        }
                    ]
                ], 
                [
                    62136, 
                    [
                        {
                            "pitch": 67, 
                            "t0": 62136, 
                            "v": 68, 
                            "dur": 116, 
                            "type": "note", 
                            "channel": 11
                        }
                    ]
                ], 
                [
                    62256, 
                    [
                        {
                            "pitch": 65, 
                            "t0": 62256, 
                            "v": 92, 
                            "dur": 147, 
                            "type": "note", 
                            "channel": 11
                        }
                    ]
                ], 
                [
                    62376, 
                    [
                        {
                            "pitch": 63, 
                            "t0": 62376, 
                            "v": 96, 
                            "dur": 155, 
                            "type": "note", 
                            "channel": 11
                        }
                    ]
                ], 
                [
                    62515, 
                    [
                        {
                            "pitch": 60, 
                            "t0": 62515, 
                            "v": 88, 
                            "dur": 189, 
                            "type": "note", 
                            "channel": 11
                        }
                    ]
                ], 
                [
                    64177, 
                    [
                        {
                            "pitch": 67, 
                            "t0": 64177, 
                            "v": 80, 
                            "dur": 141, 
                            "type": "note", 
                            "channel": 11
                        }
                    ]
                ], 
                [
                    64298, 
                    [
                        {
                            "pitch": 65, 
                            "t0": 64298, 
                            "v": 64, 
                            "dur": 162, 
                            "type": "note", 
                            "channel": 11
                        }
                    ]
                ], 
                [
                    64438, 
                    [
                        {
                            "pitch": 63, 
                            "t0": 64438, 
                            "v": 96, 
                            "dur": 125, 
                            "type": "note", 
                            "channel": 11
                        }
                    ]
                ], 
                [
                    64563, 
                    [
                        {
                            "pitch": 60, 
                            "t0": 64563, 
                            "v": 76, 
                            "dur": 264, 
                            "type": "note", 
                            "channel": 11
                        }
                    ]
                ], 
                [
                    64827, 
                    [
                        {
                            "pitch": 63, 
                            "t0": 64827, 
                            "v": 108, 
                            "dur": 233, 
                            "type": "note", 
                            "channel": 11
                        }
                    ]
                ], 
                [
                    65102, 
                    [
                        {
                            "pitch": 65, 
                            "t0": 65102, 
                            "v": 92, 
                            "dur": 72, 
                            "type": "note", 
                            "channel": 11
                        }
                    ]
                ], 
                [
                    65792, 
                    [
                        {
                            "pitch": 67, 
                            "t0": 65792, 
                            "v": 72, 
                            "dur": 87, 
                            "type": "note", 
                            "channel": 11
                        }
                    ]
                ], 
                [
                    65885, 
                    [
                        {
                            "pitch": 65, 
                            "t0": 65885, 
                            "v": 58, 
                            "dur": 134, 
                            "type": "note", 
                            "channel": 11
                        }
                    ]
                ], 
                [
                    65999, 
                    [
                        {
                            "pitch": 63, 
                            "t0": 65999, 
                            "v": 100, 
                            "dur": 109, 
                            "type": "note", 
                            "channel": 11
                        }
                    ]
                ], 
                [
                    66116, 
                    [
                        {
                            "pitch": 60, 
                            "t0": 66116, 
                            "v": 76, 
                            "dur": 293, 
                            "type": "note", 
                            "channel": 11
                        }
                    ]
                ], 
                [
                    67654, 
                    [
                        {
                            "pitch": 67, 
                            "t0": 67654, 
                            "v": 68, 
                            "dur": 104, 
                            "type": "note", 
                            "channel": 11
                        }
                    ]
                ], 
                [
                    67744, 
                    [
                        {
                            "pitch": 65, 
                            "t0": 67744, 
                            "v": 52, 
                            "dur": 135, 
                            "type": "note", 
                            "channel": 11
                        }
                    ]
                ], 
                [
                    67850, 
                    [
                        {
                            "pitch": 63, 
                            "t0": 67850, 
                            "v": 72, 
                            "dur": 119, 
                            "type": "note", 
                            "channel": 11
                        }
                    ]
                ], 
                [
                    67958, 
                    [
                        {
                            "pitch": 60, 
                            "t0": 67958, 
                            "v": 54, 
                            "dur": 249, 
                            "type": "note", 
                            "channel": 11
                        }
                    ]
                ], 
                [
                    68188, 
                    [
                        {
                            "pitch": 63, 
                            "t0": 68188, 
                            "v": 88, 
                            "dur": 277, 
                            "type": "note", 
                            "channel": 11
                        }
                    ]
                ], 
                [
                    68456, 
                    [
                        {
                            "pitch": 65, 
                            "t0": 68456, 
                            "v": 80, 
                            "dur": 77, 
                            "type": "note", 
                            "channel": 11
                        }
                    ]
                ], 
                [
                    69647, 
                    [
                        {
                            "pitch": 67, 
                            "t0": 69647, 
                            "v": 76, 
                            "dur": 122, 
                            "type": "note", 
                            "channel": 11
                        }
                    ]
                ], 
                [
                    69762, 
                    [
                        {
                            "pitch": 65, 
                            "t0": 69762, 
                            "v": 88, 
                            "dur": 133, 
                            "type": "note", 
                            "channel": 11
                        }
                    ]
                ], 
                [
                    69867, 
                    [
                        {
                            "pitch": 63, 
                            "t0": 69867, 
                            "v": 104, 
                            "dur": 127, 
                            "type": "note", 
                            "channel": 11
                        }
                    ]
                ], 
                [
                    69996, 
                    [
                        {
                            "pitch": 60, 
                            "t0": 69996, 
                            "v": 72, 
                            "dur": 222, 
                            "type": "note", 
                            "channel": 11
                        }
                    ]
                ], 
                [
                    71704, 
                    [
                        {
                            "pitch": 67, 
                            "t0": 71704, 
                            "v": 76, 
                            "dur": 115, 
                            "type": "note", 
                            "channel": 11
                        }
                    ]
                ], 
                [
                    71820, 
                    [
                        {
                            "pitch": 65, 
                            "t0": 71820, 
                            "v": 84, 
                            "dur": 144, 
                            "type": "note", 
                            "channel": 11
                        }
                    ]
                ], 
                [
                    71942, 
                    [
                        {
                            "pitch": 63, 
                            "t0": 71942, 
                            "v": 104, 
                            "dur": 149, 
                            "type": "note", 
                            "channel": 11
                        }
                    ]
                ], 
                [
                    72072, 
                    [
                        {
                            "pitch": 60, 
                            "t0": 72072, 
                            "v": 76, 
                            "dur": 263, 
                            "type": "note", 
                            "channel": 11
                        }
                    ]
                ], 
                [
                    72310, 
                    [
                        {
                            "pitch": 63, 
                            "t0": 72310, 
                            "v": 100, 
                            "dur": 271, 
                            "type": "note", 
                            "channel": 11
                        }
                    ]
                ], 
                [
                    72584, 
                    [
                        {
                            "pitch": 65, 
                            "t0": 72584, 
                            "v": 80, 
                            "dur": 92, 
                            "type": "note", 
                            "channel": 11
                        }
                    ]
                ], 
                [
                    73482, 
                    [
                        {
                            "pitch": 67, 
                            "t0": 73482, 
                            "v": 84, 
                            "dur": 124, 
                            "type": "note", 
                            "channel": 11
                        }
                    ]
                ], 
                [
                    73592, 
                    [
                        {
                            "pitch": 65, 
                            "t0": 73592, 
                            "v": 84, 
                            "dur": 147, 
                            "type": "note", 
                            "channel": 11
                        }
                    ]
                ], 
                [
                    73712, 
                    [
                        {
                            "pitch": 63, 
                            "t0": 73712, 
                            "v": 104, 
                            "dur": 143, 
                            "type": "note", 
                            "channel": 11
                        }
                    ]
                ], 
                [
                    73860, 
                    [
                        {
                            "pitch": 60, 
                            "t0": 73860, 
                            "v": 84, 
                            "dur": 267, 
                            "type": "note", 
                            "channel": 11
                        }
                    ]
                ], 
                [
                    75617, 
                    [
                        {
                            "pitch": 67, 
                            "t0": 75617, 
                            "v": 42, 
                            "dur": 97, 
                            "type": "note", 
                            "channel": 11
                        }
                    ]
                ], 
                [
                    75711, 
                    [
                        {
                            "pitch": 65, 
                            "t0": 75711, 
                            "v": 52, 
                            "dur": 132, 
                            "type": "note", 
                            "channel": 11
                        }
                    ]
                ], 
                [
                    75818, 
                    [
                        {
                            "pitch": 63, 
                            "t0": 75818, 
                            "v": 80, 
                            "dur": 106, 
                            "type": "note", 
                            "channel": 11
                        }
                    ]
                ], 
                [
                    75902, 
                    [
                        {
                            "pitch": 60, 
                            "t0": 75902, 
                            "v": 56, 
                            "dur": 245, 
                            "type": "note", 
                            "channel": 11
                        }
                    ]
                ], 
                [
                    76123, 
                    [
                        {
                            "pitch": 63, 
                            "t0": 76123, 
                            "v": 92, 
                            "dur": 292, 
                            "type": "note", 
                            "channel": 11
                        }
                    ]
                ], 
                [
                    76404, 
                    [
                        {
                            "pitch": 65, 
                            "t0": 76404, 
                            "v": 88, 
                            "dur": 128, 
                            "type": "note", 
                            "channel": 11
                        }
                    ]
                ], 
                [
                    77577, 
                    [
                        {
                            "pitch": 67, 
                            "t0": 77577, 
                            "v": 84, 
                            "dur": 98, 
                            "type": "note", 
                            "channel": 11
                        }
                    ]
                ], 
                [
                    77680, 
                    [
                        {
                            "pitch": 65, 
                            "t0": 77680, 
                            "v": 76, 
                            "dur": 148, 
                            "type": "note", 
                            "channel": 11
                        }
                    ]
                ], 
                [
                    77805, 
                    [
                        {
                            "pitch": 63, 
                            "t0": 77805, 
                            "v": 96, 
                            "dur": 138, 
                            "type": "note", 
                            "channel": 11
                        }
                    ]
                ], 
                [
                    77933, 
                    [
                        {
                            "pitch": 60, 
                            "t0": 77933, 
                            "v": 64, 
                            "dur": 243, 
                            "type": "note", 
                            "channel": 11
                        }
                    ]
                ], 
                [
                    79611, 
                    [
                        {
                            "pitch": 67, 
                            "t0": 79611, 
                            "v": 76, 
                            "dur": 106, 
                            "type": "note", 
                            "channel": 11
                        }
                    ]
                ], 
                [
                    79714, 
                    [
                        {
                            "pitch": 65, 
                            "t0": 79714, 
                            "v": 58, 
                            "dur": 165, 
                            "type": "note", 
                            "channel": 11
                        }
                    ]
                ], 
                [
                    79845, 
                    [
                        {
                            "pitch": 63, 
                            "t0": 79845, 
                            "v": 72, 
                            "dur": 151, 
                            "type": "note", 
                            "channel": 11
                        }
                    ]
                ], 
                [
                    79983, 
                    [
                        {
                            "pitch": 60, 
                            "t0": 79983, 
                            "v": 64, 
                            "dur": 277, 
                            "type": "note", 
                            "channel": 11
                        }
                    ]
                ], 
                [
                    80232, 
                    [
                        {
                            "pitch": 63, 
                            "t0": 80232, 
                            "v": 84, 
                            "dur": 258, 
                            "type": "note", 
                            "channel": 11
                        }
                    ]
                ], 
                [
                    80517, 
                    [
                        {
                            "pitch": 65, 
                            "t0": 80517, 
                            "v": 76, 
                            "dur": 73, 
                            "type": "note", 
                            "channel": 11
                        }
                    ]
                ], 
                [
                    81421, 
                    [
                        {
                            "pitch": 67, 
                            "t0": 81421, 
                            "v": 76, 
                            "dur": 94, 
                            "type": "note", 
                            "channel": 11
                        }
                    ]
                ], 
                [
                    81541, 
                    [
                        {
                            "pitch": 65, 
                            "t0": 81541, 
                            "v": 76, 
                            "dur": 155, 
                            "type": "note", 
                            "channel": 11
                        }
                    ]
                ], 
                [
                    81678, 
                    [
                        {
                            "pitch": 63, 
                            "t0": 81678, 
                            "v": 96, 
                            "dur": 119, 
                            "type": "note", 
                            "channel": 11
                        }
                    ]
                ], 
                [
                    81807, 
                    [
                        {
                            "pitch": 60, 
                            "t0": 81807, 
                            "v": 76, 
                            "dur": 163, 
                            "type": "note", 
                            "channel": 11
                        }
                    ]
                ], 
                [
                    82881, 
                    [
                        {
                            "pitch": 60, 
                            "t0": 82881, 
                            "v": 47, 
                            "dur": 304, 
                            "type": "note", 
                            "channel": 11
                        }
                    ]
                ]
            ], 
            "instruments": [
                15
            ], 
            "tMax": 82881, 
            "channels": [
                11
            ], 
            "instrument": 15, 
            "numNotes": 105, 
            "type": "TrackObj"
        }, 
        {
            "trackName": "Small Drums", 
            "seq": [
                [
                    0, 
                    [
                        {
                            "instrument": 0, 
                            "type": "programChange", 
                            "t0": 0, 
                            "channel": 9
                        }
                    ]
                ], 
                [
                    84991, 
                    [
                        {
                            "pitch": 47, 
                            "t0": 84991, 
                            "v": 48, 
                            "dur": 480, 
                            "type": "note", 
                            "channel": 9
                        }, 
                        {
                            "pitch": 45, 
                            "t0": 84991, 
                            "v": 67, 
                            "dur": 480, 
                            "type": "note", 
                            "channel": 9
                        }, 
                        {
                            "pitch": 43, 
                            "t0": 84991, 
                            "v": 62, 
                            "dur": 480, 
                            "type": "note", 
                            "channel": 9
                        }, 
                        {
                            "pitch": 41, 
                            "t0": 84991, 
                            "v": 67, 
                            "dur": 480, 
                            "type": "note", 
                            "channel": 9
                        }, 
                        {
                            "pitch": 83, 
                            "t0": 84991, 
                            "v": 48, 
                            "dur": 480, 
                            "type": "note", 
                            "channel": 9
                        }, 
                        {
                            "pitch": 76, 
                            "t0": 84991, 
                            "v": 48, 
                            "dur": 480, 
                            "type": "note", 
                            "channel": 9
                        }, 
                        {
                            "pitch": 82, 
                            "t0": 84991, 
                            "v": 48, 
                            "dur": 480, 
                            "type": "note", 
                            "channel": 9
                        }
                    ]
                ]
            ], 
            "instruments": [
                0
            ], 
            "tMax": 84991, 
            "channels": [
                9
            ], 
            "instrument": 0, 
            "numNotes": 7, 
            "type": "TrackObj"
        }, 
        {
            "trackName": "Small Drums", 
            "seq": [
                [
                    0, 
                    [
                        {
                            "instrument": 0, 
                            "type": "programChange", 
                            "t0": 0, 
                            "channel": 9
                        }
                    ]
                ], 
                [
                    85022, 
                    [
                        {
                            "pitch": 82, 
                            "t0": 85022, 
                            "v": 28, 
                            "dur": 480, 
                            "type": "note", 
                            "channel": 9
                        }, 
                        {
                            "pitch": 76, 
                            "t0": 85022, 
                            "v": 28, 
                            "dur": 480, 
                            "type": "note", 
                            "channel": 9
                        }, 
                        {
                            "pitch": 83, 
                            "t0": 85022, 
                            "v": 28, 
                            "dur": 480, 
                            "type": "note", 
                            "channel": 9
                        }, 
                        {
                            "pitch": 41, 
                            "t0": 85022, 
                            "v": 40, 
                            "dur": 480, 
                            "type": "note", 
                            "channel": 9
                        }, 
                        {
                            "pitch": 43, 
                            "t0": 85022, 
                            "v": 37, 
                            "dur": 480, 
                            "type": "note", 
                            "channel": 9
                        }, 
                        {
                            "pitch": 45, 
                            "t0": 85022, 
                            "v": 40, 
                            "dur": 480, 
                            "type": "note", 
                            "channel": 9
                        }, 
                        {
                            "pitch": 47, 
                            "t0": 85022, 
                            "v": 28, 
                            "dur": 480, 
                            "type": "note", 
                            "channel": 9
                        }
                    ]
                ]
            ], 
            "instruments": [
                0
            ], 
            "tMax": 85022, 
            "channels": [
                9
            ], 
            "instrument": 0, 
            "numNotes": 7, 
            "type": "TrackObj"
        }, 
        {
            "trackName": "Big Drums", 
            "seq": [
                [
                    0, 
                    [
                        {
                            "instrument": 116, 
                            "type": "programChange", 
                            "t0": 0, 
                            "channel": 12
                        }, 
                        {
                            "instrument": 116, 
                            "type": "programChange", 
                            "t0": 0, 
                            "channel": 12
                        }
                    ]
                ], 
                [
                    135, 
                    [
                        {
                            "pitch": 47, 
                            "t0": 135, 
                            "v": 60, 
                            "dur": 57, 
                            "type": "note", 
                            "channel": 12
                        }
                    ]
                ], 
                [
                    267, 
                    [
                        {
                            "pitch": 47, 
                            "t0": 267, 
                            "v": 49, 
                            "dur": 57, 
                            "type": "note", 
                            "channel": 12
                        }
                    ]
                ], 
                [
                    512, 
                    [
                        {
                            "pitch": 47, 
                            "t0": 512, 
                            "v": 44, 
                            "dur": 78, 
                            "type": "note", 
                            "channel": 12
                        }
                    ]
                ], 
                [
                    660, 
                    [
                        {
                            "pitch": 45, 
                            "t0": 660, 
                            "v": 44, 
                            "dur": 88, 
                            "type": "note", 
                            "channel": 12
                        }
                    ]
                ], 
                [
                    663, 
                    [
                        {
                            "pitch": 43, 
                            "t0": 663, 
                            "v": 52, 
                            "dur": 76, 
                            "type": "note", 
                            "channel": 12
                        }, 
                        {
                            "pitch": 41, 
                            "t0": 663, 
                            "v": 52, 
                            "dur": 77, 
                            "type": "note", 
                            "channel": 12
                        }
                    ]
                ], 
                [
                    920, 
                    [
                        {
                            "pitch": 45, 
                            "t0": 920, 
                            "v": 127, 
                            "dur": 94, 
                            "type": "note", 
                            "channel": 12
                        }
                    ]
                ], 
                [
                    924, 
                    [
                        {
                            "pitch": 41, 
                            "t0": 924, 
                            "v": 127, 
                            "dur": 83, 
                            "type": "note", 
                            "channel": 12
                        }, 
                        {
                            "pitch": 43, 
                            "t0": 924, 
                            "v": 127, 
                            "dur": 85, 
                            "type": "note", 
                            "channel": 12
                        }
                    ]
                ], 
                [
                    1180, 
                    [
                        {
                            "pitch": 47, 
                            "t0": 1180, 
                            "v": 76, 
                            "dur": 61, 
                            "type": "note", 
                            "channel": 12
                        }
                    ]
                ], 
                [
                    1308, 
                    [
                        {
                            "pitch": 47, 
                            "t0": 1308, 
                            "v": 60, 
                            "dur": 55, 
                            "type": "note", 
                            "channel": 12
                        }
                    ]
                ], 
                [
                    1563, 
                    [
                        {
                            "pitch": 47, 
                            "t0": 1563, 
                            "v": 47, 
                            "dur": 76, 
                            "type": "note", 
                            "channel": 12
                        }
                    ]
                ], 
                [
                    1704, 
                    [
                        {
                            "pitch": 45, 
                            "t0": 1704, 
                            "v": 58, 
                            "dur": 108, 
                            "type": "note", 
                            "channel": 12
                        }
                    ]
                ], 
                [
                    1705, 
                    [
                        {
                            "pitch": 41, 
                            "t0": 1705, 
                            "v": 50, 
                            "dur": 96, 
                            "type": "note", 
                            "channel": 12
                        }
                    ]
                ], 
                [
                    1708, 
                    [
                        {
                            "pitch": 43, 
                            "t0": 1708, 
                            "v": 54, 
                            "dur": 98, 
                            "type": "note", 
                            "channel": 12
                        }
                    ]
                ], 
                [
                    1961, 
                    [
                        {
                            "pitch": 45, 
                            "t0": 1961, 
                            "v": 127, 
                            "dur": 106, 
                            "type": "note", 
                            "channel": 12
                        }
                    ]
                ], 
                [
                    1965, 
                    [
                        {
                            "pitch": 41, 
                            "t0": 1965, 
                            "v": 127, 
                            "dur": 90, 
                            "type": "note", 
                            "channel": 12
                        }
                    ]
                ], 
                [
                    1967, 
                    [
                        {
                            "pitch": 43, 
                            "t0": 1967, 
                            "v": 127, 
                            "dur": 92, 
                            "type": "note", 
                            "channel": 12
                        }
                    ]
                ], 
                [
                    2226, 
                    [
                        {
                            "pitch": 47, 
                            "t0": 2226, 
                            "v": 80, 
                            "dur": 62, 
                            "type": "note", 
                            "channel": 12
                        }
                    ]
                ], 
                [
                    2355, 
                    [
                        {
                            "pitch": 47, 
                            "t0": 2355, 
                            "v": 72, 
                            "dur": 72, 
                            "type": "note", 
                            "channel": 12
                        }
                    ]
                ], 
                [
                    2612, 
                    [
                        {
                            "pitch": 47, 
                            "t0": 2612, 
                            "v": 56, 
                            "dur": 97, 
                            "type": "note", 
                            "channel": 12
                        }
                    ]
                ], 
                [
                    2750, 
                    [
                        {
                            "pitch": 45, 
                            "t0": 2750, 
                            "v": 49, 
                            "dur": 97, 
                            "type": "note", 
                            "channel": 12
                        }
                    ]
                ], 
                [
                    2752, 
                    [
                        {
                            "pitch": 43, 
                            "t0": 2752, 
                            "v": 50, 
                            "dur": 89, 
                            "type": "note", 
                            "channel": 12
                        }
                    ]
                ], 
                [
                    2754, 
                    [
                        {
                            "pitch": 41, 
                            "t0": 2754, 
                            "v": 50, 
                            "dur": 80, 
                            "type": "note", 
                            "channel": 12
                        }
                    ]
                ], 
                [
                    3003, 
                    [
                        {
                            "pitch": 45, 
                            "t0": 3003, 
                            "v": 127, 
                            "dur": 118, 
                            "type": "note", 
                            "channel": 12
                        }
                    ]
                ], 
                [
                    3006, 
                    [
                        {
                            "pitch": 41, 
                            "t0": 3006, 
                            "v": 127, 
                            "dur": 110, 
                            "type": "note", 
                            "channel": 12
                        }
                    ]
                ], 
                [
                    3007, 
                    [
                        {
                            "pitch": 43, 
                            "t0": 3007, 
                            "v": 127, 
                            "dur": 113, 
                            "type": "note", 
                            "channel": 12
                        }
                    ]
                ], 
                [
                    3238, 
                    [
                        {
                            "pitch": 47, 
                            "t0": 3238, 
                            "v": 64, 
                            "dur": 80, 
                            "type": "note", 
                            "channel": 12
                        }
                    ]
                ], 
                [
                    3364, 
                    [
                        {
                            "pitch": 47, 
                            "t0": 3364, 
                            "v": 58, 
                            "dur": 85, 
                            "type": "note", 
                            "channel": 12
                        }
                    ]
                ], 
                [
                    3624, 
                    [
                        {
                            "pitch": 47, 
                            "t0": 3624, 
                            "v": 72, 
                            "dur": 107, 
                            "type": "note", 
                            "channel": 12
                        }
                    ]
                ], 
                [
                    3755, 
                    [
                        {
                            "pitch": 45, 
                            "t0": 3755, 
                            "v": 68, 
                            "dur": 127, 
                            "type": "note", 
                            "channel": 12
                        }
                    ]
                ], 
                [
                    3759, 
                    [
                        {
                            "pitch": 41, 
                            "t0": 3759, 
                            "v": 58, 
                            "dur": 105, 
                            "type": "note", 
                            "channel": 12
                        }, 
                        {
                            "pitch": 43, 
                            "t0": 3759, 
                            "v": 72, 
                            "dur": 112, 
                            "type": "note", 
                            "channel": 12
                        }
                    ]
                ], 
                [
                    4015, 
                    [
                        {
                            "pitch": 45, 
                            "t0": 4015, 
                            "v": 127, 
                            "dur": 140, 
                            "type": "note", 
                            "channel": 12
                        }
                    ]
                ], 
                [
                    4019, 
                    [
                        {
                            "pitch": 43, 
                            "t0": 4019, 
                            "v": 127, 
                            "dur": 137, 
                            "type": "note", 
                            "channel": 12
                        }, 
                        {
                            "pitch": 41, 
                            "t0": 4019, 
                            "v": 127, 
                            "dur": 140, 
                            "type": "note", 
                            "channel": 12
                        }
                    ]
                ], 
                [
                    4281, 
                    [
                        {
                            "pitch": 47, 
                            "t0": 4281, 
                            "v": 80, 
                            "dur": 74, 
                            "type": "note", 
                            "channel": 12
                        }
                    ]
                ], 
                [
                    4411, 
                    [
                        {
                            "pitch": 47, 
                            "t0": 4411, 
                            "v": 72, 
                            "dur": 102, 
                            "type": "note", 
                            "channel": 12
                        }
                    ]
                ], 
                [
                    4660, 
                    [
                        {
                            "pitch": 47, 
                            "t0": 4660, 
                            "v": 76, 
                            "dur": 137, 
                            "type": "note", 
                            "channel": 12
                        }
                    ]
                ], 
                [
                    4798, 
                    [
                        {
                            "pitch": 45, 
                            "t0": 4798, 
                            "v": 72, 
                            "dur": 92, 
                            "type": "note", 
                            "channel": 12
                        }
                    ]
                ], 
                [
                    4802, 
                    [
                        {
                            "pitch": 41, 
                            "t0": 4802, 
                            "v": 72, 
                            "dur": 78, 
                            "type": "note", 
                            "channel": 12
                        }
                    ]
                ], 
                [
                    4803, 
                    [
                        {
                            "pitch": 43, 
                            "t0": 4803, 
                            "v": 72, 
                            "dur": 87, 
                            "type": "note", 
                            "channel": 12
                        }
                    ]
                ], 
                [
                    5045, 
                    [
                        {
                            "pitch": 45, 
                            "t0": 5045, 
                            "v": 127, 
                            "dur": 142, 
                            "type": "note", 
                            "channel": 12
                        }
                    ]
                ], 
                [
                    5046, 
                    [
                        {
                            "pitch": 43, 
                            "t0": 5046, 
                            "v": 127, 
                            "dur": 160, 
                            "type": "note", 
                            "channel": 12
                        }
                    ]
                ], 
                [
                    5047, 
                    [
                        {
                            "pitch": 41, 
                            "t0": 5047, 
                            "v": 127, 
                            "dur": 156, 
                            "type": "note", 
                            "channel": 12
                        }
                    ]
                ], 
                [
                    5308, 
                    [
                        {
                            "pitch": 47, 
                            "t0": 5308, 
                            "v": 104, 
                            "dur": 74, 
                            "type": "note", 
                            "channel": 12
                        }
                    ]
                ], 
                [
                    5438, 
                    [
                        {
                            "pitch": 47, 
                            "t0": 5438, 
                            "v": 68, 
                            "dur": 68, 
                            "type": "note", 
                            "channel": 12
                        }
                    ]
                ], 
                [
                    5696, 
                    [
                        {
                            "pitch": 47, 
                            "t0": 5696, 
                            "v": 96, 
                            "dur": 104, 
                            "type": "note", 
                            "channel": 12
                        }
                    ]
                ], 
                [
                    5829, 
                    [
                        {
                            "pitch": 45, 
                            "t0": 5829, 
                            "v": 72, 
                            "dur": 111, 
                            "type": "note", 
                            "channel": 12
                        }
                    ]
                ], 
                [
                    5831, 
                    [
                        {
                            "pitch": 41, 
                            "t0": 5831, 
                            "v": 64, 
                            "dur": 107, 
                            "type": "note", 
                            "channel": 12
                        }, 
                        {
                            "pitch": 43, 
                            "t0": 5831, 
                            "v": 72, 
                            "dur": 114, 
                            "type": "note", 
                            "channel": 12
                        }
                    ]
                ], 
                [
                    6094, 
                    [
                        {
                            "pitch": 41, 
                            "t0": 6094, 
                            "v": 127, 
                            "dur": 153, 
                            "type": "note", 
                            "channel": 12
                        }
                    ]
                ], 
                [
                    6095, 
                    [
                        {
                            "pitch": 45, 
                            "t0": 6095, 
                            "v": 127, 
                            "dur": 150, 
                            "type": "note", 
                            "channel": 12
                        }, 
                        {
                            "pitch": 43, 
                            "t0": 6095, 
                            "v": 127, 
                            "dur": 157, 
                            "type": "note", 
                            "channel": 12
                        }
                    ]
                ], 
                [
                    6359, 
                    [
                        {
                            "pitch": 47, 
                            "t0": 6359, 
                            "v": 108, 
                            "dur": 65, 
                            "type": "note", 
                            "channel": 12
                        }
                    ]
                ], 
                [
                    6493, 
                    [
                        {
                            "pitch": 47, 
                            "t0": 6493, 
                            "v": 64, 
                            "dur": 85, 
                            "type": "note", 
                            "channel": 12
                        }
                    ]
                ], 
                [
                    6744, 
                    [
                        {
                            "pitch": 47, 
                            "t0": 6744, 
                            "v": 50, 
                            "dur": 92, 
                            "type": "note", 
                            "channel": 12
                        }
                    ]
                ], 
                [
                    6877, 
                    [
                        {
                            "pitch": 45, 
                            "t0": 6877, 
                            "v": 80, 
                            "dur": 124, 
                            "type": "note", 
                            "channel": 12
                        }, 
                        {
                            "pitch": 41, 
                            "t0": 6877, 
                            "v": 60, 
                            "dur": 129, 
                            "type": "note", 
                            "channel": 12
                        }
                    ]
                ], 
                [
                    6879, 
                    [
                        {
                            "pitch": 43, 
                            "t0": 6879, 
                            "v": 56, 
                            "dur": 121, 
                            "type": "note", 
                            "channel": 12
                        }
                    ]
                ], 
                [
                    7140, 
                    [
                        {
                            "pitch": 45, 
                            "t0": 7140, 
                            "v": 127, 
                            "dur": 170, 
                            "type": "note", 
                            "channel": 12
                        }, 
                        {
                            "pitch": 41, 
                            "t0": 7140, 
                            "v": 127, 
                            "dur": 171, 
                            "type": "note", 
                            "channel": 12
                        }, 
                        {
                            "pitch": 43, 
                            "t0": 7140, 
                            "v": 127, 
                            "dur": 177, 
                            "type": "note", 
                            "channel": 12
                        }
                    ]
                ], 
                [
                    7392, 
                    [
                        {
                            "pitch": 47, 
                            "t0": 7392, 
                            "v": 96, 
                            "dur": 80, 
                            "type": "note", 
                            "channel": 12
                        }
                    ]
                ], 
                [
                    7526, 
                    [
                        {
                            "pitch": 47, 
                            "t0": 7526, 
                            "v": 58, 
                            "dur": 83, 
                            "type": "note", 
                            "channel": 12
                        }
                    ]
                ], 
                [
                    7767, 
                    [
                        {
                            "pitch": 47, 
                            "t0": 7767, 
                            "v": 60, 
                            "dur": 96, 
                            "type": "note", 
                            "channel": 12
                        }
                    ]
                ], 
                [
                    7908, 
                    [
                        {
                            "pitch": 45, 
                            "t0": 7908, 
                            "v": 46, 
                            "dur": 105, 
                            "type": "note", 
                            "channel": 12
                        }
                    ]
                ], 
                [
                    7910, 
                    [
                        {
                            "pitch": 43, 
                            "t0": 7910, 
                            "v": 45, 
                            "dur": 94, 
                            "type": "note", 
                            "channel": 12
                        }, 
                        {
                            "pitch": 41, 
                            "t0": 7910, 
                            "v": 44, 
                            "dur": 105, 
                            "type": "note", 
                            "channel": 12
                        }
                    ]
                ], 
                [
                    8180, 
                    [
                        {
                            "pitch": 41, 
                            "t0": 8180, 
                            "v": 127, 
                            "dur": 163, 
                            "type": "note", 
                            "channel": 12
                        }
                    ]
                ], 
                [
                    8181, 
                    [
                        {
                            "pitch": 43, 
                            "t0": 8181, 
                            "v": 127, 
                            "dur": 166, 
                            "type": "note", 
                            "channel": 12
                        }
                    ]
                ], 
                [
                    8182, 
                    [
                        {
                            "pitch": 45, 
                            "t0": 8182, 
                            "v": 127, 
                            "dur": 162, 
                            "type": "note", 
                            "channel": 12
                        }
                    ]
                ], 
                [
                    8452, 
                    [
                        {
                            "pitch": 47, 
                            "t0": 8452, 
                            "v": 45, 
                            "dur": 75, 
                            "type": "note", 
                            "channel": 12
                        }
                    ]
                ], 
                [
                    8585, 
                    [
                        {
                            "pitch": 47, 
                            "t0": 8585, 
                            "v": 50, 
                            "dur": 74, 
                            "type": "note", 
                            "channel": 12
                        }
                    ]
                ], 
                [
                    8825, 
                    [
                        {
                            "pitch": 47, 
                            "t0": 8825, 
                            "v": 76, 
                            "dur": 86, 
                            "type": "note", 
                            "channel": 12
                        }
                    ]
                ], 
                [
                    8976, 
                    [
                        {
                            "pitch": 45, 
                            "t0": 8976, 
                            "v": 45, 
                            "dur": 98, 
                            "type": "note", 
                            "channel": 12
                        }
                    ]
                ], 
                [
                    8978, 
                    [
                        {
                            "pitch": 41, 
                            "t0": 8978, 
                            "v": 46, 
                            "dur": 82, 
                            "type": "note", 
                            "channel": 12
                        }
                    ]
                ], 
                [
                    8982, 
                    [
                        {
                            "pitch": 43, 
                            "t0": 8982, 
                            "v": 49, 
                            "dur": 81, 
                            "type": "note", 
                            "channel": 12
                        }
                    ]
                ], 
                [
                    9239, 
                    [
                        {
                            "pitch": 45, 
                            "t0": 9239, 
                            "v": 127, 
                            "dur": 160, 
                            "type": "note", 
                            "channel": 12
                        }
                    ]
                ], 
                [
                    9240, 
                    [
                        {
                            "pitch": 43, 
                            "t0": 9240, 
                            "v": 127, 
                            "dur": 169, 
                            "type": "note", 
                            "channel": 12
                        }, 
                        {
                            "pitch": 41, 
                            "t0": 9240, 
                            "v": 127, 
                            "dur": 169, 
                            "type": "note", 
                            "channel": 12
                        }
                    ]
                ], 
                [
                    9499, 
                    [
                        {
                            "pitch": 47, 
                            "t0": 9499, 
                            "v": 76, 
                            "dur": 76, 
                            "type": "note", 
                            "channel": 12
                        }
                    ]
                ], 
                [
                    9630, 
                    [
                        {
                            "pitch": 47, 
                            "t0": 9630, 
                            "v": 64, 
                            "dur": 76, 
                            "type": "note", 
                            "channel": 12
                        }
                    ]
                ], 
                [
                    9869, 
                    [
                        {
                            "pitch": 47, 
                            "t0": 9869, 
                            "v": 88, 
                            "dur": 62, 
                            "type": "note", 
                            "channel": 12
                        }
                    ]
                ], 
                [
                    10003, 
                    [
                        {
                            "pitch": 45, 
                            "t0": 10003, 
                            "v": 54, 
                            "dur": 125, 
                            "type": "note", 
                            "channel": 12
                        }
                    ]
                ], 
                [
                    10008, 
                    [
                        {
                            "pitch": 41, 
                            "t0": 10008, 
                            "v": 49, 
                            "dur": 115, 
                            "type": "note", 
                            "channel": 12
                        }
                    ]
                ], 
                [
                    10009, 
                    [
                        {
                            "pitch": 43, 
                            "t0": 10009, 
                            "v": 50, 
                            "dur": 115, 
                            "type": "note", 
                            "channel": 12
                        }
                    ]
                ], 
                [
                    10270, 
                    [
                        {
                            "pitch": 41, 
                            "t0": 10270, 
                            "v": 127, 
                            "dur": 183, 
                            "type": "note", 
                            "channel": 12
                        }
                    ]
                ], 
                [
                    10271, 
                    [
                        {
                            "pitch": 45, 
                            "t0": 10271, 
                            "v": 127, 
                            "dur": 169, 
                            "type": "note", 
                            "channel": 12
                        }
                    ]
                ], 
                [
                    10272, 
                    [
                        {
                            "pitch": 43, 
                            "t0": 10272, 
                            "v": 127, 
                            "dur": 176, 
                            "type": "note", 
                            "channel": 12
                        }
                    ]
                ], 
                [
                    10541, 
                    [
                        {
                            "pitch": 47, 
                            "t0": 10541, 
                            "v": 58, 
                            "dur": 78, 
                            "type": "note", 
                            "channel": 12
                        }
                    ]
                ], 
                [
                    10669, 
                    [
                        {
                            "pitch": 47, 
                            "t0": 10669, 
                            "v": 49, 
                            "dur": 77, 
                            "type": "note", 
                            "channel": 12
                        }
                    ]
                ], 
                [
                    10924, 
                    [
                        {
                            "pitch": 47, 
                            "t0": 10924, 
                            "v": 76, 
                            "dur": 60, 
                            "type": "note", 
                            "channel": 12
                        }
                    ]
                ], 
                [
                    11056, 
                    [
                        {
                            "pitch": 45, 
                            "t0": 11056, 
                            "v": 58, 
                            "dur": 129, 
                            "type": "note", 
                            "channel": 12
                        }
                    ]
                ], 
                [
                    11060, 
                    [
                        {
                            "pitch": 41, 
                            "t0": 11060, 
                            "v": 58, 
                            "dur": 118, 
                            "type": "note", 
                            "channel": 12
                        }
                    ]
                ], 
                [
                    11061, 
                    [
                        {
                            "pitch": 43, 
                            "t0": 11061, 
                            "v": 58, 
                            "dur": 123, 
                            "type": "note", 
                            "channel": 12
                        }
                    ]
                ], 
                [
                    11329, 
                    [
                        {
                            "pitch": 45, 
                            "t0": 11329, 
                            "v": 127, 
                            "dur": 186, 
                            "type": "note", 
                            "channel": 12
                        }
                    ]
                ], 
                [
                    11330, 
                    [
                        {
                            "pitch": 43, 
                            "t0": 11330, 
                            "v": 127, 
                            "dur": 187, 
                            "type": "note", 
                            "channel": 12
                        }, 
                        {
                            "pitch": 41, 
                            "t0": 11330, 
                            "v": 127, 
                            "dur": 193, 
                            "type": "note", 
                            "channel": 12
                        }
                    ]
                ], 
                [
                    11590, 
                    [
                        {
                            "pitch": 47, 
                            "t0": 11590, 
                            "v": 84, 
                            "dur": 74, 
                            "type": "note", 
                            "channel": 12
                        }
                    ]
                ], 
                [
                    11724, 
                    [
                        {
                            "pitch": 47, 
                            "t0": 11724, 
                            "v": 42, 
                            "dur": 79, 
                            "type": "note", 
                            "channel": 12
                        }
                    ]
                ], 
                [
                    11965, 
                    [
                        {
                            "pitch": 47, 
                            "t0": 11965, 
                            "v": 76, 
                            "dur": 61, 
                            "type": "note", 
                            "channel": 12
                        }
                    ]
                ], 
                [
                    12103, 
                    [
                        {
                            "pitch": 45, 
                            "t0": 12103, 
                            "v": 58, 
                            "dur": 118, 
                            "type": "note", 
                            "channel": 12
                        }
                    ]
                ], 
                [
                    12105, 
                    [
                        {
                            "pitch": 41, 
                            "t0": 12105, 
                            "v": 58, 
                            "dur": 119, 
                            "type": "note", 
                            "channel": 12
                        }
                    ]
                ], 
                [
                    12106, 
                    [
                        {
                            "pitch": 43, 
                            "t0": 12106, 
                            "v": 58, 
                            "dur": 102, 
                            "type": "note", 
                            "channel": 12
                        }
                    ]
                ], 
                [
                    12369, 
                    [
                        {
                            "pitch": 43, 
                            "t0": 12369, 
                            "v": 127, 
                            "dur": 192, 
                            "type": "note", 
                            "channel": 12
                        }, 
                        {
                            "pitch": 45, 
                            "t0": 12369, 
                            "v": 127, 
                            "dur": 210, 
                            "type": "note", 
                            "channel": 12
                        }, 
                        {
                            "pitch": 41, 
                            "t0": 12369, 
                            "v": 127, 
                            "dur": 217, 
                            "type": "note", 
                            "channel": 12
                        }
                    ]
                ], 
                [
                    12631, 
                    [
                        {
                            "pitch": 47, 
                            "t0": 12631, 
                            "v": 72, 
                            "dur": 65, 
                            "type": "note", 
                            "channel": 12
                        }
                    ]
                ], 
                [
                    12748, 
                    [
                        {
                            "pitch": 47, 
                            "t0": 12748, 
                            "v": 48, 
                            "dur": 88, 
                            "type": "note", 
                            "channel": 12
                        }
                    ]
                ], 
                [
                    13000, 
                    [
                        {
                            "pitch": 47, 
                            "t0": 13000, 
                            "v": 56, 
                            "dur": 85, 
                            "type": "note", 
                            "channel": 12
                        }
                    ]
                ], 
                [
                    13143, 
                    [
                        {
                            "pitch": 43, 
                            "t0": 13143, 
                            "v": 58, 
                            "dur": 85, 
                            "type": "note", 
                            "channel": 12
                        }
                    ]
                ], 
                [
                    13144, 
                    [
                        {
                            "pitch": 45, 
                            "t0": 13144, 
                            "v": 58, 
                            "dur": 90, 
                            "type": "note", 
                            "channel": 12
                        }
                    ]
                ], 
                [
                    13146, 
                    [
                        {
                            "pitch": 41, 
                            "t0": 13146, 
                            "v": 58, 
                            "dur": 76, 
                            "type": "note", 
                            "channel": 12
                        }
                    ]
                ], 
                [
                    13413, 
                    [
                        {
                            "pitch": 45, 
                            "t0": 13413, 
                            "v": 127, 
                            "dur": 200, 
                            "type": "note", 
                            "channel": 12
                        }
                    ]
                ], 
                [
                    13415, 
                    [
                        {
                            "pitch": 43, 
                            "t0": 13415, 
                            "v": 127, 
                            "dur": 189, 
                            "type": "note", 
                            "channel": 12
                        }, 
                        {
                            "pitch": 41, 
                            "t0": 13415, 
                            "v": 127, 
                            "dur": 191, 
                            "type": "note", 
                            "channel": 12
                        }
                    ]
                ], 
                [
                    13676, 
                    [
                        {
                            "pitch": 47, 
                            "t0": 13676, 
                            "v": 68, 
                            "dur": 67, 
                            "type": "note", 
                            "channel": 12
                        }
                    ]
                ], 
                [
                    13816, 
                    [
                        {
                            "pitch": 47, 
                            "t0": 13816, 
                            "v": 49, 
                            "dur": 73, 
                            "type": "note", 
                            "channel": 12
                        }
                    ]
                ], 
                [
                    14065, 
                    [
                        {
                            "pitch": 47, 
                            "t0": 14065, 
                            "v": 68, 
                            "dur": 84, 
                            "type": "note", 
                            "channel": 12
                        }
                    ]
                ], 
                [
                    14197, 
                    [
                        {
                            "pitch": 41, 
                            "t0": 14197, 
                            "v": 68, 
                            "dur": 99, 
                            "type": "note", 
                            "channel": 12
                        }
                    ]
                ], 
                [
                    14198, 
                    [
                        {
                            "pitch": 45, 
                            "t0": 14198, 
                            "v": 64, 
                            "dur": 100, 
                            "type": "note", 
                            "channel": 12
                        }
                    ]
                ], 
                [
                    14199, 
                    [
                        {
                            "pitch": 43, 
                            "t0": 14199, 
                            "v": 68, 
                            "dur": 95, 
                            "type": "note", 
                            "channel": 12
                        }
                    ]
                ], 
                [
                    14457, 
                    [
                        {
                            "pitch": 43, 
                            "t0": 14457, 
                            "v": 127, 
                            "dur": 183, 
                            "type": "note", 
                            "channel": 12
                        }, 
                        {
                            "pitch": 45, 
                            "t0": 14457, 
                            "v": 127, 
                            "dur": 186, 
                            "type": "note", 
                            "channel": 12
                        }
                    ]
                ], 
                [
                    14458, 
                    [
                        {
                            "pitch": 41, 
                            "t0": 14458, 
                            "v": 127, 
                            "dur": 183, 
                            "type": "note", 
                            "channel": 12
                        }
                    ]
                ], 
                [
                    14718, 
                    [
                        {
                            "pitch": 47, 
                            "t0": 14718, 
                            "v": 64, 
                            "dur": 78, 
                            "type": "note", 
                            "channel": 12
                        }
                    ]
                ], 
                [
                    14850, 
                    [
                        {
                            "pitch": 47, 
                            "t0": 14850, 
                            "v": 58, 
                            "dur": 82, 
                            "type": "note", 
                            "channel": 12
                        }
                    ]
                ], 
                [
                    15093, 
                    [
                        {
                            "pitch": 47, 
                            "t0": 15093, 
                            "v": 60, 
                            "dur": 76, 
                            "type": "note", 
                            "channel": 12
                        }
                    ]
                ], 
                [
                    15233, 
                    [
                        {
                            "pitch": 41, 
                            "t0": 15233, 
                            "v": 64, 
                            "dur": 104, 
                            "type": "note", 
                            "channel": 12
                        }
                    ]
                ], 
                [
                    15234, 
                    [
                        {
                            "pitch": 43, 
                            "t0": 15234, 
                            "v": 64, 
                            "dur": 101, 
                            "type": "note", 
                            "channel": 12
                        }, 
                        {
                            "pitch": 45, 
                            "t0": 15234, 
                            "v": 76, 
                            "dur": 103, 
                            "type": "note", 
                            "channel": 12
                        }
                    ]
                ], 
                [
                    15484, 
                    [
                        {
                            "pitch": 41, 
                            "t0": 15484, 
                            "v": 127, 
                            "dur": 165, 
                            "type": "note", 
                            "channel": 12
                        }
                    ]
                ], 
                [
                    15485, 
                    [
                        {
                            "pitch": 45, 
                            "t0": 15485, 
                            "v": 127, 
                            "dur": 159, 
                            "type": "note", 
                            "channel": 12
                        }, 
                        {
                            "pitch": 43, 
                            "t0": 15485, 
                            "v": 127, 
                            "dur": 163, 
                            "type": "note", 
                            "channel": 12
                        }
                    ]
                ], 
                [
                    15745, 
                    [
                        {
                            "pitch": 47, 
                            "t0": 15745, 
                            "v": 100, 
                            "dur": 77, 
                            "type": "note", 
                            "channel": 12
                        }
                    ]
                ], 
                [
                    15876, 
                    [
                        {
                            "pitch": 47, 
                            "t0": 15876, 
                            "v": 52, 
                            "dur": 77, 
                            "type": "note", 
                            "channel": 12
                        }
                    ]
                ], 
                [
                    16137, 
                    [
                        {
                            "pitch": 47, 
                            "t0": 16137, 
                            "v": 80, 
                            "dur": 62, 
                            "type": "note", 
                            "channel": 12
                        }
                    ]
                ], 
                [
                    16265, 
                    [
                        {
                            "pitch": 45, 
                            "t0": 16265, 
                            "v": 68, 
                            "dur": 71, 
                            "type": "note", 
                            "channel": 12
                        }
                    ]
                ], 
                [
                    16267, 
                    [
                        {
                            "pitch": 41, 
                            "t0": 16267, 
                            "v": 68, 
                            "dur": 63, 
                            "type": "note", 
                            "channel": 12
                        }
                    ]
                ], 
                [
                    16268, 
                    [
                        {
                            "pitch": 43, 
                            "t0": 16268, 
                            "v": 68, 
                            "dur": 66, 
                            "type": "note", 
                            "channel": 12
                        }
                    ]
                ], 
                [
                    16530, 
                    [
                        {
                            "pitch": 45, 
                            "t0": 16530, 
                            "v": 127, 
                            "dur": 141, 
                            "type": "note", 
                            "channel": 12
                        }
                    ]
                ], 
                [
                    16531, 
                    [
                        {
                            "pitch": 41, 
                            "t0": 16531, 
                            "v": 127, 
                            "dur": 161, 
                            "type": "note", 
                            "channel": 12
                        }
                    ]
                ], 
                [
                    16532, 
                    [
                        {
                            "pitch": 43, 
                            "t0": 16532, 
                            "v": 127, 
                            "dur": 163, 
                            "type": "note", 
                            "channel": 12
                        }
                    ]
                ], 
                [
                    16791, 
                    [
                        {
                            "pitch": 47, 
                            "t0": 16791, 
                            "v": 96, 
                            "dur": 70, 
                            "type": "note", 
                            "channel": 12
                        }
                    ]
                ], 
                [
                    16916, 
                    [
                        {
                            "pitch": 47, 
                            "t0": 16916, 
                            "v": 58, 
                            "dur": 82, 
                            "type": "note", 
                            "channel": 12
                        }
                    ]
                ], 
                [
                    17162, 
                    [
                        {
                            "pitch": 47, 
                            "t0": 17162, 
                            "v": 68, 
                            "dur": 94, 
                            "type": "note", 
                            "channel": 12
                        }
                    ]
                ], 
                [
                    17294, 
                    [
                        {
                            "pitch": 45, 
                            "t0": 17294, 
                            "v": 68, 
                            "dur": 99, 
                            "type": "note", 
                            "channel": 12
                        }
                    ]
                ], 
                [
                    17303, 
                    [
                        {
                            "pitch": 43, 
                            "t0": 17303, 
                            "v": 68, 
                            "dur": 84, 
                            "type": "note", 
                            "channel": 12
                        }, 
                        {
                            "pitch": 41, 
                            "t0": 17303, 
                            "v": 68, 
                            "dur": 88, 
                            "type": "note", 
                            "channel": 12
                        }
                    ]
                ], 
                [
                    17551, 
                    [
                        {
                            "pitch": 45, 
                            "t0": 17551, 
                            "v": 127, 
                            "dur": 171, 
                            "type": "note", 
                            "channel": 12
                        }
                    ]
                ], 
                [
                    17552, 
                    [
                        {
                            "pitch": 41, 
                            "t0": 17552, 
                            "v": 127, 
                            "dur": 184, 
                            "type": "note", 
                            "channel": 12
                        }, 
                        {
                            "pitch": 43, 
                            "t0": 17552, 
                            "v": 127, 
                            "dur": 184, 
                            "type": "note", 
                            "channel": 12
                        }
                    ]
                ], 
                [
                    17804, 
                    [
                        {
                            "pitch": 47, 
                            "t0": 17804, 
                            "v": 54, 
                            "dur": 77, 
                            "type": "note", 
                            "channel": 12
                        }
                    ]
                ], 
                [
                    17928, 
                    [
                        {
                            "pitch": 47, 
                            "t0": 17928, 
                            "v": 47, 
                            "dur": 89, 
                            "type": "note", 
                            "channel": 12
                        }
                    ]
                ], 
                [
                    18180, 
                    [
                        {
                            "pitch": 47, 
                            "t0": 18180, 
                            "v": 54, 
                            "dur": 76, 
                            "type": "note", 
                            "channel": 12
                        }
                    ]
                ], 
                [
                    18316, 
                    [
                        {
                            "pitch": 45, 
                            "t0": 18316, 
                            "v": 42, 
                            "dur": 113, 
                            "type": "note", 
                            "channel": 12
                        }
                    ]
                ], 
                [
                    18321, 
                    [
                        {
                            "pitch": 41, 
                            "t0": 18321, 
                            "v": 46, 
                            "dur": 102, 
                            "type": "note", 
                            "channel": 12
                        }
                    ]
                ], 
                [
                    18322, 
                    [
                        {
                            "pitch": 43, 
                            "t0": 18322, 
                            "v": 50, 
                            "dur": 104, 
                            "type": "note", 
                            "channel": 12
                        }
                    ]
                ], 
                [
                    18583, 
                    [
                        {
                            "pitch": 45, 
                            "t0": 18583, 
                            "v": 127, 
                            "dur": 200, 
                            "type": "note", 
                            "channel": 12
                        }, 
                        {
                            "pitch": 41, 
                            "t0": 18583, 
                            "v": 127, 
                            "dur": 211, 
                            "type": "note", 
                            "channel": 12
                        }
                    ]
                ], 
                [
                    18584, 
                    [
                        {
                            "pitch": 43, 
                            "t0": 18584, 
                            "v": 127, 
                            "dur": 209, 
                            "type": "note", 
                            "channel": 12
                        }
                    ]
                ], 
                [
                    18834, 
                    [
                        {
                            "pitch": 47, 
                            "t0": 18834, 
                            "v": 68, 
                            "dur": 83, 
                            "type": "note", 
                            "channel": 12
                        }
                    ]
                ], 
                [
                    18962, 
                    [
                        {
                            "pitch": 47, 
                            "t0": 18962, 
                            "v": 44, 
                            "dur": 87, 
                            "type": "note", 
                            "channel": 12
                        }
                    ]
                ], 
                [
                    19207, 
                    [
                        {
                            "pitch": 47, 
                            "t0": 19207, 
                            "v": 60, 
                            "dur": 77, 
                            "type": "note", 
                            "channel": 12
                        }
                    ]
                ], 
                [
                    19336, 
                    [
                        {
                            "pitch": 45, 
                            "t0": 19336, 
                            "v": 46, 
                            "dur": 120, 
                            "type": "note", 
                            "channel": 12
                        }
                    ]
                ], 
                [
                    19342, 
                    [
                        {
                            "pitch": 41, 
                            "t0": 19342, 
                            "v": 48, 
                            "dur": 109, 
                            "type": "note", 
                            "channel": 12
                        }
                    ]
                ], 
                [
                    19344, 
                    [
                        {
                            "pitch": 43, 
                            "t0": 19344, 
                            "v": 47, 
                            "dur": 103, 
                            "type": "note", 
                            "channel": 12
                        }
                    ]
                ], 
                [
                    19606, 
                    [
                        {
                            "pitch": 45, 
                            "t0": 19606, 
                            "v": 127, 
                            "dur": 164, 
                            "type": "note", 
                            "channel": 12
                        }, 
                        {
                            "pitch": 43, 
                            "t0": 19606, 
                            "v": 127, 
                            "dur": 169, 
                            "type": "note", 
                            "channel": 12
                        }
                    ]
                ], 
                [
                    19607, 
                    [
                        {
                            "pitch": 41, 
                            "t0": 19607, 
                            "v": 127, 
                            "dur": 170, 
                            "type": "note", 
                            "channel": 12
                        }
                    ]
                ], 
                [
                    19870, 
                    [
                        {
                            "pitch": 47, 
                            "t0": 19870, 
                            "v": 80, 
                            "dur": 79, 
                            "type": "note", 
                            "channel": 12
                        }
                    ]
                ], 
                [
                    20005, 
                    [
                        {
                            "pitch": 47, 
                            "t0": 20005, 
                            "v": 45, 
                            "dur": 80, 
                            "type": "note", 
                            "channel": 12
                        }
                    ]
                ], 
                [
                    20251, 
                    [
                        {
                            "pitch": 47, 
                            "t0": 20251, 
                            "v": 64, 
                            "dur": 72, 
                            "type": "note", 
                            "channel": 12
                        }
                    ]
                ], 
                [
                    20382, 
                    [
                        {
                            "pitch": 45, 
                            "t0": 20382, 
                            "v": 54, 
                            "dur": 103, 
                            "type": "note", 
                            "channel": 12
                        }
                    ]
                ], 
                [
                    20383, 
                    [
                        {
                            "pitch": 41, 
                            "t0": 20383, 
                            "v": 54, 
                            "dur": 71, 
                            "type": "note", 
                            "channel": 12
                        }
                    ]
                ], 
                [
                    20384, 
                    [
                        {
                            "pitch": 43, 
                            "t0": 20384, 
                            "v": 54, 
                            "dur": 79, 
                            "type": "note", 
                            "channel": 12
                        }
                    ]
                ], 
                [
                    20639, 
                    [
                        {
                            "pitch": 45, 
                            "t0": 20639, 
                            "v": 127, 
                            "dur": 162, 
                            "type": "note", 
                            "channel": 12
                        }
                    ]
                ], 
                [
                    20640, 
                    [
                        {
                            "pitch": 41, 
                            "t0": 20640, 
                            "v": 127, 
                            "dur": 182, 
                            "type": "note", 
                            "channel": 12
                        }, 
                        {
                            "pitch": 43, 
                            "t0": 20640, 
                            "v": 127, 
                            "dur": 184, 
                            "type": "note", 
                            "channel": 12
                        }
                    ]
                ], 
                [
                    20889, 
                    [
                        {
                            "pitch": 47, 
                            "t0": 20889, 
                            "v": 54, 
                            "dur": 75, 
                            "type": "note", 
                            "channel": 12
                        }
                    ]
                ], 
                [
                    21019, 
                    [
                        {
                            "pitch": 47, 
                            "t0": 21019, 
                            "v": 50, 
                            "dur": 72, 
                            "type": "note", 
                            "channel": 12
                        }
                    ]
                ], 
                [
                    21266, 
                    [
                        {
                            "pitch": 47, 
                            "t0": 21266, 
                            "v": 64, 
                            "dur": 67, 
                            "type": "note", 
                            "channel": 12
                        }
                    ]
                ], 
                [
                    21401, 
                    [
                        {
                            "pitch": 45, 
                            "t0": 21401, 
                            "v": 50, 
                            "dur": 98, 
                            "type": "note", 
                            "channel": 12
                        }
                    ]
                ], 
                [
                    21404, 
                    [
                        {
                            "pitch": 41, 
                            "t0": 21404, 
                            "v": 54, 
                            "dur": 92, 
                            "type": "note", 
                            "channel": 12
                        }, 
                        {
                            "pitch": 43, 
                            "t0": 21404, 
                            "v": 58, 
                            "dur": 96, 
                            "type": "note", 
                            "channel": 12
                        }
                    ]
                ], 
                [
                    21668, 
                    [
                        {
                            "pitch": 45, 
                            "t0": 21668, 
                            "v": 104, 
                            "dur": 194, 
                            "type": "note", 
                            "channel": 12
                        }, 
                        {
                            "pitch": 43, 
                            "t0": 21668, 
                            "v": 120, 
                            "dur": 198, 
                            "type": "note", 
                            "channel": 12
                        }
                    ]
                ], 
                [
                    21669, 
                    [
                        {
                            "pitch": 41, 
                            "t0": 21669, 
                            "v": 112, 
                            "dur": 194, 
                            "type": "note", 
                            "channel": 12
                        }
                    ]
                ], 
                [
                    21927, 
                    [
                        {
                            "pitch": 47, 
                            "t0": 21927, 
                            "v": 64, 
                            "dur": 70, 
                            "type": "note", 
                            "channel": 12
                        }
                    ]
                ], 
                [
                    22051, 
                    [
                        {
                            "pitch": 47, 
                            "t0": 22051, 
                            "v": 35, 
                            "dur": 92, 
                            "type": "note", 
                            "channel": 12
                        }
                    ]
                ], 
                [
                    22306, 
                    [
                        {
                            "pitch": 47, 
                            "t0": 22306, 
                            "v": 64, 
                            "dur": 69, 
                            "type": "note", 
                            "channel": 12
                        }
                    ]
                ], 
                [
                    22444, 
                    [
                        {
                            "pitch": 45, 
                            "t0": 22444, 
                            "v": 43, 
                            "dur": 93, 
                            "type": "note", 
                            "channel": 12
                        }
                    ]
                ], 
                [
                    22446, 
                    [
                        {
                            "pitch": 41, 
                            "t0": 22446, 
                            "v": 38, 
                            "dur": 79, 
                            "type": "note", 
                            "channel": 12
                        }, 
                        {
                            "pitch": 43, 
                            "t0": 22446, 
                            "v": 42, 
                            "dur": 87, 
                            "type": "note", 
                            "channel": 12
                        }
                    ]
                ], 
                [
                    22705, 
                    [
                        {
                            "pitch": 45, 
                            "t0": 22705, 
                            "v": 116, 
                            "dur": 178, 
                            "type": "note", 
                            "channel": 12
                        }, 
                        {
                            "pitch": 43, 
                            "t0": 22705, 
                            "v": 92, 
                            "dur": 181, 
                            "type": "note", 
                            "channel": 12
                        }
                    ]
                ], 
                [
                    22706, 
                    [
                        {
                            "pitch": 41, 
                            "t0": 22706, 
                            "v": 116, 
                            "dur": 174, 
                            "type": "note", 
                            "channel": 12
                        }
                    ]
                ], 
                [
                    22967, 
                    [
                        {
                            "pitch": 47, 
                            "t0": 22967, 
                            "v": 52, 
                            "dur": 73, 
                            "type": "note", 
                            "channel": 12
                        }
                    ]
                ], 
                [
                    23090, 
                    [
                        {
                            "pitch": 47, 
                            "t0": 23090, 
                            "v": 54, 
                            "dur": 90, 
                            "type": "note", 
                            "channel": 12
                        }
                    ]
                ], 
                [
                    23335, 
                    [
                        {
                            "pitch": 47, 
                            "t0": 23335, 
                            "v": 50, 
                            "dur": 103, 
                            "type": "note", 
                            "channel": 12
                        }
                    ]
                ], 
                [
                    23465, 
                    [
                        {
                            "pitch": 43, 
                            "t0": 23465, 
                            "v": 56, 
                            "dur": 68, 
                            "type": "note", 
                            "channel": 12
                        }, 
                        {
                            "pitch": 45, 
                            "t0": 23465, 
                            "v": 76, 
                            "dur": 81, 
                            "type": "note", 
                            "channel": 12
                        }
                    ]
                ], 
                [
                    23466, 
                    [
                        {
                            "pitch": 41, 
                            "t0": 23466, 
                            "v": 58, 
                            "dur": 62, 
                            "type": "note", 
                            "channel": 12
                        }
                    ]
                ], 
                [
                    23720, 
                    [
                        {
                            "pitch": 45, 
                            "t0": 23720, 
                            "v": 116, 
                            "dur": 208, 
                            "type": "note", 
                            "channel": 12
                        }
                    ]
                ], 
                [
                    23721, 
                    [
                        {
                            "pitch": 41, 
                            "t0": 23721, 
                            "v": 112, 
                            "dur": 207, 
                            "type": "note", 
                            "channel": 12
                        }, 
                        {
                            "pitch": 43, 
                            "t0": 23721, 
                            "v": 112, 
                            "dur": 215, 
                            "type": "note", 
                            "channel": 12
                        }
                    ]
                ], 
                [
                    23986, 
                    [
                        {
                            "pitch": 47, 
                            "t0": 23986, 
                            "v": 43, 
                            "dur": 78, 
                            "type": "note", 
                            "channel": 12
                        }
                    ]
                ], 
                [
                    24116, 
                    [
                        {
                            "pitch": 47, 
                            "t0": 24116, 
                            "v": 46, 
                            "dur": 80, 
                            "type": "note", 
                            "channel": 12
                        }
                    ]
                ], 
                [
                    24365, 
                    [
                        {
                            "pitch": 47, 
                            "t0": 24365, 
                            "v": 49, 
                            "dur": 86, 
                            "type": "note", 
                            "channel": 12
                        }
                    ]
                ], 
                [
                    24509, 
                    [
                        {
                            "pitch": 45, 
                            "t0": 24509, 
                            "v": 40, 
                            "dur": 98, 
                            "type": "note", 
                            "channel": 12
                        }
                    ]
                ], 
                [
                    24514, 
                    [
                        {
                            "pitch": 43, 
                            "t0": 24514, 
                            "v": 38, 
                            "dur": 88, 
                            "type": "note", 
                            "channel": 12
                        }, 
                        {
                            "pitch": 41, 
                            "t0": 24514, 
                            "v": 40, 
                            "dur": 89, 
                            "type": "note", 
                            "channel": 12
                        }
                    ]
                ], 
                [
                    24764, 
                    [
                        {
                            "pitch": 45, 
                            "t0": 24764, 
                            "v": 112, 
                            "dur": 177, 
                            "type": "note", 
                            "channel": 12
                        }, 
                        {
                            "pitch": 41, 
                            "t0": 24764, 
                            "v": 116, 
                            "dur": 197, 
                            "type": "note", 
                            "channel": 12
                        }
                    ]
                ], 
                [
                    24765, 
                    [
                        {
                            "pitch": 43, 
                            "t0": 24765, 
                            "v": 120, 
                            "dur": 192, 
                            "type": "note", 
                            "channel": 12
                        }
                    ]
                ], 
                [
                    25025, 
                    [
                        {
                            "pitch": 47, 
                            "t0": 25025, 
                            "v": 68, 
                            "dur": 72, 
                            "type": "note", 
                            "channel": 12
                        }
                    ]
                ], 
                [
                    25158, 
                    [
                        {
                            "pitch": 47, 
                            "t0": 25158, 
                            "v": 37, 
                            "dur": 73, 
                            "type": "note", 
                            "channel": 12
                        }
                    ]
                ], 
                [
                    25408, 
                    [
                        {
                            "pitch": 47, 
                            "t0": 25408, 
                            "v": 64, 
                            "dur": 75, 
                            "type": "note", 
                            "channel": 12
                        }
                    ]
                ], 
                [
                    25538, 
                    [
                        {
                            "pitch": 45, 
                            "t0": 25538, 
                            "v": 72, 
                            "dur": 96, 
                            "type": "note", 
                            "channel": 12
                        }
                    ]
                ], 
                [
                    25539, 
                    [
                        {
                            "pitch": 41, 
                            "t0": 25539, 
                            "v": 64, 
                            "dur": 83, 
                            "type": "note", 
                            "channel": 12
                        }
                    ]
                ], 
                [
                    25540, 
                    [
                        {
                            "pitch": 43, 
                            "t0": 25540, 
                            "v": 58, 
                            "dur": 88, 
                            "type": "note", 
                            "channel": 12
                        }
                    ]
                ], 
                [
                    25800, 
                    [
                        {
                            "pitch": 45, 
                            "t0": 25800, 
                            "v": 112, 
                            "dur": 207, 
                            "type": "note", 
                            "channel": 12
                        }
                    ]
                ], 
                [
                    25801, 
                    [
                        {
                            "pitch": 43, 
                            "t0": 25801, 
                            "v": 116, 
                            "dur": 219, 
                            "type": "note", 
                            "channel": 12
                        }
                    ]
                ], 
                [
                    25802, 
                    [
                        {
                            "pitch": 41, 
                            "t0": 25802, 
                            "v": 120, 
                            "dur": 221, 
                            "type": "note", 
                            "channel": 12
                        }
                    ]
                ], 
                [
                    26061, 
                    [
                        {
                            "pitch": 47, 
                            "t0": 26061, 
                            "v": 60, 
                            "dur": 73, 
                            "type": "note", 
                            "channel": 12
                        }
                    ]
                ], 
                [
                    26187, 
                    [
                        {
                            "pitch": 47, 
                            "t0": 26187, 
                            "v": 42, 
                            "dur": 80, 
                            "type": "note", 
                            "channel": 12
                        }
                    ]
                ], 
                [
                    26434, 
                    [
                        {
                            "pitch": 47, 
                            "t0": 26434, 
                            "v": 64, 
                            "dur": 68, 
                            "type": "note", 
                            "channel": 12
                        }
                    ]
                ], 
                [
                    26579, 
                    [
                        {
                            "pitch": 45, 
                            "t0": 26579, 
                            "v": 76, 
                            "dur": 100, 
                            "type": "note", 
                            "channel": 12
                        }
                    ]
                ], 
                [
                    26581, 
                    [
                        {
                            "pitch": 43, 
                            "t0": 26581, 
                            "v": 54, 
                            "dur": 89, 
                            "type": "note", 
                            "channel": 12
                        }
                    ]
                ], 
                [
                    26583, 
                    [
                        {
                            "pitch": 41, 
                            "t0": 26583, 
                            "v": 58, 
                            "dur": 81, 
                            "type": "note", 
                            "channel": 12
                        }
                    ]
                ], 
                [
                    26841, 
                    [
                        {
                            "pitch": 45, 
                            "t0": 26841, 
                            "v": 100, 
                            "dur": 184, 
                            "type": "note", 
                            "channel": 12
                        }
                    ]
                ], 
                [
                    26842, 
                    [
                        {
                            "pitch": 41, 
                            "t0": 26842, 
                            "v": 116, 
                            "dur": 198, 
                            "type": "note", 
                            "channel": 12
                        }
                    ]
                ], 
                [
                    26843, 
                    [
                        {
                            "pitch": 43, 
                            "t0": 26843, 
                            "v": 112, 
                            "dur": 195, 
                            "type": "note", 
                            "channel": 12
                        }
                    ]
                ], 
                [
                    27101, 
                    [
                        {
                            "pitch": 47, 
                            "t0": 27101, 
                            "v": 60, 
                            "dur": 71, 
                            "type": "note", 
                            "channel": 12
                        }
                    ]
                ], 
                [
                    27229, 
                    [
                        {
                            "pitch": 47, 
                            "t0": 27229, 
                            "v": 49, 
                            "dur": 74, 
                            "type": "note", 
                            "channel": 12
                        }
                    ]
                ], 
                [
                    27486, 
                    [
                        {
                            "pitch": 47, 
                            "t0": 27486, 
                            "v": 52, 
                            "dur": 84, 
                            "type": "note", 
                            "channel": 12
                        }
                    ]
                ], 
                [
                    27613, 
                    [
                        {
                            "pitch": 41, 
                            "t0": 27613, 
                            "v": 64, 
                            "dur": 74, 
                            "type": "note", 
                            "channel": 12
                        }, 
                        {
                            "pitch": 45, 
                            "t0": 27613, 
                            "v": 72, 
                            "dur": 84, 
                            "type": "note", 
                            "channel": 12
                        }
                    ]
                ], 
                [
                    27615, 
                    [
                        {
                            "pitch": 43, 
                            "t0": 27615, 
                            "v": 52, 
                            "dur": 71, 
                            "type": "note", 
                            "channel": 12
                        }
                    ]
                ], 
                [
                    27875, 
                    [
                        {
                            "pitch": 41, 
                            "t0": 27875, 
                            "v": 116, 
                            "dur": 211, 
                            "type": "note", 
                            "channel": 12
                        }
                    ]
                ], 
                [
                    27876, 
                    [
                        {
                            "pitch": 45, 
                            "t0": 27876, 
                            "v": 116, 
                            "dur": 193, 
                            "type": "note", 
                            "channel": 12
                        }, 
                        {
                            "pitch": 43, 
                            "t0": 27876, 
                            "v": 116, 
                            "dur": 207, 
                            "type": "note", 
                            "channel": 12
                        }
                    ]
                ], 
                [
                    28143, 
                    [
                        {
                            "pitch": 47, 
                            "t0": 28143, 
                            "v": 54, 
                            "dur": 69, 
                            "type": "note", 
                            "channel": 12
                        }
                    ]
                ], 
                [
                    28276, 
                    [
                        {
                            "pitch": 47, 
                            "t0": 28276, 
                            "v": 58, 
                            "dur": 70, 
                            "type": "note", 
                            "channel": 12
                        }
                    ]
                ], 
                [
                    28532, 
                    [
                        {
                            "pitch": 47, 
                            "t0": 28532, 
                            "v": 54, 
                            "dur": 98, 
                            "type": "note", 
                            "channel": 12
                        }
                    ]
                ], 
                [
                    28662, 
                    [
                        {
                            "pitch": 45, 
                            "t0": 28662, 
                            "v": 48, 
                            "dur": 96, 
                            "type": "note", 
                            "channel": 12
                        }
                    ]
                ], 
                [
                    28665, 
                    [
                        {
                            "pitch": 43, 
                            "t0": 28665, 
                            "v": 49, 
                            "dur": 90, 
                            "type": "note", 
                            "channel": 12
                        }
                    ]
                ], 
                [
                    28668, 
                    [
                        {
                            "pitch": 41, 
                            "t0": 28668, 
                            "v": 48, 
                            "dur": 83, 
                            "type": "note", 
                            "channel": 12
                        }
                    ]
                ], 
                [
                    28920, 
                    [
                        {
                            "pitch": 43, 
                            "t0": 28920, 
                            "v": 108, 
                            "dur": 204, 
                            "type": "note", 
                            "channel": 12
                        }, 
                        {
                            "pitch": 41, 
                            "t0": 28920, 
                            "v": 116, 
                            "dur": 205, 
                            "type": "note", 
                            "channel": 12
                        }
                    ]
                ], 
                [
                    28921, 
                    [
                        {
                            "pitch": 45, 
                            "t0": 28921, 
                            "v": 108, 
                            "dur": 193, 
                            "type": "note", 
                            "channel": 12
                        }
                    ]
                ], 
                [
                    29178, 
                    [
                        {
                            "pitch": 47, 
                            "t0": 29178, 
                            "v": 64, 
                            "dur": 76, 
                            "type": "note", 
                            "channel": 12
                        }
                    ]
                ], 
                [
                    29302, 
                    [
                        {
                            "pitch": 47, 
                            "t0": 29302, 
                            "v": 58, 
                            "dur": 97, 
                            "type": "note", 
                            "channel": 12
                        }
                    ]
                ], 
                [
                    29550, 
                    [
                        {
                            "pitch": 47, 
                            "t0": 29550, 
                            "v": 56, 
                            "dur": 104, 
                            "type": "note", 
                            "channel": 12
                        }
                    ]
                ], 
                [
                    29697, 
                    [
                        {
                            "pitch": 45, 
                            "t0": 29697, 
                            "v": 43, 
                            "dur": 99, 
                            "type": "note", 
                            "channel": 12
                        }
                    ]
                ], 
                [
                    29700, 
                    [
                        {
                            "pitch": 43, 
                            "t0": 29700, 
                            "v": 44, 
                            "dur": 91, 
                            "type": "note", 
                            "channel": 12
                        }
                    ]
                ], 
                [
                    29704, 
                    [
                        {
                            "pitch": 41, 
                            "t0": 29704, 
                            "v": 43, 
                            "dur": 89, 
                            "type": "note", 
                            "channel": 12
                        }
                    ]
                ], 
                [
                    29952, 
                    [
                        {
                            "pitch": 43, 
                            "t0": 29952, 
                            "v": 116, 
                            "dur": 195, 
                            "type": "note", 
                            "channel": 12
                        }
                    ]
                ], 
                [
                    29953, 
                    [
                        {
                            "pitch": 41, 
                            "t0": 29953, 
                            "v": 112, 
                            "dur": 191, 
                            "type": "note", 
                            "channel": 12
                        }, 
                        {
                            "pitch": 45, 
                            "t0": 29953, 
                            "v": 112, 
                            "dur": 192, 
                            "type": "note", 
                            "channel": 12
                        }
                    ]
                ], 
                [
                    30204, 
                    [
                        {
                            "pitch": 47, 
                            "t0": 30204, 
                            "v": 76, 
                            "dur": 82, 
                            "type": "note", 
                            "channel": 12
                        }
                    ]
                ], 
                [
                    30329, 
                    [
                        {
                            "pitch": 47, 
                            "t0": 30329, 
                            "v": 64, 
                            "dur": 85, 
                            "type": "note", 
                            "channel": 12
                        }
                    ]
                ], 
                [
                    30592, 
                    [
                        {
                            "pitch": 47, 
                            "t0": 30592, 
                            "v": 54, 
                            "dur": 75, 
                            "type": "note", 
                            "channel": 12
                        }
                    ]
                ], 
                [
                    30724, 
                    [
                        {
                            "pitch": 45, 
                            "t0": 30724, 
                            "v": 80, 
                            "dur": 97, 
                            "type": "note", 
                            "channel": 12
                        }
                    ]
                ], 
                [
                    30726, 
                    [
                        {
                            "pitch": 41, 
                            "t0": 30726, 
                            "v": 76, 
                            "dur": 91, 
                            "type": "note", 
                            "channel": 12
                        }, 
                        {
                            "pitch": 43, 
                            "t0": 30726, 
                            "v": 68, 
                            "dur": 92, 
                            "type": "note", 
                            "channel": 12
                        }
                    ]
                ], 
                [
                    30985, 
                    [
                        {
                            "pitch": 45, 
                            "t0": 30985, 
                            "v": 112, 
                            "dur": 194, 
                            "type": "note", 
                            "channel": 12
                        }, 
                        {
                            "pitch": 41, 
                            "t0": 30985, 
                            "v": 112, 
                            "dur": 200, 
                            "type": "note", 
                            "channel": 12
                        }
                    ]
                ], 
                [
                    30986, 
                    [
                        {
                            "pitch": 43, 
                            "t0": 30986, 
                            "v": 120, 
                            "dur": 205, 
                            "type": "note", 
                            "channel": 12
                        }
                    ]
                ], 
                [
                    31240, 
                    [
                        {
                            "pitch": 47, 
                            "t0": 31240, 
                            "v": 60, 
                            "dur": 76, 
                            "type": "note", 
                            "channel": 12
                        }
                    ]
                ], 
                [
                    31366, 
                    [
                        {
                            "pitch": 47, 
                            "t0": 31366, 
                            "v": 54, 
                            "dur": 92, 
                            "type": "note", 
                            "channel": 12
                        }
                    ]
                ], 
                [
                    31606, 
                    [
                        {
                            "pitch": 47, 
                            "t0": 31606, 
                            "v": 58, 
                            "dur": 100, 
                            "type": "note", 
                            "channel": 12
                        }
                    ]
                ], 
                [
                    31732, 
                    [
                        {
                            "pitch": 45, 
                            "t0": 31732, 
                            "v": 60, 
                            "dur": 69, 
                            "type": "note", 
                            "channel": 12
                        }
                    ]
                ], 
                [
                    31734, 
                    [
                        {
                            "pitch": 41, 
                            "t0": 31734, 
                            "v": 72, 
                            "dur": 62, 
                            "type": "note", 
                            "channel": 12
                        }, 
                        {
                            "pitch": 43, 
                            "t0": 31734, 
                            "v": 58, 
                            "dur": 63, 
                            "type": "note", 
                            "channel": 12
                        }
                    ]
                ], 
                [
                    31997, 
                    [
                        {
                            "pitch": 41, 
                            "t0": 31997, 
                            "v": 112, 
                            "dur": 197, 
                            "type": "note", 
                            "channel": 12
                        }, 
                        {
                            "pitch": 43, 
                            "t0": 31997, 
                            "v": 116, 
                            "dur": 198, 
                            "type": "note", 
                            "channel": 12
                        }
                    ]
                ], 
                [
                    31998, 
                    [
                        {
                            "pitch": 45, 
                            "t0": 31998, 
                            "v": 108, 
                            "dur": 184, 
                            "type": "note", 
                            "channel": 12
                        }
                    ]
                ], 
                [
                    32265, 
                    [
                        {
                            "pitch": 47, 
                            "t0": 32265, 
                            "v": 40, 
                            "dur": 73, 
                            "type": "note", 
                            "channel": 12
                        }
                    ]
                ], 
                [
                    32387, 
                    [
                        {
                            "pitch": 47, 
                            "t0": 32387, 
                            "v": 56, 
                            "dur": 76, 
                            "type": "note", 
                            "channel": 12
                        }
                    ]
                ], 
                [
                    32639, 
                    [
                        {
                            "pitch": 47, 
                            "t0": 32639, 
                            "v": 60, 
                            "dur": 97, 
                            "type": "note", 
                            "channel": 12
                        }
                    ]
                ], 
                [
                    32772, 
                    [
                        {
                            "pitch": 43, 
                            "t0": 32772, 
                            "v": 50, 
                            "dur": 58, 
                            "type": "note", 
                            "channel": 12
                        }
                    ]
                ], 
                [
                    32773, 
                    [
                        {
                            "pitch": 45, 
                            "t0": 32773, 
                            "v": 50, 
                            "dur": 59, 
                            "type": "note", 
                            "channel": 12
                        }
                    ]
                ], 
                [
                    32774, 
                    [
                        {
                            "pitch": 41, 
                            "t0": 32774, 
                            "v": 48, 
                            "dur": 47, 
                            "type": "note", 
                            "channel": 12
                        }
                    ]
                ], 
                [
                    33022, 
                    [
                        {
                            "pitch": 45, 
                            "t0": 33022, 
                            "v": 104, 
                            "dur": 204, 
                            "type": "note", 
                            "channel": 12
                        }, 
                        {
                            "pitch": 41, 
                            "t0": 33022, 
                            "v": 112, 
                            "dur": 218, 
                            "type": "note", 
                            "channel": 12
                        }
                    ]
                ], 
                [
                    33023, 
                    [
                        {
                            "pitch": 43, 
                            "t0": 33023, 
                            "v": 112, 
                            "dur": 216, 
                            "type": "note", 
                            "channel": 12
                        }
                    ]
                ], 
                [
                    33272, 
                    [
                        {
                            "pitch": 47, 
                            "t0": 33272, 
                            "v": 72, 
                            "dur": 71, 
                            "type": "note", 
                            "channel": 12
                        }
                    ]
                ], 
                [
                    33399, 
                    [
                        {
                            "pitch": 47, 
                            "t0": 33399, 
                            "v": 52, 
                            "dur": 69, 
                            "type": "note", 
                            "channel": 12
                        }
                    ]
                ], 
                [
                    33648, 
                    [
                        {
                            "pitch": 47, 
                            "t0": 33648, 
                            "v": 50, 
                            "dur": 96, 
                            "type": "note", 
                            "channel": 12
                        }
                    ]
                ], 
                [
                    33782, 
                    [
                        {
                            "pitch": 45, 
                            "t0": 33782, 
                            "v": 46, 
                            "dur": 70, 
                            "type": "note", 
                            "channel": 12
                        }
                    ]
                ], 
                [
                    33783, 
                    [
                        {
                            "pitch": 43, 
                            "t0": 33783, 
                            "v": 48, 
                            "dur": 68, 
                            "type": "note", 
                            "channel": 12
                        }
                    ]
                ], 
                [
                    33785, 
                    [
                        {
                            "pitch": 41, 
                            "t0": 33785, 
                            "v": 46, 
                            "dur": 60, 
                            "type": "note", 
                            "channel": 12
                        }
                    ]
                ], 
                [
                    34038, 
                    [
                        {
                            "pitch": 43, 
                            "t0": 34038, 
                            "v": 112, 
                            "dur": 222, 
                            "type": "note", 
                            "channel": 12
                        }
                    ]
                ], 
                [
                    34039, 
                    [
                        {
                            "pitch": 41, 
                            "t0": 34039, 
                            "v": 116, 
                            "dur": 222, 
                            "type": "note", 
                            "channel": 12
                        }
                    ]
                ], 
                [
                    34040, 
                    [
                        {
                            "pitch": 45, 
                            "t0": 34040, 
                            "v": 108, 
                            "dur": 219, 
                            "type": "note", 
                            "channel": 12
                        }
                    ]
                ], 
                [
                    34298, 
                    [
                        {
                            "pitch": 47, 
                            "t0": 34298, 
                            "v": 46, 
                            "dur": 79, 
                            "type": "note", 
                            "channel": 12
                        }
                    ]
                ], 
                [
                    34422, 
                    [
                        {
                            "pitch": 47, 
                            "t0": 34422, 
                            "v": 48, 
                            "dur": 65, 
                            "type": "note", 
                            "channel": 12
                        }
                    ]
                ], 
                [
                    34669, 
                    [
                        {
                            "pitch": 47, 
                            "t0": 34669, 
                            "v": 44, 
                            "dur": 95, 
                            "type": "note", 
                            "channel": 12
                        }
                    ]
                ], 
                [
                    34792, 
                    [
                        {
                            "pitch": 45, 
                            "t0": 34792, 
                            "v": 68, 
                            "dur": 94, 
                            "type": "note", 
                            "channel": 12
                        }
                    ]
                ], 
                [
                    34793, 
                    [
                        {
                            "pitch": 43, 
                            "t0": 34793, 
                            "v": 64, 
                            "dur": 79, 
                            "type": "note", 
                            "channel": 12
                        }
                    ]
                ], 
                [
                    34795, 
                    [
                        {
                            "pitch": 41, 
                            "t0": 34795, 
                            "v": 60, 
                            "dur": 68, 
                            "type": "note", 
                            "channel": 12
                        }
                    ]
                ], 
                [
                    35057, 
                    [
                        {
                            "pitch": 45, 
                            "t0": 35057, 
                            "v": 108, 
                            "dur": 217, 
                            "type": "note", 
                            "channel": 12
                        }, 
                        {
                            "pitch": 41, 
                            "t0": 35057, 
                            "v": 116, 
                            "dur": 217, 
                            "type": "note", 
                            "channel": 12
                        }
                    ]
                ], 
                [
                    35058, 
                    [
                        {
                            "pitch": 43, 
                            "t0": 35058, 
                            "v": 108, 
                            "dur": 217, 
                            "type": "note", 
                            "channel": 12
                        }
                    ]
                ], 
                [
                    35316, 
                    [
                        {
                            "pitch": 47, 
                            "t0": 35316, 
                            "v": 58, 
                            "dur": 74, 
                            "type": "note", 
                            "channel": 12
                        }
                    ]
                ], 
                [
                    35454, 
                    [
                        {
                            "pitch": 47, 
                            "t0": 35454, 
                            "v": 46, 
                            "dur": 70, 
                            "type": "note", 
                            "channel": 12
                        }
                    ]
                ], 
                [
                    35710, 
                    [
                        {
                            "pitch": 47, 
                            "t0": 35710, 
                            "v": 50, 
                            "dur": 99, 
                            "type": "note", 
                            "channel": 12
                        }
                    ]
                ], 
                [
                    35838, 
                    [
                        {
                            "pitch": 45, 
                            "t0": 35838, 
                            "v": 60, 
                            "dur": 85, 
                            "type": "note", 
                            "channel": 12
                        }
                    ]
                ], 
                [
                    35839, 
                    [
                        {
                            "pitch": 43, 
                            "t0": 35839, 
                            "v": 58, 
                            "dur": 72, 
                            "type": "note", 
                            "channel": 12
                        }, 
                        {
                            "pitch": 41, 
                            "t0": 35839, 
                            "v": 56, 
                            "dur": 73, 
                            "type": "note", 
                            "channel": 12
                        }
                    ]
                ], 
                [
                    36095, 
                    [
                        {
                            "pitch": 41, 
                            "t0": 36095, 
                            "v": 124, 
                            "dur": 243, 
                            "type": "note", 
                            "channel": 12
                        }
                    ]
                ], 
                [
                    36096, 
                    [
                        {
                            "pitch": 43, 
                            "t0": 36096, 
                            "v": 127, 
                            "dur": 233, 
                            "type": "note", 
                            "channel": 12
                        }, 
                        {
                            "pitch": 45, 
                            "t0": 36096, 
                            "v": 120, 
                            "dur": 235, 
                            "type": "note", 
                            "channel": 12
                        }
                    ]
                ], 
                [
                    36348, 
                    [
                        {
                            "pitch": 47, 
                            "t0": 36348, 
                            "v": 76, 
                            "dur": 67, 
                            "type": "note", 
                            "channel": 12
                        }
                    ]
                ], 
                [
                    36478, 
                    [
                        {
                            "pitch": 47, 
                            "t0": 36478, 
                            "v": 47, 
                            "dur": 70, 
                            "type": "note", 
                            "channel": 12
                        }
                    ]
                ], 
                [
                    36727, 
                    [
                        {
                            "pitch": 47, 
                            "t0": 36727, 
                            "v": 72, 
                            "dur": 71, 
                            "type": "note", 
                            "channel": 12
                        }
                    ]
                ], 
                [
                    36859, 
                    [
                        {
                            "pitch": 43, 
                            "t0": 36859, 
                            "v": 49, 
                            "dur": 57, 
                            "type": "note", 
                            "channel": 12
                        }, 
                        {
                            "pitch": 45, 
                            "t0": 36859, 
                            "v": 49, 
                            "dur": 62, 
                            "type": "note", 
                            "channel": 12
                        }
                    ]
                ], 
                [
                    36860, 
                    [
                        {
                            "pitch": 41, 
                            "t0": 36860, 
                            "v": 48, 
                            "dur": 53, 
                            "type": "note", 
                            "channel": 12
                        }
                    ]
                ], 
                [
                    37110, 
                    [
                        {
                            "pitch": 45, 
                            "t0": 37110, 
                            "v": 124, 
                            "dur": 186, 
                            "type": "note", 
                            "channel": 12
                        }, 
                        {
                            "pitch": 43, 
                            "t0": 37110, 
                            "v": 116, 
                            "dur": 189, 
                            "type": "note", 
                            "channel": 12
                        }
                    ]
                ], 
                [
                    37111, 
                    [
                        {
                            "pitch": 41, 
                            "t0": 37111, 
                            "v": 120, 
                            "dur": 188, 
                            "type": "note", 
                            "channel": 12
                        }
                    ]
                ], 
                [
                    37363, 
                    [
                        {
                            "pitch": 47, 
                            "t0": 37363, 
                            "v": 76, 
                            "dur": 63, 
                            "type": "note", 
                            "channel": 12
                        }
                    ]
                ], 
                [
                    37487, 
                    [
                        {
                            "pitch": 47, 
                            "t0": 37487, 
                            "v": 44, 
                            "dur": 84, 
                            "type": "note", 
                            "channel": 12
                        }
                    ]
                ], 
                [
                    37744, 
                    [
                        {
                            "pitch": 47, 
                            "t0": 37744, 
                            "v": 68, 
                            "dur": 63, 
                            "type": "note", 
                            "channel": 12
                        }
                    ]
                ], 
                [
                    37884, 
                    [
                        {
                            "pitch": 41, 
                            "t0": 37884, 
                            "v": 92, 
                            "dur": 60, 
                            "type": "note", 
                            "channel": 12
                        }
                    ]
                ], 
                [
                    37885, 
                    [
                        {
                            "pitch": 43, 
                            "t0": 37885, 
                            "v": 88, 
                            "dur": 63, 
                            "type": "note", 
                            "channel": 12
                        }, 
                        {
                            "pitch": 45, 
                            "t0": 37885, 
                            "v": 84, 
                            "dur": 65, 
                            "type": "note", 
                            "channel": 12
                        }
                    ]
                ], 
                [
                    38133, 
                    [
                        {
                            "pitch": 41, 
                            "t0": 38133, 
                            "v": 80, 
                            "dur": 119, 
                            "type": "note", 
                            "channel": 12
                        }, 
                        {
                            "pitch": 43, 
                            "t0": 38133, 
                            "v": 88, 
                            "dur": 120, 
                            "type": "note", 
                            "channel": 12
                        }
                    ]
                ], 
                [
                    38134, 
                    [
                        {
                            "pitch": 45, 
                            "t0": 38134, 
                            "v": 80, 
                            "dur": 119, 
                            "type": "note", 
                            "channel": 12
                        }
                    ]
                ], 
                [
                    38403, 
                    [
                        {
                            "pitch": 47, 
                            "t0": 38403, 
                            "v": 60, 
                            "dur": 65, 
                            "type": "note", 
                            "channel": 12
                        }
                    ]
                ], 
                [
                    38531, 
                    [
                        {
                            "pitch": 47, 
                            "t0": 38531, 
                            "v": 46, 
                            "dur": 68, 
                            "type": "note", 
                            "channel": 12
                        }
                    ]
                ], 
                [
                    38796, 
                    [
                        {
                            "pitch": 47, 
                            "t0": 38796, 
                            "v": 6, 
                            "dur": 79, 
                            "type": "note", 
                            "channel": 12
                        }
                    ]
                ], 
                [
                    38922, 
                    [
                        {
                            "pitch": 45, 
                            "t0": 38922, 
                            "v": 46, 
                            "dur": 54, 
                            "type": "note", 
                            "channel": 12
                        }
                    ]
                ], 
                [
                    38926, 
                    [
                        {
                            "pitch": 43, 
                            "t0": 38926, 
                            "v": 46, 
                            "dur": 42, 
                            "type": "note", 
                            "channel": 12
                        }
                    ]
                ], 
                [
                    38927, 
                    [
                        {
                            "pitch": 41, 
                            "t0": 38927, 
                            "v": 46, 
                            "dur": 38, 
                            "type": "note", 
                            "channel": 12
                        }
                    ]
                ], 
                [
                    39158, 
                    [
                        {
                            "pitch": 41, 
                            "t0": 39158, 
                            "v": 116, 
                            "dur": 232, 
                            "type": "note", 
                            "channel": 12
                        }
                    ]
                ], 
                [
                    39159, 
                    [
                        {
                            "pitch": 45, 
                            "t0": 39159, 
                            "v": 112, 
                            "dur": 225, 
                            "type": "note", 
                            "channel": 12
                        }, 
                        {
                            "pitch": 43, 
                            "t0": 39159, 
                            "v": 112, 
                            "dur": 231, 
                            "type": "note", 
                            "channel": 12
                        }
                    ]
                ], 
                [
                    39416, 
                    [
                        {
                            "pitch": 47, 
                            "t0": 39416, 
                            "v": 72, 
                            "dur": 70, 
                            "type": "note", 
                            "channel": 12
                        }
                    ]
                ], 
                [
                    39811, 
                    [
                        {
                            "pitch": 47, 
                            "t0": 39811, 
                            "v": 60, 
                            "dur": 65, 
                            "type": "note", 
                            "channel": 12
                        }
                    ]
                ], 
                [
                    39936, 
                    [
                        {
                            "pitch": 47, 
                            "t0": 39936, 
                            "v": 47, 
                            "dur": 100, 
                            "type": "note", 
                            "channel": 12
                        }
                    ]
                ], 
                [
                    40202, 
                    [
                        {
                            "pitch": 45, 
                            "t0": 40202, 
                            "v": 112, 
                            "dur": 213, 
                            "type": "note", 
                            "channel": 12
                        }, 
                        {
                            "pitch": 43, 
                            "t0": 40202, 
                            "v": 104, 
                            "dur": 215, 
                            "type": "note", 
                            "channel": 12
                        }
                    ]
                ], 
                [
                    40203, 
                    [
                        {
                            "pitch": 41, 
                            "t0": 40203, 
                            "v": 112, 
                            "dur": 213, 
                            "type": "note", 
                            "channel": 12
                        }
                    ]
                ], 
                [
                    40455, 
                    [
                        {
                            "pitch": 47, 
                            "t0": 40455, 
                            "v": 60, 
                            "dur": 57, 
                            "type": "note", 
                            "channel": 12
                        }
                    ]
                ], 
                [
                    40587, 
                    [
                        {
                            "pitch": 47, 
                            "t0": 40587, 
                            "v": 49, 
                            "dur": 57, 
                            "type": "note", 
                            "channel": 12
                        }
                    ]
                ], 
                [
                    40832, 
                    [
                        {
                            "pitch": 47, 
                            "t0": 40832, 
                            "v": 44, 
                            "dur": 78, 
                            "type": "note", 
                            "channel": 12
                        }
                    ]
                ], 
                [
                    40980, 
                    [
                        {
                            "pitch": 45, 
                            "t0": 40980, 
                            "v": 44, 
                            "dur": 88, 
                            "type": "note", 
                            "channel": 12
                        }
                    ]
                ], 
                [
                    40983, 
                    [
                        {
                            "pitch": 43, 
                            "t0": 40983, 
                            "v": 52, 
                            "dur": 76, 
                            "type": "note", 
                            "channel": 12
                        }, 
                        {
                            "pitch": 41, 
                            "t0": 40983, 
                            "v": 52, 
                            "dur": 77, 
                            "type": "note", 
                            "channel": 12
                        }
                    ]
                ], 
                [
                    41240, 
                    [
                        {
                            "pitch": 45, 
                            "t0": 41240, 
                            "v": 127, 
                            "dur": 94, 
                            "type": "note", 
                            "channel": 12
                        }
                    ]
                ], 
                [
                    41244, 
                    [
                        {
                            "pitch": 41, 
                            "t0": 41244, 
                            "v": 127, 
                            "dur": 83, 
                            "type": "note", 
                            "channel": 12
                        }, 
                        {
                            "pitch": 43, 
                            "t0": 41244, 
                            "v": 127, 
                            "dur": 85, 
                            "type": "note", 
                            "channel": 12
                        }
                    ]
                ], 
                [
                    41500, 
                    [
                        {
                            "pitch": 47, 
                            "t0": 41500, 
                            "v": 76, 
                            "dur": 61, 
                            "type": "note", 
                            "channel": 12
                        }
                    ]
                ], 
                [
                    41628, 
                    [
                        {
                            "pitch": 47, 
                            "t0": 41628, 
                            "v": 60, 
                            "dur": 55, 
                            "type": "note", 
                            "channel": 12
                        }
                    ]
                ], 
                [
                    41883, 
                    [
                        {
                            "pitch": 47, 
                            "t0": 41883, 
                            "v": 47, 
                            "dur": 76, 
                            "type": "note", 
                            "channel": 12
                        }
                    ]
                ], 
                [
                    42024, 
                    [
                        {
                            "pitch": 45, 
                            "t0": 42024, 
                            "v": 58, 
                            "dur": 108, 
                            "type": "note", 
                            "channel": 12
                        }
                    ]
                ], 
                [
                    42025, 
                    [
                        {
                            "pitch": 41, 
                            "t0": 42025, 
                            "v": 50, 
                            "dur": 96, 
                            "type": "note", 
                            "channel": 12
                        }
                    ]
                ], 
                [
                    42028, 
                    [
                        {
                            "pitch": 43, 
                            "t0": 42028, 
                            "v": 54, 
                            "dur": 98, 
                            "type": "note", 
                            "channel": 12
                        }
                    ]
                ], 
                [
                    42281, 
                    [
                        {
                            "pitch": 45, 
                            "t0": 42281, 
                            "v": 127, 
                            "dur": 106, 
                            "type": "note", 
                            "channel": 12
                        }
                    ]
                ], 
                [
                    42285, 
                    [
                        {
                            "pitch": 41, 
                            "t0": 42285, 
                            "v": 127, 
                            "dur": 90, 
                            "type": "note", 
                            "channel": 12
                        }
                    ]
                ], 
                [
                    42287, 
                    [
                        {
                            "pitch": 43, 
                            "t0": 42287, 
                            "v": 127, 
                            "dur": 92, 
                            "type": "note", 
                            "channel": 12
                        }
                    ]
                ], 
                [
                    42546, 
                    [
                        {
                            "pitch": 47, 
                            "t0": 42546, 
                            "v": 80, 
                            "dur": 62, 
                            "type": "note", 
                            "channel": 12
                        }
                    ]
                ], 
                [
                    42675, 
                    [
                        {
                            "pitch": 47, 
                            "t0": 42675, 
                            "v": 72, 
                            "dur": 72, 
                            "type": "note", 
                            "channel": 12
                        }
                    ]
                ], 
                [
                    42932, 
                    [
                        {
                            "pitch": 47, 
                            "t0": 42932, 
                            "v": 56, 
                            "dur": 97, 
                            "type": "note", 
                            "channel": 12
                        }
                    ]
                ], 
                [
                    43070, 
                    [
                        {
                            "pitch": 45, 
                            "t0": 43070, 
                            "v": 49, 
                            "dur": 97, 
                            "type": "note", 
                            "channel": 12
                        }
                    ]
                ], 
                [
                    43072, 
                    [
                        {
                            "pitch": 43, 
                            "t0": 43072, 
                            "v": 50, 
                            "dur": 89, 
                            "type": "note", 
                            "channel": 12
                        }
                    ]
                ], 
                [
                    43074, 
                    [
                        {
                            "pitch": 41, 
                            "t0": 43074, 
                            "v": 50, 
                            "dur": 80, 
                            "type": "note", 
                            "channel": 12
                        }
                    ]
                ], 
                [
                    43323, 
                    [
                        {
                            "pitch": 45, 
                            "t0": 43323, 
                            "v": 127, 
                            "dur": 118, 
                            "type": "note", 
                            "channel": 12
                        }
                    ]
                ], 
                [
                    43326, 
                    [
                        {
                            "pitch": 41, 
                            "t0": 43326, 
                            "v": 127, 
                            "dur": 110, 
                            "type": "note", 
                            "channel": 12
                        }
                    ]
                ], 
                [
                    43327, 
                    [
                        {
                            "pitch": 43, 
                            "t0": 43327, 
                            "v": 127, 
                            "dur": 113, 
                            "type": "note", 
                            "channel": 12
                        }
                    ]
                ], 
                [
                    43558, 
                    [
                        {
                            "pitch": 47, 
                            "t0": 43558, 
                            "v": 64, 
                            "dur": 80, 
                            "type": "note", 
                            "channel": 12
                        }
                    ]
                ], 
                [
                    43684, 
                    [
                        {
                            "pitch": 47, 
                            "t0": 43684, 
                            "v": 58, 
                            "dur": 85, 
                            "type": "note", 
                            "channel": 12
                        }
                    ]
                ], 
                [
                    43944, 
                    [
                        {
                            "pitch": 47, 
                            "t0": 43944, 
                            "v": 72, 
                            "dur": 107, 
                            "type": "note", 
                            "channel": 12
                        }
                    ]
                ], 
                [
                    44075, 
                    [
                        {
                            "pitch": 45, 
                            "t0": 44075, 
                            "v": 68, 
                            "dur": 127, 
                            "type": "note", 
                            "channel": 12
                        }
                    ]
                ], 
                [
                    44079, 
                    [
                        {
                            "pitch": 41, 
                            "t0": 44079, 
                            "v": 58, 
                            "dur": 105, 
                            "type": "note", 
                            "channel": 12
                        }, 
                        {
                            "pitch": 43, 
                            "t0": 44079, 
                            "v": 72, 
                            "dur": 112, 
                            "type": "note", 
                            "channel": 12
                        }
                    ]
                ], 
                [
                    44335, 
                    [
                        {
                            "pitch": 45, 
                            "t0": 44335, 
                            "v": 127, 
                            "dur": 140, 
                            "type": "note", 
                            "channel": 12
                        }
                    ]
                ], 
                [
                    44339, 
                    [
                        {
                            "pitch": 43, 
                            "t0": 44339, 
                            "v": 127, 
                            "dur": 137, 
                            "type": "note", 
                            "channel": 12
                        }, 
                        {
                            "pitch": 41, 
                            "t0": 44339, 
                            "v": 127, 
                            "dur": 140, 
                            "type": "note", 
                            "channel": 12
                        }
                    ]
                ], 
                [
                    44601, 
                    [
                        {
                            "pitch": 47, 
                            "t0": 44601, 
                            "v": 80, 
                            "dur": 74, 
                            "type": "note", 
                            "channel": 12
                        }
                    ]
                ], 
                [
                    44731, 
                    [
                        {
                            "pitch": 47, 
                            "t0": 44731, 
                            "v": 72, 
                            "dur": 102, 
                            "type": "note", 
                            "channel": 12
                        }
                    ]
                ], 
                [
                    44980, 
                    [
                        {
                            "pitch": 47, 
                            "t0": 44980, 
                            "v": 76, 
                            "dur": 137, 
                            "type": "note", 
                            "channel": 12
                        }
                    ]
                ], 
                [
                    45118, 
                    [
                        {
                            "pitch": 45, 
                            "t0": 45118, 
                            "v": 72, 
                            "dur": 92, 
                            "type": "note", 
                            "channel": 12
                        }
                    ]
                ], 
                [
                    45122, 
                    [
                        {
                            "pitch": 41, 
                            "t0": 45122, 
                            "v": 72, 
                            "dur": 78, 
                            "type": "note", 
                            "channel": 12
                        }
                    ]
                ], 
                [
                    45123, 
                    [
                        {
                            "pitch": 43, 
                            "t0": 45123, 
                            "v": 72, 
                            "dur": 87, 
                            "type": "note", 
                            "channel": 12
                        }
                    ]
                ], 
                [
                    45365, 
                    [
                        {
                            "pitch": 45, 
                            "t0": 45365, 
                            "v": 127, 
                            "dur": 142, 
                            "type": "note", 
                            "channel": 12
                        }
                    ]
                ], 
                [
                    45366, 
                    [
                        {
                            "pitch": 43, 
                            "t0": 45366, 
                            "v": 127, 
                            "dur": 160, 
                            "type": "note", 
                            "channel": 12
                        }
                    ]
                ], 
                [
                    45367, 
                    [
                        {
                            "pitch": 41, 
                            "t0": 45367, 
                            "v": 127, 
                            "dur": 156, 
                            "type": "note", 
                            "channel": 12
                        }
                    ]
                ], 
                [
                    45628, 
                    [
                        {
                            "pitch": 47, 
                            "t0": 45628, 
                            "v": 104, 
                            "dur": 74, 
                            "type": "note", 
                            "channel": 12
                        }
                    ]
                ], 
                [
                    45758, 
                    [
                        {
                            "pitch": 47, 
                            "t0": 45758, 
                            "v": 68, 
                            "dur": 68, 
                            "type": "note", 
                            "channel": 12
                        }
                    ]
                ], 
                [
                    46016, 
                    [
                        {
                            "pitch": 47, 
                            "t0": 46016, 
                            "v": 96, 
                            "dur": 104, 
                            "type": "note", 
                            "channel": 12
                        }
                    ]
                ], 
                [
                    46149, 
                    [
                        {
                            "pitch": 45, 
                            "t0": 46149, 
                            "v": 72, 
                            "dur": 111, 
                            "type": "note", 
                            "channel": 12
                        }
                    ]
                ], 
                [
                    46151, 
                    [
                        {
                            "pitch": 41, 
                            "t0": 46151, 
                            "v": 64, 
                            "dur": 107, 
                            "type": "note", 
                            "channel": 12
                        }, 
                        {
                            "pitch": 43, 
                            "t0": 46151, 
                            "v": 72, 
                            "dur": 114, 
                            "type": "note", 
                            "channel": 12
                        }
                    ]
                ], 
                [
                    46414, 
                    [
                        {
                            "pitch": 41, 
                            "t0": 46414, 
                            "v": 127, 
                            "dur": 153, 
                            "type": "note", 
                            "channel": 12
                        }
                    ]
                ], 
                [
                    46415, 
                    [
                        {
                            "pitch": 45, 
                            "t0": 46415, 
                            "v": 127, 
                            "dur": 150, 
                            "type": "note", 
                            "channel": 12
                        }, 
                        {
                            "pitch": 43, 
                            "t0": 46415, 
                            "v": 127, 
                            "dur": 157, 
                            "type": "note", 
                            "channel": 12
                        }
                    ]
                ], 
                [
                    46679, 
                    [
                        {
                            "pitch": 47, 
                            "t0": 46679, 
                            "v": 108, 
                            "dur": 65, 
                            "type": "note", 
                            "channel": 12
                        }
                    ]
                ], 
                [
                    46813, 
                    [
                        {
                            "pitch": 47, 
                            "t0": 46813, 
                            "v": 64, 
                            "dur": 85, 
                            "type": "note", 
                            "channel": 12
                        }
                    ]
                ], 
                [
                    47064, 
                    [
                        {
                            "pitch": 47, 
                            "t0": 47064, 
                            "v": 50, 
                            "dur": 92, 
                            "type": "note", 
                            "channel": 12
                        }
                    ]
                ], 
                [
                    47197, 
                    [
                        {
                            "pitch": 45, 
                            "t0": 47197, 
                            "v": 80, 
                            "dur": 124, 
                            "type": "note", 
                            "channel": 12
                        }, 
                        {
                            "pitch": 41, 
                            "t0": 47197, 
                            "v": 60, 
                            "dur": 129, 
                            "type": "note", 
                            "channel": 12
                        }
                    ]
                ], 
                [
                    47199, 
                    [
                        {
                            "pitch": 43, 
                            "t0": 47199, 
                            "v": 56, 
                            "dur": 121, 
                            "type": "note", 
                            "channel": 12
                        }
                    ]
                ], 
                [
                    47460, 
                    [
                        {
                            "pitch": 45, 
                            "t0": 47460, 
                            "v": 127, 
                            "dur": 170, 
                            "type": "note", 
                            "channel": 12
                        }, 
                        {
                            "pitch": 41, 
                            "t0": 47460, 
                            "v": 127, 
                            "dur": 171, 
                            "type": "note", 
                            "channel": 12
                        }, 
                        {
                            "pitch": 43, 
                            "t0": 47460, 
                            "v": 127, 
                            "dur": 177, 
                            "type": "note", 
                            "channel": 12
                        }
                    ]
                ], 
                [
                    47712, 
                    [
                        {
                            "pitch": 47, 
                            "t0": 47712, 
                            "v": 96, 
                            "dur": 80, 
                            "type": "note", 
                            "channel": 12
                        }
                    ]
                ], 
                [
                    47846, 
                    [
                        {
                            "pitch": 47, 
                            "t0": 47846, 
                            "v": 58, 
                            "dur": 83, 
                            "type": "note", 
                            "channel": 12
                        }
                    ]
                ], 
                [
                    48087, 
                    [
                        {
                            "pitch": 47, 
                            "t0": 48087, 
                            "v": 60, 
                            "dur": 96, 
                            "type": "note", 
                            "channel": 12
                        }
                    ]
                ], 
                [
                    48228, 
                    [
                        {
                            "pitch": 45, 
                            "t0": 48228, 
                            "v": 46, 
                            "dur": 105, 
                            "type": "note", 
                            "channel": 12
                        }
                    ]
                ], 
                [
                    48230, 
                    [
                        {
                            "pitch": 43, 
                            "t0": 48230, 
                            "v": 45, 
                            "dur": 94, 
                            "type": "note", 
                            "channel": 12
                        }, 
                        {
                            "pitch": 41, 
                            "t0": 48230, 
                            "v": 44, 
                            "dur": 105, 
                            "type": "note", 
                            "channel": 12
                        }
                    ]
                ], 
                [
                    48500, 
                    [
                        {
                            "pitch": 41, 
                            "t0": 48500, 
                            "v": 127, 
                            "dur": 163, 
                            "type": "note", 
                            "channel": 12
                        }
                    ]
                ], 
                [
                    48501, 
                    [
                        {
                            "pitch": 43, 
                            "t0": 48501, 
                            "v": 127, 
                            "dur": 166, 
                            "type": "note", 
                            "channel": 12
                        }
                    ]
                ], 
                [
                    48502, 
                    [
                        {
                            "pitch": 45, 
                            "t0": 48502, 
                            "v": 127, 
                            "dur": 162, 
                            "type": "note", 
                            "channel": 12
                        }
                    ]
                ], 
                [
                    48772, 
                    [
                        {
                            "pitch": 47, 
                            "t0": 48772, 
                            "v": 45, 
                            "dur": 75, 
                            "type": "note", 
                            "channel": 12
                        }
                    ]
                ], 
                [
                    48905, 
                    [
                        {
                            "pitch": 47, 
                            "t0": 48905, 
                            "v": 50, 
                            "dur": 74, 
                            "type": "note", 
                            "channel": 12
                        }
                    ]
                ], 
                [
                    49145, 
                    [
                        {
                            "pitch": 47, 
                            "t0": 49145, 
                            "v": 76, 
                            "dur": 86, 
                            "type": "note", 
                            "channel": 12
                        }
                    ]
                ], 
                [
                    49296, 
                    [
                        {
                            "pitch": 45, 
                            "t0": 49296, 
                            "v": 45, 
                            "dur": 98, 
                            "type": "note", 
                            "channel": 12
                        }
                    ]
                ], 
                [
                    49298, 
                    [
                        {
                            "pitch": 41, 
                            "t0": 49298, 
                            "v": 46, 
                            "dur": 82, 
                            "type": "note", 
                            "channel": 12
                        }
                    ]
                ], 
                [
                    49302, 
                    [
                        {
                            "pitch": 43, 
                            "t0": 49302, 
                            "v": 49, 
                            "dur": 81, 
                            "type": "note", 
                            "channel": 12
                        }
                    ]
                ], 
                [
                    49559, 
                    [
                        {
                            "pitch": 45, 
                            "t0": 49559, 
                            "v": 127, 
                            "dur": 160, 
                            "type": "note", 
                            "channel": 12
                        }
                    ]
                ], 
                [
                    49560, 
                    [
                        {
                            "pitch": 43, 
                            "t0": 49560, 
                            "v": 127, 
                            "dur": 169, 
                            "type": "note", 
                            "channel": 12
                        }, 
                        {
                            "pitch": 41, 
                            "t0": 49560, 
                            "v": 127, 
                            "dur": 169, 
                            "type": "note", 
                            "channel": 12
                        }
                    ]
                ], 
                [
                    49819, 
                    [
                        {
                            "pitch": 47, 
                            "t0": 49819, 
                            "v": 76, 
                            "dur": 76, 
                            "type": "note", 
                            "channel": 12
                        }
                    ]
                ], 
                [
                    49950, 
                    [
                        {
                            "pitch": 47, 
                            "t0": 49950, 
                            "v": 64, 
                            "dur": 76, 
                            "type": "note", 
                            "channel": 12
                        }
                    ]
                ], 
                [
                    50189, 
                    [
                        {
                            "pitch": 47, 
                            "t0": 50189, 
                            "v": 88, 
                            "dur": 62, 
                            "type": "note", 
                            "channel": 12
                        }
                    ]
                ], 
                [
                    50323, 
                    [
                        {
                            "pitch": 45, 
                            "t0": 50323, 
                            "v": 54, 
                            "dur": 125, 
                            "type": "note", 
                            "channel": 12
                        }
                    ]
                ], 
                [
                    50328, 
                    [
                        {
                            "pitch": 41, 
                            "t0": 50328, 
                            "v": 49, 
                            "dur": 115, 
                            "type": "note", 
                            "channel": 12
                        }
                    ]
                ], 
                [
                    50329, 
                    [
                        {
                            "pitch": 43, 
                            "t0": 50329, 
                            "v": 50, 
                            "dur": 115, 
                            "type": "note", 
                            "channel": 12
                        }
                    ]
                ], 
                [
                    50590, 
                    [
                        {
                            "pitch": 41, 
                            "t0": 50590, 
                            "v": 127, 
                            "dur": 183, 
                            "type": "note", 
                            "channel": 12
                        }
                    ]
                ], 
                [
                    50591, 
                    [
                        {
                            "pitch": 45, 
                            "t0": 50591, 
                            "v": 127, 
                            "dur": 169, 
                            "type": "note", 
                            "channel": 12
                        }
                    ]
                ], 
                [
                    50592, 
                    [
                        {
                            "pitch": 43, 
                            "t0": 50592, 
                            "v": 127, 
                            "dur": 176, 
                            "type": "note", 
                            "channel": 12
                        }
                    ]
                ], 
                [
                    50861, 
                    [
                        {
                            "pitch": 47, 
                            "t0": 50861, 
                            "v": 58, 
                            "dur": 78, 
                            "type": "note", 
                            "channel": 12
                        }
                    ]
                ], 
                [
                    50989, 
                    [
                        {
                            "pitch": 47, 
                            "t0": 50989, 
                            "v": 49, 
                            "dur": 77, 
                            "type": "note", 
                            "channel": 12
                        }
                    ]
                ], 
                [
                    51244, 
                    [
                        {
                            "pitch": 47, 
                            "t0": 51244, 
                            "v": 76, 
                            "dur": 60, 
                            "type": "note", 
                            "channel": 12
                        }
                    ]
                ], 
                [
                    51376, 
                    [
                        {
                            "pitch": 45, 
                            "t0": 51376, 
                            "v": 58, 
                            "dur": 129, 
                            "type": "note", 
                            "channel": 12
                        }
                    ]
                ], 
                [
                    51380, 
                    [
                        {
                            "pitch": 41, 
                            "t0": 51380, 
                            "v": 58, 
                            "dur": 118, 
                            "type": "note", 
                            "channel": 12
                        }
                    ]
                ], 
                [
                    51381, 
                    [
                        {
                            "pitch": 43, 
                            "t0": 51381, 
                            "v": 58, 
                            "dur": 123, 
                            "type": "note", 
                            "channel": 12
                        }
                    ]
                ], 
                [
                    51649, 
                    [
                        {
                            "pitch": 45, 
                            "t0": 51649, 
                            "v": 127, 
                            "dur": 186, 
                            "type": "note", 
                            "channel": 12
                        }
                    ]
                ], 
                [
                    51650, 
                    [
                        {
                            "pitch": 43, 
                            "t0": 51650, 
                            "v": 127, 
                            "dur": 187, 
                            "type": "note", 
                            "channel": 12
                        }, 
                        {
                            "pitch": 41, 
                            "t0": 51650, 
                            "v": 127, 
                            "dur": 193, 
                            "type": "note", 
                            "channel": 12
                        }
                    ]
                ], 
                [
                    51910, 
                    [
                        {
                            "pitch": 47, 
                            "t0": 51910, 
                            "v": 84, 
                            "dur": 74, 
                            "type": "note", 
                            "channel": 12
                        }
                    ]
                ], 
                [
                    52044, 
                    [
                        {
                            "pitch": 47, 
                            "t0": 52044, 
                            "v": 42, 
                            "dur": 79, 
                            "type": "note", 
                            "channel": 12
                        }
                    ]
                ], 
                [
                    52285, 
                    [
                        {
                            "pitch": 47, 
                            "t0": 52285, 
                            "v": 76, 
                            "dur": 61, 
                            "type": "note", 
                            "channel": 12
                        }
                    ]
                ], 
                [
                    52423, 
                    [
                        {
                            "pitch": 45, 
                            "t0": 52423, 
                            "v": 58, 
                            "dur": 118, 
                            "type": "note", 
                            "channel": 12
                        }
                    ]
                ], 
                [
                    52425, 
                    [
                        {
                            "pitch": 41, 
                            "t0": 52425, 
                            "v": 58, 
                            "dur": 119, 
                            "type": "note", 
                            "channel": 12
                        }
                    ]
                ], 
                [
                    52426, 
                    [
                        {
                            "pitch": 43, 
                            "t0": 52426, 
                            "v": 58, 
                            "dur": 102, 
                            "type": "note", 
                            "channel": 12
                        }
                    ]
                ], 
                [
                    52689, 
                    [
                        {
                            "pitch": 43, 
                            "t0": 52689, 
                            "v": 127, 
                            "dur": 192, 
                            "type": "note", 
                            "channel": 12
                        }, 
                        {
                            "pitch": 45, 
                            "t0": 52689, 
                            "v": 127, 
                            "dur": 210, 
                            "type": "note", 
                            "channel": 12
                        }, 
                        {
                            "pitch": 41, 
                            "t0": 52689, 
                            "v": 127, 
                            "dur": 217, 
                            "type": "note", 
                            "channel": 12
                        }
                    ]
                ], 
                [
                    52951, 
                    [
                        {
                            "pitch": 47, 
                            "t0": 52951, 
                            "v": 72, 
                            "dur": 65, 
                            "type": "note", 
                            "channel": 12
                        }
                    ]
                ], 
                [
                    53068, 
                    [
                        {
                            "pitch": 47, 
                            "t0": 53068, 
                            "v": 48, 
                            "dur": 88, 
                            "type": "note", 
                            "channel": 12
                        }
                    ]
                ], 
                [
                    53320, 
                    [
                        {
                            "pitch": 47, 
                            "t0": 53320, 
                            "v": 56, 
                            "dur": 85, 
                            "type": "note", 
                            "channel": 12
                        }
                    ]
                ], 
                [
                    53463, 
                    [
                        {
                            "pitch": 43, 
                            "t0": 53463, 
                            "v": 58, 
                            "dur": 85, 
                            "type": "note", 
                            "channel": 12
                        }
                    ]
                ], 
                [
                    53464, 
                    [
                        {
                            "pitch": 45, 
                            "t0": 53464, 
                            "v": 58, 
                            "dur": 90, 
                            "type": "note", 
                            "channel": 12
                        }
                    ]
                ], 
                [
                    53466, 
                    [
                        {
                            "pitch": 41, 
                            "t0": 53466, 
                            "v": 58, 
                            "dur": 76, 
                            "type": "note", 
                            "channel": 12
                        }
                    ]
                ], 
                [
                    53733, 
                    [
                        {
                            "pitch": 45, 
                            "t0": 53733, 
                            "v": 127, 
                            "dur": 200, 
                            "type": "note", 
                            "channel": 12
                        }
                    ]
                ], 
                [
                    53735, 
                    [
                        {
                            "pitch": 43, 
                            "t0": 53735, 
                            "v": 127, 
                            "dur": 189, 
                            "type": "note", 
                            "channel": 12
                        }, 
                        {
                            "pitch": 41, 
                            "t0": 53735, 
                            "v": 127, 
                            "dur": 191, 
                            "type": "note", 
                            "channel": 12
                        }
                    ]
                ], 
                [
                    53996, 
                    [
                        {
                            "pitch": 47, 
                            "t0": 53996, 
                            "v": 68, 
                            "dur": 67, 
                            "type": "note", 
                            "channel": 12
                        }
                    ]
                ], 
                [
                    54136, 
                    [
                        {
                            "pitch": 47, 
                            "t0": 54136, 
                            "v": 49, 
                            "dur": 73, 
                            "type": "note", 
                            "channel": 12
                        }
                    ]
                ], 
                [
                    54385, 
                    [
                        {
                            "pitch": 47, 
                            "t0": 54385, 
                            "v": 68, 
                            "dur": 84, 
                            "type": "note", 
                            "channel": 12
                        }
                    ]
                ], 
                [
                    54517, 
                    [
                        {
                            "pitch": 41, 
                            "t0": 54517, 
                            "v": 68, 
                            "dur": 99, 
                            "type": "note", 
                            "channel": 12
                        }
                    ]
                ], 
                [
                    54518, 
                    [
                        {
                            "pitch": 45, 
                            "t0": 54518, 
                            "v": 64, 
                            "dur": 100, 
                            "type": "note", 
                            "channel": 12
                        }
                    ]
                ], 
                [
                    54519, 
                    [
                        {
                            "pitch": 43, 
                            "t0": 54519, 
                            "v": 68, 
                            "dur": 95, 
                            "type": "note", 
                            "channel": 12
                        }
                    ]
                ], 
                [
                    54777, 
                    [
                        {
                            "pitch": 43, 
                            "t0": 54777, 
                            "v": 127, 
                            "dur": 183, 
                            "type": "note", 
                            "channel": 12
                        }, 
                        {
                            "pitch": 45, 
                            "t0": 54777, 
                            "v": 127, 
                            "dur": 186, 
                            "type": "note", 
                            "channel": 12
                        }
                    ]
                ], 
                [
                    54778, 
                    [
                        {
                            "pitch": 41, 
                            "t0": 54778, 
                            "v": 127, 
                            "dur": 183, 
                            "type": "note", 
                            "channel": 12
                        }
                    ]
                ], 
                [
                    55038, 
                    [
                        {
                            "pitch": 47, 
                            "t0": 55038, 
                            "v": 64, 
                            "dur": 78, 
                            "type": "note", 
                            "channel": 12
                        }
                    ]
                ], 
                [
                    55170, 
                    [
                        {
                            "pitch": 47, 
                            "t0": 55170, 
                            "v": 58, 
                            "dur": 82, 
                            "type": "note", 
                            "channel": 12
                        }
                    ]
                ], 
                [
                    55413, 
                    [
                        {
                            "pitch": 47, 
                            "t0": 55413, 
                            "v": 60, 
                            "dur": 76, 
                            "type": "note", 
                            "channel": 12
                        }
                    ]
                ], 
                [
                    55553, 
                    [
                        {
                            "pitch": 41, 
                            "t0": 55553, 
                            "v": 64, 
                            "dur": 104, 
                            "type": "note", 
                            "channel": 12
                        }
                    ]
                ], 
                [
                    55554, 
                    [
                        {
                            "pitch": 43, 
                            "t0": 55554, 
                            "v": 64, 
                            "dur": 101, 
                            "type": "note", 
                            "channel": 12
                        }, 
                        {
                            "pitch": 45, 
                            "t0": 55554, 
                            "v": 76, 
                            "dur": 103, 
                            "type": "note", 
                            "channel": 12
                        }
                    ]
                ], 
                [
                    55804, 
                    [
                        {
                            "pitch": 41, 
                            "t0": 55804, 
                            "v": 127, 
                            "dur": 165, 
                            "type": "note", 
                            "channel": 12
                        }
                    ]
                ], 
                [
                    55805, 
                    [
                        {
                            "pitch": 45, 
                            "t0": 55805, 
                            "v": 127, 
                            "dur": 159, 
                            "type": "note", 
                            "channel": 12
                        }, 
                        {
                            "pitch": 43, 
                            "t0": 55805, 
                            "v": 127, 
                            "dur": 163, 
                            "type": "note", 
                            "channel": 12
                        }
                    ]
                ], 
                [
                    56065, 
                    [
                        {
                            "pitch": 47, 
                            "t0": 56065, 
                            "v": 100, 
                            "dur": 77, 
                            "type": "note", 
                            "channel": 12
                        }
                    ]
                ], 
                [
                    56196, 
                    [
                        {
                            "pitch": 47, 
                            "t0": 56196, 
                            "v": 52, 
                            "dur": 77, 
                            "type": "note", 
                            "channel": 12
                        }
                    ]
                ], 
                [
                    56457, 
                    [
                        {
                            "pitch": 47, 
                            "t0": 56457, 
                            "v": 80, 
                            "dur": 62, 
                            "type": "note", 
                            "channel": 12
                        }
                    ]
                ], 
                [
                    56585, 
                    [
                        {
                            "pitch": 45, 
                            "t0": 56585, 
                            "v": 68, 
                            "dur": 71, 
                            "type": "note", 
                            "channel": 12
                        }
                    ]
                ], 
                [
                    56587, 
                    [
                        {
                            "pitch": 41, 
                            "t0": 56587, 
                            "v": 68, 
                            "dur": 63, 
                            "type": "note", 
                            "channel": 12
                        }
                    ]
                ], 
                [
                    56588, 
                    [
                        {
                            "pitch": 43, 
                            "t0": 56588, 
                            "v": 68, 
                            "dur": 66, 
                            "type": "note", 
                            "channel": 12
                        }
                    ]
                ], 
                [
                    56850, 
                    [
                        {
                            "pitch": 45, 
                            "t0": 56850, 
                            "v": 127, 
                            "dur": 141, 
                            "type": "note", 
                            "channel": 12
                        }
                    ]
                ], 
                [
                    56851, 
                    [
                        {
                            "pitch": 41, 
                            "t0": 56851, 
                            "v": 127, 
                            "dur": 161, 
                            "type": "note", 
                            "channel": 12
                        }
                    ]
                ], 
                [
                    56852, 
                    [
                        {
                            "pitch": 43, 
                            "t0": 56852, 
                            "v": 127, 
                            "dur": 163, 
                            "type": "note", 
                            "channel": 12
                        }
                    ]
                ], 
                [
                    57111, 
                    [
                        {
                            "pitch": 47, 
                            "t0": 57111, 
                            "v": 96, 
                            "dur": 70, 
                            "type": "note", 
                            "channel": 12
                        }
                    ]
                ], 
                [
                    57236, 
                    [
                        {
                            "pitch": 47, 
                            "t0": 57236, 
                            "v": 58, 
                            "dur": 82, 
                            "type": "note", 
                            "channel": 12
                        }
                    ]
                ], 
                [
                    57482, 
                    [
                        {
                            "pitch": 47, 
                            "t0": 57482, 
                            "v": 68, 
                            "dur": 94, 
                            "type": "note", 
                            "channel": 12
                        }
                    ]
                ], 
                [
                    57614, 
                    [
                        {
                            "pitch": 45, 
                            "t0": 57614, 
                            "v": 68, 
                            "dur": 99, 
                            "type": "note", 
                            "channel": 12
                        }
                    ]
                ], 
                [
                    57623, 
                    [
                        {
                            "pitch": 43, 
                            "t0": 57623, 
                            "v": 68, 
                            "dur": 84, 
                            "type": "note", 
                            "channel": 12
                        }, 
                        {
                            "pitch": 41, 
                            "t0": 57623, 
                            "v": 68, 
                            "dur": 88, 
                            "type": "note", 
                            "channel": 12
                        }
                    ]
                ], 
                [
                    57871, 
                    [
                        {
                            "pitch": 45, 
                            "t0": 57871, 
                            "v": 127, 
                            "dur": 171, 
                            "type": "note", 
                            "channel": 12
                        }
                    ]
                ], 
                [
                    57872, 
                    [
                        {
                            "pitch": 41, 
                            "t0": 57872, 
                            "v": 127, 
                            "dur": 184, 
                            "type": "note", 
                            "channel": 12
                        }, 
                        {
                            "pitch": 43, 
                            "t0": 57872, 
                            "v": 127, 
                            "dur": 184, 
                            "type": "note", 
                            "channel": 12
                        }
                    ]
                ], 
                [
                    58124, 
                    [
                        {
                            "pitch": 47, 
                            "t0": 58124, 
                            "v": 54, 
                            "dur": 77, 
                            "type": "note", 
                            "channel": 12
                        }
                    ]
                ], 
                [
                    58248, 
                    [
                        {
                            "pitch": 47, 
                            "t0": 58248, 
                            "v": 47, 
                            "dur": 89, 
                            "type": "note", 
                            "channel": 12
                        }
                    ]
                ], 
                [
                    58500, 
                    [
                        {
                            "pitch": 47, 
                            "t0": 58500, 
                            "v": 54, 
                            "dur": 76, 
                            "type": "note", 
                            "channel": 12
                        }
                    ]
                ], 
                [
                    58636, 
                    [
                        {
                            "pitch": 45, 
                            "t0": 58636, 
                            "v": 42, 
                            "dur": 113, 
                            "type": "note", 
                            "channel": 12
                        }
                    ]
                ], 
                [
                    58641, 
                    [
                        {
                            "pitch": 41, 
                            "t0": 58641, 
                            "v": 46, 
                            "dur": 102, 
                            "type": "note", 
                            "channel": 12
                        }
                    ]
                ], 
                [
                    58642, 
                    [
                        {
                            "pitch": 43, 
                            "t0": 58642, 
                            "v": 50, 
                            "dur": 104, 
                            "type": "note", 
                            "channel": 12
                        }
                    ]
                ], 
                [
                    58903, 
                    [
                        {
                            "pitch": 45, 
                            "t0": 58903, 
                            "v": 127, 
                            "dur": 200, 
                            "type": "note", 
                            "channel": 12
                        }, 
                        {
                            "pitch": 41, 
                            "t0": 58903, 
                            "v": 127, 
                            "dur": 211, 
                            "type": "note", 
                            "channel": 12
                        }
                    ]
                ], 
                [
                    58904, 
                    [
                        {
                            "pitch": 43, 
                            "t0": 58904, 
                            "v": 127, 
                            "dur": 209, 
                            "type": "note", 
                            "channel": 12
                        }
                    ]
                ], 
                [
                    59154, 
                    [
                        {
                            "pitch": 47, 
                            "t0": 59154, 
                            "v": 68, 
                            "dur": 83, 
                            "type": "note", 
                            "channel": 12
                        }
                    ]
                ], 
                [
                    59282, 
                    [
                        {
                            "pitch": 47, 
                            "t0": 59282, 
                            "v": 44, 
                            "dur": 87, 
                            "type": "note", 
                            "channel": 12
                        }
                    ]
                ], 
                [
                    59527, 
                    [
                        {
                            "pitch": 47, 
                            "t0": 59527, 
                            "v": 60, 
                            "dur": 77, 
                            "type": "note", 
                            "channel": 12
                        }
                    ]
                ], 
                [
                    59656, 
                    [
                        {
                            "pitch": 45, 
                            "t0": 59656, 
                            "v": 46, 
                            "dur": 120, 
                            "type": "note", 
                            "channel": 12
                        }
                    ]
                ], 
                [
                    59662, 
                    [
                        {
                            "pitch": 41, 
                            "t0": 59662, 
                            "v": 48, 
                            "dur": 109, 
                            "type": "note", 
                            "channel": 12
                        }
                    ]
                ], 
                [
                    59664, 
                    [
                        {
                            "pitch": 43, 
                            "t0": 59664, 
                            "v": 47, 
                            "dur": 103, 
                            "type": "note", 
                            "channel": 12
                        }
                    ]
                ], 
                [
                    59926, 
                    [
                        {
                            "pitch": 45, 
                            "t0": 59926, 
                            "v": 127, 
                            "dur": 164, 
                            "type": "note", 
                            "channel": 12
                        }, 
                        {
                            "pitch": 43, 
                            "t0": 59926, 
                            "v": 127, 
                            "dur": 169, 
                            "type": "note", 
                            "channel": 12
                        }
                    ]
                ], 
                [
                    59927, 
                    [
                        {
                            "pitch": 41, 
                            "t0": 59927, 
                            "v": 127, 
                            "dur": 170, 
                            "type": "note", 
                            "channel": 12
                        }
                    ]
                ], 
                [
                    60190, 
                    [
                        {
                            "pitch": 47, 
                            "t0": 60190, 
                            "v": 80, 
                            "dur": 79, 
                            "type": "note", 
                            "channel": 12
                        }
                    ]
                ], 
                [
                    60325, 
                    [
                        {
                            "pitch": 47, 
                            "t0": 60325, 
                            "v": 45, 
                            "dur": 80, 
                            "type": "note", 
                            "channel": 12
                        }
                    ]
                ], 
                [
                    60571, 
                    [
                        {
                            "pitch": 47, 
                            "t0": 60571, 
                            "v": 64, 
                            "dur": 72, 
                            "type": "note", 
                            "channel": 12
                        }
                    ]
                ], 
                [
                    60702, 
                    [
                        {
                            "pitch": 45, 
                            "t0": 60702, 
                            "v": 54, 
                            "dur": 103, 
                            "type": "note", 
                            "channel": 12
                        }
                    ]
                ], 
                [
                    60703, 
                    [
                        {
                            "pitch": 41, 
                            "t0": 60703, 
                            "v": 54, 
                            "dur": 71, 
                            "type": "note", 
                            "channel": 12
                        }
                    ]
                ], 
                [
                    60704, 
                    [
                        {
                            "pitch": 43, 
                            "t0": 60704, 
                            "v": 54, 
                            "dur": 79, 
                            "type": "note", 
                            "channel": 12
                        }
                    ]
                ], 
                [
                    60959, 
                    [
                        {
                            "pitch": 45, 
                            "t0": 60959, 
                            "v": 127, 
                            "dur": 162, 
                            "type": "note", 
                            "channel": 12
                        }
                    ]
                ], 
                [
                    60960, 
                    [
                        {
                            "pitch": 41, 
                            "t0": 60960, 
                            "v": 127, 
                            "dur": 182, 
                            "type": "note", 
                            "channel": 12
                        }, 
                        {
                            "pitch": 43, 
                            "t0": 60960, 
                            "v": 127, 
                            "dur": 184, 
                            "type": "note", 
                            "channel": 12
                        }
                    ]
                ], 
                [
                    61209, 
                    [
                        {
                            "pitch": 47, 
                            "t0": 61209, 
                            "v": 54, 
                            "dur": 75, 
                            "type": "note", 
                            "channel": 12
                        }
                    ]
                ], 
                [
                    61339, 
                    [
                        {
                            "pitch": 47, 
                            "t0": 61339, 
                            "v": 50, 
                            "dur": 72, 
                            "type": "note", 
                            "channel": 12
                        }
                    ]
                ], 
                [
                    61586, 
                    [
                        {
                            "pitch": 47, 
                            "t0": 61586, 
                            "v": 64, 
                            "dur": 67, 
                            "type": "note", 
                            "channel": 12
                        }
                    ]
                ], 
                [
                    61721, 
                    [
                        {
                            "pitch": 45, 
                            "t0": 61721, 
                            "v": 50, 
                            "dur": 98, 
                            "type": "note", 
                            "channel": 12
                        }
                    ]
                ], 
                [
                    61724, 
                    [
                        {
                            "pitch": 41, 
                            "t0": 61724, 
                            "v": 54, 
                            "dur": 92, 
                            "type": "note", 
                            "channel": 12
                        }, 
                        {
                            "pitch": 43, 
                            "t0": 61724, 
                            "v": 58, 
                            "dur": 96, 
                            "type": "note", 
                            "channel": 12
                        }
                    ]
                ], 
                [
                    61988, 
                    [
                        {
                            "pitch": 45, 
                            "t0": 61988, 
                            "v": 104, 
                            "dur": 194, 
                            "type": "note", 
                            "channel": 12
                        }, 
                        {
                            "pitch": 43, 
                            "t0": 61988, 
                            "v": 120, 
                            "dur": 198, 
                            "type": "note", 
                            "channel": 12
                        }
                    ]
                ], 
                [
                    61989, 
                    [
                        {
                            "pitch": 41, 
                            "t0": 61989, 
                            "v": 112, 
                            "dur": 194, 
                            "type": "note", 
                            "channel": 12
                        }
                    ]
                ], 
                [
                    62247, 
                    [
                        {
                            "pitch": 47, 
                            "t0": 62247, 
                            "v": 64, 
                            "dur": 70, 
                            "type": "note", 
                            "channel": 12
                        }
                    ]
                ], 
                [
                    62371, 
                    [
                        {
                            "pitch": 47, 
                            "t0": 62371, 
                            "v": 35, 
                            "dur": 92, 
                            "type": "note", 
                            "channel": 12
                        }
                    ]
                ], 
                [
                    62626, 
                    [
                        {
                            "pitch": 47, 
                            "t0": 62626, 
                            "v": 64, 
                            "dur": 69, 
                            "type": "note", 
                            "channel": 12
                        }
                    ]
                ], 
                [
                    62764, 
                    [
                        {
                            "pitch": 45, 
                            "t0": 62764, 
                            "v": 43, 
                            "dur": 93, 
                            "type": "note", 
                            "channel": 12
                        }
                    ]
                ], 
                [
                    62766, 
                    [
                        {
                            "pitch": 41, 
                            "t0": 62766, 
                            "v": 38, 
                            "dur": 79, 
                            "type": "note", 
                            "channel": 12
                        }, 
                        {
                            "pitch": 43, 
                            "t0": 62766, 
                            "v": 42, 
                            "dur": 87, 
                            "type": "note", 
                            "channel": 12
                        }
                    ]
                ], 
                [
                    63025, 
                    [
                        {
                            "pitch": 45, 
                            "t0": 63025, 
                            "v": 116, 
                            "dur": 178, 
                            "type": "note", 
                            "channel": 12
                        }, 
                        {
                            "pitch": 43, 
                            "t0": 63025, 
                            "v": 92, 
                            "dur": 181, 
                            "type": "note", 
                            "channel": 12
                        }
                    ]
                ], 
                [
                    63026, 
                    [
                        {
                            "pitch": 41, 
                            "t0": 63026, 
                            "v": 116, 
                            "dur": 174, 
                            "type": "note", 
                            "channel": 12
                        }
                    ]
                ], 
                [
                    63287, 
                    [
                        {
                            "pitch": 47, 
                            "t0": 63287, 
                            "v": 52, 
                            "dur": 73, 
                            "type": "note", 
                            "channel": 12
                        }
                    ]
                ], 
                [
                    63410, 
                    [
                        {
                            "pitch": 47, 
                            "t0": 63410, 
                            "v": 54, 
                            "dur": 90, 
                            "type": "note", 
                            "channel": 12
                        }
                    ]
                ], 
                [
                    63655, 
                    [
                        {
                            "pitch": 47, 
                            "t0": 63655, 
                            "v": 50, 
                            "dur": 103, 
                            "type": "note", 
                            "channel": 12
                        }
                    ]
                ], 
                [
                    63785, 
                    [
                        {
                            "pitch": 43, 
                            "t0": 63785, 
                            "v": 56, 
                            "dur": 68, 
                            "type": "note", 
                            "channel": 12
                        }, 
                        {
                            "pitch": 45, 
                            "t0": 63785, 
                            "v": 76, 
                            "dur": 81, 
                            "type": "note", 
                            "channel": 12
                        }
                    ]
                ], 
                [
                    63786, 
                    [
                        {
                            "pitch": 41, 
                            "t0": 63786, 
                            "v": 58, 
                            "dur": 62, 
                            "type": "note", 
                            "channel": 12
                        }
                    ]
                ], 
                [
                    64040, 
                    [
                        {
                            "pitch": 45, 
                            "t0": 64040, 
                            "v": 116, 
                            "dur": 208, 
                            "type": "note", 
                            "channel": 12
                        }
                    ]
                ], 
                [
                    64041, 
                    [
                        {
                            "pitch": 41, 
                            "t0": 64041, 
                            "v": 112, 
                            "dur": 207, 
                            "type": "note", 
                            "channel": 12
                        }, 
                        {
                            "pitch": 43, 
                            "t0": 64041, 
                            "v": 112, 
                            "dur": 215, 
                            "type": "note", 
                            "channel": 12
                        }
                    ]
                ], 
                [
                    64306, 
                    [
                        {
                            "pitch": 47, 
                            "t0": 64306, 
                            "v": 43, 
                            "dur": 78, 
                            "type": "note", 
                            "channel": 12
                        }
                    ]
                ], 
                [
                    64436, 
                    [
                        {
                            "pitch": 47, 
                            "t0": 64436, 
                            "v": 46, 
                            "dur": 80, 
                            "type": "note", 
                            "channel": 12
                        }
                    ]
                ], 
                [
                    64685, 
                    [
                        {
                            "pitch": 47, 
                            "t0": 64685, 
                            "v": 49, 
                            "dur": 86, 
                            "type": "note", 
                            "channel": 12
                        }
                    ]
                ], 
                [
                    64829, 
                    [
                        {
                            "pitch": 45, 
                            "t0": 64829, 
                            "v": 40, 
                            "dur": 98, 
                            "type": "note", 
                            "channel": 12
                        }
                    ]
                ], 
                [
                    64834, 
                    [
                        {
                            "pitch": 43, 
                            "t0": 64834, 
                            "v": 38, 
                            "dur": 88, 
                            "type": "note", 
                            "channel": 12
                        }, 
                        {
                            "pitch": 41, 
                            "t0": 64834, 
                            "v": 40, 
                            "dur": 89, 
                            "type": "note", 
                            "channel": 12
                        }
                    ]
                ], 
                [
                    65084, 
                    [
                        {
                            "pitch": 45, 
                            "t0": 65084, 
                            "v": 112, 
                            "dur": 177, 
                            "type": "note", 
                            "channel": 12
                        }, 
                        {
                            "pitch": 41, 
                            "t0": 65084, 
                            "v": 116, 
                            "dur": 197, 
                            "type": "note", 
                            "channel": 12
                        }
                    ]
                ], 
                [
                    65085, 
                    [
                        {
                            "pitch": 43, 
                            "t0": 65085, 
                            "v": 120, 
                            "dur": 192, 
                            "type": "note", 
                            "channel": 12
                        }
                    ]
                ], 
                [
                    65345, 
                    [
                        {
                            "pitch": 47, 
                            "t0": 65345, 
                            "v": 68, 
                            "dur": 72, 
                            "type": "note", 
                            "channel": 12
                        }
                    ]
                ], 
                [
                    65478, 
                    [
                        {
                            "pitch": 47, 
                            "t0": 65478, 
                            "v": 37, 
                            "dur": 73, 
                            "type": "note", 
                            "channel": 12
                        }
                    ]
                ], 
                [
                    65728, 
                    [
                        {
                            "pitch": 47, 
                            "t0": 65728, 
                            "v": 64, 
                            "dur": 75, 
                            "type": "note", 
                            "channel": 12
                        }
                    ]
                ], 
                [
                    65858, 
                    [
                        {
                            "pitch": 45, 
                            "t0": 65858, 
                            "v": 72, 
                            "dur": 96, 
                            "type": "note", 
                            "channel": 12
                        }
                    ]
                ], 
                [
                    65859, 
                    [
                        {
                            "pitch": 41, 
                            "t0": 65859, 
                            "v": 64, 
                            "dur": 83, 
                            "type": "note", 
                            "channel": 12
                        }
                    ]
                ], 
                [
                    65860, 
                    [
                        {
                            "pitch": 43, 
                            "t0": 65860, 
                            "v": 58, 
                            "dur": 88, 
                            "type": "note", 
                            "channel": 12
                        }
                    ]
                ], 
                [
                    66120, 
                    [
                        {
                            "pitch": 45, 
                            "t0": 66120, 
                            "v": 112, 
                            "dur": 207, 
                            "type": "note", 
                            "channel": 12
                        }
                    ]
                ], 
                [
                    66121, 
                    [
                        {
                            "pitch": 43, 
                            "t0": 66121, 
                            "v": 116, 
                            "dur": 219, 
                            "type": "note", 
                            "channel": 12
                        }
                    ]
                ], 
                [
                    66122, 
                    [
                        {
                            "pitch": 41, 
                            "t0": 66122, 
                            "v": 120, 
                            "dur": 221, 
                            "type": "note", 
                            "channel": 12
                        }
                    ]
                ], 
                [
                    66381, 
                    [
                        {
                            "pitch": 47, 
                            "t0": 66381, 
                            "v": 60, 
                            "dur": 73, 
                            "type": "note", 
                            "channel": 12
                        }
                    ]
                ], 
                [
                    66507, 
                    [
                        {
                            "pitch": 47, 
                            "t0": 66507, 
                            "v": 42, 
                            "dur": 80, 
                            "type": "note", 
                            "channel": 12
                        }
                    ]
                ], 
                [
                    66754, 
                    [
                        {
                            "pitch": 47, 
                            "t0": 66754, 
                            "v": 64, 
                            "dur": 68, 
                            "type": "note", 
                            "channel": 12
                        }
                    ]
                ], 
                [
                    66899, 
                    [
                        {
                            "pitch": 45, 
                            "t0": 66899, 
                            "v": 76, 
                            "dur": 100, 
                            "type": "note", 
                            "channel": 12
                        }
                    ]
                ], 
                [
                    66901, 
                    [
                        {
                            "pitch": 43, 
                            "t0": 66901, 
                            "v": 54, 
                            "dur": 89, 
                            "type": "note", 
                            "channel": 12
                        }
                    ]
                ], 
                [
                    66903, 
                    [
                        {
                            "pitch": 41, 
                            "t0": 66903, 
                            "v": 58, 
                            "dur": 81, 
                            "type": "note", 
                            "channel": 12
                        }
                    ]
                ], 
                [
                    67161, 
                    [
                        {
                            "pitch": 45, 
                            "t0": 67161, 
                            "v": 100, 
                            "dur": 184, 
                            "type": "note", 
                            "channel": 12
                        }
                    ]
                ], 
                [
                    67162, 
                    [
                        {
                            "pitch": 41, 
                            "t0": 67162, 
                            "v": 116, 
                            "dur": 198, 
                            "type": "note", 
                            "channel": 12
                        }
                    ]
                ], 
                [
                    67163, 
                    [
                        {
                            "pitch": 43, 
                            "t0": 67163, 
                            "v": 112, 
                            "dur": 195, 
                            "type": "note", 
                            "channel": 12
                        }
                    ]
                ], 
                [
                    67421, 
                    [
                        {
                            "pitch": 47, 
                            "t0": 67421, 
                            "v": 60, 
                            "dur": 71, 
                            "type": "note", 
                            "channel": 12
                        }
                    ]
                ], 
                [
                    67549, 
                    [
                        {
                            "pitch": 47, 
                            "t0": 67549, 
                            "v": 49, 
                            "dur": 74, 
                            "type": "note", 
                            "channel": 12
                        }
                    ]
                ], 
                [
                    67806, 
                    [
                        {
                            "pitch": 47, 
                            "t0": 67806, 
                            "v": 52, 
                            "dur": 84, 
                            "type": "note", 
                            "channel": 12
                        }
                    ]
                ], 
                [
                    67933, 
                    [
                        {
                            "pitch": 41, 
                            "t0": 67933, 
                            "v": 64, 
                            "dur": 74, 
                            "type": "note", 
                            "channel": 12
                        }, 
                        {
                            "pitch": 45, 
                            "t0": 67933, 
                            "v": 72, 
                            "dur": 84, 
                            "type": "note", 
                            "channel": 12
                        }
                    ]
                ], 
                [
                    67935, 
                    [
                        {
                            "pitch": 43, 
                            "t0": 67935, 
                            "v": 52, 
                            "dur": 71, 
                            "type": "note", 
                            "channel": 12
                        }
                    ]
                ], 
                [
                    68195, 
                    [
                        {
                            "pitch": 41, 
                            "t0": 68195, 
                            "v": 116, 
                            "dur": 211, 
                            "type": "note", 
                            "channel": 12
                        }
                    ]
                ], 
                [
                    68196, 
                    [
                        {
                            "pitch": 45, 
                            "t0": 68196, 
                            "v": 116, 
                            "dur": 193, 
                            "type": "note", 
                            "channel": 12
                        }, 
                        {
                            "pitch": 43, 
                            "t0": 68196, 
                            "v": 116, 
                            "dur": 207, 
                            "type": "note", 
                            "channel": 12
                        }
                    ]
                ], 
                [
                    68463, 
                    [
                        {
                            "pitch": 47, 
                            "t0": 68463, 
                            "v": 54, 
                            "dur": 69, 
                            "type": "note", 
                            "channel": 12
                        }
                    ]
                ], 
                [
                    68596, 
                    [
                        {
                            "pitch": 47, 
                            "t0": 68596, 
                            "v": 58, 
                            "dur": 70, 
                            "type": "note", 
                            "channel": 12
                        }
                    ]
                ], 
                [
                    68852, 
                    [
                        {
                            "pitch": 47, 
                            "t0": 68852, 
                            "v": 54, 
                            "dur": 98, 
                            "type": "note", 
                            "channel": 12
                        }
                    ]
                ], 
                [
                    68982, 
                    [
                        {
                            "pitch": 45, 
                            "t0": 68982, 
                            "v": 48, 
                            "dur": 96, 
                            "type": "note", 
                            "channel": 12
                        }
                    ]
                ], 
                [
                    68985, 
                    [
                        {
                            "pitch": 43, 
                            "t0": 68985, 
                            "v": 49, 
                            "dur": 90, 
                            "type": "note", 
                            "channel": 12
                        }
                    ]
                ], 
                [
                    68988, 
                    [
                        {
                            "pitch": 41, 
                            "t0": 68988, 
                            "v": 48, 
                            "dur": 83, 
                            "type": "note", 
                            "channel": 12
                        }
                    ]
                ], 
                [
                    69240, 
                    [
                        {
                            "pitch": 43, 
                            "t0": 69240, 
                            "v": 108, 
                            "dur": 204, 
                            "type": "note", 
                            "channel": 12
                        }, 
                        {
                            "pitch": 41, 
                            "t0": 69240, 
                            "v": 116, 
                            "dur": 205, 
                            "type": "note", 
                            "channel": 12
                        }
                    ]
                ], 
                [
                    69241, 
                    [
                        {
                            "pitch": 45, 
                            "t0": 69241, 
                            "v": 108, 
                            "dur": 193, 
                            "type": "note", 
                            "channel": 12
                        }
                    ]
                ], 
                [
                    69498, 
                    [
                        {
                            "pitch": 47, 
                            "t0": 69498, 
                            "v": 64, 
                            "dur": 76, 
                            "type": "note", 
                            "channel": 12
                        }
                    ]
                ], 
                [
                    69622, 
                    [
                        {
                            "pitch": 47, 
                            "t0": 69622, 
                            "v": 58, 
                            "dur": 97, 
                            "type": "note", 
                            "channel": 12
                        }
                    ]
                ], 
                [
                    69870, 
                    [
                        {
                            "pitch": 47, 
                            "t0": 69870, 
                            "v": 56, 
                            "dur": 104, 
                            "type": "note", 
                            "channel": 12
                        }
                    ]
                ], 
                [
                    70017, 
                    [
                        {
                            "pitch": 45, 
                            "t0": 70017, 
                            "v": 43, 
                            "dur": 99, 
                            "type": "note", 
                            "channel": 12
                        }
                    ]
                ], 
                [
                    70020, 
                    [
                        {
                            "pitch": 43, 
                            "t0": 70020, 
                            "v": 44, 
                            "dur": 91, 
                            "type": "note", 
                            "channel": 12
                        }
                    ]
                ], 
                [
                    70024, 
                    [
                        {
                            "pitch": 41, 
                            "t0": 70024, 
                            "v": 43, 
                            "dur": 89, 
                            "type": "note", 
                            "channel": 12
                        }
                    ]
                ], 
                [
                    70272, 
                    [
                        {
                            "pitch": 43, 
                            "t0": 70272, 
                            "v": 116, 
                            "dur": 195, 
                            "type": "note", 
                            "channel": 12
                        }
                    ]
                ], 
                [
                    70273, 
                    [
                        {
                            "pitch": 41, 
                            "t0": 70273, 
                            "v": 112, 
                            "dur": 191, 
                            "type": "note", 
                            "channel": 12
                        }, 
                        {
                            "pitch": 45, 
                            "t0": 70273, 
                            "v": 112, 
                            "dur": 192, 
                            "type": "note", 
                            "channel": 12
                        }
                    ]
                ], 
                [
                    70524, 
                    [
                        {
                            "pitch": 47, 
                            "t0": 70524, 
                            "v": 76, 
                            "dur": 82, 
                            "type": "note", 
                            "channel": 12
                        }
                    ]
                ], 
                [
                    70649, 
                    [
                        {
                            "pitch": 47, 
                            "t0": 70649, 
                            "v": 64, 
                            "dur": 85, 
                            "type": "note", 
                            "channel": 12
                        }
                    ]
                ], 
                [
                    70912, 
                    [
                        {
                            "pitch": 47, 
                            "t0": 70912, 
                            "v": 54, 
                            "dur": 75, 
                            "type": "note", 
                            "channel": 12
                        }
                    ]
                ], 
                [
                    71044, 
                    [
                        {
                            "pitch": 45, 
                            "t0": 71044, 
                            "v": 80, 
                            "dur": 97, 
                            "type": "note", 
                            "channel": 12
                        }
                    ]
                ], 
                [
                    71046, 
                    [
                        {
                            "pitch": 41, 
                            "t0": 71046, 
                            "v": 76, 
                            "dur": 91, 
                            "type": "note", 
                            "channel": 12
                        }, 
                        {
                            "pitch": 43, 
                            "t0": 71046, 
                            "v": 68, 
                            "dur": 92, 
                            "type": "note", 
                            "channel": 12
                        }
                    ]
                ], 
                [
                    71305, 
                    [
                        {
                            "pitch": 45, 
                            "t0": 71305, 
                            "v": 112, 
                            "dur": 194, 
                            "type": "note", 
                            "channel": 12
                        }, 
                        {
                            "pitch": 41, 
                            "t0": 71305, 
                            "v": 112, 
                            "dur": 200, 
                            "type": "note", 
                            "channel": 12
                        }
                    ]
                ], 
                [
                    71306, 
                    [
                        {
                            "pitch": 43, 
                            "t0": 71306, 
                            "v": 120, 
                            "dur": 205, 
                            "type": "note", 
                            "channel": 12
                        }
                    ]
                ], 
                [
                    71560, 
                    [
                        {
                            "pitch": 47, 
                            "t0": 71560, 
                            "v": 60, 
                            "dur": 76, 
                            "type": "note", 
                            "channel": 12
                        }
                    ]
                ], 
                [
                    71686, 
                    [
                        {
                            "pitch": 47, 
                            "t0": 71686, 
                            "v": 54, 
                            "dur": 92, 
                            "type": "note", 
                            "channel": 12
                        }
                    ]
                ], 
                [
                    71926, 
                    [
                        {
                            "pitch": 47, 
                            "t0": 71926, 
                            "v": 58, 
                            "dur": 100, 
                            "type": "note", 
                            "channel": 12
                        }
                    ]
                ], 
                [
                    72052, 
                    [
                        {
                            "pitch": 45, 
                            "t0": 72052, 
                            "v": 60, 
                            "dur": 69, 
                            "type": "note", 
                            "channel": 12
                        }
                    ]
                ], 
                [
                    72054, 
                    [
                        {
                            "pitch": 41, 
                            "t0": 72054, 
                            "v": 72, 
                            "dur": 62, 
                            "type": "note", 
                            "channel": 12
                        }, 
                        {
                            "pitch": 43, 
                            "t0": 72054, 
                            "v": 58, 
                            "dur": 63, 
                            "type": "note", 
                            "channel": 12
                        }
                    ]
                ], 
                [
                    72317, 
                    [
                        {
                            "pitch": 41, 
                            "t0": 72317, 
                            "v": 112, 
                            "dur": 197, 
                            "type": "note", 
                            "channel": 12
                        }, 
                        {
                            "pitch": 43, 
                            "t0": 72317, 
                            "v": 116, 
                            "dur": 198, 
                            "type": "note", 
                            "channel": 12
                        }
                    ]
                ], 
                [
                    72318, 
                    [
                        {
                            "pitch": 45, 
                            "t0": 72318, 
                            "v": 108, 
                            "dur": 184, 
                            "type": "note", 
                            "channel": 12
                        }
                    ]
                ], 
                [
                    72585, 
                    [
                        {
                            "pitch": 47, 
                            "t0": 72585, 
                            "v": 40, 
                            "dur": 73, 
                            "type": "note", 
                            "channel": 12
                        }
                    ]
                ], 
                [
                    72707, 
                    [
                        {
                            "pitch": 47, 
                            "t0": 72707, 
                            "v": 56, 
                            "dur": 76, 
                            "type": "note", 
                            "channel": 12
                        }
                    ]
                ], 
                [
                    72959, 
                    [
                        {
                            "pitch": 47, 
                            "t0": 72959, 
                            "v": 60, 
                            "dur": 97, 
                            "type": "note", 
                            "channel": 12
                        }
                    ]
                ], 
                [
                    73092, 
                    [
                        {
                            "pitch": 43, 
                            "t0": 73092, 
                            "v": 50, 
                            "dur": 58, 
                            "type": "note", 
                            "channel": 12
                        }
                    ]
                ], 
                [
                    73093, 
                    [
                        {
                            "pitch": 45, 
                            "t0": 73093, 
                            "v": 50, 
                            "dur": 59, 
                            "type": "note", 
                            "channel": 12
                        }
                    ]
                ], 
                [
                    73094, 
                    [
                        {
                            "pitch": 41, 
                            "t0": 73094, 
                            "v": 48, 
                            "dur": 47, 
                            "type": "note", 
                            "channel": 12
                        }
                    ]
                ], 
                [
                    73342, 
                    [
                        {
                            "pitch": 45, 
                            "t0": 73342, 
                            "v": 104, 
                            "dur": 204, 
                            "type": "note", 
                            "channel": 12
                        }, 
                        {
                            "pitch": 41, 
                            "t0": 73342, 
                            "v": 112, 
                            "dur": 218, 
                            "type": "note", 
                            "channel": 12
                        }
                    ]
                ], 
                [
                    73343, 
                    [
                        {
                            "pitch": 43, 
                            "t0": 73343, 
                            "v": 112, 
                            "dur": 216, 
                            "type": "note", 
                            "channel": 12
                        }
                    ]
                ], 
                [
                    73592, 
                    [
                        {
                            "pitch": 47, 
                            "t0": 73592, 
                            "v": 72, 
                            "dur": 71, 
                            "type": "note", 
                            "channel": 12
                        }
                    ]
                ], 
                [
                    73719, 
                    [
                        {
                            "pitch": 47, 
                            "t0": 73719, 
                            "v": 52, 
                            "dur": 69, 
                            "type": "note", 
                            "channel": 12
                        }
                    ]
                ], 
                [
                    73968, 
                    [
                        {
                            "pitch": 47, 
                            "t0": 73968, 
                            "v": 50, 
                            "dur": 96, 
                            "type": "note", 
                            "channel": 12
                        }
                    ]
                ], 
                [
                    74102, 
                    [
                        {
                            "pitch": 45, 
                            "t0": 74102, 
                            "v": 46, 
                            "dur": 70, 
                            "type": "note", 
                            "channel": 12
                        }
                    ]
                ], 
                [
                    74103, 
                    [
                        {
                            "pitch": 43, 
                            "t0": 74103, 
                            "v": 48, 
                            "dur": 68, 
                            "type": "note", 
                            "channel": 12
                        }
                    ]
                ], 
                [
                    74105, 
                    [
                        {
                            "pitch": 41, 
                            "t0": 74105, 
                            "v": 46, 
                            "dur": 60, 
                            "type": "note", 
                            "channel": 12
                        }
                    ]
                ], 
                [
                    74358, 
                    [
                        {
                            "pitch": 43, 
                            "t0": 74358, 
                            "v": 112, 
                            "dur": 222, 
                            "type": "note", 
                            "channel": 12
                        }
                    ]
                ], 
                [
                    74359, 
                    [
                        {
                            "pitch": 41, 
                            "t0": 74359, 
                            "v": 116, 
                            "dur": 222, 
                            "type": "note", 
                            "channel": 12
                        }
                    ]
                ], 
                [
                    74360, 
                    [
                        {
                            "pitch": 45, 
                            "t0": 74360, 
                            "v": 108, 
                            "dur": 219, 
                            "type": "note", 
                            "channel": 12
                        }
                    ]
                ], 
                [
                    74618, 
                    [
                        {
                            "pitch": 47, 
                            "t0": 74618, 
                            "v": 46, 
                            "dur": 79, 
                            "type": "note", 
                            "channel": 12
                        }
                    ]
                ], 
                [
                    74742, 
                    [
                        {
                            "pitch": 47, 
                            "t0": 74742, 
                            "v": 48, 
                            "dur": 65, 
                            "type": "note", 
                            "channel": 12
                        }
                    ]
                ], 
                [
                    74989, 
                    [
                        {
                            "pitch": 47, 
                            "t0": 74989, 
                            "v": 44, 
                            "dur": 95, 
                            "type": "note", 
                            "channel": 12
                        }
                    ]
                ], 
                [
                    75112, 
                    [
                        {
                            "pitch": 45, 
                            "t0": 75112, 
                            "v": 68, 
                            "dur": 94, 
                            "type": "note", 
                            "channel": 12
                        }
                    ]
                ], 
                [
                    75113, 
                    [
                        {
                            "pitch": 43, 
                            "t0": 75113, 
                            "v": 64, 
                            "dur": 79, 
                            "type": "note", 
                            "channel": 12
                        }
                    ]
                ], 
                [
                    75115, 
                    [
                        {
                            "pitch": 41, 
                            "t0": 75115, 
                            "v": 60, 
                            "dur": 68, 
                            "type": "note", 
                            "channel": 12
                        }
                    ]
                ], 
                [
                    75377, 
                    [
                        {
                            "pitch": 45, 
                            "t0": 75377, 
                            "v": 108, 
                            "dur": 217, 
                            "type": "note", 
                            "channel": 12
                        }, 
                        {
                            "pitch": 41, 
                            "t0": 75377, 
                            "v": 116, 
                            "dur": 217, 
                            "type": "note", 
                            "channel": 12
                        }
                    ]
                ], 
                [
                    75378, 
                    [
                        {
                            "pitch": 43, 
                            "t0": 75378, 
                            "v": 108, 
                            "dur": 217, 
                            "type": "note", 
                            "channel": 12
                        }
                    ]
                ], 
                [
                    75636, 
                    [
                        {
                            "pitch": 47, 
                            "t0": 75636, 
                            "v": 58, 
                            "dur": 74, 
                            "type": "note", 
                            "channel": 12
                        }
                    ]
                ], 
                [
                    75774, 
                    [
                        {
                            "pitch": 47, 
                            "t0": 75774, 
                            "v": 46, 
                            "dur": 70, 
                            "type": "note", 
                            "channel": 12
                        }
                    ]
                ], 
                [
                    76030, 
                    [
                        {
                            "pitch": 47, 
                            "t0": 76030, 
                            "v": 50, 
                            "dur": 99, 
                            "type": "note", 
                            "channel": 12
                        }
                    ]
                ], 
                [
                    76158, 
                    [
                        {
                            "pitch": 45, 
                            "t0": 76158, 
                            "v": 60, 
                            "dur": 85, 
                            "type": "note", 
                            "channel": 12
                        }
                    ]
                ], 
                [
                    76159, 
                    [
                        {
                            "pitch": 43, 
                            "t0": 76159, 
                            "v": 58, 
                            "dur": 72, 
                            "type": "note", 
                            "channel": 12
                        }, 
                        {
                            "pitch": 41, 
                            "t0": 76159, 
                            "v": 56, 
                            "dur": 73, 
                            "type": "note", 
                            "channel": 12
                        }
                    ]
                ], 
                [
                    76415, 
                    [
                        {
                            "pitch": 41, 
                            "t0": 76415, 
                            "v": 124, 
                            "dur": 243, 
                            "type": "note", 
                            "channel": 12
                        }
                    ]
                ], 
                [
                    76416, 
                    [
                        {
                            "pitch": 43, 
                            "t0": 76416, 
                            "v": 127, 
                            "dur": 233, 
                            "type": "note", 
                            "channel": 12
                        }, 
                        {
                            "pitch": 45, 
                            "t0": 76416, 
                            "v": 120, 
                            "dur": 235, 
                            "type": "note", 
                            "channel": 12
                        }
                    ]
                ], 
                [
                    76668, 
                    [
                        {
                            "pitch": 47, 
                            "t0": 76668, 
                            "v": 76, 
                            "dur": 67, 
                            "type": "note", 
                            "channel": 12
                        }
                    ]
                ], 
                [
                    76798, 
                    [
                        {
                            "pitch": 47, 
                            "t0": 76798, 
                            "v": 47, 
                            "dur": 70, 
                            "type": "note", 
                            "channel": 12
                        }
                    ]
                ], 
                [
                    77047, 
                    [
                        {
                            "pitch": 47, 
                            "t0": 77047, 
                            "v": 72, 
                            "dur": 71, 
                            "type": "note", 
                            "channel": 12
                        }
                    ]
                ], 
                [
                    77179, 
                    [
                        {
                            "pitch": 43, 
                            "t0": 77179, 
                            "v": 49, 
                            "dur": 57, 
                            "type": "note", 
                            "channel": 12
                        }, 
                        {
                            "pitch": 45, 
                            "t0": 77179, 
                            "v": 49, 
                            "dur": 62, 
                            "type": "note", 
                            "channel": 12
                        }
                    ]
                ], 
                [
                    77180, 
                    [
                        {
                            "pitch": 41, 
                            "t0": 77180, 
                            "v": 48, 
                            "dur": 53, 
                            "type": "note", 
                            "channel": 12
                        }
                    ]
                ], 
                [
                    77430, 
                    [
                        {
                            "pitch": 45, 
                            "t0": 77430, 
                            "v": 124, 
                            "dur": 186, 
                            "type": "note", 
                            "channel": 12
                        }, 
                        {
                            "pitch": 43, 
                            "t0": 77430, 
                            "v": 116, 
                            "dur": 189, 
                            "type": "note", 
                            "channel": 12
                        }
                    ]
                ], 
                [
                    77431, 
                    [
                        {
                            "pitch": 41, 
                            "t0": 77431, 
                            "v": 120, 
                            "dur": 188, 
                            "type": "note", 
                            "channel": 12
                        }
                    ]
                ], 
                [
                    77683, 
                    [
                        {
                            "pitch": 47, 
                            "t0": 77683, 
                            "v": 76, 
                            "dur": 63, 
                            "type": "note", 
                            "channel": 12
                        }
                    ]
                ], 
                [
                    77807, 
                    [
                        {
                            "pitch": 47, 
                            "t0": 77807, 
                            "v": 44, 
                            "dur": 84, 
                            "type": "note", 
                            "channel": 12
                        }
                    ]
                ], 
                [
                    78064, 
                    [
                        {
                            "pitch": 47, 
                            "t0": 78064, 
                            "v": 68, 
                            "dur": 63, 
                            "type": "note", 
                            "channel": 12
                        }
                    ]
                ], 
                [
                    78204, 
                    [
                        {
                            "pitch": 41, 
                            "t0": 78204, 
                            "v": 92, 
                            "dur": 60, 
                            "type": "note", 
                            "channel": 12
                        }
                    ]
                ], 
                [
                    78205, 
                    [
                        {
                            "pitch": 43, 
                            "t0": 78205, 
                            "v": 88, 
                            "dur": 63, 
                            "type": "note", 
                            "channel": 12
                        }, 
                        {
                            "pitch": 45, 
                            "t0": 78205, 
                            "v": 84, 
                            "dur": 65, 
                            "type": "note", 
                            "channel": 12
                        }
                    ]
                ], 
                [
                    78453, 
                    [
                        {
                            "pitch": 41, 
                            "t0": 78453, 
                            "v": 80, 
                            "dur": 119, 
                            "type": "note", 
                            "channel": 12
                        }, 
                        {
                            "pitch": 43, 
                            "t0": 78453, 
                            "v": 88, 
                            "dur": 120, 
                            "type": "note", 
                            "channel": 12
                        }
                    ]
                ], 
                [
                    78454, 
                    [
                        {
                            "pitch": 45, 
                            "t0": 78454, 
                            "v": 80, 
                            "dur": 119, 
                            "type": "note", 
                            "channel": 12
                        }
                    ]
                ], 
                [
                    78723, 
                    [
                        {
                            "pitch": 47, 
                            "t0": 78723, 
                            "v": 60, 
                            "dur": 65, 
                            "type": "note", 
                            "channel": 12
                        }
                    ]
                ], 
                [
                    78851, 
                    [
                        {
                            "pitch": 47, 
                            "t0": 78851, 
                            "v": 46, 
                            "dur": 68, 
                            "type": "note", 
                            "channel": 12
                        }
                    ]
                ], 
                [
                    79116, 
                    [
                        {
                            "pitch": 47, 
                            "t0": 79116, 
                            "v": 6, 
                            "dur": 79, 
                            "type": "note", 
                            "channel": 12
                        }
                    ]
                ], 
                [
                    79242, 
                    [
                        {
                            "pitch": 45, 
                            "t0": 79242, 
                            "v": 46, 
                            "dur": 54, 
                            "type": "note", 
                            "channel": 12
                        }
                    ]
                ], 
                [
                    79246, 
                    [
                        {
                            "pitch": 43, 
                            "t0": 79246, 
                            "v": 46, 
                            "dur": 42, 
                            "type": "note", 
                            "channel": 12
                        }
                    ]
                ], 
                [
                    79247, 
                    [
                        {
                            "pitch": 41, 
                            "t0": 79247, 
                            "v": 46, 
                            "dur": 38, 
                            "type": "note", 
                            "channel": 12
                        }
                    ]
                ], 
                [
                    79478, 
                    [
                        {
                            "pitch": 41, 
                            "t0": 79478, 
                            "v": 116, 
                            "dur": 232, 
                            "type": "note", 
                            "channel": 12
                        }
                    ]
                ], 
                [
                    79479, 
                    [
                        {
                            "pitch": 45, 
                            "t0": 79479, 
                            "v": 112, 
                            "dur": 225, 
                            "type": "note", 
                            "channel": 12
                        }, 
                        {
                            "pitch": 43, 
                            "t0": 79479, 
                            "v": 112, 
                            "dur": 231, 
                            "type": "note", 
                            "channel": 12
                        }
                    ]
                ], 
                [
                    79736, 
                    [
                        {
                            "pitch": 47, 
                            "t0": 79736, 
                            "v": 72, 
                            "dur": 70, 
                            "type": "note", 
                            "channel": 12
                        }
                    ]
                ], 
                [
                    80131, 
                    [
                        {
                            "pitch": 47, 
                            "t0": 80131, 
                            "v": 60, 
                            "dur": 65, 
                            "type": "note", 
                            "channel": 12
                        }
                    ]
                ], 
                [
                    80256, 
                    [
                        {
                            "pitch": 47, 
                            "t0": 80256, 
                            "v": 47, 
                            "dur": 100, 
                            "type": "note", 
                            "channel": 12
                        }
                    ]
                ], 
                [
                    80522, 
                    [
                        {
                            "pitch": 45, 
                            "t0": 80522, 
                            "v": 112, 
                            "dur": 213, 
                            "type": "note", 
                            "channel": 12
                        }, 
                        {
                            "pitch": 43, 
                            "t0": 80522, 
                            "v": 104, 
                            "dur": 215, 
                            "type": "note", 
                            "channel": 12
                        }
                    ]
                ], 
                [
                    80523, 
                    [
                        {
                            "pitch": 41, 
                            "t0": 80523, 
                            "v": 112, 
                            "dur": 213, 
                            "type": "note", 
                            "channel": 12
                        }
                    ]
                ], 
                [
                    84960, 
                    [
                        {
                            "pitch": 82, 
                            "t0": 84960, 
                            "v": 80, 
                            "dur": 480, 
                            "type": "note", 
                            "channel": 12
                        }, 
                        {
                            "pitch": 76, 
                            "t0": 84960, 
                            "v": 80, 
                            "dur": 480, 
                            "type": "note", 
                            "channel": 12
                        }, 
                        {
                            "pitch": 83, 
                            "t0": 84960, 
                            "v": 80, 
                            "dur": 480, 
                            "type": "note", 
                            "channel": 12
                        }, 
                        {
                            "pitch": 41, 
                            "t0": 84960, 
                            "v": 112, 
                            "dur": 480, 
                            "type": "note", 
                            "channel": 12
                        }, 
                        {
                            "pitch": 43, 
                            "t0": 84960, 
                            "v": 104, 
                            "dur": 480, 
                            "type": "note", 
                            "channel": 12
                        }, 
                        {
                            "pitch": 45, 
                            "t0": 84960, 
                            "v": 112, 
                            "dur": 480, 
                            "type": "note", 
                            "channel": 12
                        }, 
                        {
                            "pitch": 47, 
                            "t0": 84960, 
                            "v": 80, 
                            "dur": 480, 
                            "type": "note", 
                            "channel": 12
                        }
                    ]
                ]
            ], 
            "instruments": [
                116
            ], 
            "tMax": 84960, 
            "channels": [
                12
            ], 
            "instrument": 116, 
            "numNotes": 703, 
            "type": "TrackObj"
        }, 
        {
            "trackName": "Track19", 
            "seq": [], 
            "instruments": [], 
            "channels": [], 
            "numNotes": 0, 
            "type": "TrackObj"
        }, 
        {
            "trackName": "7/10/98  TT-2:52", 
            "seq": [], 
            "instruments": [], 
            "channels": [], 
            "numNotes": 0, 
            "type": "TrackObj"
        }, 
        {
            "trackName": "Track21", 
            "seq": [], 
            "instruments": [], 
            "channels": [], 
            "numNotes": 0, 
            "type": "TrackObj"
        }, 
        {
            "trackName": "\"Earth & Sky\"", 
            "seq": [], 
            "instruments": [], 
            "channels": [], 
            "numNotes": 0, 
            "type": "TrackObj"
        }, 
        {
            "trackName": "All Rights Reserved (ASCAP)", 
            "seq": [], 
            "instruments": [], 
            "channels": [], 
            "numNotes": 0, 
            "type": "TrackObj"
        }, 
        {
            "trackName": "Unauthorized Distribution", 
            "seq": [], 
            "instruments": [], 
            "channels": [], 
            "numNotes": 0, 
            "type": "TrackObj"
        }, 
        {
            "trackName": "Strictly Prohibited", 
            "seq": [], 
            "instruments": [], 
            "channels": [], 
            "numNotes": 0, 
            "type": "TrackObj"
        }, 
        {
            "trackName": "Freely distributed for personal", 
            "seq": [], 
            "instruments": [], 
            "channels": [], 
            "numNotes": 0, 
            "type": "TrackObj"
        }, 
        {
            "trackName": "use and non-commercial sites.", 
            "seq": [], 
            "instruments": [], 
            "channels": [], 
            "numNotes": 0, 
            "type": "TrackObj"
        }, 
        {
            "trackName": "This file may not be sold or", 
            "seq": [], 
            "instruments": [], 
            "channels": [], 
            "numNotes": 0, 
            "type": "TrackObj"
        }, 
        {
            "trackName": "altered under any circumstance.", 
            "seq": [], 
            "instruments": [], 
            "channels": [], 
            "numNotes": 0, 
            "type": "TrackObj"
        }, 
        {
            "trackName": "Contact:", 
            "seq": [], 
            "instruments": [], 
            "channels": [], 
            "numNotes": 0, 
            "type": "TrackObj"
        }, 
        {
            "trackName": "elanmichaels@netscape.net", 
            "seq": [], 
            "instruments": [], 
            "channels": [], 
            "numNotes": 0, 
            "type": "TrackObj"
        }, 
        {
            "trackName": "MP3s@http://www.mp3.com/elan", 
            "seq": [], 
            "instruments": [], 
            "channels": [], 
            "numNotes": 0, 
            "type": "TrackObj"
        }, 
        {
            "trackName": "****Honor Mother Earth****", 
            "seq": [], 
            "instruments": [], 
            "channels": [], 
            "numNotes": 0, 
            "type": "TrackObj"
        }
    ], 
    "type": "MidiObj"
}