{
    "format": 1, 
    "instruments": [
        0, 
        33, 
        52, 
        53, 
        116, 
        45, 
        46
    ], 
    "resolution": 480, 
    "channels": [
        0, 
        1, 
        2, 
        3, 
        4, 
        5, 
        6, 
        7, 
        8, 
        9, 
        11, 
        12, 
        13
    ], 
    "tracks": [
        {
            "trackName": "Seq-1", 
            "seq": [
                [
                    0, 
                    [
                        {
                            "bpm": 114.10011143777551, 
                            "type": "tempo", 
                            "mpqn": 525854, 
                            "t0": 0
                        }
                    ]
                ]
            ], 
            "instruments": [], 
            "tMax": 0, 
            "channels": [], 
            "numNotes": 0, 
            "type": "TrackObj"
        }, 
        {
            "trackName": "Track-1", 
            "seq": [
                [
                    1920, 
                    [
                        {
                            "instrument": 45, 
                            "type": "programChange", 
                            "t0": 1920, 
                            "channel": 1
                        }
                    ]
                ], 
                [
                    2400, 
                    [
                        {
                            "pitch": 67, 
                            "t0": 2400, 
                            "v": 90, 
                            "dur": 240, 
                            "type": "note", 
                            "channel": 1
                        }, 
                        {
                            "pitch": 59, 
                            "t0": 2400, 
                            "v": 90, 
                            "dur": 240, 
                            "type": "note", 
                            "channel": 1
                        }, 
                        {
                            "pitch": 62, 
                            "t0": 2400, 
                            "v": 90, 
                            "dur": 240, 
                            "type": "note", 
                            "channel": 1
                        }
                    ]
                ], 
                [
                    3600, 
                    [
                        {
                            "pitch": 67, 
                            "t0": 3600, 
                            "v": 90, 
                            "dur": 240, 
                            "type": "note", 
                            "channel": 1
                        }, 
                        {
                            "pitch": 59, 
                            "t0": 3600, 
                            "v": 90, 
                            "dur": 240, 
                            "type": "note", 
                            "channel": 1
                        }, 
                        {
                            "pitch": 62, 
                            "t0": 3600, 
                            "v": 90, 
                            "dur": 240, 
                            "type": "note", 
                            "channel": 1
                        }
                    ]
                ], 
                [
                    4320, 
                    [
                        {
                            "pitch": 65, 
                            "t0": 4320, 
                            "v": 90, 
                            "dur": 240, 
                            "type": "note", 
                            "channel": 1
                        }, 
                        {
                            "pitch": 57, 
                            "t0": 4320, 
                            "v": 90, 
                            "dur": 240, 
                            "type": "note", 
                            "channel": 1
                        }, 
                        {
                            "pitch": 60, 
                            "t0": 4320, 
                            "v": 90, 
                            "dur": 240, 
                            "type": "note", 
                            "channel": 1
                        }
                    ]
                ], 
                [
                    5040, 
                    [
                        {
                            "pitch": 64, 
                            "t0": 5040, 
                            "v": 90, 
                            "dur": 240, 
                            "type": "note", 
                            "channel": 1
                        }, 
                        {
                            "pitch": 55, 
                            "t0": 5040, 
                            "v": 90, 
                            "dur": 240, 
                            "type": "note", 
                            "channel": 1
                        }, 
                        {
                            "pitch": 60, 
                            "t0": 5040, 
                            "v": 90, 
                            "dur": 240, 
                            "type": "note", 
                            "channel": 1
                        }
                    ]
                ], 
                [
                    6240, 
                    [
                        {
                            "pitch": 67, 
                            "t0": 6240, 
                            "v": 90, 
                            "dur": 240, 
                            "type": "note", 
                            "channel": 1
                        }, 
                        {
                            "pitch": 59, 
                            "t0": 6240, 
                            "v": 90, 
                            "dur": 240, 
                            "type": "note", 
                            "channel": 1
                        }, 
                        {
                            "pitch": 62, 
                            "t0": 6240, 
                            "v": 90, 
                            "dur": 240, 
                            "type": "note", 
                            "channel": 1
                        }
                    ]
                ], 
                [
                    7440, 
                    [
                        {
                            "pitch": 67, 
                            "t0": 7440, 
                            "v": 90, 
                            "dur": 240, 
                            "type": "note", 
                            "channel": 1
                        }, 
                        {
                            "pitch": 59, 
                            "t0": 7440, 
                            "v": 90, 
                            "dur": 240, 
                            "type": "note", 
                            "channel": 1
                        }, 
                        {
                            "pitch": 62, 
                            "t0": 7440, 
                            "v": 90, 
                            "dur": 240, 
                            "type": "note", 
                            "channel": 1
                        }
                    ]
                ], 
                [
                    8160, 
                    [
                        {
                            "pitch": 65, 
                            "t0": 8160, 
                            "v": 90, 
                            "dur": 240, 
                            "type": "note", 
                            "channel": 1
                        }, 
                        {
                            "pitch": 57, 
                            "t0": 8160, 
                            "v": 90, 
                            "dur": 240, 
                            "type": "note", 
                            "channel": 1
                        }, 
                        {
                            "pitch": 60, 
                            "t0": 8160, 
                            "v": 90, 
                            "dur": 240, 
                            "type": "note", 
                            "channel": 1
                        }
                    ]
                ], 
                [
                    8880, 
                    [
                        {
                            "pitch": 64, 
                            "t0": 8880, 
                            "v": 90, 
                            "dur": 240, 
                            "type": "note", 
                            "channel": 1
                        }, 
                        {
                            "pitch": 55, 
                            "t0": 8880, 
                            "v": 90, 
                            "dur": 240, 
                            "type": "note", 
                            "channel": 1
                        }, 
                        {
                            "pitch": 60, 
                            "t0": 8880, 
                            "v": 90, 
                            "dur": 240, 
                            "type": "note", 
                            "channel": 1
                        }
                    ]
                ], 
                [
                    10080, 
                    [
                        {
                            "pitch": 67, 
                            "t0": 10080, 
                            "v": 90, 
                            "dur": 240, 
                            "type": "note", 
                            "channel": 1
                        }, 
                        {
                            "pitch": 59, 
                            "t0": 10080, 
                            "v": 90, 
                            "dur": 240, 
                            "type": "note", 
                            "channel": 1
                        }, 
                        {
                            "pitch": 62, 
                            "t0": 10080, 
                            "v": 90, 
                            "dur": 240, 
                            "type": "note", 
                            "channel": 1
                        }
                    ]
                ], 
                [
                    11280, 
                    [
                        {
                            "pitch": 67, 
                            "t0": 11280, 
                            "v": 90, 
                            "dur": 240, 
                            "type": "note", 
                            "channel": 1
                        }, 
                        {
                            "pitch": 59, 
                            "t0": 11280, 
                            "v": 90, 
                            "dur": 240, 
                            "type": "note", 
                            "channel": 1
                        }, 
                        {
                            "pitch": 62, 
                            "t0": 11280, 
                            "v": 90, 
                            "dur": 240, 
                            "type": "note", 
                            "channel": 1
                        }
                    ]
                ], 
                [
                    12000, 
                    [
                        {
                            "pitch": 65, 
                            "t0": 12000, 
                            "v": 90, 
                            "dur": 240, 
                            "type": "note", 
                            "channel": 1
                        }, 
                        {
                            "pitch": 57, 
                            "t0": 12000, 
                            "v": 90, 
                            "dur": 240, 
                            "type": "note", 
                            "channel": 1
                        }, 
                        {
                            "pitch": 60, 
                            "t0": 12000, 
                            "v": 90, 
                            "dur": 240, 
                            "type": "note", 
                            "channel": 1
                        }
                    ]
                ], 
                [
                    12720, 
                    [
                        {
                            "pitch": 64, 
                            "t0": 12720, 
                            "v": 90, 
                            "dur": 240, 
                            "type": "note", 
                            "channel": 1
                        }, 
                        {
                            "pitch": 55, 
                            "t0": 12720, 
                            "v": 90, 
                            "dur": 240, 
                            "type": "note", 
                            "channel": 1
                        }, 
                        {
                            "pitch": 60, 
                            "t0": 12720, 
                            "v": 90, 
                            "dur": 240, 
                            "type": "note", 
                            "channel": 1
                        }
                    ]
                ], 
                [
                    13920, 
                    [
                        {
                            "pitch": 67, 
                            "t0": 13920, 
                            "v": 90, 
                            "dur": 240, 
                            "type": "note", 
                            "channel": 1
                        }, 
                        {
                            "pitch": 59, 
                            "t0": 13920, 
                            "v": 90, 
                            "dur": 240, 
                            "type": "note", 
                            "channel": 1
                        }, 
                        {
                            "pitch": 62, 
                            "t0": 13920, 
                            "v": 90, 
                            "dur": 240, 
                            "type": "note", 
                            "channel": 1
                        }
                    ]
                ], 
                [
                    15120, 
                    [
                        {
                            "pitch": 67, 
                            "t0": 15120, 
                            "v": 90, 
                            "dur": 240, 
                            "type": "note", 
                            "channel": 1
                        }, 
                        {
                            "pitch": 59, 
                            "t0": 15120, 
                            "v": 90, 
                            "dur": 240, 
                            "type": "note", 
                            "channel": 1
                        }, 
                        {
                            "pitch": 62, 
                            "t0": 15120, 
                            "v": 90, 
                            "dur": 240, 
                            "type": "note", 
                            "channel": 1
                        }
                    ]
                ], 
                [
                    15840, 
                    [
                        {
                            "pitch": 65, 
                            "t0": 15840, 
                            "v": 90, 
                            "dur": 240, 
                            "type": "note", 
                            "channel": 1
                        }, 
                        {
                            "pitch": 57, 
                            "t0": 15840, 
                            "v": 90, 
                            "dur": 240, 
                            "type": "note", 
                            "channel": 1
                        }, 
                        {
                            "pitch": 60, 
                            "t0": 15840, 
                            "v": 90, 
                            "dur": 240, 
                            "type": "note", 
                            "channel": 1
                        }
                    ]
                ], 
                [
                    16560, 
                    [
                        {
                            "pitch": 64, 
                            "t0": 16560, 
                            "v": 90, 
                            "dur": 240, 
                            "type": "note", 
                            "channel": 1
                        }, 
                        {
                            "pitch": 55, 
                            "t0": 16560, 
                            "v": 90, 
                            "dur": 240, 
                            "type": "note", 
                            "channel": 1
                        }, 
                        {
                            "pitch": 60, 
                            "t0": 16560, 
                            "v": 90, 
                            "dur": 240, 
                            "type": "note", 
                            "channel": 1
                        }
                    ]
                ], 
                [
                    17760, 
                    [
                        {
                            "pitch": 67, 
                            "t0": 17760, 
                            "v": 90, 
                            "dur": 240, 
                            "type": "note", 
                            "channel": 1
                        }, 
                        {
                            "pitch": 59, 
                            "t0": 17760, 
                            "v": 90, 
                            "dur": 240, 
                            "type": "note", 
                            "channel": 1
                        }, 
                        {
                            "pitch": 62, 
                            "t0": 17760, 
                            "v": 90, 
                            "dur": 240, 
                            "type": "note", 
                            "channel": 1
                        }
                    ]
                ], 
                [
                    18960, 
                    [
                        {
                            "pitch": 67, 
                            "t0": 18960, 
                            "v": 90, 
                            "dur": 240, 
                            "type": "note", 
                            "channel": 1
                        }, 
                        {
                            "pitch": 59, 
                            "t0": 18960, 
                            "v": 90, 
                            "dur": 240, 
                            "type": "note", 
                            "channel": 1
                        }, 
                        {
                            "pitch": 62, 
                            "t0": 18960, 
                            "v": 90, 
                            "dur": 240, 
                            "type": "note", 
                            "channel": 1
                        }
                    ]
                ], 
                [
                    19680, 
                    [
                        {
                            "pitch": 65, 
                            "t0": 19680, 
                            "v": 90, 
                            "dur": 240, 
                            "type": "note", 
                            "channel": 1
                        }, 
                        {
                            "pitch": 57, 
                            "t0": 19680, 
                            "v": 90, 
                            "dur": 240, 
                            "type": "note", 
                            "channel": 1
                        }, 
                        {
                            "pitch": 60, 
                            "t0": 19680, 
                            "v": 90, 
                            "dur": 240, 
                            "type": "note", 
                            "channel": 1
                        }
                    ]
                ], 
                [
                    20400, 
                    [
                        {
                            "pitch": 64, 
                            "t0": 20400, 
                            "v": 90, 
                            "dur": 240, 
                            "type": "note", 
                            "channel": 1
                        }, 
                        {
                            "pitch": 55, 
                            "t0": 20400, 
                            "v": 90, 
                            "dur": 240, 
                            "type": "note", 
                            "channel": 1
                        }, 
                        {
                            "pitch": 60, 
                            "t0": 20400, 
                            "v": 90, 
                            "dur": 240, 
                            "type": "note", 
                            "channel": 1
                        }
                    ]
                ], 
                [
                    20640, 
                    [
                        {
                            "pitch": 67, 
                            "t0": 20640, 
                            "v": 90, 
                            "dur": 240, 
                            "type": "note", 
                            "channel": 1
                        }, 
                        {
                            "pitch": 62, 
                            "t0": 20640, 
                            "v": 90, 
                            "dur": 240, 
                            "type": "note", 
                            "channel": 1
                        }
                    ]
                ], 
                [
                    20880, 
                    [
                        {
                            "pitch": 67, 
                            "t0": 20880, 
                            "v": 90, 
                            "dur": 240, 
                            "type": "note", 
                            "channel": 1
                        }, 
                        {
                            "pitch": 62, 
                            "t0": 20880, 
                            "v": 90, 
                            "dur": 240, 
                            "type": "note", 
                            "channel": 1
                        }
                    ]
                ], 
                [
                    21600, 
                    [
                        {
                            "pitch": 67, 
                            "t0": 21600, 
                            "v": 90, 
                            "dur": 240, 
                            "type": "note", 
                            "channel": 1
                        }, 
                        {
                            "pitch": 59, 
                            "t0": 21600, 
                            "v": 90, 
                            "dur": 240, 
                            "type": "note", 
                            "channel": 1
                        }, 
                        {
                            "pitch": 62, 
                            "t0": 21600, 
                            "v": 90, 
                            "dur": 240, 
                            "type": "note", 
                            "channel": 1
                        }
                    ]
                ], 
                [
                    22800, 
                    [
                        {
                            "pitch": 67, 
                            "t0": 22800, 
                            "v": 90, 
                            "dur": 240, 
                            "type": "note", 
                            "channel": 1
                        }, 
                        {
                            "pitch": 59, 
                            "t0": 22800, 
                            "v": 90, 
                            "dur": 240, 
                            "type": "note", 
                            "channel": 1
                        }, 
                        {
                            "pitch": 62, 
                            "t0": 22800, 
                            "v": 90, 
                            "dur": 240, 
                            "type": "note", 
                            "channel": 1
                        }
                    ]
                ], 
                [
                    23520, 
                    [
                        {
                            "pitch": 65, 
                            "t0": 23520, 
                            "v": 90, 
                            "dur": 240, 
                            "type": "note", 
                            "channel": 1
                        }, 
                        {
                            "pitch": 57, 
                            "t0": 23520, 
                            "v": 90, 
                            "dur": 240, 
                            "type": "note", 
                            "channel": 1
                        }, 
                        {
                            "pitch": 60, 
                            "t0": 23520, 
                            "v": 90, 
                            "dur": 240, 
                            "type": "note", 
                            "channel": 1
                        }
                    ]
                ], 
                [
                    24240, 
                    [
                        {
                            "pitch": 64, 
                            "t0": 24240, 
                            "v": 90, 
                            "dur": 240, 
                            "type": "note", 
                            "channel": 1
                        }, 
                        {
                            "pitch": 55, 
                            "t0": 24240, 
                            "v": 90, 
                            "dur": 240, 
                            "type": "note", 
                            "channel": 1
                        }, 
                        {
                            "pitch": 60, 
                            "t0": 24240, 
                            "v": 90, 
                            "dur": 240, 
                            "type": "note", 
                            "channel": 1
                        }
                    ]
                ], 
                [
                    25440, 
                    [
                        {
                            "pitch": 67, 
                            "t0": 25440, 
                            "v": 90, 
                            "dur": 240, 
                            "type": "note", 
                            "channel": 1
                        }, 
                        {
                            "pitch": 59, 
                            "t0": 25440, 
                            "v": 90, 
                            "dur": 240, 
                            "type": "note", 
                            "channel": 1
                        }, 
                        {
                            "pitch": 62, 
                            "t0": 25440, 
                            "v": 90, 
                            "dur": 240, 
                            "type": "note", 
                            "channel": 1
                        }
                    ]
                ], 
                [
                    26640, 
                    [
                        {
                            "pitch": 67, 
                            "t0": 26640, 
                            "v": 90, 
                            "dur": 240, 
                            "type": "note", 
                            "channel": 1
                        }, 
                        {
                            "pitch": 59, 
                            "t0": 26640, 
                            "v": 90, 
                            "dur": 240, 
                            "type": "note", 
                            "channel": 1
                        }, 
                        {
                            "pitch": 62, 
                            "t0": 26640, 
                            "v": 90, 
                            "dur": 240, 
                            "type": "note", 
                            "channel": 1
                        }
                    ]
                ], 
                [
                    27360, 
                    [
                        {
                            "pitch": 65, 
                            "t0": 27360, 
                            "v": 90, 
                            "dur": 240, 
                            "type": "note", 
                            "channel": 1
                        }, 
                        {
                            "pitch": 57, 
                            "t0": 27360, 
                            "v": 90, 
                            "dur": 240, 
                            "type": "note", 
                            "channel": 1
                        }, 
                        {
                            "pitch": 60, 
                            "t0": 27360, 
                            "v": 90, 
                            "dur": 240, 
                            "type": "note", 
                            "channel": 1
                        }
                    ]
                ], 
                [
                    28080, 
                    [
                        {
                            "pitch": 64, 
                            "t0": 28080, 
                            "v": 90, 
                            "dur": 240, 
                            "type": "note", 
                            "channel": 1
                        }, 
                        {
                            "pitch": 55, 
                            "t0": 28080, 
                            "v": 90, 
                            "dur": 240, 
                            "type": "note", 
                            "channel": 1
                        }, 
                        {
                            "pitch": 60, 
                            "t0": 28080, 
                            "v": 90, 
                            "dur": 240, 
                            "type": "note", 
                            "channel": 1
                        }
                    ]
                ], 
                [
                    29040, 
                    [
                        {
                            "pitch": 72, 
                            "t0": 29040, 
                            "v": 90, 
                            "dur": 240, 
                            "type": "note", 
                            "channel": 1
                        }
                    ]
                ], 
                [
                    29280, 
                    [
                        {
                            "pitch": 75, 
                            "t0": 29280, 
                            "v": 90, 
                            "dur": 480, 
                            "type": "note", 
                            "channel": 1
                        }, 
                        {
                            "pitch": 67, 
                            "t0": 29280, 
                            "v": 90, 
                            "dur": 480, 
                            "type": "note", 
                            "channel": 1
                        }, 
                        {
                            "pitch": 72, 
                            "t0": 29280, 
                            "v": 90, 
                            "dur": 480, 
                            "type": "note", 
                            "channel": 1
                        }
                    ]
                ], 
                [
                    29760, 
                    [
                        {
                            "pitch": 72, 
                            "t0": 29760, 
                            "v": 90, 
                            "dur": 240, 
                            "type": "note", 
                            "channel": 1
                        }
                    ]
                ], 
                [
                    30000, 
                    [
                        {
                            "pitch": 75, 
                            "t0": 30000, 
                            "v": 90, 
                            "dur": 480, 
                            "type": "note", 
                            "channel": 1
                        }, 
                        {
                            "pitch": 67, 
                            "t0": 30000, 
                            "v": 90, 
                            "dur": 480, 
                            "type": "note", 
                            "channel": 1
                        }, 
                        {
                            "pitch": 72, 
                            "t0": 30000, 
                            "v": 90, 
                            "dur": 480, 
                            "type": "note", 
                            "channel": 1
                        }
                    ]
                ], 
                [
                    30480, 
                    [
                        {
                            "pitch": 72, 
                            "t0": 30480, 
                            "v": 90, 
                            "dur": 240, 
                            "type": "note", 
                            "channel": 1
                        }
                    ]
                ], 
                [
                    30960, 
                    [
                        {
                            "pitch": 65, 
                            "t0": 30960, 
                            "v": 90, 
                            "dur": 240, 
                            "type": "note", 
                            "channel": 1
                        }
                    ]
                ], 
                [
                    31200, 
                    [
                        {
                            "pitch": 74, 
                            "t0": 31200, 
                            "v": 90, 
                            "dur": 480, 
                            "type": "note", 
                            "channel": 1
                        }, 
                        {
                            "pitch": 65, 
                            "t0": 31200, 
                            "v": 90, 
                            "dur": 480, 
                            "type": "note", 
                            "channel": 1
                        }, 
                        {
                            "pitch": 70, 
                            "t0": 31200, 
                            "v": 90, 
                            "dur": 480, 
                            "type": "note", 
                            "channel": 1
                        }
                    ]
                ], 
                [
                    31920, 
                    [
                        {
                            "pitch": 72, 
                            "t0": 31920, 
                            "v": 90, 
                            "dur": 240, 
                            "type": "note", 
                            "channel": 1
                        }, 
                        {
                            "pitch": 65, 
                            "t0": 31920, 
                            "v": 90, 
                            "dur": 240, 
                            "type": "note", 
                            "channel": 1
                        }, 
                        {
                            "pitch": 69, 
                            "t0": 31920, 
                            "v": 90, 
                            "dur": 240, 
                            "type": "note", 
                            "channel": 1
                        }
                    ]
                ], 
                [
                    32880, 
                    [
                        {
                            "pitch": 75, 
                            "t0": 32880, 
                            "v": 90, 
                            "dur": 240, 
                            "type": "note", 
                            "channel": 1
                        }, 
                        {
                            "pitch": 72, 
                            "t0": 32880, 
                            "v": 90, 
                            "dur": 240, 
                            "type": "note", 
                            "channel": 1
                        }
                    ]
                ], 
                [
                    33120, 
                    [
                        {
                            "pitch": 79, 
                            "t0": 33120, 
                            "v": 90, 
                            "dur": 480, 
                            "type": "note", 
                            "channel": 1
                        }, 
                        {
                            "pitch": 75, 
                            "t0": 33120, 
                            "v": 90, 
                            "dur": 480, 
                            "type": "note", 
                            "channel": 1
                        }
                    ]
                ], 
                [
                    33600, 
                    [
                        {
                            "pitch": 75, 
                            "t0": 33600, 
                            "v": 90, 
                            "dur": 240, 
                            "type": "note", 
                            "channel": 1
                        }, 
                        {
                            "pitch": 72, 
                            "t0": 33600, 
                            "v": 90, 
                            "dur": 240, 
                            "type": "note", 
                            "channel": 1
                        }
                    ]
                ], 
                [
                    33840, 
                    [
                        {
                            "pitch": 79, 
                            "t0": 33840, 
                            "v": 90, 
                            "dur": 480, 
                            "type": "note", 
                            "channel": 1
                        }, 
                        {
                            "pitch": 75, 
                            "t0": 33840, 
                            "v": 90, 
                            "dur": 480, 
                            "type": "note", 
                            "channel": 1
                        }
                    ]
                ], 
                [
                    34320, 
                    [
                        {
                            "pitch": 75, 
                            "t0": 34320, 
                            "v": 90, 
                            "dur": 240, 
                            "type": "note", 
                            "channel": 1
                        }, 
                        {
                            "pitch": 72, 
                            "t0": 34320, 
                            "v": 90, 
                            "dur": 240, 
                            "type": "note", 
                            "channel": 1
                        }
                    ]
                ], 
                [
                    34800, 
                    [
                        {
                            "pitch": 65, 
                            "t0": 34800, 
                            "v": 90, 
                            "dur": 240, 
                            "type": "note", 
                            "channel": 1
                        }
                    ]
                ], 
                [
                    35040, 
                    [
                        {
                            "pitch": 74, 
                            "t0": 35040, 
                            "v": 90, 
                            "dur": 480, 
                            "type": "note", 
                            "channel": 1
                        }, 
                        {
                            "pitch": 65, 
                            "t0": 35040, 
                            "v": 90, 
                            "dur": 480, 
                            "type": "note", 
                            "channel": 1
                        }, 
                        {
                            "pitch": 70, 
                            "t0": 35040, 
                            "v": 90, 
                            "dur": 480, 
                            "type": "note", 
                            "channel": 1
                        }
                    ]
                ], 
                [
                    35760, 
                    [
                        {
                            "pitch": 72, 
                            "t0": 35760, 
                            "v": 90, 
                            "dur": 240, 
                            "type": "note", 
                            "channel": 1
                        }, 
                        {
                            "pitch": 65, 
                            "t0": 35760, 
                            "v": 90, 
                            "dur": 240, 
                            "type": "note", 
                            "channel": 1
                        }, 
                        {
                            "pitch": 69, 
                            "t0": 35760, 
                            "v": 90, 
                            "dur": 240, 
                            "type": "note", 
                            "channel": 1
                        }
                    ]
                ], 
                [
                    36720, 
                    [
                        {
                            "pitch": 72, 
                            "t0": 36720, 
                            "v": 90, 
                            "dur": 240, 
                            "type": "note", 
                            "channel": 1
                        }
                    ]
                ], 
                [
                    36960, 
                    [
                        {
                            "pitch": 75, 
                            "t0": 36960, 
                            "v": 90, 
                            "dur": 480, 
                            "type": "note", 
                            "channel": 1
                        }, 
                        {
                            "pitch": 67, 
                            "t0": 36960, 
                            "v": 90, 
                            "dur": 480, 
                            "type": "note", 
                            "channel": 1
                        }, 
                        {
                            "pitch": 72, 
                            "t0": 36960, 
                            "v": 90, 
                            "dur": 480, 
                            "type": "note", 
                            "channel": 1
                        }
                    ]
                ], 
                [
                    37440, 
                    [
                        {
                            "pitch": 72, 
                            "t0": 37440, 
                            "v": 90, 
                            "dur": 240, 
                            "type": "note", 
                            "channel": 1
                        }
                    ]
                ], 
                [
                    37680, 
                    [
                        {
                            "pitch": 75, 
                            "t0": 37680, 
                            "v": 90, 
                            "dur": 480, 
                            "type": "note", 
                            "channel": 1
                        }, 
                        {
                            "pitch": 67, 
                            "t0": 37680, 
                            "v": 90, 
                            "dur": 480, 
                            "type": "note", 
                            "channel": 1
                        }, 
                        {
                            "pitch": 72, 
                            "t0": 37680, 
                            "v": 90, 
                            "dur": 480, 
                            "type": "note", 
                            "channel": 1
                        }
                    ]
                ], 
                [
                    38160, 
                    [
                        {
                            "pitch": 72, 
                            "t0": 38160, 
                            "v": 90, 
                            "dur": 240, 
                            "type": "note", 
                            "channel": 1
                        }
                    ]
                ], 
                [
                    38640, 
                    [
                        {
                            "pitch": 65, 
                            "t0": 38640, 
                            "v": 90, 
                            "dur": 240, 
                            "type": "note", 
                            "channel": 1
                        }
                    ]
                ], 
                [
                    38880, 
                    [
                        {
                            "pitch": 74, 
                            "t0": 38880, 
                            "v": 90, 
                            "dur": 480, 
                            "type": "note", 
                            "channel": 1
                        }, 
                        {
                            "pitch": 65, 
                            "t0": 38880, 
                            "v": 90, 
                            "dur": 480, 
                            "type": "note", 
                            "channel": 1
                        }, 
                        {
                            "pitch": 70, 
                            "t0": 38880, 
                            "v": 90, 
                            "dur": 480, 
                            "type": "note", 
                            "channel": 1
                        }
                    ]
                ], 
                [
                    39600, 
                    [
                        {
                            "pitch": 72, 
                            "t0": 39600, 
                            "v": 90, 
                            "dur": 240, 
                            "type": "note", 
                            "channel": 1
                        }, 
                        {
                            "pitch": 65, 
                            "t0": 39600, 
                            "v": 90, 
                            "dur": 240, 
                            "type": "note", 
                            "channel": 1
                        }, 
                        {
                            "pitch": 69, 
                            "t0": 39600, 
                            "v": 90, 
                            "dur": 240, 
                            "type": "note", 
                            "channel": 1
                        }
                    ]
                ], 
                [
                    40560, 
                    [
                        {
                            "pitch": 75, 
                            "t0": 40560, 
                            "v": 90, 
                            "dur": 240, 
                            "type": "note", 
                            "channel": 1
                        }, 
                        {
                            "pitch": 72, 
                            "t0": 40560, 
                            "v": 90, 
                            "dur": 240, 
                            "type": "note", 
                            "channel": 1
                        }
                    ]
                ], 
                [
                    40800, 
                    [
                        {
                            "pitch": 79, 
                            "t0": 40800, 
                            "v": 90, 
                            "dur": 480, 
                            "type": "note", 
                            "channel": 1
                        }, 
                        {
                            "pitch": 75, 
                            "t0": 40800, 
                            "v": 90, 
                            "dur": 480, 
                            "type": "note", 
                            "channel": 1
                        }
                    ]
                ], 
                [
                    41280, 
                    [
                        {
                            "pitch": 75, 
                            "t0": 41280, 
                            "v": 90, 
                            "dur": 240, 
                            "type": "note", 
                            "channel": 1
                        }, 
                        {
                            "pitch": 72, 
                            "t0": 41280, 
                            "v": 90, 
                            "dur": 240, 
                            "type": "note", 
                            "channel": 1
                        }
                    ]
                ], 
                [
                    41520, 
                    [
                        {
                            "pitch": 79, 
                            "t0": 41520, 
                            "v": 90, 
                            "dur": 480, 
                            "type": "note", 
                            "channel": 1
                        }, 
                        {
                            "pitch": 75, 
                            "t0": 41520, 
                            "v": 90, 
                            "dur": 480, 
                            "type": "note", 
                            "channel": 1
                        }
                    ]
                ], 
                [
                    42000, 
                    [
                        {
                            "pitch": 75, 
                            "t0": 42000, 
                            "v": 90, 
                            "dur": 240, 
                            "type": "note", 
                            "channel": 1
                        }, 
                        {
                            "pitch": 72, 
                            "t0": 42000, 
                            "v": 90, 
                            "dur": 240, 
                            "type": "note", 
                            "channel": 1
                        }
                    ]
                ], 
                [
                    42480, 
                    [
                        {
                            "pitch": 65, 
                            "t0": 42480, 
                            "v": 90, 
                            "dur": 240, 
                            "type": "note", 
                            "channel": 1
                        }
                    ]
                ], 
                [
                    42720, 
                    [
                        {
                            "pitch": 74, 
                            "t0": 42720, 
                            "v": 90, 
                            "dur": 480, 
                            "type": "note", 
                            "channel": 1
                        }, 
                        {
                            "pitch": 65, 
                            "t0": 42720, 
                            "v": 90, 
                            "dur": 480, 
                            "type": "note", 
                            "channel": 1
                        }, 
                        {
                            "pitch": 70, 
                            "t0": 42720, 
                            "v": 90, 
                            "dur": 480, 
                            "type": "note", 
                            "channel": 1
                        }
                    ]
                ], 
                [
                    43440, 
                    [
                        {
                            "pitch": 72, 
                            "t0": 43440, 
                            "v": 90, 
                            "dur": 240, 
                            "type": "note", 
                            "channel": 1
                        }, 
                        {
                            "pitch": 65, 
                            "t0": 43440, 
                            "v": 90, 
                            "dur": 240, 
                            "type": "note", 
                            "channel": 1
                        }, 
                        {
                            "pitch": 69, 
                            "t0": 43440, 
                            "v": 90, 
                            "dur": 240, 
                            "type": "note", 
                            "channel": 1
                        }
                    ]
                ], 
                [
                    44400, 
                    [
                        {
                            "pitch": 74, 
                            "t0": 44400, 
                            "v": 90, 
                            "dur": 240, 
                            "type": "note", 
                            "channel": 1
                        }
                    ]
                ], 
                [
                    44640, 
                    [
                        {
                            "pitch": 79, 
                            "t0": 44640, 
                            "v": 90, 
                            "dur": 480, 
                            "type": "note", 
                            "channel": 1
                        }, 
                        {
                            "pitch": 71, 
                            "t0": 44640, 
                            "v": 90, 
                            "dur": 480, 
                            "type": "note", 
                            "channel": 1
                        }, 
                        {
                            "pitch": 74, 
                            "t0": 44640, 
                            "v": 90, 
                            "dur": 480, 
                            "type": "note", 
                            "channel": 1
                        }
                    ]
                ], 
                [
                    45120, 
                    [
                        {
                            "pitch": 74, 
                            "t0": 45120, 
                            "v": 90, 
                            "dur": 240, 
                            "type": "note", 
                            "channel": 1
                        }
                    ]
                ], 
                [
                    45360, 
                    [
                        {
                            "pitch": 79, 
                            "t0": 45360, 
                            "v": 90, 
                            "dur": 480, 
                            "type": "note", 
                            "channel": 1
                        }, 
                        {
                            "pitch": 71, 
                            "t0": 45360, 
                            "v": 90, 
                            "dur": 480, 
                            "type": "note", 
                            "channel": 1
                        }, 
                        {
                            "pitch": 74, 
                            "t0": 45360, 
                            "v": 90, 
                            "dur": 480, 
                            "type": "note", 
                            "channel": 1
                        }
                    ]
                ], 
                [
                    45840, 
                    [
                        {
                            "pitch": 74, 
                            "t0": 45840, 
                            "v": 90, 
                            "dur": 240, 
                            "type": "note", 
                            "channel": 1
                        }
                    ]
                ], 
                [
                    46560, 
                    [
                        {
                            "pitch": 79, 
                            "t0": 46560, 
                            "v": 90, 
                            "dur": 480, 
                            "type": "note", 
                            "channel": 1
                        }, 
                        {
                            "pitch": 71, 
                            "t0": 46560, 
                            "v": 90, 
                            "dur": 480, 
                            "type": "note", 
                            "channel": 1
                        }, 
                        {
                            "pitch": 74, 
                            "t0": 46560, 
                            "v": 90, 
                            "dur": 480, 
                            "type": "note", 
                            "channel": 1
                        }
                    ]
                ], 
                [
                    47040, 
                    [
                        {
                            "pitch": 79, 
                            "t0": 47040, 
                            "v": 90, 
                            "dur": 960, 
                            "type": "note", 
                            "channel": 1
                        }, 
                        {
                            "pitch": 71, 
                            "t0": 47040, 
                            "v": 90, 
                            "dur": 960, 
                            "type": "note", 
                            "channel": 1
                        }, 
                        {
                            "pitch": 74, 
                            "t0": 47040, 
                            "v": 90, 
                            "dur": 960, 
                            "type": "note", 
                            "channel": 1
                        }
                    ]
                ], 
                [
                    48480, 
                    [
                        {
                            "pitch": 67, 
                            "t0": 48480, 
                            "v": 90, 
                            "dur": 240, 
                            "type": "note", 
                            "channel": 1
                        }, 
                        {
                            "pitch": 59, 
                            "t0": 48480, 
                            "v": 90, 
                            "dur": 240, 
                            "type": "note", 
                            "channel": 1
                        }, 
                        {
                            "pitch": 62, 
                            "t0": 48480, 
                            "v": 90, 
                            "dur": 240, 
                            "type": "note", 
                            "channel": 1
                        }
                    ]
                ], 
                [
                    49680, 
                    [
                        {
                            "pitch": 67, 
                            "t0": 49680, 
                            "v": 90, 
                            "dur": 240, 
                            "type": "note", 
                            "channel": 1
                        }, 
                        {
                            "pitch": 59, 
                            "t0": 49680, 
                            "v": 90, 
                            "dur": 240, 
                            "type": "note", 
                            "channel": 1
                        }, 
                        {
                            "pitch": 62, 
                            "t0": 49680, 
                            "v": 90, 
                            "dur": 240, 
                            "type": "note", 
                            "channel": 1
                        }
                    ]
                ], 
                [
                    50400, 
                    [
                        {
                            "pitch": 65, 
                            "t0": 50400, 
                            "v": 90, 
                            "dur": 240, 
                            "type": "note", 
                            "channel": 1
                        }, 
                        {
                            "pitch": 57, 
                            "t0": 50400, 
                            "v": 90, 
                            "dur": 240, 
                            "type": "note", 
                            "channel": 1
                        }, 
                        {
                            "pitch": 60, 
                            "t0": 50400, 
                            "v": 90, 
                            "dur": 240, 
                            "type": "note", 
                            "channel": 1
                        }
                    ]
                ], 
                [
                    51120, 
                    [
                        {
                            "pitch": 64, 
                            "t0": 51120, 
                            "v": 90, 
                            "dur": 240, 
                            "type": "note", 
                            "channel": 1
                        }, 
                        {
                            "pitch": 55, 
                            "t0": 51120, 
                            "v": 90, 
                            "dur": 240, 
                            "type": "note", 
                            "channel": 1
                        }, 
                        {
                            "pitch": 60, 
                            "t0": 51120, 
                            "v": 90, 
                            "dur": 240, 
                            "type": "note", 
                            "channel": 1
                        }
                    ]
                ], 
                [
                    52320, 
                    [
                        {
                            "pitch": 67, 
                            "t0": 52320, 
                            "v": 90, 
                            "dur": 240, 
                            "type": "note", 
                            "channel": 1
                        }, 
                        {
                            "pitch": 59, 
                            "t0": 52320, 
                            "v": 90, 
                            "dur": 240, 
                            "type": "note", 
                            "channel": 1
                        }, 
                        {
                            "pitch": 62, 
                            "t0": 52320, 
                            "v": 90, 
                            "dur": 240, 
                            "type": "note", 
                            "channel": 1
                        }
                    ]
                ], 
                [
                    53520, 
                    [
                        {
                            "pitch": 67, 
                            "t0": 53520, 
                            "v": 90, 
                            "dur": 240, 
                            "type": "note", 
                            "channel": 1
                        }, 
                        {
                            "pitch": 59, 
                            "t0": 53520, 
                            "v": 90, 
                            "dur": 240, 
                            "type": "note", 
                            "channel": 1
                        }, 
                        {
                            "pitch": 62, 
                            "t0": 53520, 
                            "v": 90, 
                            "dur": 240, 
                            "type": "note", 
                            "channel": 1
                        }
                    ]
                ], 
                [
                    54240, 
                    [
                        {
                            "pitch": 65, 
                            "t0": 54240, 
                            "v": 90, 
                            "dur": 240, 
                            "type": "note", 
                            "channel": 1
                        }, 
                        {
                            "pitch": 57, 
                            "t0": 54240, 
                            "v": 90, 
                            "dur": 240, 
                            "type": "note", 
                            "channel": 1
                        }, 
                        {
                            "pitch": 60, 
                            "t0": 54240, 
                            "v": 90, 
                            "dur": 240, 
                            "type": "note", 
                            "channel": 1
                        }
                    ]
                ], 
                [
                    54960, 
                    [
                        {
                            "pitch": 64, 
                            "t0": 54960, 
                            "v": 90, 
                            "dur": 240, 
                            "type": "note", 
                            "channel": 1
                        }, 
                        {
                            "pitch": 55, 
                            "t0": 54960, 
                            "v": 90, 
                            "dur": 240, 
                            "type": "note", 
                            "channel": 1
                        }, 
                        {
                            "pitch": 60, 
                            "t0": 54960, 
                            "v": 90, 
                            "dur": 240, 
                            "type": "note", 
                            "channel": 1
                        }
                    ]
                ], 
                [
                    56160, 
                    [
                        {
                            "pitch": 67, 
                            "t0": 56160, 
                            "v": 90, 
                            "dur": 240, 
                            "type": "note", 
                            "channel": 1
                        }, 
                        {
                            "pitch": 59, 
                            "t0": 56160, 
                            "v": 90, 
                            "dur": 240, 
                            "type": "note", 
                            "channel": 1
                        }, 
                        {
                            "pitch": 62, 
                            "t0": 56160, 
                            "v": 90, 
                            "dur": 240, 
                            "type": "note", 
                            "channel": 1
                        }
                    ]
                ], 
                [
                    57360, 
                    [
                        {
                            "pitch": 67, 
                            "t0": 57360, 
                            "v": 90, 
                            "dur": 240, 
                            "type": "note", 
                            "channel": 1
                        }, 
                        {
                            "pitch": 59, 
                            "t0": 57360, 
                            "v": 90, 
                            "dur": 240, 
                            "type": "note", 
                            "channel": 1
                        }, 
                        {
                            "pitch": 62, 
                            "t0": 57360, 
                            "v": 90, 
                            "dur": 240, 
                            "type": "note", 
                            "channel": 1
                        }
                    ]
                ], 
                [
                    58080, 
                    [
                        {
                            "pitch": 65, 
                            "t0": 58080, 
                            "v": 90, 
                            "dur": 240, 
                            "type": "note", 
                            "channel": 1
                        }, 
                        {
                            "pitch": 57, 
                            "t0": 58080, 
                            "v": 90, 
                            "dur": 240, 
                            "type": "note", 
                            "channel": 1
                        }, 
                        {
                            "pitch": 60, 
                            "t0": 58080, 
                            "v": 90, 
                            "dur": 240, 
                            "type": "note", 
                            "channel": 1
                        }
                    ]
                ], 
                [
                    58800, 
                    [
                        {
                            "pitch": 64, 
                            "t0": 58800, 
                            "v": 90, 
                            "dur": 240, 
                            "type": "note", 
                            "channel": 1
                        }, 
                        {
                            "pitch": 55, 
                            "t0": 58800, 
                            "v": 90, 
                            "dur": 240, 
                            "type": "note", 
                            "channel": 1
                        }, 
                        {
                            "pitch": 60, 
                            "t0": 58800, 
                            "v": 90, 
                            "dur": 240, 
                            "type": "note", 
                            "channel": 1
                        }
                    ]
                ], 
                [
                    60000, 
                    [
                        {
                            "pitch": 67, 
                            "t0": 60000, 
                            "v": 90, 
                            "dur": 240, 
                            "type": "note", 
                            "channel": 1
                        }, 
                        {
                            "pitch": 59, 
                            "t0": 60000, 
                            "v": 90, 
                            "dur": 240, 
                            "type": "note", 
                            "channel": 1
                        }, 
                        {
                            "pitch": 62, 
                            "t0": 60000, 
                            "v": 90, 
                            "dur": 240, 
                            "type": "note", 
                            "channel": 1
                        }
                    ]
                ], 
                [
                    61200, 
                    [
                        {
                            "pitch": 67, 
                            "t0": 61200, 
                            "v": 90, 
                            "dur": 240, 
                            "type": "note", 
                            "channel": 1
                        }, 
                        {
                            "pitch": 59, 
                            "t0": 61200, 
                            "v": 90, 
                            "dur": 240, 
                            "type": "note", 
                            "channel": 1
                        }, 
                        {
                            "pitch": 62, 
                            "t0": 61200, 
                            "v": 90, 
                            "dur": 240, 
                            "type": "note", 
                            "channel": 1
                        }
                    ]
                ], 
                [
                    61920, 
                    [
                        {
                            "pitch": 65, 
                            "t0": 61920, 
                            "v": 90, 
                            "dur": 240, 
                            "type": "note", 
                            "channel": 1
                        }, 
                        {
                            "pitch": 57, 
                            "t0": 61920, 
                            "v": 90, 
                            "dur": 240, 
                            "type": "note", 
                            "channel": 1
                        }, 
                        {
                            "pitch": 60, 
                            "t0": 61920, 
                            "v": 90, 
                            "dur": 240, 
                            "type": "note", 
                            "channel": 1
                        }
                    ]
                ], 
                [
                    62640, 
                    [
                        {
                            "pitch": 64, 
                            "t0": 62640, 
                            "v": 90, 
                            "dur": 240, 
                            "type": "note", 
                            "channel": 1
                        }, 
                        {
                            "pitch": 55, 
                            "t0": 62640, 
                            "v": 90, 
                            "dur": 240, 
                            "type": "note", 
                            "channel": 1
                        }, 
                        {
                            "pitch": 60, 
                            "t0": 62640, 
                            "v": 90, 
                            "dur": 240, 
                            "type": "note", 
                            "channel": 1
                        }
                    ]
                ], 
                [
                    63840, 
                    [
                        {
                            "pitch": 67, 
                            "t0": 63840, 
                            "v": 90, 
                            "dur": 240, 
                            "type": "note", 
                            "channel": 1
                        }, 
                        {
                            "pitch": 59, 
                            "t0": 63840, 
                            "v": 90, 
                            "dur": 240, 
                            "type": "note", 
                            "channel": 1
                        }, 
                        {
                            "pitch": 62, 
                            "t0": 63840, 
                            "v": 90, 
                            "dur": 240, 
                            "type": "note", 
                            "channel": 1
                        }
                    ]
                ], 
                [
                    65040, 
                    [
                        {
                            "pitch": 67, 
                            "t0": 65040, 
                            "v": 90, 
                            "dur": 240, 
                            "type": "note", 
                            "channel": 1
                        }, 
                        {
                            "pitch": 59, 
                            "t0": 65040, 
                            "v": 90, 
                            "dur": 240, 
                            "type": "note", 
                            "channel": 1
                        }, 
                        {
                            "pitch": 62, 
                            "t0": 65040, 
                            "v": 90, 
                            "dur": 240, 
                            "type": "note", 
                            "channel": 1
                        }
                    ]
                ], 
                [
                    65760, 
                    [
                        {
                            "pitch": 65, 
                            "t0": 65760, 
                            "v": 90, 
                            "dur": 240, 
                            "type": "note", 
                            "channel": 1
                        }, 
                        {
                            "pitch": 57, 
                            "t0": 65760, 
                            "v": 90, 
                            "dur": 240, 
                            "type": "note", 
                            "channel": 1
                        }, 
                        {
                            "pitch": 60, 
                            "t0": 65760, 
                            "v": 90, 
                            "dur": 240, 
                            "type": "note", 
                            "channel": 1
                        }
                    ]
                ], 
                [
                    66480, 
                    [
                        {
                            "pitch": 64, 
                            "t0": 66480, 
                            "v": 90, 
                            "dur": 240, 
                            "type": "note", 
                            "channel": 1
                        }, 
                        {
                            "pitch": 55, 
                            "t0": 66480, 
                            "v": 90, 
                            "dur": 240, 
                            "type": "note", 
                            "channel": 1
                        }, 
                        {
                            "pitch": 60, 
                            "t0": 66480, 
                            "v": 90, 
                            "dur": 240, 
                            "type": "note", 
                            "channel": 1
                        }
                    ]
                ], 
                [
                    67680, 
                    [
                        {
                            "pitch": 67, 
                            "t0": 67680, 
                            "v": 90, 
                            "dur": 240, 
                            "type": "note", 
                            "channel": 1
                        }, 
                        {
                            "pitch": 59, 
                            "t0": 67680, 
                            "v": 90, 
                            "dur": 240, 
                            "type": "note", 
                            "channel": 1
                        }, 
                        {
                            "pitch": 62, 
                            "t0": 67680, 
                            "v": 90, 
                            "dur": 240, 
                            "type": "note", 
                            "channel": 1
                        }
                    ]
                ], 
                [
                    68880, 
                    [
                        {
                            "pitch": 67, 
                            "t0": 68880, 
                            "v": 90, 
                            "dur": 240, 
                            "type": "note", 
                            "channel": 1
                        }, 
                        {
                            "pitch": 59, 
                            "t0": 68880, 
                            "v": 90, 
                            "dur": 240, 
                            "type": "note", 
                            "channel": 1
                        }, 
                        {
                            "pitch": 62, 
                            "t0": 68880, 
                            "v": 90, 
                            "dur": 240, 
                            "type": "note", 
                            "channel": 1
                        }
                    ]
                ], 
                [
                    69600, 
                    [
                        {
                            "pitch": 65, 
                            "t0": 69600, 
                            "v": 90, 
                            "dur": 240, 
                            "type": "note", 
                            "channel": 1
                        }, 
                        {
                            "pitch": 57, 
                            "t0": 69600, 
                            "v": 90, 
                            "dur": 240, 
                            "type": "note", 
                            "channel": 1
                        }, 
                        {
                            "pitch": 60, 
                            "t0": 69600, 
                            "v": 90, 
                            "dur": 240, 
                            "type": "note", 
                            "channel": 1
                        }
                    ]
                ], 
                [
                    70320, 
                    [
                        {
                            "pitch": 64, 
                            "t0": 70320, 
                            "v": 90, 
                            "dur": 240, 
                            "type": "note", 
                            "channel": 1
                        }, 
                        {
                            "pitch": 55, 
                            "t0": 70320, 
                            "v": 90, 
                            "dur": 240, 
                            "type": "note", 
                            "channel": 1
                        }, 
                        {
                            "pitch": 60, 
                            "t0": 70320, 
                            "v": 90, 
                            "dur": 240, 
                            "type": "note", 
                            "channel": 1
                        }
                    ]
                ], 
                [
                    70560, 
                    [
                        {
                            "pitch": 67, 
                            "t0": 70560, 
                            "v": 90, 
                            "dur": 240, 
                            "type": "note", 
                            "channel": 1
                        }, 
                        {
                            "pitch": 62, 
                            "t0": 70560, 
                            "v": 90, 
                            "dur": 240, 
                            "type": "note", 
                            "channel": 1
                        }
                    ]
                ], 
                [
                    70800, 
                    [
                        {
                            "pitch": 67, 
                            "t0": 70800, 
                            "v": 90, 
                            "dur": 240, 
                            "type": "note", 
                            "channel": 1
                        }, 
                        {
                            "pitch": 62, 
                            "t0": 70800, 
                            "v": 90, 
                            "dur": 240, 
                            "type": "note", 
                            "channel": 1
                        }
                    ]
                ], 
                [
                    71520, 
                    [
                        {
                            "pitch": 67, 
                            "t0": 71520, 
                            "v": 90, 
                            "dur": 240, 
                            "type": "note", 
                            "channel": 1
                        }, 
                        {
                            "pitch": 59, 
                            "t0": 71520, 
                            "v": 90, 
                            "dur": 240, 
                            "type": "note", 
                            "channel": 1
                        }, 
                        {
                            "pitch": 62, 
                            "t0": 71520, 
                            "v": 90, 
                            "dur": 240, 
                            "type": "note", 
                            "channel": 1
                        }
                    ]
                ], 
                [
                    72720, 
                    [
                        {
                            "pitch": 67, 
                            "t0": 72720, 
                            "v": 90, 
                            "dur": 240, 
                            "type": "note", 
                            "channel": 1
                        }, 
                        {
                            "pitch": 59, 
                            "t0": 72720, 
                            "v": 90, 
                            "dur": 240, 
                            "type": "note", 
                            "channel": 1
                        }, 
                        {
                            "pitch": 62, 
                            "t0": 72720, 
                            "v": 90, 
                            "dur": 240, 
                            "type": "note", 
                            "channel": 1
                        }
                    ]
                ], 
                [
                    73440, 
                    [
                        {
                            "pitch": 65, 
                            "t0": 73440, 
                            "v": 90, 
                            "dur": 240, 
                            "type": "note", 
                            "channel": 1
                        }, 
                        {
                            "pitch": 57, 
                            "t0": 73440, 
                            "v": 90, 
                            "dur": 240, 
                            "type": "note", 
                            "channel": 1
                        }, 
                        {
                            "pitch": 60, 
                            "t0": 73440, 
                            "v": 90, 
                            "dur": 240, 
                            "type": "note", 
                            "channel": 1
                        }
                    ]
                ], 
                [
                    74160, 
                    [
                        {
                            "pitch": 64, 
                            "t0": 74160, 
                            "v": 90, 
                            "dur": 240, 
                            "type": "note", 
                            "channel": 1
                        }, 
                        {
                            "pitch": 55, 
                            "t0": 74160, 
                            "v": 90, 
                            "dur": 240, 
                            "type": "note", 
                            "channel": 1
                        }, 
                        {
                            "pitch": 60, 
                            "t0": 74160, 
                            "v": 90, 
                            "dur": 240, 
                            "type": "note", 
                            "channel": 1
                        }
                    ]
                ], 
                [
                    75360, 
                    [
                        {
                            "pitch": 67, 
                            "t0": 75360, 
                            "v": 90, 
                            "dur": 240, 
                            "type": "note", 
                            "channel": 1
                        }, 
                        {
                            "pitch": 59, 
                            "t0": 75360, 
                            "v": 90, 
                            "dur": 240, 
                            "type": "note", 
                            "channel": 1
                        }, 
                        {
                            "pitch": 62, 
                            "t0": 75360, 
                            "v": 90, 
                            "dur": 240, 
                            "type": "note", 
                            "channel": 1
                        }
                    ]
                ], 
                [
                    76560, 
                    [
                        {
                            "pitch": 67, 
                            "t0": 76560, 
                            "v": 90, 
                            "dur": 240, 
                            "type": "note", 
                            "channel": 1
                        }, 
                        {
                            "pitch": 59, 
                            "t0": 76560, 
                            "v": 90, 
                            "dur": 240, 
                            "type": "note", 
                            "channel": 1
                        }, 
                        {
                            "pitch": 62, 
                            "t0": 76560, 
                            "v": 90, 
                            "dur": 240, 
                            "type": "note", 
                            "channel": 1
                        }
                    ]
                ], 
                [
                    77280, 
                    [
                        {
                            "pitch": 65, 
                            "t0": 77280, 
                            "v": 90, 
                            "dur": 240, 
                            "type": "note", 
                            "channel": 1
                        }, 
                        {
                            "pitch": 57, 
                            "t0": 77280, 
                            "v": 90, 
                            "dur": 240, 
                            "type": "note", 
                            "channel": 1
                        }, 
                        {
                            "pitch": 60, 
                            "t0": 77280, 
                            "v": 90, 
                            "dur": 240, 
                            "type": "note", 
                            "channel": 1
                        }
                    ]
                ], 
                [
                    78000, 
                    [
                        {
                            "pitch": 64, 
                            "t0": 78000, 
                            "v": 90, 
                            "dur": 240, 
                            "type": "note", 
                            "channel": 1
                        }, 
                        {
                            "pitch": 55, 
                            "t0": 78000, 
                            "v": 90, 
                            "dur": 240, 
                            "type": "note", 
                            "channel": 1
                        }, 
                        {
                            "pitch": 60, 
                            "t0": 78000, 
                            "v": 90, 
                            "dur": 240, 
                            "type": "note", 
                            "channel": 1
                        }
                    ]
                ], 
                [
                    78960, 
                    [
                        {
                            "pitch": 72, 
                            "t0": 78960, 
                            "v": 90, 
                            "dur": 240, 
                            "type": "note", 
                            "channel": 1
                        }
                    ]
                ], 
                [
                    79200, 
                    [
                        {
                            "pitch": 75, 
                            "t0": 79200, 
                            "v": 90, 
                            "dur": 480, 
                            "type": "note", 
                            "channel": 1
                        }, 
                        {
                            "pitch": 67, 
                            "t0": 79200, 
                            "v": 90, 
                            "dur": 480, 
                            "type": "note", 
                            "channel": 1
                        }, 
                        {
                            "pitch": 72, 
                            "t0": 79200, 
                            "v": 90, 
                            "dur": 480, 
                            "type": "note", 
                            "channel": 1
                        }
                    ]
                ], 
                [
                    79680, 
                    [
                        {
                            "pitch": 72, 
                            "t0": 79680, 
                            "v": 90, 
                            "dur": 240, 
                            "type": "note", 
                            "channel": 1
                        }
                    ]
                ], 
                [
                    79920, 
                    [
                        {
                            "pitch": 75, 
                            "t0": 79920, 
                            "v": 90, 
                            "dur": 480, 
                            "type": "note", 
                            "channel": 1
                        }, 
                        {
                            "pitch": 67, 
                            "t0": 79920, 
                            "v": 90, 
                            "dur": 480, 
                            "type": "note", 
                            "channel": 1
                        }, 
                        {
                            "pitch": 72, 
                            "t0": 79920, 
                            "v": 90, 
                            "dur": 480, 
                            "type": "note", 
                            "channel": 1
                        }
                    ]
                ], 
                [
                    80400, 
                    [
                        {
                            "pitch": 72, 
                            "t0": 80400, 
                            "v": 90, 
                            "dur": 240, 
                            "type": "note", 
                            "channel": 1
                        }
                    ]
                ], 
                [
                    80880, 
                    [
                        {
                            "pitch": 65, 
                            "t0": 80880, 
                            "v": 90, 
                            "dur": 240, 
                            "type": "note", 
                            "channel": 1
                        }
                    ]
                ], 
                [
                    81120, 
                    [
                        {
                            "pitch": 74, 
                            "t0": 81120, 
                            "v": 90, 
                            "dur": 480, 
                            "type": "note", 
                            "channel": 1
                        }, 
                        {
                            "pitch": 65, 
                            "t0": 81120, 
                            "v": 90, 
                            "dur": 480, 
                            "type": "note", 
                            "channel": 1
                        }, 
                        {
                            "pitch": 70, 
                            "t0": 81120, 
                            "v": 90, 
                            "dur": 480, 
                            "type": "note", 
                            "channel": 1
                        }
                    ]
                ], 
                [
                    81840, 
                    [
                        {
                            "pitch": 72, 
                            "t0": 81840, 
                            "v": 90, 
                            "dur": 240, 
                            "type": "note", 
                            "channel": 1
                        }, 
                        {
                            "pitch": 65, 
                            "t0": 81840, 
                            "v": 90, 
                            "dur": 240, 
                            "type": "note", 
                            "channel": 1
                        }, 
                        {
                            "pitch": 69, 
                            "t0": 81840, 
                            "v": 90, 
                            "dur": 240, 
                            "type": "note", 
                            "channel": 1
                        }
                    ]
                ], 
                [
                    82800, 
                    [
                        {
                            "pitch": 75, 
                            "t0": 82800, 
                            "v": 90, 
                            "dur": 240, 
                            "type": "note", 
                            "channel": 1
                        }, 
                        {
                            "pitch": 72, 
                            "t0": 82800, 
                            "v": 90, 
                            "dur": 240, 
                            "type": "note", 
                            "channel": 1
                        }
                    ]
                ], 
                [
                    83040, 
                    [
                        {
                            "pitch": 79, 
                            "t0": 83040, 
                            "v": 90, 
                            "dur": 480, 
                            "type": "note", 
                            "channel": 1
                        }, 
                        {
                            "pitch": 75, 
                            "t0": 83040, 
                            "v": 90, 
                            "dur": 480, 
                            "type": "note", 
                            "channel": 1
                        }
                    ]
                ], 
                [
                    83520, 
                    [
                        {
                            "pitch": 75, 
                            "t0": 83520, 
                            "v": 90, 
                            "dur": 240, 
                            "type": "note", 
                            "channel": 1
                        }, 
                        {
                            "pitch": 72, 
                            "t0": 83520, 
                            "v": 90, 
                            "dur": 240, 
                            "type": "note", 
                            "channel": 1
                        }
                    ]
                ], 
                [
                    83760, 
                    [
                        {
                            "pitch": 79, 
                            "t0": 83760, 
                            "v": 90, 
                            "dur": 480, 
                            "type": "note", 
                            "channel": 1
                        }, 
                        {
                            "pitch": 75, 
                            "t0": 83760, 
                            "v": 90, 
                            "dur": 480, 
                            "type": "note", 
                            "channel": 1
                        }
                    ]
                ], 
                [
                    84240, 
                    [
                        {
                            "pitch": 75, 
                            "t0": 84240, 
                            "v": 90, 
                            "dur": 240, 
                            "type": "note", 
                            "channel": 1
                        }, 
                        {
                            "pitch": 72, 
                            "t0": 84240, 
                            "v": 90, 
                            "dur": 240, 
                            "type": "note", 
                            "channel": 1
                        }
                    ]
                ], 
                [
                    84720, 
                    [
                        {
                            "pitch": 65, 
                            "t0": 84720, 
                            "v": 90, 
                            "dur": 240, 
                            "type": "note", 
                            "channel": 1
                        }
                    ]
                ], 
                [
                    84960, 
                    [
                        {
                            "pitch": 74, 
                            "t0": 84960, 
                            "v": 90, 
                            "dur": 480, 
                            "type": "note", 
                            "channel": 1
                        }, 
                        {
                            "pitch": 65, 
                            "t0": 84960, 
                            "v": 90, 
                            "dur": 480, 
                            "type": "note", 
                            "channel": 1
                        }, 
                        {
                            "pitch": 70, 
                            "t0": 84960, 
                            "v": 90, 
                            "dur": 480, 
                            "type": "note", 
                            "channel": 1
                        }
                    ]
                ], 
                [
                    85680, 
                    [
                        {
                            "pitch": 72, 
                            "t0": 85680, 
                            "v": 90, 
                            "dur": 240, 
                            "type": "note", 
                            "channel": 1
                        }, 
                        {
                            "pitch": 65, 
                            "t0": 85680, 
                            "v": 90, 
                            "dur": 240, 
                            "type": "note", 
                            "channel": 1
                        }, 
                        {
                            "pitch": 69, 
                            "t0": 85680, 
                            "v": 90, 
                            "dur": 240, 
                            "type": "note", 
                            "channel": 1
                        }
                    ]
                ], 
                [
                    86640, 
                    [
                        {
                            "pitch": 72, 
                            "t0": 86640, 
                            "v": 90, 
                            "dur": 240, 
                            "type": "note", 
                            "channel": 1
                        }
                    ]
                ], 
                [
                    86880, 
                    [
                        {
                            "pitch": 75, 
                            "t0": 86880, 
                            "v": 90, 
                            "dur": 480, 
                            "type": "note", 
                            "channel": 1
                        }, 
                        {
                            "pitch": 67, 
                            "t0": 86880, 
                            "v": 90, 
                            "dur": 480, 
                            "type": "note", 
                            "channel": 1
                        }, 
                        {
                            "pitch": 72, 
                            "t0": 86880, 
                            "v": 90, 
                            "dur": 480, 
                            "type": "note", 
                            "channel": 1
                        }
                    ]
                ], 
                [
                    87360, 
                    [
                        {
                            "pitch": 72, 
                            "t0": 87360, 
                            "v": 90, 
                            "dur": 240, 
                            "type": "note", 
                            "channel": 1
                        }
                    ]
                ], 
                [
                    87600, 
                    [
                        {
                            "pitch": 75, 
                            "t0": 87600, 
                            "v": 90, 
                            "dur": 480, 
                            "type": "note", 
                            "channel": 1
                        }, 
                        {
                            "pitch": 67, 
                            "t0": 87600, 
                            "v": 90, 
                            "dur": 480, 
                            "type": "note", 
                            "channel": 1
                        }, 
                        {
                            "pitch": 72, 
                            "t0": 87600, 
                            "v": 90, 
                            "dur": 480, 
                            "type": "note", 
                            "channel": 1
                        }
                    ]
                ], 
                [
                    88080, 
                    [
                        {
                            "pitch": 72, 
                            "t0": 88080, 
                            "v": 90, 
                            "dur": 240, 
                            "type": "note", 
                            "channel": 1
                        }
                    ]
                ], 
                [
                    88560, 
                    [
                        {
                            "pitch": 65, 
                            "t0": 88560, 
                            "v": 90, 
                            "dur": 240, 
                            "type": "note", 
                            "channel": 1
                        }
                    ]
                ], 
                [
                    88800, 
                    [
                        {
                            "pitch": 74, 
                            "t0": 88800, 
                            "v": 90, 
                            "dur": 480, 
                            "type": "note", 
                            "channel": 1
                        }, 
                        {
                            "pitch": 65, 
                            "t0": 88800, 
                            "v": 90, 
                            "dur": 480, 
                            "type": "note", 
                            "channel": 1
                        }, 
                        {
                            "pitch": 70, 
                            "t0": 88800, 
                            "v": 90, 
                            "dur": 480, 
                            "type": "note", 
                            "channel": 1
                        }
                    ]
                ], 
                [
                    89520, 
                    [
                        {
                            "pitch": 72, 
                            "t0": 89520, 
                            "v": 90, 
                            "dur": 240, 
                            "type": "note", 
                            "channel": 1
                        }, 
                        {
                            "pitch": 65, 
                            "t0": 89520, 
                            "v": 90, 
                            "dur": 240, 
                            "type": "note", 
                            "channel": 1
                        }, 
                        {
                            "pitch": 69, 
                            "t0": 89520, 
                            "v": 90, 
                            "dur": 240, 
                            "type": "note", 
                            "channel": 1
                        }
                    ]
                ], 
                [
                    90480, 
                    [
                        {
                            "pitch": 75, 
                            "t0": 90480, 
                            "v": 90, 
                            "dur": 240, 
                            "type": "note", 
                            "channel": 1
                        }, 
                        {
                            "pitch": 72, 
                            "t0": 90480, 
                            "v": 90, 
                            "dur": 240, 
                            "type": "note", 
                            "channel": 1
                        }
                    ]
                ], 
                [
                    90720, 
                    [
                        {
                            "pitch": 79, 
                            "t0": 90720, 
                            "v": 90, 
                            "dur": 480, 
                            "type": "note", 
                            "channel": 1
                        }, 
                        {
                            "pitch": 75, 
                            "t0": 90720, 
                            "v": 90, 
                            "dur": 480, 
                            "type": "note", 
                            "channel": 1
                        }
                    ]
                ], 
                [
                    91200, 
                    [
                        {
                            "pitch": 75, 
                            "t0": 91200, 
                            "v": 90, 
                            "dur": 240, 
                            "type": "note", 
                            "channel": 1
                        }, 
                        {
                            "pitch": 72, 
                            "t0": 91200, 
                            "v": 90, 
                            "dur": 240, 
                            "type": "note", 
                            "channel": 1
                        }
                    ]
                ], 
                [
                    91440, 
                    [
                        {
                            "pitch": 79, 
                            "t0": 91440, 
                            "v": 90, 
                            "dur": 480, 
                            "type": "note", 
                            "channel": 1
                        }, 
                        {
                            "pitch": 75, 
                            "t0": 91440, 
                            "v": 90, 
                            "dur": 480, 
                            "type": "note", 
                            "channel": 1
                        }
                    ]
                ], 
                [
                    91920, 
                    [
                        {
                            "pitch": 75, 
                            "t0": 91920, 
                            "v": 90, 
                            "dur": 240, 
                            "type": "note", 
                            "channel": 1
                        }, 
                        {
                            "pitch": 72, 
                            "t0": 91920, 
                            "v": 90, 
                            "dur": 240, 
                            "type": "note", 
                            "channel": 1
                        }
                    ]
                ], 
                [
                    92400, 
                    [
                        {
                            "pitch": 65, 
                            "t0": 92400, 
                            "v": 90, 
                            "dur": 240, 
                            "type": "note", 
                            "channel": 1
                        }
                    ]
                ], 
                [
                    92640, 
                    [
                        {
                            "pitch": 74, 
                            "t0": 92640, 
                            "v": 90, 
                            "dur": 480, 
                            "type": "note", 
                            "channel": 1
                        }, 
                        {
                            "pitch": 65, 
                            "t0": 92640, 
                            "v": 90, 
                            "dur": 480, 
                            "type": "note", 
                            "channel": 1
                        }, 
                        {
                            "pitch": 70, 
                            "t0": 92640, 
                            "v": 90, 
                            "dur": 480, 
                            "type": "note", 
                            "channel": 1
                        }
                    ]
                ], 
                [
                    93360, 
                    [
                        {
                            "pitch": 72, 
                            "t0": 93360, 
                            "v": 90, 
                            "dur": 240, 
                            "type": "note", 
                            "channel": 1
                        }, 
                        {
                            "pitch": 65, 
                            "t0": 93360, 
                            "v": 90, 
                            "dur": 240, 
                            "type": "note", 
                            "channel": 1
                        }, 
                        {
                            "pitch": 69, 
                            "t0": 93360, 
                            "v": 90, 
                            "dur": 240, 
                            "type": "note", 
                            "channel": 1
                        }
                    ]
                ], 
                [
                    94320, 
                    [
                        {
                            "pitch": 74, 
                            "t0": 94320, 
                            "v": 90, 
                            "dur": 240, 
                            "type": "note", 
                            "channel": 1
                        }
                    ]
                ], 
                [
                    94560, 
                    [
                        {
                            "pitch": 79, 
                            "t0": 94560, 
                            "v": 90, 
                            "dur": 480, 
                            "type": "note", 
                            "channel": 1
                        }, 
                        {
                            "pitch": 71, 
                            "t0": 94560, 
                            "v": 90, 
                            "dur": 480, 
                            "type": "note", 
                            "channel": 1
                        }, 
                        {
                            "pitch": 74, 
                            "t0": 94560, 
                            "v": 90, 
                            "dur": 480, 
                            "type": "note", 
                            "channel": 1
                        }
                    ]
                ], 
                [
                    95040, 
                    [
                        {
                            "pitch": 74, 
                            "t0": 95040, 
                            "v": 90, 
                            "dur": 240, 
                            "type": "note", 
                            "channel": 1
                        }
                    ]
                ], 
                [
                    95280, 
                    [
                        {
                            "pitch": 79, 
                            "t0": 95280, 
                            "v": 90, 
                            "dur": 480, 
                            "type": "note", 
                            "channel": 1
                        }, 
                        {
                            "pitch": 71, 
                            "t0": 95280, 
                            "v": 90, 
                            "dur": 480, 
                            "type": "note", 
                            "channel": 1
                        }, 
                        {
                            "pitch": 74, 
                            "t0": 95280, 
                            "v": 90, 
                            "dur": 480, 
                            "type": "note", 
                            "channel": 1
                        }
                    ]
                ], 
                [
                    95760, 
                    [
                        {
                            "pitch": 74, 
                            "t0": 95760, 
                            "v": 90, 
                            "dur": 240, 
                            "type": "note", 
                            "channel": 1
                        }
                    ]
                ], 
                [
                    96480, 
                    [
                        {
                            "pitch": 79, 
                            "t0": 96480, 
                            "v": 90, 
                            "dur": 480, 
                            "type": "note", 
                            "channel": 1
                        }, 
                        {
                            "pitch": 71, 
                            "t0": 96480, 
                            "v": 90, 
                            "dur": 480, 
                            "type": "note", 
                            "channel": 1
                        }, 
                        {
                            "pitch": 74, 
                            "t0": 96480, 
                            "v": 90, 
                            "dur": 480, 
                            "type": "note", 
                            "channel": 1
                        }
                    ]
                ], 
                [
                    96960, 
                    [
                        {
                            "pitch": 79, 
                            "t0": 96960, 
                            "v": 90, 
                            "dur": 960, 
                            "type": "note", 
                            "channel": 1
                        }, 
                        {
                            "pitch": 71, 
                            "t0": 96960, 
                            "v": 90, 
                            "dur": 960, 
                            "type": "note", 
                            "channel": 1
                        }, 
                        {
                            "pitch": 74, 
                            "t0": 96960, 
                            "v": 90, 
                            "dur": 960, 
                            "type": "note", 
                            "channel": 1
                        }
                    ]
                ], 
                [
                    123360, 
                    [
                        {
                            "pitch": 67, 
                            "t0": 123360, 
                            "v": 90, 
                            "dur": 240, 
                            "type": "note", 
                            "channel": 1
                        }, 
                        {
                            "pitch": 59, 
                            "t0": 123360, 
                            "v": 90, 
                            "dur": 240, 
                            "type": "note", 
                            "channel": 1
                        }, 
                        {
                            "pitch": 62, 
                            "t0": 123360, 
                            "v": 90, 
                            "dur": 240, 
                            "type": "note", 
                            "channel": 1
                        }
                    ]
                ], 
                [
                    124560, 
                    [
                        {
                            "pitch": 67, 
                            "t0": 124560, 
                            "v": 90, 
                            "dur": 240, 
                            "type": "note", 
                            "channel": 1
                        }, 
                        {
                            "pitch": 59, 
                            "t0": 124560, 
                            "v": 90, 
                            "dur": 240, 
                            "type": "note", 
                            "channel": 1
                        }, 
                        {
                            "pitch": 62, 
                            "t0": 124560, 
                            "v": 90, 
                            "dur": 240, 
                            "type": "note", 
                            "channel": 1
                        }
                    ]
                ], 
                [
                    125280, 
                    [
                        {
                            "pitch": 65, 
                            "t0": 125280, 
                            "v": 90, 
                            "dur": 240, 
                            "type": "note", 
                            "channel": 1
                        }, 
                        {
                            "pitch": 57, 
                            "t0": 125280, 
                            "v": 90, 
                            "dur": 240, 
                            "type": "note", 
                            "channel": 1
                        }, 
                        {
                            "pitch": 60, 
                            "t0": 125280, 
                            "v": 90, 
                            "dur": 240, 
                            "type": "note", 
                            "channel": 1
                        }
                    ]
                ], 
                [
                    126000, 
                    [
                        {
                            "pitch": 64, 
                            "t0": 126000, 
                            "v": 90, 
                            "dur": 240, 
                            "type": "note", 
                            "channel": 1
                        }, 
                        {
                            "pitch": 55, 
                            "t0": 126000, 
                            "v": 90, 
                            "dur": 240, 
                            "type": "note", 
                            "channel": 1
                        }, 
                        {
                            "pitch": 60, 
                            "t0": 126000, 
                            "v": 90, 
                            "dur": 240, 
                            "type": "note", 
                            "channel": 1
                        }
                    ]
                ], 
                [
                    127200, 
                    [
                        {
                            "pitch": 67, 
                            "t0": 127200, 
                            "v": 90, 
                            "dur": 240, 
                            "type": "note", 
                            "channel": 1
                        }, 
                        {
                            "pitch": 59, 
                            "t0": 127200, 
                            "v": 90, 
                            "dur": 240, 
                            "type": "note", 
                            "channel": 1
                        }, 
                        {
                            "pitch": 62, 
                            "t0": 127200, 
                            "v": 90, 
                            "dur": 240, 
                            "type": "note", 
                            "channel": 1
                        }
                    ]
                ], 
                [
                    128400, 
                    [
                        {
                            "pitch": 67, 
                            "t0": 128400, 
                            "v": 90, 
                            "dur": 240, 
                            "type": "note", 
                            "channel": 1
                        }, 
                        {
                            "pitch": 59, 
                            "t0": 128400, 
                            "v": 90, 
                            "dur": 240, 
                            "type": "note", 
                            "channel": 1
                        }, 
                        {
                            "pitch": 62, 
                            "t0": 128400, 
                            "v": 90, 
                            "dur": 240, 
                            "type": "note", 
                            "channel": 1
                        }
                    ]
                ], 
                [
                    129120, 
                    [
                        {
                            "pitch": 65, 
                            "t0": 129120, 
                            "v": 90, 
                            "dur": 240, 
                            "type": "note", 
                            "channel": 1
                        }, 
                        {
                            "pitch": 57, 
                            "t0": 129120, 
                            "v": 90, 
                            "dur": 240, 
                            "type": "note", 
                            "channel": 1
                        }, 
                        {
                            "pitch": 60, 
                            "t0": 129120, 
                            "v": 90, 
                            "dur": 240, 
                            "type": "note", 
                            "channel": 1
                        }
                    ]
                ], 
                [
                    129840, 
                    [
                        {
                            "pitch": 64, 
                            "t0": 129840, 
                            "v": 90, 
                            "dur": 240, 
                            "type": "note", 
                            "channel": 1
                        }, 
                        {
                            "pitch": 55, 
                            "t0": 129840, 
                            "v": 90, 
                            "dur": 240, 
                            "type": "note", 
                            "channel": 1
                        }, 
                        {
                            "pitch": 60, 
                            "t0": 129840, 
                            "v": 90, 
                            "dur": 240, 
                            "type": "note", 
                            "channel": 1
                        }
                    ]
                ], 
                [
                    131040, 
                    [
                        {
                            "pitch": 67, 
                            "t0": 131040, 
                            "v": 90, 
                            "dur": 240, 
                            "type": "note", 
                            "channel": 1
                        }, 
                        {
                            "pitch": 59, 
                            "t0": 131040, 
                            "v": 90, 
                            "dur": 240, 
                            "type": "note", 
                            "channel": 1
                        }, 
                        {
                            "pitch": 62, 
                            "t0": 131040, 
                            "v": 90, 
                            "dur": 240, 
                            "type": "note", 
                            "channel": 1
                        }
                    ]
                ], 
                [
                    132240, 
                    [
                        {
                            "pitch": 67, 
                            "t0": 132240, 
                            "v": 90, 
                            "dur": 240, 
                            "type": "note", 
                            "channel": 1
                        }, 
                        {
                            "pitch": 59, 
                            "t0": 132240, 
                            "v": 90, 
                            "dur": 240, 
                            "type": "note", 
                            "channel": 1
                        }, 
                        {
                            "pitch": 62, 
                            "t0": 132240, 
                            "v": 90, 
                            "dur": 240, 
                            "type": "note", 
                            "channel": 1
                        }
                    ]
                ], 
                [
                    132960, 
                    [
                        {
                            "pitch": 65, 
                            "t0": 132960, 
                            "v": 90, 
                            "dur": 240, 
                            "type": "note", 
                            "channel": 1
                        }, 
                        {
                            "pitch": 57, 
                            "t0": 132960, 
                            "v": 90, 
                            "dur": 240, 
                            "type": "note", 
                            "channel": 1
                        }, 
                        {
                            "pitch": 60, 
                            "t0": 132960, 
                            "v": 90, 
                            "dur": 240, 
                            "type": "note", 
                            "channel": 1
                        }
                    ]
                ], 
                [
                    133680, 
                    [
                        {
                            "pitch": 64, 
                            "t0": 133680, 
                            "v": 90, 
                            "dur": 240, 
                            "type": "note", 
                            "channel": 1
                        }, 
                        {
                            "pitch": 55, 
                            "t0": 133680, 
                            "v": 90, 
                            "dur": 240, 
                            "type": "note", 
                            "channel": 1
                        }, 
                        {
                            "pitch": 60, 
                            "t0": 133680, 
                            "v": 90, 
                            "dur": 240, 
                            "type": "note", 
                            "channel": 1
                        }
                    ]
                ], 
                [
                    134880, 
                    [
                        {
                            "pitch": 67, 
                            "t0": 134880, 
                            "v": 90, 
                            "dur": 240, 
                            "type": "note", 
                            "channel": 1
                        }, 
                        {
                            "pitch": 59, 
                            "t0": 134880, 
                            "v": 90, 
                            "dur": 240, 
                            "type": "note", 
                            "channel": 1
                        }, 
                        {
                            "pitch": 62, 
                            "t0": 134880, 
                            "v": 90, 
                            "dur": 240, 
                            "type": "note", 
                            "channel": 1
                        }
                    ]
                ], 
                [
                    136080, 
                    [
                        {
                            "pitch": 67, 
                            "t0": 136080, 
                            "v": 90, 
                            "dur": 240, 
                            "type": "note", 
                            "channel": 1
                        }, 
                        {
                            "pitch": 59, 
                            "t0": 136080, 
                            "v": 90, 
                            "dur": 240, 
                            "type": "note", 
                            "channel": 1
                        }, 
                        {
                            "pitch": 62, 
                            "t0": 136080, 
                            "v": 90, 
                            "dur": 240, 
                            "type": "note", 
                            "channel": 1
                        }
                    ]
                ], 
                [
                    136800, 
                    [
                        {
                            "pitch": 65, 
                            "t0": 136800, 
                            "v": 90, 
                            "dur": 240, 
                            "type": "note", 
                            "channel": 1
                        }, 
                        {
                            "pitch": 57, 
                            "t0": 136800, 
                            "v": 90, 
                            "dur": 240, 
                            "type": "note", 
                            "channel": 1
                        }, 
                        {
                            "pitch": 60, 
                            "t0": 136800, 
                            "v": 90, 
                            "dur": 240, 
                            "type": "note", 
                            "channel": 1
                        }
                    ]
                ], 
                [
                    137520, 
                    [
                        {
                            "pitch": 64, 
                            "t0": 137520, 
                            "v": 90, 
                            "dur": 240, 
                            "type": "note", 
                            "channel": 1
                        }, 
                        {
                            "pitch": 55, 
                            "t0": 137520, 
                            "v": 90, 
                            "dur": 240, 
                            "type": "note", 
                            "channel": 1
                        }, 
                        {
                            "pitch": 60, 
                            "t0": 137520, 
                            "v": 90, 
                            "dur": 240, 
                            "type": "note", 
                            "channel": 1
                        }
                    ]
                ], 
                [
                    138720, 
                    [
                        {
                            "pitch": 67, 
                            "t0": 138720, 
                            "v": 90, 
                            "dur": 240, 
                            "type": "note", 
                            "channel": 1
                        }, 
                        {
                            "pitch": 59, 
                            "t0": 138720, 
                            "v": 90, 
                            "dur": 240, 
                            "type": "note", 
                            "channel": 1
                        }, 
                        {
                            "pitch": 62, 
                            "t0": 138720, 
                            "v": 90, 
                            "dur": 240, 
                            "type": "note", 
                            "channel": 1
                        }
                    ]
                ], 
                [
                    139920, 
                    [
                        {
                            "pitch": 67, 
                            "t0": 139920, 
                            "v": 90, 
                            "dur": 240, 
                            "type": "note", 
                            "channel": 1
                        }, 
                        {
                            "pitch": 59, 
                            "t0": 139920, 
                            "v": 90, 
                            "dur": 240, 
                            "type": "note", 
                            "channel": 1
                        }, 
                        {
                            "pitch": 62, 
                            "t0": 139920, 
                            "v": 90, 
                            "dur": 240, 
                            "type": "note", 
                            "channel": 1
                        }
                    ]
                ], 
                [
                    140640, 
                    [
                        {
                            "pitch": 65, 
                            "t0": 140640, 
                            "v": 90, 
                            "dur": 240, 
                            "type": "note", 
                            "channel": 1
                        }, 
                        {
                            "pitch": 57, 
                            "t0": 140640, 
                            "v": 90, 
                            "dur": 240, 
                            "type": "note", 
                            "channel": 1
                        }, 
                        {
                            "pitch": 60, 
                            "t0": 140640, 
                            "v": 90, 
                            "dur": 240, 
                            "type": "note", 
                            "channel": 1
                        }
                    ]
                ], 
                [
                    141360, 
                    [
                        {
                            "pitch": 64, 
                            "t0": 141360, 
                            "v": 90, 
                            "dur": 240, 
                            "type": "note", 
                            "channel": 1
                        }, 
                        {
                            "pitch": 55, 
                            "t0": 141360, 
                            "v": 90, 
                            "dur": 240, 
                            "type": "note", 
                            "channel": 1
                        }, 
                        {
                            "pitch": 60, 
                            "t0": 141360, 
                            "v": 90, 
                            "dur": 240, 
                            "type": "note", 
                            "channel": 1
                        }
                    ]
                ], 
                [
                    142560, 
                    [
                        {
                            "pitch": 67, 
                            "t0": 142560, 
                            "v": 90, 
                            "dur": 240, 
                            "type": "note", 
                            "channel": 1
                        }, 
                        {
                            "pitch": 59, 
                            "t0": 142560, 
                            "v": 90, 
                            "dur": 240, 
                            "type": "note", 
                            "channel": 1
                        }, 
                        {
                            "pitch": 62, 
                            "t0": 142560, 
                            "v": 90, 
                            "dur": 240, 
                            "type": "note", 
                            "channel": 1
                        }
                    ]
                ], 
                [
                    143760, 
                    [
                        {
                            "pitch": 67, 
                            "t0": 143760, 
                            "v": 90, 
                            "dur": 240, 
                            "type": "note", 
                            "channel": 1
                        }, 
                        {
                            "pitch": 59, 
                            "t0": 143760, 
                            "v": 90, 
                            "dur": 240, 
                            "type": "note", 
                            "channel": 1
                        }, 
                        {
                            "pitch": 62, 
                            "t0": 143760, 
                            "v": 90, 
                            "dur": 240, 
                            "type": "note", 
                            "channel": 1
                        }
                    ]
                ], 
                [
                    144480, 
                    [
                        {
                            "pitch": 65, 
                            "t0": 144480, 
                            "v": 90, 
                            "dur": 240, 
                            "type": "note", 
                            "channel": 1
                        }, 
                        {
                            "pitch": 57, 
                            "t0": 144480, 
                            "v": 90, 
                            "dur": 240, 
                            "type": "note", 
                            "channel": 1
                        }, 
                        {
                            "pitch": 60, 
                            "t0": 144480, 
                            "v": 90, 
                            "dur": 240, 
                            "type": "note", 
                            "channel": 1
                        }
                    ]
                ], 
                [
                    145200, 
                    [
                        {
                            "pitch": 64, 
                            "t0": 145200, 
                            "v": 90, 
                            "dur": 240, 
                            "type": "note", 
                            "channel": 1
                        }, 
                        {
                            "pitch": 55, 
                            "t0": 145200, 
                            "v": 90, 
                            "dur": 240, 
                            "type": "note", 
                            "channel": 1
                        }, 
                        {
                            "pitch": 60, 
                            "t0": 145200, 
                            "v": 90, 
                            "dur": 240, 
                            "type": "note", 
                            "channel": 1
                        }
                    ]
                ], 
                [
                    146400, 
                    [
                        {
                            "pitch": 67, 
                            "t0": 146400, 
                            "v": 90, 
                            "dur": 240, 
                            "type": "note", 
                            "channel": 1
                        }, 
                        {
                            "pitch": 59, 
                            "t0": 146400, 
                            "v": 90, 
                            "dur": 240, 
                            "type": "note", 
                            "channel": 1
                        }, 
                        {
                            "pitch": 62, 
                            "t0": 146400, 
                            "v": 90, 
                            "dur": 240, 
                            "type": "note", 
                            "channel": 1
                        }
                    ]
                ], 
                [
                    147600, 
                    [
                        {
                            "pitch": 67, 
                            "t0": 147600, 
                            "v": 90, 
                            "dur": 240, 
                            "type": "note", 
                            "channel": 1
                        }, 
                        {
                            "pitch": 59, 
                            "t0": 147600, 
                            "v": 90, 
                            "dur": 240, 
                            "type": "note", 
                            "channel": 1
                        }, 
                        {
                            "pitch": 62, 
                            "t0": 147600, 
                            "v": 90, 
                            "dur": 240, 
                            "type": "note", 
                            "channel": 1
                        }
                    ]
                ], 
                [
                    148320, 
                    [
                        {
                            "pitch": 65, 
                            "t0": 148320, 
                            "v": 90, 
                            "dur": 240, 
                            "type": "note", 
                            "channel": 1
                        }, 
                        {
                            "pitch": 57, 
                            "t0": 148320, 
                            "v": 90, 
                            "dur": 240, 
                            "type": "note", 
                            "channel": 1
                        }, 
                        {
                            "pitch": 60, 
                            "t0": 148320, 
                            "v": 90, 
                            "dur": 240, 
                            "type": "note", 
                            "channel": 1
                        }
                    ]
                ], 
                [
                    149040, 
                    [
                        {
                            "pitch": 64, 
                            "t0": 149040, 
                            "v": 90, 
                            "dur": 240, 
                            "type": "note", 
                            "channel": 1
                        }, 
                        {
                            "pitch": 55, 
                            "t0": 149040, 
                            "v": 90, 
                            "dur": 240, 
                            "type": "note", 
                            "channel": 1
                        }, 
                        {
                            "pitch": 60, 
                            "t0": 149040, 
                            "v": 90, 
                            "dur": 240, 
                            "type": "note", 
                            "channel": 1
                        }
                    ]
                ], 
                [
                    150240, 
                    [
                        {
                            "pitch": 67, 
                            "t0": 150240, 
                            "v": 90, 
                            "dur": 240, 
                            "type": "note", 
                            "channel": 1
                        }, 
                        {
                            "pitch": 59, 
                            "t0": 150240, 
                            "v": 90, 
                            "dur": 240, 
                            "type": "note", 
                            "channel": 1
                        }, 
                        {
                            "pitch": 62, 
                            "t0": 150240, 
                            "v": 90, 
                            "dur": 240, 
                            "type": "note", 
                            "channel": 1
                        }
                    ]
                ], 
                [
                    151440, 
                    [
                        {
                            "pitch": 67, 
                            "t0": 151440, 
                            "v": 90, 
                            "dur": 240, 
                            "type": "note", 
                            "channel": 1
                        }, 
                        {
                            "pitch": 59, 
                            "t0": 151440, 
                            "v": 90, 
                            "dur": 240, 
                            "type": "note", 
                            "channel": 1
                        }, 
                        {
                            "pitch": 62, 
                            "t0": 151440, 
                            "v": 90, 
                            "dur": 240, 
                            "type": "note", 
                            "channel": 1
                        }
                    ]
                ], 
                [
                    152160, 
                    [
                        {
                            "pitch": 65, 
                            "t0": 152160, 
                            "v": 90, 
                            "dur": 240, 
                            "type": "note", 
                            "channel": 1
                        }, 
                        {
                            "pitch": 57, 
                            "t0": 152160, 
                            "v": 90, 
                            "dur": 240, 
                            "type": "note", 
                            "channel": 1
                        }, 
                        {
                            "pitch": 60, 
                            "t0": 152160, 
                            "v": 90, 
                            "dur": 240, 
                            "type": "note", 
                            "channel": 1
                        }
                    ]
                ], 
                [
                    152880, 
                    [
                        {
                            "pitch": 64, 
                            "t0": 152880, 
                            "v": 90, 
                            "dur": 240, 
                            "type": "note", 
                            "channel": 1
                        }, 
                        {
                            "pitch": 55, 
                            "t0": 152880, 
                            "v": 90, 
                            "dur": 240, 
                            "type": "note", 
                            "channel": 1
                        }, 
                        {
                            "pitch": 60, 
                            "t0": 152880, 
                            "v": 90, 
                            "dur": 240, 
                            "type": "note", 
                            "channel": 1
                        }
                    ]
                ], 
                [
                    154080, 
                    [
                        {
                            "pitch": 67, 
                            "t0": 154080, 
                            "v": 90, 
                            "dur": 240, 
                            "type": "note", 
                            "channel": 1
                        }, 
                        {
                            "pitch": 59, 
                            "t0": 154080, 
                            "v": 90, 
                            "dur": 240, 
                            "type": "note", 
                            "channel": 1
                        }, 
                        {
                            "pitch": 62, 
                            "t0": 154080, 
                            "v": 90, 
                            "dur": 240, 
                            "type": "note", 
                            "channel": 1
                        }
                    ]
                ], 
                [
                    155280, 
                    [
                        {
                            "pitch": 67, 
                            "t0": 155280, 
                            "v": 90, 
                            "dur": 240, 
                            "type": "note", 
                            "channel": 1
                        }, 
                        {
                            "pitch": 59, 
                            "t0": 155280, 
                            "v": 90, 
                            "dur": 240, 
                            "type": "note", 
                            "channel": 1
                        }, 
                        {
                            "pitch": 62, 
                            "t0": 155280, 
                            "v": 90, 
                            "dur": 240, 
                            "type": "note", 
                            "channel": 1
                        }
                    ]
                ], 
                [
                    156000, 
                    [
                        {
                            "pitch": 65, 
                            "t0": 156000, 
                            "v": 90, 
                            "dur": 240, 
                            "type": "note", 
                            "channel": 1
                        }, 
                        {
                            "pitch": 57, 
                            "t0": 156000, 
                            "v": 90, 
                            "dur": 240, 
                            "type": "note", 
                            "channel": 1
                        }, 
                        {
                            "pitch": 60, 
                            "t0": 156000, 
                            "v": 90, 
                            "dur": 240, 
                            "type": "note", 
                            "channel": 1
                        }
                    ]
                ], 
                [
                    156720, 
                    [
                        {
                            "pitch": 64, 
                            "t0": 156720, 
                            "v": 90, 
                            "dur": 240, 
                            "type": "note", 
                            "channel": 1
                        }, 
                        {
                            "pitch": 55, 
                            "t0": 156720, 
                            "v": 90, 
                            "dur": 240, 
                            "type": "note", 
                            "channel": 1
                        }, 
                        {
                            "pitch": 60, 
                            "t0": 156720, 
                            "v": 90, 
                            "dur": 240, 
                            "type": "note", 
                            "channel": 1
                        }
                    ]
                ], 
                [
                    157920, 
                    [
                        {
                            "pitch": 67, 
                            "t0": 157920, 
                            "v": 90, 
                            "dur": 240, 
                            "type": "note", 
                            "channel": 1
                        }, 
                        {
                            "pitch": 59, 
                            "t0": 157920, 
                            "v": 90, 
                            "dur": 240, 
                            "type": "note", 
                            "channel": 1
                        }, 
                        {
                            "pitch": 62, 
                            "t0": 157920, 
                            "v": 90, 
                            "dur": 240, 
                            "type": "note", 
                            "channel": 1
                        }
                    ]
                ], 
                [
                    159120, 
                    [
                        {
                            "pitch": 67, 
                            "t0": 159120, 
                            "v": 90, 
                            "dur": 240, 
                            "type": "note", 
                            "channel": 1
                        }, 
                        {
                            "pitch": 59, 
                            "t0": 159120, 
                            "v": 90, 
                            "dur": 240, 
                            "type": "note", 
                            "channel": 1
                        }, 
                        {
                            "pitch": 62, 
                            "t0": 159120, 
                            "v": 90, 
                            "dur": 240, 
                            "type": "note", 
                            "channel": 1
                        }
                    ]
                ], 
                [
                    159840, 
                    [
                        {
                            "pitch": 65, 
                            "t0": 159840, 
                            "v": 90, 
                            "dur": 240, 
                            "type": "note", 
                            "channel": 1
                        }, 
                        {
                            "pitch": 57, 
                            "t0": 159840, 
                            "v": 90, 
                            "dur": 240, 
                            "type": "note", 
                            "channel": 1
                        }, 
                        {
                            "pitch": 60, 
                            "t0": 159840, 
                            "v": 90, 
                            "dur": 240, 
                            "type": "note", 
                            "channel": 1
                        }
                    ]
                ], 
                [
                    160560, 
                    [
                        {
                            "pitch": 64, 
                            "t0": 160560, 
                            "v": 90, 
                            "dur": 240, 
                            "type": "note", 
                            "channel": 1
                        }, 
                        {
                            "pitch": 55, 
                            "t0": 160560, 
                            "v": 90, 
                            "dur": 240, 
                            "type": "note", 
                            "channel": 1
                        }, 
                        {
                            "pitch": 60, 
                            "t0": 160560, 
                            "v": 90, 
                            "dur": 240, 
                            "type": "note", 
                            "channel": 1
                        }
                    ]
                ], 
                [
                    161760, 
                    [
                        {
                            "pitch": 67, 
                            "t0": 161760, 
                            "v": 90, 
                            "dur": 240, 
                            "type": "note", 
                            "channel": 1
                        }, 
                        {
                            "pitch": 59, 
                            "t0": 161760, 
                            "v": 90, 
                            "dur": 240, 
                            "type": "note", 
                            "channel": 1
                        }, 
                        {
                            "pitch": 62, 
                            "t0": 161760, 
                            "v": 90, 
                            "dur": 240, 
                            "type": "note", 
                            "channel": 1
                        }
                    ]
                ], 
                [
                    162960, 
                    [
                        {
                            "pitch": 67, 
                            "t0": 162960, 
                            "v": 90, 
                            "dur": 240, 
                            "type": "note", 
                            "channel": 1
                        }, 
                        {
                            "pitch": 59, 
                            "t0": 162960, 
                            "v": 90, 
                            "dur": 240, 
                            "type": "note", 
                            "channel": 1
                        }, 
                        {
                            "pitch": 62, 
                            "t0": 162960, 
                            "v": 90, 
                            "dur": 240, 
                            "type": "note", 
                            "channel": 1
                        }
                    ]
                ], 
                [
                    163680, 
                    [
                        {
                            "pitch": 65, 
                            "t0": 163680, 
                            "v": 90, 
                            "dur": 240, 
                            "type": "note", 
                            "channel": 1
                        }, 
                        {
                            "pitch": 57, 
                            "t0": 163680, 
                            "v": 90, 
                            "dur": 240, 
                            "type": "note", 
                            "channel": 1
                        }, 
                        {
                            "pitch": 60, 
                            "t0": 163680, 
                            "v": 90, 
                            "dur": 240, 
                            "type": "note", 
                            "channel": 1
                        }
                    ]
                ], 
                [
                    164400, 
                    [
                        {
                            "pitch": 64, 
                            "t0": 164400, 
                            "v": 90, 
                            "dur": 240, 
                            "type": "note", 
                            "channel": 1
                        }, 
                        {
                            "pitch": 55, 
                            "t0": 164400, 
                            "v": 90, 
                            "dur": 240, 
                            "type": "note", 
                            "channel": 1
                        }, 
                        {
                            "pitch": 60, 
                            "t0": 164400, 
                            "v": 90, 
                            "dur": 240, 
                            "type": "note", 
                            "channel": 1
                        }
                    ]
                ], 
                [
                    165600, 
                    [
                        {
                            "pitch": 67, 
                            "t0": 165600, 
                            "v": 90, 
                            "dur": 240, 
                            "type": "note", 
                            "channel": 1
                        }, 
                        {
                            "pitch": 59, 
                            "t0": 165600, 
                            "v": 90, 
                            "dur": 240, 
                            "type": "note", 
                            "channel": 1
                        }, 
                        {
                            "pitch": 62, 
                            "t0": 165600, 
                            "v": 90, 
                            "dur": 240, 
                            "type": "note", 
                            "channel": 1
                        }
                    ]
                ], 
                [
                    166800, 
                    [
                        {
                            "pitch": 67, 
                            "t0": 166800, 
                            "v": 90, 
                            "dur": 240, 
                            "type": "note", 
                            "channel": 1
                        }, 
                        {
                            "pitch": 59, 
                            "t0": 166800, 
                            "v": 90, 
                            "dur": 240, 
                            "type": "note", 
                            "channel": 1
                        }, 
                        {
                            "pitch": 62, 
                            "t0": 166800, 
                            "v": 90, 
                            "dur": 240, 
                            "type": "note", 
                            "channel": 1
                        }
                    ]
                ], 
                [
                    167520, 
                    [
                        {
                            "pitch": 65, 
                            "t0": 167520, 
                            "v": 90, 
                            "dur": 240, 
                            "type": "note", 
                            "channel": 1
                        }, 
                        {
                            "pitch": 57, 
                            "t0": 167520, 
                            "v": 90, 
                            "dur": 240, 
                            "type": "note", 
                            "channel": 1
                        }, 
                        {
                            "pitch": 60, 
                            "t0": 167520, 
                            "v": 90, 
                            "dur": 240, 
                            "type": "note", 
                            "channel": 1
                        }
                    ]
                ], 
                [
                    168240, 
                    [
                        {
                            "pitch": 64, 
                            "t0": 168240, 
                            "v": 90, 
                            "dur": 240, 
                            "type": "note", 
                            "channel": 1
                        }, 
                        {
                            "pitch": 55, 
                            "t0": 168240, 
                            "v": 90, 
                            "dur": 240, 
                            "type": "note", 
                            "channel": 1
                        }, 
                        {
                            "pitch": 60, 
                            "t0": 168240, 
                            "v": 90, 
                            "dur": 240, 
                            "type": "note", 
                            "channel": 1
                        }
                    ]
                ], 
                [
                    169440, 
                    [
                        {
                            "pitch": 67, 
                            "t0": 169440, 
                            "v": 90, 
                            "dur": 240, 
                            "type": "note", 
                            "channel": 1
                        }, 
                        {
                            "pitch": 59, 
                            "t0": 169440, 
                            "v": 90, 
                            "dur": 240, 
                            "type": "note", 
                            "channel": 1
                        }, 
                        {
                            "pitch": 62, 
                            "t0": 169440, 
                            "v": 90, 
                            "dur": 240, 
                            "type": "note", 
                            "channel": 1
                        }
                    ]
                ], 
                [
                    170640, 
                    [
                        {
                            "pitch": 67, 
                            "t0": 170640, 
                            "v": 90, 
                            "dur": 240, 
                            "type": "note", 
                            "channel": 1
                        }, 
                        {
                            "pitch": 59, 
                            "t0": 170640, 
                            "v": 90, 
                            "dur": 240, 
                            "type": "note", 
                            "channel": 1
                        }, 
                        {
                            "pitch": 62, 
                            "t0": 170640, 
                            "v": 90, 
                            "dur": 240, 
                            "type": "note", 
                            "channel": 1
                        }
                    ]
                ], 
                [
                    171360, 
                    [
                        {
                            "pitch": 65, 
                            "t0": 171360, 
                            "v": 90, 
                            "dur": 240, 
                            "type": "note", 
                            "channel": 1
                        }, 
                        {
                            "pitch": 57, 
                            "t0": 171360, 
                            "v": 90, 
                            "dur": 240, 
                            "type": "note", 
                            "channel": 1
                        }, 
                        {
                            "pitch": 60, 
                            "t0": 171360, 
                            "v": 90, 
                            "dur": 240, 
                            "type": "note", 
                            "channel": 1
                        }
                    ]
                ], 
                [
                    172080, 
                    [
                        {
                            "pitch": 64, 
                            "t0": 172080, 
                            "v": 90, 
                            "dur": 240, 
                            "type": "note", 
                            "channel": 1
                        }, 
                        {
                            "pitch": 55, 
                            "t0": 172080, 
                            "v": 90, 
                            "dur": 240, 
                            "type": "note", 
                            "channel": 1
                        }, 
                        {
                            "pitch": 60, 
                            "t0": 172080, 
                            "v": 90, 
                            "dur": 240, 
                            "type": "note", 
                            "channel": 1
                        }
                    ]
                ], 
                [
                    173280, 
                    [
                        {
                            "pitch": 67, 
                            "t0": 173280, 
                            "v": 90, 
                            "dur": 240, 
                            "type": "note", 
                            "channel": 1
                        }, 
                        {
                            "pitch": 59, 
                            "t0": 173280, 
                            "v": 90, 
                            "dur": 240, 
                            "type": "note", 
                            "channel": 1
                        }, 
                        {
                            "pitch": 62, 
                            "t0": 173280, 
                            "v": 90, 
                            "dur": 240, 
                            "type": "note", 
                            "channel": 1
                        }
                    ]
                ], 
                [
                    174480, 
                    [
                        {
                            "pitch": 67, 
                            "t0": 174480, 
                            "v": 90, 
                            "dur": 240, 
                            "type": "note", 
                            "channel": 1
                        }, 
                        {
                            "pitch": 59, 
                            "t0": 174480, 
                            "v": 90, 
                            "dur": 240, 
                            "type": "note", 
                            "channel": 1
                        }, 
                        {
                            "pitch": 62, 
                            "t0": 174480, 
                            "v": 90, 
                            "dur": 240, 
                            "type": "note", 
                            "channel": 1
                        }
                    ]
                ], 
                [
                    175200, 
                    [
                        {
                            "pitch": 65, 
                            "t0": 175200, 
                            "v": 90, 
                            "dur": 240, 
                            "type": "note", 
                            "channel": 1
                        }, 
                        {
                            "pitch": 57, 
                            "t0": 175200, 
                            "v": 90, 
                            "dur": 240, 
                            "type": "note", 
                            "channel": 1
                        }, 
                        {
                            "pitch": 60, 
                            "t0": 175200, 
                            "v": 90, 
                            "dur": 240, 
                            "type": "note", 
                            "channel": 1
                        }
                    ]
                ], 
                [
                    175920, 
                    [
                        {
                            "pitch": 64, 
                            "t0": 175920, 
                            "v": 90, 
                            "dur": 240, 
                            "type": "note", 
                            "channel": 1
                        }, 
                        {
                            "pitch": 55, 
                            "t0": 175920, 
                            "v": 90, 
                            "dur": 240, 
                            "type": "note", 
                            "channel": 1
                        }, 
                        {
                            "pitch": 60, 
                            "t0": 175920, 
                            "v": 90, 
                            "dur": 240, 
                            "type": "note", 
                            "channel": 1
                        }
                    ]
                ], 
                [
                    177120, 
                    [
                        {
                            "pitch": 67, 
                            "t0": 177120, 
                            "v": 90, 
                            "dur": 240, 
                            "type": "note", 
                            "channel": 1
                        }, 
                        {
                            "pitch": 59, 
                            "t0": 177120, 
                            "v": 90, 
                            "dur": 240, 
                            "type": "note", 
                            "channel": 1
                        }, 
                        {
                            "pitch": 62, 
                            "t0": 177120, 
                            "v": 90, 
                            "dur": 240, 
                            "type": "note", 
                            "channel": 1
                        }
                    ]
                ], 
                [
                    178320, 
                    [
                        {
                            "pitch": 67, 
                            "t0": 178320, 
                            "v": 90, 
                            "dur": 240, 
                            "type": "note", 
                            "channel": 1
                        }, 
                        {
                            "pitch": 59, 
                            "t0": 178320, 
                            "v": 90, 
                            "dur": 240, 
                            "type": "note", 
                            "channel": 1
                        }, 
                        {
                            "pitch": 62, 
                            "t0": 178320, 
                            "v": 90, 
                            "dur": 240, 
                            "type": "note", 
                            "channel": 1
                        }
                    ]
                ], 
                [
                    179040, 
                    [
                        {
                            "pitch": 65, 
                            "t0": 179040, 
                            "v": 90, 
                            "dur": 240, 
                            "type": "note", 
                            "channel": 1
                        }, 
                        {
                            "pitch": 57, 
                            "t0": 179040, 
                            "v": 90, 
                            "dur": 240, 
                            "type": "note", 
                            "channel": 1
                        }, 
                        {
                            "pitch": 60, 
                            "t0": 179040, 
                            "v": 90, 
                            "dur": 240, 
                            "type": "note", 
                            "channel": 1
                        }
                    ]
                ], 
                [
                    179760, 
                    [
                        {
                            "pitch": 64, 
                            "t0": 179760, 
                            "v": 90, 
                            "dur": 240, 
                            "type": "note", 
                            "channel": 1
                        }, 
                        {
                            "pitch": 55, 
                            "t0": 179760, 
                            "v": 90, 
                            "dur": 240, 
                            "type": "note", 
                            "channel": 1
                        }, 
                        {
                            "pitch": 60, 
                            "t0": 179760, 
                            "v": 90, 
                            "dur": 240, 
                            "type": "note", 
                            "channel": 1
                        }
                    ]
                ], 
                [
                    180960, 
                    [
                        {
                            "pitch": 67, 
                            "t0": 180960, 
                            "v": 90, 
                            "dur": 240, 
                            "type": "note", 
                            "channel": 1
                        }, 
                        {
                            "pitch": 59, 
                            "t0": 180960, 
                            "v": 90, 
                            "dur": 240, 
                            "type": "note", 
                            "channel": 1
                        }, 
                        {
                            "pitch": 62, 
                            "t0": 180960, 
                            "v": 90, 
                            "dur": 240, 
                            "type": "note", 
                            "channel": 1
                        }
                    ]
                ], 
                [
                    182160, 
                    [
                        {
                            "pitch": 67, 
                            "t0": 182160, 
                            "v": 90, 
                            "dur": 240, 
                            "type": "note", 
                            "channel": 1
                        }, 
                        {
                            "pitch": 59, 
                            "t0": 182160, 
                            "v": 90, 
                            "dur": 240, 
                            "type": "note", 
                            "channel": 1
                        }, 
                        {
                            "pitch": 62, 
                            "t0": 182160, 
                            "v": 90, 
                            "dur": 240, 
                            "type": "note", 
                            "channel": 1
                        }
                    ]
                ], 
                [
                    182880, 
                    [
                        {
                            "pitch": 65, 
                            "t0": 182880, 
                            "v": 90, 
                            "dur": 240, 
                            "type": "note", 
                            "channel": 1
                        }, 
                        {
                            "pitch": 57, 
                            "t0": 182880, 
                            "v": 90, 
                            "dur": 240, 
                            "type": "note", 
                            "channel": 1
                        }, 
                        {
                            "pitch": 60, 
                            "t0": 182880, 
                            "v": 90, 
                            "dur": 240, 
                            "type": "note", 
                            "channel": 1
                        }
                    ]
                ], 
                [
                    183600, 
                    [
                        {
                            "pitch": 64, 
                            "t0": 183600, 
                            "v": 90, 
                            "dur": 240, 
                            "type": "note", 
                            "channel": 1
                        }, 
                        {
                            "pitch": 55, 
                            "t0": 183600, 
                            "v": 90, 
                            "dur": 240, 
                            "type": "note", 
                            "channel": 1
                        }, 
                        {
                            "pitch": 60, 
                            "t0": 183600, 
                            "v": 90, 
                            "dur": 240, 
                            "type": "note", 
                            "channel": 1
                        }
                    ]
                ], 
                [
                    184800, 
                    [
                        {
                            "pitch": 67, 
                            "t0": 184800, 
                            "v": 90, 
                            "dur": 240, 
                            "type": "note", 
                            "channel": 1
                        }, 
                        {
                            "pitch": 59, 
                            "t0": 184800, 
                            "v": 90, 
                            "dur": 240, 
                            "type": "note", 
                            "channel": 1
                        }, 
                        {
                            "pitch": 62, 
                            "t0": 184800, 
                            "v": 90, 
                            "dur": 240, 
                            "type": "note", 
                            "channel": 1
                        }
                    ]
                ], 
                [
                    186000, 
                    [
                        {
                            "pitch": 67, 
                            "t0": 186000, 
                            "v": 90, 
                            "dur": 240, 
                            "type": "note", 
                            "channel": 1
                        }, 
                        {
                            "pitch": 59, 
                            "t0": 186000, 
                            "v": 90, 
                            "dur": 240, 
                            "type": "note", 
                            "channel": 1
                        }, 
                        {
                            "pitch": 62, 
                            "t0": 186000, 
                            "v": 90, 
                            "dur": 240, 
                            "type": "note", 
                            "channel": 1
                        }
                    ]
                ], 
                [
                    186720, 
                    [
                        {
                            "pitch": 65, 
                            "t0": 186720, 
                            "v": 90, 
                            "dur": 240, 
                            "type": "note", 
                            "channel": 1
                        }, 
                        {
                            "pitch": 57, 
                            "t0": 186720, 
                            "v": 90, 
                            "dur": 240, 
                            "type": "note", 
                            "channel": 1
                        }, 
                        {
                            "pitch": 60, 
                            "t0": 186720, 
                            "v": 90, 
                            "dur": 240, 
                            "type": "note", 
                            "channel": 1
                        }
                    ]
                ], 
                [
                    187440, 
                    [
                        {
                            "pitch": 64, 
                            "t0": 187440, 
                            "v": 90, 
                            "dur": 240, 
                            "type": "note", 
                            "channel": 1
                        }, 
                        {
                            "pitch": 55, 
                            "t0": 187440, 
                            "v": 90, 
                            "dur": 240, 
                            "type": "note", 
                            "channel": 1
                        }, 
                        {
                            "pitch": 60, 
                            "t0": 187440, 
                            "v": 90, 
                            "dur": 240, 
                            "type": "note", 
                            "channel": 1
                        }
                    ]
                ], 
                [
                    188640, 
                    [
                        {
                            "pitch": 67, 
                            "t0": 188640, 
                            "v": 90, 
                            "dur": 240, 
                            "type": "note", 
                            "channel": 1
                        }, 
                        {
                            "pitch": 59, 
                            "t0": 188640, 
                            "v": 90, 
                            "dur": 240, 
                            "type": "note", 
                            "channel": 1
                        }, 
                        {
                            "pitch": 62, 
                            "t0": 188640, 
                            "v": 90, 
                            "dur": 240, 
                            "type": "note", 
                            "channel": 1
                        }
                    ]
                ], 
                [
                    189840, 
                    [
                        {
                            "pitch": 67, 
                            "t0": 189840, 
                            "v": 90, 
                            "dur": 240, 
                            "type": "note", 
                            "channel": 1
                        }, 
                        {
                            "pitch": 59, 
                            "t0": 189840, 
                            "v": 90, 
                            "dur": 240, 
                            "type": "note", 
                            "channel": 1
                        }, 
                        {
                            "pitch": 62, 
                            "t0": 189840, 
                            "v": 90, 
                            "dur": 240, 
                            "type": "note", 
                            "channel": 1
                        }
                    ]
                ], 
                [
                    190560, 
                    [
                        {
                            "pitch": 65, 
                            "t0": 190560, 
                            "v": 90, 
                            "dur": 240, 
                            "type": "note", 
                            "channel": 1
                        }, 
                        {
                            "pitch": 57, 
                            "t0": 190560, 
                            "v": 90, 
                            "dur": 240, 
                            "type": "note", 
                            "channel": 1
                        }, 
                        {
                            "pitch": 60, 
                            "t0": 190560, 
                            "v": 90, 
                            "dur": 240, 
                            "type": "note", 
                            "channel": 1
                        }
                    ]
                ], 
                [
                    191280, 
                    [
                        {
                            "pitch": 64, 
                            "t0": 191280, 
                            "v": 90, 
                            "dur": 240, 
                            "type": "note", 
                            "channel": 1
                        }, 
                        {
                            "pitch": 55, 
                            "t0": 191280, 
                            "v": 90, 
                            "dur": 240, 
                            "type": "note", 
                            "channel": 1
                        }, 
                        {
                            "pitch": 60, 
                            "t0": 191280, 
                            "v": 90, 
                            "dur": 240, 
                            "type": "note", 
                            "channel": 1
                        }
                    ]
                ], 
                [
                    192480, 
                    [
                        {
                            "pitch": 67, 
                            "t0": 192480, 
                            "v": 90, 
                            "dur": 240, 
                            "type": "note", 
                            "channel": 1
                        }, 
                        {
                            "pitch": 59, 
                            "t0": 192480, 
                            "v": 90, 
                            "dur": 240, 
                            "type": "note", 
                            "channel": 1
                        }, 
                        {
                            "pitch": 62, 
                            "t0": 192480, 
                            "v": 90, 
                            "dur": 240, 
                            "type": "note", 
                            "channel": 1
                        }
                    ]
                ], 
                [
                    193680, 
                    [
                        {
                            "pitch": 67, 
                            "t0": 193680, 
                            "v": 90, 
                            "dur": 240, 
                            "type": "note", 
                            "channel": 1
                        }, 
                        {
                            "pitch": 59, 
                            "t0": 193680, 
                            "v": 90, 
                            "dur": 240, 
                            "type": "note", 
                            "channel": 1
                        }, 
                        {
                            "pitch": 62, 
                            "t0": 193680, 
                            "v": 90, 
                            "dur": 240, 
                            "type": "note", 
                            "channel": 1
                        }
                    ]
                ], 
                [
                    194400, 
                    [
                        {
                            "pitch": 65, 
                            "t0": 194400, 
                            "v": 90, 
                            "dur": 240, 
                            "type": "note", 
                            "channel": 1
                        }, 
                        {
                            "pitch": 57, 
                            "t0": 194400, 
                            "v": 90, 
                            "dur": 240, 
                            "type": "note", 
                            "channel": 1
                        }, 
                        {
                            "pitch": 60, 
                            "t0": 194400, 
                            "v": 90, 
                            "dur": 240, 
                            "type": "note", 
                            "channel": 1
                        }
                    ]
                ], 
                [
                    195120, 
                    [
                        {
                            "pitch": 64, 
                            "t0": 195120, 
                            "v": 90, 
                            "dur": 240, 
                            "type": "note", 
                            "channel": 1
                        }, 
                        {
                            "pitch": 55, 
                            "t0": 195120, 
                            "v": 90, 
                            "dur": 240, 
                            "type": "note", 
                            "channel": 1
                        }, 
                        {
                            "pitch": 60, 
                            "t0": 195120, 
                            "v": 90, 
                            "dur": 240, 
                            "type": "note", 
                            "channel": 1
                        }
                    ]
                ], 
                [
                    196320, 
                    [
                        {
                            "pitch": 67, 
                            "t0": 196320, 
                            "v": 90, 
                            "dur": 240, 
                            "type": "note", 
                            "channel": 1
                        }, 
                        {
                            "pitch": 59, 
                            "t0": 196320, 
                            "v": 90, 
                            "dur": 240, 
                            "type": "note", 
                            "channel": 1
                        }, 
                        {
                            "pitch": 62, 
                            "t0": 196320, 
                            "v": 90, 
                            "dur": 240, 
                            "type": "note", 
                            "channel": 1
                        }
                    ]
                ], 
                [
                    197520, 
                    [
                        {
                            "pitch": 67, 
                            "t0": 197520, 
                            "v": 90, 
                            "dur": 240, 
                            "type": "note", 
                            "channel": 1
                        }, 
                        {
                            "pitch": 59, 
                            "t0": 197520, 
                            "v": 90, 
                            "dur": 240, 
                            "type": "note", 
                            "channel": 1
                        }, 
                        {
                            "pitch": 62, 
                            "t0": 197520, 
                            "v": 90, 
                            "dur": 240, 
                            "type": "note", 
                            "channel": 1
                        }
                    ]
                ], 
                [
                    198240, 
                    [
                        {
                            "pitch": 65, 
                            "t0": 198240, 
                            "v": 90, 
                            "dur": 240, 
                            "type": "note", 
                            "channel": 1
                        }, 
                        {
                            "pitch": 57, 
                            "t0": 198240, 
                            "v": 90, 
                            "dur": 240, 
                            "type": "note", 
                            "channel": 1
                        }, 
                        {
                            "pitch": 60, 
                            "t0": 198240, 
                            "v": 90, 
                            "dur": 240, 
                            "type": "note", 
                            "channel": 1
                        }
                    ]
                ], 
                [
                    198960, 
                    [
                        {
                            "pitch": 64, 
                            "t0": 198960, 
                            "v": 90, 
                            "dur": 240, 
                            "type": "note", 
                            "channel": 1
                        }, 
                        {
                            "pitch": 55, 
                            "t0": 198960, 
                            "v": 90, 
                            "dur": 240, 
                            "type": "note", 
                            "channel": 1
                        }, 
                        {
                            "pitch": 60, 
                            "t0": 198960, 
                            "v": 90, 
                            "dur": 240, 
                            "type": "note", 
                            "channel": 1
                        }
                    ]
                ]
            ], 
            "instruments": [
                45
            ], 
            "tMax": 198960, 
            "channels": [
                1
            ], 
            "instrument": 45, 
            "numNotes": 590, 
            "type": "TrackObj"
        }, 
        {
            "trackName": "Track-2", 
            "seq": [
                [
                    1920, 
                    [
                        {
                            "instrument": 0, 
                            "type": "programChange", 
                            "t0": 1920, 
                            "channel": 11
                        }
                    ]
                ], 
                [
                    9600, 
                    [
                        {
                            "pitch": 47, 
                            "t0": 9600, 
                            "v": 88, 
                            "dur": 240, 
                            "type": "note", 
                            "channel": 11
                        }
                    ]
                ], 
                [
                    9840, 
                    [
                        {
                            "pitch": 50, 
                            "t0": 9840, 
                            "v": 88, 
                            "dur": 240, 
                            "type": "note", 
                            "channel": 11
                        }
                    ]
                ], 
                [
                    10080, 
                    [
                        {
                            "pitch": 55, 
                            "t0": 10080, 
                            "v": 88, 
                            "dur": 240, 
                            "type": "note", 
                            "channel": 11
                        }
                    ]
                ], 
                [
                    10320, 
                    [
                        {
                            "pitch": 50, 
                            "t0": 10320, 
                            "v": 88, 
                            "dur": 240, 
                            "type": "note", 
                            "channel": 11
                        }
                    ]
                ], 
                [
                    10560, 
                    [
                        {
                            "pitch": 47, 
                            "t0": 10560, 
                            "v": 88, 
                            "dur": 240, 
                            "type": "note", 
                            "channel": 11
                        }
                    ]
                ], 
                [
                    10800, 
                    [
                        {
                            "pitch": 50, 
                            "t0": 10800, 
                            "v": 88, 
                            "dur": 240, 
                            "type": "note", 
                            "channel": 11
                        }
                    ]
                ], 
                [
                    11040, 
                    [
                        {
                            "pitch": 55, 
                            "t0": 11040, 
                            "v": 88, 
                            "dur": 240, 
                            "type": "note", 
                            "channel": 11
                        }
                    ]
                ], 
                [
                    11280, 
                    [
                        {
                            "pitch": 50, 
                            "t0": 11280, 
                            "v": 88, 
                            "dur": 240, 
                            "type": "note", 
                            "channel": 11
                        }
                    ]
                ], 
                [
                    11520, 
                    [
                        {
                            "pitch": 41, 
                            "t0": 11520, 
                            "v": 88, 
                            "dur": 240, 
                            "type": "note", 
                            "channel": 11
                        }
                    ]
                ], 
                [
                    11760, 
                    [
                        {
                            "pitch": 48, 
                            "t0": 11760, 
                            "v": 88, 
                            "dur": 240, 
                            "type": "note", 
                            "channel": 11
                        }
                    ]
                ], 
                [
                    12000, 
                    [
                        {
                            "pitch": 53, 
                            "t0": 12000, 
                            "v": 88, 
                            "dur": 240, 
                            "type": "note", 
                            "channel": 11
                        }
                    ]
                ], 
                [
                    12240, 
                    [
                        {
                            "pitch": 48, 
                            "t0": 12240, 
                            "v": 88, 
                            "dur": 240, 
                            "type": "note", 
                            "channel": 11
                        }
                    ]
                ], 
                [
                    12480, 
                    [
                        {
                            "pitch": 36, 
                            "t0": 12480, 
                            "v": 88, 
                            "dur": 240, 
                            "type": "note", 
                            "channel": 11
                        }
                    ]
                ], 
                [
                    12720, 
                    [
                        {
                            "pitch": 48, 
                            "t0": 12720, 
                            "v": 88, 
                            "dur": 240, 
                            "type": "note", 
                            "channel": 11
                        }
                    ]
                ], 
                [
                    12960, 
                    [
                        {
                            "pitch": 52, 
                            "t0": 12960, 
                            "v": 88, 
                            "dur": 240, 
                            "type": "note", 
                            "channel": 11
                        }
                    ]
                ], 
                [
                    13200, 
                    [
                        {
                            "pitch": 48, 
                            "t0": 13200, 
                            "v": 88, 
                            "dur": 240, 
                            "type": "note", 
                            "channel": 11
                        }
                    ]
                ], 
                [
                    13440, 
                    [
                        {
                            "pitch": 43, 
                            "t0": 13440, 
                            "v": 88, 
                            "dur": 240, 
                            "type": "note", 
                            "channel": 11
                        }
                    ]
                ], 
                [
                    13680, 
                    [
                        {
                            "pitch": 50, 
                            "t0": 13680, 
                            "v": 88, 
                            "dur": 240, 
                            "type": "note", 
                            "channel": 11
                        }
                    ]
                ], 
                [
                    13920, 
                    [
                        {
                            "pitch": 55, 
                            "t0": 13920, 
                            "v": 88, 
                            "dur": 240, 
                            "type": "note", 
                            "channel": 11
                        }
                    ]
                ], 
                [
                    14160, 
                    [
                        {
                            "pitch": 50, 
                            "t0": 14160, 
                            "v": 88, 
                            "dur": 240, 
                            "type": "note", 
                            "channel": 11
                        }
                    ]
                ], 
                [
                    14400, 
                    [
                        {
                            "pitch": 43, 
                            "t0": 14400, 
                            "v": 88, 
                            "dur": 240, 
                            "type": "note", 
                            "channel": 11
                        }
                    ]
                ], 
                [
                    14640, 
                    [
                        {
                            "pitch": 50, 
                            "t0": 14640, 
                            "v": 88, 
                            "dur": 240, 
                            "type": "note", 
                            "channel": 11
                        }
                    ]
                ], 
                [
                    14880, 
                    [
                        {
                            "pitch": 55, 
                            "t0": 14880, 
                            "v": 88, 
                            "dur": 240, 
                            "type": "note", 
                            "channel": 11
                        }
                    ]
                ], 
                [
                    15120, 
                    [
                        {
                            "pitch": 50, 
                            "t0": 15120, 
                            "v": 88, 
                            "dur": 240, 
                            "type": "note", 
                            "channel": 11
                        }
                    ]
                ], 
                [
                    15360, 
                    [
                        {
                            "pitch": 41, 
                            "t0": 15360, 
                            "v": 88, 
                            "dur": 240, 
                            "type": "note", 
                            "channel": 11
                        }
                    ]
                ], 
                [
                    15600, 
                    [
                        {
                            "pitch": 48, 
                            "t0": 15600, 
                            "v": 88, 
                            "dur": 240, 
                            "type": "note", 
                            "channel": 11
                        }
                    ]
                ], 
                [
                    15840, 
                    [
                        {
                            "pitch": 53, 
                            "t0": 15840, 
                            "v": 88, 
                            "dur": 240, 
                            "type": "note", 
                            "channel": 11
                        }
                    ]
                ], 
                [
                    16080, 
                    [
                        {
                            "pitch": 48, 
                            "t0": 16080, 
                            "v": 88, 
                            "dur": 240, 
                            "type": "note", 
                            "channel": 11
                        }
                    ]
                ], 
                [
                    16320, 
                    [
                        {
                            "pitch": 36, 
                            "t0": 16320, 
                            "v": 88, 
                            "dur": 240, 
                            "type": "note", 
                            "channel": 11
                        }
                    ]
                ], 
                [
                    16560, 
                    [
                        {
                            "pitch": 48, 
                            "t0": 16560, 
                            "v": 88, 
                            "dur": 240, 
                            "type": "note", 
                            "channel": 11
                        }
                    ]
                ], 
                [
                    16800, 
                    [
                        {
                            "pitch": 52, 
                            "t0": 16800, 
                            "v": 88, 
                            "dur": 240, 
                            "type": "note", 
                            "channel": 11
                        }
                    ]
                ], 
                [
                    17040, 
                    [
                        {
                            "pitch": 48, 
                            "t0": 17040, 
                            "v": 88, 
                            "dur": 240, 
                            "type": "note", 
                            "channel": 11
                        }
                    ]
                ], 
                [
                    17280, 
                    [
                        {
                            "pitch": 43, 
                            "t0": 17280, 
                            "v": 88, 
                            "dur": 240, 
                            "type": "note", 
                            "channel": 11
                        }
                    ]
                ], 
                [
                    17520, 
                    [
                        {
                            "pitch": 50, 
                            "t0": 17520, 
                            "v": 88, 
                            "dur": 240, 
                            "type": "note", 
                            "channel": 11
                        }
                    ]
                ], 
                [
                    17760, 
                    [
                        {
                            "pitch": 55, 
                            "t0": 17760, 
                            "v": 88, 
                            "dur": 240, 
                            "type": "note", 
                            "channel": 11
                        }
                    ]
                ], 
                [
                    18000, 
                    [
                        {
                            "pitch": 50, 
                            "t0": 18000, 
                            "v": 88, 
                            "dur": 240, 
                            "type": "note", 
                            "channel": 11
                        }
                    ]
                ], 
                [
                    18240, 
                    [
                        {
                            "pitch": 43, 
                            "t0": 18240, 
                            "v": 88, 
                            "dur": 240, 
                            "type": "note", 
                            "channel": 11
                        }
                    ]
                ], 
                [
                    18480, 
                    [
                        {
                            "pitch": 50, 
                            "t0": 18480, 
                            "v": 88, 
                            "dur": 240, 
                            "type": "note", 
                            "channel": 11
                        }
                    ]
                ], 
                [
                    18720, 
                    [
                        {
                            "pitch": 55, 
                            "t0": 18720, 
                            "v": 88, 
                            "dur": 240, 
                            "type": "note", 
                            "channel": 11
                        }
                    ]
                ], 
                [
                    18960, 
                    [
                        {
                            "pitch": 50, 
                            "t0": 18960, 
                            "v": 88, 
                            "dur": 240, 
                            "type": "note", 
                            "channel": 11
                        }
                    ]
                ], 
                [
                    19200, 
                    [
                        {
                            "pitch": 41, 
                            "t0": 19200, 
                            "v": 88, 
                            "dur": 240, 
                            "type": "note", 
                            "channel": 11
                        }
                    ]
                ], 
                [
                    19440, 
                    [
                        {
                            "pitch": 48, 
                            "t0": 19440, 
                            "v": 88, 
                            "dur": 240, 
                            "type": "note", 
                            "channel": 11
                        }
                    ]
                ], 
                [
                    19680, 
                    [
                        {
                            "pitch": 53, 
                            "t0": 19680, 
                            "v": 88, 
                            "dur": 240, 
                            "type": "note", 
                            "channel": 11
                        }
                    ]
                ], 
                [
                    19920, 
                    [
                        {
                            "pitch": 48, 
                            "t0": 19920, 
                            "v": 88, 
                            "dur": 240, 
                            "type": "note", 
                            "channel": 11
                        }
                    ]
                ], 
                [
                    20160, 
                    [
                        {
                            "pitch": 36, 
                            "t0": 20160, 
                            "v": 88, 
                            "dur": 240, 
                            "type": "note", 
                            "channel": 11
                        }
                    ]
                ], 
                [
                    20400, 
                    [
                        {
                            "pitch": 48, 
                            "t0": 20400, 
                            "v": 88, 
                            "dur": 240, 
                            "type": "note", 
                            "channel": 11
                        }
                    ]
                ], 
                [
                    20640, 
                    [
                        {
                            "pitch": 52, 
                            "t0": 20640, 
                            "v": 88, 
                            "dur": 240, 
                            "type": "note", 
                            "channel": 11
                        }
                    ]
                ], 
                [
                    20880, 
                    [
                        {
                            "pitch": 48, 
                            "t0": 20880, 
                            "v": 88, 
                            "dur": 240, 
                            "type": "note", 
                            "channel": 11
                        }
                    ]
                ], 
                [
                    21120, 
                    [
                        {
                            "pitch": 43, 
                            "t0": 21120, 
                            "v": 88, 
                            "dur": 240, 
                            "type": "note", 
                            "channel": 11
                        }
                    ]
                ], 
                [
                    21360, 
                    [
                        {
                            "pitch": 50, 
                            "t0": 21360, 
                            "v": 88, 
                            "dur": 240, 
                            "type": "note", 
                            "channel": 11
                        }
                    ]
                ], 
                [
                    21600, 
                    [
                        {
                            "pitch": 55, 
                            "t0": 21600, 
                            "v": 88, 
                            "dur": 240, 
                            "type": "note", 
                            "channel": 11
                        }
                    ]
                ], 
                [
                    21840, 
                    [
                        {
                            "pitch": 50, 
                            "t0": 21840, 
                            "v": 88, 
                            "dur": 240, 
                            "type": "note", 
                            "channel": 11
                        }
                    ]
                ], 
                [
                    22080, 
                    [
                        {
                            "pitch": 43, 
                            "t0": 22080, 
                            "v": 88, 
                            "dur": 240, 
                            "type": "note", 
                            "channel": 11
                        }
                    ]
                ], 
                [
                    22320, 
                    [
                        {
                            "pitch": 50, 
                            "t0": 22320, 
                            "v": 88, 
                            "dur": 240, 
                            "type": "note", 
                            "channel": 11
                        }
                    ]
                ], 
                [
                    22560, 
                    [
                        {
                            "pitch": 55, 
                            "t0": 22560, 
                            "v": 88, 
                            "dur": 240, 
                            "type": "note", 
                            "channel": 11
                        }
                    ]
                ], 
                [
                    22800, 
                    [
                        {
                            "pitch": 50, 
                            "t0": 22800, 
                            "v": 88, 
                            "dur": 240, 
                            "type": "note", 
                            "channel": 11
                        }
                    ]
                ], 
                [
                    23040, 
                    [
                        {
                            "pitch": 41, 
                            "t0": 23040, 
                            "v": 88, 
                            "dur": 240, 
                            "type": "note", 
                            "channel": 11
                        }
                    ]
                ], 
                [
                    23280, 
                    [
                        {
                            "pitch": 48, 
                            "t0": 23280, 
                            "v": 88, 
                            "dur": 240, 
                            "type": "note", 
                            "channel": 11
                        }
                    ]
                ], 
                [
                    23520, 
                    [
                        {
                            "pitch": 53, 
                            "t0": 23520, 
                            "v": 88, 
                            "dur": 240, 
                            "type": "note", 
                            "channel": 11
                        }
                    ]
                ], 
                [
                    23760, 
                    [
                        {
                            "pitch": 48, 
                            "t0": 23760, 
                            "v": 88, 
                            "dur": 240, 
                            "type": "note", 
                            "channel": 11
                        }
                    ]
                ], 
                [
                    24000, 
                    [
                        {
                            "pitch": 36, 
                            "t0": 24000, 
                            "v": 88, 
                            "dur": 240, 
                            "type": "note", 
                            "channel": 11
                        }
                    ]
                ], 
                [
                    24240, 
                    [
                        {
                            "pitch": 48, 
                            "t0": 24240, 
                            "v": 88, 
                            "dur": 240, 
                            "type": "note", 
                            "channel": 11
                        }
                    ]
                ], 
                [
                    24480, 
                    [
                        {
                            "pitch": 52, 
                            "t0": 24480, 
                            "v": 88, 
                            "dur": 240, 
                            "type": "note", 
                            "channel": 11
                        }
                    ]
                ], 
                [
                    24720, 
                    [
                        {
                            "pitch": 48, 
                            "t0": 24720, 
                            "v": 88, 
                            "dur": 240, 
                            "type": "note", 
                            "channel": 11
                        }
                    ]
                ], 
                [
                    24960, 
                    [
                        {
                            "pitch": 43, 
                            "t0": 24960, 
                            "v": 88, 
                            "dur": 240, 
                            "type": "note", 
                            "channel": 11
                        }
                    ]
                ], 
                [
                    25200, 
                    [
                        {
                            "pitch": 50, 
                            "t0": 25200, 
                            "v": 88, 
                            "dur": 240, 
                            "type": "note", 
                            "channel": 11
                        }
                    ]
                ], 
                [
                    25440, 
                    [
                        {
                            "pitch": 55, 
                            "t0": 25440, 
                            "v": 88, 
                            "dur": 240, 
                            "type": "note", 
                            "channel": 11
                        }
                    ]
                ], 
                [
                    25680, 
                    [
                        {
                            "pitch": 50, 
                            "t0": 25680, 
                            "v": 88, 
                            "dur": 240, 
                            "type": "note", 
                            "channel": 11
                        }
                    ]
                ], 
                [
                    25920, 
                    [
                        {
                            "pitch": 43, 
                            "t0": 25920, 
                            "v": 88, 
                            "dur": 240, 
                            "type": "note", 
                            "channel": 11
                        }
                    ]
                ], 
                [
                    26160, 
                    [
                        {
                            "pitch": 50, 
                            "t0": 26160, 
                            "v": 88, 
                            "dur": 240, 
                            "type": "note", 
                            "channel": 11
                        }
                    ]
                ], 
                [
                    26400, 
                    [
                        {
                            "pitch": 55, 
                            "t0": 26400, 
                            "v": 88, 
                            "dur": 240, 
                            "type": "note", 
                            "channel": 11
                        }
                    ]
                ], 
                [
                    26640, 
                    [
                        {
                            "pitch": 50, 
                            "t0": 26640, 
                            "v": 88, 
                            "dur": 240, 
                            "type": "note", 
                            "channel": 11
                        }
                    ]
                ], 
                [
                    26880, 
                    [
                        {
                            "pitch": 41, 
                            "t0": 26880, 
                            "v": 88, 
                            "dur": 240, 
                            "type": "note", 
                            "channel": 11
                        }
                    ]
                ], 
                [
                    27120, 
                    [
                        {
                            "pitch": 48, 
                            "t0": 27120, 
                            "v": 88, 
                            "dur": 240, 
                            "type": "note", 
                            "channel": 11
                        }
                    ]
                ], 
                [
                    27360, 
                    [
                        {
                            "pitch": 53, 
                            "t0": 27360, 
                            "v": 88, 
                            "dur": 240, 
                            "type": "note", 
                            "channel": 11
                        }
                    ]
                ], 
                [
                    27600, 
                    [
                        {
                            "pitch": 48, 
                            "t0": 27600, 
                            "v": 88, 
                            "dur": 240, 
                            "type": "note", 
                            "channel": 11
                        }
                    ]
                ], 
                [
                    27840, 
                    [
                        {
                            "pitch": 36, 
                            "t0": 27840, 
                            "v": 88, 
                            "dur": 240, 
                            "type": "note", 
                            "channel": 11
                        }
                    ]
                ], 
                [
                    28080, 
                    [
                        {
                            "pitch": 48, 
                            "t0": 28080, 
                            "v": 88, 
                            "dur": 240, 
                            "type": "note", 
                            "channel": 11
                        }
                    ]
                ], 
                [
                    28320, 
                    [
                        {
                            "pitch": 52, 
                            "t0": 28320, 
                            "v": 88, 
                            "dur": 240, 
                            "type": "note", 
                            "channel": 11
                        }
                    ]
                ], 
                [
                    28560, 
                    [
                        {
                            "pitch": 48, 
                            "t0": 28560, 
                            "v": 88, 
                            "dur": 240, 
                            "type": "note", 
                            "channel": 11
                        }
                    ]
                ], 
                [
                    62880, 
                    [
                        {
                            "pitch": 43, 
                            "t0": 62880, 
                            "v": 88, 
                            "dur": 240, 
                            "type": "note", 
                            "channel": 11
                        }
                    ]
                ], 
                [
                    63120, 
                    [
                        {
                            "pitch": 43, 
                            "t0": 63120, 
                            "v": 88, 
                            "dur": 240, 
                            "type": "note", 
                            "channel": 11
                        }
                    ]
                ], 
                [
                    63360, 
                    [
                        {
                            "pitch": 43, 
                            "t0": 63360, 
                            "v": 88, 
                            "dur": 240, 
                            "type": "note", 
                            "channel": 11
                        }
                    ]
                ], 
                [
                    63600, 
                    [
                        {
                            "pitch": 50, 
                            "t0": 63600, 
                            "v": 88, 
                            "dur": 240, 
                            "type": "note", 
                            "channel": 11
                        }
                    ]
                ], 
                [
                    63840, 
                    [
                        {
                            "pitch": 55, 
                            "t0": 63840, 
                            "v": 88, 
                            "dur": 240, 
                            "type": "note", 
                            "channel": 11
                        }
                    ]
                ], 
                [
                    64080, 
                    [
                        {
                            "pitch": 50, 
                            "t0": 64080, 
                            "v": 88, 
                            "dur": 240, 
                            "type": "note", 
                            "channel": 11
                        }
                    ]
                ], 
                [
                    64320, 
                    [
                        {
                            "pitch": 43, 
                            "t0": 64320, 
                            "v": 88, 
                            "dur": 240, 
                            "type": "note", 
                            "channel": 11
                        }
                    ]
                ], 
                [
                    64560, 
                    [
                        {
                            "pitch": 50, 
                            "t0": 64560, 
                            "v": 88, 
                            "dur": 240, 
                            "type": "note", 
                            "channel": 11
                        }
                    ]
                ], 
                [
                    64800, 
                    [
                        {
                            "pitch": 55, 
                            "t0": 64800, 
                            "v": 88, 
                            "dur": 240, 
                            "type": "note", 
                            "channel": 11
                        }
                    ]
                ], 
                [
                    65040, 
                    [
                        {
                            "pitch": 50, 
                            "t0": 65040, 
                            "v": 88, 
                            "dur": 240, 
                            "type": "note", 
                            "channel": 11
                        }
                    ]
                ], 
                [
                    65280, 
                    [
                        {
                            "pitch": 41, 
                            "t0": 65280, 
                            "v": 88, 
                            "dur": 240, 
                            "type": "note", 
                            "channel": 11
                        }
                    ]
                ], 
                [
                    65520, 
                    [
                        {
                            "pitch": 48, 
                            "t0": 65520, 
                            "v": 88, 
                            "dur": 240, 
                            "type": "note", 
                            "channel": 11
                        }
                    ]
                ], 
                [
                    65760, 
                    [
                        {
                            "pitch": 53, 
                            "t0": 65760, 
                            "v": 88, 
                            "dur": 240, 
                            "type": "note", 
                            "channel": 11
                        }
                    ]
                ], 
                [
                    66000, 
                    [
                        {
                            "pitch": 48, 
                            "t0": 66000, 
                            "v": 88, 
                            "dur": 240, 
                            "type": "note", 
                            "channel": 11
                        }
                    ]
                ], 
                [
                    66240, 
                    [
                        {
                            "pitch": 36, 
                            "t0": 66240, 
                            "v": 88, 
                            "dur": 240, 
                            "type": "note", 
                            "channel": 11
                        }
                    ]
                ], 
                [
                    66480, 
                    [
                        {
                            "pitch": 48, 
                            "t0": 66480, 
                            "v": 88, 
                            "dur": 240, 
                            "type": "note", 
                            "channel": 11
                        }
                    ]
                ], 
                [
                    66720, 
                    [
                        {
                            "pitch": 52, 
                            "t0": 66720, 
                            "v": 88, 
                            "dur": 240, 
                            "type": "note", 
                            "channel": 11
                        }
                    ]
                ], 
                [
                    66960, 
                    [
                        {
                            "pitch": 48, 
                            "t0": 66960, 
                            "v": 88, 
                            "dur": 240, 
                            "type": "note", 
                            "channel": 11
                        }
                    ]
                ], 
                [
                    67200, 
                    [
                        {
                            "pitch": 43, 
                            "t0": 67200, 
                            "v": 88, 
                            "dur": 240, 
                            "type": "note", 
                            "channel": 11
                        }
                    ]
                ], 
                [
                    67440, 
                    [
                        {
                            "pitch": 50, 
                            "t0": 67440, 
                            "v": 88, 
                            "dur": 240, 
                            "type": "note", 
                            "channel": 11
                        }
                    ]
                ], 
                [
                    67680, 
                    [
                        {
                            "pitch": 55, 
                            "t0": 67680, 
                            "v": 88, 
                            "dur": 240, 
                            "type": "note", 
                            "channel": 11
                        }
                    ]
                ], 
                [
                    67920, 
                    [
                        {
                            "pitch": 50, 
                            "t0": 67920, 
                            "v": 88, 
                            "dur": 240, 
                            "type": "note", 
                            "channel": 11
                        }
                    ]
                ], 
                [
                    68160, 
                    [
                        {
                            "pitch": 43, 
                            "t0": 68160, 
                            "v": 88, 
                            "dur": 240, 
                            "type": "note", 
                            "channel": 11
                        }
                    ]
                ], 
                [
                    68400, 
                    [
                        {
                            "pitch": 50, 
                            "t0": 68400, 
                            "v": 88, 
                            "dur": 240, 
                            "type": "note", 
                            "channel": 11
                        }
                    ]
                ], 
                [
                    68640, 
                    [
                        {
                            "pitch": 55, 
                            "t0": 68640, 
                            "v": 88, 
                            "dur": 240, 
                            "type": "note", 
                            "channel": 11
                        }
                    ]
                ], 
                [
                    68880, 
                    [
                        {
                            "pitch": 50, 
                            "t0": 68880, 
                            "v": 88, 
                            "dur": 240, 
                            "type": "note", 
                            "channel": 11
                        }
                    ]
                ], 
                [
                    69120, 
                    [
                        {
                            "pitch": 41, 
                            "t0": 69120, 
                            "v": 88, 
                            "dur": 240, 
                            "type": "note", 
                            "channel": 11
                        }
                    ]
                ], 
                [
                    69360, 
                    [
                        {
                            "pitch": 48, 
                            "t0": 69360, 
                            "v": 88, 
                            "dur": 240, 
                            "type": "note", 
                            "channel": 11
                        }
                    ]
                ], 
                [
                    69600, 
                    [
                        {
                            "pitch": 53, 
                            "t0": 69600, 
                            "v": 88, 
                            "dur": 240, 
                            "type": "note", 
                            "channel": 11
                        }
                    ]
                ], 
                [
                    69840, 
                    [
                        {
                            "pitch": 48, 
                            "t0": 69840, 
                            "v": 88, 
                            "dur": 240, 
                            "type": "note", 
                            "channel": 11
                        }
                    ]
                ], 
                [
                    70080, 
                    [
                        {
                            "pitch": 36, 
                            "t0": 70080, 
                            "v": 88, 
                            "dur": 240, 
                            "type": "note", 
                            "channel": 11
                        }
                    ]
                ], 
                [
                    70320, 
                    [
                        {
                            "pitch": 48, 
                            "t0": 70320, 
                            "v": 88, 
                            "dur": 240, 
                            "type": "note", 
                            "channel": 11
                        }
                    ]
                ], 
                [
                    70560, 
                    [
                        {
                            "pitch": 52, 
                            "t0": 70560, 
                            "v": 88, 
                            "dur": 240, 
                            "type": "note", 
                            "channel": 11
                        }
                    ]
                ], 
                [
                    70800, 
                    [
                        {
                            "pitch": 48, 
                            "t0": 70800, 
                            "v": 88, 
                            "dur": 240, 
                            "type": "note", 
                            "channel": 11
                        }
                    ]
                ], 
                [
                    71040, 
                    [
                        {
                            "pitch": 43, 
                            "t0": 71040, 
                            "v": 88, 
                            "dur": 240, 
                            "type": "note", 
                            "channel": 11
                        }
                    ]
                ], 
                [
                    71280, 
                    [
                        {
                            "pitch": 50, 
                            "t0": 71280, 
                            "v": 88, 
                            "dur": 240, 
                            "type": "note", 
                            "channel": 11
                        }
                    ]
                ], 
                [
                    71520, 
                    [
                        {
                            "pitch": 55, 
                            "t0": 71520, 
                            "v": 88, 
                            "dur": 240, 
                            "type": "note", 
                            "channel": 11
                        }
                    ]
                ], 
                [
                    71760, 
                    [
                        {
                            "pitch": 50, 
                            "t0": 71760, 
                            "v": 88, 
                            "dur": 240, 
                            "type": "note", 
                            "channel": 11
                        }
                    ]
                ], 
                [
                    72000, 
                    [
                        {
                            "pitch": 43, 
                            "t0": 72000, 
                            "v": 88, 
                            "dur": 240, 
                            "type": "note", 
                            "channel": 11
                        }
                    ]
                ], 
                [
                    72240, 
                    [
                        {
                            "pitch": 50, 
                            "t0": 72240, 
                            "v": 88, 
                            "dur": 240, 
                            "type": "note", 
                            "channel": 11
                        }
                    ]
                ], 
                [
                    72480, 
                    [
                        {
                            "pitch": 55, 
                            "t0": 72480, 
                            "v": 88, 
                            "dur": 240, 
                            "type": "note", 
                            "channel": 11
                        }
                    ]
                ], 
                [
                    72720, 
                    [
                        {
                            "pitch": 50, 
                            "t0": 72720, 
                            "v": 88, 
                            "dur": 240, 
                            "type": "note", 
                            "channel": 11
                        }
                    ]
                ], 
                [
                    72960, 
                    [
                        {
                            "pitch": 41, 
                            "t0": 72960, 
                            "v": 88, 
                            "dur": 240, 
                            "type": "note", 
                            "channel": 11
                        }
                    ]
                ], 
                [
                    73200, 
                    [
                        {
                            "pitch": 48, 
                            "t0": 73200, 
                            "v": 88, 
                            "dur": 240, 
                            "type": "note", 
                            "channel": 11
                        }
                    ]
                ], 
                [
                    73440, 
                    [
                        {
                            "pitch": 53, 
                            "t0": 73440, 
                            "v": 88, 
                            "dur": 240, 
                            "type": "note", 
                            "channel": 11
                        }
                    ]
                ], 
                [
                    73680, 
                    [
                        {
                            "pitch": 48, 
                            "t0": 73680, 
                            "v": 88, 
                            "dur": 240, 
                            "type": "note", 
                            "channel": 11
                        }
                    ]
                ], 
                [
                    73920, 
                    [
                        {
                            "pitch": 36, 
                            "t0": 73920, 
                            "v": 88, 
                            "dur": 240, 
                            "type": "note", 
                            "channel": 11
                        }
                    ]
                ], 
                [
                    74160, 
                    [
                        {
                            "pitch": 48, 
                            "t0": 74160, 
                            "v": 88, 
                            "dur": 240, 
                            "type": "note", 
                            "channel": 11
                        }
                    ]
                ], 
                [
                    74400, 
                    [
                        {
                            "pitch": 52, 
                            "t0": 74400, 
                            "v": 88, 
                            "dur": 240, 
                            "type": "note", 
                            "channel": 11
                        }
                    ]
                ], 
                [
                    74640, 
                    [
                        {
                            "pitch": 48, 
                            "t0": 74640, 
                            "v": 88, 
                            "dur": 240, 
                            "type": "note", 
                            "channel": 11
                        }
                    ]
                ], 
                [
                    74880, 
                    [
                        {
                            "pitch": 43, 
                            "t0": 74880, 
                            "v": 88, 
                            "dur": 240, 
                            "type": "note", 
                            "channel": 11
                        }
                    ]
                ], 
                [
                    75120, 
                    [
                        {
                            "pitch": 50, 
                            "t0": 75120, 
                            "v": 88, 
                            "dur": 240, 
                            "type": "note", 
                            "channel": 11
                        }
                    ]
                ], 
                [
                    75360, 
                    [
                        {
                            "pitch": 55, 
                            "t0": 75360, 
                            "v": 88, 
                            "dur": 240, 
                            "type": "note", 
                            "channel": 11
                        }
                    ]
                ], 
                [
                    75600, 
                    [
                        {
                            "pitch": 50, 
                            "t0": 75600, 
                            "v": 88, 
                            "dur": 240, 
                            "type": "note", 
                            "channel": 11
                        }
                    ]
                ], 
                [
                    75840, 
                    [
                        {
                            "pitch": 43, 
                            "t0": 75840, 
                            "v": 88, 
                            "dur": 240, 
                            "type": "note", 
                            "channel": 11
                        }
                    ]
                ], 
                [
                    76080, 
                    [
                        {
                            "pitch": 50, 
                            "t0": 76080, 
                            "v": 88, 
                            "dur": 240, 
                            "type": "note", 
                            "channel": 11
                        }
                    ]
                ], 
                [
                    76320, 
                    [
                        {
                            "pitch": 55, 
                            "t0": 76320, 
                            "v": 88, 
                            "dur": 240, 
                            "type": "note", 
                            "channel": 11
                        }
                    ]
                ], 
                [
                    76560, 
                    [
                        {
                            "pitch": 50, 
                            "t0": 76560, 
                            "v": 88, 
                            "dur": 240, 
                            "type": "note", 
                            "channel": 11
                        }
                    ]
                ], 
                [
                    76800, 
                    [
                        {
                            "pitch": 41, 
                            "t0": 76800, 
                            "v": 88, 
                            "dur": 240, 
                            "type": "note", 
                            "channel": 11
                        }
                    ]
                ], 
                [
                    77040, 
                    [
                        {
                            "pitch": 48, 
                            "t0": 77040, 
                            "v": 88, 
                            "dur": 240, 
                            "type": "note", 
                            "channel": 11
                        }
                    ]
                ], 
                [
                    77280, 
                    [
                        {
                            "pitch": 53, 
                            "t0": 77280, 
                            "v": 88, 
                            "dur": 240, 
                            "type": "note", 
                            "channel": 11
                        }
                    ]
                ], 
                [
                    77520, 
                    [
                        {
                            "pitch": 48, 
                            "t0": 77520, 
                            "v": 88, 
                            "dur": 240, 
                            "type": "note", 
                            "channel": 11
                        }
                    ]
                ], 
                [
                    77760, 
                    [
                        {
                            "pitch": 36, 
                            "t0": 77760, 
                            "v": 88, 
                            "dur": 240, 
                            "type": "note", 
                            "channel": 11
                        }
                    ]
                ], 
                [
                    78000, 
                    [
                        {
                            "pitch": 48, 
                            "t0": 78000, 
                            "v": 88, 
                            "dur": 240, 
                            "type": "note", 
                            "channel": 11
                        }
                    ]
                ], 
                [
                    78240, 
                    [
                        {
                            "pitch": 52, 
                            "t0": 78240, 
                            "v": 88, 
                            "dur": 240, 
                            "type": "note", 
                            "channel": 11
                        }
                    ]
                ], 
                [
                    78480, 
                    [
                        {
                            "pitch": 48, 
                            "t0": 78480, 
                            "v": 88, 
                            "dur": 240, 
                            "type": "note", 
                            "channel": 11
                        }
                    ]
                ], 
                [
                    138240, 
                    [
                        {
                            "pitch": 47, 
                            "t0": 138240, 
                            "v": 88, 
                            "dur": 240, 
                            "type": "note", 
                            "channel": 11
                        }
                    ]
                ], 
                [
                    138480, 
                    [
                        {
                            "pitch": 50, 
                            "t0": 138480, 
                            "v": 88, 
                            "dur": 240, 
                            "type": "note", 
                            "channel": 11
                        }
                    ]
                ], 
                [
                    138720, 
                    [
                        {
                            "pitch": 55, 
                            "t0": 138720, 
                            "v": 88, 
                            "dur": 240, 
                            "type": "note", 
                            "channel": 11
                        }
                    ]
                ], 
                [
                    138960, 
                    [
                        {
                            "pitch": 50, 
                            "t0": 138960, 
                            "v": 88, 
                            "dur": 240, 
                            "type": "note", 
                            "channel": 11
                        }
                    ]
                ], 
                [
                    139200, 
                    [
                        {
                            "pitch": 47, 
                            "t0": 139200, 
                            "v": 88, 
                            "dur": 240, 
                            "type": "note", 
                            "channel": 11
                        }
                    ]
                ], 
                [
                    139440, 
                    [
                        {
                            "pitch": 50, 
                            "t0": 139440, 
                            "v": 88, 
                            "dur": 240, 
                            "type": "note", 
                            "channel": 11
                        }
                    ]
                ], 
                [
                    139680, 
                    [
                        {
                            "pitch": 55, 
                            "t0": 139680, 
                            "v": 88, 
                            "dur": 240, 
                            "type": "note", 
                            "channel": 11
                        }
                    ]
                ], 
                [
                    139920, 
                    [
                        {
                            "pitch": 50, 
                            "t0": 139920, 
                            "v": 88, 
                            "dur": 240, 
                            "type": "note", 
                            "channel": 11
                        }
                    ]
                ], 
                [
                    140160, 
                    [
                        {
                            "pitch": 41, 
                            "t0": 140160, 
                            "v": 88, 
                            "dur": 240, 
                            "type": "note", 
                            "channel": 11
                        }
                    ]
                ], 
                [
                    140400, 
                    [
                        {
                            "pitch": 48, 
                            "t0": 140400, 
                            "v": 88, 
                            "dur": 240, 
                            "type": "note", 
                            "channel": 11
                        }
                    ]
                ], 
                [
                    140640, 
                    [
                        {
                            "pitch": 53, 
                            "t0": 140640, 
                            "v": 88, 
                            "dur": 240, 
                            "type": "note", 
                            "channel": 11
                        }
                    ]
                ], 
                [
                    140880, 
                    [
                        {
                            "pitch": 48, 
                            "t0": 140880, 
                            "v": 88, 
                            "dur": 240, 
                            "type": "note", 
                            "channel": 11
                        }
                    ]
                ], 
                [
                    141120, 
                    [
                        {
                            "pitch": 36, 
                            "t0": 141120, 
                            "v": 88, 
                            "dur": 240, 
                            "type": "note", 
                            "channel": 11
                        }
                    ]
                ], 
                [
                    141360, 
                    [
                        {
                            "pitch": 48, 
                            "t0": 141360, 
                            "v": 88, 
                            "dur": 240, 
                            "type": "note", 
                            "channel": 11
                        }
                    ]
                ], 
                [
                    141600, 
                    [
                        {
                            "pitch": 52, 
                            "t0": 141600, 
                            "v": 88, 
                            "dur": 240, 
                            "type": "note", 
                            "channel": 11
                        }
                    ]
                ], 
                [
                    141840, 
                    [
                        {
                            "pitch": 48, 
                            "t0": 141840, 
                            "v": 88, 
                            "dur": 240, 
                            "type": "note", 
                            "channel": 11
                        }
                    ]
                ], 
                [
                    142080, 
                    [
                        {
                            "pitch": 43, 
                            "t0": 142080, 
                            "v": 88, 
                            "dur": 240, 
                            "type": "note", 
                            "channel": 11
                        }
                    ]
                ], 
                [
                    142320, 
                    [
                        {
                            "pitch": 50, 
                            "t0": 142320, 
                            "v": 88, 
                            "dur": 240, 
                            "type": "note", 
                            "channel": 11
                        }
                    ]
                ], 
                [
                    142560, 
                    [
                        {
                            "pitch": 55, 
                            "t0": 142560, 
                            "v": 88, 
                            "dur": 240, 
                            "type": "note", 
                            "channel": 11
                        }
                    ]
                ], 
                [
                    142800, 
                    [
                        {
                            "pitch": 50, 
                            "t0": 142800, 
                            "v": 88, 
                            "dur": 240, 
                            "type": "note", 
                            "channel": 11
                        }
                    ]
                ], 
                [
                    143040, 
                    [
                        {
                            "pitch": 43, 
                            "t0": 143040, 
                            "v": 88, 
                            "dur": 240, 
                            "type": "note", 
                            "channel": 11
                        }
                    ]
                ], 
                [
                    143280, 
                    [
                        {
                            "pitch": 50, 
                            "t0": 143280, 
                            "v": 88, 
                            "dur": 240, 
                            "type": "note", 
                            "channel": 11
                        }
                    ]
                ], 
                [
                    143520, 
                    [
                        {
                            "pitch": 55, 
                            "t0": 143520, 
                            "v": 88, 
                            "dur": 240, 
                            "type": "note", 
                            "channel": 11
                        }
                    ]
                ], 
                [
                    143760, 
                    [
                        {
                            "pitch": 50, 
                            "t0": 143760, 
                            "v": 88, 
                            "dur": 240, 
                            "type": "note", 
                            "channel": 11
                        }
                    ]
                ], 
                [
                    144000, 
                    [
                        {
                            "pitch": 41, 
                            "t0": 144000, 
                            "v": 88, 
                            "dur": 240, 
                            "type": "note", 
                            "channel": 11
                        }
                    ]
                ], 
                [
                    144240, 
                    [
                        {
                            "pitch": 48, 
                            "t0": 144240, 
                            "v": 88, 
                            "dur": 240, 
                            "type": "note", 
                            "channel": 11
                        }
                    ]
                ], 
                [
                    144480, 
                    [
                        {
                            "pitch": 53, 
                            "t0": 144480, 
                            "v": 88, 
                            "dur": 240, 
                            "type": "note", 
                            "channel": 11
                        }
                    ]
                ], 
                [
                    144720, 
                    [
                        {
                            "pitch": 48, 
                            "t0": 144720, 
                            "v": 88, 
                            "dur": 240, 
                            "type": "note", 
                            "channel": 11
                        }
                    ]
                ], 
                [
                    144960, 
                    [
                        {
                            "pitch": 36, 
                            "t0": 144960, 
                            "v": 88, 
                            "dur": 240, 
                            "type": "note", 
                            "channel": 11
                        }
                    ]
                ], 
                [
                    145200, 
                    [
                        {
                            "pitch": 48, 
                            "t0": 145200, 
                            "v": 88, 
                            "dur": 240, 
                            "type": "note", 
                            "channel": 11
                        }
                    ]
                ], 
                [
                    145440, 
                    [
                        {
                            "pitch": 52, 
                            "t0": 145440, 
                            "v": 88, 
                            "dur": 240, 
                            "type": "note", 
                            "channel": 11
                        }
                    ]
                ], 
                [
                    145680, 
                    [
                        {
                            "pitch": 48, 
                            "t0": 145680, 
                            "v": 88, 
                            "dur": 240, 
                            "type": "note", 
                            "channel": 11
                        }
                    ]
                ], 
                [
                    145920, 
                    [
                        {
                            "pitch": 43, 
                            "t0": 145920, 
                            "v": 88, 
                            "dur": 240, 
                            "type": "note", 
                            "channel": 11
                        }
                    ]
                ], 
                [
                    146160, 
                    [
                        {
                            "pitch": 50, 
                            "t0": 146160, 
                            "v": 88, 
                            "dur": 240, 
                            "type": "note", 
                            "channel": 11
                        }
                    ]
                ], 
                [
                    146400, 
                    [
                        {
                            "pitch": 55, 
                            "t0": 146400, 
                            "v": 88, 
                            "dur": 240, 
                            "type": "note", 
                            "channel": 11
                        }
                    ]
                ], 
                [
                    146640, 
                    [
                        {
                            "pitch": 50, 
                            "t0": 146640, 
                            "v": 88, 
                            "dur": 240, 
                            "type": "note", 
                            "channel": 11
                        }
                    ]
                ], 
                [
                    146880, 
                    [
                        {
                            "pitch": 43, 
                            "t0": 146880, 
                            "v": 88, 
                            "dur": 240, 
                            "type": "note", 
                            "channel": 11
                        }
                    ]
                ], 
                [
                    147120, 
                    [
                        {
                            "pitch": 50, 
                            "t0": 147120, 
                            "v": 88, 
                            "dur": 240, 
                            "type": "note", 
                            "channel": 11
                        }
                    ]
                ], 
                [
                    147360, 
                    [
                        {
                            "pitch": 55, 
                            "t0": 147360, 
                            "v": 88, 
                            "dur": 240, 
                            "type": "note", 
                            "channel": 11
                        }
                    ]
                ], 
                [
                    147600, 
                    [
                        {
                            "pitch": 50, 
                            "t0": 147600, 
                            "v": 88, 
                            "dur": 240, 
                            "type": "note", 
                            "channel": 11
                        }
                    ]
                ], 
                [
                    147840, 
                    [
                        {
                            "pitch": 41, 
                            "t0": 147840, 
                            "v": 88, 
                            "dur": 240, 
                            "type": "note", 
                            "channel": 11
                        }
                    ]
                ], 
                [
                    148080, 
                    [
                        {
                            "pitch": 48, 
                            "t0": 148080, 
                            "v": 88, 
                            "dur": 240, 
                            "type": "note", 
                            "channel": 11
                        }
                    ]
                ], 
                [
                    148320, 
                    [
                        {
                            "pitch": 53, 
                            "t0": 148320, 
                            "v": 88, 
                            "dur": 240, 
                            "type": "note", 
                            "channel": 11
                        }
                    ]
                ], 
                [
                    148560, 
                    [
                        {
                            "pitch": 48, 
                            "t0": 148560, 
                            "v": 88, 
                            "dur": 240, 
                            "type": "note", 
                            "channel": 11
                        }
                    ]
                ], 
                [
                    148800, 
                    [
                        {
                            "pitch": 36, 
                            "t0": 148800, 
                            "v": 88, 
                            "dur": 240, 
                            "type": "note", 
                            "channel": 11
                        }
                    ]
                ], 
                [
                    149040, 
                    [
                        {
                            "pitch": 48, 
                            "t0": 149040, 
                            "v": 88, 
                            "dur": 240, 
                            "type": "note", 
                            "channel": 11
                        }
                    ]
                ], 
                [
                    149280, 
                    [
                        {
                            "pitch": 52, 
                            "t0": 149280, 
                            "v": 88, 
                            "dur": 240, 
                            "type": "note", 
                            "channel": 11
                        }
                    ]
                ], 
                [
                    149520, 
                    [
                        {
                            "pitch": 48, 
                            "t0": 149520, 
                            "v": 88, 
                            "dur": 240, 
                            "type": "note", 
                            "channel": 11
                        }
                    ]
                ], 
                [
                    149760, 
                    [
                        {
                            "pitch": 43, 
                            "t0": 149760, 
                            "v": 88, 
                            "dur": 240, 
                            "type": "note", 
                            "channel": 11
                        }
                    ]
                ], 
                [
                    150000, 
                    [
                        {
                            "pitch": 50, 
                            "t0": 150000, 
                            "v": 88, 
                            "dur": 240, 
                            "type": "note", 
                            "channel": 11
                        }
                    ]
                ], 
                [
                    150240, 
                    [
                        {
                            "pitch": 55, 
                            "t0": 150240, 
                            "v": 88, 
                            "dur": 240, 
                            "type": "note", 
                            "channel": 11
                        }
                    ]
                ], 
                [
                    150480, 
                    [
                        {
                            "pitch": 50, 
                            "t0": 150480, 
                            "v": 88, 
                            "dur": 240, 
                            "type": "note", 
                            "channel": 11
                        }
                    ]
                ], 
                [
                    150720, 
                    [
                        {
                            "pitch": 43, 
                            "t0": 150720, 
                            "v": 88, 
                            "dur": 240, 
                            "type": "note", 
                            "channel": 11
                        }
                    ]
                ], 
                [
                    150960, 
                    [
                        {
                            "pitch": 50, 
                            "t0": 150960, 
                            "v": 88, 
                            "dur": 240, 
                            "type": "note", 
                            "channel": 11
                        }
                    ]
                ], 
                [
                    151200, 
                    [
                        {
                            "pitch": 55, 
                            "t0": 151200, 
                            "v": 88, 
                            "dur": 240, 
                            "type": "note", 
                            "channel": 11
                        }
                    ]
                ], 
                [
                    151440, 
                    [
                        {
                            "pitch": 50, 
                            "t0": 151440, 
                            "v": 88, 
                            "dur": 240, 
                            "type": "note", 
                            "channel": 11
                        }
                    ]
                ], 
                [
                    151680, 
                    [
                        {
                            "pitch": 41, 
                            "t0": 151680, 
                            "v": 88, 
                            "dur": 240, 
                            "type": "note", 
                            "channel": 11
                        }
                    ]
                ], 
                [
                    151920, 
                    [
                        {
                            "pitch": 48, 
                            "t0": 151920, 
                            "v": 88, 
                            "dur": 240, 
                            "type": "note", 
                            "channel": 11
                        }
                    ]
                ], 
                [
                    152160, 
                    [
                        {
                            "pitch": 53, 
                            "t0": 152160, 
                            "v": 88, 
                            "dur": 240, 
                            "type": "note", 
                            "channel": 11
                        }
                    ]
                ], 
                [
                    152400, 
                    [
                        {
                            "pitch": 48, 
                            "t0": 152400, 
                            "v": 88, 
                            "dur": 240, 
                            "type": "note", 
                            "channel": 11
                        }
                    ]
                ], 
                [
                    152640, 
                    [
                        {
                            "pitch": 36, 
                            "t0": 152640, 
                            "v": 88, 
                            "dur": 240, 
                            "type": "note", 
                            "channel": 11
                        }
                    ]
                ], 
                [
                    152880, 
                    [
                        {
                            "pitch": 48, 
                            "t0": 152880, 
                            "v": 88, 
                            "dur": 240, 
                            "type": "note", 
                            "channel": 11
                        }
                    ]
                ], 
                [
                    153120, 
                    [
                        {
                            "pitch": 52, 
                            "t0": 153120, 
                            "v": 88, 
                            "dur": 240, 
                            "type": "note", 
                            "channel": 11
                        }
                    ]
                ], 
                [
                    153360, 
                    [
                        {
                            "pitch": 48, 
                            "t0": 153360, 
                            "v": 88, 
                            "dur": 240, 
                            "type": "note", 
                            "channel": 11
                        }
                    ]
                ]
            ], 
            "instruments": [
                0
            ], 
            "tMax": 153360, 
            "channels": [
                11
            ], 
            "instrument": 0, 
            "numNotes": 210, 
            "type": "TrackObj"
        }, 
        {
            "trackName": "Track-4", 
            "seq": [
                [
                    1920, 
                    [
                        {
                            "instrument": 0, 
                            "type": "programChange", 
                            "t0": 1920, 
                            "channel": 13
                        }
                    ]
                ], 
                [
                    13440, 
                    [
                        {
                            "pitch": 43, 
                            "t0": 13440, 
                            "v": 88, 
                            "dur": 240, 
                            "type": "note", 
                            "channel": 13
                        }
                    ]
                ], 
                [
                    13680, 
                    [
                        {
                            "pitch": 43, 
                            "t0": 13680, 
                            "v": 88, 
                            "dur": 240, 
                            "type": "note", 
                            "channel": 13
                        }
                    ]
                ], 
                [
                    13920, 
                    [
                        {
                            "pitch": 55, 
                            "t0": 13920, 
                            "v": 88, 
                            "dur": 240, 
                            "type": "note", 
                            "channel": 13
                        }, 
                        {
                            "pitch": 43, 
                            "t0": 13920, 
                            "v": 88, 
                            "dur": 240, 
                            "type": "note", 
                            "channel": 13
                        }, 
                        {
                            "pitch": 47, 
                            "t0": 13920, 
                            "v": 88, 
                            "dur": 240, 
                            "type": "note", 
                            "channel": 13
                        }, 
                        {
                            "pitch": 50, 
                            "t0": 13920, 
                            "v": 88, 
                            "dur": 240, 
                            "type": "note", 
                            "channel": 13
                        }
                    ]
                ], 
                [
                    14640, 
                    [
                        {
                            "pitch": 43, 
                            "t0": 14640, 
                            "v": 88, 
                            "dur": 240, 
                            "type": "note", 
                            "channel": 13
                        }
                    ]
                ], 
                [
                    14880, 
                    [
                        {
                            "pitch": 43, 
                            "t0": 14880, 
                            "v": 88, 
                            "dur": 240, 
                            "type": "note", 
                            "channel": 13
                        }
                    ]
                ], 
                [
                    15120, 
                    [
                        {
                            "pitch": 55, 
                            "t0": 15120, 
                            "v": 88, 
                            "dur": 240, 
                            "type": "note", 
                            "channel": 13
                        }, 
                        {
                            "pitch": 43, 
                            "t0": 15120, 
                            "v": 88, 
                            "dur": 240, 
                            "type": "note", 
                            "channel": 13
                        }, 
                        {
                            "pitch": 47, 
                            "t0": 15120, 
                            "v": 88, 
                            "dur": 240, 
                            "type": "note", 
                            "channel": 13
                        }, 
                        {
                            "pitch": 50, 
                            "t0": 15120, 
                            "v": 88, 
                            "dur": 240, 
                            "type": "note", 
                            "channel": 13
                        }
                    ]
                ], 
                [
                    15360, 
                    [
                        {
                            "pitch": 41, 
                            "t0": 15360, 
                            "v": 88, 
                            "dur": 240, 
                            "type": "note", 
                            "channel": 13
                        }
                    ]
                ], 
                [
                    15600, 
                    [
                        {
                            "pitch": 41, 
                            "t0": 15600, 
                            "v": 88, 
                            "dur": 240, 
                            "type": "note", 
                            "channel": 13
                        }
                    ]
                ], 
                [
                    15840, 
                    [
                        {
                            "pitch": 53, 
                            "t0": 15840, 
                            "v": 88, 
                            "dur": 240, 
                            "type": "note", 
                            "channel": 13
                        }, 
                        {
                            "pitch": 41, 
                            "t0": 15840, 
                            "v": 88, 
                            "dur": 240, 
                            "type": "note", 
                            "channel": 13
                        }, 
                        {
                            "pitch": 45, 
                            "t0": 15840, 
                            "v": 88, 
                            "dur": 240, 
                            "type": "note", 
                            "channel": 13
                        }, 
                        {
                            "pitch": 48, 
                            "t0": 15840, 
                            "v": 88, 
                            "dur": 240, 
                            "type": "note", 
                            "channel": 13
                        }
                    ]
                ], 
                [
                    16080, 
                    [
                        {
                            "pitch": 36, 
                            "t0": 16080, 
                            "v": 88, 
                            "dur": 240, 
                            "type": "note", 
                            "channel": 13
                        }
                    ]
                ], 
                [
                    16320, 
                    [
                        {
                            "pitch": 36, 
                            "t0": 16320, 
                            "v": 88, 
                            "dur": 240, 
                            "type": "note", 
                            "channel": 13
                        }
                    ]
                ], 
                [
                    16560, 
                    [
                        {
                            "pitch": 52, 
                            "t0": 16560, 
                            "v": 88, 
                            "dur": 240, 
                            "type": "note", 
                            "channel": 13
                        }, 
                        {
                            "pitch": 43, 
                            "t0": 16560, 
                            "v": 88, 
                            "dur": 240, 
                            "type": "note", 
                            "channel": 13
                        }, 
                        {
                            "pitch": 48, 
                            "t0": 16560, 
                            "v": 88, 
                            "dur": 240, 
                            "type": "note", 
                            "channel": 13
                        }
                    ]
                ], 
                [
                    17040, 
                    [
                        {
                            "pitch": 38, 
                            "t0": 17040, 
                            "v": 88, 
                            "dur": 240, 
                            "type": "note", 
                            "channel": 13
                        }
                    ]
                ], 
                [
                    17280, 
                    [
                        {
                            "pitch": 43, 
                            "t0": 17280, 
                            "v": 88, 
                            "dur": 240, 
                            "type": "note", 
                            "channel": 13
                        }
                    ]
                ], 
                [
                    17520, 
                    [
                        {
                            "pitch": 43, 
                            "t0": 17520, 
                            "v": 88, 
                            "dur": 240, 
                            "type": "note", 
                            "channel": 13
                        }
                    ]
                ], 
                [
                    17760, 
                    [
                        {
                            "pitch": 55, 
                            "t0": 17760, 
                            "v": 88, 
                            "dur": 240, 
                            "type": "note", 
                            "channel": 13
                        }, 
                        {
                            "pitch": 43, 
                            "t0": 17760, 
                            "v": 88, 
                            "dur": 240, 
                            "type": "note", 
                            "channel": 13
                        }, 
                        {
                            "pitch": 47, 
                            "t0": 17760, 
                            "v": 88, 
                            "dur": 240, 
                            "type": "note", 
                            "channel": 13
                        }, 
                        {
                            "pitch": 50, 
                            "t0": 17760, 
                            "v": 88, 
                            "dur": 240, 
                            "type": "note", 
                            "channel": 13
                        }
                    ]
                ], 
                [
                    18480, 
                    [
                        {
                            "pitch": 43, 
                            "t0": 18480, 
                            "v": 88, 
                            "dur": 240, 
                            "type": "note", 
                            "channel": 13
                        }
                    ]
                ], 
                [
                    18720, 
                    [
                        {
                            "pitch": 43, 
                            "t0": 18720, 
                            "v": 88, 
                            "dur": 240, 
                            "type": "note", 
                            "channel": 13
                        }
                    ]
                ], 
                [
                    18960, 
                    [
                        {
                            "pitch": 55, 
                            "t0": 18960, 
                            "v": 88, 
                            "dur": 240, 
                            "type": "note", 
                            "channel": 13
                        }, 
                        {
                            "pitch": 43, 
                            "t0": 18960, 
                            "v": 88, 
                            "dur": 240, 
                            "type": "note", 
                            "channel": 13
                        }, 
                        {
                            "pitch": 47, 
                            "t0": 18960, 
                            "v": 88, 
                            "dur": 240, 
                            "type": "note", 
                            "channel": 13
                        }, 
                        {
                            "pitch": 50, 
                            "t0": 18960, 
                            "v": 88, 
                            "dur": 240, 
                            "type": "note", 
                            "channel": 13
                        }
                    ]
                ], 
                [
                    19200, 
                    [
                        {
                            "pitch": 41, 
                            "t0": 19200, 
                            "v": 88, 
                            "dur": 240, 
                            "type": "note", 
                            "channel": 13
                        }
                    ]
                ], 
                [
                    19440, 
                    [
                        {
                            "pitch": 41, 
                            "t0": 19440, 
                            "v": 88, 
                            "dur": 240, 
                            "type": "note", 
                            "channel": 13
                        }
                    ]
                ], 
                [
                    19680, 
                    [
                        {
                            "pitch": 53, 
                            "t0": 19680, 
                            "v": 88, 
                            "dur": 240, 
                            "type": "note", 
                            "channel": 13
                        }, 
                        {
                            "pitch": 41, 
                            "t0": 19680, 
                            "v": 88, 
                            "dur": 240, 
                            "type": "note", 
                            "channel": 13
                        }, 
                        {
                            "pitch": 45, 
                            "t0": 19680, 
                            "v": 88, 
                            "dur": 240, 
                            "type": "note", 
                            "channel": 13
                        }, 
                        {
                            "pitch": 48, 
                            "t0": 19680, 
                            "v": 88, 
                            "dur": 240, 
                            "type": "note", 
                            "channel": 13
                        }
                    ]
                ], 
                [
                    19920, 
                    [
                        {
                            "pitch": 36, 
                            "t0": 19920, 
                            "v": 88, 
                            "dur": 240, 
                            "type": "note", 
                            "channel": 13
                        }
                    ]
                ], 
                [
                    20160, 
                    [
                        {
                            "pitch": 36, 
                            "t0": 20160, 
                            "v": 88, 
                            "dur": 240, 
                            "type": "note", 
                            "channel": 13
                        }
                    ]
                ], 
                [
                    20400, 
                    [
                        {
                            "pitch": 52, 
                            "t0": 20400, 
                            "v": 88, 
                            "dur": 240, 
                            "type": "note", 
                            "channel": 13
                        }, 
                        {
                            "pitch": 43, 
                            "t0": 20400, 
                            "v": 88, 
                            "dur": 240, 
                            "type": "note", 
                            "channel": 13
                        }, 
                        {
                            "pitch": 48, 
                            "t0": 20400, 
                            "v": 88, 
                            "dur": 240, 
                            "type": "note", 
                            "channel": 13
                        }
                    ]
                ], 
                [
                    20880, 
                    [
                        {
                            "pitch": 38, 
                            "t0": 20880, 
                            "v": 88, 
                            "dur": 240, 
                            "type": "note", 
                            "channel": 13
                        }
                    ]
                ], 
                [
                    21120, 
                    [
                        {
                            "pitch": 43, 
                            "t0": 21120, 
                            "v": 88, 
                            "dur": 240, 
                            "type": "note", 
                            "channel": 13
                        }
                    ]
                ], 
                [
                    21360, 
                    [
                        {
                            "pitch": 43, 
                            "t0": 21360, 
                            "v": 88, 
                            "dur": 240, 
                            "type": "note", 
                            "channel": 13
                        }
                    ]
                ], 
                [
                    21600, 
                    [
                        {
                            "pitch": 55, 
                            "t0": 21600, 
                            "v": 88, 
                            "dur": 240, 
                            "type": "note", 
                            "channel": 13
                        }, 
                        {
                            "pitch": 43, 
                            "t0": 21600, 
                            "v": 88, 
                            "dur": 240, 
                            "type": "note", 
                            "channel": 13
                        }, 
                        {
                            "pitch": 47, 
                            "t0": 21600, 
                            "v": 88, 
                            "dur": 240, 
                            "type": "note", 
                            "channel": 13
                        }, 
                        {
                            "pitch": 50, 
                            "t0": 21600, 
                            "v": 88, 
                            "dur": 240, 
                            "type": "note", 
                            "channel": 13
                        }
                    ]
                ], 
                [
                    22320, 
                    [
                        {
                            "pitch": 43, 
                            "t0": 22320, 
                            "v": 88, 
                            "dur": 240, 
                            "type": "note", 
                            "channel": 13
                        }
                    ]
                ], 
                [
                    22560, 
                    [
                        {
                            "pitch": 43, 
                            "t0": 22560, 
                            "v": 88, 
                            "dur": 240, 
                            "type": "note", 
                            "channel": 13
                        }
                    ]
                ], 
                [
                    22800, 
                    [
                        {
                            "pitch": 55, 
                            "t0": 22800, 
                            "v": 88, 
                            "dur": 240, 
                            "type": "note", 
                            "channel": 13
                        }, 
                        {
                            "pitch": 43, 
                            "t0": 22800, 
                            "v": 88, 
                            "dur": 240, 
                            "type": "note", 
                            "channel": 13
                        }, 
                        {
                            "pitch": 47, 
                            "t0": 22800, 
                            "v": 88, 
                            "dur": 240, 
                            "type": "note", 
                            "channel": 13
                        }, 
                        {
                            "pitch": 50, 
                            "t0": 22800, 
                            "v": 88, 
                            "dur": 240, 
                            "type": "note", 
                            "channel": 13
                        }
                    ]
                ], 
                [
                    23040, 
                    [
                        {
                            "pitch": 41, 
                            "t0": 23040, 
                            "v": 88, 
                            "dur": 240, 
                            "type": "note", 
                            "channel": 13
                        }
                    ]
                ], 
                [
                    23280, 
                    [
                        {
                            "pitch": 41, 
                            "t0": 23280, 
                            "v": 88, 
                            "dur": 240, 
                            "type": "note", 
                            "channel": 13
                        }
                    ]
                ], 
                [
                    23520, 
                    [
                        {
                            "pitch": 53, 
                            "t0": 23520, 
                            "v": 88, 
                            "dur": 240, 
                            "type": "note", 
                            "channel": 13
                        }, 
                        {
                            "pitch": 41, 
                            "t0": 23520, 
                            "v": 88, 
                            "dur": 240, 
                            "type": "note", 
                            "channel": 13
                        }, 
                        {
                            "pitch": 45, 
                            "t0": 23520, 
                            "v": 88, 
                            "dur": 240, 
                            "type": "note", 
                            "channel": 13
                        }, 
                        {
                            "pitch": 48, 
                            "t0": 23520, 
                            "v": 88, 
                            "dur": 240, 
                            "type": "note", 
                            "channel": 13
                        }
                    ]
                ], 
                [
                    23760, 
                    [
                        {
                            "pitch": 36, 
                            "t0": 23760, 
                            "v": 88, 
                            "dur": 240, 
                            "type": "note", 
                            "channel": 13
                        }
                    ]
                ], 
                [
                    24000, 
                    [
                        {
                            "pitch": 36, 
                            "t0": 24000, 
                            "v": 88, 
                            "dur": 240, 
                            "type": "note", 
                            "channel": 13
                        }
                    ]
                ], 
                [
                    24240, 
                    [
                        {
                            "pitch": 52, 
                            "t0": 24240, 
                            "v": 88, 
                            "dur": 240, 
                            "type": "note", 
                            "channel": 13
                        }, 
                        {
                            "pitch": 43, 
                            "t0": 24240, 
                            "v": 88, 
                            "dur": 240, 
                            "type": "note", 
                            "channel": 13
                        }, 
                        {
                            "pitch": 48, 
                            "t0": 24240, 
                            "v": 88, 
                            "dur": 240, 
                            "type": "note", 
                            "channel": 13
                        }
                    ]
                ], 
                [
                    24720, 
                    [
                        {
                            "pitch": 38, 
                            "t0": 24720, 
                            "v": 88, 
                            "dur": 240, 
                            "type": "note", 
                            "channel": 13
                        }
                    ]
                ], 
                [
                    24960, 
                    [
                        {
                            "pitch": 43, 
                            "t0": 24960, 
                            "v": 88, 
                            "dur": 240, 
                            "type": "note", 
                            "channel": 13
                        }
                    ]
                ], 
                [
                    25200, 
                    [
                        {
                            "pitch": 43, 
                            "t0": 25200, 
                            "v": 88, 
                            "dur": 240, 
                            "type": "note", 
                            "channel": 13
                        }
                    ]
                ], 
                [
                    25440, 
                    [
                        {
                            "pitch": 55, 
                            "t0": 25440, 
                            "v": 88, 
                            "dur": 240, 
                            "type": "note", 
                            "channel": 13
                        }, 
                        {
                            "pitch": 43, 
                            "t0": 25440, 
                            "v": 88, 
                            "dur": 240, 
                            "type": "note", 
                            "channel": 13
                        }, 
                        {
                            "pitch": 47, 
                            "t0": 25440, 
                            "v": 88, 
                            "dur": 240, 
                            "type": "note", 
                            "channel": 13
                        }, 
                        {
                            "pitch": 50, 
                            "t0": 25440, 
                            "v": 88, 
                            "dur": 240, 
                            "type": "note", 
                            "channel": 13
                        }
                    ]
                ], 
                [
                    26160, 
                    [
                        {
                            "pitch": 43, 
                            "t0": 26160, 
                            "v": 88, 
                            "dur": 240, 
                            "type": "note", 
                            "channel": 13
                        }
                    ]
                ], 
                [
                    26400, 
                    [
                        {
                            "pitch": 43, 
                            "t0": 26400, 
                            "v": 88, 
                            "dur": 240, 
                            "type": "note", 
                            "channel": 13
                        }
                    ]
                ], 
                [
                    26640, 
                    [
                        {
                            "pitch": 55, 
                            "t0": 26640, 
                            "v": 88, 
                            "dur": 240, 
                            "type": "note", 
                            "channel": 13
                        }, 
                        {
                            "pitch": 43, 
                            "t0": 26640, 
                            "v": 88, 
                            "dur": 240, 
                            "type": "note", 
                            "channel": 13
                        }, 
                        {
                            "pitch": 47, 
                            "t0": 26640, 
                            "v": 88, 
                            "dur": 240, 
                            "type": "note", 
                            "channel": 13
                        }, 
                        {
                            "pitch": 50, 
                            "t0": 26640, 
                            "v": 88, 
                            "dur": 240, 
                            "type": "note", 
                            "channel": 13
                        }
                    ]
                ], 
                [
                    26880, 
                    [
                        {
                            "pitch": 41, 
                            "t0": 26880, 
                            "v": 88, 
                            "dur": 240, 
                            "type": "note", 
                            "channel": 13
                        }
                    ]
                ], 
                [
                    27120, 
                    [
                        {
                            "pitch": 41, 
                            "t0": 27120, 
                            "v": 88, 
                            "dur": 240, 
                            "type": "note", 
                            "channel": 13
                        }
                    ]
                ], 
                [
                    27360, 
                    [
                        {
                            "pitch": 53, 
                            "t0": 27360, 
                            "v": 88, 
                            "dur": 240, 
                            "type": "note", 
                            "channel": 13
                        }, 
                        {
                            "pitch": 41, 
                            "t0": 27360, 
                            "v": 88, 
                            "dur": 240, 
                            "type": "note", 
                            "channel": 13
                        }, 
                        {
                            "pitch": 45, 
                            "t0": 27360, 
                            "v": 88, 
                            "dur": 240, 
                            "type": "note", 
                            "channel": 13
                        }, 
                        {
                            "pitch": 48, 
                            "t0": 27360, 
                            "v": 88, 
                            "dur": 240, 
                            "type": "note", 
                            "channel": 13
                        }
                    ]
                ], 
                [
                    27600, 
                    [
                        {
                            "pitch": 36, 
                            "t0": 27600, 
                            "v": 88, 
                            "dur": 240, 
                            "type": "note", 
                            "channel": 13
                        }
                    ]
                ], 
                [
                    27840, 
                    [
                        {
                            "pitch": 36, 
                            "t0": 27840, 
                            "v": 88, 
                            "dur": 240, 
                            "type": "note", 
                            "channel": 13
                        }
                    ]
                ], 
                [
                    28080, 
                    [
                        {
                            "pitch": 52, 
                            "t0": 28080, 
                            "v": 88, 
                            "dur": 240, 
                            "type": "note", 
                            "channel": 13
                        }, 
                        {
                            "pitch": 43, 
                            "t0": 28080, 
                            "v": 88, 
                            "dur": 240, 
                            "type": "note", 
                            "channel": 13
                        }, 
                        {
                            "pitch": 48, 
                            "t0": 28080, 
                            "v": 88, 
                            "dur": 240, 
                            "type": "note", 
                            "channel": 13
                        }
                    ]
                ], 
                [
                    48000, 
                    [
                        {
                            "pitch": 43, 
                            "t0": 48000, 
                            "v": 88, 
                            "dur": 240, 
                            "type": "note", 
                            "channel": 13
                        }
                    ]
                ], 
                [
                    48240, 
                    [
                        {
                            "pitch": 43, 
                            "t0": 48240, 
                            "v": 88, 
                            "dur": 240, 
                            "type": "note", 
                            "channel": 13
                        }
                    ]
                ], 
                [
                    48480, 
                    [
                        {
                            "pitch": 55, 
                            "t0": 48480, 
                            "v": 88, 
                            "dur": 240, 
                            "type": "note", 
                            "channel": 13
                        }, 
                        {
                            "pitch": 43, 
                            "t0": 48480, 
                            "v": 88, 
                            "dur": 240, 
                            "type": "note", 
                            "channel": 13
                        }, 
                        {
                            "pitch": 47, 
                            "t0": 48480, 
                            "v": 88, 
                            "dur": 240, 
                            "type": "note", 
                            "channel": 13
                        }, 
                        {
                            "pitch": 50, 
                            "t0": 48480, 
                            "v": 88, 
                            "dur": 240, 
                            "type": "note", 
                            "channel": 13
                        }
                    ]
                ], 
                [
                    49200, 
                    [
                        {
                            "pitch": 43, 
                            "t0": 49200, 
                            "v": 88, 
                            "dur": 240, 
                            "type": "note", 
                            "channel": 13
                        }
                    ]
                ], 
                [
                    49440, 
                    [
                        {
                            "pitch": 43, 
                            "t0": 49440, 
                            "v": 88, 
                            "dur": 240, 
                            "type": "note", 
                            "channel": 13
                        }
                    ]
                ], 
                [
                    49680, 
                    [
                        {
                            "pitch": 55, 
                            "t0": 49680, 
                            "v": 88, 
                            "dur": 240, 
                            "type": "note", 
                            "channel": 13
                        }, 
                        {
                            "pitch": 43, 
                            "t0": 49680, 
                            "v": 88, 
                            "dur": 240, 
                            "type": "note", 
                            "channel": 13
                        }, 
                        {
                            "pitch": 47, 
                            "t0": 49680, 
                            "v": 88, 
                            "dur": 240, 
                            "type": "note", 
                            "channel": 13
                        }, 
                        {
                            "pitch": 50, 
                            "t0": 49680, 
                            "v": 88, 
                            "dur": 240, 
                            "type": "note", 
                            "channel": 13
                        }
                    ]
                ], 
                [
                    49920, 
                    [
                        {
                            "pitch": 41, 
                            "t0": 49920, 
                            "v": 88, 
                            "dur": 240, 
                            "type": "note", 
                            "channel": 13
                        }
                    ]
                ], 
                [
                    50160, 
                    [
                        {
                            "pitch": 41, 
                            "t0": 50160, 
                            "v": 88, 
                            "dur": 240, 
                            "type": "note", 
                            "channel": 13
                        }
                    ]
                ], 
                [
                    50400, 
                    [
                        {
                            "pitch": 53, 
                            "t0": 50400, 
                            "v": 88, 
                            "dur": 240, 
                            "type": "note", 
                            "channel": 13
                        }, 
                        {
                            "pitch": 41, 
                            "t0": 50400, 
                            "v": 88, 
                            "dur": 240, 
                            "type": "note", 
                            "channel": 13
                        }, 
                        {
                            "pitch": 45, 
                            "t0": 50400, 
                            "v": 88, 
                            "dur": 240, 
                            "type": "note", 
                            "channel": 13
                        }, 
                        {
                            "pitch": 48, 
                            "t0": 50400, 
                            "v": 88, 
                            "dur": 240, 
                            "type": "note", 
                            "channel": 13
                        }
                    ]
                ], 
                [
                    50880, 
                    [
                        {
                            "pitch": 36, 
                            "t0": 50880, 
                            "v": 88, 
                            "dur": 240, 
                            "type": "note", 
                            "channel": 13
                        }
                    ]
                ], 
                [
                    51120, 
                    [
                        {
                            "pitch": 52, 
                            "t0": 51120, 
                            "v": 88, 
                            "dur": 240, 
                            "type": "note", 
                            "channel": 13
                        }, 
                        {
                            "pitch": 43, 
                            "t0": 51120, 
                            "v": 88, 
                            "dur": 240, 
                            "type": "note", 
                            "channel": 13
                        }, 
                        {
                            "pitch": 48, 
                            "t0": 51120, 
                            "v": 88, 
                            "dur": 240, 
                            "type": "note", 
                            "channel": 13
                        }
                    ]
                ], 
                [
                    51600, 
                    [
                        {
                            "pitch": 38, 
                            "t0": 51600, 
                            "v": 88, 
                            "dur": 240, 
                            "type": "note", 
                            "channel": 13
                        }
                    ]
                ], 
                [
                    51840, 
                    [
                        {
                            "pitch": 43, 
                            "t0": 51840, 
                            "v": 88, 
                            "dur": 240, 
                            "type": "note", 
                            "channel": 13
                        }
                    ]
                ], 
                [
                    52080, 
                    [
                        {
                            "pitch": 43, 
                            "t0": 52080, 
                            "v": 88, 
                            "dur": 240, 
                            "type": "note", 
                            "channel": 13
                        }
                    ]
                ], 
                [
                    52320, 
                    [
                        {
                            "pitch": 55, 
                            "t0": 52320, 
                            "v": 88, 
                            "dur": 240, 
                            "type": "note", 
                            "channel": 13
                        }, 
                        {
                            "pitch": 43, 
                            "t0": 52320, 
                            "v": 88, 
                            "dur": 240, 
                            "type": "note", 
                            "channel": 13
                        }, 
                        {
                            "pitch": 47, 
                            "t0": 52320, 
                            "v": 88, 
                            "dur": 240, 
                            "type": "note", 
                            "channel": 13
                        }, 
                        {
                            "pitch": 50, 
                            "t0": 52320, 
                            "v": 88, 
                            "dur": 240, 
                            "type": "note", 
                            "channel": 13
                        }
                    ]
                ], 
                [
                    53040, 
                    [
                        {
                            "pitch": 43, 
                            "t0": 53040, 
                            "v": 88, 
                            "dur": 240, 
                            "type": "note", 
                            "channel": 13
                        }
                    ]
                ], 
                [
                    53280, 
                    [
                        {
                            "pitch": 43, 
                            "t0": 53280, 
                            "v": 88, 
                            "dur": 240, 
                            "type": "note", 
                            "channel": 13
                        }
                    ]
                ], 
                [
                    53520, 
                    [
                        {
                            "pitch": 55, 
                            "t0": 53520, 
                            "v": 88, 
                            "dur": 240, 
                            "type": "note", 
                            "channel": 13
                        }, 
                        {
                            "pitch": 43, 
                            "t0": 53520, 
                            "v": 88, 
                            "dur": 240, 
                            "type": "note", 
                            "channel": 13
                        }, 
                        {
                            "pitch": 47, 
                            "t0": 53520, 
                            "v": 88, 
                            "dur": 240, 
                            "type": "note", 
                            "channel": 13
                        }, 
                        {
                            "pitch": 50, 
                            "t0": 53520, 
                            "v": 88, 
                            "dur": 240, 
                            "type": "note", 
                            "channel": 13
                        }
                    ]
                ], 
                [
                    53760, 
                    [
                        {
                            "pitch": 41, 
                            "t0": 53760, 
                            "v": 88, 
                            "dur": 240, 
                            "type": "note", 
                            "channel": 13
                        }
                    ]
                ], 
                [
                    54000, 
                    [
                        {
                            "pitch": 41, 
                            "t0": 54000, 
                            "v": 88, 
                            "dur": 240, 
                            "type": "note", 
                            "channel": 13
                        }
                    ]
                ], 
                [
                    54240, 
                    [
                        {
                            "pitch": 53, 
                            "t0": 54240, 
                            "v": 88, 
                            "dur": 240, 
                            "type": "note", 
                            "channel": 13
                        }, 
                        {
                            "pitch": 41, 
                            "t0": 54240, 
                            "v": 88, 
                            "dur": 240, 
                            "type": "note", 
                            "channel": 13
                        }, 
                        {
                            "pitch": 45, 
                            "t0": 54240, 
                            "v": 88, 
                            "dur": 240, 
                            "type": "note", 
                            "channel": 13
                        }, 
                        {
                            "pitch": 48, 
                            "t0": 54240, 
                            "v": 88, 
                            "dur": 240, 
                            "type": "note", 
                            "channel": 13
                        }
                    ]
                ], 
                [
                    54720, 
                    [
                        {
                            "pitch": 36, 
                            "t0": 54720, 
                            "v": 88, 
                            "dur": 240, 
                            "type": "note", 
                            "channel": 13
                        }
                    ]
                ], 
                [
                    54960, 
                    [
                        {
                            "pitch": 52, 
                            "t0": 54960, 
                            "v": 88, 
                            "dur": 240, 
                            "type": "note", 
                            "channel": 13
                        }, 
                        {
                            "pitch": 43, 
                            "t0": 54960, 
                            "v": 88, 
                            "dur": 240, 
                            "type": "note", 
                            "channel": 13
                        }, 
                        {
                            "pitch": 48, 
                            "t0": 54960, 
                            "v": 88, 
                            "dur": 240, 
                            "type": "note", 
                            "channel": 13
                        }
                    ]
                ], 
                [
                    55440, 
                    [
                        {
                            "pitch": 38, 
                            "t0": 55440, 
                            "v": 88, 
                            "dur": 240, 
                            "type": "note", 
                            "channel": 13
                        }
                    ]
                ], 
                [
                    55680, 
                    [
                        {
                            "pitch": 43, 
                            "t0": 55680, 
                            "v": 88, 
                            "dur": 240, 
                            "type": "note", 
                            "channel": 13
                        }
                    ]
                ], 
                [
                    55920, 
                    [
                        {
                            "pitch": 43, 
                            "t0": 55920, 
                            "v": 88, 
                            "dur": 240, 
                            "type": "note", 
                            "channel": 13
                        }
                    ]
                ], 
                [
                    56160, 
                    [
                        {
                            "pitch": 55, 
                            "t0": 56160, 
                            "v": 88, 
                            "dur": 240, 
                            "type": "note", 
                            "channel": 13
                        }, 
                        {
                            "pitch": 43, 
                            "t0": 56160, 
                            "v": 88, 
                            "dur": 240, 
                            "type": "note", 
                            "channel": 13
                        }, 
                        {
                            "pitch": 47, 
                            "t0": 56160, 
                            "v": 88, 
                            "dur": 240, 
                            "type": "note", 
                            "channel": 13
                        }, 
                        {
                            "pitch": 50, 
                            "t0": 56160, 
                            "v": 88, 
                            "dur": 240, 
                            "type": "note", 
                            "channel": 13
                        }
                    ]
                ], 
                [
                    56880, 
                    [
                        {
                            "pitch": 43, 
                            "t0": 56880, 
                            "v": 88, 
                            "dur": 240, 
                            "type": "note", 
                            "channel": 13
                        }
                    ]
                ], 
                [
                    57120, 
                    [
                        {
                            "pitch": 43, 
                            "t0": 57120, 
                            "v": 88, 
                            "dur": 240, 
                            "type": "note", 
                            "channel": 13
                        }
                    ]
                ], 
                [
                    57360, 
                    [
                        {
                            "pitch": 55, 
                            "t0": 57360, 
                            "v": 88, 
                            "dur": 240, 
                            "type": "note", 
                            "channel": 13
                        }, 
                        {
                            "pitch": 43, 
                            "t0": 57360, 
                            "v": 88, 
                            "dur": 240, 
                            "type": "note", 
                            "channel": 13
                        }, 
                        {
                            "pitch": 47, 
                            "t0": 57360, 
                            "v": 88, 
                            "dur": 240, 
                            "type": "note", 
                            "channel": 13
                        }, 
                        {
                            "pitch": 50, 
                            "t0": 57360, 
                            "v": 88, 
                            "dur": 240, 
                            "type": "note", 
                            "channel": 13
                        }
                    ]
                ], 
                [
                    57600, 
                    [
                        {
                            "pitch": 41, 
                            "t0": 57600, 
                            "v": 88, 
                            "dur": 240, 
                            "type": "note", 
                            "channel": 13
                        }
                    ]
                ], 
                [
                    57840, 
                    [
                        {
                            "pitch": 41, 
                            "t0": 57840, 
                            "v": 88, 
                            "dur": 240, 
                            "type": "note", 
                            "channel": 13
                        }
                    ]
                ], 
                [
                    58080, 
                    [
                        {
                            "pitch": 53, 
                            "t0": 58080, 
                            "v": 88, 
                            "dur": 240, 
                            "type": "note", 
                            "channel": 13
                        }, 
                        {
                            "pitch": 41, 
                            "t0": 58080, 
                            "v": 88, 
                            "dur": 240, 
                            "type": "note", 
                            "channel": 13
                        }, 
                        {
                            "pitch": 45, 
                            "t0": 58080, 
                            "v": 88, 
                            "dur": 240, 
                            "type": "note", 
                            "channel": 13
                        }, 
                        {
                            "pitch": 48, 
                            "t0": 58080, 
                            "v": 88, 
                            "dur": 240, 
                            "type": "note", 
                            "channel": 13
                        }
                    ]
                ], 
                [
                    58560, 
                    [
                        {
                            "pitch": 36, 
                            "t0": 58560, 
                            "v": 88, 
                            "dur": 240, 
                            "type": "note", 
                            "channel": 13
                        }
                    ]
                ], 
                [
                    58800, 
                    [
                        {
                            "pitch": 52, 
                            "t0": 58800, 
                            "v": 88, 
                            "dur": 240, 
                            "type": "note", 
                            "channel": 13
                        }, 
                        {
                            "pitch": 43, 
                            "t0": 58800, 
                            "v": 88, 
                            "dur": 240, 
                            "type": "note", 
                            "channel": 13
                        }, 
                        {
                            "pitch": 48, 
                            "t0": 58800, 
                            "v": 88, 
                            "dur": 240, 
                            "type": "note", 
                            "channel": 13
                        }
                    ]
                ], 
                [
                    59280, 
                    [
                        {
                            "pitch": 38, 
                            "t0": 59280, 
                            "v": 88, 
                            "dur": 240, 
                            "type": "note", 
                            "channel": 13
                        }
                    ]
                ], 
                [
                    59520, 
                    [
                        {
                            "pitch": 43, 
                            "t0": 59520, 
                            "v": 88, 
                            "dur": 240, 
                            "type": "note", 
                            "channel": 13
                        }
                    ]
                ], 
                [
                    59760, 
                    [
                        {
                            "pitch": 43, 
                            "t0": 59760, 
                            "v": 88, 
                            "dur": 240, 
                            "type": "note", 
                            "channel": 13
                        }
                    ]
                ], 
                [
                    60000, 
                    [
                        {
                            "pitch": 55, 
                            "t0": 60000, 
                            "v": 88, 
                            "dur": 240, 
                            "type": "note", 
                            "channel": 13
                        }, 
                        {
                            "pitch": 43, 
                            "t0": 60000, 
                            "v": 88, 
                            "dur": 240, 
                            "type": "note", 
                            "channel": 13
                        }, 
                        {
                            "pitch": 47, 
                            "t0": 60000, 
                            "v": 88, 
                            "dur": 240, 
                            "type": "note", 
                            "channel": 13
                        }, 
                        {
                            "pitch": 50, 
                            "t0": 60000, 
                            "v": 88, 
                            "dur": 240, 
                            "type": "note", 
                            "channel": 13
                        }
                    ]
                ], 
                [
                    60720, 
                    [
                        {
                            "pitch": 43, 
                            "t0": 60720, 
                            "v": 88, 
                            "dur": 240, 
                            "type": "note", 
                            "channel": 13
                        }
                    ]
                ], 
                [
                    60960, 
                    [
                        {
                            "pitch": 43, 
                            "t0": 60960, 
                            "v": 88, 
                            "dur": 240, 
                            "type": "note", 
                            "channel": 13
                        }
                    ]
                ], 
                [
                    61200, 
                    [
                        {
                            "pitch": 55, 
                            "t0": 61200, 
                            "v": 88, 
                            "dur": 240, 
                            "type": "note", 
                            "channel": 13
                        }, 
                        {
                            "pitch": 43, 
                            "t0": 61200, 
                            "v": 88, 
                            "dur": 240, 
                            "type": "note", 
                            "channel": 13
                        }, 
                        {
                            "pitch": 47, 
                            "t0": 61200, 
                            "v": 88, 
                            "dur": 240, 
                            "type": "note", 
                            "channel": 13
                        }, 
                        {
                            "pitch": 50, 
                            "t0": 61200, 
                            "v": 88, 
                            "dur": 240, 
                            "type": "note", 
                            "channel": 13
                        }
                    ]
                ], 
                [
                    61440, 
                    [
                        {
                            "pitch": 41, 
                            "t0": 61440, 
                            "v": 88, 
                            "dur": 240, 
                            "type": "note", 
                            "channel": 13
                        }
                    ]
                ], 
                [
                    61680, 
                    [
                        {
                            "pitch": 41, 
                            "t0": 61680, 
                            "v": 88, 
                            "dur": 240, 
                            "type": "note", 
                            "channel": 13
                        }
                    ]
                ], 
                [
                    61920, 
                    [
                        {
                            "pitch": 53, 
                            "t0": 61920, 
                            "v": 88, 
                            "dur": 240, 
                            "type": "note", 
                            "channel": 13
                        }, 
                        {
                            "pitch": 41, 
                            "t0": 61920, 
                            "v": 88, 
                            "dur": 240, 
                            "type": "note", 
                            "channel": 13
                        }, 
                        {
                            "pitch": 45, 
                            "t0": 61920, 
                            "v": 88, 
                            "dur": 240, 
                            "type": "note", 
                            "channel": 13
                        }, 
                        {
                            "pitch": 48, 
                            "t0": 61920, 
                            "v": 88, 
                            "dur": 240, 
                            "type": "note", 
                            "channel": 13
                        }
                    ]
                ], 
                [
                    62400, 
                    [
                        {
                            "pitch": 36, 
                            "t0": 62400, 
                            "v": 88, 
                            "dur": 240, 
                            "type": "note", 
                            "channel": 13
                        }
                    ]
                ], 
                [
                    62640, 
                    [
                        {
                            "pitch": 52, 
                            "t0": 62640, 
                            "v": 88, 
                            "dur": 240, 
                            "type": "note", 
                            "channel": 13
                        }, 
                        {
                            "pitch": 43, 
                            "t0": 62640, 
                            "v": 88, 
                            "dur": 240, 
                            "type": "note", 
                            "channel": 13
                        }, 
                        {
                            "pitch": 48, 
                            "t0": 62640, 
                            "v": 88, 
                            "dur": 240, 
                            "type": "note", 
                            "channel": 13
                        }
                    ]
                ], 
                [
                    63120, 
                    [
                        {
                            "pitch": 38, 
                            "t0": 63120, 
                            "v": 88, 
                            "dur": 240, 
                            "type": "note", 
                            "channel": 13
                        }
                    ]
                ], 
                [
                    63360, 
                    [
                        {
                            "pitch": 43, 
                            "t0": 63360, 
                            "v": 88, 
                            "dur": 240, 
                            "type": "note", 
                            "channel": 13
                        }
                    ]
                ], 
                [
                    63600, 
                    [
                        {
                            "pitch": 43, 
                            "t0": 63600, 
                            "v": 88, 
                            "dur": 240, 
                            "type": "note", 
                            "channel": 13
                        }
                    ]
                ], 
                [
                    63840, 
                    [
                        {
                            "pitch": 55, 
                            "t0": 63840, 
                            "v": 88, 
                            "dur": 240, 
                            "type": "note", 
                            "channel": 13
                        }, 
                        {
                            "pitch": 43, 
                            "t0": 63840, 
                            "v": 88, 
                            "dur": 240, 
                            "type": "note", 
                            "channel": 13
                        }, 
                        {
                            "pitch": 47, 
                            "t0": 63840, 
                            "v": 88, 
                            "dur": 240, 
                            "type": "note", 
                            "channel": 13
                        }, 
                        {
                            "pitch": 50, 
                            "t0": 63840, 
                            "v": 88, 
                            "dur": 240, 
                            "type": "note", 
                            "channel": 13
                        }
                    ]
                ], 
                [
                    64560, 
                    [
                        {
                            "pitch": 43, 
                            "t0": 64560, 
                            "v": 88, 
                            "dur": 240, 
                            "type": "note", 
                            "channel": 13
                        }
                    ]
                ], 
                [
                    64800, 
                    [
                        {
                            "pitch": 43, 
                            "t0": 64800, 
                            "v": 88, 
                            "dur": 240, 
                            "type": "note", 
                            "channel": 13
                        }
                    ]
                ], 
                [
                    65040, 
                    [
                        {
                            "pitch": 55, 
                            "t0": 65040, 
                            "v": 88, 
                            "dur": 240, 
                            "type": "note", 
                            "channel": 13
                        }, 
                        {
                            "pitch": 43, 
                            "t0": 65040, 
                            "v": 88, 
                            "dur": 240, 
                            "type": "note", 
                            "channel": 13
                        }, 
                        {
                            "pitch": 47, 
                            "t0": 65040, 
                            "v": 88, 
                            "dur": 240, 
                            "type": "note", 
                            "channel": 13
                        }, 
                        {
                            "pitch": 50, 
                            "t0": 65040, 
                            "v": 88, 
                            "dur": 240, 
                            "type": "note", 
                            "channel": 13
                        }
                    ]
                ], 
                [
                    65280, 
                    [
                        {
                            "pitch": 41, 
                            "t0": 65280, 
                            "v": 88, 
                            "dur": 240, 
                            "type": "note", 
                            "channel": 13
                        }
                    ]
                ], 
                [
                    65520, 
                    [
                        {
                            "pitch": 41, 
                            "t0": 65520, 
                            "v": 88, 
                            "dur": 240, 
                            "type": "note", 
                            "channel": 13
                        }
                    ]
                ], 
                [
                    65760, 
                    [
                        {
                            "pitch": 53, 
                            "t0": 65760, 
                            "v": 88, 
                            "dur": 240, 
                            "type": "note", 
                            "channel": 13
                        }, 
                        {
                            "pitch": 41, 
                            "t0": 65760, 
                            "v": 88, 
                            "dur": 240, 
                            "type": "note", 
                            "channel": 13
                        }, 
                        {
                            "pitch": 45, 
                            "t0": 65760, 
                            "v": 88, 
                            "dur": 240, 
                            "type": "note", 
                            "channel": 13
                        }, 
                        {
                            "pitch": 48, 
                            "t0": 65760, 
                            "v": 88, 
                            "dur": 240, 
                            "type": "note", 
                            "channel": 13
                        }
                    ]
                ], 
                [
                    66000, 
                    [
                        {
                            "pitch": 36, 
                            "t0": 66000, 
                            "v": 88, 
                            "dur": 240, 
                            "type": "note", 
                            "channel": 13
                        }
                    ]
                ], 
                [
                    66240, 
                    [
                        {
                            "pitch": 36, 
                            "t0": 66240, 
                            "v": 88, 
                            "dur": 240, 
                            "type": "note", 
                            "channel": 13
                        }
                    ]
                ], 
                [
                    66480, 
                    [
                        {
                            "pitch": 52, 
                            "t0": 66480, 
                            "v": 88, 
                            "dur": 240, 
                            "type": "note", 
                            "channel": 13
                        }, 
                        {
                            "pitch": 43, 
                            "t0": 66480, 
                            "v": 88, 
                            "dur": 240, 
                            "type": "note", 
                            "channel": 13
                        }, 
                        {
                            "pitch": 48, 
                            "t0": 66480, 
                            "v": 88, 
                            "dur": 240, 
                            "type": "note", 
                            "channel": 13
                        }
                    ]
                ], 
                [
                    66960, 
                    [
                        {
                            "pitch": 38, 
                            "t0": 66960, 
                            "v": 88, 
                            "dur": 240, 
                            "type": "note", 
                            "channel": 13
                        }
                    ]
                ], 
                [
                    67200, 
                    [
                        {
                            "pitch": 43, 
                            "t0": 67200, 
                            "v": 88, 
                            "dur": 240, 
                            "type": "note", 
                            "channel": 13
                        }
                    ]
                ], 
                [
                    67440, 
                    [
                        {
                            "pitch": 43, 
                            "t0": 67440, 
                            "v": 88, 
                            "dur": 240, 
                            "type": "note", 
                            "channel": 13
                        }
                    ]
                ], 
                [
                    67680, 
                    [
                        {
                            "pitch": 55, 
                            "t0": 67680, 
                            "v": 88, 
                            "dur": 240, 
                            "type": "note", 
                            "channel": 13
                        }, 
                        {
                            "pitch": 43, 
                            "t0": 67680, 
                            "v": 88, 
                            "dur": 240, 
                            "type": "note", 
                            "channel": 13
                        }, 
                        {
                            "pitch": 47, 
                            "t0": 67680, 
                            "v": 88, 
                            "dur": 240, 
                            "type": "note", 
                            "channel": 13
                        }, 
                        {
                            "pitch": 50, 
                            "t0": 67680, 
                            "v": 88, 
                            "dur": 240, 
                            "type": "note", 
                            "channel": 13
                        }
                    ]
                ], 
                [
                    68400, 
                    [
                        {
                            "pitch": 43, 
                            "t0": 68400, 
                            "v": 88, 
                            "dur": 240, 
                            "type": "note", 
                            "channel": 13
                        }
                    ]
                ], 
                [
                    68640, 
                    [
                        {
                            "pitch": 43, 
                            "t0": 68640, 
                            "v": 88, 
                            "dur": 240, 
                            "type": "note", 
                            "channel": 13
                        }
                    ]
                ], 
                [
                    68880, 
                    [
                        {
                            "pitch": 55, 
                            "t0": 68880, 
                            "v": 88, 
                            "dur": 240, 
                            "type": "note", 
                            "channel": 13
                        }, 
                        {
                            "pitch": 43, 
                            "t0": 68880, 
                            "v": 88, 
                            "dur": 240, 
                            "type": "note", 
                            "channel": 13
                        }, 
                        {
                            "pitch": 47, 
                            "t0": 68880, 
                            "v": 88, 
                            "dur": 240, 
                            "type": "note", 
                            "channel": 13
                        }, 
                        {
                            "pitch": 50, 
                            "t0": 68880, 
                            "v": 88, 
                            "dur": 240, 
                            "type": "note", 
                            "channel": 13
                        }
                    ]
                ], 
                [
                    69120, 
                    [
                        {
                            "pitch": 41, 
                            "t0": 69120, 
                            "v": 88, 
                            "dur": 240, 
                            "type": "note", 
                            "channel": 13
                        }
                    ]
                ], 
                [
                    69360, 
                    [
                        {
                            "pitch": 41, 
                            "t0": 69360, 
                            "v": 88, 
                            "dur": 240, 
                            "type": "note", 
                            "channel": 13
                        }
                    ]
                ], 
                [
                    69600, 
                    [
                        {
                            "pitch": 53, 
                            "t0": 69600, 
                            "v": 88, 
                            "dur": 240, 
                            "type": "note", 
                            "channel": 13
                        }, 
                        {
                            "pitch": 41, 
                            "t0": 69600, 
                            "v": 88, 
                            "dur": 240, 
                            "type": "note", 
                            "channel": 13
                        }, 
                        {
                            "pitch": 45, 
                            "t0": 69600, 
                            "v": 88, 
                            "dur": 240, 
                            "type": "note", 
                            "channel": 13
                        }, 
                        {
                            "pitch": 48, 
                            "t0": 69600, 
                            "v": 88, 
                            "dur": 240, 
                            "type": "note", 
                            "channel": 13
                        }
                    ]
                ], 
                [
                    69840, 
                    [
                        {
                            "pitch": 36, 
                            "t0": 69840, 
                            "v": 88, 
                            "dur": 240, 
                            "type": "note", 
                            "channel": 13
                        }
                    ]
                ], 
                [
                    70080, 
                    [
                        {
                            "pitch": 36, 
                            "t0": 70080, 
                            "v": 88, 
                            "dur": 240, 
                            "type": "note", 
                            "channel": 13
                        }
                    ]
                ], 
                [
                    70320, 
                    [
                        {
                            "pitch": 52, 
                            "t0": 70320, 
                            "v": 88, 
                            "dur": 240, 
                            "type": "note", 
                            "channel": 13
                        }, 
                        {
                            "pitch": 43, 
                            "t0": 70320, 
                            "v": 88, 
                            "dur": 240, 
                            "type": "note", 
                            "channel": 13
                        }, 
                        {
                            "pitch": 48, 
                            "t0": 70320, 
                            "v": 88, 
                            "dur": 240, 
                            "type": "note", 
                            "channel": 13
                        }
                    ]
                ], 
                [
                    70800, 
                    [
                        {
                            "pitch": 38, 
                            "t0": 70800, 
                            "v": 88, 
                            "dur": 240, 
                            "type": "note", 
                            "channel": 13
                        }
                    ]
                ], 
                [
                    71040, 
                    [
                        {
                            "pitch": 43, 
                            "t0": 71040, 
                            "v": 88, 
                            "dur": 240, 
                            "type": "note", 
                            "channel": 13
                        }
                    ]
                ], 
                [
                    71280, 
                    [
                        {
                            "pitch": 43, 
                            "t0": 71280, 
                            "v": 88, 
                            "dur": 240, 
                            "type": "note", 
                            "channel": 13
                        }
                    ]
                ], 
                [
                    71520, 
                    [
                        {
                            "pitch": 55, 
                            "t0": 71520, 
                            "v": 88, 
                            "dur": 240, 
                            "type": "note", 
                            "channel": 13
                        }, 
                        {
                            "pitch": 43, 
                            "t0": 71520, 
                            "v": 88, 
                            "dur": 240, 
                            "type": "note", 
                            "channel": 13
                        }, 
                        {
                            "pitch": 47, 
                            "t0": 71520, 
                            "v": 88, 
                            "dur": 240, 
                            "type": "note", 
                            "channel": 13
                        }, 
                        {
                            "pitch": 50, 
                            "t0": 71520, 
                            "v": 88, 
                            "dur": 240, 
                            "type": "note", 
                            "channel": 13
                        }
                    ]
                ], 
                [
                    72240, 
                    [
                        {
                            "pitch": 43, 
                            "t0": 72240, 
                            "v": 88, 
                            "dur": 240, 
                            "type": "note", 
                            "channel": 13
                        }
                    ]
                ], 
                [
                    72480, 
                    [
                        {
                            "pitch": 43, 
                            "t0": 72480, 
                            "v": 88, 
                            "dur": 240, 
                            "type": "note", 
                            "channel": 13
                        }
                    ]
                ], 
                [
                    72720, 
                    [
                        {
                            "pitch": 55, 
                            "t0": 72720, 
                            "v": 88, 
                            "dur": 240, 
                            "type": "note", 
                            "channel": 13
                        }, 
                        {
                            "pitch": 43, 
                            "t0": 72720, 
                            "v": 88, 
                            "dur": 240, 
                            "type": "note", 
                            "channel": 13
                        }, 
                        {
                            "pitch": 47, 
                            "t0": 72720, 
                            "v": 88, 
                            "dur": 240, 
                            "type": "note", 
                            "channel": 13
                        }, 
                        {
                            "pitch": 50, 
                            "t0": 72720, 
                            "v": 88, 
                            "dur": 240, 
                            "type": "note", 
                            "channel": 13
                        }
                    ]
                ], 
                [
                    72960, 
                    [
                        {
                            "pitch": 41, 
                            "t0": 72960, 
                            "v": 88, 
                            "dur": 240, 
                            "type": "note", 
                            "channel": 13
                        }
                    ]
                ], 
                [
                    73200, 
                    [
                        {
                            "pitch": 41, 
                            "t0": 73200, 
                            "v": 88, 
                            "dur": 240, 
                            "type": "note", 
                            "channel": 13
                        }
                    ]
                ], 
                [
                    73440, 
                    [
                        {
                            "pitch": 53, 
                            "t0": 73440, 
                            "v": 88, 
                            "dur": 240, 
                            "type": "note", 
                            "channel": 13
                        }, 
                        {
                            "pitch": 41, 
                            "t0": 73440, 
                            "v": 88, 
                            "dur": 240, 
                            "type": "note", 
                            "channel": 13
                        }, 
                        {
                            "pitch": 45, 
                            "t0": 73440, 
                            "v": 88, 
                            "dur": 240, 
                            "type": "note", 
                            "channel": 13
                        }, 
                        {
                            "pitch": 48, 
                            "t0": 73440, 
                            "v": 88, 
                            "dur": 240, 
                            "type": "note", 
                            "channel": 13
                        }
                    ]
                ], 
                [
                    73680, 
                    [
                        {
                            "pitch": 36, 
                            "t0": 73680, 
                            "v": 88, 
                            "dur": 240, 
                            "type": "note", 
                            "channel": 13
                        }
                    ]
                ], 
                [
                    73920, 
                    [
                        {
                            "pitch": 36, 
                            "t0": 73920, 
                            "v": 88, 
                            "dur": 240, 
                            "type": "note", 
                            "channel": 13
                        }
                    ]
                ], 
                [
                    74160, 
                    [
                        {
                            "pitch": 52, 
                            "t0": 74160, 
                            "v": 88, 
                            "dur": 240, 
                            "type": "note", 
                            "channel": 13
                        }, 
                        {
                            "pitch": 43, 
                            "t0": 74160, 
                            "v": 88, 
                            "dur": 240, 
                            "type": "note", 
                            "channel": 13
                        }, 
                        {
                            "pitch": 48, 
                            "t0": 74160, 
                            "v": 88, 
                            "dur": 240, 
                            "type": "note", 
                            "channel": 13
                        }
                    ]
                ], 
                [
                    74640, 
                    [
                        {
                            "pitch": 38, 
                            "t0": 74640, 
                            "v": 88, 
                            "dur": 240, 
                            "type": "note", 
                            "channel": 13
                        }
                    ]
                ], 
                [
                    74880, 
                    [
                        {
                            "pitch": 43, 
                            "t0": 74880, 
                            "v": 88, 
                            "dur": 240, 
                            "type": "note", 
                            "channel": 13
                        }
                    ]
                ], 
                [
                    75120, 
                    [
                        {
                            "pitch": 43, 
                            "t0": 75120, 
                            "v": 88, 
                            "dur": 240, 
                            "type": "note", 
                            "channel": 13
                        }
                    ]
                ], 
                [
                    75360, 
                    [
                        {
                            "pitch": 55, 
                            "t0": 75360, 
                            "v": 88, 
                            "dur": 240, 
                            "type": "note", 
                            "channel": 13
                        }, 
                        {
                            "pitch": 43, 
                            "t0": 75360, 
                            "v": 88, 
                            "dur": 240, 
                            "type": "note", 
                            "channel": 13
                        }, 
                        {
                            "pitch": 47, 
                            "t0": 75360, 
                            "v": 88, 
                            "dur": 240, 
                            "type": "note", 
                            "channel": 13
                        }, 
                        {
                            "pitch": 50, 
                            "t0": 75360, 
                            "v": 88, 
                            "dur": 240, 
                            "type": "note", 
                            "channel": 13
                        }
                    ]
                ], 
                [
                    76080, 
                    [
                        {
                            "pitch": 43, 
                            "t0": 76080, 
                            "v": 88, 
                            "dur": 240, 
                            "type": "note", 
                            "channel": 13
                        }
                    ]
                ], 
                [
                    76320, 
                    [
                        {
                            "pitch": 43, 
                            "t0": 76320, 
                            "v": 88, 
                            "dur": 240, 
                            "type": "note", 
                            "channel": 13
                        }
                    ]
                ], 
                [
                    76560, 
                    [
                        {
                            "pitch": 55, 
                            "t0": 76560, 
                            "v": 88, 
                            "dur": 240, 
                            "type": "note", 
                            "channel": 13
                        }, 
                        {
                            "pitch": 43, 
                            "t0": 76560, 
                            "v": 88, 
                            "dur": 240, 
                            "type": "note", 
                            "channel": 13
                        }, 
                        {
                            "pitch": 47, 
                            "t0": 76560, 
                            "v": 88, 
                            "dur": 240, 
                            "type": "note", 
                            "channel": 13
                        }, 
                        {
                            "pitch": 50, 
                            "t0": 76560, 
                            "v": 88, 
                            "dur": 240, 
                            "type": "note", 
                            "channel": 13
                        }
                    ]
                ], 
                [
                    76800, 
                    [
                        {
                            "pitch": 41, 
                            "t0": 76800, 
                            "v": 88, 
                            "dur": 240, 
                            "type": "note", 
                            "channel": 13
                        }
                    ]
                ], 
                [
                    77040, 
                    [
                        {
                            "pitch": 41, 
                            "t0": 77040, 
                            "v": 88, 
                            "dur": 240, 
                            "type": "note", 
                            "channel": 13
                        }
                    ]
                ], 
                [
                    77280, 
                    [
                        {
                            "pitch": 53, 
                            "t0": 77280, 
                            "v": 88, 
                            "dur": 240, 
                            "type": "note", 
                            "channel": 13
                        }, 
                        {
                            "pitch": 41, 
                            "t0": 77280, 
                            "v": 88, 
                            "dur": 240, 
                            "type": "note", 
                            "channel": 13
                        }, 
                        {
                            "pitch": 45, 
                            "t0": 77280, 
                            "v": 88, 
                            "dur": 240, 
                            "type": "note", 
                            "channel": 13
                        }, 
                        {
                            "pitch": 48, 
                            "t0": 77280, 
                            "v": 88, 
                            "dur": 240, 
                            "type": "note", 
                            "channel": 13
                        }
                    ]
                ], 
                [
                    77520, 
                    [
                        {
                            "pitch": 36, 
                            "t0": 77520, 
                            "v": 88, 
                            "dur": 240, 
                            "type": "note", 
                            "channel": 13
                        }
                    ]
                ], 
                [
                    77760, 
                    [
                        {
                            "pitch": 36, 
                            "t0": 77760, 
                            "v": 88, 
                            "dur": 240, 
                            "type": "note", 
                            "channel": 13
                        }
                    ]
                ], 
                [
                    78000, 
                    [
                        {
                            "pitch": 52, 
                            "t0": 78000, 
                            "v": 88, 
                            "dur": 240, 
                            "type": "note", 
                            "channel": 13
                        }, 
                        {
                            "pitch": 43, 
                            "t0": 78000, 
                            "v": 88, 
                            "dur": 240, 
                            "type": "note", 
                            "channel": 13
                        }, 
                        {
                            "pitch": 48, 
                            "t0": 78000, 
                            "v": 88, 
                            "dur": 240, 
                            "type": "note", 
                            "channel": 13
                        }
                    ]
                ], 
                [
                    122880, 
                    [
                        {
                            "pitch": 43, 
                            "t0": 122880, 
                            "v": 88, 
                            "dur": 240, 
                            "type": "note", 
                            "channel": 13
                        }
                    ]
                ], 
                [
                    123120, 
                    [
                        {
                            "pitch": 43, 
                            "t0": 123120, 
                            "v": 88, 
                            "dur": 240, 
                            "type": "note", 
                            "channel": 13
                        }
                    ]
                ], 
                [
                    123360, 
                    [
                        {
                            "pitch": 55, 
                            "t0": 123360, 
                            "v": 88, 
                            "dur": 240, 
                            "type": "note", 
                            "channel": 13
                        }, 
                        {
                            "pitch": 43, 
                            "t0": 123360, 
                            "v": 88, 
                            "dur": 240, 
                            "type": "note", 
                            "channel": 13
                        }, 
                        {
                            "pitch": 47, 
                            "t0": 123360, 
                            "v": 88, 
                            "dur": 240, 
                            "type": "note", 
                            "channel": 13
                        }, 
                        {
                            "pitch": 50, 
                            "t0": 123360, 
                            "v": 88, 
                            "dur": 240, 
                            "type": "note", 
                            "channel": 13
                        }
                    ]
                ], 
                [
                    124080, 
                    [
                        {
                            "pitch": 43, 
                            "t0": 124080, 
                            "v": 88, 
                            "dur": 240, 
                            "type": "note", 
                            "channel": 13
                        }
                    ]
                ], 
                [
                    124320, 
                    [
                        {
                            "pitch": 43, 
                            "t0": 124320, 
                            "v": 88, 
                            "dur": 240, 
                            "type": "note", 
                            "channel": 13
                        }
                    ]
                ], 
                [
                    124560, 
                    [
                        {
                            "pitch": 55, 
                            "t0": 124560, 
                            "v": 88, 
                            "dur": 240, 
                            "type": "note", 
                            "channel": 13
                        }, 
                        {
                            "pitch": 43, 
                            "t0": 124560, 
                            "v": 88, 
                            "dur": 240, 
                            "type": "note", 
                            "channel": 13
                        }, 
                        {
                            "pitch": 47, 
                            "t0": 124560, 
                            "v": 88, 
                            "dur": 240, 
                            "type": "note", 
                            "channel": 13
                        }, 
                        {
                            "pitch": 50, 
                            "t0": 124560, 
                            "v": 88, 
                            "dur": 240, 
                            "type": "note", 
                            "channel": 13
                        }
                    ]
                ], 
                [
                    124800, 
                    [
                        {
                            "pitch": 41, 
                            "t0": 124800, 
                            "v": 88, 
                            "dur": 240, 
                            "type": "note", 
                            "channel": 13
                        }
                    ]
                ], 
                [
                    125040, 
                    [
                        {
                            "pitch": 41, 
                            "t0": 125040, 
                            "v": 88, 
                            "dur": 240, 
                            "type": "note", 
                            "channel": 13
                        }
                    ]
                ], 
                [
                    125280, 
                    [
                        {
                            "pitch": 53, 
                            "t0": 125280, 
                            "v": 88, 
                            "dur": 240, 
                            "type": "note", 
                            "channel": 13
                        }, 
                        {
                            "pitch": 41, 
                            "t0": 125280, 
                            "v": 88, 
                            "dur": 240, 
                            "type": "note", 
                            "channel": 13
                        }, 
                        {
                            "pitch": 45, 
                            "t0": 125280, 
                            "v": 88, 
                            "dur": 240, 
                            "type": "note", 
                            "channel": 13
                        }, 
                        {
                            "pitch": 48, 
                            "t0": 125280, 
                            "v": 88, 
                            "dur": 240, 
                            "type": "note", 
                            "channel": 13
                        }
                    ]
                ], 
                [
                    125760, 
                    [
                        {
                            "pitch": 36, 
                            "t0": 125760, 
                            "v": 88, 
                            "dur": 240, 
                            "type": "note", 
                            "channel": 13
                        }
                    ]
                ], 
                [
                    126000, 
                    [
                        {
                            "pitch": 52, 
                            "t0": 126000, 
                            "v": 88, 
                            "dur": 240, 
                            "type": "note", 
                            "channel": 13
                        }, 
                        {
                            "pitch": 43, 
                            "t0": 126000, 
                            "v": 88, 
                            "dur": 240, 
                            "type": "note", 
                            "channel": 13
                        }, 
                        {
                            "pitch": 48, 
                            "t0": 126000, 
                            "v": 88, 
                            "dur": 240, 
                            "type": "note", 
                            "channel": 13
                        }
                    ]
                ], 
                [
                    126480, 
                    [
                        {
                            "pitch": 38, 
                            "t0": 126480, 
                            "v": 88, 
                            "dur": 240, 
                            "type": "note", 
                            "channel": 13
                        }
                    ]
                ], 
                [
                    126720, 
                    [
                        {
                            "pitch": 43, 
                            "t0": 126720, 
                            "v": 88, 
                            "dur": 240, 
                            "type": "note", 
                            "channel": 13
                        }
                    ]
                ], 
                [
                    126960, 
                    [
                        {
                            "pitch": 43, 
                            "t0": 126960, 
                            "v": 88, 
                            "dur": 240, 
                            "type": "note", 
                            "channel": 13
                        }
                    ]
                ], 
                [
                    127200, 
                    [
                        {
                            "pitch": 55, 
                            "t0": 127200, 
                            "v": 88, 
                            "dur": 240, 
                            "type": "note", 
                            "channel": 13
                        }, 
                        {
                            "pitch": 43, 
                            "t0": 127200, 
                            "v": 88, 
                            "dur": 240, 
                            "type": "note", 
                            "channel": 13
                        }, 
                        {
                            "pitch": 47, 
                            "t0": 127200, 
                            "v": 88, 
                            "dur": 240, 
                            "type": "note", 
                            "channel": 13
                        }, 
                        {
                            "pitch": 50, 
                            "t0": 127200, 
                            "v": 88, 
                            "dur": 240, 
                            "type": "note", 
                            "channel": 13
                        }
                    ]
                ], 
                [
                    127920, 
                    [
                        {
                            "pitch": 43, 
                            "t0": 127920, 
                            "v": 88, 
                            "dur": 240, 
                            "type": "note", 
                            "channel": 13
                        }
                    ]
                ], 
                [
                    128160, 
                    [
                        {
                            "pitch": 43, 
                            "t0": 128160, 
                            "v": 88, 
                            "dur": 240, 
                            "type": "note", 
                            "channel": 13
                        }
                    ]
                ], 
                [
                    128400, 
                    [
                        {
                            "pitch": 55, 
                            "t0": 128400, 
                            "v": 88, 
                            "dur": 240, 
                            "type": "note", 
                            "channel": 13
                        }, 
                        {
                            "pitch": 43, 
                            "t0": 128400, 
                            "v": 88, 
                            "dur": 240, 
                            "type": "note", 
                            "channel": 13
                        }, 
                        {
                            "pitch": 47, 
                            "t0": 128400, 
                            "v": 88, 
                            "dur": 240, 
                            "type": "note", 
                            "channel": 13
                        }, 
                        {
                            "pitch": 50, 
                            "t0": 128400, 
                            "v": 88, 
                            "dur": 240, 
                            "type": "note", 
                            "channel": 13
                        }
                    ]
                ], 
                [
                    128640, 
                    [
                        {
                            "pitch": 41, 
                            "t0": 128640, 
                            "v": 88, 
                            "dur": 240, 
                            "type": "note", 
                            "channel": 13
                        }
                    ]
                ], 
                [
                    128880, 
                    [
                        {
                            "pitch": 41, 
                            "t0": 128880, 
                            "v": 88, 
                            "dur": 240, 
                            "type": "note", 
                            "channel": 13
                        }
                    ]
                ], 
                [
                    129120, 
                    [
                        {
                            "pitch": 53, 
                            "t0": 129120, 
                            "v": 88, 
                            "dur": 240, 
                            "type": "note", 
                            "channel": 13
                        }, 
                        {
                            "pitch": 41, 
                            "t0": 129120, 
                            "v": 88, 
                            "dur": 240, 
                            "type": "note", 
                            "channel": 13
                        }, 
                        {
                            "pitch": 45, 
                            "t0": 129120, 
                            "v": 88, 
                            "dur": 240, 
                            "type": "note", 
                            "channel": 13
                        }, 
                        {
                            "pitch": 48, 
                            "t0": 129120, 
                            "v": 88, 
                            "dur": 240, 
                            "type": "note", 
                            "channel": 13
                        }
                    ]
                ], 
                [
                    129600, 
                    [
                        {
                            "pitch": 36, 
                            "t0": 129600, 
                            "v": 88, 
                            "dur": 240, 
                            "type": "note", 
                            "channel": 13
                        }
                    ]
                ], 
                [
                    129840, 
                    [
                        {
                            "pitch": 52, 
                            "t0": 129840, 
                            "v": 88, 
                            "dur": 240, 
                            "type": "note", 
                            "channel": 13
                        }, 
                        {
                            "pitch": 43, 
                            "t0": 129840, 
                            "v": 88, 
                            "dur": 240, 
                            "type": "note", 
                            "channel": 13
                        }, 
                        {
                            "pitch": 48, 
                            "t0": 129840, 
                            "v": 88, 
                            "dur": 240, 
                            "type": "note", 
                            "channel": 13
                        }
                    ]
                ], 
                [
                    130320, 
                    [
                        {
                            "pitch": 38, 
                            "t0": 130320, 
                            "v": 88, 
                            "dur": 240, 
                            "type": "note", 
                            "channel": 13
                        }
                    ]
                ], 
                [
                    130560, 
                    [
                        {
                            "pitch": 43, 
                            "t0": 130560, 
                            "v": 88, 
                            "dur": 240, 
                            "type": "note", 
                            "channel": 13
                        }
                    ]
                ], 
                [
                    130800, 
                    [
                        {
                            "pitch": 43, 
                            "t0": 130800, 
                            "v": 88, 
                            "dur": 240, 
                            "type": "note", 
                            "channel": 13
                        }
                    ]
                ], 
                [
                    131040, 
                    [
                        {
                            "pitch": 55, 
                            "t0": 131040, 
                            "v": 88, 
                            "dur": 240, 
                            "type": "note", 
                            "channel": 13
                        }, 
                        {
                            "pitch": 43, 
                            "t0": 131040, 
                            "v": 88, 
                            "dur": 240, 
                            "type": "note", 
                            "channel": 13
                        }, 
                        {
                            "pitch": 47, 
                            "t0": 131040, 
                            "v": 88, 
                            "dur": 240, 
                            "type": "note", 
                            "channel": 13
                        }, 
                        {
                            "pitch": 50, 
                            "t0": 131040, 
                            "v": 88, 
                            "dur": 240, 
                            "type": "note", 
                            "channel": 13
                        }
                    ]
                ], 
                [
                    131760, 
                    [
                        {
                            "pitch": 43, 
                            "t0": 131760, 
                            "v": 88, 
                            "dur": 240, 
                            "type": "note", 
                            "channel": 13
                        }
                    ]
                ], 
                [
                    132000, 
                    [
                        {
                            "pitch": 43, 
                            "t0": 132000, 
                            "v": 88, 
                            "dur": 240, 
                            "type": "note", 
                            "channel": 13
                        }
                    ]
                ], 
                [
                    132240, 
                    [
                        {
                            "pitch": 55, 
                            "t0": 132240, 
                            "v": 88, 
                            "dur": 240, 
                            "type": "note", 
                            "channel": 13
                        }, 
                        {
                            "pitch": 43, 
                            "t0": 132240, 
                            "v": 88, 
                            "dur": 240, 
                            "type": "note", 
                            "channel": 13
                        }, 
                        {
                            "pitch": 47, 
                            "t0": 132240, 
                            "v": 88, 
                            "dur": 240, 
                            "type": "note", 
                            "channel": 13
                        }, 
                        {
                            "pitch": 50, 
                            "t0": 132240, 
                            "v": 88, 
                            "dur": 240, 
                            "type": "note", 
                            "channel": 13
                        }
                    ]
                ], 
                [
                    132480, 
                    [
                        {
                            "pitch": 41, 
                            "t0": 132480, 
                            "v": 88, 
                            "dur": 240, 
                            "type": "note", 
                            "channel": 13
                        }
                    ]
                ], 
                [
                    132720, 
                    [
                        {
                            "pitch": 41, 
                            "t0": 132720, 
                            "v": 88, 
                            "dur": 240, 
                            "type": "note", 
                            "channel": 13
                        }
                    ]
                ], 
                [
                    132960, 
                    [
                        {
                            "pitch": 53, 
                            "t0": 132960, 
                            "v": 88, 
                            "dur": 240, 
                            "type": "note", 
                            "channel": 13
                        }, 
                        {
                            "pitch": 41, 
                            "t0": 132960, 
                            "v": 88, 
                            "dur": 240, 
                            "type": "note", 
                            "channel": 13
                        }, 
                        {
                            "pitch": 45, 
                            "t0": 132960, 
                            "v": 88, 
                            "dur": 240, 
                            "type": "note", 
                            "channel": 13
                        }, 
                        {
                            "pitch": 48, 
                            "t0": 132960, 
                            "v": 88, 
                            "dur": 240, 
                            "type": "note", 
                            "channel": 13
                        }
                    ]
                ], 
                [
                    133440, 
                    [
                        {
                            "pitch": 36, 
                            "t0": 133440, 
                            "v": 88, 
                            "dur": 240, 
                            "type": "note", 
                            "channel": 13
                        }
                    ]
                ], 
                [
                    133680, 
                    [
                        {
                            "pitch": 52, 
                            "t0": 133680, 
                            "v": 88, 
                            "dur": 240, 
                            "type": "note", 
                            "channel": 13
                        }, 
                        {
                            "pitch": 43, 
                            "t0": 133680, 
                            "v": 88, 
                            "dur": 240, 
                            "type": "note", 
                            "channel": 13
                        }, 
                        {
                            "pitch": 48, 
                            "t0": 133680, 
                            "v": 88, 
                            "dur": 240, 
                            "type": "note", 
                            "channel": 13
                        }
                    ]
                ], 
                [
                    134160, 
                    [
                        {
                            "pitch": 38, 
                            "t0": 134160, 
                            "v": 88, 
                            "dur": 240, 
                            "type": "note", 
                            "channel": 13
                        }
                    ]
                ], 
                [
                    134400, 
                    [
                        {
                            "pitch": 43, 
                            "t0": 134400, 
                            "v": 88, 
                            "dur": 240, 
                            "type": "note", 
                            "channel": 13
                        }
                    ]
                ], 
                [
                    134640, 
                    [
                        {
                            "pitch": 43, 
                            "t0": 134640, 
                            "v": 88, 
                            "dur": 240, 
                            "type": "note", 
                            "channel": 13
                        }
                    ]
                ], 
                [
                    134880, 
                    [
                        {
                            "pitch": 55, 
                            "t0": 134880, 
                            "v": 88, 
                            "dur": 240, 
                            "type": "note", 
                            "channel": 13
                        }, 
                        {
                            "pitch": 43, 
                            "t0": 134880, 
                            "v": 88, 
                            "dur": 240, 
                            "type": "note", 
                            "channel": 13
                        }, 
                        {
                            "pitch": 47, 
                            "t0": 134880, 
                            "v": 88, 
                            "dur": 240, 
                            "type": "note", 
                            "channel": 13
                        }, 
                        {
                            "pitch": 50, 
                            "t0": 134880, 
                            "v": 88, 
                            "dur": 240, 
                            "type": "note", 
                            "channel": 13
                        }
                    ]
                ], 
                [
                    135600, 
                    [
                        {
                            "pitch": 43, 
                            "t0": 135600, 
                            "v": 88, 
                            "dur": 240, 
                            "type": "note", 
                            "channel": 13
                        }
                    ]
                ], 
                [
                    135840, 
                    [
                        {
                            "pitch": 43, 
                            "t0": 135840, 
                            "v": 88, 
                            "dur": 240, 
                            "type": "note", 
                            "channel": 13
                        }
                    ]
                ], 
                [
                    136080, 
                    [
                        {
                            "pitch": 55, 
                            "t0": 136080, 
                            "v": 88, 
                            "dur": 240, 
                            "type": "note", 
                            "channel": 13
                        }, 
                        {
                            "pitch": 43, 
                            "t0": 136080, 
                            "v": 88, 
                            "dur": 240, 
                            "type": "note", 
                            "channel": 13
                        }, 
                        {
                            "pitch": 47, 
                            "t0": 136080, 
                            "v": 88, 
                            "dur": 240, 
                            "type": "note", 
                            "channel": 13
                        }, 
                        {
                            "pitch": 50, 
                            "t0": 136080, 
                            "v": 88, 
                            "dur": 240, 
                            "type": "note", 
                            "channel": 13
                        }
                    ]
                ], 
                [
                    136320, 
                    [
                        {
                            "pitch": 41, 
                            "t0": 136320, 
                            "v": 88, 
                            "dur": 240, 
                            "type": "note", 
                            "channel": 13
                        }
                    ]
                ], 
                [
                    136560, 
                    [
                        {
                            "pitch": 41, 
                            "t0": 136560, 
                            "v": 88, 
                            "dur": 240, 
                            "type": "note", 
                            "channel": 13
                        }
                    ]
                ], 
                [
                    136800, 
                    [
                        {
                            "pitch": 53, 
                            "t0": 136800, 
                            "v": 88, 
                            "dur": 240, 
                            "type": "note", 
                            "channel": 13
                        }, 
                        {
                            "pitch": 41, 
                            "t0": 136800, 
                            "v": 88, 
                            "dur": 240, 
                            "type": "note", 
                            "channel": 13
                        }, 
                        {
                            "pitch": 45, 
                            "t0": 136800, 
                            "v": 88, 
                            "dur": 240, 
                            "type": "note", 
                            "channel": 13
                        }, 
                        {
                            "pitch": 48, 
                            "t0": 136800, 
                            "v": 88, 
                            "dur": 240, 
                            "type": "note", 
                            "channel": 13
                        }
                    ]
                ], 
                [
                    137280, 
                    [
                        {
                            "pitch": 36, 
                            "t0": 137280, 
                            "v": 88, 
                            "dur": 240, 
                            "type": "note", 
                            "channel": 13
                        }
                    ]
                ], 
                [
                    137520, 
                    [
                        {
                            "pitch": 52, 
                            "t0": 137520, 
                            "v": 88, 
                            "dur": 240, 
                            "type": "note", 
                            "channel": 13
                        }, 
                        {
                            "pitch": 43, 
                            "t0": 137520, 
                            "v": 88, 
                            "dur": 240, 
                            "type": "note", 
                            "channel": 13
                        }, 
                        {
                            "pitch": 48, 
                            "t0": 137520, 
                            "v": 88, 
                            "dur": 240, 
                            "type": "note", 
                            "channel": 13
                        }
                    ]
                ], 
                [
                    138240, 
                    [
                        {
                            "pitch": 43, 
                            "t0": 138240, 
                            "v": 88, 
                            "dur": 240, 
                            "type": "note", 
                            "channel": 13
                        }
                    ]
                ], 
                [
                    138480, 
                    [
                        {
                            "pitch": 43, 
                            "t0": 138480, 
                            "v": 88, 
                            "dur": 240, 
                            "type": "note", 
                            "channel": 13
                        }
                    ]
                ], 
                [
                    138720, 
                    [
                        {
                            "pitch": 55, 
                            "t0": 138720, 
                            "v": 88, 
                            "dur": 240, 
                            "type": "note", 
                            "channel": 13
                        }, 
                        {
                            "pitch": 43, 
                            "t0": 138720, 
                            "v": 88, 
                            "dur": 240, 
                            "type": "note", 
                            "channel": 13
                        }, 
                        {
                            "pitch": 47, 
                            "t0": 138720, 
                            "v": 88, 
                            "dur": 240, 
                            "type": "note", 
                            "channel": 13
                        }, 
                        {
                            "pitch": 50, 
                            "t0": 138720, 
                            "v": 88, 
                            "dur": 240, 
                            "type": "note", 
                            "channel": 13
                        }
                    ]
                ], 
                [
                    139440, 
                    [
                        {
                            "pitch": 43, 
                            "t0": 139440, 
                            "v": 88, 
                            "dur": 240, 
                            "type": "note", 
                            "channel": 13
                        }
                    ]
                ], 
                [
                    139680, 
                    [
                        {
                            "pitch": 43, 
                            "t0": 139680, 
                            "v": 88, 
                            "dur": 240, 
                            "type": "note", 
                            "channel": 13
                        }
                    ]
                ], 
                [
                    139920, 
                    [
                        {
                            "pitch": 55, 
                            "t0": 139920, 
                            "v": 88, 
                            "dur": 240, 
                            "type": "note", 
                            "channel": 13
                        }, 
                        {
                            "pitch": 43, 
                            "t0": 139920, 
                            "v": 88, 
                            "dur": 240, 
                            "type": "note", 
                            "channel": 13
                        }, 
                        {
                            "pitch": 47, 
                            "t0": 139920, 
                            "v": 88, 
                            "dur": 240, 
                            "type": "note", 
                            "channel": 13
                        }, 
                        {
                            "pitch": 50, 
                            "t0": 139920, 
                            "v": 88, 
                            "dur": 240, 
                            "type": "note", 
                            "channel": 13
                        }
                    ]
                ], 
                [
                    140160, 
                    [
                        {
                            "pitch": 41, 
                            "t0": 140160, 
                            "v": 88, 
                            "dur": 240, 
                            "type": "note", 
                            "channel": 13
                        }
                    ]
                ], 
                [
                    140400, 
                    [
                        {
                            "pitch": 41, 
                            "t0": 140400, 
                            "v": 88, 
                            "dur": 240, 
                            "type": "note", 
                            "channel": 13
                        }
                    ]
                ], 
                [
                    140640, 
                    [
                        {
                            "pitch": 53, 
                            "t0": 140640, 
                            "v": 88, 
                            "dur": 240, 
                            "type": "note", 
                            "channel": 13
                        }, 
                        {
                            "pitch": 45, 
                            "t0": 140640, 
                            "v": 88, 
                            "dur": 240, 
                            "type": "note", 
                            "channel": 13
                        }, 
                        {
                            "pitch": 48, 
                            "t0": 140640, 
                            "v": 88, 
                            "dur": 240, 
                            "type": "note", 
                            "channel": 13
                        }
                    ]
                ], 
                [
                    140880, 
                    [
                        {
                            "pitch": 36, 
                            "t0": 140880, 
                            "v": 88, 
                            "dur": 240, 
                            "type": "note", 
                            "channel": 13
                        }
                    ]
                ], 
                [
                    141120, 
                    [
                        {
                            "pitch": 36, 
                            "t0": 141120, 
                            "v": 88, 
                            "dur": 240, 
                            "type": "note", 
                            "channel": 13
                        }
                    ]
                ], 
                [
                    141360, 
                    [
                        {
                            "pitch": 52, 
                            "t0": 141360, 
                            "v": 88, 
                            "dur": 240, 
                            "type": "note", 
                            "channel": 13
                        }, 
                        {
                            "pitch": 43, 
                            "t0": 141360, 
                            "v": 88, 
                            "dur": 240, 
                            "type": "note", 
                            "channel": 13
                        }, 
                        {
                            "pitch": 48, 
                            "t0": 141360, 
                            "v": 88, 
                            "dur": 240, 
                            "type": "note", 
                            "channel": 13
                        }
                    ]
                ], 
                [
                    141840, 
                    [
                        {
                            "pitch": 38, 
                            "t0": 141840, 
                            "v": 88, 
                            "dur": 240, 
                            "type": "note", 
                            "channel": 13
                        }
                    ]
                ], 
                [
                    142080, 
                    [
                        {
                            "pitch": 43, 
                            "t0": 142080, 
                            "v": 88, 
                            "dur": 240, 
                            "type": "note", 
                            "channel": 13
                        }
                    ]
                ], 
                [
                    142320, 
                    [
                        {
                            "pitch": 43, 
                            "t0": 142320, 
                            "v": 88, 
                            "dur": 240, 
                            "type": "note", 
                            "channel": 13
                        }
                    ]
                ], 
                [
                    142560, 
                    [
                        {
                            "pitch": 55, 
                            "t0": 142560, 
                            "v": 88, 
                            "dur": 240, 
                            "type": "note", 
                            "channel": 13
                        }, 
                        {
                            "pitch": 47, 
                            "t0": 142560, 
                            "v": 88, 
                            "dur": 240, 
                            "type": "note", 
                            "channel": 13
                        }, 
                        {
                            "pitch": 50, 
                            "t0": 142560, 
                            "v": 88, 
                            "dur": 240, 
                            "type": "note", 
                            "channel": 13
                        }
                    ]
                ], 
                [
                    143280, 
                    [
                        {
                            "pitch": 43, 
                            "t0": 143280, 
                            "v": 88, 
                            "dur": 240, 
                            "type": "note", 
                            "channel": 13
                        }
                    ]
                ], 
                [
                    143520, 
                    [
                        {
                            "pitch": 43, 
                            "t0": 143520, 
                            "v": 88, 
                            "dur": 240, 
                            "type": "note", 
                            "channel": 13
                        }
                    ]
                ], 
                [
                    143760, 
                    [
                        {
                            "pitch": 55, 
                            "t0": 143760, 
                            "v": 88, 
                            "dur": 240, 
                            "type": "note", 
                            "channel": 13
                        }, 
                        {
                            "pitch": 47, 
                            "t0": 143760, 
                            "v": 88, 
                            "dur": 240, 
                            "type": "note", 
                            "channel": 13
                        }, 
                        {
                            "pitch": 50, 
                            "t0": 143760, 
                            "v": 88, 
                            "dur": 240, 
                            "type": "note", 
                            "channel": 13
                        }
                    ]
                ], 
                [
                    144000, 
                    [
                        {
                            "pitch": 41, 
                            "t0": 144000, 
                            "v": 88, 
                            "dur": 240, 
                            "type": "note", 
                            "channel": 13
                        }
                    ]
                ], 
                [
                    144240, 
                    [
                        {
                            "pitch": 41, 
                            "t0": 144240, 
                            "v": 88, 
                            "dur": 240, 
                            "type": "note", 
                            "channel": 13
                        }
                    ]
                ], 
                [
                    144480, 
                    [
                        {
                            "pitch": 53, 
                            "t0": 144480, 
                            "v": 88, 
                            "dur": 240, 
                            "type": "note", 
                            "channel": 13
                        }, 
                        {
                            "pitch": 41, 
                            "t0": 144480, 
                            "v": 88, 
                            "dur": 240, 
                            "type": "note", 
                            "channel": 13
                        }, 
                        {
                            "pitch": 45, 
                            "t0": 144480, 
                            "v": 88, 
                            "dur": 240, 
                            "type": "note", 
                            "channel": 13
                        }, 
                        {
                            "pitch": 48, 
                            "t0": 144480, 
                            "v": 88, 
                            "dur": 240, 
                            "type": "note", 
                            "channel": 13
                        }
                    ]
                ], 
                [
                    144720, 
                    [
                        {
                            "pitch": 36, 
                            "t0": 144720, 
                            "v": 88, 
                            "dur": 240, 
                            "type": "note", 
                            "channel": 13
                        }
                    ]
                ], 
                [
                    144960, 
                    [
                        {
                            "pitch": 36, 
                            "t0": 144960, 
                            "v": 88, 
                            "dur": 240, 
                            "type": "note", 
                            "channel": 13
                        }
                    ]
                ], 
                [
                    145200, 
                    [
                        {
                            "pitch": 52, 
                            "t0": 145200, 
                            "v": 88, 
                            "dur": 240, 
                            "type": "note", 
                            "channel": 13
                        }, 
                        {
                            "pitch": 43, 
                            "t0": 145200, 
                            "v": 88, 
                            "dur": 240, 
                            "type": "note", 
                            "channel": 13
                        }, 
                        {
                            "pitch": 48, 
                            "t0": 145200, 
                            "v": 88, 
                            "dur": 240, 
                            "type": "note", 
                            "channel": 13
                        }
                    ]
                ], 
                [
                    145680, 
                    [
                        {
                            "pitch": 38, 
                            "t0": 145680, 
                            "v": 88, 
                            "dur": 240, 
                            "type": "note", 
                            "channel": 13
                        }
                    ]
                ], 
                [
                    145920, 
                    [
                        {
                            "pitch": 43, 
                            "t0": 145920, 
                            "v": 88, 
                            "dur": 240, 
                            "type": "note", 
                            "channel": 13
                        }
                    ]
                ], 
                [
                    146160, 
                    [
                        {
                            "pitch": 43, 
                            "t0": 146160, 
                            "v": 88, 
                            "dur": 240, 
                            "type": "note", 
                            "channel": 13
                        }
                    ]
                ], 
                [
                    146400, 
                    [
                        {
                            "pitch": 55, 
                            "t0": 146400, 
                            "v": 88, 
                            "dur": 240, 
                            "type": "note", 
                            "channel": 13
                        }, 
                        {
                            "pitch": 47, 
                            "t0": 146400, 
                            "v": 88, 
                            "dur": 240, 
                            "type": "note", 
                            "channel": 13
                        }, 
                        {
                            "pitch": 50, 
                            "t0": 146400, 
                            "v": 88, 
                            "dur": 240, 
                            "type": "note", 
                            "channel": 13
                        }
                    ]
                ], 
                [
                    147120, 
                    [
                        {
                            "pitch": 43, 
                            "t0": 147120, 
                            "v": 88, 
                            "dur": 240, 
                            "type": "note", 
                            "channel": 13
                        }
                    ]
                ], 
                [
                    147360, 
                    [
                        {
                            "pitch": 43, 
                            "t0": 147360, 
                            "v": 88, 
                            "dur": 240, 
                            "type": "note", 
                            "channel": 13
                        }
                    ]
                ], 
                [
                    147600, 
                    [
                        {
                            "pitch": 55, 
                            "t0": 147600, 
                            "v": 88, 
                            "dur": 240, 
                            "type": "note", 
                            "channel": 13
                        }, 
                        {
                            "pitch": 43, 
                            "t0": 147600, 
                            "v": 88, 
                            "dur": 240, 
                            "type": "note", 
                            "channel": 13
                        }, 
                        {
                            "pitch": 47, 
                            "t0": 147600, 
                            "v": 88, 
                            "dur": 240, 
                            "type": "note", 
                            "channel": 13
                        }, 
                        {
                            "pitch": 50, 
                            "t0": 147600, 
                            "v": 88, 
                            "dur": 240, 
                            "type": "note", 
                            "channel": 13
                        }
                    ]
                ], 
                [
                    147840, 
                    [
                        {
                            "pitch": 41, 
                            "t0": 147840, 
                            "v": 88, 
                            "dur": 240, 
                            "type": "note", 
                            "channel": 13
                        }
                    ]
                ], 
                [
                    148080, 
                    [
                        {
                            "pitch": 41, 
                            "t0": 148080, 
                            "v": 88, 
                            "dur": 240, 
                            "type": "note", 
                            "channel": 13
                        }
                    ]
                ], 
                [
                    148320, 
                    [
                        {
                            "pitch": 53, 
                            "t0": 148320, 
                            "v": 88, 
                            "dur": 240, 
                            "type": "note", 
                            "channel": 13
                        }, 
                        {
                            "pitch": 41, 
                            "t0": 148320, 
                            "v": 88, 
                            "dur": 240, 
                            "type": "note", 
                            "channel": 13
                        }, 
                        {
                            "pitch": 45, 
                            "t0": 148320, 
                            "v": 88, 
                            "dur": 240, 
                            "type": "note", 
                            "channel": 13
                        }, 
                        {
                            "pitch": 48, 
                            "t0": 148320, 
                            "v": 88, 
                            "dur": 240, 
                            "type": "note", 
                            "channel": 13
                        }
                    ]
                ], 
                [
                    148560, 
                    [
                        {
                            "pitch": 36, 
                            "t0": 148560, 
                            "v": 88, 
                            "dur": 240, 
                            "type": "note", 
                            "channel": 13
                        }
                    ]
                ], 
                [
                    148800, 
                    [
                        {
                            "pitch": 36, 
                            "t0": 148800, 
                            "v": 88, 
                            "dur": 240, 
                            "type": "note", 
                            "channel": 13
                        }
                    ]
                ], 
                [
                    149040, 
                    [
                        {
                            "pitch": 52, 
                            "t0": 149040, 
                            "v": 88, 
                            "dur": 240, 
                            "type": "note", 
                            "channel": 13
                        }, 
                        {
                            "pitch": 43, 
                            "t0": 149040, 
                            "v": 88, 
                            "dur": 240, 
                            "type": "note", 
                            "channel": 13
                        }, 
                        {
                            "pitch": 48, 
                            "t0": 149040, 
                            "v": 88, 
                            "dur": 240, 
                            "type": "note", 
                            "channel": 13
                        }
                    ]
                ], 
                [
                    149520, 
                    [
                        {
                            "pitch": 38, 
                            "t0": 149520, 
                            "v": 88, 
                            "dur": 240, 
                            "type": "note", 
                            "channel": 13
                        }
                    ]
                ], 
                [
                    149760, 
                    [
                        {
                            "pitch": 43, 
                            "t0": 149760, 
                            "v": 88, 
                            "dur": 240, 
                            "type": "note", 
                            "channel": 13
                        }
                    ]
                ], 
                [
                    150000, 
                    [
                        {
                            "pitch": 55, 
                            "t0": 150000, 
                            "v": 88, 
                            "dur": 240, 
                            "type": "note", 
                            "channel": 13
                        }, 
                        {
                            "pitch": 43, 
                            "t0": 150000, 
                            "v": 88, 
                            "dur": 240, 
                            "type": "note", 
                            "channel": 13
                        }, 
                        {
                            "pitch": 47, 
                            "t0": 150000, 
                            "v": 88, 
                            "dur": 240, 
                            "type": "note", 
                            "channel": 13
                        }, 
                        {
                            "pitch": 50, 
                            "t0": 150000, 
                            "v": 88, 
                            "dur": 240, 
                            "type": "note", 
                            "channel": 13
                        }
                    ]
                ], 
                [
                    150960, 
                    [
                        {
                            "pitch": 43, 
                            "t0": 150960, 
                            "v": 88, 
                            "dur": 240, 
                            "type": "note", 
                            "channel": 13
                        }
                    ]
                ], 
                [
                    151200, 
                    [
                        {
                            "pitch": 55, 
                            "t0": 151200, 
                            "v": 88, 
                            "dur": 240, 
                            "type": "note", 
                            "channel": 13
                        }, 
                        {
                            "pitch": 43, 
                            "t0": 151200, 
                            "v": 88, 
                            "dur": 240, 
                            "type": "note", 
                            "channel": 13
                        }
                    ]
                ], 
                [
                    151440, 
                    [
                        {
                            "pitch": 50, 
                            "t0": 151440, 
                            "v": 88, 
                            "dur": 240, 
                            "type": "note", 
                            "channel": 13
                        }, 
                        {
                            "pitch": 47, 
                            "t0": 151440, 
                            "v": 88, 
                            "dur": 240, 
                            "type": "note", 
                            "channel": 13
                        }
                    ]
                ], 
                [
                    151680, 
                    [
                        {
                            "pitch": 41, 
                            "t0": 151680, 
                            "v": 88, 
                            "dur": 240, 
                            "type": "note", 
                            "channel": 13
                        }
                    ]
                ], 
                [
                    151920, 
                    [
                        {
                            "pitch": 41, 
                            "t0": 151920, 
                            "v": 88, 
                            "dur": 240, 
                            "type": "note", 
                            "channel": 13
                        }
                    ]
                ], 
                [
                    152160, 
                    [
                        {
                            "pitch": 53, 
                            "t0": 152160, 
                            "v": 88, 
                            "dur": 240, 
                            "type": "note", 
                            "channel": 13
                        }, 
                        {
                            "pitch": 45, 
                            "t0": 152160, 
                            "v": 88, 
                            "dur": 240, 
                            "type": "note", 
                            "channel": 13
                        }, 
                        {
                            "pitch": 48, 
                            "t0": 152160, 
                            "v": 88, 
                            "dur": 240, 
                            "type": "note", 
                            "channel": 13
                        }
                    ]
                ], 
                [
                    152400, 
                    [
                        {
                            "pitch": 36, 
                            "t0": 152400, 
                            "v": 88, 
                            "dur": 240, 
                            "type": "note", 
                            "channel": 13
                        }
                    ]
                ], 
                [
                    152640, 
                    [
                        {
                            "pitch": 36, 
                            "t0": 152640, 
                            "v": 88, 
                            "dur": 240, 
                            "type": "note", 
                            "channel": 13
                        }
                    ]
                ], 
                [
                    152880, 
                    [
                        {
                            "pitch": 52, 
                            "t0": 152880, 
                            "v": 88, 
                            "dur": 240, 
                            "type": "note", 
                            "channel": 13
                        }, 
                        {
                            "pitch": 43, 
                            "t0": 152880, 
                            "v": 88, 
                            "dur": 240, 
                            "type": "note", 
                            "channel": 13
                        }, 
                        {
                            "pitch": 48, 
                            "t0": 152880, 
                            "v": 88, 
                            "dur": 240, 
                            "type": "note", 
                            "channel": 13
                        }
                    ]
                ], 
                [
                    153600, 
                    [
                        {
                            "pitch": 43, 
                            "t0": 153600, 
                            "v": 88, 
                            "dur": 240, 
                            "type": "note", 
                            "channel": 13
                        }
                    ]
                ], 
                [
                    153840, 
                    [
                        {
                            "pitch": 43, 
                            "t0": 153840, 
                            "v": 88, 
                            "dur": 240, 
                            "type": "note", 
                            "channel": 13
                        }
                    ]
                ], 
                [
                    154080, 
                    [
                        {
                            "pitch": 55, 
                            "t0": 154080, 
                            "v": 88, 
                            "dur": 240, 
                            "type": "note", 
                            "channel": 13
                        }, 
                        {
                            "pitch": 47, 
                            "t0": 154080, 
                            "v": 88, 
                            "dur": 240, 
                            "type": "note", 
                            "channel": 13
                        }, 
                        {
                            "pitch": 50, 
                            "t0": 154080, 
                            "v": 88, 
                            "dur": 240, 
                            "type": "note", 
                            "channel": 13
                        }
                    ]
                ], 
                [
                    154800, 
                    [
                        {
                            "pitch": 43, 
                            "t0": 154800, 
                            "v": 88, 
                            "dur": 240, 
                            "type": "note", 
                            "channel": 13
                        }
                    ]
                ], 
                [
                    155040, 
                    [
                        {
                            "pitch": 43, 
                            "t0": 155040, 
                            "v": 88, 
                            "dur": 240, 
                            "type": "note", 
                            "channel": 13
                        }
                    ]
                ], 
                [
                    155280, 
                    [
                        {
                            "pitch": 55, 
                            "t0": 155280, 
                            "v": 88, 
                            "dur": 240, 
                            "type": "note", 
                            "channel": 13
                        }, 
                        {
                            "pitch": 43, 
                            "t0": 155280, 
                            "v": 88, 
                            "dur": 240, 
                            "type": "note", 
                            "channel": 13
                        }, 
                        {
                            "pitch": 47, 
                            "t0": 155280, 
                            "v": 88, 
                            "dur": 240, 
                            "type": "note", 
                            "channel": 13
                        }, 
                        {
                            "pitch": 50, 
                            "t0": 155280, 
                            "v": 88, 
                            "dur": 240, 
                            "type": "note", 
                            "channel": 13
                        }
                    ]
                ], 
                [
                    155520, 
                    [
                        {
                            "pitch": 41, 
                            "t0": 155520, 
                            "v": 88, 
                            "dur": 240, 
                            "type": "note", 
                            "channel": 13
                        }
                    ]
                ], 
                [
                    155760, 
                    [
                        {
                            "pitch": 41, 
                            "t0": 155760, 
                            "v": 88, 
                            "dur": 240, 
                            "type": "note", 
                            "channel": 13
                        }
                    ]
                ], 
                [
                    156000, 
                    [
                        {
                            "pitch": 53, 
                            "t0": 156000, 
                            "v": 88, 
                            "dur": 240, 
                            "type": "note", 
                            "channel": 13
                        }, 
                        {
                            "pitch": 41, 
                            "t0": 156000, 
                            "v": 88, 
                            "dur": 240, 
                            "type": "note", 
                            "channel": 13
                        }, 
                        {
                            "pitch": 45, 
                            "t0": 156000, 
                            "v": 88, 
                            "dur": 240, 
                            "type": "note", 
                            "channel": 13
                        }, 
                        {
                            "pitch": 48, 
                            "t0": 156000, 
                            "v": 88, 
                            "dur": 240, 
                            "type": "note", 
                            "channel": 13
                        }
                    ]
                ], 
                [
                    156240, 
                    [
                        {
                            "pitch": 36, 
                            "t0": 156240, 
                            "v": 88, 
                            "dur": 240, 
                            "type": "note", 
                            "channel": 13
                        }
                    ]
                ], 
                [
                    156480, 
                    [
                        {
                            "pitch": 36, 
                            "t0": 156480, 
                            "v": 88, 
                            "dur": 240, 
                            "type": "note", 
                            "channel": 13
                        }
                    ]
                ], 
                [
                    156720, 
                    [
                        {
                            "pitch": 52, 
                            "t0": 156720, 
                            "v": 88, 
                            "dur": 240, 
                            "type": "note", 
                            "channel": 13
                        }, 
                        {
                            "pitch": 43, 
                            "t0": 156720, 
                            "v": 88, 
                            "dur": 240, 
                            "type": "note", 
                            "channel": 13
                        }, 
                        {
                            "pitch": 48, 
                            "t0": 156720, 
                            "v": 88, 
                            "dur": 240, 
                            "type": "note", 
                            "channel": 13
                        }
                    ]
                ], 
                [
                    157200, 
                    [
                        {
                            "pitch": 38, 
                            "t0": 157200, 
                            "v": 88, 
                            "dur": 240, 
                            "type": "note", 
                            "channel": 13
                        }
                    ]
                ], 
                [
                    157440, 
                    [
                        {
                            "pitch": 43, 
                            "t0": 157440, 
                            "v": 88, 
                            "dur": 240, 
                            "type": "note", 
                            "channel": 13
                        }
                    ]
                ], 
                [
                    157680, 
                    [
                        {
                            "pitch": 43, 
                            "t0": 157680, 
                            "v": 88, 
                            "dur": 240, 
                            "type": "note", 
                            "channel": 13
                        }
                    ]
                ], 
                [
                    157920, 
                    [
                        {
                            "pitch": 55, 
                            "t0": 157920, 
                            "v": 88, 
                            "dur": 240, 
                            "type": "note", 
                            "channel": 13
                        }, 
                        {
                            "pitch": 47, 
                            "t0": 157920, 
                            "v": 88, 
                            "dur": 240, 
                            "type": "note", 
                            "channel": 13
                        }, 
                        {
                            "pitch": 50, 
                            "t0": 157920, 
                            "v": 88, 
                            "dur": 240, 
                            "type": "note", 
                            "channel": 13
                        }
                    ]
                ], 
                [
                    158640, 
                    [
                        {
                            "pitch": 43, 
                            "t0": 158640, 
                            "v": 88, 
                            "dur": 240, 
                            "type": "note", 
                            "channel": 13
                        }
                    ]
                ], 
                [
                    158880, 
                    [
                        {
                            "pitch": 43, 
                            "t0": 158880, 
                            "v": 88, 
                            "dur": 240, 
                            "type": "note", 
                            "channel": 13
                        }
                    ]
                ], 
                [
                    159120, 
                    [
                        {
                            "pitch": 55, 
                            "t0": 159120, 
                            "v": 88, 
                            "dur": 240, 
                            "type": "note", 
                            "channel": 13
                        }, 
                        {
                            "pitch": 43, 
                            "t0": 159120, 
                            "v": 88, 
                            "dur": 240, 
                            "type": "note", 
                            "channel": 13
                        }, 
                        {
                            "pitch": 47, 
                            "t0": 159120, 
                            "v": 88, 
                            "dur": 240, 
                            "type": "note", 
                            "channel": 13
                        }, 
                        {
                            "pitch": 50, 
                            "t0": 159120, 
                            "v": 88, 
                            "dur": 240, 
                            "type": "note", 
                            "channel": 13
                        }
                    ]
                ], 
                [
                    159360, 
                    [
                        {
                            "pitch": 41, 
                            "t0": 159360, 
                            "v": 88, 
                            "dur": 240, 
                            "type": "note", 
                            "channel": 13
                        }
                    ]
                ], 
                [
                    159600, 
                    [
                        {
                            "pitch": 41, 
                            "t0": 159600, 
                            "v": 88, 
                            "dur": 240, 
                            "type": "note", 
                            "channel": 13
                        }
                    ]
                ], 
                [
                    159840, 
                    [
                        {
                            "pitch": 53, 
                            "t0": 159840, 
                            "v": 88, 
                            "dur": 240, 
                            "type": "note", 
                            "channel": 13
                        }, 
                        {
                            "pitch": 41, 
                            "t0": 159840, 
                            "v": 88, 
                            "dur": 240, 
                            "type": "note", 
                            "channel": 13
                        }, 
                        {
                            "pitch": 45, 
                            "t0": 159840, 
                            "v": 88, 
                            "dur": 240, 
                            "type": "note", 
                            "channel": 13
                        }, 
                        {
                            "pitch": 48, 
                            "t0": 159840, 
                            "v": 88, 
                            "dur": 240, 
                            "type": "note", 
                            "channel": 13
                        }
                    ]
                ], 
                [
                    160080, 
                    [
                        {
                            "pitch": 36, 
                            "t0": 160080, 
                            "v": 88, 
                            "dur": 240, 
                            "type": "note", 
                            "channel": 13
                        }
                    ]
                ], 
                [
                    160320, 
                    [
                        {
                            "pitch": 36, 
                            "t0": 160320, 
                            "v": 88, 
                            "dur": 240, 
                            "type": "note", 
                            "channel": 13
                        }
                    ]
                ], 
                [
                    160560, 
                    [
                        {
                            "pitch": 52, 
                            "t0": 160560, 
                            "v": 88, 
                            "dur": 240, 
                            "type": "note", 
                            "channel": 13
                        }, 
                        {
                            "pitch": 43, 
                            "t0": 160560, 
                            "v": 88, 
                            "dur": 240, 
                            "type": "note", 
                            "channel": 13
                        }, 
                        {
                            "pitch": 48, 
                            "t0": 160560, 
                            "v": 88, 
                            "dur": 240, 
                            "type": "note", 
                            "channel": 13
                        }
                    ]
                ], 
                [
                    161040, 
                    [
                        {
                            "pitch": 38, 
                            "t0": 161040, 
                            "v": 88, 
                            "dur": 240, 
                            "type": "note", 
                            "channel": 13
                        }
                    ]
                ], 
                [
                    161280, 
                    [
                        {
                            "pitch": 43, 
                            "t0": 161280, 
                            "v": 88, 
                            "dur": 240, 
                            "type": "note", 
                            "channel": 13
                        }
                    ]
                ], 
                [
                    161520, 
                    [
                        {
                            "pitch": 43, 
                            "t0": 161520, 
                            "v": 88, 
                            "dur": 240, 
                            "type": "note", 
                            "channel": 13
                        }
                    ]
                ], 
                [
                    161760, 
                    [
                        {
                            "pitch": 55, 
                            "t0": 161760, 
                            "v": 88, 
                            "dur": 240, 
                            "type": "note", 
                            "channel": 13
                        }, 
                        {
                            "pitch": 47, 
                            "t0": 161760, 
                            "v": 88, 
                            "dur": 240, 
                            "type": "note", 
                            "channel": 13
                        }, 
                        {
                            "pitch": 50, 
                            "t0": 161760, 
                            "v": 88, 
                            "dur": 240, 
                            "type": "note", 
                            "channel": 13
                        }
                    ]
                ], 
                [
                    162480, 
                    [
                        {
                            "pitch": 43, 
                            "t0": 162480, 
                            "v": 88, 
                            "dur": 240, 
                            "type": "note", 
                            "channel": 13
                        }
                    ]
                ], 
                [
                    162720, 
                    [
                        {
                            "pitch": 43, 
                            "t0": 162720, 
                            "v": 88, 
                            "dur": 240, 
                            "type": "note", 
                            "channel": 13
                        }
                    ]
                ], 
                [
                    162960, 
                    [
                        {
                            "pitch": 55, 
                            "t0": 162960, 
                            "v": 88, 
                            "dur": 240, 
                            "type": "note", 
                            "channel": 13
                        }, 
                        {
                            "pitch": 43, 
                            "t0": 162960, 
                            "v": 88, 
                            "dur": 240, 
                            "type": "note", 
                            "channel": 13
                        }, 
                        {
                            "pitch": 47, 
                            "t0": 162960, 
                            "v": 88, 
                            "dur": 240, 
                            "type": "note", 
                            "channel": 13
                        }, 
                        {
                            "pitch": 50, 
                            "t0": 162960, 
                            "v": 88, 
                            "dur": 240, 
                            "type": "note", 
                            "channel": 13
                        }
                    ]
                ], 
                [
                    163200, 
                    [
                        {
                            "pitch": 41, 
                            "t0": 163200, 
                            "v": 88, 
                            "dur": 240, 
                            "type": "note", 
                            "channel": 13
                        }
                    ]
                ], 
                [
                    163440, 
                    [
                        {
                            "pitch": 41, 
                            "t0": 163440, 
                            "v": 88, 
                            "dur": 240, 
                            "type": "note", 
                            "channel": 13
                        }
                    ]
                ], 
                [
                    163680, 
                    [
                        {
                            "pitch": 53, 
                            "t0": 163680, 
                            "v": 88, 
                            "dur": 240, 
                            "type": "note", 
                            "channel": 13
                        }, 
                        {
                            "pitch": 41, 
                            "t0": 163680, 
                            "v": 88, 
                            "dur": 240, 
                            "type": "note", 
                            "channel": 13
                        }, 
                        {
                            "pitch": 45, 
                            "t0": 163680, 
                            "v": 88, 
                            "dur": 240, 
                            "type": "note", 
                            "channel": 13
                        }, 
                        {
                            "pitch": 48, 
                            "t0": 163680, 
                            "v": 88, 
                            "dur": 240, 
                            "type": "note", 
                            "channel": 13
                        }
                    ]
                ], 
                [
                    163920, 
                    [
                        {
                            "pitch": 36, 
                            "t0": 163920, 
                            "v": 88, 
                            "dur": 240, 
                            "type": "note", 
                            "channel": 13
                        }
                    ]
                ], 
                [
                    164160, 
                    [
                        {
                            "pitch": 36, 
                            "t0": 164160, 
                            "v": 88, 
                            "dur": 240, 
                            "type": "note", 
                            "channel": 13
                        }
                    ]
                ], 
                [
                    164400, 
                    [
                        {
                            "pitch": 52, 
                            "t0": 164400, 
                            "v": 88, 
                            "dur": 240, 
                            "type": "note", 
                            "channel": 13
                        }, 
                        {
                            "pitch": 43, 
                            "t0": 164400, 
                            "v": 88, 
                            "dur": 240, 
                            "type": "note", 
                            "channel": 13
                        }, 
                        {
                            "pitch": 48, 
                            "t0": 164400, 
                            "v": 88, 
                            "dur": 240, 
                            "type": "note", 
                            "channel": 13
                        }
                    ]
                ], 
                [
                    164880, 
                    [
                        {
                            "pitch": 38, 
                            "t0": 164880, 
                            "v": 88, 
                            "dur": 240, 
                            "type": "note", 
                            "channel": 13
                        }
                    ]
                ], 
                [
                    165120, 
                    [
                        {
                            "pitch": 43, 
                            "t0": 165120, 
                            "v": 88, 
                            "dur": 240, 
                            "type": "note", 
                            "channel": 13
                        }
                    ]
                ], 
                [
                    165360, 
                    [
                        {
                            "pitch": 43, 
                            "t0": 165360, 
                            "v": 88, 
                            "dur": 240, 
                            "type": "note", 
                            "channel": 13
                        }
                    ]
                ], 
                [
                    165600, 
                    [
                        {
                            "pitch": 55, 
                            "t0": 165600, 
                            "v": 88, 
                            "dur": 240, 
                            "type": "note", 
                            "channel": 13
                        }, 
                        {
                            "pitch": 47, 
                            "t0": 165600, 
                            "v": 88, 
                            "dur": 240, 
                            "type": "note", 
                            "channel": 13
                        }, 
                        {
                            "pitch": 50, 
                            "t0": 165600, 
                            "v": 88, 
                            "dur": 240, 
                            "type": "note", 
                            "channel": 13
                        }
                    ]
                ], 
                [
                    166320, 
                    [
                        {
                            "pitch": 43, 
                            "t0": 166320, 
                            "v": 88, 
                            "dur": 240, 
                            "type": "note", 
                            "channel": 13
                        }
                    ]
                ], 
                [
                    166560, 
                    [
                        {
                            "pitch": 43, 
                            "t0": 166560, 
                            "v": 88, 
                            "dur": 240, 
                            "type": "note", 
                            "channel": 13
                        }
                    ]
                ], 
                [
                    166800, 
                    [
                        {
                            "pitch": 55, 
                            "t0": 166800, 
                            "v": 88, 
                            "dur": 240, 
                            "type": "note", 
                            "channel": 13
                        }, 
                        {
                            "pitch": 43, 
                            "t0": 166800, 
                            "v": 88, 
                            "dur": 240, 
                            "type": "note", 
                            "channel": 13
                        }, 
                        {
                            "pitch": 47, 
                            "t0": 166800, 
                            "v": 88, 
                            "dur": 240, 
                            "type": "note", 
                            "channel": 13
                        }, 
                        {
                            "pitch": 50, 
                            "t0": 166800, 
                            "v": 88, 
                            "dur": 240, 
                            "type": "note", 
                            "channel": 13
                        }
                    ]
                ], 
                [
                    167040, 
                    [
                        {
                            "pitch": 41, 
                            "t0": 167040, 
                            "v": 88, 
                            "dur": 240, 
                            "type": "note", 
                            "channel": 13
                        }
                    ]
                ], 
                [
                    167280, 
                    [
                        {
                            "pitch": 41, 
                            "t0": 167280, 
                            "v": 88, 
                            "dur": 240, 
                            "type": "note", 
                            "channel": 13
                        }
                    ]
                ], 
                [
                    167520, 
                    [
                        {
                            "pitch": 53, 
                            "t0": 167520, 
                            "v": 88, 
                            "dur": 240, 
                            "type": "note", 
                            "channel": 13
                        }, 
                        {
                            "pitch": 41, 
                            "t0": 167520, 
                            "v": 88, 
                            "dur": 240, 
                            "type": "note", 
                            "channel": 13
                        }, 
                        {
                            "pitch": 45, 
                            "t0": 167520, 
                            "v": 88, 
                            "dur": 240, 
                            "type": "note", 
                            "channel": 13
                        }, 
                        {
                            "pitch": 48, 
                            "t0": 167520, 
                            "v": 88, 
                            "dur": 240, 
                            "type": "note", 
                            "channel": 13
                        }
                    ]
                ], 
                [
                    167760, 
                    [
                        {
                            "pitch": 36, 
                            "t0": 167760, 
                            "v": 88, 
                            "dur": 240, 
                            "type": "note", 
                            "channel": 13
                        }
                    ]
                ], 
                [
                    168000, 
                    [
                        {
                            "pitch": 36, 
                            "t0": 168000, 
                            "v": 88, 
                            "dur": 240, 
                            "type": "note", 
                            "channel": 13
                        }
                    ]
                ], 
                [
                    168240, 
                    [
                        {
                            "pitch": 52, 
                            "t0": 168240, 
                            "v": 88, 
                            "dur": 240, 
                            "type": "note", 
                            "channel": 13
                        }, 
                        {
                            "pitch": 43, 
                            "t0": 168240, 
                            "v": 88, 
                            "dur": 240, 
                            "type": "note", 
                            "channel": 13
                        }, 
                        {
                            "pitch": 48, 
                            "t0": 168240, 
                            "v": 88, 
                            "dur": 240, 
                            "type": "note", 
                            "channel": 13
                        }
                    ]
                ], 
                [
                    168720, 
                    [
                        {
                            "pitch": 38, 
                            "t0": 168720, 
                            "v": 88, 
                            "dur": 240, 
                            "type": "note", 
                            "channel": 13
                        }
                    ]
                ]
            ], 
            "instruments": [
                0
            ], 
            "tMax": 168720, 
            "channels": [
                13
            ], 
            "instrument": 0, 
            "numNotes": 553, 
            "type": "TrackObj"
        }, 
        {
            "trackName": "Track-11", 
            "seq": [
                [
                    0, 
                    [
                        {
                            "instrument": 33, 
                            "type": "programChange", 
                            "t0": 0, 
                            "channel": 0
                        }
                    ]
                ], 
                [
                    97920, 
                    [
                        {
                            "pitch": 36, 
                            "t0": 97920, 
                            "v": 94, 
                            "dur": 1980, 
                            "type": "note", 
                            "channel": 0
                        }
                    ]
                ], 
                [
                    99840, 
                    [
                        {
                            "pitch": 31, 
                            "t0": 99840, 
                            "v": 94, 
                            "dur": 1980, 
                            "type": "note", 
                            "channel": 0
                        }
                    ]
                ], 
                [
                    101760, 
                    [
                        {
                            "pitch": 33, 
                            "t0": 101760, 
                            "v": 94, 
                            "dur": 1980, 
                            "type": "note", 
                            "channel": 0
                        }
                    ]
                ], 
                [
                    103680, 
                    [
                        {
                            "pitch": 29, 
                            "t0": 103680, 
                            "v": 94, 
                            "dur": 1020, 
                            "type": "note", 
                            "channel": 0
                        }
                    ]
                ], 
                [
                    104640, 
                    [
                        {
                            "pitch": 31, 
                            "t0": 104640, 
                            "v": 94, 
                            "dur": 1020, 
                            "type": "note", 
                            "channel": 0
                        }
                    ]
                ], 
                [
                    105600, 
                    [
                        {
                            "pitch": 36, 
                            "t0": 105600, 
                            "v": 94, 
                            "dur": 1980, 
                            "type": "note", 
                            "channel": 0
                        }
                    ]
                ], 
                [
                    107520, 
                    [
                        {
                            "pitch": 31, 
                            "t0": 107520, 
                            "v": 94, 
                            "dur": 1980, 
                            "type": "note", 
                            "channel": 0
                        }
                    ]
                ], 
                [
                    109440, 
                    [
                        {
                            "pitch": 33, 
                            "t0": 109440, 
                            "v": 94, 
                            "dur": 1980, 
                            "type": "note", 
                            "channel": 0
                        }
                    ]
                ], 
                [
                    111360, 
                    [
                        {
                            "pitch": 29, 
                            "t0": 111360, 
                            "v": 94, 
                            "dur": 1020, 
                            "type": "note", 
                            "channel": 0
                        }
                    ]
                ], 
                [
                    112320, 
                    [
                        {
                            "pitch": 31, 
                            "t0": 112320, 
                            "v": 94, 
                            "dur": 1020, 
                            "type": "note", 
                            "channel": 0
                        }
                    ]
                ], 
                [
                    113280, 
                    [
                        {
                            "pitch": 36, 
                            "t0": 113280, 
                            "v": 94, 
                            "dur": 1980, 
                            "type": "note", 
                            "channel": 0
                        }
                    ]
                ], 
                [
                    115200, 
                    [
                        {
                            "pitch": 31, 
                            "t0": 115200, 
                            "v": 94, 
                            "dur": 1980, 
                            "type": "note", 
                            "channel": 0
                        }
                    ]
                ], 
                [
                    117120, 
                    [
                        {
                            "pitch": 29, 
                            "t0": 117120, 
                            "parts": [
                                [
                                    117120, 
                                    94
                                ], 
                                [
                                    118560, 
                                    94
                                ], 
                                [
                                    118620, 
                                    0
                                ]
                            ], 
                            "v": 94, 
                            "dur": 1500, 
                            "type": "note", 
                            "channel": 0
                        }
                    ]
                ], 
                [
                    119040, 
                    [
                        {
                            "pitch": 26, 
                            "t0": 119040, 
                            "v": 94, 
                            "dur": 2940, 
                            "type": "note", 
                            "channel": 0
                        }
                    ]
                ]
            ], 
            "instruments": [
                33
            ], 
            "tMax": 119040, 
            "channels": [
                0
            ], 
            "instrument": 33, 
            "numNotes": 14, 
            "type": "TrackObj"
        }, 
        {
            "trackName": "Track-5", 
            "seq": [
                [
                    1920, 
                    [
                        {
                            "instrument": 53, 
                            "type": "programChange", 
                            "t0": 1920, 
                            "channel": 3
                        }
                    ]
                ], 
                [
                    13440, 
                    [
                        {
                            "pitch": 67, 
                            "t0": 13440, 
                            "v": 100, 
                            "dur": 240, 
                            "type": "note", 
                            "channel": 3
                        }
                    ]
                ], 
                [
                    13680, 
                    [
                        {
                            "pitch": 71, 
                            "t0": 13680, 
                            "v": 100, 
                            "dur": 240, 
                            "type": "note", 
                            "channel": 3
                        }
                    ]
                ], 
                [
                    13920, 
                    [
                        {
                            "pitch": 67, 
                            "t0": 13920, 
                            "v": 100, 
                            "dur": 240, 
                            "type": "note", 
                            "channel": 3
                        }
                    ]
                ], 
                [
                    14160, 
                    [
                        {
                            "pitch": 67, 
                            "t0": 14160, 
                            "v": 100, 
                            "dur": 240, 
                            "type": "note", 
                            "channel": 3
                        }
                    ]
                ], 
                [
                    14400, 
                    [
                        {
                            "pitch": 67, 
                            "t0": 14400, 
                            "v": 100, 
                            "dur": 240, 
                            "type": "note", 
                            "channel": 3
                        }
                    ]
                ], 
                [
                    14640, 
                    [
                        {
                            "pitch": 71, 
                            "t0": 14640, 
                            "v": 100, 
                            "dur": 240, 
                            "type": "note", 
                            "channel": 3
                        }
                    ]
                ], 
                [
                    14880, 
                    [
                        {
                            "pitch": 67, 
                            "t0": 14880, 
                            "v": 100, 
                            "dur": 240, 
                            "type": "note", 
                            "channel": 3
                        }
                    ]
                ], 
                [
                    15120, 
                    [
                        {
                            "pitch": 67, 
                            "t0": 15120, 
                            "v": 100, 
                            "dur": 240, 
                            "type": "note", 
                            "channel": 3
                        }
                    ]
                ], 
                [
                    15360, 
                    [
                        {
                            "pitch": 67, 
                            "t0": 15360, 
                            "v": 100, 
                            "dur": 240, 
                            "type": "note", 
                            "channel": 3
                        }
                    ]
                ], 
                [
                    15600, 
                    [
                        {
                            "pitch": 72, 
                            "t0": 15600, 
                            "v": 100, 
                            "dur": 240, 
                            "type": "note", 
                            "channel": 3
                        }
                    ]
                ], 
                [
                    15840, 
                    [
                        {
                            "pitch": 72, 
                            "t0": 15840, 
                            "v": 100, 
                            "dur": 240, 
                            "type": "note", 
                            "channel": 3
                        }
                    ]
                ], 
                [
                    16080, 
                    [
                        {
                            "pitch": 72, 
                            "t0": 16080, 
                            "v": 100, 
                            "dur": 240, 
                            "type": "note", 
                            "channel": 3
                        }
                    ]
                ], 
                [
                    16320, 
                    [
                        {
                            "pitch": 72, 
                            "t0": 16320, 
                            "v": 100, 
                            "dur": 480, 
                            "type": "note", 
                            "channel": 3
                        }
                    ]
                ], 
                [
                    16800, 
                    [
                        {
                            "pitch": 67, 
                            "t0": 16800, 
                            "v": 100, 
                            "dur": 240, 
                            "type": "note", 
                            "channel": 3
                        }
                    ]
                ], 
                [
                    17040, 
                    [
                        {
                            "pitch": 67, 
                            "t0": 17040, 
                            "v": 100, 
                            "dur": 240, 
                            "type": "note", 
                            "channel": 3
                        }
                    ]
                ], 
                [
                    17280, 
                    [
                        {
                            "pitch": 67, 
                            "t0": 17280, 
                            "v": 100, 
                            "dur": 240, 
                            "type": "note", 
                            "channel": 3
                        }
                    ]
                ], 
                [
                    17520, 
                    [
                        {
                            "pitch": 71, 
                            "t0": 17520, 
                            "v": 100, 
                            "dur": 240, 
                            "type": "note", 
                            "channel": 3
                        }
                    ]
                ], 
                [
                    17760, 
                    [
                        {
                            "pitch": 67, 
                            "t0": 17760, 
                            "v": 100, 
                            "dur": 240, 
                            "type": "note", 
                            "channel": 3
                        }
                    ]
                ], 
                [
                    18000, 
                    [
                        {
                            "pitch": 67, 
                            "t0": 18000, 
                            "v": 100, 
                            "dur": 240, 
                            "type": "note", 
                            "channel": 3
                        }
                    ]
                ], 
                [
                    18240, 
                    [
                        {
                            "pitch": 67, 
                            "t0": 18240, 
                            "v": 100, 
                            "dur": 240, 
                            "type": "note", 
                            "channel": 3
                        }
                    ]
                ], 
                [
                    18480, 
                    [
                        {
                            "pitch": 71, 
                            "t0": 18480, 
                            "v": 100, 
                            "dur": 240, 
                            "type": "note", 
                            "channel": 3
                        }
                    ]
                ], 
                [
                    18720, 
                    [
                        {
                            "pitch": 67, 
                            "t0": 18720, 
                            "v": 100, 
                            "dur": 240, 
                            "type": "note", 
                            "channel": 3
                        }
                    ]
                ], 
                [
                    18960, 
                    [
                        {
                            "pitch": 67, 
                            "t0": 18960, 
                            "v": 100, 
                            "dur": 240, 
                            "type": "note", 
                            "channel": 3
                        }
                    ]
                ], 
                [
                    19200, 
                    [
                        {
                            "pitch": 67, 
                            "t0": 19200, 
                            "v": 100, 
                            "dur": 240, 
                            "type": "note", 
                            "channel": 3
                        }
                    ]
                ], 
                [
                    19440, 
                    [
                        {
                            "pitch": 72, 
                            "t0": 19440, 
                            "v": 100, 
                            "dur": 240, 
                            "type": "note", 
                            "channel": 3
                        }
                    ]
                ], 
                [
                    19680, 
                    [
                        {
                            "pitch": 72, 
                            "t0": 19680, 
                            "v": 100, 
                            "dur": 240, 
                            "type": "note", 
                            "channel": 3
                        }
                    ]
                ], 
                [
                    19920, 
                    [
                        {
                            "pitch": 72, 
                            "t0": 19920, 
                            "v": 100, 
                            "dur": 240, 
                            "type": "note", 
                            "channel": 3
                        }
                    ]
                ], 
                [
                    20160, 
                    [
                        {
                            "pitch": 72, 
                            "t0": 20160, 
                            "v": 100, 
                            "dur": 480, 
                            "type": "note", 
                            "channel": 3
                        }
                    ]
                ], 
                [
                    20640, 
                    [
                        {
                            "pitch": 67, 
                            "t0": 20640, 
                            "v": 100, 
                            "dur": 240, 
                            "type": "note", 
                            "channel": 3
                        }
                    ]
                ], 
                [
                    20880, 
                    [
                        {
                            "pitch": 67, 
                            "t0": 20880, 
                            "v": 100, 
                            "dur": 240, 
                            "type": "note", 
                            "channel": 3
                        }
                    ]
                ], 
                [
                    21120, 
                    [
                        {
                            "pitch": 67, 
                            "t0": 21120, 
                            "v": 100, 
                            "dur": 240, 
                            "type": "note", 
                            "channel": 3
                        }
                    ]
                ], 
                [
                    21360, 
                    [
                        {
                            "pitch": 71, 
                            "t0": 21360, 
                            "v": 100, 
                            "dur": 240, 
                            "type": "note", 
                            "channel": 3
                        }
                    ]
                ], 
                [
                    21600, 
                    [
                        {
                            "pitch": 67, 
                            "t0": 21600, 
                            "v": 100, 
                            "dur": 240, 
                            "type": "note", 
                            "channel": 3
                        }
                    ]
                ], 
                [
                    21840, 
                    [
                        {
                            "pitch": 67, 
                            "t0": 21840, 
                            "v": 100, 
                            "dur": 240, 
                            "type": "note", 
                            "channel": 3
                        }
                    ]
                ], 
                [
                    22080, 
                    [
                        {
                            "pitch": 67, 
                            "t0": 22080, 
                            "v": 100, 
                            "dur": 240, 
                            "type": "note", 
                            "channel": 3
                        }
                    ]
                ], 
                [
                    22320, 
                    [
                        {
                            "pitch": 71, 
                            "t0": 22320, 
                            "v": 100, 
                            "dur": 240, 
                            "type": "note", 
                            "channel": 3
                        }
                    ]
                ], 
                [
                    22560, 
                    [
                        {
                            "pitch": 67, 
                            "t0": 22560, 
                            "v": 100, 
                            "dur": 240, 
                            "type": "note", 
                            "channel": 3
                        }
                    ]
                ], 
                [
                    22800, 
                    [
                        {
                            "pitch": 67, 
                            "t0": 22800, 
                            "v": 100, 
                            "dur": 240, 
                            "type": "note", 
                            "channel": 3
                        }
                    ]
                ], 
                [
                    23040, 
                    [
                        {
                            "pitch": 67, 
                            "t0": 23040, 
                            "v": 100, 
                            "dur": 240, 
                            "type": "note", 
                            "channel": 3
                        }
                    ]
                ], 
                [
                    23280, 
                    [
                        {
                            "pitch": 72, 
                            "t0": 23280, 
                            "v": 100, 
                            "dur": 240, 
                            "type": "note", 
                            "channel": 3
                        }
                    ]
                ], 
                [
                    23520, 
                    [
                        {
                            "pitch": 72, 
                            "t0": 23520, 
                            "v": 100, 
                            "dur": 240, 
                            "type": "note", 
                            "channel": 3
                        }
                    ]
                ], 
                [
                    23760, 
                    [
                        {
                            "pitch": 72, 
                            "t0": 23760, 
                            "v": 100, 
                            "dur": 240, 
                            "type": "note", 
                            "channel": 3
                        }
                    ]
                ], 
                [
                    24000, 
                    [
                        {
                            "pitch": 72, 
                            "t0": 24000, 
                            "v": 100, 
                            "dur": 480, 
                            "type": "note", 
                            "channel": 3
                        }
                    ]
                ], 
                [
                    24480, 
                    [
                        {
                            "pitch": 67, 
                            "t0": 24480, 
                            "v": 100, 
                            "dur": 240, 
                            "type": "note", 
                            "channel": 3
                        }
                    ]
                ], 
                [
                    24720, 
                    [
                        {
                            "pitch": 67, 
                            "t0": 24720, 
                            "v": 100, 
                            "dur": 240, 
                            "type": "note", 
                            "channel": 3
                        }
                    ]
                ], 
                [
                    24960, 
                    [
                        {
                            "pitch": 67, 
                            "t0": 24960, 
                            "v": 100, 
                            "dur": 240, 
                            "type": "note", 
                            "channel": 3
                        }
                    ]
                ], 
                [
                    25200, 
                    [
                        {
                            "pitch": 71, 
                            "t0": 25200, 
                            "v": 100, 
                            "dur": 240, 
                            "type": "note", 
                            "channel": 3
                        }
                    ]
                ], 
                [
                    25440, 
                    [
                        {
                            "pitch": 67, 
                            "t0": 25440, 
                            "v": 100, 
                            "dur": 240, 
                            "type": "note", 
                            "channel": 3
                        }
                    ]
                ], 
                [
                    25680, 
                    [
                        {
                            "pitch": 67, 
                            "t0": 25680, 
                            "v": 100, 
                            "dur": 240, 
                            "type": "note", 
                            "channel": 3
                        }
                    ]
                ], 
                [
                    25920, 
                    [
                        {
                            "pitch": 67, 
                            "t0": 25920, 
                            "v": 100, 
                            "dur": 240, 
                            "type": "note", 
                            "channel": 3
                        }
                    ]
                ], 
                [
                    26160, 
                    [
                        {
                            "pitch": 71, 
                            "t0": 26160, 
                            "v": 100, 
                            "dur": 240, 
                            "type": "note", 
                            "channel": 3
                        }
                    ]
                ], 
                [
                    26400, 
                    [
                        {
                            "pitch": 67, 
                            "t0": 26400, 
                            "v": 100, 
                            "dur": 240, 
                            "type": "note", 
                            "channel": 3
                        }
                    ]
                ], 
                [
                    26640, 
                    [
                        {
                            "pitch": 67, 
                            "t0": 26640, 
                            "v": 100, 
                            "dur": 240, 
                            "type": "note", 
                            "channel": 3
                        }
                    ]
                ], 
                [
                    26880, 
                    [
                        {
                            "pitch": 67, 
                            "t0": 26880, 
                            "v": 100, 
                            "dur": 240, 
                            "type": "note", 
                            "channel": 3
                        }
                    ]
                ], 
                [
                    27120, 
                    [
                        {
                            "pitch": 72, 
                            "t0": 27120, 
                            "v": 100, 
                            "dur": 240, 
                            "type": "note", 
                            "channel": 3
                        }
                    ]
                ], 
                [
                    27360, 
                    [
                        {
                            "pitch": 72, 
                            "t0": 27360, 
                            "v": 100, 
                            "dur": 240, 
                            "type": "note", 
                            "channel": 3
                        }
                    ]
                ], 
                [
                    27600, 
                    [
                        {
                            "pitch": 72, 
                            "t0": 27600, 
                            "v": 100, 
                            "dur": 240, 
                            "type": "note", 
                            "channel": 3
                        }
                    ]
                ], 
                [
                    27840, 
                    [
                        {
                            "pitch": 72, 
                            "t0": 27840, 
                            "v": 100, 
                            "dur": 480, 
                            "type": "note", 
                            "channel": 3
                        }
                    ]
                ], 
                [
                    29280, 
                    [
                        {
                            "pitch": 75, 
                            "t0": 29280, 
                            "v": 100, 
                            "dur": 480, 
                            "type": "note", 
                            "channel": 3
                        }
                    ]
                ], 
                [
                    30000, 
                    [
                        {
                            "pitch": 75, 
                            "t0": 30000, 
                            "v": 100, 
                            "dur": 480, 
                            "type": "note", 
                            "channel": 3
                        }
                    ]
                ], 
                [
                    31200, 
                    [
                        {
                            "pitch": 74, 
                            "t0": 31200, 
                            "v": 100, 
                            "dur": 480, 
                            "type": "note", 
                            "channel": 3
                        }
                    ]
                ], 
                [
                    31920, 
                    [
                        {
                            "pitch": 72, 
                            "t0": 31920, 
                            "v": 100, 
                            "dur": 240, 
                            "type": "note", 
                            "channel": 3
                        }
                    ]
                ], 
                [
                    33120, 
                    [
                        {
                            "pitch": 75, 
                            "t0": 33120, 
                            "v": 100, 
                            "dur": 480, 
                            "type": "note", 
                            "channel": 3
                        }
                    ]
                ], 
                [
                    33840, 
                    [
                        {
                            "pitch": 75, 
                            "t0": 33840, 
                            "v": 100, 
                            "dur": 480, 
                            "type": "note", 
                            "channel": 3
                        }
                    ]
                ], 
                [
                    35040, 
                    [
                        {
                            "pitch": 74, 
                            "t0": 35040, 
                            "v": 100, 
                            "dur": 480, 
                            "type": "note", 
                            "channel": 3
                        }
                    ]
                ], 
                [
                    35760, 
                    [
                        {
                            "pitch": 72, 
                            "t0": 35760, 
                            "v": 100, 
                            "dur": 240, 
                            "type": "note", 
                            "channel": 3
                        }
                    ]
                ], 
                [
                    36960, 
                    [
                        {
                            "pitch": 75, 
                            "t0": 36960, 
                            "v": 100, 
                            "dur": 480, 
                            "type": "note", 
                            "channel": 3
                        }
                    ]
                ], 
                [
                    37680, 
                    [
                        {
                            "pitch": 75, 
                            "t0": 37680, 
                            "v": 100, 
                            "dur": 480, 
                            "type": "note", 
                            "channel": 3
                        }
                    ]
                ], 
                [
                    38880, 
                    [
                        {
                            "pitch": 74, 
                            "t0": 38880, 
                            "v": 100, 
                            "dur": 480, 
                            "type": "note", 
                            "channel": 3
                        }
                    ]
                ], 
                [
                    39600, 
                    [
                        {
                            "pitch": 72, 
                            "t0": 39600, 
                            "v": 100, 
                            "dur": 240, 
                            "type": "note", 
                            "channel": 3
                        }
                    ]
                ], 
                [
                    40800, 
                    [
                        {
                            "pitch": 75, 
                            "t0": 40800, 
                            "v": 100, 
                            "dur": 480, 
                            "type": "note", 
                            "channel": 3
                        }
                    ]
                ], 
                [
                    41520, 
                    [
                        {
                            "pitch": 75, 
                            "t0": 41520, 
                            "v": 100, 
                            "dur": 480, 
                            "type": "note", 
                            "channel": 3
                        }
                    ]
                ], 
                [
                    42720, 
                    [
                        {
                            "pitch": 74, 
                            "t0": 42720, 
                            "v": 100, 
                            "dur": 480, 
                            "type": "note", 
                            "channel": 3
                        }
                    ]
                ], 
                [
                    43440, 
                    [
                        {
                            "pitch": 72, 
                            "t0": 43440, 
                            "v": 100, 
                            "dur": 240, 
                            "type": "note", 
                            "channel": 3
                        }
                    ]
                ], 
                [
                    44640, 
                    [
                        {
                            "pitch": 74, 
                            "t0": 44640, 
                            "v": 100, 
                            "dur": 480, 
                            "type": "note", 
                            "channel": 3
                        }
                    ]
                ], 
                [
                    45360, 
                    [
                        {
                            "pitch": 74, 
                            "t0": 45360, 
                            "v": 100, 
                            "dur": 480, 
                            "type": "note", 
                            "channel": 3
                        }
                    ]
                ], 
                [
                    46560, 
                    [
                        {
                            "pitch": 74, 
                            "t0": 46560, 
                            "v": 100, 
                            "dur": 480, 
                            "type": "note", 
                            "channel": 3
                        }
                    ]
                ], 
                [
                    47040, 
                    [
                        {
                            "pitch": 74, 
                            "t0": 47040, 
                            "v": 100, 
                            "dur": 480, 
                            "type": "note", 
                            "channel": 3
                        }
                    ]
                ], 
                [
                    63360, 
                    [
                        {
                            "pitch": 67, 
                            "t0": 63360, 
                            "v": 100, 
                            "dur": 240, 
                            "type": "note", 
                            "channel": 3
                        }
                    ]
                ], 
                [
                    63600, 
                    [
                        {
                            "pitch": 71, 
                            "t0": 63600, 
                            "v": 100, 
                            "dur": 240, 
                            "type": "note", 
                            "channel": 3
                        }
                    ]
                ], 
                [
                    63840, 
                    [
                        {
                            "pitch": 67, 
                            "t0": 63840, 
                            "v": 100, 
                            "dur": 240, 
                            "type": "note", 
                            "channel": 3
                        }
                    ]
                ], 
                [
                    64080, 
                    [
                        {
                            "pitch": 67, 
                            "t0": 64080, 
                            "v": 100, 
                            "dur": 240, 
                            "type": "note", 
                            "channel": 3
                        }
                    ]
                ], 
                [
                    64320, 
                    [
                        {
                            "pitch": 67, 
                            "t0": 64320, 
                            "v": 100, 
                            "dur": 240, 
                            "type": "note", 
                            "channel": 3
                        }
                    ]
                ], 
                [
                    64560, 
                    [
                        {
                            "pitch": 71, 
                            "t0": 64560, 
                            "v": 100, 
                            "dur": 240, 
                            "type": "note", 
                            "channel": 3
                        }
                    ]
                ], 
                [
                    64800, 
                    [
                        {
                            "pitch": 67, 
                            "t0": 64800, 
                            "v": 100, 
                            "dur": 240, 
                            "type": "note", 
                            "channel": 3
                        }
                    ]
                ], 
                [
                    65040, 
                    [
                        {
                            "pitch": 67, 
                            "t0": 65040, 
                            "v": 100, 
                            "dur": 240, 
                            "type": "note", 
                            "channel": 3
                        }
                    ]
                ], 
                [
                    65280, 
                    [
                        {
                            "pitch": 67, 
                            "t0": 65280, 
                            "v": 100, 
                            "dur": 240, 
                            "type": "note", 
                            "channel": 3
                        }
                    ]
                ], 
                [
                    65520, 
                    [
                        {
                            "pitch": 72, 
                            "t0": 65520, 
                            "v": 100, 
                            "dur": 240, 
                            "type": "note", 
                            "channel": 3
                        }
                    ]
                ], 
                [
                    65760, 
                    [
                        {
                            "pitch": 72, 
                            "t0": 65760, 
                            "v": 100, 
                            "dur": 240, 
                            "type": "note", 
                            "channel": 3
                        }
                    ]
                ], 
                [
                    66000, 
                    [
                        {
                            "pitch": 72, 
                            "t0": 66000, 
                            "v": 100, 
                            "dur": 240, 
                            "type": "note", 
                            "channel": 3
                        }
                    ]
                ], 
                [
                    66240, 
                    [
                        {
                            "pitch": 72, 
                            "t0": 66240, 
                            "v": 100, 
                            "dur": 480, 
                            "type": "note", 
                            "channel": 3
                        }
                    ]
                ], 
                [
                    66720, 
                    [
                        {
                            "pitch": 67, 
                            "t0": 66720, 
                            "v": 100, 
                            "dur": 240, 
                            "type": "note", 
                            "channel": 3
                        }
                    ]
                ], 
                [
                    66960, 
                    [
                        {
                            "pitch": 67, 
                            "t0": 66960, 
                            "v": 100, 
                            "dur": 240, 
                            "type": "note", 
                            "channel": 3
                        }
                    ]
                ], 
                [
                    67200, 
                    [
                        {
                            "pitch": 67, 
                            "t0": 67200, 
                            "v": 100, 
                            "dur": 240, 
                            "type": "note", 
                            "channel": 3
                        }
                    ]
                ], 
                [
                    67440, 
                    [
                        {
                            "pitch": 71, 
                            "t0": 67440, 
                            "v": 100, 
                            "dur": 240, 
                            "type": "note", 
                            "channel": 3
                        }
                    ]
                ], 
                [
                    67680, 
                    [
                        {
                            "pitch": 67, 
                            "t0": 67680, 
                            "v": 100, 
                            "dur": 240, 
                            "type": "note", 
                            "channel": 3
                        }
                    ]
                ], 
                [
                    67920, 
                    [
                        {
                            "pitch": 67, 
                            "t0": 67920, 
                            "v": 100, 
                            "dur": 240, 
                            "type": "note", 
                            "channel": 3
                        }
                    ]
                ], 
                [
                    68160, 
                    [
                        {
                            "pitch": 67, 
                            "t0": 68160, 
                            "v": 100, 
                            "dur": 240, 
                            "type": "note", 
                            "channel": 3
                        }
                    ]
                ], 
                [
                    68400, 
                    [
                        {
                            "pitch": 71, 
                            "t0": 68400, 
                            "v": 100, 
                            "dur": 240, 
                            "type": "note", 
                            "channel": 3
                        }
                    ]
                ], 
                [
                    68640, 
                    [
                        {
                            "pitch": 67, 
                            "t0": 68640, 
                            "v": 100, 
                            "dur": 240, 
                            "type": "note", 
                            "channel": 3
                        }
                    ]
                ], 
                [
                    68880, 
                    [
                        {
                            "pitch": 67, 
                            "t0": 68880, 
                            "v": 100, 
                            "dur": 240, 
                            "type": "note", 
                            "channel": 3
                        }
                    ]
                ], 
                [
                    69120, 
                    [
                        {
                            "pitch": 67, 
                            "t0": 69120, 
                            "v": 100, 
                            "dur": 240, 
                            "type": "note", 
                            "channel": 3
                        }
                    ]
                ], 
                [
                    69360, 
                    [
                        {
                            "pitch": 72, 
                            "t0": 69360, 
                            "v": 100, 
                            "dur": 240, 
                            "type": "note", 
                            "channel": 3
                        }
                    ]
                ], 
                [
                    69600, 
                    [
                        {
                            "pitch": 72, 
                            "t0": 69600, 
                            "v": 100, 
                            "dur": 240, 
                            "type": "note", 
                            "channel": 3
                        }
                    ]
                ], 
                [
                    69840, 
                    [
                        {
                            "pitch": 72, 
                            "t0": 69840, 
                            "v": 100, 
                            "dur": 240, 
                            "type": "note", 
                            "channel": 3
                        }
                    ]
                ], 
                [
                    70080, 
                    [
                        {
                            "pitch": 72, 
                            "t0": 70080, 
                            "v": 100, 
                            "dur": 480, 
                            "type": "note", 
                            "channel": 3
                        }
                    ]
                ], 
                [
                    70560, 
                    [
                        {
                            "pitch": 67, 
                            "t0": 70560, 
                            "v": 100, 
                            "dur": 240, 
                            "type": "note", 
                            "channel": 3
                        }
                    ]
                ], 
                [
                    70800, 
                    [
                        {
                            "pitch": 67, 
                            "t0": 70800, 
                            "v": 100, 
                            "dur": 240, 
                            "type": "note", 
                            "channel": 3
                        }
                    ]
                ], 
                [
                    71040, 
                    [
                        {
                            "pitch": 67, 
                            "t0": 71040, 
                            "v": 100, 
                            "dur": 240, 
                            "type": "note", 
                            "channel": 3
                        }
                    ]
                ], 
                [
                    71280, 
                    [
                        {
                            "pitch": 71, 
                            "t0": 71280, 
                            "v": 100, 
                            "dur": 240, 
                            "type": "note", 
                            "channel": 3
                        }
                    ]
                ], 
                [
                    71520, 
                    [
                        {
                            "pitch": 67, 
                            "t0": 71520, 
                            "v": 100, 
                            "dur": 240, 
                            "type": "note", 
                            "channel": 3
                        }
                    ]
                ], 
                [
                    71760, 
                    [
                        {
                            "pitch": 67, 
                            "t0": 71760, 
                            "v": 100, 
                            "dur": 240, 
                            "type": "note", 
                            "channel": 3
                        }
                    ]
                ], 
                [
                    72000, 
                    [
                        {
                            "pitch": 67, 
                            "t0": 72000, 
                            "v": 100, 
                            "dur": 240, 
                            "type": "note", 
                            "channel": 3
                        }
                    ]
                ], 
                [
                    72240, 
                    [
                        {
                            "pitch": 71, 
                            "t0": 72240, 
                            "v": 100, 
                            "dur": 240, 
                            "type": "note", 
                            "channel": 3
                        }
                    ]
                ], 
                [
                    72480, 
                    [
                        {
                            "pitch": 67, 
                            "t0": 72480, 
                            "v": 100, 
                            "dur": 240, 
                            "type": "note", 
                            "channel": 3
                        }
                    ]
                ], 
                [
                    72720, 
                    [
                        {
                            "pitch": 67, 
                            "t0": 72720, 
                            "v": 100, 
                            "dur": 240, 
                            "type": "note", 
                            "channel": 3
                        }
                    ]
                ], 
                [
                    72960, 
                    [
                        {
                            "pitch": 67, 
                            "t0": 72960, 
                            "v": 100, 
                            "dur": 240, 
                            "type": "note", 
                            "channel": 3
                        }
                    ]
                ], 
                [
                    73200, 
                    [
                        {
                            "pitch": 72, 
                            "t0": 73200, 
                            "v": 100, 
                            "dur": 240, 
                            "type": "note", 
                            "channel": 3
                        }
                    ]
                ], 
                [
                    73440, 
                    [
                        {
                            "pitch": 72, 
                            "t0": 73440, 
                            "v": 100, 
                            "dur": 240, 
                            "type": "note", 
                            "channel": 3
                        }
                    ]
                ], 
                [
                    73680, 
                    [
                        {
                            "pitch": 72, 
                            "t0": 73680, 
                            "v": 100, 
                            "dur": 240, 
                            "type": "note", 
                            "channel": 3
                        }
                    ]
                ], 
                [
                    73920, 
                    [
                        {
                            "pitch": 72, 
                            "t0": 73920, 
                            "v": 100, 
                            "dur": 480, 
                            "type": "note", 
                            "channel": 3
                        }
                    ]
                ], 
                [
                    74400, 
                    [
                        {
                            "pitch": 67, 
                            "t0": 74400, 
                            "v": 100, 
                            "dur": 240, 
                            "type": "note", 
                            "channel": 3
                        }
                    ]
                ], 
                [
                    74640, 
                    [
                        {
                            "pitch": 67, 
                            "t0": 74640, 
                            "v": 100, 
                            "dur": 240, 
                            "type": "note", 
                            "channel": 3
                        }
                    ]
                ], 
                [
                    74880, 
                    [
                        {
                            "pitch": 67, 
                            "t0": 74880, 
                            "v": 100, 
                            "dur": 240, 
                            "type": "note", 
                            "channel": 3
                        }
                    ]
                ], 
                [
                    75120, 
                    [
                        {
                            "pitch": 71, 
                            "t0": 75120, 
                            "v": 100, 
                            "dur": 240, 
                            "type": "note", 
                            "channel": 3
                        }
                    ]
                ], 
                [
                    75360, 
                    [
                        {
                            "pitch": 67, 
                            "t0": 75360, 
                            "v": 100, 
                            "dur": 240, 
                            "type": "note", 
                            "channel": 3
                        }
                    ]
                ], 
                [
                    75600, 
                    [
                        {
                            "pitch": 67, 
                            "t0": 75600, 
                            "v": 100, 
                            "dur": 240, 
                            "type": "note", 
                            "channel": 3
                        }
                    ]
                ], 
                [
                    75840, 
                    [
                        {
                            "pitch": 67, 
                            "t0": 75840, 
                            "v": 100, 
                            "dur": 240, 
                            "type": "note", 
                            "channel": 3
                        }
                    ]
                ], 
                [
                    76080, 
                    [
                        {
                            "pitch": 71, 
                            "t0": 76080, 
                            "v": 100, 
                            "dur": 240, 
                            "type": "note", 
                            "channel": 3
                        }
                    ]
                ], 
                [
                    76320, 
                    [
                        {
                            "pitch": 67, 
                            "t0": 76320, 
                            "v": 100, 
                            "dur": 240, 
                            "type": "note", 
                            "channel": 3
                        }
                    ]
                ], 
                [
                    76560, 
                    [
                        {
                            "pitch": 67, 
                            "t0": 76560, 
                            "v": 100, 
                            "dur": 240, 
                            "type": "note", 
                            "channel": 3
                        }
                    ]
                ], 
                [
                    76800, 
                    [
                        {
                            "pitch": 67, 
                            "t0": 76800, 
                            "v": 100, 
                            "dur": 240, 
                            "type": "note", 
                            "channel": 3
                        }
                    ]
                ], 
                [
                    77040, 
                    [
                        {
                            "pitch": 72, 
                            "t0": 77040, 
                            "v": 100, 
                            "dur": 240, 
                            "type": "note", 
                            "channel": 3
                        }
                    ]
                ], 
                [
                    77280, 
                    [
                        {
                            "pitch": 72, 
                            "t0": 77280, 
                            "v": 100, 
                            "dur": 240, 
                            "type": "note", 
                            "channel": 3
                        }
                    ]
                ], 
                [
                    77520, 
                    [
                        {
                            "pitch": 72, 
                            "t0": 77520, 
                            "v": 100, 
                            "dur": 240, 
                            "type": "note", 
                            "channel": 3
                        }
                    ]
                ], 
                [
                    77760, 
                    [
                        {
                            "pitch": 72, 
                            "t0": 77760, 
                            "v": 100, 
                            "dur": 480, 
                            "type": "note", 
                            "channel": 3
                        }
                    ]
                ], 
                [
                    79200, 
                    [
                        {
                            "pitch": 75, 
                            "t0": 79200, 
                            "v": 100, 
                            "dur": 480, 
                            "type": "note", 
                            "channel": 3
                        }
                    ]
                ], 
                [
                    79920, 
                    [
                        {
                            "pitch": 75, 
                            "t0": 79920, 
                            "v": 100, 
                            "dur": 480, 
                            "type": "note", 
                            "channel": 3
                        }
                    ]
                ], 
                [
                    81120, 
                    [
                        {
                            "pitch": 74, 
                            "t0": 81120, 
                            "v": 100, 
                            "dur": 480, 
                            "type": "note", 
                            "channel": 3
                        }
                    ]
                ], 
                [
                    81840, 
                    [
                        {
                            "pitch": 72, 
                            "t0": 81840, 
                            "v": 100, 
                            "dur": 240, 
                            "type": "note", 
                            "channel": 3
                        }
                    ]
                ], 
                [
                    83040, 
                    [
                        {
                            "pitch": 75, 
                            "t0": 83040, 
                            "v": 100, 
                            "dur": 480, 
                            "type": "note", 
                            "channel": 3
                        }
                    ]
                ], 
                [
                    83760, 
                    [
                        {
                            "pitch": 75, 
                            "t0": 83760, 
                            "v": 100, 
                            "dur": 480, 
                            "type": "note", 
                            "channel": 3
                        }
                    ]
                ], 
                [
                    84960, 
                    [
                        {
                            "pitch": 74, 
                            "t0": 84960, 
                            "v": 100, 
                            "dur": 480, 
                            "type": "note", 
                            "channel": 3
                        }
                    ]
                ], 
                [
                    85680, 
                    [
                        {
                            "pitch": 72, 
                            "t0": 85680, 
                            "v": 100, 
                            "dur": 240, 
                            "type": "note", 
                            "channel": 3
                        }
                    ]
                ], 
                [
                    86880, 
                    [
                        {
                            "pitch": 75, 
                            "t0": 86880, 
                            "v": 100, 
                            "dur": 480, 
                            "type": "note", 
                            "channel": 3
                        }
                    ]
                ], 
                [
                    87600, 
                    [
                        {
                            "pitch": 75, 
                            "t0": 87600, 
                            "v": 100, 
                            "dur": 480, 
                            "type": "note", 
                            "channel": 3
                        }
                    ]
                ], 
                [
                    88800, 
                    [
                        {
                            "pitch": 74, 
                            "t0": 88800, 
                            "v": 100, 
                            "dur": 480, 
                            "type": "note", 
                            "channel": 3
                        }
                    ]
                ], 
                [
                    89520, 
                    [
                        {
                            "pitch": 72, 
                            "t0": 89520, 
                            "v": 100, 
                            "dur": 240, 
                            "type": "note", 
                            "channel": 3
                        }
                    ]
                ], 
                [
                    90720, 
                    [
                        {
                            "pitch": 75, 
                            "t0": 90720, 
                            "v": 100, 
                            "dur": 480, 
                            "type": "note", 
                            "channel": 3
                        }
                    ]
                ], 
                [
                    91440, 
                    [
                        {
                            "pitch": 75, 
                            "t0": 91440, 
                            "v": 100, 
                            "dur": 480, 
                            "type": "note", 
                            "channel": 3
                        }
                    ]
                ], 
                [
                    92640, 
                    [
                        {
                            "pitch": 74, 
                            "t0": 92640, 
                            "v": 100, 
                            "dur": 480, 
                            "type": "note", 
                            "channel": 3
                        }
                    ]
                ], 
                [
                    93360, 
                    [
                        {
                            "pitch": 72, 
                            "t0": 93360, 
                            "v": 100, 
                            "dur": 240, 
                            "type": "note", 
                            "channel": 3
                        }
                    ]
                ], 
                [
                    94560, 
                    [
                        {
                            "pitch": 74, 
                            "t0": 94560, 
                            "v": 100, 
                            "dur": 480, 
                            "type": "note", 
                            "channel": 3
                        }
                    ]
                ], 
                [
                    95280, 
                    [
                        {
                            "pitch": 74, 
                            "t0": 95280, 
                            "v": 100, 
                            "dur": 480, 
                            "type": "note", 
                            "channel": 3
                        }
                    ]
                ], 
                [
                    96480, 
                    [
                        {
                            "pitch": 74, 
                            "t0": 96480, 
                            "v": 100, 
                            "dur": 480, 
                            "type": "note", 
                            "channel": 3
                        }
                    ]
                ], 
                [
                    96960, 
                    [
                        {
                            "pitch": 74, 
                            "t0": 96960, 
                            "v": 100, 
                            "dur": 960, 
                            "type": "note", 
                            "channel": 3
                        }
                    ]
                ], 
                [
                    103680, 
                    [
                        {
                            "pitch": 67, 
                            "t0": 103680, 
                            "v": 100, 
                            "dur": 960, 
                            "type": "note", 
                            "channel": 3
                        }
                    ]
                ], 
                [
                    104640, 
                    [
                        {
                            "pitch": 65, 
                            "t0": 104640, 
                            "v": 100, 
                            "dur": 960, 
                            "type": "note", 
                            "channel": 3
                        }
                    ]
                ], 
                [
                    111360, 
                    [
                        {
                            "pitch": 67, 
                            "t0": 111360, 
                            "v": 100, 
                            "dur": 960, 
                            "type": "note", 
                            "channel": 3
                        }
                    ]
                ], 
                [
                    112320, 
                    [
                        {
                            "pitch": 65, 
                            "t0": 112320, 
                            "v": 100, 
                            "dur": 960, 
                            "type": "note", 
                            "channel": 3
                        }
                    ]
                ], 
                [
                    138240, 
                    [
                        {
                            "pitch": 67, 
                            "t0": 138240, 
                            "v": 90, 
                            "dur": 240, 
                            "type": "note", 
                            "channel": 3
                        }
                    ]
                ], 
                [
                    138480, 
                    [
                        {
                            "pitch": 71, 
                            "t0": 138480, 
                            "v": 90, 
                            "dur": 240, 
                            "type": "note", 
                            "channel": 3
                        }
                    ]
                ], 
                [
                    138720, 
                    [
                        {
                            "pitch": 67, 
                            "t0": 138720, 
                            "v": 90, 
                            "dur": 240, 
                            "type": "note", 
                            "channel": 3
                        }
                    ]
                ], 
                [
                    138960, 
                    [
                        {
                            "pitch": 67, 
                            "t0": 138960, 
                            "v": 90, 
                            "dur": 240, 
                            "type": "note", 
                            "channel": 3
                        }
                    ]
                ], 
                [
                    139200, 
                    [
                        {
                            "pitch": 67, 
                            "t0": 139200, 
                            "v": 90, 
                            "dur": 240, 
                            "type": "note", 
                            "channel": 3
                        }
                    ]
                ], 
                [
                    139440, 
                    [
                        {
                            "pitch": 71, 
                            "t0": 139440, 
                            "v": 90, 
                            "dur": 240, 
                            "type": "note", 
                            "channel": 3
                        }
                    ]
                ], 
                [
                    139680, 
                    [
                        {
                            "pitch": 67, 
                            "t0": 139680, 
                            "v": 90, 
                            "dur": 240, 
                            "type": "note", 
                            "channel": 3
                        }
                    ]
                ], 
                [
                    139920, 
                    [
                        {
                            "pitch": 67, 
                            "t0": 139920, 
                            "v": 90, 
                            "dur": 240, 
                            "type": "note", 
                            "channel": 3
                        }
                    ]
                ], 
                [
                    140160, 
                    [
                        {
                            "pitch": 67, 
                            "t0": 140160, 
                            "v": 90, 
                            "dur": 240, 
                            "type": "note", 
                            "channel": 3
                        }
                    ]
                ], 
                [
                    140400, 
                    [
                        {
                            "pitch": 72, 
                            "t0": 140400, 
                            "v": 90, 
                            "dur": 240, 
                            "type": "note", 
                            "channel": 3
                        }
                    ]
                ], 
                [
                    140640, 
                    [
                        {
                            "pitch": 72, 
                            "t0": 140640, 
                            "v": 90, 
                            "dur": 240, 
                            "type": "note", 
                            "channel": 3
                        }
                    ]
                ], 
                [
                    140880, 
                    [
                        {
                            "pitch": 72, 
                            "t0": 140880, 
                            "v": 90, 
                            "dur": 240, 
                            "type": "note", 
                            "channel": 3
                        }
                    ]
                ], 
                [
                    141120, 
                    [
                        {
                            "pitch": 72, 
                            "t0": 141120, 
                            "v": 90, 
                            "dur": 480, 
                            "type": "note", 
                            "channel": 3
                        }
                    ]
                ], 
                [
                    141600, 
                    [
                        {
                            "pitch": 67, 
                            "t0": 141600, 
                            "v": 90, 
                            "dur": 240, 
                            "type": "note", 
                            "channel": 3
                        }
                    ]
                ], 
                [
                    141840, 
                    [
                        {
                            "pitch": 67, 
                            "t0": 141840, 
                            "v": 90, 
                            "dur": 240, 
                            "type": "note", 
                            "channel": 3
                        }
                    ]
                ], 
                [
                    142080, 
                    [
                        {
                            "pitch": 67, 
                            "t0": 142080, 
                            "v": 90, 
                            "dur": 240, 
                            "type": "note", 
                            "channel": 3
                        }
                    ]
                ], 
                [
                    142320, 
                    [
                        {
                            "pitch": 71, 
                            "t0": 142320, 
                            "v": 90, 
                            "dur": 240, 
                            "type": "note", 
                            "channel": 3
                        }
                    ]
                ], 
                [
                    142560, 
                    [
                        {
                            "pitch": 67, 
                            "t0": 142560, 
                            "v": 90, 
                            "dur": 240, 
                            "type": "note", 
                            "channel": 3
                        }
                    ]
                ], 
                [
                    142800, 
                    [
                        {
                            "pitch": 67, 
                            "t0": 142800, 
                            "v": 90, 
                            "dur": 240, 
                            "type": "note", 
                            "channel": 3
                        }
                    ]
                ], 
                [
                    143040, 
                    [
                        {
                            "pitch": 67, 
                            "t0": 143040, 
                            "v": 90, 
                            "dur": 240, 
                            "type": "note", 
                            "channel": 3
                        }
                    ]
                ], 
                [
                    143280, 
                    [
                        {
                            "pitch": 71, 
                            "t0": 143280, 
                            "v": 90, 
                            "dur": 240, 
                            "type": "note", 
                            "channel": 3
                        }
                    ]
                ], 
                [
                    143520, 
                    [
                        {
                            "pitch": 67, 
                            "t0": 143520, 
                            "v": 90, 
                            "dur": 240, 
                            "type": "note", 
                            "channel": 3
                        }
                    ]
                ], 
                [
                    143760, 
                    [
                        {
                            "pitch": 67, 
                            "t0": 143760, 
                            "v": 90, 
                            "dur": 240, 
                            "type": "note", 
                            "channel": 3
                        }
                    ]
                ], 
                [
                    144000, 
                    [
                        {
                            "pitch": 67, 
                            "t0": 144000, 
                            "v": 90, 
                            "dur": 240, 
                            "type": "note", 
                            "channel": 3
                        }
                    ]
                ], 
                [
                    144240, 
                    [
                        {
                            "pitch": 72, 
                            "t0": 144240, 
                            "v": 90, 
                            "dur": 240, 
                            "type": "note", 
                            "channel": 3
                        }
                    ]
                ], 
                [
                    144480, 
                    [
                        {
                            "pitch": 72, 
                            "t0": 144480, 
                            "v": 90, 
                            "dur": 240, 
                            "type": "note", 
                            "channel": 3
                        }
                    ]
                ], 
                [
                    144720, 
                    [
                        {
                            "pitch": 72, 
                            "t0": 144720, 
                            "v": 90, 
                            "dur": 240, 
                            "type": "note", 
                            "channel": 3
                        }
                    ]
                ], 
                [
                    144960, 
                    [
                        {
                            "pitch": 72, 
                            "t0": 144960, 
                            "v": 90, 
                            "dur": 480, 
                            "type": "note", 
                            "channel": 3
                        }
                    ]
                ], 
                [
                    145440, 
                    [
                        {
                            "pitch": 67, 
                            "t0": 145440, 
                            "v": 90, 
                            "dur": 240, 
                            "type": "note", 
                            "channel": 3
                        }
                    ]
                ], 
                [
                    145680, 
                    [
                        {
                            "pitch": 67, 
                            "t0": 145680, 
                            "v": 90, 
                            "dur": 240, 
                            "type": "note", 
                            "channel": 3
                        }
                    ]
                ], 
                [
                    145920, 
                    [
                        {
                            "pitch": 67, 
                            "t0": 145920, 
                            "v": 90, 
                            "dur": 240, 
                            "type": "note", 
                            "channel": 3
                        }
                    ]
                ], 
                [
                    146160, 
                    [
                        {
                            "pitch": 71, 
                            "t0": 146160, 
                            "v": 90, 
                            "dur": 240, 
                            "type": "note", 
                            "channel": 3
                        }
                    ]
                ], 
                [
                    146400, 
                    [
                        {
                            "pitch": 67, 
                            "t0": 146400, 
                            "v": 90, 
                            "dur": 240, 
                            "type": "note", 
                            "channel": 3
                        }
                    ]
                ], 
                [
                    146640, 
                    [
                        {
                            "pitch": 67, 
                            "t0": 146640, 
                            "v": 90, 
                            "dur": 240, 
                            "type": "note", 
                            "channel": 3
                        }
                    ]
                ], 
                [
                    146880, 
                    [
                        {
                            "pitch": 67, 
                            "t0": 146880, 
                            "v": 90, 
                            "dur": 240, 
                            "type": "note", 
                            "channel": 3
                        }
                    ]
                ], 
                [
                    147120, 
                    [
                        {
                            "pitch": 71, 
                            "t0": 147120, 
                            "v": 90, 
                            "dur": 240, 
                            "type": "note", 
                            "channel": 3
                        }
                    ]
                ], 
                [
                    147360, 
                    [
                        {
                            "pitch": 67, 
                            "t0": 147360, 
                            "v": 90, 
                            "dur": 240, 
                            "type": "note", 
                            "channel": 3
                        }
                    ]
                ], 
                [
                    147600, 
                    [
                        {
                            "pitch": 67, 
                            "t0": 147600, 
                            "v": 90, 
                            "dur": 240, 
                            "type": "note", 
                            "channel": 3
                        }
                    ]
                ], 
                [
                    147840, 
                    [
                        {
                            "pitch": 67, 
                            "t0": 147840, 
                            "v": 90, 
                            "dur": 240, 
                            "type": "note", 
                            "channel": 3
                        }
                    ]
                ], 
                [
                    148080, 
                    [
                        {
                            "pitch": 72, 
                            "t0": 148080, 
                            "v": 90, 
                            "dur": 240, 
                            "type": "note", 
                            "channel": 3
                        }
                    ]
                ], 
                [
                    148320, 
                    [
                        {
                            "pitch": 72, 
                            "t0": 148320, 
                            "v": 90, 
                            "dur": 240, 
                            "type": "note", 
                            "channel": 3
                        }
                    ]
                ], 
                [
                    148560, 
                    [
                        {
                            "pitch": 72, 
                            "t0": 148560, 
                            "v": 90, 
                            "dur": 240, 
                            "type": "note", 
                            "channel": 3
                        }
                    ]
                ], 
                [
                    148800, 
                    [
                        {
                            "pitch": 72, 
                            "t0": 148800, 
                            "v": 90, 
                            "dur": 480, 
                            "type": "note", 
                            "channel": 3
                        }
                    ]
                ], 
                [
                    149280, 
                    [
                        {
                            "pitch": 67, 
                            "t0": 149280, 
                            "v": 90, 
                            "dur": 240, 
                            "type": "note", 
                            "channel": 3
                        }
                    ]
                ], 
                [
                    149520, 
                    [
                        {
                            "pitch": 67, 
                            "t0": 149520, 
                            "v": 90, 
                            "dur": 240, 
                            "type": "note", 
                            "channel": 3
                        }
                    ]
                ], 
                [
                    149760, 
                    [
                        {
                            "pitch": 67, 
                            "t0": 149760, 
                            "v": 90, 
                            "dur": 240, 
                            "type": "note", 
                            "channel": 3
                        }
                    ]
                ], 
                [
                    150000, 
                    [
                        {
                            "pitch": 71, 
                            "t0": 150000, 
                            "v": 90, 
                            "dur": 240, 
                            "type": "note", 
                            "channel": 3
                        }
                    ]
                ], 
                [
                    150240, 
                    [
                        {
                            "pitch": 67, 
                            "t0": 150240, 
                            "v": 90, 
                            "dur": 240, 
                            "type": "note", 
                            "channel": 3
                        }
                    ]
                ], 
                [
                    150480, 
                    [
                        {
                            "pitch": 67, 
                            "t0": 150480, 
                            "v": 90, 
                            "dur": 240, 
                            "type": "note", 
                            "channel": 3
                        }
                    ]
                ], 
                [
                    150720, 
                    [
                        {
                            "pitch": 67, 
                            "t0": 150720, 
                            "v": 90, 
                            "dur": 240, 
                            "type": "note", 
                            "channel": 3
                        }
                    ]
                ], 
                [
                    150960, 
                    [
                        {
                            "pitch": 71, 
                            "t0": 150960, 
                            "v": 90, 
                            "dur": 240, 
                            "type": "note", 
                            "channel": 3
                        }
                    ]
                ], 
                [
                    151200, 
                    [
                        {
                            "pitch": 67, 
                            "t0": 151200, 
                            "v": 90, 
                            "dur": 240, 
                            "type": "note", 
                            "channel": 3
                        }
                    ]
                ], 
                [
                    151440, 
                    [
                        {
                            "pitch": 67, 
                            "t0": 151440, 
                            "v": 90, 
                            "dur": 240, 
                            "type": "note", 
                            "channel": 3
                        }
                    ]
                ], 
                [
                    151680, 
                    [
                        {
                            "pitch": 67, 
                            "t0": 151680, 
                            "v": 90, 
                            "dur": 240, 
                            "type": "note", 
                            "channel": 3
                        }
                    ]
                ], 
                [
                    151920, 
                    [
                        {
                            "pitch": 72, 
                            "t0": 151920, 
                            "v": 90, 
                            "dur": 240, 
                            "type": "note", 
                            "channel": 3
                        }
                    ]
                ], 
                [
                    152160, 
                    [
                        {
                            "pitch": 72, 
                            "t0": 152160, 
                            "v": 90, 
                            "dur": 240, 
                            "type": "note", 
                            "channel": 3
                        }
                    ]
                ], 
                [
                    152400, 
                    [
                        {
                            "pitch": 72, 
                            "t0": 152400, 
                            "v": 90, 
                            "dur": 240, 
                            "type": "note", 
                            "channel": 3
                        }
                    ]
                ], 
                [
                    152640, 
                    [
                        {
                            "pitch": 72, 
                            "t0": 152640, 
                            "v": 90, 
                            "dur": 480, 
                            "type": "note", 
                            "channel": 3
                        }
                    ]
                ], 
                [
                    153120, 
                    [
                        {
                            "pitch": 67, 
                            "t0": 153120, 
                            "v": 90, 
                            "dur": 240, 
                            "type": "note", 
                            "channel": 3
                        }
                    ]
                ], 
                [
                    153360, 
                    [
                        {
                            "pitch": 67, 
                            "t0": 153360, 
                            "v": 90, 
                            "dur": 240, 
                            "type": "note", 
                            "channel": 3
                        }
                    ]
                ], 
                [
                    153600, 
                    [
                        {
                            "pitch": 67, 
                            "t0": 153600, 
                            "v": 90, 
                            "dur": 240, 
                            "type": "note", 
                            "channel": 3
                        }
                    ]
                ], 
                [
                    153840, 
                    [
                        {
                            "pitch": 71, 
                            "t0": 153840, 
                            "v": 90, 
                            "dur": 240, 
                            "type": "note", 
                            "channel": 3
                        }
                    ]
                ], 
                [
                    154080, 
                    [
                        {
                            "pitch": 67, 
                            "t0": 154080, 
                            "v": 90, 
                            "dur": 240, 
                            "type": "note", 
                            "channel": 3
                        }
                    ]
                ], 
                [
                    154320, 
                    [
                        {
                            "pitch": 67, 
                            "t0": 154320, 
                            "v": 90, 
                            "dur": 240, 
                            "type": "note", 
                            "channel": 3
                        }
                    ]
                ], 
                [
                    154560, 
                    [
                        {
                            "pitch": 67, 
                            "t0": 154560, 
                            "v": 90, 
                            "dur": 240, 
                            "type": "note", 
                            "channel": 3
                        }
                    ]
                ], 
                [
                    154800, 
                    [
                        {
                            "pitch": 71, 
                            "t0": 154800, 
                            "v": 90, 
                            "dur": 240, 
                            "type": "note", 
                            "channel": 3
                        }
                    ]
                ], 
                [
                    155040, 
                    [
                        {
                            "pitch": 67, 
                            "t0": 155040, 
                            "v": 90, 
                            "dur": 240, 
                            "type": "note", 
                            "channel": 3
                        }
                    ]
                ], 
                [
                    155280, 
                    [
                        {
                            "pitch": 67, 
                            "t0": 155280, 
                            "v": 90, 
                            "dur": 240, 
                            "type": "note", 
                            "channel": 3
                        }
                    ]
                ], 
                [
                    155520, 
                    [
                        {
                            "pitch": 67, 
                            "t0": 155520, 
                            "v": 90, 
                            "dur": 240, 
                            "type": "note", 
                            "channel": 3
                        }
                    ]
                ], 
                [
                    155760, 
                    [
                        {
                            "pitch": 72, 
                            "t0": 155760, 
                            "v": 90, 
                            "dur": 240, 
                            "type": "note", 
                            "channel": 3
                        }
                    ]
                ], 
                [
                    156000, 
                    [
                        {
                            "pitch": 72, 
                            "t0": 156000, 
                            "v": 90, 
                            "dur": 240, 
                            "type": "note", 
                            "channel": 3
                        }
                    ]
                ], 
                [
                    156240, 
                    [
                        {
                            "pitch": 72, 
                            "t0": 156240, 
                            "v": 90, 
                            "dur": 240, 
                            "type": "note", 
                            "channel": 3
                        }
                    ]
                ], 
                [
                    156480, 
                    [
                        {
                            "pitch": 72, 
                            "t0": 156480, 
                            "v": 90, 
                            "dur": 480, 
                            "type": "note", 
                            "channel": 3
                        }
                    ]
                ], 
                [
                    156960, 
                    [
                        {
                            "pitch": 67, 
                            "t0": 156960, 
                            "v": 90, 
                            "dur": 240, 
                            "type": "note", 
                            "channel": 3
                        }
                    ]
                ], 
                [
                    157200, 
                    [
                        {
                            "pitch": 67, 
                            "t0": 157200, 
                            "v": 90, 
                            "dur": 240, 
                            "type": "note", 
                            "channel": 3
                        }
                    ]
                ], 
                [
                    157440, 
                    [
                        {
                            "pitch": 67, 
                            "t0": 157440, 
                            "v": 90, 
                            "dur": 240, 
                            "type": "note", 
                            "channel": 3
                        }
                    ]
                ], 
                [
                    157680, 
                    [
                        {
                            "pitch": 71, 
                            "t0": 157680, 
                            "v": 90, 
                            "dur": 240, 
                            "type": "note", 
                            "channel": 3
                        }
                    ]
                ], 
                [
                    157920, 
                    [
                        {
                            "pitch": 67, 
                            "t0": 157920, 
                            "v": 90, 
                            "dur": 240, 
                            "type": "note", 
                            "channel": 3
                        }
                    ]
                ], 
                [
                    158160, 
                    [
                        {
                            "pitch": 67, 
                            "t0": 158160, 
                            "v": 90, 
                            "dur": 240, 
                            "type": "note", 
                            "channel": 3
                        }
                    ]
                ], 
                [
                    158400, 
                    [
                        {
                            "pitch": 67, 
                            "t0": 158400, 
                            "v": 90, 
                            "dur": 240, 
                            "type": "note", 
                            "channel": 3
                        }
                    ]
                ], 
                [
                    158640, 
                    [
                        {
                            "pitch": 71, 
                            "t0": 158640, 
                            "v": 90, 
                            "dur": 240, 
                            "type": "note", 
                            "channel": 3
                        }
                    ]
                ], 
                [
                    158880, 
                    [
                        {
                            "pitch": 67, 
                            "t0": 158880, 
                            "v": 90, 
                            "dur": 240, 
                            "type": "note", 
                            "channel": 3
                        }
                    ]
                ], 
                [
                    159120, 
                    [
                        {
                            "pitch": 67, 
                            "t0": 159120, 
                            "v": 90, 
                            "dur": 240, 
                            "type": "note", 
                            "channel": 3
                        }
                    ]
                ], 
                [
                    159360, 
                    [
                        {
                            "pitch": 67, 
                            "t0": 159360, 
                            "v": 90, 
                            "dur": 240, 
                            "type": "note", 
                            "channel": 3
                        }
                    ]
                ], 
                [
                    159600, 
                    [
                        {
                            "pitch": 72, 
                            "t0": 159600, 
                            "v": 90, 
                            "dur": 240, 
                            "type": "note", 
                            "channel": 3
                        }
                    ]
                ], 
                [
                    159840, 
                    [
                        {
                            "pitch": 72, 
                            "t0": 159840, 
                            "v": 90, 
                            "dur": 240, 
                            "type": "note", 
                            "channel": 3
                        }
                    ]
                ], 
                [
                    160080, 
                    [
                        {
                            "pitch": 72, 
                            "t0": 160080, 
                            "v": 90, 
                            "dur": 240, 
                            "type": "note", 
                            "channel": 3
                        }
                    ]
                ], 
                [
                    160320, 
                    [
                        {
                            "pitch": 72, 
                            "t0": 160320, 
                            "v": 90, 
                            "dur": 480, 
                            "type": "note", 
                            "channel": 3
                        }
                    ]
                ], 
                [
                    160800, 
                    [
                        {
                            "pitch": 67, 
                            "t0": 160800, 
                            "v": 90, 
                            "dur": 240, 
                            "type": "note", 
                            "channel": 3
                        }
                    ]
                ], 
                [
                    161040, 
                    [
                        {
                            "pitch": 67, 
                            "t0": 161040, 
                            "v": 90, 
                            "dur": 240, 
                            "type": "note", 
                            "channel": 3
                        }
                    ]
                ], 
                [
                    161280, 
                    [
                        {
                            "pitch": 67, 
                            "t0": 161280, 
                            "v": 90, 
                            "dur": 240, 
                            "type": "note", 
                            "channel": 3
                        }
                    ]
                ], 
                [
                    161520, 
                    [
                        {
                            "pitch": 71, 
                            "t0": 161520, 
                            "v": 90, 
                            "dur": 240, 
                            "type": "note", 
                            "channel": 3
                        }
                    ]
                ], 
                [
                    161760, 
                    [
                        {
                            "pitch": 67, 
                            "t0": 161760, 
                            "v": 90, 
                            "dur": 240, 
                            "type": "note", 
                            "channel": 3
                        }
                    ]
                ], 
                [
                    162000, 
                    [
                        {
                            "pitch": 67, 
                            "t0": 162000, 
                            "v": 90, 
                            "dur": 240, 
                            "type": "note", 
                            "channel": 3
                        }
                    ]
                ], 
                [
                    162240, 
                    [
                        {
                            "pitch": 67, 
                            "t0": 162240, 
                            "v": 90, 
                            "dur": 240, 
                            "type": "note", 
                            "channel": 3
                        }
                    ]
                ], 
                [
                    162480, 
                    [
                        {
                            "pitch": 71, 
                            "t0": 162480, 
                            "v": 90, 
                            "dur": 240, 
                            "type": "note", 
                            "channel": 3
                        }
                    ]
                ], 
                [
                    162720, 
                    [
                        {
                            "pitch": 67, 
                            "t0": 162720, 
                            "v": 90, 
                            "dur": 240, 
                            "type": "note", 
                            "channel": 3
                        }
                    ]
                ], 
                [
                    162960, 
                    [
                        {
                            "pitch": 67, 
                            "t0": 162960, 
                            "v": 90, 
                            "dur": 240, 
                            "type": "note", 
                            "channel": 3
                        }
                    ]
                ], 
                [
                    163200, 
                    [
                        {
                            "pitch": 67, 
                            "t0": 163200, 
                            "v": 90, 
                            "dur": 240, 
                            "type": "note", 
                            "channel": 3
                        }
                    ]
                ], 
                [
                    163440, 
                    [
                        {
                            "pitch": 72, 
                            "t0": 163440, 
                            "v": 90, 
                            "dur": 240, 
                            "type": "note", 
                            "channel": 3
                        }
                    ]
                ], 
                [
                    163680, 
                    [
                        {
                            "pitch": 72, 
                            "t0": 163680, 
                            "v": 90, 
                            "dur": 240, 
                            "type": "note", 
                            "channel": 3
                        }
                    ]
                ], 
                [
                    163920, 
                    [
                        {
                            "pitch": 72, 
                            "t0": 163920, 
                            "v": 90, 
                            "dur": 240, 
                            "type": "note", 
                            "channel": 3
                        }
                    ]
                ], 
                [
                    164160, 
                    [
                        {
                            "pitch": 72, 
                            "t0": 164160, 
                            "v": 90, 
                            "dur": 480, 
                            "type": "note", 
                            "channel": 3
                        }
                    ]
                ], 
                [
                    164640, 
                    [
                        {
                            "pitch": 67, 
                            "t0": 164640, 
                            "v": 90, 
                            "dur": 240, 
                            "type": "note", 
                            "channel": 3
                        }
                    ]
                ], 
                [
                    164880, 
                    [
                        {
                            "pitch": 67, 
                            "t0": 164880, 
                            "v": 90, 
                            "dur": 240, 
                            "type": "note", 
                            "channel": 3
                        }
                    ]
                ], 
                [
                    165120, 
                    [
                        {
                            "pitch": 67, 
                            "t0": 165120, 
                            "v": 90, 
                            "dur": 240, 
                            "type": "note", 
                            "channel": 3
                        }
                    ]
                ], 
                [
                    165360, 
                    [
                        {
                            "pitch": 71, 
                            "t0": 165360, 
                            "v": 90, 
                            "dur": 240, 
                            "type": "note", 
                            "channel": 3
                        }
                    ]
                ], 
                [
                    165600, 
                    [
                        {
                            "pitch": 67, 
                            "t0": 165600, 
                            "v": 90, 
                            "dur": 240, 
                            "type": "note", 
                            "channel": 3
                        }
                    ]
                ], 
                [
                    165840, 
                    [
                        {
                            "pitch": 67, 
                            "t0": 165840, 
                            "v": 90, 
                            "dur": 240, 
                            "type": "note", 
                            "channel": 3
                        }
                    ]
                ], 
                [
                    166080, 
                    [
                        {
                            "pitch": 67, 
                            "t0": 166080, 
                            "v": 90, 
                            "dur": 240, 
                            "type": "note", 
                            "channel": 3
                        }
                    ]
                ], 
                [
                    166320, 
                    [
                        {
                            "pitch": 71, 
                            "t0": 166320, 
                            "v": 90, 
                            "dur": 240, 
                            "type": "note", 
                            "channel": 3
                        }
                    ]
                ], 
                [
                    166560, 
                    [
                        {
                            "pitch": 67, 
                            "t0": 166560, 
                            "v": 90, 
                            "dur": 240, 
                            "type": "note", 
                            "channel": 3
                        }
                    ]
                ], 
                [
                    166800, 
                    [
                        {
                            "pitch": 67, 
                            "t0": 166800, 
                            "v": 90, 
                            "dur": 240, 
                            "type": "note", 
                            "channel": 3
                        }
                    ]
                ], 
                [
                    167040, 
                    [
                        {
                            "pitch": 67, 
                            "t0": 167040, 
                            "v": 90, 
                            "dur": 240, 
                            "type": "note", 
                            "channel": 3
                        }
                    ]
                ], 
                [
                    167280, 
                    [
                        {
                            "pitch": 72, 
                            "t0": 167280, 
                            "v": 90, 
                            "dur": 240, 
                            "type": "note", 
                            "channel": 3
                        }
                    ]
                ], 
                [
                    167520, 
                    [
                        {
                            "pitch": 72, 
                            "t0": 167520, 
                            "v": 90, 
                            "dur": 240, 
                            "type": "note", 
                            "channel": 3
                        }
                    ]
                ], 
                [
                    167760, 
                    [
                        {
                            "pitch": 72, 
                            "t0": 167760, 
                            "v": 90, 
                            "dur": 240, 
                            "type": "note", 
                            "channel": 3
                        }
                    ]
                ], 
                [
                    168000, 
                    [
                        {
                            "pitch": 72, 
                            "t0": 168000, 
                            "v": 90, 
                            "dur": 480, 
                            "type": "note", 
                            "channel": 3
                        }
                    ]
                ], 
                [
                    168480, 
                    [
                        {
                            "pitch": 67, 
                            "t0": 168480, 
                            "v": 90, 
                            "dur": 240, 
                            "type": "note", 
                            "channel": 3
                        }
                    ]
                ], 
                [
                    168720, 
                    [
                        {
                            "pitch": 67, 
                            "t0": 168720, 
                            "v": 90, 
                            "dur": 240, 
                            "type": "note", 
                            "channel": 3
                        }
                    ]
                ], 
                [
                    168960, 
                    [
                        {
                            "pitch": 67, 
                            "t0": 168960, 
                            "v": 90, 
                            "dur": 240, 
                            "type": "note", 
                            "channel": 3
                        }
                    ]
                ], 
                [
                    169200, 
                    [
                        {
                            "pitch": 71, 
                            "t0": 169200, 
                            "v": 90, 
                            "dur": 240, 
                            "type": "note", 
                            "channel": 3
                        }
                    ]
                ], 
                [
                    169440, 
                    [
                        {
                            "pitch": 67, 
                            "t0": 169440, 
                            "v": 90, 
                            "dur": 240, 
                            "type": "note", 
                            "channel": 3
                        }
                    ]
                ], 
                [
                    169680, 
                    [
                        {
                            "pitch": 67, 
                            "t0": 169680, 
                            "v": 90, 
                            "dur": 240, 
                            "type": "note", 
                            "channel": 3
                        }
                    ]
                ], 
                [
                    169920, 
                    [
                        {
                            "pitch": 67, 
                            "t0": 169920, 
                            "v": 90, 
                            "dur": 240, 
                            "type": "note", 
                            "channel": 3
                        }
                    ]
                ], 
                [
                    170160, 
                    [
                        {
                            "pitch": 71, 
                            "t0": 170160, 
                            "v": 90, 
                            "dur": 240, 
                            "type": "note", 
                            "channel": 3
                        }
                    ]
                ], 
                [
                    170400, 
                    [
                        {
                            "pitch": 67, 
                            "t0": 170400, 
                            "v": 90, 
                            "dur": 240, 
                            "type": "note", 
                            "channel": 3
                        }
                    ]
                ], 
                [
                    170640, 
                    [
                        {
                            "pitch": 67, 
                            "t0": 170640, 
                            "v": 90, 
                            "dur": 240, 
                            "type": "note", 
                            "channel": 3
                        }
                    ]
                ], 
                [
                    170880, 
                    [
                        {
                            "pitch": 67, 
                            "t0": 170880, 
                            "v": 90, 
                            "dur": 240, 
                            "type": "note", 
                            "channel": 3
                        }
                    ]
                ], 
                [
                    171120, 
                    [
                        {
                            "pitch": 72, 
                            "t0": 171120, 
                            "v": 90, 
                            "dur": 240, 
                            "type": "note", 
                            "channel": 3
                        }
                    ]
                ], 
                [
                    171360, 
                    [
                        {
                            "pitch": 72, 
                            "t0": 171360, 
                            "v": 90, 
                            "dur": 240, 
                            "type": "note", 
                            "channel": 3
                        }
                    ]
                ], 
                [
                    171600, 
                    [
                        {
                            "pitch": 72, 
                            "t0": 171600, 
                            "v": 90, 
                            "dur": 240, 
                            "type": "note", 
                            "channel": 3
                        }
                    ]
                ], 
                [
                    171840, 
                    [
                        {
                            "pitch": 72, 
                            "t0": 171840, 
                            "v": 90, 
                            "dur": 480, 
                            "type": "note", 
                            "channel": 3
                        }
                    ]
                ], 
                [
                    172320, 
                    [
                        {
                            "pitch": 67, 
                            "t0": 172320, 
                            "v": 90, 
                            "dur": 240, 
                            "type": "note", 
                            "channel": 3
                        }
                    ]
                ], 
                [
                    172560, 
                    [
                        {
                            "pitch": 67, 
                            "t0": 172560, 
                            "v": 90, 
                            "dur": 240, 
                            "type": "note", 
                            "channel": 3
                        }
                    ]
                ], 
                [
                    172800, 
                    [
                        {
                            "pitch": 67, 
                            "t0": 172800, 
                            "v": 90, 
                            "dur": 240, 
                            "type": "note", 
                            "channel": 3
                        }
                    ]
                ], 
                [
                    173040, 
                    [
                        {
                            "pitch": 71, 
                            "t0": 173040, 
                            "v": 90, 
                            "dur": 240, 
                            "type": "note", 
                            "channel": 3
                        }
                    ]
                ], 
                [
                    173280, 
                    [
                        {
                            "pitch": 67, 
                            "t0": 173280, 
                            "v": 90, 
                            "dur": 240, 
                            "type": "note", 
                            "channel": 3
                        }
                    ]
                ], 
                [
                    173520, 
                    [
                        {
                            "pitch": 67, 
                            "t0": 173520, 
                            "v": 90, 
                            "dur": 240, 
                            "type": "note", 
                            "channel": 3
                        }
                    ]
                ], 
                [
                    173760, 
                    [
                        {
                            "pitch": 67, 
                            "t0": 173760, 
                            "v": 90, 
                            "dur": 240, 
                            "type": "note", 
                            "channel": 3
                        }
                    ]
                ], 
                [
                    174000, 
                    [
                        {
                            "pitch": 71, 
                            "t0": 174000, 
                            "v": 90, 
                            "dur": 240, 
                            "type": "note", 
                            "channel": 3
                        }
                    ]
                ], 
                [
                    174240, 
                    [
                        {
                            "pitch": 67, 
                            "t0": 174240, 
                            "v": 90, 
                            "dur": 240, 
                            "type": "note", 
                            "channel": 3
                        }
                    ]
                ], 
                [
                    174480, 
                    [
                        {
                            "pitch": 67, 
                            "t0": 174480, 
                            "v": 90, 
                            "dur": 240, 
                            "type": "note", 
                            "channel": 3
                        }
                    ]
                ], 
                [
                    174720, 
                    [
                        {
                            "pitch": 67, 
                            "t0": 174720, 
                            "v": 90, 
                            "dur": 240, 
                            "type": "note", 
                            "channel": 3
                        }
                    ]
                ], 
                [
                    174960, 
                    [
                        {
                            "pitch": 72, 
                            "t0": 174960, 
                            "v": 90, 
                            "dur": 240, 
                            "type": "note", 
                            "channel": 3
                        }
                    ]
                ], 
                [
                    175200, 
                    [
                        {
                            "pitch": 72, 
                            "t0": 175200, 
                            "v": 90, 
                            "dur": 240, 
                            "type": "note", 
                            "channel": 3
                        }
                    ]
                ], 
                [
                    175440, 
                    [
                        {
                            "pitch": 72, 
                            "t0": 175440, 
                            "v": 90, 
                            "dur": 240, 
                            "type": "note", 
                            "channel": 3
                        }
                    ]
                ], 
                [
                    175680, 
                    [
                        {
                            "pitch": 72, 
                            "t0": 175680, 
                            "v": 90, 
                            "dur": 480, 
                            "type": "note", 
                            "channel": 3
                        }
                    ]
                ], 
                [
                    176160, 
                    [
                        {
                            "pitch": 67, 
                            "t0": 176160, 
                            "v": 90, 
                            "dur": 240, 
                            "type": "note", 
                            "channel": 3
                        }
                    ]
                ], 
                [
                    176400, 
                    [
                        {
                            "pitch": 67, 
                            "t0": 176400, 
                            "v": 90, 
                            "dur": 240, 
                            "type": "note", 
                            "channel": 3
                        }
                    ]
                ], 
                [
                    176640, 
                    [
                        {
                            "pitch": 67, 
                            "t0": 176640, 
                            "v": 90, 
                            "dur": 240, 
                            "type": "note", 
                            "channel": 3
                        }
                    ]
                ], 
                [
                    176880, 
                    [
                        {
                            "pitch": 71, 
                            "t0": 176880, 
                            "v": 90, 
                            "dur": 240, 
                            "type": "note", 
                            "channel": 3
                        }
                    ]
                ], 
                [
                    177120, 
                    [
                        {
                            "pitch": 67, 
                            "t0": 177120, 
                            "v": 90, 
                            "dur": 240, 
                            "type": "note", 
                            "channel": 3
                        }
                    ]
                ], 
                [
                    177360, 
                    [
                        {
                            "pitch": 67, 
                            "t0": 177360, 
                            "v": 90, 
                            "dur": 240, 
                            "type": "note", 
                            "channel": 3
                        }
                    ]
                ], 
                [
                    177600, 
                    [
                        {
                            "pitch": 67, 
                            "t0": 177600, 
                            "v": 90, 
                            "dur": 240, 
                            "type": "note", 
                            "channel": 3
                        }
                    ]
                ], 
                [
                    177840, 
                    [
                        {
                            "pitch": 71, 
                            "t0": 177840, 
                            "v": 90, 
                            "dur": 240, 
                            "type": "note", 
                            "channel": 3
                        }
                    ]
                ], 
                [
                    178080, 
                    [
                        {
                            "pitch": 67, 
                            "t0": 178080, 
                            "v": 90, 
                            "dur": 240, 
                            "type": "note", 
                            "channel": 3
                        }
                    ]
                ], 
                [
                    178320, 
                    [
                        {
                            "pitch": 67, 
                            "t0": 178320, 
                            "v": 90, 
                            "dur": 240, 
                            "type": "note", 
                            "channel": 3
                        }
                    ]
                ], 
                [
                    178560, 
                    [
                        {
                            "pitch": 67, 
                            "t0": 178560, 
                            "v": 90, 
                            "dur": 240, 
                            "type": "note", 
                            "channel": 3
                        }
                    ]
                ], 
                [
                    178800, 
                    [
                        {
                            "pitch": 72, 
                            "t0": 178800, 
                            "v": 90, 
                            "dur": 240, 
                            "type": "note", 
                            "channel": 3
                        }
                    ]
                ], 
                [
                    179040, 
                    [
                        {
                            "pitch": 72, 
                            "t0": 179040, 
                            "v": 90, 
                            "dur": 240, 
                            "type": "note", 
                            "channel": 3
                        }
                    ]
                ], 
                [
                    179280, 
                    [
                        {
                            "pitch": 72, 
                            "t0": 179280, 
                            "v": 90, 
                            "dur": 240, 
                            "type": "note", 
                            "channel": 3
                        }
                    ]
                ], 
                [
                    179520, 
                    [
                        {
                            "pitch": 72, 
                            "t0": 179520, 
                            "v": 90, 
                            "dur": 480, 
                            "type": "note", 
                            "channel": 3
                        }
                    ]
                ], 
                [
                    180000, 
                    [
                        {
                            "pitch": 67, 
                            "t0": 180000, 
                            "v": 90, 
                            "dur": 240, 
                            "type": "note", 
                            "channel": 3
                        }
                    ]
                ], 
                [
                    180240, 
                    [
                        {
                            "pitch": 67, 
                            "t0": 180240, 
                            "v": 90, 
                            "dur": 240, 
                            "type": "note", 
                            "channel": 3
                        }
                    ]
                ], 
                [
                    180480, 
                    [
                        {
                            "pitch": 67, 
                            "t0": 180480, 
                            "v": 90, 
                            "dur": 240, 
                            "type": "note", 
                            "channel": 3
                        }
                    ]
                ], 
                [
                    180720, 
                    [
                        {
                            "pitch": 71, 
                            "t0": 180720, 
                            "v": 90, 
                            "dur": 240, 
                            "type": "note", 
                            "channel": 3
                        }
                    ]
                ], 
                [
                    180960, 
                    [
                        {
                            "pitch": 67, 
                            "t0": 180960, 
                            "v": 90, 
                            "dur": 240, 
                            "type": "note", 
                            "channel": 3
                        }
                    ]
                ], 
                [
                    181200, 
                    [
                        {
                            "pitch": 67, 
                            "t0": 181200, 
                            "v": 90, 
                            "dur": 240, 
                            "type": "note", 
                            "channel": 3
                        }
                    ]
                ], 
                [
                    181440, 
                    [
                        {
                            "pitch": 67, 
                            "t0": 181440, 
                            "v": 90, 
                            "dur": 240, 
                            "type": "note", 
                            "channel": 3
                        }
                    ]
                ], 
                [
                    181680, 
                    [
                        {
                            "pitch": 71, 
                            "t0": 181680, 
                            "v": 90, 
                            "dur": 240, 
                            "type": "note", 
                            "channel": 3
                        }
                    ]
                ], 
                [
                    181920, 
                    [
                        {
                            "pitch": 67, 
                            "t0": 181920, 
                            "v": 90, 
                            "dur": 240, 
                            "type": "note", 
                            "channel": 3
                        }
                    ]
                ], 
                [
                    182160, 
                    [
                        {
                            "pitch": 67, 
                            "t0": 182160, 
                            "v": 90, 
                            "dur": 240, 
                            "type": "note", 
                            "channel": 3
                        }
                    ]
                ], 
                [
                    182400, 
                    [
                        {
                            "pitch": 67, 
                            "t0": 182400, 
                            "v": 90, 
                            "dur": 240, 
                            "type": "note", 
                            "channel": 3
                        }
                    ]
                ], 
                [
                    182640, 
                    [
                        {
                            "pitch": 72, 
                            "t0": 182640, 
                            "v": 90, 
                            "dur": 240, 
                            "type": "note", 
                            "channel": 3
                        }
                    ]
                ], 
                [
                    182880, 
                    [
                        {
                            "pitch": 72, 
                            "t0": 182880, 
                            "v": 90, 
                            "dur": 240, 
                            "type": "note", 
                            "channel": 3
                        }
                    ]
                ], 
                [
                    183120, 
                    [
                        {
                            "pitch": 72, 
                            "t0": 183120, 
                            "v": 90, 
                            "dur": 240, 
                            "type": "note", 
                            "channel": 3
                        }
                    ]
                ], 
                [
                    183360, 
                    [
                        {
                            "pitch": 72, 
                            "t0": 183360, 
                            "v": 90, 
                            "dur": 480, 
                            "type": "note", 
                            "channel": 3
                        }
                    ]
                ]
            ], 
            "instruments": [
                53
            ], 
            "tMax": 183360, 
            "channels": [
                3
            ], 
            "instrument": 53, 
            "numNotes": 338, 
            "type": "TrackObj"
        }, 
        {
            "trackName": "Track-10", 
            "seq": [
                [
                    1920, 
                    [
                        {
                            "instrument": 53, 
                            "type": "programChange", 
                            "t0": 1920, 
                            "channel": 7
                        }
                    ]
                ], 
                [
                    49440, 
                    [
                        {
                            "pitch": 79, 
                            "t0": 49440, 
                            "v": 100, 
                            "dur": 240, 
                            "type": "note", 
                            "channel": 7
                        }
                    ]
                ], 
                [
                    49680, 
                    [
                        {
                            "pitch": 74, 
                            "t0": 49680, 
                            "v": 100, 
                            "dur": 240, 
                            "type": "note", 
                            "channel": 7
                        }
                    ]
                ], 
                [
                    49920, 
                    [
                        {
                            "pitch": 77, 
                            "t0": 49920, 
                            "v": 100, 
                            "dur": 480, 
                            "type": "note", 
                            "channel": 7
                        }
                    ]
                ], 
                [
                    50400, 
                    [
                        {
                            "pitch": 77, 
                            "t0": 50400, 
                            "v": 100, 
                            "dur": 240, 
                            "type": "note", 
                            "channel": 7
                        }
                    ]
                ], 
                [
                    50640, 
                    [
                        {
                            "pitch": 72, 
                            "t0": 50640, 
                            "v": 100, 
                            "dur": 240, 
                            "type": "note", 
                            "channel": 7
                        }
                    ]
                ], 
                [
                    50880, 
                    [
                        {
                            "pitch": 76, 
                            "t0": 50880, 
                            "v": 100, 
                            "dur": 480, 
                            "type": "note", 
                            "channel": 7
                        }
                    ]
                ], 
                [
                    51360, 
                    [
                        {
                            "pitch": 76, 
                            "t0": 51360, 
                            "v": 100, 
                            "dur": 240, 
                            "type": "note", 
                            "channel": 7
                        }
                    ]
                ], 
                [
                    51600, 
                    [
                        {
                            "pitch": 72, 
                            "t0": 51600, 
                            "v": 100, 
                            "dur": 240, 
                            "type": "note", 
                            "channel": 7
                        }
                    ]
                ], 
                [
                    51840, 
                    [
                        {
                            "pitch": 74, 
                            "t0": 51840, 
                            "v": 100, 
                            "dur": 480, 
                            "type": "note", 
                            "channel": 7
                        }
                    ]
                ], 
                [
                    53280, 
                    [
                        {
                            "pitch": 79, 
                            "t0": 53280, 
                            "v": 100, 
                            "dur": 240, 
                            "type": "note", 
                            "channel": 7
                        }
                    ]
                ], 
                [
                    53520, 
                    [
                        {
                            "pitch": 74, 
                            "t0": 53520, 
                            "v": 100, 
                            "dur": 240, 
                            "type": "note", 
                            "channel": 7
                        }
                    ]
                ], 
                [
                    53760, 
                    [
                        {
                            "pitch": 77, 
                            "t0": 53760, 
                            "v": 100, 
                            "dur": 480, 
                            "type": "note", 
                            "channel": 7
                        }
                    ]
                ], 
                [
                    54240, 
                    [
                        {
                            "pitch": 77, 
                            "t0": 54240, 
                            "v": 100, 
                            "dur": 240, 
                            "type": "note", 
                            "channel": 7
                        }
                    ]
                ], 
                [
                    54480, 
                    [
                        {
                            "pitch": 72, 
                            "t0": 54480, 
                            "v": 100, 
                            "dur": 240, 
                            "type": "note", 
                            "channel": 7
                        }
                    ]
                ], 
                [
                    54720, 
                    [
                        {
                            "pitch": 76, 
                            "t0": 54720, 
                            "v": 100, 
                            "dur": 480, 
                            "type": "note", 
                            "channel": 7
                        }
                    ]
                ], 
                [
                    55200, 
                    [
                        {
                            "pitch": 76, 
                            "t0": 55200, 
                            "v": 100, 
                            "dur": 240, 
                            "type": "note", 
                            "channel": 7
                        }
                    ]
                ], 
                [
                    55440, 
                    [
                        {
                            "pitch": 72, 
                            "t0": 55440, 
                            "v": 100, 
                            "dur": 240, 
                            "type": "note", 
                            "channel": 7
                        }
                    ]
                ], 
                [
                    55680, 
                    [
                        {
                            "pitch": 74, 
                            "t0": 55680, 
                            "v": 100, 
                            "dur": 480, 
                            "type": "note", 
                            "channel": 7
                        }
                    ]
                ], 
                [
                    57120, 
                    [
                        {
                            "pitch": 79, 
                            "t0": 57120, 
                            "v": 100, 
                            "dur": 240, 
                            "type": "note", 
                            "channel": 7
                        }
                    ]
                ], 
                [
                    57360, 
                    [
                        {
                            "pitch": 74, 
                            "t0": 57360, 
                            "v": 100, 
                            "dur": 240, 
                            "type": "note", 
                            "channel": 7
                        }
                    ]
                ], 
                [
                    57600, 
                    [
                        {
                            "pitch": 77, 
                            "t0": 57600, 
                            "v": 100, 
                            "dur": 480, 
                            "type": "note", 
                            "channel": 7
                        }
                    ]
                ], 
                [
                    58080, 
                    [
                        {
                            "pitch": 77, 
                            "t0": 58080, 
                            "v": 100, 
                            "dur": 240, 
                            "type": "note", 
                            "channel": 7
                        }
                    ]
                ], 
                [
                    58320, 
                    [
                        {
                            "pitch": 72, 
                            "t0": 58320, 
                            "v": 100, 
                            "dur": 240, 
                            "type": "note", 
                            "channel": 7
                        }
                    ]
                ], 
                [
                    58560, 
                    [
                        {
                            "pitch": 76, 
                            "t0": 58560, 
                            "v": 100, 
                            "dur": 480, 
                            "type": "note", 
                            "channel": 7
                        }
                    ]
                ], 
                [
                    59040, 
                    [
                        {
                            "pitch": 76, 
                            "t0": 59040, 
                            "v": 100, 
                            "dur": 240, 
                            "type": "note", 
                            "channel": 7
                        }
                    ]
                ], 
                [
                    59280, 
                    [
                        {
                            "pitch": 72, 
                            "t0": 59280, 
                            "v": 100, 
                            "dur": 240, 
                            "type": "note", 
                            "channel": 7
                        }
                    ]
                ], 
                [
                    59520, 
                    [
                        {
                            "pitch": 74, 
                            "t0": 59520, 
                            "v": 100, 
                            "dur": 480, 
                            "type": "note", 
                            "channel": 7
                        }
                    ]
                ], 
                [
                    60960, 
                    [
                        {
                            "pitch": 79, 
                            "t0": 60960, 
                            "v": 100, 
                            "dur": 240, 
                            "type": "note", 
                            "channel": 7
                        }
                    ]
                ], 
                [
                    61200, 
                    [
                        {
                            "pitch": 74, 
                            "t0": 61200, 
                            "v": 100, 
                            "dur": 240, 
                            "type": "note", 
                            "channel": 7
                        }
                    ]
                ], 
                [
                    61440, 
                    [
                        {
                            "pitch": 77, 
                            "t0": 61440, 
                            "v": 100, 
                            "dur": 480, 
                            "type": "note", 
                            "channel": 7
                        }
                    ]
                ], 
                [
                    61920, 
                    [
                        {
                            "pitch": 77, 
                            "t0": 61920, 
                            "v": 100, 
                            "dur": 240, 
                            "type": "note", 
                            "channel": 7
                        }
                    ]
                ], 
                [
                    62160, 
                    [
                        {
                            "pitch": 72, 
                            "t0": 62160, 
                            "v": 100, 
                            "dur": 240, 
                            "type": "note", 
                            "channel": 7
                        }
                    ]
                ], 
                [
                    62400, 
                    [
                        {
                            "pitch": 76, 
                            "t0": 62400, 
                            "v": 100, 
                            "dur": 480, 
                            "type": "note", 
                            "channel": 7
                        }
                    ]
                ], 
                [
                    62880, 
                    [
                        {
                            "pitch": 76, 
                            "t0": 62880, 
                            "v": 100, 
                            "dur": 240, 
                            "type": "note", 
                            "channel": 7
                        }
                    ]
                ], 
                [
                    63120, 
                    [
                        {
                            "pitch": 72, 
                            "t0": 63120, 
                            "v": 100, 
                            "dur": 240, 
                            "type": "note", 
                            "channel": 7
                        }
                    ]
                ], 
                [
                    63360, 
                    [
                        {
                            "pitch": 74, 
                            "t0": 63360, 
                            "v": 100, 
                            "dur": 480, 
                            "type": "note", 
                            "channel": 7
                        }
                    ]
                ], 
                [
                    97920, 
                    [
                        {
                            "pitch": 76, 
                            "t0": 97920, 
                            "v": 100, 
                            "dur": 240, 
                            "type": "note", 
                            "channel": 7
                        }
                    ]
                ], 
                [
                    98160, 
                    [
                        {
                            "pitch": 79, 
                            "t0": 98160, 
                            "v": 100, 
                            "dur": 240, 
                            "type": "note", 
                            "channel": 7
                        }
                    ]
                ], 
                [
                    98400, 
                    [
                        {
                            "pitch": 79, 
                            "t0": 98400, 
                            "v": 100, 
                            "dur": 480, 
                            "type": "note", 
                            "channel": 7
                        }
                    ]
                ], 
                [
                    98880, 
                    [
                        {
                            "pitch": 76, 
                            "t0": 98880, 
                            "v": 100, 
                            "dur": 240, 
                            "type": "note", 
                            "channel": 7
                        }
                    ]
                ], 
                [
                    99120, 
                    [
                        {
                            "pitch": 79, 
                            "t0": 99120, 
                            "v": 100, 
                            "dur": 240, 
                            "type": "note", 
                            "channel": 7
                        }
                    ]
                ], 
                [
                    99360, 
                    [
                        {
                            "pitch": 79, 
                            "t0": 99360, 
                            "v": 100, 
                            "dur": 480, 
                            "type": "note", 
                            "channel": 7
                        }
                    ]
                ], 
                [
                    99840, 
                    [
                        {
                            "pitch": 74, 
                            "t0": 99840, 
                            "v": 100, 
                            "dur": 240, 
                            "type": "note", 
                            "channel": 7
                        }
                    ]
                ], 
                [
                    100080, 
                    [
                        {
                            "pitch": 79, 
                            "t0": 100080, 
                            "v": 100, 
                            "dur": 240, 
                            "type": "note", 
                            "channel": 7
                        }
                    ]
                ], 
                [
                    100320, 
                    [
                        {
                            "pitch": 79, 
                            "t0": 100320, 
                            "v": 100, 
                            "dur": 480, 
                            "type": "note", 
                            "channel": 7
                        }
                    ]
                ], 
                [
                    100800, 
                    [
                        {
                            "pitch": 79, 
                            "t0": 100800, 
                            "v": 100, 
                            "dur": 480, 
                            "type": "note", 
                            "channel": 7
                        }
                    ]
                ], 
                [
                    101280, 
                    [
                        {
                            "pitch": 79, 
                            "t0": 101280, 
                            "v": 100, 
                            "dur": 240, 
                            "type": "note", 
                            "channel": 7
                        }
                    ]
                ], 
                [
                    101520, 
                    [
                        {
                            "pitch": 72, 
                            "t0": 101520, 
                            "v": 100, 
                            "dur": 1920, 
                            "type": "note", 
                            "channel": 7
                        }
                    ]
                ], 
                [
                    105600, 
                    [
                        {
                            "pitch": 76, 
                            "t0": 105600, 
                            "v": 100, 
                            "dur": 240, 
                            "type": "note", 
                            "channel": 7
                        }
                    ]
                ], 
                [
                    105840, 
                    [
                        {
                            "pitch": 79, 
                            "t0": 105840, 
                            "v": 100, 
                            "dur": 240, 
                            "type": "note", 
                            "channel": 7
                        }
                    ]
                ], 
                [
                    106080, 
                    [
                        {
                            "pitch": 79, 
                            "t0": 106080, 
                            "v": 100, 
                            "dur": 480, 
                            "type": "note", 
                            "channel": 7
                        }
                    ]
                ], 
                [
                    106560, 
                    [
                        {
                            "pitch": 76, 
                            "t0": 106560, 
                            "v": 100, 
                            "dur": 240, 
                            "type": "note", 
                            "channel": 7
                        }
                    ]
                ], 
                [
                    106800, 
                    [
                        {
                            "pitch": 79, 
                            "t0": 106800, 
                            "v": 100, 
                            "dur": 240, 
                            "type": "note", 
                            "channel": 7
                        }
                    ]
                ], 
                [
                    107040, 
                    [
                        {
                            "pitch": 79, 
                            "t0": 107040, 
                            "v": 100, 
                            "dur": 480, 
                            "type": "note", 
                            "channel": 7
                        }
                    ]
                ], 
                [
                    107520, 
                    [
                        {
                            "pitch": 74, 
                            "t0": 107520, 
                            "v": 100, 
                            "dur": 240, 
                            "type": "note", 
                            "channel": 7
                        }
                    ]
                ], 
                [
                    107760, 
                    [
                        {
                            "pitch": 79, 
                            "t0": 107760, 
                            "v": 100, 
                            "dur": 240, 
                            "type": "note", 
                            "channel": 7
                        }
                    ]
                ], 
                [
                    108000, 
                    [
                        {
                            "pitch": 79, 
                            "t0": 108000, 
                            "v": 100, 
                            "dur": 480, 
                            "type": "note", 
                            "channel": 7
                        }
                    ]
                ], 
                [
                    108480, 
                    [
                        {
                            "pitch": 79, 
                            "t0": 108480, 
                            "v": 100, 
                            "dur": 480, 
                            "type": "note", 
                            "channel": 7
                        }
                    ]
                ], 
                [
                    108960, 
                    [
                        {
                            "pitch": 79, 
                            "t0": 108960, 
                            "v": 100, 
                            "dur": 240, 
                            "type": "note", 
                            "channel": 7
                        }
                    ]
                ], 
                [
                    109200, 
                    [
                        {
                            "pitch": 72, 
                            "t0": 109200, 
                            "v": 100, 
                            "dur": 1920, 
                            "type": "note", 
                            "channel": 7
                        }
                    ]
                ], 
                [
                    113280, 
                    [
                        {
                            "pitch": 76, 
                            "t0": 113280, 
                            "v": 100, 
                            "dur": 240, 
                            "type": "note", 
                            "channel": 7
                        }
                    ]
                ], 
                [
                    113520, 
                    [
                        {
                            "pitch": 79, 
                            "t0": 113520, 
                            "v": 100, 
                            "dur": 240, 
                            "type": "note", 
                            "channel": 7
                        }
                    ]
                ], 
                [
                    113760, 
                    [
                        {
                            "pitch": 79, 
                            "t0": 113760, 
                            "v": 100, 
                            "dur": 480, 
                            "type": "note", 
                            "channel": 7
                        }
                    ]
                ], 
                [
                    114240, 
                    [
                        {
                            "pitch": 76, 
                            "t0": 114240, 
                            "v": 100, 
                            "dur": 240, 
                            "type": "note", 
                            "channel": 7
                        }
                    ]
                ], 
                [
                    114480, 
                    [
                        {
                            "pitch": 79, 
                            "t0": 114480, 
                            "v": 100, 
                            "dur": 240, 
                            "type": "note", 
                            "channel": 7
                        }
                    ]
                ], 
                [
                    114720, 
                    [
                        {
                            "pitch": 79, 
                            "t0": 114720, 
                            "v": 100, 
                            "dur": 480, 
                            "type": "note", 
                            "channel": 7
                        }
                    ]
                ], 
                [
                    115200, 
                    [
                        {
                            "pitch": 74, 
                            "t0": 115200, 
                            "v": 100, 
                            "dur": 240, 
                            "type": "note", 
                            "channel": 7
                        }
                    ]
                ], 
                [
                    115440, 
                    [
                        {
                            "pitch": 79, 
                            "t0": 115440, 
                            "v": 100, 
                            "dur": 240, 
                            "type": "note", 
                            "channel": 7
                        }
                    ]
                ], 
                [
                    115680, 
                    [
                        {
                            "pitch": 79, 
                            "t0": 115680, 
                            "v": 100, 
                            "dur": 480, 
                            "type": "note", 
                            "channel": 7
                        }
                    ]
                ], 
                [
                    116160, 
                    [
                        {
                            "pitch": 79, 
                            "t0": 116160, 
                            "v": 100, 
                            "dur": 480, 
                            "type": "note", 
                            "channel": 7
                        }
                    ]
                ], 
                [
                    116640, 
                    [
                        {
                            "pitch": 81, 
                            "t0": 116640, 
                            "v": 100, 
                            "dur": 240, 
                            "type": "note", 
                            "channel": 7
                        }
                    ]
                ], 
                [
                    116880, 
                    [
                        {
                            "pitch": 72, 
                            "t0": 116880, 
                            "v": 100, 
                            "dur": 1920, 
                            "type": "note", 
                            "channel": 7
                        }
                    ]
                ], 
                [
                    124320, 
                    [
                        {
                            "pitch": 79, 
                            "t0": 124320, 
                            "v": 90, 
                            "dur": 240, 
                            "type": "note", 
                            "channel": 7
                        }
                    ]
                ], 
                [
                    124560, 
                    [
                        {
                            "pitch": 74, 
                            "t0": 124560, 
                            "v": 90, 
                            "dur": 240, 
                            "type": "note", 
                            "channel": 7
                        }
                    ]
                ], 
                [
                    124800, 
                    [
                        {
                            "pitch": 77, 
                            "t0": 124800, 
                            "v": 90, 
                            "dur": 480, 
                            "type": "note", 
                            "channel": 7
                        }
                    ]
                ], 
                [
                    125280, 
                    [
                        {
                            "pitch": 77, 
                            "t0": 125280, 
                            "v": 90, 
                            "dur": 240, 
                            "type": "note", 
                            "channel": 7
                        }
                    ]
                ], 
                [
                    125520, 
                    [
                        {
                            "pitch": 72, 
                            "t0": 125520, 
                            "v": 90, 
                            "dur": 240, 
                            "type": "note", 
                            "channel": 7
                        }
                    ]
                ], 
                [
                    125760, 
                    [
                        {
                            "pitch": 76, 
                            "t0": 125760, 
                            "v": 90, 
                            "dur": 480, 
                            "type": "note", 
                            "channel": 7
                        }
                    ]
                ], 
                [
                    126240, 
                    [
                        {
                            "pitch": 76, 
                            "t0": 126240, 
                            "v": 90, 
                            "dur": 240, 
                            "type": "note", 
                            "channel": 7
                        }
                    ]
                ], 
                [
                    126480, 
                    [
                        {
                            "pitch": 72, 
                            "t0": 126480, 
                            "v": 90, 
                            "dur": 240, 
                            "type": "note", 
                            "channel": 7
                        }
                    ]
                ], 
                [
                    126720, 
                    [
                        {
                            "pitch": 74, 
                            "t0": 126720, 
                            "v": 90, 
                            "dur": 480, 
                            "type": "note", 
                            "channel": 7
                        }
                    ]
                ], 
                [
                    128160, 
                    [
                        {
                            "pitch": 79, 
                            "t0": 128160, 
                            "v": 90, 
                            "dur": 240, 
                            "type": "note", 
                            "channel": 7
                        }
                    ]
                ], 
                [
                    128400, 
                    [
                        {
                            "pitch": 74, 
                            "t0": 128400, 
                            "v": 90, 
                            "dur": 240, 
                            "type": "note", 
                            "channel": 7
                        }
                    ]
                ], 
                [
                    128640, 
                    [
                        {
                            "pitch": 77, 
                            "t0": 128640, 
                            "v": 90, 
                            "dur": 480, 
                            "type": "note", 
                            "channel": 7
                        }
                    ]
                ], 
                [
                    129120, 
                    [
                        {
                            "pitch": 77, 
                            "t0": 129120, 
                            "v": 90, 
                            "dur": 240, 
                            "type": "note", 
                            "channel": 7
                        }
                    ]
                ], 
                [
                    129360, 
                    [
                        {
                            "pitch": 72, 
                            "t0": 129360, 
                            "v": 90, 
                            "dur": 240, 
                            "type": "note", 
                            "channel": 7
                        }
                    ]
                ], 
                [
                    129600, 
                    [
                        {
                            "pitch": 76, 
                            "t0": 129600, 
                            "v": 90, 
                            "dur": 240, 
                            "type": "note", 
                            "channel": 7
                        }
                    ]
                ], 
                [
                    130080, 
                    [
                        {
                            "pitch": 76, 
                            "t0": 130080, 
                            "v": 90, 
                            "dur": 240, 
                            "type": "note", 
                            "channel": 7
                        }
                    ]
                ], 
                [
                    130320, 
                    [
                        {
                            "pitch": 72, 
                            "t0": 130320, 
                            "v": 90, 
                            "dur": 240, 
                            "type": "note", 
                            "channel": 7
                        }
                    ]
                ], 
                [
                    130560, 
                    [
                        {
                            "pitch": 74, 
                            "t0": 130560, 
                            "v": 90, 
                            "dur": 480, 
                            "type": "note", 
                            "channel": 7
                        }
                    ]
                ], 
                [
                    132000, 
                    [
                        {
                            "pitch": 79, 
                            "t0": 132000, 
                            "v": 90, 
                            "dur": 240, 
                            "type": "note", 
                            "channel": 7
                        }
                    ]
                ], 
                [
                    132240, 
                    [
                        {
                            "pitch": 74, 
                            "t0": 132240, 
                            "v": 90, 
                            "dur": 240, 
                            "type": "note", 
                            "channel": 7
                        }
                    ]
                ], 
                [
                    132480, 
                    [
                        {
                            "pitch": 77, 
                            "t0": 132480, 
                            "v": 90, 
                            "dur": 240, 
                            "type": "note", 
                            "channel": 7
                        }
                    ]
                ], 
                [
                    132960, 
                    [
                        {
                            "pitch": 77, 
                            "t0": 132960, 
                            "v": 90, 
                            "dur": 240, 
                            "type": "note", 
                            "channel": 7
                        }
                    ]
                ], 
                [
                    133200, 
                    [
                        {
                            "pitch": 72, 
                            "t0": 133200, 
                            "v": 90, 
                            "dur": 240, 
                            "type": "note", 
                            "channel": 7
                        }
                    ]
                ], 
                [
                    133440, 
                    [
                        {
                            "pitch": 76, 
                            "t0": 133440, 
                            "v": 90, 
                            "dur": 240, 
                            "type": "note", 
                            "channel": 7
                        }
                    ]
                ], 
                [
                    133920, 
                    [
                        {
                            "pitch": 76, 
                            "t0": 133920, 
                            "v": 90, 
                            "dur": 240, 
                            "type": "note", 
                            "channel": 7
                        }
                    ]
                ], 
                [
                    134160, 
                    [
                        {
                            "pitch": 72, 
                            "t0": 134160, 
                            "v": 90, 
                            "dur": 240, 
                            "type": "note", 
                            "channel": 7
                        }
                    ]
                ], 
                [
                    134400, 
                    [
                        {
                            "pitch": 74, 
                            "t0": 134400, 
                            "v": 90, 
                            "dur": 480, 
                            "type": "note", 
                            "channel": 7
                        }
                    ]
                ], 
                [
                    135840, 
                    [
                        {
                            "pitch": 79, 
                            "t0": 135840, 
                            "v": 90, 
                            "dur": 240, 
                            "type": "note", 
                            "channel": 7
                        }
                    ]
                ], 
                [
                    136080, 
                    [
                        {
                            "pitch": 74, 
                            "t0": 136080, 
                            "v": 90, 
                            "dur": 240, 
                            "type": "note", 
                            "channel": 7
                        }
                    ]
                ], 
                [
                    136320, 
                    [
                        {
                            "pitch": 77, 
                            "t0": 136320, 
                            "v": 90, 
                            "dur": 240, 
                            "type": "note", 
                            "channel": 7
                        }
                    ]
                ], 
                [
                    136800, 
                    [
                        {
                            "pitch": 77, 
                            "t0": 136800, 
                            "v": 90, 
                            "dur": 240, 
                            "type": "note", 
                            "channel": 7
                        }
                    ]
                ], 
                [
                    137040, 
                    [
                        {
                            "pitch": 72, 
                            "t0": 137040, 
                            "v": 90, 
                            "dur": 240, 
                            "type": "note", 
                            "channel": 7
                        }
                    ]
                ], 
                [
                    137280, 
                    [
                        {
                            "pitch": 76, 
                            "t0": 137280, 
                            "v": 90, 
                            "dur": 240, 
                            "type": "note", 
                            "channel": 7
                        }
                    ]
                ], 
                [
                    137760, 
                    [
                        {
                            "pitch": 76, 
                            "t0": 137760, 
                            "v": 90, 
                            "dur": 240, 
                            "type": "note", 
                            "channel": 7
                        }
                    ]
                ], 
                [
                    138000, 
                    [
                        {
                            "pitch": 72, 
                            "t0": 138000, 
                            "v": 90, 
                            "dur": 240, 
                            "type": "note", 
                            "channel": 7
                        }
                    ]
                ], 
                [
                    138240, 
                    [
                        {
                            "pitch": 74, 
                            "t0": 138240, 
                            "v": 90, 
                            "dur": 480, 
                            "type": "note", 
                            "channel": 7
                        }
                    ]
                ], 
                [
                    161280, 
                    [
                        {
                            "pitch": 67, 
                            "t0": 161280, 
                            "v": 80, 
                            "dur": 1920, 
                            "type": "note", 
                            "channel": 7
                        }
                    ]
                ], 
                [
                    163200, 
                    [
                        {
                            "pitch": 65, 
                            "t0": 163200, 
                            "v": 80, 
                            "dur": 720, 
                            "type": "note", 
                            "channel": 7
                        }
                    ]
                ], 
                [
                    163920, 
                    [
                        {
                            "pitch": 64, 
                            "t0": 163920, 
                            "v": 80, 
                            "dur": 480, 
                            "type": "note", 
                            "channel": 7
                        }
                    ]
                ], 
                [
                    165120, 
                    [
                        {
                            "pitch": 67, 
                            "t0": 165120, 
                            "v": 80, 
                            "dur": 1920, 
                            "type": "note", 
                            "channel": 7
                        }
                    ]
                ], 
                [
                    167040, 
                    [
                        {
                            "pitch": 65, 
                            "t0": 167040, 
                            "v": 80, 
                            "dur": 720, 
                            "type": "note", 
                            "channel": 7
                        }
                    ]
                ], 
                [
                    167760, 
                    [
                        {
                            "pitch": 64, 
                            "t0": 167760, 
                            "v": 80, 
                            "dur": 480, 
                            "type": "note", 
                            "channel": 7
                        }
                    ]
                ], 
                [
                    168960, 
                    [
                        {
                            "pitch": 67, 
                            "t0": 168960, 
                            "v": 80, 
                            "dur": 1920, 
                            "type": "note", 
                            "channel": 7
                        }
                    ]
                ], 
                [
                    170880, 
                    [
                        {
                            "pitch": 65, 
                            "t0": 170880, 
                            "v": 80, 
                            "dur": 720, 
                            "type": "note", 
                            "channel": 7
                        }
                    ]
                ], 
                [
                    171600, 
                    [
                        {
                            "pitch": 64, 
                            "t0": 171600, 
                            "v": 80, 
                            "dur": 240, 
                            "type": "note", 
                            "channel": 7
                        }
                    ]
                ], 
                [
                    172800, 
                    [
                        {
                            "pitch": 67, 
                            "t0": 172800, 
                            "v": 80, 
                            "dur": 1920, 
                            "type": "note", 
                            "channel": 7
                        }
                    ]
                ], 
                [
                    174720, 
                    [
                        {
                            "pitch": 65, 
                            "t0": 174720, 
                            "v": 80, 
                            "dur": 720, 
                            "type": "note", 
                            "channel": 7
                        }
                    ]
                ], 
                [
                    175440, 
                    [
                        {
                            "pitch": 64, 
                            "t0": 175440, 
                            "v": 80, 
                            "dur": 480, 
                            "type": "note", 
                            "channel": 7
                        }
                    ]
                ], 
                [
                    176640, 
                    [
                        {
                            "pitch": 67, 
                            "t0": 176640, 
                            "v": 80, 
                            "dur": 1920, 
                            "type": "note", 
                            "channel": 7
                        }
                    ]
                ], 
                [
                    178560, 
                    [
                        {
                            "pitch": 65, 
                            "t0": 178560, 
                            "v": 80, 
                            "dur": 720, 
                            "type": "note", 
                            "channel": 7
                        }
                    ]
                ], 
                [
                    179280, 
                    [
                        {
                            "pitch": 64, 
                            "t0": 179280, 
                            "v": 80, 
                            "dur": 480, 
                            "type": "note", 
                            "channel": 7
                        }
                    ]
                ], 
                [
                    180480, 
                    [
                        {
                            "pitch": 67, 
                            "t0": 180480, 
                            "v": 80, 
                            "dur": 1920, 
                            "type": "note", 
                            "channel": 7
                        }
                    ]
                ], 
                [
                    182400, 
                    [
                        {
                            "pitch": 65, 
                            "t0": 182400, 
                            "v": 80, 
                            "dur": 720, 
                            "type": "note", 
                            "channel": 7
                        }
                    ]
                ], 
                [
                    183120, 
                    [
                        {
                            "pitch": 64, 
                            "t0": 183120, 
                            "v": 80, 
                            "dur": 480, 
                            "type": "note", 
                            "channel": 7
                        }
                    ]
                ], 
                [
                    184320, 
                    [
                        {
                            "pitch": 67, 
                            "t0": 184320, 
                            "v": 80, 
                            "dur": 1920, 
                            "type": "note", 
                            "channel": 7
                        }
                    ]
                ], 
                [
                    186240, 
                    [
                        {
                            "pitch": 65, 
                            "t0": 186240, 
                            "v": 80, 
                            "dur": 720, 
                            "type": "note", 
                            "channel": 7
                        }
                    ]
                ], 
                [
                    186960, 
                    [
                        {
                            "pitch": 64, 
                            "t0": 186960, 
                            "v": 80, 
                            "dur": 480, 
                            "type": "note", 
                            "channel": 7
                        }
                    ]
                ], 
                [
                    188160, 
                    [
                        {
                            "pitch": 67, 
                            "t0": 188160, 
                            "v": 80, 
                            "dur": 1920, 
                            "type": "note", 
                            "channel": 7
                        }
                    ]
                ], 
                [
                    190080, 
                    [
                        {
                            "pitch": 65, 
                            "t0": 190080, 
                            "v": 80, 
                            "dur": 720, 
                            "type": "note", 
                            "channel": 7
                        }
                    ]
                ], 
                [
                    190800, 
                    [
                        {
                            "pitch": 64, 
                            "t0": 190800, 
                            "v": 80, 
                            "dur": 480, 
                            "type": "note", 
                            "channel": 7
                        }
                    ]
                ], 
                [
                    192000, 
                    [
                        {
                            "pitch": 67, 
                            "t0": 192000, 
                            "v": 80, 
                            "dur": 1920, 
                            "type": "note", 
                            "channel": 7
                        }
                    ]
                ], 
                [
                    193920, 
                    [
                        {
                            "pitch": 65, 
                            "t0": 193920, 
                            "v": 80, 
                            "dur": 960, 
                            "type": "note", 
                            "channel": 7
                        }
                    ]
                ], 
                [
                    194880, 
                    [
                        {
                            "pitch": 64, 
                            "t0": 194880, 
                            "v": 80, 
                            "dur": 960, 
                            "type": "note", 
                            "channel": 7
                        }
                    ]
                ], 
                [
                    195840, 
                    [
                        {
                            "pitch": 67, 
                            "t0": 195840, 
                            "v": 80, 
                            "dur": 1920, 
                            "type": "note", 
                            "channel": 7
                        }
                    ]
                ], 
                [
                    197760, 
                    [
                        {
                            "pitch": 65, 
                            "t0": 197760, 
                            "v": 80, 
                            "dur": 960, 
                            "type": "note", 
                            "channel": 7
                        }
                    ]
                ], 
                [
                    198720, 
                    [
                        {
                            "pitch": 64, 
                            "t0": 198720, 
                            "v": 80, 
                            "dur": 960, 
                            "type": "note", 
                            "channel": 7
                        }
                    ]
                ], 
                [
                    199700, 
                    [
                        {
                            "pitch": 67, 
                            "t0": 199700, 
                            "v": 80, 
                            "dur": 1920, 
                            "type": "note", 
                            "channel": 7
                        }
                    ]
                ], 
                [
                    201620, 
                    [
                        {
                            "pitch": 65, 
                            "t0": 201620, 
                            "v": 80, 
                            "dur": 960, 
                            "type": "note", 
                            "channel": 7
                        }
                    ]
                ], 
                [
                    202580, 
                    [
                        {
                            "pitch": 64, 
                            "t0": 202580, 
                            "v": 80, 
                            "dur": 960, 
                            "type": "note", 
                            "channel": 7
                        }
                    ]
                ], 
                [
                    203540, 
                    [
                        {
                            "pitch": 67, 
                            "t0": 203540, 
                            "v": 80, 
                            "dur": 1920, 
                            "type": "note", 
                            "channel": 7
                        }
                    ]
                ], 
                [
                    205460, 
                    [
                        {
                            "pitch": 65, 
                            "t0": 205460, 
                            "v": 80, 
                            "dur": 960, 
                            "type": "note", 
                            "channel": 7
                        }
                    ]
                ], 
                [
                    206420, 
                    [
                        {
                            "pitch": 64, 
                            "t0": 206420, 
                            "v": 80, 
                            "dur": 960, 
                            "type": "note", 
                            "channel": 7
                        }
                    ]
                ], 
                [
                    207380, 
                    [
                        {
                            "pitch": 67, 
                            "t0": 207380, 
                            "v": 80, 
                            "dur": 1920, 
                            "type": "note", 
                            "channel": 7
                        }
                    ]
                ], 
                [
                    209300, 
                    [
                        {
                            "pitch": 65, 
                            "t0": 209300, 
                            "v": 80, 
                            "dur": 960, 
                            "type": "note", 
                            "channel": 7
                        }
                    ]
                ], 
                [
                    210260, 
                    [
                        {
                            "pitch": 64, 
                            "t0": 210260, 
                            "v": 80, 
                            "dur": 960, 
                            "type": "note", 
                            "channel": 7
                        }
                    ]
                ], 
                [
                    211220, 
                    [
                        {
                            "pitch": 67, 
                            "t0": 211220, 
                            "v": 80, 
                            "dur": 1920, 
                            "type": "note", 
                            "channel": 7
                        }
                    ]
                ], 
                [
                    213140, 
                    [
                        {
                            "pitch": 65, 
                            "t0": 213140, 
                            "v": 80, 
                            "dur": 960, 
                            "type": "note", 
                            "channel": 7
                        }
                    ]
                ], 
                [
                    214100, 
                    [
                        {
                            "pitch": 64, 
                            "t0": 214100, 
                            "v": 80, 
                            "dur": 960, 
                            "type": "note", 
                            "channel": 7
                        }
                    ]
                ], 
                [
                    215060, 
                    [
                        {
                            "pitch": 63, 
                            "t0": 215060, 
                            "v": 70, 
                            "dur": 2880, 
                            "type": "note", 
                            "channel": 7
                        }
                    ]
                ]
            ], 
            "instruments": [
                53
            ], 
            "tMax": 215060, 
            "channels": [
                7
            ], 
            "instrument": 53, 
            "numNotes": 151, 
            "type": "TrackObj"
        }, 
        {
            "trackName": "Track-9", 
            "seq": [
                [
                    1920, 
                    [
                        {
                            "instrument": 52, 
                            "type": "programChange", 
                            "t0": 1920, 
                            "channel": 2
                        }
                    ]
                ], 
                [
                    174240, 
                    [
                        {
                            "pitch": 79, 
                            "t0": 174240, 
                            "v": 100, 
                            "dur": 240, 
                            "type": "note", 
                            "channel": 2
                        }
                    ]
                ], 
                [
                    174480, 
                    [
                        {
                            "pitch": 74, 
                            "t0": 174480, 
                            "v": 100, 
                            "dur": 240, 
                            "type": "note", 
                            "channel": 2
                        }
                    ]
                ], 
                [
                    174720, 
                    [
                        {
                            "pitch": 77, 
                            "t0": 174720, 
                            "v": 100, 
                            "dur": 480, 
                            "type": "note", 
                            "channel": 2
                        }
                    ]
                ], 
                [
                    175200, 
                    [
                        {
                            "pitch": 77, 
                            "t0": 175200, 
                            "v": 100, 
                            "dur": 240, 
                            "type": "note", 
                            "channel": 2
                        }
                    ]
                ], 
                [
                    175440, 
                    [
                        {
                            "pitch": 72, 
                            "t0": 175440, 
                            "v": 100, 
                            "dur": 240, 
                            "type": "note", 
                            "channel": 2
                        }
                    ]
                ], 
                [
                    175680, 
                    [
                        {
                            "pitch": 76, 
                            "t0": 175680, 
                            "v": 100, 
                            "dur": 480, 
                            "type": "note", 
                            "channel": 2
                        }
                    ]
                ], 
                [
                    176160, 
                    [
                        {
                            "pitch": 76, 
                            "t0": 176160, 
                            "v": 100, 
                            "dur": 240, 
                            "type": "note", 
                            "channel": 2
                        }
                    ]
                ], 
                [
                    176400, 
                    [
                        {
                            "pitch": 72, 
                            "t0": 176400, 
                            "v": 100, 
                            "dur": 240, 
                            "type": "note", 
                            "channel": 2
                        }
                    ]
                ], 
                [
                    176640, 
                    [
                        {
                            "pitch": 74, 
                            "t0": 176640, 
                            "v": 100, 
                            "dur": 480, 
                            "type": "note", 
                            "channel": 2
                        }
                    ]
                ], 
                [
                    178080, 
                    [
                        {
                            "pitch": 79, 
                            "t0": 178080, 
                            "v": 100, 
                            "dur": 240, 
                            "type": "note", 
                            "channel": 2
                        }
                    ]
                ], 
                [
                    178320, 
                    [
                        {
                            "pitch": 74, 
                            "t0": 178320, 
                            "v": 100, 
                            "dur": 240, 
                            "type": "note", 
                            "channel": 2
                        }
                    ]
                ], 
                [
                    178560, 
                    [
                        {
                            "pitch": 77, 
                            "t0": 178560, 
                            "v": 100, 
                            "dur": 480, 
                            "type": "note", 
                            "channel": 2
                        }
                    ]
                ], 
                [
                    179040, 
                    [
                        {
                            "pitch": 77, 
                            "t0": 179040, 
                            "v": 100, 
                            "dur": 240, 
                            "type": "note", 
                            "channel": 2
                        }
                    ]
                ], 
                [
                    179280, 
                    [
                        {
                            "pitch": 72, 
                            "t0": 179280, 
                            "v": 100, 
                            "dur": 240, 
                            "type": "note", 
                            "channel": 2
                        }
                    ]
                ], 
                [
                    179520, 
                    [
                        {
                            "pitch": 76, 
                            "t0": 179520, 
                            "v": 100, 
                            "dur": 480, 
                            "type": "note", 
                            "channel": 2
                        }
                    ]
                ], 
                [
                    180000, 
                    [
                        {
                            "pitch": 76, 
                            "t0": 180000, 
                            "v": 100, 
                            "dur": 240, 
                            "type": "note", 
                            "channel": 2
                        }
                    ]
                ], 
                [
                    180240, 
                    [
                        {
                            "pitch": 72, 
                            "t0": 180240, 
                            "v": 100, 
                            "dur": 240, 
                            "type": "note", 
                            "channel": 2
                        }
                    ]
                ], 
                [
                    180480, 
                    [
                        {
                            "pitch": 74, 
                            "t0": 180480, 
                            "v": 100, 
                            "dur": 480, 
                            "type": "note", 
                            "channel": 2
                        }
                    ]
                ], 
                [
                    181920, 
                    [
                        {
                            "pitch": 79, 
                            "t0": 181920, 
                            "v": 100, 
                            "dur": 240, 
                            "type": "note", 
                            "channel": 2
                        }
                    ]
                ], 
                [
                    182160, 
                    [
                        {
                            "pitch": 74, 
                            "t0": 182160, 
                            "v": 100, 
                            "dur": 240, 
                            "type": "note", 
                            "channel": 2
                        }
                    ]
                ], 
                [
                    182400, 
                    [
                        {
                            "pitch": 77, 
                            "t0": 182400, 
                            "v": 100, 
                            "dur": 480, 
                            "type": "note", 
                            "channel": 2
                        }
                    ]
                ], 
                [
                    182880, 
                    [
                        {
                            "pitch": 77, 
                            "t0": 182880, 
                            "v": 100, 
                            "dur": 240, 
                            "type": "note", 
                            "channel": 2
                        }
                    ]
                ], 
                [
                    183120, 
                    [
                        {
                            "pitch": 72, 
                            "t0": 183120, 
                            "v": 100, 
                            "dur": 240, 
                            "type": "note", 
                            "channel": 2
                        }
                    ]
                ], 
                [
                    183360, 
                    [
                        {
                            "pitch": 76, 
                            "t0": 183360, 
                            "v": 100, 
                            "dur": 480, 
                            "type": "note", 
                            "channel": 2
                        }
                    ]
                ], 
                [
                    183840, 
                    [
                        {
                            "pitch": 76, 
                            "t0": 183840, 
                            "v": 100, 
                            "dur": 240, 
                            "type": "note", 
                            "channel": 2
                        }
                    ]
                ], 
                [
                    184080, 
                    [
                        {
                            "pitch": 72, 
                            "t0": 184080, 
                            "v": 100, 
                            "dur": 240, 
                            "type": "note", 
                            "channel": 2
                        }
                    ]
                ], 
                [
                    184320, 
                    [
                        {
                            "pitch": 74, 
                            "t0": 184320, 
                            "v": 100, 
                            "dur": 480, 
                            "type": "note", 
                            "channel": 2
                        }
                    ]
                ], 
                [
                    185760, 
                    [
                        {
                            "pitch": 79, 
                            "t0": 185760, 
                            "v": 100, 
                            "dur": 240, 
                            "type": "note", 
                            "channel": 2
                        }
                    ]
                ], 
                [
                    186000, 
                    [
                        {
                            "pitch": 74, 
                            "t0": 186000, 
                            "v": 100, 
                            "dur": 240, 
                            "type": "note", 
                            "channel": 2
                        }
                    ]
                ], 
                [
                    186240, 
                    [
                        {
                            "pitch": 77, 
                            "t0": 186240, 
                            "v": 100, 
                            "dur": 480, 
                            "type": "note", 
                            "channel": 2
                        }
                    ]
                ], 
                [
                    186720, 
                    [
                        {
                            "pitch": 77, 
                            "t0": 186720, 
                            "v": 100, 
                            "dur": 240, 
                            "type": "note", 
                            "channel": 2
                        }
                    ]
                ], 
                [
                    186960, 
                    [
                        {
                            "pitch": 72, 
                            "t0": 186960, 
                            "v": 100, 
                            "dur": 240, 
                            "type": "note", 
                            "channel": 2
                        }
                    ]
                ], 
                [
                    187200, 
                    [
                        {
                            "pitch": 76, 
                            "t0": 187200, 
                            "v": 100, 
                            "dur": 480, 
                            "type": "note", 
                            "channel": 2
                        }
                    ]
                ], 
                [
                    187680, 
                    [
                        {
                            "pitch": 76, 
                            "t0": 187680, 
                            "v": 100, 
                            "dur": 240, 
                            "type": "note", 
                            "channel": 2
                        }
                    ]
                ], 
                [
                    187920, 
                    [
                        {
                            "pitch": 72, 
                            "t0": 187920, 
                            "v": 100, 
                            "dur": 240, 
                            "type": "note", 
                            "channel": 2
                        }
                    ]
                ], 
                [
                    188160, 
                    [
                        {
                            "pitch": 74, 
                            "t0": 188160, 
                            "v": 100, 
                            "dur": 480, 
                            "type": "note", 
                            "channel": 2
                        }
                    ]
                ], 
                [
                    189600, 
                    [
                        {
                            "pitch": 79, 
                            "t0": 189600, 
                            "v": 100, 
                            "dur": 240, 
                            "type": "note", 
                            "channel": 2
                        }
                    ]
                ], 
                [
                    189840, 
                    [
                        {
                            "pitch": 74, 
                            "t0": 189840, 
                            "v": 100, 
                            "dur": 240, 
                            "type": "note", 
                            "channel": 2
                        }
                    ]
                ], 
                [
                    190080, 
                    [
                        {
                            "pitch": 77, 
                            "t0": 190080, 
                            "v": 100, 
                            "dur": 480, 
                            "type": "note", 
                            "channel": 2
                        }
                    ]
                ], 
                [
                    190560, 
                    [
                        {
                            "pitch": 77, 
                            "t0": 190560, 
                            "v": 100, 
                            "dur": 240, 
                            "type": "note", 
                            "channel": 2
                        }
                    ]
                ], 
                [
                    190800, 
                    [
                        {
                            "pitch": 72, 
                            "t0": 190800, 
                            "v": 100, 
                            "dur": 240, 
                            "type": "note", 
                            "channel": 2
                        }
                    ]
                ], 
                [
                    191040, 
                    [
                        {
                            "pitch": 76, 
                            "t0": 191040, 
                            "v": 100, 
                            "dur": 480, 
                            "type": "note", 
                            "channel": 2
                        }
                    ]
                ], 
                [
                    191520, 
                    [
                        {
                            "pitch": 76, 
                            "t0": 191520, 
                            "v": 100, 
                            "dur": 240, 
                            "type": "note", 
                            "channel": 2
                        }
                    ]
                ], 
                [
                    191760, 
                    [
                        {
                            "pitch": 72, 
                            "t0": 191760, 
                            "v": 100, 
                            "dur": 240, 
                            "type": "note", 
                            "channel": 2
                        }
                    ]
                ], 
                [
                    192000, 
                    [
                        {
                            "pitch": 74, 
                            "t0": 192000, 
                            "v": 100, 
                            "dur": 480, 
                            "type": "note", 
                            "channel": 2
                        }
                    ]
                ], 
                [
                    193440, 
                    [
                        {
                            "pitch": 79, 
                            "t0": 193440, 
                            "v": 100, 
                            "dur": 240, 
                            "type": "note", 
                            "channel": 2
                        }
                    ]
                ], 
                [
                    193680, 
                    [
                        {
                            "pitch": 74, 
                            "t0": 193680, 
                            "v": 100, 
                            "dur": 240, 
                            "type": "note", 
                            "channel": 2
                        }
                    ]
                ], 
                [
                    193920, 
                    [
                        {
                            "pitch": 77, 
                            "t0": 193920, 
                            "v": 100, 
                            "dur": 480, 
                            "type": "note", 
                            "channel": 2
                        }
                    ]
                ], 
                [
                    194400, 
                    [
                        {
                            "pitch": 77, 
                            "t0": 194400, 
                            "v": 100, 
                            "dur": 240, 
                            "type": "note", 
                            "channel": 2
                        }
                    ]
                ], 
                [
                    194640, 
                    [
                        {
                            "pitch": 72, 
                            "t0": 194640, 
                            "v": 100, 
                            "dur": 240, 
                            "type": "note", 
                            "channel": 2
                        }
                    ]
                ], 
                [
                    194880, 
                    [
                        {
                            "pitch": 76, 
                            "t0": 194880, 
                            "v": 100, 
                            "dur": 480, 
                            "type": "note", 
                            "channel": 2
                        }
                    ]
                ], 
                [
                    195360, 
                    [
                        {
                            "pitch": 76, 
                            "t0": 195360, 
                            "v": 100, 
                            "dur": 240, 
                            "type": "note", 
                            "channel": 2
                        }
                    ]
                ], 
                [
                    195600, 
                    [
                        {
                            "pitch": 72, 
                            "t0": 195600, 
                            "v": 100, 
                            "dur": 240, 
                            "type": "note", 
                            "channel": 2
                        }
                    ]
                ], 
                [
                    195840, 
                    [
                        {
                            "pitch": 74, 
                            "t0": 195840, 
                            "v": 100, 
                            "dur": 480, 
                            "type": "note", 
                            "channel": 2
                        }
                    ]
                ], 
                [
                    197280, 
                    [
                        {
                            "pitch": 79, 
                            "t0": 197280, 
                            "v": 100, 
                            "dur": 240, 
                            "type": "note", 
                            "channel": 2
                        }
                    ]
                ], 
                [
                    197520, 
                    [
                        {
                            "pitch": 74, 
                            "t0": 197520, 
                            "v": 100, 
                            "dur": 240, 
                            "type": "note", 
                            "channel": 2
                        }
                    ]
                ], 
                [
                    197760, 
                    [
                        {
                            "pitch": 77, 
                            "t0": 197760, 
                            "v": 100, 
                            "dur": 480, 
                            "type": "note", 
                            "channel": 2
                        }
                    ]
                ], 
                [
                    198240, 
                    [
                        {
                            "pitch": 77, 
                            "t0": 198240, 
                            "v": 100, 
                            "dur": 240, 
                            "type": "note", 
                            "channel": 2
                        }
                    ]
                ], 
                [
                    198480, 
                    [
                        {
                            "pitch": 72, 
                            "t0": 198480, 
                            "v": 100, 
                            "dur": 240, 
                            "type": "note", 
                            "channel": 2
                        }
                    ]
                ], 
                [
                    198720, 
                    [
                        {
                            "pitch": 76, 
                            "t0": 198720, 
                            "v": 100, 
                            "dur": 480, 
                            "type": "note", 
                            "channel": 2
                        }
                    ]
                ], 
                [
                    199200, 
                    [
                        {
                            "pitch": 76, 
                            "t0": 199200, 
                            "v": 100, 
                            "dur": 240, 
                            "type": "note", 
                            "channel": 2
                        }
                    ]
                ], 
                [
                    199440, 
                    [
                        {
                            "pitch": 72, 
                            "t0": 199440, 
                            "v": 100, 
                            "dur": 240, 
                            "type": "note", 
                            "channel": 2
                        }
                    ]
                ], 
                [
                    199680, 
                    [
                        {
                            "pitch": 74, 
                            "t0": 199680, 
                            "v": 100, 
                            "dur": 480, 
                            "type": "note", 
                            "channel": 2
                        }
                    ]
                ], 
                [
                    199700, 
                    [
                        {
                            "pitch": 71, 
                            "t0": 199700, 
                            "v": 100, 
                            "dur": 1920, 
                            "type": "note", 
                            "channel": 2
                        }
                    ]
                ], 
                [
                    201620, 
                    [
                        {
                            "pitch": 77, 
                            "t0": 201620, 
                            "v": 100, 
                            "dur": 480, 
                            "type": "note", 
                            "channel": 2
                        }
                    ]
                ], 
                [
                    202100, 
                    [
                        {
                            "pitch": 72, 
                            "t0": 202100, 
                            "v": 100, 
                            "dur": 480, 
                            "type": "note", 
                            "channel": 2
                        }
                    ]
                ], 
                [
                    202580, 
                    [
                        {
                            "pitch": 76, 
                            "t0": 202580, 
                            "v": 100, 
                            "dur": 960, 
                            "type": "note", 
                            "channel": 2
                        }
                    ]
                ], 
                [
                    203540, 
                    [
                        {
                            "pitch": 71, 
                            "t0": 203540, 
                            "v": 100, 
                            "dur": 1920, 
                            "type": "note", 
                            "channel": 2
                        }
                    ]
                ], 
                [
                    205460, 
                    [
                        {
                            "pitch": 77, 
                            "t0": 205460, 
                            "v": 100, 
                            "dur": 480, 
                            "type": "note", 
                            "channel": 2
                        }
                    ]
                ], 
                [
                    205940, 
                    [
                        {
                            "pitch": 72, 
                            "t0": 205940, 
                            "v": 100, 
                            "dur": 480, 
                            "type": "note", 
                            "channel": 2
                        }
                    ]
                ], 
                [
                    206420, 
                    [
                        {
                            "pitch": 76, 
                            "t0": 206420, 
                            "v": 100, 
                            "dur": 960, 
                            "type": "note", 
                            "channel": 2
                        }
                    ]
                ], 
                [
                    207380, 
                    [
                        {
                            "pitch": 74, 
                            "t0": 207380, 
                            "v": 100, 
                            "dur": 1920, 
                            "type": "note", 
                            "channel": 2
                        }
                    ]
                ], 
                [
                    209320, 
                    [
                        {
                            "pitch": 77, 
                            "t0": 209320, 
                            "v": 100, 
                            "dur": 480, 
                            "type": "note", 
                            "channel": 2
                        }
                    ]
                ], 
                [
                    209800, 
                    [
                        {
                            "pitch": 72, 
                            "t0": 209800, 
                            "v": 100, 
                            "dur": 480, 
                            "type": "note", 
                            "channel": 2
                        }
                    ]
                ], 
                [
                    210280, 
                    [
                        {
                            "pitch": 76, 
                            "t0": 210280, 
                            "v": 100, 
                            "dur": 960, 
                            "type": "note", 
                            "channel": 2
                        }
                    ]
                ], 
                [
                    211240, 
                    [
                        {
                            "pitch": 71, 
                            "t0": 211240, 
                            "v": 100, 
                            "dur": 1920, 
                            "type": "note", 
                            "channel": 2
                        }
                    ]
                ], 
                [
                    213160, 
                    [
                        {
                            "pitch": 77, 
                            "t0": 213160, 
                            "v": 100, 
                            "dur": 480, 
                            "type": "note", 
                            "channel": 2
                        }
                    ]
                ], 
                [
                    213640, 
                    [
                        {
                            "pitch": 72, 
                            "t0": 213640, 
                            "v": 100, 
                            "dur": 480, 
                            "type": "note", 
                            "channel": 2
                        }
                    ]
                ], 
                [
                    214120, 
                    [
                        {
                            "pitch": 76, 
                            "t0": 214120, 
                            "v": 100, 
                            "dur": 960, 
                            "type": "note", 
                            "channel": 2
                        }
                    ]
                ], 
                [
                    215080, 
                    [
                        {
                            "pitch": 72, 
                            "t0": 215080, 
                            "v": 100, 
                            "dur": 2880, 
                            "type": "note", 
                            "channel": 2
                        }
                    ]
                ]
            ], 
            "instruments": [
                52
            ], 
            "tMax": 215080, 
            "channels": [
                2
            ], 
            "instrument": 52, 
            "numNotes": 80, 
            "type": "TrackObj"
        }, 
        {
            "trackName": "Track-3", 
            "seq": [
                [
                    1930, 
                    [
                        {
                            "instrument": 52, 
                            "type": "programChange", 
                            "t0": 1930, 
                            "channel": 12
                        }
                    ]
                ], 
                [
                    29290, 
                    [
                        {
                            "pitch": 63, 
                            "t0": 29290, 
                            "v": 88, 
                            "dur": 480, 
                            "type": "note", 
                            "channel": 12
                        }
                    ]
                ], 
                [
                    30010, 
                    [
                        {
                            "pitch": 63, 
                            "t0": 30010, 
                            "v": 88, 
                            "dur": 480, 
                            "type": "note", 
                            "channel": 12
                        }
                    ]
                ], 
                [
                    31210, 
                    [
                        {
                            "pitch": 62, 
                            "t0": 31210, 
                            "v": 88, 
                            "dur": 480, 
                            "type": "note", 
                            "channel": 12
                        }
                    ]
                ], 
                [
                    31930, 
                    [
                        {
                            "pitch": 60, 
                            "t0": 31930, 
                            "v": 88, 
                            "dur": 240, 
                            "type": "note", 
                            "channel": 12
                        }
                    ]
                ], 
                [
                    33130, 
                    [
                        {
                            "pitch": 67, 
                            "t0": 33130, 
                            "v": 88, 
                            "dur": 480, 
                            "type": "note", 
                            "channel": 12
                        }
                    ]
                ], 
                [
                    33850, 
                    [
                        {
                            "pitch": 67, 
                            "t0": 33850, 
                            "v": 88, 
                            "dur": 480, 
                            "type": "note", 
                            "channel": 12
                        }
                    ]
                ], 
                [
                    35050, 
                    [
                        {
                            "pitch": 62, 
                            "t0": 35050, 
                            "v": 88, 
                            "dur": 480, 
                            "type": "note", 
                            "channel": 12
                        }
                    ]
                ], 
                [
                    35770, 
                    [
                        {
                            "pitch": 60, 
                            "t0": 35770, 
                            "v": 88, 
                            "dur": 240, 
                            "type": "note", 
                            "channel": 12
                        }
                    ]
                ], 
                [
                    36970, 
                    [
                        {
                            "pitch": 63, 
                            "t0": 36970, 
                            "v": 88, 
                            "dur": 480, 
                            "type": "note", 
                            "channel": 12
                        }
                    ]
                ], 
                [
                    37690, 
                    [
                        {
                            "pitch": 63, 
                            "t0": 37690, 
                            "v": 88, 
                            "dur": 480, 
                            "type": "note", 
                            "channel": 12
                        }
                    ]
                ], 
                [
                    38890, 
                    [
                        {
                            "pitch": 62, 
                            "t0": 38890, 
                            "v": 88, 
                            "dur": 480, 
                            "type": "note", 
                            "channel": 12
                        }
                    ]
                ], 
                [
                    39610, 
                    [
                        {
                            "pitch": 60, 
                            "t0": 39610, 
                            "v": 88, 
                            "dur": 240, 
                            "type": "note", 
                            "channel": 12
                        }
                    ]
                ], 
                [
                    40810, 
                    [
                        {
                            "pitch": 63, 
                            "t0": 40810, 
                            "v": 88, 
                            "dur": 480, 
                            "type": "note", 
                            "channel": 12
                        }
                    ]
                ], 
                [
                    41530, 
                    [
                        {
                            "pitch": 63, 
                            "t0": 41530, 
                            "v": 88, 
                            "dur": 480, 
                            "type": "note", 
                            "channel": 12
                        }
                    ]
                ], 
                [
                    42730, 
                    [
                        {
                            "pitch": 62, 
                            "t0": 42730, 
                            "v": 88, 
                            "dur": 480, 
                            "type": "note", 
                            "channel": 12
                        }
                    ]
                ], 
                [
                    43450, 
                    [
                        {
                            "pitch": 60, 
                            "t0": 43450, 
                            "v": 88, 
                            "dur": 240, 
                            "type": "note", 
                            "channel": 12
                        }
                    ]
                ], 
                [
                    44650, 
                    [
                        {
                            "pitch": 67, 
                            "t0": 44650, 
                            "v": 88, 
                            "dur": 480, 
                            "type": "note", 
                            "channel": 12
                        }
                    ]
                ], 
                [
                    45370, 
                    [
                        {
                            "pitch": 67, 
                            "t0": 45370, 
                            "v": 88, 
                            "dur": 480, 
                            "type": "note", 
                            "channel": 12
                        }
                    ]
                ], 
                [
                    46570, 
                    [
                        {
                            "pitch": 67, 
                            "t0": 46570, 
                            "v": 88, 
                            "dur": 480, 
                            "type": "note", 
                            "channel": 12
                        }
                    ]
                ], 
                [
                    47050, 
                    [
                        {
                            "pitch": 67, 
                            "t0": 47050, 
                            "v": 88, 
                            "dur": 960, 
                            "type": "note", 
                            "channel": 12
                        }
                    ]
                ], 
                [
                    48490, 
                    [
                        {
                            "pitch": 55, 
                            "t0": 48490, 
                            "v": 88, 
                            "dur": 1440, 
                            "type": "note", 
                            "channel": 12
                        }
                    ]
                ], 
                [
                    49930, 
                    [
                        {
                            "pitch": 53, 
                            "t0": 49930, 
                            "v": 88, 
                            "dur": 960, 
                            "type": "note", 
                            "channel": 12
                        }
                    ]
                ], 
                [
                    50890, 
                    [
                        {
                            "pitch": 52, 
                            "t0": 50890, 
                            "v": 88, 
                            "dur": 960, 
                            "type": "note", 
                            "channel": 12
                        }
                    ]
                ], 
                [
                    52330, 
                    [
                        {
                            "pitch": 55, 
                            "t0": 52330, 
                            "v": 88, 
                            "dur": 1440, 
                            "type": "note", 
                            "channel": 12
                        }
                    ]
                ], 
                [
                    53770, 
                    [
                        {
                            "pitch": 53, 
                            "t0": 53770, 
                            "v": 88, 
                            "dur": 960, 
                            "type": "note", 
                            "channel": 12
                        }
                    ]
                ], 
                [
                    54730, 
                    [
                        {
                            "pitch": 52, 
                            "t0": 54730, 
                            "v": 88, 
                            "dur": 960, 
                            "type": "note", 
                            "channel": 12
                        }
                    ]
                ], 
                [
                    56170, 
                    [
                        {
                            "pitch": 55, 
                            "t0": 56170, 
                            "v": 88, 
                            "dur": 1440, 
                            "type": "note", 
                            "channel": 12
                        }
                    ]
                ], 
                [
                    57610, 
                    [
                        {
                            "pitch": 53, 
                            "t0": 57610, 
                            "v": 88, 
                            "dur": 960, 
                            "type": "note", 
                            "channel": 12
                        }
                    ]
                ], 
                [
                    58570, 
                    [
                        {
                            "pitch": 52, 
                            "t0": 58570, 
                            "v": 88, 
                            "dur": 960, 
                            "type": "note", 
                            "channel": 12
                        }
                    ]
                ], 
                [
                    60010, 
                    [
                        {
                            "pitch": 55, 
                            "t0": 60010, 
                            "v": 88, 
                            "dur": 1440, 
                            "type": "note", 
                            "channel": 12
                        }
                    ]
                ], 
                [
                    61450, 
                    [
                        {
                            "pitch": 53, 
                            "t0": 61450, 
                            "v": 88, 
                            "dur": 960, 
                            "type": "note", 
                            "channel": 12
                        }
                    ]
                ], 
                [
                    62410, 
                    [
                        {
                            "pitch": 52, 
                            "t0": 62410, 
                            "v": 88, 
                            "dur": 960, 
                            "type": "note", 
                            "channel": 12
                        }
                    ]
                ], 
                [
                    79210, 
                    [
                        {
                            "pitch": 63, 
                            "t0": 79210, 
                            "v": 88, 
                            "dur": 480, 
                            "type": "note", 
                            "channel": 12
                        }
                    ]
                ], 
                [
                    79930, 
                    [
                        {
                            "pitch": 63, 
                            "t0": 79930, 
                            "v": 88, 
                            "dur": 480, 
                            "type": "note", 
                            "channel": 12
                        }
                    ]
                ], 
                [
                    81130, 
                    [
                        {
                            "pitch": 62, 
                            "t0": 81130, 
                            "v": 88, 
                            "dur": 480, 
                            "type": "note", 
                            "channel": 12
                        }
                    ]
                ], 
                [
                    81850, 
                    [
                        {
                            "pitch": 60, 
                            "t0": 81850, 
                            "v": 88, 
                            "dur": 240, 
                            "type": "note", 
                            "channel": 12
                        }
                    ]
                ], 
                [
                    83050, 
                    [
                        {
                            "pitch": 63, 
                            "t0": 83050, 
                            "v": 88, 
                            "dur": 480, 
                            "type": "note", 
                            "channel": 12
                        }
                    ]
                ], 
                [
                    83770, 
                    [
                        {
                            "pitch": 63, 
                            "t0": 83770, 
                            "v": 88, 
                            "dur": 480, 
                            "type": "note", 
                            "channel": 12
                        }
                    ]
                ], 
                [
                    84970, 
                    [
                        {
                            "pitch": 62, 
                            "t0": 84970, 
                            "v": 88, 
                            "dur": 480, 
                            "type": "note", 
                            "channel": 12
                        }
                    ]
                ], 
                [
                    85690, 
                    [
                        {
                            "pitch": 60, 
                            "t0": 85690, 
                            "v": 88, 
                            "dur": 240, 
                            "type": "note", 
                            "channel": 12
                        }
                    ]
                ], 
                [
                    86890, 
                    [
                        {
                            "pitch": 63, 
                            "t0": 86890, 
                            "v": 88, 
                            "dur": 480, 
                            "type": "note", 
                            "channel": 12
                        }
                    ]
                ], 
                [
                    87610, 
                    [
                        {
                            "pitch": 63, 
                            "t0": 87610, 
                            "v": 88, 
                            "dur": 480, 
                            "type": "note", 
                            "channel": 12
                        }
                    ]
                ], 
                [
                    88810, 
                    [
                        {
                            "pitch": 62, 
                            "t0": 88810, 
                            "v": 88, 
                            "dur": 480, 
                            "type": "note", 
                            "channel": 12
                        }
                    ]
                ], 
                [
                    89530, 
                    [
                        {
                            "pitch": 60, 
                            "t0": 89530, 
                            "v": 88, 
                            "dur": 240, 
                            "type": "note", 
                            "channel": 12
                        }
                    ]
                ], 
                [
                    90730, 
                    [
                        {
                            "pitch": 63, 
                            "t0": 90730, 
                            "v": 88, 
                            "dur": 480, 
                            "type": "note", 
                            "channel": 12
                        }
                    ]
                ], 
                [
                    91450, 
                    [
                        {
                            "pitch": 63, 
                            "t0": 91450, 
                            "v": 88, 
                            "dur": 480, 
                            "type": "note", 
                            "channel": 12
                        }
                    ]
                ], 
                [
                    92650, 
                    [
                        {
                            "pitch": 62, 
                            "t0": 92650, 
                            "v": 88, 
                            "dur": 480, 
                            "type": "note", 
                            "channel": 12
                        }
                    ]
                ], 
                [
                    93370, 
                    [
                        {
                            "pitch": 60, 
                            "t0": 93370, 
                            "v": 88, 
                            "dur": 240, 
                            "type": "note", 
                            "channel": 12
                        }
                    ]
                ], 
                [
                    94570, 
                    [
                        {
                            "pitch": 67, 
                            "t0": 94570, 
                            "v": 88, 
                            "dur": 480, 
                            "type": "note", 
                            "channel": 12
                        }
                    ]
                ], 
                [
                    95290, 
                    [
                        {
                            "pitch": 67, 
                            "t0": 95290, 
                            "v": 88, 
                            "dur": 480, 
                            "type": "note", 
                            "channel": 12
                        }
                    ]
                ], 
                [
                    96490, 
                    [
                        {
                            "pitch": 67, 
                            "t0": 96490, 
                            "v": 88, 
                            "dur": 480, 
                            "type": "note", 
                            "channel": 12
                        }
                    ]
                ], 
                [
                    96970, 
                    [
                        {
                            "pitch": 67, 
                            "t0": 96970, 
                            "v": 88, 
                            "dur": 960, 
                            "type": "note", 
                            "channel": 12
                        }
                    ]
                ], 
                [
                    97930, 
                    [
                        {
                            "pitch": 64, 
                            "t0": 97930, 
                            "v": 88, 
                            "dur": 1920, 
                            "type": "note", 
                            "channel": 12
                        }, 
                        {
                            "pitch": 60, 
                            "t0": 97930, 
                            "v": 88, 
                            "dur": 1920, 
                            "type": "note", 
                            "channel": 12
                        }
                    ]
                ], 
                [
                    99850, 
                    [
                        {
                            "pitch": 62, 
                            "t0": 99850, 
                            "v": 88, 
                            "dur": 1440, 
                            "type": "note", 
                            "channel": 12
                        }, 
                        {
                            "pitch": 59, 
                            "t0": 99850, 
                            "v": 88, 
                            "dur": 1440, 
                            "type": "note", 
                            "channel": 12
                        }
                    ]
                ], 
                [
                    101530, 
                    [
                        {
                            "pitch": 57, 
                            "t0": 101530, 
                            "v": 88, 
                            "dur": 1920, 
                            "type": "note", 
                            "channel": 12
                        }, 
                        {
                            "pitch": 52, 
                            "t0": 101530, 
                            "v": 88, 
                            "dur": 1920, 
                            "type": "note", 
                            "channel": 12
                        }
                    ]
                ], 
                [
                    103690, 
                    [
                        {
                            "pitch": 64, 
                            "t0": 103690, 
                            "v": 88, 
                            "dur": 960, 
                            "type": "note", 
                            "channel": 12
                        }, 
                        {
                            "pitch": 57, 
                            "t0": 103690, 
                            "v": 88, 
                            "dur": 960, 
                            "type": "note", 
                            "channel": 12
                        }, 
                        {
                            "pitch": 60, 
                            "t0": 103690, 
                            "v": 88, 
                            "dur": 960, 
                            "type": "note", 
                            "channel": 12
                        }
                    ]
                ], 
                [
                    104650, 
                    [
                        {
                            "pitch": 62, 
                            "t0": 104650, 
                            "v": 88, 
                            "dur": 960, 
                            "type": "note", 
                            "channel": 12
                        }, 
                        {
                            "pitch": 55, 
                            "t0": 104650, 
                            "v": 88, 
                            "dur": 960, 
                            "type": "note", 
                            "channel": 12
                        }, 
                        {
                            "pitch": 59, 
                            "t0": 104650, 
                            "v": 88, 
                            "dur": 960, 
                            "type": "note", 
                            "channel": 12
                        }
                    ]
                ], 
                [
                    105610, 
                    [
                        {
                            "pitch": 64, 
                            "t0": 105610, 
                            "v": 88, 
                            "dur": 1920, 
                            "type": "note", 
                            "channel": 12
                        }, 
                        {
                            "pitch": 60, 
                            "t0": 105610, 
                            "v": 88, 
                            "dur": 1920, 
                            "type": "note", 
                            "channel": 12
                        }
                    ]
                ], 
                [
                    107530, 
                    [
                        {
                            "pitch": 62, 
                            "t0": 107530, 
                            "v": 88, 
                            "dur": 1440, 
                            "type": "note", 
                            "channel": 12
                        }, 
                        {
                            "pitch": 59, 
                            "t0": 107530, 
                            "v": 88, 
                            "dur": 1440, 
                            "type": "note", 
                            "channel": 12
                        }
                    ]
                ], 
                [
                    109210, 
                    [
                        {
                            "pitch": 57, 
                            "t0": 109210, 
                            "v": 88, 
                            "dur": 1920, 
                            "type": "note", 
                            "channel": 12
                        }, 
                        {
                            "pitch": 52, 
                            "t0": 109210, 
                            "v": 88, 
                            "dur": 1920, 
                            "type": "note", 
                            "channel": 12
                        }
                    ]
                ], 
                [
                    111370, 
                    [
                        {
                            "pitch": 64, 
                            "t0": 111370, 
                            "v": 88, 
                            "dur": 960, 
                            "type": "note", 
                            "channel": 12
                        }, 
                        {
                            "pitch": 57, 
                            "t0": 111370, 
                            "v": 88, 
                            "dur": 960, 
                            "type": "note", 
                            "channel": 12
                        }, 
                        {
                            "pitch": 60, 
                            "t0": 111370, 
                            "v": 88, 
                            "dur": 960, 
                            "type": "note", 
                            "channel": 12
                        }
                    ]
                ], 
                [
                    112330, 
                    [
                        {
                            "pitch": 62, 
                            "t0": 112330, 
                            "v": 88, 
                            "dur": 960, 
                            "type": "note", 
                            "channel": 12
                        }, 
                        {
                            "pitch": 55, 
                            "t0": 112330, 
                            "v": 88, 
                            "dur": 960, 
                            "type": "note", 
                            "channel": 12
                        }, 
                        {
                            "pitch": 59, 
                            "t0": 112330, 
                            "v": 88, 
                            "dur": 960, 
                            "type": "note", 
                            "channel": 12
                        }
                    ]
                ], 
                [
                    113290, 
                    [
                        {
                            "pitch": 64, 
                            "t0": 113290, 
                            "v": 88, 
                            "dur": 1920, 
                            "type": "note", 
                            "channel": 12
                        }, 
                        {
                            "pitch": 60, 
                            "t0": 113290, 
                            "v": 88, 
                            "dur": 1920, 
                            "type": "note", 
                            "channel": 12
                        }
                    ]
                ], 
                [
                    115210, 
                    [
                        {
                            "pitch": 62, 
                            "t0": 115210, 
                            "v": 88, 
                            "dur": 1440, 
                            "type": "note", 
                            "channel": 12
                        }, 
                        {
                            "pitch": 59, 
                            "t0": 115210, 
                            "v": 88, 
                            "dur": 1440, 
                            "type": "note", 
                            "channel": 12
                        }
                    ]
                ], 
                [
                    116890, 
                    [
                        {
                            "pitch": 57, 
                            "t0": 116890, 
                            "v": 88, 
                            "dur": 1920, 
                            "type": "note", 
                            "channel": 12
                        }, 
                        {
                            "pitch": 53, 
                            "t0": 116890, 
                            "v": 88, 
                            "dur": 1920, 
                            "type": "note", 
                            "channel": 12
                        }
                    ]
                ], 
                [
                    119050, 
                    [
                        {
                            "pitch": 66, 
                            "t0": 119050, 
                            "v": 88, 
                            "dur": 2880, 
                            "type": "note", 
                            "channel": 12
                        }, 
                        {
                            "pitch": 57, 
                            "t0": 119050, 
                            "v": 88, 
                            "dur": 2880, 
                            "type": "note", 
                            "channel": 12
                        }, 
                        {
                            "pitch": 62, 
                            "t0": 119050, 
                            "v": 88, 
                            "dur": 2880, 
                            "type": "note", 
                            "channel": 12
                        }
                    ]
                ], 
                [
                    123370, 
                    [
                        {
                            "pitch": 67, 
                            "t0": 123370, 
                            "v": 88, 
                            "dur": 1440, 
                            "type": "note", 
                            "channel": 12
                        }
                    ]
                ], 
                [
                    124810, 
                    [
                        {
                            "pitch": 65, 
                            "t0": 124810, 
                            "v": 88, 
                            "dur": 960, 
                            "type": "note", 
                            "channel": 12
                        }
                    ]
                ], 
                [
                    125770, 
                    [
                        {
                            "pitch": 64, 
                            "t0": 125770, 
                            "v": 88, 
                            "dur": 960, 
                            "type": "note", 
                            "channel": 12
                        }
                    ]
                ], 
                [
                    127210, 
                    [
                        {
                            "pitch": 67, 
                            "t0": 127210, 
                            "v": 88, 
                            "dur": 1440, 
                            "type": "note", 
                            "channel": 12
                        }
                    ]
                ], 
                [
                    128650, 
                    [
                        {
                            "pitch": 65, 
                            "t0": 128650, 
                            "v": 88, 
                            "dur": 960, 
                            "type": "note", 
                            "channel": 12
                        }
                    ]
                ], 
                [
                    129610, 
                    [
                        {
                            "pitch": 64, 
                            "t0": 129610, 
                            "v": 88, 
                            "dur": 960, 
                            "type": "note", 
                            "channel": 12
                        }
                    ]
                ], 
                [
                    131050, 
                    [
                        {
                            "pitch": 67, 
                            "t0": 131050, 
                            "v": 88, 
                            "dur": 1440, 
                            "type": "note", 
                            "channel": 12
                        }
                    ]
                ], 
                [
                    132490, 
                    [
                        {
                            "pitch": 65, 
                            "t0": 132490, 
                            "v": 88, 
                            "dur": 960, 
                            "type": "note", 
                            "channel": 12
                        }
                    ]
                ], 
                [
                    133450, 
                    [
                        {
                            "pitch": 64, 
                            "t0": 133450, 
                            "v": 88, 
                            "dur": 960, 
                            "type": "note", 
                            "channel": 12
                        }
                    ]
                ], 
                [
                    134890, 
                    [
                        {
                            "pitch": 67, 
                            "t0": 134890, 
                            "v": 88, 
                            "dur": 1440, 
                            "type": "note", 
                            "channel": 12
                        }
                    ]
                ], 
                [
                    136330, 
                    [
                        {
                            "pitch": 65, 
                            "t0": 136330, 
                            "v": 88, 
                            "dur": 960, 
                            "type": "note", 
                            "channel": 12
                        }
                    ]
                ], 
                [
                    137290, 
                    [
                        {
                            "pitch": 64, 
                            "t0": 137290, 
                            "v": 88, 
                            "dur": 960, 
                            "type": "note", 
                            "channel": 12
                        }
                    ]
                ]
            ], 
            "instruments": [
                52
            ], 
            "tMax": 137290, 
            "channels": [
                12
            ], 
            "instrument": 52, 
            "numNotes": 97, 
            "type": "TrackObj"
        }, 
        {
            "trackName": "Track-12", 
            "seq": [
                [
                    1920, 
                    [
                        {
                            "instrument": 52, 
                            "type": "programChange", 
                            "t0": 1920, 
                            "channel": 8
                        }
                    ]
                ], 
                [
                    20640, 
                    [
                        {
                            "pitch": 71, 
                            "t0": 20640, 
                            "v": 84, 
                            "dur": 240, 
                            "type": "note", 
                            "channel": 8
                        }
                    ]
                ], 
                [
                    20880, 
                    [
                        {
                            "pitch": 71, 
                            "t0": 20880, 
                            "v": 84, 
                            "dur": 240, 
                            "type": "note", 
                            "channel": 8
                        }
                    ]
                ], 
                [
                    21120, 
                    [
                        {
                            "pitch": 71, 
                            "t0": 21120, 
                            "v": 84, 
                            "dur": 240, 
                            "type": "note", 
                            "channel": 8
                        }
                    ]
                ], 
                [
                    21360, 
                    [
                        {
                            "pitch": 74, 
                            "t0": 21360, 
                            "v": 84, 
                            "dur": 240, 
                            "type": "note", 
                            "channel": 8
                        }
                    ]
                ], 
                [
                    21600, 
                    [
                        {
                            "pitch": 71, 
                            "t0": 21600, 
                            "v": 84, 
                            "dur": 240, 
                            "type": "note", 
                            "channel": 8
                        }
                    ]
                ], 
                [
                    21840, 
                    [
                        {
                            "pitch": 71, 
                            "t0": 21840, 
                            "v": 84, 
                            "dur": 240, 
                            "type": "note", 
                            "channel": 8
                        }
                    ]
                ], 
                [
                    22080, 
                    [
                        {
                            "pitch": 71, 
                            "t0": 22080, 
                            "v": 84, 
                            "dur": 240, 
                            "type": "note", 
                            "channel": 8
                        }
                    ]
                ], 
                [
                    22320, 
                    [
                        {
                            "pitch": 74, 
                            "t0": 22320, 
                            "v": 84, 
                            "dur": 240, 
                            "type": "note", 
                            "channel": 8
                        }
                    ]
                ], 
                [
                    22560, 
                    [
                        {
                            "pitch": 71, 
                            "t0": 22560, 
                            "v": 84, 
                            "dur": 240, 
                            "type": "note", 
                            "channel": 8
                        }
                    ]
                ], 
                [
                    22800, 
                    [
                        {
                            "pitch": 71, 
                            "t0": 22800, 
                            "v": 84, 
                            "dur": 240, 
                            "type": "note", 
                            "channel": 8
                        }
                    ]
                ], 
                [
                    24480, 
                    [
                        {
                            "pitch": 71, 
                            "t0": 24480, 
                            "v": 84, 
                            "dur": 240, 
                            "type": "note", 
                            "channel": 8
                        }
                    ]
                ], 
                [
                    24720, 
                    [
                        {
                            "pitch": 71, 
                            "t0": 24720, 
                            "v": 84, 
                            "dur": 240, 
                            "type": "note", 
                            "channel": 8
                        }
                    ]
                ], 
                [
                    24960, 
                    [
                        {
                            "pitch": 71, 
                            "t0": 24960, 
                            "v": 84, 
                            "dur": 240, 
                            "type": "note", 
                            "channel": 8
                        }
                    ]
                ], 
                [
                    25200, 
                    [
                        {
                            "pitch": 74, 
                            "t0": 25200, 
                            "v": 84, 
                            "dur": 240, 
                            "type": "note", 
                            "channel": 8
                        }
                    ]
                ], 
                [
                    25440, 
                    [
                        {
                            "pitch": 71, 
                            "t0": 25440, 
                            "v": 84, 
                            "dur": 240, 
                            "type": "note", 
                            "channel": 8
                        }
                    ]
                ], 
                [
                    25680, 
                    [
                        {
                            "pitch": 71, 
                            "t0": 25680, 
                            "v": 84, 
                            "dur": 240, 
                            "type": "note", 
                            "channel": 8
                        }
                    ]
                ], 
                [
                    25920, 
                    [
                        {
                            "pitch": 71, 
                            "t0": 25920, 
                            "v": 84, 
                            "dur": 240, 
                            "type": "note", 
                            "channel": 8
                        }
                    ]
                ], 
                [
                    26160, 
                    [
                        {
                            "pitch": 74, 
                            "t0": 26160, 
                            "v": 84, 
                            "dur": 240, 
                            "type": "note", 
                            "channel": 8
                        }
                    ]
                ], 
                [
                    26400, 
                    [
                        {
                            "pitch": 71, 
                            "t0": 26400, 
                            "v": 84, 
                            "dur": 240, 
                            "type": "note", 
                            "channel": 8
                        }
                    ]
                ], 
                [
                    26640, 
                    [
                        {
                            "pitch": 71, 
                            "t0": 26640, 
                            "v": 84, 
                            "dur": 240, 
                            "type": "note", 
                            "channel": 8
                        }
                    ]
                ], 
                [
                    70560, 
                    [
                        {
                            "pitch": 71, 
                            "t0": 70560, 
                            "v": 84, 
                            "dur": 240, 
                            "type": "note", 
                            "channel": 8
                        }
                    ]
                ], 
                [
                    70800, 
                    [
                        {
                            "pitch": 71, 
                            "t0": 70800, 
                            "v": 84, 
                            "dur": 240, 
                            "type": "note", 
                            "channel": 8
                        }
                    ]
                ], 
                [
                    71040, 
                    [
                        {
                            "pitch": 71, 
                            "t0": 71040, 
                            "v": 84, 
                            "dur": 240, 
                            "type": "note", 
                            "channel": 8
                        }
                    ]
                ], 
                [
                    71280, 
                    [
                        {
                            "pitch": 74, 
                            "t0": 71280, 
                            "v": 84, 
                            "dur": 240, 
                            "type": "note", 
                            "channel": 8
                        }
                    ]
                ], 
                [
                    71520, 
                    [
                        {
                            "pitch": 71, 
                            "t0": 71520, 
                            "v": 84, 
                            "dur": 240, 
                            "type": "note", 
                            "channel": 8
                        }
                    ]
                ], 
                [
                    71760, 
                    [
                        {
                            "pitch": 71, 
                            "t0": 71760, 
                            "v": 84, 
                            "dur": 240, 
                            "type": "note", 
                            "channel": 8
                        }
                    ]
                ], 
                [
                    72000, 
                    [
                        {
                            "pitch": 71, 
                            "t0": 72000, 
                            "v": 84, 
                            "dur": 240, 
                            "type": "note", 
                            "channel": 8
                        }
                    ]
                ], 
                [
                    72240, 
                    [
                        {
                            "pitch": 74, 
                            "t0": 72240, 
                            "v": 84, 
                            "dur": 240, 
                            "type": "note", 
                            "channel": 8
                        }
                    ]
                ], 
                [
                    72480, 
                    [
                        {
                            "pitch": 71, 
                            "t0": 72480, 
                            "v": 84, 
                            "dur": 240, 
                            "type": "note", 
                            "channel": 8
                        }
                    ]
                ], 
                [
                    72720, 
                    [
                        {
                            "pitch": 71, 
                            "t0": 72720, 
                            "v": 84, 
                            "dur": 240, 
                            "type": "note", 
                            "channel": 8
                        }
                    ]
                ], 
                [
                    74400, 
                    [
                        {
                            "pitch": 71, 
                            "t0": 74400, 
                            "v": 84, 
                            "dur": 240, 
                            "type": "note", 
                            "channel": 8
                        }
                    ]
                ], 
                [
                    74640, 
                    [
                        {
                            "pitch": 71, 
                            "t0": 74640, 
                            "v": 84, 
                            "dur": 240, 
                            "type": "note", 
                            "channel": 8
                        }
                    ]
                ], 
                [
                    74880, 
                    [
                        {
                            "pitch": 71, 
                            "t0": 74880, 
                            "v": 84, 
                            "dur": 240, 
                            "type": "note", 
                            "channel": 8
                        }
                    ]
                ], 
                [
                    75120, 
                    [
                        {
                            "pitch": 74, 
                            "t0": 75120, 
                            "v": 84, 
                            "dur": 240, 
                            "type": "note", 
                            "channel": 8
                        }
                    ]
                ], 
                [
                    75360, 
                    [
                        {
                            "pitch": 71, 
                            "t0": 75360, 
                            "v": 84, 
                            "dur": 240, 
                            "type": "note", 
                            "channel": 8
                        }
                    ]
                ], 
                [
                    75600, 
                    [
                        {
                            "pitch": 71, 
                            "t0": 75600, 
                            "v": 84, 
                            "dur": 240, 
                            "type": "note", 
                            "channel": 8
                        }
                    ]
                ], 
                [
                    75840, 
                    [
                        {
                            "pitch": 71, 
                            "t0": 75840, 
                            "v": 84, 
                            "dur": 240, 
                            "type": "note", 
                            "channel": 8
                        }
                    ]
                ], 
                [
                    76080, 
                    [
                        {
                            "pitch": 74, 
                            "t0": 76080, 
                            "v": 84, 
                            "dur": 240, 
                            "type": "note", 
                            "channel": 8
                        }
                    ]
                ], 
                [
                    76320, 
                    [
                        {
                            "pitch": 71, 
                            "t0": 76320, 
                            "v": 84, 
                            "dur": 240, 
                            "type": "note", 
                            "channel": 8
                        }
                    ]
                ], 
                [
                    76560, 
                    [
                        {
                            "pitch": 71, 
                            "t0": 76560, 
                            "v": 84, 
                            "dur": 240, 
                            "type": "note", 
                            "channel": 8
                        }
                    ]
                ], 
                [
                    145920, 
                    [
                        {
                            "pitch": 71, 
                            "t0": 145920, 
                            "v": 84, 
                            "dur": 240, 
                            "type": "note", 
                            "channel": 8
                        }
                    ]
                ], 
                [
                    146160, 
                    [
                        {
                            "pitch": 74, 
                            "t0": 146160, 
                            "v": 84, 
                            "dur": 240, 
                            "type": "note", 
                            "channel": 8
                        }
                    ]
                ], 
                [
                    146400, 
                    [
                        {
                            "pitch": 71, 
                            "t0": 146400, 
                            "v": 84, 
                            "dur": 240, 
                            "type": "note", 
                            "channel": 8
                        }
                    ]
                ], 
                [
                    146640, 
                    [
                        {
                            "pitch": 71, 
                            "t0": 146640, 
                            "v": 84, 
                            "dur": 240, 
                            "type": "note", 
                            "channel": 8
                        }
                    ]
                ], 
                [
                    146880, 
                    [
                        {
                            "pitch": 71, 
                            "t0": 146880, 
                            "v": 84, 
                            "dur": 240, 
                            "type": "note", 
                            "channel": 8
                        }
                    ]
                ], 
                [
                    147120, 
                    [
                        {
                            "pitch": 74, 
                            "t0": 147120, 
                            "v": 84, 
                            "dur": 240, 
                            "type": "note", 
                            "channel": 8
                        }
                    ]
                ], 
                [
                    147360, 
                    [
                        {
                            "pitch": 71, 
                            "t0": 147360, 
                            "v": 84, 
                            "dur": 240, 
                            "type": "note", 
                            "channel": 8
                        }
                    ]
                ], 
                [
                    147600, 
                    [
                        {
                            "pitch": 71, 
                            "t0": 147600, 
                            "v": 84, 
                            "dur": 240, 
                            "type": "note", 
                            "channel": 8
                        }
                    ]
                ], 
                [
                    149760, 
                    [
                        {
                            "pitch": 71, 
                            "t0": 149760, 
                            "v": 84, 
                            "dur": 240, 
                            "type": "note", 
                            "channel": 8
                        }
                    ]
                ], 
                [
                    150000, 
                    [
                        {
                            "pitch": 74, 
                            "t0": 150000, 
                            "v": 84, 
                            "dur": 240, 
                            "type": "note", 
                            "channel": 8
                        }
                    ]
                ], 
                [
                    150240, 
                    [
                        {
                            "pitch": 71, 
                            "t0": 150240, 
                            "v": 84, 
                            "dur": 240, 
                            "type": "note", 
                            "channel": 8
                        }
                    ]
                ], 
                [
                    150480, 
                    [
                        {
                            "pitch": 71, 
                            "t0": 150480, 
                            "v": 84, 
                            "dur": 240, 
                            "type": "note", 
                            "channel": 8
                        }
                    ]
                ], 
                [
                    150720, 
                    [
                        {
                            "pitch": 71, 
                            "t0": 150720, 
                            "v": 84, 
                            "dur": 240, 
                            "type": "note", 
                            "channel": 8
                        }
                    ]
                ], 
                [
                    150960, 
                    [
                        {
                            "pitch": 74, 
                            "t0": 150960, 
                            "v": 84, 
                            "dur": 240, 
                            "type": "note", 
                            "channel": 8
                        }
                    ]
                ], 
                [
                    151200, 
                    [
                        {
                            "pitch": 71, 
                            "t0": 151200, 
                            "v": 84, 
                            "dur": 240, 
                            "type": "note", 
                            "channel": 8
                        }
                    ]
                ], 
                [
                    151440, 
                    [
                        {
                            "pitch": 71, 
                            "t0": 151440, 
                            "v": 84, 
                            "dur": 240, 
                            "type": "note", 
                            "channel": 8
                        }
                    ]
                ], 
                [
                    153600, 
                    [
                        {
                            "pitch": 71, 
                            "t0": 153600, 
                            "v": 84, 
                            "dur": 240, 
                            "type": "note", 
                            "channel": 8
                        }
                    ]
                ], 
                [
                    153840, 
                    [
                        {
                            "pitch": 74, 
                            "t0": 153840, 
                            "v": 84, 
                            "dur": 240, 
                            "type": "note", 
                            "channel": 8
                        }
                    ]
                ], 
                [
                    154080, 
                    [
                        {
                            "pitch": 71, 
                            "t0": 154080, 
                            "v": 84, 
                            "dur": 240, 
                            "type": "note", 
                            "channel": 8
                        }
                    ]
                ], 
                [
                    154320, 
                    [
                        {
                            "pitch": 71, 
                            "t0": 154320, 
                            "v": 84, 
                            "dur": 240, 
                            "type": "note", 
                            "channel": 8
                        }
                    ]
                ], 
                [
                    154560, 
                    [
                        {
                            "pitch": 71, 
                            "t0": 154560, 
                            "v": 84, 
                            "dur": 240, 
                            "type": "note", 
                            "channel": 8
                        }
                    ]
                ], 
                [
                    154800, 
                    [
                        {
                            "pitch": 74, 
                            "t0": 154800, 
                            "v": 84, 
                            "dur": 240, 
                            "type": "note", 
                            "channel": 8
                        }
                    ]
                ], 
                [
                    155040, 
                    [
                        {
                            "pitch": 71, 
                            "t0": 155040, 
                            "v": 84, 
                            "dur": 240, 
                            "type": "note", 
                            "channel": 8
                        }
                    ]
                ], 
                [
                    155280, 
                    [
                        {
                            "pitch": 71, 
                            "t0": 155280, 
                            "v": 84, 
                            "dur": 240, 
                            "type": "note", 
                            "channel": 8
                        }
                    ]
                ], 
                [
                    157440, 
                    [
                        {
                            "pitch": 71, 
                            "t0": 157440, 
                            "v": 84, 
                            "dur": 240, 
                            "type": "note", 
                            "channel": 8
                        }
                    ]
                ], 
                [
                    157680, 
                    [
                        {
                            "pitch": 74, 
                            "t0": 157680, 
                            "v": 84, 
                            "dur": 240, 
                            "type": "note", 
                            "channel": 8
                        }
                    ]
                ], 
                [
                    157920, 
                    [
                        {
                            "pitch": 71, 
                            "t0": 157920, 
                            "v": 84, 
                            "dur": 240, 
                            "type": "note", 
                            "channel": 8
                        }
                    ]
                ], 
                [
                    158160, 
                    [
                        {
                            "pitch": 71, 
                            "t0": 158160, 
                            "v": 84, 
                            "dur": 240, 
                            "type": "note", 
                            "channel": 8
                        }
                    ]
                ], 
                [
                    158400, 
                    [
                        {
                            "pitch": 71, 
                            "t0": 158400, 
                            "v": 84, 
                            "dur": 240, 
                            "type": "note", 
                            "channel": 8
                        }
                    ]
                ], 
                [
                    158640, 
                    [
                        {
                            "pitch": 74, 
                            "t0": 158640, 
                            "v": 84, 
                            "dur": 240, 
                            "type": "note", 
                            "channel": 8
                        }
                    ]
                ], 
                [
                    158880, 
                    [
                        {
                            "pitch": 71, 
                            "t0": 158880, 
                            "v": 84, 
                            "dur": 240, 
                            "type": "note", 
                            "channel": 8
                        }
                    ]
                ], 
                [
                    159120, 
                    [
                        {
                            "pitch": 71, 
                            "t0": 159120, 
                            "v": 84, 
                            "dur": 240, 
                            "type": "note", 
                            "channel": 8
                        }
                    ]
                ], 
                [
                    161280, 
                    [
                        {
                            "pitch": 50, 
                            "t0": 161280, 
                            "v": 84, 
                            "dur": 240, 
                            "type": "note", 
                            "channel": 8
                        }
                    ]
                ], 
                [
                    161520, 
                    [
                        {
                            "pitch": 71, 
                            "t0": 161520, 
                            "v": 84, 
                            "dur": 240, 
                            "type": "note", 
                            "channel": 8
                        }
                    ]
                ], 
                [
                    161760, 
                    [
                        {
                            "pitch": 62, 
                            "t0": 161760, 
                            "v": 84, 
                            "dur": 240, 
                            "type": "note", 
                            "channel": 8
                        }
                    ]
                ], 
                [
                    162000, 
                    [
                        {
                            "pitch": 62, 
                            "t0": 162000, 
                            "v": 84, 
                            "dur": 240, 
                            "type": "note", 
                            "channel": 8
                        }
                    ]
                ], 
                [
                    162240, 
                    [
                        {
                            "pitch": 62, 
                            "t0": 162240, 
                            "v": 84, 
                            "dur": 240, 
                            "type": "note", 
                            "channel": 8
                        }
                    ]
                ], 
                [
                    162480, 
                    [
                        {
                            "pitch": 71, 
                            "t0": 162480, 
                            "v": 84, 
                            "dur": 240, 
                            "type": "note", 
                            "channel": 8
                        }
                    ]
                ], 
                [
                    162720, 
                    [
                        {
                            "pitch": 62, 
                            "t0": 162720, 
                            "v": 84, 
                            "dur": 240, 
                            "type": "note", 
                            "channel": 8
                        }
                    ]
                ], 
                [
                    162960, 
                    [
                        {
                            "pitch": 62, 
                            "t0": 162960, 
                            "v": 84, 
                            "dur": 240, 
                            "type": "note", 
                            "channel": 8
                        }
                    ]
                ], 
                [
                    165120, 
                    [
                        {
                            "pitch": 62, 
                            "t0": 165120, 
                            "v": 84, 
                            "dur": 240, 
                            "type": "note", 
                            "channel": 8
                        }
                    ]
                ], 
                [
                    165360, 
                    [
                        {
                            "pitch": 71, 
                            "t0": 165360, 
                            "v": 84, 
                            "dur": 240, 
                            "type": "note", 
                            "channel": 8
                        }
                    ]
                ], 
                [
                    165600, 
                    [
                        {
                            "pitch": 62, 
                            "t0": 165600, 
                            "v": 84, 
                            "dur": 240, 
                            "type": "note", 
                            "channel": 8
                        }
                    ]
                ], 
                [
                    165840, 
                    [
                        {
                            "pitch": 62, 
                            "t0": 165840, 
                            "v": 84, 
                            "dur": 240, 
                            "type": "note", 
                            "channel": 8
                        }
                    ]
                ], 
                [
                    166080, 
                    [
                        {
                            "pitch": 62, 
                            "t0": 166080, 
                            "v": 84, 
                            "dur": 240, 
                            "type": "note", 
                            "channel": 8
                        }
                    ]
                ], 
                [
                    166320, 
                    [
                        {
                            "pitch": 71, 
                            "t0": 166320, 
                            "v": 84, 
                            "dur": 240, 
                            "type": "note", 
                            "channel": 8
                        }
                    ]
                ], 
                [
                    166560, 
                    [
                        {
                            "pitch": 62, 
                            "t0": 166560, 
                            "v": 84, 
                            "dur": 240, 
                            "type": "note", 
                            "channel": 8
                        }
                    ]
                ], 
                [
                    166800, 
                    [
                        {
                            "pitch": 62, 
                            "t0": 166800, 
                            "v": 84, 
                            "dur": 240, 
                            "type": "note", 
                            "channel": 8
                        }
                    ]
                ], 
                [
                    168960, 
                    [
                        {
                            "pitch": 62, 
                            "t0": 168960, 
                            "v": 84, 
                            "dur": 240, 
                            "type": "note", 
                            "channel": 8
                        }
                    ]
                ], 
                [
                    169200, 
                    [
                        {
                            "pitch": 71, 
                            "t0": 169200, 
                            "v": 84, 
                            "dur": 240, 
                            "type": "note", 
                            "channel": 8
                        }
                    ]
                ], 
                [
                    169440, 
                    [
                        {
                            "pitch": 62, 
                            "t0": 169440, 
                            "v": 84, 
                            "dur": 240, 
                            "type": "note", 
                            "channel": 8
                        }
                    ]
                ], 
                [
                    169680, 
                    [
                        {
                            "pitch": 62, 
                            "t0": 169680, 
                            "v": 84, 
                            "dur": 240, 
                            "type": "note", 
                            "channel": 8
                        }
                    ]
                ], 
                [
                    169920, 
                    [
                        {
                            "pitch": 62, 
                            "t0": 169920, 
                            "v": 84, 
                            "dur": 240, 
                            "type": "note", 
                            "channel": 8
                        }
                    ]
                ], 
                [
                    170160, 
                    [
                        {
                            "pitch": 71, 
                            "t0": 170160, 
                            "v": 84, 
                            "dur": 240, 
                            "type": "note", 
                            "channel": 8
                        }
                    ]
                ], 
                [
                    170400, 
                    [
                        {
                            "pitch": 62, 
                            "t0": 170400, 
                            "v": 84, 
                            "dur": 240, 
                            "type": "note", 
                            "channel": 8
                        }
                    ]
                ], 
                [
                    170640, 
                    [
                        {
                            "pitch": 62, 
                            "t0": 170640, 
                            "v": 84, 
                            "dur": 240, 
                            "type": "note", 
                            "channel": 8
                        }
                    ]
                ], 
                [
                    172800, 
                    [
                        {
                            "pitch": 71, 
                            "t0": 172800, 
                            "v": 84, 
                            "dur": 240, 
                            "type": "note", 
                            "channel": 8
                        }
                    ]
                ], 
                [
                    173040, 
                    [
                        {
                            "pitch": 74, 
                            "t0": 173040, 
                            "v": 84, 
                            "dur": 240, 
                            "type": "note", 
                            "channel": 8
                        }
                    ]
                ], 
                [
                    173280, 
                    [
                        {
                            "pitch": 71, 
                            "t0": 173280, 
                            "v": 84, 
                            "dur": 240, 
                            "type": "note", 
                            "channel": 8
                        }
                    ]
                ], 
                [
                    173520, 
                    [
                        {
                            "pitch": 71, 
                            "t0": 173520, 
                            "v": 84, 
                            "dur": 240, 
                            "type": "note", 
                            "channel": 8
                        }
                    ]
                ], 
                [
                    173760, 
                    [
                        {
                            "pitch": 71, 
                            "t0": 173760, 
                            "v": 84, 
                            "dur": 240, 
                            "type": "note", 
                            "channel": 8
                        }
                    ]
                ], 
                [
                    174000, 
                    [
                        {
                            "pitch": 74, 
                            "t0": 174000, 
                            "v": 84, 
                            "dur": 240, 
                            "type": "note", 
                            "channel": 8
                        }
                    ]
                ], 
                [
                    174240, 
                    [
                        {
                            "pitch": 71, 
                            "t0": 174240, 
                            "v": 84, 
                            "dur": 240, 
                            "type": "note", 
                            "channel": 8
                        }
                    ]
                ], 
                [
                    174480, 
                    [
                        {
                            "pitch": 71, 
                            "t0": 174480, 
                            "v": 84, 
                            "dur": 240, 
                            "type": "note", 
                            "channel": 8
                        }
                    ]
                ], 
                [
                    176640, 
                    [
                        {
                            "pitch": 71, 
                            "t0": 176640, 
                            "v": 84, 
                            "dur": 240, 
                            "type": "note", 
                            "channel": 8
                        }
                    ]
                ], 
                [
                    176880, 
                    [
                        {
                            "pitch": 74, 
                            "t0": 176880, 
                            "v": 84, 
                            "dur": 240, 
                            "type": "note", 
                            "channel": 8
                        }
                    ]
                ], 
                [
                    177120, 
                    [
                        {
                            "pitch": 71, 
                            "t0": 177120, 
                            "v": 84, 
                            "dur": 240, 
                            "type": "note", 
                            "channel": 8
                        }
                    ]
                ], 
                [
                    177360, 
                    [
                        {
                            "pitch": 71, 
                            "t0": 177360, 
                            "v": 84, 
                            "dur": 240, 
                            "type": "note", 
                            "channel": 8
                        }
                    ]
                ], 
                [
                    177600, 
                    [
                        {
                            "pitch": 71, 
                            "t0": 177600, 
                            "v": 84, 
                            "dur": 240, 
                            "type": "note", 
                            "channel": 8
                        }
                    ]
                ], 
                [
                    177840, 
                    [
                        {
                            "pitch": 74, 
                            "t0": 177840, 
                            "v": 84, 
                            "dur": 240, 
                            "type": "note", 
                            "channel": 8
                        }
                    ]
                ], 
                [
                    178080, 
                    [
                        {
                            "pitch": 71, 
                            "t0": 178080, 
                            "v": 84, 
                            "dur": 240, 
                            "type": "note", 
                            "channel": 8
                        }
                    ]
                ], 
                [
                    178320, 
                    [
                        {
                            "pitch": 71, 
                            "t0": 178320, 
                            "v": 84, 
                            "dur": 240, 
                            "type": "note", 
                            "channel": 8
                        }
                    ]
                ], 
                [
                    180480, 
                    [
                        {
                            "pitch": 71, 
                            "t0": 180480, 
                            "v": 84, 
                            "dur": 240, 
                            "type": "note", 
                            "channel": 8
                        }
                    ]
                ], 
                [
                    180720, 
                    [
                        {
                            "pitch": 74, 
                            "t0": 180720, 
                            "v": 84, 
                            "dur": 240, 
                            "type": "note", 
                            "channel": 8
                        }
                    ]
                ], 
                [
                    180960, 
                    [
                        {
                            "pitch": 71, 
                            "t0": 180960, 
                            "v": 84, 
                            "dur": 240, 
                            "type": "note", 
                            "channel": 8
                        }
                    ]
                ], 
                [
                    181200, 
                    [
                        {
                            "pitch": 71, 
                            "t0": 181200, 
                            "v": 84, 
                            "dur": 240, 
                            "type": "note", 
                            "channel": 8
                        }
                    ]
                ], 
                [
                    181440, 
                    [
                        {
                            "pitch": 71, 
                            "t0": 181440, 
                            "v": 84, 
                            "dur": 240, 
                            "type": "note", 
                            "channel": 8
                        }
                    ]
                ], 
                [
                    181680, 
                    [
                        {
                            "pitch": 74, 
                            "t0": 181680, 
                            "v": 84, 
                            "dur": 240, 
                            "type": "note", 
                            "channel": 8
                        }
                    ]
                ], 
                [
                    181920, 
                    [
                        {
                            "pitch": 71, 
                            "t0": 181920, 
                            "v": 84, 
                            "dur": 240, 
                            "type": "note", 
                            "channel": 8
                        }
                    ]
                ], 
                [
                    182160, 
                    [
                        {
                            "pitch": 71, 
                            "t0": 182160, 
                            "v": 84, 
                            "dur": 240, 
                            "type": "note", 
                            "channel": 8
                        }
                    ]
                ], 
                [
                    184320, 
                    [
                        {
                            "pitch": 71, 
                            "t0": 184320, 
                            "v": 84, 
                            "dur": 240, 
                            "type": "note", 
                            "channel": 8
                        }
                    ]
                ], 
                [
                    184560, 
                    [
                        {
                            "pitch": 74, 
                            "t0": 184560, 
                            "v": 84, 
                            "dur": 240, 
                            "type": "note", 
                            "channel": 8
                        }
                    ]
                ], 
                [
                    184800, 
                    [
                        {
                            "pitch": 71, 
                            "t0": 184800, 
                            "v": 84, 
                            "dur": 240, 
                            "type": "note", 
                            "channel": 8
                        }
                    ]
                ], 
                [
                    185040, 
                    [
                        {
                            "pitch": 71, 
                            "t0": 185040, 
                            "v": 84, 
                            "dur": 240, 
                            "type": "note", 
                            "channel": 8
                        }
                    ]
                ], 
                [
                    185280, 
                    [
                        {
                            "pitch": 71, 
                            "t0": 185280, 
                            "v": 84, 
                            "dur": 240, 
                            "type": "note", 
                            "channel": 8
                        }
                    ]
                ], 
                [
                    185520, 
                    [
                        {
                            "pitch": 74, 
                            "t0": 185520, 
                            "v": 84, 
                            "dur": 240, 
                            "type": "note", 
                            "channel": 8
                        }
                    ]
                ], 
                [
                    185760, 
                    [
                        {
                            "pitch": 71, 
                            "t0": 185760, 
                            "v": 84, 
                            "dur": 240, 
                            "type": "note", 
                            "channel": 8
                        }
                    ]
                ], 
                [
                    186000, 
                    [
                        {
                            "pitch": 71, 
                            "t0": 186000, 
                            "v": 84, 
                            "dur": 240, 
                            "type": "note", 
                            "channel": 8
                        }
                    ]
                ]
            ], 
            "instruments": [
                52
            ], 
            "tMax": 186000, 
            "channels": [
                8
            ], 
            "instrument": 52, 
            "numNotes": 128, 
            "type": "TrackObj"
        }, 
        {
            "trackName": "Track-6", 
            "seq": [
                [
                    1920, 
                    [
                        {
                            "instrument": 46, 
                            "type": "programChange", 
                            "t0": 1920, 
                            "channel": 4
                        }
                    ]
                ], 
                [
                    28920, 
                    [
                        {
                            "pitch": 60, 
                            "t0": 28920, 
                            "v": 64, 
                            "dur": 120, 
                            "type": "note", 
                            "channel": 4
                        }
                    ]
                ], 
                [
                    29040, 
                    [
                        {
                            "pitch": 63, 
                            "t0": 29040, 
                            "v": 64, 
                            "dur": 120, 
                            "type": "note", 
                            "channel": 4
                        }
                    ]
                ], 
                [
                    29160, 
                    [
                        {
                            "pitch": 67, 
                            "t0": 29160, 
                            "v": 64, 
                            "dur": 120, 
                            "type": "note", 
                            "channel": 4
                        }
                    ]
                ], 
                [
                    29400, 
                    [
                        {
                            "pitch": 72, 
                            "t0": 29400, 
                            "v": 64, 
                            "dur": 120, 
                            "type": "note", 
                            "channel": 4
                        }
                    ]
                ], 
                [
                    29520, 
                    [
                        {
                            "pitch": 75, 
                            "t0": 29520, 
                            "v": 64, 
                            "dur": 120, 
                            "type": "note", 
                            "channel": 4
                        }
                    ]
                ], 
                [
                    29640, 
                    [
                        {
                            "pitch": 79, 
                            "t0": 29640, 
                            "v": 64, 
                            "dur": 120, 
                            "type": "note", 
                            "channel": 4
                        }
                    ]
                ], 
                [
                    29880, 
                    [
                        {
                            "pitch": 75, 
                            "t0": 29880, 
                            "v": 64, 
                            "dur": 120, 
                            "type": "note", 
                            "channel": 4
                        }
                    ]
                ], 
                [
                    30000, 
                    [
                        {
                            "pitch": 72, 
                            "t0": 30000, 
                            "v": 64, 
                            "dur": 120, 
                            "type": "note", 
                            "channel": 4
                        }
                    ]
                ], 
                [
                    30120, 
                    [
                        {
                            "pitch": 67, 
                            "t0": 30120, 
                            "v": 64, 
                            "dur": 120, 
                            "type": "note", 
                            "channel": 4
                        }
                    ]
                ], 
                [
                    30360, 
                    [
                        {
                            "pitch": 67, 
                            "t0": 30360, 
                            "v": 64, 
                            "dur": 120, 
                            "type": "note", 
                            "channel": 4
                        }
                    ]
                ], 
                [
                    30480, 
                    [
                        {
                            "pitch": 63, 
                            "t0": 30480, 
                            "v": 64, 
                            "dur": 120, 
                            "type": "note", 
                            "channel": 4
                        }
                    ]
                ], 
                [
                    30600, 
                    [
                        {
                            "pitch": 60, 
                            "t0": 30600, 
                            "v": 64, 
                            "dur": 120, 
                            "type": "note", 
                            "channel": 4
                        }
                    ]
                ], 
                [
                    30840, 
                    [
                        {
                            "pitch": 58, 
                            "t0": 30840, 
                            "v": 64, 
                            "dur": 120, 
                            "type": "note", 
                            "channel": 4
                        }
                    ]
                ], 
                [
                    30960, 
                    [
                        {
                            "pitch": 62, 
                            "t0": 30960, 
                            "v": 64, 
                            "dur": 120, 
                            "type": "note", 
                            "channel": 4
                        }
                    ]
                ], 
                [
                    31080, 
                    [
                        {
                            "pitch": 65, 
                            "t0": 31080, 
                            "v": 64, 
                            "dur": 120, 
                            "type": "note", 
                            "channel": 4
                        }
                    ]
                ], 
                [
                    31320, 
                    [
                        {
                            "pitch": 70, 
                            "t0": 31320, 
                            "v": 64, 
                            "dur": 120, 
                            "type": "note", 
                            "channel": 4
                        }
                    ]
                ], 
                [
                    31440, 
                    [
                        {
                            "pitch": 74, 
                            "t0": 31440, 
                            "v": 64, 
                            "dur": 120, 
                            "type": "note", 
                            "channel": 4
                        }
                    ]
                ], 
                [
                    31560, 
                    [
                        {
                            "pitch": 77, 
                            "t0": 31560, 
                            "v": 64, 
                            "dur": 120, 
                            "type": "note", 
                            "channel": 4
                        }
                    ]
                ], 
                [
                    31800, 
                    [
                        {
                            "pitch": 74, 
                            "t0": 31800, 
                            "v": 64, 
                            "dur": 120, 
                            "type": "note", 
                            "channel": 4
                        }
                    ]
                ], 
                [
                    31920, 
                    [
                        {
                            "pitch": 70, 
                            "t0": 31920, 
                            "v": 64, 
                            "dur": 120, 
                            "type": "note", 
                            "channel": 4
                        }
                    ]
                ], 
                [
                    32040, 
                    [
                        {
                            "pitch": 65, 
                            "t0": 32040, 
                            "v": 64, 
                            "dur": 120, 
                            "type": "note", 
                            "channel": 4
                        }
                    ]
                ], 
                [
                    32280, 
                    [
                        {
                            "pitch": 65, 
                            "t0": 32280, 
                            "v": 64, 
                            "dur": 120, 
                            "type": "note", 
                            "channel": 4
                        }
                    ]
                ], 
                [
                    32400, 
                    [
                        {
                            "pitch": 62, 
                            "t0": 32400, 
                            "v": 64, 
                            "dur": 120, 
                            "type": "note", 
                            "channel": 4
                        }
                    ]
                ], 
                [
                    32520, 
                    [
                        {
                            "pitch": 58, 
                            "t0": 32520, 
                            "v": 64, 
                            "dur": 120, 
                            "type": "note", 
                            "channel": 4
                        }
                    ]
                ], 
                [
                    32760, 
                    [
                        {
                            "pitch": 60, 
                            "t0": 32760, 
                            "v": 64, 
                            "dur": 120, 
                            "type": "note", 
                            "channel": 4
                        }
                    ]
                ], 
                [
                    32880, 
                    [
                        {
                            "pitch": 63, 
                            "t0": 32880, 
                            "v": 64, 
                            "dur": 120, 
                            "type": "note", 
                            "channel": 4
                        }
                    ]
                ], 
                [
                    33000, 
                    [
                        {
                            "pitch": 67, 
                            "t0": 33000, 
                            "v": 64, 
                            "dur": 120, 
                            "type": "note", 
                            "channel": 4
                        }
                    ]
                ], 
                [
                    33240, 
                    [
                        {
                            "pitch": 72, 
                            "t0": 33240, 
                            "v": 64, 
                            "dur": 120, 
                            "type": "note", 
                            "channel": 4
                        }
                    ]
                ], 
                [
                    33360, 
                    [
                        {
                            "pitch": 75, 
                            "t0": 33360, 
                            "v": 64, 
                            "dur": 120, 
                            "type": "note", 
                            "channel": 4
                        }
                    ]
                ], 
                [
                    33480, 
                    [
                        {
                            "pitch": 79, 
                            "t0": 33480, 
                            "v": 64, 
                            "dur": 120, 
                            "type": "note", 
                            "channel": 4
                        }
                    ]
                ], 
                [
                    33720, 
                    [
                        {
                            "pitch": 75, 
                            "t0": 33720, 
                            "v": 64, 
                            "dur": 120, 
                            "type": "note", 
                            "channel": 4
                        }
                    ]
                ], 
                [
                    33840, 
                    [
                        {
                            "pitch": 72, 
                            "t0": 33840, 
                            "v": 64, 
                            "dur": 120, 
                            "type": "note", 
                            "channel": 4
                        }
                    ]
                ], 
                [
                    33960, 
                    [
                        {
                            "pitch": 67, 
                            "t0": 33960, 
                            "v": 64, 
                            "dur": 120, 
                            "type": "note", 
                            "channel": 4
                        }
                    ]
                ], 
                [
                    34200, 
                    [
                        {
                            "pitch": 67, 
                            "t0": 34200, 
                            "v": 64, 
                            "dur": 120, 
                            "type": "note", 
                            "channel": 4
                        }
                    ]
                ], 
                [
                    34320, 
                    [
                        {
                            "pitch": 63, 
                            "t0": 34320, 
                            "v": 64, 
                            "dur": 120, 
                            "type": "note", 
                            "channel": 4
                        }
                    ]
                ], 
                [
                    34440, 
                    [
                        {
                            "pitch": 60, 
                            "t0": 34440, 
                            "v": 64, 
                            "dur": 120, 
                            "type": "note", 
                            "channel": 4
                        }
                    ]
                ], 
                [
                    34680, 
                    [
                        {
                            "pitch": 58, 
                            "t0": 34680, 
                            "v": 64, 
                            "dur": 120, 
                            "type": "note", 
                            "channel": 4
                        }
                    ]
                ], 
                [
                    34800, 
                    [
                        {
                            "pitch": 62, 
                            "t0": 34800, 
                            "v": 64, 
                            "dur": 120, 
                            "type": "note", 
                            "channel": 4
                        }
                    ]
                ], 
                [
                    34920, 
                    [
                        {
                            "pitch": 65, 
                            "t0": 34920, 
                            "v": 64, 
                            "dur": 120, 
                            "type": "note", 
                            "channel": 4
                        }
                    ]
                ], 
                [
                    35160, 
                    [
                        {
                            "pitch": 70, 
                            "t0": 35160, 
                            "v": 64, 
                            "dur": 120, 
                            "type": "note", 
                            "channel": 4
                        }
                    ]
                ], 
                [
                    35280, 
                    [
                        {
                            "pitch": 74, 
                            "t0": 35280, 
                            "v": 64, 
                            "dur": 120, 
                            "type": "note", 
                            "channel": 4
                        }
                    ]
                ], 
                [
                    35400, 
                    [
                        {
                            "pitch": 77, 
                            "t0": 35400, 
                            "v": 64, 
                            "dur": 120, 
                            "type": "note", 
                            "channel": 4
                        }
                    ]
                ], 
                [
                    35640, 
                    [
                        {
                            "pitch": 74, 
                            "t0": 35640, 
                            "v": 64, 
                            "dur": 120, 
                            "type": "note", 
                            "channel": 4
                        }
                    ]
                ], 
                [
                    35760, 
                    [
                        {
                            "pitch": 70, 
                            "t0": 35760, 
                            "v": 64, 
                            "dur": 120, 
                            "type": "note", 
                            "channel": 4
                        }
                    ]
                ], 
                [
                    35880, 
                    [
                        {
                            "pitch": 65, 
                            "t0": 35880, 
                            "v": 64, 
                            "dur": 120, 
                            "type": "note", 
                            "channel": 4
                        }
                    ]
                ], 
                [
                    36120, 
                    [
                        {
                            "pitch": 65, 
                            "t0": 36120, 
                            "v": 64, 
                            "dur": 120, 
                            "type": "note", 
                            "channel": 4
                        }
                    ]
                ], 
                [
                    36240, 
                    [
                        {
                            "pitch": 62, 
                            "t0": 36240, 
                            "v": 64, 
                            "dur": 120, 
                            "type": "note", 
                            "channel": 4
                        }
                    ]
                ], 
                [
                    36360, 
                    [
                        {
                            "pitch": 58, 
                            "t0": 36360, 
                            "v": 64, 
                            "dur": 120, 
                            "type": "note", 
                            "channel": 4
                        }
                    ]
                ], 
                [
                    36480, 
                    [
                        {
                            "pitch": 60, 
                            "t0": 36480, 
                            "v": 64, 
                            "dur": 120, 
                            "type": "note", 
                            "channel": 4
                        }
                    ]
                ], 
                [
                    36600, 
                    [
                        {
                            "pitch": 60, 
                            "t0": 36600, 
                            "v": 64, 
                            "dur": 120, 
                            "type": "note", 
                            "channel": 4
                        }
                    ]
                ], 
                [
                    36720, 
                    [
                        {
                            "pitch": 63, 
                            "t0": 36720, 
                            "v": 64, 
                            "dur": 120, 
                            "type": "note", 
                            "channel": 4
                        }
                    ]
                ], 
                [
                    36840, 
                    [
                        {
                            "pitch": 67, 
                            "t0": 36840, 
                            "v": 64, 
                            "dur": 120, 
                            "type": "note", 
                            "channel": 4
                        }
                    ]
                ], 
                [
                    36960, 
                    [
                        {
                            "pitch": 72, 
                            "t0": 36960, 
                            "v": 64, 
                            "dur": 120, 
                            "type": "note", 
                            "channel": 4
                        }
                    ]
                ], 
                [
                    37080, 
                    [
                        {
                            "pitch": 72, 
                            "t0": 37080, 
                            "v": 64, 
                            "dur": 120, 
                            "type": "note", 
                            "channel": 4
                        }
                    ]
                ], 
                [
                    37200, 
                    [
                        {
                            "pitch": 75, 
                            "t0": 37200, 
                            "v": 64, 
                            "dur": 120, 
                            "type": "note", 
                            "channel": 4
                        }
                    ]
                ], 
                [
                    37320, 
                    [
                        {
                            "pitch": 79, 
                            "t0": 37320, 
                            "v": 64, 
                            "dur": 120, 
                            "type": "note", 
                            "channel": 4
                        }
                    ]
                ], 
                [
                    37440, 
                    [
                        {
                            "pitch": 84, 
                            "t0": 37440, 
                            "v": 64, 
                            "dur": 120, 
                            "type": "note", 
                            "channel": 4
                        }
                    ]
                ], 
                [
                    37560, 
                    [
                        {
                            "pitch": 84, 
                            "t0": 37560, 
                            "v": 64, 
                            "dur": 120, 
                            "type": "note", 
                            "channel": 4
                        }
                    ]
                ], 
                [
                    37680, 
                    [
                        {
                            "pitch": 87, 
                            "t0": 37680, 
                            "v": 64, 
                            "dur": 120, 
                            "type": "note", 
                            "channel": 4
                        }
                    ]
                ], 
                [
                    37800, 
                    [
                        {
                            "pitch": 91, 
                            "t0": 37800, 
                            "v": 64, 
                            "dur": 120, 
                            "type": "note", 
                            "channel": 4
                        }
                    ]
                ], 
                [
                    37920, 
                    [
                        {
                            "pitch": 91, 
                            "t0": 37920, 
                            "v": 64, 
                            "dur": 120, 
                            "type": "note", 
                            "channel": 4
                        }
                    ]
                ], 
                [
                    38040, 
                    [
                        {
                            "pitch": 91, 
                            "t0": 38040, 
                            "v": 64, 
                            "dur": 120, 
                            "type": "note", 
                            "channel": 4
                        }
                    ]
                ], 
                [
                    38160, 
                    [
                        {
                            "pitch": 87, 
                            "t0": 38160, 
                            "v": 64, 
                            "dur": 120, 
                            "type": "note", 
                            "channel": 4
                        }
                    ]
                ], 
                [
                    38280, 
                    [
                        {
                            "pitch": 84, 
                            "t0": 38280, 
                            "v": 64, 
                            "dur": 120, 
                            "type": "note", 
                            "channel": 4
                        }
                    ]
                ], 
                [
                    38400, 
                    [
                        {
                            "pitch": 89, 
                            "t0": 38400, 
                            "v": 64, 
                            "dur": 120, 
                            "type": "note", 
                            "channel": 4
                        }
                    ]
                ], 
                [
                    38520, 
                    [
                        {
                            "pitch": 89, 
                            "t0": 38520, 
                            "v": 64, 
                            "dur": 120, 
                            "type": "note", 
                            "channel": 4
                        }
                    ]
                ], 
                [
                    38640, 
                    [
                        {
                            "pitch": 86, 
                            "t0": 38640, 
                            "v": 64, 
                            "dur": 120, 
                            "type": "note", 
                            "channel": 4
                        }
                    ]
                ], 
                [
                    38760, 
                    [
                        {
                            "pitch": 82, 
                            "t0": 38760, 
                            "v": 64, 
                            "dur": 120, 
                            "type": "note", 
                            "channel": 4
                        }
                    ]
                ], 
                [
                    38880, 
                    [
                        {
                            "pitch": 77, 
                            "t0": 38880, 
                            "v": 64, 
                            "dur": 120, 
                            "type": "note", 
                            "channel": 4
                        }
                    ]
                ], 
                [
                    39000, 
                    [
                        {
                            "pitch": 77, 
                            "t0": 39000, 
                            "v": 64, 
                            "dur": 120, 
                            "type": "note", 
                            "channel": 4
                        }
                    ]
                ], 
                [
                    39120, 
                    [
                        {
                            "pitch": 74, 
                            "t0": 39120, 
                            "v": 64, 
                            "dur": 120, 
                            "type": "note", 
                            "channel": 4
                        }
                    ]
                ], 
                [
                    39240, 
                    [
                        {
                            "pitch": 70, 
                            "t0": 39240, 
                            "v": 64, 
                            "dur": 120, 
                            "type": "note", 
                            "channel": 4
                        }
                    ]
                ], 
                [
                    39360, 
                    [
                        {
                            "pitch": 65, 
                            "t0": 39360, 
                            "v": 64, 
                            "dur": 120, 
                            "type": "note", 
                            "channel": 4
                        }
                    ]
                ], 
                [
                    39480, 
                    [
                        {
                            "pitch": 65, 
                            "t0": 39480, 
                            "v": 64, 
                            "dur": 120, 
                            "type": "note", 
                            "channel": 4
                        }
                    ]
                ], 
                [
                    39600, 
                    [
                        {
                            "pitch": 62, 
                            "t0": 39600, 
                            "v": 64, 
                            "dur": 120, 
                            "type": "note", 
                            "channel": 4
                        }
                    ]
                ], 
                [
                    39720, 
                    [
                        {
                            "pitch": 58, 
                            "t0": 39720, 
                            "v": 64, 
                            "dur": 120, 
                            "type": "note", 
                            "channel": 4
                        }
                    ]
                ], 
                [
                    40320, 
                    [
                        {
                            "pitch": 60, 
                            "t0": 40320, 
                            "v": 64, 
                            "dur": 120, 
                            "type": "note", 
                            "channel": 4
                        }
                    ]
                ], 
                [
                    40440, 
                    [
                        {
                            "pitch": 60, 
                            "t0": 40440, 
                            "v": 64, 
                            "dur": 120, 
                            "type": "note", 
                            "channel": 4
                        }
                    ]
                ], 
                [
                    40560, 
                    [
                        {
                            "pitch": 63, 
                            "t0": 40560, 
                            "v": 64, 
                            "dur": 120, 
                            "type": "note", 
                            "channel": 4
                        }
                    ]
                ], 
                [
                    40680, 
                    [
                        {
                            "pitch": 67, 
                            "t0": 40680, 
                            "v": 64, 
                            "dur": 120, 
                            "type": "note", 
                            "channel": 4
                        }
                    ]
                ], 
                [
                    40800, 
                    [
                        {
                            "pitch": 72, 
                            "t0": 40800, 
                            "v": 64, 
                            "dur": 120, 
                            "type": "note", 
                            "channel": 4
                        }
                    ]
                ], 
                [
                    40920, 
                    [
                        {
                            "pitch": 72, 
                            "t0": 40920, 
                            "v": 64, 
                            "dur": 120, 
                            "type": "note", 
                            "channel": 4
                        }
                    ]
                ], 
                [
                    41040, 
                    [
                        {
                            "pitch": 75, 
                            "t0": 41040, 
                            "v": 64, 
                            "dur": 120, 
                            "type": "note", 
                            "channel": 4
                        }
                    ]
                ], 
                [
                    41160, 
                    [
                        {
                            "pitch": 79, 
                            "t0": 41160, 
                            "v": 64, 
                            "dur": 120, 
                            "type": "note", 
                            "channel": 4
                        }
                    ]
                ], 
                [
                    41280, 
                    [
                        {
                            "pitch": 84, 
                            "t0": 41280, 
                            "v": 64, 
                            "dur": 120, 
                            "type": "note", 
                            "channel": 4
                        }
                    ]
                ], 
                [
                    41400, 
                    [
                        {
                            "pitch": 84, 
                            "t0": 41400, 
                            "v": 64, 
                            "dur": 120, 
                            "type": "note", 
                            "channel": 4
                        }
                    ]
                ], 
                [
                    41520, 
                    [
                        {
                            "pitch": 87, 
                            "t0": 41520, 
                            "v": 64, 
                            "dur": 120, 
                            "type": "note", 
                            "channel": 4
                        }
                    ]
                ], 
                [
                    41640, 
                    [
                        {
                            "pitch": 91, 
                            "t0": 41640, 
                            "v": 64, 
                            "dur": 120, 
                            "type": "note", 
                            "channel": 4
                        }
                    ]
                ], 
                [
                    41760, 
                    [
                        {
                            "pitch": 91, 
                            "t0": 41760, 
                            "v": 64, 
                            "dur": 120, 
                            "type": "note", 
                            "channel": 4
                        }
                    ]
                ], 
                [
                    41880, 
                    [
                        {
                            "pitch": 91, 
                            "t0": 41880, 
                            "v": 64, 
                            "dur": 120, 
                            "type": "note", 
                            "channel": 4
                        }
                    ]
                ], 
                [
                    42000, 
                    [
                        {
                            "pitch": 87, 
                            "t0": 42000, 
                            "v": 64, 
                            "dur": 120, 
                            "type": "note", 
                            "channel": 4
                        }
                    ]
                ], 
                [
                    42120, 
                    [
                        {
                            "pitch": 84, 
                            "t0": 42120, 
                            "v": 64, 
                            "dur": 120, 
                            "type": "note", 
                            "channel": 4
                        }
                    ]
                ], 
                [
                    42240, 
                    [
                        {
                            "pitch": 89, 
                            "t0": 42240, 
                            "v": 64, 
                            "dur": 120, 
                            "type": "note", 
                            "channel": 4
                        }
                    ]
                ], 
                [
                    42360, 
                    [
                        {
                            "pitch": 89, 
                            "t0": 42360, 
                            "v": 64, 
                            "dur": 120, 
                            "type": "note", 
                            "channel": 4
                        }
                    ]
                ], 
                [
                    42480, 
                    [
                        {
                            "pitch": 86, 
                            "t0": 42480, 
                            "v": 64, 
                            "dur": 120, 
                            "type": "note", 
                            "channel": 4
                        }
                    ]
                ], 
                [
                    42600, 
                    [
                        {
                            "pitch": 82, 
                            "t0": 42600, 
                            "v": 64, 
                            "dur": 120, 
                            "type": "note", 
                            "channel": 4
                        }
                    ]
                ], 
                [
                    42720, 
                    [
                        {
                            "pitch": 77, 
                            "t0": 42720, 
                            "v": 64, 
                            "dur": 120, 
                            "type": "note", 
                            "channel": 4
                        }
                    ]
                ], 
                [
                    42840, 
                    [
                        {
                            "pitch": 77, 
                            "t0": 42840, 
                            "v": 64, 
                            "dur": 120, 
                            "type": "note", 
                            "channel": 4
                        }
                    ]
                ], 
                [
                    42960, 
                    [
                        {
                            "pitch": 74, 
                            "t0": 42960, 
                            "v": 64, 
                            "dur": 120, 
                            "type": "note", 
                            "channel": 4
                        }
                    ]
                ], 
                [
                    43080, 
                    [
                        {
                            "pitch": 70, 
                            "t0": 43080, 
                            "v": 64, 
                            "dur": 120, 
                            "type": "note", 
                            "channel": 4
                        }
                    ]
                ], 
                [
                    43200, 
                    [
                        {
                            "pitch": 65, 
                            "t0": 43200, 
                            "v": 64, 
                            "dur": 120, 
                            "type": "note", 
                            "channel": 4
                        }
                    ]
                ], 
                [
                    43320, 
                    [
                        {
                            "pitch": 65, 
                            "t0": 43320, 
                            "v": 64, 
                            "dur": 120, 
                            "type": "note", 
                            "channel": 4
                        }
                    ]
                ], 
                [
                    43440, 
                    [
                        {
                            "pitch": 62, 
                            "t0": 43440, 
                            "v": 64, 
                            "dur": 120, 
                            "type": "note", 
                            "channel": 4
                        }
                    ]
                ], 
                [
                    43560, 
                    [
                        {
                            "pitch": 58, 
                            "t0": 43560, 
                            "v": 64, 
                            "dur": 120, 
                            "type": "note", 
                            "channel": 4
                        }
                    ]
                ], 
                [
                    44280, 
                    [
                        {
                            "pitch": 55, 
                            "t0": 44280, 
                            "v": 64, 
                            "dur": 120, 
                            "type": "note", 
                            "channel": 4
                        }
                    ]
                ], 
                [
                    44400, 
                    [
                        {
                            "pitch": 59, 
                            "t0": 44400, 
                            "v": 64, 
                            "dur": 120, 
                            "type": "note", 
                            "channel": 4
                        }
                    ]
                ], 
                [
                    44520, 
                    [
                        {
                            "pitch": 62, 
                            "t0": 44520, 
                            "v": 64, 
                            "dur": 120, 
                            "type": "note", 
                            "channel": 4
                        }
                    ]
                ], 
                [
                    44640, 
                    [
                        {
                            "pitch": 67, 
                            "t0": 44640, 
                            "v": 64, 
                            "dur": 120, 
                            "type": "note", 
                            "channel": 4
                        }
                    ]
                ], 
                [
                    44760, 
                    [
                        {
                            "pitch": 67, 
                            "t0": 44760, 
                            "v": 64, 
                            "dur": 120, 
                            "type": "note", 
                            "channel": 4
                        }
                    ]
                ], 
                [
                    44880, 
                    [
                        {
                            "pitch": 71, 
                            "t0": 44880, 
                            "v": 64, 
                            "dur": 120, 
                            "type": "note", 
                            "channel": 4
                        }
                    ]
                ], 
                [
                    45000, 
                    [
                        {
                            "pitch": 74, 
                            "t0": 45000, 
                            "v": 64, 
                            "dur": 120, 
                            "type": "note", 
                            "channel": 4
                        }
                    ]
                ], 
                [
                    45120, 
                    [
                        {
                            "pitch": 74, 
                            "t0": 45120, 
                            "v": 64, 
                            "dur": 120, 
                            "type": "note", 
                            "channel": 4
                        }
                    ]
                ], 
                [
                    45240, 
                    [
                        {
                            "pitch": 79, 
                            "t0": 45240, 
                            "v": 64, 
                            "dur": 120, 
                            "type": "note", 
                            "channel": 4
                        }
                    ]
                ], 
                [
                    45360, 
                    [
                        {
                            "pitch": 83, 
                            "t0": 45360, 
                            "v": 64, 
                            "dur": 120, 
                            "type": "note", 
                            "channel": 4
                        }
                    ]
                ], 
                [
                    45480, 
                    [
                        {
                            "pitch": 86, 
                            "t0": 45480, 
                            "v": 64, 
                            "dur": 120, 
                            "type": "note", 
                            "channel": 4
                        }
                    ]
                ], 
                [
                    46080, 
                    [
                        {
                            "pitch": 79, 
                            "t0": 46080, 
                            "v": 64, 
                            "dur": 480, 
                            "type": "note", 
                            "channel": 4
                        }
                    ]
                ], 
                [
                    46560, 
                    [
                        {
                            "pitch": 79, 
                            "t0": 46560, 
                            "v": 64, 
                            "dur": 960, 
                            "type": "note", 
                            "channel": 4
                        }
                    ]
                ], 
                [
                    78840, 
                    [
                        {
                            "pitch": 60, 
                            "t0": 78840, 
                            "v": 64, 
                            "dur": 120, 
                            "type": "note", 
                            "channel": 4
                        }
                    ]
                ], 
                [
                    78960, 
                    [
                        {
                            "pitch": 63, 
                            "t0": 78960, 
                            "v": 64, 
                            "dur": 120, 
                            "type": "note", 
                            "channel": 4
                        }
                    ]
                ], 
                [
                    79080, 
                    [
                        {
                            "pitch": 67, 
                            "t0": 79080, 
                            "v": 64, 
                            "dur": 120, 
                            "type": "note", 
                            "channel": 4
                        }
                    ]
                ], 
                [
                    79320, 
                    [
                        {
                            "pitch": 72, 
                            "t0": 79320, 
                            "v": 64, 
                            "dur": 120, 
                            "type": "note", 
                            "channel": 4
                        }
                    ]
                ], 
                [
                    79440, 
                    [
                        {
                            "pitch": 75, 
                            "t0": 79440, 
                            "v": 64, 
                            "dur": 120, 
                            "type": "note", 
                            "channel": 4
                        }
                    ]
                ], 
                [
                    79560, 
                    [
                        {
                            "pitch": 79, 
                            "t0": 79560, 
                            "v": 64, 
                            "dur": 120, 
                            "type": "note", 
                            "channel": 4
                        }
                    ]
                ], 
                [
                    79800, 
                    [
                        {
                            "pitch": 75, 
                            "t0": 79800, 
                            "v": 64, 
                            "dur": 120, 
                            "type": "note", 
                            "channel": 4
                        }
                    ]
                ], 
                [
                    79920, 
                    [
                        {
                            "pitch": 72, 
                            "t0": 79920, 
                            "v": 64, 
                            "dur": 120, 
                            "type": "note", 
                            "channel": 4
                        }
                    ]
                ], 
                [
                    80040, 
                    [
                        {
                            "pitch": 67, 
                            "t0": 80040, 
                            "v": 64, 
                            "dur": 120, 
                            "type": "note", 
                            "channel": 4
                        }
                    ]
                ], 
                [
                    80280, 
                    [
                        {
                            "pitch": 67, 
                            "t0": 80280, 
                            "v": 64, 
                            "dur": 120, 
                            "type": "note", 
                            "channel": 4
                        }
                    ]
                ], 
                [
                    80400, 
                    [
                        {
                            "pitch": 63, 
                            "t0": 80400, 
                            "v": 64, 
                            "dur": 120, 
                            "type": "note", 
                            "channel": 4
                        }
                    ]
                ], 
                [
                    80520, 
                    [
                        {
                            "pitch": 60, 
                            "t0": 80520, 
                            "v": 64, 
                            "dur": 120, 
                            "type": "note", 
                            "channel": 4
                        }
                    ]
                ], 
                [
                    80760, 
                    [
                        {
                            "pitch": 58, 
                            "t0": 80760, 
                            "v": 64, 
                            "dur": 120, 
                            "type": "note", 
                            "channel": 4
                        }
                    ]
                ], 
                [
                    80880, 
                    [
                        {
                            "pitch": 62, 
                            "t0": 80880, 
                            "v": 64, 
                            "dur": 120, 
                            "type": "note", 
                            "channel": 4
                        }
                    ]
                ], 
                [
                    81000, 
                    [
                        {
                            "pitch": 65, 
                            "t0": 81000, 
                            "v": 64, 
                            "dur": 120, 
                            "type": "note", 
                            "channel": 4
                        }
                    ]
                ], 
                [
                    81240, 
                    [
                        {
                            "pitch": 70, 
                            "t0": 81240, 
                            "v": 64, 
                            "dur": 120, 
                            "type": "note", 
                            "channel": 4
                        }
                    ]
                ], 
                [
                    81360, 
                    [
                        {
                            "pitch": 74, 
                            "t0": 81360, 
                            "v": 64, 
                            "dur": 120, 
                            "type": "note", 
                            "channel": 4
                        }
                    ]
                ], 
                [
                    81480, 
                    [
                        {
                            "pitch": 77, 
                            "t0": 81480, 
                            "v": 64, 
                            "dur": 120, 
                            "type": "note", 
                            "channel": 4
                        }
                    ]
                ], 
                [
                    81720, 
                    [
                        {
                            "pitch": 74, 
                            "t0": 81720, 
                            "v": 64, 
                            "dur": 120, 
                            "type": "note", 
                            "channel": 4
                        }
                    ]
                ], 
                [
                    81840, 
                    [
                        {
                            "pitch": 70, 
                            "t0": 81840, 
                            "v": 64, 
                            "dur": 120, 
                            "type": "note", 
                            "channel": 4
                        }
                    ]
                ], 
                [
                    81960, 
                    [
                        {
                            "pitch": 65, 
                            "t0": 81960, 
                            "v": 64, 
                            "dur": 120, 
                            "type": "note", 
                            "channel": 4
                        }
                    ]
                ], 
                [
                    82200, 
                    [
                        {
                            "pitch": 65, 
                            "t0": 82200, 
                            "v": 64, 
                            "dur": 120, 
                            "type": "note", 
                            "channel": 4
                        }
                    ]
                ], 
                [
                    82320, 
                    [
                        {
                            "pitch": 62, 
                            "t0": 82320, 
                            "v": 64, 
                            "dur": 120, 
                            "type": "note", 
                            "channel": 4
                        }
                    ]
                ], 
                [
                    82440, 
                    [
                        {
                            "pitch": 58, 
                            "t0": 82440, 
                            "v": 64, 
                            "dur": 120, 
                            "type": "note", 
                            "channel": 4
                        }
                    ]
                ], 
                [
                    82680, 
                    [
                        {
                            "pitch": 60, 
                            "t0": 82680, 
                            "v": 64, 
                            "dur": 120, 
                            "type": "note", 
                            "channel": 4
                        }
                    ]
                ], 
                [
                    82800, 
                    [
                        {
                            "pitch": 63, 
                            "t0": 82800, 
                            "v": 64, 
                            "dur": 120, 
                            "type": "note", 
                            "channel": 4
                        }
                    ]
                ], 
                [
                    82920, 
                    [
                        {
                            "pitch": 67, 
                            "t0": 82920, 
                            "v": 64, 
                            "dur": 120, 
                            "type": "note", 
                            "channel": 4
                        }
                    ]
                ], 
                [
                    83160, 
                    [
                        {
                            "pitch": 72, 
                            "t0": 83160, 
                            "v": 64, 
                            "dur": 120, 
                            "type": "note", 
                            "channel": 4
                        }
                    ]
                ], 
                [
                    83280, 
                    [
                        {
                            "pitch": 75, 
                            "t0": 83280, 
                            "v": 64, 
                            "dur": 120, 
                            "type": "note", 
                            "channel": 4
                        }
                    ]
                ], 
                [
                    83400, 
                    [
                        {
                            "pitch": 79, 
                            "t0": 83400, 
                            "v": 64, 
                            "dur": 120, 
                            "type": "note", 
                            "channel": 4
                        }
                    ]
                ], 
                [
                    83640, 
                    [
                        {
                            "pitch": 75, 
                            "t0": 83640, 
                            "v": 64, 
                            "dur": 120, 
                            "type": "note", 
                            "channel": 4
                        }
                    ]
                ], 
                [
                    83760, 
                    [
                        {
                            "pitch": 72, 
                            "t0": 83760, 
                            "v": 64, 
                            "dur": 120, 
                            "type": "note", 
                            "channel": 4
                        }
                    ]
                ], 
                [
                    83880, 
                    [
                        {
                            "pitch": 67, 
                            "t0": 83880, 
                            "v": 64, 
                            "dur": 120, 
                            "type": "note", 
                            "channel": 4
                        }
                    ]
                ], 
                [
                    84120, 
                    [
                        {
                            "pitch": 67, 
                            "t0": 84120, 
                            "v": 64, 
                            "dur": 120, 
                            "type": "note", 
                            "channel": 4
                        }
                    ]
                ], 
                [
                    84240, 
                    [
                        {
                            "pitch": 63, 
                            "t0": 84240, 
                            "v": 64, 
                            "dur": 120, 
                            "type": "note", 
                            "channel": 4
                        }
                    ]
                ], 
                [
                    84360, 
                    [
                        {
                            "pitch": 60, 
                            "t0": 84360, 
                            "v": 64, 
                            "dur": 120, 
                            "type": "note", 
                            "channel": 4
                        }
                    ]
                ], 
                [
                    84600, 
                    [
                        {
                            "pitch": 58, 
                            "t0": 84600, 
                            "v": 64, 
                            "dur": 120, 
                            "type": "note", 
                            "channel": 4
                        }
                    ]
                ], 
                [
                    84720, 
                    [
                        {
                            "pitch": 62, 
                            "t0": 84720, 
                            "v": 64, 
                            "dur": 120, 
                            "type": "note", 
                            "channel": 4
                        }
                    ]
                ], 
                [
                    84840, 
                    [
                        {
                            "pitch": 65, 
                            "t0": 84840, 
                            "v": 64, 
                            "dur": 120, 
                            "type": "note", 
                            "channel": 4
                        }
                    ]
                ], 
                [
                    85080, 
                    [
                        {
                            "pitch": 70, 
                            "t0": 85080, 
                            "v": 64, 
                            "dur": 120, 
                            "type": "note", 
                            "channel": 4
                        }
                    ]
                ], 
                [
                    85200, 
                    [
                        {
                            "pitch": 74, 
                            "t0": 85200, 
                            "v": 64, 
                            "dur": 120, 
                            "type": "note", 
                            "channel": 4
                        }
                    ]
                ], 
                [
                    85320, 
                    [
                        {
                            "pitch": 77, 
                            "t0": 85320, 
                            "v": 64, 
                            "dur": 120, 
                            "type": "note", 
                            "channel": 4
                        }
                    ]
                ], 
                [
                    85560, 
                    [
                        {
                            "pitch": 74, 
                            "t0": 85560, 
                            "v": 64, 
                            "dur": 120, 
                            "type": "note", 
                            "channel": 4
                        }
                    ]
                ], 
                [
                    85680, 
                    [
                        {
                            "pitch": 70, 
                            "t0": 85680, 
                            "v": 64, 
                            "dur": 120, 
                            "type": "note", 
                            "channel": 4
                        }
                    ]
                ], 
                [
                    85800, 
                    [
                        {
                            "pitch": 65, 
                            "t0": 85800, 
                            "v": 64, 
                            "dur": 120, 
                            "type": "note", 
                            "channel": 4
                        }
                    ]
                ], 
                [
                    86040, 
                    [
                        {
                            "pitch": 65, 
                            "t0": 86040, 
                            "v": 64, 
                            "dur": 120, 
                            "type": "note", 
                            "channel": 4
                        }
                    ]
                ], 
                [
                    86160, 
                    [
                        {
                            "pitch": 62, 
                            "t0": 86160, 
                            "v": 64, 
                            "dur": 120, 
                            "type": "note", 
                            "channel": 4
                        }
                    ]
                ], 
                [
                    86280, 
                    [
                        {
                            "pitch": 58, 
                            "t0": 86280, 
                            "v": 64, 
                            "dur": 120, 
                            "type": "note", 
                            "channel": 4
                        }
                    ]
                ], 
                [
                    86400, 
                    [
                        {
                            "pitch": 60, 
                            "t0": 86400, 
                            "v": 64, 
                            "dur": 120, 
                            "type": "note", 
                            "channel": 4
                        }
                    ]
                ], 
                [
                    86520, 
                    [
                        {
                            "pitch": 60, 
                            "t0": 86520, 
                            "v": 64, 
                            "dur": 120, 
                            "type": "note", 
                            "channel": 4
                        }
                    ]
                ], 
                [
                    86640, 
                    [
                        {
                            "pitch": 63, 
                            "t0": 86640, 
                            "v": 64, 
                            "dur": 120, 
                            "type": "note", 
                            "channel": 4
                        }
                    ]
                ], 
                [
                    86760, 
                    [
                        {
                            "pitch": 67, 
                            "t0": 86760, 
                            "v": 64, 
                            "dur": 120, 
                            "type": "note", 
                            "channel": 4
                        }
                    ]
                ], 
                [
                    86880, 
                    [
                        {
                            "pitch": 72, 
                            "t0": 86880, 
                            "v": 64, 
                            "dur": 120, 
                            "type": "note", 
                            "channel": 4
                        }
                    ]
                ], 
                [
                    87000, 
                    [
                        {
                            "pitch": 72, 
                            "t0": 87000, 
                            "v": 64, 
                            "dur": 120, 
                            "type": "note", 
                            "channel": 4
                        }
                    ]
                ], 
                [
                    87120, 
                    [
                        {
                            "pitch": 75, 
                            "t0": 87120, 
                            "v": 64, 
                            "dur": 120, 
                            "type": "note", 
                            "channel": 4
                        }
                    ]
                ], 
                [
                    87240, 
                    [
                        {
                            "pitch": 79, 
                            "t0": 87240, 
                            "v": 64, 
                            "dur": 120, 
                            "type": "note", 
                            "channel": 4
                        }
                    ]
                ], 
                [
                    87360, 
                    [
                        {
                            "pitch": 84, 
                            "t0": 87360, 
                            "v": 64, 
                            "dur": 120, 
                            "type": "note", 
                            "channel": 4
                        }
                    ]
                ], 
                [
                    87480, 
                    [
                        {
                            "pitch": 84, 
                            "t0": 87480, 
                            "v": 64, 
                            "dur": 120, 
                            "type": "note", 
                            "channel": 4
                        }
                    ]
                ], 
                [
                    87600, 
                    [
                        {
                            "pitch": 87, 
                            "t0": 87600, 
                            "v": 64, 
                            "dur": 120, 
                            "type": "note", 
                            "channel": 4
                        }
                    ]
                ], 
                [
                    87720, 
                    [
                        {
                            "pitch": 91, 
                            "t0": 87720, 
                            "v": 64, 
                            "dur": 120, 
                            "type": "note", 
                            "channel": 4
                        }
                    ]
                ], 
                [
                    87840, 
                    [
                        {
                            "pitch": 91, 
                            "t0": 87840, 
                            "v": 64, 
                            "dur": 120, 
                            "type": "note", 
                            "channel": 4
                        }
                    ]
                ], 
                [
                    87960, 
                    [
                        {
                            "pitch": 91, 
                            "t0": 87960, 
                            "v": 64, 
                            "dur": 120, 
                            "type": "note", 
                            "channel": 4
                        }
                    ]
                ], 
                [
                    88080, 
                    [
                        {
                            "pitch": 87, 
                            "t0": 88080, 
                            "v": 64, 
                            "dur": 120, 
                            "type": "note", 
                            "channel": 4
                        }
                    ]
                ], 
                [
                    88200, 
                    [
                        {
                            "pitch": 84, 
                            "t0": 88200, 
                            "v": 64, 
                            "dur": 120, 
                            "type": "note", 
                            "channel": 4
                        }
                    ]
                ], 
                [
                    88320, 
                    [
                        {
                            "pitch": 89, 
                            "t0": 88320, 
                            "v": 64, 
                            "dur": 120, 
                            "type": "note", 
                            "channel": 4
                        }
                    ]
                ], 
                [
                    88440, 
                    [
                        {
                            "pitch": 89, 
                            "t0": 88440, 
                            "v": 64, 
                            "dur": 120, 
                            "type": "note", 
                            "channel": 4
                        }
                    ]
                ], 
                [
                    88560, 
                    [
                        {
                            "pitch": 86, 
                            "t0": 88560, 
                            "v": 64, 
                            "dur": 120, 
                            "type": "note", 
                            "channel": 4
                        }
                    ]
                ], 
                [
                    88680, 
                    [
                        {
                            "pitch": 82, 
                            "t0": 88680, 
                            "v": 64, 
                            "dur": 120, 
                            "type": "note", 
                            "channel": 4
                        }
                    ]
                ], 
                [
                    88800, 
                    [
                        {
                            "pitch": 77, 
                            "t0": 88800, 
                            "v": 64, 
                            "dur": 120, 
                            "type": "note", 
                            "channel": 4
                        }
                    ]
                ], 
                [
                    88920, 
                    [
                        {
                            "pitch": 77, 
                            "t0": 88920, 
                            "v": 64, 
                            "dur": 120, 
                            "type": "note", 
                            "channel": 4
                        }
                    ]
                ], 
                [
                    89040, 
                    [
                        {
                            "pitch": 74, 
                            "t0": 89040, 
                            "v": 64, 
                            "dur": 120, 
                            "type": "note", 
                            "channel": 4
                        }
                    ]
                ], 
                [
                    89160, 
                    [
                        {
                            "pitch": 70, 
                            "t0": 89160, 
                            "v": 64, 
                            "dur": 120, 
                            "type": "note", 
                            "channel": 4
                        }
                    ]
                ], 
                [
                    89280, 
                    [
                        {
                            "pitch": 65, 
                            "t0": 89280, 
                            "v": 64, 
                            "dur": 120, 
                            "type": "note", 
                            "channel": 4
                        }
                    ]
                ], 
                [
                    89400, 
                    [
                        {
                            "pitch": 65, 
                            "t0": 89400, 
                            "v": 64, 
                            "dur": 120, 
                            "type": "note", 
                            "channel": 4
                        }
                    ]
                ], 
                [
                    89520, 
                    [
                        {
                            "pitch": 62, 
                            "t0": 89520, 
                            "v": 64, 
                            "dur": 120, 
                            "type": "note", 
                            "channel": 4
                        }
                    ]
                ], 
                [
                    89640, 
                    [
                        {
                            "pitch": 58, 
                            "t0": 89640, 
                            "v": 64, 
                            "dur": 120, 
                            "type": "note", 
                            "channel": 4
                        }
                    ]
                ], 
                [
                    90240, 
                    [
                        {
                            "pitch": 60, 
                            "t0": 90240, 
                            "v": 64, 
                            "dur": 120, 
                            "type": "note", 
                            "channel": 4
                        }
                    ]
                ], 
                [
                    90360, 
                    [
                        {
                            "pitch": 60, 
                            "t0": 90360, 
                            "v": 64, 
                            "dur": 120, 
                            "type": "note", 
                            "channel": 4
                        }
                    ]
                ], 
                [
                    90480, 
                    [
                        {
                            "pitch": 63, 
                            "t0": 90480, 
                            "v": 64, 
                            "dur": 120, 
                            "type": "note", 
                            "channel": 4
                        }
                    ]
                ], 
                [
                    90600, 
                    [
                        {
                            "pitch": 67, 
                            "t0": 90600, 
                            "v": 64, 
                            "dur": 120, 
                            "type": "note", 
                            "channel": 4
                        }
                    ]
                ], 
                [
                    90720, 
                    [
                        {
                            "pitch": 72, 
                            "t0": 90720, 
                            "v": 64, 
                            "dur": 120, 
                            "type": "note", 
                            "channel": 4
                        }
                    ]
                ], 
                [
                    90840, 
                    [
                        {
                            "pitch": 72, 
                            "t0": 90840, 
                            "v": 64, 
                            "dur": 120, 
                            "type": "note", 
                            "channel": 4
                        }
                    ]
                ], 
                [
                    90960, 
                    [
                        {
                            "pitch": 75, 
                            "t0": 90960, 
                            "v": 64, 
                            "dur": 120, 
                            "type": "note", 
                            "channel": 4
                        }
                    ]
                ], 
                [
                    91080, 
                    [
                        {
                            "pitch": 79, 
                            "t0": 91080, 
                            "v": 64, 
                            "dur": 120, 
                            "type": "note", 
                            "channel": 4
                        }
                    ]
                ], 
                [
                    91200, 
                    [
                        {
                            "pitch": 84, 
                            "t0": 91200, 
                            "v": 64, 
                            "dur": 120, 
                            "type": "note", 
                            "channel": 4
                        }
                    ]
                ], 
                [
                    91320, 
                    [
                        {
                            "pitch": 84, 
                            "t0": 91320, 
                            "v": 64, 
                            "dur": 120, 
                            "type": "note", 
                            "channel": 4
                        }
                    ]
                ], 
                [
                    91440, 
                    [
                        {
                            "pitch": 87, 
                            "t0": 91440, 
                            "v": 64, 
                            "dur": 120, 
                            "type": "note", 
                            "channel": 4
                        }
                    ]
                ], 
                [
                    91560, 
                    [
                        {
                            "pitch": 91, 
                            "t0": 91560, 
                            "v": 64, 
                            "dur": 120, 
                            "type": "note", 
                            "channel": 4
                        }
                    ]
                ], 
                [
                    91680, 
                    [
                        {
                            "pitch": 91, 
                            "t0": 91680, 
                            "v": 64, 
                            "dur": 120, 
                            "type": "note", 
                            "channel": 4
                        }
                    ]
                ], 
                [
                    91800, 
                    [
                        {
                            "pitch": 91, 
                            "t0": 91800, 
                            "v": 64, 
                            "dur": 120, 
                            "type": "note", 
                            "channel": 4
                        }
                    ]
                ], 
                [
                    91920, 
                    [
                        {
                            "pitch": 87, 
                            "t0": 91920, 
                            "v": 64, 
                            "dur": 120, 
                            "type": "note", 
                            "channel": 4
                        }
                    ]
                ], 
                [
                    92040, 
                    [
                        {
                            "pitch": 84, 
                            "t0": 92040, 
                            "v": 64, 
                            "dur": 120, 
                            "type": "note", 
                            "channel": 4
                        }
                    ]
                ], 
                [
                    92160, 
                    [
                        {
                            "pitch": 89, 
                            "t0": 92160, 
                            "v": 64, 
                            "dur": 120, 
                            "type": "note", 
                            "channel": 4
                        }
                    ]
                ], 
                [
                    92280, 
                    [
                        {
                            "pitch": 89, 
                            "t0": 92280, 
                            "v": 64, 
                            "dur": 120, 
                            "type": "note", 
                            "channel": 4
                        }
                    ]
                ], 
                [
                    92400, 
                    [
                        {
                            "pitch": 86, 
                            "t0": 92400, 
                            "v": 64, 
                            "dur": 120, 
                            "type": "note", 
                            "channel": 4
                        }
                    ]
                ], 
                [
                    92520, 
                    [
                        {
                            "pitch": 82, 
                            "t0": 92520, 
                            "v": 64, 
                            "dur": 120, 
                            "type": "note", 
                            "channel": 4
                        }
                    ]
                ], 
                [
                    92640, 
                    [
                        {
                            "pitch": 77, 
                            "t0": 92640, 
                            "v": 64, 
                            "dur": 120, 
                            "type": "note", 
                            "channel": 4
                        }
                    ]
                ], 
                [
                    92760, 
                    [
                        {
                            "pitch": 77, 
                            "t0": 92760, 
                            "v": 64, 
                            "dur": 120, 
                            "type": "note", 
                            "channel": 4
                        }
                    ]
                ], 
                [
                    92880, 
                    [
                        {
                            "pitch": 74, 
                            "t0": 92880, 
                            "v": 64, 
                            "dur": 120, 
                            "type": "note", 
                            "channel": 4
                        }
                    ]
                ], 
                [
                    93000, 
                    [
                        {
                            "pitch": 70, 
                            "t0": 93000, 
                            "v": 64, 
                            "dur": 120, 
                            "type": "note", 
                            "channel": 4
                        }
                    ]
                ], 
                [
                    93120, 
                    [
                        {
                            "pitch": 65, 
                            "t0": 93120, 
                            "v": 64, 
                            "dur": 120, 
                            "type": "note", 
                            "channel": 4
                        }
                    ]
                ], 
                [
                    93240, 
                    [
                        {
                            "pitch": 65, 
                            "t0": 93240, 
                            "v": 64, 
                            "dur": 120, 
                            "type": "note", 
                            "channel": 4
                        }
                    ]
                ], 
                [
                    93360, 
                    [
                        {
                            "pitch": 62, 
                            "t0": 93360, 
                            "v": 64, 
                            "dur": 120, 
                            "type": "note", 
                            "channel": 4
                        }
                    ]
                ], 
                [
                    93480, 
                    [
                        {
                            "pitch": 58, 
                            "t0": 93480, 
                            "v": 64, 
                            "dur": 120, 
                            "type": "note", 
                            "channel": 4
                        }
                    ]
                ], 
                [
                    94200, 
                    [
                        {
                            "pitch": 55, 
                            "t0": 94200, 
                            "v": 64, 
                            "dur": 120, 
                            "type": "note", 
                            "channel": 4
                        }
                    ]
                ], 
                [
                    94320, 
                    [
                        {
                            "pitch": 59, 
                            "t0": 94320, 
                            "v": 64, 
                            "dur": 120, 
                            "type": "note", 
                            "channel": 4
                        }
                    ]
                ], 
                [
                    94440, 
                    [
                        {
                            "pitch": 62, 
                            "t0": 94440, 
                            "v": 64, 
                            "dur": 120, 
                            "type": "note", 
                            "channel": 4
                        }
                    ]
                ], 
                [
                    94560, 
                    [
                        {
                            "pitch": 67, 
                            "t0": 94560, 
                            "v": 64, 
                            "dur": 120, 
                            "type": "note", 
                            "channel": 4
                        }
                    ]
                ], 
                [
                    94680, 
                    [
                        {
                            "pitch": 67, 
                            "t0": 94680, 
                            "v": 64, 
                            "dur": 120, 
                            "type": "note", 
                            "channel": 4
                        }
                    ]
                ], 
                [
                    94800, 
                    [
                        {
                            "pitch": 71, 
                            "t0": 94800, 
                            "v": 64, 
                            "dur": 120, 
                            "type": "note", 
                            "channel": 4
                        }
                    ]
                ], 
                [
                    94920, 
                    [
                        {
                            "pitch": 74, 
                            "t0": 94920, 
                            "v": 64, 
                            "dur": 120, 
                            "type": "note", 
                            "channel": 4
                        }
                    ]
                ], 
                [
                    95040, 
                    [
                        {
                            "pitch": 74, 
                            "t0": 95040, 
                            "v": 64, 
                            "dur": 120, 
                            "type": "note", 
                            "channel": 4
                        }
                    ]
                ], 
                [
                    95160, 
                    [
                        {
                            "pitch": 79, 
                            "t0": 95160, 
                            "v": 64, 
                            "dur": 120, 
                            "type": "note", 
                            "channel": 4
                        }
                    ]
                ], 
                [
                    95280, 
                    [
                        {
                            "pitch": 83, 
                            "t0": 95280, 
                            "v": 64, 
                            "dur": 120, 
                            "type": "note", 
                            "channel": 4
                        }
                    ]
                ], 
                [
                    95400, 
                    [
                        {
                            "pitch": 86, 
                            "t0": 95400, 
                            "v": 64, 
                            "dur": 120, 
                            "type": "note", 
                            "channel": 4
                        }
                    ]
                ], 
                [
                    96000, 
                    [
                        {
                            "pitch": 79, 
                            "t0": 96000, 
                            "v": 64, 
                            "dur": 480, 
                            "type": "note", 
                            "channel": 4
                        }
                    ]
                ], 
                [
                    96480, 
                    [
                        {
                            "pitch": 79, 
                            "t0": 96480, 
                            "v": 64, 
                            "dur": 960, 
                            "type": "note", 
                            "channel": 4
                        }
                    ]
                ]
            ], 
            "instruments": [
                46
            ], 
            "tMax": 96480, 
            "channels": [
                4
            ], 
            "instrument": 46, 
            "numNotes": 234, 
            "type": "TrackObj"
        }, 
        {
            "trackName": "Track-7", 
            "seq": [
                [
                    1920, 
                    [
                        {
                            "instrument": 46, 
                            "type": "programChange", 
                            "t0": 1920, 
                            "channel": 5
                        }, 
                        {
                            "pitch": 55, 
                            "t0": 1920, 
                            "v": 80, 
                            "dur": 240, 
                            "type": "note", 
                            "channel": 5
                        }
                    ]
                ], 
                [
                    2160, 
                    [
                        {
                            "pitch": 55, 
                            "t0": 2160, 
                            "v": 80, 
                            "dur": 240, 
                            "type": "note", 
                            "channel": 5
                        }
                    ]
                ], 
                [
                    2400, 
                    [
                        {
                            "pitch": 55, 
                            "t0": 2400, 
                            "v": 80, 
                            "dur": 240, 
                            "type": "note", 
                            "channel": 5
                        }
                    ]
                ], 
                [
                    3120, 
                    [
                        {
                            "pitch": 55, 
                            "t0": 3120, 
                            "v": 80, 
                            "dur": 240, 
                            "type": "note", 
                            "channel": 5
                        }
                    ]
                ], 
                [
                    3360, 
                    [
                        {
                            "pitch": 55, 
                            "t0": 3360, 
                            "v": 80, 
                            "dur": 240, 
                            "type": "note", 
                            "channel": 5
                        }
                    ]
                ], 
                [
                    3600, 
                    [
                        {
                            "pitch": 55, 
                            "t0": 3600, 
                            "v": 80, 
                            "dur": 240, 
                            "type": "note", 
                            "channel": 5
                        }
                    ]
                ], 
                [
                    3840, 
                    [
                        {
                            "pitch": 53, 
                            "t0": 3840, 
                            "v": 80, 
                            "dur": 240, 
                            "type": "note", 
                            "channel": 5
                        }
                    ]
                ], 
                [
                    4080, 
                    [
                        {
                            "pitch": 53, 
                            "t0": 4080, 
                            "v": 80, 
                            "dur": 240, 
                            "type": "note", 
                            "channel": 5
                        }
                    ]
                ], 
                [
                    4320, 
                    [
                        {
                            "pitch": 53, 
                            "t0": 4320, 
                            "v": 80, 
                            "dur": 240, 
                            "type": "note", 
                            "channel": 5
                        }
                    ]
                ], 
                [
                    4560, 
                    [
                        {
                            "pitch": 48, 
                            "t0": 4560, 
                            "v": 80, 
                            "dur": 240, 
                            "type": "note", 
                            "channel": 5
                        }
                    ]
                ], 
                [
                    4800, 
                    [
                        {
                            "pitch": 48, 
                            "t0": 4800, 
                            "v": 80, 
                            "dur": 240, 
                            "type": "note", 
                            "channel": 5
                        }
                    ]
                ], 
                [
                    5040, 
                    [
                        {
                            "pitch": 48, 
                            "t0": 5040, 
                            "v": 80, 
                            "dur": 240, 
                            "type": "note", 
                            "channel": 5
                        }
                    ]
                ], 
                [
                    5520, 
                    [
                        {
                            "pitch": 50, 
                            "t0": 5520, 
                            "v": 80, 
                            "dur": 240, 
                            "type": "note", 
                            "channel": 5
                        }
                    ]
                ], 
                [
                    5760, 
                    [
                        {
                            "pitch": 55, 
                            "t0": 5760, 
                            "v": 80, 
                            "dur": 240, 
                            "type": "note", 
                            "channel": 5
                        }
                    ]
                ], 
                [
                    6000, 
                    [
                        {
                            "pitch": 55, 
                            "t0": 6000, 
                            "v": 80, 
                            "dur": 240, 
                            "type": "note", 
                            "channel": 5
                        }
                    ]
                ], 
                [
                    6240, 
                    [
                        {
                            "pitch": 55, 
                            "t0": 6240, 
                            "v": 80, 
                            "dur": 240, 
                            "type": "note", 
                            "channel": 5
                        }
                    ]
                ], 
                [
                    6960, 
                    [
                        {
                            "pitch": 55, 
                            "t0": 6960, 
                            "v": 80, 
                            "dur": 240, 
                            "type": "note", 
                            "channel": 5
                        }
                    ]
                ], 
                [
                    7200, 
                    [
                        {
                            "pitch": 55, 
                            "t0": 7200, 
                            "v": 80, 
                            "dur": 240, 
                            "type": "note", 
                            "channel": 5
                        }
                    ]
                ], 
                [
                    7440, 
                    [
                        {
                            "pitch": 55, 
                            "t0": 7440, 
                            "v": 80, 
                            "dur": 240, 
                            "type": "note", 
                            "channel": 5
                        }
                    ]
                ], 
                [
                    7680, 
                    [
                        {
                            "pitch": 53, 
                            "t0": 7680, 
                            "v": 80, 
                            "dur": 240, 
                            "type": "note", 
                            "channel": 5
                        }
                    ]
                ], 
                [
                    7920, 
                    [
                        {
                            "pitch": 53, 
                            "t0": 7920, 
                            "v": 80, 
                            "dur": 240, 
                            "type": "note", 
                            "channel": 5
                        }
                    ]
                ], 
                [
                    8160, 
                    [
                        {
                            "pitch": 53, 
                            "t0": 8160, 
                            "v": 80, 
                            "dur": 240, 
                            "type": "note", 
                            "channel": 5
                        }
                    ]
                ], 
                [
                    8400, 
                    [
                        {
                            "pitch": 48, 
                            "t0": 8400, 
                            "v": 80, 
                            "dur": 240, 
                            "type": "note", 
                            "channel": 5
                        }
                    ]
                ], 
                [
                    8640, 
                    [
                        {
                            "pitch": 48, 
                            "t0": 8640, 
                            "v": 80, 
                            "dur": 240, 
                            "type": "note", 
                            "channel": 5
                        }
                    ]
                ], 
                [
                    8880, 
                    [
                        {
                            "pitch": 48, 
                            "t0": 8880, 
                            "v": 80, 
                            "dur": 240, 
                            "type": "note", 
                            "channel": 5
                        }
                    ]
                ], 
                [
                    9360, 
                    [
                        {
                            "pitch": 50, 
                            "t0": 9360, 
                            "v": 80, 
                            "dur": 240, 
                            "type": "note", 
                            "channel": 5
                        }
                    ]
                ], 
                [
                    9600, 
                    [
                        {
                            "pitch": 55, 
                            "t0": 9600, 
                            "v": 80, 
                            "dur": 240, 
                            "type": "note", 
                            "channel": 5
                        }
                    ]
                ], 
                [
                    9840, 
                    [
                        {
                            "pitch": 55, 
                            "t0": 9840, 
                            "v": 80, 
                            "dur": 240, 
                            "type": "note", 
                            "channel": 5
                        }
                    ]
                ], 
                [
                    10080, 
                    [
                        {
                            "pitch": 55, 
                            "t0": 10080, 
                            "v": 80, 
                            "dur": 240, 
                            "type": "note", 
                            "channel": 5
                        }
                    ]
                ], 
                [
                    10800, 
                    [
                        {
                            "pitch": 55, 
                            "t0": 10800, 
                            "v": 80, 
                            "dur": 240, 
                            "type": "note", 
                            "channel": 5
                        }
                    ]
                ], 
                [
                    11040, 
                    [
                        {
                            "pitch": 55, 
                            "t0": 11040, 
                            "v": 80, 
                            "dur": 240, 
                            "type": "note", 
                            "channel": 5
                        }
                    ]
                ], 
                [
                    11280, 
                    [
                        {
                            "pitch": 55, 
                            "t0": 11280, 
                            "v": 80, 
                            "dur": 240, 
                            "type": "note", 
                            "channel": 5
                        }
                    ]
                ], 
                [
                    11520, 
                    [
                        {
                            "pitch": 53, 
                            "t0": 11520, 
                            "v": 80, 
                            "dur": 240, 
                            "type": "note", 
                            "channel": 5
                        }
                    ]
                ], 
                [
                    11760, 
                    [
                        {
                            "pitch": 53, 
                            "t0": 11760, 
                            "v": 80, 
                            "dur": 240, 
                            "type": "note", 
                            "channel": 5
                        }
                    ]
                ], 
                [
                    12000, 
                    [
                        {
                            "pitch": 53, 
                            "t0": 12000, 
                            "v": 80, 
                            "dur": 240, 
                            "type": "note", 
                            "channel": 5
                        }
                    ]
                ], 
                [
                    12240, 
                    [
                        {
                            "pitch": 48, 
                            "t0": 12240, 
                            "v": 80, 
                            "dur": 240, 
                            "type": "note", 
                            "channel": 5
                        }
                    ]
                ], 
                [
                    12480, 
                    [
                        {
                            "pitch": 48, 
                            "t0": 12480, 
                            "v": 80, 
                            "dur": 240, 
                            "type": "note", 
                            "channel": 5
                        }
                    ]
                ], 
                [
                    12720, 
                    [
                        {
                            "pitch": 48, 
                            "t0": 12720, 
                            "v": 80, 
                            "dur": 240, 
                            "type": "note", 
                            "channel": 5
                        }
                    ]
                ], 
                [
                    13440, 
                    [
                        {
                            "pitch": 55, 
                            "t0": 13440, 
                            "v": 80, 
                            "dur": 240, 
                            "type": "note", 
                            "channel": 5
                        }
                    ]
                ], 
                [
                    13680, 
                    [
                        {
                            "pitch": 55, 
                            "t0": 13680, 
                            "v": 80, 
                            "dur": 240, 
                            "type": "note", 
                            "channel": 5
                        }
                    ]
                ], 
                [
                    13920, 
                    [
                        {
                            "pitch": 55, 
                            "t0": 13920, 
                            "v": 80, 
                            "dur": 240, 
                            "type": "note", 
                            "channel": 5
                        }
                    ]
                ], 
                [
                    14640, 
                    [
                        {
                            "pitch": 55, 
                            "t0": 14640, 
                            "v": 80, 
                            "dur": 240, 
                            "type": "note", 
                            "channel": 5
                        }
                    ]
                ], 
                [
                    14880, 
                    [
                        {
                            "pitch": 55, 
                            "t0": 14880, 
                            "v": 80, 
                            "dur": 240, 
                            "type": "note", 
                            "channel": 5
                        }
                    ]
                ], 
                [
                    15120, 
                    [
                        {
                            "pitch": 55, 
                            "t0": 15120, 
                            "v": 80, 
                            "dur": 240, 
                            "type": "note", 
                            "channel": 5
                        }
                    ]
                ], 
                [
                    15360, 
                    [
                        {
                            "pitch": 53, 
                            "t0": 15360, 
                            "v": 80, 
                            "dur": 240, 
                            "type": "note", 
                            "channel": 5
                        }
                    ]
                ], 
                [
                    15600, 
                    [
                        {
                            "pitch": 53, 
                            "t0": 15600, 
                            "v": 80, 
                            "dur": 240, 
                            "type": "note", 
                            "channel": 5
                        }
                    ]
                ], 
                [
                    15840, 
                    [
                        {
                            "pitch": 53, 
                            "t0": 15840, 
                            "v": 80, 
                            "dur": 240, 
                            "type": "note", 
                            "channel": 5
                        }
                    ]
                ], 
                [
                    16080, 
                    [
                        {
                            "pitch": 48, 
                            "t0": 16080, 
                            "v": 80, 
                            "dur": 240, 
                            "type": "note", 
                            "channel": 5
                        }
                    ]
                ], 
                [
                    16320, 
                    [
                        {
                            "pitch": 48, 
                            "t0": 16320, 
                            "v": 80, 
                            "dur": 240, 
                            "type": "note", 
                            "channel": 5
                        }
                    ]
                ], 
                [
                    16560, 
                    [
                        {
                            "pitch": 48, 
                            "t0": 16560, 
                            "v": 80, 
                            "dur": 240, 
                            "type": "note", 
                            "channel": 5
                        }
                    ]
                ], 
                [
                    17040, 
                    [
                        {
                            "pitch": 50, 
                            "t0": 17040, 
                            "v": 80, 
                            "dur": 240, 
                            "type": "note", 
                            "channel": 5
                        }
                    ]
                ], 
                [
                    17280, 
                    [
                        {
                            "pitch": 55, 
                            "t0": 17280, 
                            "v": 80, 
                            "dur": 240, 
                            "type": "note", 
                            "channel": 5
                        }
                    ]
                ], 
                [
                    17520, 
                    [
                        {
                            "pitch": 55, 
                            "t0": 17520, 
                            "v": 80, 
                            "dur": 240, 
                            "type": "note", 
                            "channel": 5
                        }
                    ]
                ], 
                [
                    17760, 
                    [
                        {
                            "pitch": 55, 
                            "t0": 17760, 
                            "v": 80, 
                            "dur": 240, 
                            "type": "note", 
                            "channel": 5
                        }
                    ]
                ], 
                [
                    18480, 
                    [
                        {
                            "pitch": 55, 
                            "t0": 18480, 
                            "v": 80, 
                            "dur": 240, 
                            "type": "note", 
                            "channel": 5
                        }
                    ]
                ], 
                [
                    18720, 
                    [
                        {
                            "pitch": 55, 
                            "t0": 18720, 
                            "v": 80, 
                            "dur": 240, 
                            "type": "note", 
                            "channel": 5
                        }
                    ]
                ], 
                [
                    18960, 
                    [
                        {
                            "pitch": 55, 
                            "t0": 18960, 
                            "v": 80, 
                            "dur": 240, 
                            "type": "note", 
                            "channel": 5
                        }
                    ]
                ], 
                [
                    19200, 
                    [
                        {
                            "pitch": 53, 
                            "t0": 19200, 
                            "v": 80, 
                            "dur": 240, 
                            "type": "note", 
                            "channel": 5
                        }
                    ]
                ], 
                [
                    19440, 
                    [
                        {
                            "pitch": 53, 
                            "t0": 19440, 
                            "v": 80, 
                            "dur": 240, 
                            "type": "note", 
                            "channel": 5
                        }
                    ]
                ], 
                [
                    19680, 
                    [
                        {
                            "pitch": 53, 
                            "t0": 19680, 
                            "v": 80, 
                            "dur": 240, 
                            "type": "note", 
                            "channel": 5
                        }
                    ]
                ], 
                [
                    19920, 
                    [
                        {
                            "pitch": 48, 
                            "t0": 19920, 
                            "v": 80, 
                            "dur": 240, 
                            "type": "note", 
                            "channel": 5
                        }
                    ]
                ], 
                [
                    20160, 
                    [
                        {
                            "pitch": 48, 
                            "t0": 20160, 
                            "v": 80, 
                            "dur": 240, 
                            "type": "note", 
                            "channel": 5
                        }
                    ]
                ], 
                [
                    20400, 
                    [
                        {
                            "pitch": 48, 
                            "t0": 20400, 
                            "v": 80, 
                            "dur": 240, 
                            "type": "note", 
                            "channel": 5
                        }
                    ]
                ], 
                [
                    21120, 
                    [
                        {
                            "pitch": 55, 
                            "t0": 21120, 
                            "v": 80, 
                            "dur": 240, 
                            "type": "note", 
                            "channel": 5
                        }
                    ]
                ], 
                [
                    21360, 
                    [
                        {
                            "pitch": 55, 
                            "t0": 21360, 
                            "v": 80, 
                            "dur": 240, 
                            "type": "note", 
                            "channel": 5
                        }
                    ]
                ], 
                [
                    21600, 
                    [
                        {
                            "pitch": 55, 
                            "t0": 21600, 
                            "v": 80, 
                            "dur": 240, 
                            "type": "note", 
                            "channel": 5
                        }
                    ]
                ], 
                [
                    22320, 
                    [
                        {
                            "pitch": 55, 
                            "t0": 22320, 
                            "v": 80, 
                            "dur": 240, 
                            "type": "note", 
                            "channel": 5
                        }
                    ]
                ], 
                [
                    22560, 
                    [
                        {
                            "pitch": 55, 
                            "t0": 22560, 
                            "v": 80, 
                            "dur": 240, 
                            "type": "note", 
                            "channel": 5
                        }
                    ]
                ], 
                [
                    22800, 
                    [
                        {
                            "pitch": 55, 
                            "t0": 22800, 
                            "v": 80, 
                            "dur": 240, 
                            "type": "note", 
                            "channel": 5
                        }
                    ]
                ], 
                [
                    23040, 
                    [
                        {
                            "pitch": 53, 
                            "t0": 23040, 
                            "v": 80, 
                            "dur": 240, 
                            "type": "note", 
                            "channel": 5
                        }
                    ]
                ], 
                [
                    23280, 
                    [
                        {
                            "pitch": 53, 
                            "t0": 23280, 
                            "v": 80, 
                            "dur": 240, 
                            "type": "note", 
                            "channel": 5
                        }
                    ]
                ], 
                [
                    23520, 
                    [
                        {
                            "pitch": 53, 
                            "t0": 23520, 
                            "v": 80, 
                            "dur": 240, 
                            "type": "note", 
                            "channel": 5
                        }
                    ]
                ], 
                [
                    23760, 
                    [
                        {
                            "pitch": 48, 
                            "t0": 23760, 
                            "v": 80, 
                            "dur": 240, 
                            "type": "note", 
                            "channel": 5
                        }
                    ]
                ], 
                [
                    24000, 
                    [
                        {
                            "pitch": 48, 
                            "t0": 24000, 
                            "v": 80, 
                            "dur": 240, 
                            "type": "note", 
                            "channel": 5
                        }
                    ]
                ], 
                [
                    24240, 
                    [
                        {
                            "pitch": 48, 
                            "t0": 24240, 
                            "v": 80, 
                            "dur": 240, 
                            "type": "note", 
                            "channel": 5
                        }
                    ]
                ], 
                [
                    24720, 
                    [
                        {
                            "pitch": 50, 
                            "t0": 24720, 
                            "v": 80, 
                            "dur": 240, 
                            "type": "note", 
                            "channel": 5
                        }
                    ]
                ], 
                [
                    24960, 
                    [
                        {
                            "pitch": 55, 
                            "t0": 24960, 
                            "v": 80, 
                            "dur": 240, 
                            "type": "note", 
                            "channel": 5
                        }
                    ]
                ], 
                [
                    25200, 
                    [
                        {
                            "pitch": 55, 
                            "t0": 25200, 
                            "v": 80, 
                            "dur": 240, 
                            "type": "note", 
                            "channel": 5
                        }
                    ]
                ], 
                [
                    25440, 
                    [
                        {
                            "pitch": 55, 
                            "t0": 25440, 
                            "v": 80, 
                            "dur": 240, 
                            "type": "note", 
                            "channel": 5
                        }
                    ]
                ], 
                [
                    26160, 
                    [
                        {
                            "pitch": 55, 
                            "t0": 26160, 
                            "v": 80, 
                            "dur": 240, 
                            "type": "note", 
                            "channel": 5
                        }
                    ]
                ], 
                [
                    26400, 
                    [
                        {
                            "pitch": 55, 
                            "t0": 26400, 
                            "v": 80, 
                            "dur": 240, 
                            "type": "note", 
                            "channel": 5
                        }
                    ]
                ], 
                [
                    26640, 
                    [
                        {
                            "pitch": 55, 
                            "t0": 26640, 
                            "v": 80, 
                            "dur": 240, 
                            "type": "note", 
                            "channel": 5
                        }
                    ]
                ], 
                [
                    26880, 
                    [
                        {
                            "pitch": 53, 
                            "t0": 26880, 
                            "v": 80, 
                            "dur": 240, 
                            "type": "note", 
                            "channel": 5
                        }
                    ]
                ], 
                [
                    27120, 
                    [
                        {
                            "pitch": 53, 
                            "t0": 27120, 
                            "v": 80, 
                            "dur": 240, 
                            "type": "note", 
                            "channel": 5
                        }
                    ]
                ], 
                [
                    27360, 
                    [
                        {
                            "pitch": 53, 
                            "t0": 27360, 
                            "v": 80, 
                            "dur": 240, 
                            "type": "note", 
                            "channel": 5
                        }
                    ]
                ], 
                [
                    27600, 
                    [
                        {
                            "pitch": 48, 
                            "t0": 27600, 
                            "v": 80, 
                            "dur": 240, 
                            "type": "note", 
                            "channel": 5
                        }
                    ]
                ], 
                [
                    27840, 
                    [
                        {
                            "pitch": 48, 
                            "t0": 27840, 
                            "v": 80, 
                            "dur": 240, 
                            "type": "note", 
                            "channel": 5
                        }
                    ]
                ], 
                [
                    28080, 
                    [
                        {
                            "pitch": 48, 
                            "t0": 28080, 
                            "v": 80, 
                            "dur": 240, 
                            "type": "note", 
                            "channel": 5
                        }
                    ]
                ], 
                [
                    28800, 
                    [
                        {
                            "pitch": 48, 
                            "t0": 28800, 
                            "v": 80, 
                            "dur": 720, 
                            "type": "note", 
                            "channel": 5
                        }
                    ]
                ], 
                [
                    29520, 
                    [
                        {
                            "pitch": 48, 
                            "t0": 29520, 
                            "v": 80, 
                            "dur": 240, 
                            "type": "note", 
                            "channel": 5
                        }
                    ]
                ], 
                [
                    29760, 
                    [
                        {
                            "pitch": 48, 
                            "t0": 29760, 
                            "v": 80, 
                            "dur": 480, 
                            "type": "note", 
                            "channel": 5
                        }
                    ]
                ], 
                [
                    30240, 
                    [
                        {
                            "pitch": 48, 
                            "t0": 30240, 
                            "v": 80, 
                            "dur": 480, 
                            "type": "note", 
                            "channel": 5
                        }
                    ]
                ], 
                [
                    30720, 
                    [
                        {
                            "pitch": 46, 
                            "t0": 30720, 
                            "v": 80, 
                            "dur": 720, 
                            "type": "note", 
                            "channel": 5
                        }
                    ]
                ], 
                [
                    31440, 
                    [
                        {
                            "pitch": 46, 
                            "t0": 31440, 
                            "v": 80, 
                            "dur": 240, 
                            "type": "note", 
                            "channel": 5
                        }
                    ]
                ], 
                [
                    31680, 
                    [
                        {
                            "pitch": 41, 
                            "t0": 31680, 
                            "v": 80, 
                            "dur": 720, 
                            "type": "note", 
                            "channel": 5
                        }
                    ]
                ], 
                [
                    32400, 
                    [
                        {
                            "pitch": 43, 
                            "t0": 32400, 
                            "v": 80, 
                            "dur": 240, 
                            "type": "note", 
                            "channel": 5
                        }
                    ]
                ], 
                [
                    32640, 
                    [
                        {
                            "pitch": 48, 
                            "t0": 32640, 
                            "v": 80, 
                            "dur": 720, 
                            "type": "note", 
                            "channel": 5
                        }
                    ]
                ], 
                [
                    33360, 
                    [
                        {
                            "pitch": 48, 
                            "t0": 33360, 
                            "v": 80, 
                            "dur": 240, 
                            "type": "note", 
                            "channel": 5
                        }
                    ]
                ], 
                [
                    33600, 
                    [
                        {
                            "pitch": 48, 
                            "t0": 33600, 
                            "v": 80, 
                            "dur": 480, 
                            "type": "note", 
                            "channel": 5
                        }
                    ]
                ], 
                [
                    34080, 
                    [
                        {
                            "pitch": 48, 
                            "t0": 34080, 
                            "v": 80, 
                            "dur": 480, 
                            "type": "note", 
                            "channel": 5
                        }
                    ]
                ], 
                [
                    34560, 
                    [
                        {
                            "pitch": 46, 
                            "t0": 34560, 
                            "v": 80, 
                            "dur": 720, 
                            "type": "note", 
                            "channel": 5
                        }
                    ]
                ], 
                [
                    35280, 
                    [
                        {
                            "pitch": 46, 
                            "t0": 35280, 
                            "v": 80, 
                            "dur": 240, 
                            "type": "note", 
                            "channel": 5
                        }
                    ]
                ], 
                [
                    35520, 
                    [
                        {
                            "pitch": 41, 
                            "t0": 35520, 
                            "v": 80, 
                            "dur": 720, 
                            "type": "note", 
                            "channel": 5
                        }
                    ]
                ], 
                [
                    36240, 
                    [
                        {
                            "pitch": 43, 
                            "t0": 36240, 
                            "v": 80, 
                            "dur": 240, 
                            "type": "note", 
                            "channel": 5
                        }
                    ]
                ], 
                [
                    36480, 
                    [
                        {
                            "pitch": 48, 
                            "t0": 36480, 
                            "v": 80, 
                            "dur": 720, 
                            "type": "note", 
                            "channel": 5
                        }
                    ]
                ], 
                [
                    37200, 
                    [
                        {
                            "pitch": 48, 
                            "t0": 37200, 
                            "v": 80, 
                            "dur": 240, 
                            "type": "note", 
                            "channel": 5
                        }
                    ]
                ], 
                [
                    37440, 
                    [
                        {
                            "pitch": 48, 
                            "t0": 37440, 
                            "v": 80, 
                            "dur": 480, 
                            "type": "note", 
                            "channel": 5
                        }
                    ]
                ], 
                [
                    37920, 
                    [
                        {
                            "pitch": 48, 
                            "t0": 37920, 
                            "v": 80, 
                            "dur": 480, 
                            "type": "note", 
                            "channel": 5
                        }
                    ]
                ], 
                [
                    38400, 
                    [
                        {
                            "pitch": 46, 
                            "t0": 38400, 
                            "v": 80, 
                            "dur": 720, 
                            "type": "note", 
                            "channel": 5
                        }
                    ]
                ], 
                [
                    39120, 
                    [
                        {
                            "pitch": 46, 
                            "t0": 39120, 
                            "v": 80, 
                            "dur": 240, 
                            "type": "note", 
                            "channel": 5
                        }
                    ]
                ], 
                [
                    39360, 
                    [
                        {
                            "pitch": 41, 
                            "t0": 39360, 
                            "v": 80, 
                            "dur": 720, 
                            "type": "note", 
                            "channel": 5
                        }
                    ]
                ], 
                [
                    40080, 
                    [
                        {
                            "pitch": 43, 
                            "t0": 40080, 
                            "v": 80, 
                            "dur": 240, 
                            "type": "note", 
                            "channel": 5
                        }
                    ]
                ], 
                [
                    40320, 
                    [
                        {
                            "pitch": 48, 
                            "t0": 40320, 
                            "v": 80, 
                            "dur": 720, 
                            "type": "note", 
                            "channel": 5
                        }
                    ]
                ], 
                [
                    41040, 
                    [
                        {
                            "pitch": 48, 
                            "t0": 41040, 
                            "v": 80, 
                            "dur": 240, 
                            "type": "note", 
                            "channel": 5
                        }
                    ]
                ], 
                [
                    41280, 
                    [
                        {
                            "pitch": 48, 
                            "t0": 41280, 
                            "v": 80, 
                            "dur": 480, 
                            "type": "note", 
                            "channel": 5
                        }
                    ]
                ], 
                [
                    41760, 
                    [
                        {
                            "pitch": 48, 
                            "t0": 41760, 
                            "v": 80, 
                            "dur": 480, 
                            "type": "note", 
                            "channel": 5
                        }
                    ]
                ], 
                [
                    42240, 
                    [
                        {
                            "pitch": 46, 
                            "t0": 42240, 
                            "v": 80, 
                            "dur": 720, 
                            "type": "note", 
                            "channel": 5
                        }
                    ]
                ], 
                [
                    42960, 
                    [
                        {
                            "pitch": 46, 
                            "t0": 42960, 
                            "v": 80, 
                            "dur": 240, 
                            "type": "note", 
                            "channel": 5
                        }
                    ]
                ], 
                [
                    43200, 
                    [
                        {
                            "pitch": 41, 
                            "t0": 43200, 
                            "v": 80, 
                            "dur": 720, 
                            "type": "note", 
                            "channel": 5
                        }
                    ]
                ], 
                [
                    43920, 
                    [
                        {
                            "pitch": 43, 
                            "t0": 43920, 
                            "v": 80, 
                            "dur": 240, 
                            "type": "note", 
                            "channel": 5
                        }
                    ]
                ], 
                [
                    44160, 
                    [
                        {
                            "pitch": 43, 
                            "t0": 44160, 
                            "v": 80, 
                            "dur": 720, 
                            "type": "note", 
                            "channel": 5
                        }
                    ]
                ], 
                [
                    44880, 
                    [
                        {
                            "pitch": 43, 
                            "t0": 44880, 
                            "v": 80, 
                            "dur": 240, 
                            "type": "note", 
                            "channel": 5
                        }
                    ]
                ], 
                [
                    45120, 
                    [
                        {
                            "pitch": 43, 
                            "t0": 45120, 
                            "v": 80, 
                            "dur": 480, 
                            "type": "note", 
                            "channel": 5
                        }
                    ]
                ], 
                [
                    45600, 
                    [
                        {
                            "pitch": 43, 
                            "t0": 45600, 
                            "v": 80, 
                            "dur": 480, 
                            "type": "note", 
                            "channel": 5
                        }
                    ]
                ], 
                [
                    46080, 
                    [
                        {
                            "pitch": 43, 
                            "t0": 46080, 
                            "v": 80, 
                            "dur": 720, 
                            "type": "note", 
                            "channel": 5
                        }
                    ]
                ], 
                [
                    46800, 
                    [
                        {
                            "pitch": 43, 
                            "t0": 46800, 
                            "v": 80, 
                            "dur": 240, 
                            "type": "note", 
                            "channel": 5
                        }
                    ]
                ], 
                [
                    47040, 
                    [
                        {
                            "pitch": 43, 
                            "t0": 47040, 
                            "v": 80, 
                            "dur": 960, 
                            "type": "note", 
                            "channel": 5
                        }
                    ]
                ], 
                [
                    48000, 
                    [
                        {
                            "pitch": 43, 
                            "t0": 48000, 
                            "v": 80, 
                            "dur": 240, 
                            "type": "note", 
                            "channel": 5
                        }
                    ]
                ], 
                [
                    48240, 
                    [
                        {
                            "pitch": 43, 
                            "t0": 48240, 
                            "v": 80, 
                            "dur": 240, 
                            "type": "note", 
                            "channel": 5
                        }
                    ]
                ], 
                [
                    48480, 
                    [
                        {
                            "pitch": 55, 
                            "t0": 48480, 
                            "v": 80, 
                            "dur": 240, 
                            "type": "note", 
                            "channel": 5
                        }
                    ]
                ], 
                [
                    49200, 
                    [
                        {
                            "pitch": 43, 
                            "t0": 49200, 
                            "v": 80, 
                            "dur": 240, 
                            "type": "note", 
                            "channel": 5
                        }
                    ]
                ], 
                [
                    49440, 
                    [
                        {
                            "pitch": 43, 
                            "t0": 49440, 
                            "v": 80, 
                            "dur": 240, 
                            "type": "note", 
                            "channel": 5
                        }
                    ]
                ], 
                [
                    49680, 
                    [
                        {
                            "pitch": 55, 
                            "t0": 49680, 
                            "v": 80, 
                            "dur": 240, 
                            "type": "note", 
                            "channel": 5
                        }
                    ]
                ], 
                [
                    49920, 
                    [
                        {
                            "pitch": 41, 
                            "t0": 49920, 
                            "v": 80, 
                            "dur": 240, 
                            "type": "note", 
                            "channel": 5
                        }
                    ]
                ], 
                [
                    50160, 
                    [
                        {
                            "pitch": 41, 
                            "t0": 50160, 
                            "v": 80, 
                            "dur": 240, 
                            "type": "note", 
                            "channel": 5
                        }
                    ]
                ], 
                [
                    50400, 
                    [
                        {
                            "pitch": 53, 
                            "t0": 50400, 
                            "v": 80, 
                            "dur": 240, 
                            "type": "note", 
                            "channel": 5
                        }
                    ]
                ], 
                [
                    50640, 
                    [
                        {
                            "pitch": 36, 
                            "t0": 50640, 
                            "v": 80, 
                            "dur": 240, 
                            "type": "note", 
                            "channel": 5
                        }
                    ]
                ], 
                [
                    50880, 
                    [
                        {
                            "pitch": 36, 
                            "t0": 50880, 
                            "v": 80, 
                            "dur": 240, 
                            "type": "note", 
                            "channel": 5
                        }
                    ]
                ], 
                [
                    51120, 
                    [
                        {
                            "pitch": 52, 
                            "t0": 51120, 
                            "v": 80, 
                            "dur": 240, 
                            "type": "note", 
                            "channel": 5
                        }
                    ]
                ], 
                [
                    51600, 
                    [
                        {
                            "pitch": 38, 
                            "t0": 51600, 
                            "v": 80, 
                            "dur": 240, 
                            "type": "note", 
                            "channel": 5
                        }
                    ]
                ], 
                [
                    51840, 
                    [
                        {
                            "pitch": 43, 
                            "t0": 51840, 
                            "v": 80, 
                            "dur": 240, 
                            "type": "note", 
                            "channel": 5
                        }
                    ]
                ], 
                [
                    52080, 
                    [
                        {
                            "pitch": 43, 
                            "t0": 52080, 
                            "v": 80, 
                            "dur": 240, 
                            "type": "note", 
                            "channel": 5
                        }
                    ]
                ], 
                [
                    52320, 
                    [
                        {
                            "pitch": 55, 
                            "t0": 52320, 
                            "v": 80, 
                            "dur": 240, 
                            "type": "note", 
                            "channel": 5
                        }
                    ]
                ], 
                [
                    53040, 
                    [
                        {
                            "pitch": 43, 
                            "t0": 53040, 
                            "v": 80, 
                            "dur": 240, 
                            "type": "note", 
                            "channel": 5
                        }
                    ]
                ], 
                [
                    53280, 
                    [
                        {
                            "pitch": 43, 
                            "t0": 53280, 
                            "v": 80, 
                            "dur": 240, 
                            "type": "note", 
                            "channel": 5
                        }
                    ]
                ], 
                [
                    53520, 
                    [
                        {
                            "pitch": 55, 
                            "t0": 53520, 
                            "v": 80, 
                            "dur": 240, 
                            "type": "note", 
                            "channel": 5
                        }
                    ]
                ], 
                [
                    53760, 
                    [
                        {
                            "pitch": 41, 
                            "t0": 53760, 
                            "v": 80, 
                            "dur": 240, 
                            "type": "note", 
                            "channel": 5
                        }
                    ]
                ], 
                [
                    54000, 
                    [
                        {
                            "pitch": 41, 
                            "t0": 54000, 
                            "v": 80, 
                            "dur": 240, 
                            "type": "note", 
                            "channel": 5
                        }
                    ]
                ], 
                [
                    54240, 
                    [
                        {
                            "pitch": 53, 
                            "t0": 54240, 
                            "v": 80, 
                            "dur": 240, 
                            "type": "note", 
                            "channel": 5
                        }
                    ]
                ], 
                [
                    54480, 
                    [
                        {
                            "pitch": 36, 
                            "t0": 54480, 
                            "v": 80, 
                            "dur": 240, 
                            "type": "note", 
                            "channel": 5
                        }
                    ]
                ], 
                [
                    54720, 
                    [
                        {
                            "pitch": 36, 
                            "t0": 54720, 
                            "v": 80, 
                            "dur": 240, 
                            "type": "note", 
                            "channel": 5
                        }
                    ]
                ], 
                [
                    54960, 
                    [
                        {
                            "pitch": 52, 
                            "t0": 54960, 
                            "v": 80, 
                            "dur": 240, 
                            "type": "note", 
                            "channel": 5
                        }
                    ]
                ], 
                [
                    55440, 
                    [
                        {
                            "pitch": 38, 
                            "t0": 55440, 
                            "v": 80, 
                            "dur": 240, 
                            "type": "note", 
                            "channel": 5
                        }
                    ]
                ], 
                [
                    55680, 
                    [
                        {
                            "pitch": 43, 
                            "t0": 55680, 
                            "v": 80, 
                            "dur": 240, 
                            "type": "note", 
                            "channel": 5
                        }
                    ]
                ], 
                [
                    55920, 
                    [
                        {
                            "pitch": 43, 
                            "t0": 55920, 
                            "v": 80, 
                            "dur": 240, 
                            "type": "note", 
                            "channel": 5
                        }
                    ]
                ], 
                [
                    56160, 
                    [
                        {
                            "pitch": 55, 
                            "t0": 56160, 
                            "v": 80, 
                            "dur": 240, 
                            "type": "note", 
                            "channel": 5
                        }
                    ]
                ], 
                [
                    56880, 
                    [
                        {
                            "pitch": 43, 
                            "t0": 56880, 
                            "v": 80, 
                            "dur": 240, 
                            "type": "note", 
                            "channel": 5
                        }
                    ]
                ], 
                [
                    57120, 
                    [
                        {
                            "pitch": 43, 
                            "t0": 57120, 
                            "v": 80, 
                            "dur": 240, 
                            "type": "note", 
                            "channel": 5
                        }
                    ]
                ], 
                [
                    57360, 
                    [
                        {
                            "pitch": 55, 
                            "t0": 57360, 
                            "v": 80, 
                            "dur": 240, 
                            "type": "note", 
                            "channel": 5
                        }
                    ]
                ], 
                [
                    57600, 
                    [
                        {
                            "pitch": 41, 
                            "t0": 57600, 
                            "v": 80, 
                            "dur": 240, 
                            "type": "note", 
                            "channel": 5
                        }
                    ]
                ], 
                [
                    57840, 
                    [
                        {
                            "pitch": 41, 
                            "t0": 57840, 
                            "v": 80, 
                            "dur": 240, 
                            "type": "note", 
                            "channel": 5
                        }
                    ]
                ], 
                [
                    58080, 
                    [
                        {
                            "pitch": 53, 
                            "t0": 58080, 
                            "v": 80, 
                            "dur": 240, 
                            "type": "note", 
                            "channel": 5
                        }
                    ]
                ], 
                [
                    58320, 
                    [
                        {
                            "pitch": 36, 
                            "t0": 58320, 
                            "v": 80, 
                            "dur": 240, 
                            "type": "note", 
                            "channel": 5
                        }
                    ]
                ], 
                [
                    58560, 
                    [
                        {
                            "pitch": 36, 
                            "t0": 58560, 
                            "v": 80, 
                            "dur": 240, 
                            "type": "note", 
                            "channel": 5
                        }
                    ]
                ], 
                [
                    58800, 
                    [
                        {
                            "pitch": 52, 
                            "t0": 58800, 
                            "v": 80, 
                            "dur": 240, 
                            "type": "note", 
                            "channel": 5
                        }
                    ]
                ], 
                [
                    59280, 
                    [
                        {
                            "pitch": 38, 
                            "t0": 59280, 
                            "v": 80, 
                            "dur": 240, 
                            "type": "note", 
                            "channel": 5
                        }
                    ]
                ], 
                [
                    59520, 
                    [
                        {
                            "pitch": 43, 
                            "t0": 59520, 
                            "v": 80, 
                            "dur": 240, 
                            "type": "note", 
                            "channel": 5
                        }
                    ]
                ], 
                [
                    59760, 
                    [
                        {
                            "pitch": 43, 
                            "t0": 59760, 
                            "v": 80, 
                            "dur": 240, 
                            "type": "note", 
                            "channel": 5
                        }
                    ]
                ], 
                [
                    60000, 
                    [
                        {
                            "pitch": 55, 
                            "t0": 60000, 
                            "v": 80, 
                            "dur": 240, 
                            "type": "note", 
                            "channel": 5
                        }
                    ]
                ], 
                [
                    60720, 
                    [
                        {
                            "pitch": 43, 
                            "t0": 60720, 
                            "v": 80, 
                            "dur": 240, 
                            "type": "note", 
                            "channel": 5
                        }
                    ]
                ], 
                [
                    60960, 
                    [
                        {
                            "pitch": 43, 
                            "t0": 60960, 
                            "v": 80, 
                            "dur": 240, 
                            "type": "note", 
                            "channel": 5
                        }
                    ]
                ], 
                [
                    61200, 
                    [
                        {
                            "pitch": 55, 
                            "t0": 61200, 
                            "v": 80, 
                            "dur": 240, 
                            "type": "note", 
                            "channel": 5
                        }
                    ]
                ], 
                [
                    61440, 
                    [
                        {
                            "pitch": 41, 
                            "t0": 61440, 
                            "v": 80, 
                            "dur": 240, 
                            "type": "note", 
                            "channel": 5
                        }
                    ]
                ], 
                [
                    61680, 
                    [
                        {
                            "pitch": 41, 
                            "t0": 61680, 
                            "v": 80, 
                            "dur": 240, 
                            "type": "note", 
                            "channel": 5
                        }
                    ]
                ], 
                [
                    61920, 
                    [
                        {
                            "pitch": 53, 
                            "t0": 61920, 
                            "v": 80, 
                            "dur": 240, 
                            "type": "note", 
                            "channel": 5
                        }
                    ]
                ], 
                [
                    62160, 
                    [
                        {
                            "pitch": 36, 
                            "t0": 62160, 
                            "v": 80, 
                            "dur": 240, 
                            "type": "note", 
                            "channel": 5
                        }
                    ]
                ], 
                [
                    62400, 
                    [
                        {
                            "pitch": 36, 
                            "t0": 62400, 
                            "v": 80, 
                            "dur": 240, 
                            "type": "note", 
                            "channel": 5
                        }
                    ]
                ], 
                [
                    62640, 
                    [
                        {
                            "pitch": 52, 
                            "t0": 62640, 
                            "v": 80, 
                            "dur": 240, 
                            "type": "note", 
                            "channel": 5
                        }
                    ]
                ], 
                [
                    63120, 
                    [
                        {
                            "pitch": 38, 
                            "t0": 63120, 
                            "v": 80, 
                            "dur": 240, 
                            "type": "note", 
                            "channel": 5
                        }
                    ]
                ], 
                [
                    63360, 
                    [
                        {
                            "pitch": 55, 
                            "t0": 63360, 
                            "v": 80, 
                            "dur": 240, 
                            "type": "note", 
                            "channel": 5
                        }
                    ]
                ], 
                [
                    63600, 
                    [
                        {
                            "pitch": 55, 
                            "t0": 63600, 
                            "v": 80, 
                            "dur": 240, 
                            "type": "note", 
                            "channel": 5
                        }
                    ]
                ], 
                [
                    63840, 
                    [
                        {
                            "pitch": 55, 
                            "t0": 63840, 
                            "v": 80, 
                            "dur": 240, 
                            "type": "note", 
                            "channel": 5
                        }
                    ]
                ], 
                [
                    64560, 
                    [
                        {
                            "pitch": 55, 
                            "t0": 64560, 
                            "v": 80, 
                            "dur": 240, 
                            "type": "note", 
                            "channel": 5
                        }
                    ]
                ], 
                [
                    64800, 
                    [
                        {
                            "pitch": 55, 
                            "t0": 64800, 
                            "v": 80, 
                            "dur": 240, 
                            "type": "note", 
                            "channel": 5
                        }
                    ]
                ], 
                [
                    65040, 
                    [
                        {
                            "pitch": 55, 
                            "t0": 65040, 
                            "v": 80, 
                            "dur": 240, 
                            "type": "note", 
                            "channel": 5
                        }
                    ]
                ], 
                [
                    65280, 
                    [
                        {
                            "pitch": 53, 
                            "t0": 65280, 
                            "v": 80, 
                            "dur": 240, 
                            "type": "note", 
                            "channel": 5
                        }
                    ]
                ], 
                [
                    65520, 
                    [
                        {
                            "pitch": 53, 
                            "t0": 65520, 
                            "v": 80, 
                            "dur": 240, 
                            "type": "note", 
                            "channel": 5
                        }
                    ]
                ], 
                [
                    65760, 
                    [
                        {
                            "pitch": 53, 
                            "t0": 65760, 
                            "v": 80, 
                            "dur": 240, 
                            "type": "note", 
                            "channel": 5
                        }
                    ]
                ], 
                [
                    66000, 
                    [
                        {
                            "pitch": 48, 
                            "t0": 66000, 
                            "v": 80, 
                            "dur": 240, 
                            "type": "note", 
                            "channel": 5
                        }
                    ]
                ], 
                [
                    66240, 
                    [
                        {
                            "pitch": 48, 
                            "t0": 66240, 
                            "v": 80, 
                            "dur": 240, 
                            "type": "note", 
                            "channel": 5
                        }
                    ]
                ], 
                [
                    66480, 
                    [
                        {
                            "pitch": 48, 
                            "t0": 66480, 
                            "v": 80, 
                            "dur": 240, 
                            "type": "note", 
                            "channel": 5
                        }
                    ]
                ], 
                [
                    66960, 
                    [
                        {
                            "pitch": 50, 
                            "t0": 66960, 
                            "v": 80, 
                            "dur": 240, 
                            "type": "note", 
                            "channel": 5
                        }
                    ]
                ], 
                [
                    67200, 
                    [
                        {
                            "pitch": 55, 
                            "t0": 67200, 
                            "v": 80, 
                            "dur": 240, 
                            "type": "note", 
                            "channel": 5
                        }
                    ]
                ], 
                [
                    67440, 
                    [
                        {
                            "pitch": 55, 
                            "t0": 67440, 
                            "v": 80, 
                            "dur": 240, 
                            "type": "note", 
                            "channel": 5
                        }
                    ]
                ], 
                [
                    67680, 
                    [
                        {
                            "pitch": 55, 
                            "t0": 67680, 
                            "v": 80, 
                            "dur": 240, 
                            "type": "note", 
                            "channel": 5
                        }
                    ]
                ], 
                [
                    68400, 
                    [
                        {
                            "pitch": 55, 
                            "t0": 68400, 
                            "v": 80, 
                            "dur": 240, 
                            "type": "note", 
                            "channel": 5
                        }
                    ]
                ], 
                [
                    68640, 
                    [
                        {
                            "pitch": 55, 
                            "t0": 68640, 
                            "v": 80, 
                            "dur": 240, 
                            "type": "note", 
                            "channel": 5
                        }
                    ]
                ], 
                [
                    68880, 
                    [
                        {
                            "pitch": 55, 
                            "t0": 68880, 
                            "v": 80, 
                            "dur": 240, 
                            "type": "note", 
                            "channel": 5
                        }
                    ]
                ], 
                [
                    69120, 
                    [
                        {
                            "pitch": 53, 
                            "t0": 69120, 
                            "v": 80, 
                            "dur": 240, 
                            "type": "note", 
                            "channel": 5
                        }
                    ]
                ], 
                [
                    69360, 
                    [
                        {
                            "pitch": 53, 
                            "t0": 69360, 
                            "v": 80, 
                            "dur": 240, 
                            "type": "note", 
                            "channel": 5
                        }
                    ]
                ], 
                [
                    69600, 
                    [
                        {
                            "pitch": 53, 
                            "t0": 69600, 
                            "v": 80, 
                            "dur": 240, 
                            "type": "note", 
                            "channel": 5
                        }
                    ]
                ], 
                [
                    69840, 
                    [
                        {
                            "pitch": 48, 
                            "t0": 69840, 
                            "v": 80, 
                            "dur": 240, 
                            "type": "note", 
                            "channel": 5
                        }
                    ]
                ], 
                [
                    70080, 
                    [
                        {
                            "pitch": 48, 
                            "t0": 70080, 
                            "v": 80, 
                            "dur": 240, 
                            "type": "note", 
                            "channel": 5
                        }
                    ]
                ], 
                [
                    70320, 
                    [
                        {
                            "pitch": 48, 
                            "t0": 70320, 
                            "v": 80, 
                            "dur": 240, 
                            "type": "note", 
                            "channel": 5
                        }
                    ]
                ], 
                [
                    71040, 
                    [
                        {
                            "pitch": 55, 
                            "t0": 71040, 
                            "v": 80, 
                            "dur": 240, 
                            "type": "note", 
                            "channel": 5
                        }
                    ]
                ], 
                [
                    71280, 
                    [
                        {
                            "pitch": 55, 
                            "t0": 71280, 
                            "v": 80, 
                            "dur": 240, 
                            "type": "note", 
                            "channel": 5
                        }
                    ]
                ], 
                [
                    71520, 
                    [
                        {
                            "pitch": 55, 
                            "t0": 71520, 
                            "v": 80, 
                            "dur": 240, 
                            "type": "note", 
                            "channel": 5
                        }
                    ]
                ], 
                [
                    72240, 
                    [
                        {
                            "pitch": 55, 
                            "t0": 72240, 
                            "v": 80, 
                            "dur": 240, 
                            "type": "note", 
                            "channel": 5
                        }
                    ]
                ], 
                [
                    72480, 
                    [
                        {
                            "pitch": 55, 
                            "t0": 72480, 
                            "v": 80, 
                            "dur": 240, 
                            "type": "note", 
                            "channel": 5
                        }
                    ]
                ], 
                [
                    72720, 
                    [
                        {
                            "pitch": 55, 
                            "t0": 72720, 
                            "v": 80, 
                            "dur": 240, 
                            "type": "note", 
                            "channel": 5
                        }
                    ]
                ], 
                [
                    72960, 
                    [
                        {
                            "pitch": 53, 
                            "t0": 72960, 
                            "v": 80, 
                            "dur": 240, 
                            "type": "note", 
                            "channel": 5
                        }
                    ]
                ], 
                [
                    73200, 
                    [
                        {
                            "pitch": 53, 
                            "t0": 73200, 
                            "v": 80, 
                            "dur": 240, 
                            "type": "note", 
                            "channel": 5
                        }
                    ]
                ], 
                [
                    73440, 
                    [
                        {
                            "pitch": 53, 
                            "t0": 73440, 
                            "v": 80, 
                            "dur": 240, 
                            "type": "note", 
                            "channel": 5
                        }
                    ]
                ], 
                [
                    73680, 
                    [
                        {
                            "pitch": 48, 
                            "t0": 73680, 
                            "v": 80, 
                            "dur": 240, 
                            "type": "note", 
                            "channel": 5
                        }
                    ]
                ], 
                [
                    73920, 
                    [
                        {
                            "pitch": 48, 
                            "t0": 73920, 
                            "v": 80, 
                            "dur": 240, 
                            "type": "note", 
                            "channel": 5
                        }
                    ]
                ], 
                [
                    74160, 
                    [
                        {
                            "pitch": 48, 
                            "t0": 74160, 
                            "v": 80, 
                            "dur": 240, 
                            "type": "note", 
                            "channel": 5
                        }
                    ]
                ], 
                [
                    74640, 
                    [
                        {
                            "pitch": 50, 
                            "t0": 74640, 
                            "v": 80, 
                            "dur": 240, 
                            "type": "note", 
                            "channel": 5
                        }
                    ]
                ], 
                [
                    74880, 
                    [
                        {
                            "pitch": 55, 
                            "t0": 74880, 
                            "v": 80, 
                            "dur": 240, 
                            "type": "note", 
                            "channel": 5
                        }
                    ]
                ], 
                [
                    75120, 
                    [
                        {
                            "pitch": 55, 
                            "t0": 75120, 
                            "v": 80, 
                            "dur": 240, 
                            "type": "note", 
                            "channel": 5
                        }
                    ]
                ], 
                [
                    75360, 
                    [
                        {
                            "pitch": 55, 
                            "t0": 75360, 
                            "v": 80, 
                            "dur": 240, 
                            "type": "note", 
                            "channel": 5
                        }
                    ]
                ], 
                [
                    76080, 
                    [
                        {
                            "pitch": 55, 
                            "t0": 76080, 
                            "v": 80, 
                            "dur": 240, 
                            "type": "note", 
                            "channel": 5
                        }
                    ]
                ], 
                [
                    76320, 
                    [
                        {
                            "pitch": 55, 
                            "t0": 76320, 
                            "v": 80, 
                            "dur": 240, 
                            "type": "note", 
                            "channel": 5
                        }
                    ]
                ], 
                [
                    76560, 
                    [
                        {
                            "pitch": 55, 
                            "t0": 76560, 
                            "v": 80, 
                            "dur": 240, 
                            "type": "note", 
                            "channel": 5
                        }
                    ]
                ], 
                [
                    76800, 
                    [
                        {
                            "pitch": 53, 
                            "t0": 76800, 
                            "v": 80, 
                            "dur": 240, 
                            "type": "note", 
                            "channel": 5
                        }
                    ]
                ], 
                [
                    77040, 
                    [
                        {
                            "pitch": 53, 
                            "t0": 77040, 
                            "v": 80, 
                            "dur": 240, 
                            "type": "note", 
                            "channel": 5
                        }
                    ]
                ], 
                [
                    77280, 
                    [
                        {
                            "pitch": 53, 
                            "t0": 77280, 
                            "v": 80, 
                            "dur": 240, 
                            "type": "note", 
                            "channel": 5
                        }
                    ]
                ], 
                [
                    77520, 
                    [
                        {
                            "pitch": 48, 
                            "t0": 77520, 
                            "v": 80, 
                            "dur": 240, 
                            "type": "note", 
                            "channel": 5
                        }
                    ]
                ], 
                [
                    77760, 
                    [
                        {
                            "pitch": 48, 
                            "t0": 77760, 
                            "v": 80, 
                            "dur": 240, 
                            "type": "note", 
                            "channel": 5
                        }
                    ]
                ], 
                [
                    78000, 
                    [
                        {
                            "pitch": 48, 
                            "t0": 78000, 
                            "v": 80, 
                            "dur": 240, 
                            "type": "note", 
                            "channel": 5
                        }
                    ]
                ], 
                [
                    78720, 
                    [
                        {
                            "pitch": 48, 
                            "t0": 78720, 
                            "v": 80, 
                            "dur": 720, 
                            "type": "note", 
                            "channel": 5
                        }
                    ]
                ], 
                [
                    79440, 
                    [
                        {
                            "pitch": 48, 
                            "t0": 79440, 
                            "v": 80, 
                            "dur": 240, 
                            "type": "note", 
                            "channel": 5
                        }
                    ]
                ], 
                [
                    79680, 
                    [
                        {
                            "pitch": 48, 
                            "t0": 79680, 
                            "v": 80, 
                            "dur": 480, 
                            "type": "note", 
                            "channel": 5
                        }
                    ]
                ], 
                [
                    80160, 
                    [
                        {
                            "pitch": 48, 
                            "t0": 80160, 
                            "v": 80, 
                            "dur": 480, 
                            "type": "note", 
                            "channel": 5
                        }
                    ]
                ], 
                [
                    80640, 
                    [
                        {
                            "pitch": 46, 
                            "t0": 80640, 
                            "v": 80, 
                            "dur": 720, 
                            "type": "note", 
                            "channel": 5
                        }
                    ]
                ], 
                [
                    81360, 
                    [
                        {
                            "pitch": 46, 
                            "t0": 81360, 
                            "v": 80, 
                            "dur": 240, 
                            "type": "note", 
                            "channel": 5
                        }
                    ]
                ], 
                [
                    81600, 
                    [
                        {
                            "pitch": 41, 
                            "t0": 81600, 
                            "v": 80, 
                            "dur": 720, 
                            "type": "note", 
                            "channel": 5
                        }
                    ]
                ], 
                [
                    82320, 
                    [
                        {
                            "pitch": 43, 
                            "t0": 82320, 
                            "v": 80, 
                            "dur": 240, 
                            "type": "note", 
                            "channel": 5
                        }
                    ]
                ], 
                [
                    82560, 
                    [
                        {
                            "pitch": 48, 
                            "t0": 82560, 
                            "v": 80, 
                            "dur": 720, 
                            "type": "note", 
                            "channel": 5
                        }
                    ]
                ], 
                [
                    83280, 
                    [
                        {
                            "pitch": 48, 
                            "t0": 83280, 
                            "v": 80, 
                            "dur": 240, 
                            "type": "note", 
                            "channel": 5
                        }
                    ]
                ], 
                [
                    83520, 
                    [
                        {
                            "pitch": 48, 
                            "t0": 83520, 
                            "v": 80, 
                            "dur": 480, 
                            "type": "note", 
                            "channel": 5
                        }
                    ]
                ], 
                [
                    84000, 
                    [
                        {
                            "pitch": 48, 
                            "t0": 84000, 
                            "v": 80, 
                            "dur": 480, 
                            "type": "note", 
                            "channel": 5
                        }
                    ]
                ], 
                [
                    84480, 
                    [
                        {
                            "pitch": 46, 
                            "t0": 84480, 
                            "v": 80, 
                            "dur": 720, 
                            "type": "note", 
                            "channel": 5
                        }
                    ]
                ], 
                [
                    85200, 
                    [
                        {
                            "pitch": 46, 
                            "t0": 85200, 
                            "v": 80, 
                            "dur": 240, 
                            "type": "note", 
                            "channel": 5
                        }
                    ]
                ], 
                [
                    85440, 
                    [
                        {
                            "pitch": 41, 
                            "t0": 85440, 
                            "v": 80, 
                            "dur": 720, 
                            "type": "note", 
                            "channel": 5
                        }
                    ]
                ], 
                [
                    86160, 
                    [
                        {
                            "pitch": 43, 
                            "t0": 86160, 
                            "v": 80, 
                            "dur": 240, 
                            "type": "note", 
                            "channel": 5
                        }
                    ]
                ], 
                [
                    86400, 
                    [
                        {
                            "pitch": 48, 
                            "t0": 86400, 
                            "v": 80, 
                            "dur": 720, 
                            "type": "note", 
                            "channel": 5
                        }
                    ]
                ], 
                [
                    87120, 
                    [
                        {
                            "pitch": 48, 
                            "t0": 87120, 
                            "v": 80, 
                            "dur": 240, 
                            "type": "note", 
                            "channel": 5
                        }
                    ]
                ], 
                [
                    87360, 
                    [
                        {
                            "pitch": 48, 
                            "t0": 87360, 
                            "v": 80, 
                            "dur": 480, 
                            "type": "note", 
                            "channel": 5
                        }
                    ]
                ], 
                [
                    87840, 
                    [
                        {
                            "pitch": 48, 
                            "t0": 87840, 
                            "v": 80, 
                            "dur": 480, 
                            "type": "note", 
                            "channel": 5
                        }
                    ]
                ], 
                [
                    88320, 
                    [
                        {
                            "pitch": 46, 
                            "t0": 88320, 
                            "v": 80, 
                            "dur": 720, 
                            "type": "note", 
                            "channel": 5
                        }
                    ]
                ], 
                [
                    89040, 
                    [
                        {
                            "pitch": 46, 
                            "t0": 89040, 
                            "v": 80, 
                            "dur": 240, 
                            "type": "note", 
                            "channel": 5
                        }
                    ]
                ], 
                [
                    89280, 
                    [
                        {
                            "pitch": 41, 
                            "t0": 89280, 
                            "v": 80, 
                            "dur": 720, 
                            "type": "note", 
                            "channel": 5
                        }
                    ]
                ], 
                [
                    90000, 
                    [
                        {
                            "pitch": 43, 
                            "t0": 90000, 
                            "v": 80, 
                            "dur": 240, 
                            "type": "note", 
                            "channel": 5
                        }
                    ]
                ], 
                [
                    90240, 
                    [
                        {
                            "pitch": 48, 
                            "t0": 90240, 
                            "v": 80, 
                            "dur": 720, 
                            "type": "note", 
                            "channel": 5
                        }
                    ]
                ], 
                [
                    90960, 
                    [
                        {
                            "pitch": 48, 
                            "t0": 90960, 
                            "v": 80, 
                            "dur": 240, 
                            "type": "note", 
                            "channel": 5
                        }
                    ]
                ], 
                [
                    91200, 
                    [
                        {
                            "pitch": 48, 
                            "t0": 91200, 
                            "v": 80, 
                            "dur": 480, 
                            "type": "note", 
                            "channel": 5
                        }
                    ]
                ], 
                [
                    91680, 
                    [
                        {
                            "pitch": 48, 
                            "t0": 91680, 
                            "v": 80, 
                            "dur": 480, 
                            "type": "note", 
                            "channel": 5
                        }
                    ]
                ], 
                [
                    92160, 
                    [
                        {
                            "pitch": 46, 
                            "t0": 92160, 
                            "v": 80, 
                            "dur": 720, 
                            "type": "note", 
                            "channel": 5
                        }
                    ]
                ], 
                [
                    92880, 
                    [
                        {
                            "pitch": 46, 
                            "t0": 92880, 
                            "v": 80, 
                            "dur": 240, 
                            "type": "note", 
                            "channel": 5
                        }
                    ]
                ], 
                [
                    93120, 
                    [
                        {
                            "pitch": 41, 
                            "t0": 93120, 
                            "v": 80, 
                            "dur": 720, 
                            "type": "note", 
                            "channel": 5
                        }
                    ]
                ], 
                [
                    93840, 
                    [
                        {
                            "pitch": 43, 
                            "t0": 93840, 
                            "v": 80, 
                            "dur": 240, 
                            "type": "note", 
                            "channel": 5
                        }
                    ]
                ], 
                [
                    94080, 
                    [
                        {
                            "pitch": 43, 
                            "t0": 94080, 
                            "v": 80, 
                            "dur": 720, 
                            "type": "note", 
                            "channel": 5
                        }
                    ]
                ], 
                [
                    94800, 
                    [
                        {
                            "pitch": 43, 
                            "t0": 94800, 
                            "v": 80, 
                            "dur": 240, 
                            "type": "note", 
                            "channel": 5
                        }
                    ]
                ], 
                [
                    95040, 
                    [
                        {
                            "pitch": 43, 
                            "t0": 95040, 
                            "v": 80, 
                            "dur": 480, 
                            "type": "note", 
                            "channel": 5
                        }
                    ]
                ], 
                [
                    95520, 
                    [
                        {
                            "pitch": 43, 
                            "t0": 95520, 
                            "v": 80, 
                            "dur": 480, 
                            "type": "note", 
                            "channel": 5
                        }
                    ]
                ], 
                [
                    96000, 
                    [
                        {
                            "pitch": 43, 
                            "t0": 96000, 
                            "v": 80, 
                            "dur": 720, 
                            "type": "note", 
                            "channel": 5
                        }
                    ]
                ], 
                [
                    96720, 
                    [
                        {
                            "pitch": 43, 
                            "t0": 96720, 
                            "v": 80, 
                            "dur": 240, 
                            "type": "note", 
                            "channel": 5
                        }
                    ]
                ], 
                [
                    96960, 
                    [
                        {
                            "pitch": 43, 
                            "t0": 96960, 
                            "v": 80, 
                            "dur": 960, 
                            "type": "note", 
                            "channel": 5
                        }
                    ]
                ], 
                [
                    122880, 
                    [
                        {
                            "pitch": 55, 
                            "t0": 122880, 
                            "v": 80, 
                            "dur": 240, 
                            "type": "note", 
                            "channel": 5
                        }
                    ]
                ], 
                [
                    123120, 
                    [
                        {
                            "pitch": 55, 
                            "t0": 123120, 
                            "v": 80, 
                            "dur": 240, 
                            "type": "note", 
                            "channel": 5
                        }
                    ]
                ], 
                [
                    123360, 
                    [
                        {
                            "pitch": 55, 
                            "t0": 123360, 
                            "v": 80, 
                            "dur": 240, 
                            "type": "note", 
                            "channel": 5
                        }
                    ]
                ], 
                [
                    124080, 
                    [
                        {
                            "pitch": 55, 
                            "t0": 124080, 
                            "v": 80, 
                            "dur": 240, 
                            "type": "note", 
                            "channel": 5
                        }
                    ]
                ], 
                [
                    124320, 
                    [
                        {
                            "pitch": 55, 
                            "t0": 124320, 
                            "v": 80, 
                            "dur": 240, 
                            "type": "note", 
                            "channel": 5
                        }
                    ]
                ], 
                [
                    124560, 
                    [
                        {
                            "pitch": 55, 
                            "t0": 124560, 
                            "v": 80, 
                            "dur": 240, 
                            "type": "note", 
                            "channel": 5
                        }
                    ]
                ], 
                [
                    124800, 
                    [
                        {
                            "pitch": 53, 
                            "t0": 124800, 
                            "v": 80, 
                            "dur": 240, 
                            "type": "note", 
                            "channel": 5
                        }
                    ]
                ], 
                [
                    125040, 
                    [
                        {
                            "pitch": 53, 
                            "t0": 125040, 
                            "v": 80, 
                            "dur": 240, 
                            "type": "note", 
                            "channel": 5
                        }
                    ]
                ], 
                [
                    125280, 
                    [
                        {
                            "pitch": 53, 
                            "t0": 125280, 
                            "v": 80, 
                            "dur": 240, 
                            "type": "note", 
                            "channel": 5
                        }
                    ]
                ], 
                [
                    125520, 
                    [
                        {
                            "pitch": 48, 
                            "t0": 125520, 
                            "v": 80, 
                            "dur": 240, 
                            "type": "note", 
                            "channel": 5
                        }
                    ]
                ], 
                [
                    125760, 
                    [
                        {
                            "pitch": 48, 
                            "t0": 125760, 
                            "v": 80, 
                            "dur": 240, 
                            "type": "note", 
                            "channel": 5
                        }
                    ]
                ], 
                [
                    126720, 
                    [
                        {
                            "pitch": 55, 
                            "t0": 126720, 
                            "v": 80, 
                            "dur": 240, 
                            "type": "note", 
                            "channel": 5
                        }
                    ]
                ], 
                [
                    126960, 
                    [
                        {
                            "pitch": 55, 
                            "t0": 126960, 
                            "v": 80, 
                            "dur": 240, 
                            "type": "note", 
                            "channel": 5
                        }
                    ]
                ], 
                [
                    127200, 
                    [
                        {
                            "pitch": 55, 
                            "t0": 127200, 
                            "v": 80, 
                            "dur": 240, 
                            "type": "note", 
                            "channel": 5
                        }
                    ]
                ], 
                [
                    127920, 
                    [
                        {
                            "pitch": 55, 
                            "t0": 127920, 
                            "v": 80, 
                            "dur": 240, 
                            "type": "note", 
                            "channel": 5
                        }
                    ]
                ], 
                [
                    128160, 
                    [
                        {
                            "pitch": 55, 
                            "t0": 128160, 
                            "v": 80, 
                            "dur": 240, 
                            "type": "note", 
                            "channel": 5
                        }
                    ]
                ], 
                [
                    128400, 
                    [
                        {
                            "pitch": 55, 
                            "t0": 128400, 
                            "v": 80, 
                            "dur": 240, 
                            "type": "note", 
                            "channel": 5
                        }
                    ]
                ], 
                [
                    128640, 
                    [
                        {
                            "pitch": 53, 
                            "t0": 128640, 
                            "v": 80, 
                            "dur": 240, 
                            "type": "note", 
                            "channel": 5
                        }
                    ]
                ], 
                [
                    128880, 
                    [
                        {
                            "pitch": 53, 
                            "t0": 128880, 
                            "v": 80, 
                            "dur": 240, 
                            "type": "note", 
                            "channel": 5
                        }
                    ]
                ], 
                [
                    129120, 
                    [
                        {
                            "pitch": 53, 
                            "t0": 129120, 
                            "v": 80, 
                            "dur": 240, 
                            "type": "note", 
                            "channel": 5
                        }
                    ]
                ], 
                [
                    129360, 
                    [
                        {
                            "pitch": 48, 
                            "t0": 129360, 
                            "v": 80, 
                            "dur": 240, 
                            "type": "note", 
                            "channel": 5
                        }
                    ]
                ], 
                [
                    129600, 
                    [
                        {
                            "pitch": 48, 
                            "t0": 129600, 
                            "v": 80, 
                            "dur": 240, 
                            "type": "note", 
                            "channel": 5
                        }
                    ]
                ], 
                [
                    130560, 
                    [
                        {
                            "pitch": 55, 
                            "t0": 130560, 
                            "v": 80, 
                            "dur": 240, 
                            "type": "note", 
                            "channel": 5
                        }
                    ]
                ], 
                [
                    130800, 
                    [
                        {
                            "pitch": 55, 
                            "t0": 130800, 
                            "v": 80, 
                            "dur": 240, 
                            "type": "note", 
                            "channel": 5
                        }
                    ]
                ], 
                [
                    131040, 
                    [
                        {
                            "pitch": 55, 
                            "t0": 131040, 
                            "v": 80, 
                            "dur": 240, 
                            "type": "note", 
                            "channel": 5
                        }
                    ]
                ], 
                [
                    131760, 
                    [
                        {
                            "pitch": 55, 
                            "t0": 131760, 
                            "v": 80, 
                            "dur": 240, 
                            "type": "note", 
                            "channel": 5
                        }
                    ]
                ], 
                [
                    132000, 
                    [
                        {
                            "pitch": 55, 
                            "t0": 132000, 
                            "v": 80, 
                            "dur": 240, 
                            "type": "note", 
                            "channel": 5
                        }
                    ]
                ], 
                [
                    132240, 
                    [
                        {
                            "pitch": 55, 
                            "t0": 132240, 
                            "v": 80, 
                            "dur": 240, 
                            "type": "note", 
                            "channel": 5
                        }
                    ]
                ], 
                [
                    132480, 
                    [
                        {
                            "pitch": 53, 
                            "t0": 132480, 
                            "v": 80, 
                            "dur": 240, 
                            "type": "note", 
                            "channel": 5
                        }
                    ]
                ], 
                [
                    132720, 
                    [
                        {
                            "pitch": 53, 
                            "t0": 132720, 
                            "v": 80, 
                            "dur": 240, 
                            "type": "note", 
                            "channel": 5
                        }
                    ]
                ], 
                [
                    132960, 
                    [
                        {
                            "pitch": 53, 
                            "t0": 132960, 
                            "v": 80, 
                            "dur": 240, 
                            "type": "note", 
                            "channel": 5
                        }
                    ]
                ], 
                [
                    133200, 
                    [
                        {
                            "pitch": 48, 
                            "t0": 133200, 
                            "v": 80, 
                            "dur": 240, 
                            "type": "note", 
                            "channel": 5
                        }
                    ]
                ], 
                [
                    133440, 
                    [
                        {
                            "pitch": 48, 
                            "t0": 133440, 
                            "v": 80, 
                            "dur": 240, 
                            "type": "note", 
                            "channel": 5
                        }
                    ]
                ], 
                [
                    134400, 
                    [
                        {
                            "pitch": 55, 
                            "t0": 134400, 
                            "v": 80, 
                            "dur": 240, 
                            "type": "note", 
                            "channel": 5
                        }
                    ]
                ], 
                [
                    134640, 
                    [
                        {
                            "pitch": 55, 
                            "t0": 134640, 
                            "v": 80, 
                            "dur": 240, 
                            "type": "note", 
                            "channel": 5
                        }
                    ]
                ], 
                [
                    134880, 
                    [
                        {
                            "pitch": 55, 
                            "t0": 134880, 
                            "v": 80, 
                            "dur": 240, 
                            "type": "note", 
                            "channel": 5
                        }
                    ]
                ], 
                [
                    135600, 
                    [
                        {
                            "pitch": 55, 
                            "t0": 135600, 
                            "v": 80, 
                            "dur": 240, 
                            "type": "note", 
                            "channel": 5
                        }
                    ]
                ], 
                [
                    135840, 
                    [
                        {
                            "pitch": 55, 
                            "t0": 135840, 
                            "v": 80, 
                            "dur": 240, 
                            "type": "note", 
                            "channel": 5
                        }
                    ]
                ], 
                [
                    136080, 
                    [
                        {
                            "pitch": 55, 
                            "t0": 136080, 
                            "v": 80, 
                            "dur": 240, 
                            "type": "note", 
                            "channel": 5
                        }
                    ]
                ], 
                [
                    136320, 
                    [
                        {
                            "pitch": 53, 
                            "t0": 136320, 
                            "v": 80, 
                            "dur": 240, 
                            "type": "note", 
                            "channel": 5
                        }
                    ]
                ], 
                [
                    136560, 
                    [
                        {
                            "pitch": 53, 
                            "t0": 136560, 
                            "v": 80, 
                            "dur": 240, 
                            "type": "note", 
                            "channel": 5
                        }
                    ]
                ], 
                [
                    136800, 
                    [
                        {
                            "pitch": 53, 
                            "t0": 136800, 
                            "v": 80, 
                            "dur": 240, 
                            "type": "note", 
                            "channel": 5
                        }
                    ]
                ], 
                [
                    137040, 
                    [
                        {
                            "pitch": 48, 
                            "t0": 137040, 
                            "v": 80, 
                            "dur": 240, 
                            "type": "note", 
                            "channel": 5
                        }
                    ]
                ], 
                [
                    137280, 
                    [
                        {
                            "pitch": 48, 
                            "t0": 137280, 
                            "v": 80, 
                            "dur": 240, 
                            "type": "note", 
                            "channel": 5
                        }
                    ]
                ], 
                [
                    138240, 
                    [
                        {
                            "pitch": 55, 
                            "t0": 138240, 
                            "v": 80, 
                            "dur": 240, 
                            "type": "note", 
                            "channel": 5
                        }
                    ]
                ], 
                [
                    138480, 
                    [
                        {
                            "pitch": 55, 
                            "t0": 138480, 
                            "v": 80, 
                            "dur": 240, 
                            "type": "note", 
                            "channel": 5
                        }
                    ]
                ], 
                [
                    138720, 
                    [
                        {
                            "pitch": 55, 
                            "t0": 138720, 
                            "v": 80, 
                            "dur": 240, 
                            "type": "note", 
                            "channel": 5
                        }
                    ]
                ], 
                [
                    139440, 
                    [
                        {
                            "pitch": 55, 
                            "t0": 139440, 
                            "v": 80, 
                            "dur": 240, 
                            "type": "note", 
                            "channel": 5
                        }
                    ]
                ], 
                [
                    139680, 
                    [
                        {
                            "pitch": 55, 
                            "t0": 139680, 
                            "v": 80, 
                            "dur": 240, 
                            "type": "note", 
                            "channel": 5
                        }
                    ]
                ], 
                [
                    139920, 
                    [
                        {
                            "pitch": 55, 
                            "t0": 139920, 
                            "v": 80, 
                            "dur": 240, 
                            "type": "note", 
                            "channel": 5
                        }
                    ]
                ], 
                [
                    140160, 
                    [
                        {
                            "pitch": 53, 
                            "t0": 140160, 
                            "v": 80, 
                            "dur": 240, 
                            "type": "note", 
                            "channel": 5
                        }
                    ]
                ], 
                [
                    140400, 
                    [
                        {
                            "pitch": 53, 
                            "t0": 140400, 
                            "v": 80, 
                            "dur": 240, 
                            "type": "note", 
                            "channel": 5
                        }
                    ]
                ], 
                [
                    140640, 
                    [
                        {
                            "pitch": 53, 
                            "t0": 140640, 
                            "v": 80, 
                            "dur": 240, 
                            "type": "note", 
                            "channel": 5
                        }
                    ]
                ], 
                [
                    140880, 
                    [
                        {
                            "pitch": 48, 
                            "t0": 140880, 
                            "v": 80, 
                            "dur": 240, 
                            "type": "note", 
                            "channel": 5
                        }
                    ]
                ], 
                [
                    141120, 
                    [
                        {
                            "pitch": 48, 
                            "t0": 141120, 
                            "v": 80, 
                            "dur": 240, 
                            "type": "note", 
                            "channel": 5
                        }
                    ]
                ], 
                [
                    142080, 
                    [
                        {
                            "pitch": 43, 
                            "t0": 142080, 
                            "v": 80, 
                            "dur": 240, 
                            "type": "note", 
                            "channel": 5
                        }
                    ]
                ], 
                [
                    142320, 
                    [
                        {
                            "pitch": 43, 
                            "t0": 142320, 
                            "v": 80, 
                            "dur": 240, 
                            "type": "note", 
                            "channel": 5
                        }
                    ]
                ], 
                [
                    142560, 
                    [
                        {
                            "pitch": 55, 
                            "t0": 142560, 
                            "v": 80, 
                            "dur": 240, 
                            "type": "note", 
                            "channel": 5
                        }
                    ]
                ], 
                [
                    143280, 
                    [
                        {
                            "pitch": 43, 
                            "t0": 143280, 
                            "v": 80, 
                            "dur": 240, 
                            "type": "note", 
                            "channel": 5
                        }
                    ]
                ], 
                [
                    143520, 
                    [
                        {
                            "pitch": 43, 
                            "t0": 143520, 
                            "v": 80, 
                            "dur": 240, 
                            "type": "note", 
                            "channel": 5
                        }
                    ]
                ], 
                [
                    143760, 
                    [
                        {
                            "pitch": 55, 
                            "t0": 143760, 
                            "v": 80, 
                            "dur": 240, 
                            "type": "note", 
                            "channel": 5
                        }
                    ]
                ], 
                [
                    144000, 
                    [
                        {
                            "pitch": 41, 
                            "t0": 144000, 
                            "v": 80, 
                            "dur": 240, 
                            "type": "note", 
                            "channel": 5
                        }
                    ]
                ], 
                [
                    144240, 
                    [
                        {
                            "pitch": 41, 
                            "t0": 144240, 
                            "v": 80, 
                            "dur": 240, 
                            "type": "note", 
                            "channel": 5
                        }
                    ]
                ], 
                [
                    144480, 
                    [
                        {
                            "pitch": 53, 
                            "t0": 144480, 
                            "v": 80, 
                            "dur": 240, 
                            "type": "note", 
                            "channel": 5
                        }
                    ]
                ], 
                [
                    144720, 
                    [
                        {
                            "pitch": 36, 
                            "t0": 144720, 
                            "v": 80, 
                            "dur": 240, 
                            "type": "note", 
                            "channel": 5
                        }
                    ]
                ], 
                [
                    144960, 
                    [
                        {
                            "pitch": 36, 
                            "t0": 144960, 
                            "v": 80, 
                            "dur": 240, 
                            "type": "note", 
                            "channel": 5
                        }
                    ]
                ], 
                [
                    145200, 
                    [
                        {
                            "pitch": 52, 
                            "t0": 145200, 
                            "v": 80, 
                            "dur": 240, 
                            "type": "note", 
                            "channel": 5
                        }
                    ]
                ], 
                [
                    145680, 
                    [
                        {
                            "pitch": 38, 
                            "t0": 145680, 
                            "v": 80, 
                            "dur": 240, 
                            "type": "note", 
                            "channel": 5
                        }
                    ]
                ], 
                [
                    145920, 
                    [
                        {
                            "pitch": 43, 
                            "t0": 145920, 
                            "v": 80, 
                            "dur": 240, 
                            "type": "note", 
                            "channel": 5
                        }
                    ]
                ], 
                [
                    146160, 
                    [
                        {
                            "pitch": 43, 
                            "t0": 146160, 
                            "v": 80, 
                            "dur": 240, 
                            "type": "note", 
                            "channel": 5
                        }
                    ]
                ], 
                [
                    146400, 
                    [
                        {
                            "pitch": 55, 
                            "t0": 146400, 
                            "v": 80, 
                            "dur": 240, 
                            "type": "note", 
                            "channel": 5
                        }
                    ]
                ], 
                [
                    147120, 
                    [
                        {
                            "pitch": 43, 
                            "t0": 147120, 
                            "v": 80, 
                            "dur": 240, 
                            "type": "note", 
                            "channel": 5
                        }
                    ]
                ], 
                [
                    147360, 
                    [
                        {
                            "pitch": 43, 
                            "t0": 147360, 
                            "v": 80, 
                            "dur": 240, 
                            "type": "note", 
                            "channel": 5
                        }
                    ]
                ], 
                [
                    147600, 
                    [
                        {
                            "pitch": 55, 
                            "t0": 147600, 
                            "v": 80, 
                            "dur": 240, 
                            "type": "note", 
                            "channel": 5
                        }
                    ]
                ], 
                [
                    147840, 
                    [
                        {
                            "pitch": 41, 
                            "t0": 147840, 
                            "v": 80, 
                            "dur": 240, 
                            "type": "note", 
                            "channel": 5
                        }
                    ]
                ], 
                [
                    148080, 
                    [
                        {
                            "pitch": 41, 
                            "t0": 148080, 
                            "v": 80, 
                            "dur": 240, 
                            "type": "note", 
                            "channel": 5
                        }
                    ]
                ], 
                [
                    148320, 
                    [
                        {
                            "pitch": 53, 
                            "t0": 148320, 
                            "v": 80, 
                            "dur": 240, 
                            "type": "note", 
                            "channel": 5
                        }
                    ]
                ], 
                [
                    148560, 
                    [
                        {
                            "pitch": 36, 
                            "t0": 148560, 
                            "v": 80, 
                            "dur": 240, 
                            "type": "note", 
                            "channel": 5
                        }
                    ]
                ], 
                [
                    148800, 
                    [
                        {
                            "pitch": 36, 
                            "t0": 148800, 
                            "v": 80, 
                            "dur": 240, 
                            "type": "note", 
                            "channel": 5
                        }
                    ]
                ], 
                [
                    149040, 
                    [
                        {
                            "pitch": 52, 
                            "t0": 149040, 
                            "v": 80, 
                            "dur": 240, 
                            "type": "note", 
                            "channel": 5
                        }
                    ]
                ], 
                [
                    149520, 
                    [
                        {
                            "pitch": 38, 
                            "t0": 149520, 
                            "v": 80, 
                            "dur": 240, 
                            "type": "note", 
                            "channel": 5
                        }
                    ]
                ], 
                [
                    149760, 
                    [
                        {
                            "pitch": 43, 
                            "t0": 149760, 
                            "v": 80, 
                            "dur": 240, 
                            "type": "note", 
                            "channel": 5
                        }
                    ]
                ], 
                [
                    150000, 
                    [
                        {
                            "pitch": 43, 
                            "t0": 150000, 
                            "v": 80, 
                            "dur": 240, 
                            "type": "note", 
                            "channel": 5
                        }
                    ]
                ], 
                [
                    150240, 
                    [
                        {
                            "pitch": 55, 
                            "t0": 150240, 
                            "v": 80, 
                            "dur": 240, 
                            "type": "note", 
                            "channel": 5
                        }
                    ]
                ], 
                [
                    150960, 
                    [
                        {
                            "pitch": 43, 
                            "t0": 150960, 
                            "v": 80, 
                            "dur": 240, 
                            "type": "note", 
                            "channel": 5
                        }
                    ]
                ], 
                [
                    151200, 
                    [
                        {
                            "pitch": 43, 
                            "t0": 151200, 
                            "v": 80, 
                            "dur": 240, 
                            "type": "note", 
                            "channel": 5
                        }
                    ]
                ], 
                [
                    151440, 
                    [
                        {
                            "pitch": 55, 
                            "t0": 151440, 
                            "v": 80, 
                            "dur": 240, 
                            "type": "note", 
                            "channel": 5
                        }
                    ]
                ], 
                [
                    151680, 
                    [
                        {
                            "pitch": 41, 
                            "t0": 151680, 
                            "v": 80, 
                            "dur": 240, 
                            "type": "note", 
                            "channel": 5
                        }
                    ]
                ], 
                [
                    151920, 
                    [
                        {
                            "pitch": 41, 
                            "t0": 151920, 
                            "v": 80, 
                            "dur": 240, 
                            "type": "note", 
                            "channel": 5
                        }
                    ]
                ], 
                [
                    152160, 
                    [
                        {
                            "pitch": 53, 
                            "t0": 152160, 
                            "v": 80, 
                            "dur": 240, 
                            "type": "note", 
                            "channel": 5
                        }
                    ]
                ], 
                [
                    152400, 
                    [
                        {
                            "pitch": 36, 
                            "t0": 152400, 
                            "v": 80, 
                            "dur": 240, 
                            "type": "note", 
                            "channel": 5
                        }
                    ]
                ], 
                [
                    152640, 
                    [
                        {
                            "pitch": 36, 
                            "t0": 152640, 
                            "v": 80, 
                            "dur": 240, 
                            "type": "note", 
                            "channel": 5
                        }
                    ]
                ], 
                [
                    152880, 
                    [
                        {
                            "pitch": 52, 
                            "t0": 152880, 
                            "v": 80, 
                            "dur": 240, 
                            "type": "note", 
                            "channel": 5
                        }
                    ]
                ], 
                [
                    153600, 
                    [
                        {
                            "pitch": 43, 
                            "t0": 153600, 
                            "v": 80, 
                            "dur": 240, 
                            "type": "note", 
                            "channel": 5
                        }
                    ]
                ], 
                [
                    153840, 
                    [
                        {
                            "pitch": 43, 
                            "t0": 153840, 
                            "v": 80, 
                            "dur": 240, 
                            "type": "note", 
                            "channel": 5
                        }
                    ]
                ], 
                [
                    154080, 
                    [
                        {
                            "pitch": 55, 
                            "t0": 154080, 
                            "v": 80, 
                            "dur": 240, 
                            "type": "note", 
                            "channel": 5
                        }
                    ]
                ], 
                [
                    154800, 
                    [
                        {
                            "pitch": 43, 
                            "t0": 154800, 
                            "v": 80, 
                            "dur": 240, 
                            "type": "note", 
                            "channel": 5
                        }
                    ]
                ], 
                [
                    155040, 
                    [
                        {
                            "pitch": 43, 
                            "t0": 155040, 
                            "v": 80, 
                            "dur": 240, 
                            "type": "note", 
                            "channel": 5
                        }
                    ]
                ], 
                [
                    155280, 
                    [
                        {
                            "pitch": 55, 
                            "t0": 155280, 
                            "v": 80, 
                            "dur": 240, 
                            "type": "note", 
                            "channel": 5
                        }
                    ]
                ], 
                [
                    155520, 
                    [
                        {
                            "pitch": 41, 
                            "t0": 155520, 
                            "v": 80, 
                            "dur": 240, 
                            "type": "note", 
                            "channel": 5
                        }
                    ]
                ], 
                [
                    155760, 
                    [
                        {
                            "pitch": 41, 
                            "t0": 155760, 
                            "v": 80, 
                            "dur": 240, 
                            "type": "note", 
                            "channel": 5
                        }
                    ]
                ], 
                [
                    156000, 
                    [
                        {
                            "pitch": 53, 
                            "t0": 156000, 
                            "v": 80, 
                            "dur": 240, 
                            "type": "note", 
                            "channel": 5
                        }
                    ]
                ], 
                [
                    156240, 
                    [
                        {
                            "pitch": 36, 
                            "t0": 156240, 
                            "v": 80, 
                            "dur": 240, 
                            "type": "note", 
                            "channel": 5
                        }
                    ]
                ], 
                [
                    156480, 
                    [
                        {
                            "pitch": 36, 
                            "t0": 156480, 
                            "v": 80, 
                            "dur": 240, 
                            "type": "note", 
                            "channel": 5
                        }
                    ]
                ], 
                [
                    156720, 
                    [
                        {
                            "pitch": 52, 
                            "t0": 156720, 
                            "v": 80, 
                            "dur": 240, 
                            "type": "note", 
                            "channel": 5
                        }
                    ]
                ], 
                [
                    157200, 
                    [
                        {
                            "pitch": 38, 
                            "t0": 157200, 
                            "v": 80, 
                            "dur": 240, 
                            "type": "note", 
                            "channel": 5
                        }
                    ]
                ], 
                [
                    157440, 
                    [
                        {
                            "pitch": 43, 
                            "t0": 157440, 
                            "v": 80, 
                            "dur": 240, 
                            "type": "note", 
                            "channel": 5
                        }
                    ]
                ], 
                [
                    157680, 
                    [
                        {
                            "pitch": 43, 
                            "t0": 157680, 
                            "v": 80, 
                            "dur": 240, 
                            "type": "note", 
                            "channel": 5
                        }
                    ]
                ], 
                [
                    157920, 
                    [
                        {
                            "pitch": 55, 
                            "t0": 157920, 
                            "v": 80, 
                            "dur": 240, 
                            "type": "note", 
                            "channel": 5
                        }
                    ]
                ], 
                [
                    158640, 
                    [
                        {
                            "pitch": 43, 
                            "t0": 158640, 
                            "v": 80, 
                            "dur": 240, 
                            "type": "note", 
                            "channel": 5
                        }
                    ]
                ], 
                [
                    158880, 
                    [
                        {
                            "pitch": 43, 
                            "t0": 158880, 
                            "v": 80, 
                            "dur": 240, 
                            "type": "note", 
                            "channel": 5
                        }
                    ]
                ], 
                [
                    159120, 
                    [
                        {
                            "pitch": 55, 
                            "t0": 159120, 
                            "v": 80, 
                            "dur": 240, 
                            "type": "note", 
                            "channel": 5
                        }
                    ]
                ], 
                [
                    159360, 
                    [
                        {
                            "pitch": 41, 
                            "t0": 159360, 
                            "v": 80, 
                            "dur": 240, 
                            "type": "note", 
                            "channel": 5
                        }
                    ]
                ], 
                [
                    159600, 
                    [
                        {
                            "pitch": 41, 
                            "t0": 159600, 
                            "v": 80, 
                            "dur": 240, 
                            "type": "note", 
                            "channel": 5
                        }
                    ]
                ], 
                [
                    159840, 
                    [
                        {
                            "pitch": 53, 
                            "t0": 159840, 
                            "v": 80, 
                            "dur": 240, 
                            "type": "note", 
                            "channel": 5
                        }
                    ]
                ], 
                [
                    160080, 
                    [
                        {
                            "pitch": 36, 
                            "t0": 160080, 
                            "v": 80, 
                            "dur": 240, 
                            "type": "note", 
                            "channel": 5
                        }
                    ]
                ], 
                [
                    160320, 
                    [
                        {
                            "pitch": 36, 
                            "t0": 160320, 
                            "v": 80, 
                            "dur": 240, 
                            "type": "note", 
                            "channel": 5
                        }
                    ]
                ], 
                [
                    160560, 
                    [
                        {
                            "pitch": 52, 
                            "t0": 160560, 
                            "v": 80, 
                            "dur": 240, 
                            "type": "note", 
                            "channel": 5
                        }
                    ]
                ], 
                [
                    161040, 
                    [
                        {
                            "pitch": 38, 
                            "t0": 161040, 
                            "v": 80, 
                            "dur": 240, 
                            "type": "note", 
                            "channel": 5
                        }
                    ]
                ], 
                [
                    161280, 
                    [
                        {
                            "pitch": 43, 
                            "t0": 161280, 
                            "v": 80, 
                            "dur": 240, 
                            "type": "note", 
                            "channel": 5
                        }
                    ]
                ], 
                [
                    161520, 
                    [
                        {
                            "pitch": 43, 
                            "t0": 161520, 
                            "v": 80, 
                            "dur": 240, 
                            "type": "note", 
                            "channel": 5
                        }
                    ]
                ], 
                [
                    161760, 
                    [
                        {
                            "pitch": 55, 
                            "t0": 161760, 
                            "v": 80, 
                            "dur": 240, 
                            "type": "note", 
                            "channel": 5
                        }
                    ]
                ], 
                [
                    162480, 
                    [
                        {
                            "pitch": 43, 
                            "t0": 162480, 
                            "v": 80, 
                            "dur": 240, 
                            "type": "note", 
                            "channel": 5
                        }
                    ]
                ], 
                [
                    162720, 
                    [
                        {
                            "pitch": 43, 
                            "t0": 162720, 
                            "v": 80, 
                            "dur": 240, 
                            "type": "note", 
                            "channel": 5
                        }
                    ]
                ], 
                [
                    162960, 
                    [
                        {
                            "pitch": 55, 
                            "t0": 162960, 
                            "v": 80, 
                            "dur": 240, 
                            "type": "note", 
                            "channel": 5
                        }
                    ]
                ], 
                [
                    163200, 
                    [
                        {
                            "pitch": 41, 
                            "t0": 163200, 
                            "v": 80, 
                            "dur": 240, 
                            "type": "note", 
                            "channel": 5
                        }
                    ]
                ], 
                [
                    163440, 
                    [
                        {
                            "pitch": 41, 
                            "t0": 163440, 
                            "v": 80, 
                            "dur": 240, 
                            "type": "note", 
                            "channel": 5
                        }
                    ]
                ], 
                [
                    163680, 
                    [
                        {
                            "pitch": 53, 
                            "t0": 163680, 
                            "v": 80, 
                            "dur": 240, 
                            "type": "note", 
                            "channel": 5
                        }
                    ]
                ], 
                [
                    163920, 
                    [
                        {
                            "pitch": 36, 
                            "t0": 163920, 
                            "v": 80, 
                            "dur": 240, 
                            "type": "note", 
                            "channel": 5
                        }
                    ]
                ], 
                [
                    164160, 
                    [
                        {
                            "pitch": 36, 
                            "t0": 164160, 
                            "v": 80, 
                            "dur": 240, 
                            "type": "note", 
                            "channel": 5
                        }
                    ]
                ], 
                [
                    164400, 
                    [
                        {
                            "pitch": 52, 
                            "t0": 164400, 
                            "v": 80, 
                            "dur": 240, 
                            "type": "note", 
                            "channel": 5
                        }
                    ]
                ], 
                [
                    164880, 
                    [
                        {
                            "pitch": 38, 
                            "t0": 164880, 
                            "v": 80, 
                            "dur": 240, 
                            "type": "note", 
                            "channel": 5
                        }
                    ]
                ], 
                [
                    165120, 
                    [
                        {
                            "pitch": 43, 
                            "t0": 165120, 
                            "v": 80, 
                            "dur": 240, 
                            "type": "note", 
                            "channel": 5
                        }
                    ]
                ], 
                [
                    165360, 
                    [
                        {
                            "pitch": 43, 
                            "t0": 165360, 
                            "v": 80, 
                            "dur": 240, 
                            "type": "note", 
                            "channel": 5
                        }
                    ]
                ], 
                [
                    165600, 
                    [
                        {
                            "pitch": 55, 
                            "t0": 165600, 
                            "v": 80, 
                            "dur": 240, 
                            "type": "note", 
                            "channel": 5
                        }
                    ]
                ], 
                [
                    166320, 
                    [
                        {
                            "pitch": 43, 
                            "t0": 166320, 
                            "v": 80, 
                            "dur": 240, 
                            "type": "note", 
                            "channel": 5
                        }
                    ]
                ], 
                [
                    166560, 
                    [
                        {
                            "pitch": 43, 
                            "t0": 166560, 
                            "v": 80, 
                            "dur": 240, 
                            "type": "note", 
                            "channel": 5
                        }
                    ]
                ], 
                [
                    166800, 
                    [
                        {
                            "pitch": 55, 
                            "t0": 166800, 
                            "v": 80, 
                            "dur": 240, 
                            "type": "note", 
                            "channel": 5
                        }
                    ]
                ], 
                [
                    167040, 
                    [
                        {
                            "pitch": 41, 
                            "t0": 167040, 
                            "v": 80, 
                            "dur": 240, 
                            "type": "note", 
                            "channel": 5
                        }
                    ]
                ], 
                [
                    167280, 
                    [
                        {
                            "pitch": 41, 
                            "t0": 167280, 
                            "v": 80, 
                            "dur": 240, 
                            "type": "note", 
                            "channel": 5
                        }
                    ]
                ], 
                [
                    167520, 
                    [
                        {
                            "pitch": 53, 
                            "t0": 167520, 
                            "v": 80, 
                            "dur": 240, 
                            "type": "note", 
                            "channel": 5
                        }
                    ]
                ], 
                [
                    167760, 
                    [
                        {
                            "pitch": 36, 
                            "t0": 167760, 
                            "v": 80, 
                            "dur": 240, 
                            "type": "note", 
                            "channel": 5
                        }
                    ]
                ], 
                [
                    168000, 
                    [
                        {
                            "pitch": 36, 
                            "t0": 168000, 
                            "v": 80, 
                            "dur": 240, 
                            "type": "note", 
                            "channel": 5
                        }
                    ]
                ], 
                [
                    168240, 
                    [
                        {
                            "pitch": 52, 
                            "t0": 168240, 
                            "v": 80, 
                            "dur": 240, 
                            "type": "note", 
                            "channel": 5
                        }
                    ]
                ], 
                [
                    168720, 
                    [
                        {
                            "pitch": 38, 
                            "t0": 168720, 
                            "v": 80, 
                            "dur": 240, 
                            "type": "note", 
                            "channel": 5
                        }
                    ]
                ], 
                [
                    168960, 
                    [
                        {
                            "pitch": 43, 
                            "t0": 168960, 
                            "v": 80, 
                            "dur": 240, 
                            "type": "note", 
                            "channel": 5
                        }
                    ]
                ], 
                [
                    169200, 
                    [
                        {
                            "pitch": 43, 
                            "t0": 169200, 
                            "v": 80, 
                            "dur": 240, 
                            "type": "note", 
                            "channel": 5
                        }
                    ]
                ], 
                [
                    169440, 
                    [
                        {
                            "pitch": 55, 
                            "t0": 169440, 
                            "v": 80, 
                            "dur": 240, 
                            "type": "note", 
                            "channel": 5
                        }
                    ]
                ], 
                [
                    170160, 
                    [
                        {
                            "pitch": 43, 
                            "t0": 170160, 
                            "v": 80, 
                            "dur": 240, 
                            "type": "note", 
                            "channel": 5
                        }
                    ]
                ], 
                [
                    170400, 
                    [
                        {
                            "pitch": 43, 
                            "t0": 170400, 
                            "v": 80, 
                            "dur": 240, 
                            "type": "note", 
                            "channel": 5
                        }
                    ]
                ], 
                [
                    170640, 
                    [
                        {
                            "pitch": 55, 
                            "t0": 170640, 
                            "v": 80, 
                            "dur": 240, 
                            "type": "note", 
                            "channel": 5
                        }
                    ]
                ], 
                [
                    170880, 
                    [
                        {
                            "pitch": 41, 
                            "t0": 170880, 
                            "v": 80, 
                            "dur": 240, 
                            "type": "note", 
                            "channel": 5
                        }
                    ]
                ], 
                [
                    171120, 
                    [
                        {
                            "pitch": 41, 
                            "t0": 171120, 
                            "v": 80, 
                            "dur": 240, 
                            "type": "note", 
                            "channel": 5
                        }
                    ]
                ], 
                [
                    171360, 
                    [
                        {
                            "pitch": 53, 
                            "t0": 171360, 
                            "v": 80, 
                            "dur": 240, 
                            "type": "note", 
                            "channel": 5
                        }
                    ]
                ], 
                [
                    171600, 
                    [
                        {
                            "pitch": 36, 
                            "t0": 171600, 
                            "v": 80, 
                            "dur": 240, 
                            "type": "note", 
                            "channel": 5
                        }
                    ]
                ], 
                [
                    171840, 
                    [
                        {
                            "pitch": 36, 
                            "t0": 171840, 
                            "v": 80, 
                            "dur": 240, 
                            "type": "note", 
                            "channel": 5
                        }
                    ]
                ], 
                [
                    172080, 
                    [
                        {
                            "pitch": 52, 
                            "t0": 172080, 
                            "v": 80, 
                            "dur": 240, 
                            "type": "note", 
                            "channel": 5
                        }
                    ]
                ], 
                [
                    172560, 
                    [
                        {
                            "pitch": 38, 
                            "t0": 172560, 
                            "v": 80, 
                            "dur": 240, 
                            "type": "note", 
                            "channel": 5
                        }
                    ]
                ], 
                [
                    172800, 
                    [
                        {
                            "pitch": 43, 
                            "t0": 172800, 
                            "v": 80, 
                            "dur": 240, 
                            "type": "note", 
                            "channel": 5
                        }
                    ]
                ], 
                [
                    173040, 
                    [
                        {
                            "pitch": 43, 
                            "t0": 173040, 
                            "v": 80, 
                            "dur": 240, 
                            "type": "note", 
                            "channel": 5
                        }
                    ]
                ], 
                [
                    173280, 
                    [
                        {
                            "pitch": 55, 
                            "t0": 173280, 
                            "v": 80, 
                            "dur": 240, 
                            "type": "note", 
                            "channel": 5
                        }
                    ]
                ], 
                [
                    174000, 
                    [
                        {
                            "pitch": 43, 
                            "t0": 174000, 
                            "v": 80, 
                            "dur": 240, 
                            "type": "note", 
                            "channel": 5
                        }
                    ]
                ], 
                [
                    174240, 
                    [
                        {
                            "pitch": 43, 
                            "t0": 174240, 
                            "v": 80, 
                            "dur": 240, 
                            "type": "note", 
                            "channel": 5
                        }
                    ]
                ], 
                [
                    174480, 
                    [
                        {
                            "pitch": 55, 
                            "t0": 174480, 
                            "v": 80, 
                            "dur": 240, 
                            "type": "note", 
                            "channel": 5
                        }
                    ]
                ], 
                [
                    174720, 
                    [
                        {
                            "pitch": 41, 
                            "t0": 174720, 
                            "v": 80, 
                            "dur": 240, 
                            "type": "note", 
                            "channel": 5
                        }
                    ]
                ], 
                [
                    174960, 
                    [
                        {
                            "pitch": 41, 
                            "t0": 174960, 
                            "v": 80, 
                            "dur": 240, 
                            "type": "note", 
                            "channel": 5
                        }
                    ]
                ], 
                [
                    175200, 
                    [
                        {
                            "pitch": 53, 
                            "t0": 175200, 
                            "v": 80, 
                            "dur": 240, 
                            "type": "note", 
                            "channel": 5
                        }
                    ]
                ], 
                [
                    175440, 
                    [
                        {
                            "pitch": 36, 
                            "t0": 175440, 
                            "v": 80, 
                            "dur": 240, 
                            "type": "note", 
                            "channel": 5
                        }
                    ]
                ], 
                [
                    175680, 
                    [
                        {
                            "pitch": 36, 
                            "t0": 175680, 
                            "v": 80, 
                            "dur": 240, 
                            "type": "note", 
                            "channel": 5
                        }
                    ]
                ], 
                [
                    175920, 
                    [
                        {
                            "pitch": 52, 
                            "t0": 175920, 
                            "v": 80, 
                            "dur": 240, 
                            "type": "note", 
                            "channel": 5
                        }
                    ]
                ], 
                [
                    176400, 
                    [
                        {
                            "pitch": 38, 
                            "t0": 176400, 
                            "v": 80, 
                            "dur": 240, 
                            "type": "note", 
                            "channel": 5
                        }
                    ]
                ], 
                [
                    176640, 
                    [
                        {
                            "pitch": 43, 
                            "t0": 176640, 
                            "v": 80, 
                            "dur": 240, 
                            "type": "note", 
                            "channel": 5
                        }
                    ]
                ], 
                [
                    176880, 
                    [
                        {
                            "pitch": 43, 
                            "t0": 176880, 
                            "v": 80, 
                            "dur": 240, 
                            "type": "note", 
                            "channel": 5
                        }
                    ]
                ], 
                [
                    177120, 
                    [
                        {
                            "pitch": 55, 
                            "t0": 177120, 
                            "v": 80, 
                            "dur": 240, 
                            "type": "note", 
                            "channel": 5
                        }
                    ]
                ], 
                [
                    177840, 
                    [
                        {
                            "pitch": 43, 
                            "t0": 177840, 
                            "v": 80, 
                            "dur": 240, 
                            "type": "note", 
                            "channel": 5
                        }
                    ]
                ], 
                [
                    178080, 
                    [
                        {
                            "pitch": 43, 
                            "t0": 178080, 
                            "v": 80, 
                            "dur": 240, 
                            "type": "note", 
                            "channel": 5
                        }
                    ]
                ], 
                [
                    178320, 
                    [
                        {
                            "pitch": 55, 
                            "t0": 178320, 
                            "v": 80, 
                            "dur": 240, 
                            "type": "note", 
                            "channel": 5
                        }
                    ]
                ], 
                [
                    178560, 
                    [
                        {
                            "pitch": 41, 
                            "t0": 178560, 
                            "v": 80, 
                            "dur": 240, 
                            "type": "note", 
                            "channel": 5
                        }
                    ]
                ], 
                [
                    178800, 
                    [
                        {
                            "pitch": 41, 
                            "t0": 178800, 
                            "v": 80, 
                            "dur": 240, 
                            "type": "note", 
                            "channel": 5
                        }
                    ]
                ], 
                [
                    179040, 
                    [
                        {
                            "pitch": 53, 
                            "t0": 179040, 
                            "v": 80, 
                            "dur": 240, 
                            "type": "note", 
                            "channel": 5
                        }
                    ]
                ], 
                [
                    179280, 
                    [
                        {
                            "pitch": 36, 
                            "t0": 179280, 
                            "v": 80, 
                            "dur": 240, 
                            "type": "note", 
                            "channel": 5
                        }
                    ]
                ], 
                [
                    179520, 
                    [
                        {
                            "pitch": 36, 
                            "t0": 179520, 
                            "v": 80, 
                            "dur": 240, 
                            "type": "note", 
                            "channel": 5
                        }
                    ]
                ], 
                [
                    179760, 
                    [
                        {
                            "pitch": 52, 
                            "t0": 179760, 
                            "v": 80, 
                            "dur": 240, 
                            "type": "note", 
                            "channel": 5
                        }
                    ]
                ], 
                [
                    180240, 
                    [
                        {
                            "pitch": 38, 
                            "t0": 180240, 
                            "v": 80, 
                            "dur": 240, 
                            "type": "note", 
                            "channel": 5
                        }
                    ]
                ], 
                [
                    180480, 
                    [
                        {
                            "pitch": 43, 
                            "t0": 180480, 
                            "v": 80, 
                            "dur": 240, 
                            "type": "note", 
                            "channel": 5
                        }
                    ]
                ], 
                [
                    180720, 
                    [
                        {
                            "pitch": 43, 
                            "t0": 180720, 
                            "v": 80, 
                            "dur": 240, 
                            "type": "note", 
                            "channel": 5
                        }
                    ]
                ], 
                [
                    180960, 
                    [
                        {
                            "pitch": 55, 
                            "t0": 180960, 
                            "v": 80, 
                            "dur": 240, 
                            "type": "note", 
                            "channel": 5
                        }
                    ]
                ], 
                [
                    181680, 
                    [
                        {
                            "pitch": 43, 
                            "t0": 181680, 
                            "v": 80, 
                            "dur": 240, 
                            "type": "note", 
                            "channel": 5
                        }
                    ]
                ], 
                [
                    181920, 
                    [
                        {
                            "pitch": 43, 
                            "t0": 181920, 
                            "v": 80, 
                            "dur": 240, 
                            "type": "note", 
                            "channel": 5
                        }
                    ]
                ], 
                [
                    182160, 
                    [
                        {
                            "pitch": 55, 
                            "t0": 182160, 
                            "v": 80, 
                            "dur": 240, 
                            "type": "note", 
                            "channel": 5
                        }
                    ]
                ], 
                [
                    182400, 
                    [
                        {
                            "pitch": 41, 
                            "t0": 182400, 
                            "v": 80, 
                            "dur": 240, 
                            "type": "note", 
                            "channel": 5
                        }
                    ]
                ], 
                [
                    182640, 
                    [
                        {
                            "pitch": 41, 
                            "t0": 182640, 
                            "v": 80, 
                            "dur": 240, 
                            "type": "note", 
                            "channel": 5
                        }
                    ]
                ], 
                [
                    182880, 
                    [
                        {
                            "pitch": 53, 
                            "t0": 182880, 
                            "v": 80, 
                            "dur": 240, 
                            "type": "note", 
                            "channel": 5
                        }
                    ]
                ], 
                [
                    183120, 
                    [
                        {
                            "pitch": 36, 
                            "t0": 183120, 
                            "v": 80, 
                            "dur": 240, 
                            "type": "note", 
                            "channel": 5
                        }
                    ]
                ], 
                [
                    183360, 
                    [
                        {
                            "pitch": 36, 
                            "t0": 183360, 
                            "v": 80, 
                            "dur": 240, 
                            "type": "note", 
                            "channel": 5
                        }
                    ]
                ], 
                [
                    183600, 
                    [
                        {
                            "pitch": 52, 
                            "t0": 183600, 
                            "v": 80, 
                            "dur": 240, 
                            "type": "note", 
                            "channel": 5
                        }
                    ]
                ], 
                [
                    184080, 
                    [
                        {
                            "pitch": 38, 
                            "t0": 184080, 
                            "v": 80, 
                            "dur": 240, 
                            "type": "note", 
                            "channel": 5
                        }
                    ]
                ], 
                [
                    184320, 
                    [
                        {
                            "pitch": 43, 
                            "t0": 184320, 
                            "v": 80, 
                            "dur": 240, 
                            "type": "note", 
                            "channel": 5
                        }
                    ]
                ], 
                [
                    184560, 
                    [
                        {
                            "pitch": 43, 
                            "t0": 184560, 
                            "v": 80, 
                            "dur": 240, 
                            "type": "note", 
                            "channel": 5
                        }
                    ]
                ], 
                [
                    184800, 
                    [
                        {
                            "pitch": 55, 
                            "t0": 184800, 
                            "v": 80, 
                            "dur": 240, 
                            "type": "note", 
                            "channel": 5
                        }
                    ]
                ], 
                [
                    185520, 
                    [
                        {
                            "pitch": 43, 
                            "t0": 185520, 
                            "v": 80, 
                            "dur": 240, 
                            "type": "note", 
                            "channel": 5
                        }
                    ]
                ], 
                [
                    185760, 
                    [
                        {
                            "pitch": 43, 
                            "t0": 185760, 
                            "v": 80, 
                            "dur": 240, 
                            "type": "note", 
                            "channel": 5
                        }
                    ]
                ], 
                [
                    186000, 
                    [
                        {
                            "pitch": 55, 
                            "t0": 186000, 
                            "v": 80, 
                            "dur": 240, 
                            "type": "note", 
                            "channel": 5
                        }
                    ]
                ], 
                [
                    186240, 
                    [
                        {
                            "pitch": 41, 
                            "t0": 186240, 
                            "v": 80, 
                            "dur": 240, 
                            "type": "note", 
                            "channel": 5
                        }
                    ]
                ], 
                [
                    186480, 
                    [
                        {
                            "pitch": 41, 
                            "t0": 186480, 
                            "v": 80, 
                            "dur": 240, 
                            "type": "note", 
                            "channel": 5
                        }
                    ]
                ], 
                [
                    186720, 
                    [
                        {
                            "pitch": 53, 
                            "t0": 186720, 
                            "v": 80, 
                            "dur": 240, 
                            "type": "note", 
                            "channel": 5
                        }
                    ]
                ], 
                [
                    186960, 
                    [
                        {
                            "pitch": 36, 
                            "t0": 186960, 
                            "v": 80, 
                            "dur": 240, 
                            "type": "note", 
                            "channel": 5
                        }
                    ]
                ], 
                [
                    187200, 
                    [
                        {
                            "pitch": 36, 
                            "t0": 187200, 
                            "v": 80, 
                            "dur": 240, 
                            "type": "note", 
                            "channel": 5
                        }
                    ]
                ], 
                [
                    187440, 
                    [
                        {
                            "pitch": 52, 
                            "t0": 187440, 
                            "v": 80, 
                            "dur": 240, 
                            "type": "note", 
                            "channel": 5
                        }
                    ]
                ], 
                [
                    187920, 
                    [
                        {
                            "pitch": 38, 
                            "t0": 187920, 
                            "v": 80, 
                            "dur": 240, 
                            "type": "note", 
                            "channel": 5
                        }
                    ]
                ], 
                [
                    188160, 
                    [
                        {
                            "pitch": 43, 
                            "t0": 188160, 
                            "v": 80, 
                            "dur": 240, 
                            "type": "note", 
                            "channel": 5
                        }
                    ]
                ], 
                [
                    188400, 
                    [
                        {
                            "pitch": 43, 
                            "t0": 188400, 
                            "v": 80, 
                            "dur": 240, 
                            "type": "note", 
                            "channel": 5
                        }
                    ]
                ], 
                [
                    188640, 
                    [
                        {
                            "pitch": 55, 
                            "t0": 188640, 
                            "v": 80, 
                            "dur": 240, 
                            "type": "note", 
                            "channel": 5
                        }
                    ]
                ], 
                [
                    189360, 
                    [
                        {
                            "pitch": 43, 
                            "t0": 189360, 
                            "v": 80, 
                            "dur": 240, 
                            "type": "note", 
                            "channel": 5
                        }
                    ]
                ], 
                [
                    189600, 
                    [
                        {
                            "pitch": 43, 
                            "t0": 189600, 
                            "v": 80, 
                            "dur": 240, 
                            "type": "note", 
                            "channel": 5
                        }
                    ]
                ], 
                [
                    189840, 
                    [
                        {
                            "pitch": 55, 
                            "t0": 189840, 
                            "v": 80, 
                            "dur": 240, 
                            "type": "note", 
                            "channel": 5
                        }
                    ]
                ], 
                [
                    190080, 
                    [
                        {
                            "pitch": 41, 
                            "t0": 190080, 
                            "v": 80, 
                            "dur": 240, 
                            "type": "note", 
                            "channel": 5
                        }
                    ]
                ], 
                [
                    190320, 
                    [
                        {
                            "pitch": 41, 
                            "t0": 190320, 
                            "v": 80, 
                            "dur": 240, 
                            "type": "note", 
                            "channel": 5
                        }
                    ]
                ], 
                [
                    190560, 
                    [
                        {
                            "pitch": 53, 
                            "t0": 190560, 
                            "v": 80, 
                            "dur": 240, 
                            "type": "note", 
                            "channel": 5
                        }
                    ]
                ], 
                [
                    190800, 
                    [
                        {
                            "pitch": 36, 
                            "t0": 190800, 
                            "v": 80, 
                            "dur": 240, 
                            "type": "note", 
                            "channel": 5
                        }
                    ]
                ], 
                [
                    191040, 
                    [
                        {
                            "pitch": 36, 
                            "t0": 191040, 
                            "v": 80, 
                            "dur": 240, 
                            "type": "note", 
                            "channel": 5
                        }
                    ]
                ], 
                [
                    191280, 
                    [
                        {
                            "pitch": 52, 
                            "t0": 191280, 
                            "v": 80, 
                            "dur": 240, 
                            "type": "note", 
                            "channel": 5
                        }
                    ]
                ], 
                [
                    191760, 
                    [
                        {
                            "pitch": 38, 
                            "t0": 191760, 
                            "v": 80, 
                            "dur": 240, 
                            "type": "note", 
                            "channel": 5
                        }
                    ]
                ], 
                [
                    192000, 
                    [
                        {
                            "pitch": 43, 
                            "t0": 192000, 
                            "v": 80, 
                            "dur": 240, 
                            "type": "note", 
                            "channel": 5
                        }
                    ]
                ], 
                [
                    192240, 
                    [
                        {
                            "pitch": 43, 
                            "t0": 192240, 
                            "v": 80, 
                            "dur": 240, 
                            "type": "note", 
                            "channel": 5
                        }
                    ]
                ], 
                [
                    192480, 
                    [
                        {
                            "pitch": 55, 
                            "t0": 192480, 
                            "v": 80, 
                            "dur": 240, 
                            "type": "note", 
                            "channel": 5
                        }
                    ]
                ], 
                [
                    193200, 
                    [
                        {
                            "pitch": 43, 
                            "t0": 193200, 
                            "v": 80, 
                            "dur": 240, 
                            "type": "note", 
                            "channel": 5
                        }
                    ]
                ], 
                [
                    193440, 
                    [
                        {
                            "pitch": 43, 
                            "t0": 193440, 
                            "v": 80, 
                            "dur": 240, 
                            "type": "note", 
                            "channel": 5
                        }
                    ]
                ], 
                [
                    193680, 
                    [
                        {
                            "pitch": 55, 
                            "t0": 193680, 
                            "v": 80, 
                            "dur": 240, 
                            "type": "note", 
                            "channel": 5
                        }
                    ]
                ], 
                [
                    193920, 
                    [
                        {
                            "pitch": 41, 
                            "t0": 193920, 
                            "v": 80, 
                            "dur": 240, 
                            "type": "note", 
                            "channel": 5
                        }
                    ]
                ], 
                [
                    194160, 
                    [
                        {
                            "pitch": 41, 
                            "t0": 194160, 
                            "v": 80, 
                            "dur": 240, 
                            "type": "note", 
                            "channel": 5
                        }
                    ]
                ], 
                [
                    194400, 
                    [
                        {
                            "pitch": 53, 
                            "t0": 194400, 
                            "v": 80, 
                            "dur": 240, 
                            "type": "note", 
                            "channel": 5
                        }
                    ]
                ], 
                [
                    194640, 
                    [
                        {
                            "pitch": 36, 
                            "t0": 194640, 
                            "v": 80, 
                            "dur": 240, 
                            "type": "note", 
                            "channel": 5
                        }
                    ]
                ], 
                [
                    194880, 
                    [
                        {
                            "pitch": 36, 
                            "t0": 194880, 
                            "v": 80, 
                            "dur": 240, 
                            "type": "note", 
                            "channel": 5
                        }
                    ]
                ], 
                [
                    195120, 
                    [
                        {
                            "pitch": 52, 
                            "t0": 195120, 
                            "v": 80, 
                            "dur": 240, 
                            "type": "note", 
                            "channel": 5
                        }
                    ]
                ], 
                [
                    195600, 
                    [
                        {
                            "pitch": 38, 
                            "t0": 195600, 
                            "v": 80, 
                            "dur": 240, 
                            "type": "note", 
                            "channel": 5
                        }
                    ]
                ], 
                [
                    195840, 
                    [
                        {
                            "pitch": 43, 
                            "t0": 195840, 
                            "v": 80, 
                            "dur": 240, 
                            "type": "note", 
                            "channel": 5
                        }
                    ]
                ], 
                [
                    196080, 
                    [
                        {
                            "pitch": 43, 
                            "t0": 196080, 
                            "v": 80, 
                            "dur": 240, 
                            "type": "note", 
                            "channel": 5
                        }
                    ]
                ], 
                [
                    196320, 
                    [
                        {
                            "pitch": 55, 
                            "t0": 196320, 
                            "v": 80, 
                            "dur": 240, 
                            "type": "note", 
                            "channel": 5
                        }
                    ]
                ], 
                [
                    197040, 
                    [
                        {
                            "pitch": 43, 
                            "t0": 197040, 
                            "v": 80, 
                            "dur": 240, 
                            "type": "note", 
                            "channel": 5
                        }
                    ]
                ], 
                [
                    197280, 
                    [
                        {
                            "pitch": 43, 
                            "t0": 197280, 
                            "v": 80, 
                            "dur": 240, 
                            "type": "note", 
                            "channel": 5
                        }
                    ]
                ], 
                [
                    197520, 
                    [
                        {
                            "pitch": 55, 
                            "t0": 197520, 
                            "v": 80, 
                            "dur": 240, 
                            "type": "note", 
                            "channel": 5
                        }
                    ]
                ], 
                [
                    197760, 
                    [
                        {
                            "pitch": 41, 
                            "t0": 197760, 
                            "v": 80, 
                            "dur": 240, 
                            "type": "note", 
                            "channel": 5
                        }
                    ]
                ], 
                [
                    198000, 
                    [
                        {
                            "pitch": 41, 
                            "t0": 198000, 
                            "v": 80, 
                            "dur": 240, 
                            "type": "note", 
                            "channel": 5
                        }
                    ]
                ], 
                [
                    198240, 
                    [
                        {
                            "pitch": 53, 
                            "t0": 198240, 
                            "v": 80, 
                            "dur": 240, 
                            "type": "note", 
                            "channel": 5
                        }
                    ]
                ], 
                [
                    198480, 
                    [
                        {
                            "pitch": 36, 
                            "t0": 198480, 
                            "v": 80, 
                            "dur": 240, 
                            "type": "note", 
                            "channel": 5
                        }
                    ]
                ], 
                [
                    198720, 
                    [
                        {
                            "pitch": 36, 
                            "t0": 198720, 
                            "v": 80, 
                            "dur": 240, 
                            "type": "note", 
                            "channel": 5
                        }
                    ]
                ], 
                [
                    198960, 
                    [
                        {
                            "pitch": 52, 
                            "t0": 198960, 
                            "v": 80, 
                            "dur": 240, 
                            "type": "note", 
                            "channel": 5
                        }
                    ]
                ], 
                [
                    199440, 
                    [
                        {
                            "pitch": 38, 
                            "t0": 199440, 
                            "v": 80, 
                            "dur": 240, 
                            "type": "note", 
                            "channel": 5
                        }
                    ]
                ]
            ], 
            "instruments": [
                46
            ], 
            "tMax": 199440, 
            "channels": [
                5
            ], 
            "instrument": 46, 
            "numNotes": 517, 
            "type": "TrackObj"
        }, 
        {
            "trackName": "Track-8", 
            "seq": [
                [
                    1920, 
                    [
                        {
                            "instrument": 116, 
                            "type": "programChange", 
                            "t0": 1920, 
                            "channel": 6
                        }
                    ]
                ], 
                [
                    47760, 
                    [
                        {
                            "pitch": 31, 
                            "t0": 47760, 
                            "v": 98, 
                            "dur": 240, 
                            "type": "note", 
                            "channel": 6
                        }
                    ]
                ], 
                [
                    48000, 
                    [
                        {
                            "pitch": 24, 
                            "t0": 48000, 
                            "v": 98, 
                            "dur": 720, 
                            "type": "note", 
                            "channel": 6
                        }
                    ]
                ], 
                [
                    48720, 
                    [
                        {
                            "pitch": 24, 
                            "t0": 48720, 
                            "v": 98, 
                            "dur": 240, 
                            "type": "note", 
                            "channel": 6
                        }
                    ]
                ], 
                [
                    49680, 
                    [
                        {
                            "pitch": 31, 
                            "t0": 49680, 
                            "v": 98, 
                            "dur": 240, 
                            "type": "note", 
                            "channel": 6
                        }
                    ]
                ], 
                [
                    49920, 
                    [
                        {
                            "pitch": 24, 
                            "t0": 49920, 
                            "v": 98, 
                            "dur": 720, 
                            "type": "note", 
                            "channel": 6
                        }
                    ]
                ], 
                [
                    50640, 
                    [
                        {
                            "pitch": 24, 
                            "t0": 50640, 
                            "v": 98, 
                            "dur": 240, 
                            "type": "note", 
                            "channel": 6
                        }
                    ]
                ], 
                [
                    51600, 
                    [
                        {
                            "pitch": 31, 
                            "t0": 51600, 
                            "v": 98, 
                            "dur": 240, 
                            "type": "note", 
                            "channel": 6
                        }
                    ]
                ], 
                [
                    51840, 
                    [
                        {
                            "pitch": 24, 
                            "t0": 51840, 
                            "v": 98, 
                            "dur": 720, 
                            "type": "note", 
                            "channel": 6
                        }
                    ]
                ], 
                [
                    52560, 
                    [
                        {
                            "pitch": 24, 
                            "t0": 52560, 
                            "v": 98, 
                            "dur": 240, 
                            "type": "note", 
                            "channel": 6
                        }
                    ]
                ], 
                [
                    53520, 
                    [
                        {
                            "pitch": 31, 
                            "t0": 53520, 
                            "v": 98, 
                            "dur": 240, 
                            "type": "note", 
                            "channel": 6
                        }
                    ]
                ], 
                [
                    53760, 
                    [
                        {
                            "pitch": 24, 
                            "t0": 53760, 
                            "v": 98, 
                            "dur": 720, 
                            "type": "note", 
                            "channel": 6
                        }
                    ]
                ], 
                [
                    54480, 
                    [
                        {
                            "pitch": 24, 
                            "t0": 54480, 
                            "v": 98, 
                            "dur": 240, 
                            "type": "note", 
                            "channel": 6
                        }
                    ]
                ], 
                [
                    55440, 
                    [
                        {
                            "pitch": 31, 
                            "t0": 55440, 
                            "v": 98, 
                            "dur": 240, 
                            "type": "note", 
                            "channel": 6
                        }
                    ]
                ], 
                [
                    55680, 
                    [
                        {
                            "pitch": 24, 
                            "t0": 55680, 
                            "v": 98, 
                            "dur": 720, 
                            "type": "note", 
                            "channel": 6
                        }
                    ]
                ], 
                [
                    56400, 
                    [
                        {
                            "pitch": 24, 
                            "t0": 56400, 
                            "v": 98, 
                            "dur": 240, 
                            "type": "note", 
                            "channel": 6
                        }
                    ]
                ], 
                [
                    57360, 
                    [
                        {
                            "pitch": 31, 
                            "t0": 57360, 
                            "v": 98, 
                            "dur": 240, 
                            "type": "note", 
                            "channel": 6
                        }
                    ]
                ], 
                [
                    57600, 
                    [
                        {
                            "pitch": 24, 
                            "t0": 57600, 
                            "v": 98, 
                            "dur": 720, 
                            "type": "note", 
                            "channel": 6
                        }
                    ]
                ], 
                [
                    58320, 
                    [
                        {
                            "pitch": 24, 
                            "t0": 58320, 
                            "v": 98, 
                            "dur": 240, 
                            "type": "note", 
                            "channel": 6
                        }
                    ]
                ], 
                [
                    59280, 
                    [
                        {
                            "pitch": 31, 
                            "t0": 59280, 
                            "v": 98, 
                            "dur": 240, 
                            "type": "note", 
                            "channel": 6
                        }
                    ]
                ], 
                [
                    59520, 
                    [
                        {
                            "pitch": 24, 
                            "t0": 59520, 
                            "v": 98, 
                            "dur": 720, 
                            "type": "note", 
                            "channel": 6
                        }
                    ]
                ], 
                [
                    60240, 
                    [
                        {
                            "pitch": 24, 
                            "t0": 60240, 
                            "v": 98, 
                            "dur": 240, 
                            "type": "note", 
                            "channel": 6
                        }
                    ]
                ], 
                [
                    61200, 
                    [
                        {
                            "pitch": 31, 
                            "t0": 61200, 
                            "v": 98, 
                            "dur": 240, 
                            "type": "note", 
                            "channel": 6
                        }
                    ]
                ], 
                [
                    61440, 
                    [
                        {
                            "pitch": 24, 
                            "t0": 61440, 
                            "v": 98, 
                            "dur": 720, 
                            "type": "note", 
                            "channel": 6
                        }
                    ]
                ], 
                [
                    62160, 
                    [
                        {
                            "pitch": 24, 
                            "t0": 62160, 
                            "v": 98, 
                            "dur": 240, 
                            "type": "note", 
                            "channel": 6
                        }
                    ]
                ], 
                [
                    63120, 
                    [
                        {
                            "pitch": 31, 
                            "t0": 63120, 
                            "v": 98, 
                            "dur": 240, 
                            "type": "note", 
                            "channel": 6
                        }
                    ]
                ], 
                [
                    63360, 
                    [
                        {
                            "pitch": 24, 
                            "t0": 63360, 
                            "v": 98, 
                            "dur": 720, 
                            "type": "note", 
                            "channel": 6
                        }
                    ]
                ], 
                [
                    64080, 
                    [
                        {
                            "pitch": 24, 
                            "t0": 64080, 
                            "v": 98, 
                            "dur": 240, 
                            "type": "note", 
                            "channel": 6
                        }
                    ]
                ], 
                [
                    65040, 
                    [
                        {
                            "pitch": 31, 
                            "t0": 65040, 
                            "v": 98, 
                            "dur": 240, 
                            "type": "note", 
                            "channel": 6
                        }
                    ]
                ], 
                [
                    65280, 
                    [
                        {
                            "pitch": 24, 
                            "t0": 65280, 
                            "v": 98, 
                            "dur": 720, 
                            "type": "note", 
                            "channel": 6
                        }
                    ]
                ], 
                [
                    66000, 
                    [
                        {
                            "pitch": 24, 
                            "t0": 66000, 
                            "v": 98, 
                            "dur": 240, 
                            "type": "note", 
                            "channel": 6
                        }
                    ]
                ], 
                [
                    66960, 
                    [
                        {
                            "pitch": 31, 
                            "t0": 66960, 
                            "v": 98, 
                            "dur": 240, 
                            "type": "note", 
                            "channel": 6
                        }
                    ]
                ], 
                [
                    67200, 
                    [
                        {
                            "pitch": 24, 
                            "t0": 67200, 
                            "v": 98, 
                            "dur": 720, 
                            "type": "note", 
                            "channel": 6
                        }
                    ]
                ], 
                [
                    67920, 
                    [
                        {
                            "pitch": 24, 
                            "t0": 67920, 
                            "v": 98, 
                            "dur": 240, 
                            "type": "note", 
                            "channel": 6
                        }
                    ]
                ], 
                [
                    68880, 
                    [
                        {
                            "pitch": 31, 
                            "t0": 68880, 
                            "v": 98, 
                            "dur": 240, 
                            "type": "note", 
                            "channel": 6
                        }
                    ]
                ], 
                [
                    69120, 
                    [
                        {
                            "pitch": 24, 
                            "t0": 69120, 
                            "v": 98, 
                            "dur": 720, 
                            "type": "note", 
                            "channel": 6
                        }
                    ]
                ], 
                [
                    69840, 
                    [
                        {
                            "pitch": 24, 
                            "t0": 69840, 
                            "v": 98, 
                            "dur": 240, 
                            "type": "note", 
                            "channel": 6
                        }
                    ]
                ], 
                [
                    70800, 
                    [
                        {
                            "pitch": 31, 
                            "t0": 70800, 
                            "v": 98, 
                            "dur": 240, 
                            "type": "note", 
                            "channel": 6
                        }
                    ]
                ], 
                [
                    71040, 
                    [
                        {
                            "pitch": 24, 
                            "t0": 71040, 
                            "v": 98, 
                            "dur": 720, 
                            "type": "note", 
                            "channel": 6
                        }
                    ]
                ], 
                [
                    71760, 
                    [
                        {
                            "pitch": 24, 
                            "t0": 71760, 
                            "v": 98, 
                            "dur": 240, 
                            "type": "note", 
                            "channel": 6
                        }
                    ]
                ], 
                [
                    72720, 
                    [
                        {
                            "pitch": 31, 
                            "t0": 72720, 
                            "v": 98, 
                            "dur": 240, 
                            "type": "note", 
                            "channel": 6
                        }
                    ]
                ], 
                [
                    72960, 
                    [
                        {
                            "pitch": 24, 
                            "t0": 72960, 
                            "v": 98, 
                            "dur": 720, 
                            "type": "note", 
                            "channel": 6
                        }
                    ]
                ], 
                [
                    73680, 
                    [
                        {
                            "pitch": 24, 
                            "t0": 73680, 
                            "v": 98, 
                            "dur": 240, 
                            "type": "note", 
                            "channel": 6
                        }
                    ]
                ], 
                [
                    74640, 
                    [
                        {
                            "pitch": 31, 
                            "t0": 74640, 
                            "v": 98, 
                            "dur": 240, 
                            "type": "note", 
                            "channel": 6
                        }
                    ]
                ], 
                [
                    74880, 
                    [
                        {
                            "pitch": 24, 
                            "t0": 74880, 
                            "v": 98, 
                            "dur": 720, 
                            "type": "note", 
                            "channel": 6
                        }
                    ]
                ], 
                [
                    75600, 
                    [
                        {
                            "pitch": 24, 
                            "t0": 75600, 
                            "v": 98, 
                            "dur": 240, 
                            "type": "note", 
                            "channel": 6
                        }
                    ]
                ], 
                [
                    76560, 
                    [
                        {
                            "pitch": 31, 
                            "t0": 76560, 
                            "v": 98, 
                            "dur": 240, 
                            "type": "note", 
                            "channel": 6
                        }
                    ]
                ], 
                [
                    76800, 
                    [
                        {
                            "pitch": 24, 
                            "t0": 76800, 
                            "v": 98, 
                            "dur": 720, 
                            "type": "note", 
                            "channel": 6
                        }
                    ]
                ], 
                [
                    77520, 
                    [
                        {
                            "pitch": 24, 
                            "t0": 77520, 
                            "v": 98, 
                            "dur": 240, 
                            "type": "note", 
                            "channel": 6
                        }
                    ]
                ], 
                [
                    78480, 
                    [
                        {
                            "pitch": 31, 
                            "t0": 78480, 
                            "v": 98, 
                            "dur": 240, 
                            "type": "note", 
                            "channel": 6
                        }
                    ]
                ], 
                [
                    78720, 
                    [
                        {
                            "pitch": 24, 
                            "t0": 78720, 
                            "v": 98, 
                            "dur": 720, 
                            "type": "note", 
                            "channel": 6
                        }
                    ]
                ], 
                [
                    79440, 
                    [
                        {
                            "pitch": 24, 
                            "t0": 79440, 
                            "v": 98, 
                            "dur": 240, 
                            "type": "note", 
                            "channel": 6
                        }
                    ]
                ], 
                [
                    80400, 
                    [
                        {
                            "pitch": 31, 
                            "t0": 80400, 
                            "v": 98, 
                            "dur": 240, 
                            "type": "note", 
                            "channel": 6
                        }
                    ]
                ], 
                [
                    80640, 
                    [
                        {
                            "pitch": 24, 
                            "t0": 80640, 
                            "v": 98, 
                            "dur": 720, 
                            "type": "note", 
                            "channel": 6
                        }
                    ]
                ], 
                [
                    81360, 
                    [
                        {
                            "pitch": 24, 
                            "t0": 81360, 
                            "v": 98, 
                            "dur": 240, 
                            "type": "note", 
                            "channel": 6
                        }
                    ]
                ], 
                [
                    82320, 
                    [
                        {
                            "pitch": 31, 
                            "t0": 82320, 
                            "v": 98, 
                            "dur": 240, 
                            "type": "note", 
                            "channel": 6
                        }
                    ]
                ], 
                [
                    82560, 
                    [
                        {
                            "pitch": 24, 
                            "t0": 82560, 
                            "v": 98, 
                            "dur": 720, 
                            "type": "note", 
                            "channel": 6
                        }
                    ]
                ], 
                [
                    83280, 
                    [
                        {
                            "pitch": 24, 
                            "t0": 83280, 
                            "v": 98, 
                            "dur": 240, 
                            "type": "note", 
                            "channel": 6
                        }
                    ]
                ], 
                [
                    84240, 
                    [
                        {
                            "pitch": 31, 
                            "t0": 84240, 
                            "v": 98, 
                            "dur": 240, 
                            "type": "note", 
                            "channel": 6
                        }
                    ]
                ], 
                [
                    84480, 
                    [
                        {
                            "pitch": 24, 
                            "t0": 84480, 
                            "v": 98, 
                            "dur": 720, 
                            "type": "note", 
                            "channel": 6
                        }
                    ]
                ], 
                [
                    85200, 
                    [
                        {
                            "pitch": 24, 
                            "t0": 85200, 
                            "v": 98, 
                            "dur": 240, 
                            "type": "note", 
                            "channel": 6
                        }
                    ]
                ], 
                [
                    86160, 
                    [
                        {
                            "pitch": 31, 
                            "t0": 86160, 
                            "v": 98, 
                            "dur": 240, 
                            "type": "note", 
                            "channel": 6
                        }
                    ]
                ], 
                [
                    86400, 
                    [
                        {
                            "pitch": 24, 
                            "t0": 86400, 
                            "v": 98, 
                            "dur": 720, 
                            "type": "note", 
                            "channel": 6
                        }
                    ]
                ], 
                [
                    87120, 
                    [
                        {
                            "pitch": 24, 
                            "t0": 87120, 
                            "v": 98, 
                            "dur": 240, 
                            "type": "note", 
                            "channel": 6
                        }
                    ]
                ], 
                [
                    88080, 
                    [
                        {
                            "pitch": 31, 
                            "t0": 88080, 
                            "v": 98, 
                            "dur": 240, 
                            "type": "note", 
                            "channel": 6
                        }
                    ]
                ], 
                [
                    88320, 
                    [
                        {
                            "pitch": 24, 
                            "t0": 88320, 
                            "v": 98, 
                            "dur": 720, 
                            "type": "note", 
                            "channel": 6
                        }
                    ]
                ], 
                [
                    89040, 
                    [
                        {
                            "pitch": 24, 
                            "t0": 89040, 
                            "v": 98, 
                            "dur": 240, 
                            "type": "note", 
                            "channel": 6
                        }
                    ]
                ], 
                [
                    90000, 
                    [
                        {
                            "pitch": 31, 
                            "t0": 90000, 
                            "v": 98, 
                            "dur": 240, 
                            "type": "note", 
                            "channel": 6
                        }
                    ]
                ], 
                [
                    90240, 
                    [
                        {
                            "pitch": 24, 
                            "t0": 90240, 
                            "v": 98, 
                            "dur": 720, 
                            "type": "note", 
                            "channel": 6
                        }
                    ]
                ], 
                [
                    90960, 
                    [
                        {
                            "pitch": 24, 
                            "t0": 90960, 
                            "v": 98, 
                            "dur": 240, 
                            "type": "note", 
                            "channel": 6
                        }
                    ]
                ], 
                [
                    91920, 
                    [
                        {
                            "pitch": 31, 
                            "t0": 91920, 
                            "v": 98, 
                            "dur": 240, 
                            "type": "note", 
                            "channel": 6
                        }
                    ]
                ], 
                [
                    92160, 
                    [
                        {
                            "pitch": 24, 
                            "t0": 92160, 
                            "v": 98, 
                            "dur": 720, 
                            "type": "note", 
                            "channel": 6
                        }
                    ]
                ], 
                [
                    92880, 
                    [
                        {
                            "pitch": 24, 
                            "t0": 92880, 
                            "v": 98, 
                            "dur": 240, 
                            "type": "note", 
                            "channel": 6
                        }
                    ]
                ], 
                [
                    93840, 
                    [
                        {
                            "pitch": 31, 
                            "t0": 93840, 
                            "v": 98, 
                            "dur": 240, 
                            "type": "note", 
                            "channel": 6
                        }
                    ]
                ], 
                [
                    94080, 
                    [
                        {
                            "pitch": 24, 
                            "t0": 94080, 
                            "v": 98, 
                            "dur": 720, 
                            "type": "note", 
                            "channel": 6
                        }
                    ]
                ], 
                [
                    94800, 
                    [
                        {
                            "pitch": 24, 
                            "t0": 94800, 
                            "v": 98, 
                            "dur": 240, 
                            "type": "note", 
                            "channel": 6
                        }
                    ]
                ], 
                [
                    95760, 
                    [
                        {
                            "pitch": 31, 
                            "t0": 95760, 
                            "v": 98, 
                            "dur": 240, 
                            "type": "note", 
                            "channel": 6
                        }
                    ]
                ], 
                [
                    96000, 
                    [
                        {
                            "pitch": 31, 
                            "t0": 96000, 
                            "v": 98, 
                            "dur": 960, 
                            "type": "note", 
                            "channel": 6
                        }
                    ]
                ], 
                [
                    122400, 
                    [
                        {
                            "instrument": 116, 
                            "type": "programChange", 
                            "t0": 122400, 
                            "channel": 6
                        }
                    ]
                ], 
                [
                    122640, 
                    [
                        {
                            "pitch": 43, 
                            "t0": 122640, 
                            "v": 98, 
                            "dur": 240, 
                            "type": "note", 
                            "channel": 6
                        }
                    ]
                ], 
                [
                    122880, 
                    [
                        {
                            "pitch": 36, 
                            "t0": 122880, 
                            "v": 98, 
                            "dur": 240, 
                            "type": "note", 
                            "channel": 6
                        }
                    ]
                ], 
                [
                    123600, 
                    [
                        {
                            "pitch": 36, 
                            "t0": 123600, 
                            "v": 98, 
                            "dur": 240, 
                            "type": "note", 
                            "channel": 6
                        }
                    ]
                ], 
                [
                    124560, 
                    [
                        {
                            "pitch": 43, 
                            "t0": 124560, 
                            "v": 98, 
                            "dur": 240, 
                            "type": "note", 
                            "channel": 6
                        }, 
                        {
                            "pitch": 41, 
                            "t0": 124560, 
                            "v": 98, 
                            "dur": 240, 
                            "type": "note", 
                            "channel": 6
                        }
                    ]
                ], 
                [
                    124800, 
                    [
                        {
                            "pitch": 36, 
                            "t0": 124800, 
                            "v": 98, 
                            "dur": 480, 
                            "type": "note", 
                            "channel": 6
                        }
                    ]
                ], 
                [
                    125520, 
                    [
                        {
                            "pitch": 36, 
                            "t0": 125520, 
                            "v": 98, 
                            "dur": 240, 
                            "type": "note", 
                            "channel": 6
                        }
                    ]
                ], 
                [
                    126480, 
                    [
                        {
                            "pitch": 43, 
                            "t0": 126480, 
                            "v": 98, 
                            "dur": 240, 
                            "type": "note", 
                            "channel": 6
                        }
                    ]
                ], 
                [
                    126720, 
                    [
                        {
                            "pitch": 36, 
                            "t0": 126720, 
                            "v": 98, 
                            "dur": 480, 
                            "type": "note", 
                            "channel": 6
                        }
                    ]
                ], 
                [
                    127440, 
                    [
                        {
                            "pitch": 36, 
                            "t0": 127440, 
                            "v": 98, 
                            "dur": 240, 
                            "type": "note", 
                            "channel": 6
                        }
                    ]
                ], 
                [
                    128400, 
                    [
                        {
                            "pitch": 43, 
                            "t0": 128400, 
                            "v": 98, 
                            "dur": 240, 
                            "type": "note", 
                            "channel": 6
                        }
                    ]
                ], 
                [
                    128640, 
                    [
                        {
                            "pitch": 36, 
                            "t0": 128640, 
                            "v": 98, 
                            "dur": 240, 
                            "type": "note", 
                            "channel": 6
                        }
                    ]
                ], 
                [
                    129360, 
                    [
                        {
                            "pitch": 36, 
                            "t0": 129360, 
                            "v": 98, 
                            "dur": 240, 
                            "type": "note", 
                            "channel": 6
                        }
                    ]
                ], 
                [
                    130320, 
                    [
                        {
                            "pitch": 43, 
                            "t0": 130320, 
                            "v": 98, 
                            "dur": 240, 
                            "type": "note", 
                            "channel": 6
                        }
                    ]
                ], 
                [
                    130560, 
                    [
                        {
                            "pitch": 36, 
                            "t0": 130560, 
                            "v": 98, 
                            "dur": 480, 
                            "type": "note", 
                            "channel": 6
                        }
                    ]
                ], 
                [
                    131280, 
                    [
                        {
                            "pitch": 36, 
                            "t0": 131280, 
                            "v": 98, 
                            "dur": 240, 
                            "type": "note", 
                            "channel": 6
                        }
                    ]
                ], 
                [
                    132240, 
                    [
                        {
                            "pitch": 43, 
                            "t0": 132240, 
                            "v": 98, 
                            "dur": 240, 
                            "type": "note", 
                            "channel": 6
                        }
                    ]
                ], 
                [
                    132480, 
                    [
                        {
                            "pitch": 36, 
                            "t0": 132480, 
                            "v": 98, 
                            "dur": 480, 
                            "type": "note", 
                            "channel": 6
                        }
                    ]
                ], 
                [
                    133200, 
                    [
                        {
                            "pitch": 36, 
                            "t0": 133200, 
                            "v": 98, 
                            "dur": 240, 
                            "type": "note", 
                            "channel": 6
                        }
                    ]
                ], 
                [
                    134160, 
                    [
                        {
                            "pitch": 43, 
                            "t0": 134160, 
                            "v": 98, 
                            "dur": 240, 
                            "type": "note", 
                            "channel": 6
                        }
                    ]
                ], 
                [
                    134400, 
                    [
                        {
                            "pitch": 36, 
                            "t0": 134400, 
                            "v": 98, 
                            "dur": 240, 
                            "type": "note", 
                            "channel": 6
                        }
                    ]
                ], 
                [
                    135120, 
                    [
                        {
                            "pitch": 36, 
                            "t0": 135120, 
                            "v": 98, 
                            "dur": 240, 
                            "type": "note", 
                            "channel": 6
                        }
                    ]
                ], 
                [
                    136080, 
                    [
                        {
                            "pitch": 43, 
                            "t0": 136080, 
                            "v": 98, 
                            "dur": 240, 
                            "type": "note", 
                            "channel": 6
                        }
                    ]
                ], 
                [
                    136320, 
                    [
                        {
                            "pitch": 36, 
                            "t0": 136320, 
                            "v": 98, 
                            "dur": 240, 
                            "type": "note", 
                            "channel": 6
                        }
                    ]
                ], 
                [
                    137040, 
                    [
                        {
                            "pitch": 36, 
                            "t0": 137040, 
                            "v": 98, 
                            "dur": 240, 
                            "type": "note", 
                            "channel": 6
                        }
                    ]
                ], 
                [
                    138000, 
                    [
                        {
                            "pitch": 43, 
                            "t0": 138000, 
                            "v": 98, 
                            "dur": 240, 
                            "type": "note", 
                            "channel": 6
                        }
                    ]
                ], 
                [
                    138240, 
                    [
                        {
                            "pitch": 36, 
                            "t0": 138240, 
                            "v": 98, 
                            "dur": 240, 
                            "type": "note", 
                            "channel": 6
                        }
                    ]
                ], 
                [
                    138960, 
                    [
                        {
                            "pitch": 36, 
                            "t0": 138960, 
                            "v": 98, 
                            "dur": 240, 
                            "type": "note", 
                            "channel": 6
                        }
                    ]
                ], 
                [
                    139920, 
                    [
                        {
                            "pitch": 43, 
                            "t0": 139920, 
                            "v": 98, 
                            "dur": 240, 
                            "type": "note", 
                            "channel": 6
                        }
                    ]
                ], 
                [
                    140160, 
                    [
                        {
                            "pitch": 36, 
                            "t0": 140160, 
                            "v": 98, 
                            "dur": 240, 
                            "type": "note", 
                            "channel": 6
                        }
                    ]
                ], 
                [
                    140880, 
                    [
                        {
                            "pitch": 36, 
                            "t0": 140880, 
                            "v": 98, 
                            "dur": 240, 
                            "type": "note", 
                            "channel": 6
                        }
                    ]
                ], 
                [
                    141840, 
                    [
                        {
                            "pitch": 43, 
                            "t0": 141840, 
                            "v": 98, 
                            "dur": 240, 
                            "type": "note", 
                            "channel": 6
                        }
                    ]
                ], 
                [
                    142080, 
                    [
                        {
                            "pitch": 36, 
                            "t0": 142080, 
                            "v": 98, 
                            "dur": 240, 
                            "type": "note", 
                            "channel": 6
                        }
                    ]
                ], 
                [
                    142800, 
                    [
                        {
                            "pitch": 36, 
                            "t0": 142800, 
                            "v": 98, 
                            "dur": 240, 
                            "type": "note", 
                            "channel": 6
                        }
                    ]
                ], 
                [
                    143760, 
                    [
                        {
                            "pitch": 43, 
                            "t0": 143760, 
                            "v": 98, 
                            "dur": 240, 
                            "type": "note", 
                            "channel": 6
                        }
                    ]
                ], 
                [
                    144000, 
                    [
                        {
                            "pitch": 36, 
                            "t0": 144000, 
                            "v": 98, 
                            "dur": 240, 
                            "type": "note", 
                            "channel": 6
                        }
                    ]
                ], 
                [
                    144720, 
                    [
                        {
                            "pitch": 36, 
                            "t0": 144720, 
                            "v": 98, 
                            "dur": 240, 
                            "type": "note", 
                            "channel": 6
                        }
                    ]
                ], 
                [
                    145680, 
                    [
                        {
                            "pitch": 43, 
                            "t0": 145680, 
                            "v": 98, 
                            "dur": 240, 
                            "type": "note", 
                            "channel": 6
                        }
                    ]
                ], 
                [
                    145920, 
                    [
                        {
                            "pitch": 36, 
                            "t0": 145920, 
                            "v": 98, 
                            "dur": 240, 
                            "type": "note", 
                            "channel": 6
                        }
                    ]
                ], 
                [
                    146640, 
                    [
                        {
                            "pitch": 36, 
                            "t0": 146640, 
                            "v": 98, 
                            "dur": 240, 
                            "type": "note", 
                            "channel": 6
                        }
                    ]
                ], 
                [
                    147600, 
                    [
                        {
                            "pitch": 43, 
                            "t0": 147600, 
                            "v": 98, 
                            "dur": 240, 
                            "type": "note", 
                            "channel": 6
                        }
                    ]
                ], 
                [
                    147840, 
                    [
                        {
                            "pitch": 36, 
                            "t0": 147840, 
                            "v": 98, 
                            "dur": 240, 
                            "type": "note", 
                            "channel": 6
                        }
                    ]
                ], 
                [
                    148560, 
                    [
                        {
                            "pitch": 36, 
                            "t0": 148560, 
                            "v": 98, 
                            "dur": 240, 
                            "type": "note", 
                            "channel": 6
                        }
                    ]
                ], 
                [
                    149520, 
                    [
                        {
                            "pitch": 43, 
                            "t0": 149520, 
                            "v": 98, 
                            "dur": 240, 
                            "type": "note", 
                            "channel": 6
                        }
                    ]
                ], 
                [
                    149760, 
                    [
                        {
                            "pitch": 36, 
                            "t0": 149760, 
                            "v": 98, 
                            "dur": 240, 
                            "type": "note", 
                            "channel": 6
                        }
                    ]
                ], 
                [
                    150480, 
                    [
                        {
                            "pitch": 36, 
                            "t0": 150480, 
                            "v": 98, 
                            "dur": 240, 
                            "type": "note", 
                            "channel": 6
                        }
                    ]
                ], 
                [
                    151440, 
                    [
                        {
                            "pitch": 43, 
                            "t0": 151440, 
                            "v": 98, 
                            "dur": 240, 
                            "type": "note", 
                            "channel": 6
                        }
                    ]
                ], 
                [
                    151680, 
                    [
                        {
                            "pitch": 36, 
                            "t0": 151680, 
                            "v": 98, 
                            "dur": 240, 
                            "type": "note", 
                            "channel": 6
                        }
                    ]
                ], 
                [
                    152400, 
                    [
                        {
                            "pitch": 36, 
                            "t0": 152400, 
                            "v": 98, 
                            "dur": 240, 
                            "type": "note", 
                            "channel": 6
                        }
                    ]
                ], 
                [
                    153360, 
                    [
                        {
                            "pitch": 43, 
                            "t0": 153360, 
                            "v": 98, 
                            "dur": 240, 
                            "type": "note", 
                            "channel": 6
                        }
                    ]
                ], 
                [
                    153600, 
                    [
                        {
                            "pitch": 36, 
                            "t0": 153600, 
                            "v": 98, 
                            "dur": 240, 
                            "type": "note", 
                            "channel": 6
                        }
                    ]
                ], 
                [
                    154320, 
                    [
                        {
                            "pitch": 36, 
                            "t0": 154320, 
                            "v": 98, 
                            "dur": 240, 
                            "type": "note", 
                            "channel": 6
                        }
                    ]
                ], 
                [
                    155280, 
                    [
                        {
                            "pitch": 43, 
                            "t0": 155280, 
                            "v": 98, 
                            "dur": 240, 
                            "type": "note", 
                            "channel": 6
                        }
                    ]
                ], 
                [
                    156240, 
                    [
                        {
                            "pitch": 43, 
                            "t0": 156240, 
                            "v": 98, 
                            "dur": 240, 
                            "type": "note", 
                            "channel": 6
                        }
                    ]
                ], 
                [
                    156480, 
                    [
                        {
                            "pitch": 36, 
                            "t0": 156480, 
                            "v": 98, 
                            "dur": 240, 
                            "type": "note", 
                            "channel": 6
                        }
                    ]
                ], 
                [
                    157200, 
                    [
                        {
                            "pitch": 36, 
                            "t0": 157200, 
                            "v": 98, 
                            "dur": 240, 
                            "type": "note", 
                            "channel": 6
                        }
                    ]
                ], 
                [
                    158160, 
                    [
                        {
                            "pitch": 43, 
                            "t0": 158160, 
                            "v": 98, 
                            "dur": 240, 
                            "type": "note", 
                            "channel": 6
                        }
                    ]
                ], 
                [
                    159120, 
                    [
                        {
                            "pitch": 43, 
                            "t0": 159120, 
                            "v": 98, 
                            "dur": 240, 
                            "type": "note", 
                            "channel": 6
                        }
                    ]
                ], 
                [
                    159360, 
                    [
                        {
                            "pitch": 36, 
                            "t0": 159360, 
                            "v": 98, 
                            "dur": 240, 
                            "type": "note", 
                            "channel": 6
                        }
                    ]
                ], 
                [
                    160080, 
                    [
                        {
                            "pitch": 36, 
                            "t0": 160080, 
                            "v": 98, 
                            "dur": 240, 
                            "type": "note", 
                            "channel": 6
                        }
                    ]
                ], 
                [
                    161040, 
                    [
                        {
                            "pitch": 43, 
                            "t0": 161040, 
                            "v": 98, 
                            "dur": 240, 
                            "type": "note", 
                            "channel": 6
                        }
                    ]
                ], 
                [
                    162000, 
                    [
                        {
                            "pitch": 43, 
                            "t0": 162000, 
                            "v": 98, 
                            "dur": 240, 
                            "type": "note", 
                            "channel": 6
                        }
                    ]
                ], 
                [
                    162240, 
                    [
                        {
                            "pitch": 36, 
                            "t0": 162240, 
                            "v": 98, 
                            "dur": 240, 
                            "type": "note", 
                            "channel": 6
                        }
                    ]
                ], 
                [
                    162960, 
                    [
                        {
                            "pitch": 36, 
                            "t0": 162960, 
                            "v": 98, 
                            "dur": 240, 
                            "type": "note", 
                            "channel": 6
                        }
                    ]
                ], 
                [
                    163920, 
                    [
                        {
                            "pitch": 43, 
                            "t0": 163920, 
                            "v": 98, 
                            "dur": 240, 
                            "type": "note", 
                            "channel": 6
                        }
                    ]
                ], 
                [
                    164880, 
                    [
                        {
                            "pitch": 43, 
                            "t0": 164880, 
                            "v": 98, 
                            "dur": 240, 
                            "type": "note", 
                            "channel": 6
                        }
                    ]
                ], 
                [
                    165120, 
                    [
                        {
                            "pitch": 36, 
                            "t0": 165120, 
                            "v": 98, 
                            "dur": 240, 
                            "type": "note", 
                            "channel": 6
                        }
                    ]
                ], 
                [
                    165840, 
                    [
                        {
                            "pitch": 36, 
                            "t0": 165840, 
                            "v": 98, 
                            "dur": 240, 
                            "type": "note", 
                            "channel": 6
                        }
                    ]
                ], 
                [
                    166800, 
                    [
                        {
                            "pitch": 43, 
                            "t0": 166800, 
                            "v": 98, 
                            "dur": 240, 
                            "type": "note", 
                            "channel": 6
                        }
                    ]
                ], 
                [
                    167760, 
                    [
                        {
                            "pitch": 43, 
                            "t0": 167760, 
                            "v": 98, 
                            "dur": 240, 
                            "type": "note", 
                            "channel": 6
                        }
                    ]
                ], 
                [
                    168000, 
                    [
                        {
                            "pitch": 36, 
                            "t0": 168000, 
                            "v": 98, 
                            "dur": 240, 
                            "type": "note", 
                            "channel": 6
                        }
                    ]
                ], 
                [
                    168720, 
                    [
                        {
                            "pitch": 36, 
                            "t0": 168720, 
                            "v": 98, 
                            "dur": 240, 
                            "type": "note", 
                            "channel": 6
                        }
                    ]
                ], 
                [
                    169680, 
                    [
                        {
                            "pitch": 43, 
                            "t0": 169680, 
                            "v": 98, 
                            "dur": 240, 
                            "type": "note", 
                            "channel": 6
                        }
                    ]
                ], 
                [
                    170640, 
                    [
                        {
                            "pitch": 43, 
                            "t0": 170640, 
                            "v": 98, 
                            "dur": 240, 
                            "type": "note", 
                            "channel": 6
                        }
                    ]
                ], 
                [
                    170880, 
                    [
                        {
                            "pitch": 36, 
                            "t0": 170880, 
                            "v": 98, 
                            "dur": 240, 
                            "type": "note", 
                            "channel": 6
                        }
                    ]
                ], 
                [
                    171600, 
                    [
                        {
                            "pitch": 36, 
                            "t0": 171600, 
                            "v": 98, 
                            "dur": 240, 
                            "type": "note", 
                            "channel": 6
                        }
                    ]
                ], 
                [
                    172560, 
                    [
                        {
                            "pitch": 43, 
                            "t0": 172560, 
                            "v": 98, 
                            "dur": 240, 
                            "type": "note", 
                            "channel": 6
                        }
                    ]
                ], 
                [
                    173520, 
                    [
                        {
                            "pitch": 43, 
                            "t0": 173520, 
                            "v": 98, 
                            "dur": 240, 
                            "type": "note", 
                            "channel": 6
                        }
                    ]
                ], 
                [
                    173760, 
                    [
                        {
                            "pitch": 36, 
                            "t0": 173760, 
                            "v": 98, 
                            "dur": 240, 
                            "type": "note", 
                            "channel": 6
                        }
                    ]
                ], 
                [
                    174480, 
                    [
                        {
                            "pitch": 36, 
                            "t0": 174480, 
                            "v": 98, 
                            "dur": 240, 
                            "type": "note", 
                            "channel": 6
                        }
                    ]
                ], 
                [
                    175440, 
                    [
                        {
                            "pitch": 43, 
                            "t0": 175440, 
                            "v": 98, 
                            "dur": 240, 
                            "type": "note", 
                            "channel": 6
                        }
                    ]
                ], 
                [
                    176400, 
                    [
                        {
                            "pitch": 43, 
                            "t0": 176400, 
                            "v": 98, 
                            "dur": 240, 
                            "type": "note", 
                            "channel": 6
                        }
                    ]
                ], 
                [
                    176640, 
                    [
                        {
                            "pitch": 36, 
                            "t0": 176640, 
                            "v": 98, 
                            "dur": 240, 
                            "type": "note", 
                            "channel": 6
                        }
                    ]
                ], 
                [
                    177360, 
                    [
                        {
                            "pitch": 36, 
                            "t0": 177360, 
                            "v": 98, 
                            "dur": 240, 
                            "type": "note", 
                            "channel": 6
                        }
                    ]
                ], 
                [
                    178320, 
                    [
                        {
                            "pitch": 43, 
                            "t0": 178320, 
                            "v": 98, 
                            "dur": 240, 
                            "type": "note", 
                            "channel": 6
                        }
                    ]
                ], 
                [
                    179280, 
                    [
                        {
                            "pitch": 43, 
                            "t0": 179280, 
                            "v": 98, 
                            "dur": 240, 
                            "type": "note", 
                            "channel": 6
                        }
                    ]
                ], 
                [
                    179520, 
                    [
                        {
                            "pitch": 36, 
                            "t0": 179520, 
                            "v": 98, 
                            "dur": 240, 
                            "type": "note", 
                            "channel": 6
                        }
                    ]
                ], 
                [
                    180240, 
                    [
                        {
                            "pitch": 36, 
                            "t0": 180240, 
                            "v": 98, 
                            "dur": 240, 
                            "type": "note", 
                            "channel": 6
                        }
                    ]
                ], 
                [
                    181200, 
                    [
                        {
                            "pitch": 43, 
                            "t0": 181200, 
                            "v": 98, 
                            "dur": 240, 
                            "type": "note", 
                            "channel": 6
                        }
                    ]
                ], 
                [
                    182160, 
                    [
                        {
                            "pitch": 43, 
                            "t0": 182160, 
                            "v": 98, 
                            "dur": 240, 
                            "type": "note", 
                            "channel": 6
                        }
                    ]
                ], 
                [
                    182400, 
                    [
                        {
                            "pitch": 36, 
                            "t0": 182400, 
                            "v": 98, 
                            "dur": 240, 
                            "type": "note", 
                            "channel": 6
                        }
                    ]
                ], 
                [
                    183120, 
                    [
                        {
                            "pitch": 36, 
                            "t0": 183120, 
                            "v": 98, 
                            "dur": 240, 
                            "type": "note", 
                            "channel": 6
                        }
                    ]
                ], 
                [
                    184080, 
                    [
                        {
                            "pitch": 43, 
                            "t0": 184080, 
                            "v": 98, 
                            "dur": 240, 
                            "type": "note", 
                            "channel": 6
                        }
                    ]
                ]
            ], 
            "instruments": [
                116
            ], 
            "tMax": 184080, 
            "channels": [
                6
            ], 
            "instrument": 116, 
            "numNotes": 170, 
            "type": "TrackObj"
        }, 
        {
            "trackName": "Track-2", 
            "seq": [
                [
                    98880, 
                    [
                        {
                            "pitch": 54, 
                            "t0": 98880, 
                            "v": 100, 
                            "dur": 960, 
                            "type": "note", 
                            "channel": 9
                        }
                    ]
                ], 
                [
                    100800, 
                    [
                        {
                            "pitch": 54, 
                            "t0": 100800, 
                            "v": 100, 
                            "dur": 960, 
                            "type": "note", 
                            "channel": 9
                        }
                    ]
                ], 
                [
                    102720, 
                    [
                        {
                            "pitch": 54, 
                            "t0": 102720, 
                            "v": 100, 
                            "dur": 960, 
                            "type": "note", 
                            "channel": 9
                        }
                    ]
                ], 
                [
                    104640, 
                    [
                        {
                            "pitch": 54, 
                            "t0": 104640, 
                            "v": 100, 
                            "dur": 960, 
                            "type": "note", 
                            "channel": 9
                        }
                    ]
                ], 
                [
                    106560, 
                    [
                        {
                            "pitch": 54, 
                            "t0": 106560, 
                            "v": 100, 
                            "dur": 960, 
                            "type": "note", 
                            "channel": 9
                        }
                    ]
                ], 
                [
                    108480, 
                    [
                        {
                            "pitch": 54, 
                            "t0": 108480, 
                            "v": 100, 
                            "dur": 960, 
                            "type": "note", 
                            "channel": 9
                        }
                    ]
                ], 
                [
                    110400, 
                    [
                        {
                            "pitch": 54, 
                            "t0": 110400, 
                            "v": 100, 
                            "dur": 960, 
                            "type": "note", 
                            "channel": 9
                        }
                    ]
                ], 
                [
                    112320, 
                    [
                        {
                            "pitch": 54, 
                            "t0": 112320, 
                            "v": 100, 
                            "dur": 960, 
                            "type": "note", 
                            "channel": 9
                        }
                    ]
                ], 
                [
                    114240, 
                    [
                        {
                            "pitch": 54, 
                            "t0": 114240, 
                            "v": 100, 
                            "dur": 960, 
                            "type": "note", 
                            "channel": 9
                        }
                    ]
                ], 
                [
                    116160, 
                    [
                        {
                            "pitch": 54, 
                            "t0": 116160, 
                            "v": 100, 
                            "dur": 960, 
                            "type": "note", 
                            "channel": 9
                        }
                    ]
                ], 
                [
                    118080, 
                    [
                        {
                            "pitch": 54, 
                            "t0": 118080, 
                            "v": 100, 
                            "dur": 960, 
                            "type": "note", 
                            "channel": 9
                        }
                    ]
                ]
            ], 
            "instruments": [], 
            "tMax": 118080, 
            "channels": [
                9
            ], 
            "numNotes": 11, 
            "type": "TrackObj"
        }
    ], 
    "type": "MidiObj"
}