{
    "format": 1, 
    "instruments": [], 
    "resolution": 1000, 
    "channels": [], 
    "tracks": [
        {
            "seq": [
                [
                    0, 
                    [
                        {
                            "pitch": 50, 
                            "t0": 0, 
                            "v": 90, 
                            "dur": 300.0, 
                            "type": "note", 
                            "channel": 0
                        }
                    ]
                ], 
                [
                    300.0, 
                    [
                        {
                            "pitch": 51, 
                            "t0": 300.0, 
                            "v": 60, 
                            "dur": 150.0, 
                            "type": "note", 
                            "channel": 0
                        }
                    ]
                ], 
                [
                    1200, 
                    [
                        {
                            "pitch": 52, 
                            "t0": 1200, 
                            "v": 70, 
                            "dur": 150.0, 
                            "type": "note", 
                            "channel": 0
                        }
                    ]
                ], 
                [
                    1800, 
                    [
                        {
                            "pitch": 53, 
                            "t0": 1800, 
                            "v": 70, 
                            "dur": 300.0, 
                            "type": "note", 
                            "channel": 0
                        }
                    ]
                ], 
                [
                    2400, 
                    [
                        {
                            "pitch": 50, 
                            "t0": 2400, 
                            "v": 90, 
                            "dur": 300.0, 
                            "type": "note", 
                            "channel": 0
                        }
                    ]
                ], 
                [
                    2700.0, 
                    [
                        {
                            "pitch": 51, 
                            "t0": 2700.0, 
                            "v": 60, 
                            "dur": 150.0, 
                            "type": "note", 
                            "channel": 0
                        }
                    ]
                ], 
                [
                    3600, 
                    [
                        {
                            "pitch": 52, 
                            "t0": 3600, 
                            "v": 70, 
                            "dur": 150.0, 
                            "type": "note", 
                            "channel": 0
                        }
                    ]
                ], 
                [
                    4200, 
                    [
                        {
                            "pitch": 53, 
                            "t0": 4200, 
                            "v": 70, 
                            "dur": 300.0, 
                            "type": "note", 
                            "channel": 0
                        }
                    ]
                ], 
                [
                    4800, 
                    [
                        {
                            "pitch": 50, 
                            "t0": 4800, 
                            "v": 90, 
                            "dur": 300.0, 
                            "type": "note", 
                            "channel": 0
                        }
                    ]
                ], 
                [
                    5100.0, 
                    [
                        {
                            "pitch": 51, 
                            "t0": 5100.0, 
                            "v": 60, 
                            "dur": 150.0, 
                            "type": "note", 
                            "channel": 0
                        }
                    ]
                ], 
                [
                    6000, 
                    [
                        {
                            "pitch": 52, 
                            "t0": 6000, 
                            "v": 70, 
                            "dur": 150.0, 
                            "type": "note", 
                            "channel": 0
                        }
                    ]
                ], 
                [
                    6600, 
                    [
                        {
                            "pitch": 53, 
                            "t0": 6600, 
                            "v": 70, 
                            "dur": 300.0, 
                            "type": "note", 
                            "channel": 0
                        }
                    ]
                ], 
                [
                    7200, 
                    [
                        {
                            "pitch": 50, 
                            "t0": 7200, 
                            "v": 90, 
                            "dur": 300.0, 
                            "type": "note", 
                            "channel": 0
                        }
                    ]
                ], 
                [
                    7500.0, 
                    [
                        {
                            "pitch": 51, 
                            "t0": 7500.0, 
                            "v": 60, 
                            "dur": 150.0, 
                            "type": "note", 
                            "channel": 0
                        }
                    ]
                ], 
                [
                    8400, 
                    [
                        {
                            "pitch": 52, 
                            "t0": 8400, 
                            "v": 70, 
                            "dur": 150.0, 
                            "type": "note", 
                            "channel": 0
                        }
                    ]
                ], 
                [
                    9000, 
                    [
                        {
                            "pitch": 53, 
                            "t0": 9000, 
                            "v": 70, 
                            "dur": 300.0, 
                            "type": "note", 
                            "channel": 0
                        }
                    ]
                ], 
                [
                    9600, 
                    [
                        {
                            "pitch": 50, 
                            "t0": 9600, 
                            "v": 90, 
                            "dur": 300.0, 
                            "type": "note", 
                            "channel": 0
                        }
                    ]
                ], 
                [
                    9900.0, 
                    [
                        {
                            "pitch": 51, 
                            "t0": 9900.0, 
                            "v": 60, 
                            "dur": 150.0, 
                            "type": "note", 
                            "channel": 0
                        }
                    ]
                ], 
                [
                    10800, 
                    [
                        {
                            "pitch": 52, 
                            "t0": 10800, 
                            "v": 70, 
                            "dur": 150.0, 
                            "type": "note", 
                            "channel": 0
                        }
                    ]
                ], 
                [
                    11400, 
                    [
                        {
                            "pitch": 53, 
                            "t0": 11400, 
                            "v": 70, 
                            "dur": 300.0, 
                            "type": "note", 
                            "channel": 0
                        }
                    ]
                ], 
                [
                    12000, 
                    [
                        {
                            "pitch": 50, 
                            "t0": 12000, 
                            "v": 90, 
                            "dur": 300.0, 
                            "type": "note", 
                            "channel": 0
                        }
                    ]
                ], 
                [
                    12300.0, 
                    [
                        {
                            "pitch": 51, 
                            "t0": 12300.0, 
                            "v": 60, 
                            "dur": 150.0, 
                            "type": "note", 
                            "channel": 0
                        }
                    ]
                ], 
                [
                    13200, 
                    [
                        {
                            "pitch": 52, 
                            "t0": 13200, 
                            "v": 70, 
                            "dur": 150.0, 
                            "type": "note", 
                            "channel": 0
                        }
                    ]
                ], 
                [
                    13800, 
                    [
                        {
                            "pitch": 53, 
                            "t0": 13800, 
                            "v": 70, 
                            "dur": 300.0, 
                            "type": "note", 
                            "channel": 0
                        }
                    ]
                ], 
                [
                    14400, 
                    [
                        {
                            "pitch": 50, 
                            "t0": 14400, 
                            "v": 90, 
                            "dur": 300.0, 
                            "type": "note", 
                            "channel": 0
                        }
                    ]
                ], 
                [
                    14700.0, 
                    [
                        {
                            "pitch": 51, 
                            "t0": 14700.0, 
                            "v": 60, 
                            "dur": 150.0, 
                            "type": "note", 
                            "channel": 0
                        }
                    ]
                ], 
                [
                    15600, 
                    [
                        {
                            "pitch": 52, 
                            "t0": 15600, 
                            "v": 70, 
                            "dur": 150.0, 
                            "type": "note", 
                            "channel": 0
                        }
                    ]
                ], 
                [
                    16200, 
                    [
                        {
                            "pitch": 53, 
                            "t0": 16200, 
                            "v": 70, 
                            "dur": 300.0, 
                            "type": "note", 
                            "channel": 0
                        }
                    ]
                ], 
                [
                    16800, 
                    [
                        {
                            "pitch": 50, 
                            "t0": 16800, 
                            "v": 90, 
                            "dur": 300.0, 
                            "type": "note", 
                            "channel": 0
                        }
                    ]
                ], 
                [
                    17100.0, 
                    [
                        {
                            "pitch": 51, 
                            "t0": 17100.0, 
                            "v": 60, 
                            "dur": 150.0, 
                            "type": "note", 
                            "channel": 0
                        }
                    ]
                ], 
                [
                    18000, 
                    [
                        {
                            "pitch": 52, 
                            "t0": 18000, 
                            "v": 70, 
                            "dur": 150.0, 
                            "type": "note", 
                            "channel": 0
                        }
                    ]
                ], 
                [
                    18600, 
                    [
                        {
                            "pitch": 53, 
                            "t0": 18600, 
                            "v": 70, 
                            "dur": 300.0, 
                            "type": "note", 
                            "channel": 0
                        }
                    ]
                ]
            ], 
            "instruments": [], 
            "tMax": 19200, 
            "channels": [], 
            "numNotes": 32, 
            "type": "TrackObj"
        }
    ], 
    "type": "MidiObj", 
    "loop": false
}