{
    "format": 1, 
    "instruments": [], 
    "resolution": 240, 
    "channels": [
        9
    ], 
    "tracks": [
        {
            "trackName": "Track1", 
            "seq": [
                [
                    0, 
                    [
                        {
                            "bpm": 77.99997660000702, 
                            "type": "tempo", 
                            "mpqn": 769231, 
                            "t0": 0
                        }
                    ]
                ]
            ], 
            "instruments": [], 
            "tMax": 0, 
            "channels": [], 
            "numNotes": 0, 
            "type": "TrackObj"
        }, 
        {
            "trackName": "Track2", 
            "seq": [
                [
                    0, 
                    [
                        {
                            "pitch": 36, 
                            "t0": 0, 
                            "v": 100, 
                            "dur": 72, 
                            "type": "note", 
                            "channel": 9
                        }, 
                        {
                            "pitch": 49, 
                            "t0": 0, 
                            "v": 105, 
                            "dur": 74, 
                            "type": "note", 
                            "channel": 9
                        }
                    ]
                ], 
                [
                    244, 
                    [
                        {
                            "pitch": 51, 
                            "t0": 244, 
                            "v": 94, 
                            "dur": 74, 
                            "type": "note", 
                            "channel": 9
                        }
                    ]
                ], 
                [
                    246, 
                    [
                        {
                            "pitch": 44, 
                            "t0": 246, 
                            "v": 113, 
                            "dur": 71, 
                            "type": "note", 
                            "channel": 9
                        }
                    ]
                ], 
                [
                    247, 
                    [
                        {
                            "pitch": 38, 
                            "t0": 247, 
                            "v": 110, 
                            "dur": 74, 
                            "type": "note", 
                            "channel": 9
                        }
                    ]
                ], 
                [
                    323, 
                    [
                        {
                            "pitch": 51, 
                            "t0": 323, 
                            "v": 47, 
                            "dur": 22, 
                            "type": "note", 
                            "channel": 9
                        }
                    ]
                ], 
                [
                    364, 
                    [
                        {
                            "pitch": 51, 
                            "t0": 364, 
                            "v": 50, 
                            "dur": 26, 
                            "type": "note", 
                            "channel": 9
                        }
                    ]
                ], 
                [
                    403, 
                    [
                        {
                            "pitch": 51, 
                            "t0": 403, 
                            "v": 72, 
                            "dur": 74, 
                            "type": "note", 
                            "channel": 9
                        }
                    ]
                ], 
                [
                    404, 
                    [
                        {
                            "pitch": 36, 
                            "t0": 404, 
                            "v": 85, 
                            "dur": 71, 
                            "type": "note", 
                            "channel": 9
                        }
                    ]
                ], 
                [
                    484, 
                    [
                        {
                            "pitch": 36, 
                            "t0": 484, 
                            "v": 93, 
                            "dur": 72, 
                            "type": "note", 
                            "channel": 9
                        }, 
                        {
                            "pitch": 51, 
                            "t0": 484, 
                            "v": 90, 
                            "dur": 74, 
                            "type": "note", 
                            "channel": 9
                        }
                    ]
                ], 
                [
                    564, 
                    [
                        {
                            "pitch": 51, 
                            "t0": 564, 
                            "v": 63, 
                            "dur": 69, 
                            "type": "note", 
                            "channel": 9
                        }
                    ]
                ], 
                [
                    644, 
                    [
                        {
                            "pitch": 51, 
                            "t0": 644, 
                            "v": 71, 
                            "dur": 69, 
                            "type": "note", 
                            "channel": 9
                        }
                    ]
                ], 
                [
                    645, 
                    [
                        {
                            "pitch": 36, 
                            "t0": 645, 
                            "v": 84, 
                            "dur": 71, 
                            "type": "note", 
                            "channel": 9
                        }
                    ]
                ], 
                [
                    724, 
                    [
                        {
                            "pitch": 44, 
                            "t0": 724, 
                            "v": 116, 
                            "dur": 71, 
                            "type": "note", 
                            "channel": 9
                        }, 
                        {
                            "pitch": 38, 
                            "t0": 724, 
                            "v": 109, 
                            "dur": 74, 
                            "type": "note", 
                            "channel": 9
                        }
                    ]
                ], 
                [
                    726, 
                    [
                        {
                            "pitch": 51, 
                            "t0": 726, 
                            "v": 91, 
                            "dur": 74, 
                            "type": "note", 
                            "channel": 9
                        }
                    ]
                ], 
                [
                    804, 
                    [
                        {
                            "pitch": 51, 
                            "t0": 804, 
                            "v": 51, 
                            "dur": 38, 
                            "type": "note", 
                            "channel": 9
                        }
                    ]
                ], 
                [
                    842, 
                    [
                        {
                            "pitch": 51, 
                            "t0": 842, 
                            "v": 54, 
                            "dur": 30, 
                            "type": "note", 
                            "channel": 9
                        }
                    ]
                ], 
                [
                    883, 
                    [
                        {
                            "pitch": 51, 
                            "t0": 883, 
                            "v": 68, 
                            "dur": 71, 
                            "type": "note", 
                            "channel": 9
                        }
                    ]
                ], 
                [
                    884, 
                    [
                        {
                            "pitch": 36, 
                            "t0": 884, 
                            "v": 85, 
                            "dur": 71, 
                            "type": "note", 
                            "channel": 9
                        }
                    ]
                ], 
                [
                    963, 
                    [
                        {
                            "pitch": 51, 
                            "t0": 963, 
                            "v": 88, 
                            "dur": 74, 
                            "type": "note", 
                            "channel": 9
                        }
                    ]
                ], 
                [
                    965, 
                    [
                        {
                            "pitch": 36, 
                            "t0": 965, 
                            "v": 98, 
                            "dur": 72, 
                            "type": "note", 
                            "channel": 9
                        }
                    ]
                ], 
                [
                    1043, 
                    [
                        {
                            "pitch": 51, 
                            "t0": 1043, 
                            "v": 66, 
                            "dur": 74, 
                            "type": "note", 
                            "channel": 9
                        }
                    ]
                ], 
                [
                    1125, 
                    [
                        {
                            "pitch": 51, 
                            "t0": 1125, 
                            "v": 71, 
                            "dur": 74, 
                            "type": "note", 
                            "channel": 9
                        }
                    ]
                ], 
                [
                    1203, 
                    [
                        {
                            "pitch": 51, 
                            "t0": 1203, 
                            "v": 93, 
                            "dur": 74, 
                            "type": "note", 
                            "channel": 9
                        }
                    ]
                ], 
                [
                    1204, 
                    [
                        {
                            "pitch": 38, 
                            "t0": 1204, 
                            "v": 111, 
                            "dur": 74, 
                            "type": "note", 
                            "channel": 9
                        }
                    ]
                ], 
                [
                    1205, 
                    [
                        {
                            "pitch": 44, 
                            "t0": 1205, 
                            "v": 114, 
                            "dur": 71, 
                            "type": "note", 
                            "channel": 9
                        }
                    ]
                ], 
                [
                    1283, 
                    [
                        {
                            "pitch": 51, 
                            "t0": 1283, 
                            "v": 50, 
                            "dur": 22, 
                            "type": "note", 
                            "channel": 9
                        }
                    ]
                ], 
                [
                    1324, 
                    [
                        {
                            "pitch": 51, 
                            "t0": 1324, 
                            "v": 53, 
                            "dur": 26, 
                            "type": "note", 
                            "channel": 9
                        }
                    ]
                ], 
                [
                    1365, 
                    [
                        {
                            "pitch": 51, 
                            "t0": 1365, 
                            "v": 70, 
                            "dur": 74, 
                            "type": "note", 
                            "channel": 9
                        }
                    ]
                ], 
                [
                    1366, 
                    [
                        {
                            "pitch": 36, 
                            "t0": 1366, 
                            "v": 86, 
                            "dur": 71, 
                            "type": "note", 
                            "channel": 9
                        }
                    ]
                ], 
                [
                    1443, 
                    [
                        {
                            "pitch": 36, 
                            "t0": 1443, 
                            "v": 94, 
                            "dur": 72, 
                            "type": "note", 
                            "channel": 9
                        }, 
                        {
                            "pitch": 51, 
                            "t0": 1443, 
                            "v": 87, 
                            "dur": 74, 
                            "type": "note", 
                            "channel": 9
                        }
                    ]
                ], 
                [
                    1524, 
                    [
                        {
                            "pitch": 51, 
                            "t0": 1524, 
                            "v": 65, 
                            "dur": 69, 
                            "type": "note", 
                            "channel": 9
                        }
                    ]
                ], 
                [
                    1603, 
                    [
                        {
                            "pitch": 51, 
                            "t0": 1603, 
                            "v": 72, 
                            "dur": 69, 
                            "type": "note", 
                            "channel": 9
                        }
                    ]
                ], 
                [
                    1606, 
                    [
                        {
                            "pitch": 36, 
                            "t0": 1606, 
                            "v": 87, 
                            "dur": 71, 
                            "type": "note", 
                            "channel": 9
                        }
                    ]
                ], 
                [
                    1682, 
                    [
                        {
                            "pitch": 51, 
                            "t0": 1682, 
                            "v": 91, 
                            "dur": 74, 
                            "type": "note", 
                            "channel": 9
                        }
                    ]
                ], 
                [
                    1683, 
                    [
                        {
                            "pitch": 44, 
                            "t0": 1683, 
                            "v": 117, 
                            "dur": 71, 
                            "type": "note", 
                            "channel": 9
                        }
                    ]
                ], 
                [
                    1685, 
                    [
                        {
                            "pitch": 38, 
                            "t0": 1685, 
                            "v": 108, 
                            "dur": 74, 
                            "type": "note", 
                            "channel": 9
                        }
                    ]
                ], 
                [
                    1764, 
                    [
                        {
                            "pitch": 51, 
                            "t0": 1764, 
                            "v": 51, 
                            "dur": 38, 
                            "type": "note", 
                            "channel": 9
                        }
                    ]
                ], 
                [
                    1804, 
                    [
                        {
                            "pitch": 51, 
                            "t0": 1804, 
                            "v": 55, 
                            "dur": 30, 
                            "type": "note", 
                            "channel": 9
                        }
                    ]
                ], 
                [
                    1843, 
                    [
                        {
                            "pitch": 51, 
                            "t0": 1843, 
                            "v": 69, 
                            "dur": 69, 
                            "type": "note", 
                            "channel": 9
                        }
                    ]
                ], 
                [
                    1845, 
                    [
                        {
                            "pitch": 36, 
                            "t0": 1845, 
                            "v": 87, 
                            "dur": 67, 
                            "type": "note", 
                            "channel": 9
                        }
                    ]
                ], 
                [
                    1923, 
                    [
                        {
                            "pitch": 51, 
                            "t0": 1923, 
                            "v": 91, 
                            "dur": 74, 
                            "type": "note", 
                            "channel": 9
                        }
                    ]
                ], 
                [
                    1924, 
                    [
                        {
                            "pitch": 36, 
                            "t0": 1924, 
                            "v": 102, 
                            "dur": 72, 
                            "type": "note", 
                            "channel": 9
                        }
                    ]
                ], 
                [
                    2004, 
                    [
                        {
                            "pitch": 51, 
                            "t0": 2004, 
                            "v": 64, 
                            "dur": 74, 
                            "type": "note", 
                            "channel": 9
                        }
                    ]
                ], 
                [
                    2085, 
                    [
                        {
                            "pitch": 51, 
                            "t0": 2085, 
                            "v": 71, 
                            "dur": 74, 
                            "type": "note", 
                            "channel": 9
                        }
                    ]
                ], 
                [
                    2165, 
                    [
                        {
                            "pitch": 44, 
                            "t0": 2165, 
                            "v": 116, 
                            "dur": 71, 
                            "type": "note", 
                            "channel": 9
                        }, 
                        {
                            "pitch": 51, 
                            "t0": 2165, 
                            "v": 92, 
                            "dur": 74, 
                            "type": "note", 
                            "channel": 9
                        }
                    ]
                ], 
                [
                    2166, 
                    [
                        {
                            "pitch": 38, 
                            "t0": 2166, 
                            "v": 110, 
                            "dur": 74, 
                            "type": "note", 
                            "channel": 9
                        }
                    ]
                ], 
                [
                    2244, 
                    [
                        {
                            "pitch": 51, 
                            "t0": 2244, 
                            "v": 46, 
                            "dur": 22, 
                            "type": "note", 
                            "channel": 9
                        }
                    ]
                ], 
                [
                    2282, 
                    [
                        {
                            "pitch": 51, 
                            "t0": 2282, 
                            "v": 50, 
                            "dur": 26, 
                            "type": "note", 
                            "channel": 9
                        }
                    ]
                ], 
                [
                    2323, 
                    [
                        {
                            "pitch": 51, 
                            "t0": 2323, 
                            "v": 72, 
                            "dur": 74, 
                            "type": "note", 
                            "channel": 9
                        }
                    ]
                ], 
                [
                    2324, 
                    [
                        {
                            "pitch": 36, 
                            "t0": 2324, 
                            "v": 84, 
                            "dur": 71, 
                            "type": "note", 
                            "channel": 9
                        }
                    ]
                ], 
                [
                    2403, 
                    [
                        {
                            "pitch": 36, 
                            "t0": 2403, 
                            "v": 93, 
                            "dur": 72, 
                            "type": "note", 
                            "channel": 9
                        }
                    ]
                ], 
                [
                    2404, 
                    [
                        {
                            "pitch": 51, 
                            "t0": 2404, 
                            "v": 88, 
                            "dur": 74, 
                            "type": "note", 
                            "channel": 9
                        }
                    ]
                ], 
                [
                    2484, 
                    [
                        {
                            "pitch": 51, 
                            "t0": 2484, 
                            "v": 65, 
                            "dur": 69, 
                            "type": "note", 
                            "channel": 9
                        }
                    ]
                ], 
                [
                    2564, 
                    [
                        {
                            "pitch": 51, 
                            "t0": 2564, 
                            "v": 71, 
                            "dur": 69, 
                            "type": "note", 
                            "channel": 9
                        }
                    ]
                ], 
                [
                    2566, 
                    [
                        {
                            "pitch": 36, 
                            "t0": 2566, 
                            "v": 87, 
                            "dur": 71, 
                            "type": "note", 
                            "channel": 9
                        }
                    ]
                ], 
                [
                    2643, 
                    [
                        {
                            "pitch": 44, 
                            "t0": 2643, 
                            "v": 117, 
                            "dur": 71, 
                            "type": "note", 
                            "channel": 9
                        }
                    ]
                ], 
                [
                    2644, 
                    [
                        {
                            "pitch": 38, 
                            "t0": 2644, 
                            "v": 108, 
                            "dur": 74, 
                            "type": "note", 
                            "channel": 9
                        }
                    ]
                ], 
                [
                    2646, 
                    [
                        {
                            "pitch": 51, 
                            "t0": 2646, 
                            "v": 91, 
                            "dur": 74, 
                            "type": "note", 
                            "channel": 9
                        }
                    ]
                ], 
                [
                    2724, 
                    [
                        {
                            "pitch": 51, 
                            "t0": 2724, 
                            "v": 51, 
                            "dur": 38, 
                            "type": "note", 
                            "channel": 9
                        }
                    ]
                ], 
                [
                    2762, 
                    [
                        {
                            "pitch": 51, 
                            "t0": 2762, 
                            "v": 51, 
                            "dur": 30, 
                            "type": "note", 
                            "channel": 9
                        }
                    ]
                ], 
                [
                    2804, 
                    [
                        {
                            "pitch": 51, 
                            "t0": 2804, 
                            "v": 67, 
                            "dur": 71, 
                            "type": "note", 
                            "channel": 9
                        }
                    ]
                ], 
                [
                    2805, 
                    [
                        {
                            "pitch": 36, 
                            "t0": 2805, 
                            "v": 86, 
                            "dur": 71, 
                            "type": "note", 
                            "channel": 9
                        }
                    ]
                ], 
                [
                    2884, 
                    [
                        {
                            "pitch": 51, 
                            "t0": 2884, 
                            "v": 89, 
                            "dur": 74, 
                            "type": "note", 
                            "channel": 9
                        }
                    ]
                ], 
                [
                    2885, 
                    [
                        {
                            "pitch": 36, 
                            "t0": 2885, 
                            "v": 98, 
                            "dur": 72, 
                            "type": "note", 
                            "channel": 9
                        }
                    ]
                ], 
                [
                    2963, 
                    [
                        {
                            "pitch": 51, 
                            "t0": 2963, 
                            "v": 63, 
                            "dur": 74, 
                            "type": "note", 
                            "channel": 9
                        }
                    ]
                ], 
                [
                    3044, 
                    [
                        {
                            "pitch": 51, 
                            "t0": 3044, 
                            "v": 66, 
                            "dur": 74, 
                            "type": "note", 
                            "channel": 9
                        }
                    ]
                ], 
                [
                    3123, 
                    [
                        {
                            "pitch": 51, 
                            "t0": 3123, 
                            "v": 96, 
                            "dur": 74, 
                            "type": "note", 
                            "channel": 9
                        }
                    ]
                ], 
                [
                    3124, 
                    [
                        {
                            "pitch": 38, 
                            "t0": 3124, 
                            "v": 109, 
                            "dur": 74, 
                            "type": "note", 
                            "channel": 9
                        }
                    ]
                ], 
                [
                    3125, 
                    [
                        {
                            "pitch": 44, 
                            "t0": 3125, 
                            "v": 114, 
                            "dur": 71, 
                            "type": "note", 
                            "channel": 9
                        }
                    ]
                ], 
                [
                    3202, 
                    [
                        {
                            "pitch": 51, 
                            "t0": 3202, 
                            "v": 50, 
                            "dur": 22, 
                            "type": "note", 
                            "channel": 9
                        }
                    ]
                ], 
                [
                    3244, 
                    [
                        {
                            "pitch": 51, 
                            "t0": 3244, 
                            "v": 53, 
                            "dur": 26, 
                            "type": "note", 
                            "channel": 9
                        }
                    ]
                ], 
                [
                    3285, 
                    [
                        {
                            "pitch": 51, 
                            "t0": 3285, 
                            "v": 70, 
                            "dur": 74, 
                            "type": "note", 
                            "channel": 9
                        }
                    ]
                ], 
                [
                    3286, 
                    [
                        {
                            "pitch": 36, 
                            "t0": 3286, 
                            "v": 86, 
                            "dur": 71, 
                            "type": "note", 
                            "channel": 9
                        }
                    ]
                ], 
                [
                    3363, 
                    [
                        {
                            "pitch": 36, 
                            "t0": 3363, 
                            "v": 94, 
                            "dur": 72, 
                            "type": "note", 
                            "channel": 9
                        }
                    ]
                ], 
                [
                    3364, 
                    [
                        {
                            "pitch": 51, 
                            "t0": 3364, 
                            "v": 90, 
                            "dur": 74, 
                            "type": "note", 
                            "channel": 9
                        }
                    ]
                ], 
                [
                    3444, 
                    [
                        {
                            "pitch": 51, 
                            "t0": 3444, 
                            "v": 62, 
                            "dur": 69, 
                            "type": "note", 
                            "channel": 9
                        }
                    ]
                ], 
                [
                    3523, 
                    [
                        {
                            "pitch": 51, 
                            "t0": 3523, 
                            "v": 72, 
                            "dur": 69, 
                            "type": "note", 
                            "channel": 9
                        }
                    ]
                ], 
                [
                    3526, 
                    [
                        {
                            "pitch": 36, 
                            "t0": 3526, 
                            "v": 87, 
                            "dur": 71, 
                            "type": "note", 
                            "channel": 9
                        }
                    ]
                ], 
                [
                    3602, 
                    [
                        {
                            "pitch": 51, 
                            "t0": 3602, 
                            "v": 93, 
                            "dur": 74, 
                            "type": "note", 
                            "channel": 9
                        }
                    ]
                ], 
                [
                    3603, 
                    [
                        {
                            "pitch": 44, 
                            "t0": 3603, 
                            "v": 117, 
                            "dur": 71, 
                            "type": "note", 
                            "channel": 9
                        }
                    ]
                ], 
                [
                    3606, 
                    [
                        {
                            "pitch": 38, 
                            "t0": 3606, 
                            "v": 111, 
                            "dur": 74, 
                            "type": "note", 
                            "channel": 9
                        }
                    ]
                ], 
                [
                    3684, 
                    [
                        {
                            "pitch": 51, 
                            "t0": 3684, 
                            "v": 51, 
                            "dur": 38, 
                            "type": "note", 
                            "channel": 9
                        }
                    ]
                ], 
                [
                    3724, 
                    [
                        {
                            "pitch": 51, 
                            "t0": 3724, 
                            "v": 55, 
                            "dur": 30, 
                            "type": "note", 
                            "channel": 9
                        }
                    ]
                ], 
                [
                    3765, 
                    [
                        {
                            "pitch": 51, 
                            "t0": 3765, 
                            "v": 67, 
                            "dur": 67, 
                            "type": "note", 
                            "channel": 9
                        }, 
                        {
                            "pitch": 36, 
                            "t0": 3765, 
                            "v": 87, 
                            "dur": 67, 
                            "type": "note", 
                            "channel": 9
                        }
                    ]
                ], 
                [
                    3843, 
                    [
                        {
                            "pitch": 36, 
                            "t0": 3843, 
                            "v": 100, 
                            "dur": 72, 
                            "type": "note", 
                            "channel": 9
                        }
                    ]
                ], 
                [
                    3844, 
                    [
                        {
                            "pitch": 51, 
                            "t0": 3844, 
                            "v": 91, 
                            "dur": 74, 
                            "type": "note", 
                            "channel": 9
                        }
                    ]
                ], 
                [
                    3922, 
                    [
                        {
                            "pitch": 51, 
                            "t0": 3922, 
                            "v": 64, 
                            "dur": 74, 
                            "type": "note", 
                            "channel": 9
                        }
                    ]
                ], 
                [
                    4004, 
                    [
                        {
                            "pitch": 51, 
                            "t0": 4004, 
                            "v": 70, 
                            "dur": 74, 
                            "type": "note", 
                            "channel": 9
                        }
                    ]
                ], 
                [
                    4083, 
                    [
                        {
                            "pitch": 38, 
                            "t0": 4083, 
                            "v": 110, 
                            "dur": 74, 
                            "type": "note", 
                            "channel": 9
                        }
                    ]
                ], 
                [
                    4084, 
                    [
                        {
                            "pitch": 44, 
                            "t0": 4084, 
                            "v": 115, 
                            "dur": 71, 
                            "type": "note", 
                            "channel": 9
                        }, 
                        {
                            "pitch": 51, 
                            "t0": 4084, 
                            "v": 94, 
                            "dur": 74, 
                            "type": "note", 
                            "channel": 9
                        }
                    ]
                ], 
                [
                    4164, 
                    [
                        {
                            "pitch": 51, 
                            "t0": 4164, 
                            "v": 48, 
                            "dur": 22, 
                            "type": "note", 
                            "channel": 9
                        }
                    ]
                ], 
                [
                    4203, 
                    [
                        {
                            "pitch": 51, 
                            "t0": 4203, 
                            "v": 52, 
                            "dur": 26, 
                            "type": "note", 
                            "channel": 9
                        }
                    ]
                ], 
                [
                    4243, 
                    [
                        {
                            "pitch": 51, 
                            "t0": 4243, 
                            "v": 72, 
                            "dur": 74, 
                            "type": "note", 
                            "channel": 9
                        }
                    ]
                ], 
                [
                    4244, 
                    [
                        {
                            "pitch": 36, 
                            "t0": 4244, 
                            "v": 84, 
                            "dur": 71, 
                            "type": "note", 
                            "channel": 9
                        }
                    ]
                ], 
                [
                    4323, 
                    [
                        {
                            "pitch": 36, 
                            "t0": 4323, 
                            "v": 94, 
                            "dur": 72, 
                            "type": "note", 
                            "channel": 9
                        }
                    ]
                ], 
                [
                    4324, 
                    [
                        {
                            "pitch": 51, 
                            "t0": 4324, 
                            "v": 90, 
                            "dur": 74, 
                            "type": "note", 
                            "channel": 9
                        }
                    ]
                ], 
                [
                    4404, 
                    [
                        {
                            "pitch": 51, 
                            "t0": 4404, 
                            "v": 61, 
                            "dur": 69, 
                            "type": "note", 
                            "channel": 9
                        }
                    ]
                ], 
                [
                    4484, 
                    [
                        {
                            "pitch": 51, 
                            "t0": 4484, 
                            "v": 71, 
                            "dur": 69, 
                            "type": "note", 
                            "channel": 9
                        }
                    ]
                ], 
                [
                    4486, 
                    [
                        {
                            "pitch": 36, 
                            "t0": 4486, 
                            "v": 87, 
                            "dur": 71, 
                            "type": "note", 
                            "channel": 9
                        }
                    ]
                ], 
                [
                    4564, 
                    [
                        {
                            "pitch": 44, 
                            "t0": 4564, 
                            "v": 113, 
                            "dur": 71, 
                            "type": "note", 
                            "channel": 9
                        }
                    ]
                ], 
                [
                    4566, 
                    [
                        {
                            "pitch": 51, 
                            "t0": 4566, 
                            "v": 91, 
                            "dur": 74, 
                            "type": "note", 
                            "channel": 9
                        }, 
                        {
                            "pitch": 38, 
                            "t0": 4566, 
                            "v": 112, 
                            "dur": 74, 
                            "type": "note", 
                            "channel": 9
                        }
                    ]
                ], 
                [
                    4644, 
                    [
                        {
                            "pitch": 51, 
                            "t0": 4644, 
                            "v": 51, 
                            "dur": 38, 
                            "type": "note", 
                            "channel": 9
                        }
                    ]
                ], 
                [
                    4682, 
                    [
                        {
                            "pitch": 51, 
                            "t0": 4682, 
                            "v": 54, 
                            "dur": 30, 
                            "type": "note", 
                            "channel": 9
                        }
                    ]
                ], 
                [
                    4723, 
                    [
                        {
                            "pitch": 51, 
                            "t0": 4723, 
                            "v": 68, 
                            "dur": 71, 
                            "type": "note", 
                            "channel": 9
                        }
                    ]
                ], 
                [
                    4724, 
                    [
                        {
                            "pitch": 36, 
                            "t0": 4724, 
                            "v": 85, 
                            "dur": 71, 
                            "type": "note", 
                            "channel": 9
                        }
                    ]
                ], 
                [
                    4803, 
                    [
                        {
                            "pitch": 51, 
                            "t0": 4803, 
                            "v": 88, 
                            "dur": 74, 
                            "type": "note", 
                            "channel": 9
                        }
                    ]
                ], 
                [
                    4805, 
                    [
                        {
                            "pitch": 36, 
                            "t0": 4805, 
                            "v": 98, 
                            "dur": 72, 
                            "type": "note", 
                            "channel": 9
                        }
                    ]
                ], 
                [
                    4883, 
                    [
                        {
                            "pitch": 51, 
                            "t0": 4883, 
                            "v": 64, 
                            "dur": 74, 
                            "type": "note", 
                            "channel": 9
                        }
                    ]
                ], 
                [
                    4965, 
                    [
                        {
                            "pitch": 51, 
                            "t0": 4965, 
                            "v": 71, 
                            "dur": 74, 
                            "type": "note", 
                            "channel": 9
                        }
                    ]
                ], 
                [
                    5043, 
                    [
                        {
                            "pitch": 51, 
                            "t0": 5043, 
                            "v": 93, 
                            "dur": 74, 
                            "type": "note", 
                            "channel": 9
                        }
                    ]
                ], 
                [
                    5045, 
                    [
                        {
                            "pitch": 44, 
                            "t0": 5045, 
                            "v": 114, 
                            "dur": 71, 
                            "type": "note", 
                            "channel": 9
                        }, 
                        {
                            "pitch": 38, 
                            "t0": 5045, 
                            "v": 108, 
                            "dur": 74, 
                            "type": "note", 
                            "channel": 9
                        }
                    ]
                ], 
                [
                    5122, 
                    [
                        {
                            "pitch": 51, 
                            "t0": 5122, 
                            "v": 50, 
                            "dur": 22, 
                            "type": "note", 
                            "channel": 9
                        }
                    ]
                ], 
                [
                    5164, 
                    [
                        {
                            "pitch": 51, 
                            "t0": 5164, 
                            "v": 53, 
                            "dur": 26, 
                            "type": "note", 
                            "channel": 9
                        }
                    ]
                ], 
                [
                    5205, 
                    [
                        {
                            "pitch": 51, 
                            "t0": 5205, 
                            "v": 70, 
                            "dur": 74, 
                            "type": "note", 
                            "channel": 9
                        }
                    ]
                ], 
                [
                    5206, 
                    [
                        {
                            "pitch": 36, 
                            "t0": 5206, 
                            "v": 86, 
                            "dur": 71, 
                            "type": "note", 
                            "channel": 9
                        }
                    ]
                ], 
                [
                    5283, 
                    [
                        {
                            "pitch": 36, 
                            "t0": 5283, 
                            "v": 94, 
                            "dur": 72, 
                            "type": "note", 
                            "channel": 9
                        }, 
                        {
                            "pitch": 51, 
                            "t0": 5283, 
                            "v": 87, 
                            "dur": 74, 
                            "type": "note", 
                            "channel": 9
                        }
                    ]
                ], 
                [
                    5364, 
                    [
                        {
                            "pitch": 51, 
                            "t0": 5364, 
                            "v": 65, 
                            "dur": 69, 
                            "type": "note", 
                            "channel": 9
                        }
                    ]
                ], 
                [
                    5443, 
                    [
                        {
                            "pitch": 51, 
                            "t0": 5443, 
                            "v": 70, 
                            "dur": 69, 
                            "type": "note", 
                            "channel": 9
                        }
                    ]
                ], 
                [
                    5446, 
                    [
                        {
                            "pitch": 36, 
                            "t0": 5446, 
                            "v": 87, 
                            "dur": 71, 
                            "type": "note", 
                            "channel": 9
                        }
                    ]
                ], 
                [
                    5522, 
                    [
                        {
                            "pitch": 51, 
                            "t0": 5522, 
                            "v": 91, 
                            "dur": 74, 
                            "type": "note", 
                            "channel": 9
                        }, 
                        {
                            "pitch": 38, 
                            "t0": 5522, 
                            "v": 109, 
                            "dur": 74, 
                            "type": "note", 
                            "channel": 9
                        }
                    ]
                ], 
                [
                    5523, 
                    [
                        {
                            "pitch": 44, 
                            "t0": 5523, 
                            "v": 117, 
                            "dur": 71, 
                            "type": "note", 
                            "channel": 9
                        }
                    ]
                ], 
                [
                    5604, 
                    [
                        {
                            "pitch": 51, 
                            "t0": 5604, 
                            "v": 51, 
                            "dur": 38, 
                            "type": "note", 
                            "channel": 9
                        }
                    ]
                ], 
                [
                    5644, 
                    [
                        {
                            "pitch": 51, 
                            "t0": 5644, 
                            "v": 55, 
                            "dur": 30, 
                            "type": "note", 
                            "channel": 9
                        }
                    ]
                ], 
                [
                    5683, 
                    [
                        {
                            "pitch": 51, 
                            "t0": 5683, 
                            "v": 69, 
                            "dur": 69, 
                            "type": "note", 
                            "channel": 9
                        }
                    ]
                ], 
                [
                    5685, 
                    [
                        {
                            "pitch": 36, 
                            "t0": 5685, 
                            "v": 87, 
                            "dur": 67, 
                            "type": "note", 
                            "channel": 9
                        }
                    ]
                ], 
                [
                    5764, 
                    [
                        {
                            "pitch": 36, 
                            "t0": 5764, 
                            "v": 102, 
                            "dur": 72, 
                            "type": "note", 
                            "channel": 9
                        }, 
                        {
                            "pitch": 49, 
                            "t0": 5764, 
                            "v": 102, 
                            "dur": 74, 
                            "type": "note", 
                            "channel": 9
                        }
                    ]
                ], 
                [
                    6005, 
                    [
                        {
                            "pitch": 44, 
                            "t0": 6005, 
                            "v": 116, 
                            "dur": 71, 
                            "type": "note", 
                            "channel": 9
                        }, 
                        {
                            "pitch": 51, 
                            "t0": 6005, 
                            "v": 92, 
                            "dur": 74, 
                            "type": "note", 
                            "channel": 9
                        }
                    ]
                ], 
                [
                    6006, 
                    [
                        {
                            "pitch": 38, 
                            "t0": 6006, 
                            "v": 108, 
                            "dur": 74, 
                            "type": "note", 
                            "channel": 9
                        }
                    ]
                ], 
                [
                    6084, 
                    [
                        {
                            "pitch": 51, 
                            "t0": 6084, 
                            "v": 46, 
                            "dur": 22, 
                            "type": "note", 
                            "channel": 9
                        }
                    ]
                ], 
                [
                    6122, 
                    [
                        {
                            "pitch": 51, 
                            "t0": 6122, 
                            "v": 50, 
                            "dur": 26, 
                            "type": "note", 
                            "channel": 9
                        }
                    ]
                ], 
                [
                    6163, 
                    [
                        {
                            "pitch": 51, 
                            "t0": 6163, 
                            "v": 72, 
                            "dur": 74, 
                            "type": "note", 
                            "channel": 9
                        }
                    ]
                ], 
                [
                    6164, 
                    [
                        {
                            "pitch": 36, 
                            "t0": 6164, 
                            "v": 84, 
                            "dur": 71, 
                            "type": "note", 
                            "channel": 9
                        }
                    ]
                ], 
                [
                    6243, 
                    [
                        {
                            "pitch": 36, 
                            "t0": 6243, 
                            "v": 93, 
                            "dur": 72, 
                            "type": "note", 
                            "channel": 9
                        }
                    ]
                ], 
                [
                    6244, 
                    [
                        {
                            "pitch": 51, 
                            "t0": 6244, 
                            "v": 90, 
                            "dur": 74, 
                            "type": "note", 
                            "channel": 9
                        }
                    ]
                ], 
                [
                    6324, 
                    [
                        {
                            "pitch": 51, 
                            "t0": 6324, 
                            "v": 60, 
                            "dur": 69, 
                            "type": "note", 
                            "channel": 9
                        }
                    ]
                ], 
                [
                    6405, 
                    [
                        {
                            "pitch": 51, 
                            "t0": 6405, 
                            "v": 72, 
                            "dur": 69, 
                            "type": "note", 
                            "channel": 9
                        }
                    ]
                ], 
                [
                    6406, 
                    [
                        {
                            "pitch": 36, 
                            "t0": 6406, 
                            "v": 87, 
                            "dur": 71, 
                            "type": "note", 
                            "channel": 9
                        }
                    ]
                ], 
                [
                    6483, 
                    [
                        {
                            "pitch": 44, 
                            "t0": 6483, 
                            "v": 117, 
                            "dur": 71, 
                            "type": "note", 
                            "channel": 9
                        }, 
                        {
                            "pitch": 38, 
                            "t0": 6483, 
                            "v": 111, 
                            "dur": 74, 
                            "type": "note", 
                            "channel": 9
                        }
                    ]
                ], 
                [
                    6486, 
                    [
                        {
                            "pitch": 51, 
                            "t0": 6486, 
                            "v": 91, 
                            "dur": 74, 
                            "type": "note", 
                            "channel": 9
                        }
                    ]
                ], 
                [
                    6564, 
                    [
                        {
                            "pitch": 51, 
                            "t0": 6564, 
                            "v": 51, 
                            "dur": 38, 
                            "type": "note", 
                            "channel": 9
                        }
                    ]
                ], 
                [
                    6602, 
                    [
                        {
                            "pitch": 51, 
                            "t0": 6602, 
                            "v": 54, 
                            "dur": 30, 
                            "type": "note", 
                            "channel": 9
                        }
                    ]
                ], 
                [
                    6645, 
                    [
                        {
                            "pitch": 51, 
                            "t0": 6645, 
                            "v": 68, 
                            "dur": 71, 
                            "type": "note", 
                            "channel": 9
                        }, 
                        {
                            "pitch": 36, 
                            "t0": 6645, 
                            "v": 86, 
                            "dur": 71, 
                            "type": "note", 
                            "channel": 9
                        }
                    ]
                ], 
                [
                    6724, 
                    [
                        {
                            "pitch": 51, 
                            "t0": 6724, 
                            "v": 88, 
                            "dur": 74, 
                            "type": "note", 
                            "channel": 9
                        }
                    ]
                ], 
                [
                    6725, 
                    [
                        {
                            "pitch": 36, 
                            "t0": 6725, 
                            "v": 98, 
                            "dur": 72, 
                            "type": "note", 
                            "channel": 9
                        }
                    ]
                ], 
                [
                    6803, 
                    [
                        {
                            "pitch": 51, 
                            "t0": 6803, 
                            "v": 63, 
                            "dur": 74, 
                            "type": "note", 
                            "channel": 9
                        }
                    ]
                ], 
                [
                    6886, 
                    [
                        {
                            "pitch": 51, 
                            "t0": 6886, 
                            "v": 70, 
                            "dur": 74, 
                            "type": "note", 
                            "channel": 9
                        }
                    ]
                ], 
                [
                    6963, 
                    [
                        {
                            "pitch": 51, 
                            "t0": 6963, 
                            "v": 96, 
                            "dur": 74, 
                            "type": "note", 
                            "channel": 9
                        }
                    ]
                ], 
                [
                    6965, 
                    [
                        {
                            "pitch": 44, 
                            "t0": 6965, 
                            "v": 114, 
                            "dur": 71, 
                            "type": "note", 
                            "channel": 9
                        }, 
                        {
                            "pitch": 38, 
                            "t0": 6965, 
                            "v": 111, 
                            "dur": 74, 
                            "type": "note", 
                            "channel": 9
                        }
                    ]
                ], 
                [
                    7042, 
                    [
                        {
                            "pitch": 51, 
                            "t0": 7042, 
                            "v": 50, 
                            "dur": 22, 
                            "type": "note", 
                            "channel": 9
                        }
                    ]
                ], 
                [
                    7084, 
                    [
                        {
                            "pitch": 51, 
                            "t0": 7084, 
                            "v": 53, 
                            "dur": 26, 
                            "type": "note", 
                            "channel": 9
                        }
                    ]
                ], 
                [
                    7125, 
                    [
                        {
                            "pitch": 51, 
                            "t0": 7125, 
                            "v": 70, 
                            "dur": 74, 
                            "type": "note", 
                            "channel": 9
                        }
                    ]
                ], 
                [
                    7126, 
                    [
                        {
                            "pitch": 36, 
                            "t0": 7126, 
                            "v": 86, 
                            "dur": 71, 
                            "type": "note", 
                            "channel": 9
                        }
                    ]
                ], 
                [
                    7203, 
                    [
                        {
                            "pitch": 36, 
                            "t0": 7203, 
                            "v": 94, 
                            "dur": 72, 
                            "type": "note", 
                            "channel": 9
                        }
                    ]
                ], 
                [
                    7204, 
                    [
                        {
                            "pitch": 51, 
                            "t0": 7204, 
                            "v": 90, 
                            "dur": 74, 
                            "type": "note", 
                            "channel": 9
                        }
                    ]
                ], 
                [
                    7284, 
                    [
                        {
                            "pitch": 51, 
                            "t0": 7284, 
                            "v": 62, 
                            "dur": 69, 
                            "type": "note", 
                            "channel": 9
                        }
                    ]
                ], 
                [
                    7363, 
                    [
                        {
                            "pitch": 51, 
                            "t0": 7363, 
                            "v": 70, 
                            "dur": 69, 
                            "type": "note", 
                            "channel": 9
                        }
                    ]
                ], 
                [
                    7366, 
                    [
                        {
                            "pitch": 36, 
                            "t0": 7366, 
                            "v": 87, 
                            "dur": 71, 
                            "type": "note", 
                            "channel": 9
                        }
                    ]
                ], 
                [
                    7442, 
                    [
                        {
                            "pitch": 51, 
                            "t0": 7442, 
                            "v": 93, 
                            "dur": 74, 
                            "type": "note", 
                            "channel": 9
                        }
                    ]
                ], 
                [
                    7443, 
                    [
                        {
                            "pitch": 44, 
                            "t0": 7443, 
                            "v": 117, 
                            "dur": 71, 
                            "type": "note", 
                            "channel": 9
                        }
                    ]
                ], 
                [
                    7444, 
                    [
                        {
                            "pitch": 38, 
                            "t0": 7444, 
                            "v": 108, 
                            "dur": 74, 
                            "type": "note", 
                            "channel": 9
                        }
                    ]
                ], 
                [
                    7524, 
                    [
                        {
                            "pitch": 51, 
                            "t0": 7524, 
                            "v": 51, 
                            "dur": 38, 
                            "type": "note", 
                            "channel": 9
                        }
                    ]
                ], 
                [
                    7564, 
                    [
                        {
                            "pitch": 51, 
                            "t0": 7564, 
                            "v": 55, 
                            "dur": 30, 
                            "type": "note", 
                            "channel": 9
                        }
                    ]
                ], 
                [
                    7605, 
                    [
                        {
                            "pitch": 51, 
                            "t0": 7605, 
                            "v": 65, 
                            "dur": 67, 
                            "type": "note", 
                            "channel": 9
                        }, 
                        {
                            "pitch": 36, 
                            "t0": 7605, 
                            "v": 87, 
                            "dur": 67, 
                            "type": "note", 
                            "channel": 9
                        }
                    ]
                ], 
                [
                    7684, 
                    [
                        {
                            "pitch": 36, 
                            "t0": 7684, 
                            "v": 100, 
                            "dur": 72, 
                            "type": "note", 
                            "channel": 9
                        }, 
                        {
                            "pitch": 51, 
                            "t0": 7684, 
                            "v": 87, 
                            "dur": 74, 
                            "type": "note", 
                            "channel": 9
                        }
                    ]
                ], 
                [
                    7762, 
                    [
                        {
                            "pitch": 51, 
                            "t0": 7762, 
                            "v": 64, 
                            "dur": 74, 
                            "type": "note", 
                            "channel": 9
                        }
                    ]
                ], 
                [
                    7844, 
                    [
                        {
                            "pitch": 51, 
                            "t0": 7844, 
                            "v": 70, 
                            "dur": 74, 
                            "type": "note", 
                            "channel": 9
                        }
                    ]
                ], 
                [
                    7922, 
                    [
                        {
                            "pitch": 44, 
                            "t0": 7922, 
                            "v": 117, 
                            "dur": 71, 
                            "type": "note", 
                            "channel": 9
                        }
                    ]
                ], 
                [
                    7923, 
                    [
                        {
                            "pitch": 51, 
                            "t0": 7923, 
                            "v": 94, 
                            "dur": 74, 
                            "type": "note", 
                            "channel": 9
                        }
                    ]
                ], 
                [
                    7924, 
                    [
                        {
                            "pitch": 38, 
                            "t0": 7924, 
                            "v": 111, 
                            "dur": 74, 
                            "type": "note", 
                            "channel": 9
                        }
                    ]
                ], 
                [
                    8004, 
                    [
                        {
                            "pitch": 51, 
                            "t0": 8004, 
                            "v": 48, 
                            "dur": 22, 
                            "type": "note", 
                            "channel": 9
                        }
                    ]
                ], 
                [
                    8043, 
                    [
                        {
                            "pitch": 51, 
                            "t0": 8043, 
                            "v": 52, 
                            "dur": 26, 
                            "type": "note", 
                            "channel": 9
                        }
                    ]
                ], 
                [
                    8083, 
                    [
                        {
                            "pitch": 51, 
                            "t0": 8083, 
                            "v": 72, 
                            "dur": 74, 
                            "type": "note", 
                            "channel": 9
                        }
                    ]
                ], 
                [
                    8084, 
                    [
                        {
                            "pitch": 36, 
                            "t0": 8084, 
                            "v": 84, 
                            "dur": 71, 
                            "type": "note", 
                            "channel": 9
                        }
                    ]
                ], 
                [
                    8163, 
                    [
                        {
                            "pitch": 36, 
                            "t0": 8163, 
                            "v": 94, 
                            "dur": 72, 
                            "type": "note", 
                            "channel": 9
                        }
                    ]
                ], 
                [
                    8164, 
                    [
                        {
                            "pitch": 51, 
                            "t0": 8164, 
                            "v": 88, 
                            "dur": 74, 
                            "type": "note", 
                            "channel": 9
                        }
                    ]
                ], 
                [
                    8244, 
                    [
                        {
                            "pitch": 51, 
                            "t0": 8244, 
                            "v": 63, 
                            "dur": 69, 
                            "type": "note", 
                            "channel": 9
                        }
                    ]
                ], 
                [
                    8324, 
                    [
                        {
                            "pitch": 51, 
                            "t0": 8324, 
                            "v": 71, 
                            "dur": 69, 
                            "type": "note", 
                            "channel": 9
                        }
                    ]
                ], 
                [
                    8326, 
                    [
                        {
                            "pitch": 36, 
                            "t0": 8326, 
                            "v": 87, 
                            "dur": 71, 
                            "type": "note", 
                            "channel": 9
                        }
                    ]
                ], 
                [
                    8403, 
                    [
                        {
                            "pitch": 38, 
                            "t0": 8403, 
                            "v": 110, 
                            "dur": 74, 
                            "type": "note", 
                            "channel": 9
                        }
                    ]
                ], 
                [
                    8404, 
                    [
                        {
                            "pitch": 44, 
                            "t0": 8404, 
                            "v": 113, 
                            "dur": 71, 
                            "type": "note", 
                            "channel": 9
                        }, 
                        {
                            "pitch": 51, 
                            "t0": 8404, 
                            "v": 94, 
                            "dur": 74, 
                            "type": "note", 
                            "channel": 9
                        }
                    ]
                ], 
                [
                    8484, 
                    [
                        {
                            "pitch": 51, 
                            "t0": 8484, 
                            "v": 51, 
                            "dur": 38, 
                            "type": "note", 
                            "channel": 9
                        }
                    ]
                ], 
                [
                    8522, 
                    [
                        {
                            "pitch": 51, 
                            "t0": 8522, 
                            "v": 54, 
                            "dur": 30, 
                            "type": "note", 
                            "channel": 9
                        }
                    ]
                ], 
                [
                    8563, 
                    [
                        {
                            "pitch": 51, 
                            "t0": 8563, 
                            "v": 68, 
                            "dur": 71, 
                            "type": "note", 
                            "channel": 9
                        }
                    ]
                ], 
                [
                    8564, 
                    [
                        {
                            "pitch": 36, 
                            "t0": 8564, 
                            "v": 85, 
                            "dur": 71, 
                            "type": "note", 
                            "channel": 9
                        }
                    ]
                ], 
                [
                    8643, 
                    [
                        {
                            "pitch": 51, 
                            "t0": 8643, 
                            "v": 90, 
                            "dur": 74, 
                            "type": "note", 
                            "channel": 9
                        }
                    ]
                ], 
                [
                    8645, 
                    [
                        {
                            "pitch": 36, 
                            "t0": 8645, 
                            "v": 98, 
                            "dur": 72, 
                            "type": "note", 
                            "channel": 9
                        }
                    ]
                ], 
                [
                    8723, 
                    [
                        {
                            "pitch": 51, 
                            "t0": 8723, 
                            "v": 66, 
                            "dur": 74, 
                            "type": "note", 
                            "channel": 9
                        }
                    ]
                ], 
                [
                    8805, 
                    [
                        {
                            "pitch": 51, 
                            "t0": 8805, 
                            "v": 71, 
                            "dur": 74, 
                            "type": "note", 
                            "channel": 9
                        }
                    ]
                ], 
                [
                    8883, 
                    [
                        {
                            "pitch": 51, 
                            "t0": 8883, 
                            "v": 93, 
                            "dur": 74, 
                            "type": "note", 
                            "channel": 9
                        }
                    ]
                ], 
                [
                    8884, 
                    [
                        {
                            "pitch": 44, 
                            "t0": 8884, 
                            "v": 117, 
                            "dur": 71, 
                            "type": "note", 
                            "channel": 9
                        }, 
                        {
                            "pitch": 38, 
                            "t0": 8884, 
                            "v": 108, 
                            "dur": 74, 
                            "type": "note", 
                            "channel": 9
                        }
                    ]
                ], 
                [
                    8962, 
                    [
                        {
                            "pitch": 51, 
                            "t0": 8962, 
                            "v": 50, 
                            "dur": 22, 
                            "type": "note", 
                            "channel": 9
                        }
                    ]
                ], 
                [
                    9004, 
                    [
                        {
                            "pitch": 51, 
                            "t0": 9004, 
                            "v": 53, 
                            "dur": 26, 
                            "type": "note", 
                            "channel": 9
                        }
                    ]
                ], 
                [
                    9045, 
                    [
                        {
                            "pitch": 51, 
                            "t0": 9045, 
                            "v": 70, 
                            "dur": 74, 
                            "type": "note", 
                            "channel": 9
                        }
                    ]
                ], 
                [
                    9046, 
                    [
                        {
                            "pitch": 36, 
                            "t0": 9046, 
                            "v": 86, 
                            "dur": 71, 
                            "type": "note", 
                            "channel": 9
                        }
                    ]
                ], 
                [
                    9123, 
                    [
                        {
                            "pitch": 36, 
                            "t0": 9123, 
                            "v": 94, 
                            "dur": 72, 
                            "type": "note", 
                            "channel": 9
                        }, 
                        {
                            "pitch": 51, 
                            "t0": 9123, 
                            "v": 87, 
                            "dur": 74, 
                            "type": "note", 
                            "channel": 9
                        }
                    ]
                ], 
                [
                    9204, 
                    [
                        {
                            "pitch": 51, 
                            "t0": 9204, 
                            "v": 65, 
                            "dur": 69, 
                            "type": "note", 
                            "channel": 9
                        }
                    ]
                ], 
                [
                    9283, 
                    [
                        {
                            "pitch": 51, 
                            "t0": 9283, 
                            "v": 72, 
                            "dur": 69, 
                            "type": "note", 
                            "channel": 9
                        }
                    ]
                ], 
                [
                    9286, 
                    [
                        {
                            "pitch": 36, 
                            "t0": 9286, 
                            "v": 87, 
                            "dur": 71, 
                            "type": "note", 
                            "channel": 9
                        }
                    ]
                ], 
                [
                    9362, 
                    [
                        {
                            "pitch": 51, 
                            "t0": 9362, 
                            "v": 91, 
                            "dur": 74, 
                            "type": "note", 
                            "channel": 9
                        }
                    ]
                ], 
                [
                    9363, 
                    [
                        {
                            "pitch": 44, 
                            "t0": 9363, 
                            "v": 117, 
                            "dur": 71, 
                            "type": "note", 
                            "channel": 9
                        }
                    ]
                ], 
                [
                    9366, 
                    [
                        {
                            "pitch": 38, 
                            "t0": 9366, 
                            "v": 111, 
                            "dur": 74, 
                            "type": "note", 
                            "channel": 9
                        }
                    ]
                ], 
                [
                    9444, 
                    [
                        {
                            "pitch": 51, 
                            "t0": 9444, 
                            "v": 51, 
                            "dur": 38, 
                            "type": "note", 
                            "channel": 9
                        }
                    ]
                ], 
                [
                    9484, 
                    [
                        {
                            "pitch": 51, 
                            "t0": 9484, 
                            "v": 55, 
                            "dur": 30, 
                            "type": "note", 
                            "channel": 9
                        }
                    ]
                ], 
                [
                    9523, 
                    [
                        {
                            "pitch": 51, 
                            "t0": 9523, 
                            "v": 69, 
                            "dur": 69, 
                            "type": "note", 
                            "channel": 9
                        }
                    ]
                ], 
                [
                    9525, 
                    [
                        {
                            "pitch": 36, 
                            "t0": 9525, 
                            "v": 87, 
                            "dur": 67, 
                            "type": "note", 
                            "channel": 9
                        }
                    ]
                ], 
                [
                    9603, 
                    [
                        {
                            "pitch": 51, 
                            "t0": 9603, 
                            "v": 91, 
                            "dur": 74, 
                            "type": "note", 
                            "channel": 9
                        }
                    ]
                ], 
                [
                    9604, 
                    [
                        {
                            "pitch": 36, 
                            "t0": 9604, 
                            "v": 102, 
                            "dur": 72, 
                            "type": "note", 
                            "channel": 9
                        }
                    ]
                ], 
                [
                    9684, 
                    [
                        {
                            "pitch": 51, 
                            "t0": 9684, 
                            "v": 62, 
                            "dur": 74, 
                            "type": "note", 
                            "channel": 9
                        }
                    ]
                ], 
                [
                    9765, 
                    [
                        {
                            "pitch": 51, 
                            "t0": 9765, 
                            "v": 71, 
                            "dur": 74, 
                            "type": "note", 
                            "channel": 9
                        }
                    ]
                ], 
                [
                    9844, 
                    [
                        {
                            "pitch": 44, 
                            "t0": 9844, 
                            "v": 115, 
                            "dur": 71, 
                            "type": "note", 
                            "channel": 9
                        }
                    ]
                ], 
                [
                    9845, 
                    [
                        {
                            "pitch": 51, 
                            "t0": 9845, 
                            "v": 92, 
                            "dur": 74, 
                            "type": "note", 
                            "channel": 9
                        }
                    ]
                ], 
                [
                    9846, 
                    [
                        {
                            "pitch": 38, 
                            "t0": 9846, 
                            "v": 110, 
                            "dur": 74, 
                            "type": "note", 
                            "channel": 9
                        }
                    ]
                ], 
                [
                    9924, 
                    [
                        {
                            "pitch": 51, 
                            "t0": 9924, 
                            "v": 46, 
                            "dur": 22, 
                            "type": "note", 
                            "channel": 9
                        }
                    ]
                ], 
                [
                    9962, 
                    [
                        {
                            "pitch": 51, 
                            "t0": 9962, 
                            "v": 50, 
                            "dur": 26, 
                            "type": "note", 
                            "channel": 9
                        }
                    ]
                ], 
                [
                    10003, 
                    [
                        {
                            "pitch": 51, 
                            "t0": 10003, 
                            "v": 72, 
                            "dur": 74, 
                            "type": "note", 
                            "channel": 9
                        }
                    ]
                ], 
                [
                    10004, 
                    [
                        {
                            "pitch": 36, 
                            "t0": 10004, 
                            "v": 84, 
                            "dur": 71, 
                            "type": "note", 
                            "channel": 9
                        }
                    ]
                ], 
                [
                    10083, 
                    [
                        {
                            "pitch": 36, 
                            "t0": 10083, 
                            "v": 92, 
                            "dur": 72, 
                            "type": "note", 
                            "channel": 9
                        }
                    ]
                ], 
                [
                    10084, 
                    [
                        {
                            "pitch": 51, 
                            "t0": 10084, 
                            "v": 90, 
                            "dur": 74, 
                            "type": "note", 
                            "channel": 9
                        }
                    ]
                ], 
                [
                    10164, 
                    [
                        {
                            "pitch": 51, 
                            "t0": 10164, 
                            "v": 65, 
                            "dur": 69, 
                            "type": "note", 
                            "channel": 9
                        }
                    ]
                ], 
                [
                    10244, 
                    [
                        {
                            "pitch": 51, 
                            "t0": 10244, 
                            "v": 71, 
                            "dur": 69, 
                            "type": "note", 
                            "channel": 9
                        }
                    ]
                ], 
                [
                    10245, 
                    [
                        {
                            "pitch": 36, 
                            "t0": 10245, 
                            "v": 88, 
                            "dur": 71, 
                            "type": "note", 
                            "channel": 9
                        }
                    ]
                ], 
                [
                    10323, 
                    [
                        {
                            "pitch": 44, 
                            "t0": 10323, 
                            "v": 117, 
                            "dur": 71, 
                            "type": "note", 
                            "channel": 9
                        }
                    ]
                ], 
                [
                    10324, 
                    [
                        {
                            "pitch": 38, 
                            "t0": 10324, 
                            "v": 113, 
                            "dur": 74, 
                            "type": "note", 
                            "channel": 9
                        }
                    ]
                ], 
                [
                    10326, 
                    [
                        {
                            "pitch": 51, 
                            "t0": 10326, 
                            "v": 91, 
                            "dur": 74, 
                            "type": "note", 
                            "channel": 9
                        }
                    ]
                ], 
                [
                    10404, 
                    [
                        {
                            "pitch": 51, 
                            "t0": 10404, 
                            "v": 51, 
                            "dur": 38, 
                            "type": "note", 
                            "channel": 9
                        }
                    ]
                ], 
                [
                    10442, 
                    [
                        {
                            "pitch": 51, 
                            "t0": 10442, 
                            "v": 54, 
                            "dur": 30, 
                            "type": "note", 
                            "channel": 9
                        }
                    ]
                ], 
                [
                    10484, 
                    [
                        {
                            "pitch": 51, 
                            "t0": 10484, 
                            "v": 69, 
                            "dur": 71, 
                            "type": "note", 
                            "channel": 9
                        }
                    ]
                ], 
                [
                    10485, 
                    [
                        {
                            "pitch": 36, 
                            "t0": 10485, 
                            "v": 86, 
                            "dur": 71, 
                            "type": "note", 
                            "channel": 9
                        }
                    ]
                ], 
                [
                    10564, 
                    [
                        {
                            "pitch": 51, 
                            "t0": 10564, 
                            "v": 92, 
                            "dur": 74, 
                            "type": "note", 
                            "channel": 9
                        }
                    ]
                ], 
                [
                    10565, 
                    [
                        {
                            "pitch": 36, 
                            "t0": 10565, 
                            "v": 99, 
                            "dur": 72, 
                            "type": "note", 
                            "channel": 9
                        }
                    ]
                ], 
                [
                    10643, 
                    [
                        {
                            "pitch": 51, 
                            "t0": 10643, 
                            "v": 66, 
                            "dur": 74, 
                            "type": "note", 
                            "channel": 9
                        }
                    ]
                ], 
                [
                    10725, 
                    [
                        {
                            "pitch": 51, 
                            "t0": 10725, 
                            "v": 71, 
                            "dur": 74, 
                            "type": "note", 
                            "channel": 9
                        }
                    ]
                ], 
                [
                    10802, 
                    [
                        {
                            "pitch": 38, 
                            "t0": 10802, 
                            "v": 114, 
                            "dur": 74, 
                            "type": "note", 
                            "channel": 9
                        }
                    ]
                ], 
                [
                    10803, 
                    [
                        {
                            "pitch": 51, 
                            "t0": 10803, 
                            "v": 96, 
                            "dur": 74, 
                            "type": "note", 
                            "channel": 9
                        }
                    ]
                ], 
                [
                    10805, 
                    [
                        {
                            "pitch": 44, 
                            "t0": 10805, 
                            "v": 118, 
                            "dur": 71, 
                            "type": "note", 
                            "channel": 9
                        }
                    ]
                ], 
                [
                    10882, 
                    [
                        {
                            "pitch": 51, 
                            "t0": 10882, 
                            "v": 80, 
                            "dur": 70, 
                            "type": "note", 
                            "channel": 9
                        }
                    ]
                ], 
                [
                    10966, 
                    [
                        {
                            "pitch": 36, 
                            "t0": 10966, 
                            "v": 86, 
                            "dur": 71, 
                            "type": "note", 
                            "channel": 9
                        }
                    ]
                ], 
                [
                    11035, 
                    [
                        {
                            "pitch": 38, 
                            "t0": 11035, 
                            "v": 90, 
                            "dur": 33, 
                            "type": "note", 
                            "channel": 9
                        }
                    ]
                ], 
                [
                    11037, 
                    [
                        {
                            "pitch": 47, 
                            "t0": 11037, 
                            "v": 75, 
                            "dur": 34, 
                            "type": "note", 
                            "channel": 9
                        }
                    ]
                ], 
                [
                    11040, 
                    [
                        {
                            "pitch": 44, 
                            "t0": 11040, 
                            "v": 117, 
                            "dur": 71, 
                            "type": "note", 
                            "channel": 9
                        }
                    ]
                ], 
                [
                    11076, 
                    [
                        {
                            "pitch": 47, 
                            "t0": 11076, 
                            "v": 71, 
                            "dur": 34, 
                            "type": "note", 
                            "channel": 9
                        }
                    ]
                ], 
                [
                    11079, 
                    [
                        {
                            "pitch": 38, 
                            "t0": 11079, 
                            "v": 85, 
                            "dur": 33, 
                            "type": "note", 
                            "channel": 9
                        }
                    ]
                ], 
                [
                    11117, 
                    [
                        {
                            "pitch": 47, 
                            "t0": 11117, 
                            "v": 72, 
                            "dur": 69, 
                            "type": "note", 
                            "channel": 9
                        }, 
                        {
                            "pitch": 38, 
                            "t0": 11117, 
                            "v": 105, 
                            "dur": 74, 
                            "type": "note", 
                            "channel": 9
                        }
                    ]
                ], 
                [
                    11196, 
                    [
                        {
                            "pitch": 47, 
                            "t0": 11196, 
                            "v": 74, 
                            "dur": 69, 
                            "type": "note", 
                            "channel": 9
                        }
                    ]
                ], 
                [
                    11199, 
                    [
                        {
                            "pitch": 38, 
                            "t0": 11199, 
                            "v": 107, 
                            "dur": 71, 
                            "type": "note", 
                            "channel": 9
                        }
                    ]
                ], 
                [
                    11277, 
                    [
                        {
                            "pitch": 38, 
                            "t0": 11277, 
                            "v": 120, 
                            "dur": 73, 
                            "type": "note", 
                            "channel": 9
                        }
                    ]
                ], 
                [
                    11363, 
                    [
                        {
                            "pitch": 47, 
                            "t0": 11363, 
                            "v": 109, 
                            "dur": 73, 
                            "type": "note", 
                            "channel": 9
                        }
                    ]
                ], 
                [
                    11438, 
                    [
                        {
                            "pitch": 43, 
                            "t0": 11438, 
                            "v": 114, 
                            "dur": 73, 
                            "type": "note", 
                            "channel": 9
                        }
                    ]
                ]
            ], 
            "instruments": [], 
            "tMax": 11511, 
            "channels": [
                9
            ], 
            "numNotes": 270, 
            "type": "TrackObj"
        }
    ], 
    "type": "MidiObj"
}